
<svg viewBox="0 0 112 184" height="184px" width="112px" y="0px" x="0px" preserveAspectRatio="none" xmlns:xlink="http://www.w3.org/1999/xlink" version="1.1" xmlns="http://www.w3.org/2000/svg">
<defs></defs>

<g id="fun_scrollers">
<g transform="matrix( 0.3621063232421875, 0, 0, 0.3621063232421875, -594.2,0.1)" id="svg"></g>

<g transform="matrix( 0.3621063232421875, 0, 0, 0.3621063232421875, -594.2,0.1)" id="Layer_2"></g>

<g transform="matrix( 0.3621063232421875, 0, 0, 0.3621063232421875, -594.2,0.1)" id="Layer_3"></g>

<g transform="matrix( 0.3621063232421875, 0, 0, 0.3621063232421875, -594.2,0.1)" id="Layer_2"></g>

<g transform="matrix( 0.3621063232421875, 0, 0, 0.3621063232421875, -594.2,0.1)" id="Layer_3"></g>

<g transform="matrix( 0.3621063232421875, 0, 0, 0.3621063232421875, -594.2,0.1)" id="Layer_6">
<g>
<g>
<g>
<path d="M 1893.65 119.7
L 1893.65 121.85
Q 1893.75 123.85 1893.85 124.5 1893.95625 124.925 1894.35 125.95
L 1894 123.85
Q 1893.8986328125 121.7205078125 1893.65 119.7
M 1877.9 48.45
Q 1871.2 44.3 1864.6 42.3 1858.15 40.4 1850.2 40.2
L 1846.45 40.2
Q 1821.3 39.75 1798.5 42.1
L 1795.05 42.5
Q 1787.45 43.3 1783.05 44.1 1776.35 45.2 1771.25 47.05 1770.4 48.7 1770.3 49.85 1770.15 50.95 1770.2 55.9
L 1770.2 58.6
Q 1770.15 60.55 1770.1 64.5 1770.2 67.9 1771.35 70.15 1774.25 71.55 1775.05 71.85 1775.9 72.1 1778 72.4
L 1801.15 72.9
Q 1799.95 76.45 1799.4 80.45 1798.95 83.4 1798.65 88.15 1798.15 96.6 1797.85 99.6 1797.1 105.95 1795.45 110.75 1793.6748046875 115.8478515625 1793.15 121.65
L 1793.7 121.65
Q 1793.45 129 1793.45 129.1
L 1793.75 131.25
Q 1795.4 131.9 1796.65 132.25
L 1793.35 133.85
Q 1793.2978515625 133.876171875 1793.25 133.9 1793.5150390625 133.8087890625 1793.75 133.75 1797.4 132.5 1800.85 132.15
L 1811.15 132.4
Q 1816.1 132.5 1826 132.55 1835.15 132.5 1844.3 132.6
L 1881.2 132.75
Q 1883.85 132.7 1884.7 132.75 1885.55 132.8 1888 133.15 1888.65 133.4 1889.3 133.7
L 1889.95 133.7
Q 1888.1916015625 133.046484375 1886.45 132.75
L 1886.45 132.3
Q 1888.4 132.05 1892.75 130.85 1893.75 127.7 1893.6 124.15 1893.55 122 1892.7 117.35
L 1893.35 117.35
Q 1893.100390625 115.676953125 1892.75 114.1 1889.4 98.85 1889.5 78.7
L 1889.65 70.05
Q 1889.8 63.8 1888.7 59.7 1887.45 56.65 1885.6 54.45 1883.9 52.45 1881 50.35
L 1877.9 48.45
M 1867.5 50.55
Q 1867.5 50.9 1874.05 55.6 1880.8 61.3 1881.7 66.2 1881.85 66.95 1881.95 67.8
L 1810.8 69.1 1809.8 66.2 1777.1 65.4
Q 1774.35 59.3 1776.1 52.9 1821.45 39.05 1867.5 50.55
M 1882.05 75.4
Q 1882.8 77 1883.05 78.65 1883.15 79.5 1883.25 82.1
L 1883.4 88.3
Q 1883.85 102.5 1886.45 115.95 1887.35 121.55 1887.05 125.4
L 1885.2 127.35
Q 1881.8 127.6 1877.1 127.65
L 1799.55 127.75
Q 1800.25 120.75 1800.5 119.1 1800.8 117.3 1801.8 113.95 1803.65 107.65 1804.25 97.35 1805.1 84.5 1807 76.7
L 1809.9 73.8
Q 1812 73.55 1812.8 73.45 1813.65 73.4 1816.3 73.4
L 1874.1 73.25
Q 1878.45 73.6 1882.05 75.4 Z" stroke="none" fill="#7E1A34"></path>

<path d="M 1793.15 121.65
L 1792.7 121.65 1792.7 126.45 1790.8 126.45
Q 1781.7 130.6 1776.4 133.85 1768.85 138.5 1764.1 144.05 1760.1 149.75 1758.3 157.15 1756.8 163.25 1756.7 171.4
L 1756.45 220.4
Q 1756.5 231.75 1756.3 254.2
L 1756.2 272.5
Q 1756.1 289.05 1756.05 291.9 1755.9 302.9 1755.5 311.35 1754.95 321.15 1755.15 333.95 1755.4 357.85 1755 376.2 1754.4 405.95 1754.4 424.3
L 1754.4 443.7
Q 1754.4 452.5 1755.55 457.5 1758.1 464.35 1764.15 469.45 1767.8 471.25 1772.1 472.2 1775.5 472.85 1780.35 473.2
L 1846.6 474.25
Q 1863.35 474.55 1870 474.4 1883.15 474.1 1893.3 472.35 1899.5 470.75 1903.95 467.55 1907.8 464.85 1912.35 459.4 1916.2 452.8 1916.85 447.7 1917.45 442.55 1917.15 418.45
L 1916.9 399.75
Q 1916.6 365.1 1917 340.5 1917.5 308.5 1919.25 281.35 1920.6 261 1921.9 233.45
L 1923.15 208.1
Q 1924.25 188.15 1923.55 178.1 1922.4 161.6 1916.95 149 1913.7 142.8 1910.65 139 1906.7 134 1901.75 131.35 1897.15 129.05 1894.7 126.95 1894.4958984375 126.4103515625 1894.35 125.95 1893.95625 124.925 1893.85 124.5 1893.75 123.85 1893.65 121.85
L 1893.65 119.7 1893.7 117.35 1893.35 117.35 1892.7 117.35
Q 1893.55 122 1893.6 124.15 1893.75 127.7 1892.75 130.85 1888.4 132.05 1886.45 132.3
L 1886.45 132.75
Q 1888.1916015625 133.046484375 1889.95 133.7 1890.5787109375 133.928125 1891.2 134.2
L 1893.75 135.65
Q 1902.45 140.65 1907.6 147.4 1912.65 154.8 1915 163.75 1917.1 171.65 1917.15 181.6
L 1917.2 184.15
Q 1917.2 196.45 1916.25 218.3
L 1914.85 248.3
Q 1914.65 252.95 1914.05 256.8 1913.6 259.7 1913.3 262.55
L 1911.8 290.7
Q 1910.45 316.65 1909.95 347.85 1909.65 370.65 1909.65 405.05
L 1909.65 434.85
Q 1909.7 443.4 1909.25 447.65 1907.55 451.55 1906.7 452.7 1905.95 453.9 1902.9 456.95
L 1898.1 461.8 1896.35 465.3 1896.2 465.6
Q 1895.84375 465.666015625 1895.45 465.7 1890.66328125 466.518359375 1882 466.75
L 1816.5 467.05
Q 1802.2 467.35 1795 467.3 1782.5 467.15 1773.65 465.3 1770.6 464.4 1769 463.2 1767.35 462.1 1765.35 459.5 1763 455.1 1762 451.75 1760.95 448 1760.9 443.4
L 1761.1 405.05
Q 1761.2 396.9 1761.2 392.85
L 1761.95 319.75
Q 1762.45 262.75 1762.95 240.9 1763.45 223.4 1763.45 210.8
L 1763.65 174.2
Q 1763.6 168.1 1763.8 165.6 1764.1 161 1765.4 157.25
L 1766.9 154.5
Q 1775.1 144.85 1778.45 142.25 1781.73515625 139.66171875 1793.25 133.9 1793.2978515625 133.876171875 1793.35 133.85
L 1796.65 132.25
Q 1795.4 131.9 1793.75 131.25
L 1793.45 129.1
Q 1793.45 129 1793.7 121.65
L 1793.15 121.65 Z" stroke="none" fill="#706C84"></path>

<path d="M 1844.3 132.6
Q 1835.15 132.5 1826 132.55 1816.1 132.5 1811.15 132.4
L 1800.85 132.15
Q 1797.4 132.5 1793.75 133.75 1793.5150390625 133.8087890625 1793.25 133.9 1781.73515625 139.66171875 1778.45 142.25 1775.1 144.85 1766.9 154.5
L 1765.4 157.25
Q 1764.1 161 1763.8 165.6 1763.6 168.1 1763.65 174.2
L 1763.45 210.8
Q 1763.45 223.4 1762.95 240.9 1762.45 262.75 1761.95 319.75
L 1761.2 392.85
Q 1761.2 396.9 1761.1 405.05
L 1760.9 443.4
Q 1760.95 448 1762 451.75 1763 455.1 1765.35 459.5 1767.35 462.1 1769 463.2 1770.6 464.4 1773.65 465.3 1782.5 467.15 1795 467.3 1802.2 467.35 1816.5 467.05
L 1882 466.75
Q 1890.66328125 466.518359375 1895.45 465.7 1895.9216796875 465.530078125 1896.35 465.3
L 1898.1 461.8 1902.9 456.95
Q 1905.95 453.9 1906.7 452.7 1907.55 451.55 1909.25 447.65 1909.7 443.4 1909.65 434.85
L 1909.65 405.05
Q 1909.65 370.65 1909.95 347.85 1910.45 316.65 1911.8 290.7
L 1913.3 262.55
Q 1913.6 259.7 1914.05 256.8 1914.65 252.95 1914.85 248.3
L 1916.25 218.3
Q 1917.2 196.45 1917.2 184.15
L 1917.15 181.6
Q 1917.1 171.65 1915 163.75 1912.65 154.8 1907.6 147.4 1902.45 140.65 1893.75 135.65
L 1891.2 134.2
Q 1890.5787109375 133.928125 1889.95 133.7
L 1889.3 133.7
Q 1888.65 133.4 1888 133.15 1885.55 132.8 1884.7 132.75 1883.85 132.7 1881.2 132.75
L 1844.3 132.6
M 1793 152.3
Q 1793.65 152.3 1794.4 152.3
L 1884.35 152.75
Q 1885.4 152.75 1886.5 152.8 1887.5 152.85 1888.55 152.95 1889.5 153.05 1890.5 153.2 1891.35 153.25 1892.3 153.4 1893.15 153.55 1894.05 153.7 1894.9 153.85 1895.75 154 1896.5 154.2 1897.35 154.45 1898 154.7 1898.65 155.1 1899.7 155.9 1900.65 156.85
L 1900.95 164.05 1900.8 182.85 1900.95 182.85 1901 186.6 1900.8 188.6 1898.9 188.6 1898.9 193.4
Q 1897.2 193.8 1896.5 193.9 1895.85 193.95 1893.45 193.95 1885 194.35 1875.4 196.5
L 1861.8 199.6
Q 1843.4 203.75 1838.95 203.9 1834.4 204.15 1825.8 201.05 1817.6 198.3 1810 197.9 1804.8 197.5 1798.85 195.4 1794.9 194.05 1788.25 191.05
L 1783.35 189.75 1779.6 188.15
Q 1779 185.95 1778.95 185.2 1778.95 184.5 1779.55 182.35 1783.5 181.6 1787.8 181.75
L 1835.2 181.85
Q 1849 181.75 1862.75 181.85
L 1865.5 181.9
Q 1872.25 181.9 1879.9 182.35
L 1888.6 182.95
Q 1890.65 183.1 1891.4 183.1 1892.2125 183.1 1894.75 182.85
L 1895 182.85 1895 179.1
Q 1894.5 179 1894 179 1892.9 178.95 1891.85 178.95 1890.7 178.95 1889.55 178.95 1888.3 178.95 1887.1 179 1885.8 179 1884.55 179.05 1879.2 179.3 1873.9 179.45 1873.1 179.5 1872.3 179.6 1871.3 179.6 1870.35 179.65 1869.3 179.75 1868.25 179.8 1867.1 179.8 1865.95 179.8 1864.7 179.85 1863.45 179.9 1862.05 179.9 1860.7 179.95 1859.25 180 1857.8 180.1 1856.2 180.1 1854.6 180.1 1853.5 180.1 1852.4 180.15 1851.75 180.15 1851.1 180.15 1850.35 180.1 1849.6 180.1 1847.95 180.05 1846.25 180.1 1843.25 179.8 1840.45 179.8 1837.85 179.8 1835.25 179.8 1832.6 179.75 1829.95 179.8 1824.5 179.9 1819.1 180.1
L 1784.4 180.25
Q 1783.55 180 1782.85 179.65 1782.5 179.6 1782.3 179.45 1782.05 179.3 1781.8 179.15 1781.65 179.05 1781.5 178.95 1781.35 178.85 1781.25 178.75 1781.2 178.7 1781.15 178.65 1781.05 178.5 1781 178.35 1780.85 178 1780.75 177.75 1780.55 177.35 1780.45 176.95 1780.15 175.55 1779.95 174.1 1779.75 172.6 1779.7 171.15 1779.6 169.7 1779.6 168.35 1779.55 166.9 1779.65 165.45 1779.7 164.05 1779.85 162.7 1780.2 159.95 1780.75 157.2 1781 155.8 1781.35 154.5
L 1781.35 154.4 1782.3 153.4 1783.45 153.4
Q 1783.8669921875 153.2353515625 1784.3 153.1 1785.1 152.85 1785.95 152.65 1786.75 152.5 1787.6 152.35 1787.75 152.35 1787.95 152.35 1788.15 152.35 1788.4 152.35 1788.65 152.35 1789 152.35 1789.35 152.35 1789.75 152.3 1790.2 152.3 1790.7 152.3 1791.2 152.3 1791.75 152.3 1792.35 152.3 1793 152.3
M 1895.1 209.7
Q 1895.85 214.25 1895.7 220.6
L 1895.7 223.45
Q 1895.6 227.55 1895.15 229.4 1894.5 231.75 1892.3 234.75
L 1891.35 238.6
Q 1886.85 240.75 1880.1 241.55 1876.9 241.85 1868.35 242.05
L 1865.7 242.15
Q 1862.3 242.15 1860.35 241.7 1857.9 241.15 1855.3 239.5 1852.25 236.2 1851.55 235.3 1850.95 234.3 1850 232 1849.65 229 1849.55 227.9 1849.5 226.85 1849.5 223.45
L 1849.45 218.9
Q 1849.75 215.55 1850.65 213.55 1851.5 211.6 1853.75 208.9
L 1855.5 206.7
Q 1859.9 202.65 1865.55 201.25 1869.3 200.35 1877.05 200.1
L 1880.4 200
Q 1885.55 199.95 1889.3 201.1 1891.45 202.85 1892.85 204.95 1894.1 206.75 1895.1 209.7
M 1891.15 256.4
L 1893.35 256.9
Q 1895.45 260.85 1896.3 267.45
L 1897.05 270.5
Q 1897.4 272.8 1897.5 273.55 1897.55 274.35 1897.6 276.6
L 1896.35 278.95
Q 1888.15 280.5 1877.1 279.05
L 1876.1 277.1
Q 1872.05 277.1 1868.1 277.3
L 1860.15 277.65
Q 1857.2 277.8 1842.55 278.2 1832.2 278.55 1827.05 278.8 1820.4 279.2 1812.1 279.35 1808.25 279.45 1806.35 279.65 1798.25 280.15 1796.3 279.85 1794.35 279.6 1790.55 277.5 1787.1 269.95 1789.35 258.35 1789.55 257.95 1806.75 258.15 1828.85 258.35 1830.15 258.35
L 1838.75 258.3
Q 1854.5 258.2 1866 257.25 1872.9 256.7 1882.05 256.6
L 1891.15 256.4
M 1889 435.25
L 1885.5 435.35
Q 1875 435.65 1853.9 436 1844.45 436.1 1832.65 436.5 1822.4 436.85 1812.1 436.9
L 1804.25 437.1
Q 1791.7 437.55 1789 437.35 1786.3 437.15 1782.55 435.3 1780.9 432.35 1780.55 431.3 1780.25 430.2 1779.9 426.65 1780.35 423.15 1780.7 422.05 1781.05 420.95 1782.5 418 1785.85 416.2 1790.3 416 1792.15 415.85 1798.6 416.25
L 1803.65 416.25
Q 1808.15 416.3 1817.2 416.65 1823.95 416.9 1830.55 416.85 1838.35 416.95 1846.35 417.25 1861.2 417.8 1870.75 417.5
L 1886.75 417
Q 1894 416.65 1895.75 416.75 1897.5 416.95 1900.8 418.45 1901.9 422.15 1901.85 426.15 1901.75 429.25 1900.85 433.85
L 1899.9 434.8
Q 1893.8 435.2 1889 435.25 Z" stroke="none" fill="#F5F7F9"></path>

<path d="M 1885.5 435.35
L 1889 435.25
Q 1893.8 435.2 1899.9 434.8
L 1900.85 433.85
Q 1901.75 429.25 1901.85 426.15 1901.9 422.15 1900.8 418.45 1897.5 416.95 1895.75 416.75 1894 416.65 1886.75 417
L 1870.75 417.5
Q 1861.2 417.8 1846.35 417.25 1838.35 416.95 1830.55 416.85 1823.95 416.9 1817.2 416.65 1808.15 416.3 1803.65 416.25
L 1798.6 416.25
Q 1792.15 415.85 1790.3 416 1785.85 416.2 1782.5 418 1781.05 420.95 1780.7 422.05 1780.35 423.15 1779.9 426.65 1780.25 430.2 1780.55 431.3 1780.9 432.35 1782.55 435.3 1786.3 437.15 1789 437.35 1791.7 437.55 1804.25 437.1
L 1812.1 436.9
Q 1822.4 436.85 1832.65 436.5 1844.45 436.1 1853.9 436 1875 435.65 1885.5 435.35
M 1893.35 256.9
L 1891.15 256.4 1882.05 256.6
Q 1872.9 256.7 1866 257.25 1854.5 258.2 1838.75 258.3
L 1830.15 258.35
Q 1828.85 258.35 1806.75 258.15 1789.55 257.95 1789.35 258.35 1787.1 269.95 1790.55 277.5 1794.35 279.6 1796.3 279.85 1798.25 280.15 1806.35 279.65 1808.25 279.45 1812.1 279.35 1820.4 279.2 1827.05 278.8 1832.2 278.55 1842.55 278.2 1857.2 277.8 1860.15 277.65
L 1868.1 277.3
Q 1872.05 277.1 1876.1 277.1
L 1877.1 279.05
Q 1888.15 280.5 1896.35 278.95
L 1897.6 276.6
Q 1897.55 274.35 1897.5 273.55 1897.4 272.8 1897.05 270.5
L 1896.3 267.45
Q 1895.45 260.85 1893.35 256.9 Z" stroke="none" fill="#9DAEEA"></path>

<path d="M 1895.7 220.6
Q 1895.85 214.25 1895.1 209.7 1894.1 206.75 1892.85 204.95 1891.45 202.85 1889.3 201.1 1885.55 199.95 1880.4 200
L 1877.05 200.1
Q 1869.3 200.35 1865.55 201.25 1859.9 202.65 1855.5 206.7
L 1853.75 208.9
Q 1851.5 211.6 1850.65 213.55 1849.75 215.55 1849.45 218.9
L 1849.5 223.45
Q 1849.5 226.85 1849.55 227.9 1849.65 229 1850 232 1850.95 234.3 1851.55 235.3 1852.25 236.2 1855.3 239.5 1857.9 241.15 1860.35 241.7 1862.3 242.15 1865.7 242.15
L 1868.35 242.05
Q 1876.9 241.85 1880.1 241.55 1886.85 240.75 1891.35 238.6
L 1892.3 234.75
Q 1894.5 231.75 1895.15 229.4 1895.6 227.55 1895.7 223.45
L 1895.7 220.6
M 1887.95 211.65
Q 1889.8 215.05 1890.35 218.2 1890.7 220.8 1890.35 225.15
L 1889.4 226.1
Q 1888.35 228.65 1887.9 229.5 1887.4 230.3 1885.6 232.8 1880.6 235.35 1874.75 236 1869.75 236.6 1863.45 235.8 1860.3 234.7 1859.45 234.1 1858.6 233.55 1856.7 231.05 1854.75 226.55 1854.75 221.45 1856.95 216.65 1858 215.25 1859.1 213.85 1863.2 210.35 1865.8 208.5 1868.1 207.7 1870.4 206.9 1873.65 206.7
L 1877.55 206.75
Q 1881 206.75 1884.5 206.85 1885.55 207.85 1885.95 208.5 1886.4 209.05 1887.95 211.65 Z" stroke="none" fill="#5D5A76"></path>

<path d="M 1890.35 218.2
Q 1889.8 215.05 1887.95 211.65 1886.4 209.05 1885.95 208.5 1885.55 207.85 1884.5 206.85 1881 206.75 1877.55 206.75
L 1873.65 206.7
Q 1870.4 206.9 1868.1 207.7 1865.8 208.5 1863.2 210.35 1859.1 213.85 1858 215.25 1856.95 216.65 1854.75 221.45 1854.75 226.55 1856.7 231.05 1858.6 233.55 1859.45 234.1 1860.3 234.7 1863.45 235.8 1869.75 236.6 1874.75 236 1880.6 235.35 1885.6 232.8 1887.4 230.3 1887.9 229.5 1888.35 228.65 1889.4 226.1
L 1890.35 225.15
Q 1890.7 220.8 1890.35 218.2 Z" stroke="none" fill="#F1F3F7"></path>

<path d="M 1783.35 189.75
L 1788.25 191.05
Q 1794.9 194.05 1798.85 195.4 1804.8 197.5 1810 197.9 1817.6 198.3 1825.8 201.05 1834.4 204.15 1838.95 203.9 1843.4 203.75 1861.8 199.6
L 1875.4 196.5
Q 1885 194.35 1893.45 193.95 1895.85 193.95 1896.5 193.9 1897.2 193.8 1898.9 193.4
L 1898.9 188.6 1900.8 188.6 1901 186.6 1900.95 182.85 1900.8 182.85 1895 182.85 1894.75 182.85
Q 1892.2125 183.1 1891.4 183.1 1890.65 183.1 1888.6 182.95
L 1879.9 182.35
Q 1872.25 181.9 1865.5 181.9
L 1862.75 181.85
Q 1849 181.75 1835.2 181.85
L 1787.8 181.75
Q 1783.5 181.6 1779.55 182.35 1778.95 184.5 1778.95 185.2 1779 185.95 1779.6 188.15
L 1783.35 189.75 Z" stroke="none" fill="#992A3F"></path>

<path d="M 1794.4 152.3
Q 1793.65 152.3 1793 152.3 1792.35 152.3 1791.75 152.3 1791.2 152.3 1790.7 152.3 1790.2 152.3 1789.75 152.3 1789.35 152.35 1789 152.35 1788.65 152.35 1788.4 152.35 1788.15 152.35 1787.95 152.35 1787.75 152.35 1787.6 152.35 1786.75 152.5 1785.95 152.65 1785.1 152.85 1784.3 153.1 1783.8669921875 153.2353515625 1783.45 153.4
L 1782.3 153.4 1781.35 154.4 1781.35 154.5
Q 1781 155.8 1780.75 157.2 1780.2 159.95 1779.85 162.7 1779.7 164.05 1779.65 165.45 1779.55 166.9 1779.6 168.35 1779.6 169.7 1779.7 171.15 1779.75 172.6 1779.95 174.1 1780.15 175.55 1780.45 176.95 1780.55 177.35 1780.75 177.75 1780.85 178 1781 178.35 1781.05 178.5 1781.15 178.65 1781.2 178.7 1781.25 178.75 1781.35 178.85 1781.5 178.95 1781.65 179.05 1781.8 179.15 1782.05 179.3 1782.3 179.45 1782.5 179.6 1782.85 179.65 1783.55 180 1784.4 180.25
L 1819.1 180.1
Q 1824.5 179.9 1829.95 179.8 1832.6 179.75 1835.25 179.8 1837.85 179.8 1840.45 179.8 1843.25 179.8 1846.25 180.1 1847.95 180.05 1849.6 180.1 1850.35 180.1 1851.1 180.15 1851.75 180.15 1852.4 180.15 1853.5 180.1 1854.6 180.1 1856.2 180.1 1857.8 180.1 1859.25 180 1860.7 179.95 1862.05 179.9 1863.45 179.9 1864.7 179.85 1865.95 179.8 1867.1 179.8 1868.25 179.8 1869.3 179.75 1870.35 179.65 1871.3 179.6 1872.3 179.6 1873.1 179.5 1873.9 179.45 1879.2 179.3 1884.55 179.05 1885.8 179 1887.1 179 1888.3 178.95 1889.55 178.95 1890.7 178.95 1891.85 178.95 1892.9 178.95 1894 179 1894.5 179 1895 179.1
L 1895 182.85 1900.8 182.85 1900.95 164.05 1900.65 156.85
Q 1899.7 155.9 1898.65 155.1 1898 154.7 1897.35 154.45 1896.5 154.2 1895.75 154 1894.9 153.85 1894.05 153.7 1893.15 153.55 1892.3 153.4 1891.35 153.25 1890.5 153.2 1889.5 153.05 1888.55 152.95 1887.5 152.85 1886.5 152.8 1885.4 152.75 1884.35 152.75
L 1794.4 152.3 Z" stroke="none" fill="#110F1A"></path>

<path d="M 1883.05 78.65
Q 1882.8 77 1882.05 75.4 1878.45 73.6 1874.1 73.25
L 1816.3 73.4
Q 1813.65 73.4 1812.8 73.45 1812 73.55 1809.9 73.8
L 1807 76.7
Q 1805.1 84.5 1804.25 97.35 1803.65 107.65 1801.8 113.95 1800.8 117.3 1800.5 119.1 1800.25 120.75 1799.55 127.75
L 1877.1 127.65
Q 1881.8 127.6 1885.2 127.35
L 1887.05 125.4
Q 1887.35 121.55 1886.45 115.95 1883.85 102.5 1883.4 88.3
L 1883.25 82.1
Q 1883.15 79.5 1883.05 78.65 Z" stroke="none" fill="#E21F2D"></path>

<path d="M 1874.05 55.6
Q 1867.5 50.9 1867.5 50.55 1821.45 39.05 1776.1 52.9 1774.35 59.3 1777.1 65.4
L 1809.8 66.2 1810.8 69.1 1881.95 67.8
Q 1881.85 66.95 1881.7 66.2 1880.8 61.3 1874.05 55.6 Z" stroke="none" fill="#DF202E"></path>
</g>
</g>
</g>
</g>

<g transform="matrix( 0.3621063232421875, 0, 0, 0.3621063232421875, -594.2,0.1)" id="MergedLayer_1">
<g>
<g>
<g>
<path d="M 1751.9 433.2
Q 1750.65 433.4 1749.05 434.15 1747.25 435.05 1746.35 435.45 1744.25 436.4 1743.2 436.9 1741.4 437.8 1740.25 438.65 1736.45 441.35 1734.15 446.5 1732.65 449.75 1731.1 456.1 1730 460.5 1729.75 462.7 1729.5 464.85 1729.55 468.25 1729.6 472.65 1729.55 473.8 1729.5 476.85 1729.5 477 1729.55 478.8 1730.05 480.05 1730.95 482.2 1733.6 484.1 1735.05 485.2 1735.3 485.85 1735.55 486.45 1735.5 488.35 1735.4 489.9 1736.05 490.55
L 1747 490.6
Q 1747.95 490.6 1748.3 490.25 1748.6 489.95 1748.7 489.1 1749.6 480.65 1749.35 476.35
L 1738.75 475.9
Q 1736.85 473.8 1736.45 472.3 1736.1 470.9 1736.7 468.55 1738.7 458.85 1740.55 454.3 1741.65 451.45 1743.05 449.55 1745.5 446.15 1750.1 443.65 1753.05 442 1758.8 439.9
L 1758.8 433.2
Q 1757.9 433.25 1755.35 433.1 1753.15 433 1751.9 433.2
M 1820.6 494.85
L 1815.45 478.2
Q 1814.55 475.1 1814.2 473.55 1813.65 470.9 1813.75 468.75
L 1806.8 468.65
Q 1806.05 474.8 1807.75 482.4 1808.8 487 1811.8 495.85 1797.45 495.25 1782.85 496.85 1776.85 497.55 1768.8 498.85 1766.6 499.15 1765.9 500.2 1765.5 500.85 1765.5 502.4
L 1765.5 508.8
Q 1793.4 509.5 1821.25 508.05 1821.55 505.45 1821.55 502.75 1821.45 498.25 1820.6 494.85
M 1936.7 494.7
Q 1936.8291015625 494.6392578125 1936.95 494.55
L 1936.95 483.75
Q 1936.3 483.35 1934.7 483.35
L 1927.25 483.3
Q 1927.05 484.65 1927.1 485.95
L 1923.55 486.4
Q 1923.5 490.35 1923.65 495.3 1925.05 495.15 1930.3 495.45 1934.4 495.7 1936.7 494.7
M 1863.45 470.8
Q 1863.3 471 1863.2 471.5
L 1858.6 497.3
Q 1858 501.05 1857.85 502.95 1857.6 506.1 1858 508.6 1872.85 508.45 1908.75 507.3
L 1908.7 488.95
Q 1903.3 488.2 1897.9 489.4 1895.7 489.9 1892.65 490.95
L 1882.2 494.35
Q 1876.95 496.05 1874.5 496.7 1870.15 497.9 1866.55 498.3 1866.65 497.1 1867.35 493.15
L 1869.65 481.45
Q 1870.35 477.95 1870.55 476.05 1870.85 473.05 1870.5 470.65
L 1864.55 470.55
Q 1863.85 470.45 1863.45 470.8
M 1927.4 435.45
Q 1924.6 432.75 1922.5 432.2 1921.35 431.9 1919.5 431.9 1916.8 431.9 1916.45 431.85 1916.7 432.85 1916.4 435.4 1916.15 437.7 1916.75 438.8 1917.2 439.6 1918.6 440.7 1925.05 445.95 1930.85 454.25 1933.678515625 458.2431640625 1936.95 463.9
L 1936.95 446.5
Q 1932.276171875 440.106640625 1927.4 435.45
M 1817.35 355.7
Q 1809.3 359.1 1805.25 361.2 1798.75 364.6 1794.25 368.5 1790.3 371.8 1788.7 375.25 1786.6 379.65 1787.5 384.35
L 1794.2 384.35
Q 1795.7 381.4 1797.65 379.05 1800.25 375.9 1802.8 375.15 1803.1 375.05 1804.2 374.85 1805.1 374.7 1805.6 374.5 1806.55 374.2 1808.45 372.7 1812.3 369.7 1816.75 367.65 1819.25 366.55 1821 366.25 1822.55 365.95 1825.05 365.95
L 1836.7 365.75
Q 1848.4 365.55 1854.6 366.25 1864.45 367.4 1871.45 371.15 1872.6 371.8 1874.8 373.1 1876.8 374.25 1878.25 374.8 1882.05 376.3 1885.6 375.55 1886.7 372.5 1886 368.95 1885.35 365.7 1883.35 362.8 1880.45 358.6 1873.35 353.95 1868.9 351.15 1866.05 350.5 1864.25 350.05 1859.85 349.95
L 1842.7 349.95
Q 1836.7 349.95 1832.75 350.55 1829.2 351.15 1824.9 352.7 1822.5 353.55 1817.35 355.7
M 1852 356.75
Q 1856.25 356.75 1858.6 357.15 1862.2 357.8 1864.5 359.65 1857.7 358.85 1849 358.7 1844.25 358.6 1833.45 358.7 1837.4 357.4 1842.6 357 1845.75 356.75 1852 356.75
M 1814.2 289.75
Q 1813.9 290.5 1813.45 291.3 1813 292.2 1811.95 295.35
L 1809.55 303.4
Q 1808.95 305.75 1808.85 306.3 1808.55 308 1808.6 310.75 1808.7 314.35 1808.65 315.25
L 1815.65 315.35 1815.65 314.15
Q 1817.25 314.35 1818.7 313.35 1820.1 312.3 1820.45 310.75 1820.55 309.55 1820.7 309 1821.3 307.8 1821.5 307.1 1821.7 306.5 1821.7 305.15
L 1821.7 289.2 1815 289.15
Q 1814.7 289.15 1814.55 289.25 1814.4 289.3 1814.2 289.75
M 1789.05 228.05
Q 1789.15 228.95 1789.05 231.3 1788.95 233.35 1789.2 234.5 1789.55 236.2 1791.5 239.05 1799.95 251.6 1805.05 257.65 1806.05 258.8 1812 265.45 1816.3 270.2 1818.65 273.5 1820.1 275.55 1821.2 276.1 1822.4 276.7 1824.65 276.45 1827.3 276.15 1828.25 276.4 1828.65 272.4 1828.1 270.3 1827.85 269.25 1827.15 268.05 1826.55 266.95 1825.1 265.45
L 1815.6 254.8
Q 1804.8 242.45 1796.25 228.2
L 1789.05 228.05
M 1883.8 294.3
L 1883.8 286.1
Q 1882.95 286.15 1879.35 286 1876.65 285.9 1875 286.35 1870.9 287.4 1867.45 292.4 1866.65 293.55 1866.35 294.45 1865.7 296 1865.8 299.1
L 1865.85 306.9 1871.75 307
Q 1873.15 307 1873.8 306.8 1874.35 306.6 1875.25 305.9
L 1878.55 303.35
Q 1880.3 301.9 1880.5 301.65 1881.25 300.85 1882.8 298.05 1883.65 296.25 1883.7 295.7 1883.8 295.25 1883.8 294.3
M 1879.4 244.9
Q 1881.8 241.6 1882.55 240 1883.75 237.25 1884.55 236 1885.3 234.95 1885.65 234.4 1886.35 233.45 1886.6 232.75 1887 231.6 1886.85 229.45 1886.65 227.05 1886.8 226.1 1885.95 226.25 1884.8 226.15 1883.45 226 1882.75 225.95 1880.15 225.75 1878.85 226.9 1878.25 227.4 1877.8 228.3 1877.7 228.55 1877.1 230 1875.8 233.25 1872.3 238
L 1857.85 257.45
Q 1855.6 260.55 1855.1 262.25 1854.75 263.5 1854.75 266.65
L 1854.8 272.15
Q 1854.8 272.95 1855.1 273.3 1855.45 273.65 1856.35 273.65
L 1862.25 273.7
Q 1861.45 270.35 1863.5 266.35 1864.6 264.35 1867.95 260.25 1870.95 256.5 1875.6 250.1
L 1879.4 244.9 Z" stroke="none" fill="#000000"></path>

<path d="M 1858.6 357.15
Q 1856.25 356.75 1852 356.75 1845.75 356.75 1842.6 357 1837.4 357.4 1833.45 358.7 1844.25 358.6 1849 358.7 1857.7 358.85 1864.5 359.65 1862.2 357.8 1858.6 357.15 Z" stroke="none" fill="#FFFFFF"></path>
</g>
</g>
</g>
</g>
</g>
</svg>
