
<svg viewBox="0 0 112 184" height="184px" width="112px" y="0px" x="0px" preserveAspectRatio="none" xmlns:xlink="http://www.w3.org/1999/xlink" version="1.1" xmlns="http://www.w3.org/2000/svg">
<defs></defs>

<g id="fun_scrollers">
<g transform="matrix( 0.3621063232421875, 0, 0, 0.3621063232421875, -594.2,0.1)" id="svg"></g>

<g transform="matrix( 0.3621063232421875, 0, 0, 0.3621063232421875, -594.2,0.1)" id="Layer_2"></g>

<g transform="matrix( 0.3621063232421875, 0, 0, 0.3621063232421875, -594.2,0.1)" id="Layer_3"></g>

<g transform="matrix( 0.3621063232421875, 0, 0, 0.3621063232421875, -594.2,0.1)" id="Layer_2">
<g>
<g>
<g>
<path d="M 1813.9 100.15
L 1813.9 104.95 1812 104.95
Q 1802.9 109.1 1797.6 112.35 1790.05 117 1785.3 122.55 1781.3 128.25 1779.5 135.65 1778 141.75 1777.9 149.9
L 1777.65 198.9
Q 1777.7 210.25 1777.5 232.7
L 1777.4 251
Q 1777.3 267.55 1777.25 270.4 1777.1 281.4 1776.7 289.85 1776.15 299.65 1776.35 312.45 1776.6 336.35 1776.2 354.7 1775.6 384.45 1775.6 402.8
L 1775.6 422.2
Q 1775.6 431 1776.75 436 1779.3 442.85 1785.35 447.95 1789 449.75 1793.3 450.7 1796.7 451.35 1801.55 451.7
L 1867.8 452.75
Q 1884.55 453.05 1891.2 452.9 1904.35 452.6 1914.5 450.85 1920.7 449.25 1925.15 446.05 1929 443.35 1933.55 437.9 1935.793359375 434.054296875 1936.95 430.7
L 1936.95 207.5 1936.05 226.8
Q 1935.85 231.45 1935.25 235.3 1934.8 238.2 1934.5 241.05
L 1933 269.2
Q 1931.65 295.15 1931.15 326.35 1930.85 349.15 1930.85 383.55
L 1930.85 413.35
Q 1930.9 421.9 1930.45 426.15 1928.75 430.05 1927.9 431.2 1927.15 432.4 1924.1 435.45
L 1919.3 440.3 1917.55 443.8 1917.4 444.1
Q 1917.059375 444.16328125 1916.7 444.2 1911.8931640625 445.017578125 1903.2 445.25
L 1837.7 445.55
Q 1823.4 445.85 1816.2 445.8 1803.7 445.65 1794.85 443.8 1791.8 442.9 1790.2 441.7 1788.55 440.6 1786.55 438 1784.2 433.6 1783.2 430.25 1782.15 426.5 1782.1 421.9
L 1782.3 383.55
Q 1782.4 375.4 1782.4 371.35
L 1783.15 298.25
Q 1783.65 241.25 1784.15 219.4 1784.65 201.9 1784.65 189.3
L 1784.85 152.7
Q 1784.8 146.6 1785 144.1 1785.3 139.5 1786.6 135.75
L 1788.1 133
Q 1796.3 123.35 1799.65 120.75 1802.93515625 118.16171875 1814.45 112.4 1814.4978515625 112.376171875 1814.55 112.35
L 1817.85 110.75
Q 1816.6 110.4 1814.95 109.75
L 1814.65 107.6
Q 1814.65 107.5 1814.9 100.15
L 1814.35 100.15 1813.9 100.15
M 1914.85 98.25
L 1914.9 95.85 1914.55 95.85 1913.9 95.85
Q 1914.75 100.5 1914.8 102.65 1914.95 106.2 1913.95 109.35 1909.6 110.55 1907.65 110.8
L 1907.65 111.25
Q 1909.3916015625 111.546484375 1911.15 112.2 1911.7787109375 112.428125 1912.4 112.7
L 1914.95 114.15
Q 1923.65 119.15 1928.8 125.9 1933.85 133.3 1936.2 142.25 1936.615234375 143.8119140625 1936.95 145.45
L 1936.95 125.25
Q 1934.3337890625 120.59453125 1931.85 117.5 1927.9 112.5 1922.95 109.85 1918.35 107.55 1915.9 105.45 1915.6958984375 104.9103515625 1915.55 104.45 1915.15625 103.425 1915.05 103 1914.95 102.35 1914.85 100.35
L 1914.85 98.25 Z" stroke="none" fill="#706C84"></path>

<path d="M 1847.2 111.05
Q 1837.3 111 1832.35 110.9
L 1822.05 110.65
Q 1818.6 111 1814.95 112.25 1814.7150390625 112.3087890625 1814.45 112.4 1802.93515625 118.16171875 1799.65 120.75 1796.3 123.35 1788.1 133
L 1786.6 135.75
Q 1785.3 139.5 1785 144.1 1784.8 146.6 1784.85 152.7
L 1784.65 189.3
Q 1784.65 201.9 1784.15 219.4 1783.65 241.25 1783.15 298.25
L 1782.4 371.35
Q 1782.4 375.4 1782.3 383.55
L 1782.1 421.9
Q 1782.15 426.5 1783.2 430.25 1784.2 433.6 1786.55 438 1788.55 440.6 1790.2 441.7 1791.8 442.9 1794.85 443.8 1803.7 445.65 1816.2 445.8 1823.4 445.85 1837.7 445.55
L 1903.2 445.25
Q 1911.8931640625 445.017578125 1916.7 444.2 1917.1359375 444.033203125 1917.55 443.8
L 1919.3 440.3 1924.1 435.45
Q 1927.15 432.4 1927.9 431.2 1928.75 430.05 1930.45 426.15 1930.9 421.9 1930.85 413.35
L 1930.85 383.55
Q 1930.85 349.15 1931.15 326.35 1931.65 295.15 1933 269.2
L 1934.5 241.05
Q 1934.8 238.2 1935.25 235.3 1935.85 231.45 1936.05 226.8
L 1936.95 207.5 1936.95 145.45
Q 1936.615234375 143.8119140625 1936.2 142.25 1933.85 133.3 1928.8 125.9 1923.65 119.15 1914.95 114.15
L 1912.4 112.7
Q 1911.7787109375 112.428125 1911.15 112.2
L 1910.5 112.2
Q 1909.85 111.9 1909.2 111.65 1906.75 111.3 1905.9 111.25 1905.05 111.2 1902.4 111.25
L 1865.5 111.1
Q 1856.35 111 1847.2 111.05
M 1912.35 234.9
L 1914.55 235.4
Q 1916.65 239.35 1917.5 245.95
L 1918.25 249
Q 1918.6 251.3 1918.7 252.05 1918.75 252.85 1918.8 255.1
L 1917.55 257.45
Q 1909.35 259 1898.3 257.55
L 1897.3 255.6
Q 1893.25 255.6 1889.3 255.8
L 1881.35 256.15
Q 1878.4 256.3 1863.75 256.7 1853.4 257.05 1848.25 257.3 1841.6 257.7 1833.3 257.85 1829.45 257.95 1827.55 258.15 1819.45 258.65 1817.5 258.35 1815.55 258.1 1811.75 256 1808.3 248.45 1810.55 236.85 1810.75 236.45 1827.95 236.65 1850.05 236.85 1851.35 236.85
L 1859.95 236.8
Q 1875.7 236.7 1887.2 235.75 1894.1 235.2 1903.25 235.1
L 1912.35 234.9
M 1811.5 394.55
Q 1813.35 394.4 1819.8 394.8
L 1824.85 394.8
Q 1829.35 394.85 1838.4 395.2 1845.15 395.45 1851.75 395.4 1859.55 395.5 1867.55 395.8 1882.4 396.35 1891.95 396.05
L 1907.95 395.55
Q 1915.2 395.2 1916.95 395.3 1918.7 395.5 1922 397 1923.1 400.7 1923.05 404.7 1922.95 407.8 1922.05 412.4
L 1921.1 413.35
Q 1915 413.75 1910.2 413.8
L 1906.7 413.9
Q 1896.2 414.2 1875.1 414.55 1865.65 414.65 1853.85 415.05 1843.6 415.4 1833.3 415.45
L 1825.45 415.65
Q 1812.9 416.1 1810.2 415.9 1807.5 415.7 1803.75 413.85 1802.1 410.9 1801.75 409.85 1801.45 408.75 1801.1 405.2 1801.55 401.7 1801.9 400.6 1802.25 399.5 1803.7 396.55 1807.05 394.75 1811.5 394.55
M 1871.85 192.1
Q 1872.7 190.15 1874.95 187.45
L 1876.7 185.25
Q 1881.1 181.2 1886.75 179.8 1890.5 178.9 1898.25 178.65
L 1901.6 178.55
Q 1906.75 178.5 1910.5 179.65 1912.65 181.4 1914.05 183.5 1915.3 185.3 1916.3 188.25 1917.05 192.8 1916.9 199.15
L 1916.9 202
Q 1916.8 206.1 1916.35 207.95 1915.7 210.3 1913.5 213.3
L 1912.55 217.15
Q 1908.05 219.3 1901.3 220.1 1898.1 220.4 1889.55 220.6
L 1886.9 220.7
Q 1883.5 220.7 1881.55 220.25 1879.1 219.7 1876.5 218.05 1873.45 214.75 1872.75 213.85 1872.15 212.85 1871.2 210.55 1870.85 207.55 1870.75 206.45 1870.7 205.4 1870.7 202
L 1870.65 197.45
Q 1870.95 194.1 1871.85 192.1
M 1801.05 141.2
Q 1801.4 138.45 1801.95 135.7 1802.2 134.3 1802.55 133
L 1802.55 132.95 1803.5 131.95 1804.55 131.95
Q 1805.001953125 131.7556640625 1805.5 131.6 1806.3 131.35 1807.15 131.15 1807.95 131 1808.8 130.85 1808.95 130.85 1809.15 130.85 1809.35 130.85 1809.6 130.85 1809.85 130.85 1810.2 130.85 1810.55 130.85 1810.95 130.8 1811.4 130.8 1811.9 130.8 1812.4 130.8 1812.95 130.8 1813.55 130.8 1814.2 130.8 1814.85 130.8 1815.6 130.8
L 1905.55 131.25
Q 1906.6 131.25 1907.7 131.3 1908.7 131.35 1909.75 131.45 1910.7 131.55 1911.7 131.7 1912.55 131.75 1913.5 131.9 1914.35 132.05 1915.25 132.2 1916.1 132.35 1916.95 132.5 1917.7 132.7 1918.55 132.95 1919.2 133.2 1919.85 133.6 1920.9 134.4 1921.85 135.35
L 1922.15 142.55 1922 161.35 1922.15 161.35 1922.2 165.1 1922 167.1 1920.1 167.1 1920.1 171.9
Q 1918.4 172.3 1917.7 172.4 1917.05 172.45 1914.65 172.45 1906.2 172.85 1896.6 175
L 1883 178.1
Q 1864.6 182.25 1860.15 182.4 1855.6 182.65 1847 179.55 1838.8 176.8 1831.2 176.4 1826 176 1820.05 173.9 1816.1 172.55 1809.45 169.55
L 1804.55 168.25 1800.8 166.65
Q 1800.2 164.45 1800.15 163.7 1800.15 163 1800.75 160.85 1804.7 160.1 1809 160.25
L 1856.4 160.35
Q 1870.2 160.25 1883.95 160.35
L 1886.7 160.4
Q 1893.45 160.4 1901.1 160.85
L 1909.8 161.45
Q 1911.85 161.6 1912.6 161.6 1913.4125 161.6 1915.95 161.35
L 1916.2 161.35 1916.2 157.6
Q 1915.7 157.5 1915.2 157.5 1914.1 157.45 1913.05 157.45 1911.9 157.45 1910.75 157.45 1909.5 157.45 1908.3 157.5 1907 157.5 1905.75 157.55 1900.4 157.8 1895.1 157.95 1894.3 158 1893.5 158.1 1892.5 158.1 1891.55 158.15 1890.5 158.25 1889.45 158.3 1888.3 158.3 1887.15 158.3 1885.9 158.35 1884.65 158.4 1883.25 158.4 1881.9 158.45 1880.45 158.5 1879 158.6 1877.4 158.6 1875.8 158.6 1874.7 158.6 1873.6 158.65 1872.95 158.65 1872.3 158.65 1871.55 158.6 1870.8 158.6 1869.15 158.55 1867.45 158.6 1864.45 158.3 1861.65 158.3 1859.05 158.3 1856.45 158.3 1853.8 158.25 1851.15 158.3 1845.7 158.4 1840.3 158.6
L 1805.6 158.75
Q 1804.75 158.5 1804.05 158.15 1803.7 158.1 1803.5 157.95 1803.25 157.8 1803 157.65 1802.85 157.55 1802.7 157.45 1802.55 157.35 1802.45 157.25 1802.4 157.2 1802.35 157.15 1802.25 157 1802.2 156.85 1802.05 156.5 1801.95 156.25 1801.75 155.85 1801.65 155.45 1801.35 154.05 1801.15 152.6 1800.95 151.1 1800.9 149.65 1800.8 148.2 1800.8 146.85 1800.75 145.4 1800.85 143.95 1800.9 142.55 1801.05 141.2 Z" stroke="none" fill="#F5F7F9"></path>

<path d="M 1801.95 135.7
Q 1801.4 138.45 1801.05 141.2 1800.9 142.55 1800.85 143.95 1800.75 145.4 1800.8 146.85 1800.8 148.2 1800.9 149.65 1800.95 151.1 1801.15 152.6 1801.35 154.05 1801.65 155.45 1801.75 155.85 1801.95 156.25 1802.05 156.5 1802.2 156.85 1802.25 157 1802.35 157.15 1802.4 157.2 1802.45 157.25 1802.55 157.35 1802.7 157.45 1802.85 157.55 1803 157.65 1803.25 157.8 1803.5 157.95 1803.7 158.1 1804.05 158.15 1804.75 158.5 1805.6 158.75
L 1840.3 158.6
Q 1845.7 158.4 1851.15 158.3 1853.8 158.25 1856.45 158.3 1859.05 158.3 1861.65 158.3 1864.45 158.3 1867.45 158.6 1869.15 158.55 1870.8 158.6 1871.55 158.6 1872.3 158.65 1872.95 158.65 1873.6 158.65 1874.7 158.6 1875.8 158.6 1877.4 158.6 1879 158.6 1880.45 158.5 1881.9 158.45 1883.25 158.4 1884.65 158.4 1885.9 158.35 1887.15 158.3 1888.3 158.3 1889.45 158.3 1890.5 158.25 1891.55 158.15 1892.5 158.1 1893.5 158.1 1894.3 158 1895.1 157.95 1900.4 157.8 1905.75 157.55 1907 157.5 1908.3 157.5 1909.5 157.45 1910.75 157.45 1911.9 157.45 1913.05 157.45 1914.1 157.45 1915.2 157.5 1915.7 157.5 1916.2 157.6
L 1916.2 161.35 1922 161.35 1922.15 142.55 1921.85 135.35
Q 1920.9 134.4 1919.85 133.6 1919.2 133.2 1918.55 132.95 1917.7 132.7 1916.95 132.5 1916.1 132.35 1915.25 132.2 1914.35 132.05 1913.5 131.9 1912.55 131.75 1911.7 131.7 1910.7 131.55 1909.75 131.45 1908.7 131.35 1907.7 131.3 1906.6 131.25 1905.55 131.25
L 1815.6 130.8
Q 1814.85 130.8 1814.2 130.8 1813.55 130.8 1812.95 130.8 1812.4 130.8 1811.9 130.8 1811.4 130.8 1810.95 130.8 1810.55 130.85 1810.2 130.85 1809.85 130.85 1809.6 130.85 1809.35 130.85 1809.15 130.85 1808.95 130.85 1808.8 130.85 1807.95 131 1807.15 131.15 1806.3 131.35 1805.5 131.6 1805.001953125 131.7556640625 1804.55 131.95
L 1803.5 131.95 1802.55 132.95 1802.55 133
Q 1802.2 134.3 1801.95 135.7 Z" stroke="none" fill="#110F1A"></path>

<path d="M 1804.55 168.25
L 1809.45 169.55
Q 1816.1 172.55 1820.05 173.9 1826 176 1831.2 176.4 1838.8 176.8 1847 179.55 1855.6 182.65 1860.15 182.4 1864.6 182.25 1883 178.1
L 1896.6 175
Q 1906.2 172.85 1914.65 172.45 1917.05 172.45 1917.7 172.4 1918.4 172.3 1920.1 171.9
L 1920.1 167.1 1922 167.1 1922.2 165.1 1922.15 161.35 1922 161.35 1916.2 161.35 1915.95 161.35
Q 1913.4125 161.6 1912.6 161.6 1911.85 161.6 1909.8 161.45
L 1901.1 160.85
Q 1893.45 160.4 1886.7 160.4
L 1883.95 160.35
Q 1870.2 160.25 1856.4 160.35
L 1809 160.25
Q 1804.7 160.1 1800.75 160.85 1800.15 163 1800.15 163.7 1800.2 164.45 1800.8 166.65
L 1804.55 168.25 Z" stroke="none" fill="#992A3F"></path>

<path d="M 1874.95 187.45
Q 1872.7 190.15 1871.85 192.1 1870.95 194.1 1870.65 197.45
L 1870.7 202
Q 1870.7 205.4 1870.75 206.45 1870.85 207.55 1871.2 210.55 1872.15 212.85 1872.75 213.85 1873.45 214.75 1876.5 218.05 1879.1 219.7 1881.55 220.25 1883.5 220.7 1886.9 220.7
L 1889.55 220.6
Q 1898.1 220.4 1901.3 220.1 1908.05 219.3 1912.55 217.15
L 1913.5 213.3
Q 1915.7 210.3 1916.35 207.95 1916.8 206.1 1916.9 202
L 1916.9 199.15
Q 1917.05 192.8 1916.3 188.25 1915.3 185.3 1914.05 183.5 1912.65 181.4 1910.5 179.65 1906.75 178.5 1901.6 178.55
L 1898.25 178.65
Q 1890.5 178.9 1886.75 179.8 1881.1 181.2 1876.7 185.25
L 1874.95 187.45
M 1894.85 185.25
L 1898.75 185.3
Q 1902.2 185.3 1905.7 185.4 1906.75 186.4 1907.15 187.05 1907.6 187.6 1909.15 190.2 1911 193.6 1911.55 196.75 1911.9 199.35 1911.55 203.7
L 1910.6 204.65
Q 1909.55 207.2 1909.1 208.05 1908.6 208.85 1906.8 211.35 1901.8 213.9 1895.95 214.55 1890.95 215.15 1884.65 214.35 1881.5 213.25 1880.65 212.65 1879.8 212.1 1877.9 209.6 1875.95 205.1 1875.95 200 1878.15 195.2 1879.2 193.8 1880.3 192.4 1884.4 188.9 1887 187.05 1889.3 186.25 1891.6 185.45 1894.85 185.25 Z" stroke="none" fill="#5D5A76"></path>

<path d="M 1898.75 185.3
L 1894.85 185.25
Q 1891.6 185.45 1889.3 186.25 1887 187.05 1884.4 188.9 1880.3 192.4 1879.2 193.8 1878.15 195.2 1875.95 200 1875.95 205.1 1877.9 209.6 1879.8 212.1 1880.65 212.65 1881.5 213.25 1884.65 214.35 1890.95 215.15 1895.95 214.55 1901.8 213.9 1906.8 211.35 1908.6 208.85 1909.1 208.05 1909.55 207.2 1910.6 204.65
L 1911.55 203.7
Q 1911.9 199.35 1911.55 196.75 1911 193.6 1909.15 190.2 1907.6 187.6 1907.15 187.05 1906.75 186.4 1905.7 185.4 1902.2 185.3 1898.75 185.3 Z" stroke="none" fill="#F1F3F7"></path>

<path d="M 1819.8 394.8
Q 1813.35 394.4 1811.5 394.55 1807.05 394.75 1803.7 396.55 1802.25 399.5 1801.9 400.6 1801.55 401.7 1801.1 405.2 1801.45 408.75 1801.75 409.85 1802.1 410.9 1803.75 413.85 1807.5 415.7 1810.2 415.9 1812.9 416.1 1825.45 415.65
L 1833.3 415.45
Q 1843.6 415.4 1853.85 415.05 1865.65 414.65 1875.1 414.55 1896.2 414.2 1906.7 413.9
L 1910.2 413.8
Q 1915 413.75 1921.1 413.35
L 1922.05 412.4
Q 1922.95 407.8 1923.05 404.7 1923.1 400.7 1922 397 1918.7 395.5 1916.95 395.3 1915.2 395.2 1907.95 395.55
L 1891.95 396.05
Q 1882.4 396.35 1867.55 395.8 1859.55 395.5 1851.75 395.4 1845.15 395.45 1838.4 395.2 1829.35 394.85 1824.85 394.8
L 1819.8 394.8
M 1914.55 235.4
L 1912.35 234.9 1903.25 235.1
Q 1894.1 235.2 1887.2 235.75 1875.7 236.7 1859.95 236.8
L 1851.35 236.85
Q 1850.05 236.85 1827.95 236.65 1810.75 236.45 1810.55 236.85 1808.3 248.45 1811.75 256 1815.55 258.1 1817.5 258.35 1819.45 258.65 1827.55 258.15 1829.45 257.95 1833.3 257.85 1841.6 257.7 1848.25 257.3 1853.4 257.05 1863.75 256.7 1878.4 256.3 1881.35 256.15
L 1889.3 255.8
Q 1893.25 255.6 1897.3 255.6
L 1898.3 257.55
Q 1909.35 259 1917.55 257.45
L 1918.8 255.1
Q 1918.75 252.85 1918.7 252.05 1918.6 251.3 1918.25 249
L 1917.5 245.95
Q 1916.65 239.35 1914.55 235.4 Z" stroke="none" fill="#9DAEEA"></path>

<path d="M 1915.05 103
Q 1915.15625 103.425 1915.55 104.45
L 1915.2 102.35
Q 1915.0994140625 100.2365234375 1914.85 98.25
L 1914.85 100.35
Q 1914.95 102.35 1915.05 103
M 1910.85 48.55
Q 1911 42.3 1909.9 38.2 1908.65 35.15 1906.8 32.95 1905.1 30.95 1902.2 28.85
L 1899.1 26.95
Q 1892.4 22.8 1885.8 20.8 1879.35 18.9 1871.4 18.7
L 1867.65 18.7
Q 1842.5 18.25 1819.7 20.6
L 1816.25 21
Q 1808.65 21.8 1804.25 22.6 1797.55 23.7 1792.45 25.55 1791.6 27.2 1791.5 28.35 1791.35 29.45 1791.4 34.4
L 1791.4 37.1
Q 1791.35 39.05 1791.3 43 1791.4 46.4 1792.55 48.65 1795.45 50.05 1796.25 50.35 1797.1 50.6 1799.2 50.9
L 1822.35 51.4
Q 1821.15 54.95 1820.6 58.95 1820.15 61.9 1819.85 66.65 1819.35 75.1 1819.05 78.1 1818.3 84.45 1816.65 89.25 1814.8748046875 94.3478515625 1814.35 100.15
L 1814.9 100.15
Q 1814.65 107.5 1814.65 107.6
L 1814.95 109.75
Q 1816.6 110.4 1817.85 110.75
L 1814.55 112.35
Q 1814.4978515625 112.376171875 1814.45 112.4 1814.7150390625 112.3087890625 1814.95 112.25 1818.6 111 1822.05 110.65
L 1832.35 110.9
Q 1837.3 111 1847.2 111.05 1856.35 111 1865.5 111.1
L 1902.4 111.25
Q 1905.05 111.2 1905.9 111.25 1906.75 111.3 1909.2 111.65 1909.85 111.9 1910.5 112.2
L 1911.15 112.2
Q 1909.3916015625 111.546484375 1907.65 111.25
L 1907.65 110.8
Q 1909.6 110.55 1913.95 109.35 1914.95 106.2 1914.8 102.65 1914.75 100.5 1913.9 95.85
L 1914.55 95.85
Q 1914.30078125 94.1787109375 1913.95 92.6 1910.6 77.35 1910.7 57.2
L 1910.85 48.55
M 1888.7 29.05
Q 1888.7 29.4 1895.25 34.1 1902 39.8 1902.9 44.7 1903.05 45.45 1903.15 46.3
L 1832 47.6 1831 44.7 1798.3 43.9
Q 1795.55 37.8 1797.3 31.4 1842.65 17.55 1888.7 29.05
M 1895.3 51.8
Q 1899.65 52.15 1903.25 53.95 1904 55.55 1904.25 57.2 1904.35 58.05 1904.45 60.65
L 1904.6 66.85
Q 1905.05 81.05 1907.65 94.5 1908.55 100.1 1908.25 103.95
L 1906.4 105.9
Q 1903 106.15 1898.3 106.2
L 1820.75 106.3
Q 1821.45 99.3 1821.7 97.65 1822 95.85 1823 92.5 1824.85 86.2 1825.45 75.9 1826.3 63.05 1828.2 55.25
L 1831.1 52.35
Q 1833.2 52.1 1834 52 1834.85 51.95 1837.5 51.95
L 1895.3 51.8 Z" stroke="none" fill="#7E1A34"></path>

<path d="M 1903.25 53.95
Q 1899.65 52.15 1895.3 51.8
L 1837.5 51.95
Q 1834.85 51.95 1834 52 1833.2 52.1 1831.1 52.35
L 1828.2 55.25
Q 1826.3 63.05 1825.45 75.9 1824.85 86.2 1823 92.5 1822 95.85 1821.7 97.65 1821.45 99.3 1820.75 106.3
L 1898.3 106.2
Q 1903 106.15 1906.4 105.9
L 1908.25 103.95
Q 1908.55 100.1 1907.65 94.5 1905.05 81.05 1904.6 66.85
L 1904.45 60.65
Q 1904.35 58.05 1904.25 57.2 1904 55.55 1903.25 53.95 Z" stroke="none" fill="#E21F2D"></path>

<path d="M 1895.25 34.1
Q 1888.7 29.4 1888.7 29.05 1842.65 17.55 1797.3 31.4 1795.55 37.8 1798.3 43.9
L 1831 44.7 1832 47.6 1903.15 46.3
Q 1903.05 45.45 1902.9 44.7 1902 39.8 1895.25 34.1 Z" stroke="none" fill="#DF202E"></path>
</g>
</g>
</g>
</g>

<g transform="matrix( 0.3621063232421875, 0, 0, 0.3621063232421875, -594.2,0.1)" id="Layer_3">
<g>
<g>
<g>
<path d="M 1936.95 439.95
Q 1936.7712890625 439.537890625 1936.6 439.1 1935.6 436.8 1935.55 435.45
L 1928.5 435.35
Q 1928.55 436.35 1928.45 439.55 1928.4 442.15 1928.7 443.7 1929.1 445.3 1930.05 447.45 1931.7 451.2 1932.85 453.45 1932.4 453.35 1932.2 453.9 1932.1 454.15 1932.1 454.75
L 1932.1 460.9
Q 1932.1 461.8 1932.3 462.15 1932.45 462.55 1933.15 463.05 1935.05 464.25 1936.8 464.25
L 1936.8 464.6 1936.95 464.6 1936.95 439.95
M 1786.3 449.1
Q 1786.95 448.35 1787.2 447.9 1787.5 447.35 1787.5 446.1
L 1787.5 439.7 1780.45 439.55
Q 1780.6 440.1 1780.15 440.8 1779.9 441.2 1779.35 441.95 1779 442.65 1778.95 443.75 1778.95 444.4 1779 445.65 1779 446.1 1778.6 448.75 1778.35 450.5 1778.45 454.85
L 1772.8 455.2
Q 1772.7 459.95 1772.9 462.35 1773 464.05 1773.25 465.45 1773.3 465.8 1773.85 467.65 1774.05 468.5 1774.4 468.85 1774.9 469.25 1776.05 469.25
L 1781.1 469.2
Q 1784.1 469.1 1785.25 468.7 1786.4 468.3 1786.7 467.65 1786.9 467.25 1786.9 466.35
L 1786.9 458.45
Q 1786.9 456.5 1786.3 455.65
L 1785.6 455.45
Q 1786.25 453.45 1786.1 451.55 1786 449.7 1786.3 449.1
M 1813.2 444.85
L 1806.2 444.75
Q 1806.05 446.6 1804.4 450.1 1799.8 459.4 1795.7 469.25 1794.8 471.75 1794.7 472.05 1794.25 473.55 1794 475.75 1793.35 480.7 1793.5 486
L 1820.35 486.1
Q 1825.9 486.1 1828.65 485.7 1829.25 485.7 1829.45 485.4 1829.65 485.15 1829.65 484.7 1829.95 479 1829.3 476.25 1829 475.1 1828.5 474.8 1828.05 474.45 1827 474.45
L 1803.7 474.05 1811.1 457.7
Q 1812.4 454.95 1812.85 453.1 1813.6 450.3 1813.2 444.85
M 1885.9 466.85
Q 1885.1 468.9 1884.95 469.6 1884.75 470.4 1884.65 473
L 1884.6 483.05
Q 1884.6 485.5 1885.25 486.55 1887.15 486.6 1889 486.75 1896.15 487 1903.55 486.8 1905.6 486.7 1909.75 486.45
L 1925.05 485.55 1925.05 479.2 1926.75 479.05 1926.75 472.1
Q 1919.65 471.55 1916.1 471.75 1914.65 471.8 1911.55 472.3
L 1903.05 473.55
Q 1897.8 474.35 1895.65 475.25 1893.9 475.9 1893.85 475.9 1892.8 476.2 1892 476.15 1893.6 472.7 1894.6 469.35 1897.15 460.85 1896.8 450.6
L 1889.8 450.15
Q 1889.05 459 1885.9 466.85 Z" stroke="none" fill="#000000"></path>
</g>
</g>
</g>
</g>

<g transform="matrix( 0.3621063232421875, 0, 0, 0.3621063232421875, -594.2,0.1)" id="MergedLayer_3">
<g>
<g>
<g>
<path d="M 1861.35 333.65
Q 1858.4 334.8 1852.8 337.75 1845.2 341.8 1840.05 344.55 1835.15 347.3 1832.4 349.2 1828.35 352.05 1825.7 355.05 1823.4 357.7 1821.3 361.65 1820.3 363.4 1818.9 366.65 1817.45 365.7 1816.5 365.35 1815 364.8 1813 364.7 1811.8 364.65 1809.4 364.8 1809.6 365.6 1809.35 368.15 1809.2 370.3 1809.9 371.35 1810.15 371.8 1811.3 372.6 1813.5 374.3 1815.3 375.15 1815.1 375.6 1814.95 375.95 1813.4 379.95 1812.8 383.3 1812 387.6 1812.1 395.75
L 1812.25 412.3
Q 1812.3 415.35 1812.55 416.8 1812.85 419.25 1813.95 421 1815.5 423.6 1818.95 425.05 1821.5 426.15 1825.55 426.75 1831.1 427.55 1838.1 427.75 1842.3 427.9 1850.7 427.9 1857 427.9 1860.15 427.55 1862.85 427.15 1869.5 425.45
L 1903.95 416.4 1903.95 410.1
Q 1903.9 410.1 1903.8 410.1 1906.05 408.3 1908.35 406.1 1911.05 403.45 1911.45 403.2 1912.95 401.95 1915.3 400.65 1918.05 399.2 1919.35 398.5 1926.2 394.6 1931 388.85 1934.9416015625 384.21953125 1936.95 379
L 1936.95 346.2
Q 1936.39453125 344.86640625 1935.6 343.85 1934.55 342.6 1932.9 341.45 1932 340.85 1929.75 339.55
L 1918.4 333.25
Q 1913.65 330.55 1910.75 329.65 1907 328.5 1900.65 328.4 1895.2 328.35 1889.75 328.65 1882.4 329.2 1875.6 330.25 1866.9 331.5 1861.35 333.65
M 1853.3 357.4
Q 1851.3 360.45 1849.2 362.3 1846.25 364.9 1840.75 367 1834.1 369.65 1829 370 1827.9 370.05 1826.95 370.05 1828.8 366.3 1830.6 363.9 1834.15 359.1 1840.4 354.9 1844.15 352.35 1852.1 348.05 1856.25 345.85 1859.15 344.4 1857.35 351.25 1853.3 357.4
M 1875.6 371.8
Q 1876.3 371.35 1877.95 371.25 1885.3 370.95 1893.6 371.05 1897.05 371.05 1898.65 371.9 1899.35 372.25 1901.45 374.15 1903.5 376.05 1910.75 381.05 1916.1 384.8 1918.85 388 1916.4 389.85 1913.7 391.25 1912.4 391.95 1909.65 393.25 1907.3 394.5 1905.85 395.7 1904.75 396.55 1903.1 398.4 1901.25 400.45 1900.45 401.2 1898.4 403.1 1893.55 405.8 1890.35 407.55 1888.7 408.3 1885.9 409.55 1883.5 409.95
L 1883.5 413.3 1871.45 416.6
Q 1866.5 418 1863.1 418.85 1863.25 418.75 1863.45 418.6 1868.4 415.55 1870.7 413.25 1872.6 411.3 1874.35 408.5 1875.5 406.7 1877.3 403.2 1879.05 399.95 1879.5 398.05 1879.9 396.25 1879.9 393.1 1879.9 387.2 1879.75 385.2 1879.6 382.4 1879.1 380.8 1878.15 377.55 1874.8 373.75 1874.75 373.65 1874.65 373.6 1874.85 372.45 1875.6 371.8
M 1841.75 305.7
L 1832.75 305.35
Q 1830.9 305.25 1830.05 305.5 1828.6 305.9 1827.15 307.45 1825.15 309.45 1822.55 313.95
L 1817.6 322.75
Q 1816.85 324.45 1815.55 326.1 1814.8 327.15 1814.6 327.75 1814.4 328.35 1814.4 329.7
L 1814.5 336.6
Q 1815.35 336.55 1818.1 336.7 1820.3 336.85 1821.6 336.5 1822.45 336.25 1823.75 335.6
L 1826.6 334.2
Q 1828 333.5 1828.5 333.05 1829 332.55 1829.8 330.95 1830.9 328.9 1833.45 326 1836.6 322.3 1837.65 320.45 1839.5 317.55 1839.8 317.15 1840.5 316.4 1840.85 316 1841.4 315.35 1841.6 314.75 1841.8 314.1 1841.8 312.75
L 1841.75 305.7
M 1900.35 277.25
L 1894.3 277.1
Q 1893.35 277.1 1892.95 277.35 1892.75 277.5 1892.45 277.9 1892.35 278.1 1892.1 278.5 1891.7 279 1890.75 279.9 1890.55 280.15 1889.45 281.75 1888.6 283.2 1885.8 285.85 1882.15 289.5 1876.25 296.6 1875.35 297.65 1875.1 298.3 1874.95 298.85 1874.95 299.9
L 1874.95 306.4 1877.3 306.65
Q 1877.5 306.65 1877.65 306.8 1877.75 306.9 1877.7 307.05
L 1882.9 307.15
Q 1883.7 307.15 1884.1 307 1884.65 306.8 1885.2 306.05 1885.75 305.15 1886.05 304.75 1886.5 304.25 1888.45 302.95
L 1894.65 298.05
Q 1895.75 297.2 1896.3 296.6 1896.75 296.05 1897.5 294.75
L 1899.5 290.85
Q 1899.85 289.95 1900.2 288.85 1900.45 287.85 1900.45 285.35
L 1900.35 277.25 Z" stroke="none" fill="#000000"></path>

<path d="M 1877.95 371.25
Q 1876.3 371.35 1875.6 371.8 1874.85 372.45 1874.65 373.6 1874.75 373.65 1874.8 373.75 1878.15 377.55 1879.1 380.8 1879.6 382.4 1879.75 385.2 1879.9 387.2 1879.9 393.1 1879.9 396.25 1879.5 398.05 1879.05 399.95 1877.3 403.2 1875.5 406.7 1874.35 408.5 1872.6 411.3 1870.7 413.25 1868.4 415.55 1863.45 418.6 1863.25 418.75 1863.1 418.85 1866.5 418 1871.45 416.6
L 1883.5 413.3 1883.5 409.95
Q 1885.9 409.55 1888.7 408.3 1890.35 407.55 1893.55 405.8 1898.4 403.1 1900.45 401.2 1901.25 400.45 1903.1 398.4 1904.75 396.55 1905.85 395.7 1907.3 394.5 1909.65 393.25 1912.4 391.95 1913.7 391.25 1916.4 389.85 1918.85 388 1916.1 384.8 1910.75 381.05 1903.5 376.05 1901.45 374.15 1899.35 372.25 1898.65 371.9 1897.05 371.05 1893.6 371.05 1885.3 370.95 1877.95 371.25
M 1849.2 362.3
Q 1851.3 360.45 1853.3 357.4 1857.35 351.25 1859.15 344.4 1856.25 345.85 1852.1 348.05 1844.15 352.35 1840.4 354.9 1834.15 359.1 1830.6 363.9 1828.8 366.3 1826.95 370.05 1827.9 370.05 1829 370 1834.1 369.65 1840.75 367 1846.25 364.9 1849.2 362.3 Z" stroke="none" fill="#FFFFFF"></path>
</g>
</g>
</g>
</g>

<g transform="matrix( 0.3621063232421875, 0, 0, 0.3621063232421875, -594.2,0.1)" id="Layer_5">
<g>
<g>
<g>
<path d="M 1632.55 186.95
Q 1633.65 167 1632.95 156.95 1632.287890625 147.4498046875 1630.2 139.25
L 1630.2 234.15
Q 1630.7544921875 223.8595703125 1631.3 212.3
L 1632.55 186.95 Z" stroke="none" fill="#706C84"></path>
</g>
</g>
</g>
</g>

<g transform="matrix( 0.3621063232421875, 0, 0, 0.3621063232421875, -594.2,0.1)" id="Layer_6">
<g>
<g>
<g>
<path d="M 1630.75 417.75
Q 1630.433984375 417.1494140625 1630.2 416.6
L 1630.2 436.8 1630.35 437.1
Q 1633.2 442.5 1635.3 444.85 1635.7 445.35 1635.6 445.65 1635.45 446 1634.55 446.05 1633.9 446.35 1633.9 447.65
L 1633.9 456.1
Q 1633.9 458.35 1634.75 459.15 1635.5 459.8 1637.15 459.9 1645.4 460.45 1653.55 458.3 1654.7 458 1655.15 457.5 1655.5 457 1655.5 455.85 1655.7 448.9 1655.1 445.1
L 1648.35 444.85
Q 1647.35 444.85 1646.8 444.5 1646.4 444.3 1645.7 443.1 1644.85 441.5 1643.15 439.2 1640.75 435.85 1640.45 435.4 1638.8 433 1636.1 427.9
L 1630.75 417.75 Z" stroke="none" fill="#000000"></path>
</g>
</g>
</g>
</g>

<g transform="matrix( 0.3621063232421875, 0, 0, 0.3621063232421875, -594.2,0.1)" id="MergedLayer_1"></g>

<g transform="matrix( 0.3621063232421875, 0, 0, 0.3621063232421875, -594.2,0.1)" id="Layer_2"></g>
</g>
</svg>
