
<svg viewBox="0 0 122 110" height="110px" width="122px" y="0px" x="0px" preserveAspectRatio="none" xmlns:xlink="http://www.w3.org/1999/xlink" version="1.1" xmlns="http://www.w3.org/2000/svg">
<defs></defs>

<g id="Layer_1"></g>

<g id="Layer_2">
<g transform="matrix( 1, 0, 0, 1, 60.7,65.85)" id="Layer_2">
<g>
<g>
<g>
<path d="M 26.3 -37.4
Q 26.290234375 -37.3447265625 26.25 -37.3 21.66484375 -37.870703125 17.05 -38.05 7.35 -38.4 -2.3 -38.4 -5.95 -38.4 -9.55 -38.45 -9.95 -38.45 -10.3 -38.5 -10.8650390625 -38.557421875 -11.35 -38.55 -11.6751953125 -39.2076171875 -12 -39.9 -12.9 -41.8 -13.3 -43.85 -14.25 -48.8 -15.4 -53.7 -15.75 -54.1 -16.3 -54.3 -17.65 -54.7 -19.05 -54.55 -20.45 -54.35 -21.9 -53.9 -32.3 -50.65 -37.7 -41.5 -39.5197265625 -38.3767578125 -39.85 -35.2 -39.8869140625 -35.183984375 -39.95 -35.2 -42.15 -34.6 -43.55 -32.55 -44.65 -30.9 -46.05 -29.55 -47.11796875 -28.5248046875 -47.35 -27.55 -47.402734375 -27.5134765625 -47.45 -27.5 -48.05 -27.3 -48.2 -26.7 -49.9 -20.5 -50.55 -14 -51.75 -2.35 -51.65 9.5 -51.55 18.35 -50.05 27 -49.55 30.1 -48.85 33.15 -48.7 33.75 -48.25 34.1 -48.15 34.45 -47.9 34.6 -44.9 36.35 -41.35 37.05 -37.8 37.8 -34.2 38.25 -15.9 40.7 2.65 40.8 9.45 40.85 16.25 41.6 31.15 43.25 45.9 41.2 47.4 41 48.6 40.2 53.3 37.2 54.6 31.6 55.9 25.85 57.5 20.1 60.65 8.65 61.65 -3.25 62.35 -12 62.15 -20.8 62.05 -23.95 60.85 -26.85 60.65 -27.4 60.4 -27.9 59.9869140625 -28.092578125 59.55 -28.3 59.3232421875 -28.6 58.95 -28.95 55.1 -32.65 50.3 -34.55 50.2529296875 -34.5458984375 50.2 -34.55 49.9396484375 -40.02421875 45.55 -44.45 38.5 -51.55 28.45 -51.7 25.8 -51.4 25.75 -48.9 25.7 -46.9 26.05 -44.9 26.4 -42.85 26.9 -40.85 26.65 -39.1 26.3 -37.4
M 28.15 -32.1
Q 30.2283203125 -34.38828125 30.6 -37.95 31.1 -42.75 29.9 -47.55 34.4 -47.3 38.4 -45.15 42.45 -43 44.9 -39.2 45 -38.8 45.15 -38.4 45.2 -38.15 45.3 -37.95 45.45 -37.7 45.6 -37.45 45.65 -37.4 45.7 -37.3 45.85 -36.2 46 -35.05 46.30078125 -32.944140625 46.1 -30.85 37.16875 -31.62265625 28.15 -32.1
M 23.8 -33.45
Q 23.353515625 -32.8798828125 23.2 -32.35 13.536328125 -32.68359375 3.85 -32.6 -2.0630859375 -32.7302734375 -8 -32.6 -8.54765625 -33.4736328125 -9.1 -34.4 -5.83671875 -33.969140625 -2.45 -34 5.15 -34.1 12.75 -33.85 15.1 -33.8 17.5 -33.75 20.6361328125 -33.627734375 23.8 -33.45
M 37.1 -24.45
Q 25.5 -26.6 13.8 -27.65 2.1 -28.75 -9.65 -28.25 -18.1 -27.6 -26.6 -26.4 -31.7 -25.7 -36.7 -24.85 -39.5 -24.4 -41.25 -22.6 -42.35 -21.5 -42.85 -20.05 -43.7 -18.7 -43.9 -17.1 -45.3 -7.25 -45.7 2.8 -45.9 8.35 -45.55 13.85 -45.25 18.45 -44.1 22.9 -43.75 24.25 -43.75 25.65 -44.85 28.75 -41.4 29.65 -30.15 32.6 -18.6 34.5 -9.7654296875 35.9029296875 -0.95 36.9 -1.765234375 36.9150390625 -2.6 36.9 -21.4 36.55 -39.75 33 -42.5 32.5 -45.15 31.65 -47.75 20.9 -47.8 9.75 -47.85 -1.4 -46.75 -12.35 -46.25 -17 -45.4 -21.55 -45.2 -22.75 -45.2 -23.95 -44.55 -24.45 -43.4 -24.7 -31.7 -27.1 -19.8 -27.9 -8.4 -28.65 3 -28.6 26.85 -29.15 50.5 -26.1 53.95 -25.65 57.35 -25.15 58.7 -16.4 58.05 -7.45 57.75 -3.8 57.45 -0.15 56.6 11.1 53.15 21.9 51.7 26.45 50.3 31.05 49.95 32.3 49.65 33.5 49.6 33.6 49.5 33.7 49.35 34.05 49.15 34.3 48.9 34.6 48.75 34.9 48.7 35 48.65 35.1 48.6 35.2 48.5 35.3 48.35 35.5 48.15 35.7 48.05 35.8 48 35.9 47.9 36.1 47.8 36.25 47.7 36.35 47.6 36.45 47.45 36.55 47.35 36.65 47.2 36.75 47.1 36.85 39.564453125 38.628515625 31.9 38.3 37.2091796875 37.84921875 42.3 36.4 44.6 35.75 45.6 33.8 50.85 23.3 53.8 11.7 56.7 0.25 57.3 -11.6 57.4 -13.1 57.45 -14.55 57.55 -19.6 52.9 -20.85 45.05 -22.95 37.1 -24.45
M 33.35 -21.05
Q 43.25 -19.35 52.8 -16.8 54.25 -6.35 51.6 4.1 49 14.2 46 24.2 44.75 28.35 42.35 31.8 35.7 34.45 28.5 34.45 2.15 34.5 -23.7 29.65 -32.05 28.1 -39.9 25.35 -41.65 16.7 -41.8 7.8 -42 -2.4 -40.8 -12.35 -40.3 -16.45 -38.3 -20 -34.65 -20.8 -30.95 -21.5 -27.4181640625 -22.1857421875 -23.9 -22.75 -23.364453125 -22.8732421875 -22.85 -23 -19.55 -23.8 -16.25 -24.1 -15.053515625 -24.0703125 -13.9 -23.95 -12.023828125 -24.1162109375 -10.15 -24.25 11.8 -24.85 33.35 -21.05
M -18.4 -48.2
Q -17.6095703125 -39.45859375 -12.4 -32.4 -22.39140625 -31.92421875 -32.35 -30.6 -33.98828125 -30.3873046875 -35.65 -30.15 -36.692578125 -34.8921875 -34.1 -39.45 -28.95 -48.45 -18.65 -50.4 -18.5 -49.3 -18.4 -48.2
M -39.55 -30.7
Q -39.3869140625 -30.076953125 -39.2 -29.5 -40.137109375 -29.29140625 -41.1 -29.1 -40.316015625 -29.8833984375 -39.55 -30.7 Z" stroke="none" fill="#000000"></path>

<path d="M -39.2 -29.5
Q -39.3869140625 -30.076953125 -39.55 -30.7 -40.316015625 -29.8833984375 -41.1 -29.1 -40.137109375 -29.29140625 -39.2 -29.5
M -12.4 -32.4
Q -17.6095703125 -39.45859375 -18.4 -48.2 -18.5 -49.3 -18.65 -50.4 -28.95 -48.45 -34.1 -39.45 -36.692578125 -34.8921875 -35.65 -30.15 -33.98828125 -30.3873046875 -32.35 -30.6 -22.39140625 -31.92421875 -12.4 -32.4
M 13.8 -27.65
Q 25.5 -26.6 37.1 -24.45 45.05 -22.95 52.9 -20.85 57.55 -19.6 57.45 -14.55 57.4 -13.1 57.3 -11.6 56.7 0.25 53.8 11.7 50.85 23.3 45.6 33.8 44.6 35.75 42.3 36.4 37.2091796875 37.84921875 31.9 38.3 39.564453125 38.628515625 47.1 36.85 47.2 36.75 47.35 36.65 47.45 36.55 47.6 36.45 47.7 36.35 47.8 36.25 47.9 36.1 48 35.9 48.05 35.8 48.15 35.7 48.35 35.5 48.5 35.3 48.6 35.2 48.65 35.1 48.7 35 48.75 34.9 48.9 34.6 49.15 34.3 49.35 34.05 49.5 33.7 49.6 33.6 49.65 33.5 49.95 32.3 50.3 31.05 51.7 26.45 53.15 21.9 56.6 11.1 57.45 -0.15 57.75 -3.8 58.05 -7.45 58.7 -16.4 57.35 -25.15 53.95 -25.65 50.5 -26.1 26.85 -29.15 3 -28.6 -8.4 -28.65 -19.8 -27.9 -31.7 -27.1 -43.4 -24.7 -44.55 -24.45 -45.2 -23.95 -45.2 -22.75 -45.4 -21.55 -46.25 -17 -46.75 -12.35 -47.85 -1.4 -47.8 9.75 -47.75 20.9 -45.15 31.65 -42.5 32.5 -39.75 33 -21.4 36.55 -2.6 36.9 -1.765234375 36.9150390625 -0.95 36.9 -9.7654296875 35.9029296875 -18.6 34.5 -30.15 32.6 -41.4 29.65 -44.85 28.75 -43.75 25.65 -43.75 24.25 -44.1 22.9 -45.25 18.45 -45.55 13.85 -45.9 8.35 -45.7 2.8 -45.3 -7.25 -43.9 -17.1 -43.7 -18.7 -42.85 -20.05 -42.35 -21.5 -41.25 -22.6 -39.5 -24.4 -36.7 -24.85 -31.7 -25.7 -26.6 -26.4 -18.1 -27.6 -9.65 -28.25 2.1 -28.75 13.8 -27.65
M 23.2 -32.35
Q 23.353515625 -32.8798828125 23.8 -33.45 20.6361328125 -33.627734375 17.5 -33.75 15.1 -33.8 12.75 -33.85 5.15 -34.1 -2.45 -34 -5.83671875 -33.969140625 -9.1 -34.4 -8.54765625 -33.4736328125 -8 -32.6 -2.0630859375 -32.7302734375 3.85 -32.6 13.536328125 -32.68359375 23.2 -32.35
M 30.6 -37.95
Q 30.2283203125 -34.38828125 28.15 -32.1 37.16875 -31.62265625 46.1 -30.85 46.30078125 -32.944140625 46 -35.05 45.85 -36.2 45.7 -37.3 45.65 -37.4 45.6 -37.45 45.45 -37.7 45.3 -37.95 45.2 -38.15 45.15 -38.4 45 -38.8 44.9 -39.2 42.45 -43 38.4 -45.15 34.4 -47.3 29.9 -47.55 31.1 -42.75 30.6 -37.95 Z" stroke="none" fill="#666056"></path>

<path d="M -23.9 -22.75
Q -30.051953125 -20.8787109375 -33.8 -15.65 -37.05 -11.1 -36.55 -5.6 -36.35 -3.55 -35.6 -1.6 -34.4 1.45 -31.95 3.6 -29.65 5.6 -28.55 2.9 -28.3 2.35 -28.65 1.9 -31.45 -1.45 -32.75 -5.65 -33 -8.65 -31.75 -11.35 -30.2 -14.85 -26.9 -16.85 -20.4 -20.8 -12.9 -19.75 -9.9 -19.35 -7.1 -18.35 -4.55 -17.45 -4.35 -20 -4.25 -20.9 -5.05 -21.3 -9.181640625 -23.4259765625 -13.9 -23.95 -15.053515625 -24.0703125 -16.25 -24.1 -19.55 -23.8 -22.85 -23 -23.364453125 -22.8732421875 -23.9 -22.75
M -12.3 -9.4
Q -12.8 -8.45 -13.05 -7.4 -14.65 -0.15 -12.8 7.05 -12.55 8 -12 8.8 -10.55 10.85 -8.85 8.95 -7.15 7 -6.45 4.5 -4.45 -2.6 -4.9 -10 -5.1 -13.65 -8.35 -14.9 -9.75 -14.7 -10.55 -13.4 -11.8 -11.55 -12.3 -9.4
M 40.8 13.75
Q 43.1 11.55 44.05 8.55 44.75 6.4 44.75 4.15 44.75 1.75 42.35 2.2 41.75 2.25 41.6 2.8 40.5 6.85 38.6 10.65 35.6 13.35 31.65 13.85 27.7 14.35 23.85 13.6 16.65 12.25 13.3 6 12.75 5 13 3.8 13.7 0.7 11 -0.25 8.75 0.2 8.75 2.6 8.75 4.2 9.15 5.65 11.2 13 18.5 16 21.65 17.3 25 17.85 30.9 18.8 36.45 16.55 38.9 15.55 40.8 13.75
M 40.5 23.45
Q 40.9138671875 23.36875 41.3 23.25 42.1 23 42.2 22.15 42.5 19.3 39.3 19.6 37.9 19.7 36.65 20.4 35.95 20.8 35.25 21.25 32.9 22.7 33.65 25 33.9 25.65 34.55 25.75 34.86875 25.769921875 35.15 25.75 34.2 26.388671875 33.1 26.85 27.55 28.8 22.45 26.25 22.45 26.2 22.35 26.15 19.8 24.55 18.4 27.2 16.45 28.1 14.35 28.45 10.3 29.1 6.15 28.8 -1.2 28.25 -8.2 26.25 -13.7 24.7 -18.35 21.5 -20.55 20 -23.35 20.8 -28.2 22.25 -30.95 18.3 -31.8 17.05 -31.65 15.65 -31.619140625 15.351953125 -31.65 15.05 -30.65390625 15.9009765625 -29.3 15.05 -28.2 14.35 -28.65 13.15 -30.5 8.55 -35.45 8.65 -35.65 8.65 -36 8.75 -37.4 9.25 -37.2 10.65 -36.9544921875 12.4392578125 -35.45 12.7 -36.128125 13.4720703125 -36.1 14.85 -35.95 18.1 -34.15 20.8 -32.1 23.95 -28.45 24.65 -24.7 25.35 -20.95 24.8 -18.35 26.7 -15.3 27.95 -8.85 30.6 -2 31.6 2.95 32.35 7.9 32.85 15.05 33.6 21.15 30.15 21.3 30.15 21.4 30.15 22.95 31.1 24.75 31.35 31.45 32.45 37.15 29.1 40.5224609375 27.1291015625 40.5 23.45 Z" stroke="none" fill="#5B4201"></path>

<path d="M 52.8 -16.8
Q 43.25 -19.35 33.35 -21.05 11.8 -24.85 -10.15 -24.25 -12.023828125 -24.1162109375 -13.9 -23.95 -9.181640625 -23.4259765625 -5.05 -21.3 -4.25 -20.9 -4.35 -20 -4.55 -17.45 -7.1 -18.35 -9.9 -19.35 -12.9 -19.75 -20.4 -20.8 -26.9 -16.85 -30.2 -14.85 -31.75 -11.35 -33 -8.65 -32.75 -5.65 -31.45 -1.45 -28.65 1.9 -28.3 2.35 -28.55 2.9 -29.65 5.6 -31.95 3.6 -34.4 1.45 -35.6 -1.6 -36.35 -3.55 -36.55 -5.6 -37.05 -11.1 -33.8 -15.65 -30.051953125 -20.8787109375 -23.9 -22.75 -27.4181640625 -22.1857421875 -30.95 -21.5 -34.65 -20.8 -38.3 -20 -40.3 -16.45 -40.8 -12.35 -42 -2.4 -41.8 7.8 -41.65 16.7 -39.9 25.35 -32.05 28.1 -23.7 29.65 2.15 34.5 28.5 34.45 35.7 34.45 42.35 31.8 44.75 28.35 46 24.2 49 14.2 51.6 4.1 54.25 -6.35 52.8 -16.8
M 41.3 23.25
Q 40.9138671875 23.36875 40.5 23.45 40.5224609375 27.1291015625 37.15 29.1 31.45 32.45 24.75 31.35 22.95 31.1 21.4 30.15 21.3 30.15 21.15 30.15 15.05 33.6 7.9 32.85 2.95 32.35 -2 31.6 -8.85 30.6 -15.3 27.95 -18.35 26.7 -20.95 24.8 -24.7 25.35 -28.45 24.65 -32.1 23.95 -34.15 20.8 -35.95 18.1 -36.1 14.85 -36.128125 13.4720703125 -35.45 12.7 -36.9544921875 12.4392578125 -37.2 10.65 -37.4 9.25 -36 8.75 -35.65 8.65 -35.45 8.65 -30.5 8.55 -28.65 13.15 -28.2 14.35 -29.3 15.05 -30.65390625 15.9009765625 -31.65 15.05 -31.619140625 15.351953125 -31.65 15.65 -31.8 17.05 -30.95 18.3 -28.2 22.25 -23.35 20.8 -20.55 20 -18.35 21.5 -13.7 24.7 -8.2 26.25 -1.2 28.25 6.15 28.8 10.3 29.1 14.35 28.45 16.45 28.1 18.4 27.2 19.8 24.55 22.35 26.15 22.45 26.2 22.45 26.25 27.55 28.8 33.1 26.85 34.2 26.388671875 35.15 25.75 34.86875 25.769921875 34.55 25.75 33.9 25.65 33.65 25 32.9 22.7 35.25 21.25 35.95 20.8 36.65 20.4 37.9 19.7 39.3 19.6 42.5 19.3 42.2 22.15 42.1 23 41.3 23.25
M 44.05 8.55
Q 43.1 11.55 40.8 13.75 38.9 15.55 36.45 16.55 30.9 18.8 25 17.85 21.65 17.3 18.5 16 11.2 13 9.15 5.65 8.75 4.2 8.75 2.6 8.75 0.2 11 -0.25 13.7 0.7 13 3.8 12.75 5 13.3 6 16.65 12.25 23.85 13.6 27.7 14.35 31.65 13.85 35.6 13.35 38.6 10.65 40.5 6.85 41.6 2.8 41.75 2.25 42.35 2.2 44.75 1.75 44.75 4.15 44.75 6.4 44.05 8.55
M -13.05 -7.4
Q -12.8 -8.45 -12.3 -9.4 -11.8 -11.55 -10.55 -13.4 -9.75 -14.7 -8.35 -14.9 -5.1 -13.65 -4.9 -10 -4.45 -2.6 -6.45 4.5 -7.15 7 -8.85 8.95 -10.55 10.85 -12 8.8 -12.55 8 -12.8 7.05 -14.65 -0.15 -13.05 -7.4 Z" stroke="none" fill="#FFD96A"></path>
</g>
</g>
</g>
</g>
</g>
</svg>
