
<svg viewBox="0 0 134 108" height="108px" width="134px" y="0px" x="0px" preserveAspectRatio="none" xmlns:xlink="http://www.w3.org/1999/xlink" version="1.1" xmlns="http://www.w3.org/2000/svg">
<defs></defs>

<g id="Layer_1"></g>

<g id="Layer_2">
<g transform="matrix( 1.0723876953125, 0, 0, 1.0868072509765625, 270.9,43.7)" id="Layer_1">
<g>
<g>
<g>
<path d="M -246.4 -27.15
Q -246.85 -26.9 -246.95 -26.45 -248.2 -21.4 -247.8 -15.85 -247.6 -12.75 -246.65 -9.75 -244.6 -3 -241.05 3.25 -238.75 7.25 -235.55 10.55 -237 10.75 -237.25 12.05 -237.8 14.95 -237.4 17.95 -236.8 22.25 -235.1 26.15 -234.2 28.3 -232.8 30.15 -234.65 29.45 -235.45 31.25 -236.15 32.8 -235.35 34.45 -234.35 36.5 -233.05 38.4 -233 38.5 -232.95 38.6 -229.8 45.85 -223.4 50.55 -222.55 51.2 -221.65 51.7 -203.45 61.5 -182.55 59.65 -179.1 59.35 -175.65 59.05 -162.8 57.8 -152.35 50.55 -148.85 48.1 -146.7 44.45 -143.15 38.4 -144.25 31.45 -144.7009765625 28.6748046875 -146.05 26.2 -144.700390625 23.8640625 -144.4 21.1 -144.2548828125 21.004296875 -144.1 20.9 -142.85 20.1 -141.6 19.35 -139.3 17.95 -140 15.55 -140.022265625 15.487890625 -140.05 15.4 -135.31953125 11.8017578125 -132.85 6.35 -128.75 -2.8 -131.6 -12.65 -132.75 -16.55 -134.55 -20.15 -134.55 -20.25 -134.6 -20.35 -134.65 -20.65 -134.8 -20.95 -134.95 -21.25 -135.15 -21.55 -135.3 -21.75 -135.45 -21.95 -135.5 -22.05 -135.55 -22.15 -138.9 -28.55 -144.9 -33 -154.8 -40.25 -167.3 -39.3 -167.6 -39.25 -167.85 -39.25 -173.9 -38.35 -179.35 -35.55 -180.5 -34.95 -181.3 -33.95 -182.6599609375 -33.133984375 -183.8 -32.05 -185.9873046875 -34.5330078125 -190 -34.75 -192.9 -34.75 -194.45 -32.45 -195.2 -31.3 -195.4 -29.9 -195.95 -30.05 -196.55 -30.4 -198.6 -31.65 -200.9 -31.75 -201.5 -31.75 -201.75 -31.2 -202.7513671875 -28.966015625 -202.75 -26.7 -206.7833984375 -29.2109375 -211.65 -30.35 -213.65 -31.55 -216.05 -31.95 -222.8 -33.15 -229.7 -32.35 -238.7 -31.95 -246.4 -27.15
M -243.5 -14.05
Q -244.05 -17.45 -244 -20.95 -243.95 -22.55 -243.7 -24.1 -242.85 -24.4 -242.05 -24.8 -240.75 -25.5 -239.5 -26.25 -239.4 -26.35 -239.25 -26.45 -237.95 -26.7 -236.65 -27.05 -225.4 -29.85 -214.15 -27.25 -209.7 -25.85 -205.6 -23.7 -204.8 -23.3 -204.15 -22.75 -202.679296875 -21.5828125 -201.5 -21.6 -200.6140625 -20.208984375 -198.85 -20.25 -198.3376953125 -20.25 -198.1 -20.65 -198.0365234375 -20.676953125 -198 -20.75 -196.85 -22.95 -198.6 -25.1 -198.6 -25.35 -198.6 -25.6 -198.6 -25.85 -198.6 -26.1 -198.6 -26.35 -198.65 -26.6 -198.7 -26.8 -198.7 -27 -197.3 -26.4 -196 -25.2 -194.15 -23.6 -192.2 -24.65 -191.5 -25.05 -191.6 -25.85 -192.05 -28.45 -190.75 -30.55 -189.25 -30.95 -187.9 -30.25 -186.85 -29.7 -186 -28.9 -185.2900390625 -27.755078125 -184.5 -27.6 -184.090234375 -27.319140625 -183.5 -27.1 -183.05 -26.9 -182.75 -27.25 -180.2 -30.2 -176.7 -32 -165 -38.05 -152.5 -33.05 -150.55 -31.85 -148.6 -30.65 -145.05 -28.4 -142.35 -25.1 -141.45 -24 -140.4 -23.05 -140.35 -22.85 -140.3 -22.65 -140.2 -22.45 -140.1 -22.3 -139.95 -22.05 -139.8 -21.9 -139.65 -21.7 -139.5 -21.5 -139.45 -21.4 -139.35 -21.3 -139.4 -20.6 -139 -20.05 -138.6 -19.5 -138.4 -18.9 -138.2 -18.35 -137.85 -17.95 -137.8 -17.85 -137.75 -17.75 -135.9 -14.05 -135 -10.05 -134 -5.25 -134.65 -0.4 -134.85 1.4 -135.3 3.15 -136.5 5.7 -138.1 8 -140.1 10.95 -143.15 13 -143.77109375 13.401953125 -144.35 13.85 -145.2119140625 13.7306640625 -146.1 13.65 -146.58203125 12.846875 -147.2 12.1 -149.315234375 9.4765625 -152.9 8.1 -158.8 5.8 -165.15 6.25 -166.05 6.35 -167.05 6.45 -170.543359375 6.964453125 -173.35 8.65 -174.8904296875 9.587109375 -176.25 10.85 -177.5677734375 9.502734375 -178.7 7.95 -182.9 2.3 -179 -3.8 -177.1 -6.8 -174.5 -9.15 -170.7451171875 -12.6064453125 -166.5 -13.45 -162.15078125 -14.2349609375 -157.3 -12.35 -157.1 -11.9 -156.7 -11.5 -156.3 -11.05 -155.95 -10.55 -155.6 -10 -155.35 -9.4 -155.3 -9.3 -155.3 -9.2 -155.3 -9.1 -155.3 -9 -155.3 -8.7 -155.3 -8.4 -155.3 -8.1 -155.3 -7.8 -155.3 -7.4 -155.3 -7 -155.3 -6.9 -155.3 -6.8 -156.15 -5.15 -157.4 -3.75 -159 -1.9 -157.1 -0.55 -155.65 0.5 -154.45 -0.85 -152.35 -3.05 -151.6 -6 -151 -8.65 -152.05 -11 -155.55 -18.8 -164.75 -17.75 -170.05 -17.3 -174.5 -14.1 -179.2 -10.7 -182.45 -5.9 -183.9 -4.1 -184.45 -1.75 -185.6693359375 3.723828125 -183.7 7.9 -185.9669921875 5.4396484375 -189.25 3.95 -195.05 1.35 -201.4 1.85 -201.8 1.85 -202.15 1.9 -208.45 2.45 -213.55 6.1 -214.994140625 7.121484375 -216.25 8.35 -217.871484375 7.233984375 -219.9 6.65 -220.4 6.65 -220.9 6.95 -221.7 7.45 -221.65 8.35 -221.5 10.45 -220.3 12.35 -220.0134765625 12.7796875 -219.65 13.15 -221.215234375 16.6958984375 -220.7 20.85 -220.4 23.2 -219.15 25.2 -217.1 28.3 -213.95 30.25 -208.55 33.6 -202.15 33.85 -199.3 34 -196.45 33.65 -190.1 32.85 -185.15 28.9 -182.0755859375 26.42265625 -180.7 23.15 -180.6650390625 23.519140625 -180.6 23.9 -180.35 25.5 -179.3 26.75 -175.9 30.8 -170.85 32.4 -165 34.25 -158.7 33.95 -152.8421875 33.6392578125 -148.75 29.75 -148.560546875 30.26484375 -148.4 30.8 -148.35 30.9 -148.3 31 -147 36.75 -150.1 41.75 -154.95 49.6 -164.2 52.45 -167.9 53.55 -171.7 54.3 -184.35 56.85 -197.25 55.4 -200.7 55 -204.2 54.45 -216.6 52.65 -225 43.65 -227.95 40.45 -229.65 36.45 -228.35 37.2 -227.05 38.15 -224.1 40.25 -221.2 39.3 -221.1 39.25 -221 39.15 -220.1 37.65 -221.2 36.25 -222.25 35 -223.6 33.95 -228.3 30.25 -231.2 25.1 -232.3 23.15 -232.8 21 -232.8 20.2 -233 19.4 -233.25 18.35 -233.25 17.25 -233.25 16.25 -233.45 15.3 -233.45 15.2 -233.45 15.1 -233.25 15.1 -233 15.15 -232 15.4 -231 15.6 -230.5 15.75 -229.9 15.8 -228.45 16.9 -226.7 17.2 -225.45 17.45 -224.7 16.45 -222.7 13.8 -226.1 12.75 -226.15 12.75 -226.25 12.7 -227.8701171875 11.746875 -229.4 10.6 -229.1408203125 10.6189453125 -228.9 10.6 -228.05 10.5 -228.1 9.75 -228.5 5.55 -231.35 2 -231.4 1.9 -231.4 1.8 -231.45 1.7 -231.45 1.6 -231.65 1.35 -231.8 1.05 -231.95 0.8 -232.1 0.6 -232.15 0.45 -232.15 0.25 -229.95 -0.9 -227.2 -1 -225 -1.1 -222.8 -1.45 -221.2 -1.7 -221.6 -3.25 -222.4 -6 -224.1 -8.45 -227.05 -12.6 -230.55 -16.4 -235.25 -21.4 -241.25 -24.1 -242.45 -24.05 -242.95 -22.9 -243.35 -22 -242.7 -21.35 -242.1794921875 -20.7947265625 -241.65 -20.3 -240.5751953125 -19.2640625 -239.4 -18.35 -232.05 -12.75 -226.95 -5.15 -228.5 -4.7 -230.15 -4.45 -231.9 -4.2 -233.45 -3.45 -237.5 -1.5 -235.4 2.4 -234.34140625 4.4111328125 -233.4 6.45 -233.1138671875 7.019921875 -232.85 7.6 -236.341796875 4.13671875 -238.55 -0.4 -239.6 -2.6 -240.75 -4.75 -240.7 -5.05 -240.85 -5.35 -242.8 -9.5 -243.5 -14.05
M -148.55 18.15
Q -147.82421875 21.266796875 -149.3 23.95 -150.89140625 24.4826171875 -150.65 25.8 -150.6376953125 25.8251953125 -150.65 25.85 -150.75 26 -150.8 26.2 -151.55 27 -152.4 27.65 -153.4 28.45 -154.6 28.8 -161.6 30.85 -168.65 29 -173.55 27.75 -176.45 24 -176.45 23 -176.6 22.05 -177 18.95 -175.45 16.35 -172.05 10.7 -165.25 10.25 -159.05 9.65 -153.55 12.15 -151.2037109375 13.2216796875 -149.9 15.05 -150.1603515625 15.9205078125 -149.4 16.75 -149.115625 17.0771484375 -148.8 17.3 -148.65078125 17.709375 -148.55 18.15
M -178.6 13.65
Q -179.2513671875 14.739453125 -179.75 15.85 -179.966796875 14.1130859375 -180.7 12.5 -180.9357421875 11.9697265625 -181.2 11.45 -180.0611328125 12.6419921875 -178.6 13.65
M -201.6 5.85
Q -198.6 5.65 -195.6 6.1 -190.95 6.8 -187.35 9.75 -184.75 11.85 -184 15.1 -182.4 21.8 -188.05 26.05 -194.25 30.75 -202.1 29.7 -202.15 29.7 -202.15 29.65 -203.5 29 -205.1 29.2 -205.8 28.8 -206.65 28.75 -207.95 28.7 -209.25 28.3
L -209.3 28.3
Q -210.3 27.85 -211.1 27.2 -211.9 26.5 -212.9 26.1 -213 25.95 -213.15 25.85 -215.65 24.3 -216.35 21.6 -218.05 15.05 -212.9 10.6 -208.05 6.35 -201.6 5.85
M -199.5 6.9
Q -200.85 7.1 -202.2 7.6 -207.35 9.5 -209.05 14.55 -210.65 19.3 -207.4 23.1 -205.95 24.8 -203.75 25.45 -200.95 26.3 -198.05 26.6 -196.8 26.75 -195.6 26.3 -189.4 23.85 -188.9 17.1 -188.65 13.9 -190.45 11.15 -193.6 6.35 -199.5 6.9
M -155.9 21.95
Q -155.4 19.05 -156.75 16.5 -159.4 11.55 -165.25 11.6 -166.3 11.7 -167.4 11.95 -171.8 12.95 -173.75 16.8 -174.9 19.05 -174.2 21.45 -173.45 24.25 -171.4 26.4 -167.9 30.1 -162.65 28.9 -156.9 27.55 -155.9 21.95
M -202.1 46.45
Q -199.76015625 46.8982421875 -197.5 46.9 -196.808203125 50.8513671875 -193.15 52.75 -191.1 53.8 -188.75 53.75 -182.2263671875 53.7017578125 -179.1 48.1 -176.0939453125 48.9533203125 -172.75 48.75 -170.6 48.6 -168.75 47.45 -166.05 45.7 -166.7 42.6 -166.9 41.55 -167.95 41.35 -170.7 40.85 -170.45 43.6 -170.5 43.65 -170.5 43.7 -170.5 43.8 -170.55 43.85 -170.6 43.9 -170.65 43.95 -170.7 44.05 -170.75 44.1 -178.15 46.2 -183.95 41 -184.6 40.4 -185.45 40.55 -188.6 40.95 -191.7 42.05 -197.7 44.25 -203.3 41.7 -203.4 41.55 -203.5 41.45 -203.6 41.25 -203.75 41.05 -203.85 40.95 -203.9 40.8 -203.95 40.6 -203.95 40.45 -204 40.1 -204.1 39.8 -204.15 39.6 -204.1 39.4 -203.6 38.8 -203.3 38.1 -202.3 35.75 -204.9 35.15 -206.85 35.75 -207.8 37.85 -208.5 39.45 -208.05 41.1 -206.9 45.55 -202.1 46.45
M -193.15 47
Q -193.1697265625 46.8232421875 -193.2 46.65 -189.5166015625 46.09609375 -185.95 44.45 -184.4171875 45.7052734375 -182.8 46.6 -183.514453125 47.345703125 -184.3 48.05 -187.9 51.5 -192.15 48.6 -193.05 48 -193.15 47
M -186.5 31.85
Q -188.8 33.85 -186.3 35.85 -185.4 36.6 -184.45 37.35 -181.8212890625 39.42109375 -178.85 39.1 -176.169921875 39.966015625 -173.4 37.75 -172.65 37.15 -172.15 36.3 -170.8 33.8 -173.55 33 -173.75 33 -173.9 33.1 -174.2283203125 33.301953125 -174.55 33.5 -176.5041015625 33.2728515625 -178.45 34.35 -179.3 33.8 -180.2 33.3 -182.75 31.8 -185.7 31.55 -186.1 31.55 -186.5 31.85 Z" stroke="none" fill="#000000"></path>

<path d="M -195.6 6.1
Q -198.6 5.65 -201.6 5.85 -208.05 6.35 -212.9 10.6 -218.05 15.05 -216.35 21.6 -215.65 24.3 -213.15 25.85 -213 25.95 -212.9 26.1 -211.9 26.5 -211.1 27.2 -210.3 27.85 -209.3 28.3
L -209.25 28.3
Q -207.95 28.7 -206.65 28.75 -205.8 28.8 -205.1 29.2 -203.5 29 -202.15 29.65 -202.15 29.7 -202.1 29.7 -194.25 30.75 -188.05 26.05 -182.4 21.8 -184 15.1 -184.75 11.85 -187.35 9.75 -190.95 6.8 -195.6 6.1
M -202.2 7.6
Q -200.85 7.1 -199.5 6.9 -193.6 6.35 -190.45 11.15 -188.65 13.9 -188.9 17.1 -189.4 23.85 -195.6 26.3 -196.8 26.75 -198.05 26.6 -200.95 26.3 -203.75 25.45 -205.95 24.8 -207.4 23.1 -210.65 19.3 -209.05 14.55 -207.35 9.5 -202.2 7.6
M -179.75 15.85
Q -179.2513671875 14.739453125 -178.6 13.65 -180.0611328125 12.6419921875 -181.2 11.45 -180.9357421875 11.9697265625 -180.7 12.5 -179.966796875 14.1130859375 -179.75 15.85
M -149.3 23.95
Q -147.82421875 21.266796875 -148.55 18.15 -148.65078125 17.709375 -148.8 17.3 -149.115625 17.0771484375 -149.4 16.75 -150.1603515625 15.9205078125 -149.9 15.05 -151.2037109375 13.2216796875 -153.55 12.15 -159.05 9.65 -165.25 10.25 -172.05 10.7 -175.45 16.35 -177 18.95 -176.6 22.05 -176.45 23 -176.45 24 -173.55 27.75 -168.65 29 -161.6 30.85 -154.6 28.8 -153.4 28.45 -152.4 27.65 -151.55 27 -150.8 26.2 -150.75 26 -150.65 25.85 -150.6376953125 25.8251953125 -150.65 25.8 -150.89140625 24.4826171875 -149.3 23.95
M -156.75 16.5
Q -155.4 19.05 -155.9 21.95 -156.9 27.55 -162.65 28.9 -167.9 30.1 -171.4 26.4 -173.45 24.25 -174.2 21.45 -174.9 19.05 -173.75 16.8 -171.8 12.95 -167.4 11.95 -166.3 11.7 -165.25 11.6 -159.4 11.55 -156.75 16.5
M -244 -20.95
Q -244.05 -17.45 -243.5 -14.05 -242.8 -9.5 -240.85 -5.35 -240.7 -5.05 -240.75 -4.75 -239.6 -2.6 -238.55 -0.4 -236.341796875 4.13671875 -232.85 7.6 -233.1138671875 7.019921875 -233.4 6.45 -237.7341796875 1.4583984375 -240 -5.15 -242.5541015625 -12.725390625 -241.65 -20.3 -242.1794921875 -20.7947265625 -242.7 -21.35 -243.35 -22 -242.95 -22.9 -242.45 -24.05 -241.25 -24.1 -235.25 -21.4 -230.55 -16.4 -227.05 -12.6 -224.1 -8.45 -222.4 -6 -221.6 -3.25 -221.2 -1.7 -222.8 -1.45 -225 -1.1 -227.2 -1 -229.95 -0.9 -232.15 0.25 -232.15 0.45 -232.1 0.6 -231.95 0.8 -231.8 1.05 -231.65 1.35 -231.45 1.6 -231.45 1.7 -231.4 1.8 -231.4 1.9 -231.35 2 -228.5 5.55 -228.1 9.75 -228.05 10.5 -228.9 10.6 -229.1408203125 10.6189453125 -229.4 10.6 -227.8701171875 11.746875 -226.25 12.7 -226.15 12.75 -226.1 12.75 -222.7 13.8 -224.7 16.45 -225.45 17.45 -226.7 17.2 -228.45 16.9 -229.9 15.8 -230.5 15.75 -231 15.6 -232 15.4 -233 15.15 -233.25 15.1 -233.45 15.1 -233.45 15.2 -233.45 15.3 -233.25 16.25 -233.25 17.25 -233.25 18.35 -233 19.4 -232.8 20.2 -232.8 21 -232.3 23.15 -231.2 25.1 -228.3 30.25 -223.6 33.95 -222.25 35 -221.2 36.25 -220.1 37.65 -221 39.15 -221.1 39.25 -221.2 39.3 -224.1 40.25 -227.05 38.15 -228.35 37.2 -229.65 36.45 -227.95 40.45 -225 43.65 -216.6 52.65 -204.2 54.45 -200.7 55 -197.25 55.4 -184.35 56.85 -171.7 54.3 -167.9 53.55 -164.2 52.45 -154.95 49.6 -150.1 41.75 -147 36.75 -148.3 31 -148.35 30.9 -148.4 30.8 -148.560546875 30.26484375 -148.75 29.75 -152.8421875 33.6392578125 -158.7 33.95 -165 34.25 -170.85 32.4 -175.9 30.8 -179.3 26.75 -180.35 25.5 -180.6 23.9 -180.6650390625 23.519140625 -180.7 23.15 -182.0755859375 26.42265625 -185.15 28.9 -190.1 32.85 -196.45 33.65 -199.3 34 -202.15 33.85 -208.55 33.6 -213.95 30.25 -217.1 28.3 -219.15 25.2 -220.4 23.2 -220.7 20.85 -221.215234375 16.6958984375 -219.65 13.15 -220.0134765625 12.7796875 -220.3 12.35 -221.5 10.45 -221.65 8.35 -221.7 7.45 -220.9 6.95 -220.4 6.65 -219.9 6.65 -217.871484375 7.233984375 -216.25 8.35 -214.994140625 7.121484375 -213.55 6.1 -208.45 2.45 -202.15 1.9 -201.8 1.85 -201.4 1.85 -195.05 1.35 -189.25 3.95 -185.9669921875 5.4396484375 -183.7 7.9 -185.6693359375 3.723828125 -184.45 -1.75 -183.9 -4.1 -182.45 -5.9 -179.2 -10.7 -174.5 -14.1 -170.05 -17.3 -164.75 -17.75 -155.55 -18.8 -152.05 -11 -151 -8.65 -151.6 -6 -152.35 -3.05 -154.45 -0.85 -155.65 0.5 -157.1 -0.55 -159 -1.9 -157.4 -3.75 -156.15 -5.15 -155.3 -6.8 -155.3 -6.9 -155.3 -7 -155.3 -7.4 -155.3 -7.8 -155.3 -8.1 -155.3 -8.4 -155.3 -8.7 -155.3 -9 -155.3 -9.1 -155.3 -9.2 -155.3 -9.3 -155.35 -9.4 -155.6 -10 -155.95 -10.55 -156.3 -11.05 -156.7 -11.5 -157.1 -11.9 -157.3 -12.35 -162.15078125 -14.2349609375 -166.5 -13.45 -169.91640625 -12.0705078125 -172.6 -9.6 -175.15 -7.35 -176.45 -4.4 -177.85 -1.15 -177.25 1.85 -176.8 4 -175.15 6.4 -174.538671875 7.2689453125 -173.35 8.65 -170.543359375 6.964453125 -167.05 6.45 -166.05 6.35 -165.15 6.25 -158.8 5.8 -152.9 8.1 -149.315234375 9.4765625 -147.2 12.1 -143.3177734375 8.6640625 -141.1 3.6 -138.1 -3.2 -139.1 -10.35 -140.2 -17.45 -145.25 -23.1 -150.3 -28.75 -157.25 -30.75 -164.2 -32.6 -171.4 -30.4 -178.65 -28.2 -183.25 -22.75 -187.6 -25.35 -190.1 -26.75 -189.7 -23.7 -190.5 -20.6 -193.45 -22.5 -193.6 -22.6 -194.9 -21.5 -195.75 -19.35 -197.0150390625 -19.816015625 -198.1 -20.65 -198.3376953125 -20.25 -198.85 -20.25 -200.6140625 -20.208984375 -201.5 -21.6 -202.679296875 -21.5828125 -204.15 -22.75 -204.8 -23.3 -205.6 -23.7 -209.7 -25.85 -214.15 -27.25 -225.4 -29.85 -236.65 -27.05 -237.95 -26.7 -239.25 -26.45 -239.4 -26.35 -239.5 -26.25 -240.75 -25.5 -242.05 -24.8 -242.85 -24.4 -243.7 -24.1 -243.95 -22.55 -244 -20.95
M -152.75 37.45
Q -152.45 40.1 -155.4 40.65 -159.7 41.45 -163.95 40.6 -167.9 39.85 -166.8 36.6 -166.55 35.95 -165.9 35.75 -165.3 35.6 -164.75 35.55 -158.85 34.8 -153.4 36.6 -152.85 36.8 -152.75 37.45
M -186.3 35.85
Q -188.8 33.85 -186.5 31.85 -186.1 31.55 -185.7 31.55 -182.75 31.8 -180.2 33.3 -179.3 33.8 -178.45 34.35 -176.5041015625 33.2728515625 -174.55 33.5 -174.2283203125 33.301953125 -173.9 33.1 -173.75 33 -173.55 33 -170.8 33.8 -172.15 36.3 -172.65 37.15 -173.4 37.75 -176.169921875 39.966015625 -178.85 39.1 -181.8212890625 39.42109375 -184.45 37.35 -185.4 36.6 -186.3 35.85
M -197.5 46.9
Q -199.76015625 46.8982421875 -202.1 46.45 -206.9 45.55 -208.05 41.1 -208.5 39.45 -207.8 37.85 -206.85 35.75 -204.9 35.15 -202.3 35.75 -203.3 38.1 -203.6 38.8 -204.1 39.4 -204.15 39.6 -204.1 39.8 -204 40.1 -203.95 40.45 -203.95 40.6 -203.9 40.8 -203.85 40.95 -203.75 41.05 -203.6 41.25 -203.5 41.45 -203.4 41.55 -203.3 41.7 -197.7 44.25 -191.7 42.05 -188.6 40.95 -185.45 40.55 -184.6 40.4 -183.95 41 -178.15 46.2 -170.75 44.1 -170.7 44.05 -170.65 43.95 -170.6 43.9 -170.55 43.85 -170.5 43.8 -170.5 43.7 -170.5 43.65 -170.45 43.6 -170.7 40.85 -167.95 41.35 -166.9 41.55 -166.7 42.6 -166.05 45.7 -168.75 47.45 -170.6 48.6 -172.75 48.75 -176.0939453125 48.9533203125 -179.1 48.1 -182.2263671875 53.7017578125 -188.75 53.75 -191.1 53.8 -193.15 52.75 -196.808203125 50.8513671875 -197.5 46.9
M -210.7 33.55
Q -210.25 33.85 -210.25 34.4 -210.25 37.45 -213.7 37.9 -216.65 38.25 -218.45 36.15 -219.55 35.65 -220.65 35.25 -223.45 34.25 -221.7 32 -221.2 31.35 -220.5 31.35 -214.95 30.55 -210.7 33.55 Z" stroke="none" fill="#FFFFFF"></path>

<path d="M -174.5 -9.15
Q -177.1 -6.8 -179 -3.8 -182.9 2.3 -178.7 7.95 -177.5677734375 9.502734375 -176.25 10.85 -174.8904296875 9.587109375 -173.35 8.65 -174.538671875 7.2689453125 -175.15 6.4 -176.8 4 -177.25 1.85 -177.85 -1.15 -176.45 -4.4 -175.15 -7.35 -172.6 -9.6 -169.91640625 -12.0705078125 -166.5 -13.45 -170.7451171875 -12.6064453125 -174.5 -9.15
M -198.7 -27
Q -198.7 -26.8 -198.65 -26.6 -198.6 -26.35 -198.6 -26.1 -198.6 -25.85 -198.6 -25.6 -198.6 -25.35 -198.6 -25.1 -196.85 -22.95 -198 -20.75 -198.0365234375 -20.676953125 -198.1 -20.65 -197.0150390625 -19.816015625 -195.75 -19.35 -194.9 -21.5 -193.6 -22.6 -193.45 -22.5 -190.5 -20.6 -189.7 -23.7 -190.1 -26.75 -187.6 -25.35 -183.25 -22.75 -178.65 -28.2 -171.4 -30.4 -164.2 -32.6 -157.25 -30.75 -150.3 -28.75 -145.25 -23.1 -140.2 -17.45 -139.1 -10.35 -138.1 -3.2 -141.1 3.6 -143.3177734375 8.6640625 -147.2 12.1 -146.58203125 12.846875 -146.1 13.65 -145.2119140625 13.7306640625 -144.35 13.85 -143.77109375 13.401953125 -143.15 13 -140.1 10.95 -138.1 8 -136.5 5.7 -135.3 3.15 -134.85 1.4 -134.65 -0.4 -134 -5.25 -135 -10.05 -135.9 -14.05 -137.75 -17.75 -137.8 -17.85 -137.85 -17.95 -138.2 -18.35 -138.4 -18.9 -138.6 -19.5 -139 -20.05 -139.4 -20.6 -139.35 -21.3 -139.45 -21.4 -139.5 -21.5 -139.65 -21.7 -139.8 -21.9 -139.95 -22.05 -140.1 -22.3 -140.2 -22.45 -140.3 -22.65 -140.35 -22.85 -140.4 -23.05 -141.45 -24 -142.35 -25.1 -145.05 -28.4 -148.6 -30.65 -150.55 -31.85 -152.5 -33.05 -165 -38.05 -176.7 -32 -180.2 -30.2 -182.75 -27.25 -183.05 -26.9 -183.5 -27.1 -184.090234375 -27.319140625 -184.5 -27.6 -185.2900390625 -27.755078125 -186 -28.9 -186.85 -29.7 -187.9 -30.25 -189.25 -30.95 -190.75 -30.55 -192.05 -28.45 -191.6 -25.85 -191.5 -25.05 -192.2 -24.65 -194.15 -23.6 -196 -25.2 -197.3 -26.4 -198.7 -27
M -239.4 -18.35
Q -240.5751953125 -19.2640625 -241.65 -20.3 -242.5541015625 -12.725390625 -240 -5.15 -237.7341796875 1.4583984375 -233.4 6.45 -234.34140625 4.4111328125 -235.4 2.4 -237.5 -1.5 -233.45 -3.45 -231.9 -4.2 -230.15 -4.45 -228.5 -4.7 -226.95 -5.15 -232.05 -12.75 -239.4 -18.35
M -210.25 34.4
Q -210.25 33.85 -210.7 33.55 -214.95 30.55 -220.5 31.35 -221.2 31.35 -221.7 32 -223.45 34.25 -220.65 35.25 -219.55 35.65 -218.45 36.15 -216.65 38.25 -213.7 37.9 -210.25 37.45 -210.25 34.4
M -155.4 40.65
Q -152.45 40.1 -152.75 37.45 -152.85 36.8 -153.4 36.6 -158.85 34.8 -164.75 35.55 -165.3 35.6 -165.9 35.75 -166.55 35.95 -166.8 36.6 -167.9 39.85 -163.95 40.6 -159.7 41.45 -155.4 40.65 Z" stroke="none" fill="#6699FF"></path>

<path d="M -193.2 46.65
Q -193.1697265625 46.8232421875 -193.15 47 -193.05 48 -192.15 48.6 -187.9 51.5 -184.3 48.05 -183.514453125 47.345703125 -182.8 46.6 -184.4171875 45.7052734375 -185.95 44.45 -189.5166015625 46.09609375 -193.2 46.65 Z" stroke="none" fill="#FF6666"></path>
</g>
</g>
</g>
</g>
</g>
</svg>
