
<svg viewBox="0 0 272 172" height="172px" width="272px" y="0px" x="0px" preserveAspectRatio="none" xmlns:xlink="http://www.w3.org/1999/xlink" version="1.1" xmlns="http://www.w3.org/2000/svg">
<defs></defs>

<g id="Layer_2">
<g>
<g>
<g>
<path d="M 180.55 31.6
Q 180.25 31.35 180 31 179.9 30.85 179.7 30.7 170.1 31.75 161 34.5 160.95 34.2 160.8 34 160.75 33.8 160.55 33.65 160.55 33.5 160.55 33.35 160.35 32.9 160.2 32.4 160.15 32.3 160.15 32.15 159.95 31.8 159.8 31.5 159.75 31.35 159.75 31.2 159.75 31.05 159.75 30.9 159.95 29.15 159.6 27.45 159.4 26.55 158.95 25.65 158.95 25.35 158.95 25.05 158.95 24.9 158.95 24.75 158.9 24.6 158.8 24.5 158.45 24.05 158.5 23.5 158.55 23.35 158.55 23.2 158.5 23.05 158.4 22.95 158.25 22.75 158.1 22.6 158.05 22.3 157.95 22 157.85 21.85 157.7 21.7 156.4 21.65 155.05 21.65 154.9 21.7 154.75 21.8 154.2 22.2 153.7 22.7 153.5 22.85 153.3 23 151.591015625 23.7080078125 149.9 24.45 144.6642578125 26.7912109375 139.6 29.55 139.05 29.6 138.55 29.55 138.5 29.55 138.45 29.45 138.15 28.45 137.25 27.9 137.05 27.75 136.9 27.6 136.85 27.45 136.8 27.3 136.75 27.15 136.7 27 136.3 26.7 135.9 26.35 135.75 26.25 135.6 26.1 134.9 24.9 134.35 23.65 134.1 22.95 133.55 22.4 133.55 22.25 133.5 22.1 132.95 20.8 132 19.65 131.55 19.1 131.4 18.4 131.1 18.3 130.8 18.15 130.75 18.15 130.65 18.1 130.55 18 130.5 17.9 130.35 17.75 130.25 17.6 129.15 17.55 128 17.5 125.5 19.15 123.3 21.55 118.5 26.8 114.6 32.45 114.1 32.05 113.5 31.7 107.35 28 101.7 23.4 101.15 23.25 100.6 23.05 100.4 23 100.25 22.9 99.2 22.85 98.1 22.9 98 22.9 97.9 23 97.95 23.55 97.65 23.95 97.55 24.1 97.5 24.25 97.5 24.55 97.5 24.85 97.25 29 97.2 33.15 97.1171875 37.4578125 97.1 41.8 97.1 42.69921875 97.1 43.6 92.176171875 43.2716796875 87.4 41.8 87.1138671875 41.7025390625 86.8 41.6 83.539453125 40.5580078125 80.55 40.55 79.0927734375 40.554296875 77.7 40.8 77.15 40.75 76.65 40.75 76.65 40.9 76.65 41.05 76.4 41.1 76.2 41.15 76.3548828125 41.4599609375 76.45 41.8 76.5162109375 41.8986328125 76.55 42 76.35 44.75 76.35 47.55 76.35 54.1 76.35 60.65 74.4 61.05 72.45 61.35 67.4 62.1 64.3 64.4 64.75 65.35 65.35 66.15 65.05 67 64.8 67.9 64.35 69.3 64.85 70.6 64.95 73 65.25 75.35 65.6 77.5 65.65 79.7 65.25 79.75 64.85 79.8 62.6 80.45 60.25 81.2 60.15 81.25 60 81.3 59.95 81.35 59.95 81.45 59.25 81.5 58.6 81.6 59.2 81.6 59.85 81.65 59.8 81.65 59.75 81.7 59.65 81.8 59.6 81.9 59.6 82 59.6 82.1 59.6 82.2 59.6 82.3 59.6 82.4 59.6 82.5 59.6 82.55 59.6 82.6 59.55 82.6 59.45 82.65 59.4 82.65 59.4 82.8 59.4 82.95 59.4 83.1 59.4 83.6 59.4 84.05 59.4 84.2 59.4 84.35 59.9 84.7 59.85 85.25 59.8 85.4 59.8 85.6 60.05 85.9 60.3 86.2 60.45 86.35 60.55 86.5 60.6 86.65 60.6 86.8 60.6 87.35 60.9 87.75 60.85 89.3 60.75 90.8 60.65 93 61.3 95 61.5 96.6 61.45 98.2 61.4 99.35 61.95 100.4 62 102.4 62.5 104.35 63.15 106.6 62.95 109 63 109.1 63.1 109.25 63.15 109.35 63.15 109.5 63.15 109.75 63.15 110 63 111.05 63.5 111.95 63.55 112.05 63.6 112.2 63.6 112.3 63.6 112.45 63.6 113.3 63.7 114.15 63.7 114.3 63.85 114.4 63.85 114.55 63.85 114.65 63.85 115 63.85 115.4 63.85 115.5 63.85 115.65 64 115.9 64.15 116.15 64.2 116.25 64.25 116.35 64.25 116.5 64.25 116.6 64.25 117.1 64.25 117.6 64.25 117.7 64.25 117.85 64.4 118.1 64.6 118.3 64.7 118.45 64.8 118.6 64.85 118.7 64.9 118.85 65.15 119.5 65.45 120.05 65.5 120.2 65.55 120.3 66.6 121.3 67.35 122.5 68.35 124.05 69.4 125.45 70.25 126.1 71 126.9 71.3 127.2 71.7 127.45 71.9 127.8 72.15 128.15 72.25 128.3 72.35 128.4 73.3 128.9 74.15 129.65 74.5 129.95 74.9 130.2 75.05 130.45 75.2 130.7 75.3 130.85 75.4 130.95 75.7 131.05 76.05 131.15 76.1 131.15 76.1 131.2 76.45 132.15 77.2 132.85 78.25 133.85 79.65 134.4 79.7 134.5 79.75 134.65 79.8 134.75 79.9 134.9 80.15 135 80.4 135.1 80.4728515625 135.14375 80.55 135.2 80.7373046875 135.29375 80.95 135.4 81.05 135.5 81.1 135.65 81.15 135.75 81.2 135.85 81.95 136.25 82.55 136.75 83.106640625 137.23984375 83.7 137.7 84.4234375 138.273046875 85.2 138.8 86.15 138.65 86.3 139.2 86.35 139.35 86.45 139.45 87.5 139.9 88.55 140.35 88.9 140.5 89.2 140.6 92.65 143 96.6 144.4 96.7 144.5 96.85 144.6 97 144.75 97.15 144.9 111.95 150.55 127.7 152.3 139.0265625 153.551171875 149.9 152.35 163.7947265625 150.82578125 176.95 145.3 177.1 145.15 177.3 145.05 177.4 144.9 177.55 144.8 185.525390625 142.31640625 191.95 137.7 197.215625 133.9529296875 201.45 128.8 201.95 128.6 202.4 128.25 202.5 128.2 202.5 128.1 202.55 127.95 202.65 127.85 203.3 127.05 203.65 126.1 203.7 126 203.75 125.85 204.9 125.2 205.4 123.9 205.5 123.65 205.65 123.4 205.9 123.15 206.2 122.9 206.3 122.8 206.35 122.7 206.4 122.45 206.45 122.2 206.45 122.05 206.45 121.95 207.3 120.9 207.9 119.75 208.35 118.85 208.9 118 208.95 117.9 208.95 117.75 209 117.65 209 117.5 210 116.55 210.25 115.3 210.3 115.05 210.3 114.8 210.6 114.45 210.85 114.05 210.9 113.95 210.95 113.85 210.95 113.6 210.95 113.35 210.95 113.2 210.95 113.1 211.4 112.65 211.6 112.1 211.65 112 211.7 111.85 211.7 111.75 211.7 111.6 211.7 111.25 211.7 110.9 211.7 110.75 211.7 110.65 211.8 110.5 211.85 110.4 211.9 110.25 211.95 110.15 211.95 110 211.95 109.9 211.95 109.55 211.95 109.15 211.95 109.05 211.95 108.9 212.1 108.65 212.25 108.4 212.3 108.3 212.35 108.2 212.35 108.05 212.35 107.95 212.35 107.3 212.35 106.7 212.35 106.6 212.35 106.45 212.45 106.35 212.5 106.2 212.55 106.1 212.6 105.95 212.6 104.35 212.6 102.75 212.6 101.4 212.6 100.05 213.3 96.85 213.1 93.45 212.75 87.15 212.35 80.9 212.35 80.8 212.35 80.75 212.25 80.75 212.2 80.75 212.2 79.45 212.2 78.1 209.35 77.7 206.55 77.3 206.55 75.4 206.55 73.5 206.55 70.85 206.55 68.25 206.9 67.9 207.25 67.55 204.7 64.45 200.75 62.75 199.85 62.35 198.95 62 198.95 60.55 199 59.1 199.05 57.95 198.65 56.95 198.65 55.25 198.75 53.6 198.8 52.45 198.4 51.4 198.5 50.35 198.2 49.4 198.4 49.05 198.55 48.7 198.6 48.55 198.65 48.4 198.65 48.1 198.65 47.8 198.65 47.2 198.65 46.55 198.6 46.4 198.55 46.25 198.2 46.15 197.85 46.05 197.85 46 197.8 46 197.7 45.85 197.55 45.7 197.45 45.6 197.35 45.45 196.4 45.15 195.5 44.8 195.25 44.7 195 44.6 188 44.35 181.05 44.1 181.05 42.95 181.05 41.8 181.05 40.2 181.05 38.6 181.05 35.95 181.05 33.35 181 33.2 180.9 33.1 180.6 32.65 180.65 32.1 180.65 31.95 180.65 31.8 180.65 31.65 180.55 31.6
M 178.2 31.9
Q 178.8 32.2 178.65 32.85 178.6 33 178.6 33.15 179.3 35.95 179.15 39 179.0775390625 40.4 179.05 41.8 179 43.3 179 44.8 186.05 45.1 193.15 45.35 194.15 45.9 195.3 46.1
L 195.3 46.15
Q 195.35 46.2 195.45 46.3 195.15 46.25 194.85 46.25 195.05 47.85 195.7 49.4 195.55 49.5 195.4 49.65 195.35 50.1 195.25 50.55 195.25 50.7 195.2 50.85 193.95 52.6 192.75 54.3 190.9 56.9 189.25 59.15 196.95 62.35 204.6 67.35 203.85 67.7 203.3 68 201.2 69.15 198.75 69.6 197.8 70.3 196.65 70.65 195.3 71.1 194.35 72.15 193.95 72.25 193.55 72.35 192.85 72.9 192.25 73.55 192.15 73.65 192.1 73.8 191.6 73.9 191.1 74.05 191.05 74.05 191 74.1 190.9 74.2 190.8 74.3 190.15 74.85 189.7 75.6 189.65 75.7 189.65 75.85 199.9 77.2 210.15 78.8 210.15 78.95 210.15 79.15 210.15 80.8 210.15 82.5 210.15 83.45 210.15 84.35 208.95 87.35 208.25 90.45 207.25 94.65 205.45 98.5 205.3 100.3 204.35 101.85 203.7 103 203.5 104.3 202.55 105.5 201.85 106.8 201.6 107.25 201.35 107.7 200 108.75 199 110.15 198 111.65 196.8 112.9 195.85 113.3 195.3 114.15 195.2 114.3 195.1 114.45 185.05 122.6 173 127.05 164.3 130.25 155.2 131.05 152.5416015625 131.271875 149.9 131.4 119.209375 132.760546875 90.85 120.1 85.23515625 117.6021484375 80.55 114.15 74.2626953125 109.4890625 69.65 103.1 69.65 102.95 69.6 102.8 69.6 102.65 69.55 102.45 68.45 101.45 67.8 100.05 67.35 99.05 66.45 98.5 66.4 98.15 66.4 97.85 66.35 97.7 66.35 97.55 65.25 95.65 64.65 93.55 64.05 91.6 63.1 89.9 63.1 89.55 63.1 89.25 63.1 88.5 63.1 87.75 63.1 87.55 63.1 87.4 63.05 87.25 63 87.1 62.95 86.9 62.85 86.75 62.85 86.6 62.85 86.45 62.75 86.35 62.7 86.2 62.65 86.1 62.6 86 62.6 85.75 62.6 85.5 62.6 84.65 62.6 83.75 62.6 83.65 62.6 83.5
L 62.6 83.4
Q 62.2 83.35 61.85 83.35 61.85 83.25 61.85 83.15 61.85 82.95 61.8 82.75 61.8 82.55 61.85 82.35 61.85 82.25 61.9 82.15 62.5 81.85 63.1 81.65 67.55 81.6 72.4 81.25 76.55 80.9 79.05 79.25 78 77 76.45 74.95 72.5 69.95 67.75 65.85 67.9 65.35 67.85 64.85
L 67.85 64.75
Q 67.35 64.65 66.85 64.65 66.8 64.55 66.7 64.45 66.55 64.35 66.45 64.2 73.9017578125 62.9400390625 80.55 60.8 83.1357421875 60.0021484375 85.6 59.05 85.6 58.9 85.6 58.75 85.6 58.3 85.6 57.85 85.55 57.65 85.5 57.5 83.65 54.65 82.4 51.45 81.446484375 48.897265625 80.55 46.3 79.9888671875 44.7166015625 79.45 43.1 79.2 42.8 78.95 42.45 78.85 42.3 78.75 42.15 78.7208984375 41.975 78.65 41.8 78.6416015625 41.675 78.6 41.55
L 78.6 41.5
Q 78.6 41.4 78.6 41.3 79.5765625 41.55703125 80.55 41.8 89.99375 44.0734375 99.15 44.3 99.15 44 99.15 43.7 99.15 42.75 99.15 41.8 99.1384765625 38.6 99.1 35.4 99.05 29.7 99.85 24.35 100.6 24.85 101.35 25.35 103.5 26.85 105.7 28.25 106.2 28.9 106.85 29.4 110.05 31.55 113.25 33.55 115.05 33.4 116.85 33.25 118.1 31 119.65 28.95 123.65 23.65 128.5 19.1 128.95 19.05 129.35 19.1 129.4 19.1 129.45 19.2 129.5 19.4 129.55 19.5 130.1 20.7 130.95 21.7 131.2 22 131.4 22.3 131.45 22.45 131.45 22.6 131.5 22.75 131.5 22.9 132.45 24 132.9 25.35 133.15 26 133.45 26.6 134.15 27.15 134.7 27.9 134.75 28 134.75 28.15 135.75 28.9 136.35 30 136.4 30.15 136.4 30.3 136.75 30.4 137.1 30.5 137.2 30.55 137.25 30.6 137.3 30.7 137.35 30.8 137.5 30.95 137.65 31.1 138.85 31.15 140.1 31.15
L 140.1 31.1
Q 144.9904296875 28.2703125 149.9 25.95 152.9712890625 24.5314453125 156.05 23.3 156.55 23.65 156.5 24.25 156.5 24.4 156.5 24.55 156.6 24.7 156.7 24.85 156.8 25 156.9 25.15 156.9 25.6 156.9 26.1 156.9 26.25 156.9 26.4 157.05 26.7 157.1 27 157.25 27.95 157.55 28.85 157.6 29 157.7 29.15 157.7 29.6 157.7 30.1 157.7 30.85 157.7 31.6 157.7 31.75 157.7 31.9 157.9 32.4 158.05 32.85 158.1 33 158.1 33.15 158.2 33.3 158.3 33.45 158.6 34.4 159.05 35.3 159.15 35.45 159.25 35.6 168.85 33.8 178.2 31.9
M 196.65 52.3
Q 196.7 52.4 196.7 52.55 196.7 54.1 196.7 55.7 196.7 56.55 196.7 57.45 197.15 59.05 197 60.8 197 60.95 197 61.15 194.05 59.9 191.7 58.85 191.75 58.7 191.85 58.6 192.1 58.4 192.4 58.25 193.65 56.8 194.65 55.2 195.6 53.7 196.65 52.3
M 195.4 73.2
Q 195.8 73.1 196.2 72.95 196.3 72.95 196.4 72.9 196.85 72.4 197.3 72 197.45 71.9 197.55 71.75 198.65 71.25 199.8 70.9 199.9 70.9 200 70.85 200.15 70.75 200.3 70.6 200.45 70.45 200.6 70.3 201.4 70.15 202.15 70.05 203.45 69.85 204.55 69.4 204.55 70.65 204.55 71.85 204.55 74.45 204.55 77 198.45 76.1 192.65 75.15 193.4 74.9 194.1 74.55 194.15 74.5 194.15 74.4 194.35 73.75 195.05 73.45 195.25 73.35 195.4 73.2
M 209.85 93.2
Q 210.3 91.3 210.85 89.4 211.25 92 211.1 94.65 210.65 100.05 210.65 105.45 210.55 105.6 210.5 105.75 210.4 105.85 210.4 105.95 210.4 106.1 210.4 106.2 210.4 106.85 210.35 107.45 210.35 107.55 210.3 107.7 210.2 107.8 210.15 107.95 210.05 108.05 209.95 108.2 209.95 109.55 209.7 110.9 209.55 111.8 209 112.6 209 112.85 209 113.1 209 113.2 209 113.35 208.75 113.6 208.5 113.85 208.4 113.95 208.35 114.1 208.35 114.45 208.35 114.8 208.35 114.95 208.35 115.05 207.85 115.85 207.3 116.55 207.2 116.65 207.1 116.8 207.05 116.9 207.05 117.05 207 117.15 207 117.25 206.2 118.25 205.65 119.45 205.2 120.45 204.5 121.2 204.55 121.6 204.4 121.95 204.35 122.05 204.3 122.2 203.45 122.85 202.95 123.85 202.5 124.75 201.7 125.4 201.65 125.5 201.6 125.6 201.15 126.5 200.65 127.35 200.55 127.45 200.45 127.6 200 127.85 199.6 128.1 199.45 128.2 199.3 128.35 194.6912109375 133.7625 189 137.7 182.672265625 142.092578125 175 144.65 168.35 147.25 161.5 149 160.25 149.3 159.1 149.5 154.475 150.3927734375 149.9 150.9 123.2189453125 153.836328125 98.25 143.55 94.45 142.3 91.2 139.95 90 139.45 88.85 139 88.6 138.95 88.4 138.8 88.3 138.7 88.25 138.6 88.1 138.45 88 138.3 87.6 138.25 87.2 138.15 87.1 138.1 87 138.1 86.795703125 137.895703125 86.55 137.7 86.051953125 137.2248046875 85.45 136.8 84.3 136 83.15 135.2 83.1 135.1 83.05 134.95 83 134.85 82.9 134.7 82.65 134.6 82.35 134.45 82.1 134.35 81.85 134.25 81.75 134 81.55 133.75 81.45 133.6 81.3 133.5 80.8931640625 133.3697265625 80.55 133.15 79.8384765625 132.7419921875 79.4 132 79.3 131.9 79.25 131.75 78.5 131.45 78.1 130.7 78 130.6 77.9 130.45 77.6 130.35 77.25 130.2 77.2 130.1 77.1 129.95 77.05 129.85 77 129.7 76.15 129.15 75.4 128.45 74.8 127.9 74.05 127.5 73.95 127.25 73.8 127.05 73.75 126.9 73.65 126.75 72.75 126.1 71.95 125.3 71.65 125.05 71.35 124.8 70.55 123.7 69.85 122.55 68.85 121 67.5 119.65 67.45 119.5 67.4 119.4 67.1 118.8 66.85 118.15 66.8 118.05 66.8 117.95 66.5 117.7 66.25 117.4 66.2 117.3 66.2 117.2 66.2 117.05 66.2 116.95 66.2 116.35 66.15 115.7 66.15 115.6 66.1 115.45 66.05 115.35 65.95 115.2 65.9 115.1 65.8 115 65.8 114.85 65.8 114.75 65.8 114.25 65.7 113.75 65.65 113.65 65.55 113.5 65.55 113.4 65.55 113.25 65.55 112.5 65.55 111.8 65.55 111.65 65.55 111.55 65.45 111.3 65.35 111.05 65.05 110.1 65.15 109.1 65.15 108.95 65.15 108.85 65.1 108.7 65.05 108.6 65 108.45 64.9 108.35 64.95 106.35 64.5 104.5 63.95 102.15 63.9 99.75 63.3 98.25 63.3 96.55 63.3 96.45 63.3 96.3 63.7 97.25 64.3 98.15 64.3 98.5 64.35 98.8 64.35 98.95 64.4 99.1 65.85 100.15 66.75 101.7 67.3 102.7 67.6 103.7 72.4619140625 111.46953125 80.55 116.15 80.9462890625 116.3783203125 81.35 116.6 105.6 129.85 133.2 132.5 141.602734375 133.298828125 149.9 132.65 155.6251953125 132.22265625 161.3 131.1 181.3 127.15 197.25 114.95 197.65 114.15 198.45 113.75 198.75 113.6 199.1 113.45 200.3 111.7 201.7 110.1 203.95 107.7 205.55 104.85 205.6 104.7 205.6 104.5 205.9 103.2 206.55 102 206.9 101.4 207.25 100.85 207.25 100.7 207.25 100.55 207.2 100.05 207.35 99.6 207.35 99.45 207.35 99.3 209.05 96.45 209.85 93.2
M 78.35 46.45
Q 78.7 47.3 79 48.2 79.7375 50.19140625 80.55 52.1 81.9404296875 55.4623046875 83.55 58.65 82.05859375 59.1470703125 80.55 59.6 79.479296875 59.909375 78.4 60.2 78.25 57.3 78.25 54.35 78.2 50.4 78.35 46.45
M 66.8 69.95
Q 66.6 69.6 66.6 69.15 66.6 69.1 66.55 69 66.7 68.4 66.95 67.85 69.9 70.55 72.5 73.6 73.3 75.1 74.55 76.25 76.3 77.8 76.4 79.35 73.8 79.7 71.25 80 71.1 79.95 71 79.95 69.35 79.6 67.7 79.6 67.55 77.95 67.4 76.25 67.05 73.1 66.8 69.95
M 116.7 65.45
Q 116.55 65.35 116.45 65.25 116.35 65.15 116.25 65.05 116.05 64.85 115.9 64.65 115.85 64.55 115.75 64.45 115.7 64.35 115.65 64.25 115.5 64.2 115.3 64.15 115.2 64.1 115.15 64.05 115.05 64 115 63.95 114.9 63.85 114.85 63.75 114.75 63.65 114.65 63.55 113.45 62.8 112.15 62.3 108.05 60.85 103.65 61.05 97.55 61.3 92.75 65.15 91.4 66.25 90.8 67.95 90.8 68.05 90.8 68.15 90.8 68.4 90.8 68.7 90.8 68.8 90.8 68.9 90.8 69 90.8 69.1 90.8 69.3 90.8 69.5 90.8 69.6 90.8 69.7 90.85 69.8 90.85 69.9 90.95 70 91 70.1 91.1 70.2 91.2 70.3 91.35 70.4 91.45 70.5 94.1 74.25 98.75 75.2 107.5 76.9 115.85 74.2 116.2 73.85 116.6 73.5 117 73.15 117.25 72.75 117.5 72.4 117.75 72.1 117.8 72 117.85 71.9 117.9 71.85 117.95 71.75 117.95 71.65 117.95 71.55 117.95 71.45 117.95 71.35 117.95 71.25 117.95 71.15 117.95 71.05 118 70.95 118.05 70.85 118.1 70.75 118.15 70.65 118.2 70.55 118.2 70.45 118.2 70.35 118.2 70.05 118.2 69.75 118.2 69.65 118.2 69.55 118.2 69.45 118.2 69.35 118.2 69.15 118.2 69 118.2 68.9 118.2 68.8 118.2 68.7 118.2 68.6 118.15 68.5 118.1 68.4 118.05 68.3 118 68.15 117.95 68.1 117.95 68 117.95 67.9 117.95 67.8 117.95 67.7 117.95 67.6 117.9 67.4 117.85 67.2 117.85 67.1 117.8 67 117.75 66.9 117.75 66.8 117.65 66.7 117.6 66.6 117.5 66.5 117.35 66.4 117.25 66.3 117.15 66.25 117.05 66.15 116.95 66.05 116.9 65.95 116.9 65.85 116.85 65.75 116.8 65.65 116.75 65.55 116.7 65.45
M 113.15 64.7
Q 113.35 64.8 113.55 64.85 113.65 64.9 113.75 65 113.85 65.2 114 65.4 114.2 65.75 114.5 66 114.65 66.05 114.7 66.15 114.8 66.35 114.95 66.55 115.15 66.9 115.45 67.15 115.6 67.25 115.7 67.35 115.75 67.45 115.8 67.55 115.85 67.65 115.9 67.75 115.95 67.85 115.95 67.95 115.95 68.05 115.95 68.15 115.95 68.3 115.95 68.5 115.95 68.6 115.95 68.7 115.95 68.8 115.95 68.9 116.1 69.1 116.2 69.3 116.25 69.4 116.25 69.5 116.25 69.6 116.25 69.7 116.25 69.8 116.2 69.85 116.05 70.15 116 70.5 115.95 70.8 115.95 71.05 115.95 71.15 115.9 71.25 115.75 71.45 115.55 71.65 112.05 75.75 106.05 74.55 104.75 73.9 103.25 74.3 101.05 74.85 98.05 73.6 94.6 72.1 92.75 69 93.05 67.2 94.5 65.95 98.45 62.5 103.65 62.05 108.7 61.6 112.9 64.3 112.9 64.4 113 64.5 113.05 64.6 113.15 64.7
M 192.15 87.65
Q 192.1 87.75 192 87.85 190.65 88.9 189.15 89.8 188.25 90.3 187.25 90.65 187.2 90.75 187.15 90.85 187.05 90.95 186.95 91.05 177.45 95.85 166.9 97.95 164 98.5 161.15 98.95 155.5212890625 99.8416015625 149.9 100.25 134.398046875 101.4083984375 118.95 98.95 108.25 97.25 99.2 91.45 98.75 91.4 98.3 91.3 98.2 91.25 98.15 91.2 98.1 91.1 98 91 97.9 90.8 97.75 90.6 97.65 90.5 97.55 90.4 97.25 90.35 96.9 90.25 96.75 90.2 96.55 90.15 96.45 90.05 96.35 89.95 95.45 89.2 94.2 89.1 94.05 89.1 93.9 89.05 92.5 88.05 91 87.35 90.25 87 89.7 86.4 88.5 86.4 87.25 86.35 87.2 86.4 87.15 86.5 87.15 86.55 87.15 86.65 87.15 86.75 87.15 86.85 87.15 87.05 87.15 87.25 87.15 87.35 87.15 87.45 87.25 87.55 87.3 87.65 87.35 87.75 87.4 87.85 87.4 87.95 87.4 88.05 87.45 88.25 87.55 88.45 87.6 88.55 87.65 88.65 87.65 88.75 87.65 88.85 87.65 88.95 87.65 89.05 87.65 89.25 87.7 89.4 87.7 89.5 87.7 89.6 89.15 91.8 90.55 94 96.05 102.95 106.25 106.65 126.45 113.9 147.8 112.2 148.854296875 112.1162109375 149.9 112 153.218359375 111.6103515625 156.45 110.85 166.75 108.45 176.05 103.35 184.45 98.8 191.2 92.05 191.25 91.95 191.3 91.85 191.35 91.75 191.4 91.65 191.45 91.55 191.45 91.45 191.9 91 192.25 90.55 192.6 90.15 193.1 89.85 193.2 89.8 193.3 89.7 193.35 89.6 193.35 89.5 193.4 89.4 193.45 89.3 193.45 89.2 193.5 89.1 193.8 88.8 194.1 88.55 194.4 88.3 194.45 87.9 194.5 87.8 194.5 87.7 194.5 87.6 194.45 87.6 193.5 87.4 192.5 87.3
L 192.5 87.35
Q 192.4 87.4 192.3 87.5 192.2 87.55 192.15 87.65
M 188.4 92.1
Q 182.95 97.45 176.35 101.25 168.25 105.95 159.3 108.7 154.6546875 110.132421875 149.9 110.9 143.0384765625 112.036328125 135.95 111.8 129 111.55 122.2 110.05 113.5 108.15 105.35 104.55 94.05 99.5 89.6 88.3 89.65 88.15 89.9 88.25 91.05 88.9 92.05 89.75 93.15 89.95 94.15 90.35 94.25 90.45 94.35 90.55 94.4 90.65 94.45 90.75 95.15 91 95.7 91.2 95.8 91.3 95.9 91.4 96.05 91.7 96.3 92 98.75 92.95 101.3 94.25 106.35 96.8 111.9 98.05 130.701171875 102.2416015625 149.9 101.1 154.289453125 100.88046875 158.7 100.35 174.35 98.5 188.4 92.1
M 170.85 61.2
Q 166.8 59.65 162.3 60.2 158 60.8 154.3 63.15 153 63.95 151.95 65.05 151.9 65.15 151.85 65.25 151.8 65.35 151.75 65.45 151.7 65.55 151.6 65.65 151.6 66.05 151.6 66.4 151.6 66.9 151.6 67.4 151.6 67.9 151.6 68.4 151.6 68.5 151.6 68.6 151.8 68.9 152.05 69.15 152.1 69.25 152.2 69.35 152.3 69.45 152.4 69.55 153.6 72.45 156.7 73.15 165.6 75.1 174.6 72.05 175.55 71.35 176.25 70.45 176.85 69.7 177.1 68.9 177.15 68.8 177.2 68.7 177.2 68.6 177.2 68.5 177.2 68.25 177.2 67.95 177.2 67.75 177.2 67.55 177.2 67.45 177.2 67.35 177.1 67.25 177.05 67.15 177 67.05 176.9 66.95 176.9 66.75 176.9 66.55 176.9 66.45 176.85 66.4 176.8 66.25 176.65 66.15 176.65 65.95 176.65 65.75 176.6 65.65 176.6 65.55 176.55 65.45 176.5 65.35 176.1 65.05 175.75 64.65 175.1 64 174.45 63.4 174.35 63.3 174.3 63.2 174.1 63.15 173.9 63.1 173.75 63.05 173.6 63 173.5 63 173.45 62.95 172.4 61.8 170.85 61.2
M 164.85 60.95
Q 165.51328125 61.058984375 166.15 61.15 169.3 61.6 171.6 63.65 171.85 63.75 172.05 63.8 172.25 63.85 172.45 63.95 172.55 64.3 172.85 64.5 173.9 65.25 174.6 66.25 174.65 66.3 174.65 66.4 174.7 66.5 174.7 66.6 174.7 66.7 174.7 66.8 175 67.05 175.05 67.4 175.1 67.8 175.15 68.2 175.05 68.4 175 68.6 174.9 68.8 174.9 69 174.65 69.25 174.5 69.5 173.75 70.6 172.7 71.35 165.2 73.7 157.5 72.4 157.4 72.3 157.25 72.25 156.5 71.7 155.85 71.15 154.75 70.2 154.35 68.9 154.2 68.7 154 68.5 153.8 68.2 153.6 67.95 153.6 67.45 153.55 66.95 153.55 66.45 153.7 65.95 154.8 64.75 156.15 63.9 159.488671875 61.720703125 163.4 61 163.737890625 60.947265625 164.05 60.9 164.46328125 60.939453125 164.85 60.95 Z" stroke="none" fill="#000000"></path>

<path d="M 66.6 69.15
Q 66.6 69.6 66.8 69.95 67.05 73.1 67.4 76.25 67.55 77.95 67.7 79.6 69.35 79.6 71 79.95 71.1 79.95 71.25 80 73.8 79.7 76.4 79.35 76.3 77.8 74.55 76.25 73.3 75.1 72.5 73.6 69.9 70.55 66.95 67.85 66.7 68.4 66.55 69 66.6 69.1 66.6 69.15
M 79 48.2
Q 78.7 47.3 78.35 46.45 78.2 50.4 78.25 54.35 78.25 57.3 78.4 60.2 79.479296875 59.909375 80.55 59.6 82.05859375 59.1470703125 83.55 58.65 81.9404296875 55.4623046875 80.55 52.1 79.7375 50.19140625 79 48.2
M 210.85 89.4
Q 210.3 91.3 209.85 93.2 209.05 96.45 207.35 99.3 207.35 99.45 207.35 99.6 207.2 100.05 207.25 100.55 207.25 100.7 207.25 100.85 206.9 101.4 206.55 102 205.9 103.2 205.6 104.5 205.6 104.7 205.55 104.85 203.95 107.7 201.7 110.1 200.3 111.7 199.1 113.45 198.75 113.6 198.45 113.75 197.65 114.15 197.25 114.95 181.3 127.15 161.3 131.1 155.6251953125 132.22265625 149.9 132.65 141.602734375 133.298828125 133.2 132.5 105.6 129.85 81.35 116.6 80.9462890625 116.3783203125 80.55 116.15 72.4619140625 111.46953125 67.6 103.7 67.3 102.7 66.75 101.7 65.85 100.15 64.4 99.1 64.35 98.95 64.35 98.8 64.3 98.5 64.3 98.15 63.7 97.25 63.3 96.3 63.3 96.45 63.3 96.55 63.3 98.25 63.9 99.75 63.95 102.15 64.5 104.5 64.95 106.35 64.9 108.35 65 108.45 65.05 108.6 65.1 108.7 65.15 108.85 65.15 108.95 65.15 109.1 65.05 110.1 65.35 111.05 65.45 111.3 65.55 111.55 65.55 111.65 65.55 111.8 65.55 112.5 65.55 113.25 65.55 113.4 65.55 113.5 65.65 113.65 65.7 113.75 65.8 114.25 65.8 114.75 65.8 114.85 65.8 115 65.9 115.1 65.95 115.2 66.05 115.35 66.1 115.45 66.15 115.6 66.15 115.7 66.2 116.35 66.2 116.95 66.2 117.05 66.2 117.2 66.2 117.3 66.25 117.4 66.5 117.7 66.8 117.95 66.8 118.05 66.85 118.15 67.1 118.8 67.4 119.4 67.45 119.5 67.5 119.65 68.85 121 69.85 122.55 70.55 123.7 71.35 124.8 71.65 125.05 71.95 125.3 72.75 126.1 73.65 126.75 73.75 126.9 73.8 127.05 73.95 127.25 74.05 127.5 74.8 127.9 75.4 128.45 76.15 129.15 77 129.7 77.05 129.85 77.1 129.95 77.2 130.1 77.25 130.2 77.6 130.35 77.9 130.45 78 130.6 78.1 130.7 78.5 131.45 79.25 131.75 79.3 131.9 79.4 132 79.8384765625 132.7419921875 80.55 133.15 80.8931640625 133.3697265625 81.3 133.5 81.45 133.6 81.55 133.75 81.75 134 81.85 134.25 82.1 134.35 82.35 134.45 82.65 134.6 82.9 134.7 83 134.85 83.05 134.95 83.1 135.1 83.15 135.2 84.3 136 85.45 136.8 86.051953125 137.2248046875 86.55 137.7 86.795703125 137.895703125 87 138.1 87.1 138.1 87.2 138.15 87.6 138.25 88 138.3 88.1 138.45 88.25 138.6 88.3 138.7 88.4 138.8 88.6 138.95 88.85 139 90 139.45 91.2 139.95 94.45 142.3 98.25 143.55 123.2189453125 153.836328125 149.9 150.9 154.475 150.3927734375 159.1 149.5 160.25 149.3 161.5 149 168.35 147.25 175 144.65 182.672265625 142.092578125 189 137.7 194.6912109375 133.7625 199.3 128.35 199.45 128.2 199.6 128.1 200 127.85 200.45 127.6 200.55 127.45 200.65 127.35 201.15 126.5 201.6 125.6 201.65 125.5 201.7 125.4 202.5 124.75 202.95 123.85 203.45 122.85 204.3 122.2 204.35 122.05 204.4 121.95 204.55 121.6 204.5 121.2 205.2 120.45 205.65 119.45 206.2 118.25 207 117.25 207 117.15 207.05 117.05 207.05 116.9 207.1 116.8 207.2 116.65 207.3 116.55 207.85 115.85 208.35 115.05 208.35 114.95 208.35 114.8 208.35 114.45 208.35 114.1 208.4 113.95 208.5 113.85 208.75 113.6 209 113.35 209 113.2 209 113.1 209 112.85 209 112.6 209.55 111.8 209.7 110.9 209.95 109.55 209.95 108.2 210.05 108.05 210.15 107.95 210.2 107.8 210.3 107.7 210.35 107.55 210.35 107.45 210.4 106.85 210.4 106.2 210.4 106.1 210.4 105.95 210.4 105.85 210.5 105.75 210.55 105.6 210.65 105.45 210.65 100.05 211.1 94.65 211.25 92 210.85 89.4
M 196.2 72.95
Q 195.8 73.1 195.4 73.2 195.25 73.35 195.05 73.45 194.35 73.75 194.15 74.4 194.15 74.5 194.1 74.55 193.4 74.9 192.65 75.15 198.45 76.1 204.55 77 204.55 74.45 204.55 71.85 204.55 70.65 204.55 69.4 203.45 69.85 202.15 70.05 201.4 70.15 200.6 70.3 200.45 70.45 200.3 70.6 200.15 70.75 200 70.85 199.9 70.9 199.8 70.9 198.65 71.25 197.55 71.75 197.45 71.9 197.3 72 196.85 72.4 196.4 72.9 196.3 72.95 196.2 72.95
M 196.7 52.55
Q 196.7 52.4 196.65 52.3 195.6 53.7 194.65 55.2 193.65 56.8 192.4 58.25 192.1 58.4 191.85 58.6 191.75 58.7 191.7 58.85 194.05 59.9 197 61.15 197 60.95 197 60.8 197.15 59.05 196.7 57.45 196.7 56.55 196.7 55.7 196.7 54.1 196.7 52.55
M 176.35 101.25
Q 182.95 97.45 188.4 92.1 174.35 98.5 158.7 100.35 154.289453125 100.88046875 149.9 101.1 130.701171875 102.2416015625 111.9 98.05 106.35 96.8 101.3 94.25 98.75 92.95 96.3 92 96.05 91.7 95.9 91.4 95.8 91.3 95.7 91.2 95.15 91 94.45 90.75 94.4 90.65 94.35 90.55 94.25 90.45 94.15 90.35 93.15 89.95 92.05 89.75 91.05 88.9 89.9 88.25 89.65 88.15 89.6 88.3 94.05 99.5 105.35 104.55 113.5 108.15 122.2 110.05 129 111.55 135.95 111.8 143.0384765625 112.036328125 149.9 110.9 154.6546875 110.132421875 159.3 108.7 168.25 105.95 176.35 101.25 Z" stroke="none" fill="#EE9D33"></path>

<path d="M 178.65 32.85
Q 178.8 32.2 178.2 31.9 168.85 33.8 159.25 35.6 159.15 35.45 159.05 35.3 158.6 34.4 158.3 33.45 158.2 33.3 158.1 33.15 158.1 33 158.05 32.85 157.9 32.4 157.7 31.9 157.7 31.75 157.7 31.6 157.7 30.85 157.7 30.1 157.7 29.6 157.7 29.15 157.6 29 157.55 28.85 157.25 27.95 157.1 27 157.05 26.7 156.9 26.4 156.9 26.25 156.9 26.1 156.9 25.6 156.9 25.15 156.8 25 156.7 24.85 156.6 24.7 156.5 24.55 156.5 24.4 156.5 24.25 156.55 23.65 156.05 23.3 152.9712890625 24.5314453125 149.9 25.95 144.9904296875 28.2703125 140.1 31.1
L 140.1 31.15
Q 138.85 31.15 137.65 31.1 137.5 30.95 137.35 30.8 137.3 30.7 137.25 30.6 137.2 30.55 137.1 30.5 136.75 30.4 136.4 30.3 136.4 30.15 136.35 30 135.75 28.9 134.75 28.15 134.75 28 134.7 27.9 134.15 27.15 133.45 26.6 133.15 26 132.9 25.35 132.45 24 131.5 22.9 131.5 22.75 131.45 22.6 131.45 22.45 131.4 22.3 131.2 22 130.95 21.7 130.1 20.7 129.55 19.5 129.5 19.4 129.45 19.2 129.4 19.1 129.35 19.1 128.95 19.05 128.5 19.1 123.65 23.65 119.65 28.95 118.1 31 116.85 33.25 115.05 33.4 113.25 33.55 110.05 31.55 106.85 29.4 106.2 28.9 105.7 28.25 103.5 26.85 101.35 25.35 100.6 24.85 99.85 24.35 99.05 29.7 99.1 35.4 99.1384765625 38.6 99.15 41.8 99.15 42.75 99.15 43.7 99.15 44 99.15 44.3 89.99375 44.0734375 80.55 41.8 79.5765625 41.55703125 78.6 41.3 78.6 41.4 78.6 41.5
L 78.6 41.55
Q 78.6416015625 41.675 78.65 41.8 78.7208984375 41.975 78.75 42.15 78.85 42.3 78.95 42.45 79.2 42.8 79.45 43.1 79.9888671875 44.7166015625 80.55 46.3 81.446484375 48.897265625 82.4 51.45 83.65 54.65 85.5 57.5 85.55 57.65 85.6 57.85 85.6 58.3 85.6 58.75 85.6 58.9 85.6 59.05 83.1357421875 60.0021484375 80.55 60.8 73.9017578125 62.9400390625 66.45 64.2 66.55 64.35 66.7 64.45 66.8 64.55 66.85 64.65 67.35 64.65 67.85 64.75
L 67.85 64.85
Q 67.9 65.35 67.75 65.85 72.5 69.95 76.45 74.95 78 77 79.05 79.25 76.55 80.9 72.4 81.25 67.55 81.6 63.1 81.65 62.5 81.85 61.9 82.15 61.85 82.25 61.85 82.35 61.8 82.55 61.8 82.75 61.85 82.95 61.85 83.15 61.85 83.25 61.85 83.35 62.2 83.35 62.6 83.4
L 62.6 83.5
Q 62.6 83.65 62.6 83.75 62.6 84.65 62.6 85.5 62.6 85.75 62.6 86 62.65 86.1 62.7 86.2 62.75 86.35 62.85 86.45 62.85 86.6 62.85 86.75 62.95 86.9 63 87.1 63.05 87.25 63.1 87.4 63.1 87.55 63.1 87.75 63.1 88.5 63.1 89.25 63.1 89.55 63.1 89.9 64.05 91.6 64.65 93.55 65.25 95.65 66.35 97.55 66.35 97.7 66.4 97.85 66.4 98.15 66.45 98.5 67.35 99.05 67.8 100.05 68.45 101.45 69.55 102.45 69.6 102.65 69.6 102.8 69.65 102.95 69.65 103.1 74.2626953125 109.4890625 80.55 114.15 85.23515625 117.6021484375 90.85 120.1 119.209375 132.760546875 149.9 131.4 152.5416015625 131.271875 155.2 131.05 164.3 130.25 173 127.05 185.05 122.6 195.1 114.45 195.2 114.3 195.3 114.15 195.85 113.3 196.8 112.9 198 111.65 199 110.15 200 108.75 201.35 107.7 201.6 107.25 201.85 106.8 202.55 105.5 203.5 104.3 203.7 103 204.35 101.85 205.3 100.3 205.45 98.5 207.25 94.65 208.25 90.45 208.95 87.35 210.15 84.35 210.15 83.45 210.15 82.5 210.15 80.8 210.15 79.15 210.15 78.95 210.15 78.8 199.9 77.2 189.65 75.85 189.65 75.7 189.7 75.6 190.15 74.85 190.8 74.3 190.9 74.2 191 74.1 191.05 74.05 191.1 74.05 191.6 73.9 192.1 73.8 192.15 73.65 192.25 73.55 192.85 72.9 193.55 72.35 193.95 72.25 194.35 72.15 195.3 71.1 196.65 70.65 197.8 70.3 198.75 69.6 201.2 69.15 203.3 68 203.85 67.7 204.6 67.35 196.95 62.35 189.25 59.15 190.9 56.9 192.75 54.3 193.95 52.6 195.2 50.85 195.25 50.7 195.25 50.55 195.35 50.1 195.4 49.65 195.55 49.5 195.7 49.4 195.05 47.85 194.85 46.25 195.15 46.25 195.45 46.3 195.35 46.2 195.3 46.15
L 195.3 46.1
Q 194.15 45.9 193.15 45.35 186.05 45.1 179 44.8 179 43.3 179.05 41.8 179.0775390625 40.4 179.15 39 179.3 35.95 178.6 33.15 178.6 33 178.65 32.85
M 162.3 60.2
Q 166.8 59.65 170.85 61.2 172.4 61.8 173.45 62.95 173.5 63 173.6 63 173.75 63.05 173.9 63.1 174.1 63.15 174.3 63.2 174.35 63.3 174.45 63.4 175.1 64 175.75 64.65 176.1 65.05 176.5 65.35 176.55 65.45 176.6 65.55 176.6 65.65 176.65 65.75 176.65 65.95 176.65 66.15 176.8 66.25 176.85 66.4 176.9 66.45 176.9 66.55 176.9 66.75 176.9 66.95 177 67.05 177.05 67.15 177.1 67.25 177.2 67.35 177.2 67.45 177.2 67.55 177.2 67.75 177.2 67.95 177.2 68.25 177.2 68.5 177.2 68.6 177.2 68.7 177.15 68.8 177.1 68.9 176.85 69.7 176.25 70.45 175.55 71.35 174.6 72.05 165.6 75.1 156.7 73.15 153.6 72.45 152.4 69.55 152.3 69.45 152.2 69.35 152.1 69.25 152.05 69.15 151.8 68.9 151.6 68.6 151.6 68.5 151.6 68.4 151.6 67.9 151.6 67.4 151.6 66.9 151.6 66.4 151.6 66.05 151.6 65.65 151.7 65.55 151.75 65.45 151.8 65.35 151.85 65.25 151.9 65.15 151.95 65.05 153 63.95 154.3 63.15 158 60.8 162.3 60.2
M 192 87.85
Q 192.1 87.75 192.15 87.65 192.2 87.55 192.3 87.5 192.4 87.4 192.5 87.35
L 192.5 87.3
Q 193.5 87.4 194.45 87.6 194.5 87.6 194.5 87.7 194.5 87.8 194.45 87.9 194.4 88.3 194.1 88.55 193.8 88.8 193.5 89.1 193.45 89.2 193.45 89.3 193.4 89.4 193.35 89.5 193.35 89.6 193.3 89.7 193.2 89.8 193.1 89.85 192.6 90.15 192.25 90.55 191.9 91 191.45 91.45 191.45 91.55 191.4 91.65 191.35 91.75 191.3 91.85 191.25 91.95 191.2 92.05 184.45 98.8 176.05 103.35 166.75 108.45 156.45 110.85 153.218359375 111.6103515625 149.9 112 148.854296875 112.1162109375 147.8 112.2 126.45 113.9 106.25 106.65 96.05 102.95 90.55 94 89.15 91.8 87.7 89.6 87.7 89.5 87.7 89.4 87.65 89.25 87.65 89.05 87.65 88.95 87.65 88.85 87.65 88.75 87.65 88.65 87.6 88.55 87.55 88.45 87.45 88.25 87.4 88.05 87.4 87.95 87.4 87.85 87.35 87.75 87.3 87.65 87.25 87.55 87.15 87.45 87.15 87.35 87.15 87.25 87.15 87.05 87.15 86.85 87.15 86.75 87.15 86.65 87.15 86.55 87.15 86.5 87.2 86.4 87.25 86.35 88.5 86.4 89.7 86.4 90.25 87 91 87.35 92.5 88.05 93.9 89.05 94.05 89.1 94.2 89.1 95.45 89.2 96.35 89.95 96.45 90.05 96.55 90.15 96.75 90.2 96.9 90.25 97.25 90.35 97.55 90.4 97.65 90.5 97.75 90.6 97.9 90.8 98 91 98.1 91.1 98.15 91.2 98.2 91.25 98.3 91.3 98.75 91.4 99.2 91.45 108.25 97.25 118.95 98.95 134.398046875 101.4083984375 149.9 100.25 155.5212890625 99.8416015625 161.15 98.95 164 98.5 166.9 97.95 177.45 95.85 186.95 91.05 187.05 90.95 187.15 90.85 187.2 90.75 187.25 90.65 188.25 90.3 189.15 89.8 190.65 88.9 192 87.85
M 116.45 65.25
Q 116.55 65.35 116.7 65.45 116.75 65.55 116.8 65.65 116.85 65.75 116.9 65.85 116.9 65.95 116.95 66.05 117.05 66.15 117.15 66.25 117.25 66.3 117.35 66.4 117.5 66.5 117.6 66.6 117.65 66.7 117.75 66.8 117.75 66.9 117.8 67 117.85 67.1 117.85 67.2 117.9 67.4 117.95 67.6 117.95 67.7 117.95 67.8 117.95 67.9 117.95 68 117.95 68.1 118 68.15 118.05 68.3 118.1 68.4 118.15 68.5 118.2 68.6 118.2 68.7 118.2 68.8 118.2 68.9 118.2 69 118.2 69.15 118.2 69.35 118.2 69.45 118.2 69.55 118.2 69.65 118.2 69.75 118.2 70.05 118.2 70.35 118.2 70.45 118.2 70.55 118.15 70.65 118.1 70.75 118.05 70.85 118 70.95 117.95 71.05 117.95 71.15 117.95 71.25 117.95 71.35 117.95 71.45 117.95 71.55 117.95 71.65 117.95 71.75 117.9 71.85 117.85 71.9 117.8 72 117.75 72.1 117.5 72.4 117.25 72.75 117 73.15 116.6 73.5 116.2 73.85 115.85 74.2 107.5 76.9 98.75 75.2 94.1 74.25 91.45 70.5 91.35 70.4 91.2 70.3 91.1 70.2 91 70.1 90.95 70 90.85 69.9 90.85 69.8 90.8 69.7 90.8 69.6 90.8 69.5 90.8 69.3 90.8 69.1 90.8 69 90.8 68.9 90.8 68.8 90.8 68.7 90.8 68.4 90.8 68.15 90.8 68.05 90.8 67.95 91.4 66.25 92.75 65.15 97.55 61.3 103.65 61.05 108.05 60.85 112.15 62.3 113.45 62.8 114.65 63.55 114.75 63.65 114.85 63.75 114.9 63.85 115 63.95 115.05 64 115.15 64.05 115.2 64.1 115.3 64.15 115.5 64.2 115.65 64.25 115.7 64.35 115.75 64.45 115.85 64.55 115.9 64.65 116.05 64.85 116.25 65.05 116.35 65.15 116.45 65.25 Z" stroke="none" fill="#FDDF5E"></path>

<path d="M 113.55 64.85
Q 113.35 64.8 113.15 64.7 113.05 64.6 113 64.5 112.9 64.4 112.9 64.3 108.7 61.6 103.65 62.05 98.45 62.5 94.5 65.95 93.05 67.2 92.75 69 94.6 72.1 98.05 73.6 101.05 74.85 103.25 74.3 104.75 73.9 106.05 74.55 112.05 75.75 115.55 71.65 115.75 71.45 115.9 71.25 115.95 71.15 115.95 71.05 115.95 70.8 116 70.5 116.05 70.15 116.2 69.85 116.25 69.8 116.25 69.7 116.25 69.6 116.25 69.5 116.25 69.4 116.2 69.3 116.1 69.1 115.95 68.9 115.95 68.8 115.95 68.7 115.95 68.6 115.95 68.5 115.95 68.3 115.95 68.15 115.95 68.05 115.95 67.95 115.95 67.85 115.9 67.75 115.85 67.65 115.8 67.55 115.75 67.45 115.7 67.35 115.6 67.25 115.45 67.15 115.15 66.9 114.95 66.55 114.8 66.35 114.7 66.15 114.65 66.05 114.5 66 114.2 65.75 114 65.4 113.85 65.2 113.75 65 113.65 64.9 113.55 64.85
M 166.15 61.15
Q 165.51328125 61.058984375 164.85 60.95 164.46328125 60.939453125 164.05 60.9 163.737890625 60.947265625 163.4 61 159.488671875 61.720703125 156.15 63.9 154.8 64.75 153.7 65.95 153.55 66.45 153.55 66.95 153.6 67.45 153.6 67.95 153.8 68.2 154 68.5 154.2 68.7 154.35 68.9 154.75 70.2 155.85 71.15 156.5 71.7 157.25 72.25 157.4 72.3 157.5 72.4 165.2 73.7 172.7 71.35 173.75 70.6 174.5 69.5 174.65 69.25 174.9 69 174.9 68.8 175 68.6 175.05 68.4 175.15 68.2 175.1 67.8 175.05 67.4 175 67.05 174.7 66.8 174.7 66.7 174.7 66.6 174.7 66.5 174.65 66.4 174.65 66.3 174.6 66.25 173.9 65.25 172.85 64.5 172.55 64.3 172.45 63.95 172.25 63.85 172.05 63.8 171.85 63.75 171.6 63.65 169.3 61.6 166.15 61.15 Z" stroke="none" fill="#EBEEA6"></path>
</g>
</g>
</g>
</g>
</svg>
