
<svg viewBox="0 0 80 70" height="70px" width="80px" y="0px" x="0px" preserveAspectRatio="none" xmlns:xlink="http://www.w3.org/1999/xlink" version="1.1" xmlns="http://www.w3.org/2000/svg">
<defs></defs>

<g id="Layer_2">
<g transform="matrix( 0.2443389892578125, 0, 0, 0.2443389892578125, -5.6,-13.9)" id="Layer_1">
<g>
<g>
<g>
<path d="M 256 305
Q 255.5 305 255 305 251.5 305 248 305 250.75 306.75 255.9 305.55 256 305.5 256 305 Z" stroke="none" fill="#445E67"></path>

<path d="M 181 301.05
Q 181.5 301 182 301 182 300.5 182 300 182 299.5 182 299 181.5 299 181 299 172.5 299 164 299 170.05 302.45 181 301.05 Z" stroke="none" fill="#6E6F60"></path>

<path d="M 189 301
Q 189.5 301 190 301 190 300.5 189.9 300.45 186 299.5 182 299 182 299.5 182 300 182 300.5 182 301 186.45 302 188.1 301.2 188.5 301 189 301 Z" stroke="none" fill="#7D6A53"></path>

<path d="M 199.8 302.35
Q 196.25 300.25 190 301 189.5 301 189 301 191.8 304.2 199 303.1 199.5 303 200 303 200 302.5 199.8 302.35 Z" stroke="none" fill="#6D6F61"></path>

<path d="M 232 327
Q 232 326.5 231.85 326.05 230.95 323.05 229 321 229.2 324.8 231.25 326.75 231.5 327 232 327 Z" stroke="none" fill="#2F4951"></path>

<path d="M 213 312
Q 213 311.5 213 311 213 310 213 309 212.5 309 212 309 212 314 212.5 318.95 212.5 319 213 319 213 318.5 213 318 213 315 213 312 Z" stroke="none" fill="#253E45"></path>

<path d="M 213 308
Q 213 308.5 213 309 213 310 213 311 213 311.5 213 312 215.95 309.85 214.2 305.9 214 305.5 214 305 213.5 305 213 305 213 306.5 213 308 Z" stroke="none" fill="#08212C"></path>

<path d="M 230 303
Q 229.5 303 229 303 229 306.5 229 310 229 310.5 229 311 230.75 308.75 230.05 304 230 303.5 230 303 Z" stroke="none" fill="#374B4F"></path>

<path d="M 229 303
Q 228.5 303 228 303 221.45 303.05 214 304 214 304.5 214 305 214 305.5 214.2 305.9 215.95 309.85 213 312 213 315 213 318 213 318.5 213 319 215.2 338.8 235 340.95 235.5 341 236 341 239.6 333.45 232.25 327.7 232 327.5 232 327 231.5 327 231.25 326.75 229.2 324.8 229 321 229 320.5 228.8 320.1 227.45 317.1 228 312 228.5 312 228.75 311.75 229 311.5 229 311 229 310.5 229 310 229 306.5 229 303
M 221.95 310
Q 222 309.5 222 309 226.2 317.3 223.15 328.05 223 328.5 223 329 221.25 320.75 221.95 310 Z" stroke="none" fill="#020E17"></path>

<path d="M 222 309
Q 222 309.5 221.95 310 221.25 320.75 223 329 223 328.5 223.15 328.05 226.2 317.3 222 309 Z" stroke="none" fill="#030302"></path>

<path d="M 226.05 299.8
Q 226.5 300 227 300 227 299.5 226.8 299.4 223.15 297.4 217 298 217 298.5 217 299 222.6 298.4 226.05 299.8 Z" stroke="none" fill="#6E4111"></path>

<path d="M 229 303
L 229 302.5
Q 226.35 302.65 227 300 226.5 300 226.05 299.8 222.6 298.4 217 299 216.5 299 216.4 299.2 215.5 301 214 302 214 302.5 214 303 214 303.5 214 304 221.45 303.05 228 303 228.5 303 229 303 Z" stroke="none" fill="#230901"></path>

<path d="M 239 303
Q 239.5 303 240 303 240 302.5 240 302 240 301.5 240 301
L 239.5 301
Q 239.65 298.9 238 299 238 299.5 238.05 300 238.15 301.65 236 301 236 301.5 236 302 236 302.5 236 303 237.5 303 239 303 Z" stroke="none" fill="#6C5B42"></path>

<path d="M 242 292
Q 240 292 238 292 238 292.5 238 293 238 293.5 238 294 238 294.5 238 295 241.5 294.3 242.75 292.8 243 292.5 243 292 242.5 292 242 292 Z" stroke="none" fill="#5F3E03"></path>

<path d="M 230 292
Q 230 292.5 230 293 233.5 293 237 293 237.5 293 238 293 238 292.5 238 292 237.5 292 237 292 233.5 292 230 292 Z" stroke="none" fill="#B38A2E"></path>

<path d="M 221.95 291.5
Q 217 291 212 291 215.25 292.75 221 292.05 221.5 292 222 292 222 291.5 221.95 291.5 Z" stroke="none" fill="#BE8A22"></path>

<path d="M 199 290
Q 199 289.5 198.95 289.5 195 289 191 289 193.25 290.75 198 290.05 198.5 290 199 290 Z" stroke="none" fill="#C9932D"></path>

<path d="M 286 263
Q 285.5 263 285.1 263.2 284.5 263.5 284 264 284 265.5 284 267 284 267.5 284 268 286.55 267.55 286.05 264 286 263.5 286 263 Z" stroke="none" fill="#706E5E"></path>

<path d="M 288 253
Q 287.5 253 287 253 286.5 253 286 253 286.8 256.05 286.05 262 286 262.5 286 263 288.9 260.4 288.05 254 288 253.5 288 253 Z" stroke="none" fill="#736D5C"></path>

<path d="M 280 277
Q 282.95 277.45 282.1 273.95 282 273.5 282 273 281.5 273 281 273 280.5 273 280 273 280 274.5 280 276 280 276.5 280 277 Z" stroke="none" fill="#6C7062"></path>

<path d="M 280 277
Q 279.5 277 279.35 277.25 275.25 283.75 268 287 268 288 268 289 268 289.5 268 290 277.3 287.3 279.85 277.95 280 277.5 280 277 Z" stroke="none" fill="#6E6E5F"></path>

<path d="M 258 294
Q 258 294.5 257.8 294.6 247.8 299.3 240 301 240 301.5 240 302 240 302.5 240 303 242.3 305.2 247 305 247.5 305 248 305 251.5 305 255 305 255.5 305 256 305 268.15 304.15 268 291 268 290.5 268 290 268 289.5 268 289 268 288 268 287 268 286.5 268 286 268 283.5 268 281 268 280.5 267.75 280.2 258.65 269.4 258 294 Z" stroke="none" fill="#080B0D"></path>

<path d="M 253.85 287.95
Q 254 287.5 254 287 253.5 287 253.2 287.25 249.3 290.3 243 291 243 291.5 243 292 252.2 293.7 253.85 287.95 Z" stroke="none" fill="#735713"></path>

<path d="M 265 265
Q 265.5 265 266 265 266 264.5 265.95 264.5 262 264 258 264 258 264.5 258 265 261.5 265 265 265 Z" stroke="none" fill="#967514"></path>

<path d="M 267 266
Q 267 265.5 266.75 265.25 266.5 265 266 265 265.5 265 265 265 261.5 265 258 265 258 265.5 257.75 265.8 254.55 269.55 254 276 254 281 254 286 254 286.5 254 287 254 287.5 253.85 287.95 252.2 293.7 243 292 243 292.5 242.75 292.8 241.5 294.3 238 295 238 296.5 238 298 238 298.5 238 299 239.65 298.9 239.5 301
L 240 301
Q 247.8 299.3 257.8 294.6 258 294.5 258 294 258.65 269.4 267.75 280.2 268 280.5 268 281 268.5 281 268.55 280.85 271.7 272.2 267 266 Z" stroke="none" fill="#240801"></path>

<path d="M 276 258
Q 275.5 258 275.5 258.05 274.75 264.75 271 268 271 268.5 271 269 276.35 265.85 276.5 258
L 276 258 Z" stroke="none" fill="#A4710E"></path>

<path d="M 277 237
Q 277 237.5 277.05 238 277.75 246.25 276 252 276 254 276 256 276 256.5 276 257 279.45 249.45 277.5 237.1 277.5 237 277 237 Z" stroke="none" fill="#A56B09"></path>

<path d="M 279 228
Q 279 225.5 279 223 278.5 223 278 223 278 229 278 235 278 235.5 278 236 279.7 234.2 279.05 230 279 229.5 279 229 279 228.5 279 228 Z" stroke="none" fill="#BD7E29"></path>

<path d="M 280.5 215
L 280 215
Q 279.5 215 279 215 279 218.5 279 222 279 222.5 279 223 279 225.5 279 228 279 228.5 279 229 280.05 222.05 280.5 215 Z" stroke="none" fill="#A46A04"></path>

<path d="M 280 206
Q 279.5 206 279 206 279 210 279 214 279 214.5 279 215 279.5 215 280 215 280 214.5 280 214 280 213.5 280 213 280 212.5 280 212 280 209.5 280 207 280 206.5 280 206 Z" stroke="none" fill="#CC912E"></path>

<path d="M 281 199
Q 280.5 199 280 199 280 202 280 205 280 205.5 280 206 280 206.5 280 207 281.75 204.75 281.05 200 281 199.5 281 199 Z" stroke="none" fill="#B77723"></path>

<path d="M 290 237
Q 289.5 237 289.1 237.2 288.5 237.5 288 238 288 244.5 288 251 288 251.5 288 252 290.7 246.5 290.05 238 290 237.5 290 237 Z" stroke="none" fill="#627269"></path>

<path d="M 289 232
Q 288.5 232 288 232 289.5 234.05 288.2 237.1 288 237.5 288 238 288.5 237.5 289.1 237.2 289.5 237 290 237 290 236.5 290 236 290 234.5 290 233 290 232.5 290 232 289.5 232 289 232 Z" stroke="none" fill="#806A53"></path>

<path d="M 290 209
Q 293.25 208.25 292.1 203 292 202.5 292 202
L 291.5 202
Q 291.7 205.7 290 207 290 207.5 290 208 290 208.5 290 209
M 112 66
Q 112 66.5 112 67 123 67 134 67 134.5 67 135 67 135 66.5 134.9 66.45 123.5 63.55 112 66 Z" stroke="none" fill="#6A6350"></path>

<path d="M 114.5 317.95
Q 114.5 318 115 318 115 317.5 115 317 115 313 115 309 114.5 309 114 309 114 313.5 114.5 317.95 Z" stroke="none" fill="#092F3A"></path>

<path d="M 122 335
Q 122 334.5 121.8 334.1 120.1 330.4 118 327 117.25 333.25 121.05 334.8 121.5 335 122 335 Z" stroke="none" fill="#465E5E"></path>

<path d="M 144 297
Q 144 297.5 144 298 144 298.5 144 299 153.5 299 163 299 163.5 299 164 299 164 298.5 163.9 298.45 155.15 296.35 144 297 Z" stroke="none" fill="#706E5D"></path>

<path d="M 63 263
Q 63 264.5 63 266 63 266.5 63 267 64.45 268.55 67 268.95 67.5 269 68 269 68 268.5 67.75 268.15 66 265.5 64 263 63.5 263 63 263 Z" stroke="none" fill="#627167"></path>

<path d="M 64 258
Q 63.5 258 63 258 63 258.5 63 259 63 259.5 62.8 259.9 62.5 260.5 62 261 62 264 62 267 62 267.5 62 268 62.5 268 62.75 267.75 63 267.5 63 267 63 266.5 63 266 63 264.5 63 263 63.5 263 64 263 64 262.5 64 262 64 260 64 258 Z" stroke="none" fill="#535D55"></path>

<path d="M 63 259
Q 62.5 259 62.25 258.75 58.6 254.75 55 248 54.5 248 54.4 248.2 50.3 255.8 47 264 50.5 279.1 61.75 268.75 62 268.5 62 268 62 267.5 62 267 62 264 62 261 62.5 260.5 62.8 259.9 63 259.5 63 259
M 58.25 265.8
Q 58 265.5 58 265 62.9 271.8 58.25 265.8 Z" stroke="none" fill="#02111E"></path>

<path d="M 58 265
Q 58 265.5 58.25 265.8 62.9 271.8 58 265 Z" stroke="none" fill="#070612"></path>

<path d="M 74 256
Q 74 256.5 74 257 75.35 258.65 76.4 260.8 76.5 261 77 261 77 260.5 76.9 260 76.1 256.45 74 254 74 255 74 256 Z" stroke="none" fill="#D19732"></path>

<path d="M 71.35 247.2
Q 71.5 247 72 247 72 246.5 72 246 72.5 246 72.75 245.75 73 245.5 73 245 72.5 245 72.15 245.25 70.7 246.25 68 246 68 247.5 68 249 68 249.5 68 250 70.15 249.15 71.35 247.2 Z" stroke="none" fill="#4B2B07"></path>

<path d="M 75.8 244.1
Q 75.5 243.5 75 243 75 243.5 74.75 243.75 74 244.5 73 245 73 245.5 72.75 245.75 72.5 246 72 246 72 246.5 72 247 75.2 247.7 75.85 245.95 76 245.5 76 245 76 244.5 75.8 244.1 Z" stroke="none" fill="#CBB269"></path>

<path d="M 75.75 238.75
Q 75.5 239 75 239 75 240.5 75 242 75 242.5 75 243 75.5 243.5 75.8 244.1 76 244.5 76 245 76.5 245 76.65 244.8 79.15 240.6 76 238 76 238.5 75.75 238.75 Z" stroke="none" fill="#D5B735"></path>

<path d="M 75 239
Q 75.5 239 75.75 238.75 76 238.5 76 238 75.5 238 75.45 237.85 74.7 235.8 72 236 72 236.5 72 237 71.25 241.75 72.8 244.15 73 244.5 73 245 74 244.5 74.75 243.75 75 243.5 75 243 75 242.5 75 242 75 240.5 75 239 Z" stroke="none" fill="#3D1F02"></path>

<path d="M 62 238
Q 62 238.5 62 239 65.75 239.3 71.05 237.15 71.5 237 72 237 72 236.5 72 236 71.5 236 71 235.95 64.7 235.2 62 238 Z" stroke="none" fill="#421801"></path>

<path d="M 72 227
Q 71.5 227 71 227 71 228.5 71 230 71 230.5 71 231 71 233 71.45 234.9 71.5 235 72 235 72 234.5 72.1 234.05 72.65 232 72 227 Z" stroke="none" fill="#DBAB54"></path>

<path d="M 55 246
Q 55 246.5 55 247 55 247.5 55 248 59.35 248.65 60.5 242
L 60 242
Q 59.5 242 59.35 242.2 58.15 244.15 56 245 56 245.5 55.75 245.75 55.5 246 55 246 Z" stroke="none" fill="#08121C"></path>

<path d="M 60 240
Q 60 240.5 60 241 60 241.5 60 242
L 60.5 242
Q 59.35 248.65 55 248 58.6 254.75 62.25 258.75 62.5 259 63 259 63 258.5 63 258 63.5 258 64 258 64 257.5 64 257 64 256.5 64 256 66.75 255.25 66.5 251
L 67 251
Q 67 250.5 67 250 67.5 250 68 250 68 249.5 68 249 68 247.5 68 246 70.7 246.25 72.15 245.25 72.5 245 73 245 73 244.5 72.8 244.15 71.25 241.75 72 237 71.5 237 71.05 237.15 65.75 239.3 62 239 61.5 239 61 239 61 239.5 60.75 239.75 60.5 240 60 240 Z" stroke="none" fill="#100607"></path>

<path d="M 60 240
Q 59.5 240 59.35 240.2 58.15 242.15 56 243 56 243.5 56 244 56 244.5 56 245 58.15 244.15 59.35 242.2 59.5 242 60 242 60 241.5 60 241 60 240.5 60 240 Z" stroke="none" fill="#374A4E"></path>

<path d="M 71 221
Q 70.5 221 70 221 70 226 70.5 230.95 70.5 231 71 231 71 230.5 71 230 71 228.5 71 227 71 226.5 71 226 71 223.5 71 221 Z" stroke="none" fill="#A26307"></path>

<path d="M 72 215
Q 71.5 215 71 215 71 217.5 71 220 71 220.5 71 221 71 223.5 71 226 71 226.5 71 227 71.5 227 72 227 72 226.5 72 226 72 225 72 224 72 223.5 72 223 72 219 72 215 Z" stroke="none" fill="#BD7E2B"></path>

<path d="M 73 211
Q 72.5 211 72 211 72 212.5 72 214 72 214.5 72 215 72 219 72 223 72 223.5 72 224 77.85 224.05 73.25 219.75 73 219.5 73 219 73 215.5 73 212 73 211.5 73 211 Z" stroke="none" fill="#EEB43F"></path>

<path d="M 62 207
L 61.5 207
Q 61.65 209.15 60 209 60 215.5 60 222 60 222.5 60 223 63.45 217.95 62.05 208 62 207.5 62 207 Z" stroke="none" fill="#726D5C"></path>

<path d="M 123.75 296.2
Q 122.2 294.25 118 295 118.3 298.2 123 297.1 123.5 297 124 297 124 296.5 123.75 296.2 Z" stroke="none" fill="#5D726B"></path>

<path d="M 143.85 296.05
Q 143.2 293.8 140 294 141 295 141.75 296.15 142 296.5 142 297 143.7 297.3 143.1 300 143 300.5 143 301 143.5 300.5 143.8 299.9 144 299.5 144 299 144 298.5 144 298 144 297.5 144 297 144 296.5 143.85 296.05 Z" stroke="none" fill="#54432B"></path>

<path d="M 127 295
Q 127 295.5 127 296 133.1 296.15 141 296.95 141.5 297 142 297 142 296.5 141.75 296.15 141 295 140 294 139.5 294 139.05 293.85 133.75 291.75 128 294 128 294.5 127.75 294.75 127.5 295 127 295 Z" stroke="none" fill="#2D1201"></path>

<path d="M 127 296
Q 126.5 296 126.1 296.2 125.5 296.5 125 297 125 297.5 124.75 297.75 119.7 302.7 115 308 115 308.5 115 309 115 313 115 317 115 317.5 115 318 115.9 322.6 117.8 326.1 118 326.5 118 327 120.1 330.4 121.8 334.1 122 334.5 122 335 130.75 346.25 139.75 335.8 140 335.5 140 335 139.5 328.5 133.95 327.1 133.5 327 133 327 131.4 321.6 130.1 315.95 130 315.5 130 315 133.6 305.6 142.8 301.6 143 301.5 143 301 143 300.5 143.1 300 143.7 297.3 142 297 141.5 297 141 296.95 133.1 296.15 127 296 Z" stroke="none" fill="#030D16"></path>

<path d="M 82 268
Q 82 268.5 82 269 88.85 281.2 104.9 284.5 105 284.5 105 285 125.55 289.45 142 287.05 142.5 287 143 287 179.6 291.5 229 293 229.5 293 230 293 230 292.5 230 292 229.5 292 229 292 225.5 292 222 292 221.5 292 221 292.05 215.25 292.75 212 291 211.5 291 211 290.9 205.55 289.95 199 290 198.5 290 198 290.05 193.25 290.75 191 289 190.5 289 190 289 123.65 290.85 82 268 Z" stroke="none" fill="#A46C07"></path>

<path d="M 81.15 268.75
Q 81.5 269 82 269 82 268.5 82 268 82 267.5 81.75 267.2 79.4 264.1 77 261 76.5 261 76.4 260.8 75.35 258.65 74 257 73.5 257 73 257 75.25 264.75 81.15 268.75 Z" stroke="none" fill="#A46A08"></path>

<path d="M 93.8 288.4
Q 94 288.5 94 289 109.2 292.8 128 293.5
L 128 294
Q 133.75 291.75 139.05 293.85 139.5 294 140 294 143.2 293.8 143.85 296.05 144 296.5 144 297 155.15 296.35 163.9 298.45 164 298.5 164 299 172.5 299 181 299 181.5 299 182 299 186 299.5 189.9 300.45 190 300.5 190 301 196.25 300.25 199.8 302.35 200 302.5 200 303 210.7 301.65 212.4 304.8 212.5 305 213 305 213.5 305 214 305 214 304.5 214 304 214 303.5 214 303 214 302.5 214 302 215.5 301 216.4 299.2 216.5 299 217 299 217 298.5 217 298 223.15 297.4 226.8 299.4 227 299.5 227 300 226.35 302.65 229 302.5
L 229 303
Q 229.5 303 230 303 232.5 303 235 303 235.5 303 236 303 236 302.5 236 302 236 301.5 236 301 238.15 301.65 238.05 300 238 299.5 238 299 238 298.5 238 298 238 296.5 238 295 238 294.5 238 294 238 293.5 238 293 237.5 293 237 293 233.5 293 230 293 229.5 293 229 293 179.6 291.5 143 287 142.5 287 142 287.05 125.55 289.45 105 285 105 284.5 104.9 284.5 88.85 281.2 82 269 81.5 269 81.15 268.75 75.25 264.75 73 257 73.5 257 74 257 74 256.5 74 256 74 255 74 254 74 253.5 73.75 253.3 71.55 251.45 72 247 71.5 247 71.35 247.2 70.15 249.15 68 250 67.5 250 67 250 67 250.5 67 251 67.5 251 67.55 251.15 69.2 255.7 66 256 71.4 277 93.8 288.4 Z" stroke="none" fill="#9C6129"></path>

<path d="M 94 289
Q 94 288.5 93.8 288.4 71.4 277 66 256 69.2 255.7 67.55 251.15 67.5 251 67 251
L 66.5 251
Q 66.75 255.25 64 256 64 256.5 64 257 64 257.5 64 258 64 260 64 262 64 262.5 64 263 66 265.5 67.75 268.15 68 268.5 68 269 70.55 275.95 75.75 280.3 76 280.5 76 281 90.15 294.35 117 295 117.5 295 118 295 122.2 294.25 123.75 296.2 124 296.5 124 297 124.5 297 125 297 125.5 296.5 126.1 296.2 126.5 296 127 296 127 295.5 127 295 127.5 295 127.75 294.75 128 294.5 128 294
L 128 293.5
Q 109.2 292.8 94 289 Z" stroke="none" fill="#7E6950"></path>

<path d="M 83.8 100.9
Q 84 100.5 84 100 84 99.5 84 99 83.5 99 83 99 82.5 99 82 99 82 101.5 82.5 103.9 82.5 104 83 104 83 103.5 83 103 83 102.5 83 102 83.5 101.5 83.8 100.9 Z" stroke="none" fill="#A56905"></path>

<path d="M 73 197
Q 72.5 197 72 197 72 203.5 72 210 72 210.5 72 211 72.5 211 73 211 73 210.5 73 210 73 206.5 73 203 73 202.5 73 202 73 199.5 73 197 Z" stroke="none" fill="#AC720D"></path>

<path d="M 74 195
Q 73.5 195 73 195 73 195.5 73 196 73 196.5 73 197 73 199.5 73 202 73 202.5 73 203 74.75 200.75 74.05 196 74 195.5 74 195 Z" stroke="none" fill="#D1943F"></path>

<path d="M 74 188
Q 74 187.5 74 187 73.5 187 73 187 73 190.5 73 194 73 194.5 73 195 73.5 195 74 195 74 194.5 74 194 74 191 74 188 Z" stroke="none" fill="#B67B28"></path>

<path d="M 64 177
L 63.5 177
Q 63.75 183.25 62 187 62 188.5 62 190 62 190.5 62 191 65.45 186.95 64.05 178 64 177.5 64 177 Z" stroke="none" fill="#69685A"></path>

<path d="M 75.05 180
Q 75 179.5 75 179 74.5 179 74 179 74 182.5 74 186 74 186.5 74 187 74 187.5 74 188 75.75 185.25 75.05 180 Z" stroke="none" fill="#D09436"></path>

<path d="M 75 167
Q 74.5 167 74 167 74 172.5 74 178 74 178.5 74 179 74.5 179 75 179 75 178.5 75 178 75 177.5 75 177 75 172 75 167 Z" stroke="none" fill="#A86913"></path>

<path d="M 76.05 168
Q 76 167.5 76 167 75.5 167 75 167 75 172 75 177 75 177.5 75 178 76.75 174.25 76.05 168 Z" stroke="none" fill="#DDA04D"></path>

<path d="M 77.05 152
Q 77 151.5 77 151 76.5 151 76 151 76 154.5 76 158 76 158.5 76 159 77.75 156.75 77.05 152 Z" stroke="none" fill="#C98D2F"></path>

<path d="M 77 143
Q 76.5 143 76 143 76 146.5 76 150 76 150.5 76 151 76.5 151 77 151 77 150.5 77 150 77 146.5 77 143 Z" stroke="none" fill="#A96917"></path>

<path d="M 78.05 144
Q 78 143.5 78 143 77.5 143 77 143 77 146.5 77 150 77 150.5 77 151 78.75 148.75 78.05 144 Z" stroke="none" fill="#E8A855"></path>

<path d="M 79.05 130
Q 79 129.5 79 129 78.5 129 78 129 78 131.5 78 134 78 134.5 78 135 78 137 78 139 78 139.5 78 140 79.75 136.25 79.05 130 Z" stroke="none" fill="#DBA337"></path>

<path d="M 78 135
Q 77.5 135 77 135 77 138.5 77 142 77 142.5 77 143 77.5 143 78 143 78 142.5 78 142 78 141 78 140 78 139.5 78 139 78 137 78 135 Z" stroke="none" fill="#B87927"></path>

<path d="M 80 112
Q 79.5 112 79 112 79 116 79 120 79 120.5 79 121 80.75 118.25 80.05 113 80 112.5 80 112 Z" stroke="none" fill="#CE9039"></path>

<path d="M 79 121
Q 78.5 121 78 121 78 124.5 78 128 78 128.5 78 129 78.5 129 79 129 79 128.5 79 128 79 124.5 79 121 Z" stroke="none" fill="#B9801D"></path>

<path d="M 68 121
Q 67.5 121 67 121 66.5 121 66 121 66 131.5 66 142 66 142.5 66 143 69.15 135.8 68.05 122 68 121.5 68 121 Z" stroke="none" fill="#66624E"></path>

<path d="M 79 109
Q 79.5 109.5 79.8 110.1 80 110.5 80 111 81.25 108.75 81.9 106 82 105.5 82 105 81.5 105 81.3 105.25 80 107 79 109 Z" stroke="none" fill="#AE7013"></path>

<path d="M 80 111
Q 79.5 111 79 111 78.5 111 78 111 78 115.5 78 120 78 120.5 78 121 78.5 121 79 121 79 120.5 79 120 79 116 79 112 79.5 112 80 112 80 111.5 80 111 Z" stroke="none" fill="#A36604"></path>

<path d="M 73 97
Q 72.5 97 72 97 72 98.5 72 100 72 100.5 72 101 74.9 101.45 74.1 97.95 74 97.5 74 97 73.5 97 73 97 Z" stroke="none" fill="#6A6351"></path>

<path d="M 79.95 88
Q 80 87.5 80 87 79.5 87 79.35 87.2 78 89.5 76 91 76 91.5 76 92 76 92.5 76 93 79.55 92.05 79.95 88 Z" stroke="none" fill="#686352"></path>

<path d="M 156 79
Q 156 78.5 155.95 78.5 152 78 148 78 150.25 79.75 155 79.05 155.5 79 156 79 Z" stroke="none" fill="#BA802A"></path>

<path d="M 161 80
Q 161 79.5 161 79 161.5 79 162 79 162 78.5 161.9 78.45 153.25 76.25 142 77 142 77.5 142 78 144.5 78 147 78 147.5 78 148 78 152 78 155.95 78.5 156 78.5 156 79 158.7 78.8 160.15 79.75 160.5 80 161 80 Z" stroke="none" fill="#A06704"></path>

<path d="M 148 67
Q 152.1 70.45 161 69.05 161.5 69 162 69 162 68.5 161.85 68.45 156.25 66.25 148 67 Z" stroke="none" fill="#656456"></path>

<path d="M 112.85 77.55
Q 113 77.5 113 77 112.5 77 112 76.95 107.75 76.75 106 79 106 79.5 106 80 109.15 78.65 112.85 77.55 Z" stroke="none" fill="#B17419"></path>

<path d="M 120 75
Q 120 75.5 120 76 125.5 76 130.95 76.5 131 76.5 131 77 132 77 133 77 133.5 77 134 77 134 76.5 133.85 76.45 128.2 74.3 120 75 Z" stroke="none" fill="#A36609"></path>

<path d="M 119 76
Q 118.5 76 118 76 117.5 76 117 76 117 76.5 117 77 123.5 77 130 77 130.5 77 131 77 131 76.5 130.95 76.5 125.5 76 120 76 119.5 76 119 76 Z" stroke="none" fill="#C68934"></path>

<path d="M 118 76
Q 118.5 76 119 76 119 75.5 118.9 75.45 115.05 74.55 113 76 113 76.5 113 77 114.5 77 116 77 116.5 77 117 77 117 76.5 117 76 117.5 76 118 76 Z" stroke="none" fill="#A66A14"></path>

<path d="M 88 91
Q 88 92 88 93 88 93.5 88 94 95.4 85.9 105.15 80.2 105.5 80 106 80 106 79.5 106 79 105.5 79 105.05 79.2 94.9 83.4 88 91 Z" stroke="none" fill="#A86D0D"></path>

<path d="M 86.8 95.9
Q 87 95.5 87 95 87 94.5 86.9 94.05 86.7 93.3 84 95 84 96.5 84 98 84 98.5 84 99 84 99.5 84 100 85.75 98.25 86.8 95.9 Z" stroke="none" fill="#A96D0E"></path>

<path d="M 96 71
Q 96 71.5 96 72 96 72.5 96 73 99.2 73.7 99.85 71.95 100 71.5 100 71 99.5 71 99 71 97.5 71 96 71 Z" stroke="none" fill="#5C6253"></path>

<path d="M 104 69
Q 103.5 69 103 69 101.5 69 100 69 100 69.5 100 70 100 70.5 100 71 103.2 71.7 103.85 69.95 104 69.5 104 69 Z" stroke="none" fill="#626252"></path>

<path d="M 294 175
Q 293.5 175 293 175 292.5 175 292 175 292 181.5 292 188 292 188.5 292 189 295.45 184.95 294.05 176 294 175.5 294 175 Z" stroke="none" fill="#646252"></path>

<path d="M 281 191
Q 280.5 191 280 191 280 194.5 280 198 280 198.5 280 199 280.5 199 281 199 281 198.5 281 198 281 194.5 281 191 Z" stroke="none" fill="#D6983B"></path>

<path d="M 282.05 192
Q 282 191.5 282 191 281.5 191 281 191 281 194.5 281 198 281 198.5 281 199 281 199.5 281.05 200 281.75 204.75 280 207 280 209.5 280 212 280 212.5 280 213 283.45 204.95 282.05 192 Z" stroke="none" fill="#A26406"></path>

<path d="M 282 183
Q 281.5 183 281 183 281 186.5 281 190 281 190.5 281 191 281.5 191 282 191 282 190.5 282 190 282 186.5 282 183 Z" stroke="none" fill="#B67817"></path>

<path d="M 283.05 168
Q 283 167.5 283 167 282.5 167 282 167 282 170.5 282 174 282 174.5 282 175 283.75 172.75 283.05 168 Z" stroke="none" fill="#D19337"></path>

<path d="M 283 158
Q 283 158.5 283 159 283.5 159 284 159 284 158.5 284 158 284 154.5 284 151 283.5 151 283 151 283 154.5 283 158 Z" stroke="none" fill="#D09331"></path>

<path d="M 283 159
Q 283 162.5 283 166 283 166.5 283 167 283 167.5 283.05 168 283.75 172.75 282 175 282 177.5 282 180 282 180.5 282 181 285.4 177.75 284.05 160 284 159.5 284 159 283.5 159 283 159 Z" stroke="none" fill="#A66B08"></path>

<path d="M 278 106
Q 278 106.5 278 107 279.8 109.7 281.4 112.8 281.5 113 282 113 282 112.5 282.2 112.05 284.45 106.55 278 105 278 105.5 278 106 Z" stroke="none" fill="#AE6E19"></path>

<path d="M 278 105
L 277.5 105
Q 277.95 101.6 275 102 275.55 104.95 277.25 106.75 277.5 107 278 107 278 106.5 278 106 278 105.5 278 105 Z" stroke="none" fill="#C28428"></path>

<path d="M 296 143
L 295.5 143
Q 295.75 148.25 294 151 294 155.5 294 160 294 160.5 294 161 297.45 154.95 296.05 144 296 143.5 296 143 Z" stroke="none" fill="#6A604D"></path>

<path d="M 286 143
Q 285.5 143 285 143 285 146.5 285 150 285 150.5 285 151 286.15 160.85 286 144 286 143.5 286 143 Z" stroke="none" fill="#A26008"></path>

<path d="M 285 143
Q 284.5 143 284 143 284 146.5 284 150 284 150.5 284 151 284.5 151 285 151 285 150.5 285 150 285 146.5 285 143 Z" stroke="none" fill="#B77727"></path>

<path d="M 285 128
Q 285 128.5 285 129 285 135.5 285 142 285 142.5 285 143 285.5 143 286 143 286 142.5 286.05 142 286.75 132.25 285 125 285 126.5 285 128 Z" stroke="none" fill="#B4761B"></path>

<path d="M 285 129
Q 284.5 129 284 129 284 135.5 284 142 284 142.5 284 143 284.5 143 285 143 285 142.5 285 142 285 135.5 285 129 Z" stroke="none" fill="#E5A552"></path>

<path d="M 285 125
Q 285 124.5 285.05 124 285.45 118.6 283 116 283.7 120.3 284.5 124.9 284.5 125 285 125 Z" stroke="none" fill="#C88A32"></path>

<path d="M 225 85.05
Q 225.5 85 226 85 226 84.5 225.95 84.5 222 84 218 84 220.25 85.75 225 85.05 Z" stroke="none" fill="#C48A2F"></path>

<path d="M 234 75
Q 234 74.5 233.85 74.45 227.25 72.25 218 73 224.45 75.05 233 75 233.5 75 234 75 Z" stroke="none" fill="#656252"></path>

<path d="M 217 84
Q 217 83.5 217 83 216.5 83 216 83 215 83 214 83 213.5 83 213 83 210 83 207 83 206.5 83 206 83 205.5 83 205 83 209.25 84.75 216 84.05 216.5 84 217 84 Z" stroke="none" fill="#BD841D"></path>

<path d="M 217 82
Q 217 82.5 217 83 217 83.5 217 84 217.5 84 218 84 222 84 225.95 84.5 226 84.5 226 85 229.75 85.25 233 85.9 233.5 86 234 86 234 85.5 234 85 234 84.5 233.9 84.5 225.4 83.05 217 82
M 186 81
Q 186 80.5 185.9 80.5 175.2 78.3 162 79 161.5 79 161 79 161 79.5 161 80 172.9 80.1 184 80.95 184.5 81 185 81 185.5 81 186 81 Z" stroke="none" fill="#AA6D0E"></path>

<path d="M 214 83
Q 214 82.5 213.75 82.3 211.35 80.35 207 82 207 82.5 207 83 210 83 213 83 213.5 83 214 83 Z" stroke="none" fill="#A16407"></path>

<path d="M 210 73
Q 210 72.5 209.85 72.45 202.25 70.25 192 71 196.15 74.2 209 73.05 209.5 73 210 73 Z" stroke="none" fill="#6A6453"></path>

<path d="M 186 81
Q 185.5 81 185 81 193.95 82.55 204 83 204.5 83 205 83 205 82.5 204.85 82.45 199.2 80.3 186 81 Z" stroke="none" fill="#A76C09"></path>

<path d="M 186 71
Q 186 70.5 185.8 70.35 182.25 68.25 176 69 178.6 71.9 185 71.05 185.5 71 186 71 Z" stroke="none" fill="#626355"></path>

<path d="M 266.75 94.3
Q 267 94.5 267 95 270.15 96.85 272.3 99.75 272.5 100 273 100
L 273.5 100
Q 272.1 91.9 263 91 264.75 92.75 266.75 94.3 Z" stroke="none" fill="#AA6A11"></path>

<path d="M 267.85 82.05
Q 267.2 80.3 264 81 263.6 83.9 267.05 83.1 267.5 83 268 83 268 82.5 267.85 82.05 Z" stroke="none" fill="#6C6351"></path>

<path d="M 263 91
Q 262.5 91 262 91 261.5 91 261 91 262.95 93.55 266.05 94.8 266.5 95 267 95 267 94.5 266.75 94.3 264.75 92.75 263 91 Z" stroke="none" fill="#CD8F38"></path>

<path d="M 260 90
L 260.5 90
Q 252.15 82.85 234 85 234 85.5 234 86 234.5 86 235 86 235.5 86 236 86 241.5 86 246.95 86.5 247 86.5 247 87 254.05 87.45 259.1 89.8 259.5 90 260 90 Z" stroke="none" fill="#A36709"></path>

<path d="M 247 87
Q 246.5 87 246 87.05 239.75 87.75 236 86 235.5 86 235 86 234.5 86 234 86 233.5 86 233 85.9 229.75 85.25 226 85 225.5 85 225 85.05 220.25 85.75 218 84 217.5 84 217 84 216.5 84 216 84.05 209.25 84.75 205 83 204.5 83 204 83 193.95 82.55 185 81 184.5 81 184 80.95 172.9 80.1 161 80 160.5 80 160.15 79.75 158.7 78.8 156 79 155.5 79 155 79.05 150.25 79.75 148 78 147.5 78 147 78 144.5 78 142 78 141.5 78 141 78 136.85 78.15 134 77 133.5 77 133 77 132 77 131 77 130.5 77 130 77 123.5 77 117 77 116.5 77 116 77 114.5 77 113 77 113 77.5 112.85 77.55 109.15 78.65 106 80 105.5 80 105.15 80.2 95.4 85.9 88 94 88 94.5 87.75 94.75 87.5 95 87 95 87 95.5 86.8 95.9 85.75 98.25 84 100 84 100.5 83.8 100.9 83.5 101.5 83 102 83 102.5 83 103 83 103.5 83 104 83 104.5 82.75 104.75 82.5 105 82 105 82 105.5 81.9 106 81.25 108.75 80 111 80 111.5 80 112 80 112.5 80.05 113 80.75 118.25 79 121 79 124.5 79 128 79 128.5 79 129 79 129.5 79.05 130 79.75 136.25 78 140 78 141 78 142 78 142.5 78 143 78 143.5 78.05 144 78.75 148.75 77 151 77 151.5 77.05 152 77.75 156.75 76 159 76 162.5 76 166 76 166.5 76 167 76 167.5 76.05 168 76.75 174.25 75 178 75 178.5 75 179 75 179.5 75.05 180 75.75 185.25 74 188 74 191 74 194 74 194.5 74 195 74 195.5 74.05 196 74.75 200.75 73 203 73 206.5 73 210 73 210.5 73 211 73 211.5 73 212 73 215.5 73 219 73 219.5 73.25 219.75 77.85 224.05 72 224 72 225 72 226 72 226.5 72 227 72.65 232 72.1 234.05 72 234.5 72 235 72 235.5 72 236 74.7 235.8 75.45 237.85 75.5 238 76 238 79.15 240.6 76.65 244.8 76.5 245 76 245 76 245.5 75.85 245.95 75.2 247.7 72 247 71.55 251.45 73.75 253.3 74 253.5 74 254 76.1 256.45 76.9 260 77 260.5 77 261 79.4 264.1 81.75 267.2 82 267.5 82 268 123.65 290.85 190 289 190.5 289 191 289 195 289 198.95 289.5 199 289.5 199 290 205.55 289.95 211 290.9 211.5 291 212 291 217 291 221.95 291.5 222 291.5 222 292 225.5 292 229 292 229.5 292 230 292 233.5 292 237 292 237.5 292 238 292 240 292 242 292 242.5 292 243 292 243 291.5 243 291 249.3 290.3 253.2 287.25 253.5 287 254 287 254 286.5 254 286 254 281 254 276 254.55 269.55 257.75 265.8 258 265.5 258 265 258 264.5 258 264 262 264 265.95 264.5 266 264.5 266 265 266.5 265 266.75 265.25 267 265.5 267 266 269.7 266.3 270.45 268.85 270.5 269 271 269 271 268.5 271 268 274.75 264.75 275.5 258.05 275.5 258 276 258 276 257.5 276 257 276 256.5 276 256 276 254 276 252 277.75 246.25 277.05 238 277 237.5 277 237 277 236.5 277 236 277.5 236 278 236 278 235.5 278 235 278 229 278 223 278.5 223 279 223 279 222.5 279 222 279 218.5 279 215 279 214.5 279 214 279 210 279 206 279.5 206 280 206 280 205.5 280 205 280 202 280 199 280 198.5 280 198 280 194.5 280 191 280.5 191 281 191 281 190.5 281 190 281 186.5 281 183 281.5 183 282 183 282 182.5 282 182 282 181.5 282 181 282 180.5 282 180 282 177.5 282 175 282 174.5 282 174 282 170.5 282 167 282.5 167 283 167 283 166.5 283 166 283 162.5 283 159 283 158.5 283 158 283 154.5 283 151 283.5 151 284 151 284 150.5 284 150 284 146.5 284 143 284 142.5 284 142 284 135.5 284 129 284.5 129 285 129 285 128.5 285 128 285 126.5 285 125 284.5 125 284.5 124.9 283.7 120.3 283 116 283 115.5 282.9 115.45 281.4 115.15 282 113 281.5 113 281.4 112.8 279.8 109.7 278 107 277.5 107 277.25 106.75 275.55 104.95 275 102 274.5 102 274.25 101.75 273.5 101 273 100 272.5 100 272.3 99.75 270.15 96.85 267 95 266.5 95 266.05 94.8 262.95 93.55 261 91 260.5 91 260.25 90.75 260 90.5 260 90 259.5 90 259.1 89.8 254.05 87.45 247 87
M 219.75 105.75
Q 219.5 106 219 106 207.9 104.2 192.1 100.55 192 100.5 192 100 142.95 100 105.1 90.55 105 90.5 105 90 110.1 86.5 113.75 82.75 114 82.5 114 82 203.55 77.95 266.8 105.4 267 105.5 267 106 247.1 108.2 228 107.05 227.5 107 227 107 222.7 102.75 219.75 105.75
M 207.3 139.75
Q 207.5 140 208 140 211.75 140.75 212.85 144.05 213 144.5 213 145 221.9 156.1 225.9 172.05 226 172.5 226 173 227.65 172.9 227.1 175.05 227 175.5 227 176 227.5 176 227.5 176.1 229.45 186.95 226 193 226 193.5 225.8 193.9 225.5 194.5 225 195 225 195.5 224.85 195.95 221.65 207.65 214 215 214 215.5 214 216 214 216.5 213.85 216.95 211.65 224.65 204 227 204 227.5 203.75 227.75 193.15 238.15 179 245 178.5 245 178 245 167.75 245.3 161 245 160.5 245 160 245 160 245.5 159.8 245.6 155.65 247.4 153 246 152.5 246 152 245.95 146.95 245.55 148 239 148 238.5 147.85 238.05 146.6 233.95 147 228
L 146.5 228
Q 146 215 146 202 146 201.5 146 201 146 194.5 146 188 145.5 188 145 188
L 145 188.5
Q 143.35 186.1 144 171 144 170.5 144 170 144 166.5 144 163 144 162.5 144 162 144 160 144 158 143.5 158 143.5 157.95 143.2 155.3 142 154 143.65 154.15 143.1 151.95 143 151.5 143 151 143 150.5 142.95 150 142.05 140.95 142 131 142.75 121.25 151.05 119.1 151.5 119 152 119 152 118.5 152 118 159 118 165.95 118.5 166 118.5 166 119 166.5 119 167 119 167.5 119 168 119 171.75 119.25 174.85 120.45 175 120.5 175 121 182.25 123.2 188.8 126.4 189 126.5 189 127 192.8 127.2 194.75 129.25 195 129.5 195 130 202.3 133.7 207.3 139.75 Z" stroke="none" fill="#F8C841"></path>

<path d="M 172.9 228.5
Q 173 228.5 173 228 172.5 228 172 228 168 228 164 228 167.25 229.75 172.9 228.5 Z" stroke="none" fill="#644802"></path>

<path d="M 164 218
Q 163.5 218 163 218 163 223 163.5 227.95 163.5 228 164 228 164 227.5 164 227 164 222.5 164 218 Z" stroke="none" fill="#6C512E"></path>

<path d="M 163 218
Q 163.5 218 164 218 164 217.5 164.05 217 164.75 212.25 163 210 163 210.5 163 211 163 211.5 163 212 163 214.5 163 217 163 217.5 163 218 Z" stroke="none" fill="#C4A865"></path>

<path d="M 163 204
Q 162.5 204 162 204 162 208 162.5 211.95 162.5 212 163 212 163 211.5 163 211 163 210.5 163 210 163 209.5 163 209 163 206.5 163 204 Z" stroke="none" fill="#5F4302"></path>

<path d="M 162 204
Q 162.5 204 163 204 163 203.5 163.05 203 163.75 197.75 162 195 162 199 162 203 162 203.5 162 204 Z" stroke="none" fill="#B58812"></path>

<path d="M 193 213
Q 192.5 213 192.2 213.25 186.9 217.4 182 222 182 222.5 182 223 188.15 219.15 192.75 213.8 193 213.5 193 213 Z" stroke="none" fill="#C8A951"></path>

<path d="M 214 216
Q 213.5 216 213.3 216.25 208.8 221.8 203 226 203 226.5 203 227 203.5 227 204 227 211.65 224.65 213.85 216.95 214 216.5 214 216 Z" stroke="none" fill="#CBB05E"></path>

<path d="M 161 244
Q 161 244.5 161 245 167.75 245.3 178 245 178.5 245 179 245 193.15 238.15 203.75 227.75 204 227.5 204 227 203.5 227 203 227 202.5 227 202.2 227.25 190.6 236.6 176 243 175.5 243 175 242.95 165.6 241.55 161 244 Z" stroke="none" fill="#D7BD67"></path>

<path d="M 153 244
Q 153 244.5 153 245 156 245 159 245 159.5 245 160 245 160.5 245 161 245 161 244.5 161 244 160.5 244 160 244 156.5 244 153 244 Z" stroke="none" fill="#B3994F"></path>

<path d="M 153 245
Q 153 245.5 153 246 155.65 247.4 159.8 245.6 160 245.5 160 245 159.5 245 159 245 156 245 153 245 Z" stroke="none" fill="#ECD267"></path>

<path d="M 152 245.95
Q 152.5 246 153 246 153 245.5 153 245 153 244.5 153 244 152.5 244 152.3 243.75 150.15 241.35 148 239 146.95 245.55 152 245.95 Z" stroke="none" fill="#DEC56C"></path>

<path d="M 147 228
Q 147 227.5 147.05 227 147.75 213.25 146 202 146 215 146.5 228
L 147 228 Z" stroke="none" fill="#50371E"></path>

<path d="M 145 188
Q 145.5 188 146 188 146 187.5 146.05 187 146.75 180.75 145 177 145 182 145 187 145 187.5 145 188 Z" stroke="none" fill="#7D6012"></path>

<path d="M 161 167
Q 160.5 167 160 167 160 170 160 173 160 173.5 160 174 160 174.5 160 175 160 175.5 160 176 160.5 176 161 176 161 175.5 161 175 161 171 161 167 Z" stroke="none" fill="#604402"></path>

<path d="M 161 167
Q 161 166.5 161.05 166 161.75 161.25 160 159 160 162.5 160 166 160 166.5 160 167 160.5 167 161 167 Z" stroke="none" fill="#A17709"></path>

<path d="M 145 171
Q 144.5 171 144 171 143.35 186.1 145 188.5
L 145 188
Q 145 187.5 145 187 145 182 145 177 145 176.5 145 176 145 173.5 145 171 Z" stroke="none" fill="#DCC274"></path>

<path d="M 145 171
Q 145 170.5 145.05 170 145.75 165.25 144 163 144 166.5 144 170 144 170.5 144 171 144.5 171 145 171 Z" stroke="none" fill="#846A36"></path>

<path d="M 143 151
Q 143 151.5 143.1 151.95 143.65 154.15 142 154 143.2 155.3 143.5 157.95 143.5 158 144 158 144 157.5 144.05 157 144.7 152.75 143 151 Z" stroke="none" fill="#AA831C"></path>

<path d="M 160 141
Q 159.5 141 159 141 159 145 159.5 148.95 159.5 149 160 149 160 148.5 160 148 160 144.5 160 141 Z" stroke="none" fill="#9E8352"></path>

<path d="M 159 140
Q 159 140.5 159 141 159.5 141 160 141 161.55 138.55 161.95 135 162 134.5 162 134 161.5 134 161.4 134.2 160 137 159 140 Z" stroke="none" fill="#EAC363"></path>

<path d="M 227.5 176.1
Q 227.5 176 227 176 227 176.5 227.05 177 227.75 185.75 226 192 226 192.5 226 193 229.45 186.95 227.5 176.1 Z" stroke="none" fill="#DEBD61"></path>

<path d="M 226 183
Q 226 183.5 226.05 184 226.75 188.75 225 191 225 192.5 225 194 225 194.5 225 195 225.5 194.5 225.8 193.9 226 193.5 226 193 226 192.5 226 192 227.75 185.75 227.05 177 227 176.5 227 176 227 175.5 227.1 175.05 227.65 172.9 226 173 226 177 226 181 226 181.5 226 182 226 182.5 226 183 Z" stroke="none" fill="#674D0B"></path>

<path d="M 212 164.5
L 212 165
Q 212.75 172.25 210.6 176.8 210.5 177 210 177 210 179 210 181 210 181.5 210 182 210.5 182 210.5 182.05 211.7 197.85 212 199 212 199.5 211.75 199.75 200.15 210.55 195 223 195 223.5 194.85 223.55 184.7 226.7 175 235 179.75 237.5 187.15 233.2 187.5 233 188 233 193.3 226.2 205.1 221.2 205.5 221 206 221 210.25 209.25 219.2 202.25 219.5 202 220 202 219.2 194.05 225.4 183.2 225.5 183 226 183 226 182.5 226 182
L 225.5 182
Q 226 177 222 177 222 176.5 222 176 222 172.5 222 169 221.5 169 221.35 168.8 216.1 159.9 212 150 211.5 150 211.3 149.75 205.4 142.6 193 137 201 148.4 207.75 156.2 208 156.5 208 157 210.4 167.7 212 164.5 Z" stroke="none" fill="#0A0409"></path>

<path d="M 162 194
Q 162 193.5 162 193 162 187.5 162 182 161.5 182 161 182 161 188 161.5 193.95 161.5 194 162 194 Z" stroke="none" fill="#6A4C20"></path>

<path d="M 162 182
Q 162 181.5 162.05 181 162.75 172.75 161 167 161 171 161 175 161 175.5 161 176 161 178.5 161 181 161 181.5 161 182 161.5 182 162 182 Z" stroke="none" fill="#D0B368"></path>

<path d="M 192 144
Q 192 144.5 192 145 192.65 148.35 196 148.9 196.5 149 197 149 197 148.5 196.75 148.25 194.5 146 192 144 Z" stroke="none" fill="#C8A860"></path>

<path d="M 192 144
Q 192 143.5 191.8 143.4 188.7 141.8 186 140 186 140.5 186 141 187.25 144.25 191 144.9 191.5 145 192 145 192 144.5 192 144 Z" stroke="none" fill="#CEAB5E"></path>

<path d="M 194.05 129.85
Q 194.5 130 195 130 195 129.5 194.75 129.25 192.8 127.2 189 127 191.05 128.95 194.05 129.85 Z" stroke="none" fill="#85661A"></path>

<path d="M 172 135
Q 166.65 134.85 162 134 162 134.5 161.95 135 161.55 138.55 160 141 160 144.5 160 148 160 148.5 160 149 160 153.5 160 158 160 158.5 160 159 161.75 161.25 161.05 166 161 166.5 161 167 162.75 172.75 162.05 181 162 181.5 162 182 162 187.5 162 193 162 193.5 162 194 162 194.5 162 195 163.75 197.75 163.05 203 163 203.5 163 204 163 206.5 163 209 163 209.5 163 210 164.75 212.25 164.05 217 164 217.5 164 218 164 222.5 164 227 164 227.5 164 228 168 228 172 228 172.5 228 173 228 177.75 226.25 181.2 223.25 181.5 223 182 223 182 222.5 182 222 186.9 217.4 192.2 213.25 192.5 213 193 213 207.3 203.8 209.95 183 210 182.5 210 182 210 181.5 210 181 210 179 210 177 210 176.5 209.9 176 206.9 159.1 197 149 196.5 149 196 148.9 192.65 148.35 192 145 191.5 145 191 144.9 187.25 144.25 186 141 185.5 141 185.05 140.9 179.55 139.55 173 135 172.5 135 172 135 Z" stroke="none" fill="#F6C440"></path>

<path d="M 166 132
Q 165.5 132 165.1 131.8 162.95 130.55 159 131 159 135 159 139 159 139.5 159 140 160 137 161.4 134.2 161.5 134 162 134 162 133.5 162 133 164 133 165.9 132.55 166 132.5 166 132 Z" stroke="none" fill="#B99F65"></path>

<path d="M 182 130
Q 182 129.5 181.8 129.35 171.3 123.25 160 123 159.5 123 159 123 149 123.5 146 131 143.3 144.7 149.75 149.35 150 149.5 150 150 149.8 157.65 150 167 150 167.5 150 168 147.6 168.1 146.2 171.1 146 171.5 146 172 150.55 187.75 148.15 196.05 148 196.5 148 197 148.7 200.5 149.75 202.15 150 202.5 150 203 150.6 222.35 148.15 231.05 148 231.5 148 232 152.85 236.95 158.15 240.75 158.5 241 159 241 163.75 235.7 162.1 226 162 225.5 162 225 159.2 205.5 160 177 160 176.5 160 176 160 175.5 160 175 160 174.5 160 174 159.5 174 159.5 173.9 154.8 150.5 155 129 155.5 129 156 128.95 165.05 128.3 182 130 Z" stroke="none" fill="#080206"></path>

<path d="M 173 135
Q 173 134.5 173 134 172.5 134 172.2 133.75 170 132 166 132 166 132.5 165.9 132.55 164 133 162 133 162 133.5 162 134 166.65 134.85 172 135 172.5 135 173 135 Z" stroke="none" fill="#CFAA5F"></path>

<path d="M 173 134
Q 173 134.5 173 135 179.55 139.55 185.05 140.9 185.5 141 186 141 186 140.5 186 140 185.5 140 185.25 139.75 180.65 135.35 173 134 Z" stroke="none" fill="#CCA95C"></path>

<path d="M 166 119
Q 166 118.5 165.95 118.5 159 118 152 118 152 118.5 152 119 158.5 119 165 119 165.5 119 166 119 Z" stroke="none" fill="#704E03"></path>

<path d="M 168 119
Q 170 121 174 121 174.5 121 175 121 175 120.5 174.85 120.45 171.75 119.25 168 119 Z" stroke="none" fill="#946518"></path>

<path d="M 213 145
Q 213 144.5 212.85 144.05 211.75 140.75 208 140 210 142.5 212.25 144.75 212.5 145 213 145 Z" stroke="none" fill="#AD8231"></path>

<path d="M 208 140
Q 207.5 140 207.3 139.75 202.3 133.7 195 130 194.5 130 194.05 129.85 191.05 128.95 189 127 189 126.5 188.8 126.4 182.25 123.2 175 121 174.5 121 174 121 170 121 168 119 167.5 119 167 119 166.5 119 166 119 165.5 119 165 119 158.5 119 152 119 151.5 119 151.05 119.1 142.75 121.25 142 131 142.05 140.95 142.95 150 143 150.5 143 151 144.7 152.75 144.05 157 144 157.5 144 158 144 160 144 162 144 162.5 144 163 145.75 165.25 145.05 170 145 170.5 145 171 145 173.5 145 176 145 176.5 145 177 146.75 180.75 146.05 187 146 187.5 146 188 146 194.5 146 201 146 201.5 146 202 147.75 213.25 147.05 227 147 227.5 147 228 146.6 233.95 147.85 238.05 148 238.5 148 239 150.15 241.35 152.3 243.75 152.5 244 153 244 156.5 244 160 244 160.5 244 161 244 165.6 241.55 175 242.95 175.5 243 176 243 190.6 236.6 202.2 227.25 202.5 227 203 227 203 226.5 203 226 208.8 221.8 213.3 216.25 213.5 216 214 216 214 215.5 214 215 221.65 207.65 224.85 195.95 225 195.5 225 195 225 194.5 225 194 225 192.5 225 191 226.75 188.75 226.05 184 226 183.5 226 183 225.5 183 225.4 183.2 219.2 194.05 220 202 219.5 202 219.2 202.25 210.25 209.25 206 221 205.5 221 205.1 221.2 193.3 226.2 188 233 187.5 233 187.15 233.2 179.75 237.5 175 235 184.7 226.7 194.85 223.55 195 223.5 195 223 200.15 210.55 211.75 199.75 212 199.5 212 199 211.7 197.85 210.5 182.05 210.5 182 210 182 210 182.5 209.95 183 207.3 203.8 193 213 193 213.5 192.75 213.8 188.15 219.15 182 223 181.5 223 181.2 223.25 177.75 226.25 173 228 173 228.5 172.9 228.5 167.25 229.75 164 228 163.5 228 163.5 227.95 163 223 163 218 163 217.5 163 217 163 214.5 163 212 162.5 212 162.5 211.95 162 208 162 204 162 203.5 162 203 162 199 162 195 162 194.5 162 194 161.5 194 161.5 193.95 161 188 161 182 161 181.5 161 181 161 178.5 161 176 160.5 176 160 176 160 176.5 160 177 159.2 205.5 162 225 162 225.5 162.1 226 163.75 235.7 159 241 158.5 241 158.15 240.75 152.85 236.95 148 232 148 231.5 148.15 231.05 150.6 222.35 150 203 150 202.5 149.75 202.15 148.7 200.5 148 197 148 196.5 148.15 196.05 150.55 187.75 146 172 146 171.5 146.2 171.1 147.6 168.1 150 168 150 167.5 150 167 149.8 157.65 150 150 150 149.5 149.75 149.35 143.3 144.7 146 131 149 123.5 159 123 159.5 123 160 123 171.3 123.25 181.8 129.35 182 129.5 182 130 165.05 128.3 156 128.95 155.5 129 155 129 154.8 150.5 159.5 173.9 159.5 174 160 174 160 173.5 160 173 160 170 160 167 160 166.5 160 166 160 162.5 160 159 160 158.5 160 158 160 153.5 160 149 159.5 149 159.5 148.95 159 145 159 141 159 140.5 159 140 159 139.5 159 139 159 135 159 131 162.95 130.55 165.1 131.8 165.5 132 166 132 170 132 172.2 133.75 172.5 134 173 134 180.65 135.35 185.25 139.75 185.5 140 186 140 188.7 141.8 191.8 143.4 192 143.5 192 144 194.5 146 196.75 148.25 197 148.5 197 149 206.9 159.1 209.9 176 210 176.5 210 177 210.5 177 210.6 176.8 212.75 172.25 212 165
L 212 164.5
Q 210.4 167.7 208 157 208 156.5 207.75 156.2 201 148.4 193 137 205.4 142.6 211.3 149.75 211.5 150 212 150 216.1 159.9 221.35 168.8 221.5 169 222 169 222 172.5 222 176 222 176.5 222 177 226 177 225.5 182
L 226 182
Q 226 181.5 226 181 226 177 226 173 226 172.5 225.9 172.05 221.9 156.1 213 145 212.5 145 212.25 144.75 210 142.5 208 140
M 184 131
Q 196.45 137.35 184.2 131.6 184 131.5 184 131
M 164 232
Q 170.5 235.45 164.2 232.6 164 232.5 164 232 Z" stroke="none" fill="#230B01"></path>

<path d="M 164.2 232.6
Q 170.5 235.45 164 232 164 232.5 164.2 232.6 Z" stroke="none" fill="#0A0202"></path>

<path d="M 184.2 131.6
Q 196.45 137.35 184 131 184 131.5 184.2 131.6 Z" stroke="none" fill="#0B020B"></path>

<path d="M 219 106
Q 219.5 106 219.75 105.75 222.7 102.75 227 107 227.5 107 228 107.05 247.1 108.2 267 106 267 105.5 266.8 105.4 203.55 77.95 114 82 114 82.5 113.75 82.75 110.1 86.5 105 90 105 90.5 105.1 90.55 142.95 100 192 100 192 100.5 192.1 100.55 207.9 104.2 219 106 Z" stroke="none" fill="#FEDC6C"></path>

<path d="M 246 87.05
Q 246.5 87 247 87 247 86.5 246.95 86.5 241.5 86 236 86 239.75 87.75 246 87.05 Z" stroke="none" fill="#E1A24E"></path>

<path d="M 252 77
Q 252 76.5 251.8 76.35 248.25 74.25 242 75 244.15 78.35 251 77.1 251.5 77 252 77 Z" stroke="none" fill="#646355"></path>

<path d="M 260 79
Q 259.6 81.9 263.05 81.1 263.5 81 264 81 264 80.5 263.85 80.05 263.2 78.3 260 79 Z" stroke="none" fill="#66624F"></path>

<path d="M 260 79
Q 259.5 79 259.05 78.85 255.9 77.6 252 77 251.5 77 251 77.1 244.15 78.35 242 75 241.5 75 241 75 237.5 75 234 75 233.5 75 233 75 224.45 75.05 218 73 217.5 73 217 73 213.5 73 210 73 209.5 73 209 73.05 196.15 74.2 192 71 191.5 71 191 71 188.5 71 186 71 185.5 71 185 71.05 178.6 71.9 176 69 175.5 69 175 69 168.5 69 162 69 161.5 69 161 69.05 152.1 70.45 148 67 147.5 67 147 67 141 67 135 67 134.5 67 134 67 123 67 112 67 111.5 67 111.25 67.25 109 69.5 104 69 104 69.5 103.85 69.95 103.2 71.7 100 71 100 71.5 99.85 71.95 99.2 73.7 96 73 96 73.5 95.8 73.6 86.45 78.95 80 87 80 87.5 79.95 88 79.55 92.05 76 93 76 93.5 76.05 94 76.15 95.65 74 95 74 95.5 74 96 74 96.5 74 97 74 97.5 74.1 97.95 74.9 101.45 72 101 72 101.5 71.9 102 70.8 107.8 68 112 68 116 68 120 68 120.5 68 121 68 121.5 68.05 122 69.15 135.8 66 143 66 143.5 66.05 144 67.45 153.95 64 159 64 167.5 64 176 64 176.5 64 177 64 177.5 64.05 178 65.45 186.95 62 191 62 198.5 62 206 62 206.5 62 207 62 207.5 62.05 208 63.45 217.95 60 223 60 231 60.5 238.95 60.5 239 61 239 61.5 239 62 239 62 238.5 62 238 64.7 235.2 71 235.95 71.5 236 72 236 72 235.5 72 235 71.5 235 71.45 234.9 71 233 71 231 70.5 231 70.5 230.95 70 226 70 221 70.5 221 71 221 71 220.5 71 220 71 217.5 71 215 71.5 215 72 215 72 214.5 72 214 72 212.5 72 211 72 210.5 72 210 72 203.5 72 197 72.5 197 73 197 73 196.5 73 196 73 195.5 73 195 73 194.5 73 194 73 190.5 73 187 73.5 187 74 187 74 186.5 74 186 74 182.5 74 179 74 178.5 74 178 74 172.5 74 167 74.5 167 75 167 75.5 167 76 167 76 166.5 76 166 76 162.5 76 159 76 158.5 76 158 76 154.5 76 151 76 150.5 76 150 76 146.5 76 143 76.5 143 77 143 77 142.5 77 142 77 138.5 77 135 77.5 135 78 135 78 134.5 78 134 78 131.5 78 129 78 128.5 78 128 78 124.5 78 121 78 120.5 78 120 78 115.5 78 111 78.5 111 79 111 79.5 111 80 111 80 110.5 79.8 110.1 79.5 109.5 79 109 80 107 81.3 105.25 81.5 105 82 105 82.5 105 82.75 104.75 83 104.5 83 104 82.5 104 82.5 103.9 82 101.5 82 99 82.5 99 83 99 83.5 99 84 99 84 98.5 84 98 84 96.5 84 95 86.7 93.3 86.9 94.05 87 94.5 87 95 87.5 95 87.75 94.75 88 94.5 88 94 88 93.5 88 93 88 92 88 91 94.9 83.4 105.05 79.2 105.5 79 106 79 107.75 76.75 112 76.95 112.5 77 113 77 113 76.5 113 76 115.05 74.55 118.9 75.45 119 75.5 119 76 119.5 76 120 76 120 75.5 120 75 128.2 74.3 133.85 76.45 134 76.5 134 77 136.85 78.15 141 78 141.5 78 142 78 142 77.5 142 77 153.25 76.25 161.9 78.45 162 78.5 162 79 175.2 78.3 185.9 80.5 186 80.5 186 81 199.2 80.3 204.85 82.45 205 82.5 205 83 205.5 83 206 83 206.5 83 207 83 207 82.5 207 82 211.35 80.35 213.75 82.3 214 82.5 214 83 215 83 216 83 216.5 83 217 83 217 82.5 217 82 225.4 83.05 233.9 84.5 234 84.5 234 85 252.15 82.85 260.5 90
L 260 90
Q 260 90.5 260.25 90.75 260.5 91 261 91 261.5 91 262 91 262.5 91 263 91 272.1 91.9 273.5 100
L 273 100
Q 273.5 101 274.25 101.75 274.5 102 275 102 277.95 101.6 277.5 105
L 278 105
Q 284.45 106.55 282.2 112.05 282 112.5 282 113 281.4 115.15 282.9 115.45 283 115.5 283 116 285.45 118.6 285.05 124 285 124.5 285 125 286.75 132.25 286.05 142 286 142.5 286 143 286 143.5 286 144 286.15 160.85 285 151 284.5 151 284 151 284 154.5 284 158 284 158.5 284 159 284 159.5 284.05 160 285.4 177.75 282 181 282 181.5 282 182 282 182.5 282 183 282 186.5 282 190 282 190.5 282 191 282 191.5 282.05 192 283.45 204.95 280 213 280 213.5 280 214 280 214.5 280 215
L 280.5 215
Q 280.05 222.05 279 229 279 229.5 279.05 230 279.7 234.2 278 236 277.5 236 277 236 277 236.5 277 237 277.5 237 277.5 237.1 279.45 249.45 276 257 276 257.5 276 258
L 276.5 258
Q 276.35 265.85 271 269 270.5 269 270.45 268.85 269.7 266.3 267 266 271.7 272.2 268.55 280.85 268.5 281 268 281 268 283.5 268 286 268 286.5 268 287 275.25 283.75 279.35 277.25 279.5 277 280 277 280 276.5 280 276 280 274.5 280 273 280.5 273 281 273 281.5 273 282 273 282 272.5 282 272 282 271.5 282 271 284.65 271.65 284.1 269 284 268.5 284 268 284 267.5 284 267 284 265.5 284 264 284.5 263.5 285.1 263.2 285.5 263 286 263 286 262.5 286.05 262 286.8 256.05 286 253 286.5 253 287 253 287.5 253 288 253 288 252.5 288 252 288 251.5 288 251 288 244.5 288 238 288 237.5 288.2 237.1 289.5 234.05 288 232 288.5 232 289 232 289.5 232 290 232 290 231.5 290 231 290 220 290 209 290 208.5 290 208 290 207.5 290 207 291.7 205.7 291.5 202
L 292 202
Q 292 201.5 292 201 292 195 292 189 292 188.5 292 188 292 181.5 292 175 292.5 175 293 175 293.5 175 294 175 294 174.5 294 174 294 167.5 294 161 294 160.5 294 160 294 155.5 294 151 295.75 148.25 295.5 143
L 296 143
Q 296 142.5 296 142 297 109.5 282 93 281.5 93 281.2 92.75 275.2 87.3 268 83 267.5 83 267.05 83.1 263.6 83.9 264 81 263.5 81 263.05 81.1 259.6 81.9 260 79 Z" stroke="none" fill="#9C612A"></path>
</g>
</g>
</g>
</g>
</g>
</svg>
