
<svg viewBox="0 0 122 110" height="110px" width="122px" y="0px" x="0px" preserveAspectRatio="none" xmlns:xlink="http://www.w3.org/1999/xlink" version="1.1" xmlns="http://www.w3.org/2000/svg">
<defs></defs>

<g id="Layer_1"></g>

<g id="Layer_2">
<g transform="matrix( 1, 0, 0, 1, 60.7,65.85)" id="Layer_2">
<g>
<g>
<g>
<path d="M 35.05 -57.1
Q 29.75 -60.5 23.35 -60.6 22.85 -60.6 22.3 -60.55 20.3 -60.25 20.25 -58.4 20.2 -57 20.15 -55.6 19.9 -50.2 17.45 -45.4 17.4166015625 -45.3380859375 17.35 -45.3 -1.0466796875 -43.45078125 -19.35 -41.35 -19.4162109375 -41.428125 -19.5 -41.5 -20.95 -42.35 -22.7 -42.25 -25.85 -43.45 -28.85 -44.95 -29.65 -45.75 -30.45 -46.6 -32.25 -48.5 -33.1 -51.1 -33.1 -52.05 -33 -53.05 -32.9 -54.6 -33.9 -55.75 -34.15 -55.9 -34.4 -55.95 -34.8 -56.1 -35.25 -56.15 -40.45 -54.9 -44.85 -51.3 -52.25 -45.3 -53.6 -36.2 -53.45 -35.25 -53.15 -34.4 -52.68046875 -33.1294921875 -51.95 -32.1 -54.0095703125 -31.086328125 -56.05 -30 -58.35 -28.75 -59.3 -26.45 -60.65 -23 -60.05 -19.15 -57.7 -4.4 -53.45 10.1 -51.35 17.1 -49.05 24.15 -47.75 28.1 -45.9 31.9 -45.8 32 -45.7 32.15 -45.55 32.25 -45.45 32.4 -45.3 32.5 -45.2 32.65 -45.15 32.75 -45.1 32.85 -45.05 33 -45.05 33.1 -45 33.25 -45 33.35 -45 33.5 -44.95 33.6 -44.4 34.35 -43.75 35 -43.2 35.55 -42.5 35.7 -41.9984375 35.8142578125 -41.5 35.9 -38.49765625 38.046875 -35.25 40.1 -34.65 40.45 -34 40.55 -22.35 41.85 -10.55 41.1 -7.8 40.9 -5.15 40.65 7.75 39.45 20.45 37.15 32.35 34.95 44 31.75 45.2 31.45 46.35 31.2 48.1369140625 30.2126953125 49.95 29.75 51.35625 27.2978515625 52.4 24.65 53.1630859375 23.376171875 54 22.15 55.0744140625 20.551953125 56 18.95 55.8904296875 18.9140625 55.75 18.85 55.75 18.702734375 55.75 18.55 55.75 18.4 55.75 18.3 57.35 8.55 57.35 -1.6 57.35 -16.05 55.3 -30.1 54.7 -34.15 53.1 -37.75 53.1 -37.85 53.1 -38 53.1 -38.25 53.1 -38.5 53.1 -38.85 53 -39.2 53 -39.35 52.95 -39.45 52.75 -39.85 52.55 -40.2 52.45 -40.3 52.4 -40.45 52.35 -40.85 52.15 -41.2 52 -41.45 51.9 -41.65 51.8 -41.8 51.75 -41.95 51.55 -42.3 51.35 -42.65 51.25 -42.8 51.15 -42.9 47.85 -45.05 43.9 -45.45 42.4904296875 -45.5728515625 41.05 -45.7 41.19609375 -46.2357421875 41.15 -46.95 40.65 -53.5 35.05 -57.1
M 23.7 -50.8
Q 24.35 -53.55 24.3 -56.45 27.05 -56.5 29.9 -55.35 32.65 -54.3 34.7 -52.2 37 -49.9 37.25 -46.65 37.005859375 -46.264453125 36.9 -45.9 30.62421875 -46.1388671875 24.3 -45.85 23.124609375 -45.7859375 21.9 -45.7 23.0912109375 -48.1 23.7 -50.8
M 23.45 -41.85
Q 30.3 -42.5 37.1 -42.15 43.25 -41.8 48.55 -39.55 51.85 -30.95 52.6 -21.6 53.2 -13.45 53.35 -5.15 53.45 0.6 53.1 6.2 52.8 10.85 52.55 15.5 52.45 15.65 52.4 15.75 52.2 16.1 52.15 16.5 52.1 16.75 52 17 51.95 17.25 51.9 17.45 51.8923828125 17.487890625 51.85 17.5 51.3962890625 17.920703125 51 18.4 38.601171875 22.860546875 25.4 25.15 12.1 27.4 -1.25 29 -20.6630859375 31.33359375 -39.95 32.35 -40.1583984375 32.26171875 -40.4 32.15 -40.4603515625 32.0896484375 -40.55 32 -40.85 31.75 -41.15 31.45 -41.4 31.25 -41.6 31 -41.85 30.75 -42.15 30.5 -42.3 30.4 -42.4 30.25 -46.65 22.1 -48.65 13.1 -48.939453125 11.808984375 -49.25 10.5 -48.2044921875 13.7396484375 -46.85 16.9 -45.6 19.8 -43.85 22.4 -42.3 24.7 -41.2 27.25 -40 30.05 -37.2 29.45 -16.7 29.4 3.75 27.8 21.2 26.45 37.75 21.2 40.55 20.35 42.95 18.85 45.95 17.75 48.55 15.9 49.15 15.45 49.35 14.75 52.7 3.35 51.95 -8.75 51.65 -13.2 50.8 -17.55 49.4 -24.95 47.9 -32.3 47.6 -33.95 46.8 -35.5 44.6 -37 41.95 -37.55 37.95 -38.4 33.95 -38.95 22.4 -40.35 10.75 -39.6 7.95 -39.45 5 -39.25 -8.35 -38.2 -21.5 -36.15 -35.65 -33.9 -47.9 -26.7 -49.75 -25.65 -50.9 -23.85 -52.55 -21.2 -52.6 -17.95 -52.75 -12.1 -52.4 -6.3 -52.1865234375 -2.883984375 -51.65 0.45 -52.1384765625 -1.51328125 -52.65 -3.5 -54.1 -9.05 -55 -14.75 -55.7 -19.4 -56.35 -24.05 -56.25 -24.2 -56.2 -24.3 -56.1 -24.45 -56.1 -24.55 -56.05 -24.65 -56 -24.8 -56 -24.9 -55.95 -25.05 -55.9 -25.15 -55.85 -25.3 -51.1 -29.15 -45.3 -31.15 -31.35 -35.9 -16.7 -37.75 -11.1 -38.45 -5.5 -39.1 6.3232421875 -40.491015625 18.15 -41.45 18.3765625 -41.391015625 18.6 -41.35 19.010546875 -41.308984375 19.25 -41.55 21.36953125 -41.6994140625 23.45 -41.85
M 46.5 -21.3
Q 48.05 -13.15 47.9 -4.75 47.8 0.25 47.5 5.25 47.25 8.85 46.45 12.35 41 16.05 34.6 18 22.4 21.65 9.7 23 -13.95 25.6 -37.55 25.05 -42 19.25 -44.55 12.35 -47.45 4.3 -48 -4.25 -48.35 -9.25 -48.45 -14.25 -48.55 -17.85 -48.1 -21.35 -47.95 -21.45 -47.8 -21.55 -47.65 -21.65 -47.6 -21.75 -47.5 -21.85 -47.45 -21.95 -47.35 -22.1 -47.25 -22.3 -47.2 -22.4 -47.1 -22.5 -42.2 -26.3 -36.25 -28.1 -25.05 -31.45 -13.4 -33 -1.6 -34.6 10.25 -35.6 27.15 -36.85 43.4 -32.8 45.35 -27.25 46.5 -21.3
M 48.35 23.8
Q 47.7607421875 25.1169921875 47.15 26.4 40.9888671875 28.5169921875 34.65 30.05 31.7 30.8 28.7 31.45 -1.45 38.1 -32.3 37 -32.8685546875 36.6669921875 -33.45 36.3 -32.794140625 36.27890625 -32.15 36.2 -22.75 35.05 -13.25 34.25 12.4 31.95 37.6 26.75 43.114453125 25.61640625 48.35 23.8
M -48.45 -33.65
Q -49.084375 -35.0455078125 -49.65 -36.5 -49.15 -38.05 -48.5 -39.55 -44.9 -47.95 -37.05 -51.15 -36.95 -50.15 -36.5 -49.25 -35.8 -47.8 -35.45 -46.25 -32.2779296875 -42.11015625 -28.05 -40 -38.59375 -37.91015625 -48.45 -33.65 Z" stroke="none" fill="#000000"></path>

<path d="M -49.65 -36.5
Q -49.084375 -35.0455078125 -48.45 -33.65 -38.59375 -37.91015625 -28.05 -40 -32.2779296875 -42.11015625 -35.45 -46.25 -35.8 -47.8 -36.5 -49.25 -36.95 -50.15 -37.05 -51.15 -44.9 -47.95 -48.5 -39.55 -49.15 -38.05 -49.65 -36.5
M 47.15 26.4
Q 47.7607421875 25.1169921875 48.35 23.8 43.114453125 25.61640625 37.6 26.75 12.4 31.95 -13.25 34.25 -22.75 35.05 -32.15 36.2 -32.794140625 36.27890625 -33.45 36.3 -32.8685546875 36.6669921875 -32.3 37 -1.45 38.1 28.7 31.45 31.7 30.8 34.65 30.05 40.9888671875 28.5169921875 47.15 26.4
M 37.1 -42.15
Q 30.3 -42.5 23.45 -41.85 21.36953125 -41.6994140625 19.25 -41.55 19.010546875 -41.308984375 18.6 -41.35 18.3765625 -41.391015625 18.15 -41.45 6.3232421875 -40.491015625 -5.5 -39.1 -11.1 -38.45 -16.7 -37.75 -31.35 -35.9 -45.3 -31.15 -51.1 -29.15 -55.85 -25.3 -55.9 -25.15 -55.95 -25.05 -56 -24.9 -56 -24.8 -56.05 -24.65 -56.1 -24.55 -56.1 -24.45 -56.2 -24.3 -56.25 -24.2 -56.35 -24.05 -55.7 -19.4 -55 -14.75 -54.1 -9.05 -52.65 -3.5 -52.1384765625 -1.51328125 -51.65 0.45 -52.1865234375 -2.883984375 -52.4 -6.3 -52.75 -12.1 -52.6 -17.95 -52.55 -21.2 -50.9 -23.85 -49.75 -25.65 -47.9 -26.7 -35.65 -33.9 -21.5 -36.15 -8.35 -38.2 5 -39.25 7.95 -39.45 10.75 -39.6 22.4 -40.35 33.95 -38.95 37.95 -38.4 41.95 -37.55 44.6 -37 46.8 -35.5 47.6 -33.95 47.9 -32.3 49.4 -24.95 50.8 -17.55 51.65 -13.2 51.95 -8.75 52.7 3.35 49.35 14.75 49.15 15.45 48.55 15.9 45.95 17.75 42.95 18.85 40.55 20.35 37.75 21.2 21.2 26.45 3.75 27.8 -16.7 29.4 -37.2 29.45 -40 30.05 -41.2 27.25 -42.3 24.7 -43.85 22.4 -45.6 19.8 -46.85 16.9 -48.2044921875 13.7396484375 -49.25 10.5 -48.939453125 11.808984375 -48.65 13.1 -46.65 22.1 -42.4 30.25 -42.3 30.4 -42.15 30.5 -41.85 30.75 -41.6 31 -41.4 31.25 -41.15 31.45 -40.85 31.75 -40.55 32 -40.4603515625 32.0896484375 -40.4 32.15 -40.1583984375 32.26171875 -39.95 32.35 -20.6630859375 31.33359375 -1.25 29 12.1 27.4 25.4 25.15 38.601171875 22.860546875 51 18.4 51.3962890625 17.920703125 51.85 17.5 51.8923828125 17.487890625 51.9 17.45 51.95 17.25 52 17 52.1 16.75 52.15 16.5 52.2 16.1 52.4 15.75 52.45 15.65 52.55 15.5 52.8 10.85 53.1 6.2 53.45 0.6 53.35 -5.15 53.2 -13.45 52.6 -21.6 51.85 -30.95 48.55 -39.55 43.25 -41.8 37.1 -42.15
M 24.3 -56.45
Q 24.35 -53.55 23.7 -50.8 23.0912109375 -48.1 21.9 -45.7 23.124609375 -45.7859375 24.3 -45.85 30.62421875 -46.1388671875 36.9 -45.9 37.005859375 -46.264453125 37.25 -46.65 37 -49.9 34.7 -52.2 32.65 -54.3 29.9 -55.35 27.05 -56.5 24.3 -56.45 Z" stroke="none" fill="#666056"></path>

<path d="M 47.9 -4.75
Q 48.05 -13.15 46.5 -21.3 45.35 -27.25 43.4 -32.8 27.15 -36.85 10.25 -35.6 -1.6 -34.6 -13.4 -33 -25.05 -31.45 -36.25 -28.1 -42.2 -26.3 -47.1 -22.5 -47.2 -22.4 -47.25 -22.3 -47.35 -22.1 -47.45 -21.95 -47.5 -21.85 -47.6 -21.75 -47.65 -21.65 -47.8 -21.55 -47.95 -21.45 -48.1 -21.35 -48.55 -17.85 -48.45 -14.25 -48.35 -9.25 -48 -4.25 -47.45 4.3 -44.55 12.35 -42 19.25 -37.55 25.05 -13.95 25.6 9.7 23 22.4 21.65 34.6 18 41 16.05 46.45 12.35 47.25 8.85 47.5 5.25 47.8 0.25 47.9 -4.75
M 27.2 -31.8
Q 27.65 -32.4 28.4 -32.4 38.55 -30.05 42.6 -20.75 44.4 -16.6 44.15 -12 43.7 -5.05 37.45 -2.3 36.85 -2.05 36.45 -2.6 34.6 -5.25 37.8 -7.1 38.65 -7.6 39.05 -8.5 41.7 -15 38 -21.1 34.75 -26.4 28.75 -28.15 25.3 -29.15 27.2 -31.8
M 11.35 -22.9
Q 12.05 -23.35 12.8 -23.45 15.3 -22.45 15.7 -19.4 16.55 -13.35 15.15 -7.6 15 -7 14.4 -6.9 11.6 -6.35 10.65 -9.15 9.75 -11.85 9.5 -14.75 9.35 -17.15 9.5 -19.5 9.6 -21.7 11.35 -22.9
M 41.45 2.4
Q 43.583984375 4.35625 42.65 7.85 41.3 12.75 36.55 14.95 27.8 19.05 18.1 18.6 15.4 18.45 12.9 17.5 9.8 19.05 6.6 20.65 0.4 23.8 -6.55 22.45 -12.65 21.25 -18.1 18.1 -19.25 17.4 -20.55 17.8 -25.3 19.2 -30 18.25 -32.6 17.7 -33.15 15.1 -33.494140625 13.3267578125 -33.15 11.8 -35.2111328125 12.3693359375 -37.05 11.45 -37.7 11.1 -37.55 10.3 -37 7.95 -34.3 7.6 -33.2 7.45 -32.25 7.25 -27.55 7.2 -27.25 11.2 -27.2 11.7 -27.7 11.95 -28.3529296875 12.312890625 -29 12.35 -29.0552734375 12.6935546875 -29.15 13.05 -29.35 13.8 -29.05 14.45 -25.95 15.4 -22.4 14.15 -19.55 13.15 -16.85 14.4 -12.65 16.3 -8.4 17.95 -6.15 18.8 -3.75 18.85 4.4 19.1 11 14.05 12.5 12.9 14.4 13.55 20.25 15.55 26.45 14.3 30.25 13.5 33.8 11.95 36.45 10.8 38.3 8.65 38.5 8.15 38.7 7.7 39 7 39.15 6.25 39.2 6.2 39.2 6.1 38.3666015625 5.42421875 37.9 4.6 36.81015625 4.8150390625 35.65 3.8 35 3.25 35.4 2.5 36.9 -0.6 40.15 -1.35 43.65 -0.8 41.8 2.05 41.6720703125 2.2548828125 41.45 2.4
M -39.7 -12.05
Q -40.15 -6.55 -36.7 -2.3 -33.45 0.2 -30.05 2.1 -29.65 2.3 -29.6 2.8 -29.55 3.6 -30 4.25 -33.2 5.65 -36.4 3.15 -38.55 1.55 -40.1 -0.55 -45.2 -7.35 -43 -15.75 -40.6 -24.7 -31.85 -28.2 -28.45 -27.5 -30.4 -24.7 -30.75 -24.15 -31.4 -23.85 -38.95 -20.25 -39.7 -12.05
M -16.5 -22.25
Q -16.3 -22.3 -16.1 -22.35 -12.85 -21 -12.15 -17.2 -11.35 -13.05 -11 -8.8 -10.65 -5.45 -12.95 -3.55 -13.5 -3.1 -14.1 -3.5 -17.55 -5.8 -18.25 -10 -19.3 -16.05 -17.35 -21.6 -17.15 -22.15 -16.5 -22.25 Z" stroke="none" fill="#FFD96A"></path>

<path d="M -16.1 -22.35
Q -16.3 -22.3 -16.5 -22.25 -17.15 -22.15 -17.35 -21.6 -19.3 -16.05 -18.25 -10 -17.55 -5.8 -14.1 -3.5 -13.5 -3.1 -12.95 -3.55 -10.65 -5.45 -11 -8.8 -11.35 -13.05 -12.15 -17.2 -12.85 -21 -16.1 -22.35
M -36.7 -2.3
Q -40.15 -6.55 -39.7 -12.05 -38.95 -20.25 -31.4 -23.85 -30.75 -24.15 -30.4 -24.7 -28.45 -27.5 -31.85 -28.2 -40.6 -24.7 -43 -15.75 -45.2 -7.35 -40.1 -0.55 -38.55 1.55 -36.4 3.15 -33.2 5.65 -30 4.25 -29.55 3.6 -29.6 2.8 -29.65 2.3 -30.05 2.1 -33.45 0.2 -36.7 -2.3
M 42.65 7.85
Q 43.583984375 4.35625 41.45 2.4 41.6720703125 2.2548828125 41.8 2.05 43.65 -0.8 40.15 -1.35 36.9 -0.6 35.4 2.5 35 3.25 35.65 3.8 36.81015625 4.8150390625 37.9 4.6 38.3666015625 5.42421875 39.2 6.1 39.2 6.2 39.15 6.25 39 7 38.7 7.7 38.5 8.15 38.3 8.65 36.45 10.8 33.8 11.95 30.25 13.5 26.45 14.3 20.25 15.55 14.4 13.55 12.5 12.9 11 14.05 4.4 19.1 -3.75 18.85 -6.15 18.8 -8.4 17.95 -12.65 16.3 -16.85 14.4 -19.55 13.15 -22.4 14.15 -25.95 15.4 -29.05 14.45 -29.35 13.8 -29.15 13.05 -29.0552734375 12.6935546875 -29 12.35 -28.3529296875 12.312890625 -27.7 11.95 -27.2 11.7 -27.25 11.2 -27.55 7.2 -32.25 7.25 -33.2 7.45 -34.3 7.6 -37 7.95 -37.55 10.3 -37.7 11.1 -37.05 11.45 -35.2111328125 12.3693359375 -33.15 11.8 -33.494140625 13.3267578125 -33.15 15.1 -32.6 17.7 -30 18.25 -25.3 19.2 -20.55 17.8 -19.25 17.4 -18.1 18.1 -12.65 21.25 -6.55 22.45 0.4 23.8 6.6 20.65 9.8 19.05 12.9 17.5 15.4 18.45 18.1 18.6 27.8 19.05 36.55 14.95 41.3 12.75 42.65 7.85
M 12.8 -23.45
Q 12.05 -23.35 11.35 -22.9 9.6 -21.7 9.5 -19.5 9.35 -17.15 9.5 -14.75 9.75 -11.85 10.65 -9.15 11.6 -6.35 14.4 -6.9 15 -7 15.15 -7.6 16.55 -13.35 15.7 -19.4 15.3 -22.45 12.8 -23.45
M 28.4 -32.4
Q 27.65 -32.4 27.2 -31.8 25.3 -29.15 28.75 -28.15 34.75 -26.4 38 -21.1 41.7 -15 39.05 -8.5 38.65 -7.6 37.8 -7.1 34.6 -5.25 36.45 -2.6 36.85 -2.05 37.45 -2.3 43.7 -5.05 44.15 -12 44.4 -16.6 42.6 -20.75 38.55 -30.05 28.4 -32.4 Z" stroke="none" fill="#5B4201"></path>
</g>
</g>
</g>
</g>
</g>
</svg>
