
<svg viewBox="0 0 80 70" height="70px" width="80px" y="0px" x="0px" preserveAspectRatio="none" xmlns:xlink="http://www.w3.org/1999/xlink" version="1.1" xmlns="http://www.w3.org/2000/svg">
<defs></defs>

<g id="Layer_2">
<g transform="matrix( 0.2443389892578125, 0, 0, 0.2443389892578125, -5.6,-13.9)" id="Layer_1">
<g>
<g>
<g>
<path d="M 253 340
Q 248.6 339.9 245 339 247.6 341.9 253.9 340.5 254 340.5 254 340 253.5 340 253 340 Z" stroke="none" fill="#243B44"></path>

<path d="M 244 338
Q 244 337.5 243.95 337 243.1 327.9 242 319 241.35 329.65 243.45 337.9 243.5 338 244 338 Z" stroke="none" fill="#18363D"></path>

<path d="M 258 331
Q 257.5 331 257 331 257 331.5 257.05 332 257.8 337.8 254 339 254 339.5 254 340 259.3 339.3 258.1 332 258 331.5 258 331 Z" stroke="none" fill="#0F2B35"></path>

<path d="M 258 306
Q 258 305.5 258 305 258 304.5 257.8 304.1 257.5 303.5 257 303 257 316.5 257 330 257 330.5 257 331 257.5 331 258 331 258 330.5 258 330 258 318.5 258 307 258 306.5 258 306 Z" stroke="none" fill="#374C52"></path>

<path d="M 255.3 300.75
Q 255.5 301 256 301 256 300.5 255.75 300.3 250.5 296.1 243 299 243 299.5 243 300 245.45 298.95 249 299 249.5 299 250 299 253.7 298.75 255.3 300.75 Z" stroke="none" fill="#553205"></path>

<path d="M 280 303
Q 279.5 303 279.05 303.1 270 305.5 258 305 258 305.5 258 306 258 306.5 258 307 265 307 272 307 272.5 307 273 307 275.4 304.4 279.9 303.5 280 303.5 280 303 Z" stroke="none" fill="#706E62"></path>

<path d="M 294 299
Q 294 298.5 293.75 298.15 292.95 297.05 291 297 290.5 297 290.15 297.2 286.4 299.4 282 301 282 301.5 282 302 282 302.5 282 303 286.2 303.7 287.75 301.8 288 301.5 288 301 288 300.5 288 300 291.1 298.05 293.05 298.85 293.5 299 294 299 Z" stroke="none" fill="#696A5D"></path>

<path d="M 295 301
Q 295.5 301 296 301 296 300.5 295.75 300.25 295.5 300 295 300 294.5 300 294.25 299.75 294 299.5 294 299 293.5 299 293.05 298.85 291.1 298.05 288 300 288 300.5 288 301 291.5 301 295 301 Z" stroke="none" fill="#627170"></path>

<path d="M 171 299
Q 171.5 299 172 299 172 298.5 171.75 298.25 169.55 296.1 166 298 166 298.5 166 299 168.5 299 171 299 Z" stroke="none" fill="#806B54"></path>

<path d="M 194 301
Q 195.5 301 197 301 197.5 301 198 301 198 300.5 197.9 300.5 184.4 297.95 172 299 180.05 302.45 193 301.05 193.5 301 194 301 Z" stroke="none" fill="#746D5E"></path>

<path d="M 210 303
Q 210 302.5 210 302 210 301.5 210 301 209.5 301 209 301 203.5 301 198 301 197.5 301 197 301 195.5 301 194 301 199.3 304.2 209 303.05 209.5 303 210 303 Z" stroke="none" fill="#6C7069"></path>

<path d="M 242 300
Q 242 301 242 302 242 302.5 242 303 244.3 299.8 249.95 299.5 250 299.5 250 299 249.5 299 249 299 245.45 298.95 243 300 242.5 300 242 300 Z" stroke="none" fill="#421805"></path>

<path d="M 242 304
Q 242 303.5 242 303 241.5 303 241 302.95 225.4 302.1 210 301 210 301.5 210 302 210 302.5 210 303 225.5 304 241 304.95 241.5 305 242 305 242 304.5 242 304 Z" stroke="none" fill="#786C5C"></path>

<path d="M 242 303
Q 242 303.5 242 304 242 304.5 242 305 242 311.5 242 318 242 318.5 242 319 243.1 327.9 243.95 337 244 337.5 244 338 244.5 338 244.75 338.25 245 338.5 245 339 248.6 339.9 253 340 253.5 340 254 340 254 339.5 254 339 257.8 337.8 257.05 332 257 331.5 257 331 257 330.5 257 330 257 316.5 257 303 257 302.5 256.8 302.1 256.5 301.5 256 301 255.5 301 255.3 300.75 253.7 298.75 250 299 250 299.5 249.95 299.5 244.3 299.8 242 303 Z" stroke="none" fill="#04050E"></path>

<path d="M 235 292
Q 235 291.5 234.95 291.5 230.5 291 226 291 228.75 292.75 234 292.05 234.5 292 235 292 Z" stroke="none" fill="#D49F3A"></path>

<path d="M 209 290.05
Q 209.5 290 210 290 210 289.5 209.95 289.5 205.5 289 201 289 203.75 290.75 209 290.05 Z" stroke="none" fill="#C18F2B"></path>

<path d="M 186 288
Q 185.5 288 185 288 176.55 288.45 170 287 197.75 294.2 237 293 237.5 293 238 293 238 292.5 238 292 237.5 292 237 292 236 292 235 292 234.5 292 234 292.05 228.75 292.75 226 291 225.5 291 225 290.95 217.6 290.4 210 290 209.5 290 209 290.05 203.75 290.75 201 289 200.5 289 200 288.95 193.25 288.25 186 288 Z" stroke="none" fill="#A16B05"></path>

<path d="M 165 286
Q 165 286.5 165 287 167 287 169 287 169.5 287 170 287 176.55 288.45 185 288 185.5 288 186 288 186 287.5 185.95 287.5 175.25 286.75 165 286 Z" stroke="none" fill="#BD8A1C"></path>

<path d="M 308.05 292
Q 308 291.5 308 291 308 290.5 307.95 290 307.8 287.2 307 285
L 307 284.5
Q 299.65 290.45 306 295 305.5 295 305.45 295.2 303.55 299.7 295 299 295 299.5 295 300 295.5 300 295.75 300.25 296 300.5 296 301 309.15 306 308.05 292 Z" stroke="none" fill="#040C13"></path>

<path d="M 310 279
Q 309.5 279 309 279 309 282.5 309 286 309 286.5 309 287 310.75 284.75 310.05 280 310 279.5 310 279 Z" stroke="none" fill="#48605E"></path>

<path d="M 308 279
Q 308 279.5 308.1 280 308.65 282.65 306 282 307.75 282.8 307.5 284.95 307.5 285 307 285 307.8 287.2 307.95 290 308 290.5 308 291 309.7 290.7 309.1 288 309 287.5 309 287 309 286.5 309 286 309 282.5 309 279 308.5 279 308 279 Z" stroke="none" fill="#0D262D"></path>

<path d="M 306 275
Q 306 274.5 306.1 274.05 306.95 270.6 304 271 304 272.5 304 274 304 274.5 304 275 304.5 275 305 275 305.5 275 306 275 Z" stroke="none" fill="#7F6757"></path>

<path d="M 289 281
Q 289 280.5 288.8 280.35 285.9 278.65 282 278 284.15 280.35 288 280.95 288.5 281 289 281 Z" stroke="none" fill="#765908"></path>

<path d="M 294.05 280
Q 294 279.5 294 279 293.5 279 293.3 279.25 291.9 280.9 289 281 294.35 285.85 294.05 280 Z" stroke="none" fill="#71541A"></path>

<path d="M 301 267
Q 301 267.5 301 268 305.95 264.95 303.6 260.2 303.5 260 303 260 303 260.5 302.9 261 302.25 263.75 301 266 301 266.5 301 267 Z" stroke="none" fill="#A8700F"></path>

<path d="M 312 271
Q 311.5 271 311.3 271.25 309.15 273.65 306 275 305.8 277.7 307.85 278.45 308 278.5 308 279 308.5 279 309 279 309.5 279 310 279 310 278.5 310 278 310 276.5 310 275 312.2 274.7 312.05 272 312 271.5 312 271 Z" stroke="none" fill="#6F6B63"></path>

<path d="M 274 287
Q 274 286.5 273.9 286.5 267.15 285.35 261 284 263.8 288.7 273 287.1 273.5 287 274 287 Z" stroke="none" fill="#C3A357"></path>

<path d="M 265 293
Q 264.5 293 264 293 258.5 293 253 293 257.75 294.75 264.9 293.5 265 293.5 265 293 Z" stroke="none" fill="#DCA440"></path>

<path d="M 274 275
Q 276 277 280 277 280.5 277 281 277 281 276.5 280.85 276.45 277.75 275.25 274 275 Z" stroke="none" fill="#8A7012"></path>

<path d="M 253 293
Q 252.5 293 252 292.95 245 292.5 238 292 238 292.5 238 293 256.15 297.85 273.85 292.55 274 292.5 274 292 273.5 292 273.05 292.15 269.8 293.3 265 293 265 293.5 264.9 293.5 257.75 294.75 253 293 Z" stroke="none" fill="#A97409"></path>

<path d="M 258 274
Q 258 274.5 258 275 258 275.5 257.75 275.75 257.5 276 257 276 256.85 281.65 260.8 283.4 261 283.5 261 284 267.15 285.35 273.9 286.5 274 286.5 274 287 276 287.5 278 287.9 278.5 288 279 288 284.9 292.1 290.75 296.35 291 296.5 291 297 292.95 297.05 293.75 298.15 294 298.5 294 299 294 299.5 294.25 299.75 294.5 300 295 300 295 299.5 295 299 303.55 299.7 305.45 295.2 305.5 295 306 295 299.65 290.45 307 284.5
L 307 285
Q 307.5 285 307.5 284.95 307.75 282.8 306 282 308.65 282.65 308.1 280 308 279.5 308 279 308 278.5 307.85 278.45 305.8 277.7 306 275 305.5 275 305 275 304.5 275 304 275 303.5 275 303.4 274.8 302.25 272.25 298 273 298 273.5 297.95 273.5 294.8 273.8 294 276 294 277 294 278 294 278.5 294 279 294 279.5 294.05 280 294.35 285.85 289 281 288.5 281 288 280.95 284.15 280.35 282 278 282 277.5 281.75 277.25 281.5 277 281 277 280.5 277 280 277 276 277 274 275 274 274.5 273.9 274.45 272 274 270 274 269.5 274 269 274 264 274 259 274 258.5 274 258 274 Z" stroke="none" fill="#1D0803"></path>

<path d="M 256 275
Q 256 275.5 256.1 276 256.7 279.2 255 280 257.35 282.15 260.15 283.8 260.5 284 261 284 261 283.5 260.8 283.4 256.85 281.65 257 276 257.5 276 257.75 275.75 258 275.5 258 275 257.5 275 257 275 256.5 275 256 275 Z" stroke="none" fill="#BF991F"></path>

<path d="M 259 273
Q 259 273.5 259 274 264 274 269 274 269.5 274 270 274 270 273.5 269.95 273.5 264.5 273 259 273 Z" stroke="none" fill="#786108"></path>

<path d="M 317 243
Q 316.5 243 316 243 316 248.5 316 254 316 254.5 316 255 319.4 251.9 318.1 244 318 243.5 318 243 317.5 243 317 243 Z" stroke="none" fill="#66726D"></path>

<path d="M 317.1 229.2
Q 316.5 229.5 316 230 316 236 316 242 316 242.5 316 243 316.5 243 317 243 317.5 243 318 243 318 242.5 318 242 318 240.5 318 239 318 238.5 318 238 318 233.5 318 229 317.5 229 317.1 229.2 Z" stroke="none" fill="#736650"></path>

<path d="M 308 216
Q 308 215.5 308 215
L 307.5 215
Q 306.5 236 304 255 304 256.5 304 258 304 258.5 304 259 308.7 240.2 308 216 Z" stroke="none" fill="#A4690A"></path>

<path d="M 320.05 208
Q 320 207.5 320 207 319.5 207 319 207 318.5 207 318 207 318 214.5 318 222 318 222.5 318 223 321.45 217.95 320.05 208 Z" stroke="none" fill="#6A6251"></path>

<path d="M 133.5 326
Q 133.7 329.7 132 331 131.7 335.8 133.4 338.8 133.5 339 134 339 134 338.5 134 338 134 332 134 326
L 133.5 326 Z" stroke="none" fill="#03222C"></path>

<path d="M 145 297
Q 148.3 303.2 151.75 297.85 152 297.5 152 297
L 151.5 297
Q 152.5 294.8 145 297
M 136 325
Q 136 325.5 136.15 325.55 150.3 330.3 136 325
M 204 237
Q 203.5 237 203.2 236.75 199.2 233.8 191 235 191 235.5 191.25 235.7 197.55 241.1 204 237
M 206 131
Q 206 131.5 206.1 131.5 213 133.1 206 131 Z" stroke="none" fill="#020202"></path>

<path d="M 142 301
Q 142 300.5 142 300 141.5 300 141.45 300.1 140.7 303.2 139 305 139 305.5 139 306 139 306.5 139 307 142.1 305.6 142 301 Z" stroke="none" fill="#2F4E54"></path>

<path d="M 159 299
Q 158.5 299 158.45 298.85 157.25 295.75 152 297 152 297.5 151.75 297.85 148.3 303.2 145 297 144.5 297 144 297 143.5 297 143 297 143 297.5 143.1 297.95 143.65 300.15 142 300 142 300.5 142 301 142.1 305.6 139 307 139 307.5 138.85 307.95 136.75 315.25 134 322 134 323.5 134 325 134 325.5 134 326 134 332 134 338 134 338.5 134 339 148.1 346.35 148 330 148 329.5 148 329 153.05 316.55 157.85 303.95 158 303.5 158 303 158 302.5 158 302 158 301 158 300 158.5 300 158.75 299.75 159 299.5 159 299
M 144.25 303.8
Q 144 303.5 144 303 154.7 315.45 144.25 303.8
M 136.15 325.55
Q 136 325.5 136 325 150.3 330.3 136.15 325.55 Z" stroke="none" fill="#020B16"></path>

<path d="M 144 303
Q 144 303.5 144.25 303.8 154.7 315.45 144 303 Z" stroke="none" fill="#0C0111"></path>

<path d="M 159 298
Q 159 298.5 159 299 159 299.5 158.75 299.75 158.5 300 158 300 158 301 158 302 158 302.5 158 303 159.05 300.55 161.85 299.55 162 299.5 162 299 162 298.5 161.8 298.1 161 296.1 159 298 Z" stroke="none" fill="#576058"></path>

<path d="M 64.05 270.9
Q 64.5 271 65 271 65 270.5 64.75 270.35 60.55 267.45 62 259 67.75 257.8 67.1 254.95 67 254.5 67 254 66.5 254 66.25 254.25 62.45 257.95 59 262 58.45 269.55 64.05 270.9 Z" stroke="none" fill="#081F2D"></path>

<path d="M 142.9 296.5
Q 135.1 294.95 124 293 132.5 298.6 141.95 299.5 142 299.5 142 300 143.65 300.15 143.1 297.95 143 297.5 143 297 143 296.5 142.9 296.5 Z" stroke="none" fill="#6D6C5E"></path>

<path d="M 154 285
Q 156.25 286.75 161 286.05 161.5 286 162 286 162 285.5 161.95 285.5 158 285 154 285 Z" stroke="none" fill="#C89833"></path>

<path d="M 146 290
Q 146 290.5 146 291 150 291 154 291 154.5 291 155 291 155 290.5 154.95 290.5 150.5 290 146 290 Z" stroke="none" fill="#613D04"></path>

<path d="M 144 293
Q 144 294.5 144 296 144 296.5 144 297 144.5 297 145 297 152.5 294.8 151.5 297
L 152 297
Q 157.25 295.75 158.45 298.85 158.5 299 159 299 159 298.5 159 298 159 297.5 159.1 297 160.4 290.6 155 291 154.5 291 154 291 150 291 146 291 146 291.5 145.75 291.75 145 292.5 144 293 Z" stroke="none" fill="#210800"></path>

<path d="M 130 282
Q 130 282.5 130 283 142.9 289.1 164 287.05 164.5 287 165 287 165 286.5 165 286 164.5 286 164 286 163 286 162 286 161.5 286 161 286.05 156.25 286.75 154 285 153.5 285 153 285 140.15 284.85 130 282 Z" stroke="none" fill="#A56F07"></path>

<path d="M 123.05 293.1
Q 123.5 293 124 293 124 292.5 123.85 292.05 123.2 290.3 120 291 119.6 293.95 123.05 293.1 Z" stroke="none" fill="#726E5F"></path>

<path d="M 161 269
Q 160.5 269 160.5 269.05 159.45 276.15 157 265 156.5 265 156 265.1 152.3 265.75 152 270
L 152 269.5
Q 146 272.3 146 265 145.5 265 145.3 265.25 141.2 269.95 140 269 140 268.5 139.75 268.25 134.5 263.2 126 266
L 125.5 266
Q 136.35 273.3 121 273 124.5 274.8 122.25 277.25 122 277.5 122 278 125.6 279.9 129.1 281.8 129.5 282 130 282 140.15 284.85 153 285 153.5 285 154 285 158 285 161.95 285.5 162 285.5 162 286 163 286 164 286 164.5 286 165 286 175.25 286.75 185.95 287.5 186 287.5 186 288 193.25 288.25 200 288.95 200.5 289 201 289 205.5 289 209.95 289.5 210 289.5 210 290 217.6 290.4 225 290.95 225.5 291 226 291 230.5 291 234.95 291.5 235 291.5 235 292 236 292 237 292 237.5 292 238 292 245 292.5 252 292.95 252.5 293 253 293 258.5 293 264 293 264.5 293 265 293 269.8 293.3 273.05 292.15 273.5 292 274 292 274 291.5 274 291 277.7 291.2 278.8 288.9 279 288.5 279 288 278.5 288 278 287.9 276 287.5 274 287 273.5 287 273 287.1 263.8 288.7 261 284 260.5 284 260.15 283.8 257.35 282.15 255 280 256.7 279.2 256.1 276 256 275.5 256 275 256 274.5 255.85 274.05 254.7 270.6 249 269 248.5 269 248.05 269.1 240.5 271.05 234 269 233.5 269 233.3 269.25 228.75 274.45 230 278 229.5 278 229.5 277.9 227.95 270 223 267 222.5 267 222.15 267.2 216.75 270.5 214 270 214 269.5 213.75 269.2 211.3 266.4 202 269 202 268.5 201.75 268.25 198.55 265.1 200 272
L 200 272.5
Q 195.05 271.75 194 266 194 266.5 193.75 266.7 188.9 270.45 186 266 185.5 266 185.05 265.85 175.8 262.85 170 270
L 170 270.5
Q 163.05 263.8 161 269 Z" stroke="none" fill="#F7D640"></path>

<path d="M 120 291
Q 120 290.5 119.75 290.35 117.05 288.45 114 287 114.2 291.3 119 291.05 119.5 291 120 291 Z" stroke="none" fill="#756D57"></path>

<path d="M 91.9 268.05
Q 92 268.5 92 269 92.5 269 93 269 93.5 269 94 269 94 268.5 94.1 268 95.3 262.2 92 261 92 261.5 92.2 261.9 94.3 266.2 89 263 91.1 264.9 91.9 268.05 Z" stroke="none" fill="#615E54"></path>

<path d="M 109 268
Q 108.5 268 108 268 109.55 277.85 129.05 282.9 129.5 283 130 283 130 282.5 130 282 129.5 282 129.1 281.8 125.6 279.9 122 278 121.5 278 121.15 277.75 114.55 273.45 109 268 Z" stroke="none" fill="#A8700B"></path>

<path d="M 109 268
Q 109 267.5 108.8 267.1 106.7 262.8 103 260 103 259.5 102.95 259 102.45 253.55 100 250 101.35 262.35 107.25 267.75 107.5 268 108 268 108.5 268 109 268 Z" stroke="none" fill="#B07714"></path>

<path d="M 90 239
Q 90 239.5 90.1 240 90.5 241.95 88 243 88.05 246.5 90 246.5
L 90 247
Q 94.1 248.1 94.5 245.05 94.5 245 95 245 95 244.5 95.05 244 95.5 239.95 90 239 Z" stroke="none" fill="#200702"></path>

<path d="M 90 239
Q 89.5 239 89.15 238.75 87.95 238.05 86 238 85.5 238 85.15 238.25 75.15 244.65 67 253 67 253.5 67 254 67 254.5 67.1 254.95 67.75 257.8 62 259 60.55 267.45 64.75 270.35 65 270.5 65 271 80.85 278 91.2 269.25 91.5 269 92 269 92 268.5 91.9 268.05 91.1 264.9 89 263 88.5 263 88 263.05 81.1 263.4 79 259 84.65 254.65 89.3 249.25 89.5 249 90 249 90 248.5 90 248 90 247.5 90 247
L 90 246.5
Q 88.05 246.5 88 243 90.5 241.95 90.1 240 90 239.5 90 239 Z" stroke="none" fill="#040915"></path>

<path d="M 89 237
Q 88.5 237 88 237 87.5 237 87 237 86.5 237 86 237 86 237.5 86 238 87.95 238.05 89.15 238.75 89.5 239 90 239 95.5 239.95 95.05 244 95 244.5 95 245 95.5 245 95.6 244.8 99.05 236.85 89 237 Z" stroke="none" fill="#452005"></path>

<path d="M 90 223
Q 89.5 223 89 223 88.5 223 88 223 88 229.5 88 236 88 236.5 88 237 88.5 237 89 237 89 236.5 89 236 90.75 231.25 90.05 224 90 223.5 90 223 Z" stroke="none" fill="#876748"></path>

<path d="M 99 233
Q 99 233.5 99 234 99 241 99.5 247.95 99.5 248 100 248 100 247.5 100 247 100 239 100 231 99.5 231 99 231 99 232 99 233 Z" stroke="none" fill="#DFA34E"></path>

<path d="M 99 223
Q 98.5 223 98 223 98 228.5 98.5 233.95 98.5 234 99 234 99 233.5 99 233 99 232 99 231 99 230.5 99 230 99 226.5 99 223 Z" stroke="none" fill="#A46805"></path>

<path d="M 100 223
Q 99.5 223 99 223 99 226.5 99 230 99 230.5 99 231 99.5 231 100 231 100 230.5 100 230 100 226.5 100 223 Z" stroke="none" fill="#C18834"></path>

<path d="M 100 221
Q 100 221.5 100 222 101.75 218.25 101.05 212 101 211.5 101 211 100.5 211 100 211 100 216 100 221 Z" stroke="none" fill="#CD9438"></path>

<path d="M 90 207
Q 89.5 207 89 207 88.5 207 88 207 88 214.5 88 222 88 222.5 88 223 88.5 223 89 223 89.5 223 90 223 90 222.5 90 222 90 214.5 90 207 Z" stroke="none" fill="#6C7068"></path>

<path d="M 102.05 192
Q 102 191.5 102 191
L 101.5 191
Q 101.7 194.2 100 195 100.55 200.65 100.05 210 100 210.5 100 211 100.5 211 101 211 101 210.5 101 210 101 205 101 200 102.75 197.25 102.05 192 Z" stroke="none" fill="#A7690F"></path>

<path d="M 103 181
Q 102.5 181 102 181 102 185.5 102 190 102 190.5 102 191 103.75 187.75 103.05 182 103 181.5 103 181 Z" stroke="none" fill="#AC6C1E"></path>

<path d="M 92.05 192
Q 92 191.5 92 191 91.5 191 91 191 90.5 191 90 191 90 191.5 90 192 90 192.5 90 193 90 199.5 90 206 90 206.5 90 207 93.45 201.95 92.05 192 Z" stroke="none" fill="#8B6541"></path>

<path d="M 94 159
Q 93.5 159 93 159 92.5 159 92 159 92 166.5 92 174 92 174.5 92 175 94.05 168.55 94 160 94 159.5 94 159 Z" stroke="none" fill="#6E604B"></path>

<path d="M 104 167
Q 103.5 167 103 167 103 170.5 103 174 103 174.5 103 175 104.75 172.75 104.05 168 104 167.5 104 167 Z" stroke="none" fill="#AC7428"></path>

<path d="M 105 160
Q 104.5 160 104 160 104 160.5 104.1 161 104.7 163.7 103 164 103.5 165 103.85 166.05 104 166.5 104 167 105.7 165.2 105.05 161 105 160.5 105 160 Z" stroke="none" fill="#C28A25"></path>

<path d="M 104.5 149
Q 104.7 152.7 103 154 103.2 156.8 103.85 159.05 104 159.5 104 160 104.5 160 105 160 105 159.5 105 159 105 156.5 105 154 105 153.5 105 153 105 151 105 149
L 104.5 149 Z" stroke="none" fill="#A66B09"></path>

<path d="M 105 146
Q 105 147 105 148 105 148.5 105 149 105 151 105 153 105 153.5 105 154 106.75 151.75 106.05 147 106 146.5 106 146 105.5 146 105 146 Z" stroke="none" fill="#CC913F"></path>

<path d="M 96.1 136
Q 96 135.5 96 135 95.5 135 95 135 94.5 135 94 135 94 139 94 143 94 143.5 94 144 97.1 142.1 96.1 136 Z" stroke="none" fill="#616254"></path>

<path d="M 98.05 114
Q 98 113.5 98 113 97.5 113 97.1 113.2 96.5 113.5 96 114 96 115.5 96 117 96 117.5 96 118 98.55 117.55 98.05 114 Z" stroke="none" fill="#666354"></path>

<path d="M 98 107
Q 100.95 107.4 100.1 103.95 100 103.5 100 103 99.5 103 99 103 98.5 103 98 103 98 104.5 98 106 98 106.5 98 107 Z" stroke="none" fill="#666251"></path>

<path d="M 107 119
Q 106.5 119 106 119 106 126.5 106 134 106 134.5 106 135 107.75 132.75 107.05 128 107 127.5 107 127 107 126.5 107 126 107 122.5 107 119 Z" stroke="none" fill="#A66C09"></path>

<path d="M 108.05 118
Q 108 117.5 108 117 107.5 117 107 117 107 117.5 107 118 107 118.5 107 119 107 122.5 107 126 107 126.5 107 127 108.75 123.75 108.05 118 Z" stroke="none" fill="#B57B2A"></path>

<path d="M 109.1 106.8
Q 108.5 106.5 108 106 108 109.5 108 113 108 113.5 108 114 110 112 110 108 110 107.5 110 107 109.5 107 109.1 106.8 Z" stroke="none" fill="#AE7111"></path>

<path d="M 112.1 102.95
Q 112 102.5 112 102 112 101.5 112 101 111.5 101 111 101 110.5 101 110 101 110 103.5 110.5 105.9 110.5 106 111 106 111 105.5 111 105 112.65 105.15 112.1 102.95 Z" stroke="none" fill="#AA6E0B"></path>

<path d="M 139 80
Q 139 79.5 138.95 79.5 132 78.5 129 82 129 82.5 129 83 129 83.5 129 84 133.65 82.15 138.1 80.2 138.5 80 139 80 Z" stroke="none" fill="#A96F0D"></path>

<path d="M 132 69
Q 132 69.5 132 70 132 70.5 132 71 135.5 71 137.8 69.65 138 69.5 138 69 137.5 69 137 69 134.5 69 132 69
M 299.95 86
Q 299.75 81.8 294 83 296.05 85.45 299.1 86.8 299.5 87 300 87 300 86.5 299.95 86 Z" stroke="none" fill="#6B6350"></path>

<path d="M 148 67
Q 147.5 67 147 67 143.5 67 140 67 140 67.5 140 68 140 68.5 140 69 145.05 69.55 147.75 67.65 148 67.5 148 67 Z" stroke="none" fill="#6D624E"></path>

<path d="M 120 88
Q 120 89 120 90 120 90.5 120 91 124.45 87.95 128.25 84.25 128.5 84 129 84 129 83.5 129 83 128.5 83 128.1 83.2 124 85.5 120 88 Z" stroke="none" fill="#A26A0A"></path>

<path d="M 120 91
Q 119.5 91 119.05 91.1 115 92.05 112 99 112 99.5 112 100 112 100.5 112 101 112 101.5 112 102 115.85 96.85 119.75 91.8 120 91.5 120 91 Z" stroke="none" fill="#AC7110"></path>

<path d="M 118 79
Q 117.5 79 117 79 115.05 79.05 114 80 114 80.5 114 81 114 81.5 114 82 116.35 81.35 117.75 79.8 118 79.5 118 79 Z" stroke="none" fill="#686454"></path>

<path d="M 322 187
L 321.5 187
Q 321.65 189.15 320 189 320 192.5 320 196 320 196.5 320 197 323.35 194.85 322.1 188 322 187.5 322 187 Z" stroke="none" fill="#69614E"></path>

<path d="M 309.5 191.1
Q 309.5 191 309 191 309 191.5 309.05 192 309.75 198.75 308 203 308 208.5 308 214 308 214.5 308 215 311.5 203 309.5 191.1 Z" stroke="none" fill="#A36605"></path>

<path d="M 311 175
Q 311 175.5 311.2 175.9 313.2 179.55 311 165 311 169.5 311 174 311 174.5 311 175 Z" stroke="none" fill="#A06402"></path>

<path d="M 313 140
Q 313 143.5 313 147 313 147.5 313 148 313 151 313 154 313 154.5 313 155 314.75 149.25 314.05 141 314 140.5 314 140 313.5 140 313 140 Z" stroke="none" fill="#A7680A"></path>

<path d="M 313 139
Q 313 139.5 313 140 313.5 140 314 140 314 139.5 314 139 314 133 314 127 313.5 127 313 127 313 133 313 139 Z" stroke="none" fill="#CE9237"></path>

<path d="M 313 148
Q 312.5 148 312 148 312 151.5 312 155 312 155.5 312 156 312.5 156 312.75 155.75 313 155.5 313 155 313 154.5 313 154 313 151 313 148 Z" stroke="none" fill="#BF7F2E"></path>

<path d="M 313 120
Q 312.5 120 312 120 312.5 123 312.95 126 313 126.5 313 127 313.5 127 314 127 314 126.5 314 126 314 122.45 313 120 Z" stroke="none" fill="#B97B24"></path>

<path d="M 311 115
Q 311 115.5 311 116 311 116.5 311 117 311.5 118 311.85 119.05 312 119.5 312 120 312.5 120 313 120 313 119.5 313.25 119.15 314.9 116.55 311 115 Z" stroke="none" fill="#A76513"></path>

<path d="M 311 115
Q 311 114.5 311.1 114 312 108.05 308 111 309.45 113.55 310.45 116.85 310.5 117 311 117 311 116.5 311 116 311 115.5 311 115 Z" stroke="none" fill="#B57522"></path>

<path d="M 314 100
Q 314 99.5 313.9 99 313.35 95.65 310 95 310.9 98.1 313.2 99.75 313.5 100 314 100 Z" stroke="none" fill="#676252"></path>

<path d="M 318 107
Q 318 106.5 318.1 106.05 318.95 102.6 316 103 315.3 106.2 317.05 106.85 317.5 107 318 107 Z" stroke="none" fill="#6B624E"></path>

<path d="M 242 75
Q 242 74.5 241.85 74.45 235.25 72.25 226 73 231.3 76.2 241 75.05 241.5 75 242 75
M 324 151
Q 324.5 151 324.55 150.9 328.2 134.85 324 126 324 138 324 150 324 150.5 324 151 Z" stroke="none" fill="#6B624F"></path>

<path d="M 240 85
Q 240 84.5 239.85 84.45 232.6 82.4 223 83 223 83.5 223 84 231.65 83.85 239 84.95 239.5 85 240 85 Z" stroke="none" fill="#A5670B"></path>

<path d="M 225 73
Q 225 72.5 224.85 72.45 218.2 70.3 204 71 212.15 73.8 224 73.05 224.5 73 225 73 Z" stroke="none" fill="#666252"></path>

<path d="M 197 81
Q 197 81.5 197 82 206 81.5 213 82.9 213.5 83 214 83 214 82.5 213.85 82.45 206.75 80.25 197 81 Z" stroke="none" fill="#A66B07"></path>

<path d="M 181 80
Q 181.5 80 182 80 182.5 80 183 79.95 194.4 78.85 175 79 175 79.5 175 80 178 80 181 80 Z" stroke="none" fill="#A76908"></path>

<path d="M 164 79
Q 164 78.5 163.9 78.45 152.5 75.55 141 78 141 78.5 141 79 152.05 76.6 163 78.9 163.5 79 164 79 Z" stroke="none" fill="#A46708"></path>

<path d="M 178 69
Q 178 68.5 177.9 68.5 164.75 66.25 149 67 161.45 69.55 177 69 177.5 69 178 69 Z" stroke="none" fill="#686251"></path>

<path d="M 193 71.05
Q 193.5 71 194 71 194 70.5 193.85 70.45 187.25 68.25 178 69 183.05 72.45 193 71.05 Z" stroke="none" fill="#676353"></path>

<path d="M 296 96
Q 295.5 96 295 96 303.05 101.45 307.4 110.8 307.5 111 308 111 308 110.5 307.85 110.05 304.2 98.5 296 96 Z" stroke="none" fill="#B1731B"></path>

<path d="M 288 87
Q 287.5 87 287 87.05 280.9 87.4 270 87 284.55 88.95 294.15 95.75 294.5 96 295 96 295.5 96 296 96 296 95.5 295.75 95.15 294.5 93.45 288 87 Z" stroke="none" fill="#A96A15"></path>

<path d="M 288 81
Q 288 80.5 287.85 80.05 287.2 78.3 284 79 283.6 81.9 287.05 81.1 287.5 81 288 81 Z" stroke="none" fill="#6B614F"></path>

<path d="M 294 83
Q 294 82.5 293.75 82.2 292.2 80.25 288 81 289.25 83.2 293 83.05 293.5 83 294 83 Z" stroke="none" fill="#69614F"></path>

<path d="M 269 77
Q 269.5 77 270 77 270 76.5 269.85 76.45 263.15 74.3 244 75 254.85 77.65 269 77 Z" stroke="none" fill="#676352"></path>

<path d="M 274 77
Q 273.6 79.9 277.05 79.1 277.5 79 278 79 278 78.5 277.85 78.05 277.2 76.3 274 77 Z" stroke="none" fill="#6F634F"></path>

<path d="M 252 86
Q 251.5 86 251 86.05 245.25 86.75 242 85 241.5 85 241 85 240.5 85 240 85 239.5 85 239 84.95 231.65 83.85 223 84 222.5 84 222 84 217.6 83.9 214 83 213.5 83 213 82.9 206 81.5 197 82 196.5 82 196 81.95 188.85 81.15 182 80 181.5 80 181 80 178 80 175 80 174.5 80 174.05 79.9 169.65 78.85 164 79 163.5 79 163 78.9 152.05 76.6 141 79 140.5 79 140.1 79.2 139.5 79.5 139 80 138.5 80 138.1 80.2 133.65 82.15 129 84 128.5 84 128.25 84.25 124.45 87.95 120 91 120 91.5 119.75 91.8 115.85 96.85 112 102 112 102.5 112.1 102.95 112.65 105.15 111 105 111 105.5 111 106 111 106.5 110.75 106.75 110.5 107 110 107 110 107.5 110 108 110 112 108 114 108 115 108 116 108 116.5 108 117 108 117.5 108.05 118 108.75 123.75 107 127 107 127.5 107.05 128 107.75 132.75 106 135 106 140 106 145 106 145.5 106 146 106 146.5 106.05 147 106.75 151.75 105 154 105 156.5 105 159 105 159.5 105 160 105 160.5 105.05 161 105.7 165.2 104 167 104 167.5 104.05 168 104.75 172.75 103 175 103 177.5 103 180 103 180.5 103 181 103 181.5 103.05 182 103.75 187.75 102 191 102 191.5 102.05 192 102.75 197.25 101 200 101 205 101 210 101 210.5 101 211 101 211.5 101.05 212 101.75 218.25 100 222 100 222.5 100 223 100 226.5 100 230 100 230.5 100 231 100 239 100 247 100 247.5 100 248 100 248.5 100 249 100 249.5 100 250 102.45 253.55 102.95 259 103 259.5 103 260 106.7 262.8 108.8 267.1 109 267.5 109 268 114.55 273.45 121.15 277.75 121.5 278 122 278 122 277.5 122.25 277.25 124.5 274.8 121 273 136.35 273.3 125.5 266
L 126 266
Q 134.5 263.2 139.75 268.25 140 268.5 140 269 141.2 269.95 145.3 265.25 145.5 265 146 265 146 272.3 152 269.5
L 152 270
Q 152.3 265.75 156 265.1 156.5 265 157 265 159.45 276.15 160.5 269.05 160.5 269 161 269 163.05 263.8 170 270.5
L 170 270
Q 175.8 262.85 185.05 265.85 185.5 266 186 266 188.9 270.45 193.75 266.7 194 266.5 194 266 195.05 271.75 200 272.5
L 200 272
Q 198.55 265.1 201.75 268.25 202 268.5 202 269 211.3 266.4 213.75 269.2 214 269.5 214 270 216.75 270.5 222.15 267.2 222.5 267 223 267 227.95 270 229.5 277.9 229.5 278 230 278 228.75 274.45 233.3 269.25 233.5 269 234 269 240.5 271.05 248.05 269.1 248.5 269 249 269 254.7 270.6 255.85 274.05 256 274.5 256 275 256.5 275 257 275 257.5 275 258 275 258 274.5 258 274 258.5 274 259 274 259 273.5 259 273 264.5 273 269.95 273.5 270 273.5 270 274 272 274 273.9 274.45 274 274.5 274 275 277.75 275.25 280.85 276.45 281 276.5 281 277 281.5 277 281.75 277.25 282 277.5 282 278 285.9 278.65 288.8 280.35 289 280.5 289 281 291.9 280.9 293.3 279.25 293.5 279 294 279 294 278.5 294 278 294 277 294 276 294.8 273.8 297.95 273.5 298 273.5 298 273 298 272.5 298 272 298 271.5 298 271 300.2 270.7 300.5 268.05 300.5 268 301 268 301 267.5 301 267 301 266.5 301 266 302.25 263.75 302.9 261 303 260.5 303 260 303 259.5 303 259 303.5 259 304 259 304 258.5 304 258 304 256.5 304 255 306.5 236 307.5 215
L 308 215
Q 308 214.5 308 214 308 208.5 308 203 309.75 198.75 309.05 192 309 191.5 309 191 309 190.5 309 190 309 187.5 309 185 310.75 181.25 310.5 175
L 311 175
Q 311 174.5 311 174 311 169.5 311 165 311 164.5 311 164 311 161.5 311 159 312.65 159.15 312.1 156.95 312 156.5 312 156 312 155.5 312 155 312 151.5 312 148 312.5 148 313 148 313 147.5 313 147 313 143.5 313 140 313 139.5 313 139 313 133 313 127 313 126.5 312.95 126 312.5 123 312 120 312 119.5 311.85 119.05 311.5 118 311 117 310.5 117 310.45 116.85 309.45 113.55 308 111 307.5 111 307.4 110.8 303.05 101.45 295 96 294.5 96 294.15 95.75 284.55 88.95 270 87 269.5 87 269 87 267 87 265 87 264.5 87 264 86.95 258.35 86.65 253 86 252.5 86 252 86
M 240.1 106.55
Q 240 106.5 240 106 233.25 103.8 227.9 106.8 227.5 107 227 107 224.35 105.65 221.15 104.55 221 104.5 221 104 175.95 104.4 132.15 91.55 132 91.5 132 91 137.55 86.55 144.1 83.2 144.5 83 145 83 230.05 79.7 295.05 105.85 295.5 106 296 106 293.1 110.6 287.15 112.45 287 112.5 287 113 268.5 109.35 246 109 245.5 109 245 109 243.2 107.3 240.1 106.55
M 192 120
Q 194 120 195.9 120.45 196 120.5 196 121 243.55 130.45 254.9 176.05 255 176.5 255 177 256.75 182.25 255.5 189.9 255.5 190 255 190 255 190.5 255 191 255 191.5 255.05 192 255.45 196.45 253 198 253 198.5 252.85 198.95 250.1 208.6 244 215 244 215.5 244 216 244 216.5 244 217 243.8 221.3 239 221 239 221.5 238.75 221.75 238.5 222 238 222 238 222.5 238 223 238 223.5 237.85 223.95 236.55 228.2 234 227 234 227.5 233.8 227.9 230.2 234.55 229 230 228.5 230 228.1 230.2 227.5 230.5 227 231 227 231.5 227 232
L 227.5 232
Q 223.3 240.55 213 241 212.5 241 212 241 211.5 241 211 241 211 241.5 211 242
L 211.5 242
Q 210.4 245.4 205 245 204.5 245 204 245 200.5 245 197 245 197 245.5 197.2 245.85 199.95 250.5 178 244 178.5 244 179 244 179 243.5 178.75 243.2 175.05 238.95 175 231 174.5 231 174.5 230.95 174 227 174 223 174 222.5 174 222 174 212.5 174 203 174 202.5 174 202 174 198.5 174 195 174 194.5 174 194 174 189.5 174 185 173.5 185 173.5 184.9 173 182 173 179 172.5 179 172.5 178.95 172 172 172 165 172 164.5 172 164 172 160 172 156 172 155.5 172 155 172 154.5 172 154 171.5 154 171 154 170.5 154 170.5 153.95 170 149 170 144 170 143.5 170 143 170 136 170 129 170.5 129 171 129 171.5 129 172 129 172 128.5 172 128 172 127 172 126 174.35 122.85 178.1 121.2 178.5 121 179 121 179 120.5 179 120 180.5 120 182 120 182.5 120 183 120 183 119.5 183 119 187.5 119 191.95 119.5 192 119.5 192 120
M 121.1 269.5
Q 121 269.5 121 269 129.15 271.35 121.1 269.5
M 115 266
Q 121.6 270.05 115.2 266.6 115 266.5 115 266
M 280.2 271.6
Q 280 271.5 280 271 294.8 278.9 280.2 271.6
M 214 245.5
L 214 245
Q 225.05 244.6 214 245.5
M 188 254.95
Q 187.5 255 187 255 181.2 256.3 180.15 252.95 180 252.5 180 252 191.8 249.2 195.75 254.2 196 254.5 196 255 195.35 254.6 188 254.95 Z" stroke="none" fill="#F7C641"></path>

<path d="M 187 255
Q 187.5 255 188 254.95 195.35 254.6 196 255 196 254.5 195.75 254.2 191.8 249.2 180 252 180 252.5 180.15 252.95 181.2 256.3 187 255
M 214 245
L 214 245.5
Q 225.05 244.6 214 245
M 280 271
Q 280 271.5 280.2 271.6 294.8 278.9 280 271 Z" stroke="none" fill="#F7D73B"></path>

<path d="M 115.2 266.6
Q 121.6 270.05 115 266 115 266.5 115.2 266.6 Z" stroke="none" fill="#F8D83E"></path>

<path d="M 121 269
Q 121 269.5 121.1 269.5 129.15 271.35 121 269 Z" stroke="none" fill="#F8D83F"></path>

<path d="M 179 244
Q 178.5 244 178 244 199.95 250.5 197.2 245.85 197 245.5 197 245 196.5 245 196 245.05 189.05 246.1 179 244 Z" stroke="none" fill="#DFC571"></path>

<path d="M 174 223
Q 174 227 174.5 230.95 174.5 231 175 231 175 230.5 175 230 175 226.5 175 223 174.5 223 174 223 Z" stroke="none" fill="#877140"></path>

<path d="M 174 203
Q 174.5 203 175 203 175 202.5 175.05 202 175.75 197.25 174 195 174 198.5 174 202 174 202.5 174 203 Z" stroke="none" fill="#5F482D"></path>

<path d="M 175 222
Q 175 212.5 175 203 174.5 203 174 203 174 212.5 174 222 174 222.5 174 223 174.5 223 175 223 175 222.5 175 222 Z" stroke="none" fill="#8C6C3F"></path>

<path d="M 234 227
Q 233.5 227 233 227 232.5 227 232.35 227.2 231.15 229.15 229 230 230.2 234.55 233.8 227.9 234 227.5 234 227 Z" stroke="none" fill="#DDC36E"></path>

<path d="M 234 227
Q 236.55 228.2 237.85 223.95 238 223.5 238 223 237.5 223 237.3 223.25 235.8 225.3 233 226 233 226.5 233 227 233.5 227 234 227 Z" stroke="none" fill="#D4BB69"></path>

<path d="M 213 240
Q 213 240.5 213 241 223.3 240.55 227.5 232
L 227 232
Q 226.5 232 226.2 232.25 220.5 237 213 240 Z" stroke="none" fill="#DEC36B"></path>

<path d="M 205 244
Q 205 244.5 205 245 210.4 245.4 211.5 242
L 211 242
Q 210.5 242 210.1 242.2 207.95 243.45 205 244 Z" stroke="none" fill="#D2BA6A"></path>

<path d="M 244 216
Q 243.5 216 243.35 216.25 241.65 218.65 239 220 239 220.5 239 221 243.8 221.3 244 217 244 216.5 244 216 Z" stroke="none" fill="#C0A85F"></path>

<path d="M 255 190
Q 255.5 190 255.5 189.9 256.75 182.25 255 177 255 183 255 189 255 189.5 255 190 Z" stroke="none" fill="#B1924C"></path>

<path d="M 253 195
Q 253 196 253 197 253 197.5 253 198 255.45 196.45 255.05 192 255 191.5 255 191
L 254.5 191
Q 254.7 194.2 253 195 Z" stroke="none" fill="#876824"></path>

<path d="M 174 185
Q 174 184.5 174.05 184 174.75 176.75 173 172 173 175 173 178 173 178.5 173 179 173 182 173.5 184.9 173.5 185 174 185 Z" stroke="none" fill="#70530A"></path>

<path d="M 173 172
Q 173 171.5 173 171 173 168 173 165 172.5 165 172 165 172 172 172.5 178.95 172.5 179 173 179 173 178.5 173 178 173 175 173 172 Z" stroke="none" fill="#CBB270"></path>

<path d="M 172 164
Q 172 164.5 172 165 172.5 165 173 165 173 164.5 173.05 164 173.75 158.75 172 156 172 160 172 164 Z" stroke="none" fill="#62490B"></path>

<path d="M 171 154
Q 171.5 154 172 154 172 153.5 172.05 153 172.75 148.25 171 146 171 149.5 171 153 171 153.5 171 154 Z" stroke="none" fill="#886519"></path>

<path d="M 171 144
Q 170.5 144 170 144 170 149 170.5 153.95 170.5 154 171 154 171 153.5 171 153 171 149.5 171 146 171 145.5 171 145 171 144.5 171 144 Z" stroke="none" fill="#DDC074"></path>

<path d="M 172.05 130
Q 172 129.5 172 129 171.5 129 171 129 171 135.5 171 142 171 142.5 171 143 172.75 137.75 172.05 130 Z" stroke="none" fill="#360C00"></path>

<path d="M 171 129
Q 170.5 129 170 129 170 136 170 143 170 143.5 170 144 170.5 144 171 144 171 143.5 171 143 171 142.5 171 142 171 135.5 171 129 Z" stroke="none" fill="#9F8144"></path>

<path d="M 183 120
Q 187 120 191 120 191.5 120 192 120 192 119.5 191.95 119.5 187.5 119 183 119 183 119.5 183 120 Z" stroke="none" fill="#BE974D"></path>

<path d="M 196 121
Q 195.5 121 195 121 187 121 179 121 178.5 121 178.1 121.2 174.35 122.85 172 126 172 127 172 128 172 128.5 172 129 172 129.5 172.05 130 172.75 137.75 171 143 171 143.5 171 144 171 144.5 171 145 171 145.5 171 146 172.75 148.25 172.05 153 172 153.5 172 154 172 154.5 172 155 172 155.5 172 156 173.75 158.75 173.05 164 173 164.5 173 165 173 168 173 171 173 171.5 173 172 174.75 176.75 174.05 184 174 184.5 174 185 174 189.5 174 194 174 194.5 174 195 175.75 197.25 175.05 202 175 202.5 175 203 175 212.5 175 222 175 222.5 175 223 175 226.5 175 230 175 230.5 175 231 175.05 238.95 178.75 243.2 179 243.5 179 244 189.05 246.1 196 245.05 196.5 245 197 245 200.5 245 204 245 204.5 245 205 245 205 244.5 205 244 207.95 243.45 210.1 242.2 210.5 242 211 242 211 241.5 211 241 211.5 241 212 241 212.5 241 213 241 213 240.5 213 240 220.5 237 226.2 232.25 226.5 232 227 232 227 231.5 227 231 227.5 230.5 228.1 230.2 228.5 230 229 230 231.15 229.15 232.35 227.2 232.5 227 233 227 233 226.5 233 226 235.8 225.3 237.3 223.25 237.5 223 238 223 238 222.5 238 222 238.5 222 238.75 221.75 239 221.5 239 221 239 220.5 239 220 241.65 218.65 243.35 216.25 243.5 216 244 216 244 215.5 244 215 250.1 208.6 252.85 198.95 253 198.5 253 198 253 197.5 253 197 253 196 253 195 254.7 194.2 254.5 191
L 255 191
Q 255 190.5 255 190 255 189.5 255 189 255 183 255 177 255 176.5 254.9 176.05 243.55 130.45 196 121
M 206.1 131.5
Q 206 131.5 206 131 213 133.1 206.1 131.5
M 214.1 136.55
Q 214 136.5 214 136 233.8 141.4 214.1 136.55
M 205.8 129.4
Q 206 129.5 206 130 193.9 132.75 186.25 125.75 186 125.5 186 125 193.55 123 205.8 129.4
M 226.25 141.75
Q 226 141.5 226 141 232.8 147.95 226.25 141.75
M 230.2 146.85
Q 230 146.5 230 146 252.65 157.8 246.5 188.9 246.5 189 246 189 246.5 177.3 242.6 184.8 242.5 185 242 185 240.6 168.05 238.15 160.95 238 160.5 238 160 234.2 153.3 230.2 146.85
M 174.05 132
Q 174 131.5 174 131 180.75 133.55 185.4 142.8 185.5 143 186 143 181.15 148.35 174.1 146.55 174 146.5 174 146 175.2 140.2 174.05 132
M 198.9 134.5
Q 199 134.5 199 135 231.9 143.15 237.9 178 238 178.5 238 179 239.75 181.75 238.55 186.9 238.5 187 238 187 238 187.5 237.9 188 235.25 200.75 228 209 228 209.5 227.8 209.65 225.45 210.95 224 213 224 213.5 223.75 213.8 210.75 230.7 192 227 191.5 227 191.5 226.95 191 221 191 215 191 214.5 191 214 191 213 191 212 190.5 212 190.5 211.95 190 204.5 190 197 190 196.5 190 196 190 191.5 190 187 190 186.5 190 186 190 185.5 190 185 190 184.5 190 184 190 183.5 190 183 189.5 183 189.5 182.95 189 178 189 173 188.5 173 188.5 172.95 188 168 188 163 188 162.5 188 162 188 158 188 154 188 153.5 188 153 188 150 188 147 187.5 147 187.5 146.95 187 142 187 137 187 136.5 187 136 187 134.5 187 133 193.3 133.2 198.9 134.5
M 175.95 186
Q 176 185.5 176 185 188.1 177.05 187.05 190 187 190.5 187 191 181.4 198.1 186.75 193.7 187 193.5 187 193 189.25 205.75 186.5 218.9 186.5 219 186 219 191.3 232.8 186.65 239.75 186.5 240 186 240 182.55 239.95 178.6 231.2 178.5 231 178 231 176.85 217.35 180.45 208.15 180.5 208 181 208 185.3 210.6 182.55 201.15 182.5 201 182 201 174.5 199.05 175.95 186
M 244 192.5
L 244 193
Q 246.4 197.6 247.5 203
L 247 203
Q 241.15 210.65 236.2 219.15 236 219.5 236 220 230.55 221.9 226.05 221.5 226 221.5 226 221 237.2 206.25 244 192.5
M 206 234
Q 219.05 235.5 206.05 234.5 206 234.5 206 234
M 203.2 236.75
Q 203.5 237 204 237 197.55 241.1 191.25 235.7 191 235.5 191 235 199.2 233.8 203.2 236.75 Z" stroke="none" fill="#1E0902"></path>

<path d="M 206.05 234.5
Q 219.05 235.5 206 234 206 234.5 206.05 234.5 Z" stroke="none" fill="#0B010D"></path>

<path d="M 244 193
L 244 192.5
Q 237.2 206.25 226 221 226 221.5 226.05 221.5 230.55 221.9 236 220 236 219.5 236.2 219.15 241.15 210.65 247 203
L 247.5 203
Q 246.4 197.6 244 193 Z" stroke="none" fill="#06030C"></path>

<path d="M 176 185
Q 176 185.5 175.95 186 174.5 199.05 182 201 182.5 201 182.55 201.15 185.3 210.6 181 208 180.5 208 180.45 208.15 176.85 217.35 178 231 178.5 231 178.6 231.2 182.55 239.95 186 240 186.5 240 186.65 239.75 191.3 232.8 186 219 186.5 219 186.5 218.9 189.25 205.75 187 193 187 193.5 186.75 193.7 181.4 198.1 187 191 187 190.5 187.05 190 188.1 177.05 176 185 Z" stroke="none" fill="#050209"></path>

<path d="M 192 215
Q 191.5 215 191 215 191 221 191.5 226.95 191.5 227 192 227 192 226.5 192 226 192 220.5 192 215 Z" stroke="none" fill="#694E08"></path>

<path d="M 191 214
Q 191 214.5 191 215 191.5 215 192 215 192 214.5 192.05 214 192.75 206.25 191 201 191 206 191 211 191 211.5 191 212 191 213 191 214 Z" stroke="none" fill="#C6A961"></path>

<path d="M 227.8 209.65
Q 228 209.5 228 209 228 208.5 227.75 208.25 226.65 207.2 224 210 224 211 224 212 224 212.5 224 213 225.45 210.95 227.8 209.65 Z" stroke="none" fill="#D5B65E"></path>

<path d="M 238 187
Q 238.5 187 238.55 186.9 239.75 181.75 238 179 238 182.5 238 186 238 186.5 238 187 Z" stroke="none" fill="#4B3400"></path>

<path d="M 191 197
Q 190.5 197 190 197 190 204.5 190.5 211.95 190.5 212 191 212 191 211.5 191 211 191 206 191 201 191 200.5 191 200 191 198.5 191 197 Z" stroke="none" fill="#563D01"></path>

<path d="M 191 190
Q 191 189.5 191 189 191 188.5 190.8 188.1 190.5 187.5 190 187 190 191.5 190 196 190 196.5 190 197 190.5 197 191 197 191 196.5 191 196 191 193.5 191 191 191 190.5 191 190 Z" stroke="none" fill="#CC9E26"></path>

<path d="M 191 189
Q 191 189.5 191 190 191 190.5 191 191 191.5 191 191.9 191.2 196.3 193.4 191 189 Z" stroke="none" fill="#F9CA40"></path>

<path d="M 190 183
Q 190 182.5 190.05 182 190.75 176.25 189 173 189 178 189.5 182.95 189.5 183 190 183 Z" stroke="none" fill="#9C824A"></path>

<path d="M 190 184
Q 190 184.5 190 185 190.5 185 190.75 184.75 196.3 179.65 190 183 190 183.5 190 184
M 230 172
Q 230 172.5 230.25 172.65 235.2 176.2 230 172
M 192 173
Q 192 173.5 192.2 173.9 195.15 180.65 192 173
M 198 184
Q 198 184.5 198.1 184.95 200.65 194.85 214 188 214 187.5 213.8 187.45 208 185.05 198 184 Z" stroke="none" fill="#F9CA3E"></path>

<path d="M 189 161
Q 189 161.5 189 162 189 162.5 189 163 189 166 189 169 189 169.5 189 170 189.5 170 189.5 169.9 190.75 164.25 189 161 Z" stroke="none" fill="#E5C97E"></path>

<path d="M 189 163
Q 188.5 163 188 163 188 168 188.5 172.95 188.5 173 189 173 189 172.5 189 172 189 171 189 170 189 169.5 189 169 189 166 189 163 Z" stroke="none" fill="#5A3E00"></path>

<path d="M 189.05 160
Q 189.7 155.75 188 154 188 158 188 162 188 162.5 188 163 188.5 163 189 163 189 162.5 189 162 189 161.5 189 161 189 160.5 189.05 160 Z" stroke="none" fill="#9B721B"></path>

<path d="M 188 137
Q 187.5 137 187 137 187 142 187.5 146.95 187.5 147 188 147 188 146.5 188 146 188 141.5 188 137 Z" stroke="none" fill="#785F2E"></path>

<path d="M 199 135
Q 198.5 135 198 135.05 188.9 136.5 188 137 188 141.5 188 146 188 146.5 188 147 188 150 188 153 188 153.5 188 154 189.7 155.75 189.05 160 189 160.5 189 161 190.75 164.25 189.5 169.9 189.5 170 189 170 189 171 189 172 189 172.5 189 173 190.75 176.25 190.05 182 190 182.5 190 183 196.3 179.65 190.75 184.75 190.5 185 190 185 190 185.5 190 186 190 186.5 190 187 190.5 187.5 190.8 188.1 191 188.5 191 189 196.3 193.4 191.9 191.2 191.5 191 191 191 191 193.5 191 196 191 196.5 191 197 191 198.5 191 200 191 200.5 191 201 192.75 206.25 192.05 214 192 214.5 192 215 192 220.5 192 226 192 226.5 192 227 210.75 230.7 223.75 213.8 224 213.5 224 213 224 212.5 224 212 224 211 224 210 226.65 207.2 227.75 208.25 228 208.5 228 209 235.25 200.75 237.9 188 238 187.5 238 187 238 186.5 238 186 238 182.5 238 179 238 178.5 237.9 178 231.9 143.15 199 135
M 198.1 184.95
Q 198 184.5 198 184 208 185.05 213.8 187.45 214 187.5 214 188 200.65 194.85 198.1 184.95
M 200.45 193.15
Q 200.5 193 201 193 204.6 193.9 209 194 209.5 194 210 194 212.25 192.75 214.8 191.6 215 191.5 215 191 224.95 191 231.9 192.5 232 192.5 232 193 227.45 207.75 216.2 212.45 216 212.5 216 213 212.1 219.5 209.25 222.25 209 222.5 209 223 200.95 225.95 196.05 225.5 196 225.5 196 225 194.75 223.25 197.5 217
L 197 217
Q 192.95 210.95 193.9 205 194 204.5 194 204 198.5 198.3 200.45 193.15
M 192.2 173.9
Q 192 173.5 192 173 195.15 180.65 192.2 173.9
M 230.25 172.65
Q 230 172.5 230 172 235.2 176.2 230.25 172.65
M 230 188.5
L 230 188
Q 237.8 182.85 230 188.5 Z" stroke="none" fill="#F3C043"></path>

<path d="M 230 188
L 230 188.5
Q 237.8 182.85 230 188 Z" stroke="none" fill="#F7C73A"></path>

<path d="M 201 193
Q 200.5 193 200.45 193.15 198.5 198.3 194 204 194 204.5 193.9 205 192.95 210.95 197 217
L 197.5 217
Q 194.75 223.25 196 225 196 225.5 196.05 225.5 200.95 225.95 209 223 209 222.5 209.25 222.25 212.1 219.5 216 213 216 212.5 216.2 212.45 227.45 207.75 232 193 232 192.5 231.9 192.5 224.95 191 215 191 215 191.5 214.8 191.6 212.25 192.75 210 194 209.5 194 209 194 204.6 193.9 201 193 Z" stroke="none" fill="#F8C93D"></path>

<path d="M 198 135.05
Q 198.5 135 199 135 199 134.5 198.9 134.5 193.3 133.2 187 133 187 134.5 187 136 187 136.5 187 137 187.5 137 188 137 188.9 136.5 198 135.05 Z" stroke="none" fill="#C3A764"></path>

<path d="M 174 131
Q 174 131.5 174.05 132 175.2 140.2 174 146 174 146.5 174.1 146.55 181.15 148.35 186 143 185.5 143 185.4 142.8 180.75 133.55 174 131 Z" stroke="none" fill="#0C0311"></path>

<path d="M 230 146
Q 230 146.5 230.2 146.85 234.2 153.3 238 160 238 160.5 238.15 160.95 240.6 168.05 242 185 242.5 185 242.6 184.8 246.5 177.3 246 189 246.5 189 246.5 188.9 252.65 157.8 230 146 Z" stroke="none" fill="#05030A"></path>

<path d="M 226 141
Q 226 141.5 226.25 141.75 232.8 147.95 226 141 Z" stroke="none" fill="#0A010B"></path>

<path d="M 206 130
Q 206 129.5 205.8 129.4 193.55 123 186 125 186 125.5 186.25 125.75 193.9 132.75 206 130 Z" stroke="none" fill="#03020A"></path>

<path d="M 214 136
Q 214 136.5 214.1 136.55 233.8 141.4 214 136 Z" stroke="none" fill="#0E0211"></path>

<path d="M 195 121
Q 195.5 121 196 121 196 120.5 195.9 120.45 194 120 192 120 191.5 120 191 120 187 120 183 120 182.5 120 182 120 180.5 120 179 120 179 120.5 179 121 187 121 195 121 Z" stroke="none" fill="#644002"></path>

<path d="M 240 106
Q 240 106.5 240.1 106.55 243.2 107.3 245 109 245.5 109 246 109 268.5 109.35 287 113 287 112.5 287.15 112.45 293.1 110.6 296 106 295.5 106 295.05 105.85 230.05 79.7 145 83 144.5 83 144.1 83.2 137.55 86.55 132 91 132 91.5 132.15 91.55 175.95 104.4 221 104 221 104.5 221.15 104.55 224.35 105.65 227 107 227.5 107 227.9 106.8 233.25 103.8 240 106 Z" stroke="none" fill="#FEDB69"></path>

<path d="M 252 86
Q 252 85.5 251.95 85.5 247 85 242 85 245.25 86.75 251 86.05 251.5 86 252 86 Z" stroke="none" fill="#B27515"></path>

<path d="M 253 85
Q 253 85.5 253 86 258.35 86.65 264 86.95 264.5 87 265 87 265 86.5 264.8 86.4 260.25 84.25 253 85 Z" stroke="none" fill="#A2630E"></path>

<path d="M 324.1 160
Q 324 159.5 324 159 323.5 159 323 159 322.5 159 322 159 322 162.5 322 166 322 166.5 322 167 325.3 165.8 324.1 160 Z" stroke="none" fill="#666253"></path>

<path d="M 324 126
Q 324 125.5 324 125 324 123 324 121 323.5 121 323.35 120.8 321.95 118.5 322 115 321.5 115 321.45 114.85 319.95 110.55 318 107 317.5 107 317.05 106.85 315.3 106.2 316 103 315.5 103 315 102.95 313.3 102.7 314 100 313.5 100 313.2 99.75 310.9 98.1 310 95 309.5 95 309.25 94.75 305 90.5 300 87 299.5 87 299.1 86.8 296.05 85.45 294 83 293.5 83 293 83.05 289.25 83.2 288 81 287.5 81 287.05 81.1 283.6 81.9 284 79 283.5 79 283 79 280.5 79 278 79 277.5 79 277.05 79.1 273.6 79.9 274 77 273.5 77 273 77 271.5 77 270 77 269.5 77 269 77 254.85 77.65 244 75 243.5 75 243 75 242.5 75 242 75 241.5 75 241 75.05 231.3 76.2 226 73 225.5 73 225 73 224.5 73 224 73.05 212.15 73.8 204 71 203.5 71 203 71 198.5 71 194 71 193.5 71 193 71.05 183.05 72.45 178 69 177.5 69 177 69 161.45 69.55 149 67 148.5 67 148 67 148 67.5 147.75 67.65 145.05 69.55 140 69 139.5 69 139 69 138.5 69 138 69 138 69.5 137.8 69.65 135.5 71 132 71 131.5 71 131.2 71.25 125.35 75.85 118 79 118 79.5 117.75 79.8 116.35 81.35 114 82 114 82.5 113.75 82.8 106.35 91.85 100 102 100 102.5 100 103 100 103.5 100.1 103.95 100.95 107.4 98 107 98 109.5 98 112 98 112.5 98 113 98 113.5 98.05 114 98.55 117.55 96 118 96 126 96 134 96 134.5 96 135 96 135.5 96.1 136 97.1 142.1 94 144 94 151 94 158 94 158.5 94 159 94 159.5 94 160 94.05 168.55 92 175 92 182.5 92 190 92 190.5 92 191 92 191.5 92.05 192 93.45 201.95 90 207 90 214.5 90 222 90 222.5 90 223 90 223.5 90.05 224 90.75 231.25 89 236 89 236.5 89 237 99.05 236.85 95.6 244.8 95.5 245 95 245 94.5 245 94.5 245.05 94.1 248.1 90 247 90 247.5 90 248 90 248.5 90 249 88.85 256.65 91.75 260.2 92 260.5 92 261 95.3 262.2 94.1 268 94 268.5 94 269 102.6 278.9 113.2 286.75 113.5 287 114 287 117.05 288.45 119.75 290.35 120 290.5 120 291 123.2 290.3 123.85 292.05 124 292.5 124 293 135.1 294.95 142.9 296.5 143 296.5 143 297 143.5 297 144 297 144 296.5 144 296 144 294.5 144 293 145 292.5 145.75 291.75 146 291.5 146 291 146 290.5 146 290 150.5 290 154.95 290.5 155 290.5 155 291 160.4 290.6 159.1 297 159 297.5 159 298 161 296.1 161.8 298.1 162 298.5 162 299 163.5 299 165 299 165.5 299 166 299 166 298.5 166 298 169.55 296.1 171.75 298.25 172 298.5 172 299 184.4 297.95 197.9 300.5 198 300.5 198 301 203.5 301 209 301 209.5 301 210 301 225.4 302.1 241 302.95 241.5 303 242 303 242 302.5 242 302 242 301 242 300 242.5 300 243 300 243 299.5 243 299 250.5 296.1 255.75 300.3 256 300.5 256 301 256.5 301.5 256.8 302.1 257 302.5 257 303 257.5 303.5 257.8 304.1 258 304.5 258 305 270 305.5 279.05 303.1 279.5 303 280 303 280.5 303 281 303 281.5 303 282 303 282 302.5 282 302 282 301.5 282 301 286.4 299.4 290.15 297.2 290.5 297 291 297 291 296.5 290.75 296.35 284.9 292.1 279 288 279 288.5 278.8 288.9 277.7 291.2 274 291 274 291.5 274 292 274 292.5 273.85 292.55 256.15 297.85 238 293 237.5 293 237 293 197.75 294.2 170 287 169.5 287 169 287 167 287 165 287 164.5 287 164 287.05 142.9 289.1 130 283 129.5 283 129.05 282.9 109.55 277.85 108 268 107.5 268 107.25 267.75 101.35 262.35 100 250 100 249.5 100 249 100 248.5 100 248 99.5 248 99.5 247.95 99 241 99 234 98.5 234 98.5 233.95 98 228.5 98 223 98.5 223 99 223 99.5 223 100 223 100 222.5 100 222 100 221.5 100 221 100 216 100 211 100 210.5 100.05 210 100.55 200.65 100 195 101.7 194.2 101.5 191
L 102 191
Q 102 190.5 102 190 102 185.5 102 181 102.5 181 103 181 103 180.5 103 180 103 177.5 103 175 103 174.5 103 174 103 170.5 103 167 103.5 167 104 167 104 166.5 103.85 166.05 103.5 165 103 164 104.7 163.7 104.1 161 104 160.5 104 160 104 159.5 103.85 159.05 103.2 156.8 103 154 104.7 152.7 104.5 149
L 105 149
Q 105 148.5 105 148 105 147 105 146 105.5 146 106 146 106 145.5 106 145 106 140 106 135 106 134.5 106 134 106 126.5 106 119 106.5 119 107 119 107 118.5 107 118 107 117.5 107 117 107.5 117 108 117 108 116.5 108 116 108 115 108 114 108 113.5 108 113 108 109.5 108 106 108.5 106.5 109.1 106.8 109.5 107 110 107 110.5 107 110.75 106.75 111 106.5 111 106 110.5 106 110.5 105.9 110 103.5 110 101 110.5 101 111 101 111.5 101 112 101 112 100.5 112 100 112 99.5 112 99 115 92.05 119.05 91.1 119.5 91 120 91 120 90.5 120 90 120 89 120 88 124 85.5 128.1 83.2 128.5 83 129 83 129 82.5 129 82 132 78.5 138.95 79.5 139 79.5 139 80 139.5 79.5 140.1 79.2 140.5 79 141 79 141 78.5 141 78 152.5 75.55 163.9 78.45 164 78.5 164 79 169.65 78.85 174.05 79.9 174.5 80 175 80 175 79.5 175 79 194.4 78.85 183 79.95 182.5 80 182 80 188.85 81.15 196 81.95 196.5 82 197 82 197 81.5 197 81 206.75 80.25 213.85 82.45 214 82.5 214 83 217.6 83.9 222 84 222.5 84 223 84 223 83.5 223 83 232.6 82.4 239.85 84.45 240 84.5 240 85 240.5 85 241 85 241.5 85 242 85 247 85 251.95 85.5 252 85.5 252 86 252.5 86 253 86 253 85.5 253 85 260.25 84.25 264.8 86.4 265 86.5 265 87 267 87 269 87 269.5 87 270 87 280.9 87.4 287 87.05 287.5 87 288 87 294.5 93.45 295.75 95.15 296 95.5 296 96 304.2 98.5 307.85 110.05 308 110.5 308 111 312 108.05 311.1 114 311 114.5 311 115 314.9 116.55 313.25 119.15 313 119.5 313 120 314 122.45 314 126 314 126.5 314 127 314 133 314 139 314 139.5 314 140 314 140.5 314.05 141 314.75 149.25 313 155 313 155.5 312.75 155.75 312.5 156 312 156 312 156.5 312.1 156.95 312.65 159.15 311 159 311 161.5 311 164 311 164.5 311 165 313.2 179.55 311.2 175.9 311 175.5 311 175
L 310.5 175
Q 310.75 181.25 309 185 309 187.5 309 190 309 190.5 309 191 309.5 191 309.5 191.1 311.5 203 308 215 308 215.5 308 216 308.7 240.2 304 259 303.5 259 303 259 303 259.5 303 260 303.5 260 303.6 260.2 305.95 264.95 301 268 300.5 268 300.5 268.05 300.2 270.7 298 271 298 271.5 298 272 298 272.5 298 273 302.25 272.25 303.4 274.8 303.5 275 304 275 304 274.5 304 274 304 272.5 304 271 306.95 270.6 306.1 274.05 306 274.5 306 275 309.15 273.65 311.3 271.25 311.5 271 312 271 315.85 265.35 316 256 316 255.5 316 255 316 254.5 316 254 316 248.5 316 243 316 242.5 316 242 316 236 316 230 316.5 229.5 317.1 229.2 317.5 229 318 229 318 228.5 318 228 318 225.5 318 223 318 222.5 318 222 318 214.5 318 207 318.5 207 319 207 319.5 207 320 207 320 206.5 320 206 320 201.5 320 197 320 196.5 320 196 320 192.5 320 189 321.65 189.15 321.5 187
L 322 187
Q 322 186.5 322 186 322 176.5 322 167 322 166.5 322 166 322 162.5 322 159 322.5 159 323 159 323.5 159 324 159 324 158.5 324 158 324 154.5 324 151 324 150.5 324 150 324 138 324 126
M 234 300.5
L 234 300
Q 244.4 299.2 234 300.5 Z" stroke="none" fill="#9C612A"></path>

<path d="M 234 300
L 234 300.5
Q 244.4 299.2 234 300 Z" stroke="none" fill="#A96719"></path>

<path d="M 324 121
Q 324 120.5 324.1 120 325.2 115.3 322 115 321.95 118.5 323.35 120.8 323.5 121 324 121 Z" stroke="none" fill="#686151"></path>
</g>
</g>
</g>
</g>
</g>
</svg>
