
<svg viewBox="0 0 80 70" height="70px" width="80px" y="0px" x="0px" preserveAspectRatio="none" xmlns:xlink="http://www.w3.org/1999/xlink" version="1.1" xmlns="http://www.w3.org/2000/svg">
<defs></defs>

<g id="Layer_2">
<g transform="matrix( 0.2443389892578125, 0, 0, 0.2443389892578125, -5.6,-13.9)" id="Layer_1">
<g>
<g>
<g>
<path d="M 244.75 330.75
Q 245 330.5 245 330 244.5 330 244 330 243.5 330 243 330 242.4 336.6 245.25 339.75 245.5 340 246 340 246 339.5 246.15 339.05 247.85 334.1 244 331 244.5 331 244.75 330.75 Z" stroke="none" fill="#08212B"></path>

<path d="M 251 325
Q 250.5 325 250.15 325.2 248 326.5 246 328 246 328.5 246 329 249.1 328.1 250.75 325.8 251 325.5 251 325 Z" stroke="none" fill="#2F4E56"></path>

<path d="M 258 299
Q 258 298.5 257.75 298.3 252.85 294.45 245 297 245 297.5 245 298 248.45 300.1 257 299.05 257.5 299 258 299 Z" stroke="none" fill="#150200"></path>

<path d="M 279 311
Q 279 310.5 279 310 278.8 306.2 275 306 277.1 307.9 278.4 310.8 278.5 311 279 311 Z" stroke="none" fill="#2F4C54"></path>

<path d="M 263.9 298.55
Q 264 298.5 264 298 264 297.5 263.75 297.25 263.5 297 263 297 262.5 297 262 297 261 297 260 297 260 297.5 260 298 260 298.5 260 299 262 299 263.9 298.55 Z" stroke="none" fill="#1B0E0A"></path>

<path d="M 270 297
Q 269.5 297 269 297 267.5 297 266 297 266 297.5 266 298 267.2 299.8 269.1 300.8 269.5 301 270 301 270 300.5 269.75 300.15 269 299 268 298 269 298 269.8 297.6 270 297.5 270 297 Z" stroke="none" fill="#5D6C68"></path>

<path d="M 275 306
Q 274.5 306 274.25 305.75 272 303.5 270 301 269.5 301 269.1 300.8 267.2 299.8 266 298 265.5 298 265 298 264.5 298 264 298 264 298.5 263.9 298.55 262 299 260 299 259.5 299 259 299 258.5 299 258 299 257.5 299 257 299.05 248.45 300.1 245 298 245 299 245 300 245 300.5 245 301 254.95 306.1 262.75 313.25 263 313.5 263 314 259.15 321.15 251.2 324.45 251 324.5 251 325 251 325.5 250.75 325.8 249.1 328.1 246 329 246 329.5 245.75 329.75 245.5 330 245 330 245 330.5 244.75 330.75 244.5 331 244 331 247.85 334.1 246.15 339.05 246 339.5 246 340 272.3 338.3 278.9 311.95 279 311.5 279 311 278.5 311 278.4 310.8 277.1 307.9 275 306 Z" stroke="none" fill="#020D16"></path>

<path d="M 163 308.5
L 163 309
Q 163 309.5 163.25 309.75 163.5 310 164 310 164 309.5 164 309 166.95 308.45 169.1 307.2 169.5 307 170 307 170 306.5 169.9 306.45 167.3 305.85 161 307 160.9 308.65 163 308.5 Z" stroke="none" fill="#6C695A"></path>

<path d="M 180 307
Q 180 306.5 180 306 181 306 181.8 305.6 182 305.5 182 305 181.5 305 181.2 304.75 178.4 302.55 172 305 172 305.5 172 306 172 306.5 172 307 175.5 307 179 307 179.5 307 180 307 Z" stroke="none" fill="#7B6D56"></path>

<path d="M 192 305
Q 191.5 305 191 305 190.5 305 190 305 189.5 305 189 305 185.5 305 182 305 182 305.5 181.8 305.6 181 306 180 306 180 306.5 180 307 187 307.5 191.85 305.55 192 305.5 192 305 Z" stroke="none" fill="#677268"></path>

<path d="M 198 305
Q 198 304.5 198 304 200 304 201.9 303.55 202 303.5 202 303 201.5 303 201 302.95 194.35 302.35 190 304 190 304.5 190 305 190.5 305 191 305 191.5 305 192 305 194.5 305 197 305 197.5 305 198 305 Z" stroke="none" fill="#716D58"></path>

<path d="M 206 303
Q 205.5 303 205 303 203.5 303 202 303 202 303.5 201.9 303.55 200 304 198 304 198 304.5 198 305 204.25 305.75 207.8 303.65 208 303.5 208 303 207.5 303 207 303 206.5 303 206 303 Z" stroke="none" fill="#687267"></path>

<path d="M 220 303
Q 220 302.5 220 302 221 302 221.8 301.6 222 301.5 222 301 221.5 301 221 300.95 214 300.3 206 302 206 302.5 206 303 206.5 303 207 303 207.5 303 208 303 213.5 303 219 303 219.5 303 220 303 Z" stroke="none" fill="#766C58"></path>

<path d="M 232 299
Q 231.5 299 231 299 225.2 299.15 222 300 222 300.5 222 301 227.95 301.45 231.8 299.6 232 299.5 232 299 Z" stroke="none" fill="#816950"></path>

<path d="M 241.85 299.55
Q 242 299.5 242 299 241.5 299 241 299 236.5 299 232 299 232 299.5 231.8 299.6 227.95 301.45 222 301 222 301.5 221.8 301.6 221 302 220 302 220 302.5 220 303 231.25 302.8 241.85 299.55 Z" stroke="none" fill="#6C6F62"></path>

<path d="M 319 292
Q 319 291.5 319.1 291 320.45 282.7 316 290 316.3 291.7 318 291.95 318.5 292 319 292 Z" stroke="none" fill="#011724"></path>

<path d="M 316 290
Q 316 289.5 315.9 289.05 315.05 285.75 309 286 310.95 289.05 315 289.9 315.5 290 316 290 Z" stroke="none" fill="#06222C"></path>

<path d="M 315 274
Q 315.85 276.15 318.05 276.85 318.5 277 319 277 319 276.5 318.9 276.05 317.9 272.05 315 274 Z" stroke="none" fill="#5C6760"></path>

<path d="M 288 289
Q 288 289.5 288 290 288 290.5 288 291 293.3 289.8 295.8 285.85 296 285.5 296 285 295.5 285 295.05 285.15 291.25 286.75 288 289 Z" stroke="none" fill="#736E5D"></path>

<path d="M 296 281
Q 296 282.5 296 284 296 284.5 296 285 299.9 284.9 301.75 282.8 302 282.5 302 282 302 281.5 301.8 281.4 301 281 300 281 299.5 281 299 281 297.5 281 296 281
M 278 294
Q 278 294.5 278 295 284.5 295 287.75 291.75 288 291.5 288 291 287.5 291 287 291.05 281.85 291.35 278 293 278 293.5 278 294 Z" stroke="none" fill="#736D5B"></path>

<path d="M 301 278
Q 300.5 278 300 278 300 279 300 280 300 280.5 300 281 301 281 301.8 281.4 302 281.5 302 282 303.5 283 305.1 283.8 305.5 284 306 284 306 283.5 305.75 283.35 303.35 281.65 302 279 301.5 279 301.25 278.75 301 278.5 301 278 Z" stroke="none" fill="#40504B"></path>

<path d="M 303 273
Q 302.5 273 302.1 273.2 301.5 273.5 301 274 301 275.5 301 277 301 277.5 301 278 301 278.5 301.25 278.75 301.5 279 302 279 302 278.5 302 278 302 277.5 302 277 310.9 281.15 308.15 273.95 308 273.5 308 273 307.5 273 307 273 305 273 303 273 Z" stroke="none" fill="#170803"></path>

<path d="M 306 271
Q 306 271.5 306 272 307.5 272 309 272 309.5 272 310 272 310 271.5 310 271 310 270 310 269 310 268.5 310 268 309.5 268 309.45 268.15 308.7 270.7 306 271 Z" stroke="none" fill="#766A55"></path>

<path d="M 306 272
Q 305.5 272 305 272 304 272 303 272 303 272.5 303 273 305 273 307 273 307.5 273 308 273 311.95 272.55 314.15 273.8 314.5 274 315 274 315 273.5 314.75 273.2 313.35 271.65 310 272 309.5 272 309 272 307.5 272 306 272 Z" stroke="none" fill="#3C4334"></path>

<path d="M 312.1 264
Q 312 263.5 312 263 311.5 263 311 263 310.5 263 310 263 310 265 310 267 310 267.5 310 268 310 268.5 310 269 313.2 268.7 312.1 264 Z" stroke="none" fill="#6C6F61"></path>

<path d="M 313 259
Q 312.5 259 312 259 312 260.5 312 262 312 262.5 312 263 314.95 263.45 314.1 259.95 314 259.5 314 259 313.5 259 313 259 Z" stroke="none" fill="#756B55"></path>

<path d="M 316.1 252
Q 316 251.5 316 251 315.5 251 315.1 251.2 314.5 251.5 314 252 314 255 314 258 314 258.5 314 259 317.3 257.8 316.1 252 Z" stroke="none" fill="#736F5E"></path>

<path d="M 278 295
Q 277.5 295 277 295 275.5 295 274 295 273.5 295 273 295.05 267 295.6 263 296 263 296.5 263 297 263.5 297 263.75 297.25 264 297.5 264 298 264.5 298 265 298 265.5 298 266 298 266 297.5 266 297 267.5 297 269 297 269.5 297 270 297 273.25 295.75 278 295.5
L 278 295 Z" stroke="none" fill="#6A6E62"></path>

<path d="M 258 293
Q 258 293.5 258 294 259.1 295.9 262 296 262.5 296 263 296 267 295.6 273 295.05 273.5 295 274 295 274 294.5 274.25 294.15 276.1 291.15 258 293 Z" stroke="none" fill="#8B6847"></path>

<path d="M 245 295
Q 245 295.5 245 296 245 296.5 245 297 252.85 294.45 257.75 298.3 258 298.5 258 299 258.5 299 259 299 259.5 299 260 299 260 298.5 260 298 260 297.5 260 297 261 297 262 297 262.5 297 263 297 263 296.5 263 296 262.5 296 262 296 259.1 295.9 258 294 257.5 294 257.05 293.85 251.2 291.7 245 294 245 294.5 245 295 Z" stroke="none" fill="#351201"></path>

<path d="M 245 296
Q 244.5 296 244.05 296.15 243 296.5 242 297 242 297.5 242 298 242 298.5 242 299 244.65 298.35 244.5 301
L 245 301
Q 245 300.5 245 300 245 299 245 298 245 297.5 245 297 245 296.5 245 296 Z" stroke="none" fill="#64614C"></path>

<path d="M 318.1 239
Q 318 238.5 318 238 317.5 238 317 238 316.5 238 316 238 316 243 316 248 316 248.5 316 249 319.2 246.2 318.1 239 Z" stroke="none" fill="#63736C"></path>

<path d="M 316 232
Q 316 231.5 316.05 231 317.25 223.25 314 220 313.35 227.15 315.4 231.8 315.5 232 316 232 Z" stroke="none" fill="#72634B"></path>

<path d="M 314 209
Q 314 208.5 314.05 208 315.25 200.25 312 197 311.25 204.25 313.4 208.8 313.5 209 314 209 Z" stroke="none" fill="#6A634E"></path>

<path d="M 117 303.05
Q 117.5 303 118 303 118 302.5 117.8 302.1 116.7 299.8 114 299 112.8 303.7 117 303.05 Z" stroke="none" fill="#6C705F"></path>

<path d="M 146.9 340.55
Q 147 340.5 147 340 146.5 340 146 340 142.5 340 139 340 141.75 341.75 146.9 340.55 Z" stroke="none" fill="#2B434B"></path>

<path d="M 137 333
Q 136.5 333 136 333 136 335.5 136.5 337.9 136.5 338 137 338
L 137 337.5
Q 147 341.55 137 333 Z" stroke="none" fill="#011722"></path>

<path d="M 139 329
Q 139 329.5 139 330 142.25 329.25 145.9 328.5 146 328.5 146 328 145.5 328 145 328 141.45 327.95 139 329 Z" stroke="none" fill="#314D55"></path>

<path d="M 122 304
Q 122 303.5 122 303 121.5 303 121 303 119.5 303 118 303 117.6 305.95 121.05 305.1 121.5 305 122 305 122 304.5 122 304 Z" stroke="none" fill="#6B7161"></path>

<path d="M 128 306
Q 128 305.5 127.8 305.4 125 304 122 303 122 303.5 122 304 122 304.5 122 305 122.3 308.2 127 307.1 127.5 307 128 307 128 306.5 128 306 Z" stroke="none" fill="#776D58"></path>

<path d="M 137 309.05
Q 137.5 309 138 309 138 308.5 137.85 308.45 133 307 128 306 128 306.5 128 307 130.6 309.9 137 309.05 Z" stroke="none" fill="#776D5A"></path>

<path d="M 154 320
Q 154 320.5 154.1 320.95 154.65 323.15 153 323 153 323.5 153 324 153 324.5 153 325 157.5 323.85 154.7 320.25 154.5 320 154 320 Z" stroke="none" fill="#384B4E"></path>

<path d="M 153.8 319.4
Q 154 319.5 154 320 154.5 320 154.7 320.25 157.5 323.85 153 325 152.5 325 152.3 325.25 150.45 327.45 146 327 146 327.5 146 328 146 328.5 145.9 328.5 142.25 329.25 139 330 138.5 330 138.1 330.2 137.5 330.5 137 331 137 331.5 137 332 137 332.5 137 333 147 341.55 137 337.5
L 137 338
Q 137.5 339 138.25 339.75 138.5 340 139 340 142.5 340 146 340 146.5 340 147 340 163.45 335.45 173.75 324.75 174 324.5 174 324 171.1 315.4 164.25 310.65 164 310.5 164 310 163.5 310 163.25 309.75 163 309.5 163 309 162.5 309 162 309 160 309 158 309 158 309.5 157.75 309.8 152.65 315.5 146 311 148.15 316.85 153.8 319.4
M 142 330
Q 152.95 334.1 142.15 330.55 142 330.5 142 330 Z" stroke="none" fill="#030C19"></path>

<path d="M 142.15 330.55
Q 152.95 334.1 142 330 142 330.5 142.15 330.55
M 178 234
Q 178 234.5 178.25 234.7 185.3 240 178 234
M 174 209
Q 174 209.5 174.25 209.85 177.05 213.95 176 222
L 176 222.5
Q 181.55 216.7 174 209
M 228 161
Q 228 161.5 228.25 161.7 233.8 166.45 228 161 Z" stroke="none" fill="#02030B"></path>

<path d="M 145 309
Q 144.5 309 144 309 141 309 138 309 141.6 312.05 144.15 310.25 144.5 310 145 310 145 309.5 145 309 Z" stroke="none" fill="#61726C"></path>

<path d="M 158 309
Q 157.5 309 157 309 151.5 309 146 309 146 309.5 146 310 146 310.5 146 311 152.65 315.5 157.75 309.8 158 309.5 158 309 Z" stroke="none" fill="#030405"></path>

<path d="M 157 309
Q 157.5 309 158 309 160 309 162 309 162.5 309 163 309
L 163 308.5
Q 160.9 308.65 161 307 160.5 307 160.2 306.75 152.75 300.55 145 307 145 307.5 145 308 145 308.5 145 309 145 309.5 145 310 145 310.5 145.25 310.75 145.5 311 146 311 146 310.5 146 310 146 309.5 146 309 151.5 309 157 309 Z" stroke="none" fill="#2A1005"></path>

<path d="M 79 306
Q 78.5 306 78 306 74.5 306 71 306 73.75 307.75 78.9 306.55 79 306.5 79 306 Z" stroke="none" fill="#2F4750"></path>

<path d="M 107 294
Q 107 294.5 107 295 107.8 297.2 111 297 111.5 297 112 297 112 296.5 111.75 296.3 110.3 295.25 110 293 109.5 293 109 293 108.5 293 108 293 108 293.5 107.75 293.75 107.5 294 107 294 Z" stroke="none" fill="#6A6655"></path>

<path d="M 98 286
Q 98 286.5 97.8 286.9 95.1 292.1 86 302 85.9 303.65 88.05 303.1 88.5 303 89 303 99.15 300.65 106.2 295.25 106.5 295 107 295 107 294.5 107 294 107.5 294 107.75 293.75 108 293.5 108 293 108 292.5 107.9 292.05 106.15 285.35 98 285 98 285.5 98 286 Z" stroke="none" fill="#0A060C"></path>

<path d="M 98 286
Q 97.5 286 97.1 286.2 82.75 293.25 67 299 66.3 304.7 70.9 305.5 71 305.5 71 306 74.5 306 78 306 78.5 306 79 306 83.5 304.5 88.9 303.5 89 303.5 89 303 88.5 303 88.05 303.1 85.9 303.65 86 302 95.1 292.1 97.8 286.9 98 286.5 98 286
M 75 304.5
L 75 304
Q 90.15 296.3 75 304.5 Z" stroke="none" fill="#01131F"></path>

<path d="M 75 304
L 75 304.5
Q 90.15 296.3 75 304 Z" stroke="none" fill="#06030E"></path>

<path d="M 100 284
Q 99.5 284 99 284 98.5 284 98 284 98 284.5 98 285 106.15 285.35 107.9 292.05 108 292.5 108 293 108.5 293 109 293 109.5 293 110 293 110 292.5 110 292 110.35 282.65 100 284 Z" stroke="none" fill="#3D1A08"></path>

<path d="M 96 281
Q 96 280.5 96.1 280.05 96.9 276.6 94 277 93.3 280.2 95.05 280.85 95.5 281 96 281
M 85.3 230.75
Q 85.5 231 86 231 86 230.5 86.1 230 87.3 224.2 84 223 83.25 228.25 85.3 230.75 Z" stroke="none" fill="#6F6E5F"></path>

<path d="M 94 277
Q 94 276.5 94.1 276 95.2 271.3 92 271 91.25 275.2 93.2 276.75 93.5 277 94 277 Z" stroke="none" fill="#716D59"></path>

<path d="M 90 261
Q 90.5 261 90.7 260.75 93.4 257.6 90 255 90 257.5 90 260 90 260.5 90 261
M 88 246
Q 88 246.5 88 247 88 247.5 88 248 88 248.5 88 249 88.5 249 88.9 248.8 91.45 247.4 88 244 88 245 88 246 Z" stroke="none" fill="#A46537"></path>

<path d="M 89 255
Q 88.5 255 88 255 87.4 260.6 89.35 263.8 89.5 264 90 264 90 263.5 90 263 90 262 90 261 90 260.5 90 260 90 257.5 90 255 89.5 255 89 255
M 83.35 214.8
Q 83.5 215 84 215 84 214.5 84.1 214 85.35 207.15 82 205 81.25 211.25 83.35 214.8 Z" stroke="none" fill="#6C7063"></path>

<path d="M 88 244
Q 88 243.5 88.1 243.05 89.1 238.9 86 239 85.7 243.8 87.4 246.8 87.5 247 88 247 88 246.5 88 246 88 245 88 244 Z" stroke="none" fill="#716F5E"></path>

<path d="M 80 175
Q 80 174.5 80 174 80.25 166.25 78 161 77.25 169.25 79.45 174.85 79.5 175 80 175
M 93.75 95.65
Q 94 95.5 94 95 93.5 95 93 95 91.5 95 90 95 90 96.5 90 98 90 98.5 90 99 91.55 97.05 93.75 95.65 Z" stroke="none" fill="#6E634E"></path>

<path d="M 80 189
Q 80 189.5 80 190 80.5 190.5 81.1 190.8 81.5 191 82 191 82 190.5 82.05 190 82.75 181.75 80 177 80 183 80 189 Z" stroke="none" fill="#72644F"></path>

<path d="M 77.3 150.75
Q 77.5 151 78 151 78 150.5 78.1 150 79.3 144.2 76 143 75.25 148.25 77.3 150.75 Z" stroke="none" fill="#6D614C"></path>

<path d="M 78.1 122
Q 78 121.5 78 121 77.5 121 77 121 76.5 121 76 121 76 123.5 76 126 76 126.5 76 127 79.2 126.7 78.1 122 Z" stroke="none" fill="#676351"></path>

<path d="M 80 115
Q 79.5 115 79 115 78.5 115 78 115 78 116.5 78 118 78 118.5 78 119 80.9 119.45 80.1 115.95 80 115.5 80 115 Z" stroke="none" fill="#72624B"></path>

<path d="M 146 78
Q 146 78.5 146 79 154 78.5 161.95 77.5 162 77.5 162 77 161.5 77 161 77 153.5 77 146 77 146 77.5 146 78 Z" stroke="none" fill="#766349"></path>

<path d="M 108 83
Q 108 83.5 108 84 108 84.5 108 85 121.6 81.1 137.95 79.5 138 79.5 138 79 137.5 79 137 79 120.2 78.7 108 83
M 202 71
Q 202 71.5 202 72 202 72.5 202 73 210.2 72.7 217.9 71.5 218 71.5 218 71 217.5 71 217 71 209.5 71 202 71 Z" stroke="none" fill="#6C6350"></path>

<path d="M 94 93
Q 94 93.5 94 94 94 94.5 94 95 100.8 90.3 107.75 85.65 108 85.5 108 85 107.5 85 107.05 85.15 99.55 88.05 94 93 Z" stroke="none" fill="#6C634F"></path>

<path d="M 312 188
Q 312 187.5 312.1 187 313.35 180.65 310 179 309.4 184.6 311.35 187.8 311.5 188 312 188 Z" stroke="none" fill="#656354"></path>

<path d="M 306 133
Q 306 132.5 306.1 132 307.2 127.3 304 127 305 129.45 305.5 132.95 305.5 133 306 133 Z" stroke="none" fill="#776248"></path>

<path d="M 301.05 108.85
Q 301.5 109 302 109 302 108.5 302.1 108.05 302.95 104.6 300 105 299.3 108.2 301.05 108.85 Z" stroke="none" fill="#6F634E"></path>

<path d="M 299.35 102.75
Q 299.5 103 300 103 300 102.5 300.05 102 300.3 97.2 296 97 297.45 100.05 299.35 102.75 Z" stroke="none" fill="#70624B"></path>

<path d="M 304 115
Q 304 114.5 304.1 114.05 304.95 110.6 302 111 301.3 114.2 303.05 114.85 303.5 115 304 115 Z" stroke="none" fill="#6B624F"></path>

<path d="M 242 69
Q 241.5 69 241 69 233.5 69 226 69 226 69.5 226 70 226 70.5 226 71 235.25 71.75 241.85 69.55 242 69.5 242 69 Z" stroke="none" fill="#6B634E"></path>

<path d="M 177.85 75.55
Q 178 75.5 178 75 177.5 75 177 75 169.5 75 162 75 162 75.5 162 76 162 76.5 162 77 171.25 77.75 177.85 75.55 Z" stroke="none" fill="#76634A"></path>

<path d="M 196 71
Q 196 71.5 196 72 196 72.5 196 73 197.5 73 199 73 199.5 73 200 73 200 72.5 199.85 72.05 199.2 70.3 196 71 Z" stroke="none" fill="#5B6355"></path>

<path d="M 196 73
Q 195.5 73 195 72.95 185.3 72.3 178 74 178 74.5 178 75 188.15 75.65 195.85 73.55 196 73.5 196 73 Z" stroke="none" fill="#666250"></path>

<path d="M 294 93
Q 294 92.5 293.9 92 292.9 86.6 288 85 289.5 91 293.1 92.8 293.5 93 294 93 Z" stroke="none" fill="#6F6450"></path>

<path d="M 294 93
Q 293.3 96.2 295.05 96.85 295.5 97 296 97 296 96.5 296.1 96.05 296.95 92.6 294 93 Z" stroke="none" fill="#6F644F"></path>

<path d="M 278 77
Q 278 76.5 277.75 76.25 273.2 71.3 264 71 269.2 75.3 277 76.9 277.5 77 278 77 Z" stroke="none" fill="#6B634F"></path>

<path d="M 258 69
Q 257.5 69 257 69 249.5 69 242 69 242 69.5 241.85 69.55 235.25 71.75 226 71 225.5 71 225 71 221.5 71 218 71 218 71.5 217.9 71.5 210.2 72.7 202 73 201.5 73 201 73 200.5 73 200 73 199.5 73 199 73 197.5 73 196 73 196 73.5 195.85 73.55 188.15 75.65 178 75 178 75.5 177.85 75.55 171.25 77.75 162 77 162 77.5 161.95 77.5 154 78.5 146 79 145.5 79 145 79 141.5 79 138 79 138 79.5 137.95 79.5 121.6 81.1 108 85 108 85.5 107.75 85.65 100.8 90.3 94 95 94 95.5 93.75 95.65 91.55 97.05 90 99 90 99.5 89.75 99.75 83.35 105.85 80 115 80 115.5 80.1 115.95 80.9 119.45 78 119 78 119.5 78 120 78 120.5 78 121 78 121.5 78.1 122 79.2 126.7 76 127 76 134.5 76 142 76 142.5 76 143 79.3 144.2 78.1 150 78 150.5 78 151 78 155.5 78 160 78 160.5 78 161 80.25 166.25 80 174 80 174.5 80 175 80 175.5 80 176 80 176.5 80 177 82.75 181.75 82.05 190 82 190.5 82 191 82 197.5 82 204 82 204.5 82 205 85.35 207.15 84.1 214 84 214.5 84 215 84 218.5 84 222 84 222.5 84 223 87.3 224.2 86.1 230 86 230.5 86 231 86 234.5 86 238 86 238.5 86 239 89.1 238.9 88.1 243.05 88 243.5 88 244 91.45 247.4 88.9 248.8 88.5 249 88 249 88 251.5 88 254 88 254.5 88 255 88.5 255 89 255 89.5 255 90 255 93.4 257.6 90.7 260.75 90.5 261 90 261 90 262 90 263 90 263.5 90 264 89.25 268.75 91.25 270.75 91.5 271 92 271 95.2 271.3 94.1 276 94 276.5 94 277 96.9 276.6 96.1 280.05 96 280.5 96 281 98 282 99.75 283.3 100 283.5 100 284 110.35 282.65 110 292 110 292.5 110 293 110.3 295.25 111.75 296.3 112 296.5 112 297 114.15 296.4 114.05 298 114 298.5 114 299 116.7 299.8 117.8 302.1 118 302.5 118 303 119.5 303 121 303 121.5 303 122 303 125 304 127.8 305.4 128 305.5 128 306 133 307 137.85 308.45 138 308.5 138 309 141 309 144 309 144.5 309 145 309 145 308.5 145 308 145 307.5 145 307 152.75 300.55 160.2 306.75 160.5 307 161 307 167.3 305.85 169.9 306.45 170 306.5 170 307 170.5 307 171 307 171.5 307 172 307 172 306.5 172 306 172 305.5 172 305 178.4 302.55 181.2 304.75 181.5 305 182 305 185.5 305 189 305 189.5 305 190 305 190 304.5 190 304 194.35 302.35 201 302.95 201.5 303 202 303 203.5 303 205 303 205.5 303 206 303 206 302.5 206 302 214 300.3 221 300.95 221.5 301 222 301 222 300.5 222 300 225.2 299.15 231 299 231.5 299 232 299 236.5 299 241 299 241.5 299 242 299 242 298.5 242 298 242 297.5 242 297 243 296.5 244.05 296.15 244.5 296 245 296 245 295.5 245 295 245 294.5 245 294 251.2 291.7 257.05 293.85 257.5 294 258 294 258 293.5 258 293 276.1 291.15 274.25 294.15 274 294.5 274 295 275.5 295 277 295 277.5 295 278 295 278 294.5 278 294 278 293.5 278 293 281.85 291.35 287 291.05 287.5 291 288 291 288 290.5 288 290 288 289.5 288 289 291.25 286.75 295.05 285.15 295.5 285 296 285 296 284.5 296 284 296 282.5 296 281 297.5 281 299 281 299.5 281 300 281 300 280.5 300 280 300 279 300 278 300.5 278 301 278 301 277.5 301 277 301 275.5 301 274 301.5 273.5 302.1 273.2 302.5 273 303 273 303 272.5 303 272 304 272 305 272 305.5 272 306 272 306 271.5 306 271 308.7 270.7 309.45 268.15 309.5 268 310 268 310 267.5 310 267 310 265 310 263 310.5 263 311 263 311.5 263 312 263 312 262.5 312 262 312 260.5 312 259 312.5 259 313 259 313.5 259 314 259 314 258.5 314 258 314 255 314 252 314.5 251.5 315.1 251.2 315.5 251 316 251 316 250.5 316 250 316 249.5 316 249 316 248.5 316 248 316 243 316 238 316 237.5 316 237 316 234.5 316 232 315.5 232 315.4 231.8 313.35 227.15 314 220 314 219.5 314 219 314 214 314 209 313.5 209 313.4 208.8 311.25 204.25 312 197 312 196.5 312 196 312 192 312 188 311.5 188 311.35 187.8 309.4 184.6 310 179 310 178.5 309.95 178 307.15 156.35 306 133 305.5 133 305.5 132.95 305 129.45 304 127 304 126.5 304 126 304 120.5 304 115 303.5 115 303.05 114.85 301.3 114.2 302 111 302 110.5 302 110 302 109.5 302 109 301.5 109 301.05 108.85 299.3 108.2 300 105 300 104.5 300 104 300 103.5 300 103 299.5 103 299.35 102.75 297.45 100.05 296 97 295.5 97 295.05 96.85 293.3 96.2 294 93 293.5 93 293.1 92.8 289.5 91 288 85 287.5 85 287.2 84.75 282.55 80.95 278 77 277.5 77 277 76.9 269.2 75.3 264 71 263.5 71 263 71.05 259.25 71.2 258 69
M 252.95 79.5
Q 253 79.5 253 80 254 80 255 80 255.5 80 256 80 256 79.5 256 79 268.35 78.65 269.85 84.05 270 84.5 270 85 277.6 84.4 276.15 88.05 276 88.5 276 89 276.5 89 277 89 287.3 91.75 289.5 106
L 289 106
Q 289 107 289.4 107.8 289.5 108 290 108 290 107.5 290 107 292.8 103.3 291.5 110.9 291.5 111 291 111 291 113 291.45 114.9 291.5 115 292 115 292 114.5 292 114 292 113.5 292 113 294.6 115.4 295.5 119.9 295.5 120 296 120 293.3 121.3 293.95 126 294 126.5 294 127 294 128 294 129 294 129.5 294 130 298.3 145.2 298 165 298 165.5 298 166 298 167.5 298 169 298 169.5 298 170 298.5 170 299 170 300.75 175.75 299.5 183.95 299.5 184 299 184 298.3 187.2 299.75 188.3 300 188.5 300 189 302.65 188.35 302.1 191 302 191.5 302 192 302 192.5 302.05 193 302.75 197.75 301 200 300.3 203.2 301.75 204.3 302 204.5 302 205 304.45 209.7 304.5 220
L 304 220
Q 304 220.5 304.1 220.95 309.4 242.55 302 266 301.5 266 301.5 266.1 300.6 270.65 290 275 290 275.5 289.8 275.9 286.1 282.75 282 280 281.5 280 281.1 280.2 280.5 280.5 280 281 280 281.5 279.75 281.65 266.9 290.95 250 287 249.5 287 249 287 246.5 287 244 287 244 287.5 243.85 287.55 219.2 295.9 192 293 192 293.5 191.85 293.55 145.9888671875 308.2009765625 119.6 289 113.0498046875 284.266796875 107.7 277.4 104.6509765625 273.551953125 102 269 102 268.5 102 268 101.95 266.05 101 265 100.5 265 100.45 264.85 97.9 257.25 98 247 98 246.5 98 246 98 243.5 98 241 97.5 241 97.4 240.8 95.25 236.75 96 230 96.5 230 97 230 97 229.5 97 229 97 227.5 97 226 96.5 226 96 226
L 96 226.5
Q 91.3 213.7 92 195 91.5 195 91.5 194.9 89.35 185.15 90 173 89.5 173 89.35 172.75 87.25 169.75 88 164 88 163.5 88 163 88 159 88 155 87.5 155 87.45 154.85 85.25 148.75 86 140 86.5 140 87 140 87 139.5 87 139 87 138.5 87 138 86.5 138 86.15 137.8 84.3 136.7 85 133 86.15 112.15 99 103.5
L 99 104
Q 99.5 104 99.75 103.75 100 103.5 100 103 100 102.5 100 102 100 101.5 100 101 106.4 91.9 121 91.5
L 121 92
Q 121.5 92 121.75 91.75 122 91.5 122 91 122 90.5 122 90 127.95 88.45 136 88.95 136.5 89 137 89 142.7 85.7 153 86.95 153.5 87 154 87 154 86.5 154 86 158 86 161.95 86.5 162 86.5 162 87 162.5 87 163 87 163.5 87 164 87 164 86.5 164 86 175 85.5 184.05 83.1 184.5 83 185 83 192 83 199 83 199.5 83 200 83 200.5 83 201 83 201 82.5 200.8 82.1 200.5 81.5 200 81 218.8 79.8 238 79 238.5 79 239 79 246 79 252.95 79.5 Z" stroke="none" fill="#9D612A"></path>

<path d="M 222 288
Q 222 288.5 222 289 226 289 229.95 288.5 230 288.5 230 288 229.5 288 229 288 225.5 288 222 288 Z" stroke="none" fill="#D8AB32"></path>

<path d="M 191 249
Q 190.5 249 190.05 249.2 186.6 250.6 181 250 185.9 252.4 190.8 249.6 191 249.5 191 249 Z" stroke="none" fill="#564105"></path>

<path d="M 172 233
Q 172 232.5 172 232 171.7 225.8 170 221 169.35 228.15 171.4 232.8 171.5 233 172 233 Z" stroke="none" fill="#C4A960"></path>

<path d="M 169 215
Q 169 214.5 168.9 214.05 167.65 208.85 166 204 165.7 210.8 168.35 214.75 168.5 215 169 215 Z" stroke="none" fill="#B79C5A"></path>

<path d="M 217.95 237
Q 218 236.5 218 236 217.5 236 217.35 236.25 215.65 238.65 213 240 213 240.5 213 241 217.4 240.9 217.95 237 Z" stroke="none" fill="#C0A760"></path>

<path d="M 204 247
Q 203.5 247 203 247.05 197.1 247.9 192 248 192 248.5 192 249 199.25 249.75 203.8 247.6 204 247.5 204 247 Z" stroke="none" fill="#D3BB76"></path>

<path d="M 289 275
Q 289 275.5 288.8 275.65 285.3 277.8 282 280 286.1 282.75 289.8 275.9 290 275.5 290 275 289.5 275 289 275 Z" stroke="none" fill="#A0690C"></path>

<path d="M 250 286
Q 250 286.5 250 287 266.9 290.95 279.75 281.65 280 281.5 280 281 279.5 281 279.1 281.2 267.8 286.8 250 286 Z" stroke="none" fill="#A26B08"></path>

<path d="M 243.85 287.55
Q 244 287.5 244 287 243.5 287 243 287.05 236.65 287.65 230 288 230 288.5 229.95 288.5 226 289 222 289 221.5 289 221 289.05 206.5 291 191 292 191 292.5 191 293 191.5 293 192 293 219.2 295.9 243.85 287.55 Z" stroke="none" fill="#A36E07"></path>

<path d="M 304.1 220.95
Q 304 220.5 304 220 303.5 220 303 220 303 220.5 303.1 221 305.7 236.8 304 254 303.5 254 303.45 254.15 299.2 267.2 289 274 289 274.5 289 275 289.5 275 290 275 300.6 270.65 301.5 266.1 301.5 266 302 266 309.4 242.55 304.1 220.95 Z" stroke="none" fill="#A56B0D"></path>

<path d="M 304 220
L 304.5 220
Q 304.45 209.7 302 205 301.6 212.9 302.9 219 303 219.5 303 220 303.5 220 304 220 Z" stroke="none" fill="#A66710"></path>

<path d="M 145.95 296.5
Q 141.5 296 137 296 139.75 297.75 145 297.05 145.5 297 146 297 146 296.5 145.95 296.5 Z" stroke="none" fill="#C99C1E"></path>

<path d="M 156 295
Q 156 295.5 156 296 160.5 296 164.95 295.5 165 295.5 165 295 164.5 295 164 295 160 295 156 295 Z" stroke="none" fill="#BF8F1D"></path>

<path d="M 137 296
Q 136.5 296 136.05 295.9 126.6736328125 293.6263671875 119.6 289 145.9888671875 308.2009765625 191.85 293.55 192 293.5 192 293 191.5 293 191 293 190.5 293 190 293 176.8 293.05 165 295 165 295.5 164.95 295.5 160.5 296 156 296 155.5 296 155 295.95 149.65 295.65 146 297 145.5 297 145 297.05 139.75 297.75 137 296
M 105 273
Q 104.5 273 104.4 272.8 103.35 270.65 102 269 104.6509765625 273.551953125 107.7 277.4 106.237890625 275.32421875 105 273 Z" stroke="none" fill="#A46C09"></path>

<path d="M 101 261
Q 101 260.5 101.05 260 101.75 255.25 100 253 100 257 100.5 260.95 100.5 261 101 261 Z" stroke="none" fill="#E6AF3E"></path>

<path d="M 100 253
L 99.5 253
Q 99.7 248.75 98 247 97.9 257.25 100.45 264.85 100.5 265 101 265 101 264.5 101 264 101 263.5 101 263 101 262 101 261 100.5 261 100.5 260.95 100 257 100 253 Z" stroke="none" fill="#B97D23"></path>

<path d="M 102 268
Q 102 268.5 102 269 103.35 270.65 104.4 272.8 104.5 273 105 273 105 272.5 104.9 272 103.9 267.1 101 264 101 264.5 101 265 101.95 266.05 102 268 Z" stroke="none" fill="#D2983A"></path>

<path d="M 98 238
Q 98 237.5 98.05 237 98.75 232.25 97 230 97 234 97.5 237.95 97.5 238 98 238 Z" stroke="none" fill="#DC9E45"></path>

<path d="M 96 226
Q 96.5 226 97 226 97 225.5 97.1 225.05 98.55 219.1 95 214 95.65 219.35 95.95 225 96 225.5 96 226 Z" stroke="none" fill="#ECAC47"></path>

<path d="M 97 230
Q 96.5 230 96 230 95.25 236.75 97.4 240.8 97.5 241 98 241 98 240.5 98 240 98 239 98 238 97.5 238 97.5 237.95 97 234 97 230 Z" stroke="none" fill="#A8690F"></path>

<path d="M 93 195
Q 92.5 195 92 195 91.3 213.7 96 226.5
L 96 226
Q 96 225.5 95.95 225 95.65 219.35 95 214 95 213.5 95 213 94.7 203.3 93 195 Z" stroke="none" fill="#AB6E15"></path>

<path d="M 93 193
Q 93 192.5 93.05 192 93.75 186.75 92 184 92 188.5 92.5 192.95 92.5 193 93 193 Z" stroke="none" fill="#D7A42E"></path>

<path d="M 92 184
Q 92 183.5 92.05 183 92.75 178.25 91 176 91 180 91.5 183.95 91.5 184 92 184 Z" stroke="none" fill="#D69C33"></path>

<path d="M 90 172
Q 90 172.5 90 173 89.35 185.15 91.5 194.9 91.5 195 92 195 92.5 195 93 195 93 194.5 93 194 93 193.5 93 193 92.5 193 92.5 192.95 92 188.5 92 184 91.5 184 91.5 183.95 91 180 91 176 91 175.5 91.1 175 91.7 172.3 90 172 Z" stroke="none" fill="#A76A0A"></path>

<path d="M 90 166
L 89.5 166
Q 89.65 163.9 88 164 87.25 169.75 89.35 172.75 89.5 173 90 173 90 172.5 90 172 90 171.5 90 171 90 168.5 90 166 Z" stroke="none" fill="#A3640A"></path>

<path d="M 88 154
Q 88 154.5 88 155 88 159 88 163 88 163.5 88 164 89.65 163.9 89.5 166
L 90 166
Q 90 165.5 89.95 165 89.45 159.05 88 154 Z" stroke="none" fill="#B37718"></path>

<path d="M 88 143
Q 87.5 143 87.45 142.85 87 141.5 87 140 86.5 140 86 140 85.25 148.75 87.45 154.85 87.5 155 88 155 88 154.5 88 154 88 153.5 88 153 88 148 88 143 Z" stroke="none" fill="#AB6D10"></path>

<path d="M 88 126
Q 87.5 126 87 126 87 131.5 87 137 87 137.5 87 138 87 138.5 87 139 87 139.5 87 140 87 141.5 87.45 142.85 87.5 143 88 143 88 142.5 88 142 88 134 88 126 Z" stroke="none" fill="#ECB052"></path>

<path d="M 98.75 104.75
Q 99 104.5 99 104
L 99 103.5
Q 86.15 112.15 85 133 84.3 136.7 86.15 137.8 86.5 138 87 138 87 137.5 87 137 87 131.5 87 126 87.5 126 88 126 88 125.5 88 125 88 124.5 88 124 91.5 112.5 98.75 104.75 Z" stroke="none" fill="#AA6D10"></path>

<path d="M 151.8 146.1
Q 150.25 143.25 151 138 150.5 138 150 138 149.25 143.75 151.35 146.75 151.5 147 152 147 152 146.5 151.8 146.1 Z" stroke="none" fill="#E4BF6C"></path>

<path d="M 151 137
Q 151 137.5 151 138 150.25 143.25 151.8 146.1 152 146.5 152 147 152 148 152.4 148.8 152.5 149 153 149 153 148.5 152.9 148.05 151.75 143.25 152 137 151.5 137 151 137 Z" stroke="none" fill="#956E22"></path>

<path d="M 161.95 86.5
Q 158 86 154 86 154 86.5 154 87 157.5 87 161 87 161.5 87 162 87 162 86.5 161.95 86.5 Z" stroke="none" fill="#9B5C04"></path>

<path d="M 137 89
Q 137 89.5 137 90 144.4 88.4 154 88.5
L 154 88
Q 154 87.5 154 87 153.5 87 153 86.95 142.7 85.7 137 89 Z" stroke="none" fill="#AB6E18"></path>

<path d="M 122 90
Q 122 90.5 122 91 129.7 91.2 136 90.1 136.5 90 137 90 137 89.5 137 89 136.5 89 136 88.95 127.95 88.45 122 90 Z" stroke="none" fill="#A96B15"></path>

<path d="M 121 92
L 121 91.5
Q 106.4 91.9 100 101 100 101.5 100 102 100 102.5 100 103 108.45 95.95 120.05 92.15 120.5 92 121 92 Z" stroke="none" fill="#A76D11"></path>

<path d="M 302.05 193
Q 302 192.5 302 192 301.5 192 301 192 301 195 301 198 301 198.5 301 199 301 199.5 301 200 302.75 197.75 302.05 193 Z" stroke="none" fill="#9D5E03"></path>

<path d="M 302.1 191
Q 302.65 188.35 300 189 300 194 300.5 198.95 300.5 199 301 199 301 198.5 301 198 301 195 301 192 301.5 192 302 192 302 191.5 302.1 191 Z" stroke="none" fill="#B1731F"></path>

<path d="M 299 184
Q 299.5 184 299.5 183.95 300.75 175.75 299 170 299 174.5 299 179 299 179.5 299 180 299 181.5 299 183 299 183.5 299 184 Z" stroke="none" fill="#A36502"></path>

<path d="M 299 170
Q 298.5 170 298 170 298 175 298.5 179.95 298.5 180 299 180 299 179.5 299 179 299 174.5 299 170 Z" stroke="none" fill="#C28530"></path>

<path d="M 297 159
Q 296.5 159 296 159 295.75 165.25 297.45 169.85 297.5 170 298 170 298 169.5 298 169 298 167.5 298 166 297.5 166 297.5 165.95 297 162.5 297 159 Z" stroke="none" fill="#D79D3E"></path>

<path d="M 296 159
Q 296.5 159 297 159 297 158.5 296.95 158 296.6 152.9 295 149 294.25 154.75 295.8 158.1 296 158.5 296 159 Z" stroke="none" fill="#DBA539"></path>

<path d="M 244 192
Q 244.5 192 244.5 191.9 245.75 184.25 244 179 244 185 244 191 244 191.5 244 192 Z" stroke="none" fill="#5F3F01"></path>

<path d="M 293 135
Q 293 135.5 293.05 136 293.7 140.2 290 140 293.75 142.75 294.5 148.95 294.5 149 295 149 295 148.5 295.05 148 295.65 140.35 294 135 293.5 135 293 135 Z" stroke="none" fill="#E9A946"></path>

<path d="M 294 130
Q 294 132 294 134 294 134.5 294 135 295.65 140.35 295.05 148 295 148.5 295 149 296.6 152.9 296.95 158 297 158.5 297 159 297 162.5 297.5 165.95 297.5 166 298 166 298 165.5 298 165 298.3 145.2 294 130 Z" stroke="none" fill="#A6660A"></path>

<path d="M 294 130
Q 294 129.5 294 129 294 128 294 127 293.5 127 293 127 293 130.5 293 134 293 134.5 293 135 293.5 135 294 135 294 134.5 294 134 294 132 294 130 Z" stroke="none" fill="#CE9036"></path>

<path d="M 292 113
Q 292 113.5 292 114 292 114.5 292 115 293.45 119.55 293.05 126 293 126.5 293 127 293.5 127 294 127 294 126.5 293.95 126 293.3 121.3 296 120 295.5 120 295.5 119.9 294.6 115.4 292 113 Z" stroke="none" fill="#A7670D"></path>

<path d="M 290 107
Q 290 107.5 290 108 290.5 109 290.85 110.05 291 110.5 291 111 291.5 111 291.5 110.9 292.8 103.3 290 107 Z" stroke="none" fill="#A6630E"></path>

<path d="M 287 102
Q 287 101.5 286.8 101.05 285.55 97.95 283 96 283.8 99.7 286.2 101.75 286.5 102 287 102 Z" stroke="none" fill="#CC8D39"></path>

<path d="M 163.1 189
Q 163.7 186.3 162 186 162 186.5 161.75 186.75 161.5 187 161 187 161.7 194 162.85 190.95 163 190.5 163 190 163 189.5 163.1 189 Z" stroke="none" fill="#D2B453"></path>

<path d="M 163 126
L 162.5 126
Q 168 119.45 157 125 156.5 125 156.05 125.15 150.5 126.85 147 123 146.5 123 146.05 123.15 132.8 127.8 117 128 116.5 128 116.3 127.75 113.1 123.85 109 128 108.5 128 108.15 127.8 103.25 124.9 106 123 106 122.5 105.75 122.3 101.16015625 118.68671875 102.9 107.55 102.851953125 107.7072265625 102.75 107.85 97.15 115.65 92 124 92 124.5 92.1 125 92.9 129.45 91 136 91.5 136 91.6 136.2 94.95 144 90 146 95.75 156.15 96.95 166 97 166.5 97 167 101.35 169.1 98.15 159.95 98 159.5 98 159 105.8 160.65 105.95 164 106 164.5 106 165 115.45 164.15 112.6 159.2 112.5 159 112 159 103.85 161.85 114.15 155.25 114.5 155 115 155 124.4 153.8 129.75 158.3 130 158.5 130 159 130.75 169.35 135.75 161.85 136 161.5 136 161 145.1 164.6 144.1 160 144 159.5 144 159 147.75 159.2 151.75 156.65 152 156.5 152 156 144.3 156.4 144.5 147
L 144 147
Q 150.7 137.3 148.5 131
L 149 131
Q 151.9 127.4 158 127.5
L 158 128
Q 159.3 126.8 162 126.95 162.5 127 163 127 163 126.5 163 126 Z" stroke="none" fill="#F9BA3D"></path>

<path d="M 180 126
Q 179.5 126 179 126 172.5 126 166 126 165.5 126 165 126 164 126 163 126 163 126.5 163 127 174 127 185 127 185.5 127 186 127 186 126.5 186 126 185.5 126 185 126 182.5 126 180 126 Z" stroke="none" fill="#603D05"></path>

<path d="M 180 126
Q 180 125.5 179.95 125.5 174 125 168 125 167.5 125 167 125 166.5 125 166 125 166 125.5 166 126 172.5 126 179 126 179.5 126 180 126 Z" stroke="none" fill="#BE8F3E"></path>

<path d="M 179.95 125.5
Q 180 125.5 180 126 182.5 126 185 126 185.5 126 186 126 186 125.5 185.8 125.05 183.35 119.15 167 123 167.5 123.5 167.8 124.1 168 124.5 168 125 174 125 179.95 125.5 Z" stroke="none" fill="#F5BA41"></path>

<path d="M 226 144
Q 225.5 144 225 144 224.5 144 224 144 225.85 147.15 229.1 148.8 229.5 149 230 149 230 148.5 229.75 148.35 227.35 146.65 226 144 Z" stroke="none" fill="#785316"></path>

<path d="M 224 144
Q 224 143.5 223.75 143.3 209.95 132.05 190 127 189.5 127 189 127 187.5 127 186 127 185.5 127 185 127 174 127 163 127 162.5 127 162 126.95 159.3 126.8 158 128 157.5 128 157.15 128.25 154 130.5 152 134 152 135 152 136 152 136.5 152 137 151.75 143.25 152.9 148.05 153 148.5 153 149 157.55 166.95 161.9 185.05 162 185.5 162 186 163.7 186.3 163.1 189 163 189.5 163 190 164.9 196.1 165.95 203 166 203.5 166 204 167.65 208.85 168.9 214.05 169 214.5 169 215 169.2 217.8 169.85 220.05 170 220.5 170 221 171.7 225.8 172 232 172 232.5 172 233 174 243.5 180.25 249.75 180.5 250 181 250 186.6 250.6 190.05 249.2 190.5 249 191 249 191.5 249 192 249 192 248.5 192 248 197.1 247.9 203 247.05 203.5 247 204 247 207.75 243.75 212.1 241.2 212.5 241 213 241 213 240.5 213 240 215.65 238.65 217.35 236.25 217.5 236 218 236 237.3 220.75 243.9 192.95 244 192.5 244 192 244 191.5 244 191 244 185 244 179 244 178.5 243.9 178 240.5 160 230 149 229.5 149 229.1 148.8 225.85 147.15 224 144
M 178.25 131.8
Q 178 131.5 178 131 187.05 131.95 193.8 135.4 194 135.5 194 136 183 137.45 178.25 131.8
M 168.45 141.85
Q 168 140.5 168 139 179.5 138.5 188.9 140.5 189 140.5 189 141 189.5 141 190 141 190.5 141 191 141 199.8 143.2 205.75 148.3 206 148.5 206 149 209.7 149.8 211.75 152.2 212 152.5 212 153 214.5 155 216.75 157.25 217 157.5 217 158 219.65 159.35 220.8 162.1 221 162.5 221 163 221.5 164 221.85 165.05 222 165.5 222 166 223.5 168 224.8 170.15 225 170.5 225 171 227 173 227 177 227 177.5 227 178 227 178.5 227 179 227 179.5 227 180 228.75 184.75 227.5 191.9 227.5 192 227 192 227 192.5 227.1 192.95 227.65 195.15 226 195 226 195.5 225.9 196 224.05 204.55 219 210 219 210.5 218.95 211 218.7 212.7 217 213 217 213.5 217 214 217 214.5 216.75 214.75 216 215.5 215 216 215 216.5 214.75 216.8 210.6 221.6 206 226 206 226.5 205.75 226.8 202.7 230.2 198 232 197.5 232 197.15 232.25 195.95 232.95 194 233 194 233.5 193.85 233.55 189.3 235.2 190 231 189.5 231 189.45 230.9 189 229 189 227 188.5 227 188.5 226.95 187.7 220.75 186 216 186 215.5 185.85 215.05 183.9 209.1 183 202 183 201.5 182.8 201.1 181.45 198.55 181 195 181 194.5 180.75 194.15 179.65 192.35 180 189 180 188.5 179.85 188.05 177 179.5 175 170 174.5 170 174.5 169.95 173.9 165.6 173 162 173 161.5 172.85 161.05 171.65 157.4 171 153 171 152.5 170.8 152.1 169.2 149.35 169 145 169 144.5 169 144 169 143 169 142 168.5 142 168.45 141.85
M 168.05 192
Q 168 191.5 168 191 179.8 184.45 171 199.5
L 171 199
Q 168.3 194 168.05 192
M 228.25 161.7
Q 228 161.5 228 161 233.8 166.45 228.25 161.7
M 228.15 167.95
Q 228 167.5 228 167 231.4 175.8 228.15 167.95
M 222.25 151.85
Q 222 151.5 222 151 230.9 163.7 222.25 151.85
M 232.05 176
Q 232 175.5 232 175 241.25 179.15 237.55 188.85 237.5 189 237 189 232.9 186.7 232.05 176
M 230.25 193.8
Q 230 193.5 230 193 236.5 201.8 230.25 193.8
M 237.2 197.25
Q 237.5 197 238 197 238.25 200.15 236.25 203.15 236 203.5 236 204 229.6 217.25 224.25 213.65 224 213.5 224 213 229.45 204 237.2 197.25
M 154 137.5
L 154 137
Q 172.5 134.15 154 137.5
M 174.25 209.85
Q 174 209.5 174 209 181.55 216.7 176 222.5
L 176 222
Q 177.05 213.95 174.25 209.85
M 178.25 234.7
Q 178 234.5 178 234 185.3 240 178.25 234.7
M 200.15 237.55
Q 200 237.5 200 237 209.5 240.15 200.15 237.55 Z" stroke="none" fill="#190903"></path>

<path d="M 200 237
Q 200 237.5 200.15 237.55 209.5 240.15 200 237 Z" stroke="none" fill="#090214"></path>

<path d="M 154 137
L 154 137.5
Q 172.5 134.15 154 137 Z" stroke="none" fill="#0A0214"></path>

<path d="M 238 197
Q 237.5 197 237.2 197.25 229.45 204 224 213 224 213.5 224.25 213.65 229.6 217.25 236 204 236 203.5 236.25 203.15 238.25 200.15 238 197 Z" stroke="none" fill="#030411"></path>

<path d="M 230 193
Q 230 193.5 230.25 193.8 236.5 201.8 230 193 Z" stroke="none" fill="#020313"></path>

<path d="M 232 175
Q 232 175.5 232.05 176 232.9 186.7 237 189 237.5 189 237.55 188.85 241.25 179.15 232 175 Z" stroke="none" fill="#03030E"></path>

<path d="M 222 151
Q 222 151.5 222.25 151.85 230.9 163.7 222 151 Z" stroke="none" fill="#01030B"></path>

<path d="M 228 167
Q 228 167.5 228.15 167.95 231.4 175.8 228 167 Z" stroke="none" fill="#0B0316"></path>

<path d="M 168 191
Q 168 191.5 168.05 192 168.3 194 171 199
L 171 199.5
Q 179.8 184.45 168 191 Z" stroke="none" fill="#070212"></path>

<path d="M 188.5 226.95
Q 188.5 227 189 227 189.5 227 189.5 226.95 190.55 218.95 186 216 187.7 220.75 188.5 226.95 Z" stroke="none" fill="#D7B74F"></path>

<path d="M 194 233
Q 193.5 233 193.1 232.8 192.5 232.5 192 232 192 231.5 191.8 231.4 191 231 190 231 189.3 235.2 193.85 233.55 194 233.5 194 233 Z" stroke="none" fill="#BFA44F"></path>

<path d="M 194 233
Q 195.95 232.95 197.15 232.25 197.5 232 198 232 198 231.5 197.95 231.5 194.45 230.95 192 232 192.5 232.5 193.1 232.8 193.5 233 194 233 Z" stroke="none" fill="#E6C667"></path>

<path d="M 215 216
L 215 215.5
Q 209.8 218.8 206 224 206 224.5 206 225 206 225.5 206 226 210.6 221.6 214.75 216.8 215 216.5 215 216 Z" stroke="none" fill="#DBBC60"></path>

<path d="M 219 210
L 219 209.5
Q 217 211 215 213 215.5 213.5 216.1 213.8 216.5 214 217 214 217 213.5 217 213 218.7 212.7 218.95 211 219 210.5 219 210 Z" stroke="none" fill="#DDBA64"></path>

<path d="M 227 192
Q 227.5 192 227.5 191.9 228.75 184.75 227 180 227 185.5 227 191 227 191.5 227 192 Z" stroke="none" fill="#8F6E1C"></path>

<path d="M 227 178
Q 226.5 178 226 178 226 186 226 194 226 194.5 226 195 227.65 195.15 227.1 192.95 227 192.5 227 192 227 191.5 227 191 227 185.5 227 180 227 179.5 227 179 227 178.5 227 178 Z" stroke="none" fill="#D3B668"></path>

<path d="M 227 178
Q 227 177.5 227 177 227 173 225 171 225 172.5 225 174 225 174.5 225 175 226.65 174.9 226.1 177.05 226 177.5 226 178 226.5 178 227 178 Z" stroke="none" fill="#81662B"></path>

<path d="M 221 163
Q 220.5 163 220.4 162.8 219.7 161.3 218 161 217.85 164.95 221.1 166.8 221.5 167 222 167 222 166.5 222 166 222 165.5 221.85 165.05 221.5 164 221 163 Z" stroke="none" fill="#DFBD68"></path>

<path d="M 211 152.9
Q 211.5 153 212 153 212 152.5 211.75 152.2 209.7 149.8 206 149 206 149.5 205.8 149.6 205 150 204 150 207 152 211 152.9 Z" stroke="none" fill="#D4AF61"></path>

<path d="M 217 158
Q 216.4 160.15 217.9 160.5 218 160.5 218 161 219.7 161.3 220.4 162.8 220.5 163 221 163 221 162.5 220.8 162.1 219.65 159.35 217 158 Z" stroke="none" fill="#8D7134"></path>

<path d="M 225 171
Q 225 170.5 224.8 170.15 223.5 168 222 166 222 166.5 222 167 223 171 224.45 174.85 224.5 175 225 175 225 174.5 225 174 225 172.5 225 171 Z" stroke="none" fill="#D7B666"></path>

<path d="M 182 195
Q 181.5 195 181 195 181.45 198.55 182.8 201.1 183 201.5 183 202 183.5 202 183.5 201.9 184.65 196.85 182 195 Z" stroke="none" fill="#D9B65F"></path>

<path d="M 182 195
Q 182 194.5 182.1 194 183.2 189.3 180 189 179.65 192.35 180.75 194.15 181 194.5 181 195 181.5 195 182 195 Z" stroke="none" fill="#D8B661"></path>

<path d="M 175 170
Q 175 169.5 175.05 169 175.65 163.85 173 162 173.9 165.6 174.5 169.95 174.5 170 175 170 Z" stroke="none" fill="#9A771A"></path>

<path d="M 191 142
Q 191 141.5 191 141 190.5 141 190 141 189.5 141 189 141 188.5 141 188 141 187.5 141 187 141 187 141.5 187 142 187.3 143.7 190 143.1 190.5 143 191 143 191 142.5 191 142 Z" stroke="none" fill="#E1B862"></path>

<path d="M 191 141
Q 191 141.5 191 142 191 142.5 191 143 197.95 145.55 203.75 149.35 204 149.5 204 150 205 150 205.8 149.6 206 149.5 206 149 206 148.5 205.75 148.3 199.8 143.2 191 141 Z" stroke="none" fill="#CCAC62"></path>

<path d="M 182 143
L 182 143.5
Q 171.65 139.7 171 153 171.65 157.4 172.85 161.05 173 161.5 173 162 175.65 163.85 175.05 169 175 169.5 175 170 177 179.5 179.85 188.05 180 188.5 180 189 183.2 189.3 182.1 194 182 194.5 182 195 184.65 196.85 183.5 201.9 183.5 202 183 202 183.9 209.1 185.85 215.05 186 215.5 186 216 190.55 218.95 189.5 226.95 189.5 227 189 227 189 229 189.45 230.9 189.5 231 190 231 191 231 191.8 231.4 192 231.5 192 232 194.45 230.95 197.95 231.5 198 231.5 198 232 202.7 230.2 205.75 226.8 206 226.5 206 226 206 225.5 206 225 206 224.5 206 224 209.8 218.8 215 215.5
L 215 216
Q 216 215.5 216.75 214.75 217 214.5 217 214 216.5 214 216.1 213.8 215.5 213.5 215 213 217 211 219 209.5
L 219 210
Q 224.05 204.55 225.9 196 226 195.5 226 195 226 194.5 226 194 226 186 226 178 226 177.5 226.1 177.05 226.65 174.9 225 175 224.5 175 224.45 174.85 223 171 222 167 221.5 167 221.1 166.8 217.85 164.95 218 161 218 160.5 217.9 160.5 216.4 160.15 217 158 217 157.5 216.75 157.25 214.5 155 212 153 211.5 153 211 152.9 207 152 204 150 204 149.5 203.75 149.35 197.95 145.55 191 143 190.5 143 190 143.1 187.3 143.7 187 142 186.5 142 186 142.1 184 142.5 182 143 Z" stroke="none" fill="#F6C340"></path>

<path d="M 176 141
Q 175.5 141 175 140.95 169.3 140.3 169 145 169.2 149.35 170.8 152.1 171 152.5 171 153 171.65 139.7 182 143.5
L 182 143
Q 181.5 143 181.4 142.8 180.25 140.25 176 141 Z" stroke="none" fill="#E4B44D"></path>

<path d="M 169 140
Q 169 140.5 169 141 169 141.5 169 142 169 143 169 144 169 144.5 169 145 169.3 140.3 175 140.95 175.5 141 176 141 176 140.5 175.95 140.5 172.5 140 169 140 Z" stroke="none" fill="#DFC179"></path>

<path d="M 168 139
Q 168 140.5 168.45 141.85 168.5 142 169 142 169 141.5 169 141 169 140.5 169 140 172.5 140 175.95 140.5 176 140.5 176 141 180.25 140.25 181.4 142.8 181.5 143 182 143 184 142.5 186 142.1 186.5 142 187 142 187 141.5 187 141 187.5 141 188 141 188.5 141 189 141 189 140.5 188.9 140.5 179.5 138.5 168 139 Z" stroke="none" fill="#C7A860"></path>

<path d="M 178 131
Q 178 131.5 178.25 131.8 183 137.45 194 136 194 135.5 193.8 135.4 187.05 131.95 178 131 Z" stroke="none" fill="#01030C"></path>

<path d="M 218 82
Q 217.5 82 217 82 212.5 82 208 82 208 82.5 208 83 213 83 217.95 82.5 218 82.5 218 82 Z" stroke="none" fill="#DCA14B"></path>

<path d="M 200 83
Q 199.5 83 199 83 192 83 185 83 185.3 84.7 188 84.1 188.5 84 189 84 194.5 84 199.95 83.5 200 83.5 200 83 Z" stroke="none" fill="#A16303"></path>

<path d="M 200.8 82.1
Q 201 82.5 201 83 204 83 207 83 207.5 83 208 83 208 82.5 208 82 212.5 82 217 82 217.5 82 218 82 227.55 80.55 238 80.05 238.5 80 239 80 239 79.5 239 79 238.5 79 238 79 218.8 79.8 200 81 200.5 81.5 200.8 82.1 Z" stroke="none" fill="#A5660B"></path>

<path d="M 166 87
Q 165.5 87 165 87 164.5 87 164 87 163.5 87 163 87 162.5 87 162 87 161.5 87 161 87 157.5 87 154 87 154 87.5 154 88 160 88 165.95 87.5 166 87.5 166 87 Z" stroke="none" fill="#C79136"></path>

<path d="M 165 87
Q 165.5 87 166 87 177.05 85.55 188.95 84.5 189 84.5 189 84 188.5 84 188 84.1 185.3 84.7 185 83 184.5 83 184.05 83.1 175 85.5 164 86 164 86.5 164 87 164.5 87 165 87 Z" stroke="none" fill="#A66A13"></path>

<path d="M 282.35 95.8
Q 282.5 96 283 96 285.55 97.95 286.8 101.05 287 101.5 287 102 286.8 104.7 288.85 105.45 289 105.5 289 106
L 289.5 106
Q 287.3 91.75 277 89 280.1 91.9 282.35 95.8 Z" stroke="none" fill="#A86913"></path>

<path d="M 276 89
Q 276 88.5 276.15 88.05 277.6 84.4 270 85 272.5 87 275.15 88.75 275.5 89 276 89 Z" stroke="none" fill="#AC6C19"></path>

<path d="M 270 85
Q 269.5 85 269 85 269 85.5 268.75 85.85 265.9 90 274 97
L 273.5 97
Q 275.55 97.95 278 98 278 98.5 278.2 98.85 281.35 104.15 284 110
L 284 110.5
Q 276.05 109.05 277 103 276.5 103 276.15 103.25 274.1 104.7 268 112
L 268 112.5
Q 250.55 113.15 232 118 231.5 118 231 118 214.75 117.3 200 118 199.5 118 199.35 118.2 195.45 124.8 190 127 209.95 132.05 223.75 143.3 224 143.5 224 144 224.5 144 225 144 225.5 144 226 144 226 143.5 226 143 238.8 150.45 240.45 146.15 240.5 146 241 146 248.35 148.05 245.5 154
L 246 154
Q 247.95 149.05 250.3 146.25 250.5 146 251 146 258 150.2 261.25 147.25 261.5 147 262 147 267.9916015625 145.2744140625 268 151 273.45 146.7 285.9 144.5 286 144.5 286 144 289.45 137.55 288.1 131 288 130.5 288 130 292.5 125.45 292.5 135
L 293 135
Q 293 134.5 293 134 293 130.5 293 127 293 126.5 293.05 126 293.45 119.55 292 115 291.5 115 291.45 114.9 291 113 291 111 291 110.5 290.85 110.05 290.5 109 290 108 289.5 108 289.4 107.8 289 107 289 106 289 105.5 288.85 105.45 286.8 104.7 287 102 286.5 102 286.2 101.75 283.8 99.7 283 96 282.5 96 282.35 95.8 280.1 91.9 277 89 276.5 89 276 89 275.5 89 275.15 88.75 272.5 87 270 85 Z" stroke="none" fill="#F7BA3F"></path>

<path d="M 256 79
Q 256 79.5 256 80 262.9 81.6 268.8 84.4 269 84.5 269 85 269.5 85 270 85 270 84.5 269.85 84.05 268.35 78.65 256 79 Z" stroke="none" fill="#A86911"></path>

<path d="M 253 80
Q 252.5 80 252 80 245.5 80 239 80 238.5 80 238 80.05 227.55 80.55 218 82 218 82.5 217.95 82.5 213 83 208 83 207.5 83 207 83 204 83 201 83 200.5 83 200 83 200 83.5 199.95 83.5 194.5 84 189 84 189 84.5 188.95 84.5 177.05 85.55 166 87 166 87.5 165.95 87.5 160 88 154 88
L 154 88.5
Q 144.4 88.4 137 90 136.5 90 136 90.1 129.7 91.2 122 91 122 91.5 121.75 91.75 121.5 92 121 92 120.5 92 120.05 92.15 108.45 95.95 100 103 100 103.5 99.75 103.75 99.5 104 99 104 99 104.5 98.75 104.75 91.5 112.5 88 124 88 124.5 88 125 88 125.5 88 126 88 134 88 142 88 142.5 88 143 88 148 88 153 88 153.5 88 154 89.45 159.05 89.95 165 90 165.5 90 166 90 168.5 90 171 90 171.5 90 172 91.7 172.3 91.1 175 91 175.5 91 176 92.75 178.25 92.05 183 92 183.5 92 184 93.75 186.75 93.05 192 93 192.5 93 193 93 193.5 93 194 93 194.5 93 195 94.7 203.3 95 213 95 213.5 95 214 98.55 219.1 97.1 225.05 97 225.5 97 226 97 227.5 97 229 97 229.5 97 230 98.75 232.25 98.05 237 98 237.5 98 238 98 239 98 240 98 240.5 98 241 98 243.5 98 246 98 246.5 98 247 99.7 248.75 99.5 253
L 100 253
Q 101.75 255.25 101.05 260 101 260.5 101 261 101 262 101 263 101 263.5 101 264 103.9 267.1 104.9 272 105 272.5 105 273 106.237890625 275.32421875 107.7 277.4 113.0498046875 284.266796875 119.6 289 126.6736328125 293.6263671875 136.05 295.9 136.5 296 137 296 141.5 296 145.95 296.5 146 296.5 146 297 149.65 295.65 155 295.95 155.5 296 156 296 156 295.5 156 295 160 295 164 295 164.5 295 165 295 176.8 293.05 190 293 190.5 293 191 293 191 292.5 191 292 206.5 291 221 289.05 221.5 289 222 289 222 288.5 222 288 225.5 288 229 288 229.5 288 230 288 236.65 287.65 243 287.05 243.5 287 244 287 246.5 287 249 287 249.5 287 250 287 250 286.5 250 286 267.8 286.8 279.1 281.2 279.5 281 280 281 280.5 280.5 281.1 280.2 281.5 280 282 280 285.3 277.8 288.8 275.65 289 275.5 289 275 289 274.5 289 274 299.2 267.2 303.45 254.15 303.5 254 304 254 305.7 236.8 303.1 221 303 220.5 303 220 303 219.5 302.9 219 301.6 212.9 302 205 302 204.5 301.75 204.3 300.3 203.2 301 200 301 199.5 301 199 300.5 199 300.5 198.95 300 194 300 189 300 188.5 299.75 188.3 298.3 187.2 299 184 299 183.5 299 183 299 181.5 299 180 298.5 180 298.5 179.95 298 175 298 170 297.5 170 297.45 169.85 295.75 165.25 296 159 296 158.5 295.8 158.1 294.25 154.75 295 149 294.5 149 294.5 148.95 293.75 142.75 290 140 293.7 140.2 293.05 136 293 135.5 293 135
L 292.5 135
Q 292.5 125.45 288 130 288 130.5 288.1 131 289.45 137.55 286 144 286 144.5 285.9 144.5 273.45 146.7 268 151 267.9916015625 145.2744140625 262 147 261.5 147 261.25 147.25 258 150.2 251 146 250.5 146 250.3 146.25 247.95 149.05 246 154
L 245.5 154
Q 248.35 148.05 241 146 240.5 146 240.45 146.15 238.8 150.45 226 143 226 143.5 226 144 227.35 146.65 229.75 148.35 230 148.5 230 149 240.5 160 243.9 178 244 178.5 244 179 245.75 184.25 244.5 191.9 244.5 192 244 192 244 192.5 243.9 192.95 237.3 220.75 218 236 218 236.5 217.95 237 217.4 240.9 213 241 212.5 241 212.1 241.2 207.75 243.75 204 247 204 247.5 203.8 247.6 199.25 249.75 192 249 191.5 249 191 249 191 249.5 190.8 249.6 185.9 252.4 181 250 180.5 250 180.25 249.75 174 243.5 172 233 171.5 233 171.4 232.8 169.35 228.15 170 221 170 220.5 169.85 220.05 169.2 217.8 169 215 168.5 215 168.35 214.75 165.7 210.8 166 204 166 203.5 165.95 203 164.9 196.1 163 190 163 190.5 162.85 190.95 161.7 194 161 187 161.5 187 161.75 186.75 162 186.5 162 186 162 185.5 161.9 185.05 157.55 166.95 153 149 152.5 149 152.4 148.8 152 148 152 147 151.5 147 151.35 146.75 149.25 143.75 150 138 150.5 138 151 138 151 137.5 151 137 151.5 137 152 137 152 136.5 152 136 152 135 152 134 154 130.5 157.15 128.25 157.5 128 158 128
L 158 127.5
Q 151.9 127.4 149 131
L 148.5 131
Q 150.7 137.3 144 147
L 144.5 147
Q 144.3 156.4 152 156 152 156.5 151.75 156.65 147.75 159.2 144 159 144 159.5 144.1 160 145.1 164.6 136 161 136 161.5 135.75 161.85 130.75 169.35 130 159 130 158.5 129.75 158.3 124.4 153.8 115 155 114.5 155 114.15 155.25 103.85 161.85 112 159 112.5 159 112.6 159.2 115.45 164.15 106 165 106 164.5 105.95 164 105.8 160.65 98 159 98 159.5 98.15 159.95 101.35 169.1 97 167 97 166.5 96.95 166 95.75 156.15 90 146 94.95 144 91.6 136.2 91.5 136 91 136 92.9 129.45 92.1 125 92 124.5 92 124 97.15 115.65 102.75 107.85 102.851953125 107.7072265625 102.9 107.55 101.16015625 118.68671875 105.75 122.3 106 122.5 106 123 103.25 124.9 108.15 127.8 108.5 128 109 128 113.1 123.85 116.3 127.75 116.5 128 117 128 132.8 127.8 146.05 123.15 146.5 123 147 123 150.5 126.85 156.05 125.15 156.5 125 157 125 168 119.45 162.5 126
L 163 126
Q 164 126 165 126 165.5 126 166 126 166 125.5 166 125 166.5 125 167 125 167.5 125 168 125 168 124.5 167.8 124.1 167.5 123.5 167 123 183.35 119.15 185.8 125.05 186 125.5 186 126 186 126.5 186 127 187.5 127 189 127 189.5 127 190 127 195.45 124.8 199.35 118.2 199.5 118 200 118 214.75 117.3 231 118 231.5 118 232 118 250.55 113.15 268 112.5
L 268 112
Q 274.1 104.7 276.15 103.25 276.5 103 277 103 276.05 109.05 284 110.5
L 284 110
Q 281.35 104.15 278.2 98.85 278 98.5 278 98 275.55 97.95 273.5 97
L 274 97
Q 265.9 90 268.75 85.85 269 85.5 269 85 269 84.5 268.8 84.4 262.9 81.6 256 80 255.5 80 255 80 254 80 253 80
M 169 90.5
L 169 90
Q 174.35 88.35 182 88.95 182.5 89 183 89 176.7 90.7 169 90.5
M 190.1 87.5
Q 190 87.5 190 87 198.5 87 207 87 207.5 87 208 87 198.15 89.15 190.1 87.5
M 188.1 122.55
Q 188 122.5 188 122 195.3 124.3 188.1 122.55
M 268 152.5
L 268 152
Q 279.2 151.05 268 152.5
M 277 152.5
L 277 152
Q 287.8 151.45 277 152.5
M 256.05 152.5
Q 256 152.5 256 152 265.9 153.35 256.05 152.5
M 244.25 159.65
Q 244 159.5 244 159 255.7 167.95 244.25 159.65
M 250.05 150.5
Q 250 150.5 250 150 260.55 151.2 250.05 150.5
M 146 92.5
L 146 92
Q 159.25 92.5 146 92.5
M 116.25 159.7
Q 116 159.5 116 159 124.7 160.1 125.5 168
L 125 168
Q 120.8 163.7 116.25 159.7
M 113.05 168.5
Q 113 168.5 113 168 119.95 169.45 113.05 168.5
M 117 171
Q 122.4 172.8 117.1 171.55 117 171.5 117 171
M 124.2 159.6
Q 124 159.5 124 159 133.7 164.6 124.2 159.6
M 122.25 169.75
Q 122 169.5 122 169 128.3 176 122.25 169.75
M 146 294.5
L 146 294
Q 155.8 293.55 146 294.5
M 255.75 280.35
Q 256 280.5 256 281 246.15 285.25 242.25 279.85 242 279.5 242 279 251.65 277.7 255.75 280.35
M 255.8 273.35
Q 256 273.5 256 274 252.5 276.15 242.1 273.55 242 273.5 242 273 238.5 276.4 238.05 272 238 271.5 238 271 249.65 269.75 255.8 273.35 Z" stroke="none" fill="#F8CC45"></path>

<path d="M 256 274
Q 256 273.5 255.8 273.35 249.65 269.75 238 271 238 271.5 238.05 272 238.5 276.4 242 273 242 273.5 242.1 273.55 252.5 276.15 256 274
M 256 281
Q 256 280.5 255.75 280.35 251.65 277.7 242 279 242 279.5 242.25 279.85 246.15 285.25 256 281 Z" stroke="none" fill="#F6D83A"></path>

<path d="M 146 294
L 146 294.5
Q 155.8 293.55 146 294 Z" stroke="none" fill="#F8D636"></path>

<path d="M 122 169
Q 122 169.5 122.25 169.75 128.3 176 122 169
M 124 159
Q 124 159.5 124.2 159.6 133.7 164.6 124 159
M 117.1 171.55
Q 122.4 172.8 117 171 117 171.5 117.1 171.55
M 113 168
Q 113 168.5 113.05 168.5 119.95 169.45 113 168
M 116 159
Q 116 159.5 116.25 159.7 120.8 163.7 125 168
L 125.5 168
Q 124.7 160.1 116 159
M 250 150
Q 250 150.5 250.05 150.5 260.55 151.2 250 150
M 244 159
Q 244 159.5 244.25 159.65 255.7 167.95 244 159
M 256 152
Q 256 152.5 256.05 152.5 265.9 153.35 256 152
M 277 152
L 277 152.5
Q 287.8 151.45 277 152
M 268 152
L 268 152.5
Q 279.2 151.05 268 152 Z" stroke="none" fill="#FABB3E"></path>

<path d="M 146 92
L 146 92.5
Q 159.25 92.5 146 92
M 190 87
Q 190 87.5 190.1 87.5 198.15 89.15 208 87 207.5 87 207 87 198.5 87 190 87 Z" stroke="none" fill="#ECBA44"></path>

<path d="M 188 122
Q 188 122.5 188.1 122.55 195.3 124.3 188 122 Z" stroke="none" fill="#F7B83C"></path>

<path d="M 169 90
L 169 90.5
Q 176.7 90.7 183 89 182.5 89 182 88.95 174.35 88.35 169 90 Z" stroke="none" fill="#EAB841"></path>

<path d="M 252 80
Q 252.5 80 253 80 253 79.5 252.95 79.5 246 79 239 79 239 79.5 239 80 245.5 80 252 80 Z" stroke="none" fill="#D89D43"></path>

<path d="M 264 71
Q 264 70.5 263.75 70.2 262.2 68.25 258 69 259.25 71.2 263 71.05 263.5 71 264 71 Z" stroke="none" fill="#6D634F"></path>

<path d="M 334 298
Q 334 297.5 333.75 297.35 329.05 294.1 325 295 327.95 297.55 333 297.95 333.5 298 334 298 Z" stroke="none" fill="#0F2934"></path>

<path d="M 345 296
Q 345.5 296 345.55 295.9 347.05 290 343 289 344.8 291.2 345 295 345 295.5 345 296 Z" stroke="none" fill="#2A4851"></path>

<path d="M 338 287
Q 338 286.5 337.95 286.5 333.6 285.9 330 285 331.85 287.65 337 287.05 337.5 287 338 287 Z" stroke="none" fill="#0F2D37"></path>

<path d="M 329.05 283.85
Q 326.2 282.8 324 281 324 280.5 323.8 280.4 320.9 279.1 319 277 318.5 277 318.05 276.85 315.85 276.15 315 274 314.5 274 314.15 273.8 311.95 272.55 308 273 308 273.5 308.15 273.95 310.9 281.15 302 277 302 277.5 302 278 302 278.5 302 279 303.35 281.65 305.75 283.35 306 283.5 306 284 307.7 284.3 308.4 285.8 308.5 286 309 286 315.05 285.75 315.9 289.05 316 289.5 316 290 320.45 282.7 319.1 291 319 291.5 319 292 321.75 293.25 324.15 294.75 324.5 295 325 295 329.05 294.1 333.75 297.35 334 297.5 334 298 340.65 299.95 344.75 296.7 345 296.5 345 296 345 295.5 345 295 344.8 291.2 343 289 342.5 289 342.05 288.85 340 288 338 287 337.5 287 337 287.05 331.85 287.65 330 285 330 284.5 330 284 329.5 284 329.05 283.85 Z" stroke="none" fill="#010B17"></path>

<path d="M 324 281
Q 326.2 282.8 329.05 283.85 329.5 284 330 284 330 283.5 329.75 283.2 327.9 281.1 324 281 Z" stroke="none" fill="#294950"></path>
</g>
</g>
</g>
</g>
</g>
</svg>
