
<svg viewBox="0 0 80 70" height="70px" width="80px" y="0px" x="0px" preserveAspectRatio="none" xmlns:xlink="http://www.w3.org/1999/xlink" version="1.1" xmlns="http://www.w3.org/2000/svg">
<defs></defs>

<g id="Layer_2">
<g transform="matrix( 0.2443389892578125, 0, 0, 0.2443389892578125, -5.6,-13.9)" id="Layer_1">
<g>
<g>
<g>
<path d="M 253 341
Q 249.5 341 246 341 248.75 342.75 253.9 341.55 254 341.5 254 341 253.5 341 253 341 Z" stroke="none" fill="#38565E"></path>

<path d="M 172 330
Q 171.5 330 171.1 330.2 168.35 331.35 165 332 165 332.5 165 333 169.15 332.65 171.75 330.7 172 330.5 172 330 Z" stroke="none" fill="#3E4C4C"></path>

<path d="M 176 315
Q 176 314.5 175.75 314.15 173.7 311.3 171 309 171.95 313.05 175.1 314.8 175.5 315 176 315 Z" stroke="none" fill="#254047"></path>

<path d="M 191.9 299.5
Q 192 299.5 192 299 191.5 299 191 298.95 187.05 298.55 185 300 185 300.5 185 301 188.25 300.25 191.9 299.5
M 130 309
Q 129.5 309 129 309 121.5 309 114 309 120.5 312.6 129.85 309.55 130 309.5 130 309 Z" stroke="none" fill="#697064"></path>

<path d="M 242 332
Q 242 335 242.5 337.9 242.5 338 243 338 243 337.5 243 337 243 335 243 333 244.65 333.15 244.1 330.95 244 330.5 244 330
L 243.5 330
Q 243.65 332.15 242 332 Z" stroke="none" fill="#36535B"></path>

<path d="M 204 297
Q 203.5 297 203 297 198.5 297 194 297 194 297.5 194 298 194 298.5 194 299 199.95 299.45 203.8 297.6 204 297.5 204 297 Z" stroke="none" fill="#6C6F60"></path>

<path d="M 220 294
Q 220 294.5 220 295 228 294.5 235.95 293.5 236 293.5 236 293 235.5 293 235 292.95 226.4 292.4 220 294
M 68 269
Q 68 268.5 68.1 268 69.2 263.3 66 263 65.25 267.2 67.2 268.75 67.5 269 68 269 Z" stroke="none" fill="#6D6F5F"></path>

<path d="M 210 295
Q 210 295.5 210 296 210 296.5 210 297 214.8 297.3 217.8 295.6 218 295.5 218 295 217.5 295 217 295 213.5 295 210 295 Z" stroke="none" fill="#687066"></path>

<path d="M 288 258
Q 288 258.5 288 259 290.95 259.45 290.1 255.95 290 255.5 290 255 289.5 255 289 255 288.5 255 288 255 288 256.5 288 258
M 95 303
Q 95.5 303 96 303 96 302.5 95.75 302.2 93.85 299.65 90 299 90.6 302.9 95 303 Z" stroke="none" fill="#6B7060"></path>

<path d="M 292.1 251.95
Q 292 251.5 292 251 291.5 251 291 251 290.5 251 290 251 290 252.5 290 254 290 254.5 290 255 292.95 255.45 292.1 251.95 Z" stroke="none" fill="#6D6E60"></path>

<path d="M 273.85 279.95
Q 274 279.5 274 279 273.5 279 273 279 271.5 279 270 279 270 279.5 270 280 270 280.5 270 281 273.2 281.7 273.85 279.95 Z" stroke="none" fill="#6C705F"></path>

<path d="M 260 286
Q 260 286.5 260 287 264.2 287.7 265.75 285.8 266 285.5 266 285 265.5 285 265 285 262.5 285 260 285 260 285.5 260 286 Z" stroke="none" fill="#6C6F61"></path>

<path d="M 255 291
Q 254.5 291 254 291 253.5 291 253 291 245.8 291.3 240 293 243.65 304.35 248.8 314.1 249 314.5 249 315 248.05 323.55 244.6 329.8 244.5 330 244 330 244 330.5 244.1 330.95 244.65 333.15 243 333 243 335 243 337 243 337.5 243 338 244 339.5 245.8 340.4 246 340.5 246 341 249.5 341 253 341 253.5 341 254 341 263.6 331.1 264 312 264 311.5 264 311 259.3 301.7 255.2 291.9 255 291.5 255 291 Z" stroke="none" fill="#010C16"></path>

<path d="M 253.8 290.1
Q 254 290.5 254 291 254.5 291 255 291 257.75 289.75 259.75 287.75 260 287.5 260 287 259.5 287 259.1 287.2 256.45 288.45 253 289 253.5 289.5 253.8 290.1 Z" stroke="none" fill="#6A6C5F"></path>

<path d="M 253 289
Q 252.5 289 252.05 288.85 244.35 285.85 240 291 240 291.5 240 292 240 292.5 240 293 245.8 291.3 253 291 253.5 291 254 291 254 290.5 253.8 290.1 253.5 289.5 253 289 Z" stroke="none" fill="#2E1002"></path>

<path d="M 293.1 241.2
Q 292.5 241.5 292 242 292 244 292 246 292 246.5 292 247 295.2 246.7 294.1 242 294 241.5 294 241 293.5 241 293.1 241.2 Z" stroke="none" fill="#6E6F5D"></path>

<path d="M 294 233
Q 294 232.5 294.05 232 294.9 225.6 292 223 291.25 232.25 293.45 238.85 293.5 239 294 239 294 238.5 294 238 294 235.5 294 233 Z" stroke="none" fill="#6E6655"></path>

<path d="M 104 307
Q 104.3 310.2 109 309.1 109.5 309 110 309 110 308.5 109.75 308.2 108.2 306.25 104 307 Z" stroke="none" fill="#6F6F5D"></path>

<path d="M 161 320
L 161.5 320
Q 161.1 315.9 157 315 158 318 160.8 319.4 161 319.5 161 320 Z" stroke="none" fill="#34474C"></path>

<path d="M 146 307
Q 145.5 307 145 307 141.5 307 138 307 138 307.5 138 308 138 308.5 138 309 144.15 308.4 148.05 309.85 148.5 310 149 310 149 309.5 148.85 309.05 148.2 307.3 146 307 Z" stroke="none" fill="#5B645B"></path>

<path d="M 146 305
Q 146 305.5 146 306 146 306.5 146 307 148.2 307.3 148.85 309.05 149 309.5 149 310 153.45 311.5 156.3 314.75 156.5 315 157 315 161.1 315.9 161.5 320
L 161 320
Q 161 320.5 160.85 320.55 149.25 323.75 142 331 141.6 348.15 155.8 340.6 156 340.5 156 340 157.55 334.05 164 333.05 164.5 333 165 333 165 332.5 165 332 168.35 331.35 171.1 330.2 171.5 330 172 330 179.95 326.55 176.15 315.95 176 315.5 176 315 175.5 315 175.1 314.8 171.95 313.05 171 309 170.5 309 170.2 308.75 166.85 306.15 164 303 163.5 303 163 303 162.5 303 162 303 162 303.5 161.9 303.5 154.8 304.75 146 305 Z" stroke="none" fill="#020C14"></path>

<path d="M 161 302
Q 160.5 302 160.05 301.85 154.15 299.8 148 302 147.5 302 147 302 146.5 302 146 302 146 303 146 304 146 304.5 146 305 154.8 304.75 161.9 303.5 162 303.5 162 303 162 302.5 161.75 302.25 161.5 302 161 302 Z" stroke="none" fill="#200601"></path>

<path d="M 161 302
Q 161 301.5 160.8 301.4 154.5 298.65 148 301 148 301.5 148 302 154.15 299.8 160.05 301.85 160.5 302 161 302 Z" stroke="none" fill="#5A3805"></path>

<path d="M 72 279
Q 72 278.5 72.05 278 72.2 274.25 70 273 69.95 276.5 71.35 278.8 71.5 279 72 279 Z" stroke="none" fill="#6C6E62"></path>

<path d="M 63.2 238.75
Q 63.5 239 64 239 64 238.5 63.9 238 63.25 235.25 62 233 61.25 237.2 63.2 238.75 Z" stroke="none" fill="#776B56"></path>

<path d="M 62 231
Q 62 230.5 62.1 230 63.3 224.2 60 223 59.25 228.25 61.3 230.75 61.5 231 62 231 Z" stroke="none" fill="#697162"></path>

<path d="M 51.35 166.8
Q 51.5 167 52 167 52 166.5 52.1 166 52.9 161.1 50 160 49.85 164.15 51.35 166.8 Z" stroke="none" fill="#686251"></path>

<path d="M 50 123
Q 49.5 123 49 123 48.5 123 48 123 48 124.5 48 126 48 126.5 48 127 50.9 127.45 50.1 123.95 50 123.5 50 123 Z" stroke="none" fill="#6A6350"></path>

<path d="M 130 77
Q 129.5 77 129 77 125.5 77 122 77 122 77.5 122 78 127.05 79.45 129.75 77.65 130 77.5 130 77 Z" stroke="none" fill="#6E654F"></path>

<path d="M 140 75
Q 139.5 75 139.05 75.1 135.75 75.85 130 76 130 76.5 130 77 135.95 77.4 139.8 75.6 140 75.5 140 75 Z" stroke="none" fill="#676353"></path>

<path d="M 113 79
Q 112.5 79 112 79 107.6 79.1 104 80 104 80.5 104 81 109.35 81.35 112.8 79.6 113 79.5 113 79 Z" stroke="none" fill="#69624E"></path>

<path d="M 100 81
Q 99.5 81 99 81 96.5 81 94 81 94 81.5 94 82 94 82.5 94 83 97.5 83 99.8 81.65 100 81.5 100 81 Z" stroke="none" fill="#6B6653"></path>

<path d="M 286 183
Q 286 182.5 286.1 182 286.9 177.1 284 176 283.25 180.75 285.25 182.75 285.5 183 286 183 Z" stroke="none" fill="#6D6859"></path>

<path d="M 280 143
Q 280 142.5 279.9 142 279.25 139.25 278 137 277.25 141.2 279.2 142.75 279.5 143 280 143
M 178 69
Q 177.5 69 177.05 69.1 174.25 69.85 170 70 170 70.5 170 71 175.25 71.75 177.75 69.7 178 69.5 178 69 Z" stroke="none" fill="#676455"></path>

<path d="M 229 65
Q 229.5 65 230 65 230 64.5 229.85 64.45 220 61.7 210 64 210 64.5 210 65 219.5 65 229 65 Z" stroke="none" fill="#6A6351"></path>

<path d="M 201.75 65.8
Q 202 65.5 202 65 201.5 65 201.15 65.25 199.35 66.35 196 66 196 66.5 196 67 200.2 67.7 201.75 65.8 Z" stroke="none" fill="#686350"></path>

<path d="M 186 67
Q 186 67.5 186 68 190 69.75 193.8 67.6 194 67.5 194 67 193.5 67 193 67 189.5 67 186 67 Z" stroke="none" fill="#6A624C"></path>

<path d="M 258 79
Q 257.5 79 257.05 78.85 250.75 76.25 247 71 246.5 71 246.05 70.85 239.7 68.3 230 65 229.5 65 229 65 219.5 65 210 65 209.5 65 209 65 205.5 65 202 65 202 65.5 201.75 65.8 200.2 67.7 196 67 195.5 67 195 67 194.5 67 194 67 194 67.5 193.8 67.6 190 69.75 186 68 186 68.5 185.95 68.5 182 69 178 69 178 69.5 177.75 69.7 175.25 71.75 170 71 169.5 71 169 71.05 154.75 73.25 140 75 140 75.5 139.8 75.6 135.95 77.4 130 77 130 77.5 129.75 77.65 127.05 79.45 122 78 122 78.5 121.95 78.5 117.5 79 113 79 113 79.5 112.8 79.6 109.35 81.35 104 81 103.5 81 103 81 101.5 81 100 81 100 81.5 99.8 81.65 97.5 83 94 83 93.5 83 93.05 83.1 84.55 85.05 78 87 78 87.5 77.8 87.65 59.05 98.55 50 119 50 120.5 50 122 50 122.5 50 123 50 123.5 50.1 123.95 50.9 127.45 48 127 47.35 144.65 49.9 159 50 159.5 50 160 52.9 161.1 52.1 166 52 166.5 52 167 53.3 177.2 54.5 187
L 54 187
Q 58.25 203.25 59.95 222 60 222.5 60 223 63.3 224.2 62.1 230 62 230.5 62 231 62 231.5 62 232 62 232.5 62 233 63.25 235.25 63.9 238 64 238.5 64 239 66 249.5 66 262 66 262.5 66 263 69.2 263.3 68.1 268 68 268.5 68 269 68.3 271.25 69.75 272.3 70 272.5 70 273 72.2 274.25 72.05 278 72 278.5 72 279 78.95 290.55 89.75 298.35 90 298.5 90 299 93.85 299.65 95.75 302.2 96 302.5 96 303 100.9 303.6 103.75 306.25 104 306.5 104 307 108.2 306.25 109.75 308.2 110 308.5 110 309 111.5 309 113 309 113.5 309 114 309 121.5 309 129 309 129.5 309 130 309 133.5 309 137 309 137.5 309 138 309 138 308.5 138 308 138 307.5 138 307 141.5 307 145 307 145.5 307 146 307 146 306.5 146 306 146 305.5 146 305 146 304.5 146 304 146 303 146 302 146.5 302 147 302 147.5 302 148 302 148 301.5 148 301 154.5 298.65 160.8 301.4 161 301.5 161 302 161.5 302 161.75 302.25 162 302.5 162 303 162.5 303 163 303 163.5 303 164 303 175.3 303.3 184.05 301.1 184.5 301 185 301 185 300.5 185 300 187.05 298.55 191 298.95 191.5 299 192 299 192.5 299 193 299 193.5 299 194 299 194 298.5 194 298 194 297.5 194 297 198.5 297 203 297 203.5 297 204 297 206.5 297 209 297 209.5 297 210 297 210 296.5 210 296 210 295.5 210 295 213.5 295 217 295 217.5 295 218 295 218.5 295 219 295 219.5 295 220 295 220 294.5 220 294 226.4 292.4 235 292.95 235.5 293 236 293 237.5 293 239 293 239.5 293 240 293 240 292.5 240 292 240 291.5 240 291 244.35 285.85 252.05 288.85 252.5 289 253 289 256.45 288.45 259.1 287.2 259.5 287 260 287 260 286.5 260 286 260 285.5 260 285 262.5 285 265 285 265.5 285 266 285 266 284.5 266 284 266 283.5 266 283 268.25 282.75 269.3 281.25 269.5 281 270 281 270 280.5 270 280 270 279.5 270 279 271.5 279 273 279 273.5 279 274 279 282 270.5 287.8 259.9 288 259.5 288 259 288 258.5 288 258 288 256.5 288 255 288.5 255 289 255 289.5 255 290 255 290 254.5 290 254 290 252.5 290 251 290.5 251 291 251 291.5 251 292 251 292 250.5 292 250 292 248.5 292 247 292 246.5 292 246 292 244 292 242 292.5 241.5 293.1 241.2 293.5 241 294 241 294 240.5 294 240 294 239.5 294 239 293.5 239 293.45 238.85 291.25 232.25 292 223 292 222.5 291.95 222 289.15 202.65 286 183 285.5 183 285.25 182.75 283.25 180.75 284 176 284 175.5 283.9 175 281.45 159.5 280 143 279.5 143 279.2 142.75 277.25 141.2 278 137 278 136.5 277.95 136 275.35 100.15 258 79
M 179.5 75
L 179 75
Q 183.65 74 193.05 76.85 193.5 77 194 77
L 194 76.5
Q 191.9 76.65 192 75 205.05 71.55 229.95 74.5 230 74.5 230 75 236 74.45 235.2 76.1 235 76.5 235 77 270.25 88.55 272 138 272 138.5 272 139 269.8 141.3 270 146 270 146.5 270 147 276.4 165.1 273.55 176.9 273.5 177 273 177 273 177.5 273.1 177.95 273.65 180.15 272 180 275 183 277.75 186.2 278 186.5 278 187 281.65 188.85 278.75 191.75 278.5 192 278 192 278 192.5 278 193 278 193.5 277.8 193.6 277 194 276 194 276 194.5 276 195 276 197 276.45 198.9 276.5 199 277 199 277 198.5 277 198 277 197 277 196 283.45 204.85 280.55 214.85 280.5 215 280 215 280 215.5 280 216 280 216.5 280 217 286.35 210.85 282.15 226.05 282 226.5 282 227 282 228 282 229 282 229.5 282 230 282.5 230 282.55 230.15 285.9 242.35 282 254 282 254.5 281.75 254.7 280.4 255.95 278 263 277.5 263 277.15 263.25 271.5 267.4 266 276 265.5 276 265.05 276.2 258.1 279.1 252 283 251.5 283 251 283.05 219.6490234375 285.6484375 196 288.15 191.8794921875 288.5705078125 188 289 188 289.5 187.75 289.7 187.5701171875 289.8607421875 187.4 290 184.423046875 292.428125 181.3 291.15 181.16875 291.0806640625 181 291 181 291.1177734375 181 291.2 180.98828125 291.5 180.95 291.5 157.6 295 138 301 137.5 301 137.15 300.8 135 299.45 132 299 132 299.5 131.9 299.55 123.15 301.65 112 301 112 300.5 111.8 300.4 103.9 296.05 96 295 96 294.5 95.75 294.2 89.35 286.15 80 281 80 280.5 79.9 280 78.4 272.55 76 256 76 255.5 75.85 255.05 72.45 244.55 72 231 72 230.5 72 230 72 229.5 72 229 71.5 229 71.5 228.95 71.15 222.85 68 220
L 68.5 220
Q 68.75 206 65 207 64.5 207 64.5 206.95 64 200 64 193 65 193 65.8 192.6 66 192.5 66 192 65.5 192 65.4 191.8 63.35 187.15 64 180 63.5 180 63.35 179.8 61.2 176.3 61 171 61.5 171 62 171 62 170.5 62 170 62 169.5 62 169 61.5 169 61.45 168.85 59.35 162.8 56 162 61.9 156.65 58.1 141.95 58 141.5 58 141 57.5 141 57.5 140.9 55.85 133.65 56 125 58 115.5 65.15 111.2 65.5 111 66 111 66 110.5 66 110 66 107.5 66 105 71.15 100.65 77.1 97.2 77.5 97 78 97 79.4 93.1 83.95 92.5 84 92.5 84 92 94.35 88.85 108 88.5
L 108 88
Q 118.85 87.2 121.75 84.7 122 84.5 122 84 136.5 82.95 141.8 85.4 142 85.5 142 86 144 86 145.9 85.55 146 85.5 146 85 145.5 85 145.05 85.1 142.9 85.65 143 84 147.45 83 147.15 81.95 147 81.5 147 81 167.3 80.65 179.5 75
M 62.1 207.95
Q 62 207.5 62 207 64.85 219.1 62.1 207.95 Z" stroke="none" fill="#9B612D"></path>

<path d="M 62 207
Q 62 207.5 62.1 207.95 64.85 219.1 62 207 Z" stroke="none" fill="#A0621C"></path>

<path d="M 187.4 290
Q 184.38359375 290.60859375 181.3 291.15 184.423046875 292.428125 187.4 290
M 282.55 230.15
Q 282.5 230 282 230 282.75 246.25 274.4 252.55 241.4767578125 277.4884765625 196 288.15 219.6490234375 285.6484375 251 283.05 251.5 283 252 283 258.1 279.1 265.05 276.2 265.5 276 266 276 271.5 267.4 277.15 263.25 277.5 263 278 263 280.4 255.95 281.75 254.7 282 254.5 282 254 285.9 242.35 282.55 230.15
M 95.75 294.2
Q 96 294.5 96 295 103.9 296.05 111.8 300.4 112 300.5 112 301 123.15 301.65 131.9 299.55 132 299.5 132 299 135 299.45 137.15 300.8 137.5 301 138 301 157.6 295 180.95 291.5 180.98828125 291.5 181 291.2 149.3025390625 296.784765625 112 296 111.5 296 111.05 295.9 108.65 295.35 107 294 106.5 294 106.05 293.85 92.9 289.1 86 278 85.5 278 85.35 277.75 79.3 268.75 77 256 76.5 256 76 256 78.4 272.55 79.9 280 80 280.5 80 281 89.35 286.15 95.75 294.2 Z" stroke="none" fill="#A26B0F"></path>

<path d="M 165.9 249.55
Q 166 249.5 166 249 165.5 249 165 249 161.5 249 158 249 160.75 250.75 165.9 249.55 Z" stroke="none" fill="#A28940"></path>

<path d="M 175 230
Q 174.5 230 174 230.1 170.75 230.75 167 231 170.3 232.8 174.8 230.6 175 230.5 175 230 Z" stroke="none" fill="#8F701B"></path>

<path d="M 282 227
Q 282 226.5 282.15 226.05 286.35 210.85 280 217 280.15 222.35 281.45 226.85 281.5 227 282 227 Z" stroke="none" fill="#A96C18"></path>

<path d="M 277 198
Q 277 198.5 277 199 278.75 206.25 279.5 214.95 279.5 215 280 215 280.5 215 280.55 214.85 283.45 204.85 277 196 277 197 277 198 Z" stroke="none" fill="#A46516"></path>

<path d="M 76.45 250.85
Q 76.5 251 77 251 77 250.5 77 250 77.25 245.25 75 243 75.1 247.4 76.45 250.85 Z" stroke="none" fill="#CF9138"></path>

<path d="M 73 231
Q 72.5 231 72 231 72.45 244.55 75.85 255.05 76 255.5 76 256 76.5 256 77 256 77 255.5 77 255 77 253 77 251 76.5 251 76.45 250.85 75.1 247.4 75 243 75 242.5 74.95 242 74.45 236.05 73 231 Z" stroke="none" fill="#A86815"></path>

<path d="M 72 223
Q 72 225.5 72 228 72 228.5 72 229 72 229.5 72 230 72 230.5 72 231 72.5 231 73 231 73 230.5 73.05 230 73.75 225.25 72 223 Z" stroke="none" fill="#BE8129"></path>

<path d="M 72.05 222
Q 72.75 217.25 71 215 71 219 71.5 222.95 71.5 223 72 223 72 222.5 72.05 222 Z" stroke="none" fill="#D29635"></path>

<path d="M 112 296
Q 112 295.5 111.8 295.1 110.7 292.75 107 293 107 293.5 107 294 108.65 295.35 111.05 295.9 111.5 296 112 296 Z" stroke="none" fill="#F6C959"></path>

<path d="M 150 237
Q 150 237.5 150 238 150 238.5 150 239 151.6 248.4 158.15 252.75 158.5 253 159 253 168.5 251.5 175.8 247.6 176 247.5 176 247
L 176 246.5
Q 172.8 246.7 172 245 171.5 245 171 245 171 245.5 170.75 245.75 168.75 247.75 166 249 166 249.5 165.9 249.55 160.75 250.75 158 249 157.5 249 157.3 248.75 153.2 243.3 150 237 Z" stroke="none" fill="#E3C967"></path>

<path d="M 148 232
Q 148 232.5 148 233 147.25 237.2 149.2 238.75 149.5 239 150 239 150 238.5 150 238 150 237.5 150 237 150 236.5 150.05 236 150.2 233.3 149 232 148.5 232 148 232 Z" stroke="none" fill="#DEC35D"></path>

<path d="M 144.1 210
Q 145.2 205.3 142 205 143 207.45 143.5 210.95 143.5 211 144 211 144 210.5 144.1 210 Z" stroke="none" fill="#775513"></path>

<path d="M 155 191
Q 155 190.5 154.9 190.05 153.5 184 151 179 151.15 186.4 154.35 190.75 154.5 191 155 191 Z" stroke="none" fill="#583C06"></path>

<path d="M 138.4 193.2
Q 138.5 193 139 193 139 192.5 138.95 192 138.7 190.3 137 190 137 190.5 136.95 191 136.7 192.65 135 191 135.35 199.45 138.4 193.2 Z" stroke="none" fill="#E6BC3F"></path>

<path d="M 140 138
Q 140.3 142.7 141.45 146.85 141.5 147 142 147 142 146.5 142 146 142 143.5 142 141 150.4 139.75 157 139.05 157.5 139 158 139 158 138.5 157.95 138.5 149 138 140 138 Z" stroke="none" fill="#CDAE6D"></path>

<path d="M 124 139
Q 124 140.5 124 142 124 142.5 124 143 130.3 166.2 136.85 189.05 137 189.5 137 190 138.7 190.3 138.95 192 139 192.5 139 193 140.15 198.85 141.85 204.05 142 204.5 142 205 145.2 205.3 144.1 210 144 210.5 144 211 146.4 221.1 148.9 231.05 149 231.5 149 232 150.2 233.3 150.05 236 150 236.5 150 237 153.2 243.3 157.3 248.75 157.5 249 158 249 161.5 249 165 249 165.5 249 166 249 168.75 247.75 170.75 245.75 171 245.5 171 245 171 244.5 171.1 244.5 176.9 243.3 180 238 180 237.5 179.85 237.45 171.7 234.75 164 234 164 233.5 163.95 233 163.25 224.35 158 217 160.4 213.6 160.05 210 160 209.5 160 209 160 208.5 159.9 208.05 157.8 199.2 155 191 154.5 191 154.35 190.75 151.15 186.4 151 179 151 178.5 150.9 178.05 149.3 171.7 147 166 146.5 166 146.45 165.85 142.3 155.15 136 147 136 146.5 135.9 146 133.75 132.85 124 139 Z" stroke="none" fill="#110703"></path>

<path d="M 140 124
Q 140 124.5 140 125 147 125 154 125 154.5 125 155 125 155 124.5 154.95 124.5 147.5 124 140 124 Z" stroke="none" fill="#CD9634"></path>

<path d="M 134 126
Q 134 126.5 134 127 145.35 125.35 159 126 159.5 126 160 126 160 125.5 159.9 125.5 157.5 125 155 125 154.5 125 154 125 147 125 140 125 139.5 125 139 125.05 136.2 125.2 134 126 Z" stroke="none" fill="#604205"></path>

<path d="M 65.8 192.6
Q 65 193 64 193 64 200 64.5 206.95 64.5 207 65 207 68.75 206 68.5 220
L 68 220
Q 71.15 222.85 71.5 228.95 71.5 229 72 229 72 228.5 72 228 72 225.5 72 223 71.5 223 71.5 222.95 71 219 71 215 70.5 215 70.5 214.95 69.65 202.35 67 192 66.5 192 66 192 66 192.5 65.8 192.6 Z" stroke="none" fill="#A56515"></path>

<path d="M 62 171
Q 61.5 171 61 171 61.2 176.3 63.35 179.8 63.5 180 64 180 63.35 187.15 65.4 191.8 65.5 192 66 192 66.5 192 67 192 67 191.5 66.95 191 65.15 178.85 63 167 63 167.5 63.1 168 63.7 170.7 62 171 Z" stroke="none" fill="#AE7118"></path>

<path d="M 63.1 166
Q 63.7 163.3 62 163 62 165.5 62 168 62 168.5 62 169 62 169.5 62 170 62 170.5 62 171 63.7 170.7 63.1 168 63 167.5 63 167 63 166.5 63.1 166 Z" stroke="none" fill="#A77703"></path>

<path d="M 59 139
Q 58.5 139 58 139 58 139.5 58 140 58 140.5 58 141 58 141.5 58.1 141.95 61.9 156.65 56 162 59.35 162.8 61.45 168.85 61.5 169 62 169 62 168.5 62 168 62 165.5 62 163 62 162.5 61.95 162 60.35 150.65 59 139 Z" stroke="none" fill="#AC6D1E"></path>

<path d="M 66 111
Q 65.5 111 65.15 111.2 58 115.5 56 125 55.85 133.65 57.5 140.9 57.5 141 58 141 58 140.5 58 140 58 139.5 58 139 58.5 139 59 139 59 138.5 59 138 59 133.5 59 129 61.65 120.15 65.8 112.9 66 112.5 66 112 66 111.5 66 111 Z" stroke="none" fill="#A86915"></path>

<path d="M 137.95 86.5
Q 138 86.5 138 86 137.5 86 137 86 133.5 86 130 86 130 86.5 130 87 134 87 137.95 86.5 Z" stroke="none" fill="#AF792D"></path>

<path d="M 84 92
Q 84 92.5 83.95 92.5 79.4 93.1 78 97 77.5 97 77.1 97.2 71.15 100.65 66 105 66 107.5 66 110 66 110.5 66 111 66 111.5 66 112 86.3 88.3 130 87.5
L 130 87
Q 130 86.5 130 86 133.5 86 137 86 137.5 86 138 86 139.5 86 141 86 141.5 86 142 86 142 85.5 141.8 85.4 136.5 82.95 122 84 122 84.5 121.75 84.7 118.85 87.2 108 88
L 108 88.5
Q 94.35 88.85 84 92 Z" stroke="none" fill="#A66817"></path>

<path d="M 278 192
Q 278.5 192 278.75 191.75 281.65 188.85 278 187 279.2 189.55 278.2 191.15 278 191.5 278 192 Z" stroke="none" fill="#573103"></path>

<path d="M 278 193
Q 277.5 193 277 193 272 193 267 193 269.75 194.75 275 194.05 275.5 194 276 194 277 194 277.8 193.6 278 193.5 278 193 Z" stroke="none" fill="#6E4B0B"></path>

<path d="M 267 193
Q 266.5 193 266 193 268.15 196.35 275 195.1 275.5 195 276 195 276 194.5 276 194 275.5 194 275 194.05 269.75 194.75 267 193 Z" stroke="none" fill="#D6BB77"></path>

<path d="M 266 175
Q 266.5 175 266.6 174.8 271.15 166.85 264 165 266.5 172.3 264.2 173.4 264 173.5 264 174 264.5 174.5 265.1 174.8 265.5 175 266 175 Z" stroke="none" fill="#F3C433"></path>

<path d="M 257.05 188.85
Q 257.5 189 258 189
L 258.5 189
Q 258.5 188 258 187 258 186.5 257.75 186.3 256 185 254 184 254.25 187.75 257.05 188.85 Z" stroke="none" fill="#DFC072"></path>

<path d="M 263 191
Q 263 190.5 262.75 190.2 261.1 187.9 258 187 258.5 188 258.5 189
L 258 189
Q 257.9 192.1 262.05 191.1 262.5 191 263 191 Z" stroke="none" fill="#CBAE5C"></path>

<path d="M 255.1 168.8
Q 255.5 169 256 169 256 168.5 256.25 168.25 259.4 165 250 164 251.95 167.05 255.1 168.8 Z" stroke="none" fill="#DAB73C"></path>

<path d="M 266 132
Q 266 131.5 265.95 131 265.6 124.4 264 119 263.75 127.8 265.4 131.8 265.5 132 266 132 Z" stroke="none" fill="#D79A3E"></path>

<path d="M 253.75 148.25
Q 253.5 148 253 148 253 148.5 252.95 149 252.7 150.7 251 151 251 152.5 251 154 251 154.5 251 155 252.95 152.95 253.85 149.95 254 149.5 254 149 254 148.5 253.75 148.25 Z" stroke="none" fill="#513A25"></path>

<path d="M 255 147
Q 255.5 147 255.55 146.85 257.4 140.6 252 141 254.95 142.05 255 146 255 146.5 255 147 Z" stroke="none" fill="#9A761D"></path>

<path d="M 263.95 118
Q 264 118.5 264 119 265.6 124.4 265.95 131 266 131.5 266 132 269.75 153.75 272.95 176 273 176.5 273 177 273.5 177 273.55 176.9 276.4 165.1 270 147 270 146.5 270 146 269.8 141.3 272 139 272 138.5 272 138 270.25 88.55 235 77 259.3 87.7 263.95 118 Z" stroke="none" fill="#A76618"></path>

<path d="M 236 186
Q 235.5 186 235.3 185.75 230.75 180 226 186 226 186.5 226.1 186.95 227 190.35 223 198 222.5 198 222.2 198.25 217.3 202.3 215 214
L 215 213.5
Q 210.55 220.9 209 227 208.5 227 208.25 227.25 204.65 230.85 197 235 196.5 235 196.45 235.15 195.25 238.45 193 244
L 193.5 244
Q 185.4 249.15 176 247 176 247.5 175.8 247.6 168.5 251.5 159 253 158.5 253 158.15 252.75 151.6 248.4 150 239 149.5 239 149.2 238.75 147.25 237.2 148 233 147.5 233 147.45 232.85 145.45 225.7 142 220 142 219.5 142 219 142 214 142 209 141.5 209 141.4 208.8 138.45 203.05 135 198 134.5 198 134.4 198.2 132.55 201.55 128 207 128 207.5 127.75 207.65 122.5 211.2 122 207 121.5 207 121.05 207.15 115.8 209.1 110 215 110.5 215 110.85 215.25 115.1 218 104 219 104 219.5 103.9 220 102.4 226.5 95 229 94.5 229 94.1 228.8 83.65 222.75 74 228 80.75 253.25 85.9 277 86 277.5 86 278 92.9 289.1 106.05 293.85 106.5 294 107 294 107 293.5 107 293 110.7 292.75 111.8 295.1 112 295.5 112 296 149.3025390625 296.784765625 181 291.2 181 291.1177734375 181 291 181.16875 291.0806640625 181.3 291.15 184.38359375 290.60859375 187.4 290 187.5701171875 289.8607421875 187.75 289.7 188 289.5 188 289 191.8794921875 288.5705078125 196 288.15 241.4767578125 277.4884765625 274.4 252.55 282.75 246.25 282 230 282 229.5 282 229 282 228 282 227 281.5 227 281.45 226.85 280.15 222.35 280 217 280 216.5 280 216 280 215.5 280 215 279.5 215 279.5 214.95 278.75 206.25 277 199 276.5 199 276.45 198.9 276 197 276 195 275.5 195 275 195.1 268.15 196.35 266 193 266 192.5 265.75 192.15 264.95 191.05 263 191 262.5 191 262.05 191.1 257.9 192.1 258 189 257.5 189 257.05 188.85 254.25 187.75 254 184 254 183.5 253.8 183.4 253 183 252 183 251.5 183 251.15 183.2 246.15 186.1 244 181
L 244 180.5
Q 243.5 185.45 236 186 Z" stroke="none" fill="#F7D13F"></path>

<path d="M 235 167
Q 235 167.5 235 168 241.9 176.6 251.8 182.35 252 182.5 252 183 253 183 253.8 183.4 254 183.5 254 184 256 185 257.75 186.3 258 186.5 258 187 261.1 187.9 262.75 190.2 263 190.5 263 191 264.95 191.05 265.75 192.15 266 192.5 266 193 266.5 193 267 193 272 193 277 193 277.5 193 278 193 278 192.5 278 192 278 191.5 278.2 191.15 279.2 189.55 278 187 278 186.5 277.75 186.2 275 183 272 180 271.5 180 271.25 179.75 268.7 177.3 266 175 265.5 175 265.1 174.8 264.5 174.5 264 174 263.5 174 263.25 173.75 260.25 170.75 256 169 255.5 169 255.1 168.8 251.95 167.05 250 164 250 163.5 249.9 163.5 248.4 163.15 249 161 251.2 159.7 251.05 156 251 155.5 251 155 251 154.5 251 154 251 152.5 251 151 252.7 150.7 252.95 149 253 148.5 253 148 253 147.5 252.75 147.3 242.35 139.3 235 159 235 163 235 167 Z" stroke="none" fill="#1E0903"></path>

<path d="M 235 159
Q 235 158.5 235 158 235 157.5 235 157 234.5 157 234 157 234 162.5 234.5 167.95 234.5 168 235 168 235 167.5 235 167 235 163 235 159 Z" stroke="none" fill="#735F3F"></path>

<path d="M 235 158
Q 235 158.5 235 159 242.35 139.3 252.75 147.3 253 147.5 253 148 253.5 148 253.75 148.25 254 148.5 254 149 254.5 148.5 254.8 147.9 255 147.5 255 147 255 146.5 255 146 254.95 142.05 252 141 251.5 141 251 141 238.05 140.6 235 155 235 155.5 235 156 235 156.5 235 157 235 157.5 235 158 Z" stroke="none" fill="#441D01"></path>

<path d="M 201 190
Q 201.5 190 201.5 189.95 202.75 181.75 201 176 201 182.5 201 189 201 189.5 201 190 Z" stroke="none" fill="#86650E"></path>

<path d="M 188 135
Q 188 134.5 187.75 134.25 185.8 132.2 182 132 184.05 133.95 187.05 134.85 187.5 135 188 135 Z" stroke="none" fill="#966C21"></path>

<path d="M 167 141.1
Q 162.3 142.2 162 139 161.5 139 161 139 159.5 139 158 139 157.5 139 157 139.05 150.4 139.75 142 141 142 143.5 142 146 142 146.5 142 147 144.55 155.95 146.9 165.05 147 165.5 147 166 149.3 171.7 150.9 178.05 151 178.5 151 179 153.5 184 154.9 190.05 155 190.5 155 191 157.8 199.2 159.9 208.05 160 208.5 160 209 163.6 219.4 166.85 230.05 167 230.5 167 231 170.75 230.75 174 230.1 174.5 230 175 230 175 229.5 175 229 194.55 216.55 200.9 190.95 201 190.5 201 190 201 189.5 201 189 201 182.5 201 176 201 175.5 200.85 175.05 193.4 149.1 168 141 167.5 141 167 141.1
M 172 153
Q 185.9 160.9 172.2 153.6 172 153.5 172 153
M 167 151.5
L 167 151
Q 172 147.4 171.1 153 171 153.5 171 154 168.1 160.15 164 157.5
L 164 158
Q 155.35 155.85 151.6 149.2 151.5 149 151 149 151.65 160.7 146.2 147.9 146 147.5 146 147 156.85 146.25 161.1 144.2 161.5 144 162 144 162.25 149.85 167 151.5
M 152 159
Q 164.05 161.25 152.05 159.5 152 159.5 152 159 Z" stroke="none" fill="#F4C342"></path>

<path d="M 152.05 159.5
Q 164.05 161.25 152 159 152 159.5 152.05 159.5
M 172.2 153.6
Q 185.9 160.9 172 153 172 153.5 172.2 153.6 Z" stroke="none" fill="#FABB3E"></path>

<path d="M 167 151
L 167 151.5
Q 162.25 149.85 162 144 161.5 144 161.1 144.2 156.85 146.25 146 147 146 147.5 146.2 147.9 151.65 160.7 151 149 151.5 149 151.6 149.2 155.35 155.85 164 158
L 164 157.5
Q 168.1 160.15 171 154 171 153.5 171.1 153 172 147.4 167 151 Z" stroke="none" fill="#F9BB3E"></path>

<path d="M 167.85 140.45
Q 165 139.5 162 139 162.3 142.2 167 141.1 167.5 141 168 141 168 140.5 167.85 140.45 Z" stroke="none" fill="#B09257"></path>

<path d="M 182 132
Q 182 131.5 181.85 131.45 171.9 127.6 160 126 159.5 126 159 126 145.35 125.35 134 127 133.5 127 133.05 127.1 125.55 129.05 123 136 123 139.5 123.5 142.95 123.5 143 124 143 124 142.5 124 142 124 140.5 124 139 133.75 132.85 135.9 146 136 146.5 136 147 142.3 155.15 146.45 165.85 146.5 166 147 166 147 165.5 146.9 165.05 144.55 155.95 142 147 141.5 147 141.45 146.85 140.3 142.7 140 138 149 138 157.95 138.5 158 138.5 158 139 159.5 139 161 139 161.5 139 162 139 165 139.5 167.85 140.45 168 140.5 168 141 193.4 149.1 200.85 175.05 201 175.5 201 176 202.75 181.75 201.5 189.95 201.5 190 201 190 201 190.5 200.9 190.95 194.55 216.55 175 229 175 229.5 175 230 175 230.5 174.8 230.6 170.3 232.8 167 231 167 230.5 166.85 230.05 163.6 219.4 160 209 160 209.5 160.05 210 160.4 213.6 158 217 163.25 224.35 163.95 233 164 233.5 164 234 171.7 234.75 179.85 237.45 180 237.5 180 238 176.9 243.3 171.1 244.5 171 244.5 171 245 171.5 245 172 245 208.95 232.95 218.45 193.1 218.5 193 219 193 218.4 149.6 188.9 135.2 188.5 135 188 135 187.5 135 187.05 134.85 184.05 133.95 182 132
M 178.2 139.65
Q 178 139.5 178 139 150.05 135.05 132 134.5
L 132 134
Q 136.95 131.35 150 129.1 150.5 129 151 129 170.95 132.45 189.8 141.4 190 141.5 190 142 192.9 147.1 199.05 148.85 199.5 149 200 149 208.5 161.55 215.4 175.8 215.5 176 216 176 215.45 198.35 209 205.5
L 209 205
Q 202.55 218.15 190.75 230.75 190.5 231 190 231 186.8 230.7 187.9 225.95 188 225.5 188 225 194.8 217.25 203.4 201.2 203.5 201 204 201 203.2 193.7 205.75 189.85 206 189.5 206 189 203.3 181.7 203.95 171 204 170.5 204 170 200.85 163.45 194.2 150.9 194 150.5 194 150 186.35 144.65 178.2 139.65
M 184.25 232.65
Q 184 232.5 184 232 189.4 235.9 184.25 232.65 Z" stroke="none" fill="#260C01"></path>

<path d="M 184 232
Q 184 232.5 184.25 232.65 189.4 235.9 184 232 Z" stroke="none" fill="#0B0201"></path>

<path d="M 178 139
Q 178 139.5 178.2 139.65 186.35 144.65 194 150 194 150.5 194.2 150.9 200.85 163.45 204 170 204 170.5 203.95 171 203.3 181.7 206 189 206 189.5 205.75 189.85 203.2 193.7 204 201 203.5 201 203.4 201.2 194.8 217.25 188 225 188 225.5 187.9 225.95 186.8 230.7 190 231 190.5 231 190.75 230.75 202.55 218.15 209 205
L 209 205.5
Q 215.45 198.35 216 176 215.5 176 215.4 175.8 208.5 161.55 200 149 199.5 149 199.05 148.85 192.9 147.1 190 142 190 141.5 189.8 141.4 170.95 132.45 151 129 150.5 129 150 129.1 136.95 131.35 132 134
L 132 134.5
Q 150.05 135.05 178 139 Z" stroke="none" fill="#080206"></path>

<path d="M 235 77
Q 235 76.5 235.2 76.1 236 74.45 230 75 229.5 75 229 75 231.25 76.25 234 76.9 234.5 77 235 77 Z" stroke="none" fill="#A96B16"></path>

<path d="M 221 75
Q 221.5 75 222 75 222 74.5 221.95 74.5 216 74 210 74 210 74.5 210 75 215.5 75 221 75 Z" stroke="none" fill="#C08C37"></path>

<path d="M 192 75
Q 191.9 76.65 194 76.5
L 194 77
Q 202.5 77 209.05 75.15 209.5 75 210 75 210 74.5 210 74 216 74 221.95 74.5 222 74.5 222 75 225 75 228 75 228.5 75 229 75 229.5 75 230 75 230 74.5 229.95 74.5 205.05 71.55 192 75 Z" stroke="none" fill="#A46517"></path>

<path d="M 194 77
Q 194 77.5 193.95 77.5 169.65 81.15 146 85 146 85.5 145.9 85.55 144 86 142 86 141.5 86 141 86 139.5 86 138 86 138 86.5 137.95 86.5 134 87 130 87
L 130 87.5
Q 86.3 88.3 66 112 66 112.5 65.8 112.9 61.65 120.15 59 129 59 133.5 59 138 59 138.5 59 139 60.35 150.65 61.95 162 62 162.5 62 163 63.7 163.3 63.1 166 63 166.5 63 167 65.15 178.85 66.95 191 67 191.5 67 192 69.65 202.35 70.5 214.95 70.5 215 71 215 72.75 217.25 72.05 222 72 222.5 72 223 73.75 225.25 73.05 230 73 230.5 73 231 74.45 236.05 74.95 242 75 242.5 75 243 77.25 245.25 77 250 77 250.5 77 251 77 253 77 255 77 255.5 77 256 79.3 268.75 85.35 277.75 85.5 278 86 278 86 277.5 85.9 277 80.75 253.25 74 228 83.65 222.75 94.1 228.8 94.5 229 95 229 102.4 226.5 103.9 220 104 219.5 104 219 115.1 218 110.85 215.25 110.5 215 110 215 115.8 209.1 121.05 207.15 121.5 207 122 207 122.5 211.2 127.75 207.65 128 207.5 128 207 132.55 201.55 134.4 198.2 134.5 198 135 198 138.45 203.05 141.4 208.8 141.5 209 142 209 142 214 142 219 142 219.5 142 220 145.45 225.7 147.45 232.85 147.5 233 148 233 148 232.5 148 232 148.5 232 149 232 149 231.5 148.9 231.05 146.4 221.1 144 211 143.5 211 143.5 210.95 143 207.45 142 205 142 204.5 141.85 204.05 140.15 198.85 139 193 138.5 193 138.4 193.2 135.35 199.45 135 191 136.7 192.65 136.95 191 137 190.5 137 190 137 189.5 136.85 189.05 130.3 166.2 124 143 123.5 143 123.5 142.95 123 139.5 123 136 125.55 129.05 133.05 127.1 133.5 127 134 127 134 126.5 134 126 136.2 125.2 139 125.05 139.5 125 140 125 140 124.5 140 124 147.5 124 154.95 124.5 155 124.5 155 125 157.5 125 159.9 125.5 160 125.5 160 126 171.9 127.6 181.85 131.45 182 131.5 182 132 185.8 132.2 187.75 134.25 188 134.5 188 135 188.5 135 188.9 135.2 218.4 149.6 219 193 218.5 193 218.45 193.1 208.95 232.95 172 245 172.8 246.7 176 246.5
L 176 247
Q 185.4 249.15 193.5 244
L 193 244
Q 195.25 238.45 196.45 235.15 196.5 235 197 235 204.65 230.85 208.25 227.25 208.5 227 209 227 210.55 220.9 215 213.5
L 215 214
Q 217.3 202.3 222.2 198.25 222.5 198 223 198 227 190.35 226.1 186.95 226 186.5 226 186 230.75 180 235.3 185.75 235.5 186 236 186 243.5 185.45 244 180.5
L 244 181
Q 246.15 186.1 251.15 183.2 251.5 183 252 183 252 182.5 251.8 182.35 241.9 176.6 235 168 234.5 168 234.5 167.95 234 162.5 234 157 234.5 157 235 157 235 156.5 235 156 235 155.5 235 155 238.05 140.6 251 141 251.5 141 252 141 257.4 140.6 255.55 146.85 255.5 147 255 147 255 147.5 254.8 147.9 254.5 148.5 254 149 254 149.5 253.85 149.95 252.95 152.95 251 155 251 155.5 251.05 156 251.2 159.7 249 161 248.4 163.15 249.9 163.5 250 163.5 250 164 259.4 165 256.25 168.25 256 168.5 256 169 260.25 170.75 263.25 173.75 263.5 174 264 174 264 173.5 264.2 173.4 266.5 172.3 264 165 271.15 166.85 266.6 174.8 266.5 175 266 175 268.7 177.3 271.25 179.75 271.5 180 272 180 273.65 180.15 273.1 177.95 273 177.5 273 177 273 176.5 272.95 176 269.75 153.75 266 132 265.5 132 265.4 131.8 263.75 127.8 264 119 264 118.5 263.95 118 259.3 87.7 235 77 234.5 77 234 76.9 231.25 76.25 229 75 228.5 75 228 75 225 75 222 75 221.5 75 221 75 215.5 75 210 75 209.5 75 209.05 75.15 202.5 77 194 77
M 173 93.05
Q 172.5 93 172 93 132.6 105.4 90.05 100.5 90 100.5 90 100 161.9 82.95 231 83 231.5 83 232 83 231.8 84.2 226.9 86.8 226.5 87 226 87 202.45 89.25 178.1 94.5 178 94.5 178 95 176 93.45 173 93.05
M 212 77.5
L 212 77
Q 225.8 77.75 212 77.5
M 228.25 155.7
Q 228 155.5 228 155 234.4 160.3 228.25 155.7
M 226 151
Q 230.05 157.7 226.25 151.85 226 151.5 226 151
M 71.2 194.6
Q 71 194.5 71 194 80.95 198.05 84.5 203
L 84 203
Q 79.25 203 81.5 209
L 81 209
Q 73.85 205.85 73.55 206.85 73.5 207 73 207 74.8 196.6 71.2 194.6
M 78.15 195.55
Q 78 195.5 78 195 88.45 198.55 78.15 195.55
M 96 145
Q 96 144.5 96 144 100 144 103.95 144.5 104 144.5 104 145 106.15 144.4 106.05 146 106 146.5 106 147 106.5 147 106.75 147.25 107 147.5 107 148 107.5 148.5 107.8 149.1 108 149.5 108 150 114.5 151.95 112.15 158.05 112 158.5 112 159 113 160.5 113.8 162.1 114 162.5 114 163 117.2 164.3 118.8 167.1 119 167.5 119 168 119.5 170 120.75 171.25 121 171.5 121 172 125 172 124.1 177 124 177.5 124 178 124 178.5 124.05 179 126.1 199.65 108 210 108 210.5 108 211 108 211.5 108.05 212 109.05 218.85 105 215 105 215.5 105.15 215.95 106 219 102 217 101.5 217 101.05 217.15 100 217.5 99 218 99 218.5 98.75 218.85 96.75 221.75 92 222 91.5 222 91.4 222.2 90.7 223.7 88 223 88 223.5 87.9 223.5 81.75 224.75 78 223 77.5 223 77.15 222.8 74.45 221.1 74 217 74.5 217 74.75 216.75 75 216.5 75 216 75 215.5 74.95 215 74.75 213.8 74 211 75.95 212.5 79 212.95 79.5 213 80 213 82.9 212.9 84.3 211.25 84.5 211 85 211 85 210.5 85 210 87.55 209.55 89.2 208.25 89.5 208 90 208 94 207 95.8 203.85 96 203.5 96 203 96 202.5 96.25 202.25 97.1 201.35 94 200 95.95 199.95 97.15 199.25 97.5 199 98 199 98 198.5 98 198 98 197.5 98 197 99.5 197 101 197 101.5 197 102 197 102 196.5 102 196 106.65 193.15 108.8 187.9 109 187.5 109 187 108.5 187 108.5 186.95 108 183 108 179 108 178.5 107.8 178.1 105.75 173.75 103 170 102.5 170 102.2 169.75 99.4 167.6 98 164 97.5 164 97.05 163.85 88.55 160.45 86 151 88.1 148.1 92.05 147.1 92.5 147 93 147 93 146.5 93 146 95.15 146.65 95.5 145.1 95.5 145 96 145
M 124 161
Q 127.6 165.1 124.25 161.75 124 161.5 124 161
M 120.1 200.55
Q 120 200.5 120 200 130.45 202.9 120.1 200.55 Z" stroke="none" fill="#F7C149"></path>

<path d="M 120 200
Q 120 200.5 120.1 200.55 130.45 202.9 120 200 Z" stroke="none" fill="#ECC43D"></path>

<path d="M 124.25 161.75
Q 127.6 165.1 124 161 124 161.5 124.25 161.75 Z" stroke="none" fill="#F0C534"></path>

<path d="M 80 213
Q 79.5 213 79 212.95 75.95 212.5 74 211 74.75 213.8 74.95 215 75 215.5 75 216 77.05 214.55 79.85 213.55 80 213.5 80 213 Z" stroke="none" fill="#CEA22B"></path>

<path d="M 88 223
Q 87.5 223 87 223 82.5 223 78 223 81.75 224.75 87.9 223.5 88 223.5 88 223 Z" stroke="none" fill="#9D6D04"></path>

<path d="M 92 221
Q 92 221.5 92 222 96.75 221.75 98.75 218.85 99 218.5 99 218 98.5 218 98.15 218.25 95.45 219.95 92 221 Z" stroke="none" fill="#947B35"></path>

<path d="M 89.85 208.95
Q 90 208.5 90 208 89.5 208 89.2 208.25 87.55 209.55 85 210 85 210.5 85 211 89 211.5 89.85 208.95 Z" stroke="none" fill="#6B4B04"></path>

<path d="M 99 200
Q 99 199.5 98.75 199.25 98.5 199 98 199 97.5 199 97.15 199.25 95.95 199.95 94 200 97.1 201.35 96.25 202.25 96 202.5 96 203 98.2 202.7 98.85 200.95 99 200.5 99 200 Z" stroke="none" fill="#D6B447"></path>

<path d="M 104 214
Q 103.5 214 103 214 102.45 214 99 216 99 216.5 99 217 99 217.5 99 218 100 217.5 101.05 217.15 101.5 217 102 217 102 216.5 102 216 102.5 215.5 103.1 215.2 103.5 215 104 215 104 214.5 104 214 Z" stroke="none" fill="#4B3C12"></path>

<path d="M 105.15 215.95
Q 105 215.5 105 215 104.5 215 104 215 103.5 215 103.1 215.2 102.5 215.5 102 216 102 216.5 102 217 106 219 105.15 215.95 Z" stroke="none" fill="#D6BA47"></path>

<path d="M 108.05 212
Q 108 211.5 108 211 107.5 211 107.35 211.2 106.15 213.15 104 214 104 214.5 104 215 104.5 215 105 215 109.05 218.85 108.05 212 Z" stroke="none" fill="#D1B658"></path>

<path d="M 124 178
Q 124 177.5 124.1 177 125 172 121 172 122.45 174.55 123.45 177.85 123.5 178 124 178 Z" stroke="none" fill="#BD983E"></path>

<path d="M 109 187
L 109.5 187
Q 109.4 182.65 108 179 108 183 108.5 186.95 108.5 187 109 187 Z" stroke="none" fill="#B4985D"></path>

<path d="M 101 197
Q 99.5 197 98 197 98 197.5 98 198 98 198.5 98 199 98.5 199 98.75 199.25 99 199.5 99 200 100.5 199 101.75 197.75 102 197.5 102 197 101.5 197 101 197 Z" stroke="none" fill="#CBA63C"></path>

<path d="M 119 168
Q 119 167.5 118.8 167.1 117.2 164.3 114 163 114.95 166.55 118.05 167.8 118.5 168 119 168 Z" stroke="none" fill="#6D450C"></path>

<path d="M 103 170
Q 103 169.5 102.8 169.1 101.15 165.85 98 164 99.4 167.6 102.2 169.75 102.5 170 103 170 Z" stroke="none" fill="#6A522F"></path>

<path d="M 111.25 158.75
Q 110.5 158 110 157 109.5 157 109.4 156.8 108.7 155.3 107 155 109.2 159.8 113.2 162.75 113.5 163 114 163 114 162.5 113.8 162.1 113 160.5 112 159 111.5 159 111.25 158.75 Z" stroke="none" fill="#563C03"></path>

<path d="M 107 153
Q 107 153.5 107 154 107 154.5 107 155 108.7 155.3 109.4 156.8 109.5 157 110 157 110 156.5 109.9 156 109.25 153.25 108 151 108 151.5 107.8 151.9 107.5 152.5 107 153 Z" stroke="none" fill="#E1BE57"></path>

<path d="M 108 150
Q 108 149.5 107.8 149.1 107.5 148.5 107 148 107 148.5 107.1 149 107.7 151.7 106 152 106 153.5 106.45 154.85 106.5 155 107 155 107 154.5 107 154 107 153.5 107 153 107.5 152.5 107.8 151.9 108 151.5 108 151 108 150.5 108 150 Z" stroke="none" fill="#7F5E16"></path>

<path d="M 112 159
Q 112 158.5 112.15 158.05 114.5 151.95 108 150 108 150.5 108 151 109.25 153.25 109.9 156 110 156.5 110 157 110.5 158 111.25 158.75 111.5 159 112 159 Z" stroke="none" fill="#E6B638"></path>

<path d="M 93 146
Q 93 146.5 93 147 99.4 144.9 105.05 146.85 105.5 147 106 147 106 146.5 106.05 146 106.15 144.4 104 145 103.5 145 103 145 99.5 145 96 145 95.5 145 95.5 145.1 95.15 146.65 93 146 Z" stroke="none" fill="#522C00"></path>

<path d="M 93 147
Q 92.5 147 92.05 147.1 88.1 148.1 86 151 88.55 160.45 97.05 163.85 97.5 164 98 164 101.15 165.85 102.8 169.1 103 169.5 103 170 105.75 173.75 107.8 178.1 108 178.5 108 179 109.4 182.65 109.5 187
L 109 187
Q 109 187.5 108.8 187.9 106.65 193.15 102 196 102 196.5 102 197 102 197.5 101.75 197.75 100.5 199 99 200 99 200.5 98.85 200.95 98.2 202.7 96 203 96 203.5 95.8 203.85 94 207 90 208 90 208.5 89.85 208.95 89 211.5 85 211 84.5 211 84.3 211.25 82.9 212.9 80 213 80 213.5 79.85 213.55 77.05 214.55 75 216 75 216.5 74.75 216.75 74.5 217 74 217 74.45 221.1 77.15 222.8 77.5 223 78 223 82.5 223 87 223 87.5 223 88 223 90.7 223.7 91.4 222.2 91.5 222 92 222 92 221.5 92 221 95.45 219.95 98.15 218.25 98.5 218 99 218 99 217.5 99 217 99 216.5 99 216 102.45 214 103 214 103.5 214 104 214 106.15 213.15 107.35 211.2 107.5 211 108 211 108 210.5 108 210 126.1 199.65 124.05 179 124 178.5 124 178 123.5 178 123.45 177.85 122.45 174.55 121 172 121 171.5 120.75 171.25 119.5 170 119 168 118.5 168 118.05 167.8 114.95 166.55 114 163 113.5 163 113.2 162.75 109.2 159.8 107 155 106.5 155 106.45 154.85 106 153.5 106 152 107.7 151.7 107.1 149 107 148.5 107 148 107 147.5 106.75 147.25 106.5 147 106 147 105.5 147 105.05 146.85 99.4 144.9 93 147
M 106.25 197.75
Q 106 197.5 106 197 116.15 207.2 106.25 197.75
M 114.2 185.9
Q 114 185.5 114 185 117.75 192.15 114.2 185.9 Z" stroke="none" fill="#1E0803"></path>

<path d="M 114 185
Q 114 185.5 114.2 185.9 117.75 192.15 114 185 Z" stroke="none" fill="#080515"></path>

<path d="M 106 197
Q 106 197.5 106.25 197.75 116.15 207.2 106 197 Z" stroke="none" fill="#020519"></path>

<path d="M 96 144
Q 96 144.5 96 145 99.5 145 103 145 103.5 145 104 145 104 144.5 103.95 144.5 100 144 96 144 Z" stroke="none" fill="#A87211"></path>

<path d="M 78 195
Q 78 195.5 78.15 195.55 88.45 198.55 78 195 Z" stroke="none" fill="#FACC42"></path>

<path d="M 71 194
Q 71 194.5 71.2 194.6 74.8 196.6 73 207 73.5 207 73.55 206.85 73.85 205.85 81 209
L 81.5 209
Q 79.25 203 84 203
L 84.5 203
Q 80.95 198.05 71 194 Z" stroke="none" fill="#F9CB41"></path>

<path d="M 226.25 151.85
Q 230.05 157.7 226 151 226 151.5 226.25 151.85
M 228 155
Q 228 155.5 228.25 155.7 234.4 160.3 228 155 Z" stroke="none" fill="#F9C635"></path>

<path d="M 212 77
L 212 77.5
Q 225.8 77.75 212 77 Z" stroke="none" fill="#EBBA3B"></path>

<path d="M 172 93
Q 172.5 93 173 93.05 176 93.45 178 95 178 94.5 178.1 94.5 202.45 89.25 226 87 226.5 87 226.9 86.8 231.8 84.2 232 83 231.5 83 231 83 161.9 82.95 90 100 90 100.5 90.05 100.5 132.6 105.4 172 93 Z" stroke="none" fill="#FEE273"></path>

<path d="M 179 75
L 179.5 75
Q 167.3 80.65 147 81 147 81.5 147.15 81.95 147.45 83 143 84 142.9 85.65 145.05 85.1 145.5 85 146 85 169.65 81.15 193.95 77.5 194 77.5 194 77 193.5 77 193.05 76.85 183.65 74 179 75 Z" stroke="none" fill="#A66619"></path>
</g>
</g>
</g>
</g>
</g>
</svg>
