
<svg viewBox="0 0 112 184" height="184px" width="112px" y="0px" x="0px" preserveAspectRatio="none" xmlns:xlink="http://www.w3.org/1999/xlink" version="1.1" xmlns="http://www.w3.org/2000/svg">
<defs></defs>

<g id="fun_scrollers">
<g transform="matrix( 0.3621063232421875, 0, 0, 0.3621063232421875, -594.2,0.1)" id="svg"></g>

<g transform="matrix( 0.3621063232421875, 0, 0, 0.3621063232421875, -594.2,0.1)" id="Layer_2"></g>

<g transform="matrix( 0.3621063232421875, 0, 0, 0.3621063232421875, -594.2,0.1)" id="Layer_3"></g>

<g transform="matrix( 0.3621063232421875, 0, 0, 0.3621063232421875, -594.2,0.1)" id="Layer_2"></g>

<g transform="matrix( 0.3621063232421875, 0, 0, 0.3621063232421875, -594.2,0.1)" id="Layer_3"></g>

<g transform="matrix( 0.3621063232421875, 0, 0, 0.3621063232421875, -594.2,0.1)" id="MergedLayer_3"></g>

<g transform="matrix( 0.3621063232421875, 0, 0, 0.3621063232421875, -594.2,0.1)" id="Layer_5">
<g>
<g>
<g>
<path d="M 1779.7 100.75
L 1779.7 102.85
Q 1779.8 104.85 1779.9 105.5 1780.00625 105.925 1780.4 106.95
L 1780.05 104.85
Q 1779.9494140625 102.7365234375 1779.7 100.75
M 1763.95 29.45
Q 1757.25 25.3 1750.65 23.3 1744.2 21.4 1736.25 21.2
L 1732.5 21.2
Q 1707.35 20.75 1684.55 23.1
L 1681.1 23.5
Q 1673.5 24.3 1669.1 25.1 1662.4 26.2 1657.3 28.05 1656.45 29.7 1656.35 30.85 1656.2 31.95 1656.25 36.9
L 1656.25 39.6
Q 1656.2 41.55 1656.15 45.5 1656.25 48.9 1657.4 51.15 1660.3 52.55 1661.1 52.85 1661.95 53.1 1664.05 53.4
L 1687.2 53.9
Q 1686 57.45 1685.45 61.45 1685 64.4 1684.7 69.15 1684.2 77.6 1683.9 80.6 1683.15 86.95 1681.5 91.75 1679.7248046875 96.8478515625 1679.2 102.65
L 1679.75 102.65
Q 1679.5 110 1679.5 110.1
L 1679.8 112.25
Q 1681.45 112.9 1682.7 113.25
L 1679.4 114.85
Q 1679.3478515625 114.876171875 1679.3 114.9 1679.5650390625 114.8087890625 1679.8 114.75 1683.45 113.5 1686.9 113.15
L 1697.2 113.4
Q 1702.15 113.5 1712.05 113.55 1721.2 113.5 1730.35 113.6
L 1767.25 113.75
Q 1769.9 113.7 1770.75 113.75 1771.6 113.8 1774.05 114.15 1774.7 114.4 1775.35 114.7
L 1776 114.7
Q 1774.2416015625 114.046484375 1772.5 113.75
L 1772.5 113.3
Q 1774.45 113.05 1778.8 111.85 1779.8 108.7 1779.65 105.15 1779.6 103 1778.75 98.35
L 1779.4 98.35
Q 1779.15078125 96.6787109375 1778.8 95.1 1775.45 79.85 1775.55 59.7
L 1775.7 51.05
Q 1775.85 44.8 1774.75 40.7 1773.5 37.65 1771.65 35.45 1769.95 33.45 1767.05 31.35
L 1763.95 29.45
M 1753.55 31.55
Q 1753.55 31.9 1760.1 36.6 1766.85 42.3 1767.75 47.2 1767.9 47.95 1768 48.8
L 1696.85 50.1 1695.85 47.2 1663.15 46.4
Q 1660.4 40.3 1662.15 33.9 1707.5 20.05 1753.55 31.55
M 1769.3 63.15
L 1769.45 69.35
Q 1769.9 83.55 1772.5 97 1773.4 102.6 1773.1 106.45
L 1771.25 108.4
Q 1767.85 108.65 1763.15 108.7
L 1685.6 108.8
Q 1686.3 101.8 1686.55 100.15 1686.85 98.35 1687.85 95 1689.7 88.7 1690.3 78.4 1691.15 65.55 1693.05 57.75
L 1695.95 54.85
Q 1698.05 54.6 1698.85 54.5 1699.7 54.45 1702.35 54.45
L 1760.15 54.3
Q 1764.5 54.65 1768.1 56.45 1768.85 58.05 1769.1 59.7 1769.2 60.55 1769.3 63.15 Z" stroke="none" fill="#7E1A34"></path>

<path d="M 1769.45 69.35
L 1769.3 63.15
Q 1769.2 60.55 1769.1 59.7 1768.85 58.05 1768.1 56.45 1764.5 54.65 1760.15 54.3
L 1702.35 54.45
Q 1699.7 54.45 1698.85 54.5 1698.05 54.6 1695.95 54.85
L 1693.05 57.75
Q 1691.15 65.55 1690.3 78.4 1689.7 88.7 1687.85 95 1686.85 98.35 1686.55 100.15 1686.3 101.8 1685.6 108.8
L 1763.15 108.7
Q 1767.85 108.65 1771.25 108.4
L 1773.1 106.45
Q 1773.4 102.6 1772.5 97 1769.9 83.55 1769.45 69.35 Z" stroke="none" fill="#E21F2D"></path>

<path d="M 1760.1 36.6
Q 1753.55 31.9 1753.55 31.55 1707.5 20.05 1662.15 33.9 1660.4 40.3 1663.15 46.4
L 1695.85 47.2 1696.85 50.1 1768 48.8
Q 1767.9 47.95 1767.75 47.2 1766.85 42.3 1760.1 36.6 Z" stroke="none" fill="#DF202E"></path>

<path d="M 1793.65 128.4
Q 1798.7 135.8 1801.05 144.75 1803.15 152.65 1803.2 162.6
L 1803.25 165.15
Q 1803.25 177.45 1802.3 199.3
L 1800.9 229.3
Q 1800.7 233.95 1800.1 237.8 1799.65 240.7 1799.35 243.55
L 1797.85 271.7
Q 1796.5 297.65 1796 328.85 1795.7 351.65 1795.7 386.05
L 1795.7 415.85
Q 1795.75 424.4 1795.3 428.65 1793.6 432.55 1792.75 433.7 1792 434.9 1788.95 437.95
L 1784.15 442.8 1782.4 446.3 1782.25 446.6
Q 1781.909375 446.66328125 1781.55 446.7 1776.7431640625 447.517578125 1768.05 447.75
L 1702.55 448.05
Q 1688.25 448.35 1681.05 448.3 1668.55 448.15 1659.7 446.3 1656.65 445.4 1655.05 444.2 1653.4 443.1 1651.4 440.5 1649.05 436.1 1648.05 432.75 1647 429 1646.95 424.4
L 1647.15 386.05
Q 1647.25 377.9 1647.25 373.85
L 1648 300.75
Q 1648.5 243.75 1649 221.9 1649.5 204.4 1649.5 191.8
L 1649.7 155.2
Q 1649.65 149.1 1649.85 146.6 1650.15 142 1651.45 138.25
L 1652.95 135.5
Q 1661.15 125.85 1664.5 123.25 1667.78515625 120.66171875 1679.3 114.9 1679.3478515625 114.876171875 1679.4 114.85
L 1682.7 113.25
Q 1681.45 112.9 1679.8 112.25
L 1679.5 110.1
Q 1679.5 110 1679.75 102.65
L 1679.2 102.65 1678.75 102.65 1678.75 107.45 1676.85 107.45
Q 1667.75 111.6 1662.45 114.85 1654.9 119.5 1650.15 125.05 1646.15 130.75 1644.35 138.15 1642.85 144.25 1642.75 152.4
L 1642.5 201.4
Q 1642.55 212.75 1642.35 235.2
L 1642.25 253.5
Q 1642.15 270.05 1642.1 272.9 1641.95 283.9 1641.55 292.35 1641 302.15 1641.2 314.95 1641.45 338.85 1641.05 357.2 1640.45 386.95 1640.45 405.3
L 1640.45 424.7
Q 1640.45 433.5 1641.6 438.5 1644.15 445.35 1650.2 450.45 1653.85 452.25 1658.15 453.2 1661.55 453.85 1666.4 454.2
L 1732.65 455.25
Q 1749.4 455.55 1756.05 455.4 1769.2 455.1 1779.35 453.35 1785.55 451.75 1790 448.55 1793.85 445.85 1798.4 440.4 1802.25 433.8 1802.9 428.7 1803.5 423.55 1803.2 399.45
L 1802.95 380.75
Q 1802.65 346.1 1803.05 321.5 1803.55 289.5 1805.3 262.35 1806.65 242 1807.95 214.45
L 1809.2 189.1
Q 1810.3 169.15 1809.6 159.1 1808.45 142.6 1803 130 1799.75 123.8 1796.7 120 1792.75 115 1787.8 112.35 1783.2 110.05 1780.75 107.95 1780.5458984375 107.4103515625 1780.4 106.95 1780.00625 105.925 1779.9 105.5 1779.8 104.85 1779.7 102.85
L 1779.7 100.75 1779.75 98.35 1779.4 98.35 1778.75 98.35
Q 1779.6 103 1779.65 105.15 1779.8 108.7 1778.8 111.85 1774.45 113.05 1772.5 113.3
L 1772.5 113.75
Q 1774.2416015625 114.046484375 1776 114.7 1776.6287109375 114.928125 1777.25 115.2
L 1779.8 116.65
Q 1788.5 121.65 1793.65 128.4 Z" stroke="none" fill="#706C84"></path>

<path d="M 1801.05 144.75
Q 1798.7 135.8 1793.65 128.4 1788.5 121.65 1779.8 116.65
L 1777.25 115.2
Q 1776.6287109375 114.928125 1776 114.7
L 1775.35 114.7
Q 1774.7 114.4 1774.05 114.15 1771.6 113.8 1770.75 113.75 1769.9 113.7 1767.25 113.75
L 1730.35 113.6
Q 1721.2 113.5 1712.05 113.55 1702.15 113.5 1697.2 113.4
L 1686.9 113.15
Q 1683.45 113.5 1679.8 114.75 1679.5650390625 114.8087890625 1679.3 114.9 1667.78515625 120.66171875 1664.5 123.25 1661.15 125.85 1652.95 135.5
L 1651.45 138.25
Q 1650.15 142 1649.85 146.6 1649.65 149.1 1649.7 155.2
L 1649.5 191.8
Q 1649.5 204.4 1649 221.9 1648.5 243.75 1648 300.75
L 1647.25 373.85
Q 1647.25 377.9 1647.15 386.05
L 1646.95 424.4
Q 1647 429 1648.05 432.75 1649.05 436.1 1651.4 440.5 1653.4 443.1 1655.05 444.2 1656.65 445.4 1659.7 446.3 1668.55 448.15 1681.05 448.3 1688.25 448.35 1702.55 448.05
L 1768.05 447.75
Q 1776.7431640625 447.517578125 1781.55 446.7 1781.9859375 446.533203125 1782.4 446.3
L 1784.15 442.8 1788.95 437.95
Q 1792 434.9 1792.75 433.7 1793.6 432.55 1795.3 428.65 1795.75 424.4 1795.7 415.85
L 1795.7 386.05
Q 1795.7 351.65 1796 328.85 1796.5 297.65 1797.85 271.7
L 1799.35 243.55
Q 1799.65 240.7 1800.1 237.8 1800.7 233.95 1800.9 229.3
L 1802.3 199.3
Q 1803.25 177.45 1803.25 165.15
L 1803.2 162.6
Q 1803.15 152.65 1801.05 144.75
M 1768.1 237.6
L 1777.2 237.4 1779.4 237.9
Q 1781.5 241.85 1782.35 248.45
L 1783.1 251.5
Q 1783.45 253.8 1783.55 254.55 1783.6 255.35 1783.65 257.6
L 1782.4 259.95
Q 1774.2 261.5 1763.15 260.05
L 1762.15 258.1
Q 1758.1 258.1 1754.15 258.3
L 1746.2 258.65
Q 1743.25 258.8 1728.6 259.2 1718.25 259.55 1713.1 259.8 1706.45 260.2 1698.15 260.35 1694.3 260.45 1692.4 260.65 1684.3 261.15 1682.35 260.85 1680.4 260.6 1676.6 258.5 1673.15 250.95 1675.4 239.35 1675.6 238.95 1692.8 239.15 1714.9 239.35 1716.2 239.35
L 1724.8 239.3
Q 1740.55 239.2 1752.05 238.25 1758.95 237.7 1768.1 237.6
M 1786.85 399.5
Q 1787.95 403.2 1787.9 407.2 1787.8 410.3 1786.9 414.9
L 1785.95 415.85
Q 1779.85 416.25 1775.05 416.3
L 1771.55 416.4
Q 1761.05 416.7 1739.95 417.05 1730.5 417.15 1718.7 417.55 1708.45 417.9 1698.15 417.95
L 1690.3 418.15
Q 1677.75 418.6 1675.05 418.4 1672.35 418.2 1668.6 416.35 1666.95 413.4 1666.6 412.35 1666.3 411.25 1665.95 407.7 1666.4 404.2 1666.75 403.1 1667.1 402 1668.55 399.05 1671.9 397.25 1676.35 397.05 1678.2 396.9 1684.65 397.3
L 1689.7 397.3
Q 1694.2 397.35 1703.25 397.7 1710 397.95 1716.6 397.9 1724.4 398 1732.4 398.3 1747.25 398.85 1756.8 398.55
L 1772.8 398.05
Q 1780.05 397.7 1781.8 397.8 1783.55 398 1786.85 399.5
M 1736.7 194.6
Q 1737.55 192.65 1739.8 189.95
L 1741.55 187.75
Q 1745.95 183.7 1751.6 182.3 1755.35 181.4 1763.1 181.15
L 1766.45 181.05
Q 1771.6 181 1775.35 182.15 1777.5 183.9 1778.9 186 1780.15 187.8 1781.15 190.75 1781.9 195.3 1781.75 201.65
L 1781.75 204.5
Q 1781.65 208.6 1781.2 210.45 1780.55 212.8 1778.35 215.8
L 1777.4 219.65
Q 1772.9 221.8 1766.15 222.6 1762.95 222.9 1754.4 223.1
L 1751.75 223.2
Q 1748.35 223.2 1746.4 222.75 1743.95 222.2 1741.35 220.55 1738.3 217.25 1737.6 216.35 1737 215.35 1736.05 213.05 1735.7 210.05 1735.6 208.95 1735.55 207.9 1735.55 204.5
L 1735.5 199.95
Q 1735.8 196.6 1736.7 194.6
M 1784.7 136.1
Q 1785.75 136.9 1786.7 137.85
L 1787 145.05 1786.85 163.85 1787 163.85 1787.05 167.6 1786.85 169.6 1784.95 169.6 1784.95 174.4
Q 1783.25 174.8 1782.55 174.9 1781.9 174.95 1779.5 174.95 1771.05 175.35 1761.45 177.5
L 1747.85 180.6
Q 1729.45 184.75 1725 184.9 1720.45 185.15 1711.85 182.05 1703.65 179.3 1696.05 178.9 1690.85 178.5 1684.9 176.4 1680.95 175.05 1674.3 172.05
L 1669.4 170.75 1665.65 169.15
Q 1665.05 166.95 1665 166.2 1665 165.5 1665.6 163.35 1669.55 162.6 1673.85 162.75
L 1721.25 162.85
Q 1735.05 162.75 1748.8 162.85
L 1751.55 162.9
Q 1758.3 162.9 1765.95 163.35
L 1774.65 163.95
Q 1776.7 164.1 1777.45 164.1 1778.2625 164.1 1780.8 163.85
L 1781.05 163.85 1781.05 160.1
Q 1780.55 160 1780.05 160 1778.95 159.95 1777.9 159.95 1776.75 159.95 1775.6 159.95 1774.35 159.95 1773.15 160 1771.85 160 1770.6 160.05 1765.25 160.3 1759.95 160.45 1759.15 160.5 1758.35 160.6 1757.35 160.6 1756.4 160.65 1755.35 160.75 1754.3 160.8 1753.15 160.8 1752 160.8 1750.75 160.85 1749.5 160.9 1748.1 160.9 1746.75 160.95 1745.3 161 1743.85 161.1 1742.25 161.1 1740.65 161.1 1739.55 161.1 1738.45 161.15 1737.8 161.15 1737.15 161.15 1736.4 161.1 1735.65 161.1 1734 161.05 1732.3 161.1 1729.3 160.8 1726.5 160.8 1723.9 160.8 1721.3 160.8 1718.65 160.75 1716 160.8 1710.55 160.9 1705.15 161.1
L 1670.45 161.25
Q 1669.6 161 1668.9 160.65 1668.55 160.6 1668.35 160.45 1668.1 160.3 1667.85 160.15 1667.7 160.05 1667.55 159.95 1667.4 159.85 1667.3 159.75 1667.25 159.7 1667.2 159.65 1667.1 159.5 1667.05 159.35 1666.9 159 1666.8 158.75 1666.6 158.35 1666.5 157.95 1666.2 156.55 1666 155.1 1665.8 153.6 1665.75 152.15 1665.65 150.7 1665.65 149.35 1665.6 147.9 1665.7 146.45 1665.75 145.05 1665.9 143.7 1666.25 140.95 1666.8 138.2 1667.05 136.8 1667.4 135.5
L 1667.4 135.45 1668.35 134.45 1669.4 134.45
Q 1669.851953125 134.2556640625 1670.35 134.1 1671.15 133.85 1672 133.65 1672.8 133.5 1673.65 133.35 1673.8 133.35 1674 133.35 1674.2 133.35 1674.45 133.35 1674.7 133.35 1675.05 133.35 1675.4 133.35 1675.8 133.3 1676.25 133.3 1676.75 133.3 1677.25 133.3 1677.8 133.3 1678.4 133.3 1679.05 133.3 1679.7 133.3 1680.45 133.3
L 1770.4 133.75
Q 1771.45 133.75 1772.55 133.8 1773.55 133.85 1774.6 133.95 1775.55 134.05 1776.55 134.2 1777.4 134.25 1778.35 134.4 1779.2 134.55 1780.1 134.7 1780.95 134.85 1781.8 135 1782.55 135.2 1783.4 135.45 1784.05 135.7 1784.7 136.1 Z" stroke="none" fill="#F5F7F9"></path>

<path d="M 1786.7 137.85
Q 1785.75 136.9 1784.7 136.1 1784.05 135.7 1783.4 135.45 1782.55 135.2 1781.8 135 1780.95 134.85 1780.1 134.7 1779.2 134.55 1778.35 134.4 1777.4 134.25 1776.55 134.2 1775.55 134.05 1774.6 133.95 1773.55 133.85 1772.55 133.8 1771.45 133.75 1770.4 133.75
L 1680.45 133.3
Q 1679.7 133.3 1679.05 133.3 1678.4 133.3 1677.8 133.3 1677.25 133.3 1676.75 133.3 1676.25 133.3 1675.8 133.3 1675.4 133.35 1675.05 133.35 1674.7 133.35 1674.45 133.35 1674.2 133.35 1674 133.35 1673.8 133.35 1673.65 133.35 1672.8 133.5 1672 133.65 1671.15 133.85 1670.35 134.1 1669.851953125 134.2556640625 1669.4 134.45
L 1668.35 134.45 1667.4 135.45 1667.4 135.5
Q 1667.05 136.8 1666.8 138.2 1666.25 140.95 1665.9 143.7 1665.75 145.05 1665.7 146.45 1665.6 147.9 1665.65 149.35 1665.65 150.7 1665.75 152.15 1665.8 153.6 1666 155.1 1666.2 156.55 1666.5 157.95 1666.6 158.35 1666.8 158.75 1666.9 159 1667.05 159.35 1667.1 159.5 1667.2 159.65 1667.25 159.7 1667.3 159.75 1667.4 159.85 1667.55 159.95 1667.7 160.05 1667.85 160.15 1668.1 160.3 1668.35 160.45 1668.55 160.6 1668.9 160.65 1669.6 161 1670.45 161.25
L 1705.15 161.1
Q 1710.55 160.9 1716 160.8 1718.65 160.75 1721.3 160.8 1723.9 160.8 1726.5 160.8 1729.3 160.8 1732.3 161.1 1734 161.05 1735.65 161.1 1736.4 161.1 1737.15 161.15 1737.8 161.15 1738.45 161.15 1739.55 161.1 1740.65 161.1 1742.25 161.1 1743.85 161.1 1745.3 161 1746.75 160.95 1748.1 160.9 1749.5 160.9 1750.75 160.85 1752 160.8 1753.15 160.8 1754.3 160.8 1755.35 160.75 1756.4 160.65 1757.35 160.6 1758.35 160.6 1759.15 160.5 1759.95 160.45 1765.25 160.3 1770.6 160.05 1771.85 160 1773.15 160 1774.35 159.95 1775.6 159.95 1776.75 159.95 1777.9 159.95 1778.95 159.95 1780.05 160 1780.55 160 1781.05 160.1
L 1781.05 163.85 1786.85 163.85 1787 145.05 1786.7 137.85 Z" stroke="none" fill="#110F1A"></path>

<path d="M 1784.95 169.6
L 1786.85 169.6 1787.05 167.6 1787 163.85 1786.85 163.85 1781.05 163.85 1780.8 163.85
Q 1778.2625 164.1 1777.45 164.1 1776.7 164.1 1774.65 163.95
L 1765.95 163.35
Q 1758.3 162.9 1751.55 162.9
L 1748.8 162.85
Q 1735.05 162.75 1721.25 162.85
L 1673.85 162.75
Q 1669.55 162.6 1665.6 163.35 1665 165.5 1665 166.2 1665.05 166.95 1665.65 169.15
L 1669.4 170.75 1674.3 172.05
Q 1680.95 175.05 1684.9 176.4 1690.85 178.5 1696.05 178.9 1703.65 179.3 1711.85 182.05 1720.45 185.15 1725 184.9 1729.45 184.75 1747.85 180.6
L 1761.45 177.5
Q 1771.05 175.35 1779.5 174.95 1781.9 174.95 1782.55 174.9 1783.25 174.8 1784.95 174.4
L 1784.95 169.6 Z" stroke="none" fill="#992A3F"></path>

<path d="M 1739.8 189.95
Q 1737.55 192.65 1736.7 194.6 1735.8 196.6 1735.5 199.95
L 1735.55 204.5
Q 1735.55 207.9 1735.6 208.95 1735.7 210.05 1736.05 213.05 1737 215.35 1737.6 216.35 1738.3 217.25 1741.35 220.55 1743.95 222.2 1746.4 222.75 1748.35 223.2 1751.75 223.2
L 1754.4 223.1
Q 1762.95 222.9 1766.15 222.6 1772.9 221.8 1777.4 219.65
L 1778.35 215.8
Q 1780.55 212.8 1781.2 210.45 1781.65 208.6 1781.75 204.5
L 1781.75 201.65
Q 1781.9 195.3 1781.15 190.75 1780.15 187.8 1778.9 186 1777.5 183.9 1775.35 182.15 1771.6 181 1766.45 181.05
L 1763.1 181.15
Q 1755.35 181.4 1751.6 182.3 1745.95 183.7 1741.55 187.75
L 1739.8 189.95
M 1749.25 191.4
Q 1751.85 189.55 1754.15 188.75 1756.45 187.95 1759.7 187.75
L 1763.6 187.8
Q 1767.05 187.8 1770.55 187.9 1771.6 188.9 1772 189.55 1772.45 190.1 1774 192.7 1775.85 196.1 1776.4 199.25 1776.75 201.85 1776.4 206.2
L 1775.45 207.15
Q 1774.4 209.7 1773.95 210.55 1773.45 211.35 1771.65 213.85 1766.65 216.4 1760.8 217.05 1755.8 217.65 1749.5 216.85 1746.35 215.75 1745.5 215.15 1744.65 214.6 1742.75 212.1 1740.8 207.6 1740.8 202.5 1743 197.7 1744.05 196.3 1745.15 194.9 1749.25 191.4 Z" stroke="none" fill="#5D5A76"></path>

<path d="M 1754.15 188.75
Q 1751.85 189.55 1749.25 191.4 1745.15 194.9 1744.05 196.3 1743 197.7 1740.8 202.5 1740.8 207.6 1742.75 212.1 1744.65 214.6 1745.5 215.15 1746.35 215.75 1749.5 216.85 1755.8 217.65 1760.8 217.05 1766.65 216.4 1771.65 213.85 1773.45 211.35 1773.95 210.55 1774.4 209.7 1775.45 207.15
L 1776.4 206.2
Q 1776.75 201.85 1776.4 199.25 1775.85 196.1 1774 192.7 1772.45 190.1 1772 189.55 1771.6 188.9 1770.55 187.9 1767.05 187.8 1763.6 187.8
L 1759.7 187.75
Q 1756.45 187.95 1754.15 188.75 Z" stroke="none" fill="#F1F3F7"></path>

<path d="M 1787.9 407.2
Q 1787.95 403.2 1786.85 399.5 1783.55 398 1781.8 397.8 1780.05 397.7 1772.8 398.05
L 1756.8 398.55
Q 1747.25 398.85 1732.4 398.3 1724.4 398 1716.6 397.9 1710 397.95 1703.25 397.7 1694.2 397.35 1689.7 397.3
L 1684.65 397.3
Q 1678.2 396.9 1676.35 397.05 1671.9 397.25 1668.55 399.05 1667.1 402 1666.75 403.1 1666.4 404.2 1665.95 407.7 1666.3 411.25 1666.6 412.35 1666.95 413.4 1668.6 416.35 1672.35 418.2 1675.05 418.4 1677.75 418.6 1690.3 418.15
L 1698.15 417.95
Q 1708.45 417.9 1718.7 417.55 1730.5 417.15 1739.95 417.05 1761.05 416.7 1771.55 416.4
L 1775.05 416.3
Q 1779.85 416.25 1785.95 415.85
L 1786.9 414.9
Q 1787.8 410.3 1787.9 407.2
M 1777.2 237.4
L 1768.1 237.6
Q 1758.95 237.7 1752.05 238.25 1740.55 239.2 1724.8 239.3
L 1716.2 239.35
Q 1714.9 239.35 1692.8 239.15 1675.6 238.95 1675.4 239.35 1673.15 250.95 1676.6 258.5 1680.4 260.6 1682.35 260.85 1684.3 261.15 1692.4 260.65 1694.3 260.45 1698.15 260.35 1706.45 260.2 1713.1 259.8 1718.25 259.55 1728.6 259.2 1743.25 258.8 1746.2 258.65
L 1754.15 258.3
Q 1758.1 258.1 1762.15 258.1
L 1763.15 260.05
Q 1774.2 261.5 1782.4 259.95
L 1783.65 257.6
Q 1783.6 255.35 1783.55 254.55 1783.45 253.8 1783.1 251.5
L 1782.35 248.45
Q 1781.5 241.85 1779.4 237.9
L 1777.2 237.4 Z" stroke="none" fill="#9DAEEA"></path>
</g>
</g>
</g>
</g>

<g transform="matrix( 0.3621063232421875, 0, 0, 0.3621063232421875, -594.2,0.1)" id="Layer_6">
<g>
<g>
<g>
<path d="M 1630.7 438.95
Q 1630.4427734375 439.334375 1630.2 439.7
L 1630.2 465.35
Q 1632.71015625 465.159765625 1637.6 464.5 1638.4 464.4 1638.7 464.05 1639.05 463.75 1639.05 462.75
L 1639.1 459.05
Q 1639.2 455.9 1638.55 454.25 1638.1 453.05 1637.2 452.3 1636.2 451.4 1635.05 451.35 1635.55 448.9 1637.4 446.15 1637.8 445.6 1641 441.5 1642.6 439.5 1645.5 435.2
L 1648 431.5
Q 1649.05 429.45 1648.25 425.25 1647.3 425.4 1644.35 425.05 1641.8 424.85 1640.5 425.75 1639.8 426.25 1638.75 427.95 1637.1 430.7 1635.05 433.3 1634.85 433.6 1632.8 436.1 1631.45 437.8 1630.7 438.95
M 1773.05 449.9
Q 1772.45 457.1 1772.1 468.35
L 1771.95 472.9
Q 1766.45 473.65 1762.95 473.75 1760.25 473.9 1755.75 473.85 1750.3 473.8 1748.55 473.85 1746 473.85 1743.85 474.05 1742.55 474.15 1742.15 474.65 1741.75 475.15 1741.75 476.25
L 1741.8 481.7
Q 1741.8 482.45 1742 482.75 1742.4 483.4 1743.8 483.4
L 1774.55 483.5
Q 1777.15 483.5 1778.35 483.15 1778.75 480.65 1779.05 475.55
L 1779.55 464.7
Q 1780 455.65 1779.95 449.95
L 1773.05 449.9
M 1706.45 482.4
Q 1706.9 478.4 1706.65 474.1 1706.55 472.15 1706.25 470.75 1705.9 469 1704.8 466.45
L 1700.4 455.25 1693.35 455.15
Q 1693.45 456.05 1693.35 458.4 1693.3 460.45 1693.5 461.65 1693.65 462.45 1694.15 463.95 1695.3 467.25 1697.1 471.5
L 1679.1 471.6
Q 1675.35 471.6 1673 471.95 1672.2 472.05 1671.95 472.3 1671.45 472.8 1671.65 474.1 1669.2 474.25 1666 474.75
L 1666 481.45
Q 1693 482.35 1706.45 482.4
M 1807.4 419.9
Q 1805.9 417.05 1806.25 415.4
L 1799.3 415.35
Q 1799.45 416.55 1799.3 420.05 1799.15 422.95 1799.6 424.65 1799.85 425.7 1801.15 428.2
L 1807 439.25
Q 1809.85 444.65 1811.95 447 1812.35 447.5 1812.25 447.8 1812.1 448.15 1811.2 448.2 1810.55 448.5 1810.55 449.8
L 1810.55 458.25
Q 1810.55 460.5 1811.4 461.3 1812.15 461.95 1813.8 462.05 1822.05 462.6 1830.2 460.45 1831.35 460.15 1831.8 459.65 1832.15 459.15 1832.15 458 1832.35 451.05 1831.75 447.25
L 1825 447
Q 1824 447 1823.45 446.65 1823.05 446.45 1822.35 445.25 1821.5 443.65 1819.8 441.35 1817.4 438 1817.1 437.55 1815.45 435.15 1812.75 430.05
L 1807.4 419.9 Z" stroke="none" fill="#000000"></path>
</g>
</g>
</g>
</g>

<g transform="matrix( 0.3621063232421875, 0, 0, 0.3621063232421875, -594.2,0.1)" id="MergedLayer_1">
<g>
<g>
<g>
<path d="M 1756.3 205.2
Q 1755.25 207.8 1750 207.8
L 1708.25 207.85
Q 1696.6 207.85 1690.8 207.5 1682.0517578125 206.9587890625 1675.1 205.35 1674.94375 205.38046875 1674.8 205.4 1667.55 206.35 1662.55 206.2
L 1662.55 204.55
Q 1661.4 204.2 1660.25 205.2 1659.4 206 1658.7 207.4 1654.65 215.95 1652.05 227.1 1650.3 234.9 1648.55 247.65 1646.95 259.9 1646.8 266.85 1646.7 271.35 1647 277.35 1647.15 280.8 1647.55 287.8 1648.55 304.85 1648.55 333.1 1648.5 367.7 1648.8 378.5 1674.55 376.55 1692.25 376.25 1707.8 376 1738.95 376.35 1766.3 376.05 1785.35 372.3 1786.8 371.95 1787.2 371.55 1787.8 370.9 1787.85 369.25
L 1790 294
Q 1790.8 266.85 1790.15 252.85 1789.2 230.05 1784.4 212.45 1783.6 209.6 1782.6 208.45 1780.85 206.1 1776.1 205.2 1771.75 204.35 1762.65 204.05 1759.5529296875 203.9396484375 1756.55 203.8 1756.51640625 204.686328125 1756.3 205.2
M 1688.4 191.55
L 1688.4 196.9
Q 1688.4 197.9 1688 198.3 1687.7 198.55 1686.75 198.65 1685.9 198.7 1685.7 199.15 1687.7 199.25 1691.15 199.75 1695.05 200.3 1696.6 200.45 1698.75 200.6 1703.1 200.6
L 1743.35 200.6 1743.35 193.9
Q 1745.35 192.7 1748.05 192.15
L 1705.6 191.95
Q 1703.35 191.95 1701.55 191.75 1700.5 191.6 1695.35 190.25 1691.55 189.3 1689.1 189.6
L 1689.1 188.85
Q 1687.9 188.6 1687.3 189.65 1687.9 189.6 1688.2 190.3 1688.45 190.85 1688.4 191.55 Z" stroke="none" fill="#DEDFE9"></path>

<path d="M 1671.45 192.45
Q 1671.65 194.55 1673.15 194.85 1671.67890625 195.6775390625 1671.15 198 1670.87265625 199.4484375 1670.95 201.5 1671.05 203.45 1671.75 204.15 1672.3 204.7 1673.6 205 1674.3359375 205.186328125 1675.1 205.35 1682.0517578125 206.9587890625 1690.8 207.5 1696.6 207.85 1708.25 207.85
L 1750 207.8
Q 1755.25 207.8 1756.3 205.2 1756.51640625 204.686328125 1756.55 203.8 1756.56484375 203.1142578125 1756.45 202.15 1756.2 200.1 1756.6 199.1 1757.0953125 197.7943359375 1759.1 196.8 1759.3109375 196.7044921875 1759.55 196.6 1762.45 195.25 1763.2 194.5 1764.5 193.15 1764.7 190.8 1764.85 189.2 1764.4 186.55 1760.7 185.45 1755.9 185.1 1753.05 184.9 1747.25 184.9 1729.75 184.8 1715.75 184.95 1710.8 184.95 1708.85 184.65 1707.9 184.5 1703.1 183.3 1699.6 182.45 1697.3 182.5
L 1697.3 180.45
Q 1691.1 179.65 1684.8 180.95 1678.55 182.25 1673.1 185.4 1671.85 186.1 1671.55 186.85 1671.35 187.3 1671.4 188.05 1671.45 188.45 1671.55 189.25 1671.55 189.75 1671.5 190.85 1671.4 191.9 1671.45 192.45
M 1688.4 196.9
L 1688.4 191.55
Q 1688.45 190.85 1688.2 190.3 1687.9 189.6 1687.3 189.65 1687.9 188.6 1689.1 188.85
L 1689.1 189.6
Q 1691.55 189.3 1695.35 190.25 1700.5 191.6 1701.55 191.75 1703.35 191.95 1705.6 191.95
L 1748.05 192.15
Q 1745.35 192.7 1743.35 193.9
L 1743.35 200.6 1703.1 200.6
Q 1698.75 200.6 1696.6 200.45 1695.05 200.3 1691.15 199.75 1687.7 199.25 1685.7 199.15 1685.9 198.7 1686.75 198.65 1687.7 198.55 1688 198.3 1688.4 197.9 1688.4 196.9 Z" stroke="none" fill="#7F7FA4"></path>

<path d="M 1669.1 196.9
Q 1668.15 197.05 1660.95 196.8 1656.05 196.65 1653.6 198.5 1651.5 200.15 1649.85 204.65 1644.75 218.85 1642.3 235.95 1640.3 250.1 1639.85 268 1639.6 277.2 1639.9 286.35 1640.05 289.65 1640.9 302.7 1641.5 312.75 1641.5 319.05 1641.5 322.7 1641.25 329.3 1641.05 336.4 1641 339.6 1640.95 344.35 1641.45 362.6 1641.9 376.75 1641.2 385.6 1650.9 385.6 1666.9 384.6 1686.35 383.45 1692.6 383.25 1709.2 382.75 1742.55 383.2 1772.2 383.1 1792.1 379.15 1793.7 378.7 1794.1 378.2 1794.55 377.65 1794.6 376.35 1797 302 1797.6 270.15 1797.95 251.5 1797.3 241.25 1796.1 222.9 1791.35 205.35 1790.55 202.1 1789.25 200.8 1787.7 199.2 1783.9 198.4 1778.05 197.25 1766 197
L 1759.1 196.8
Q 1757.0953125 197.7943359375 1756.6 199.1 1756.2 200.1 1756.45 202.15 1756.56484375 203.1142578125 1756.55 203.8 1759.5529296875 203.9396484375 1762.65 204.05 1771.75 204.35 1776.1 205.2 1780.85 206.1 1782.6 208.45 1783.6 209.6 1784.4 212.45 1789.2 230.05 1790.15 252.85 1790.8 266.85 1790 294
L 1787.85 369.25
Q 1787.8 370.9 1787.2 371.55 1786.8 371.95 1785.35 372.3 1766.3 376.05 1738.95 376.35 1707.8 376 1692.25 376.25 1674.55 376.55 1648.8 378.5 1648.5 367.7 1648.55 333.1 1648.55 304.85 1647.55 287.8 1647.15 280.8 1647 277.35 1646.7 271.35 1646.8 266.85 1646.95 259.9 1648.55 247.65 1650.3 234.9 1652.05 227.1 1654.65 215.95 1658.7 207.4 1659.4 206 1660.25 205.2 1661.4 204.2 1662.55 204.55
L 1662.55 206.2
Q 1667.55 206.35 1674.8 205.4 1674.94375 205.38046875 1675.1 205.35 1674.3359375 205.186328125 1673.6 205 1672.3 204.7 1671.75 204.15 1671.05 203.45 1670.95 201.5 1670.87265625 199.4484375 1671.15 198 1670.1076171875 198.139453125 1669.05 198.3
L 1669.1 196.9 Z" stroke="none" fill="#6C6C87"></path>
</g>
</g>
</g>
</g>

<g transform="matrix( 0.3621063232421875, 0, 0, 0.3621063232421875, -594.2,0.1)" id="Layer_2">
<g>
<g>
<g>
<path d="M 1691.25 353.8
Q 1689.7 354 1688.25 354.15 1683.1 354.7 1678.05 355.4 1677.65 355.45 1677.25 355.5 1670.2 356.8 1661.9 356.55 1661.35 359.65 1663.4 359.8 1667.4 360.2 1671.4 360.2 1673.95 360.2 1676.5 359.8 1684.4 358.5 1693.35 357.7 1693.75 357.65 1694.15 357.6 1699.6 357.25 1705.1 357.1 1725.75 356.3 1746.85 355.9 1749.8 355.8 1752.65 355.4 1757.15 354.8 1762.95 355.4 1767.85 355.9 1769.55 353.6 1769.55 352.9 1769.5 352.9 1751.25 352.15 1732.95 352.05 1711.1 351.9 1691.25 353.8
M 1697.5 229.9
Q 1698 226 1695.6 225.45 1695.2 225.45 1694.85 225.45 1694.1 225.45 1694 225.75 1693.4 226.9 1693 228.25 1691.25 234.3 1691.55 243.05 1691.55 243.4 1691.5 243.8 1691.2 247.8 1690.8 251.75 1690.6 253.4 1690.45 255.45 1689.75 265.75 1687.95 275.2 1687.65 276.9 1687.85 278.9 1688.1 282.4 1686.8 284.05 1686.8 289.55 1686.25 295 1685.9 298.85 1688.25 299.4 1690.8 300.15 1690.8 297.95 1690.8 297.55 1690.95 297.15 1691.2 296.15 1691.55 295.2 1692.5 292.7 1694.85 291.35 1696.05 271.7 1696.25 251.1 1696.35 240.15 1697.5 229.9
M 1735.85 265.75
Q 1735.6 274.4 1737.25 281.1 1738.85 287.6 1741.75 292.85 1742.95 293.85 1745.4 293.9 1745.75 293.9 1745.8 294.3 1745.95 298.45 1749.8 298.7 1752.15 298.45 1750.95 295.15 1750.35 293.35 1749.65 291.4 1748.45 287.55 1747.35 283.4 1746.65 280.6 1745.85 277.5 1743.6 268.95 1741.75 259.85 1741.75 259.15 1741.35 258.8 1741 258.4 1740.4 258.1 1737 256.45 1737.05 260.6 1737.15 264.05 1735.85 265.75 Z" stroke="none" fill="#000000"></path>
</g>
</g>
</g>
</g>
</g>
</svg>
