<svg version="1.1" xmlns="http://www.w3.org/2000/svg" xmlns:xlink="http://www.w3.org/1999/xlink" width="111.07611" height="167.21532" viewBox="0,0,111.07611,167.21532"><g transform="translate(-260.10573,-95.74583)"><g data-paper-data="{&quot;isPaintingLayer&quot;:true}" fill-rule="nonzero" stroke="none" stroke-width="1" stroke-linecap="butt" stroke-linejoin="miter" stroke-miterlimit="10" stroke-dasharray="" stroke-dashoffset="0" style="mix-blend-mode: normal"><g fill="#000000" font-family="&quot;Helvetica Neue&quot;, Helvetica, Arial, sans-serif" font-weight="400" font-size="16" text-anchor="start"/><g fill="#000000" font-family="&quot;Helvetica Neue&quot;, Helvetica, Arial, sans-serif" font-weight="400" font-size="16" text-anchor="start"/><g fill="#000000" font-family="&quot;Helvetica Neue&quot;, Helvetica, Arial, sans-serif" font-weight="400" font-size="16" text-anchor="start"/><g><path d="M371.18184,188.69314c-0.11594,1.71812 -0.23664,3.51658 -0.36211,5.39538l-1.73811,26.41566c-0.04828,0.97769 -0.14484,2.44422 -0.28969,4.39959l-0.83284,13.86867c-0.04828,1.09839 0.02414,2.10625 0.21726,3.02359c0.20519,0.83284 0.55523,1.78639 1.05011,2.86064c0.4466,0.66386 0.86302,1.1346 1.24927,1.41221c0.186,0.1612 0.42137,0.31208 0.70611,0.45263v2.80632c-0.9403,-0.27573 -1.79728,-0.63784 -2.57095,-1.08632c-1.40014,-1.31565 -2.35973,-2.81236 -2.87875,-4.49012c-0.21726,-1.21909 -0.26554,-2.89082 -0.14484,-5.01517l0.38021,-7.02486c0.26554,-4.4177 0.6699,-10.2114 1.21306,-17.3811c0.33797,-4.4177 0.64576,-9.50529 0.92337,-15.26278c0.1207,-3.08997 0.31383,-5.81181 0.57937,-8.1655c0.21726,-2.0278 0.41642,-4.36942 0.59748,-7.02486c0.04828,-0.67593 0.19916,-3.01152 0.45263,-7.00676l0.39832,-6.60844c0.36211,-5.40745 0.60955,-9.48719 0.74232,-12.23919l0.30779,-4.94275z" fill="#706c84"/><path d="M371.18184,246.52152c-0.28473,-0.14055 -0.5201,-0.29143 -0.70611,-0.45263c-0.38625,-0.27761 -0.80267,-0.74835 -1.24927,-1.41221c-0.49488,-1.07425 -0.84491,-2.0278 -1.05011,-2.86064c-0.19312,-0.91734 -0.26554,-1.9252 -0.21726,-3.02359l0.83284,-13.86867c0.14484,-1.95537 0.2414,-3.4219 0.28969,-4.39959l1.73811,-26.41566c0.12546,-1.8788 0.24617,-3.67727 0.36211,-5.39538z" fill="#f5f7f9"/></g><path d="M371.18184,252.07985l-2.77011,-0.07242c0.02414,1.52085 0,2.5951 -0.07242,3.22275c-0.07242,0.59144 -0.11467,0.94751 -0.12674,1.06821c-0.02414,0.41039 0.01207,0.76646 0.10863,1.06821c0.13277,0.35004 0.31986,0.59144 0.56126,0.72421c0.16898,0.09656 0.4466,0.14484 0.83284,0.14484l1.46653,0.01811v4.4358c-0.66598,0.09105 -1.37813,0.15743 -2.13643,0.19916c-0.84491,0.04828 -2.03383,0.07242 -3.56675,0.07242c-0.73628,0 -1.26737,-0.06639 -1.59327,-0.19916c-0.39832,-0.20519 -0.70611,-0.344 -0.92337,-0.41642c-0.21726,-0.04828 -0.38021,-0.08449 -0.48884,-0.10863c-0.18105,-0.03621 -0.3259,-0.09656 -0.43453,-0.18105c-0.26554,-0.20519 -0.39832,-0.63972 -0.39832,-1.30358c0.06035,-1.376 0.16295,-2.6132 0.30779,-3.71159c0.27761,-2.18471 0.7906,-4.37545 1.53895,-6.57223c0.10863,-0.26554 0.19312,-0.42849 0.25347,-0.48884c0.1207,-0.1207 0.33797,-0.21726 0.65179,-0.28969c0.65179,-0.13277 1.39411,-0.21726 2.22695,-0.25347c0.49488,-0.02414 1.24323,-0.03018 2.24506,-0.01811c0.84025,0.00778 1.61274,0.01381 2.31748,0.01811v2.64338M358.85212,222.16987c0.03621,-0.16898 0.15088,-0.51902 0.344,-1.05011c0.37418,-0.96562 0.74232,-1.66569 1.10442,-2.10022c0.2414,-0.28969 0.62162,-0.63972 1.14063,-1.05011c0.36211,-0.28969 0.6699,-0.50695 0.92337,-0.65179c0.54316,-0.25347 1.33979,-0.35607 2.3899,-0.30779l0.36211,-0.65179c0.09656,-0.16898 0.18709,-0.27761 0.27158,-0.3259c0.07242,-0.04828 0.21123,-0.07242 0.41642,-0.07242l2.31748,0.01811c0.31383,0 0.54919,0.04828 0.70611,0.14484c0.21726,0.13277 0.36814,0.38021 0.45263,0.74232c0.20519,0.70007 0.33193,1.50274 0.38021,2.40801c0.02414,0.57937 0.01207,1.39411 -0.03621,2.44422l-0.77853,0.09053c-0.07242,0.30176 -0.28969,0.51902 -0.65179,0.65179c-0.16898,0.06035 -0.48884,0.09053 -0.95958,0.09053l-2.11832,-0.01811c-0.13277,0 -0.23537,-0.03018 -0.30779,-0.09053c-0.08449,-0.07242 -0.12674,-0.20519 -0.12674,-0.39832l-0.01811,-2.0278c-0.91734,0.61558 -1.55706,1.15874 -1.91916,1.62948c-0.3259,0.42246 -0.66386,1.07425 -1.0139,1.95537c-0.21726,0.59144 -0.35004,0.97769 -0.39832,1.15874c-0.07242,0.27761 -0.1207,0.80267 -0.14484,1.57516c-0.01207,0.73628 0.02414,1.31565 0.10863,1.73811c0.1207,0.62765 0.36211,1.11649 0.72421,1.46653c0.21726,0.20519 0.51902,0.40435 0.90527,0.59748c0.84491,0.45867 1.49671,0.74232 1.95537,0.85095c0.42246,0.09656 1.0139,0.13277 1.77432,0.10863c0.86906,-0.03621 1.4605,-0.03621 1.77432,0v2.44422c-0.21726,0.10863 -0.54316,0.16295 -0.97769,0.16295l-2.69769,0.01811c-0.57937,0 -0.97165,-0.00604 -1.17685,-0.01811c-0.43453,-0.02414 -0.82077,-0.07846 -1.15874,-0.16295c-0.41039,-0.09656 -0.89923,-0.28969 -1.46653,-0.57937c-0.84491,-0.42246 -1.41825,-0.85095 -1.72001,-1.28548c-0.25347,-0.35004 -0.41642,-0.7906 -0.48884,-1.32169c-0.04828,-0.31383 -0.07242,-0.79663 -0.07242,-1.44843l0.03621,-4.96086c0,-0.79663 0.04828,-1.38807 0.14484,-1.77432z" fill="#000000"/><g fill="#000000" font-family="&quot;Helvetica Neue&quot;, Helvetica, Arial, sans-serif" font-weight="400" font-size="16" text-anchor="start"/><g><path d="M291.71761,230.22673c0.43453,0.01207 1.06821,0.15691 1.90106,0.43453c0.33797,0.86906 0.53712,1.78639 0.59748,2.75201c0.04828,0.74835 0.01207,1.68379 -0.10863,2.80632l-0.30779,0.38021c-1.4605,0.21726 -2.77011,0.38625 -3.92885,0.50695l-1.24927,0.14484c-2.54681,0.27761 -6.3429,0.68197 -11.38824,1.21306c-2.28127,0.21726 -4.83412,0.50091 -7.65855,0.85095c-2.46232,0.28969 -4.93068,0.54919 -7.40507,0.77853l-2.06401,0.21726v-7.51371c0.90696,-0.05196 2.00535,-0.10627 3.29517,-0.16295c1.61741,-0.09656 3.21671,-0.21123 4.79791,-0.344c1.88295,-0.13277 3.79005,-0.24744 5.72128,-0.344c3.58485,-0.18105 6.52395,-0.41039 8.81729,-0.688l5.75749,-0.6699c1.72604,-0.2414 2.80029,-0.36211 3.22275,-0.36211M287.6077,177.41352c0.15691,0.54316 0.25347,0.90527 0.28969,1.08632c0.02414,0.19312 0.06639,0.56126 0.12674,1.10442l-0.38021,0.88716c-1.9433,0.54316 -4.26078,0.75439 -6.95244,0.63369l-0.41642,-0.6699c-0.96562,0.08449 -1.9252,0.19312 -2.87875,0.3259l-2.86064,0.38021c-0.70007,0.09656 -2.80632,0.344 -6.31876,0.74232c-2.49853,0.28969 -4.35735,0.52505 -5.57644,0.70611c-0.79395,0.11429 -1.63886,0.22292 -2.53474,0.3259v-7.56802c1.82892,-0.1431 2.83678,-0.22155 3.02359,-0.23537l3.0779,-0.30779c3.79005,-0.33797 7.06107,-0.74232 9.81308,-1.21306c1.65362,-0.27761 3.57882,-0.52505 5.7756,-0.74232l3.25896,-0.344l0.81474,0.09053c0.59144,0.91734 1.05614,2.16057 1.39411,3.7297z" fill="#9daeea"/><path d="M272.47166,146.50775l0.99579,-0.07242c1.61741,-0.13277 3.35552,-0.22933 5.21433,-0.28969l3.15033,-0.05432c0.50695,-0.02414 0.85095,-0.04225 1.032,-0.05432c0.19312,-0.02414 0.61558,-0.08449 1.26737,-0.18105l2.08211,-0.18105h0.07242l0.12674,2.08211l-0.688,0.05432l0.16295,1.72001c-0.41039,0.13277 -0.69404,0.2233 -0.85095,0.27158c-0.16898,0.02414 -0.54316,0.06035 -1.12253,0.10863c-2.01573,0.27761 -4.15215,0.77249 -6.40928,1.48464l-4.83412,1.53895c-4.32114,1.38807 -7.01883,2.1485 -8.09308,2.28127c-1.02403,0.12518 -2.51471,-0.05587 -4.47201,-0.54316v-7.11539l2.42611,-0.19916c3.31931,-0.30176 6.63258,-0.58541 9.93982,-0.85095z" fill="#992a3f"/><path d="M266.46069,146.38101c0.41039,-0.03621 0.81474,-0.06639 1.21306,-0.09053c0.18105,-0.02414 0.36211,-0.03621 0.54316,-0.03621c0.15691,-0.01207 0.31383,-0.02414 0.47074,-0.03621c0.26554,-0.03621 0.53109,-0.06639 0.79663,-0.09053c0.38625,-0.03621 0.76646,-0.07242 1.14063,-0.10863c0.35004,-0.04828 0.70007,-0.09053 1.05011,-0.12674c0.3259,-0.04828 0.65179,-0.08449 0.97769,-0.10863c0.30176,-0.04828 0.60351,-0.09053 0.90527,-0.12674c0.27761,-0.02414 0.55523,-0.04828 0.83284,-0.07242c0.2414,-0.03621 0.48884,-0.07242 0.74232,-0.10863c0.2414,-0.02414 0.47677,-0.04225 0.70611,-0.05432c0.19312,-0.04828 0.38625,-0.08449 0.57937,-0.10863c1.27944,-0.16898 2.55285,-0.33797 3.82022,-0.50695c0.30176,-0.03621 0.60955,-0.06639 0.92337,-0.09053c0.28969,-0.03621 0.58541,-0.07242 0.88716,-0.10863c0.27761,-0.02414 0.55523,-0.04828 0.83284,-0.07242c0.25347,-0.02414 0.51298,-0.03621 0.77853,-0.03621c0.10863,-0.01207 0.22933,-0.01207 0.36211,0l0.10863,1.3579c-0.65179,0.09656 -1.07425,0.15691 -1.26737,0.18105c-0.18105,0.01207 -0.52505,0.03018 -1.032,0.05432l-3.15033,0.05432c-1.85881,0.06035 -3.59692,0.15691 -5.21433,0.28969l-0.99579,0.07242c-3.30724,0.26554 -6.62051,0.54919 -9.93982,0.85095l-2.42611,0.19916v-0.72421c0.15668,-0.0083 0.31359,-0.02037 0.47074,-0.03621c0.62765,-0.07242 1.26134,-0.12674 1.90106,-0.16295c0.62765,-0.06035 1.24927,-0.1207 1.86485,-0.18105c0.688,-0.06035 1.39411,-0.08449 2.11832,-0.07242M280.05779,128.13085c0.16898,0.06035 0.33193,0.1207 0.48884,0.18105l0.27158,-0.03621c0.14635,0.04682 0.29119,0.0951 0.43453,0.14484l0.97769,0.45263c2.18471,1.0139 3.97713,2.27523 5.37728,3.78401c1.36393,1.68983 2.42008,3.58485 3.16843,5.68507c0.65179,1.85881 1.09839,3.98317 1.33979,6.37307l0.09053,0.92337c0.26554,2.94513 0.50695,7.06711 0.72421,12.36593l0.41642,10.86319c0.04828,1.11046 0.04225,2.13039 -0.01811,3.0598c-0.06035,0.72421 -0.09053,1.43032 -0.09053,2.11832l0.3259,10.19329c0.22933,6.27651 0.60351,13.17464 1.12253,20.69438c0.39832,5.49195 0.95958,12.378 1.68379,20.65817l0.94148,10.73645c0.18105,2.05194 0.26554,3.59089 0.25347,4.61686c-0.33797,0.96562 -0.59144,1.5993 -0.76042,1.90106c-0.15691,0.30176 -0.57334,0.85095 -1.24927,1.64758l-1.57516,1.90106l-0.50695,1.30358c-0.11358,0.07888 -0.23428,0.1513 -0.36211,0.21726c-1.13592,0.27526 -2.72315,0.53477 -4.7617,0.77853l-23.62744,2.15453c-1.76225,0.19237 -3.3012,0.34928 -4.61686,0.47074v-11.00803l2.06401,-0.21726c2.47439,-0.22933 4.94275,-0.48884 7.40507,-0.77853c2.82443,-0.35004 5.37728,-0.63369 7.65855,-0.85095c5.04535,-0.53109 8.84143,-0.93544 11.38824,-1.21306l1.24927,-0.14484c1.15874,-0.1207 2.46836,-0.28969 3.92885,-0.50695l0.30779,-0.38021c0.1207,-1.12253 0.15691,-2.05797 0.10863,-2.80632c-0.06035,-0.96562 -0.25951,-1.88295 -0.59748,-2.75201c-0.83284,-0.27761 -1.46653,-0.42246 -1.90106,-0.43453c-0.42246,0 -1.49671,0.1207 -3.22275,0.36211l-5.75749,0.6699c-2.29334,0.27761 -5.23244,0.50695 -8.81729,0.688c-1.93123,0.09656 -3.83833,0.21123 -5.72128,0.344c-1.5812,0.13277 -3.1805,0.24744 -4.79791,0.344c-1.28982,0.05667 -2.3882,0.11099 -3.29517,0.16295v-49.86204c0.89588,-0.10297 1.7408,-0.21161 2.53474,-0.3259c1.21909,-0.18105 3.0779,-0.41642 5.57644,-0.70611c3.51243,-0.39832 5.61868,-0.64576 6.31876,-0.74232l2.86064,-0.38021c0.95355,-0.13277 1.91313,-0.2414 2.87875,-0.3259l0.41642,0.6699c2.69166,0.1207 5.00914,-0.09053 6.95244,-0.63369l0.38021,-0.88716c-0.06035,-0.54316 -0.1026,-0.9113 -0.12674,-1.10442c-0.03621,-0.18105 -0.13277,-0.54316 -0.28969,-1.08632l-0.344,-1.06821c-0.33797,-1.56913 -0.80267,-2.81236 -1.39411,-3.7297l-0.81474,-0.09053l-3.25896,0.344c-2.19678,0.21726 -4.12198,0.4647 -5.7756,0.74232c-2.75201,0.47074 -6.02304,0.87509 -9.81308,1.21306l-3.0779,0.30779c-0.18681,0.01381 -1.19467,0.09227 -3.02359,0.23537v-20.69438c1.95731,0.48729 3.44798,0.66834 4.47201,0.54316c1.07425,-0.13277 3.77194,-0.8932 8.09308,-2.28127l4.83412,-1.53895c2.25713,-0.71214 4.39356,-1.20702 6.40928,-1.48464c0.57937,-0.04828 0.95355,-0.08449 1.12253,-0.10863c0.15691,-0.04828 0.44056,-0.13881 0.85095,-0.27158l-0.16295,-1.72001l0.688,-0.05432l-0.12674,-2.08211h-0.07242l-0.85095,-9.37855c-0.2414,-0.20519 -0.50091,-0.39228 -0.77853,-0.56126c-0.16898,-0.08449 -0.33193,-0.15088 -0.48884,-0.19916c-0.20519,-0.03621 -0.40435,-0.06639 -0.59748,-0.09053c-0.20519,-0.03621 -0.40435,-0.06035 -0.59748,-0.07242c-0.22933,-0.02414 -0.45263,-0.04828 -0.6699,-0.07242c-0.21726,-0.01207 -0.42849,-0.01811 -0.63369,-0.01811c-0.25347,0 -0.49488,0 -0.72421,0c-0.25347,0 -0.50091,0.00604 -0.74232,0.01811c-0.26554,0.01207 -0.52505,0.01811 -0.77853,0.01811l-19.24595,1.57516v-7.26023c1.38807,-0.10604 2.77615,-0.20864 4.16422,-0.30779l13.34362,-1.12253c0.63972,-0.04828 1.05614,-0.08449 1.24927,-0.10863c0.20519,0 0.60351,0.01207 1.19495,0.03621M269.12218,158.31242c-0.19312,0.50695 -0.28969,1.16478 -0.28969,1.97348l0.18105,1.62948c0.07242,0.82077 0.12674,1.3579 0.16295,1.61137c0.03621,0.25347 0.1207,0.74835 0.25347,1.48464c0.28969,0.53109 0.51902,0.90527 0.688,1.12253c0.18105,0.20519 0.68197,0.6699 1.50274,1.39411c0.63972,0.33797 1.2553,0.54919 1.84674,0.63369c0.49488,0.07242 1.15271,0.07242 1.97348,0l0.94148,-0.12674c2.05194,-0.21726 3.45812,-0.40435 4.21854,-0.56126c1.59327,-0.31383 2.91496,-0.77853 3.96506,-1.39411l0.25347,-1.43032c0.4466,-0.74835 0.72421,-1.41221 0.83284,-1.99158c0.08449,-0.47074 0.09053,-1.19495 0.01811,-2.17264l-0.09053,-1.032c-0.09656,-1.53292 -0.28365,-2.8365 -0.56126,-3.91075c-0.30176,-0.688 -0.61558,-1.2372 -0.94148,-1.64758c-0.38625,-0.48281 -0.86302,-0.91734 -1.43032,-1.30358c-0.91734,-0.18105 -1.99762,-0.21726 -3.24085,-0.10863l-1.17685,0.14484c-1.87088,0.21726 -3.24085,0.47677 -4.10991,0.77853c-1.33979,0.45867 -2.50457,1.21909 -3.49433,2.28127l-0.56126,0.86906c-0.47074,0.688 -0.78456,1.27341 -0.94148,1.75622z" fill="#f5f7f9"/><path d="M283.4978,135.4454c0.19312,0.02414 0.39228,0.05432 0.59748,0.09053c0.15691,0.04828 0.31986,0.11467 0.48884,0.19916c0.27761,0.16898 0.53712,0.35607 0.77853,0.56126l0.85095,9.37855l-2.08211,0.18105l-0.10863,-1.3579c-0.13277,-0.01207 -0.25347,-0.01207 -0.36211,0c-0.26554,0 -0.52505,0.01207 -0.77853,0.03621c-0.27761,0.02414 -0.55523,0.04828 -0.83284,0.07242c-0.30176,0.03621 -0.59748,0.07242 -0.88716,0.10863c-0.31383,0.02414 -0.62162,0.05432 -0.92337,0.09053c-1.26737,0.16898 -2.54078,0.33797 -3.82022,0.50695c-0.19312,0.02414 -0.38625,0.06035 -0.57937,0.10863c-0.22933,0.01207 -0.4647,0.03018 -0.70611,0.05432c-0.25347,0.03621 -0.50091,0.07242 -0.74232,0.10863c-0.27761,0.02414 -0.55523,0.04828 -0.83284,0.07242c-0.30176,0.03621 -0.60351,0.07846 -0.90527,0.12674c-0.3259,0.02414 -0.65179,0.06035 -0.97769,0.10863c-0.35004,0.03621 -0.70007,0.07846 -1.05011,0.12674c-0.37418,0.03621 -0.75439,0.07242 -1.14063,0.10863c-0.26554,0.02414 -0.53109,0.05432 -0.79663,0.09053c-0.15691,0.01207 -0.31383,0.02414 -0.47074,0.03621c-0.18105,0 -0.36211,0.01207 -0.54316,0.03621c-0.39832,0.02414 -0.80267,0.05432 -1.21306,0.09053c-0.72421,-0.01207 -1.43032,0.01207 -2.11832,0.07242c-0.61558,0.06035 -1.2372,0.1207 -1.86485,0.18105c-0.63972,0.03621 -1.27341,0.09053 -1.90106,0.16295c-0.15715,0.01584 -0.31406,0.02791 -0.47074,0.03621v-9.93982l19.24595,-1.57516c0.25347,0 0.51298,-0.00604 0.77853,-0.01811c0.2414,-0.01207 0.48884,-0.01811 0.74232,-0.01811c0.22933,0 0.47074,0 0.72421,0c0.20519,0 0.41642,0.00604 0.63369,0.01811c0.21726,0.02414 0.44056,0.04828 0.6699,0.07242c0.19312,0.01207 0.39228,0.03621 0.59748,0.07242z" fill="#110f1a"/><path d="M270.62492,155.68715c0.98976,-1.06218 2.15453,-1.8226 3.49433,-2.28127c0.86906,-0.30176 2.23902,-0.56126 4.10991,-0.77853l1.17685,-0.14484c1.24323,-0.10863 2.32352,-0.07242 3.24085,0.10863c0.5673,0.38625 1.04407,0.82077 1.43032,1.30358c0.3259,0.41039 0.63972,0.95958 0.94148,1.64758c0.27761,1.07425 0.4647,2.37783 0.56126,3.91075l0.09053,1.032c0.07242,0.97769 0.06639,1.7019 -0.01811,2.17264c-0.10863,0.57937 -0.38625,1.24323 -0.83284,1.99158l-0.25347,1.43032c-1.05011,0.61558 -2.3718,1.08028 -3.96506,1.39411c-0.76042,0.15691 -2.1666,0.344 -4.21854,0.56126l-0.94148,0.12674c-0.82077,0.07242 -1.4786,0.07242 -1.97348,0c-0.59144,-0.08449 -1.20702,-0.29572 -1.84674,-0.63369c-0.82077,-0.72421 -1.32169,-1.18892 -1.50274,-1.39411c-0.16898,-0.21726 -0.39832,-0.59144 -0.688,-1.12253c-0.13277,-0.73628 -0.21726,-1.23116 -0.25347,-1.48464c-0.03621,-0.25347 -0.09053,-0.7906 -0.16295,-1.61137l-0.18105,-1.62948c0,-0.8087 0.09656,-1.46653 0.28969,-1.97348c0.15691,-0.48281 0.47074,-1.06821 0.94148,-1.75622l0.56126,-0.86906M271.81987,158.69263c-0.22933,0.36211 -0.56126,1.14063 -0.99579,2.33559c0.10863,1.21909 0.4466,2.34766 1.0139,3.38569c0.50695,0.5673 0.86906,0.91734 1.08632,1.05011c0.20519,0.1207 0.70611,0.27761 1.50274,0.47074c1.53292,0.06035 2.89685,-0.03018 4.0918,-0.27158c1.40014,-0.27761 2.66148,-0.77249 3.78401,-1.48464c0.38625,-0.63972 0.62765,-1.06218 0.72421,-1.26737c0.09656,-0.22933 0.24744,-0.65783 0.45263,-1.28548l0.30779,-0.38021c0,-1.05011 -0.07242,-1.88295 -0.21726,-2.49853c-0.18105,-0.76042 -0.53712,-1.52085 -1.06821,-2.28127c-0.42246,-0.59144 -0.69404,-0.95355 -0.81474,-1.08632c-0.1207,-0.13277 -0.31383,-0.31383 -0.57937,-0.54316c-0.84491,0.04828 -1.68379,0.11467 -2.51664,0.19916l-1.39411,0.10863c-0.78456,0.10863 -1.44843,0.28365 -1.99158,0.52505c-0.51902,0.22933 -1.07425,0.59748 -1.66569,1.10442c-0.90527,0.92941 -1.4786,1.56913 -1.72001,1.91916z" fill="#5d5a76"/><path d="M277.19715,155.14399l1.39411,-0.10863c0.83284,-0.08449 1.67172,-0.15088 2.51664,-0.19916c0.26554,0.22933 0.45867,0.41039 0.57937,0.54316c0.1207,0.13277 0.39228,0.49488 0.81474,1.08632c0.53109,0.76042 0.88716,1.52085 1.06821,2.28127c0.14484,0.61558 0.21726,1.44843 0.21726,2.49853l-0.30779,0.38021c-0.20519,0.62765 -0.35607,1.05614 -0.45263,1.28548c-0.09656,0.20519 -0.33797,0.62765 -0.72421,1.26737c-1.12253,0.71214 -2.38387,1.20702 -3.78401,1.48464c-1.19495,0.2414 -2.55888,0.33193 -4.0918,0.27158c-0.79663,-0.19312 -1.29755,-0.35004 -1.50274,-0.47074c-0.21726,-0.13277 -0.57937,-0.48281 -1.08632,-1.05011c-0.5673,-1.03804 -0.90527,-2.1666 -1.0139,-3.38569c0.43453,-1.19495 0.76646,-1.97348 0.99579,-2.33559c0.2414,-0.35004 0.81474,-0.98976 1.72001,-1.91916c0.59144,-0.50695 1.14667,-0.87509 1.66569,-1.10442c0.54316,-0.2414 1.20702,-0.41642 1.99158,-0.52505z" fill="#f1f3f7"/><path d="M281.68727,123.13379c0.10816,0.47941 0.19869,0.97429 0.27158,1.48464l0.18105,0.74232c-0.11085,-0.23593 -0.18327,-0.40492 -0.21726,-0.50695c-0.04828,-0.15691 -0.1026,-0.47677 -0.16295,-0.95958l-0.07242,-0.76042M270.06365,98.9813c-3.35,-0.53269 -6.66931,-0.79824 -9.95792,-0.79663v-2.13643c0.68376,-0.04828 1.37176,-0.09656 2.06401,-0.14484l1.3579,-0.10863c1.90709,-0.1207 3.66934,-0.01811 5.28675,0.30779c1.61741,0.35004 3.27706,0.94751 4.97896,1.79243l1.17685,0.59748c0.73628,0.4466 1.32772,0.88716 1.77432,1.32169c0.49488,0.51902 0.92337,1.12253 1.28548,1.81053c0.35004,0.96562 0.57937,2.19678 0.688,3.69348l0.21726,3.13222c0.37418,4.85222 1.11649,9.0768 2.22695,12.67372c0.12443,0.37757 0.23909,0.76382 0.344,1.15874l-0.23537,0.03621c0.30176,1.09839 0.48281,1.90106 0.54316,2.40801c0.09656,0.85698 0.06639,1.67172 -0.09053,2.44422c-1.02597,0.37418 -1.76829,0.61558 -2.22695,0.72421l0.01811,0.16295c0.42981,0.02744 0.86434,0.09986 1.30358,0.21726l-0.27158,0.03621c-0.15691,-0.06035 -0.31986,-0.1207 -0.48884,-0.18105c-0.59144,-0.02414 -0.98976,-0.03621 -1.19495,-0.03621c-0.19312,0.02414 -0.60955,0.06035 -1.24927,0.10863l-13.34362,1.12253c-1.38807,0.09915 -2.77615,0.20175 -4.16422,0.30779v-1.75622l15.84215,-1.376c1.1346,-0.10863 2.10022,-0.22933 2.89685,-0.36211l0.65179,-0.76042c-0.02414,-0.92941 -0.20519,-2.05797 -0.54316,-3.38569c-0.88113,-3.18654 -1.52688,-6.47567 -1.93727,-9.8674l-0.25347,-2.24506c-0.07242,-0.62765 -0.13277,-1.03804 -0.18105,-1.23116c-0.09656,-0.38625 -0.25347,-0.77249 -0.47074,-1.15874c-0.90527,-0.35004 -1.88295,-0.51902 -2.93306,-0.50695l-13.07204,1.15874v-1.73811l15.75163,-1.64758c-0.06035,-0.20519 -0.11467,-0.39228 -0.16295,-0.56126c-0.31383,-1.18288 -1.33979,-2.38387 -3.0779,-3.60296c-1.68983,-0.98976 -2.54078,-1.52688 -2.55285,-1.61137z" fill="#7e1a34"/><path d="M281.63295,122.28284l0.05432,0.85095l0.07242,0.76042c0.06035,0.48281 0.11467,0.80267 0.16295,0.95958c0.03399,0.10203 0.10642,0.27101 0.21726,0.50695c0.048,0.10453 0.10231,0.2192 0.16295,0.344c0.62765,0.45867 1.52688,0.91734 2.69769,1.376c1.21909,0.53109 2.36576,1.35186 3.44001,2.46232c0.79663,0.84491 1.65362,1.98555 2.57095,3.4219c1.56913,2.92099 2.66752,6.35497 3.29517,10.30192c0.36211,2.3899 0.63369,5.99889 0.81474,10.82698l0.3259,9.1794c0.25347,6.65069 0.42849,12.44439 0.52505,17.3811c0.14484,6.55412 0.49488,13.68762 1.05011,21.40048c0.42246,5.9144 1.02597,13.03583 1.81053,21.36427l0.688,6.73518c0.55523,5.78163 0.82077,9.30613 0.79663,10.5735c-0.04828,1.24323 -0.47074,2.70373 -1.26737,4.38149c-0.97769,1.38807 -1.90106,2.45025 -2.77011,3.18654c-0.98976,0.85698 -2.22092,1.54499 -3.69348,2.06401c-2.40197,0.62765 -5.17812,1.11649 -8.32845,1.46653c-1.60534,0.18105 -4.42373,0.41039 -8.45518,0.688l-15.69731,1.10442v-2.29938c1.31565,-0.12146 2.8546,-0.27837 4.61686,-0.47074l23.62744,-2.15453c2.03855,-0.24376 3.62578,-0.50327 4.7617,-0.77853c0.11005,-0.02353 0.21264,-0.04767 0.30779,-0.07242l0.05432,-0.14484l0.50695,-1.30358l1.57516,-1.90106c0.67593,-0.79663 1.09235,-1.34583 1.24927,-1.64758c0.16898,-0.30176 0.42246,-0.93544 0.76042,-1.90106c0.01207,-1.02597 -0.07242,-2.56492 -0.25347,-4.61686l-0.94148,-10.73645c-0.72421,-8.28016 -1.28548,-15.16622 -1.68379,-20.65817c-0.51902,-7.51974 -0.8932,-14.41787 -1.12253,-20.69438l-0.3259,-10.19329c0,-0.688 0.03018,-1.39411 0.09053,-2.11832c0.06035,-0.92941 0.06639,-1.94934 0.01811,-3.0598l-0.41642,-10.86319c-0.21726,-5.29882 -0.45867,-9.4208 -0.72421,-12.36593l-0.09053,-0.92337c-0.2414,-2.3899 -0.688,-4.51426 -1.33979,-6.37307c-0.74835,-2.10022 -1.8045,-3.99524 -3.16843,-5.68507c-1.40014,-1.50878 -3.19257,-2.77011 -5.37728,-3.78401l-0.97769,-0.45263c-0.14333,-0.04974 -0.28818,-0.09802 -0.43453,-0.14484c-0.43924,-0.1174 -0.87377,-0.18982 -1.30358,-0.21726l-0.01811,-0.16295c0.45867,-0.10863 1.20099,-0.35004 2.22695,-0.72421c0.15691,-0.77249 0.18709,-1.58723 0.09053,-2.44422c-0.06035,-0.50695 -0.2414,-1.30962 -0.54316,-2.40801l0.23537,-0.03621z" fill="#706c84"/><path d="M276.58157,108.64953c0.04828,0.19312 0.10863,0.60351 0.18105,1.23116l0.25347,2.24506c0.41039,3.39173 1.05614,6.68086 1.93727,9.8674c0.33797,1.32772 0.51902,2.45629 0.54316,3.38569l-0.65179,0.76042c-0.79663,0.13277 -1.76225,0.25347 -2.89685,0.36211l-15.84215,1.376v-19.73479l13.07204,-1.15874c1.05011,-0.01207 2.0278,0.15691 2.93306,0.50695c0.21726,0.38625 0.37418,0.77249 0.47074,1.15874z" fill="#e21f2d"/><path d="M275.85735,104.75689l-15.75163,1.64758v-8.21981c3.28861,-0.0016 6.60792,0.26394 9.95792,0.79663c0.01207,0.08449 0.86302,0.62162 2.55285,1.61137c1.73811,1.21909 2.76408,2.42008 3.0779,3.60296c0.04828,0.16898 0.1026,0.35607 0.16295,0.56126z" fill="#df202e"/></g><path d="M280.29316,213.51553l-13.70572,0.21726c-2.2692,0.04828 -3.96506,0.14484 -5.08759,0.28969c0.8087,0.70007 1.85278,1.2372 3.13222,1.61137c0.84491,0.25347 2.03383,0.47677 3.56675,0.6699c0.71214,0.08449 1.18288,0.1207 1.41221,0.10863c0.28969,-0.01207 0.73628,-0.07846 1.33979,-0.19916l4.23664,-0.86906c0.51902,-0.13277 0.85698,-0.25951 1.0139,-0.38021l0.38021,-0.36211c0.28969,-0.21726 0.73628,-0.29572 1.33979,-0.23537c0.73628,0.07242 1.21306,0.08449 1.43032,0.03621l-0.01811,1.79243c0,0.28969 -0.02414,0.50091 -0.07242,0.63369c-0.07242,0.26554 -0.24744,0.48884 -0.52505,0.6699c-0.27761,0.19312 -0.69404,0.33797 -1.24927,0.43453l-3.94696,0.79663c-0.42246,0.09656 -0.82681,0.16898 -1.21306,0.21726c-0.33797,0.03621 -0.72421,0.04225 -1.15874,0.01811h-1.43032c-1.99158,0 -3.51847,-0.06035 -4.58064,-0.18105c-1.68983,-0.19312 -3.15033,-0.57937 -4.38149,-1.15874c-0.20538,-0.09628 -0.42868,-0.21698 -0.6699,-0.36211v-5.92044c0.61223,-0.05158 1.25195,-0.09383 1.91916,-0.12674c1.02597,-0.04828 2.57095,-0.07846 4.63496,-0.09053l13.6333,-0.07242v2.46232M291.06582,262.52662h-12.47456v-3.65727c0,-0.43453 0.01811,-0.75439 0.05432,-0.95958c0.06035,-0.30176 0.23537,-0.70007 0.52505,-1.19495c0.19312,-0.33797 0.63972,-1.03804 1.33979,-2.10022l1.14063,-1.72001c0.38625,-0.59144 0.66386,-1.05011 0.83284,-1.376c0.26554,-0.51902 0.42849,-1.0139 0.48884,-1.48464l2.48043,0.03621c-0.02414,0.26554 -0.01811,0.81474 0.01811,1.64758c0.02414,0.67593 -0.02414,1.20702 -0.14484,1.59327c-0.10863,0.38625 -0.40435,0.91734 -0.88716,1.59327c-0.73628,1.07425 -1.41825,2.15453 -2.0459,3.24085c1.61741,-0.03621 2.80029,-0.03621 3.54864,0c1.30358,0.04828 2.46232,0.20519 3.47622,0.47074c0.3259,0.08449 0.8087,0.21726 1.44843,0.39832c0.18105,0.03621 0.57334,0.09656 1.17685,0.18105c0.48281,0.07242 0.86906,0.15088 1.15874,0.23537l0.01811,2.0459c0,0.30176 -0.04828,0.51902 -0.14484,0.65179c-0.1207,0.18105 -0.35607,0.29572 -0.70611,0.344c-0.27761,0.03621 -0.71214,0.05432 -1.30358,0.05432M289.14666,181.57775c-1.35186,0 -2.86064,0.03018 -4.52633,0.09053l-0.05432,1.19495c-0.02414,0.26554 -0.06639,0.45263 -0.12674,0.56126c-0.15691,0.27761 -0.54919,0.41642 -1.17685,0.41642l-7.09728,-0.03621c-0.76042,0 -1.24927,-0.16898 -1.46653,-0.50695c-0.10863,-0.16898 -0.16295,-0.45867 -0.16295,-0.86906c0,-1.52085 0.03621,-2.66148 0.10863,-3.4219l0.30779,-0.07242c-0.07242,-0.09656 -0.08449,-0.21123 -0.03621,-0.344c0.03621,-0.13277 0.10863,-0.23537 0.21726,-0.30779c0.14484,-0.10863 0.38625,-0.17502 0.72421,-0.19916c1.0139,-0.07242 2.54078,-0.07242 4.58064,0c0.55523,0 1.03804,0.03018 1.44843,0.09053c0.30176,0.03621 0.76646,0.10863 1.39411,0.21726c0.31383,0.03621 0.99579,0.06035 2.0459,0.07242c0.85698,0 1.53292,0.06639 2.0278,0.19916c0.20519,0.06035 0.50091,0.15088 0.88716,0.27158c0.35004,0.10863 0.65179,0.16295 0.90527,0.16295v2.48043M298.18121,189.85188c0.07242,0.4466 0.18709,0.76042 0.344,0.94148c0.14484,0.18105 0.36211,0.31383 0.65179,0.39832c0.16898,0.04828 0.44056,0.09053 0.81474,0.12674c2.08815,0.18105 4.36338,0.72421 6.8257,1.62948c1.52085,0.55523 3.68141,1.49671 6.4817,2.82443c0.77249,0.35004 1.33979,0.69404 1.7019,1.032c0.50695,0.49488 0.85095,1.17685 1.032,2.0459c0.1207,0.57937 0.18709,1.38204 0.19916,2.40801c0,0.65179 -0.01207,1.11649 -0.03621,1.39411c-0.03621,0.50695 -0.13277,0.94751 -0.28969,1.32169c-0.20519,0.51902 -0.53712,1.02597 -0.99579,1.52085c-0.31383,0.33797 -0.77853,0.75439 -1.39411,1.24927c-1.66569,1.36393 -2.88478,2.34766 -3.65727,2.95117c-1.376,1.06218 -2.65545,1.95537 -3.83833,2.67959c-1.09839,0.70007 -2.58303,1.52688 -4.45391,2.48043c-1.2553,0.65179 -2.30541,1.10442 -3.15033,1.3579c-1.20702,0.36211 -2.31145,0.45867 -3.31327,0.28969v-2.44422c2.88478,-1.29151 5.00914,-2.29938 6.37307,-3.02359c2.31748,-1.21909 4.27889,-2.4925 5.88423,-3.82022l1.72001,-1.50274c0.67593,-0.60351 1.26134,-1.08028 1.75622,-1.43032c0.39832,-0.27761 0.69404,-0.48884 0.88716,-0.63369c0.33797,-0.25347 0.60955,-0.48884 0.81474,-0.70611c0.57937,-0.62765 0.86302,-1.27341 0.85095,-1.93727c-0.03621,-0.688 -0.38021,-1.30358 -1.032,-1.84674c-0.41039,-0.3259 -1.04407,-0.67593 -1.90106,-1.05011l-3.53054,-1.55706c-1.42428,-0.60351 -2.34162,-0.98372 -2.75201,-1.14063c-1.03804,-0.41039 -1.97348,-0.71818 -2.80632,-0.92337c-0.94148,-0.22933 -2.3899,-0.45263 -4.34528,-0.6699c-0.45867,-0.04828 -0.77249,-0.15691 -0.94148,-0.3259c-0.16898,-0.15691 -0.28969,-0.45263 -0.36211,-0.88716c-0.72421,-4.45391 -1.05011,-8.95006 -0.97769,-13.48846l2.49853,0.01811c0.07242,3.51243 0.38625,7.08521 0.94148,10.71835z" fill="#000000"/></g></g></svg>