<svg version="1.1" xmlns="http://www.w3.org/2000/svg" xmlns:xlink="http://www.w3.org/1999/xlink" width="111.07611" height="168.66195" viewBox="0,0,111.07611,168.66195"><g transform="translate(-260.10573,-93.84656)"><g data-paper-data="{&quot;isPaintingLayer&quot;:true}" fill-rule="nonzero" stroke="none" stroke-width="1" stroke-linecap="butt" stroke-linejoin="miter" stroke-miterlimit="10" stroke-dasharray="" stroke-dashoffset="0" style="mix-blend-mode: normal"><g fill="#000000" font-family="&quot;Helvetica Neue&quot;, Helvetica, Arial, sans-serif" font-weight="400" font-size="16" text-anchor="start"/><g fill="#000000" font-family="&quot;Helvetica Neue&quot;, Helvetica, Arial, sans-serif" font-weight="400" font-size="16" text-anchor="start"/><g fill="#000000" font-family="&quot;Helvetica Neue&quot;, Helvetica, Arial, sans-serif" font-weight="400" font-size="16" text-anchor="start"/><g><path d="M349.81757,122.64494c-0.16898,1.77432 -0.25347,2.67355 -0.25347,2.69769l0.07242,0.77853c0.38625,0.18105 0.72421,0.31986 1.0139,0.41642l-1.23116,0.52505c-2.86267,1.23253 -4.71544,2.13779 -5.55833,2.7158c-0.83284,0.59144 -2.29938,1.99158 -4.39959,4.20043l-0.61558,0.95958c-0.36211,0.8932 -0.61558,1.89502 -0.76042,3.00548c-0.06035,0.59144 -0.13881,1.62344 -0.23537,3.09601l-0.79663,13.23499c-0.18105,3.04169 -0.4466,6.66879 -0.79663,10.8813c-0.41039,5.25054 -1.07425,14.74376 -1.99158,28.47966l-1.73811,26.41566c-0.04828,0.97769 -0.14484,2.44422 -0.28969,4.39959l-0.83284,13.86867c-0.04828,1.09839 0.02414,2.10625 0.21726,3.02359c0.20519,0.83284 0.55523,1.78639 1.05011,2.86064c0.4466,0.66386 0.86302,1.1346 1.24927,1.41221c0.36211,0.31383 0.9113,0.60351 1.64758,0.86906c2.08815,0.5673 4.641,0.94751 7.65855,1.14063c1.73811,0.1207 4.33321,0.2414 7.78529,0.36211l20.16932,1.05011v2.7339c-0.32208,-0.00203 -0.64797,-0.00806 -0.97769,-0.01811c-1.59327,-0.06035 -4.40563,-0.2414 -8.43708,-0.54316l-23.95333,-1.73811c-1.17081,-0.14484 -2.16057,-0.31986 -2.96927,-0.52505c-1.02597,-0.28969 -1.95537,-0.67593 -2.78822,-1.15874c-1.40014,-1.31565 -2.35973,-2.81236 -2.87875,-4.49012c-0.21726,-1.21909 -0.26554,-2.89082 -0.14484,-5.01517l0.38021,-7.02486c0.26554,-4.4177 0.6699,-10.2114 1.21306,-17.3811c0.33797,-4.4177 0.64576,-9.50529 0.92337,-15.26278c0.1207,-3.08997 0.31383,-5.81181 0.57937,-8.1655c0.21726,-2.0278 0.41642,-4.36942 0.59748,-7.02486c0.04828,-0.67593 0.19916,-3.01152 0.45263,-7.00676l0.39832,-6.60844c0.36211,-5.40745 0.60955,-9.48719 0.74232,-12.23919l1.10442,-17.68889c0.14484,-1.96744 0.43453,-3.67538 0.86906,-5.1238c0.53109,-1.75018 1.30962,-3.2831 2.33559,-4.59875c1.23116,-1.29151 2.79425,-2.44422 4.68928,-3.45812c1.31565,-0.70007 3.09601,-1.49067 5.34107,-2.3718l0.70611,0.03621l0.10863,-1.73811h0.12674z" fill="#706c84"/><path d="M344.85671,97.42424c-0.50695,1.52085 -0.47074,3.03566 0.10863,4.54443l11.80467,0.95958l0.28969,1.06821l14.12215,0.52505v1.82864l-12.22109,-0.65179c-0.63972,-0.03621 -1.05614,-0.05432 -1.24927,-0.05432c-0.20519,0 -0.56126,0.01811 -1.06821,0.05432l-1.10442,0.97769c-0.5673,1.85881 -1.032,4.32717 -1.39411,7.40507c-0.30176,2.47439 -0.71214,4.45994 -1.23116,5.95665c-0.28969,0.79663 -0.48281,1.40618 -0.57937,1.82864c-0.09656,0.39832 -0.27158,1.43636 -0.52505,3.11411l19.37269,1.06821v1.81053l-3.31327,-0.19916c-2.19678,-0.15691 -4.39959,-0.30176 -6.60844,-0.43453c-2.3899,-0.14484 -4.18233,-0.25951 -5.37728,-0.344l-3.69348,-0.28969c-0.84491,0.04828 -1.70793,0.19312 -2.58906,0.43453c-0.05936,0.0132 -0.11971,0.02527 -0.18105,0.03621l1.23116,-0.52505c-0.28969,-0.09656 -0.62765,-0.23537 -1.0139,-0.41642l-0.07242,-0.77853c0,-0.02414 0.08449,-0.92337 0.25347,-2.69769l-0.21726,-0.01811c0.20774,-1.37431 0.56985,-2.66582 1.08632,-3.87454c0.4466,-1.14667 0.8087,-2.47439 1.08632,-3.98317c0.10863,-0.72421 0.28365,-2.10022 0.52505,-4.12801c0.1207,-1.1346 0.25951,-2.05797 0.41642,-2.77011c0.19312,-0.96562 0.45867,-1.86485 0.79663,-2.69769l-8.36466,-0.65179c-0.50695,-0.09656 -0.85698,-0.18105 -1.05011,-0.25347c-0.20519,-0.08449 -0.64576,-0.31986 -1.32169,-0.70611c-0.2414,-0.54316 -0.35004,-1.23116 -0.3259,-2.06401c0.06035,-0.95355 0.10863,-1.66569 0.14484,-2.13643l0.05432,-0.97769c0.06035,-1.19495 0.11467,-1.9252 0.16295,-2.19074c0.04828,-0.25347 0.18105,-0.57937 0.39832,-0.97769c1.26737,-0.36211 2.70976,-0.63369 4.32717,-0.81474c1.08632,-0.13277 2.55285,-0.24744 4.39959,-0.344l1.23116,-0.07242c5.52816,-0.25347 11.32186,-0.15691 17.3811,0.28969l0.63369,0.03621v2.42611c-8.71021,-1.69855 -17.48526,-1.46922 -26.32513,0.688z" fill="#7e1a34"/><path d="M342.57544,229.01368c0.4466,0 1.44843,0.08449 3.00548,0.25347l1.81053,0.10863c1.09839,0.07242 2.72787,0.21123 4.88844,0.41642c1.62948,0.14484 3.23482,0.26554 4.81601,0.36211c1.89502,0.13277 3.80815,0.27761 5.73939,0.43453c3.33171,0.32755 6.11389,0.52067 8.34655,0.57937v6.59034c-1.76192,-0.05903 -3.77161,-0.13145 -6.02907,-0.21726c-2.28127,-0.10863 -4.84015,-0.19312 -7.67665,-0.25347c-2.48646,-0.07242 -4.96689,-0.16898 -7.44128,-0.28969l-2.84253,-0.09053c-3.02962,-0.04828 -4.87033,-0.11467 -5.52212,-0.19916c-0.65179,-0.09656 -1.41221,-0.38625 -2.28127,-0.86906c-0.36211,-0.73628 -0.57937,-1.23116 -0.65179,-1.48464c-0.06035,-0.26554 -0.10863,-0.83284 -0.14484,-1.7019c0.16898,-0.83284 0.30176,-1.38204 0.39832,-1.64758c0.09656,-0.26554 0.33797,-0.74232 0.72421,-1.43032c0.83284,-0.39832 1.78639,-0.58541 2.86064,-0.56126M371.18184,173.17688v7.22402h-0.52505c-0.72421,0 -2.84857,-0.04828 -6.37307,-0.14484c-2.5106,-0.07242 -4.38752,-0.10863 -5.63075,-0.10863c-1.59327,0 -3.39776,-0.03621 -5.41349,-0.10863c-0.92941,-0.02414 -1.61741,-0.02414 -2.06401,0c-1.96744,0 -3.18654,-0.04225 -3.65727,-0.12674c-0.45867,-0.09656 -1.1346,-0.42246 -2.0278,-0.97769c-0.72421,-1.87088 -0.74232,-4.18233 -0.05432,-6.93434c0.06035,-0.09656 2.16057,-0.00604 6.30065,0.27158c5.32296,0.33797 8.14739,0.51902 8.47329,0.54316l3.09601,0.14484c2.93198,0.15771 5.55725,0.23014 7.87581,0.21726z" fill="#9daeea"/><path d="M371.18184,164.57686c-0.20137,-0.1985 -0.47899,-0.5606 -0.83284,-1.08632c-0.39832,-1.11046 -0.5673,-2.28127 -0.50695,-3.51243c0.60351,-1.12253 1.03804,-1.84674 1.30358,-2.17264c0.0115,-0.01198 0.02357,-0.02405 0.03621,-0.03621z" fill="#f1f3f7"/><path d="M371.18184,157.76926c-0.01264,0.01216 -0.02471,0.02423 -0.03621,0.03621c-0.26554,0.3259 -0.70007,1.05011 -1.30358,2.17264c-0.06035,1.23116 0.10863,2.40197 0.50695,3.51243c0.35386,0.52571 0.63147,0.88782 0.83284,1.08632v2.75201c-0.49054,-0.17639 -0.98542,-0.44797 -1.48464,-0.81474c-0.70007,-0.83284 -1.12253,-1.3579 -1.26737,-1.57516c-0.14484,-0.2414 -0.31986,-0.65179 -0.52505,-1.23116c-0.04828,-0.72421 -0.07242,-1.21306 -0.07242,-1.46653c0,-0.26554 0.02414,-0.81474 0.07242,-1.64758l0.07242,-1.64758c0.1207,-0.78456 0.30176,-1.41825 0.54316,-1.90106c0.2414,-0.4466 0.64576,-0.98372 1.21306,-1.61137l0.6699,-0.76042c0.25277,-0.20656 0.51228,-0.39968 0.77853,-0.57937z" fill="#5d5a76"/><path d="M343.4626,144.31701c0.96562,-0.13277 1.96744,-0.15691 3.00548,-0.07242l17.12763,0.99579c2.53569,0.12862 5.0644,0.26743 7.58613,0.41642v6.8257c-3.51941,0.57466 -5.74636,0.84623 -6.68086,0.81474c-1.08632,0 -2.64941,-0.42849 -4.68928,-1.28548c-1.95537,-0.78456 -3.83833,-1.27944 -5.64886,-1.48464c-1.2553,-0.15691 -2.58303,-0.52505 -3.98317,-1.10442c-0.92941,-0.37418 -2.17867,-0.97769 -3.7478,-1.81053l-1.75622,-0.56126l-1.32169,-0.65179c-0.10863,-0.54316 -0.15691,-0.89923 -0.14484,-1.06821c0.01207,-0.18105 0.09656,-0.51902 0.25347,-1.0139z" fill="#992a3f"/><path d="M343.82471,138.19741c0.03621,-0.33797 0.08449,-0.6699 0.14484,-0.99579c0.13277,-0.65179 0.27761,-1.30358 0.43453,-1.95537c0.07789,-0.31161 0.16238,-0.61336 0.25347,-0.90527l0.01811,-0.09053l0.36211,-0.3259l0.36211,0.01811c0.12122,-0.04441 0.24192,-0.08666 0.36211,-0.12674c0.21726,-0.04828 0.42246,-0.09656 0.61558,-0.14484c0.19312,-0.01207 0.39832,-0.03018 0.61558,-0.05432c0.03621,0 0.07242,0.00604 0.10863,0.01811c0.04828,0 0.1026,0 0.16295,0c0.07242,0 0.15088,0.00604 0.23537,0.01811c0.07242,0 0.15691,0 0.25347,0c0.1207,0.01207 0.23537,0.01811 0.344,0.01811c0.13277,0.01207 0.25951,0.02414 0.38021,0.03621c0.15691,0 0.30779,0.00604 0.45263,0.01811c0.16898,0.01207 0.33797,0.01811 0.50695,0.01811l21.74448,1.32169v9.97603c-0.17375,-0.00655 -0.34876,-0.01259 -0.52505,-0.01811c-0.26554,-0.01207 -0.53109,-0.02414 -0.79663,-0.03621c-0.16898,0 -0.3259,-0.00604 -0.47074,-0.01811c-0.18105,-0.02414 -0.36211,-0.03621 -0.54316,-0.03621c-0.39832,-0.03621 -0.80267,-0.06639 -1.21306,-0.09053c-0.72421,-0.10863 -1.42428,-0.18105 -2.10022,-0.21726c-0.62765,-0.03621 -1.2553,-0.07242 -1.88295,-0.10863c-0.63972,-0.04828 -1.27944,-0.08449 -1.91916,-0.10863c-1.30358,-0.04828 -2.60717,-0.08449 -3.91075,-0.10863l-12.56509,-0.65179c-0.19312,-0.07242 -0.36814,-0.16295 -0.52505,-0.27158c-0.08449,-0.01207 -0.15691,-0.03018 -0.21726,-0.05432c-0.06035,-0.04828 -0.1207,-0.09053 -0.18105,-0.12674c-0.02414,-0.02414 -0.05432,-0.04828 -0.09053,-0.07242c-0.03621,-0.02414 -0.06035,-0.04828 -0.07242,-0.07242c-0.01207,-0.02414 -0.02414,-0.04225 -0.03621,-0.05432c-0.02414,-0.04828 -0.04828,-0.09053 -0.07242,-0.12674c-0.03621,-0.07242 -0.06035,-0.13881 -0.07242,-0.19916c-0.03621,-0.09656 -0.06639,-0.19312 -0.09053,-0.28969c-0.04828,-0.35004 -0.08449,-0.70007 -0.10863,-1.05011c-0.02414,-0.36211 -0.04225,-0.71818 -0.05432,-1.06821c0,-0.33797 0.00604,-0.67593 0.01811,-1.0139c0.01207,-0.35004 0.03621,-0.70007 0.07242,-1.05011z" fill="#110f1a"/><path d="M343.7885,141.32963c0.02414,0.35004 0.06035,0.70007 0.10863,1.05011c0.02414,0.09656 0.05432,0.19312 0.09053,0.28969c0.01207,0.06035 0.03621,0.12674 0.07242,0.19916c0.02414,0.03621 0.04828,0.07846 0.07242,0.12674c0.01207,0.01207 0.02414,0.03018 0.03621,0.05432c0.01207,0.02414 0.03621,0.04828 0.07242,0.07242c0.03621,0.02414 0.06639,0.04828 0.09053,0.07242c0.06035,0.03621 0.1207,0.07846 0.18105,0.12674c0.06035,0.02414 0.13277,0.04225 0.21726,0.05432c0.15691,0.10863 0.33193,0.19916 0.52505,0.27158l12.56509,0.65179c1.30358,0.02414 2.60717,0.06035 3.91075,0.10863c0.63972,0.02414 1.27944,0.06035 1.91916,0.10863c0.62765,0.03621 1.2553,0.07242 1.88295,0.10863c0.67593,0.03621 1.376,0.10863 2.10022,0.21726c0.41039,0.02414 0.81474,0.05432 1.21306,0.09053c0.18105,0 0.36211,0.01207 0.54316,0.03621c0.14484,0.01207 0.30176,0.01811 0.47074,0.01811c0.26554,0.01207 0.53109,0.02414 0.79663,0.03621c0.17629,0.00552 0.35131,0.01155 0.52505,0.01811v0.61558c-2.52173,-0.14899 -5.05044,-0.2878 -7.58613,-0.41642l-17.12763,-0.99579c-1.03804,-0.08449 -2.03987,-0.06035 -3.00548,0.07242c-0.15691,0.49488 -0.2414,0.83284 -0.25347,1.0139c-0.01207,0.16898 0.03621,0.52505 0.14484,1.06821l1.32169,0.65179l1.75622,0.56126c1.56913,0.83284 2.81839,1.43636 3.7478,1.81053c1.40014,0.57937 2.72787,0.94751 3.98317,1.10442c1.81053,0.20519 3.69348,0.70007 5.64886,1.48464c2.03987,0.85698 3.60296,1.28548 4.68928,1.28548c0.9345,0.0315 3.16145,-0.24008 6.68086,-0.81474v1.61137c-0.26625,0.17969 -0.52576,0.37281 -0.77853,0.57937l-0.6699,0.76042c-0.5673,0.62765 -0.97165,1.16478 -1.21306,1.61137c-0.2414,0.48281 -0.42246,1.11649 -0.54316,1.90106l-0.07242,1.64758c-0.04828,0.83284 -0.07242,1.38204 -0.07242,1.64758c0,0.25347 0.02414,0.74232 0.07242,1.46653c0.20519,0.57937 0.38021,0.98976 0.52505,1.23116c0.14484,0.21726 0.5673,0.74232 1.26737,1.57516c0.49922,0.36677 0.9941,0.63835 1.48464,0.81474v5.84802c-2.31856,0.01287 -4.94384,-0.05955 -7.87581,-0.21726l-3.09601,-0.14484c-0.3259,-0.02414 -3.15033,-0.20519 -8.47329,-0.54316c-4.14008,-0.27761 -6.2403,-0.36814 -6.30065,-0.27158c-0.688,2.75201 -0.6699,5.06345 0.05432,6.93434c0.8932,0.55523 1.56913,0.88113 2.0278,0.97769c0.47074,0.08449 1.68983,0.12674 3.65727,0.12674c0.4466,-0.02414 1.1346,-0.02414 2.06401,0c2.01573,0.07242 3.82022,0.10863 5.41349,0.10863c1.24323,0 3.12015,0.03621 5.63075,0.10863c3.5245,0.09656 5.64886,0.14484 6.37307,0.14484h0.52505v50.76731c-2.23266,-0.0587 -5.01484,-0.25182 -8.34655,-0.57937c-1.93123,-0.15691 -3.84436,-0.30176 -5.73939,-0.43453c-1.5812,-0.09656 -3.18654,-0.21726 -4.81601,-0.36211c-2.16057,-0.20519 -3.79005,-0.344 -4.88844,-0.41642l-1.81053,-0.10863c-1.55706,-0.16898 -2.55888,-0.25347 -3.00548,-0.25347c-1.07425,-0.02414 -2.0278,0.16295 -2.86064,0.56126c-0.38625,0.688 -0.62765,1.16478 -0.72421,1.43032c-0.09656,0.26554 -0.22933,0.81474 -0.39832,1.64758c0.03621,0.86906 0.08449,1.43636 0.14484,1.7019c0.07242,0.25347 0.28969,0.74835 0.65179,1.48464c0.86906,0.48281 1.62948,0.77249 2.28127,0.86906c0.65179,0.08449 2.4925,0.15088 5.52212,0.19916l2.84253,0.09053c2.47439,0.1207 4.95482,0.21726 7.44128,0.28969c2.8365,0.06035 5.39538,0.14484 7.67665,0.25347c2.25746,0.08581 4.26715,0.15823 6.02907,0.21726v11.27961l-20.16932,-1.05011c-3.45208,-0.1207 -6.04718,-0.2414 -7.78529,-0.36211c-3.01755,-0.19312 -5.5704,-0.57334 -7.65855,-1.14063c-0.73628,-0.26554 -1.28548,-0.55523 -1.64758,-0.86906c-0.38625,-0.27761 -0.80267,-0.74835 -1.24927,-1.41221c-0.49488,-1.07425 -0.84491,-2.0278 -1.05011,-2.86064c-0.19312,-0.91734 -0.26554,-1.9252 -0.21726,-3.02359l0.83284,-13.86867c0.14484,-1.95537 0.2414,-3.4219 0.28969,-4.39959l1.73811,-26.41566c0.91734,-13.7359 1.5812,-23.22912 1.99158,-28.47966c0.35004,-4.2125 0.61558,-7.8396 0.79663,-10.8813l0.79663,-13.23499c0.09656,-1.47257 0.17502,-2.50457 0.23537,-3.09601c0.14484,-1.11046 0.39832,-2.11229 0.76042,-3.00548l0.61558,-0.95958c2.10022,-2.20885 3.56675,-3.60899 4.39959,-4.20043c0.84289,-0.578 2.69566,-1.48327 5.55833,-2.7158c0.06134,-0.01094 0.12169,-0.02301 0.18105,-0.03621c0.88113,-0.2414 1.74415,-0.38625 2.58906,-0.43453l3.69348,0.28969c1.19495,0.08449 2.98738,0.19916 5.37728,0.344c2.20885,0.13277 4.41166,0.27761 6.60844,0.43453l3.31327,0.19916v7.20592l-21.74448,-1.32169c-0.16898,0 -0.33797,-0.00604 -0.50695,-0.01811c-0.14484,-0.01207 -0.29572,-0.01811 -0.45263,-0.01811c-0.1207,-0.01207 -0.24744,-0.02414 -0.38021,-0.03621c-0.10863,0 -0.2233,-0.00604 -0.344,-0.01811c-0.09656,0 -0.18105,0 -0.25347,0c-0.08449,-0.01207 -0.16295,-0.01811 -0.23537,-0.01811c-0.06035,0 -0.11467,0 -0.16295,0c-0.03621,-0.01207 -0.07242,-0.01811 -0.10863,-0.01811c-0.21726,0.02414 -0.42246,0.04225 -0.61558,0.05432c-0.19312,0.04828 -0.39832,0.09656 -0.61558,0.14484c-0.12018,0.04008 -0.24089,0.08232 -0.36211,0.12674l-0.36211,-0.01811l-0.36211,0.3259l-0.01811,0.09053c-0.09109,0.2919 -0.17558,0.59366 -0.25347,0.90527c-0.15691,0.65179 -0.30176,1.30358 -0.43453,1.95537c-0.06035,0.3259 -0.10863,0.65783 -0.14484,0.99579c-0.03621,0.35004 -0.06035,0.70007 -0.07242,1.05011c-0.01207,0.33797 -0.01811,0.67593 -0.01811,1.0139c0.01207,0.35004 0.03018,0.70611 0.05432,1.06821z" fill="#f5f7f9"/><path d="M358.96075,105.69837l12.22109,0.65179v19.69858l-19.37269,-1.06821c0.25347,-1.67776 0.42849,-2.7158 0.52505,-3.11411c0.09656,-0.42246 0.28969,-1.032 0.57937,-1.82864c0.51902,-1.49671 0.92941,-3.48226 1.23116,-5.95665c0.36211,-3.0779 0.82681,-5.54626 1.39411,-7.40507l1.10442,-0.97769c0.50695,-0.03621 0.86302,-0.05432 1.06821,-0.05432c0.19312,0 0.60955,0.01811 1.24927,0.05432z" fill="#e21f2d"/><path d="M357.0597,103.99647l-0.28969,-1.06821l-11.80467,-0.95958c-0.57937,-1.50878 -0.61558,-3.02359 -0.10863,-4.54443c8.83987,-2.15722 17.61492,-2.38655 26.32513,-0.688v7.78529z" fill="#df202e"/></g><g><path d="M371.18184,248.27773v5.19623c-0.06714,-0.02683 -0.13353,-0.057 -0.19916,-0.09053c-0.19312,-0.09656 -0.3259,-0.19312 -0.39832,-0.28969c-0.08449,-0.1207 -0.12674,-0.31383 -0.12674,-0.57937c-0.02414,-0.8087 -0.03018,-1.38204 -0.01811,-1.72001c0.02414,-0.63972 0.1026,-1.20099 0.23537,-1.68379c0.10943,-0.42684 0.27842,-0.70446 0.50695,-0.83284M335.78595,222.76734c2.3899,0.07242 5.04535,-0.14484 7.96634,-0.65179c1.77432,-0.3259 4.38149,-0.92941 7.8215,-1.81053c3.48829,-0.88113 6.14374,-1.5993 7.96634,-2.15453c2.89685,-0.90527 5.44367,-1.87088 7.64044,-2.89685c0.688,-0.3259 1.99762,-1.00183 3.92885,-2.0278c0.02423,-0.01245 0.04838,-0.02452 0.07242,-0.03621v3.47622c-0.29713,0.16186 -0.60493,0.32481 -0.92337,0.48884c-2.19678,1.06218 -4.68928,2.0459 -7.4775,2.95117c-2.05194,0.66386 -4.62289,1.40014 -7.71286,2.20885v1.32169c0,0.14484 -0.01207,0.25347 -0.03621,0.3259c-0.06035,0.22933 -0.31986,0.4647 -0.77853,0.70611l-1.7019,0.85095c-0.59144,0.26554 -1.06821,0.51902 -1.43032,0.76042c-0.03621,0.02414 -0.07242,0.05432 -0.10863,0.09053c3.83833,0.14484 7.4956,-0.31986 10.97182,-1.39411c0.3259,-0.09656 0.81474,-0.25951 1.46653,-0.48884c0.59144,-0.19312 1.08028,-0.33797 1.46653,-0.43453c0.47074,-0.1207 1.17081,-0.27761 2.10022,-0.47074c1.44291,-0.33518 2.83098,-0.83006 4.16422,-1.48464v3.29517c-0.4276,0.14791 -0.84402,0.26861 -1.24927,0.36211c-0.97769,0.18105 -1.71397,0.33193 -2.20885,0.45263c-0.59144,0.13277 -1.36997,0.35607 -2.33559,0.6699c-1.15874,0.38625 -1.9252,0.63369 -2.29938,0.74232c-1.18288,0.3259 -2.7158,0.59144 -4.59875,0.79663c-6.28858,0.65179 -12.50474,0.35607 -18.64848,-0.88716c-1.27944,-0.2414 -2.20281,-0.55523 -2.77011,-0.94148c-0.62765,-0.4466 -1.05614,-1.02597 -1.28548,-1.73811c-0.2414,-0.72421 -0.2414,-1.41825 0,-2.08211M371.18184,183.60554v4.92465c-0.03018,0.02999 -0.06035,0.06016 -0.09053,0.09053c-0.43453,0.43453 -0.77249,0.69404 -1.0139,0.77853c-0.27761,0.10863 -0.688,0.14484 -1.23116,0.10863c-0.60351,-0.06035 -1.02597,-0.06639 -1.26737,-0.01811c0.03621,-0.20519 0.03018,-0.60955 -0.01811,-1.21306c-0.03621,-0.50695 0.00604,-0.89923 0.12674,-1.17685c0.08449,-0.21726 0.28365,-0.49488 0.59748,-0.83284c0.54316,-0.60351 1.05614,-1.12253 1.53895,-1.55706c0.53821,-0.42764 0.99084,-0.79579 1.3579,-1.10442M340.69249,246.28615c0.01207,1.62948 0,3.47019 -0.03621,5.52212l-8.79918,-0.25347c0.02414,1.52085 0,2.5951 -0.07242,3.22275c-0.07242,0.59144 -0.11467,0.94751 -0.12674,1.06821c-0.02414,0.41039 0.01207,0.76646 0.10863,1.06821c0.13277,0.35004 0.31986,0.59144 0.56126,0.72421c0.16898,0.09656 0.4466,0.14484 0.83284,0.14484l3.60296,0.05432l0.01811,3.18654c0,0.3259 -0.05432,0.55523 -0.16295,0.688c-0.09656,0.1207 -0.29572,0.21726 -0.59748,0.28969c-1.03804,0.21726 -2.21488,0.36211 -3.53054,0.43453c-0.84491,0.04828 -2.03383,0.07242 -3.56675,0.07242c-0.73628,0 -1.26737,-0.06639 -1.59327,-0.19916c-0.39832,-0.20519 -0.70611,-0.344 -0.92337,-0.41642c-0.21726,-0.04828 -0.38021,-0.08449 -0.48884,-0.10863c-0.18105,-0.03621 -0.3259,-0.09656 -0.43453,-0.18105c-0.26554,-0.20519 -0.39832,-0.63972 -0.39832,-1.30358c0.06035,-1.376 0.16295,-2.6132 0.30779,-3.71159c0.27761,-2.18471 0.7906,-4.37545 1.53895,-6.57223c0.10863,-0.26554 0.19312,-0.42849 0.25347,-0.48884c0.1207,-0.1207 0.33797,-0.21726 0.65179,-0.28969c0.65179,-0.13277 1.39411,-0.21726 2.22695,-0.25347c0.49488,-0.02414 1.24323,-0.03018 2.24506,-0.01811c2.60717,0.02414 4.56254,0.07242 5.86612,0.14484v-2.86064l2.51664,0.03621M329.24993,215.50711l2.31748,0.01811c0.31383,0 0.54919,0.04828 0.70611,0.14484c0.21726,0.13277 0.36814,0.38021 0.45263,0.74232c0.20519,0.70007 0.33193,1.50274 0.38021,2.40801c0.02414,0.57937 0.01207,1.39411 -0.03621,2.44422l-0.77853,0.09053c-0.07242,0.30176 -0.28969,0.51902 -0.65179,0.65179c-0.16898,0.06035 -0.48884,0.09053 -0.95958,0.09053l-2.11832,-0.01811c-0.13277,0 -0.23537,-0.03018 -0.30779,-0.09053c-0.08449,-0.07242 -0.12674,-0.20519 -0.12674,-0.39832l-0.01811,-2.0278c-0.91734,0.61558 -1.55706,1.15874 -1.91916,1.62948c-0.3259,0.42246 -0.66386,1.07425 -1.0139,1.95537c-0.21726,0.59144 -0.35004,0.97769 -0.39832,1.15874c-0.07242,0.27761 -0.1207,0.80267 -0.14484,1.57516c-0.01207,0.73628 0.02414,1.31565 0.10863,1.73811c0.1207,0.62765 0.36211,1.11649 0.72421,1.46653c0.21726,0.20519 0.51902,0.40435 0.90527,0.59748c0.84491,0.45867 1.49671,0.74232 1.95537,0.85095c0.42246,0.09656 1.0139,0.13277 1.77432,0.10863c0.86906,-0.03621 1.4605,-0.03621 1.77432,0v2.44422c-0.21726,0.10863 -0.54316,0.16295 -0.97769,0.16295l-2.69769,0.01811c-0.57937,0 -0.97165,-0.00604 -1.17685,-0.01811c-0.43453,-0.02414 -0.82077,-0.07846 -1.15874,-0.16295c-0.41039,-0.09656 -0.89923,-0.28969 -1.46653,-0.57937c-0.84491,-0.42246 -1.41825,-0.85095 -1.72001,-1.28548c-0.25347,-0.35004 -0.41642,-0.7906 -0.48884,-1.32169c-0.04828,-0.31383 -0.07242,-0.79663 -0.07242,-1.44843l0.03621,-4.96086c0,-0.79663 0.04828,-1.38807 0.14484,-1.77432c0.03621,-0.16898 0.15088,-0.51902 0.344,-1.05011c0.37418,-0.96562 0.74232,-1.66569 1.10442,-2.10022c0.2414,-0.28969 0.62162,-0.63972 1.14063,-1.05011c0.36211,-0.28969 0.6699,-0.50695 0.92337,-0.65179c0.54316,-0.25347 1.33979,-0.35607 2.3899,-0.30779l0.36211,-0.65179c0.09656,-0.16898 0.18709,-0.27761 0.27158,-0.3259c0.07242,-0.04828 0.21123,-0.07242 0.41642,-0.07242M348.16999,183.22533c0.19312,-0.19312 0.31986,-0.39228 0.38021,-0.59748l2.55285,0.05432c-0.03621,0.21726 -0.03018,0.65783 0.01811,1.32169c0.03621,0.54316 -0.01207,0.96562 -0.14484,1.26737c-0.08449,0.20519 -0.27761,0.48281 -0.57937,0.83284c-1.17081,1.32772 -2.0278,2.24506 -2.57095,2.75201c-0.27761,0.26554 -0.70007,0.66386 -1.26737,1.19495c-0.45867,0.47074 -0.8087,0.91734 -1.05011,1.33979c-0.30176,0.54316 -0.4647,0.82681 -0.48884,0.85095l-0.38021,0.43453c-0.02414,0.03621 -0.08449,0.13881 -0.18105,0.30779c-0.08449,0.1207 -0.16295,0.21123 -0.23537,0.27158c-0.1207,0.07242 -0.3259,0.10863 -0.61558,0.10863l-2.06401,-0.05432v-1.99158c0,-0.20519 0.01207,-0.36211 0.03621,-0.47074c0.03621,-0.15691 0.14484,-0.33193 0.3259,-0.52505c0.26554,-0.28969 0.45263,-0.51902 0.56126,-0.688c0.20519,-0.35004 0.36211,-0.60955 0.47074,-0.77853c0.35004,-0.59144 0.94148,-1.26737 1.77432,-2.0278c1.0139,-0.94148 1.65965,-1.57516 1.93727,-1.90106c0.39832,-0.55523 0.71818,-0.95355 0.95958,-1.19495c0.25347,-0.21726 0.44056,-0.38625 0.56126,-0.50695z" fill="#000000"/><path d="M352.55147,225.51935l1.7019,-0.85095c0.45867,-0.2414 0.71818,-0.47677 0.77853,-0.70611c0.02414,-0.07242 0.03621,-0.18105 0.03621,-0.3259v-1.32169c3.08997,-0.8087 5.66093,-1.54499 7.71286,-2.20885c2.78822,-0.90527 5.28072,-1.88899 7.4775,-2.95117c0.31845,-0.16403 0.62624,-0.32698 0.92337,-0.48884v5.43159c-1.33324,0.65457 -2.72131,1.14945 -4.16422,1.48464c-0.92941,0.19312 -1.62948,0.35004 -2.10022,0.47074c-0.38625,0.09656 -0.87509,0.2414 -1.46653,0.43453c-0.65179,0.22933 -1.14063,0.39228 -1.46653,0.48884c-3.47622,1.07425 -7.13349,1.53895 -10.97182,1.39411c0.03621,-0.03621 0.07242,-0.06639 0.10863,-0.09053c0.36211,-0.2414 0.83888,-0.49488 1.43032,-0.76042z" fill="#ffffff"/></g><g fill="#000000" font-family="&quot;Helvetica Neue&quot;, Helvetica, Arial, sans-serif" font-weight="400" font-size="16" text-anchor="start"/><g><path d="M260.10573,228.43431l0.65179,7.44128c0.18105,2.05194 0.26554,3.59089 0.25347,4.61686c-0.33797,0.96562 -0.59144,1.5993 -0.76042,1.90106c-0.03522,0.06771 -0.0835,0.14616 -0.14484,0.23537z" fill="#f5f7f9"/><path d="M262.27837,222.9665l0.688,6.73518c0.55523,5.78163 0.82077,9.30613 0.79663,10.5735c-0.04828,1.24323 -0.47074,2.70373 -1.26737,4.38149c-0.83638,1.18745 -1.63301,2.13497 -2.3899,2.84253v-4.87033c0.06134,-0.08921 0.10962,-0.16766 0.14484,-0.23537c0.16898,-0.30176 0.42246,-0.93544 0.76042,-1.90106c0.01207,-1.02597 -0.07242,-2.56492 -0.25347,-4.61686l-0.65179,-7.44128v-32.24557c0.10906,1.77022 0.22976,3.57472 0.36211,5.41349c0.42246,5.9144 1.02597,13.03583 1.81053,21.36427z" fill="#706c84"/></g><path d="M261.62657,189.39924c0.07242,0.4466 0.18709,0.76042 0.344,0.94148c0.14484,0.18105 0.36211,0.31383 0.65179,0.39832c0.16898,0.04828 0.44056,0.09053 0.81474,0.12674c2.08815,0.18105 4.36338,0.72421 6.8257,1.62948c1.52085,0.55523 3.68141,1.49671 6.4817,2.82443c0.77249,0.35004 1.33979,0.69404 1.7019,1.032c0.50695,0.49488 0.85095,1.17685 1.032,2.0459c0.1207,0.57937 0.18709,1.38204 0.19916,2.40801c0,0.65179 -0.01207,1.11649 -0.03621,1.39411c-0.03621,0.50695 -0.13277,0.94751 -0.28969,1.32169c-0.20519,0.51902 -0.53712,1.02597 -0.99579,1.52085c-0.31383,0.33797 -0.77853,0.75439 -1.39411,1.24927c-1.66569,1.36393 -2.88478,2.34766 -3.65727,2.95117c-1.376,1.06218 -2.65545,1.95537 -3.83833,2.67959c-1.09839,0.70007 -2.58303,1.52688 -4.45391,2.48043c-1.2553,0.65179 -2.30541,1.10442 -3.15033,1.3579c-0.61176,0.18355 -1.19717,0.29822 -1.75622,0.344v-3.20464c2.10503,-0.95793 3.71036,-1.73043 4.81601,-2.31748c2.31748,-1.21909 4.27889,-2.4925 5.88423,-3.82022l1.72001,-1.50274c0.67593,-0.60351 1.26134,-1.08028 1.75622,-1.43032c0.39832,-0.27761 0.69404,-0.48884 0.88716,-0.63369c0.33797,-0.25347 0.60955,-0.48884 0.81474,-0.70611c0.57937,-0.62765 0.86302,-1.27341 0.85095,-1.93727c-0.03621,-0.688 -0.38021,-1.30358 -1.032,-1.84674c-0.41039,-0.3259 -1.04407,-0.67593 -1.90106,-1.05011l-3.53054,-1.55706c-1.42428,-0.60351 -2.34162,-0.98372 -2.75201,-1.14063c-1.03804,-0.41039 -1.97348,-0.71818 -2.80632,-0.92337c-0.94148,-0.22933 -2.3899,-0.45263 -4.34528,-0.6699c-0.13291,-0.014 -0.25362,-0.03211 -0.36211,-0.05432v-14.6291h0.57937c0.07242,3.51243 0.38625,7.08521 0.94148,10.71835z" fill="#000000"/></g></g></svg>