
<svg viewBox="0 0 112 184" height="184px" width="112px" y="0px" x="0px" preserveAspectRatio="none" xmlns:xlink="http://www.w3.org/1999/xlink" version="1.1" xmlns="http://www.w3.org/2000/svg">
<defs></defs>

<g id="fun_scrollers">
<g transform="matrix( 0.3621063232421875, 0, 0, 0.3621063232421875, -594.2,0.1)" id="svg"></g>

<g transform="matrix( 0.3621063232421875, 0, 0, 0.3621063232421875, -594.2,0.1)" id="Layer_2">
<g>
<g>
<g>
<path d="M 1702.35 76.4
L 1702.95 76.4
Q 1702.670703125 74.70625 1702.3 73.1 1698.8 57.9 1698.65 37.75
L 1698.7 29.1
Q 1698.75 22.85 1697.6 18.75 1696.3 15.75 1694.4 13.55 1692.65 11.6 1689.8 9.5
L 1686.6 7.65
Q 1680.3255859375 3.8572265625 1674.15 1.95
L 1630.2 1.95 1630.2 5.25
Q 1653.068359375 4.392578125 1676.2 9.85 1676.25 10.15 1682.85 14.85 1689.65 20.4 1690.65 25.3 1690.8 26.1 1690.95 26.9
L 1630.2 28.75 1630.2 33.3 1683.15 32.5
Q 1687.45 32.8 1691.05 34.55 1691.9 36.15 1692.2 37.8 1692.25 38.65 1692.35 41.25
L 1692.6 47.45
Q 1693.3 61.65 1696 75.05 1697 80.65 1696.8 84.5
L 1694.9 86.45
Q 1691.55 86.7 1686.8 86.8
L 1630.2 87.65 1630.2 92.45
Q 1632.7677734375 92.4306640625 1635.8 92.4 1644.95 92.25 1654.1 92.25
L 1691.05 91.9
Q 1693.7 91.8 1694.5 91.85 1695.35 91.9 1697.8 92.2 1698.45 92.45 1699.1 92.75
L 1699.8 92.75
Q 1698.0626953125 92.1125 1696.3 91.85
L 1696.3 91.4
Q 1698.2 91.1 1702.6 89.85 1703.5 86.7 1703.3 83.15 1703.2 81 1702.35 76.4
M 1704.05 85
L 1703.75 82.9
Q 1703.58359375 80.7158203125 1703.3 78.65
L 1703.3 80.85
Q 1703.45 82.9 1703.6 83.5 1703.7060546875 83.959375 1704.05 85 Z" stroke="none" fill="#7E1A34"></path>

<path d="M 1703.3 78.65
L 1703.3 76.4 1702.95 76.4 1702.35 76.4
Q 1703.2 81 1703.3 83.15 1703.5 86.7 1702.6 89.85 1698.2 91.1 1696.3 91.4
L 1696.3 91.85
Q 1698.0626953125 92.1125 1699.8 92.75 1700.4126953125 92.95 1701 93.2
L 1703.65 94.65
Q 1712.35 99.5 1717.65 106.2 1722.8 113.55 1725.25 122.45 1727.4 130.35 1727.65 140.25
L 1727.7 142.8
Q 1727.9 155.15 1727.15 177
L 1726.15 207.05
Q 1726 211.65 1725.5 215.5 1725.05 218.45 1724.8 221.3
L 1723.65 249.4
Q 1722.7 275.45 1722.6 306.65 1722.55 329.45 1723.05 363.85
L 1723.4 393.65
Q 1723.55 402.2 1723.15 406.45 1721.55 410.35 1720.7 411.5 1719.95 412.7 1716.95 415.8
L 1712.2 420.7 1710.55 424.2 1710.4 424.55
Q 1710.003515625 424.626953125 1709.55 424.7 1704.7515625 425.532421875 1696.25 425.9
L 1630.7 427.05
Q 1630.448828125 427.0587890625 1630.2 427.05
L 1630.2 433.75 1660.9 433.85
Q 1677.65 433.95 1684.3 433.7 1697.45 433.25 1707.6 431.35 1713.8 429.65 1718.15 426.4 1721.95 423.65 1726.45 418.15 1730.25 411.5 1730.75 406.4 1731.3 401.2 1730.7 377.15
L 1730.25 358.45
Q 1729.45 323.8 1729.5 299.2 1729.6 267.15 1731 240.05 1732.1 219.65 1733.05 192.1
L 1734 166.7
Q 1734.75 146.75 1733.95 136.7 1732.6 120.2 1726.95 107.7 1723.65 101.5 1720.55 97.75 1716.55 92.85 1711.6 90.3 1706.9 88 1704.45 85.95 1704.2447265625 85.4224609375 1704.05 85 1703.7060546875 83.959375 1703.6 83.5 1703.45 82.9 1703.3 80.85
L 1703.3 78.65 Z" stroke="none" fill="#706C84"></path>

<path d="M 1630.75 376.6
Q 1630.473046875 376.5939453125 1630.2 376.6
L 1630.2 396.8
Q 1638.340625 396.6455078125 1646.45 396.25 1658.2 395.7 1667.7 395.5 1688.75 394.85 1699.35 394.45
L 1702.75 394.25
Q 1707.55 394.15 1713.65 393.7
L 1714.65 392.7
Q 1715.45 388.15 1715.5 385 1715.55 381 1714.4 377.3 1711 375.85 1709.3 375.75 1707.5 375.65 1700.3 376.05
L 1684.25 376.75
Q 1674.75 377.2 1659.9 376.8 1651.9 376.7 1644.05 376.7 1637.45 376.75 1630.75 376.6
M 1709.3 235.5
Q 1709.2 233.25 1709.15 232.5 1709.1 231.7 1708.65 229.4
L 1707.85 226.4
Q 1706.95 219.85 1704.8 215.9
L 1702.6 215.4 1693.55 215.75
Q 1684.35 216 1677.45 216.6 1665.95 217.7 1650.2 218
L 1641.65 218.2
Q 1640.73125 218.2 1630.2 218.25
L 1630.2 239.15
Q 1634.798828125 238.940625 1638.8 238.7 1643.9 238.35 1654.3 237.85 1668.9 237.3 1671.85 237.1
L 1679.85 236.6
Q 1683.75 236.4 1687.8 236.35
L 1688.8 238.25
Q 1699.95 239.6 1708.05 237.9
L 1709.3 235.5 Z" stroke="none" fill="#9DAEEA"></path>

<path d="M 1675.95 141.2
L 1673.2 141.2
Q 1659.45 141.3 1645.65 141.55
L 1630.2 141.7 1630.2 159.2
Q 1633.301171875 159.8724609375 1636.5 160.9 1645.2 163.85 1649.7 163.6 1654.15 163.4 1672.45 158.95
L 1686.05 155.7
Q 1695.65 153.4 1704.1 152.9 1706.5 152.85 1707.15 152.8 1707.85 152.7 1709.5 152.3
L 1709.45 147.45 1711.35 147.45 1711.45 141.7 1711.2 141.7 1705.5 141.8 1705.25 141.8
Q 1702.7125 142.05 1701.9 142.05 1701.15 142.05 1699.1 141.95
L 1690.35 141.45
Q 1682.7 141.15 1675.95 141.2 Z" stroke="none" fill="#992A3F"></path>

<path d="M 1673.2 141.2
L 1675.95 141.2
Q 1682.7 141.15 1690.35 141.45
L 1699.1 141.95
Q 1701.15 142.05 1701.9 142.05 1702.7125 142.05 1705.25 141.8
L 1705.5 141.8 1705.4 138.05
Q 1704.9 137.95 1704.4 137.95 1703.3 137.85 1702.25 137.9 1701.1 137.9 1699.95 137.95 1698.7 137.95 1697.5 138 1696.2 138.05 1694.95 138.1 1689.6 138.4 1684.3 138.7 1683.5 138.75 1682.75 138.9 1681.75 138.9 1680.8 138.95 1679.75 139.05 1678.7 139.1 1677.55 139.1 1676.4 139.15 1675.15 139.15 1673.9 139.25 1672.5 139.25 1671.15 139.35 1669.7 139.4 1668.25 139.5 1666.65 139.5 1665.1 139.55 1663.95 139.55 1662.85 139.65 1662.2 139.65 1661.55 139.65 1660.8 139.6 1660.05 139.65 1658.4 139.6 1656.7 139.65 1653.7 139.45 1650.9 139.5 1648.3 139.55 1645.7 139.55 1643.05 139.55 1640.4 139.6 1635.2552734375 139.7888671875 1630.2 139.95
L 1630.2 141.7 1645.65 141.55
Q 1659.45 141.3 1673.2 141.2
M 1703.65 94.65
L 1701 93.2
Q 1700.4126953125 92.95 1699.8 92.75
L 1699.1 92.75
Q 1698.45 92.45 1697.8 92.2 1695.35 91.9 1694.5 91.85 1693.7 91.8 1691.05 91.9
L 1654.1 92.25
Q 1644.95 92.25 1635.8 92.4 1632.7677734375 92.4306640625 1630.2 92.45
L 1630.2 112.35 1694.4 111.8
Q 1695.45 111.85 1696.55 111.9 1697.55 111.9 1698.6 112 1699.55 112.1 1700.55 112.15 1701.4 112.2 1702.35 112.35 1703.2 112.45 1704.15 112.65 1705 112.8 1705.85 112.95 1706.6 113.15 1707.45 113.35 1708.1 113.6 1708.75 113.95 1709.8 114.75 1710.8 115.75
L 1711.2 141.7 1711.45 141.7 1711.35 147.45 1709.45 147.45 1709.5 152.3
Q 1707.85 152.7 1707.15 152.8 1706.5 152.85 1704.1 152.9 1695.65 153.4 1686.05 155.7
L 1672.45 158.95
Q 1654.15 163.4 1649.7 163.6 1645.2 163.85 1636.5 160.9 1633.301171875 159.8724609375 1630.2 159.2
L 1630.2 218.25
Q 1640.73125 218.2 1641.65 218.2
L 1650.2 218
Q 1665.95 217.7 1677.45 216.6 1684.35 216 1693.55 215.75
L 1702.6 215.4 1704.8 215.9
Q 1706.95 219.85 1707.85 226.4
L 1708.65 229.4
Q 1709.1 231.7 1709.15 232.5 1709.2 233.25 1709.3 235.5
L 1708.05 237.9
Q 1699.95 239.6 1688.8 238.25
L 1687.8 236.35
Q 1683.75 236.4 1679.85 236.6
L 1671.85 237.1
Q 1668.9 237.3 1654.3 237.85 1643.9 238.35 1638.8 238.7 1634.798828125 238.940625 1630.2 239.15
L 1630.2 376.6
Q 1630.473046875 376.5939453125 1630.75 376.6 1637.45 376.75 1644.05 376.7 1651.9 376.7 1659.9 376.8 1674.75 377.2 1684.25 376.75
L 1700.3 376.05
Q 1707.5 375.65 1709.3 375.75 1711 375.85 1714.4 377.3 1715.55 381 1715.5 385 1715.45 388.15 1714.65 392.7
L 1713.65 393.7
Q 1707.55 394.15 1702.75 394.25
L 1699.35 394.45
Q 1688.75 394.85 1667.7 395.5 1658.2 395.7 1646.45 396.25 1638.340625 396.6455078125 1630.2 396.8
L 1630.2 427.05
Q 1630.448828125 427.0587890625 1630.7 427.05
L 1696.25 425.9
Q 1704.7515625 425.532421875 1709.55 424.7 1710.0814453125 424.474609375 1710.55 424.2
L 1712.2 420.7 1716.95 415.8
Q 1719.95 412.7 1720.7 411.5 1721.55 410.35 1723.15 406.45 1723.55 402.2 1723.4 393.65
L 1723.05 363.85
Q 1722.55 329.45 1722.6 306.65 1722.7 275.45 1723.65 249.4
L 1724.8 221.3
Q 1725.05 218.45 1725.5 215.5 1726 211.65 1726.15 207.05
L 1727.15 177
Q 1727.9 155.15 1727.7 142.8
L 1727.65 140.25
Q 1727.4 130.35 1725.25 122.45 1722.8 113.55 1717.65 106.2 1712.35 99.5 1703.65 94.65
M 1691.05 159.15
Q 1696.25 159.05 1700 160.1 1702.15 161.85 1703.6 163.95 1704.85 165.75 1705.9 168.65 1706.75 173.25 1706.65 179.6
L 1706.7 182.4
Q 1706.65 186.5 1706.2 188.4 1705.6 190.75 1703.5 193.75
L 1702.55 197.55
Q 1698.05 199.85 1691.3 200.65 1688.15 201.05 1679.6 201.35
L 1676.95 201.5
Q 1673.5 201.55 1671.55 201.1 1669.15 200.6 1666.55 199 1663.4 195.75 1662.75 194.8 1662.05 193.85 1661.1 191.6 1660.65 188.55 1660.6 187.5 1660.6 186.45 1660.55 183.05
L 1660.4 178.45
Q 1660.65 175.15 1661.55 173.05 1662.35 171.15 1664.5 168.4
L 1666.3 166.2
Q 1670.6 162.1 1676.3 160.6 1680.05 159.65 1687.75 159.3
L 1691.05 159.15 Z" stroke="none" fill="#F5F7F9"></path>

<path d="M 1696.55 111.9
Q 1695.45 111.85 1694.4 111.8
L 1630.2 112.35 1630.2 139.95
Q 1635.2552734375 139.7888671875 1640.4 139.6 1643.05 139.55 1645.7 139.55 1648.3 139.55 1650.9 139.5 1653.7 139.45 1656.7 139.65 1658.4 139.6 1660.05 139.65 1660.8 139.6 1661.55 139.65 1662.2 139.65 1662.85 139.65 1663.95 139.55 1665.1 139.55 1666.65 139.5 1668.25 139.5 1669.7 139.4 1671.15 139.35 1672.5 139.25 1673.9 139.25 1675.15 139.15 1676.4 139.15 1677.55 139.1 1678.7 139.1 1679.75 139.05 1680.8 138.95 1681.75 138.9 1682.75 138.9 1683.5 138.75 1684.3 138.7 1689.6 138.4 1694.95 138.1 1696.2 138.05 1697.5 138 1698.7 137.95 1699.95 137.95 1701.1 137.9 1702.25 137.9 1703.3 137.85 1704.4 137.95 1704.9 137.95 1705.4 138.05
L 1705.5 141.8 1711.2 141.7 1710.8 115.75
Q 1709.8 114.75 1708.75 113.95 1708.1 113.6 1707.45 113.35 1706.6 113.15 1705.85 112.95 1705 112.8 1704.15 112.65 1703.2 112.45 1702.35 112.35 1701.4 112.2 1700.55 112.15 1699.55 112.1 1698.6 112 1697.55 111.9 1696.55 111.9 Z" stroke="none" fill="#110F1A"></path>

<path d="M 1690.95 26.9
Q 1690.8 26.1 1690.65 25.3 1689.65 20.4 1682.85 14.85 1676.25 10.15 1676.2 9.85 1653.068359375 4.392578125 1630.2 5.25
L 1630.2 28.75 1690.95 26.9 Z" stroke="none" fill="#DF202E"></path>

<path d="M 1691.05 34.55
Q 1687.45 32.8 1683.15 32.5
L 1630.2 33.3 1630.2 87.65 1686.8 86.8
Q 1691.55 86.7 1694.9 86.45
L 1696.8 84.5
Q 1697 80.65 1696 75.05 1693.3 61.65 1692.6 47.45
L 1692.35 41.25
Q 1692.25 38.65 1692.2 37.8 1691.9 36.15 1691.05 34.55 Z" stroke="none" fill="#E21F2D"></path>

<path d="M 1700 160.1
Q 1696.25 159.05 1691.05 159.15
L 1687.75 159.3
Q 1680.05 159.65 1676.3 160.6 1670.6 162.1 1666.3 166.2
L 1664.5 168.4
Q 1662.35 171.15 1661.55 173.05 1660.65 175.15 1660.4 178.45
L 1660.55 183.05
Q 1660.6 186.45 1660.6 187.5 1660.65 188.55 1661.1 191.6 1662.05 193.85 1662.75 194.8 1663.4 195.75 1666.55 199 1669.15 200.6 1671.55 201.1 1673.5 201.55 1676.95 201.5
L 1679.6 201.35
Q 1688.15 201.05 1691.3 200.65 1698.05 199.85 1702.55 197.55
L 1703.5 193.75
Q 1705.6 190.75 1706.2 188.4 1706.65 186.5 1706.7 182.4
L 1706.65 179.6
Q 1706.75 173.25 1705.9 168.65 1704.85 165.75 1703.6 163.95 1702.15 161.85 1700 160.1
M 1696.75 167.55
Q 1697.2 168.15 1698.75 170.7 1700.75 174.05 1701.25 177.25 1701.7 179.8 1701.35 184.15
L 1700.45 185.1
Q 1699.4 187.65 1698.95 188.55 1698.5 189.4 1696.7 191.9 1691.8 194.5 1685.95 195.25 1680.95 195.85 1674.65 195.2 1671.4 194.15 1670.6 193.5 1669.7 193 1667.8 190.5 1665.8 186 1665.7 180.9 1667.9 176.1 1668.95 174.7 1670 173.3 1674.05 169.75 1676.6 167.8 1678.9 167 1681.15 166.25 1684.4 165.95
L 1688.3 165.95
Q 1691.8 165.9 1695.3 166 1696.3 166.95 1696.75 167.55 Z" stroke="none" fill="#5D5A76"></path>

<path d="M 1698.75 170.7
Q 1697.2 168.15 1696.75 167.55 1696.3 166.95 1695.3 166 1691.8 165.9 1688.3 165.95
L 1684.4 165.95
Q 1681.15 166.25 1678.9 167 1676.6 167.8 1674.05 169.75 1670 173.3 1668.95 174.7 1667.9 176.1 1665.7 180.9 1665.8 186 1667.8 190.5 1669.7 193 1670.6 193.5 1671.4 194.15 1674.65 195.2 1680.95 195.85 1685.95 195.25 1691.8 194.5 1696.7 191.9 1698.5 189.4 1698.95 188.55 1699.4 187.65 1700.45 185.1
L 1701.35 184.15
Q 1701.7 179.8 1701.25 177.25 1700.75 174.05 1698.75 170.7 Z" stroke="none" fill="#F1F3F7"></path>
</g>
</g>
</g>
</g>

<g transform="matrix( 0.3621063232421875, 0, 0, 0.3621063232421875, -594.2,0.1)" id="Layer_3">
<g>
<g>
<g>
<path d="M 1634.15 467.35
Q 1632.0130859375 467.575 1630.2 468.1
L 1630.2 487.75 1633.35 487.8
Q 1634.2 487.8 1634.5 487.5 1634.9 487.2 1634.75 486.2 1634.65 485.1 1634.8 484.75 1636.55 484.35 1639.2 481.9 1641.5 479.7 1642.1 478.45 1643.05 476.5 1642.85 473 1642.6 468.55 1642.8 467.3 1637.2 467 1634.15 467.35
M 1652.05 381.35
Q 1639.5033203125 382.5236328125 1630.2 386.75
L 1630.2 397.45
Q 1646.289453125 386.9767578125 1673.45 387.75 1679.9 387.95 1683.3 389.55 1686.4 391.05 1688.7 394.1 1690.85 396.95 1691.9 400.55 1692.85 403.65 1693.15 407.65 1693.35 410.45 1693.25 414.85
L 1700.1 415
Q 1700.15 408.9 1700.15 405.85 1700.15 400.4 1699.5 396.75 1698.6 391.9 1696.2 388.2 1693.5 384 1689.5 382.3 1687.4 381.45 1684.55 381.15 1682.7 380.95 1679.35 380.95 1670.25 380.8 1665.7 380.8 1657.85 380.8 1652.05 381.35
M 1635.15 277.25
L 1630.2 277.1 1630.2 298.05 1630.35 297.9
Q 1631.7 296.35 1634 292.5 1634.8 291.2 1635 290.45 1635.2 289.75 1635.2 288.3 1635.2 279.1 1635.15 277.25
M 1682.45 433.15
L 1675.25 433
Q 1675.05 435.9 1675.65 441.2 1676.25 446.9 1676.2 449.4 1676.15 451.35 1675.85 454.05 1675.65 455.55 1675.2 458.65 1674.45 464.25 1674.3 471.3 1674.2 475.55 1674.3 484 1674.3 486.9 1674.7 488.55
L 1677.25 488.8 1677.25 492.35 1685.65 492.45
Q 1687.85 492.45 1688.8 491.9 1690.05 491.2 1690.7 489.15 1691.2 487.4 1691.2 485.1 1691.2 483.7 1690.95 481
L 1682.45 480.9
Q 1681.55 480.8 1681.35 480.55 1681.1 480.3 1681.1 479.5 1681.2 474.8 1681.5 471.5
L 1682.55 461.25
Q 1683.8 447.35 1682.45 433.15
M 1721.9 429.3
Q 1721.8 427.15 1721.45 426.5
L 1714.1 426.4 1714.1 433.15
Q 1714.85 433.5 1715.05 434.7 1715.1 435.3 1715.05 436.55 1715.05 437.6 1715.65 439.6 1717.4 445.05 1718.25 447.05
L 1720.05 450.95
Q 1721.05 453.15 1721.4 454.85 1721.9 457.3 1721.6 462.25 1722.15 462.15 1722.85 462.6 1723.25 462.85 1724.05 463.35 1724.75 463.6 1725.8 463.6 1728.85 463.6 1731.85 463.45
L 1731.85 451.4
Q 1731.85 449.2 1731.55 448.15 1731.35 447.4 1730.9 447.05 1730.45 446.75 1729.5 446.75 1728.45 446.75 1728.05 446.6 1725.1 440.55 1723.2 434.9 1722 431.2 1721.9 429.3
M 1704.15 275.6
Q 1704.4 274.7 1704.7 274.2
L 1705.55 272.5
Q 1705.85 271.65 1705.85 269.75
L 1705.75 262.55 1699.75 262.45
Q 1698.6 262.45 1698.05 262.65 1697.55 262.85 1696.75 263.55 1694.75 265.35 1692.95 267.35 1692.3 268.1 1691.85 268.3
L 1690.9 268.45 1688.65 268.55
Q 1688.1 268.55 1687.85 268.65 1687.45 268.75 1687 269.2 1686.05 269.85 1685.35 270.6 1684.6 271.35 1683.5 273.15 1682.6 274.5 1682.25 275.5 1681.8 276.85 1681.8 278.9 1681.85 280.05 1681.9 282.35
L 1681.85 284.15
Q 1681.8 285.2 1681.9 285.9 1681.9 286.15 1682.35 288.45 1682.65 290 1682.45 290.95
L 1689.05 291.1
Q 1690.3 291.1 1690.9 290.95 1691.9 290.65 1693.55 289.2 1697.05 285.9 1698.35 284.3 1699.05 283.45 1701.1 280.5
L 1703.35 277.1
Q 1703.55 276.8 1704.15 275.6 Z" stroke="none" fill="#000000"></path>
</g>
</g>
</g>
</g>

<g transform="matrix( 0.3621063232421875, 0, 0, 0.3621063232421875, -594.2,0.1)" id="Layer_6">
<g>
<g>
<g>
<path d="M 1936.95 202.45
Q 1936.1326171875 210.7931640625 1935 221.8
L 1933.2 240
Q 1931.55 256.5 1931.25 259.3 1930.05 270.3 1928.9 278.65 1927.45 288.35 1926.4 301.15 1924.35 325 1922.25 343.15 1918.95 372.8 1917.2 391
L 1915.4 410.4
Q 1914.6 419.15 1915.3 424.25 1917.15 431.2 1922.8 436.6 1926.2 438.65 1930.4 439.8 1933.176953125 440.54609375 1936.95 441.05
L 1936.95 434.05
Q 1934.690234375 433.6076171875 1932.65 433.05 1929.65 432 1928.15 430.65 1926.65 429.5 1924.85 426.75 1922.95 422.3 1922.25 418.85 1921.55 415 1921.95 410.45
L 1925.7 372.35
Q 1926.6 364.25 1926.95 360.2
L 1934.5 287.45
Q 1935.8076171875 274.7658203125 1936.95 263.8
L 1936.95 202.45 Z" stroke="none" fill="#706C84"></path>

<path d="M 1936.95 263.8
Q 1935.8076171875 274.7658203125 1934.5 287.45
L 1926.95 360.2
Q 1926.6 364.25 1925.7 372.35
L 1921.95 410.45
Q 1921.55 415 1922.25 418.85 1922.95 422.3 1924.85 426.75 1926.65 429.5 1928.15 430.65 1929.65 432 1932.65 433.05 1934.690234375 433.6076171875 1936.95 434.05
L 1936.95 263.8 Z" stroke="none" fill="#F5F7F9"></path>
</g>
</g>
</g>
</g>

<g transform="matrix( 0.3621063232421875, 0, 0, 0.3621063232421875, -594.2,0.1)" id="MergedLayer_1">
<g>
<g>
<g>
<path d="M 1884.3 468.35
Q 1885.15 469.25 1886.75 470.15
L 1899.05 477.5
Q 1902.65 479.6 1904.65 480.05 1907.75 480.75 1912 479.6 1917.55 478.1 1925.9 473.25 1931.55 470.05 1934.55 467.5 1935.5533203125 466.684765625 1936.95 465.35
L 1936.95 451.95
Q 1935.3517578125 453.4052734375 1932.65 456.15 1929.55 459.3 1927.8 460.75 1925.8 462.35 1920.9 465.4 1917.2 467.65 1915.25 468.65 1912 470.3 1909.2 471
L 1909.2 469.7
Q 1905.6 468.55 1902.15 465.55 1899.7 463.4 1896.4 459.4 1894.7 457.4 1893.7 456.8 1891.9 455.75 1888.35 455.95 1884 456.25 1882.65 455.95 1882.75 457.2 1882.65 459.15 1882.45 461.65 1882.45 462.35 1882.35 466.35 1884.3 468.35
M 1851.6 365.55
Q 1851.1 367.25 1851.1 371.2
L 1851.25 382.4
Q 1851.25 383.95 1851.85 384.5 1852.35 384.9 1853.4 385 1853.7 385.05 1854.05 385.1 1854.35 387.35 1855.25 388.5 1856.65 390.3 1859.8 390.45 1863.6 390.25 1865.35 390.2 1868.4 390.1 1872.2 391.15 1873.75 391.6 1878.9 393.4 1893.2 398.4 1916.4 402.05 1928.565234375 403.954296875 1936.95 405.3
L 1936.95 397.35
Q 1930.4587890625 396.34296875 1922.35 395.1 1898.2 391.4 1883.45 386 1880.15 384.8 1878.2 383.55 1875.5 381.75 1874.5 379.4 1874.3 378.95 1874.15 378.35 1886.2 377.7 1898.2 379.3 1902.65 379.95 1911.55 381.35 1919.25 382.3 1924.9 381.6
L 1924.9 375.05
Q 1920.35 374.95 1913.65 373.9 1906.15 372.65 1902.35 372.15 1895.45 371.25 1886.75 371.05 1881.9 370.95 1872.55 371.1 1872.45 370.85 1872.35 370.65 1871.85 369.7 1871.1 368.95 1870.8 366.35 1869.1 363.8 1867.7 361.65 1866 361.1 1865.1 360.75 1863.25 360.75
L 1859.25 360.65
Q 1856.25 360.65 1854.95 361.25 1852.5 362.35 1851.6 365.55
M 1931.7 227.35
L 1931.7 234.1
Q 1932.35 234.1 1932.65 234.9 1932.85 235.3 1933.15 236.15
L 1933.7 236.85
Q 1933.85 237.05 1934.8 238.8 1935.40625 240.0125 1936.95 242.1
L 1936.95 227.4 1931.7 227.35 Z" stroke="none" fill="#000000"></path>
</g>
</g>
</g>
</g>
</g>
</svg>
