<svg version="1.1" xmlns="http://www.w3.org/2000/svg" xmlns:xlink="http://www.w3.org/1999/xlink" width="111.07612" height="168.50618" viewBox="0,0,111.07612,168.50618"><g transform="translate(-260.10573,-94.2377)"><g data-paper-data="{&quot;isPaintingLayer&quot;:true}" fill-rule="nonzero" stroke="none" stroke-width="1" stroke-linecap="butt" stroke-linejoin="miter" stroke-miterlimit="10" stroke-dasharray="" stroke-dashoffset="0" style="mix-blend-mode: normal"><g fill="none" font-family="sans-serif" font-weight="normal" font-size="12" text-anchor="start"/><g fill="none" font-family="sans-serif" font-weight="normal" font-size="12" text-anchor="start"/><g fill="none" font-family="sans-serif" font-weight="normal" font-size="12" text-anchor="start"/><g><path d="M368.08584,122.88031c-0.16899,1.77432 -0.25347,2.67356 -0.25347,2.6977l0.07242,0.77853c0.38624,0.18106 0.72421,0.31986 1.0139,0.41642l-1.23116,0.52506c-2.86266,1.23253 -4.71544,2.13779 -5.55833,2.71579c-0.83285,0.59144 -2.29937,1.99158 -4.39959,4.20043l-0.61559,0.95958c-0.3621,0.89319 -0.61558,1.89503 -0.76042,3.00548c-0.06035,0.59144 -0.13881,1.62345 -0.23537,3.09601l-0.79663,13.23498c-0.18106,3.0417 -0.4466,6.66879 -0.79664,10.88129c-0.41039,5.25054 -1.07425,14.74376 -1.99158,28.47966l-1.73811,26.41566c-0.04828,0.97769 -0.14484,2.44422 -0.28969,4.39959l-0.83284,13.86867c-0.04828,1.09839 0.02414,2.10626 0.21726,3.02359c0.2052,0.83284 0.55523,1.78639 1.05011,2.86064c0.4466,0.66386 0.86302,1.1346 1.24927,1.41222c0.3621,0.31383 0.9113,0.60351 1.64758,0.86906c2.08814,0.5673 4.64099,0.94751 7.65855,1.14064c1.73811,0.1207 4.3332,0.2414 7.78528,0.3621l1.90106,0.09053v2.48042l-15.09983,-1.08632c-1.17081,-0.14485 -2.16057,-0.31985 -2.96928,-0.52505c-1.02597,-0.28968 -1.95537,-0.67593 -2.78821,-1.15874c-1.40015,-1.31565 -2.35972,-2.81236 -2.87874,-4.49012c-0.21726,-1.21909 -0.26555,-2.89082 -0.14485,-5.01517l0.38021,-7.02486c0.26554,-4.4177 0.6699,-10.2114 1.21306,-17.3811c0.33796,-4.4177 0.64575,-9.50529 0.92337,-15.26278c0.1207,-3.08998 0.31383,-5.81181 0.57937,-8.1655c0.21726,-2.02779 0.41642,-4.36942 0.59748,-7.02486c0.04828,-0.67593 0.19916,-3.01152 0.45263,-7.00676l0.39832,-6.60844c0.3621,-5.40745 0.60955,-9.48718 0.74232,-12.23919l1.10442,-17.68889c0.14484,-1.96744 0.43453,-3.67538 0.86906,-5.12381c0.53109,-1.75018 1.30962,-3.2831 2.33558,-4.59875c1.23116,-1.29152 2.79425,-2.44421 4.68928,-3.45812c1.31565,-0.70007 3.09601,-1.49068 5.34107,-2.3718l0.7061,0.03621l0.10863,-1.73811h0.12673z" fill="#706c84"/><path d="M370.98269,108.10638c0.0595,-0.29751 0.12589,-0.59323 0.19916,-0.88716v13.05393c-0.28969,0.79663 -0.48281,1.40619 -0.57937,1.82864c-0.09656,0.39831 -0.27158,1.43635 -0.52506,3.11411l1.10442,0.05431v1.61137l-0.72422,-0.05432c-0.84492,0.04828 -1.70794,0.19312 -2.58906,0.43453c-0.05936,0.0132 -0.11971,0.02527 -0.18105,0.03621l1.23116,-0.52506c-0.28969,-0.09656 -0.62766,-0.23537 -1.0139,-0.41642l-0.07242,-0.77853c0,-0.02414 0.08449,-0.92338 0.25347,-2.6977l-0.21726,-0.0181c0.20774,-1.37431 0.56984,-2.66582 1.08632,-3.87454c0.4466,-1.14667 0.8087,-2.4744 1.08632,-3.98317c0.10863,-0.72422 0.28365,-2.10021 0.52505,-4.12801c0.1207,-1.1346 0.25951,-2.05797 0.41643,-2.77012M363.12498,97.65961c-0.50695,1.52084 -0.47073,3.03566 0.10863,4.54444l7.94824,0.63368v2.51664l-7.76718,-0.59748c-0.50695,-0.09656 -0.85698,-0.18106 -1.05011,-0.25347c-0.2052,-0.08449 -0.64576,-0.31986 -1.32169,-0.70611c-0.2414,-0.54316 -0.35003,-1.23116 -0.3259,-2.064c0.06035,-0.95355 0.10863,-1.66569 0.14484,-2.13643l0.05432,-0.97768c0.06035,-1.19495 0.11467,-1.9252 0.16294,-2.19075c0.04828,-0.25347 0.18106,-0.57937 0.39832,-0.97768c1.26737,-0.3621 2.70976,-0.63368 4.32717,-0.81474c1.08632,-0.13277 2.55285,-0.24744 4.39959,-0.344l0.97769,-0.05432v1.99159c-2.67958,0.29667 -5.36521,0.77343 -8.05687,1.43032z" fill="#7e1a34"/><path d="M357.98307,229.81031c0.83285,-0.39831 1.78639,-0.5854 2.86064,-0.56126c0.4466,0 1.44843,0.08449 3.00549,0.25348l1.81053,0.10863c1.09839,0.07242 2.72787,0.21123 4.88844,0.41643c0.21166,0.01881 0.42289,0.03691 0.63369,0.05431v7.27834c-0.96048,-0.03772 -1.92006,-0.07997 -2.87875,-0.12674l-2.84253,-0.09052c-3.02963,-0.04828 -4.87033,-0.11467 -5.52212,-0.19916c-0.65179,-0.09656 -1.41222,-0.38625 -2.28127,-0.86906c-0.3621,-0.73629 -0.57937,-1.23116 -0.65179,-1.48463c-0.06035,-0.26555 -0.10863,-0.83284 -0.14484,-1.7019c0.16899,-0.83284 0.30175,-1.38204 0.39831,-1.64758c0.09656,-0.26555 0.33797,-0.74232 0.72421,-1.43032M371.18185,180.25606c-0.76603,-0.00914 -1.34541,-0.00311 -1.73811,0.01811c-1.96744,0 -3.18653,-0.04225 -3.65727,-0.12674c-0.45867,-0.09656 -1.1346,-0.42246 -2.02779,-0.97769c-0.72422,-1.87088 -0.74232,-4.18232 -0.05432,-6.93434c0.06035,-0.09656 2.16057,-0.00603 6.30065,0.27158c0.40695,0.02584 0.79923,0.04998 1.17685,0.07242z" fill="#9daeea"/><path d="M368.44794,149.65808c-0.9294,-0.37418 -2.17868,-0.97769 -3.7478,-1.81053l-1.75621,-0.56126l-1.32169,-0.65179c-0.10863,-0.54316 -0.15691,-0.89923 -0.14484,-1.06821c0.01207,-0.18105 0.09656,-0.51902 0.25347,-1.0139c0.96562,-0.13277 1.96744,-0.15691 3.00548,-0.07242l6.44549,0.36211v5.70317c-0.87835,-0.20072 -1.78965,-0.49643 -2.7339,-0.88716z" fill="#992a3f"/><path d="M366.74604,133.94266c0.15692,0 0.30779,0.00604 0.45263,0.01811c0.16899,0.01207 0.33796,0.0181 0.50695,0.0181l3.47622,0.21726v10.08466l-7.65855,-0.39832c-0.19313,-0.07242 -0.36814,-0.16295 -0.52506,-0.27158c-0.08449,-0.01207 -0.15691,-0.03017 -0.21726,-0.05431c-0.06035,-0.04828 -0.1207,-0.09053 -0.18105,-0.12674c-0.02414,-0.02414 -0.05432,-0.04828 -0.09053,-0.07242c-0.03621,-0.02414 -0.06035,-0.04828 -0.07242,-0.07242c-0.01207,-0.02414 -0.02414,-0.04225 -0.03621,-0.05432c-0.02414,-0.04828 -0.04828,-0.09053 -0.07242,-0.12674c-0.03621,-0.07242 -0.06036,-0.13881 -0.07243,-0.19916c-0.03621,-0.09656 -0.06639,-0.19312 -0.09053,-0.28968c-0.04828,-0.35003 -0.08449,-0.70007 -0.10863,-1.05011c-0.02414,-0.36211 -0.04224,-0.71818 -0.05431,-1.06822c0,-0.33796 0.00603,-0.67593 0.0181,-1.0139c0.01207,-0.35003 0.03621,-0.70007 0.07242,-1.05011c0.03621,-0.33796 0.08449,-0.6699 0.14484,-0.9958c0.13277,-0.65179 0.27761,-1.30358 0.43453,-1.95538c0.07789,-0.31161 0.16238,-0.61336 0.25347,-0.90526l0.0181,-0.09053l0.36211,-0.3259l0.3621,0.01811c0.12122,-0.04441 0.24192,-0.08667 0.36211,-0.12674c0.21726,-0.04828 0.42246,-0.09656 0.61558,-0.14484c0.19313,-0.01207 0.39832,-0.03018 0.61558,-0.05432c0.03621,0 0.07242,0.00603 0.10863,0.0181c0.04828,0 0.1026,0 0.16295,0c0.07242,0 0.15088,0.00603 0.23537,0.0181c0.07242,0 0.15692,0 0.25348,0c0.1207,0.01207 0.23537,0.01811 0.344,0.01811c0.13277,0.01207 0.25951,0.02414 0.38021,0.03621z" fill="#110f1a"/><path d="M371.18185,134.19614l-3.47622,-0.21726c-0.16899,0 -0.33796,-0.00603 -0.50695,-0.0181c-0.14484,-0.01207 -0.29572,-0.01811 -0.45263,-0.01811c-0.1207,-0.01207 -0.24744,-0.02414 -0.38021,-0.03621c-0.10863,0 -0.2233,-0.00604 -0.344,-0.01811c-0.09656,0 -0.18106,0 -0.25348,0c-0.08449,-0.01207 -0.16295,-0.0181 -0.23537,-0.0181c-0.06035,0 -0.11467,0 -0.16295,0c-0.03621,-0.01207 -0.07242,-0.0181 -0.10863,-0.0181c-0.21726,0.02414 -0.42246,0.04225 -0.61558,0.05432c-0.19313,0.04828 -0.39832,0.09656 -0.61558,0.14484c-0.12018,0.04008 -0.24089,0.08233 -0.36211,0.12674l-0.3621,-0.01811l-0.36211,0.3259l-0.0181,0.09053c-0.09109,0.2919 -0.17558,0.59365 -0.25347,0.90526c-0.15692,0.65179 -0.30176,1.30358 -0.43453,1.95538c-0.06035,0.3259 -0.10863,0.65783 -0.14484,0.9958c-0.03621,0.35003 -0.06035,0.70007 -0.07242,1.05011c-0.01207,0.33796 -0.0181,0.67593 -0.0181,1.0139c0.01207,0.35003 0.03017,0.70611 0.05431,1.06822c0.02414,0.35003 0.06035,0.70007 0.10863,1.05011c0.02414,0.09656 0.05432,0.19312 0.09053,0.28968c0.01207,0.06035 0.03622,0.12674 0.07243,0.19916c0.02414,0.03621 0.04828,0.07846 0.07242,0.12674c0.01207,0.01207 0.02414,0.03018 0.03621,0.05432c0.01207,0.02414 0.03621,0.04828 0.07242,0.07242c0.03621,0.02414 0.06639,0.04828 0.09053,0.07242c0.06035,0.03621 0.1207,0.07846 0.18105,0.12674c0.06035,0.02414 0.13277,0.04224 0.21726,0.05431c0.15692,0.10863 0.33193,0.19916 0.52506,0.27158l7.65855,0.39832v0.56126l-6.44549,-0.36211c-1.03804,-0.08449 -2.03987,-0.06035 -3.00548,0.07242c-0.15692,0.49488 -0.2414,0.83284 -0.25347,1.0139c-0.01207,0.16898 0.03621,0.52505 0.14484,1.06821l1.32169,0.65179l1.75621,0.56126c1.56912,0.83284 2.8184,1.43635 3.7478,1.81053c0.94426,0.39073 1.85556,0.68644 2.7339,0.88716v22.03417c-0.37762,-0.02245 -0.7699,-0.04658 -1.17685,-0.07242c-4.14008,-0.27761 -6.2403,-0.36814 -6.30065,-0.27158c-0.688,2.75201 -0.66989,5.06345 0.05432,6.93434c0.89319,0.55523 1.56912,0.88112 2.02779,0.97769c0.47074,0.08449 1.68983,0.12674 3.65727,0.12674c0.3927,-0.02122 0.97208,-0.02725 1.73811,-0.01811v49.82583c-0.2108,-0.0174 -0.42203,-0.0355 -0.63369,-0.05431c-2.16057,-0.2052 -3.79005,-0.34401 -4.88844,-0.41643l-1.81053,-0.10863c-1.55705,-0.16898 -2.55889,-0.25348 -3.00549,-0.25348c-1.07425,-0.02414 -2.02779,0.16295 -2.86064,0.56126c-0.38624,0.688 -0.62765,1.16478 -0.72421,1.43032c-0.09656,0.26555 -0.22933,0.81474 -0.39831,1.64758c0.03621,0.86906 0.08449,1.43635 0.14484,1.7019c0.07242,0.25348 0.28969,0.74835 0.65179,1.48463c0.86906,0.48281 1.62948,0.77249 2.28127,0.86906c0.65179,0.08449 2.4925,0.15088 5.52212,0.19916l2.84253,0.09052c0.95869,0.04677 1.91827,0.08902 2.87875,0.12674v10.95372l-1.90106,-0.09053c-3.45208,-0.1207 -6.04717,-0.2414 -7.78528,-0.3621c-3.01756,-0.19313 -5.5704,-0.57334 -7.65855,-1.14064c-0.73629,-0.26555 -1.28548,-0.55523 -1.64758,-0.86906c-0.38624,-0.27761 -0.80267,-0.74836 -1.24927,-1.41222c-0.49488,-1.07425 -0.84491,-2.02779 -1.05011,-2.86064c-0.19313,-0.91734 -0.26554,-1.9252 -0.21726,-3.02359l0.83284,-13.86867c0.14484,-1.95538 0.24141,-3.42191 0.28969,-4.39959l1.73811,-26.41566c0.91733,-13.7359 1.5812,-23.22912 1.99158,-28.47966c0.35003,-4.2125 0.61558,-7.8396 0.79664,-10.88129l0.79663,-13.23498c0.09656,-1.47257 0.17502,-2.50457 0.23537,-3.09601c0.14484,-1.11046 0.39832,-2.11229 0.76042,-3.00548l0.61559,-0.95958c2.10021,-2.20885 3.56674,-3.60899 4.39959,-4.20043c0.84289,-0.578 2.69567,-1.48326 5.55833,-2.71579c0.06134,-0.01094 0.12169,-0.02301 0.18105,-0.03621c0.88112,-0.24141 1.74415,-0.38625 2.58906,-0.43453l0.72422,0.05432z" fill="#f5f7f9"/><path d="M371.18185,125.27022l-1.10442,-0.05431c0.25347,-1.67776 0.42849,-2.7158 0.52506,-3.11411c0.09656,-0.42245 0.28968,-1.03201 0.57937,-1.82864z" fill="#e21f2d"/><path d="M371.18185,96.22929v6.60844l-7.94824,-0.63368c-0.57937,-1.50877 -0.61559,-3.02359 -0.10863,-4.54444c2.69166,-0.65689 5.37729,-1.13365 8.05687,-1.43032z" fill="#df202e"/></g><g><path d="M355.33969,226.82293c-0.62765,-0.4466 -1.05614,-1.02597 -1.28548,-1.73811c-0.2414,-0.72421 -0.2414,-1.41825 0,-2.08211c2.3899,0.07242 5.04535,-0.14484 7.96634,-0.65179c1.77432,-0.3259 4.38148,-0.92941 7.82149,-1.81053c0.46116,-0.1165 0.90777,-0.23118 1.3398,-0.34401v5.37728l-0.36211,0.18105c-0.59144,0.26555 -1.06822,0.51902 -1.43032,0.76042c-0.03621,0.02414 -0.07242,0.05432 -0.10863,0.09053c0.63873,0.02409 1.27242,0.03013 1.90106,0.0181v2.35369c-4.39318,0.06578 -8.75053,-0.33858 -13.07204,-1.21305c-1.27944,-0.2414 -2.20281,-0.55523 -2.77011,-0.94148M358.96076,246.52152c0.01207,1.62948 0,3.47019 -0.03621,5.52213l-8.79919,-0.25348c0.02414,1.52085 0,2.5951 -0.07242,3.22275c-0.07242,0.59144 -0.11467,0.94751 -0.12674,1.06821c-0.02414,0.41039 0.01207,0.76646 0.10863,1.06821c0.13277,0.35003 0.31986,0.59145 0.56126,0.72422c0.16899,0.09656 0.4466,0.14484 0.83285,0.14484l3.60296,0.05432l0.0181,3.18654c0,0.3259 -0.05431,0.55523 -0.16294,0.688c-0.09656,0.1207 -0.29572,0.21726 -0.59748,0.28968c-1.03804,0.21726 -2.21488,0.36211 -3.53054,0.43453c-0.84492,0.04828 -2.03383,0.07242 -3.56675,0.07242c-0.73629,0 -1.26737,-0.06639 -1.59327,-0.19916c-0.39832,-0.2052 -0.70611,-0.344 -0.92337,-0.41642c-0.21726,-0.04828 -0.38021,-0.0845 -0.48884,-0.10864c-0.18106,-0.03621 -0.3259,-0.09656 -0.43453,-0.18105c-0.26554,-0.2052 -0.39832,-0.63972 -0.39832,-1.30358c0.06035,-1.37601 0.16295,-2.6132 0.30779,-3.71159c0.27762,-2.18471 0.7906,-4.37545 1.53895,-6.57223c0.10863,-0.26555 0.19312,-0.42849 0.25347,-0.48884c0.1207,-0.1207 0.33796,-0.21726 0.65179,-0.28968c0.65179,-0.13277 1.39411,-0.21726 2.22696,-0.25348c0.49488,-0.02414 1.24323,-0.03017 2.24506,-0.0181c2.60717,0.02414 4.56254,0.07242 5.86612,0.14484v-2.86064l2.51664,0.03621M340.90976,220.9025c0.37417,-0.96562 0.74232,-1.66569 1.10442,-2.10022c0.2414,-0.28968 0.62161,-0.63972 1.14063,-1.05011c0.3621,-0.28968 0.6699,-0.50695 0.92337,-0.65179c0.54316,-0.25348 1.33979,-0.35608 2.3899,-0.30779l0.36211,-0.65179c0.09656,-0.16898 0.18708,-0.27761 0.27157,-0.3259c0.07242,-0.04828 0.21123,-0.07242 0.41643,-0.07242l2.31748,0.0181c0.31383,0 0.54919,0.04828 0.70611,0.14484c0.21726,0.13277 0.36814,0.38021 0.45263,0.74232c0.2052,0.70007 0.33193,1.50274 0.38021,2.40801c0.02414,0.57937 0.01207,1.39411 -0.03621,2.44422l-0.77853,0.09053c-0.07242,0.30175 -0.28969,0.51902 -0.65179,0.65179c-0.16899,0.06035 -0.48884,0.09053 -0.95958,0.09053l-2.11832,-0.01811c-0.13277,0 -0.23537,-0.03018 -0.30779,-0.09053c-0.08449,-0.07242 -0.12673,-0.20519 -0.12673,-0.39831l-0.0181,-2.02779c-0.91733,0.61558 -1.55706,1.15874 -1.91917,1.62948c-0.3259,0.42246 -0.66386,1.07425 -1.01389,1.95537c-0.21726,0.59144 -0.35004,0.97769 -0.39832,1.15874c-0.07242,0.27761 -0.1207,0.80267 -0.14484,1.57516c-0.01207,0.73629 0.02414,1.31565 0.10863,1.73811c0.1207,0.62765 0.36211,1.11649 0.72422,1.46653c0.21726,0.2052 0.51902,0.40435 0.90526,0.59748c0.84492,0.45867 1.49671,0.74232 1.95538,0.85095c0.42246,0.09656 1.01389,0.13277 1.77432,0.10863c0.86906,-0.03621 1.46049,-0.03621 1.77432,0v2.44422c-0.21726,0.10863 -0.54316,0.16295 -0.97769,0.16295l-2.6977,0.0181c-0.57937,0 -0.97165,-0.00603 -1.17684,-0.0181c-0.43453,-0.02414 -0.82078,-0.07846 -1.15874,-0.16295c-0.41039,-0.09656 -0.89923,-0.28969 -1.46653,-0.57937c-0.84492,-0.42246 -1.41825,-0.85094 -1.72001,-1.28547c-0.25347,-0.35003 -0.41643,-0.7906 -0.48885,-1.32169c-0.04828,-0.31383 -0.07242,-0.79663 -0.07242,-1.44842l0.03621,-4.96086c0,-0.79664 0.04829,-1.38808 0.14485,-1.77433c0.03621,-0.16898 0.15087,-0.51901 0.344,-1.05011M366.09425,189.09146c-0.27762,0.26555 -0.70008,0.66386 -1.26738,1.19495c-0.45867,0.47074 -0.8087,0.91734 -1.0501,1.3398c-0.30176,0.54316 -0.46471,0.82681 -0.48885,0.85095l-0.38021,0.43453c-0.02414,0.03621 -0.0845,0.13881 -0.18106,0.30779c-0.08449,0.1207 -0.16295,0.21123 -0.23537,0.27158c-0.1207,0.07242 -0.32589,0.10863 -0.61558,0.10863l-2.06401,-0.05432v-1.99158c0,-0.2052 0.01207,-0.3621 0.03621,-0.47073c0.03621,-0.15691 0.14484,-0.33193 0.3259,-0.52506c0.26554,-0.28968 0.45263,-0.51902 0.56126,-0.68801c0.2052,-0.35003 0.36211,-0.60954 0.47074,-0.77853c0.35003,-0.59144 0.94148,-1.26737 1.77432,-2.02779c1.0139,-0.94147 1.65965,-1.57516 1.93727,-1.90106c0.39832,-0.55523 0.71818,-0.95355 0.95958,-1.19495c0.25347,-0.21726 0.44056,-0.38625 0.56126,-0.50695c0.19313,-0.19313 0.31986,-0.39228 0.38021,-0.59748l2.55285,0.05432c-0.03621,0.21726 -0.03017,0.65783 0.0181,1.32169c0.03621,0.54316 -0.01207,0.96561 -0.14484,1.26737c-0.08449,0.2052 -0.27761,0.48281 -0.57937,0.83285c-1.17081,1.32772 -2.0278,2.24506 -2.57096,2.75201z" fill="#000000"/><path d="M371.18185,226.62378c-0.62864,0.01202 -1.26233,0.00599 -1.90106,-0.0181c0.03621,-0.03621 0.07242,-0.06639 0.10863,-0.09053c0.3621,-0.2414 0.83888,-0.49488 1.43032,-0.76042l0.36211,-0.18105z" fill="#ffffff"/></g><g fill="none" font-family="sans-serif" font-weight="normal" font-size="12" text-anchor="start"/><g><path d="M264.45101,231.04147l5.75749,-0.66989c1.72604,-0.2414 2.80029,-0.36211 3.22274,-0.36211c0.43453,0.01207 1.06821,0.15691 1.90106,0.43453c0.33796,0.86906 0.53713,1.78639 0.59748,2.75201c0.04828,0.74836 0.01207,1.68379 -0.10863,2.80632l-0.30779,0.38021c-1.46049,0.21726 -2.77011,0.38625 -3.92885,0.50695l-1.24927,0.14484c-2.34798,0.25592 -5.75782,0.61803 -10.2295,1.08632v-6.66276c1.64183,-0.1257 3.09026,-0.26451 4.34528,-0.41643M266.76849,172.30783l0.81474,0.09052c0.59144,0.91734 1.05614,2.16057 1.39411,3.72969l0.344,1.06822c0.15692,0.54316 0.25348,0.90527 0.28969,1.08632c0.02414,0.19313 0.06638,0.56126 0.12673,1.10442l-0.38021,0.88716c-1.94331,0.54316 -4.26078,0.75438 -6.95244,0.63368l-0.41643,-0.66989c-0.63025,0.05516 -1.25789,0.12154 -1.88295,0.19915v-7.40507c1.0511,-0.13301 2.1857,-0.25975 3.4038,-0.38021z" fill="#9daeea"/><path d="M260.30489,154.81809l-0.19916,0.0181v-2.44422l1.01389,-0.12674c1.24323,-0.10863 2.32352,-0.07242 3.24085,0.10863c0.5673,0.38625 1.04408,0.82077 1.43032,1.30358c0.3259,0.41038 0.63972,0.95959 0.94148,1.64758c0.27762,1.07425 0.4647,2.37783 0.56126,3.91074l0.09053,1.032c0.07242,0.97769 0.06638,1.7019 -0.01811,2.17264c-0.10863,0.57937 -0.38624,1.24323 -0.83284,1.99159l-0.25348,1.43032c-1.05011,0.61558 -2.37179,1.08028 -3.96506,1.3941c-0.47951,0.09892 -1.21578,0.20755 -2.20884,0.3259v-2.11832c0.04248,-0.00358 0.08472,-0.00962 0.12673,-0.0181c1.40015,-0.27761 2.66148,-0.77249 3.78401,-1.48463c0.38624,-0.63972 0.62765,-1.06217 0.72421,-1.26737c0.09656,-0.22933 0.24744,-0.65783 0.45263,-1.28548l0.30779,-0.38021c0,-1.05011 -0.07242,-1.88295 -0.21726,-2.49853c-0.18106,-0.76042 -0.53712,-1.52085 -1.06821,-2.28127c-0.42246,-0.59144 -0.69404,-0.95355 -0.81474,-1.08632c-0.1207,-0.13277 -0.31383,-0.31383 -0.57937,-0.54316c-0.84492,0.04828 -1.68379,0.11467 -2.51664,0.19916z" fill="#5d5a76"/><path d="M264.21564,156.24841c0.53109,0.76042 0.88716,1.52085 1.06821,2.28127c0.14484,0.61558 0.21726,1.44842 0.21726,2.49853l-0.30779,0.38021c-0.2052,0.62765 -0.35607,1.05615 -0.45263,1.28548c-0.09656,0.2052 -0.33797,0.62765 -0.72421,1.26737c-1.12253,0.71214 -2.38387,1.20702 -3.78401,1.48463c-0.04201,0.00849 -0.08425,0.01452 -0.12673,0.0181v-10.62782l0.19916,-0.0181c0.83285,-0.08449 1.67172,-0.15088 2.51664,-0.19916c0.26554,0.22933 0.45867,0.41039 0.57937,0.54316c0.1207,0.13277 0.39229,0.49488 0.81474,1.08632z" fill="#f1f3f7"/><path d="M265.37438,144.2808c0.10863,-0.01207 0.22933,-0.01207 0.3621,0l0.10864,1.3579c-0.65179,0.09656 -1.07425,0.15691 -1.26738,0.18105c-0.18106,0.01207 -0.52505,0.03018 -1.032,0.05432l-3.15033,0.05432c-0.09694,0.00316 -0.1935,0.00316 -0.28969,0v-1.10442c0.61699,-0.07502 1.23257,-0.15347 1.84674,-0.23537c0.30176,-0.03621 0.60954,-0.06638 0.92337,-0.09052c0.28969,-0.03621 0.5854,-0.07242 0.88716,-0.10863c0.27762,-0.02414 0.55523,-0.04829 0.83285,-0.07243c0.25347,-0.02414 0.51299,-0.03621 0.77853,-0.03621M272.48976,138.12499c0.65179,1.85881 1.09839,3.98317 1.3398,6.37307l0.09052,0.92337c0.26554,2.94513 0.50695,7.06711 0.72421,12.36593l0.41643,10.86319c0.04828,1.11046 0.04225,2.13039 -0.0181,3.0598c-0.06035,0.72421 -0.09053,1.43032 -0.09053,2.11832l0.3259,10.1933c0.22933,6.27651 0.60351,13.17463 1.12253,20.69438c0.39832,5.49194 0.95957,12.378 1.68379,20.65816l0.94148,10.73646c0.18106,2.05193 0.26555,3.59088 0.25348,4.61685c-0.33796,0.96562 -0.59144,1.5993 -0.76042,1.90106c-0.15692,0.30176 -0.57334,0.85094 -1.24927,1.64758l-1.57516,1.90106l-0.50695,1.30358c-0.11349,0.07935 -0.23419,0.15177 -0.3621,0.21726c-1.13856,0.27559 -2.7258,0.5351 -4.7617,0.77853l-9.95792,0.90527v-11.2615c4.47168,-0.46829 7.88152,-0.8304 10.2295,-1.08632l1.24927,-0.14484c1.15874,-0.1207 2.46836,-0.28968 3.92885,-0.50695l0.30779,-0.38021c0.1207,-1.12253 0.15691,-2.05797 0.10863,-2.80632c-0.06035,-0.96562 -0.25951,-1.88296 -0.59748,-2.75201c-0.83285,-0.27761 -1.46653,-0.42246 -1.90106,-0.43453c-0.42246,0 -1.4967,0.1207 -3.22274,0.36211l-5.75749,0.66989c-1.25502,0.15192 -2.70344,0.29073 -4.34528,0.41643v-51.02079c0.62506,-0.07761 1.2527,-0.14399 1.88295,-0.19915l0.41643,0.66989c2.69166,0.1207 5.00914,-0.09052 6.95244,-0.63368l0.38021,-0.88716c-0.06035,-0.54316 -0.1026,-0.9113 -0.12673,-1.10442c-0.03621,-0.18105 -0.13277,-0.54316 -0.28969,-1.08632l-0.344,-1.06822c-0.33796,-1.56913 -0.80267,-2.81236 -1.39411,-3.72969l-0.81474,-0.09052l-3.25896,0.344c-1.2181,0.12046 -2.3527,0.2472 -3.4038,0.38021v-5.4497c0.99306,-0.11835 1.72933,-0.22698 2.20884,-0.3259c1.59327,-0.31383 2.91495,-0.77853 3.96506,-1.3941l0.25348,-1.43032c0.4466,-0.74836 0.72421,-1.41222 0.83284,-1.99159c0.08449,-0.47074 0.09053,-1.19495 0.01811,-2.17264l-0.09053,-1.032c-0.09656,-1.53292 -0.28365,-2.83649 -0.56126,-3.91074c-0.30176,-0.688 -0.61559,-1.2372 -0.94148,-1.64758c-0.38624,-0.48281 -0.86302,-0.91734 -1.43032,-1.30358c-0.91733,-0.18105 -1.99762,-0.21726 -3.24085,-0.10863l-1.01389,0.12674v-1.48464c1.93166,-0.56772 3.77237,-0.97207 5.52212,-1.21305c0.57937,-0.04828 0.95354,-0.08449 1.12253,-0.10863c0.15692,-0.04828 0.44056,-0.13881 0.85095,-0.27158l-0.16295,-1.72001l0.68801,-0.05431l-0.12674,-2.08212h-0.07242l-0.85095,-9.37855c-0.2414,-0.2052 -0.50091,-0.39228 -0.77853,-0.56127c-0.16899,-0.08449 -0.33193,-0.15088 -0.48884,-0.19916c-0.2052,-0.03621 -0.40435,-0.06639 -0.59748,-0.09053c-0.2052,-0.03621 -0.40435,-0.06036 -0.59748,-0.07243c-0.22933,-0.02414 -0.45263,-0.04828 -0.66989,-0.07242c-0.21726,-0.01207 -0.42849,-0.0181 -0.63369,-0.0181c-0.25347,0 -0.49488,0 -0.72421,0c-0.25347,0 -0.50091,0.00603 -0.74232,0.0181c-0.26554,0.01207 -0.52506,0.01811 -0.77853,0.01811l-0.95958,0.07242v-7.26023c0.21519,-0.01179 0.3721,-0.02385 0.47073,-0.03621c0.2052,0 0.60351,0.01207 1.19495,0.03621c0.16899,0.06035 0.33193,0.12071 0.48885,0.18106l0.27158,-0.03621c0.14635,0.04682 0.2912,0.0951 0.43453,0.14484l0.97769,0.45264c2.18471,1.0139 3.97713,2.27524 5.37728,3.78401c1.36394,1.68983 2.42007,3.58486 3.16843,5.68507z" fill="#f5f7f9"/><path d="M268.12639,147.53976l-0.68801,0.05431l0.16295,1.72001c-0.41039,0.13277 -0.69403,0.2233 -0.85095,0.27158c-0.16899,0.02414 -0.54316,0.06035 -1.12253,0.10863c-1.74975,0.24098 -3.59046,0.64533 -5.52212,1.21305v-4.97896c0.09618,0.00316 0.19275,0.00316 0.28969,0l3.15033,-0.05432c0.50695,-0.02414 0.85094,-0.04225 1.032,-0.05432c0.19313,-0.02414 0.61559,-0.08449 1.26738,-0.18105l2.08211,-0.18106h0.07242z" fill="#992a3f"/><path d="M261.84384,135.0833c0.2414,-0.01207 0.48884,-0.0181 0.74232,-0.0181c0.22933,0 0.47074,0 0.72421,0c0.2052,0 0.41642,0.00603 0.63369,0.0181c0.21726,0.02414 0.44056,0.04828 0.66989,0.07242c0.19313,0.01207 0.39228,0.03621 0.59748,0.07243c0.19313,0.02414 0.39228,0.05432 0.59748,0.09053c0.15692,0.04828 0.31986,0.11467 0.48884,0.19916c0.27762,0.16898 0.53713,0.35607 0.77853,0.56127l0.85095,9.37855l-2.08211,0.18106l-0.10864,-1.3579c-0.13277,-0.01207 -0.25347,-0.01207 -0.3621,0c-0.26554,0 -0.52506,0.01207 -0.77853,0.03621c-0.27762,0.02414 -0.55523,0.04829 -0.83285,0.07243c-0.30176,0.03621 -0.59747,0.07242 -0.88716,0.10863c-0.31383,0.02414 -0.62161,0.05431 -0.92337,0.09052c-0.61417,0.0819 -1.22975,0.16036 -1.84674,0.23537v-9.65014l0.95958,-0.07242c0.25347,0 0.51299,-0.00604 0.77853,-0.01811z" fill="#110f1a"/><path d="M263.4009,122.91653c0.10816,0.47942 0.19869,0.97429 0.27158,1.48464l0.18105,0.74231c-0.11085,-0.23593 -0.18327,-0.40492 -0.21726,-0.50695c-0.04828,-0.15691 -0.1026,-0.47677 -0.16295,-0.95958l-0.07242,-0.76042M260.64889,108.23311c0.37417,4.85223 1.11649,9.0768 2.22695,12.67373c0.12442,0.37757 0.2391,0.76382 0.34401,1.15874l-0.23537,0.03621c0.30176,1.09839 0.48281,1.90105 0.54316,2.408c0.09656,0.85698 0.06639,1.67172 -0.09053,2.44422c-1.02597,0.37417 -1.76828,0.61558 -2.22695,0.72421l0.01811,0.16295c0.42982,0.02744 0.86433,0.09986 1.30358,0.21726l-0.27158,0.03621c-0.15692,-0.06035 -0.31986,-0.12071 -0.48885,-0.18106c-0.59144,-0.02414 -0.98976,-0.03621 -1.19495,-0.03621c-0.09864,0.01235 -0.25554,0.02442 -0.47073,0.03621v-1.91916c0.15649,-0.0241 0.30737,-0.04823 0.45263,-0.07242l0.65179,-0.76042c-0.02414,-0.92941 -0.20519,-2.05796 -0.54316,-3.38569c-0.19911,-0.72007 -0.3862,-1.44428 -0.56126,-2.17264v-16.91036c0.15211,0.70738 0.26074,1.51005 0.3259,2.40801z" fill="#7e1a34"/><path d="M263.34658,122.06558l0.05431,0.85095l0.07242,0.76042c0.06035,0.48281 0.11467,0.80267 0.16295,0.95958c0.034,0.10203 0.10641,0.27101 0.21726,0.50695c0.048,0.10453 0.10231,0.2192 0.16295,0.34401c0.62765,0.45867 1.52688,0.91733 2.6977,1.376c1.21909,0.53109 2.36576,1.35187 3.44001,2.46233c0.79663,0.84491 1.65362,1.98555 2.57096,3.42191c1.56912,2.92099 2.66751,6.35496 3.29516,10.30192c0.3621,2.3899 0.63368,5.9989 0.81474,10.82698l0.3259,9.1794c0.25347,6.65069 0.42849,12.44439 0.52506,17.3811c0.14484,6.55412 0.49488,13.68762 1.05011,21.40049c0.42246,5.9144 1.02596,13.03583 1.81053,21.36428l0.688,6.73517c0.55523,5.78163 0.82078,9.30613 0.79664,10.5735c-0.04828,1.24323 -0.47074,2.70373 -1.26737,4.38149c-0.97769,1.38807 -1.90106,2.45025 -2.77011,3.18653c-0.98976,0.85699 -2.22092,1.54498 -3.69349,2.06401c-2.40197,0.62765 -5.17812,1.11649 -8.32844,1.46653c-1.23611,0.13942 -3.19148,0.30841 -5.86612,0.50695v-2.7339l9.95792,-0.90527c2.03591,-0.24343 3.62314,-0.50294 4.7617,-0.77853c0.10868,-0.02315 0.21128,-0.04729 0.30779,-0.07242l0.05431,-0.14484l0.50695,-1.30358l1.57516,-1.90106c0.67593,-0.79664 1.09235,-1.34582 1.24927,-1.64758c0.16899,-0.30176 0.42246,-0.93544 0.76042,-1.90106c0.01207,-1.02597 -0.07242,-2.56492 -0.25348,-4.61685l-0.94148,-10.73646c-0.72422,-8.28017 -1.28547,-15.16622 -1.68379,-20.65816c-0.51902,-7.51974 -0.89319,-14.41787 -1.12253,-20.69438l-0.3259,-10.1933c0,-0.688 0.03018,-1.3941 0.09053,-2.11832c0.06035,-0.92941 0.06638,-1.94934 0.0181,-3.0598l-0.41643,-10.86319c-0.21726,-5.29882 -0.45867,-9.4208 -0.72421,-12.36593l-0.09052,-0.92337c-0.2414,-2.3899 -0.68801,-4.51426 -1.3398,-6.37307c-0.74836,-2.10021 -1.80449,-3.99524 -3.16843,-5.68507c-1.40015,-1.50877 -3.19257,-2.77011 -5.37728,-3.78401l-0.97769,-0.45264c-0.14333,-0.04974 -0.28818,-0.09802 -0.43453,-0.14484c-0.43925,-0.1174 -0.87376,-0.18982 -1.30358,-0.21726l-0.01811,-0.16295c0.45867,-0.10863 1.20099,-0.35004 2.22695,-0.72421c0.15692,-0.7725 0.18709,-1.58724 0.09053,-2.44422c-0.06035,-0.50695 -0.2414,-1.30961 -0.54316,-2.408l0.23537,-0.03621z" fill="#706c84"/><path d="M261.21015,125.16158l-0.65179,0.76042c-0.14526,0.02419 -0.29614,0.04833 -0.45263,0.07242v-6.39118c0.17507,0.72836 0.36215,1.45257 0.56126,2.17264c0.33796,1.32773 0.51902,2.45628 0.54316,3.38569z" fill="#e21f2d"/></g><path d="M260.10573,214.18542c0.47291,0.03706 0.79277,0.03706 0.95958,0l-0.0181,1.79243c0,0.28968 -0.02414,0.50092 -0.07242,0.63369c-0.07242,0.26555 -0.24744,0.48884 -0.52506,0.66989c-0.09751,0.06785 -0.21217,0.1282 -0.344,0.18105v-3.27706M260.10573,210.83594h1.90105v2.46232l-1.90105,0.0181v-2.48042M270.86028,181.36049c-1.35186,0 -2.86064,0.03017 -4.52633,0.09052l-0.05432,1.19495c-0.02414,0.26555 -0.06638,0.45263 -0.12673,0.56126c-0.15692,0.27761 -0.54919,0.41643 -1.17684,0.41643l-4.87033,-0.03621v-5.7756c0.61228,0.00952 1.29424,0.02764 2.0459,0.05432c0.55523,0 1.03804,0.03017 1.44842,0.09052c0.30176,0.03621 0.76646,0.10863 1.39411,0.21726c0.31383,0.03621 0.99579,0.06035 2.0459,0.07242c0.85699,0 1.53291,0.06639 2.02779,0.19916c0.2052,0.06035 0.50092,0.15088 0.88716,0.27158c0.35003,0.10863 0.65179,0.16295 0.90526,0.16295v2.48043M264.10701,257.92787c1.61741,-0.03621 2.80028,-0.03621 3.54864,0c1.30358,0.04828 2.46232,0.2052 3.47622,0.47074c0.3259,0.08449 0.8087,0.21726 1.44842,0.39832c0.18106,0.03621 0.57334,0.09656 1.17685,0.18106c0.48281,0.07242 0.86906,0.15088 1.15874,0.23537l0.0181,2.0459c0,0.30176 -0.04828,0.51902 -0.14484,0.65179c-0.1207,0.18106 -0.35607,0.29572 -0.70611,0.344c-0.27762,0.03621 -0.71214,0.05431 -1.30358,0.05431h-12.47456v-3.65727c0,-0.43453 0.01811,-0.75439 0.05432,-0.95959c0.06035,-0.30176 0.23537,-0.70007 0.52505,-1.19495c0.19313,-0.33796 0.63972,-1.03803 1.33979,-2.10021l1.14064,-1.72001c0.38624,-0.59144 0.66386,-1.05011 0.83284,-1.376c0.26554,-0.51902 0.42849,-1.01389 0.48885,-1.48463l2.48043,0.03621c-0.02414,0.26555 -0.0181,0.81474 0.0181,1.64759c0.02414,0.67593 -0.02414,1.20702 -0.14484,1.59327c-0.10863,0.38625 -0.40435,0.91734 -0.88716,1.59327c-0.73629,1.07425 -1.41825,2.15453 -2.0459,3.24085M296.71468,196.58706c0.50695,0.49488 0.85095,1.17685 1.03201,2.0459c0.1207,0.57937 0.18709,1.38204 0.19916,2.40801c0,0.65179 -0.01207,1.11649 -0.03621,1.39411c-0.03621,0.50695 -0.13277,0.94752 -0.28969,1.32169c-0.2052,0.51902 -0.53713,1.02596 -0.99579,1.52084c-0.31383,0.33796 -0.77853,0.75439 -1.39411,1.24927c-1.66569,1.36393 -2.88477,2.34766 -3.65727,2.95117c-1.37601,1.06218 -2.65545,1.95537 -3.83833,2.67959c-1.09839,0.70007 -2.58302,1.52689 -4.45391,2.48043c-1.2553,0.65179 -2.30541,1.10442 -3.15033,1.3579c-1.20702,0.36211 -2.31145,0.45867 -3.31327,0.28968v-2.44422c2.88478,-1.29152 5.00913,-2.29937 6.37307,-3.02358c2.31748,-1.21909 4.27889,-2.4925 5.88423,-3.82022l1.72001,-1.50274c0.67593,-0.60351 1.26133,-1.08029 1.75621,-1.43032c0.39832,-0.27761 0.69403,-0.48884 0.88716,-0.63368c0.33796,-0.25348 0.60955,-0.48885 0.81474,-0.70611c0.57937,-0.62765 0.86302,-1.2734 0.85095,-1.93726c-0.03621,-0.688 -0.38021,-1.30358 -1.032,-1.84674c-0.41039,-0.3259 -1.04407,-0.67593 -1.90105,-1.05011l-3.53054,-1.55705c-1.42428,-0.60351 -2.34162,-0.98372 -2.752,-1.14064c-1.03804,-0.41038 -1.97348,-0.71818 -2.80633,-0.92337c-0.94148,-0.22933 -2.3899,-0.45264 -4.34527,-0.6699c-0.45867,-0.04828 -0.77249,-0.15691 -0.94148,-0.3259c-0.16899,-0.15691 -0.28968,-0.45263 -0.3621,-0.88716c-0.72422,-4.45391 -1.05011,-8.95006 -0.97769,-13.48846l2.49853,0.01811c0.07242,3.51243 0.38625,7.08521 0.94148,10.71835c0.07242,0.4466 0.18708,0.76042 0.344,0.94147c0.14484,0.18105 0.3621,0.31383 0.65179,0.39831c0.16899,0.04828 0.44057,0.09053 0.81474,0.12674c2.08814,0.18105 4.36338,0.72421 6.8257,1.62947c1.52085,0.55523 3.68142,1.49671 6.48171,2.82443c0.77249,0.35003 1.33979,0.69404 1.70189,1.032z" fill="#000000"/></g></g></svg>