<svg version="1.1" xmlns="http://www.w3.org/2000/svg" xmlns:xlink="http://www.w3.org/1999/xlink" width="87.93752" height="167.8887" viewBox="0,0,87.93752,167.8887"><g transform="translate(-273.9744,-96.31384)"><g data-paper-data="{&quot;isPaintingLayer&quot;:true}" fill-rule="nonzero" stroke="none" stroke-width="1" stroke-linecap="butt" stroke-linejoin="miter" stroke-miterlimit="10" stroke-dasharray="" stroke-dashoffset="0" style="mix-blend-mode: normal"><g><g fill="#f5f7f9"><g><g><path d="M299.08481,130.30612c1.28582,-0.09367 3.21824,-0.25784 5.79724,-0.4925l16.71044,-1.46799c1.79469,-0.13998 3.36019,-0.04337 4.69651,0.28981c1.31109,0.31215 2.74364,0.93393 4.29764,1.86532c2.61175,1.66307 4.6001,4.22826 5.96506,7.69559c0.87178,2.40443 1.44026,5.06383 1.70544,7.97822l0.0742,1.00774c0.24519,2.82292 0.47421,7.06993 0.68703,12.74103l0.41402,10.50951c-0.00101,0.50151 -0.04666,1.53764 -0.13696,3.1084l0.06335,3.38752c0.03798,1.69902 0.12493,4.32062 0.26084,7.86479l0.02688,0.87211c0.21812,6.11373 0.59294,12.86037 1.12447,20.23993c0.38206,5.22425 0.93615,11.95458 1.66225,20.191l1.0481,11.71118c0.10524,1.28477 0.10743,2.33404 0.00656,3.14782c-0.12608,1.04928 -0.4451,2.02866 -0.95704,2.93814l-2.67597,3.84667c-0.65601,0.60775 -1.55858,1.06885 -2.70771,1.3833c-0.55827,0.14408 -1.57967,0.32447 -3.06419,0.54118l-24.68716,2.22877c-6.60469,0.58929 -10.59463,0.8882 -11.96983,0.89672c-1.37625,-0.00304 -2.88342,-0.29153 -4.52151,-0.86545c-1.4941,-1.17006 -2.56662,-2.70498 -3.21757,-4.60477c-0.18514,-1.26584 -0.32244,-2.45441 -0.4119,-3.56571l-0.64875,-7.32225c-0.60299,-7.01157 -1.43915,-17.54681 -2.50846,-31.60571l-0.49571,-6.40914c-0.96617,-12.66899 -1.64979,-22.16863 -2.05087,-28.49893c-0.17791,-2.85237 -0.4505,-6.42492 -0.81777,-10.71765l-1.15228,-12.85612c-0.11262,-1.49399 -0.03808,-2.85343 0.22362,-4.0783c0.25959,-1.248 0.74312,-2.53387 1.45059,-3.85761c0.87044,-1.19864 2.01267,-2.35787 3.42668,-3.47769c0.83895,-0.64771 2.18831,-1.58092 4.0481,-2.79961l0.85314,-0.61985c0.64447,-0.35016 1.33362,-0.59361 2.06747,-0.73034c0.41318,-0.07258 1.14704,-0.14518 2.20156,-0.21781z"/></g></g></g><g fill="#7e1a34"><g><g><path d="M326.86499,121.69932c0.33473,1.06997 0.59477,2.23276 0.78012,3.48836l0.37666,1.56177c0.11274,0.10816 0.21884,0.20517 0.31829,0.29102l0.13728,1.63175l-2.23851,0.19929c-0.16725,-0.05758 -0.32828,-0.1098 -0.48309,-0.15666c-0.59577,-0.02612 -0.99832,-0.03732 -1.20764,-0.03359c-0.19774,0.00287 -0.61426,0.03928 -1.24955,0.10921l-13.3332,1.10124c-2.20053,0.16157 -4.39978,0.34052 -6.59775,0.53683c-2.38413,0.19834 -4.17308,0.33552 -5.36685,0.41152l-3.72028,0.23823c-0.82623,0.16546 -1.65681,0.43022 -2.49175,0.79427c-0.10168,0.0424 -0.20873,0.09101 -0.32115,0.14584l-0.22353,-2.56859c-0.00373,-0.20932 -0.0083,-0.43022 -0.01373,-0.66271c0.0036,-0.26808 -0.01101,-0.54647 -0.04385,-0.83516c-0.03288,-1.5579 0.13257,-3.03139 0.49634,-4.42047c0.28473,-1.19697 0.45204,-2.56579 0.50193,-4.10648c0.01677,-0.72317 -0.00336,-2.10734 -0.06037,-4.15253c-0.03701,-1.13841 -0.02976,-2.07047 0.02175,-2.79619c0.05597,-0.98222 0.19147,-1.91205 0.4065,-2.78951l-8.37868,0.54533c-0.50227,-0.02134 -0.85976,-0.05331 -1.07248,-0.09592c-0.21357,-0.05418 -0.68014,-0.2237 -1.39971,-0.50855c-0.31708,-0.51235 -0.52318,-1.1784 -0.6183,-1.99815c-0.06973,-0.9497 -0.12203,-1.66198 -0.15689,-2.13683l-0.0888,-0.97159c-0.11075,-1.19122 -0.15854,-1.92129 -0.14335,-2.19022c0.0036,-0.26808 0.08897,-0.61203 0.2561,-1.03184c1.1945,-0.54183 2.58025,-1.01619 4.15727,-1.42308c1.05021,-0.28671 2.48219,-0.60726 4.29595,-0.96168l1.22197,-0.24692c5.43138,-1.03922 11.17654,-1.76963 17.23547,-2.19121l1.35378,-0.11687c1.91268,-0.11715 3.67316,-0.00771 5.28144,0.32833c1.61986,0.33519 3.27622,0.92968 4.9691,1.78349l1.19634,0.59334c0.73147,0.44699 1.32311,0.8926 1.77491,1.33684c0.4908,0.49959 0.91892,1.09694 1.28435,1.79205c0.35024,0.96404 0.57485,2.19929 0.67382,3.70576l0.21223,3.12834c0.39105,4.85019 1.14367,9.07415 2.25786,12.6719z"/></g></g></g><g fill="#706c84"><g><g><path d="M340.79576,154.66574l0.32477,9.18086c0.26721,6.65248 0.44791,12.44382 0.54209,17.37403c0.14374,6.55675 0.48721,13.69268 1.0304,21.4078c0.42296,5.91911 1.03323,13.04127 1.83081,21.3665l0.66992,6.74517c0.56417,5.78065 0.82847,9.30107 0.79292,10.56125c-0.03726,1.23702 -0.45426,2.69404 -1.25102,4.37108c-0.98016,1.3994 -1.90348,2.46277 -2.76996,3.19011c-0.99611,0.86494 -2.2263,1.55494 -3.69058,2.07c-2.41058,0.63112 -5.19252,1.12066 -8.34582,1.46863c-1.59402,0.17526 -4.40711,0.39927 -8.43924,0.67204l-23.9445,1.68824c-1.174,0.02798 -2.17811,-0.00891 -3.01232,-0.11068c-1.05766,-0.13194 -2.03654,-0.38028 -2.93663,-0.74502c-1.5709,-1.09565 -2.72901,-2.43703 -3.47432,-4.02413c-0.38956,-1.18239 -0.67374,-2.83246 -0.85252,-4.95021l-0.61956,-7.01086c-0.3819,-4.40838 -0.81288,-10.19881 -1.29294,-17.37129c-0.28925,-4.41518 -0.70889,-9.49615 -1.25893,-15.24291c-0.30727,-3.07478 -0.50132,-5.79691 -0.58214,-8.16638c-0.07933,-2.0319 -0.21636,-4.37396 -0.41109,-7.02617c-0.05017,-0.68332 -0.23353,-3.02198 -0.55007,-7.01597l-0.53683,-6.59775c-0.42029,-5.40696 -0.75394,-9.47538 -1.00096,-12.20526l-1.42013,-17.67635c-0.14456,-1.96889 -0.10291,-3.70111 0.12496,-5.19664c0.27525,-1.80177 0.83092,-3.43199 1.66699,-4.89068c1.03466,-1.44998 2.4137,-2.8088 4.13711,-4.07647c1.20373,-0.89183 2.85686,-1.92727 4.95939,-3.10634l0.69363,-0.0684l-0.14493,-1.73598l0.34745,-0.02551c0.08378,1.7754 0.12652,2.67469 0.12822,2.69785l0.17901,0.77284c0.41556,0.10922 0.77689,0.19331 1.08396,0.25227l-1.13669,0.69478c-2.67501,1.62864 -4.38291,2.79037 -5.1237,3.48519c-0.74079,0.69482 -1.99773,2.28921 -3.77083,4.78316l-0.46584,1.02978c-0.23394,0.93707 -0.33905,1.96365 -0.31533,3.07974c0.00947,0.6048 0.07979,1.64179 0.21095,3.11097l1.07494,13.21287c0.25754,3.03186 0.51213,6.65778 0.76376,10.87778c0.33974,5.2615 1.03663,14.75271 2.09065,28.47364l2.02572,26.39993c0.0946,0.97116 0.20796,2.43582 0.34009,4.39398l1.13823,13.83701c0.10395,1.09856 0.32228,2.08975 0.65499,2.97357c0.31432,0.79201 0.79351,1.68836 1.43754,2.68905c0.54393,0.58885 1.02214,0.99621 1.43463,1.2221c0.41504,0.26063 1.00082,0.46797 1.75736,0.62202c2.16165,0.26047 4.74767,0.27437 7.75807,0.04169c1.73726,-0.12756 4.32152,-0.37552 7.75278,-0.7439l23.63083,-2.15426c2.22762,-0.26836 3.91822,-0.55551 5.07182,-0.86145l0.55811,-1.43828l1.58978,-1.89828c0.66279,-0.80553 1.07621,-1.35988 1.24026,-1.66303c0.17648,-0.29242 0.42717,-0.92214 0.75207,-1.88917c0.01782,-1.02599 -0.06633,-2.56849 -0.25244,-4.62748l-0.92856,-10.74342c-0.72384,-8.27242 -1.2815,-15.15392 -1.673,-20.6445c-0.52873,-7.51823 -0.90731,-14.41871 -1.13573,-20.70142l-0.32926,-10.19357c0.00774,-0.68757 0.03779,-1.38843 0.09015,-2.10257c0.05937,-0.93589 0.06561,-1.96103 0.01872,-3.07543l-0.43113,-10.86727c-0.2132,-5.28243 -0.45181,-9.40441 -0.71583,-12.36593l-0.08498,-0.91947c-0.23309,-2.38158 -0.67995,-4.50294 -1.34059,-6.36407c-0.74799,-2.09925 -1.80666,-3.98938 -3.17601,-5.67039c-1.39219,-1.51632 -3.17938,-2.78239 -5.36155,-3.79823l-0.99376,-0.45102c-0.59077,-0.20643 -1.17018,-0.3269 -1.73823,-0.36143l-0.01403,-0.1911c0.458,-0.09153 1.20342,-0.32675 2.23626,-0.70565c0.16478,-0.76897 0.19254,-1.58028 0.08328,-2.43392c-0.06143,-0.51948 -0.2372,-1.32748 -0.52731,-2.42402l0.34745,-0.02551l0.11863,1.61565c0.07046,0.48388 0.12859,0.79983 0.17439,0.94784c0.0458,0.14801 0.17172,0.43569 0.37776,0.86304c0.62723,0.45464 1.52255,0.91289 2.68594,1.37475c1.23799,0.52624 2.38678,1.34431 3.44638,2.45422c0.80756,0.84895 1.66576,1.99111 2.57459,3.42647c1.57616,2.91175 2.67222,6.34199 3.28819,10.2907c0.37462,2.40612 0.64573,6.01919 0.81333,10.83921z"/></g></g></g><g fill="#110f1a"><g><g><path d="M289.53165,138.92394c0.19345,-0.05258 0.39268,-0.10569 0.59769,-0.15933c0.0347,-0.00316 0.07517,-0.00684 0.12143,-0.01105c0.04626,-0.00421 0.0983,-0.00894 0.15613,-0.01421c0.06939,-0.00631 0.14456,-0.01315 0.22552,-0.02052c0.08096,-0.00737 0.16769,-0.01526 0.26021,-0.02368c0.11565,-0.01052 0.2313,-0.02105 0.34695,-0.03157c0.12722,-0.01158 0.25443,-0.02315 0.38165,-0.03473c0.15035,-0.01368 0.30069,-0.02736 0.45104,-0.04104c0.16191,-0.01473 0.3296,-0.02999 0.50308,-0.04577l32.46677,-2.65677c0.25548,-0.01159 0.51675,-0.0237 0.7838,-0.03633c0.24392,-0.01053 0.48836,-0.01528 0.73333,-0.01425c0.23341,0.00208 0.47312,0.00942 0.71914,0.02202c0.20922,-0.00738 0.42528,-0.00371 0.64817,0.01099c0.21133,0.01575 0.42896,0.03676 0.65291,0.06303c0.19976,0.01681 0.40583,0.03887 0.61821,0.06619c0.18925,0.02942 0.38481,0.0641 0.58668,0.10404c0.16717,0.04309 0.33014,0.10406 0.4889,0.1829c0.27232,0.17346 0.53465,0.36531 0.787,0.57557l0.32193,2.57689l0.69301,8.57759l-3.36543,0.30622l-0.13575,-1.49189c0.04205,-0.05047 0.09777,-0.07886 0.16716,-0.08517c0.05362,-0.05152 0.11459,-0.08622 0.18293,-0.1041c0.07885,-0.0305 0.15823,-0.05521 0.23813,-0.07414c0.10303,-0.02104 0.20607,-0.04207 0.3091,-0.06311c0.11355,-0.03365 0.2334,-0.06205 0.35956,-0.08519l-0.12312,-1.35311c-0.11775,-0.01261 -0.23446,-0.01365 -0.35011,-0.00313c-0.2681,0.00107 -0.52937,0.01318 -0.7838,0.03633c-0.27756,0.02526 -0.55512,0.05051 -0.83268,0.07577c-0.30069,0.02736 -0.59507,0.05998 -0.88315,0.09785c-0.31226,0.02841 -0.6182,0.06208 -0.91784,0.101c-1.27951,0.16306 -2.55324,0.3256 -3.82118,0.48762c-0.19555,0.02945 -0.39058,0.06469 -0.58508,0.10571c-0.2313,0.02105 -0.46208,0.04787 -0.69232,0.08049c-0.25338,0.03472 -0.50676,0.06943 -0.76014,0.10415c-0.27756,0.02526 -0.55512,0.05051 -0.83268,0.07577c-0.29964,0.03892 -0.59928,0.07785 -0.89892,0.11677c-0.33539,0.03052 -0.66446,0.06629 -0.98723,0.10732c-0.3459,0.04313 -0.6918,0.08627 -1.0377,0.1294c-0.38165,0.03473 -0.76329,0.06945 -1.14494,0.10418c-0.266,0.0242 -0.53147,0.05419 -0.79641,0.08996c-0.16191,0.01473 -0.31804,0.02894 -0.46838,0.04262c-0.18609,0.00527 -0.36588,0.0158 -0.53935,0.03158c-0.40583,0.02527 -0.81113,0.05631 -1.21591,0.09314c-0.72335,-0.00415 -1.42619,0.02482 -2.10853,0.08691c-0.62451,0.05682 -1.24955,0.10787 -1.87512,0.15312c-0.63713,0.04631 -1.27321,0.10419 -1.90823,0.17363c-1.30475,0.14204 -2.60318,0.28933 -3.89531,0.44189l-12.52494,1.13963c-0.20187,-0.03994 -0.39375,-0.09827 -0.57564,-0.17501c-0.08201,-0.0042 -0.1535,-0.02102 -0.21448,-0.05045c-0.06098,-0.02943 -0.12196,-0.05887 -0.18295,-0.0883c-0.0368,-0.01997 -0.0736,-0.03995 -0.1104,-0.05992c-0.0368,-0.01997 -0.06782,-0.04047 -0.09305,-0.0615c-0.01262,-0.01051 -0.02523,-0.02103 -0.03785,-0.03154c-0.02734,-0.04416 -0.05415,-0.08253 -0.08044,-0.11512c-0.04206,-0.0778 -0.07729,-0.14456 -0.10568,-0.20028c-0.05468,-0.08831 -0.09832,-0.18346 -0.13092,-0.28544c-0.09991,-0.32907 -0.18299,-0.66551 -0.24926,-1.0093c-0.07888,-0.35431 -0.14567,-0.70388 -0.20037,-1.04873c-0.0547,-0.34485 -0.09731,-0.68496 -0.12782,-1.02035c-0.04313,-0.3459 -0.06892,-0.69338 -0.07736,-1.04243c-0.01895,-0.33644 -0.02003,-0.66867 -0.00323,-0.9967c0.03254,-0.66763 0.08243,-1.33683 0.14966,-2.00761c0.03887,-0.3417 0.08406,-0.67814 0.13555,-1.00933c0.16506,-0.1083 0.33011,-0.21661 0.49517,-0.32491c0.16611,-0.09674 0.33853,-0.18822 0.51725,-0.27445c0.19134,-0.07571 0.38321,-0.14565 0.57561,-0.20979z"/></g></g></g><g fill="#e21f2d"><g><g><path d="M324.63631,122.55549c0.34285,1.33312 0.52168,2.46543 0.53647,3.39695l-0.63076,0.75704c-0.80429,0.13149 -1.77312,0.24879 -2.9065,0.35192l-27.97216,2.45771c0.02089,-1.69272 0.04762,-2.74462 0.08018,-3.15571c0.03151,-0.42266 0.13765,-1.05033 0.31842,-1.88304c0.30162,-1.55501 0.42079,-3.57734 0.35751,-6.06699c-0.07279,-3.10681 0.04266,-5.61855 0.34636,-7.53523l0.94615,-1.13556c0.5036,-0.10413 0.85318,-0.17092 1.04873,-0.20037c0.19555,-0.02945 0.61137,-0.07312 1.24745,-0.131l20.85493,-1.86259c1.04822,-0.01375 2.02601,0.15965 2.93338,0.5202c0.22082,0.37637 0.37803,0.75854 0.47163,1.14649c0.04207,0.20607 0.0973,0.62083 0.16569,1.24429l0.25566,2.2331c0.41451,3.40222 1.06347,6.68981 1.94688,9.86279z"/></g></g></g><g fill="#9daeea"><g><g><path d="M333.70769,180.16288l-0.38791,0.90179c-1.92755,0.54907 -4.24091,0.75969 -6.9401,0.63183l-0.41585,-0.66812c-0.97201,0.08301 -1.93074,0.18834 -2.87619,0.31598l-2.87109,0.38547c-0.70308,0.0982 -2.80994,0.34605 -6.32058,0.74354c-2.49315,0.2995 -4.35057,0.53485 -5.57228,0.70607c-1.59062,0.22159 -3.3852,0.44068 -5.38374,0.65729c-0.92314,0.11436 -1.60885,0.21128 -2.05713,0.29077c-1.93552,0.28184 -3.14284,0.41124 -3.62194,0.3882c-0.4791,-0.02304 -1.2002,-0.24956 -2.16331,-0.67954c-0.97812,-1.74467 -1.32065,-4.03088 -1.02758,-6.85864c0.03952,-0.09606 2.13199,-0.30209 6.27739,-0.61811c5.31431,-0.41349 8.1336,-0.63213 8.45789,-0.65595l3.08722,-0.29654c3.7937,-0.34841 7.06478,-0.75743 9.81326,-1.22705c1.64513,-0.27217 3.57162,-0.51841 5.77948,-0.73875l3.25711,-0.36141l0.81189,0.11505c0.59091,0.91143 1.05464,2.15242 1.39119,3.72296l0.35705,1.05669c0.14505,0.54827 0.23596,0.91421 0.27273,1.09781c0.02519,0.18446 0.06935,0.54801 0.13248,1.09065z"/></g></g></g><g fill="#9daeea"><g><g><path d="M322.91191,239.04558c-2.27726,0.21887 -4.82893,0.49768 -7.65499,0.83645c-2.45704,0.29353 -4.92302,0.55289 -7.39794,0.77808l-2.82134,0.32668c-3.009,0.37873 -4.83996,0.56865 -5.49286,0.56976c-0.66447,0.00216 -1.46195,-0.17599 -2.39245,-0.53443c-0.4574,-0.66969 -0.73815,-1.12807 -0.84226,-1.37513c-0.09359,-0.25968 -0.22558,-0.81322 -0.39597,-1.66062c0.0504,-0.85582 0.10397,-1.42042 0.16073,-1.69378c0.0578,-0.2618 0.22756,-0.767 0.50927,-1.5156c0.77062,-0.50157 1.6916,-0.82441 2.76294,-0.96854c0.43737,-0.06312 1.43512,-0.11892 2.99325,-0.16741l1.82307,-0.14839c1.08817,-0.08735 2.72357,-0.18368 4.90622,-0.28899c1.62437,-0.0895 3.22928,-0.20054 4.81475,-0.33314c1.88826,-0.13683 3.79544,-0.25789 5.72155,-0.36318c3.58728,-0.17481 6.5227,-0.40109 8.80626,-0.67884l5.76411,-0.6644c1.72739,-0.2388 2.80662,-0.36032 3.23768,-0.36456c0.42055,0.00838 1.04613,0.15552 1.87674,0.44143c0.34702,0.86631 0.55264,1.78046 0.61685,2.74246c0.04527,0.75383 0.00802,1.69008 -0.11175,2.80876l-0.31538,0.37852c-1.46139,0.2146 -2.76982,0.38029 -3.92527,0.49709l-1.24587,0.14834c-2.53905,0.28933 -6.33816,0.69914 -11.39733,1.22944z"/></g></g></g><g fill="#992a3f"><g><g><path d="M331.56598,150.10671c-0.39636,0.12935 -0.67444,0.21296 -0.83425,0.25082c-0.16086,0.0263 -0.53041,0.06575 -1.10867,0.11837c-2.02808,0.26616 -4.16969,0.75837 -6.42483,1.47664l-4.82727,1.54117c-4.3284,1.385 -7.0288,2.14379 -8.10119,2.27634c-1.0829,0.14518 -2.69363,-0.06392 -4.83217,-0.62729c-2.03865,-0.49083 -3.97636,-0.70516 -5.8131,-0.64298c-1.2585,0.00956 -2.62214,-0.17537 -4.09094,-0.5548c-0.9778,-0.23753 -2.29836,-0.65377 -3.96168,-1.24872l-1.81207,-0.30738l-1.4052,-0.44935c-0.18719,-0.51936 -0.28867,-0.86578 -0.30446,-1.03926c-0.01578,-0.17348 0.02256,-0.52096 0.11504,-1.04245c0.9315,-0.27133 1.91925,-0.437 2.96326,-0.49701l17.09682,-1.45068c3.31917,-0.30201 6.63413,-0.58614 9.94489,-0.8524l0.99039,-0.07262c1.62016,-0.13576 3.3607,-0.22999 5.22163,-0.28271l3.14308,-0.0586c0.50045,-0.01055 0.8432,-0.02425 1.02824,-0.04109c0.19661,-0.01789 0.62241,-0.07995 1.27741,-0.18619l2.13375,-0.19415l0.14047,1.35153l-0.0031,0.73491l-0.6939,0.06314z"/></g></g></g><g fill="#df202e"><g><g><path d="M315.77084,99.54261c0.00737,0.08096 0.84956,0.62235 2.52658,1.62417c1.74328,1.21735 2.77319,2.41216 3.08975,3.58442c0.05153,0.18188 0.10359,0.36955 0.15617,0.563l-25.64282,2.68304l-0.44166,-1.00928l-11.82791,0.72639c-0.79285,-1.40878 -1.0453,-2.90171 -0.75735,-4.4788c10.6196,-4.26627 21.58534,-5.49725 32.89723,-3.69294z"/></g></g></g><g fill="#f1f3f7"><g><g><path d="M330.70548,156.1104c0.28501,1.08184 0.46805,2.38869 0.54913,3.92053l0.09313,1.02351c0.06631,0.98513 0.06217,1.70848 -0.01244,2.17004c-0.11035,0.58142 -0.39364,1.24854 -0.84988,2.00136l-0.22068,1.41937c-1.05133,0.62039 -2.37865,1.09099 -3.98197,1.41179c-0.75593,0.15041 -2.1616,0.33661 -4.21702,0.55861l-0.95096,0.12151c-0.82112,0.07471 -1.47402,0.07582 -1.95871,0.00331c-0.59088,-0.08617 -1.21068,-0.29797 -1.85941,-0.63541c-0.81277,-0.73064 -1.31011,-1.19846 -1.49201,-1.40347c-0.17139,-0.21762 -0.39799,-0.59347 -0.6798,-1.12755c-0.14725,-0.72123 -0.23823,-1.20854 -0.27295,-1.46192c-0.03472,-0.25338 -0.08943,-0.79063 -0.16414,-1.61174l-0.1673,-1.64644c0.00835,-0.80535 0.10029,-1.46089 0.27583,-1.96662c0.16608,-0.48154 0.48565,-1.07034 0.95871,-1.76639l0.56925,-0.85639c0.97664,-1.05671 2.13204,-1.81484 3.4662,-2.2744c0.88208,-0.30181 2.252,-0.56056 4.10976,-0.77624l1.19382,-0.14361c1.24902,-0.11365 2.33089,-0.07799 3.2456,0.10698c0.55936,0.38055 1.02989,0.81 1.41157,1.28835c0.32911,0.41316 0.6472,0.96143 0.95425,1.6448z"/></g></g></g><g fill="#5d5a76"><g><g><path d="M329.75123,154.4656c0.32911,0.41316 0.6472,0.96143 0.95425,1.6448c0.28501,1.08184 0.46805,2.38869 0.54913,3.92053l0.09313,1.02351c0.06631,0.98513 0.06217,1.70848 -0.01244,2.17004c-0.11035,0.58142 -0.39364,1.24854 -0.84988,2.00136l-0.22068,1.41937c-1.05133,0.62039 -2.37865,1.09099 -3.98197,1.41179c-0.75593,0.15041 -2.1616,0.33661 -4.21702,0.55861l-0.95096,0.12151c-0.82112,0.07471 -1.47402,0.07582 -1.95871,0.00331c-0.59088,-0.08617 -1.21068,-0.29797 -1.85941,-0.63541c-0.81277,-0.73064 -1.31011,-1.19846 -1.49201,-1.40347c-0.17139,-0.21762 -0.39799,-0.59347 -0.6798,-1.12755c-0.14725,-0.72123 -0.23823,-1.20854 -0.27295,-1.46192c-0.03472,-0.25338 -0.08943,-0.79063 -0.16414,-1.61174l-0.1673,-1.64644c0.00835,-0.80535 0.10029,-1.46089 0.27583,-1.96662c0.16608,-0.48154 0.48565,-1.07034 0.95871,-1.76639l0.56925,-0.85639c0.97664,-1.05671 2.13204,-1.81484 3.4662,-2.2744c0.88208,-0.30181 2.252,-0.56056 4.10976,-0.77624l1.19382,-0.14361c1.24902,-0.11365 2.33089,-0.07799 3.2456,0.10698c0.55936,0.38055 1.02989,0.81 1.41157,1.28835M320.90405,156.23261c-0.53829,0.23555 -1.09916,0.60726 -1.68264,1.11512c-0.90621,0.93369 -1.47758,1.57455 -1.71411,1.92258c-0.22391,0.35854 -0.55556,1.135 -0.99494,2.3294c0.11154,1.22589 0.44807,2.36135 1.00959,3.40637c0.50576,0.56034 0.86903,0.90043 1.08983,1.02027c0.21029,0.13246 0.70918,0.29696 1.49667,0.4935c1.53186,0.04719 2.89338,-0.04754 4.08457,-0.2842c1.39726,-0.27873 2.66412,-0.77297 3.8006,-1.48274c0.38475,-0.64137 0.62601,-1.06562 0.72377,-1.27275c0.09671,-0.21869 0.24439,-0.64609 0.44305,-1.28219l0.31538,-0.37852c-0.00219,-1.04927 -0.07795,-1.88195 -0.2273,-2.49805c-0.1851,-0.75277 -0.54,-1.51341 -1.0647,-2.28192c-0.42691,-0.59084 -0.69871,-0.95091 -0.81543,-1.08022c-0.11777,-0.14087 -0.30913,-0.3217 -0.57409,-0.54246c-0.8474,0.04212 -1.68745,0.10107 -2.52013,0.17683l-1.40673,0.11051c-0.78221,0.11782 -1.43668,0.29397 -1.9634,0.52847z"/></g></g></g><g fill="#110f1a"><g><g><path d="M288.94354,139.27069l-0.28351,4.5735l-0.34695,0.03157c-0.07573,-0.44788 -0.15517,-1.12864 -0.2383,-2.04228l-0.14053,-2.12114l0.31538,-0.37852z"/></g></g></g></g><path d="M302.79806,215.68816c-0.1207,-0.19312 -0.16898,-0.48884 -0.14484,-0.88716l0.01811,-1.99158c0,-0.20519 0.03621,-0.344 0.10863,-0.41642c0.06035,-0.06035 0.16898,-0.1026 0.3259,-0.12674c1.35186,-0.2414 2.88478,-0.40435 4.59875,-0.48884c1.02597,-0.04828 2.57095,-0.07846 4.63496,-0.09053l13.6333,-0.07242v2.46232l-13.70572,0.21726c-2.2692,0.04828 -3.96506,0.14484 -5.08759,0.28969c0.8087,0.70007 1.85278,1.2372 3.13222,1.61137c0.84491,0.25347 2.03383,0.47677 3.56675,0.6699c0.71214,0.08449 1.18288,0.1207 1.41221,0.10863c0.28969,-0.01207 0.73628,-0.07846 1.33979,-0.19916l4.23664,-0.86906c0.51902,-0.13277 0.85698,-0.25951 1.0139,-0.38021l0.38021,-0.36211c0.28969,-0.21726 0.73628,-0.29572 1.33979,-0.23537c0.73628,0.07242 1.21306,0.08449 1.43032,0.03621l-0.01811,1.79243c0,0.28969 -0.02414,0.50091 -0.07242,0.63369c-0.07242,0.26554 -0.24744,0.48884 -0.52505,0.6699c-0.27761,0.19312 -0.69404,0.33797 -1.24927,0.43453l-3.94696,0.79663c-0.42246,0.09656 -0.82681,0.16898 -1.21306,0.21726c-0.33797,0.03621 -0.72421,0.04225 -1.15874,0.01811h-1.43032c-1.99158,0 -3.51847,-0.06035 -4.58064,-0.18105c-1.68983,-0.19312 -3.15033,-0.57937 -4.38149,-1.15874c-0.77249,-0.36211 -1.79846,-1.00786 -3.0779,-1.93727c-0.28969,-0.20519 -0.48281,-0.39228 -0.57937,-0.56126M336.54637,259.57545c0.18105,0.03621 0.57334,0.09656 1.17685,0.18105c0.48281,0.07242 0.86906,0.15088 1.15874,0.23537l0.01811,2.0459c0,0.30176 -0.04828,0.51902 -0.14484,0.65179c-0.1207,0.18105 -0.35607,0.29572 -0.70611,0.344c-0.27761,0.03621 -0.71214,0.05432 -1.30358,0.05432h-12.47456v-3.65727c0,-0.43453 0.01811,-0.75439 0.05432,-0.95958c0.06035,-0.30176 0.23537,-0.70007 0.52505,-1.19495c0.19312,-0.33797 0.63972,-1.03804 1.33979,-2.10022l1.14063,-1.72001c0.38625,-0.59144 0.66386,-1.05011 0.83284,-1.376c0.26554,-0.51902 0.42849,-1.0139 0.48884,-1.48464l2.48043,0.03621c-0.02414,0.26554 -0.01811,0.81474 0.01811,1.64758c0.02414,0.67593 -0.02414,1.20702 -0.14484,1.59327c-0.10863,0.38625 -0.40435,0.91734 -0.88716,1.59327c-0.73628,1.07425 -1.41825,2.15453 -2.0459,3.24085c1.61741,-0.03621 2.80029,-0.03621 3.54864,0c1.30358,0.04828 2.46232,0.20519 3.47622,0.47074c0.3259,0.08449 0.8087,0.21726 1.44843,0.39832M296.73278,252.31522l2.60717,0.03621c0.02414,0.91734 0.01811,1.60534 -0.01811,2.06401c-0.04828,0.39832 -0.13277,0.85095 -0.25347,1.3579c-0.1207,0.54316 -0.26554,1.09235 -0.43453,1.64758c-0.13277,0.4466 -0.25347,0.7906 -0.36211,1.032l-0.52505,1.0139c-0.25347,0.49488 -0.4466,1.05614 -0.57937,1.68379c1.49671,-0.03621 2.61924,-0.03018 3.36759,0.01811c1.24323,0.06035 2.34162,0.2414 3.29517,0.54316v2.46232c-1.24323,0.07242 -2.43818,0.00604 -3.58485,-0.19916l-1.14063,-0.19916c-0.47074,-0.06035 -1.18288,-0.1026 -2.13643,-0.12674l-2.7158,-0.05432c0,-1.07425 0,-1.87692 0,-2.40801c0.01207,-0.95355 0.1026,-1.74415 0.27158,-2.3718c0.13277,-0.45867 0.35607,-1.02597 0.6699,-1.7019c0.43453,-0.92941 0.688,-1.48464 0.76042,-1.66569c0.33797,-0.90527 0.59748,-1.94934 0.77853,-3.13222M286.43086,223.88987l0.01811,1.97348c0,0.21726 -0.02414,0.36814 -0.07242,0.45263c-0.08449,0.13277 -0.29572,0.25347 -0.63369,0.36211c-0.37418,0.09656 -0.9113,0.31383 -1.61137,0.65179c-1.49671,0.72421 -2.75804,1.42428 -3.78401,2.10022c-1.30358,0.85698 -2.40801,1.77432 -3.31327,2.75201c-0.18105,0.20519 -0.27761,0.37418 -0.28969,0.50695c-0.01207,0.19312 0.07846,0.39832 0.27158,0.61558c0.35004,0.39832 0.93544,0.75439 1.75622,1.06821c3.10204,1.24323 6.31272,2.0278 9.63203,2.35369c0.31383,0.03621 0.78456,0.07846 1.41221,0.12674c0.53109,0.06035 0.99579,0.13881 1.39411,0.23537c0.54316,0.1207 0.8932,0.3259 1.05011,0.61558c0.09656,0.16898 0.14484,0.44056 0.14484,0.81474l0.03621,2.26316c0,0.62765 -0.00604,1.06218 -0.01811,1.30358c-0.03621,0.49488 -0.10863,0.92337 -0.21726,1.28548c-0.16898,0.57937 -0.49488,1.18288 -0.97769,1.81053c-0.43453,0.57937 -0.90527,1.00786 -1.41221,1.28548c-0.41039,0.20519 -0.88716,0.33797 -1.43032,0.39832c-0.37418,0.03621 -0.88113,0.04225 -1.52085,0.01811c-0.86906,-0.01207 -1.55706,-0.07846 -2.06401,-0.19916c-0.73628,-0.18105 -1.30358,-0.50091 -1.7019,-0.95958c-0.31383,-0.36211 -0.53109,-0.82681 -0.65179,-1.39411c-0.08449,-0.39832 -0.13881,-0.92941 -0.16295,-1.59327c-0.03621,-1.32772 -0.01811,-2.66148 0.05432,-4.00127c-1.96744,-0.47074 -3.95903,-1.06218 -5.97475,-1.77432c-1.00183,-0.35004 -1.66569,-0.76646 -1.99158,-1.24927c-0.25347,-0.38625 -0.38625,-0.91734 -0.39832,-1.59327c0.04828,-0.77249 0.06639,-1.35186 0.05432,-1.73811c-0.02414,-0.42246 -0.04225,-0.74232 -0.05432,-0.95958c0,-0.36211 0.03621,-0.6699 0.10863,-0.92337c0.1207,-0.4466 0.47677,-0.94148 1.06821,-1.48464c1.35186,-1.26737 3.18654,-2.5106 5.50402,-3.7297c1.07425,-0.5673 2.00969,-0.96562 2.80632,-1.19495c1.07425,-0.31383 2.06401,-0.38021 2.96927,-0.19916M342.91944,179.69479c0.07242,3.51243 0.38625,7.08521 0.94148,10.71835c0.07242,0.4466 0.18709,0.76042 0.344,0.94148c0.14484,0.18105 0.36211,0.31383 0.65179,0.39832c0.16898,0.04828 0.44056,0.09053 0.81474,0.12674c2.08815,0.18105 4.36338,0.72421 6.8257,1.62948c1.52085,0.55523 3.68141,1.49671 6.4817,2.82443c0.77249,0.35004 1.33979,0.69404 1.7019,1.032c0.50695,0.49488 0.85095,1.17685 1.032,2.0459c0.1207,0.57937 0.18709,1.38204 0.19916,2.40801c0,0.65179 -0.01207,1.11649 -0.03621,1.39411c-0.03621,0.50695 -0.13277,0.94751 -0.28969,1.32169c-0.20519,0.51902 -0.53712,1.02597 -0.99579,1.52085c-0.31383,0.33797 -0.77853,0.75439 -1.39411,1.24927c-1.66569,1.36393 -2.88478,2.34766 -3.65727,2.95117c-1.376,1.06218 -2.65545,1.95537 -3.83833,2.67959c-1.09839,0.70007 -2.58303,1.52688 -4.45391,2.48043c-1.2553,0.65179 -2.30541,1.10442 -3.15033,1.3579c-1.20702,0.36211 -2.31145,0.45867 -3.31327,0.28969v-2.44422c2.88478,-1.29151 5.00914,-2.29938 6.37307,-3.02359c2.31748,-1.21909 4.27889,-2.4925 5.88423,-3.82022l1.72001,-1.50274c0.67593,-0.60351 1.26134,-1.08028 1.75622,-1.43032c0.39832,-0.27761 0.69404,-0.48884 0.88716,-0.63369c0.33797,-0.25347 0.60955,-0.48884 0.81474,-0.70611c0.57937,-0.62765 0.86302,-1.27341 0.85095,-1.93727c-0.03621,-0.688 -0.38021,-1.30358 -1.032,-1.84674c-0.41039,-0.3259 -1.04407,-0.67593 -1.90106,-1.05011l-3.53054,-1.55706c-1.42428,-0.60351 -2.34162,-0.98372 -2.75201,-1.14063c-1.03804,-0.41039 -1.97348,-0.71818 -2.80632,-0.92337c-0.94148,-0.22933 -2.3899,-0.45263 -4.34528,-0.6699c-0.45867,-0.04828 -0.77249,-0.15691 -0.94148,-0.3259c-0.16898,-0.15691 -0.28969,-0.45263 -0.36211,-0.88716c-0.72421,-4.45391 -1.05011,-8.95006 -0.97769,-13.48846l2.49853,0.01811M326.11771,178.64469c0.55523,0 1.03804,0.03018 1.44843,0.09053c0.30176,0.03621 0.76646,0.10863 1.39411,0.21726c0.31383,0.03621 0.99579,0.06035 2.0459,0.07242c0.85698,0 1.53292,0.06639 2.0278,0.19916c0.20519,0.06035 0.50091,0.15088 0.88716,0.27158c0.35004,0.10863 0.65179,0.16295 0.90527,0.16295v2.48043c-1.35186,0 -2.86064,0.03018 -4.52633,0.09053l-0.05432,1.19495c-0.02414,0.26554 -0.06639,0.45263 -0.12674,0.56126c-0.15691,0.27761 -0.54919,0.41642 -1.17685,0.41642l-7.09728,-0.03621c-0.76042,0 -1.24927,-0.16898 -1.46653,-0.50695c-0.10863,-0.16898 -0.16295,-0.45867 -0.16295,-0.86906c0,-1.52085 0.03621,-2.66148 0.10863,-3.4219l0.30779,-0.07242c-0.07242,-0.09656 -0.08449,-0.21123 -0.03621,-0.344c0.03621,-0.13277 0.10863,-0.23537 0.21726,-0.30779c0.14484,-0.10863 0.38625,-0.17502 0.72421,-0.19916c1.0139,-0.07242 2.54078,-0.07242 4.58064,0M304.15596,183.69607c-1.81053,-0.01207 -3.61503,0.16295 -5.41349,0.52505c0.09656,0.55523 0.07846,1.17685 -0.05432,1.86485c-0.10863,0.48281 -0.29572,1.08632 -0.56126,1.81053c-0.1207,0.39832 -0.28969,0.65179 -0.50695,0.76042c-0.1207,0.07242 -0.3259,0.10863 -0.61558,0.10863l-4.38149,0.01811c-0.61558,0 -1.09235,-0.01811 -1.43032,-0.05432c-0.51902,-0.07242 -0.97165,-0.19916 -1.3579,-0.38021c-0.21726,-0.08449 -0.35607,-0.20519 -0.41642,-0.36211c-0.03621,-0.07242 -0.05432,-0.19312 -0.05432,-0.36211l-0.01811,-1.43032c0,-0.47074 0.03018,-0.81474 0.09053,-1.032c0.19312,-0.688 0.81474,-1.28548 1.86485,-1.79243c0.47074,-0.21726 0.98976,-0.40435 1.55706,-0.56126c0.688,-0.18105 1.08632,-0.29572 1.19495,-0.344c0.2414,-0.08449 0.58541,-0.23537 1.032,-0.45263c0.65179,-0.27761 1.49671,-0.48281 2.53474,-0.61558c1.44843,-0.16898 3.6271,-0.22933 6.53602,-0.18105z" fill="#000000"/><g fill="#000000" font-family="&quot;Helvetica Neue&quot;, Helvetica, Arial, sans-serif" font-weight="400" font-size="16" text-anchor="start"/><g fill="#000000" font-family="&quot;Helvetica Neue&quot;, Helvetica, Arial, sans-serif" font-weight="400" font-size="16" text-anchor="start"/><g fill="#000000" font-family="&quot;Helvetica Neue&quot;, Helvetica, Arial, sans-serif" font-weight="400" font-size="16" text-anchor="start"/><g fill="#000000" font-family="&quot;Helvetica Neue&quot;, Helvetica, Arial, sans-serif" font-weight="400" font-size="16" text-anchor="start"/><g fill="#000000" font-family="&quot;Helvetica Neue&quot;, Helvetica, Arial, sans-serif" font-weight="400" font-size="16" text-anchor="start"/><g fill="#000000" font-family="&quot;Helvetica Neue&quot;, Helvetica, Arial, sans-serif" font-weight="400" font-size="16" text-anchor="start"/></g></g></svg>