
<svg viewBox="0 0 272 172" height="172px" width="272px" y="0px" x="0px" preserveAspectRatio="none" xmlns:xlink="http://www.w3.org/1999/xlink" version="1.1" xmlns="http://www.w3.org/2000/svg">
<defs></defs>

<g id="Layer_2">
<g>
<g>
<g>
<path d="M 66.6 145.2
Q 66.6 145.65 66.8 146 67.05 149.15 67.4 152.3 67.4880859375 153.29921875 67.55 154.25 71.82265625 154.2912109375 76.1 154.25 75.665234375 153.2876953125 74.55 152.3 73.3 151.15 72.5 149.65 69.9 146.6 66.95 143.9 66.7 144.45 66.55 145.05 66.6 145.15 66.6 145.2
M 94.5 142
Q 93.05 143.25 92.75 145.05 94.6 148.15 98.05 149.65 101.05 150.9 103.25 150.35 104.75 149.95 106.05 150.6 112.05 151.8 115.55 147.7 115.75 147.5 115.9 147.3 115.95 147.2 115.95 147.1 115.95 146.85 116 146.55 116.05 146.2 116.2 145.9 116.25 145.85 116.25 145.75 116.25 145.65 116.25 145.55 116.25 145.45 116.2 145.35 116.1 145.15 115.95 144.95 115.95 144.85 115.95 144.75 115.95 144.65 115.95 144.55 115.95 144.35 115.95 144.2 115.95 144.1 115.95 144 115.95 143.9 115.9 143.8 115.85 143.7 115.8 143.6 115.75 143.5 115.7 143.4 115.6 143.3 115.45 143.2 115.15 142.95 114.95 142.6 114.8 142.4 114.7 142.2 114.65 142.1 114.5 142.05 114.2 141.8 114 141.45 113.85 141.25 113.75 141.05 113.65 140.95 113.55 140.9 113.35 140.85 113.15 140.75 113.05 140.65 113 140.55 112.9 140.45 112.9 140.35 108.7 137.65 103.65 138.1 98.45 138.55 94.5 142
M 168.2 137.7
Q 167.2353515625 137.355078125 166.15 137.2 165.51328125 137.108984375 164.85 137 164.46328125 136.989453125 164.05 136.95 163.737890625 136.997265625 163.4 137.05 162.100390625 137.292578125 160.85 137.7 158.365234375 138.5041015625 156.15 139.95 154.8 140.8 153.7 142 153.55 142.5 153.55 143 153.6 143.5 153.6 144 153.8 144.25 154 144.55 154.2 144.75 154.35 144.95 154.75 146.25 155.85 147.2 156.5 147.75 157.25 148.3 157.4 148.35 157.5 148.45 165.2 149.75 172.7 147.4 173.75 146.65 174.5 145.55 174.65 145.3 174.9 145.05 174.9 144.85 175 144.65 175.05 144.45 175.15 144.25 175.1 143.85 175.05 143.45 175 143.1 174.7 142.85 174.7 142.75 174.7 142.65 174.7 142.55 174.65 142.45 174.65 142.35 174.6 142.3 173.9 141.3 172.85 140.55 172.55 140.35 172.45 140 172.25 139.9 172.05 139.85 171.85 139.8 171.6 139.7 170.0923828125 138.35625 168.2 137.7
M 80.55 128.15
Q 79.7375 126.24140625 79 124.25 78.7 123.35 78.35 122.5 78.2 126.45 78.25 130.4 78.25 133.35 78.4 136.25 79.479296875 135.959375 80.55 135.65 82.05859375 135.1970703125 83.55 134.7 81.9404296875 131.5123046875 80.55 128.15
M 196.7 128.6
Q 196.7 128.45 196.65 128.35 195.6 129.75 194.65 131.25 193.65 132.85 192.4 134.3 192.1 134.45 191.85 134.65 191.75 134.75 191.7 134.9 194.05 135.95 197 137.2 197 137 197 136.85 197.15 135.1 196.7 133.5 196.7 132.6 196.7 131.75 196.7 130.15 196.7 128.6
M 204.55 147.9
Q 204.55 146.7 204.55 145.45 203.45 145.9 202.15 146.1 201.4 146.2 200.6 146.35 200.45 146.5 200.3 146.65 200.15 146.8 200 146.9 199.9 146.95 199.8 146.95 198.65 147.3 197.55 147.8 197.45 147.95 197.3 148.05 196.85 148.45 196.4 148.95 196.3 149 196.2 149 195.8 149.15 195.4 149.25 195.25 149.4 195.05 149.5 194.35 149.8 194.15 150.45 194.15 150.55 194.1 150.6 193.4 150.95 192.65 151.2 195.0748046875 151.5970703125 197.55 151.95 201.0533203125 151.8431640625 204.55 151.7 204.55 149.808203125 204.55 147.9 Z" stroke="none" fill="#EE9D33"></path>

<path d="M 203.3 144.05
Q 203.85 143.75 204.6 143.4 199.666796875 140.17578125 194.7 137.7 191.9845703125 136.3365234375 189.25 135.2 190.9 132.95 192.75 130.35 193.95 128.65 195.2 126.9 195.25 126.75 195.25 126.6 195.35 126.15 195.4 125.7 195.55 125.55 195.7 125.45 195.05 123.9 194.85 122.3 195.15 122.3 195.45 122.35 195.35 122.25 195.3 122.2
L 195.3 122.15
Q 194.15 121.95 193.15 121.4 186.05 121.15 179 120.85 179 117.95 179.15 115.05 179.3 112 178.6 109.2 178.6 109.05 178.65 108.9 178.8 108.25 178.2 107.95 168.85 109.85 159.25 111.65 159.15 111.5 159.05 111.35 158.6 110.45 158.3 109.5 158.2 109.35 158.1 109.2 158.1 109.05 158.05 108.9 157.9 108.45 157.7 107.95 157.7 107.8 157.7 107.65 157.7 106.9 157.7 106.15 157.7 105.65 157.7 105.2 157.6 105.05 157.55 104.9 157.25 104 157.1 103.05 157.05 102.75 156.9 102.45 156.9 102.3 156.9 102.15 156.9 101.65 156.9 101.2 156.8 101.05 156.7 100.9 156.6 100.75 156.5 100.6 156.5 100.45 156.5 100.3 156.55 99.7 156.05 99.35 152.9712890625 100.5814453125 149.9 102 144.9904296875 104.3203125 140.1 107.15
L 140.1 107.2
Q 138.85 107.2 137.65 107.15 137.5 107 137.35 106.85 137.3 106.75 137.25 106.65 137.2 106.6 137.1 106.55 136.75 106.45 136.4 106.35 136.4 106.2 136.35 106.05 135.75 104.95 134.75 104.2 134.75 104.05 134.7 103.95 134.15 103.2 133.45 102.65 133.15 102.05 132.9 101.4 132.45 100.05 131.5 98.95 131.5 98.8 131.45 98.65 131.45 98.5 131.4 98.35 131.2 98.05 130.95 97.75 130.1 96.75 129.55 95.55 129.5 95.45 129.45 95.25 129.4 95.15 129.35 95.15 128.95 95.1 128.5 95.15 123.65 99.7 119.65 105 118.1 107.05 116.85 109.3 115.05 109.45 113.25 109.6 110.05 107.6 106.85 105.45 106.2 104.95 105.7 104.3 103.5 102.9 101.35 101.4 100.6 100.9 99.85 100.4 99.05 105.75 99.1 111.45 99.15 115.6 99.15 119.75 99.15 120.05 99.15 120.35 89.99375 120.1234375 80.55 117.85 79.5765625 117.60703125 78.6 117.35 78.6 117.45 78.6 117.55
L 78.6 117.6
Q 78.7 117.9 78.75 118.2 78.85 118.35 78.95 118.5 79.2 118.85 79.45 119.15 79.9888671875 120.7666015625 80.55 122.35 81.446484375 124.947265625 82.4 127.5 83.65 130.7 85.5 133.55 85.55 133.7 85.6 133.9 85.6 134.35 85.6 134.8 85.6 134.95 85.6 135.1 83.1357421875 136.0521484375 80.55 136.85 79.1966796875 137.30546875 77.8 137.7 72.3849609375 139.246484375 66.45 140.25 66.55 140.4 66.7 140.5 66.8 140.6 66.85 140.7 67.35 140.7 67.85 140.8
L 67.85 140.9
Q 67.9 141.4 67.75 141.9 72.5 146 76.45 151 77.6390625 152.57265625 78.5 154.25 79.53671875 154.2681640625 80.55 154.25 92.8828125 154.1568359375 105.5 153.8 117.8 153.45 130.15 153.45 140.04453125 153.419921875 149.9 153.25 171.0134765625 152.9876953125 191.95 152.2 190.7998046875 152.0513671875 189.65 151.9 189.65 151.75 189.7 151.65 190.15 150.9 190.8 150.35 190.9 150.25 191 150.15 191.05 150.1 191.1 150.1 191.6 149.95 192.1 149.85 192.15 149.7 192.25 149.6 192.85 148.95 193.55 148.4 193.95 148.3 194.35 148.2 195.3 147.15 196.65 146.7 197.8 146.35 198.75 145.65 201.2 145.2 203.3 144.05
M 170.85 137.25
Q 171.3556640625 137.445703125 171.8 137.7 172.742578125 138.2251953125 173.45 139 173.5 139.05 173.6 139.05 173.75 139.1 173.9 139.15 174.1 139.2 174.3 139.25 174.35 139.35 174.45 139.45 175.1 140.05 175.75 140.7 176.1 141.1 176.5 141.4 176.55 141.5 176.6 141.6 176.6 141.7 176.65 141.8 176.65 142 176.65 142.2 176.8 142.3 176.85 142.45 176.9 142.5 176.9 142.6 176.9 142.8 176.9 143 177 143.1 177.05 143.2 177.1 143.3 177.2 143.4 177.2 143.5 177.2 143.6 177.2 143.8 177.2 144 177.2 144.3 177.2 144.55 177.2 144.65 177.2 144.75 177.15 144.85 177.1 144.95 176.85 145.75 176.25 146.5 175.55 147.4 174.6 148.1 165.6 151.15 156.7 149.2 153.6 148.5 152.4 145.6 152.3 145.5 152.2 145.4 152.1 145.3 152.05 145.2 151.8 144.95 151.6 144.65 151.6 144.55 151.6 144.45 151.6 143.95 151.6 143.45 151.6 142.95 151.6 142.45 151.6 142.1 151.6 141.7 151.7 141.6 151.75 141.5 151.8 141.4 151.85 141.3 151.9 141.2 151.95 141.1 153 140 154.3 139.2 155.6697265625 138.330078125 157.1 137.7 159.591796875 136.6279296875 162.3 136.25 166.8 135.7 170.85 137.25
M 90.8 145.75
Q 90.8 145.65 90.8 145.55 90.8 145.35 90.8 145.15 90.8 145.05 90.8 144.95 90.8 144.85 90.8 144.75 90.8 144.45 90.8 144.2 90.8 144.1 90.8 144 91.4 142.3 92.75 141.2 95.895703125 138.676953125 99.6 137.7 101.54765625 137.1861328125 103.65 137.1 106.8896484375 136.952734375 109.95 137.7 111.06875 137.967578125 112.15 138.35 113.45 138.85 114.65 139.6 114.75 139.7 114.85 139.8 114.9 139.9 115 140 115.05 140.05 115.15 140.1 115.2 140.15 115.3 140.2 115.5 140.25 115.65 140.3 115.7 140.4 115.75 140.5 115.85 140.6 115.9 140.7 116.05 140.9 116.25 141.1 116.35 141.2 116.45 141.3 116.55 141.4 116.7 141.5 116.75 141.6 116.8 141.7 116.85 141.8 116.9 141.9 116.9 142 116.95 142.1 117.05 142.2 117.15 142.3 117.25 142.35 117.35 142.45 117.5 142.55 117.6 142.65 117.65 142.75 117.75 142.85 117.75 142.95 117.8 143.05 117.85 143.15 117.85 143.25 117.9 143.45 117.95 143.65 117.95 143.75 117.95 143.85 117.95 143.95 117.95 144.05 117.95 144.15 118 144.2 118.05 144.35 118.1 144.45 118.15 144.55 118.2 144.65 118.2 144.75 118.2 144.85 118.2 144.95 118.2 145.05 118.2 145.2 118.2 145.4 118.2 145.5 118.2 145.6 118.2 145.7 118.2 145.8 118.2 146.1 118.2 146.4 118.2 146.5 118.2 146.6 118.15 146.7 118.1 146.8 118.05 146.9 118 147 117.95 147.1 117.95 147.2 117.95 147.3 117.95 147.4 117.95 147.5 117.95 147.6 117.95 147.7 117.95 147.8 117.9 147.9 117.85 147.95 117.8 148.05 117.75 148.15 117.5 148.45 117.25 148.8 117 149.2 116.6 149.55 116.2 149.9 115.85 150.25 107.5 152.95 98.75 151.25 94.1 150.3 91.45 146.55 91.35 146.45 91.2 146.35 91.1 146.25 91 146.15 90.95 146.05 90.85 145.95 90.85 145.85 90.8 145.75 Z" stroke="none" fill="#FDDF5E"></path>

<path d="M 90.8 145.55
Q 90.8 145.65 90.8 145.75 90.85 145.85 90.85 145.95 90.95 146.05 91 146.15 91.1 146.25 91.2 146.35 91.35 146.45 91.45 146.55 94.1 150.3 98.75 151.25 107.5 152.95 115.85 150.25 116.2 149.9 116.6 149.55 117 149.2 117.25 148.8 117.5 148.45 117.75 148.15 117.8 148.05 117.85 147.95 117.9 147.9 117.95 147.8 117.95 147.7 117.95 147.6 117.95 147.5 117.95 147.4 117.95 147.3 117.95 147.2 117.95 147.1 118 147 118.05 146.9 118.1 146.8 118.15 146.7 118.2 146.6 118.2 146.5 118.2 146.4 118.2 146.1 118.2 145.8 118.2 145.7 118.2 145.6 118.2 145.5 118.2 145.4 118.2 145.2 118.2 145.05 118.2 144.95 118.2 144.85 118.2 144.75 118.2 144.65 118.15 144.55 118.1 144.45 118.05 144.35 118 144.2 117.95 144.15 117.95 144.05 117.95 143.95 117.95 143.85 117.95 143.75 117.95 143.65 117.9 143.45 117.85 143.25 117.85 143.15 117.8 143.05 117.75 142.95 117.75 142.85 117.65 142.75 117.6 142.65 117.5 142.55 117.35 142.45 117.25 142.35 117.15 142.3 117.05 142.2 116.95 142.1 116.9 142 116.9 141.9 116.85 141.8 116.8 141.7 116.75 141.6 116.7 141.5 116.55 141.4 116.45 141.3 116.35 141.2 116.25 141.1 116.05 140.9 115.9 140.7 115.85 140.6 115.75 140.5 115.7 140.4 115.65 140.3 115.5 140.25 115.3 140.2 115.2 140.15 115.15 140.1 115.05 140.05 115 140 114.9 139.9 114.85 139.8 114.75 139.7 114.65 139.6 113.45 138.85 112.15 138.35 111.06875 137.967578125 109.95 137.7 106.8896484375 136.952734375 103.65 137.1 101.54765625 137.1861328125 99.6 137.7 95.895703125 138.676953125 92.75 141.2 91.4 142.3 90.8 144 90.8 144.1 90.8 144.2 90.8 144.45 90.8 144.75 90.8 144.85 90.8 144.95 90.8 145.05 90.8 145.15 90.8 145.35 90.8 145.55
M 92.75 145.05
Q 93.05 143.25 94.5 142 98.45 138.55 103.65 138.1 108.7 137.65 112.9 140.35 112.9 140.45 113 140.55 113.05 140.65 113.15 140.75 113.35 140.85 113.55 140.9 113.65 140.95 113.75 141.05 113.85 141.25 114 141.45 114.2 141.8 114.5 142.05 114.65 142.1 114.7 142.2 114.8 142.4 114.95 142.6 115.15 142.95 115.45 143.2 115.6 143.3 115.7 143.4 115.75 143.5 115.8 143.6 115.85 143.7 115.9 143.8 115.95 143.9 115.95 144 115.95 144.1 115.95 144.2 115.95 144.35 115.95 144.55 115.95 144.65 115.95 144.75 115.95 144.85 115.95 144.95 116.1 145.15 116.2 145.35 116.25 145.45 116.25 145.55 116.25 145.65 116.25 145.75 116.25 145.85 116.2 145.9 116.05 146.2 116 146.55 115.95 146.85 115.95 147.1 115.95 147.2 115.9 147.3 115.75 147.5 115.55 147.7 112.05 151.8 106.05 150.6 104.75 149.95 103.25 150.35 101.05 150.9 98.05 149.65 94.6 148.15 92.75 145.05
M 171.8 137.7
Q 171.3556640625 137.445703125 170.85 137.25 166.8 135.7 162.3 136.25 159.591796875 136.6279296875 157.1 137.7 155.6697265625 138.330078125 154.3 139.2 153 140 151.95 141.1 151.9 141.2 151.85 141.3 151.8 141.4 151.75 141.5 151.7 141.6 151.6 141.7 151.6 142.1 151.6 142.45 151.6 142.95 151.6 143.45 151.6 143.95 151.6 144.45 151.6 144.55 151.6 144.65 151.8 144.95 152.05 145.2 152.1 145.3 152.2 145.4 152.3 145.5 152.4 145.6 153.6 148.5 156.7 149.2 165.6 151.15 174.6 148.1 175.55 147.4 176.25 146.5 176.85 145.75 177.1 144.95 177.15 144.85 177.2 144.75 177.2 144.65 177.2 144.55 177.2 144.3 177.2 144 177.2 143.8 177.2 143.6 177.2 143.5 177.2 143.4 177.1 143.3 177.05 143.2 177 143.1 176.9 143 176.9 142.8 176.9 142.6 176.9 142.5 176.85 142.45 176.8 142.3 176.65 142.2 176.65 142 176.65 141.8 176.6 141.7 176.6 141.6 176.55 141.5 176.5 141.4 176.1 141.1 175.75 140.7 175.1 140.05 174.45 139.45 174.35 139.35 174.3 139.25 174.1 139.2 173.9 139.15 173.75 139.1 173.6 139.05 173.5 139.05 173.45 139 172.742578125 138.2251953125 171.8 137.7
M 166.15 137.2
Q 167.2353515625 137.355078125 168.2 137.7 170.0923828125 138.35625 171.6 139.7 171.85 139.8 172.05 139.85 172.25 139.9 172.45 140 172.55 140.35 172.85 140.55 173.9 141.3 174.6 142.3 174.65 142.35 174.65 142.45 174.7 142.55 174.7 142.65 174.7 142.75 174.7 142.85 175 143.1 175.05 143.45 175.1 143.85 175.15 144.25 175.05 144.45 175 144.65 174.9 144.85 174.9 145.05 174.65 145.3 174.5 145.55 173.75 146.65 172.7 147.4 165.2 149.75 157.5 148.45 157.4 148.35 157.25 148.3 156.5 147.75 155.85 147.2 154.75 146.25 154.35 144.95 154.2 144.75 154 144.55 153.8 144.25 153.6 144 153.6 143.5 153.55 143 153.55 142.5 153.7 142 154.8 140.8 156.15 139.95 158.365234375 138.5041015625 160.85 137.7 162.100390625 137.292578125 163.4 137.05 163.737890625 136.997265625 164.05 136.95 164.46328125 136.989453125 164.85 137 165.51328125 137.108984375 166.15 137.2
M 204.55 145.45
Q 204.55 146.7 204.55 147.9 204.55 149.808203125 204.55 151.7 205.550390625 151.645703125 206.55 151.6 206.55 150.571484375 206.55 149.55 206.55 146.9 206.55 144.3 206.9 143.95 207.25 143.6 204.7 140.5 200.75 138.8 199.85 138.4 198.95 138.05 198.95 137.875 198.95 137.7 198.9560546875 136.425 199 135.15 199.05 134 198.65 133 198.65 131.3 198.75 129.65 198.8 128.5 198.4 127.45 198.5 126.4 198.2 125.45 198.4 125.1 198.55 124.75 198.6 124.6 198.65 124.45 198.65 124.15 198.65 123.85 198.65 123.25 198.65 122.6 198.6 122.45 198.55 122.3 198.2 122.2 197.85 122.1 197.85 122.05 197.8 122.05 197.7 121.9 197.55 121.75 197.45 121.65 197.35 121.5 196.4 121.2 195.5 120.85 195.25 120.75 195 120.65 188 120.4 181.05 120.15 181.05 117.4 181.05 114.65 181.05 112 181.05 109.4 181 109.25 180.9 109.15 180.6 108.7 180.65 108.15 180.65 108 180.65 107.85 180.65 107.7 180.55 107.65 180.25 107.4 180 107.05 179.9 106.9 179.7 106.75 170.1 107.8 161 110.55 160.95 110.25 160.8 110.05 160.75 109.85 160.55 109.7 160.55 109.55 160.55 109.4 160.35 108.95 160.2 108.45 160.15 108.35 160.15 108.2 159.95 107.85 159.8 107.55 159.75 107.4 159.75 107.25 159.75 107.1 159.75 106.95 159.95 105.2 159.6 103.5 159.4 102.6 158.95 101.7 158.95 101.4 158.95 101.1 158.95 100.95 158.95 100.8 158.9 100.65 158.8 100.55 158.45 100.1 158.5 99.55 158.55 99.4 158.55 99.25 158.5 99.1 158.4 99 158.25 98.8 158.1 98.65 158.05 98.35 157.95 98.05 157.85 97.9 157.7 97.75 156.4 97.7 155.05 97.7 154.9 97.75 154.75 97.85 154.2 98.25 153.7 98.75 153.5 98.9 153.3 99.05 151.591015625 99.7580078125 149.9 100.5 144.6642578125 102.8412109375 139.6 105.6 139.05 105.65 138.55 105.6 138.5 105.6 138.45 105.5 138.15 104.5 137.25 103.95 137.05 103.8 136.9 103.65 136.85 103.5 136.8 103.35 136.75 103.2 136.7 103.05 136.3 102.75 135.9 102.4 135.75 102.3 135.6 102.15 134.9 100.95 134.35 99.7 134.1 99 133.55 98.45 133.55 98.3 133.5 98.15 132.95 96.85 132 95.7 131.55 95.15 131.4 94.45 131.1 94.35 130.8 94.2 130.75 94.2 130.65 94.15 130.55 94.05 130.5 93.95 130.35 93.8 130.25 93.65 129.15 93.6 128 93.55 125.5 95.2 123.3 97.6 118.5 102.85 114.6 108.5 114.1 108.1 113.5 107.75 107.35 104.05 101.7 99.45 101.15 99.3 100.6 99.1 100.4 99.05 100.25 98.95 99.2 98.9 98.1 98.95 98 98.95 97.9 99.05 97.95 99.6 97.65 100 97.55 100.15 97.5 100.3 97.5 100.6 97.5 100.9 97.25 105.05 97.2 109.2 97.1 114.4 97.1 119.65 91.85 119.3 86.8 117.65 83.539453125 116.6080078125 80.55 116.6 79.0927734375 116.604296875 77.7 116.85 77.15 116.8 76.65 116.8 76.65 116.95 76.65 117.1 76.4 117.15 76.2 117.2 76.4 117.6 76.55 118.05 76.35 120.8 76.35 123.6 76.35 130.15 76.35 136.7 74.4 137.1 72.45 137.4 71.5904296875 137.527734375 70.75 137.7 66.872265625 138.54140625 64.3 140.45 64.75 141.4 65.35 142.2 65.05 143.05 64.8 143.95 64.35 145.35 64.85 146.65 64.95 149.05 65.25 151.4 65.4814453125 152.821875 65.55 154.25 66.575 154.27890625 67.55 154.25 67.4880859375 153.29921875 67.4 152.3 67.05 149.15 66.8 146 66.6 145.65 66.6 145.2 66.6 145.15 66.55 145.05 66.7 144.45 66.95 143.9 69.9 146.6 72.5 149.65 73.3 151.15 74.55 152.3 75.665234375 153.2876953125 76.1 154.25 77.315625 154.2705078125 78.5 154.25 77.6390625 152.57265625 76.45 151 72.5 146 67.75 141.9 67.9 141.4 67.85 140.9
L 67.85 140.8
Q 67.35 140.7 66.85 140.7 66.8 140.6 66.7 140.5 66.55 140.4 66.45 140.25 72.3849609375 139.246484375 77.8 137.7 79.1966796875 137.30546875 80.55 136.85 83.1357421875 136.0521484375 85.6 135.1 85.6 134.95 85.6 134.8 85.6 134.35 85.6 133.9 85.55 133.7 85.5 133.55 83.65 130.7 82.4 127.5 81.446484375 124.947265625 80.55 122.35 79.9888671875 120.7666015625 79.45 119.15 79.2 118.85 78.95 118.5 78.85 118.35 78.75 118.2 78.7 117.9 78.6 117.6
L 78.6 117.55
Q 78.6 117.45 78.6 117.35 79.5765625 117.60703125 80.55 117.85 89.99375 120.1234375 99.15 120.35 99.15 120.05 99.15 119.75 99.15 115.6 99.1 111.45 99.05 105.75 99.85 100.4 100.6 100.9 101.35 101.4 103.5 102.9 105.7 104.3 106.2 104.95 106.85 105.45 110.05 107.6 113.25 109.6 115.05 109.45 116.85 109.3 118.1 107.05 119.65 105 123.65 99.7 128.5 95.15 128.95 95.1 129.35 95.15 129.4 95.15 129.45 95.25 129.5 95.45 129.55 95.55 130.1 96.75 130.95 97.75 131.2 98.05 131.4 98.35 131.45 98.5 131.45 98.65 131.5 98.8 131.5 98.95 132.45 100.05 132.9 101.4 133.15 102.05 133.45 102.65 134.15 103.2 134.7 103.95 134.75 104.05 134.75 104.2 135.75 104.95 136.35 106.05 136.4 106.2 136.4 106.35 136.75 106.45 137.1 106.55 137.2 106.6 137.25 106.65 137.3 106.75 137.35 106.85 137.5 107 137.65 107.15 138.85 107.2 140.1 107.2
L 140.1 107.15
Q 144.9904296875 104.3203125 149.9 102 152.9712890625 100.5814453125 156.05 99.35 156.55 99.7 156.5 100.3 156.5 100.45 156.5 100.6 156.6 100.75 156.7 100.9 156.8 101.05 156.9 101.2 156.9 101.65 156.9 102.15 156.9 102.3 156.9 102.45 157.05 102.75 157.1 103.05 157.25 104 157.55 104.9 157.6 105.05 157.7 105.2 157.7 105.65 157.7 106.15 157.7 106.9 157.7 107.65 157.7 107.8 157.7 107.95 157.9 108.45 158.05 108.9 158.1 109.05 158.1 109.2 158.2 109.35 158.3 109.5 158.6 110.45 159.05 111.35 159.15 111.5 159.25 111.65 168.85 109.85 178.2 107.95 178.8 108.25 178.65 108.9 178.6 109.05 178.6 109.2 179.3 112 179.15 115.05 179 117.95 179 120.85 186.05 121.15 193.15 121.4 194.15 121.95 195.3 122.15
L 195.3 122.2
Q 195.35 122.25 195.45 122.35 195.15 122.3 194.85 122.3 195.05 123.9 195.7 125.45 195.55 125.55 195.4 125.7 195.35 126.15 195.25 126.6 195.25 126.75 195.2 126.9 193.95 128.65 192.75 130.35 190.9 132.95 189.25 135.2 191.9845703125 136.3365234375 194.7 137.7 199.666796875 140.17578125 204.6 143.4 203.85 143.75 203.3 144.05 201.2 145.2 198.75 145.65 197.8 146.35 196.65 146.7 195.3 147.15 194.35 148.2 193.95 148.3 193.55 148.4 192.85 148.95 192.25 149.6 192.15 149.7 192.1 149.85 191.6 149.95 191.1 150.1 191.05 150.1 191 150.15 190.9 150.25 190.8 150.35 190.15 150.9 189.7 151.65 189.65 151.75 189.65 151.9 190.7998046875 152.0513671875 191.95 152.2 194.752734375 152.09765625 197.55 151.95 195.0748046875 151.5970703125 192.65 151.2 193.4 150.95 194.1 150.6 194.15 150.55 194.15 150.45 194.35 149.8 195.05 149.5 195.25 149.4 195.4 149.25 195.8 149.15 196.2 149 196.3 149 196.4 148.95 196.85 148.45 197.3 148.05 197.45 147.95 197.55 147.8 198.65 147.3 199.8 146.95 199.9 146.95 200 146.9 200.15 146.8 200.3 146.65 200.45 146.5 200.6 146.35 201.4 146.2 202.15 146.1 203.45 145.9 204.55 145.45
M 196.65 128.35
Q 196.7 128.45 196.7 128.6 196.7 130.15 196.7 131.75 196.7 132.6 196.7 133.5 197.15 135.1 197 136.85 197 137 197 137.2 194.05 135.95 191.7 134.9 191.75 134.75 191.85 134.65 192.1 134.45 192.4 134.3 193.65 132.85 194.65 131.25 195.6 129.75 196.65 128.35
M 79 124.25
Q 79.7375 126.24140625 80.55 128.15 81.9404296875 131.5123046875 83.55 134.7 82.05859375 135.1970703125 80.55 135.65 79.479296875 135.959375 78.4 136.25 78.25 133.35 78.25 130.4 78.2 126.45 78.35 122.5 78.7 123.35 79 124.25 Z" stroke="none" fill="#000000"></path>
</g>
</g>
</g>
</g>
</svg>
