
<svg viewBox="0 0 128 116" height="116px" width="128px" y="0px" x="0px" preserveAspectRatio="none" xmlns:xlink="http://www.w3.org/1999/xlink" version="1.1" xmlns="http://www.w3.org/2000/svg">
<defs></defs>

<g id="Layer_1"></g>

<g id="Layer_2">
<g transform="matrix( 1, 0, 0, 1, 4.1,73.4)" id="Layer_2">
<g>
<g>
<g>
<path d="M 71.6 -70.95
Q 68.8 -71.05 65.95 -70.75 46.65 -68.65 28.5 -61.95 23.55 -60.1 19.45 -56.9 18.7 -56.35 19.05 -55.45 20.95 -50.25 23.95 -45.35 15.35 -47.45 6.7 -49.4 3.4 -48 1.4 -44.7 -1.65 -39.5 -3.1 -33.75 -4.25 -29.15 -2.85 -24.7 -2.85 -24.45 -2.8 -24.25 -2.75 -24 -2.75 -23.8 -2.7 -23.4 -2.6 -23.1 -2.55 -22.85 -2.55 -22.65 -2.05 -21.65 -1.5 -20.6 0 -18.1 1.75 -15.7 3 -13.95 4.75 -12.8 3.8 -9.95 3.65 -6.6 3.2 5.3 11.6 14.05 11.45 14.05 11.4 14.05 8.6 12.75 6.25 14.15 5.8 14.8 5.95 15.55 6.85 21.1 10.65 25.65 18.65 35.4 31.85 35 35.7 34.85 38.2 33.25 41.35 35.5 45.15 36.8 50.65 38.65 56.5 39.15 62.3 39.6 68.15 38.9 73.95 38.2 79.55 36.7 79.6 36.7 79.65 36.7 88.65 40.95 98.75 37.55 112.7 32.95 117.7 19.9 118.1 18.95 117.55 18.3 115.5 15.6 111.95 17.2 114.75 13.55 115.75 9.1 117.75 0.2 114.8 -8 115.95 -8.45 117.05 -9.7 124.65 -18.3 122.55 -29.7 120.5 -40.55 112.9 -48.85 109.35 -52.75 104.55 -54.1 92.8 -50.05 82.35 -43.35 85.85 -50.8 88 -58.9 88.7 -61.45 88.65 -64.15 88.5 -69.7 82.3 -70.5 77 -71.25 71.6 -70.95
M 23.3 -54.35
Q 23.1 -54.75 22.95 -55.15 23.55 -55.7 24.3 -56.05 36.65 -61.8 50.05 -64.7 65.65 -68.05 81.6 -66.75 83.6 -66.55 85.1 -65.35 85.3 -64.35 85.05 -63.35 84.15 -59.1 82.85 -54.95 73.65 -53.3 64.4 -51.2 51.25 -48.2 37.9 -46.35 35.05 -45.95 32.2 -45.85 30.05 -45.8 28.85 -44.95 28.15 -46.3 27.3 -47.5 25.05 -50.75 23.3 -54.35
M 28.75 -26.95
Q 26.75 -28.8 24.25 -30 16.7 -33.75 8.95 -36.75
L 8.95 -36.7
Q 8.7 -36.7 8.5 -36.7 8 -36.55 7.65 -36.2 6.15 -34.65 5.6 -32.6 3.4904296875 -24.9955078125 7.7 -18.5 6.856640625 -17.4255859375 6.2 -16.25 4.4 -18.65 2.8 -21.15 -1.35 -27.5 1 -34.85 2.9 -40.9 7.15 -45.6 7.4 -45.65 7.65 -45.7 12.7 -44.35 17.8 -43.2 28.35 -40.6 38.75 -37.55 38.85 -37.3 39.15 -37 40.4 -35.7 41.1 -35.65 38.35 -33.9 36.05 -31.55 30.643359375 -25.9630859375 31.6 -18.55 30.8578125 -18.2939453125 30.1 -18 28.9025390625 -17.5443359375 27.85 -16.95 28.3630859375 -18.217578125 28.9 -19.5 30.65 -23.4 28.75 -26.95
M 9.15 -27.05
Q 9.05 -29.6 9.9 -32 12.65 -31.2 15.35 -30.15 21.3 -27.9 25.75 -23.85 24.55 -19.4 22.85 -15.1 22.827734375 -15.0478515625 22.8 -15 22.427734375 -15.3451171875 22.05 -15.7 17.6 -19.85 12.35 -22.85 11.447265625 -22.229296875 10.65 -21.55 10.540234375 -21.74921875 10.45 -21.95 9.25 -24.35 9.15 -27.05
M 10.4 -16.35
Q 12.1818359375 -15.83359375 12.45 -18.4 12.3794921875 -18.57109375 12.3 -18.75 12.32578125 -18.7697265625 12.35 -18.8 14.2 -17.35 16 -15.85 19.1525390625 -13.11484375 22.35 -10.45 22.323828125 -10.361328125 22.3 -10.3 19.4 -2.95 22.6 4.15 26.3 12.4 35.4 14.65 45.6 17.2 53.75 10.6 55.05 9.55 56 8.25 57.617578125 6.1025390625 58.25 3.65 59.31875 9.3140625 64.2 13.4 68.8 17.25 74.65 17.65 85.1 18.35 92.1 10.9 95.35 7.5 96.85 3.05 96.9 2.75 96.95 2.45 97.808984375 -1.1580078125 97.45 -4.65 102.142578125 -6.9005859375 106.35 -9.85 106.8 -9.95 107.1 -10.15 108.2 -10.8 109.25 -11.2 110.2 -9.45 111 -7.6 115.9 4.2 109 14.75 107.6 16.95 105.2 17.9 101.65 19.3 101.55 22.4 101.75 22.65 101.9 22.8 102.2 23.05 102.5 23.25 108.1 22.5 113.6 20.7 112.3 23.65 110.25 26.05 107.5 29.25 103.8 31.65 99.95 34.1 95.45 34.6 89.85 35.2 84.55 34.6 84.7 34.05 84.6 33.3 84.45 31.95 82.95 31.95 81.6 31.95 80.25 32.45 74.9 34.5 69.1 35.2 63.3 35.9 57.45 35.5 51.65 35.15 46.15 33.3 44.1 32.6 42.3 31.4 40.05 29.85 37.55 28.95 35.95 29.15 35.75 30.5 29.55 31.4 23.35 30.2 19.15 28.95 16.15 26 12.35 22.2 10.15 17.45 13.85 18.55 17.6 19.35 18.6 20.1 19.7 20.55 20.95 21.1 22.05 20.4 22.3 20.05 22.5 19.8 22.7 19.5 22.75 19.25 22.8 18.95 22.8 18.7 22.75 18.5 22.7 18.4 22.5 17.9 22.15 17.55 21.85 17.3 21.5 16.95 12.1 12.45 8.9 2.55 5.6546875 -7.326953125 10.4 -16.35
M 32.9 -14.9
Q 34.0541015625 -13.7658203125 36.2 -14.45 36.25 -14.6 36.45 -14.75 36.65 -15 36.85 -15.15 36.95 -15.25 37 -15.35 37.1 -15.4 37.15 -15.45 36.8771484375 -12.3880859375 37.8 -9.6 37.5921875 -9.5384765625 37.4 -9.5 36.6 -9.3 36.4 -8.6 34.6 -3.1 35.8 2.65 36.3 5.05 38.3 6.3 38.95 6.7 39.5 6.25 41.8 4.4 41.9 1.15 41.95 -0.7 42.35 -2.55 42.3599609375 -2.5953125 42.35 -2.65 44.0228515625 -1.7001953125 46.1 -2.8 46.15 -2.9 46.25 -3.05 46.25 -3.1 46.3 -3.2 49.1923828125 -5.84375 52.3 -8.25 53.0486328125 -6.5529296875 53.4 -4.7 53.6376953125 -3.51171875 54.3 -2.95 55.38828125 1.5109375 53.25 5.7 50.7 8.3 47.4 9.8 39.25 13.5 31.75 8.7 23.5 3.45 25.15 -6.1 26.3779296875 -13.0291015625 32.9 -14.9
M 35.55 -19.4
Q 35.49609375 -19.4109375 35.45 -19.45 34.82265625 -24.326953125 37.95 -28.05 42.15 -33 48.4 -34.85 49.95 -34.85 51.5 -34.65 53.4 -34.45 54 -36.15 54.3 -37.15 53.6 -37.9 51.4 -38.8 48.95 -39.15 47.15 -39.5 45.9 -39.75 51.1 -43.4 57.4 -44.4 69.65 -46.4 76.4 -36.65 76.95 -36 77.7 -36.2 79.05 -36.6 79.4 -37.35 79.75 -37.3 80.15 -37.4 81.45 -37.9 82.55 -38.7 92.75 -45.9 104.6 -50.25 104.75 -50.25 105 -50.25 105.8 -49.8 106.5 -49.25 115.5 -42.2 118.45 -31.65 121.2 -21.9 115.45 -13.7 115 -13 114.3 -12.6 113.65 -12.25 113.1 -11.8 112.7 -12.55 112.25 -13.35 112.20546875 -13.661328125 112.1 -13.95 113.9357421875 -15.5953125 114.8 -18 117.35 -25.05 115.25 -32.45 113.55 -38.5 108.35 -41.55 100.7 -36.95 93.1 -31.7 89.25 -29.05 88.95 -25.05 89.2 -24.65 89.5 -24.35 90.4 -23.5 91.45 -22.85 92.05 -21.9 92.75 -21 93.8 -19.6 94.95 -18.35 96.25 -15.5 96.3 -12.4 96.3 -10.498828125 97.3 -9.1 96.9421875 -8.8337890625 96.6 -8.6 95.8376953125 -11.12578125 94.35 -13.6 89.7 -21.35 80.35 -21.35 73.1 -20.75 67.25 -16.3 62.35 -12.6 59.6 -7.05 58.7939453125 -5.38046875 58.35 -3.6 58.1841796875 -5.2791015625 57.85 -6.95 57.5623046875 -8.3248046875 56.6 -8.95 56.1578125 -9.887109375 55.55 -10.65 57.7681640625 -12.2345703125 60.1 -13.7 63.35 -15.75 62.2 -18.6 62.1 -18.7 61.95 -18.75 61.45 -18.95 61.15 -18.75 56.9 -16.45 52.9 -13.45 48.45 -10.05 44.2 -6.35 41.65 -8.75 40.85 -12.2 40.35 -14.6 41.7 -16.55 43.5 -19.05 42.35 -21.45 40 -22.55 37.85 -20.85 36.74140625 -19.982421875 35.55 -19.4
M 77.9 -42.9
Q 77.45 -41.95 77.45 -41.15 72.75 -46.15 66.55 -47.9 68.2 -48.2 69.85 -48.5 75.8 -49.5 81.45 -51 79.9 -46.9 77.9 -42.9
M 44.95 -43.6
Q 42.8 -42.3 40.95 -40.65 38.65 -41.5 36.3 -42.2 40.65 -42.85 44.95 -43.6
M 65.5 -9.2
Q 71.05 -16.2 80 -17.3 83.8 -17.4 87.05 -15.5 88.95 -14.45 90.25 -12.7 91.8 -10.6 92.75 -8.15 94.55 -3.35 93.1 1.5 92.95 1.85 92.75 2.2 92.5 2.6 92.4 3.1 92.25 3.5 92.15 3.95 89.6 9.6 83.85 12.15 79.4 14.1 74.5 13.95 71.6 13.85 69.85 11.85 67.95 9.6 65.35 8.7 64.25 7.75 63.7 6.5 59.65 -1.75 65.5 -9.2
M 108.1 -36.85
Q 110.25 -34.7 111.05 -31.75 112.2 -27.65 112.4 -23.35 112.25 -18.3 107.9 -15.55 107.3 -15.15 107.3 -14.5 107.3021484375 -14.458203125 107.3 -14.45 105.90234375 -13.55859375 104.5 -12.7 102.59140625 -11.5705078125 100.6 -10.7 100.780859375 -11.43046875 100.7 -12.3 99.8 -20.6 93.5 -26.35 100.4 -32.2 108.1 -36.85
M 76.5 -9.55
Q 76 -9.55 75.5 -9.3 75 -9.05 74.8 -8.6 72.55 -4 72.9 1.3 73 2.2 73.05 3.05 73.35 5.95 76 6.75 76.3 6.85 76.55 6.7 79.7 4.5 79.8 0.35 79.9 -2.3 79.75 -5 79.6 -8.5 76.5 -9.55
M 62.35 19.05
Q 65.45 18 64.9 15.25 64.8 14.7 64.3 14.55 60.15 13.6 55.7 13.85 54.85 13.9 53.95 13.75 51.25 13.3 50.45 15.5 49.85 17.15 51.6 17.6 52.6 17.9 53.1 18.15 53.15 18.65 53.45 18.9 56.2 21.3 60.1 19.85 61.25 19.4 62.35 19.05
M 86.45 23.95
Q 84.45 20.15 81.6 22.55 81.55 22.75 81.5 22.9 81.45 23.3 81.5 23.65 81.55 23.8 81.55 24 81.9 24.6 82.45 25.1 82.8 25.4 83.1 25.8 82.9 26 82.7 26.05 72.55 30.35 62.4 25.7 61.55 25.3 60.9 24.8 57.9 22.5 54.65 23.55 45.75 26.3 37.5 22.8 37.35 22.65 37.2 22.45 37.1 22.35 37.05 22.25 37.05 22.2 37.05 22.1 37.7 21.45 38.4 20.95 39.75 20.1 39.65 18.55 39.5 18.15 39.25 17.85 38.75 17.05 37.75 16.95 36.15 17.3 34.8 18.5 32.55 20.45 32.9 23.3 33.85 25.05 35.6 25.9 45.55 30.7 56.35 27 60.85 30 66.1 31.3 75.5 33.7 84.2 29.75 88.5 27.8 86.45 23.95 Z" stroke="none" fill="#000000"></path>

<path d="M 111.05 -31.75
Q 110.25 -34.7 108.1 -36.85 100.4 -32.2 93.5 -26.35 99.8 -20.6 100.7 -12.3 100.780859375 -11.43046875 100.6 -10.7 102.59140625 -11.5705078125 104.5 -12.7 105.90234375 -13.55859375 107.3 -14.45 107.3021484375 -14.458203125 107.3 -14.5 107.3 -15.15 107.9 -15.55 112.25 -18.3 112.4 -23.35 112.2 -27.65 111.05 -31.75
M 9.9 -32
Q 9.05 -29.6 9.15 -27.05 9.25 -24.35 10.45 -21.95 10.540234375 -21.74921875 10.65 -21.55 11.447265625 -22.229296875 12.35 -22.85 17.6 -19.85 22.05 -15.7 22.427734375 -15.3451171875 22.8 -15 22.827734375 -15.0478515625 22.85 -15.1 24.55 -19.4 25.75 -23.85 21.3 -27.9 15.35 -30.15 12.65 -31.2 9.9 -32 Z" stroke="none" fill="#9B6C6F"></path>

<path d="M 80 -17.3
Q 71.05 -16.2 65.5 -9.2 59.65 -1.75 63.7 6.5 64.25 7.75 65.35 8.7 67.95 9.6 69.85 11.85 71.6 13.85 74.5 13.95 79.4 14.1 83.85 12.15 89.6 9.6 92.15 3.95 92.25 3.5 92.4 3.1 92.5 2.6 92.75 2.2 92.95 1.85 93.1 1.5 94.55 -3.35 92.75 -8.15 91.8 -10.6 90.25 -12.7 88.95 -14.45 87.05 -15.5 83.8 -17.4 80 -17.3
M 75.5 -9.3
Q 76 -9.55 76.5 -9.55 79.6 -8.5 79.75 -5 79.9 -2.3 79.8 0.35 79.7 4.5 76.55 6.7 76.3 6.85 76 6.75 73.35 5.95 73.05 3.05 73 2.2 72.9 1.3 72.55 -4 74.8 -8.6 75 -9.05 75.5 -9.3
M 36.2 -14.45
Q 34.0541015625 -13.7658203125 32.9 -14.9 26.3779296875 -13.0291015625 25.15 -6.1 23.5 3.45 31.75 8.7 39.25 13.5 47.4 9.8 50.7 8.3 53.25 5.7 55.38828125 1.5109375 54.3 -2.95 53.6376953125 -3.51171875 53.4 -4.7 53.0486328125 -6.5529296875 52.3 -8.25 49.1923828125 -5.84375 46.3 -3.2 46.25 -3.1 46.25 -3.05 46.15 -2.9 46.1 -2.8 44.0228515625 -1.7001953125 42.35 -2.65 42.3599609375 -2.5953125 42.35 -2.55 41.95 -0.7 41.9 1.15 41.8 4.4 39.5 6.25 38.95 6.7 38.3 6.3 36.3 5.05 35.8 2.65 34.6 -3.1 36.4 -8.6 36.6 -9.3 37.4 -9.5 37.5921875 -9.5384765625 37.8 -9.6 36.8771484375 -12.3880859375 37.15 -15.45 37.1 -15.4 37 -15.35 36.95 -15.25 36.85 -15.15 36.65 -15 36.45 -14.75 36.25 -14.6 36.2 -14.45 Z" stroke="none" fill="#FFFFFF"></path>

<path d="M 40.95 -40.65
Q 42.8 -42.3 44.95 -43.6 40.65 -42.85 36.3 -42.2 38.65 -41.5 40.95 -40.65
M 77.45 -41.15
Q 77.45 -41.95 77.9 -42.9 79.9 -46.9 81.45 -51 75.8 -49.5 69.85 -48.5 68.2 -48.2 66.55 -47.9 72.75 -46.15 77.45 -41.15 Z" stroke="none" fill="#626696"></path>

<path d="M 35.45 -19.45
Q 35.49609375 -19.4109375 35.55 -19.4 36.74140625 -19.982421875 37.85 -20.85 40 -22.55 42.35 -21.45 43.5 -19.05 41.7 -16.55 40.35 -14.6 40.85 -12.2 41.65 -8.75 44.2 -6.35 48.45 -10.05 52.9 -13.45 56.9 -16.45 61.15 -18.75 61.45 -18.95 61.95 -18.75 62.1 -18.7 62.2 -18.6 63.35 -15.75 60.1 -13.7 57.7681640625 -12.2345703125 55.55 -10.65 56.1578125 -9.887109375 56.6 -8.95 57.5623046875 -8.3248046875 57.85 -6.95 58.1841796875 -5.2791015625 58.35 -3.6 58.7939453125 -5.38046875 59.6 -7.05 62.35 -12.6 67.25 -16.3 73.1 -20.75 80.35 -21.35 89.7 -21.35 94.35 -13.6 95.8376953125 -11.12578125 96.6 -8.6 96.9421875 -8.8337890625 97.3 -9.1 96.3 -10.498828125 96.3 -12.4 96.25 -15.5 94.95 -18.35 93.8 -19.6 92.75 -21 92.05 -21.9 91.45 -22.85 90.4 -23.5 89.5 -24.35 89.2 -24.65 88.95 -25.05 89.25 -29.05 93.1 -31.7 100.7 -36.95 108.35 -41.55 113.55 -38.5 115.25 -32.45 117.35 -25.05 114.8 -18 113.9357421875 -15.5953125 112.1 -13.95 112.20546875 -13.661328125 112.25 -13.35 112.7 -12.55 113.1 -11.8 113.65 -12.25 114.3 -12.6 115 -13 115.45 -13.7 121.2 -21.9 118.45 -31.65 115.5 -42.2 106.5 -49.25 105.8 -49.8 105 -50.25 104.75 -50.25 104.6 -50.25 92.75 -45.9 82.55 -38.7 81.45 -37.9 80.15 -37.4 79.75 -37.3 79.4 -37.35 79.05 -36.6 77.7 -36.2 76.95 -36 76.4 -36.65 69.65 -46.4 57.4 -44.4 51.1 -43.4 45.9 -39.75 47.15 -39.5 48.95 -39.15 51.4 -38.8 53.6 -37.9 54.3 -37.15 54 -36.15 53.4 -34.45 51.5 -34.65 49.95 -34.85 48.4 -34.85 42.15 -33 37.95 -28.05 34.82265625 -24.326953125 35.45 -19.45
M 12.45 -18.4
Q 12.1818359375 -15.83359375 10.4 -16.35 5.6546875 -7.326953125 8.9 2.55 12.1 12.45 21.5 16.95 21.85 17.3 22.15 17.55 22.5 17.9 22.7 18.4 22.75 18.5 22.8 18.7 22.8 18.95 22.75 19.25 22.7 19.5 22.5 19.8 22.3 20.05 22.05 20.4 20.95 21.1 19.7 20.55 18.6 20.1 17.6 19.35 13.85 18.55 10.15 17.45 12.35 22.2 16.15 26 19.15 28.95 23.35 30.2 29.55 31.4 35.75 30.5 35.95 29.15 37.55 28.95 40.05 29.85 42.3 31.4 44.1 32.6 46.15 33.3 51.65 35.15 57.45 35.5 63.3 35.9 69.1 35.2 74.9 34.5 80.25 32.45 81.6 31.95 82.95 31.95 84.45 31.95 84.6 33.3 84.7 34.05 84.55 34.6 89.85 35.2 95.45 34.6 99.95 34.1 103.8 31.65 107.5 29.25 110.25 26.05 112.3 23.65 113.6 20.7 108.1 22.5 102.5 23.25 102.2 23.05 101.9 22.8 101.75 22.65 101.55 22.4 101.65 19.3 105.2 17.9 107.6 16.95 109 14.75 115.9 4.2 111 -7.6 110.2 -9.45 109.25 -11.2 108.2 -10.8 107.1 -10.15 106.8 -9.95 106.35 -9.85 102.142578125 -6.9005859375 97.45 -4.65 97.808984375 -1.1580078125 96.95 2.45 96.9 2.75 96.85 3.05 95.35 7.5 92.1 10.9 85.1 18.35 74.65 17.65 68.8 17.25 64.2 13.4 59.31875 9.3140625 58.25 3.65 57.617578125 6.1025390625 56 8.25 55.05 9.55 53.75 10.6 45.6 17.2 35.4 14.65 26.3 12.4 22.6 4.15 19.4 -2.95 22.3 -10.3 22.323828125 -10.361328125 22.35 -10.45 19.1525390625 -13.11484375 16 -15.85 14.2 -17.35 12.35 -18.8 12.32578125 -18.7697265625 12.3 -18.75 12.3794921875 -18.57109375 12.45 -18.4
M 81.6 22.55
Q 84.45 20.15 86.45 23.95 88.5 27.8 84.2 29.75 75.5 33.7 66.1 31.3 60.85 30 56.35 27 45.55 30.7 35.6 25.9 33.85 25.05 32.9 23.3 32.55 20.45 34.8 18.5 36.15 17.3 37.75 16.95 38.75 17.05 39.25 17.85 39.5 18.15 39.65 18.55 39.75 20.1 38.4 20.95 37.7 21.45 37.05 22.1 37.05 22.2 37.05 22.25 37.1 22.35 37.2 22.45 37.35 22.65 37.5 22.8 45.75 26.3 54.65 23.55 57.9 22.5 60.9 24.8 61.55 25.3 62.4 25.7 72.55 30.35 82.7 26.05 82.9 26 83.1 25.8 82.8 25.4 82.45 25.1 81.9 24.6 81.55 24 81.55 23.8 81.5 23.65 81.45 23.3 81.5 22.9 81.55 22.75 81.6 22.55
M 64.9 15.25
Q 65.45 18 62.35 19.05 61.25 19.4 60.1 19.85 56.2 21.3 53.45 18.9 53.15 18.65 53.1 18.15 52.6 17.9 51.6 17.6 49.85 17.15 50.45 15.5 51.25 13.3 53.95 13.75 54.85 13.9 55.7 13.85 60.15 13.6 64.3 14.55 64.8 14.7 64.9 15.25
M 24.25 -30
Q 26.75 -28.8 28.75 -26.95 30.65 -23.4 28.9 -19.5 28.3630859375 -18.217578125 27.85 -16.95 28.9025390625 -17.5443359375 30.1 -18 30.8578125 -18.2939453125 31.6 -18.55 30.643359375 -25.9630859375 36.05 -31.55 38.35 -33.9 41.1 -35.65 40.4 -35.7 39.15 -37 38.85 -37.3 38.75 -37.55 28.35 -40.6 17.8 -43.2 12.7 -44.35 7.65 -45.7 7.4 -45.65 7.15 -45.6 2.9 -40.9 1 -34.85 -1.35 -27.5 2.8 -21.15 4.4 -18.65 6.2 -16.25 6.856640625 -17.4255859375 7.7 -18.5 3.4904296875 -24.9955078125 5.6 -32.6 6.15 -34.65 7.65 -36.2 8 -36.55 8.5 -36.7 8.7 -36.7 8.95 -36.7
L 8.95 -36.75
Q 16.7 -33.75 24.25 -30 Z" stroke="none" fill="#53545E"></path>

<path d="M 22.95 -55.15
Q 23.1 -54.75 23.3 -54.35 25.05 -50.75 27.3 -47.5 28.15 -46.3 28.85 -44.95 30.05 -45.8 32.2 -45.85 35.05 -45.95 37.9 -46.35 51.25 -48.2 64.4 -51.2 73.65 -53.3 82.85 -54.95 84.15 -59.1 85.05 -63.35 85.3 -64.35 85.1 -65.35 83.6 -66.55 81.6 -66.75 65.65 -68.05 50.05 -64.7 36.65 -61.8 24.3 -56.05 23.55 -55.7 22.95 -55.15 Z" stroke="none" fill="#525671"></path>
</g>
</g>
</g>
</g>
</g>
</svg>
