
<svg viewBox="0 0 272 172" height="172px" width="272px" y="0px" x="0px" preserveAspectRatio="none" xmlns:xlink="http://www.w3.org/1999/xlink" version="1.1" xmlns="http://www.w3.org/2000/svg">
<defs></defs>

<g id="Layer_2">
<g>
<g>
<g>
<path d="M 89.9 153.15
Q 89.65 153.05 89.6 153.2 89.7873046875 153.671484375 89.95 154.1 90.6802734375 154.1171875 91.35 154.1 90.6712890625 153.5859375 89.9 153.15
M 66.95 132.75
Q 66.7 133.3 66.55 133.9 66.6 134 66.6 134.05 66.6 134.5 66.8 134.85 66.9130859375 136.275 67.05 137.7 67.2083984375 139.425 67.4 141.15 67.55 142.85 67.7 144.5 69.35 144.5 71 144.85 71.1 144.85 71.25 144.9 73.8 144.6 76.4 144.25 76.3 142.7 74.55 141.15 73.3 140 72.5 138.5 72.1564453125 138.096875 71.8 137.7 69.51015625 135.0931640625 66.95 132.75
M 80.55 117
Q 79.7375 115.09140625 79 113.1 78.7 112.2 78.35 111.35 78.2 115.3 78.25 119.25 78.25 122.2 78.4 125.1 79.479296875 124.809375 80.55 124.5 82.05859375 124.0470703125 83.55 123.55 81.9404296875 120.3623046875 80.55 117
M 196.7 117.45
Q 196.7 117.3 196.65 117.2 195.6 118.6 194.65 120.1 193.65 121.7 192.4 123.15 192.1 123.3 191.85 123.5 191.75 123.6 191.7 123.75 194.05 124.8 197 126.05 197 125.85 197 125.7 197.15 123.95 196.7 122.35 196.7 121.45 196.7 120.6 196.7 119 196.7 117.45
M 204.55 141.9
Q 204.55 139.816796875 204.55 137.7 204.55 137.2259765625 204.55 136.75 204.55 135.55 204.55 134.3 203.45 134.75 202.15 134.95 201.4 135.05 200.6 135.2 200.45 135.35 200.3 135.5 200.15 135.65 200 135.75 199.9 135.8 199.8 135.8 198.65 136.15 197.55 136.65 197.45 136.8 197.3 136.9 196.8955078125 137.2595703125 196.5 137.7 196.4455078125 137.7494140625 196.4 137.8 196.3 137.85 196.2 137.85 195.8 138 195.4 138.1 195.25 138.25 195.05 138.35 194.35 138.65 194.15 139.3 194.15 139.4 194.1 139.45 193.4 139.8 192.65 140.05 198.45 141 204.55 141.9
M 94.5 130.85
Q 93.05 132.1 92.75 133.9 94.1619140625 136.266015625 96.5 137.7 97.233203125 138.144921875 98.05 138.5 101.05 139.75 103.25 139.2 104.75 138.8 106.05 139.45 111.1140625 140.462890625 114.4 137.7 115.0041015625 137.1896484375 115.55 136.55 115.75 136.35 115.9 136.15 115.95 136.05 115.95 135.95 115.95 135.7 116 135.4 116.05 135.05 116.2 134.75 116.25 134.7 116.25 134.6 116.25 134.5 116.25 134.4 116.25 134.3 116.2 134.2 116.1 134 115.95 133.8 115.95 133.7 115.95 133.6 115.95 133.5 115.95 133.4 115.95 133.2 115.95 133.05 115.95 132.95 115.95 132.85 115.95 132.75 115.9 132.65 115.85 132.55 115.8 132.45 115.75 132.35 115.7 132.25 115.6 132.15 115.45 132.05 115.15 131.8 114.95 131.45 114.8 131.25 114.7 131.05 114.65 130.95 114.5 130.9 114.2 130.65 114 130.3 113.85 130.1 113.75 129.9 113.65 129.8 113.55 129.75 113.35 129.7 113.15 129.6 113.05 129.5 113 129.4 112.9 129.3 112.9 129.2 108.7 126.5 103.65 126.95 98.45 127.4 94.5 130.85
M 172.85 129.4
Q 172.55 129.2 172.45 128.85 172.25 128.75 172.05 128.7 171.85 128.65 171.6 128.55 169.3 126.5 166.15 126.05 165.51328125 125.958984375 164.85 125.85 164.46328125 125.839453125 164.05 125.8 163.737890625 125.847265625 163.4 125.9 159.488671875 126.620703125 156.15 128.8 154.8 129.65 153.7 130.85 153.55 131.35 153.55 131.85 153.6 132.35 153.6 132.85 153.8 133.1 154 133.4 154.2 133.6 154.35 133.8 154.75 135.1 155.85 136.05 156.5 136.6 157.25 137.15 157.4 137.2 157.5 137.3 159.233203125 137.592578125 160.95 137.7 162.96015625 137.82578125 164.95 137.7 168.855078125 137.4546875 172.7 136.25 173.75 135.5 174.5 134.4 174.65 134.15 174.9 133.9 174.9 133.7 175 133.5 175.05 133.3 175.15 133.1 175.1 132.7 175.05 132.3 175 131.95 174.7 131.7 174.7 131.6 174.7 131.5 174.7 131.4 174.65 131.3 174.65 131.2 174.6 131.15 173.9 130.15 172.85 129.4 Z" stroke="none" fill="#EE9D33"></path>

<path d="M 94.2 154
Q 94.05 154 93.9 153.95 92.5 152.95 91 152.25 90.25 151.9 89.7 151.3 88.5 151.3 87.25 151.25 87.2 151.3 87.15 151.4 87.15 151.45 87.15 151.55 87.15 151.65 87.15 151.75 87.15 151.95 87.15 152.15 87.15 152.25 87.15 152.35 87.25 152.45 87.3 152.55 87.35 152.65 87.4 152.75 87.4 152.85 87.4 152.95 87.45 153.15 87.55 153.35 87.6 153.45 87.65 153.55 87.65 153.65 87.65 153.75 87.65 153.85 87.65 153.95 87.65 154.068359375 87.65 154.15 88.829296875 154.1568359375 89.95 154.1 89.7873046875 153.671484375 89.6 153.2 89.65 153.05 89.9 153.15 90.6712890625 153.5859375 91.35 154.1 93.0091796875 154.0828125 94.65 154.05 94.43046875 154.018359375 94.2 154
M 178.2 96.8
Q 178.8 97.1 178.65 97.75 178.6 97.9 178.6 98.05 179.3 100.85 179.15 103.9 179 106.8 179 109.7 186.05 110 193.15 110.25 194.15 110.8 195.3 111
L 195.3 111.05
Q 195.35 111.1 195.45 111.2 195.15 111.15 194.85 111.15 195.05 112.75 195.7 114.3 195.55 114.4 195.4 114.55 195.35 115 195.25 115.45 195.25 115.6 195.2 115.75 193.95 117.5 192.75 119.2 190.9 121.8 189.25 124.05 196.95 127.25 204.6 132.25 203.85 132.6 203.3 132.9 201.2 134.05 198.75 134.5 197.8 135.2 196.65 135.55 195.3 136 194.35 137.05 193.95 137.15 193.55 137.25 193.2736328125 137.4671875 193 137.7 192.6130859375 138.056640625 192.25 138.45 192.15 138.55 192.1 138.7 191.6 138.8 191.1 138.95 191.05 138.95 191 139 190.9 139.1 190.8 139.2 190.15 139.75 189.7 140.5 189.65 140.6 189.65 140.75 199.9 142.1 210.15 143.7 210.15 143.85 210.15 144.05 210.15 145.7 210.15 147.4 210.15 148.35 210.15 149.25 209.71015625 150.3498046875 209.3 151.45 211.0095703125 151.39296875 212.7 151.3 212.5259765625 148.54921875 212.35 145.8 212.35 145.7 212.35 145.65 212.25 145.65 212.2 145.65 212.2 144.35 212.2 143 209.35 142.6 206.55 142.2 206.55 140.3 206.55 138.4 206.55 138.049609375 206.55 137.7 206.55 135.40625 206.55 133.15 206.9 132.8 207.25 132.45 204.7 129.35 200.75 127.65 199.85 127.25 198.95 126.9 198.95 125.45 199 124 199.05 122.85 198.65 121.85 198.65 120.15 198.75 118.5 198.8 117.35 198.4 116.3 198.5 115.25 198.2 114.3 198.4 113.95 198.55 113.6 198.6 113.45 198.65 113.3 198.65 113 198.65 112.7 198.65 112.1 198.65 111.45 198.6 111.3 198.55 111.15 198.2 111.05 197.85 110.95 197.85 110.9 197.8 110.9 197.7 110.75 197.55 110.6 197.45 110.5 197.35 110.35 196.4 110.05 195.5 109.7 195.25 109.6 195 109.5 188 109.25 181.05 109 181.05 106.25 181.05 103.5 181.05 100.85 181.05 98.25 181 98.1 180.9 98 180.6 97.55 180.65 97 180.65 96.85 180.65 96.7 180.65 96.55 180.55 96.5 180.25 96.25 180 95.9 179.9 95.75 179.7 95.6 170.1 96.65 161 99.4 160.95 99.1 160.8 98.9 160.75 98.7 160.55 98.55 160.55 98.4 160.55 98.25 160.35 97.8 160.2 97.3 160.15 97.2 160.15 97.05 159.95 96.7 159.8 96.4 159.75 96.25 159.75 96.1 159.75 95.95 159.75 95.8 159.95 94.05 159.6 92.35 159.4 91.45 158.95 90.55 158.95 90.25 158.95 89.95 158.95 89.8 158.95 89.65 158.9 89.5 158.8 89.4 158.45 88.95 158.5 88.4 158.55 88.25 158.55 88.1 158.5 87.95 158.4 87.85 158.25 87.65 158.1 87.5 158.05 87.2 157.95 86.9 157.85 86.75 157.7 86.6 156.4 86.55 155.05 86.55 154.9 86.6 154.75 86.7 154.2 87.1 153.7 87.6 153.5 87.75 153.3 87.9 151.591015625 88.6080078125 149.9 89.35 144.6642578125 91.6912109375 139.6 94.45 139.05 94.5 138.55 94.45 138.5 94.45 138.45 94.35 138.15 93.35 137.25 92.8 137.05 92.65 136.9 92.5 136.85 92.35 136.8 92.2 136.75 92.05 136.7 91.9 136.3 91.6 135.9 91.25 135.75 91.15 135.6 91 134.9 89.8 134.35 88.55 134.1 87.85 133.55 87.3 133.55 87.15 133.5 87 132.95 85.7 132 84.55 131.55 84 131.4 83.3 131.1 83.2 130.8 83.05 130.75 83.05 130.65 83 130.55 82.9 130.5 82.8 130.35 82.65 130.25 82.5 129.15 82.45 128 82.4 125.5 84.05 123.3 86.45 118.5 91.7 114.6 97.35 114.1 96.95 113.5 96.6 107.35 92.9 101.7 88.3 101.15 88.15 100.6 87.95 100.4 87.9 100.25 87.8 99.2 87.75 98.1 87.8 98 87.8 97.9 87.9 97.95 88.45 97.65 88.85 97.55 89 97.5 89.15 97.5 89.45 97.5 89.75 97.25 93.9 97.2 98.05 97.1 103.25 97.1 108.5 91.85 108.15 86.8 106.5 83.539453125 105.4580078125 80.55 105.45 79.0927734375 105.454296875 77.7 105.7 77.15 105.65 76.65 105.65 76.65 105.8 76.65 105.95 76.4 106 76.2 106.05 76.4 106.45 76.55 106.9 76.35 109.65 76.35 112.45 76.35 119 76.35 125.55 74.4 125.95 72.45 126.25 67.4 127 64.3 129.3 64.75 130.25 65.35 131.05 65.05 131.9 64.8 132.8 64.35 134.2 64.85 135.5 64.89609375 136.6052734375 64.95 137.7 65.0880859375 138.9822265625 65.25 140.25 65.6 142.4 65.65 144.6 65.25 144.65 64.85 144.7 62.6 145.35 60.25 146.1 60.15 146.15 60 146.2 59.95 146.25 59.95 146.35 59.25 146.4 58.6 146.5 59.2 146.5 59.85 146.55 59.8 146.55 59.75 146.6 59.65 146.7 59.6 146.8 59.6 146.9 59.6 147 59.6 147.1 59.6 147.2 59.6 147.3 59.6 147.4 59.6 147.45 59.6 147.5 59.55 147.5 59.45 147.55 59.4 147.55 59.4 147.7 59.4 147.85 59.4 148 59.4 148.5 59.4 148.95 59.4 149.1 59.4 149.25 59.9 149.6 59.85 150.15 59.8 150.3 59.8 150.5 60.05 150.8 60.3 151.1 60.45 151.25 60.55 151.4 60.6 151.55 60.6 151.7 60.6 152.25 60.9 152.65 60.87421875 153.446484375 60.8 154.2 61.9666015625 154.2412109375 63.1 154.25 63.1 154.19921875 63.1 154.15 63.1 153.4 63.1 152.65 63.1 152.45 63.1 152.3 63.05 152.15 63 152 62.95 151.8 62.85 151.65 62.85 151.5 62.85 151.35 62.75 151.25 62.7 151.1 62.65 151 62.6 150.9 62.6 150.65 62.6 150.4 62.6 149.55 62.6 148.65 62.6 148.55 62.6 148.4
L 62.6 148.3
Q 62.2 148.25 61.85 148.25 61.85 148.15 61.85 148.05 61.85 147.85 61.8 147.65 61.8 147.45 61.85 147.25 61.85 147.15 61.9 147.05 62.5 146.75 63.1 146.55 67.55 146.5 72.4 146.15 76.55 145.8 79.05 144.15 78 141.9 76.45 139.85 75.5837890625 138.753515625 74.65 137.7 71.458203125 133.95078125 67.75 130.75 67.9 130.25 67.85 129.75
L 67.85 129.65
Q 67.35 129.55 66.85 129.55 66.8 129.45 66.7 129.35 66.55 129.25 66.45 129.1 73.9017578125 127.8400390625 80.55 125.7 83.1357421875 124.9021484375 85.6 123.95 85.6 123.8 85.6 123.65 85.6 123.2 85.6 122.75 85.55 122.55 85.5 122.4 83.65 119.55 82.4 116.35 81.446484375 113.797265625 80.55 111.2 79.9888671875 109.6166015625 79.45 108 79.2 107.7 78.95 107.35 78.85 107.2 78.75 107.05 78.7 106.75 78.6 106.45
L 78.6 106.4
Q 78.6 106.3 78.6 106.2 79.5765625 106.45703125 80.55 106.7 89.99375 108.9734375 99.15 109.2 99.15 108.9 99.15 108.6 99.15 104.45 99.1 100.3 99.05 94.6 99.85 89.25 100.6 89.75 101.35 90.25 103.5 91.75 105.7 93.15 106.2 93.8 106.85 94.3 110.05 96.45 113.25 98.45 115.05 98.3 116.85 98.15 118.1 95.9 119.65 93.85 123.65 88.55 128.5 84 128.95 83.95 129.35 84 129.4 84 129.45 84.1 129.5 84.3 129.55 84.4 130.1 85.6 130.95 86.6 131.2 86.9 131.4 87.2 131.45 87.35 131.45 87.5 131.5 87.65 131.5 87.8 132.45 88.9 132.9 90.25 133.15 90.9 133.45 91.5 134.15 92.05 134.7 92.8 134.75 92.9 134.75 93.05 135.75 93.8 136.35 94.9 136.4 95.05 136.4 95.2 136.75 95.3 137.1 95.4 137.2 95.45 137.25 95.5 137.3 95.6 137.35 95.7 137.5 95.85 137.65 96 138.85 96.05 140.1 96.05
L 140.1 96
Q 144.9904296875 93.1703125 149.9 90.85 152.9712890625 89.4314453125 156.05 88.2 156.55 88.55 156.5 89.15 156.5 89.3 156.5 89.45 156.6 89.6 156.7 89.75 156.8 89.9 156.9 90.05 156.9 90.5 156.9 91 156.9 91.15 156.9 91.3 157.05 91.6 157.1 91.9 157.25 92.85 157.55 93.75 157.6 93.9 157.7 94.05 157.7 94.5 157.7 95 157.7 95.75 157.7 96.5 157.7 96.65 157.7 96.8 157.9 97.3 158.05 97.75 158.1 97.9 158.1 98.05 158.2 98.2 158.3 98.35 158.6 99.3 159.05 100.2 159.15 100.35 159.25 100.5 168.85 98.7 178.2 96.8
M 204.55 137.7
Q 204.55 139.816796875 204.55 141.9 198.45 141 192.65 140.05 193.4 139.8 194.1 139.45 194.15 139.4 194.15 139.3 194.35 138.65 195.05 138.35 195.25 138.25 195.4 138.1 195.8 138 196.2 137.85 196.3 137.85 196.4 137.8 196.4455078125 137.7494140625 196.5 137.7 196.8955078125 137.2595703125 197.3 136.9 197.45 136.8 197.55 136.65 198.65 136.15 199.8 135.8 199.9 135.8 200 135.75 200.15 135.65 200.3 135.5 200.45 135.35 200.6 135.2 201.4 135.05 202.15 134.95 203.45 134.75 204.55 134.3 204.55 135.55 204.55 136.75 204.55 137.2259765625 204.55 137.7
M 196.65 117.2
Q 196.7 117.3 196.7 117.45 196.7 119 196.7 120.6 196.7 121.45 196.7 122.35 197.15 123.95 197 125.7 197 125.85 197 126.05 194.05 124.8 191.7 123.75 191.75 123.6 191.85 123.5 192.1 123.3 192.4 123.15 193.65 121.7 194.65 120.1 195.6 118.6 196.65 117.2
M 79 113.1
Q 79.7375 115.09140625 80.55 117 81.9404296875 120.3623046875 83.55 123.55 82.05859375 124.0470703125 80.55 124.5 79.479296875 124.809375 78.4 125.1 78.25 122.2 78.25 119.25 78.2 115.3 78.35 111.35 78.7 112.2 79 113.1
M 66.55 133.9
Q 66.7 133.3 66.95 132.75 69.51015625 135.0931640625 71.8 137.7 72.1564453125 138.096875 72.5 138.5 73.3 140 74.55 141.15 76.3 142.7 76.4 144.25 73.8 144.6 71.25 144.9 71.1 144.85 71 144.85 69.35 144.5 67.7 144.5 67.55 142.85 67.4 141.15 67.2083984375 139.425 67.05 137.7 66.9130859375 136.275 66.8 134.85 66.6 134.5 66.6 134.05 66.6 134 66.55 133.9
M 91.2 135.2
Q 91.35 135.3 91.45 135.4 92.386328125 136.7248046875 93.55 137.7 95.7427734375 139.485546875 98.75 140.1 107.5 141.8 115.85 139.1 116.2 138.75 116.6 138.4 116.975 138.071875 117.2 137.7 117.234375 137.6751953125 117.25 137.65 117.5 137.3 117.75 137 117.8 136.9 117.85 136.8 117.9 136.75 117.95 136.65 117.95 136.55 117.95 136.45 117.95 136.35 117.95 136.25 117.95 136.15 117.95 136.05 117.95 135.95 118 135.85 118.05 135.75 118.1 135.65 118.15 135.55 118.2 135.45 118.2 135.35 118.2 135.25 118.2 134.95 118.2 134.65 118.2 134.55 118.2 134.45 118.2 134.35 118.2 134.25 118.2 134.05 118.2 133.9 118.2 133.8 118.2 133.7 118.2 133.6 118.2 133.5 118.15 133.4 118.1 133.3 118.05 133.2 118 133.05 117.95 133 117.95 132.9 117.95 132.8 117.95 132.7 117.95 132.6 117.95 132.5 117.9 132.3 117.85 132.1 117.85 132 117.8 131.9 117.75 131.8 117.75 131.7 117.65 131.6 117.6 131.5 117.5 131.4 117.35 131.3 117.25 131.2 117.15 131.15 117.05 131.05 116.95 130.95 116.9 130.85 116.9 130.75 116.85 130.65 116.8 130.55 116.75 130.45 116.7 130.35 116.55 130.25 116.45 130.15 116.35 130.05 116.25 129.95 116.05 129.75 115.9 129.55 115.85 129.45 115.75 129.35 115.7 129.25 115.65 129.15 115.5 129.1 115.3 129.05 115.2 129 115.15 128.95 115.05 128.9 115 128.85 114.9 128.75 114.85 128.65 114.75 128.55 114.65 128.45 113.45 127.7 112.15 127.2 108.05 125.75 103.65 125.95 97.55 126.2 92.75 130.05 91.4 131.15 90.8 132.85 90.8 132.95 90.8 133.05 90.8 133.3 90.8 133.6 90.8 133.7 90.8 133.8 90.8 133.9 90.8 134 90.8 134.2 90.8 134.4 90.8 134.5 90.8 134.6 90.85 134.7 90.85 134.8 90.95 134.9 91 135 91.1 135.1 91.2 135.2
M 92.75 133.9
Q 93.05 132.1 94.5 130.85 98.45 127.4 103.65 126.95 108.7 126.5 112.9 129.2 112.9 129.3 113 129.4 113.05 129.5 113.15 129.6 113.35 129.7 113.55 129.75 113.65 129.8 113.75 129.9 113.85 130.1 114 130.3 114.2 130.65 114.5 130.9 114.65 130.95 114.7 131.05 114.8 131.25 114.95 131.45 115.15 131.8 115.45 132.05 115.6 132.15 115.7 132.25 115.75 132.35 115.8 132.45 115.85 132.55 115.9 132.65 115.95 132.75 115.95 132.85 115.95 132.95 115.95 133.05 115.95 133.2 115.95 133.4 115.95 133.5 115.95 133.6 115.95 133.7 115.95 133.8 116.1 134 116.2 134.2 116.25 134.3 116.25 134.4 116.25 134.5 116.25 134.6 116.25 134.7 116.2 134.75 116.05 135.05 116 135.4 115.95 135.7 115.95 135.95 115.95 136.05 115.9 136.15 115.75 136.35 115.55 136.55 115.0041015625 137.1896484375 114.4 137.7 111.1140625 140.462890625 106.05 139.45 104.75 138.8 103.25 139.2 101.05 139.75 98.05 138.5 97.233203125 138.144921875 96.5 137.7 94.1619140625 136.266015625 92.75 133.9
M 173.9 128
Q 173.75 127.95 173.6 127.9 173.5 127.9 173.45 127.85 172.4 126.7 170.85 126.1 166.8 124.55 162.3 125.1 158 125.7 154.3 128.05 153 128.85 151.95 129.95 151.9 130.05 151.85 130.15 151.8 130.25 151.75 130.35 151.7 130.45 151.6 130.55 151.6 130.95 151.6 131.3 151.6 131.8 151.6 132.3 151.6 132.8 151.6 133.3 151.6 133.4 151.6 133.5 151.8 133.8 152.05 134.05 152.1 134.15 152.2 134.25 152.3 134.35 152.4 134.45 153.36953125 136.7931640625 155.55 137.7 156.1048828125 137.915625 156.7 138.05 164.36484375 139.729296875 172.1 137.7 173.3509765625 137.3732421875 174.6 136.95 175.55 136.25 176.25 135.35 176.85 134.6 177.1 133.8 177.15 133.7 177.2 133.6 177.2 133.5 177.2 133.4 177.2 133.15 177.2 132.85 177.2 132.65 177.2 132.45 177.2 132.35 177.2 132.25 177.1 132.15 177.05 132.05 177 131.95 176.9 131.85 176.9 131.65 176.9 131.45 176.9 131.35 176.85 131.3 176.8 131.15 176.65 131.05 176.65 130.85 176.65 130.65 176.6 130.55 176.6 130.45 176.55 130.35 176.5 130.25 176.1 129.95 175.75 129.55 175.1 128.9 174.45 128.3 174.35 128.2 174.3 128.1 174.1 128.05 173.9 128
M 172.45 128.85
Q 172.55 129.2 172.85 129.4 173.9 130.15 174.6 131.15 174.65 131.2 174.65 131.3 174.7 131.4 174.7 131.5 174.7 131.6 174.7 131.7 175 131.95 175.05 132.3 175.1 132.7 175.15 133.1 175.05 133.3 175 133.5 174.9 133.7 174.9 133.9 174.65 134.15 174.5 134.4 173.75 135.5 172.7 136.25 168.855078125 137.4546875 164.95 137.7 162.96015625 137.82578125 160.95 137.7 159.233203125 137.592578125 157.5 137.3 157.4 137.2 157.25 137.15 156.5 136.6 155.85 136.05 154.75 135.1 154.35 133.8 154.2 133.6 154 133.4 153.8 133.1 153.6 132.85 153.6 132.35 153.55 131.85 153.55 131.35 153.7 130.85 154.8 129.65 156.15 128.8 159.488671875 126.620703125 163.4 125.9 163.737890625 125.847265625 164.05 125.8 164.46328125 125.839453125 164.85 125.85 165.51328125 125.958984375 166.15 126.05 169.3 126.5 171.6 128.55 171.85 128.65 172.05 128.7 172.25 128.75 172.45 128.85 Z" stroke="none" fill="#000000"></path>

<path d="M 178.65 97.75
Q 178.8 97.1 178.2 96.8 168.85 98.7 159.25 100.5 159.15 100.35 159.05 100.2 158.6 99.3 158.3 98.35 158.2 98.2 158.1 98.05 158.1 97.9 158.05 97.75 157.9 97.3 157.7 96.8 157.7 96.65 157.7 96.5 157.7 95.75 157.7 95 157.7 94.5 157.7 94.05 157.6 93.9 157.55 93.75 157.25 92.85 157.1 91.9 157.05 91.6 156.9 91.3 156.9 91.15 156.9 91 156.9 90.5 156.9 90.05 156.8 89.9 156.7 89.75 156.6 89.6 156.5 89.45 156.5 89.3 156.5 89.15 156.55 88.55 156.05 88.2 152.9712890625 89.4314453125 149.9 90.85 144.9904296875 93.1703125 140.1 96
L 140.1 96.05
Q 138.85 96.05 137.65 96 137.5 95.85 137.35 95.7 137.3 95.6 137.25 95.5 137.2 95.45 137.1 95.4 136.75 95.3 136.4 95.2 136.4 95.05 136.35 94.9 135.75 93.8 134.75 93.05 134.75 92.9 134.7 92.8 134.15 92.05 133.45 91.5 133.15 90.9 132.9 90.25 132.45 88.9 131.5 87.8 131.5 87.65 131.45 87.5 131.45 87.35 131.4 87.2 131.2 86.9 130.95 86.6 130.1 85.6 129.55 84.4 129.5 84.3 129.45 84.1 129.4 84 129.35 84 128.95 83.95 128.5 84 123.65 88.55 119.65 93.85 118.1 95.9 116.85 98.15 115.05 98.3 113.25 98.45 110.05 96.45 106.85 94.3 106.2 93.8 105.7 93.15 103.5 91.75 101.35 90.25 100.6 89.75 99.85 89.25 99.05 94.6 99.1 100.3 99.15 104.45 99.15 108.6 99.15 108.9 99.15 109.2 89.99375 108.9734375 80.55 106.7 79.5765625 106.45703125 78.6 106.2 78.6 106.3 78.6 106.4
L 78.6 106.45
Q 78.7 106.75 78.75 107.05 78.85 107.2 78.95 107.35 79.2 107.7 79.45 108 79.9888671875 109.6166015625 80.55 111.2 81.446484375 113.797265625 82.4 116.35 83.65 119.55 85.5 122.4 85.55 122.55 85.6 122.75 85.6 123.2 85.6 123.65 85.6 123.8 85.6 123.95 83.1357421875 124.9021484375 80.55 125.7 73.9017578125 127.8400390625 66.45 129.1 66.55 129.25 66.7 129.35 66.8 129.45 66.85 129.55 67.35 129.55 67.85 129.65
L 67.85 129.75
Q 67.9 130.25 67.75 130.75 71.458203125 133.95078125 74.65 137.7 75.5837890625 138.753515625 76.45 139.85 78 141.9 79.05 144.15 76.55 145.8 72.4 146.15 67.55 146.5 63.1 146.55 62.5 146.75 61.9 147.05 61.85 147.15 61.85 147.25 61.8 147.45 61.8 147.65 61.85 147.85 61.85 148.05 61.85 148.15 61.85 148.25 62.2 148.25 62.6 148.3
L 62.6 148.4
Q 62.6 148.55 62.6 148.65 62.6 149.55 62.6 150.4 62.6 150.65 62.6 150.9 62.65 151 62.7 151.1 62.75 151.25 62.85 151.35 62.85 151.5 62.85 151.65 62.95 151.8 63 152 63.05 152.15 63.1 152.3 63.1 152.45 63.1 152.65 63.1 153.4 63.1 154.15 63.1 154.19921875 63.1 154.25 71.7466796875 154.3173828125 80.55 154.25 84.0998046875 154.2236328125 87.65 154.15 87.65 154.068359375 87.65 153.95 87.65 153.85 87.65 153.75 87.65 153.65 87.65 153.55 87.6 153.45 87.55 153.35 87.45 153.15 87.4 152.95 87.4 152.85 87.4 152.75 87.35 152.65 87.3 152.55 87.25 152.45 87.15 152.35 87.15 152.25 87.15 152.15 87.15 151.95 87.15 151.75 87.15 151.65 87.15 151.55 87.15 151.45 87.15 151.4 87.2 151.3 87.25 151.25 88.5 151.3 89.7 151.3 90.25 151.9 91 152.25 92.5 152.95 93.9 153.95 94.05 154 94.2 154 94.43046875 154.018359375 94.65 154.05 100.046875 153.9541015625 105.5 153.8 117.8 153.45 130.15 153.45 140.044921875 153.419921875 149.9 153.25 179.7927734375 152.86875 209.3 151.45 209.71015625 150.3498046875 210.15 149.25 210.15 148.35 210.15 147.4 210.15 145.7 210.15 144.05 210.15 143.85 210.15 143.7 199.9 142.1 189.65 140.75 189.65 140.6 189.7 140.5 190.15 139.75 190.8 139.2 190.9 139.1 191 139 191.05 138.95 191.1 138.95 191.6 138.8 192.1 138.7 192.15 138.55 192.25 138.45 192.6130859375 138.056640625 193 137.7 193.2736328125 137.4671875 193.55 137.25 193.95 137.15 194.35 137.05 195.3 136 196.65 135.55 197.8 135.2 198.75 134.5 201.2 134.05 203.3 132.9 203.85 132.6 204.6 132.25 196.95 127.25 189.25 124.05 190.9 121.8 192.75 119.2 193.95 117.5 195.2 115.75 195.25 115.6 195.25 115.45 195.35 115 195.4 114.55 195.55 114.4 195.7 114.3 195.05 112.75 194.85 111.15 195.15 111.15 195.45 111.2 195.35 111.1 195.3 111.05
L 195.3 111
Q 194.15 110.8 193.15 110.25 186.05 110 179 109.7 179 106.8 179.15 103.9 179.3 100.85 178.6 98.05 178.6 97.9 178.65 97.75
M 173.6 127.9
Q 173.75 127.95 173.9 128 174.1 128.05 174.3 128.1 174.35 128.2 174.45 128.3 175.1 128.9 175.75 129.55 176.1 129.95 176.5 130.25 176.55 130.35 176.6 130.45 176.6 130.55 176.65 130.65 176.65 130.85 176.65 131.05 176.8 131.15 176.85 131.3 176.9 131.35 176.9 131.45 176.9 131.65 176.9 131.85 177 131.95 177.05 132.05 177.1 132.15 177.2 132.25 177.2 132.35 177.2 132.45 177.2 132.65 177.2 132.85 177.2 133.15 177.2 133.4 177.2 133.5 177.2 133.6 177.15 133.7 177.1 133.8 176.85 134.6 176.25 135.35 175.55 136.25 174.6 136.95 173.3509765625 137.3732421875 172.1 137.7 164.36484375 139.729296875 156.7 138.05 156.1048828125 137.915625 155.55 137.7 153.36953125 136.7931640625 152.4 134.45 152.3 134.35 152.2 134.25 152.1 134.15 152.05 134.05 151.8 133.8 151.6 133.5 151.6 133.4 151.6 133.3 151.6 132.8 151.6 132.3 151.6 131.8 151.6 131.3 151.6 130.95 151.6 130.55 151.7 130.45 151.75 130.35 151.8 130.25 151.85 130.15 151.9 130.05 151.95 129.95 153 128.85 154.3 128.05 158 125.7 162.3 125.1 166.8 124.55 170.85 126.1 172.4 126.7 173.45 127.85 173.5 127.9 173.6 127.9
M 91.45 135.4
Q 91.35 135.3 91.2 135.2 91.1 135.1 91 135 90.95 134.9 90.85 134.8 90.85 134.7 90.8 134.6 90.8 134.5 90.8 134.4 90.8 134.2 90.8 134 90.8 133.9 90.8 133.8 90.8 133.7 90.8 133.6 90.8 133.3 90.8 133.05 90.8 132.95 90.8 132.85 91.4 131.15 92.75 130.05 97.55 126.2 103.65 125.95 108.05 125.75 112.15 127.2 113.45 127.7 114.65 128.45 114.75 128.55 114.85 128.65 114.9 128.75 115 128.85 115.05 128.9 115.15 128.95 115.2 129 115.3 129.05 115.5 129.1 115.65 129.15 115.7 129.25 115.75 129.35 115.85 129.45 115.9 129.55 116.05 129.75 116.25 129.95 116.35 130.05 116.45 130.15 116.55 130.25 116.7 130.35 116.75 130.45 116.8 130.55 116.85 130.65 116.9 130.75 116.9 130.85 116.95 130.95 117.05 131.05 117.15 131.15 117.25 131.2 117.35 131.3 117.5 131.4 117.6 131.5 117.65 131.6 117.75 131.7 117.75 131.8 117.8 131.9 117.85 132 117.85 132.1 117.9 132.3 117.95 132.5 117.95 132.6 117.95 132.7 117.95 132.8 117.95 132.9 117.95 133 118 133.05 118.05 133.2 118.1 133.3 118.15 133.4 118.2 133.5 118.2 133.6 118.2 133.7 118.2 133.8 118.2 133.9 118.2 134.05 118.2 134.25 118.2 134.35 118.2 134.45 118.2 134.55 118.2 134.65 118.2 134.95 118.2 135.25 118.2 135.35 118.2 135.45 118.15 135.55 118.1 135.65 118.05 135.75 118 135.85 117.95 135.95 117.95 136.05 117.95 136.15 117.95 136.25 117.95 136.35 117.95 136.45 117.95 136.55 117.95 136.65 117.9 136.75 117.85 136.8 117.8 136.9 117.75 137 117.5 137.3 117.25 137.65 117.234375 137.6751953125 117.2 137.7 116.975 138.071875 116.6 138.4 116.2 138.75 115.85 139.1 107.5 141.8 98.75 140.1 95.7427734375 139.485546875 93.55 137.7 92.386328125 136.7248046875 91.45 135.4 Z" stroke="none" fill="#FDDF5E"></path>
</g>
</g>
</g>
</g>
</svg>
