
<svg viewBox="0 0 134 108" height="108px" width="134px" y="0px" x="0px" preserveAspectRatio="none" xmlns:xlink="http://www.w3.org/1999/xlink" version="1.1" xmlns="http://www.w3.org/2000/svg">
<defs></defs>

<g id="Layer_1"></g>

<g id="Layer_2">
<g transform="matrix( 1.0723876953125, 0, 0, 1.0868072509765625, 270.9,43.7)" id="Layer_1">
<g>
<g>
<g>
<path d="M -243.4 -26.7
Q -244.05 -24.35 -244.45 -21.95 -246.4 -10.25 -242.85 1.05 -240.9 7.3 -236.65 11.3 -237.3 11.65 -237.5 12.35 -238.4 16.7 -237.35 21.2 -235.95 27.3 -232.35 32.35 -233.25 32.45 -234.05 32.75 -234.85 33.1 -234.8 33.85 -234.5 38.2 -231.6 42 -222.1 54.3 -206.6 57.75 -187.75 61.95 -168.6 58.15 -154.55 55.35 -146.75 43.7 -143.45 39.05 -143.75 33.3 -143.9587890625 28.8484375 -146.1 25.15 -145.0333984375 23.3828125 -144.85 21.05 -144.662109375 20.941015625 -144.5 20.8 -143.8 20.2 -142.95 19.7 -140.1876953125 18.0001953125 -140.45 15.5 -138.076171875 13.0453125 -136.6 9.95 -132.15 0.45 -133.6 -9.95 -134.2 -14.5 -136.2 -18.6 -136.25 -18.7 -136.25 -18.8 -136.25 -18.9 -136.25 -19 -136.3 -19.2 -136.35 -19.35 -136.4 -19.6 -136.45 -19.8 -136.45 -19.85 -136.45 -19.95 -136.5 -20.05 -136.6 -20.15 -136.9 -20.75 -137.15 -21.35 -137.35 -21.7 -137.45 -22.15 -137.65 -22.85 -138.2 -23.3 -138.3 -23.4 -138.4 -23.5 -141.15 -28.6 -145.5 -32.35 -154.8 -40.5 -167.25 -40.2 -173.9 -39 -179.4 -34.8 -181.15 -33.45 -182.7 -31.9 -184.15 -33.5 -186.3 -33.05 -189.15 -32.45 -191 -30.1 -191.55 -29.4 -192.25 -28.95 -192.3 -29.05 -192.35 -29.15 -192.4 -29.25 -192.5 -29.3 -192.6 -29.45 -192.75 -29.55 -192.85 -29.65 -192.95 -29.75 -193.55 -31.45 -194.8 -32.7 -196 -33.85 -197.2 -32.65 -199.05 -30.8 -199.6 -28.15 -199.85 -27 -200.4 -26.4 -206.85 -31.35 -214.85 -33.4 -224.7 -35.95 -234.75 -34.2 -241.65 -33 -243.4 -26.7
M -239 -26.5
Q -238.9 -26.6 -238.85 -26.75 -238.7 -26.9 -238.55 -27.1 -238.45 -27.3 -238.35 -27.5 -238.25 -27.8 -238.1 -28.1 -238.05 -28.2 -237.95 -28.3 -237.85 -28.4 -237.7 -28.5 -237.6 -28.6 -237.5 -28.7 -237.4 -28.8 -237.3 -28.9 -221.85 -34.1 -207.5 -26.6 -204.9 -25.25 -203.05 -22.95 -200.8146484375 -20.223046875 -198.1 -21 -197.7783203125 -21.0623046875 -197.45 -21.2 -197.35 -21.5 -197.2 -21.8 -197.15 -22 -197.1 -22.2 -197.05 -22.4 -197.05 -22.6 -197 -23 -197 -23.4 -197 -23.45 -197 -23.55 -196.9 -23.85 -196.75 -24.15 -196.6 -24.65 -196.45 -25.15 -196.35 -25.55 -196.2 -25.95 -196.05 -26.45 -195.75 -26.85 -195.75 -26.9 -195.65 -26.9 -195.45 -26.5 -195.2 -26.15 -194.35 -24.6 -192.65 -24.55 -189.9 -24.4 -188.25 -26.95 -187.75 -27.7 -187.1 -28.4 -186.9 -28.5 -186.75 -28.65 -186.6 -28.7 -186.45 -28.8 -186.35 -28.9 -186.25 -28.95
L -186.2 -28.9
Q -185.9 -27.45 -184.85 -26.5 -183.6 -25.3 -182.45 -26.55 -180.1 -29.15 -177.3 -31.4 -168.6 -38.4 -157.75 -35.15 -157.1 -34.65 -156.3 -34.3 -155.05 -33.75 -153.8 -33.3 -153.7 -33.25 -153.55 -33.2 -152.15 -32.1 -150.65 -31.1 -146.05 -28.15 -143.1 -23.55 -142.1 -22 -141.05 -20.45 -139.7 -17.25 -138.6 -13.95 -137.4 -10.4 -137.35 -6.65 -137.35 -5.05 -137.05 -3.5 -137.35 -2.25 -137.4 -0.95 -137.85 6.5 -142.75 11.8 -143.391796875 12.48203125 -144.05 13.1 -145.1294921875 12.9353515625 -146.25 12.95 -146.3107421875 12.9486328125 -146.4 12.95 -146.5755859375 12.591015625 -146.8 12.25 -152.45 3.75 -163.15 4.4 -168.35 4.5 -172.85 7.2 -174.3923828125 8.136328125 -175.65 9.25 -177.74921875 11.2205078125 -178.9 13.75 -179.07734375 13.5953125 -179.25 13.45 -179.35 13.35 -179.45 13.25 -182.6 8.75 -182.9 3.25 -183.45 -7 -174.4 -11.85 -170.8677734375 -13.7423828125 -167.5 -13.2 -165.4884765625 -12.8630859375 -163.55 -11.7 -159.65 -9.35 -159.8 -4.95 -159.85 -2.95 -160.15 -1 -160.3 -0.15 -159.45 0.05 -155.85 0.85 -155.5 -3.3 -155.050390625 -8.4712890625 -158.1 -12.05 -159.134375 -13.2353515625 -160.55 -14.25 -168.8 -20.2 -177.4 -14.6 -188.0689453125 -7.658203125 -186.7 4.6 -193.5076171875 -0.440234375 -202.4 0 -206.8 0.45 -210.8 2.65 -213.5466796875 4.1875 -215.5 6.15 -216.7841796875 5.1314453125 -218.75 4.95 -219 4.95 -219.3 5.05 -220.1 5.25 -220.3 6.05 -221 9 -219.6 11.85 -219.4703125 12.1095703125 -219.3 12.25 -220.17421875 14.9119140625 -220.25 18 -220.35 23.2 -216.55 26.8 -210.6 32.35 -202.35 32.85 -192.25 33.5 -184.75 26.9 -181.0279296875 23.6060546875 -180.25 19.3 -180.2455078125 19.410546875 -180.25 19.5 -180.55 25.55 -175.45 29.1 -175.05 30.35 -173.75 30.7 -170.95 31.4 -168 31.85 -165.0130859375 32.27890625 -162.2 32.1 -159.8755859375 32.0650390625 -157.45 31.6 -153.35 30.8 -149.7 28.7 -149.319921875 28.48046875 -149 28.25 -148.115625 30.3478515625 -147.85 32.65 -147.5 35.75 -148.45 38.7 -148.5 38.8 -148.55 38.9 -155.65 52.05 -170.95 54.45 -176.65 55.35 -182.45 55.9 -184.1814453125 56.05546875 -185.9 56.1 -180.698828125 54.3505859375 -177.7 49.4 -175.71640625 50.140625 -173.6 50.5 -171.6 50.85 -169.8 50.1 -165.1 48.15 -165.95 43.2 -166.05 42.65 -166.5 42.5 -169.9 41.2 -169.65 44.9 -169.9 45.3 -170 45.7 -170.1 46 -170.35 46.15 -176.1 47.1 -181.05 43.4 -183 41.9 -185.4 42.6 -195.05 45.45 -203.4 40.4 -202.8 39.9 -202.4 39.2 -200.9 36.8 -203.7 36 -205.55 36.55 -207 38.2 -208.05 39.4 -207.45 40.8 -205.4 45.35 -200.15 46.6 -198.7810546875 46.9298828125 -197.4 47.1 -198.1958984375 48.36640625 -198.4 50 -198.75 52.75 -196.85 54.6 -196.070703125 55.340234375 -195.2 55.85 -204.015234375 54.9720703125 -212.4 51.7 -223.85 47.25 -229.85 37 -227.05 37.55 -224.55 38.85 -222.65 39.85 -220.45 39.95 -216.3 40.15 -218.4 36.6 -218.7 36.45 -219.05 36.35 -223.05 35.5 -226.1 33 -230.85 29 -232.6 23.1 -232.95 21.25 -233.3 19.35 -233.7 17.2 -234.05 15.05 -233.65 15.05 -233.25 15.05 -230.95 15.7 -228.9 16.75 -226.55 18 -224.45 17.5 -221.6 17.9 -222.65 14.75 -223.15 14.25 -223.85 14 -226.4 13.15 -228.7 11.9 -230.55 10.65 -232 8.9 -234.3 6.15 -237.1 4.45 -237.3 4.45 -237.45 4.55 -238.1 3.35 -238.55 2.15 -242.1 -7.55 -240.8 -17.9 -240.25 -22.3 -239 -26.5
M -158.65 8.7
Q -155.498828125 9.1943359375 -153.1 10.85 -152.802734375 10.940625 -152.55 11 -150.0705078125 12.6529296875 -149 15.1 -148.7833984375 15.6005859375 -148.65 16.1 -148.92265625 16.88828125 -148.55 18.05 -148.8 19.25 -148.85 20.45 -148.9306640625 21.8599609375 -149.5 23.15 -149.6451171875 23.399609375 -149.85 23.65 -150.2146484375 24.098046875 -150.65 24.5 -153.88203125 27.0900390625 -158.15 27.75 -161.15 28.15 -164.2 28 -165.133984375 27.95078125 -166.05 27.8 -166.5501953125 27.67109375 -167.05 27.5 -167.6443359375 27.3982421875 -168.25 27.25 -168.40546875 27.2552734375 -168.55 27.25 -168.6029296875 27.2341796875 -168.65 27.2 -166.59921875 26.32734375 -165.2 24.55 -164.2 23.3 -164.2 21.7 -163.65 18.85 -164.85 16.1 -166.868359375 11.43828125 -171.95 11.3 -168.667578125 8.566015625 -163.45 8.45 -161.05 8.35 -158.65 8.7
M -194.8 4.75
Q -189.25 6.15 -186 10.8 -181.3 17.5 -186.9 23.75 -187.75 24.55 -188.7 25.15 -191.85 27.05 -195.2 28.4 -197.85 28.6 -200.45 28.75 -200.9 28.8 -201.3 28.65 -204 27.6 -206.6 28 -207.35 27.85 -208.1 27.65 -212.85 26.25 -215.15 22.1 -216.8 19.15 -215.95 15.85 -213.3 5.85 -202.55 4.05 -198.6 3.75 -194.8 4.75
M -191.7 47.2
Q -187.45 46.85 -183.3 46.5 -182.371875 47.15390625 -181.4 47.7 -183.3 51 -186.95 52.35 -190.8 53.8 -194.1 51.9 -194.15 51.8 -194.2 51.65 -194.25 51.6 -194.3 51.55 -194.35 51.5 -194.35 51.4 -194.4 51.35 -194.4 51.3 -194.5 50.35 -194.05 49.55 -193.3533203125 48.258984375 -193.45 47.3 -192.5802734375 47.2818359375 -191.7 47.2
M -191.15 21.4
Q -188.7 17.8 -191.05 14.1 -194.65 8.55 -201.4 8.95 -208.75 9.8 -211.5 16.45 -212.05 17.75 -211.75 19.1 -210.45 25.5 -203.65 26.7 -195.6 28.1 -191.15 21.4
M -184.65 34.45
Q -184.3 35.65 -183.15 36.25 -182 36.85 -181.05 37.75 -178.35 40.45 -174.7 39.65 -172.6 39.2 -170.65 38.25 -168.3 37.1 -169.05 34.85 -169.25 34.25 -169.9 34.1 -172.3 33.7 -174.55 35 -175.5 34.3 -176.6 33.8 -179.6 32.4 -182.85 31.9 -183.25 31.9 -183.7 32.1 -185.2 32.9 -184.65 34.45
M -235.7 -21.25
Q -235.339453125 -20.5314453125 -234.75 -19.9 -229.5 -14 -224.95 -7.55 -226.55 -7.8 -228.15 -7.6 -229.8 -7.35 -230.8 -6.15 -234.3 -2.05 -231.75 3.1
L -231.75 3.15
Q -231.2439453125 4.13203125 -231.05 5.15 -230.25 8.35 -227.2 8.6 -226.6 8.65 -226.45 8.05 -225.65 4.95 -227.85 2 -228.15 0.6 -228.5 -0.8 -228.8 -1.9 -228.8 -3.1 -226.25 -4 -223.55 -3.4 -222.15 -3.05 -220.85 -3.5 -217.45 -4.6 -219.85 -7.7 -224.1 -13.05 -228 -18.75 -230.220703125 -21.9763671875 -233.25 -24.15 -233.792578125 -24.5693359375 -234.4 -24.95 -236 -24.85 -236.05 -23.25 -236.1078125 -22.17890625 -235.7 -21.25 Z" stroke="none" fill="#000000"></path>

<path d="M -183.3 46.5
Q -187.45 46.85 -191.7 47.2 -192.5802734375 47.2818359375 -193.45 47.3 -193.3533203125 48.258984375 -194.05 49.55 -194.5 50.35 -194.4 51.3 -194.4 51.35 -194.35 51.4 -194.35 51.5 -194.3 51.55 -194.25 51.6 -194.2 51.65 -194.15 51.8 -194.1 51.9 -190.8 53.8 -186.95 52.35 -183.3 51 -181.4 47.7 -182.371875 47.15390625 -183.3 46.5 Z" stroke="none" fill="#FF6666"></path>

<path d="M -186 10.8
Q -189.25 6.15 -194.8 4.75 -198.6 3.75 -202.55 4.05 -213.3 5.85 -215.95 15.85 -216.8 19.15 -215.15 22.1 -212.85 26.25 -208.1 27.65 -207.35 27.85 -206.6 28 -204 27.6 -201.3 28.65 -200.9 28.8 -200.45 28.75 -197.85 28.6 -195.2 28.4 -191.85 27.05 -188.7 25.15 -187.75 24.55 -186.9 23.75 -181.3 17.5 -186 10.8
M -191.05 14.1
Q -188.7 17.8 -191.15 21.4 -195.6 28.1 -203.65 26.7 -210.45 25.5 -211.75 19.1 -212.05 17.75 -211.5 16.45 -208.75 9.8 -201.4 8.95 -194.65 8.55 -191.05 14.1
M -153.1 10.85
Q -155.498828125 9.1943359375 -158.65 8.7 -161.05 8.35 -163.45 8.45 -168.667578125 8.566015625 -171.95 11.3 -166.868359375 11.43828125 -164.85 16.1 -163.65 18.85 -164.2 21.7 -164.2 23.3 -165.2 24.55 -166.59921875 26.32734375 -168.65 27.2 -168.6029296875 27.2341796875 -168.55 27.25 -168.40546875 27.2552734375 -168.25 27.25 -167.6443359375 27.3982421875 -167.05 27.5 -166.5501953125 27.67109375 -166.05 27.8 -165.133984375 27.95078125 -164.2 28 -161.15 28.15 -158.15 27.75 -153.88203125 27.0900390625 -150.65 24.5 -150.2146484375 24.098046875 -149.85 23.65 -149.6451171875 23.399609375 -149.5 23.15 -148.9306640625 21.8599609375 -148.85 20.45 -148.8 19.25 -148.55 18.05 -148.92265625 16.88828125 -148.65 16.1 -148.7833984375 15.6005859375 -149 15.1 -150.0705078125 12.6529296875 -152.55 11 -152.802734375 10.940625 -153.1 10.85
M -238.85 -26.75
Q -238.9 -26.6 -239 -26.5 -240.25 -22.3 -240.8 -17.9 -242.1 -7.55 -238.55 2.15 -238.1 3.35 -237.45 4.55 -237.3 4.45 -237.1 4.45 -234.3 6.15 -232 8.9 -230.55 10.65 -228.7 11.9 -226.4 13.15 -223.85 14 -223.15 14.25 -222.65 14.75 -221.6 17.9 -224.45 17.5 -226.55 18 -228.9 16.75 -230.95 15.7 -233.25 15.05 -233.65 15.05 -234.05 15.05 -233.7 17.2 -233.3 19.35 -232.95 21.25 -232.6 23.1 -230.85 29 -226.1 33 -223.05 35.5 -219.05 36.35 -218.7 36.45 -218.4 36.6 -216.3 40.15 -220.45 39.95 -222.65 39.85 -224.55 38.85 -227.05 37.55 -229.85 37 -223.85 47.25 -212.4 51.7 -204.015234375 54.9720703125 -195.2 55.85 -196.070703125 55.340234375 -196.85 54.6 -198.75 52.75 -198.4 50 -198.1958984375 48.36640625 -197.4 47.1 -198.7810546875 46.9298828125 -200.15 46.6 -205.4 45.35 -207.45 40.8 -208.05 39.4 -207 38.2 -205.55 36.55 -203.7 36 -200.9 36.8 -202.4 39.2 -202.8 39.9 -203.4 40.4 -195.05 45.45 -185.4 42.6 -183 41.9 -181.05 43.4 -176.1 47.1 -170.35 46.15 -170.1 46 -170 45.7 -169.9 45.3 -169.65 44.9 -169.9 41.2 -166.5 42.5 -166.05 42.65 -165.95 43.2 -165.1 48.15 -169.8 50.1 -171.6 50.85 -173.6 50.5 -175.71640625 50.140625 -177.7 49.4 -180.698828125 54.3505859375 -185.9 56.1 -184.1814453125 56.05546875 -182.45 55.9 -176.65 55.35 -170.95 54.45 -155.65 52.05 -148.55 38.9 -148.5 38.8 -148.45 38.7 -147.5 35.75 -147.85 32.65 -148.115625 30.3478515625 -149 28.25 -149.319921875 28.48046875 -149.7 28.7 -153.35 30.8 -157.45 31.6 -159.8755859375 32.0650390625 -162.2 32.1 -165.0130859375 32.27890625 -168 31.85 -170.95 31.4 -173.75 30.7 -175.05 30.35 -175.45 29.1 -180.55 25.55 -180.25 19.5 -180.2455078125 19.410546875 -180.25 19.3 -181.0279296875 23.6060546875 -184.75 26.9 -192.25 33.5 -202.35 32.85 -210.6 32.35 -216.55 26.8 -220.35 23.2 -220.25 18 -220.17421875 14.9119140625 -219.3 12.25 -219.4703125 12.1095703125 -219.6 11.85 -221 9 -220.3 6.05 -220.1 5.25 -219.3 5.05 -219 4.95 -218.75 4.95 -216.7841796875 5.1314453125 -215.5 6.15 -213.5466796875 4.1875 -210.8 2.65 -206.8 0.45 -202.4 0 -193.5076171875 -0.440234375 -186.7 4.6 -188.0689453125 -7.658203125 -177.4 -14.6 -168.8 -20.2 -160.55 -14.25 -159.134375 -13.2353515625 -158.1 -12.05 -155.050390625 -8.4712890625 -155.5 -3.3 -155.85 0.85 -159.45 0.05 -160.3 -0.15 -160.15 -1 -159.85 -2.95 -159.8 -4.95 -159.65 -9.35 -163.55 -11.7 -165.4884765625 -12.8630859375 -167.5 -13.2 -169.3736328125 -12.7775390625 -171.1 -11.85 -174.45 -10.1 -176.55 -6.75 -178.6 -3.4 -178.6 0.25 -178.7 4.05 -176.75 7.55 -176.2296875 8.457421875 -175.65 9.25 -174.3923828125 8.136328125 -172.85 7.2 -168.35 4.5 -163.15 4.4 -152.45 3.75 -146.8 12.25 -146.5755859375 12.591015625 -146.4 12.95 -146.3107421875 12.9486328125 -146.25 12.95 -144.774609375 11.5716796875 -143.5 9.85 -139.7 4.7 -139.25 -1.35 -138.75 -7.35 -141.3 -13.2 -143.75 -18.85 -148.35 -23.1 -152.55 -26.9 -157.65 -28.75 -163.05 -30.75 -168.35 -30.1 -173.9 -29.55 -178.4 -26.1 -183.05 -22.55 -184.6 -17.5 -185.35 -18.25 -189.35 -22.6
L -193.1 -15.85
Q -195.7814453125 -18.2302734375 -198.1 -21 -200.8146484375 -20.223046875 -203.05 -22.95 -204.9 -25.25 -207.5 -26.6 -221.85 -34.1 -237.3 -28.9 -237.4 -28.8 -237.5 -28.7 -237.6 -28.6 -237.7 -28.5 -237.85 -28.4 -237.95 -28.3 -238.05 -28.2 -238.1 -28.1 -238.25 -27.8 -238.35 -27.5 -238.45 -27.3 -238.55 -27.1 -238.7 -26.9 -238.85 -26.75
M -237.7 -16.75
Q -236.9716796875 -19.2150390625 -235.7 -21.25 -236.1078125 -22.17890625 -236.05 -23.25 -236 -24.85 -234.4 -24.95 -233.792578125 -24.5693359375 -233.25 -24.15 -230.220703125 -21.9763671875 -228 -18.75 -224.1 -13.05 -219.85 -7.7 -217.45 -4.6 -220.85 -3.5 -222.15 -3.05 -223.55 -3.4 -226.25 -4 -228.8 -3.1 -228.8 -1.9 -228.5 -0.8 -228.15 0.6 -227.85 2 -225.65 4.95 -226.45 8.05 -226.6 8.65 -227.2 8.6 -230.25 8.35 -231.05 5.15 -231.2439453125 4.13203125 -231.75 3.15 -233.41953125 1.5236328125 -234.75 -0.35 -237.35 -4.05 -238.1 -8.1 -238.95 -12.45 -237.7 -16.75
M -161.35 34.8
Q -160.7 34.75 -160.1 34.7 -156.75 34.7 -153.4 34.9 -150.6 35.1 -150.9 37.65 -151.05 39.05 -152.35 39.75 -157.05 42.25 -162.35 40.8 -164.15 40.35 -165.25 38.95 -166.15 37.85 -165.25 36.75 -164.8 36.2 -164.1 36.05 -164 35.95 -163.95 35.9 -162.85 35 -161.35 34.8
M -183.15 36.25
Q -184.3 35.65 -184.65 34.45 -185.2 32.9 -183.7 32.1 -183.25 31.9 -182.85 31.9 -179.6 32.4 -176.6 33.8 -175.5 34.3 -174.55 35 -172.3 33.7 -169.9 34.1 -169.25 34.25 -169.05 34.85 -168.3 37.1 -170.65 38.25 -172.6 39.2 -174.7 39.65 -178.35 40.45 -181.05 37.75 -182 36.85 -183.15 36.25
M -223.4 33.3
Q -223.75 33 -223.6 32.45 -223.05 30.35 -220.8 30 -214.1 29.25 -209.2 33.25 -208.8 33.6 -208.8 34.15 -208.8 36.3 -211.1 36.6 -218.2 37.55 -223.4 33.3 Z" stroke="none" fill="#FFFFFF"></path>

<path d="M -167.5 -13.2
Q -170.8677734375 -13.7423828125 -174.4 -11.85 -183.45 -7 -182.9 3.25 -182.6 8.75 -179.45 13.25 -179.35 13.35 -179.25 13.45 -179.07734375 13.5953125 -178.9 13.75 -177.74921875 11.2205078125 -175.65 9.25 -176.2296875 8.457421875 -176.75 7.55 -178.7 4.05 -178.6 0.25 -178.6 -3.4 -176.55 -6.75 -174.45 -10.1 -171.1 -11.85 -169.3736328125 -12.7775390625 -167.5 -13.2
M -178.4 -26.1
Q -173.9 -29.55 -168.35 -30.1 -163.05 -30.75 -157.65 -28.75 -152.55 -26.9 -148.35 -23.1 -143.75 -18.85 -141.3 -13.2 -138.75 -7.35 -139.25 -1.35 -139.7 4.7 -143.5 9.85 -144.774609375 11.5716796875 -146.25 12.95 -145.1294921875 12.9353515625 -144.05 13.1 -143.391796875 12.48203125 -142.75 11.8 -137.85 6.5 -137.4 -0.95 -137.35 -2.25 -137.05 -3.5 -137.35 -5.05 -137.35 -6.65 -137.4 -10.4 -138.6 -13.95 -139.7 -17.25 -141.05 -20.45 -142.1 -22 -143.1 -23.55 -146.05 -28.15 -150.65 -31.1 -152.15 -32.1 -153.55 -33.2 -153.7 -33.25 -153.8 -33.3 -155.05 -33.75 -156.3 -34.3 -157.1 -34.65 -157.75 -35.15 -168.6 -38.4 -177.3 -31.4 -180.1 -29.15 -182.45 -26.55 -183.6 -25.3 -184.85 -26.5 -185.9 -27.45 -186.2 -28.9
L -186.25 -28.95
Q -186.35 -28.9 -186.45 -28.8 -186.6 -28.7 -186.75 -28.65 -186.9 -28.5 -187.1 -28.4 -187.75 -27.7 -188.25 -26.95 -189.9 -24.4 -192.65 -24.55 -194.35 -24.6 -195.2 -26.15 -195.45 -26.5 -195.65 -26.9 -195.75 -26.9 -195.75 -26.85 -196.05 -26.45 -196.2 -25.95 -196.35 -25.55 -196.45 -25.15 -196.6 -24.65 -196.75 -24.15 -196.9 -23.85 -197 -23.55 -197 -23.45 -197 -23.4 -197 -23 -197.05 -22.6 -197.05 -22.4 -197.1 -22.2 -197.15 -22 -197.2 -21.8 -197.35 -21.5 -197.45 -21.2 -197.7783203125 -21.0623046875 -198.1 -21 -195.7814453125 -18.2302734375 -193.1 -15.85
L -189.35 -22.6
Q -185.35 -18.25 -184.6 -17.5 -183.05 -22.55 -178.4 -26.1
M -223.6 32.45
Q -223.75 33 -223.4 33.3 -218.2 37.55 -211.1 36.6 -208.8 36.3 -208.8 34.15 -208.8 33.6 -209.2 33.25 -214.1 29.25 -220.8 30 -223.05 30.35 -223.6 32.45
M -160.1 34.7
Q -160.7 34.75 -161.35 34.8 -162.85 35 -163.95 35.9 -164 35.95 -164.1 36.05 -164.8 36.2 -165.25 36.75 -166.15 37.85 -165.25 38.95 -164.15 40.35 -162.35 40.8 -157.05 42.25 -152.35 39.75 -151.05 39.05 -150.9 37.65 -150.6 35.1 -153.4 34.9 -156.75 34.7 -160.1 34.7
M -234.75 -19.9
Q -235.339453125 -20.5314453125 -235.7 -21.25 -236.9716796875 -19.2150390625 -237.7 -16.75 -238.95 -12.45 -238.1 -8.1 -237.35 -4.05 -234.75 -0.35 -233.41953125 1.5236328125 -231.75 3.15
L -231.75 3.1
Q -234.3 -2.05 -230.8 -6.15 -229.8 -7.35 -228.15 -7.6 -226.55 -7.8 -224.95 -7.55 -229.5 -14 -234.75 -19.9 Z" stroke="none" fill="#6699FF"></path>
</g>
</g>
</g>
</g>
</g>
</svg>
