
<svg viewBox="0 0 272 172" height="172px" width="272px" y="0px" x="0px" preserveAspectRatio="none" xmlns:xlink="http://www.w3.org/1999/xlink" version="1.1" xmlns="http://www.w3.org/2000/svg">
<defs></defs>

<g id="Layer_2">
<g>
<g>
<g>
<path d="M 89.9 143.9
Q 89.65 143.8 89.6 143.95 91.9400390625 149.8396484375 96.15 154 100.8134765625 153.9326171875 105.5 153.8 108.581640625 153.7123046875 111.65 153.65 106.2435546875 152.3962890625 101.3 149.9 98.75 148.6 96.3 147.65 96.05 147.35 95.9 147.05 95.8 146.95 95.7 146.85 95.15 146.65 94.45 146.4 94.4 146.3 94.35 146.2 94.25 146.1 94.15 146 93.15 145.6 92.05 145.4 91.05 144.55 89.9 143.9
M 63.3 151.95
Q 63.3 152.1 63.3 152.2 63.3 153.261328125 63.5 154.25 63.9294921875 154.24765625 64.3 154.25 64.3 154.04140625 64.3 153.8 63.7 152.9 63.3 151.95
M 209.85 148.85
Q 209.5181640625 150.1982421875 209 151.45 210.0203125 151.4283203125 211 151.35 211.055078125 150.8400390625 211.1 150.3 211.25 147.65 210.85 145.05 210.3 146.95 209.85 148.85
M 174.8 152.75
Q 178.8658203125 152.65546875 182.9 152.5 185.79140625 150.3107421875 188.4 147.75 181.7791015625 150.766015625 174.8 152.75
M 113 120.15
Q 112.9 120.05 112.9 119.95 108.7 117.25 103.65 117.7 98.45 118.15 94.5 121.6 93.05 122.85 92.75 124.65 94.6 127.75 98.05 129.25 101.05 130.5 103.25 129.95 104.75 129.55 106.05 130.2 112.05 131.4 115.55 127.3 115.75 127.1 115.9 126.9 115.95 126.8 115.95 126.7 115.95 126.45 116 126.15 116.05 125.8 116.2 125.5 116.25 125.45 116.25 125.35 116.25 125.25 116.25 125.15 116.25 125.05 116.2 124.95 116.1 124.75 115.95 124.55 115.95 124.45 115.95 124.35 115.95 124.25 115.95 124.15 115.95 123.95 115.95 123.8 115.95 123.7 115.95 123.6 115.95 123.5 115.9 123.4 115.85 123.3 115.8 123.2 115.75 123.1 115.7 123 115.6 122.9 115.45 122.8 115.15 122.55 114.95 122.2 114.8 122 114.7 121.8 114.65 121.7 114.5 121.65 114.2 121.4 114 121.05 113.85 120.85 113.75 120.65 113.65 120.55 113.55 120.5 113.35 120.45 113.15 120.35 113.05 120.25 113 120.15
M 164.85 116.6
Q 164.46328125 116.589453125 164.05 116.55 163.737890625 116.597265625 163.4 116.65 159.488671875 117.370703125 156.15 119.55 154.8 120.4 153.7 121.6 153.55 122.1 153.55 122.6 153.6 123.1 153.6 123.6 153.8 123.85 154 124.15 154.2 124.35 154.35 124.55 154.75 125.85 155.85 126.8 156.5 127.35 157.25 127.9 157.4 127.95 157.5 128.05 165.2 129.35 172.7 127 173.75 126.25 174.5 125.15 174.65 124.9 174.9 124.65 174.9 124.45 175 124.25 175.05 124.05 175.15 123.85 175.1 123.45 175.05 123.05 175 122.7 174.7 122.45 174.7 122.35 174.7 122.25 174.7 122.15 174.65 122.05 174.65 121.95 174.6 121.9 173.9 120.9 172.85 120.15 172.55 119.95 172.45 119.6 172.25 119.5 172.05 119.45 171.85 119.4 171.6 119.3 169.3 117.25 166.15 116.8 165.51328125 116.708984375 164.85 116.6
M 71 135.6
Q 71.1 135.6 71.25 135.65 73.8 135.35 76.4 135 76.3 133.45 74.55 131.9 73.3 130.75 72.5 129.25 69.9 126.2 66.95 123.5 66.7 124.05 66.55 124.65 66.6 124.75 66.6 124.8 66.6 125.25 66.8 125.6 67.05 128.75 67.4 131.9 67.55 133.6 67.7 135.25 69.35 135.25 71 135.6
M 80.55 107.75
Q 79.7375 105.84140625 79 103.85 78.7 102.95 78.35 102.1 78.2 106.05 78.25 110 78.25 112.95 78.4 115.85 79.479296875 115.559375 80.55 115.25 82.05859375 114.7970703125 83.55 114.3 81.9404296875 111.1123046875 80.55 107.75
M 196.7 108.2
Q 196.7 108.05 196.65 107.95 195.6 109.35 194.65 110.85 193.65 112.45 192.4 113.9 192.1 114.05 191.85 114.25 191.75 114.35 191.7 114.5 194.05 115.55 197 116.8 197 116.6 197 116.45 197.15 114.7 196.7 113.1 196.7 112.2 196.7 111.35 196.7 109.75 196.7 108.2
M 204.55 127.5
Q 204.55 126.3 204.55 125.05 203.45 125.5 202.15 125.7 201.4 125.8 200.6 125.95 200.45 126.1 200.3 126.25 200.15 126.4 200 126.5 199.9 126.55 199.8 126.55 198.65 126.9 197.55 127.4 197.45 127.55 197.3 127.65 196.85 128.05 196.4 128.55 196.3 128.6 196.2 128.6 195.8 128.75 195.4 128.85 195.25 129 195.05 129.1 194.35 129.4 194.15 130.05 194.15 130.15 194.1 130.2 193.4 130.55 192.65 130.8 198.45 131.75 204.55 132.65 204.55 130.1 204.55 127.5 Z" stroke="none" fill="#EE9D33"></path>

<path d="M 89.7 142.05
Q 88.5 142.05 87.25 142 87.2 142.05 87.15 142.15 87.15 142.2 87.15 142.3 87.15 142.4 87.15 142.5 87.15 142.7 87.15 142.9 87.15 143 87.15 143.1 87.25 143.2 87.3 143.3 87.35 143.4 87.4 143.5 87.4 143.6 87.4 143.7 87.45 143.9 87.55 144.1 87.6 144.2 87.65 144.3 87.65 144.4 87.65 144.5 87.65 144.6 87.65 144.7 87.65 144.9 87.7 145.05 87.7 145.15 87.7 145.25 89.15 147.45 90.55 149.65 92.02578125 152.0513671875 93.85 154.05 95.0107421875 154.053125 96.15 154 91.9400390625 149.8396484375 89.6 143.95 89.65 143.8 89.9 143.9 91.05 144.55 92.05 145.4 93.15 145.6 94.15 146 94.25 146.1 94.35 146.2 94.4 146.3 94.45 146.4 95.15 146.65 95.7 146.85 95.8 146.95 95.9 147.05 96.05 147.35 96.3 147.65 98.75 148.6 101.3 149.9 106.2435546875 152.3962890625 111.65 153.65 112.8947265625 153.6236328125 114.1 153.6 106.1681640625 151.5658203125 99.2 147.1 98.75 147.05 98.3 146.95 98.2 146.9 98.15 146.85 98.1 146.75 98 146.65 97.9 146.45 97.75 146.25 97.65 146.15 97.55 146.05 97.25 146 96.9 145.9 96.75 145.85 96.55 145.8 96.45 145.7 96.35 145.6 95.45 144.85 94.2 144.75 94.05 144.75 93.9 144.7 92.5 143.7 91 143 90.25 142.65 89.7 142.05
M 187.25 146.3
Q 187.2 146.4 187.15 146.5 187.05 146.6 186.95 146.7 178.9099609375 150.7623046875 170.1 152.9 172.464453125 152.8380859375 174.8 152.75 181.7791015625 150.766015625 188.4 147.75 185.79140625 150.3107421875 182.9 152.5 184.4349609375 152.475 185.95 152.4 188.686328125 150.213671875 191.2 147.7 191.25 147.6 191.3 147.5 191.35 147.4 191.4 147.3 191.45 147.2 191.45 147.1 191.9 146.65 192.25 146.2 192.6 145.8 193.1 145.5 193.2 145.45 193.3 145.35 193.35 145.25 193.35 145.15 193.4 145.05 193.45 144.95 193.45 144.85 193.5 144.75 193.8 144.45 194.1 144.2 194.4 143.95 194.45 143.55 194.5 143.45 194.5 143.35 194.5 143.25 194.45 143.25 193.5 143.05 192.5 142.95
L 192.5 143
Q 192.4 143.05 192.3 143.15 192.2 143.2 192.15 143.3 192.1 143.4 192 143.5 190.65 144.55 189.15 145.45 188.25 145.95 187.25 146.3
M 114.85 119.4
Q 114.75 119.3 114.65 119.2 113.45 118.45 112.15 117.95 108.05 116.5 103.65 116.7 97.55 116.95 92.75 120.8 91.4 121.9 90.8 123.6 90.8 123.7 90.8 123.8 90.8 124.05 90.8 124.35 90.8 124.45 90.8 124.55 90.8 124.65 90.8 124.75 90.8 124.95 90.8 125.15 90.8 125.25 90.8 125.35 90.85 125.45 90.85 125.55 90.95 125.65 91 125.75 91.1 125.85 91.2 125.95 91.35 126.05 91.45 126.15 94.1 129.9 98.75 130.85 107.5 132.55 115.85 129.85 116.2 129.5 116.6 129.15 117 128.8 117.25 128.4 117.5 128.05 117.75 127.75 117.8 127.65 117.85 127.55 117.9 127.5 117.95 127.4 117.95 127.3 117.95 127.2 117.95 127.1 117.95 127 117.95 126.9 117.95 126.8 117.95 126.7 118 126.6 118.05 126.5 118.1 126.4 118.15 126.3 118.2 126.2 118.2 126.1 118.2 126 118.2 125.7 118.2 125.4 118.2 125.3 118.2 125.2 118.2 125.1 118.2 125 118.2 124.8 118.2 124.65 118.2 124.55 118.2 124.45 118.2 124.35 118.2 124.25 118.15 124.15 118.1 124.05 118.05 123.95 118 123.8 117.95 123.75 117.95 123.65 117.95 123.55 117.95 123.45 117.95 123.35 117.95 123.25 117.9 123.05 117.85 122.85 117.85 122.75 117.8 122.65 117.75 122.55 117.75 122.45 117.65 122.35 117.6 122.25 117.5 122.15 117.35 122.05 117.25 121.95 117.15 121.9 117.05 121.8 116.95 121.7 116.9 121.6 116.9 121.5 116.85 121.4 116.8 121.3 116.75 121.2 116.7 121.1 116.55 121 116.45 120.9 116.35 120.8 116.25 120.7 116.05 120.5 115.9 120.3 115.85 120.2 115.75 120.1 115.7 120 115.65 119.9 115.5 119.85 115.3 119.8 115.2 119.75 115.15 119.7 115.05 119.65 115 119.6 114.9 119.5 114.85 119.4
M 112.9 119.95
Q 112.9 120.05 113 120.15 113.05 120.25 113.15 120.35 113.35 120.45 113.55 120.5 113.65 120.55 113.75 120.65 113.85 120.85 114 121.05 114.2 121.4 114.5 121.65 114.65 121.7 114.7 121.8 114.8 122 114.95 122.2 115.15 122.55 115.45 122.8 115.6 122.9 115.7 123 115.75 123.1 115.8 123.2 115.85 123.3 115.9 123.4 115.95 123.5 115.95 123.6 115.95 123.7 115.95 123.8 115.95 123.95 115.95 124.15 115.95 124.25 115.95 124.35 115.95 124.45 115.95 124.55 116.1 124.75 116.2 124.95 116.25 125.05 116.25 125.15 116.25 125.25 116.25 125.35 116.25 125.45 116.2 125.5 116.05 125.8 116 126.15 115.95 126.45 115.95 126.7 115.95 126.8 115.9 126.9 115.75 127.1 115.55 127.3 112.05 131.4 106.05 130.2 104.75 129.55 103.25 129.95 101.05 130.5 98.05 129.25 94.6 127.75 92.75 124.65 93.05 122.85 94.5 121.6 98.45 118.15 103.65 117.7 108.7 117.25 112.9 119.95
M 170.85 116.85
Q 166.8 115.3 162.3 115.85 158 116.45 154.3 118.8 153 119.6 151.95 120.7 151.9 120.8 151.85 120.9 151.8 121 151.75 121.1 151.7 121.2 151.6 121.3 151.6 121.7 151.6 122.05 151.6 122.55 151.6 123.05 151.6 123.55 151.6 124.05 151.6 124.15 151.6 124.25 151.8 124.55 152.05 124.8 152.1 124.9 152.2 125 152.3 125.1 152.4 125.2 153.6 128.1 156.7 128.8 165.6 130.75 174.6 127.7 175.55 127 176.25 126.1 176.85 125.35 177.1 124.55 177.15 124.45 177.2 124.35 177.2 124.25 177.2 124.15 177.2 123.9 177.2 123.6 177.2 123.4 177.2 123.2 177.2 123.1 177.2 123 177.1 122.9 177.05 122.8 177 122.7 176.9 122.6 176.9 122.4 176.9 122.2 176.9 122.1 176.85 122.05 176.8 121.9 176.65 121.8 176.65 121.6 176.65 121.4 176.6 121.3 176.6 121.2 176.55 121.1 176.5 121 176.1 120.7 175.75 120.3 175.1 119.65 174.45 119.05 174.35 118.95 174.3 118.85 174.1 118.8 173.9 118.75 173.75 118.7 173.6 118.65 173.5 118.65 173.45 118.6 172.4 117.45 170.85 116.85
M 164.05 116.55
Q 164.46328125 116.589453125 164.85 116.6 165.51328125 116.708984375 166.15 116.8 169.3 117.25 171.6 119.3 171.85 119.4 172.05 119.45 172.25 119.5 172.45 119.6 172.55 119.95 172.85 120.15 173.9 120.9 174.6 121.9 174.65 121.95 174.65 122.05 174.7 122.15 174.7 122.25 174.7 122.35 174.7 122.45 175 122.7 175.05 123.05 175.1 123.45 175.15 123.85 175.05 124.05 175 124.25 174.9 124.45 174.9 124.65 174.65 124.9 174.5 125.15 173.75 126.25 172.7 127 165.2 129.35 157.5 128.05 157.4 127.95 157.25 127.9 156.5 127.35 155.85 126.8 154.75 125.85 154.35 124.55 154.2 124.35 154 124.15 153.8 123.85 153.6 123.6 153.6 123.1 153.55 122.6 153.55 122.1 153.7 121.6 154.8 120.4 156.15 119.55 159.488671875 117.370703125 163.4 116.65 163.737890625 116.597265625 164.05 116.55
M 180.65 87.75
Q 180.65 87.6 180.65 87.45 180.65 87.3 180.55 87.25 180.25 87 180 86.65 179.9 86.5 179.7 86.35 170.1 87.4 161 90.15 160.95 89.85 160.8 89.65 160.75 89.45 160.55 89.3 160.55 89.15 160.55 89 160.35 88.55 160.2 88.05 160.15 87.95 160.15 87.8 159.95 87.45 159.8 87.15 159.75 87 159.75 86.85 159.75 86.7 159.75 86.55 159.95 84.8 159.6 83.1 159.4 82.2 158.95 81.3 158.95 81 158.95 80.7 158.95 80.55 158.95 80.4 158.9 80.25 158.8 80.15 158.45 79.7 158.5 79.15 158.55 79 158.55 78.85 158.5 78.7 158.4 78.6 158.25 78.4 158.1 78.25 158.05 77.95 157.95 77.65 157.85 77.5 157.7 77.35 156.4 77.3 155.05 77.3 154.9 77.35 154.75 77.45 154.2 77.85 153.7 78.35 153.5 78.5 153.3 78.65 151.591015625 79.3580078125 149.9 80.1 144.6642578125 82.4412109375 139.6 85.2 139.05 85.25 138.55 85.2 138.5 85.2 138.45 85.1 138.15 84.1 137.25 83.55 137.05 83.4 136.9 83.25 136.85 83.1 136.8 82.95 136.75 82.8 136.7 82.65 136.3 82.35 135.9 82 135.75 81.9 135.6 81.75 134.9 80.55 134.35 79.3 134.1 78.6 133.55 78.05 133.55 77.9 133.5 77.75 132.95 76.45 132 75.3 131.55 74.75 131.4 74.05 131.1 73.95 130.8 73.8 130.75 73.8 130.65 73.75 130.55 73.65 130.5 73.55 130.35 73.4 130.25 73.25 129.15 73.2 128 73.15 125.5 74.8 123.3 77.2 118.5 82.45 114.6 88.1 114.1 87.7 113.5 87.35 107.35 83.65 101.7 79.05 101.15 78.9 100.6 78.7 100.4 78.65 100.25 78.55 99.2 78.5 98.1 78.55 98 78.55 97.9 78.65 97.95 79.2 97.65 79.6 97.55 79.75 97.5 79.9 97.5 80.2 97.5 80.5 97.25 84.65 97.2 88.8 97.1 94 97.1 99.25 91.85 98.9 86.8 97.25 83.539453125 96.2080078125 80.55 96.2 79.0927734375 96.204296875 77.7 96.45 77.15 96.4 76.65 96.4 76.65 96.55 76.65 96.7 76.4 96.75 76.2 96.8 76.4 97.2 76.55 97.65 76.35 100.4 76.35 103.2 76.35 109.75 76.35 116.3 74.4 116.7 72.45 117 67.4 117.75 64.3 120.05 64.75 121 65.35 121.8 65.05 122.65 64.8 123.55 64.35 124.95 64.85 126.25 64.95 128.65 65.25 131 65.6 133.15 65.65 135.35 65.25 135.4 64.85 135.45 62.6 136.1 60.25 136.85 60.15 136.9 60 136.95 59.95 137 59.95 137.1 59.25 137.15 58.6 137.25 59.2 137.25 59.85 137.3 59.8 137.3 59.75 137.35 59.65 137.45 59.6 137.55 59.6 137.625 59.6 137.7
L 59.6 137.75
Q 59.6 137.85 59.6 137.95 59.6 138.05 59.6 138.15 59.6 138.2 59.6 138.25 59.55 138.25 59.45 138.3 59.4 138.3 59.4 138.45 59.4 138.6 59.4 138.75 59.4 139.25 59.4 139.7 59.4 139.85 59.4 140 59.9 140.35 59.85 140.9 59.8 141.05 59.8 141.25 60.05 141.55 60.3 141.85 60.45 142 60.55 142.15 60.6 142.3 60.6 142.45 60.6 143 60.9 143.4 60.85 144.95 60.75 146.45 60.65 148.65 61.3 150.65 61.5 152.25 61.45 153.85 61.4416015625 154.04296875 61.45 154.2 62.4865234375 154.242578125 63.5 154.25 63.3 153.261328125 63.3 152.2 63.3 152.1 63.3 151.95 63.7 152.9 64.3 153.8 64.3 154.04140625 64.3 154.25 65.4734375 154.258203125 66.6 154.25 66.539453125 154.2046875 66.45 154.15 66.4 153.8 66.4 153.5 66.35 153.35 66.35 153.2 65.25 151.3 64.65 149.2 64.05 147.25 63.1 145.55 63.1 145.2 63.1 144.9 63.1 144.15 63.1 143.4 63.1 143.2 63.1 143.05 63.05 142.9 63 142.75 62.95 142.55 62.85 142.4 62.85 142.25 62.85 142.1 62.75 142 62.7 141.85 62.65 141.75 62.6 141.65 62.6 141.4 62.6 141.15 62.6 140.3 62.6 139.4 62.6 139.3 62.6 139.15
L 62.6 139.05
Q 62.2 139 61.85 139 61.85 138.9 61.85 138.8 61.85 138.6 61.8 138.4 61.8 138.2 61.85 138 61.85 137.9 61.9 137.8 62.0033203125 137.7482421875 62.1 137.7 62.6033203125 137.465625 63.1 137.3 67.55 137.25 72.4 136.9 76.55 136.55 79.05 134.9 78 132.65 76.45 130.6 72.5 125.6 67.75 121.5 67.9 121 67.85 120.5
L 67.85 120.4
Q 67.35 120.3 66.85 120.3 66.8 120.2 66.7 120.1 66.55 120 66.45 119.85 73.9017578125 118.5900390625 80.55 116.45 83.1357421875 115.6521484375 85.6 114.7 85.6 114.55 85.6 114.4 85.6 113.95 85.6 113.5 85.55 113.3 85.5 113.15 83.65 110.3 82.4 107.1 81.446484375 104.547265625 80.55 101.95 79.9888671875 100.3666015625 79.45 98.75 79.2 98.45 78.95 98.1 78.85 97.95 78.75 97.8 78.7 97.5 78.6 97.2
L 78.6 97.15
Q 78.6 97.05 78.6 96.95 79.5765625 97.20703125 80.55 97.45 89.99375 99.7234375 99.15 99.95 99.15 99.65 99.15 99.35 99.15 95.2 99.1 91.05 99.05 85.35 99.85 80 100.6 80.5 101.35 81 103.5 82.5 105.7 83.9 106.2 84.55 106.85 85.05 110.05 87.2 113.25 89.2 115.05 89.05 116.85 88.9 118.1 86.65 119.65 84.6 123.65 79.3 128.5 74.75 128.95 74.7 129.35 74.75 129.4 74.75 129.45 74.85 129.5 75.05 129.55 75.15 130.1 76.35 130.95 77.35 131.2 77.65 131.4 77.95 131.45 78.1 131.45 78.25 131.5 78.4 131.5 78.55 132.45 79.65 132.9 81 133.15 81.65 133.45 82.25 134.15 82.8 134.7 83.55 134.75 83.65 134.75 83.8 135.75 84.55 136.35 85.65 136.4 85.8 136.4 85.95 136.75 86.05 137.1 86.15 137.2 86.2 137.25 86.25 137.3 86.35 137.35 86.45 137.5 86.6 137.65 86.75 138.85 86.8 140.1 86.8
L 140.1 86.75
Q 144.9904296875 83.9203125 149.9 81.6 152.9712890625 80.1814453125 156.05 78.95 156.55 79.3 156.5 79.9 156.5 80.05 156.5 80.2 156.6 80.35 156.7 80.5 156.8 80.65 156.9 80.8 156.9 81.25 156.9 81.75 156.9 81.9 156.9 82.05 157.05 82.35 157.1 82.65 157.25 83.6 157.55 84.5 157.6 84.65 157.7 84.8 157.7 85.25 157.7 85.75 157.7 86.5 157.7 87.25 157.7 87.4 157.7 87.55 157.9 88.05 158.05 88.5 158.1 88.65 158.1 88.8 158.2 88.95 158.3 89.1 158.6 90.05 159.05 90.95 159.15 91.1 159.25 91.25 168.85 89.45 178.2 87.55 178.8 87.85 178.65 88.5 178.6 88.65 178.6 88.8 179.3 91.6 179.15 94.65 179 97.55 179 100.45 186.05 100.75 193.15 101 194.15 101.55 195.3 101.75
L 195.3 101.8
Q 195.35 101.85 195.45 101.95 195.15 101.9 194.85 101.9 195.05 103.5 195.7 105.05 195.55 105.15 195.4 105.3 195.35 105.75 195.25 106.2 195.25 106.35 195.2 106.5 193.95 108.25 192.75 109.95 190.9 112.55 189.25 114.8 196.95 118 204.6 123 203.85 123.35 203.3 123.65 201.2 124.8 198.75 125.25 197.8 125.95 196.65 126.3 195.3 126.75 194.35 127.8 193.95 127.9 193.55 128 192.85 128.55 192.25 129.2 192.15 129.3 192.1 129.45 191.6 129.55 191.1 129.7 191.05 129.7 191 129.75 190.9 129.85 190.8 129.95 190.15 130.5 189.7 131.25 189.65 131.35 189.65 131.5 199.9 132.85 210.15 134.45 210.15 134.6 210.15 134.8 210.15 136.23125 210.15 137.7 210.15 137.924609375 210.15 138.15 210.15 139.1 210.15 140 208.95 143 208.25 146.1 207.5775390625 148.9244140625 206.55 151.6 207.7845703125 151.5337890625 209 151.45 209.5181640625 150.1982421875 209.85 148.85 210.3 146.95 210.85 145.05 211.25 147.65 211.1 150.3 211.055078125 150.8400390625 211 151.35 212.0802734375 151.3248046875 213.1 151.25 213.164453125 150.196875 213.1 149.1 212.7822265625 143.379296875 212.4 137.7 212.38671875 137.124609375 212.35 136.55 212.35 136.45 212.35 136.4 212.25 136.4 212.2 136.4 212.2 135.1 212.2 133.75 209.35 133.35 206.55 132.95 206.55 131.05 206.55 129.15 206.55 126.5 206.55 123.9 206.9 123.55 207.25 123.2 204.7 120.1 200.75 118.4 199.85 118 198.95 117.65 198.95 116.2 199 114.75 199.05 113.6 198.65 112.6 198.65 110.9 198.75 109.25 198.8 108.1 198.4 107.05 198.5 106 198.2 105.05 198.4 104.7 198.55 104.35 198.6 104.2 198.65 104.05 198.65 103.75 198.65 103.45 198.65 102.85 198.65 102.2 198.6 102.05 198.55 101.9 198.2 101.8 197.85 101.7 197.85 101.65 197.8 101.65 197.7 101.5 197.55 101.35 197.45 101.25 197.35 101.1 196.4 100.8 195.5 100.45 195.25 100.35 195 100.25 188 100 181.05 99.75 181.05 97 181.05 94.25 181.05 91.6 181.05 89 181 88.85 180.9 88.75 180.6 88.3 180.65 87.75
M 204.55 125.05
Q 204.55 126.3 204.55 127.5 204.55 130.1 204.55 132.65 198.45 131.75 192.65 130.8 193.4 130.55 194.1 130.2 194.15 130.15 194.15 130.05 194.35 129.4 195.05 129.1 195.25 129 195.4 128.85 195.8 128.75 196.2 128.6 196.3 128.6 196.4 128.55 196.85 128.05 197.3 127.65 197.45 127.55 197.55 127.4 198.65 126.9 199.8 126.55 199.9 126.55 200 126.5 200.15 126.4 200.3 126.25 200.45 126.1 200.6 125.95 201.4 125.8 202.15 125.7 203.45 125.5 204.55 125.05
M 196.65 107.95
Q 196.7 108.05 196.7 108.2 196.7 109.75 196.7 111.35 196.7 112.2 196.7 113.1 197.15 114.7 197 116.45 197 116.6 197 116.8 194.05 115.55 191.7 114.5 191.75 114.35 191.85 114.25 192.1 114.05 192.4 113.9 193.65 112.45 194.65 110.85 195.6 109.35 196.65 107.95
M 79 103.85
Q 79.7375 105.84140625 80.55 107.75 81.9404296875 111.1123046875 83.55 114.3 82.05859375 114.7970703125 80.55 115.25 79.479296875 115.559375 78.4 115.85 78.25 112.95 78.25 110 78.2 106.05 78.35 102.1 78.7 102.95 79 103.85
M 71.25 135.65
Q 71.1 135.6 71 135.6 69.35 135.25 67.7 135.25 67.55 133.6 67.4 131.9 67.05 128.75 66.8 125.6 66.6 125.25 66.6 124.8 66.6 124.75 66.55 124.65 66.7 124.05 66.95 123.5 69.9 126.2 72.5 129.25 73.3 130.75 74.55 131.9 76.3 133.45 76.4 135 73.8 135.35 71.25 135.65 Z" stroke="none" fill="#000000"></path>

<path d="M 178.65 88.5
Q 178.8 87.85 178.2 87.55 168.85 89.45 159.25 91.25 159.15 91.1 159.05 90.95 158.6 90.05 158.3 89.1 158.2 88.95 158.1 88.8 158.1 88.65 158.05 88.5 157.9 88.05 157.7 87.55 157.7 87.4 157.7 87.25 157.7 86.5 157.7 85.75 157.7 85.25 157.7 84.8 157.6 84.65 157.55 84.5 157.25 83.6 157.1 82.65 157.05 82.35 156.9 82.05 156.9 81.9 156.9 81.75 156.9 81.25 156.9 80.8 156.8 80.65 156.7 80.5 156.6 80.35 156.5 80.2 156.5 80.05 156.5 79.9 156.55 79.3 156.05 78.95 152.9712890625 80.1814453125 149.9 81.6 144.9904296875 83.9203125 140.1 86.75
L 140.1 86.8
Q 138.85 86.8 137.65 86.75 137.5 86.6 137.35 86.45 137.3 86.35 137.25 86.25 137.2 86.2 137.1 86.15 136.75 86.05 136.4 85.95 136.4 85.8 136.35 85.65 135.75 84.55 134.75 83.8 134.75 83.65 134.7 83.55 134.15 82.8 133.45 82.25 133.15 81.65 132.9 81 132.45 79.65 131.5 78.55 131.5 78.4 131.45 78.25 131.45 78.1 131.4 77.95 131.2 77.65 130.95 77.35 130.1 76.35 129.55 75.15 129.5 75.05 129.45 74.85 129.4 74.75 129.35 74.75 128.95 74.7 128.5 74.75 123.65 79.3 119.65 84.6 118.1 86.65 116.85 88.9 115.05 89.05 113.25 89.2 110.05 87.2 106.85 85.05 106.2 84.55 105.7 83.9 103.5 82.5 101.35 81 100.6 80.5 99.85 80 99.05 85.35 99.1 91.05 99.15 95.2 99.15 99.35 99.15 99.65 99.15 99.95 89.99375 99.7234375 80.55 97.45 79.5765625 97.20703125 78.6 96.95 78.6 97.05 78.6 97.15
L 78.6 97.2
Q 78.7 97.5 78.75 97.8 78.85 97.95 78.95 98.1 79.2 98.45 79.45 98.75 79.9888671875 100.3666015625 80.55 101.95 81.446484375 104.547265625 82.4 107.1 83.65 110.3 85.5 113.15 85.55 113.3 85.6 113.5 85.6 113.95 85.6 114.4 85.6 114.55 85.6 114.7 83.1357421875 115.6521484375 80.55 116.45 73.9017578125 118.5900390625 66.45 119.85 66.55 120 66.7 120.1 66.8 120.2 66.85 120.3 67.35 120.3 67.85 120.4
L 67.85 120.5
Q 67.9 121 67.75 121.5 72.5 125.6 76.45 130.6 78 132.65 79.05 134.9 76.55 136.55 72.4 136.9 67.55 137.25 63.1 137.3 62.6033203125 137.465625 62.1 137.7 62.0033203125 137.7482421875 61.9 137.8 61.85 137.9 61.85 138 61.8 138.2 61.8 138.4 61.85 138.6 61.85 138.8 61.85 138.9 61.85 139 62.2 139 62.6 139.05
L 62.6 139.15
Q 62.6 139.3 62.6 139.4 62.6 140.3 62.6 141.15 62.6 141.4 62.6 141.65 62.65 141.75 62.7 141.85 62.75 142 62.85 142.1 62.85 142.25 62.85 142.4 62.95 142.55 63 142.75 63.05 142.9 63.1 143.05 63.1 143.2 63.1 143.4 63.1 144.15 63.1 144.9 63.1 145.2 63.1 145.55 64.05 147.25 64.65 149.2 65.25 151.3 66.35 153.2 66.35 153.35 66.4 153.5 66.4 153.8 66.45 154.15 66.539453125 154.2046875 66.6 154.25 73.5376953125 154.305859375 80.55 154.25 87.155859375 154.201171875 93.85 154.05 92.02578125 152.0513671875 90.55 149.65 89.15 147.45 87.7 145.25 87.7 145.15 87.7 145.05 87.65 144.9 87.65 144.7 87.65 144.6 87.65 144.5 87.65 144.4 87.65 144.3 87.6 144.2 87.55 144.1 87.45 143.9 87.4 143.7 87.4 143.6 87.4 143.5 87.35 143.4 87.3 143.3 87.25 143.2 87.15 143.1 87.15 143 87.15 142.9 87.15 142.7 87.15 142.5 87.15 142.4 87.15 142.3 87.15 142.2 87.15 142.15 87.2 142.05 87.25 142 88.5 142.05 89.7 142.05 90.25 142.65 91 143 92.5 143.7 93.9 144.7 94.05 144.75 94.2 144.75 95.45 144.85 96.35 145.6 96.45 145.7 96.55 145.8 96.75 145.85 96.9 145.9 97.25 146 97.55 146.05 97.65 146.15 97.75 146.25 97.9 146.45 98 146.65 98.1 146.75 98.15 146.85 98.2 146.9 98.3 146.95 98.75 147.05 99.2 147.1 106.1681640625 151.5658203125 114.1 153.6 122.1185546875 153.45 130.15 153.45 140.043359375 153.419921875 149.9 153.25 160.0318359375 153.1478515625 170.1 152.9 178.9099609375 150.7623046875 186.95 146.7 187.05 146.6 187.15 146.5 187.2 146.4 187.25 146.3 188.25 145.95 189.15 145.45 190.65 144.55 192 143.5 192.1 143.4 192.15 143.3 192.2 143.2 192.3 143.15 192.4 143.05 192.5 143
L 192.5 142.95
Q 193.5 143.05 194.45 143.25 194.5 143.25 194.5 143.35 194.5 143.45 194.45 143.55 194.4 143.95 194.1 144.2 193.8 144.45 193.5 144.75 193.45 144.85 193.45 144.95 193.4 145.05 193.35 145.15 193.35 145.25 193.3 145.35 193.2 145.45 193.1 145.5 192.6 145.8 192.25 146.2 191.9 146.65 191.45 147.1 191.45 147.2 191.4 147.3 191.35 147.4 191.3 147.5 191.25 147.6 191.2 147.7 188.686328125 150.213671875 185.95 152.4 196.2642578125 152.0642578125 206.55 151.6 207.5775390625 148.9244140625 208.25 146.1 208.95 143 210.15 140 210.15 139.1 210.15 138.15 210.15 137.924609375 210.15 137.7 210.15 136.23125 210.15 134.8 210.15 134.6 210.15 134.45 199.9 132.85 189.65 131.5 189.65 131.35 189.7 131.25 190.15 130.5 190.8 129.95 190.9 129.85 191 129.75 191.05 129.7 191.1 129.7 191.6 129.55 192.1 129.45 192.15 129.3 192.25 129.2 192.85 128.55 193.55 128 193.95 127.9 194.35 127.8 195.3 126.75 196.65 126.3 197.8 125.95 198.75 125.25 201.2 124.8 203.3 123.65 203.85 123.35 204.6 123 196.95 118 189.25 114.8 190.9 112.55 192.75 109.95 193.95 108.25 195.2 106.5 195.25 106.35 195.25 106.2 195.35 105.75 195.4 105.3 195.55 105.15 195.7 105.05 195.05 103.5 194.85 101.9 195.15 101.9 195.45 101.95 195.35 101.85 195.3 101.8
L 195.3 101.75
Q 194.15 101.55 193.15 101 186.05 100.75 179 100.45 179 97.55 179.15 94.65 179.3 91.6 178.6 88.8 178.6 88.65 178.65 88.5
M 162.3 115.85
Q 166.8 115.3 170.85 116.85 172.4 117.45 173.45 118.6 173.5 118.65 173.6 118.65 173.75 118.7 173.9 118.75 174.1 118.8 174.3 118.85 174.35 118.95 174.45 119.05 175.1 119.65 175.75 120.3 176.1 120.7 176.5 121 176.55 121.1 176.6 121.2 176.6 121.3 176.65 121.4 176.65 121.6 176.65 121.8 176.8 121.9 176.85 122.05 176.9 122.1 176.9 122.2 176.9 122.4 176.9 122.6 177 122.7 177.05 122.8 177.1 122.9 177.2 123 177.2 123.1 177.2 123.2 177.2 123.4 177.2 123.6 177.2 123.9 177.2 124.15 177.2 124.25 177.2 124.35 177.15 124.45 177.1 124.55 176.85 125.35 176.25 126.1 175.55 127 174.6 127.7 165.6 130.75 156.7 128.8 153.6 128.1 152.4 125.2 152.3 125.1 152.2 125 152.1 124.9 152.05 124.8 151.8 124.55 151.6 124.25 151.6 124.15 151.6 124.05 151.6 123.55 151.6 123.05 151.6 122.55 151.6 122.05 151.6 121.7 151.6 121.3 151.7 121.2 151.75 121.1 151.8 121 151.85 120.9 151.9 120.8 151.95 120.7 153 119.6 154.3 118.8 158 116.45 162.3 115.85
M 114.65 119.2
Q 114.75 119.3 114.85 119.4 114.9 119.5 115 119.6 115.05 119.65 115.15 119.7 115.2 119.75 115.3 119.8 115.5 119.85 115.65 119.9 115.7 120 115.75 120.1 115.85 120.2 115.9 120.3 116.05 120.5 116.25 120.7 116.35 120.8 116.45 120.9 116.55 121 116.7 121.1 116.75 121.2 116.8 121.3 116.85 121.4 116.9 121.5 116.9 121.6 116.95 121.7 117.05 121.8 117.15 121.9 117.25 121.95 117.35 122.05 117.5 122.15 117.6 122.25 117.65 122.35 117.75 122.45 117.75 122.55 117.8 122.65 117.85 122.75 117.85 122.85 117.9 123.05 117.95 123.25 117.95 123.35 117.95 123.45 117.95 123.55 117.95 123.65 117.95 123.75 118 123.8 118.05 123.95 118.1 124.05 118.15 124.15 118.2 124.25 118.2 124.35 118.2 124.45 118.2 124.55 118.2 124.65 118.2 124.8 118.2 125 118.2 125.1 118.2 125.2 118.2 125.3 118.2 125.4 118.2 125.7 118.2 126 118.2 126.1 118.2 126.2 118.15 126.3 118.1 126.4 118.05 126.5 118 126.6 117.95 126.7 117.95 126.8 117.95 126.9 117.95 127 117.95 127.1 117.95 127.2 117.95 127.3 117.95 127.4 117.9 127.5 117.85 127.55 117.8 127.65 117.75 127.75 117.5 128.05 117.25 128.4 117 128.8 116.6 129.15 116.2 129.5 115.85 129.85 107.5 132.55 98.75 130.85 94.1 129.9 91.45 126.15 91.35 126.05 91.2 125.95 91.1 125.85 91 125.75 90.95 125.65 90.85 125.55 90.85 125.45 90.8 125.35 90.8 125.25 90.8 125.15 90.8 124.95 90.8 124.75 90.8 124.65 90.8 124.55 90.8 124.45 90.8 124.35 90.8 124.05 90.8 123.8 90.8 123.7 90.8 123.6 91.4 121.9 92.75 120.8 97.55 116.95 103.65 116.7 108.05 116.5 112.15 117.95 113.45 118.45 114.65 119.2 Z" stroke="none" fill="#FDDF5E"></path>
</g>
</g>
</g>
</g>
</svg>
