
<svg viewBox="0 0 122 110" height="110px" width="122px" y="0px" x="0px" preserveAspectRatio="none" xmlns:xlink="http://www.w3.org/1999/xlink" version="1.1" xmlns="http://www.w3.org/2000/svg">
<defs></defs>

<g id="Layer_1"></g>

<g id="Layer_2">
<g transform="matrix( 1, 0, 0, 1, 60.7,65.85)" id="Layer_2">
<g>
<g>
<g>
<path d="M 40.05 -49.8
Q 33.8 -53.85 26.4 -54.95 25.9 -54.9 25.4 -54.65 24.35 -54.05 24.35 -52.9 24.35 -52.15 24.7 -51.5 25.65 -48.7 25.3 -45.65 25 -43.3 24.4 -41.05 17.8 -41.3 11.25 -41.55 4.25 -41.8 -2.75 -41.9 -8.8 -42 -14.85 -42.1 -16.5 -45.25 -17.2 -48.8 -17.9 -51.8 -18.05 -54.85 -18.1 -57.6 -21.05 -57.25 -27.1 -56.55 -32.3 -53.45 -33.65 -52.6 -34.9 -51.65 -40.8 -47.25 -41.6 -40.25 -41.6 -40.1 -41.65 -39.9 -41.7 -39.95 -41.8 -39.95 -42.65 -39.75 -43.5 -39.3 -45.15 -38.3 -46 -36.45 -47.85 -34.15 -48.9 -31.4 -49.05 -31 -49.05 -30.65 -50.4 -28.8 -50.95 -26.45 -53.8 -15 -53.45 -3 -53.15 7.6 -51.95 18 -51.55 21.75 -51.35 25.5 -51.3 27.2 -50.7 28.85 -50.15 30.5 -49.5 32.05 -48.4 34.7 -45.2 34.95 -45.15 35.05 -45.05 35.1 -44.9 35.2 -44.75 35.3 -43.95 35.85 -43 35.95 -33.75 39.5 -23.75 40.6 -12.85 41.85 -1.95 42.85 4.55 43.5 11 43.95 29 45.4 45.8 40.05 49.35 38.9 51.95 36.4 53.2 35.1 53.95 33.4 54.6 31.8 54.7 30.2 55.6 27.85 56.1 25.35 58.35 13.7 59.95 2.05 60.25 -0.1 60.6 -2.25 60.65 -2.4 60.65 -2.55
L 60.65 -6.9
Q 61.3310546875 -13.412109375 60.65 -19.9
L 60.65 -24.2
Q 60.5 -25 60.35 -25.8 60.15 -26.6 59.8 -27.25 59.45 -28.55 58.45 -29.7 57.9 -30.4 57.6 -31.2 54.8 -38.15 47.3 -39.3 46.7 -41.6 45.55 -43.8 43.6 -47.45 40.05 -49.8
M 32.1 -33.05
Q 28.7 -33.2 25.35 -33.35 28 -37.9 28.8 -43.15 29.4 -46.75 29.1 -50.25 34.2 -49.2 38.4 -46.1 40.1 -44.8 41.2 -43.05 42.65 -40.7 43.55 -38.2 42.85 -37.35 43.7 -36.05 43.9 -35.7 44.2 -35.6 44.2 -34 43.75 -32.5 43.7 -32.35 43.65 -32.15 37.9 -32.8 32.1 -33.05
M 22.95 -37.05
Q 22.1 -35.3 21.1 -33.55 16.4 -33.75 11.75 -33.9 0.6 -34.25 -10.5 -34.45 -10.4 -35.2 -11.05 -36.15 -11.6 -36.95 -12.2 -37.75 -12.3 -37.9 -12.4 -38.05 -11.85 -38 -11.25 -37.95 -4.15 -37.75 3.05 -37.6 10.35 -37.5 17.6 -37.3 19.5 -37.3 21.35 -37.1 22.15 -37.05 22.95 -37.05
M 4.15 -30.4
Q 6.25 -30.55 8.25 -30.4 9.35 -30.2 10.4 -30 10.95 -30.05 11.45 -30.05 33.2 -30.1 54.5 -26.4
L 54.55 -26.35
Q 55 -26.15 55.4 -26 55.6 -25.9 55.85 -25.75 55.95 -25.5 56.1 -25.3 57.85 -20.05 57.5 -14.45 56.8 -2.35 54.85 9.5 53.9 15.45 52.8 21.4 51.75 27.3 49.8 32.9 49.2 33.3 48.7 33.7 42.3 38.25 34.25 39.05 14.95 40.9 -4.25 38.8 -13.85 37.75 -23.4 36.75 -35.1 35.5 -45.7 30.5 -46.4 29.05 -46.7 27.5 -47.8 23.1 -48.2 18.6 -49.3 6.85 -49.35 -5.1 -49.4 -8.05 -49.1 -10.95 -48.55 -16.75 -47.65 -22.5 -46.85 -24.1 -46.7 -25.9 -46.6 -26.65 -46.2 -27.25 -46.15 -27.35 -46.1 -27.45 -45.75 -28.2 -45.65 -29.05 -43.6 -29.6 -41.5 -29.75 -36.05 -30.1 -30.6 -30.6 -29.8 -30.6 -29 -30.55 -24.1 -31.15 -19.25 -31.35 -10.4 -30.85 -1.2 -30.65 1.55 -30.7 4.15 -30.4
M 49.8 -31.4
Q 48.7 -31.55 47.6 -31.7 48 -33.35 47.95 -35.15 51.3 -34.2 53.1 -30.8
L 53.15 -30.75
Q 51.5 -31.15 49.8 -31.4
M -21.8 -52.9
Q -21.75 -51.45 -21.5 -50 -20.4 -43.9 -17.5 -38.35 -16.4 -36.25 -14.75 -34.55 -22.55 -34.6 -30.4 -34.6 -33.05 -34.5 -35.7 -34.35 -37.3 -35.85 -37.6 -37.9 -38.1 -41.15 -36.25 -43.85 -31 -51.8 -21.8 -52.9
M -43.05 -33.8
Q -42.35 -34.75 -41.7 -35.75 -41.45 -35.8 -41.15 -35.85 -40.85 -34.9 -40.25 -34 -41.65 -33.95 -43.05 -33.8
M 30.6 -26.75
Q 26.15 -27.45 21.75 -28 21.75 -27.95 21.75 -27.9 20.55 -28.2 19.3 -28.35 15.8 -28.7 12.4 -28.7 6.35 -28.65 0.3 -28.85 -5.95 -29.1 -12.15 -29.2 -17.75 -29.25 -23.35 -29.15 -23.7 -29.15 -24.1 -29.1 -25.8 -29 -27.55 -28.8 -27.85 -28.75 -28.1 -28.75 -30.45 -28.65 -32.8 -28.6 -35.3 -28.55 -37.7 -28.1 -37.95 -28 -38.1 -27.9 -40 -27.65 -41.6 -26.65 -43.1 -25.8 -42.8 -24.7
L -42.9 -24.85
Q -44.5 -21.65 -44.85 -18 -46.05 -6.85 -45.75 4.55 -45.6 9.95 -45.55 15.2 -45.4 19.65 -45.1 24.05 -45 25.3 -44.65 26.25 -44.65 26.6 -44.6 27 -44.4 28 -43.75 28.7 -42.1 30.4 -39.7 30.9 -32.05 32.55 -24.45 34.15 -17.95 35.55 -11.3 36.55 -2.3 37.85 6.8 38.6 8.45 38.75 9.15 38.15 25.3 39.55 40.95 35.5 43.7 34.75 45.6 32.7 48.85 29.25 49.45 24.45 50 20.2 50.9 15.9 51.5 12.85 51.9 9.8 52.55 8 52.9 6.2 55.1 -5.4 55.1 -17.3 55.1 -21.35 51.35 -22.55 47 -23.85 42.6 -24.7 36.6 -25.8 30.6 -26.75
M 21.8 -24.05
Q 30 -23.05 38.1 -21.7 44.55 -20.55 50.7 -18.65 51.7 -9.65 50 -0.7 47.8 11 45.45 22.65 44.9 25.45 44.25 28.25 43.6 29.75 42.15 30.55 37.3 33.15 31.7 33.75 21 34.9 10.3 34.05 8.7 34.15 7.15 34.1 1.45 33.6 -4.15 33.25 -8.7 32.75 -13.2 32.3 -18.4 31.45 -23.45 30.45 -32.2 28.65 -40.5 26.15 -40.55 25.45 -40.55 24.75 -40.45 23 -41.5 22.2 -41.6 21.1 -41.3 20.15 -42 12.6 -42.05 4.9 -42.15 -6.9 -40.75 -18.45 -40.45 -21.05 -39.35 -23.5 -37.9 -23.75 -36.4 -23.9 -30.75 -24.45 -25.15 -24.85 -22.75 -25.7 -20.05 -25.85 -15.65 -26.3 -11.6 -25.2 -6.6 -25.1 -1.55 -24.9 2.4 -24.75 6.4 -24.95 11.5 -25.25 16.6 -24.6 19.2 -24.2 21.8 -24.05 Z" stroke="none" fill="#000000"></path>

<path d="M -41.7 -35.75
Q -42.35 -34.75 -43.05 -33.8 -41.65 -33.95 -40.25 -34 -40.85 -34.9 -41.15 -35.85 -41.45 -35.8 -41.7 -35.75
M -21.5 -50
Q -21.75 -51.45 -21.8 -52.9 -31 -51.8 -36.25 -43.85 -38.1 -41.15 -37.6 -37.9 -37.3 -35.85 -35.7 -34.35 -33.05 -34.5 -30.4 -34.6 -22.55 -34.6 -14.75 -34.55 -16.4 -36.25 -17.5 -38.35 -20.4 -43.9 -21.5 -50
M 47.6 -31.7
Q 48.7 -31.55 49.8 -31.4 51.5 -31.15 53.15 -30.75
L 53.1 -30.8
Q 51.3 -34.2 47.95 -35.15 48 -33.35 47.6 -31.7
M 8.25 -30.4
Q 6.25 -30.55 4.15 -30.4 1.55 -30.7 -1.2 -30.65 -10.4 -30.85 -19.25 -31.35 -24.1 -31.15 -29 -30.55 -29.8 -30.6 -30.6 -30.6 -36.05 -30.1 -41.5 -29.75 -43.6 -29.6 -45.65 -29.05 -45.75 -28.2 -46.1 -27.45 -46.15 -27.35 -46.2 -27.25 -46.6 -26.65 -46.7 -25.9 -46.85 -24.1 -47.65 -22.5 -48.55 -16.75 -49.1 -10.95 -49.4 -8.05 -49.35 -5.1 -49.3 6.85 -48.2 18.6 -47.8 23.1 -46.7 27.5 -46.4 29.05 -45.7 30.5 -35.1 35.5 -23.4 36.75 -13.85 37.75 -4.25 38.8 14.95 40.9 34.25 39.05 42.3 38.25 48.7 33.7 49.2 33.3 49.8 32.9 51.75 27.3 52.8 21.4 53.9 15.45 54.85 9.5 56.8 -2.35 57.5 -14.45 57.85 -20.05 56.1 -25.3 55.95 -25.5 55.85 -25.75 55.6 -25.9 55.4 -26 55 -26.15 54.55 -26.35
L 54.5 -26.4
Q 33.2 -30.1 11.45 -30.05 10.95 -30.05 10.4 -30 9.35 -30.2 8.25 -30.4
M 21.75 -28
Q 26.15 -27.45 30.6 -26.75 36.6 -25.8 42.6 -24.7 47 -23.85 51.35 -22.55 55.1 -21.35 55.1 -17.3 55.1 -5.4 52.9 6.2 52.55 8 51.9 9.8 51.5 12.85 50.9 15.9 50 20.2 49.45 24.45 48.85 29.25 45.6 32.7 43.7 34.75 40.95 35.5 25.3 39.55 9.15 38.15 8.45 38.75 6.8 38.6 -2.3 37.85 -11.3 36.55 -17.95 35.55 -24.45 34.15 -32.05 32.55 -39.7 30.9 -42.1 30.4 -43.75 28.7 -44.4 28 -44.6 27 -44.65 26.6 -44.65 26.25 -45 25.3 -45.1 24.05 -45.4 19.65 -45.55 15.2 -45.6 9.95 -45.75 4.55 -46.05 -6.85 -44.85 -18 -44.5 -21.65 -42.9 -24.85
L -42.8 -24.7
Q -43.1 -25.8 -41.6 -26.65 -40 -27.65 -38.1 -27.9 -37.95 -28 -37.7 -28.1 -35.3 -28.55 -32.8 -28.6 -30.45 -28.65 -28.1 -28.75 -27.85 -28.75 -27.55 -28.8 -25.8 -29 -24.1 -29.1 -23.7 -29.15 -23.35 -29.15 -17.75 -29.25 -12.15 -29.2 -5.95 -29.1 0.3 -28.85 6.35 -28.65 12.4 -28.7 15.8 -28.7 19.3 -28.35 20.55 -28.2 21.75 -27.9 21.75 -27.95 21.75 -28
M 21.1 -33.55
Q 22.1 -35.3 22.95 -37.05 22.15 -37.05 21.35 -37.1 19.5 -37.3 17.6 -37.3 10.35 -37.5 3.05 -37.6 -4.15 -37.75 -11.25 -37.95 -11.85 -38 -12.4 -38.05 -12.3 -37.9 -12.2 -37.75 -11.6 -36.95 -11.05 -36.15 -10.4 -35.2 -10.5 -34.45 0.6 -34.25 11.75 -33.9 16.4 -33.75 21.1 -33.55
M 25.35 -33.35
Q 28.7 -33.2 32.1 -33.05 37.9 -32.8 43.65 -32.15 43.7 -32.35 43.75 -32.5 44.2 -34 44.2 -35.6 43.9 -35.7 43.7 -36.05 42.85 -37.35 43.55 -38.2 42.65 -40.7 41.2 -43.05 40.1 -44.8 38.4 -46.1 34.2 -49.2 29.1 -50.25 29.4 -46.75 28.8 -43.15 28 -37.9 25.35 -33.35 Z" stroke="none" fill="#666056"></path>

<path d="M 38.1 -21.7
Q 30 -23.05 21.8 -24.05 19.2 -24.2 16.6 -24.6 11.5 -25.25 6.4 -24.95 2.4 -24.75 -1.55 -24.9 -6.6 -25.1 -11.6 -25.2 -15.65 -26.3 -20.05 -25.85 -22.75 -25.7 -25.15 -24.85 -30.75 -24.45 -36.4 -23.9 -37.9 -23.75 -39.35 -23.5 -40.45 -21.05 -40.75 -18.45 -42.15 -6.9 -42.05 4.9 -42 12.6 -41.3 20.15 -41.6 21.1 -41.5 22.2 -40.45 23 -40.55 24.75 -40.55 25.45 -40.5 26.15 -32.2 28.65 -23.45 30.45 -18.4 31.45 -13.2 32.3 -8.7 32.75 -4.15 33.25 1.45 33.6 7.15 34.1 8.7 34.15 10.3 34.05 21 34.9 31.7 33.75 37.3 33.15 42.15 30.55 43.6 29.75 44.25 28.25 44.9 25.45 45.45 22.65 47.8 11 50 -0.7 51.7 -9.65 50.7 -18.65 44.55 -20.55 38.1 -21.7
M 9.35 -1.45
Q 9.5 -1.45 9.65 -1.45 11.85 -0.95 12.2 1.4 12.25 1.9 12.6 2.3 16.75 6.6 22.75 6.75 24 6.8 25.3 6.8 31.2 7.1 36 3.95 37.2 3.1 38.25 2 39.25 0.9 40.7 0.7 41.75 0.55 42.25 1.45 43.25 3.4 41.5 4.85 39.6 6.4 37.5 7.8 33.7 10.25 29.15 10.65 23.5 11.15 18 9.85 12.3 8.5 8.8 3.8 7 1.35 8.6 -0.9 8.9 -1.3 9.35 -1.45
M 38.5 20.8
Q 38.6 21.75 38 22.85 35.85 27.2 30.95 28.45 27.45 29.35 23.75 28.7 22.5 28.5 21.2 28.5 18.15 32.05 13.4 32.4 3.5 33.05 -5.75 29.55 -12.7 26.85 -18.85 22.6 -19.3 22.35 -19.75 22.05 -22.7 22.3 -25.5 21.6 -27.05 21.2 -28.4 20.2 -32.25 17.55 -34.25 13.2 -35.2 11.15 -35.25 9.05 -37.05 8.4 -37.85 6.7 -38.15 6.05 -37.8 5.45 -37.2 4.5 -36.15 4.45 -30.25 5.5 -27.95 10.8 -27.7 11.4 -28.15 11.9 -29.05 12.85 -29.85 12.8 -29.55 13.45 -29.15 14.1 -27.55 16.8 -24.55 17.9 -21.6 17.45 -18.85 18.15 -17.55 18.55 -16.4 19.35 -8.1 25.4 1.95 27.7 8.55 29.2 15.15 27.85 17.05 27.4 18.35 25.85 20.25 23.5 23.25 24.5 23.9 24.7 24.65 24.85 27.6 25.25 30.3 24.45 31.65 24 32.7 23.2 32.65 23.2 32.55 23.15 30.25 21.9 32.05 20 33.3 18.7 34.9 17.95 36.75 17 38.75 16.4 42.45 16.55 41.45 19.65 41.1 20.65 40 20.7 39.5 20.75 39 20.5 38.75 20.65 38.5 20.8
M -29.35 -20.75
Q -27.1 -22.3 -24.6 -23.1 -22.2 -24 -19.5 -24.1 -15.1 -24.55 -11.05 -23.45 -8.15 -22.65 -5.4 -21 -2.55 -19.3 -4.65 -17.05 -5.25 -16.4 -6.2 -16.85 -8 -17.8 -9.8 -18.65 -10.5 -18.95 -11.1 -19.4 -19.15 -21.75 -26.2 -17.75 -31.2 -14.95 -32.5 -9.6 -32.55 -9.15 -32.6 -8.7 -32.8 -7.2 -32.65 -5.65 -32.4 -3.6 -31.75 -1.6 -31.7 -1.55 -31.65 -1.5 -31.5 -1.3 -31.45 -1.1 -31.4 -1.05 -31.4 -1 -31.3 -0.75 -31.15 -0.5 -31.15 -0.4 -31.05 -0.3 -29.5 1.45 -29.15 3.6 -29 4.55 -29.9 5.05 -31.9 6.1 -33 4.1 -33.85 2.75 -34.65 1.4 -35.35 0.25 -35.65 -1.05 -36.6 -3.6 -36.8 -6.4 -37 -11.45 -34.3 -15.6 -32.4 -18.7 -29.35 -20.75
M -12.45 -13.05
Q -11.75 -14.6 -10.15 -14.85 -7.15 -14.2 -7.1 -10.95 -6.95 -3.65 -8.25 3.55 -8.7 5.9 -10.05 7.85 -10.55 8.55 -11.4 8.45 -13.45 8.3 -13.9 6.45 -15.5 -0.15 -14.4 -6.85 -13.8 -10.1 -12.45 -13.05 Z" stroke="none" fill="#FFD96A"></path>

<path d="M -10.15 -14.85
Q -11.75 -14.6 -12.45 -13.05 -13.8 -10.1 -14.4 -6.85 -15.5 -0.15 -13.9 6.45 -13.45 8.3 -11.4 8.45 -10.55 8.55 -10.05 7.85 -8.7 5.9 -8.25 3.55 -6.95 -3.65 -7.1 -10.95 -7.15 -14.2 -10.15 -14.85
M -24.6 -23.1
Q -27.1 -22.3 -29.35 -20.75 -32.4 -18.7 -34.3 -15.6 -37 -11.45 -36.8 -6.4 -36.6 -3.6 -35.65 -1.05 -35.35 0.25 -34.65 1.4 -33.85 2.75 -33 4.1 -31.9 6.1 -29.9 5.05 -29 4.55 -29.15 3.6 -29.5 1.45 -31.05 -0.3 -31.15 -0.4 -31.15 -0.5 -31.3 -0.75 -31.4 -1 -31.4 -1.05 -31.45 -1.1 -31.5 -1.3 -31.65 -1.5 -31.7 -1.55 -31.75 -1.6 -32.4 -3.6 -32.65 -5.65 -32.8 -7.2 -32.6 -8.7 -32.55 -9.15 -32.5 -9.6 -31.2 -14.95 -26.2 -17.75 -19.15 -21.75 -11.1 -19.4 -10.5 -18.95 -9.8 -18.65 -8 -17.8 -6.2 -16.85 -5.25 -16.4 -4.65 -17.05 -2.55 -19.3 -5.4 -21 -8.15 -22.65 -11.05 -23.45 -15.1 -24.55 -19.5 -24.1 -22.2 -24 -24.6 -23.1
M 38 22.85
Q 38.6 21.75 38.5 20.8 38.75 20.65 39 20.5 39.5 20.75 40 20.7 41.1 20.65 41.45 19.65 42.45 16.55 38.75 16.4 36.75 17 34.9 17.95 33.3 18.7 32.05 20 30.25 21.9 32.55 23.15 32.65 23.2 32.7 23.2 31.65 24 30.3 24.45 27.6 25.25 24.65 24.85 23.9 24.7 23.25 24.5 20.25 23.5 18.35 25.85 17.05 27.4 15.15 27.85 8.55 29.2 1.95 27.7 -8.1 25.4 -16.4 19.35 -17.55 18.55 -18.85 18.15 -21.6 17.45 -24.55 17.9 -27.55 16.8 -29.15 14.1 -29.55 13.45 -29.85 12.8 -29.05 12.85 -28.15 11.9 -27.7 11.4 -27.95 10.8 -30.25 5.5 -36.15 4.45 -37.2 4.5 -37.8 5.45 -38.15 6.05 -37.85 6.7 -37.05 8.4 -35.25 9.05 -35.2 11.15 -34.25 13.2 -32.25 17.55 -28.4 20.2 -27.05 21.2 -25.5 21.6 -22.7 22.3 -19.75 22.05 -19.3 22.35 -18.85 22.6 -12.7 26.85 -5.75 29.55 3.5 33.05 13.4 32.4 18.15 32.05 21.2 28.5 22.5 28.5 23.75 28.7 27.45 29.35 30.95 28.45 35.85 27.2 38 22.85
M 9.65 -1.45
Q 9.5 -1.45 9.35 -1.45 8.9 -1.3 8.6 -0.9 7 1.35 8.8 3.8 12.3 8.5 18 9.85 23.5 11.15 29.15 10.65 33.7 10.25 37.5 7.8 39.6 6.4 41.5 4.85 43.25 3.4 42.25 1.45 41.75 0.55 40.7 0.7 39.25 0.9 38.25 2 37.2 3.1 36 3.95 31.2 7.1 25.3 6.8 24 6.8 22.75 6.75 16.75 6.6 12.6 2.3 12.25 1.9 12.2 1.4 11.85 -0.95 9.65 -1.45 Z" stroke="none" fill="#5B4201"></path>
</g>
</g>
</g>
</g>
</g>
</svg>
