
<svg viewBox="0 0 80 70" height="70px" width="80px" y="0px" x="0px" preserveAspectRatio="none" xmlns:xlink="http://www.w3.org/1999/xlink" version="1.1" xmlns="http://www.w3.org/2000/svg">
<defs></defs>

<g id="Layer_2">
<g transform="matrix( 0.2443389892578125, 0, 0, 0.2443389892578125, -5.6,-13.9)" id="Layer_1">
<g>
<g>
<g>
<path d="M 258 297
Q 257.5 297 257 297 253.5 297 250 297 250 297.5 250 298 250 298.5 250 299 255.25 299.75 257.75 297.7 258 297.5 258 297 Z" stroke="none" fill="#6B7067"></path>

<path d="M 220 323
Q 219.5 323 219 323 219 328 219.5 332.95 219.5 333 220 333 220 332.5 220 332 220 327.5 220 323 Z" stroke="none" fill="#375D66"></path>

<path d="M 221.5 323
L 221 323
Q 220.5 323 220 323 220 327.5 220 332 220 332.5 220 333 220 334 220 335 220 335.5 220 336 221.55 327.6 221.5 323 Z" stroke="none" fill="#06242C"></path>

<path d="M 221 308
Q 220.5 308 220 308 220 315 220 322 220 322.5 220 323 220.5 323 221 323 221 322.5 221 322 221 315 221 308 Z" stroke="none" fill="#38565E"></path>

<path d="M 222 299
Q 221.5 299 221 298.95 203.675 296.63125 183.75 296.9 208.601953125 297.2646484375 220.2 306.75 220.5 307 221 307 221 306.5 221 306 222.7 305.2 222.1 302 222 301.5 222 301 222 300.5 222 300 222 299.5 222 299 Z" stroke="none" fill="#686D62"></path>

<path d="M 237.05 305
Q 237 304.5 237 304 236.5 304 236 304 236 309 236 314 236 314.5 236 315 237.75 311.25 237.05 305 Z" stroke="none" fill="#38545C"></path>

<path d="M 233 300
Q 233.5 300 234 300 234 299.5 234 299 233.5 299 233 299 227.5 299 222 299 222 299.5 222 300 222 300.5 222 301 223 300.5 224.05 300.15 224.5 300 225 300 229 300 233 300 Z" stroke="none" fill="#2C1D0F"></path>

<path d="M 233.9 300.5
Q 234 300.5 234 300 233.5 300 233 300 229 300 225 300 228.25 301.75 233.9 300.5 Z" stroke="none" fill="#080201"></path>

<path d="M 236.5 302
Q 236.65 299.35 234 300 234 300.5 233.9 300.5 228.25 301.75 225 300 224.5 300 224.05 300.15 223 300.5 222 301 222 301.5 222.1 302 222.7 305.2 221 306 221 306.5 221 307 221 307.5 221 308 221 315 221 322 221 322.5 221 323
L 221.5 323
Q 221.55 327.6 220 336 224 346.8 233.2 339.25 233.5 339 234 339 236.5 329 236 316 236 315.5 236 315 236 314.5 236 314 236 309 236 304 236.5 304 237 304 237 303.5 237 303 237 302.5 237 302
L 236.5 302
M 230.25 305.75
Q 230 305.5 230 305 234.15 309.65 230.25 305.75
M 230.2 311.9
Q 230 311.5 230 311 234.2 321.2 230.2 311.9 Z" stroke="none" fill="#010C14"></path>

<path d="M 230 311
Q 230 311.5 230.2 311.9 234.2 321.2 230 311
M 230 305
Q 230 305.5 230.25 305.75 234.15 309.65 230 305
M 204 215.5
Q 209.7 213.85 204 215
L 204 215.5 Z" stroke="none" fill="#030202"></path>

<path d="M 234 300
Q 236.65 299.35 236.5 302
L 237 302
Q 237 301.5 237 301 244.55 301.55 249.85 299.55 250 299.5 250 299 249.5 299 249 299 241.5 299 234 299 234 299.5 234 300 Z" stroke="none" fill="#696D63"></path>

<path d="M 242 287
Q 234 287 226 287 233.1095703125 288.716015625 242.55 287.55 242.762109375 287.52421875 242.95 287.5
L 242.95 287.45
Q 243 287.3755859375 243 287 242.5 287 242 287 Z" stroke="none" fill="#CB9438"></path>

<path d="M 213 287
Q 213 286.5 212.95 286.5 207.5 286 202 286 205.75 287.75 212 287.05 212.5 287 213 287 Z" stroke="none" fill="#BC9023"></path>

<path d="M 239 266
Q 238.5 266 238 266 238 268 238 270 238 270.5 238 271 239.5 271 241 271 241.5 271 242 271 242 270.5 241.85 270.05 241.5 269 241 268 240.5 268 240.25 267.75 239.5 267 239 266 Z" stroke="none" fill="#D3B654"></path>

<path d="M 184 285
Q 186.75 286.75 192 286.05 192.5 286 193 286 193 285.5 192.95 285.5 188.5 285 184 285 Z" stroke="none" fill="#BD8D2E"></path>

<path d="M 176 285.05
Q 176.5 285 177 285 177 284.5 176.95 284.5 171.5 284 166 284 169.75 285.75 176 285.05 Z" stroke="none" fill="#D6A731"></path>

<path d="M 173.8 288.1
Q 174 288.5 174 289 182.5 289 191 289 191.5 289 192 289
L 192 288.5
Q 181.7 288.3 173 287 173.5 287.5 173.8 288.1
M 128 73
Q 128 73.5 128 74 128 74.5 128 75 131.5 75 135 75 135.5 75 136 75 136 74.5 135.9 74.5 132.95 73.85 128 73 Z" stroke="none" fill="#A3621C"></path>

<path d="M 166 289
Q 166 288.5 165.85 288.45 161.2 286.9 150 287 155.25 289.85 165 289.05 165.5 289 166 289 Z" stroke="none" fill="#A2621C"></path>

<path d="M 284.9 292.55
Q 285 292.5 285 292 284.5 292 284 292 280.5 292 277 292 279.75 293.75 284.9 292.55 Z" stroke="none" fill="#3C555D"></path>

<path d="M 288 288
Q 288 288.5 288 289 288.5 289 288.7 288.75 291.45 285.6 288 284 288 286 288 288 Z" stroke="none" fill="#4C6569"></path>

<path d="M 284.2 278.75
Q 284.5 279 285 279 285 278.5 284.8 278.05 283.55 274.95 281 273 281.8 276.7 284.2 278.75 Z" stroke="none" fill="#3A323C"></path>

<path d="M 288 284
Q 288 283.5 288 283 288 282.5 288 282 287.5 282 287 282 287 285.5 287 289 287 289.5 287 290 287.5 290 287.75 289.75 288 289.5 288 289 288 288.5 288 288 288 286 288 284 Z" stroke="none" fill="#1D3239"></path>

<path d="M 290.1 263.95
Q 290 263.5 290 263 289.5 263 289 263 288.5 263 288 263 288 264.5 288 266 288 266.5 288 267 290.95 267.45 290.1 263.95 Z" stroke="none" fill="#6D7061"></path>

<path d="M 292 255
L 291.5 255
Q 291.65 257.15 290 257 290 258.5 290 260 290 260.5 290 261 293.2 260.7 292.1 256 292 255.5 292 255 Z" stroke="none" fill="#706F5E"></path>

<path d="M 276.95 291.5
Q 277 291.5 277 292 280.5 292 284 292 284.5 292 285 292 285 291.5 285 291 286 291 286.8 290.6 287 290.5 287 290 286.5 290 286.35 289.75 281.45 283 274 289 274.3 291.2 276.95 291.5 Z" stroke="none" fill="#020F1E"></path>

<path d="M 269.8 289.9
Q 270 289.5 270 289 269.5 289 269 289.05 265.95 289.45 264 291 264 291.5 264 292 264 292.5 264 293 264.5 293 265 293 265.5 293 266 293 268.7 292.2 269.8 289.9
M 85 283.05
Q 85.5 283 86 283 86 282.5 85.8 282.1 84.7 279.8 82 279 80.8 283.7 85 283.05 Z" stroke="none" fill="#6F6F62"></path>

<path d="M 263.15 293.25
Q 261.95 293.95 260 294 260 294.5 260 295 263.5 295 265.8 293.65 266 293.5 266 293 265.5 293 265 293 264.5 293 264 293 263.5 293 263.15 293.25 Z" stroke="none" fill="#6B7166"></path>

<path d="M 252 275
Q 252 274.5 251.8 274.4 247.45 272.05 242 271 245.3 276.7 251.05 275.15 251.5 275 252 275 Z" stroke="none" fill="#D8BD66"></path>

<path d="M 258 283
Q 257.5 283 257.4 283.2 257.201953125 283.6244140625 256.85 283.85 257.347265625 283.7130859375 257.85 283.55 258 283.5 258 283
M 254 284
Q 254 284.5 253.85 284.55 248.75 286.25 243 287 243 287.3755859375 242.95 287.45 249.4580078125 286.14375 255.75 284.2 255.008984375 284.2615234375 254 284
M 85 264
Q 84.5 264 84.5 263.95 84.2 261.3 82 261 82 261.5 82 262 83.8 273.35 93.15 278.8 93.5 279 94 279 97.3 279.2 99.8 280.4 100 280.5 100 281 100.5 281 101 281 101.5 281 102 281 106.35 283.65 111.05 284.9 111.5 285 112 285 127.15 291.3 142.5 287
L 142 287
Q 131.8 287.7 129.5 286
L 130 286
Q 142.3 283.4 149.1 286.8 149.5 287 150 287 161.2 286.9 165.85 288.45 166 288.5 166 289 169.65 285.8 173.2 288.75 173.5 289 174 289 174 288.5 173.8 288.1 173.5 287.5 173 287 181.7 288.3 192 288.5
L 192 289
Q 218.6677734375 292.35703125 242.55 287.55 233.1095703125 288.716015625 226 287 225.5 287 225 287 219 287 213 287 212.5 287 212 287.05 205.75 287.75 202 286 201.5 286 201 286 197 286 193 286 192.5 286 192 286.05 186.75 286.75 184 285 183.5 285 183 285 180 285 177 285 176.5 285 176 285.05 169.75 285.75 166 284 165.5 284 165 284 149.75 283.75 135 283 134.5 283 134 283.05 128.25 283.75 125 282 124.5 282 124 282 108.75 282.25 99 277 98.5 277 98.25 276.75 96.8 275.2 95 274 94.5 274 94.15 273.75 88.45 270.05 85 264 Z" stroke="none" fill="#A3690C"></path>

<path d="M 257 279
Q 257.5 279 258 279 258 278.5 257.75 278.2 255.7 275.8 252 275 252.6 278.9 257 279 Z" stroke="none" fill="#D8BE60"></path>

<path d="M 258 279
Q 258 279.5 257.9 279.95 257.2 282.7 254 283 254 283.5 254 284 255.008984375 284.2615234375 255.75 284.2 256.297265625 284.05078125 256.85 283.85 257.201953125 283.6244140625 257.4 283.2 257.5 283 258 283 258 282.5 258 282 259.95 281.95 260.75 280.85 261 280.5 261 280 260.5 280 260.5 279.9 260.15 278.4 258 279 Z" stroke="none" fill="#D7B462"></path>

<path d="M 254 263
Q 255 263 256 263 256.5 263 257 263 257 262.5 256.8 262.35 254.15 260.85 250 261 250.8 262.7 254 262.5
L 254 263 Z" stroke="none" fill="#795E10"></path>

<path d="M 250 261
Q 249.5 261 249 260.95 241.75 260.25 239 264 239 264.5 239 265 239 265.5 239 266 239.5 267 240.25 267.75 240.5 268 241 268 241 267.5 241 267 244.75 260.6 253.05 262.85 253.5 263 254 263
L 254 262.5
Q 250.8 262.7 250 261 Z" stroke="none" fill="#3E1E00"></path>

<path d="M 280 271
Q 280.5 271.5 280.8 272.1 281 272.5 281 273 283.55 274.95 284.8 278.05 285 278.5 285 279 285.3 280.7 286.8 281.4 287 281.5 287 282 287.5 282 288 282 288 281.5 287.75 281.25 285.35 278.65 286 273 289.1 273.1 288.1 268.95 288 268.5 288 268 287.5 268 287.45 268.15 286.15 272.15 280 271 Z" stroke="none" fill="#6A6866"></path>

<path d="M 264 261
Q 263.5 261 263.4 261.2 261.3 265 257 263 256.5 263 256 263 255 263 254 263 253.5 263 253.05 262.85 244.75 260.6 241 267 241 267.5 241 268 241.5 269 241.85 270.05 242 270.5 242 271 247.45 272.05 251.8 274.4 252 274.5 252 275 255.7 275.8 257.75 278.2 258 278.5 258 279 260.15 278.4 260.5 279.9 260.5 280 261 280 265.75 282.75 269.75 286.3 270 286.5 270 287 271.5 288 273.1 288.8 273.5 289 274 289 281.45 283 286.35 289.75 286.5 290 287 290 287 289.5 287 289 287 285.5 287 282 287 281.5 286.8 281.4 285.3 280.7 285 279 284.5 279 284.2 278.75 281.8 276.7 281 273 281 272.5 280.8 272.1 280.5 271.5 280 271 280 270.5 279.75 270.2 276.75 266.75 275 262 274.5 262 274.05 261.85 269.95 260.6 264 261 Z" stroke="none" fill="#160603"></path>

<path d="M 264 260
Q 264 260.5 264 261 269.95 260.6 274.05 261.85 274.5 262 275 262 275 261.5 274.8 261.4 270.45 259.5 264 260 Z" stroke="none" fill="#6C4D07"></path>

<path d="M 281 248
Q 281 248.5 281 249 280.6 257.1 277 262 277 262.5 277 263 282.8 260.8 282.05 252 282 251.5 282 251 282 250.5 282.1 250.05 282.65 247.9 281 248 Z" stroke="none" fill="#A26C0D"></path>

<path d="M 282 211
Q 282 216.5 282 222 282 222.5 282 223 283.75 218.75 283.05 212 283 211.5 283 211 282.5 211 282 211 Z" stroke="none" fill="#D6993A"></path>

<path d="M 293.5 237
Q 293.65 239.15 292 239 292 244.5 292 250 292 250.5 292 251 295.4 247.4 294.1 239 294 238.5 294 238 294 237.5 294 237
L 293.5 237 Z" stroke="none" fill="#6F7060"></path>

<path d="M 117 310
Q 116.5 310 116 310 116 314 116.5 317.95 116.5 318 117 318 117 317.5 117 317 117 313.5 117 310 Z" stroke="none" fill="#0B2B34"></path>

<path d="M 135 340
Q 134.5 340 134 340 133.5 340 133 339.9 129.75 339.25 126 339 128.6 341.9 134.9 340.5 135 340.5 135 340 Z" stroke="none" fill="#27424B"></path>

<path d="M 130.8 321.9
Q 130.5 322.5 130 323 135.85 336.15 134.2 339.1 134 339.5 134 340 134.5 340 135 340 135.5 340 135.7 339.75 142.5 330.5 131 321 131 321.5 130.8 321.9 Z" stroke="none" fill="#041C28"></path>

<path d="M 131 317
Q 131 315 131 313 132.7 312.7 132.95 311 133 310.5 133 310 132.5 310 132.4 310.2 131.7 311.7 130 312 130 315 130.5 317.9 130.5 318 131 318 131 317.5 131 317 Z" stroke="none" fill="#26393F"></path>

<path d="M 144 297
Q 143.5 297 143 297 143 297.5 143.05 298 143.25 301.25 140 301 140.5 301.5 140.8 302.1 141 302.5 141 303 144.15 302.15 144 298 144 297.5 144 297 Z" stroke="none" fill="#293940"></path>

<path d="M 53.9 266.5
Q 54 266.5 54 266 53.5 266 53 266 49 266 45 266 48.25 267.75 53.9 266.5 Z" stroke="none" fill="#213A43"></path>

<path d="M 78 241
Q 77.5 241 77 241 77 241.5 77 242 77 242.5 77 243 77.5 243.5 77.8 244.1 78 244.5 78 245 78.5 245.5 79.1 245.8 79.5 246 80 246 80.5 246 80.55 245.85 81.3 243.95 78 241 Z" stroke="none" fill="#EAC45A"></path>

<path d="M 65 237
Q 64.5 237 64 237 64 237.5 64.05 238 64.15 239.65 62 239 59.45 250.2 71 249.05 71.5 249 72 249 74.05 255.3 67.5 256
L 68 256
Q 73.05 256.05 77.05 255.1 77.5 255 78 255 78 254.5 78 254 78.5 254 79 254 82.85 251.35 80.2 246.85 80 246.5 80 246 79.5 246 79.1 245.8 78.5 245.5 78 245 77.5 245 77.1 244.8 70.6 241.9 66 237 65.5 237 65 237 Z" stroke="none" fill="#270C01"></path>

<path d="M 59 238
Q 58.5 238 58.3 238.25 50.05 248.05 42 258 41.95 263.05 44.3 265.75 44.5 266 45 266 49 266 53 266 53.5 266 54 266 60 261 67.1 257.2 67.5 257 68 257 68 256.5 68 256
L 67.5 256
Q 74.05 255.3 72 249 71.5 249 71 249.05 59.45 250.2 62 239 64.15 239.65 64.05 238 64 237.5 64 237 63.5 237 63 237.1 61 237.5 59 238 Z" stroke="none" fill="#030F1B"></path>

<path d="M 59 237
Q 59 237.5 59 238 61 237.5 63 237.1 63.5 237 64 237 64.5 237 65 237 65.5 237 66 237 66 236.5 66 236 65.5 236 65 236 64.5 236 64 236 63.5 236 63 235.95 60.3 235.8 59 237 Z" stroke="none" fill="#35454C"></path>

<path d="M 66 215
Q 65.5 215 65 215 64.5 215 64 215 64 225 64 235 64 235.5 64 236 64.5 236 65 236 65.5 236 66 236 66 235.5 66 235 66 225 66 215 Z" stroke="none" fill="#826955"></path>

<path d="M 66 208
Q 66 207.5 66 207 65.5 207 65 207 64.5 207 64 207 64 210.5 64 214 64 214.5 64 215 64.5 215 65 215 65.5 215 66 215 66 214.5 66 214 66 212.5 66 211 66 210.5 66 210 66 209 66 208 Z" stroke="none" fill="#687269"></path>

<path d="M 146 295
Q 146 295.5 146 296 146 296.5 146 297 159.5 297 173 297 173.5 297 174 297 174 296.5 173.9 296.5 161.2 294.3 146 295 Z" stroke="none" fill="#736E5C"></path>

<path d="M 130 294
Q 130 294.5 130 295 137.2 293 141.15 295.75 141.5 296 142 296 142 295.5 141.75 295.3 137.1 291.3 130 294 Z" stroke="none" fill="#422004"></path>

<path d="M 129 295
Q 129 295.5 128.75 295.75 127.5 297 126 298 126 298.5 125.75 298.75 121.25 303.75 117 309 117 309.5 117 310 117 313.5 117 317 117 317.5 117 318 119.7 329.8 125.35 338.75 125.5 339 126 339 129.75 339.25 133 339.9 133.5 340 134 340 134 339.5 134.2 339.1 135.85 336.15 130 323 130.5 322.5 130.8 321.9 131 321.5 131 321 131 320.5 131 320 131 319 131 318 130.5 318 130.5 317.9 130 315 130 312 131.7 311.7 132.4 310.2 132.5 310 133 310 137.25 307.25 140.3 303.25 140.5 303 141 303 141 302.5 140.8 302.1 140.5 301.5 140 301 143.25 301.25 143.05 298 143 297.5 143 297 143 296.5 142.75 296.25 142.5 296 142 296 141.5 296 141.15 295.75 137.2 293 130 295 129.5 295 129 295 Z" stroke="none" fill="#040B13"></path>

<path d="M 128.75 295.75
Q 129 295.5 129 295 128.5 295 128 295 126 295 124 295 125 296 125.75 297.15 126 297.5 126 298 127.5 297 128.75 295.75 Z" stroke="none" fill="#5D5C55"></path>

<path d="M 135 283
Q 135 282.5 134.95 282.5 130 282 125 282 128.25 283.75 134 283.05 134.5 283 135 283 Z" stroke="none" fill="#D5A72F"></path>

<path d="M 114 293
Q 113.9 294.65 116 294.5
L 116 295
Q 117.5 295 119 295 119.5 295 120 295 120 294.5 119.75 294.15 119 293.05 114 293 Z" stroke="none" fill="#786C58"></path>

<path d="M 111.8 285.6
Q 112 285.5 112 285 111.5 285 111.05 284.9 106.35 283.65 102 281 102.25 290.7 111.8 285.6 Z" stroke="none" fill="#A4621D"></path>

<path d="M 104 291
Q 104 291.5 104 292 104 292.5 104 293 107.55 295.95 115 295.05 115.5 295 116 295
L 116 294.5
Q 113.9 294.65 114 293 113.5 293 113 293.05 106.9 293.6 104 291 Z" stroke="none" fill="#6C7067"></path>

<path d="M 99 291
Q 98.5 291 98 291 99.25 293.2 103 293.05 103.5 293 104 293 104 292.5 104 292 104 291.5 104 291 103.5 291 103 291 101.5 291 100 291 99.5 291 99 291 Z" stroke="none" fill="#68716B"></path>

<path d="M 94 288
Q 94 288.5 94 289 93.6 291.95 97.05 291.1 97.5 291 98 291 98.5 291 99 291 99.5 291 100 291 100 290.5 99.75 290.3 97.55 288.45 94 288 Z" stroke="none" fill="#716E60"></path>

<path d="M 94 288
Q 94 287.5 93.75 287.2 91.1 283.9 86 283 88.25 287.25 93.05 288.85 93.5 289 94 289 94 288.5 94 288 Z" stroke="none" fill="#6D7064"></path>

<path d="M 99 281.1
Q 99.5 281 100 281 100 280.5 99.8 280.4 97.3 279.2 94 279 94.3 282.2 99 281.1 Z" stroke="none" fill="#A5631F"></path>

<path d="M 85 263
Q 85 263.5 85 264 88.45 270.05 94.15 273.75 94.5 274 95 274
L 95.5 274
Q 91.95 266.05 85 261 85 262 85 263 Z" stroke="none" fill="#F4C74C"></path>

<path d="M 82 262
Q 81.5 262 81.2 261.75 78.4 259.6 78 255 77.5 255 77.05 255.1 73.05 256.05 68 256 68 256.5 68 257 72.2 270.3 81.75 278.3 82 278.5 82 279 84.7 279.8 85.8 282.1 86 282.5 86 283 91.1 283.9 93.75 287.2 94 287.5 94 288 97.55 288.45 99.75 290.3 100 290.5 100 291 101.5 291 103 291 103.5 291 104 291 106.9 293.6 113 293.05 113.5 293 114 293 119 293.05 119.75 294.15 120 294.5 120 295 121.5 295 123 295 123.5 295 124 295 126 295 128 295 128.5 295 129 295 129.5 295 130 295 130 294.5 130 294 137.1 291.3 141.75 295.3 142 295.5 142 296 142.5 296 142.75 296.25 143 296.5 143 297 143.5 297 144 297 144.5 297 145 297 145.5 297 146 297 146 296.5 146 296 146 295.5 146 295 161.2 294.3 173.9 296.5 174 296.5 174 297 175.5 297 177 297 177.5 297 178 297 180.928515625 296.9158203125 183.75 296.9 203.675 296.63125 221 298.95 221.5 299 222 299 227.5 299 233 299 233.5 299 234 299 241.5 299 249 299 249.5 299 250 299 250 298.5 250 298 250 297.5 250 297 253.5 297 257 297 257.5 297 258 297 258 296.5 258 296 258 295.5 258 295 258.5 295 259 295 259.5 295 260 295 260 294.5 260 294 261.95 293.95 263.15 293.25 263.5 293 264 293 264 292.5 264 292 264 291.5 264 291 265.95 289.45 269 289.05 269.5 289 270 289 270 288.5 270 288 270 287.5 270 287 270 286.5 269.75 286.3 265.75 282.75 261 280 261 280.5 260.75 280.85 259.95 281.95 258 282 258 282.5 258 283 258 283.5 257.85 283.55 257.347265625 283.7130859375 256.85 283.85 256.297265625 284.05078125 255.75 284.2 249.4580078125 286.14375 242.95 287.45
L 242.95 287.5
Q 242.762109375 287.52421875 242.55 287.55 218.6677734375 292.35703125 192 289 191.5 289 191 289 182.5 289 174 289 173.5 289 173.2 288.75 169.65 285.8 166 289 165.5 289 165 289.05 155.25 289.85 150 287 149.5 287 149.1 286.8 142.3 283.4 130 286
L 129.5 286
Q 131.8 287.7 142 287
L 142.5 287
Q 127.15 291.3 112 285 112 285.5 111.8 285.6 102.25 290.7 102 281 101.5 281 101 281 100.5 281 100 281 99.5 281 99 281.1 94.3 282.2 94 279 93.5 279 93.15 278.8 83.8 273.35 82 262 Z" stroke="none" fill="#99622F"></path>

<path d="M 81.2 261.75
Q 81.5 262 82 262 82 261.5 82 261 82 260.5 81.75 260.3 79.25 258.25 79 254 78.5 254 78 254 78 254.5 78 255 78.4 259.6 81.2 261.75 Z" stroke="none" fill="#9D6511"></path>

<path d="M 118 262
Q 117.5 262 117.2 262.25 104.75 272.4 98 268 101.45 274 99.25 276.25 99 276.5 99 277 108.75 282.25 124 282 124.5 282 125 282 130 282 134.95 282.5 135 282.5 135 283 149.75 283.75 165 284 165.5 284 166 284 171.5 284 176.95 284.5 177 284.5 177 285 180 285 183 285 183.5 285 184 285 188.5 285 192.95 285.5 193 285.5 193 286 197 286 201 286 201.5 286 202 286 207.5 286 212.95 286.5 213 286.5 213 287 219 287 225 287 225.5 287 226 287 234 287 242 287 242.5 287 243 287 248.75 286.25 253.85 284.55 254 284.5 254 284 254 283.5 254 283 257.2 282.7 257.9 279.95 258 279.5 258 279 257.5 279 257 279 252.6 278.9 252 275 251.5 275 251.05 275.15 245.3 276.7 242 271 241.5 271 241 271 239.5 271 238 271 237.5 271 237.25 271.25 233.25 274.95 232 272 232 271.5 231.8 271.1 230.525390625 268.70078125 223.4 269.85 227.599609375 268.2630859375 227 263 226.5 263 226 263 213.4 262.5 207 266 206.5 266 206.45 266.1 204.15 275.5 201 264 201.5 264 201.8 263.75 203.3 262.45 189 264 189 264.5 189.1 264.95 190.75 271.65 193 268
L 193.5 268
Q 193.45 273.55 185 270 185.5 270 185.6 269.8 187.95 265.6 186 263 185.5 263 185.1 263.2 172.35 269.1 172 264 172.5 264 172.95 263.85 178.1 262.15 164 264 164 264.5 164.25 264.65 170.65 269.15 164 270 164 269.5 163.75 269.15 160.1 263.4 154 270 154 269.5 153.95 269 153.5 261.85 144 265 144 265.5 144.05 266 144.9 273.55 142 268
L 142.5 268
Q 141.45 265.1 137 265 137 265.5 137 266 136.75 273.7 129 268 128.5 268 128.05 267.85 122.45 266.25 118 262
M 218 270.5
Q 219.1447265625 270.5462890625 220.15 270.45 219.116796875 270.7138671875 218 271
L 218 270.5 Z" stroke="none" fill="#F7D640"></path>

<path d="M 220.15 270.45
Q 219.1447265625 270.5462890625 218 270.5
L 218 271
Q 219.116796875 270.7138671875 220.15 270.45
M 169 78
Q 168.5 78 168 78.05 162.25 78.75 159 77 158.5 77 158 77 155.5 77 153 77 152.5 77 152 77.05 144.75 77.75 140 76 139.5 76 139 76 138 76 137 76 136.5 76 136 76 129 76 122 76 121.5 76 121 76 118.5 76 116 76 116 76.5 116 77
L 116.5 77
Q 112.35 80.95 99 86 99 86.5 98.75 86.85 92.8 95.25 88 95 87.5 95 87.35 95.25 82.25 103.25 80 114 80 118.5 80 123 80 123.5 80 124 80 124.5 80.05 125 80.75 130.25 79 133 79 141.5 79 150 79 150.5 79 151 79 151.5 79.05 152 79.75 159.25 78 164 78 167.5 78 171 78 171.5 78 172 78 177 78 182 78 182.5 78 183 77.65 189.85 79.8 194.1 80 194.5 80 195 76.75 213.35 78 240 78 240.5 78 241 81.3 243.95 80.55 245.85 80.5 246 80 246 80 246.5 80.2 246.85 82.85 251.35 79 254 79.25 258.25 81.75 260.3 82 260.5 82 261 84.2 261.3 84.5 263.95 84.5 264 85 264 85 263.5 85 263 85 262 85 261 91.95 266.05 95.5 274
L 95 274
Q 96.8 275.2 98.25 276.75 98.5 277 99 277 99 276.5 99.25 276.25 101.45 274 98 268 104.75 272.4 117.2 262.25 117.5 262 118 262 122.45 266.25 128.05 267.85 128.5 268 129 268 136.75 273.7 137 266 137 265.5 137 265 141.45 265.1 142.5 268
L 142 268
Q 144.9 273.55 144.05 266 144 265.5 144 265 153.5 261.85 153.95 269 154 269.5 154 270 160.1 263.4 163.75 269.15 164 269.5 164 270 170.65 269.15 164.25 264.65 164 264.5 164 264 178.1 262.15 172.95 263.85 172.5 264 172 264 172.35 269.1 185.1 263.2 185.5 263 186 263 187.95 265.6 185.6 269.8 185.5 270 185 270 193.45 273.55 193.5 268
L 193 268
Q 190.75 271.65 189.1 264.95 189 264.5 189 264 203.3 262.45 201.8 263.75 201.5 264 201 264 204.15 275.5 206.45 266.1 206.5 266 207 266 213.4 262.5 226 263 226.5 263 227 263 227.599609375 268.2630859375 223.4 269.85 230.525390625 268.70078125 231.8 271.1 232 271.5 232 272 233.25 274.95 237.25 271.25 237.5 271 238 271 238 270.5 238 270 238 268 238 266 238.5 266 239 266 239 265.5 239 265 239 264.5 239 264 241.75 260.25 249 260.95 249.5 261 250 261 254.15 260.85 256.8 262.35 257 262.5 257 263 261.3 265 263.4 261.2 263.5 261 264 261 264 260.5 264 260 270.45 259.5 274.8 261.4 275 261.5 275 262 275.5 262.5 276.1 262.8 276.5 263 277 263 277 262.5 277 262 280.6 257.1 281 249 281 248.5 281 248 281 247.5 281 247 281 245 281 243 282.75 234.75 282.05 224 282 223.5 282 223 282 222.5 282 222 282 216.5 282 211 282.5 211 283 211 283 210.5 283 210 283 204.5 283 199 283 198.5 283 198 283 194.5 283 191 283.5 191 284 191 284 190.5 284 190 284 186.5 284 183 284 182.5 284 182 284 178.5 284 175 284 174.5 284 174 284 166.5 284 159 284.5 159 285 159 285 158.5 285 158 285 154.5 285 151 285 150.5 285 150 285 143 285 136 285.5 136 286 136 286 135.5 286 135 286.95 77.1 226 81 225.5 81 225 81.05 220.25 81.75 218 80 217.5 80 217 80 203 79.5 189 79 188.5 79 188 79.05 181.75 79.75 178 78 177.5 78 177 78 173 78 169 78
M 243 85.95
Q 243.5 86 244 86 244.5 86 245 86.05 251.25 86.75 257 88 257 88.5 257.15 88.55 267.05 92.45 268 105 268 105.5 267.9 105.5 242.5 109.45 212 107
L 212 106.5
Q 209.4 106.4 205 104 204.5 104 204 104 177.15 103.85 150 103
L 150 102.5
Q 126.6 101.7 102 96 103.45 92.45 104.85 88.95 105 88.5 105 88 108.65 85.65 111.75 82.75 112 82.5 112 82 123.9 79.4 138.95 80.5 139 80.5 139 81 191.9 82.6 243 85.95
M 187.75 122.35
Q 188 122.5 188 123 221.6 134.9 228.9 173 229 173.5 229 174 230.75 179.75 229.5 187.95 229.5 188 229 188 229 188.5 228.9 188.95 223.55 210.55 208 222 208 222.5 208 223 208.5 223 208.7 223.25 210.8 225.75 206 226 206 226.5 205.95 227 205.15 233.45 198 231 198 231.5 197.95 232 197.55 237.05 188 238 188 238.5 187.8 238.9 185.6 242.95 181 241 180.5 241 180 241 176.5 241 173 241 173 241.5 173.05 241.5 187.5 243.1 163 243 163 243.5 162.75 243.85 160.9 246.4 156 242 156.5 242 157 242 157 241.5 156.75 241.3 153.55 238.45 152 234 151.5 234 151.45 233.85 149.55 227.45 150 219 150 218.5 150 218 150 212.5 150 207 150 206.5 150 206 150 205 150 204 149.5 204 149.5 203.95 149 200 149 196 149 195.5 149 195 149 193 149 191 148.5 191 148.5 190.95 148 187 148 183 148 182.5 148 182 148 178.5 148 175 147.5 175 147.5 174.95 147 170.5 147 166 147 165.5 146.95 165 145.05 152.45 144 139 143.5 139 143.5 138.95 143 133 143 127 143.5 127 144 127 144 126.5 144 126 144 125 144 124 146.1 118.6 152.05 117.1 152.5 117 153 117 153 116.5 153 116 161 116 168.95 116.5 169 116.5 169 117 169.5 117 170 117 173.25 117.75 176.9 118.5 177 118.5 177 119 178.5 119 179.85 119.45 180 119.5 180 120 184.7 120.35 187.75 122.35
M 148 78.5
L 148 78
Q 164.4 78.5 148 78.5
M 98.1 262.5
Q 98 262.5 98 262 115.65 266.3 98.1 262.5
M 92 263
Q 99.55 261.7 92 263.5
L 92 263
M 148.1 261.55
Q 148 261.5 148 261 163.55 265.5 148.1 261.55
M 154.05 248.5
Q 154 248.5 154 248 162.3 247.4 167 247.5
L 167 248
Q 164.2 249.7 154.05 248.5
M 130.2 264.65
Q 130 264.5 130 264 138.2 269.4 130.2 264.65
M 252.05 255.5
Q 252 255.5 252 255 268.55 256.9 252.05 255.5 Z" stroke="none" fill="#F8C640"></path>

<path d="M 76 195
L 75.5 195
Q 74.3 222.85 72 229 71.95 236.05 74.4 240.8 74.5 241 75 241 75 240.5 75 240 75 236 75 232 76.75 220.25 76.05 206 76 205.5 76 205 76 204.5 76 204 76 199.5 76 195 Z" stroke="none" fill="#A76719"></path>

<path d="M 77 194
Q 76.5 194 76 194 76 194.5 76 195 76 199.5 76 204 76 204.5 76 205 77.75 201.25 77.05 195 77 194.5 77 194 Z" stroke="none" fill="#CA9132"></path>

<path d="M 69 193
L 68.5 193
Q 69.4 205.3 66 208 66 209 66 210 66 210.5 66 211 66.5 211 66.85 211.25 72.85 215.25 69 193 Z" stroke="none" fill="#A96025"></path>

<path d="M 78 183
Q 77.5 183 77 183 77 188 77 193 77 193.5 77 194 77 194.5 77.05 195 77.75 201.25 76 205 76 205.5 76.05 206 76.75 220.25 75 232 75 236 75 240 75 240.5 75 241 74.4 243.15 76 243.05 76.5 243 77 243 77 242.5 77 242 77 241.5 77 241 77.5 241 78 241 78 240.5 78 240 76.75 213.35 80 195 80 194.5 79.8 194.1 77.65 189.85 78 183 Z" stroke="none" fill="#EFB64B"></path>

<path d="M 78 172
Q 77.5 172 77 172 77 177 77 182 77 182.5 77 183 77.5 183 78 183 78 182.5 78 182 78 177 78 172 Z" stroke="none" fill="#CA903C"></path>

<path d="M 68.05 152
Q 68 151.5 68 151
L 67.5 151
Q 67.65 153.15 66 153 66 167.5 66 182 66 182.5 66 183 69 169.5 68.05 152 Z" stroke="none" fill="#6C634E"></path>

<path d="M 79 151
Q 78.5 151 78 151 78 157 78 163 78 163.5 78 164 79.75 159.25 79.05 152 79 151.5 79 151 Z" stroke="none" fill="#E1A43E"></path>

<path d="M 80 124
Q 79.5 124 79 124 79 128 79 132 79 132.5 79 133 80.75 130.25 80.05 125 80 124.5 80 124 Z" stroke="none" fill="#CB923D"></path>

<path d="M 70 109
L 69.5 109
Q 69.65 111.15 68 111 68 114.5 68 118 68 118.5 68 119 69.6 115.1 69.95 110 70 109.5 70 109 Z" stroke="none" fill="#67624F"></path>

<path d="M 153 77
Q 153 76.5 152.95 76.5 146.5 76 140 76 144.75 77.75 152 77.05 152.5 77 153 77 Z" stroke="none" fill="#C48733"></path>

<path d="M 137 76
Q 137 75.5 137 75 136.5 75 136 75 135.5 75 135 75 131.5 75 128 75 127.5 75 127 75 125.5 75 124 75 123.5 75 123 75 122.5 75 122 75 122 75.5 122 76 129 76 136 76 136.5 76 137 76 Z" stroke="none" fill="#B48325"></path>

<path d="M 159 67
Q 159 66.5 158.8 66.4 154.65 64.35 148 65 151.3 67.7 158 67.05 158.5 67 159 67
M 296 191
Q 295.5 191 295 191 294.5 191 294 191 294 198.5 294 206 294 206.5 294 207 297.45 201.95 296.05 192 296 191.5 296 191 Z" stroke="none" fill="#696350"></path>

<path d="M 88 94
Q 88 94.5 88 95 92.8 95.25 98.75 86.85 99 86.5 99 86 112.35 80.95 116.5 77
L 116 77
Q 115.5 77 115 77.1 97 81 88 94 Z" stroke="none" fill="#F7C358"></path>

<path d="M 94 82
Q 94 82.5 93.95 83 93.35 86.7 87 89
L 86.5 89
Q 88.15 93.15 82 95 82 95.5 81.9 96 79.45 107.45 76 118 76 118.5 76.05 119 79.1 151.35 75 189 76.2 190.3 76.05 193 76 193.5 76 194 76.5 194 77 194 77 193.5 77 193 77 188 77 183 77 182.5 77 182 77 177 77 172 77.5 172 78 172 78 171.5 78 171 78 167.5 78 164 78 163.5 78 163 78 157 78 151 78.5 151 79 151 79 150.5 79 150 79 141.5 79 133 79 132.5 79 132 79 128 79 124 79.5 124 80 124 80 123.5 80 123 80 118.5 80 114 82.25 103.25 87.35 95.25 87.5 95 88 95 88 94.5 88 94 97 81 115 77.1 115.5 77 116 77 116 76.5 116 76 118.5 76 121 76 121.5 76 122 76 122 75.5 122 75 122.5 75 123 75 123.5 75 124 75
L 124 74.5
Q 111.2 74.65 101 77 100.5 77 100.35 77.2 98.25 80.75 94 82 Z" stroke="none" fill="#A76916"></path>

<path d="M 284.05 192
Q 284 191.5 284 191 283.5 191 283 191 283 194.5 283 198 283 198.5 283 199 284.75 196.75 284.05 192 Z" stroke="none" fill="#C9912F"></path>

<path d="M 284 183
Q 285.75 180.75 285.05 176 285 175.5 285 175 284.5 175 284 175 284 178.5 284 182 284 182.5 284 183 Z" stroke="none" fill="#B77827"></path>

<path d="M 285 159
Q 284.5 159 284 159 284 166.5 284 174 284 174.5 284 175 284.5 175 285 175 285 174.5 285 174 285 166.5 285 159 Z" stroke="none" fill="#D09338"></path>

<path d="M 298 151
Q 297.5 151 297 151 296.5 151 296 151 296 155.5 296 160 296 160.5 296 161 299.35 158.85 298.1 152 298 151.5 298 151 Z" stroke="none" fill="#646350"></path>

<path d="M 286 136
Q 285.5 136 285 136 285 143 285 150 285 150.5 285 151 286.75 145.25 286.05 137 286 136.5 286 136 Z" stroke="none" fill="#CF9434"></path>

<path d="M 225 81.05
Q 225.5 81 226 81 226 80.5 225.95 80.5 222 80 218 80 220.25 81.75 225 81.05 Z" stroke="none" fill="#CF9536"></path>

<path d="M 226 69
Q 231.05 72.45 241 71.05 241.5 71 242 71 242 70.5 241.85 70.45 235.25 68.25 226 69 Z" stroke="none" fill="#68624D"></path>

<path d="M 189 79
Q 189 78.5 188.95 78.5 183.5 78 178 78 181.75 79.75 188 79.05 188.5 79 189 79 Z" stroke="none" fill="#D0943D"></path>

<path d="M 252 255
Q 252 255.5 252.05 255.5 268.55 256.9 252 255 Z" stroke="none" fill="#F5D455"></path>

<path d="M 130 264
Q 130 264.5 130.2 264.65 138.2 269.4 130 264
M 98 262
Q 98 262.5 98.1 262.5 115.65 266.3 98 262 Z" stroke="none" fill="#F8D83F"></path>

<path d="M 154 248
Q 154 248.5 154.05 248.5 164.2 249.7 167 248
L 167 247.5
Q 162.3 247.4 154 248 Z" stroke="none" fill="#F8D535"></path>

<path d="M 148 261
Q 148 261.5 148.1 261.55 163.55 265.5 148 261 Z" stroke="none" fill="#F9D83F"></path>

<path d="M 92 263.5
Q 99.55 261.7 92 263
L 92 263.5 Z" stroke="none" fill="#F8D83E"></path>

<path d="M 148 78
L 148 78.5
Q 164.4 78.5 148 78 Z" stroke="none" fill="#FFCB57"></path>

<path d="M 197.95 232
Q 198 231.5 198 231 197.5 231 197.2 231.25 192.75 234.75 187 237 187 237.5 187 238 187.5 238 188 238 197.55 237.05 197.95 232 Z" stroke="none" fill="#DCC46A"></path>

<path d="M 181 240
Q 181 240.5 181 241 185.6 242.95 187.8 238.9 188 238.5 188 238 187.5 238 187 238 186.5 238 186.1 238.2 183.95 239.45 181 240 Z" stroke="none" fill="#D7C06C"></path>

<path d="M 162.05 243.1
Q 162.5 243 163 243 187.5 243.1 173.05 241.5 173 241.5 173 241 172.5 241 172 240.95 167.75 240.75 160 242 159.9 243.65 162.05 243.1 Z" stroke="none" fill="#CDB86E"></path>

<path d="M 206 226
Q 205.5 226 205 226 204.5 226 204.25 226.25 201.7 228.7 198 230 198 230.5 198 231 205.15 233.45 205.95 227 206 226.5 206 226 Z" stroke="none" fill="#DAC167"></path>

<path d="M 205 226
Q 205.5 226 206 226 210.8 225.75 208.7 223.25 208.5 223 208 223 207.5 223 207.4 223.2 206.7 224.7 205 225 205 225.5 205 226 Z" stroke="none" fill="#D7BF68"></path>

<path d="M 157 242
Q 156.5 242 156 242 160.9 246.4 162.75 243.85 163 243.5 163 243 162.5 243 162.05 243.1 159.9 243.65 160 242 159.5 242 159 242 158 242 157 242 Z" stroke="none" fill="#E7CC69"></path>

<path d="M 151 219
Q 150.5 219 150 219 149.55 227.45 151.45 233.85 151.5 234 152 234 152 233.5 151.9 233 150.6 226.9 151 219 Z" stroke="none" fill="#B79D55"></path>

<path d="M 151 219
Q 151 218.5 151.05 218 151.75 211.25 150 207 150 212.5 150 218 150 218.5 150 219 150.5 219 151 219 Z" stroke="none" fill="#69502B"></path>

<path d="M 150 204
Q 150 203.5 150.05 203 150.75 198.25 149 196 149 200 149.5 203.95 149.5 204 150 204 Z" stroke="none" fill="#B28C27"></path>

<path d="M 148.5 190.95
Q 148.5 191 149 191 149 190.5 149.05 190 149.75 185.25 148 183 148 187 148.5 190.95 Z" stroke="none" fill="#BEA668"></path>

<path d="M 147.5 174.95
Q 147.5 175 148 175 148 174.5 148.05 174 148.75 168.75 147 166 147 170.5 147.5 174.95 Z" stroke="none" fill="#866213"></path>

<path d="M 144 127
Q 143.5 127 143 127 143 133 143.5 138.95 143.5 139 144 139 144 138.5 144 138 144 132.5 144 127 Z" stroke="none" fill="#7C550A"></path>

<path d="M 229 188
Q 229.5 188 229.5 187.95 230.75 179.75 229 174 229 180.5 229 187 229 187.5 229 188 Z" stroke="none" fill="#5E440E"></path>

<path d="M 177 119
Q 177 118.5 176.9 118.5 173.25 117.75 170 117 171.55 119.45 176 119.05 176.5 119 177 119 Z" stroke="none" fill="#7F560F"></path>

<path d="M 169 117
Q 169 116.5 168.95 116.5 161 116 153 116 153 116.5 153 117 160.5 117 168 117 168.5 117 169 117 Z" stroke="none" fill="#7B5206"></path>

<path d="M 188 123
Q 187.5 123 187 122.9 182.95 122.05 180 120 180 119.5 179.85 119.45 178.5 119 177 119 176.5 119 176 119.05 171.55 119.45 170 117 169.5 117 169 117 168.5 117 168 117 160.5 117 153 117 152.5 117 152.05 117.1 146.1 118.6 144 124 144 125 144 126 144 126.5 144 127 144 132.5 144 138 144 138.5 144 139 145.05 152.45 146.95 165 147 165.5 147 166 148.75 168.75 148.05 174 148 174.5 148 175 148 178.5 148 182 148 182.5 148 183 149.75 185.25 149.05 190 149 190.5 149 191 149 193 149 195 149 195.5 149 196 150.75 198.25 150.05 203 150 203.5 150 204 150 205 150 206 150 206.5 150 207 151.75 211.25 151.05 218 151 218.5 151 219 150.6 226.9 151.9 233 152 233.5 152 234 153.55 238.45 156.75 241.3 157 241.5 157 242 158 242 159 242 159.5 242 160 242 167.75 240.75 172 240.95 172.5 241 173 241 176.5 241 180 241 180.5 241 181 241 181 240.5 181 240 183.95 239.45 186.1 238.2 186.5 238 187 238 187 237.5 187 237 192.75 234.75 197.2 231.25 197.5 231 198 231 198 230.5 198 230 201.7 228.7 204.25 226.25 204.5 226 205 226 205 225.5 205 225 206.7 224.7 207.4 223.2 207.5 223 208 223 208 222.5 208 222 223.55 210.55 228.9 188.95 229 188.5 229 188 229 187.5 229 187 229 180.5 229 174 229 173.5 228.9 173 221.6 134.9 188 123
M 213.1 146.8
Q 213.5 147 214 147 217.55 157.45 223.75 165.2 224 165.5 224 166 224.2 170.7 222.25 173.2 222 173.5 222 174 225.5 184.6 221.95 183.15 221.5 183 221 183 215.05 185.8 221.5 191
L 221 191
Q 220.5208984375 192.4490234375 219.9 193.65 219.746484375 193.9767578125 219.55 194.25 217.5078125 197.9607421875 214 199.5
L 214 199
Q 210.15 195.45 215.75 191.65 216 191.5 216 191 216.4 188.85 214.1 178.95 214 178.5 214 178 215.45 167.85 214.05 156 214 155.5 214 155 205.8 145.2 192.25 135.65 192 135.5 192 135 199.05 132.5 205.3 139.75 205.5 140 206 140 208.7 144.3 213.1 146.8
M 166.2 123.6
Q 166 123.5 166 123 171.3 122.4 176 122.95 176.5 123 177 123 181.95 125.6 185.75 129.25 186 129.5 186 130 176.55 128.95 166.2 123.6
M 194.75 142.3
Q 195 142.5 195 143 196.95 143.05 197.75 144.15 198 144.5 198 145 200.7 147.3 202.75 150.15 203 150.5 203 151 209.25 158.75 211.9 170.05 212 170.5 212 171 213.75 176.25 212.5 183.9 212.5 184 212 184 212 184.5 211.85 184.95 203.6 214.1 177 225 177 225.5 177 226 177 226.5 176.9 226.5 171.25 227.75 168 226 168 225.5 168 225 168 221 168 217 167.5 217 167.5 216.95 167 213 167 209 167 208.5 166.8 208.1 165.45 205.55 166 201 165.5 201 165.5 200.95 165 196 165 191 164.5 191 164.5 190.95 164 187 164 183 164 182.5 164 182 164.2 174.3 163 168 162.5 168 162.5 167.95 162 163.5 162 159 162 158.5 162 158 162 154 162 150 161.5 150 161.5 149.95 160.6 139.4 160 129 181.75 131.25 194.75 142.3
M 146.25 128.75
Q 146 128.5 146 128 157.2 119.3 150.5 129
L 151 129
Q 154.6 137.55 146.25 128.75
M 150.1 136
Q 150 135.5 150 135 156.45 137.9 156.95 145 157 145.5 157 146 151.7 143.65 150.1 136
M 150.2 142.9
Q 150 142.5 150 142 153.2 148.7 150.2 142.9
M 152 169
Q 165.5 170.05 152 169.5
L 152 169
M 149 156
Q 157.9 150.9 159.5 159.9 159.5 160 160 160 155.5 164.7 149.25 156.8 149 156.5 149 156
M 156.35 177.25
Q 156.5 177 157 177 165.2 183.65 164.05 198 164 198.5 164 199 158.25 203.1 160.9 216 161 216.5 161 217 165.8 229.15 164.1 237 164 237.5 164 238 160.05 237 158.2 233.85 158 233.5 158 233 157.45 228.05 157.5 222
L 157 222
Q 154.95 203.8 152.15 193.95 152 193.5 152 193 154.2 180.25 156.35 177.25
M 150 177
Q 153.35 182.7 150.25 177.85 150 177.5 150 177
M 219.2 199.6
Q 219 199.5 219 199 224.8 202.8 219.2 199.6
M 218.9 204.05
Q 219 204.5 219 205 206.85 218.75 207.95 206 208 205.5 208 205 216.7 195.95 218.9 204.05
M 204 215
Q 209.7 213.85 204 215.5
L 204 215
M 186 228.5
L 186 228
Q 195.75 227.65 186 228.5
M 183 229
Q 189.8 234.4 183.25 229.65 183 229.5 183 229 Z" stroke="none" fill="#1C0902"></path>

<path d="M 183.25 229.65
Q 189.8 234.4 183 229 183 229.5 183.25 229.65 Z" stroke="none" fill="#0B020D"></path>

<path d="M 186 228
L 186 228.5
Q 195.75 227.65 186 228 Z" stroke="none" fill="#0B020B"></path>

<path d="M 219 205
Q 219 204.5 218.9 204.05 216.7 195.95 208 205 208 205.5 207.95 206 206.85 218.75 219 205
M 219.55 194.25
Q 219.746484375 193.9767578125 219.9 193.65 219.4666015625 193.832421875 219 194
L 219 194.5
Q 219.3 194.3794921875 219.55 194.25 Z" stroke="none" fill="#06030A"></path>

<path d="M 219 199
Q 219 199.5 219.2 199.6 224.8 202.8 219 199 Z" stroke="none" fill="#08040D"></path>

<path d="M 150.25 177.85
Q 153.35 182.7 150 177 150 177.5 150.25 177.85 Z" stroke="none" fill="#150614"></path>

<path d="M 157 177
Q 156.5 177 156.35 177.25 154.2 180.25 152 193 152 193.5 152.15 193.95 154.95 203.8 157 222
L 157.5 222
Q 157.45 228.05 158 233 158 233.5 158.2 233.85 160.05 237 164 238 164 237.5 164.1 237 165.8 229.15 161 217 161 216.5 160.9 216 158.25 203.1 164 199 164 198.5 164.05 198 165.2 183.65 157 177 Z" stroke="none" fill="#040207"></path>

<path d="M 159.5 159.9
Q 157.9 150.9 149 156 149 156.5 149.25 156.8 155.5 164.7 160 160 159.5 160 159.5 159.9 Z" stroke="none" fill="#080208"></path>

<path d="M 152 169.5
Q 165.5 170.05 152 169
L 152 169.5 Z" stroke="none" fill="#030204"></path>

<path d="M 150 142
Q 150 142.5 150.2 142.9 153.2 148.7 150 142 Z" stroke="none" fill="#020903"></path>

<path d="M 150 135
Q 150 135.5 150.1 136 151.7 143.65 157 146 157 145.5 156.95 145 156.45 137.9 150 135 Z" stroke="none" fill="#030604"></path>

<path d="M 146 128
Q 146 128.5 146.25 128.75 154.6 137.55 151 129
L 150.5 129
Q 157.2 119.3 146 128 Z" stroke="none" fill="#07030A"></path>

<path d="M 176.9 226.5
Q 177 226.5 177 226 176.5 226 176 226 172 226 168 226 171.25 227.75 176.9 226.5 Z" stroke="none" fill="#5C4002"></path>

<path d="M 168 217
Q 168 216.5 168.05 216 168.75 211.25 167 209 167 213 167.5 216.95 167.5 217 168 217 Z" stroke="none" fill="#AA8F4A"></path>

<path d="M 166 201
Q 166 200.5 166.05 200 166.75 194.25 165 191 165 196 165.5 200.95 165.5 201 166 201 Z" stroke="none" fill="#684F21"></path>

<path d="M 212 183
Q 212 183.5 212 184 212.5 184 212.5 183.9 213.75 176.25 212 171 212 177 212 183 Z" stroke="none" fill="#80653A"></path>

<path d="M 203 151
Q 203 150.5 202.75 150.15 200.7 147.3 198 145 197.9 150.1 202 150.9 202.5 151 203 151 Z" stroke="none" fill="#C8AA64"></path>

<path d="M 165 191
Q 165 190.5 165.05 190 165.75 185.25 164 183 164 187 164.5 190.95 164.5 191 165 191 Z" stroke="none" fill="#553B01"></path>

<path d="M 163.05 167
Q 163.75 161.75 162 159 162 163.5 162.5 167.95 162.5 168 163 168 163 167.5 163.05 167 Z" stroke="none" fill="#593E02"></path>

<path d="M 173 133
Q 172.5 133 172 133.05 166.1 133.45 162 132 162 140.5 162 149 162 149.5 162 150 162 154 162 158 162 158.5 162 159 163.75 161.75 163.05 167 163 167.5 163 168 164.2 174.3 164 182 164 182.5 164 183 165.75 185.25 165.05 190 165 190.5 165 191 166.75 194.25 166.05 200 166 200.5 166 201 165.45 205.55 166.8 208.1 167 208.5 167 209 168.75 211.25 168.05 216 168 216.5 168 217 168 221 168 225 168 225.5 168 226 172 226 176 226 176.5 226 177 226 177 225.5 177 225 203.6 214.1 211.85 184.95 212 184.5 212 184 212 183.5 212 183 212 177 212 171 212 170.5 211.9 170.05 209.25 158.75 203 151 202.5 151 202 150.9 197.9 150.1 198 145 198 144.5 197.75 144.15 196.95 143.05 195 143 194.5 143 194.1 142.8 183.7 137.8 173 133 Z" stroke="none" fill="#F5C340"></path>

<path d="M 172 133.05
Q 172.5 133 173 133 183.7 137.8 194.1 142.8 194.5 143 195 143 195 142.5 194.75 142.3 181.75 131.25 160 129 160.6 139.4 161.5 149.95 161.5 150 162 150 162 149.5 162 149 162 140.5 162 132 166.1 133.45 172 133.05 Z" stroke="none" fill="#D0AC5E"></path>

<path d="M 166 123
Q 166 123.5 166.2 123.6 176.55 128.95 186 130 186 129.5 185.75 129.25 181.95 125.6 177 123 176.5 123 176 122.95 171.3 122.4 166 123 Z" stroke="none" fill="#090210"></path>

<path d="M 214 147
Q 213.5 147 213.1 146.8 208.7 144.3 206 140 205.5 140 205.3 139.75 199.05 132.5 192 135 192 135.5 192.25 135.65 205.8 145.2 214 155 214 155.5 214.05 156 215.45 167.85 214 178 214 178.5 214.1 178.95 216.4 188.85 216 191 216 191.5 215.75 191.65 210.15 195.45 214 199
L 214 199.5
Q 217.5078125 197.9607421875 219.55 194.25 219.3 194.3794921875 219 194.5
L 219 194
Q 219.4666015625 193.832421875 219.9 193.65 220.5208984375 192.4490234375 221 191
L 221.5 191
Q 215.05 185.8 221 183 221.5 183 221.95 183.15 225.5 184.6 222 174 222 173.5 222.25 173.2 224.2 170.7 224 166 224 165.5 223.75 165.2 217.55 157.45 214 147 Z" stroke="none" fill="#06070D"></path>

<path d="M 187 122.9
Q 187.5 123 188 123 188 122.5 187.75 122.35 184.7 120.35 180 120 182.95 122.05 187 122.9 Z" stroke="none" fill="#78570F"></path>

<path d="M 244.1 86.5
Q 244 86.5 244 86 243.5 86 243 85.95 191.9 82.6 139 81 138.5 81 138 81 125.6 80.6 116 83 119 87 125.95 87.5 126 87.5 126 88 189.5 92.45 256 91 256.5 91 257 91 256.05 88.35 244.1 86.5 Z" stroke="none" fill="#FEE373"></path>

<path d="M 244 86
Q 244 86.5 244.1 86.5 256.05 88.35 257 91 256.5 91 256 91 189.5 92.45 126 88 126 87.5 125.95 87.5 119 87 116 83 125.6 80.6 138 81 138.5 81 139 81 139 80.5 138.95 80.5 123.9 79.4 112 82 112 82.5 111.75 82.75 108.65 85.65 105 88 105 88.5 104.85 88.95 103.45 92.45 102 96 126.6 101.7 150 102.5
L 150 103
Q 177.15 103.85 204 104 204.5 104 205 104 209.4 106.4 212 106.5
L 212 107
Q 242.5 109.45 267.9 105.5 268 105.5 268 105 267.05 92.45 257.15 88.55 257 88.5 257 88 251.25 86.75 245 86.05 244.5 86 244 86 Z" stroke="none" fill="#FED361"></path>

<path d="M 169 78
Q 169 77.5 168.95 77.5 164 77 159 77 162.25 78.75 168 78.05 168.5 78 169 78 Z" stroke="none" fill="#CE9433"></path>

<path d="M 264 75
Q 264 74.5 263.85 74.05 263.2 72.3 260 73 259.6 75.9 263.05 75.1 263.5 75 264 75 Z" stroke="none" fill="#5F624E"></path>

<path d="M 262 81
Q 261.5 81 261.1 80.8 256 78.05 246 79
L 246 78.5
Q 195.8 76.8 137 74 137 74.5 137 75 137 75.5 137 76 138 76 139 76 139.5 76 140 76 146.5 76 152.95 76.5 153 76.5 153 77 155.5 77 158 77 158.5 77 159 77 164 77 168.95 77.5 169 77.5 169 78 173 78 177 78 177.5 78 178 78 183.5 78 188.95 78.5 189 78.5 189 79 203 79.5 217 80 217.5 80 218 80 222 80 225.95 80.5 226 80.5 226 81 286.95 77.1 286 135 286 135.5 286 136 286 136.5 286.05 137 286.75 145.25 285 151 285 154.5 285 158 285 158.5 285 159 285 166.5 285 174 285 174.5 285 175 285 175.5 285.05 176 285.75 180.75 284 183 284 186.5 284 190 284 190.5 284 191 284 191.5 284.05 192 284.75 196.75 283 199 283 204.5 283 210 283 210.5 283 211 283 211.5 283.05 212 283.75 218.75 282 223 282 223.5 282.05 224 282.75 234.75 281 243 281 245 281 247 281 247.5 281 248 282.65 247.9 282.1 250.05 282 250.5 282 251
L 282.5 251
Q 285.65 184.6 290 119 290 118.5 289.85 118.05 287.4 111.85 284 109 284 108.5 284.25 108.2 286.85 104.8 284 101 284 100.5 283.75 100.35 277.65 96.35 275 89
L 275 89.5
Q 267 84.75 262 81 Z" stroke="none" fill="#A66614"></path>

<path d="M 260 73
Q 259.5 73 259.05 72.85 252.1 70.4 242 71 241.5 71 241 71.05 231.05 72.45 226 69 225.5 69 225 69 191.55 68.45 159 67 158.5 67 158 67.05 151.3 67.7 148 65 147.5 65 147 65 126.85 64.15 106 67 106 67.5 105.8 67.6 94.4 73.85 84 81 84 81.5 83.75 81.85 76.4 92.9 70 105 70 106.5 70 108 70 108.5 70 109 70 109.5 69.95 110 69.6 115.1 68 119 68 134.5 68 150 68 150.5 68 151 68 151.5 68.05 152 69 169.5 66 183 66 185 66 187 66 187.5 66 188 66 197 66 206 66 206.5 66 207 66 207.5 66 208 69.4 205.3 68.5 193
L 69 193
Q 72.85 215.25 66.85 211.25 66.5 211 66 211 66 212.5 66 214 66 214.5 66 215 66 225 66 235 66 235.5 66 236 66 236.5 66 237 70.6 241.9 77.1 244.8 77.5 245 78 245 78 244.5 77.8 244.1 77.5 243.5 77 243 76.5 243 76 243.05 74.4 243.15 75 241 74.5 241 74.4 240.8 71.95 236.05 72 229 74.3 222.85 75.5 195
L 76 195
Q 76 194.5 76 194 76 193.5 76.05 193 76.2 190.3 75 189 79.1 151.35 76.05 119 76 118.5 76 118 79.45 107.45 81.9 96 82 95.5 82 95 88.15 93.15 86.5 89
L 87 89
Q 93.35 86.7 93.95 83 94 82.5 94 82 98.25 80.75 100.35 77.2 100.5 77 101 77 111.2 74.65 124 74.5
L 124 75
Q 125.5 75 127 75 127.5 75 128 75 128 74.5 128 74 128 73.5 128 73 132.95 73.85 135.9 74.5 136 74.5 136 75 136.5 75 137 75 137 74.5 137 74 195.8 76.8 246 78.5
L 246 79
Q 256 78.05 261.1 80.8 261.5 81 262 81 267 84.75 275 89.5
L 275 89
Q 277.65 96.35 283.75 100.35 284 100.5 284 101 286.85 104.8 284.25 108.2 284 108.5 284 109 287.4 111.85 289.85 118.05 290 118.5 290 119 285.65 184.6 282.5 251
L 282 251
Q 282 251.5 282.05 252 282.8 260.8 277 263 276.5 263 276.1 262.8 275.5 262.5 275 262 276.75 266.75 279.75 270.2 280 270.5 280 271 286.15 272.15 287.45 268.15 287.5 268 288 268 288 267.5 288 267 288 266.5 288 266 288 264.5 288 263 288.5 263 289 263 289.5 263 290 263 290 262.5 290 262 290 261.5 290 261 290 260.5 290 260 290 258.5 290 257 291.65 257.15 291.5 255
L 292 255
Q 292 254.5 292 254 292 252.5 292 251 292 250.5 292 250 292 244.5 292 239 293.65 239.15 293.5 237
L 294 237
Q 294 236.5 293.85 236.45 291.45 235.55 292 232 295.45 224.9 294.05 208 294 207.5 294 207 294 206.5 294 206 294 198.5 294 191 294.5 191 295 191 295.5 191 296 191 296 190.5 296 190 296 175.5 296 161 296 160.5 296 160 296 155.5 296 151 296.5 151 297 151 297.5 151 298 151 298 150.5 298.05 150 302.45 93.5 264 75 263.5 75 263.05 75.1 259.6 75.9 260 73 Z" stroke="none" fill="#9B602C"></path>
</g>
</g>
</g>
</g>
</g>
</svg>
