
<svg viewBox="0 0 80 70" height="70px" width="80px" y="0px" x="0px" preserveAspectRatio="none" xmlns:xlink="http://www.w3.org/1999/xlink" version="1.1" xmlns="http://www.w3.org/2000/svg">
<defs></defs>

<g id="Layer_2">
<g transform="matrix( 0.2443389892578125, 0, 0, 0.2443389892578125, -5.6,-13.9)" id="Layer_1">
<g>
<g>
<g>
<path d="M 148 71.5
Q 167.5 71.5 148 71
L 148 71.5 Z" stroke="none" fill="#595D58"></path>

<path d="M 248 332
Q 247.5 332 247 332 246.45 336.55 248.3 338.75 248.5 339 249 339 249 338.5 248.8 338.1 247.55 335.95 248 332 Z" stroke="none" fill="#0D2E37"></path>

<path d="M 247 332
Q 247.5 332 248 332 248 331.5 248.05 331 248.75 321.75 247 315 247 323 247 331 247 331.5 247 332 Z" stroke="none" fill="#33545A"></path>

<path d="M 263 323
Q 262.5 323 262 323 262 323.5 262.05 324 262.75 330.75 261 335 261 335.5 261 336 261 336.5 261 337 264.3 332.8 263.05 324 263 323.5 263 323 Z" stroke="none" fill="#082E38"></path>

<path d="M 262 323
Q 262.5 323 263 323 263 322.5 263.05 322 263.75 315.75 262 312 262 317 262 322 262 322.5 262 323 Z" stroke="none" fill="#1D3C43"></path>

<path d="M 262 312
Q 262 311.5 262.05 311 262.75 306.25 261 304 261 308 261.5 311.95 261.5 312 262 312 Z" stroke="none" fill="#264148"></path>

<path d="M 259.45 300.9
Q 259 299 259 297 258.5 297 258.25 296.75 250.65 288.55 245 299 245 301 245 303 245 303.5 245 304 245.75 309.25 246.9 314.05 247 314.5 247 315 248.75 321.75 248.05 331 248 331.5 248 332 247.55 335.95 248.8 338.1 249 338.5 249 339 256.05 341.65 260.75 337.7 261 337.5 261 337 261 336.5 261 336 261 335.5 261 335 262.75 330.75 262.05 324 262 323.5 262 323 262 322.5 262 322 262 317 262 312 261.5 312 261.5 311.95 261 308 261 304 260.5 304 260.45 303.85 260 302.5 260 301 259.5 301 259.45 300.9 Z" stroke="none" fill="#020814"></path>

<path d="M 236 301
Q 236 300.5 235.95 300.5 232 300 228 300 228 300.5 228 301 231.5 301 235 301 235.5 301 236 301
M 71.1 207.8
Q 70.5 207.5 70 207 69.7 211.8 71.4 214.8 71.5 215 72 215 72 214.5 72 214 72 211 72 208 71.5 208 71.1 207.8 Z" stroke="none" fill="#637374"></path>

<path d="M 241.75 299.8
Q 242 299.5 242 299 241.5 299 241 299 223.3 298.3 208 300 208 300.5 208 301 217.5 301 227 301 227.5 301 228 301 228 300.5 228 300 232 300 235.95 300.5 236 300.5 236 301 240.2 301.7 241.75 299.8 Z" stroke="none" fill="#706E5E"></path>

<path d="M 219 287
Q 219 287.5 219 288 223 288 226.95 287.5 227 287.5 227 287 226.5 287 226 287 222.5 287 219 287 Z" stroke="none" fill="#B6880B"></path>

<path d="M 211 287
Q 211 287.5 211 288 214.5 288 218 288 218.5 288 219 288 219 287.5 219 287 218.5 287 218 287 214.5 287 211 287 Z" stroke="none" fill="#DBAF38"></path>

<path d="M 190 288
Q 190 288.5 190 289 197.5 289 204.95 288.5 205 288.5 205 288 204.5 288 204 288 197 288 190 288 Z" stroke="none" fill="#C19410"></path>

<path d="M 166 289
Q 166 289.5 166 290 171.5 290 176.95 289.5 177 289.5 177 289 176.5 289 176 289 171 289 166 289 Z" stroke="none" fill="#D5A335"></path>

<path d="M 288 279
Q 287.5 279 287.3 279.25 286.25 280.75 284 281 284 281.5 284 282 284 282.5 284 283 284 283.5 284 284 286.7 283.2 288.3 281.25 288.5 281 289 281 289.5 281 289.75 280.75 290 280.5 290 280 290 279.5 289.8 279.4 289 279 288 279 Z" stroke="none" fill="#696F64"></path>

<path d="M 293 271
Q 292.5 271 292 271 292 271.5 292 272 291.9 276.4 288 277 288 277.5 288 278 288 278.5 288 279 289 279 289.8 279.4 290 279.5 290 280 291 278.5 292.25 277.25 292.5 277 293 277 293 276.5 293 276 293 273.5 293 271 Z" stroke="none" fill="#6A5F4D"></path>

<path d="M 292 271
Q 292.5 271 293 271 293 270.5 293.05 270 293.75 263.25 292 259 292 264.5 292 270 292 270.5 292 271 Z" stroke="none" fill="#6A4E30"></path>

<path d="M 289 252
Q 289 252.5 288.95 253 288.45 257.95 286 261 286 261.5 286 262 286 262.5 286 263 290.05 261.55 290 256 290 255.5 290 255 290 254.5 290.1 254.05 290.65 251.9 289 252 Z" stroke="none" fill="#9C6606"></path>

<path d="M 307 256
Q 307 261 307.5 265.95 307.5 266 308 266 308 265.5 308.05 265 308.75 259.25 307 256 Z" stroke="none" fill="#193B45"></path>

<path d="M 283.35 266.25
Q 273.75 281.25 254 286 274.15 287 283.8 266.9 284 266.5 284 266 283.5 266 283.35 266.25 Z" stroke="none" fill="#A46B04"></path>

<path d="M 279.8 287.9
Q 280 287.5 280 287 279.5 287 279 287 277.5 287 276 287 276 287.5 276 288 276 288.5 276 289 276 289.5 276 290 276 290.5 276 291 278.7 290.2 279.8 287.9 Z" stroke="none" fill="#6A7068"></path>

<path d="M 280 286
Q 280 286.5 280 287 284.1 288.1 284 285 284 284.5 284 284 284 283.5 284 283 283.5 283 283.3 283.25 282.25 284.75 280 285 280 285.5 280 286 Z" stroke="none" fill="#706E5F"></path>

<path d="M 270 292
Q 270 292.5 270 293 270.5 293 271 293 271.5 293 272 293 274.25 292.75 275.3 291.25 275.5 291 276 291 276 290.5 276 290 276 289.5 276 289 275.5 289 275.2 289.25 273.1 291.1 270 292 Z" stroke="none" fill="#786F5A"></path>

<path d="M 266 295
Q 266 295.5 265.8 295.6 265 296 264 296 264 296.5 264 297 268.9 296.4 271.75 293.75 272 293.5 272 293 271.5 293 271 293 270.5 293 270 293 269.5 293 269 293 267.5 293 266 293 266 293.5 266 294 266 294.5 266 295 Z" stroke="none" fill="#6D7064"></path>

<path d="M 261 295
Q 261 295.5 261 296 261 296.5 261 297 262 297 263 297 263.5 297 264 297 264 296.5 264 296 265 296 265.8 295.6 266 295.5 266 295 265.5 295 265 295 263 295 261 295 Z" stroke="none" fill="#786D5C"></path>

<path d="M 261 296
L 260.5 296
Q 260.65 293.9 259 294 259 295 259 296 259 296.5 259 297 259 299 259.45 300.9 259.5 301 260 301 260 300.5 260 300 260 298.5 260 297 260.5 297 261 297 261 296.5 261 296 Z" stroke="none" fill="#535145"></path>

<path d="M 248 288
Q 248 288.5 248 289 253.1 288.45 256.1 289.8 256.5 290 257 290 257 289.5 256.8 289.35 253.6 287.4 248 288 Z" stroke="none" fill="#5F3D04"></path>

<path d="M 248 289
Q 247.5 289 247.25 289.25 245.5 291 244 293 244 295 244 297 244 297.5 244 298 244 301 244.5 303.9 244.5 304 245 304 245 303.5 245 303 245 301 245 299 250.65 288.55 258.25 296.75 258.5 297 259 297 259 296.5 259 296 259 295 259 294 259 293.5 258.8 293.1 258 291.5 257 290 256.5 290 256.1 289.8 253.1 288.45 248 289 Z" stroke="none" fill="#230C05"></path>

<path d="M 245.95 286.5
Q 246 286.5 246 286 245.5 286 245 286 242.5 286 240 286 239.5 286 239 286 237 286 235 286 235 286.5 235 287 240.5 287 245.95 286.5 Z" stroke="none" fill="#CB9F19"></path>

<path d="M 253 286
Q 252.5 286 252 286 252 286.5 251.9 286.55 250 287 248 287 248 287.5 248 288 253.6 287.4 256.8 289.35 257 289.5 257 290 258 291.5 258.8 293.1 259 293.5 259 294 260.65 293.9 260.5 296
L 261 296
Q 261 295.5 261 295 263 295 265 295 265.5 295 266 295 266 294.5 266 294 266 293.5 266 293 267.5 293 269 293 269.5 293 270 293 270 292.5 270 292 273.1 291.1 275.2 289.25 275.5 289 276 289 276 288.5 276 288 276 287.5 276 287 277.5 287 279 287 279.5 287 280 287 280 286.5 280 286 280 285.5 280 285 282.25 284.75 283.3 283.25 283.5 283 284 283 284 282.5 284 282 284 281.5 284 281 286.25 280.75 287.3 279.25 287.5 279 288 279 288 278.5 288 278 288 277.5 288 277 291.9 276.4 292 272 292 271.5 292 271 292 270.5 292 270 292 264.5 292 259 292 258.5 291.8 258.1 291 256.5 290 255 290 255.5 290 256 290.05 261.55 286 263
L 285.5 263
Q 285.65 265.15 284 265 284 265.5 284 266 284 266.5 283.8 266.9 274.15 287 254 286 253.5 286 253 286 Z" stroke="none" fill="#9C6128"></path>

<path d="M 302 246
L 302 246.5
Q 293.55 245.75 296 255 296.5 255 296.6 255.2 300.5 264.45 293 277 292.5 277 292.25 277.25 291 278.5 290 280 290 280.5 289.75 280.75 289.5 281 289 281 293.1 294.9 304.2 285.25 304.5 285 305 285 308.85 278.35 308.05 267 308 266.5 308 266 307.5 266 307.5 265.95 307 261 307 256 307 255.5 306.85 255.05 305.35 249.65 302 246
M 296 275
Q 310.4 269.4 296 275.5
L 296 275 Z" stroke="none" fill="#030E13"></path>

<path d="M 296 275.5
Q 310.4 269.4 296 275
L 296 275.5 Z" stroke="none" fill="#0B0B01"></path>

<path d="M 291 243
Q 290.5 243 290.1 243.2 289.5 243.5 289 244 289 244.5 289 245 290.55 245.15 294.85 243.55 295 243.5 295 243 294.5 243 294 243 292.5 243 291 243 Z" stroke="none" fill="#553803"></path>

<path d="M 288 245
Q 288 245.5 288 246 287.3 249.7 288.75 251.25 289 251.5 289 252 290.65 251.9 290.1 254.05 290 254.5 290 255 291 256.5 291.8 258.1 292 258.5 292 259 293.75 263.25 293.05 270 293 270.5 293 271 293 273.5 293 276 293 276.5 293 277 300.5 264.45 296.6 255.2 296.5 255 296 255 293.55 245.75 302 246.5
L 302 246
Q 302 245.5 302 245 301.5 245 301.1 244.8 298.95 243.55 296 243 295.5 243 295 243 295 243.5 294.85 243.55 290.55 245.15 289 245 288.5 245 288 245 Z" stroke="none" fill="#1E0503"></path>

<path d="M 288 246
L 287.5 246
Q 287.85 243.25 280 247 282.5 256.1 288.15 252.25 288.5 252 289 252 289 251.5 288.75 251.25 287.3 249.7 288 246 Z" stroke="none" fill="#ECC928"></path>

<path d="M 291 240
Q 291 239.5 291.05 239 291.75 233.75 290 231 290 235.5 290.5 239.95 290.5 240 291 240 Z" stroke="none" fill="#CC9139"></path>

<path d="M 290 223
Q 290 226.5 290 230 290 230.5 290 231 291.75 233.75 291.05 239 291 239.5 291 240 291 241 291 242 291 242.5 291 243 292.5 243 294 243 294.5 243 295 243 295.5 243 296 243 296 242.5 295.8 242.1 291.8 233.7 290 223 Z" stroke="none" fill="#A36411"></path>

<path d="M 301.35 223.8
Q 301.5 224 302 224 302 223.5 302.05 223 303.1 212.45 300 215 299.4 220.6 301.35 223.8 Z" stroke="none" fill="#606055"></path>

<path d="M 289 203
Q 289 202.5 289.05 202 289.75 195.25 288 191 288 197 288.5 202.95 288.5 203 289 203 Z" stroke="none" fill="#D6973D"></path>

<path d="M 290 222
Q 290 216.5 290 211 289.5 211 289 211 289 217 289.5 222.95 289.5 223 290 223 290 222.5 290 222 Z" stroke="none" fill="#D29A34"></path>

<path d="M 113 301.1
Q 113.5 301 114 301 114 300.5 113.75 300.2 112.2 298.25 108 299 108.3 302.2 113 301.1 Z" stroke="none" fill="#6F6F61"></path>

<path d="M 126.9 339.5
Q 127 339.5 127 339 126.5 339 126 339 122 339 118 339 121.25 340.75 126.9 339.5 Z" stroke="none" fill="#22424A"></path>

<path d="M 123 306
Q 122.5 306 122 306 122 310 122 314 122 314.5 122 315 123.75 312.25 123.05 307 123 306.5 123 306 Z" stroke="none" fill="#334F55"></path>

<path d="M 122 303
Q 122 302.5 121.75 302.3 119.25 300.25 114 301 115.2 304.3 121 303.1 121.5 303 122 303 Z" stroke="none" fill="#746F5B"></path>

<path d="M 137 302
Q 136.5 302 136.05 301.85 130.5 299.65 125 302 125 302.5 125 303 132.15 303.9 137 303.1 137.5 303 138 303 138 302.5 137.75 302.25 137.5 302 137 302 Z" stroke="none" fill="#2A0500"></path>

<path d="M 137 302
Q 137 301.5 136.8 301.4 132.15 299.35 125 300 125 300.5 125 301 125 301.5 125 302 130.5 299.65 136.05 301.85 136.5 302 137 302 Z" stroke="none" fill="#5C3907"></path>

<path d="M 138 304
Q 137.5 304 137.35 304.2 133.05 311.6 128 319
L 127.5 319
Q 127.35 303.15 124 304 123.5 304 123 304 123 304.5 123 305 123 305.5 123 306 123 306.5 123.05 307 123.75 312.25 122 315 122 315.5 121.9 316 119.9 325.4 115 332 114.5 337 117.15 338.75 117.5 339 118 339 122 339 126 339 126.5 339 127 339 137.65 327.15 138 305 138 304.5 138 304 Z" stroke="none" fill="#010E1B"></path>

<path d="M 137.35 304.2
Q 137.5 304 138 304 138 303.5 138 303 137.5 303 137 303.1 132.15 303.9 125 303 124.5 303 124 303 124 303.5 124 304 127.35 303.15 127.5 319
L 128 319
Q 133.05 311.6 137.35 304.2 Z" stroke="none" fill="#050704"></path>

<path d="M 72 278
Q 72 278.5 72.05 279 72.15 280.65 70 280 70 280.5 70 281 74.1 282.1 74 279 74 278.5 74 278 73.5 278 73 278 72.5 278 72 278 Z" stroke="none" fill="#5B6B6C"></path>

<path d="M 72.05 279
Q 72 278.5 72 278 71.5 278 71.25 278.25 70 279.5 68 280 68 280.5 68 281 68 281.5 68 282 69 282 69.8 281.6 70 281.5 70 281 70 280.5 70 280 72.15 280.65 72.05 279 Z" stroke="none" fill="#264046"></path>

<path d="M 58.75 287.7
Q 59 287.5 59 287 58.5 287 58.15 287.25 55.8 288.8 52 289 52 289.5 52 290 52 290.5 52 291 55.95 289.95 58.75 287.7 Z" stroke="none" fill="#1D3F48"></path>

<path d="M 74 259
Q 74 259.5 73.8 259.6 73 260 72 260 71.5 260 71.5 260.1 71.15 261.65 69 261 69 261.5 69 262 69 262.5 69 263 72.4 260.4 79 260.95 79.5 261 80 261 80 260.5 79.8 260.1 79.5 259.5 79 259 78.5 259 78 259 76 259 74 259 Z" stroke="none" fill="#2F2421"></path>

<path d="M 74 259
Q 74 258.5 74.05 258 75.45 246.05 72 239 72.4 252.95 72.05 259 72 259.5 72 260 73 260 73.8 259.6 74 259.5 74 259 Z" stroke="none" fill="#6C6F63"></path>

<path d="M 28 289
Q 30.35 294.15 37 294.95 37.5 295 38 295 44.85 293.35 51.05 291.15 51.5 291 52 291 52 290.5 52 290 52 289.5 52 289 55.8 288.8 58.15 287.25 58.5 287 59 287 62.8 284.3 67.1 282.2 67.5 282 68 282 68 281.5 68 281 68 280.5 68 280 70 279.5 71.25 278.25 71.5 278 72 278 72.5 278 73 278 73.5 278 74 278 74 277.5 74 277 74 276.5 74 276 77.75 274.75 79.4 271.2 79.5 271 80 271 80 270.5 80.15 270.05 81.25 266.1 80 261 79.5 261 79 260.95 72.4 260.4 69 263 69 263.5 68.75 263.75 60.65 272.15 50 278 50 278.5 50 279 50 279.5 49.8 279.6 43.55 282.45 46 286 46 286.5 45.85 286.55 38.35 288.95 28 289 Z" stroke="none" fill="#020C16"></path>

<path d="M 25 287
Q 24.4 298.6 37.9 295.55 38 295.5 38 295 37.5 295 37 294.95 30.35 294.15 28 289 38.35 288.95 45.85 286.55 46 286.5 46 286 43.55 282.45 49.8 279.6 50 279.5 50 279 49.5 279 49.05 279.15 37.4 283.45 25 287 Z" stroke="none" fill="#021C26"></path>

<path d="M 72 208
Q 72 207.5 72.1 207 73.4 199.6 70 197 70 201.5 70 206 70 206.5 70 207 70.5 207.5 71.1 207.8 71.5 208 72 208 Z" stroke="none" fill="#776B56"></path>

<path d="M 140 290
Q 140 290.5 140 291 144 291 147.95 290.5 148 290.5 148 290 147.5 290 147 290 143.5 290 140 290 Z" stroke="none" fill="#E3B537"></path>

<path d="M 116 276
Q 116 275.5 115.75 275.2 112.3 270.8 104 272 111.25 281.15 117.5 285
L 117 285
Q 123.85 287.8 142 287 142.5 287 143 287 145.05 285.05 147.8 283.6 148 283.5 148 283 163.15 283.35 175.9 286.45 176 286.5 176 287 177 284.5 181 284.95 181.5 285 182 285 193.55 288.45 210 287.05 210.5 287 211 287 214.5 287 218 287 218.5 287 219 287 222.5 287 226 287 226.5 287 227 287 230.5 287 234 287 234.5 287 235 287 235 286.5 235 286 237 286 239 286 239.5 286 240 286 240 285.5 240.2 285.45 248.25 282.1 256 281
L 256 280.5
Q 249.45 280.3 242 278 242 277.5 242.15 277.45 249.85 274.7 257 277 257.5 277 257.85 276.75 265.6 271.7 267 270 266.5 270 266.15 269.8 260.05 266 259 275 258.5 275 258.2 274.75 247.5 266.55 258 269 258 268.5 258.25 268.2 260.95 265.2 246 267
L 245.5 267
Q 247.65 274.25 239 275 238.5 275 238.25 274.75 237.45 274 244 268
L 244 267.5
Q 235.55 273 236 266
L 236 265.5
Q 232.65 270.95 231 275 231 274.5 230.8 274.1 227.8 267.5 221 271 221 271.5 220.75 271.8 216.5 276.55 219 270 219.5 270 219.9 269.8 229.15 264.7 216 267 216 267.5 215.8 267.9 214.65 269.8 210 266 210 266.5 209.75 266.75 201.75 275.15 194 269 193.5 269 193.4 269.2 191.9 271.9 184 269 184 269.5 184.25 269.85 186.55 273.45 174 268
L 173.5 268
Q 176.65 272.05 176 275 175.5 275 175.05 275.15 163.55 278.85 159 275 158.5 275 158 275 150.55 275.05 146 278 145.5 278 145.4 277.8 142.8 272.7 140 279
L 140 278.5
Q 130.05 280.75 130 274 129.5 274 129 274.05 118.95 275.2 116 276 Z" stroke="none" fill="#F7D73D"></path>

<path d="M 98 295
Q 98 294.5 97.9 294 97.05 289.45 92 289 93.85 292.65 97.15 294.75 97.5 295 98 295 Z" stroke="none" fill="#6C7063"></path>

<path d="M 90 287
Q 90 286.5 89.8 286.1 88.7 283.8 86 283 84.8 287.7 89 287.05 89.5 287 90 287 Z" stroke="none" fill="#6E6F63"></path>

<path d="M 81.05 276.85
Q 81.5 277 82 277 82 276.5 82.1 276.05 82.9 272.6 80 273 79.3 276.2 81.05 276.85 Z" stroke="none" fill="#69706C"></path>

<path d="M 86.05 282
Q 86.25 278.75 83 279 83.65 281.35 85.2 282.75 85.5 283 86 283 86 282.5 86.05 282 Z" stroke="none" fill="#6B7067"></path>

<path d="M 91 269
Q 91 268.5 90.95 268 90.75 263.75 88 262 88.65 265.9 90.35 268.8 90.5 269 91 269 Z" stroke="none" fill="#DAA536"></path>

<path d="M 83 268
Q 83 267.5 83.05 267 83.8 261.7 80 261 81.25 266.1 80.15 270.05 80 270.5 80 271 82.2 270.75 82.85 268.95 83 268.5 83 268 Z" stroke="none" fill="#250D08"></path>

<path d="M 83 268
Q 83.5 268 83.6 267.8 86.6 260.75 79 259 79.5 259.5 79.8 260.1 80 260.5 80 261 83.8 261.7 83.05 267 83 267.5 83 268 Z" stroke="none" fill="#52300D"></path>

<path d="M 87.25 261.75
Q 87 261.5 87 261 86.5 261 86 261 88.45 280.05 101.8 288.35 102 288.5 102 289 109.55 290.45 113 290.95 113.5 291 114 291 116.05 293.95 120.05 294.9 120.5 295 121 295 172.2 291.9 221 293 221.5 293 222 293 228.65 286.75 235.75 291.35 236 291.5 236 292 240.6 289.55 243.75 292.3 244 292.5 244 293 245.5 291 247.25 289.25 247.5 289 248 289 248 288.5 248 288 248 287.5 248 287 250 287 251.9 286.55 252 286.5 252 286 251.5 286 251 286 248.5 286 246 286 246 286.5 245.95 286.5 240.5 287 235 287 234.5 287 234 287 230.5 287 227 287 227 287.5 226.95 287.5 223 288 219 288 218.5 288 218 288 214.5 288 211 288 210.5 288 210 288 207.5 288 205 288 205 288.5 204.95 288.5 197.5 289 190 289 189.5 289 189 289 183 289 177 289 177 289.5 176.95 289.5 171.5 290 166 290 165.5 290 165 290 156.5 290 148 290 148 290.5 147.95 290.5 144 291 140 291 139.5 291 139 291 102.85 292.15 91 269 90.5 269 90.35 268.8 88.65 265.9 88 262 87.5 262 87.25 261.75 Z" stroke="none" fill="#A3680F"></path>

<path d="M 84.5 250.95
Q 84.5 251 85 251 85 250.5 85.05 250 85.75 243.25 84 239 84 245 84.5 250.95 Z" stroke="none" fill="#D69E36"></path>

<path d="M 84 235
Q 84 234.5 84.05 234 84.75 227.25 83 223 83 229 83.5 234.95 83.5 235 84 235 Z" stroke="none" fill="#CC943A"></path>

<path d="M 82 214
Q 82 214.5 81.95 215 81.7 216.7 80 217 81.3 240.5 85.5 258.9 85.5 259 86 259 86 258.5 85.9 258 85.25 254.75 85 251 84.5 251 84.5 250.95 84 245 84 239 84 238.5 84 238 84 236.5 84 235 83.5 235 83.5 234.95 83 229 83 223 83 222.5 83 222 83 218 83 214 82.5 214 82 214 Z" stroke="none" fill="#A36612"></path>

<path d="M 82 206
Q 82 208 82 210 82 210.5 82 211 82 212 82 213 82 213.5 82 214 82.5 214 83 214 83 213.5 83.05 213 83.75 208.25 82 206 Z" stroke="none" fill="#C39611"></path>

<path d="M 82 191
Q 82 190.5 82.05 190 82.75 185.25 81 183 81 186.5 81 190 81 190.5 81 191 81.5 191 82 191 Z" stroke="none" fill="#DB9B40"></path>

<path d="M 82 195
L 81.5 195
Q 81.7 198.2 80 199 79.5 206 81.45 210.85 81.5 211 82 211 82 210.5 82 210 82 208 82 206 82 205.5 82 205 82 200 82 195 Z" stroke="none" fill="#A5631C"></path>

<path d="M 69.3 174.75
Q 69.5 175 70 175 70 174.5 70.1 174 71.3 168.2 68 167 67.25 172.25 69.3 174.75 Z" stroke="none" fill="#606056"></path>

<path d="M 80 176
Q 80 176.5 80 177 80 177.5 80.05 178 80.75 184.75 79 189 78.4 191.15 80 191.05 80.5 191 81 191 81 190.5 81 190 81 186.5 81 183 81 182.5 81 182 81 179 81 176 80.5 176 80 176 Z" stroke="none" fill="#A36C03"></path>

<path d="M 79.5 160.95
Q 79.5 161 80 161 80 160.5 80.05 160 80.75 150.75 79 144 79 152.5 79.5 160.95 Z" stroke="none" fill="#C1822D"></path>

<path d="M 80 140
Q 80 139.5 80.2 139.1 84 131.25 79 123 79 132.5 79 142 79 142.5 79 143 79 143.5 79 144 80.75 150.75 80.05 160 80 160.5 80 161 80 162.5 80 164 80 164.5 80 165 80.5 165 80.7 164.75 84.1 160.95 80 140 Z" stroke="none" fill="#F8BF53"></path>

<path d="M 79 123
Q 78.5 123 78 123 78 133 78.5 143
L 79 143
Q 79 142.5 79 142 79 132.5 79 123 Z" stroke="none" fill="#B5761F"></path>

<path d="M 78 121
Q 77.5 121 77.5 121.1 76.6 126.1 75 130 77.3 150.2 79.5 176.95 79.5 177 80 177 80 176.5 80 176 80.5 176 81 176 81 175.5 80.9 175 80.15 170.35 80 165 80 164.5 80 164 80 162.5 80 161 79.5 161 79.5 160.95 79 152.5 79 144 79 143.5 79 143
L 78.5 143
Q 78 133 78 123 78.5 123 79 123 79 122.5 79 122 79 121.5 79 121 78.5 121 78 121 Z" stroke="none" fill="#A36315"></path>

<path d="M 77.8 120.35
Q 78 120.5 78 121 78.5 121 79 121 79 120.5 79 120 79 119.5 79 119 81.8 112.8 84.8 106.9 85 106.5 85 106 85 105.5 84.8 105.1 84.5 104.5 84 104 83.5 104 83.45 104.15 80.95 111.95 74 115 74.9 118.6 77.8 120.35 Z" stroke="none" fill="#A76615"></path>

<path d="M 70 113
Q 69.5 113 69 113 68.5 113 68 113 68 116.5 68 120 68 120.5 68 121 70.65 119.15 70.05 114 70 113.5 70 113 Z" stroke="none" fill="#6B6450"></path>

<path d="M 158 83
Q 157.5 83 157 83 151 83 145 83 145 83.5 145 84 151.5 84 157.95 83.5 158 83.5 158 83 Z" stroke="none" fill="#D69F3B"></path>

<path d="M 120 84
Q 120 84.5 120 85 125 85 129.95 84.5 130 84.5 130 84 129.5 84 129 84 124.5 84 120 84 Z" stroke="none" fill="#D0943B"></path>

<path d="M 111.8 75.65
Q 112 75.5 112 75 111.5 75 111 75 108.5 75 106 75 106 75.5 106 76 106 76.5 106 77 109.5 77 111.8 75.65
M 274 79
Q 274 78.5 273.85 78.05 273.2 76.3 270 77 269.6 79.9 273.05 79.1 273.5 79 274 79 Z" stroke="none" fill="#646351"></path>

<path d="M 112 73
Q 112 73.5 112 74 112 74.5 112 75 129.1 75.6 143.95 73.5 144 73.5 144 73 143.5 73 143 73 125.25 73.15 112 73 Z" stroke="none" fill="#676353"></path>

<path d="M 300 183
Q 300 182.5 300.1 182 301.35 175.15 298 173 297.25 179.25 299.35 182.8 299.5 183 300 183 Z" stroke="none" fill="#656352"></path>

<path d="M 288 191
Q 288 190.5 288.05 190 288.75 181.25 287 175 287 183 287.5 190.95 287.5 191 288 191 Z" stroke="none" fill="#DEA737"></path>

<path d="M 287.05 158
Q 287.75 153.25 286 151 286 155 286.5 158.95 286.5 159 287 159 287 158.5 287.05 158 Z" stroke="none" fill="#D1943C"></path>

<path d="M 298 143
Q 298 142.5 298.05 142 299.45 132.05 296 127 295.4 136.1 297.45 142.85 297.5 143 298 143 Z" stroke="none" fill="#626253"></path>

<path d="M 285 130
Q 285 129.5 285.05 129 285.75 121.75 284 117 284 123.5 284.5 129.95 284.5 130 285 130 Z" stroke="none" fill="#E1A245"></path>

<path d="M 285 131
Q 285 131.5 285.1 132 285.7 135.2 284 136 284.2 138.8 285.35 140.8 285.5 141 286 141 286 140.5 286.05 140 286.75 134.25 285 131 Z" stroke="none" fill="#D99B3E"></path>

<path d="M 294 107
Q 294 106.5 294.1 106.05 294.95 102.6 292 103 291.3 106.2 293.05 106.85 293.5 107 294 107 Z" stroke="none" fill="#626352"></path>

<path d="M 213 80
Q 213 80.5 213 81 219.5 81 225.95 80.5 226 80.5 226 80 225.5 80 225 80 219 80 213 80 Z" stroke="none" fill="#CC9342"></path>

<path d="M 226 69
Q 225.5 69 225 69 217.5 69 210 69 210 69.5 210 70 210 70.5 210 71 219.25 71.75 225.85 69.55 226 69.5 226 69 Z" stroke="none" fill="#676350"></path>

<path d="M 201 81
Q 198.5 81 196 81 195.5 81 195 81 190.5 81 186 81 186 81.5 186 82 194 82 201.95 81.5 202 81.5 202 81 201.5 81 201 81 Z" stroke="none" fill="#CF9337"></path>

<path d="M 196 81
Q 198.5 81 201 81 201.5 81 202 81 202.5 81 203 81 203.5 81 204 81 204 80.5 203.75 80.2 200.05 76 194 78 195 79 195.75 80.15 196 80.5 196 81 Z" stroke="none" fill="#A4621C"></path>

<path d="M 178 82
Q 177.5 82 177 82 173.5 82 170 82 170 82.5 170 83 174 83 177.95 82.5 178 82.5 178 82 Z" stroke="none" fill="#DC9B46"></path>

<path d="M 170 83
Q 169.5 83 169 83 163.5 83 158 83 158 83.5 157.95 83.5 151.5 84 145 84 144.5 84 144 84 137 84 130 84 130 84.5 129.95 84.5 125 85 120 85 119.5 85 119 85.05 94.8 88.3 85 106 85 106.5 84.8 106.9 81.8 112.8 79 119 79 119.5 79 120 79 120.5 79 121 79 121.5 79 122 79 122.5 79 123 84 131.25 80.2 139.1 80 139.5 80 140 84.1 160.95 80.7 164.75 80.5 165 80 165 80.15 170.35 80.9 175 81 175.5 81 176 81 179 81 182 81 182.5 81 183 82.75 185.25 82.05 190 82 190.5 82 191 82 192.5 82 194 82 194.5 82 195 82 200 82 205 82 205.5 82 206 83.75 208.25 83.05 213 83 213.5 83 214 83 218 83 222 83 222.5 83 223 84.75 227.25 84.05 234 84 234.5 84 235 84 236.5 84 238 84 238.5 84 239 85.75 243.25 85.05 250 85 250.5 85 251 85.25 254.75 85.9 258 86 258.5 86 259 86.5 259.5 86.8 260.1 87 260.5 87 261 87 261.5 87.25 261.75 87.5 262 88 262 90.75 263.75 90.95 268 91 268.5 91 269 102.85 292.15 139 291 139.5 291 140 291 140 290.5 140 290 143.5 290 147 290 147.5 290 148 290 156.5 290 165 290 165.5 290 166 290 166 289.5 166 289 171 289 176 289 176.5 289 177 289 183 289 189 289 189.5 289 190 289 190 288.5 190 288 197 288 204 288 204.5 288 205 288 207.5 288 210 288 210.5 288 211 288 211 287.5 211 287 210.5 287 210 287.05 193.55 288.45 182 285 181.5 285 181 284.95 177 284.5 176 287 176 286.5 175.9 286.45 163.15 283.35 148 283 148 283.5 147.8 283.6 145.05 285.05 143 287 142.5 287 142 287 123.85 287.8 117 285
L 117.5 285
Q 111.25 281.15 104 272 112.3 270.8 115.75 275.2 116 275.5 116 276 118.95 275.2 129 274.05 129.5 274 130 274 130.05 280.75 140 278.5
L 140 279
Q 142.8 272.7 145.4 277.8 145.5 278 146 278 150.55 275.05 158 275 158.5 275 159 275 163.55 278.85 175.05 275.15 175.5 275 176 275 176.65 272.05 173.5 268
L 174 268
Q 186.55 273.45 184.25 269.85 184 269.5 184 269 191.9 271.9 193.4 269.2 193.5 269 194 269 201.75 275.15 209.75 266.75 210 266.5 210 266 214.65 269.8 215.8 267.9 216 267.5 216 267 229.15 264.7 219.9 269.8 219.5 270 219 270 216.5 276.55 220.75 271.8 221 271.5 221 271 227.8 267.5 230.8 274.1 231 274.5 231 275 232.65 270.95 236 265.5
L 236 266
Q 235.55 273 244 267.5
L 244 268
Q 237.45 274 238.25 274.75 238.5 275 239 275 247.65 274.25 245.5 267
L 246 267
Q 260.95 265.2 258.25 268.2 258 268.5 258 269 247.5 266.55 258.2 274.75 258.5 275 259 275 260.05 266 266.15 269.8 266.5 270 267 270 265.6 271.7 257.85 276.75 257.5 277 257 277 249.85 274.7 242.15 277.45 242 277.5 242 278 249.45 280.3 256 280.5
L 256 281
Q 248.25 282.1 240.2 285.45 240 285.5 240 286 242.5 286 245 286 245.5 286 246 286 248.5 286 251 286 251.5 286 252 286 252.5 286 253 286 253.5 286 254 286 273.75 281.25 283.35 266.25 283.5 266 284 266 284 265.5 284 265 285.65 265.15 285.5 263
L 286 263
Q 286 262.5 286 262 286 261.5 286 261 288.45 257.95 288.95 253 289 252.5 289 252 288.5 252 288.15 252.25 282.5 256.1 280 247 287.85 243.25 287.5 246
L 288 246
Q 288 245.5 288 245 288.5 245 289 245 289 244.5 289 244 289.5 243.5 290.1 243.2 290.5 243 291 243 291 242.5 291 242 291 241 291 240 290.5 240 290.5 239.95 290 235.5 290 231 290 230.5 290 230 290 226.5 290 223 289.5 223 289.5 222.95 289 217 289 211 289 210.5 289 210 289 206.5 289 203 288.5 203 288.5 202.95 288 197 288 191 287.5 191 287.5 190.95 287 183 287 175 287 174.5 287 174 287 166.5 287 159 286.5 159 286.5 158.95 286 155 286 151 286 150.5 286 150 286 145.5 286 141 285.5 141 285.35 140.8 284.2 138.8 284 136 285.7 135.2 285.1 132 285 131.5 285 131 285 130.5 285 130 284.5 130 284.5 129.95 284 123.5 284 117 284 116.5 283.9 116 276.05 76.95 226 80 226 80.5 225.95 80.5 219.5 81 213 81 212.5 81 212 81 209 81 206 81 205.5 81 205 81 204.5 81 204 81 203.5 81 203 81 202.5 81 202 81 202 81.5 201.95 81.5 194 82 186 82 185.5 82 185 82 181.5 82 178 82 178 82.5 177.95 82.5 174 83 170 83
M 257 87
Q 268.9 91.65 257.15 87.55 257 87.5 257 87
M 250.95 87.5
Q 251 87.5 251 88 236.8 96 216.1 92.5 216 92.5 216 92 212.35 91.85 211.55 94.9 211.5 95 211 95 183.8 93.9 161 95 160.5 95 160 95 152.1 94.45 144.15 91.55 144 91.5 144 91 197.4 83.9 250.95 87.5
M 189.05 85.5
Q 189 85.5 189 85 195.5 85 202 85 202.5 85 203 85 197.25 86.75 189.05 85.5
M 202.8 133.35
Q 203 133.5 203 134 206.7 134.8 208.75 137.2 209 137.5 209 138 228.3 150.7 232.9 178 233 178.5 233 179 234.75 181.75 233.55 186.9 233.5 187 233 187 233 187.5 232.95 188 229.45 212.95 213 225 213 225.5 213 226
L 213.5 226
Q 212.7 231.7 207 233 206.5 233 206.2 233.25 198.35 240.35 188 245 188 245.5 187.8 245.6 183.25 247.75 176 247 175.5 247 175 247 174.5 247 174 247 174 247.5 174 248
L 174.5 248
Q 170.5 250.5 166 248 166 247.5 166 247 165.5 247 165.3 246.75 161.95 243.05 160 238
L 160 238.5
Q 156.7 237.8 158 232 158 231.5 157.85 231.05 156.6 226.95 157 221 157 220.5 156.95 220 156.5 216 156 212 155.5 212 155.05 211.85 153.3 211.2 154 208 154.5 208 154.75 207.75 155 207.5 155 207 155 206.5 154.95 206 153.2 190.3 150 176 149.5 176 149.3 175.75 147.45 173.55 148 169 148 168.5 148 168 148 167 148 166 147.5 166 147.35 165.75 145.45 163.05 146 158 146 157.5 145.9 157 144.55 148.45 143 140 142.5 140 142.5 139.95 142 134.5 142 129 142.5 129 143 129 143.5 129 144 129 144 128.5 144 128 147.05 124.55 152.05 123.15 152.5 123 153 123 153 122.5 153 122 161 122 169 122 169.5 122 170 122 174.3 122.7 178.9 123.5 179 123.5 179 124 179.5 124 180 124 184.5 125 188.85 126.45 189 126.5 189 127 196.35 129.65 202.8 133.35
M 116.2 93.65
Q 116 93.5 116 93 126.75 86.35 127.95 96 128 96.5 128 97 121.1 96.5 116.2 93.65
M 130 91.5
L 130 91
Q 144.85 91.5 130 91.5
M 94.25 263.85
Q 94 263.5 94 263 101.6 274.85 94.25 263.85
M 159 271.5
L 159 271
Q 171.5 267.75 166.25 273.25 166 273.5 166 274 165.2 270.3 159 271.5
M 124.2 268.6
Q 124 268.5 124 268 133.95 273.35 124.2 268.6
M 136.05 269.5
Q 136 269.5 136 269 148.25 270.55 136.05 269.5
M 203.85 245.95
Q 204 245.5 204 245 197 241.25 209 239.1 209.5 239 210 239 210.6 247.8 209.5 254.95 209.5 255 209 255 196.15 257.65 192.2 249.9 192 249.5 192 249 202.9 249.05 203.85 245.95 Z" stroke="none" fill="#F8C743"></path>

<path d="M 204 245
Q 204 245.5 203.85 245.95 202.9 249.05 192 249 192 249.5 192.2 249.9 196.15 257.65 209 255 209.5 255 209.5 254.95 210.6 247.8 210 239 209.5 239 209 239.1 197 241.25 204 245 Z" stroke="none" fill="#F7D338"></path>

<path d="M 136 269
Q 136 269.5 136.05 269.5 148.25 270.55 136 269
M 124 268
Q 124 268.5 124.2 268.6 133.95 273.35 124 268
M 159 271
L 159 271.5
Q 165.2 270.3 166 274 166 273.5 166.25 273.25 171.5 267.75 159 271 Z" stroke="none" fill="#F8D83E"></path>

<path d="M 94 263
Q 94 263.5 94.25 263.85 101.6 274.85 94 263 Z" stroke="none" fill="#F7D437"></path>

<path d="M 130 91
L 130 91.5
Q 144.85 91.5 130 91 Z" stroke="none" fill="#FFE373"></path>

<path d="M 116 93
Q 116 93.5 116.2 93.65 121.1 96.5 128 97 128 96.5 127.95 96 126.75 86.35 116 93 Z" stroke="none" fill="#FFE172"></path>

<path d="M 174 248
Q 173.5 248 173 248 169.5 248 166 248 170.5 250.5 174.5 248
L 174 248 Z" stroke="none" fill="#E2C87C"></path>

<path d="M 176 246
Q 176 246.5 176 247 183.25 247.75 187.8 245.6 188 245.5 188 245 187.5 245 187 244.9 179.6 243.35 176 246 Z" stroke="none" fill="#C9AE66"></path>

<path d="M 174 247
Q 173.5 247 173 247 169.5 247 166 247 166 247.5 166 248 169.5 248 173 248 173.5 248 174 248 174 247.5 174 247 Z" stroke="none" fill="#866922"></path>

<path d="M 213.5 226
L 213 226
Q 213 226.5 212.75 226.75 210 229.5 207 232 207 232.5 207 233 212.7 231.7 213.5 226 Z" stroke="none" fill="#DFC172"></path>

<path d="M 159 232
Q 158.5 232 158 232 156.7 237.8 160 238.5
L 160 238
Q 160 237.5 159.75 237.25 158.3 235.7 159 232 Z" stroke="none" fill="#E7CD7D"></path>

<path d="M 159 232
Q 159 231.5 159 231 158.8 225.2 157 221 156.6 226.95 157.85 231.05 158 231.5 158 232 158.5 232 159 232 Z" stroke="none" fill="#B0913E"></path>

<path d="M 155 207
Q 155 207.5 154.75 207.75 154.5 208 154 208 153.3 211.2 155.05 211.85 155.5 212 156 212 156 211.5 156.1 211 156.7 207.8 155 207 Z" stroke="none" fill="#DBB526"></path>

<path d="M 150 176
Q 150 175.5 149.9 175 149.2 171.8 148 169 147.45 173.55 149.3 175.75 149.5 176 150 176 Z" stroke="none" fill="#D1B166"></path>

<path d="M 148 166
Q 148 165.5 147.95 165 147.45 161.05 146 158 145.45 163.05 147.35 165.75 147.5 166 148 166 Z" stroke="none" fill="#CEB062"></path>

<path d="M 144 129
Q 143.5 129 143 129 142.5 129 142 129 142 134.5 142.5 139.95 142.5 140 143 140 143 139.5 143 139 143 134.5 143 130 143.5 130 143.75 129.75 144 129.5 144 129 Z" stroke="none" fill="#B39457"></path>

<path d="M 233 186
Q 233 186.5 233 187 233.5 187 233.55 186.9 234.75 181.75 233 179 233 182.5 233 186 Z" stroke="none" fill="#7D590D"></path>

<path d="M 189 127
Q 189 126.5 188.85 126.45 184.5 125 180 124 182.75 126.75 188 127 188.5 127 189 127 Z" stroke="none" fill="#7A5713"></path>

<path d="M 178.9 123.5
Q 174.3 122.7 170 122 170 122.5 170 123 173.2 124.3 178 124.05 178.5 124 179 124 179 123.5 178.9 123.5 Z" stroke="none" fill="#805A11"></path>

<path d="M 170 122
Q 169.5 122 169 122 161 122 153 122 153 122.5 153 123 161 123 169 123 169.5 123 170 123 170 122.5 170 122 Z" stroke="none" fill="#684602"></path>

<path d="M 209 138
Q 209 137.5 208.75 137.2 206.7 134.8 203 134 204.95 136.55 208.05 137.8 208.5 138 209 138 Z" stroke="none" fill="#7D5310"></path>

<path d="M 203 134
Q 203 133.5 202.8 133.35 196.35 129.65 189 127 188.5 127 188 127 182.75 126.75 180 124 179.5 124 179 124 178.5 124 178 124.05 173.2 124.3 170 123 169.5 123 169 123 161 123 153 123 152.5 123 152.05 123.15 147.05 124.55 144 128 144 128.5 144 129 144 129.5 143.75 129.75 143.5 130 143 130 143 134.5 143 139 143 139.5 143 140 144.55 148.45 145.9 157 146 157.5 146 158 147.45 161.05 147.95 165 148 165.5 148 166 148 167 148 168 148 168.5 148 169 149.2 171.8 149.9 175 150 175.5 150 176 153.2 190.3 154.95 206 155 206.5 155 207 156.7 207.8 156.1 211 156 211.5 156 212 156.5 216 156.95 220 157 220.5 157 221 158.8 225.2 159 231 159 231.5 159 232 158.3 235.7 159.75 237.25 160 237.5 160 238 161.95 243.05 165.3 246.75 165.5 247 166 247 169.5 247 173 247 173.5 247 174 247 174.5 247 175 247 175.5 247 176 247 176 246.5 176 246 179.6 243.35 187 244.9 187.5 245 188 245 198.35 240.35 206.2 233.25 206.5 233 207 233 207 232.5 207 232 210 229.5 212.75 226.75 213 226.5 213 226 213 225.5 213 225 229.45 212.95 232.95 188 233 187.5 233 187 233 186.5 233 186 233 182.5 233 179 233 178.5 232.9 178 228.3 150.7 209 138 208.5 138 208.05 137.8 204.95 136.55 203 134
M 208.15 146.95
Q 208 146.5 208 146 217.15 149.85 219.5 160
L 219 160
Q 211.45 155.5 208.15 146.95
M 177 137
Q 177.5 137 178 137 181.7 138.3 185.85 139.45 186 139.5 186 140 242.25 182.2 187.25 228.3 187 228.5 187 229 187 229.5 186.8 229.6 183.35 231.35 178 231 177.5 231 177.45 230.85 174.05 221.45 173 210 172.5 210 172.35 209.8 170.85 207.15 171 203 171 202.5 170.9 202 168.65 188.35 166 175 165.5 175 165.45 174.9 163.7 167.3 163 159 163 158.5 162.95 158 162.25 151.75 161 146 161 145.5 161 145 160.5 145 160.4 144.8 158.6 140.95 159 135 159.5 135 160 135 166 135 171.95 135.5 172 135.5 172 136 174.5 136 176.9 136.5 177 136.5 177 137
M 216.2 161.9
Q 216 161.5 216 161 226.1 163.6 221.55 175.85 221.5 176 221 176 219.65 169.25 216.2 161.9
M 224 196.5
L 224 197
Q 221.95 206.75 218.25 211.2 218 211.5 218 212 213.15 216.8 212.1 210 212 209.5 212 209 218.8 200.85 224 196.5
M 146.25 142.75
Q 146 142.5 146 142 152.7 149.05 146.25 142.75
M 152.15 159.95
Q 152 159.5 152 159 154.65 167.55 152.15 159.95
M 154.1 176
Q 154 175.5 154 175 160.8 181.3 156 187.5
L 156 187
Q 155.3 181.2 154.1 176
M 156.1 195.5
Q 156 195.5 156 195 163 197.1 156.1 195.5
M 212 215
Q 219 217.1 212.1 215.5 212 215.5 212 215
M 208 216
Q 211.35 219.85 208.25 216.75 208 216.5 208 216
M 162 215
Q 164.9 223.8 162.15 215.95 162 215.5 162 215
M 168.1 239.5
Q 168 239.5 168 239 181.45 241.75 168.1 239.5
M 176 237
Q 186.75 237.95 176 237.5
L 176 237 Z" stroke="none" fill="#180702"></path>

<path d="M 176 237.5
Q 186.75 237.95 176 237
L 176 237.5 Z" stroke="none" fill="#020312"></path>

<path d="M 168 239
Q 168 239.5 168.1 239.5 181.45 241.75 168 239 Z" stroke="none" fill="#0B0615"></path>

<path d="M 162.15 215.95
Q 164.9 223.8 162 215 162 215.5 162.15 215.95
M 208.25 216.75
Q 211.35 219.85 208 216 208 216.5 208.25 216.75
M 156 195
Q 156 195.5 156.1 195.5 163 197.1 156 195
M 152 159
Q 152 159.5 152.15 159.95 154.65 167.55 152 159 Z" stroke="none" fill="#02030C"></path>

<path d="M 212.1 215.5
Q 219 217.1 212 215 212 215.5 212.1 215.5 Z" stroke="none" fill="#020B02"></path>

<path d="M 154 175
Q 154 175.5 154.1 176 155.3 181.2 156 187
L 156 187.5
Q 160.8 181.3 154 175 Z" stroke="none" fill="#01050A"></path>

<path d="M 146 142
Q 146 142.5 146.25 142.75 152.7 149.05 146 142 Z" stroke="none" fill="#0B0A0C"></path>

<path d="M 224 197
L 224 196.5
Q 218.8 200.85 212 209 212 209.5 212.1 210 213.15 216.8 218 212 218 211.5 218.25 211.2 221.95 206.75 224 197 Z" stroke="none" fill="#03060B"></path>

<path d="M 216 161
Q 216 161.5 216.2 161.9 219.65 169.25 221 176 221.5 176 221.55 175.85 226.1 163.6 216 161 Z" stroke="none" fill="#04040F"></path>

<path d="M 178 230
Q 178 230.5 178 231 183.35 231.35 186.8 229.6 187 229.5 187 229 186.5 229 186.05 229.15 182.8 230.3 178 230 Z" stroke="none" fill="#755711"></path>

<path d="M 171 203
Q 170.85 207.15 172.35 209.8 172.5 210 173 210 173 209.5 172.95 209 172.55 205.45 171 203 Z" stroke="none" fill="#7B5A11"></path>

<path d="M 160 135
Q 159.5 135 159 135 158.6 140.95 160.4 144.8 160.5 145 161 145 161 144.5 160.9 144 160.1 140.4 160 136 160 135.5 160 135 Z" stroke="none" fill="#6D5219"></path>

<path d="M 166 175
Q 166 174.5 165.95 174 165.45 165.55 163 159 163.7 167.3 165.45 174.9 165.5 175 166 175 Z" stroke="none" fill="#664709"></path>

<path d="M 186 140
Q 186 139.5 185.85 139.45 181.7 138.3 178 137 179.7 140.3 185 140.05 185.5 140 186 140 Z" stroke="none" fill="#BD9D56"></path>

<path d="M 172 136
Q 171.5 136 171 136 165.5 136 160 136 160.1 140.4 160.9 144 161 144.5 161 145 161 145.5 161 146 161.95 133.45 176.05 136.9 176.5 137 177 137 177 136.5 176.9 136.5 174.5 136 172 136 Z" stroke="none" fill="#DBB865"></path>

<path d="M 172 136
Q 172 135.5 171.95 135.5 166 135 160 135 160 135.5 160 136 165.5 136 171 136 171.5 136 172 136 Z" stroke="none" fill="#BE9D52"></path>

<path d="M 178 137
Q 177.5 137 177 137 176.5 137 176.05 136.9 161.95 133.45 161 146 162.25 151.75 162.95 158 163 158.5 163 159 165.45 165.55 165.95 174 166 174.5 166 175 168.65 188.35 170.9 202 171 202.5 171 203 172.55 205.45 172.95 209 173 209.5 173 210 174.05 221.45 177.45 230.85 177.5 231 178 231 178 230.5 178 230 182.8 230.3 186.05 229.15 186.5 229 187 229 187 228.5 187.25 228.3 242.25 182.2 186 140 185.5 140 185 140.05 179.7 140.3 178 137 Z" stroke="none" fill="#F4C241"></path>

<path d="M 208 146
Q 208 146.5 208.15 146.95 211.45 155.5 219 160
L 219.5 160
Q 217.15 149.85 208 146 Z" stroke="none" fill="#020709"></path>

<path d="M 189 85
Q 189 85.5 189.05 85.5 197.25 86.75 203 85 202.5 85 202 85 195.5 85 189 85 Z" stroke="none" fill="#EAB646"></path>

<path d="M 251 88
Q 251 87.5 250.95 87.5 197.4 83.9 144 91 144 91.5 144.15 91.55 152.1 94.45 160 95 160.5 95 161 95 183.8 93.9 211 95 211.5 95 211.55 94.9 212.35 91.85 216 92 216 92.5 216.1 92.5 236.8 96 251 88 Z" stroke="none" fill="#FFE374"></path>

<path d="M 257.15 87.55
Q 268.9 91.65 257 87 257 87.5 257.15 87.55 Z" stroke="none" fill="#E9B443"></path>

<path d="M 169 83
Q 169.5 83 170 83 170 82.5 170 82 173.5 82 177 82 177.5 82 178 82 181.5 82 185 82 185.5 82 186 82 186 81.5 186 81 185.5 81 185 80.95 171.2 80.15 162 77 162 77.5 161.9 77.5 134.560546875 81.9 112.5 82 106.95 86.45 94 89 94 89.5 93.75 89.85 90.3 94.85 84 99 84 101 84 103 84 103.5 84 104 84.5 104.5 84.8 105.1 85 105.5 85 106 94.8 88.3 119 85.05 119.5 85 120 85 120 84.5 120 84 124.5 84 129 84 129.5 84 130 84 137 84 144 84 144.5 84 145 84 145 83.5 145 83 151 83 157 83 157.5 83 158 83 163.5 83 169 83 Z" stroke="none" fill="#A56515"></path>

<path d="M 162 72
Q 162 72.5 162 73 171.25 73.75 177.85 71.55 178 71.5 178 71 177.5 71 177 71 169.5 71 162 71 162 71.5 162 72 Z" stroke="none" fill="#696554"></path>

<path d="M 268 83
Q 267.5 83 267 82.9 236.65 76.95 203 78 205.45 78.05 205.9 80 206 80.5 206 81 209 81 212 81 212.5 81 213 81 213 80.5 213 80 219 80 225 80 225.5 80 226 80 276.05 76.95 283.9 116 284 116.5 284 117 285.75 121.75 285.05 129 285 129.5 285 130 285 130.5 285 131 286.75 134.25 286.05 140 286 140.5 286 141 286 145.5 286 150 286 150.5 286 151 287.75 153.25 287.05 158 287 158.5 287 159 287 166.5 287 174 287 174.5 287 175 288.75 181.25 288.05 190 288 190.5 288 191 289.75 195.25 289.05 202 289 202.5 289 203 289 206.5 289 210 289 210.5 289 211 289.5 211 290 211 290 210.5 290 210 288.5 181 292 157 291.5 157 291.5 156.9 290.05 148.45 289 139
L 288.5 139
Q 289.25 135.7 292 134 292 133.5 292 133 291.9 126.55 288 124 288 123.5 288.15 123.05 291.3 112.5 286 113 286 112.5 285.95 112 284.8 104 282 98 281.5 98 281.35 97.75 277.75 92.1 270 87 270 86.5 269.8 86.4 266.55 85 268 83 Z" stroke="none" fill="#A76518"></path>

<path d="M 270 77
Q 270 76.5 269.85 76.05 269.2 74.3 266 75 265.6 77.9 269.05 77.1 269.5 77 270 77 Z" stroke="none" fill="#626256"></path>

<path d="M 257 71.05
Q 250.6 71.9 248 69 247.5 69 247 69 236.5 69 226 69 226 69.5 225.85 69.55 219.25 71.75 210 71 209.5 71 209 71 193.5 71 178 71 178 71.5 177.85 71.55 171.25 73.75 162 73 161.5 73 161 73 152.5 73 144 73 144 73.5 143.95 73.5 129.1 75.6 112 75 112 75.5 111.8 75.65 109.5 77 106 77 105.5 77 105.05 77.15 79.6 86.6 70 112 70 112.5 70 113 70 113.5 70.05 114 70.65 119.15 68 121 68 143.5 68 166 68 166.5 68 167 71.3 168.2 70.1 174 70 174.5 70 175 70 181.5 70 188 70 188.5 70 189 70 192.5 70 196 70 196.5 70 197 73.4 199.6 72.1 207 72 207.5 72 208 72 211 72 214 72 214.5 72 215 72 226.5 72 238 72 238.5 72 239 75.45 246.05 74.05 258 74 258.5 74 259 76 259 78 259 78.5 259 79 259 86.6 260.75 83.6 267.8 83.5 268 83 268 83 268.5 82.85 268.95 82.2 270.75 80 271 80 271.5 80 272 80 272.5 80 273 82.9 272.6 82.1 276.05 82 276.5 82 277 82 278 82.4 278.8 82.5 279 83 279 86.25 278.75 86.05 282 86 282.5 86 283 88.7 283.8 89.8 286.1 90 286.5 90 287 92.15 286.4 92.05 288 92 288.5 92 289 97.05 289.45 97.9 294 98 294.5 98 295 103.75 295.75 107.75 298.35 108 298.5 108 299 112.2 298.25 113.75 300.2 114 300.5 114 301 119.25 300.25 121.75 302.3 122 302.5 122 303 122.5 303 123 303 123.5 303 124 303 124.5 303 125 303 125 302.5 125 302 125 301.5 125 301 125 300.5 125 300 132.15 299.35 136.8 301.4 137 301.5 137 302 137.5 302 137.75 302.25 138 302.5 138 303 149.5 303 161 303 161.5 303 162 303 162 302.5 162 302 162 301.5 162 301 177.5 301 193 301 193.5 301 194 301 200.5 301 207 301 207.5 301 208 301 208 300.5 208 300 223.3 298.3 241 299 241.5 299 242 299 242 298.5 242 298 242 297.5 242 297 242.5 297.5 243.1 297.8 243.5 298 244 298 244 297.5 244 297 244 295 244 293 244 292.5 243.75 292.3 240.6 289.55 236 292 236 291.5 235.75 291.35 228.65 286.75 222 293 221.5 293 221 293 172.2 291.9 121 295 120.5 295 120.05 294.9 116.05 293.95 114 291 113.5 291 113 290.95 109.55 290.45 102 289 102 288.5 101.8 288.35 88.45 280.05 86 261 86.5 261 87 261 87 260.5 86.8 260.1 86.5 259.5 86 259 85.5 259 85.5 258.9 81.3 240.5 80 217 81.7 216.7 81.95 215 82 214.5 82 214 82 213.5 82 213 82 212 82 211 81.5 211 81.45 210.85 79.5 206 80 199 81.7 198.2 81.5 195
L 82 195
Q 82 194.5 82 194 82 192.5 82 191 81.5 191 81 191 80.5 191 80 191.05 78.4 191.15 79 189 80.75 184.75 80.05 178 80 177.5 80 177 79.5 177 79.5 176.95 77.3 150.2 75 130 76.6 126.1 77.5 121.1 77.5 121 78 121 78 120.5 77.8 120.35 74.9 118.6 74 115 80.95 111.95 83.45 104.15 83.5 104 84 104 84 103.5 84 103 84 101 84 99 90.3 94.85 93.75 89.85 94 89.5 94 89 106.95 86.45 112.5 82 134.560546875 81.9 161.9 77.5 162 77.5 162 77 171.2 80.15 185 80.95 185.5 81 186 81 190.5 81 195 81 195.5 81 196 81 196 80.5 195.75 80.15 195 79 194 78 200.05 76 203.75 80.2 204 80.5 204 81 204.5 81 205 81 205.5 81 206 81 206 80.5 205.9 80 205.45 78.05 203 78 236.65 76.95 267 82.9 267.5 83 268 83 266.55 85 269.8 86.4 270 86.5 270 87 277.75 92.1 281.35 97.75 281.5 98 282 98 284.8 104 285.95 112 286 112.5 286 113 291.3 112.5 288.15 123.05 288 123.5 288 124 291.9 126.55 292 133 292 133.5 292 134 289.25 135.7 288.5 139
L 289 139
Q 290.05 148.45 291.5 156.9 291.5 157 292 157 288.5 181 290 210 290 210.5 290 211 290 216.5 290 222 290 222.5 290 223 291.8 233.7 295.8 242.1 296 242.5 296 243 298.95 243.55 301.1 244.8 301.5 245 302 245 302 244.5 302 244 302 239.5 302 235 302 234.5 302 234 302 229 302 224 301.5 224 301.35 223.8 299.4 220.6 300 215 300 214.5 300 214 300 198.5 300 183 299.5 183 299.35 182.8 297.25 179.25 298 173 298 172.5 298 172 298 157.5 298 143 297.5 143 297.45 142.85 295.4 136.1 296 127 296 126.5 296 126 296.2 115.3 294 107 293.5 107 293.05 106.85 291.3 106.2 292 103 291.5 103 291.4 102.8 284.45 89.05 274 79 273.5 79 273.05 79.1 269.6 79.9 270 77 269.5 77 269.05 77.1 265.6 77.9 266 75 265.5 75 265.05 74.9 260.7 73.8 258 71 257.5 71 257 71.05
M 181 76.5
L 181 76
Q 195.85 76.5 181 76.5
M 292.25 171.85
Q 292 171.5 292 171 295.35 176.7 292.25 171.85 Z" stroke="none" fill="#9B612D"></path>

<path d="M 292 171
Q 292 171.5 292.25 171.85 295.35 176.7 292 171
M 181 76
L 181 76.5
Q 195.85 76.5 181 76 Z" stroke="none" fill="#A95F23"></path>

<path d="M 248 69
Q 250.6 71.9 257 71.05 257.5 71 258 71 258 70.5 257.8 70.4 254.15 68.35 248 69 Z" stroke="none" fill="#5D6056"></path>
</g>
</g>
</g>
</g>
</g>
</svg>
