
<svg viewBox="0 0 121 194" height="194px" width="121px" y="0px" x="0px" preserveAspectRatio="none" xmlns:xlink="http://www.w3.org/1999/xlink" version="1.1" xmlns="http://www.w3.org/2000/svg">
<defs></defs>

<g id="all_of_it_2">
<g transform="matrix( 0.294769287109375, 0, 0, 0.2947540283203125, 12.65,8.35)" id="all_of_it">
<g transform="matrix( 1, 0, 0, 1, 15,22.45)" id="Layer_1">
<g transform="matrix( 0.2623291015625, 0, 0, 0.2623291015625, 82.8,299.75)" id="Layer_1">
<g transform="matrix( 3.8160247802734375, 0, 0, 3.8160247802734375, -91.65,-122.7)" id="Layer_1">
<g>
<g>
<g>
<path d="M 0 0
L 2.85 73.8 77.05 47.55 0 0 Z" stroke="none" fill="#48215F"></path>
</g>
</g>
</g>
</g>
</g>

<g transform="matrix( 0.199859619140625, 0, 0, 0.199859619140625, 1.8,311.4)" id="Layer_1">
<g transform="matrix( 5.0433502197265625, 0, 0, 5.0433502197265625, 95.7,80.55)" id="Layer_1">
<g>
<g>
<g>
<path d="M 2.45 0
L 0 25.45 37.7 40.6 2.45 0 Z" stroke="none" fill="#FFAF60"></path>
</g>
</g>
</g>
</g>
</g>

<g transform="matrix( 1.46551513671875, 0, 0, 1.46551513671875, -131.55,230.15)" id="Layer_1">
<g transform="matrix( 0.6781463623046875, 0, 0, 0.6781463623046875, 96.1,98.75)" id="Layer_1">
<g>
<g>
<g>
<path d="M 0 4.5
L 22.55 29.5 48.4 0 0 4.5 Z" stroke="none" fill="#48215F"></path>
</g>
</g>
</g>
</g>
</g>

<g transform="matrix( 1, 0, 0, 1, 7,363.85)" id="Layer_1">
<g transform="matrix( 1, 0, 0, 1, 8.45,10)" id="Layer_1">
<g>
<g>
<g>
<path d="M 0 186.1
L 54.9 186.1 54.9 0 0 186.1 Z" stroke="none" fill="#D83745"></path>
</g>
</g>
</g>
</g>
</g>

<g transform="matrix( 1, 0, 0, 1, 78.3,335.7)" id="Layer_1">
<g id="Layer_1">
<g>
<g>
<g>
<path d="M 28.3 229.6
L 206.25 0 0 26.25 28.3 229.6 Z" stroke="none" fill="#48215F"></path>
</g>
</g>
</g>
</g>
</g>

<g transform="matrix( 1, 0, 0, 1, 118.25,373.75)" id="Layer_1">
<g id="Layer_1">
<g>
<g>
<g>
<path d="M 157.05 0
L 0 191.8 157.05 201.65 157.05 0 Z" stroke="none" fill="#D83745"></path>
</g>
</g>
</g>
</g>
</g>

<g transform="matrix( 0.5649261474609375, 0, 0, 0.5649261474609375, 292.65,198.45)" id="Layer_1">
<g transform="matrix( 1.776947021484375, 0, 0, 1.776947021484375, -257.55,150.5)" id="Layer_1">
<g>
<g>
<g>
<path d="M 0 0
L 0 43.95 191.35 40 0 0 Z" stroke="none" fill="#FFAF60"></path>
</g>
</g>
</g>
</g>
</g>

<g transform="matrix( 0.333648681640625, 0, 0, 0.333648681640625, 98.25,355.75)" id="Layer_1">
<g transform="matrix( 2.99566650390625, 0, 0, 2.99566650390625, -71.4,-53.15)" id="Layer_1">
<g>
<g>
<g>
<path d="M 52.05 0
L 0 13.55 58.6 69.7 52.05 0 Z" stroke="none" fill="#FFAF60"></path>
</g>
</g>
</g>
</g>
</g>

<g transform="matrix( 1, 0, 0, 1, 132.75,8.75)" id="Layer_16">
<g>
<g>
<g>
<path d="M 25.05 2.85
L 11.45 1.65 1.6 178.35 24.55 178.75
Q 28.0017578125 91.226953125 25.05 2.85 Z" stroke="none" fill="#FFF9E0"></path>
</g>
</g>
</g>
</g>

<g transform="matrix( 1, 0, 0, 1, 132.75,8.75)" id="Layer_17">
<g>
<g>
<path d="M 5.15 41.3
L 27.4 41.95
M 4.8 59.45
L 27.95 62.1
M 2.2 85.55
L 30.75 88.7
M 0.25 137.3
L 28.95 139.4
M 3.4 111.65
L 26.05 114.2" fill="none" stroke-miterlimit="3" stroke-linecap="square" stroke-linejoin="miter" stroke-width="4" stroke="#0B042B"></path>
</g>
</g>

<g transform="matrix( 1, 0, 0, 1, 0,2.5)">
<g>
<path d="M 9.65 17.65
L 30.9 22.45" fill="none" stroke-miterlimit="3" stroke-linecap="square" stroke-linejoin="miter" stroke-width="4" stroke="#0B042B"></path>
</g>
</g>
</g>

<g transform="matrix( 1, 0, 0, 1, 150,3.3)" id="Layer_1">
<g>
<g>
<g>
<path d="M 4.9 0
L 0 194.35 102.9 173.05 4.9 0 Z" stroke="none" fill="#48215F"></path>
</g>
</g>
</g>
</g>

<g transform="matrix( 1, 0, 0, 1, 83.55,0)" id="Layer_1">
<g>
<g>
<g>
<path d="M 64.4 0
L 0 170.6 56.6 198.9 64.4 0 Z" stroke="none" fill="#D83745"></path>
</g>
</g>
</g>
</g>

<g transform="matrix( 1, 0, 0, 1, 155.15,189)" id="Layer_1">
<g>
<g>
<g>
<path d="M 64.35 0
L 30.75 5.35 0 79.15 81.15 100.85 64.35 0 Z" stroke="none" fill="#D83745"></path>
</g>
</g>
</g>
</g>

<g transform="matrix( 1, 0, 0, 1, 0,99.15)" id="Layer_1">
<g>
<g>
<g>
<path d="M 0 124.65
L 129.55 124.25 129.55 0 0 124.65 Z" stroke="none" fill="#FFAF60"></path>
</g>
</g>
</g>
</g>

<g transform="matrix( 1, 0, 0, 1, 25,223.4)" id="Layer_1">
<g>
<g>
<g>
<path d="M 120.95 84.45
L 104.55 0 0 0.3 120.95 84.45 Z" stroke="none" fill="#D83745"></path>
</g>
</g>
</g>
</g>
</g>

<g transform="matrix( 1, 0, 0, 1, 15,22.45)" id="Layer_6">
<g>
<g>
<g>
<path d="M 137.65 286.85
L 155.1 276.15 143.55 265.05 124.25 268.2 137.65 286.85
M 128.35 269.35
L 142.5 266.55 153 276.15 137.9 284.1 128.35 269.35 Z" stroke="none" fill="#0B042B"></path>
</g>
</g>
</g>
</g>

<g transform="matrix( 1, 0, 0, 1, 15,22.45)" id="eye_main">
<g>
<g>
<g>
<path d="M 108.15 219.75
L 141.1 270.3 163.3 220.5 164.95 216.25 131.8 164.7 108.15 219.75 Z" stroke="none" fill="#FFF2C9"></path>

<path d="M 129.85 123.15
L 128.85 161.45 112.15 202.15 86.05 185.2 111.2 204.4 106.1 216.9 141.45 276.05 163.3 220.5 141.1 270.3 108.15 219.75 131.8 164.7 164.95 216.25 165.9 213.85 159.15 202.45 181.2 180.95 157.9 200.3 134.25 160.3 129.85 123.15 Z" stroke="none" fill="#0B042B"></path>
</g>
</g>
</g>
</g>

<g transform="matrix( 1, 0, 0, 1, 15,22.45)" id="Layer_7">
<g>
<g>
<g>
<path d="M 141.35 265.5
L 125.85 268.9 137.95 285.55 154.2 275.95 141.35 265.5 Z" stroke="none" fill="#FFF2C9"></path>
</g>
</g>
</g>
</g>

<g transform="matrix( 1, 0, 0, 1, 15,22.45)" id="pupil">
<g>
<g>
<g>
<path d="M 143.65 223.3
L 139.7 213.95 131.45 217.95 132.8 225.05 143.65 223.3
M 135 219.15
L 137.8 217.85 139.35 221.4 135.6 222 135 219.15 Z" stroke="none" fill="#0B042B"></path>
</g>
</g>
</g>
</g>
</g>
</g>
</svg>
