
<svg viewBox="0 0 112 184" height="184px" width="112px" y="0px" x="0px" preserveAspectRatio="none" xmlns:xlink="http://www.w3.org/1999/xlink" version="1.1" xmlns="http://www.w3.org/2000/svg">
<defs></defs>

<g id="fun_scrollers">
<g transform="matrix( 0.3621063232421875, 0, 0, 0.3621063232421875, -594.2,0.1)" id="svg"></g>

<g transform="matrix( 0.3621063232421875, 0, 0, 0.3621063232421875, -594.2,0.1)" id="Layer_2">
<g>
<g>
<g>
<path d="M 1715.75 93.8
L 1715.15 93.75
Q 1715.55 98.45 1715.35 100.6 1715.2 104.1 1713.95 107.2 1709.45 108.1 1707.5 108.25
L 1707.45 108.75
Q 1709.1015625 109.108984375 1710.7 109.8 1711.365625 110.11171875 1712 110.45
L 1714.5 112
Q 1722.65 117.5 1727.2 124.55 1731.55 132.2 1733.05 141.3 1734.4 149.3 1733.6 159.15
L 1733.35 161.65
Q 1732.25 173.95 1729.15 195.7
L 1724.95 225.45
Q 1724.3 230.05 1723.4 233.85 1722.65 236.75 1722.1 239.5
L 1717.95 267.45
Q 1714.2 293.25 1710.8 324.3 1708.3 347 1705.15 381.25
L 1702.35 410.9
Q 1701.55 419.4 1700.75 423.6 1698.7 427.35 1697.75 428.45 1696.85 429.6 1693.55 432.5
L 1688.3 437.05 1686.2 440.45 1686.05 440.7
Q 1685.7220703125 440.7369140625 1685.35 440.75 1680.5240234375 441.2365234375 1671.8 441.05
L 1630.2 438.7 1630.2 445.9 1635.75 446.35
Q 1652.45 447.65 1659.05 447.9 1672.2 448.35 1682.55 447.25 1688.95 446.05 1693.65 443.1 1697.75 440.65 1702.75 435.55 1707.25 429.15 1708.3 424.1 1709.4 419 1711.4 395
L 1712.95 376.35
Q 1715.8 341.85 1718.5 317.4 1722 285.5 1726.3 258.65 1729.55 238.45 1733.4 211.05
L 1737.1 185.95
Q 1740 166.15 1740.25 156.1 1740.65 139.6 1736.35 126.7 1733.7 120.3 1731.05 116.35 1727.55 111.15 1722.85 108.25 1718.45 105.65 1716.2 103.45 1716.074609375 102.9859375 1715.95 102.6 1715.6875 101.4244140625 1715.65 100.9 1715.55 100.3 1715.6 98.3
L 1715.85 96.05 1716.1 93.85 1715.75 93.8 Z" stroke="none" fill="#706C84"></path>

<path d="M 1702.3 31.15
Q 1708.5 37.2 1708.9 42.15 1709 42.95 1709.05 43.75
L 1637.85 40.75 1637.2 37.85 1630.2 37.25 1630.2 60
Q 1631.651953125 53.0021484375 1633.35 48.1
L 1636.5 45.4
Q 1638.6 45.3 1639.4 45.3 1640.25 45.3 1642.85 45.45
L 1700.65 48.75
Q 1704.95 49.35 1708.35 51.35 1709 53.05 1709.1 54.65 1709.1 55.5 1708.9 58.1
L 1708.5 64.3
Q 1707.7 78.45 1708.95 91.95 1709.35 97.6 1708.7 101.4
L 1706.65 103.25
Q 1703.25 103.3 1698.55 103.05
L 1630.2 99 1630.2 103.6 1632.25 103.8
Q 1637.2 104.2 1647.1 104.8 1656.25 105.35 1665.35 106
L 1702.25 108.4
Q 1704.9 108.5 1705.7 108.6 1706.55 108.7 1708.95 109.2 1709.55 109.45 1710.2 109.8
L 1710.7 109.8
Q 1709.1015625 109.108984375 1707.45 108.75
L 1707.5 108.25
Q 1709.45 108.1 1713.95 107.2 1715.2 104.1 1715.35 100.6 1715.55 98.45 1715.15 93.75
L 1715.75 93.8
Q 1715.643359375 92.11640625 1715.45 90.5 1713.55 75.1 1715.55 55.05
L 1716.5 46.45
Q 1717.25 40.2 1716.55 36.1 1715.55 33.05 1713.95 30.7 1712.4 28.55 1709.75 26.3
L 1706.8 24.25
Q 1700.5 19.75 1694.15 17.35 1687.8 15.05 1679.9 14.35
L 1676.15 14.1
Q 1652.2208984375 12.288671875 1630.2 13.1
L 1630.2 18.35
Q 1663.6341796875 15.40078125 1696.2 25.7 1696.15 26.05 1702.3 31.15
M 1715.85 96.05
L 1715.6 98.3
Q 1715.55 100.3 1715.65 100.9 1715.6875 101.4244140625 1715.95 102.6
L 1715.85 100.35
Q 1715.9130859375 98.1431640625 1715.85 96.05 Z" stroke="none" fill="#7E1A34"></path>

<path d="M 1640.8 389.55
Q 1635.4662109375 389.046875 1630.2 388.6
L 1630.2 408
Q 1639.1044921875 408.3060546875 1646.55 408.7 1667.65 409.6 1678.25 409.95
L 1681.7 410.05
Q 1686.5 410.25 1692.65 410.25
L 1693.7 409.35
Q 1695.05 404.85 1695.4 401.75 1695.85 397.75 1695.05 394.05 1691.9 392.35 1690.15 392.05 1688.45 391.8 1681.2 391.75
L 1665.15 391.2
Q 1655.6 391 1640.8 389.55
M 1704.7 243.45
Q 1704.45 236.8 1702.7 232.7
L 1700.55 232.1 1691.55 231.75
Q 1682.3 231.3 1675.4 231.45 1663.8 231.7 1648.05 230.8
L 1639.45 230.4
Q 1638.659765625 230.3392578125 1630.2 229.75
L 1630.2 250.5
Q 1632.42890625 250.569140625 1634.5 250.6 1639.6 250.6 1650.05 250.9 1664.65 251.4 1667.6 251.4
L 1675.6 251.55
Q 1679.6 251.55 1683.6 251.8
L 1684.45 253.8
Q 1695.35 255.95 1703.6 254.9
L 1705.15 252.6
Q 1705.25 250.35 1705.3 249.5 1705.35 248.75 1705.15 246.45
L 1704.7 243.45 Z" stroke="none" fill="#9DAEEA"></path>

<path d="M 1630.2 153.15
L 1630.2 169.8
Q 1635.2630859375 170.9421875 1640.5 173.05 1648.8 176.7 1653.35 176.75 1657.85 176.85 1676.55 173.75
L 1690.5 171.5
Q 1700.2 169.95 1708.7 170.05 1711.1 170.2 1711.8 170.2 1712.45 170.1 1714.2 169.85
L 1714.65 165.05 1716.55 165.15 1717.25 159.45 1717.05 159.45 1711.3 159.1
Q 1711.1990234375 159.1 1711.1 159.1 1708.520703125 159.1482421875 1707.75 159.1 1707 159.05 1704.9 158.8
L 1696.3 157.65
Q 1688.65 156.8 1681.95 156.35
L 1679.2 156.15
Q 1665.45 155.25 1651.65 154.5
L 1630.2 153.15 Z" stroke="none" fill="#992A3F"></path>

<path d="M 1646.65 152.2
Q 1649.25 152.3 1651.9 152.5 1654.5 152.65 1657.1 152.8 1659.95 153 1662.85 153.4 1664.55 153.5 1666.25 153.65 1666.95 153.65 1667.75 153.75 1668.35 153.8 1669 153.85 1670.15 153.85 1671.25 153.9 1672.8 154 1674.4 154.1 1675.85 154.1 1677.3 154.2 1678.65 154.2 1680.05 154.3 1681.3 154.3 1682.6 154.35 1683.75 154.4 1684.9 154.45 1685.95 154.45 1687 154.5 1687.95 154.5 1688.9 154.55 1689.75 154.5 1690.55 154.5 1695.85 154.55 1701.2 154.65 1702.45 154.7 1703.75 154.75 1704.95 154.8 1706.2 154.85 1707.4 154.9 1708.55 155 1709.6 155.05 1710.7 155.2 1711.15 155.25 1711.65 155.35
L 1711.3 159.1 1717.05 159.45 1719.35 133.5
Q 1718.5 132.5 1717.5 131.65 1716.95 131.25 1716.25 131 1715.5 130.7 1714.7 130.45 1713.9 130.2 1713.1 130 1712.15 129.75 1711.3 129.6 1710.45 129.4 1709.6 129.3 1708.55 129.1 1707.6 128.95 1706.6 128.8 1705.6 128.7 1704.55 128.55 1703.5 128.45
L 1630.2 123.7 1630.2 151.55 1635.75 151.85
Q 1641.2 152 1646.65 152.2 Z" stroke="none" fill="#110F1A"></path>

<path d="M 1651.9 152.5
Q 1649.25 152.3 1646.65 152.2 1641.2 152 1635.75 151.85
L 1630.2 151.55 1630.2 153.15 1651.65 154.5
Q 1665.45 155.25 1679.2 156.15
L 1681.95 156.35
Q 1688.65 156.8 1696.3 157.65
L 1704.9 158.8
Q 1707 159.05 1707.75 159.1 1708.520703125 159.1482421875 1711.1 159.1 1711.1990234375 159.1 1711.3 159.1
L 1711.65 155.35
Q 1711.15 155.25 1710.7 155.2 1709.6 155.05 1708.55 155 1707.4 154.9 1706.2 154.85 1704.95 154.8 1703.75 154.75 1702.45 154.7 1701.2 154.65 1695.85 154.55 1690.55 154.5 1689.75 154.5 1688.9 154.55 1687.95 154.5 1687 154.5 1685.95 154.45 1684.9 154.45 1683.75 154.4 1682.6 154.35 1681.3 154.3 1680.05 154.3 1678.65 154.2 1677.3 154.2 1675.85 154.1 1674.4 154.1 1672.8 154 1671.25 153.9 1670.15 153.85 1669 153.85 1668.35 153.8 1667.75 153.75 1666.95 153.65 1666.25 153.65 1664.55 153.5 1662.85 153.4 1659.95 153 1657.1 152.8 1654.5 152.65 1651.9 152.5
M 1630.2 103.6
L 1630.2 123.7 1703.5 128.45
Q 1704.55 128.55 1705.6 128.7 1706.6 128.8 1707.6 128.95 1708.55 129.1 1709.6 129.3 1710.45 129.4 1711.3 129.6 1712.15 129.75 1713.1 130 1713.9 130.2 1714.7 130.45 1715.5 130.7 1716.25 131 1716.95 131.25 1717.5 131.65 1718.5 132.5 1719.35 133.5
L 1717.05 159.45 1717.25 159.45 1716.55 165.15 1714.65 165.05 1714.2 169.85
Q 1712.45 170.1 1711.8 170.2 1711.1 170.2 1708.7 170.05 1700.2 169.95 1690.5 171.5
L 1676.55 173.75
Q 1657.85 176.85 1653.35 176.75 1648.8 176.7 1640.5 173.05 1635.2630859375 170.9421875 1630.2 169.8
L 1630.2 229.75
Q 1638.659765625 230.3392578125 1639.45 230.4
L 1648.05 230.8
Q 1663.8 231.7 1675.4 231.45 1682.3 231.3 1691.55 231.75
L 1700.55 232.1 1702.7 232.7
Q 1704.45 236.8 1704.7 243.45
L 1705.15 246.45
Q 1705.35 248.75 1705.3 249.5 1705.25 250.35 1705.15 252.6
L 1703.6 254.9
Q 1695.35 255.95 1684.45 253.8
L 1683.6 251.8
Q 1679.6 251.55 1675.6 251.55
L 1667.6 251.4
Q 1664.65 251.4 1650.05 250.9 1639.6 250.6 1634.5 250.6 1632.42890625 250.569140625 1630.2 250.5
L 1630.2 388.6
Q 1635.4662109375 389.046875 1640.8 389.55 1655.6 391 1665.15 391.2
L 1681.2 391.75
Q 1688.45 391.8 1690.15 392.05 1691.9 392.35 1695.05 394.05 1695.85 397.75 1695.4 401.75 1695.05 404.85 1693.7 409.35
L 1692.65 410.25
Q 1686.5 410.25 1681.7 410.05
L 1678.25 409.95
Q 1667.65 409.6 1646.55 408.7 1639.1044921875 408.3060546875 1630.2 408
L 1630.2 438.7 1671.8 441.05
Q 1680.5240234375 441.2365234375 1685.35 440.75 1685.8029296875 440.6162109375 1686.2 440.45
L 1688.3 437.05 1693.55 432.5
Q 1696.85 429.6 1697.75 428.45 1698.7 427.35 1700.75 423.6 1701.55 419.4 1702.35 410.9
L 1705.15 381.25
Q 1708.3 347 1710.8 324.3 1714.2 293.25 1717.95 267.45
L 1722.1 239.5
Q 1722.65 236.75 1723.4 233.85 1724.3 230.05 1724.95 225.45
L 1729.15 195.7
Q 1732.25 173.95 1733.35 161.65
L 1733.6 159.15
Q 1734.4 149.3 1733.05 141.3 1731.55 132.2 1727.2 124.55 1722.65 117.5 1714.5 112
L 1712 110.45
Q 1711.365625 110.11171875 1710.7 109.8
L 1710.2 109.8
Q 1709.55 109.45 1708.95 109.2 1706.55 108.7 1705.7 108.6 1704.9 108.5 1702.25 108.4
L 1665.35 106
Q 1656.25 105.35 1647.1 104.8 1637.2 104.2 1632.25 103.8
L 1630.2 103.6
M 1664.15 187
Q 1665.15 185.15 1667.65 182.6
L 1669.6 180.5
Q 1674.4 176.7 1680.2 175.65 1684 174.95 1691.8 175.2
L 1695.1 175.3
Q 1700.3 175.6 1703.9 176.9 1705.9 178.8 1707.1 180.95 1708.15 182.85 1708.85 185.85 1709.25 190.4 1708.45 196.75
L 1708.2 199.55
Q 1707.75 203.65 1707.05 205.5 1706.2 207.8 1703.8 210.55
L 1702.45 214.35
Q 1697.7 216.25 1690.9 216.6 1687.7 216.75 1679.15 216.45
L 1676.5 216.4
Q 1673.1 216.2 1671.15 215.6 1668.8 214.9 1666.4 213.1 1663.65 209.65 1663 208.7 1662.5 207.7 1661.75 205.35 1661.65 202.3 1661.7 201.25 1661.75 200.2 1662.05 196.8
L 1662.4 192.25
Q 1663.05 188.95 1664.15 187 Z" stroke="none" fill="#F5F7F9"></path>

<path d="M 1667.65 182.6
Q 1665.15 185.15 1664.15 187 1663.05 188.95 1662.4 192.25
L 1662.05 196.8
Q 1661.75 200.2 1661.7 201.25 1661.65 202.3 1661.75 205.35 1662.5 207.7 1663 208.7 1663.65 209.65 1666.4 213.1 1668.8 214.9 1671.15 215.6 1673.1 216.2 1676.5 216.4
L 1679.15 216.45
Q 1687.7 216.75 1690.9 216.6 1697.7 216.25 1702.45 214.35
L 1703.8 210.55
Q 1706.2 207.8 1707.05 205.5 1707.75 203.65 1708.2 199.55
L 1708.45 196.75
Q 1709.25 190.4 1708.85 185.85 1708.15 182.85 1707.1 180.95 1705.9 178.8 1703.9 176.9 1700.3 175.6 1695.1 175.3
L 1691.8 175.2
Q 1684 174.95 1680.2 175.65 1674.4 176.7 1669.6 180.5
L 1667.65 182.6
M 1667.5 195.1
Q 1670.15 190.45 1671.35 189.1 1672.55 187.9 1677 184.6 1679.75 182.85 1682.1 182.25 1684.45 181.6 1687.75 181.6
L 1691.6 181.85
Q 1695.1 182.05 1698.6 182.4 1699.5 183.45 1699.9 184.05 1700.25 184.7 1701.55 187.35 1703.1 190.8 1703.3 194 1703.5 196.6 1702.7 200.9
L 1701.65 201.8
Q 1700.4 204.3 1699.8 205.1 1699.25 205.9 1697.2 208.3 1692.05 210.5 1686.15 210.8 1681.1 211.05 1674.85 209.9 1671.75 208.65 1671 208 1670.2 207.35 1668.55 204.8 1667.05 200.2 1667.5 195.1 Z" stroke="none" fill="#5D5A76"></path>

<path d="M 1671.35 189.1
Q 1670.15 190.45 1667.5 195.1 1667.05 200.2 1668.55 204.8 1670.2 207.35 1671 208 1671.75 208.65 1674.85 209.9 1681.1 211.05 1686.15 210.8 1692.05 210.5 1697.2 208.3 1699.25 205.9 1699.8 205.1 1700.4 204.3 1701.65 201.8
L 1702.7 200.9
Q 1703.5 196.6 1703.3 194 1703.1 190.8 1701.55 187.35 1700.25 184.7 1699.9 184.05 1699.5 183.45 1698.6 182.4 1695.1 182.05 1691.6 181.85
L 1687.75 181.6
Q 1684.45 181.6 1682.1 182.25 1679.75 182.85 1677 184.6 1672.55 187.9 1671.35 189.1 Z" stroke="none" fill="#F1F3F7"></path>

<path d="M 1709.1 54.65
Q 1709 53.05 1708.35 51.35 1704.95 49.35 1700.65 48.75
L 1642.85 45.45
Q 1640.25 45.3 1639.4 45.3 1638.6 45.3 1636.5 45.4
L 1633.35 48.1
Q 1631.651953125 53.0021484375 1630.2 60
L 1630.2 99 1698.55 103.05
Q 1703.25 103.3 1706.65 103.25
L 1708.7 101.4
Q 1709.35 97.6 1708.95 91.95 1707.7 78.45 1708.5 64.3
L 1708.9 58.1
Q 1709.1 55.5 1709.1 54.65 Z" stroke="none" fill="#E21F2D"></path>

<path d="M 1708.9 42.15
Q 1708.5 37.2 1702.3 31.15 1696.15 26.05 1696.2 25.7 1663.6341796875 15.40078125 1630.2 18.35
L 1630.2 37.25 1637.2 37.85 1637.85 40.75 1709.05 43.75
Q 1709 42.95 1708.9 42.15 Z" stroke="none" fill="#DF202E"></path>
</g>
</g>
</g>
</g>

<g transform="matrix( 0.3621063232421875, 0, 0, 0.3621063232421875, -594.2,0.1)" id="Layer_3">
<g>
<g>
<g>
<path d="M 1669.5 441.9
L 1662.9 441.8
Q 1660.9 444.7 1657.8 447.8 1655.8 449.75 1651.9 453.1
L 1630.2 471.95 1630.2 485 1642.4 474.05
Q 1650 467.2 1655.7 462.35 1663.95 455.3 1664.15 455.1 1667.2 452.35 1668.35 450.45 1670.75 446.35 1669.5 441.9
M 1630.85 290.3
Q 1630.475 289.975 1630.2 289.7
L 1630.2 308.6
Q 1633.2396484375 308.4734375 1635.85 308.35 1661.1 307.1 1681.35 306.7 1683.85 306.65 1685.2 306.8 1687.3 307.05 1688.8 307.8 1691.5 309.15 1693.15 312.55 1694.35 315 1695.2 319.1 1695.75 321.8 1696.25 324.5 1694.35 324.55 1692.9 325.1 1691.85 325.5 1688.95 327.3 1683 330.85 1674.4 331.9 1668.9 332.6 1658.75 332.4
L 1647.35 332.25
Q 1640.15 332.15 1636.25 331.45 1632.8916015625 330.8443359375 1630.2 329.65
L 1630.2 378.4
Q 1631.0783203125 379.098828125 1631.85 379.65 1637.25 383.55 1647.1 388.45 1652.8 391.2 1656.8 392.7 1662.15 394.75 1666.9 395.6 1672.35 396.6 1677.45 396.05 1683 395.45 1687.45 393.05 1688.8 392.3 1689.75 391.8 1687.45 396.55 1684.55 400.85 1678.7 409.5 1672.2 412.7 1667 415.3 1659.75 415.35 1654.95 415.35 1646.7 414.05 1641.7 413.25 1637.45 412.4 1636.95 412.05 1636.1 411.65 1633.55 410.45 1630.9 408.2 1630.55234375 407.920703125 1630.2 407.6
L 1630.2 420.8
Q 1644.0109375 425.01796875 1645.4 425.4 1661.2 429.9 1673 431.65 1688.15 433.9 1701 432.45
L 1701 426.2
Q 1686.8 426.35 1668.25 422.4 1678.15 421.1 1684.3 416.05 1688 413 1691.75 407.15 1700.7 393.15 1703.7 376.45 1704.8 370.3 1705.15 362.7 1705.4 357.35 1705.35 348.85 1705.3 340.45 1704.95 334
L 1713.55 334.1
Q 1715.35 334.1 1716.15 333.8 1716.7 333.55 1717.65 332.95 1718.4 332.6 1718.75 332.35 1720.5 331.2 1720.3 328.05 1720.15 326.45 1720.1 325.65 1720 324.2 1720.2 323.25
L 1713.35 323.1
Q 1713.25 324.45 1712.05 325.25
L 1711 325.75 1709.85 326.55
Q 1708.9 327.2 1707 327.15 1705.25 327.1 1704.45 327.2 1703.5 318.05 1701.65 310.45 1700.8 307.15 1699.8 305.2 1698.45 302.5 1696.3 301.2 1693.9 299.75 1688.4 299.75 1665.05 299.75 1636.2 301.05
L 1636.2 297.5
Q 1636.2 296 1635.7 295.45
L 1635.7 295.2
Q 1635.7 294.75 1635.6 294.55 1635.45 294.3 1634.7 294 1634.05 293.8 1634.05 293.3 1632.4 293.25 1631.5 291.5 1630.95 290.45 1630.85 290.3
M 1635.4 257.7
Q 1632.8478515625 257.127734375 1630.2 256.65
L 1630.2 279.25
Q 1630.4947265625 278.837890625 1630.8 278.4
L 1633.25 274.85
Q 1634.5 273.15 1634.9 272.1 1635.6 270.35 1635.5 266.9
L 1635.4 257.7
M 1688.6 271.05
Q 1686.75 270 1685.65 269.6 1683.65 268.9 1679.3 268.9
L 1674.35 268.9
Q 1673.9 268.9 1673.75 269.05 1673.55 269.25 1673.55 269.7 1673.45 273.55 1673.65 275.5 1673.85 277.2 1674.25 279.05
L 1675.35 279.5
Q 1675.2 280.2 1675.9 280.55 1676.4 280.8 1677.15 280.8
L 1691.5 280.95
Q 1691.75 276.75 1691.5 272.55 1690.6 272.2 1688.6 271.05
M 1705.8 207.35
Q 1709.35 206.1 1711.45 206 1712.9 205.9 1713.35 205.4 1713.65 205 1713.65 204
L 1713.6 198.9
Q 1707.2 197.9 1697.75 200.95 1692.95 202.6 1685.6 205.6 1675.2 209.8 1670.1 212.1 1661.6 215.9 1655.2 219.75 1647.35 224.4 1643.6 229.05 1642.1 230.8 1641.65 232.5 1641.3 233.65 1641.4 235.6 1641.45 238.15 1641.4 238.8 1642.35 238.55 1644.85 238.85 1647 239.15 1648.1 238.6 1648.85 238.2 1650 236.6 1654.4 230.8 1663.3 225.65 1667.75 223.05 1673.65 220.4 1676.8 218.95 1684.3 215.8 1698.95 209.7 1705.8 207.35 Z" stroke="none" fill="#000000"></path>

<path d="M 1631.85 379.65
Q 1631.0783203125 379.098828125 1630.2 378.4
L 1630.2 407.6
Q 1630.55234375 407.920703125 1630.9 408.2 1633.55 410.45 1636.1 411.65 1636.95 412.05 1637.45 412.4 1641.7 413.25 1646.7 414.05 1654.95 415.35 1659.75 415.35 1667 415.3 1672.2 412.7 1678.7 409.5 1684.55 400.85 1687.45 396.55 1689.75 391.8 1688.8 392.3 1687.45 393.05 1683 395.45 1677.45 396.05 1672.35 396.6 1666.9 395.6 1662.15 394.75 1656.8 392.7 1652.8 391.2 1647.1 388.45 1637.25 383.55 1631.85 379.65
M 1695.2 319.1
Q 1694.35 315 1693.15 312.55 1691.5 309.15 1688.8 307.8 1687.3 307.05 1685.2 306.8 1683.85 306.65 1681.35 306.7 1661.1 307.1 1635.85 308.35 1633.2396484375 308.4734375 1630.2 308.6
L 1630.2 329.65
Q 1632.8916015625 330.8443359375 1636.25 331.45 1640.15 332.15 1647.35 332.25
L 1658.75 332.4
Q 1668.9 332.6 1674.4 331.9 1683 330.85 1688.95 327.3 1691.85 325.5 1692.9 325.1 1694.35 324.55 1696.25 324.5 1695.75 321.8 1695.2 319.1 Z" stroke="none" fill="#FFFFFF"></path>
</g>
</g>
</g>
</g>

<g transform="matrix( 0.3621063232421875, 0, 0, 0.3621063232421875, -594.2,0.1)" id="Layer_6">
<g>
<g>
<g>
<path d="M 1936.95 482.7
Q 1935.2044921875 482.663671875 1934.25 483.3 1933.5 483.85 1932.7 485.25 1931.45 487.6 1930.9 489.25 1930.05 492.15 1930.25 497.1 1930.5 503.25 1930.3 505.1
L 1936.95 505.15 1936.95 482.7
M 1890.5 413.8
L 1889.85 413.8
Q 1889.95 417 1888.5 422.45
L 1885.8 432.95
Q 1884.9 436.45 1884.3 438.2 1883.65 439.9 1882.15 443.2 1880.25 447.7 1879.25 452.55
L 1872.2 452.85 1872.05 459.9
Q 1872.05 462 1872.25 463.1 1872.55 464.8 1873.5 465.8 1875.25 467.7 1878.9 467.4 1879.9 467.35 1881.85 467.15 1883.55 467 1884.75 467.2 1884.55 463.65 1885.15 461.8 1885.3 461.2 1885.75 460.15 1886.2 459.1 1886.35 458.55
L 1886.8 456.15
Q 1887.1 454.6 1887.9 452.65 1888.9 450.45 1889.35 449.3 1891.1 445.3 1892.6 440 1893.3529296875 437.4068359375 1894.55 432.4 1892.4994140625 429.3982421875 1891.35 425.95 1890.4044921875 421.4029296875 1890.5 413.8 Z" stroke="none" fill="#000000"></path>

<path d="M 1936.95 96.1
L 1936.35 96.1
Q 1927.2 99.95 1921.8 103.05 1914.1 107.45 1909.15 112.9 1905 118.5 1903 125.8 1901.35 131.85 1901 140
L 1899.25 188.95
Q 1898.95 200.25 1898.1 222.7
L 1897.45 241
Q 1896.85 257.6 1896.7 260.45 1896.25 271.45 1895.6 279.8 1894.75 289.6 1894.55 302.4 1894.05 326.35 1893.15 344.65 1891.7 374.35 1891.15 392.7
L 1890.55 412.1
Q 1890.5251953125 412.9763671875 1890.5 413.8 1890.4044921875 421.4029296875 1891.35 425.95 1892.4994140625 429.3982421875 1894.55 432.4 1896.6236328125 435.4736328125 1899.6 438.1 1903.1 440.05 1907.4 441.05 1910.8 441.9 1915.65 442.35
L 1936.95 443.3 1936.95 437.1
Q 1933.187109375 437.0140625 1930.45 436.9 1917.95 436.4 1909.2 434.3 1906.15 433.3 1904.55 432.05 1903 430.9 1901 428.2 1898.85 423.75 1897.95 420.35 1897 416.55 1897.1 412
L 1898.4 373.7
Q 1898.8 365.55 1898.85 361.5
L 1901.8 288.45
Q 1904 231.5 1905.15 209.7 1906.1 192.2 1906.55 179.6
L 1907.8 143.05
Q 1908 136.95 1908.25 134.45 1908.7 129.85 1910.05 126.1
L 1911.65 123.4
Q 1920.2 114 1923.55 111.5 1926.64453125 109.190625 1936.95 104.4
L 1936.95 96.1 Z" stroke="none" fill="#706C84"></path>

<path d="M 1936.95 386.05
L 1935.6 386
Q 1929.15 385.5 1927.3 385.55 1922.85 385.6 1919.4 387.3 1917.85 390.3 1917.55 391.3 1917.15 392.4 1916.55 395.9 1916.85 399.45 1917.1 400.55 1917.45 401.65 1918.95 404.6 1922.6 406.55 1925.35 406.9 1927.63203125 407.111328125 1936.95 407.05
L 1936.95 386.05
M 1936.95 227.85
Q 1931.116015625 227.6970703125 1931 227.9 1928.45 239.4 1931.6 247.05 1935.0265625 249.06015625 1936.95 249.5
L 1936.95 227.85 Z" stroke="none" fill="#9DAEEA"></path>

<path d="M 1927 159.15
L 1931.9 160.55
Q 1934.660546875 161.9408203125 1936.95 163
L 1936.95 151.4 1931.7 151.25
Q 1927.4 151.05 1923.45 151.7 1922.8 153.8 1922.8 154.55 1922.75 155.25 1923.3 157.45
L 1927 159.15 Z" stroke="none" fill="#992A3F"></path>

<path d="M 1928.05 122.9
L 1927.1 122.9 1926.1 123.8 1926.1 123.8
Q 1926.0744140625 123.8369140625 1926.05 123.85 1925.75 125.2 1925.4 126.55 1924.75 129.3 1924.35 132.05 1924.1 133.4 1924.05 134.75 1923.9 136.2 1923.9 137.65 1923.85 139.05 1923.95 140.5 1924 141.95 1924.1 143.45 1924.2 144.85 1924.5 146.25 1924.6 146.7 1924.75 147.1 1924.85 147.3 1925 147.7 1925.1 147.85 1925.2 148.05 1925.25 148.1 1925.3 148.15 1925.35 148.25 1925.5 148.35 1925.65 148.45 1925.8 148.55 1926.05 148.65 1926.3 148.8 1926.5 148.95 1926.8 149 1927.55 149.45 1928.35 149.7
L 1936.95 149.9 1936.95 122
Q 1936.728125 122 1936.5 122 1936 122 1935.45 122 1934.95 121.95 1934.5 121.95 1934.1 121.95 1933.75 121.95 1933.45 121.9 1933.15 121.9 1932.9 121.9 1932.7 121.9 1932.5 121.9 1932.35 121.9 1931.5 122.05 1930.7 122.15 1929.85 122.3 1929.05 122.5 1928.547265625 122.701171875 1928.05 122.9 Z" stroke="none" fill="#110F1A"></path>

<path d="M 1927.1 122.9
L 1928.05 122.9
Q 1928.547265625 122.701171875 1929.05 122.5 1929.85 122.3 1930.7 122.15 1931.5 122.05 1932.35 121.9 1932.5 121.9 1932.7 121.9 1932.9 121.9 1933.15 121.9 1933.45 121.9 1933.75 121.95 1934.1 121.95 1934.5 121.95 1934.95 121.95 1935.45 122 1936 122 1936.5 122 1936.728125 122 1936.95 122
L 1936.95 104.4
Q 1926.64453125 109.190625 1923.55 111.5 1920.2 114 1911.65 123.4
L 1910.05 126.1
Q 1908.7 129.85 1908.25 134.45 1908 136.95 1907.8 143.05
L 1906.55 179.6
Q 1906.1 192.2 1905.15 209.7 1904 231.5 1901.8 288.45
L 1898.85 361.5
Q 1898.8 365.55 1898.4 373.7
L 1897.1 412
Q 1897 416.55 1897.95 420.35 1898.85 423.75 1901 428.2 1903 430.9 1904.55 432.05 1906.15 433.3 1909.2 434.3 1917.95 436.4 1930.45 436.9 1933.187109375 437.0140625 1936.95 437.1
L 1936.95 407.05
Q 1927.63203125 407.111328125 1925.35 406.9 1922.6 406.55 1918.95 404.6 1917.45 401.65 1917.1 400.55 1916.85 399.45 1916.55 395.9 1917.15 392.4 1917.55 391.3 1917.85 390.3 1919.4 387.3 1922.85 385.6 1927.3 385.55 1929.15 385.5 1935.6 386
L 1936.95 386.05 1936.95 249.5
Q 1935.0265625 249.06015625 1931.6 247.05 1928.45 239.4 1931 227.9 1931.116015625 227.6970703125 1936.95 227.85
L 1936.95 163
Q 1934.660546875 161.9408203125 1931.9 160.55
L 1927 159.15 1923.3 157.45
Q 1922.75 155.25 1922.8 154.55 1922.8 153.8 1923.45 151.7 1927.4 151.05 1931.7 151.25
L 1936.95 151.4 1936.95 149.9 1928.35 149.7
Q 1927.55 149.45 1926.8 149 1926.5 148.95 1926.3 148.8 1926.05 148.65 1925.8 148.55 1925.65 148.45 1925.5 148.35 1925.35 148.25 1925.3 148.15 1925.25 148.1 1925.2 148.05 1925.1 147.85 1925 147.7 1924.85 147.3 1924.75 147.1 1924.6 146.7 1924.5 146.25 1924.2 144.85 1924.1 143.45 1924 141.95 1923.95 140.5 1923.85 139.05 1923.9 137.65 1923.9 136.2 1924.05 134.75 1924.1 133.4 1924.35 132.05 1924.75 129.3 1925.4 126.55 1925.75 125.2 1926.05 123.85 1926.0744140625 123.8369140625 1926.1 123.8
L 1926.1 123.8 1927.1 122.9 Z" stroke="none" fill="#F5F7F9"></path>

<path d="M 1936.95 19.05
L 1936.95 12.85
Q 1933.5294921875 13.191796875 1931.05 13.55 1924.4 14.45 1919.2 16.15 1918.35 17.75 1918.2 18.85 1918 19.95 1917.9 24.9
L 1917.8 27.6
Q 1917.75 29.6 1917.55 33.55 1917.55 36.95 1918.6 39.2 1921.4 40.75 1922.3 41.05 1923.15 41.3 1925.2 41.65
L 1936.95 42.25 1936.95 35.3 1924.45 34.65
Q 1921.95 28.45 1923.85 22.1 1930.40078125 20.3173828125 1936.95 19.05 Z" stroke="none" fill="#7E1A34"></path>

<path d="M 1936.95 19.05
Q 1930.40078125 20.3173828125 1923.85 22.1 1921.95 28.45 1924.45 34.65
L 1936.95 35.3 1936.95 19.05 Z" stroke="none" fill="#DF202E"></path>
</g>
</g>
</g>
</g>

<g transform="matrix( 0.3621063232421875, 0, 0, 0.3621063232421875, -594.2,0.1)" id="MergedLayer_1">
<g>
<g>
<g>
<path d="M 1912.3 286
L 1905.1 285.9
Q 1905.55 295.4 1907.1 304.25 1907.4 305.95 1908 306.8 1908.9 307.95 1911.8 308.35 1924.5701171875 310.075390625 1936.95 311.8
L 1936.95 303.95 1917.5 301.15
Q 1915.55 300.8 1914.95 300.15 1914.45 299.55 1914.15 298
L 1912.3 286
M 1906.65 263.6
L 1906.65 270.4
Q 1907.4 270.45 1919.2 270.5 1925.8 270.55 1930.3 271.35
L 1930.3 275.15
Q 1933.5962890625 277.6505859375 1936.95 279.45
L 1936.95 264.45
Q 1931.2541015625 263.359375 1922.15 263.55 1909.85 263.8 1906.65 263.6 Z" stroke="none" fill="#000000"></path>
</g>
</g>
</g>
</g>
</g>
</svg>
