
<svg viewBox="0 0 145 107" height="107px" width="145px" y="0px" x="0px" preserveAspectRatio="none" xmlns:xlink="http://www.w3.org/1999/xlink" version="1.1" xmlns="http://www.w3.org/2000/svg">
<defs></defs>

<g id="Layer_1"></g>

<g id="Layer_2">
<g transform="matrix( 1, 0, 0, 1, 8,14.05)" id="Layer_1">
<g>
<g>
<g>
<path d="M 37.55 -4.45
Q 32.97421875 -5.75 28.1 -5.75 20.65 -5.05 13.55 -2.35 7.38984375 -0.005859375 2.2 3.75 -2.1384765625 6.88359375 -5.8 11 -6.95 12.35 -7.45 13.95 -8.4 16.85 -7.65 19.9 -4.8 31.3 5.3 37.35 6.122265625 37.828515625 6.8 38 2.546484375 43.9421875 -0.4 50.8 -3.95 59.15 -2.5 67.45 1.8 68.4 6.25 69.1 12.1 70 17.2 71.35 13.7 73.35 10.25 75.35 9.15 75.95 8.6 76.95 8.6 77.15 8.6 77.3 8.55 77.45 8.55 77.6 8.55 77.75 8.6 77.9 8.6 78.05 8.65 78.2 8.65 78.35 8.7 78.55 10.85 81 13.85 82.65 29.9109375 91.4859375 47.75 87.35 50.04375 88.3822265625 52.7 88.9 53.2509765625 89.0048828125 53.8 89.1 72.0146484375 92.25859375 88.5 84.85 88.81875 85.017578125 89.15 85.15 93.1333984375 87.080859375 98.05 87.15 117.3 87.4 126 72.4 125.95 72.3 125.95 72.15 125.9 71.9 125.75 71.65 125.75 71.55 125.7 71.4 125.55 71.15 125.35 70.9 125.2 70.8 125.05 70.65 122.2 69.6 119.2 68.7 117.4 68.15 115.55 67.65 119.25 66.1 123.6 65.35 127.7 64.65 131.3 63.2 132.2 56.1 129.75 49 127.4685546875 42.2453125 123.65 36.1 128.3736328125 33.2494140625 131.7 28.8 134.85 24.55 136.4 19.5 136.6 19.2 136.75 18.9 137.2 18.15 137.2 17.3 137.2 16.6 136.95 15.9 136.85 15.45 136.45 15.1 136.3 15 136.2 14.9 131.45 8.95 126 3.55 117.15 -5.2 104.45 -3.9 98.3 -3.9 92.85 -0.65 91.84453125 -0.05703125 91 0.7 85.3140625 -5.8166015625 76.4 -6.2 74.5 -7.5 72.5 -8.65 66.5 -12.15 59.5 -12.25 53.55 -12.25 47.9 -10.2 42.1208984375 -8.15390625 37.55 -4.45
M 29.6 -1.55
Q 31.8453125 -1.55 33.95 -1 33.208203125 -0.1009765625 32.9 1 32.3154296875 3.2083984375 33.7 3.75 34.50078125 4.0427734375 35.85 3.85 35.8 3.95 35.75 4 29.75 10.15 30.75 18.5 30.954296875 20.1640625 31.7 21.55 30.6923828125 21.51796875 29.65 21.55 29.4615234375 21.3271484375 29.2 21.05 21.4 12.8 9.55 13.2 6.45 13.2 3.25 13.65 1.5 13.95 0.8 15.45 0.7 16.65 0.8 17.85 1.35 27.1 9.7 31.65 10.4994140625 32.09765625 11.3 32.4 10.1212890625 33.7359375 9 35.1 4.6646484375 32.5744140625 1.4 28.6 -2.45 23.85 -3.85 18 -3.85 17.9 -3.85 17.8 -3.85 17.3 -3.85 16.8 -3.9 16.5 -3.9 16.2 -3.9 16.1 -3.95 16 -3.95 15.9 -3.95 15.8 -4 15.6 -4 15.4 0.5 10.25 5.95 6.2 7.755078125 4.858984375 9.65 3.75 18.7107421875 -1.59140625 29.6 -1.55
M 46.45 -1
Q 44.40078125 -2.3533203125 41.85 -2.05 41.8103515625 -2.3091796875 41.65 -2.55 46.509375 -5.615234375 52.1 -7.2 61.5783203125 -9.837109375 69.5 -5.8 71.9908203125 -4.5349609375 74.3 -2.65 74.85 -2.2 75.3 -1.8 75.6470703125 -1.4642578125 75.95 -1.15 78.6060546875 1.5484375 80.6 4.65 81.9 6.75 83.9 5.7 84.75 5.25 84.55 4.3 83.9 1.3 81.65 -1.2 83.9 -0.5 85.95 0.8 87.5 1.9 88.55 3.5 89 4.85 89.5 6.15 90.1 7.9 89.55 9.55 89 11.2 88.4 12.75 87.5 14.05 86.25 15.05 84.95 16.1 85.6 17.55 86.6 19.8 88.55 18.15 95.2392578125 12.38828125 92.9 4.2 93.3779296875 3.9205078125 93.9 3.5 97.75 0.4 102.75 -0.1 109.85 -0.8 116.3 1.9 121.5 4.05 125.4 8.2 129.6 12.6 132.85 17.55 132.05 19.85 130.95 22.1 129.45 25.2 127.05 27.75 126.25 28.65 125.65 29.75 123.6787109375 31.4921875 121.35 32.75 120.6326171875 31.8140625 119.8 30.9 124.81171875 27.6369140625 127.8 22.35 129.55 19.25 127.65 16.3 126.25 15.05 124.7 14 120.45 11.1 115.3 11.5 110.75 12.25 106.35 14.05 99.7662109375 16.824609375 95.9 22.6 94.7056640625 22.7779296875 93.45 22.9 91.65 23.05 90.7 24.35 90.6 24.5 90.55 24.6 90.55 24.75 90.55 24.85 90.5 25 90.5 25.1 90.45 25.25 90.5 25.35 90.5 25.6 90.55 25.85 90.6 26 90.7 26.1 90.75 26.25 90.85 26.35 90.95 26.5 91.1 26.6 91.25 26.75 91.4 26.85 91.6 27 91.85 27.1 95.1310546875 27.057421875 98.45 26.55 99.0236328125 26.453515625 99.6 26.35 103.15 25.65 106.4 27.1 116.55 31.65 121.6 41 126.4 49.95 127.5 59.95 123.75 61.35 119.6 62.15 114.2240234375 63.20078125 109.45 65.3 108.9646484375 65.519921875 108.45 65.75 108.3638671875 65.80234375 108.25 65.85 107.7509765625 66.094921875 107.25 66.35 107 66.7 107 67.1 107 67.35 107 67.6 107 67.7 107 67.85 107.05 68.1 107.2 68.35 107.2 68.45 107.25 68.6 110.1 70.45 113.65 71.25 114.094140625 71.3494140625 114.5 71.45 117.765625 72.251953125 120.15 73.4 118.65 75.6 116.55 77.35 113.85 79.7 110.3 80.95 99.9908203125 84.698828125 89.8 81.45 89.7505859375 81.41328125 89.7 81.35 89.45 81.25 89.2 81.15 88.9626953125 81.0708984375 88.7 81 88.6232421875 80.9708984375 88.55 80.95 88.4837890625 80.9783203125 88.4 81 87.8837890625 80.8130859375 87.35 80.6 86.65 80.8 86.15 81.35 85.919921875 81.6720703125 85.8 82 82.8873046875 83.1197265625 79.8 83.9 66.598828125 87.2001953125 53.8 84.6 50.9904296875 84.030078125 48.2 83.15 47.896875 83.0939453125 47.6 83 46.07578125 82.5205078125 44.55 81.95 44.2 82.05 43.85 82.15 43.6 82.25 43.4 82.35 43.3 82.5 43.15 82.6 43.058984375 82.7138671875 42.95 82.85 42.858984375 82.9865234375 42.75 83.15 42.7 83.25 42.65 83.35 42.62265625 83.6228515625 42.65 83.8 40.91328125 83.91328125 39.15 84.1 25.3 85.65 13.8 77.8 14.85 77.5 15.75 76.85 17 75.9 18.4 75.2 18.85 75 19.3 74.7 19.9 74.5 20.5 74.25 20.7591796875 74.14921875 21 74 21.6302734375 73.72734375 22.2 73.3 22.35 73.2 22.5 73.05 23.05 72.85 23.6 72.65 23.85 72.55 24.05 72.4 24.65 71.9 24.65 71.15 24.7 70.85 24.7 70.55 24.7 70.05 24.45 69.6 24.35 69.45 24.25 69.3 24.1779296875 69.2677734375 24.1 69.2 19.366796875 67.139453125 13.9 66.45 7 65.65 0.75 63.7 2.85 49.1 12 37.35 18.45 29 28.1 25.85 29.92265625 25.4919921875 31.65 25.75 32.5923828125 25.918359375 33.5 26.25 34.86015625 26.755078125 36.1 26.4 36.4095703125 26.6859375 36.7 26.95 36.6119140625 27.001171875 36.5 27.05
L 36.6 27.05 36.75 26.95
Q 37.53359375 27.633203125 38.35 28.25
L 38.2 28.25
Q 37.55 28.5 36.9 28.8
L 36.6 28.95 36.5 28.95
Q 35.8203125 29.2537109375 35.15 29.6 33.513671875 30.433984375 31.95 31.5 28.55 33.75 26.55 37.15 21.25 46.1 26.35 55.2 29.15 60.3 34.8 62.25 38 63.35 41.2 63.75 39.75 64.6 38.45 65.7 38.2 67.05 39.4 67.75 39.85 68.05 40.25 67.85 46.15 65.2 52.55 63.9 52.7 64.05 52.9 64.15 53.35 64.45 53.75 64.85 53.775 64.8775390625 53.8 64.9 55.737109375 67.0056640625 58.6 67.45 60.2 68.05 61.8 68.4 61.55 68.8 61.35 69.2 60.85 69.65 60.45 70.15 59.05 71.7 57.4 73 55.6388671875 73.9392578125 53.8 74.45 49.3748046875 75.8037109375 44.5 74.85 41.25 74.2 39.65 71.4 39.45 70.5 39.2 69.6 39.05 68.8 38.5 68.2 37.95 67.7 37.2 67.75 35.55 67.85 35.55 69.4 35.8 76.45 42.85 78.25 48.77890625 79.802734375 53.8 78.6 59.449609375 77.26796875 63.95 72.45 67.05 76.55 71.9 78.65 80.5974609375 82.3775390625 88.65 79.55 88.787109375 79.5404296875 88.9 79.5 92.0693359375 78.3564453125 95.15 76.2 99.15 73.4 97.8 69.35 97.05 68.65 96.05 68.95 94.45 69.5 94.15 71.2 90.35 75.25 84.75 76.2 73.2 78.05 66.25 68.85 71.85 68.75 77.15 65.2 77.85 64.7 78.3 64.2 80.5 64.7 82.7 65.4 83.2 65.75 83.75 65.95 87 67.15 90.05 68.75 91.2 69.4 92.1 68.4 92.5 67.75 92.25 67.15 92.05 66.75 91.85 66.35
L 91.9 66.35
Q 97.2 65.45 100.45 61.1 105.35 54.55 103.7 46.25 102.7 41.3 99.55 37.35 93.1 29.35 82.65 30.15 81.15 30.55 79.5 30.95 74.75 32.15 71.2 35.5 66.75 39.8 65.65 45.25 65.731640625 40.6041015625 63.35 36.2 65.440625 36.123046875 67.55 35.8 69.75 35.45 69.85 33.45 70.2 26.2 69.35 18.9 69 15.8 66.05 16.7 65.65 16.8 65.6 17.2 65.3419921875 19.0380859375 65.4 20.95 65.4580078125 22.0171875 65.6 23.1 66.1 27.45 66.4 31.85 61.35 32.9 56.3 31.95 55.035546875 31.7150390625 53.8 31.4 47.4138671875 29.794921875 41.8 26.15 40.141796875 25.0751953125 38.7 23.75 37.7796875 22.9568359375 36.95 22.05 32.85 17.5 35.25 11.8 37.4244140625 6.6525390625 42.1 3.75 42.7142578125 3.3818359375 43.35 3.05 43.85 3 44.4 2.85 45.95 2.35 46.85 1.15 47.8 -0.15 46.45 -1
M 101.7 21.9
Q 102.7583984375 21.052734375 103.85 20.2 106.25 18.3 109.1 17.05 117.7 13.15 124.55 19.25 122.11796875 24.8923828125 116.95 28.15 110.673046875 22.9904296875 101.7 21.9
M 90.3 35.2
Q 96.7 37.7 98.95 44 100.1 48.15 99.75 52.45 99.1 61.3 89.95 62.3 88.8 62.45 88.15 63.05 87.65 62.75 87.05 62.55 81 60.35 74.75 59.4 73.25 58.5 71.9 57.4 69 53.7 69.2 48.95 69.55 39.25 78.55 35.45 84.4 32.95 90.3 35.2
M 42.4 30.95
Q 43.399609375 31.5265625 44.45 32.05 42.0455078125 32.4751953125 39.75 33.45 37.4609375 34.4310546875 35.75 35.85 36.051953125 35.8205078125 36.35 35.8 36.687109375 35.7560546875 37 35.75 37.915234375 35.549609375 38.85 35.75 39.2 35.9 39.6 36.15 40.65 36.8 40.3 38.1 39.7 40.2 38.1 41.6 35.65 43.9 32.9 42.7 32.6033203125 42.284765625 32.5 41.8
L 32.4 41.75 32.45 41.55
Q 32.4783203125 41.373046875 32.5 41.2 32.6857421875 39.9615234375 33.2 38.9
L 33.15 38.8
Q 31.786328125 40.9263671875 31.2 43.65 29.25 52.45 36.55 57.45 39.2 59.25 41.9 58.4 48.597265625 58.7939453125 53.8 54.9 54.5400390625 54.38515625 55.25 53.75 58.25 51 59 47.05 59.85 42.4 57.8 37.95 57.28125 36.834765625 56.6 35.9 57.5484375 36.0458984375 58.45 36.1 60.550390625 38.78203125 61.6 42.1 62 45.4 61.4 48.65 60.6 52.8 57.2 55.2 55.5322265625 56.38125 53.8 57.4 51.793359375 58.60703125 49.7 59.6 48.85 59.7 48 59.8 44.3 60.3 40.65 59.9 37.2 59.45 34.4 57.6 26.45 52.2 28.15 42.8 28.45 41.05 29.55 39.6 34.4984375 32.9322265625 42.4 30.95
M 25.35 22.6
Q 24.8734375 22.7833984375 24.35 22.95 19.5 24.4 15.75 27.9 14.8255859375 28.7583984375 13.95 29.65 8.387109375 27.1181640625 5.8 21.85 4.8 19.9 4.75 17.7 6.3 17.55 7.85 17.35 18.4154296875 16.04609375 25.35 22.6
M 65.45 52
Q 66 56 68.05 58.75 66 58.65 63.95 58.7 61.65 58.8 59.35 59.05 62.5 56.35 64.1 52.35 64.85 50.45 65.25 48.6 65.2 50.25 65.45 52
M 96.6 48.65
Q 96.2 44.5 93.55 41.35 89.95 37 84.4 37 81.95 36.95 79.65 37.9 77.716015625 38.73515625 76.25 40.2 76.3921875 40.188671875 76.55 40.2 77.7 39.9 78.75 40.2 79.35 40.75 79.7 41.25 79.85 41.35 79.95 41.55 80.05 42.5 79.8 43.1 79.5 43.8 79.25 44.6
L 78.05 45.65 77.55 45.65
Q 76.75 46.4 75.5 46.3 73.25 46.6 72.8 44.45
L 73.3 43.3
Q 71.90703125 45.425390625 71.5 48.1 70.95 52.1 73.35 55.4 75.95 59 80.2 59.65 84.15 61.55 88.5 60.7 91.55 60.1 93.6 57.8 97.1 53.85 96.6 48.65 Z" stroke="none" fill="#000000"></path>

<path d="M 68.05 58.75
Q 66 56 65.45 52 65.2 50.25 65.25 48.6 64.85 50.45 64.1 52.35 62.5 56.35 59.35 59.05 61.65 58.8 63.95 58.7 66 58.65 68.05 58.75
M 88.55 80.95
Q 88.6232421875 80.9708984375 88.7 81 88.6673828125 80.284375 88.65 79.55 80.5974609375 82.3775390625 71.9 78.65 67.05 76.55 63.95 72.45 59.449609375 77.26796875 53.8 78.6 48.77890625 79.802734375 42.85 78.25 35.8 76.45 35.55 69.4 35.55 67.85 37.2 67.75 37.95 67.7 38.5 68.2 39.05 68.8 39.2 69.6 39.45 70.5 39.65 71.4 41.25 74.2 44.5 74.85 49.3748046875 75.8037109375 53.8 74.45 55.6388671875 73.9392578125 57.4 73 59.05 71.7 60.45 70.15 60.85 69.65 61.35 69.2 61.55 68.8 61.8 68.4 60.2 68.05 58.6 67.45 55.737109375 67.0056640625 53.8 64.9 53.775 64.8775390625 53.75 64.85 53.35 64.45 52.9 64.15 52.7 64.05 52.55 63.9 46.15 65.2 40.25 67.85 39.85 68.05 39.4 67.75 38.2 67.05 38.45 65.7 39.75 64.6 41.2 63.75 38 63.35 34.8 62.25 29.15 60.3 26.35 55.2 21.25 46.1 26.55 37.15 28.55 33.75 31.95 31.5 33.513671875 30.433984375 35.15 29.6 35.8203125 29.2537109375 36.5 28.95
L 36.6 28.95 36.9 28.8
Q 37.55 28.5 38.2 28.25
L 38.35 28.25
Q 37.53359375 27.633203125 36.75 26.95
L 36.6 27.05 36.5 27.05
Q 36.6119140625 27.001171875 36.7 26.95 36.4095703125 26.6859375 36.1 26.4 34.86015625 26.755078125 33.5 26.25 32.5923828125 25.918359375 31.65 25.75 26.2517578125 27.90703125 21.4 31.8 13.2 38.35 9 47.85 6.85 52.5 7.6 55.75 7.914453125 57.4009765625 8.95 58.65 9.512109375 59.599609375 10.3 60.5 12.1 62.55 14.85 64 16.75 65.05 20.15 66.25 24.15 67.75 25.5 68.35 24.7384765625 68.7900390625 24.1 69.2 24.1779296875 69.2677734375 24.25 69.3 24.35 69.45 24.45 69.6 24.7 70.05 24.7 70.55 24.7 70.85 24.65 71.15 24.65 71.9 24.05 72.4 23.85 72.55 23.6 72.65 23.05 72.85 22.5 73.05 22.35 73.2 22.2 73.3 21.6302734375 73.72734375 21 74 21.226171875 77.0904296875 26.25 79.1 34.43359375 82.1974609375 42.95 82.85 43.058984375 82.7138671875 43.15 82.6 43.3 82.5 43.4 82.35 43.6 82.25 43.85 82.15 44.2 82.05 44.55 81.95 46.07578125 82.5205078125 47.6 83 47.896875 83.0939453125 48.2 83.15 50.9904296875 84.030078125 53.8 84.6 66.598828125 87.2001953125 79.8 83.9 82.8873046875 83.1197265625 85.8 82 85.919921875 81.6720703125 86.15 81.35 86.65 80.8 87.35 80.6 87.8837890625 80.8130859375 88.4 81 88.4837890625 80.9783203125 88.55 80.95
M 60.25 -4.65
Q 57.904296875 -4.0416015625 55.85 -3.1 52.3 -1.6 51.1 0.75 50.87734375 1.226953125 50.75 1.65 50.5431640625 2.56796875 50.85 3.25 51.3677734375 4.6921875 53.8 4.85 54.65625 4.9412109375 55.75 4.85 47.35 6.55 43.75 10.35 41.3 12.8 40.7 16.25 40.1 19.85 42 22.5 42.454296875 23.1384765625 43 23.65 44.676953125 24.51953125 46.85 25.1 50.340625 25.965625 53.8 25.75 56.534765625 25.5888671875 59.25 24.75 62.25 23.9 64.25 22.15 64.9185546875 21.5810546875 65.4 20.95 65.3419921875 19.0380859375 65.6 17.2 65.65 16.8 66.05 16.7 69 15.8 69.35 18.9 70.2 26.2 69.85 33.45 69.75 35.45 67.55 35.8 65.440625 36.123046875 63.35 36.2 65.731640625 40.6041015625 65.65 45.25 66.75 39.8 71.2 35.5 74.75 32.15 79.5 30.95 81.15 30.55 82.65 30.15 93.1 29.35 99.55 37.35 102.7 41.3 103.7 46.25 105.35 54.55 100.45 61.1 97.2 65.45 91.9 66.35
L 91.85 66.35
Q 92.05 66.75 92.25 67.15 92.5 67.75 92.1 68.4 91.2 69.4 90.05 68.75 87 67.15 83.75 65.95 83.2 65.75 82.7 65.4 80.5 64.7 78.3 64.2 77.85 64.7 77.15 65.2 71.85 68.75 66.25 68.85 73.2 78.05 84.75 76.2 90.35 75.25 94.15 71.2 94.45 69.5 96.05 68.95 97.05 68.65 97.8 69.35 99.15 73.4 95.15 76.2 92.0693359375 78.3564453125 88.9 79.5 103.316796875 81.864453125 111.85 75.35 114.2 73.75 114.5 71.75 114.5173828125 71.601171875 114.5 71.45 114.094140625 71.3494140625 113.65 71.25 110.1 70.45 107.25 68.6 107.2 68.45 107.2 68.35 107.05 68.1 107 67.85 107 67.7 107 67.6 107 67.35 107 67.1 107 66.7 107.25 66.35 107.7509765625 66.094921875 108.25 65.85 108.3638671875 65.80234375 108.45 65.75 108.9646484375 65.519921875 109.45 65.3 114.13828125 63.1236328125 116.8 60.95 121.1 57.5 121.75 53.25 122.35 48.6 118.6 42.5 114.3 35.75 107.45 31.15 103.1673828125 28.221484375 98.45 26.55 95.1310546875 27.057421875 91.85 27.1 91.6 27 91.4 26.85 91.25 26.75 91.1 26.6 90.95 26.5 90.85 26.35 90.75 26.25 90.7 26.1 90.6 26 90.55 25.85 90.5 25.6 90.5 25.35 90.45 25.25 90.5 25.1 90.5 25 90.55 24.85 90.55 24.75 90.55 24.6 90.6 24.5 90.7 24.35 91.65 23.05 93.45 22.9 94.7056640625 22.7779296875 95.9 22.6 99.7662109375 16.824609375 106.35 14.05 110.75 12.25 115.3 11.5 120.45 11.1 124.7 14 126.25 15.05 127.65 16.3 129.55 19.25 127.8 22.35 124.81171875 27.6369140625 119.8 30.9 120.6326171875 31.8140625 121.35 32.75 123.6787109375 31.4921875 125.65 29.75 126.25 28.65 127.05 27.75 129.45 25.2 130.95 22.1 132.05 19.85 132.85 17.55 129.6 12.6 125.4 8.2 121.5 4.05 116.3 1.9 109.85 -0.8 102.75 -0.1 97.75 0.4 93.9 3.5 93.3779296875 3.9205078125 92.9 4.2 95.2392578125 12.38828125 88.55 18.15 86.6 19.8 85.6 17.55 84.95 16.1 86.25 15.05 87.5 14.05 88.4 12.75 89 11.2 89.55 9.55 90.1 7.9 89.5 6.15 89 4.85 88.55 3.5 87.5 1.9 85.95 0.8 83.9 -0.5 81.65 -1.2 83.9 1.3 84.55 4.3 84.75 5.25 83.9 5.7 81.9 6.75 80.6 4.65 78.6060546875 1.5484375 75.95 -1.15 75.6470703125 -1.4642578125 75.3 -1.8 74.85 -2.2 74.3 -2.65 71.9908203125 -4.5349609375 69.5 -5.8 68.2052734375 -5.774609375 67 -5.7 63.367578125 -5.47109375 60.25 -4.65
M 33.95 -1
Q 31.8453125 -1.55 29.6 -1.55 18.7107421875 -1.59140625 9.65 3.75 7.755078125 4.858984375 5.95 6.2 0.5 10.25 -4 15.4 -4 15.6 -3.95 15.8 -3.95 15.9 -3.95 16 -3.9 16.1 -3.9 16.2 -3.9 16.5 -3.85 16.8 -3.85 17.3 -3.85 17.8 -3.85 17.9 -3.85 18 -2.45 23.85 1.4 28.6 4.6646484375 32.5744140625 9 35.1 10.1212890625 33.7359375 11.3 32.4 10.4994140625 32.09765625 9.7 31.65 1.35 27.1 0.8 17.85 0.7 16.65 0.8 15.45 1.5 13.95 3.25 13.65 6.45 13.2 9.55 13.2 21.4 12.8 29.2 21.05 29.4615234375 21.3271484375 29.65 21.55 30.6923828125 21.51796875 31.7 21.55 30.954296875 20.1640625 30.75 18.5 29.75 10.15 35.75 4 35.8 3.95 35.85 3.85 34.50078125 4.0427734375 33.7 3.75 32.3154296875 3.2083984375 32.9 1 33.208203125 -0.1009765625 33.95 -1 Z" stroke="none" fill="#3333FF"></path>

<path d="M 24.35 22.95
Q 24.8734375 22.7833984375 25.35 22.6 18.4154296875 16.04609375 7.85 17.35 6.3 17.55 4.75 17.7 4.8 19.9 5.8 21.85 8.387109375 27.1181640625 13.95 29.65 14.8255859375 28.7583984375 15.75 27.9 19.5 24.4 24.35 22.95
M 103.85 20.2
Q 102.7583984375 21.052734375 101.7 21.9 110.673046875 22.9904296875 116.95 28.15 122.11796875 24.8923828125 124.55 19.25 117.7 13.15 109.1 17.05 106.25 18.3 103.85 20.2 Z" stroke="none" fill="#33FF00"></path>

<path d="M 44.45 32.05
Q 43.399609375 31.5265625 42.4 30.95 34.4984375 32.9322265625 29.55 39.6 28.45 41.05 28.15 42.8 26.45 52.2 34.4 57.6 37.2 59.45 40.65 59.9 44.3 60.3 48 59.8 48.85 59.7 49.7 59.6 51.793359375 58.60703125 53.8 57.4 55.5322265625 56.38125 57.2 55.2 60.6 52.8 61.4 48.65 62 45.4 61.6 42.1 60.550390625 38.78203125 58.45 36.1 57.5484375 36.0458984375 56.6 35.9 57.28125 36.834765625 57.8 37.95 59.85 42.4 59 47.05 58.25 51 55.25 53.75 54.5400390625 54.38515625 53.8 54.9 48.597265625 58.7939453125 41.9 58.4 39.2 59.25 36.55 57.45 29.25 52.45 31.2 43.65 31.786328125 40.9263671875 33.15 38.8
L 33.2 38.9
Q 32.6857421875 39.9615234375 32.5 41.2 32.4783203125 41.373046875 32.45 41.55
L 32.4 41.75 32.5 41.8
Q 32.6033203125 42.284765625 32.9 42.7 35.65 43.9 38.1 41.6 39.7 40.2 40.3 38.1 40.65 36.8 39.6 36.15 39.2 35.9 38.85 35.75 37.915234375 35.549609375 37 35.75 36.687109375 35.7560546875 36.35 35.8 36.051953125 35.8205078125 35.75 35.85 37.4609375 34.4310546875 39.75 33.45 42.0455078125 32.4751953125 44.45 32.05
M 98.95 44
Q 96.7 37.7 90.3 35.2 84.4 32.95 78.55 35.45 69.55 39.25 69.2 48.95 69 53.7 71.9 57.4 73.25 58.5 74.75 59.4 81 60.35 87.05 62.55 87.65 62.75 88.15 63.05 88.8 62.45 89.95 62.3 99.1 61.3 99.75 52.45 100.1 48.15 98.95 44
M 93.55 41.35
Q 96.2 44.5 96.6 48.65 97.1 53.85 93.6 57.8 91.55 60.1 88.5 60.7 84.15 61.55 80.2 59.65 75.95 59 73.35 55.4 70.95 52.1 71.5 48.1 71.90703125 45.425390625 73.3 43.3
L 72.8 44.45
Q 73.25 46.6 75.5 46.3 76.75 46.4 77.55 45.65
L 78.05 45.65 79.25 44.6
Q 79.5 43.8 79.8 43.1 80.05 42.5 79.95 41.55 79.85 41.35 79.7 41.25 79.35 40.75 78.75 40.2 77.7 39.9 76.55 40.2 76.3921875 40.188671875 76.25 40.2 77.716015625 38.73515625 79.65 37.9 81.95 36.95 84.4 37 89.95 37 93.55 41.35 Z" stroke="none" fill="#FFFFFF"></path>

<path d="M 15.75 76.85
Q 14.85 77.5 13.8 77.8 25.3 85.65 39.15 84.1 40.91328125 83.91328125 42.65 83.8 42.62265625 83.6228515625 42.65 83.35 42.7 83.25 42.75 83.15 42.858984375 82.9865234375 42.95 82.85 34.43359375 82.1974609375 26.25 79.1 21.226171875 77.0904296875 21 74 20.7591796875 74.14921875 20.5 74.25 19.9 74.5 19.3 74.7 18.85 75 18.4 75.2 17 75.9 15.75 76.85
M 31.65 25.75
Q 29.92265625 25.4919921875 28.1 25.85 18.45 29 12 37.35 2.85 49.1 0.75 63.7 7 65.65 13.9 66.45 19.366796875 67.139453125 24.1 69.2 24.7384765625 68.7900390625 25.5 68.35 24.15 67.75 20.15 66.25 16.75 65.05 14.85 64 12.1 62.55 10.3 60.5 9.512109375 59.599609375 8.95 58.65 7.914453125 57.4009765625 7.6 55.75 6.85 52.5 9 47.85 13.2 38.35 21.4 31.8 26.2517578125 27.90703125 31.65 25.75
M 114.5 71.45
Q 114.5173828125 71.601171875 114.5 71.75 114.2 73.75 111.85 75.35 103.316796875 81.864453125 88.9 79.5 88.787109375 79.5404296875 88.65 79.55 88.6673828125 80.284375 88.7 81 88.9626953125 81.0708984375 89.2 81.15 89.45 81.25 89.7 81.35 89.7505859375 81.41328125 89.8 81.45 99.9908203125 84.698828125 110.3 80.95 113.85 79.7 116.55 77.35 118.65 75.6 120.15 73.4 117.765625 72.251953125 114.5 71.45
M 99.6 26.35
Q 99.0236328125 26.453515625 98.45 26.55 103.1673828125 28.221484375 107.45 31.15 114.3 35.75 118.6 42.5 122.35 48.6 121.75 53.25 121.1 57.5 116.8 60.95 114.13828125 63.1236328125 109.45 65.3 114.2240234375 63.20078125 119.6 62.15 123.75 61.35 127.5 59.95 126.4 49.95 121.6 41 116.55 31.65 106.4 27.1 103.15 25.65 99.6 26.35
M 41.85 -2.05
Q 44.40078125 -2.3533203125 46.45 -1 47.8 -0.15 46.85 1.15 45.95 2.35 44.4 2.85 43.85 3 43.35 3.05 42.7142578125 3.3818359375 42.1 3.75 37.4244140625 6.6525390625 35.25 11.8 32.85 17.5 36.95 22.05 37.7796875 22.9568359375 38.7 23.75 40.141796875 25.0751953125 41.8 26.15 47.4138671875 29.794921875 53.8 31.4 55.035546875 31.7150390625 56.3 31.95 61.35 32.9 66.4 31.85 66.1 27.45 65.6 23.1 65.4580078125 22.0171875 65.4 20.95 64.9185546875 21.5810546875 64.25 22.15 62.25 23.9 59.25 24.75 56.534765625 25.5888671875 53.8 25.75 50.340625 25.965625 46.85 25.1 44.676953125 24.51953125 43 23.65 42.454296875 23.1384765625 42 22.5 40.1 19.85 40.7 16.25 41.3 12.8 43.75 10.35 47.35 6.55 55.75 4.85 54.65625 4.9412109375 53.8 4.85 51.3677734375 4.6921875 50.85 3.25 50.5431640625 2.56796875 50.75 1.65 50.87734375 1.226953125 51.1 0.75 52.3 -1.6 55.85 -3.1 57.904296875 -4.0416015625 60.25 -4.65 63.367578125 -5.47109375 67 -5.7 68.2052734375 -5.774609375 69.5 -5.8 61.5783203125 -9.837109375 52.1 -7.2 46.509375 -5.615234375 41.65 -2.55 41.8103515625 -2.3091796875 41.85 -2.05 Z" stroke="none" fill="#FF0033"></path>
</g>
</g>
</g>
</g>
</g>
</svg>
