
<svg viewBox="0 0 121 194" height="194px" width="121px" y="0px" x="0px" preserveAspectRatio="none" xmlns:xlink="http://www.w3.org/1999/xlink" version="1.1" xmlns="http://www.w3.org/2000/svg">
<defs></defs>

<g id="all_of_it_2">
<g transform="matrix( 0.294769287109375, 0, 0, 0.2947540283203125, 12.65,8.35)" id="all_of_it">
<g transform="matrix( 1, 0, 0, 1, 5.5,15.75)" id="Layer_1"></g>

<g transform="matrix( 1, 0, 0, 1, 5.5,15.75)" id="shoulder_2">
<g transform="matrix( 0.2623291015625, 0, 0, 0.2623291015625, 90.1,297.2)" id="Layer_1">
<g transform="matrix( 3.8160247802734375, 0, 0, 3.8160247802734375, -157.9,-84.5)" id="Layer_1">
<g>
<g>
<g>
<path d="M 0 0
L 2.85 73.8 77.05 47.55 0 0 Z" stroke="none" fill="#48215F"></path>
</g>
</g>
</g>
</g>
</g>
</g>

<g transform="matrix( 1, 0, 0, 1, 5.5,15.75)" id="scarf_3">
<g transform="matrix( 0.199859619140625, 0, 0, 0.199859619140625, 9.1,316.05)" id="Layer_1">
<g transform="matrix( 5.0433502197265625, 0, 0, 5.0433502197265625, 30.2,13)" id="Layer_1">
<g>
<g>
<g>
<path d="M 2.45 0
L 0 25.45 37.7 40.6 2.45 0 Z" stroke="none" fill="#FFAF60"></path>
</g>
</g>
</g>
</g>
</g>
</g>

<g transform="matrix( 1, 0, 0, 1, 5.5,15.75)" id="scarf_4">
<g transform="matrix( 1.46551513671875, 0, 0, 1.46551513671875, -133.25,234.8)" id="Layer_1">
<g transform="matrix( 0.6781463623046875, 0, 0, 0.6781463623046875, 104.85,87.4)" id="Layer_1">
<g>
<g>
<g>
<path d="M 0 4.5
L 22.55 29.5 48.4 0 0 4.5 Z" stroke="none" fill="#48215F"></path>
</g>
</g>
</g>
</g>
</g>
</g>

<g transform="matrix( 1, 0, 0, 1, 5.5,15.75)" id="arm_1">
<g transform="matrix( 1, 0, 0, 1, 13.2,373.05)" id="Layer_1">
<g transform="matrix( 1, 0, 0, 1, 0,-7.5)" id="Layer_1">
<g>
<g>
<g>
<path d="M 0 186.1
L 54.9 186.1 54.9 0 0 186.1 Z" stroke="none" fill="#D83745"></path>
</g>
</g>
</g>
</g>
</g>
</g>

<g transform="matrix( 1, 0, 0, 1, 5.5,15.75)" id="body_1">
<g transform="matrix( 1, 0, 0, 1, 79.65,336.5)" id="Layer_1">
<g transform="matrix( 1, 0, 0, 1, 20.5,10)" id="Layer_1">
<g>
<g>
<g>
<path d="M 28.3 229.6
L 206.25 0 0 26.25 28.3 229.6 Z" stroke="none" fill="#48215F"></path>
</g>
</g>
</g>
</g>
</g>
</g>

<g transform="matrix( 1, 0, 0, 1, 5.5,15.75)" id="body_2">
<g transform="matrix( 1, 0, 0, 1, 127.95,376.8)" id="Layer_1">
<g transform="matrix( 1, 0, 0, 1, 13,20.9)" id="Layer_1">
<g>
<g>
<g>
<path d="M 157.05 0
L 0 191.8 157.05 201.65 157.05 0 Z" stroke="none" fill="#D83745"></path>
</g>
</g>
</g>
</g>
</g>
</g>

<g transform="matrix( 1, 0, 0, 1, 5.5,15.75)" id="Layer_5">
<g transform="matrix( 0.5649261474609375, 0, 0, 0.5649261474609375, 301.9,205.55)" id="Layer_1">
<g transform="matrix( 1.776947021484375, 0, 0, 1.776947021484375, -202.65,132.75)" id="Layer_1">
<g>
<g>
<g>
<path d="M 0 0
L 0 43.95 191.35 40 0 0 Z" stroke="none" fill="#FFAF60"></path>
</g>
</g>
</g>
</g>
</g>
</g>

<g transform="matrix( 1, 0, 0, 1, 5.5,15.75)" id="shoulder_1">
<g transform="matrix( 0.333648681640625, 0, 0, 0.333648681640625, 102.95,360.4)" id="Layer_1">
<g transform="matrix( 2.99566650390625, 0, 0, 2.99566650390625, -32.45,-103.3)" id="Layer_1">
<g>
<g>
<g>
<path d="M 52.05 0
L 0 13.55 58.6 69.7 52.05 0 Z" stroke="none" fill="#FFAF60"></path>
</g>
</g>
</g>
</g>
</g>
</g>

<g transform="matrix( 1, 0, 0, 1, 5.5,15.75)" id="motuhy">
<g transform="matrix( 1, 0, 0, 1, 90.2,0)" id="mouth_but_it_move">
<g transform="matrix( 1, 0, 0, 1, 0,-15.75)" id="mouth">
<g transform="matrix( 1, 0, 0, 1, 49.2,12.75)" id="Layer_16">
<g>
<g>
<g>
<path d="M 25.05 2.85
L 11.45 1.65 1.6 178.35 24.55 178.75
Q 28.0017578125 91.226953125 25.05 2.85 Z" stroke="none" fill="#FFF9E0"></path>
</g>
</g>
</g>
</g>

<g transform="matrix( 1, 0, 0, 1, 49.2,12.75)" id="Layer_17">
<g>
<g>
<path d="M 5.15 41.3
L 27.4 41.95
M 4.8 59.45
L 27.95 62.1
M 2.2 85.55
L 30.75 88.7
M 0.25 137.3
L 28.95 139.4
M 3.4 111.65
L 26.05 114.2" fill="none" stroke-miterlimit="3" stroke-linecap="square" stroke-linejoin="miter" stroke-width="4" stroke="#0B042B"></path>
</g>
</g>

<g transform="matrix( 1, 0, 0, 1, 0,2.5)">
<g>
<path d="M 9.65 17.65
L 30.9 22.45" fill="none" stroke-miterlimit="3" stroke-linecap="square" stroke-linejoin="miter" stroke-width="4" stroke="#0B042B"></path>
</g>
</g>
</g>
</g>

<g transform="matrix( 1, 0, 0, 1, 0,-15.75)" id="mouth_top">
<g transform="matrix( 1, 0, 0, 1, 63.75,3.3)" id="Layer_1">
<g>
<g>
<g>
<path d="M 4.9 0
L 0 194.35 102.9 173.05 4.9 0 Z" stroke="none" fill="#48215F"></path>
</g>
</g>
</g>
</g>
</g>

<g transform="matrix( 1, 0, 0, 1, 0,-15.75)" id="mouth_bottom">
<g transform="matrix( 1, 0, 0, 1, 2.25,0)" id="Layer_1">
<g>
<g>
<g>
<path d="M 64.4 0
L 0 170.6 56.6 198.9 64.4 0 Z" stroke="none" fill="#D83745"></path>
</g>
</g>
</g>
</g>
</g>
</g>
</g>

<g transform="matrix( 1, 0, 0, 1, 5.5,15.75)" id="head_1">
<g transform="matrix( 0.716217041015625, 0, 0, 0.716217041015625, 176.95,205.8)" id="Layer_1">
<g transform="matrix( 1.391876220703125, 0, 0, 1.391876220703125, -28.8,-22.45)" id="Layer_1">
<g>
<g>
<g>
<path d="M 64.35 0
L 30.75 5.35 0 79.15 81.15 100.85 64.35 0 Z" stroke="none" fill="#D83745"></path>
</g>
</g>
</g>
</g>
</g>
</g>

<g transform="matrix( 1, 0, 0, 1, 5.5,15.75)" id="beak_1">
<g transform="matrix( 0.7247772216796875, 0, 0, 0.7247772216796875, 21.8,119.6)" id="Layer_1">
<g transform="matrix( 1.359893798828125, 0, 0, 1.359893798828125, -37.65,-11.2)" id="Layer_1">
<g>
<g>
<g>
<path d="M 0 124.65
L 129.55 124.25 129.55 0 0 124.65 Z" stroke="none" fill="#FFAF60"></path>
</g>
</g>
</g>
</g>
</g>
</g>

<g transform="matrix( 1, 0, 0, 1, 5.5,15.75)" id="beak_2">
<g transform="matrix( 0.76129150390625, 0, 0, 0.76129150390625, 61,245.5)" id="Layer_1">
<g transform="matrix( 1.3193359375, 0, 0, 1.3193359375, -11.2,-15.15)" id="Layer_1">
<g>
<g>
<g>
<path d="M 120.95 84.45
L 104.55 0 0 0.3 120.95 84.45 Z" stroke="none" fill="#D83745"></path>
</g>
</g>
</g>
</g>
</g>
</g>

<g transform="matrix( 1, 0, 0, 1, 5.5,15.75)" id="eye_with_shake">
<g transform="matrix( 1.0505828857421875, 0, 0, 1.0505828857421875, 101.35,100.35)" id="Layer_1"></g>

<g transform="matrix( 1.0505828857421875, 0, 0, 1.0505828857421875, 101.35,100.35)" id="Layer_1">
<g transform="matrix( 1, 0, 0, 1, -8.75,16.35)" id="tear_line">
<g>
<g>
<g>
<path d="M 67.4 142.65
L 51.75 126.5 34.15 152.3 50.3 179.4 67.4 142.65 Z" stroke="none" fill="#0B042B"></path>
</g>
</g>
</g>
</g>

<g transform="matrix( 1, 0, 0, 1, -8.75,16.35)" id="eye_main">
<g transform="matrix( 0.8657989501953125, 0, 0, 1.1125640869140625, 22.85,23.5)" id="Layer_2">
<g>
<g>
<g>
<path d="M 54.95 48.25
L 56.75 50.4 85.3 27.9 54.95 48.25
M 9.45 50.4
L 11.25 48.25 -19.1 27.9 9.45 50.4
M 29.4 8.9
L 35.9 8.9 34.2 -32.4 29.4 8.9 Z" stroke="none" fill="#0B042B"></path>
</g>
</g>
</g>
</g>

<g transform="matrix( 0.8657989501953125, 0, 0, 1.1125640869140625, 22.85,23.5)" id="eye_line">
<g>
<g>
<g>
<path d="M 33 0
L 0 60.55 33.4 121.35 65.65 60.15 33 0 Z" stroke="none" fill="#0B042B"></path>
</g>
</g>
</g>
</g>

<g transform="matrix( 0.8657989501953125, 0, 0, 1.1125640869140625, 22.85,23.5)" id="eye_inner">
<g>
<g>
<g>
<path d="M 32.7 9.3
L 2.05 63.5 33.55 115.65 64.5 62.75 32.7 9.3 Z" stroke="none" fill="#FFF2C9"></path>
</g>
</g>
</g>
</g>
</g>

<g transform="matrix( 1, 0, 0, 1, -8.75,16.35)" id="tear_inner">
<g>
<g>
<g>
<path d="M 64.55 145.2
L 51.25 129.5 37.75 151.35 49.8 173.55 64.55 145.2 Z" stroke="none" fill="#FFF2C9"></path>
</g>
</g>
</g>
</g>

<g transform="matrix( 1, 0, 0, 1, -8.75,16.35)" id="pupil">
<g transform="matrix( 0.6427764892578125, 0, 0, 2.140380859375, 50.1,86.45)" id="Layer_1">
<g>
<g>
<g>
<path d="M -1.9 1.95
L -0.6 10.4 9 8.3 5.45 -2.8 -1.9 1.95
M 1.35 3.45
L 3.8 1.85 5.15 6.05 1.85 6.8 1.35 3.45 Z" stroke="none" fill="#0B042B"></path>
</g>
</g>
</g>
</g>
</g>
</g>
</g>
</g>
</g>
</svg>
