
<svg viewBox="0 0 272 172" height="172px" width="272px" y="0px" x="0px" preserveAspectRatio="none" xmlns:xlink="http://www.w3.org/1999/xlink" version="1.1" xmlns="http://www.w3.org/2000/svg">
<defs></defs>

<g id="Layer_2">
<g>
<g>
<g>
<path d="M 210.15 147.3
Q 210.15 147.1 210.15 146.95 199.9 145.35 189.65 144 189.65 143.85 189.7 143.75 190.15 143 190.8 142.45 190.9 142.35 191 142.25 191.05 142.2 191.1 142.2 191.6 142.05 192.1 141.95 192.15 141.8 192.25 141.7 192.85 141.05 193.55 140.5 193.95 140.4 194.35 140.3 195.3 139.25 196.65 138.8 197.8 138.45 198.75 137.75 198.8802734375 137.726171875 199 137.7 201.31171875 137.2388671875 203.3 136.15 203.85 135.85 204.6 135.5 196.95 130.5 189.25 127.3 190.9 125.05 192.75 122.45 193.95 120.75 195.2 119 195.25 118.85 195.25 118.7 195.35 118.25 195.4 117.8 195.55 117.65 195.7 117.55 195.05 116 194.85 114.4 195.15 114.4 195.45 114.45 195.35 114.35 195.3 114.3
L 195.3 114.25
Q 194.15 114.05 193.15 113.5 186.05 113.25 179 112.95 179 110.05 179.15 107.15 179.3 104.1 178.6 101.3 178.6 101.15 178.65 101 178.8 100.35 178.2 100.05 168.85 101.95 159.25 103.75 159.15 103.6 159.05 103.45 158.6 102.55 158.3 101.6 158.2 101.45 158.1 101.3 158.1 101.15 158.05 101 157.9 100.55 157.7 100.05 157.7 99.9 157.7 99.75 157.7 99 157.7 98.25 157.7 97.75 157.7 97.3 157.6 97.15 157.55 97 157.25 96.1 157.1 95.15 157.05 94.85 156.9 94.55 156.9 94.4 156.9 94.25 156.9 93.75 156.9 93.3 156.8 93.15 156.7 93 156.6 92.85 156.5 92.7 156.5 92.55 156.5 92.4 156.55 91.8 156.05 91.45 152.9712890625 92.6814453125 149.9 94.1 144.9904296875 96.4203125 140.1 99.25
L 140.1 99.3
Q 138.85 99.3 137.65 99.25 137.5 99.1 137.35 98.95 137.3 98.85 137.25 98.75 137.2 98.7 137.1 98.65 136.75 98.55 136.4 98.45 136.4 98.3 136.35 98.15 135.75 97.05 134.75 96.3 134.75 96.15 134.7 96.05 134.15 95.3 133.45 94.75 133.15 94.15 132.9 93.5 132.45 92.15 131.5 91.05 131.5 90.9 131.45 90.75 131.45 90.6 131.4 90.45 131.2 90.15 130.95 89.85 130.1 88.85 129.55 87.65 129.5 87.55 129.45 87.35 129.4 87.25 129.35 87.25 128.95 87.2 128.5 87.25 123.65 91.8 119.65 97.1 118.1 99.15 116.85 101.4 115.05 101.55 113.25 101.7 110.05 99.7 106.85 97.55 106.2 97.05 105.7 96.4 103.5 95 101.35 93.5 100.6 93 99.85 92.5 99.05 97.85 99.1 103.55 99.15 107.7 99.15 111.85 99.15 112.15 99.15 112.45 89.99375 112.2234375 80.55 109.95 79.5765625 109.70703125 78.6 109.45 78.6 109.55 78.6 109.65
L 78.6 109.7
Q 78.7 110 78.75 110.3 78.85 110.45 78.95 110.6 79.2 110.95 79.45 111.25 79.9888671875 112.8666015625 80.55 114.45 81.446484375 117.047265625 82.4 119.6 83.65 122.8 85.5 125.65 85.55 125.8 85.6 126 85.6 126.45 85.6 126.9 85.6 127.05 85.6 127.2 83.1357421875 128.1521484375 80.55 128.95 73.9017578125 131.0900390625 66.45 132.35 66.55 132.5 66.7 132.6 66.8 132.7 66.85 132.8 67.35 132.8 67.85 132.9
L 67.85 133
Q 67.9 133.5 67.75 134 69.796484375 135.76640625 71.7 137.7 74.2017578125 140.2541015625 76.45 143.1 78 145.15 79.05 147.4 76.55 149.05 72.4 149.4 67.55 149.75 63.1 149.8 62.5 150 61.9 150.3 61.85 150.4 61.85 150.5 61.8 150.7 61.8 150.9 61.85 151.1 61.85 151.3 61.85 151.4 61.85 151.5 62.2 151.5 62.6 151.55
L 62.6 151.65
Q 62.6 151.8 62.6 151.9 62.6 152.8 62.6 153.65 62.6 153.9 62.6 154.15 62.62421875 154.1982421875 62.65 154.25 71.5193359375 154.3212890625 80.55 154.25 92.874609375 154.15703125 105.5 153.8 117.8 153.45 130.15 153.45 140.04453125 153.419921875 149.9 153.25 180.2068359375 152.8603515625 210.15 151.4 210.15 151.04140625 210.15 150.65 210.15 148.95 210.15 147.3
M 173.9 131.25
Q 174.1 131.3 174.3 131.35 174.35 131.45 174.45 131.55 175.1 132.15 175.75 132.8 176.1 133.2 176.5 133.5 176.55 133.6 176.6 133.7 176.6 133.8 176.65 133.9 176.65 134.1 176.65 134.3 176.8 134.4 176.85 134.55 176.9 134.6 176.9 134.7 176.9 134.9 176.9 135.1 177 135.2 177.05 135.3 177.1 135.4 177.2 135.5 177.2 135.6 177.2 135.7 177.2 135.9 177.2 136.1 177.2 136.4 177.2 136.65 177.2 136.75 177.2 136.85 177.15 136.95 177.1 137.05 176.9970703125 137.379296875 176.8 137.7 176.603125 138.1587890625 176.25 138.6 175.55 139.5 174.6 140.2 165.6 143.25 156.7 141.3 153.6 140.6 152.4 137.7 152.3 137.6 152.2 137.5 152.1 137.4 152.05 137.3 151.8 137.05 151.6 136.75 151.6 136.65 151.6 136.55 151.6 136.05 151.6 135.55 151.6 135.05 151.6 134.55 151.6 134.2 151.6 133.8 151.7 133.7 151.75 133.6 151.8 133.5 151.85 133.4 151.9 133.3 151.95 133.2 153 132.1 154.3 131.3 158 128.95 162.3 128.35 166.8 127.8 170.85 129.35 172.4 129.95 173.45 131.1 173.5 131.15 173.6 131.15 173.75 131.2 173.9 131.25
M 90.8 136.85
Q 90.8 136.55 90.8 136.3 90.8 136.2 90.8 136.1 91.4 134.4 92.75 133.3 97.55 129.45 103.65 129.2 108.05 129 112.15 130.45 113.45 130.95 114.65 131.7 114.75 131.8 114.85 131.9 114.9 132 115 132.1 115.05 132.15 115.15 132.2 115.2 132.25 115.3 132.3 115.5 132.35 115.65 132.4 115.7 132.5 115.75 132.6 115.85 132.7 115.9 132.8 116.05 133 116.25 133.2 116.35 133.3 116.45 133.4 116.55 133.5 116.7 133.6 116.75 133.7 116.8 133.8 116.85 133.9 116.9 134 116.9 134.1 116.95 134.2 117.05 134.3 117.15 134.4 117.25 134.45 117.35 134.55 117.5 134.65 117.6 134.75 117.65 134.85 117.75 134.95 117.75 135.05 117.8 135.15 117.85 135.25 117.85 135.35 117.9 135.55 117.95 135.75 117.95 135.85 117.95 135.95 117.95 136.05 117.95 136.15 117.95 136.25 118 136.3 118.05 136.45 118.1 136.55 118.15 136.65 118.2 136.75 118.2 136.85 118.2 136.95 118.2 137.05 118.2 137.15 118.2 137.3 118.2 137.5 118.2 137.6 118.2 137.7 118.2 137.8 118.2 137.9 118.2 138.2 118.2 138.5 118.2 138.6 118.2 138.7 118.15 138.8 118.1 138.9 118.05 139 118 139.1 117.95 139.2 117.95 139.3 117.95 139.4 117.95 139.5 117.95 139.6 117.95 139.7 117.95 139.8 117.95 139.9 117.9 140 117.85 140.05 117.8 140.15 117.75 140.25 117.5 140.55 117.25 140.9 117 141.3 116.6 141.65 116.2 142 115.85 142.35 107.5 145.05 98.75 143.35 94.1 142.4 91.45 138.65 91.35 138.55 91.2 138.45 91.1 138.35 91 138.25 90.95 138.15 90.85 138.05 90.85 137.95 90.8 137.85 90.8 137.775 90.8 137.7
L 90.8 137.65
Q 90.8 137.45 90.8 137.25 90.8 137.15 90.8 137.05 90.8 136.95 90.8 136.85 Z" stroke="none" fill="#FDDF5E"></path>

<path d="M 90.8 136.3
Q 90.8 136.55 90.8 136.85 90.8 136.95 90.8 137.05 90.8 137.15 90.8 137.25 90.8 137.45 90.8 137.65
L 90.8 137.7
Q 90.8 137.775 90.8 137.85 90.85 137.95 90.85 138.05 90.95 138.15 91 138.25 91.1 138.35 91.2 138.45 91.35 138.55 91.45 138.65 94.1 142.4 98.75 143.35 107.5 145.05 115.85 142.35 116.2 142 116.6 141.65 117 141.3 117.25 140.9 117.5 140.55 117.75 140.25 117.8 140.15 117.85 140.05 117.9 140 117.95 139.9 117.95 139.8 117.95 139.7 117.95 139.6 117.95 139.5 117.95 139.4 117.95 139.3 117.95 139.2 118 139.1 118.05 139 118.1 138.9 118.15 138.8 118.2 138.7 118.2 138.6 118.2 138.5 118.2 138.2 118.2 137.9 118.2 137.8 118.2 137.7 118.2 137.6 118.2 137.5 118.2 137.3 118.2 137.15 118.2 137.05 118.2 136.95 118.2 136.85 118.2 136.75 118.15 136.65 118.1 136.55 118.05 136.45 118 136.3 117.95 136.25 117.95 136.15 117.95 136.05 117.95 135.95 117.95 135.85 117.95 135.75 117.9 135.55 117.85 135.35 117.85 135.25 117.8 135.15 117.75 135.05 117.75 134.95 117.65 134.85 117.6 134.75 117.5 134.65 117.35 134.55 117.25 134.45 117.15 134.4 117.05 134.3 116.95 134.2 116.9 134.1 116.9 134 116.85 133.9 116.8 133.8 116.75 133.7 116.7 133.6 116.55 133.5 116.45 133.4 116.35 133.3 116.25 133.2 116.05 133 115.9 132.8 115.85 132.7 115.75 132.6 115.7 132.5 115.65 132.4 115.5 132.35 115.3 132.3 115.2 132.25 115.15 132.2 115.05 132.15 115 132.1 114.9 132 114.85 131.9 114.75 131.8 114.65 131.7 113.45 130.95 112.15 130.45 108.05 129 103.65 129.2 97.55 129.45 92.75 133.3 91.4 134.4 90.8 136.1 90.8 136.2 90.8 136.3
M 98.05 141.75
Q 94.9134765625 140.386328125 93.1 137.7 92.9181640625 137.431640625 92.75 137.15 93.05 135.35 94.5 134.1 98.45 130.65 103.65 130.2 108.7 129.75 112.9 132.45 112.9 132.55 113 132.65 113.05 132.75 113.15 132.85 113.35 132.95 113.55 133 113.65 133.05 113.75 133.15 113.85 133.35 114 133.55 114.2 133.9 114.5 134.15 114.65 134.2 114.7 134.3 114.8 134.5 114.95 134.7 115.15 135.05 115.45 135.3 115.6 135.4 115.7 135.5 115.75 135.6 115.8 135.7 115.85 135.8 115.9 135.9 115.95 136 115.95 136.1 115.95 136.2 115.95 136.3 115.95 136.45 115.95 136.65 115.95 136.75 115.95 136.85 115.95 136.95 115.95 137.05 116.1 137.25 116.2 137.45 116.25 137.55 116.25 137.65
L 116.25 137.7
Q 116.25 137.775 116.25 137.85 116.25 137.95 116.2 138 116.05 138.3 116 138.65 115.95 138.95 115.95 139.2 115.95 139.3 115.9 139.4 115.75 139.6 115.55 139.8 112.05 143.9 106.05 142.7 104.75 142.05 103.25 142.45 101.05 143 98.05 141.75
M 174.3 131.35
Q 174.1 131.3 173.9 131.25 173.75 131.2 173.6 131.15 173.5 131.15 173.45 131.1 172.4 129.95 170.85 129.35 166.8 127.8 162.3 128.35 158 128.95 154.3 131.3 153 132.1 151.95 133.2 151.9 133.3 151.85 133.4 151.8 133.5 151.75 133.6 151.7 133.7 151.6 133.8 151.6 134.2 151.6 134.55 151.6 135.05 151.6 135.55 151.6 136.05 151.6 136.55 151.6 136.65 151.6 136.75 151.8 137.05 152.05 137.3 152.1 137.4 152.2 137.5 152.3 137.6 152.4 137.7 153.6 140.6 156.7 141.3 165.6 143.25 174.6 140.2 175.55 139.5 176.25 138.6 176.603125 138.1587890625 176.8 137.7 176.9970703125 137.379296875 177.1 137.05 177.15 136.95 177.2 136.85 177.2 136.75 177.2 136.65 177.2 136.4 177.2 136.1 177.2 135.9 177.2 135.7 177.2 135.6 177.2 135.5 177.1 135.4 177.05 135.3 177 135.2 176.9 135.1 176.9 134.9 176.9 134.7 176.9 134.6 176.85 134.55 176.8 134.4 176.65 134.3 176.65 134.1 176.65 133.9 176.6 133.8 176.6 133.7 176.55 133.6 176.5 133.5 176.1 133.2 175.75 132.8 175.1 132.15 174.45 131.55 174.35 131.45 174.3 131.35
M 172.45 132.1
Q 172.55 132.45 172.85 132.65 173.9 133.4 174.6 134.4 174.65 134.45 174.65 134.55 174.7 134.65 174.7 134.75 174.7 134.85 174.7 134.95 175 135.2 175.05 135.55 175.1 135.95 175.15 136.35 175.05 136.55 175 136.75 174.9 136.95 174.9 137.15 174.65 137.4 174.5 137.65 174.4828125 137.6751953125 174.45 137.7 173.7259765625 138.7671875 172.7 139.5 165.2 141.85 157.5 140.55 157.4 140.45 157.25 140.4 156.5 139.85 155.85 139.3 155.0349609375 138.59609375 154.6 137.7 154.4537109375 137.38671875 154.35 137.05 154.2 136.85 154 136.65 153.8 136.35 153.6 136.1 153.6 135.6 153.55 135.1 153.55 134.6 153.7 134.1 154.8 132.9 156.15 132.05 159.488671875 129.870703125 163.4 129.15 163.737890625 129.097265625 164.05 129.05 164.46328125 129.089453125 164.85 129.1 165.51328125 129.208984375 166.15 129.3 169.3 129.75 171.6 131.8 171.85 131.9 172.05 131.95 172.25 132 172.45 132.1
M 206.55 137.7
Q 206.55 137.0484375 206.55 136.4 206.9 136.05 207.25 135.7 204.7 132.6 200.75 130.9 199.85 130.5 198.95 130.15 198.95 128.7 199 127.25 199.05 126.1 198.65 125.1 198.65 123.4 198.75 121.75 198.8 120.6 198.4 119.55 198.5 118.5 198.2 117.55 198.4 117.2 198.55 116.85 198.6 116.7 198.65 116.55 198.65 116.25 198.65 115.95 198.65 115.35 198.65 114.7 198.6 114.55 198.55 114.4 198.2 114.3 197.85 114.2 197.85 114.15 197.8 114.15 197.7 114 197.55 113.85 197.45 113.75 197.35 113.6 196.4 113.3 195.5 112.95 195.25 112.85 195 112.75 188 112.5 181.05 112.25 181.05 109.5 181.05 106.75 181.05 104.1 181.05 101.5 181 101.35 180.9 101.25 180.6 100.8 180.65 100.25 180.65 100.1 180.65 99.95 180.65 99.8 180.55 99.75 180.25 99.5 180 99.15 179.9 99 179.7 98.85 170.1 99.9 161 102.65 160.95 102.35 160.8 102.15 160.75 101.95 160.55 101.8 160.55 101.65 160.55 101.5 160.35 101.05 160.2 100.55 160.15 100.45 160.15 100.3 159.95 99.95 159.8 99.65 159.75 99.5 159.75 99.35 159.75 99.2 159.75 99.05 159.95 97.3 159.6 95.6 159.4 94.7 158.95 93.8 158.95 93.5 158.95 93.2 158.95 93.05 158.95 92.9 158.9 92.75 158.8 92.65 158.45 92.2 158.5 91.65 158.55 91.5 158.55 91.35 158.5 91.2 158.4 91.1 158.25 90.9 158.1 90.75 158.05 90.45 157.95 90.15 157.85 90 157.7 89.85 156.4 89.8 155.05 89.8 154.9 89.85 154.75 89.95 154.2 90.35 153.7 90.85 153.5 91 153.3 91.15 151.591015625 91.8580078125 149.9 92.6 144.6642578125 94.9412109375 139.6 97.7 139.05 97.75 138.55 97.7 138.5 97.7 138.45 97.6 138.15 96.6 137.25 96.05 137.05 95.9 136.9 95.75 136.85 95.6 136.8 95.45 136.75 95.3 136.7 95.15 136.3 94.85 135.9 94.5 135.75 94.4 135.6 94.25 134.9 93.05 134.35 91.8 134.1 91.1 133.55 90.55 133.55 90.4 133.5 90.25 132.95 88.95 132 87.8 131.55 87.25 131.4 86.55 131.1 86.45 130.8 86.3 130.75 86.3 130.65 86.25 130.55 86.15 130.5 86.05 130.35 85.9 130.25 85.75 129.15 85.7 128 85.65 125.5 87.3 123.3 89.7 118.5 94.95 114.6 100.6 114.1 100.2 113.5 99.85 107.35 96.15 101.7 91.55 101.15 91.4 100.6 91.2 100.4 91.15 100.25 91.05 99.2 91 98.1 91.05 98 91.05 97.9 91.15 97.95 91.7 97.65 92.1 97.55 92.25 97.5 92.4 97.5 92.7 97.5 93 97.25 97.15 97.2 101.3 97.1 106.5 97.1 111.75 91.85 111.4 86.8 109.75 83.539453125 108.7080078125 80.55 108.7 79.0927734375 108.704296875 77.7 108.95 77.15 108.9 76.65 108.9 76.65 109.05 76.65 109.2 76.4 109.25 76.2 109.3 76.4 109.7 76.55 110.15 76.35 112.9 76.35 115.7 76.35 122.25 76.35 128.8 74.4 129.2 72.45 129.5 67.4 130.25 64.3 132.55 64.75 133.5 65.35 134.3 65.05 135.15 64.8 136.05 64.52890625 136.8931640625 64.6 137.7 64.651171875 138.2330078125 64.85 138.75 64.95 141.15 65.25 143.5 65.6 145.65 65.65 147.85 65.25 147.9 64.85 147.95 62.6 148.6 60.25 149.35 60.15 149.4 60 149.45 59.95 149.5 59.95 149.6 59.25 149.65 58.6 149.75 59.2 149.75 59.85 149.8 59.8 149.8 59.75 149.85 59.65 149.95 59.6 150.05 59.6 150.15 59.6 150.25 59.6 150.35 59.6 150.45 59.6 150.55 59.6 150.65 59.6 150.7 59.6 150.75 59.55 150.75 59.45 150.8 59.4 150.8 59.4 150.95 59.4 151.1 59.4 151.25 59.4 151.75 59.4 152.2 59.4 152.35 59.4 152.5 59.9 152.85 59.85 153.4 59.8 153.55 59.8 153.75 59.9984375 153.98828125 60.2 154.2 61.4220703125 154.2396484375 62.65 154.25 62.62421875 154.1982421875 62.6 154.15 62.6 153.9 62.6 153.65 62.6 152.8 62.6 151.9 62.6 151.8 62.6 151.65
L 62.6 151.55
Q 62.2 151.5 61.85 151.5 61.85 151.4 61.85 151.3 61.85 151.1 61.8 150.9 61.8 150.7 61.85 150.5 61.85 150.4 61.9 150.3 62.5 150 63.1 149.8 67.55 149.75 72.4 149.4 76.55 149.05 79.05 147.4 78 145.15 76.45 143.1 74.2017578125 140.2541015625 71.7 137.7 69.796484375 135.76640625 67.75 134 67.9 133.5 67.85 133
L 67.85 132.9
Q 67.35 132.8 66.85 132.8 66.8 132.7 66.7 132.6 66.55 132.5 66.45 132.35 73.9017578125 131.0900390625 80.55 128.95 83.1357421875 128.1521484375 85.6 127.2 85.6 127.05 85.6 126.9 85.6 126.45 85.6 126 85.55 125.8 85.5 125.65 83.65 122.8 82.4 119.6 81.446484375 117.047265625 80.55 114.45 79.9888671875 112.8666015625 79.45 111.25 79.2 110.95 78.95 110.6 78.85 110.45 78.75 110.3 78.7 110 78.6 109.7
L 78.6 109.65
Q 78.6 109.55 78.6 109.45 79.5765625 109.70703125 80.55 109.95 89.99375 112.2234375 99.15 112.45 99.15 112.15 99.15 111.85 99.15 107.7 99.1 103.55 99.05 97.85 99.85 92.5 100.6 93 101.35 93.5 103.5 95 105.7 96.4 106.2 97.05 106.85 97.55 110.05 99.7 113.25 101.7 115.05 101.55 116.85 101.4 118.1 99.15 119.65 97.1 123.65 91.8 128.5 87.25 128.95 87.2 129.35 87.25 129.4 87.25 129.45 87.35 129.5 87.55 129.55 87.65 130.1 88.85 130.95 89.85 131.2 90.15 131.4 90.45 131.45 90.6 131.45 90.75 131.5 90.9 131.5 91.05 132.45 92.15 132.9 93.5 133.15 94.15 133.45 94.75 134.15 95.3 134.7 96.05 134.75 96.15 134.75 96.3 135.75 97.05 136.35 98.15 136.4 98.3 136.4 98.45 136.75 98.55 137.1 98.65 137.2 98.7 137.25 98.75 137.3 98.85 137.35 98.95 137.5 99.1 137.65 99.25 138.85 99.3 140.1 99.3
L 140.1 99.25
Q 144.9904296875 96.4203125 149.9 94.1 152.9712890625 92.6814453125 156.05 91.45 156.55 91.8 156.5 92.4 156.5 92.55 156.5 92.7 156.6 92.85 156.7 93 156.8 93.15 156.9 93.3 156.9 93.75 156.9 94.25 156.9 94.4 156.9 94.55 157.05 94.85 157.1 95.15 157.25 96.1 157.55 97 157.6 97.15 157.7 97.3 157.7 97.75 157.7 98.25 157.7 99 157.7 99.75 157.7 99.9 157.7 100.05 157.9 100.55 158.05 101 158.1 101.15 158.1 101.3 158.2 101.45 158.3 101.6 158.6 102.55 159.05 103.45 159.15 103.6 159.25 103.75 168.85 101.95 178.2 100.05 178.8 100.35 178.65 101 178.6 101.15 178.6 101.3 179.3 104.1 179.15 107.15 179 110.05 179 112.95 186.05 113.25 193.15 113.5 194.15 114.05 195.3 114.25
L 195.3 114.3
Q 195.35 114.35 195.45 114.45 195.15 114.4 194.85 114.4 195.05 116 195.7 117.55 195.55 117.65 195.4 117.8 195.35 118.25 195.25 118.7 195.25 118.85 195.2 119 193.95 120.75 192.75 122.45 190.9 125.05 189.25 127.3 196.95 130.5 204.6 135.5 203.85 135.85 203.3 136.15 201.31171875 137.2388671875 199 137.7 198.8802734375 137.726171875 198.75 137.75 197.8 138.45 196.65 138.8 195.3 139.25 194.35 140.3 193.95 140.4 193.55 140.5 192.85 141.05 192.25 141.7 192.15 141.8 192.1 141.95 191.6 142.05 191.1 142.2 191.05 142.2 191 142.25 190.9 142.35 190.8 142.45 190.15 143 189.7 143.75 189.65 143.85 189.65 144 199.9 145.35 210.15 146.95 210.15 147.1 210.15 147.3 210.15 148.95 210.15 150.65 210.15 151.04140625 210.15 151.4 211.321875 151.36875 212.5 151.3 212.422265625 150.1794921875 212.35 149.05 212.35 148.95 212.35 148.9 212.25 148.9 212.2 148.9 212.2 147.6 212.2 146.25 209.35 145.85 206.55 145.45 206.55 143.55 206.55 141.65 206.55 139.6609375 206.55 137.7
M 204.15 137.7
Q 204.35703125 137.62890625 204.55 137.55 204.55 137.6251953125 204.55 137.7 204.55 138.872265625 204.55 140 204.55 142.6 204.55 145.15 198.45 144.25 192.65 143.3 193.4 143.05 194.1 142.7 194.15 142.65 194.15 142.55 194.35 141.9 195.05 141.6 195.25 141.5 195.4 141.35 195.8 141.25 196.2 141.1 196.3 141.1 196.4 141.05 196.85 140.55 197.3 140.15 197.45 140.05 197.55 139.9 198.65 139.4 199.8 139.05 199.9 139.05 200 139 200.15 138.9 200.3 138.75 200.45 138.6 200.6 138.45 201.4 138.3 202.15 138.2 203.2220703125 138.03515625 204.15 137.7
M 196.65 120.45
Q 196.7 120.55 196.7 120.7 196.7 122.25 196.7 123.85 196.7 124.7 196.7 125.6 197.15 127.2 197 128.95 197 129.1 197 129.3 194.05 128.05 191.7 127 191.75 126.85 191.85 126.75 192.1 126.55 192.4 126.4 193.65 124.95 194.65 123.35 195.6 121.85 196.65 120.45
M 79 116.35
Q 79.7375 118.34140625 80.55 120.25 81.9404296875 123.6123046875 83.55 126.8 82.05859375 127.2970703125 80.55 127.75 79.479296875 128.059375 78.4 128.35 78.25 125.45 78.25 122.5 78.2 118.55 78.35 114.6 78.7 115.45 79 116.35
M 66.6 137.3
Q 66.6 137.25 66.55 137.15 66.7 136.55 66.95 136 67.860546875 136.8333984375 68.75 137.7 70.7025390625 139.64140625 72.5 141.75 73.3 143.25 74.55 144.4 76.3 145.95 76.4 147.5 73.8 147.85 71.25 148.15 71.1 148.1 71 148.1 69.35 147.75 67.7 147.75 67.55 146.1 67.4 144.4 67.05 141.25 66.8 138.1 66.69375 137.9140625 66.65 137.7 66.6 137.5111328125 66.6 137.3 Z" stroke="none" fill="#000000"></path>

<path d="M 93.1 137.7
Q 94.9134765625 140.386328125 98.05 141.75 101.05 143 103.25 142.45 104.75 142.05 106.05 142.7 112.05 143.9 115.55 139.8 115.75 139.6 115.9 139.4 115.95 139.3 115.95 139.2 115.95 138.95 116 138.65 116.05 138.3 116.2 138 116.25 137.95 116.25 137.85 116.25 137.775 116.25 137.7
L 116.25 137.65
Q 116.25 137.55 116.2 137.45 116.1 137.25 115.95 137.05 115.95 136.95 115.95 136.85 115.95 136.75 115.95 136.65 115.95 136.45 115.95 136.3 115.95 136.2 115.95 136.1 115.95 136 115.9 135.9 115.85 135.8 115.8 135.7 115.75 135.6 115.7 135.5 115.6 135.4 115.45 135.3 115.15 135.05 114.95 134.7 114.8 134.5 114.7 134.3 114.65 134.2 114.5 134.15 114.2 133.9 114 133.55 113.85 133.35 113.75 133.15 113.65 133.05 113.55 133 113.35 132.95 113.15 132.85 113.05 132.75 113 132.65 112.9 132.55 112.9 132.45 108.7 129.75 103.65 130.2 98.45 130.65 94.5 134.1 93.05 135.35 92.75 137.15 92.9181640625 137.431640625 93.1 137.7
M 172.85 132.65
Q 172.55 132.45 172.45 132.1 172.25 132 172.05 131.95 171.85 131.9 171.6 131.8 169.3 129.75 166.15 129.3 165.51328125 129.208984375 164.85 129.1 164.46328125 129.089453125 164.05 129.05 163.737890625 129.097265625 163.4 129.15 159.488671875 129.870703125 156.15 132.05 154.8 132.9 153.7 134.1 153.55 134.6 153.55 135.1 153.6 135.6 153.6 136.1 153.8 136.35 154 136.65 154.2 136.85 154.35 137.05 154.4537109375 137.38671875 154.6 137.7 155.0349609375 138.59609375 155.85 139.3 156.5 139.85 157.25 140.4 157.4 140.45 157.5 140.55 165.2 141.85 172.7 139.5 173.7259765625 138.7671875 174.45 137.7 174.4828125 137.6751953125 174.5 137.65 174.65 137.4 174.9 137.15 174.9 136.95 175 136.75 175.05 136.55 175.15 136.35 175.1 135.95 175.05 135.55 175 135.2 174.7 134.95 174.7 134.85 174.7 134.75 174.7 134.65 174.65 134.55 174.65 134.45 174.6 134.4 173.9 133.4 172.85 132.65
M 66.55 137.15
Q 66.6 137.25 66.6 137.3 66.6 137.5111328125 66.65 137.7 66.69375 137.9140625 66.8 138.1 67.05 141.25 67.4 144.4 67.55 146.1 67.7 147.75 69.35 147.75 71 148.1 71.1 148.1 71.25 148.15 73.8 147.85 76.4 147.5 76.3 145.95 74.55 144.4 73.3 143.25 72.5 141.75 70.7025390625 139.64140625 68.75 137.7 67.860546875 136.8333984375 66.95 136 66.7 136.55 66.55 137.15
M 80.55 120.25
Q 79.7375 118.34140625 79 116.35 78.7 115.45 78.35 114.6 78.2 118.55 78.25 122.5 78.25 125.45 78.4 128.35 79.479296875 128.059375 80.55 127.75 82.05859375 127.2970703125 83.55 126.8 81.9404296875 123.6123046875 80.55 120.25
M 196.7 120.7
Q 196.7 120.55 196.65 120.45 195.6 121.85 194.65 123.35 193.65 124.95 192.4 126.4 192.1 126.55 191.85 126.75 191.75 126.85 191.7 127 194.05 128.05 197 129.3 197 129.1 197 128.95 197.15 127.2 196.7 125.6 196.7 124.7 196.7 123.85 196.7 122.25 196.7 120.7
M 204.55 137.55
Q 204.35703125 137.62890625 204.15 137.7 203.2220703125 138.03515625 202.15 138.2 201.4 138.3 200.6 138.45 200.45 138.6 200.3 138.75 200.15 138.9 200 139 199.9 139.05 199.8 139.05 198.65 139.4 197.55 139.9 197.45 140.05 197.3 140.15 196.85 140.55 196.4 141.05 196.3 141.1 196.2 141.1 195.8 141.25 195.4 141.35 195.25 141.5 195.05 141.6 194.35 141.9 194.15 142.55 194.15 142.65 194.1 142.7 193.4 143.05 192.65 143.3 198.45 144.25 204.55 145.15 204.55 142.6 204.55 140 204.55 138.872265625 204.55 137.7 204.55 137.6251953125 204.55 137.55 Z" stroke="none" fill="#EE9D33"></path>
</g>
</g>
</g>
</g>
</svg>
