
<svg viewBox="0 0 112 184" height="184px" width="112px" y="0px" x="0px" preserveAspectRatio="none" xmlns:xlink="http://www.w3.org/1999/xlink" version="1.1" xmlns="http://www.w3.org/2000/svg">
<defs></defs>

<g id="fun_scrollers">
<g transform="matrix( 0.3621063232421875, 0, 0, 0.3621063232421875, -594.2,0.1)" id="svg">
<g transform="matrix( 1, 0, 0, 1, 1636.6,33.05)" id="Layer_2">
<g transform="matrix( 0.9998779296875, 0.013092041015625, -0.013092041015625, 0.9998779296875, 24.3,-2.65)" id="Layer_1">
<g transform="matrix( 0.9619598388671875, -0.01678466796875, 0.01678466796875, 0.9619598388671875, -399.45,-223.15)">
<g>
<g>
<path d="M 464.9 344.1
Q 460.35 344 458.55 344.15 455.35 344.45 452.45 345.7
L 449.85 347.25
Q 441.4 351.75 437.55 354.2 431.05 358.45 426.85 363.25 423.3 368.65 421.7 373.9 420.1 379.05 420 385.5
L 419.95 422.55
Q 419.85 441.1 419.5 453.4 418.75 480.7 417.95 535.4
L 417.7 553.85
Q 416.8 614.55 416.65 644.85
L 416.6 665.95
Q 416.55 670.75 416.85 676.25 418.9 684.65 424.85 690.25 431.65 693.35 437.55 693.9 443.45 694.4 472 694.45
L 543.15 694.5
Q 549.6 694.15 552.05 693.75 557.1 692.85 560.15 690.5
L 568.8 680.2
Q 571.35 676.5 572.3 672.05 573.05 668.6 573.1 663.05
L 573.15 629.3
Q 573.25 593.7 573.65 571.15 574.25 539.3 575.7 513
L 575.85 510.5
Q 576.65 495.25 577.15 487.95
L 577.85 478.25
Q 578.85 471.55 579.05 469.4
L 580.6 439.25
Q 581.9 414.85 581.95 402.65
L 582 399.75
Q 582 387.15 579.2 376.5 574.7 361.1 564.15 352.95 557.85 348.35 552.35 346.5 546.75 344.55 539 344.45
L 490.85 344.3
Q 479.7 344.3 474.15 344.2
L 464.9 344.1 Z" stroke="none" fill="#F5F7F9"></path>
</g>
</g>
</g>

<g transform="matrix( 0.9621124267578125, 0, 0, 0.9621124267578125, 3.4,8.55)">
<g>
<g>
<path d="M 138.9 39.5
L 138.95 30.5
Q 139 24 137.8 19.75 136.45 16.65 134.5 14.35 132.7 12.3 129.7 10.15
L 126.4 8.2
Q 119.4 4 112.55 2.05 105.75 0.1 97.5 0
L 93.6 0.05
Q 67.45 -0.05 43.8 2.7
L 40.25 3.15
Q 32.35 4.1 27.75 5 20.85 6.25 15.55 8.2 14.7 9.95 14.6 11.1 14.45 12.25 14.55 17.4
L 14.6 20.2
Q 14.6 22.25 14.6 26.35 14.75 29.9 15.95 32.2 18.95 33.65 19.85 33.95 20.75 34.2 22.9 34.45
L 47 34.65
Q 45.8 38.35 45.25 42.55 44.8 45.65 44.6 50.55 44.2 59.35 43.9 62.45 43.2 69.05 41.6 74.1 39.6 79.95 39.25 86.65 39.3 87.9 39.2 89.05 39.15 90.05 39.1 90.95
L 39.2 98.35
Q 39.7 98.15 40.15 98 43.85 96.7 47.45 96.25
L 58.15 96.35
Q 63.3 96.4 73.6 96.3 83.1 96.15 92.6 96.15
L 131 95.8
Q 133.75 95.7 134.6 95.75 135.5 95.8 138.05 96.1 138.7 96.35 139.4 96.65
L 145.85 96.55 145.8 91.85
Q 145.4 91.45 144.95 90.95
L 144.2 86.4
Q 143.8 80.95 142.7 76.25 139.05 60.45 138.9 39.5 Z" stroke="none" fill="#7E1A34"></path>
</g>
</g>
</g>

<g transform="matrix( 0.9621124267578125, 0, 0, 0.9621124267578125, 3.4,8.55)">
<g>
<g>
<path d="M 175.6 142.35
Q 174.2 125.2 168.35 112.2 164.9 105.75 161.7 101.85 157.5 96.75 152.35 94.1 147.5 91.75 144.95 89.6 144.2 87.7 144.05 87.05 143.9 86.4 143.75 84.3
L 143.75 79.65 142.75 79.65
Q 143.65 84.45 143.75 86.7 143.95 90.4 143 93.65 138.4455078125 94.9513671875 136.45 95.2
L 136.45 95.75
Q 138.8783203125 96.07734375 141.35 97.15
L 144.1 98.65
Q 153.15 103.7 158.65 110.65 164 118.3 166.55 127.55 168.8 135.75 169.05 146.05
L 169.1 148.7
Q 169.3 161.5 168.55 184.25
L 167.5 215.45
Q 167.35 220.25 166.8 224.25 166.35 227.3 166.1 230.25
L 164.9 259.5
Q 163.9 286.55 163.8 319 163.75 342.7 164.25 378.45
L 164.65 409.4
Q 164.8 418.3 164.4 422.7 162.7 426.75 161.85 427.95 161.05 429.2 157.95 432.45
L 153 437.55 151.1 441.55
Q 146.05 442.5 136.4 442.95
L 68.3 444.15
Q 53.45 444.65 45.95 444.65 32.95 444.7 23.75 442.9 20.55 442 18.85 440.75 17.15 439.65 15 436.95 12.55 432.45 11.45 428.95 10.3 425.05 10.2 420.3
L 9.85 380.45
Q 9.9 372 9.8 367.8
L 9.55 291.8
Q 9.35 232.55 9.55 209.85 9.8 191.65 9.65 178.55
L 9.35 140.5
Q 9.25 134.15 9.4 131.55 9.65 126.75 10.95 122.8
L 12.5 119.95
Q 20.9 109.8 24.3 107.05 27.7 104.3 39.7 98.15
L 43.1 96.4
Q 41.8 96.05 40.05 95.45
L 39.7 93.2
Q 39.7 93.1 39.9 85.45
L 38.9 85.45 38.95 90.45 36.95 90.5
Q 27.55 94.9 22.1 98.35 14.3 103.25 9.4 109.15 5.35 115.15 3.6 122.8 2.15 129.15 2.15 137.65
L 2.5 188.55
Q 2.7 200.35 2.8 223.7
L 2.95 242.7
Q 3.05 259.95 3.05 262.9 3.05 274.35 2.75 283.1 2.35 293.3 2.7 306.6 3.25 331.45 3.1 350.5 2.9 381.45 3.15 400.5
L 3.45 420.7
Q 3.55 429.85 4.85 435.05 7.55 442.1 13.95 447.3 17.7 449.15 22.2 450.05 25.75 450.75 30.8 451
L 99.7 451.2
Q 117.1 451.3 124 451.05 137.65 450.55 148.2 448.6 154.65 446.85 159.2 443.45 163.15 440.6 167.8 434.9 171.75 427.95 172.3 422.65 172.85 417.25 172.25 392.25
L 171.75 372.8
Q 170.95 336.8 171 311.25 171.1 277.95 172.55 249.75 173.7 228.55 174.65 199.9
L 175.65 173.55
Q 176.45 152.8 175.6 142.35 Z" stroke="none" fill="#706C84"></path>
</g>
</g>
</g>

<g transform="matrix( 0.9619598388671875, -0.01678466796875, 0.01678466796875, 0.9619598388671875, -399.45,-223.15)">
<g>
<g>
<path d="M 442.9 366.8
Q 442.1 367.1 441.35 367.45 440.6 367.85 439.85 368.25 439.5 369.65 439.2 371.1 438.65 373.95 438.25 376.8 438.05 378.2 438 379.65 437.9 381.15 437.95 382.65 437.95 384.1 438.05 385.6 438.15 387.1 438.35 388.65 438.5 390.15 438.8 391.6 438.9 392.05 439.1 392.45 439.2 392.7 439.35 393.05 439.45 393.2 439.55 393.4 439.6 393.45 439.65 393.5 439.75 393.6 439.9 393.7 440.05 393.8 440.2 393.9 440.45 394.05 440.7 394.2 440.95 394.35 441.3 394.4 442.05 394.8 442.9 395.05
L 479 395.05
Q 484.6 394.9 490.25 394.8 493 394.75 495.75 394.8 498.45 394.85 501.15 394.85 504.1 394.85 507.2 395.15 508.95 395.15 510.7 395.2 511.45 395.2 512.25 395.25 512.9 395.25 513.6 395.25 514.75 395.2 515.9 395.2 517.55 395.2 519.2 395.2 520.7 395.15 522.2 395.1 523.6 395.05 525.05 395.05 526.35 395 527.65 394.95 528.85 394.95 530.05 394.95 531.15 394.9 532.25 394.85 533.25 394.8 534.25 394.8 535.1 394.7 535.95 394.65 541.45 394.45 547 394.25 548.3 394.2 549.65 394.2 550.9 394.15 552.2 394.15 553.4 394.15 554.6 394.15 555.7 394.15 556.85 394.25 557.35 394.25 557.85 394.35
L 557.85 398.25
Q 557.3 398.3 556.8 398.4 556.35 398.45 555.9 398.5 555.55 398.55 555.2 398.65 554.9 398.7 554.65 398.9 554.35 398.9 554.15 399.1
L 554.15 403.4 563.85 403.4 564.1 378.7 563.85 371.25
Q 562.85 370.25 561.75 369.4 561.1 369 560.4 368.75 559.55 368.5 558.75 368.3 557.85 368.1 557 367.95 556.05 367.75 555.15 367.6 554.2 367.45 553.3 367.4 552.25 367.25 551.25 367.15 550.2 367.05 549.15 367 548 366.95 546.9 366.9
L 453.4 366.05
Q 452.65 366.05 451.95 366.05 451.3 366.05 450.65 366.05 450.1 366.05 449.55 366.05 449.05 366.05 448.55 366.05 448.15 366.05 447.8 366.05 447.45 366.05 447.15 366.05 446.9 366.05 446.7 366.05 446.5 366.05 446.35 366.05 445.45 366.2 444.6 366.35 443.75 366.55 442.9 366.8 Z" stroke="none" fill="#110F1A"></path>
</g>
</g>
</g>

<g transform="matrix( 0.9619598388671875, -0.01678466796875, 0.01678466796875, 0.9619598388671875, -154.35,-10.4)">
<g>
<g>
<path d="M 295.35 74.45
L 295.2 68
Q 295.15 65.3 295.05 64.4 294.8 62.7 294 61 290.25 59.1 285.75 58.75
L 225.65 58.65
Q 222.9 58.65 222.05 58.7 221.2 58.75 219 59
L 216 62
Q 213.95 70.1 213.05 83.45 212.35 94.15 210.45 100.7 209.35 104.2 209.05 106 208.75 107.75 208 115
L 288.6 115.25
Q 293.5 115.25 297 115
L 299 113
Q 299.3 109 298.35 103.15 295.8 89.2 295.35 74.45 Z" stroke="none" fill="#E21F2D"></path>
</g>
</g>
</g>

<g transform="matrix( 0.9621124267578125, 0, 0, 0.9621124267578125, 3.4,8.55)">
<g>
<g>
<path d="M 149.85 241.9
Q 149.75 241.1 149.3 238.7
L 148.5 235.6
Q 147.55 228.75 145.3 224.65
L 143 224.15 133.6 224.5
Q 124.05 224.75 116.9 225.4 104.95 226.55 88.55 226.85
L 79.65 227.05
Q 78.25 227.05 55.3 227.15 37.4 227.2 37.2 227.6 35.05 239.65 38.7 247.45 42.7 249.6 44.75 249.85 46.8 250.1 55.2 249.5 57.15 249.3 61.15 249.1 69.8 248.8 76.7 248.35 82 248 92.8 247.5 108 246.9 111.05 246.7
L 119.35 246.2
Q 123.45 245.95 127.65 245.9
L 128.7 247.9
Q 140.25 249.3 148.7 247.55
L 150 245.05
Q 149.9 242.7 149.85 241.9 Z" stroke="none" fill="#9DAEEA"></path>
</g>
</g>
</g>

<g transform="matrix( 0.9619598388671875, -0.01678466796875, 0.01678466796875, 0.9619598388671875, -154.4,-11.7)">
<g>
<g>
<path d="M 296.05 436.5
L 299.65 436.4
Q 304.65 436.35 311 436
L 312 435
Q 312.95 430.25 313.05 427 313.15 422.85 312 419 308.55 417.45 306.75 417.25 304.9 417.1 297.4 417.45
L 280.75 417.85
Q 270.85 418.15 255.4 417.5 247.1 417.2 238.95 417.05 232.1 417 225.1 416.75 215.7 416.35 211 416.3
L 205.75 416.25
Q 199.05 415.85 197.15 415.95 192.5 416.15 189 418 187.5 421.1 187.15 422.2 186.8 423.35 186.25 427 186.65 430.7 186.95 431.85 187.3 432.95 189 436 192.85 437.9 195.7 438.15 198.5 438.4 211.55 437.95
L 219.7 437.75
Q 230.4 437.75 241.05 437.45 253.3 437.1 263.15 437.05 285.05 436.75 296.05 436.5 Z" stroke="none" fill="#9DAEEA"></path>
</g>
</g>
</g>

<g transform="matrix( 0.9619598388671875, -0.01678466796875, 0.01678466796875, 0.9619598388671875, -399.45,-223.15)">
<g>
<g>
<path d="M 561.85 404.25
L 563.85 404.25 564.05 402.15 564 398.25 557.85 398.25
Q 555 398.45 554.15 398.45 553.35 398.45 551.2 398.3
L 542.2 397.65
Q 534.2 397.15 527.2 397.1
L 524.35 397.05
Q 510.05 396.9 495.7 396.9
L 446.45 396.6
Q 441.95 396.45 437.85 397.25 437.25 399.45 437.25 400.2 437.25 400.95 437.85 403.25
L 441.75 404.9 446.85 406.25
Q 453.75 409.45 457.85 410.85 464 413.05 469.4 413.5 477.3 413.95 485.85 416.85 494.8 420.1 499.5 419.9 504.15 419.75 523.25 415.5
L 537.45 412.35
Q 547.4 410.15 556.2 409.8 558.7 409.8 559.4 409.75 560.1 409.65 561.85 409.25
L 561.85 404.25 Z" stroke="none" fill="#992A3F"></path>
</g>
</g>
</g>

<g transform="matrix( 0.9619598388671875, -0.01678466796875, 0.01678466796875, 0.9619598388671875, -399.45,-223.15)">
<g>
<g>
<path d="M 434.85 262.6
Q 433 269.25 435.85 275.6
L 469.85 276.6 470.85 279.6 544.85 278.6
Q 544.7 277.75 544.55 276.95 543.65 271.8 536.65 265.9 529.85 260.95 529.85 260.6 482.05 248.45 434.85 262.6 Z" stroke="none" fill="#DF202E"></path>
</g>
</g>
</g>

<g transform="matrix( 0.9619598388671875, -0.01678466796875, 0.01678466796875, 0.9619598388671875, -154.4,-11.7)">
<g>
<g>
<path d="M 304.7 197.05
Q 303.25 194.85 301 193 297.15 191.85 291.75 191.85
L 288.3 191.95
Q 280.25 192.15 276.35 193.1 270.45 194.55 265.85 198.7
L 264 201
Q 261.7 203.8 260.8 205.8 259.85 207.9 259.5 211.35
L 259.55 216.1
Q 259.55 219.65 259.6 220.75 259.65 221.85 260 225 261 227.4 261.65 228.4 262.35 229.35 265.55 232.8 268.2 234.5 270.7 235.1 272.75 235.6 276.3 235.6
L 279.05 235.5
Q 287.95 235.35 291.25 235 298.25 234.25 303 232
L 304 228
Q 306.25 224.95 306.95 222.5 307.45 220.55 307.55 216.3
L 307.55 213.35
Q 307.8 206.75 307 202 305.95 198.95 304.7 197.05 Z" stroke="none" fill="#F1F3F7"></path>
</g>
</g>
</g>

<g transform="matrix( 0.9619598388671875, -0.01678466796875, 0.01678466796875, 0.9619598388671875, -154.4,-11.7)">
<g>
<g>
<path d="M 304.7 197.05
Q 303.25 194.85 301 193 297.15 191.85 291.75 191.85
L 288.3 191.95
Q 280.25 192.15 276.35 193.1 270.45 194.55 265.85 198.7
L 264 201
Q 261.7 203.8 260.8 205.8 259.85 207.9 259.5 211.35
L 259.55 216.1
Q 259.55 219.65 259.6 220.75 259.65 221.85 260 225 261 227.4 261.65 228.4 262.35 229.35 265.55 232.8 268.2 234.5 270.7 235.1 272.75 235.6 276.3 235.6
L 279.05 235.5
Q 287.95 235.35 291.25 235 298.25 234.25 303 232
L 304 228
Q 306.25 224.95 306.95 222.5 307.45 220.55 307.55 216.3
L 307.55 213.35
Q 307.8 206.75 307 202 305.95 198.95 304.7 197.05
M 284.7 198.8
L 288.75 198.85
Q 292.35 198.85 296 199 297.05 200.05 297.5 200.7 297.95 201.3 299.55 204 301.5 207.5 302 210.8 302.4 213.5 302 218
L 301 219
Q 299.9 221.65 299.4 222.55 298.9 223.4 297 226 291.85 228.6 285.75 229.25 280.55 229.8 274 229 270.7 227.85 269.85 227.2 268.95 226.6 267 224 265 219.3 265 214 267.35 209.05 268.45 207.6 269.6 206.2 273.85 202.55 276.55 200.6 278.95 199.8 281.3 199 284.7 198.8 Z" stroke="none" fill="#5D5A76"></path>
</g>
</g>
</g>

<g transform="matrix( 0.9619598388671875, -0.01678466796875, 0.01678466796875, 0.9619598388671875, -154.4,-11.7)">
<g>
<g>
<path d="M 190 143
L 189 144 188.85 150.1
Q 188.85 154.05 189 156
L 190 156 192 143 190 143 Z" stroke="none" fill="#110F1A"></path>
</g>
</g>
</g>
</g>
</g>

<g transform="matrix( 1, 0, 0, 1, 1636.6,33.05)" id="Layer_3">
<g>
<g>
<g>
<path d="M 154.95 253.05
Q 154.1 253.1 150.5 252.95 147.8 252.85 146.15 253.3 142.05 254.35 138.6 259.35 137.8 260.5 137.5 261.4 136.85 262.95 136.95 266.05
L 137 273.85 142.9 273.95
Q 144.3 273.95 144.95 273.75 145.5 273.55 146.4 272.85
L 149.7 270.3
Q 151.45 268.85 151.65 268.6 152.4 267.8 153.95 265 154.8 263.2 154.85 262.65 154.95 262.2 154.95 261.25
L 154.95 253.05
M 85.35 256.7
Q 85.05 257.45 84.6 258.25 84.15 259.15 83.1 262.3
L 80.7 270.35
Q 80.1 272.7 80 273.25 79.7 274.95 79.75 277.7 79.85 281.3 79.8 282.2
L 86.8 282.3 86.8 281.1
Q 88.4 281.3 89.85 280.3 91.25 279.25 91.6 277.7 91.7 276.5 91.85 275.95 92.45 274.75 92.65 274.05 92.85 273.45 92.85 272.1
L 92.85 256.15 86.15 256.1
Q 85.85 256.1 85.7 256.2 85.55 256.25 85.35 256.7
M 65.4 335.45
Q 61.45 338.75 59.85 342.2 57.75 346.6 58.65 351.3
L 65.35 351.3
Q 66.85 348.35 68.8 346 71.4 342.85 73.95 342.1 74.25 342 75.35 341.8 76.25 341.65 76.75 341.45 77.7 341.15 79.6 339.65 83.45 336.65 87.9 334.6 90.4 333.5 92.15 333.2 93.7 332.9 96.2 332.9
L 107.85 332.7
Q 119.55 332.5 125.75 333.2 135.6 334.35 142.6 338.1 143.75 338.75 145.95 340.05 147.95 341.2 149.4 341.75 153.2 343.25 156.75 342.5 157.85 339.45 157.15 335.9 156.5 332.65 154.5 329.75 151.6 325.55 144.5 320.9 140.05 318.1 137.2 317.45 135.4 317 131 316.9
L 113.85 316.9
Q 107.85 316.9 103.9 317.5 100.35 318.1 96.05 319.65 93.65 320.5 88.5 322.65 80.45 326.05 76.4 328.15 69.9 331.55 65.4 335.45
M 129.75 324.1
Q 133.35 324.75 135.65 326.6 128.85 325.8 120.15 325.65 115.4 325.55 104.6 325.65 108.55 324.35 113.75 323.95 116.9 323.7 123.15 323.7 127.4 323.7 129.75 324.1
M 148.95 195.25
Q 148.85 195.5 148.25 196.95 146.95 200.2 143.45 204.95
L 129 224.4
Q 126.75 227.5 126.25 229.2 125.9 230.45 125.9 233.6
L 125.95 239.1
Q 125.95 239.9 126.25 240.25 126.6 240.6 127.5 240.6
L 133.4 240.65
Q 132.6 237.3 134.65 233.3 135.75 231.3 139.1 227.2 142.1 223.45 146.75 217.05
L 150.55 211.85
Q 152.95 208.55 153.7 206.95 154.9 204.2 155.7 202.95 156.45 201.9 156.8 201.35 157.5 200.4 157.75 199.7 158.15 198.55 158 196.4 157.8 194 157.95 193.05 157.1 193.2 155.95 193.1 154.6 192.95 153.9 192.9 151.3 192.7 150 193.85 149.4 194.35 148.95 195.25
M 67.4 195.15
L 60.2 195
Q 60.3 195.9 60.2 198.25 60.1 200.3 60.35 201.45 60.7 203.15 62.65 206 71.1 218.55 76.2 224.6 77.2 225.75 83.15 232.4 87.45 237.15 89.8 240.45 91.25 242.5 92.35 243.05 93.55 243.65 95.8 243.4 98.45 243.1 99.4 243.35 99.8 239.35 99.25 237.25 99 236.2 98.3 235 97.7 233.9 96.25 232.4
L 86.75 221.75
Q 75.95 209.4 67.4 195.15
M 26.5 400.05
Q 24.3 399.95 23.05 400.15 21.8 400.35 20.2 401.1 18.4 402 17.5 402.4 15.4 403.35 14.35 403.85 12.55 404.75 11.4 405.6 7.6 408.3 5.3 413.45 3.8 416.7 2.25 423.05 1.15 427.45 0.9 429.65 0.65 431.8 0.7 435.2 0.75 439.6 0.7 440.75 0.65 443.8 0.65 443.95 0.7 445.75 1.2 447 2.1 449.15 4.75 451.05 6.2 452.15 6.45 452.8 6.7 453.4 6.65 455.3 6.55 456.85 7.2 457.5
L 18.15 457.55
Q 19.1 457.55 19.45 457.2 19.75 456.9 19.85 456.05 20.75 447.6 20.5 443.3
L 9.9 442.85
Q 8 440.75 7.6 439.25 7.25 437.85 7.85 435.5 9.85 425.8 11.7 421.25 12.8 418.4 14.2 416.5 16.65 413.1 21.25 410.6 24.2 408.95 29.95 406.85
L 29.95 400.15
Q 29.05 400.2 26.5 400.05
M 213.9 442.55
Q 214.25 444.1 213.95 445.2 213.65 446.05 212.75 447.25
L 208.7 452.65
Q 209.040625 452.2255859375 208.8 451.6 208.6 451 208.1 450.7 207.45 450.3 205.85 450.3
L 198.4 450.25
Q 198.2 451.6 198.25 452.9
L 194.7 453.35
Q 194.65 457.3 194.8 462.25 196.2 462.1 201.45 462.4 205.55 462.65 207.85 461.65 209.55 460.85 209.85 460.8 210.4 460.65 211.55 460.7 212.7 460.75 213.25 460.65 215.05 460.35 216.65 458.15 218.15 455.65 219.05 454.5 220.35 453 220.6 452.45 221.05 451.45 221.05 449.45
L 221.05 442.1
Q 221.05 437.9 220.6 435.85 220 433.2 217.7 428.85 208.55 411.95 198.55 402.4 195.75 399.7 193.65 399.15 192.5 398.85 190.65 398.85 187.95 398.85 187.6 398.8 187.85 399.8 187.55 402.35 187.3 404.65 187.9 405.75 188.35 406.55 189.75 407.65 196.2 412.9 202 421.2 206.25 427.2 211.5 437 213.4 440.6 213.9 442.55
M 169.05 456.35
Q 166.85 456.85 163.8 457.9
L 153.35 461.3
Q 148.1 463 145.65 463.65 141.3 464.85 137.7 465.25 137.8 464.05 138.5 460.1
L 140.8 448.4
Q 141.5 444.9 141.7 443 142 440 141.65 437.6
L 135.7 437.5
Q 135 437.4 134.6 437.75 134.45 437.95 134.35 438.45
L 129.75 464.25
Q 129.15 468 129 469.9 128.75 473.05 129.15 475.55 144 475.4 179.9 474.25
L 179.85 455.9
Q 174.45 455.15 169.05 456.35
M 85.35 440.5
Q 84.8 437.85 84.9 435.7
L 77.95 435.6
Q 77.2 441.75 78.9 449.35 79.95 453.95 82.95 462.8 68.6 462.2 54 463.8 48 464.5 39.95 465.8 37.75 466.1 37.05 467.15 36.65 467.8 36.65 469.35
L 36.65 475.75
Q 64.55 476.45 92.4 475 92.7 472.4 92.7 469.7 92.6 465.2 91.75 461.8
L 86.6 445.15
Q 85.7 442.05 85.35 440.5 Z" stroke="none" fill="#000000"></path>

<path d="M 135.65 326.6
Q 133.35 324.75 129.75 324.1 127.4 323.7 123.15 323.7 116.9 323.7 113.75 323.95 108.55 324.35 104.6 325.65 115.4 325.55 120.15 325.65 128.85 325.8 135.65 326.6 Z" stroke="none" fill="#FFFFFF"></path>
</g>
</g>
</g>
</g>
</g>

<g transform="matrix( 0.3621063232421875, 0, 0, 0.3621063232421875, -594.2,0.1)" id="Layer_2"></g>

<g transform="matrix( 0.3621063232421875, 0, 0, 0.3621063232421875, -594.2,0.1)" id="Layer_3"></g>

<g transform="matrix( 0.3621063232421875, 0, 0, 0.3621063232421875, -594.2,0.1)" id="Layer_2"></g>

<g transform="matrix( 0.3621063232421875, 0, 0, 0.3621063232421875, -594.2,0.1)" id="Layer_3"></g>

<g transform="matrix( 0.3621063232421875, 0, 0, 0.3621063232421875, -594.2,0.1)" id="Layer_6"></g>

<g transform="matrix( 0.3621063232421875, 0, 0, 0.3621063232421875, -594.2,0.1)" id="MergedLayer_1"></g>
</g>
</svg>
