
<svg viewBox="0 0 112 184" height="184px" width="112px" y="0px" x="0px" preserveAspectRatio="none" xmlns:xlink="http://www.w3.org/1999/xlink" version="1.1" xmlns="http://www.w3.org/2000/svg">
<defs></defs>

<g id="fun_scrollers">
<g transform="matrix( 0.3621063232421875, 0, 0, 0.3621063232421875, -594.2,0.1)" id="svg"></g>

<g transform="matrix( 0.3621063232421875, 0, 0, 0.3621063232421875, -594.2,0.1)" id="Layer_2">
<g>
<g>
<g>
<path d="M 1804.2 110.45
Q 1803.565625 110.11171875 1802.9 109.8
L 1802.4 109.8
Q 1801.75 109.45 1801.15 109.2 1798.75 108.7 1797.9 108.6 1797.1 108.5 1794.45 108.4
L 1757.55 106
Q 1748.45 105.35 1739.3 104.8 1729.4 104.2 1724.45 103.8
L 1714.25 102.95
Q 1710.7 103.15 1707 104.1 1706.8681640625 104.1494140625 1706.7 104.2
L 1706.6 104.25
Q 1694.45 109.25 1690.85 111.65 1687.35 114.05 1678.25 123.2
L 1676.45 125.8
Q 1674.8 129.5 1674.05 134.05 1673.65 136.55 1673.1 142.6
L 1669.5 179.1
Q 1668.3 191.65 1666.2 209 1663.65 230.7 1657.8 287.45
L 1650.25 360.2
Q 1649.9 364.25 1649 372.35
L 1645.25 410.45
Q 1644.85 415 1645.55 418.85 1646.25 422.3 1648.15 426.75 1649.95 429.5 1651.45 430.65 1652.95 432 1655.95 433.05 1664.55 435.4 1677.05 436.3 1684.25 436.8 1698.55 437.4
L 1764 441.05
Q 1772.7240234375 441.2365234375 1777.55 440.75 1778.0029296875 440.6162109375 1778.4 440.45
L 1780.5 437.05 1785.75 432.5
Q 1789.05 429.6 1789.95 428.45 1790.9 427.35 1792.95 423.6 1793.75 419.4 1794.55 410.9
L 1797.35 381.25
Q 1800.5 347 1803 324.3 1806.4 293.25 1810.15 267.45
L 1814.3 239.5
Q 1814.85 236.75 1815.6 233.85 1816.5 230.05 1817.15 225.45
L 1821.35 195.7
Q 1824.45 173.95 1825.55 161.65
L 1825.8 159.15
Q 1826.6 149.3 1825.25 141.3 1823.75 132.2 1819.4 124.55 1814.85 117.5 1806.7 112
L 1804.2 110.45
M 1708.3 228.8
Q 1730.35 230.3 1731.65 230.4
L 1740.25 230.8
Q 1756 231.7 1767.6 231.45 1774.5 231.3 1783.75 231.75
L 1792.75 232.1 1794.9 232.7
Q 1796.65 236.8 1796.9 243.45
L 1797.35 246.45
Q 1797.55 248.75 1797.5 249.5 1797.45 250.35 1797.35 252.6
L 1795.8 254.9
Q 1787.55 255.95 1776.65 253.8
L 1775.8 251.8
Q 1771.8 251.55 1767.8 251.55
L 1759.8 251.4
Q 1756.85 251.4 1742.25 250.9 1731.8 250.6 1726.7 250.6 1720 250.5 1711.65 250.2 1707.85 250.1 1705.9 250.2 1697.8 250.15 1695.9 249.8 1693.9 249.4 1690.35 247.05 1687.65 239.3 1690.9 227.95 1691.15 227.6 1708.3 228.8
M 1685.4 385.7
L 1690.45 386.05
Q 1694.95 386.35 1703.95 387.2 1710.65 387.8 1717.25 388.25 1725.05 388.8 1733 389.55 1747.8 391 1757.35 391.2
L 1773.4 391.75
Q 1780.65 391.8 1782.35 392.05 1784.1 392.35 1787.25 394.05 1788.05 397.75 1787.6 401.75 1787.25 404.85 1785.9 409.35
L 1784.85 410.25
Q 1778.7 410.25 1773.9 410.05
L 1770.45 409.95
Q 1759.85 409.6 1738.75 408.7 1729.3 408.2 1717.5 407.9 1707.25 407.65 1696.95 407.05
L 1689.1 406.8
Q 1676.55 406.5 1673.85 406.1 1671.15 405.75 1667.6 403.7 1666.2 400.7 1666 399.65 1665.8 398.55 1665.75 394.95 1666.6 391.5 1667 390.4 1667.45 389.4 1669.15 386.45 1672.65 384.9 1677.15 384.95 1679 384.95 1685.4 385.7
M 1796.1 176.9
Q 1798.1 178.8 1799.3 180.95 1800.35 182.85 1801.05 185.85 1801.45 190.4 1800.65 196.75
L 1800.4 199.55
Q 1799.95 203.65 1799.25 205.5 1798.4 207.8 1796 210.55
L 1794.65 214.35
Q 1789.9 216.25 1783.1 216.6 1779.9 216.75 1771.35 216.45
L 1768.7 216.4
Q 1765.3 216.2 1763.35 215.6 1761 214.9 1758.6 213.1 1755.85 209.65 1755.2 208.7 1754.7 207.7 1753.95 205.35 1753.85 202.3 1753.9 201.25 1753.95 200.2 1754.25 196.8
L 1754.6 192.25
Q 1755.25 188.95 1756.35 187 1757.35 185.15 1759.85 182.6
L 1761.8 180.5
Q 1766.6 176.7 1772.4 175.65 1776.2 174.95 1784 175.2
L 1787.3 175.3
Q 1792.5 175.6 1796.1 176.9
M 1797.8 128.7
Q 1798.8 128.8 1799.8 128.95 1800.75 129.1 1801.8 129.3 1802.65 129.4 1803.5 129.6 1804.35 129.75 1805.3 130 1806.1 130.2 1806.9 130.45 1807.7 130.7 1808.45 131 1809.15 131.25 1809.7 131.65 1810.7 132.5 1811.55 133.5
L 1809.25 159.45 1809.45 159.45 1808.75 165.15 1806.85 165.05 1806.4 169.85
Q 1804.65 170.1 1804 170.2 1803.3 170.2 1800.9 170.05 1792.4 169.95 1782.7 171.5
L 1768.75 173.75
Q 1750.05 176.85 1745.55 176.75 1741 176.7 1732.7 173.05 1724.75 169.85 1717.2 168.95 1712 168.25 1706.3 165.8 1702.5 164.3 1696.1 160.8
L 1691.3 159.25 1687.7 157.5
Q 1687.35 155.25 1687.4 154.5 1687.5 153.8 1688.25 151.75 1692.25 151.15 1696.6 151.55
L 1743.85 154.5
Q 1757.65 155.25 1771.4 156.15
L 1774.15 156.35
Q 1780.85 156.8 1788.5 157.65
L 1797.1 158.8
Q 1799.2 159.05 1799.95 159.1 1800.720703125 159.1482421875 1803.3 159.1 1803.3990234375 159.1 1803.5 159.1
L 1803.85 155.35
Q 1803.35 155.25 1802.9 155.2 1801.8 155.05 1800.75 155 1799.6 154.9 1798.4 154.85 1797.15 154.8 1795.95 154.75 1794.65 154.7 1793.4 154.65 1788.05 154.55 1782.75 154.5 1781.95 154.5 1781.1 154.55 1780.15 154.5 1779.2 154.5 1778.15 154.45 1777.1 154.45 1775.95 154.4 1774.8 154.35 1773.5 154.3 1772.25 154.3 1770.85 154.2 1769.5 154.2 1768.05 154.1 1766.6 154.1 1765 154 1763.45 153.9 1762.35 153.85 1761.2 153.85 1760.55 153.8 1759.95 153.75 1759.15 153.65 1758.45 153.65 1756.75 153.5 1755.05 153.4 1752.15 153 1749.3 152.8 1746.7 152.65 1744.1 152.5 1741.45 152.3 1738.85 152.2 1733.4 152 1727.95 151.85
L 1693.25 149.9
Q 1692.5 149.6 1691.8 149.15 1691.5 149.1 1691.25 148.95 1691 148.75 1690.8 148.65 1690.65 148.55 1690.55 148.45 1690.4 148.35 1690.3 148.25 1690.25 148.15 1690.2 148.1 1690.15 147.9 1690.05 147.75 1689.9 147.45 1689.85 147.2 1689.7 146.8 1689.65 146.35 1689.5 144.95 1689.45 143.5 1689.4 142 1689.45 140.55 1689.45 139.15 1689.6 137.75 1689.65 136.3 1689.9 134.85 1690.05 133.5 1690.4 132.15 1691.05 129.4 1691.75 126.75 1692.1916015625 125.37578125 1692.6 124.1
L 1692.65 123.95 1693.7 123 1694.9 123.05
Q 1695.299609375 122.9251953125 1695.7 122.8 1696.55 122.6 1697.4 122.5 1698.2 122.4 1699.1 122.3 1699.25 122.3 1699.45 122.3 1699.6 122.3 1699.85 122.35 1700.15 122.35 1700.5 122.35 1700.8 122.4 1701.2 122.4 1701.7 122.45 1702.15 122.45 1702.7 122.5 1703.2 122.5 1703.85 122.55 1704.45 122.6 1705.15 122.6 1705.85 122.65
L 1795.7 128.45
Q 1796.75 128.55 1797.8 128.7 Z" stroke="none" fill="#F5F7F9"></path>

<path d="M 1799.8 128.95
Q 1798.8 128.8 1797.8 128.7 1796.75 128.55 1795.7 128.45
L 1705.85 122.65
Q 1705.15 122.6 1704.45 122.6 1703.85 122.55 1703.2 122.5 1702.7 122.5 1702.15 122.45 1701.7 122.45 1701.2 122.4 1700.8 122.4 1700.5 122.35 1700.15 122.35 1699.85 122.35 1699.6 122.3 1699.45 122.3 1699.25 122.3 1699.1 122.3 1698.2 122.4 1697.4 122.5 1696.55 122.6 1695.7 122.8 1695.299609375 122.9251953125 1694.9 123.05
L 1693.7 123 1692.65 123.95 1692.6 124.1
Q 1692.1916015625 125.37578125 1691.75 126.75 1691.05 129.4 1690.4 132.15 1690.05 133.5 1689.9 134.85 1689.65 136.3 1689.6 137.75 1689.45 139.15 1689.45 140.55 1689.4 142 1689.45 143.5 1689.5 144.95 1689.65 146.35 1689.7 146.8 1689.85 147.2 1689.9 147.45 1690.05 147.75 1690.15 147.9 1690.2 148.1 1690.25 148.15 1690.3 148.25 1690.4 148.35 1690.55 148.45 1690.65 148.55 1690.8 148.65 1691 148.75 1691.25 148.95 1691.5 149.1 1691.8 149.15 1692.5 149.6 1693.25 149.9
L 1727.95 151.85
Q 1733.4 152 1738.85 152.2 1741.45 152.3 1744.1 152.5 1746.7 152.65 1749.3 152.8 1752.15 153 1755.05 153.4 1756.75 153.5 1758.45 153.65 1759.15 153.65 1759.95 153.75 1760.55 153.8 1761.2 153.85 1762.35 153.85 1763.45 153.9 1765 154 1766.6 154.1 1768.05 154.1 1769.5 154.2 1770.85 154.2 1772.25 154.3 1773.5 154.3 1774.8 154.35 1775.95 154.4 1777.1 154.45 1778.15 154.45 1779.2 154.5 1780.15 154.5 1781.1 154.55 1781.95 154.5 1782.75 154.5 1788.05 154.55 1793.4 154.65 1794.65 154.7 1795.95 154.75 1797.15 154.8 1798.4 154.85 1799.6 154.9 1800.75 155 1801.8 155.05 1802.9 155.2 1803.35 155.25 1803.85 155.35
L 1803.5 159.1 1809.25 159.45 1811.55 133.5
Q 1810.7 132.5 1809.7 131.65 1809.15 131.25 1808.45 131 1807.7 130.7 1806.9 130.45 1806.1 130.2 1805.3 130 1804.35 129.75 1803.5 129.6 1802.65 129.4 1801.8 129.3 1800.75 129.1 1799.8 128.95 Z" stroke="none" fill="#110F1A"></path>

<path d="M 1803.5 159.1
Q 1803.3990234375 159.1 1803.3 159.1 1800.720703125 159.1482421875 1799.95 159.1 1799.2 159.05 1797.1 158.8
L 1788.5 157.65
Q 1780.85 156.8 1774.15 156.35
L 1771.4 156.15
Q 1757.65 155.25 1743.85 154.5
L 1696.6 151.55
Q 1692.25 151.15 1688.25 151.75 1687.5 153.8 1687.4 154.5 1687.35 155.25 1687.7 157.5
L 1691.3 159.25 1696.1 160.8
Q 1702.5 164.3 1706.3 165.8 1712 168.25 1717.2 168.95 1724.75 169.85 1732.7 173.05 1741 176.7 1745.55 176.75 1750.05 176.85 1768.75 173.75
L 1782.7 171.5
Q 1792.4 169.95 1800.9 170.05 1803.3 170.2 1804 170.2 1804.65 170.1 1806.4 169.85
L 1806.85 165.05 1808.75 165.15 1809.45 159.45 1809.25 159.45 1803.5 159.1 Z" stroke="none" fill="#992A3F"></path>

<path d="M 1799.3 180.95
Q 1798.1 178.8 1796.1 176.9 1792.5 175.6 1787.3 175.3
L 1784 175.2
Q 1776.2 174.95 1772.4 175.65 1766.6 176.7 1761.8 180.5
L 1759.85 182.6
Q 1757.35 185.15 1756.35 187 1755.25 188.95 1754.6 192.25
L 1754.25 196.8
Q 1753.95 200.2 1753.9 201.25 1753.85 202.3 1753.95 205.35 1754.7 207.7 1755.2 208.7 1755.85 209.65 1758.6 213.1 1761 214.9 1763.35 215.6 1765.3 216.2 1768.7 216.4
L 1771.35 216.45
Q 1779.9 216.75 1783.1 216.6 1789.9 216.25 1794.65 214.35
L 1796 210.55
Q 1798.4 207.8 1799.25 205.5 1799.95 203.65 1800.4 199.55
L 1800.65 196.75
Q 1801.45 190.4 1801.05 185.85 1800.35 182.85 1799.3 180.95
M 1783.8 181.85
Q 1787.3 182.05 1790.8 182.4 1791.7 183.45 1792.1 184.05 1792.45 184.7 1793.75 187.35 1795.3 190.8 1795.5 194 1795.7 196.6 1794.9 200.9
L 1793.85 201.8
Q 1792.6 204.3 1792 205.1 1791.45 205.9 1789.4 208.3 1784.25 210.5 1778.35 210.8 1773.3 211.05 1767.05 209.9 1763.95 208.65 1763.2 208 1762.4 207.35 1760.75 204.8 1759.25 200.2 1759.7 195.1 1762.35 190.45 1763.55 189.1 1764.75 187.9 1769.2 184.6 1771.95 182.85 1774.3 182.25 1776.65 181.6 1779.95 181.6
L 1783.8 181.85 Z" stroke="none" fill="#5D5A76"></path>

<path d="M 1790.8 182.4
Q 1787.3 182.05 1783.8 181.85
L 1779.95 181.6
Q 1776.65 181.6 1774.3 182.25 1771.95 182.85 1769.2 184.6 1764.75 187.9 1763.55 189.1 1762.35 190.45 1759.7 195.1 1759.25 200.2 1760.75 204.8 1762.4 207.35 1763.2 208 1763.95 208.65 1767.05 209.9 1773.3 211.05 1778.35 210.8 1784.25 210.5 1789.4 208.3 1791.45 205.9 1792 205.1 1792.6 204.3 1793.85 201.8
L 1794.9 200.9
Q 1795.7 196.6 1795.5 194 1795.3 190.8 1793.75 187.35 1792.45 184.7 1792.1 184.05 1791.7 183.45 1790.8 182.4 Z" stroke="none" fill="#F1F3F7"></path>

<path d="M 1690.45 386.05
L 1685.4 385.7
Q 1679 384.95 1677.15 384.95 1672.65 384.9 1669.15 386.45 1667.45 389.4 1667 390.4 1666.6 391.5 1665.75 394.95 1665.8 398.55 1666 399.65 1666.2 400.7 1667.6 403.7 1671.15 405.75 1673.85 406.1 1676.55 406.5 1689.1 406.8
L 1696.95 407.05
Q 1707.25 407.65 1717.5 407.9 1729.3 408.2 1738.75 408.7 1759.85 409.6 1770.45 409.95
L 1773.9 410.05
Q 1778.7 410.25 1784.85 410.25
L 1785.9 409.35
Q 1787.25 404.85 1787.6 401.75 1788.05 397.75 1787.25 394.05 1784.1 392.35 1782.35 392.05 1780.65 391.8 1773.4 391.75
L 1757.35 391.2
Q 1747.8 391 1733 389.55 1725.05 388.8 1717.25 388.25 1710.65 387.8 1703.95 387.2 1694.95 386.35 1690.45 386.05
M 1731.65 230.4
Q 1730.35 230.3 1708.3 228.8 1691.15 227.6 1690.9 227.95 1687.65 239.3 1690.35 247.05 1693.9 249.4 1695.9 249.8 1697.8 250.15 1705.9 250.2 1707.85 250.1 1711.65 250.2 1720 250.5 1726.7 250.6 1731.8 250.6 1742.25 250.9 1756.85 251.4 1759.8 251.4
L 1767.8 251.55
Q 1771.8 251.55 1775.8 251.8
L 1776.65 253.8
Q 1787.55 255.95 1795.8 254.9
L 1797.35 252.6
Q 1797.45 250.35 1797.5 249.5 1797.55 248.75 1797.35 246.45
L 1796.9 243.45
Q 1796.65 236.8 1794.9 232.7
L 1792.75 232.1 1783.75 231.75
Q 1774.5 231.3 1767.6 231.45 1756 231.7 1740.25 230.8
L 1731.65 230.4 Z" stroke="none" fill="#9DAEEA"></path>

<path d="M 1807.8 98.3
L 1808.05 96.05 1808.3 93.85 1807.95 93.8 1807.35 93.75
Q 1807.75 98.45 1807.55 100.6 1807.4 104.1 1806.15 107.2 1801.65 108.1 1799.7 108.25
L 1799.65 108.75
Q 1801.3015625 109.108984375 1802.9 109.8 1803.565625 110.11171875 1804.2 110.45
L 1806.7 112
Q 1814.85 117.5 1819.4 124.55 1823.75 132.2 1825.25 141.3 1826.6 149.3 1825.8 159.15
L 1825.55 161.65
Q 1824.45 173.95 1821.35 195.7
L 1817.15 225.45
Q 1816.5 230.05 1815.6 233.85 1814.85 236.75 1814.3 239.5
L 1810.15 267.45
Q 1806.4 293.25 1803 324.3 1800.5 347 1797.35 381.25
L 1794.55 410.9
Q 1793.75 419.4 1792.95 423.6 1790.9 427.35 1789.95 428.45 1789.05 429.6 1785.75 432.5
L 1780.5 437.05 1778.4 440.45 1778.25 440.7
Q 1777.9220703125 440.7369140625 1777.55 440.75 1772.7240234375 441.2365234375 1764 441.05
L 1698.55 437.4
Q 1684.25 436.8 1677.05 436.3 1664.55 435.4 1655.95 433.05 1652.95 432 1651.45 430.65 1649.95 429.5 1648.15 426.75 1646.25 422.3 1645.55 418.85 1644.85 415 1645.25 410.45
L 1649 372.35
Q 1649.9 364.25 1650.25 360.2
L 1657.8 287.45
Q 1663.65 230.7 1666.2 209 1668.3 191.65 1669.5 179.1
L 1673.1 142.6
Q 1673.65 136.55 1674.05 134.05 1674.8 129.5 1676.45 125.8
L 1678.25 123.2
Q 1687.35 114.05 1690.85 111.65 1694.45 109.25 1706.6 104.25
L 1706.7 104.2 1710 102.8
Q 1708.8 102.4 1707.2 101.65
L 1707.1 99.5
Q 1707.1 99.4 1708.1 92.1
L 1707.5 92.05 1707.1 92.05 1706.65 96.8 1704.7 96.7
Q 1695.25 100.3 1689.65 103.2 1681.65 107.3 1676.35 112.6 1671.9 118.1 1669.4 125.3 1667.35 131.25 1666.5 139.4
L 1661.6 188.15
Q 1660.6 199.45 1658.3 221.8
L 1656.5 240
Q 1654.85 256.5 1654.55 259.3 1653.35 270.3 1652.2 278.65 1650.75 288.35 1649.7 301.15 1647.65 325 1645.55 343.15 1642.25 372.8 1640.5 391
L 1638.7 410.4
Q 1637.9 419.15 1638.6 424.25 1640.45 431.2 1646.1 436.6 1649.5 438.65 1653.7 439.8 1657.05 440.7 1661.85 441.3
L 1727.95 446.35
Q 1744.65 447.65 1751.25 447.9 1764.4 448.35 1774.75 447.25 1781.15 446.05 1785.85 443.1 1789.95 440.65 1794.95 435.55 1799.45 429.15 1800.5 424.1 1801.6 419 1803.6 395
L 1805.15 376.35
Q 1808 341.85 1810.7 317.4 1814.2 285.5 1818.5 258.65 1821.75 238.45 1825.6 211.05
L 1829.3 185.95
Q 1832.2 166.15 1832.45 156.1 1832.85 139.6 1828.55 126.7 1825.9 120.3 1823.25 116.35 1819.75 111.15 1815.05 108.25 1810.65 105.65 1808.4 103.45 1808.274609375 102.9859375 1808.15 102.6 1807.8875 101.4244140625 1807.85 100.9 1807.75 100.3 1807.8 98.3 Z" stroke="none" fill="#706C84"></path>

<path d="M 1808.05 96.05
L 1807.8 98.3
Q 1807.75 100.3 1807.85 100.9 1807.8875 101.4244140625 1808.15 102.6
L 1808.05 100.35
Q 1808.1130859375 98.1431640625 1808.05 96.05
M 1799 24.25
Q 1792.7 19.75 1786.35 17.35 1780 15.05 1772.1 14.35
L 1768.35 14.1
Q 1743.25 12.2 1720.25 13.2
L 1716.85 13.35
Q 1709.2 13.65 1704.65 14.25 1697.9 14.95 1692.6 16.45 1691.65 18.05 1691.4 19.15 1691.15 20.2 1690.7 25.15
L 1690.5 27.9
Q 1690.25 29.85 1689.85 33.75 1689.65 37.15 1690.55 39.4 1693.3 41.05 1694.1 41.4 1694.95 41.7 1696.95 42.05
L 1720.1 43.95
Q 1718.55 47.4 1717.6 51.4 1716.85 54.35 1716.15 59.05 1714.85 67.4 1714.25 70.35 1712.9 76.65 1710.85 81.3 1708.5720703125 86.311328125 1707.5 92.05
L 1708.1 92.1
Q 1707.1 99.4 1707.1 99.5
L 1707.2 101.65
Q 1708.8 102.4 1710 102.8
L 1706.7 104.2
Q 1706.8681640625 104.1494140625 1707 104.1 1710.7 103.15 1714.25 102.95
L 1724.45 103.8
Q 1729.4 104.2 1739.3 104.8 1748.45 105.35 1757.55 106
L 1794.45 108.4
Q 1797.1 108.5 1797.9 108.6 1798.75 108.7 1801.15 109.2 1801.75 109.45 1802.4 109.8
L 1802.9 109.8
Q 1801.3015625 109.108984375 1799.65 108.75
L 1799.7 108.25
Q 1801.65 108.1 1806.15 107.2 1807.4 104.1 1807.55 100.6 1807.75 98.45 1807.35 93.75
L 1807.95 93.8
Q 1807.843359375 92.11640625 1807.65 90.5 1805.75 75.1 1807.75 55.05
L 1808.7 46.45
Q 1809.45 40.2 1808.75 36.1 1807.75 33.05 1806.15 30.7 1804.6 28.55 1801.95 26.3
L 1799 24.25
M 1788.4 25.7
Q 1788.35 26.05 1794.5 31.15 1800.7 37.2 1801.1 42.15 1801.2 42.95 1801.25 43.75
L 1730.05 40.75 1729.4 37.85 1696.75 35
Q 1694.55 28.8 1696.95 22.5 1743.5 11.5 1788.4 25.7
M 1800.55 51.35
Q 1801.2 53.05 1801.3 54.65 1801.3 55.5 1801.1 58.1
L 1800.7 64.3
Q 1799.9 78.45 1801.15 91.95 1801.55 97.6 1800.9 101.4
L 1798.85 103.25
Q 1795.45 103.3 1790.75 103.05
L 1713.3 98.5
Q 1714.65 91.55 1715.05 89.9 1715.5 88.2 1716.85 84.9 1719.25 78.7 1720.85 68.5 1722.9 55.75 1725.55 48.1
L 1728.7 45.4
Q 1730.8 45.3 1731.6 45.3 1732.45 45.3 1735.05 45.45
L 1792.85 48.75
Q 1797.15 49.35 1800.55 51.35 Z" stroke="none" fill="#7E1A34"></path>

<path d="M 1801.3 54.65
Q 1801.2 53.05 1800.55 51.35 1797.15 49.35 1792.85 48.75
L 1735.05 45.45
Q 1732.45 45.3 1731.6 45.3 1730.8 45.3 1728.7 45.4
L 1725.55 48.1
Q 1722.9 55.75 1720.85 68.5 1719.25 78.7 1716.85 84.9 1715.5 88.2 1715.05 89.9 1714.65 91.55 1713.3 98.5
L 1790.75 103.05
Q 1795.45 103.3 1798.85 103.25
L 1800.9 101.4
Q 1801.55 97.6 1801.15 91.95 1799.9 78.45 1800.7 64.3
L 1801.1 58.1
Q 1801.3 55.5 1801.3 54.65 Z" stroke="none" fill="#E21F2D"></path>

<path d="M 1794.5 31.15
Q 1788.35 26.05 1788.4 25.7 1743.5 11.5 1696.95 22.5 1694.55 28.8 1696.75 35
L 1729.4 37.85 1730.05 40.75 1801.25 43.75
Q 1801.2 42.95 1801.1 42.15 1800.7 37.2 1794.5 31.15 Z" stroke="none" fill="#DF202E"></path>
</g>
</g>
</g>
</g>

<g transform="matrix( 0.3621063232421875, 0, 0, 0.3621063232421875, -594.2,0.1)" id="Layer_3">
<g>
<g>
<g>
<path d="M 1679.55 439.55
L 1672.75 439.4
Q 1673.4 441.6 1670.5 444.2 1668.9 445.65 1665.65 447.9 1662.2 450.35 1660.75 451.55 1659.1 452.95 1655.95 456.15 1652.85 459.3 1651.1 460.75 1649.1 462.35 1644.2 465.4 1640.5 467.65 1638.55 468.65 1635.3 470.3 1632.5 471
L 1632.5 469.7
Q 1631.3421875 469.330078125 1630.2 468.75
L 1630.2 480.3
Q 1632.5005859375 480.357421875 1635.3 479.6 1640.85 478.1 1649.2 473.25 1654.85 470.05 1657.85 467.5 1659.45 466.2 1662.05 463.55 1664.9 460.7 1666.2 459.55 1669 457 1675.1 452.8 1678.1 450.7 1678.95 449 1679.75 447.35 1679.6 444.4 1679.4 440.5 1679.55 439.55
M 1630.2 372.8
L 1630.2 380.6
Q 1632.3494140625 380.956640625 1634.85 381.35 1642.55 382.3 1648.2 381.6
L 1648.2 375.05
Q 1643.65 374.95 1636.95 373.9 1633.0833984375 373.25546875 1630.2 372.8
M 1727.1 272.1
Q 1727.8 270.35 1727.7 266.9
L 1727.6 257.7
Q 1719.35 255.85 1710.1 255.05 1707.3 254.85 1705.95 254.55 1702.85 253.5 1701.3 253.05 1698.95 252.3 1694.8 251.85 1686.05 250.85 1678.65 250.8
L 1678.65 249.7
Q 1678.05 249.75 1675.45 249.6 1675.25 249.6 1675.1 249.6
L 1675.1 249.4
Q 1675.1 248.2 1674.9 247.6 1674.8 247.35 1674.05 245.95 1673.5 244.4 1673.15 243.65 1672.65 242.45 1671.25 240.7
L 1667.6 235.9
Q 1665.45 233.2 1664.65 231.45 1664.25 230.45 1663.95 230.1 1663.55 229.65 1663.4 229.45 1663.35 229.35 1663 228.45 1662.8 227.8 1662.45 227.6 1662.35 227.55 1661.55 227.4
L 1655 227.35 1655 234.1
Q 1655.65 234.1 1655.95 234.9 1656.15 235.3 1656.45 236.15
L 1657 236.85
Q 1657.15 237.05 1658.1 238.8 1658.8 240.2 1660.75 242.8
L 1664.1 247.2
Q 1666.6 250.4 1667.1 252.4 1667.35 253.3 1667.45 253.5 1667.45 253.55 1667.5 253.6 1666.65 254.95 1666.25 256.65 1665.75 258.7 1665.75 261.45 1665.75 261.95 1665.95 266.3 1666.05 268.25 1666.1 272.15 1666.25 275.55 1666.7 277.9 1667.95 284.6 1672.15 287.9 1674.85 290 1679.05 290.65 1681.8 291.1 1686.75 291.05
L 1692.2 291
Q 1696.1 291 1698.35 290.85 1701.75 290.65 1704.4 290.05 1706.95 289.45 1709.9 288.25
L 1709.9 288.85
Q 1709.9 290 1710.15 290.5 1710.4 291.1 1711.1 291.6 1711.55 291.9 1712.35 292.5 1713.1 293.1 1713.95 294.4 1714.95 295.95 1715.35 296.4 1716.2 297.25 1716.4 297.6 1716.5 297.8 1716.65 298.25 1716.85 298.6 1717.05 298.8
L 1717.65 299.25 1718.05 299.75
Q 1718.4 300.05 1719.4 300.15 1719.5 300.75 1720.25 301.05 1720.3 301.05 1720.35 301.1 1720.35 301.25 1720.4 301.45 1703.2 302.3 1675.75 304 1672.95 304.15 1671.3 304.65 1668.95 305.3 1667.8 306.9 1666.55 308.6 1666.45 312.45 1665.8 332.3 1667.8 348.8 1670.1 368 1676.15 384 1678.35 389.8 1680.4 393.3 1683.05 397.9 1686.95 401.85 1686.1 401.65 1685.3 401.5 1679.9 400.35 1645.65 395.1 1637.3728515625 393.8318359375 1630.2 392.35
L 1630.2 400.4
Q 1634.7470703125 401.270703125 1639.7 402.05 1672.6 407.2 1677.85 408.3 1689.95 410.85 1707.85 416.35 1735.6 424.85 1737.6 425.4 1753.4 429.9 1765.2 431.65 1780.35 433.9 1793.2 432.45
L 1793.2 426.2
Q 1779 426.35 1760.45 422.4 1770.35 421.1 1776.5 416.05 1780.2 413 1783.95 407.15 1792.9 393.15 1795.9 376.45 1797 370.3 1797.35 362.7 1797.6 357.35 1797.55 348.85 1797.5 340.45 1797.15 334
L 1805.75 334.1
Q 1807.55 334.1 1808.35 333.8 1808.9 333.55 1809.85 332.95 1810.6 332.6 1810.95 332.35 1812.7 331.2 1812.5 328.05 1812.35 326.45 1812.3 325.65 1812.2 324.2 1812.4 323.25
L 1805.55 323.1
Q 1805.45 324.45 1804.25 325.25
L 1803.2 325.75 1802.05 326.55
Q 1801.1 327.2 1799.2 327.15 1797.45 327.1 1796.65 327.2 1795.7 318.05 1793.85 310.45 1793 307.15 1792 305.2 1790.65 302.5 1788.5 301.2 1786.1 299.75 1780.6 299.75 1757.25 299.75 1728.4 301.05
L 1728.4 297.5
Q 1728.4 296 1727.9 295.45
L 1727.9 295.2
Q 1727.9 294.75 1727.8 294.55 1727.65 294.3 1726.9 294 1726.25 293.8 1726.25 293.3 1724.6 293.25 1723.7 291.5 1723.15 290.45 1723.05 290.3 1722.3 289.65 1721.95 289.3 1721.8 289.15 1721 287.8 1720.35 286.55 1719.1 285.55 1717.6 284.45 1717.45 284.3 1718.35 283.7 1719 283.2 1720.7 281.7 1723 278.4
L 1725.45 274.85
Q 1726.7 273.15 1727.1 272.1
M 1693.4 356
Q 1695.35 355.55 1698.4 357.7 1703 361 1711.25 368.7 1719.5 376.4 1724.05 379.65 1729.45 383.55 1739.3 388.45 1745 391.2 1749 392.7 1754.35 394.75 1759.1 395.6 1764.55 396.6 1769.65 396.05 1775.2 395.45 1779.65 393.05 1781 392.3 1781.95 391.8 1779.65 396.55 1776.75 400.85 1770.9 409.5 1764.4 412.7 1759.2 415.3 1751.95 415.35 1747.15 415.35 1738.9 414.05 1733.9 413.25 1729.65 412.4 1729.15 412.05 1728.3 411.65 1725.75 410.45 1723.1 408.2 1719.8 405.55 1716.1 401.65 1714.05 399.45 1709.7 394.45 1705.4 389.45 1703.6 386.8 1701.15 383.25 1697.7 376.3 1695.05 370.95 1693.95 368.15 1692.2 363.5 1691.85 359.55
L 1690.3 359.55 1690.3 359.5
Q 1690.6 358.25 1691.4 357.3 1692.25 356.3 1693.4 356
M 1781.15 327.3
Q 1775.2 330.85 1766.6 331.9 1761.1 332.6 1750.95 332.4
L 1739.55 332.25
Q 1732.35 332.15 1728.45 331.45 1722.35 330.35 1718.45 327.3 1716.7 325.95 1714.9 323.8 1713.85 322.5 1711.9 319.75 1710.1 317.15 1709.75 315.8 1709.4 314.35 1709.65 311.65 1709.75 310.3 1709.8 309.35 1720.65 308.7 1728.05 308.35 1753.3 307.1 1773.55 306.7 1776.05 306.65 1777.4 306.8 1779.5 307.05 1781 307.8 1783.7 309.15 1785.35 312.55 1786.55 315 1787.4 319.1 1787.95 321.8 1788.45 324.5 1786.55 324.55 1785.1 325.1 1784.05 325.5 1781.15 327.3
M 1761.7 441.9
L 1755.1 441.8
Q 1753.1 444.7 1750 447.8 1748 449.75 1744.1 453.1
L 1711.6 481.35
Q 1710.5 479.5 1709.95 477.25 1709.65 474.5 1709.25 473.2 1708.75 471.55 1706.85 468.65
L 1703.65 463.9
Q 1702.25 461.75 1701.05 461.2 1700.1 460.75 1698 460.75
L 1692.95 460.7
Q 1691.35 460.7 1690.75 461.25 1690.1 461.85 1690 463.5 1689.65 468.7 1689.8 471.5 1690 475.95 1691.25 479.25 1692.6 482.7 1696.15 486.9 1699.4 490.65 1702.1 491.65 1703.85 492.3 1707.2 492.4 1711.55 492.5 1713.7 491.65 1715.15 491.1 1716.7 489.95 1717.65 489.25 1719.4 487.7
L 1734.6 474.05
Q 1742.2 467.2 1747.9 462.35 1756.15 455.3 1756.35 455.1 1759.4 452.35 1760.55 450.45 1762.95 446.35 1761.7 441.9
M 1765.95 269.05
Q 1765.75 269.25 1765.75 269.7 1765.65 273.55 1765.85 275.5 1766.05 277.2 1766.45 279.05
L 1767.55 279.5
Q 1767.4 280.2 1768.1 280.55 1768.6 280.8 1769.35 280.8
L 1783.7 280.95
Q 1783.95 276.75 1783.7 272.55 1782.8 272.2 1780.8 271.05 1778.95 270 1777.85 269.6 1775.85 268.9 1771.5 268.9
L 1766.55 268.9
Q 1766.1 268.9 1765.95 269.05
M 1755.5 225.65
Q 1759.95 223.05 1765.85 220.4 1769 218.95 1776.5 215.8 1791.15 209.7 1798 207.35 1801.55 206.1 1803.65 206 1805.1 205.9 1805.55 205.4 1805.85 205 1805.85 204
L 1805.8 198.9
Q 1799.4 197.9 1789.95 200.95 1785.15 202.6 1777.8 205.6 1767.4 209.8 1762.3 212.1 1753.8 215.9 1747.4 219.75 1739.55 224.4 1735.8 229.05 1734.3 230.8 1733.85 232.5 1733.5 233.65 1733.6 235.6 1733.65 238.15 1733.6 238.8 1734.55 238.55 1737.05 238.85 1739.2 239.15 1740.3 238.6 1741.05 238.2 1742.2 236.6 1746.6 230.8 1755.5 225.65 Z" stroke="none" fill="#000000"></path>

<path d="M 1766.6 331.9
Q 1775.2 330.85 1781.15 327.3 1784.05 325.5 1785.1 325.1 1786.55 324.55 1788.45 324.5 1787.95 321.8 1787.4 319.1 1786.55 315 1785.35 312.55 1783.7 309.15 1781 307.8 1779.5 307.05 1777.4 306.8 1776.05 306.65 1773.55 306.7 1753.3 307.1 1728.05 308.35 1720.65 308.7 1709.8 309.35 1709.75 310.3 1709.65 311.65 1709.4 314.35 1709.75 315.8 1710.1 317.15 1711.9 319.75 1713.85 322.5 1714.9 323.8 1716.7 325.95 1718.45 327.3 1722.35 330.35 1728.45 331.45 1732.35 332.15 1739.55 332.25
L 1750.95 332.4
Q 1761.1 332.6 1766.6 331.9
M 1698.4 357.7
Q 1695.35 355.55 1693.4 356 1692.25 356.3 1691.4 357.3 1690.6 358.25 1690.3 359.5
L 1690.3 359.55 1691.85 359.55
Q 1692.2 363.5 1693.95 368.15 1695.05 370.95 1697.7 376.3 1701.15 383.25 1703.6 386.8 1705.4 389.45 1709.7 394.45 1714.05 399.45 1716.1 401.65 1719.8 405.55 1723.1 408.2 1725.75 410.45 1728.3 411.65 1729.15 412.05 1729.65 412.4 1733.9 413.25 1738.9 414.05 1747.15 415.35 1751.95 415.35 1759.2 415.3 1764.4 412.7 1770.9 409.5 1776.75 400.85 1779.65 396.55 1781.95 391.8 1781 392.3 1779.65 393.05 1775.2 395.45 1769.65 396.05 1764.55 396.6 1759.1 395.6 1754.35 394.75 1749 392.7 1745 391.2 1739.3 388.45 1729.45 383.55 1724.05 379.65 1719.5 376.4 1711.25 368.7 1703 361 1698.4 357.7 Z" stroke="none" fill="#FFFFFF"></path>
</g>
</g>
</g>
</g>

<g transform="matrix( 0.3621063232421875, 0, 0, 0.3621063232421875, -594.2,0.1)" id="Layer_6"></g>

<g transform="matrix( 0.3621063232421875, 0, 0, 0.3621063232421875, -594.2,0.1)" id="MergedLayer_1"></g>
</g>
</svg>
