
<svg viewBox="0 0 80 70" height="70px" width="80px" y="0px" x="0px" preserveAspectRatio="none" xmlns:xlink="http://www.w3.org/1999/xlink" version="1.1" xmlns="http://www.w3.org/2000/svg">
<defs></defs>

<g id="Layer_2">
<g transform="matrix( 0.2443389892578125, 0, 0, 0.2443389892578125, -5.6,-13.9)" id="Layer_1">
<g>
<g>
<g>
<path d="M 257 340
Q 256.5 340 256 340 250.95 340.05 247 339 250 341.95 256.9 340.5 257 340.5 257 340 Z" stroke="none" fill="#10323C"></path>

<path d="M 247.05 328
Q 247 327.5 247 327
L 246.5 327
Q 246.75 331.75 245 334 244.3 337.7 246.15 338.8 246.5 339 247 339 247 338.5 246.8 338.4 245.3 337.7 246 335 247.75 332.75 247.05 328 Z" stroke="none" fill="#355158"></path>

<path d="M 247 327
Q 247.5 327 247.5 326.95 248.75 317.25 247 310 247 318 247 326 247 326.5 247 327 Z" stroke="none" fill="#264850"></path>

<path d="M 263 315
Q 263 314.5 263.05 314 263.75 307.75 262 304 262 309.5 262.5 314.95 262.5 315 263 315 Z" stroke="none" fill="#062E39"></path>

<path d="M 194 299
Q 193.5 299 193 298.95 183.4 298.4 176 300 176 300.5 176 301 186.15 301.65 193.85 299.55 194 299.5 194 299
M 282 283
Q 282 283.5 282 284 282 284.5 282 285 285.2 285.7 285.85 283.95 286 283.5 286 283 285.5 283 285 283 283.5 283 282 283
M 150 302
Q 150 302.5 150 303 164.45 303.2 175.95 301.5 176 301.5 176 301 175.5 301 175 301 162.5 301 150 301 150 301.5 150 302
M 105.85 294.05
Q 105.2 292.3 102 293 101.6 295.95 105.05 295.1 105.5 295 106 295 106 294.5 105.85 294.05 Z" stroke="none" fill="#6F6E5F"></path>

<path d="M 302 263
Q 301.5 263 301.4 263.2 300.35 265.35 298 266 298 267 298 268 298 268.5 298 269 301.55 268.05 301.95 264 302 263.5 302 263
M 114 299
Q 114 298.5 113.75 298.25 110.9 295.6 106 295 107.45 299.05 113 299 113.5 299 114 299 Z" stroke="none" fill="#6E6E60"></path>

<path d="M 317 272
Q 317 271.5 317.05 271 317.75 264.75 316 261 316 266.5 316.5 271.95 316.5 272 317 272 Z" stroke="none" fill="#28474E"></path>

<path d="M 306.1 255.95
Q 306 255.5 306 255 305.5 255 305 255 304.5 255 304 255 304 256.5 304 258 304 258.5 304 259 306.95 259.45 306.1 255.95 Z" stroke="none" fill="#5F6E57"></path>

<path d="M 279.85 287.95
Q 280 287.5 280 287 279.5 287 279 287 277.5 287 276 287 276 287.5 276 288 276 288.5 276 289 279.2 289.7 279.85 287.95 Z" stroke="none" fill="#6F6E60"></path>

<path d="M 265.85 293.95
Q 266 293.5 266 293 265.5 293 265 293 263 293 261 293 261 296.5 261.5 299.95 261.5 300 262 300 262 299.5 262 299 262 297 262 295 265.2 295.7 265.85 293.95 Z" stroke="none" fill="#4D5D58"></path>

<path d="M 266 292
Q 266 292.5 266 293 269.2 293.7 269.85 291.95 270 291.5 270 291 269.5 291 269 291 267.5 291 266 291 266 291.5 266 292 Z" stroke="none" fill="#69716A"></path>

<path d="M 270 289
Q 270 289.5 270 290 270 290.5 270 291 273.5 291 275.8 289.65 276 289.5 276 289 275.5 289 275.05 289.1 271.55 289.95 270 289 Z" stroke="none" fill="#6D6E5D"></path>

<path d="M 246 295
Q 246 295.5 246 296 246 296.5 246 297 247.5 302 247.05 309 247 309.5 247 310 248.75 317.25 247.5 326.95 247.5 327 247 327 247 327.5 247.05 328 247.75 332.75 246 335 245.3 337.7 246.8 338.4 247 338.5 247 339 250.95 340.05 256 340 256.5 340 257 340 265 333 263.05 316 263 315.5 263 315 262.5 315 262.5 314.95 262 309.5 262 304 262 303.5 262 303 262 301.5 262 300 261.5 300 261.5 299.95 261 296.5 261 293 260.5 293 260.05 292.8 254.65 290.55 246 295 Z" stroke="none" fill="#030912"></path>

<path d="M 246 295
Q 245.5 295 245 295 220.8 294.8 200 298 200 298.5 200 299 221.8 297.3 245 297 245.5 297 246 297 246 296.5 246 296 246 295.5 246 295 Z" stroke="none" fill="#6F6D5C"></path>

<path d="M 246 294
Q 246 294.5 246 295 254.65 290.55 260.05 292.8 260.5 293 261 293 261 292.5 260.75 292.2 253.35 283.6 246 293 246 293.5 246 294 Z" stroke="none" fill="#381402"></path>

<path d="M 322 242
Q 322 241.5 321.9 241 321.25 237.25 318 236 319.5 239 321.35 241.75 321.5 242 322 242 Z" stroke="none" fill="#08222C"></path>

<path d="M 308 245
Q 307.5 245 307.1 244.8 306.5 244.5 306 244 306 244.5 306 245 306 245.5 306 246 306 247 306 248 306 248.5 306 249 308.75 245.35 310.45 250.85 310.5 251 311 251 311 250.5 310.9 250.05 310.1 246.9 308 245 Z" stroke="none" fill="#374A48"></path>

<path d="M 306.1 232
Q 306 231.5 306 231 305.5 231 305.1 231.2 302 233 299 235 299.75 241.75 305.05 243.85 305.5 244 306 244 306.5 244.5 307.1 244.8 307.5 245 308 245 308 244.5 307.75 244.15 305.55 241 304 237 306.75 236.25 306.1 232 Z" stroke="none" fill="#1D0900"></path>

<path d="M 315.1 234.8
Q 315.5 235 316 235 316 234.5 315.75 234.2 314.1 231.9 311 231 312.35 233.65 315.1 234.8 Z" stroke="none" fill="#011E28"></path>

<path d="M 299 235
Q 298.5 235 298 235 298.55 243.45 305.05 245.85 305.5 246 306 246 306 245.5 306 245 306 244.5 306 244 305.5 244 305.05 243.85 299.75 241.75 299 235 Z" stroke="none" fill="#654D25"></path>

<path d="M 119 301.1
Q 119.5 301 120 301 120 300.5 119.8 300.35 117.5 298.95 114 299 114.3 302.2 119 301.1 Z" stroke="none" fill="#706D5E"></path>

<path d="M 122.05 338.85
Q 122.5 339 123 339 123 338.5 123.05 338 123.45 335.1 120 336 120 336.5 120 337 120 337.5 120 338 121 338.5 122.05 338.85 Z" stroke="none" fill="#000E19"></path>

<path d="M 127.15 320.95
Q 127 320.5 127 320 126.5 320 126.45 320.15 124 329 119 335 119 336.5 119.45 337.85 119.5 338 120 338 120 337.5 120 337 120 336.5 120 336 123.45 335.1 123.05 338 123 338.5 123 339 126.25 340.75 131.9 339.5 132 339.5 132 339 131.5 339 131.15 338.75 126.4 335.6 126 328 128.8 326.4 127.15 320.95 Z" stroke="none" fill="#021A25"></path>

<path d="M 131 303
Q 130.5 303 130 303 130 303.5 129.8 303.9 129.5 304.5 129 305 129 307.5 129 310 129 310.5 129 311 130.45 307.95 130.95 304 131 303.5 131 303 Z" stroke="none" fill="#364C51"></path>

<path d="M 144.95 304
Q 145 303.5 145 303 144.5 303 144.05 303.15 136.3 305.55 132 303 131.5 303 131 303 131 303.5 130.95 304 130.45 307.95 129 311 129 311.5 129 312 128.85 316.35 127 319 127 319.5 127 320 127 320.5 127.15 320.95 128.8 326.4 126 328 126.4 335.6 131.15 338.75 131.5 339 132 339 143.5 326.5 144.95 304 Z" stroke="none" fill="#040F16"></path>

<path d="M 145 303
Q 145 302.5 144.75 302.35 138.4 298.05 132 302 132 302.5 132 303 136.3 305.55 144.05 303.15 144.5 303 145 303 Z" stroke="none" fill="#381901"></path>

<path d="M 66 271
Q 65.5 271 65 271 65 276 65.5 280.95 65.5 281 66 281 66 280.5 66 280 66 275.5 66 271 Z" stroke="none" fill="#294046"></path>

<path d="M 78 251
Q 77.5 251 77 251.05 60.25 252.75 52 263 52 263.5 51.9 264 51.15 267.65 50 271 49.15 281.85 54.25 286.75 54.5 287 55 287 63.55 289.55 65.85 281.95 66 281.5 66 281 65.5 281 65.5 280.95 65 276 65 271 65.5 271 66 271 66 270.5 66 270 66 268.5 66 267 70.3 263.8 77 263.05 77.5 263 78 263 78 262.5 78 262 78.5 262 79 262 79.5 262 80 262 80 261.5 79.8 261.05 78.1 256.9 78 251
M 58.1 275
Q 58 274.5 58 274 66.9 275.6 61.65 283.75 61.5 284 61 284 59.45 281.25 58.1 275 Z" stroke="none" fill="#020D18"></path>

<path d="M 58 274
Q 58 274.5 58.1 275 59.45 281.25 61 284 61.5 284 61.65 283.75 66.9 275.6 58 274 Z" stroke="none" fill="#050204"></path>

<path d="M 77.35 231.8
Q 77.5 232 78 232 78 231.5 78.1 231 79.35 224.65 76 223 75.4 228.6 77.35 231.8 Z" stroke="none" fill="#766B58"></path>

<path d="M 76.1 206.05
Q 76.9 202.6 74 203 73.3 206.2 75.05 206.85 75.5 207 76 207 76 206.5 76.1 206.05 Z" stroke="none" fill="#776B57"></path>

<path d="M 94 286
Q 95.7 291.3 101.05 292.85 101.5 293 102 293 102 292.5 101.75 292.15 99.05 287.95 94 286 Z" stroke="none" fill="#6E6E5F"></path>

<path d="M 81 263
Q 81.5 263 82 263 85.2 263.7 85.85 261.95 86 261.5 86 261 85.5 261 85 260.95 81.65 260.65 80 262 79.5 262 79 262 78.5 262 78 262 78 262.5 78 263 79.5 263 81 263 Z" stroke="none" fill="#5B5F56"></path>

<path d="M 86 251
Q 86.5 251 87 251 87 250.5 86.95 250.5 82.5 250 78 250 78 250.5 78 251 82 251 86 251 Z" stroke="none" fill="#543105"></path>

<path d="M 87.75 251.25
Q 87.5 251 87 251 86.5 251 86 251 82 251 78 251 78.1 256.9 79.8 261.05 80 261.5 80 262 81.65 260.65 85 260.95 85.5 261 86 261 86 260.5 86 260 93 256.9 87.75 251.25 Z" stroke="none" fill="#210801"></path>

<path d="M 74 191
Q 74 190.5 74.05 190 74.75 181.75 72 177 72.35 183.65 72.5 190
L 72 190
Q 72.5 190.5 73.1 190.8 73.5 191 74 191 Z" stroke="none" fill="#676556"></path>

<path d="M 71.1 158.05
Q 72 154.45 70 149 70 154 70.5 158.95 70.5 159 71 159 71 158.5 71.1 158.05 Z" stroke="none" fill="#695F4A"></path>

<path d="M 70 120
Q 70 120.5 70 121 70 130.5 70 140 70 140.5 70 141 73.05 129.05 72.5 119.05 72.5 119 72 119 71.5 119 71 119 70.5 119 70 119 70 119.5 70 120 Z" stroke="none" fill="#935F34"></path>

<path d="M 70 113
Q 70 115.5 70 118 70 118.5 70 119 70.5 119 71 119 71.5 119 72 119 72 118.5 72 118 72 115.5 72 113 71.5 113 71 113 70.5 113 70 113 Z" stroke="none" fill="#71604B"></path>

<path d="M 70 121
Q 69.5 121 69 121 68.5 121 68 121 67.3 134.2 69.5 144.9 69.5 145 70 145 70 144.5 70 144 70 142.5 70 141 70 140.5 70 140 70 130.5 70 121 Z" stroke="none" fill="#6B614F"></path>

<path d="M 120 74
Q 120 74.5 120 75 127 75.5 131.85 73.55 132 73.5 132 73 131.5 73 131 72.95 124.55 72.55 120 74 Z" stroke="none" fill="#676354"></path>

<path d="M 114 75
Q 113.5 75 113 75.05 110.2 75.2 108 76 108 76.5 108 77 112.2 77.7 113.75 75.8 114 75.5 114 75 Z" stroke="none" fill="#676455"></path>

<path d="M 302 179
Q 301.6 184.95 303.4 188.8 303.5 189 304 189 304 188.5 304.1 188 305.35 181.15 302 179 Z" stroke="none" fill="#685E4C"></path>

<path d="M 300 143
Q 300 142.5 300.1 142 301.35 135.15 298 133 297.25 139.25 299.35 142.8 299.5 143 300 143 Z" stroke="none" fill="#676254"></path>

<path d="M 227.75 65.7
Q 228 65.5 228 65 227.5 65 227 65 222.85 64.85 220 66 220 66.5 220 67 225.25 67.75 227.75 65.7 Z" stroke="none" fill="#686454"></path>

<path d="M 178 70
Q 177.5 70 177 70 173.5 70 170 70 170 70.5 170 71 174 71 177.95 70.5 178 70.5 178 70 Z" stroke="none" fill="#676456"></path>

<path d="M 195 68
Q 195 68.5 195 69 205.7 69.7 208.75 67.65 209 67.5 209 67 208.5 67 208 66.95 200.35 66.35 195 68 Z" stroke="none" fill="#6A6455"></path>

<path d="M 256 67
Q 256 66.5 255.75 66.35 252.75 64.25 247 65 249.2 67.8 255 67.05 255.5 67 256 67 Z" stroke="none" fill="#6A6554"></path>

<path d="M 270.05 72.9
Q 266.05 71.95 264 69 263.5 69 263 68.95 258.15 68.65 256 67 255.5 67 255 67.05 249.2 67.8 247 65 246.5 65 246 65 237 65 228 65 228 65.5 227.75 65.7 225.25 67.75 220 67 219.5 67 219 67 214 67 209 67 209 67.5 208.75 67.65 205.7 69.7 195 69 194.5 69 194 69 186 69 178 69 178 69.5 178 70 178 70.5 177.95 70.5 174 71 170 71 169.5 71 169 71 147.65 71.5 132 73 132 73.5 131.85 73.55 127 75.5 120 75 119.5 75 119 75 116.5 75 114 75 114 75.5 113.75 75.8 112.2 77.7 108 77 107.5 77 107.05 77.15 83.15 86.65 72 109 72 110.5 72 112 72 112.5 72 113 72 115.5 72 118 72 118.5 72 119 72.5 119 72.5 119.05 73.05 129.05 70 141 70 142.5 70 144 70 144.5 70 145 70 146.5 70 148 70 148.5 70 149 72 154.45 71.1 158.05 71 158.5 71 159 72.75 166.25 72.05 176 72 176.5 72 177 74.75 181.75 74.05 190 74 190.5 74 191 74 196.5 74 202 74 202.5 74 203 76.9 202.6 76.1 206.05 76 206.5 76 207 76 214.5 76 222 76 222.5 76 223 79.35 224.65 78.1 231 78 231.5 78 232 78 240.5 78 249 78 249.5 78 250 82.5 250 86.95 250.5 87 250.5 87 251 87.5 251 87.75 251.25 93 256.9 86 260 86 260.5 86 261 86 261.5 85.85 261.95 85.2 263.7 82 263 84 278 93.75 285.3 94 285.5 94 286 99.05 287.95 101.75 292.15 102 292.5 102 293 105.2 292.3 105.85 294.05 106 294.5 106 295 110.9 295.6 113.75 298.25 114 298.5 114 299 117.5 298.95 119.8 300.35 120 300.5 120 301 122.9 303.6 129 303.05 129.5 303 130 303 130.5 303 131 303 131.5 303 132 303 132 302.5 132 302 138.4 298.05 144.75 302.35 145 302.5 145 303 147 303 149 303 149.5 303 150 303 150 302.5 150 302 150 301.5 150 301 162.5 301 175 301 175.5 301 176 301 176 300.5 176 300 183.4 298.4 193 298.95 193.5 299 194 299 196.5 299 199 299 199.5 299 200 299 200 298.5 200 298 220.8 294.8 245 295 245.5 295 246 295 246 294.5 246 294 246 293.5 246 293 253.35 283.6 260.75 292.2 261 292.5 261 293 263 293 265 293 265.5 293 266 293 266 292.5 266 292 266 291.5 266 291 267.5 291 269 291 269.5 291 270 291 270 290.5 270 290 270 289.5 270 289 271.55 289.95 275.05 289.1 275.5 289 276 289 276 288.5 276 288 276 287.5 276 287 277.5 287 279 287 279.5 287 280 287 280 286.5 280 286 280 285.5 280 285 280.5 285 281 285 281.5 285 282 285 282 284.5 282 284 282 283.5 282 283 283.5 283 285 283 285.5 283 286 283 286 282.5 286 282 286 281.5 286 281 292.65 276.15 297.75 269.8 298 269.5 298 269 298 268.5 298 268 298 267 298 266 300.35 265.35 301.4 263.2 301.5 263 302 263 302 262.5 302 262 302 261.5 302 261 304.15 261.65 304.05 260 304 259.5 304 259 304 258.5 304 258 304 256.5 304 255 304.5 255 305 255 305.5 255 306 255 306 254.5 306 254 306 251.5 306 249 306 248.5 306 248 306 247 306 246 305.5 246 305.05 245.85 298.55 243.45 298 235 298.5 235 299 235 302 233 305.1 231.2 305.5 231 306 231 306 230.5 306 230 306 229.5 306 229 305.35 208.65 304 189 303.5 189 303.4 188.8 301.6 184.95 302 179 302 178.5 302 178 301.3 160.2 300 143 299.5 143 299.35 142.8 297.25 139.25 298 133 298 132.5 298 132 298.65 95.85 279 80
L 279 80.5
Q 277.5 78.95 275 78 274.5 78 274.5 77.9 273.75 74.25 271 73 270.5 73 270.05 72.9
M 254 73.9
Q 254.5 74 255 74 257.7 75.3 261 75.9 261.5 76 262 76 267.3 82.85 275.1 86.8 275.5 87 276 87 278.05 93.95 284.1 96.8 284.5 97 285 97 285.25 106.85 291.75 115.2 292 115.5 292 116 290.981640625 116.7310546875 290.2 117.7 290.159765625 117.8095703125 290.1 117.9 285.0171875 124.8357421875 292.45 143.85 292.5 144 293 144 291.4 171.5 293.5 204
L 293 204
Q 292.3 206.7 293.8 207.4 294 207.5 294 208 297.45 213.05 296.05 223 296 223.5 296 224 296 227.5 296 231 296 231.5 296 232 296 239 296 246 296 246.5 296 247 296 247.5 296.05 248 296.9 258.4 290 261 290 261.5 289.85 261.95 287.35 269.4 280 276 280 276.5 279.9 276.5 271.15 278.3 267 285 266.5 285 266 285.05 254.4064453125 286.2890625 242.75 287.2 248.6001953125 289.0072265625 242.1 287.5 242.0345703125 287.5 242 287.25 200.747265625 290.5962890625 158.85 290.15 139.5041015625 289.9890625 120 289 120 288.5 119.75 288.25 119.5 288 119 288
L 119 288.5
Q 102.6 288.3 98 272 98 271.5 97.8 271.1 97 269.5 96 268 96 268.5 95.9 268.5 93.55 268.95 92 263 92 262.5 92 262 92 260.5 92 259
L 91.5 259
Q 91.45 253.1 90 249 89.5 249 89.5 248.95 87.85 237.5 86 229 86.5 229 87 229 87.5 229 88 229 88 228.5 88 228 87.5 228 87.45 227.85 85.25 221.25 86 212
L 85.5 212
Q 85.3 189.8 79 171 79 170.5 79.1 170 81.5 157 79 144 79.5 144 79.75 143.75 80 143.5 80 143 79.5 143 79.5 142.95 78.6 131.9 76 123 78.75 117.5 79.4 118.8 79.5 119 80 119 80 118.5 80 118 80 115.5 80 113 80.5 113 81 113 81.5 113 82 113 82 112.5 82 112 82 110.5 82 109 82.5 109 83 109 83.5 109 84 109 84 108.5 84 108 84 106.5 84 105 86.7 102.75 87.05 102.85 87.5 103 88 103 88 102.5 88 102 88 100.5 88 99 94.1 95.2 96.45 89.15 96.5 89 97 89 103 86.5 115 85.5
L 115 86
Q 117.7 86.2 119.15 85.25 119.5 85 120 85 120 84.5 120 84 120 83.5 120 83 124.75 83.2 124.2 84.15 124 84.5 124 85 127 85 129.9 84.5 130 84.5 130 84 129.5 84 129 84.1 126.3 84.7 126 83 133 83 139.95 83.5 140 83.5 140 84 141.05 83.05 143 83 143.5 83 144 83 144 82.5 144 82 144 81.5 144 81 152.5 81 161 81 161.5 81 162 81 162.5 81 163 81 163.5 81 164 81 164 80.5 164 80 164 79.5 164 79 168 79 171.95 79.5 172 79.5 172 80 177.15 77.65 185.9 79.5 186 79.5 186 80 190.55 80.55 193.1 79.2 193.5 79 194 79 194 78.5 194 78 208.8 75.8 223.95 73.5 224 73.5 224 73 227 76.3 229.3 73.25 229.5 73 230 73 237.2 75.45 246 75.5
L 246 76
Q 246.5 76 247 76 247 75.5 247 75 252.05 73.6 254 73.9 Z" stroke="none" fill="#9A612C"></path>

<path d="M 242 287
Q 242 287.173046875 242 287.25 242.0345703125 287.5 242.1 287.5 248.6001953125 289.0072265625 242.75 287.2 242.40546875 287.1216796875 242 287
M 172 80
Q 172 79.5 171.95 79.5 168 79 164 79 164 79.5 164 80 164 80.5 164 81 166.5 81 169 81 169.5 81 170 81 170.5 81 171 81 171.5 81 172 81 172 80.5 172 80 Z" stroke="none" fill="#A26314"></path>

<path d="M 218 284
Q 218 284.5 218 285 222 285 225.95 284.5 226 284.5 226 284 225.5 284 225 284 221.5 284 218 284 Z" stroke="none" fill="#C3970F"></path>

<path d="M 182 287
Q 182 287.5 182 288 186 288 189.95 287.5 190 287.5 190 287 189.5 287 189 287 185.5 287 182 287 Z" stroke="none" fill="#BD8C27"></path>

<path d="M 170 288
Q 170 288.5 170 289 174 289 177.95 288.5 178 288.5 178 288 177.5 288 177 288 173.5 288 170 288 Z" stroke="none" fill="#BC8E0D"></path>

<path d="M 182 244
Q 182 244.5 182 245 189.25 245.75 193.8 243.6 194 243.5 194 243 193.5 243 193 242.9 185.35 241.6 182 244 Z" stroke="none" fill="#CFB66E"></path>

<path d="M 177 246
Q 176.5 246 176 246.05 172.05 246.45 170 245 171.2 248.3 176.85 246.55 177 246.5 177 246 Z" stroke="none" fill="#DCC26C"></path>

<path d="M 164 236
Q 164 236.5 164 237 164 237.5 164 238 164 238.5 164 239 164.5 239 165 239 165.5 239 166 239 166 238.5 166 238 165.9 235.1 164 234 164 235 164 236 Z" stroke="none" fill="#C4A85A"></path>

<path d="M 163.35 231.8
Q 163.5 232 164 232 164 231.5 163.9 231 163.15 226.85 162 223 161.4 228.6 163.35 231.8 Z" stroke="none" fill="#D2B768"></path>

<path d="M 208.8 232.9
Q 209 232.5 209 232 208.5 232 208.3 232.25 205.35 235.85 201 238 205.15 240.55 208.8 232.9 Z" stroke="none" fill="#D8BF6F"></path>

<path d="M 228 211
Q 227.5 211 227.4 211.2 225.95 213.95 224 216 226.9 217.4 227.9 212 228 211.5 228 211 Z" stroke="none" fill="#D7BD6B"></path>

<path d="M 255 282
Q 254.5 282 254 282 239.45 282.45 226 284 226 284.5 225.95 284.5 222 285 218 285 217.5 285 217 285.05 203.25 285.75 190 287 190 287.5 189.95 287.5 186 288 182 288 181.5 288 181 288 179.5 288 178 288 178 288.5 177.95 288.5 174 289 170 289 169.5 289 169 289.05 163.894140625 289.7580078125 158.85 290.15 200.747265625 290.5962890625 242 287.25 242 287.173046875 242 287 242.40546875 287.1216796875 242.75 287.2 254.4064453125 286.2890625 266 285.05 266.5 285 267 285 271.15 278.3 279.9 276.5 280 276.5 280 276 287.35 269.4 289.85 261.95 290 261.5 290 261 289.5 261 289 261 289 261.5 288.8 261.85 278.45 278.45 255 282 Z" stroke="none" fill="#A26C06"></path>

<path d="M 296 247
Q 295.5 247 295.45 247.1 293.4 254.9 289 260 289 260.5 289 261 289.5 261 290 261 296.9 258.4 296.05 248 296 247.5 296 247 Z" stroke="none" fill="#A66D0B"></path>

<path d="M 296 224
Q 296 223.5 296.05 223 297.45 213.05 294 208 294.85 215.15 295 223 295 223.5 295 224 295.5 224 296 224 Z" stroke="none" fill="#A2680B"></path>

<path d="M 296 232
Q 296 231.5 296 231 296 227.5 296 224 295.5 224 295 224 295 228 295.5 231.95 295.5 232 296 232 Z" stroke="none" fill="#C59332"></path>

<path d="M 119 288
Q 118.5 288 118.1 287.8 106.05 281.95 98 272 102.6 288.3 119 288.5
L 119 288 Z" stroke="none" fill="#A56D0A"></path>

<path d="M 94.4 264.8
Q 93.7 263.3 92 263 93.55 268.95 95.9 268.5 96 268.5 96 268 95.5 268 95.45 267.85 95 266.5 95 265 94.5 265 94.4 264.8 Z" stroke="none" fill="#A76C0D"></path>

<path d="M 95 265
Q 95 264.5 94.8 264.1 93.45 261.55 92 259 92 260.5 92 262 92 262.5 92 263 93.7 263.3 94.4 264.8 94.5 265 95 265 Z" stroke="none" fill="#CA9433"></path>

<path d="M 88 229
Q 87.5 229 87 229 86.5 229 86 229 87.85 237.5 89.5 248.95 89.5 249 90 249 90 248.5 89.95 248 89.5 240 89 232 88.5 232 88.45 231.85 88 230.5 88 229 Z" stroke="none" fill="#A3670A"></path>

<path d="M 88 227
Q 88 227.5 88 228 88 228.5 88 229 88 230.5 88.45 231.85 88.5 232 89 232 89 231.5 89.05 231 89.75 226.25 88 224 88 225.5 88 227 Z" stroke="none" fill="#D39935"></path>

<path d="M 87 212
Q 86.5 212 86 212 85.25 221.25 87.45 227.85 87.5 228 88 228 88 227.5 88 227 88 225.5 88 224 88 223.5 87.9 223 87.05 217.95 87 212 Z" stroke="none" fill="#A46711"></path>

<path d="M 131 240
Q 130.5 240 130 239.95 121.9 239.3 116 237 115.5 237 115.5 237.05 114.75 242.25 114 243 113.5 243 113.1 242.8 99.6 236.8 96 254 96.25 263.05 98.45 268.85 98.5 269 99 269 110.5 277 120.25 286.75 120.5 287 121 287 151 287 181 287 181.5 287 182 287 185.5 287 189 287 189.5 287 190 287 203.25 285.75 217 285.05 217.5 285 218 285 218 284.5 218 284 221.5 284 225 284 225.5 284 226 284 239.45 282.45 254 282 254.5 282 255 282 255 281.5 255.25 281.25 259.4 277.15 265 277 265.5 277 265.8 276.75 274.75 269.55 282 265 282 264.5 282.1 264 283.75 255.35 288 254 288 253.5 287.9 253.05 286.45 247.55 288 239 288.5 239 288.55 239.2 290.9 244.85 290 235
L 290.5 235
Q 283.25 232.4 285 231
L 285 231.5
Q 290.4 222.55 282 223 282 223.5 281.95 224 280.9 232.05 274 222 273.5 222 273.05 222.15 265.7 224.65 275 228
L 275.5 228
Q 273.35 230.7 267 231 266.5 231 266.05 230.85 256.35 226.9 251 228 251 227.5 250.75 227.25 246.8 223.15 244 231 243.5 231 243 230.95 235.7 230.3 230 228 229.5 228 229.4 227.8 227.75 224.2 229 221 228.5 221 228.4 221.2 224.7 228.7 216 231
L 216.5 231
Q 206.3 241.7 194 249 193.5 249 193.05 248.9 180.45 245.9 171 251 171 250.5 170.9 250.5 161.65 248.8 162 240 162.5 239.5 163.1 239.2 163.5 239 164 239 164 238.5 164 238 164 237.5 164 237 163.5 237 163.05 236.85 150 233.1 160 232 160 231.5 159.9 231.5 146.95 229.45 144 238 143.5 238 143.1 237.8 137.65 234.65 131 240 Z" stroke="none" fill="#F6D53D"></path>

<path d="M 154 178
Q 154 177.5 153.95 177 153.55 173.45 152 171 151.85 175.15 153.35 177.8 153.5 178 154 178 Z" stroke="none" fill="#A1803A"></path>

<path d="M 83.9 111
Q 84 110.5 84 110 84 109.5 84 109 83.5 109 83 109 82.5 109 82 109 82 110.5 82 112 82 112.5 82 113 82 113.5 82 114 83.5 113 83.9 111 Z" stroke="none" fill="#AD7115"></path>

<path d="M 88 103
Q 87.5 103 87.05 102.85 86.7 102.75 84 105 84 106.5 84 108 84 108.5 84 109 84 109.5 84 110 85.8 106.8 87.75 103.85 88 103.5 88 103 Z" stroke="none" fill="#AB6E11"></path>

<path d="M 80 143
Q 80 143.5 79.75 143.75 79.5 144 79 144 81.5 157 79.1 170 79 170.5 79 171 85.3 189.8 85.5 212
L 86 212
Q 86.5 212 87 212 87 211.5 86.95 211 82.95 176.05 81 139 80.5 139 80 139 80 140.5 80 142 80 142.5 80 143 Z" stroke="none" fill="#A76A12"></path>

<path d="M 80 130
Q 80 130.5 80 131 80 134.5 80 138 80 138.5 80 139 80.5 139 81 139 81 138.5 81.1 138.05 83.15 129.4 80 122 80 126 80 130 Z" stroke="none" fill="#F5BD50"></path>

<path d="M 80 118
Q 80 118.5 80 119 80 119.5 80.25 119.75 80.5 120 81 120 81 119.5 81 119 81 118 81 117 82.65 117.15 82.1 114.95 82 114.5 82 114 82 113.5 82 113 81.5 113 81 113 80.5 113 80 113 80 115.5 80 118 Z" stroke="none" fill="#A66C09"></path>

<path d="M 80 122
Q 79.5 122 79 122 79 126.5 79.5 130.95 79.5 131 80 131 80 130.5 80 130 80 126 80 122 Z" stroke="none" fill="#B5802B"></path>

<path d="M 80 119
Q 79.5 119 79.4 118.8 78.75 117.5 76 123 78.6 131.9 79.5 142.95 79.5 143 80 143 80 142.5 80 142 80 140.5 80 139 80 138.5 80 138 80 134.5 80 131 79.5 131 79.5 130.95 79 126.5 79 122 79.5 122 80 122 80 121.5 80 121 80.5 121 80.75 120.75 81 120.5 81 120 80.5 120 80.25 119.75 80 119.5 80 119 Z" stroke="none" fill="#A2650E"></path>

<path d="M 156.95 82.5
Q 157 82.5 157 82 156.5 82 156 82 151 82 146 82 146 82.5 146 83 151.5 83 156.95 82.5 Z" stroke="none" fill="#C48A36"></path>

<path d="M 140 84
Q 140 83.5 139.95 83.5 133 83 126 83 126.3 84.7 129 84.1 129.5 84 130 84 134.5 84 139 84 139.5 84 140 84 Z" stroke="none" fill="#A5690F"></path>

<path d="M 120 84
Q 120 84.5 120 85 121.5 85 123 85 123.5 85 124 85 124 84.5 124.2 84.15 124.75 83.2 120 83 120 83.5 120 84 Z" stroke="none" fill="#A56817"></path>

<path d="M 97 89
Q 96.5 89 96.45 89.15 94.1 95.2 88 99 88 100.5 88 102 88 102.5 88 103 97.6 91.1 114.05 86.15 114.5 86 115 86
L 115 85.5
Q 103 86.5 97 89 Z" stroke="none" fill="#A76B12"></path>

<path d="M 292.05 187
Q 292.75 182.25 291 180 291 184 291.5 187.95 291.5 188 292 188 292 187.5 292.05 187 Z" stroke="none" fill="#CA9130"></path>

<path d="M 289.25 116.8
Q 289.7203125 117.4109375 290.1 117.9 290.159765625 117.8095703125 290.2 117.7 289.70859375 116.986328125 289 116 289 116.5 289.25 116.8 Z" stroke="none" fill="#A25E1B"></path>

<path d="M 235 193
Q 235.5 193 235.55 192.9 239.2 177.05 234 165 237.35 177.85 235.1 192 235 192.5 235 193 Z" stroke="none" fill="#846214"></path>

<path d="M 190 125
Q 190 124.5 189.85 124.45 186.75 123.25 183 123 185 125 189 125 189.5 125 190 125 Z" stroke="none" fill="#7B570D"></path>

<path d="M 170 121
Q 170 120.5 169.95 120.5 165 120 160 120 160 120.5 160 121 164.5 121 169 121 169.5 121 170 121 Z" stroke="none" fill="#D2983B"></path>

<path d="M 176.95 121.5
Q 173.5 121 170 121 169.5 121 169 121 164.5 121 160 121 159.5 121 159 121 157.5 121 156 121 156 121.5 156 122 166 122 176 122 176.5 122 177 122 177 121.5 176.95 121.5 Z" stroke="none" fill="#5F3D05"></path>

<path d="M 210 133
Q 209.5 133 209.1 132.8 200.5 128 190 125 189.5 125 189 125 185 125 183 123 183 122.5 182.9 122.5 180 122 177 122 176.5 122 176 122 166 122 156 122 155.5 122 155 122.05 146.4 122.9 144 130 146.15 151.85 151.85 170.05 152 170.5 152 171 153.55 173.45 153.95 177 154 177.5 154 178 158.65 199.35 161.95 222 162 222.5 162 223 163.15 226.85 163.9 231 164 231.5 164 232 164 232.5 164 233 164 233.5 164 234 165.9 235.1 166 238 166 238.5 166 239 167.6 241.9 169.75 244.25 170 244.5 170 245 172.05 246.45 176 246.05 176.5 246 177 246 179.7 246.25 181.15 245.25 181.5 245 182 245 182 244.5 182 244 185.35 241.6 193 242.9 193.5 243 194 243 194 242.5 194 242 198.05 241.05 200.3 238.25 200.5 238 201 238 205.35 235.85 208.3 232.25 208.5 232 209 232 209 231.5 209 231 217.35 224.85 223.35 216.25 223.5 216 224 216 225.95 213.95 227.4 211.2 227.5 211 228 211 228 210.5 228 210 228 209.5 228 209 233.2 203.2 234.9 194 235 193.5 235 193 235 192.5 235.1 192 237.35 177.85 234 165 234 164.5 233.8 164.1 225.2 145.3 210 133
M 204.25 137.8
Q 204 137.5 204 137 213.45 149.15 204.25 137.8
M 210.05 145.5
Q 210 145.5 210 145 220.2 147 210.05 145.5
M 178 127.5
L 178 128
Q 170.05 134.15 160.2 129.6 160 129.5 160 129 169.35 128.35 178 127.5
M 167 134
Q 167.5 134 168 134 185.4 135.1 196.75 142.35 197 142.5 197 143 214.55 152.45 218.9 175 219 175.5 219 176 220.75 180.25 219.5 186.9 219.5 187 219 187 219 187.5 218.85 187.95 211.05 213.55 191 227 191 227.5 190.8 227.6 187.8 229.3 183 229 182.5 229 182 229 181.5 229 181 229 180.5 229 180.5 228.9 179.7 224.3 179 220 179 219.5 178.9 219 172.55 190.95 167 162 166.5 162 166.4 161.8 164 157.5 164 151 164 150.5 163.8 150.1 162.45 147.55 163 143 162.5 143 162.45 142.85 161.25 139.75 161 136 161 135.5 161 135 161 134.5 161 134 164 134 167 134
M 192.25 134.75
Q 192 134.5 192 134 202.1 131.1 199.55 138.85 199.5 139 199 139 195.95 138.15 192.25 134.75
M 224.15 169.95
Q 224 169.5 224 169 232.4 163.9 231 178.5
L 231 178
Q 225.9 175.6 224.15 169.95
M 222.1 161.5
Q 222 161.5 222 161 229 163.1 222.1 161.5
M 218.2 156.6
Q 218 156.5 218 156 227.65 161.55 218.2 156.6
M 224.25 191.8
Q 224 191.5 224 191 232.6 203.05 224.25 191.8
M 151.95 148
Q 152 147.5 152 147 164.25 158 156.1 159.5 156 159.5 156 160 150.75 157.25 151.95 148
M 152.25 139.65
Q 152 139.5 152 139 158.75 144.45 152.25 139.65
M 158.1 186
Q 158 185.5 158 185 166.55 192.45 166.5 203
L 166 203
Q 159.95 196 158.1 186
M 164 215
Q 170.5 225.4 164.25 215.85 164 215.5 164 215
M 172.1 223.95
Q 172 223.5 172 223 175.05 235.3 172.1 223.95
M 166.25 228.75
Q 166 228.5 166 228 175.3 237.6 166.25 228.75 Z" stroke="none" fill="#190A02"></path>

<path d="M 166 228
Q 166 228.5 166.25 228.75 175.3 237.6 166 228 Z" stroke="none" fill="#08030E"></path>

<path d="M 172 223
Q 172 223.5 172.1 223.95 175.05 235.3 172 223 Z" stroke="none" fill="#05020C"></path>

<path d="M 164.25 215.85
Q 170.5 225.4 164 215 164 215.5 164.25 215.85 Z" stroke="none" fill="#06030E"></path>

<path d="M 158 185
Q 158 185.5 158.1 186 159.95 196 166 203
L 166.5 203
Q 166.55 192.45 158 185 Z" stroke="none" fill="#06020C"></path>

<path d="M 152 139
Q 152 139.5 152.25 139.65 158.75 144.45 152 139 Z" stroke="none" fill="#01030C"></path>

<path d="M 152 147
Q 152 147.5 151.95 148 150.75 157.25 156 160 156 159.5 156.1 159.5 164.25 158 152 147 Z" stroke="none" fill="#08020C"></path>

<path d="M 224 191
Q 224 191.5 224.25 191.8 232.6 203.05 224 191 Z" stroke="none" fill="#0B0913"></path>

<path d="M 218 156
Q 218 156.5 218.2 156.6 227.65 161.55 218 156 Z" stroke="none" fill="#050712"></path>

<path d="M 222 161
Q 222 161.5 222.1 161.5 229 163.1 222 161 Z" stroke="none" fill="#0C0813"></path>

<path d="M 224 169
Q 224 169.5 224.15 169.95 225.9 175.6 231 178
L 231 178.5
Q 232.4 163.9 224 169 Z" stroke="none" fill="#060A12"></path>

<path d="M 192 134
Q 192 134.5 192.25 134.75 195.95 138.15 199 139 199.5 139 199.55 138.85 202.1 131.1 192 134 Z" stroke="none" fill="#05030E"></path>

<path d="M 183 228
Q 183 228.5 183 229 187.8 229.3 190.8 227.6 191 227.5 191 227 190.5 227 190.05 227.15 187.15 228.15 183 228 Z" stroke="none" fill="#816319"></path>

<path d="M 180.5 228.9
Q 180.5 229 181 229 181 228.5 181.05 228 181.45 222.6 179 220 179.7 224.3 180.5 228.9 Z" stroke="none" fill="#75570C"></path>

<path d="M 219 187
Q 219.5 187 219.5 186.9 220.75 180.25 219 176 219 181 219 186 219 186.5 219 187 Z" stroke="none" fill="#674A03"></path>

<path d="M 167 162
Q 167 161.5 166.9 161 165.75 155.75 164 151 164 157.5 166.4 161.8 166.5 162 167 162 Z" stroke="none" fill="#795715"></path>

<path d="M 164 141
Q 164 141.5 164 142
L 164 142.5
Q 177.3 140.35 164 139 164 139.5 164 140 164 140.5 164 141
M 172 146
Q 172 146.5 172.2 146.9 175.65 154.15 172 146
M 174 143
Q 174 143.5 174.2 143.9 176.65 149.35 183 151 183 150.5 183.1 150.5 192.6 148.6 194 149 194 148.5 193.85 148.45 184.5 145.65 174 143 Z" stroke="none" fill="#FBBC3D"></path>

<path d="M 163 138
Q 163 139 163.4 139.8 163.5 140 164 140 164 139.5 164 139 177.3 140.35 164 142.5
L 164 142
Q 163.5 142 163 142 163 142.5 163 143 162.45 147.55 163.8 150.1 164 150.5 164 151 165.75 155.75 166.9 161 167 161.5 167 162 172.55 190.95 178.9 219 179 219.5 179 220 181.45 222.6 181.05 228 181 228.5 181 229 181.5 229 182 229 182.5 229 183 229 183 228.5 183 228 187.15 228.15 190.05 227.15 190.5 227 191 227 211.05 213.55 218.85 187.95 219 187.5 219 187 219 186.5 219 186 219 181 219 176 219 175.5 218.9 175 214.55 152.45 197 143 196.5 143 196.05 142.9 188.8 141 184 141 184 140.5 183.8 140.45 180.85 139.15 179 137 178.5 137 178 136.95 167.8 135.8 163 138
M 174.2 143.9
Q 174 143.5 174 143 184.5 145.65 193.85 148.45 194 148.5 194 149 192.6 148.6 183.1 150.5 183 150.5 183 151 176.65 149.35 174.2 143.9
M 172.2 146.9
Q 172 146.5 172 146 175.65 154.15 172.2 146.9 Z" stroke="none" fill="#F4C341"></path>

<path d="M 168 134
L 168 134.5
Q 163.45 134.45 161 136 161.25 139.75 162.45 142.85 162.5 143 163 143 163 142.5 163 142 163.5 142 164 142 164 141.5 164 141 164 140.5 164 140 163.5 140 163.4 139.8 163 139 163 138 167.8 135.8 178 136.95 178.5 137 179 137 180.85 139.15 183.8 140.45 184 140.5 184 141 188.8 141 196.05 142.9 196.5 143 197 143 197 142.5 196.75 142.35 185.4 135.1 168 134 Z" stroke="none" fill="#D9B05B"></path>

<path d="M 168 134.5
L 168 134
Q 167.5 134 167 134 164 134 161 134 161 134.5 161 135 161 135.5 161 136 163.45 134.45 168 134.5 Z" stroke="none" fill="#C6B489"></path>

<path d="M 178 128
L 178 127.5
Q 169.35 128.35 160 129 160 129.5 160.2 129.6 170.05 134.15 178 128 Z" stroke="none" fill="#080510"></path>

<path d="M 210 145
Q 210 145.5 210.05 145.5 220.2 147 210 145 Z" stroke="none" fill="#090912"></path>

<path d="M 204 137
Q 204 137.5 204.25 137.8 213.45 149.15 204 137 Z" stroke="none" fill="#060912"></path>

<path d="M 218 77
Q 217.5 77 217 77 213.5 77 210 77 210 77.5 210 78 214 78 217.95 77.5 218 77.5 218 77 Z" stroke="none" fill="#CC9835"></path>

<path d="M 172 80
Q 172 80.5 172 81 178.35 80.35 185 80.05 185.5 80 186 80 186 79.5 185.9 79.5 177.15 77.65 172 80 Z" stroke="none" fill="#AA6D1A"></path>

<path d="M 162 82
Q 162 81.5 162 81 161.5 81 161 81 152.5 81 144 81 144 81.5 144 82 144 82.5 144 83 144.5 83 145 83 145.5 83 146 83 146 82.5 146 82 151 82 156 82 156.5 82 157 82 159 82 161 82 161.5 82 162 82 Z" stroke="none" fill="#A26411"></path>

<path d="M 162 81
Q 162 81.5 162 82 166 82 169.95 81.5 170 81.5 170 81 169.5 81 169 81 166.5 81 164 81 163.5 81 163 81 162.5 81 162 81 Z" stroke="none" fill="#D3973D"></path>

<path d="M 274 90
Q 274 89.5 273.75 89.2 272.1 86.9 269 86 270.35 88.65 273.1 89.8 273.5 90 274 90 Z" stroke="none" fill="#C98B34"></path>

<path d="M 245 76
Q 245.5 76 246 76
L 246 75.5
Q 237.2 75.45 230 73 229.5 73 229.3 73.25 227 76.3 224 73 224 73.5 223.95 73.5 208.8 75.8 194 78 194 78.5 194 79 202.05 79.05 209 78.05 209.5 78 210 78 210 77.5 210 77 213.5 77 217 77 217.5 77 218 77 230.8 75.8 245 76 Z" stroke="none" fill="#A66813"></path>

<path d="M 247 76
Q 246.5 76 246 76 245.5 76 245 76 230.8 75.8 218 77 218 77.5 217.95 77.5 214 78 210 78 209.5 78 209 78.05 202.05 79.05 194 79 193.5 79 193.1 79.2 190.55 80.55 186 80 185.5 80 185 80.05 178.35 80.35 172 81 171.5 81 171 81 170.5 81 170 81 170 81.5 169.95 81.5 166 82 162 82 161.5 82 161 82 159 82 157 82 157 82.5 156.95 82.5 151.5 83 146 83 145.5 83 145 83 144.5 83 144 83 143.5 83 143 83 141.05 83.05 140 84 139.5 84 139 84 134.5 84 130 84 130 84.5 129.9 84.5 127 85 124 85 123.5 85 123 85 121.5 85 120 85 119.5 85 119.15 85.25 117.7 86.2 115 86 114.5 86 114.05 86.15 97.6 91.1 88 103 88 103.5 87.75 103.85 85.8 106.8 84 110 84 110.5 83.9 111 83.5 113 82 114 82 114.5 82.1 114.95 82.65 117.15 81 117 81 118 81 119 81 119.5 81 120 81 120.5 80.75 120.75 80.5 121 80 121 80 121.5 80 122 83.15 129.4 81.1 138.05 81 138.5 81 139 82.95 176.05 86.95 211 87 211.5 87 212 87.05 217.95 87.9 223 88 223.5 88 224 89.75 226.25 89.05 231 89 231.5 89 232 89.5 240 89.95 248 90 248.5 90 249 91.45 253.1 91.5 259
L 92 259
Q 93.45 261.55 94.8 264.1 95 264.5 95 265 95 266.5 95.45 267.85 95.5 268 96 268 97 269.5 97.8 271.1 98 271.5 98 272 106.05 281.95 118.1 287.8 118.5 288 119 288 119.5 288 119.75 288.25 120 288.5 120 289 139.5041015625 289.9890625 158.85 290.15 163.894140625 289.7580078125 169 289.05 169.5 289 170 289 170 288.5 170 288 173.5 288 177 288 177.5 288 178 288 179.5 288 181 288 181.5 288 182 288 182 287.5 182 287 181.5 287 181 287 151 287 121 287 120.5 287 120.25 286.75 110.5 277 99 269 98.5 269 98.45 268.85 96.25 263.05 96 254 99.6 236.8 113.1 242.8 113.5 243 114 243 114.75 242.25 115.5 237.05 115.5 237 116 237 121.9 239.3 130 239.95 130.5 240 131 240 137.65 234.65 143.1 237.8 143.5 238 144 238 146.95 229.45 159.9 231.5 160 231.5 160 232 150 233.1 163.05 236.85 163.5 237 164 237 164 236.5 164 236 164 235 164 234 164 233.5 164 233 164 232.5 164 232 163.5 232 163.35 231.8 161.4 228.6 162 223 162 222.5 161.95 222 158.65 199.35 154 178 153.5 178 153.35 177.8 151.85 175.15 152 171 152 170.5 151.85 170.05 146.15 151.85 144 130 146.4 122.9 155 122.05 155.5 122 156 122 156 121.5 156 121 157.5 121 159 121 159.5 121 160 121 160 120.5 160 120 165 120 169.95 120.5 170 120.5 170 121 173.5 121 176.95 121.5 177 121.5 177 122 180 122 182.9 122.5 183 122.5 183 123 186.75 123.25 189.85 124.45 190 124.5 190 125 200.5 128 209.1 132.8 209.5 133 210 133 225.2 145.3 233.8 164.1 234 164.5 234 165 239.2 177.05 235.55 192.9 235.5 193 235 193 235 193.5 234.9 194 233.2 203.2 228 209 228 209.5 228 210 228 210.5 228 211 228 211.5 227.9 212 226.9 217.4 224 216 223.5 216 223.35 216.25 217.35 224.85 209 231 209 231.5 209 232 209 232.5 208.8 232.9 205.15 240.55 201 238 200.5 238 200.3 238.25 198.05 241.05 194 242 194 242.5 194 243 194 243.5 193.8 243.6 189.25 245.75 182 245 181.5 245 181.15 245.25 179.7 246.25 177 246 177 246.5 176.85 246.55 171.2 248.3 170 245 170 244.5 169.75 244.25 167.6 241.9 166 239 165.5 239 165 239 164.5 239 164 239 163.5 239 163.1 239.2 162.5 239.5 162 240 161.65 248.8 170.9 250.5 171 250.5 171 251 180.45 245.9 193.05 248.9 193.5 249 194 249 206.3 241.7 216.5 231
L 216 231
Q 224.7 228.7 228.4 221.2 228.5 221 229 221 227.75 224.2 229.4 227.8 229.5 228 230 228 235.7 230.3 243 230.95 243.5 231 244 231 246.8 223.15 250.75 227.25 251 227.5 251 228 256.35 226.9 266.05 230.85 266.5 231 267 231 273.35 230.7 275.5 228
L 275 228
Q 265.7 224.65 273.05 222.15 273.5 222 274 222 280.9 232.05 281.95 224 282 223.5 282 223 290.4 222.55 285 231.5
L 285 231
Q 283.25 232.4 290.5 235
L 290 235
Q 290.9 244.85 288.55 239.2 288.5 239 288 239 286.45 247.55 287.9 253.05 288 253.5 288 254 283.75 255.35 282.1 264 282 264.5 282 265 274.75 269.55 265.8 276.75 265.5 277 265 277 259.4 277.15 255.25 281.25 255 281.5 255 282 278.45 278.45 288.8 261.85 289 261.5 289 261 289 260.5 289 260 293.4 254.9 295.45 247.1 295.5 247 296 247 296 246.5 296 246 296 239 296 232 295.5 232 295.5 231.95 295 228 295 224 295 223.5 295 223 294.85 215.15 294 208 294 207.5 293.8 207.4 292.3 206.7 293 204 293 203.5 293 203 293.45 194.55 292 188 291.5 188 291.5 187.95 291 184 291 180 291 179.5 290.95 179 287.45 144.05 285 108 284.5 108 284.45 107.85 280.5 97.5 274 90 273.5 90 273.1 89.8 270.35 88.65 269 86 269 85.5 268.75 85.3 260.35 78.15 247 76
M 256 92.9
Q 255.5 93 255 93 171 99.8 103 99.5
L 103 99
Q 180.6 73 259.9 88.5 260 88.5 260 89 259.25 92.25 256 92.9
M 127.1 235.55
Q 127 235.5 127 235 134.75 237.5 127.1 235.55
M 134.1 233.5
Q 134 233.5 134 233 139.25 229.3 147.9 231.45 148 231.5 148 232 142.25 235.2 134.1 233.5
M 94 234.5
L 94 234
Q 100.65 230.95 94 234.5
M 98 239.5
L 98 239
Q 108.4 238.2 98 239.5
M 104.25 234.8
Q 104 234.5 104 234 115.05 232 110.65 238.75 110.5 239 110 239 107.1 238.6 104.25 234.8
M 264.15 220.55
Q 264 220.5 264 220 270.95 223.1 264.15 220.55
M 276.25 220.7
Q 276 220.5 276 220 282.85 225.55 276.25 220.7
M 258 224.5
L 258 224
Q 266.5 223.8 258 224.5
M 264.15 226.55
Q 264 226.5 264 226 270.4 229.05 264.15 226.55
M 230.05 223.5
Q 230 223.5 230 223 244.75 225.6 230.05 223.5
M 240.2 226.6
Q 240 226.5 240 226 246.25 229.15 240.2 226.6 Z" stroke="none" fill="#F8C342"></path>

<path d="M 240 226
Q 240 226.5 240.2 226.6 246.25 229.15 240 226 Z" stroke="none" fill="#F6D43D"></path>

<path d="M 230 223
Q 230 223.5 230.05 223.5 244.75 225.6 230 223 Z" stroke="none" fill="#F7D33D"></path>

<path d="M 264 226
Q 264 226.5 264.15 226.55 270.4 229.05 264 226
M 258 224
L 258 224.5
Q 266.5 223.8 258 224
M 276 220
Q 276 220.5 276.25 220.7 282.85 225.55 276 220
M 264 220
Q 264 220.5 264.15 220.55 270.95 223.1 264 220
M 104 234
Q 104 234.5 104.25 234.8 107.1 238.6 110 239 110.5 239 110.65 238.75 115.05 232 104 234
M 98 239
L 98 239.5
Q 108.4 238.2 98 239
M 94 234
L 94 234.5
Q 100.65 230.95 94 234
M 134 233
Q 134 233.5 134.1 233.5 142.25 235.2 148 232 148 231.5 147.9 231.45 139.25 229.3 134 233
M 127 235
Q 127 235.5 127.1 235.55 134.75 237.5 127 235 Z" stroke="none" fill="#F8D33E"></path>

<path d="M 255 93
Q 255.5 93 256 92.9 259.25 92.25 260 89 260 88.5 259.9 88.5 180.6 73 103 99
L 103 99.5
Q 171 99.8 255 93 Z" stroke="none" fill="#FFDE6F"></path>

<path d="M 255 74
Q 254.5 74 254 73.9 252.05 73.6 247 75 247 75.5 247 76 260.35 78.15 268.75 85.3 269 85.5 269 86 272.1 86.9 273.75 89.2 274 89.5 274 90 280.5 97.5 284.45 107.85 284.5 108 285 108 287.45 144.05 290.95 179 291 179.5 291 180 292.75 182.25 292.05 187 292 187.5 292 188 293.45 194.55 293 203 293 203.5 293 204
L 293.5 204
Q 291.4 171.5 293 144 292.5 144 292.45 143.85 285.0171875 124.8357421875 290.1 117.9 289.7203125 117.4109375 289.25 116.8 289 116.5 289 116 289.70859375 116.986328125 290.2 117.7 290.981640625 116.7310546875 292 116 292 115.5 291.75 115.2 285.25 106.85 285 97 284.5 97 284.1 96.8 278.05 93.95 276 87 275.5 87 275.1 86.8 267.3 82.85 262 76 261.5 76 261 75.9 257.7 75.3 255 74 Z" stroke="none" fill="#A76615"></path>

<path d="M 330 267
Q 330.5 267 330.5 266.9 331.75 260.25 330 256 330 261 330 266 330 266.5 330 267 Z" stroke="none" fill="#092F39"></path>

<path d="M 327 271
Q 326.5 271 326.05 271.15 322.8 272.3 318 272 322.2 274.15 326.8 271.6 327 271.5 327 271 Z" stroke="none" fill="#0B232D"></path>

<path d="M 325 246
Q 324.5 246 324 246 323.8 249.2 326.05 249.85 326.5 250 327 250 327 249.5 326.95 249 326.75 246.8 325 246 Z" stroke="none" fill="#1A3038"></path>

<path d="M 324 246
Q 324 245.5 324.05 245 324.2 242.3 322 242 321.5 242 321.35 241.75 319.5 239 318 236 318 235.5 317.8 235.4 317 235 316 235 315.5 235 315.1 234.8 312.35 233.65 311 231 311 230.5 310.9 230.5 308.5 230 306 230 306 230.5 306 231 306 231.5 306.1 232 306.75 236.25 304 237 305.55 241 307.75 244.15 308 244.5 308 245 310.1 246.9 310.9 250.05 311 250.5 311 251 313.35 255.65 315.8 260.1 316 260.5 316 261 317.75 264.75 317.05 271 317 271.5 317 272 317.5 272 318 272 322.8 272.3 326.05 271.15 326.5 271 327 271 328.8 269.8 329.8 267.9 330 267.5 330 267 330 266.5 330 266 330 261 330 256 330 255.5 329.75 255.3 327.6 253.4 327 250 326.5 250 326.05 249.85 323.8 249.2 324 246 Z" stroke="none" fill="#010A15"></path>
</g>
</g>
</g>
</g>
</g>
</svg>
