
<svg viewBox="0 0 112 184" height="184px" width="112px" y="0px" x="0px" preserveAspectRatio="none" xmlns:xlink="http://www.w3.org/1999/xlink" version="1.1" xmlns="http://www.w3.org/2000/svg">
<defs></defs>

<g id="fun_scrollers">
<g transform="matrix( 0.3621063232421875, 0, 0, 0.3621063232421875, -594.2,0.1)" id="svg"></g>

<g transform="matrix( 0.3621063232421875, 0, 0, 0.3621063232421875, -594.2,0.1)" id="Layer_2"></g>

<g transform="matrix( 0.3621063232421875, 0, 0, 0.3621063232421875, -594.2,0.1)" id="Layer_3"></g>

<g transform="matrix( 0.3621063232421875, 0, 0, 0.3621063232421875, -594.2,0.1)" id="Layer_2"></g>

<g transform="matrix( 0.3621063232421875, 0, 0, 0.3621063232421875, -594.2,0.1)" id="Layer_3"></g>

<g transform="matrix( 0.3621063232421875, 0, 0, 0.3621063232421875, -594.2,0.1)" id="MergedLayer_3"></g>

<g transform="matrix( 0.3621063232421875, 0, 0, 0.3621063232421875, -594.2,0.1)" id="Layer_4"></g>

<g transform="matrix( 0.3621063232421875, 0, 0, 0.3621063232421875, -594.2,0.1)" id="Layer_1">
<g>
<g>
<g>
<path d="M 1886.75 31.5
Q 1886.75 31.45 1886.7 31.4
L 1885.65 31.4
Q 1877.15 30.7 1866.1 31.3
L 1865.5 31.3
Q 1862 31.5 1858.2 31.8 1839.1 33.8 1829.5 34.4 1820.55 35 1807.15 35.1 1792.2 35.15 1784.75 35.3 1757.9 35.75 1740.6 40.05 1739.15 42.95 1741.3 46.1 1743.45 49.2 1746.7 48.8 1735.75 51.55 1725.45 57.15 1721.45 59.3 1720.05 61.35 1719 62.85 1718.85 64.6 1718.75 66.5 1719.75 67.85 1727.35 67.7 1737.65 69.25 1743.6 70.2 1755.5 72.4 1777.55 76.15 1790.65 72.6 1772.45 108.7 1757 144.45
L 1749.55 161.9
Q 1746.5 169.15 1745.5 173.15 1743.85 179.6 1744.85 184.75
L 1751.85 184.95
Q 1755.15 172.9 1762.2 162.35 1756.9 178.65 1758.05 195.4
L 1765.35 195.4
Q 1764.9 182.15 1769.15 169.55 1766.05 187.15 1765.95 204.55
L 1759.45 204.9
Q 1757.05 230.4 1749.75 261.1 1745 281.1 1734.6 316.3 1723.15 355.25 1718.95 371.5 1711 402.55 1707.8 427.55
L 1715.2 427.8
Q 1722.9 403.3 1727.25 391.05 1734.45 370.8 1742.1 355.4 1728.2 403.75 1728.55 453.85
L 1735.45 453.8
Q 1744.3 407.65 1749.6 360.25 1751 365.25 1750.2 372.25 1749.75 376.3 1748.2 384.35 1746.95 392.15 1746.9 402.1 1746.85 407.8 1747.3 419.9
L 1754.4 420.45 1754.4 434.75
Q 1752.6 432.25 1749.4 431.3 1746.25 430.3 1743.35 431.4 1748.4 449 1754.95 466.8 1746.8 468.3 1738.45 468.9
L 1738.6 475.85
Q 1748.1 477.35 1756.95 478.05
L 1758.05 482.45 1765.05 482.45
Q 1764.6 481.15 1765.5 480.2 1776.45 482.75 1790.45 483.55 1798.8 484 1815.65 484
L 1919.5 483.85 1919.5 478.3
Q 1921.15 478.9 1922.95 478 1924.6 477.15 1925.55 475.55 1926.9 473.35 1927.1 468.6 1927.5 460.95 1927.3 443.35 1926.55 383.85 1930.75 324.5 1930.968359375 381.5517578125 1936.95 430.1
L 1936.95 312.7
Q 1935.740234375 298.6025390625 1933.6 287 1931.85 277.6 1931.75 277 1930.8 271.3 1930.85 266.9 1930.9 258.9 1935.85 242.45 1936.4390625 240.483984375 1936.95 238.6
L 1936.95 199.25 1935.45 199.25 1929.55 234.15 1927.1 214.1 1923.35 213.75
Q 1923.75 209.8 1922.4 203.05 1920.85 195.3 1920.75 192.35 1920.65 189.9 1921.15 184.95 1921.65 180.1 1921.5 177.6 1921.25 173.4 1918.85 166.3 1916.25 158.45 1915.75 155.05 1915.45 153.15 1915.3 142.8 1915.15 135.35 1913.15 131.05
L 1906.25 130.8 1905.9 135.05 1902.8 129.55 1906.6 129
Q 1906.6 116.8 1902.05 105.4 1903.5 107.7 1906.25 108.65 1909 109.6 1911.6 108.7 1912.5 102.35 1911 94.55 1910 89.5 1907.2 80.65 1902.3 65.55 1898.25 55.45 1892.8 42 1886.75 31.5
M 1736.2 340.1
Q 1737.25 336.25 1739.55 328.65
L 1755.5 276.3
Q 1748.4 315.4 1733.2 352.45 1734.5 346.35 1736.2 340.1
M 1762.3 460.8
Q 1762.55 460.75 1762.95 461.05
L 1767.2 464.7
Q 1767 465 1766.3 465.1 1764.8 465.25 1763.55 465.2 1763.25 464.7 1763.1 463.9 1762.8 462.6 1762.8 462.55 1762.35 461.4 1762.3 460.8 Z" stroke="none" fill="#000000"></path>
</g>
</g>
</g>
</g>

<g transform="matrix( 0.3621063232421875, 0, 0, 0.3621063232421875, -594.2,0.1)" id="Layer_5"></g>

<g transform="matrix( 0.3621063232421875, 0, 0, 0.3621063232421875, -594.2,0.1)" id="Layer_6"></g>

<g transform="matrix( 0.3621063232421875, 0, 0, 0.3621063232421875, -594.2,0.1)" id="MergedLayer_1"></g>

<g transform="matrix( 0.3621063232421875, 0, 0, 0.3621063232421875, -594.2,0.1)" id="Layer_2"></g>
</g>
</svg>
