
<svg viewBox="0 0 135 110" height="110px" width="135px" y="0px" x="0px" preserveAspectRatio="none" xmlns:xlink="http://www.w3.org/1999/xlink" version="1.1" xmlns="http://www.w3.org/2000/svg">
<defs></defs>

<g id="Layer_1"></g>

<g id="Layer_2">
<g transform="matrix( 0.981231689453125, 0, 0, 0.976226806640625, -4.15,-3.65)" id="Layer_1">
<g>
<g>
<g>
<path d="M 142 37.75
Q 143.75 31.95 141.2 26.55 136.7 17.05 126.1 15.35 120.23046875 14.399609375 114.65 14.75 114.3798828125 14.31640625 114.1 13.85 113.95 13.6 113.8 13.35 112.7 12.25 111.45 11.15 110 9.9 108.75 8.55 105.65 5 101.5 3.75 99.65 3.95 98 5.05 96.4 6.1 94.7 6.85 91.3841796875 8.316015625 90 10.75 87.24609375 9.596484375 83.65 9.85 75.95 11.2 70.15 16.65 68.1033203125 18.5740234375 66.4 20.7 65.727734375 19.0982421875 64.7 17.65 64.65 17.25 64.55 16.9 64.4 16.4 64.2 15.9 64.05 15.5 63.8 15.2 63.75 14.95 63.65 14.7 63.3 13.85 62.85 13.05 62.5 12.4 62 11.8 61.85 10.7 61.2 9.8 59.4 7.3 56.3 7.1 54.05 7.5 51.8 8.3 45.9875 10.298828125 40.95 13.55 36.4103515625 16.544921875 32.5 20.55 24.6 28.75 20.1 39.1 16.5 47.4 19.4 55.75 21.8099609375 62.6689453125 27.75 65.6 24.959765625 68.2798828125 23.2 72.25 21 77.1 21.45 82.4 21.85 86.95 24.6 90.65 28.9595703125 96.5947265625 35.25 99.45 37.6755859375 100.557421875 40.4 101.2 40.35 101.4 40.35 101.6 40.15 102.6 40.15 103.55 40.1 104.3 40.3 104.95 40.5 105.75 40.65 106.5 40.8 106.7 40.85 106.95 41.3 108.25 42.35 109 51.1642578125 115.24921875 60.55 109.8 61.4205078125 110.5791015625 62.8 111 66 111.9 69.2 112.85 87.35 118.25 105.95 114.05 121.2244140625 110.5466796875 131.6 99.45 132.3427734375 98.6689453125 133.05 97.85 136.6806640625 93.6796875 137.85 88.45 137.878515625 88.3501953125 137.9 88.25 138.55 85.4 136.75 82.95 133.45 78.45 127.95 77.6 127.65 74.1 127.8 70.55 128.283984375 62.321484375 126.8 54.55 128.16953125 54.0580078125 129.45 53.35 138.95 48.05 142 37.75
M 128.7 20.05
Q 133.45 21.4 136.05 25.65 141.4 34.15 135.45 43 127.55 54.8 113.15 51.2 112.8 51.3 112.45 51.4 112.2 51.5 112 51.6 111.9 51.75 111.75 51.85 111.65 52 111.55 52.1 111.45 52.25 111.35 52.35 111.3 52.6 111.25 52.85 111.25 53.1 111.25 53.35 111.25 53.6 111.3 53.8 111.35 54.05 111.45 54.3 111.8 54.75 112.3 54.95 113 55.2 113.4 55.8 113.45 55.9 113.5 56.05 113.55 56.15 113.65 56.3 113.75 56.4 113.8 56.55 113.9 57.55 114 58.5 114.2 60 113.55 61.4 112.95 62.65 112.35 63.9 108.7388671875 67.0224609375 104.55 68.75 103.950390625 66.39453125 103.2 64.05 103.088671875 63.212890625 102.85 62.4 102.0548828125 59.3916015625 100.1 56.9 99.8 56.3 99.45 55.75 98.45 54.05 96.5 54 95.9 54 95.5 54.55 93.2 57.8 93.4 62 93.49921875 63.933984375 93.75 65.8 94.108203125 68.3771484375 94.75 70.85 87.9912109375 71.19453125 82.65 68.7 82.4349609375 67.49765625 82.15 66.3 81.7861328125 64.6658203125 81.3 63.05 79.95 58.5 75.75 57.1
L 75.75 57.15
Q 75.5 57.2 75.3 57.2 75.15 57.2 75.1 57.25 73.95 57.8 73.45 58.95 73.178125 59.616015625 72.95 60.3 72.6333984375 59.8134765625 72.3 59.3 71.85 58.6 71.15 58.3 63.2 55.05 62.6 46.7 62.1 40.25 63.7 34.05 65.2458984375 28.2201171875 68.35 23.95 73.58671875 16.7423828125 83.25 13.95 84.4 13.65 85.5 13.7 88.25 13.9 90.55 15.4 91.3 16.2 91.85 17.05 93.05 19 92.7 21.25 92.4 22.75 92.1 24.25 91.35 24.9 90.75 25.7 90.25 26.4 90.1 27.2 89.9 27.95 90.15 28.7 90.2 28.8 90.3 28.9 90.55 29.15 90.8 29.4 91 29.55 91.2 29.65 91.7 29.75 92.2 29.75 92.55 29.75 92.9 29.65 93.05 29.6 93.15 29.5 93.35 29.35 93.5 29.25 93.6 29.15 93.75 29 94.9 26.85 96.85 25.4 111.15 14.95 128.7 20.05
M 101.6 7.8
Q 103.65 9.25 105.45 10.95 107.7572265625 13.125390625 109.95 15.35 103.1298828125 16.5427734375 96.75 19.85 96.55 17.45 95.25 15.4 94.4083984375 14.0490234375 93.35 13 96.3783203125 10.9802734375 99.35 8.9 99.6 8.8 99.9 8.7 100.55 8.45 101.1 8.05 101.35 7.85 101.6 7.8
M 117.75 56.45
Q 118.65 55.8 120.3 55.75 121.7484375 55.73515625 123.15 55.5 123.1 56.3017578125 123.1 57.1 123.35 68.65 124.45 79.95 124.5 80.6 125.1 80.85 128.45 82.15 132 83.25 132.35 83.65 132.75 84.05 133.05 84.35 133.4 84.65 134.7666015625 86.40703125 134.05 88.45 134.06796875 88.5 134.05 88.55 132.9 91.75 130.8 94.5 128.76328125 97.1763671875 126.35 99.45 121.6361328125 103.93125 115.5 106.85 102.25 113.15 87.45 112 77.7 111.2 68.35 108.45 65.95 107.75 63.85 106.55 62.7939453125 105.9212890625 61.75 105.85 61.0013671875 105.3603515625 60.2 105.85 52.55 110.65 45.05 106.6 45 106.4 44.9 106.2 44.65 105.6 44.4 105 44.2 104.45 44.05 103.85 43.95 103.55 44 103.25 44.05 103.05 44.1 102.85 44.15 102.45 44.3 102.1 44.45 101.65 44.65 101.3 44.7 101.2 44.7 101.1 45.6 101.05 46.45 100.75 47.6119140625 100.3505859375 48.15 99.45 48.3404296875 99.1107421875 48.45 98.7 48.75 97.6 48 96.75 46.75 95.9 45.15 96.2 36.95 97.95 30.65 91.95 29.4 90.7 28.4 89.25 21.45 78.7 29.95 69 32.45 66.15 36.15 65.5 38.572265625 65.091796875 40.95 65.45 42.940625 65.7298828125 44.9 66.55 45.9 66.95 46.4 66.1 48.5 62.65 43.95 62.35 43.1 61.85 42.2 61.6 41.575 61.4197265625 40.95 61.25 38.975 60.862109375 37 60.9 33.848828125 61.5822265625 31.3 63 30.65078125 62.3974609375 29.7 61.95 27.9 61.15 26.55 59.75 19.65 52.45 23.1 42.9 27.6 30.35 37.4 21 39.1169921875 19.366796875 40.95 17.95 47.871875 12.7603515625 56.45 11.1 56.65 11.2 56.85 11.3 57.4 11.55 57.75 12 57.95 12.25 58.15 12.5 58.2 12.75 58.25 12.95 58.45 13.65 58.9 14.15 59.25 14.5 59.5 14.9 60.35 17.1 61.35 19.25 62.45 21.65 63 24.2 63.1 24.35 63.15 24.45 63.31796875 24.7189453125 63.5 24.95 61.169921875 29.0123046875 59.85 33.75 58.5 38.5 58.2 43.4 57.5 55.65 68.6 60.85 68.8 61.3 69.1 61.65 70.597265625 63.521484375 72.15 65.2 71.2873046875 70.033203125 72.4 74.95 72.293359375 75.044921875 72.15 75.15 71.2064453125 75.54453125 70.55 76.45 69.6 77.8 71.1 78.55 72.241015625 79.1521484375 73.5 79.3 73.75 80.55 74 81.7 74.529296875 83.8763671875 75.9 84.6 76.5791015625 85.418359375 77.5 86 80.65 88.05 81.9 84.7 83.65 79.95 83.35 74.7 83.3046875 73.923828125 83.2 73.15 89.1359375 75.5291015625 96.05 75 97.103515625 77.7390625 98.5 80.35 100.45 84 103.65 82.4 104.15 81.4 104.6 80.4 104.95 79.55 104.85 78.6 105.280078125 77.424609375 105.35 76.2 106.514453125 76.183984375 107.8 75.8 108.9 75.45 109 74.35 109.1134765625 72.5052734375 107.9 71.95 109.02421875 71.4509765625 110.1 70.85 118.95 65.95 117.75 56.45
M 42.1 31.05
Q 41.8 30.8 41.5 30.55 41.2384765625 30.35390625 40.95 30.2 40.356640625 29.95 39.65 29.95 39.4 30 39.15 30.05 39.05 30.05 38.9 30.1 35 33.15 31.9 37.05 26.2 44.25 27.7 53 28.45 57.6 32.3 58.4 32.45 58.3 32.55 58.2 32.85 57.95 33.15 57.75 33.4 57.6 33.7 57.45 37.315234375 58.9458984375 40.95 58.6 43.146484375 58.41640625 45.35 57.55 45.9 57.15 46.05 56.5 46.95 53.2 46.4 49.85 44.8 40.3 42.1 31.05
M 40.95 41.75
Q 40.975390625 41.91015625 41 42.05 42.1 48.05 42.5 54.15 41.721484375 54.4095703125 40.95 54.55 38.15390625 55.0255859375 35.45 53.85 35.3 53.5 35.1 53.2 34.9 52.95 34.7 52.7 34.1 52.5 33.55 52.3 33.3 52.35 33.05 52.4 32.85 52.45 32.65 52.55 32.35 52.8 32.05 53 31.9 53.1 31.65 53.15 30.75 50.7 31.4 48.1 33.3 40.65 39 35.35 39.4 35.5 39.65 36.45 40.4583984375 39.0650390625 40.95 41.75
M 118.05 94.45
Q 117.3 94 116.55 94.4 113.4 96.15 116.5 98.05 116.75 98.25 116.9 98.55 117 98.75 117.05 99 117.1 99.1 117.15 99.15 117.15 99.25 117.15 99.3 117.2 99.4 117.2 99.45 117.2 99.55 117.2 99.65 117.15 99.7 117.15 99.8 117.1 99.85 117.1 99.95 117.05 100.05 117.05 100.1 117.05 100.2 117.05 100.25 117 100.35 117 100.4 113.65 103.5 108.9 103.25 104.2 103.05 100.95 99.8 100.759375 99.609375 100.55 99.45 99.2501953125 98.39609375 97.6 98.7 96.6228515625 98.877734375 95.85 99.45 95.744921875 99.521875 95.65 99.6 88.45 105.05 79.35 104.2 73.85 103.7 71.05 99.45 71.05 99.35 71.05 99.3 71.05 99.2 71.05 99.15 71 99.05 71 99 71 98.9 71.05 98.8 71.05 98.75 71.05 98.65 71.15 98.5 71.25 98.35 71.35 98.2 71.4 98.05 71.45 97.95 71.5 97.85 71.5 97.8 71.55 97.7 71.55 97.65 71.6 97.55 71.6 97.5 71.65 97.4 72.7 96.15 73.1 94.5 73.3 93.65 72.6 93.25 69.4 91.25 65.15 92.25 63.5 92.4 63.3 94.05 63.15 95.65 64.85 95.95 66.5 96.2 67.75 96.45 67.05 97.6 67.2 98.95 67.2267578125 99.20390625 67.25 99.45 68.0560546875 104.7345703125 73.55 106.55 86.85 110.9 98.15 103 101.45 105.8 105.7 106.75 114.75 108.75 120.6 102.25 121.16953125 100.751171875 121.15 99.45 121.166015625 96.4107421875 118.05 94.45
M 100.6 88.05
Q 100.56875 88.2548828125 100.55 88.45 100.277734375 91.6869140625 104.05 92.3 113.5357421875 93.834375 120.8 88.45 121.3642578125 88.0447265625 121.9 87.6 123.15 86.55 123.15 85.05 123.15 81.7 119.35 82.45 109.9 82.65 101.55 86.75 100.7 87.2 100.6 88.05 Z" stroke="none" fill="#000000"></path>

<path d="M 120.3 55.75
Q 118.65 55.8 117.75 56.45 118.95 65.95 110.1 70.85 109.02421875 71.4509765625 107.9 71.95 109.1134765625 72.5052734375 109 74.35 108.9 75.45 107.8 75.8 106.514453125 76.183984375 105.35 76.2 105.280078125 77.424609375 104.85 78.6 104.95 79.55 104.6 80.4 104.15 81.4 103.65 82.4 100.45 84 98.5 80.35 97.103515625 77.7390625 96.05 75 89.1359375 75.5291015625 83.2 73.15 83.3046875 73.923828125 83.35 74.7 83.65 79.95 81.9 84.7 80.65 88.05 77.5 86 76.5791015625 85.418359375 75.9 84.6 74.529296875 83.8763671875 74 81.7 73.75 80.55 73.5 79.3 72.241015625 79.1521484375 71.1 78.55 69.6 77.8 70.55 76.45 71.2064453125 75.54453125 72.15 75.15 72.293359375 75.044921875 72.4 74.95 71.2873046875 70.033203125 72.15 65.2 70.597265625 63.521484375 69.1 61.65 68.8 61.3 68.6 60.85 57.5 55.65 58.2 43.4 58.5 38.5 59.85 33.75 61.169921875 29.0123046875 63.5 24.95 63.31796875 24.7189453125 63.15 24.45 63.1 24.35 63 24.2 62.45 21.65 61.35 19.25 60.35 17.1 59.5 14.9 59.25 14.5 58.9 14.15 58.45 13.65 58.25 12.95 58.2 12.75 58.15 12.5 57.95 12.25 57.75 12 57.4 11.55 56.85 11.3 56.65 11.2 56.45 11.1 47.871875 12.7603515625 40.95 17.95 39.1169921875 19.366796875 37.4 21 27.6 30.35 23.1 42.9 19.65 52.45 26.55 59.75 27.9 61.15 29.7 61.95 30.65078125 62.3974609375 31.3 63 33.848828125 61.5822265625 37 60.9 38.975 60.862109375 40.95 61.25 41.575 61.4197265625 42.2 61.6 43.1 61.85 43.95 62.35 48.5 62.65 46.4 66.1 45.9 66.95 44.9 66.55 42.940625 65.7298828125 40.95 65.45 38.572265625 65.091796875 36.15 65.5 32.45 66.15 29.95 69 21.45 78.7 28.4 89.25 29.4 90.7 30.65 91.95 36.95 97.95 45.15 96.2 46.75 95.9 48 96.75 48.75 97.6 48.45 98.7 48.3404296875 99.1107421875 48.15 99.45 47.6119140625 100.3505859375 46.45 100.75 45.6 101.05 44.7 101.1 44.7 101.2 44.65 101.3 44.45 101.65 44.3 102.1 44.15 102.45 44.1 102.85 44.05 103.05 44 103.25 43.95 103.55 44.05 103.85 44.2 104.45 44.4 105 44.65 105.6 44.9 106.2 45 106.4 45.05 106.6 52.55 110.65 60.2 105.85 61.0013671875 105.3603515625 61.75 105.85 62.7939453125 105.9212890625 63.85 106.55 65.95 107.75 68.35 108.45 77.7 111.2 87.45 112 102.25 113.15 115.5 106.85 121.6361328125 103.93125 126.35 99.45 128.76328125 97.1763671875 130.8 94.5 132.9 91.75 134.05 88.55 134.06796875 88.5 134.05 88.45 134.7666015625 86.40703125 133.4 84.65 133.05 84.35 132.75 84.05 132.35 83.65 132 83.25 128.45 82.15 125.1 80.85 124.5 80.6 124.45 79.95 123.35 68.65 123.1 57.1 123.1 56.3017578125 123.15 55.5 121.7484375 55.73515625 120.3 55.75
M 100.55 88.45
Q 100.56875 88.2548828125 100.6 88.05 100.7 87.2 101.55 86.75 109.9 82.65 119.35 82.45 123.15 81.7 123.15 85.05 123.15 86.55 121.9 87.6 121.3642578125 88.0447265625 120.8 88.45 113.5357421875 93.834375 104.05 92.3 100.277734375 91.6869140625 100.55 88.45
M 116.55 94.4
Q 117.3 94 118.05 94.45 121.166015625 96.4107421875 121.15 99.45 121.16953125 100.751171875 120.6 102.25 114.75 108.75 105.7 106.75 101.45 105.8 98.15 103 86.85 110.9 73.55 106.55 68.0560546875 104.7345703125 67.25 99.45 67.2267578125 99.20390625 67.2 98.95 67.05 97.6 67.75 96.45 66.5 96.2 64.85 95.95 63.15 95.65 63.3 94.05 63.5 92.4 65.15 92.25 69.4 91.25 72.6 93.25 73.3 93.65 73.1 94.5 72.7 96.15 71.65 97.4 71.6 97.5 71.6 97.55 71.55 97.65 71.55 97.7 71.5 97.8 71.5 97.85 71.45 97.95 71.4 98.05 71.35 98.2 71.25 98.35 71.15 98.5 71.05 98.65 71.05 98.75 71.05 98.8 71 98.9 71 99 71 99.05 71.05 99.15 71.05 99.2 71.05 99.3 71.05 99.35 71.05 99.45 73.85 103.7 79.35 104.2 88.45 105.05 95.65 99.6 95.744921875 99.521875 95.85 99.45 96.6228515625 98.877734375 97.6 98.7 99.2501953125 98.39609375 100.55 99.45 100.759375 99.609375 100.95 99.8 104.2 103.05 108.9 103.25 113.65 103.5 117 100.4 117 100.35 117.05 100.25 117.05 100.2 117.05 100.1 117.05 100.05 117.1 99.95 117.1 99.85 117.15 99.8 117.15 99.7 117.2 99.65 117.2 99.55 117.2 99.45 117.2 99.4 117.15 99.3 117.15 99.25 117.15 99.15 117.1 99.1 117.05 99 117 98.75 116.9 98.55 116.75 98.25 116.5 98.05 113.4 96.15 116.55 94.4
M 41.5 30.55
Q 41.8 30.8 42.1 31.05 44.8 40.3 46.4 49.85 46.95 53.2 46.05 56.5 45.9 57.15 45.35 57.55 43.146484375 58.41640625 40.95 58.6 37.315234375 58.9458984375 33.7 57.45 33.4 57.6 33.15 57.75 32.85 57.95 32.55 58.2 32.45 58.3 32.3 58.4 28.45 57.6 27.7 53 26.2 44.25 31.9 37.05 35 33.15 38.9 30.1 39.05 30.05 39.15 30.05 39.4 30 39.65 29.95 40.356640625 29.95 40.95 30.2 41.2384765625 30.35390625 41.5 30.55
M 105.45 10.95
Q 103.65 9.25 101.6 7.8 101.35 7.85 101.1 8.05 100.55 8.45 99.9 8.7 99.6 8.8 99.35 8.9 96.3783203125 10.9802734375 93.35 13 94.4083984375 14.0490234375 95.25 15.4 96.55 17.45 96.75 19.85 103.1298828125 16.5427734375 109.95 15.35 107.7572265625 13.125390625 105.45 10.95
M 121.6 40.75
Q 124.7 37.2 124 33.75 123.3 30.3 119.25 28.5 113.45 25.55 103.5 27.75 90.35 30.5 78.1 37.85 79.3 35.35 79.8 33.85 80.6 31.5 80.6 29.5 80.7 27.25 79.7 25.25 78.65 23.15 76.75 22.25 73.45 20.9 69.5 23.25 68.909375 23.576171875 68.35 23.95 65.2458984375 28.2201171875 63.7 34.05 62.1 40.25 62.6 46.7 63.2 55.05 71.15 58.3 71.85 58.6 72.3 59.3 72.6333984375 59.8134765625 72.95 60.3 73.178125 59.616015625 73.45 58.95 73.95 57.8 75.1 57.25 75.15 57.2 75.3 57.2 75.5 57.2 75.75 57.15
L 75.75 57.1
Q 79.95 58.5 81.3 63.05 81.7861328125 64.6658203125 82.15 66.3 83.3201171875 66.4388671875 84.5 66.5 89.2287109375 66.7470703125 93.75 65.8 93.49921875 63.933984375 93.4 62 93.2 57.8 95.5 54.55 95.9 54 96.5 54 98.45 54.05 99.45 55.75 99.8 56.3 100.1 56.9 102.0548828125 59.3916015625 102.85 62.4 103.06171875 62.2474609375 103.25 62.1 106 59.95 106.35 57 106.8 53.4 103.45 50.45 100.5 47.85 96.25 47 104.55 47.7 110.05 46.7 117.55 45.35 121.6 40.75 Z" stroke="none" fill="#6520C6"></path>

<path d="M 41 42.05
Q 40.975390625 41.91015625 40.95 41.75 40.4583984375 39.0650390625 39.65 36.45 39.4 35.5 39 35.35 33.3 40.65 31.4 48.1 30.75 50.7 31.65 53.15 31.9 53.1 32.05 53 32.35 52.8 32.65 52.55 32.85 52.45 33.05 52.4 33.3 52.35 33.55 52.3 34.1 52.5 34.7 52.7 34.9 52.95 35.1 53.2 35.3 53.5 35.45 53.85 38.15390625 55.0255859375 40.95 54.55 41.721484375 54.4095703125 42.5 54.15 42.1 48.05 41 42.05 Z" stroke="none" fill="#5113A3"></path>

<path d="M 84.5 66.5
Q 83.3201171875 66.4388671875 82.15 66.3 82.4349609375 67.49765625 82.65 68.7 87.9912109375 71.19453125 94.75 70.85 94.108203125 68.3771484375 93.75 65.8 89.2287109375 66.7470703125 84.5 66.5
M 124 33.75
Q 124.7 37.2 121.6 40.75 117.55 45.35 110.05 46.7 104.55 47.7 96.25 47 100.5 47.85 103.45 50.45 106.8 53.4 106.35 57 106 59.95 103.25 62.1 103.06171875 62.2474609375 102.85 62.4 103.088671875 63.212890625 103.2 64.05 103.950390625 66.39453125 104.55 68.75 108.7388671875 67.0224609375 112.35 63.9 112.95 62.65 113.55 61.4 114.2 60 114 58.5 113.9 57.55 113.8 56.55 113.75 56.4 113.65 56.3 113.55 56.15 113.5 56.05 113.45 55.9 113.4 55.8 113 55.2 112.3 54.95 111.8 54.75 111.45 54.3 111.35 54.05 111.3 53.8 111.25 53.6 111.25 53.35 111.25 53.1 111.25 52.85 111.3 52.6 111.35 52.35 111.45 52.25 111.55 52.1 111.65 52 111.75 51.85 111.9 51.75 112 51.6 112.2 51.5 112.45 51.4 112.8 51.3 113.15 51.2 127.55 54.8 135.45 43 141.4 34.15 136.05 25.65 133.45 21.4 128.7 20.05 111.15 14.95 96.85 25.4 94.9 26.85 93.75 29 93.6 29.15 93.5 29.25 93.35 29.35 93.15 29.5 93.05 29.6 92.9 29.65 92.55 29.75 92.2 29.75 91.7 29.75 91.2 29.65 91 29.55 90.8 29.4 90.55 29.15 90.3 28.9 90.2 28.8 90.15 28.7 89.9 27.95 90.1 27.2 90.25 26.4 90.75 25.7 91.35 24.9 92.1 24.25 92.4 22.75 92.7 21.25 93.05 19 91.85 17.05 91.3 16.2 90.55 15.4 88.25 13.9 85.5 13.7 84.4 13.65 83.25 13.95 73.58671875 16.7423828125 68.35 23.95 68.909375 23.576171875 69.5 23.25 73.45 20.9 76.75 22.25 78.65 23.15 79.7 25.25 80.7 27.25 80.6 29.5 80.6 31.5 79.8 33.85 79.3 35.35 78.1 37.85 90.35 30.5 103.5 27.75 113.45 25.55 119.25 28.5 123.3 30.3 124 33.75 Z" stroke="none" fill="#628BFF"></path>
</g>
</g>
</g>
</g>
</g>
</svg>
