
<svg viewBox="0 0 80 70" height="70px" width="80px" y="0px" x="0px" preserveAspectRatio="none" xmlns:xlink="http://www.w3.org/1999/xlink" version="1.1" xmlns="http://www.w3.org/2000/svg">
<defs></defs>

<g id="Layer_2">
<g transform="matrix( 0.2443389892578125, 0, 0, 0.2443389892578125, -5.6,-13.9)" id="Layer_1">
<g>
<g>
<g>
<path d="M 249 327
Q 249 327.5 248.8 327.9 248.5 328.5 248 329 247.1 335.9 250.25 338.75 250.5 339 251 339 251 338.5 250.95 338 250.45 332.05 249 327 Z" stroke="none" fill="#021826"></path>

<path d="M 246 307
Q 246 307.5 246 308 247.75 310.25 247.5 315
L 248 315
Q 248 314.5 248 314 248 311.5 248 309 251.2 309.7 251.85 307.95 252 307.5 252 307 251.5 307 251 307 248.5 307 246 307 Z" stroke="none" fill="#59635B"></path>

<path d="M 245.75 308.75
Q 245.5 309 245 309 245 309.5 245.25 309.75 246.6 311.2 244 313 245.25 318.75 248.4 324.8 248.5 325 249 325 249 324.5 248.95 324 248.7 319.3 248 315
L 247.5 315
Q 247.75 310.25 246 308 246 308.5 245.75 308.75 Z" stroke="none" fill="#091A21"></path>

<path d="M 258 305
Q 257.5 305 257 305 255.5 305 254 305 254 305.5 254 306 254 306.5 254 307 257.2 307.7 257.85 305.95 258 305.5 258 305 Z" stroke="none" fill="#716E5D"></path>

<path d="M 242 342
Q 242 341.5 241.8 341.1 238.35 333.3 234 325 233.85 337.3 237.8 345.1 238 345.5 238 346 248.95 347.95 250.85 340.95 251 340.5 251 340 250.5 340 250.2 340.25 246.05 343.5 242 342 Z" stroke="none" fill="#011424"></path>

<path d="M 234 325
Q 234 324.5 233.9 324 233.2 320.8 232 318 231.45 322.55 233.3 324.75 233.5 325 234 325 Z" stroke="none" fill="#32515A"></path>

<path d="M 232 314
Q 232 314.5 232 315 232 316 232 317 232 317.5 232 318 233.2 320.8 233.9 324 234 324.5 234 325 238.35 333.3 241.8 341.1 242 341.5 242 342 246.05 343.5 250.2 340.25 250.5 340 251 340 251 339.5 251 339 250.5 339 250.25 338.75 247.1 335.9 248 329 248.5 328.5 248.8 327.9 249 327.5 249 327 249 326.5 249 326 249 325.5 249 325 248.5 325 248.4 324.8 245.25 318.75 244 313 246.6 311.2 245.25 309.75 245 309.5 245 309 245 308.5 244.75 308.25 239.35 302.85 232 305 232 309.5 232 314 Z" stroke="none" fill="#06050E"></path>

<path d="M 229 309.05
Q 229.5 309 230 309 230 308.5 230 308 230 307.5 230 307 229.5 307 229 307 221.65 307.25 210 307 217.05 310.45 229 309.05 Z" stroke="none" fill="#706E5C"></path>

<path d="M 231 304
Q 231 304.5 231 305 231.5 305 232 305 239.35 302.85 244.75 308.25 245 308.5 245 309 245.5 309 245.75 308.75 246 308.5 246 308 246 307.5 246 307 246 306.5 245.75 306.2 240.75 299.75 231 304 Z" stroke="none" fill="#3F1C03"></path>

<path d="M 231 305
Q 231 305.5 230.75 305.75 230.5 306 230 306 230 306.5 230 307 230 307.5 230 308 230 308.5 230 309 231.7 310.75 231.5 315
L 232 315
Q 232 314.5 232 314 232 309.5 232 305 231.5 305 231 305 Z" stroke="none" fill="#2E2B1F"></path>

<path d="M 224 295
Q 232.25 296.75 242.95 295.5 243 295.5 243 295 242.5 295 242 295 241.5 295 241 295 232.5 295 224 295 Z" stroke="none" fill="#B3842D"></path>

<path d="M 216.95 294.5
Q 211.5 294 206 294 206 294.5 206 295 211 295 216 295 216.5 295 217 295 217 294.5 216.95 294.5 Z" stroke="none" fill="#EABA3A"></path>

<path d="M 206 294
Q 205.5 294 205 294 195.5 294 186 294 194.25 295.75 205 295.05 205.5 295 206 295 206 294.5 206 294 Z" stroke="none" fill="#C19210"></path>

<path d="M 178 293
Q 178 293.5 178 294 181.5 294 185 294 185.5 294 186 294 195.5 294 205 294 205.5 294 206 294 211.5 294 216.95 294.5 217 294.5 217 295 220 295 223 295 223.5 295 224 295 232.5 295 241 295 241.5 295 242 295 242 294.5 241.95 294.5 211.25 292.25 178 293 Z" stroke="none" fill="#FDD453"></path>

<path d="M 164 294.05
Q 164.5 294 165 294 165 293.5 164.95 293.5 156.5 293 148 293 154.75 294.75 164 294.05 Z" stroke="none" fill="#D1A033"></path>

<path d="M 290 261
Q 290 261.5 290 262 290 262.5 290 263 294 262.5 295.35 264.8 295.5 265 296 265 296 264.5 296 264 296 262 296 260 295.5 260 295.15 260.25 293.35 261.35 290 261 Z" stroke="none" fill="#110201"></path>

<path d="M 290 263
Q 289.5 263 289.45 263.15 285.6 276.05 284 288 284 288.5 283.75 288.85 282.2 291.2 280 293 287.6 297.3 295.75 289.75 296 289.5 296 289 296 277.5 296 266 296 265.5 296 265 295.5 265 295.35 264.8 294 262.5 290 263 Z" stroke="none" fill="#040302"></path>

<path d="M 296 249
L 295.5 249
Q 295.7 253.2 294 255 294 255.5 294 256 294 256.5 294 257 294.5 258 295.25 258.75 295.5 259 296 259 296 258.5 296 258 296 253.5 296 249 Z" stroke="none" fill="#6E6958"></path>

<path d="M 280 293
L 279.5 293
Q 279.65 295.15 278 295 280.75 306.35 292.1 300.2 292.5 300 293 300 296.1 296.6 298.4 292.2 298.5 292 299 292 302.35 276 296.55 260.15 296.5 260 296 260 296 262 296 264 296 264.5 296 265 296 265.5 296 266 296 277.5 296 289 296 289.5 295.75 289.75 287.6 297.3 280 293 Z" stroke="none" fill="#030F1B"></path>

<path d="M 278 291
Q 278 292.5 278 294 278 294.5 278 295 279.65 295.15 279.5 293
L 280 293
Q 282.2 291.2 283.75 288.85 284 288.5 284 288 284 287.5 284 287 283.5 287 283.3 287.25 281.15 289.65 278 291 Z" stroke="none" fill="#5B594A"></path>

<path d="M 273.95 296
Q 274 295.5 274 295 273.5 295 273.2 295.25 270.3 297.8 266 299 266 299.5 266 300 266 300.5 266 301 273.65 300.35 273.95 296 Z" stroke="none" fill="#706F61"></path>

<path d="M 261 289
Q 261 289.5 261 290 264.75 289.75 265.85 286.95 266 286.5 266 286 265.5 286 265.3 286.25 263.8 288.3 261 289 Z" stroke="none" fill="#BF8E2E"></path>

<path d="M 282 267
Q 281.5 267 281.4 267.2 276.05 279.05 266 286 266 286.5 265.85 286.95 264.75 289.75 261 290 266.55 291.7 274 286.5
L 274 287
Q 280.75 280.25 281.95 268 282 267.5 282 267 Z" stroke="none" fill="#A36B11"></path>

<path d="M 283 261
Q 283 261.5 283 262 285.05 275 284.05 286 284 286.5 284 287 284 287.5 284 288 285.6 276.05 289.45 263.15 289.5 263 290 263 290 262.5 290 262 290 261.5 290 261 293.35 261.35 295.15 260.25 295.5 260 296 260 296 259.5 296 259 295.5 259 295.25 258.75 294.5 258 294 257 293.5 257 293 257 285.7 256.7 283 261 Z" stroke="none" fill="#2E0D03"></path>

<path d="M 285 230
Q 284.5 230 284 230 284 242 284 254 284 254.5 284 255 284.5 255 285 255 285 254.5 285 254 285 242 285 230 Z" stroke="none" fill="#B27223"></path>

<path d="M 285 230
Q 285 229.5 285 229 285 218.5 285 208 284.5 208 284 208 284 218.5 284 229 284 229.5 284 230 284.5 230 285 230 Z" stroke="none" fill="#CB8F31"></path>

<path d="M 99.05 301.1
Q 99.5 301 100 301 100 300.5 99.85 300.05 99.2 298.3 96 299 95.6 301.95 99.05 301.1
M 105 303.1
Q 105.5 303 106 303 106 302.5 105.8 302.35 103.5 300.95 100 301 100.3 304.2 105 303.1 Z" stroke="none" fill="#6F6F60"></path>

<path d="M 96 299
Q 96 298.5 95.85 298.05 95.2 296.3 92 297 91.6 299.95 95.05 299.1 95.5 299 96 299 Z" stroke="none" fill="#6E7060"></path>

<path d="M 137 326
Q 136.5 326 136 326 136 329.5 136 333 136 333.5 136 334 137.75 331.75 137.05 327 137 326.5 137 326 Z" stroke="none" fill="#37525B"></path>

<path d="M 139 319
L 138.5 319
Q 138.7 322.2 137 323 137 324 137 325 137 325.5 137 326 139.45 324.45 139.05 320 139 319.5 139 319 Z" stroke="none" fill="#334D54"></path>

<path d="M 129.95 308
Q 130 307.5 130 307 129.5 307 129.3 307.25 123.15 315.15 121 327 118.6 339.4 125.1 342.8 125.5 343 126 343 135.25 345.75 135.95 335 136 334.5 136 334 136 333.5 136 333 136 329.5 136 326 136.5 326 137 326 137 325.5 137 325 137 324 137 323 138.7 322.2 138.5 319
L 139 319
Q 139.5 318.5 139.8 317.9 140 317.5 140 317 139.5 317 139.1 317.2 135.5662109375 319.0845703125 131.5 319 131.394140625 328.99375 124 321 129.3 316.35 129.95 308
M 129 328.5
L 129 328
Q 138 326.9 129 328.5 Z" stroke="none" fill="#02121D"></path>

<path d="M 129 328
L 129 328.5
Q 138 326.9 129 328 Z" stroke="none" fill="#0A0912"></path>

<path d="M 126 305
Q 126 304.5 125.85 304.45 120.75 302.75 108 303 114.05 306.45 125 305.05 125.5 305 126 305 Z" stroke="none" fill="#736D5C"></path>

<path d="M 145 305
Q 145 306 145 307 145 307.5 145 308 160.75 306.25 179 307 179.5 307 180 307 180 306.5 179.95 306.5 163.7 304.3 145 305 Z" stroke="none" fill="#716C5B"></path>

<path d="M 145 304
Q 144.5 304 144.05 304.15 137.45 306.05 131 303 130.5 303 130 303 130 303.5 130 304 130 304.5 130 305 130 305.5 130 306 130 306.5 130 307 130 307.5 129.95 308 129.3 316.35 124 321 131.394140625 328.99375 131.5 319 135.5662109375 319.0845703125 139.1 317.2 139.5 317 140 317 140 316.5 140 316 142.15 312.15 144.75 308.8 145 308.5 145 308 145 307.5 145 307 145 306 145 305 145 304.5 145 304 Z" stroke="none" fill="#0A080B"></path>

<path d="M 142.05 300.85
Q 142.5 301 143 301 143 300.5 142.8 300.4 138.4 298.1 133 300 133 300.5 133 301 138.3 299.55 142.05 300.85 Z" stroke="none" fill="#5B3704"></path>

<path d="M 144.95 303
Q 144.7 301.3 143 301 142.5 301 142.05 300.85 138.3 299.55 133 301 132.5 301 132.1 301.2 131.5 301.5 131 302 131 302.5 131 303 137.45 306.05 144.05 304.15 144.5 304 145 304 145 303.5 144.95 303 Z" stroke="none" fill="#2D0800"></path>

<path d="M 62 301
Q 61.5 301 61 301 57.5 301 54 301 53.5 301 53 301 56.25 302.75 61.9 301.5 62 301.5 62 301 Z" stroke="none" fill="#273F47"></path>

<path d="M 61 301
Q 61.5 301 62 301 62 300.5 61.95 300.5 58 300 54 300 54 300.5 54 301 57.5 301 61 301 Z" stroke="none" fill="#020209"></path>

<path d="M 78 285
Q 77.5 285 77 285 73.5 285 70 285 71.3 286.7 75 286.1 75.5 286 76 286 76.5 286 77 286 77.5 286 78 286 78 285.5 78 285 Z" stroke="none" fill="#324649"></path>

<path d="M 76 277
Q 75.5 277 75.3 277.25 73.15 279.65 71 282 71 282.5 70.75 282.75 70.5 283 70 283 70 283.5 70 284 70 284.5 70 285 73.5 285 77 285 77.5 285 78 285 78 284.5 77.9 284.05 77 280.5 76 277 Z" stroke="none" fill="#5C6B66"></path>

<path d="M 48 291
L 47.5 291
Q 47.65 293.15 46 293 45.4 300.6 52 300.95 52.5 301 53 301 53 300.5 52.8 300.4 48.1 297.9 48 291 Z" stroke="none" fill="#06222D"></path>

<path d="M 80 263
Q 80 262.5 79.9 262 79.25 259.25 78 257 76.95 265.05 79.8 263.6 80 263.5 80 263 Z" stroke="none" fill="#A76B0B"></path>

<path d="M 68 269
L 67.5 269
Q 67.65 271.15 66 271 65.25 279.25 70.1 281.8 70.5 282 71 282 73.15 279.65 75.3 277.25 75.5 277 76 277 76 276.5 76 276 77 275.5 77.75 274.75 78 274.5 78 274 78 273.5 77.75 273.15 72.75 265.15 68 269 Z" stroke="none" fill="#0E0704"></path>

<path d="M 68 266
Q 67.5 266 67 266 66.5 266 66 266 66 266.5 66 267 68.15 266.4 68.05 268 68 268.5 68 269 72.75 265.15 77.75 273.15 78 273.5 78 274 78.5 274 78.5 273.9 80.65 262.95 68 266 Z" stroke="none" fill="#3A1606"></path>

<path d="M 68 217
Q 67.5 217 67.1 217.2 66.5 217.5 66 218 65.25 241.75 67.5 262.95 67.5 263 68 263 68 262.5 68 262 68 239.5 68 217 Z" stroke="none" fill="#7F6B4D"></path>

<path d="M 79.05 207
Q 79 206.5 79 206 78.5 206 78 206 78 214 78 222 78 222.5 78 223 79.75 216.25 79.05 207 Z" stroke="none" fill="#E5A939"></path>

<path d="M 78 204
L 77.5 204
Q 77.4 208.9 74 210 76.75 232.25 77.5 257
L 78 257
Q 78 256.5 78 256 78 239.5 78 223 78 222.5 78 222 78 214 78 206 78 205.5 78 205 78 204.5 78 204 Z" stroke="none" fill="#A7671F"></path>

<path d="M 117 292
Q 117.5 292 118 291.95 128.45 291.15 115 291 115 291.5 115 292 115.5 292 116 292 116.5 292 117 292 Z" stroke="none" fill="#FED15E"></path>

<path d="M 103 287
Q 103 287.5 103 288 104 288.5 105.05 288.85 105.5 289 106 289 106.5 289 106.75 288.75 109.15 286.3 103 287 Z" stroke="none" fill="#FDD157"></path>

<path d="M 107.5 295
L 107 295
Q 103.55 296 112.05 298.85 112.5 299 113 299 180.25 295 248 298.95 248.5 299 249 299 255.1 297.15 257.8 292.85 258 292.5 258 292 257.5 292 257.05 292.15 250.75 294.25 243 295 243 295.5 242.95 295.5 232.25 296.75 224 295 223.5 295 223 295 220 295 217 295 216.5 295 216 295 211 295 206 295 205.5 295 205 295.05 194.25 295.75 186 294 185.5 294 185 294 181.5 294 178 294 177.5 294 177 294 171 294 165 294 164.5 294 164 294.05 154.75 294.75 148 293 147.5 293 147 293 130.75 293.75 117 292 116.5 292 116 292 115.5 292 115 292 114.5 292 114 291.95 109.05 291.45 106 289 105.5 289 105.05 288.85 104 288.5 103 288 102.5 288 102.15 287.8 89.8 280.2 82 268 87.1 291.15 107.5 295 Z" stroke="none" fill="#A36811"></path>

<path d="M 90 295
Q 90 294.5 89.85 294.05 88.65 290.85 84 291 85.25 294.25 89 294.9 89.5 295 90 295 Z" stroke="none" fill="#6F6F62"></path>

<path d="M 82 293
Q 81.5 293 81.05 293.1 68.25 296.25 68 287 72.7 291.1 75.75 286.85 76 286.5 76 286 75.5 286 75 286.1 71.3 286.7 70 285 70 284.5 70 284 70 283.5 70 283 70.5 283 70.75 282.75 71 282.5 71 282 70.5 282 70.1 281.8 65.25 279.25 66 271 67.65 271.15 67.5 269
L 68 269
Q 68 268.5 68.05 268 68.15 266.4 66 267 65.5 267 65.3 267.25 56.05 278.55 48 291 48.1 297.9 52.8 300.4 53 300.5 53 301 53.5 301 54 301 54 300.5 54 300 58 300 61.95 300.5 62 300.5 62 301 71.65 297.15 81.85 293.55 82 293.5 82 293 Z" stroke="none" fill="#020D18"></path>

<path d="M 84.05 290
Q 84.2 287.3 82 287 82 289.5 82 292 82 292.5 82 293 83.65 293.15 83.5 291
L 84 291
Q 84 290.5 84.05 290 Z" stroke="none" fill="#596059"></path>

<path d="M 82 287
Q 81.5 287 81.15 286.75 79.95 286.05 78 286 77.5 286 77 286 76.5 286 76 286 76 286.5 75.75 286.85 72.7 291.1 68 287 68.25 296.25 81.05 293.1 81.5 293 82 293 82 292.5 82 292 82 289.5 82 287 Z" stroke="none" fill="#0C0908"></path>

<path d="M 82 117
Q 82 117.5 82 118
L 82 118.5
Q 85.65 118.45 82 115 82 116 82 117 Z" stroke="none" fill="#FDC856"></path>

<path d="M 79 187
Q 78.5 187 78 187 78 191 78 195 78 195.5 78 196 78 199 78 202 78 202.5 78 203 78 203.5 78 204 78 204.5 78 205 78 205.5 78 206 78.5 206 79 206 79 205.5 79 205 79 196 79 187 Z" stroke="none" fill="#C98F2E"></path>

<path d="M 78 196
Q 77.5 196 77 196 76.5 196 76 196 76.25 199.75 77.45 202.85 77.5 203 78 203 78 202.5 78 202 78 199 78 196 Z" stroke="none" fill="#A6641C"></path>

<path d="M 67.1 188.2
Q 66.5 188.5 66 189 66 203 66 217 66 217.5 66 218 66.5 217.5 67.1 217.2 67.5 217 68 217 68 216.5 68 216 68 202 68 188 67.5 188 67.1 188.2 Z" stroke="none" fill="#6D6E61"></path>

<path d="M 79 170
Q 78.5 170 78 170 78 171 78 172 78 172.5 78 173 78 173.5 78.1 174 78.7 177.7 77 179 78.55 181.45 78.05 186 78 186.5 78 187 78.5 187 79 187 79 186.5 79 186 79 178 79 170 Z" stroke="none" fill="#B77928"></path>

<path d="M 79 159
Q 78.5 159 78 159 77.5 159 77 159 77 166 77.5 172.95 77.5 173 78 173 78 172.5 78 172 78 171 78 170 78.5 170 79 170 79 169.5 79 169 79 164 79 159 Z" stroke="none" fill="#AA6C1A"></path>

<path d="M 80 122
Q 79.5 122 79 122 79 125.5 79 129 79 129.5 79 130 80.75 127.75 80.05 123 80 122.5 80 122 Z" stroke="none" fill="#C38A34"></path>

<path d="M 70 119
L 69.5 119
Q 69.65 121.15 68 121 68 122.5 68 124 68 124.5 68 125 71.2 124.7 70.1 120 70 119.5 70 119 Z" stroke="none" fill="#6D624F"></path>

<path d="M 133 87
Q 133 86.5 133 86 132.5 86 132 86 127.5 86 123 86 123 86.5 123 87 127.5 87 132 87 132.5 87 133 87 Z" stroke="none" fill="#D39945"></path>

<path d="M 133 86
Q 133 86.5 133 87 139 87 145 87 145.5 87 146 87 146 86.5 145.95 86.5 139.5 86 133 86 Z" stroke="none" fill="#C28832"></path>

<path d="M 102.75 93.75
Q 103 93.5 103 93 125.5 89.3 115 88.05 114.5 88 114 88 113.5 88 113.05 88.15 95.5 93.5 86 107 86 107.5 86 108 93.6 102.6 102.75 93.75 Z" stroke="none" fill="#F8C65C"></path>

<path d="M 111 77
Q 110.5 77 110 77 108 77 106 77 106 77.5 106 78 106 78.5 106 79 109.35 79.35 110.75 77.8 111 77.5 111 77 Z" stroke="none" fill="#696554"></path>

<path d="M 286 176
Q 285.5 176 285 176 285 191.5 285 207 285 207.5 285 208 285 218.5 285 229 285 229.5 285 230 285 242 285 254 285 254.5 285 255 286.75 217.25 286 177 286 176.5 286 176 Z" stroke="none" fill="#A36405"></path>

<path d="M 286 158
Q 286 158.5 286 159 286 166.5 286 174 286 174.5 286 175 286.5 175 286.5 174.9 290.25 157.75 286 143 286 150.5 286 158 Z" stroke="none" fill="#A3621C"></path>

<path d="M 286 159
Q 285.5 159 285 159 285 167 285 175 285 175.5 285 176 285.5 176 286 176 286 175.5 286 175 286 174.5 286 174 286 166.5 286 159 Z" stroke="none" fill="#B67916"></path>

<path d="M 298 143
Q 297.5 143 297 143 296.5 143 296 143 296.75 157.95 296 174 296 174.5 296 175 299.45 161.95 298.05 144 298 143.5 298 143 Z" stroke="none" fill="#676250"></path>

<path d="M 286 143
Q 286 142.5 286 142 286 140 286 138 286 137.5 286.05 137 286.75 131.25 285 128 285 143 285 158 285 158.5 285 159 285.5 159 286 159 286 158.5 286 158 286 150.5 286 143 Z" stroke="none" fill="#CF9333"></path>

<path d="M 298.05 136
Q 299.25 126.9 296 127 295.6 132.95 297.4 136.8 297.5 137 298 137 298 136.5 298.05 136 Z" stroke="none" fill="#646251"></path>

<path d="M 241 79.05
Q 241.5 79 242 79 242 78.5 241.95 78.5 227.25 76.25 210 77 223.2 80.3 241 79.05 Z" stroke="none" fill="#69634C"></path>

<path d="M 222 88
Q 222 88.5 222 89 231 89 240 89 240.5 89 241 89 241 88.5 240.95 88.5 231.5 88 222 88 Z" stroke="none" fill="#B6781C"></path>

<path d="M 222 88
Q 221.5 88 221 88 215.5 88 210 88 214.25 89.75 221 89.05 221.5 89 222 89 222 88.5 222 88 Z" stroke="none" fill="#D29436"></path>

<path d="M 178 87
Q 178 87.5 178 88 184 88 190 88 190.5 88 191 88 191 87.5 190.95 87.5 184.5 87 178 87 Z" stroke="none" fill="#AF7E07"></path>

<path d="M 178 87
Q 177.5 87 177 87 170.5 87 164 87 169.25 88.75 177 88.05 177.5 88 178 88 178 87.5 178 87 Z" stroke="none" fill="#CF9B31"></path>

<path d="M 164 87
Q 163.5 87 163 87 154.5 87 146 87 145.5 87 145 87 139 87 133 87 132.5 87 132 87 127.5 87 123 87 122.5 87 122 87 118 87 114 87 114 87.5 114 88 114.5 88 115 88.05 125.5 89.3 103 93 103 93.5 102.75 93.75 93.6 102.6 86 108 85.5 108 85.5 108.1 84.75 112.25 82 114 82 114.5 82 115 85.65 118.45 82 118.5
L 82 118 81.5 118
Q 81.65 120.15 80 120 80 120.5 80 121 80 121.5 80 122 80 122.5 80.05 123 80.75 127.75 79 130 79 144 79 158 79 158.5 79 159 79 164 79 169 79 169.5 79 170 79 178 79 186 79 186.5 79 187 79 196 79 205 79 205.5 79 206 79 206.5 79.05 207 79.75 216.25 78 223 78 239.5 78 256 78 256.5 78 257 79.25 259.25 79.9 262 80 262.5 80 263 82.55 263.45 82.05 267 82 267.5 82 268 89.8 280.2 102.15 287.8 102.5 288 103 288 103 287.5 103 287 109.15 286.3 106.75 288.75 106.5 289 106 289 109.05 291.45 114 291.95 114.5 292 115 292 115 291.5 115 291 128.45 291.15 118 291.95 117.5 292 117 292 130.75 293.75 147 293 147.5 293 148 293 156.5 293 164.95 293.5 165 293.5 165 294 171 294 177 294 177.5 294 178 294 178 293.5 178 293 211.25 292.25 241.95 294.5 242 294.5 242 295 242.5 295 243 295 250.75 294.25 257.05 292.15 257.5 292 258 292 258 291.5 258 291 260.15 291.65 260.5 290.1 260.5 290 261 290 261 289.5 261 289 263.8 288.3 265.3 286.25 265.5 286 266 286 276.05 279.05 281.4 267.2 281.5 267 282 267 282 266.5 282 266 282 264 282 262 282.5 262 283 262 283 261.5 283 261 283 260.5 283 260 283 258 283 256 283.5 256 283.75 255.75 284 255.5 284 255 284 254.5 284 254 284 242 284 230 284 229.5 284 229 284 218.5 284 208 284.5 208 285 208 285 207.5 285 207 285 191.5 285 176 285 175.5 285 175 285 167 285 159 285 158.5 285 158 285 143 285 128 285 127.5 284.9 127 278.45 92.55 241 89 240.5 89 240 89 231 89 222 89 221.5 89 221 89.05 214.25 89.75 210 88 209.5 88 209 88 200 88 191 88 190.5 88 190 88 184 88 178 88 177.5 88 177 88.05 169.25 88.75 164 87
M 258 96.95
Q 258.5 97 259 97 264.4 101.6 265.9 110 266 110.5 266 111 178.1 118.55 102.1 102.5 102 102.5 102 102 105.4 97.4 109.75 93.7 110 93.5 110 93 186.05 88.1 258 96.95
M 204.75 141.2
Q 205 141.5 205 142 212.3 145.7 216.4 152.8 216.5 153 217 153 219.95 154.55 220.9 158.05 221 158.5 221 159 226.4 166.6 228.9 177.05 229 177.5 229 178 230.7 179.3 230.5 183
L 231 183
Q 232.75 187.75 231.5 194.9 231.5 195 231 195 231 195.5 230.85 195.95 230 198 229 200 229 200.5 228.9 201 227.05 210.05 222 216 222 216.5 222 217 222 217.5 222 218 222 218.5 221.9 219 221.1 224.1 216 225
L 215.5 225
Q 215.65 227.65 213 227 213 227.5 213 228 213.5 228 213.55 228.15 215.15 234.15 208 233 208 233.5 208.05 234 208.3 237.8 204 237 204 237.5 203.8 237.9 197.5 252 180 250 179.5 250 179 250 176.5 250 174 250 174 250.5 173.9 250.95 172.55 256.2 156 254 156 253.5 155.75 253.15 150.5 246 152 232 152 231.5 152 231 152 230 152 229 151.5 229 151.4 228.8 149.25 224.75 150 218 150 217.5 150 217 150 214.5 150 212 149.5 212 149.15 212.25 147.55 213.4 148 208 148.5 208.5 149.1 208.8 149.5 209 150 209 150 208.5 150 208 150.5 208 151 208 151 207.5 151 207 150.8 200.2 149 195 148.5 195 148.5 194.95 148 190.5 148 186 148 185.5 148 185 148 183 148 181 147.5 181 147.4 180.8 145.25 176.25 146 169 146 168.5 146 168 146 167 146 166 145.5 166 145.4 165.8 143.35 162.15 144 156 144 155.5 144 155 143.5 155 143.35 154.8 141.25 151.25 142 145 142 144.5 142 144 142 140.5 142 137 142.5 137 143 137 143 136.5 143 136 143 135.5 143 135 144.55 128.05 152 127.05 152.5 127 153 127 153 126.5 153 126 159 126 165 126 165.5 126 166 126 171.8 127.2 177.9 128.5 178 128.5 178 129 181 129.5 183.85 130.45 184 130.5 184 131 188 132 191.85 133.45 192 133.5 192 134 195.3 135.7 198.8 137.4 199 137.5 199 138 202.7 138.8 204.75 141.2
M 129 291.5
L 129 291
Q 148.5 291.5 129 291.5
M 132.15 287.55
Q 132 287.5 132 287 151.25 286.25 167.95 288.5 168 288.5 168 289 150.75 292.9 132.15 287.55
M 274.25 265.85
Q 274 265.5 274 265 277.35 270.7 274.25 265.85 Z" stroke="none" fill="#F8C83F"></path>

<path d="M 274 265
Q 274 265.5 274.25 265.85 277.35 270.7 274 265
M 132 287
Q 132 287.5 132.15 287.55 150.75 292.9 168 289 168 288.5 167.95 288.5 151.25 286.25 132 287 Z" stroke="none" fill="#F9D937"></path>

<path d="M 129 291
L 129 291.5
Q 148.5 291.5 129 291 Z" stroke="none" fill="#FED553"></path>

<path d="M 204 237
Q 203.5 237 203 237 202.5 237 202.25 237.25 193.55 246.05 180 250 197.5 252 203.8 237.9 204 237.5 204 237 Z" stroke="none" fill="#DCC266"></path>

<path d="M 208.05 234
Q 208 233.5 208 233 207.5 233 207.4 233.2 206.2 235.7 203 236 203 236.5 203 237 203.5 237 204 237 208.3 237.8 208.05 234 Z" stroke="none" fill="#D1B867"></path>

<path d="M 213.55 228.15
Q 213.5 228 213 228 212.5 228 212.45 228.15 211.45 231.45 208 232 208 232.5 208 233 215.15 234.15 213.55 228.15 Z" stroke="none" fill="#DABE5E"></path>

<path d="M 221.9 219
Q 222 218.5 222 218 221.5 218 221.35 218.2 219.2 221.7 216 224 216 224.5 216 225 221.1 224.1 221.9 219 Z" stroke="none" fill="#D5BB67"></path>

<path d="M 153 242
Q 153 241.5 153.05 241 153.75 235.25 152 232 150.5 246 155.75 253.15 156 253.5 156 254 172.55 256.2 173.9 250.95 174 250.5 174 250
L 174 249.5
Q 169.15 252.15 161 252 160.5 252 160.2 251.75 155.35 248.15 153 242 Z" stroke="none" fill="#DAC061"></path>

<path d="M 151 218
Q 150.5 218 150 218 149.25 224.75 151.4 228.8 151.5 229 152 229 152 228.5 152.05 228 152.75 221.75 151 218 Z" stroke="none" fill="#D4B85F"></path>

<path d="M 151 208
Q 150.5 208 150 208 150 208.5 150 209 150 210 150 211 150 211.5 150 212 150 214.5 150 217 150 217.5 150 218 150.5 218 151 218 151 217.5 151 217 151 212.5 151 208 Z" stroke="none" fill="#D2BB76"></path>

<path d="M 150 209
Q 149.5 209 149.1 208.8 148.5 208.5 148 208 147.55 213.4 149.15 212.25 149.5 212 150 212 150 211.5 150 211 150 210 150 209 Z" stroke="none" fill="#EBD25E"></path>

<path d="M 149 195
Q 149 194.5 149.05 194 149.75 188.75 148 186 148 190.5 148.5 194.95 148.5 195 149 195 Z" stroke="none" fill="#D0B775"></path>

<path d="M 148 181
Q 148 180.5 147.95 180 147.1 174.4 146 169 145.25 176.25 147.4 180.8 147.5 181 148 181 Z" stroke="none" fill="#CDAA5E"></path>

<path d="M 146 166
Q 146 165.5 145.95 165 145.3 160.2 144 156 143.35 162.15 145.4 165.8 145.5 166 146 166 Z" stroke="none" fill="#D6B664"></path>

<path d="M 143 145
Q 142.5 145 142 145 141.25 151.25 143.35 154.8 143.5 155 144 155 144 154.5 144 154 144 152 144 150 143.5 150 143.5 149.9 143 147.5 143 145 Z" stroke="none" fill="#E2BC64"></path>

<path d="M 143 137
Q 142.5 137 142 137 142 140.5 142 144 142 144.5 142 145 142.5 145 143 145 143 144.5 143 144 143 140.5 143 137 Z" stroke="none" fill="#CD9E4B"></path>

<path d="M 153 127
Q 152.5 127 152 127.05 144.55 128.05 143 135 143 135.5 143 136 143 136.5 143 137 143 140.5 143 144 143 144.5 143 145 143 147.5 143.5 149.9 143.5 150 144 150 144 149.5 144 149 144 144 144 139 145.95 130.95 152.8 127.6 153 127.5 153 127 Z" stroke="none" fill="#451E02"></path>

<path d="M 231 195
Q 231.5 195 231.5 194.9 232.75 187.75 231 183 231 188.5 231 194 231 194.5 231 195 Z" stroke="none" fill="#E9CB66"></path>

<path d="M 231 183
L 230.5 183
Q 230.7 179.3 229 178 230.65 188.65 229.05 199 229 199.5 229 200 230 198 230.85 195.95 231 195.5 231 195 231 194.5 231 194 231 188.5 231 183 Z" stroke="none" fill="#805D11"></path>

<path d="M 220.3 158.75
Q 220.5 159 221 159 221 158.5 220.9 158.05 219.95 154.55 217 153 218.2 156.3 220.3 158.75 Z" stroke="none" fill="#8B6822"></path>

<path d="M 191.85 133.45
Q 188 132 184 131 186.25 133.75 191 134 191.5 134 192 134 192 133.5 191.85 133.45 Z" stroke="none" fill="#644409"></path>

<path d="M 166 126
Q 165.5 126 165 126 159 126 153 126 153 126.5 153 127 159 127 165 127 165.5 127 166 127 166 126.5 166 126 Z" stroke="none" fill="#694702"></path>

<path d="M 178 129
Q 178 128.5 177.9 128.5 171.8 127.2 166 126 166 126.5 166 127 170.75 128.7 177 129 177.5 129 178 129 Z" stroke="none" fill="#774F08"></path>

<path d="M 205 142
Q 204.5 142 204.05 141.8 200.95 140.55 199 138 199 137.5 198.8 137.4 195.3 135.7 192 134 191.5 134 191 134 186.25 133.75 184 131 184 130.5 183.85 130.45 181 129.5 178 129 177.5 129 177 129 170.75 128.7 166 127 165.5 127 165 127 159 127 153 127 153 127.5 152.8 127.6 145.95 130.95 144 139 144 144 144 149 144 149.5 144 150 144 152 144 154 144 154.5 144 155 144 155.5 144 156 145.3 160.2 145.95 165 146 165.5 146 166 146 167 146 168 146 168.5 146 169 147.1 174.4 147.95 180 148 180.5 148 181 148 183 148 185 148 185.5 148 186 149.75 188.75 149.05 194 149 194.5 149 195 150.8 200.2 151 207 151 207.5 151 208 151 212.5 151 217 151 217.5 151 218 152.75 221.75 152.05 228 152 228.5 152 229 152 230 152 231 152 231.5 152 232 153.75 235.25 153.05 241 153 241.5 153 242 155.35 248.15 160.2 251.75 160.5 252 161 252 169.15 252.15 174 249.5
L 174 250
Q 176.5 250 179 250 179.5 250 180 250 193.55 246.05 202.25 237.25 202.5 237 203 237 203 236.5 203 236 206.2 235.7 207.4 233.2 207.5 233 208 233 208 232.5 208 232 211.45 231.45 212.45 228.15 212.5 228 213 228 213 227.5 213 227 215.65 227.65 215.5 225
L 216 225
Q 216 224.5 216 224 219.2 221.7 221.35 218.2 221.5 218 222 218 222 217.5 222 217 222 216.5 222 216 227.05 210.05 228.9 201 229 200.5 229 200 229 199.5 229.05 199 230.65 188.65 229 178 229 177.5 228.9 177.05 226.4 166.6 221 159 220.5 159 220.3 158.75 218.2 156.3 217 153 216.5 153 216.4 152.8 212.3 145.7 205 142
M 177.05 141.85
Q 177.5 142 178 142 189.2 146.3 197.75 153.3 198 153.5 198 154 200.65 155.35 201.8 158.1 202 158.5 202 159 211.35 167.65 212.95 184 213 184.5 213 185 213 185.5 213.05 186 213.75 192.75 212 197 212 197.5 211.85 197.95 209.7 204.7 206 210 206 210.5 205.75 210.8 202.5 215 199 219 199 219.5 198.75 219.75 193.85 224.85 188 229 188 229.5 187.75 229.75 175.15 241.6 169 229 168.5 229 168.5 228.95 168 224.5 168 220 168 219.5 168 219 168 216 168 213 167.5 213 167.45 212.9 167 211 167 209 166.5 209 166.5 208.95 166 205 166 201 166 200.5 166 200 166 198 166 196 165.5 196 165.5 195.95 165 192 165 188 165 187.5 164.9 187 161.55 165.95 160 143 160 142.5 160 142 160 140.5 160 139 169.65 139.35 177.05 141.85
M 172 136.5
L 172 136
Q 188.15 134.3 172 136.5
M 196 143
Q 205.3 152.15 196.25 143.75 196 143.5 196 143
M 202.15 149.95
Q 202 149.5 202 149 208.25 151.25 210.5 157
L 210 157
Q 204.1 155 202.15 149.95
M 210.25 160.75
Q 210 160.5 210 160 216.3 163.7 219.15 165.75 219.5 166 220 166 224.2 174.75 221.6 180.8 221.5 181 221 181 216.1 178.9 214.55 174.15 214.5 174 214 174 215.45 165.85 210.25 160.75
M 148.1 143.95
Q 148 143.5 148 143 151.8 159.35 148.1 143.95
M 218 207
Q 225.2 212 218.25 207.65 218 207.5 218 207 Z" stroke="none" fill="#170803"></path>

<path d="M 218.25 207.65
Q 225.2 212 218 207 218 207.5 218.25 207.65 Z" stroke="none" fill="#0B0A14"></path>

<path d="M 148 143
Q 148 143.5 148.1 143.95 151.8 159.35 148 143 Z" stroke="none" fill="#01070E"></path>

<path d="M 210 160
Q 210 160.5 210.25 160.75 215.45 165.85 214 174 214.5 174 214.55 174.15 216.1 178.9 221 181 221.5 181 221.6 180.8 224.2 174.75 220 166 219.5 166 219.15 165.75 216.3 163.7 210 160 Z" stroke="none" fill="#050913"></path>

<path d="M 202 149
Q 202 149.5 202.15 149.95 204.1 155 210 157
L 210.5 157
Q 208.25 151.25 202 149 Z" stroke="none" fill="#060812"></path>

<path d="M 196.25 143.75
Q 205.3 152.15 196 143 196 143.5 196.25 143.75 Z" stroke="none" fill="#090716"></path>

<path d="M 172 136
L 172 136.5
Q 188.15 134.3 172 136 Z" stroke="none" fill="#030414"></path>

<path d="M 169 226
Q 169 225.5 169.1 225 169.7 221.3 168 220 168 224.5 168.5 228.95 168.5 229 169 229 169 228.5 169 228 169 227 169 226 Z" stroke="none" fill="#634603"></path>

<path d="M 168 212
Q 168 212.5 168 213 168 216 168 219 168 219.5 168 220 169.7 221.3 169.1 225 169 225.5 169 226 169.5 226 169.5 225.95 171.15 214.25 168 211 168 211.5 168 212 Z" stroke="none" fill="#E3C063"></path>

<path d="M 167 209
Q 167 208.5 167 208 167 206.5 167 205 167 204.5 167.1 204 167.7 201.3 166 201 166 205 166.5 208.95 166.5 209 167 209 Z" stroke="none" fill="#775910"></path>

<path d="M 167 208
Q 167 208.5 167 209 167 211 167.45 212.9 167.5 213 168 213 168 212.5 168 212 168 211.5 168 211 168 210.5 168 210 168 207.5 168 205 167.5 205 167 205 167 206.5 167 208 Z" stroke="none" fill="#B49959"></path>

<path d="M 198.75 219.75
Q 199 219.5 199 219
L 199 218.5
Q 194.7 221.2 188 227 188 227.5 188 228 188 228.5 188 229 193.85 224.85 198.75 219.75 Z" stroke="none" fill="#CEB054"></path>

<path d="M 212 196
Q 212 196.5 212 197 213.75 192.75 213.05 186 213 185.5 213 185 212.5 185 212 185 212 190.5 212 196 Z" stroke="none" fill="#AF9552"></path>

<path d="M 166 196
Q 166 195.5 166.05 195 166.75 190.25 165 188 165 192 165.5 195.95 165.5 196 166 196 Z" stroke="none" fill="#AE934E"></path>

<path d="M 198 154
Q 198.25 157.75 201.05 158.85 201.5 159 202 159 202 158.5 201.8 158.1 200.65 155.35 198 154 Z" stroke="none" fill="#BCA35E"></path>

<path d="M 191 161
L 190.5 161
Q 190.301953125 156.0009765625 185.1 156.95 185.44453125 153.9076171875 178 154 177.5 154 177.3 154.25 173.9 158.9 164 157 164.634765625 165.7890625 175 166 171.8 173.05 170.5 166.1 170.5 166 170 166 166.75 168.75 166.05 174 166 174.5 166 175 166.1490234375 190.688671875 171.9 194.45 171.3564453125 197.0552734375 168.2 204.1 168 204.5 168 205 168 207.5 168 210 168 210.5 168 211 171.15 214.25 169.5 225.95 169.5 226 169 226 169 227 169 228 169 228.5 169 229 175.15 241.6 187.75 229.75 188 229.5 188 229 188 228.5 188 228 188 227.5 188 227 194.7 221.2 199 218.5
L 199 219
Q 202.5 215 205.75 210.8 206 210.5 206 210 206 209.5 206 209 205.95 204.05 203 202
L 203.5 202
Q 200.35 195.55 207 198
L 207 198.5
Q 211.3 191.85 209 192 209 192.5 208.8 192.6 202.15 195.55 194 195 194 194.5 194.15 194.45 202.75 191.75 208 186 207.5 186 207.35 185.8 203.6 179.55 196 183 195.5 183 195.1 182.8 188.85 180.05 179 183 179 182.5 178.8 182.1 175.05 174.9 183 175 183.5 175 183.95 175.1 190.141015625 176.6599609375 199.5 176 201.567578125 180.2751953125 206 174 206 173.5 205.8 173.15 199 161.9 191 161 Z" stroke="none" fill="#F7C63E"></path>

<path d="M 178 142
L 178 142.5
Q 167.1 140.4 160 143 161.55 165.95 164.9 187 165 187.5 165 188 166.75 190.25 166.05 195 166 195.5 166 196 166 198 166 200 166 200.5 166 201 167.7 201.3 167.1 204 167 204.5 167 205 167.5 205 168 205 168 204.5 168.2 204.1 171.3564453125 197.0552734375 171.9 194.45 166.1490234375 190.688671875 166 175 166 174.5 166.05 174 166.75 168.75 170 166 170.5 166 170.5 166.1 171.8 173.05 175 166 164.634765625 165.7890625 164 157 173.9 158.9 177.3 154.25 177.5 154 178 154 185.44453125 153.9076171875 185.1 156.95 190.301953125 156.0009765625 190.5 161
L 191 161
Q 199 161.9 205.8 173.15 206 173.5 206 174 201.567578125 180.2751953125 199.5 176 190.141015625 176.6599609375 183.95 175.1 183.5 175 183 175 175.05 174.9 178.8 182.1 179 182.5 179 183 188.85 180.05 195.1 182.8 195.5 183 196 183 203.6 179.55 207.35 185.8 207.5 186 208 186 202.75 191.75 194.15 194.45 194 194.5 194 195 202.15 195.55 208.8 192.6 209 192.5 209 192 211.3 191.85 207 198.5
L 207 198
Q 200.35 195.55 203.5 202
L 203 202
Q 205.95 204.05 206 209 206 209.5 206 210 209.7 204.7 211.85 197.95 212 197.5 212 197 212 196.5 212 196 212 190.5 212 185 212.5 185 213 185 213 184.5 212.95 184 211.35 167.65 202 159 201.5 159 201.05 158.85 198.25 157.75 198 154 198 153.5 197.75 153.3 189.2 146.3 178 142
M 166.1 152.5
Q 166 152.5 166 152 176.8 154.85 166.1 152.5 Z" stroke="none" fill="#F0BE45"></path>

<path d="M 166 152
Q 166 152.5 166.1 152.5 176.8 154.85 166 152 Z" stroke="none" fill="#F9C43D"></path>

<path d="M 178 142
Q 177.5 142 177.05 141.85 169.65 139.35 160 139 160 140.5 160 142 160 142.5 160 143 167.1 140.4 178 142.5
L 178 142 Z" stroke="none" fill="#CFAE64"></path>

<path d="M 205 142
Q 205 141.5 204.75 141.2 202.7 138.8 199 138 200.95 140.55 204.05 141.8 204.5 142 205 142 Z" stroke="none" fill="#78520F"></path>

<path d="M 259 97
Q 258.5 97 258 96.95 186.05 88.1 110 93 110 93.5 109.75 93.7 105.4 97.4 102 102 102 102.5 102.1 102.5 178.1 118.55 266 111 266 110.5 265.9 110 264.4 101.6 259 97
M 163.05 94.5
Q 163 94.5 163 94 175.95 95.85 163.05 94.5
M 173.15 94.55
Q 173 94.5 173 94 178.15 93.55 187 94.9 187.5 95 188 95 182.3 98.15 173.15 94.55
M 210.15 94.55
Q 210 94.5 210 94 223.2 93.3 233.9 95.5 234 95.5 234 96 225 99.85 210.15 94.55
M 242 99.5
L 242 99
Q 253.15 97.4 242 99.5 Z" stroke="none" fill="#FED967"></path>

<path d="M 242 99
L 242 99.5
Q 253.15 97.4 242 99
M 173 94
Q 173 94.5 173.15 94.55 182.3 98.15 188 95 187.5 95 187 94.9 178.15 93.55 173 94
M 163 94
Q 163 94.5 163.05 94.5 175.95 95.85 163 94 Z" stroke="none" fill="#FFE875"></path>

<path d="M 210 94
Q 210 94.5 210.15 94.55 225 99.85 234 96 234 95.5 233.9 95.5 223.2 93.3 210 94 Z" stroke="none" fill="#FFE57A"></path>

<path d="M 178 77
Q 178 76.5 177.95 76.5 143.6 73.9 114 76 114 76.5 114 77 143.75 76.85 177 77 177.5 77 178 77 Z" stroke="none" fill="#676353"></path>

<path d="M 272 98
Q 272 97.5 271.9 97 270.4 90.55 266 93 265.5 93 265.2 92.75 260.7 89.15 252 86
L 252 86.5
Q 187.4 86.55 126 83 125.5 83 125 83.05 110.55 85.05 98 89 98 89.5 97.75 89.75 90.3 97.75 83 106
L 83 105.5
Q 81.25 106.75 82 111 81.5 111 81.3 111.25 78.45 114.45 76 118 78.85 132.15 78 158 78 158.5 78 159 78.5 159 79 159 79 158.5 79 158 79 144 79 130 79 129.5 79 129 79 125.5 79 122 79.5 122 80 122 80 121.5 80 121 80 120.5 80 120 81.65 120.15 81.5 118
L 82 118
Q 82 117.5 82 117 82 116 82 115 82 114.5 82 114 84.75 112.25 85.5 108.1 85.5 108 86 108 86 107.5 86 107 95.5 93.5 113.05 88.15 113.5 88 114 88 114 87.5 114 87 118 87 122 87 122.5 87 123 87 123 86.5 123 86 127.5 86 132 86 132.5 86 133 86 139.5 86 145.95 86.5 146 86.5 146 87 154.5 87 163 87 163.5 87 164 87 170.5 87 177 87 177.5 87 178 87 184.5 87 190.95 87.5 191 87.5 191 88 200 88 209 88 209.5 88 210 88 215.5 88 221 88 221.5 88 222 88 231.5 88 240.95 88.5 241 88.5 241 89 278.45 92.55 284.9 127 285 127.5 285 128 286.75 131.25 286.05 137 286 137.5 286 138 286.5 138 286.55 137.85 291.4 123.75 284 108 284 107.5 283.75 107.35 277.5 103 272 98 Z" stroke="none" fill="#A56613"></path>

<path d="M 271.9 97
Q 272 97.5 272 98 277.5 103 283.75 107.35 284 107.5 284 108 291.4 123.75 286.55 137.85 286.5 138 286 138 286 140 286 142 286 142.5 286 143 290.25 157.75 286.5 174.9 286.5 175 286 175 286 175.5 286 176 286 176.5 286 177 286.75 217.25 285 255 284.5 255 284 255 284 255.5 283.75 255.75 283.5 256 283 256 283 258 283 260 283 260.5 283 261 285.7 256.7 293 257 293.5 257 294 257 294 256.5 294 256 294 255.5 294 255 295.7 253.2 295.5 249
L 296 249
Q 296 248.5 296 248 296 241 296 234 296 233.5 296 233 296 204 296 175 296 174.5 296 174 296.75 157.95 296 143 296.5 143 297 143 297.5 143 298 143 298 142.5 298 142 298 139.5 298 137 297.5 137 297.4 136.8 295.6 132.95 296 127 296 126.5 295.9 126 291.75 105.7 280 93 279.5 93 279.25 92.75 266.2 80.3 242 79 241.5 79 241 79.05 223.2 80.3 210 77 209.5 77 209 77 193.5 77 178 77 177.5 77 177 77 143.75 76.85 114 77 113.5 77 113 77 112 77 111 77 111 77.5 110.75 77.8 109.35 79.35 106 79 105.5 79 105.1 79.2 80.65 89.65 70 114 70 116 70 118 70 118.5 70 119 70 119.5 70.1 120 71.2 124.7 68 125 68 156 68 187 68 187.5 68 188 68 202 68 216 68 216.5 68 217 68 239.5 68 262 68 262.5 68 263 68 264 68 265 68 265.5 68 266 80.65 262.95 78.5 273.9 78.5 274 78 274 78 274.5 77.75 274.75 77 275.5 76 276 76 276.5 76 277 77 280.5 77.9 284.05 78 284.5 78 285 78 285.5 78 286 79.95 286.05 81.15 286.75 81.5 287 82 287 84.2 287.3 84.05 290 84 290.5 84 291 88.65 290.85 89.85 294.05 90 294.5 90 295 92.15 294.4 92.05 296 92 296.5 92 297 95.2 296.3 95.85 298.05 96 298.5 96 299 99.2 298.3 99.85 300.05 100 300.5 100 301 103.5 300.95 105.8 302.35 106 302.5 106 303 106.5 303 107 303 107.5 303 108 303 120.75 302.75 125.85 304.45 126 304.5 126 305 127.5 305 129 305 129.5 305 130 305 130 304.5 130 304 130 303.5 130 303 130.5 303 131 303 131 302.5 131 302 131.5 301.5 132.1 301.2 132.5 301 133 301 133 300.5 133 300 138.4 298.1 142.8 300.4 143 300.5 143 301 144.7 301.3 144.95 303 145 303.5 145 304 145 304.5 145 305 163.7 304.3 179.95 306.5 180 306.5 180 307 194.5 307 209 307 209.5 307 210 307 221.65 307.25 229 307 229.5 307 230 307 230 306.5 230 306 230.5 306 230.75 305.75 231 305.5 231 305 231 304.5 231 304 240.75 299.75 245.75 306.2 246 306.5 246 307 248.5 307 251 307 251.5 307 252 307 252.5 307 253 307 253.5 307 254 307 254 306.5 254 306 254 305.5 254 305 255.5 305 257 305 257.5 305 258 305 258 304.5 258 304 258 303.5 258 303 263.25 303.75 265.75 301.7 266 301.5 266 301 266 300.5 266 300 266 299.5 266 299 270.3 297.8 273.2 295.25 273.5 295 274 295 275.5 295 277 295 277.5 295 278 295 278 294.5 278 294 278 292.5 278 291 281.15 289.65 283.3 287.25 283.5 287 284 287 284 286.5 284.05 286 285.05 275 283 262 282.5 262 282 262 282 264 282 266 282 266.5 282 267 282 267.5 281.95 268 280.75 280.25 274 287
L 274 286.5
Q 266.55 291.7 261 290 260.5 290 260.5 290.1 260.15 291.65 258 291 258 291.5 258 292 258 292.5 257.8 292.85 255.1 297.15 249 299 248.5 299 248 298.95 180.25 295 113 299 112.5 299 112.05 298.85 103.55 296 107 295
L 107.5 295
Q 87.1 291.15 82 268 82 267.5 82.05 267 82.55 263.45 80 263 80 263.5 79.8 263.6 76.95 265.05 78 257
L 77.5 257
Q 76.75 232.25 74 210 77.4 208.9 77.5 204
L 78 204
Q 78 203.5 78 203 77.5 203 77.45 202.85 76.25 199.75 76 196 76.5 196 77 196 77.5 196 78 196 78 195.5 78 195 78 191 78 187 78 186.5 78.05 186 78.55 181.45 77 179 78.7 177.7 78.1 174 78 173.5 78 173 77.5 173 77.5 172.95 77 166 77 159 77.5 159 78 159 78 158.5 78 158 78.85 132.15 76 118 78.45 114.45 81.3 111.25 81.5 111 82 111 81.25 106.75 83 105.5
L 83 106
Q 90.3 97.75 97.75 89.75 98 89.5 98 89 110.55 85.05 125 83.05 125.5 83 126 83 187.4 86.55 252 86.5
L 252 86
Q 260.7 89.15 265.2 92.75 265.5 93 266 93 270.4 90.55 271.9 97
M 74.05 242
Q 74 241.5 74 241 75.45 254.9 74.05 242 Z" stroke="none" fill="#9B612D"></path>

<path d="M 74 241
Q 74 241.5 74.05 242 75.45 254.9 74 241 Z" stroke="none" fill="#A45E1C"></path>
</g>
</g>
</g>
</g>
</g>
</svg>
