
<svg viewBox="0 0 80 70" height="70px" width="80px" y="0px" x="0px" preserveAspectRatio="none" xmlns:xlink="http://www.w3.org/1999/xlink" version="1.1" xmlns="http://www.w3.org/2000/svg">
<defs></defs>

<g id="Layer_2">
<g transform="matrix( 0.2443389892578125, 0, 0, 0.2443389892578125, -5.6,-13.9)" id="Layer_1">
<g>
<g>
<g>
<path d="M 254 335
Q 254 334.5 253.75 334.2 252.1 331.9 249 331 250.35 333.65 253.1 334.8 253.5 335 254 335 Z" stroke="none" fill="#1C3D46"></path>

<path d="M 306.2 330.75
Q 306.5 331 307 331 307 330.5 306.95 330 306.3 321.85 302 322 302.75 327.75 306.2 330.75 Z" stroke="none" fill="#051D2A"></path>

<path d="M 316 331
Q 315.5 331 315 331 311.5 331 308 331 310.75 332.75 315.9 331.55 316 331.5 316 331 Z" stroke="none" fill="#375A64"></path>

<path d="M 318 323
Q 318 323.5 318.1 324 318.7 327.2 317 328 317 328.5 317 329 317 329.5 317 330 320.05 328.55 318.55 323.15 318.5 323 318 323 Z" stroke="none" fill="#2C4F59"></path>

<path d="M 310 297
Q 310.1 305.9 313.4 311.8 313.5 312 314 312 314 311.5 313.9 311 312.45 303.55 310 297 Z" stroke="none" fill="#031F2A"></path>

<path d="M 314 312
Q 313.25 316.75 315.25 318.75 315.5 319 316 319 316 318.5 316.1 318 316.9 313.1 314 312 Z" stroke="none" fill="#0B252F"></path>

<path d="M 178 299
Q 179.5 299 181 299 181.5 299 182 299 182 298.5 181.8 298.4 177.25 296.25 170 297 170 297.5 170 298 170 298.5 170 299 173.5 299 177 299 177.5 299 178 299 Z" stroke="none" fill="#846A50"></path>

<path d="M 192 301
Q 192 300.5 192 300 192 299.5 192 299 191.5 299 191 299 186.5 299 182 299 181.5 299 181 299 179.5 299 178 299 182.35 302.15 191 301.05 191.5 301 192 301
M 314.1 274
Q 314 273.5 314 273 313.5 273 313.1 273.2 312.5 273.5 312 274 312 276 312 278 312 278.5 312 279 315.2 278.7 314.1 274 Z" stroke="none" fill="#716E5F"></path>

<path d="M 193 301
Q 193.5 301 194 301 195.5 301 197 301 197.5 301 198 301 198 300.5 197.75 300.2 196.2 298.25 192 299 192 299.5 192 300 192 300.5 192 301 192.5 301 193 301 Z" stroke="none" fill="#85684B"></path>

<path d="M 236 339
Q 236 338.5 235.85 338.05 234.75 335.25 231 335 233 337 235.2 338.75 235.5 339 236 339 Z" stroke="none" fill="#24424A"></path>

<path d="M 212 303
Q 212 302.5 211.85 302.45 206.2 300.3 198 301 197.5 301 197 301 195.5 301 194 301 200.2 304.25 211 303.05 211.5 303 212 303 Z" stroke="none" fill="#726E5E"></path>

<path d="M 229 320
Q 228.5 320 228 320 228 325.5 228.5 330.95 228.5 331 229 331 229 330.5 229 330 229 325 229 320 Z" stroke="none" fill="#335159"></path>

<path d="M 228 305
Q 228 304.5 228 304 228 303.5 228 303 227.5 303 227 303 220.5 303 214 303 218.35 306.15 227 305.05 227.5 305 228 305 Z" stroke="none" fill="#706F61"></path>

<path d="M 230 305
Q 230.5 305 231 305 231.5 305 232 305 232 304.5 231.85 304.05 231.2 302.3 228 303 228 303.5 228 304 228 304.5 228 305 228.5 305 229 305 229.5 305 230 305 Z" stroke="none" fill="#85694D"></path>

<path d="M 241 305
Q 241 305.5 240.8 305.6 240 306 239 306 239 306.5 239 307 250.9 308.75 255 308.5
L 255 309
Q 255.5 309 256 309 256 308.5 256 308 256 306.5 256 305 256 304.5 255.75 304.3 248.85 298.05 241 304 241 304.5 241 305 Z" stroke="none" fill="#200B02"></path>

<path d="M 237 307.05
Q 237.5 307 238 307 238.5 307 239 307 239 306.5 239 306 240 306 240.8 305.6 241 305.5 241 305 240.5 305 240 305 236 305 232 305 231.5 305 231 305 230.5 305 230 305 231.85 307.65 237 307.05 Z" stroke="none" fill="#6C6856"></path>

<path d="M 238 307
Q 238 307.5 237.8 307.85 234.05 314 229 319 229 319.5 229 320 229 325 229 330 229 330.5 229 331 229.5 333 230.4 334.8 230.5 335 231 335 234.75 335.25 235.85 338.05 236 338.5 236 339 249.1 350.35 253.85 335.95 254 335.5 254 335 253.5 335 253.1 334.8 250.35 333.65 249 331 248.5 331 248 331 242.2 330.8 244 323 249.8 316.8 254.75 309.85 255 309.5 255 309
L 255 308.5
Q 250.9 308.75 239 307 238.5 307 238 307 Z" stroke="none" fill="#020C15"></path>

<path d="M 241 294
Q 241 293.5 240.95 293.5 236.5 293 232 293 234.75 294.75 240 294.05 240.5 294 241 294 Z" stroke="none" fill="#D39F3B"></path>

<path d="M 226 293
Q 226 292.5 225.95 292.5 222 292 218 292 220.25 293.75 225 293.05 225.5 293 226 293 Z" stroke="none" fill="#A97605"></path>

<path d="M 210 291
Q 210 290.5 209.9 290.5 203.65 289.35 197 289 201.6 291.4 209 291 209.5 291 210 291 Z" stroke="none" fill="#B68615"></path>

<path d="M 177 287
Q 177 286.5 176.95 286.5 169.4 285.6 162 285 167.2 287.8 176 287.05 176.5 287 177 287 Z" stroke="none" fill="#B78718"></path>

<path d="M 307 289
Q 306.5 289 306 289 300 289 296 293 296 295.5 296 298 296 298.5 296 299 296 300 296 301 296 301.5 296 302 298.5 312 301.85 321.05 302 321.5 302 322 306.3 321.85 306.95 330 307 330.5 307 331 307.5 331 308 331 311.5 331 315 331 315.5 331 316 331 316.5 331 316.75 330.75 317 330.5 317 330 317 329.5 317 329 317 328.5 317 328 318.7 327.2 318.1 324 318 323.5 318 323 318 322.5 317.8 322.1 317 320.5 316 319 315.5 319 315.25 318.75 313.25 316.75 314 312 313.5 312 313.4 311.8 310.1 305.9 310 297 310 296.5 310 296 310 294.5 310 293 309.5 293 309.4 292.8 308.35 290.65 307 289 Z" stroke="none" fill="#050917"></path>

<path d="M 307 287
Q 307 287.5 307 288 307 288.5 307 289 308.35 290.65 309.4 292.8 309.5 293 310 293 310 292.5 309.9 292 309.4 288.6 307 287 Z" stroke="none" fill="#37494A"></path>

<path d="M 294 294
Q 294 294.5 294 295 295.7 295.8 295.5 299
L 296 299
Q 296 298.5 296 298 296 295.5 296 293 300 289 306 289 306.5 289 307 289 307 288.5 307 288 307 287.5 307 287 306.5 287 306.25 286.75 306 286.5 306 286 305.5 286 305 286 297.7 285.7 294 289 294 291.5 294 294 Z" stroke="none" fill="#250502"></path>

<path d="M 297 285
Q 296.5 285 296.5 285.05 296.2 287.7 294 288 294 288.5 294 289 297.7 285.7 305 286 305.5 286 306 286 306 285.5 305.95 285.5 301.5 285 297 285 Z" stroke="none" fill="#633E09"></path>

<path d="M 294 295
Q 294 295.5 293.75 295.65 286.35 300.35 279 305 278.5 305 278.05 305.15 265.8 308.45 256 305 256 306.5 256 308 256 308.5 256 309 266.7 309.45 279 307.1 279.5 307 280 307 287.85 300.15 295.05 301.9 295.5 302 296 302 296 301.5 296 301 296 300 296 299
L 295.5 299
Q 295.7 295.8 294 295 Z" stroke="none" fill="#746B59"></path>

<path d="M 298.95 277
Q 299 276.5 299 276 299 275.5 298.9 275.05 297.8 270.5 294 277 293.8 281.15 295.3 279.25 295.5 279 296 279 298.7 279.2 298.95 277 Z" stroke="none" fill="#F3C550"></path>

<path d="M 305.95 262
Q 306 261.5 306 261 305.5 261 305.5 261.1 304.15 269.15 300 274 300 274.5 300 275 300 275.5 300 276 305.25 273.7 305.95 262 Z" stroke="none" fill="#A46E0A"></path>

<path d="M 318 257
Q 317.5 257 317 257 316.5 257 316 257 316 260.5 316 264 316 264.5 316 265 318.65 263.15 318.05 258 318 257.5 318 257 Z" stroke="none" fill="#716E5D"></path>

<path d="M 256 295
Q 256 295.5 256 296 262 296 268 296 268.5 296 269 296 269 295.5 268.8 295.4 268 295 267 295 266.5 295 266 295 261 295 256 295 Z" stroke="none" fill="#F6C461"></path>

<path d="M 320 239
Q 319.5 239 319 239 318.5 239 318 239 318 245.5 318 252 318 252.5 318 253 321.4 249.4 320.1 241 320 240.5 320 240 320 239.5 320 239 Z" stroke="none" fill="#6A7062"></path>

<path d="M 309 227
Q 309 227.5 309 228 308.4 241.4 306 253 306 255 306 257 306 257.5 306 258 311.45 245.75 310.05 228 310 227.5 310 227 309.5 227 309 227 Z" stroke="none" fill="#A3680B"></path>

<path d="M 322 221
L 321.5 221
Q 321.65 223.15 320 223 320 226.5 320 230 320 230.5 320 231 322.9 230 322.05 222 322 221.5 322 221 Z" stroke="none" fill="#666353"></path>

<path d="M 89 303
Q 88.5 303 88.1 303.2 85.95 304.45 82 304 85.35 306.3 88.75 303.7 89 303.5 89 303 Z" stroke="none" fill="#385961"></path>

<path d="M 128 318
Q 127.5 318 127 318 127 323.5 127.5 328.95 127.5 329 128 329 128 328.5 128 328 128 323.5 128 319 128 318.5 128 318 Z" stroke="none" fill="#365B66"></path>

<path d="M 129.5 313
Q 129.65 315.15 128 315 128 316 128 317 128 317.5 128 318 128 318.5 128 319 131.2 318.7 130.1 314 130 313.5 130 313
L 129.5 313 Z" stroke="none" fill="#011C28"></path>

<path d="M 139 298
Q 139 297.5 138.75 297.3 134.65 293.9 128 293 131.6 296.95 136.8 299.4 137 299.5 137 300 139.15 300.65 139.05 299 139 298.5 139 298 Z" stroke="none" fill="#646B5F"></path>

<path d="M 157 298
Q 157 298.5 157 299 163 299 169 299 169.5 299 170 299 170 298.5 170 298 170 297.5 170 297 169.5 297 169 297.05 160.8 298.2 157 295 157 296.5 157 298 Z" stroke="none" fill="#6E6A53"></path>

<path d="M 155.75 299.75
Q 156 299.5 156 299 156 298.5 155.75 298.3 150.2 294.2 140 297 140 297.5 139.75 297.75 139.5 298 139 298 139 298.5 139.05 299 139.15 300.65 137 300 137 300.5 136.75 300.8 133.4 305.4 130 310 130 311 130 312 130 312.5 130 313 130 313.5 130.1 314 131.2 318.7 128 319 128 323.5 128 328 128 328.5 128 329 128.85 339.65 139 340.95 139.5 341 140 341 147.7 341.7 146.5 334.1 146.5 334 146 334 142.5 328.5 142.95 319 143 318.5 143 318 148.35 307.85 155.75 299.75 Z" stroke="none" fill="#020B17"></path>

<path d="M 157 285.05
Q 157.5 285 158 285 158 284.5 157.95 284.5 151.7 283.8 146 283 149.95 285.5 157 285.05 Z" stroke="none" fill="#BB8A1E"></path>

<path d="M 146 292
Q 145.5 292 145.15 292.25 142.5 294 140 296 140 296.5 140 297 150.2 294.2 155.75 298.3 156 298.5 156 299 156.5 299 157 299 157 298.5 157 298 157 296.5 157 295
L 156.5 295
Q 156.65 292.9 155 293 154.5 293 154.1 292.8 151.05 291.45 146 292 Z" stroke="none" fill="#250800"></path>

<path d="M 146 291
Q 146 291.5 146 292 151.05 291.45 154.1 292.8 154.5 293 155 293 155 292.5 154.75 292.25 154 291.5 153 291 152.5 291 152 291 149 291 146 291 Z" stroke="none" fill="#4A2703"></path>

<path d="M 159 266
Q 159 266.5 158.8 266.6 154.45 268.95 152 270 151.5 270 151.45 269.85 148.4 261.3 144 266
L 144 266.5
Q 136.4 261.6 136 271
L 135.5 271
Q 135.45 262.35 125 266 135.25 271.65 126.25 277.35 126 277.5 126 278 133.5 282.5 145 283 145.5 283 146 283 151.7 283.8 157.95 284.5 158 284.5 158 285 159.5 285 161 285 161.5 285 162 285 169.4 285.6 176.95 286.5 177 286.5 177 287 187.5 287.05 196 288.9 196.5 289 197 289 203.65 289.35 209.9 290.5 210 290.5 210 291 214 291 217.95 291.5 218 291.5 218 292 222 292 225.95 292.5 226 292.5 226 293 228.5 293 231 293 231.5 293 232 293 236.5 293 240.95 293.5 241 293.5 241 294 248 295 255 295.95 255.5 296 256 296 256 295.5 256 295 261 295 266 295 266.5 295 267 295 267 294.5 267.15 294.45 274.7 291.7 280 287 279.5 287 279 286.9 273.6 285.9 270 283
L 270.5 283
Q 262.5 276.85 262 276
L 262 275.5
Q 255.9 275.75 256 274
L 256 273.5
Q 250.85 275.1 245 275 244.5 275 244.05 274.85 236.4 272.3 239 271 238.5 271 238.1 270.8 233.4 268.75 221 271
L 220.5 271
Q 226.75 266.65 219 267
L 218.5 267
Q 220.85 272.6 209 274 208.5 274 208.35 273.8 204.85 268.05 203 267
L 203 266.5
Q 201.35 274.35 196 272 196 271.5 195.75 271.3 190.9 267.3 186 266 185.5 266 185.05 265.9 177.4 264 173 267 173 267.5 172.8 267.6 170.05 268.9 165 268 165.5 268 165.5 267.9 166.85 261.9 159 266 Z" stroke="none" fill="#F8D63F"></path>

<path d="M 115.85 286.05
Q 115.2 284.3 112 285 111.6 287.95 115.05 287.1 115.5 287 116 287 116 286.5 115.85 286.05 Z" stroke="none" fill="#6B7161"></path>

<path d="M 90 254
Q 89.5 254 89.45 254.15 82.1 274.6 76 296 74.25 304.25 81 304 81.5 304 82 304 85.95 304.45 88.1 303.2 88.5 303 89 303 89 302.5 89 302 95.45 288.45 98.9 272 99 271.5 99 271 99 270.5 99 270 99.55 255.6 90 254
M 86.2 280.65
Q 86 280.5 86 280 93.3 284.95 86.2 280.65
M 92.1 277.95
Q 92 277.5 92 277 95.05 289.3 92.1 277.95 Z" stroke="none" fill="#020C13"></path>

<path d="M 92 277
Q 92 277.5 92.1 277.95 95.05 289.3 92 277 Z" stroke="none" fill="#0F0202"></path>

<path d="M 86 280
Q 86 280.5 86.2 280.65 93.3 284.95 86 280 Z" stroke="none" fill="#130101"></path>

<path d="M 99 253
Q 98.5 253 98.05 252.85 95.3 252.1 90 253 90 253.5 90 254 99.55 255.6 99 270 99 270.5 99 271 99.5 271 100 271 100 270.5 100 270 100 268.5 100 267 101.7 266.7 101.1 264 101 263.5 101 263 101 262.5 101.05 262 102.05 255.45 99 253 Z" stroke="none" fill="#1F0902"></path>

<path d="M 118 271
Q 118 271.5 118 272 118 272.5 118 273 118.5 273.5 119.1 273.8 119.5 274 120 274 120.5 274 120.75 273.75 122.1 272.4 118 271 Z" stroke="none" fill="#F6CB50"></path>

<path d="M 104.25 266.25
Q 104 266.5 104 267 106.1 272 109.3 275.75 109.5 276 110 276 117.8 288.2 135 290.9 135.5 291 136 291 144.6 288.2 152.85 290.45 153 290.5 153 291 154 291.5 154.75 292.25 155 292.5 155 293 156.65 292.9 156.5 295
L 157 295
Q 160.8 298.2 169 297.05 169.5 297 170 297 177.25 296.25 181.8 298.4 182 298.5 182 299 186.5 299 191 299 191.5 299 192 299 196.2 298.25 197.75 300.2 198 300.5 198 301 206.2 300.3 211.85 302.45 212 302.5 212 303 212.5 303 213 303 213.5 303 214 303 220.5 303 227 303 227.5 303 228 303 231.2 302.3 231.85 304.05 232 304.5 232 305 236 305 240 305 240.5 305 241 305 241 304.5 241 304 248.85 298.05 255.75 304.3 256 304.5 256 305 265.8 308.45 278.05 305.15 278.5 305 279 305 286.35 300.35 293.75 295.65 294 295.5 294 295 294 294.5 294 294 294 291.5 294 289 294 288.5 294 288 296.2 287.7 296.5 285.05 296.5 285 297 285 297 284.5 297 284 297 283.5 297 283 300.15 281.65 300 277 300 276.5 300 276 299.5 276 299 276 299 276.5 298.95 277 298.7 279.2 296 279 296 279.5 295.75 279.8 286.4 291.9 269 296 268.5 296 268 296 262 296 256 296 255.5 296 255 295.95 248 295 241 294 240.5 294 240 294.05 234.75 294.75 232 293 231.5 293 231 293 228.5 293 226 293 225.5 293 225 293.05 220.25 293.75 218 292 218 291.5 217.95 291.5 214 291 210 291 209.5 291 209 291 201.6 291.4 197 289 196.5 289 196 288.9 187.5 287.05 177 287 176.5 287 176 287.05 167.2 287.8 162 285 161.5 285 161 285 159.5 285 158 285 157.5 285 157 285.05 149.95 285.5 146 283 145.5 283 145 283 133.5 282.5 126 278 125.5 278 125.05 277.8 121.95 276.55 120 274 119.5 274 119.1 273.8 118.5 273.5 118 273 117.5 273 117.25 272.75 110 265 104 256 105.85 264.75 104.25 266.25 Z" stroke="none" fill="#9F6321"></path>

<path d="M 102.05 254
Q 102 253.5 102 253 101.5 253 101 253 100 253 99 253 102.05 255.45 101.05 262 101 262.5 101 263 102.75 259.75 102.05 254 Z" stroke="none" fill="#3F2500"></path>

<path d="M 102 253
Q 102 252.5 101.85 252.45 95.8 250.1 90 252 90 252.5 90 253 95.3 252.1 98.05 252.85 98.5 253 99 253 100 253 101 253 101.5 253 102 253 Z" stroke="none" fill="#502E06"></path>

<path d="M 104 253
Q 103.5 253 103 253 102.5 253 102 253 102 253.5 102.05 254 102.75 259.75 101 263 101 263.5 101.1 264 101.7 266.7 100 267 100 268.5 100 270 100 270.5 100 271 104.55 278.95 111.2 284.75 111.5 285 112 285 115.2 284.3 115.85 286.05 116 286.5 116 287 121.25 290.25 127.85 292.45 128 292.5 128 293 134.65 293.9 138.75 297.3 139 297.5 139 298 139.5 298 139.75 297.75 140 297.5 140 297 140 296.5 140 296 142.5 294 145.15 292.25 145.5 292 146 292 146 291.5 146 291 149 291 152 291 152.5 291 153 291 153 290.5 152.85 290.45 144.6 288.2 136 291 135.5 291 135 290.9 117.8 288.2 110 276 109.5 276 109.3 275.75 106.1 272 104 267 104 266.5 104.25 266.25 105.85 264.75 104 256 104 255.5 104 255 104 254 104 253 Z" stroke="none" fill="#8B643D"></path>

<path d="M 101 234
Q 100.5 234 100 234 99.3 243.7 101.45 250.85 101.5 251 102 251 102 250.5 101.9 250 100.5 243 101 234 Z" stroke="none" fill="#B3761B"></path>

<path d="M 92.1 216
Q 92 215.5 92 215 91.5 215 91 215 90.5 215 90 215 90 218.5 90 222 90 222.5 90 223 93.3 221.8 92.1 216 Z" stroke="none" fill="#776C57"></path>

<path d="M 102 222
Q 102 221.5 102 221 101.5 221 101.35 221.2 100 223.5 99 226 100.55 228.45 100.05 233 100 233.5 100 234 100.5 234 101 234 101 233.5 101 233 101 230 101 227 102.7 226.2 102.1 223 102 222.5 102 222 Z" stroke="none" fill="#AA6F14"></path>

<path d="M 103.05 214
Q 103 213.5 103 213 102.5 213 102 213 102 216.5 102 220 102 220.5 102 221 102 221.5 102 222 103.75 219.25 103.05 214 Z" stroke="none" fill="#BE8828"></path>

<path d="M 104 207
Q 103.5 207 103 207 103 209.5 103 212 103 212.5 103 213 103 213.5 103.05 214 103.75 219.25 102 222 102 222.5 102.1 223 102.7 226.2 101 227 101 230 101 233 101 233.5 101 234 100.5 243 101.9 250 102 250.5 102 251 102.5 251.5 102.8 252.1 103 252.5 103 253 103.5 253 104 253 104 252.5 104 252 104.7 224.5 104 207 Z" stroke="none" fill="#EFB649"></path>

<path d="M 103 207
Q 103.5 207 104 207 104 206.5 104 206 104 202.5 104 199 103.5 199 103.45 199.1 102 205 101 211 101.5 211.5 101.8 212.1 102 212.5 102 213 102.5 213 103 213 103 212.5 103 212 103 209.5 103 207 Z" stroke="none" fill="#A2630B"></path>

<path d="M 106 183
Q 105.5 183 105 183 104.5 183 104 183 104 190.5 104 198 104 198.5 104 199 106.25 192.75 106 184 106 183.5 106 183 Z" stroke="none" fill="#AB6E12"></path>

<path d="M 94 191
Q 93.5 191 93 191 92.5 191 92 191 92 191.5 92 192 92 192.5 92 193 92 199.5 92 206 92 206.5 92 207 95.1 202.7 94.05 192 94 191.5 94 191 Z" stroke="none" fill="#726C59"></path>

<path d="M 94 183
Q 97.3 181.8 96.1 176 96 175.5 96 175 95.5 175 95 175 94.5 175 94 175 94 178.5 94 182 94 182.5 94 183 Z" stroke="none" fill="#646251"></path>

<path d="M 98 159
Q 97.5 159 97 159 96.5 159 96 159 96 161.5 96 164 96 164.5 96 165 99.2 164.7 98.1 160 98 159.5 98 159 Z" stroke="none" fill="#6A6251"></path>

<path d="M 108.05 166
Q 108 165.5 108 165 107.5 165 107 165 107 168.5 107 172 107 172.5 107 173 108.75 170.75 108.05 166 Z" stroke="none" fill="#AF7A2C"></path>

<path d="M 110 148
Q 109.5 148 109 148 109 152.5 109 157 109 157.5 109 158 110.75 154.75 110.05 149 110 148.5 110 148
M 318 142
Q 318.5 142 318.5 141.95 319.75 132.75 318 126 318 133.5 318 141 318 141.5 318 142 Z" stroke="none" fill="#CB8E37"></path>

<path d="M 110 148
Q 110 147.5 110 147 110 146.5 110 146 109.5 146 109.1 145.8 108.5 145.5 108 145 108 152 108.5 158.95 108.5 159 109 159 109 158.5 109 158 109 157.5 109 157 109 152.5 109 148 109.5 148 110 148 Z" stroke="none" fill="#A5680E"></path>

<path d="M 112 128
L 111.5 128
Q 111.7 130.7 110 131 110 136 110 141 110 141.5 110 142 111.35 135.85 111.95 129 112 128.5 112 128 Z" stroke="none" fill="#A86C13"></path>

<path d="M 98 147
Q 101.1 147.1 100.1 142.95 100 142.5 100 142 99.5 142 99 142 98.5 142 98 142 98 144 98 146 98 146.5 98 147 Z" stroke="none" fill="#626455"></path>

<path d="M 102.1 118
Q 102 117.5 102 117 101.5 117 101 117 100.5 117 100 117 100 121.5 100 126 100 126.5 100 127 103.35 124.85 102.1 118 Z" stroke="none" fill="#616354"></path>

<path d="M 104.1 108
Q 104 107.5 104 107
L 103.5 107
Q 103.65 109.15 102 109 102 110.5 102 112 102 112.5 102 113 105.2 112.7 104.1 108 Z" stroke="none" fill="#686454"></path>

<path d="M 123 89
Q 123.5 89.5 123.8 90.1 124 90.5 124 91 124 91.5 124 92 132.8 81.8 148.05 78.1 148.5 78 149 78
L 149 77.5
Q 132.4 79.4 123 89 Z" stroke="none" fill="#A56A0D"></path>

<path d="M 123.75 92.75
Q 124 92.5 124 92 124 91.5 124 91 123.5 91 123.2 91.25 112.95 98.95 111 115 112.55 117.95 112.5 123
L 113 123
Q 113 122.5 113 122 113 119.5 113 117 114.15 113.65 114.9 110 115 109.5 115 109 115 108.5 115 108 115 107.5 115 107 118.15 98.65 123.75 92.75 Z" stroke="none" fill="#A86B0E"></path>

<path d="M 138 69
Q 137.5 69 137 69 135.5 69 134 69 134 69.5 134 70 134 70.5 134 71 137.2 71.7 137.85 69.95 138 69.5 138 69 Z" stroke="none" fill="#646354"></path>

<path d="M 142 67
Q 142 67.5 142 68 142 68.5 142 69 145.5 69 147.8 67.65 148 67.5 148 67 147.5 67 147 67 144.5 67 142 67 Z" stroke="none" fill="#676351"></path>

<path d="M 313 191
Q 313 191.5 312.95 192 312 208.5 309 223 309 224.5 309 226 309 226.5 309 227 309.5 227 310 227 310 226.5 310 226 314.65 211.15 313.5 191.05 313.5 191 313 191 Z" stroke="none" fill="#A4670B"></path>

<path d="M 316.4 120.8
Q 316.5 121 317 121 317 120.5 317 120 317.5 120 318 120 318 119.5 317.9 119.05 316.15 111.85 310 109 313.45 114.55 316.4 120.8 Z" stroke="none" fill="#B2721F"></path>

<path d="M 318.25 120.85
Q 318 120.5 318 120 317.5 120 317 120 317 120.5 317 121 316.8 123.7 317.75 125.15 318 125.5 318 126 319.75 132.75 318.5 141.95 318.5 142 318 142 318 142.5 317.95 143 316.7 159.7 314 175 314 178.5 314 182 314 182.5 314 183 317.55 174.55 319.9 160 320 159.5 320 159 320 146.5 321 136.5
L 321 137
Q 323.35 128.2 318.25 120.85 Z" stroke="none" fill="#A86715"></path>

<path d="M 234 75
Q 234 74.5 233.75 74.3 231.25 72.25 226 73 227.2 76.3 233 75.1 233.5 75 234 75 Z" stroke="none" fill="#676353"></path>

<path d="M 220 83
Q 219.5 83 219 83 215.5 83 212 83 214.25 84.75 219 84.05 219.5 84 220 84 220 83.5 220 83 Z" stroke="none" fill="#C2882A"></path>

<path d="M 212 83
Q 212 82.5 211.8 82.35 208.25 80.25 202 81 206.2 82.3 211 82.95 211.5 83 212 83 Z" stroke="none" fill="#A46709"></path>

<path d="M 218 73
Q 218 72.5 217.75 72.3 215.25 70.25 210 71 211.2 74.3 217 73.1 217.5 73 218 73 Z" stroke="none" fill="#606456"></path>

<path d="M 163 77
Q 163.5 77 164 77 164 76.5 163.85 76.45 159.35 75.15 154 75 154 75.5 154 76 154 76.5 154 77 158.5 77 163 77 Z" stroke="none" fill="#9F6112"></path>

<path d="M 170 78.1
Q 170.5 78 171 78 178.7 79.3 187 79.95 187.5 80 188 80 188.5 80 188.5 79.9 189.15 76.6 166 77 166.8 78.7 170 78.1 Z" stroke="none" fill="#A5670D"></path>

<path d="M 170.9 78.55
Q 171 78.5 171 78 170.5 78 170 78.1 166.8 78.7 166 77 165.5 77 165 77 164.5 77 164 77 163.5 77 163 77 158.5 77 154 77 153.5 77 153.15 77.25 151.7 78.2 149 78 148.5 78 148.05 78.1 132.8 81.8 124 92 124 92.5 123.75 92.75 118.15 98.65 115 107 115 107.5 115 108 115 108.5 115 109 124.55 92.05 141.8 82.6 142 82.5 142 82 147.05 81.85 151.8 79.6 152 79.5 152 79 162.4 80.6 170.9 78.55 Z" stroke="none" fill="#F4BF55"></path>

<path d="M 165 67
Q 165 66.5 164.75 66.3 162.2 64.3 152 65 152 65.5 152 66 152 66.5 152 67 158 67 164 67 164.5 67 165 67 Z" stroke="none" fill="#5F6356"></path>

<path d="M 186 69
Q 187.5 72 193 71.1 193.5 71 194 71 194 70.5 193.75 70.3 191.25 68.25 186 69 Z" stroke="none" fill="#696351"></path>

<path d="M 183 69
Q 183 68.5 182.75 68.3 180.2 66.3 170 67 173.9 70.1 182 69.05 182.5 69 183 69 Z" stroke="none" fill="#646353"></path>

<path d="M 292 83
Q 292 82.5 291.85 82.05 291.2 80.3 288 81 287.6 83.9 291.05 83.1 291.5 83 292 83 Z" stroke="none" fill="#686351"></path>

<path d="M 273.1 88.8
Q 270.1 87.45 265 88 265 88.5 265 89 294.9 90.1 308.75 107.2 309 107.5 309 108 309.5 108 309.5 107.95 310 104.05 306 98 305.5 98 305 97.9 297.75 96.3 292 89 291.5 89 291 89.1 282.6 90.55 279 87 278.5 87 278.3 87.25 276.8 89.25 274 89 273.5 89 273.1 88.8 Z" stroke="none" fill="#A86914"></path>

<path d="M 266 79
Q 266 78.5 265.75 78.3 263.25 76.25 258 77 259.2 80.3 265 79.1 265.5 79 266 79 Z" stroke="none" fill="#666454"></path>

<path d="M 274 79
Q 275.25 81.2 279 81.05 279.5 81 280 81 280 80.5 279.75 80.2 278.2 78.25 274 79 Z" stroke="none" fill="#676151"></path>

<path d="M 258 88
Q 259.3 89.7 263 89.1 263.5 89 264 89 264 88.5 263.75 88.2 262.2 86.25 258 87 258 87.5 258 88 Z" stroke="none" fill="#A46512"></path>

<path d="M 258 87
Q 257.5 87 257 87 253.5 87 250 87 252.25 88.75 257 88.05 257.5 88 258 88 258 87.5 258 87 Z" stroke="none" fill="#AE711C"></path>

<path d="M 248 87
Q 247.5 87 247 86.95 233.65 85.35 220 84 219.5 84 219 84.05 214.25 84.75 212 83 211.5 83 211 82.95 206.2 82.3 202 81 201.5 81 201 81.05 193.25 81.75 188 80 187.5 80 187 79.95 178.7 79.3 171 78 171 78.5 170.9 78.55 162.4 80.6 152 79 152 79.5 151.8 79.6 147.05 81.85 142 82 142 82.5 141.8 82.6 124.55 92.05 115 109 115 109.5 114.9 110 114.15 113.65 113 117 113 119.5 113 122 113 122.5 113 123 113 123.5 113.1 124 113.7 126.7 112 127 112 127.5 112 128 112 128.5 111.95 129 111.35 135.85 110 142 110 143.5 110 145 110 145.5 110 146 110 146.5 110 147 110 147.5 110 148 110 148.5 110.05 149 110.75 154.75 109 158 109 158.5 109 159 109 159.5 109.1 160 109.7 163.7 108 165 108 165.5 108.05 166 108.75 170.75 107 173 107 173.5 107.05 174 107.75 179.25 106 182 106 182.5 106 183 106 183.5 106 184 106.25 192.75 104 199 104 202.5 104 206 104 206.5 104 207 104.7 224.5 104 252 104 252.5 104 253 104 254 104 255 104 255.5 104 256 110 265 117.25 272.75 117.5 273 118 273 118 272.5 118 272 118 271.5 118 271 122.1 272.4 120.75 273.75 120.5 274 120 274 121.95 276.55 125.05 277.8 125.5 278 126 278 126 277.5 126.25 277.35 135.25 271.65 125 266 135.45 262.35 135.5 271
L 136 271
Q 136.4 261.6 144 266.5
L 144 266
Q 148.4 261.3 151.45 269.85 151.5 270 152 270 154.45 268.95 158.8 266.6 159 266.5 159 266 166.85 261.9 165.5 267.9 165.5 268 165 268 170.05 268.9 172.8 267.6 173 267.5 173 267 177.4 264 185.05 265.9 185.5 266 186 266 190.9 267.3 195.75 271.3 196 271.5 196 272 201.35 274.35 203 266.5
L 203 267
Q 204.85 268.05 208.35 273.8 208.5 274 209 274 220.85 272.6 218.5 267
L 219 267
Q 226.75 266.65 220.5 271
L 221 271
Q 233.4 268.75 238.1 270.8 238.5 271 239 271 236.4 272.3 244.05 274.85 244.5 275 245 275 250.85 275.1 256 273.5
L 256 274
Q 255.9 275.75 262 275.5
L 262 276
Q 262.5 276.85 270.5 283
L 270 283
Q 273.6 285.9 279 286.9 279.5 287 280 287 274.7 291.7 267.15 294.45 267 294.5 267 295 268 295 268.8 295.4 269 295.5 269 296 286.4 291.9 295.75 279.8 296 279.5 296 279 295.5 279 295.3 279.25 293.8 281.15 294 277 297.8 270.5 298.9 275.05 299 275.5 299 276 299.5 276 300 276 300 275.5 300 275 300 274.5 300 274 304.15 269.15 305.5 261.1 305.5 261 306 261 306 260.5 306 260 306 259 306 258 306 257.5 306 257 306 255 306 253 308.4 241.4 309 228 309 227.5 309 227 309 226.5 309 226 309 224.5 309 223 312 208.5 312.95 192 313 191.5 313 191 313 190.5 313 190 313 187.5 313 185 313.5 184.5 313.8 183.9 314 183.5 314 183 314 182.5 314 182 314 178.5 314 175 316.7 159.7 317.95 143 318 142.5 318 142 318 141.5 318 141 318 133.5 318 126 318 125.5 317.75 125.15 316.8 123.7 317 121 316.5 121 316.4 120.8 313.45 114.55 310 109 309.5 109 309.25 108.75 309 108.5 309 108 309 107.5 308.75 107.2 294.9 90.1 265 89 264.5 89 264 89 263.5 89 263 89.1 259.3 89.7 258 88 257.5 88 257 88.05 252.25 88.75 250 87 249.5 87 249 87 248.5 87 248 87
M 284 96
Q 284.5 96 284.95 96.15 295.25 99.3 301 107 301 107.5 301.15 107.95 303 114 302 118
L 302 117.5
Q 297.65 119.15 293 121 292.5 121 292 120.9 262.85 114.45 228 112 227.5 112 227 111.95 177 106.95 136 94 143.9 78.6 167.9 82.5 168 82.5 168 83 226.45 88.55 283 95.95 283.5 96 284 96
M 196.1 82.5
Q 196 82.5 196 82 203 84.1 196.1 82.5
M 185.05 120.15
Q 185.5 120 186 120 186 119.5 186 119 190 119 193.95 119.5 194 119.5 194 120 246.45 128.05 257.9 177.05 258 177.5 258 178 258.5 178 258.75 178.25 259 178.5 259 179 260.75 182.25 259.5 187.9 259.5 188 259 188 259 188.5 258.95 189 256.25 207.75 245 218 245 218.5 245 219 245.5 219 245.5 219.05 245.8 222.8 242 223 241.5 223 241.3 223.25 239.8 225.3 237 226 237 226.5 237 227
L 237.5 227
Q 236.4 232.7 232 231 231.5 231 231 231 231 231.5 231 232 231.5 232 231.5 232.1 232.35 235.95 227 235 226.5 235 226 235 226 235.5 226.15 235.95 227.5 239.6 217 241 216.5 241 216 241 216 241.5 215.8 241.95 214.25 245.75 208 245 208 245.5 207.85 245.55 201.25 247.75 192 247 192 247.5 191.9 247.5 186.25 248.75 183 247 182.5 247 182 247.1 179.35 247.65 180 245 180 244.5 180 244 180 243.5 180 243 180 242.5 179.75 242.2 177.75 239.75 178 235 177.5 235 177.45 234.9 177 233 177 231
L 176.5 231
Q 176 196.5 176 162 176 161.5 176 161 176 157.5 176 154 176 153.5 176 153 176 150 176 147 175.5 147 175.45 146.9 175 145 175 143 174.5 143 174.5 142.95 174 138 174 133 174.5 133 175 133 175 132.5 175 132 175 131 175 130 175.5 130 176 130 176 129.5 176 129 178.25 122.25 185.05 120.15
M 108.25 255.65
Q 108 255.5 108 255 119.5 263.2 108.25 255.65
M 150 264
Q 160.9 268.95 150.15 264.55 150 264.5 150 264
M 274 282
Q 280.65 283.2 274.05 282.5 274 282.5 274 282
M 218 245.5
L 218 245
Q 228.75 245.95 218 245.5
M 197.75 254.25
Q 198 254.5 198 255 200 258.6 192.85 254.2 192.5 254 192 254 185.3 256 182.25 251.85 182 251.5 182 251 193.1 249.75 197.75 254.25
M 195 266
Q 204.1 270.65 195.2 266.6 195 266.5 195 266
M 208 269.5
L 208 269
Q 219.35 269.9 208 269.5 Z" stroke="none" fill="#F8C640"></path>

<path d="M 208 269
L 208 269.5
Q 219.35 269.9 208 269
M 195.2 266.6
Q 204.1 270.65 195 266 195 266.5 195.2 266.6 Z" stroke="none" fill="#F8D83E"></path>

<path d="M 198 255
Q 198 254.5 197.75 254.25 193.1 249.75 182 251 182 251.5 182.25 251.85 185.3 256 192 254 192.5 254 192.85 254.2 200 258.6 198 255
M 218 245
L 218 245.5
Q 228.75 245.95 218 245
M 108 255
Q 108 255.5 108.25 255.65 119.5 263.2 108 255 Z" stroke="none" fill="#F6D636"></path>

<path d="M 274.05 282.5
Q 280.65 283.2 274 282 274 282.5 274.05 282.5 Z" stroke="none" fill="#F9D840"></path>

<path d="M 150.15 264.55
Q 160.9 268.95 150 264 150 264.5 150.15 264.55 Z" stroke="none" fill="#F9D83F"></path>

<path d="M 192 247
Q 191.5 247 191 247 187 247 183 247 186.25 248.75 191.9 247.5 192 247.5 192 247 Z" stroke="none" fill="#F2D56A"></path>

<path d="M 180 244
Q 180 244.5 180 245 181.65 246.35 185 246.05 185.5 246 186 246 186 245.5 185.95 245.5 181.75 245.25 180 243 180 243.5 180 244 Z" stroke="none" fill="#997C35"></path>

<path d="M 178 215
Q 177.5 215 177 215 177 222.5 177 230 177 230.5 177 231 177 233 177.45 234.9 177.5 235 178 235 178 234.5 178 234 178 224.5 178 215 Z" stroke="none" fill="#2C1000"></path>

<path d="M 231.5 232.1
Q 231.5 232 231 232 230.5 232 230.25 232.25 229 233.5 227 234 227 234.5 227 235 232.35 235.95 231.5 232.1 Z" stroke="none" fill="#D7BD64"></path>

<path d="M 237.5 227
L 237 227
Q 236.5 227 236.4 227.2 235.2 229.7 232 230 232 230.5 232 231 236.4 232.7 237.5 227 Z" stroke="none" fill="#D6BA6E"></path>

<path d="M 217 240
Q 217 240.5 217 241 227.5 239.6 226.15 235.95 226 235.5 226 235 225.5 235 225.2 235.25 221.75 238.25 217 240 Z" stroke="none" fill="#D7BD6A"></path>

<path d="M 209 244
Q 208.5 244 208 244 208 244.5 208 245 214.25 245.75 215.8 241.95 216 241.5 216 241 215.5 241 215.2 241.25 212.85 243.35 209 244 Z" stroke="none" fill="#D6BC6B"></path>

<path d="M 208 245
Q 207.5 245 207.05 245.15 200.25 247.15 194 244 193.5 244 193.35 244.25 191.5 247 186 246 185.5 246 185 246.05 181.65 246.35 180 245 179.35 247.65 182 247.1 182.5 247 183 247 187 247 191 247 191.5 247 192 247 201.25 247.75 207.85 245.55 208 245.5 208 245 Z" stroke="none" fill="#D7BD73"></path>

<path d="M 245 219
Q 244.5 219 244.4 219.2 243.7 220.7 242 221 242 221.5 242 222 242 222.5 242 223 245.8 222.8 245.5 219.05 245.5 219 245 219 Z" stroke="none" fill="#CCB164"></path>

<path d="M 259 188
Q 259.5 188 259.5 187.9 260.75 182.25 259 179 259 182.5 259 186 259 186.5 259 187 259 187.5 259 188 Z" stroke="none" fill="#E4C473"></path>

<path d="M 259 179
Q 259 178.5 258.75 178.25 258.5 178 258 178 258 182.5 258.5 186.95 258.5 187 259 187 259 186.5 259 186 259 182.5 259 179 Z" stroke="none" fill="#5C3F00"></path>

<path d="M 178 187
Q 177.5 187 177 187 177 200.5 177 214 177 214.5 177 215 177.5 215 178 215 178 214.5 178 214 178 202 178 190 178 189.5 178 189 178 188 178 187 Z" stroke="none" fill="#593A00"></path>

<path d="M 178 187
Q 178 186.5 178.05 186 178.75 180.25 177 177 177 181.5 177 186 177 186.5 177 187 177.5 187 178 187 Z" stroke="none" fill="#573901"></path>

<path d="M 177 162
Q 176.5 162 176 162 176 196.5 176.5 231
L 177 231
Q 177 230.5 177 230 177 222.5 177 215 177 214.5 177 214 177 200.5 177 187 177 186.5 177 186 177 181.5 177 177 177 176.5 177 176 177 169 177 162 Z" stroke="none" fill="#D7BC71"></path>

<path d="M 177 162
Q 177 161.5 177.05 161 177.75 156.25 176 154 176 157.5 176 161 176 161.5 176 162 176.5 162 177 162 Z" stroke="none" fill="#7E643E"></path>

<path d="M 175 133
Q 174.5 133 174 133 174 138 174.5 142.95 174.5 143 175 143 175 142.5 175 142 175 137.5 175 133 Z" stroke="none" fill="#DAB96F"></path>

<path d="M 175 132
Q 175 132.5 175 133 175 137.5 175 142 175 142.5 175 143 175 145 175.45 146.9 175.5 147 176 147 176 146.5 176 146 176 138 176 130 175.5 130 175 130 175 131 175 132 Z" stroke="none" fill="#9E701C"></path>

<path d="M 186 120
Q 189.5 120 193 120 193.5 120 194 120 194 119.5 193.95 119.5 190 119 186 119 186 119.5 186 120 Z" stroke="none" fill="#A27B30"></path>

<path d="M 218 130
L 218 129.5
Q 211.35 131.9 205 125 204.5 125 204 125 194.3 124.55 192 123 191.5 123 191.05 123.1 182.55 125.05 178 131 179.75 140.1 178.15 144.05 178 144.5 178 145 181.283203125 150.8203125 179 160.4 179.4244140625 167.8630859375 178.5 190
L 178 190
Q 178 202 178 214 178 214.5 178 215 178 224.5 178 234 178 234.5 178 235 177.75 239.75 179.75 242.2 180 242.5 180 243 181.75 245.25 185.95 245.5 186 245.5 186 246 191.5 247 193.35 244.25 193.5 244 194 244 200.25 247.15 207.05 245.15 207.5 245 208 245 208 244.5 208 244 208.5 244 209 244 209 243.5 209.25 243.15 212.8 237.9 218 235 218 234.5 218.1 234.5 229.65 232.25 239 219 239.5 219 239.85 218.75 244.95 215.4 246 209 246.5 209 246.7 208.75 258.35 195.5 257 177 256.5 177 256.35 176.8 250.9 167.85 252 162 252 161.5 251.75 161.3 243.7 154.8 239 145 238.5 145 238.1 144.8 227 138.5 218 130
M 205.2 135.75
Q 205.5 136 206 136 212.2 138.3 217.8 141.4 218 141.5 218 142 221.35 143.65 223.75 146.25 224 146.5 224 147 233.75 153.25 237.85 165.05 238 165.5 238 166 239.25 168.25 239.9 171 240 171.5 240 172 241.65 171.9 241.1 174.05 241 174.5 241 175 242.75 181.25 241.5 189.95 241.5 190 241 190 241 190.5 241 191 241 191.5 241 192 241 192.5 240.75 192.75 240.5 193 240 193 240 193.5 240 194 240 194.5 239.85 194.95 238.45 198.95 236 202 236 202.5 235.9 203 235.5 205 234 206 234 206.5 233.75 206.8 226.45 215.45 217 222 217 222.5 216.8 222.6 216 223 215 223 215 223.5 214.75 223.8 212.7 226.2 209 227 209 227.5 209 228 209 228.5 208.8 228.6 201.9 232.35 194 230 194 229.5 194 229 193.5 229 193.5 228.95 193 220.5 193 212 193 211.5 193 211 193 206.5 193 202 193 201.5 193 201 193 197.5 193 194
L 192.5 194
Q 192 179.5 192 165 192 164.5 192 164 192 158.5 192 153 192 152.5 192 152 192 149 192 146 191.5 146 191.5 145.95 191 140 191 134 191.5 134 192 134 192 133.5 192 133 195 133 197.9 133.5 198 133.5 198 134 198.5 134 199 134 203 134 205.2 135.75 Z" stroke="none" fill="#100505"></path>

<path d="M 194 212
Q 193.5 212 193 212 193 220.5 193.5 228.95 193.5 229 194 229 194 228.5 194 228 194 220 194 212 Z" stroke="none" fill="#442F01"></path>

<path d="M 194 211
Q 194 206.5 194 202 193.5 202 193 202 193 206.5 193 211 193 211.5 193 212 193.5 212 194 212 194 211.5 194 211 Z" stroke="none" fill="#6B4E1E"></path>

<path d="M 203 229
Q 203 229.5 202.95 229.5 199 230 195 230 194.5 230 194 230 201.9 232.35 208.8 228.6 209 228.5 209 228 208.5 228 208 228.1 206 228.5 204 229 203.5 229 203 229 Z" stroke="none" fill="#83660F"></path>

<path d="M 202.95 229.5
Q 203 229.5 203 229 202.5 229 202 229.05 196.45 229.4 195 227 195 228 195 229 195 229.5 195 230 199 230 202.95 229.5 Z" stroke="none" fill="#E1C76C"></path>

<path d="M 214.75 223.8
Q 215 223.5 215 223 214.5 223 214.1 223.2 209.05 225.55 204 228 204 228.5 204 229 206 228.5 208 228.1 208.5 228 209 228 209 227.5 209 227 212.7 226.2 214.75 223.8 Z" stroke="none" fill="#E3C259"></path>

<path d="M 233.75 206.8
Q 234 206.5 234 206 234 205.5 234 205 234 204.5 234 204 233.5 204 233.3 204.25 225.55 213.55 216 221 216 221.5 216.25 221.75 216.5 222 217 222 226.45 215.45 233.75 206.8 Z" stroke="none" fill="#DFBF5C"></path>

<path d="M 234 201
Q 234 202 234 203 234 203.5 234 204 234 204.5 234 205 234 205.5 234 206 235.5 205 235.9 203 236 202.5 236 202 236 201.5 236 201 235.5 201 235 201 234.5 201 234 201 Z" stroke="none" fill="#D2B057"></path>

<path d="M 239.85 194.95
Q 240 194.5 240 194 239.5 194 239.1 194.2 238.45 194.5 236 198 236 199 236 200 236 200.5 236 201 236 201.5 236 202 238.45 198.95 239.85 194.95 Z" stroke="none" fill="#D9B95E"></path>

<path d="M 241 189
Q 241 189.5 241 190 241.5 190 241.5 189.95 242.75 181.25 241 175 241 182 241 189 Z" stroke="none" fill="#9B7516"></path>

<path d="M 239.8 172.6
Q 239 173 238 173 241.3 180.2 240.5 192
L 241 192
Q 241 191.5 241 191 241 190.5 241 190 241 189.5 241 189 241 182 241 175 241 174.5 241.1 174.05 241.65 171.9 240 172 240 172.5 239.8 172.6 Z" stroke="none" fill="#DDBD5F"></path>

<path d="M 238 173
Q 239 173 239.8 172.6 240 172.5 240 172 240 171.5 239.9 171 239.25 168.25 238 166 238 167 238 168 238 168.5 238 169 238 170.5 238 172 238 172.5 238 173 Z" stroke="none" fill="#DCBB69"></path>

<path d="M 231.05 157.15
Q 231.5 157 232 157 234.45 163.05 237.4 168.8 237.5 169 238 169 238 168.5 238 168 238 167 238 166 238 165.5 237.85 165.05 233.75 153.25 224 147 225.2 151.3 227.75 154.2 228 154.5 228 155 230.7 157.2 231.05 157.15 Z" stroke="none" fill="#D8B65D"></path>

<path d="M 193 193
Q 193 193.5 193 194 193 197.5 193 201 193 201.5 193 202 193.5 202 194 202 194 201.5 194 201 194 195 194 189 193.5 189 193 189 193 191 193 193 Z" stroke="none" fill="#8E7038"></path>

<path d="M 194 178
Q 193.5 178 193 178 193 183 193 188 193 188.5 193 189 193.5 189 194 189 194 188.5 194 188 194 183 194 178 Z" stroke="none" fill="#B9A156"></path>

<path d="M 193 165
Q 192.5 165 192 165 192 179.5 192.5 194
L 193 194
Q 193 193.5 193 193 193 191 193 189 193 188.5 193 188 193 183 193 178 193 177.5 193 177 193 171 193 165 Z" stroke="none" fill="#452A00"></path>

<path d="M 193 164
Q 193 158.5 193 153 192.5 153 192 153 192 158.5 192 164 192 164.5 192 165 192.5 165 193 165 193 164.5 193 164 Z" stroke="none" fill="#6A4B03"></path>

<path d="M 194 144
Q 194 143.5 193.8 143.1 193.5 142.5 193 142 193 147 193 152 193 152.5 193 153 193 158.5 193 164 193 164.5 193 165 193 171 193 177 193 177.5 193 178 193.5 178 194 178 194 177.5 194 177 194 160.5 194 144 Z" stroke="none" fill="#E3C26E"></path>

<path d="M 196.25 137.85
Q 196 137.5 196 137 195.5 137 195.25 137.25 194 138.5 193 140 193 140.5 193 141 193 141.5 193 142 193.5 142.5 193.8 143.1 194 143.5 194 144 198.85 141.85 196.25 137.85 Z" stroke="none" fill="#F6C240"></path>

<path d="M 192 145
Q 192 145.5 192 146 192 149 192 152 192 152.5 192 153 192.5 153 193 153 193 152.5 193 152 193 147 193 142 192.5 142 192 142 192 143.5 192 145 Z" stroke="none" fill="#8F6E0B"></path>

<path d="M 192 134
Q 191.5 134 191 134 191 140 191.5 145.95 191.5 146 192 146 192 145.5 192 145 192 143.5 192 142 192 141.5 192 141 192 137.5 192 134 Z" stroke="none" fill="#372405"></path>

<path d="M 193 134
Q 195 134 197 134 197.5 134 198 134 198 133.5 197.9 133.5 195 133 192 133 192 133.5 192 134 192 137.5 192 141 192 141.5 192 142 192.5 142 193 142 193 141.5 193 141 193 140.5 193 140 193 139.5 193 139 193 136.5 193 134 Z" stroke="none" fill="#A58335"></path>

<path d="M 199 134
Q 198.5 134 198 134 197.5 134 197 134 195 134 193 134 193 136.5 193 139 193 139.5 193 140 194 138.5 195.25 137.25 195.5 137 196 137 197.5 137 199 137 199.5 137 200 137 200 136.5 200.25 136.35 201.45 135.5 199 134 Z" stroke="none" fill="#E3BB5F"></path>

<path d="M 218 142
Q 218 142.5 218 143 218.6 146.9 223 147 223.5 147 224 147 224 146.5 223.75 146.25 221.35 143.65 218 142 Z" stroke="none" fill="#D2B264"></path>

<path d="M 218 142
Q 218 141.5 217.8 141.4 212.2 138.3 206 136 206 136.5 206 137 210.45 141.05 217.05 142.85 217.5 143 218 143 218 142.5 218 142 Z" stroke="none" fill="#CCA75C"></path>

<path d="M 206 137
Q 205.5 137 205 137 202.5 137 200 137 199.5 137 199 137 197.5 137 196 137 196 137.5 196.25 137.85 198.85 141.85 194 144 194 160.5 194 177 194 177.5 194 178 194 183 194 188 194 188.5 194 189 194 195 194 201 194 201.5 194 202 194 206.5 194 211 194 211.5 194 212 194 220 194 228 194 228.5 194 229 194 229.5 194 230 194.5 230 195 230 195 229.5 195 229 195 228 195 227 196.45 229.4 202 229.05 202.5 229 203 229 203.5 229 204 229 204 228.5 204 228 209.05 225.55 214.1 223.2 214.5 223 215 223 216 223 216.8 222.6 217 222.5 217 222 216.5 222 216.25 221.75 216 221.5 216 221 225.55 213.55 233.3 204.25 233.5 204 234 204 234 203.5 234 203 234 202 234 201 234.5 201 235 201 235.5 201 236 201 236 200.5 236 200 236 199 236 198 238.45 194.5 239.1 194.2 239.5 194 240 194 240 193.5 240 193 240.5 193 240.75 192.75 241 192.5 241 192
L 240.5 192
Q 241.3 180.2 238 173 238 172.5 238 172 238 170.5 238 169 237.5 169 237.4 168.8 234.45 163.05 232 157 231.5 157 231.05 157.15 230.7 157.2 228 155 228 154.5 227.75 154.2 225.2 151.3 224 147 223.5 147 223 147 218.6 146.9 218 143 217.5 143 217.05 142.85 210.45 141.05 206 137 Z" stroke="none" fill="#F8C43E"></path>

<path d="M 206 136
Q 205.5 136 205.2 135.75 203 134 199 134 201.45 135.5 200.25 136.35 200 136.5 200 137 202.5 137 205 137 205.5 137 206 137 206 136.5 206 136 Z" stroke="none" fill="#C8A65F"></path>

<path d="M 218 129.5
L 218 130
Q 227 138.5 238.1 144.8 238.5 145 239 145 243.7 154.8 251.75 161.3 252 161.5 252 162 250.9 167.85 256.35 176.8 256.5 177 257 177 258.35 195.5 246.7 208.75 246.5 209 246 209 244.95 215.4 239.85 218.75 239.5 219 239 219 229.65 232.25 218.1 234.5 218 234.5 218 235 212.8 237.9 209.25 243.15 209 243.5 209 244 212.85 243.35 215.2 241.25 215.5 241 216 241 216.5 241 217 241 217 240.5 217 240 221.75 238.25 225.2 235.25 225.5 235 226 235 226.5 235 227 235 227 234.5 227 234 229 233.5 230.25 232.25 230.5 232 231 232 231 231.5 231 231 231.5 231 232 231 232 230.5 232 230 235.2 229.7 236.4 227.2 236.5 227 237 227 237 226.5 237 226 239.8 225.3 241.3 223.25 241.5 223 242 223 242 222.5 242 222 242 221.5 242 221 243.7 220.7 244.4 219.2 244.5 219 245 219 245 218.5 245 218 256.25 207.75 258.95 189 259 188.5 259 188 259 187.5 259 187 258.5 187 258.5 186.95 258 182.5 258 178 258 177.5 257.9 177.05 246.45 128.05 194 120 193.5 120 193 120 189.5 120 186 120 185.5 120 185.05 120.15 178.25 122.25 176 129 176 129.5 176 130 176 138 176 146 176 146.5 176 147 176 150 176 153 176 153.5 176 154 177.75 156.25 177.05 161 177 161.5 177 162 177 169 177 176 177 176.5 177 177 178.75 180.25 178.05 186 178 186.5 178 187 178 188 178 189 178 189.5 178 190
L 178.5 190
Q 179.4244140625 167.8630859375 179 160.4 181.283203125 150.8203125 178 145 178 144.5 178.15 144.05 179.75 140.1 178 131 182.55 125.05 191.05 123.1 191.5 123 192 123 194.3 124.55 204 125 204.5 125 205 125 211.35 131.9 218 129.5 Z" stroke="none" fill="#2E1101"></path>

<path d="M 196 82
Q 196 82.5 196.1 82.5 203 84.1 196 82 Z" stroke="none" fill="#FDC85C"></path>

<path d="M 284.2 96.65
Q 284 96.5 284 96 283.5 96 283 95.95 226.45 88.55 168 83 167.5 83 167 82.95 158.3 82.3 152 84 180.2 91.85 217 92 217.5 92 218 92 226.5 96.3 239 97.95 239.5 98 240 98 267.5 103.2 291.95 101.5 292 101.5 292 101 288.05 98.95 284.2 96.65 Z" stroke="none" fill="#FEE271"></path>

<path d="M 284.95 96.15
Q 284.5 96 284 96 284 96.5 284.2 96.65 288.05 98.95 292 101 292 101.5 291.95 101.5 267.5 103.2 240 98 239.5 98 239 97.95 226.5 96.3 218 92 217.5 92 217 92 180.2 91.85 152 84 158.3 82.3 167 82.95 167.5 83 168 83 168 82.5 167.9 82.5 143.9 78.6 136 94 177 106.95 227 111.95 227.5 112 228 112 262.85 114.45 292 120.9 292.5 121 293 121 297.65 119.15 302 117.5
L 302 118
Q 303 114 301.15 107.95 301 107.5 301 107 295.25 99.3 284.95 96.15 Z" stroke="none" fill="#FED461"></path>

<path d="M 247 86.95
Q 247.5 87 248 87 248 86.5 247.85 86.45 235.6 82.9 220 83 220 83.5 220 84 233.65 85.35 247 86.95 Z" stroke="none" fill="#A3660F"></path>

<path d="M 252 77
Q 252 76.5 252.25 76.35 255.05 74.5 242 75 244.15 78.35 251 77.1 251.5 77 252 77 Z" stroke="none" fill="#606253"></path>

<path d="M 326.1 186
Q 326 185.5 326 185
L 325.5 185
Q 325.7 188.2 324 189 324 192.5 324 196 324 196.5 324 197 327.4 193.9 326.1 186 Z" stroke="none" fill="#666250"></path>

<path d="M 328.1 164
Q 328 163.5 328 163 327.5 163 327 163 326.5 163 326 163 326 166.5 326 170 326 170.5 326 171 329.3 169.8 328.1 164 Z" stroke="none" fill="#676251"></path>

<path d="M 330 127
Q 330 126.5 330.1 126.05 330.95 122.6 328 123 327.3 126.2 329.05 126.85 329.5 127 330 127 Z" stroke="none" fill="#606252"></path>

<path d="M 330.1 148
Q 330 147.5 330 147 329.5 147 329.1 147.2 328.5 147.5 328 148 328.6 152.1 328.05 158 328 158.5 328 159 331.4 155.9 330.1 148 Z" stroke="none" fill="#686151"></path>

<path d="M 328 123
Q 328 122.5 327.85 122.05 318.95 93.55 292 83 291.5 83 291.05 83.1 287.6 83.9 288 81 287.5 81 287 81 283.5 81 280 81 279.5 81 279 81.05 275.25 81.2 274 79 273.5 79 273 79 269.5 79 266 79 265.5 79 265 79.1 259.2 80.3 258 77 257.5 77 257 77 254.5 77 252 77 251.5 77 251 77.1 244.15 78.35 242 75 241.5 75 241 75 237.5 75 234 75 233.5 75 233 75.1 227.2 76.3 226 73 225.5 73 225 73 221.5 73 218 73 217.5 73 217 73.1 211.2 74.3 210 71 209.5 71 209 71 201.5 71 194 71 193.5 71 193 71.1 187.5 72 186 69 185.5 69 185 69 184 69 183 69 182.5 69 182 69.05 173.9 70.1 170 67 169.5 67 169 67 167 67 165 67 164.5 67 164 67 158 67 152 67 151.5 67 151 67 149.5 67 148 67 148 67.5 147.8 67.65 145.5 69 142 69 141.5 69 141 69 139.5 69 138 69 138 69.5 137.85 69.95 137.2 71.7 134 71 133.5 71 133.15 71.25 116.25 82.75 104 103 104 104.5 104 106 104 106.5 104 107 104 107.5 104.1 108 105.2 112.7 102 113 102 114.5 102 116 102 116.5 102 117 102 117.5 102.1 118 103.35 124.85 100 127 100 134 100 141 100 141.5 100 142 100 142.5 100.1 142.95 101.1 147.1 98 147 98 152.5 98 158 98 158.5 98 159 98 159.5 98.1 160 99.2 164.7 96 165 96 169.5 96 174 96 174.5 96 175 96 175.5 96.1 176 97.3 181.8 94 183 94 186.5 94 190 94 190.5 94 191 94 191.5 94.05 192 95.1 202.7 92 207 92 210.5 92 214 92 214.5 92 215 92 215.5 92.1 216 93.3 221.8 90 223 90 237 90 251 90 251.5 90 252 95.8 250.1 101.85 252.45 102 252.5 102 253 102.5 253 103 253 103 252.5 102.8 252.1 102.5 251.5 102 251 101.5 251 101.45 250.85 99.3 243.7 100 234 100 233.5 100.05 233 100.55 228.45 99 226 100 223.5 101.35 221.2 101.5 221 102 221 102 220.5 102 220 102 216.5 102 213 102 212.5 101.8 212.1 101.5 211.5 101 211 102 205 103.45 199.1 103.5 199 104 199 104 198.5 104 198 104 190.5 104 183 104.5 183 105 183 105.5 183 106 183 106 182.5 106 182 107.75 179.25 107.05 174 107 173.5 107 173 107 172.5 107 172 107 168.5 107 165 107.5 165 108 165 109.7 163.7 109.1 160 109 159.5 109 159 108.5 159 108.5 158.95 108 152 108 145 108.5 145.5 109.1 145.8 109.5 146 110 146 110 145.5 110 145 110 143.5 110 142 110 141.5 110 141 110 136 110 131 111.7 130.7 111.5 128
L 112 128
Q 112 127.5 112 127 113.7 126.7 113.1 124 113 123.5 113 123
L 112.5 123
Q 112.55 117.95 111 115 112.95 98.95 123.2 91.25 123.5 91 124 91 124 90.5 123.8 90.1 123.5 89.5 123 89 132.4 79.4 149 77.5
L 149 78
Q 151.7 78.2 153.15 77.25 153.5 77 154 77 154 76.5 154 76 154 75.5 154 75 159.35 75.15 163.85 76.45 164 76.5 164 77 164.5 77 165 77 165.5 77 166 77 189.15 76.6 188.5 79.9 188.5 80 188 80 193.25 81.75 201 81.05 201.5 81 202 81 208.25 80.25 211.8 82.35 212 82.5 212 83 215.5 83 219 83 219.5 83 220 83 235.6 82.9 247.85 86.45 248 86.5 248 87 248.5 87 249 87 249.5 87 250 87 253.5 87 257 87 257.5 87 258 87 262.2 86.25 263.75 88.2 264 88.5 264 89 264.5 89 265 89 265 88.5 265 88 270.1 87.45 273.1 88.8 273.5 89 274 89 276.8 89.25 278.3 87.25 278.5 87 279 87 282.6 90.55 291 89.1 291.5 89 292 89 297.75 96.3 305 97.9 305.5 98 306 98 310 104.05 309.5 107.95 309.5 108 309 108 309 108.5 309.25 108.75 309.5 109 310 109 316.15 111.85 317.9 119.05 318 119.5 318 120 318 120.5 318.25 120.85 323.35 128.2 321 137
L 321 136.5
Q 320 146.5 320 159 320 159.5 319.9 160 317.55 174.55 314 183 314 183.5 313.8 183.9 313.5 184.5 313 185 313 187.5 313 190 313 190.5 313 191 313.5 191 313.5 191.05 314.65 211.15 310 226 310 226.5 310 227 310 227.5 310.05 228 311.45 245.75 306 258 306 259 306 260 306 260.5 306 261 306 261.5 305.95 262 305.25 273.7 300 276 300 276.5 300 277 300.15 281.65 297 283 297 283.5 297 284 297 284.5 297 285 301.5 285 305.95 285.5 306 285.5 306 286 306 286.5 306.25 286.75 306.5 287 307 287 307 286.5 307 286 308 281.5 311.15 279.25 311.5 279 312 279 312 278.5 312 278 312 276 312 274 312.5 273.5 313.1 273.2 313.5 273 314 273 314 272.5 314 272 314 270.5 314 269 315.5 268 315.9 266 316 265.5 316 265 316 264.5 316 264 316 260.5 316 257 316.5 257 317 257 317.5 257 318 257 318 256.5 318 256 318 254.5 318 253 318 252.5 318 252 318 245.5 318 239 318.5 239 319 239 319.5 239 320 239 320 238.5 319.8 238.1 319.5 237.5 319 237 320.7 235.7 320.1 232 320 231.5 320 231 320 230.5 320 230 320 226.5 320 223 321.65 223.15 321.5 221
L 322 221
Q 322 220.5 322 220 322 213.5 322 207 325.35 204.85 324.1 198 324 197.5 324 197 324 196.5 324 196 324 192.5 324 189 325.7 188.2 325.5 185
L 326 185
Q 326 184.5 326 184 326 177.5 326 171 326 170.5 326 170 326 166.5 326 163 326.5 163 327 163 327.5 163 328 163 328 162.5 328 162 328 160.5 328 159 328 158.5 328.05 158 328.6 152.1 328 148 328.5 147.5 329.1 147.2 329.5 147 330 147 330 146.5 330 146 330 136.5 330 127 329.5 127 329.05 126.85 327.3 126.2 328 123 Z" stroke="none" fill="#9C612C"></path>
</g>
</g>
</g>
</g>
</g>
</svg>
