
<svg viewBox="0 0 112 184" height="184px" width="112px" y="0px" x="0px" preserveAspectRatio="none" xmlns:xlink="http://www.w3.org/1999/xlink" version="1.1" xmlns="http://www.w3.org/2000/svg">
<defs></defs>

<g id="fun_scrollers">
<g transform="matrix( 0.3621063232421875, 0, 0, 0.3621063232421875, -594.2,0.1)" id="svg"></g>

<g transform="matrix( 0.3621063232421875, 0, 0, 0.3621063232421875, -594.2,0.1)" id="Layer_2">
<g>
<g>
<g>
<path d="M 1630.2 100.15
L 1630.2 114.5
Q 1631.91484375 118.3265625 1633.05 122.45 1635.2 130.35 1635.45 140.25
L 1635.5 142.8
Q 1635.7 155.15 1634.95 177
L 1633.95 207.05
Q 1633.8 211.65 1633.3 215.5 1632.85 218.45 1632.6 221.3
L 1631.45 249.4
Q 1630.5 275.45 1630.4 306.65 1630.35 329.45 1630.85 363.85
L 1631.2 393.65
Q 1631.35 402.2 1630.95 406.45 1630.5517578125 407.420703125 1630.2 408.2
L 1630.2 422.65
Q 1632.1486328125 420.7181640625 1634.25 418.15 1638.05 411.5 1638.55 406.4 1639.1 401.2 1638.5 377.15
L 1638.05 358.45
Q 1637.25 323.8 1637.3 299.2 1637.4 267.15 1638.8 240.05 1639.9 219.65 1640.85 192.1
L 1641.8 166.7
Q 1642.55 146.75 1641.75 136.7 1640.4 120.2 1634.75 107.7 1632.425390625 103.3326171875 1630.2 100.15 Z" stroke="none" fill="#706C84"></path>

<path d="M 1633.05 122.45
Q 1631.91484375 118.3265625 1630.2 114.5
L 1630.2 408.2
Q 1630.5517578125 407.420703125 1630.95 406.45 1631.35 402.2 1631.2 393.65
L 1630.85 363.85
Q 1630.35 329.45 1630.4 306.65 1630.5 275.45 1631.45 249.4
L 1632.6 221.3
Q 1632.85 218.45 1633.3 215.5 1633.8 211.65 1633.95 207.05
L 1634.95 177
Q 1635.7 155.15 1635.5 142.8
L 1635.45 140.25
Q 1635.2 130.35 1633.05 122.45 Z" stroke="none" fill="#F5F7F9"></path>
</g>
</g>
</g>
</g>

<g transform="matrix( 0.3621063232421875, 0, 0, 0.3621063232421875, -594.2,0.1)" id="Layer_3">
<g>
<g>
<g>
<path d="M 1631 434.9
Q 1630.5072265625 433.380859375 1630.2 432.15
L 1630.2 462.35
Q 1630.416796875 462.45 1630.65 462.6 1631.05 462.85 1631.85 463.35 1632.55 463.6 1633.6 463.6 1636.65 463.6 1639.65 463.45
L 1639.65 451.4
Q 1639.65 449.2 1639.35 448.15 1639.15 447.4 1638.7 447.05 1638.25 446.75 1637.3 446.75 1636.25 446.75 1635.85 446.6 1632.9 440.55 1631 434.9 Z" stroke="none" fill="#000000"></path>
</g>
</g>
</g>
</g>

<g transform="matrix( 0.3621063232421875, 0, 0, 0.3621063232421875, -594.2,0.1)" id="Layer_6">
<g>
<g>
<g>
<path d="M 1892.6 92.1
L 1892 92.05 1891.6 92.05 1891.15 96.8 1889.2 96.7
Q 1879.75 100.3 1874.15 103.2 1866.15 107.3 1860.85 112.6 1856.4 118.1 1853.9 125.3 1851.85 131.25 1851 139.4
L 1846.1 188.15
Q 1845.1 199.45 1842.8 221.8
L 1841 240
Q 1839.35 256.5 1839.05 259.3 1837.85 270.3 1836.7 278.65 1835.25 288.35 1834.2 301.15 1832.15 325 1830.05 343.15 1826.75 372.8 1825 391
L 1823.2 410.4
Q 1822.4 419.15 1823.1 424.25 1824.95 431.2 1830.6 436.6 1834 438.65 1838.2 439.8 1841.55 440.7 1846.35 441.3
L 1912.45 446.35
Q 1929.15 447.65 1935.75 447.9 1936.3529296875 447.920703125 1936.95 447.95
L 1936.95 440.4 1883.05 437.4
Q 1868.75 436.8 1861.55 436.3 1849.05 435.4 1840.45 433.05 1837.45 432 1835.95 430.65 1834.45 429.5 1832.65 426.75 1830.75 422.3 1830.05 418.85 1829.35 415 1829.75 410.45
L 1833.5 372.35
Q 1834.4 364.25 1834.75 360.2
L 1842.3 287.45
Q 1848.15 230.7 1850.7 209 1852.8 191.65 1854 179.1
L 1857.6 142.6
Q 1858.15 136.55 1858.55 134.05 1859.3 129.5 1860.95 125.8
L 1862.75 123.2
Q 1871.85 114.05 1875.35 111.65 1878.95 109.25 1891.1 104.25
L 1891.2 104.2 1894.5 102.8
Q 1893.3 102.4 1891.7 101.65
L 1891.6 99.5
Q 1891.6 99.4 1892.6 92.1 Z" stroke="none" fill="#706C84"></path>

<path d="M 1936.95 18.4
L 1936.95 13.15
Q 1920.366015625 12.52109375 1904.75 13.2
L 1901.35 13.35
Q 1893.7 13.65 1889.15 14.25 1882.4 14.95 1877.1 16.45 1876.15 18.05 1875.9 19.15 1875.65 20.2 1875.2 25.15
L 1875 27.9
Q 1874.75 29.85 1874.35 33.75 1874.15 37.15 1875.05 39.4 1877.8 41.05 1878.6 41.4 1879.45 41.7 1881.45 42.05
L 1904.6 43.95
Q 1903.05 47.4 1902.1 51.4 1901.35 54.35 1900.65 59.05 1899.35 67.4 1898.75 70.35 1897.4 76.65 1895.35 81.3 1893.0720703125 86.311328125 1892 92.05
L 1892.6 92.1
Q 1891.6 99.4 1891.6 99.5
L 1891.7 101.65
Q 1893.3 102.4 1894.5 102.8
L 1891.2 104.2
Q 1891.3681640625 104.1494140625 1891.5 104.1 1895.2 103.15 1898.75 102.95
L 1908.95 103.8
Q 1913.9 104.2 1923.8 104.8 1930.3880859375 105.19609375 1936.95 105.65
L 1936.95 100.8 1897.8 98.5
Q 1899.15 91.55 1899.55 89.9 1900 88.2 1901.35 84.9 1903.75 78.7 1905.35 68.5 1907.4 55.75 1910.05 48.1
L 1913.2 45.4
Q 1915.3 45.3 1916.1 45.3 1916.95 45.3 1919.55 45.45
L 1936.95 46.45 1936.95 41.7 1914.55 40.75 1913.9 37.85 1881.25 35
Q 1879.05 28.8 1881.45 22.5 1909.499609375 15.8716796875 1936.95 18.4 Z" stroke="none" fill="#7E1A34"></path>

<path d="M 1861.65 384.95
Q 1857.15 384.9 1853.65 386.45 1851.95 389.4 1851.5 390.4 1851.1 391.5 1850.25 394.95 1850.3 398.55 1850.5 399.65 1850.7 400.7 1852.1 403.7 1855.65 405.75 1858.35 406.1 1861.05 406.5 1873.6 406.8
L 1881.45 407.05
Q 1891.75 407.65 1902 407.9 1913.8 408.2 1923.25 408.7 1930.76640625 409.020703125 1936.95 409.25
L 1936.95 391
Q 1928.7388671875 390.651171875 1917.5 389.55 1909.55 388.8 1901.75 388.25 1895.15 387.8 1888.45 387.2 1879.45 386.35 1874.95 386.05
L 1869.9 385.7
Q 1863.5 384.95 1861.65 384.95
M 1936.95 231.35
Q 1931.1978515625 231.168359375 1924.75 230.8
L 1916.15 230.4
Q 1914.85 230.3 1892.8 228.8 1875.65 227.6 1875.4 227.95 1872.15 239.3 1874.85 247.05 1878.4 249.4 1880.4 249.8 1882.3 250.15 1890.4 250.2 1892.35 250.1 1896.15 250.2 1904.5 250.5 1911.2 250.6 1916.3 250.6 1926.75 250.9 1932.8755859375 251.109765625 1936.95 251.2
L 1936.95 231.35 Z" stroke="none" fill="#9DAEEA"></path>

<path d="M 1890.8 165.8
Q 1896.5 168.25 1901.7 168.95 1909.25 169.85 1917.2 173.05 1925.5 176.7 1930.05 176.75 1932.0697265625 176.794921875 1936.95 176.2
L 1936.95 154.95
Q 1932.65234375 154.7337890625 1928.35 154.5
L 1881.1 151.55
Q 1876.75 151.15 1872.75 151.75 1872 153.8 1871.9 154.5 1871.85 155.25 1872.2 157.5
L 1875.8 159.25 1880.6 160.8
Q 1887 164.3 1890.8 165.8 Z" stroke="none" fill="#992A3F"></path>

<path d="M 1890.35 122.65
Q 1889.65 122.6 1888.95 122.6 1888.35 122.55 1887.7 122.5 1887.2 122.5 1886.65 122.45 1886.2 122.45 1885.7 122.4 1885.3 122.4 1885 122.35 1884.65 122.35 1884.35 122.35 1884.1 122.3 1883.95 122.3 1883.75 122.3 1883.6 122.3 1882.7 122.4 1881.9 122.5 1881.05 122.6 1880.2 122.8 1879.799609375 122.9251953125 1879.4 123.05
L 1878.2 123 1877.15 123.95 1877.1 124.1
Q 1876.6916015625 125.37578125 1876.25 126.75 1875.55 129.4 1874.9 132.15 1874.55 133.5 1874.4 134.85 1874.15 136.3 1874.1 137.75 1873.95 139.15 1873.95 140.55 1873.9 142 1873.95 143.5 1874 144.95 1874.15 146.35 1874.2 146.8 1874.35 147.2 1874.4 147.45 1874.55 147.75 1874.65 147.9 1874.7 148.1 1874.75 148.15 1874.8 148.25 1874.9 148.35 1875.05 148.45 1875.15 148.55 1875.3 148.65 1875.5 148.75 1875.75 148.95 1876 149.1 1876.3 149.15 1877 149.6 1877.75 149.9
L 1912.45 151.85
Q 1917.9 152 1923.35 152.2 1925.95 152.3 1928.6 152.5 1931.2 152.65 1933.8 152.8 1935.3673828125 152.9099609375 1936.95 153.05
L 1936.95 125.65 1890.35 122.65 Z" stroke="none" fill="#110F1A"></path>

<path d="M 1858.55 134.05
Q 1858.15 136.55 1857.6 142.6
L 1854 179.1
Q 1852.8 191.65 1850.7 209 1848.15 230.7 1842.3 287.45
L 1834.75 360.2
Q 1834.4 364.25 1833.5 372.35
L 1829.75 410.45
Q 1829.35 415 1830.05 418.85 1830.75 422.3 1832.65 426.75 1834.45 429.5 1835.95 430.65 1837.45 432 1840.45 433.05 1849.05 435.4 1861.55 436.3 1868.75 436.8 1883.05 437.4
L 1936.95 440.4 1936.95 409.25
Q 1930.76640625 409.020703125 1923.25 408.7 1913.8 408.2 1902 407.9 1891.75 407.65 1881.45 407.05
L 1873.6 406.8
Q 1861.05 406.5 1858.35 406.1 1855.65 405.75 1852.1 403.7 1850.7 400.7 1850.5 399.65 1850.3 398.55 1850.25 394.95 1851.1 391.5 1851.5 390.4 1851.95 389.4 1853.65 386.45 1857.15 384.9 1861.65 384.95 1863.5 384.95 1869.9 385.7
L 1874.95 386.05
Q 1879.45 386.35 1888.45 387.2 1895.15 387.8 1901.75 388.25 1909.55 388.8 1917.5 389.55 1928.7388671875 390.651171875 1936.95 391
L 1936.95 251.2
Q 1932.8755859375 251.109765625 1926.75 250.9 1916.3 250.6 1911.2 250.6 1904.5 250.5 1896.15 250.2 1892.35 250.1 1890.4 250.2 1882.3 250.15 1880.4 249.8 1878.4 249.4 1874.85 247.05 1872.15 239.3 1875.4 227.95 1875.65 227.6 1892.8 228.8 1914.85 230.3 1916.15 230.4
L 1924.75 230.8
Q 1931.1978515625 231.168359375 1936.95 231.35
L 1936.95 176.2
Q 1932.0697265625 176.794921875 1930.05 176.75 1925.5 176.7 1917.2 173.05 1909.25 169.85 1901.7 168.95 1896.5 168.25 1890.8 165.8 1887 164.3 1880.6 160.8
L 1875.8 159.25 1872.2 157.5
Q 1871.85 155.25 1871.9 154.5 1872 153.8 1872.75 151.75 1876.75 151.15 1881.1 151.55
L 1928.35 154.5
Q 1932.65234375 154.7337890625 1936.95 154.95
L 1936.95 153.05
Q 1935.3673828125 152.9099609375 1933.8 152.8 1931.2 152.65 1928.6 152.5 1925.95 152.3 1923.35 152.2 1917.9 152 1912.45 151.85
L 1877.75 149.9
Q 1877 149.6 1876.3 149.15 1876 149.1 1875.75 148.95 1875.5 148.75 1875.3 148.65 1875.15 148.55 1875.05 148.45 1874.9 148.35 1874.8 148.25 1874.75 148.15 1874.7 148.1 1874.65 147.9 1874.55 147.75 1874.4 147.45 1874.35 147.2 1874.2 146.8 1874.15 146.35 1874 144.95 1873.95 143.5 1873.9 142 1873.95 140.55 1873.95 139.15 1874.1 137.75 1874.15 136.3 1874.4 134.85 1874.55 133.5 1874.9 132.15 1875.55 129.4 1876.25 126.75 1876.6916015625 125.37578125 1877.1 124.1
L 1877.15 123.95 1878.2 123 1879.4 123.05
Q 1879.799609375 122.9251953125 1880.2 122.8 1881.05 122.6 1881.9 122.5 1882.7 122.4 1883.6 122.3 1883.75 122.3 1883.95 122.3 1884.1 122.3 1884.35 122.35 1884.65 122.35 1885 122.35 1885.3 122.4 1885.7 122.4 1886.2 122.45 1886.65 122.45 1887.2 122.5 1887.7 122.5 1888.35 122.55 1888.95 122.6 1889.65 122.6 1890.35 122.65
L 1936.95 125.65 1936.95 105.65
Q 1930.3880859375 105.19609375 1923.8 104.8 1913.9 104.2 1908.95 103.8
L 1898.75 102.95
Q 1895.2 103.15 1891.5 104.1 1891.3681640625 104.1494140625 1891.2 104.2
L 1891.1 104.25
Q 1878.95 109.25 1875.35 111.65 1871.85 114.05 1862.75 123.2
L 1860.95 125.8
Q 1859.3 129.5 1858.55 134.05 Z" stroke="none" fill="#F5F7F9"></path>

<path d="M 1913.2 45.4
L 1910.05 48.1
Q 1907.4 55.75 1905.35 68.5 1903.75 78.7 1901.35 84.9 1900 88.2 1899.55 89.9 1899.15 91.55 1897.8 98.5
L 1936.95 100.8 1936.95 46.45 1919.55 45.45
Q 1916.95 45.3 1916.1 45.3 1915.3 45.3 1913.2 45.4 Z" stroke="none" fill="#E21F2D"></path>

<path d="M 1913.9 37.85
L 1914.55 40.75 1936.95 41.7 1936.95 18.4
Q 1909.499609375 15.8716796875 1881.45 22.5 1879.05 28.8 1881.25 35
L 1913.9 37.85 Z" stroke="none" fill="#DF202E"></path>
</g>
</g>
</g>
</g>

<g transform="matrix( 0.3621063232421875, 0, 0, 0.3621063232421875, -594.2,0.1)" id="MergedLayer_1">
<g>
<g>
<g>
<path d="M 1891.35 468.65
L 1888.15 463.9
Q 1886.75 461.75 1885.55 461.2 1884.6 460.75 1882.5 460.75
L 1877.45 460.7
Q 1875.85 460.7 1875.25 461.25 1874.6 461.85 1874.5 463.5 1874.15 468.7 1874.3 471.5 1874.5 475.95 1875.75 479.25 1877.1 482.7 1880.65 486.9 1883.9 490.65 1886.6 491.65 1888.35 492.3 1891.7 492.4 1896.05 492.5 1898.2 491.65 1899.65 491.1 1901.2 489.95 1902.15 489.25 1903.9 487.7
L 1919.1 474.05
Q 1926.7 467.2 1932.4 462.35 1935.1091796875 460.0349609375 1936.95 458.45
L 1936.95 445.15
Q 1935.82578125 446.47421875 1934.5 447.8 1932.5 449.75 1928.6 453.1
L 1896.1 481.35
Q 1895 479.5 1894.45 477.25 1894.15 474.5 1893.75 473.2 1893.25 471.55 1891.35 468.65
M 1936.95 216.9
Q 1934.2798828125 218.318359375 1931.9 219.75 1924.05 224.4 1920.3 229.05 1918.8 230.8 1918.35 232.5 1918 233.65 1918.1 235.6 1918.15 238.15 1918.1 238.8 1919.05 238.55 1921.55 238.85 1923.7 239.15 1924.8 238.6 1925.55 238.2 1926.7 236.6 1930.31015625 231.8412109375 1936.95 227.5
L 1936.95 216.9
M 1780.35 371.1
Q 1780.25 370.85 1780.15 370.65 1779.65 369.7 1778.9 368.95 1778.6 366.35 1776.9 363.8 1775.5 361.65 1773.8 361.1 1772.9 360.75 1771.05 360.75
L 1767.05 360.65
Q 1764.05 360.65 1762.75 361.25 1760.3 362.35 1759.4 365.55 1758.9 367.25 1758.9 371.2
L 1759.05 382.4
Q 1759.05 383.95 1759.65 384.5 1760.15 384.9 1761.2 385 1761.5 385.05 1761.85 385.1 1762.15 387.35 1763.05 388.5 1764.45 390.3 1767.6 390.45 1771.4 390.25 1773.15 390.2 1776.2 390.1 1780 391.15 1781.55 391.6 1786.7 393.4 1801 398.4 1824.2 402.05 1857.1 407.2 1862.35 408.3 1874.45 410.85 1892.35 416.35 1920.1 424.85 1922.1 425.4 1930.0287109375 427.658203125 1936.95 429.2
L 1936.95 415.35
Q 1936.7013671875 415.3482421875 1936.45 415.35 1931.65 415.35 1923.4 414.05 1918.4 413.25 1914.15 412.4 1913.65 412.05 1912.8 411.65 1910.25 410.45 1907.6 408.2 1904.3 405.55 1900.6 401.65 1898.55 399.45 1894.2 394.45 1889.9 389.45 1888.1 386.8 1885.65 383.25 1882.2 376.3 1879.55 370.95 1878.45 368.15 1876.7 363.5 1876.35 359.55
L 1874.8 359.55 1874.8 359.5
Q 1875.1 358.25 1875.9 357.3 1876.75 356.3 1877.9 356 1879.85 355.55 1882.9 357.7 1887.5 361 1895.75 368.7 1904 376.4 1908.55 379.65 1913.95 383.55 1923.8 388.45 1929.5 391.2 1933.5 392.7 1935.257421875 393.3734375 1936.95 393.9
L 1936.95 332.4
Q 1936.21328125 332.4150390625 1935.45 332.4
L 1924.05 332.25
Q 1916.85 332.15 1912.95 331.45 1906.85 330.35 1902.95 327.3 1901.2 325.95 1899.4 323.8 1898.35 322.5 1896.4 319.75 1894.6 317.15 1894.25 315.8 1893.9 314.35 1894.15 311.65 1894.25 310.3 1894.3 309.35 1905.15 308.7 1912.55 308.35 1925.397265625 307.7140625 1936.95 307.3
L 1936.95 300.15
Q 1925.444921875 300.484765625 1912.9 301.05
L 1912.9 297.5
Q 1912.9 296 1912.4 295.45
L 1912.4 295.2
Q 1912.4 294.75 1912.3 294.55 1912.15 294.3 1911.4 294 1910.75 293.8 1910.75 293.3 1909.1 293.25 1908.2 291.5 1907.65 290.45 1907.55 290.3 1906.8 289.65 1906.45 289.3 1906.3 289.15 1905.5 287.8 1904.85 286.55 1903.6 285.55 1902.1 284.45 1901.95 284.3 1902.85 283.7 1903.5 283.2 1905.2 281.7 1907.5 278.4
L 1909.95 274.85
Q 1911.2 273.15 1911.6 272.1 1912.3 270.35 1912.2 266.9
L 1912.1 257.7
Q 1903.85 255.85 1894.6 255.05 1891.8 254.85 1890.45 254.55 1887.35 253.5 1885.8 253.05 1883.45 252.3 1879.3 251.85 1870.55 250.85 1863.15 250.8
L 1863.15 249.7
Q 1862.55 249.75 1859.95 249.6 1859.75 249.6 1859.6 249.6
L 1859.6 249.4
Q 1859.6 248.2 1859.4 247.6 1859.3 247.35 1858.55 245.95 1858 244.4 1857.65 243.65 1857.15 242.45 1855.75 240.7
L 1852.1 235.9
Q 1849.95 233.2 1849.15 231.45 1848.75 230.45 1848.45 230.1 1848.05 229.65 1847.9 229.45 1847.85 229.35 1847.5 228.45 1847.3 227.8 1846.95 227.6 1846.85 227.55 1846.05 227.4
L 1839.5 227.35 1839.5 234.1
Q 1840.15 234.1 1840.45 234.9 1840.65 235.3 1840.95 236.15
L 1841.5 236.85
Q 1841.65 237.05 1842.6 238.8 1843.3 240.2 1845.25 242.8
L 1848.6 247.2
Q 1851.1 250.4 1851.6 252.4 1851.85 253.3 1851.95 253.5 1851.95 253.55 1852 253.6 1851.15 254.95 1850.75 256.65 1850.25 258.7 1850.25 261.45 1850.25 261.95 1850.45 266.3 1850.55 268.25 1850.6 272.15 1850.75 275.55 1851.2 277.9 1852.45 284.6 1856.65 287.9 1859.35 290 1863.55 290.65 1866.3 291.1 1871.25 291.05
L 1876.7 291
Q 1880.6 291 1882.85 290.85 1886.25 290.65 1888.9 290.05 1891.45 289.45 1894.4 288.25
L 1894.4 288.85
Q 1894.4 290 1894.65 290.5 1894.9 291.1 1895.6 291.6 1896.05 291.9 1896.85 292.5 1897.6 293.1 1898.45 294.4 1899.45 295.95 1899.85 296.4 1900.7 297.25 1900.9 297.6 1901 297.8 1901.15 298.25 1901.35 298.6 1901.55 298.8
L 1902.15 299.25 1902.55 299.75
Q 1902.9 300.05 1903.9 300.15 1904 300.75 1904.75 301.05 1904.8 301.05 1904.85 301.1 1904.85 301.25 1904.9 301.45 1887.7 302.3 1860.25 304 1857.45 304.15 1855.8 304.65 1853.45 305.3 1852.3 306.9 1851.05 308.6 1850.95 312.45 1850.3 332.3 1852.3 348.8 1854.6 368 1860.65 384 1862.85 389.8 1864.9 393.3 1867.55 397.9 1871.45 401.85 1870.6 401.65 1869.8 401.5 1864.4 400.35 1830.15 395.1 1806 391.4 1791.25 386 1787.95 384.8 1786 383.55 1783.3 381.75 1782.3 379.4 1782.1 378.95 1781.95 378.35 1794 377.7 1806 379.3 1810.45 379.95 1819.35 381.35 1827.05 382.3 1832.7 381.6
L 1832.7 375.05
Q 1828.15 374.95 1821.45 373.9 1813.95 372.65 1810.15 372.15 1803.25 371.25 1794.55 371.05 1789.7 370.95 1780.35 371.1
M 1864.1 444.4
Q 1863.9 440.5 1864.05 439.55
L 1857.25 439.4
Q 1857.9 441.6 1855 444.2 1853.4 445.65 1850.15 447.9 1846.7 450.35 1845.25 451.55 1843.6 452.95 1840.45 456.15 1837.35 459.3 1835.6 460.75 1833.6 462.35 1828.7 465.4 1825 467.65 1823.05 468.65 1819.8 470.3 1817 471
L 1817 469.7
Q 1813.4 468.55 1809.95 465.55 1807.5 463.4 1804.2 459.4 1802.5 457.4 1801.5 456.8 1799.7 455.75 1796.15 455.95 1791.8 456.25 1790.45 455.95 1790.55 457.2 1790.45 459.15 1790.25 461.65 1790.25 462.35 1790.15 466.35 1792.1 468.35 1792.95 469.25 1794.55 470.15
L 1806.85 477.5
Q 1810.45 479.6 1812.45 480.05 1815.55 480.75 1819.8 479.6 1825.35 478.1 1833.7 473.25 1839.35 470.05 1842.35 467.5 1843.95 466.2 1846.55 463.55 1849.4 460.7 1850.7 459.55 1853.5 457 1859.6 452.8 1862.6 450.7 1863.45 449 1864.25 447.35 1864.1 444.4 Z" stroke="none" fill="#000000"></path>

<path d="M 1882.9 357.7
Q 1879.85 355.55 1877.9 356 1876.75 356.3 1875.9 357.3 1875.1 358.25 1874.8 359.5
L 1874.8 359.55 1876.35 359.55
Q 1876.7 363.5 1878.45 368.15 1879.55 370.95 1882.2 376.3 1885.65 383.25 1888.1 386.8 1889.9 389.45 1894.2 394.45 1898.55 399.45 1900.6 401.65 1904.3 405.55 1907.6 408.2 1910.25 410.45 1912.8 411.65 1913.65 412.05 1914.15 412.4 1918.4 413.25 1923.4 414.05 1931.65 415.35 1936.45 415.35 1936.7013671875 415.3482421875 1936.95 415.35
L 1936.95 393.9
Q 1935.257421875 393.3734375 1933.5 392.7 1929.5 391.2 1923.8 388.45 1913.95 383.55 1908.55 379.65 1904 376.4 1895.75 368.7 1887.5 361 1882.9 357.7
M 1924.05 332.25
L 1935.45 332.4
Q 1936.21328125 332.4150390625 1936.95 332.4
L 1936.95 307.3
Q 1925.397265625 307.7140625 1912.55 308.35 1905.15 308.7 1894.3 309.35 1894.25 310.3 1894.15 311.65 1893.9 314.35 1894.25 315.8 1894.6 317.15 1896.4 319.75 1898.35 322.5 1899.4 323.8 1901.2 325.95 1902.95 327.3 1906.85 330.35 1912.95 331.45 1916.85 332.15 1924.05 332.25 Z" stroke="none" fill="#FFFFFF"></path>
</g>
</g>
</g>
</g>
</g>
</svg>
