
<svg viewBox="0 0 128 116" height="116px" width="128px" y="0px" x="0px" preserveAspectRatio="none" xmlns:xlink="http://www.w3.org/1999/xlink" version="1.1" xmlns="http://www.w3.org/2000/svg">
<defs></defs>

<g id="Layer_1"></g>

<g id="Layer_2">
<g transform="matrix( 1, 0, 0, 1, 4.1,73.4)" id="Layer_2">
<g>
<g>
<g>
<path d="M 73.9 -70.15
Q 65.85 -70.75 57.75 -70.4 51.9 -70.25 45.95 -69.85 40.9 -69.5 35.95 -68.9 29.3 -68.1 23.8 -64.65 23.35 -64.4 23.15 -63.95 21.65 -60.4 23.25 -56.55 24.4294921875 -53.7794921875 25.85 -51.15 22.3263671875 -51.4072265625 18.7 -50.9 8.8 -49.5 -0.2 -45 -1.1 -44.55 -1.55 -43.7 -3.65 -40 -2.9 -35.5 -2.45 -32.6 -1.55 -29.8 -0.3 -25.7 2 -22 2.75 -20.7 3.65 -19.55 5.2326171875 -17.4876953125 7.05 -15.7 3.21484375 -15.3123046875 -0.05 -13.4 -0.8 -12.95 -0.85 -12.15 -1.2 -6.55 0.35 -1.1 1.5 3.1 3.9 6.8 6.35 10.55 9.9 13.25 10.4830078125 13.6873046875 11.05 14.1 7.1248046875 14.2990234375 3.25 15.3 1.55 15.75 1.5 17.35 1.45 19.2 3 20.55 4.75 22.15 6.65 23.65 10.75 26.95 15.65 29.1 23.65 32.65 32.2 34.1 32.6169921875 34.1892578125 33 34.2 36.584765625 36.559375 40.6 38.25 46.9 40.85 53.65 41.8 60.15 42.7 66.7 41.9 73.4 41.1 79.85 39 80.1853515625 38.8802734375 80.5 38.75 82.4677734375 39.0833984375 84.45 38.6 93.6 36.3 102.35 32.75 104.75 31.75 107.1 30.75 112.4 28.45 115.45 23.7 116.05 22.75 115.5 21.75 113.65 18.5 109.6 18.5 111.7 16.25 113.5 13.7 117.45 8.1 119.05 1.5 119.25 0.7 118.95 -0.05 117.1 -5.1 111.8 -7.25 111.33671875 -7.4396484375 110.85 -7.65 111.951171875 -8.5263671875 112.85 -9.65 115.05 -12.45 116.5 -15.65 118.65 -20.25 120.15 -25.15 122.05 -31.25 121.1 -37.55 121 -38.4 120.45 -39 117.35 -42.35 112.7 -43.35 104.45 -45.2 95.95 -45.6 92.1943359375 -45.32578125 88.6 -44.4 88.8439453125 -44.787890625 89.05 -45.2 92.8 -53 92.6 -61.55 92.5 -65.7 88.6 -67.1 81.5 -69.6 73.9 -70.15
M 28.95 -53.9
Q 27.05 -56.75 26.3 -60.2 26.15 -60.95 26.2 -61.8 30.75 -64.05 35.8 -64.8 43.55 -65.9 51.35 -66.45 68.45 -67.7 85 -64.25 86.85 -63.9 88.25 -62.9 88.55 -61.3 88.45 -59.75 88.2830078125 -55.6712890625 87.2 -51.85 85.8263671875 -52.24296875 84.2 -52.05 83.95 -52 83.6 -52 61.75 -51.75 39.85 -50.95 36.35 -50.8 33.05 -49.95 32.8466796875 -49.8978515625 32.65 -49.85 32.6263671875 -49.841796875 32.6 -49.85 31.7908203125 -50.095703125 30.95 -50.3 30.1080078125 -52.149609375 28.95 -53.9
M 36.8 -43.1
Q 37.0599609375 -42.9150390625 37.3 -42.8 36.7966796875 -42.2669921875 36.4 -41.65 34.75 -38.95 38.05 -38.1 35 -37.05 32.65 -34.9 30.95 -33.35 29.9 -31.35 28.1 -28 28.65 -24.2 28.8791015625 -22.6287109375 29.45 -21.2 27.4826171875 -20.291015625 25.9 -18.55 24.35 -16.9 23.3 -14.9 23.1560546875 -14.6408203125 23 -14.4 18.872265625 -16.1068359375 14.2 -16.15 13.4728515625 -16.11640625 12.75 -16.1 12.6802734375 -16.5314453125 12.45 -16.9 12.35 -17 12.3 -17.1 9.9 -18.75 7.75 -20.7 6.2 -22.1 5.15 -23.95 2.1 -29.2 1.2 -35.25 0.75 -38.2 1.3 -41.2 3.15 -42.5 5.2 -43.35 16.05 -47.8 27.75 -46.55 28.208203125 -46.4990234375 28.65 -46.45 29.56796875 -45.319140625 30.65 -45.55 31.4498046875 -44.9978515625 32.4 -45.45 34.709765625 -44.578515625 36.8 -43.1
M 40.4 -45.3
Q 39.4611328125 -46.2244140625 38.35 -47.05 41.17265625 -47.289453125 43.95 -47.4 42.1390625 -46.4728515625 40.4 -45.3
M 32.7 -27.45
Q 32.8 -28.8 33.65 -29.9 34.85 -31.45 36.35 -32.85 39.1 -34.35 42.05 -35.25 42.5 -35.4 42.95 -35.35 45.4 -35.25 46.25 -37.25 46.5 -37.8 46.15 -38.2 44.35 -40.4 41.75 -41.35 46.7 -45 52.75 -46.15 59.5 -47.45 66.2 -46.15 70.1 -45.35 73.1 -42.8 76.5 -39.95 78.95 -36.4 80.5 -34.1 82.3 -36.15 82.6 -36.55 82.45 -37 82.2375 -37.656640625 81.95 -38.3 91.5541015625 -42.35078125 102 -41.2 104.4 -40.9 106.8 -40.65 112.8 -40 117.45 -36.6 117.9 -33.6 117.25 -30.7 116 -24.5 113.6 -18.65 112.2 -15.1 110 -12 108.45 -10.3 106.5 -9.1 106.39609375 -9.03828125 106.3 -9 102.49921875 -9.8076171875 98.5 -9.75 97.65 -9.7 96.7 -9.65 96.4255859375 -9.628125 96.15 -9.6 95.8666015625 -10.7169921875 95.45 -11.85 93.45 -17.3 88.4 -20.4 83.45 -23.45 77.6 -23 75.2 -22.75 72.8 -22.05 67.25 -20.35 63.45 -16 62.9533203125 -15.4171875 62.5 -14.8 62.3880859375 -15.206640625 62.1 -15.65 61.75 -16.2 61.1 -16.15 55.15 -15.7 50.05 -12.4 46.7 -10.2 43.55 -8 41.85 -9.65 40.5 -11.55 39.35 -13.15 39.3 -15.1 39.25 -16.3 39.65 -17.4 40.45 -18.85 41.8 -19.8 44.15 -21.4 42.7 -23.55 42.35 -24.1 41.7 -24.1 37.45 -23.95 33.85 -21.5 32.4 -24.25 32.7 -27.45
M 3.75 -3.85
Q 3.1 -7.2 2.9 -10.55 3 -10.6 3.1 -10.65 9.6 -12.65 16.5 -11.95 17.35 -11.85 18.2 -11.65 19.9 -11.25 21.55 -10.9 21.5814453125 -10.8927734375 21.6 -10.9 20.9541015625 -8.6423828125 20.85 -6.25 20.55 -0.65 22.8 4.4 24.2 7.6 26.95 9.8 30.1130859375 12.343359375 33.65 13.7 31.6841796875 14.426953125 30.95 16.4 29.9 19.25 32.15 21.3 34.050390625 23.0193359375 36.55 23.45 38.617578125 28.761328125 42.85 32.6 44.30078125 34.7923828125 46.6 35.9 46.1759765625 35.7564453125 45.75 35.6 40.314453125 33.646484375 35.15 31.2 34.8876953125 30.7830078125 34.4 30.65 33.96796875 30.559375 33.55 30.45 33.419140625 30.408203125 33.3 30.35 33.2095703125 30.3595703125 33.1 30.35 28.5404296875 29.3427734375 24.15 27.85 19.45 26.25 14.9 24.3 10.25 22.3 6.9 18.55 11.05 18.05 15.3 18.15 16.25 18.15 17.15 18 18.25 17.75 18.35 16.65 18.51171875 15.114453125 17.65 14.5 17.8138671875 13.834375 17.25 13.2 16.05 11.9 14.3 11.15 10.9 9.75 8.75 6.8 6.45 3.7 4.95 0.15 4.15 -1.8 3.75 -3.85
M 31.05 -17.35
Q 31.2435546875 -17.468359375 31.4 -17.6 32.5888671875 -16.5216796875 34.2 -17.2 34.9 -17.5 35.6 -17.75 34.9 -15.4 35.55 -13.05 36.718359375 -9.1279296875 39.5 -6.2 38.5576171875 -5.2423828125 38.6 -3.8 38.65 -2.15 38.9 -0.5 39.25 2.35 42.15 2.6 42.65 2.65 43.05 2.3 44.9 0.45 45.15 -2.3 45.238671875 -3.1267578125 45.15 -3.95 46.035546875 -4.3744140625 46.85 -5.4 49.5 -7.25 52.35 -8.9 53.6689453125 -9.6953125 55.05 -10.35 55.4078125 -9.4876953125 55.85 -8.65 56.65 -5.55 56.7 -2.4 56.75 3.5 52.55 7.7 51.9 8.3 51.15 8.8 46.35 11.9 40.5 11.25 35.45 10.7 31.2 8.15 27.95 6.2 26.45 2.75 24.2 -2.55 25 -8.25 25.9 -14.15 31.05 -17.35
M 80.35 -41.2
Q 79.674609375 -42.2396484375 78.8 -43.2 76.2 -46 72.85 -47.8 78.680078125 -47.9076171875 84.5 -48.05 85.1322265625 -47.8966796875 85.75 -47.85 84.88125 -45.7501953125 83.7 -43.75 83.38515625 -43.177734375 83.45 -42.65 81.9013671875 -41.9876953125 80.35 -41.2
M 59.7 -9.6
Q 59.3044921875 -10.7396484375 58.7 -11.8 59.0951171875 -11.93125 59.5 -12.05 60.303515625 -12.2732421875 61.05 -12.6 60.2787109375 -11.14765625 59.7 -9.6
M 62.6 -4.3
Q 63.15 -10.1 67.35 -14.2 71.5 -18.2 77.35 -19 82.5 -19.5 86.75 -16.75 88.75 -15.45 90.1 -13.45 91.6 -11.2 92.35 -8.6 92.8 -7 93 -5.35 93.55 0.4 91.1 5.65 89.55 8.95 86.45 10.8 80.6 14.3 73.65 12.95 70.9 12.45 68.55 10.8 66.6 8.8 65.1 6.45 62 1.5 62.6 -4.3
M 97 -4.9
Q 96.978125 -5.1583984375 96.95 -5.45 97.0994140625 -5.426171875 97.25 -5.45 102.45 -6.05 107.55 -4.6 112.25 -3.25 115.1 0.5 115.1 0.55 115.1 0.6 115.1 0.7 115.1 0.75 115.05 0.8 115.05 0.85 115.05 0.9 115.05 0.95 114.75 2.1 114.35 3.25 112.55 8.75 108.95 13.3 106.75 16.1 103.95 18.35 101.6 19.7 102.9 21.85 103.2 22.3 103.65 22.3 107.5 22.15 111.15 22.95 111 23.25 110.7 23.5 107.6 26.05 103.9 27.8 94.6 32.2 84.55 34.3 83.9201171875 34.4453125 83.25 34.55 81.927734375 33.4083984375 80.1 34.3 76.5 36.15 72.5 37.05 68.025390625 38.0255859375 63.45 38.2 64.15390625 38.0740234375 64.85 37.9 66.9 37.35 68.75 36.4 75 33.3 78.1 27.15 78.45 26.55 78.5 25.9 78.5166015625 25.638671875 78.5 25.4 80.1734375 25.1234375 81.85 24.65 84.6 23.85 84.7 21.15 84.8 18.1 81.8 17.4 81.1 17.25 80.45 17.55 77.9 18.8 79.7 20.95 72.65 22.75 65.7 20.65 63.1 19.85 60.7 18.6 60.435546875 18.4548828125 60.15 18.35 60.3806640625 18.3296875 60.6 18.3 61.65 18.15 62.7 18 65.85 17.65 65.25 14.85 65.1 14.4 64.7 14.25 59.9 12.35 54.6 12.55 54.15 12.6 53.65 12.7 52.65 12.95 52.3 13.9 51.55 15.8 53.5 16.6 54.3 16.9 55.1 17.3 56.26875 17.9416015625 57.5 18.2 57.4361328125 18.2259765625 57.35 18.25 50 20.3 42.3 20 42.05 20 41.85 20 37.65 20.55 34.55 18.2 34.55 18.15 34.55 18.05 34.55 18 34.6 17.95 34.6 17.9 34.6 17.85 35.2 17.45 35.9 17.3 36.65 17.15 37.05 16.45 37.569140625 15.5078125 37.45 14.8 40.5724609375 15.4583984375 43.95 15.3 47.9 15.1 51.45 13.35 54.95 11.55 57.3 8.4 58.80234375 6.3740234375 59.65 4.1 59.819921875 4.5912109375 60 5.05 62.1 10.35 66.35 14.25 66.7 14.6 67.05 14.95 68.6 16.45 70.55 16.75 74.55 17.35 78.7 17.3 83.85 17.2 88.2 14.6 93.2 11.55 95.35 6.1 97.45 0.8 97 -4.9
M 63.15 24.05
Q 64.01953125 24.341015625 64.9 24.6 67.3310546875 25.3048828125 69.75 25.6 67.9044921875 26.95234375 65.8 27.8 64.204296875 26.1130859375 63.15 24.05
M 44.4 24
Q 47.2970703125 23.9490234375 50.2 23.55 50.416796875 23.5205078125 50.6 23.5 49.111328125 24.7712890625 47.55 26 47.45 26 47.35 26 45.834765625 25.0701171875 44.4 24
M 77.1 -9.3
Q 76.65 -9.3 76.2 -9 75.75 -8.75 75.55 -8.35 74.95 -7.1 74.65 -5.75 73.5 -0.3 74.05 5.3 74.15 6.25 75.05 6.6 77.55 7.6 77.95 5.05 78.7 3.85 78.8 2.4 78.9 1.1 79.1 -0.25 79.5 -2.9 79.6 -5.6 79.65 -8.5 77.1 -9.3
M 113 -33.45
Q 113.05 -34.4 112.35 -34.95 110.35 -36.75 107.45 -36.05 100.3 -35.6 93.8 -32.2 92.25 -31.4 91.2 -30.05 90.4 -29 90.8 -27.7 92.65 -22.55 95.6 -17.85 96 -16.2 97.65 -15.3 100.25 -13.9 103.4 -13.75 103.65 -13.75 103.85 -13.9 107.25 -17.35 109.7 -21.7 112.8 -27.25 113 -33.45
M 109.15 -31.95
Q 109.15 -31.9 109.15 -31.8 107.95 -26.65 105.2 -22.05 103.85 -19.85 102.3 -17.95 100.6 -18.15 99.5 -19.45 97.55 -21.85 96.15 -24.6 95.3 -26.3 94.6 -28 96 -29.15 97.7 -29.85 102.35 -31.7 107.25 -32.05 108.2 -32 109.15 -31.95
M 24.95 -27.25
Q 28.4 -32.6 22.8 -35.2 14.95 -38.85 6.15 -39.4
L 6.15 -39.35
Q 5.9 -39.3 5.65 -39.3 2.9 -37.5 3.2 -34 3.9 -25.4 10.9 -19.9 13.9 -17.55 16.4 -19.5 17.9 -20.35 19.35 -21.35 22.7 -23.75 24.95 -27.25
M 22.1 -31.1
Q 21.95 -30.65 21.75 -30.25 20.25 -27.25 17.95 -24.8 16.05 -23.95 14.25 -23 11.5 -24.4 9.75 -27.05 9.65 -27.35 9.5 -27.6 8.8 -28.8 8 -29.9 7.85 -30.55 7.65 -31.15 7.1 -32.8 7.3 -34.6 7.3 -34.65 7.35 -34.75 7.45 -34.95 7.5 -35.1 15.35 -34.8 22.1 -31.1 Z" stroke="none" fill="#000000"></path>

<path d="M 50.2 23.55
Q 47.2970703125 23.9490234375 44.4 24 45.834765625 25.0701171875 47.35 26 47.45 26 47.55 26 49.111328125 24.7712890625 50.6 23.5 50.416796875 23.5205078125 50.2 23.55
M 64.9 24.6
Q 64.01953125 24.341015625 63.15 24.05 64.204296875 26.1130859375 65.8 27.8 67.9044921875 26.95234375 69.75 25.6 67.3310546875 25.3048828125 64.9 24.6
M 67.35 -14.2
Q 63.15 -10.1 62.6 -4.3 62 1.5 65.1 6.45 66.6 8.8 68.55 10.8 70.9 12.45 73.65 12.95 80.6 14.3 86.45 10.8 89.55 8.95 91.1 5.65 93.55 0.4 93 -5.35 92.8 -7 92.35 -8.6 91.6 -11.2 90.1 -13.45 88.75 -15.45 86.75 -16.75 82.5 -19.5 77.35 -19 71.5 -18.2 67.35 -14.2
M 76.2 -9
Q 76.65 -9.3 77.1 -9.3 79.65 -8.5 79.6 -5.6 79.5 -2.9 79.1 -0.25 78.9 1.1 78.8 2.4 78.7 3.85 77.95 5.05 77.55 7.6 75.05 6.6 74.15 6.25 74.05 5.3 73.5 -0.3 74.65 -5.75 74.95 -7.1 75.55 -8.35 75.75 -8.75 76.2 -9
M 31.4 -17.6
Q 31.2435546875 -17.468359375 31.05 -17.35 25.9 -14.15 25 -8.25 24.2 -2.55 26.45 2.75 27.95 6.2 31.2 8.15 35.45 10.7 40.5 11.25 46.35 11.9 51.15 8.8 51.9 8.3 52.55 7.7 56.75 3.5 56.7 -2.4 56.65 -5.55 55.85 -8.65 55.4078125 -9.4876953125 55.05 -10.35 53.6689453125 -9.6953125 52.35 -8.9 49.5 -7.25 46.85 -5.4 46.035546875 -4.3744140625 45.15 -3.95 45.238671875 -3.1267578125 45.15 -2.3 44.9 0.45 43.05 2.3 42.65 2.65 42.15 2.6 39.25 2.35 38.9 -0.5 38.65 -2.15 38.6 -3.8 38.5576171875 -5.2423828125 39.5 -6.2 36.718359375 -9.1279296875 35.55 -13.05 34.9 -15.4 35.6 -17.75 34.9 -17.5 34.2 -17.2 32.5888671875 -16.5216796875 31.4 -17.6 Z" stroke="none" fill="#FFFFFF"></path>

<path d="M 96.95 -5.45
Q 96.978125 -5.1583984375 97 -4.9 97.45 0.8 95.35 6.1 93.2 11.55 88.2 14.6 83.85 17.2 78.7 17.3 74.55 17.35 70.55 16.75 68.6 16.45 67.05 14.95 66.7 14.6 66.35 14.25 62.1 10.35 60 5.05 59.819921875 4.5912109375 59.65 4.1 58.80234375 6.3740234375 57.3 8.4 54.95 11.55 51.45 13.35 47.9 15.1 43.95 15.3 40.5724609375 15.4583984375 37.45 14.8 37.569140625 15.5078125 37.05 16.45 36.65 17.15 35.9 17.3 35.2 17.45 34.6 17.85 34.6 17.9 34.6 17.95 34.55 18 34.55 18.05 34.55 18.15 34.55 18.2 37.65 20.55 41.85 20 42.05 20 42.3 20 50 20.3 57.35 18.25 57.4361328125 18.2259765625 57.5 18.2 56.26875 17.9416015625 55.1 17.3 54.3 16.9 53.5 16.6 51.55 15.8 52.3 13.9 52.65 12.95 53.65 12.7 54.15 12.6 54.6 12.55 59.9 12.35 64.7 14.25 65.1 14.4 65.25 14.85 65.85 17.65 62.7 18 61.65 18.15 60.6 18.3 60.3806640625 18.3296875 60.15 18.35 60.435546875 18.4548828125 60.7 18.6 63.1 19.85 65.7 20.65 72.65 22.75 79.7 20.95 77.9 18.8 80.45 17.55 81.1 17.25 81.8 17.4 84.8 18.1 84.7 21.15 84.6 23.85 81.85 24.65 80.1734375 25.1234375 78.5 25.4 78.5166015625 25.638671875 78.5 25.9 78.45 26.55 78.1 27.15 75 33.3 68.75 36.4 66.9 37.35 64.85 37.9 64.15390625 38.0740234375 63.45 38.2 68.025390625 38.0255859375 72.5 37.05 76.5 36.15 80.1 34.3 81.927734375 33.4083984375 83.25 34.55 83.9201171875 34.4453125 84.55 34.3 94.6 32.2 103.9 27.8 107.6 26.05 110.7 23.5 111 23.25 111.15 22.95 107.5 22.15 103.65 22.3 103.2 22.3 102.9 21.85 101.6 19.7 103.95 18.35 106.75 16.1 108.95 13.3 112.55 8.75 114.35 3.25 114.75 2.1 115.05 0.95 115.05 0.9 115.05 0.85 115.05 0.8 115.1 0.75 115.1 0.7 115.1 0.6 115.1 0.55 115.1 0.5 112.25 -3.25 107.55 -4.6 102.45 -6.05 97.25 -5.45 97.0994140625 -5.426171875 96.95 -5.45
M 58.7 -11.8
Q 59.3044921875 -10.7396484375 59.7 -9.6 60.2787109375 -11.14765625 61.05 -12.6 60.303515625 -12.2732421875 59.5 -12.05 59.0951171875 -11.93125 58.7 -11.8
M 2.9 -10.55
Q 3.1 -7.2 3.75 -3.85 4.15 -1.8 4.95 0.15 6.45 3.7 8.75 6.8 10.9 9.75 14.3 11.15 16.05 11.9 17.25 13.2 17.8138671875 13.834375 17.65 14.5 18.51171875 15.114453125 18.35 16.65 18.25 17.75 17.15 18 16.25 18.15 15.3 18.15 11.05 18.05 6.9 18.55 10.25 22.3 14.9 24.3 19.45 26.25 24.15 27.85 28.5404296875 29.3427734375 33.1 30.35 33.2095703125 30.3595703125 33.3 30.35 33.419140625 30.408203125 33.55 30.45 33.96796875 30.559375 34.4 30.65 34.8876953125 30.7830078125 35.15 31.2 40.314453125 33.646484375 45.75 35.6 46.1759765625 35.7564453125 46.6 35.9 44.30078125 34.7923828125 42.85 32.6 38.617578125 28.761328125 36.55 23.45 34.050390625 23.0193359375 32.15 21.3 29.9 19.25 30.95 16.4 31.6841796875 14.426953125 33.65 13.7 30.1130859375 12.343359375 26.95 9.8 24.2 7.6 22.8 4.4 20.55 -0.65 20.85 -6.25 20.9541015625 -8.6423828125 21.6 -10.9 21.5814453125 -10.8927734375 21.55 -10.9 19.9 -11.25 18.2 -11.65 17.35 -11.85 16.5 -11.95 9.6 -12.65 3.1 -10.65 3 -10.6 2.9 -10.55
M 33.65 -29.9
Q 32.8 -28.8 32.7 -27.45 32.4 -24.25 33.85 -21.5 37.45 -23.95 41.7 -24.1 42.35 -24.1 42.7 -23.55 44.15 -21.4 41.8 -19.8 40.45 -18.85 39.65 -17.4 39.25 -16.3 39.3 -15.1 39.35 -13.15 40.5 -11.55 41.85 -9.65 43.55 -8 46.7 -10.2 50.05 -12.4 55.15 -15.7 61.1 -16.15 61.75 -16.2 62.1 -15.65 62.3880859375 -15.206640625 62.5 -14.8 62.9533203125 -15.4171875 63.45 -16 67.25 -20.35 72.8 -22.05 75.2 -22.75 77.6 -23 83.45 -23.45 88.4 -20.4 93.45 -17.3 95.45 -11.85 95.8666015625 -10.7169921875 96.15 -9.6 96.4255859375 -9.628125 96.7 -9.65 97.65 -9.7 98.5 -9.75 102.49921875 -9.8076171875 106.3 -9 106.39609375 -9.03828125 106.5 -9.1 108.45 -10.3 110 -12 112.2 -15.1 113.6 -18.65 116 -24.5 117.25 -30.7 117.9 -33.6 117.45 -36.6 112.8 -40 106.8 -40.65 104.4 -40.9 102 -41.2 91.5541015625 -42.35078125 81.95 -38.3 82.2375 -37.656640625 82.45 -37 82.6 -36.55 82.3 -36.15 80.5 -34.1 78.95 -36.4 76.5 -39.95 73.1 -42.8 70.1 -45.35 66.2 -46.15 59.5 -47.45 52.75 -46.15 46.7 -45 41.75 -41.35 44.35 -40.4 46.15 -38.2 46.5 -37.8 46.25 -37.25 45.4 -35.25 42.95 -35.35 42.5 -35.4 42.05 -35.25 39.1 -34.35 36.35 -32.85 34.85 -31.45 33.65 -29.9
M 112.35 -34.95
Q 113.05 -34.4 113 -33.45 112.8 -27.25 109.7 -21.7 107.25 -17.35 103.85 -13.9 103.65 -13.75 103.4 -13.75 100.25 -13.9 97.65 -15.3 96 -16.2 95.6 -17.85 92.65 -22.55 90.8 -27.7 90.4 -29 91.2 -30.05 92.25 -31.4 93.8 -32.2 100.3 -35.6 107.45 -36.05 110.35 -36.75 112.35 -34.95
M 37.3 -42.8
Q 37.0599609375 -42.9150390625 36.8 -43.1 34.709765625 -44.578515625 32.4 -45.45 31.4498046875 -44.9978515625 30.65 -45.55 29.56796875 -45.319140625 28.65 -46.45 28.208203125 -46.4990234375 27.75 -46.55 16.05 -47.8 5.2 -43.35 3.15 -42.5 1.3 -41.2 0.75 -38.2 1.2 -35.25 2.1 -29.2 5.15 -23.95 6.2 -22.1 7.75 -20.7 9.9 -18.75 12.3 -17.1 12.35 -17 12.45 -16.9 12.6802734375 -16.5314453125 12.75 -16.1 13.4728515625 -16.11640625 14.2 -16.15 18.872265625 -16.1068359375 23 -14.4 23.1560546875 -14.6408203125 23.3 -14.9 24.35 -16.9 25.9 -18.55 27.4826171875 -20.291015625 29.45 -21.2 28.8791015625 -22.6287109375 28.65 -24.2 28.1 -28 29.9 -31.35 30.95 -33.35 32.65 -34.9 35 -37.05 38.05 -38.1 34.75 -38.95 36.4 -41.65 36.7966796875 -42.2669921875 37.3 -42.8
M 22.8 -35.2
Q 28.4 -32.6 24.95 -27.25 22.7 -23.75 19.35 -21.35 17.9 -20.35 16.4 -19.5 13.9 -17.55 10.9 -19.9 3.9 -25.4 3.2 -34 2.9 -37.5 5.65 -39.3 5.9 -39.3 6.15 -39.35
L 6.15 -39.4
Q 14.95 -38.85 22.8 -35.2 Z" stroke="none" fill="#53545E"></path>

<path d="M 78.8 -43.2
Q 79.674609375 -42.2396484375 80.35 -41.2 81.9013671875 -41.9876953125 83.45 -42.65 83.38515625 -43.177734375 83.7 -43.75 84.88125 -45.7501953125 85.75 -47.85 85.1322265625 -47.8966796875 84.5 -48.05 78.680078125 -47.9076171875 72.85 -47.8 76.2 -46 78.8 -43.2
M 38.35 -47.05
Q 39.4611328125 -46.2244140625 40.4 -45.3 42.1390625 -46.4728515625 43.95 -47.4 41.17265625 -47.289453125 38.35 -47.05 Z" stroke="none" fill="#626696"></path>

<path d="M 109.15 -31.8
Q 109.15 -31.9 109.15 -31.95 108.2 -32 107.25 -32.05 102.35 -31.7 97.7 -29.85 96 -29.15 94.6 -28 95.3 -26.3 96.15 -24.6 97.55 -21.85 99.5 -19.45 100.6 -18.15 102.3 -17.95 103.85 -19.85 105.2 -22.05 107.95 -26.65 109.15 -31.8
M 21.75 -30.25
Q 21.95 -30.65 22.1 -31.1 15.35 -34.8 7.5 -35.1 7.45 -34.95 7.35 -34.75 7.3 -34.65 7.3 -34.6 7.1 -32.8 7.65 -31.15 7.85 -30.55 8 -29.9 8.8 -28.8 9.5 -27.6 9.65 -27.35 9.75 -27.05 11.5 -24.4 14.25 -23 16.05 -23.95 17.95 -24.8 20.25 -27.25 21.75 -30.25 Z" stroke="none" fill="#9B6C6F"></path>

<path d="M 26.3 -60.2
Q 27.05 -56.75 28.95 -53.9 30.1080078125 -52.149609375 30.95 -50.3 31.7908203125 -50.095703125 32.6 -49.85 32.6263671875 -49.841796875 32.65 -49.85 32.8466796875 -49.8978515625 33.05 -49.95 36.35 -50.8 39.85 -50.95 61.75 -51.75 83.6 -52 83.95 -52 84.2 -52.05 85.8263671875 -52.24296875 87.2 -51.85 88.2830078125 -55.6712890625 88.45 -59.75 88.55 -61.3 88.25 -62.9 86.85 -63.9 85 -64.25 68.45 -67.7 51.35 -66.45 43.55 -65.9 35.8 -64.8 30.75 -64.05 26.2 -61.8 26.15 -60.95 26.3 -60.2 Z" stroke="none" fill="#525671"></path>
</g>
</g>
</g>
</g>
</g>
</svg>
