
<svg viewBox="0 0 128 107" height="107px" width="128px" y="0px" x="0px" preserveAspectRatio="none" xmlns:xlink="http://www.w3.org/1999/xlink" version="1.1" xmlns="http://www.w3.org/2000/svg">
<defs></defs>

<g id="Layer_1"></g>

<g id="Layer_2">
<g transform="matrix( 1.0869140625, 0, 0, 1.08746337890625, 32,39.85)" id="Layer_1">
<g>
<g>
<g>
<path d="M -1.35 -16.5
Q -6.8546875 -14.4416015625 -11.1 -10.15 -13.12734375 -8.08515625 -14.45 -5.75 -16.6501953125 -1.8154296875 -16.9 2.9 -17.1 6.35 -15.1 9.1 -14.7763671875 9.538671875 -14.45 9.95 -14.2255859375 10.2755859375 -14 10.55 -14.2263671875 10.6173828125 -14.45 10.65 -24.9064453125 12.81875 -28.55 22.85 -30 26.8 -29.1 30.9 -27.6 37.95 -20.45 40.45 -22.6 43.45 -21.55 46.95 -20.15 51.6 -15.45 53.25 -14.9517578125 53.4263671875 -14.45 53.55 -11.6787109375 54.2849609375 -8.8 53.65 -6.15 53.05 -3.45 52.7 -2.3544921875 52.5294921875 -1.6 52 3.3587890625 54.8435546875 8.9 56 9.401171875 56.103125 9.9 56.2 21.8154296875 58.5076171875 34.05 57.5 38.3287109375 57.1328125 42.4 56.2 50.746484375 54.2939453125 58.25 50 68.7591796875 55.6744140625 79.55 50.55 82.75 49.1 84.2 46.05 86.85 40.6 82.5 36.35 82.75 36.2 82.95 36.05 85.85 34.55 87.4 31.7 87.85 30.8 87.9 29.85 89.25 24.45 86.5 19.6 84.972265625 16.8662109375 82.75 15.25 85.2400390625 13.345703125 86.65 10.3 88.4 6.55 87.6 2.45 86.25 -4.45 79.6 -6.75 79.7 -7.05 79.8 -7.35 81 -11.15 80.6 -15.15 80.35 -17.8 79.3 -20.2 79.25 -20.35 79.25 -20.5 79.25 -20.85 79.15 -21.2 79.1 -21.65 78.9 -22.1 78.8 -22.3 78.6 -22.5 77.13984375 -26.24140625 74.45 -29.4 74.2732421875 -29.6263671875 74.05 -29.85 74.0171875 -29.9251953125 73.95 -30 69.1 -35.3 62 -35.8 55.1 -35.2 48.3 -33.35 43.173046875 -31.9568359375 38.35 -29.85 37.84609375 -29.62890625 37.35 -29.4 34.14296875 -27.9357421875 31.05 -26.15 24.4865234375 -28.314453125 17.5 -28.15 11.45 -27.75 6.1 -24.75 2.85 -22.9 0.65 -19.85 -0.52578125 -18.2388671875 -1.35 -16.5
M -11.95 -2
Q -8.73984375 -8.1283203125 -2.85 -11.3 -3.163671875 -9.0794921875 -2.7 -6.9 -1.45 -0.8 2.65 4.05 4.3248046875 6.0099609375 6.5 7.2 5.395703125 7.425390625 4.3 7.75 0.4 8.95 -2.35 12.05 -3.05859375 12.8419921875 -3.5 13.75 -5.76015625 12.058203125 -8.5 11.2 -9.2615234375 9.5068359375 -10.85 8.15 -11.4 7.7 -11.7 7.1 -13.8 2.7 -11.95 -2
M 3.5 -1.5
Q 2.1 -3.95 1.1 -6.65 1.05 -7.15 1 -7.65 0.55 -12.85 3.55 -17.15 6.5 -21.35 11.5 -22.7 24.15 -26.1 35.75 -19.95 40.25 -17.55 44.5 -14.85 46.3 -13.45 47.8 -11.65 49.55 -9.5 51.6 -11.2 52.2 -11.7 51.9 -12.4 50.9 -15 48.5 -16.8 42.7109375 -21.1310546875 36.1 -24.15 36.2931640625 -24.4021484375 36.45 -24.7 42.7283203125 -27.5484375 49.25 -29.4 50.09765625 -29.6330078125 50.9 -29.85 54.8412109375 -30.876171875 58.85 -31.55 63.971875 -32.447265625 67.95 -29.85 68.30390625 -29.63671875 68.6 -29.4 69.6244140625 -28.6638671875 70.55 -27.7 70.75 -27.3 71 -26.95 71.75 -26.1 72.5 -25.25 73.15 -24.55 73.75 -23.8 77.05 -17.6 76.5 -10.65 76.35 -8.4 74.75 -6.9 73.8 -6 72.9 -5.05 72.05 -4.15 72.85 -3.15 74.35 -1.25 76.65 -2.45 77.9 -3.1 79.15 -2.45 84.95 0.4 83.85 6.85 82.5970703125 11.4140625 78.35 13.25 76.7103515625 12.87578125 74.8 12.9 67.0873046875 13.7802734375 61.5 18.7 61.0755859375 17.5572265625 60.3 16.4 58.55 13.8 55.9 12.25 53.258203125 10.6828125 50.4 9.95 51.7923828125 8.9369140625 53.1 7.75 53.8 7.15 53.55 6.3 52.6 3.2 49.85 5.45 47.0021484375 7.815234375 43.7 9.45 43.3455078125 9.510546875 43 9.55 39.6052734375 9.7841796875 36.6 11.1 35.0236328125 10.994921875 33.4 10.5 28.9 9.15 26.4 5.3 25.9 4.6 25.1 4.8 21 5.6 16.75 5.8 7.8 6.15 3.5 -1.5
M 61.7 24.5
Q 62.1412109375 24.201171875 62.45 23.75 64.55 20.4 68.4 18.75 71.25 17.5 74.3 16.95 75.159375 16.786328125 75.95 16.85 76.550390625 18.02421875 78.3 17.5 84.5494140625 20.460546875 84.2 27.45 84 31.85 79.55 32.95 77.4 33.55 75.35 34.45 74.65 34.7 74.7 35.4 74.75 38.25 78.25 38.25 78.65 38.5 79 38.75 79.9 39.45 80.5 40.4 82.65 44.15 78.7 46.4 69.7697265625 51.460546875 60.55 46.55 60.1521484375 45.808984375 59.2 45.75 59.0318359375 45.6904296875 58.85 45.65 57.4912109375 45.27265625 56.9 46.15 56.145703125 46.4287109375 55.45 46.9 51.75 49.25 47.55 50.6 43.35 52 39 52.75 35.8837890625 53.29296875 32.8 53.55 33.7298828125 53.1880859375 34.65 52.75 35.9853515625 52.1232421875 36.5 51.15 36.6169921875 51.14375 36.7 51.1 36.7234375 51.0640625 36.7 51 42.5517578125 50.244140625 47.8 47.3 52.7 44.5 52.7 39.25 53.45 38.45 53.15 37.4 52.65 35.5 50.65 36.1 47.6 37 48.75 40 48.65 40.4 48.45 40.7 45.75 44.7 40.85 46 37.8568359375 46.808984375 34.9 47 30.688671875 47.009765625 26.55 45.75 25.65 45.2 24.75 44.75 23.65 44.2 22.5 43.9 20.95 43.55 19.65 44.5 16.05 47.1 11.5 46.95 5.65 46.8 1.5 42.85 1.2 42.2 0.9 41.55 0.7 41.1 0.45 40.65 0.1 39.1 0.8 37.6 1.95 35.1 -0.75 34.4 -1.1 34.4 -1.45 34.7 -3.9 36.75 -3.6 40.1 -3.35 43.25 -1.2 45.55 2.8 49.9 8.8 50.7 10.104296875 50.8697265625 11.35 50.9 13.01015625 51.9875 14.75 52.85 8.7736328125 51.8205078125 2.9 49.7 -4.8 46.95 -5.7 39.35 -5.65 39.25 -5.6 39.15 -5.55 39.05 -5.5 38.95 -5.5 38.9 -5.5 38.8 -5.5 38.7 -5.5 38.6 -4.8 36.8 -3.85 35 -3.4 34.1 -2.45 34.1 0.9 34 1.2 31.1 1.05 30.7 0.85 30.4 0.3 29.6 -0.7 29.55 -2.0474609375 29.505859375 -3.2 29.9 -3.026171875 29.573046875 -2.9 29.15 -2.75 28.65 -3.1 28.25 -5.95 25.4 -10.2 25.85 -11.9 25.95 -12 27.65 -12.2 29.55 -10.2 29.7 -8.35 29.8 -6.75 30.55 -5.8798828125 30.9705078125 -5.2 31 -5.5056640625 31.2912109375 -5.8 31.6 -6.3462890625 32.1462890625 -6.85 32.7 -9.7044921875 31.653125 -13 32 -13.93828125 32.147265625 -14.45 32.55 -15.329296875 33.283203125 -14.95 34.8 -14.8287109375 35.3154296875 -14.45 35.55 -14.204296875 35.710546875 -13.85 35.75 -11.4236328125 36.0705078125 -8.95 36.4 -9.345703125 37.379296875 -9.6 38.45 -9.85 40.45 -9.45 42.4 -8.85 45.25 -7.05 47.45 -6.4701171875 48.1646484375 -5.85 48.8 -7.416015625 49.2923828125 -9 49.75 -12.1732421875 50.6375 -14.45 49.6 -16.405859375 48.7376953125 -17.7 46.45 -17.95 45.75 -18 45 -18.05 44.15 -17.6 43.4 -17.15 42.7 -16.85 41.95 -16.7 41.8 -16.55 41.7 -16.3 41.5 -16.1 41.25 -16 41.15 -15.95 41.1 -15.048046875 41.0037109375 -14.45 40.75 -12.5607421875 39.978515625 -13.7 37.7 -13.95 37.25 -14.45 37.25 -18 37.35 -21.05 35.6 -26.85 32.3 -25.4 25.85 -23.85 19 -17.5 15.85 -15.975 15.1021484375 -14.45 14.8 -10.775 14.0625 -7.1 15.9 -5.6 16.7 -4.45 17.85 -4.1953125 18.0908203125 -3.95 18.25 -3.8501953125 18.9806640625 -3.65 19.6 -4.2744140625 19.6 -4.9 19.6 -5.85 19.75 -6.85 20.2 -8 20.75 -7.95 21.95 -7.85 24.75 -4.9 23.85 -2.7216796875 23.2064453125 -0.7 23.85 0.4400390625 24.7564453125 1.95 25.4 9.55 28.65 17.85 28.65 20.3 28.65 22 27.25 22.41328125 27.101171875 22.8 26.9 23.6302734375 26.58515625 24.4 26.15 25.45 25.55 26.3 24.75 27.16171875 23.8634765625 27.65 22.9 27.648828125 23.0611328125 27.65 23.2 27.65 25.4 29.15 27 29.3 28 30.2 28.45 30.2599609375 28.479296875 30.3 28.5 32.4154296875 29.5111328125 34.7 29.9 41.3 31 48 30.8 51.740625 30.7095703125 55.15 29.6 58.2083984375 29.2759765625 61.2 30.15 63.9 30.95 64.15 28.3 64.2 27.85 63.8 27.55 62.5802734375 26.5578125 61.15 26 61.20859375 25.940234375 61.25 25.85 61.539453125 25.1748046875 61.7 24.5
M 44.5 13.5
Q 45.926171875 13.4458984375 47.35 13.55 51.75 13.8 55 16.6 58.4 19.55 58 23.8 57.6 24.1 57.15 24.35 56.5 24.7 55.85 24.9 47.8361328125 27.5595703125 39.7 26.6 40.4466796875 25.6728515625 40.7 24.25 41.05 22.1 40.15 20.05 38.7384765625 16.803515625 35.8 16.05 36.738671875 15.4751953125 37.7 15 41.2298828125 14.93984375 44.5 13.5
M 24.25 9
Q 25.1 10.2 26.25 11.2 27.45 12.25 28.95 12.8 29.05 12.8 29.15 12.85 30.3771484375 13.6763671875 31.7 14.15 29.1607421875 16.4109375 28.2 19.35 27.996484375 18.113671875 27.25 16.8 25.35 13.5 22.35 11.2 21.294921875 10.367578125 20.15 9.7 22.201171875 9.502734375 24.25 9
M 20.4 14.6
Q 21.15 15.25 21.8 15.95 23.95 18.2 24.2 21.15 22.55 23.05 20 23.6 19.5 23.7 19.05 23.65 16 23.2 13.4 24.1 11.2322265625 23.980859375 9.1 23.55 11.50703125 20.4962890625 9.3 16.85 8.55 15.6 7.45 14.6 5.5810546875 12.8369140625 3.15 12.65 5.7125 10.85 9.55 10.85 15.65 10.85 20.4 14.6
M 16.85 30.3
Q 15.35 30.4 14.95 31.85 14.7 32.8 15.4 33.45 16.95 34.9 19.1 35.5 24.55 37.1 30.2 35.95 31.5 35.65 31.7 34.35 32.1 31.9 29.4 31.8 28.25 31.75 27.1 31.55 22 30.75 16.85 30.3
M 70.35 36.8
Q 68.45 35.25 65.75 35.7 64.05 35.8 63.85 37.5 63.7 39.15 65.4 39.5 66.4 39.7 67.35 39.9 70.15 40.5 70.75 38.1 70.95 37.3 70.35 36.8
M 59.95 32.25
Q 58.15 34.2 60.5 35.45 60.75 35.6 61 35.5 63.75 34.4 66.65 33.7 67.65 33.45 68.1 32.55 69.35 29.9 66.3 29.55 63.75 29.9 61.4 31.15 60.6 31.6 59.95 32.25 Z" stroke="none" fill="#000000"></path>

<path d="M 21.8 15.95
Q 21.15 15.25 20.4 14.6 15.65 10.85 9.55 10.85 5.7125 10.85 3.15 12.65 5.5810546875 12.8369140625 7.45 14.6 8.55 15.6 9.3 16.85 11.50703125 20.4962890625 9.1 23.55 11.2322265625 23.980859375 13.4 24.1 16 23.2 19.05 23.65 19.5 23.7 20 23.6 22.55 23.05 24.2 21.15 23.95 18.2 21.8 15.95
M 47.35 13.55
Q 45.926171875 13.4458984375 44.5 13.5 41.2298828125 14.93984375 37.7 15 36.738671875 15.4751953125 35.8 16.05 38.7384765625 16.803515625 40.15 20.05 41.05 22.1 40.7 24.25 40.4466796875 25.6728515625 39.7 26.6 47.8361328125 27.5595703125 55.85 24.9 56.5 24.7 57.15 24.35 57.6 24.1 58 23.8 58.4 19.55 55 16.6 51.75 13.8 47.35 13.55 Z" stroke="none" fill="#FFFFFF"></path>

<path d="M 26.25 11.2
Q 25.1 10.2 24.25 9 22.201171875 9.502734375 20.15 9.7 21.294921875 10.367578125 22.35 11.2 25.35 13.5 27.25 16.8 27.996484375 18.113671875 28.2 19.35 29.1607421875 16.4109375 31.7 14.15 30.3771484375 13.6763671875 29.15 12.85 29.05 12.8 28.95 12.8 27.45 12.25 26.25 11.2
M 27.65 23.2
Q 27.648828125 23.0611328125 27.65 22.9 27.16171875 23.8634765625 26.3 24.75 25.45 25.55 24.4 26.15 23.6302734375 26.58515625 22.8 26.9 25.1693359375 28.330078125 26.75 28.6 28.35 29 29.8 28.65 30.0693359375 28.591015625 30.3 28.5 30.2599609375 28.479296875 30.2 28.45 29.3 28 29.15 27 27.65 25.4 27.65 23.2
M 1.1 -6.65
Q 2.1 -3.95 3.5 -1.5 7.8 6.15 16.75 5.8 21 5.6 25.1 4.8 25.9 4.6 26.4 5.3 28.9 9.15 33.4 10.5 35.0236328125 10.994921875 36.6 11.1 39.6052734375 9.7841796875 43 9.55 43.3455078125 9.510546875 43.7 9.45 47.0021484375 7.815234375 49.85 5.45 52.6 3.2 53.55 6.3 53.8 7.15 53.1 7.75 51.7923828125 8.9369140625 50.4 9.95 53.258203125 10.6828125 55.9 12.25 58.55 13.8 60.3 16.4 61.0755859375 17.5572265625 61.5 18.7 67.0873046875 13.7802734375 74.8 12.9 76.7103515625 12.87578125 78.35 13.25 82.5970703125 11.4140625 83.85 6.85 84.95 0.4 79.15 -2.45 77.9 -3.1 76.65 -2.45 74.35 -1.25 72.85 -3.15 72.05 -4.15 72.9 -5.05 73.8 -6 74.75 -6.9 76.35 -8.4 76.5 -10.65 77.05 -17.6 73.75 -23.8 73.15 -24.55 72.5 -25.25 71.75 -26.1 71 -26.95 70.75 -27.3 70.55 -27.7 69.6244140625 -28.6638671875 68.6 -29.4 68.30390625 -29.63671875 67.95 -29.85 63.971875 -32.447265625 58.85 -31.55 54.8412109375 -30.876171875 50.9 -29.85 50.09765625 -29.6330078125 49.25 -29.4 42.7283203125 -27.5484375 36.45 -24.7 36.2931640625 -24.4021484375 36.1 -24.15 42.7109375 -21.1310546875 48.5 -16.8 50.9 -15 51.9 -12.4 52.2 -11.7 51.6 -11.2 49.55 -9.5 47.8 -11.65 46.3 -13.45 44.5 -14.85 40.25 -17.55 35.75 -19.95 24.15 -26.1 11.5 -22.7 6.5 -21.35 3.55 -17.15 0.55 -12.85 1 -7.65 1.05 -7.15 1.1 -6.65
M -2.85 -11.3
Q -8.73984375 -8.1283203125 -11.95 -2 -13.8 2.7 -11.7 7.1 -11.4 7.7 -10.85 8.15 -9.2615234375 9.5068359375 -8.5 11.2 -5.76015625 12.058203125 -3.5 13.75 -3.05859375 12.8419921875 -2.35 12.05 0.4 8.95 4.3 7.75 5.395703125 7.425390625 6.5 7.2 4.3248046875 6.0099609375 2.65 4.05 -1.45 -0.8 -2.7 -6.9 -3.163671875 -9.0794921875 -2.85 -11.3 Z" stroke="none" fill="#FFE400"></path>

<path d="M 62.45 23.75
Q 62.1412109375 24.201171875 61.7 24.5 61.539453125 25.1748046875 61.25 25.85 61.20859375 25.940234375 61.15 26 62.5802734375 26.5578125 63.8 27.55 64.2 27.85 64.15 28.3 63.9 30.95 61.2 30.15 58.2083984375 29.2759765625 55.15 29.6 51.740625 30.7095703125 48 30.8 41.3 31 34.7 29.9 32.4154296875 29.5111328125 30.3 28.5 30.0693359375 28.591015625 29.8 28.65 28.35 29 26.75 28.6 25.1693359375 28.330078125 22.8 26.9 22.41328125 27.101171875 22 27.25 20.3 28.65 17.85 28.65 9.55 28.65 1.95 25.4 0.4400390625 24.7564453125 -0.7 23.85 -2.7216796875 23.2064453125 -4.9 23.85 -7.85 24.75 -7.95 21.95 -8 20.75 -6.85 20.2 -5.85 19.75 -4.9 19.6 -4.2744140625 19.6 -3.65 19.6 -3.8501953125 18.9806640625 -3.95 18.25 -4.1953125 18.0908203125 -4.45 17.85 -5.6 16.7 -7.1 15.9 -10.775 14.0625 -14.45 14.8 -15.975 15.1021484375 -17.5 15.85 -23.85 19 -25.4 25.85 -26.85 32.3 -21.05 35.6 -18 37.35 -14.45 37.25 -13.95 37.25 -13.7 37.7 -12.5607421875 39.978515625 -14.45 40.75 -15.048046875 41.0037109375 -15.95 41.1 -16 41.15 -16.1 41.25 -16.3 41.5 -16.55 41.7 -16.7 41.8 -16.85 41.95 -17.15 42.7 -17.6 43.4 -18.05 44.15 -18 45 -17.95 45.75 -17.7 46.45 -16.405859375 48.7376953125 -14.45 49.6 -12.1732421875 50.6375 -9 49.75 -7.416015625 49.2923828125 -5.85 48.8 -6.4701171875 48.1646484375 -7.05 47.45 -8.85 45.25 -9.45 42.4 -9.85 40.45 -9.6 38.45 -9.345703125 37.379296875 -8.95 36.4 -11.4236328125 36.0705078125 -13.85 35.75 -14.204296875 35.710546875 -14.45 35.55 -14.8287109375 35.3154296875 -14.95 34.8 -15.329296875 33.283203125 -14.45 32.55 -13.93828125 32.147265625 -13 32 -9.7044921875 31.653125 -6.85 32.7 -6.3462890625 32.1462890625 -5.8 31.6 -5.5056640625 31.2912109375 -5.2 31 -5.8798828125 30.9705078125 -6.75 30.55 -8.35 29.8 -10.2 29.7 -12.2 29.55 -12 27.65 -11.9 25.95 -10.2 25.85 -5.95 25.4 -3.1 28.25 -2.75 28.65 -2.9 29.15 -3.026171875 29.573046875 -3.2 29.9 -2.0474609375 29.505859375 -0.7 29.55 0.3 29.6 0.85 30.4 1.05 30.7 1.2 31.1 0.9 34 -2.45 34.1 -3.4 34.1 -3.85 35 -4.8 36.8 -5.5 38.6 -5.5 38.7 -5.5 38.8 -5.5 38.9 -5.5 38.95 -5.55 39.05 -5.6 39.15 -5.65 39.25 -5.7 39.35 -4.8 46.95 2.9 49.7 8.7736328125 51.8205078125 14.75 52.85 13.01015625 51.9875 11.35 50.9 10.104296875 50.8697265625 8.8 50.7 2.8 49.9 -1.2 45.55 -3.35 43.25 -3.6 40.1 -3.9 36.75 -1.45 34.7 -1.1 34.4 -0.75 34.4 1.95 35.1 0.8 37.6 0.1 39.1 0.45 40.65 0.7 41.1 0.9 41.55 1.2 42.2 1.5 42.85 5.65 46.8 11.5 46.95 16.05 47.1 19.65 44.5 20.95 43.55 22.5 43.9 23.65 44.2 24.75 44.75 25.65 45.2 26.55 45.75 30.688671875 47.009765625 34.9 47 37.8568359375 46.808984375 40.85 46 45.75 44.7 48.45 40.7 48.65 40.4 48.75 40 47.6 37 50.65 36.1 52.65 35.5 53.15 37.4 53.45 38.45 52.7 39.25 52.7 44.5 47.8 47.3 42.5517578125 50.244140625 36.7 51 36.7234375 51.0640625 36.7 51.1 36.6169921875 51.14375 36.5 51.15 35.9853515625 52.1232421875 34.65 52.75 33.7298828125 53.1880859375 32.8 53.55 35.8837890625 53.29296875 39 52.75 43.35 52 47.55 50.6 51.75 49.25 55.45 46.9 56.145703125 46.4287109375 56.9 46.15 57.4912109375 45.27265625 58.85 45.65 59.0318359375 45.6904296875 59.2 45.75 60.1521484375 45.808984375 60.55 46.55 69.7697265625 51.460546875 78.7 46.4 82.65 44.15 80.5 40.4 79.9 39.45 79 38.75 78.65 38.5 78.25 38.25 74.75 38.25 74.7 35.4 74.65 34.7 75.35 34.45 77.4 33.55 79.55 32.95 84 31.85 84.2 27.45 84.5494140625 20.460546875 78.3 17.5 76.550390625 18.02421875 75.95 16.85 75.159375 16.786328125 74.3 16.95 71.25 17.5 68.4 18.75 64.55 20.4 62.45 23.75
M 60.5 35.45
Q 58.15 34.2 59.95 32.25 60.6 31.6 61.4 31.15 63.75 29.9 66.3 29.55 69.35 29.9 68.1 32.55 67.65 33.45 66.65 33.7 63.75 34.4 61 35.5 60.75 35.6 60.5 35.45
M 65.75 35.7
Q 68.45 35.25 70.35 36.8 70.95 37.3 70.75 38.1 70.15 40.5 67.35 39.9 66.4 39.7 65.4 39.5 63.7 39.15 63.85 37.5 64.05 35.8 65.75 35.7
M 14.95 31.85
Q 15.35 30.4 16.85 30.3 22 30.75 27.1 31.55 28.25 31.75 29.4 31.8 32.1 31.9 31.7 34.35 31.5 35.65 30.2 35.95 24.55 37.1 19.1 35.5 16.95 34.9 15.4 33.45 14.7 32.8 14.95 31.85 Z" stroke="none" fill="#FFED9C"></path>
</g>
</g>
</g>
</g>
</g>
</svg>
