
<svg viewBox="0 0 112 184" height="184px" width="112px" y="0px" x="0px" preserveAspectRatio="none" xmlns:xlink="http://www.w3.org/1999/xlink" version="1.1" xmlns="http://www.w3.org/2000/svg">
<defs></defs>

<g id="fun_scrollers">
<g transform="matrix( 0.3621063232421875, 0, 0, 0.3621063232421875, -594.2,0.1)" id="svg"></g>

<g transform="matrix( 0.3621063232421875, 0, 0, 0.3621063232421875, -594.2,0.1)" id="Layer_2"></g>

<g transform="matrix( 0.3621063232421875, 0, 0, 0.3621063232421875, -594.2,0.1)" id="Layer_3"></g>

<g transform="matrix( 0.3621063232421875, 0, 0, 0.3621063232421875, -594.2,0.1)" id="Layer_6">
<g>
<g>
<g>
<path d="M 1861.85 92.1
L 1861.25 92.05 1860.85 92.05 1860.4 96.8 1858.45 96.7
Q 1849 100.3 1843.4 103.2 1835.4 107.3 1830.1 112.6 1825.65 118.1 1823.15 125.3 1821.1 131.25 1820.25 139.4
L 1815.35 188.15
Q 1814.35 199.45 1812.05 221.8
L 1810.25 240
Q 1808.6 256.5 1808.3 259.3 1807.1 270.3 1805.95 278.65 1804.5 288.35 1803.45 301.15 1801.4 325 1799.3 343.15 1796 372.8 1794.25 391
L 1792.45 410.4
Q 1791.65 419.15 1792.35 424.25 1794.2 431.2 1799.85 436.6 1803.25 438.65 1807.45 439.8 1810.8 440.7 1815.6 441.3
L 1881.7 446.35
Q 1898.4 447.65 1905 447.9 1918.15 448.35 1928.5 447.25 1933.1794921875 446.37265625 1936.95 444.55
L 1936.95 434.7 1934.25 437.05 1932.15 440.45 1932 440.7
Q 1931.6720703125 440.7369140625 1931.3 440.75 1926.4740234375 441.2365234375 1917.75 441.05
L 1852.3 437.4
Q 1838 436.8 1830.8 436.3 1818.3 435.4 1809.7 433.05 1806.7 432 1805.2 430.65 1803.7 429.5 1801.9 426.75 1800 422.3 1799.3 418.85 1798.6 415 1799 410.45
L 1802.75 372.35
Q 1803.65 364.25 1804 360.2
L 1811.55 287.45
Q 1817.4 230.7 1819.95 209 1822.05 191.65 1823.25 179.1
L 1826.85 142.6
Q 1827.4 136.55 1827.8 134.05 1828.55 129.5 1830.2 125.8
L 1832 123.2
Q 1841.1 114.05 1844.6 111.65 1848.2 109.25 1860.35 104.25
L 1860.45 104.2 1863.75 102.8
Q 1862.55 102.4 1860.95 101.65
L 1860.85 99.5
Q 1860.85 99.4 1861.85 92.1 Z" stroke="none" fill="#706C84"></path>

<path d="M 1936.95 48.2
L 1936.95 43 1883.8 40.75 1883.15 37.85 1850.5 35
Q 1848.3 28.8 1850.7 22.5 1894.5572265625 12.136328125 1936.95 24.15
L 1936.95 16.3
Q 1931.8466796875 14.88125 1925.85 14.35
L 1922.1 14.1
Q 1897 12.2 1874 13.2
L 1870.6 13.35
Q 1862.95 13.65 1858.4 14.25 1851.65 14.95 1846.35 16.45 1845.4 18.05 1845.15 19.15 1844.9 20.2 1844.45 25.15
L 1844.25 27.9
Q 1844 29.85 1843.6 33.75 1843.4 37.15 1844.3 39.4 1847.05 41.05 1847.85 41.4 1848.7 41.7 1850.7 42.05
L 1873.85 43.95
Q 1872.3 47.4 1871.35 51.4 1870.6 54.35 1869.9 59.05 1868.6 67.4 1868 70.35 1866.65 76.65 1864.6 81.3 1862.3220703125 86.311328125 1861.25 92.05
L 1861.85 92.1
Q 1860.85 99.4 1860.85 99.5
L 1860.95 101.65
Q 1862.55 102.4 1863.75 102.8
L 1860.45 104.2
Q 1860.6181640625 104.1494140625 1860.75 104.1 1864.45 103.15 1868 102.95
L 1878.2 103.8
Q 1883.15 104.2 1893.05 104.8 1902.2 105.35 1911.3 106
L 1936.95 107.65 1936.95 102.6 1867.05 98.5
Q 1868.4 91.55 1868.8 89.9 1869.25 88.2 1870.6 84.9 1873 78.7 1874.6 68.5 1876.65 55.75 1879.3 48.1
L 1882.45 45.4
Q 1884.55 45.3 1885.35 45.3 1886.2 45.3 1888.8 45.45
L 1936.95 48.2 Z" stroke="none" fill="#7E1A34"></path>

<path d="M 1820.75 390.4
Q 1820.35 391.5 1819.5 394.95 1819.55 398.55 1819.75 399.65 1819.95 400.7 1821.35 403.7 1824.9 405.75 1827.6 406.1 1830.3 406.5 1842.85 406.8
L 1850.7 407.05
Q 1861 407.65 1871.25 407.9 1883.05 408.2 1892.5 408.7 1913.6 409.6 1924.2 409.95
L 1927.65 410.05
Q 1931.7962890625 410.2228515625 1936.95 410.25
L 1936.95 392.25
Q 1936.490234375 392.116796875 1936.1 392.05 1934.4 391.8 1927.15 391.75
L 1911.1 391.2
Q 1901.55 391 1886.75 389.55 1878.8 388.8 1871 388.25 1864.4 387.8 1857.7 387.2 1848.7 386.35 1844.2 386.05
L 1839.15 385.7
Q 1832.75 384.95 1830.9 384.95 1826.4 384.9 1822.9 386.45 1821.2 389.4 1820.75 390.4
M 1936.95 231.7
Q 1928.044140625 231.3044921875 1921.35 231.45 1909.75 231.7 1894 230.8
L 1885.4 230.4
Q 1884.1 230.3 1862.05 228.8 1844.9 227.6 1844.65 227.95 1841.4 239.3 1844.1 247.05 1847.65 249.4 1849.65 249.8 1851.55 250.15 1859.65 250.2 1861.6 250.1 1865.4 250.2 1873.75 250.5 1880.45 250.6 1885.55 250.6 1896 250.9 1910.6 251.4 1913.55 251.4
L 1921.55 251.55
Q 1925.55 251.55 1929.55 251.8
L 1930.4 253.8
Q 1933.804296875 254.471484375 1936.95 254.8
L 1936.95 231.7 Z" stroke="none" fill="#9DAEEA"></path>

<path d="M 1913.45 195.1
Q 1916.1 190.45 1917.3 189.1 1918.5 187.9 1922.95 184.6 1925.7 182.85 1928.05 182.25 1930.4 181.6 1933.7 181.6
L 1936.95 181.8 1936.95 175.15
Q 1929.7525390625 174.986328125 1926.15 175.65 1920.35 176.7 1915.55 180.5
L 1913.6 182.6
Q 1911.1 185.15 1910.1 187 1909 188.95 1908.35 192.25
L 1908 196.8
Q 1907.7 200.2 1907.65 201.25 1907.6 202.3 1907.7 205.35 1908.45 207.7 1908.95 208.7 1909.6 209.65 1912.35 213.1 1914.75 214.9 1917.1 215.6 1919.05 216.2 1922.45 216.4
L 1925.1 216.45
Q 1933.65 216.75 1936.85 216.6 1936.9001953125 216.5974609375 1936.95 216.6
L 1936.95 210.2
Q 1934.5919921875 210.6732421875 1932.1 210.8 1927.05 211.05 1920.8 209.9 1917.7 208.65 1916.95 208 1916.15 207.35 1914.5 204.8 1913 200.2 1913.45 195.1 Z" stroke="none" fill="#5D5A76"></path>

<path d="M 1917.3 189.1
Q 1916.1 190.45 1913.45 195.1 1913 200.2 1914.5 204.8 1916.15 207.35 1916.95 208 1917.7 208.65 1920.8 209.9 1927.05 211.05 1932.1 210.8 1934.5919921875 210.6732421875 1936.95 210.2
L 1936.95 181.8 1933.7 181.6
Q 1930.4 181.6 1928.05 182.25 1925.7 182.85 1922.95 184.6 1918.5 187.9 1917.3 189.1 Z" stroke="none" fill="#F1F3F7"></path>

<path d="M 1845.05 159.25
L 1849.85 160.8
Q 1856.25 164.3 1860.05 165.8 1865.75 168.25 1870.95 168.95 1878.5 169.85 1886.45 173.05 1894.75 176.7 1899.3 176.75 1903.8 176.85 1922.5 173.75
L 1936.45 171.5
Q 1936.700390625 171.4599609375 1936.95 171.4
L 1936.95 157.1
Q 1932.2267578125 156.640625 1927.9 156.35
L 1925.15 156.15
Q 1911.4 155.25 1897.6 154.5
L 1850.35 151.55
Q 1846 151.15 1842 151.75 1841.25 153.8 1841.15 154.5 1841.1 155.25 1841.45 157.5
L 1845.05 159.25 Z" stroke="none" fill="#992A3F"></path>

<path d="M 1848.65 123.05
L 1847.45 123 1846.4 123.95 1846.35 124.1
Q 1845.9416015625 125.37578125 1845.5 126.75 1844.8 129.4 1844.15 132.15 1843.8 133.5 1843.65 134.85 1843.4 136.3 1843.35 137.75 1843.2 139.15 1843.2 140.55 1843.15 142 1843.2 143.5 1843.25 144.95 1843.4 146.35 1843.45 146.8 1843.6 147.2 1843.65 147.45 1843.8 147.75 1843.9 147.9 1843.95 148.1 1844 148.15 1844.05 148.25 1844.15 148.35 1844.3 148.45 1844.4 148.55 1844.55 148.65 1844.75 148.75 1845 148.95 1845.25 149.1 1845.55 149.15 1846.25 149.6 1847 149.9
L 1881.7 151.85
Q 1887.15 152 1892.6 152.2 1895.2 152.3 1897.85 152.5 1900.45 152.65 1903.05 152.8 1905.9 153 1908.8 153.4 1910.5 153.5 1912.2 153.65 1912.9 153.65 1913.7 153.75 1914.3 153.8 1914.95 153.85 1916.1 153.85 1917.2 153.9 1918.75 154 1920.35 154.1 1921.8 154.1 1923.25 154.2 1924.6 154.2 1926 154.3 1927.25 154.3 1928.55 154.35 1929.7 154.4 1930.85 154.45 1931.9 154.45 1932.95 154.5 1933.9 154.5 1934.85 154.55 1935.7 154.5 1936.5 154.5 1936.725 154.5021484375 1936.95 154.5
L 1936.95 127.65 1859.6 122.65
Q 1858.9 122.6 1858.2 122.6 1857.6 122.55 1856.95 122.5 1856.45 122.5 1855.9 122.45 1855.45 122.45 1854.95 122.4 1854.55 122.4 1854.25 122.35 1853.9 122.35 1853.6 122.35 1853.35 122.3 1853.2 122.3 1853 122.3 1852.85 122.3 1851.95 122.4 1851.15 122.5 1850.3 122.6 1849.45 122.8 1849.049609375 122.9251953125 1848.65 123.05 Z" stroke="none" fill="#110F1A"></path>

<path d="M 1860.75 104.1
Q 1860.6181640625 104.1494140625 1860.45 104.2
L 1860.35 104.25
Q 1848.2 109.25 1844.6 111.65 1841.1 114.05 1832 123.2
L 1830.2 125.8
Q 1828.55 129.5 1827.8 134.05 1827.4 136.55 1826.85 142.6
L 1823.25 179.1
Q 1822.05 191.65 1819.95 209 1817.4 230.7 1811.55 287.45
L 1804 360.2
Q 1803.65 364.25 1802.75 372.35
L 1799 410.45
Q 1798.6 415 1799.3 418.85 1800 422.3 1801.9 426.75 1803.7 429.5 1805.2 430.65 1806.7 432 1809.7 433.05 1818.3 435.4 1830.8 436.3 1838 436.8 1852.3 437.4
L 1917.75 441.05
Q 1926.4740234375 441.2365234375 1931.3 440.75 1931.7529296875 440.6162109375 1932.15 440.45
L 1934.25 437.05 1936.95 434.7 1936.95 410.25
Q 1931.7962890625 410.2228515625 1927.65 410.05
L 1924.2 409.95
Q 1913.6 409.6 1892.5 408.7 1883.05 408.2 1871.25 407.9 1861 407.65 1850.7 407.05
L 1842.85 406.8
Q 1830.3 406.5 1827.6 406.1 1824.9 405.75 1821.35 403.7 1819.95 400.7 1819.75 399.65 1819.55 398.55 1819.5 394.95 1820.35 391.5 1820.75 390.4 1821.2 389.4 1822.9 386.45 1826.4 384.9 1830.9 384.95 1832.75 384.95 1839.15 385.7
L 1844.2 386.05
Q 1848.7 386.35 1857.7 387.2 1864.4 387.8 1871 388.25 1878.8 388.8 1886.75 389.55 1901.55 391 1911.1 391.2
L 1927.15 391.75
Q 1934.4 391.8 1936.1 392.05 1936.490234375 392.116796875 1936.95 392.25
L 1936.95 254.8
Q 1933.804296875 254.471484375 1930.4 253.8
L 1929.55 251.8
Q 1925.55 251.55 1921.55 251.55
L 1913.55 251.4
Q 1910.6 251.4 1896 250.9 1885.55 250.6 1880.45 250.6 1873.75 250.5 1865.4 250.2 1861.6 250.1 1859.65 250.2 1851.55 250.15 1849.65 249.8 1847.65 249.4 1844.1 247.05 1841.4 239.3 1844.65 227.95 1844.9 227.6 1862.05 228.8 1884.1 230.3 1885.4 230.4
L 1894 230.8
Q 1909.75 231.7 1921.35 231.45 1928.044140625 231.3044921875 1936.95 231.7
L 1936.95 216.6
Q 1936.9001953125 216.5974609375 1936.85 216.6 1933.65 216.75 1925.1 216.45
L 1922.45 216.4
Q 1919.05 216.2 1917.1 215.6 1914.75 214.9 1912.35 213.1 1909.6 209.65 1908.95 208.7 1908.45 207.7 1907.7 205.35 1907.6 202.3 1907.65 201.25 1907.7 200.2 1908 196.8
L 1908.35 192.25
Q 1909 188.95 1910.1 187 1911.1 185.15 1913.6 182.6
L 1915.55 180.5
Q 1920.35 176.7 1926.15 175.65 1929.7525390625 174.986328125 1936.95 175.15
L 1936.95 171.4
Q 1936.700390625 171.4599609375 1936.45 171.5
L 1922.5 173.75
Q 1903.8 176.85 1899.3 176.75 1894.75 176.7 1886.45 173.05 1878.5 169.85 1870.95 168.95 1865.75 168.25 1860.05 165.8 1856.25 164.3 1849.85 160.8
L 1845.05 159.25 1841.45 157.5
Q 1841.1 155.25 1841.15 154.5 1841.25 153.8 1842 151.75 1846 151.15 1850.35 151.55
L 1897.6 154.5
Q 1911.4 155.25 1925.15 156.15
L 1927.9 156.35
Q 1932.2267578125 156.640625 1936.95 157.1
L 1936.95 154.5
Q 1936.725 154.5021484375 1936.5 154.5 1935.7 154.5 1934.85 154.55 1933.9 154.5 1932.95 154.5 1931.9 154.45 1930.85 154.45 1929.7 154.4 1928.55 154.35 1927.25 154.3 1926 154.3 1924.6 154.2 1923.25 154.2 1921.8 154.1 1920.35 154.1 1918.75 154 1917.2 153.9 1916.1 153.85 1914.95 153.85 1914.3 153.8 1913.7 153.75 1912.9 153.65 1912.2 153.65 1910.5 153.5 1908.8 153.4 1905.9 153 1903.05 152.8 1900.45 152.65 1897.85 152.5 1895.2 152.3 1892.6 152.2 1887.15 152 1881.7 151.85
L 1847 149.9
Q 1846.25 149.6 1845.55 149.15 1845.25 149.1 1845 148.95 1844.75 148.75 1844.55 148.65 1844.4 148.55 1844.3 148.45 1844.15 148.35 1844.05 148.25 1844 148.15 1843.95 148.1 1843.9 147.9 1843.8 147.75 1843.65 147.45 1843.6 147.2 1843.45 146.8 1843.4 146.35 1843.25 144.95 1843.2 143.5 1843.15 142 1843.2 140.55 1843.2 139.15 1843.35 137.75 1843.4 136.3 1843.65 134.85 1843.8 133.5 1844.15 132.15 1844.8 129.4 1845.5 126.75 1845.9416015625 125.37578125 1846.35 124.1
L 1846.4 123.95 1847.45 123 1848.65 123.05
Q 1849.049609375 122.9251953125 1849.45 122.8 1850.3 122.6 1851.15 122.5 1851.95 122.4 1852.85 122.3 1853 122.3 1853.2 122.3 1853.35 122.3 1853.6 122.35 1853.9 122.35 1854.25 122.35 1854.55 122.4 1854.95 122.4 1855.45 122.45 1855.9 122.45 1856.45 122.5 1856.95 122.5 1857.6 122.55 1858.2 122.6 1858.9 122.6 1859.6 122.65
L 1936.95 127.65 1936.95 107.65 1911.3 106
Q 1902.2 105.35 1893.05 104.8 1883.15 104.2 1878.2 103.8
L 1868 102.95
Q 1864.45 103.15 1860.75 104.1 Z" stroke="none" fill="#F5F7F9"></path>

<path d="M 1885.35 45.3
Q 1884.55 45.3 1882.45 45.4
L 1879.3 48.1
Q 1876.65 55.75 1874.6 68.5 1873 78.7 1870.6 84.9 1869.25 88.2 1868.8 89.9 1868.4 91.55 1867.05 98.5
L 1936.95 102.6 1936.95 48.2 1888.8 45.45
Q 1886.2 45.3 1885.35 45.3 Z" stroke="none" fill="#E21F2D"></path>

<path d="M 1936.95 43
L 1936.95 24.15
Q 1894.5572265625 12.136328125 1850.7 22.5 1848.3 28.8 1850.5 35
L 1883.15 37.85 1883.8 40.75 1936.95 43 Z" stroke="none" fill="#DF202E"></path>
</g>
</g>
</g>
</g>

<g transform="matrix( 0.3621063232421875, 0, 0, 0.3621063232421875, -594.2,0.1)" id="MergedLayer_1">
<g>
<g>
<g>
<path d="M 1931.6 269.6
Q 1929.6 268.9 1925.25 268.9
L 1920.3 268.9
Q 1919.85 268.9 1919.7 269.05 1919.5 269.25 1919.5 269.7 1919.4 273.55 1919.6 275.5 1919.8 277.2 1920.2 279.05
L 1921.3 279.5
Q 1921.15 280.2 1921.85 280.55 1922.35 280.8 1923.1 280.8
L 1936.95 280.95 1936.95 272.3
Q 1936.0662109375 271.921875 1934.55 271.05 1932.7 270 1931.6 269.6
M 1936.95 213.05
L 1936.95 203.45
Q 1934.4484375 204.4169921875 1931.55 205.6 1921.15 209.8 1916.05 212.1 1907.55 215.9 1901.15 219.75 1893.3 224.4 1889.55 229.05 1888.05 230.8 1887.6 232.5 1887.25 233.65 1887.35 235.6 1887.4 238.15 1887.35 238.8 1888.3 238.55 1890.8 238.85 1892.95 239.15 1894.05 238.6 1894.8 238.2 1895.95 236.6 1900.35 230.8 1909.25 225.65 1913.7 223.05 1919.6 220.4 1922.75 218.95 1930.25 215.8 1933.8333984375 214.3080078125 1936.95 213.05
M 1740.3 360.75
L 1736.3 360.65
Q 1733.3 360.65 1732 361.25 1729.55 362.35 1728.65 365.55 1728.15 367.25 1728.15 371.2
L 1728.3 382.4
Q 1728.3 383.95 1728.9 384.5 1729.4 384.9 1730.45 385 1730.75 385.05 1731.1 385.1 1731.4 387.35 1732.3 388.5 1733.7 390.3 1736.85 390.45 1740.65 390.25 1742.4 390.2 1745.45 390.1 1749.25 391.15 1750.8 391.6 1755.95 393.4 1770.25 398.4 1793.45 402.05 1826.35 407.2 1831.6 408.3 1843.7 410.85 1861.6 416.35 1889.35 424.85 1891.35 425.4 1907.15 429.9 1918.95 431.65 1928.397265625 433.053125 1936.95 433
L 1936.95 425.85
Q 1926.5373046875 425.0271484375 1914.2 422.4 1924.1 421.1 1930.25 416.05 1933.5798828125 413.305078125 1936.95 408.3
L 1936.95 326.05
Q 1936.0775390625 326.569140625 1934.9 327.3 1928.95 330.85 1920.35 331.9 1914.85 332.6 1904.7 332.4
L 1893.3 332.25
Q 1886.1 332.15 1882.2 331.45 1876.1 330.35 1872.2 327.3 1870.45 325.95 1868.65 323.8 1867.6 322.5 1865.65 319.75 1863.85 317.15 1863.5 315.8 1863.15 314.35 1863.4 311.65 1863.5 310.3 1863.55 309.35 1874.4 308.7 1881.8 308.35 1907.05 307.1 1927.3 306.7 1929.8 306.65 1931.15 306.8 1933.25 307.05 1934.75 307.8 1935.9546875 308.40234375 1936.95 309.4
L 1936.95 299.85
Q 1935.7505859375 299.75 1934.35 299.75 1911 299.75 1882.15 301.05
L 1882.15 297.5
Q 1882.15 296 1881.65 295.45
L 1881.65 295.2
Q 1881.65 294.75 1881.55 294.55 1881.4 294.3 1880.65 294 1880 293.8 1880 293.3 1878.35 293.25 1877.45 291.5 1876.9 290.45 1876.8 290.3 1876.05 289.65 1875.7 289.3 1875.55 289.15 1874.75 287.8 1874.1 286.55 1872.85 285.55 1871.35 284.45 1871.2 284.3 1872.1 283.7 1872.75 283.2 1874.45 281.7 1876.75 278.4
L 1879.2 274.85
Q 1880.45 273.15 1880.85 272.1 1881.55 270.35 1881.45 266.9
L 1881.35 257.7
Q 1873.1 255.85 1863.85 255.05 1861.05 254.85 1859.7 254.55 1856.6 253.5 1855.05 253.05 1852.7 252.3 1848.55 251.85 1839.8 250.85 1832.4 250.8
L 1832.4 249.7
Q 1831.8 249.75 1829.2 249.6 1829 249.6 1828.85 249.6
L 1828.85 249.4
Q 1828.85 248.2 1828.65 247.6 1828.55 247.35 1827.8 245.95 1827.25 244.4 1826.9 243.65 1826.4 242.45 1825 240.7
L 1821.35 235.9
Q 1819.2 233.2 1818.4 231.45 1818 230.45 1817.7 230.1 1817.3 229.65 1817.15 229.45 1817.1 229.35 1816.75 228.45 1816.55 227.8 1816.2 227.6 1816.1 227.55 1815.3 227.4
L 1808.75 227.35 1808.75 234.1
Q 1809.4 234.1 1809.7 234.9 1809.9 235.3 1810.2 236.15
L 1810.75 236.85
Q 1810.9 237.05 1811.85 238.8 1812.55 240.2 1814.5 242.8
L 1817.85 247.2
Q 1820.35 250.4 1820.85 252.4 1821.1 253.3 1821.2 253.5 1821.2 253.55 1821.25 253.6 1820.4 254.95 1820 256.65 1819.5 258.7 1819.5 261.45 1819.5 261.95 1819.7 266.3 1819.8 268.25 1819.85 272.15 1820 275.55 1820.45 277.9 1821.7 284.6 1825.9 287.9 1828.6 290 1832.8 290.65 1835.55 291.1 1840.5 291.05
L 1845.95 291
Q 1849.85 291 1852.1 290.85 1855.5 290.65 1858.15 290.05 1860.7 289.45 1863.65 288.25
L 1863.65 288.85
Q 1863.65 290 1863.9 290.5 1864.15 291.1 1864.85 291.6 1865.3 291.9 1866.1 292.5 1866.85 293.1 1867.7 294.4 1868.7 295.95 1869.1 296.4 1869.95 297.25 1870.15 297.6 1870.25 297.8 1870.4 298.25 1870.6 298.6 1870.8 298.8
L 1871.4 299.25 1871.8 299.75
Q 1872.15 300.05 1873.15 300.15 1873.25 300.75 1874 301.05 1874.05 301.05 1874.1 301.1 1874.1 301.25 1874.15 301.45 1856.95 302.3 1829.5 304 1826.7 304.15 1825.05 304.65 1822.7 305.3 1821.55 306.9 1820.3 308.6 1820.2 312.45 1819.55 332.3 1821.55 348.8 1823.85 368 1829.9 384 1832.1 389.8 1834.15 393.3 1836.8 397.9 1840.7 401.85 1839.85 401.65 1839.05 401.5 1833.65 400.35 1799.4 395.1 1775.25 391.4 1760.5 386 1757.2 384.8 1755.25 383.55 1752.55 381.75 1751.55 379.4 1751.35 378.95 1751.2 378.35 1763.25 377.7 1775.25 379.3 1779.7 379.95 1788.6 381.35 1796.3 382.3 1801.95 381.6
L 1801.95 375.05
Q 1797.4 374.95 1790.7 373.9 1783.2 372.65 1779.4 372.15 1772.5 371.25 1763.8 371.05 1758.95 370.95 1749.6 371.1 1749.5 370.85 1749.4 370.65 1748.9 369.7 1748.15 368.95 1747.85 366.35 1746.15 363.8 1744.75 361.65 1743.05 361.1 1742.15 360.75 1740.3 360.75
M 1847.15 356
Q 1849.1 355.55 1852.15 357.7 1856.75 361 1865 368.7 1873.25 376.4 1877.8 379.65 1883.2 383.55 1893.05 388.45 1898.75 391.2 1902.75 392.7 1908.1 394.75 1912.85 395.6 1918.3 396.6 1923.4 396.05 1928.95 395.45 1933.4 393.05 1934.75 392.3 1935.7 391.8 1933.4 396.55 1930.5 400.85 1924.65 409.5 1918.15 412.7 1912.95 415.3 1905.7 415.35 1900.9 415.35 1892.65 414.05 1887.65 413.25 1883.4 412.4 1882.9 412.05 1882.05 411.65 1879.5 410.45 1876.85 408.2 1873.55 405.55 1869.85 401.65 1867.8 399.45 1863.45 394.45 1859.15 389.45 1857.35 386.8 1854.9 383.25 1851.45 376.3 1848.8 370.95 1847.7 368.15 1845.95 363.5 1845.6 359.55
L 1844.05 359.55 1844.05 359.5
Q 1844.35 358.25 1845.15 357.3 1846 356.3 1847.15 356
M 1833.3 439.55
L 1826.5 439.4
Q 1827.15 441.6 1824.25 444.2 1822.65 445.65 1819.4 447.9 1815.95 450.35 1814.5 451.55 1812.85 452.95 1809.7 456.15 1806.6 459.3 1804.85 460.75 1802.85 462.35 1797.95 465.4 1794.25 467.65 1792.3 468.65 1789.05 470.3 1786.25 471
L 1786.25 469.7
Q 1782.65 468.55 1779.2 465.55 1776.75 463.4 1773.45 459.4 1771.75 457.4 1770.75 456.8 1768.95 455.75 1765.4 455.95 1761.05 456.25 1759.7 455.95 1759.8 457.2 1759.7 459.15 1759.5 461.65 1759.5 462.35 1759.4 466.35 1761.35 468.35 1762.2 469.25 1763.8 470.15
L 1776.1 477.5
Q 1779.7 479.6 1781.7 480.05 1784.8 480.75 1789.05 479.6 1794.6 478.1 1802.95 473.25 1808.6 470.05 1811.6 467.5 1813.2 466.2 1815.8 463.55 1818.65 460.7 1819.95 459.55 1822.75 457 1828.85 452.8 1831.85 450.7 1832.7 449 1833.5 447.35 1833.35 444.4 1833.15 440.5 1833.3 439.55
M 1915.45 441.9
L 1908.85 441.8
Q 1906.85 444.7 1903.75 447.8 1901.75 449.75 1897.85 453.1
L 1865.35 481.35
Q 1864.25 479.5 1863.7 477.25 1863.4 474.5 1863 473.2 1862.5 471.55 1860.6 468.65
L 1857.4 463.9
Q 1856 461.75 1854.8 461.2 1853.85 460.75 1851.75 460.75
L 1846.7 460.7
Q 1845.1 460.7 1844.5 461.25 1843.85 461.85 1843.75 463.5 1843.4 468.7 1843.55 471.5 1843.75 475.95 1845 479.25 1846.35 482.7 1849.9 486.9 1853.15 490.65 1855.85 491.65 1857.6 492.3 1860.95 492.4 1865.3 492.5 1867.45 491.65 1868.9 491.1 1870.45 489.95 1871.4 489.25 1873.15 487.7
L 1888.35 474.05
Q 1895.95 467.2 1901.65 462.35 1909.9 455.3 1910.1 455.1 1913.15 452.35 1914.3 450.45 1916.7 446.35 1915.45 441.9 Z" stroke="none" fill="#000000"></path>

<path d="M 1852.15 357.7
Q 1849.1 355.55 1847.15 356 1846 356.3 1845.15 357.3 1844.35 358.25 1844.05 359.5
L 1844.05 359.55 1845.6 359.55
Q 1845.95 363.5 1847.7 368.15 1848.8 370.95 1851.45 376.3 1854.9 383.25 1857.35 386.8 1859.15 389.45 1863.45 394.45 1867.8 399.45 1869.85 401.65 1873.55 405.55 1876.85 408.2 1879.5 410.45 1882.05 411.65 1882.9 412.05 1883.4 412.4 1887.65 413.25 1892.65 414.05 1900.9 415.35 1905.7 415.35 1912.95 415.3 1918.15 412.7 1924.65 409.5 1930.5 400.85 1933.4 396.55 1935.7 391.8 1934.75 392.3 1933.4 393.05 1928.95 395.45 1923.4 396.05 1918.3 396.6 1912.85 395.6 1908.1 394.75 1902.75 392.7 1898.75 391.2 1893.05 388.45 1883.2 383.55 1877.8 379.65 1873.25 376.4 1865 368.7 1856.75 361 1852.15 357.7
M 1936.95 309.4
Q 1935.9546875 308.40234375 1934.75 307.8 1933.25 307.05 1931.15 306.8 1929.8 306.65 1927.3 306.7 1907.05 307.1 1881.8 308.35 1874.4 308.7 1863.55 309.35 1863.5 310.3 1863.4 311.65 1863.15 314.35 1863.5 315.8 1863.85 317.15 1865.65 319.75 1867.6 322.5 1868.65 323.8 1870.45 325.95 1872.2 327.3 1876.1 330.35 1882.2 331.45 1886.1 332.15 1893.3 332.25
L 1904.7 332.4
Q 1914.85 332.6 1920.35 331.9 1928.95 330.85 1934.9 327.3 1936.0775390625 326.569140625 1936.95 326.05
L 1936.95 309.4 Z" stroke="none" fill="#FFFFFF"></path>
</g>
</g>
</g>
</g>
</g>
</svg>
