
<svg viewBox="0 0 272 172" height="172px" width="272px" y="0px" x="0px" preserveAspectRatio="none" xmlns:xlink="http://www.w3.org/1999/xlink" version="1.1" xmlns="http://www.w3.org/2000/svg">
<defs></defs>

<g id="Layer_2">
<g>
<g>
<g>
<path d="M 63.3 140.8
Q 63.3 140.95 63.3 141.05 63.3 142.75 63.9 144.25 63.95 146.65 64.5 149 64.95 150.85 64.9 152.85 65 152.95 65.05 153.1 65.1 153.2 65.15 153.35 65.15 153.45 65.15 153.6 65.1166015625 153.9345703125 65.1 154.25 68.7248046875 154.29453125 72.35 154.25 69.6814453125 151.5263671875 67.6 148.2 67.3 147.2 66.75 146.2 65.85 144.65 64.4 143.6 64.35 143.45 64.35 143.3 64.3 143 64.3 142.65 63.7 141.75 63.3 140.8
M 188.4 136.6
Q 187.1529296875 137.1681640625 185.9 137.7 172.9609375 143.1642578125 158.7 144.85 154.289453125 145.38046875 149.9 145.6 130.701171875 146.7416015625 111.9 142.55 106.35 141.3 101.3 138.75 100.20703125 138.1927734375 99.1 137.7 97.6998046875 137.0427734375 96.3 136.5 96.05 136.2 95.9 135.9 95.8 135.8 95.7 135.7 95.15 135.5 94.45 135.25 94.4 135.15 94.35 135.05 94.25 134.95 94.15 134.85 93.15 134.45 92.05 134.25 91.05 133.4 89.9 132.75 89.65 132.65 89.6 132.8 90.640234375 135.41796875 92.05 137.7 96.69140625 145.18046875 105.35 149.05 111.534765625 151.7818359375 118 153.5 124.0890625 153.45 130.15 153.45 140.0431640625 153.419921875 149.9 153.25 154.7294921875 153.2171875 159.55 153.1 168.36171875 150.38515625 176.35 145.75 182.2609375 142.3466796875 187.25 137.7 187.8310546875 137.15859375 188.4 136.6
M 211.1 139.15
Q 211.1412109375 138.423046875 211.15 137.7 211.140234375 135.7869140625 210.85 133.9 210.3 135.8 209.85 137.7 209.05 140.95 207.35 143.8 207.35 143.95 207.35 144.1 207.2 144.55 207.25 145.05 207.25 145.2 207.25 145.35 206.9 145.9 206.55 146.5 205.9 147.7 205.6 149 205.6 149.2 205.55 149.35 204.862890625 150.573828125 204.05 151.7 207.2197265625 151.5736328125 210.35 151.4 210.4 151.0681640625 210.4 150.7 210.4 150.6 210.4 150.45 210.4 150.35 210.5 150.25 210.55 150.1 210.65 149.95 210.65 144.55 211.1 139.15
M 113 109
Q 112.9 108.9 112.9 108.8 108.7 106.1 103.65 106.55 98.45 107 94.5 110.45 93.05 111.7 92.75 113.5 94.6 116.6 98.05 118.1 101.05 119.35 103.25 118.8 104.75 118.4 106.05 119.05 112.05 120.25 115.55 116.15 115.75 115.95 115.9 115.75 115.95 115.65 115.95 115.55 115.95 115.3 116 115 116.05 114.65 116.2 114.35 116.25 114.3 116.25 114.2 116.25 114.1 116.25 114 116.25 113.9 116.2 113.8 116.1 113.6 115.95 113.4 115.95 113.3 115.95 113.2 115.95 113.1 115.95 113 115.95 112.8 115.95 112.65 115.95 112.55 115.95 112.45 115.95 112.35 115.9 112.25 115.85 112.15 115.8 112.05 115.75 111.95 115.7 111.85 115.6 111.75 115.45 111.65 115.15 111.4 114.95 111.05 114.8 110.85 114.7 110.65 114.65 110.55 114.5 110.5 114.2 110.25 114 109.9 113.85 109.7 113.75 109.5 113.65 109.4 113.55 109.35 113.35 109.3 113.15 109.2 113.05 109.1 113 109
M 172.85 109
Q 172.55 108.8 172.45 108.45 172.25 108.35 172.05 108.3 171.85 108.25 171.6 108.15 169.3 106.1 166.15 105.65 165.51328125 105.558984375 164.85 105.45 164.46328125 105.439453125 164.05 105.4 163.737890625 105.447265625 163.4 105.5 159.488671875 106.220703125 156.15 108.4 154.8 109.25 153.7 110.45 153.55 110.95 153.55 111.45 153.6 111.95 153.6 112.45 153.8 112.7 154 113 154.2 113.2 154.35 113.4 154.75 114.7 155.85 115.65 156.5 116.2 157.25 116.75 157.4 116.8 157.5 116.9 165.2 118.2 172.7 115.85 173.75 115.1 174.5 114 174.65 113.75 174.9 113.5 174.9 113.3 175 113.1 175.05 112.9 175.15 112.7 175.1 112.3 175.05 111.9 175 111.55 174.7 111.3 174.7 111.2 174.7 111.1 174.7 111 174.65 110.9 174.65 110.8 174.6 110.75 173.9 109.75 172.85 109
M 66.6 113.65
Q 66.6 114.1 66.8 114.45 67.05 117.6 67.4 120.75 67.55 122.45 67.7 124.1 69.35 124.1 71 124.45 71.1 124.45 71.25 124.5 73.8 124.2 76.4 123.85 76.3 122.3 74.55 120.75 73.3 119.6 72.5 118.1 69.9 115.05 66.95 112.35 66.7 112.9 66.55 113.5 66.6 113.6 66.6 113.65
M 80.55 96.6
Q 79.7375 94.69140625 79 92.7 78.7 91.8 78.35 90.95 78.2 94.9 78.25 98.85 78.25 101.8 78.4 104.7 79.479296875 104.409375 80.55 104.1 82.05859375 103.6470703125 83.55 103.15 81.9404296875 99.9623046875 80.55 96.6
M 204.55 116.35
Q 204.55 115.15 204.55 113.9 203.45 114.35 202.15 114.55 201.4 114.65 200.6 114.8 200.45 114.95 200.3 115.1 200.15 115.25 200 115.35 199.9 115.4 199.8 115.4 198.65 115.75 197.55 116.25 197.45 116.4 197.3 116.5 196.85 116.9 196.4 117.4 196.3 117.45 196.2 117.45 195.8 117.6 195.4 117.7 195.25 117.85 195.05 117.95 194.35 118.25 194.15 118.9 194.15 119 194.1 119.05 193.4 119.4 192.65 119.65 198.45 120.6 204.55 121.5 204.55 118.95 204.55 116.35
M 196.7 97.05
Q 196.7 96.9 196.65 96.8 195.6 98.2 194.65 99.7 193.65 101.3 192.4 102.75 192.1 102.9 191.85 103.1 191.75 103.2 191.7 103.35 194.05 104.4 197 105.65 197 105.45 197 105.3 197.15 103.55 196.7 101.95 196.7 101.05 196.7 100.2 196.7 98.6 196.7 97.05 Z" stroke="none" fill="#EE9D33"></path>

<path d="M 194.45 132.1
Q 193.5 131.9 192.5 131.8
L 192.5 131.85
Q 192.4 131.9 192.3 132 192.2 132.05 192.15 132.15 192.1 132.25 192 132.35 190.65 133.4 189.15 134.3 188.25 134.8 187.25 135.15 187.2 135.25 187.15 135.35 187.05 135.45 186.95 135.55 184.66796875 136.7029296875 182.3 137.7 174.9158203125 140.8544921875 166.9 142.45 164 143 161.15 143.45 155.5212890625 144.3416015625 149.9 144.75 134.398046875 145.9083984375 118.95 143.45 109.9611328125 142.021875 102.1 137.7 100.647265625 136.8775390625 99.2 135.95 98.75 135.9 98.3 135.8 98.2 135.75 98.15 135.7 98.1 135.6 98 135.5 97.9 135.3 97.75 135.1 97.65 135 97.55 134.9 97.25 134.85 96.9 134.75 96.75 134.7 96.55 134.65 96.45 134.55 96.35 134.45 95.45 133.7 94.2 133.6 94.05 133.6 93.9 133.55 92.5 132.55 91 131.85 90.25 131.5 89.7 130.9 88.5 130.9 87.25 130.85 87.2 130.9 87.15 131 87.15 131.05 87.15 131.15 87.15 131.25 87.15 131.35 87.15 131.55 87.15 131.75 87.15 131.85 87.15 131.95 87.25 132.05 87.3 132.15 87.35 132.25 87.4 132.35 87.4 132.45 87.4 132.55 87.45 132.75 87.55 132.95 87.6 133.05 87.65 133.15 87.65 133.25 87.65 133.35 87.65 133.45 87.65 133.55 87.65 133.75 87.7 133.9 87.7 134 87.7 134.1 88.886328125 135.9 90.05 137.7 90.2955078125 138.1 90.55 138.5 96.05 147.45 106.25 151.15 110.1201171875 152.5390625 114 153.6 116.030078125 153.5626953125 118 153.5 111.534765625 151.7818359375 105.35 149.05 96.69140625 145.18046875 92.05 137.7 90.640234375 135.41796875 89.6 132.8 89.65 132.65 89.9 132.75 91.05 133.4 92.05 134.25 93.15 134.45 94.15 134.85 94.25 134.95 94.35 135.05 94.4 135.15 94.45 135.25 95.15 135.5 95.7 135.7 95.8 135.8 95.9 135.9 96.05 136.2 96.3 136.5 97.6998046875 137.0427734375 99.1 137.7 100.20703125 138.1927734375 101.3 138.75 106.35 141.3 111.9 142.55 130.701171875 146.7416015625 149.9 145.6 154.289453125 145.38046875 158.7 144.85 172.9609375 143.1642578125 185.9 137.7 187.1529296875 137.1681640625 188.4 136.6 187.8310546875 137.15859375 187.25 137.7 182.2609375 142.3466796875 176.35 145.75 168.36171875 150.38515625 159.55 153.1 162.004296875 153.077734375 164.45 153 170.4353515625 150.9291015625 176.05 147.85 183.72421875 143.6931640625 190 137.7 190.616796875 137.133203125 191.2 136.55 191.25 136.45 191.3 136.35 191.35 136.25 191.4 136.15 191.45 136.05 191.45 135.95 191.9 135.5 192.25 135.05 192.6 134.65 193.1 134.35 193.2 134.3 193.3 134.2 193.35 134.1 193.35 134 193.4 133.9 193.45 133.8 193.45 133.7 193.5 133.6 193.8 133.3 194.1 133.05 194.4 132.8 194.45 132.4 194.5 132.3 194.5 132.2 194.5 132.1 194.45 132.1
M 114.85 108.25
Q 114.75 108.15 114.65 108.05 113.45 107.3 112.15 106.8 108.05 105.35 103.65 105.55 97.55 105.8 92.75 109.65 91.4 110.75 90.8 112.45 90.8 112.55 90.8 112.65 90.8 112.9 90.8 113.2 90.8 113.3 90.8 113.4 90.8 113.5 90.8 113.6 90.8 113.8 90.8 114 90.8 114.1 90.8 114.2 90.85 114.3 90.85 114.4 90.95 114.5 91 114.6 91.1 114.7 91.2 114.8 91.35 114.9 91.45 115 94.1 118.75 98.75 119.7 107.5 121.4 115.85 118.7 116.2 118.35 116.6 118 117 117.65 117.25 117.25 117.5 116.9 117.75 116.6 117.8 116.5 117.85 116.4 117.9 116.35 117.95 116.25 117.95 116.15 117.95 116.05 117.95 115.95 117.95 115.85 117.95 115.75 117.95 115.65 117.95 115.55 118 115.45 118.05 115.35 118.1 115.25 118.15 115.15 118.2 115.05 118.2 114.95 118.2 114.85 118.2 114.55 118.2 114.25 118.2 114.15 118.2 114.05 118.2 113.95 118.2 113.85 118.2 113.65 118.2 113.5 118.2 113.4 118.2 113.3 118.2 113.2 118.2 113.1 118.15 113 118.1 112.9 118.05 112.8 118 112.65 117.95 112.6 117.95 112.5 117.95 112.4 117.95 112.3 117.95 112.2 117.95 112.1 117.9 111.9 117.85 111.7 117.85 111.6 117.8 111.5 117.75 111.4 117.75 111.3 117.65 111.2 117.6 111.1 117.5 111 117.35 110.9 117.25 110.8 117.15 110.75 117.05 110.65 116.95 110.55 116.9 110.45 116.9 110.35 116.85 110.25 116.8 110.15 116.75 110.05 116.7 109.95 116.55 109.85 116.45 109.75 116.35 109.65 116.25 109.55 116.05 109.35 115.9 109.15 115.85 109.05 115.75 108.95 115.7 108.85 115.65 108.75 115.5 108.7 115.3 108.65 115.2 108.6 115.15 108.55 115.05 108.5 115 108.45 114.9 108.35 114.85 108.25
M 112.9 108.8
Q 112.9 108.9 113 109 113.05 109.1 113.15 109.2 113.35 109.3 113.55 109.35 113.65 109.4 113.75 109.5 113.85 109.7 114 109.9 114.2 110.25 114.5 110.5 114.65 110.55 114.7 110.65 114.8 110.85 114.95 111.05 115.15 111.4 115.45 111.65 115.6 111.75 115.7 111.85 115.75 111.95 115.8 112.05 115.85 112.15 115.9 112.25 115.95 112.35 115.95 112.45 115.95 112.55 115.95 112.65 115.95 112.8 115.95 113 115.95 113.1 115.95 113.2 115.95 113.3 115.95 113.4 116.1 113.6 116.2 113.8 116.25 113.9 116.25 114 116.25 114.1 116.25 114.2 116.25 114.3 116.2 114.35 116.05 114.65 116 115 115.95 115.3 115.95 115.55 115.95 115.65 115.9 115.75 115.75 115.95 115.55 116.15 112.05 120.25 106.05 119.05 104.75 118.4 103.25 118.8 101.05 119.35 98.05 118.1 94.6 116.6 92.75 113.5 93.05 111.7 94.5 110.45 98.45 107 103.65 106.55 108.7 106.1 112.9 108.8
M 173.6 107.5
Q 173.5 107.5 173.45 107.45 172.4 106.3 170.85 105.7 166.8 104.15 162.3 104.7 158 105.3 154.3 107.65 153 108.45 151.95 109.55 151.9 109.65 151.85 109.75 151.8 109.85 151.75 109.95 151.7 110.05 151.6 110.15 151.6 110.55 151.6 110.9 151.6 111.4 151.6 111.9 151.6 112.4 151.6 112.9 151.6 113 151.6 113.1 151.8 113.4 152.05 113.65 152.1 113.75 152.2 113.85 152.3 113.95 152.4 114.05 153.6 116.95 156.7 117.65 165.6 119.6 174.6 116.55 175.55 115.85 176.25 114.95 176.85 114.2 177.1 113.4 177.15 113.3 177.2 113.2 177.2 113.1 177.2 113 177.2 112.75 177.2 112.45 177.2 112.25 177.2 112.05 177.2 111.95 177.2 111.85 177.1 111.75 177.05 111.65 177 111.55 176.9 111.45 176.9 111.25 176.9 111.05 176.9 110.95 176.85 110.9 176.8 110.75 176.65 110.65 176.65 110.45 176.65 110.25 176.6 110.15 176.6 110.05 176.55 109.95 176.5 109.85 176.1 109.55 175.75 109.15 175.1 108.5 174.45 107.9 174.35 107.8 174.3 107.7 174.1 107.65 173.9 107.6 173.75 107.55 173.6 107.5
M 172.45 108.45
Q 172.55 108.8 172.85 109 173.9 109.75 174.6 110.75 174.65 110.8 174.65 110.9 174.7 111 174.7 111.1 174.7 111.2 174.7 111.3 175 111.55 175.05 111.9 175.1 112.3 175.15 112.7 175.05 112.9 175 113.1 174.9 113.3 174.9 113.5 174.65 113.75 174.5 114 173.75 115.1 172.7 115.85 165.2 118.2 157.5 116.9 157.4 116.8 157.25 116.75 156.5 116.2 155.85 115.65 154.75 114.7 154.35 113.4 154.2 113.2 154 113 153.8 112.7 153.6 112.45 153.6 111.95 153.55 111.45 153.55 110.95 153.7 110.45 154.8 109.25 156.15 108.4 159.488671875 106.220703125 163.4 105.5 163.737890625 105.447265625 164.05 105.4 164.46328125 105.439453125 164.85 105.45 165.51328125 105.558984375 166.15 105.65 169.3 106.1 171.6 108.15 171.85 108.25 172.05 108.3 172.25 108.35 172.45 108.45
M 180.55 76.1
Q 180.25 75.85 180 75.5 179.9 75.35 179.7 75.2 170.1 76.25 161 79 160.95 78.7 160.8 78.5 160.75 78.3 160.55 78.15 160.55 78 160.55 77.85 160.35 77.4 160.2 76.9 160.15 76.8 160.15 76.65 159.95 76.3 159.8 76 159.75 75.85 159.75 75.7 159.75 75.55 159.75 75.4 159.95 73.65 159.6 71.95 159.4 71.05 158.95 70.15 158.95 69.85 158.95 69.55 158.95 69.4 158.95 69.25 158.9 69.1 158.8 69 158.45 68.55 158.5 68 158.55 67.85 158.55 67.7 158.5 67.55 158.4 67.45 158.25 67.25 158.1 67.1 158.05 66.8 157.95 66.5 157.85 66.35 157.7 66.2 156.4 66.15 155.05 66.15 154.9 66.2 154.75 66.3 154.2 66.7 153.7 67.2 153.5 67.35 153.3 67.5 151.591015625 68.2080078125 149.9 68.95 144.6642578125 71.2912109375 139.6 74.05 139.05 74.1 138.55 74.05 138.5 74.05 138.45 73.95 138.15 72.95 137.25 72.4 137.05 72.25 136.9 72.1 136.85 71.95 136.8 71.8 136.75 71.65 136.7 71.5 136.3 71.2 135.9 70.85 135.75 70.75 135.6 70.6 134.9 69.4 134.35 68.15 134.1 67.45 133.55 66.9 133.55 66.75 133.5 66.6 132.95 65.3 132 64.15 131.55 63.6 131.4 62.9 131.1 62.8 130.8 62.65 130.75 62.65 130.65 62.6 130.55 62.5 130.5 62.4 130.35 62.25 130.25 62.1 129.15 62.05 128 62 125.5 63.65 123.3 66.05 118.5 71.3 114.6 76.95 114.1 76.55 113.5 76.2 107.35 72.5 101.7 67.9 101.15 67.75 100.6 67.55 100.4 67.5 100.25 67.4 99.2 67.35 98.1 67.4 98 67.4 97.9 67.5 97.95 68.05 97.65 68.45 97.55 68.6 97.5 68.75 97.5 69.05 97.5 69.35 97.25 73.5 97.2 77.65 97.1 82.85 97.1 88.1 91.85 87.75 86.8 86.1 83.539453125 85.0580078125 80.55 85.05 79.0927734375 85.054296875 77.7 85.3 77.15 85.25 76.65 85.25 76.65 85.4 76.65 85.55 76.4 85.6 76.2 85.65 76.4 86.05 76.55 86.5 76.35 89.25 76.35 92.05 76.35 98.6 76.35 105.15 74.4 105.55 72.45 105.85 67.4 106.6 64.3 108.9 64.75 109.85 65.35 110.65 65.05 111.5 64.8 112.4 64.35 113.8 64.85 115.1 64.95 117.5 65.25 119.85 65.6 122 65.65 124.2 65.25 124.25 64.85 124.3 62.6 124.95 60.25 125.7 60.15 125.75 60 125.8 59.95 125.85 59.95 125.95 59.25 126 58.6 126.1 59.2 126.1 59.85 126.15 59.8 126.15 59.75 126.2 59.65 126.3 59.6 126.4 59.6 126.5 59.6 126.6 59.6 126.7 59.6 126.8 59.6 126.9 59.6 127 59.6 127.05 59.6 127.1 59.55 127.1 59.45 127.15 59.4 127.15 59.4 127.3 59.4 127.45 59.4 127.6 59.4 128.1 59.4 128.55 59.4 128.7 59.4 128.85 59.9 129.2 59.85 129.75 59.8 129.9 59.8 130.1 60.05 130.4 60.3 130.7 60.45 130.85 60.55 131 60.6 131.15 60.6 131.3 60.6 131.85 60.9 132.25 60.85 133.8 60.75 135.3 60.6939453125 136.53125 60.85 137.7 61.0138671875 138.6193359375 61.3 139.5 61.5 141.1 61.45 142.7 61.4 143.85 61.95 144.9 62 146.9 62.5 148.85 63.15 151.1 62.95 153.5 63 153.6 63.1 153.75 63.15 153.85 63.15 154 63.15 154.1251953125 63.15 154.25 64.1380859375 154.2576171875 65.1 154.25 65.1166015625 153.9345703125 65.15 153.6 65.15 153.45 65.15 153.35 65.1 153.2 65.05 153.1 65 152.95 64.9 152.85 64.95 150.85 64.5 149 63.95 146.65 63.9 144.25 63.3 142.75 63.3 141.05 63.3 140.95 63.3 140.8 63.7 141.75 64.3 142.65 64.3 143 64.35 143.3 64.35 143.45 64.4 143.6 65.85 144.65 66.75 146.2 67.3 147.2 67.6 148.2 69.6814453125 151.5263671875 72.35 154.25 73.887109375 154.283203125 75.4 154.25 72.26484375 151.2216796875 69.65 147.6 69.65 147.45 69.6 147.3 69.6 147.15 69.55 146.95 68.45 145.95 67.8 144.55 67.35 143.55 66.45 143 66.4 142.65 66.4 142.35 66.35 142.2 66.35 142.05 65.25 140.15 64.65 138.05 64.5958984375 137.8740234375 64.55 137.7 63.9642578125 135.946484375 63.1 134.4 63.1 134.05 63.1 133.75 63.1 133 63.1 132.25 63.1 132.05 63.1 131.9 63.05 131.75 63 131.6 62.95 131.4 62.85 131.25 62.85 131.1 62.85 130.95 62.75 130.85 62.7 130.7 62.65 130.6 62.6 130.5 62.6 130.25 62.6 130 62.6 129.15 62.6 128.25 62.6 128.15 62.6 128
L 62.6 127.9
Q 62.2 127.85 61.85 127.85 61.85 127.75 61.85 127.65 61.85 127.45 61.8 127.25 61.8 127.05 61.85 126.85 61.85 126.75 61.9 126.65 62.5 126.35 63.1 126.15 67.55 126.1 72.4 125.75 76.55 125.4 79.05 123.75 78 121.5 76.45 119.45 72.5 114.45 67.75 110.35 67.9 109.85 67.85 109.35
L 67.85 109.25
Q 67.35 109.15 66.85 109.15 66.8 109.05 66.7 108.95 66.55 108.85 66.45 108.7 73.9017578125 107.4400390625 80.55 105.3 83.1357421875 104.5021484375 85.6 103.55 85.6 103.4 85.6 103.25 85.6 102.8 85.6 102.35 85.55 102.15 85.5 102 83.65 99.15 82.4 95.95 81.446484375 93.397265625 80.55 90.8 79.9888671875 89.2166015625 79.45 87.6 79.2 87.3 78.95 86.95 78.85 86.8 78.75 86.65 78.7 86.35 78.6 86.05
L 78.6 86
Q 78.6 85.9 78.6 85.8 79.5765625 86.05703125 80.55 86.3 89.99375 88.5734375 99.15 88.8 99.15 88.5 99.15 88.2 99.15 84.05 99.1 79.9 99.05 74.2 99.85 68.85 100.6 69.35 101.35 69.85 103.5 71.35 105.7 72.75 106.2 73.4 106.85 73.9 110.05 76.05 113.25 78.05 115.05 77.9 116.85 77.75 118.1 75.5 119.65 73.45 123.65 68.15 128.5 63.6 128.95 63.55 129.35 63.6 129.4 63.6 129.45 63.7 129.5 63.9 129.55 64 130.1 65.2 130.95 66.2 131.2 66.5 131.4 66.8 131.45 66.95 131.45 67.1 131.5 67.25 131.5 67.4 132.45 68.5 132.9 69.85 133.15 70.5 133.45 71.1 134.15 71.65 134.7 72.4 134.75 72.5 134.75 72.65 135.75 73.4 136.35 74.5 136.4 74.65 136.4 74.8 136.75 74.9 137.1 75 137.2 75.05 137.25 75.1 137.3 75.2 137.35 75.3 137.5 75.45 137.65 75.6 138.85 75.65 140.1 75.65
L 140.1 75.6
Q 144.9904296875 72.7703125 149.9 70.45 152.9712890625 69.0314453125 156.05 67.8 156.55 68.15 156.5 68.75 156.5 68.9 156.5 69.05 156.6 69.2 156.7 69.35 156.8 69.5 156.9 69.65 156.9 70.1 156.9 70.6 156.9 70.75 156.9 70.9 157.05 71.2 157.1 71.5 157.25 72.45 157.55 73.35 157.6 73.5 157.7 73.65 157.7 74.1 157.7 74.6 157.7 75.35 157.7 76.1 157.7 76.25 157.7 76.4 157.9 76.9 158.05 77.35 158.1 77.5 158.1 77.65 158.2 77.8 158.3 77.95 158.6 78.9 159.05 79.8 159.15 79.95 159.25 80.1 168.85 78.3 178.2 76.4 178.8 76.7 178.65 77.35 178.6 77.5 178.6 77.65 179.3 80.45 179.15 83.5 179 86.4 179 89.3 186.05 89.6 193.15 89.85 194.15 90.4 195.3 90.6
L 195.3 90.65
Q 195.35 90.7 195.45 90.8 195.15 90.75 194.85 90.75 195.05 92.35 195.7 93.9 195.55 94 195.4 94.15 195.35 94.6 195.25 95.05 195.25 95.2 195.2 95.35 193.95 97.1 192.75 98.8 190.9 101.4 189.25 103.65 196.95 106.85 204.6 111.85 203.85 112.2 203.3 112.5 201.2 113.65 198.75 114.1 197.8 114.8 196.65 115.15 195.3 115.6 194.35 116.65 193.95 116.75 193.55 116.85 192.85 117.4 192.25 118.05 192.15 118.15 192.1 118.3 191.6 118.4 191.1 118.55 191.05 118.55 191 118.6 190.9 118.7 190.8 118.8 190.15 119.35 189.7 120.1 189.65 120.2 189.65 120.35 199.9 121.7 210.15 123.3 210.15 123.45 210.15 123.65 210.15 125.3 210.15 127 210.15 127.95 210.15 128.85 208.95 131.85 208.25 134.95 207.91796875 136.3443359375 207.5 137.7 206.65234375 140.428125 205.45 143 205.3 144.8 204.35 146.35 203.7 147.5 203.5 148.8 202.55 150 201.85 151.3 201.70703125 151.557421875 201.55 151.8 202.8162109375 151.770703125 204.05 151.7 204.862890625 150.573828125 205.55 149.35 205.6 149.2 205.6 149 205.9 147.7 206.55 146.5 206.9 145.9 207.25 145.35 207.25 145.2 207.25 145.05 207.2 144.55 207.35 144.1 207.35 143.95 207.35 143.8 209.05 140.95 209.85 137.7 210.3 135.8 210.85 133.9 211.140234375 135.7869140625 211.15 137.7 211.1412109375 138.423046875 211.1 139.15 210.65 144.55 210.65 149.95 210.55 150.1 210.5 150.25 210.4 150.35 210.4 150.45 210.4 150.6 210.4 150.7 210.4 151.0681640625 210.35 151.4 211.3671875 151.3732421875 212.35 151.3 212.35 151.26015625 212.35 151.2 212.35 151.1 212.35 150.95 212.45 150.85 212.5 150.7 212.55 150.6 212.6 150.45 212.6 148.85 212.6 147.25 212.6 145.9 212.6 144.55 213.3 141.35 213.1 137.95 213.09296875 137.825 213.05 137.7 212.7419921875 131.5259765625 212.35 125.4 212.35 125.3 212.35 125.25 212.25 125.25 212.2 125.25 212.2 123.95 212.2 122.6 209.35 122.2 206.55 121.8 206.55 119.9 206.55 118 206.55 115.35 206.55 112.75 206.9 112.4 207.25 112.05 204.7 108.95 200.75 107.25 199.85 106.85 198.95 106.5 198.95 105.05 199 103.6 199.05 102.45 198.65 101.45 198.65 99.75 198.75 98.1 198.8 96.95 198.4 95.9 198.5 94.85 198.2 93.9 198.4 93.55 198.55 93.2 198.6 93.05 198.65 92.9 198.65 92.6 198.65 92.3 198.65 91.7 198.65 91.05 198.6 90.9 198.55 90.75 198.2 90.65 197.85 90.55 197.85 90.5 197.8 90.5 197.7 90.35 197.55 90.2 197.45 90.1 197.35 89.95 196.4 89.65 195.5 89.3 195.25 89.2 195 89.1 188 88.85 181.05 88.6 181.05 85.85 181.05 83.1 181.05 80.45 181.05 77.85 181 77.7 180.9 77.6 180.6 77.15 180.65 76.6 180.65 76.45 180.65 76.3 180.65 76.15 180.55 76.1
M 196.65 96.8
Q 196.7 96.9 196.7 97.05 196.7 98.6 196.7 100.2 196.7 101.05 196.7 101.95 197.15 103.55 197 105.3 197 105.45 197 105.65 194.05 104.4 191.7 103.35 191.75 103.2 191.85 103.1 192.1 102.9 192.4 102.75 193.65 101.3 194.65 99.7 195.6 98.2 196.65 96.8
M 204.55 113.9
Q 204.55 115.15 204.55 116.35 204.55 118.95 204.55 121.5 198.45 120.6 192.65 119.65 193.4 119.4 194.1 119.05 194.15 119 194.15 118.9 194.35 118.25 195.05 117.95 195.25 117.85 195.4 117.7 195.8 117.6 196.2 117.45 196.3 117.45 196.4 117.4 196.85 116.9 197.3 116.5 197.45 116.4 197.55 116.25 198.65 115.75 199.8 115.4 199.9 115.4 200 115.35 200.15 115.25 200.3 115.1 200.45 114.95 200.6 114.8 201.4 114.65 202.15 114.55 203.45 114.35 204.55 113.9
M 79 92.7
Q 79.7375 94.69140625 80.55 96.6 81.9404296875 99.9623046875 83.55 103.15 82.05859375 103.6470703125 80.55 104.1 79.479296875 104.409375 78.4 104.7 78.25 101.8 78.25 98.85 78.2 94.9 78.35 90.95 78.7 91.8 79 92.7
M 66.8 114.45
Q 66.6 114.1 66.6 113.65 66.6 113.6 66.55 113.5 66.7 112.9 66.95 112.35 69.9 115.05 72.5 118.1 73.3 119.6 74.55 120.75 76.3 122.3 76.4 123.85 73.8 124.2 71.25 124.5 71.1 124.45 71 124.45 69.35 124.1 67.7 124.1 67.55 122.45 67.4 120.75 67.05 117.6 66.8 114.45 Z" stroke="none" fill="#000000"></path>

<path d="M 178.6 77.65
Q 178.6 77.5 178.65 77.35 178.8 76.7 178.2 76.4 168.85 78.3 159.25 80.1 159.15 79.95 159.05 79.8 158.6 78.9 158.3 77.95 158.2 77.8 158.1 77.65 158.1 77.5 158.05 77.35 157.9 76.9 157.7 76.4 157.7 76.25 157.7 76.1 157.7 75.35 157.7 74.6 157.7 74.1 157.7 73.65 157.6 73.5 157.55 73.35 157.25 72.45 157.1 71.5 157.05 71.2 156.9 70.9 156.9 70.75 156.9 70.6 156.9 70.1 156.9 69.65 156.8 69.5 156.7 69.35 156.6 69.2 156.5 69.05 156.5 68.9 156.5 68.75 156.55 68.15 156.05 67.8 152.9712890625 69.0314453125 149.9 70.45 144.9904296875 72.7703125 140.1 75.6
L 140.1 75.65
Q 138.85 75.65 137.65 75.6 137.5 75.45 137.35 75.3 137.3 75.2 137.25 75.1 137.2 75.05 137.1 75 136.75 74.9 136.4 74.8 136.4 74.65 136.35 74.5 135.75 73.4 134.75 72.65 134.75 72.5 134.7 72.4 134.15 71.65 133.45 71.1 133.15 70.5 132.9 69.85 132.45 68.5 131.5 67.4 131.5 67.25 131.45 67.1 131.45 66.95 131.4 66.8 131.2 66.5 130.95 66.2 130.1 65.2 129.55 64 129.5 63.9 129.45 63.7 129.4 63.6 129.35 63.6 128.95 63.55 128.5 63.6 123.65 68.15 119.65 73.45 118.1 75.5 116.85 77.75 115.05 77.9 113.25 78.05 110.05 76.05 106.85 73.9 106.2 73.4 105.7 72.75 103.5 71.35 101.35 69.85 100.6 69.35 99.85 68.85 99.05 74.2 99.1 79.9 99.15 84.05 99.15 88.2 99.15 88.5 99.15 88.8 89.99375 88.5734375 80.55 86.3 79.5765625 86.05703125 78.6 85.8 78.6 85.9 78.6 86
L 78.6 86.05
Q 78.7 86.35 78.75 86.65 78.85 86.8 78.95 86.95 79.2 87.3 79.45 87.6 79.9888671875 89.2166015625 80.55 90.8 81.446484375 93.397265625 82.4 95.95 83.65 99.15 85.5 102 85.55 102.15 85.6 102.35 85.6 102.8 85.6 103.25 85.6 103.4 85.6 103.55 83.1357421875 104.5021484375 80.55 105.3 73.9017578125 107.4400390625 66.45 108.7 66.55 108.85 66.7 108.95 66.8 109.05 66.85 109.15 67.35 109.15 67.85 109.25
L 67.85 109.35
Q 67.9 109.85 67.75 110.35 72.5 114.45 76.45 119.45 78 121.5 79.05 123.75 76.55 125.4 72.4 125.75 67.55 126.1 63.1 126.15 62.5 126.35 61.9 126.65 61.85 126.75 61.85 126.85 61.8 127.05 61.8 127.25 61.85 127.45 61.85 127.65 61.85 127.75 61.85 127.85 62.2 127.85 62.6 127.9
L 62.6 128
Q 62.6 128.15 62.6 128.25 62.6 129.15 62.6 130 62.6 130.25 62.6 130.5 62.65 130.6 62.7 130.7 62.75 130.85 62.85 130.95 62.85 131.1 62.85 131.25 62.95 131.4 63 131.6 63.05 131.75 63.1 131.9 63.1 132.05 63.1 132.25 63.1 133 63.1 133.75 63.1 134.05 63.1 134.4 63.9642578125 135.946484375 64.55 137.7 64.5958984375 137.8740234375 64.65 138.05 65.25 140.15 66.35 142.05 66.35 142.2 66.4 142.35 66.4 142.65 66.45 143 67.35 143.55 67.8 144.55 68.45 145.95 69.55 146.95 69.6 147.15 69.6 147.3 69.65 147.45 69.65 147.6 72.26484375 151.2216796875 75.4 154.25 77.980859375 154.267578125 80.55 154.25 92.873046875 154.15703125 105.5 153.8 109.76328125 153.6787109375 114 153.6 110.1201171875 152.5390625 106.25 151.15 96.05 147.45 90.55 138.5 90.2955078125 138.1 90.05 137.7 88.886328125 135.9 87.7 134.1 87.7 134 87.7 133.9 87.65 133.75 87.65 133.55 87.65 133.45 87.65 133.35 87.65 133.25 87.65 133.15 87.6 133.05 87.55 132.95 87.45 132.75 87.4 132.55 87.4 132.45 87.4 132.35 87.35 132.25 87.3 132.15 87.25 132.05 87.15 131.95 87.15 131.85 87.15 131.75 87.15 131.55 87.15 131.35 87.15 131.25 87.15 131.15 87.15 131.05 87.15 131 87.2 130.9 87.25 130.85 88.5 130.9 89.7 130.9 90.25 131.5 91 131.85 92.5 132.55 93.9 133.55 94.05 133.6 94.2 133.6 95.45 133.7 96.35 134.45 96.45 134.55 96.55 134.65 96.75 134.7 96.9 134.75 97.25 134.85 97.55 134.9 97.65 135 97.75 135.1 97.9 135.3 98 135.5 98.1 135.6 98.15 135.7 98.2 135.75 98.3 135.8 98.75 135.9 99.2 135.95 100.647265625 136.8775390625 102.1 137.7 109.9611328125 142.021875 118.95 143.45 134.398046875 145.9083984375 149.9 144.75 155.5212890625 144.3416015625 161.15 143.45 164 143 166.9 142.45 174.9158203125 140.8544921875 182.3 137.7 184.66796875 136.7029296875 186.95 135.55 187.05 135.45 187.15 135.35 187.2 135.25 187.25 135.15 188.25 134.8 189.15 134.3 190.65 133.4 192 132.35 192.1 132.25 192.15 132.15 192.2 132.05 192.3 132 192.4 131.9 192.5 131.85
L 192.5 131.8
Q 193.5 131.9 194.45 132.1 194.5 132.1 194.5 132.2 194.5 132.3 194.45 132.4 194.4 132.8 194.1 133.05 193.8 133.3 193.5 133.6 193.45 133.7 193.45 133.8 193.4 133.9 193.35 134 193.35 134.1 193.3 134.2 193.2 134.3 193.1 134.35 192.6 134.65 192.25 135.05 191.9 135.5 191.45 135.95 191.45 136.05 191.4 136.15 191.35 136.25 191.3 136.35 191.25 136.45 191.2 136.55 190.616796875 137.133203125 190 137.7 183.72421875 143.6931640625 176.05 147.85 170.4353515625 150.9291015625 164.45 153 183.08203125 152.615234375 201.55 151.8 201.70703125 151.557421875 201.85 151.3 202.55 150 203.5 148.8 203.7 147.5 204.35 146.35 205.3 144.8 205.45 143 206.65234375 140.428125 207.5 137.7 207.91796875 136.3443359375 208.25 134.95 208.95 131.85 210.15 128.85 210.15 127.95 210.15 127 210.15 125.3 210.15 123.65 210.15 123.45 210.15 123.3 199.9 121.7 189.65 120.35 189.65 120.2 189.7 120.1 190.15 119.35 190.8 118.8 190.9 118.7 191 118.6 191.05 118.55 191.1 118.55 191.6 118.4 192.1 118.3 192.15 118.15 192.25 118.05 192.85 117.4 193.55 116.85 193.95 116.75 194.35 116.65 195.3 115.6 196.65 115.15 197.8 114.8 198.75 114.1 201.2 113.65 203.3 112.5 203.85 112.2 204.6 111.85 196.95 106.85 189.25 103.65 190.9 101.4 192.75 98.8 193.95 97.1 195.2 95.35 195.25 95.2 195.25 95.05 195.35 94.6 195.4 94.15 195.55 94 195.7 93.9 195.05 92.35 194.85 90.75 195.15 90.75 195.45 90.8 195.35 90.7 195.3 90.65
L 195.3 90.6
Q 194.15 90.4 193.15 89.85 186.05 89.6 179 89.3 179 86.4 179.15 83.5 179.3 80.45 178.6 77.65
M 173.45 107.45
Q 173.5 107.5 173.6 107.5 173.75 107.55 173.9 107.6 174.1 107.65 174.3 107.7 174.35 107.8 174.45 107.9 175.1 108.5 175.75 109.15 176.1 109.55 176.5 109.85 176.55 109.95 176.6 110.05 176.6 110.15 176.65 110.25 176.65 110.45 176.65 110.65 176.8 110.75 176.85 110.9 176.9 110.95 176.9 111.05 176.9 111.25 176.9 111.45 177 111.55 177.05 111.65 177.1 111.75 177.2 111.85 177.2 111.95 177.2 112.05 177.2 112.25 177.2 112.45 177.2 112.75 177.2 113 177.2 113.1 177.2 113.2 177.15 113.3 177.1 113.4 176.85 114.2 176.25 114.95 175.55 115.85 174.6 116.55 165.6 119.6 156.7 117.65 153.6 116.95 152.4 114.05 152.3 113.95 152.2 113.85 152.1 113.75 152.05 113.65 151.8 113.4 151.6 113.1 151.6 113 151.6 112.9 151.6 112.4 151.6 111.9 151.6 111.4 151.6 110.9 151.6 110.55 151.6 110.15 151.7 110.05 151.75 109.95 151.8 109.85 151.85 109.75 151.9 109.65 151.95 109.55 153 108.45 154.3 107.65 158 105.3 162.3 104.7 166.8 104.15 170.85 105.7 172.4 106.3 173.45 107.45
M 114.65 108.05
Q 114.75 108.15 114.85 108.25 114.9 108.35 115 108.45 115.05 108.5 115.15 108.55 115.2 108.6 115.3 108.65 115.5 108.7 115.65 108.75 115.7 108.85 115.75 108.95 115.85 109.05 115.9 109.15 116.05 109.35 116.25 109.55 116.35 109.65 116.45 109.75 116.55 109.85 116.7 109.95 116.75 110.05 116.8 110.15 116.85 110.25 116.9 110.35 116.9 110.45 116.95 110.55 117.05 110.65 117.15 110.75 117.25 110.8 117.35 110.9 117.5 111 117.6 111.1 117.65 111.2 117.75 111.3 117.75 111.4 117.8 111.5 117.85 111.6 117.85 111.7 117.9 111.9 117.95 112.1 117.95 112.2 117.95 112.3 117.95 112.4 117.95 112.5 117.95 112.6 118 112.65 118.05 112.8 118.1 112.9 118.15 113 118.2 113.1 118.2 113.2 118.2 113.3 118.2 113.4 118.2 113.5 118.2 113.65 118.2 113.85 118.2 113.95 118.2 114.05 118.2 114.15 118.2 114.25 118.2 114.55 118.2 114.85 118.2 114.95 118.2 115.05 118.15 115.15 118.1 115.25 118.05 115.35 118 115.45 117.95 115.55 117.95 115.65 117.95 115.75 117.95 115.85 117.95 115.95 117.95 116.05 117.95 116.15 117.95 116.25 117.9 116.35 117.85 116.4 117.8 116.5 117.75 116.6 117.5 116.9 117.25 117.25 117 117.65 116.6 118 116.2 118.35 115.85 118.7 107.5 121.4 98.75 119.7 94.1 118.75 91.45 115 91.35 114.9 91.2 114.8 91.1 114.7 91 114.6 90.95 114.5 90.85 114.4 90.85 114.3 90.8 114.2 90.8 114.1 90.8 114 90.8 113.8 90.8 113.6 90.8 113.5 90.8 113.4 90.8 113.3 90.8 113.2 90.8 112.9 90.8 112.65 90.8 112.55 90.8 112.45 91.4 110.75 92.75 109.65 97.55 105.8 103.65 105.55 108.05 105.35 112.15 106.8 113.45 107.3 114.65 108.05 Z" stroke="none" fill="#FDDF5E"></path>
</g>
</g>
</g>
</g>
</svg>
