
<svg viewBox="0 0 272 172" height="172px" width="272px" y="0px" x="0px" preserveAspectRatio="none" xmlns:xlink="http://www.w3.org/1999/xlink" version="1.1" xmlns="http://www.w3.org/2000/svg">
<defs></defs>

<g id="Layer_2">
<g>
<g>
<g>
<path d="M 78.35 154.25
Q 78.36328125 154.232421875 78.35 154.2 78.3486328125 154.2375 78.35 154.25
L 78.35 154.25 Z" stroke="none" fill="#EE9D33"></path>

<path d="M 178.65 140.6
Q 178.6 140.75 178.6 140.9 179.3 143.7 179.15 146.75 179 149.65 179 152.55 179.637109375 152.5771484375 180.25 152.6 185.85625 152.4318359375 191.4 152.2 186.22109375 152.0359375 181.05 151.85 181.05 149.1 181.05 146.35 181.05 143.7 181.05 141.1 181 140.95 180.9 140.85 180.6 140.4 180.65 139.85 180.65 139.7 180.65 139.55 180.65 139.4 180.55 139.35 180.25 139.1 180 138.75 179.9 138.6 179.7 138.45 170.1 139.5 161 142.25 160.95 141.95 160.8 141.75 160.75 141.55 160.55 141.4 160.55 141.25 160.55 141.1 160.35 140.65 160.2 140.15 160.15 140.05 160.15 139.9 159.95 139.55 159.8 139.25 159.75 139.1 159.75 138.95 159.75 138.8 159.75 138.65 159.8044921875 138.1732421875 159.8 137.7 159.8546875 136.43671875 159.6 135.2 159.4 134.3 158.95 133.4 158.95 133.1 158.95 132.8 158.95 132.65 158.95 132.5 158.9 132.35 158.8 132.25 158.45 131.8 158.5 131.25 158.55 131.1 158.55 130.95 158.5 130.8 158.4 130.7 158.25 130.5 158.1 130.35 158.05 130.05 157.95 129.75 157.85 129.6 157.7 129.45 156.4 129.4 155.05 129.4 154.9 129.45 154.75 129.55 154.2 129.95 153.7 130.45 153.5 130.6 153.3 130.75 151.591015625 131.4580078125 149.9 132.2 144.6642578125 134.5412109375 139.6 137.3 139.05 137.35 138.55 137.3 138.5 137.3 138.45 137.2 138.15 136.2 137.25 135.65 137.05 135.5 136.9 135.35 136.85 135.2 136.8 135.05 136.75 134.9 136.7 134.75 136.3 134.45 135.9 134.1 135.75 134 135.6 133.85 134.9 132.65 134.35 131.4 134.1 130.7 133.55 130.15 133.55 130 133.5 129.85 132.95 128.55 132 127.4 131.55 126.85 131.4 126.15 131.1 126.05 130.8 125.9 130.75 125.9 130.65 125.85 130.55 125.75 130.5 125.65 130.35 125.5 130.25 125.35 129.15 125.3 128 125.25 125.5 126.9 123.3 129.3 119.5705078125 133.379296875 116.35 137.7 115.4697265625 138.9400390625 114.6 140.2 114.1 139.8 113.5 139.45 112.0853515625 138.5990234375 110.7 137.7 106.050390625 134.6919921875 101.7 131.15 101.15 131 100.6 130.8 100.4 130.75 100.25 130.65 99.2 130.6 98.1 130.65 98 130.65 97.9 130.75 97.95 131.3 97.65 131.7 97.55 131.85 97.5 132 97.5 132.3 97.5 132.6 97.3462890625 135.15 97.25 137.7 97.2193359375 139.3 97.2 140.9 97.1 146.1 97.1 151.35 91.85 151 86.8 149.35 83.539453125 148.3080078125 80.55 148.3 79.0927734375 148.304296875 77.7 148.55 77.15 148.5 76.65 148.5 76.65 148.65 76.65 148.8 76.4 148.85 76.2 148.9 76.4 149.3 76.55 149.75 76.386328125 152 76.35 154.25 77.351171875 154.28046875 78.35 154.25 78.3486328125 154.2375 78.35 154.2 78.36328125 154.232421875 78.35 154.25 79.45625 154.26796875 80.55 154.25 80.5875 154.2505859375 80.6 154.25 80.5873046875 154.144921875 80.55 154.05 79.983984375 152.4521484375 79.45 150.85 79.2 150.55 78.95 150.2 78.85 150.05 78.75 149.9 78.7 149.6 78.6 149.3
L 78.6 149.25
Q 78.6 149.15 78.6 149.05 79.5765625 149.30703125 80.55 149.55 89.99375 151.8234375 99.15 152.05 99.15 151.75 99.15 151.45 99.15 147.3 99.1 143.15 99.07578125 140.3837890625 99.25 137.7 99.43828125 134.8537109375 99.85 132.1 100.6 132.6 101.35 133.1 103.5 134.6 105.7 136 106.2 136.65 106.85 137.15 107.2611328125 137.426171875 107.65 137.7 110.4611328125 139.55703125 113.25 141.3 115.05 141.15 116.85 141 117.7986328125 139.2923828125 118.9 137.7 119.2763671875 137.194140625 119.65 136.7 123.65 131.4 128.5 126.85 128.95 126.8 129.35 126.85 129.4 126.85 129.45 126.95 129.5 127.15 129.55 127.25 130.1 128.45 130.95 129.45 131.2 129.75 131.4 130.05 131.45 130.2 131.45 130.35 131.5 130.5 131.5 130.65 132.45 131.75 132.9 133.1 133.15 133.75 133.45 134.35 134.15 134.9 134.7 135.65 134.75 135.75 134.75 135.9 135.7271484375 136.6328125 136.3 137.7 136.336328125 137.725 136.35 137.75 136.4 137.9 136.4 138.05 136.75 138.15 137.1 138.25 137.2 138.3 137.25 138.35 137.3 138.45 137.35 138.55 137.5 138.7 137.65 138.85 138.85 138.9 140.1 138.9
L 140.1 138.85
Q 141.1134765625 138.263671875 142.1 137.7 146.0078125 135.5447265625 149.9 133.7 152.9712890625 132.2814453125 156.05 131.05 156.55 131.4 156.5 132 156.5 132.15 156.5 132.3 156.6 132.45 156.7 132.6 156.8 132.75 156.9 132.9 156.9 133.35 156.9 133.85 156.9 134 156.9 134.15 157.05 134.45 157.1 134.75 157.25 135.7 157.55 136.6 157.6 136.75 157.7 136.9 157.7 137.2818359375 157.7 137.7 157.7 137.7744140625 157.7 137.85 157.7 138.6 157.7 139.35 157.7 139.5 157.7 139.65 157.9 140.15 158.05 140.6 158.1 140.75 158.1 140.9 158.2 141.05 158.3 141.2 158.6 142.15 159.05 143.05 159.15 143.2 159.25 143.35 168.85 141.55 178.2 139.65 178.8 139.95 178.65 140.6 Z" stroke="none" fill="#000000"></path>

<path d="M 178.6 140.9
Q 178.6 140.75 178.65 140.6 178.8 139.95 178.2 139.65 168.85 141.55 159.25 143.35 159.15 143.2 159.05 143.05 158.6 142.15 158.3 141.2 158.2 141.05 158.1 140.9 158.1 140.75 158.05 140.6 157.9 140.15 157.7 139.65 157.7 139.5 157.7 139.35 157.7 138.6 157.7 137.85 157.7 137.7744140625 157.7 137.7 157.7 137.2818359375 157.7 136.9 157.6 136.75 157.55 136.6 157.25 135.7 157.1 134.75 157.05 134.45 156.9 134.15 156.9 134 156.9 133.85 156.9 133.35 156.9 132.9 156.8 132.75 156.7 132.6 156.6 132.45 156.5 132.3 156.5 132.15 156.5 132 156.55 131.4 156.05 131.05 152.9712890625 132.2814453125 149.9 133.7 146.0078125 135.5447265625 142.1 137.7 141.1134765625 138.263671875 140.1 138.85
L 140.1 138.9
Q 138.85 138.9 137.65 138.85 137.5 138.7 137.35 138.55 137.3 138.45 137.25 138.35 137.2 138.3 137.1 138.25 136.75 138.15 136.4 138.05 136.4 137.9 136.35 137.75 136.336328125 137.725 136.3 137.7 135.7271484375 136.6328125 134.75 135.9 134.75 135.75 134.7 135.65 134.15 134.9 133.45 134.35 133.15 133.75 132.9 133.1 132.45 131.75 131.5 130.65 131.5 130.5 131.45 130.35 131.45 130.2 131.4 130.05 131.2 129.75 130.95 129.45 130.1 128.45 129.55 127.25 129.5 127.15 129.45 126.95 129.4 126.85 129.35 126.85 128.95 126.8 128.5 126.85 123.65 131.4 119.65 136.7 119.2763671875 137.194140625 118.9 137.7 117.7986328125 139.2923828125 116.85 141 115.05 141.15 113.25 141.3 110.4611328125 139.55703125 107.65 137.7 107.2611328125 137.426171875 106.85 137.15 106.2 136.65 105.7 136 103.5 134.6 101.35 133.1 100.6 132.6 99.85 132.1 99.43828125 134.8537109375 99.25 137.7 99.07578125 140.3837890625 99.1 143.15 99.15 147.3 99.15 151.45 99.15 151.75 99.15 152.05 89.99375 151.8234375 80.55 149.55 79.5765625 149.30703125 78.6 149.05 78.6 149.15 78.6 149.25
L 78.6 149.3
Q 78.7 149.6 78.75 149.9 78.85 150.05 78.95 150.2 79.2 150.55 79.45 150.85 79.983984375 152.4521484375 80.55 154.05 80.5873046875 154.144921875 80.6 154.25 92.90859375 154.1560546875 105.5 153.8 117.8 153.45 130.15 153.45 140.044140625 153.419921875 149.9 153.25 165.1330078125 153.06953125 180.25 152.6 179.637109375 152.5771484375 179 152.55 179 149.65 179.15 146.75 179.3 143.7 178.6 140.9 Z" stroke="none" fill="#FDDF5E"></path>
</g>
</g>
</g>
</g>
</svg>
