
<svg viewBox="0 0 112 184" height="184px" width="112px" y="0px" x="0px" preserveAspectRatio="none" xmlns:xlink="http://www.w3.org/1999/xlink" version="1.1" xmlns="http://www.w3.org/2000/svg">
<defs></defs>

<g id="fun_scrollers">
<g transform="matrix( 0.3621063232421875, 0, 0, 0.3621063232421875, -594.2,0.1)" id="svg"></g>

<g transform="matrix( 0.3621063232421875, 0, 0, 0.3621063232421875, -594.2,0.1)" id="Layer_2"></g>

<g transform="matrix( 0.3621063232421875, 0, 0, 0.3621063232421875, -594.2,0.1)" id="Layer_3"></g>

<g transform="matrix( 0.3621063232421875, 0, 0, 0.3621063232421875, -594.2,0.1)" id="Layer_2">
<g>
<g>
<g>
<path d="M 1647.8 117.35
L 1647.45 117.35 1646.8 117.35
Q 1647.65 122 1647.7 124.15 1647.85 127.7 1646.85 130.85 1642.5 132.05 1640.55 132.3
L 1640.55 132.75
Q 1642.2916015625 133.046484375 1644.05 133.7 1644.6787109375 133.928125 1645.3 134.2
L 1647.85 135.65
Q 1656.55 140.65 1661.7 147.4 1666.75 154.8 1669.1 163.75 1671.2 171.65 1671.25 181.6
L 1671.3 184.15
Q 1671.3 196.45 1670.35 218.3
L 1668.95 248.3
Q 1668.75 252.95 1668.15 256.8 1667.7 259.7 1667.4 262.55
L 1665.9 290.7
Q 1664.55 316.65 1664.05 347.85 1663.75 370.65 1663.75 405.05
L 1663.75 434.85
Q 1663.8 443.4 1663.35 447.65 1661.65 451.55 1660.8 452.7 1660.05 453.9 1657 456.95
L 1652.2 461.8 1650.45 465.3 1650.3 465.6
Q 1649.94375 465.666015625 1649.55 465.7 1644.76328125 466.518359375 1636.1 466.75
L 1630.2 466.75 1630.2 474.15
Q 1639.6701171875 473.6828125 1647.4 472.35 1653.6 470.75 1658.05 467.55 1661.9 464.85 1666.45 459.4 1670.3 452.8 1670.95 447.7 1671.55 442.55 1671.25 418.45
L 1671 399.75
Q 1670.7 365.1 1671.1 340.5 1671.6 308.5 1673.35 281.35 1674.7 261 1676 233.45
L 1677.25 208.1
Q 1678.35 188.15 1677.65 178.1 1676.5 161.6 1671.05 149 1667.8 142.8 1664.75 139 1660.8 134 1655.85 131.35 1651.25 129.05 1648.8 126.95 1648.5958984375 126.4103515625 1648.45 125.95 1648.05625 124.925 1647.95 124.5 1647.85 123.85 1647.75 121.85
L 1647.75 119.7 1647.8 117.35 Z" stroke="none" fill="#706C84"></path>

<path d="M 1632 48.45
Q 1631.0990234375 47.8919921875 1630.2 47.35
L 1630.2 57.45
Q 1635.0470703125 62.1009765625 1635.8 66.2 1635.95 66.95 1636.05 67.8
L 1630.2 67.9 1630.2 73.5
Q 1633.3947265625 74.0224609375 1636.15 75.4 1636.9 77 1637.15 78.65 1637.25 79.5 1637.35 82.1
L 1637.5 88.3
Q 1637.95 102.5 1640.55 115.95 1641.45 121.55 1641.15 125.4
L 1639.3 127.35
Q 1635.9 127.6 1631.2 127.65
L 1630.2 127.65 1630.2 132.7 1635.3 132.75
Q 1637.95 132.7 1638.8 132.75 1639.65 132.8 1642.1 133.15 1642.75 133.4 1643.4 133.7
L 1644.05 133.7
Q 1642.2916015625 133.046484375 1640.55 132.75
L 1640.55 132.3
Q 1642.5 132.05 1646.85 130.85 1647.85 127.7 1647.7 124.15 1647.65 122 1646.8 117.35
L 1647.45 117.35
Q 1647.200390625 115.676953125 1646.85 114.1 1643.5 98.85 1643.6 78.7
L 1643.75 70.05
Q 1643.9 63.8 1642.8 59.7 1641.55 56.65 1639.7 54.45 1638 52.45 1635.1 50.35
L 1632 48.45
M 1647.75 119.7
L 1647.75 121.85
Q 1647.85 123.85 1647.95 124.5 1648.05625 124.925 1648.45 125.95
L 1648.1 123.85
Q 1647.9986328125 121.7205078125 1647.75 119.7 Z" stroke="none" fill="#7E1A34"></path>

<path d="M 1654.9 418.45
Q 1651.6 416.95 1649.85 416.75 1648.1 416.65 1640.85 417
L 1630.2 417.3 1630.2 435.55
Q 1635.65 435.462890625 1639.6 435.35
L 1643.1 435.25
Q 1647.9 435.2 1654 434.8
L 1654.95 433.85
Q 1655.85 429.25 1655.95 426.15 1656 422.15 1654.9 418.45
M 1651.15 270.5
L 1650.4 267.45
Q 1649.55 260.85 1647.45 256.9
L 1645.25 256.4 1636.15 256.6
Q 1633.0455078125 256.633984375 1630.2 256.7
L 1630.2 277.1 1631.2 279.05
Q 1642.25 280.5 1650.45 278.95
L 1651.7 276.6
Q 1651.65 274.35 1651.6 273.55 1651.5 272.8 1651.15 270.5 Z" stroke="none" fill="#9DAEEA"></path>

<path d="M 1642.05 211.65
Q 1643.9 215.05 1644.45 218.2 1644.8 220.8 1644.45 225.15
L 1643.5 226.1
Q 1642.45 228.65 1642 229.5 1641.5 230.3 1639.7 232.8 1635.2818359375 235.0533203125 1630.2 235.8
L 1630.2 241.8
Q 1632.749609375 241.6859375 1634.2 241.55 1640.95 240.75 1645.45 238.6
L 1646.4 234.75
Q 1648.6 231.75 1649.25 229.4 1649.7 227.55 1649.8 223.45
L 1649.8 220.6
Q 1649.95 214.25 1649.2 209.7 1648.2 206.75 1646.95 204.95 1645.55 202.85 1643.4 201.1 1639.65 199.95 1634.5 200
L 1631.15 200.1
Q 1630.6671875 200.115625 1630.2 200.1
L 1630.2 206.7 1631.65 206.75
Q 1635.1 206.75 1638.6 206.85 1639.65 207.85 1640.05 208.5 1640.5 209.05 1642.05 211.65 Z" stroke="none" fill="#5D5A76"></path>

<path d="M 1644.45 218.2
Q 1643.9 215.05 1642.05 211.65 1640.5 209.05 1640.05 208.5 1639.65 207.85 1638.6 206.85 1635.1 206.75 1631.65 206.75
L 1630.2 206.7 1630.2 235.8
Q 1635.2818359375 235.0533203125 1639.7 232.8 1641.5 230.3 1642 229.5 1642.45 228.65 1643.5 226.1
L 1644.45 225.15
Q 1644.8 220.8 1644.45 218.2 Z" stroke="none" fill="#F1F3F7"></path>

<path d="M 1634 182.35
Q 1632.071484375 182.2365234375 1630.2 182.15
L 1630.2 196.35
Q 1639.4087890625 194.3353515625 1647.55 193.95 1649.95 193.95 1650.6 193.9 1651.3 193.8 1653 193.4
L 1653 188.6 1654.9 188.6 1655.1 186.6 1655.05 182.85 1654.9 182.85 1649.1 182.85 1648.85 182.85
Q 1646.3125 183.1 1645.5 183.1 1644.75 183.1 1642.7 182.95
L 1634 182.35 Z" stroke="none" fill="#992A3F"></path>

<path d="M 1630.2 179.35
L 1630.2 182.15
Q 1632.071484375 182.2365234375 1634 182.35
L 1642.7 182.95
Q 1644.75 183.1 1645.5 183.1 1646.3125 183.1 1648.85 182.85
L 1649.1 182.85 1649.1 179.1
Q 1648.6 179 1648.1 179 1647 178.95 1645.95 178.95 1644.8 178.95 1643.65 178.95 1642.4 178.95 1641.2 179 1639.9 179 1638.65 179.05 1634.4091796875 179.2482421875 1630.2 179.35
M 1635.3 132.75
L 1630.2 132.7 1630.2 152.7 1638.45 152.75
Q 1639.5 152.75 1640.6 152.8 1641.6 152.85 1642.65 152.95 1643.6 153.05 1644.6 153.2 1645.45 153.25 1646.4 153.4 1647.25 153.55 1648.15 153.7 1649 153.85 1649.85 154 1650.6 154.2 1651.45 154.45 1652.1 154.7 1652.75 155.1 1653.8 155.9 1654.75 156.85
L 1655.05 164.05 1654.9 182.85 1655.05 182.85 1655.1 186.6 1654.9 188.6 1653 188.6 1653 193.4
Q 1651.3 193.8 1650.6 193.9 1649.95 193.95 1647.55 193.95 1639.4087890625 194.3353515625 1630.2 196.35
L 1630.2 200.1
Q 1630.6671875 200.115625 1631.15 200.1
L 1634.5 200
Q 1639.65 199.95 1643.4 201.1 1645.55 202.85 1646.95 204.95 1648.2 206.75 1649.2 209.7 1649.95 214.25 1649.8 220.6
L 1649.8 223.45
Q 1649.7 227.55 1649.25 229.4 1648.6 231.75 1646.4 234.75
L 1645.45 238.6
Q 1640.95 240.75 1634.2 241.55 1632.749609375 241.6859375 1630.2 241.8
L 1630.2 256.7
Q 1633.0455078125 256.633984375 1636.15 256.6
L 1645.25 256.4 1647.45 256.9
Q 1649.55 260.85 1650.4 267.45
L 1651.15 270.5
Q 1651.5 272.8 1651.6 273.55 1651.65 274.35 1651.7 276.6
L 1650.45 278.95
Q 1642.25 280.5 1631.2 279.05
L 1630.2 277.1 1630.2 417.3 1640.85 417
Q 1648.1 416.65 1649.85 416.75 1651.6 416.95 1654.9 418.45 1656 422.15 1655.95 426.15 1655.85 429.25 1654.95 433.85
L 1654 434.8
Q 1647.9 435.2 1643.1 435.25
L 1639.6 435.35
Q 1635.65 435.462890625 1630.2 435.55
L 1630.2 466.75 1636.1 466.75
Q 1644.76328125 466.518359375 1649.55 465.7 1650.0216796875 465.530078125 1650.45 465.3
L 1652.2 461.8 1657 456.95
Q 1660.05 453.9 1660.8 452.7 1661.65 451.55 1663.35 447.65 1663.8 443.4 1663.75 434.85
L 1663.75 405.05
Q 1663.75 370.65 1664.05 347.85 1664.55 316.65 1665.9 290.7
L 1667.4 262.55
Q 1667.7 259.7 1668.15 256.8 1668.75 252.95 1668.95 248.3
L 1670.35 218.3
Q 1671.3 196.45 1671.3 184.15
L 1671.25 181.6
Q 1671.2 171.65 1669.1 163.75 1666.75 154.8 1661.7 147.4 1656.55 140.65 1647.85 135.65
L 1645.3 134.2
Q 1644.6787109375 133.928125 1644.05 133.7
L 1643.4 133.7
Q 1642.75 133.4 1642.1 133.15 1639.65 132.8 1638.8 132.75 1637.95 132.7 1635.3 132.75 Z" stroke="none" fill="#F5F7F9"></path>

<path d="M 1652.75 155.1
Q 1652.1 154.7 1651.45 154.45 1650.6 154.2 1649.85 154 1649 153.85 1648.15 153.7 1647.25 153.55 1646.4 153.4 1645.45 153.25 1644.6 153.2 1643.6 153.05 1642.65 152.95 1641.6 152.85 1640.6 152.8 1639.5 152.75 1638.45 152.75
L 1630.2 152.7 1630.2 179.35
Q 1634.4091796875 179.2482421875 1638.65 179.05 1639.9 179 1641.2 179 1642.4 178.95 1643.65 178.95 1644.8 178.95 1645.95 178.95 1647 178.95 1648.1 179 1648.6 179 1649.1 179.1
L 1649.1 182.85 1654.9 182.85 1655.05 164.05 1654.75 156.85
Q 1653.8 155.9 1652.75 155.1 Z" stroke="none" fill="#110F1A"></path>

<path d="M 1637.15 78.65
Q 1636.9 77 1636.15 75.4 1633.3947265625 74.0224609375 1630.2 73.5
L 1630.2 127.65 1631.2 127.65
Q 1635.9 127.6 1639.3 127.35
L 1641.15 125.4
Q 1641.45 121.55 1640.55 115.95 1637.95 102.5 1637.5 88.3
L 1637.35 82.1
Q 1637.25 79.5 1637.15 78.65 Z" stroke="none" fill="#E21F2D"></path>

<path d="M 1636.05 67.8
Q 1635.95 66.95 1635.8 66.2 1635.0470703125 62.1009765625 1630.2 57.45
L 1630.2 67.9 1636.05 67.8 Z" stroke="none" fill="#DF202E"></path>
</g>
</g>
</g>
</g>

<g transform="matrix( 0.3621063232421875, 0, 0, 0.3621063232421875, -594.2,0.1)" id="Layer_3">
<g>
<g>
<g>
<path d="M 1652 489.4
Q 1649.8 489.9 1646.75 490.95
L 1636.3 494.35
Q 1632.526953125 495.5716796875 1630.2 496.25
L 1630.2 508.25
Q 1643.4521484375 507.9212890625 1662.85 507.3
L 1662.8 488.95
Q 1657.4 488.2 1652 489.4
M 1640.1 368.95
Q 1639.45 365.7 1637.45 362.8 1635.1482421875 359.46640625 1630.2 355.85
L 1630.2 373.8
Q 1631.39453125 374.4375 1632.35 374.8 1636.15 376.3 1639.7 375.55 1640.8 372.5 1640.1 368.95
M 1637.8 295.7
Q 1637.9 295.25 1637.9 294.3
L 1637.9 286.1
Q 1637.05 286.15 1633.45 286 1631.5705078125 285.93046875 1630.2 286.1
L 1630.2 305.25 1632.65 303.35
Q 1634.4 301.9 1634.6 301.65 1635.35 300.85 1636.9 298.05 1637.75 296.25 1637.8 295.7
M 1638.9 226.15
Q 1637.55 226 1636.85 225.95 1634.25 225.75 1632.95 226.9 1632.35 227.4 1631.9 228.3 1631.8 228.55 1631.2 230 1630.802734375 230.99296875 1630.2 232.1
L 1630.2 249.4 1633.5 244.9
Q 1635.9 241.6 1636.65 240 1637.85 237.25 1638.65 236 1639.4 234.95 1639.75 234.4 1640.45 233.45 1640.7 232.75 1641.1 231.6 1640.95 229.45 1640.75 227.05 1640.9 226.1 1640.05 226.25 1638.9 226.15
M 1702 487.55
Q 1703.3 486.05 1703.55 485.5 1704 484.5 1704 482.5
L 1704 475.15
Q 1704 470.95 1703.55 468.9 1702.95 466.25 1700.65 461.9 1691.5 445 1681.5 435.45 1678.7 432.75 1676.6 432.2 1675.45 431.9 1673.6 431.9 1670.9 431.9 1670.55 431.85 1670.8 432.85 1670.5 435.4 1670.25 437.7 1670.85 438.8 1671.3 439.6 1672.7 440.7 1679.15 445.95 1684.95 454.25 1689.2 460.25 1694.45 470.05 1696.35 473.65 1696.85 475.6 1697.2 477.15 1696.9 478.25 1696.6 479.1 1695.7 480.3
L 1691.7 485.75
Q 1692 485.3 1691.75 484.65 1691.55 484.05 1691.05 483.75 1690.4 483.35 1688.8 483.35
L 1681.35 483.3
Q 1681.15 484.65 1681.2 485.95
L 1677.65 486.4
Q 1677.6 490.35 1677.75 495.3 1679.15 495.15 1684.4 495.45 1688.5 495.7 1690.8 494.7 1692.5 493.9 1692.8 493.85 1693.35 493.7 1694.5 493.75 1695.65 493.8 1696.2 493.7 1698 493.4 1699.6 491.2 1701.1 488.7 1702 487.55 Z" stroke="none" fill="#000000"></path>
</g>
</g>
</g>
</g>

<g transform="matrix( 0.3621063232421875, 0, 0, 0.3621063232421875, -594.2,0.1)" id="Layer_6">
<g>
<g>
<g>
<path d="M 1836.45 134.65
Q 1832.45 140.35 1830.65 147.75 1829.15 153.85 1829.05 162
L 1828.8 211
Q 1828.85 222.35 1828.65 244.8
L 1828.55 263.1
Q 1828.45 279.65 1828.4 282.5 1828.25 293.5 1827.85 301.95 1827.3 311.75 1827.5 324.55 1827.75 348.45 1827.35 366.8 1826.75 396.55 1826.75 414.9
L 1826.75 434.3
Q 1826.75 443.1 1827.9 448.1 1830.45 454.95 1836.5 460.05 1840.15 461.85 1844.45 462.8 1847.85 463.45 1852.7 463.8
L 1918.95 464.85
Q 1930.247265625 465.05234375 1936.95 465.05
L 1936.95 457.4 1888.85 457.65
Q 1874.55 457.95 1867.35 457.9 1854.85 457.75 1846 455.9 1842.95 455 1841.35 453.8 1839.7 452.7 1837.7 450.1 1835.35 445.7 1834.35 442.35 1833.3 438.6 1833.25 434
L 1833.45 395.65
Q 1833.55 387.5 1833.55 383.45
L 1834.3 310.35
Q 1834.8 253.35 1835.3 231.5 1835.8 214 1835.8 201.4
L 1836 164.8
Q 1835.95 158.7 1836.15 156.2 1836.45 151.6 1837.75 147.85
L 1839.25 145.1
Q 1847.45 135.45 1850.8 132.85 1854.08515625 130.26171875 1865.6 124.5 1865.6478515625 124.476171875 1865.7 124.45
L 1869 122.85
Q 1867.75 122.5 1866.1 121.85
L 1865.8 119.7
Q 1865.8 119.6 1866.05 112.25
L 1865.5 112.25 1865.05 112.25 1865.05 117.05 1863.15 117.05
Q 1854.05 121.2 1848.75 124.45 1841.2 129.1 1836.45 134.65 Z" stroke="none" fill="#706C84"></path>

<path d="M 1936.95 40.45
L 1936.95 32.9
Q 1930.5 31 1922.55 30.8
L 1918.8 30.8
Q 1893.65 30.35 1870.85 32.7
L 1867.4 33.1
Q 1859.8 33.9 1855.4 34.7 1848.7 35.8 1843.6 37.65 1842.75 39.3 1842.65 40.45 1842.5 41.55 1842.55 46.5
L 1842.55 49.2
Q 1842.5 51.15 1842.45 55.1 1842.55 58.5 1843.7 60.75 1846.6 62.15 1847.4 62.45 1848.25 62.7 1850.35 63
L 1873.5 63.5
Q 1872.3 67.05 1871.75 71.05 1871.3 74 1871 78.75 1870.5 87.2 1870.2 90.2 1869.45 96.55 1867.8 101.35 1866.0248046875 106.4478515625 1865.5 112.25
L 1866.05 112.25
Q 1865.8 119.6 1865.8 119.7
L 1866.1 121.85
Q 1867.75 122.5 1869 122.85
L 1865.7 124.45
Q 1865.6478515625 124.476171875 1865.6 124.5 1865.8650390625 124.4087890625 1866.1 124.35 1869.75 123.1 1873.2 122.75
L 1883.5 123
Q 1888.45 123.1 1898.35 123.15 1907.5 123.1 1916.65 123.2
L 1936.95 123.25 1936.95 118.25 1871.9 118.35
Q 1872.6 111.35 1872.85 109.7 1873.15 107.9 1874.15 104.55 1876 98.25 1876.6 87.95 1877.45 75.1 1879.35 67.3
L 1882.25 64.4
Q 1884.35 64.15 1885.15 64.05 1886 64 1888.65 64
L 1936.95 63.85 1936.95 58.7 1883.15 59.7 1882.15 56.8 1849.45 56
Q 1846.7 49.9 1848.45 43.5 1892.3716796875 30.0861328125 1936.95 40.45 Z" stroke="none" fill="#7E1A34"></path>

<path d="M 1936.95 426.4
L 1936.95 408.2
Q 1929.1330078125 408.236328125 1918.7 407.85 1910.7 407.55 1902.9 407.45 1896.3 407.5 1889.55 407.25 1880.5 406.9 1876 406.85
L 1870.95 406.85
Q 1864.5 406.45 1862.65 406.6 1858.2 406.8 1854.85 408.6 1853.4 411.55 1853.05 412.65 1852.7 413.75 1852.25 417.25 1852.6 420.8 1852.9 421.9 1853.25 422.95 1854.9 425.9 1858.65 427.75 1861.35 427.95 1864.05 428.15 1876.6 427.7
L 1884.45 427.5
Q 1894.75 427.45 1905 427.1 1916.8 426.7 1926.25 426.6 1931.9927734375 426.5046875 1936.95 426.4
M 1902.5 248.95
Q 1901.2 248.95 1879.1 248.75 1861.9 248.55 1861.7 248.95 1859.45 260.55 1862.9 268.1 1866.7 270.2 1868.65 270.45 1870.6 270.75 1878.7 270.25 1880.6 270.05 1884.45 269.95 1892.75 269.8 1899.4 269.4 1904.55 269.15 1914.9 268.8 1929.55 268.4 1932.5 268.25
L 1936.95 268.05 1936.95 247.95
Q 1925.901953125 248.8060546875 1911.1 248.9
L 1902.5 248.95 Z" stroke="none" fill="#9DAEEA"></path>

<path d="M 1936.95 200
Q 1936.261328125 200.4439453125 1935.55 200.95 1931.45 204.45 1930.35 205.85 1929.3 207.25 1927.1 212.05 1927.1 217.15 1929.05 221.65 1930.95 224.15 1931.8 224.7 1932.65 225.3 1935.8 226.4 1936.3806640625 226.473828125 1936.95 226.5
L 1936.95 200 Z" stroke="none" fill="#F1F3F7"></path>

<path d="M 1936.95 192.1
Q 1931.8765625 193.59375 1927.85 197.3
L 1926.1 199.5
Q 1923.85 202.2 1923 204.15 1922.1 206.15 1921.8 209.5
L 1921.85 214.05
Q 1921.85 217.45 1921.9 218.5 1922 219.6 1922.35 222.6 1923.3 224.9 1923.9 225.9 1924.6 226.8 1927.65 230.1 1930.25 231.75 1932.7 232.3 1934.3228515625 232.6744140625 1936.95 232.7
L 1936.95 226.5
Q 1936.3806640625 226.473828125 1935.8 226.4 1932.65 225.3 1931.8 224.7 1930.95 224.15 1929.05 221.65 1927.1 217.15 1927.1 212.05 1929.3 207.25 1930.35 205.85 1931.45 204.45 1935.55 200.95 1936.261328125 200.4439453125 1936.95 200
L 1936.95 192.1 Z" stroke="none" fill="#5D5A76"></path>

<path d="M 1860.15 172.35
Q 1855.85 172.2 1851.9 172.95 1851.3 175.1 1851.3 175.8 1851.35 176.55 1851.95 178.75
L 1855.7 180.35 1860.6 181.65
Q 1867.25 184.65 1871.2 186 1877.15 188.1 1882.35 188.5 1889.95 188.9 1898.15 191.65 1906.75 194.75 1911.3 194.5 1915.75 194.35 1934.15 190.2
L 1936.95 189.55 1936.95 172.45 1935.1 172.45
Q 1921.35 172.35 1907.55 172.45
L 1860.15 172.35 Z" stroke="none" fill="#992A3F"></path>

<path d="M 1853.7 145
L 1853.7 145.1
Q 1853.35 146.4 1853.1 147.8 1852.55 150.55 1852.2 153.3 1852.05 154.65 1852 156.05 1851.9 157.5 1851.95 158.95 1851.95 160.3 1852.05 161.75 1852.1 163.2 1852.3 164.7 1852.5 166.15 1852.8 167.55 1852.9 167.95 1853.1 168.35 1853.2 168.6 1853.35 168.95 1853.4 169.1 1853.5 169.25 1853.55 169.3 1853.6 169.35 1853.7 169.45 1853.85 169.55 1854 169.65 1854.15 169.75 1854.4 169.9 1854.65 170.05 1854.85 170.2 1855.2 170.25 1855.9 170.6 1856.75 170.85
L 1891.45 170.7
Q 1896.85 170.5 1902.3 170.4 1904.95 170.35 1907.6 170.4 1910.2 170.4 1912.8 170.4 1915.6 170.4 1918.6 170.7 1920.3 170.65 1921.95 170.7 1922.7 170.7 1923.45 170.75 1924.1 170.75 1924.75 170.75 1925.85 170.7 1926.95 170.7 1928.55 170.7 1930.15 170.7 1931.6 170.6 1933.05 170.55 1934.4 170.5 1935.8 170.5 1936.375 170.476953125 1936.95 170.45
L 1936.95 143.25 1866.75 142.9
Q 1866 142.9 1865.35 142.9 1864.7 142.9 1864.1 142.9 1863.55 142.9 1863.05 142.9 1862.55 142.9 1862.1 142.9 1861.7 142.95 1861.35 142.95 1861 142.95 1860.75 142.95 1860.5 142.95 1860.3 142.95 1860.1 142.95 1859.95 142.95 1859.1 143.1 1858.3 143.25 1857.45 143.45 1856.65 143.7 1856.2169921875 143.8353515625 1855.8 144
L 1854.65 144 1853.7 145 Z" stroke="none" fill="#110F1A"></path>

<path d="M 1839.25 145.1
L 1837.75 147.85
Q 1836.45 151.6 1836.15 156.2 1835.95 158.7 1836 164.8
L 1835.8 201.4
Q 1835.8 214 1835.3 231.5 1834.8 253.35 1834.3 310.35
L 1833.55 383.45
Q 1833.55 387.5 1833.45 395.65
L 1833.25 434
Q 1833.3 438.6 1834.35 442.35 1835.35 445.7 1837.7 450.1 1839.7 452.7 1841.35 453.8 1842.95 455 1846 455.9 1854.85 457.75 1867.35 457.9 1874.55 457.95 1888.85 457.65
L 1936.95 457.4 1936.95 426.4
Q 1931.9927734375 426.5046875 1926.25 426.6 1916.8 426.7 1905 427.1 1894.75 427.45 1884.45 427.5
L 1876.6 427.7
Q 1864.05 428.15 1861.35 427.95 1858.65 427.75 1854.9 425.9 1853.25 422.95 1852.9 421.9 1852.6 420.8 1852.25 417.25 1852.7 413.75 1853.05 412.65 1853.4 411.55 1854.85 408.6 1858.2 406.8 1862.65 406.6 1864.5 406.45 1870.95 406.85
L 1876 406.85
Q 1880.5 406.9 1889.55 407.25 1896.3 407.5 1902.9 407.45 1910.7 407.55 1918.7 407.85 1929.1330078125 408.236328125 1936.95 408.2
L 1936.95 268.05 1932.5 268.25
Q 1929.55 268.4 1914.9 268.8 1904.55 269.15 1899.4 269.4 1892.75 269.8 1884.45 269.95 1880.6 270.05 1878.7 270.25 1870.6 270.75 1868.65 270.45 1866.7 270.2 1862.9 268.1 1859.45 260.55 1861.7 248.95 1861.9 248.55 1879.1 248.75 1901.2 248.95 1902.5 248.95
L 1911.1 248.9
Q 1925.901953125 248.8060546875 1936.95 247.95
L 1936.95 232.7
Q 1934.3228515625 232.6744140625 1932.7 232.3 1930.25 231.75 1927.65 230.1 1924.6 226.8 1923.9 225.9 1923.3 224.9 1922.35 222.6 1922 219.6 1921.9 218.5 1921.85 217.45 1921.85 214.05
L 1921.8 209.5
Q 1922.1 206.15 1923 204.15 1923.85 202.2 1926.1 199.5
L 1927.85 197.3
Q 1931.8765625 193.59375 1936.95 192.1
L 1936.95 189.55 1934.15 190.2
Q 1915.75 194.35 1911.3 194.5 1906.75 194.75 1898.15 191.65 1889.95 188.9 1882.35 188.5 1877.15 188.1 1871.2 186 1867.25 184.65 1860.6 181.65
L 1855.7 180.35 1851.95 178.75
Q 1851.35 176.55 1851.3 175.8 1851.3 175.1 1851.9 172.95 1855.85 172.2 1860.15 172.35
L 1907.55 172.45
Q 1921.35 172.35 1935.1 172.45
L 1936.95 172.45 1936.95 170.45
Q 1936.375 170.476953125 1935.8 170.5 1934.4 170.5 1933.05 170.55 1931.6 170.6 1930.15 170.7 1928.55 170.7 1926.95 170.7 1925.85 170.7 1924.75 170.75 1924.1 170.75 1923.45 170.75 1922.7 170.7 1921.95 170.7 1920.3 170.65 1918.6 170.7 1915.6 170.4 1912.8 170.4 1910.2 170.4 1907.6 170.4 1904.95 170.35 1902.3 170.4 1896.85 170.5 1891.45 170.7
L 1856.75 170.85
Q 1855.9 170.6 1855.2 170.25 1854.85 170.2 1854.65 170.05 1854.4 169.9 1854.15 169.75 1854 169.65 1853.85 169.55 1853.7 169.45 1853.6 169.35 1853.55 169.3 1853.5 169.25 1853.4 169.1 1853.35 168.95 1853.2 168.6 1853.1 168.35 1852.9 167.95 1852.8 167.55 1852.5 166.15 1852.3 164.7 1852.1 163.2 1852.05 161.75 1851.95 160.3 1851.95 158.95 1851.9 157.5 1852 156.05 1852.05 154.65 1852.2 153.3 1852.55 150.55 1853.1 147.8 1853.35 146.4 1853.7 145.1
L 1853.7 145 1854.65 144 1855.8 144
Q 1856.2169921875 143.8353515625 1856.65 143.7 1857.45 143.45 1858.3 143.25 1859.1 143.1 1859.95 142.95 1860.1 142.95 1860.3 142.95 1860.5 142.95 1860.75 142.95 1861 142.95 1861.35 142.95 1861.7 142.95 1862.1 142.9 1862.55 142.9 1863.05 142.9 1863.55 142.9 1864.1 142.9 1864.7 142.9 1865.35 142.9 1866 142.9 1866.75 142.9
L 1936.95 143.25 1936.95 123.25 1916.65 123.2
Q 1907.5 123.1 1898.35 123.15 1888.45 123.1 1883.5 123
L 1873.2 122.75
Q 1869.75 123.1 1866.1 124.35 1865.8650390625 124.4087890625 1865.6 124.5 1854.08515625 130.26171875 1850.8 132.85 1847.45 135.45 1839.25 145.1 Z" stroke="none" fill="#F5F7F9"></path>

<path d="M 1882.15 56.8
L 1883.15 59.7 1936.95 58.7 1936.95 40.45
Q 1892.3716796875 30.0861328125 1848.45 43.5 1846.7 49.9 1849.45 56
L 1882.15 56.8 Z" stroke="none" fill="#DF202E"></path>

<path d="M 1885.15 64.05
Q 1884.35 64.15 1882.25 64.4
L 1879.35 67.3
Q 1877.45 75.1 1876.6 87.95 1876 98.25 1874.15 104.55 1873.15 107.9 1872.85 109.7 1872.6 111.35 1871.9 118.35
L 1936.95 118.25 1936.95 63.85 1888.65 64
Q 1886 64 1885.15 64.05 Z" stroke="none" fill="#E21F2D"></path>
</g>
</g>
</g>
</g>

<g transform="matrix( 0.3621063232421875, 0, 0, 0.3621063232421875, -594.2,0.1)" id="MergedLayer_1">
<g>
<g>
<g>
<path d="M 1859.9 464.25
L 1852.9 464.15 1852.9 478.25
Q 1852.9 479.95 1852.65 480.7 1852.4 481.55 1851.7 482.6
L 1849.8 485.6
Q 1847.5 485.5 1846.65 486.3 1846.55 486.4 1845.55 487.8 1844.7 488.95 1842.2 490.45 1841.4 490.95 1841.2 491.4 1841 491.75 1841 492.55
L 1841.05 498.25 1842 498.45 1842 501.3
Q 1846.9 501.4 1849.3 501.35 1849.45 500.15 1850.45 498.95 1850.95 498.35 1852.5 496.95 1854.8 494.9 1856.6 492.65
L 1858.25 490.4
Q 1859.35 488.85 1859.65 487.6 1859.9 486.65 1859.9 484.65
L 1859.9 464.25
M 1821.2 473.6
Q 1820.75 474.6 1820.75 476.85 1820.65 482.4 1821 485.15 1821.1 486 1821.35 486.3 1821.7 486.65 1822.2 486.8 1823 487.1 1824.15 487.2 1825.95 487.4 1830.85 487.4
L 1830.85 478.3
Q 1831.25 477.6 1831.4 477.2 1831.85 476.15 1831.85 474.3 1831.9 472.25 1831.9 461.95
L 1824.9 461.85
Q 1824.85 462.5 1824.95 465.1 1825 467.15 1824.7 468.35 1824.6 469.05 1824.25 470
L 1823.65 471.65
Q 1823.4 472.5 1823.25 473.65
L 1821.2 473.6 Z" stroke="none" fill="#000000"></path>
</g>
</g>
</g>
</g>

<g transform="matrix( 0.3621063232421875, 0, 0, 0.3621063232421875, -594.2,0.1)" id="Layer_2">
<g>
<g>
<g>
<path d="M 1936.95 237.9
Q 1930.875 237.692578125 1924.8 237.65 1912.4 237.55 1899.95 237.4 1886.8 236.65 1874.15 239.7 1859.7 243.15 1846.2 249.15 1835.95 253.65 1832.45 271.7 1832.65 277.75 1832.4 283.8 1831.8 297.5 1834.4 311 1837.15 325.3 1838.15 340.05 1839 352.7 1840.8 365.3 1842.45 377.1 1844.5 388.7 1846.8 401.6 1850.35 413.9 1853.75 425.85 1858 437.5 1863.1 451.55 1870.65 464.7 1877.1 475.85 1890.25 475.95 1896.35 476 1902.4 476.6 1918.9 477.85 1928.9 465.95 1932.9009765625 461.2373046875 1936.95 456.55
L 1936.95 429.9
Q 1935.875390625 433.438671875 1933.45 437.25 1931.7 440 1927.85 444.7 1925.2 447.95 1923.35 448.8 1921.8 449.5 1918.4 449.6 1915.75 449.7 1914.3 449.5 1912.1 449.25 1910.65 448.2 1909.85 447.6 1908.75 446.35 1907.4 444.85 1906.95 444.4 1904.6 442.35 1900.6 442.05 1898.25 441.9 1893.35 442.4 1889 442.9 1886.15 442.4 1882.2 441.75 1880.25 439.25 1878.95 437.6 1877.85 433.2 1876.85 428.95 1875.3 427.3 1874.35 426.3 1872.4 425.2 1869.9 423.85 1869.25 423.35 1866.45 421.25 1864.95 417.05 1863.95 414.3 1863.2 409.25
L 1859.65 385.5
Q 1857.35 370.55 1856.65 361.85 1855.85 351.55 1856.15 329 1856.5 307.55 1855.35 296.1 1854.85 290.85 1854.8 289.55 1854.7 285.8 1855.3 283.05 1856.1 279.65 1858.2 277.15 1860.5 274.4 1863.55 273.75 1864.5 273.55 1867.5 273.5 1870 273.45 1871.35 272.85 1873.7 271.85 1875.6 268.4 1878.65 262.75 1878.75 262.6 1881.75 258.5 1888.1 257.1 1892.4 256.15 1899.75 256.35 1902.2 256.45 1903.6 256.85 1905.65 257.4 1906.6 258.8 1907.3 259.8 1907.7 261.95 1908.1 264.35 1908.6 265.25 1909.5 266.8 1911.45 267.5 1913.2 268.15 1915.2 267.9 1916.7 267.7 1918.35 267.15 1919.95 266.55 1922 265.3 1924 264.05 1927.4 261.65 1932.2 259.1 1934.55 261 1935.86171875 261.41640625 1936.95 261.85
L 1936.95 237.9
M 1936.95 197.85
L 1936.95 190.05 1936.5 190.05
Q 1932.2 190.2 1928.35 191.3
L 1928.35 198.05
Q 1933.9224609375 198.3197265625 1936.95 197.85
M 1887.1 209
Q 1890.3 209 1891.1 209.05
L 1891.1 203.35
Q 1891.2 202.75 1890.95 202.3 1890.75 202 1890.05 201.7
L 1884.75 199.3
Q 1883.75 198.8 1882.9 198.6
L 1872.3 198.45
Q 1869.35 198.45 1868.05 199.05 1867.25 199.45 1866.6 199.95
L 1864.7 201.3
Q 1862.75 202.7 1862.15 203.35 1861.2 204.3 1859.7 206.6 1858.9 207.7 1858.4 208.8 1857.85 210.2 1857.6 210.5 1857.4 210.8 1856.7 211.6 1856.1 212.25 1855.9 212.75 1855.65 213.35 1855.65 214.65
L 1855.65 221.6 1862.6 221.7
Q 1862.3 220.65 1863.1 219.4 1864.05 218.15 1864.5 217.45 1864.65 217.2 1865.7 215.1 1866.15 214.15 1867 212.95 1867.7 211.7 1868.4 210.95 1869.35 209.85 1871.75 208.15
L 1874.15 206.5
Q 1874.95 205.9 1875.5 205.8 1876.35 205.6 1877.45 206.05 1878.25 206.35 1880.3 207.4 1882.05 208.3 1883.15 208.65 1884.6 209.05 1887.1 209 Z" stroke="none" fill="#000000"></path>

<path d="M 1899.75 256.35
Q 1892.4 256.15 1888.1 257.1 1881.75 258.5 1878.75 262.6 1878.65 262.75 1875.6 268.4 1873.7 271.85 1871.35 272.85 1870 273.45 1867.5 273.5 1864.5 273.55 1863.55 273.75 1860.5 274.4 1858.2 277.15 1856.1 279.65 1855.3 283.05 1854.7 285.8 1854.8 289.55 1854.85 290.85 1855.35 296.1 1856.5 307.55 1856.15 329 1855.85 351.55 1856.65 361.85 1857.35 370.55 1859.65 385.5
L 1863.2 409.25
Q 1863.95 414.3 1864.95 417.05 1866.45 421.25 1869.25 423.35 1869.9 423.85 1872.4 425.2 1874.35 426.3 1875.3 427.3 1876.85 428.95 1877.85 433.2 1878.95 437.6 1880.25 439.25 1882.2 441.75 1886.15 442.4 1889 442.9 1893.35 442.4 1898.25 441.9 1900.6 442.05 1904.6 442.35 1906.95 444.4 1907.4 444.85 1908.75 446.35 1909.85 447.6 1910.65 448.2 1912.1 449.25 1914.3 449.5 1915.75 449.7 1918.4 449.6 1921.8 449.5 1923.35 448.8 1925.2 447.95 1927.85 444.7 1931.7 440 1933.45 437.25 1935.875390625 433.438671875 1936.95 429.9
L 1936.95 261.85
Q 1935.86171875 261.41640625 1934.55 261 1932.2 259.1 1927.4 261.65 1924 264.05 1922 265.3 1919.95 266.55 1918.35 267.15 1916.7 267.7 1915.2 267.9 1913.2 268.15 1911.45 267.5 1909.5 266.8 1908.6 265.25 1908.1 264.35 1907.7 261.95 1907.3 259.8 1906.6 258.8 1905.65 257.4 1903.6 256.85 1902.2 256.45 1899.75 256.35 Z" stroke="none" fill="#FFFFFF"></path>
</g>
</g>
</g>
</g>
</g>
</svg>
