
<svg viewBox="0 0 112 184" height="184px" width="112px" y="0px" x="0px" preserveAspectRatio="none" xmlns:xlink="http://www.w3.org/1999/xlink" version="1.1" xmlns="http://www.w3.org/2000/svg">
<defs></defs>

<g id="fun_scrollers">
<g transform="matrix( 0.3621063232421875, 0, 0, 0.3621063232421875, -594.2,0.1)" id="svg"></g>

<g transform="matrix( 0.3621063232421875, 0, 0, 0.3621063232421875, -594.2,0.1)" id="Layer_2"></g>

<g transform="matrix( 0.3621063232421875, 0, 0, 0.3621063232421875, -594.2,0.1)" id="Layer_3"></g>

<g transform="matrix( 0.3621063232421875, 0, 0, 0.3621063232421875, -594.2,0.1)" id="Layer_2"></g>

<g transform="matrix( 0.3621063232421875, 0, 0, 0.3621063232421875, -594.2,0.1)" id="Layer_3"></g>

<g transform="matrix( 0.3621063232421875, 0, 0, 0.3621063232421875, -594.2,0.1)" id="MergedLayer_3"></g>

<g transform="matrix( 0.3621063232421875, 0, 0, 0.3621063232421875, -594.2,0.1)" id="Layer_4"></g>

<g transform="matrix( 0.3621063232421875, 0, 0, 0.3621063232421875, -594.2,0.1)" id="Layer_1">
<g>
<g>
<g>
<path d="M 1936.95 35.15
Q 1933.2857421875 35.4728515625 1930.45 35.65 1921.5 36.25 1908.1 36.35 1893.15 36.4 1885.7 36.55 1858.85 37 1841.55 41.3 1840.1 44.2 1842.25 47.35 1844.4 50.45 1847.65 50.05 1836.7 52.8 1826.4 58.4 1822.4 60.55 1821 62.6 1819.95 64.1 1819.8 65.85 1819.7 67.75 1820.7 69.1 1828.3 68.95 1838.6 70.5 1844.55 71.45 1856.45 73.65 1878.5 77.4 1891.6 73.85 1873.4 109.95 1857.95 145.7
L 1850.5 163.15
Q 1847.45 170.4 1846.45 174.4 1844.8 180.85 1845.8 186
L 1852.8 186.2
Q 1856.1 174.15 1863.15 163.6 1857.85 179.9 1859 196.65
L 1866.3 196.65
Q 1865.85 183.4 1870.1 170.8 1867 188.4 1866.9 205.8
L 1860.4 206.15
Q 1858 231.65 1850.7 262.35 1845.95 282.35 1835.55 317.55 1824.1 356.5 1819.9 372.75 1811.95 403.8 1808.75 428.8
L 1816.15 429.05
Q 1823.85 404.55 1828.2 392.3 1835.4 372.05 1843.05 356.65 1829.15 405 1829.5 455.1
L 1836.4 455.05
Q 1845.25 408.9 1850.55 361.5 1851.95 366.5 1851.15 373.5 1850.7 377.55 1849.15 385.6 1847.9 393.4 1847.85 403.35 1847.8 409.05 1848.25 421.15
L 1855.35 421.7 1855.35 436
Q 1853.55 433.5 1850.35 432.55 1847.2 431.55 1844.3 432.65 1849.35 450.25 1855.9 468.05 1847.75 469.55 1839.4 470.15
L 1839.55 477.1
Q 1849.05 478.6 1857.9 479.3
L 1859 483.7 1866 483.7
Q 1865.55 482.4 1866.45 481.45 1877.4 484 1891.4 484.8 1899.75 485.25 1916.6 485.25
L 1936.95 485.2 1936.95 35.15
M 1837.15 341.35
Q 1838.2 337.5 1840.5 329.9
L 1856.45 277.55
Q 1849.35 316.65 1834.15 353.7 1835.45 347.6 1837.15 341.35
M 1863.75 463.8
Q 1863.3 462.65 1863.25 462.05 1863.5 462 1863.9 462.3
L 1868.15 465.95
Q 1867.95 466.25 1867.25 466.35 1865.75 466.5 1864.5 466.45 1864.2 465.95 1864.05 465.15 1863.75 463.85 1863.75 463.8 Z" stroke="none" fill="#000000"></path>
</g>
</g>
</g>
</g>

<g transform="matrix( 0.3621063232421875, 0, 0, 0.3621063232421875, -594.2,0.1)" id="Layer_5"></g>

<g transform="matrix( 0.3621063232421875, 0, 0, 0.3621063232421875, -594.2,0.1)" id="Layer_6"></g>

<g transform="matrix( 0.3621063232421875, 0, 0, 0.3621063232421875, -594.2,0.1)" id="MergedLayer_1">
<g>
<g>
<g>
<path d="M 1635.15 391.85
Q 1633.9521484375 391.7130859375 1630.2 391.6
L 1630.2 410
Q 1633.9140625 410.1359375 1638.3 410.1
L 1639.3 409.2
Q 1640.45 404.65 1640.7 401.55 1641 397.55 1640.1 393.8 1636.9 392.1 1635.15 391.85
M 1630.5 231.1
Q 1630.3498046875 231.0943359375 1630.2 231.1
L 1630.2 254.15
Q 1637.5623046875 255.041796875 1643.5 254.25
L 1644.9 251.95
Q 1644.95 249.7 1644.95 248.9 1644.9 248.15 1644.65 245.8
L 1644.1 242.75
Q 1643.65 236.15 1641.75 232.05
L 1639.6 231.45 1630.5 231.1 Z" stroke="none" fill="#9DAEEA"></path>

<path d="M 1635.75 181.65
Q 1632.975 181.3724609375 1630.2 181.2
L 1630.2 209.35
Q 1632.8640625 208.7466796875 1635.35 207.65 1637.3 205.25 1637.85 204.4 1638.35 203.6 1639.55 201.1
L 1640.55 200.2
Q 1641.2 195.85 1640.9 193.3 1640.6 190.05 1638.9 186.6 1637.5 183.95 1637.05 183.3 1636.7 182.7 1635.75 181.65 Z" stroke="none" fill="#F1F3F7"></path>

<path d="M 1630.2 174.5
L 1630.2 181.2
Q 1632.975 181.3724609375 1635.75 181.65 1636.7 182.7 1637.05 183.3 1637.5 183.95 1638.9 186.6 1640.6 190.05 1640.9 193.3 1641.2 195.85 1640.55 200.2
L 1639.55 201.1
Q 1638.35 203.6 1637.85 204.4 1637.3 205.25 1635.35 207.65 1632.8640625 208.7466796875 1630.2 209.35
L 1630.2 215.95
Q 1636.4435546875 215.480078125 1640.8 213.7
L 1641.95 209.9
Q 1644.3 207.05 1645.1 204.75 1645.7 202.9 1646 198.8
L 1646.15 196
Q 1646.65 189.7 1646.15 185.05 1645.3 182.1 1644.2 180.2 1642.9 178 1640.85 176.15 1637.2 174.8 1632 174.55
L 1630.2 174.5 Z" stroke="none" fill="#5D5A76"></path>

<path d="M 1647.8 154.45
Q 1647.35 154.35 1646.85 154.35 1645.75 154.2 1644.7 154.1 1643.55 154.05 1642.4 154 1641.15 153.95 1639.95 153.95 1638.65 153.85 1637.4 153.85 1633.8 153.7490234375 1630.2 153.7
L 1630.2 156.55
Q 1631.3646484375 156.7095703125 1632.55 156.85
L 1641.2 157.9
Q 1643.3 158.15 1644.05 158.2 1644.8255859375 158.2484375 1647.4 158.2 1647.5166015625 158.2 1647.6 158.2
L 1647.8 154.45
M 1668.65 140.25
Q 1666.8 131.25 1662.15 123.55 1657.4 116.5 1649 111.05
L 1646.45 109.45
Q 1645.81484375 109.111328125 1645.15 108.8
L 1644.65 108.8
Q 1643.95 108.45 1643.4 108.2 1640.95 107.75 1640.1 107.65 1639.25 107.55 1636.65 107.45
L 1630.2 107.05 1630.2 127 1638.65 127.55
Q 1639.7 127.65 1640.8 127.75 1641.8 127.85 1642.8 128 1643.8 128.15 1644.8 128.35 1645.65 128.45 1646.5 128.6 1647.4 128.8 1648.3 129.05 1649.1 129.25 1649.95 129.5 1650.75 129.7 1651.5 130 1652.2 130.25 1652.8 130.7 1653.8 131.55 1654.7 132.6
L 1653.35 158.5 1653.55 158.5 1653.05 164.3 1651.15 164.2 1650.9 169
Q 1649.15 169.25 1648.5 169.3 1647.8 169.35 1645.4 169.2 1638.2318359375 169.115234375 1630.2 170.25
L 1630.2 174.5 1632 174.55
Q 1637.2 174.8 1640.85 176.15 1642.9 178 1644.2 180.2 1645.3 182.1 1646.15 185.05 1646.65 189.7 1646.15 196
L 1646 198.8
Q 1645.7 202.9 1645.1 204.75 1644.3 207.05 1641.95 209.9
L 1640.8 213.7
Q 1636.4435546875 215.480078125 1630.2 215.95
L 1630.2 231.1
Q 1630.3498046875 231.0943359375 1630.5 231.1
L 1639.6 231.45 1641.75 232.05
Q 1643.65 236.15 1644.1 242.75
L 1644.65 245.8
Q 1644.9 248.15 1644.95 248.9 1644.95 249.7 1644.9 251.95
L 1643.5 254.25
Q 1637.5623046875 255.041796875 1630.2 254.15
L 1630.2 391.6
Q 1633.9521484375 391.7130859375 1635.15 391.85 1636.9 392.1 1640.1 393.8 1641 397.55 1640.7 401.55 1640.45 404.65 1639.3 409.2
L 1638.3 410.1
Q 1633.9140625 410.1359375 1630.2 410
L 1630.2 440.85
Q 1631.1130859375 440.8216796875 1631.9 440.75 1632.5134765625 440.5369140625 1633.05 440.3
L 1634.95 436.9 1640.05 432.35
Q 1643.2 429.4 1644.1 428.25 1644.95 427.15 1646.9 423.4 1647.55 419.2 1648 410.65
L 1649.7 380.9
Q 1651.6 346.6 1653.2 323.85 1655.5 292.7 1658.25 266.8
L 1661.35 238.85
Q 1661.8 236 1662.45 233.1 1663.2 229.3 1663.65 224.75
L 1666.75 194.85
Q 1669 173.05 1669.7 160.75
L 1669.8 158.2
Q 1670.25 148.3 1668.65 140.25 Z" stroke="none" fill="#F5F7F9"></path>

<path d="M 1653.55 158.5
L 1653.35 158.5 1647.6 158.2
Q 1647.5166015625 158.2 1647.4 158.2 1644.8255859375 158.2484375 1644.05 158.2 1643.3 158.15 1641.2 157.9
L 1632.55 156.85
Q 1631.3646484375 156.7095703125 1630.2 156.55
L 1630.2 170.25
Q 1638.2318359375 169.115234375 1645.4 169.2 1647.8 169.35 1648.5 169.3 1649.15 169.25 1650.9 169
L 1651.15 164.2 1653.05 164.3 1653.55 158.5 Z" stroke="none" fill="#992A3F"></path>

<path d="M 1638.65 127.55
L 1630.2 127 1630.2 153.7
Q 1633.8 153.7490234375 1637.4 153.85 1638.65 153.85 1639.95 153.95 1641.15 153.95 1642.4 154 1643.55 154.05 1644.7 154.1 1645.75 154.2 1646.85 154.35 1647.35 154.35 1647.8 154.45
L 1647.6 158.2 1653.35 158.5 1654.7 132.6
Q 1653.8 131.55 1652.8 130.7 1652.2 130.25 1651.5 130 1650.75 129.7 1649.95 129.5 1649.1 129.25 1648.3 129.05 1647.4 128.8 1646.5 128.6 1645.65 128.45 1644.8 128.35 1643.8 128.15 1642.8 128 1641.8 127.85 1640.8 127.75 1639.7 127.65 1638.65 127.55 Z" stroke="none" fill="#110F1A"></path>

<path d="M 1649.75 94.9
L 1649.6 97.25
Q 1649.65 99.25 1649.75 99.9 1649.825390625 100.351953125 1650.15 101.55
L 1649.95 99.25
Q 1649.9287109375 97.034375 1649.75 94.9
M 1638.05 23.05
Q 1634.14375 20.303515625 1630.2 18.35
L 1630.2 27
Q 1631.6361328125 28.2078125 1633.85 30 1640.25 36.05 1640.9 41 1640.95 41.8 1641.05 42.6
L 1630.2 42.2 1630.2 47.55 1632.9 47.7
Q 1637.2 48.25 1640.7 50.25 1641.4 51.95 1641.55 53.55 1641.6 54.45 1641.5 57.05
L 1641.35 63.25
Q 1641.05 77.45 1642.8 90.95 1643.4 96.6 1642.9 100.45
L 1640.9 102.3
Q 1637.55 102.35 1632.8 102.15
L 1630.2 102 1630.2 107.05 1636.65 107.45
Q 1639.25 107.55 1640.1 107.65 1640.95 107.75 1643.4 108.2 1643.95 108.45 1644.65 108.8
L 1645.15 108.8
Q 1643.5365234375 108.1087890625 1641.85 107.75
L 1641.9 107.25
Q 1643.85 107.15 1648.3 106.2 1649.4 103.1 1649.45 99.55 1649.5 97.4 1649 92.75
L 1649.6 92.75
Q 1649.4154296875 91.0779296875 1649.15 89.45 1646.7 74.05 1647.95 53.9
L 1648.6 45.25
Q 1649.1 39.1 1648.25 34.9 1647.15 31.85 1645.45 29.5 1643.85 27.4 1641.1 25.15
L 1638.05 23.05 Z" stroke="none" fill="#7E1A34"></path>

<path d="M 1649.6 92.75
L 1649 92.75
Q 1649.5 97.4 1649.45 99.55 1649.4 103.1 1648.3 106.2 1643.85 107.15 1641.9 107.25
L 1641.85 107.75
Q 1643.5365234375 108.1087890625 1645.15 108.8 1645.81484375 109.111328125 1646.45 109.45
L 1649 111.05
Q 1657.4 116.5 1662.15 123.55 1666.8 131.25 1668.65 140.25 1670.25 148.3 1669.8 158.2
L 1669.7 160.75
Q 1669 173.05 1666.75 194.85
L 1663.65 224.75
Q 1663.2 229.3 1662.45 233.1 1661.8 236 1661.35 238.85
L 1658.25 266.8
Q 1655.5 292.7 1653.2 323.85 1651.6 346.6 1649.7 380.9
L 1648 410.65
Q 1647.55 419.2 1646.9 423.4 1644.95 427.15 1644.1 428.25 1643.2 429.4 1640.05 432.35
L 1634.95 436.9 1633.05 440.3 1632.85 440.65
Q 1632.4103515625 440.698828125 1631.9 440.75 1631.1130859375 440.8216796875 1630.2 440.85
L 1630.2 447.05
Q 1636.1205078125 445.7609375 1640.5 443 1644.5 440.5 1649.3 435.35 1653.6 428.9 1654.45 423.9 1655.35 418.75 1656.4 394.7
L 1657.25 376
Q 1658.85 341.4 1660.65 316.85 1662.95 284.9 1666.25 257.95 1668.75 237.7 1671.55 210.25
L 1674.3 185
Q 1676.45 165.2 1676.35 155.05 1676.15 138.55 1671.35 125.7 1668.5 119.25 1665.7 115.3 1662 110.1 1657.2 107.2 1652.75 104.65 1650.4 102.4 1650.2642578125 101.9310546875 1650.15 101.55 1649.825390625 100.351953125 1649.75 99.9 1649.65 99.25 1649.6 97.25
L 1649.75 94.9 1649.95 92.8 1649.6 92.75 Z" stroke="none" fill="#706C84"></path>

<path d="M 1632.9 47.7
L 1630.2 47.55 1630.2 102 1632.8 102.15
Q 1637.55 102.35 1640.9 102.3
L 1642.9 100.45
Q 1643.4 96.6 1642.8 90.95 1641.05 77.45 1641.35 63.25
L 1641.5 57.05
Q 1641.6 54.45 1641.55 53.55 1641.4 51.95 1640.7 50.25 1637.2 48.25 1632.9 47.7 Z" stroke="none" fill="#E21F2D"></path>

<path d="M 1630.2 27
L 1630.2 42.2 1641.05 42.6
Q 1640.95 41.8 1640.9 41 1640.25 36.05 1633.85 30 1631.6361328125 28.2078125 1630.2 27 Z" stroke="none" fill="#DF202E"></path>
</g>
</g>
</g>
</g>

<g transform="matrix( 0.3621063232421875, 0, 0, 0.3621063232421875, -594.2,0.1)" id="Layer_2">
<g>
<g>
<g>
<path d="M 1658.95 449.35
Q 1656.35 448.25 1652.9 447.8 1650.7 447.55 1646.6 447.45 1637.55 447.15 1632.65 447.8 1631.1611328125 448.0078125 1630.2 448.15
L 1630.2 455.45
Q 1630.7888671875 455.427734375 1631.4 455.4
L 1639.45 455
Q 1638.75 455.05 1638.75 456.3
L 1638.8 466.35
Q 1635.45 467.45 1632.05 467.3
L 1632.05 474.55
Q 1649.65 475.65 1667.8 475.2 1668.35 466.2 1665.8 457.85 1664.7 454 1662.95 452.1 1661.5 450.45 1658.95 449.35
M 1630.2 331.55
L 1630.2 340.65
Q 1633.71015625 339.295703125 1636.75 338.45 1633.9486328125 343.9578125 1630.2 348.7
L 1630.2 362.2
Q 1636.9021484375 356.013671875 1641.45 348.45 1643.75 344.6 1644.55 341.35 1645.3 338.55 1645.2 334 1645 327.4 1645.05 326.6 1640.7 325.5 1636.85 327.25 1635.55 327.85 1633.9 329.05 1631.25 330.9 1631 331.05 1630.616796875 331.3025390625 1630.2 331.55
M 1665.3 344.2
Q 1665.2 342.95 1664.65 342.6 1664.25 342.3 1663.45 342.3
L 1659 342.2
Q 1656.6 342.1 1655.25 342.55 1653.75 343.1 1652.7 344.35 1652.15 345.1 1651.45 346.8 1650.85 348.05 1650.6 349.1 1650.35 350.25 1650.35 352.65
L 1650.35 361.85
Q 1650.35 363.15 1650.85 363.65 1651.35 364.1 1652.5 364.1
L 1657.15 364.2
Q 1659.15 364.2 1659.85 364 1660.4 363.85 1662 363.1 1663.35 362.45 1664.2 362.4 1665.25 362.35 1666.85 362.9 1674.35 365.7 1679.2 372 1683.7 377.85 1683.7 384.1 1683.7 386.55 1682.45 391.75 1681.8 394.45 1681.15 395.9 1680.2 398.1 1678.75 399.35 1675.8 401.9 1670.7 401.15 1669.05 400.9 1666.6 400.2 1662.9 399.1 1662.5 399 1657.45 397.75 1652.6 398.25
L 1652.6 405.05
Q 1666.25 410.25 1680.7 408.05 1685.3 407.35 1687 405.2 1687.85 404.15 1688.55 401.45 1691.05 392.05 1691.45 385.95 1692.05 377.15 1689.2 370.45 1687.45 366.25 1684.45 362.95 1680.85 359.05 1675.85 356.9 1670.8 354.75 1665.5 354.8 1665.8 349.8 1665.3 344.2 Z" stroke="none" fill="#000000"></path>

<path d="M 1636.75 338.45
Q 1633.71015625 339.295703125 1630.2 340.65
L 1630.2 348.7
Q 1633.9486328125 343.9578125 1636.75 338.45 Z" stroke="none" fill="#FFFFFF"></path>
</g>
</g>
</g>
</g>
</g>
</svg>
