
<svg viewBox="0 0 80 70" height="70px" width="80px" y="0px" x="0px" preserveAspectRatio="none" xmlns:xlink="http://www.w3.org/1999/xlink" version="1.1" xmlns="http://www.w3.org/2000/svg">
<defs></defs>

<g id="Layer_2">
<g transform="matrix( 0.2443389892578125, 0, 0, 0.2443389892578125, -5.6,-13.9)" id="Layer_1">
<g>
<g>
<g>
<path d="M 246 324
Q 246 323.5 246.25 323.3 249.8 320.55 245 319 245 321.5 245.5 323.9 245.5 324 246 324 Z" stroke="none" fill="#082930"></path>

<path d="M 257 326
Q 256.5 326 256 326 252 326 248 326 248.5 326.5 249.1 326.8 249.5 327 250 327 253.5 327 256.95 326.5 257 326.5 257 326 Z" stroke="none" fill="#243C42"></path>

<path d="M 175 307.05
Q 175.5 307 176 307 176 306.5 175.85 306.45 170.25 304.25 162 305 166.1 308.45 175 307.05 Z" stroke="none" fill="#746C5A"></path>

<path d="M 202 311
Q 202 310.5 201.8 310.35 198.25 308.25 192 309 194.15 312.35 201 311.1 201.5 311 202 311 Z" stroke="none" fill="#756D5A"></path>

<path d="M 188 309
Q 188 308.5 187.85 308.45 183 306.5 176 307 179.1 310.4 187 309.1 187.5 309 188 309 Z" stroke="none" fill="#786C58"></path>

<path d="M 199 299.5
L 199 299
Q 198.5 299 198.05 299.1 195.9 299.65 196 298 195.5 298 195.05 297.8 191.6 296.4 186 297 190.35 299.25 199 299.5 Z" stroke="none" fill="#AA6B11"></path>

<path d="M 217 313.05
Q 217.5 313 218 313 218 312.5 217.85 312.45 212.05 310.45 204 311 208.75 313.75 217 313.05 Z" stroke="none" fill="#736C5A"></path>

<path d="M 213 301
Q 213.5 301 214 301 214 300.5 213.9 300.5 205.3 298.7 196 298 195.9 299.65 198.05 299.1 198.5 299 199 299 204.5 303.1 209.1 301.2 209.5 301 210 301 211.5 301 213 301 Z" stroke="none" fill="#B57C1D"></path>

<path d="M 241 316
Q 240.5 316 240 316 240 320.5 240.5 324.95 240.5 325 241 325 241 324.5 241 324 241 323.5 241 323 241 322.5 241 322 241 319 241 316 Z" stroke="none" fill="#112D33"></path>

<path d="M 226 313
Q 226 313.5 225.8 313.9 225.5 314.5 225 315 224.45 323.05 225.9 329.05 226 329.5 226 330 229.3 334.25 232.75 338.2 233 338.5 233 339 240.1 343.4 251 343.5
L 251 343
Q 259.1 336.45 250.2 331.6 250 331.5 250 331 249.5 331 249 330.9 243 330 241 325 240.5 325 240.5 324.95 240 320.5 240 316 240.5 316 241 316 241 315.5 241 315 242.65 315.15 242.1 312.95 242 312.5 242 312 241.5 312 241.05 312.1 234.7 313.7 226 313 Z" stroke="none" fill="#030F15"></path>

<path d="M 225.8 313.9
Q 226 313.5 226 313 225.5 313 225 313 221.5 313 218 313 218.75 316.25 224 315.1 224.5 315 225 315 225.5 314.5 225.8 313.9 Z" stroke="none" fill="#687167"></path>

<path d="M 231 307
Q 231 307.5 231 308 237.4 307.1 240.25 309.75 240.5 310 241 310 241 309.5 240.75 309.2 238 306 231 307 Z" stroke="none" fill="#522702"></path>

<path d="M 231 308
Q 230.5 308 230.15 308.2 228 309.5 226 311 226 311.5 226 312 226 312.5 226 313 234.7 313.7 241.05 312.1 241.5 312 242 312 242 311.5 242 311 242 310.5 241.75 310.25 241.5 310 241 310 240.5 310 240.25 309.75 237.4 307.1 231 308 Z" stroke="none" fill="#260801"></path>

<path d="M 226 303
Q 226 302.5 225.95 302.5 219.45 302.05 214 301 213.5 301 213 301 211.5 301 210 301 213.65 303.8 225 303.05 225.5 303 226 303 Z" stroke="none" fill="#A86D0A"></path>

<path d="M 174 294
Q 174 294.5 174 295 178.3 298.6 185 297.1 185.5 297 186 297 186 296.5 185.95 296.5 179.35 295.65 174 294 Z" stroke="none" fill="#AE7310"></path>

<path d="M 168 294
Q 167.5 294 167 294 161.95 294.05 158 293 164.1 297.1 173 295.1 173.5 295 174 295 174 294.5 174 294 173.5 294 173 294 170.5 294 168 294 Z" stroke="none" fill="#A56908"></path>

<path d="M 288 263
Q 287.5 263 287.1 263.2 286.5 263.5 286 264 286 267 286 270 286 270.5 286 271 289.3 269.8 288.1 264 288 263.5 288 263 Z" stroke="none" fill="#6E6F61"></path>

<path d="M 280.1 287.95
Q 280 287.5 280 287 279.5 287 279 287 278.5 287 278 287 278 288.5 278 290 278 290.5 278 291 280.95 291.45 280.1 287.95 Z" stroke="none" fill="#706E5F"></path>

<path d="M 266 295
Q 266 295.5 266 296 269.3 297.2 268.5 303
L 269 303
Q 274.45 301.95 274.5 295
L 275 295
Q 275 294.5 275 294 275 293.5 275 293 274.5 293 274.15 293.25 271.4 295.1 266 295 Z" stroke="none" fill="#160B25"></path>

<path d="M 282 282
Q 282 282.5 282 283 285.1 283.1 284.1 278.95 284 278.5 284 278 283.5 278 283.1 278.2 282.5 278.5 282 279 282 280.5 282 282 Z" stroke="none" fill="#6D7062"></path>

<path d="M 262 293
Q 262 293.5 262 294 262 294.5 262 295 265.2 294.8 266 296.5
L 266 296
Q 266 295.5 266 295 271.4 295.1 274.15 293.25 274.5 293 275 293 275 292.5 274.95 292 274.7 290.3 273 290 272.5 290 272 290 265.3 289.8 262 293 Z" stroke="none" fill="#28070C"></path>

<path d="M 262 295
Q 261.5 295 261.2 295.25 260.4 295.95 258 296 258 296.5 258.1 297 260.05 305.55 252 304 251.5 304 251.45 304.15 250.1 309.1 247 312 247 312.5 246.9 313 246.35 315.35 245 317 245 317.5 245 318 245 318.5 245 319 249.8 320.55 246.25 323.3 246 323.5 246 324 247 324.5 247.75 325.25 248 325.5 248 326 252 326 256 326 256.5 326 257 326 263.2 315.2 268.8 303.9 269 303.5 269 303
L 268.5 303
Q 269.3 297.2 266 296
L 266 296.5
Q 265.2 294.8 262 295 Z" stroke="none" fill="#0A090F"></path>

<path d="M 258 295
Q 258 295.5 258 296 260.4 295.95 261.2 295.25 261.5 295 262 295 262 294.5 262 294 262 293.5 262 293 265.3 289.8 272 290 272.5 290 273 290 273 289.5 272.75 289.35 270.1 287.45 265 288 265 288.5 264.85 288.55 261.1 290.1 259 293 259 293.5 258.8 293.9 258.5 294.5 258 295 Z" stroke="none" fill="#432402"></path>

<path d="M 258 296
Q 257.5 296 257.35 296.2 255.05 300 252 303 252 303.5 252 304 260.05 305.55 258.1 297 258 296.5 258 296 Z" stroke="none" fill="#4E1E01"></path>

<path d="M 257 294
Q 257 294.5 256.75 294.7 249.6 300.6 238 302 238 302.5 238 303 244.5 303 251 303 251.5 303 252 303 255.05 300 257.35 296.2 257.5 296 258 296 258 295.5 258 295 258.5 294.5 258.8 293.9 259 293.5 259 293 258.5 293 258.1 293.2 257.5 293.5 257 294 Z" stroke="none" fill="#A57111"></path>

<path d="M 272 268
L 272 267.5
Q 269.7 267.4 266 272 266 272.5 266.1 273 268.5 283.7 260 284 262.35 286.75 264.15 287.8 264.5 288 265 288 265 287.5 265 287 265 286.5 265 286 273.6 280.1 274.95 267 275 266.5 275 266
L 275 265.5
Q 269.15 276.15 272 268 Z" stroke="none" fill="#F5C947"></path>

<path d="M 275.5 256
Q 275.7 258.7 274 259 273.8 263.15 275.3 261.25 275.5 261 276 261 276 260.5 276 260 276 258 276 256
L 275.5 256
M 276 218
Q 276 218.5 276.25 218.65 281.2 221.85 276 218 Z" stroke="none" fill="#FDC84B"></path>

<path d="M 279 239
Q 279 238.5 279.05 238 279.7 227.4 276 238 276 245 276.5 251.95 276.5 252 277 252 279.4 247.4 279 240 279 239.5 279 239 Z" stroke="none" fill="#F2BD47"></path>

<path d="M 292.1 240
Q 292 239.5 292 239 291.5 239 291 239 290.5 239 290 239 290 241.5 290 244 290 244.5 290 245 292.75 244.25 292.1 240 Z" stroke="none" fill="#637369"></path>

<path d="M 296 213
Q 295.5 213 295 213 294.5 213 294 213 294 216.5 294 220 294 220.5 294 221 297.3 219.8 296.1 214 296 213.5 296 213
M 72 153
Q 71.5 153 71 153 70.5 153 70 153 70 155.5 70 158 70 158.5 70 159 73.2 158.7 72.1 154 72 153.5 72 153 Z" stroke="none" fill="#606252"></path>

<path d="M 114 332
Q 114 331.5 113.75 331.2 111.65 328.9 110 326 109.9 330.6 113.05 331.85 113.5 332 114 332 Z" stroke="none" fill="#3F4F52"></path>

<path d="M 109 310
Q 108.5 310 108 310 108 316.5 108.5 322.95 108.5 323 109 323 109 322.5 109 322 109 320.5 109 319 109 318.5 109 318 109 314.5 109 311 109 310.5 109 310 Z" stroke="none" fill="#213439"></path>

<path d="M 109 319
Q 109.5 319 109.55 318.9 110.75 313.75 109 311 109 314.5 109 318 109 318.5 109 319 Z" stroke="none" fill="#01050E"></path>

<path d="M 124 311
Q 123.5 311 123 311 123 313.5 123 316 123 316.5 123 317 122.95 320.5 124.35 322.8 124.5 323 125 323 125 322.5 124.85 322.05 123.55 317.45 124 311 Z" stroke="none" fill="#32454B"></path>

<path d="M 123 317
Q 122.5 317 122.45 317.15 120.05 325.05 118 333 118 332.5 117.8 332.15 114.1 325.75 111 313 119.8 302.4 115 302.5
L 115 302
Q 114.5 302 114.25 302.25 111.2 305.2 109 309 109 309.5 109 310 109 310.5 109 311 110.75 313.75 109.55 318.9 109.5 319 109 319 109 320.5 109 322 109 322.5 109 323 108.4 325.15 109.9 325.5 110 325.5 110 326 111.65 328.9 113.75 331.2 114 331.5 114 332 118.85 344.5 130.15 337.25 130.5 337 131 337 128.7 329.8 125.6 323.2 125.5 323 125 323 124.5 323 124.35 322.8 122.95 320.5 123 317 Z" stroke="none" fill="#01121E"></path>

<path d="M 128 299
Q 128.5 299 129 299 129 298.5 128.85 298.45 124 296.5 117 297 117 297.5 117 298 117 298.5 117 299 122.5 299 128 299 Z" stroke="none" fill="#431900"></path>

<path d="M 130.5 301
Q 130.65 298.9 129 299 128.5 299 128 299 122.5 299 117 299 116.5 299 116 299 116 299.5 115.75 299.75 115.5 300 115 300 115 300.5 115 301 115 301.5 115 302
L 115 302.5
Q 119.8 302.4 111 313 114.1 325.75 117.8 332.15 118 332.5 118 333 120.05 325.05 122.45 317.15 122.5 317 123 317 123 316.5 123 316 123 313.5 123 311 123.5 311 124 311 128.5 307.5 130.8 301.95 131 301.5 131 301
L 130.5 301 Z" stroke="none" fill="#0B040D"></path>

<path d="M 161.8 304.4
Q 157.25 302.25 150 303 153.25 306.25 161 305.05 161.5 305 162 305 162 304.5 161.8 304.4 Z" stroke="none" fill="#6B7064"></path>

<path d="M 143 303
Q 143.5 303 144 303
L 144 302.5
Q 141.9 302.65 142 301 141.5 301 141 301 137.5 301 134 301 137.25 303.25 143 303 Z" stroke="none" fill="#716E5D"></path>

<path d="M 147 303
Q 147.5 303 148 303 148 302.5 147.8 302.35 145.5 300.95 142 301 141.9 302.65 144 302.5
L 144 303
Q 145.5 303 147 303 Z" stroke="none" fill="#846B53"></path>

<path d="M 58 295
Q 58 295.5 57.8 295.6 54.15 297.65 48 297 54.55 300.05 58.75 295.75 59 295.5 59 295 58.5 295 58 295 Z" stroke="none" fill="#335860"></path>

<path d="M 47 287
Q 46.5 287 46.4 287.2 45.5 289 44 290 44 292 44.45 293.9 44.5 294 45 294 45 293.5 45 293 45 292 45 291 46.5 290 46.9 288 47 287.5 47 287 Z" stroke="none" fill="#324F58"></path>

<path d="M 53 276
Q 52.5 276 52.5 276.1 50.9 282.9 47 287 47 287.5 46.9 288 46.5 290 45 291 45 292 45 293 45 293.5 45 294 46.5 295 47.75 296.25 48 296.5 48 297 54.15 297.65 57.8 295.6 58 295.5 58 295 57.5 295 57.4 294.8 53.3 285.75 53 276 Z" stroke="none" fill="#01131F"></path>

<path d="M 71 272
Q 70.5 272 70.4 271.8 64.9 259.5 60 269 65.05 271.95 66.5 278.9 66.5 279 67 279 69.2 278.7 69.5 276.05 69.5 276 70 276 70 275.5 70 275 70 274 70 273 70.5 273 71 273 71 272.5 71 272 Z" stroke="none" fill="#160604"></path>

<path d="M 73.1 269.2
Q 72.5 269.5 72 270 72 270.5 71.75 270.75 71.5 271 71 271 71 271.5 71 272 71 272.5 71 273 72.7 273.3 73.4 274.8 73.5 275 74 275 74 274.5 74 274 74 271.5 74 269 73.5 269 73.1 269.2 Z" stroke="none" fill="#5C5749"></path>

<path d="M 76.1 262
Q 76 261.5 76 261 75.5 261 75.45 260.85 74.7 258.8 72 259 74.6 261.4 74.95 266 75 266.5 75 267 76.7 265.7 76.1 262 Z" stroke="none" fill="#623903"></path>

<path d="M 63 261
Q 62.5 261 62.3 261.25 57.05 267.55 53 275 53 275.5 53 276 53.3 285.75 57.4 294.8 57.5 295 58 295 58.5 295 59 295 64.55 289.05 66.9 279.95 67 279.5 67 279 66.5 279 66.5 278.9 65.05 271.95 60 269 64.9 259.5 70.4 271.8 70.5 272 71 272 71 271.5 71 271 71.5 271 71.75 270.75 72 270.5 72 270 72 269.5 72.05 269 73.05 259.45 63 261 Z" stroke="none" fill="#03080B"></path>

<path d="M 72 259
Q 71.5 259 71 259.1 67.3 259.7 66 258 65.5 258 65.1 258.2 64.5 258.5 64 259 64 259.5 63.75 259.75 63.5 260 63 260 63 260.5 63 261 73.05 259.45 72.05 269 72 269.5 72 270 72.5 269.5 73.1 269.2 73.5 269 74 269 74 268.5 74 268 74 267.5 74 267 74.5 267 75 267 75 266.5 74.95 266 74.6 261.4 72 259 Z" stroke="none" fill="#290D03"></path>

<path d="M 64 238
Q 64 238.5 64 239 64 242.5 64 246 64 246.5 64 247 64.5 247 64.6 246.8 68.05 239.1 64 238 Z" stroke="none" fill="#A75E26"></path>

<path d="M 62 231
Q 61.5 231 61 231 60.5 231 60 231 58.25 248.25 63.4 258.8 63.5 259 64 259 64.5 258.5 65.1 258.2 65.5 258 66 258 66 257.5 65.95 257.5 62.9 257.1 64 253 63.5 253 63.2 252.75 61.25 251.2 62 247 62.5 247 63 247 63.5 247 64 247 64 246.5 64 246 64 242.5 64 239 63.5 239 63.3 238.75 61.25 236.25 62 231 Z" stroke="none" fill="#8D653F"></path>

<path d="M 73 223
Q 72.5 223 72 223 72 227.5 72 232 72 232.5 72 233 73.75 229.75 73.05 224 73 223.5 73 223 Z" stroke="none" fill="#DDA539"></path>

<path d="M 72 235
Q 71.5 235 71 235 70.15 250.9 75.8 260.15 76 260.5 76 261 76.5 261 77 261 77 260.5 76.95 260 76.75 256.25 76 253 76 252.5 75.85 252.05 73.1 242.95 72 235 Z" stroke="none" fill="#EAB447"></path>

<path d="M 60 225
Q 60 227.5 60 230 60 230.5 60 231 60.5 231 61 231 61.5 231 62 231 62 230.5 62 230 62 227.5 62 225 61.5 225 61 225 60.5 225 60 225 Z" stroke="none" fill="#687266"></path>

<path d="M 64.1 214
Q 64 213.5 64 213
L 63.5 213
Q 63.65 215.15 62 215 62 218.5 62 222 62 222.5 62 223 65.35 220.85 64.1 214 Z" stroke="none" fill="#7C6C59"></path>

<path d="M 66 199
Q 65.5 199 65 199 64.5 199 64 199 64 202.5 64 206 64 206.5 64 207 67.3 205.8 66.1 200 66 199.5 66 199 Z" stroke="none" fill="#697165"></path>

<path d="M 75.05 208
Q 75 207.5 75 207 74.5 207 74 207 74 210.5 74 214 74 214.5 74 215 75.75 212.75 75.05 208 Z" stroke="none" fill="#BC8221"></path>

<path d="M 157 293
Q 157.5 293 158 293 161.95 294.05 167 294 167.5 294 168 294 168 293.5 167.95 293.5 162.35 292.65 157 292 157 292.5 157 293 Z" stroke="none" fill="#BC841D"></path>

<path d="M 156 292.05
Q 156.5 292 157 292 157 291.5 156.95 291.5 151.05 290.95 146 290 149.3 292.7 156 292.05 Z" stroke="none" fill="#D39C35"></path>

<path d="M 130 288
Q 130 288.5 130 289 137.8 292.05 145 292 145.5 292 146 292 150.9 295.4 156.1 293.2 156.5 293 157 293 157 292.5 157 292 156.5 292 156 292.05 149.3 292.7 146 290 145.5 290 145 289.95 137.65 288.85 130 288 Z" stroke="none" fill="#A96C0B"></path>

<path d="M 82 270
Q 82 270.5 81.85 270.55 80.5 271 79 271 84.35 274.45 88.35 280.75 88.5 281 89 281 97.15 282.85 103.8 286.4 104 286.5 104 287 115.7 288.8 129 289 129.5 289 130 289 130 288.5 130 288
L 130 287.5
Q 98.1 286.4 82 270 Z" stroke="none" fill="#A9720D"></path>

<path d="M 81.85 270.55
Q 82 270.5 82 270 82 269.5 81.75 269.25 78.6 265.9 77 261 76.5 261 76 261 76 261.5 76.1 262 76.7 265.7 75 267 74.5 267 74 267 74 267.5 74 268 74 268.5 74 269 74 271.5 74 274 74 274.5 74 275 74 276.5 74 278 74 278.5 74 279 73.4 281.15 75 281.05 75.5 281 76 281 90.9 292.6 113.9 296.5 114 296.5 114 297 113.4 299.15 115 299.05 115.5 299 116 299 116.5 299 117 299 117 298.5 117 298 117 297.5 117 297 124 296.5 128.85 298.45 129 298.5 129 299 130.65 298.9 130.5 301
L 131 301
Q 132 301 133 301 133.5 301 134 301 137.5 301 141 301 141.5 301 142 301 145.5 300.95 147.8 302.35 148 302.5 148 303 148.5 303 149 303 149.5 303 150 303 157.25 302.25 161.8 304.4 162 304.5 162 305 170.25 304.25 175.85 306.45 176 306.5 176 307 183 306.5 187.85 308.45 188 308.5 188 309 189.5 309 191 309 191.5 309 192 309 198.25 308.25 201.8 310.35 202 310.5 202 311 202.5 311 203 311 203.5 311 204 311 212.05 310.45 217.85 312.45 218 312.5 218 313 221.5 313 225 313 225.5 313 226 313 226 312.5 226 312 226 311.5 226 311 228 309.5 230.15 308.2 230.5 308 231 308 231 307.5 231 307 238 306 240.75 309.2 241 309.5 241 310 241.5 310 241.75 310.25 242 310.5 242 311 243 311 244 311 244.5 311 245 311 246 311 246.8 311.4 247 311.5 247 312 250.1 309.1 251.45 304.15 251.5 304 252 304 252 303.5 252 303 251.5 303 251 303 244.5 303 238 303 237.5 303 237 303 231.5 303 226 303 225.5 303 225 303.05 213.65 303.8 210 301 209.5 301 209.1 301.2 204.5 303.1 199 299
L 199 299.5
Q 190.35 299.25 186 297 185.5 297 185 297.1 178.3 298.6 174 295 173.5 295 173 295.1 164.1 297.1 158 293 157.5 293 157 293 156.5 293 156.1 293.2 150.9 295.4 146 292 145.5 292 145 292 137.8 292.05 130 289 129.5 289 129 289 115.7 288.8 104 287 104 286.5 103.8 286.4 97.15 282.85 89 281 88.5 281 88.35 280.75 84.35 274.45 79 271 80.5 271 81.85 270.55 Z" stroke="none" fill="#9C622A"></path>

<path d="M 113 268
Q 113 268.5 112.85 268.55 105.45 271.2 120 274
L 120 274.5
Q 110.15 274.75 102 269
L 101.5 269
Q 103.1 273.1 101 273 100.5 273 100 272.95 86.15 270.8 83 263
L 82.5 263
Q 86.15 254.5 76 253 76.75 256.25 76.95 260 77 260.5 77 261 78.6 265.9 81.75 269.25 82 269.5 82 270 98.1 286.4 130 287.5
L 130 288
Q 137.65 288.85 145 289.95 145.5 290 146 290 151.05 290.95 156.95 291.5 157 291.5 157 292 162.35 292.65 167.95 293.5 168 293.5 168 294 170.5 294 173 294 173.5 294 174 294 179.35 295.65 185.95 296.5 186 296.5 186 297 191.6 296.4 195.05 297.8 195.5 298 196 298 205.3 298.7 213.9 300.5 214 300.5 214 301 219.45 302.05 225.95 302.5 226 302.5 226 303 231.5 303 237 303 237.5 303 238 303 238 302.5 238 302 249.6 300.6 256.75 294.7 257 294.5 257 294
L 257 293.5
Q 254.05 294.2 252 289 252.5 289 252.95 288.85 261.35 285.75 252 287
L 252 286.5
Q 237.7 286.2 238 283
L 238 282.5
Q 235.4 283.75 228 286 227.5 286 227.4 285.8 222.05 275.55 224 281 223.5 281 223.1 280.8 213.35 276.1 215 280
L 215.5 280
Q 211.6 283.1 208 276
L 208 276.5
Q 197.5873046875 275.0056640625 198.85 281.5 193.425 281.751171875 191 277
L 191 277.5
Q 182.25 277.75 171 278 170.5 278 170.4 277.8 169.35 275.6 169 275 168.5 275 168.25 274.75 161.6 268.75 160 275
L 160 275.5
Q 157.5 275.1 155 271
L 155 270.5
Q 148.35 271.6 141 276 140.5 276 140.1 275.8 135.85 273.35 134 273
L 133.5 273
Q 137.5 266 127 267 127 267.5 126.75 267.75 121.1 272.9 113 268 Z" stroke="none" fill="#F7D541"></path>

<path d="M 68 189
Q 68.5 189 68.65 188.75 71.75 184.1 68 185 68 186.5 68 188 68 188.5 68 189 Z" stroke="none" fill="#A75E27"></path>

<path d="M 68 185
Q 68 184.5 68 184 68 183.5 68 183 67.5 183 67 183 66.5 183 66 183 66 185.5 66 188 66 188.5 66 189 66 189.5 66 190 66 190.5 66 191 68.15 191.65 68.05 190 68 189.5 68 189 68 188.5 68 188 68 186.5 68 185 Z" stroke="none" fill="#696655"></path>

<path d="M 80 176
Q 80 177 80 178 80 178.5 80 179
L 80 179.5
Q 82.95 178.85 80 176 Z" stroke="none" fill="#FDC74B"></path>

<path d="M 78.1 112
Q 78 111.5 78 111 77.5 111 77 111 76.5 111 76 111 76 113.5 76 116 76 116.5 76 117 79.2 116.7 78.1 112 Z" stroke="none" fill="#616255"></path>

<path d="M 154 83
Q 154 82.5 153.95 82.5 150 82 146 82 148.25 83.75 153 83.05 153.5 83 154 83 Z" stroke="none" fill="#D89B45"></path>

<path d="M 154 71
Q 155.2 74.3 161 73.1 161.5 73 162 73 162 72.5 161.75 72.3 159.25 70.25 154 71 Z" stroke="none" fill="#616559"></path>

<path d="M 116 69
Q 116 69.5 116 70 116 70.5 116 71 130.5 71 145 71 145.5 71 146 71 146 70.5 145.9 70.5 132.25 68.25 116 69 Z" stroke="none" fill="#6C6555"></path>

<path d="M 298 197
L 297.5 197
Q 297.65 199.15 296 199 296 200.5 296 202 296 202.5 296 203 299.2 202.7 298.1 198 298 197.5 298 197 Z" stroke="none" fill="#646150"></path>

<path d="M 300 181
L 299.5 181
Q 299.75 186.25 298 189 298 189.5 298 190 298 190.5 298 191 301.35 188.85 300.1 182 300 181.5 300 181 Z" stroke="none" fill="#695F4B"></path>

<path d="M 301.1 167.2
Q 300.5 167.5 300 168 300 171 300 174 300 174.5 300 175 303.15 175.9 302.05 168 302 167.5 302 167 301.5 167 301.1 167.2 Z" stroke="none" fill="#69604D"></path>

<path d="M 290.05 168
Q 290 167.5 290 167 289.5 167 289 167 289 170.5 289 174 289 174.5 289 175 290.75 172.75 290.05 168 Z" stroke="none" fill="#BF8421"></path>

<path d="M 304.05 157
Q 304 156.5 304 156
L 303.5 156
Q 303.7 158.7 302 159 302 161.5 302 164 302 164.5 302 165 304.8 162.8 304.05 157 Z" stroke="none" fill="#5F6254"></path>

<path d="M 283 115
Q 283 114.5 282.8 114.1 281.65 111.35 279 110 279.9 113.1 282.2 114.75 282.5 115 283 115 Z" stroke="none" fill="#C48627"></path>

<path d="M 304 136
Q 304 142 304 148 304 148.5 304 149 304.5 149 304.6 148.8 308.1 141.4 304 136 Z" stroke="none" fill="#5E6253"></path>

<path d="M 293 147
Q 293 146.5 293.05 146 293.75 139.25 292 135 292 141 292.5 146.95 292.5 147 293 147 Z" stroke="none" fill="#D3953C"></path>

<path d="M 294 111
Q 294 110.5 294 110 293.9 105.6 290 105 291.2 108.3 293.3 110.75 293.5 111 294 111 Z" stroke="none" fill="#606250"></path>

<path d="M 226 83
Q 226 82.5 225.8 82.4 221.75 80.25 215 81 218.3 83.7 225 83.05 225.5 83 226 83 Z" stroke="none" fill="#5D6256"></path>

<path d="M 241 85
Q 241 84.5 240.85 84.45 236.25 82.75 230 83 233 86 240 85.05 240.5 85 241 85 Z" stroke="none" fill="#606355"></path>

<path d="M 208.9 91.5
Q 209 91.5 209 91 208.5 91 208 91 207.5 91 207 91 203.5 91 200 91 203.25 92.75 208.9 91.5 Z" stroke="none" fill="#F8C459"></path>

<path d="M 210 81
Q 210 80.5 209.75 80.3 207.25 78.25 202 79 205.05 80.45 209 80.95 209.5 81 210 81 Z" stroke="none" fill="#6A604D"></path>

<path d="M 200 90
Q 200 90.5 200 91 203.5 91 207 91 207.5 91 208 91 208 90.5 207.95 90.5 204 90 200 90 Z" stroke="none" fill="#D19843"></path>

<path d="M 186 77
Q 186 76.5 185.75 76.3 183.25 74.25 178 75 179.2 78.3 185 77.1 185.5 77 186 77
M 170 75
Q 170 74.5 169.75 74.3 167.25 72.25 162 73 163.2 76.3 169 75.1 169.5 75 170 75 Z" stroke="none" fill="#656456"></path>

<path d="M 194 77
Q 195.2 80.3 201 79.1 201.5 79 202 79 202 78.5 201.9 78.5 198.85 77.95 194 77 Z" stroke="none" fill="#5E6458"></path>

<path d="M 179 88
Q 178.5 88 178 88 193.9 92.5 188.25 88.65 188 88.5 188 88 187.5 88 187 88 183.5 88 180 88 179.5 88 179 88 Z" stroke="none" fill="#F9C454"></path>

<path d="M 180 87
Q 180 87.5 180 88 183.5 88 187 88 187.5 88 188 88 188 87.5 187.95 87.5 184 87 180 87 Z" stroke="none" fill="#CD9231"></path>

<path d="M 173 86
L 173 86.5
Q 146 82.15 117 85 117 85.5 116.75 85.65 107.9 91.4 100 98 92.95 109 89.75 128.95 85.5 155.1 84 151 83.5 151 83.5 151.05 82.75 162.25 80 171 80 173 80 175 80 175.5 80 176 82.95 178.85 80 179.5
L 80 179
Q 79.5 179 79.5 179.05 78.2 194.2 75 207 75 207.5 75.05 208 75.75 212.75 74 215 74 215.5 74.1 216 74.7 218.7 73 219 73 220.5 73 222 73 222.5 73 223 73 223.5 73.05 224 73.75 229.75 72 233 72 233.5 72 234 72 234.5 72 235 73.1 242.95 75.85 252.05 76 252.5 76 253 86.15 254.5 82.5 263
L 83 263
Q 86.15 270.8 100 272.95 100.5 273 101 273 103.1 273.1 101.5 269
L 102 269
Q 110.15 274.75 120 274.5
L 120 274
Q 105.45 271.2 112.85 268.55 113 268.5 113 268 121.1 272.9 126.75 267.75 127 267.5 127 267 137.5 266 133.5 273
L 134 273
Q 135.85 273.35 140.1 275.8 140.5 276 141 276 148.35 271.6 155 270.5
L 155 271
Q 157.5 275.1 160 275.5
L 160 275
Q 161.6 268.75 168.25 274.75 168.5 275 169 275 169.35 275.6 170.4 277.8 170.5 278 171 278 182.25 277.75 191 277.5
L 191 277
Q 193.425 281.751171875 198.85 281.5 197.5873046875 275.0056640625 208 276.5
L 208 276
Q 211.6 283.1 215.5 280
L 215 280
Q 213.35 276.1 223.1 280.8 223.5 281 224 281 222.05 275.55 227.4 285.8 227.5 286 228 286 235.4 283.75 238 282.5
L 238 283
Q 237.7 286.2 252 286.5
L 252 287
Q 261.35 285.75 252.95 288.85 252.5 289 252 289 254.05 294.2 257 293.5
L 257 294
Q 257.5 293.5 258.1 293.2 258.5 293 259 293 261.1 290.1 264.85 288.55 265 288.5 265 288 264.5 288 264.15 287.8 262.35 286.75 260 284 268.5 283.7 266.1 273 266 272.5 266 272 269.7 267.4 272 267.5
L 272 268
Q 269.15 276.15 275 265.5
L 275 266
Q 276.7 265.2 276.1 262 276 261.5 276 261 275.5 261 275.3 261.25 273.8 263.15 274 259 275.7 258.7 275.5 256
L 276 256
Q 276 255.5 276 255 277.65 255.15 277.1 252.95 277 252.5 277 252 276.5 252 276.5 251.95 276 245 276 238 279.7 227.4 279.05 238 279 238.5 279 239 284.35 207.85 288.5 175.05 288.5 175 289 175 289 174.5 289 174 289 170.5 289 167 289.5 167 290 167 290 166.5 290 166 290 165 290 164 292.3 156.8 292.95 148 293 147.5 293 147 292.5 147 292.5 146.95 292 141 292 135 292 134.5 291.9 134.05 289.25 122.75 283 115 282.5 115 282.2 114.75 279.9 113.1 279 110 278.5 110 278.15 109.8 251.05 92.95 209 91 209 91.5 208.9 91.5 203.25 92.75 200 91 200 90.5 200 90 199.5 90 199 89.9 193.8 88.7 188 88 188 88.5 188.25 88.65 193.9 92.5 178 88 178.5 88 179 88 179.5 88 180 88 180 87.5 180 87 179.5 87 179.1 86.8 176.95 85.55 173 86
M 210 93.5
L 210 93
Q 223.25 93.5 210 93.5
M 226 124
Q 225.5 124 225 123.9 197.4 118.6 170 117 169.5 117 169.1 116.8 164.4 114.1 156 115
L 156 114.5
Q 122.25 113.85 111 96 114.95 88.95 123.05 86.15 123.5 86 124 86 202.5 88.05 270.05 110.85 270.5 111 271 111 271.5 111 271.7 111.25 279.05 119.9 275 131 274.5 131 274 130.95 252.4 128.9 231 127 231 126.5 230.95 126.5 227.25 126.2 226 124
M 173.95 124.5
Q 174 124.5 174 125 182.85 126.65 189.8 130.4 190 130.5 190 131 214.45 141.05 225.4 164.8 225.5 165 226 165 230.1 167.4 229.5 173.95 229.5 174 229 174 229.8 176.2 230.45 178.9 230.5 179 231 179 231 178.5 231 178 231 177.5 231 177 232.75 179.25 232.05 184 232 184.5 232 185 232 185.5 232.05 186 232.75 190.75 231 193 231 194 231 195 231 195.5 231 196 231.5 196 231.5 196.05 232.9 209.6 230 203 230 203.5 229.75 203.85 229 205 228 206 228 207 228 208 228 208.5 228 209 228 209.5 227.95 210 226.45 220.65 222 219 221.5 219 221.35 219.25 219.65 221.65 217 223 217 223.5 217 224 217.5 224 217.95 224.15 221.75 225.65 216 227 216 227.5 216.05 228 216.45 232.45 204 237 204 237.5 203.75 237.8 191.3 254.35 152 253 152 252.5 151.75 252.3 146 247.5 146 237 145.5 237 145.45 236.85 145 235.5 145 234 146.25 228.75 147.5 223.1 147.5 223 148 223 148 222.5 148 222 148 219.5 148 217 147.5 217 147.5 216.95 147 212 147 207 147.5 207 148 207 148 206.5 148 206 148.5 206 149 206 149 205.5 149 205 149 202 149 199 149 198.5 149 198 149 194.5 149 191 149.5 191 150 191 150 190.5 150 190 150 170.5 150 151 149.5 151 149.5 150.95 149 143 149 135 149.5 135 150 135 150 134.5 150 134 150.5 134 151 134 151 133.5 151 133 151 132 151 131 153 127 157.1 125.2 157.5 125 158 125 158 124.5 158 124 166 124 173.95 124.5
M 147.95 154
Q 148 153.5 148 153 149.75 163.75 149.05 177 149 177.5 149 178 147.25 167.25 147.95 154
M 146.05 190
Q 146 189.5 146 189 147.4 207.6 146.05 190
M 82.25 228.85
Q 82 228.5 82 228 85.35 233.7 82.25 228.85
M 98.2 240.65
Q 98 240.5 98 240 104.05 244.05 98.2 240.65
M 120 264.5
L 120 264
Q 135.15 261.85 120 264.5
M 102 268
Q 113.1 267.2 102 268.5
L 102 268
M 94.1 269.5
Q 94 269.5 94 269 101.65 270.9 94.1 269.5
M 90.15 260.55
Q 90 260.5 90 260 99.85 264.3 90.15 260.55
M 135.2 267.55
Q 135 267.5 135 267 143.3 270.9 135.2 267.55
M 140 270.5
L 140 270
Q 151.2 269.7 140 270.5
M 276.25 218.65
Q 276 218.5 276 218 281.2 221.85 276.25 218.65
M 187.2 273.6
Q 187 273.5 187 273 193.85 276.75 187.2 273.6
M 171.2 272.6
Q 171 272.5 171 272 181.1 278 171.2 272.6
M 190.15 272.55
Q 190 272.5 190 272 197.45 275.45 190.15 272.55
M 233 268.5
L 233 268
Q 241.05 264.3 233 268.5 Z" stroke="none" fill="#F7C63E"></path>

<path d="M 233 268
L 233 268.5
Q 241.05 264.3 233 268
M 98 240
Q 98 240.5 98.2 240.65 104.05 244.05 98 240
M 82 228
Q 82 228.5 82.25 228.85 85.35 233.7 82 228 Z" stroke="none" fill="#FAD443"></path>

<path d="M 190 272
Q 190 272.5 190.15 272.55 197.45 275.45 190 272
M 187 273
Q 187 273.5 187.2 273.6 193.85 276.75 187 273
M 102 268.5
Q 113.1 267.2 102 268
L 102 268.5 Z" stroke="none" fill="#F8D83E"></path>

<path d="M 171 272
Q 171 272.5 171.2 272.6 181.1 278 171 272
M 90 260
Q 90 260.5 90.15 260.55 99.85 264.3 90 260
M 120 264
L 120 264.5
Q 135.15 261.85 120 264 Z" stroke="none" fill="#F8D640"></path>

<path d="M 140 270
L 140 270.5
Q 151.2 269.7 140 270 Z" stroke="none" fill="#F9D540"></path>

<path d="M 135 267
Q 135 267.5 135.2 267.55 143.3 270.9 135 267 Z" stroke="none" fill="#F9D542"></path>

<path d="M 94 269
Q 94 269.5 94.1 269.5 101.65 270.9 94 269 Z" stroke="none" fill="#F9D541"></path>

<path d="M 146 189
Q 146 189.5 146.05 190 147.4 207.6 146 189 Z" stroke="none" fill="#FCCD4A"></path>

<path d="M 148 153
Q 148 153.5 147.95 154 147.25 167.25 149 178 149 177.5 149.05 177 149.75 163.75 148 153 Z" stroke="none" fill="#F4C655"></path>

<path d="M 217 224
Q 217 224.5 216.75 224.75 216.5 225 216 225 216 225.5 216 226 216 226.5 216 227 221.75 225.65 217.95 224.15 217.5 224 217 224 Z" stroke="none" fill="#EECF5C"></path>

<path d="M 216.05 228
Q 216 227.5 216 227 216 226.5 216 226 215.5 226 215.25 226.25 209.7 232.2 202 236 202 236.5 202 237 202.5 237 203 237 203.5 237 204 237 216.45 232.45 216.05 228 Z" stroke="none" fill="#DDC166"></path>

<path d="M 228 209
Q 227.5 209 227.45 209.15 225.75 214.25 222 217 222 217.5 222 218 222 218.5 222 219 226.45 220.65 227.95 210 228 209.5 228 209 Z" stroke="none" fill="#DEBF64"></path>

<path d="M 148 241
Q 147.5 241 147.45 240.9 147 239 147 237 146.5 237 146 237 146 247.5 151.75 252.3 152 252.5 152 253 191.3 254.35 203.75 237.8 204 237.5 204 237 203.5 237 203 237 202.5 237 202 237 201.5 237 201.15 237.25 190.3 244.8 177 250 176.5 250 176 250 168.7 250.3 164 248 163.5 248 163.1 248.2 151.6 253.25 148 241 Z" stroke="none" fill="#E3C866"></path>

<path d="M 148 227
Q 147.5 227 147 227 147 231.5 147 236 147 236.5 147 237 147 239 147.45 240.9 147.5 241 148 241 148 240.5 148 240 148 233.5 148 227 Z" stroke="none" fill="#CFA03B"></path>

<path d="M 148 223
Q 147.5 223 147.5 223.1 146.25 228.75 145 234 145 235.5 145.45 236.85 145.5 237 146 237 146.5 237 147 237 147 236.5 147 236 147 231.5 147 227 147.5 227 148 227 148 226.5 148 226 148 225.5 148 225 148 224 148 223 Z" stroke="none" fill="#EED154"></path>

<path d="M 149 215
Q 148.5 215 148 215 148 215.5 148 216 148 216.5 148 217 148 219.5 148 222 148 222.5 148 223 148 224 148 225 148 225.5 148 226 149.75 222.25 149.05 216 149 215.5 149 215 Z" stroke="none" fill="#665641"></path>

<path d="M 148 207
Q 147.5 207 147 207 147 212 147.5 216.95 147.5 217 148 217 148 216.5 148 216 148 215.5 148 215 148 214.5 148 214 148 210.5 148 207 Z" stroke="none" fill="#FCD14D"></path>

<path d="M 149 207
Q 149 206.5 149 206 148.5 206 148 206 148 206.5 148 207 148 210.5 148 214 148 214.5 148 215 148.5 215 149 215 149 214.5 149 214 149 210.5 149 207 Z" stroke="none" fill="#B19657"></path>

<path d="M 150.05 200
Q 150 199.5 150 199 149.5 199 149 199 149 202 149 205 149 205.5 149 206 149 206.5 149 207 150.75 204.75 150.05 200 Z" stroke="none" fill="#6A4803"></path>

<path d="M 150 191
Q 149.5 191 149 191 149 194.5 149 198 149 198.5 149 199 149.5 199 150 199 150 198.5 150 198 150 194.5 150 191 Z" stroke="none" fill="#A67403"></path>

<path d="M 150 134
Q 150 134.5 150 135 150 138 150 141 150 141.5 150 142 151.75 139.75 151.05 135 151 134.5 151 134 150.5 134 150 134 Z" stroke="none" fill="#3A2601"></path>

<path d="M 150 135
Q 149.5 135 149 135 149 143 149.5 150.95 149.5 151 150 151 150 150.5 150 150 150 146 150 142 150 141.5 150 141 150 138 150 135 Z" stroke="none" fill="#B98724"></path>

<path d="M 231.5 196.05
Q 231.5 196 231 196 231 196.5 231.1 197 231.7 200.2 230 201 230 201.5 230 202 230 202.5 230 203 232.9 209.6 231.5 196.05 Z" stroke="none" fill="#E7C56F"></path>

<path d="M 232 185
Q 231.5 185 231 185 231 188.5 231 192 231 192.5 231 193 232.75 190.75 232.05 186 232 185.5 232 185 Z" stroke="none" fill="#7C5D0D"></path>

<path d="M 231 177
Q 231 177.5 231 178 231 178.5 231 179 231 181.5 231 184 231 184.5 231 185 231.5 185 232 185 232 184.5 232.05 184 232.75 179.25 231 177 Z" stroke="none" fill="#DBBC68"></path>

<path d="M 226 165
Q 226.95 169.55 228.8 173.1 229 173.5 229 174 229.5 174 229.5 173.95 230.1 167.4 226 165 Z" stroke="none" fill="#CFAC5C"></path>

<path d="M 190 131
Q 190 130.5 189.8 130.4 182.85 126.65 174 125 181.1 128.4 189.05 130.85 189.5 131 190 131 Z" stroke="none" fill="#795512"></path>

<path d="M 174 125
Q 173.5 125 173 125 165.5 125 158 125 157.5 125 157.1 125.2 153 127 151 131 151 132 151 133 151 133.5 151 134 151 134.5 151.05 135 151.75 139.75 150 142 150 146 150 150 150 150.5 150 151 150 170.5 150 190 150 190.5 150 191 150 194.5 150 198 150 198.5 150 199 150 199.5 150.05 200 150.75 204.75 149 207 149 210.5 149 214 149 214.5 149 215 149 215.5 149.05 216 149.75 222.25 148 226 148 226.5 148 227 148 233.5 148 240 148 240.5 148 241 151.6 253.25 163.1 248.2 163.5 248 164 248 168.7 250.3 176 250 176.5 250 177 250 190.3 244.8 201.15 237.25 201.5 237 202 237 202 236.5 202 236 209.7 232.2 215.25 226.25 215.5 226 216 226 216 225.5 216 225 216.5 225 216.75 224.75 217 224.5 217 224 217 223.5 217 223 219.65 221.65 221.35 219.25 221.5 219 222 219 222 218.5 222 218 222 217.5 222 217 225.75 214.25 227.45 209.15 227.5 209 228 209 228 208.5 228 208 228 207 228 206 229 205 229.75 203.85 230 203.5 230 203 230 202.5 230 202 230 201.5 230 201 231.7 200.2 231.1 197 231 196.5 231 196 231 195.5 231 195 231 194 231 193 231 192.5 231 192 231 188.5 231 185 231 184.5 231 184 231 181.5 231 179 230.5 179 230.45 178.9 229.8 176.2 229 174 229 173.5 228.8 173.1 226.95 169.55 226 165 225.5 165 225.4 164.8 214.45 141.05 190 131 189.5 131 189.05 130.85 181.1 128.4 174 125
M 169.9 137.45
Q 170 137.5 170 138 202.4 144.1 211.85 173.05 212 173.5 212 174 213.25 176.25 213.9 179 214 179.5 214 180 214 181 214 182 214 182.5 214 183 215.75 186.25 214.5 191.9 214.5 192 214 192 214 192.5 213.9 193 211.5 206.5 203 214 203 214.5 203 215 203 215.5 202.75 215.8 201.1 218.1 198 219 198 219.5 197.75 219.7 188.3 227.8 177 234 177 234.5 176.9 234.5 169.75 235.75 165 234 164.5 234 164.5 233.95 164 228.5 164 223 164 222.5 164 222 164 216.5 164 211 164 210.5 164 210 164 202.5 164 195 164.5 195 165 195 165 194.5 165 194 165 191.5 165 189 164.5 189 164.5 188.95 164 184 164 179 164.5 179 165 179 165 178.5 165 178 165 162.5 165 147 165.5 147 166 147 166 146.5 166 146 166 141.5 166 137 168 137 169.9 137.45 Z" stroke="none" fill="#160502"></path>

<path d="M 165 234
Q 165 233.5 165 233 165 230 165 227 165 226.5 165 226 165 224.5 165 223 164.5 223 164 223 164 228.5 164.5 233.95 164.5 234 165 234 Z" stroke="none" fill="#533801"></path>

<path d="M 176.9 234.5
Q 177 234.5 177 234 176.5 234 176 234 170.5 234 165 234 169.75 235.75 176.9 234.5 Z" stroke="none" fill="#6C4E08"></path>

<path d="M 165 222
Q 165 216.5 165 211 164.5 211 164 211 164 216.5 164 222 164 222.5 164 223 164.5 223 165 223 165 222.5 165 222 Z" stroke="none" fill="#493829"></path>

<path d="M 166 209
Q 165.5 209 165 209 165 209.5 165 210 165 210.5 165 211 165 216.5 165 222 165 222.5 165 223 165 224.5 165 226 165 226.5 165 227 166.75 219.75 166.05 210 166 209.5 166 209 Z" stroke="none" fill="#B0966B"></path>

<path d="M 202.75 215.8
Q 203 215.5 203 215 202.5 215 202.15 215.2 200 216.5 198 218 198 218.5 198 219 201.1 218.1 202.75 215.8 Z" stroke="none" fill="#A68332"></path>

<path d="M 214 192
Q 214.5 192 214.5 191.9 215.75 186.25 214 183 214 187 214 191 214 191.5 214 192 Z" stroke="none" fill="#462F15"></path>

<path d="M 214 180
Q 214 179.5 213.9 179 213.25 176.25 212 174 211.25 178.2 213.2 179.75 213.5 180 214 180 Z" stroke="none" fill="#BA9A4D"></path>

<path d="M 166 195
Q 165.5 195 165 195 165 201.5 165 208 165 208.5 165 209 165.5 209 166 209 166 208.5 166 208 166 201.5 166 195 Z" stroke="none" fill="#887147"></path>

<path d="M 165 195
Q 164.5 195 164 195 164 202.5 164 210 164 210.5 164 211 164.5 211 165 211 165 210.5 165 210 165 209.5 165 209 165 208.5 165 208 165 201.5 165 195 Z" stroke="none" fill="#412F15"></path>

<path d="M 165 179
Q 164.5 179 164 179 164 184 164.5 188.95 164.5 189 165 189 165 188.5 165 188 165 183.5 165 179 Z" stroke="none" fill="#2F2415"></path>

<path d="M 166 179
Q 165.5 179 165 179 165 183.5 165 188 165 188.5 165 189 165 191.5 165 194 165 194.5 165 195 165.5 195 166 195 166 194.5 166 194 166 186.5 166 179 Z" stroke="none" fill="#513D1B"></path>

<path d="M 167 161
Q 167 161.5 167 162 167.5 162 167.5 161.9 168.75 154.75 167 150 167 155.5 167 161 Z" stroke="none" fill="#D4B051"></path>

<path d="M 166 147
Q 165.5 147 165 147 165 162.5 165 178 165 178.5 165 179 165.5 179 166 179 166 178.5 166 178 166 170.5 166 163 166 162.5 166 162 166 154.5 166 147 Z" stroke="none" fill="#412A03"></path>

<path d="M 167 147
Q 166.5 147 166 147 166 154.5 166 162 166 162.5 166 163 166.5 163 166.75 162.75 167 162.5 167 162 167 161.5 167 161 167 155.5 167 150 167 149.5 167 149 167 148 167 147 Z" stroke="none" fill="#BA9235"></path>

<path d="M 170 138
Q 169.5 138 169 138 168 138 167 138 167 142 167 146 167 146.5 167 147 167 148 167 149 167 149.5 167 150 168.75 154.75 167.5 161.9 167.5 162 167 162 167 162.5 166.75 162.75 166.5 163 166 163 166 170.5 166 178 166 178.5 166 179 166 186.5 166 194 166 194.5 166 195 166 201.5 166 208 166 208.5 166 209 166 209.5 166.05 210 166.75 219.75 165 227 165 230 165 233 165 233.5 165 234 170.5 234 176 234 176.5 234 177 234 188.3 227.8 197.75 219.7 198 219.5 198 219 198 218.5 198 218 200 216.5 202.15 215.2 202.5 215 203 215 203 214.5 203 214 211.5 206.5 213.9 193 214 192.5 214 192 214 191.5 214 191 214 187 214 183 214 182.5 214 182 214 181 214 180 213.5 180 213.2 179.75 211.25 178.2 212 174 212 173.5 211.85 173.05 202.4 144.1 170 138
M 168 168
Q 168 167.5 168 167 174.25 174 174 185 174 185.5 174 186 171.45 188.95 168 190.5
L 168 190
Q 168 179 168 168 Z" stroke="none" fill="#F3C341"></path>

<path d="M 168 167
Q 168 167.5 168 168 168 179 168 190
L 168 190.5
Q 171.45 188.95 174 186 174 185.5 174 185 174.25 174 168 167 Z" stroke="none" fill="#F4BE30"></path>

<path d="M 170 138
Q 170 137.5 169.9 137.45 168 137 166 137 166 141.5 166 146 166 146.5 166 147 166.5 147 167 147 167 146.5 167 146 167 142 167 138 168 138 169 138 169.5 138 170 138 Z" stroke="none" fill="#845F12"></path>

<path d="M 174 125
Q 174 124.5 173.95 124.5 166 124 158 124 158 124.5 158 125 165.5 125 173 125 173.5 125 174 125 Z" stroke="none" fill="#755107"></path>

<path d="M 204 103.95
Q 204.5 104 205 104 215.9 107.6 227.9 110.45 228 110.5 228 111 256.1 114.2 270.9 111.5 271 111.5 271 111 270.5 111 270.05 110.85 202.5 88.05 124 86 124 86.5 123.8 86.55 120.85 87.85 119 90 136.2 95.95 158 96 158.5 96 159 96 178.5 102.3 204 103.95 Z" stroke="none" fill="#FEDF6F"></path>

<path d="M 225 123.9
Q 225.5 124 226 124 227.25 126.2 230.95 126.5 231 126.5 231 127 252.4 128.9 274 130.95 274.5 131 275 131 279.05 119.9 271.7 111.25 271.5 111 271 111 271 111.5 270.9 111.5 256.1 114.2 228 111 228 110.5 227.9 110.45 215.9 107.6 205 104 204.5 104 204 103.95 178.5 102.3 159 96 158.5 96 158 96 136.2 95.95 119 90 120.85 87.85 123.8 86.55 124 86.5 124 86 123.5 86 123.05 86.15 114.95 88.95 111 96 122.25 113.85 156 114.5
L 156 115
Q 164.4 114.1 169.1 116.8 169.5 117 170 117 197.4 118.6 225 123.9 Z" stroke="none" fill="#FECD58"></path>

<path d="M 210 93
L 210 93.5
Q 223.25 93.5 210 93 Z" stroke="none" fill="#F9C459"></path>

<path d="M 173 86.5
L 173 86 173 85.5
Q 162.25 85.25 154 83 153.5 83 153 83.05 148.25 83.75 146 82 146 81.5 145.95 81.5 83.45 78.1 84 143 84 146.5 84 150 84 150.5 84 151 85.5 155.1 89.75 128.95 92.95 109 100 98 107.9 91.4 116.75 85.65 117 85.5 117 85 146 82.15 173 86.5 Z" stroke="none" fill="#F8C155"></path>

<path d="M 269.05 91.1
Q 269.5 91 270 91 270 90.5 269.85 90.05 269.2 88.3 266 89 265.6 91.9 269.05 91.1 Z" stroke="none" fill="#626255"></path>

<path d="M 256 87
Q 258.7 88.85 263 89 263.5 89 264 89 264 88.5 263.75 88.3 261.25 86.25 256 87 Z" stroke="none" fill="#656150"></path>

<path d="M 252 87
Q 252 86.5 251.8 86.4 247.95 84.6 242 85 244.6 87.9 251 87.05 251.5 87 252 87 Z" stroke="none" fill="#656253"></path>

<path d="M 245 91
Q 244.5 91 244.4 90.8 242.55 87.45 241 93 240.5 93 240.05 92.9 193.2 81.4 145 74 144.5 74 144 74 127.95 74.3 117 75 116.5 75 116.15 75.25 102.45 84.85 92 93 92 93.5 91.95 94 91.4 104.1 83 109
L 82.5 109
Q 83.1 120.1 80 137 79.5 137 79.35 137.25 75.55 142.55 74 150 74 150.5 74.25 150.8 76.4 153.6 76 159 76 159.5 75.9 159.95 72.4 173.9 72 191 72 191.5 71.75 191.75 68.85 194.35 68 199 68.5 199 68.55 199.1 72.05 213.8 68 232 68 232.5 68.2 232.85 70.55 236.95 70 244 70 244.5 69.75 244.8 67.7 247.5 64 250 64 251 64 252 64 252.5 64 253 62.9 257.1 65.95 257.5 66 257.5 66 258 67.3 259.7 71 259.1 71.5 259 72 259 74.7 258.8 75.45 260.85 75.5 261 76 261 76 260.5 75.8 260.15 70.15 250.9 71 235 71.5 235 72 235 72 234.5 72 234 72 233.5 72 233 72 232.5 72 232 72 227.5 72 223 72.5 223 73 223 73 222.5 73 222 73 220.5 73 219 74.7 218.7 74.1 216 74 215.5 74 215 74 214.5 74 214 74 210.5 74 207 74.5 207 75 207 78.2 194.2 79.5 179.05 79.5 179 80 179 80 178.5 80 178 80 177 80 176 80 175.5 80 175 80 173 80 171 82.75 162.25 83.5 151.05 83.5 151 84 151 84 150.5 84 150 84 146.5 84 143 83.45 78.1 145.95 81.5 146 81.5 146 82 150 82 153.95 82.5 154 82.5 154 83 162.25 85.25 173 85.5
L 173 86
Q 176.95 85.55 179.1 86.8 179.5 87 180 87 184 87 187.95 87.5 188 87.5 188 88 193.8 88.7 199 89.9 199.5 90 200 90 204 90 207.95 90.5 208 90.5 208 91 208.5 91 209 91 251.05 92.95 278.15 109.8 278.5 110 279 110 281.65 111.35 282.8 114.1 283 114.5 283 115 289.25 122.75 291.9 134.05 292 134.5 292 135 293.75 139.25 293.05 146 293 146.5 293 147 293 147.5 292.95 148 292.3 156.8 290 164 290 165 290 166 290 166.5 290 167 290 167.5 290.05 168 290.75 172.75 289 175 288.5 175 288.5 175.05 284.35 207.85 279 239 279 239.5 279 240 279.4 247.4 277 252 277 252.5 277.1 252.95 277.65 255.15 276 255 276 255.5 276 256 276 258 276 260 276 260.5 276 261 276 261.5 276.1 262 276.7 265.2 275 266 275 266.5 274.95 267 273.6 280.1 265 286 265 286.5 265 287 265.5 287 266 286.9 273.9 285.65 279 279
L 279.5 279
Q 279.75 270 282 266 282 265.5 281.8 265.05 277.2 254.1 283 246 283 245.5 283.05 245 283.45 239 283 233 283 232.5 283.2 232.1 286.65 226 285 235
L 285 235.5
Q 289.9 232.9 290 223 289.5 223 289.25 222.75 283.55 217 287 207
L 287 206.5
Q 288.15 207.2 292 208
L 292.5 208
Q 291.35 195.1 292 185
L 292 184.5
Q 287.85 187.05 294 179
L 294 179.5
Q 295.95 179.3 295 170 295.5 170 296 170.05 299.75 170.55 296 162 296 161.5 296.05 161 296.75 154.9 300 143 300 142.5 299.85 142.05 297.95 136.3 299 130
L 299 129.5
Q 294.2 129.4 294 126 294 125.5 293.95 125 293.1 117.6 286 107 285.5 107 285.4 106.8 284.25 104.25 280 105 280 104.5 279.95 104 279.75 100.25 277 99 276.5 99 276.05 98.9 259.85 94.8 245 91 Z" stroke="none" fill="#A5641D"></path>

<path d="M 244.4 90.8
Q 244.5 91 245 91 259.85 94.8 276.05 98.9 276.5 99 277 99 279.75 100.25 279.95 104 280 104.5 280 105 284.25 104.25 285.4 106.8 285.5 107 286 107 293.1 117.6 293.95 125 294 125.5 294 126 294.2 129.4 299 129.5
L 299 130
Q 297.95 136.3 299.85 142.05 300 142.5 300 143 296.75 154.9 296.05 161 296 161.5 296 162 299.75 170.55 296 170.05 295.5 170 295 170 295.95 179.3 294 179.5
L 294 179
Q 287.85 187.05 292 184.5
L 292 185
Q 291.35 195.1 292.5 208
L 292 208
Q 288.15 207.2 287 206.5
L 287 207
Q 283.55 217 289.25 222.75 289.5 223 290 223 289.9 232.9 285 235.5
L 285 235
Q 286.65 226 283.2 232.1 283 232.5 283 233 283.45 239 283.05 245 283 245.5 283 246 277.2 254.1 281.8 265.05 282 265.5 282 266 279.75 270 279.5 279
L 279 279
Q 273.9 285.65 266 286.9 265.5 287 265 287 265 287.5 265 288 270.1 287.45 272.75 289.35 273 289.5 273 290 274.7 290.3 274.95 292 275 292.5 275 293 275 293.5 275 294 275 294.5 275 295 276 293 277.3 291.25 277.5 291 278 291 278 290.5 278 290 278 288.5 278 287 278.5 287 279 287 279.5 287 280 287 280 286.5 280 286 280 285.5 280 285 282.15 285.65 282.05 284 282 283.5 282 283 282 282.5 282 282 282 280.5 282 279 282.5 278.5 283.1 278.2 283.5 278 284 278 284 277.5 284 277 284 276 284 275 286.95 275.45 286.1 271.95 286 271.5 286 271 286 270.5 286 270 286 267 286 264 286.5 263.5 287.1 263.2 287.5 263 288 263 288 262.5 288 262 288 258.5 288 255 291.35 252.85 290.1 246 290 245.5 290 245 290 244.5 290 244 290 241.5 290 239 290.5 239 291 239 291.5 239 292 239 292 238.5 292 238 292 235.5 292 233 292 232.5 292 232 292 227.5 292 223 294.15 223.65 294.05 222 294 221.5 294 221 294 220.5 294 220 294 216.5 294 213 294.5 213 295 213 295.5 213 296 213 296 212.5 296 212 296 207.5 296 203 296 202.5 296 202 296 200.5 296 199 297.65 199.15 297.5 197
L 298 197
Q 298 196.5 298 196 298 193.5 298 191 298 190.5 298 190 298 189.5 298 189 299.75 186.25 299.5 181
L 300 181
Q 300 180.5 300 180 300 177.5 300 175 300 174.5 300 174 300 171 300 168 300.5 167.5 301.1 167.2 301.5 167 302 167 302 166.5 302 166 302 165.5 302 165 302 164.5 302 164 302 161.5 302 159 303.7 158.7 303.5 156
L 304 156
Q 304 155.5 304 155 304 152 304 149 304 148.5 304 148 304 142 304 136 304 135.5 303.9 135.05 300.35 121.65 294 111 293.5 111 293.3 110.75 291.2 108.3 290 105 289.5 105 289.25 104.75 280.6 96.9 270 91 269.5 91 269.05 91.1 265.6 91.9 266 89 265.5 89 265 89 264.5 89 264 89 263.5 89 263 89 258.7 88.85 256 87 255.5 87 255 87 253.5 87 252 87 251.5 87 251 87.05 244.6 87.9 242 85 241.5 85 241 85 240.5 85 240 85.05 233 86 230 83 229.5 83 229 83 227.5 83 226 83 225.5 83 225 83.05 218.3 83.7 215 81 214.5 81 214 81 212 81 210 81 209.5 81 209 80.95 205.05 80.45 202 79 201.5 79 201 79.1 195.2 80.3 194 77 193.5 77 193 77 189.5 77 186 77 185.5 77 185 77.1 179.2 78.3 178 75 177.5 75 177 75 173.5 75 170 75 169.5 75 169 75.1 163.2 76.3 162 73 161.5 73 161 73.1 155.2 74.3 154 71 153.5 71 153 71 149.5 71 146 71 145.5 71 145 71 130.5 71 116 71 115.5 71 115.05 71.2 88.35 82.35 78 110 78 110.5 78 111 78 111.5 78.1 112 79.2 116.7 76 117 76 117.5 76 118 75.35 131.85 72 143 72 147.5 72 152 72 152.5 72 153 72 153.5 72.1 154 73.2 158.7 70 159 70 159.5 70.05 160 71.45 169.95 68 175 68 178.5 68 182 68 182.5 68 183 68 183.5 68 184 68 184.5 68 185 71.75 184.1 68.65 188.75 68.5 189 68 189 68 189.5 68.05 190 68.15 191.65 66 191 66 194.5 66 198 66 198.5 66 199 66 199.5 66.1 200 67.3 205.8 64 207 64 209.5 64 212 64 212.5 64 213 64 213.5 64.1 214 65.35 220.85 62 223 62 223.5 62 224 62 224.5 62 225 62 227.5 62 230 62 230.5 62 231 61.25 236.25 63.3 238.75 63.5 239 64 239 64 238.5 64 238 68.05 239.1 64.6 246.8 64.5 247 64 247 63.5 247 63 247 62.5 247 62 247 61.25 251.2 63.2 252.75 63.5 253 64 253 64 252.5 64 252 64 251 64 250 67.7 247.5 69.75 244.8 70 244.5 70 244 70.55 236.95 68.2 232.85 68 232.5 68 232 72.05 213.8 68.55 199.1 68.5 199 68 199 68.85 194.35 71.75 191.75 72 191.5 72 191 72.4 173.9 75.9 159.95 76 159.5 76 159 76.4 153.6 74.25 150.8 74 150.5 74 150 75.55 142.55 79.35 137.25 79.5 137 80 137 83.1 120.1 82.5 109
L 83 109
Q 91.4 104.1 91.95 94 92 93.5 92 93 102.45 84.85 116.15 75.25 116.5 75 117 75 127.95 74.3 144 74 144.5 74 145 74 193.2 81.4 240.05 92.9 240.5 93 241 93 242.55 87.45 244.4 90.8
M 66.25 221.75
Q 66 221.5 66 221 69.6 225.1 66.25 221.75 Z" stroke="none" fill="#966133"></path>

<path d="M 66 221
Q 66 221.5 66.25 221.75 69.6 225.1 66 221 Z" stroke="none" fill="#A96427"></path>
</g>
</g>
</g>
</g>
</g>
</svg>
