
<svg viewBox="0 0 112 184" height="184px" width="112px" y="0px" x="0px" preserveAspectRatio="none" xmlns:xlink="http://www.w3.org/1999/xlink" version="1.1" xmlns="http://www.w3.org/2000/svg">
<defs></defs>

<g id="fun_scrollers">
<g transform="matrix( 0.3621063232421875, 0, 0, 0.3621063232421875, -594.2,0.1)" id="svg"></g>

<g transform="matrix( 0.3621063232421875, 0, 0, 0.3621063232421875, -594.2,0.1)" id="Layer_2"></g>

<g transform="matrix( 0.3621063232421875, 0, 0, 0.3621063232421875, -594.2,0.1)" id="Layer_3"></g>

<g transform="matrix( 0.3621063232421875, 0, 0, 0.3621063232421875, -594.2,0.1)" id="Layer_2"></g>

<g transform="matrix( 0.3621063232421875, 0, 0, 0.3621063232421875, -594.2,0.1)" id="Layer_3"></g>

<g transform="matrix( 0.3621063232421875, 0, 0, 0.3621063232421875, -594.2,0.1)" id="MergedLayer_3"></g>

<g transform="matrix( 0.3621063232421875, 0, 0, 0.3621063232421875, -594.2,0.1)" id="Layer_4"></g>

<g transform="matrix( 0.3621063232421875, 0, 0, 0.3621063232421875, -594.2,0.1)" id="Layer_1">
<g>
<g>
<g>
<path d="M 1936.95 32.45
Q 1935.4501953125 32.5775390625 1933.9 32.7 1914.8 34.7 1905.2 35.3 1896.25 35.9 1882.85 36 1867.9 36.05 1860.45 36.2 1833.6 36.65 1816.3 40.95 1814.85 43.85 1817 47 1819.15 50.1 1822.4 49.7 1811.45 52.45 1801.15 58.05 1797.15 60.2 1795.75 62.25 1794.7 63.75 1794.55 65.5 1794.45 67.4 1795.45 68.75 1803.05 68.6 1813.35 70.15 1819.3 71.1 1831.2 73.3 1853.25 77.05 1866.35 73.5 1848.15 109.6 1832.7 145.35
L 1825.25 162.8
Q 1822.2 170.05 1821.2 174.05 1819.55 180.5 1820.55 185.65
L 1827.55 185.85
Q 1830.85 173.8 1837.9 163.25 1832.6 179.55 1833.75 196.3
L 1841.05 196.3
Q 1840.6 183.05 1844.85 170.45 1841.75 188.05 1841.65 205.45
L 1835.15 205.8
Q 1832.75 231.3 1825.45 262 1820.7 282 1810.3 317.2 1798.85 356.15 1794.65 372.4 1786.7 403.45 1783.5 428.45
L 1790.9 428.7
Q 1798.6 404.2 1802.95 391.95 1810.15 371.7 1817.8 356.3 1803.9 404.65 1804.25 454.75
L 1811.15 454.7
Q 1820 408.55 1825.3 361.15 1826.7 366.15 1825.9 373.15 1825.45 377.2 1823.9 385.25 1822.65 393.05 1822.6 403 1822.55 408.7 1823 420.8
L 1830.1 421.35 1830.1 435.65
Q 1828.3 433.15 1825.1 432.2 1821.95 431.2 1819.05 432.3 1824.1 449.9 1830.65 467.7 1822.5 469.2 1814.15 469.8
L 1814.3 476.75
Q 1823.8 478.25 1832.65 478.95
L 1833.75 483.35 1840.75 483.35
Q 1840.3 482.05 1841.2 481.1 1852.15 483.65 1866.15 484.45 1874.5 484.9 1891.35 484.9
L 1936.95 484.8 1936.95 32.45
M 1811.9 341
Q 1812.95 337.15 1815.25 329.55
L 1831.2 277.2
Q 1824.1 316.3 1808.9 353.35 1810.2 347.25 1811.9 341
M 1838 461.7
Q 1838.25 461.65 1838.65 461.95
L 1842.9 465.6
Q 1842.7 465.9 1842 466 1840.5 466.15 1839.25 466.1 1838.95 465.6 1838.8 464.8 1838.5 463.5 1838.5 463.45 1838.05 462.3 1838 461.7 Z" stroke="none" fill="#000000"></path>
</g>
</g>
</g>
</g>

<g transform="matrix( 0.3621063232421875, 0, 0, 0.3621063232421875, -594.2,0.1)" id="Layer_5"></g>

<g transform="matrix( 0.3621063232421875, 0, 0, 0.3621063232421875, -594.2,0.1)" id="Layer_6"></g>

<g transform="matrix( 0.3621063232421875, 0, 0, 0.3621063232421875, -594.2,0.1)" id="MergedLayer_1">
<g>
<g>
<g>
<path d="M 1636.9 123.2
Q 1634.158203125 119.13046875 1630.2 115.6
L 1630.2 295.5
Q 1631.536328125 280.235546875 1633 266.45
L 1636.1 238.5
Q 1636.55 235.65 1637.2 232.75 1637.95 228.95 1638.4 224.4
L 1641.5 194.5
Q 1643.75 172.7 1644.45 160.4
L 1644.55 157.85
Q 1645 147.95 1643.4 139.9 1641.55 130.9 1636.9 123.2 Z" stroke="none" fill="#F5F7F9"></path>

<path d="M 1631.95 106.85
Q 1631.030078125 106.3228515625 1630.2 105.8
L 1630.2 115.6
Q 1634.158203125 119.13046875 1636.9 123.2 1641.55 130.9 1643.4 139.9 1645 147.95 1644.55 157.85
L 1644.45 160.4
Q 1643.75 172.7 1641.5 194.5
L 1638.4 224.4
Q 1637.95 228.95 1637.2 232.75 1636.55 235.65 1636.1 238.5
L 1633 266.45
Q 1631.536328125 280.235546875 1630.2 295.5
L 1630.2 412.7
Q 1630.65859375 405.60390625 1631.15 394.35
L 1632 375.65
Q 1633.6 341.05 1635.4 316.5 1637.7 284.55 1641 257.6 1643.5 237.35 1646.3 209.9
L 1649.05 184.65
Q 1651.2 164.85 1651.1 154.7 1650.9 138.2 1646.1 125.35 1643.25 118.9 1640.45 114.95 1636.75 109.75 1631.95 106.85 Z" stroke="none" fill="#706C84"></path>
</g>
</g>
</g>
</g>

<g transform="matrix( 0.3621063232421875, 0, 0, 0.3621063232421875, -594.2,0.1)" id="Layer_2">
<g>
<g>
<g>
<path d="M 1630.2 447.9
L 1630.2 474.95
Q 1636.3427734375 475.00390625 1642.55 474.85 1643.1 465.85 1640.55 457.5 1639.45 453.65 1637.7 451.75 1636.25 450.1 1633.7 449 1632.1091796875 448.326953125 1630.2 447.9
M 1633.75 341.85
Q 1631.5228515625 341.7572265625 1630.2 342.15
L 1630.2 363.8 1631.9 363.85
Q 1633.9 363.85 1634.6 363.65 1635.15 363.5 1636.75 362.75 1638.1 362.1 1638.95 362.05 1640 362 1641.6 362.55 1649.1 365.35 1653.95 371.65 1658.45 377.5 1658.45 383.75 1658.45 386.2 1657.2 391.4 1656.55 394.1 1655.9 395.55 1654.95 397.75 1653.5 399 1650.55 401.55 1645.45 400.8 1643.8 400.55 1641.35 399.85 1637.65 398.75 1637.25 398.65 1633.6748046875 397.7650390625 1630.2 397.75
L 1630.2 405.7
Q 1642.50390625 409.67109375 1655.45 407.7 1660.05 407 1661.75 404.85 1662.6 403.8 1663.3 401.1 1665.8 391.7 1666.2 385.6 1666.8 376.8 1663.95 370.1 1662.2 365.9 1659.2 362.6 1655.6 358.7 1650.6 356.55 1645.55 354.4 1640.25 354.45 1640.55 349.45 1640.05 343.85 1639.95 342.6 1639.4 342.25 1639 341.95 1638.2 341.95
L 1633.75 341.85 Z" stroke="none" fill="#000000"></path>
</g>
</g>
</g>
</g>
</g>
</svg>
