
<svg viewBox="0 0 80 70" height="70px" width="80px" y="0px" x="0px" preserveAspectRatio="none" xmlns:xlink="http://www.w3.org/1999/xlink" version="1.1" xmlns="http://www.w3.org/2000/svg">
<defs></defs>

<g id="Layer_2">
<g transform="matrix( 0.2443389892578125, 0, 0, 0.2443389892578125, -5.6,-13.9)" id="Layer_1">
<g>
<g>
<g>
<path d="M 257.9 341.55
Q 258 341.5 258 341 257.5 341 257 341 253.5 341 250 341 252.75 342.75 257.9 341.55 Z" stroke="none" fill="#39585F"></path>

<path d="M 260.85 337.95
Q 261 337.5 261 337 260.5 337 260 337 258.05 337.05 257 338 257 338.5 257 339 257.5 339.5 257.8 340.1 258 340.5 258 341 260.15 340.15 260.85 337.95 Z" stroke="none" fill="#061C29"></path>

<path d="M 261 336
Q 261 336.5 261 337 263.05 334.05 263.9 330 264 329.5 264 329 263.5 329 263.5 329.1 262.9 331.9 261 333 261 334.5 261 336 Z" stroke="none" fill="#1B3239"></path>

<path d="M 249 340
Q 249 340.5 249.25 340.75 249.5 341 250 341 253.5 341 257 341 257.5 341 258 341 258 340.5 257.8 340.1 257.5 339.5 257 339 256.5 339 256 339.1 254.8 339.3 249 340 Z" stroke="none" fill="#011A24"></path>

<path d="M 248 332
L 247.5 332
Q 247.7 334.7 246 335 245.25 339.25 248.05 339.9 248.5 340 249 340 249 339.5 249.2 339.1 250.65 335.85 248 332 Z" stroke="none" fill="#05202A"></path>

<path d="M 250.4 311.8
Q 250.5 312 251 312 251 311.5 250.95 311 250.75 306.75 248 305 249 308.5 250.4 311.8 Z" stroke="none" fill="#1E3B42"></path>

<path d="M 252 320
Q 252.5 320 252.55 319.9 254.1 313.9 251 312 252.15 314.85 252 319 252 319.5 252 320 Z" stroke="none" fill="#213C41"></path>

<path d="M 267 321
L 266.5 321
Q 266.65 323.15 265 323 265 325 265 327 265 327.5 265 328 267 326 267 322 267 321.5 267 321 Z" stroke="none" fill="#143138"></path>

<path d="M 267 311
Q 267 315 267 319 267 319.5 267 320 267.5 320 267.5 319.9 268.75 314.25 267 311 Z" stroke="none" fill="#102E35"></path>

<path d="M 169 325
Q 169 324.5 169 324 168.5 324 168.5 324.1 167.75 327.75 165 329 165 329.5 165 330 168.95 329.45 169 325 Z" stroke="none" fill="#1C3940"></path>

<path d="M 174 303
Q 173.5 303 173 303 169.5 303 166 303 166 303.5 166 304 166 304.5 166 305 171.05 305.6 173.75 303.65 174 303.5 174 303
M 293.1 246.2
Q 292.5 246.5 292 247 292 249.5 292 252 292 252.5 292 253 295.25 252.25 294.1 247 294 246.5 294 246 293.5 246 293.1 246.2
M 63.3 238.75
Q 63.5 239 64 239 64 238.5 64.1 238 65.3 232.2 62 231 61.25 236.25 63.3 238.75 Z" stroke="none" fill="#6E6F61"></path>

<path d="M 183.85 301.55
Q 184 301.5 184 301 183.5 301 183 300.95 177.65 300.65 174 302 174 302.5 174 303 179.35 302.85 183.85 301.55 Z" stroke="none" fill="#6E6F60"></path>

<path d="M 202 297
Q 201.5 297 201 297 196.85 296.85 194 298 194 298.5 194 299 199.25 299.75 201.75 297.7 202 297.5 202 297
M 218 294
Q 218 294.5 218 295 224.25 295.75 227.8 293.65 228 293.5 228 293 227.5 293 227 292.95 221.4 292.4 218 294
M 267.85 283.95
Q 268 283.5 268 283 267.5 283 267 283 265.5 283 264 283 264 283.5 264 284 264 284.5 264 285 267.2 285.7 267.85 283.95
M 95.05 303.1
Q 95.5 303 96 303 96 302.5 95.85 302.05 95.2 300.3 92 301 91.6 303.95 95.05 303.1 Z" stroke="none" fill="#726E5D"></path>

<path d="M 193.8 299.65
Q 194 299.5 194 299 193.5 299 193 299 188.5 299 184 299 184 299.5 184 300 184 300.5 184 301 190.25 301.75 193.8 299.65 Z" stroke="none" fill="#6E7061"></path>

<path d="M 204 295
Q 204 295.5 204 296 204 296.5 204 297 212.05 297.55 217.85 295.55 218 295.5 218 295 217.5 295 217 295 210.5 295 204 295
M 66 243
Q 66 242.5 66.1 242.05 66.9 238.6 64 239 63.3 242.2 65.05 242.85 65.5 243 66 243 Z" stroke="none" fill="#6F6F5F"></path>

<path d="M 288 261
Q 287.5 261 287.3 261.25 286.25 262.75 284 263 284 264.5 284 266 284 266.5 284 267 287.1 265.6 287.9 262 288 261.5 288 261 Z" stroke="none" fill="#716E5D"></path>

<path d="M 290 257
Q 289.5 257 289 257 288.5 257 288 257 288 258.5 288 260 288 260.5 288 261 290.95 261.45 290.1 257.95 290 257.5 290 257
M 276 277
Q 275.5 277 275 277.05 271.95 277.45 270 279 270 279.5 270 280 270 280.5 270 281 274.25 280.75 275.8 277.9 276 277.5 276 277
M 282.1 269.95
Q 282 269.5 282 269 281.5 269 281 269 280.5 269 280 269 280 270.5 280 272 280 272.5 280 273 282.95 273.45 282.1 269.95
M 116 311
Q 116 310.5 115.85 310.05 115.2 308.3 112 309 111.6 311.95 115.05 311.1 115.5 311 116 311
M 109 309.1
Q 109.5 309 110 309 110 308.5 109.75 308.2 108.2 306.25 104 307 104.3 310.2 109 309.1 Z" stroke="none" fill="#706F5F"></path>

<path d="M 260 285
Q 259.5 285 259.15 285.25 258 286 257 287 257 287.5 257 288 257 288.5 257 289 256.8 291.75 258.2 292.75 258.5 293 259 293 259 292.5 258.75 292.15 258.05 290.95 258 289 260.95 289.45 260.1 285.95 260 285.5 260 285 Z" stroke="none" fill="#5E655C"></path>

<path d="M 253 288.95
Q 245 288 243 293 244.3 299.7 247.75 304.2 248 304.5 248 305 250.75 306.75 250.95 311 251 311.5 251 312 254.1 313.9 252.55 319.9 252.5 320 252 320 252 320.5 251.85 320.95 250.1 325.6 248 330 248 330.5 248 331 248 331.5 248 332 250.65 335.85 249.2 339.1 249 339.5 249 340 254.8 339.3 256 339.1 256.5 339 257 339 257 338.5 257 338 258.05 337.05 260 337 260.5 337 261 337 261 336.5 261 336 261 334.5 261 333 262.9 331.9 263.5 329.1 263.5 329 264 329 264.5 329 264.75 328.75 265 328.5 265 328 265 327.5 265 327 265 325 265 323 266.65 323.15 266.5 321
L 267 321
Q 267 320.5 267 320 267 319.5 267 319 267 315 267 311 267 310.5 266.8 310.1 262.95 301.55 259 293 258.5 293 258.2 292.75 256.8 291.75 257 289 256.5 289 256 289 255 289 254 289 253.5 289 253 288.95 Z" stroke="none" fill="#010A15"></path>

<path d="M 243 292
Q 243 291.5 243 291 242.5 291 242 290.95 236.1 290.6 232 292 232 292.5 232 293 237.8 291.3 242.05 292.85 242.5 293 243 293 243 292.5 243 292 Z" stroke="none" fill="#6B6E60"></path>

<path d="M 243 290
Q 243 290.5 243 291 243 291.5 243 292 243 292.5 243 293 245 288 253 288.95 253.5 289 254 289 254 288.5 253.9 288.5 246.55 287.05 243 290 Z" stroke="none" fill="#462A01"></path>

<path d="M 278 199
Q 277.5 199 277 199 279.35 209.15 281.5 219.9 281.5 220 282 220 282 219.5 282 219 282.65 201.5 278 199 Z" stroke="none" fill="#A96C18"></path>

<path d="M 292.05 214
Q 292.55 210.45 290 210 289.3 213.7 291.15 214.8 291.5 215 292 215 292 214.5 292.05 214 Z" stroke="none" fill="#666353"></path>

<path d="M 91.05 300.9
Q 91.5 301 92 301 92 300.5 91.8 300.1 89.75 295.75 84 295 85.8 299.65 91.05 300.9 Z" stroke="none" fill="#6F6F60"></path>

<path d="M 134 343
Q 134 342.5 134.05 342 134.45 338.85 131 339 131.45 341.55 133.15 342.75 133.5 343 134 343 Z" stroke="none" fill="#000B1B"></path>

<path d="M 131 336
Q 131 337 131 338 131 338.5 131 339 134.45 338.85 134.05 342 134 342.5 134 343 137.2 344.3 141.9 343.5 142 343.5 142 343 141.5 343 141 342.95 139.3 342.85 134 335 138.5 329.8 149.85 325.55 150 325.5 150 325 149.5 325 149 325.05 135.5 326 131 336 Z" stroke="none" fill="#051C25"></path>

<path d="M 125 299.05
Q 125.5 299 126 299 126 298.5 125.95 298.5 121 298 116 298 119.25 299.75 125 299.05 Z" stroke="none" fill="#E4B339"></path>

<path d="M 139 309
Q 138.5 309 138 309 134 309 130 309 130 309.5 130 310 130 310.5 130 311 134 311 138 311 138.5 311 139 311 139 310.5 139 310 139 309.5 139 309 Z" stroke="none" fill="#746E5B"></path>

<path d="M 151.75 319.3
Q 149.45 317.55 146 317 147.7 319.3 151 319.9 151.5 320 152 320 152 319.5 151.75 319.3 Z" stroke="none" fill="#30474D"></path>

<path d="M 148 309
Q 147.5 309 147 309 145.5 309 144 309 144 309.5 144 310 144 310.5 144 311 147.2 311.7 147.85 309.95 148 309.5 148 309
M 154 308
Q 153.5 308 153 307.95 150.2 307.8 148 307 148 307.5 148 308 148 308.5 148 309 151 309 153.9 308.5 154 308.5 154 308 Z" stroke="none" fill="#140201"></path>

<path d="M 154 308
Q 154 308.5 153.9 308.5 151 309 148 309 148 309.5 147.85 309.95 147.2 311.7 144 311 143.5 311 143.3 310.75 142.2 309.3 140 309 140 309.5 140 310 140 310.5 140 311 142.2 314.3 145.8 316.4 146 316.5 146 317 149.45 317.55 151.75 319.3 152 319.5 152 320 152 320.5 152.25 320.85 154.35 323.9 150 325 150 325.5 149.85 325.55 138.5 329.8 134 335 139.3 342.85 141 342.95 141.5 343 142 343 151.6 335.1 164.05 330.15 164.5 330 165 330 165 329.5 165 329 167.75 327.75 168.5 324.1 168.5 324 169 324 169 323.5 168.9 323.05 166.05 311.95 157 307 156.5 307 156 307 155.5 307 155 307 154.5 307 154 307 154 307.5 154 308 Z" stroke="none" fill="#030C15"></path>

<path d="M 155 307
Q 155 306.5 154.8 306.4 145.65 302.15 139 308 139 308.5 139 309 139 309.5 139 310 139 310.5 139 311 139.5 311 140 311 140 310.5 140 310 140 309.5 140 309 142.2 309.3 143.3 310.75 143.5 311 144 311 144 310.5 144 310 144 309.5 144 309 145.5 309 147 309 147.5 309 148 309 148 308.5 148 308 148 307.5 148 307 150.2 307.8 153 307.95 153.5 308 154 308 154 307.5 154 307 154.5 307 155 307 Z" stroke="none" fill="#351502"></path>

<path d="M 72 275
Q 72 274.5 72.1 274.05 72.9 270.6 70 271 69.3 274.2 71.05 274.85 71.5 275 72 275 Z" stroke="none" fill="#736D5D"></path>

<path d="M 70 271
Q 70 270.5 70.1 270 70.9 265.1 68 264 67.25 268.75 69.25 270.75 69.5 271 70 271 Z" stroke="none" fill="#716F5D"></path>

<path d="M 68 261
Q 68 260.5 68.1 260 69.2 255.3 66 255 65.25 259.2 67.2 260.75 67.5 261 68 261 Z" stroke="none" fill="#6A7165"></path>

<path d="M 77 246
Q 77 245.5 76.95 245 76.5 239.5 75 235 75 238.5 75 242 75 242.5 75 243 76.7 243.3 76.5 246
L 77 246 Z" stroke="none" fill="#DC9F3B"></path>

<path d="M 61.4 228.8
Q 61.5 229 62 229 62 228.5 62.1 228 63.2 220.8 60 218 59.25 224.75 61.4 228.8 Z" stroke="none" fill="#736E5C"></path>

<path d="M 73 227
Q 72.45 232.1 74.35 234.75 74.5 235 75 235 75 234.5 74.9 234 74.15 230.35 73 227 Z" stroke="none" fill="#C88E2C"></path>

<path d="M 73 226
Q 73 225.5 73 225 73.25 220.25 71 218 70.25 223.25 72.3 225.75 72.5 226 73 226 Z" stroke="none" fill="#C18628"></path>

<path d="M 58 211
Q 57.25 215.2 59.2 216.75 59.5 217 60 217 60 216.5 60.1 216 61.2 211.3 58 211 Z" stroke="none" fill="#6F705F"></path>

<path d="M 67 199
Q 66.5 199 66 199 68.6 215.1 68.5 225
L 69 225
Q 72.15 233.85 73.9 244 74 244.5 74 245 74.5 244.5 74.8 243.9 75 243.5 75 243 75 242.5 75 242 75 238.5 75 235 74.5 235 74.35 234.75 72.45 232.1 73 227 73 226.5 73 226 72.5 226 72.3 225.75 70.25 223.25 71 218 71 217.5 70.9 217.05 69.55 211.95 69 206 68.5 206 68.3 205.75 66.45 203.55 67 199 Z" stroke="none" fill="#A36511"></path>

<path d="M 68.45 202.9
Q 68 201 68 199 67.5 199 67 199 66.45 203.55 68.3 205.75 68.5 206 69 206 69 205.5 69 205 69 204 69 203 68.5 203 68.45 202.9 Z" stroke="none" fill="#AF771D"></path>

<path d="M 78 199
Q 77.5 199 77 199 75.5 199 74 199 75.2 202.3 80.85 200.55 81 200.5 81 200 80.5 200 80.05 200.1 77.9 200.65 78 199 Z" stroke="none" fill="#DABB6C"></path>

<path d="M 80 199
Q 80 198.5 79.75 198.35 77.35 196.75 70 197 70.8 198.7 74 198.5
L 74 199
Q 75.5 199 77 199 77.5 199 78 199 78.5 199 79 199 79.5 199 80 199 Z" stroke="none" fill="#3C190F"></path>

<path d="M 87 279
Q 87 278.5 86.8 278.05 85.55 274.95 83 273 83.8 276.7 86.2 278.75 86.5 279 87 279 Z" stroke="none" fill="#CE9C29"></path>

<path d="M 88 289
Q 94.2 291.3 97.75 296.2 98 296.5 98 297 108 297.5 113.75 302.3 114 302.5 114 303 136.35 301.95 159 297.1 159.5 297 160 297 172 300.15 174.45 293.15 174.5 293 175 293 219.05 287.45 266.05 275.1 266.5 275 267 275 269.3 273.3 269.9 270 270 269.5 270 269 271.95 267.45 275 267.05 275.5 267 276 267 279.45 259.45 283.4 252.2 283.5 252 284 252 283.4 239.5 285 239.1 285.5 239 286 239 285.35 229.65 282.55 222.15 282.5 222 282 222 285.55 245.15 271.85 254.25 214.1 292.6 126 299 125.5 299 125 299.05 119.25 299.75 116 298 115.5 298 115 297.9 95.95 293.55 87 279 86.5 279 86.2 278.75 83.8 276.7 83 273 83 272.5 82.8 272.1 77.65 261.35 77 246
L 76.5 246
Q 76.7 243.3 75 243 75 243.5 74.8 243.9 74.5 244.5 74 245 76.8 259.55 79.9 278 80 278.5 80 279 85.9 281.6 87.85 288.05 88 288.5 88 289 Z" stroke="none" fill="#A36A0F"></path>

<path d="M 90 200
Q 89.5 200 89 200 85.5 200 82 200 84.75 201.75 89.9 200.55 90 200.5 90 200 Z" stroke="none" fill="#836422"></path>

<path d="M 91.8 199.6
Q 92 199.5 92 199 91.5 199 91 198.9 81.85 196.85 80 199 79.5 199 79 199 78.5 199 78 199 77.9 200.65 80.05 200.1 80.5 200 81 200 81.5 200 82 200 85.5 200 89 200 89.5 200 90 200 91 200 91.8 199.6 Z" stroke="none" fill="#3A1500"></path>

<path d="M 94.7 197.75
Q 97.2 194.45 94 192 94 192.5 94 193 94 195 94 197 94 197.5 94 198 94.5 198 94.7 197.75 Z" stroke="none" fill="#60410B"></path>

<path d="M 90 190
Q 90 189.5 89.9 189.45 86 188.5 82 188 84.25 190.25 89 190 89.5 190 90 190 Z" stroke="none" fill="#8A6414"></path>

<path d="M 75.8 191.15
Q 76 191.5 76 192 82.45 192.25 93 192.95 93.5 193 94 193 94 192.5 94 192 94 191.5 93.75 191.2 92.7 189.8 90 190 89.5 190 89 190 84.25 190.25 82 188 81.5 188 81.05 187.85 76.6 186.4 71 186 73.95 188.1 75.8 191.15 Z" stroke="none" fill="#361501"></path>

<path d="M 69 197
Q 68.5 197 68 197 67.5 197 67 197 67.5 197.5 67.8 198.1 68 198.5 68 199 68 201 68.45 202.9 68.5 203 69 203 69 202.5 69 202 69 200.5 69 199 71 199 73 199 73.5 199 74 199
L 74 198.5
Q 70.8 198.7 70 197 69.5 197 69 197 Z" stroke="none" fill="#CEAE65"></path>

<path d="M 70.85 185.45
Q 68 184.5 65 184 64.5 184 64.05 183.85 63 183.5 62 183 63.8 188.7 70.05 186.15 70.5 186 71 186 71 185.5 70.85 185.45 Z" stroke="none" fill="#3A2403"></path>

<path d="M 60 195
Q 60 194.5 59.95 194.5 57.3 194.2 56 193 56 196 56.5 198.9 56.5 199 57 199 57 198.5 57 198 57 197.5 57 197 58 196 59.15 195.25 59.5 195 60 195 Z" stroke="none" fill="#736751"></path>

<path d="M 56 192
Q 56 192.5 56 193 57.3 194.2 59.95 194.5 60 194.5 60 195 60.5 195 61 195 61.5 195 62 195 62 194.5 61.9 194 60.9 188.75 56 191 56 191.5 56 192 Z" stroke="none" fill="#2B160A"></path>

<path d="M 54 177
Q 53.45 182.75 60 183 60.5 183 61 183 61 182.5 60.9 182.45 57.75 181.7 57 179 56.5 179 56.4 178.8 55.5 177 54 176 54 176.5 54 177 Z" stroke="none" fill="#3A1906"></path>

<path d="M 58 171
Q 57.5 171 57.3 171.25 56.2 172.7 54 173 54 174 54 175 54 175.5 54 176 55.5 177 56.4 178.8 56.5 179 57 179 58.75 176.75 58.05 172 58 171.5 58 171 Z" stroke="none" fill="#76644B"></path>

<path d="M 58 170
Q 57.5 170 57.05 170.15 55 171 53 172 53 174.5 53.5 176.9 53.5 177 54 177 54 176.5 54 176 54 175.5 54 175 54 174 54 173 56.2 172.7 57.3 171.25 57.5 171 58 171 58 170.5 58 170 Z" stroke="none" fill="#332111"></path>

<path d="M 50 160
Q 49.5 160 49.4 160.2 45.95 166.95 41 170 43.2 179.5 48.15 182.75 48.5 183 49 183 52 187 55.3 190.75 55.5 191 56 191 60.9 188.75 61.9 194 62 194.5 62 195 64.85 196.15 68.95 196.5 69 196.5 69 197 69.5 197 70 197 77.35 196.75 79.75 198.35 80 198.5 80 199 81.85 196.85 91 198.9 91.5 199 92 199 93 199 93.8 198.6 94 198.5 94 198 94 197.5 94 197 94 195 94 193 93.5 193 93 192.95 82.45 192.25 76 192 76 191.5 75.8 191.15 73.95 188.1 71 186 70.5 186 70.05 186.15 63.8 188.7 62 183 61.5 183 61 183 60.5 183 60 183 53.45 182.75 54 177 53.5 177 53.5 176.9 53 174.5 53 172 55 171 57.05 170.15 57.5 170 58 170 58 169.5 58 169 58 168.5 58.25 168.25 67.3 159.05 50 160 Z" stroke="none" fill="#0F0405"></path>

<path d="M 58 149
Q 58 149.5 58 150 57.65 153.35 58.75 155.15 59 155.5 59 156 59.5 156 60 156 60 155.5 59.95 155 59.45 151.05 58 148 58 148.5 58 149 Z" stroke="none" fill="#BE8D37"></path>

<path d="M 62 169
Q 62 169.5 62 170 62.55 176.95 64.45 182.85 64.5 183 65 183 65 182.5 64.95 182 64.3 174.7 62 169 Z" stroke="none" fill="#BF8B28"></path>

<path d="M 62 170
Q 61.5 170 61 170 59.5 170 58 170 58 170.5 58 171 58 171.5 58.05 172 58.75 176.75 57 179 57.75 181.7 60.9 182.45 61 182.5 61 183 61.5 183 62 183 63 183.5 64.05 183.85 64.5 184 65 184 65 183.5 65 183 64.5 183 64.45 182.85 62.55 176.95 62 170 Z" stroke="none" fill="#905E2A"></path>

<path d="M 62 166
Q 61.5 166 61.45 166.15 60.7 168.7 58 169 58 169.5 58 170 59.5 170 61 170 61.5 170 62 170 62 169.5 62 169 62 168.5 62 168 62 167 62 166 Z" stroke="none" fill="#765327"></path>

<path d="M 63 158
Q 63 157.5 62.75 157.15 61.95 156.05 60 156 59.5 156 59 156 58.5 156 58 156 56 156 54 156 54 156.5 54 157 59.05 156.45 62.1 157.8 62.5 158 63 158 Z" stroke="none" fill="#724304"></path>

<path d="M 63.65 158.2
Q 63.5 158 63 158 62.5 158 62.1 157.8 59.05 156.45 54 157 53.5 157 53 157 51.05 157.05 50 158 50 158.5 50 159 50 159.5 50 160 67.3 159.05 58.25 168.25 58 168.5 58 169 60.7 168.7 61.45 166.15 61.5 166 62 166 66.8 163.55 63.65 158.2 Z" stroke="none" fill="#3B1501"></path>

<path d="M 39 178
Q 39 178.5 39 179 39.5 181 40.75 182.25 41 182.5 41 183 46.65 189.35 55.05 192.8 55.5 193 56 193 56 192.5 56 192 56 191.5 56 191 55.5 191 55.3 190.75 52 187 49 183 48.5 183 48.15 182.75 43.2 179.5 41 170 45.95 166.95 49.4 160.2 49.5 160 50 160 50 159.5 50 159 49.5 159 49.1 159.2 42.2 163.2 39 171 39 174.5 39 178 Z" stroke="none" fill="#021320"></path>

<path d="M 39 171
Q 38.5 171 38 171 38 175 38.5 178.95 38.5 179 39 179 39 178.5 39 178 39 174.5 39 171 Z" stroke="none" fill="#334A51"></path>

<path d="M 47 125
Q 46.5 125 46 125 45.25 138.25 47.5 148.9 47.5 149 48 149 48 148.5 48 148 48 136.5 48 125 47.5 125 47 125 Z" stroke="none" fill="#6C604D"></path>

<path d="M 58 132
Q 57.5 132 57 132 57 137.5 57.5 142.95 57.5 143 58 143 58 142.5 58 142 58 137 58 132 Z" stroke="none" fill="#E3A753"></path>

<path d="M 50.1 121.95
Q 50 121.5 50 121 49.5 121 49 121 48.5 121 48 121 48 122.5 48 124 48 124.5 48 125 50.9 125.45 50.1 121.95 Z" stroke="none" fill="#6D634F"></path>

<path d="M 63.75 99.85
Q 64 99.5 64 99 63.5 99 63.1 99.2 61.5 100 60 101 60 101.5 60 102 60 102.5 60 103 62.45 101.95 63.75 99.85 Z" stroke="none" fill="#69624F"></path>

<path d="M 131 76
Q 131 76.5 131 77 140 77.5 146.85 75.55 147 75.5 147 75 146.5 75 146 75 138.4 75.4 131 76 Z" stroke="none" fill="#646250"></path>

<path d="M 154 73
Q 153.5 73 153 73 150.5 73 148 73 148 73.5 148 74 148 74.5 148 75 152.2 75.7 153.75 73.8 154 73.5 154 73 Z" stroke="none" fill="#686250"></path>

<path d="M 82 87
Q 81.5 87 81 86.95 78.3 86.8 77 88 77 88.5 77 89 80.7 89.7 81.8 87.85 82 87.5 82 87 Z" stroke="none" fill="#636356"></path>

<path d="M 84 93
Q 84 93.5 83.8 93.55 64.65 101.6 55 125 56 140 57.5 149.95 57.5 150 58 150 58 149.5 58 149 58 148.5 58 148 58 147.5 58 147 58 145 58 143 57.5 143 57.5 142.95 57 137.5 57 132 57.5 132 58 132 58 131.5 58 131 58 130 58 129 69.5314453125 113.6447265625 85.75 102.7 86 102.5 86 102 86.4939453125 101.951171875 86.95 101.85 101.5462890625 92.2994140625 119.8 86.2 115.426171875 86.6388671875 111 87 110.5 87 110.05 87.2 97.25 92.5 84 93
M 202 72
Q 202 72.5 201.9 72.55 196.1 74.05 194 75 193.5 75 193.15 74.75 188.25 71.6 184 75 184 75.5 183.9 75.5 183.3025390625 75.63125 182.6 75.75 184.7890625 75.7025390625 187 75.65 196.95 75.45 210 75 210 74.5 210 74 218 74 225.95 74.5 226 74.5 226 75 227.5 75 229 75 229.5 75 230 75 230 74.5 229.9 74.45 217.3 71.1 202 72 Z" stroke="none" fill="#A76918"></path>

<path d="M 88 85
Q 87.5 85 87 85 84.5 85 82 85 82 85.5 82 86 82 86.5 82 87 86.2 87.7 87.75 85.8 88 85.5 88 85 Z" stroke="none" fill="#666252"></path>

<path d="M 96 82
Q 96 82.5 96 83 103 83.5 107.85 81.55 108 81.5 108 81 107.5 81 107 80.95 100.55 80.55 96 82 Z" stroke="none" fill="#616251"></path>

<path d="M 288 191
Q 288 190.5 288.1 190 289.2 185.3 286 185 285.25 189.2 287.2 190.75 287.5 191 288 191 Z" stroke="none" fill="#626355"></path>

<path d="M 286 183
Q 286 182.5 286.05 182 286.9 175.6 284 173 283.25 179.25 285.35 182.8 285.5 183 286 183 Z" stroke="none" fill="#646252"></path>

<path d="M 294 159
Q 294 158.5 294 158 293.5 158 293.4 158.2 292.7 159.7 290 159 291.45 160.5 290.25 162.15 290 162.5 290 163 292.8 162.3 293.8 159.9 294 159.5 294 159 Z" stroke="none" fill="#0F2730"></path>

<path d="M 298.15 155.2
Q 296 156.5 294 158 294 158.5 294 159 297.1 158.1 298.75 155.8 299 155.5 299 155 298.5 155 298.15 155.2 Z" stroke="none" fill="#1F343A"></path>

<path d="M 305.8 149.85
Q 306 149.5 306 149 305.5 149 305.2 149.25 302.1 151.6 299 154 299 154.5 299 155 303.5 153.5 305.8 149.85 Z" stroke="none" fill="#23393F"></path>

<path d="M 276.4 195.8
Q 276.5 196 277 196 277 195.5 276.95 195 276.45 191.05 275 188 274.75 192.8 276.4 195.8 Z" stroke="none" fill="#D99F40"></path>

<path d="M 275 184
Q 275 184.5 275 185 275 186 275 187 275 187.5 275 188 276.45 191.05 276.95 195 277 195.5 277 196 277 197 277 198 277 198.5 277 199 277.5 199 278 199 278 198.5 278.15 198.05 281.2 187.05 275 183 275 183.5 275 184 Z" stroke="none" fill="#A46415"></path>

<path d="M 273.9 181
Q 274 181.5 274 182 274.5 182 274.55 181.85 278.3 172.2 272 167 272.6 174.4 273.9 181 Z" stroke="none" fill="#A3671C"></path>

<path d="M 278.1 155.2
Q 276.2 156.2 275 158 274.3 165.2 281 165 281.5 165 282 165 282 164.5 282.05 164 282.6 157.9 280 155 279.5 155 279 155 278.5 155 278.1 155.2 Z" stroke="none" fill="#2D0E03"></path>

<path d="M 280 151
Q 280 150.5 280.1 150 281.15 143.35 278 141 277.25 147.25 279.35 150.8 279.5 151 280 151 Z" stroke="none" fill="#626356"></path>

<path d="M 283.35 150.2
Q 282.15 152.15 280 153 280 153.5 279.75 153.75 279.5 154 279 154 279 154.5 279 155 279.5 155 280 155 282.65 153.65 283.8 150.9 284 150.5 284 150 283.5 150 283.35 150.2 Z" stroke="none" fill="#25373C"></path>

<path d="M 267.95 148
Q 267.4 143.65 266 140 265.65 145.35 267.4 148.8 267.5 149 268 149 268 148.5 267.95 148 Z" stroke="none" fill="#D89A42"></path>

<path d="M 278.05 136
Q 278.2 132.25 276 131 275.55 134.95 277.25 136.75 277.5 137 278 137 278 136.5 278.05 136
M 274 115
Q 274 114.5 274.05 114 274.65 108.85 272 107 271.25 112.25 273.3 114.75 273.5 115 274 115 Z" stroke="none" fill="#626253"></path>

<path d="M 270 101
Q 270 100.5 270.05 100 270.55 96.45 268 96 267.3 99.7 269.15 100.8 269.5 101 270 101 Z" stroke="none" fill="#666352"></path>

<path d="M 306 147
Q 306 147.5 306 148 306 148.5 306 149 309 146.5 311.75 143.75 312 143.5 312 143 311.5 143 311 143 310.5 143 310.35 143.25 308.65 145.65 306 147 Z" stroke="none" fill="#20363D"></path>

<path d="M 311.75 128.15
Q 311 127 310 126 310 126.5 310 127 311.45 133.55 311 142 311 142.5 311 143 311.5 143 312 143 313.7 141.7 313.1 138 313 137.5 313 137 312.5 137 312.5 136.95 312 133 312 129 312 128.5 311.75 128.15 Z" stroke="none" fill="#0C242B"></path>

<path d="M 310 126
Q 310 125.5 309.75 125.15 307.75 122.25 305 120 305.7 124.8 309.1 126.8 309.5 127 310 127 310 126.5 310 126 Z" stroke="none" fill="#07222C"></path>

<path d="M 313.05 136
Q 313.75 131.25 312 129 312 133 312.5 136.95 312.5 137 313 137 313 136.5 313.05 136 Z" stroke="none" fill="#1C3C44"></path>

<path d="M 293 127
Q 293 126.5 292.85 126.05 291.8 123.2 289 122 290.05 124.95 292.2 126.75 292.5 127 293 127 Z" stroke="none" fill="#20363C"></path>

<path d="M 293.8 141.85
Q 294 141.5 294 141 293.5 141 293.25 141.25 289.4 144.9 285 148 285 148.5 285 149 290.85 146.85 293.8 141.85 Z" stroke="none" fill="#223A40"></path>

<path d="M 286 113
Q 286 113.5 286 114 286 114.5 286 115 290.65 110.65 297.05 112.85 297.5 113 298 113 298 112.5 298 112 298 111.5 297.95 111.5 292 111 286 111 286 111.5 286 112 286 112.5 286 113 Z" stroke="none" fill="#092830"></path>

<path d="M 286 113
Q 285.5 113 285 113 284.35 118.65 287.2 120.75 287.5 121 288 121 288 120.5 287.75 120.25 286.05 118.45 286 115 286 114.5 286 114 286 113.5 286 113 Z" stroke="none" fill="#1B3A41"></path>

<path d="M 304.15 118.75
Q 304.5 119 305 119 305 118.5 304.8 118.1 302.65 113.85 298 112 298 112.5 298 113 300.7 116.3 304.15 118.75 Z" stroke="none" fill="#1F383D"></path>

<path d="M 305 120
Q 305 119.5 305 119 304.5 119 304.15 118.75 300.7 116.3 298 113 297.5 113 297.05 112.85 290.65 110.65 286 115 286.05 118.45 287.75 120.25 288 120.5 288 121 288.5 121 288.75 121.25 289 121.5 289 122 291.8 123.2 292.85 126.05 293 126.5 293 127 300.2 134.4 294.7 140.75 294.5 141 294 141 294 141.5 293.8 141.85 290.85 146.85 285 149 285 149.5 284.75 149.75 284.5 150 284 150 284 150.5 283.8 150.9 282.65 153.65 280 155 282.6 157.9 282.05 164 282 164.5 282 165 282.5 165 283 165 283.5 165 284 165 286.95 164.45 289.1 163.2 289.5 163 290 163 290 162.5 290.25 162.15 291.45 160.5 290 159 292.7 159.7 293.4 158.2 293.5 158 294 158 296 156.5 298.15 155.2 298.5 155 299 155 299 154.5 299 154 302.1 151.6 305.2 149.25 305.5 149 306 149 306 148.5 306 148 306 147.5 306 147 308.65 145.65 310.35 143.25 310.5 143 311 143 311 142.5 311 142 311.45 133.55 310 127 309.5 127 309.1 126.8 305.7 124.8 305 120 Z" stroke="none" fill="#010715"></path>

<path d="M 225 75
Q 225.5 75 226 75 226 74.5 225.95 74.5 218 74 210 74 210 74.5 210 75 217.5 75 225 75 Z" stroke="none" fill="#E4A753"></path>

<path d="M 239 79.9
Q 239.5 80 240 80 240 79.5 239.8 79.4 235.5 77 230 76 233.45 79.05 239 79.9 Z" stroke="none" fill="#DD9F48"></path>

<path d="M 242 69
Q 242 68.5 241.85 68.05 241.2 66.3 238 67 237.6 69.9 241.05 69.1 241.5 69 242 69 Z" stroke="none" fill="#69614C"></path>

<path d="M 232 65
Q 232 64.5 231.8 64.4 227.95 62.6 222 63 225.25 65.25 231 65 231.5 65 232 65 Z" stroke="none" fill="#6A6655"></path>

<path d="M 197 83
Q 196.5 83 196 83.1 149.85 90.15 94 99 94 99.5 93.8 99.65 90.9029296875 101.34375 86.95 101.85 86.4939453125 101.951171875 86 102 86 102.5 85.75 102.7 83 105 80 107 80 107.5 80.15 107.55 83.5 108.9 87 106 87.5 106 88 106.05 117.7 107.6 143 97 143.5 97 144 97 175.9 97.6 207 87 207.5 87 208 87 214.5 87 221 87 221.5 87 221.9 86.8 228.8 82.95 229 82 229 81.5 228.85 81.45 211 75.75 197 83 Z" stroke="none" fill="#FFE273"></path>

<path d="M 196 83.1
Q 196.5 83 197 83 211 75.75 228.85 81.45 229 81.5 229 82 228.8 82.95 221.9 86.8 221.5 87 221 87 214.5 87 208 87 207.5 87 207 87 175.9 97.6 144 97 143.5 97 143 97 117.7 107.6 88 106.05 87.5 106 87 106 83.5 108.9 80.15 107.55 80 107.5 80 107 83 105 85.75 102.7 69.5314453125 113.6447265625 58 129 58 130 58 131 58 131.5 58 132 58 137 58 142 58 142.5 58 143 58 145 58 147 58 147.5 58 148 59.45 151.05 59.95 155 60 155.5 60 156 61.95 156.05 62.75 157.15 63 157.5 63 158 63.5 158 63.65 158.2 66.8 163.55 62 166 62 167 62 168 62 168.5 62 169 64.3 174.7 64.95 182 65 182.5 65 183 65 183.5 65 184 68 184.5 70.85 185.45 71 185.5 71 186 76.6 186.4 81.05 187.85 81.5 188 82 188 86 188.5 89.9 189.45 90 189.5 90 190 92.7 189.8 93.75 191.2 94 191.5 94 192 97.2 194.45 94.7 197.75 94.5 198 94 198 94 198.5 93.8 198.6 93 199 92 199 92 199.5 91.8 199.6 91 200 90 200 90 200.5 89.9 200.55 84.75 201.75 82 200 81.5 200 81 200 81 200.5 80.85 200.55 75.2 202.3 74 199 73.5 199 73 199 71 199 69 199 69 200.5 69 202 69 202.5 69 203 69 204 69 205 69 205.5 69 206 69.55 211.95 70.9 217.05 71 217.5 71 218 73.25 220.25 73 225 73 225.5 73 226 73 226.5 73 227 74.15 230.35 74.9 234 75 234.5 75 235 76.5 239.5 76.95 245 77 245.5 77 246 77.65 261.35 82.8 272.1 83 272.5 83 273 85.55 274.95 86.8 278.05 87 278.5 87 279 95.95 293.55 115 297.9 115.5 298 116 298 121 298 125.95 298.5 126 298.5 126 299 214.1 292.6 271.85 254.25 285.55 245.15 282 222 282 221.5 282 221 282 220.5 282 220 281.5 220 281.5 219.9 279.35 209.15 277 199 277 198.5 277 198 277 197 277 196 276.5 196 276.4 195.8 274.75 192.8 275 188 275 187.5 275 187 275 186 275 185 274.5 185 274.45 184.85 274 183.5 274 182 274 181.5 273.9 181 272.6 174.4 272 167 271.5 167 271.5 166.9 269.9 157.6 268 149 267.5 149 267.4 148.8 265.65 145.35 266 140 266 139.5 266 139 264.4 98.1 240 80 239.5 80 239 79.9 233.45 79.05 230 76 230 75.5 230 75 229.5 75 229 75 227.5 75 226 75 225.5 75 225 75 217.5 75 210 75 196.95 75.45 187 75.65 184.7890625 75.7025390625 182.6 75.75 175.6435546875 77.3166015625 159 81 158.5 81 158 81.1 139.1779296875 84.3185546875 119.8 86.2 101.5462890625 92.2994140625 86.95 101.85 90.9029296875 101.34375 93.8 99.65 94 99.5 94 99 149.85 90.15 196 83.1
M 173.05 128.85
Q 173.5 129 174 129 179 129.05 179.75 130.15 180 130.5 180 131 209.65 142.85 217.9 176.05 218 176.5 218 177 219.75 183.25 218.5 191.95 218.5 192 218 192 218 192.5 217.95 193 217.2 200.2 214 205 214 205.5 214 206 214 206.5 214.05 207 214.7 212.7 210 213 210 213.5 210 214 210 214.5 210 215 210 215.5 209.95 216 209.55 221.05 205 222 204.5 222 204.1 222.2 203.5 222.5 203 223 203 223.5 203 224
L 203.5 224
Q 201.8 229.3 198 233 198 233.5 197.8 233.9 195.65 237.6 190 239 190 239.5 189.9 240 188.75 247.25 180 247 179.5 247 179.1 247.2 175.4 248.9 170 249 170 249.5 169.75 249.7 161.3 257.35 156 248 156.5 248 157 248 157 247.5 156.8 247.4 155.3 246.7 155 245 154.5 245 154.2 244.75 148 239.5 148 228 148 227.5 148 227 147.5 227 147.25 226.75 145.25 224.75 146 220 146 219.5 145.9 219.05 143.8 211.2 142 203 141.5 203 141.45 202.85 140.5 200 140 197 140 196.5 139.85 196.05 136.85 188.15 134 180 133.5 180 133.3 179.75 131.4 177.6 130 175 130.5 175 131 175 131.5 175 132 175 132 174.5 131.85 174.05 128.45 163.55 125 153 124.5 153 124 152.9 120.75 152.25 122 147 122 146.5 122 146 122 141 122 136 126.95 126.95 140 126.05 140.5 126 141 126 141 125.5 141 125 149 125 156.95 125.5 157 125.5 157 126 165.9 126.6 173.05 128.85
M 94.1 203.5
Q 94 203.5 94 203 101 205.1 94.1 203.5 Z" stroke="none" fill="#F8C843"></path>

<path d="M 94 203
Q 94 203.5 94.1 203.5 101 205.1 94 203 Z" stroke="none" fill="#F6CA1F"></path>

<path d="M 168 249
Q 167.5 249 167 248.95 161.95 248.35 159 249 162.25 250.75 167.9 249.5 168 249.5 168 249 Z" stroke="none" fill="#5D4206"></path>

<path d="M 197.8 232.4
Q 197 232 196 232 196 232.5 195.75 232.75 193 235.5 190 238 190 238.5 190 239 195.65 237.6 197.8 233.9 198 233.5 198 233 198 232.5 197.8 232.4 Z" stroke="none" fill="#E3C870"></path>

<path d="M 179 245
Q 179 245.5 179 246 179.5 246 179.75 246.25 180 246.5 180 247 188.75 247.25 189.9 240 190 239.5 190 239 189.5 239 189.3 239.25 185.7 243.7 179 245 Z" stroke="none" fill="#DEC26B"></path>

<path d="M 179 246
Q 178.5 246 178.05 245.9 171.95 244.35 169 248 169 248.5 169 249 169.5 249 170 249 175.4 248.9 179.1 247.2 179.5 247 180 247 180 246.5 179.75 246.25 179.5 246 179 246 Z" stroke="none" fill="#DDC374"></path>

<path d="M 203.5 224
L 203 224
Q 202.5 224 202.4 224.2 200.1 228.6 196 231 196 231.5 196 232 197 232 197.8 232.4 198 232.5 198 233 201.8 229.3 203.5 224 Z" stroke="none" fill="#CDB15A"></path>

<path d="M 209.95 216
Q 210 215.5 210 215 209.5 215 209.4 215.2 207.5 218.5 205 221 205 221.5 205 222 209.55 221.05 209.95 216 Z" stroke="none" fill="#DFC168"></path>

<path d="M 214 206
Q 213.5 206 213.5 206.05 213.1 210.6 210 212 210 212.5 210 213 214.7 212.7 214.05 207 214 206.5 214 206 Z" stroke="none" fill="#CDB066"></path>

<path d="M 157 248
Q 156.5 248 156 248 161.3 257.35 169.75 249.7 170 249.5 170 249 169.5 249 169 249 168.5 249 168 249 168 249.5 167.9 249.5 162.25 250.75 159 249 158.5 249 158.1 248.8 157.5 248.5 157 248 Z" stroke="none" fill="#E5CA6E"></path>

<path d="M 147.25 226.75
Q 147.5 227 148 227 148 226.5 147.95 226 147.55 222.45 146 220 145.25 224.75 147.25 226.75 Z" stroke="none" fill="#DDC075"></path>

<path d="M 154.2 244.75
Q 154.5 245 155 245 155 244.5 154.8 244.1 150.9 236.6 148 228 148 239.5 154.2 244.75 Z" stroke="none" fill="#D8BC64"></path>

<path d="M 142 203
Q 142 202.5 142.1 202 143.2 197.3 140 197 140.5 200 141.45 202.85 141.5 203 142 203 Z" stroke="none" fill="#633A0A"></path>

<path d="M 134 178
Q 133.5 178 133.45 177.85 132.95 176.05 132 175 131.5 175 131 175 130.5 175 130 175 131.4 177.6 133.3 179.75 133.5 180 134 180 134 179.5 134 179 134 178.5 134 178 Z" stroke="none" fill="#DABB66"></path>

<path d="M 124 152.9
Q 124.5 153 125 153 125 152.5 124.75 152.25 122.85 150.15 122 147 120.75 152.25 124 152.9 Z" stroke="none" fill="#D4AD5D"></path>

<path d="M 141 125
Q 141 125.5 141 126 148.5 126 156 126 156.5 126 157 126 157 125.5 156.95 125.5 149 125 141 125 Z" stroke="none" fill="#9A7630"></path>

<path d="M 218 192
Q 218.5 192 218.5 191.95 219.75 183.25 218 177 218 184 218 191 218 191.5 218 192 Z" stroke="none" fill="#704E05"></path>

<path d="M 180 131
Q 180 130.5 179.75 130.15 179 129.05 174 129 175.8 130.7 179 130.95 179.5 131 180 131 Z" stroke="none" fill="#D0AA5B"></path>

<path d="M 174 133
Q 173.5 133 173 133 165.1 132.9 161 129 160.5 129 160 129 149 128.55 138 129 138 129.5 137.9 129.55 128.25 131.75 124 139 124 143 124 147 124 147.5 124 148 126.55 149.1 129.4 154.8 129.5 155 130 155 132.75 167.65 133.95 177 134 177.5 134 178 134 178.5 134 179 134 179.5 134 180 136.85 188.15 139.85 196.05 140 196.5 140 197 143.2 197.3 142.1 202 142 202.5 142 203 143.8 211.2 145.9 219.05 146 219.5 146 220 147.55 222.45 147.95 226 148 226.5 148 227 148 227.5 148 228 150.9 236.6 154.8 244.1 155 244.5 155 245 155.3 246.7 156.8 247.4 157 247.5 157 248 157.5 248.5 158.1 248.8 158.5 249 159 249 161.95 248.35 167 248.95 167.5 249 168 249 168.5 249 169 249 169 248.5 169 248 171.95 244.35 178.05 245.9 178.5 246 179 246 179 245.5 179 245 179 244.5 179.25 244.2 191.45 230.7 202 222 202 221.5 202.1 221 203.9 212.9 212 206 212 205.5 212.1 205 224 151.1 174 133
M 194.8 162.15
Q 195 162.5 195 163 198.85 167.15 199.9 174 200 174.5 200 175 201.7 175.3 201.1 178 201 178.5 201 179 202.75 181.75 201.55 186.9 201.5 187 201 187 201 187.5 201 188 201 188.5 201 189 201 189.5 200.9 190 195.1 216.1 176 229 176 229.5 176 230 176 230.5 175.8 230.65 171.35 233.35 168 232 167.5 232 167.4 231.8 165.7 228.3 165 224 165 223.5 164.85 223.05 158.95 204.55 153 186 152.5 186 152.4 185.8 149.2 179.8 148 172 148 171.5 148 171 147.5 171 147.4 170.8 145.4 167.1 145 162 145 161.5 144.8 161.1 143.05 156.9 142 152 141.5 152 141.3 151.75 139.35 149.15 139 145 139 144.5 139 144 139 143.5 139 143 139 142.5 139 142 139 141 139 140 139.5 139.5 140.1 139.2 140.5 139 141 139 141 138.5 141 138 148.5 138 155.95 138.5 156 138.5 156 139 183.3 142.7 194.8 162.15 Z" stroke="none" fill="#120604"></path>

<path d="M 168 232
Q 168 231.5 167.95 231 167.4 226.6 165 224 165.7 228.3 167.4 231.8 167.5 232 168 232 Z" stroke="none" fill="#7E5F17"></path>

<path d="M 176 230
Q 175.5 230 175.05 230.1 171.5 231 168 232 171.35 233.35 175.8 230.65 176 230.5 176 230 Z" stroke="none" fill="#795C16"></path>

<path d="M 153 186
Q 153 185.5 152.85 185.05 150.95 178.05 148 172 149.2 179.8 152.4 185.8 152.5 186 153 186 Z" stroke="none" fill="#5F400A"></path>

<path d="M 147.4 170.8
Q 147.5 171 148 171 148 170.5 147.9 170 147.15 165.35 145 162 145.4 167.1 147.4 170.8 Z" stroke="none" fill="#6D501E"></path>

<path d="M 142 152
Q 142 151.5 142 151 142 150.5 142 150 141.5 150 141.5 149.95 141.2 146.25 139 145 139.35 149.15 141.3 151.75 141.5 152 142 152 Z" stroke="none" fill="#604318"></path>

<path d="M 141 138
Q 141 138.5 141 139 141.5 139 142 139 148.5 139 155 139 155.5 139 156 139 156 138.5 155.95 138.5 148.5 138 141 138 Z" stroke="none" fill="#4F3211"></path>

<path d="M 141 139
Q 140.5 139 140.1 139.2 139.5 139.5 139 140 139 141 139 142 139 142.5 139 143 141.7 142.7 141.95 140 142 139.5 142 139 141.5 139 141 139 Z" stroke="none" fill="#D6BC80"></path>

<path d="M 201 187
Q 201.5 187 201.55 186.9 202.75 181.75 201 179 201 182.5 201 186 201 186.5 201 187 Z" stroke="none" fill="#826310"></path>

<path d="M 201 179
Q 201 178.5 201.1 178 201.7 175.3 200 175 200 182 200.5 188.95 200.5 189 201 189 201 188.5 201 188 201 187.5 201 187 201 186.5 201 186 201 182.5 201 179 Z" stroke="none" fill="#D5B972"></path>

<path d="M 177 147
Q 176.5 147 176.05 146.85 167.9 144.6 161 141 160.5 141 160 140.95 147.3 139.3 142 145 142 147 142 149 142 149.5 142 150 142 150.5 142 151 142 151.5 142 152 143.05 156.9 144.8 161.1 145 161.5 145 162 147.15 165.35 147.9 170 148 170.5 148 171 148 171.5 148 172 150.95 178.05 152.85 185.05 153 185.5 153 186 158.95 204.55 164.85 223.05 165 223.5 165 224 167.4 226.6 167.95 231 168 231.5 168 232 171.5 231 175.05 230.1 175.5 230 176 230 176 229.5 176 229 195.1 216.1 200.9 190 201 189.5 201 189 200.5 189 200.5 188.95 200 182 200 175 200 174.5 199.9 174 198.85 167.15 195 163 194.5 163 194.2 162.75 184.75 155.75 177 147 Z" stroke="none" fill="#F5C341"></path>

<path d="M 176.05 146.85
Q 176.5 147 177 147 184.75 155.75 194.2 162.75 194.5 163 195 163 195 162.5 194.8 162.15 183.3 142.7 156 139 155.5 139 155 139 148.5 139 142 139 142 139.5 141.95 140 141.7 142.7 139 143 139 143.5 139 144 139 144.5 139 145 141.2 146.25 141.5 149.95 141.5 150 142 150 142 149.5 142 149 142 147 142 145 147.3 139.3 160 140.95 160.5 141 161 141 167.9 144.6 176.05 146.85 Z" stroke="none" fill="#D6B15D"></path>

<path d="M 173 133
Q 173.5 133 174 133 224 151.1 212.1 205 212 205.5 212 206 203.9 212.9 202.1 221 202 221.5 202 222 191.45 230.7 179.25 244.2 179 244.5 179 245 185.7 243.7 189.3 239.25 189.5 239 190 239 190 238.5 190 238 193 235.5 195.75 232.75 196 232.5 196 232 196 231.5 196 231 200.1 228.6 202.4 224.2 202.5 224 203 224 203 223.5 203 223 203.5 222.5 204.1 222.2 204.5 222 205 222 205 221.5 205 221 207.5 218.5 209.4 215.2 209.5 215 210 215 210 214.5 210 214 210 213.5 210 213 210 212.5 210 212 213.1 210.6 213.5 206.05 213.5 206 214 206 214 205.5 214 205 217.2 200.2 217.95 193 218 192.5 218 192 218 191.5 218 191 218 184 218 177 218 176.5 217.9 176.05 209.65 142.85 180 131 179.5 131 179 130.95 175.8 130.7 174 129 173.5 129 173.05 128.85 165.9 126.6 157 126 156.5 126 156 126 148.5 126 141 126 140.5 126 140 126.05 126.95 126.95 122 136 122 141 122 146 122 146.5 122 147 122.85 150.15 124.75 152.25 125 152.5 125 153 128.45 163.55 131.85 174.05 132 174.5 132 175 132.95 176.05 133.45 177.85 133.5 178 134 178 134 177.5 133.95 177 132.75 167.65 130 155 129.5 155 129.4 154.8 126.55 149.1 124 148 124 147.5 124 147 124 143 124 139 128.25 131.75 137.9 129.55 138 129.5 138 129 149 128.55 160 129 160.5 129 161 129 165.1 132.9 173 133 Z" stroke="none" fill="#321402"></path>

<path d="M 168 70
Q 168 70.5 168 71 173.25 71.75 175.75 69.7 176 69.5 176 69 175.5 69 175.05 69.15 172.15 70.15 168 70 Z" stroke="none" fill="#616354"></path>

<path d="M 166 71
Q 165.5 71 165 71 160.5 71 156 71 156 71.5 156 72 156 72.5 156 73 162.25 73.75 165.8 71.65 166 71.5 166 71 Z" stroke="none" fill="#626354"></path>

<path d="M 200 64
Q 200 64.5 200 65 206.25 65.75 209.8 63.65 210 63.5 210 63 209.5 63 209 62.95 203.65 62.65 200 64 Z" stroke="none" fill="#616151"></path>

<path d="M 190 65
Q 190 65.5 190 66 190 66.5 190 67 195.25 67.75 197.75 65.7 198 65.5 198 65 197.5 65 197 65 193.5 65 190 65 Z" stroke="none" fill="#626152"></path>

<path d="M 256 93
Q 256 92.5 256.25 92.2 257.9 90.15 252 88 252 87.5 251.8 87.1 247.1 78.4 237 75
L 237 75.5
Q 234.55 74.45 230 75 230 75.5 230 76 235.5 77 239.8 79.4 240 79.5 240 80 264.4 98.1 266 139 266 139.5 266 140 267.4 143.65 267.95 148 268 148.5 268 149 269.9 157.6 271.5 166.9 271.5 167 272 167 272 166.5 271.95 166 269.75 129.6 264 109
L 264.5 109
Q 262.85 101.1 256 93 Z" stroke="none" fill="#A86817"></path>

<path d="M 256.25 92.2
Q 256 92.5 256 93 262.85 101.1 264.5 109
L 264 109
Q 269.75 129.6 271.95 166 272 166.5 272 167 278.3 172.2 274.55 181.85 274.5 182 274 182 274 183.5 274.45 184.85 274.5 185 275 185 275 184.5 275 184 275 183.5 275 183 281.2 187.05 278.15 198.05 278 198.5 278 199 282.65 201.5 282 219 282 219.5 282 220 282 220.5 282 221 282 221.5 282 222 282.5 222 282.55 222.15 285.35 229.65 286 239 285.5 239 285 239.1 283.4 239.5 284 252 283.5 252 283.4 252.2 279.45 259.45 276 267 275.5 267 275 267.05 271.95 267.45 270 269 270 269.5 269.9 270 269.3 273.3 267 275 266.5 275 266.05 275.1 219.05 287.45 175 293 174.5 293 174.45 293.15 172 300.15 160 297 159.5 297 159 297.1 136.35 301.95 114 303 114 302.5 113.75 302.3 108 297.5 98 297 98 296.5 97.75 296.2 94.2 291.3 88 289 88 288.5 87.85 288.05 85.9 281.6 80 279 80 278.5 79.9 278 76.8 259.55 74 245 74 244.5 73.9 244 72.15 233.85 69 225
L 68.5 225
Q 68.6 215.1 66 199 66.5 199 67 199 67.5 199 68 199 68 198.5 67.8 198.1 67.5 197.5 67 197 67.5 197 68 197 68.5 197 69 197 69 196.5 68.95 196.5 64.85 196.15 62 195 61.5 195 61 195 60.5 195 60 195 59.5 195 59.15 195.25 58 196 57 197 57 197.5 57 198 57 198.5 57 199 58.75 203.25 58.05 210 58 210.5 58 211 61.2 211.3 60.1 216 60 216.5 60 217 60 217.5 60 218 63.2 220.8 62.1 228 62 228.5 62 229 62 229.5 62 230 62 230.5 62 231 65.3 232.2 64.1 238 64 238.5 64 239 66.9 238.6 66.1 242.05 66 242.5 66 243 66 248.5 66 254 66 254.5 66 255 69.2 255.3 68.1 260 68 260.5 68 261 68 262 68 263 68 263.5 68 264 70.9 265.1 70.1 270 70 270.5 70 271 72.9 270.6 72.1 274.05 72 274.5 72 275 76.3 286.2 83.75 294.25 84 294.5 84 295 89.75 295.75 91.8 300.1 92 300.5 92 301 95.2 300.3 95.85 302.05 96 302.5 96 303 99.95 304.55 103.15 306.75 103.5 307 104 307 108.2 306.25 109.75 308.2 110 308.5 110 309 110.5 309 111 309 111.5 309 112 309 115.2 308.3 115.85 310.05 116 310.5 116 311 122.5 311 129 311 129.5 311 130 311 130 310.5 130 310 130 309.5 130 309 134 309 138 309 138.5 309 139 309 139 308.5 139 308 145.65 302.15 154.8 306.4 155 306.5 155 307 155.5 307 156 307 156.5 307 157 307 160.65 305.65 165 305.05 165.5 305 166 305 166 304.5 166 304 166 303.5 166 303 169.5 303 173 303 173.5 303 174 303 174 302.5 174 302 177.65 300.65 183 300.95 183.5 301 184 301 184 300.5 184 300 184 299.5 184 299 188.5 299 193 299 193.5 299 194 299 194 298.5 194 298 196.85 296.85 201 297 201.5 297 202 297 202.5 297 203 297 203.5 297 204 297 204 296.5 204 296 204 295.5 204 295 210.5 295 217 295 217.5 295 218 295 218 294.5 218 294 221.4 292.4 227 292.95 227.5 293 228 293 229.5 293 231 293 231.5 293 232 293 232 292.5 232 292 236.1 290.6 242 290.95 242.5 291 243 291 243 290.5 243 290 246.55 287.05 253.9 288.5 254 288.5 254 289 255 289 256 289 256.5 289 257 289 257 288.5 257 288 257 287.5 257 287 258 286 259.15 285.25 259.5 285 260 285 261.5 285 263 285 263.5 285 264 285 264 284.5 264 284 264 283.5 264 283 265.5 283 267 283 267.5 283 268 283 268 282.5 268 282 268 281.5 268 281 268.5 281 269 281 269.5 281 270 281 270 280.5 270 280 270 279.5 270 279 271.95 277.45 275 277.05 275.5 277 276 277 276 276.5 276 276 276 275.5 276 275 278.25 274.75 279.3 273.25 279.5 273 280 273 280 272.5 280 272 280 270.5 280 269 280.5 269 281 269 281.5 269 282 269 282 268.5 282 268 282 267.5 282 267 282.5 267 283 267 283.5 267 284 267 284 266.5 284 266 284 264.5 284 263 286.25 262.75 287.3 261.25 287.5 261 288 261 288 260.5 288 260 288 258.5 288 257 288.5 257 289 257 289.5 257 290 257 290 256.5 290 256 290 255.5 290 255 292.15 255.65 292.05 254 292 253.5 292 253 292 252.5 292 252 292 249.5 292 247 292.5 246.5 293.1 246.2 293.5 246 294 246 294 245.5 294 245 294 241 294 237 294 236.5 294 236 293.8 224.7 292 215 291.5 215 291.15 214.8 289.3 213.7 290 210 290 209.5 289.95 209 288.65 200.35 288 191 287.5 191 287.2 190.75 285.25 189.2 286 185 286 184.5 286 184 286 183.5 286 183 285.5 183 285.35 182.8 283.25 179.25 284 173 284 172.5 284 172 284 168.5 284 165 283.5 165 283 165 282.5 165 282 165 281.5 165 281 165 274.3 165.2 275 158 276.2 156.2 278.1 155.2 278.5 155 279 155 279 154.5 279 154 279.5 154 279.75 153.75 280 153.5 280 153 280 152.5 280 152 280 151.5 280 151 279.5 151 279.35 150.8 277.25 147.25 278 141 278 140.5 278 140 278 138.5 278 137 277.5 137 277.25 136.75 275.55 134.95 276 131 276 130.5 275.8 130.15 273.25 126.05 274 115 273.5 115 273.3 114.75 271.25 112.25 272 107 272 106.5 271.8 106.35 269.5 105 270 101 269.5 101 269.15 100.8 267.3 99.7 268 96 268 95.5 267.8 95.15 258.25 78.75 242 69 241.5 69 241.05 69.1 237.6 69.9 238 67 237.5 67 237 66.95 233.95 66.5 232 65 231.5 65 231 65 225.25 65.25 222 63 221.5 63 221 63 215.5 63 210 63 210 63.5 209.8 63.65 206.25 65.75 200 65 199.5 65 199 65 198.5 65 198 65 198 65.5 197.75 65.7 195.25 67.75 190 67 189.5 67 189.05 67.15 183.25 68.75 176 69 176 69.5 175.75 69.7 173.25 71.75 168 71 167.5 71 167 71 166.5 71 166 71 166 71.5 165.8 71.65 162.25 73.75 156 73 155.5 73 155 73 154.5 73 154 73 154 73.5 153.75 73.8 152.2 75.7 148 75 147.5 75 147 75 147 75.5 146.85 75.55 140 77.5 131 77 130.5 77 130.05 77.15 120.2 80.6 108 81 108 81.5 107.85 81.55 103 83.5 96 83 95.5 83 95.3 83.25 93.35 85.85 88 85 88 85.5 87.75 85.8 86.2 87.7 82 87 82 87.5 81.8 87.85 80.7 89.7 77 89 76.5 89 76.2 89.25 70.2 94.2 64 99 64 99.5 63.75 99.85 62.45 101.95 60 103 60 103.5 59.75 103.85 55.1 110.6 50 117 50 118.5 50 120 50 120.5 50 121 50 121.5 50.1 121.95 50.9 125.45 48 125 48 136.5 48 148 48 148.5 48 149 46.65 155.35 49.75 157.35 50 157.5 50 158 51.05 157.05 53 157 53.5 157 54 157 54 156.5 54 156 56 156 58 156 58.5 156 59 156 59 155.5 58.75 155.15 57.65 153.35 58 150 57.5 150 57.5 149.95 56 140 55 125 64.65 101.6 83.8 93.55 84 93.5 84 93 97.25 92.5 110.05 87.2 110.5 87 111 87 115.426171875 86.6388671875 119.8 86.2 139.1779296875 84.3185546875 158 81.1 158.5 81 159 81 175.6435546875 77.3166015625 182.6 75.75 183.3025390625 75.63125 183.9 75.5 184 75.5 184 75 188.25 71.6 193.15 74.75 193.5 75 194 75 196.1 74.05 201.9 72.55 202 72.5 202 72 217.3 71.1 229.9 74.45 230 74.5 230 75 234.55 74.45 237 75.5
L 237 75
Q 247.1 78.4 251.8 87.1 252 87.5 252 88 257.9 90.15 256.25 92.2 Z" stroke="none" fill="#9A612E"></path>
</g>
</g>
</g>
</g>
</g>
</svg>
