
<svg viewBox="0 0 80 70" height="70px" width="80px" y="0px" x="0px" preserveAspectRatio="none" xmlns:xlink="http://www.w3.org/1999/xlink" version="1.1" xmlns="http://www.w3.org/2000/svg">
<defs></defs>

<g id="Layer_2">
<g transform="matrix( 0.2443389892578125, 0, 0, 0.2443389892578125, -5.6,-13.9)" id="Layer_1">
<g>
<g>
<g>
<path d="M 262 326
Q 262 326.5 262 327 262.5 327 262.55 326.9 263.75 321.75 262 319 262 322.5 262 326 Z" stroke="none" fill="#304D55"></path>

<path d="M 262 327
Q 261.5 327 261.5 327.05 260.6 334.1 256 337 256 337.5 256 338 256 338.5 256 339 261.75 336.25 262 328 262 327.5 262 327 Z" stroke="none" fill="#0B2831"></path>

<path d="M 262 318
Q 262 317.5 262.05 317 262.6 310.9 260 308 260.5 313 261.5 317.9 261.5 318 262 318 Z" stroke="none" fill="#213E45"></path>

<path d="M 247 317
Q 247 317.5 247.05 318 247.75 323.75 246 327 246 327.5 246 328 246 328.5 246 329 249.4 325.4 247.5 317.1 247.5 317 247 317 Z" stroke="none" fill="#082831"></path>

<path d="M 258 304
Q 257.5 304 257.35 303.75 255.55 301 243 303 244.7 309.8 246.45 316.9 246.5 317 247 317 247.5 317 247.5 317.1 249.4 325.4 246 329
L 245.5 329
Q 245.65 331.15 244 331 243.25 343.75 255.05 339.15 255.5 339 256 339 256 338.5 256 338 256 337.5 256 337 260.6 334.1 261.5 327.05 261.5 327 262 327 262 326.5 262 326 262 322.5 262 319 262 318.5 262 318 261.5 318 261.5 317.9 260.5 313 260 308 260 307.5 259.8 307.1 259 305.5 258 304 Z" stroke="none" fill="#010913"></path>

<path d="M 254 299
Q 254 298.5 253.95 298.5 249.5 298 245 298 245 298.5 245 299 249 299 253 299 253.5 299 254 299 Z" stroke="none" fill="#5D3503"></path>

<path d="M 258 303
Q 258 302.5 257.75 302.25 256.5 301 256 299 255.5 299 255 299 254.5 299 254 299 253.5 299 253 299 249 299 245 299 245 299.5 244.75 299.75 244 300.5 243 301 243 301.5 243 302 243 302.5 243 303 255.55 301 257.35 303.75 257.5 304 258 304 258 303.5 258 303 Z" stroke="none" fill="#2A0901"></path>

<path d="M 268 301
Q 267.5 301 267 301.05 259.7 301.8 256 299 256.5 301 257.75 302.25 258 302.5 258 303 262.5 303 267 303 267.5 303 268 303 268 302.5 268 302 268 301.5 268 301 Z" stroke="none" fill="#89674B"></path>

<path d="M 165 298
Q 165 297.5 165 297
L 164.5 297
Q 164.7 293.8 163 293 163 295.5 163 298 163 298.5 163 299 163.5 299 164 299 164.5 299 165 299 165 298.5 165 298 Z" stroke="none" fill="#895B2E"></path>

<path d="M 173 299
Q 173.5 299 174 299 174 298.5 173.85 298.45 169.15 296.95 165 297 165 297.5 165 298 165 298.5 165 299 169 299 173 299 Z" stroke="none" fill="#8E6643"></path>

<path d="M 206 301
Q 206 300.5 205.9 300.5 196.15 298.35 184 299 192.65 301.85 205 301.05 205.5 301 206 301 Z" stroke="none" fill="#8C6745"></path>

<path d="M 241 303
Q 241.5 303 242 303 242 302.5 241.95 302.5 225.25 300.25 206 301 205.5 301 205 301.05 192.65 301.85 184 299 183.5 299 183 299 178.5 299 174 299 173.5 299 173 299 169 299 165 299 164.5 299 164 299 163.5 299 163 299 162.5 299 162 299 162 299.5 162 300 162 300.5 162 301 197.6 303.55 241 303 Z" stroke="none" fill="#756E5C"></path>

<path d="M 221.25 290.75
Q 221 290.5 221 290 220.5 290 220 290 218.5 290 217 290 217 290.5 216.85 290.55 215.5 291 214 291 216.3 294.5 221.8 291.6 222 291.5 222 291 221.5 291 221.25 290.75 Z" stroke="none" fill="#9F6902"></path>

<path d="M 221 290
Q 221 290.5 221.25 290.75 221.5 291 222 291 223.5 291 225 291 225.5 291 226 291 228 291 230 291 230.5 291 231 291 231 290.5 230.95 290.5 226 290 221 290 Z" stroke="none" fill="#B68811"></path>

<path d="M 197 289
Q 197 289.5 197 290 200 290 203 290 203.5 290 204 290 204.5 290 205 290 205.5 290 206 290 206 289.5 205.95 289.5 201.5 289 197 289 Z" stroke="none" fill="#BF8E2E"></path>

<path d="M 197 289
Q 196.5 289 196 289 190.5 289 185 289 189.25 290.75 196 290.05 196.5 290 197 290 197 289.5 197 289 Z" stroke="none" fill="#AC791C"></path>

<path d="M 185 289
Q 184.5 289 184 289 179 289 174 289 186.5 292.5 203.95 290.5 204 290.5 204 290 203.5 290 203 290 200 290 197 290 196.5 290 196 290.05 189.25 290.75 185 289 Z" stroke="none" fill="#9D6401"></path>

<path d="M 163 293
Q 163 292.5 162.8 292.4 162 292 161 292 162.2 293.3 162.05 296 162 296.5 162 297 162 297.5 162 298 162 298.5 162 299 162.5 299 163 299 163 298.5 163 298 163 295.5 163 293 Z" stroke="none" fill="#603404"></path>

<path d="M 174 288
Q 174 288.5 174 289 179 289 184 289 184.5 289 185 289 185 288.5 184.95 288.5 179.5 288 174 288 Z" stroke="none" fill="#CB9A25"></path>

<path d="M 318 277
Q 318 277.5 318.05 278 318.7 282.2 317 284 317 284.5 317 285 317 285.5 317 286 320.15 283.65 318.55 277.1 318.5 277 318 277 Z" stroke="none" fill="#10343D"></path>

<path d="M 289.8 288.35
Q 290 288.5 290 289 295.4 287.9 299.8 285.6 300 285.5 300 285 299.5 285 299 285 292.5 285 286 285 287.45 287 289.8 288.35 Z" stroke="none" fill="#81684A"></path>

<path d="M 301 284
Q 300.5 284 300 284 293 284 286 284 286 284.5 286 285 292.5 285 299 285 299.5 285 300 285 300.5 285 301 285 301 284.5 301 284 Z" stroke="none" fill="#2E2511"></path>

<path d="M 301 283.5
L 301 284
Q 301 284.5 301 285 307.85 288.65 316.05 286.15 316.5 286 317 286 317 285.5 317 285 317 284.5 317 284 318.7 282.2 318.05 278 318 277.5 318 277 318 276.5 317.8 276.1 317 274.5 316 273 316 273.5 316.1 274 317.4 281.9 314 285 314 284.5 313.95 284 313 272.3 312 283 311.5 283 311.15 282.8 300.6 276.4 288 281 295.7 283.45 301 283.5 Z" stroke="none" fill="#010E14"></path>

<path d="M 292 271
Q 292 271.5 292 272 293 272 293.8 272.4 294 272.5 294 273 300.85 273.85 298.7 271.25 298.5 271 298 271 297.5 271 297 271 294.5 271 292 271 Z" stroke="none" fill="#684F36"></path>

<path d="M 297 252
Q 297 252.5 297 253 296.5 263.5 291 269 291 270 291 271 291 271.5 291 272 291.5 272 292 272 292 271.5 292 271 294.5 271 297 271 297.5 271 298 271 298 270.5 297.9 270 297.25 266.75 297 263 297.5 262.5 297.8 261.9 298 261.5 298 261 298 260.5 298.2 260.15 301.3 255.1 298 252 297.5 252 297 252 Z" stroke="none" fill="#9F6612"></path>

<path d="M 315.85 272.05
Q 314.6 267.4 312 264 311.15 270.85 315.1 272.8 315.5 273 316 273 316 272.5 315.85 272.05 Z" stroke="none" fill="#0C2129"></path>

<path d="M 311 264.05
Q 311.5 264 312 264 312 263.5 311.9 263.05 311.2 260.25 308 260 307.5 260 307 260 305.5 260 304 260 307.2 264.35 311 264.05 Z" stroke="none" fill="#14272C"></path>

<path d="M 308 259
Q 308 257 308 255 308 254.5 308 254 308 253.5 308 253 307.5 253 307.5 253.05 307.15 256.65 304 257 304 258 304 259 304 259.5 304 260 305.5 260 307 260 307.5 260 308 260 308 259.5 308 259 Z" stroke="none" fill="#886551"></path>

<path d="M 282 293
Q 282 293.5 282 294 282 294.5 282 295 289.7 296.2 290 290 290 289.5 290 289 289.5 289 289.15 289.2 285.75 291.25 282 293 Z" stroke="none" fill="#786B52"></path>

<path d="M 282 295
Q 281.5 295 281.1 295.2 274.45 297.95 268 301 268 301.5 268 302 268 302.5 268 303 278.3 302.8 281.8 295.9 282 295.5 282 295 Z" stroke="none" fill="#786C55"></path>

<path d="M 282 287
Q 281.5 287 281.05 287.15 276.45 288.45 270 288 275.8 290.3 281.8 287.6 282 287.5 282 287 Z" stroke="none" fill="#7C5B30"></path>

<path d="M 273.05 276.15
Q 269.2 277.7 266 280 266 282.5 266 285 266 285.5 266 286 268 286.5 269.8 287.4 270 287.5 270 288 276.45 288.45 281.05 287.15 281.5 287 282 287 282 286.5 282 286 283.95 285.95 285.15 285.25 285.5 285 286 285 286 284.5 286 284 293 284 300 284 300.5 284 301 284
L 301 283.5
Q 295.7 283.45 288 281 300.6 276.4 311.15 282.8 311.5 283 312 283 313 272.3 313.95 284 314 284.5 314 285 317.4 281.9 316.1 274 316 273.5 316 273 315.5 273 315.1 272.8 311.15 270.85 312 264 311.5 264 311 264.05 307.2 264.35 304 260 303.5 260 303 259.95 299.65 259.65 298 261 298 261.5 297.8 261.9 297.5 262.5 297 263 297.25 266.75 297.9 270 298 270.5 298 271 298.5 271 298.7 271.25 300.85 273.85 294 273 293.5 273 293.05 273.1 284.2 275.2 274 276 273.5 276 273.05 276.15 Z" stroke="none" fill="#180803"></path>

<path d="M 274 275
Q 274 275.5 274 276 284.2 275.2 293.05 273.1 293.5 273 294 273 294 272.5 293.8 272.4 293 272 292 272 291.5 272 291 272 290.5 272 290 272 290 272.5 289.95 272.5 281.65 273.65 274 275 Z" stroke="none" fill="#624603"></path>

<path d="M 259 291
Q 259 291.5 258.95 291.5 253.5 292 248 292 260.85 295.05 261.5 291
L 261 291
Q 260.5 291 260 291 259.5 291 259 291 Z" stroke="none" fill="#9E6501"></path>

<path d="M 246 292
Q 246 291.5 246 291 245.5 291 245 291 238 291 231 291 230.5 291 230 291 228 291 226 291 233.6 294.4 245.95 292.5 246 292.5 246 292 Z" stroke="none" fill="#A16903"></path>

<path d="M 246 292
Q 246.5 292 247 292 247.5 292 248 292 253.5 292 258.95 291.5 259 291.5 259 291 258.5 291 258 291 252 291 246 291 246 291.5 246 292 Z" stroke="none" fill="#B47F1B"></path>

<path d="M 310 241
Q 309.5 241 309 241 308.5 241 308 241 308 246.5 308 252 308 252.5 308 253 308 253.5 308 254 308 254.5 308 255 311.45 250.95 310.05 242 310 241.5 310 241 Z" stroke="none" fill="#776B56"></path>

<path d="M 298 237
Q 298 237.5 298 238 298.35390625 236.376953125 298.65 234.65 298.3892578125 235.38828125 298 236 298 236.5 298 237
M 300 195
Q 299.5 195 299 195 299 197.5 299 200 299 200.5 299 201 299 207.5 299 214 299 214.5 299 215 299 220.5 299 226 299 226.5 299 227 299 227.5 299.05 228 299.2501953125 229.501953125 299.25 230.8 301.19453125 216.4849609375 300.05 196 300 195.5 300 195 Z" stroke="none" fill="#A36606"></path>

<path d="M 298 243
Q 297.5 243 297 243 297 247 297 251 297 251.5 297 252 297.5 252 298 252 298 251.5 298 251 298 247 298 243 Z" stroke="none" fill="#CF9C25"></path>

<path d="M 298 227
Q 298 231 298 235 298 235.5 298 236 298.3892578125 235.38828125 298.65 234.65 299.246875 233.0267578125 299.25 230.8 299.2501953125 229.501953125 299.05 228 299 227.5 299 227 298.5 227 298 227 Z" stroke="none" fill="#AF7222"></path>

<path d="M 299 215
Q 298.5 215 298 215 298 220.5 298 226 298 226.5 298 227 298.5 227 299 227 299 226.5 299 226 299 220.5 299 215 Z" stroke="none" fill="#C38936"></path>

<path d="M 298 215
Q 298.5 215 299 215 299 214.5 299 214 299 207.5 299 201 298.5 201 298 201 298 207.5 298 214 298 214.5 298 215 Z" stroke="none" fill="#DB9E44"></path>

<path d="M 312 207
L 311.5 207
Q 311.75 214.25 310 219 310 219.5 310 220 310 220.5 310 221 313.45 216.95 312.05 208 312 207.5 312 207 Z" stroke="none" fill="#596158"></path>

<path d="M 151 325
Q 150.5 325 150.45 325.1 149.7 328.2 148 330 148 332 148 334 148 334.5 148 335 149.9 330.9 150.9 326 151 325.5 151 325 Z" stroke="none" fill="#1E3A41"></path>

<path d="M 134 330
L 133.5 330
Q 133.7 332.7 132 333 131.55 337.45 134.1 338.8 134.5 339 135 339 135 338.5 135.15 338.05 135.85 335.7 134 330 Z" stroke="none" fill="#07252E"></path>

<path d="M 144 302
Q 144 302.5 143.75 302.75 143 303.5 142 304 142 305.5 142 307 142 307.5 142 308 143.95 305.95 144.85 302.95 145 302.5 145 302 144.5 302 144 302 Z" stroke="none" fill="#273E46"></path>

<path d="M 146 299
Q 145.5 299 145 299 145 300 145 301 145 301.5 145 302 145 302.5 144.85 302.95 143.95 305.95 142 308 141.5 308 141.4 308.2 137.2 317.2 134 327 134 328 134 329 134 329.5 134 330 135.85 335.7 135.15 338.05 135 338.5 135 339 144.05 344.8 147.8 335.9 148 335.5 148 335 148 334.5 148 334 148 332 148 330 149.7 328.2 150.45 325.1 150.5 325 151 325 151 324.5 151 324 156.15 312.65 161.8 301.9 162 301.5 162 301 162 300.5 162 300 162 299.5 162 299 162 298.5 162 298 162 297.5 162 297 161.5 297 161.25 296.75 153.9 289.3 146 299 Z" stroke="none" fill="#040A12"></path>

<path d="M 146 298
Q 146 297.5 146 297 145.5 297 145 297 144.5 297 144.45 297.15 143 301.15 142 297 141.5 297 141 297 138.5 297 136 297 135.5 297 135 297 132.5 297 130 297 129.5 297 129 297 125.5 297 122 297 132.55 299.45 143.9 301.5 144 301.5 144 302 144.5 302 145 302 145 301.5 145 301 145 300 145 299 145.5 299 146 299 146 298.5 146 298 Z" stroke="none" fill="#756D5C"></path>

<path d="M 68 287.1
Q 68.5 287 69 287
L 69 286.5
Q 64.2 286.3 61 285 62.5 288.05 68 287.1 Z" stroke="none" fill="#34545B"></path>

<path d="M 57 283
Q 57 282.5 56.75 282.3 54.55 280.45 53 278 52.85 282.15 56 282.9 56.5 283 57 283 Z" stroke="none" fill="#254851"></path>

<path d="M 73 272
Q 72.5 272 72.5 272.1 72.15 273.65 70 273 71.45 277.05 77 277 77.5 277 78 277
L 78 276.5
Q 72.85 276.7 73 272 Z" stroke="none" fill="#303C3F"></path>

<path d="M 156 287
Q 156 287.5 156 288 160 288 164 288 164.5 288 165 288 165 287.5 164.95 287.5 160.5 287 156 287 Z" stroke="none" fill="#DFB657"></path>

<path d="M 154 288.05
Q 154.5 288 155 288 155.5 288 156 288 156 287.5 156 287 155.5 287 155 287 151 287 147 287 149.25 288.75 154 288.05 Z" stroke="none" fill="#BB8C23"></path>

<path d="M 158 290
Q 157.5 290 157 290 147.95 289.95 146 297 146 297.5 146 298 146 298.5 146 299 153.9 289.3 161.25 296.75 161.5 297 162 297 162 296.5 162.05 296 162.2 293.3 161 292 161 291.5 160.85 291.45 159.05 290.95 158 290 Z" stroke="none" fill="#371301"></path>

<path d="M 158 289.5
L 158 290
Q 159.05 290.95 160.85 291.45 161 291.5 161 292 162 292 162.8 292.4 163 292.5 163 293 164.7 293.8 164.5 297
L 165 297
Q 169.15 296.95 173.85 298.45 174 298.5 174 299 178.5 299 183 299 183.5 299 184 299 196.15 298.35 205.9 300.5 206 300.5 206 301 225.25 300.25 241.95 302.5 242 302.5 242 303 242.5 303 243 303 243 302.5 243 302 243 301.5 243 301 244 300.5 244.75 299.75 245 299.5 245 299 245 298.5 245 298 249.5 298 253.95 298.5 254 298.5 254 299 254.5 299 255 299 255.5 299 256 299 259.7 301.8 267 301.05 267.5 301 268 301 274.45 297.95 281.1 295.2 281.5 295 282 295 282 294.5 282 294 282 293.5 282 293 285.75 291.25 289.15 289.2 289.5 289 290 289 290 288.5 289.8 288.35 287.45 287 286 285 285.5 285 285.15 285.25 283.95 285.95 282 286 282 286.5 282 287 282 287.5 281.8 287.6 275.8 290.3 270 288 270 287.5 269.8 287.4 268 286.5 266 286 266 286.5 266.25 286.75 269.65 290.2 261 290 261 290.5 261 291
L 261.5 291
Q 260.85 295.05 248 292 247.5 292 247 292 246.5 292 246 292 246 292.5 245.95 292.5 233.6 294.4 226 291 225.5 291 225 291 223.5 291 222 291 222 291.5 221.8 291.6 216.3 294.5 214 291 215.5 291 216.85 290.55 217 290.5 217 290 216.5 290 216 290 211 290 206 290 205.5 290 205 290 204.5 290 204 290 204 290.5 203.95 290.5 186.5 292.5 174 289 174 288.5 174 288 173.5 288 173 288 169 288 165 288 164.5 288 164 288 160 288 156 288 155.9 289.65 158 289.5 Z" stroke="none" fill="#9E6224"></path>

<path d="M 142 295
Q 142 295.5 142 296 142 296.5 142 297 143 301.15 144.45 297.15 144.5 297 145 297 145 296.5 144.85 296.45 143.05 295.95 142 295 Z" stroke="none" fill="#8D6744"></path>

<path d="M 135.75 296.2
Q 134.2 294.25 130 295 130 295.5 130 296 130 296.5 130 297 132.5 297 135 297 135.5 297 136 297 136 296.5 135.75 296.2 Z" stroke="none" fill="#946744"></path>

<path d="M 119.85 296.05
Q 119.2 294.3 116 295 115.6 297.95 119.05 297.1 119.5 297 120 297 120 296.5 119.85 296.05 Z" stroke="none" fill="#746E5E"></path>

<path d="M 116 295
Q 116 294.5 115.85 294.05 115.2 292.3 112 293 111.6 295.95 115.05 295.1 115.5 295 116 295 Z" stroke="none" fill="#7B6E58"></path>

<path d="M 104 289
Q 104.8 293.7 111 293.05 111.5 293 112 293 112 292.5 111.75 292.3 108.6 289.9 104 289 Z" stroke="none" fill="#6F6E5B"></path>

<path d="M 99.75 284.2
Q 97.3 281.2 94 279 93.55 284.95 99 285 99.5 285 100 285 100 284.5 99.75 284.2 Z" stroke="none" fill="#746E5B"></path>

<path d="M 93 279
Q 93 278.5 92.9 278 92.35 275.65 90 275 88.9 279.1 92 279 92.5 279 93 279 Z" stroke="none" fill="#716F5E"></path>

<path d="M 97 263
Q 97 262.5 96.9 262 96.1 258.45 94 256 93.95 260.6 96.25 262.75 96.5 263 97 263 Z" stroke="none" fill="#D29630"></path>

<path d="M 81.3 264.25
Q 81.5 264 82 264 82 263.5 82 263 82 262.5 81.95 262 81.35 257.15 80 253 80 252.5 80 252 79.5 252 79.1 252.2 62.4 259.9 53 275 53 276 53 277 53 277.5 53 278 54.55 280.45 56.75 282.3 57 282.5 57 283 59 283.5 60.8 284.4 61 284.5 61 285 64.2 286.3 69 286.5
L 69 287
Q 79.8 289.95 86.75 284.7 87 284.5 87 284 85.8 277.7 79 277.05 78.5 277 78 277 77.5 277 77 277 71.45 277.05 70 273 72.15 273.65 72.5 272.1 72.5 272 73 272 77.65 268.65 81.3 264.25
M 70 284.5
L 70 284
Q 86.55 280.35 70 284.5 Z" stroke="none" fill="#020B19"></path>

<path d="M 70 284
L 70 284.5
Q 86.55 280.35 70 284 Z" stroke="none" fill="#030302"></path>

<path d="M 84.5 262.1
Q 84.15 263.65 82 263 82 263.5 82 264 83.95 266.05 85.4 268.8 85.5 269 86 269 86 268.5 86.05 268 86.7 263.75 85 262 84.5 262 84.5 262.1 Z" stroke="none" fill="#7A6B56"></path>

<path d="M 86 255
Q 85.5 255 85.15 254.8 83 253.45 80 253 81.35 257.15 81.95 262 82 262.5 82 263 84.15 263.65 84.5 262.1 84.5 262 85 262 85 261.5 85 261 88.85 259.75 86.6 255.2 86.5 255 86 255 Z" stroke="none" fill="#270B05"></path>

<path d="M 82 252
Q 81.5 252 81 252 80.5 252 80 252 80 252.5 80 253 83 253.45 85.15 254.8 85.5 255 86 255 86 254.5 85.75 254.15 84.55 252.45 82 252 Z" stroke="none" fill="#532B02"></path>

<path d="M 93.75 255.25
Q 93.5 255 93 255 92.5 255 92 255 95.25 270.75 102.75 277.3 103 277.5 103 278 109.1 279.8 119.8 286.35 120 286.5 120 287 125.7 286.4 126.45 288.85 126.5 289 127 289 139.45 288.5 155 288.5
L 155 288
Q 154.5 288 154 288.05 149.25 288.75 147 287 146.5 287 146 287 143 287 140 287 139.5 287 139 286.95 107.65 285.35 97 263 96.5 263 96.25 262.75 93.95 260.6 94 256 94 255.5 93.75 255.25 Z" stroke="none" fill="#A66C0D"></path>

<path d="M 92 247
Q 91.5 247 91 247 90.85 251.15 91.85 254.05 92 254.5 92 255 92.5 255 93 255 93 254.5 93 254 93 253.5 93 253 93 252.5 92.75 252.15 91.65 250.35 92 247 Z" stroke="none" fill="#BC812C"></path>

<path d="M 91 246
Q 91 246.5 91 247 91.5 247 92 247 92 246.5 92 246 92 236.5 92 227 91.5 227 91 227 91 236.5 91 246 Z" stroke="none" fill="#C28837"></path>

<path d="M 82 223
Q 81.5 223 81 223 80.5 223 80 223 80 237 80 251 80 251.5 80 252 80.5 252 81 252 81.5 252 82 252 82 251.5 82 251 82 237 82 223 Z" stroke="none" fill="#766C57"></path>

<path d="M 92 226
Q 92 224.5 92 223 91.5 223 91 223 90.5 223 90 223 89.3 240.2 91.5 254.95 91.5 255 92 255 92 254.5 91.85 254.05 90.85 251.15 91 247 91 246.5 91 246 91 236.5 91 227 91.5 227 92 227 92 226.5 92 226 Z" stroke="none" fill="#A36610"></path>

<path d="M 93 219
Q 92.5 219 92 219 92 220.5 92 222 92 222.5 92 223 92 224.5 92 226 92 226.5 92 227 92 236.5 92 246 92 246.5 92 247 91.65 250.35 92.75 252.15 93 252.5 93 253 93.5 253 93.5 252.9 97.65 233.55 93 219 Z" stroke="none" fill="#F2BC48"></path>

<path d="M 91 212
Q 91 217 91 222 91 222.5 91 223 91.5 223 92 223 92 222.5 92 222 92 220.5 92 219 92 218.5 92 218 92 215 92 212 91.5 212 91 212 Z" stroke="none" fill="#AD7128"></path>

<path d="M 82 207
Q 81.5 207 81 207 81 211 81.5 214.95 81.5 215 82 215 82 214.5 82 214 82 210.5 82 207 Z" stroke="none" fill="#677369"></path>

<path d="M 93 208
Q 92.5 208 92 208 92 209.5 92 211 92 211.5 92 212 92 215 92 218 92 218.5 92 219 92.5 219 93 219 93 218.5 93 218 93 213 93 208 Z" stroke="none" fill="#D09734"></path>

<path d="M 134 234
Q 133.5 234 133 234.05 126 234.5 122 227 121.5 227 121 226.95 110 225.25 109 236
L 109 236.5
Q 105.5599609375 231.3818359375 105.05 230.25 99.93046875 233.745703125 97 241 97.25 252.8 99.85 262.05 100 262.5 100 263 102.8 262.85 103.9 268 104 268.5 104 269 108.25 270.35 111.8 277.1 112 277.5 112 278 115.55 278.45 117.75 280.3 118 280.5 118 281 131.05 281.45 139.8 286.4 140 286.5 140 287 143 287 146 287 146.5 287 147 287 151 287 155 287 155.5 287 156 287 160.5 287 164.95 287.5 165 287.5 165 288 169 288 173 288 173.5 288 174 288 179.5 288 184.95 288.5 185 288.5 185 289 190.5 289 196 289 196.5 289 197 289 201.5 289 205.95 289.5 206 289.5 206 290 211 290 216 290 216.5 290 217 290 218.5 290 220 290 220.5 290 221 290 226 290 230.95 290.5 231 290.5 231 291 238 291 245 291 245.5 291 246 291 252 291 258 291 258.5 291 259 291 259.5 291 260 291 260.5 291 261 291 261 290.5 261 290 269.65 290.2 266.25 286.75 266 286.5 266 286 266 285.5 266 285 266 282.5 266 280 269.2 277.7 273.05 276.15 273.5 276 274 276 274 275.5 274 275 281.65 273.65 289.95 272.5 290 272.5 290 272 290 271.5 290.05 271 290.8 264.85 290 261 290.5 261 290.65 260.75 294.15 255.95 293 247 292.5 247 292.45 246.85 289.25 238.55 289 233
L 288.5 233
Q 288.6 239.7 282 238 282 237.5 281.75 237.15 274.5 226.75 270 236 270.5 236 270.95 235.85 275.85 234.2 270 240 269.5 240 269.25 239.75 264.8 235.3 266 229
L 265.5 229
Q 265.05 238.4 258 231 258 231.5 258.25 231.75 264.1 237.65 259 239 258.5 239 258.4 238.8 252.6 228.3 249 235
L 248.5 235
Q 257.65 240.3 246 238 246 237.5 245.8 237.15 242.85 232.35 236 240 236 239.5 235.85 239.05 232.35 227.95 226 234 226 234.5 225.75 234.75 219.05 241.05 216 246 216 245.5 215.75 245.15 210.35 237.5 202 251 201.5 251 201 251 190.3 250.7 173 252 172.5 252 172.1 251.8 169.05 250.45 166 249 166 248.5 165.8 248.15 161.9 241.95 165 237 164.5 237 164.15 236.75 157.95 232.25 150 234 149.5 234 149.15 233.8 144.05 230.75 148 227 147.5 227 147 227.1 138.55 228.55 134 234 Z" stroke="none" fill="#F7D43E"></path>

<path d="M 92 193
Q 92 193.5 92.05 194 92.7 198.2 91 200 92.55 202.45 92.05 207 92 207.5 92 208 92.5 208 93 208 93 207.5 93 207 93 205 93 203 93 202.5 93 202 93 197.5 93 193 92.5 193 92 193 Z" stroke="none" fill="#B4790D"></path>

<path d="M 94 191
Q 93.5 191 93 191 93 191.5 93 192 93 192.5 93 193 93 197.5 93 202 93 202.5 93 203 94.75 198.75 94.05 192 94 191.5 94 191 Z" stroke="none" fill="#E4AC41"></path>

<path d="M 93 187
L 92.5 187
Q 92.65 184.9 91 185 90.45 189.55 91.8 192.1 92 192.5 92 193 92.5 193 93 193 93 192.5 93 192 93 191.5 93 191 93 190.5 93 190 93 188.5 93 187 Z" stroke="none" fill="#A56819"></path>

<path d="M 94 170
Q 93.5 170 93 170 93 178 93 186 93 186.5 93 187 93 188.5 93 190 93 190.5 93 191 93.5 191 94 191 94 190.5 94 190 94 180 94 170 Z" stroke="none" fill="#CB9241"></path>

<path d="M 84 159
L 83.5 159
Q 83.7 162.2 82 163 82 173 82 183 82 183.5 82 184 85.45 176.9 84.05 160 84 159.5 84 159 Z" stroke="none" fill="#84613D"></path>

<path d="M 94 159
Q 94 154 94 149 93.5 149 93.45 149.1 92.55 152.55 91 155 93.65 162.1 93.05 169 93 169.5 93 170 93.5 170 94 170 94 169.5 94 169 94 164.5 94 160 94 159.5 94 159 Z" stroke="none" fill="#A9691C"></path>

<path d="M 95 147
Q 94.5 147 94 147 94 147.5 94 148 94 148.5 94 149 94 154 94 159 94 159.5 94 160 95.75 155.25 95.05 148 95 147.5 95 147 Z" stroke="none" fill="#D39B33"></path>

<path d="M 93 140
Q 92.5 140 92 140 94.25 141.75 94.05 146 94 146.5 94 147 94.5 147 95 147 95 146.5 95 146 95 143 95 140 94.5 140 94 140 93.5 140 93 140 Z" stroke="none" fill="#B17317"></path>

<path d="M 83.1 139.8
Q 82.5 139.5 82 139 82 150.5 82 162 82 162.5 82 163 83.7 162.2 83.5 159
L 84 159
Q 84 158.5 84 158 84 149 84 140 83.5 140 83.1 139.8 Z" stroke="none" fill="#626153"></path>

<path d="M 96 119
Q 95.5 119 95 119 95 124 95 129 95 129.5 95 130 96.75 126.25 96.05 120 96 119.5 96 119 Z" stroke="none" fill="#D99B43"></path>

<path d="M 95 119
L 94.5 119
Q 94.75 129.25 93 137 93.5 138 93.85 139.05 94 139.5 94 140 94.5 140 95 140 95 139.5 95 139 95 134.5 95 130 95 129.5 95 129 95 124 95 119 Z" stroke="none" fill="#A76A08"></path>

<path d="M 86 113
Q 85.5 113 85 113 84.5 113 84 113 84 115.5 84 118 84 118.5 84 119 87.2 118.7 86.1 114 86 113.5 86 113 Z" stroke="none" fill="#6E614D"></path>

<path d="M 88 105
Q 87.5 105 87 105 86.5 105 86 105 86 107 86 109 86 109.5 86 110 88.55 109.55 88.05 106 88 105.5 88 105 Z" stroke="none" fill="#71644D"></path>

<path d="M 157 81
Q 157 80.5 156.95 80.5 152.5 80 148 80 147.5 80 147 80 146.5 80 146 80 149.75 81.75 156 81.05 156.5 81 157 81 Z" stroke="none" fill="#AE7429"></path>

<path d="M 136 80
Q 136 80.5 136 81 140 81 143.95 80.5 144 80.5 144 80 143.5 80 143 80 139.5 80 136 80 Z" stroke="none" fill="#D19945"></path>

<path d="M 136 81
Q 136 80.5 136 80 139.5 80 143 80 143.5 80 144 80 144.5 80 145 80 145.5 80 146 80 146.5 80 147 80 147.5 80 148 80 148 79.5 147.95 79.5 140.85 78.75 130 79 130 79.5 130 80 130 80.5 130 81 132.5 81 135 81 135.5 81 136 81 Z" stroke="none" fill="#A2660E"></path>

<path d="M 109 79
Q 108.5 79 108.05 79.15 106 80 104 81 104 81.5 104 82 104 82.5 104 83 107.1 82.1 108.75 79.8 109 79.5 109 79 Z" stroke="none" fill="#696453"></path>

<path d="M 117 83
Q 116.5 83 116.15 83.25 101.6 92.75 94 113 94.8 115.2 94.95 118 95 118.5 95 119 95.5 119 96 119 96 118.5 96 118 96 116 96 114 103.6 90.1 127.05 82.15 127.5 82 128 82 128 81.5 127.95 81.5 120.9 80.9 117 83 Z" stroke="none" fill="#A86B10"></path>

<path d="M 98 88
Q 98 88.5 98 89 101.3 86.8 103.75 83.8 104 83.5 104 83 103.5 83 103.15 83.2 100.05 85.15 98 85 98 86.5 98 88 Z" stroke="none" fill="#6E644E"></path>

<path d="M 94 93
Q 97.2 92.7 97.9 89.95 98 89.5 98 89 97.5 89 97.3 89.25 96.2 90.7 94 91 94 91.5 94 92 94 92.5 94 93
M 177 71
Q 177.5 71 178 71 178 70.5 177.95 70.5 155.25 68.25 130 69 129.9 70.65 132 70.5
L 132 71
Q 154.5 71 177 71 Z" stroke="none" fill="#636254"></path>

<path d="M 120 71
Q 120 71.5 120 72 120 72.5 120 73 124.55 73.55 126.75 71.7 127 71.5 127 71 126.5 71 126 71 123 71 120 71 Z" stroke="none" fill="#696352"></path>

<path d="M 120 73
Q 119.5 73 119 73 117.5 73 116 73 116 73.5 116 74 116 74.5 116 75 119.2 75.7 119.85 73.95 120 73.5 120 73 Z" stroke="none" fill="#6E6653"></path>

<path d="M 312 175
Q 311.5 175 311 175 310.5 175 310 175 310 196.5 310 218 310 218.5 310 219 311.75 214.25 311.5 207
L 312 207
Q 312 206.5 312 206 312 190.5 312 175 Z" stroke="none" fill="#6A624E"></path>

<path d="M 300 190
Q 300.5 190 300.7 189.75 303.8 186.25 300 185 300 187 300 189 300 189.5 300 190 Z" stroke="none" fill="#A3650E"></path>

<path d="M 300 184
Q 300 181.5 300 179 299.5 179 299 179 299 186.5 299 194 299 194.5 299 195 299.5 195 300 195 300 194.5 300 194 300 192 300 190 300 189.5 300 189 300 187 300 185 300 184.5 300 184 Z" stroke="none" fill="#C38E1E"></path>

<path d="M 301 159
Q 301 159.5 301.05 160 301.75 164.75 300 167 300 171 300 175 300 175.5 300 176 303.35 170.35 302.05 160 302 159.5 302 159 301.5 159 301 159 Z" stroke="none" fill="#A5670C"></path>

<path d="M 301 155
Q 300.5 155 300 155 300 160.5 300 166 300 166.5 300 167 301.75 164.75 301.05 160 301 159.5 301 159 301 158.5 301 158 301 156.5 301 155 Z" stroke="none" fill="#CE9138"></path>

<path d="M 302 151
Q 301.5 151 301 151 301 152.5 301 154 301 154.5 301 155 301 156.5 301 158 301 158.5 301 159 301.5 159 302 159 302 158.5 302 158 302 154.5 302 151 Z" stroke="none" fill="#A26106"></path>

<path d="M 312 155
Q 312.5 155 312.55 154.85 315.95 146.25 312 127 312 140.5 312 154 312 154.5 312 155 Z" stroke="none" fill="#636354"></path>

<path d="M 302 143
Q 301.5 143 301 143 301 146.5 301 150 301 150.5 301 151 301.5 151 302 151 302 150.5 302 150 302 146.5 302 143 Z" stroke="none" fill="#B6781C"></path>

<path d="M 302 129
Q 301.5 129 301 129 301 135.5 301 142 301 142.5 301 143 301.5 143 302 143 302 142.5 302 142 302 140 302 138 302 137.5 302 137 302 133 302 129 Z" stroke="none" fill="#C4832A"></path>

<path d="M 303.5 127
L 303 127
Q 302.5 127 302 127 302 127.5 302 128 302 128.5 302 129 302 133 302 137 302 137.5 302 138 303.8 133.3 303.5 127 Z" stroke="none" fill="#9E5E07"></path>

<path d="M 302 123
Q 301.5 123 301 123 301 125.5 301 128 301 128.5 301 129 301.5 129 302 129 302 128.5 302 128 302 127.5 302 127 302.5 127 303 127 303 126.5 302.85 126.05 302.45 125.15 302 123 Z" stroke="none" fill="#BA7B22"></path>

<path d="M 299 113
Q 299 113.5 299 114 299.7 118.3 300.85 122.05 301 122.5 301 123 301.5 123 302 123 302 122.5 302.15 122.05 304 115.25 299 113 Z" stroke="none" fill="#AB6913"></path>

<path d="M 292 101
Q 291.5 101 291 101 295.7 106.3 298.45 113.85 298.5 114 299 114 299 113.5 299 113 299 112.5 299.15 112.05 301.25 104.35 292 101 Z" stroke="none" fill="#AC6B19"></path>

<path d="M 310 111
Q 310 110.5 310.1 110.05 310.95 106.6 308 107 307.3 110.2 309.05 110.85 309.5 111 310 111 Z" stroke="none" fill="#626254"></path>

<path d="M 308 107
Q 308 106.5 307.9 106 306.15 98.35 300 95 302.55 101.95 307.25 106.75 307.5 107 308 107
M 278 79
Q 278.75 81.75 283 81.1 283.5 81 284 81 284 80.5 283.75 80.2 282.2 78.25 278 79 Z" stroke="none" fill="#6B6350"></path>

<path d="M 222 84
Q 222 83.5 221.95 83.5 215.5 83 209 83 213.75 84.75 221 84.05 221.5 84 222 84 Z" stroke="none" fill="#D39737"></path>

<path d="M 209 73
Q 209.5 73 210 73 210 72.5 209.9 72.5 195.75 70.25 179 71 192.6 73.45 209 73 Z" stroke="none" fill="#70634D"></path>

<path d="M 232 73
Q 232 72.5 232.05 72.5 246.6 70.75 216 71 216.8 72.7 220 72.5
L 220 73
Q 225.5 73 231 73 231.5 73 232 73 Z" stroke="none" fill="#5C6156"></path>

<path d="M 197 82
Q 197 82.5 197 83 200.5 83 204 83 204.5 83 205 83 205 82.5 204.95 82.5 201 82 197 82 Z" stroke="none" fill="#B9802E"></path>

<path d="M 196 83.05
Q 196.5 83 197 83 197 82.5 197 82 196.5 82 196 82 195.5 82 195 82 194.5 82 194 82 190.5 82 187 82 190.25 83.75 196 83.05 Z" stroke="none" fill="#D19846"></path>

<path d="M 173 82
Q 173 81.5 173 81 172.5 81 172 81 168 81 164 81 166.75 82.75 172 82.05 172.5 82 173 82 Z" stroke="none" fill="#CF9834"></path>

<path d="M 173 81
Q 173 81.5 173 82 179.5 82 186 82 186.5 82 187 82 190.5 82 194 82 194.5 82 195 82 195 81.5 195 81 194.5 81 194 81.05 186.55 81.95 183 79 183 79.5 182.85 79.55 178.65 81.15 173 81 Z" stroke="none" fill="#A96F10"></path>

<path d="M 282 92
Q 281.5 92 281 92 286.1 95.9 290.3 100.75 290.5 101 291 101 291.5 101 292 101 292 100.5 291.9 100.05 290.05 92.95 282 92 Z" stroke="none" fill="#AA6A13"></path>

<path d="M 276 85
Q 275.5 85 275 84.95 272.8 84.7 264 85 264 85.5 264 86 274.05 86.95 280.2 91.75 280.5 92 281 92 281.5 92 282 92 282 91.5 282.25 91.3 285.9 88.25 276 85 Z" stroke="none" fill="#A86718"></path>

<path d="M 277 78.9
Q 277.5 79 278 79 278 78.5 277.75 78.25 274.15 74.35 266 75 270.7 77.8 277 78.9
M 261 75.05
Q 261.5 75 262 75 262 74.5 261.9 74.5 249.65 72.35 235 73 245.95 76.05 261 75.05 Z" stroke="none" fill="#6C6450"></path>

<path d="M 254 85
Q 254 84.5 253.95 84.5 247 84 240 84 245.25 85.75 253 85.05 253.5 85 254 85 Z" stroke="none" fill="#BB8231"></path>

<path d="M 255 85
Q 254.5 85 254 85 253.5 85 253 85.05 245.25 85.75 240 84 239.5 84 239 84 230.5 84 222 84 221.5 84 221 84.05 213.75 84.75 209 83 208.5 83 208 83 206.5 83 205 83 204.5 83 204 83 200.5 83 197 83 196.5 83 196 83.05 190.25 83.75 187 82 186.5 82 186 82 179.5 82 173 82 172.5 82 172 82.05 166.75 82.75 164 81 163.5 81 163 81 160 81 157 81 156.5 81 156 81.05 149.75 81.75 146 80 145.5 80 145 80 144.5 80 144 80 144 80.5 143.95 80.5 140 81 136 81 135.5 81 135 81 132.5 81 130 81 130 81.5 129.8 81.6 129 82 128 82 127.5 82 127.05 82.15 103.6 90.1 96 114 96 116 96 118 96 118.5 96 119 96 119.5 96.05 120 96.75 126.25 95 130 95 134.5 95 139 95 139.5 95 140 95 143 95 146 95 146.5 95 147 95 147.5 95.05 148 95.75 155.25 94 160 94 164.5 94 169 94 169.5 94 170 94 180 94 190 94 190.5 94 191 94 191.5 94.05 192 94.75 198.75 93 203 93 205 93 207 93 207.5 93 208 93 213 93 218 93 218.5 93 219 97.65 233.55 93.5 252.9 93.5 253 93 253 93 253.5 93 254 93 254.5 93 255 93.5 255 93.75 255.25 94 255.5 94 256 96.1 258.45 96.9 262 97 262.5 97 263 107.65 285.35 139 286.95 139.5 287 140 287 140 286.5 139.8 286.4 131.05 281.45 118 281 118 280.5 117.75 280.3 115.55 278.45 112 278 112 277.5 111.8 277.1 108.25 270.35 104 269 104 268.5 103.9 268 102.8 262.85 100 263 100 262.5 99.85 262.05 97.25 252.8 97 241 99.93046875 233.745703125 105.05 230.25 105.5599609375 231.3818359375 109 236.5
L 109 236
Q 110 225.25 121 226.95 121.5 227 122 227 126 234.5 133 234.05 133.5 234 134 234 138.55 228.55 147 227.1 147.5 227 148 227 144.05 230.75 149.15 233.8 149.5 234 150 234 157.95 232.25 164.15 236.75 164.5 237 165 237 161.9 241.95 165.8 248.15 166 248.5 166 249 169.05 250.45 172.1 251.8 172.5 252 173 252 190.3 250.7 201 251 201.5 251 202 251 210.35 237.5 215.75 245.15 216 245.5 216 246 219.05 241.05 225.75 234.75 226 234.5 226 234 232.35 227.95 235.85 239.05 236 239.5 236 240 242.85 232.35 245.8 237.15 246 237.5 246 238 257.65 240.3 248.5 235
L 249 235
Q 252.6 228.3 258.4 238.8 258.5 239 259 239 264.1 237.65 258.25 231.75 258 231.5 258 231 265.05 238.4 265.5 229
L 266 229
Q 264.8 235.3 269.25 239.75 269.5 240 270 240 275.85 234.2 270.95 235.85 270.5 236 270 236 274.5 226.75 281.75 237.15 282 237.5 282 238 288.6 239.7 288.5 233
L 289 233
Q 289.25 238.55 292.45 246.85 292.5 247 293 247 294.15 255.95 290.65 260.75 290.5 261 290 261 290.8 264.85 290.05 271 290 271.5 290 272 290.5 272 291 272 291 271.5 291 271 291 270 291 269 296.5 263.5 297 253 297 252.5 297 252 297 251.5 297 251 297 247 297 243 297.5 243 298 243 298 242.5 298 242 298 240 298 238 298 237.5 298 237 298 236.5 298 236 298 235.5 298 235 298 231 298 227 298 226.5 298 226 298 220.5 298 215 298 214.5 298 214 298 207.5 298 201 298.5 201 299 201 299 200.5 299 200 299 197.5 299 195 299 194.5 299 194 299 186.5 299 179 299.5 179 300 179 300 178.5 300 178 300 177 300 176 300 175.5 300 175 300 171 300 167 300 166.5 300 166 300 160.5 300 155 300.5 155 301 155 301 154.5 301 154 301 152.5 301 151 301 150.5 301 150 301 146.5 301 143 301 142.5 301 142 301 135.5 301 129 301 128.5 301 128 301 125.5 301 123 301 122.5 300.85 122.05 299.7 118.3 299 114 298.5 114 298.45 113.85 295.7 106.3 291 101 290.5 101 290.3 100.75 286.1 95.9 281 92 280.5 92 280.2 91.75 274.05 86.95 264 86 263.5 86 263 86.05 257.75 86.75 255 85
M 182 97
Q 179 98 175.95 98.85 175.5 99 175 99 141.15 98.3 122.15 91.55 122 91.5 122 91 207.25 76.35 279.25 102.15 280.7 102.7 279 103 274.95 106.35 272.25 102.8 272 102.5 272 102 248.55 101.75 229 102 228.5 102 228 102 209.25 97.9 187 99 186.5 99 186 99 185.2 96.2 182 97.5
L 182 97
M 168.05 121.15
Q 168.5 121 169 121 169 120.5 169 120 175.5 120 181.95 120.5 182 120.5 182 121 233.85 128.65 244.9 177 245 177.5 245 178 246.75 182.75 245.5 189.9 245.5 190 245 190 245 190.5 244.9 191 238.65 218.15 218 231 218 231.5 218 232 218 232.5 217.95 233 217.35 237.35 212 237 212 237.5 211.85 237.95 210.5 241.5 205 241 204.5 241 204.05 241.15 203 241.5 202 242 202 242.5 201.75 242.75 199.8 244.8 196 245 195.5 245 195 245 194 245 193 245 192.5 245 192 245 190.5 245 189 245 189 245.5 189.05 245.5 200.8 247 183 247 183 247.5 182.8 247.65 177.25 251.05 174 247 174 246.5 174 246 173.5 246 173.25 245.75 172.5 245 172 244 171.5 244 171.35 243.75 168.8 240.2 167 236
L 167 236.5
Q 165.25 231.25 166 223 166 222.5 166 222 166 215.5 166 209 166 208.5 166 208 166 207.5 166 207 165.5 207 165 207
L 165 207.5
Q 163.3 203.2 164 191 164 190.5 164 190 164 187 164 184 163.5 184 163.5 183.95 163 180 163 176 163 175.5 162.95 175 161.8 159.7 159 146 158.5 146 158.5 145.95 158 138 158 130 158.5 130 159 130 159 129.5 159 129 161.75 123.25 168.05 121.15
M 156.2 161.6
Q 156 161.5 156 161 162.7 165 156.2 161.6
M 125.25 228.8
Q 125 228.5 125 228 133.15 224 137.5 228
L 137 228
Q 129.35 233.65 125.25 228.8
M 161 227.5
L 161 227
Q 166.4 226.2 161 227.5
M 148 231.5
L 148 231
Q 160.85 221.75 156.55 232.85 156.5 233 156 233 152.95 230.9 148 231.5
M 228.15 229.55
Q 228 229.5 228 229 240.1 233.15 228.15 229.55 Z" stroke="none" fill="#F8C343"></path>

<path d="M 228 229
Q 228 229.5 228.15 229.55 240.1 233.15 228 229 Z" stroke="none" fill="#F7D33E"></path>

<path d="M 148 231
L 148 231.5
Q 152.95 230.9 156 233 156.5 233 156.55 232.85 160.85 221.75 148 231
M 161 227
L 161 227.5
Q 166.4 226.2 161 227
M 125 228
Q 125 228.5 125.25 228.8 129.35 233.65 137 228
L 137.5 228
Q 133.15 224 125 228 Z" stroke="none" fill="#F8D33E"></path>

<path d="M 156 161
Q 156 161.5 156.2 161.6 162.7 165 156 161
M 186 217
Q 186 217.5 186.15 217.95 189.05 226.15 186 217 Z" stroke="none" fill="#F7C735"></path>

<path d="M 202 242
Q 201.5 242 201.1 242.2 198.95 243.45 196 244 196 244.5 196 245 199.8 244.8 201.75 242.75 202 242.5 202 242 Z" stroke="none" fill="#7C6624"></path>

<path d="M 189 243
Q 189 243.5 189 244 189 244.5 189 245 190.5 245 192 245 192.5 245 193 245 193 244.5 193.25 244.15 194.4 242.55 189 243 Z" stroke="none" fill="#210E00"></path>

<path d="M 182 247
Q 181.5 247 181 247 177.5 247 174 247 177.25 251.05 182.8 247.65 183 247.5 183 247 182.5 247 182 247 Z" stroke="none" fill="#E8CE76"></path>

<path d="M 182 246
Q 182 246.5 182 247 182.5 247 183 247 200.8 247 189.05 245.5 189 245.5 189 245 188.5 245 188.1 244.8 187.5 244.5 187 244 186.5 244 186.2 244.25 184.55 245.55 182 246 Z" stroke="none" fill="#DFC57B"></path>

<path d="M 182 244
Q 182 244.5 182 245 182 245.5 182 246 184.55 245.55 186.2 244.25 186.5 244 187 244 187 243.5 187 243 186.5 243 186 243.1 184 243.5 182 244 Z" stroke="none" fill="#453107"></path>

<path d="M 176 246
Q 175 246 174 246 174 246.5 174 247 177.5 247 181 247 181.5 247 182 247 182 246.5 182 246 181.5 246 181 246 179 246 177 246 176.5 246 176 246 Z" stroke="none" fill="#79622E"></path>

<path d="M 177 246
Q 177 245.5 176.75 245.15 175.1 242.55 172 244 172.5 245 173.25 245.75 173.5 246 174 246 175 246 176 246 176.5 246 177 246 Z" stroke="none" fill="#2D1400"></path>

<path d="M 167 223
Q 166.5 223 166 223 165.25 231.25 167 236.5
L 167 236
Q 167 235.5 167 235 167 229 167 223 Z" stroke="none" fill="#C4AA67"></path>

<path d="M 166 209
Q 166 215.5 166 222 166 222.5 166 223 166.5 223 167 223 167 222.5 167.1 222 168.65 214.9 166 209 Z" stroke="none" fill="#3E2908"></path>

<path d="M 166 207
Q 166 206.5 166.05 206 166.75 200.25 165 197 165 201.5 165 206 165 206.5 165 207 165.5 207 166 207 Z" stroke="none" fill="#563800"></path>

<path d="M 212 237
Q 211.5 237 211 237 210.5 237 210.25 237.25 208.3 239.3 205 240 205 240.5 205 241 210.5 241.5 211.85 237.95 212 237.5 212 237 Z" stroke="none" fill="#D3B766"></path>

<path d="M 217.95 233
Q 218 232.5 218 232 217.5 232 217.2 232.25 214.5 234.5 211 236 211 236.5 211 237 211.5 237 212 237 217.35 237.35 217.95 233 Z" stroke="none" fill="#CFB465"></path>

<path d="M 159 130
Q 158.5 130 158 130 158 138 158.5 145.95 158.5 146 159 146 159 145.5 159 145 159 137.5 159 130 Z" stroke="none" fill="#C2A358"></path>

<path d="M 245 190
Q 245.5 190 245.5 189.9 246.75 182.75 245 178 245 183.5 245 189 245 189.5 245 190 Z" stroke="none" fill="#775812"></path>

<path d="M 165 191
Q 164.5 191 164 191 163.3 203.2 165 207.5
L 165 207
Q 165 206.5 165 206 165 201.5 165 197 165 196.5 165 196 165 193.5 165 191 Z" stroke="none" fill="#C0A56A"></path>

<path d="M 164 184
Q 164 183.5 164.05 183 164.75 178.25 163 176 163 180 163.5 183.95 163.5 184 164 184 Z" stroke="none" fill="#7C590D"></path>

<path d="M 182 121
Q 182 120.5 181.95 120.5 175.5 120 169 120 169 120.5 169 121 175 121 181 121 181.5 121 182 121 Z" stroke="none" fill="#B17F25"></path>

<path d="M 206 132
Q 206 131.5 205.9 131.5 200.8 130.35 193 129 193 128.5 192.75 128.35 190.25 126.75 188 125 187.5 125 187 125 176.2 124.95 171 123 170.5 123 170.45 123.15 168.85 127.45 162 131 161.35 150.65 165.85 165.05 166 165.5 166 166 165.45 175.65 165 190 165 190.5 165 191 165 193.5 165 196 165 196.5 165 197 166.75 200.25 166.05 206 166 206.5 166 207 166 207.5 166 208 166 208.5 166 209 168.65 214.9 167.1 222 167 222.5 167 223 167 229 167 235 167 235.5 167 236 168.8 240.2 171.35 243.75 171.5 244 172 244 175.1 242.55 176.75 245.15 177 245.5 177 246 179 246 181 246 181.5 246 182 246 182 245.5 182 245 182 244.5 182 244 184 243.5 186 243.1 186.5 243 187 243 187.5 243 187.95 242.85 207.2 236.7 222 226 222 225.5 222.1 225 223.3 219.3 225 219 225.5 219 225.75 218.75 232.95 211.45 239 203
L 239.5 203
Q 237 199.45 241 196
L 240.5 196
Q 242.55 184.05 241 171 240.5 171 240.4 170.8 228.45 143.7 206 132
M 210.2 145.75
Q 210.5 146 211 146 215 144.85 214.15 148.05 214 148.5 214 149 222.2 158.3 226.85 171.05 227 171.5 227 172 230.15 178.8 228.5 189.95 228.5 190 228 190 228 190.5 227.85 190.95 226.6 195.6 224 199 224 199.5 224 200 224 200.5 224 201 224 201.5 224 202 224.15 208.65 218 209 218 209.5 217.75 209.75 217.5 210 217 210 217 210.5 216.75 210.8 212.9 215.4 208 219 208 219.5 207.75 219.75 202.95 224.95 196 228 196 228.5 195.8 228.6 195 229 194 229 194 229.5 194 230 194 230.5 193.8 230.6 190 232.45 188 231 187.5 231 187.05 231.1 183.6 231.95 184 229 183.5 229 183 229.05 181.4 229.15 182 227 183.7 226.7 183.1 224 183 223.5 183 223 182.5 223 182.5 222.95 182 217 182 211 181.5 211 181.5 210.9 179.65 201.85 180 191 180 190.5 180 190 180 186.5 180 183 180 182.5 180 182 179.5 182 179 182 178.5 182 178.5 181.95 178.2 179.3 177 178 178.75 174.75 178.05 169 178 168.5 178 168 178 167.5 178 167 177.5 167 177.5 166.95 177 163 177 159 176.5 159 176.5 158.95 176 153 176 147 175.5 147 175.5 146.95 175 143 175 139 175 138.5 175 138 175 135.5 175 133 176.5 133 177.85 133.45 178 133.5 178 134 179.5 134 181 134 181.5 134 182 134 184.7 133.3 185.4 134.8 185.5 135 186 135 189.25 135.75 192.9 136.5 193 136.5 193 137 203.25 139.75 210.2 145.75 Z" stroke="none" fill="#120405"></path>

<path d="M 184.8 228.1
Q 184.5 227.5 184 227 184 227.5 184 228 184 228.5 184 229 183.6 231.95 187.05 231.1 187.5 231 188 231 188.5 231 188.75 230.75 189 230.5 189 230 188.5 230 188 230.1 185.3 230.7 185 229 185 228.5 184.8 228.1 Z" stroke="none" fill="#7F6724"></path>

<path d="M 184 223
Q 183.5 223 183 223 183 223.5 183.1 224 183.7 226.7 182 227 181.4 229.15 183 229.05 183.5 229 184 229 184 228.5 184 228 184 227.5 184 227 184 226.5 184 226 184 224.5 184 223 Z" stroke="none" fill="#3F2801"></path>

<path d="M 194 230
Q 193.5 230 193 230 191 230 189 230 189 230.5 188.75 230.75 188.5 231 188 231 190 232.45 193.8 230.6 194 230.5 194 230 Z" stroke="none" fill="#3C2800"></path>

<path d="M 196 228
Q 195.5 228 195.05 228.15 190.95 229.45 185 229 185.3 230.7 188 230.1 188.5 230 189 230 191 230 193 230 193.5 230 194 230 194 229.5 194 229 195 229 195.8 228.6 196 228.5 196 228 Z" stroke="none" fill="#C8AE60"></path>

<path d="M 181.5 201.95
Q 181.5 202 182 202 182 201.5 182.05 201 182.75 196.25 181 194 181 198 181.5 201.95 Z" stroke="none" fill="#A18744"></path>

<path d="M 184 219
Q 184 218.5 184.05 218 184.75 212.25 183 209 183 214 183.5 218.95 183.5 219 184 219 Z" stroke="none" fill="#DFBF6B"></path>

<path d="M 183 209
Q 183 208.5 182.8 208.1 182.5 207.5 182 207 182 208.5 182 210 182 210.5 182 211 182 217 182.5 222.95 182.5 223 183 223 183.5 223 184 223 184 222.5 184 222 184 220.5 184 219 183.5 219 183.5 218.95 183 214 183 209 Z" stroke="none" fill="#694D07"></path>

<path d="M 217 210
L 217 209.5
Q 212.7 213.2 208 217 208 217.5 208 218 208 218.5 208 219 212.9 215.4 216.75 210.8 217 210.5 217 210 Z" stroke="none" fill="#D8B963"></path>

<path d="M 224 201
Q 223.5 201 223.45 201.15 222.05 206.05 218 208 218 208.5 218 209 224.15 208.65 224 202 224 201.5 224 201 Z" stroke="none" fill="#4B2A06"></path>

<path d="M 228 189
Q 228 189.5 228 190 228.5 190 228.5 189.95 230.15 178.8 227 172 228.35 179.65 228 189 Z" stroke="none" fill="#553A05"></path>

<path d="M 181 190
Q 181 190.5 181 191 181 192 181 193 181 193.5 181 194 182.75 196.25 182.05 201 182 201.5 182 202 182 204 182 206 182 206.5 182 207 182.5 207.5 182.8 208.1 183 208.5 183 209 184.75 212.25 184.05 218 184 218.5 184 219 184 220.5 184 222 184 222.5 184 223 184 224.5 184 226 184 226.5 184 227 184.5 227.5 184.8 228.1 185 228.5 185 229 190.95 229.45 195.05 228.15 195.5 228 196 228 202.95 224.95 207.75 219.75 208 219.5 208 219 208 218.5 208 218 208 217.5 208 217 208 216.5 208.15 216.05 210.75 207.15 219 203
L 219.5 203
Q 219.15 195.85 218 195 218 194.5 217.9 194.45 207.75 192.05 215 196
L 215.5 196
Q 213.7671875 197.955078125 212.65 199.25 207.112109375 194.2919921875 201 193 201 193.5 200.75 193.85 198.45 197.35 196 199 196 198.5 195.85 198.05 193.95 192.1 192 188
L 192 187.5
Q 187.15 196.6 181 184 181 187 181 190
M 202.05 198.5
Q 202 198.5 202 198 212 199.7 202.05 198.5
M 198.15 200.55
Q 198 200.5 198 200 211 205.45 198.15 200.55
M 186.15 217.95
Q 186 217.5 186 217 189.05 226.15 186.15 217.95 Z" stroke="none" fill="#F6CA41"></path>

<path d="M 198 200
Q 198 200.5 198.15 200.55 211 205.45 198 200 Z" stroke="none" fill="#F8C33D"></path>

<path d="M 202 198
Q 202 198.5 202.05 198.5 212 199.7 202 198 Z" stroke="none" fill="#F9C33D"></path>

<path d="M 181 191
Q 180.5 191 180 191 179.65 201.85 181.5 210.9 181.5 211 182 211 182 210.5 182 210 182 208.5 182 207 182 206.5 182 206 182 204 182 202 181.5 202 181.5 201.95 181 198 181 194 181 193.5 181 193 181 192 181 191 Z" stroke="none" fill="#3D2400"></path>

<path d="M 179 182
Q 179.5 182 180 182 180 181.5 180.05 181 180.75 175.75 179 173 179 177 179 181 179 181.5 179 182 Z" stroke="none" fill="#A08450"></path>

<path d="M 180.75 183.25
Q 180.5 183 180 183 180 186.5 180 190 180 190.5 180 191 180.5 191 181 191 181 190.5 181 190 181 187 181 184 181 183.5 180.75 183.25 Z" stroke="none" fill="#BB8C1D"></path>

<path d="M 178 167
Q 178 166.5 178.05 166 178.75 161.25 177 159 177 163 177.5 166.95 177.5 167 178 167 Z" stroke="none" fill="#412B01"></path>

<path d="M 178 168
Q 178 168.5 178.05 169 178.75 174.75 177 178 178.2 179.3 178.5 181.95 178.5 182 179 182 179 181.5 179 181 179 177 179 173 179 172.5 179.1 172 179.7 168.8 178 168 Z" stroke="none" fill="#482E02"></path>

<path d="M 193 137
Q 193 136.5 192.9 136.5 189.25 135.75 186 135 187.55 137.45 192 137.05 192.5 137 193 137 Z" stroke="none" fill="#B5995A"></path>

<path d="M 176 146
Q 176 146.5 176 147 176 153 176.5 158.95 176.5 159 177 159 177 158.5 177.05 158 177.75 150.75 176 146 Z" stroke="none" fill="#583803"></path>

<path d="M 176 139
Q 175.5 139 175 139 175 143 175.5 146.95 175.5 147 176 147 176 146.5 176 146 176 145.5 176 145 176 144 176 143 176 142.5 176 142 176 140.5 176 139 Z" stroke="none" fill="#3A2B0B"></path>

<path d="M 178 134
Q 177.5 134 177 134 176.5 134 176 134 176 136 176 138 176 138.5 176 139 176 140.5 176 142 176 142.5 176 143 177.3 137.3 181.8 134.65 182 134.5 182 134 181.5 134 181 134 179.5 134 178 134 Z" stroke="none" fill="#D9BA72"></path>

<path d="M 177 134
Q 177.5 134 178 134 178 133.5 177.85 133.45 176.5 133 175 133 175 135.5 175 138 175 138.5 175 139 175.5 139 176 139 176 138.5 176 138 176 136 176 134 176.5 134 177 134 Z" stroke="none" fill="#69542C"></path>

<path d="M 214.15 148.05
Q 215 144.85 211 146 212 147.5 213.25 148.75 213.5 149 214 149 214 148.5 214.15 148.05 Z" stroke="none" fill="#341400"></path>

<path d="M 211 146
Q 210.5 146 210.2 145.75 203.25 139.75 193 137 192.5 137 192 137.05 187.55 137.45 186 135 185.5 135 185.4 134.8 184.7 133.3 182 134 182 134.5 181.8 134.65 177.3 137.3 176 143 176 144 176 145 176 145.5 176 146 177.75 150.75 177.05 158 177 158.5 177 159 178.75 161.25 178.05 166 178 166.5 178 167 178 167.5 178 168 179.7 168.8 179.1 172 179 172.5 179 173 180.75 175.75 180.05 181 180 181.5 180 182 180 182.5 180 183 180.5 183 180.75 183.25 181 183.5 181 184 187.15 196.6 192 187.5
L 192 188
Q 193.95 192.1 195.85 198.05 196 198.5 196 199 198.45 197.35 200.75 193.85 201 193.5 201 193 207.112109375 194.2919921875 212.65 199.25 213.7671875 197.955078125 215.5 196
L 215 196
Q 207.75 192.05 217.9 194.45 218 194.5 218 195 219.15 195.85 219.5 203
L 219 203
Q 210.75 207.15 208.15 216.05 208 216.5 208 217 212.7 213.2 217 209.5
L 217 210
Q 217.5 210 217.75 209.75 218 209.5 218 209 218 208.5 218 208 222.05 206.05 223.45 201.15 223.5 201 224 201 224 200.5 224 200 224 199.5 224 199 226.6 195.6 227.85 190.95 228 190.5 228 190 228 189.5 228 189 228.35 179.65 227 172 227 171.5 226.85 171.05 222.2 158.3 214 149 213.5 149 213.25 148.75 212 147.5 211 146
M 182.25 181.85
Q 182 181.5 182 181 187.5 189.25 182.25 181.85
M 220.15 176.55
Q 220 176.5 220 176 227.2 178.85 220.15 176.55
M 224.2 177.9
Q 224 177.5 224 177 227.05 184.25 224.2 177.9 Z" stroke="none" fill="#F4C042"></path>

<path d="M 224 177
Q 224 177.5 224.2 177.9 227.05 184.25 224 177
M 220 176
Q 220 176.5 220.15 176.55 227.2 178.85 220 176
M 182 181
Q 182 181.5 182.25 181.85 187.5 189.25 182 181 Z" stroke="none" fill="#F9CB3E"></path>

<path d="M 205.9 131.5
Q 206 131.5 206 132 228.45 143.7 240.4 170.8 240.5 171 241 171 242.55 184.05 240.5 196
L 241 196
Q 237 199.45 239.5 203
L 239 203
Q 232.95 211.45 225.75 218.75 225.5 219 225 219 223.3 219.3 222.1 225 222 225.5 222 226 207.2 236.7 187.95 242.85 187.5 243 187 243 187 243.5 187 244 187.5 244.5 188.1 244.8 188.5 245 189 245 189 244.5 189 244 189 243.5 189 243 194.4 242.55 193.25 244.15 193 244.5 193 245 194 245 195 245 195.5 245 196 245 196 244.5 196 244 198.95 243.45 201.1 242.2 201.5 242 202 242 203 241.5 204.05 241.15 204.5 241 205 241 205 240.5 205 240 208.3 239.3 210.25 237.25 210.5 237 211 237 211 236.5 211 236 214.5 234.5 217.2 232.25 217.5 232 218 232 218 231.5 218 231 238.65 218.15 244.9 191 245 190.5 245 190 245 189.5 245 189 245 183.5 245 178 245 177.5 244.9 177 233.85 128.65 182 121 181.5 121 181 121 175 121 169 121 168.5 121 168.05 121.15 161.75 123.25 159 129 159 129.5 159 130 159 137.5 159 145 159 145.5 159 146 161.8 159.7 162.95 175 163 175.5 163 176 164.75 178.25 164.05 183 164 183.5 164 184 164 187 164 190 164 190.5 164 191 164.5 191 165 191 165 190.5 165 190 165.45 175.65 166 166 166 165.5 165.85 165.05 161.35 150.65 162 131 168.85 127.45 170.45 123.15 170.5 123 171 123 176.2 124.95 187 125 187.5 125 188 125 190.25 126.75 192.75 128.35 193 128.5 193 129 200.8 130.35 205.9 131.5 Z" stroke="none" fill="#2E1002"></path>

<path d="M 175.95 98.85
Q 179 98 182 97
L 182 97.5
Q 185.2 96.2 186 99 186.5 99 187 99 209.25 97.9 228 102 228.5 102 229 102 248.55 101.75 272 102 272 102.5 272.25 102.8 274.95 106.35 279 103 280.7 102.7 279.25 102.15 207.25 76.35 122 91 122 91.5 122.15 91.55 141.15 98.3 175 99 175.5 99 175.95 98.85 Z" stroke="none" fill="#FFDE6E"></path>

<path d="M 258 85
Q 257.5 85 257 85 256 85 255 85 257.75 86.75 263 86.05 263.5 86 264 86 264 85.5 264 85 263.5 85 263 85 260.5 85 258 85 Z" stroke="none" fill="#D49940"></path>

<path d="M 257 85
Q 257.5 85 258 85 258 84.5 257.95 84.5 232.1 81.3 195 81 195 81.5 195 82 195.5 82 196 82 196.5 82 197 82 201 82 204.95 82.5 205 82.5 205 83 206.5 83 208 83 208.5 83 209 83 215.5 83 221.95 83.5 222 83.5 222 84 230.5 84 239 84 239.5 84 240 84 247 84 253.95 84.5 254 84.5 254 85 254.5 85 255 85 256 85 257 85 Z" stroke="none" fill="#A46510"></path>

<path d="M 262 75
Q 261.5 75 261 75.05 245.95 76.05 235 73 234.5 73 234 73 233 73 232 73 231.5 73 231 73 225.5 73 220 73 219.5 73 219 73 214.5 73 210 73 209.5 73 209 73 192.6 73.45 179 71 178.5 71 178 71 177.5 71 177 71 154.5 71 132 71 131.5 71 131 71 129 71 127 71 127 71.5 126.75 71.7 124.55 73.55 120 73 120 73.5 119.85 73.95 119.2 75.7 116 75 116 75.5 115.75 75.75 113.4 78.4 109 79 109 79.5 108.75 79.8 107.1 82.1 104 83 104 83.5 103.75 83.8 101.3 86.8 98 89 98 89.5 97.9 89.95 97.2 92.7 94 93 94 93.5 93.8 93.9 91.95 98.45 88 101 88 102.5 88 104 88 104.5 88 105 88 105.5 88.05 106 88.55 109.55 86 110 86 111 86 112 86 112.5 86 113 86 113.5 86.1 114 87.2 118.7 84 119 84 129 84 139 84 139.5 84 140 84 149 84 158 84 158.5 84 159 84 159.5 84.05 160 85.45 176.9 82 184 82 187.5 82 191 82 191.5 82 192 82 199 82 206 82 206.5 82 207 82 210.5 82 214 82 214.5 82 215 82 218.5 82 222 82 222.5 82 223 82 237 82 251 82 251.5 82 252 84.55 252.45 85.75 254.15 86 254.5 86 255 86.5 255 86.6 255.2 88.85 259.75 85 261 85 261.5 85 262 86.7 263.75 86.05 268 86 268.5 86 269 88.8 270.75 89.85 274.05 90 274.5 90 275 92.35 275.65 92.9 278 93 278.5 93 279 93.5 279 94 279 97.3 281.2 99.75 284.2 100 284.5 100 285 102.7 285.8 103.8 288.1 104 288.5 104 289 108.6 289.9 111.75 292.3 112 292.5 112 293 115.2 292.3 115.85 294.05 116 294.5 116 295 119.2 294.3 119.85 296.05 120 296.5 120 297 120.5 297 121 297 121.5 297 122 297 125.5 297 129 297 129.5 297 130 297 130 296.5 130 296 130 295.5 130 295 134.2 294.25 135.75 296.2 136 296.5 136 297 138.5 297 141 297 141.5 297 142 297 142 296.5 142 296 142 295.5 142 295 143.05 295.95 144.85 296.45 145 296.5 145 297 145.5 297 146 297 147.95 289.95 157 290 157.5 290 158 290
L 158 289.5
Q 155.9 289.65 156 288 155.5 288 155 288
L 155 288.5
Q 139.45 288.5 127 289 126.5 289 126.45 288.85 125.7 286.4 120 287 120 286.5 119.8 286.35 109.1 279.8 103 278 103 277.5 102.75 277.3 95.25 270.75 92 255 91.5 255 91.5 254.95 89.3 240.2 90 223 90.5 223 91 223 91 222.5 91 222 91 217 91 212 91.5 212 92 212 92 211.5 92 211 92 209.5 92 208 92 207.5 92.05 207 92.55 202.45 91 200 92.7 198.2 92.05 194 92 193.5 92 193 92 192.5 91.8 192.1 90.45 189.55 91 185 92.65 184.9 92.5 187
L 93 187
Q 93 186.5 93 186 93 178 93 170 93 169.5 93.05 169 93.65 162.1 91 155 92.55 152.55 93.45 149.1 93.5 149 94 149 94 148.5 94 148 94 147.5 94 147 94 146.5 94.05 146 94.25 141.75 92 140 92.5 140 93 140 93.5 140 94 140 94 139.5 93.85 139.05 93.5 138 93 137 94.75 129.25 94.5 119
L 95 119
Q 95 118.5 94.95 118 94.8 115.2 94 113 101.6 92.75 116.15 83.25 116.5 83 117 83 120.9 80.9 127.95 81.5 128 81.5 128 82 129 82 129.8 81.6 130 81.5 130 81 130 80.5 130 80 130 79.5 130 79 140.85 78.75 147.95 79.5 148 79.5 148 80 152.5 80 156.95 80.5 157 80.5 157 81 160 81 163 81 163.5 81 164 81 168 81 172 81 172.5 81 173 81 178.65 81.15 182.85 79.55 183 79.5 183 79 186.55 81.95 194 81.05 194.5 81 195 81 232.1 81.3 257.95 84.5 258 84.5 258 85 260.5 85 263 85 263.5 85 264 85 272.8 84.7 275 84.95 275.5 85 276 85 285.9 88.25 282.25 91.3 282 91.5 282 92 290.05 92.95 291.9 100.05 292 100.5 292 101 301.25 104.35 299.15 112.05 299 112.5 299 113 304 115.25 302.15 122.05 302 122.5 302 123 302.45 125.15 302.85 126.05 303 126.5 303 127
L 303.5 127
Q 303.8 133.3 302 138 302 140 302 142 302 142.5 302 143 302 146.5 302 150 302 150.5 302 151 302 154.5 302 158 302 158.5 302 159 302 159.5 302.05 160 303.35 170.35 300 176 300 177 300 178 300 178.5 300 179 300 181.5 300 184 300 184.5 300 185 303.8 186.25 300.7 189.75 300.5 190 300 190 300 192 300 194 300 194.5 300 195 300 195.5 300.05 196 301.19453125 216.4849609375 299.25 230.8 299.246875 233.0267578125 298.65 234.65 298.35390625 236.376953125 298 238 298 240 298 242 298 242.5 298 243 298 247 298 251 298 251.5 298 252 301.3 255.1 298.2 260.15 298 260.5 298 261 299.65 259.65 303 259.95 303.5 260 304 260 304 259.5 304 259 304 258 304 257 307.15 256.65 307.5 253.05 307.5 253 308 253 308 252.5 308 252 308 246.5 308 241 308.5 241 309 241 309.5 241 310 241 310 240.5 310 240 310 239.5 310 239 310 238.5 310 238 310 229.5 310 221 310 220.5 310 220 310 219.5 310 219 310 218.5 310 218 310 196.5 310 175 310.5 175 311 175 311.5 175 312 175 312 174.5 312 174 312 164.5 312 155 312 154.5 312 154 312 140.5 312 127 312 126.5 312 126 312.45 117.05 310 111 309.5 111 309.05 110.85 307.3 110.2 308 107 307.5 107 307.25 106.75 302.55 101.95 300 95 299.5 95 299.15 94.75 295.05 91.95 293 87 292.5 87 292.05 86.9 286.45 85.55 284 81 283.5 81 283 81.1 278.75 81.75 278 79 277.5 79 277 78.9 270.7 77.8 266 75 265.5 75 265 75 263.5 75 262 75 Z" stroke="none" fill="#9D612A"></path>
</g>
</g>
</g>
</g>
</g>
</svg>
