
<svg viewBox="0 0 112 184" height="184px" width="112px" y="0px" x="0px" preserveAspectRatio="none" xmlns:xlink="http://www.w3.org/1999/xlink" version="1.1" xmlns="http://www.w3.org/2000/svg">
<defs></defs>

<g id="fun_scrollers">
<g transform="matrix( 0.3621063232421875, 0, 0, 0.3621063232421875, -594.2,0.1)" id="svg"></g>

<g transform="matrix( 0.3621063232421875, 0, 0, 0.3621063232421875, -594.2,0.1)" id="Layer_2"></g>

<g transform="matrix( 0.3621063232421875, 0, 0, 0.3621063232421875, -594.2,0.1)" id="Layer_3"></g>

<g transform="matrix( 0.3621063232421875, 0, 0, 0.3621063232421875, -594.2,0.1)" id="Layer_2">
<g>
<g>
<g>
<path d="M 1931.1 104.7
L 1931.1 102.6 1931.15 100.2 1930.8 100.2 1930.15 100.2
Q 1931 104.85 1931.05 107 1931.2 110.55 1930.2 113.7 1925.85 114.9 1923.9 115.15
L 1923.9 115.6
Q 1925.6416015625 115.896484375 1927.4 116.55 1928.0287109375 116.778125 1928.65 117.05
L 1931.2 118.5
Q 1934.3005859375 120.2818359375 1936.95 122.25
L 1936.95 113
Q 1933.9619140625 111.353125 1932.15 109.8 1931.9458984375 109.2603515625 1931.8 108.8 1931.40625 107.775 1931.3 107.35 1931.2 106.7 1931.1 104.7
M 1831.15 104.5
L 1830.6 104.5 1830.15 104.5 1830.15 109.3 1828.25 109.3
Q 1819.15 113.45 1813.85 116.7 1806.3 121.35 1801.55 126.9 1797.55 132.6 1795.75 140 1794.25 146.1 1794.15 154.25
L 1793.9 203.25
Q 1793.95 214.6 1793.75 237.05
L 1793.65 255.35
Q 1793.55 271.9 1793.5 274.75 1793.35 285.75 1792.95 294.2 1792.4 304 1792.6 316.8 1792.85 340.7 1792.45 359.05 1791.85 388.8 1791.85 407.15
L 1791.85 426.55
Q 1791.85 435.35 1793 440.35 1795.55 447.2 1801.6 452.3 1805.25 454.1 1809.55 455.05 1812.95 455.7 1817.8 456.05
L 1884.05 457.1
Q 1900.8 457.4 1907.45 457.25 1920.6 456.95 1930.75 455.2 1934.106640625 454.3337890625 1936.95 453
L 1936.95 443.2 1935.55 444.65 1933.8 448.15 1933.65 448.45
Q 1933.29375 448.516015625 1932.9 448.55 1928.11328125 449.368359375 1919.45 449.6
L 1853.95 449.9
Q 1839.65 450.2 1832.45 450.15 1819.95 450 1811.1 448.15 1808.05 447.25 1806.45 446.05 1804.8 444.95 1802.8 442.35 1800.45 437.95 1799.45 434.6 1798.4 430.85 1798.35 426.25
L 1798.55 387.9
Q 1798.65 379.75 1798.65 375.7
L 1799.4 302.6
Q 1799.9 245.6 1800.4 223.75 1800.9 206.25 1800.9 193.65
L 1801.1 157.05
Q 1801.05 150.95 1801.25 148.45 1801.55 143.85 1802.85 140.1
L 1804.35 137.35
Q 1812.55 127.7 1815.9 125.1 1819.18515625 122.51171875 1830.7 116.75 1830.7478515625 116.726171875 1830.8 116.7
L 1834.1 115.1
Q 1832.85 114.75 1831.2 114.1
L 1830.9 111.95
Q 1830.9 111.85 1831.15 104.5 Z" stroke="none" fill="#706C84"></path>

<path d="M 1933.2 399.65
Q 1931.45 399.55 1924.2 399.9
L 1908.2 400.4
Q 1898.65 400.7 1883.8 400.15 1875.8 399.85 1868 399.75 1861.4 399.8 1854.65 399.55 1845.6 399.2 1841.1 399.15
L 1836.05 399.15
Q 1829.6 398.75 1827.75 398.9 1823.3 399.1 1819.95 400.9 1818.5 403.85 1818.15 404.95 1817.8 406.05 1817.35 409.55 1817.7 413.1 1818 414.2 1818.35 415.25 1820 418.2 1823.75 420.05 1826.45 420.25 1829.15 420.45 1841.7 420
L 1849.55 419.8
Q 1859.85 419.75 1870.1 419.4 1881.9 419 1891.35 418.9 1912.45 418.55 1922.95 418.25
L 1926.45 418.15
Q 1931.0921875 418.1015625 1936.95 417.7
L 1936.95 400.75
Q 1934.5876953125 399.80859375 1933.2 399.65
M 1928.6 239.25
L 1919.5 239.45
Q 1910.35 239.55 1903.45 240.1 1891.95 241.05 1876.2 241.15
L 1867.6 241.2
Q 1866.3 241.2 1844.2 241 1827 240.8 1826.8 241.2 1824.55 252.8 1828 260.35 1831.8 262.45 1833.75 262.7 1835.7 263 1843.8 262.5 1845.7 262.3 1849.55 262.2 1857.85 262.05 1864.5 261.65 1869.65 261.4 1880 261.05 1894.65 260.65 1897.6 260.5
L 1905.55 260.15
Q 1909.5 259.95 1913.55 259.95
L 1914.55 261.9
Q 1925.6 263.35 1933.8 261.8
L 1935.05 259.45
Q 1935 257.2 1934.95 256.4 1934.85 255.65 1934.5 253.35
L 1933.75 250.3
Q 1932.9 243.7 1930.8 239.75
L 1928.6 239.25 Z" stroke="none" fill="#9DAEEA"></path>

<path d="M 1816.4 168.05
Q 1816.45 168.8 1817.05 171
L 1820.8 172.6 1825.7 173.9
Q 1832.35 176.9 1836.3 178.25 1842.25 180.35 1847.45 180.75 1855.05 181.15 1863.25 183.9 1871.85 187 1876.4 186.75 1880.85 186.6 1899.25 182.45
L 1912.85 179.35
Q 1922.45 177.2 1930.9 176.8 1933.3 176.8 1933.95 176.75 1934.65 176.65 1936.35 176.25
L 1936.35 171.45 1936.95 171.45 1936.95 165.7 1932.45 165.7 1932.2 165.7
Q 1929.6625 165.95 1928.85 165.95 1928.1 165.95 1926.05 165.8
L 1917.35 165.2
Q 1909.7 164.75 1902.95 164.75
L 1900.2 164.7
Q 1886.45 164.6 1872.65 164.7
L 1825.25 164.6
Q 1820.95 164.45 1817 165.2 1816.4 167.35 1816.4 168.05 Z" stroke="none" fill="#992A3F"></path>

<path d="M 1827.2 135.15
Q 1826.8 135.2 1826.45 135.2 1826.1 135.2 1825.85 135.2 1825.6 135.2 1825.4 135.2 1825.2 135.2 1825.05 135.2 1824.2 135.35 1823.4 135.5 1822.55 135.7 1821.75 135.95 1821.251953125 136.1056640625 1820.8 136.3
L 1819.75 136.3 1818.8 137.3 1818.8 137.35
Q 1818.45 138.65 1818.2 140.05 1817.65 142.8 1817.3 145.55 1817.15 146.9 1817.1 148.3 1817 149.75 1817.05 151.2 1817.05 152.55 1817.15 154 1817.2 155.45 1817.4 156.95 1817.6 158.4 1817.9 159.8 1818 160.2 1818.2 160.6 1818.3 160.85 1818.45 161.2 1818.5 161.35 1818.6 161.5 1818.65 161.55 1818.7 161.6 1818.8 161.7 1818.95 161.8 1819.1 161.9 1819.25 162 1819.5 162.15 1819.75 162.3 1819.95 162.45 1820.3 162.5 1821 162.85 1821.85 163.1
L 1856.55 162.95
Q 1861.95 162.75 1867.4 162.65 1870.05 162.6 1872.7 162.65 1875.3 162.65 1877.9 162.65 1880.7 162.65 1883.7 162.95 1885.4 162.9 1887.05 162.95 1887.8 162.95 1888.55 163 1889.2 163 1889.85 163 1890.95 162.95 1892.05 162.95 1893.65 162.95 1895.25 162.95 1896.7 162.85 1898.15 162.8 1899.5 162.75 1900.9 162.75 1902.15 162.7 1903.4 162.65 1904.55 162.65 1905.7 162.65 1906.75 162.6 1907.8 162.5 1908.75 162.45 1909.75 162.45 1910.55 162.35 1911.35 162.3 1916.65 162.15 1922 161.9 1923.25 161.85 1924.55 161.85 1925.75 161.8 1927 161.8 1928.15 161.8 1929.3 161.8 1930.35 161.8 1931.45 161.85 1931.95 161.85 1932.45 161.95
L 1932.45 165.7 1936.95 165.7 1936.95 138.6
Q 1936.53359375 138.2802734375 1936.1 137.95 1935.45 137.55 1934.8 137.3 1933.95 137.05 1933.2 136.85 1932.35 136.7 1931.5 136.55 1930.6 136.4 1929.75 136.25 1928.8 136.1 1927.95 136.05 1926.95 135.9 1926 135.8 1924.95 135.7 1923.95 135.65 1922.85 135.6 1921.8 135.6
L 1831.85 135.15
Q 1831.1 135.15 1830.45 135.15 1829.8 135.15 1829.2 135.15 1828.65 135.15 1828.15 135.15 1827.65 135.15 1827.2 135.15 Z" stroke="none" fill="#110F1A"></path>

<path d="M 1831.2 116.6
Q 1830.9650390625 116.6587890625 1830.7 116.75 1819.18515625 122.51171875 1815.9 125.1 1812.55 127.7 1804.35 137.35
L 1802.85 140.1
Q 1801.55 143.85 1801.25 148.45 1801.05 150.95 1801.1 157.05
L 1800.9 193.65
Q 1800.9 206.25 1800.4 223.75 1799.9 245.6 1799.4 302.6
L 1798.65 375.7
Q 1798.65 379.75 1798.55 387.9
L 1798.35 426.25
Q 1798.4 430.85 1799.45 434.6 1800.45 437.95 1802.8 442.35 1804.8 444.95 1806.45 446.05 1808.05 447.25 1811.1 448.15 1819.95 450 1832.45 450.15 1839.65 450.2 1853.95 449.9
L 1919.45 449.6
Q 1928.11328125 449.368359375 1932.9 448.55 1933.3716796875 448.380078125 1933.8 448.15
L 1935.55 444.65 1936.95 443.2 1936.95 417.7
Q 1931.0921875 418.1015625 1926.45 418.15
L 1922.95 418.25
Q 1912.45 418.55 1891.35 418.9 1881.9 419 1870.1 419.4 1859.85 419.75 1849.55 419.8
L 1841.7 420
Q 1829.15 420.45 1826.45 420.25 1823.75 420.05 1820 418.2 1818.35 415.25 1818 414.2 1817.7 413.1 1817.35 409.55 1817.8 406.05 1818.15 404.95 1818.5 403.85 1819.95 400.9 1823.3 399.1 1827.75 398.9 1829.6 398.75 1836.05 399.15
L 1841.1 399.15
Q 1845.6 399.2 1854.65 399.55 1861.4 399.8 1868 399.75 1875.8 399.85 1883.8 400.15 1898.65 400.7 1908.2 400.4
L 1924.2 399.9
Q 1931.45 399.55 1933.2 399.65 1934.5876953125 399.80859375 1936.95 400.75
L 1936.95 171.45 1936.35 171.45 1936.35 176.25
Q 1934.65 176.65 1933.95 176.75 1933.3 176.8 1930.9 176.8 1922.45 177.2 1912.85 179.35
L 1899.25 182.45
Q 1880.85 186.6 1876.4 186.75 1871.85 187 1863.25 183.9 1855.05 181.15 1847.45 180.75 1842.25 180.35 1836.3 178.25 1832.35 176.9 1825.7 173.9
L 1820.8 172.6 1817.05 171
Q 1816.45 168.8 1816.4 168.05 1816.4 167.35 1817 165.2 1820.95 164.45 1825.25 164.6
L 1872.65 164.7
Q 1886.45 164.6 1900.2 164.7
L 1902.95 164.75
Q 1909.7 164.75 1917.35 165.2
L 1926.05 165.8
Q 1928.1 165.95 1928.85 165.95 1929.6625 165.95 1932.2 165.7
L 1932.45 165.7 1932.45 161.95
Q 1931.95 161.85 1931.45 161.85 1930.35 161.8 1929.3 161.8 1928.15 161.8 1927 161.8 1925.75 161.8 1924.55 161.85 1923.25 161.85 1922 161.9 1916.65 162.15 1911.35 162.3 1910.55 162.35 1909.75 162.45 1908.75 162.45 1907.8 162.5 1906.75 162.6 1905.7 162.65 1904.55 162.65 1903.4 162.65 1902.15 162.7 1900.9 162.75 1899.5 162.75 1898.15 162.8 1896.7 162.85 1895.25 162.95 1893.65 162.95 1892.05 162.95 1890.95 162.95 1889.85 163 1889.2 163 1888.55 163 1887.8 162.95 1887.05 162.95 1885.4 162.9 1883.7 162.95 1880.7 162.65 1877.9 162.65 1875.3 162.65 1872.7 162.65 1870.05 162.6 1867.4 162.65 1861.95 162.75 1856.55 162.95
L 1821.85 163.1
Q 1821 162.85 1820.3 162.5 1819.95 162.45 1819.75 162.3 1819.5 162.15 1819.25 162 1819.1 161.9 1818.95 161.8 1818.8 161.7 1818.7 161.6 1818.65 161.55 1818.6 161.5 1818.5 161.35 1818.45 161.2 1818.3 160.85 1818.2 160.6 1818 160.2 1817.9 159.8 1817.6 158.4 1817.4 156.95 1817.2 155.45 1817.15 154 1817.05 152.55 1817.05 151.2 1817 149.75 1817.1 148.3 1817.15 146.9 1817.3 145.55 1817.65 142.8 1818.2 140.05 1818.45 138.65 1818.8 137.35
L 1818.8 137.3 1819.75 136.3 1820.8 136.3
Q 1821.251953125 136.1056640625 1821.75 135.95 1822.55 135.7 1823.4 135.5 1824.2 135.35 1825.05 135.2 1825.2 135.2 1825.4 135.2 1825.6 135.2 1825.85 135.2 1826.1 135.2 1826.45 135.2 1826.8 135.2 1827.2 135.15 1827.65 135.15 1828.15 135.15 1828.65 135.15 1829.2 135.15 1829.8 135.15 1830.45 135.15 1831.1 135.15 1831.85 135.15
L 1921.8 135.6
Q 1922.85 135.6 1923.95 135.65 1924.95 135.7 1926 135.8 1926.95 135.9 1927.95 136.05 1928.8 136.1 1929.75 136.25 1930.6 136.4 1931.5 136.55 1932.35 136.7 1933.2 136.85 1933.95 137.05 1934.8 137.3 1935.45 137.55 1936.1 137.95 1936.53359375 138.2802734375 1936.95 138.6
L 1936.95 122.25
Q 1934.3005859375 120.2818359375 1931.2 118.5
L 1928.65 117.05
Q 1928.0287109375 116.778125 1927.4 116.55
L 1926.75 116.55
Q 1926.1 116.25 1925.45 116 1923 115.65 1922.15 115.6 1921.3 115.55 1918.65 115.6
L 1881.75 115.45
Q 1872.6 115.35 1863.45 115.4 1853.55 115.35 1848.6 115.25
L 1838.3 115
Q 1834.85 115.35 1831.2 116.6
M 1919.5 239.45
L 1928.6 239.25 1930.8 239.75
Q 1932.9 243.7 1933.75 250.3
L 1934.5 253.35
Q 1934.85 255.65 1934.95 256.4 1935 257.2 1935.05 259.45
L 1933.8 261.8
Q 1925.6 263.35 1914.55 261.9
L 1913.55 259.95
Q 1909.5 259.95 1905.55 260.15
L 1897.6 260.5
Q 1894.65 260.65 1880 261.05 1869.65 261.4 1864.5 261.65 1857.85 262.05 1849.55 262.2 1845.7 262.3 1843.8 262.5 1835.7 263 1833.75 262.7 1831.8 262.45 1828 260.35 1824.55 252.8 1826.8 241.2 1827 240.8 1844.2 241 1866.3 241.2 1867.6 241.2
L 1876.2 241.15
Q 1891.95 241.05 1903.45 240.1 1910.35 239.55 1919.5 239.45
M 1891.2 191.8
L 1892.95 189.6
Q 1897.35 185.55 1903 184.15 1906.75 183.25 1914.5 183
L 1917.85 182.9
Q 1923 182.85 1926.75 184 1928.9 185.75 1930.3 187.85 1931.55 189.65 1932.55 192.6 1933.3 197.15 1933.15 203.5
L 1933.15 206.35
Q 1933.05 210.45 1932.6 212.3 1931.95 214.65 1929.75 217.65
L 1928.8 221.5
Q 1924.3 223.65 1917.55 224.45 1914.35 224.75 1905.8 224.95
L 1903.15 225.05
Q 1899.75 225.05 1897.8 224.6 1895.35 224.05 1892.75 222.4 1889.7 219.1 1889 218.2 1888.4 217.2 1887.45 214.9 1887.1 211.9 1887 210.8 1886.95 209.75 1886.95 206.35
L 1886.9 201.8
Q 1887.2 198.45 1888.1 196.45 1888.95 194.5 1891.2 191.8 Z" stroke="none" fill="#F5F7F9"></path>

<path d="M 1892.95 189.6
L 1891.2 191.8
Q 1888.95 194.5 1888.1 196.45 1887.2 198.45 1886.9 201.8
L 1886.95 206.35
Q 1886.95 209.75 1887 210.8 1887.1 211.9 1887.45 214.9 1888.4 217.2 1889 218.2 1889.7 219.1 1892.75 222.4 1895.35 224.05 1897.8 224.6 1899.75 225.05 1903.15 225.05
L 1905.8 224.95
Q 1914.35 224.75 1917.55 224.45 1924.3 223.65 1928.8 221.5
L 1929.75 217.65
Q 1931.95 214.65 1932.6 212.3 1933.05 210.45 1933.15 206.35
L 1933.15 203.5
Q 1933.3 197.15 1932.55 192.6 1931.55 189.65 1930.3 187.85 1928.9 185.75 1926.75 184 1923 182.85 1917.85 182.9
L 1914.5 183
Q 1906.75 183.25 1903 184.15 1897.35 185.55 1892.95 189.6
M 1911.1 189.6
L 1915 189.65
Q 1918.45 189.65 1921.95 189.75 1923 190.75 1923.4 191.4 1923.85 191.95 1925.4 194.55 1927.25 197.95 1927.8 201.1 1928.15 203.7 1927.8 208.05
L 1926.85 209
Q 1925.8 211.55 1925.35 212.4 1924.85 213.2 1923.05 215.7 1918.05 218.25 1912.2 218.9 1907.2 219.5 1900.9 218.7 1897.75 217.6 1896.9 217 1896.05 216.45 1894.15 213.95 1892.2 209.45 1892.2 204.35 1894.4 199.55 1895.45 198.15 1896.55 196.75 1900.65 193.25 1903.25 191.4 1905.55 190.6 1907.85 189.8 1911.1 189.6 Z" stroke="none" fill="#5D5A76"></path>

<path d="M 1915 189.65
L 1911.1 189.6
Q 1907.85 189.8 1905.55 190.6 1903.25 191.4 1900.65 193.25 1896.55 196.75 1895.45 198.15 1894.4 199.55 1892.2 204.35 1892.2 209.45 1894.15 213.95 1896.05 216.45 1896.9 217 1897.75 217.6 1900.9 218.7 1907.2 219.5 1912.2 218.9 1918.05 218.25 1923.05 215.7 1924.85 213.2 1925.35 212.4 1925.8 211.55 1926.85 209
L 1927.8 208.05
Q 1928.15 203.7 1927.8 201.1 1927.25 197.95 1925.4 194.55 1923.85 191.95 1923.4 191.4 1923 190.75 1921.95 189.75 1918.45 189.65 1915 189.65 Z" stroke="none" fill="#F1F3F7"></path>

<path d="M 1931.1 102.6
L 1931.1 104.7
Q 1931.2 106.7 1931.3 107.35 1931.40625 107.775 1931.8 108.8
L 1931.45 106.7
Q 1931.3494140625 104.5865234375 1931.1 102.6
M 1926.15 42.55
Q 1924.9 39.5 1923.05 37.3 1921.35 35.3 1918.45 33.2
L 1915.35 31.3
Q 1908.65 27.15 1902.05 25.15 1895.6 23.25 1887.65 23.05
L 1883.9 23.05
Q 1858.75 22.6 1835.95 24.95
L 1832.5 25.35
Q 1824.9 26.15 1820.5 26.95 1813.8 28.05 1808.7 29.9 1807.85 31.55 1807.75 32.7 1807.6 33.8 1807.65 38.75
L 1807.65 41.45
Q 1807.6 43.4 1807.55 47.35 1807.65 50.75 1808.8 53 1811.7 54.4 1812.5 54.7 1813.35 54.95 1815.45 55.25
L 1838.6 55.75
Q 1837.4 59.3 1836.85 63.3 1836.4 66.25 1836.1 71 1835.6 79.45 1835.3 82.45 1834.55 88.8 1832.9 93.6 1831.1248046875 98.6978515625 1830.6 104.5
L 1831.15 104.5
Q 1830.9 111.85 1830.9 111.95
L 1831.2 114.1
Q 1832.85 114.75 1834.1 115.1
L 1830.8 116.7
Q 1830.7478515625 116.726171875 1830.7 116.75 1830.9650390625 116.6587890625 1831.2 116.6 1834.85 115.35 1838.3 115
L 1848.6 115.25
Q 1853.55 115.35 1863.45 115.4 1872.6 115.35 1881.75 115.45
L 1918.65 115.6
Q 1921.3 115.55 1922.15 115.6 1923 115.65 1925.45 116 1926.1 116.25 1926.75 116.55
L 1927.4 116.55
Q 1925.6416015625 115.896484375 1923.9 115.6
L 1923.9 115.15
Q 1925.85 114.9 1930.2 113.7 1931.2 110.55 1931.05 107 1931 104.85 1930.15 100.2
L 1930.8 100.2
Q 1930.55078125 98.5287109375 1930.2 96.95 1926.85 81.7 1926.95 61.55
L 1927.1 52.9
Q 1927.25 46.65 1926.15 42.55
M 1904.95 33.4
Q 1904.95 33.75 1911.5 38.45 1918.25 44.15 1919.15 49.05 1919.3 49.8 1919.4 50.65
L 1848.25 51.95 1847.25 49.05 1814.55 48.25
Q 1811.8 42.15 1813.55 35.75 1858.9 21.9 1904.95 33.4
M 1911.55 56.1
Q 1915.9 56.45 1919.5 58.25 1920.25 59.85 1920.5 61.5 1920.6 62.35 1920.7 64.95
L 1920.85 71.15
Q 1921.3 85.35 1923.9 98.8 1924.8 104.4 1924.5 108.25
L 1922.65 110.2
Q 1919.25 110.45 1914.55 110.5
L 1837 110.6
Q 1837.7 103.6 1837.95 101.95 1838.25 100.15 1839.25 96.8 1841.1 90.5 1841.7 80.2 1842.55 67.35 1844.45 59.55
L 1847.35 56.65
Q 1849.45 56.4 1850.25 56.3 1851.1 56.25 1853.75 56.25
L 1911.55 56.1 Z" stroke="none" fill="#7E1A34"></path>

<path d="M 1919.5 58.25
Q 1915.9 56.45 1911.55 56.1
L 1853.75 56.25
Q 1851.1 56.25 1850.25 56.3 1849.45 56.4 1847.35 56.65
L 1844.45 59.55
Q 1842.55 67.35 1841.7 80.2 1841.1 90.5 1839.25 96.8 1838.25 100.15 1837.95 101.95 1837.7 103.6 1837 110.6
L 1914.55 110.5
Q 1919.25 110.45 1922.65 110.2
L 1924.5 108.25
Q 1924.8 104.4 1923.9 98.8 1921.3 85.35 1920.85 71.15
L 1920.7 64.95
Q 1920.6 62.35 1920.5 61.5 1920.25 59.85 1919.5 58.25 Z" stroke="none" fill="#E21F2D"></path>

<path d="M 1911.5 38.45
Q 1904.95 33.75 1904.95 33.4 1858.9 21.9 1813.55 35.75 1811.8 42.15 1814.55 48.25
L 1847.25 49.05 1848.25 51.95 1919.4 50.65
Q 1919.3 49.8 1919.15 49.05 1918.25 44.15 1911.5 38.45 Z" stroke="none" fill="#DF202E"></path>
</g>
</g>
</g>
</g>

<g transform="matrix( 0.3621063232421875, 0, 0, 0.3621063232421875, -594.2,0.1)" id="Layer_3">
<g>
<g>
<g>
<path d="M 1817.4 476.6
L 1817.4 483.3
Q 1844.4 484.2 1857.85 484.25 1858.3 480.25 1858.05 475.95 1857.95 474 1857.65 472.6 1857.3 470.85 1856.2 468.3
L 1851.8 457.1 1844.75 457
Q 1844.85 457.9 1844.75 460.25 1844.7 462.3 1844.9 463.5 1845.05 464.3 1845.55 465.8 1846.7 469.1 1848.5 473.35
L 1830.5 473.45
Q 1826.75 473.45 1824.4 473.8 1823.6 473.9 1823.35 474.15 1822.85 474.65 1823.05 475.95 1820.6 476.1 1817.4 476.6
M 1799.65 427.1
Q 1798.7 427.25 1795.75 426.9 1793.2 426.7 1791.9 427.6 1791.2 428.1 1790.15 429.8 1788.5 432.55 1786.45 435.15 1786.25 435.45 1784.2 437.95 1782.85 439.65 1782.1 440.8 1777.55 447.6 1777.4 455.7
L 1770.7 455.75
Q 1770.1 455.75 1769.85 456 1769.6 456.2 1769.6 456.9
L 1769.6 465.25
Q 1769.6 466.45 1770 466.85 1770.45 467.25 1771.5 467.25
L 1776.1 467.3
Q 1778.25 467.4 1780.35 467.3 1782.7 467.2 1789 466.35 1789.8 466.25 1790.1 465.9 1790.45 465.6 1790.45 464.6
L 1790.5 460.9
Q 1790.6 457.75 1789.95 456.1 1789.5 454.9 1788.6 454.15 1787.6 453.25 1786.45 453.2 1786.95 450.75 1788.8 448 1789.2 447.45 1792.4 443.35 1794 441.35 1796.9 437.05
L 1799.4 433.35
Q 1800.45 431.3 1799.65 427.1
M 1899.95 475.7
Q 1897.4 475.7 1895.25 475.9 1893.95 476 1893.55 476.5 1893.15 477 1893.15 478.1
L 1893.2 483.55
Q 1893.2 484.3 1893.4 484.6 1893.8 485.25 1895.2 485.25
L 1925.95 485.35
Q 1928.55 485.35 1929.75 485 1930.15 482.5 1930.45 477.4
L 1930.95 466.55
Q 1931.4 457.5 1931.35 451.8
L 1924.45 451.75
Q 1923.85 458.95 1923.5 470.2
L 1923.35 474.75
Q 1917.85 475.5 1914.35 475.6 1911.65 475.75 1907.15 475.7 1901.7 475.65 1899.95 475.7 Z" stroke="none" fill="#000000"></path>
</g>
</g>
</g>
</g>

<g transform="matrix( 0.3621063232421875, 0, 0, 0.3621063232421875, -594.2,0.1)" id="MergedLayer_3">
<g>
<g>
<g>
<path d="M 1826.2 207.25
Q 1826.34375 207.23046875 1826.5 207.2 1825.7359375 207.036328125 1825 206.85 1823.7 206.55 1823.15 206 1822.45 205.3 1822.35 203.35 1822.27265625 201.2984375 1822.55 199.85 1821.5076171875 199.989453125 1820.45 200.15
L 1820.5 198.75
Q 1819.55 198.9 1812.35 198.65 1807.45 198.5 1805 200.35 1802.9 202 1801.25 206.5 1796.15 220.7 1793.7 237.8 1791.7 251.95 1791.25 269.85 1791 279.05 1791.3 288.2 1791.45 291.5 1792.3 304.55 1792.9 314.6 1792.9 320.9 1792.9 324.55 1792.65 331.15 1792.45 338.25 1792.4 341.45 1792.35 346.2 1792.85 364.45 1793.3 378.6 1792.6 387.45 1802.3 387.45 1818.3 386.45 1837.75 385.3 1844 385.1 1860.6 384.6 1893.95 385.05 1918.9029296875 384.9658203125 1936.95 382.15
L 1936.95 374.1
Q 1936.852734375 374.1251953125 1936.75 374.15 1917.7 377.9 1890.35 378.2 1859.2 377.85 1843.65 378.1 1825.95 378.4 1800.2 380.35 1799.9 369.55 1799.95 334.95 1799.95 306.7 1798.95 289.65 1798.55 282.65 1798.4 279.2 1798.1 273.2 1798.2 268.7 1798.35 261.75 1799.95 249.5 1801.7 236.75 1803.45 228.95 1806.05 217.8 1810.1 209.25 1810.8 207.85 1811.65 207.05 1812.8 206.05 1813.95 206.4
L 1813.95 208.05
Q 1818.95 208.2 1826.2 207.25
M 1936.95 218.8
L 1936.95 200.65
Q 1936.1861328125 200.4365234375 1935.3 200.25 1929.45 199.1 1917.4 198.85
L 1910.5 198.65
Q 1908.4953125 199.6443359375 1908 200.95 1907.6 201.95 1907.85 204 1907.96484375 204.9642578125 1907.95 205.65 1910.9529296875 205.7896484375 1914.05 205.9 1923.15 206.2 1927.5 207.05 1932.25 207.95 1934 210.3 1935 211.45 1935.8 214.3 1936.4056640625 216.5208984375 1936.95 218.8 Z" stroke="none" fill="#6C6C87"></path>

<path d="M 1936.95 218.8
Q 1936.4056640625 216.5208984375 1935.8 214.3 1935 211.45 1934 210.3 1932.25 207.95 1927.5 207.05 1923.15 206.2 1914.05 205.9 1910.9529296875 205.7896484375 1907.95 205.65 1907.91640625 206.536328125 1907.7 207.05 1906.65 209.65 1901.4 209.65
L 1859.65 209.7
Q 1848 209.7 1842.2 209.35 1833.4517578125 208.8087890625 1826.5 207.2 1826.34375 207.23046875 1826.2 207.25 1818.95 208.2 1813.95 208.05
L 1813.95 206.4
Q 1812.8 206.05 1811.65 207.05 1810.8 207.85 1810.1 209.25 1806.05 217.8 1803.45 228.95 1801.7 236.75 1799.95 249.5 1798.35 261.75 1798.2 268.7 1798.1 273.2 1798.4 279.2 1798.55 282.65 1798.95 289.65 1799.95 306.7 1799.95 334.95 1799.9 369.55 1800.2 380.35 1825.95 378.4 1843.65 378.1 1859.2 377.85 1890.35 378.2 1917.7 377.9 1936.75 374.15 1936.852734375 374.1251953125 1936.95 374.1
L 1936.95 218.8
M 1840.5 191.45
L 1840.5 190.7
Q 1839.3 190.45 1838.7 191.5 1839.3 191.45 1839.6 192.15 1839.85 192.7 1839.8 193.4
L 1839.8 198.75
Q 1839.8 199.75 1839.4 200.15 1839.1 200.4 1838.15 200.5 1837.3 200.55 1837.1 201 1839.1 201.1 1842.55 201.6 1846.45 202.15 1848 202.3 1850.15 202.45 1854.5 202.45
L 1894.75 202.45 1894.75 195.75
Q 1896.75 194.55 1899.45 194
L 1857 193.8
Q 1854.75 193.8 1852.95 193.6 1851.9 193.45 1846.75 192.1 1842.95 191.15 1840.5 191.45 Z" stroke="none" fill="#DEDFE9"></path>

<path d="M 1822.85 194.3
Q 1823.05 196.4 1824.55 196.7 1823.07890625 197.5275390625 1822.55 199.85 1822.27265625 201.2984375 1822.35 203.35 1822.45 205.3 1823.15 206 1823.7 206.55 1825 206.85 1825.7359375 207.036328125 1826.5 207.2 1833.4517578125 208.8087890625 1842.2 209.35 1848 209.7 1859.65 209.7
L 1901.4 209.65
Q 1906.65 209.65 1907.7 207.05 1907.91640625 206.536328125 1907.95 205.65 1907.96484375 204.9642578125 1907.85 204 1907.6 201.95 1908 200.95 1908.4953125 199.6443359375 1910.5 198.65 1910.7109375 198.5544921875 1910.95 198.45 1913.85 197.1 1914.6 196.35 1915.9 195 1916.1 192.65 1916.25 191.05 1915.8 188.4 1912.1 187.3 1907.3 186.95 1904.45 186.75 1898.65 186.75 1881.15 186.65 1867.15 186.8 1862.2 186.8 1860.25 186.5 1859.3 186.35 1854.5 185.15 1851 184.3 1848.7 184.35
L 1848.7 182.3
Q 1842.5 181.5 1836.2 182.8 1829.95 184.1 1824.5 187.25 1823.25 187.95 1822.95 188.7 1822.75 189.15 1822.8 189.9 1822.85 190.3 1822.95 191.1 1822.95 191.6 1822.9 192.7 1822.8 193.75 1822.85 194.3
M 1840.5 190.7
L 1840.5 191.45
Q 1842.95 191.15 1846.75 192.1 1851.9 193.45 1852.95 193.6 1854.75 193.8 1857 193.8
L 1899.45 194
Q 1896.75 194.55 1894.75 195.75
L 1894.75 202.45 1854.5 202.45
Q 1850.15 202.45 1848 202.3 1846.45 202.15 1842.55 201.6 1839.1 201.1 1837.1 201 1837.3 200.55 1838.15 200.5 1839.1 200.4 1839.4 200.15 1839.8 199.75 1839.8 198.75
L 1839.8 193.4
Q 1839.85 192.7 1839.6 192.15 1839.3 191.45 1838.7 191.5 1839.3 190.45 1840.5 190.7 Z" stroke="none" fill="#7F7FA4"></path>
</g>
</g>
</g>
</g>

<g transform="matrix( 0.3621063232421875, 0, 0, 0.3621063232421875, -594.2,0.1)" id="Layer_4">
<g>
<g>
<g>
<path d="M 1813.3 358.4
Q 1812.75 361.5 1814.8 361.65 1818.8 362.05 1822.8 362.05 1825.35 362.05 1827.9 361.65 1835.8 360.35 1844.75 359.55 1845.15 359.5 1845.55 359.45 1851 359.1 1856.5 358.95 1877.15 358.15 1898.25 357.75 1901.2 357.65 1904.05 357.25 1908.55 356.65 1914.35 357.25 1919.25 357.75 1920.95 355.45 1920.95 354.75 1920.9 354.75 1902.65 354 1884.35 353.9 1862.5 353.75 1842.65 355.65 1841.1 355.85 1839.65 356 1834.5 356.55 1829.45 357.25 1829.05 357.3 1828.65 357.35 1821.6 358.65 1813.3 358.4
M 1842.95 244.9
Q 1842.95 245.25 1842.9 245.65 1842.6 249.65 1842.2 253.6 1842 255.25 1841.85 257.3 1841.15 267.6 1839.35 277.05 1839.05 278.75 1839.25 280.75 1839.5 284.25 1838.2 285.9 1838.2 291.4 1837.65 296.85 1837.3 300.7 1839.65 301.25 1842.2 302 1842.2 299.8 1842.2 299.4 1842.35 299 1842.6 298 1842.95 297.05 1843.9 294.55 1846.25 293.2 1847.45 273.55 1847.65 252.95 1847.75 242 1848.9 231.75 1849.4 227.85 1847 227.3 1846.6 227.3 1846.25 227.3 1845.5 227.3 1845.4 227.6 1844.8 228.75 1844.4 230.1 1842.65 236.15 1842.95 244.9
M 1891.8 259.95
Q 1888.4 258.3 1888.45 262.45 1888.55 265.9 1887.25 267.6 1887 276.25 1888.65 282.95 1890.25 289.45 1893.15 294.7 1894.35 295.7 1896.8 295.75 1897.15 295.75 1897.2 296.15 1897.35 300.3 1901.2 300.55 1903.55 300.3 1902.35 297 1901.75 295.2 1901.05 293.25 1899.85 289.4 1898.75 285.25 1898.05 282.45 1897.25 279.35 1895 270.8 1893.15 261.7 1893.15 261 1892.75 260.65 1892.4 260.25 1891.8 259.95 Z" stroke="none" fill="#000000"></path>
</g>
</g>
</g>
</g>

<g transform="matrix( 0.3621063232421875, 0, 0, 0.3621063232421875, -594.2,0.1)" id="Layer_5"></g>

<g transform="matrix( 0.3621063232421875, 0, 0, 0.3621063232421875, -594.2,0.1)" id="Layer_6"></g>

<g transform="matrix( 0.3621063232421875, 0, 0, 0.3621063232421875, -594.2,0.1)" id="MergedLayer_1">
<g>
<g>
<g>
<path d="M 1639.9 195.45
L 1632.65 195.5 1630.2 210 1630.2 249.1
Q 1631.3287109375 244.419921875 1633.05 238.7 1637.5 223.85 1637.5 215.3 1637.9 226.6 1637.95 242.1 1637.95 251.4 1637.85 270 1637.85 304.5 1639.4 347.55 1640.3 373.35 1642.75 425.1 1637.25 400.8 1636.1 354.35 1635.45 328.85 1634.85 318.6 1633.65 298.7 1630.8 283.25 1630.4708984375 281.4818359375 1630.2 280
L 1630.2 384.9
Q 1632.2076171875 413.871875 1636 440.2 1638.7 458.95 1645.55 495.7
L 1652.4 495.95
Q 1650.45 468.05 1648.65 412.35
L 1646.85 355.25
Q 1645.45 310.95 1645.1 290.15 1644.45 253.85 1645.2 225 1645.45 214.8 1644.8 209.55 1643.7 201.05 1639.9 195.45 Z" stroke="none" fill="#000000"></path>
</g>
</g>
</g>
</g>

<g transform="matrix( 0.3621063232421875, 0, 0, 0.3621063232421875, -594.2,0.1)" id="Layer_2"></g>
</g>
</svg>
