
<svg viewBox="0 0 112 184" height="184px" width="112px" y="0px" x="0px" preserveAspectRatio="none" xmlns:xlink="http://www.w3.org/1999/xlink" version="1.1" xmlns="http://www.w3.org/2000/svg">
<defs></defs>

<g id="fun_scrollers">
<g transform="matrix( 0.3621063232421875, 0, 0, 0.3621063232421875, -594.2,0.1)" id="svg"></g>

<g transform="matrix( 0.3621063232421875, 0, 0, 0.3621063232421875, -594.2,0.1)" id="Layer_2">
<g>
<g>
<g>
<path d="M 1723.25 95.5
L 1722.6 95.6
Q 1723.85 100.15 1724.1 102.25 1724.5 105.8 1723.85 109 1719.6 110.55 1717.7 111
L 1717.75 111.45
Q 1719.53046875 111.563671875 1721.35 112.05 1721.95625 112.2439453125 1722.55 112.45
L 1725.25 113.7
Q 1734.3 117.9 1740.1 124.15 1745.75 131.15 1748.85 139.85 1751.55 147.55 1752.55 157.45
L 1752.8 160
Q 1753.9 172.2 1754.8 194.15
L 1755.95 224.15
Q 1756.15 228.75 1755.9 232.6 1755.65 235.6 1755.65 238.45
L 1756.55 266.6
Q 1757.5 292.6 1759.65 323.75 1761.3 346.5 1764.3 380.8
L 1766.9 410.45
Q 1767.65 418.95 1767.6 423.2 1766.2 427.2 1765.5 428.45 1764.85 429.7 1762.05 433
L 1757.7 438.25 1756.3 441.85 1756.15 442.25
Q 1755.755859375 442.3525390625 1755.3 442.45 1750.59453125 443.590234375 1742.15 444.6
L 1676.9 450.55
Q 1662.7 452.1 1655.5 452.6 1643 453.6 1634.05 452.5 1631.732421875 452.0216796875 1630.2 451.3
L 1630.2 459
Q 1631.5912109375 459.298828125 1633.05 459.5 1636.5 459.9 1641.35 459.8
L 1707.5 455.15
Q 1724.2 454 1730.85 453.25 1743.9 451.8 1753.85 449.2 1759.95 447.05 1764.05 443.5 1767.65 440.45 1771.7 434.7 1775 427.75 1775.2 422.6 1775.3 417.35 1773 393.4
L 1771.1 374.8
Q 1767.85 340.3 1766.1 315.8 1763.8 283.85 1763.2 256.7 1762.8 236.25 1761.75 208.7
L 1760.85 183.35
Q 1760.1 163.35 1758.6 153.45 1756 137.1 1749.5 125 1745.7 119.05 1742.4 115.55 1737.95 110.95 1732.9 108.75 1728.05 106.85 1725.45 104.95 1725.198828125 104.4330078125 1725 104 1724.5408203125 103.02265625 1724.4 102.6 1724.2 101.95 1723.95 99.95
L 1723.75 97.85 1723.6 95.5 1723.25 95.5 Z" stroke="none" fill="#706C84"></path>

<path d="M 1707.2 45.55
Q 1707.4 46.25 1707.65 47.1
L 1636.8 54.5 1635.6 51.7 1630.2 52 1630.2 118.7
Q 1631.2974609375 118.4205078125 1632.4 118.2
L 1642.65 117.55
Q 1647.6 117.25 1657.45 116.4 1666.55 115.6 1675.65 114.95
L 1712.5 111.85
Q 1715.15 111.65 1715.95 111.55 1716.8 111.55 1719.25 111.65 1719.95 111.9 1720.6 112.15
L 1721.35 112.05
Q 1719.53046875 111.563671875 1717.75 111.45
L 1717.7 111
Q 1719.6 110.55 1723.85 109 1724.5 105.8 1724.1 102.25 1723.85 100.15 1722.6 95.6
L 1723.25 95.5
Q 1722.8154296875 93.8640625 1722.3 92.3 1717.7 77.4 1716.15 57.3
L 1715.55 48.65
Q 1715.1 42.45 1713.65 38.45 1712.15 35.6 1710.1 33.45 1708.25 31.65 1705.2 29.8
L 1701.95 28.15
Q 1694.9 24.65 1688.2 23.2 1681.5 21.85 1673.6 22.35
L 1669.85 22.65
Q 1649.121484375 24.0951171875 1630.2 27.25
L 1630.2 32.4
Q 1660.2748046875 26.1607421875 1691.65 31.15 1691.7 31.5 1698.7 35.6 1705.9 40.65 1707.2 45.55
M 1710.15 61.25
L 1710.85 67.45
Q 1712.55 81.5 1716.2 94.7 1717.6 100.2 1717.7 104.05
L 1715.9 106.15
Q 1712.6 106.7 1707.9 107.15
L 1630.65 113.9
Q 1630.75 106.9 1630.9 105.2 1631.05 103.45 1631.8 100 1633 93.55 1632.75 83.25 1632.45 70.35 1633.7 62.4
L 1636.35 59.3
Q 1638.4 58.85 1639.2 58.75 1640 58.6 1642.65 58.4
L 1700.25 53.25
Q 1704.6 53.2 1708.35 54.65 1709.25 56.25 1709.65 57.85 1709.85 58.65 1710.15 61.25
M 1723.95 99.95
Q 1724.2 101.95 1724.4 102.6 1724.5408203125 103.02265625 1725 104
L 1724.5 101.95
Q 1724.198046875 99.8359375 1723.75 97.85
L 1723.95 99.95 Z" stroke="none" fill="#7E1A34"></path>

<path d="M 1710.85 67.45
L 1710.15 61.25
Q 1709.85 58.65 1709.65 57.85 1709.25 56.25 1708.35 54.65 1704.6 53.2 1700.25 53.25
L 1642.65 58.4
Q 1640 58.6 1639.2 58.75 1638.4 58.85 1636.35 59.3
L 1633.7 62.4
Q 1632.45 70.35 1632.75 83.25 1633 93.55 1631.8 100 1631.05 103.45 1630.9 105.2 1630.75 106.9 1630.65 113.9
L 1707.9 107.15
Q 1712.6 106.7 1715.9 106.15
L 1717.7 104.05
Q 1717.6 100.2 1716.2 94.7 1712.55 81.5 1710.85 67.45 Z" stroke="none" fill="#E21F2D"></path>

<path d="M 1630.2 166.6
L 1654.7 164.4
Q 1660 163.75 1665.45 163.2 1668.05 162.9 1670.7 162.75 1673.3 162.5 1675.85 162.25 1678.7 162 1681.7 162.05 1683.4 161.9 1685.05 161.8 1685.8 161.7 1686.55 161.7 1687.2 161.65 1687.85 161.6 1688.95 161.45 1690.05 161.35 1691.65 161.2 1693.2 161.05 1694.65 160.85 1696.1 160.7 1697.45 160.5 1698.8 160.4 1700.05 160.2 1701.3 160.05 1702.45 159.95 1703.6 159.85 1704.6 159.7 1705.65 159.55 1706.65 159.45 1707.6 159.4 1708.4 159.2 1709.2 159.1 1714.5 158.4 1719.75 157.7 1721 157.55 1722.3 157.45 1723.5 157.3 1724.75 157.15 1725.9 157.05 1727.05 156.95 1728.1 156.85 1729.2 156.85 1729.65 156.8 1730.2 156.85
L 1730.5 160.6 1736.25 160.1 1733.9 134.2
Q 1732.9 133.35 1731.75 132.65 1731.05 132.3 1730.4 132.1 1729.55 131.95 1728.75 131.85 1727.9 131.7 1727.1 131.65 1726.15 131.55 1725.25 131.45 1724.35 131.4 1723.5 131.4 1722.45 131.4 1721.5 131.4 1720.45 131.4 1719.45 131.45 1718.35 131.5 1717.3 131.5
L 1630.2 138.65 1630.2 166.6 Z" stroke="none" fill="#110F1A"></path>

<path d="M 1630.2 168.2
L 1630.2 179.75
Q 1633.4712890625 180.825 1635.8 181.4 1641.9 182.95 1647.1 182.95 1654.7 182.65 1663.15 184.7 1672 187 1676.5 186.45 1680.95 185.9 1698.85 180.15
L 1712.2 175.9
Q 1721.55 172.95 1729.9 171.8 1732.3 171.6 1733 171.5 1733.65 171.3 1735.35 170.75
L 1734.9 166 1736.8 165.85 1736.45 160.1 1736.25 160.1 1730.5 160.6
Q 1727.8 161 1727 161.1 1726.25 161.15 1724.15 161.25
L 1715.45 161.4
Q 1707.75 161.65 1701.05 162.2
L 1698.3 162.4
Q 1684.6 163.5 1670.85 164.75
L 1630.2 168.2 Z" stroke="none" fill="#992A3F"></path>

<path d="M 1630.2 166.6
L 1630.2 168.2 1670.85 164.75
Q 1684.6 163.5 1698.3 162.4
L 1701.05 162.2
Q 1707.75 161.65 1715.45 161.4
L 1724.15 161.25
Q 1726.25 161.15 1727 161.1 1727.8 161 1730.5 160.6
L 1730.2 156.85
Q 1729.65 156.8 1729.2 156.85 1728.1 156.85 1727.05 156.95 1725.9 157.05 1724.75 157.15 1723.5 157.3 1722.3 157.45 1721 157.55 1719.75 157.7 1714.5 158.4 1709.2 159.1 1708.4 159.2 1707.6 159.4 1706.65 159.45 1705.65 159.55 1704.6 159.7 1703.6 159.85 1702.45 159.95 1701.3 160.05 1700.05 160.2 1698.8 160.4 1697.45 160.5 1696.1 160.7 1694.65 160.85 1693.2 161.05 1691.65 161.2 1690.05 161.35 1688.95 161.45 1687.85 161.6 1687.2 161.65 1686.55 161.7 1685.8 161.7 1685.05 161.8 1683.4 161.9 1681.7 162.05 1678.7 162 1675.85 162.25 1673.3 162.5 1670.7 162.75 1668.05 162.9 1665.45 163.2 1660 163.75 1654.7 164.4
L 1630.2 166.6
M 1657.45 116.4
Q 1647.6 117.25 1642.65 117.55
L 1632.4 118.2
Q 1631.2974609375 118.4205078125 1630.2 118.7
L 1630.2 138.65 1717.3 131.5
Q 1718.35 131.5 1719.45 131.45 1720.45 131.4 1721.5 131.4 1722.45 131.4 1723.5 131.4 1724.35 131.4 1725.25 131.45 1726.15 131.55 1727.1 131.65 1727.9 131.7 1728.75 131.85 1729.55 131.95 1730.4 132.1 1731.05 132.3 1731.75 132.65 1732.9 133.35 1733.9 134.2
L 1736.25 160.1 1736.45 160.1 1736.8 165.85 1734.9 166 1735.35 170.75
Q 1733.65 171.3 1733 171.5 1732.3 171.6 1729.9 171.8 1721.55 172.95 1712.2 175.9
L 1698.85 180.15
Q 1680.95 185.9 1676.5 186.45 1672 187 1663.15 184.7 1654.7 182.65 1647.1 182.95 1641.9 182.95 1635.8 181.4 1633.4712890625 180.825 1630.2 179.75
L 1630.2 451.3
Q 1631.732421875 452.0216796875 1634.05 452.5 1643 453.6 1655.5 452.6 1662.7 452.1 1676.9 450.55
L 1742.15 444.6
Q 1750.59453125 443.590234375 1755.3 442.45 1755.8294921875 442.1767578125 1756.3 441.85
L 1757.7 438.25 1762.05 433
Q 1764.85 429.7 1765.5 428.45 1766.2 427.2 1767.6 423.2 1767.65 418.95 1766.9 410.45
L 1764.3 380.8
Q 1761.3 346.5 1759.65 323.75 1757.5 292.6 1756.55 266.6
L 1755.65 238.45
Q 1755.65 235.6 1755.9 232.6 1756.15 228.75 1755.95 224.15
L 1754.8 194.15
Q 1753.9 172.2 1752.8 160
L 1752.55 157.45
Q 1751.55 147.55 1748.85 139.85 1745.75 131.15 1740.1 124.15 1734.3 117.9 1725.25 113.7
L 1722.55 112.45
Q 1721.95625 112.2439453125 1721.35 112.05
L 1720.6 112.15
Q 1719.95 111.9 1719.25 111.65 1716.8 111.55 1715.95 111.55 1715.15 111.65 1712.5 111.85
L 1675.65 114.95
Q 1666.55 115.6 1657.45 116.4
M 1735.3 234.5
Q 1737.75 238.3 1739.15 244.8
L 1740.1 247.75
Q 1740.75 250 1740.9 250.75 1741 251.55 1741.25 253.8
L 1740.2 256.25
Q 1732.15 258.5 1721 258
L 1719.85 256.15
Q 1715.85 256.5 1711.9 257.05
L 1704 258.1
Q 1701.1 258.5 1686.55 260.15 1676.2 261.35 1671.15 262.1 1664.55 263.05 1656.25 263.9 1652.45 264.35 1650.6 264.7 1642.55 265.9 1640.6 265.8 1638.6 265.7 1634.65 263.9 1630.6 256.7 1631.8 245 1631.95 244.55 1649.1 243.25 1671.15 241.55 1672.5 241.45
L 1681 240.6
Q 1696.7 239.2 1708.1 237.25 1714.95 236.1 1724.05 235.2
L 1733.05 234.25 1735.3 234.5
M 1742.55 394.6
Q 1749.7 393.6 1751.45 393.6 1753.25 393.65 1756.7 394.8 1758.1 398.4 1758.35 402.4 1758.55 405.5 1758.05 410.15
L 1757.2 411.2
Q 1751.15 412.1 1746.35 412.6
L 1742.9 413
Q 1732.35 414.15 1711.45 416.35 1702 417.25 1690.3 418.7 1680.1 419.9 1669.85 420.85
L 1662.1 421.7
Q 1649.6 423.3 1646.9 423.3 1644.15 423.3 1640.3 421.8 1638.4 419.05 1638 418 1637.6 416.95 1636.85 413.45 1637.1 409.9 1637.3 408.8 1637.55 407.65 1638.75 404.55 1641.95 402.5 1646.35 401.9 1648.15 401.65 1654.65 401.45
L 1659.65 401.05
Q 1664.15 400.65 1673.25 400.25 1679.95 399.85 1686.5 399.3 1694.3 398.75 1702.3 398.35 1717.15 397.6 1726.65 396.45
L 1742.55 394.6
M 1691.65 190.15
L 1693.2 187.75
Q 1697.3 183.35 1702.85 181.45 1706.45 180.2 1714.2 179.3
L 1717.45 178.9
Q 1722.6 178.45 1726.4 179.2 1728.75 180.8 1730.35 182.8 1731.7 184.5 1732.95 187.35 1734.1 191.8 1734.5 198.15
L 1734.75 201
Q 1735.05 205.05 1734.7 207 1734.25 209.4 1732.4 212.5
L 1731.7 216.45
Q 1727.35 219 1720.75 220.3 1717.6 220.95 1709.1 221.85
L 1706.5 222.2
Q 1703.1 222.5 1701.05 222.2 1698.6 221.85 1695.95 220.45 1692.55 217.45 1691.8 216.6 1691.1 215.7 1689.9 213.5 1689.35 210.45 1689.2 209.4 1689.05 208.35 1688.75 204.95
L 1688.25 200.45
Q 1688.25 197.1 1689.05 195 1689.7 193 1691.65 190.15 Z" stroke="none" fill="#F5F7F9"></path>

<path d="M 1693.2 187.75
L 1691.65 190.15
Q 1689.7 193 1689.05 195 1688.25 197.1 1688.25 200.45
L 1688.75 204.95
Q 1689.05 208.35 1689.2 209.4 1689.35 210.45 1689.9 213.5 1691.1 215.7 1691.8 216.6 1692.55 217.45 1695.95 220.45 1698.6 221.85 1701.05 222.2 1703.1 222.5 1706.5 222.2
L 1709.1 221.85
Q 1717.6 220.95 1720.75 220.3 1727.35 219 1731.7 216.45
L 1732.4 212.5
Q 1734.25 209.4 1734.7 207 1735.05 205.05 1734.75 201
L 1734.5 198.15
Q 1734.1 191.8 1732.95 187.35 1731.7 184.5 1730.35 182.8 1728.75 180.8 1726.4 179.2 1722.6 178.45 1717.45 178.9
L 1714.2 179.3
Q 1706.45 180.2 1702.85 181.45 1697.3 183.35 1693.2 187.75
M 1711.35 186.25
L 1715.2 185.95
Q 1718.65 185.6 1722.15 185.4 1723.25 186.35 1723.75 186.9 1724.25 187.45 1726 189.9 1728.2 193.05 1728.95 196.2 1729.55 198.75 1729.55 203.1
L 1728.7 204.15
Q 1727.85 206.75 1727.45 207.7 1727.05 208.55 1725.45 211.2 1720.8 214.15 1715 215.3 1710.05 216.3 1703.7 216.05 1700.4 215.25 1699.55 214.75 1698.65 214.2 1696.55 211.85 1694.2 207.55 1693.75 202.5 1695.55 197.55 1696.5 196.05 1697.5 194.6 1701.25 190.75 1703.7 188.65 1705.85 187.7 1708.1 186.7 1711.35 186.25 Z" stroke="none" fill="#5D5A76"></path>

<path d="M 1715.2 185.95
L 1711.35 186.25
Q 1708.1 186.7 1705.85 187.7 1703.7 188.65 1701.25 190.75 1697.5 194.6 1696.5 196.05 1695.55 197.55 1693.75 202.5 1694.2 207.55 1696.55 211.85 1698.65 214.2 1699.55 214.75 1700.4 215.25 1703.7 216.05 1710.05 216.3 1715 215.3 1720.8 214.15 1725.45 211.2 1727.05 208.55 1727.45 207.7 1727.85 206.75 1728.7 204.15
L 1729.55 203.1
Q 1729.55 198.75 1728.95 196.2 1728.2 193.05 1726 189.9 1724.25 187.45 1723.75 186.9 1723.25 186.35 1722.15 185.4 1718.65 185.6 1715.2 185.95 Z" stroke="none" fill="#F1F3F7"></path>

<path d="M 1751.45 393.6
Q 1749.7 393.6 1742.55 394.6
L 1726.65 396.45
Q 1717.15 397.6 1702.3 398.35 1694.3 398.75 1686.5 399.3 1679.95 399.85 1673.25 400.25 1664.15 400.65 1659.65 401.05
L 1654.65 401.45
Q 1648.15 401.65 1646.35 401.9 1641.95 402.5 1638.75 404.55 1637.55 407.65 1637.3 408.8 1637.1 409.9 1636.85 413.45 1637.6 416.95 1638 418 1638.4 419.05 1640.3 421.8 1644.15 423.3 1646.9 423.3 1649.6 423.3 1662.1 421.7
L 1669.85 420.85
Q 1680.1 419.9 1690.3 418.7 1702 417.25 1711.45 416.35 1732.35 414.15 1742.9 413
L 1746.35 412.6
Q 1751.15 412.1 1757.2 411.2
L 1758.05 410.15
Q 1758.55 405.5 1758.35 402.4 1758.1 398.4 1756.7 394.8 1753.25 393.65 1751.45 393.6
M 1739.15 244.8
Q 1737.75 238.3 1735.3 234.5
L 1733.05 234.25 1724.05 235.2
Q 1714.95 236.1 1708.1 237.25 1696.7 239.2 1681 240.6
L 1672.5 241.45
Q 1671.15 241.55 1649.1 243.25 1631.95 244.55 1631.8 245 1630.6 256.7 1634.65 263.9 1638.6 265.7 1640.6 265.8 1642.55 265.9 1650.6 264.7 1652.45 264.35 1656.25 263.9 1664.55 263.05 1671.15 262.1 1676.2 261.35 1686.55 260.15 1701.1 258.5 1704 258.1
L 1711.9 257.05
Q 1715.85 256.5 1719.85 256.15
L 1721 258
Q 1732.15 258.5 1740.2 256.25
L 1741.25 253.8
Q 1741 251.55 1740.9 250.75 1740.75 250 1740.1 247.75
L 1739.15 244.8 Z" stroke="none" fill="#9DAEEA"></path>

<path d="M 1707.65 47.1
Q 1707.4 46.25 1707.2 45.55 1705.9 40.65 1698.7 35.6 1691.7 31.5 1691.65 31.15 1660.2748046875 26.1607421875 1630.2 32.4
L 1630.2 52 1635.6 51.7 1636.8 54.5 1707.65 47.1 Z" stroke="none" fill="#DF202E"></path>
</g>
</g>
</g>
</g>

<g transform="matrix( 0.3621063232421875, 0, 0, 0.3621063232421875, -594.2,0.1)" id="Layer_3">
<g>
<g>
<g>
<path d="M 1659.65 256.7
Q 1647.6 256.5 1641.6 257.2 1637.3 257.75 1634.6 258.9 1632.75 259.8 1631.75 260.15 1631.4630859375 260.2775390625 1630.2 260.6
L 1630.2 277.6 1639.9 277.55
Q 1641.1 277.55 1641.6 277.25 1642.5 276.8 1643 275.15 1644.1 272.15 1644.55 270.15 1645.1 267.3 1644.7 265 1652.15 263.5 1659.65 263.55
L 1659.65 256.7
M 1643.4 470
Q 1643.85 469 1644.4 467.15 1645.1 464.85 1645.6 462.6 1646.1 460.5 1646.3 458.85 1646.45 456.95 1646.35 453.15
L 1639.15 453.05
Q 1638.4 457.95 1637 461.7 1636.7 462.45 1634.9 466.3 1633.6 469.1 1633.05 471 1632.35 473.6 1632.3 477.55 1632.3 479.75 1632.3 484.2
L 1639.8 484.35
Q 1643.75 484.45 1645.7 484.7
L 1648.85 485.25
Q 1653.6 486.1 1658.75 485.8
L 1658.75 479
Q 1654.8 477.75 1649.65 477.5 1646.55 477.3 1640.35 477.45 1640.9 474.85 1641.95 472.8
L 1643.4 470
M 1731.35 461.75
Q 1733.35 458.95 1733.8 457.35 1734.3 455.75 1734.2 452.95 1734.05 449.5 1734.15 448.4
L 1727.3 448.3
Q 1727.05 450.25 1725.95 452.4 1725.25 453.75 1723.65 456.2
L 1720.5 460.95
Q 1717.6 465.35 1716.8 466.75 1715.6 468.8 1715.35 470.05 1715.2 470.9 1715.2 472.7
L 1715.2 482.8 1749.65 482.8
Q 1752.1 482.8 1753.25 482.65 1754.7 482.45 1755.2 481.7 1755.6 481.15 1755.6 479.9
L 1755.55 474.25
Q 1754.35 473.9 1752.35 473.6 1749.85 473.25 1749.1 473.1 1746.45 472.35 1745.1 472 1740.9 470.9 1735.5 470.7 1732.4 470.55 1725.7 470.7 1728.3 466.2 1731.35 461.75
M 1682.25 340.85
Q 1673.7 340.9 1669.45 341.1 1662.35 341.45 1656.75 342.45 1656.1 342.55 1655.85 342.8 1655.55 343.1 1655.55 343.95
L 1655.5 349.45
Q 1655.4 351.1 1655.9 351.9 1656.3 352.6 1657.5 353.45 1662.8 357.3 1666 358.8 1671.1 361.2 1678.1 362 1682.5 362.5 1690.75 362.5
L 1694.7 362.5
Q 1696.5 362.6 1697.9 362.45 1699.5 362.25 1701.25 361.85
L 1712.15 359.65
Q 1714.45 359.25 1715.6 358.45 1716.75 357.7 1717.05 356.6 1717.25 356.05 1717.25 354.85
L 1717.3 349.9
Q 1716.4 350.1 1713.35 349.8 1710.85 349.55 1709.65 350.45
L 1708.6 351.45
Q 1707.95 351.95 1705.8 352.5
L 1694.1 354.9
Q 1691.6 355.4 1690.4 355.45 1689.45 355.5 1686.5 355.15 1680.15 354.35 1676.65 353.3 1671.35 351.75 1668 348.85 1672.65 348.25 1682.05 348.05
L 1719.9 347.45 1719.9 340.65 1682.25 340.85
M 1774.3 286.15
Q 1772.75 286 1772.05 285.8 1770.85 285.45 1770.25 284.7 1769.6 283.95 1769.3 282.1 1767 267.05 1766.7 252.5
L 1759.8 252.45
Q 1759.5 271.25 1762.5 289.7 1762.8 291.5 1763.5 292.15 1764.2 292.85 1766.1 293.05 1774.2 293.95 1778.1 294.9 1781.55 295.75 1785.85 297.45 1787.55 298.1 1793.45 300.6
L 1803.2 304.9
Q 1806.75 306.45 1808.45 307.8 1811.15 310.05 1811.3 312.9 1811.35 315.65 1808.95 318.25 1808.1 319.15 1806.7 320.2 1805.9 320.8 1804.25 321.95 1802.2 323.4 1799.4 325.9
L 1794.65 330.05
Q 1788 335.55 1778.4 340.6 1772.75 343.6 1760.8 348.95
L 1760.8 355.7
Q 1764.95 356.4 1769.95 354.9 1773.45 353.85 1778.65 351.15 1786.4 347.2 1790.95 344.3 1795.85 341.3 1801.55 336.9 1804.75 334.4 1811.65 328.75 1814.2 326.7 1815.5 325.3 1817.4 323.25 1818.25 321.1 1818.9 319.55 1819.05 317.45 1819.15 316.3 1819.15 313.6 1819.1 309.35 1818.6 306.95 1817.85 303.35 1815.75 301.3 1814.25 299.9 1811.05 298.45 1799.45 292.95 1793.15 290.65 1782.95 286.9 1774.3 286.15
M 1728.15 250.45
Q 1725.55 250 1724.3 249.85 1722.6 249.6 1720.3 249.6 1711.85 249.3 1707.65 249.6 1706.25 249.7 1705.65 250.15 1705.2 250.45 1705.05 251 1704.85 251.55 1705.15 251.95
L 1704.3 252.15
Q 1704 255.3 1704 261.6 1704 263.3 1704.45 264 1705.35 265.4 1708.5 265.4
L 1728.1 265.5
Q 1730.7 265.5 1731.35 264.35 1731.6 263.9 1731.7 262.8
L 1731.85 259.5
Q 1738.75 259.25 1744.35 259.25
L 1744.35 252.4
Q 1743.3 252.4 1741.85 251.95 1740.25 251.45 1739.4 251.2 1737.35 250.65 1733.8 250.65 1729.45 250.6 1728.15 250.45 Z" stroke="none" fill="#1A1A1A"></path>
</g>
</g>
</g>
</g>

<g transform="matrix( 0.3621063232421875, 0, 0, 0.3621063232421875, -594.2,0.1)" id="Layer_6">
<g>
<g>
<g>
<path d="M 1936.95 119.55
Q 1935.9 125.0986328125 1935.9 132.2
L 1936.25 181.15
Q 1936.45 192.5 1936.55 214.95
L 1936.7 233.25
Q 1936.8 249.85 1936.8 252.7 1936.8 263.7 1936.5 272.1 1936.1 281.95 1936.45 294.75 1937 318.65 1936.85 336.95 1936.65 366.75 1936.9 385.1
L 1936.95 387.25 1936.95 119.55 Z" stroke="none" fill="#706C84"></path>
</g>
</g>
</g>
</g>

<g transform="matrix( 0.3621063232421875, 0, 0, 0.3621063232421875, -594.2,0.1)" id="MergedLayer_1"></g>
</g>
</svg>
