
<svg viewBox="0 0 272 172" height="172px" width="272px" y="0px" x="0px" preserveAspectRatio="none" xmlns:xlink="http://www.w3.org/1999/xlink" version="1.1" xmlns="http://www.w3.org/2000/svg">
<defs></defs>

<g id="Layer_2">
<g>
<g>
<g>
<path d="M 89.9 145.75
Q 89.65 145.65 89.6 145.8 91.4529296875 150.4634765625 94.5 154.05 99.9708984375 153.95625 105.5 153.8 105.730078125 153.793359375 105.95 153.75 103.579296875 152.9009765625 101.3 151.75 98.75 150.45 96.3 149.5 96.05 149.2 95.9 148.9 95.8 148.8 95.7 148.7 95.15 148.5 94.45 148.25 94.4 148.15 94.35 148.05 94.25 147.95 94.15 147.85 93.15 147.45 92.05 147.25 91.05 146.4 89.9 145.75
M 63.3 153.8
Q 63.3 153.95 63.3 154.05 63.3 154.1509765625 63.3 154.25 63.4013671875 154.25078125 63.5 154.25 63.395703125 154.0271484375 63.3 153.8
M 209.85 150.7
Q 209.75703125 151.0779296875 209.65 151.45 210.3904296875 151.4146484375 211.1 151.35 211.1916015625 149.1205078125 210.85 146.9 210.3 148.8 209.85 150.7
M 185.25 152.45
Q 186.8875 151.084765625 188.4 149.6 184.7958984375 151.241796875 181.05 152.55 183.1822265625 152.519921875 185.25 152.45
M 113 122
Q 112.9 121.9 112.9 121.8 108.7 119.1 103.65 119.55 98.45 120 94.5 123.45 93.05 124.7 92.75 126.5 94.6 129.6 98.05 131.1 101.05 132.35 103.25 131.8 104.75 131.4 106.05 132.05 112.05 133.25 115.55 129.15 115.75 128.95 115.9 128.75 115.95 128.65 115.95 128.55 115.95 128.3 116 128 116.05 127.65 116.2 127.35 116.25 127.3 116.25 127.2 116.25 127.1 116.25 127 116.25 126.9 116.2 126.8 116.1 126.6 115.95 126.4 115.95 126.3 115.95 126.2 115.95 126.1 115.95 126 115.95 125.8 115.95 125.65 115.95 125.55 115.95 125.45 115.95 125.35 115.9 125.25 115.85 125.15 115.8 125.05 115.75 124.95 115.7 124.85 115.6 124.75 115.45 124.65 115.15 124.4 114.95 124.05 114.8 123.85 114.7 123.65 114.65 123.55 114.5 123.5 114.2 123.25 114 122.9 113.85 122.7 113.75 122.5 113.65 122.4 113.55 122.35 113.35 122.3 113.15 122.2 113.05 122.1 113 122
M 164.85 118.45
Q 164.46328125 118.439453125 164.05 118.4 163.737890625 118.447265625 163.4 118.5 159.488671875 119.220703125 156.15 121.4 154.8 122.25 153.7 123.45 153.55 123.95 153.55 124.45 153.6 124.95 153.6 125.45 153.8 125.7 154 126 154.2 126.2 154.35 126.4 154.75 127.7 155.85 128.65 156.5 129.2 157.25 129.75 157.4 129.8 157.5 129.9 165.2 131.2 172.7 128.85 173.75 128.1 174.5 127 174.65 126.75 174.9 126.5 174.9 126.3 175 126.1 175.05 125.9 175.15 125.7 175.1 125.3 175.05 124.9 175 124.55 174.7 124.3 174.7 124.2 174.7 124.1 174.7 124 174.65 123.9 174.65 123.8 174.6 123.75 173.9 122.75 172.85 122 172.55 121.8 172.45 121.45 172.25 121.35 172.05 121.3 171.85 121.25 171.6 121.15 169.3 119.1 166.15 118.65 165.51328125 118.558984375 164.85 118.45
M 74.55 133.75
Q 73.3 132.6 72.5 131.1 69.9 128.05 66.95 125.35 66.7 125.9 66.55 126.5 66.6 126.6 66.6 126.65 66.6 127.1 66.8 127.45 67.05 130.6 67.4 133.75 67.55 135.45 67.7 137.1 69.35 137.1 71 137.45 71.1 137.45 71.25 137.5 73.8 137.2 76.4 136.85 76.3 135.3 74.55 133.75
M 80.55 109.6
Q 79.7375 107.69140625 79 105.7 78.7 104.8 78.35 103.95 78.2 107.9 78.25 111.85 78.25 114.8 78.4 117.7 79.479296875 117.409375 80.55 117.1 82.05859375 116.6470703125 83.55 116.15 81.9404296875 112.9623046875 80.55 109.6
M 196.7 110.05
Q 196.7 109.9 196.65 109.8 195.6 111.2 194.65 112.7 193.65 114.3 192.4 115.75 192.1 115.9 191.85 116.1 191.75 116.2 191.7 116.35 194.05 117.4 197 118.65 197 118.45 197 118.3 197.15 116.55 196.7 114.95 196.7 114.05 196.7 113.2 196.7 111.6 196.7 110.05
M 204.55 129.35
Q 204.55 128.15 204.55 126.9 203.45 127.35 202.15 127.55 201.4 127.65 200.6 127.8 200.45 127.95 200.3 128.1 200.15 128.25 200 128.35 199.9 128.4 199.8 128.4 198.65 128.75 197.55 129.25 197.45 129.4 197.3 129.5 196.85 129.9 196.4 130.4 196.3 130.45 196.2 130.45 195.8 130.6 195.4 130.7 195.25 130.85 195.05 130.95 194.35 131.25 194.15 131.9 194.15 132 194.1 132.05 193.4 132.4 192.65 132.65 198.45 133.6 204.55 134.5 204.55 131.95 204.55 129.35 Z" stroke="none" fill="#EE9D33"></path>

<path d="M 91 144.85
Q 90.25 144.5 89.7 143.9 88.5 143.9 87.25 143.85 87.2 143.9 87.15 144 87.15 144.05 87.15 144.15 87.15 144.25 87.15 144.35 87.15 144.55 87.15 144.75 87.15 144.85 87.15 144.95 87.25 145.05 87.3 145.15 87.35 145.25 87.4 145.35 87.4 145.45 87.4 145.55 87.45 145.75 87.55 145.95 87.6 146.05 87.65 146.15 87.65 146.25 87.65 146.35 87.65 146.45 87.65 146.55 87.65 146.75 87.7 146.9 87.7 147 87.7 147.1 89.15 149.3 90.55 151.5 91.387109375 152.8623046875 92.3 154.1 93.408203125 154.0814453125 94.5 154.05 91.4529296875 150.4634765625 89.6 145.8 89.65 145.65 89.9 145.75 91.05 146.4 92.05 147.25 93.15 147.45 94.15 147.85 94.25 147.95 94.35 148.05 94.4 148.15 94.45 148.25 95.15 148.5 95.7 148.7 95.8 148.8 95.9 148.9 96.05 149.2 96.3 149.5 98.75 150.45 101.3 151.75 103.579296875 152.9009765625 105.95 153.75 107.2828125 153.7390625 108.6 153.7 103.703515625 151.836328125 99.2 148.95 98.75 148.9 98.3 148.8 98.2 148.75 98.15 148.7 98.1 148.6 98 148.5 97.9 148.3 97.75 148.1 97.65 148 97.55 147.9 97.25 147.85 96.9 147.75 96.75 147.7 96.55 147.65 96.45 147.55 96.35 147.45 95.45 146.7 94.2 146.6 94.05 146.6 93.9 146.55 92.5 145.55 91 144.85
M 187.25 148.15
Q 187.2 148.25 187.15 148.35 187.05 148.45 186.95 148.55 182.16015625 150.9701171875 177.1 152.7 179.09453125 152.64453125 181.05 152.55 184.7958984375 151.241796875 188.4 149.6 186.8875 151.084765625 185.25 152.45 186.7560546875 152.4013671875 188.2 152.35 189.755859375 150.994140625 191.2 149.55 191.25 149.45 191.3 149.35 191.35 149.25 191.4 149.15 191.45 149.05 191.45 148.95 191.9 148.5 192.25 148.05 192.6 147.65 193.1 147.35 193.2 147.3 193.3 147.2 193.35 147.1 193.35 147 193.4 146.9 193.45 146.8 193.45 146.7 193.5 146.6 193.8 146.3 194.1 146.05 194.4 145.8 194.45 145.4 194.5 145.3 194.5 145.2 194.5 145.1 194.45 145.1 193.5 144.9 192.5 144.8
L 192.5 144.85
Q 192.4 144.9 192.3 145 192.2 145.05 192.15 145.15 192.1 145.25 192 145.35 190.65 146.4 189.15 147.3 188.25 147.8 187.25 148.15
M 115.65 121.75
Q 115.5 121.7 115.3 121.65 115.2 121.6 115.15 121.55 115.05 121.5 115 121.45 114.9 121.35 114.85 121.25 114.75 121.15 114.65 121.05 113.45 120.3 112.15 119.8 108.05 118.35 103.65 118.55 97.55 118.8 92.75 122.65 91.4 123.75 90.8 125.45 90.8 125.55 90.8 125.65 90.8 125.9 90.8 126.2 90.8 126.3 90.8 126.4 90.8 126.5 90.8 126.6 90.8 126.8 90.8 127 90.8 127.1 90.8 127.2 90.85 127.3 90.85 127.4 90.95 127.5 91 127.6 91.1 127.7 91.2 127.8 91.35 127.9 91.45 128 94.1 131.75 98.75 132.7 107.5 134.4 115.85 131.7 116.2 131.35 116.6 131 117 130.65 117.25 130.25 117.5 129.9 117.75 129.6 117.8 129.5 117.85 129.4 117.9 129.35 117.95 129.25 117.95 129.15 117.95 129.05 117.95 128.95 117.95 128.85 117.95 128.75 117.95 128.65 117.95 128.55 118 128.45 118.05 128.35 118.1 128.25 118.15 128.15 118.2 128.05 118.2 127.95 118.2 127.85 118.2 127.55 118.2 127.25 118.2 127.15 118.2 127.05 118.2 126.95 118.2 126.85 118.2 126.65 118.2 126.5 118.2 126.4 118.2 126.3 118.2 126.2 118.2 126.1 118.15 126 118.1 125.9 118.05 125.8 118 125.65 117.95 125.6 117.95 125.5 117.95 125.4 117.95 125.3 117.95 125.2 117.95 125.1 117.9 124.9 117.85 124.7 117.85 124.6 117.8 124.5 117.75 124.4 117.75 124.3 117.65 124.2 117.6 124.1 117.5 124 117.35 123.9 117.25 123.8 117.15 123.75 117.05 123.65 116.95 123.55 116.9 123.45 116.9 123.35 116.85 123.25 116.8 123.15 116.75 123.05 116.7 122.95 116.55 122.85 116.45 122.75 116.35 122.65 116.25 122.55 116.05 122.35 115.9 122.15 115.85 122.05 115.75 121.95 115.7 121.85 115.65 121.75
M 112.9 121.8
Q 112.9 121.9 113 122 113.05 122.1 113.15 122.2 113.35 122.3 113.55 122.35 113.65 122.4 113.75 122.5 113.85 122.7 114 122.9 114.2 123.25 114.5 123.5 114.65 123.55 114.7 123.65 114.8 123.85 114.95 124.05 115.15 124.4 115.45 124.65 115.6 124.75 115.7 124.85 115.75 124.95 115.8 125.05 115.85 125.15 115.9 125.25 115.95 125.35 115.95 125.45 115.95 125.55 115.95 125.65 115.95 125.8 115.95 126 115.95 126.1 115.95 126.2 115.95 126.3 115.95 126.4 116.1 126.6 116.2 126.8 116.25 126.9 116.25 127 116.25 127.1 116.25 127.2 116.25 127.3 116.2 127.35 116.05 127.65 116 128 115.95 128.3 115.95 128.55 115.95 128.65 115.9 128.75 115.75 128.95 115.55 129.15 112.05 133.25 106.05 132.05 104.75 131.4 103.25 131.8 101.05 132.35 98.05 131.1 94.6 129.6 92.75 126.5 93.05 124.7 94.5 123.45 98.45 120 103.65 119.55 108.7 119.1 112.9 121.8
M 170.85 118.7
Q 166.8 117.15 162.3 117.7 158 118.3 154.3 120.65 153 121.45 151.95 122.55 151.9 122.65 151.85 122.75 151.8 122.85 151.75 122.95 151.7 123.05 151.6 123.15 151.6 123.55 151.6 123.9 151.6 124.4 151.6 124.9 151.6 125.4 151.6 125.9 151.6 126 151.6 126.1 151.8 126.4 152.05 126.65 152.1 126.75 152.2 126.85 152.3 126.95 152.4 127.05 153.6 129.95 156.7 130.65 165.6 132.6 174.6 129.55 175.55 128.85 176.25 127.95 176.85 127.2 177.1 126.4 177.15 126.3 177.2 126.2 177.2 126.1 177.2 126 177.2 125.75 177.2 125.45 177.2 125.25 177.2 125.05 177.2 124.95 177.2 124.85 177.1 124.75 177.05 124.65 177 124.55 176.9 124.45 176.9 124.25 176.9 124.05 176.9 123.95 176.85 123.9 176.8 123.75 176.65 123.65 176.65 123.45 176.65 123.25 176.6 123.15 176.6 123.05 176.55 122.95 176.5 122.85 176.1 122.55 175.75 122.15 175.1 121.5 174.45 120.9 174.35 120.8 174.3 120.7 174.1 120.65 173.9 120.6 173.75 120.55 173.6 120.5 173.5 120.5 173.45 120.45 172.4 119.3 170.85 118.7
M 164.05 118.4
Q 164.46328125 118.439453125 164.85 118.45 165.51328125 118.558984375 166.15 118.65 169.3 119.1 171.6 121.15 171.85 121.25 172.05 121.3 172.25 121.35 172.45 121.45 172.55 121.8 172.85 122 173.9 122.75 174.6 123.75 174.65 123.8 174.65 123.9 174.7 124 174.7 124.1 174.7 124.2 174.7 124.3 175 124.55 175.05 124.9 175.1 125.3 175.15 125.7 175.05 125.9 175 126.1 174.9 126.3 174.9 126.5 174.65 126.75 174.5 127 173.75 128.1 172.7 128.85 165.2 131.2 157.5 129.9 157.4 129.8 157.25 129.75 156.5 129.2 155.85 128.65 154.75 127.7 154.35 126.4 154.2 126.2 154 126 153.8 125.7 153.6 125.45 153.6 124.95 153.55 124.45 153.55 123.95 153.7 123.45 154.8 122.25 156.15 121.4 159.488671875 119.220703125 163.4 118.5 163.737890625 118.447265625 164.05 118.4
M 180.65 89.6
Q 180.65 89.45 180.65 89.3 180.65 89.15 180.55 89.1 180.25 88.85 180 88.5 179.9 88.35 179.7 88.2 170.1 89.25 161 92 160.95 91.7 160.8 91.5 160.75 91.3 160.55 91.15 160.55 91 160.55 90.85 160.35 90.4 160.2 89.9 160.15 89.8 160.15 89.65 159.95 89.3 159.8 89 159.75 88.85 159.75 88.7 159.75 88.55 159.75 88.4 159.95 86.65 159.6 84.95 159.4 84.05 158.95 83.15 158.95 82.85 158.95 82.55 158.95 82.4 158.95 82.25 158.9 82.1 158.8 82 158.45 81.55 158.5 81 158.55 80.85 158.55 80.7 158.5 80.55 158.4 80.45 158.25 80.25 158.1 80.1 158.05 79.8 157.95 79.5 157.85 79.35 157.7 79.2 156.4 79.15 155.05 79.15 154.9 79.2 154.75 79.3 154.2 79.7 153.7 80.2 153.5 80.35 153.3 80.5 151.591015625 81.2080078125 149.9 81.95 144.6642578125 84.2912109375 139.6 87.05 139.05 87.1 138.55 87.05 138.5 87.05 138.45 86.95 138.15 85.95 137.25 85.4 137.05 85.25 136.9 85.1 136.85 84.95 136.8 84.8 136.75 84.65 136.7 84.5 136.3 84.2 135.9 83.85 135.75 83.75 135.6 83.6 134.9 82.4 134.35 81.15 134.1 80.45 133.55 79.9 133.55 79.75 133.5 79.6 132.95 78.3 132 77.15 131.55 76.6 131.4 75.9 131.1 75.8 130.8 75.65 130.75 75.65 130.65 75.6 130.55 75.5 130.5 75.4 130.35 75.25 130.25 75.1 129.15 75.05 128 75 125.5 76.65 123.3 79.05 118.5 84.3 114.6 89.95 114.1 89.55 113.5 89.2 107.35 85.5 101.7 80.9 101.15 80.75 100.6 80.55 100.4 80.5 100.25 80.4 99.2 80.35 98.1 80.4 98 80.4 97.9 80.5 97.95 81.05 97.65 81.45 97.55 81.6 97.5 81.75 97.5 82.05 97.5 82.35 97.25 86.5 97.2 90.65 97.1 95.85 97.1 101.1 91.85 100.75 86.8 99.1 83.539453125 98.0580078125 80.55 98.05 79.0927734375 98.054296875 77.7 98.3 77.15 98.25 76.65 98.25 76.65 98.4 76.65 98.55 76.4 98.6 76.2 98.65 76.4 99.05 76.55 99.5 76.35 102.25 76.35 105.05 76.35 111.6 76.35 118.15 74.4 118.55 72.45 118.85 67.4 119.6 64.3 121.9 64.75 122.85 65.35 123.65 65.05 124.5 64.8 125.4 64.35 126.8 64.85 128.1 64.95 130.5 65.25 132.85 65.6 135 65.65 137.2 65.25 137.25 64.85 137.3 64.1734375 137.4955078125 63.5 137.7 61.893359375 138.1755859375 60.25 138.7 60.15 138.75 60 138.8 59.95 138.85 59.95 138.95 59.25 139 58.6 139.1 59.2 139.1 59.85 139.15 59.8 139.15 59.75 139.2 59.65 139.3 59.6 139.4 59.6 139.5 59.6 139.6 59.6 139.7 59.6 139.8 59.6 139.9 59.6 140 59.6 140.05 59.6 140.1 59.55 140.1 59.45 140.15 59.4 140.15 59.4 140.3 59.4 140.45 59.4 140.6 59.4 141.1 59.4 141.55 59.4 141.7 59.4 141.85 59.9 142.2 59.85 142.75 59.8 142.9 59.8 143.1 60.05 143.4 60.3 143.7 60.45 143.85 60.55 144 60.6 144.15 60.6 144.3 60.6 144.85 60.9 145.25 60.85 146.8 60.75 148.3 60.65 150.5 61.3 152.5 61.4083984375 153.3671875 61.45 154.2 62.370703125 154.24296875 63.3 154.25 63.3 154.1509765625 63.3 154.05 63.3 153.95 63.3 153.8 63.395703125 154.0271484375 63.5 154.25 64.7115234375 154.261328125 65.9 154.25 65.127734375 152.721875 64.65 151.05 64.05 149.1 63.1 147.4 63.1 147.05 63.1 146.75 63.1 146 63.1 145.25 63.1 145.05 63.1 144.9 63.05 144.75 63 144.6 62.95 144.4 62.85 144.25 62.85 144.1 62.85 143.95 62.75 143.85 62.7 143.7 62.65 143.6 62.6 143.5 62.6 143.25 62.6 143 62.6 142.15 62.6 141.25 62.6 141.15 62.6 141
L 62.6 140.9
Q 62.2 140.85 61.85 140.85 61.85 140.75 61.85 140.65 61.85 140.45 61.8 140.25 61.8 140.05 61.85 139.85 61.85 139.75 61.9 139.65 62.5 139.35 63.1 139.15 67.55 139.1 72.4 138.75 75.1759765625 138.5158203125 77.2 137.7 78.222265625 137.2962890625 79.05 136.75 78 134.5 76.45 132.45 72.5 127.45 67.75 123.35 67.9 122.85 67.85 122.35
L 67.85 122.25
Q 67.35 122.15 66.85 122.15 66.8 122.05 66.7 121.95 66.55 121.85 66.45 121.7 73.9017578125 120.4400390625 80.55 118.3 83.1357421875 117.5021484375 85.6 116.55 85.6 116.4 85.6 116.25 85.6 115.8 85.6 115.35 85.55 115.15 85.5 115 83.65 112.15 82.4 108.95 81.446484375 106.397265625 80.55 103.8 79.9888671875 102.2166015625 79.45 100.6 79.2 100.3 78.95 99.95 78.85 99.8 78.75 99.65 78.7 99.35 78.6 99.05
L 78.6 99
Q 78.6 98.9 78.6 98.8 79.5765625 99.05703125 80.55 99.3 89.99375 101.5734375 99.15 101.8 99.15 101.5 99.15 101.2 99.15 97.05 99.1 92.9 99.05 87.2 99.85 81.85 100.6 82.35 101.35 82.85 103.5 84.35 105.7 85.75 106.2 86.4 106.85 86.9 110.05 89.05 113.25 91.05 115.05 90.9 116.85 90.75 118.1 88.5 119.65 86.45 123.65 81.15 128.5 76.6 128.95 76.55 129.35 76.6 129.4 76.6 129.45 76.7 129.5 76.9 129.55 77 130.1 78.2 130.95 79.2 131.2 79.5 131.4 79.8 131.45 79.95 131.45 80.1 131.5 80.25 131.5 80.4 132.45 81.5 132.9 82.85 133.15 83.5 133.45 84.1 134.15 84.65 134.7 85.4 134.75 85.5 134.75 85.65 135.75 86.4 136.35 87.5 136.4 87.65 136.4 87.8 136.75 87.9 137.1 88 137.2 88.05 137.25 88.1 137.3 88.2 137.35 88.3 137.5 88.45 137.65 88.6 138.85 88.65 140.1 88.65
L 140.1 88.6
Q 144.9904296875 85.7703125 149.9 83.45 152.9712890625 82.0314453125 156.05 80.8 156.55 81.15 156.5 81.75 156.5 81.9 156.5 82.05 156.6 82.2 156.7 82.35 156.8 82.5 156.9 82.65 156.9 83.1 156.9 83.6 156.9 83.75 156.9 83.9 157.05 84.2 157.1 84.5 157.25 85.45 157.55 86.35 157.6 86.5 157.7 86.65 157.7 87.1 157.7 87.6 157.7 88.35 157.7 89.1 157.7 89.25 157.7 89.4 157.9 89.9 158.05 90.35 158.1 90.5 158.1 90.65 158.2 90.8 158.3 90.95 158.6 91.9 159.05 92.8 159.15 92.95 159.25 93.1 168.85 91.3 178.2 89.4 178.8 89.7 178.65 90.35 178.6 90.5 178.6 90.65 179.3 93.45 179.15 96.5 179 99.4 179 102.3 186.05 102.6 193.15 102.85 194.15 103.4 195.3 103.6
L 195.3 103.65
Q 195.35 103.7 195.45 103.8 195.15 103.75 194.85 103.75 195.05 105.35 195.7 106.9 195.55 107 195.4 107.15 195.35 107.6 195.25 108.05 195.25 108.2 195.2 108.35 193.95 110.1 192.75 111.8 190.9 114.4 189.25 116.65 196.95 119.85 204.6 124.85 203.85 125.2 203.3 125.5 201.2 126.65 198.75 127.1 197.8 127.8 196.65 128.15 195.3 128.6 194.35 129.65 193.95 129.75 193.55 129.85 192.85 130.4 192.25 131.05 192.15 131.15 192.1 131.3 191.6 131.4 191.1 131.55 191.05 131.55 191 131.6 190.9 131.7 190.8 131.8 190.15 132.35 189.7 133.1 189.65 133.2 189.65 133.35 199.9 134.7 210.15 136.3 210.15 136.45 210.15 136.65 210.15 137.1724609375 210.15 137.7 210.15 138.83828125 210.15 140 210.15 140.95 210.15 141.85 208.95 144.85 208.25 147.95 207.81171875 149.791015625 207.2 151.55 208.4353515625 151.5083984375 209.65 151.45 209.75703125 151.0779296875 209.85 150.7 210.3 148.8 210.85 146.9 211.1916015625 149.1205078125 211.1 151.35 212.1275390625 151.327734375 213.1 151.25 213.109765625 151.115625 213.1 150.95 212.75 144.65 212.35 138.4 212.35 138.3 212.35 138.25 212.25 138.25 212.2 138.25 212.2 137.976171875 212.2 137.7 212.2 136.665625 212.2 135.6 209.35 135.2 206.55 134.8 206.55 132.9 206.55 131 206.55 128.35 206.55 125.75 206.9 125.4 207.25 125.05 204.7 121.95 200.75 120.25 199.85 119.85 198.95 119.5 198.95 118.05 199 116.6 199.05 115.45 198.65 114.45 198.65 112.75 198.75 111.1 198.8 109.95 198.4 108.9 198.5 107.85 198.2 106.9 198.4 106.55 198.55 106.2 198.6 106.05 198.65 105.9 198.65 105.6 198.65 105.3 198.65 104.7 198.65 104.05 198.6 103.9 198.55 103.75 198.2 103.65 197.85 103.55 197.85 103.5 197.8 103.5 197.7 103.35 197.55 103.2 197.45 103.1 197.35 102.95 196.4 102.65 195.5 102.3 195.25 102.2 195 102.1 188 101.85 181.05 101.6 181.05 98.85 181.05 96.1 181.05 93.45 181.05 90.85 181 90.7 180.9 90.6 180.6 90.15 180.65 89.6
M 204.55 126.9
Q 204.55 128.15 204.55 129.35 204.55 131.95 204.55 134.5 198.45 133.6 192.65 132.65 193.4 132.4 194.1 132.05 194.15 132 194.15 131.9 194.35 131.25 195.05 130.95 195.25 130.85 195.4 130.7 195.8 130.6 196.2 130.45 196.3 130.45 196.4 130.4 196.85 129.9 197.3 129.5 197.45 129.4 197.55 129.25 198.65 128.75 199.8 128.4 199.9 128.4 200 128.35 200.15 128.25 200.3 128.1 200.45 127.95 200.6 127.8 201.4 127.65 202.15 127.55 203.45 127.35 204.55 126.9
M 196.65 109.8
Q 196.7 109.9 196.7 110.05 196.7 111.6 196.7 113.2 196.7 114.05 196.7 114.95 197.15 116.55 197 118.3 197 118.45 197 118.65 194.05 117.4 191.7 116.35 191.75 116.2 191.85 116.1 192.1 115.9 192.4 115.75 193.65 114.3 194.65 112.7 195.6 111.2 196.65 109.8
M 79 105.7
Q 79.7375 107.69140625 80.55 109.6 81.9404296875 112.9623046875 83.55 116.15 82.05859375 116.6470703125 80.55 117.1 79.479296875 117.409375 78.4 117.7 78.25 114.8 78.25 111.85 78.2 107.9 78.35 103.95 78.7 104.8 79 105.7
M 72.5 131.1
Q 73.3 132.6 74.55 133.75 76.3 135.3 76.4 136.85 73.8 137.2 71.25 137.5 71.1 137.45 71 137.45 69.35 137.1 67.7 137.1 67.55 135.45 67.4 133.75 67.05 130.6 66.8 127.45 66.6 127.1 66.6 126.65 66.6 126.6 66.55 126.5 66.7 125.9 66.95 125.35 69.9 128.05 72.5 131.1 Z" stroke="none" fill="#000000"></path>

<path d="M 178.6 90.65
Q 178.6 90.5 178.65 90.35 178.8 89.7 178.2 89.4 168.85 91.3 159.25 93.1 159.15 92.95 159.05 92.8 158.6 91.9 158.3 90.95 158.2 90.8 158.1 90.65 158.1 90.5 158.05 90.35 157.9 89.9 157.7 89.4 157.7 89.25 157.7 89.1 157.7 88.35 157.7 87.6 157.7 87.1 157.7 86.65 157.6 86.5 157.55 86.35 157.25 85.45 157.1 84.5 157.05 84.2 156.9 83.9 156.9 83.75 156.9 83.6 156.9 83.1 156.9 82.65 156.8 82.5 156.7 82.35 156.6 82.2 156.5 82.05 156.5 81.9 156.5 81.75 156.55 81.15 156.05 80.8 152.9712890625 82.0314453125 149.9 83.45 144.9904296875 85.7703125 140.1 88.6
L 140.1 88.65
Q 138.85 88.65 137.65 88.6 137.5 88.45 137.35 88.3 137.3 88.2 137.25 88.1 137.2 88.05 137.1 88 136.75 87.9 136.4 87.8 136.4 87.65 136.35 87.5 135.75 86.4 134.75 85.65 134.75 85.5 134.7 85.4 134.15 84.65 133.45 84.1 133.15 83.5 132.9 82.85 132.45 81.5 131.5 80.4 131.5 80.25 131.45 80.1 131.45 79.95 131.4 79.8 131.2 79.5 130.95 79.2 130.1 78.2 129.55 77 129.5 76.9 129.45 76.7 129.4 76.6 129.35 76.6 128.95 76.55 128.5 76.6 123.65 81.15 119.65 86.45 118.1 88.5 116.85 90.75 115.05 90.9 113.25 91.05 110.05 89.05 106.85 86.9 106.2 86.4 105.7 85.75 103.5 84.35 101.35 82.85 100.6 82.35 99.85 81.85 99.05 87.2 99.1 92.9 99.15 97.05 99.15 101.2 99.15 101.5 99.15 101.8 89.99375 101.5734375 80.55 99.3 79.5765625 99.05703125 78.6 98.8 78.6 98.9 78.6 99
L 78.6 99.05
Q 78.7 99.35 78.75 99.65 78.85 99.8 78.95 99.95 79.2 100.3 79.45 100.6 79.9888671875 102.2166015625 80.55 103.8 81.446484375 106.397265625 82.4 108.95 83.65 112.15 85.5 115 85.55 115.15 85.6 115.35 85.6 115.8 85.6 116.25 85.6 116.4 85.6 116.55 83.1357421875 117.5021484375 80.55 118.3 73.9017578125 120.4400390625 66.45 121.7 66.55 121.85 66.7 121.95 66.8 122.05 66.85 122.15 67.35 122.15 67.85 122.25
L 67.85 122.35
Q 67.9 122.85 67.75 123.35 72.5 127.45 76.45 132.45 78 134.5 79.05 136.75 78.222265625 137.2962890625 77.2 137.7 75.1759765625 138.5158203125 72.4 138.75 67.55 139.1 63.1 139.15 62.5 139.35 61.9 139.65 61.85 139.75 61.85 139.85 61.8 140.05 61.8 140.25 61.85 140.45 61.85 140.65 61.85 140.75 61.85 140.85 62.2 140.85 62.6 140.9
L 62.6 141
Q 62.6 141.15 62.6 141.25 62.6 142.15 62.6 143 62.6 143.25 62.6 143.5 62.65 143.6 62.7 143.7 62.75 143.85 62.85 143.95 62.85 144.1 62.85 144.25 62.95 144.4 63 144.6 63.05 144.75 63.1 144.9 63.1 145.05 63.1 145.25 63.1 146 63.1 146.75 63.1 147.05 63.1 147.4 64.05 149.1 64.65 151.05 65.127734375 152.721875 65.9 154.25 73.18515625 154.3107421875 80.55 154.25 86.4044921875 154.205859375 92.3 154.1 91.387109375 152.8623046875 90.55 151.5 89.15 149.3 87.7 147.1 87.7 147 87.7 146.9 87.65 146.75 87.65 146.55 87.65 146.45 87.65 146.35 87.65 146.25 87.65 146.15 87.6 146.05 87.55 145.95 87.45 145.75 87.4 145.55 87.4 145.45 87.4 145.35 87.35 145.25 87.3 145.15 87.25 145.05 87.15 144.95 87.15 144.85 87.15 144.75 87.15 144.55 87.15 144.35 87.15 144.25 87.15 144.15 87.15 144.05 87.15 144 87.2 143.9 87.25 143.85 88.5 143.9 89.7 143.9 90.25 144.5 91 144.85 92.5 145.55 93.9 146.55 94.05 146.6 94.2 146.6 95.45 146.7 96.35 147.45 96.45 147.55 96.55 147.65 96.75 147.7 96.9 147.75 97.25 147.85 97.55 147.9 97.65 148 97.75 148.1 97.9 148.3 98 148.5 98.1 148.6 98.15 148.7 98.2 148.75 98.3 148.8 98.75 148.9 99.2 148.95 103.703515625 151.836328125 108.6 153.7 119.36796875 153.45 130.15 153.45 140.0458984375 153.419921875 149.9 153.25 163.5400390625 153.09375 177.1 152.7 182.16015625 150.9701171875 186.95 148.55 187.05 148.45 187.15 148.35 187.2 148.25 187.25 148.15 188.25 147.8 189.15 147.3 190.65 146.4 192 145.35 192.1 145.25 192.15 145.15 192.2 145.05 192.3 145 192.4 144.9 192.5 144.85
L 192.5 144.8
Q 193.5 144.9 194.45 145.1 194.5 145.1 194.5 145.2 194.5 145.3 194.45 145.4 194.4 145.8 194.1 146.05 193.8 146.3 193.5 146.6 193.45 146.7 193.45 146.8 193.4 146.9 193.35 147 193.35 147.1 193.3 147.2 193.2 147.3 193.1 147.35 192.6 147.65 192.25 148.05 191.9 148.5 191.45 148.95 191.45 149.05 191.4 149.15 191.35 149.25 191.3 149.35 191.25 149.45 191.2 149.55 189.755859375 150.994140625 188.2 152.35 197.7427734375 152.00703125 207.2 151.55 207.81171875 149.791015625 208.25 147.95 208.95 144.85 210.15 141.85 210.15 140.95 210.15 140 210.15 138.83828125 210.15 137.7 210.15 137.1724609375 210.15 136.65 210.15 136.45 210.15 136.3 199.9 134.7 189.65 133.35 189.65 133.2 189.7 133.1 190.15 132.35 190.8 131.8 190.9 131.7 191 131.6 191.05 131.55 191.1 131.55 191.6 131.4 192.1 131.3 192.15 131.15 192.25 131.05 192.85 130.4 193.55 129.85 193.95 129.75 194.35 129.65 195.3 128.6 196.65 128.15 197.8 127.8 198.75 127.1 201.2 126.65 203.3 125.5 203.85 125.2 204.6 124.85 196.95 119.85 189.25 116.65 190.9 114.4 192.75 111.8 193.95 110.1 195.2 108.35 195.25 108.2 195.25 108.05 195.35 107.6 195.4 107.15 195.55 107 195.7 106.9 195.05 105.35 194.85 103.75 195.15 103.75 195.45 103.8 195.35 103.7 195.3 103.65
L 195.3 103.6
Q 194.15 103.4 193.15 102.85 186.05 102.6 179 102.3 179 99.4 179.15 96.5 179.3 93.45 178.6 90.65
M 162.3 117.7
Q 166.8 117.15 170.85 118.7 172.4 119.3 173.45 120.45 173.5 120.5 173.6 120.5 173.75 120.55 173.9 120.6 174.1 120.65 174.3 120.7 174.35 120.8 174.45 120.9 175.1 121.5 175.75 122.15 176.1 122.55 176.5 122.85 176.55 122.95 176.6 123.05 176.6 123.15 176.65 123.25 176.65 123.45 176.65 123.65 176.8 123.75 176.85 123.9 176.9 123.95 176.9 124.05 176.9 124.25 176.9 124.45 177 124.55 177.05 124.65 177.1 124.75 177.2 124.85 177.2 124.95 177.2 125.05 177.2 125.25 177.2 125.45 177.2 125.75 177.2 126 177.2 126.1 177.2 126.2 177.15 126.3 177.1 126.4 176.85 127.2 176.25 127.95 175.55 128.85 174.6 129.55 165.6 132.6 156.7 130.65 153.6 129.95 152.4 127.05 152.3 126.95 152.2 126.85 152.1 126.75 152.05 126.65 151.8 126.4 151.6 126.1 151.6 126 151.6 125.9 151.6 125.4 151.6 124.9 151.6 124.4 151.6 123.9 151.6 123.55 151.6 123.15 151.7 123.05 151.75 122.95 151.8 122.85 151.85 122.75 151.9 122.65 151.95 122.55 153 121.45 154.3 120.65 158 118.3 162.3 117.7
M 115.3 121.65
Q 115.5 121.7 115.65 121.75 115.7 121.85 115.75 121.95 115.85 122.05 115.9 122.15 116.05 122.35 116.25 122.55 116.35 122.65 116.45 122.75 116.55 122.85 116.7 122.95 116.75 123.05 116.8 123.15 116.85 123.25 116.9 123.35 116.9 123.45 116.95 123.55 117.05 123.65 117.15 123.75 117.25 123.8 117.35 123.9 117.5 124 117.6 124.1 117.65 124.2 117.75 124.3 117.75 124.4 117.8 124.5 117.85 124.6 117.85 124.7 117.9 124.9 117.95 125.1 117.95 125.2 117.95 125.3 117.95 125.4 117.95 125.5 117.95 125.6 118 125.65 118.05 125.8 118.1 125.9 118.15 126 118.2 126.1 118.2 126.2 118.2 126.3 118.2 126.4 118.2 126.5 118.2 126.65 118.2 126.85 118.2 126.95 118.2 127.05 118.2 127.15 118.2 127.25 118.2 127.55 118.2 127.85 118.2 127.95 118.2 128.05 118.15 128.15 118.1 128.25 118.05 128.35 118 128.45 117.95 128.55 117.95 128.65 117.95 128.75 117.95 128.85 117.95 128.95 117.95 129.05 117.95 129.15 117.95 129.25 117.9 129.35 117.85 129.4 117.8 129.5 117.75 129.6 117.5 129.9 117.25 130.25 117 130.65 116.6 131 116.2 131.35 115.85 131.7 107.5 134.4 98.75 132.7 94.1 131.75 91.45 128 91.35 127.9 91.2 127.8 91.1 127.7 91 127.6 90.95 127.5 90.85 127.4 90.85 127.3 90.8 127.2 90.8 127.1 90.8 127 90.8 126.8 90.8 126.6 90.8 126.5 90.8 126.4 90.8 126.3 90.8 126.2 90.8 125.9 90.8 125.65 90.8 125.55 90.8 125.45 91.4 123.75 92.75 122.65 97.55 118.8 103.65 118.55 108.05 118.35 112.15 119.8 113.45 120.3 114.65 121.05 114.75 121.15 114.85 121.25 114.9 121.35 115 121.45 115.05 121.5 115.15 121.55 115.2 121.6 115.3 121.65 Z" stroke="none" fill="#FDDF5E"></path>
</g>
</g>
</g>
</g>
</svg>
