
<svg viewBox="0 0 80 70" height="70px" width="80px" y="0px" x="0px" preserveAspectRatio="none" xmlns:xlink="http://www.w3.org/1999/xlink" version="1.1" xmlns="http://www.w3.org/2000/svg">
<defs></defs>

<g id="Layer_2">
<g transform="matrix( 0.2443389892578125, 0, 0, 0.2443389892578125, -5.6,-13.9)" id="Layer_1">
<g>
<g>
<g>
<path d="M 249 332
Q 249 331.5 248.9 331.5 244.4 330.6 242 328 242.65 332.35 248 332.05 248.5 332 249 332 Z" stroke="none" fill="#203E45"></path>

<path d="M 255.75 307.8
Q 256 307.5 256 307 255.5 307 255 307 251.8 307.2 251 305 251 306 251 307 251 307.5 251 308 253.75 310.2 255.75 307.8 Z" stroke="none" fill="#68695B"></path>

<path d="M 264.75 305.7
Q 265 305.5 265 305 264.5 305 264 305 261 305 258 305 258 305.5 258 306 258 306.5 258 307 262.55 307.55 264.75 305.7 Z" stroke="none" fill="#706E63"></path>

<path d="M 273 303
Q 272.5 303 272 303 269 303 266 303 266 303.5 266 304 266 304.5 266 305 270.55 305.55 272.75 303.7 273 303.5 273 303 Z" stroke="none" fill="#6E6F63"></path>

<path d="M 279.75 301.8
Q 280 301.5 280 301 279.5 301 279 301 276.5 301 274 301 274 301.5 274 302 274 302.5 274 303 278.2 303.7 279.75 301.8 Z" stroke="none" fill="#6D6E5F"></path>

<path d="M 200 299
Q 200 298.5 199.8 298.4 195.95 296.6 190 297 192.6 299.9 199 299.05 199.5 299 200 299 Z" stroke="none" fill="#706E5E"></path>

<path d="M 229 334
Q 229 333.5 228.85 333.05 227.65 329.85 226 327 225.95 331.6 228.25 333.75 228.5 334 229 334 Z" stroke="none" fill="#2D4A51"></path>

<path d="M 211 301.1
Q 211.5 301 212 301 212 300.5 211.75 300.25 209.75 298.25 205 299 206.1 301.9 211 301.1 Z" stroke="none" fill="#6E6F5F"></path>

<path d="M 225 303.05
Q 225.5 303 226 303 226 302.5 225.75 302.2 224.2 300.25 220 301 221.25 303.2 225 303.05 Z" stroke="none" fill="#6C7162"></path>

<path d="M 235 304
Q 235 304.5 235 305 239.5 305 243.95 304.5 244 304.5 244 304 248.45 305.6 249.8 308.1 250 308.5 250 309 250.5 309 250.75 308.75 251 308.5 251 308 251 307.5 251 307 251 306 251 305 251 304.5 250.75 304.3 243 298.25 235 304 Z" stroke="none" fill="#2A1004"></path>

<path d="M 234 305.5
L 234 306
Q 234.5 306 234.75 305.75 235 305.5 235 305 235 304.5 235 304 234.5 304 234.2 303.75 232.2 302.25 228 303 229.55 305.45 234 305.5 Z" stroke="none" fill="#6A6C5D"></path>

<path d="M 234 306
Q 234 306.5 233.8 306.9 230.85 313.35 226 318 226 322 226 326 226 326.5 226 327 227.65 329.85 228.85 333.05 229 333.5 229 334 236.45 342.55 251 343.95 251.5 344 252 344 257.15 335.85 249.2 332.55 249 332.5 249 332 248.5 332 248 332.05 242.65 332.35 242 328 242 327.5 242 327 242 324.5 242 322 246.4 316.4 249.8 309.9 250 309.5 250 309 250 308.5 249.8 308.1 248.45 305.6 244 304 244 304.5 243.95 304.5 239.5 305 235 305 235 305.5 234.75 305.75 234.5 306 234 306 Z" stroke="none" fill="#020C17"></path>

<path d="M 238 292.05
Q 238.5 292 239 292 239 291.5 238.95 291.5 235 291 231 291 233.25 292.75 238 292.05 Z" stroke="none" fill="#C79332"></path>

<path d="M 187.8 296.35
Q 184.25 294.25 178 295 180.15 298.35 187 297.1 187.5 297 188 297 188 296.5 187.8 296.35 Z" stroke="none" fill="#706F5D"></path>

<path d="M 170 295
Q 170 294.5 169.8 294.35 166.25 292.25 160 293 162.15 296.35 169 295.1 169.5 295 170 295 Z" stroke="none" fill="#6B6F60"></path>

<path d="M 179 240.5
Q 175.65 240.35 174 239 176 244.7 178.35 241.25 178.5 241 179 241
L 179 240.5 Z" stroke="none" fill="#D2B866"></path>

<path d="M 171 222
Q 170.5 222 170 222 170 227.5 170.5 232.95 170.5 233 171 233 171 232.5 171 232 171 227 171 222 Z" stroke="none" fill="#D3B76F"></path>

<path d="M 170.75 207.25
Q 170.5 207 170 207 170 214 170 221 170 221.5 170 222 170.5 222 171 222 171 221.5 171 221 171 218.5 171 216 171 215.5 171 215 171 211.5 171 208 171 207.5 170.75 207.25 Z" stroke="none" fill="#EACC71"></path>

<path d="M 172 208
Q 171.5 208 171 208 171 211.5 171 215 171 215.5 171 216 172.75 213.75 172.05 209 172 208.5 172 208 Z" stroke="none" fill="#B88B2E"></path>

<path d="M 233.85 223.95
Q 234 223.5 234 223 233.5 223 233 223 232.5 223 232.25 223.25 230.3 225.3 227 226 227 226.5 227 227 227.5 227 228 227 232.65 227.15 233.85 223.95 Z" stroke="none" fill="#D7BD6C"></path>

<path d="M 207 238
Q 207 238.5 207 239 207.5 239 208 239 220.15 235.65 227.75 227.75 228 227.5 228 227 227.5 227 227 227 227 227.5 226.8 227.6 216.95 232.95 207 238 Z" stroke="none" fill="#D9BE6A"></path>

<path d="M 207 239
Q 206.5 239 206.05 239.1 202.5 240 199 241 199 241.5 198.9 241.5 196.5 242 194 242 201.4 243.9 207.75 239.65 208 239.5 208 239 207.5 239 207 239 Z" stroke="none" fill="#E3C86E"></path>

<path d="M 242 215
Q 241.5 215 241 215 240.5 215 240.3 215.25 237.15 219.15 233 222 233 222.5 233 223 233.5 223 234 223 238.9 220.4 241.8 215.85 242 215.5 242 215 Z" stroke="none" fill="#D3B664"></path>

<path d="M 310.95 277.5
Q 311 277.5 311 277 310.5 277 310 277 308 277 306 277 305.5 277 305 277 304.5 277 304 277 304.5 277.5 304.8 278.1 305 278.5 305 279 307.45 277.95 310.95 277.5 Z" stroke="none" fill="#2C3B3C"></path>

<path d="M 293 291
Q 292.5 291 292 291 294.3 295.2 301.9 293.5 302 293.5 302 293 301.5 293 301 293.05 295.6 293.45 293 291 Z" stroke="none" fill="#2B4449"></path>

<path d="M 290 295
Q 289.5 295 289.05 295.1 285.5 296 282 297 282 297.5 282 298 282 298.5 282 299 286.3 297.8 289.75 295.65 290 295.5 290 295 Z" stroke="none" fill="#6D6F5E"></path>

<path d="M 303.4 277.2
Q 302.7 278.7 300 278 299.5 278 299.05 278.15 293.7 279.7 290 283 289 288.55 291.75 290.35 292 290.5 292 291 292.5 291 293 291 296.1 287.8 296 284 296 283.5 296 283 301.1 282.1 304.25 279.25 304.5 279 305 279 305 278.5 304.8 278.1 304.5 277.5 304 277 303.5 277 303.4 277.2 Z" stroke="none" fill="#280A01"></path>

<path d="M 306 265
Q 305.5 265 305 265 304.5 265 304 265 304 265.5 304.1 266 306.05 275.55 300 277 300 277.5 300 278 302.7 278.7 303.4 277.2 303.5 277 304 277 304.5 277 305 277 305.5 277 306 277 306 276.5 306 276 306 273.5 306 271 306 270.5 306 270 306 268 306 266 306 265.5 306 265 Z" stroke="none" fill="#886545"></path>

<path d="M 305 265
Q 305.5 265 306 265 306 264.5 305.85 264.45 300.6 262.9 298 259 298 260.5 298 262 298 262.5 298 263 298.2 265.5 303 265.05 303.5 265 304 265 304.5 265 305 265 Z" stroke="none" fill="#795A32"></path>

<path d="M 309.95 256
Q 310 255.5 310 255 309.5 255 309.3 255.25 308.25 256.75 306 257 305.65 260.35 307.2 261.75 307.5 262 308 262 308 261.5 308 261 308 259.5 308 258 309.7 257.7 309.95 256 Z" stroke="none" fill="#130101"></path>

<path d="M 310 253
Q 309.5 253 309 253 305 253 301 253 301 253.5 300.75 253.75 300 254.5 299 255 298.5 255 298 255 298 256.5 298 258 298 258.5 298 259 300.6 262.9 305.85 264.45 306 264.5 306 265 306 265.5 306 266 306.5 266 307 266 307.5 266 308 266 308 265.5 308 265 308 263.5 308 262 307.5 262 307.2 261.75 305.65 260.35 306 257 308.25 256.75 309.3 255.25 309.5 255 310 255 310 254.5 310 254 310 253.5 310 253 Z" stroke="none" fill="#2E0B01"></path>

<path d="M 310 252
Q 309.5 252 309 252 306.5 252 304 252 303.5 252 303 252 302 252 301 252 301 252.5 301 253 305 253 309 253 309.5 253 310 253 310 252.5 310 252 Z" stroke="none" fill="#5E3504"></path>

<path d="M 250 203
Q 250 202.5 250 202 249.5 202 249.45 202.15 246.5 209.5 241 214 241 214.5 241 215 241.5 215 242 215 247.8 211.3 249.85 203.95 250 203.5 250 203 Z" stroke="none" fill="#D6BA69"></path>

<path d="M 313.45 239.15
Q 312.15 243.65 310 247 310 249 310 251 310 251.5 310 252 314.45 248.45 314 240 314 239.5 314 239 313.5 239 313.45 239.15 Z" stroke="none" fill="#6C6D5E"></path>

<path d="M 314 229
Q 316.9 232.5 316.05 224 316 223.5 316 223 315.5 223 315 223 314.5 223 314 223 314 225.5 314 228 314 228.5 314 229 Z" stroke="none" fill="#606255"></path>

<path d="M 309 199
Q 309 198.5 308.8 198.1 308.5 197.5 308 197 308 197.5 307.9 198 303.25 224.75 299 252 299 253 299 254 299 254.5 299 255 300 254.5 300.75 253.75 301 253.5 301 253 301 252.5 301 252 302 252 303 252 303.5 252 304 252 304 251.5 303.95 251.5 300.9 251.1 302 247 311.85 251.05 305.2 236.9 305 236.5 305 236 305.9 233.15 304.15 227.95 304 227.5 304 227 308.85 217 309 200 309 199.5 309 199 Z" stroke="none" fill="#A46510"></path>

<path d="M 318.05 210
Q 318 209.5 318 209 317.5 209 317 209 316.5 209 316 209 316 214.5 316 220 316 220.5 316 221 319.2 222.35 318.05 210 Z" stroke="none" fill="#636354"></path>

<path d="M 147 341
Q 147.5 341 147.55 340.9 148.75 335.75 147 333 147 336.5 147 340 147 340.5 147 341 Z" stroke="none" fill="#2C474F"></path>

<path d="M 137 343
Q 137 342.5 136.75 342.3 134.55 340.45 133 338 132.85 342.15 136 342.9 136.5 343 137 343 Z" stroke="none" fill="#204049"></path>

<path d="M 129 302
Q 128.5 302 128 302 128 306.5 128.5 310.95 128.5 311 129 311 129 310.5 129 310 129 306 129 302 Z" stroke="none" fill="#416368"></path>

<path d="M 129 301
Q 129 301.5 129 302 129 306 129 310 129 310.5 129 311 129 317 129.5 322.95 129.5 323 130 323 130 322.5 130 322 130 311 130 300 129.5 300 129 300 129 300.5 129 301 Z" stroke="none" fill="#082930"></path>

<path d="M 145 311
Q 144.5 311 144 311 144 317.5 144.5 323.95 144.5 324 145 324 145 323.5 145 323 145 317 145 311 Z" stroke="none" fill="#244047"></path>

<path d="M 145 310
Q 145 306 145 302 144.5 302 144 302 144 306 144 310 144 310.5 144 311 144.5 311 145 311 145 310.5 145 310 Z" stroke="none" fill="#43626A"></path>

<path d="M 76 257
Q 75.5 257 75 257 71.5 257 68 257 70.75 258.75 75.9 257.55 76 257.5 76 257 Z" stroke="none" fill="#37545C"></path>

<path d="M 75 233
Q 74.5 233 74 233 73.35 239.15 75.4 242.8 75.5 243 76 243 76 242.5 75.8 242.05 74.4 238.6 75 233 Z" stroke="none" fill="#2B464D"></path>

<path d="M 60 244
Q 59.5 244 59 244 59.05 247.45 61.15 248.75 61.5 249 62 249 62 248.5 61.85 248.05 61 246 60 244 Z" stroke="none" fill="#305157"></path>

<path d="M 59 244
Q 59.5 244 60 244 60 243.5 60 243 60 238.5 60 234 59.5 234 59 234 59 238.5 59 243 59 243.5 59 244 Z" stroke="none" fill="#0A3038"></path>

<path d="M 73 222
Q 69.5 222 66 222 66 222.5 66 223 69.5 223 73 223 73.5 223 74 223 74 222.5 74 222 73.5 222 73 222 Z" stroke="none" fill="#21434A"></path>

<path d="M 146 291
Q 146 292.5 146 294 146 294.5 146 295 151.85 290.95 159.05 292.85 159.5 293 160 293 160 292.5 159.85 292.45 154.25 290.25 146 291 Z" stroke="none" fill="#666C61"></path>

<path d="M 144 288
Q 143.5 288 143 288 140.5 288 138 288 141.25 290.4 144.1 289.2 144.5 289 145 289 145 288.5 144.75 288.25 144.5 288 144 288 Z" stroke="none" fill="#2A0800"></path>

<path d="M 134 287
Q 133.5 287 133 287 131.5 287 130 287 131.7 287.8 131.95 290 132 290.5 132 291 133 290 133.75 288.85 134 288.5 134 288 134 287.5 134 287 Z" stroke="none" fill="#576059"></path>

<path d="M 138 288
Q 137.5 288 137 288 135.5 288 134 288 134 288.5 133.75 288.85 133 290 132 291 132 291.5 132 292 132 292.5 132.05 293 133.4 307.7 130 300 130 311 130 322 130 322.5 130 323 129.7 331.85 132.4 337.8 132.5 338 133 338 134.55 340.45 136.75 342.3 137 342.5 137 343 142.8 345.6 146.75 341.75 147 341.5 147 341 147 340.5 147 340 147 336.5 147 333 146.5 333 146.5 332.9 145.7 328.3 145 324 144.5 324 144.5 323.95 144 317.5 144 311 144 310.5 144 310 144 306 144 302 144.5 302 145 302 145 301.5 145 301 145 299.5 145 298 146.65 298.15 146.1 295.95 146 295.5 146 295 146 294.5 146 294 146 292.5 146 291 146 290.5 145.8 290.1 145.5 289.5 145 289 144.5 289 144.1 289.2 141.25 290.4 138 288 Z" stroke="none" fill="#05070E"></path>

<path d="M 137 288
Q 137.5 288 138 288 140.5 288 143 288 143.5 288 144 288 144 287.5 143.95 287.5 139 287 134 287 134 287.5 134 288 135.5 288 137 288 Z" stroke="none" fill="#412602"></path>

<path d="M 131.5 292
Q 131.7 294.7 130 295 130 297 130 299 130 299.5 130 300 133.4 307.7 132.05 293 132 292.5 132 292
L 131.5 292 Z" stroke="none" fill="#031823"></path>

<path d="M 107.05 278.85
Q 107.5 279 108 279 108 278.5 107.75 278.2 105.85 275.65 102 275 103.7 277.85 107.05 278.85 Z" stroke="none" fill="#6E6E5E"></path>

<path d="M 113.05 283.1
Q 113.5 283 114 283 114 282.5 113.85 282.05 113.2 280.3 110 281 109.6 283.95 113.05 283.1 Z" stroke="none" fill="#6D7060"></path>

<path d="M 86 251
Q 86 250.5 86.1 250.05 86.9 246.6 84 247 83.3 250.2 85.05 250.85 85.5 251 86 251 Z" stroke="none" fill="#6D705F"></path>

<path d="M 82 233
Q 82 233.5 82 234 81.65 239.35 83.4 242.8 83.5 243 84 243 84 242.5 84 242 84 238.5 84 235 86.15 235.65 86.05 234 86 233.5 86 233 85.5 233 85 233 84.5 233 84 233 83.5 233 83 233 82.5 233 82 233 Z" stroke="none" fill="#6F6E63"></path>

<path d="M 88 225
Q 88 224.5 87.75 224.2 86.7 222.8 84 223 83.5 223 83 223 78.5 223 74 223 73.5 223 73 223 69.5 223 66 223 65.5 223 65.05 223.15 60.9 224.4 60 229 60 231 60 233 60 233.5 60 234 60 238.5 60 243 60 243.5 60 244 61 246 61.85 248.05 62 248.5 62 249 62.3 255.15 67.9 256.45 68 256.5 68 257 71.5 257 75 257 75.5 257 76 257 76 256.5 76.25 256.35 83.2 251.45 76 243 75.5 243 75.4 242.8 73.35 239.15 74 233 74.5 233 75 233 78.95 232.55 81.15 233.8 81.5 234 82 234 82 233.5 82 233 82.5 233 83 233 83.5 233 84 233 84 232.5 84 232 84 231.5 84 231 87.1 229.6 87.9 226 88 225.5 88 225 Z" stroke="none" fill="#020F19"></path>

<path d="M 88.65 225.2
Q 88.5 225 88 225 88 225.5 87.9 226 87.1 229.6 84 231 84 231.5 84 232 84 232.5 84 233 84.5 233 85 233 85.5 233 86 233 92.45 231.6 88.65 225.2 Z" stroke="none" fill="#311000"></path>

<path d="M 95 227
Q 94.5 227 94 227 94 233 94.5 238.95 94.5 239 95 239 95 238.5 95 238 95 232.5 95 227 Z" stroke="none" fill="#C68C2C"></path>

<path d="M 96 218
Q 96 217.5 95.95 217 95.25 210.05 92 223 94.1 242.35 94.5 259
L 95 259
Q 104.15 259.35 104.5 269
L 105 269
Q 110.05 268.1 113.8 274.15 114 274.5 114 275 125.95 276.05 133.75 281.35 134 281.5 134 282 139 280.5 146 280.95 146.5 281 147 281 159.95 285.5 181.9 289.5 182 289.5 182 290 185.5 290 189 290 189.5 290 190 290 192.25 291.25 194.8 292.4 195 292.5 195 293 207.35 291 220 291.95 220.5 292 221 292 223.5 293 225.8 294.35 226 294.5 226 295 230.8 293.25 234.25 296.75 234.5 297 235 297 245.65 296.7 267 297 267.5 297 268 297 273.45 292.95 281.05 291.1 281.5 291 282 291 284.6 286.1 289.15 283.25 289.5 283 290 283 293.7 279.7 299.05 278.15 299.5 278 300 278 300 277.5 300 277 306.05 275.55 304.1 266 304 265.5 304 265 303.5 265 303 265.05 298.2 265.5 298 263 297.5 263 297.5 263.1 295.95 269.95 292 274 292 274.5 291.75 274.8 281.6 288.1 264 294 263.5 294 263 294 249.8 294.2 239 292 238.5 292 238 292.05 233.25 292.75 231 291 230.5 291 230 291 146.65 289.8 100 252 99.5 252 99.4 251.8 96.3 246.2 95 239 94.5 239 94.5 238.95 94 233 94 227 94.5 227 95 227 95 226.5 95 226 95 224.5 95 223 96.7 222.2 96.1 219 96 218.5 96 218 Z" stroke="none" fill="#A26813"></path>

<path d="M 84 222
Q 83.5 222 83 222 78.5 222 74 222 74 222.5 74 223 78.5 223 83 223 83.5 223 84 223 84 222.5 84 222 Z" stroke="none" fill="#0C313A"></path>

<path d="M 85 211
Q 84.5 211 84 211 84 214.5 84 218 84 218.5 84 219 87.3 217.8 86.1 212 86 211.5 86 211 85.5 211 85 211 Z" stroke="none" fill="#756B55"></path>

<path d="M 99 163
Q 101.009375 164.3734375 101.75 166.65 101.6083984375 155.7462890625 102.55 145.95 100.826171875 154.4119140625 99 163
M 114 87
Q 114 87.5 113.9 88 111.059375 103.4630859375 107.9 119.4 118.669921875 86.4421875 148.1 72.2 148.5 72 149 72 149 71.5 149 71 149.5 71 150 71 150.5 71 151 71 151 70.5 151 70 150.5 70 150 70.05 128.45 72.45 114 87 Z" stroke="none" fill="#A76816"></path>

<path d="M 88 191
Q 87.5 191 87 191 86.5 191 86 191 86 191.5 86 192 86 198 86 204 86 204.5 86 205 89.45 200.95 88.05 192 88 191.5 88 191 Z" stroke="none" fill="#716D5E"></path>

<path d="M 90.1 184
Q 90 183.5 90 183 89.5 183 89 183 88.5 183 88 183 88 185.5 88 188 88 188.5 88 189 91.2 188.7 90.1 184 Z" stroke="none" fill="#6B6352"></path>

<path d="M 92.1 168
Q 92 167.5 92 167 91.5 167 91 167 90.5 167 90 167 90 169.5 90 172 90 172.5 90 173 93.2 172.7 92.1 168
M 171 63.1
Q 171.5 63 172 63 172 62.5 172.15 62.45 177.1 60.6 162 61 164.15 64.35 171 63.1 Z" stroke="none" fill="#666353"></path>

<path d="M 102 173
L 101.95 173
Q 101.49765625 173.00703125 101.45 173.15 100.3 177.3 98 180 98 180.5 97.95 181 97.05 193.9 94 205 94.55 208.45 96.3 210.75 96.5 211 97 211 97 210.5 97 210 97 208.5 97 207 100.2 191.7 101.95 175 102 174.5 102 174 102 173.5 102 173
M 234 81
Q 233.5 81 233.05 80.85 224.6 77.4 214 79 222.55 81.45 233 82 233.5 82 234 82
L 234.5 82
Q 234.5 81.5 234 81 Z" stroke="none" fill="#A76814"></path>

<path d="M 96 143
L 95.5 143
Q 95.65 140.9 94 141 94 143.5 94 146 94 146.5 94 147 95.5 146 95.9 144 96 143.5 96 143 Z" stroke="none" fill="#646050"></path>

<path d="M 96 133
Q 99.2 132.7 98.1 128 98 127.5 98 127 97.5 127 97 127 96.5 127 96 127 96 129.5 96 132 96 132.5 96 133
M 265 77.1
Q 265.5 77 266 77 266 76.5 265.8 76.4 262.8 74.7 258 75 259.2 78.3 265 77.1 Z" stroke="none" fill="#676454"></path>

<path d="M 99 111
Q 98.5 111 98 111 98 113.5 98 116 98 116.5 98 117 101.2 116.7 100.1 112 100 111.5 100 111 99.5 111 99 111
M 322.05 184
Q 322 183.5 322 183 321.5 183 321 183 320.5 183 320 183 320 184.5 320 186 320 186.5 320 187 322.65 190.85 322.05 184 Z" stroke="none" fill="#626254"></path>

<path d="M 102.1 102
Q 102 101.5 102 101
L 101.5 101
Q 101.65 103.15 100 103 100 104.5 100 106 100 106.5 100 107 103.2 106.7 102.1 102 Z" stroke="none" fill="#686454"></path>

<path d="M 137.85 63.95
Q 138 63.5 138 63 137.5 63 137 63 135.5 63 134 63 134 63.5 134 64 134 64.5 134 65 137.2 65.7 137.85 63.95
M 328 131
Q 328 130.5 328.1 130 329.2 125.3 326 125 325.25 129.2 327.2 130.75 327.5 131 328 131 Z" stroke="none" fill="#676352"></path>

<path d="M 151 71
Q 150.5 71 150 71 149.5 71 149 71 149 71.5 149 72 155 72 161 72 161.5 72 162 72 162 71.5 161.95 71.5 156.5 71 151 71 Z" stroke="none" fill="#CB9132"></path>

<path d="M 161.8 60.35
Q 159.25 58.85 152 59 152.5 59.5 152.8 60.1 153 60.5 153 61 157 61 161 61 161.5 61 162 61 162 60.5 161.8 60.35 Z" stroke="none" fill="#636457"></path>

<path d="M 254 184
Q 254 184.5 254 185 254.5 185 254.5 184.9 255.75 177.75 254 173 254 178.5 254 184 Z" stroke="none" fill="#9D720F"></path>

<path d="M 316.05 135
Q 316 134.5 316 134 315.5 134 315 134 315 138 315 142 315 142.5 315 143 316.75 140.25 316.05 135 Z" stroke="none" fill="#CF9234"></path>

<path d="M 173.05 192
Q 173 191.5 173 191 172.5 191 172 191 172 198.5 172 206 172 206.5 172 207 173.75 200.75 173.05 192 Z" stroke="none" fill="#4D3701"></path>

<path d="M 172 190
Q 172 190.5 172 191 172.5 191 173 191 173 190.5 173 190 173 184.5 173 179 172.5 179 172 179 172 184.5 172 190 Z" stroke="none" fill="#A18643"></path>

<path d="M 169 185
Q 168.5 185 168.45 185.15 165.65 192.75 161 187
L 160.5 187
Q 162.6 173.55 156 176
L 155.5 176
Q 158.2 184.55 148 179 147.5 179 147.4 178.8 142.75 170.5 133 178 132.5 178 132.05 177.85 122.05 175.2 128 183 128.5 183 128.9 182.8 135.15 179.35 144 179 144 179.5 144.15 179.55 150.9 181.75 136 181 136 181.5 135.85 181.55 121.4 186.75 122 183 122.5 183 122.55 182.85 125.8 174.45 117 179 116.5 179 116.1 178.8 113.5 177.45 110 180 109.5 180 109.15 180.2 104.45 183.1 106 188
L 106.5 188
Q 101.95 202.3 98 221 99.25 230.3 98.05 239 98 239.5 98 240 100.55 244.9 100.05 251 100 251.5 100 252 146.65 289.8 230 291 230.5 291 231 291 235 291 238.95 291.5 239 291.5 239 292 249.8 294.2 263 294 263.5 294 264 294 281.6 288.1 291.75 274.8 292 274.5 292 274 292 273.5 292.1 273 294.3 261.85 295 257 295.5 257 295.6 256.8 300.1 246.9 295 249
L 295 249.5
Q 291.7 240.2 298 235 298 235.5 298.25 235.7 299.85 236.95 301 224 300.5 224 300.45 223.85 299.6 220.8 298 218 298 217.5 298.2 217.4 303.6 214.55 300 213 300 213.5 299.95 213.5 290.7 214.05 301 206 301 205.5 300.95 205.5 293.6994140625 204.9458984375 290.5 205
L 290.4 205
Q 289.333203125 204.759765625 289 199 288.5 199 288.4 199.2 286.65 203.2 283 208 283 207.5 282.85 207.05 280.3 199.85 283 199 282.5 199 282 199 266.9 198.9 272 206
L 272 205.5
Q 275.45 208 265 206 265.5 206 265.6 205.8 268.7 199.5 262 203 262 202.5 262.05 202 262.55 192.1 250 203 250 203.5 249.85 203.95 247.8 211.3 242 215 242 215.5 241.8 215.85 238.9 220.4 234 223 234 223.5 233.85 223.95 232.65 227.15 228 227 228 227.5 227.75 227.75 220.15 235.65 208 239 208 239.5 207.75 239.65 201.4 243.9 194 242 196.5 242 198.9 241.5 199 241.5 199 241 198.5 241 198 241 191.85 241.1 188 239 187.5 239 187.25 239.25 184.8 241.8 179 241 178.5 241 178.35 241.25 176 244.7 174 239 174 238.5 173.8 238.1 172.45 235.55 171 233 170.5 233 170.5 232.95 170 227.5 170 222 170 221.5 170 221 170 214 170 207 170 206.5 170 206 170.7 191.8 169 185 Z" stroke="none" fill="#F7D03F"></path>

<path d="M 173 166
Q 172.5 166 172 166 172 172 172 178 172 178.5 172 179 172.5 179 173 179 173 178.5 173 178 173 172 173 166 Z" stroke="none" fill="#CDB075"></path>

<path d="M 173 143
Q 172.5 143 172 143 172 154 172 165 172 165.5 172 166 172.5 166 173 166 173 165.5 173 165 173 154 173 143 Z" stroke="none" fill="#D1B374"></path>

<path d="M 172 142
Q 172 142.5 172 143 172.5 143 173 143 173 142.5 173 142 173 135 173 128 172.5 128 172 128 172 135 172 142 Z" stroke="none" fill="#AB8E51"></path>

<path d="M 194 116
Q 193.5 116 193 116 187.5 116 182 116 181.5 116 181.05 116.15 175 118.5 173 125 173 126 173 127 173 127.5 173 128 173 135 173 142 173 142.5 173 143 173 154 173 165 173 165.5 173 166 173 172 173 178 173 178.5 173 179 173 184.5 173 190 173 190.5 173 191 173 191.5 173.05 192 173.75 200.75 172 207 172 207.5 172 208 172 208.5 172.05 209 172.75 213.75 171 216 171 218.5 171 221 171 221.5 171 222 171 227 171 232 171 232.5 171 233 172.45 235.55 173.8 238.1 174 238.5 174 239 175.65 240.35 179 240.5
L 179 241
Q 184.8 241.8 187.25 239.25 187.5 239 188 239 191.85 241.1 198 241 198.5 241 199 241 202.5 240 206.05 239.1 206.5 239 207 239 207 238.5 207 238 216.95 232.95 226.8 227.6 227 227.5 227 227 227 226.5 227 226 230.3 225.3 232.25 223.25 232.5 223 233 223 233 222.5 233 222 237.15 219.15 240.3 215.25 240.5 215 241 215 241 214.5 241 214 246.5 209.5 249.45 202.15 249.5 202 250 202 250 201.5 250 201 250 200.5 250 200 253.35 194.35 253.95 186 254 185.5 254 185 254 184.5 254 184 254 178.5 254 173 254 172.5 253.9 172.05 242.25 125.75 194 116
M 204 122.9
Q 204.5 123 205 123 214.75 127.25 221.75 134.25 222 134.5 222 135 212.65 132.85 206.25 127.7 206 127.5 206 127 196.5 126 189.2 122.6 189 122.5 189 122 196.4 121.25 204 122.9
M 208.8 134.4
Q 209 134.5 209 135 213.45 136.5 216.75 139.3 217 139.5 217 140 221.1 141.9 223.75 145.2 224 145.5 224 146 234.15 155.35 236.9 172 237 172.5 237 173 238.75 177.25 237.5 183.9 237.5 184 237 184 237 184.5 237.1 184.95 237.65 187.15 236 187 236 187.5 235.85 187.95 226.85 212.85 203 223 203 223.5 203 224 203 224.5 202.85 224.55 195.25 227.2 188 225 188 224.5 188 224 188 218 188 212 188 211.5 188 211 188 204 188 197 188 196.5 188 196 188 190 188 184 188 183.5 188 183 188 179 188 175 188.5 175 189 175 189 174.5 189 174 189 173 189 172 188.5 172 188.5 171.95 188 165.5 188 159 188.5 159 189 159 189 158.5 189 158 189 149.5 189 141 189 140.5 189 140 189 134.5 189 129 189.5 129 190 129 195.65 128.85 199.85 130.45 200 130.5 200 131 200.5 131 201 131 205 132.5 208.8 134.4
M 231.2 143.9
Q 231 143.5 231 143 240.45 151.5 246.75 158.25 247 158.5 247 159 250.05 170.75 247.1 183.05 247 183.5 247 184 241.85 183.1 240.15 178.95 240 178.5 240 178 241.4 170.65 241.5 166
L 242 166
Q 234.95 159.65 237.8 152.9 238 152.5 238 152 233.9 148.6 231.2 143.9
M 177.9 125.95
Q 178 125.5 178 125 181.75 136.5 183.8 135.6 184 135.5 184 135 186.45 138.7 182.5 143
L 183 143
Q 192.15 148.05 182.25 160.2 182 160.5 182 161 178.85 166.05 186.8 169.45 187 169.5 187 170 187.9 177.9 182.75 182.75 182.5 183 182 183 188.3 192.85 180.95 195.85 180.77734375 195.9076171875 180.6 195.95 182.4693359375 196.2498046875 185.8 202.1 186 202.5 186 203 184.6 205.55 184.05 215 184 215.5 184 216 179.65 217.8 178 220.5
L 178 220
Q 178.2 212.85 174.15 200.95 174 200.5 174 200 180.7 203.65 180.5 200.05 180.5 200 180 200 173 186.15 176.5 162
L 176 162
Q 180.55 148.2 174.25 141.75 174 141.5 174 141 176.1 133.6 177.9 125.95
M 245.75 192.75
Q 245.5 193 245 193 244.15 193.05 247.5 198
L 247 198
Q 240.4 214.15 230.05 213.5 230 213.5 230 213 236 196 246 188.5
L 246 189
Q 254.2 184.3 245.75 192.75
M 222.25 215.75
Q 222 215.5 222 215 233.65 227.15 222.25 215.75
M 214 225.5
L 214 226
Q 209.65 234.65 199 236.9 198.5 237 198 237 195.1 235.7 190.25 231.7 190 231.5 190 231 202.65 231.9 214 225.5
M 174.1 218
Q 174 217.5 174 217 175.8 228.05 174.1 218
M 178.1 235.5
Q 178 235.5 178 235 185 237.1 178.1 235.5 Z" stroke="none" fill="#1E0901"></path>

<path d="M 178 235
Q 178 235.5 178.1 235.5 185 237.1 178 235 Z" stroke="none" fill="#120110"></path>

<path d="M 174 217
Q 174 217.5 174.1 218 175.8 228.05 174 217 Z" stroke="none" fill="#050105"></path>

<path d="M 214 226
L 214 225.5
Q 202.65 231.9 190 231 190 231.5 190.25 231.7 195.1 235.7 198 237 198.5 237 199 236.9 209.65 234.65 214 226 Z" stroke="none" fill="#09020B"></path>

<path d="M 222 215
Q 222 215.5 222.25 215.75 233.65 227.15 222 215 Z" stroke="none" fill="#0F020F"></path>

<path d="M 245 193
Q 245.5 193 245.75 192.75 254.2 184.3 246 189
L 246 188.5
Q 236 196 230 213 230 213.5 230.05 213.5 240.4 214.15 247 198
L 247.5 198
Q 244.15 193.05 245 193 Z" stroke="none" fill="#09020D"></path>

<path d="M 178 125
Q 178 125.5 177.9 125.95 176.1 133.6 174 141 174 141.5 174.25 141.75 180.55 148.2 176 162
L 176.5 162
Q 173 186.15 180 200 180.5 200 180.5 200.05 180.7 203.65 174 200 174 200.5 174.15 200.95 178.2 212.85 178 220
L 178 220.5
Q 179.65 217.8 184 216 184 215.5 184.05 215 184.6 205.55 186 203 186 202.5 185.8 202.1 182.4693359375 196.2498046875 180.6 195.95 180.77734375 195.9076171875 180.95 195.85 188.3 192.85 182 183 182.5 183 182.75 182.75 187.9 177.9 187 170 187 169.5 186.8 169.45 178.85 166.05 182 161 182 160.5 182.25 160.2 192.15 148.05 183 143
L 182.5 143
Q 186.45 138.7 184 135 184 135.5 183.8 135.6 181.75 136.5 178 125 Z" stroke="none" fill="#060208"></path>

<path d="M 231 143
Q 231 143.5 231.2 143.9 233.9 148.6 238 152 238 152.5 237.8 152.9 234.95 159.65 242 166
L 241.5 166
Q 241.4 170.65 240 178 240 178.5 240.15 178.95 241.85 183.1 247 184 247 183.5 247.1 183.05 250.05 170.75 247 159 247 158.5 246.75 158.25 240.45 151.5 231 143 Z" stroke="none" fill="#050208"></path>

<path d="M 189 212
Q 188.5 212 188 212 188 218 188 224 188 224.5 188 225 188.5 225 189 225 189 224.5 189 224 189 221 189 218 189 217.5 189 217 189 214.5 189 212 Z" stroke="none" fill="#B68E2D"></path>

<path d="M 190 208
Q 189.5 208 189 208 189 209.5 189 211 189 211.5 189 212 189 214.5 189 217 189 217.5 189 218 190.75 214.75 190.05 209 190 208.5 190 208 Z" stroke="none" fill="#E8C460"></path>

<path d="M 202.85 224.55
Q 203 224.5 203 224 202.5 224 202 224.1 196.35 225.35 189 225 188.5 225 188 225 195.25 227.2 202.85 224.55 Z" stroke="none" fill="#866A21"></path>

<path d="M 237 184
Q 237.5 184 237.5 183.9 238.75 177.25 237 173 237 175.5 237 178 237 178.5 237 179 237 181 237 183 237 183.5 237 184 Z" stroke="none" fill="#745606"></path>

<path d="M 237 179
Q 236.5 179 236 179 236 182.5 236 186 236 186.5 236 187 237.65 187.15 237.1 184.95 237 184.5 237 184 237 183.5 237 183 237 181 237 179 Z" stroke="none" fill="#CEB15E"></path>

<path d="M 190 194
Q 189.5 194 189 194 189 195 189 196 189 196.5 189 197 189 202 189 207 189 207.5 189 208 189.5 208 190 208 190 207.5 190 207 190 200.5 190 194 Z" stroke="none" fill="#EDCD70"></path>

<path d="M 189 197
Q 188.5 197 188 197 188 204 188 211 188 211.5 188 212 188.5 212 189 212 189 211.5 189 211 189 209.5 189 208 189 207.5 189 207 189 202 189 197 Z" stroke="none" fill="#956E0A"></path>

<path d="M 189 184
Q 188.5 184 188 184 188 190 188 196 188 196.5 188 197 188.5 197 189 197 189 196.5 189 196 189 195 189 194 189 193.5 189 193 189 188.5 189 184 Z" stroke="none" fill="#6E4F05"></path>

<path d="M 189 183
Q 189 179 189 175 188.5 175 188 175 188 179 188 183 188 183.5 188 184 188.5 184 189 184 189 183.5 189 183 Z" stroke="none" fill="#563C02"></path>

<path d="M 190 159
Q 189.5 159 189 159 189 165 189 171 189 171.5 189 172 189 173 189 174 189 174.5 189 175 189 179 189 183 189 183.5 189 184 189 188.5 189 193 189 193.5 189 194 189.5 194 190 194 190 193.5 190 193 190 187 190 181 190 180.5 190 180 190 169.5 190 159 Z" stroke="none" fill="#D9BA6D"></path>

<path d="M 189 159
Q 188.5 159 188 159 188 165.5 188.5 171.95 188.5 172 189 172 189 171.5 189 171 189 165 189 159 Z" stroke="none" fill="#4F3401"></path>

<path d="M 190 140
Q 190.5 140 191 140.1 193.85 140.75 198 145
L 198.5 145
Q 198.4 131.45 190 138 190 138.5 190 139 190 139.5 190 140
M 207 147
L 207 146.5
Q 201.2 148.05 194 152 194 152.5 194.1 152.5 205.95 154.65 207 154 207 153.5 207.15 153.05 208.65 147.4 207 147 Z" stroke="none" fill="#FABC3E"></path>

<path d="M 190 141
Q 189.5 141 189 141 189 149.5 189 158 189 158.5 189 159 189.5 159 190 159 190 158.5 190 158 190 149.5 190 141 Z" stroke="none" fill="#B19A65"></path>

<path d="M 190 132
Q 190 131.5 190 131 190 130 190 129 189.5 129 189 129 189 134.5 189 140 189 140.5 189 141 189.5 141 190 141 190 140.5 190 140 190 139.5 190 139 190 138.5 190 138 190 137.5 190 137 190 134.5 190 132 Z" stroke="none" fill="#8B6B40"></path>

<path d="M 200 131
Q 200 130.5 199.85 130.45 195.65 128.85 190 129 190 130 190 131 190 131.5 190 132 193.4 130.4 199 130.95 199.5 131 200 131 Z" stroke="none" fill="#C6A968"></path>

<path d="M 224 146
Q 224 145.5 223.75 145.2 221.1 141.9 217 140 218.8 144.2 223.05 145.85 223.5 146 224 146 Z" stroke="none" fill="#C1A158"></path>

<path d="M 212.9 144.2
Q 212.5 144 212 144 205.35 137.15 201.5 133
L 202 133
Q 202 132.5 201.8 132.1 201.5 131.5 201 131 200.5 131 200 131 199.5 131 199 130.95 193.4 130.4 190 132 190 134.5 190 137 190 137.5 190 138 198.4 131.45 198.5 145
L 198 145
Q 193.85 140.75 191 140.1 190.5 140 190 140 190 140.5 190 141 190 149.5 190 158 190 158.5 190 159 190 169.5 190 180 190 180.5 190 181 196.4 190.6 194 189.5
L 194 190
Q 199.95 191.4 207.05 189.15 207.5 189 208 189 212.55 193.55 217.25 189.25 217.5 189 218 189 226.45 187.8 225.5 195
L 226 195
Q 225.15 188.8 229.3 183.25 229.5 183 230 183 230.3 190.9 233.45 181.15 233.5 181 234 181 233.45 173.2 230.95 173.85 230.5 174 230 174 231.8 167.65 228.2 159.9 228 159.5 228 159 221.05 148.45 212.9 144.2
M 207 146.5
L 207 147
Q 208.65 147.4 207.15 153.05 207 153.5 207 154 205.95 154.65 194.1 152.5 194 152.5 194 152 201.2 148.05 207 146.5
M 202.2 142.65
Q 202 142.5 202 142 208.25 146.25 202.2 142.65 Z" stroke="none" fill="#F8C23E"></path>

<path d="M 202 142
Q 202 142.5 202.2 142.65 208.25 146.25 202 142 Z" stroke="none" fill="#FBBC3E"></path>

<path d="M 209 135
Q 208.5 135 208 135 204.1 134.9 202 133
L 201.5 133
Q 205.35 137.15 212 144 212.5 144 212.9 144.2 221.05 148.45 228 159 228 159.5 228.2 159.9 231.8 167.65 230 174 230.5 174 230.95 173.85 233.45 173.2 234 181 233.5 181 233.45 181.15 230.3 190.9 230 183 229.5 183 229.3 183.25 225.15 188.8 226 195
L 225.5 195
Q 226.45 187.8 218 189 217.5 189 217.25 189.25 212.55 193.55 208 189 207.5 189 207.05 189.15 199.95 191.4 194 190
L 194 189.5
Q 196.4 190.6 190 181 190 187 190 193 190 193.5 190 194 190 200.5 190 207 190 207.5 190 208 190 208.5 190.05 209 190.75 214.75 189 218 189 221 189 224 189 224.5 189 225 196.35 225.35 202 224.1 202.5 224 203 224 203 223.5 203 223 226.85 212.85 235.85 187.95 236 187.5 236 187 236 186.5 236 186 236 182.5 236 179 236.5 179 237 179 237 178.5 237 178 237 175.5 237 173 237 172.5 236.9 172 234.15 155.35 224 146 223.5 146 223.05 145.85 218.8 144.2 217 140 217 139.5 216.75 139.3 213.45 136.5 209 135
M 192.15 191.55
Q 192 191.5 192 191 206.55 195.45 192.15 191.55
M 204 193.5
L 204 193
Q 217.8 193.1 204 193.5
M 204.25 201.65
Q 204 201.5 204 201 213.5 208.15 204.25 201.65
M 198 201
Q 201.35 206.7 198.25 201.85 198 201.5 198 201 Z" stroke="none" fill="#F2C745"></path>

<path d="M 198.25 201.85
Q 201.35 206.7 198 201 198 201.5 198.25 201.85
M 204 201
Q 204 201.5 204.25 201.65 213.5 208.15 204 201 Z" stroke="none" fill="#F6C33D"></path>

<path d="M 204 193
L 204 193.5
Q 217.8 193.1 204 193 Z" stroke="none" fill="#F7C33D"></path>

<path d="M 192 191
Q 192 191.5 192.15 191.55 206.55 195.45 192 191 Z" stroke="none" fill="#F8C33D"></path>

<path d="M 209 135
Q 209 134.5 208.8 134.4 205 132.5 201 131 201.5 131.5 201.8 132.1 202 132.5 202 133 204.1 134.9 208 135 208.5 135 209 135 Z" stroke="none" fill="#C5A15E"></path>

<path d="M 205 123
Q 204.5 123 204 122.9 196.4 121.25 189 122 189 122.5 189.2 122.6 196.5 126 206 127 206 127.5 206.25 127.7 212.65 132.85 222 135 222 134.5 221.75 134.25 214.75 127.25 205 123 Z" stroke="none" fill="#0A020D"></path>

<path d="M 193 116
Q 193.5 116 194 116 194 115.5 193.95 115.5 188 115 182 115 182 115.5 182 116 187.5 116 193 116 Z" stroke="none" fill="#5D4002"></path>

<path d="M 236 71
Q 236.3 74.2 241 73.1 241.5 73 242 73 242 72.5 241.75 72.2 240.2 70.25 236 71 Z" stroke="none" fill="#656354"></path>

<path d="M 228 71
Q 228 70.5 227.8 70.35 224.25 68.25 218 69 221.25 71.25 227 71 227.5 71 228 71 Z" stroke="none" fill="#666252"></path>

<path d="M 183 74.9
Q 183.5 75 184 75 184 74.5 183.85 74.45 169.95 69.05 151 69 151 69.5 151 70 151 70.5 151 71 156.5 71 161.95 71.5 162 71.5 162 72 173 73 183 74.9 Z" stroke="none" fill="#A36513"></path>

<path d="M 193 76.1
Q 193.5 76 194 76 197.25 76.75 200.9 77.5 201 77.5 201 78 205 78 209 78 209.5 78 210 78 210 77.5 209.85 77.45 201.15 74.85 190 75 190.3 76.7 193 76.1 Z" stroke="none" fill="#A2650D"></path>

<path d="M 200 78.05
Q 195.55 78.45 194 76 193.5 76 193 76.1 190.3 76.7 190 75 189.5 75 189 75 186.5 75 184 75 183.5 75 183 74.9 173 73 162 72 161.5 72 161 72 155 72 149 72 148.5 72 148.1 72.2 118.669921875 86.4421875 107.9 119.4 104.006640625 131.4287109375 102.55 145.95 101.6083984375 155.7462890625 101.75 166.65 102.4921875 168.9048828125 102.05 172 102 172.5 102 173 102 173.5 102 174 102 174.5 101.95 175 100.2 191.7 97 207 97 208.5 97 210 97 210.5 97 211 97 211.5 97.05 212 97.7 216.2 96 218 96 218.5 96.1 219 96.7 222.2 95 223 95 224.5 95 226 95 226.5 95 227 95 232.5 95 238 95 238.5 95 239 96.3 246.2 99.4 251.8 99.5 252 100 252 100 251.5 100.05 251 100.55 244.9 98 240 98 239.5 98.05 239 99.25 230.3 98 221 101.95 202.3 106.5 188
L 106 188
Q 104.45 183.1 109.15 180.2 109.5 180 110 180 113.5 177.45 116.1 178.8 116.5 179 117 179 125.8 174.45 122.55 182.85 122.5 183 122 183 121.4 186.75 135.85 181.55 136 181.5 136 181 150.9 181.75 144.15 179.55 144 179.5 144 179 135.15 179.35 128.9 182.8 128.5 183 128 183 122.05 175.2 132.05 177.85 132.5 178 133 178 142.75 170.5 147.4 178.8 147.5 179 148 179 158.2 184.55 155.5 176
L 156 176
Q 162.6 173.55 160.5 187
L 161 187
Q 165.65 192.75 168.45 185.15 168.5 185 169 185 170.7 191.8 170 206 170 206.5 170 207 170.5 207 170.75 207.25 171 207.5 171 208 171.5 208 172 208 172 207.5 172 207 172 206.5 172 206 172 198.5 172 191 172 190.5 172 190 172 184.5 172 179 172 178.5 172 178 172 172 172 166 172 165.5 172 165 172 154 172 143 172 142.5 172 142 172 135 172 128 172.5 128 173 128 173 127.5 173 127 173 126 173 125 175 118.5 181.05 116.15 181.5 116 182 116 182 115.5 182 115 188 115 193.95 115.5 194 115.5 194 116 242.25 125.75 253.9 172.05 254 172.5 254 173 255.75 177.75 254.5 184.9 254.5 185 254 185 254 185.5 253.95 186 253.35 194.35 250 200 250 200.5 250 201 250 201.5 250 202 250 202.5 250 203 262.55 192.1 262.05 202 262 202.5 262 203 268.7 199.5 265.6 205.8 265.5 206 265 206 275.45 208 272 205.5
L 272 206
Q 266.9 198.9 282 199 282.5 199 283 199 280.3 199.85 282.85 207.05 283 207.5 283 208 286.65 203.2 288.4 199.2 288.5 199 289 199 289.333203125 204.759765625 290.4 205
L 290.5 205
Q 293.6994140625 204.9458984375 300.95 205.5 301 205.5 301 206 290.7 214.05 299.95 213.5 300 213.5 300 213 303.6 214.55 298.2 217.4 298 217.5 298 218 299.6 220.8 300.45 223.85 300.5 224 301 224 299.85 236.95 298.25 235.7 298 235.5 298 235 291.7 240.2 295 249.5
L 295 249
Q 300.1 246.9 295.6 256.8 295.5 257 295 257 294.3 261.85 292.1 273 292 273.5 292 274 295.95 269.95 297.5 263.1 297.5 263 298 263 298 262.5 298 262 298 260.5 298 259 298 258.5 298 258 298 256.5 298 255 298.5 255 299 255 299 254.5 299 254 299 253 299 252 303.25 224.75 307.9 198 308 197.5 308 197 308 196.5 308 196 308 193.5 308 191 311.15 167.15 314.9 144 315 143.5 315 143 315 142.5 315 142 315 138 315 134 315.5 134 316 134 316 133.5 316 133 316 128.5 316 124 315.5 124 315.4 123.8 296.625390625 81.1212890625 234.5 82
L 234 82
Q 233.5 82 233 82 222.55 81.45 214 79 213.5 79 213 79.1 210.3 79.7 210 78 209.5 78 209 78 205 78 201 78 200.5 78 200 78.05
M 298.5 109
L 298 109
Q 297.8 114.65 289.05 115.5 289 115.5 289 116 212.85 101.5 137.1 84.5 137 84.5 137 84 140.1 81.6 142.75 78.75 143 78.5 143 78 233.95 75.55 298.5 109
M 278 185.5
L 278 185
Q 291.25 185.5 278 185.5
M 151.25 170.75
Q 151 170.5 151 170 156.05 175.55 151.25 170.75 Z" stroke="none" fill="#F8BF43"></path>

<path d="M 151 170
Q 151 170.5 151.25 170.75 156.05 175.55 151 170
M 278 185
L 278 185.5
Q 291.25 185.5 278 185 Z" stroke="none" fill="#F9CB3E"></path>

<path d="M 298 109
L 298.5 109
Q 233.95 75.55 143 78 143 78.5 142.75 78.75 140.1 81.6 137 84 137 84.5 137.1 84.5 212.85 101.5 289 116 289 115.5 289.05 115.5 297.8 114.65 298 109 Z" stroke="none" fill="#FEDB6A"></path>

<path d="M 194 76
Q 195.55 78.45 200 78.05 200.5 78 201 78 201 77.5 200.9 77.5 197.25 76.75 194 76 Z" stroke="none" fill="#C3872E"></path>

<path d="M 183 65
Q 183 64.5 182.8 64.15 181.7 62.3 178 63 177.9 66.1 182.05 65.1 182.5 65 183 65 Z" stroke="none" fill="#666354"></path>

<path d="M 194 65
Q 194.3 68.2 199 67.1 199.5 67 200 67 200 66.5 199.75 66.2 198.2 64.25 194 65 Z" stroke="none" fill="#616254"></path>

<path d="M 290 81
Q 290 80.5 289.8 80.35 287.5 78.95 284 79 284.3 82.2 289 81.1 289.5 81 290 81 Z" stroke="none" fill="#686353"></path>

<path d="M 306 97
Q 305.5 97 305.1 96.8 273.45 80.7 234 80 234 80.5 234 81 234.5 81.5 234.5 82 296.625390625 81.1212890625 315.4 123.8 315.5 124 316 124 316 128.5 316 133 316 133.5 316 134 316 134.5 316.05 135 316.75 140.25 315 143 315 143.5 314.9 144 311.15 167.15 308 191 308 193.5 308 196 308 196.5 308 197 308.5 197.5 308.8 198.1 309 198.5 309 199 309.5 199 309.5 198.9 316.3 159.25 319 125 319 124.5 319.1 124 319.45 121.9 316 121 316 120.5 316.1 120.05 317.5 114 312 110 312 109.5 311.8 109.1 309.1 104.2 306 97 Z" stroke="none" fill="#A86718"></path>

<path d="M 258 75
Q 258 74.5 257.75 74.3 255.25 72.25 250 73 253.35 74.15 257 74.9 257.5 75 258 75 Z" stroke="none" fill="#676250"></path>

<path d="M 334.75 272.2
Q 333 270 331 268 331.25 271.75 334.05 272.85 334.5 273 335 273 335 272.5 334.75 272.2 Z" stroke="none" fill="#254249"></path>

<path d="M 325 263
Q 324.5 263 324.05 262.8 320.65 261.4 319 258 318.5 258 318.15 257.75 317 257 316 256 315.5 256 315.15 255.75 312.75 254.25 310 253 310 253.5 310 254 310 254.5 310 255 310 255.5 309.95 256 309.7 257.7 308 258 308 259.5 308 261 308 261.5 308 262 308 263.5 308 265 308 265.5 308 266 311.5 268.5 314.75 271.3 315 271.5 315 272 315 272.5 315.25 272.65 321.3 276.55 311 277 311 277.5 310.95 277.5 307.45 277.95 305 279 304.5 279 304.25 279.25 301.1 282.1 296 283 296 283.5 296 284 296.1 287.8 293 291 295.6 293.45 301 293.05 301.5 293 302 293 304.6 291.1 307.8 289.6 308 289.5 308 289 316.7 288.2 325 287.05 325.5 287 326 287 337.5 285 335.1 274 335 273.5 335 273 334.5 273 334.05 272.85 331.25 271.75 331 268 330.5 268 330.3 267.75 328 265 325 263 Z" stroke="none" fill="#040910"></path>

<path d="M 325 263
Q 325 262.5 324.75 262.2 322.6 259.4 319 258 320.65 261.4 324.05 262.8 324.5 263 325 263 Z" stroke="none" fill="#233E45"></path>

<path d="M 324.1 164
Q 324 163.5 324 163 323.5 163 323 163 322.5 163 322 163 322 167 322 171 322 171.5 322 172 325.1 170.1 324.1 164 Z" stroke="none" fill="#676353"></path>

<path d="M 326 125
Q 326 124.5 325.9 124.05 318.45 92.05 290 81 289.5 81 289 81.1 284.3 82.2 284 79 283.5 79 283 78.95 274.3 78.2 266 77 265.5 77 265 77.1 259.2 78.3 258 75 257.5 75 257 74.9 253.35 74.15 250 73 249.5 73 249 73 245.5 73 242 73 241.5 73 241 73.1 236.3 74.2 236 71 235.5 71 235 71 231.5 71 228 71 227.5 71 227 71 221.25 71.25 218 69 217.5 69 217 68.9 209.1 67.4 200 67 199.5 67 199 67.1 194.3 68.2 194 65 193.5 65 193 65 188 65 183 65 182.5 65 182.05 65.1 177.9 66.1 178 63 177.5 63 177 63 174.5 63 172 63 171.5 63 171 63.1 164.15 64.35 162 61 161.5 61 161 61 157 61 153 61 152.5 61 152 61.05 144.55 61.55 138 63 138 63.5 137.85 63.95 137.2 65.7 134 65 133.5 65 133.1 65.2 112.7 76.2 102 97 102 98.5 102 100 102 100.5 102 101 102 101.5 102.1 102 103.2 106.7 100 107 100 108.5 100 110 100 110.5 100 111 100 111.5 100.1 112 101.2 116.7 98 117 98 121.5 98 126 98 126.5 98 127 98 127.5 98.1 128 99.2 132.7 96 133 96 137.5 96 142 96 142.5 96 143 96 143.5 95.9 144 95.5 146 94 147 94 147.5 94.05 148 95.3 156.3 92 160 92 163 92 166 92 166.5 92 167 92 167.5 92.1 168 93.2 172.7 90 173 90 177.5 90 182 90 182.5 90 183 90 183.5 90.1 184 91.2 188.7 88 189 88 189.5 88 190 88 190.5 88 191 88 191.5 88.05 192 89.45 200.95 86 205 86 207.5 86 210 86 210.5 86 211 86 211.5 86.1 212 87.3 217.8 84 219 84 220 84 221 84 221.5 84 222 84 222.5 84 223 86.7 222.8 87.75 224.2 88 224.5 88 225 88.5 225 88.65 225.2 92.45 231.6 86 233 86 233.5 86.05 234 86.15 235.65 84 235 84 238.5 84 242 84 242.5 84 243 84 244.5 84 246 84 246.5 84 247 86.9 246.6 86.1 250.05 86 250.5 86 251 91.55 264.95 101.75 274.25 102 274.5 102 275 105.85 275.65 107.75 278.2 108 278.5 108 279 110.15 278.4 110.05 280 110 280.5 110 281 113.2 280.3 113.85 282.05 114 282.5 114 283 120.8 285.7 129 286.95 129.5 287 130 287 131.5 287 133 287 133.5 287 134 287 139 287 143.95 287.5 144 287.5 144 288 144.5 288 144.75 288.25 145 288.5 145 289 145.5 289.5 145.8 290.1 146 290.5 146 291 154.25 290.25 159.85 292.45 160 292.5 160 293 166.25 292.25 169.8 294.35 170 294.5 170 295 173.5 295 177 295 177.5 295 178 295 184.25 294.25 187.8 296.35 188 296.5 188 297 188.5 297 189 297 189.5 297 190 297 195.95 296.6 199.8 298.4 200 298.5 200 299 202 299 204 299 204.5 299 205 299 209.75 298.25 211.75 300.25 212 300.5 212 301 215.5 301 219 301 219.5 301 220 301 224.2 300.25 225.75 302.2 226 302.5 226 303 226.5 303 227 303 227.5 303 228 303 232.2 302.25 234.2 303.75 234.5 304 235 304 243 298.25 250.75 304.3 251 304.5 251 305 251.8 307.2 255 307 255.5 307 256 307 256.5 307 257 307 257.5 307 258 307 258 306.5 258 306 258 305.5 258 305 261 305 264 305 264.5 305 265 305 265.5 305 266 305 266 304.5 266 304 266 303.5 266 303 269 303 272 303 272.5 303 273 303 273.5 303 274 303 274 302.5 274 302 274 301.5 274 301 276.5 301 279 301 279.5 301 280 301 280 300.5 280 300 280 299.5 280 299 280.5 299 281 299 281.5 299 282 299 282 298.5 282 298 282 297.5 282 297 285.5 296 289.05 295.1 289.5 295 290 295 290 294.5 290 294 290 292.5 290 291 290.5 291 291 291 291.5 291 292 291 292 290.5 291.75 290.35 289 288.55 290 283 289.5 283 289.15 283.25 284.6 286.1 282 291 281.5 291 281.05 291.1 273.45 292.95 268 297 267.5 297 267 297 245.65 296.7 235 297 234.5 297 234.25 296.75 230.8 293.25 226 295 226 294.5 225.8 294.35 223.5 293 221 292 220.5 292 220 291.95 207.35 291 195 293 195 292.5 194.8 292.4 192.25 291.25 190 290 189.5 290 189 290 185.5 290 182 290 182 289.5 181.9 289.5 159.95 285.5 147 281 146.5 281 146 280.95 139 280.5 134 282 134 281.5 133.75 281.35 125.95 276.05 114 275 114 274.5 113.8 274.15 110.05 268.1 105 269
L 104.5 269
Q 104.15 259.35 95 259
L 94.5 259
Q 94.1 242.35 92 223 95.25 210.05 95.95 217 96 217.5 96 218 97.7 216.2 97.05 212 97 211.5 97 211 96.5 211 96.3 210.75 94.55 208.45 94 205 97.05 193.9 97.95 181 98 180.5 98 180 100.3 177.3 101.45 173.15 101.49765625 173.00703125 101.95 173
L 102 173
Q 102 172.5 102.05 172 102.4921875 168.9048828125 101.75 166.65 101.009375 164.3734375 99 163 100.826171875 154.4119140625 102.55 145.95 104.006640625 131.4287109375 107.9 119.4 111.059375 103.4630859375 113.9 88 114 87.5 114 87 128.45 72.45 150 70.05 150.5 70 151 70 151 69.5 151 69 169.95 69.05 183.85 74.45 184 74.5 184 75 186.5 75 189 75 189.5 75 190 75 201.15 74.85 209.85 77.45 210 77.5 210 78 210.3 79.7 213 79.1 213.5 79 214 79 224.6 77.4 233.05 80.85 233.5 81 234 81 234 80.5 234 80 273.45 80.7 305.1 96.8 305.5 97 306 97 309.1 104.2 311.8 109.1 312 109.5 312 110 317.5 114 316.1 120.05 316 120.5 316 121 319.45 121.9 319.1 124 319 124.5 319 125 316.3 159.25 309.5 198.9 309.5 199 309 199 309 199.5 309 200 308.85 217 304 227 304 227.5 304.15 227.95 305.9 233.15 305 236 305 236.5 305.2 236.9 311.85 251.05 302 247 300.9 251.1 303.95 251.5 304 251.5 304 252 306.5 252 309 252 309.5 252 310 252 310 251.5 310 251 310 249 310 247 312.15 243.65 313.45 239.15 313.5 239 314 239 314 238.5 314 238 314 233.5 314 229 314 228.5 314 228 314 225.5 314 223 314.5 223 315 223 315.5 223 316 223 316 222.5 316 222 316 221.5 316 221 316 220.5 316 220 316 214.5 316 209 316.5 209 317 209 317.5 209 318 209 318 208.5 318 208 318 203.5 318 199 321.05 195.55 320.05 188 320 187.5 320 187 320 186.5 320 186 320 184.5 320 183 320.5 183 321 183 321.5 183 322 183 322 182.5 322 182 322 177 322 172 322 171.5 322 171 322 167 322 163 322.5 163 323 163 323.5 163 324 163 324 162.5 324 162 324 160.5 324 159 327.65 147.15 328 132 328 131.5 328 131 327.5 131 327.2 130.75 325.25 129.2 326 125
M 212 296
Q 226.85 296.5 212 296.5
L 212 296 Z" stroke="none" fill="#9A612E"></path>

<path d="M 212 296.5
Q 226.85 296.5 212 296
L 212 296.5 Z" stroke="none" fill="#A96623"></path>
</g>
</g>
</g>
</g>
</g>
</svg>
