
<svg viewBox="0 0 145 107" height="107px" width="145px" y="0px" x="0px" preserveAspectRatio="none" xmlns:xlink="http://www.w3.org/1999/xlink" version="1.1" xmlns="http://www.w3.org/2000/svg">
<defs></defs>

<g id="Layer_1"></g>

<g id="Layer_2">
<g transform="matrix( 1, 0, 0, 1, 8,14.05)" id="Layer_1">
<g>
<g>
<g>
<path d="M 26.25 -9.25
Q 18.5 -10.95 10.55 -11.15 0.4 -7.25 -2.65 3.05 -4.75 10.2 -3.55 17.55 -3.05 20.75 -1.8 23.65 0 27.9 3.35 31.2 4.3396484375 32.2345703125 5.3 33.2 1.801953125 36.4689453125 -0.85 40.5 -2.55 43.1 -3.85 46 -5 48.65 -5.95 51.3 -6.35 51.85 -6.65 52.45 -6.9 53.05 -7 53.65 -7.4 57.7 -4.45 60.85 -1.4 64.1 2.6 66.2 7.25 68.6 12.25 69.85 8.9 71.1 5.65 72.5 4.8 72.9 4.35 73.55 2.55 76.05 5.1 78.05 5.75 79.3 6.85 80.2 8 81.2 9.35 82 15.4 85.5 22.3 86.7 27.65 87.65 33.05 87.55 35.85 87.5 38.6 87.4 39.273828125 87.3654296875 39.75 87.15
L 39.8 87.15
Q 43.9 90.15 48.9 91.25 56.7 92.95 64.75 92.05 70.5 91.4 76.25 90.5 84.25 89.2 90.75 84.45
L 90.75 84.4
Q 91.3177734375 84.7916015625 92 85 92.9 85.3 93.8 85.45 105.55 87.25 116 81.8 122.4 78.45 125.9 72.35 126.35 71.65 126 70.9 124.45 67.25 120.35 65.75 118.5 65.1 117.6 64.4 123.6 62.55 129.4 60.15 130.3 59.75 130.8 59 131.2798828125 58.25703125 131.35 57.65 131.801953125 56.562109375 131.55 55.05 130.45 49.2 127.9 43.75 125.35 38.3 121.65 33.6 120.3142578125 31.9001953125 118.8 30.4 121.14375 28.8546875 123.1 26.6 128.5 20.3 128.25 12.2 128 4.2 124.15 -2.75 121.9 -6.8 118.95 -10.4 115.4 -14.85 109.6 -13.9 107 -13.9 104.4 -13.45 93.95 -11.75 87.15 -3.85 86.2626953125 -2.81484375 85.7 -1.6 85.3626953125 -1.2509765625 85 -0.9 83.7 0.35 82.2 1.4 80.75 -0.9 78.9 -2.95 74.65 -7.5 69 -10.15 65.9 -11.6 62.6 -12.35 56.55 -13.75 50.25 -13.25 46.45 -13.1 42.85 -11.75 41.15 -11.15 40.65 -9.45 40.3 -8.15 41.5 -7.45 43.7 -6.25 45.9 -5.2 44.48359375 -4.5603515625 43 -4 42.5666015625 -4.6048828125 41.4 -5 33.95 -7.5 26.25 -9.25
M 14.7 -2.55
Q 12.5 -1.9 10.85 -0.1 6.3 4.95 5.55 11.55 4.9 17.7 6.6 23.65 7.5630859375 27.1171875 10.1 29.35 9.3048828125 29.9130859375 8.5 30.5 7.9919921875 29.7640625 7.25 29.15 3.6 26.15 1.8 21.85 0.85 19.55 0.15 17.15 0.2 16.3 0.05 15.45 -0.4 12.85 0 10.2 0.35 7.8 1 5.45 1.35 4.25 1.55 3 2.1 1.4 3.05 -0.05 4.75 -2.8 7.3 -4.85 9 -6.3 11.05 -7.1 20.85 -7.15 30.2 -4.45 34.5828125 -3.1396484375 38.9 -1.75 37.352734375 -0.5921875 36.05 0.9 33.15 4.15 32.75 8.45 32.4376953125 11.3806640625 32.7 14.25 30.68046875 9.9927734375 27.45 6.4 22 0.45 14.7 -2.55
M 51.55 -2.5
Q 52.7 -2.7 52.85 -3.85 53.05 -5.85 51.2 -6.85 49.3 -7.9 47.75 -8.95 52.8 -9.6 57.85 -9.1 61.8044921875 -8.6837890625 65.35 -7.4 70.326171875 -5.519140625 74.5 -1.9 75.95 -0.6 76.95 1.05 78.45 3.5 80.45 5.6 80.9 6.1 81.5 5.9 84.25 5.25 86.4 3.3 86.8515625 2.91796875 87.3 2.55 87.6634765625 2.4763671875 87.85 2.15 87.8759765625 2.0986328125 87.9 2.05 88.4517578125 1.5927734375 89 1.15 89.45 2.65 89.8 4.15 90.2 6 90.15 7.95 90.1 9.8 89.6 11.55 89.55 11.75 89.55 11.95 89.05 13.45 88.2 14.8 87.1 16.55 85.4 17.7 84.7 18.15 84.2 18.7 82.7 20.45 84.65 21.7 85.2 22.05 85.85 21.8 89.95 20.35 92 16.4 94.15 12.3 94.2 7.65 94.25 2.85 92.2 -1.4 91.85546875 -2.1251953125 91.35 -2.7 92.6310546875 -3.93125 94.15 -4.95 102.85 -10.75 113.5 -9.75 114.4 -9 115.3 -8.25 116.15 -7.45 116.9 -6.55 116.95 -6.45 117.05 -6.4 117.25 -5.85 117.65 -5.35 123 0.75 124 8.75 124.4 12.05 123.85 15.25 122.84375 21.250390625 118.75 25.45 119.1455078125 24.8486328125 119.45 24.15 121 20.55 121.3 16.55 121.9 8.45 118.65 1.2 117.25 -2 114.05 -2.6 109.25 -1.4 105.25 1.7 102.45 3.85 100.55 6.8 97.1 12.2 96.15 18.5 95.9798828125 19.5630859375 96.05 20.6 95.1865234375 20.572265625 94.3 20.6 91.95 20.55 89.65 21.25 87.95 21.75 88 23.5 88.1 25.45 90.15 25.15 90.8 25.1 91.45 25 93.625390625 24.7052734375 95.75 24.7 101.2630859375 24.721875 106.55 26.7 113.3 29.8 118 35.5 122.3 40.7 124.85 47.05 125.45 48.5 126.1 49.95 127.3 52.5 127.75 55.3 127.4994140625 55.99921875 127.45 56.6 122.521875 58.509375 117.45 60.2 116.7494140625 60.43359375 116 60.6 114.910546875 60.897265625 113.75 61.05 110.35 61.45 110.35 64.45 110.35 65.05 110.8 65.3 113.86640625 66.957421875 116.9 68.6 119.388671875 69.9298828125 121.85 71.25 121.75 71.65 121.5 71.95 118.85 75.6 114.7 77.9 106.9 82.2 97.85 82.2 95.5 82.2 93.6 81.05 93.322265625 80.871484375 93.05 80.75 92.4595703125 80.455859375 91.9 80.4 91.459375 80.09921875 90.75 79.9 90.55 79.95 90.4 80.05 87.05 82.4 83.3 84.1 79.6 85.8 75.6 86.55 67.8 88.05 59.9 88.35 51.8 88.7 44.55 85.4 42.8 84.6 41.8 83.05 40.6 81.25 38.6 81.65 37.9 81.75 37.75 82.45 37.66796875 82.8255859375 37.65 83.15 37.5984375 83.1927734375 37.55 83.2 35.544140625 83.4693359375 33.55 83.55 28.12109375 83.8365234375 22.75 82.85 16.75 81.75 11.35 78.85 10.55 78.05 9.65 77.25 9.25 76.9 8.85 76.55 8.8 76.45 8.75 76.4 8.7 76.35 8.7 76.3 8.65 76.2 8.6 76.15 8.5 76 8.45 75.9 8.4 75.8 8.35 75.75 12.1 74.1 15.85 72.55 16.4888671875 72.304296875 17.15 72.15 17.8134765625 72.00078125 18.5 71.95 21.65 71.8 21.45 69.05 21.4 68.2 20.6 67.95 16.603125 66.922265625 12.6 65.8 11.353125 65.4580078125 10.1 65.1 4.9 63.6 0.75 60.2 -1.95 58 -3.35 54.8 -3 54.15 -2.75 53.5 -1 48.85 1.45 44.45 5.25 37.5 11.9 32.85 18.5 28.25 26.35 26.75 29.8 26.05 33.3 26.65 34.62265625 26.88203125 35.45 26.45
L 35.45 26.5
Q 35.2263671875 26.58828125 35 26.65 32.332421875 27.85078125 30.35 30.1 27.4 33.4 25.7 37.45 23.6 42.5 24.05 48.05 24.4 52 26.2 55.45 27.25 57.9 29.15 59.8 32.4529296875 63.1447265625 36.85 64.75 34.712890625 64.041796875 34.4 66.5 33.75 71.4 37.6 74.45 42.1 78 47.95 77.3 50.9 76.95 53.65 75.65 53.750390625 75.60234375 53.85 75.55 53.874609375 75.601953125 53.9 75.65 55.55 79 57.4 82.3 59.05 85.25 62.25 86.15 63.35 86.45 64.35 86.05 68.7 84.4 70.4 80 71.3 77.6 71.8 75.1 71.8298828125 74.930078125 71.85 74.75 78.3869140625 77.0498046875 85.55 76.15 89.15 75.65 92.2 73.7 94.9 71.95 96.75 69.3 98.1 67.35 96.6 65.7 96.126171875 65.1583984375 95.5 65.15 100.3841796875 62.375 103.2 57.2 104.65 54.5 104.95 51.45 105.3 48.1 104.65 44.9 104.15 42.3 102.9 39.95 102.2 38.25 101.35 36.6 98.45 31 92.8 27.85 87.3 24.8 80.9 24.95 74.6 25.3 69.95 29.55 66.6 32.55 64.8 36.6 64.574609375 37.0970703125 64.35 37.6 63.3162109375 34.8599609375 61.55 32.4 60.1146484375 30.4341796875 58.1 29.4 58.9171875 28.0365234375 59.7 26.65 62.2 22.35 64.9 18.15 65.7 16.95 66.25 15.6 66.65 14.7 65.95 14 64.15 12.15 62.7 14.3 62.6076171875 14.433984375 62.5 14.55 59.621484375 18.793359375 57.15 23.3 55.55 26.15 53.85 29 53.1 30.2 52.1 31.15 50.7 31.2 49.5 30.7 43.9 28.5 40.25 23.7 38.9 21.9 38.1 19.8 36.4 15.3 36.45 10.4 36.5 6.5 39.1 3.65 42.75 -0.35 48.1 -1.7 49.8 -2.15 51.55 -2.5
M 101.3 14.25
Q 104.1 4.65 113.9 1.55 115.25 3.05 115.85 4.95 117.4 9.75 117.35 14.9 117.3 19 115.65 22.6 114.8287109375 24.5017578125 113.45 26.05 111.5876953125 24.81484375 109.5 23.8 104.6611328125 21.4814453125 99.45 20.85 100.33046875 17.58046875 101.3 14.25
M 89.4 45.7
Q 93.1 40.45 92.05 34.1 91.8765625 32.98984375 91.6 31.9 94.920703125 34.0283203125 97.05 37.35 99.55 41.25 100.7 45.7 101.7 49.4 100.55 52.95 98.75 58.6 93.55 61.7 92.4 62.4 91.05 62.45 90.163671875 62.51640625 89.55 62.9 88.372265625 61.90859375 87 61.1 81.65 58 75.7 56.2 71.470703125 54.9455078125 67.05 54.85 66.9095703125 54.34375 66.75 53.8 67.74453125 54.081640625 68.75 54.2 71.95 54.55 75.15 54.15 81.2 53.35 85.9 49.5 87.9 47.8 89.4 45.7
M 86.5 65.65
Q 87.6 66.4 88.7 67.1 90.7537109375 68.308203125 91.6 66.8 91.9216796875 66.7654296875 92.25 66.65 92.8869140625 66.4171875 93.5 66.15 93.0369140625 66.7091796875 92.85 67.55 91.3 70 88.7 71.05 86.1 72.1 83.25 72.3 74.5 72.85 67.25 68.15 67.15 68 67 67.85 66.5 67.35 66.05 66.8 65.17109375 65.766015625 64.1 65.1 68.537890625 64.569140625 72.45 62.3 73.966015625 61.449609375 74.95 60.05 75.231640625 60.162109375 75.5 60.25 81.4 62.15 86.5 65.65
M 55.95 32.95
Q 56.4828125 33.346875 56.95 33.75 56.75546875 33.8048828125 56.55 33.85 55.796484375 33.9150390625 55.05 34.05 55.5736328125 33.58046875 55.95 32.95
M 51.35 35.1
Q 51.1205078125 35.2037109375 50.9 35.3 45.1646484375 37.7509765625 41.35 42.55 41.854296875 42.3162109375 42.45 42.15 43.1689453125 41.61796875 43.85 41.3
L 45.2 41.3 46.05 41.6 46.6 42.55
Q 46.2 47.05 42.45 49.25 41.5 49.9 40.4 50.1
L 39.6 49.7 39.3 49.15 39.3 48.15
Q 39.065625 47.9751953125 38.85 47.8 38.7 47.75 38.65 47.6 38.633203125 47.042578125 38.65 46.55 37.13046875 49.3390625 36.25 52.45 35.45 55.3 36.25 58.15 36.6580078125 59.51484375 37.35 60.55 33.289453125 59.050390625 30.8 55.6 30.75 55.5 30.7 55.45 29.85 54.25 29.3 52.85 28.5 50.95 28.15 49 28.15 48.85 28.1 48.7 27.85 47.55 27.9 46.35 27.9 45 28.05 43.65 28.45 42.6 28.75 41.55 29 40.8 29.1 40.05 29.6 38.85 30.15 37.65 31.05 35.75 32.15 34 35.031640625 30.1248046875 39.9 29.4 44.7333984375 33.9341796875 51.35 35.1
M 75.8 31.85
Q 76.05 32.15 76.3 32.55 75.8 37 71.35 38.85 70.55 39.15 69.6 39.15
L 68.75 38.85
Q 68.7 38.75 68.7 38.7 68.75 38.45 68.6 38.2 68.4 37.9 68.35 37.35 68.25 36.65 68.35 36.65
L 68.35 37.2
Q 69.75 31.5 75.05 31.2 75.1 31.2 75.2 31.2 75.2 31.25 75.25 31.25 75.4 31.4 75.55 31.5 75.7 31.7 75.8 31.85
M 30.85 20.55
Q 31.0357421875 21.3857421875 31 22.2 30.3896484375 22.2509765625 29.75 22.35 20.9697265625 23.0939453125 13.4 27.3 12.2798828125 26.14296875 11.55 24.65 8.45 18.2 9.65 11 10.55 5.45 14.95 1.75 19.25 3.95 22.85 7.25 28.85 12.75 30.85 20.55
M 35.05 22.8
Q 35.0978515625 22.8453125 35.1 22.9 35.09375 22.887109375 35.05 22.85 35.0689453125 22.8375 35.05 22.8
M 38.85 69.9
Q 38.2734375 68.4587890625 38.15 66.85 38.869921875 67.1599609375 39.8 66.5 44.8041015625 63.001953125 50.7 61.4 51.4724609375 62.5232421875 52.9 63.25 56.2830078125 64.92109375 59.9 65.2 59.5287109375 65.690234375 59.3 66.3 58.7 67 58 67.6 56.95 68.5 56.1 69.5 54.75 70.8 53.05 71.65 50.75 72.8 48.2 73.25 43 74.2 39.4 70.7 39.05 70.35 38.85 69.9 Z" stroke="none" fill="#000000"></path>

<path d="M 38.15 66.85
Q 38.2734375 68.4587890625 38.85 69.9 39.05 70.35 39.4 70.7 43 74.2 48.2 73.25 50.75 72.8 53.05 71.65 54.75 70.8 56.1 69.5 56.95 68.5 58 67.6 58.7 67 59.3 66.3 59.5287109375 65.690234375 59.9 65.2 56.2830078125 64.92109375 52.9 63.25 51.4724609375 62.5232421875 50.7 61.4 44.8041015625 63.001953125 39.8 66.5 38.869921875 67.1599609375 38.15 66.85
M 88.7 67.1
Q 87.6 66.4 86.5 65.65 81.4 62.15 75.5 60.25 75.231640625 60.162109375 74.95 60.05 73.966015625 61.449609375 72.45 62.3 68.537890625 64.569140625 64.1 65.1 65.17109375 65.766015625 66.05 66.8 66.5 67.35 67 67.85 67.15 68 67.25 68.15 74.5 72.85 83.25 72.3 86.1 72.1 88.7 71.05 91.3 70 92.85 67.55 93.0369140625 66.7091796875 93.5 66.15 92.8869140625 66.4171875 92.25 66.65 91.9216796875 66.7654296875 91.6 66.8 90.7537109375 68.308203125 88.7 67.1
M 55.1 -2.25
Q 55.528515625 -0.021875 59.25 -0.05 53.8234375 0.4189453125 49.1 3.85 43.8 7.7 41.75 13.6 40.45 17.4 42.25 19.5 44 21.45 48.1 20.6 51.9 19.75 56.25 17.8 58.6154296875 16.7017578125 62.5 14.55 62.6076171875 14.433984375 62.7 14.3 64.15 12.15 65.95 14 66.65 14.7 66.25 15.6 65.7 16.95 64.9 18.15 62.2 22.35 59.7 26.65 58.9171875 28.0365234375 58.1 29.4 60.1146484375 30.4341796875 61.55 32.4 63.3162109375 34.8599609375 64.35 37.6 64.574609375 37.0970703125 64.8 36.6 66.6 32.55 69.95 29.55 74.6 25.3 80.9 24.95 87.3 24.8 92.8 27.85 98.45 31 101.35 36.6 102.2 38.25 102.9 39.95 104.15 42.3 104.65 44.9 105.3 48.1 104.95 51.45 104.65 54.5 103.2 57.2 100.3841796875 62.375 95.5 65.15 96.126171875 65.1583984375 96.6 65.7 98.1 67.35 96.75 69.3 94.9 71.95 92.2 73.7 89.15 75.65 85.55 76.15 78.3869140625 77.0498046875 71.85 74.75 71.8298828125 74.930078125 71.8 75.1 71.3 77.6 70.4 80 68.7 84.4 64.35 86.05 63.35 86.45 62.25 86.15 59.05 85.25 57.4 82.3 55.55 79 53.9 75.65 53.874609375 75.601953125 53.85 75.55 53.750390625 75.60234375 53.65 75.65 50.9 76.95 47.95 77.3 42.1 78 37.6 74.45 33.75 71.4 34.4 66.5 34.712890625 64.041796875 36.85 64.75 32.4529296875 63.1447265625 29.15 59.8 27.25 57.9 26.2 55.45 24.4 52 24.05 48.05 23.6 42.5 25.7 37.45 27.4 33.4 30.35 30.1 32.332421875 27.85078125 35 26.65 23.0537109375 30.4671875 13.1 39.25 8.75 43.3 6.6 47.6 4.05 52.8 5.35 57.35 6.65 61.65 11.2 64.9 11.8435546875 65.349609375 12.6 65.8 16.603125 66.922265625 20.6 67.95 21.4 68.2 21.45 69.05 21.65 71.8 18.5 71.95 17.8134765625 72.00078125 17.15 72.15 16.098828125 73.5396484375 16.25 75 16.55 77.8 21.35 79.75 27.2818359375 81.9654296875 33.55 83.55 35.544140625 83.4693359375 37.55 83.2 37.5984375 83.1927734375 37.65 83.15 37.66796875 82.8255859375 37.75 82.45 37.9 81.75 38.6 81.65 40.6 81.25 41.8 83.05 42.8 84.6 44.55 85.4 51.8 88.7 59.9 88.35 67.8 88.05 75.6 86.55 79.6 85.8 83.3 84.1 87.05 82.4 90.4 80.05 90.55 79.95 90.75 79.9 91.459375 80.09921875 91.9 80.4 92.4595703125 80.455859375 93.05 80.75 93.0548828125 80.2255859375 93.05 79.7 100.0662109375 80.5640625 109 77 115.25 74.3 116.6 70.35 116.9150390625 69.4748046875 116.9 68.6 113.86640625 66.957421875 110.8 65.3 110.35 65.05 110.35 64.45 110.35 61.45 113.75 61.05 114.910546875 60.897265625 116 60.6 116.7814453125 60.0763671875 117.35 59.6 120.2 57.25 121.35 54.5 122.9 50.9 121.65 46.45 120.6 42.65 117.75 38.85 112.45 32.1 105 28.35 101.8025390625 26.7298828125 95.75 24.7 93.625390625 24.7052734375 91.45 25 90.8 25.1 90.15 25.15 88.1 25.45 88 23.5 87.95 21.75 89.65 21.25 91.95 20.55 94.3 20.6 95.1865234375 20.572265625 96.05 20.6 95.9798828125 19.5630859375 96.15 18.5 97.1 12.2 100.55 6.8 102.45 3.85 105.25 1.7 109.25 -1.4 114.05 -2.6 117.25 -2 118.65 1.2 121.9 8.45 121.3 16.55 121 20.55 119.45 24.15 119.1455078125 24.8486328125 118.75 25.45 122.84375 21.250390625 123.85 15.25 124.4 12.05 124 8.75 123 0.75 117.65 -5.35 117.25 -5.85 117.05 -6.4 116.95 -6.45 116.9 -6.55 116.15 -7.45 115.3 -8.25 114.4 -9 113.5 -9.75 102.85 -10.75 94.15 -4.95 92.6310546875 -3.93125 91.35 -2.7 91.85546875 -2.1251953125 92.2 -1.4 94.25 2.85 94.2 7.65 94.15 12.3 92 16.4 89.95 20.35 85.85 21.8 85.2 22.05 84.65 21.7 82.7 20.45 84.2 18.7 84.7 18.15 85.4 17.7 87.1 16.55 88.2 14.8 89.05 13.45 89.55 11.95 89.55 11.75 89.6 11.55 90.1 9.8 90.15 7.95 90.2 6 89.8 4.15 89.45 2.65 89 1.15 88.4517578125 1.5927734375 87.9 2.05 87.8759765625 2.0986328125 87.85 2.15 87.6634765625 2.4763671875 87.3 2.55 86.8515625 2.91796875 86.4 3.3 84.25 5.25 81.5 5.9 80.9 6.1 80.45 5.6 78.45 3.5 76.95 1.05 75.95 -0.6 74.5 -1.9 70.326171875 -5.519140625 65.35 -7.4 63.9341796875 -7.45 62.5 -7.35 58.3 -7.15 56.1 -4.85 54.95 -3.7 55.1 -2.25
M 10.85 -0.1
Q 12.5 -1.9 14.7 -2.55 22 0.45 27.45 6.4 30.68046875 9.9927734375 32.7 14.25 32.4376953125 11.3806640625 32.75 8.45 33.15 4.15 36.05 0.9 37.352734375 -0.5921875 38.9 -1.75 34.5828125 -3.1396484375 30.2 -4.45 20.85 -7.15 11.05 -7.1 9 -6.3 7.3 -4.85 4.75 -2.8 3.05 -0.05 2.1 1.4 1.55 3 1.35 4.25 1 5.45 0.35 7.8 0 10.2 -0.4 12.85 0.05 15.45 0.2 16.3 0.15 17.15 0.85 19.55 1.8 21.85 3.6 26.15 7.25 29.15 7.9919921875 29.7640625 8.5 30.5 9.3048828125 29.9130859375 10.1 29.35 7.5630859375 27.1171875 6.6 23.65 4.9 17.7 5.55 11.55 6.3 4.95 10.85 -0.1 Z" stroke="none" fill="#3333FF"></path>

<path d="M 31 22.2
Q 31.0357421875 21.3857421875 30.85 20.55 28.85 12.75 22.85 7.25 19.25 3.95 14.95 1.75 10.55 5.45 9.65 11 8.45 18.2 11.55 24.65 12.2798828125 26.14296875 13.4 27.3 20.9697265625 23.0939453125 29.75 22.35 30.3896484375 22.2509765625 31 22.2
M 113.9 1.55
Q 104.1 4.65 101.3 14.25 100.33046875 17.58046875 99.45 20.85 104.6611328125 21.4814453125 109.5 23.8 111.5876953125 24.81484375 113.45 26.05 114.8287109375 24.5017578125 115.65 22.6 117.3 19 117.35 14.9 117.4 9.75 115.85 4.95 115.25 3.05 113.9 1.55 Z" stroke="none" fill="#33FF00"></path>

<path d="M 76.3 32.55
Q 76.05 32.15 75.8 31.85 75.7 31.7 75.55 31.5 75.4 31.4 75.25 31.25 75.2 31.25 75.2 31.2 75.1 31.2 75.05 31.2 69.75 31.5 68.35 37.2
L 68.35 36.65
Q 68.25 36.65 68.35 37.35 68.4 37.9 68.6 38.2 68.75 38.45 68.7 38.7 68.7 38.75 68.75 38.85
L 69.6 39.15
Q 70.55 39.15 71.35 38.85 75.8 37 76.3 32.55
M 50.9 35.3
Q 51.1205078125 35.2037109375 51.35 35.1 44.7333984375 33.9341796875 39.9 29.4 35.031640625 30.1248046875 32.15 34 31.05 35.75 30.15 37.65 29.6 38.85 29.1 40.05 29 40.8 28.75 41.55 28.45 42.6 28.05 43.65 27.9 45 27.9 46.35 27.85 47.55 28.1 48.7 28.15 48.85 28.15 49 28.5 50.95 29.3 52.85 29.85 54.25 30.7 55.45 30.75 55.5 30.8 55.6 33.289453125 59.050390625 37.35 60.55 36.6580078125 59.51484375 36.25 58.15 35.45 55.3 36.25 52.45 37.13046875 49.3390625 38.65 46.55 38.633203125 47.042578125 38.65 47.6 38.7 47.75 38.85 47.8 39.065625 47.9751953125 39.3 48.15
L 39.3 49.15 39.6 49.7 40.4 50.1
Q 41.5 49.9 42.45 49.25 46.2 47.05 46.6 42.55
L 46.05 41.6 45.2 41.3 43.85 41.3
Q 43.1689453125 41.61796875 42.45 42.15 41.854296875 42.3162109375 41.35 42.55 45.1646484375 37.7509765625 50.9 35.3
M 56.95 33.75
Q 56.4828125 33.346875 55.95 32.95 55.5736328125 33.58046875 55.05 34.05 55.796484375 33.9150390625 56.55 33.85 56.75546875 33.8048828125 56.95 33.75
M 92.05 34.1
Q 93.1 40.45 89.4 45.7 87.9 47.8 85.9 49.5 81.2 53.35 75.15 54.15 71.95 54.55 68.75 54.2 67.74453125 54.081640625 66.75 53.8 66.9095703125 54.34375 67.05 54.85 71.470703125 54.9455078125 75.7 56.2 81.65 58 87 61.1 88.372265625 61.90859375 89.55 62.9 90.163671875 62.51640625 91.05 62.45 92.4 62.4 93.55 61.7 98.75 58.6 100.55 52.95 101.7 49.4 100.7 45.7 99.55 41.25 97.05 37.35 94.920703125 34.0283203125 91.6 31.9 91.8765625 32.98984375 92.05 34.1 Z" stroke="none" fill="#FFFFFF"></path>

<path d="M 17.15 72.15
Q 16.4888671875 72.304296875 15.85 72.55 12.1 74.1 8.35 75.75 8.4 75.8 8.45 75.9 8.5 76 8.6 76.15 8.65 76.2 8.7 76.3 8.7 76.35 8.75 76.4 8.8 76.45 8.85 76.55 9.25 76.9 9.65 77.25 10.55 78.05 11.35 78.85 16.75 81.75 22.75 82.85 28.12109375 83.8365234375 33.55 83.55 27.2818359375 81.9654296875 21.35 79.75 16.55 77.8 16.25 75 16.098828125 73.5396484375 17.15 72.15
M 11.9 32.85
Q 5.25 37.5 1.45 44.45 -1 48.85 -2.75 53.5 -3 54.15 -3.35 54.8 -1.95 58 0.75 60.2 4.9 63.6 10.1 65.1 11.353125 65.4580078125 12.6 65.8 11.8435546875 65.349609375 11.2 64.9 6.65 61.65 5.35 57.35 4.05 52.8 6.6 47.6 8.75 43.3 13.1 39.25 23.0537109375 30.4671875 35 26.65 35.2263671875 26.58828125 35.45 26.5
L 35.45 26.45
Q 34.62265625 26.88203125 33.3 26.65 29.8 26.05 26.35 26.75 18.5 28.25 11.9 32.85
M 116.9 68.6
Q 116.9150390625 69.4748046875 116.6 70.35 115.25 74.3 109 77 100.0662109375 80.5640625 93.05 79.7 93.0548828125 80.2255859375 93.05 80.75 93.322265625 80.871484375 93.6 81.05 95.5 82.2 97.85 82.2 106.9 82.2 114.7 77.9 118.85 75.6 121.5 71.95 121.75 71.65 121.85 71.25 119.388671875 69.9298828125 116.9 68.6
M 118 35.5
Q 113.3 29.8 106.55 26.7 101.2630859375 24.721875 95.75 24.7 101.8025390625 26.7298828125 105 28.35 112.45 32.1 117.75 38.85 120.6 42.65 121.65 46.45 122.9 50.9 121.35 54.5 120.2 57.25 117.35 59.6 116.7814453125 60.0763671875 116 60.6 116.7494140625 60.43359375 117.45 60.2 122.521875 58.509375 127.45 56.6 127.4994140625 55.99921875 127.75 55.3 127.3 52.5 126.1 49.95 125.45 48.5 124.85 47.05 122.3 40.7 118 35.5
M 52.85 -3.85
Q 52.7 -2.7 51.55 -2.5 49.8 -2.15 48.1 -1.7 42.75 -0.35 39.1 3.65 36.5 6.5 36.45 10.4 36.4 15.3 38.1 19.8 38.9 21.9 40.25 23.7 43.9 28.5 49.5 30.7 50.7 31.2 52.1 31.15 53.1 30.2 53.85 29 55.55 26.15 57.15 23.3 59.621484375 18.793359375 62.5 14.55 58.6154296875 16.7017578125 56.25 17.8 51.9 19.75 48.1 20.6 44 21.45 42.25 19.5 40.45 17.4 41.75 13.6 43.8 7.7 49.1 3.85 53.8234375 0.4189453125 59.25 -0.05 55.528515625 -0.021875 55.1 -2.25 54.95 -3.7 56.1 -4.85 58.3 -7.15 62.5 -7.35 63.9341796875 -7.45 65.35 -7.4 61.8044921875 -8.6837890625 57.85 -9.1 52.8 -9.6 47.75 -8.95 49.3 -7.9 51.2 -6.85 53.05 -5.85 52.85 -3.85 Z" stroke="none" fill="#FF0033"></path>
</g>
</g>
</g>
</g>
</g>
</svg>
