
<svg viewBox="0 0 80 70" height="70px" width="80px" y="0px" x="0px" preserveAspectRatio="none" xmlns:xlink="http://www.w3.org/1999/xlink" version="1.1" xmlns="http://www.w3.org/2000/svg">
<defs></defs>

<g id="Layer_2">
<g transform="matrix( 0.2443389892578125, 0, 0, 0.2443389892578125, -5.6,-13.9)" id="Layer_1">
<g>
<g>
<g>
<path d="M 312.05 172
Q 312.75 164.75 311 160 311 160.5 310.95 161 310.25 168.25 312 173 312 172.5 312.05 172 Z" stroke="none" fill="#5B6255"></path>

<path d="M 262 333
Q 262 333.5 262 334 265.1 330.1 263.5 322.1 263.5 322 263 322 263 322.5 263.05 323 263.75 328.25 262 331 262 332 262 333 Z" stroke="none" fill="#29434A"></path>

<path d="M 256 311
Q 255.5 311 255 311 248.2 310.7 240 313 243.6 316.9 246.75 321.15 247 321.5 247 322 245.6 331.95 246.9 340 247 340.5 247 341 258.65 345.95 261.85 334.95 262 334.5 262 334 262 333.5 262 333 262 332 262 331 263.75 328.25 263.05 323 263 322.5 263 322 262.5 322 262.4 321.8 260 317 258 312 257.5 312 257.1 311.8 256.5 311.5 256 311
M 252.15 315.55
Q 252 315.5 252 315 259.55 318.05 252.15 315.55
M 252 328.5
L 252 328
Q 260.95 315.65 252 328.5 Z" stroke="none" fill="#010C19"></path>

<path d="M 252 328
L 252 328.5
Q 260.95 315.65 252 328 Z" stroke="none" fill="#03020E"></path>

<path d="M 252 315
Q 252 315.5 252.15 315.55 259.55 318.05 252 315 Z" stroke="none" fill="#010903"></path>

<path d="M 252 307
Q 252 306.5 251.9 306.05 251.2 303.25 248 303 248 303.5 248 304 249.8 305.2 251.25 306.75 251.5 307 252 307 Z" stroke="none" fill="#64440D"></path>

<path d="M 249 300.05
Q 249.5 300 250 300 250 299.5 249.95 299.5 245 299 240 299 243.25 300.75 249 300.05 Z" stroke="none" fill="#C9912D"></path>

<path d="M 268 309
Q 267.5 309 267 309 265.5 309 264 309 263.5 309 263.05 308.85 257.5 307 254 307 254.5 309 255.75 310.25 256 310.5 256 311 256.5 311.5 257.1 311.8 257.5 312 258 312 258 311.5 258 311 263.95 311.45 267.8 309.6 268 309.5 268 309 Z" stroke="none" fill="#7A6954"></path>

<path d="M 268 308
Q 268 308.5 268 309 271.2 309.7 271.85 307.95 272 307.5 272 307 271.5 307 271 307 269.5 307 268 307 268 307.5 268 308 Z" stroke="none" fill="#6B7167"></path>

<path d="M 264 307
Q 264 307.5 264 308 264 308.5 264 309 265.5 309 267 309 267.5 309 268 309 268 308.5 268 308 268 307.5 268 307 267.5 307 267 307 265.5 307 264 307 Z" stroke="none" fill="#82694E"></path>

<path d="M 280 301
Q 279.5 301 279.1 301.2 273.5 303.7 268 306 268 306.5 268 307 269.5 307 271 307 271.5 307 272 307 277.9 307.4 279.8 303.9 280 303.5 280 303 280 302.5 280 302 280 301.5 280 301 Z" stroke="none" fill="#7C6B54"></path>

<path d="M 170 307
Q 170 306.5 169.8 306.4 165.95 304.6 160 305 162.15 308.35 169 307.1 169.5 307 170 307 Z" stroke="none" fill="#736E5C"></path>

<path d="M 191 307
Q 191.5 307 192 307 192 306.5 191.9 306.45 186.85 305.15 178 304 178 305 178 306 178 306.5 178 307 184.5 307 191 307 Z" stroke="none" fill="#8D6437"></path>

<path d="M 210 309
Q 210 308.5 209.85 308.45 202.15 306.35 192 307 191.5 307 191 307 184.5 307 178 307 191 310.5 209 309.05 209.5 309 210 309
M 300 277
Q 299.5 277 299 277 298.5 277 298 277 298 278.5 298 280 298 280.5 298 281 298 281.5 298 282 298 282.5 298 283 300.75 282.25 300.1 278 300 277.5 300 277
M 116 301
Q 116 300.5 115.75 300.15 115 299.05 110 299 111.25 301.2 115 301.05 115.5 301 116 301 Z" stroke="none" fill="#6E7061"></path>

<path d="M 214 297
Q 216.25 298.75 221 298.05 221.5 298 222 298 222 297.5 221.95 297.5 218 297 214 297 Z" stroke="none" fill="#D2963B"></path>

<path d="M 238 304
Q 238 304.5 238 305 241.95 303.95 247 304 247.5 304 248 304 248 303.5 248 303 247.5 303 247 302.95 241.65 302.65 238 304 Z" stroke="none" fill="#4A1C02"></path>

<path d="M 236 306
Q 236 306.5 236 307 235.8 309.75 236.75 311.15 237 311.5 237 312 238 312.5 239.05 312.85 239.5 313 240 313 248.2 310.7 255 311 255.5 311 256 311 256 310.5 255.75 310.25 254.5 309 254 307 253.5 307 253 307 252.5 307 252 307 251.5 307 251.25 306.75 249.8 305.2 248 304 247.5 304 247 304 241.95 303.95 238 305 237.5 305 237.1 305.2 236.5 305.5 236 306
M 242.05 309.5
Q 242 309.5 242 309 252.55 310.9 242.05 309.5 Z" stroke="none" fill="#210A08"></path>

<path d="M 242 309
Q 242 309.5 242.05 309.5 252.55 310.9 242 309 Z" stroke="none" fill="#031113"></path>

<path d="M 236 307
Q 235.5 307 235.05 307.15 225.9 310.4 212 309 211.5 309 211 309 210.5 309 210 309 224.15 311.55 236 312 236.5 312 237 312 237 311.5 236.75 311.15 235.8 309.75 236 307 Z" stroke="none" fill="#6C6F62"></path>

<path d="M 234 298
Q 233.5 298 233 298 229.5 298 226 298 228.25 299.75 233 299.05 233.5 299 234 299 234 298.5 234 298 Z" stroke="none" fill="#BF8726"></path>

<path d="M 240 299
Q 240 298.5 239.75 298.2 238.2 296.25 234 297 234 297.5 234 298 234 298.5 234 299 236.5 299 239 299 239.5 299 240 299 Z" stroke="none" fill="#F7C95A"></path>

<path d="M 199 295
Q 199 295.5 199 296 203.5 296 208 296 208.5 296 209 296 209 295.5 208.95 295.5 204 295 199 295 Z" stroke="none" fill="#FFD563"></path>

<path d="M 199 296
Q 198.5 296 198 296 196 296 194 296 199.75 297.75 208 297.05 208.5 297 209 297 209 296.5 209 296 208.5 296 208 296 203.5 296 199 296 Z" stroke="none" fill="#BB8418"></path>

<path d="M 194 296
Q 194 295.5 193.95 295.5 187.5 295 181 295 185.75 296.75 193 296.05 193.5 296 194 296 Z" stroke="none" fill="#BF8325"></path>

<path d="M 178 294
Q 177.5 294 177 294 173.5 294 170 294 172.25 295.75 177 295.05 177.5 295 178 295 178 294.5 178 294 Z" stroke="none" fill="#B27A0D"></path>

<path d="M 170 293
Q 170 293.5 170 294 173.5 294 177 294 177.5 294 178 294 178.5 294 178.95 293.85 182.5 292.55 170 293 Z" stroke="none" fill="#FFD664"></path>

<path d="M 162 293
Q 164.25 294.75 169 294.05 169.5 294 170 294 170 293.5 170 293 169.5 293 169 293 165.5 293 162 293 Z" stroke="none" fill="#C78B2D"></path>

<path d="M 321.85 296.05
Q 320.85 292.7 318 291 319.1 294.4 321.25 296.75 321.5 297 322 297 322 296.5 321.85 296.05 Z" stroke="none" fill="#1C363D"></path>

<path d="M 310 278
Q 310 277.5 309.8 277.1 308.2 273.3 305 271 306.5 275 309.25 277.75 309.5 278 310 278 Z" stroke="none" fill="#1D2E36"></path>

<path d="M 296 285
Q 295.5 285 295 285 294.5 285 294 285 294 285.5 294 286 294 286.5 294 287 294 287.5 294 288 294 288.5 294 289 296.95 289.45 296.1 285.95 296 285.5 296 285 Z" stroke="none" fill="#776D5A"></path>

<path d="M 287.75 295.85
Q 288 295.5 288 295 287.5 295 287.05 295.15 282.65 296.65 280 300 280 300.5 280 301 280 301.5 280 302 280 302.5 280 303 284.65 300.15 287.75 295.85 Z" stroke="none" fill="#786C5A"></path>

<path d="M 292 290
Q 292 289.5 292 289 291.5 289 291.25 289.25 289.8 290.8 288 292 288 293 288 294 288 294.5 288 295 290.7 294.2 291.8 291.9 292 291.5 292 291 292 290.5 292 290 Z" stroke="none" fill="#7B6C54"></path>

<path d="M 292 289
Q 292 289.5 292 290 292 290.5 292 291 294.15 291.65 294.05 290 294 289.5 294 289 294 288.5 294 288 294 287.5 294 287 293.5 287 293 287 292.5 287 292 287 292 287.5 292 288 292 288.5 292 289 Z" stroke="none" fill="#756C56"></path>

<path d="M 298.05 284
Q 298 283.5 298 283 298 282.5 298 282 298 281.5 298 281 297.5 281 297 281 296.5 281 296 281 296 282.5 296 284 296 284.5 296 285 298.15 285.65 298.05 284 Z" stroke="none" fill="#7F684F"></path>

<path d="M 295.75 254.25
Q 295.5 254 295 254 294.45 259.1 296.35 261.75 296.5 262 297 262 297 261.5 296.8 261.15 295.55 258.95 296 255 296 254.5 295.75 254.25 Z" stroke="none" fill="#5E3409"></path>

<path d="M 304 271
Q 304 270.5 304 270 304 269.5 304 269 303.5 269 303.25 268.75 301.8 267.2 300 266 300 271 300 276 300 276.5 300 277 302.6 275.1 303.5 271.1 303.5 271 304 271 Z" stroke="none" fill="#756754"></path>

<path d="M 304.1 253.95
Q 304 253.5 304 253 303.5 253 303 253 298.3 252.8 296 255 295.55 258.95 296.8 261.15 297 261.5 297 262 297.85 264.15 299.8 265.35 300 265.5 300 266 301.8 267.2 303.25 268.75 303.5 269 304 269 304 268.5 303.85 268.05 302.5 264.4 302 258 305.1 258.1 304.1 253.95 Z" stroke="none" fill="#2E0B01"></path>

<path d="M 306 249
Q 305.5 249 305 249 304.5 249 304 249 304 250.5 304 252 304 252.5 304 253 304.5 253 305 253 305.5 253 306 253 306 252.5 306 252 306 250.5 306 249 Z" stroke="none" fill="#626457"></path>

<path d="M 306 239
Q 305.5 239 305 239 304.5 239 304 239 304 243.5 304 248 304 248.5 304 249 304.5 249 305 249 305.5 249 306 249 306 248.5 306 248 306 243.5 306 239 Z" stroke="none" fill="#816A53"></path>

<path d="M 293 239
Q 293 242.5 293 246 293 246.5 293 247 294.75 244.75 294.05 240 294 239.5 294 239 293.5 239 293 239 Z" stroke="none" fill="#D7A435"></path>

<path d="M 295.05 232
Q 295 231.5 295 231 294.5 231 294 231 294 234.5 294 238 294 238.5 294 239 295.75 236.75 295.05 232 Z" stroke="none" fill="#BD7F2A"></path>

<path d="M 295 230
Q 295 226.5 295 223 294.5 223 294 223 294 226.5 294 230 294 230.5 294 231 294.5 231 295 231 295 230.5 295 230 Z" stroke="none" fill="#D49A48"></path>

<path d="M 296.05 214
Q 296 213.5 296 213 295.5 213 295 213 295 217.5 295 222 295 222.5 295 223 296.75 219.75 296.05 214 Z" stroke="none" fill="#BE8923"></path>

<path d="M 297 199
Q 296.5 199 296 199 296 202.5 296 206 296 206.5 296 207 297.75 204.75 297.05 200 297 199.5 297 199 Z" stroke="none" fill="#BD8627"></path>

<path d="M 308.05 209
Q 308 208.5 308 208
L 307.5 208
Q 307.65 210.15 306 210 306 216 306 222 306 222.5 306 223 309.45 218.45 308.05 209 Z" stroke="none" fill="#70624A"></path>

<path d="M 110 299
Q 110 298.5 109.85 298.05 109.2 296.3 106 297 105.6 299.95 109.05 299.1 109.5 299 110 299 Z" stroke="none" fill="#6D7061"></path>

<path d="M 128 307
Q 127.5 307 127.4 307.2 125.95 309.95 124 312 124 312.5 124 313 124 313.5 124 314 126.8 311.8 127.85 307.95 128 307.5 128 307 Z" stroke="none" fill="#2E4A52"></path>

<path d="M 128 303
Q 128 302.5 127.85 302.45 123 300.5 116 301 119.45 304.05 127 303.05 127.5 303 128 303 Z" stroke="none" fill="#746D5C"></path>

<path d="M 140 301
Q 140.5 301 141 301 141 300.5 140.95 300.5 136 300 131 300 131 300.5 131 301 135.5 301 140 301 Z" stroke="none" fill="#7C4F09"></path>

<path d="M 141.8 313.9
Q 142 313.5 142 313 141.5 313 141.15 313.25 131.8 319.35 130 305
L 129.5 305
Q 129.65 307.15 128 307 128 307.5 127.85 307.95 126.8 311.8 124 314 124 314.5 123.85 314.95 119.7 325.2 114 334 115.45 346.9 126.1 341.2 126.5 341 127 341 135.05 328.05 141.8 313.9
M 130.25 315.85
Q 130 315.5 130 315 133.35 320.7 130.25 315.85
M 126 332
Q 126 327 126 322 126 321.5 126 321 133.8 321.4 126 332.5
L 126 332 Z" stroke="none" fill="#020F1C"></path>

<path d="M 126 322
Q 126 327 126 332
L 126 332.5
Q 133.8 321.4 126 321 126 321.5 126 322 Z" stroke="none" fill="#0B0413"></path>

<path d="M 130 315
Q 130 315.5 130.25 315.85 133.35 320.7 130 315 Z" stroke="none" fill="#01020C"></path>

<path d="M 145 305
Q 145 304.5 144.95 304 144.65 300.85 141 301 143.55 302.45 143.95 306 144 306.5 144 307 144.5 306.5 144.8 305.9 145 305.5 145 305 Z" stroke="none" fill="#68441F"></path>

<path d="M 144 307
L 143.5 307
Q 143.65 309.15 142 309 142 310.5 142 312 142 312.5 142 313 144.75 312.25 144.1 308 144 307.5 144 307 Z" stroke="none" fill="#132C2E"></path>

<path d="M 143.5 307
L 144 307
Q 144 306.5 143.95 306 143.55 302.45 141 301 140.5 301 140 301 135.5 301 131 301 131 301.5 130.75 301.75 130.5 302 130 302 130 302.5 130 303 130 303.5 130 304 130 304.5 130 305 131.8 319.35 141.15 313.25 141.5 313 142 313 142 312.5 142 312 142 310.5 142 309 143.65 309.15 143.5 307 Z" stroke="none" fill="#120302"></path>

<path d="M 55.8 271.6
Q 56 271.5 56 271 55.5 271 55 271 50 271 45 271 49.45 275.05 55.8 271.6 Z" stroke="none" fill="#072731"></path>

<path d="M 60 264
Q 59.5 264 59.35 264.25 58.3 265.8 56 267 56 268.5 56 270 56 270.5 56 271 58.8 269.35 59.85 265.95 60 265.5 60 265 60 264.5 60 264 Z" stroke="none" fill="#1C2F37"></path>

<path d="M 78 266
Q 78 265.5 78.1 265 79.25 259.75 76 259 75.45 263.55 77.3 265.75 77.5 266 78 266 Z" stroke="none" fill="#6C7063"></path>

<path d="M 65 259
Q 64.5 259 64 259 64 259.5 63.8 259.65 61.2 261.2 60 264 60 264.5 60 265 63.05 263.05 64.8 259.9 65 259.5 65 259 Z" stroke="none" fill="#20343A"></path>

<path d="M 69.8 252.9
Q 70 252.5 70 252 69.5 252 69.15 252.25 65.9 254.4 64 258 64 258.5 64 259 64.5 259 65 259 67.85 256.35 69.8 252.9 Z" stroke="none" fill="#192E36"></path>

<path d="M 37.45 234.85
Q 37.5 235 38 235 42.65 233.45 39.25 230.7 39 230.5 39 230
L 38.5 230
Q 38.65 232.15 37 232 37 233.5 37.45 234.85 Z" stroke="none" fill="#0A1E27"></path>

<path d="M 80.1 233
Q 80 232.5 80 232 80 231.5 79.8 231.4 79 231 78 231 79.2 234.8 78.1 239.05 78 239.5 78 240 81 238.5 80.1 233 Z" stroke="none" fill="#350900"></path>

<path d="M 58 244
Q 57.5 244 57.35 244.2 56.15 246.15 54 247 54 247.5 54 248 54 248.5 54 249 56.65 247.65 57.8 244.9 58 244.5 58 244 Z" stroke="none" fill="#32454A"></path>

<path d="M 42 240
Q 44.75 241.75 49.9 240.55 50 240.5 50 240 49.5 240 49 240 45.5 240 42 240 Z" stroke="none" fill="#254D55"></path>

<path d="M 53.9 227.55
Q 54 227.5 54 227 53.5 227 53 227 46.5 227 40 227 40 227.5 40 228 46.4 229.3 53.9 227.55 Z" stroke="none" fill="#022630"></path>

<path d="M 66 220
Q 65.5 220 65.3 220.25 61.4 224.9 54 226 54 226.5 54 227 54 227.5 53.9 227.55 46.4 229.3 40 228 39.5 228 39 228 39 228.5 39 229 39 229.5 39 230 39 230.5 39.25 230.7 42.65 233.45 38 235 38.65 238.35 41.85 239.45 42 239.5 42 240 45.5 240 49 240 49.5 240 50 240 54.15 240.15 57.05 239.15 57.5 239 58 239 58 238.5 58 238 63.45 235.55 60.6 240.8 60.5 241 60 241 60 241.5 59.75 241.75 59 242.5 58 243 58 243.5 58 244 58 244.5 57.8 244.9 56.65 247.65 54 249 54 249.5 53.75 249.85 48.45 257.45 43 265 42.25 269.2 44.2 270.75 44.5 271 45 271 50 271 55 271 55.5 271 56 271 56 270.5 56 270 56 268.5 56 267 58.3 265.8 59.35 264.25 59.5 264 60 264 61.2 261.2 63.8 259.65 64 259.5 64 259 64 258.5 64 258 65.9 254.4 69.15 252.25 69.5 252 70 252 70 251.5 70 251 71.65 251.15 71.5 249
L 72 249
Q 72 248.5 72 248 74 245.5 76.25 243.25 76.5 243 77 243 77 242.5 77 242 77 241.5 77 241 77.5 241 77.75 240.75 78 240.5 78 240 78 239.5 78.1 239.05 79.2 234.8 78 231
L 78 230.5
Q 75.3 230.7 75 229 78.8 227.8 78.05 222 78 221.5 78 221 77.5 221 77.05 220.9 72.25 219.75 66 220 Z" stroke="none" fill="#030A15"></path>

<path d="M 66 219
Q 66 219.5 66 220 72.25 219.75 77.05 220.9 77.5 221 78 221 78 220.5 78 220 77.5 220 77.15 219.8 72.65 217.05 66 219 Z" stroke="none" fill="#0E2E37"></path>

<path d="M 156 293.05
Q 156.5 293 157 293 157 292.5 156.95 292.5 153 292 149 292 151.25 293.75 156 293.05 Z" stroke="none" fill="#CFA62A"></path>

<path d="M 129 291
Q 129 290.5 128.95 290.5 125 290 121 290 123.25 291.75 128 291.05 128.5 291 129 291 Z" stroke="none" fill="#BE9018"></path>

<path d="M 105.75 296.3
Q 99.5 291 92 287 95.9 294.6 105.05 296.9 105.5 297 106 297 106 296.5 105.75 296.3 Z" stroke="none" fill="#6E6F5E"></path>

<path d="M 88 283
Q 88 282.5 88.1 282.05 88.9 278.6 86 279 85.3 282.2 87.05 282.85 87.5 283 88 283 Z" stroke="none" fill="#706F5F"></path>

<path d="M 90.25 263.75
Q 90.5 264 91 264 91 263.5 90.85 263.05 89.65 259.85 88 257 87.95 261.6 90.25 263.75 Z" stroke="none" fill="#C58A29"></path>

<path d="M 82 240
Q 81.5 240 81.1 240.2 80.5 240.5 80 241 81 248.5 81.95 241 82 240.5 82 240 Z" stroke="none" fill="#976324"></path>

<path d="M 82 240
Q 82 239.5 82.05 239 82.65 233.85 80 232 80 232.5 80.1 233 81 238.5 78 240 78 240.5 77.75 240.75 77.5 241 77 241 77 241.5 77 242 77 242.5 77 243 77.5 243 78 243 78 242.5 78 242 78.5 241.5 79.1 241.2 79.5 241 80 241 80.5 240.5 81.1 240.2 81.5 240 82 240 Z" stroke="none" fill="#693E08"></path>

<path d="M 88 239
Q 87.5 239 87 239 86.4 248.6 87.9 256 88 256.5 88 257 89.65 259.85 90.85 263.05 91 263.5 91 264 93 268 95.35 271.8 95.5 272 96 272 96 271.5 95.9 271 94.3 262.7 90 257 90 256.5 90 256 90.1 248.45 89 244 89.5 244 89.75 243.75 90 243.5 90 243 89.5 243 89.05 242.85 87.3 242.2 88 239 Z" stroke="none" fill="#ECB749"></path>

<path d="M 88 229
Q 87.5 229 87 229 87 233.5 87 238 87 238.5 87 239 87.5 239 88 239 88 238.5 88 238 88 233.5 88 229 Z" stroke="none" fill="#C3882D"></path>

<path d="M 89.75 224.75
Q 90 224.5 90 224 89.5 224 89.25 223.75 89 223.5 89 223 88.5 223 88 223 88 225.5 88 228 88 228.5 88 229 88 233.5 88 238 88 238.5 88 239 87.3 242.2 89.05 242.85 89.5 243 90 243 90 242.5 90.05 242 91.85 227.1 90 234 90 234.5 89.75 234.75 88.45 235.95 89 225 89.5 225 89.75 224.75 Z" stroke="none" fill="#F1BB3D"></path>

<path d="M 88 215
Q 88 215.5 88 216 88 218 88 220 88 220.5 88 221 88 221.5 88 222 88 222.5 88 223 88.5 223 89 223 89 222.5 89 222 89 218.5 89 215 88.5 215 88 215 Z" stroke="none" fill="#CC942D"></path>

<path d="M 89 207
Q 89 206.5 89 206 89 202.90546875 89 199.8 88.0228515625 204.0611328125 86 207 87.35 210.65 87.5 216
L 88 216
Q 88 215.5 88 215 88.5 215 89 215 89 214.5 89 214 89 210.5 89 207
M 90 197
Q 89.5 197 89.5 197.05 89.359765625 198.0556640625 89.15 199 89.5853515625 199 90 199 90 198.5 90 198 90 197.5 90 197
M 173 84
Q 173.5 84 174 83.95 184.4 83.05 170 83 169.5 83 169 83 157.85 83.4 130 81 130 81.5 129.85 81.55 116.3 86.45 114 90 114 90.5 113.95 90.5 104.8 91.3 103 99 102.5 99 102.25 99.25 100.1 101.35 93 113
L 92.5 113
Q 94.55 121.05 90 127 90.2 149.55 90 176 90 176.5 90 177 90.5 177 91 177 91 176.5 91 176 91 175.5 91 175 91 174.5 91 174 91 170.5 91 167 91.5 167 92 167 92 166.5 92 166 92 162.5 92 159 87.35 96.85 133.05 85.1 133.5 85 134 85 134 84.5 134 84 138 84 141.95 84.5 142 84.5 142 85 143.5 85 145 85 145.5 85 146 85 150 85 153.95 85.5 154 85.5 154 86 157.5 86 161 86 161.5 86 162 86 166 86 169.95 86.5 170 86.5 170 87 173.5 87 177 87 177.5 87 178 87 182 87 185.95 87.5 186 87.5 186 88 190 88 193.95 88.5 194 88.5 194 89 201.5 89 209 89 209.5 89 210 89 210 88.5 209.95 88.5 189.6 85.4 173 84 Z" stroke="none" fill="#A56616"></path>

<path d="M 89 199
Q 89 199.40546875 89 199.8 89 202.90546875 89 206 89 206.5 89 207 90.75 204.75 90.05 200 90 199.5 90 199 89.5853515625 199 89.15 199 89.0853515625 199 89 199 Z" stroke="none" fill="#C58A2A"></path>

<path d="M 90 196
Q 90 196.5 90 197 90 197.5 90 198 90 198.5 90 199 90 199.5 90.05 200 90.75 204.75 89 207 89 210.5 89 214 89 214.5 89 215 89 218.5 89 222 89 222.5 89 223 89 223.5 89.25 223.75 89.5 224 90 224 90 223.5 90 223 90 215.5 90 208 93.5 216.6 91.05 192 91 191.5 91 191 90.5 191 90 191 90 193.5 90 196 Z" stroke="none" fill="#EFB847"></path>

<path d="M 91 177
Q 90.5 177 90 177 90 183.5 90 190 90 190.5 90 191 90.5 191 91 191 91 190.5 91 190 91 183.5 91 177 Z" stroke="none" fill="#B1780E"></path>

<path d="M 92.05 168
Q 92 167.5 92 167 91.5 167 91 167 91 170.5 91 174 91 174.5 91 175 92.75 172.75 92.05 168
M 134 84
Q 134 84.5 134 85 137.5 85 141 85 141.5 85 142 85 142 84.5 141.95 84.5 138 84 134 84 Z" stroke="none" fill="#B87B26"></path>

<path d="M 84 121
Q 83.5 121 83 121 82.5 121 82 121 82.4 129.85 82 142 82 142.5 82 143 85.45 134.95 84.05 122 84 121.5 84 121 Z" stroke="none" fill="#6D614C"></path>

<path d="M 85 113
Q 84.5 113 84 113 84 115.5 84 118 84 118.5 84 119 87.2 118.7 86.1 114 86 113.5 86 113 85.5 113 85 113 Z" stroke="none" fill="#6F634E"></path>

<path d="M 88 112
Q 88 112.5 88 113 88.5 113 88.8 112.75 95.3 107.1 88 111 88 111.5 88 112 Z" stroke="none" fill="#996226"></path>

<path d="M 88 111
Q 88 110.5 88 110 88 109.5 88 109 87.5 109 87 109 86.5 109 86 109 86 110.5 86 112 86 112.5 86 113 86.5 113 87 113 87.5 113 88 113 88 112.5 88 112 88 111.5 88 111 Z" stroke="none" fill="#74634A"></path>

<path d="M 92 103
Q 92 102.5 92 102 92 100.5 92 99 91.5 99 91 99 90.5 99 90 99 90 100.5 90 102 90 102.5 90 103 90.5 103 91 103 91.5 103 92 103 Z" stroke="none" fill="#6C634E"></path>

<path d="M 92.65 103.2
Q 92.5 103 92 103 91.5 103 91 103 90.5 103 90 103 90 103.5 90.05 104 90.15 105.65 88 105 88 105.5 88 106 88 106.5 88 107 94.7 106.7 92.65 103.2 Z" stroke="none" fill="#8B6134"></path>

<path d="M 80 159
Q 80 166.5 80 174 80 174.5 80 175 83.2 169.7 82.05 160 82 159.5 82 159 81.5 159 81 159 80.5 159 80 159 Z" stroke="none" fill="#746148"></path>

<path d="M 80 191
Q 79.5 191 79 191 78.5 191 78 191 78 197.5 78 204 78 204.5 78 205 80.25 199.75 80 192 80 191.5 80 191 Z" stroke="none" fill="#716E62"></path>

<path d="M 145 75
Q 145.5 75 146 75 146 74.5 145.95 74.5 138.15 73.75 130 74 130 74.5 130 75 137.5 75 145 75 Z" stroke="none" fill="#656861"></path>

<path d="M 153 86.05
Q 153.5 86 154 86 154 85.5 153.95 85.5 150 85 146 85 148.25 86.75 153 86.05 Z" stroke="none" fill="#C9932A"></path>

<path d="M 130 75
Q 129.5 75 129 75 125.5 75 122 75 122 75.5 122 76 122 76.5 122 77 126.8 77.3 129.8 75.6 130 75.5 130 75 Z" stroke="none" fill="#6F624E"></path>

<path d="M 111.75 81.75
Q 112 81.5 112 81 111.5 81 111 81.05 107.95 81.45 106 83 106 83.5 106 84 106 84.5 106 85 109.45 83.95 111.75 81.75 Z" stroke="none" fill="#69614E"></path>

<path d="M 116 78
Q 116 78.5 116 79 119.5 79 121.8 77.65 122 77.5 122 77 121.5 77 121 76.95 117.65 76.65 116 78 Z" stroke="none" fill="#6E614C"></path>

<path d="M 94 96
Q 94 96.5 94 97 97.2 96.7 97.9 93.95 98 93.5 98 93 97.5 93 97 93 95.5 93 94 93 94 94.5 94 96 Z" stroke="none" fill="#6E5F44"></path>

<path d="M 98 89
Q 98 90.5 98 92 98 92.5 98 93 101.1 90.6 103.75 87.75 104 87.5 104 87 103.5 87 103.25 87.25 101.45 88.95 98 89 Z" stroke="none" fill="#72644B"></path>

<path d="M 310 175
Q 309.5 175 309 175 308.5 175 308 175 308 182.5 308 190 308 190.5 308 191 311.3 190.55 310.05 176 310 175.5 310 175 Z" stroke="none" fill="#70614A"></path>

<path d="M 297 191
Q 296.5 191 296 191 296 194.5 296 198 296 198.5 296 199 296.5 199 297 199 297 198.5 297 198 297 194.5 297 191 Z" stroke="none" fill="#DE9C44"></path>

<path d="M 298.05 184
Q 298 183.5 298 183 297.5 183 297 183 297 186.5 297 190 297 190.5 297 191 298.75 188.75 298.05 184 Z" stroke="none" fill="#CA952A"></path>

<path d="M 300 159
Q 299.5 159 299 159 299 162.5 299 166 299 166.5 299 167 300.75 164.75 300.05 160 300 159.5 300 159
M 186 88
Q 186 87.5 185.95 87.5 182 87 178 87 180.25 88.75 185 88.05 185.5 88 186 88 Z" stroke="none" fill="#B27605"></path>

<path d="M 299 159
Q 298.5 159 298 159 298 166.5 298 174 298 174.5 298 175 299.75 172.75 299.05 168 299 167.5 299 167 299 166.5 299 166 299 162.5 299 159 Z" stroke="none" fill="#DDA13A"></path>

<path d="M 312 131
L 311.5 131
Q 311.65 128.9 310 129 311 142.9 310.05 159 310 159.5 310 160 313.45 148.45 312.05 132 312 131.5 312 131 Z" stroke="none" fill="#7A6148"></path>

<path d="M 312 131
Q 312 130.5 312.1 130 313.2 125.3 310 125 310 126.5 310 128 310 128.5 310 129 311.65 128.9 311.5 131
L 312 131 Z" stroke="none" fill="#71644D"></path>

<path d="M 301 143
Q 300.5 143 300 143 300 146.5 300 150 300 150.5 300 151 301.75 148.75 301.05 144 301 143.5 301 143 Z" stroke="none" fill="#B87827"></path>

<path d="M 301 143
Q 301 142.5 301.05 142 301.75 134.25 300 129 300 135.5 300 142 300 142.5 300 143 300.5 143 301 143 Z" stroke="none" fill="#C68830"></path>

<path d="M 300 143
Q 299.5 143 299 143 299 150.5 299 158 299 158.5 299 159 299.5 159 300 159 300 158.5 300 158 300 154.5 300 151 300 150.5 300 150 300 146.5 300 143 Z" stroke="none" fill="#DAA037"></path>

<path d="M 305.05 114.85
Q 305.5 115 306 115 306 114.5 306.1 114.05 306.95 110.6 304 111 303.3 114.2 305.05 114.85 Z" stroke="none" fill="#71624B"></path>

<path d="M 310 121
Q 310 120.5 310.1 120.05 310.95 116.6 308 117 307.3 120.2 309.05 120.85 309.5 121 310 121 Z" stroke="none" fill="#646150"></path>

<path d="M 304 111
Q 304 110.5 303.85 110.05 297.75 93.7 277 87 289.7 93.3 297.35 104.75 297.5 105 298 105 300.65 107.85 303.25 110.75 303.5 111 304 111 Z" stroke="none" fill="#6D624C"></path>

<path d="M 237 92
Q 237 91.5 236.95 91.5 232.5 91 228 91 230.75 92.75 236 92.05 236.5 92 237 92 Z" stroke="none" fill="#D09335"></path>

<path d="M 227 81.05
Q 227.5 81 228 81 228 80.5 227.85 80.45 220.25 78.25 210 79 216.05 82.45 227 81.05 Z" stroke="none" fill="#6B614D"></path>

<path d="M 218 91
Q 218 90.5 217.95 90.5 214 90 210 90 212.25 91.75 217 91.05 217.5 91 218 91 Z" stroke="none" fill="#D69B48"></path>

<path d="M 210 90
Q 210 89.5 210 89 209.5 89 209 89 201.5 89 194 89 200.25 90.75 209 90.05 209.5 90 210 90 Z" stroke="none" fill="#D19B31"></path>

<path d="M 194 89
Q 194 88.5 193.95 88.5 190 88 186 88 188.25 89.75 193 89.05 193.5 89 194 89 Z" stroke="none" fill="#D3973A"></path>

<path d="M 196 79
Q 196 78.5 195.85 78.45 188.2 76.3 178 77 184.05 80.45 195 79.05 195.5 79 196 79 Z" stroke="none" fill="#75644A"></path>

<path d="M 169.95 86.5
Q 166 86 162 86 164.25 87.75 169 87.05 169.5 87 170 87 170 86.5 169.95 86.5 Z" stroke="none" fill="#C1832D"></path>

<path d="M 177 77
Q 177 76.5 176.9 76.45 170 74.9 161 75 166.15 78.35 176 77.05 176.5 77 177 77 Z" stroke="none" fill="#616355"></path>

<path d="M 285.25 98.75
Q 281.25 94.95 270 95 291.75 104.75 299.85 128.05 300 128.5 300 129 301.75 134.25 301.05 142 301 142.5 301 143 301 143.5 301.05 144 301.75 148.75 300 151 300 154.5 300 158 300 158.5 300 159 300 159.5 300.05 160 300.75 164.75 299 167 299 167.5 299.05 168 299.75 172.75 298 175 298 178.5 298 182 298 182.5 298 183 298 183.5 298.05 184 298.75 188.75 297 191 297 194.5 297 198 297 198.5 297 199 297 199.5 297.05 200 297.75 204.75 296 207 296 209.5 296 212 296 212.5 296 213 296 213.5 296.05 214 296.75 219.75 295 223 295 226.5 295 230 295 230.5 295 231 295 231.5 295.05 232 295.75 236.75 294 239 294 239.5 294.05 240 294.75 244.75 293 247 293 247.5 293 248 292.65 295.15 250 300 249.5 300 249 300.05 243.25 300.75 240 299 239.5 299 239 299 236.5 299 234 299 233.5 299 233 299.05 228.25 299.75 226 298 225.5 298 225 298 223.5 298 222 298 221.5 298 221 298.05 216.25 298.75 214 297 213.5 297 213 297 211 297 209 297 208.5 297 208 297.05 199.75 297.75 194 296 193.5 296 193 296.05 185.75 296.75 181 295 180.5 295 180 295 179 295 178 295 177.5 295 177 295.05 172.25 295.75 170 294 169.5 294 169 294.05 164.25 294.75 162 293 161.5 293 161 293 159 293 157 293 156.5 293 156 293.05 151.25 293.75 149 292 148.5 292 148 292 138.4 291.6 129 291 128.5 291 128 291.05 123.25 291.75 121 290 121 289.5 120.9 289.45 103.65 285.35 96 272 95.5 272 95.35 271.8 93 268 91 264 90.5 264 90.25 263.75 87.95 261.6 88 257 88 256.5 87.9 256 86.4 248.6 87 239 87 238.5 87 238 87 233.5 87 229 87.5 229 88 229 88 228.5 88 228 88 225.5 88 223 88 222.5 88 222 88 221.5 88 221 87.5 221 87.15 221.25 86 222 85 223 86.75 242.25 86 264 86 264.5 86 265 88.35 263.85 88.05 268 88 268.5 88 269 93.2 273.25 92.5 280
L 93 280
Q 107.75 287.25 121.8 295.35 122 295.5 122 296 134.05 296.2 147 298.9 147.5 299 148 299 178.15 294.3 211.9 302.45 212 302.5 212 303 218.5 303 225 303 225.5 303 226 303 220.75 307.25 212.05 308.5 212 308.5 212 309 225.9 310.4 235.05 307.15 235.5 307 236 307 236 306.5 236 306 236.5 305.5 237.1 305.2 237.5 305 238 305 238 304.5 238 304 241.65 302.65 247 302.95 247.5 303 248 303 251.2 303.25 251.9 306.05 252 306.5 252 307 252.5 307 253 307 253.5 307 254 307 257.5 307 263.05 308.85 263.5 309 264 309 264 308.5 264 308 264 307.5 264 307 265.5 307 267 307 267.5 307 268 307 268 306.5 268 306 273.5 303.7 279.1 301.2 279.5 301 280 301 280 300.5 280 300 282.65 296.65 287.05 295.15 287.5 295 288 295 288 294.5 288 294 288 293 288 292 289.8 290.8 291.25 289.25 291.5 289 292 289 292 288.5 292 288 292 287.5 292 287 292.5 287 293 287 293.5 287 294 287 294 286.5 294 286 294 285.5 294 285 294.5 285 295 285 295.5 285 296 285 296 284.5 296 284 296 282.5 296 281 296.5 281 297 281 297.5 281 298 281 298 280.5 298 280 298 278.5 298 277 298.5 277 299 277 299.5 277 300 277 300 276.5 300 276 300 271 300 266 300 265.5 299.8 265.35 297.85 264.15 297 262 296.5 262 296.35 261.75 294.45 259.1 295 254 295.5 254 295.75 254.25 296 254.5 296 255 298.3 252.8 303 253 303.5 253 304 253 304 252.5 304 252 304 250.5 304 249 304 248.5 304 248 304 243.5 304 239 304.5 239 305 239 305.5 239 306 239 306 238.5 306 238 306 236.5 306 235 306 234.5 306 234 306 228.5 306 223 306 222.5 306 222 306 216 306 210 307.65 210.15 307.5 208
L 308 208
Q 308 207.5 308 207 308 199 308 191 308 190.5 308 190 308 182.5 308 175 308.5 175 309 175 309.5 175 310 175 310 174.5 310 174 310 167 310 160 310 159.5 310.05 159 311 142.9 310 129 310 128.5 310 128 310 126.5 310 125 310 124.5 310 124 310 122.5 310 121 309.5 121 309.05 120.85 307.3 120.2 308 117 307.5 117 307.3 117.25 305.8 119.15 306 115 305.5 115 305.05 114.85 303.3 114.2 304 111 303.5 111 303.25 110.75 300.65 107.85 298 105 298 105.5 297.8 105.6 291.5 108.25 286 99 285.5 99 285.25 98.75 Z" stroke="none" fill="#A16321"></path>

<path d="M 274 87
Q 274 86.5 273.8 86.4 260.6 78.9 238 81 259.95 83.05 274 87.5
L 274 87 Z" stroke="none" fill="#6E614B"></path>

<path d="M 270 95
Q 269.5 95 269 94.95 253.75 92.75 237 92 236.5 92 236 92.05 230.75 92.75 228 91 227.5 91 227 91 222.5 91 218 91 217.5 91 217 91.05 212.25 91.75 210 90 209.5 90 209 90.05 200.25 90.75 194 89 193.5 89 193 89.05 188.25 89.75 186 88 185.5 88 185 88.05 180.25 88.75 178 87 177.5 87 177 87 173.5 87 170 87 169.5 87 169 87.05 164.25 87.75 162 86 161.5 86 161 86 157.5 86 154 86 153.5 86 153 86.05 148.25 86.75 146 85 145.5 85 145 85 143.5 85 142 85 141.5 85 141 85 137.5 85 134 85 133.5 85 133.05 85.1 87.35 96.85 92 159 92 162.5 92 166 92 166.5 92 167 92 167.5 92.05 168 92.75 172.75 91 175 91 175.5 91 176 91 176.5 91 177 91 183.5 91 190 91 190.5 91 191 91 191.5 91.05 192 93.5 216.6 90 208 90 215.5 90 223 90 223.5 90 224 90 224.5 89.75 224.75 89.5 225 89 225 88.45 235.95 89.75 234.75 90 234.5 90 234 91.85 227.1 90.05 242 90 242.5 90 243 90 243.5 89.75 243.75 89.5 244 89 244 90.1 248.45 90 256 90 256.5 90 257 94.3 262.7 95.9 271 96 271.5 96 272 103.65 285.35 120.9 289.45 121 289.5 121 290 125 290 128.95 290.5 129 290.5 129 291 138.4 291.6 148 292 148.5 292 149 292 153 292 156.95 292.5 157 292.5 157 293 159 293 161 293 161.5 293 162 293 165.5 293 169 293 169.5 293 170 293 182.5 292.55 178.95 293.85 178.5 294 178 294 178 294.5 178 295 179 295 180 295 180.5 295 181 295 187.5 295 193.95 295.5 194 295.5 194 296 196 296 198 296 198.5 296 199 296 199 295.5 199 295 204 295 208.95 295.5 209 295.5 209 296 209 296.5 209 297 211 297 213 297 213.5 297 214 297 218 297 221.95 297.5 222 297.5 222 298 223.5 298 225 298 225.5 298 226 298 229.5 298 233 298 233.5 298 234 298 234 297.5 234 297 238.2 296.25 239.75 298.2 240 298.5 240 299 245 299 249.95 299.5 250 299.5 250 300 292.65 295.15 293 248 293 247.5 293 247 293 246.5 293 246 293 242.5 293 239 293.5 239 294 239 294 238.5 294 238 294 234.5 294 231 294 230.5 294 230 294 226.5 294 223 294.5 223 295 223 295 222.5 295 222 295 217.5 295 213 295.5 213 296 213 296 212.5 296 212 296 209.5 296 207 296 206.5 296 206 296 202.5 296 199 296 198.5 296 198 296 194.5 296 191 296.5 191 297 191 297 190.5 297 190 297 186.5 297 183 297.5 183 298 183 298 182.5 298 182 298 178.5 298 175 298 174.5 298 174 298 166.5 298 159 298.5 159 299 159 299 158.5 299 158 299 150.5 299 143 299.5 143 300 143 300 142.5 300 142 300 135.5 300 129 300 128.5 299.85 128.05 291.75 104.75 270 95
M 212 111
Q 211.5 111 211 111 163.85 103.2 120.05 99.5 120 99.5 120 99 189.95 82.6 274.05 102.9 274.5 103 275 103 278.95 107.55 281.8 113.1 282 113.5 282 114 245.55 112.65 212 111
M 204.8 134.4
Q 205 134.5 205 135 209.5 137 213.8 139.4 214 139.5 214 140 218.95 142.55 222.3 146.75 222.5 147 223 147 225.5 149 227.75 151.25 228 151.5 228 152 232.35 157.65 235.8 164.1 236 164.5 236 165 239.05 168.45 239.9 174 240 174.5 240 175 242.65 176.85 242.05 182 242 182.5 242 183 242.5 183 242.5 183.1 244.3 194.8 241 202 241 202.5 240.9 202.95 237.6 217.1 228 225 228 225.5 228 226 228 226.5 228 227 228 227.5 227.8 227.9 226.15 231.15 223 233 223 233.5 222.75 233.8 219.95 237.45 215 239 215 239.5 214.75 239.8 213.1 242.1 210 243 210 243.5 209.75 243.75 201.8 251.1 194 251 194 251.5 193.9 251.5 185.35 253.3 178 253 178 253.5 177.8 253.6 170.6 257.5 168 252 168.5 252 169 252 169 251.5 168.75 251.25 168 250.5 167 250 167 250.5 166.9 250.5 163.05 251.35 164 246 164 245.5 163.8 245.1 162.55 242.95 163 239 162.5 239 162.5 238.95 162 229.5 162 220 162 219.5 162 219 162 215 162 211 162 210.5 162 210 162 206.5 162 203 161.5 203 161.5 202.9 161 200 161 197 160.5 197 160.5 196.95 160 189 160 181 160 180.5 160 180 160 176.5 160 173 160 172.5 160 172 160 171 160 170 159.5 170 159.15 169.75 158.05 168.95 158 167 158 166.5 158 166 158 160 158 154 158 153.5 158 153 158 148 158 143 157.5 143 157.5 142.95 157 139 157 135 157.5 135 158 135 158 134.5 158 134 159 133 159.75 131.85 160 131.5 160 131 160 130.5 160 130 160 129.5 160 129 162 125.95 164.1 126.8 164.5 127 165 127 165.5 127 166 127 166.5 127 167 127 167 126.5 167 126 175 126 182.95 126.5 183 126.5 183 127 194.75 129.75 204.8 134.4 Z" stroke="none" fill="#F8C840"></path>

<path d="M 166.9 250.5
Q 167 250.5 167 250 167 249.5 166.75 249.25 165.2 247.8 164 246 163.05 251.35 166.9 250.5 Z" stroke="none" fill="#D1B767"></path>

<path d="M 177.8 253.6
Q 178 253.5 178 253 177.5 253 177 253.05 172.75 253.7 171 252 170.5 252 170 252 169.5 252 169 252 168.5 252 168 252 170.6 257.5 177.8 253.6 Z" stroke="none" fill="#EED170"></path>

<path d="M 194 251
Q 194 250.5 194 250 193.5 250 193 250.05 182.5 251.05 171 252 172.75 253.7 177 253.05 177.5 253 178 253 185.35 253.3 193.9 251.5 194 251.5 194 251 Z" stroke="none" fill="#C4AA60"></path>

<path d="M 163 220
Q 162.5 220 162 220 162 229.5 162.5 238.95 162.5 239 163 239 163 238.5 163 238 163 229 163 220 Z" stroke="none" fill="#7D6D55"></path>

<path d="M 163 220
Q 163 219.5 163.05 219 163.75 213.75 162 211 162 215 162 219 162 219.5 162 220 162.5 220 163 220 Z" stroke="none" fill="#503620"></path>

<path d="M 208 243
Q 208.5 243 209 243 209.5 243 210 243 213.1 242.1 214.75 239.8 215 239.5 215 239 214.5 239 214 239 213.5 239 213.25 239.25 211.3 241.3 208 242 208 242.5 208 243 Z" stroke="none" fill="#D9BE6D"></path>

<path d="M 208 243
Q 207.5 243 207.2 243.25 201.65 247.65 194 250 194 250.5 194 251 201.8 251.1 209.75 243.75 210 243.5 210 243 209.5 243 209 243 208.5 243 208 243 Z" stroke="none" fill="#E3C772"></path>

<path d="M 222 233
Q 221.5 233 221 233 220.5 233 220.35 233.25 218.05 236.55 214 238 214 238.5 214 239 214.5 239 215 239 219.95 237.45 222.75 233.8 223 233.5 223 233 222.5 233 222 233 Z" stroke="none" fill="#DBBF6E"></path>

<path d="M 221 233
Q 221.5 233 222 233 222.5 233 223 233 226.15 231.15 227.8 227.9 228 227.5 228 227 227.5 227 227.35 227.2 225.25 230.75 221 232 221 232.5 221 233 Z" stroke="none" fill="#DCC170"></path>

<path d="M 161 189
Q 161 192.5 161 196 161 196.5 161 197 161 200 161.5 202.9 161.5 203 162 203 162 202.5 162.05 202 162.75 194.25 161 189 Z" stroke="none" fill="#8B640B"></path>

<path d="M 161 181
Q 160.5 181 160 181 160 189 160.5 196.95 160.5 197 161 197 161 196.5 161 196 161 192.5 161 189 161 188.5 161 188 161 184.5 161 181 Z" stroke="none" fill="#CEB46D"></path>

<path d="M 161 181
Q 161 180.5 161.05 180 161.75 175.25 160 173 160 176.5 160 180 160 180.5 160 181 160.5 181 161 181 Z" stroke="none" fill="#6D502D"></path>

<path d="M 159.1 164.95
Q 159.65 167.15 158 167 158.05 168.95 159.15 169.75 159.5 170 160 170 160 169.5 160.1 169 160.7 165.3 159 164 159 164.5 159.1 164.95 Z" stroke="none" fill="#B69134"></path>

<path d="M 159 164
Q 159 163.5 159.05 163 159.75 157.25 158 154 158 160 158 166 158 166.5 158 167 159.65 167.15 159.1 164.95 159 164.5 159 164 Z" stroke="none" fill="#CCB16E"></path>

<path d="M 158 135
Q 157.5 135 157 135 157 139 157.5 142.95 157.5 143 158 143 158 142.5 158 142 158 138.5 158 135 Z" stroke="none" fill="#A97B1D"></path>

<path d="M 240 175
Q 240 174.5 239.9 174 239.05 168.45 236 165 237.3 170.2 239.4 174.8 239.5 175 240 175 Z" stroke="none" fill="#4D3001"></path>

<path d="M 242.5 183.1
Q 242.5 183 242 183 242 183.5 242.05 184 242.75 191.75 241 197 241 199 241 201 241 201.5 241 202 244.3 194.8 242.5 183.1 Z" stroke="none" fill="#654708"></path>

<path d="M 228 152
Q 228 151.5 227.75 151.25 225.5 149 223 147 223.75 150.75 227.05 151.85 227.5 152 228 152 Z" stroke="none" fill="#6F4F16"></path>

<path d="M 167 126
Q 167 126.5 167 127 174.5 127 182 127 182.5 127 183 127 183 126.5 182.95 126.5 175 126 167 126 Z" stroke="none" fill="#825A09"></path>

<path d="M 165 127
Q 164.5 127 164.1 126.8 162 125.95 160 129 160 129.5 160 130 160 130.5 160 131 161.9 128.9 164.8 127.6 165 127.5 165 127 Z" stroke="none" fill="#B28A37"></path>

<path d="M 214 140
Q 214 139.5 213.8 139.4 209.5 137 205 135 207.75 138.75 213 139.9 213.5 140 214 140 Z" stroke="none" fill="#64470C"></path>

<path d="M 205 135
Q 205 134.5 204.8 134.4 194.75 129.75 183 127 182.5 127 182 127 174.5 127 167 127 166.5 127 166 127 165.5 127 165 127 165 127.5 164.8 127.6 161.9 128.9 160 131 160 131.5 159.75 131.85 159 133 158 134 158 134.5 158 135 158 138.5 158 142 158 142.5 158 143 158 148 158 153 158 153.5 158 154 159.75 157.25 159.05 163 159 163.5 159 164 160.7 165.3 160.1 169 160 169.5 160 170 160 171 160 172 160 172.5 160 173 161.75 175.25 161.05 180 161 180.5 161 181 161 184.5 161 188 161 188.5 161 189 162.75 194.25 162.05 202 162 202.5 162 203 162 206.5 162 210 162 210.5 162 211 163.75 213.75 163.05 219 163 219.5 163 220 163 229 163 238 163 238.5 163 239 162.55 242.95 163.8 245.1 164 245.5 164 246 165.2 247.8 166.75 249.25 167 249.5 167 250 168 250.5 168.75 251.25 169 251.5 169 252 169.5 252 170 252 170.5 252 171 252 182.5 251.05 193 250.05 193.5 250 194 250 201.65 247.65 207.2 243.25 207.5 243 208 243 208 242.5 208 242 211.3 241.3 213.25 239.25 213.5 239 214 239 214 238.5 214 238 218.05 236.55 220.35 233.25 220.5 233 221 233 221 232.5 221 232 225.25 230.75 227.35 227.2 227.5 227 228 227 228 226.5 228 226 228 225.5 228 225 237.6 217.1 240.9 202.95 241 202.5 241 202 241 201.5 241 201 241 199 241 197 242.75 191.75 242.05 184 242 183.5 242 183 242 182.5 242.05 182 242.65 176.85 240 175 239.5 175 239.4 174.8 237.3 170.2 236 165 236 164.5 235.8 164.1 232.35 157.65 228 152 227.5 152 227.05 151.85 223.75 150.75 223 147 222.5 147 222.3 146.75 218.95 142.55 214 140 213.5 140 213 139.9 207.75 138.75 205 135
M 179.9 139.5
Q 180 139.5 180 140 182 140 183.9 140.45 184 140.5 184 141 199.55 143.45 208.25 152.75 208.5 153 209 153 212.75 153.75 213.85 157.05 214 157.5 214 158 222.25 167.25 224.9 182 225 182.5 225 183 226.75 185.75 225.55 190.9 225.5 191 225 191 225 191.5 225 192 225.25 199.75 222 204 222 204.5 222 205 222 205.5 221.8 205.95 220.55 209.05 218 211 218 211.5 217.75 211.85 215.5 215 213 218 213 218.5 212.85 218.55 210.45 219.45 209 221 209 221.5 208.75 221.75 204.4 226.4 199 230 199 230.5 198.75 230.65 195.7 232.7 192 234 192 234.5 192 235 192 235.5 191.8 235.6 184.75 239.1 180 235 180 234.5 180 234 180 232.5 180 231 179.5 231 179.45 230.9 179 229 179 227 178.5 227 178.5 226.95 178 221 178 215 178 214.5 178 214 178 211.5 178 209 177.5 209 177.5 208.95 177 204 177 199 177 198.5 177 198 177 196.5 177 195 176.5 195 176.5 194.95 176 187 176 179 175.5 179 175.5 178.95 175 173 175 167 175 166.5 175 166 175 165 175 164 174.5 164 174.5 163.95 174 157.5 174 151 174 150.5 174 150 174 144.5 174 139 177 139 179.9 139.5
M 227 210
Q 232.65 212.05 227.15 210.55 227 210.5 227 210 Z" stroke="none" fill="#150503"></path>

<path d="M 227.15 210.55
Q 232.65 212.05 227 210 227 210.5 227.15 210.55 Z" stroke="none" fill="#000B15"></path>

<path d="M 192 235
Q 191.5 235 191.05 235.15 185.5 237.3 180 235 184.75 239.1 191.8 235.6 192 235.5 192 235 Z" stroke="none" fill="#6A4C0A"></path>

<path d="M 180 231
Q 180 230.5 180.05 230 180.75 223.75 179 220 179 223 179 226 179 226.5 179 227 179 229 179.45 230.9 179.5 231 180 231 Z" stroke="none" fill="#94763A"></path>

<path d="M 179 218
Q 179.5 218 179.5 217.9 180.75 212.25 179 209 179 211.5 179 214 179 214.5 179 215 179 216 179 217 179 217.5 179 218 Z" stroke="none" fill="#E8C96F"></path>

<path d="M 179 215
Q 178.5 215 178 215 178 221 178.5 226.95 178.5 227 179 227 179 226.5 179 226 179 223 179 220 179 219.5 179 219 179 218.5 179 218 179 217.5 179 217 179 216 179 215 Z" stroke="none" fill="#462B00"></path>

<path d="M 179 209
Q 179 208.5 179.1 208 179.7 204.3 178 203 178 205.5 178 208 178 208.5 178 209 178 211.5 178 214 178 214.5 178 215 178.5 215 179 215 179 214.5 179 214 179 211.5 179 209 Z" stroke="none" fill="#A2750E"></path>

<path d="M 178 202
Q 178 200.5 178 199 177.5 199 177 199 177 204 177.5 208.95 177.5 209 178 209 178 208.5 178 208 178 205.5 178 203 178 202.5 178 202 Z" stroke="none" fill="#402800"></path>

<path d="M 212 216
Q 212 217 212.4 217.8 212.5 218 213 218 215.5 215 217.75 211.85 218 211.5 218 211 217.5 211 217.25 211.25 214.65 213.65 212 216 Z" stroke="none" fill="#D7B962"></path>

<path d="M 208.75 221.75
Q 209 221.5 209 221 208.5 221 208.15 221.25 202.9 224.9 198 229 198 229.5 198.25 229.75 198.5 230 199 230 204.4 226.4 208.75 221.75 Z" stroke="none" fill="#D9B95F"></path>

<path d="M 225 191
Q 225.5 191 225.55 190.9 226.75 185.75 225 183 225 186.5 225 190 225 190.5 225 191 Z" stroke="none" fill="#AE8A2A"></path>

<path d="M 213.25 157.75
Q 213.5 158 214 158 214 157.5 213.85 157.05 212.75 153.75 209 153 211 155.5 213.25 157.75 Z" stroke="none" fill="#624317"></path>

<path d="M 177 187
Q 177 190.5 177 194 177 194.5 177 195 177 196.5 177 198 177 198.5 177 199 177.5 199 178 199 178 198.5 178.05 198 178.75 191.25 177 187 Z" stroke="none" fill="#957A3D"></path>

<path d="M 177 179
Q 176.5 179 176 179 176 187 176.5 194.95 176.5 195 177 195 177 194.5 177 194 177 190.5 177 187 177 186.5 177 186 177 182.5 177 179 Z" stroke="none" fill="#4F3102"></path>

<path d="M 177 179
Q 177 178.5 177.05 178 177.75 173.25 176 171 176 174.5 176 178 176 178.5 176 179 176.5 179 177 179 Z" stroke="none" fill="#BF901C"></path>

<path d="M 176 167
Q 175.5 167 175 167 175 173 175.5 178.95 175.5 179 176 179 176 178.5 176 178 176 174.5 176 171 176 170.5 176 170 176 168.5 176 167 Z" stroke="none" fill="#402605"></path>

<path d="M 176 159
Q 175.5 159 175 159 175 161 175 163 175 163.5 175 164 175 165 175 166 175 166.5 175 167 175.5 167 176 167 176 166.5 176 166 176 162.5 176 159 Z" stroke="none" fill="#7E642D"></path>

<path d="M 175 151
Q 174.5 151 174 151 174 157.5 174.5 163.95 174.5 164 175 164 175 163.5 175 163 175 161 175 159 175 158.5 175 158 175 154.5 175 151 Z" stroke="none" fill="#412500"></path>

<path d="M 190 145
Q 189.5 145 189.05 144.9 179.7 142.5 176 145 180.05 150.95 176.6 158.8 176.5 159 176 159 176 162.5 176 166 176 166.5 176 167 176 168.5 176 170 176 170.5 176 171 177.75 173.25 177.05 178 177 178.5 177 179 177 182.5 177 186 177 186.5 177 187 178.75 191.25 178.05 198 178 198.5 178 199 178 200.5 178 202 178 202.5 178 203 179.7 204.3 179.1 208 179 208.5 179 209 180.75 212.25 179.5 217.9 179.5 218 179 218 179 218.5 179 219 179 219.5 179 220 180.75 223.75 180.05 230 180 230.5 180 231 180 232.5 180 234 180 234.5 180 235 185.5 237.3 191.05 235.15 191.5 235 192 235 192 234.5 192 234 195.7 232.7 198.75 230.65 199 230.5 199 230 198.5 230 198.25 229.75 198 229.5 198 229 202.9 224.9 208.15 221.25 208.5 221 209 221 210.45 219.45 212.85 218.55 213 218.5 213 218 212.5 218 212.4 217.8 212 217 212 216 214.65 213.65 217.25 211.25 217.5 211 218 211 220.55 209.05 221.8 205.95 222 205.5 222 205 221.5 205 221.45 204.9 219.35 196.3 224 189 224 188.5 223.8 188.15 219.55 181.15 220 173 219.5 173 219.4 172.8 217.25 168.05 218 173
L 218 173.5
Q 214.75 168.25 210 159 209.5 159 209.05 158.85 203.3 157.1 206 155 205.5 155 205.1 154.8 196.45 151.05 190 145 Z" stroke="none" fill="#F7C53E"></path>

<path d="M 184 141
Q 183.5 141 183 141 179 141 175 141 175 145.5 175 150 175 150.5 175 151 175 154.5 175 158 175 158.5 175 159 175.5 159 176 159 176.5 159 176.6 158.8 180.05 150.95 176 145 179.7 142.5 189.05 144.9 189.5 145 190 145 196.45 151.05 205.1 154.8 205.5 155 206 155 203.3 157.1 209.05 158.85 209.5 159 210 159 214.75 168.25 218 173.5
L 218 173
Q 217.25 168.05 219.4 172.8 219.5 173 220 173 219.55 181.15 223.8 188.15 224 188.5 224 189 219.35 196.3 221.45 204.9 221.5 205 222 205 222 204.5 222 204 225.25 199.75 225 192 225 191.5 225 191 225 190.5 225 190 225 186.5 225 183 225 182.5 224.9 182 222.25 167.25 214 158 213.5 158 213.25 157.75 211 155.5 209 153 208.5 153 208.25 152.75 199.55 143.45 184 141 Z" stroke="none" fill="#E4BB56"></path>

<path d="M 179 140
Q 177 140 175 140 175 140.5 175 141 179 141 183 141 183.5 141 184 141 184 140.5 183.9 140.45 182 140 180 140 179.5 140 179 140 Z" stroke="none" fill="#C0A56B"></path>

<path d="M 180 140
Q 180 139.5 179.9 139.5 177 139 174 139 174 144.5 174 150 174 150.5 174 151 174.5 151 175 151 175 150.5 175 150 175 145.5 175 141 175 140.5 175 140 177 140 179 140 179.5 140 180 140 Z" stroke="none" fill="#946D1E"></path>

<path d="M 211 111
Q 211.5 111 212 111 245.55 112.65 282 114 282 113.5 281.8 113.1 278.95 107.55 275 103 274.5 103 274.05 102.9 189.95 82.6 120 99 120 99.5 120.05 99.5 163.85 103.2 211 111 Z" stroke="none" fill="#FEDD6D"></path>

<path d="M 270 95
Q 270 94.5 269.9 94.05 269.6 92.8 261 90 260.5 90 260 90 234.4 90.05 228 89 227.5 89 227 89 218.1 88.6 210 89 210 89.5 210 90 214 90 217.95 90.5 218 90.5 218 91 222.5 91 227 91 227.5 91 228 91 232.5 91 236.95 91.5 237 91.5 237 92 253.75 92.75 269 94.95 269.5 95 270 95 Z" stroke="none" fill="#A66615"></path>

<path d="M 269.9 94.05
Q 270 94.5 270 95 281.25 94.95 285.25 98.75 285.5 99 286 99 291.5 108.25 297.8 105.6 298 105.5 298 105 297.5 105 297.35 104.75 289.7 93.3 277 87 276.5 87 276 87 275 87 274 87
L 274 87.5
Q 259.95 83.05 238 81 237.5 81 237 81 232.5 81 228 81 227.5 81 227 81.05 216.05 82.45 210 79 209.5 79 209 79 202.5 79 196 79 195.5 79 195 79.05 184.05 80.45 178 77 177.5 77 177 77 176.5 77 176 77.05 166.15 78.35 161 75 160.5 75 160 75 153 75 146 75 145.5 75 145 75 137.5 75 130 75 130 75.5 129.8 75.6 126.8 77.3 122 77 122 77.5 121.8 77.65 119.5 79 116 79 115.5 79 115.3 79.25 114.2 80.7 112 81 112 81.5 111.75 81.75 109.45 83.95 106 85 105.5 85 105 85 104.5 85 104 85 104 85.5 104 86 104 86.5 104 87 104 87.5 103.75 87.75 101.1 90.6 98 93 98 93.5 97.9 93.95 97.2 96.7 94 97 94 97.5 94.05 98 94.15 99.65 92 99 92 100.5 92 102 92 102.5 92 103 92.5 103 92.65 103.2 94.7 106.7 88 107 88 107.5 88 108 88 108.5 88 109 88 109.5 88 110 88 110.5 88 111 95.3 107.1 88.8 112.75 88.5 113 88 113 87.5 113 87 113 86.5 113 86 113 86 113.5 86.1 114 87.2 118.7 84 119 84 119.5 84 120 84 120.5 84 121 84 121.5 84.05 122 85.45 134.95 82 143 82 150.5 82 158 82 158.5 82 159 82 159.5 82.05 160 83.2 169.7 80 175 80 182.5 80 190 80 190.5 80 191 80 191.5 80 192 80.25 199.75 78 205 78 212 78 219 78 219.5 78 220 78 220.5 78 221 78 221.5 78.05 222 78.8 227.8 75 229 75.3 230.7 78 230.5
L 78 231
Q 79 231 79.8 231.4 80 231.5 80 232 82.65 233.85 82.05 239 82 239.5 82 240 82 240.5 81.95 241 81 248.5 80 241 79.5 241 79.1 241.2 78.5 241.5 78 242 78 242.5 78 243 78 243.5 78.1 243.95 78.9 247.45 76 247 76 247.5 76 248 76 248.5 76 249 76 253.5 76 258 76 258.5 76 259 79.25 259.75 78.1 265 78 265.5 78 266 81.25 272.75 85.75 278.2 86 278.5 86 279 88.9 278.6 88.1 282.05 88 282.5 88 283 90.7 283.8 91.8 286.1 92 286.5 92 287 99.5 291 105.75 296.3 106 296.5 106 297 109.2 296.3 109.85 298.05 110 298.5 110 299 115 299.05 115.75 300.15 116 300.5 116 301 123 300.5 127.85 302.45 128 302.5 128 303 128.5 303 129 303 129.5 303 130 303 130 302.5 130 302 130.5 302 130.75 301.75 131 301.5 131 301 131 300.5 131 300 136 300 140.95 300.5 141 300.5 141 301 144.65 300.85 144.95 304 145 304.5 145 305 152 305 159 305 159.5 305 160 305 165.95 304.6 169.8 306.4 170 306.5 170 307 173.5 307 177 307 177.5 307 178 307 178 306.5 178 306 178 305 178 304 186.85 305.15 191.9 306.45 192 306.5 192 307 202.15 306.35 209.85 308.45 210 308.5 210 309 210.5 309 211 309 211.5 309 212 309 212 308.5 212.05 308.5 220.75 307.25 226 303 225.5 303 225 303 218.5 303 212 303 212 302.5 211.9 302.45 178.15 294.3 148 299 147.5 299 147 298.9 134.05 296.2 122 296 122 295.5 121.8 295.35 107.75 287.25 93 280
L 92.5 280
Q 93.2 273.25 88 269 88 268.5 88.05 268 88.35 263.85 86 265 86 264.5 86 264 86.75 242.25 85 223 86 222 87.15 221.25 87.5 221 88 221 88 220.5 88 220 88 218 88 216
L 87.5 216
Q 87.35 210.65 86 207 88.0228515625 204.0611328125 89 199.8 89 199.40546875 89 199 89.0853515625 199 89.15 199 89.359765625 198.0556640625 89.5 197.05 89.5 197 90 197 90 196.5 90 196 90 193.5 90 191 90 190.5 90 190 90 183.5 90 177 90 176.5 90 176 90.2 149.55 90 127 94.55 121.05 92.5 113
L 93 113
Q 100.1 101.35 102.25 99.25 102.5 99 103 99 104.8 91.3 113.95 90.5 114 90.5 114 90 116.3 86.45 129.85 81.55 130 81.5 130 81 157.85 83.4 169 83 169.5 83 170 83 184.4 83.05 174 83.95 173.5 84 173 84 189.6 85.4 209.95 88.5 210 88.5 210 89 218.1 88.6 227 89 227.5 89 228 89 234.4 90.05 260 90 260.5 90 261 90 269.6 92.8 269.9 94.05
M 210 85.5
L 210 85
Q 223.25 85.5 210 85.5
M 194 303
Q 209.95 305.5 194.05 303.5 194 303.5 194 303
M 165 302.5
L 165 302
Q 183.15 301.15 165 302.5 Z" stroke="none" fill="#9D612D"></path>

<path d="M 165 302
L 165 302.5
Q 183.15 301.15 165 302 Z" stroke="none" fill="#9B6225"></path>

<path d="M 194.05 303.5
Q 209.95 305.5 194 303 194 303.5 194.05 303.5 Z" stroke="none" fill="#9C6225"></path>

<path d="M 210 85
L 210 85.5
Q 223.25 85.5 210 85 Z" stroke="none" fill="#A35E1C"></path>

<path d="M 333 297
Q 332.5 297 332 297.05 327.7 297.7 323 298 327.5 299.95 332.8 297.6 333 297.5 333 297 Z" stroke="none" fill="#1D353D"></path>

<path d="M 334 269
Q 334 269.5 334.05 270 334.75 283.75 333 295 333 295.5 333 296 333 296.5 333 297 336.5 285.5 334.5 269.05 334.5 269 334 269 Z" stroke="none" fill="#05282F"></path>

<path d="M 330 264
Q 329.5 264 329 264.1 318.6 265.9 315 261 314.5 261 314.4 260.8 311.7 255.3 306 253 305.5 253 305 253 304.5 253 304 253 304 253.5 304.1 253.95 305.1 258.1 302 258 302.5 264.4 303.85 268.05 304 268.5 304 269 304 269.5 304 270 304 270.5 304 271 304.5 271 305 271 308.2 273.3 309.8 277.1 310 277.5 310 278 312.75 285.25 317.75 290.25 318 290.5 318 291 320.85 292.7 321.85 296.05 322 296.5 322 297 322 297.5 322.25 297.75 322.5 298 323 298 327.7 297.7 332 297.05 332.5 297 333 297 333 296.5 333 296 333 295.5 333 295 334.75 283.75 334.05 270 334 269.5 334 269 334 268.5 333.75 268.15 332.2 265.8 330 264
M 323 295.5
L 323 295
Q 336.25 295.5 323 295.5 Z" stroke="none" fill="#010A19"></path>

<path d="M 323 295
L 323 295.5
Q 336.25 295.5 323 295 Z" stroke="none" fill="#0F1B23"></path>

<path d="M 330 264
Q 330 263.5 329.95 263.5 320.75 262.95 315 261 318.6 265.9 329 264.1 329.5 264 330 264 Z" stroke="none" fill="#173841"></path>
</g>
</g>
</g>
</g>
</g>
</svg>
