
<svg viewBox="0 0 135 110" height="110px" width="135px" y="0px" x="0px" preserveAspectRatio="none" xmlns:xlink="http://www.w3.org/1999/xlink" version="1.1" xmlns="http://www.w3.org/2000/svg">
<defs></defs>

<g id="Layer_1"></g>

<g id="Layer_2">
<g transform="matrix( 0.981231689453125, 0, 0, 0.976226806640625, -4.15,-3.65)" id="Layer_1">
<g>
<g>
<g>
<path d="M 137.55 13.6
Q 130.65 9.9 122.45 10.55 119.75 10.85 116.95 11.55 116.1849609375 11.730078125 115.65 12 115.479296875 11.8041015625 115.3 11.6 113.4 9.85 111.2 8.4 104.95 4.25 97.4 4.3 93.65 4.25 90.05 5.4 84.4 7.25 79.7 10.95 77.15 8.9 73.75 8.25 68.1 7.15 62.45 8.3 51.45 10.55 44.2 19.3 42.8431640625 20.9537109375 41.9 22.8 41.2427734375 22.5599609375 40.55 22.35 36.05 21.05 31.3 20.95 18.2 21.75 5.6 25.95 5 26.15 4.85 26.7 3.2 34.3 6 41.85 8.55 48.8 12.05 55.3 15.1 60.9 20.35 64.6 20.3845703125 64.6248046875 20.4 64.65 20.2013671875 64.8912109375 20 65.15 13.75 73.2 15.95 83.25 17.1 88.55 20.85 92.5 25.6849609375 97.581640625 32.35 99.45 32.4595703125 99.475390625 32.55 99.5 31.35 100.75 31.1 102.35 30.25 107.75 35.35 110.55 43 114.8 51.75 112.45 53.8 111.9 55.8 111.6 56.663671875 111.45390625 57.3 111.15 58.684375 112.49296875 60.9 113.1 64.1 115.2 67.85 116.05 74.95 117.55 82.25 117.35 90.45 117.1 98.3 114.95 107.45 112.4 114.05 105.6 117.25 105.9 120.5 105.8 127.25 105.55 131.5 100.25 131.8185546875 99.85078125 132.05 99.45 135.1515625 94.8845703125 131.75 90.15 132.45 89.75 133.05 89.25 135.3 87.25 136.75 84.6 137.35 83.55 138 82.45 138 82.4 138 82.3 138 82.25 138.05 82.15 138.05 82.05 138.1 82 138.1 81.9 138.15 81.85 138.2 81.75 138.2 81.65 138.25 81.6 138.25 81.5 138.3 81.45 138.3 81.35 141.2 75.85 140.65 69.45 140.35 66.3 139.05 63.5 138.1 60.7 136.55 58.15 134.6470703125 55.07890625 132.05 53.3 133.7142578125 51.539453125 134.65 49.2 137.3 44.3 138.6 38.85 141.35 27.2 138.9 15.5 138.65 14.25 137.55 13.6
M 134.85 16.5
Q 135.75 20.1 136.05 23.8 137.05 36 131.65 46.9 130.5 49.3 128.35 50.95 128.0869140625 51.144921875 127.85 51.35 125.0033203125 50.555078125 121.55 50.85 115.2 51.4 110.75 56.2 109.85 57.2 110.55 58.25 112.2 60.8 114.5 58.45 115.5 57.45 116.7 56.75 122.5587890625 53.4369140625 127.55 55.6 127.8951171875 55.74609375 128.2 55.9 130.059375 56.8484375 131.8 58.55 133.4 60.8 134.55 63.3 139.05 72.6 133.95 81.85 132.5 84.45 129.95 86.15 127.1 88.1 123.6 88.45 121.1 88.7 121.95 91 122.2 91.7 122.85 91.7 126.1 91.6 128.8 92.9 130.575 97.055859375 126.9 99.45 126.3478515625 99.8212890625 125.65 100.15 119.75 102.9 113.25 101.4 112.85 101.3 112.55 101.6 105.85 108.85 96.25 111.3 90.65 112.7 84.9 113.3 73.5 114.5 63.4 110 61.85 109.15 60.45 108.1 59.1849609375 107.151171875 57.95 107.2 55.707421875 106.7548828125 53.25 107.7 44.9 110.95 37.25 107 36.5 106.4 35.75 105.8 35 105.25 34.8 104.35 34.7 103.85 34.85 103.4 34.9 103.25 34.9 103.1 36.25 100.65 39.1 100.85 41.71875 101.034375 42.4 99.45 42.65 98.8869140625 42.65 98.1 42.6 97.55 42.15 97.35 39.7 96.3 36.85 96.05 31.5 95.55 27.15 92.45 18.6 86.5 19.4 76.15 19.85 70.85 23.6 67.25 26.2 64.75 29.75 63.75 34.55 62.4 39.2 64.05 42.65 65.3 43.4 62.3 43.55 61.7 43.1 61.4 38.45 58.45 32.6 59.15 27.9107421875 59.9826171875 23.7 62.2 19.79609375 59.594921875 16.95 55.8 14.4 52.4 12.65 48.5 11.1 44.95 9.95 41.25 8.15 35.6 7.9 29.65 12.85 27.45 18.55 26.2 28.75 24.05 38.9 26.15 39.73984375 26.3115234375 40.55 26.4 40.3416015625 27.2740234375 40.2 28.15 39.5 32.7 41.45 36.9 44.5 43.55 51.75 45.55 51.75 45.6 51.75 45.7 51.65 46.75 51.95 47.75 52.1 48.45 52.25 49.15 52.4 49.65 52.65 50.1 53 52.2 54.35 54.05 56.6208984375 57.077734375 59.4 59.15 59.6138671875 61.0908203125 60.1 62.85 58.3087890625 63.2107421875 57.8 65.05 57.6 65.8 58.15 66.2 59.9349609375 67.5208984375 62.15 67.25 63.35078125 69.1673828125 65.05 70.8 65.65 71.35 66.45 71.3 69.6 71.15 69.55 67.95 69.5 65.95 69.5 64 69.5013671875 63.725 69.5 63.45 70.5529296875 63.6388671875 71.65 63.75 79.1310546875 64.5205078125 86.3 63.05 86.820703125 64.5388671875 87.4 66 88.35 68.4 90.55 67.15 92.3 66.15 92.4 64.25 92.4234375 63.8740234375 92.45 63.5 95.4 63.9 95.95 61.35 96.1 60.7 95.6 60.3 95.5716796875 60.2767578125 95.55 60.25 102.834375 57.303125 106 50.1 108 45.55 108 40.6 113 40.25 116.5 36.75 118.9 34.3 119.7 31 121.65 25.05 119.6 19 118.9333984375 17.0478515625 117.9 15.25 126.6130859375 13.0603515625 134.85 16.5
M 113.7 16.1
Q 114.45 17.1 115.05 18.15 115.35 18.65 115.7 19.1 115.75 19.35 115.8 19.6 115.85 20.05 116.05 20.55 116.2 21 116.35 21.5 116.35 21.55 116.4 21.65 116.4 21.8 116.4 21.95 116.3 23.4 116.5 24.8 116.7 26.1 116.55 27.35 116.45 27.95 116.5 28.6 116.4 28.75 116.25 28.9 115.95 29.35 115.8 29.85 115.7 30.15 115.7 30.5 115.7 30.6 115.65 30.65 112.95 36.45 106.4 36.5 106 36.5 105.6 36.6 102 37.5 104 41 104 41.25 104 41.45 103.95 41.95 104 42.4 104 42.8 104.05 43.2 104.05 43.3 104.05 43.35 103.95 43.5 103.9 43.7 103.4 44.8 103.2 45.9 102.95 46.95 102.55 48 102.4 48.35 102.3 48.75 102.2 48.9 102.1 49.1 101.7 49.95 101.15 50.7 97.581640625 55.287890625 92.3 57.45 91.7814453125 51.4244140625 89.6 45.65 89.15 44.45 88.8 43.2 88.6013671875 42.4470703125 88.3 41.8 87.1701171875 39.453515625 84.6 38.9 82.3 39.6 82 42.2 81.9654296875 42.5306640625 81.95 42.85 81.906640625 43.508203125 81.9 44.15 81.97265625 46.4595703125 82.75 48.65 82.96328125 50.1109375 83.2 51.55 83.96171875 55.4873046875 85.1 59.3 77.6169921875 60.5482421875 70.05 59.3 69.684375 59.23984375 69.3 59.15 69.24375 58.133203125 69.1 57.1 68.42109375 50.988671875 66.4 45.15 65.3 41.95 62.3 41.3 59.25 42.2 59.15 45.45 59.0029296875 49.390625 59.1 53.3 59.116015625 53.5890625 59.1 53.85 58.3607421875 53.108984375 57.65 52.25 57.6390625 52.2173828125 57.6 52.15 57.5890625 52.0673828125 57.55 51.95 56.85 50.85 56.6 49.6 56.4 48.5 56.05 47.5 55.9 46.95 55.75 46.4 55.8 45.65 55.8 44.85 55.8 44 55.35 43.45 53.45 41.3 50.45 40.35 46.95 39.3 45.2 36.05 44.55 34.45 44.3 32.75 43.95 30.45 44.45 28.15 44.8 26.8 45.15 25.45 46.2525390625 23.49921875 47.6 21.8 51.099609375 17.50390625 56.3 14.85 65.15 10.4 74.7 12.75 75.7 13 76.25 13.8 77.2 15.1 78.45 16.1 79.55 16.95 80.45 15.95 87.2 8.65 97.3 8.35 101.05 8.2 104.5 9.5 108.8 11.15 112.25 14.25 112.95 15.2 113.7 16.1
M 67.8 24.6
Q 67.6115234375 24.51953125 67.4 24.45 67.36484375 24.4236328125 67.3 24.4 64.7 23.35 61.95 22.95 53.15 25.1 50.7 33.9 49.8 37.25 53.15 37.4 53.65 37.45 53.8 37 55.25 31.35 59.8 27.7 60.35 27.5 60.85 27.3 61.6 27.1 62.3 27 64.2 27.65 65.95 28.55 67.2 29.1 68.4 28.65 70.95 27.6 69.4 25.4 68.6287109375 24.9373046875 67.8 24.6
M 12.9 36.9
L 12.85 36.9
Q 12.65 36.95 12.4 37 12.3 37 12.2 37.05 10.85 37.65 11 39.15 11.1 40.45 11.8 41.5 12.55 43.85 13.7 46 17.4 52.95 22.7 58.6 25.05 61.1 26.2 58.1 27.65 54.35 25.1 50.85 22.5 47.25 19.75 43.7 16.7 39.65 12.9 36.9
M 104.65 96.1
Q 104.2 92.5 102.1 89.5 96.2 81.05 85.8 80.95 78.5 81.1 71.95 84.7 66.55 87.65 63.55 92.95 61.64296875 96.281640625 61.65 99.45 61.698828125 103.5091796875 64.9 107.3 68.1 111.05 72.95 111.15 74.25 111.6 75.55 111.95 85.1 114.45 94.15 110.8 97.7 109.4 100.55 106.9 104.1548828125 103.73203125 104.65 99.45 104.8810546875 97.852734375 104.65 96.1
M 74.8 107.2
Q 71.6916015625 106.02265625 68.55 105.25 69.1736328125 104.48828125 69.6 103.55 72.95 105.2 76.65 106.05 87.8 108.65 95.45 100.95 97.5 100.95 99.3 101.9 94.9017578125 107.7080078125 87.25 108.7 80.8 109.55 74.8 107.2
M 81.25 78.65
Q 85.3 78.85 88.9 77.35 91.133984375 76.4220703125 92.1 74.6 93.40546875 74.7572265625 94.7 75 98 75.6 100.85 77.4 103.75 79.25 104.5 75.95 104.65 75.15 104 74.65 97.21875 70.2443359375 89.05 70.1 83.71640625 68.3556640625 77.65 69.25 73.5 69.4 69.95 71.75 68.4828125 72.712890625 68.9 74.25 65.1435546875 75.9453125 61.65 78.25 60.1 79.25 58.55 80.4 55.8 82.55 58 84.8 58.35 85.2 58.85 84.95 61.8 83.55 64.2 81 66.2 79.95 68.25 78.9 69.78046875 78.1033203125 71.35 77.45 71.815625 77.7318359375 72.35 77.95 76.8 79.75 81.25 78.65
M 133.15 35.45
Q 135.7 30.75 134 26 133.65 25.8 133.3 25.65 133 25.55 132.7 25.5 131.75 25.5 131.15 26.35 130.55 27.1 130.75 28.1 128.9 35.05 124.6 40.75 121.55 44.85 125.75 47.85 126.8 48.6 127.55 47.6 130.05 44.5 131.1 40.55 131.85 37.85 133.15 35.45 Z" stroke="none" fill="#000000"></path>

<path d="M 85.1 59.3
Q 83.96171875 55.4873046875 83.2 51.55 83.169921875 51.705859375 83.1 51.85 81.35 55.75 75 57 72.0474609375 57.460546875 69.1 57.1 69.24375 58.133203125 69.3 59.15 69.684375 59.23984375 70.05 59.3 77.6169921875 60.5482421875 85.1 59.3
M 115.05 18.15
Q 114.45 17.1 113.7 16.1 112.95 15.2 112.25 14.25 108.8 11.15 104.5 9.5 101.05 8.2 97.3 8.35 87.2 8.65 80.45 15.95 79.55 16.95 78.45 16.1 77.2 15.1 76.25 13.8 75.7 13 74.7 12.75 65.15 10.4 56.3 14.85 51.099609375 17.50390625 47.6 21.8 49.3130859375 20.146875 51.4 18.75 57.6 14.6 64.6 14.6 66.4 14.5 67.85 15 69.6 15.55 70.35 16.75 72.276171875 20.0521484375 67.4 24.45 67.6115234375 24.51953125 67.8 24.6 73.40625 21.923828125 79.9 21.7 87.1 21.4 93.6 24.1 96.6 25.5 98.35 27.45 100.5 29.75 100.25 32.35 99.95 35.5 95.85 38.35 92.37421875 40.6671875 88.3 41.8 88.6013671875 42.4470703125 88.8 43.2 89.15 44.45 89.6 45.65 91.7814453125 51.4244140625 92.3 57.45 97.581640625 55.287890625 101.15 50.7 101.7 49.95 102.1 49.1 102.2 48.9 102.3 48.75 102.4 48.35 102.55 48 102.95 46.95 103.2 45.9 103.4 44.8 103.9 43.7 103.95 43.5 104.05 43.35 104.05 43.3 104.05 43.2 104 42.8 104 42.4 103.95 41.95 104 41.45 104 41.25 104 41 102 37.5 105.6 36.6 106 36.5 106.4 36.5 112.95 36.45 115.65 30.65 115.7 30.6 115.7 30.5 115.7 30.15 115.8 29.85 115.95 29.35 116.25 28.9 116.4 28.75 116.5 28.6 116.45 27.95 116.55 27.35 116.7 26.1 116.5 24.8 116.3 23.4 116.4 21.95 116.4 21.8 116.4 21.65 116.35 21.55 116.35 21.5 116.2 21 116.05 20.55 115.85 20.05 115.8 19.6 115.75 19.35 115.7 19.1 115.35 18.65 115.05 18.15 Z" stroke="none" fill="#628BFF"></path>

<path d="M 100.25 32.35
Q 100.5 29.75 98.35 27.45 96.6 25.5 93.6 24.1 87.1 21.4 79.9 21.7 73.40625 21.923828125 67.8 24.6 68.6287109375 24.9373046875 69.4 25.4 70.95 27.6 68.4 28.65 67.2 29.1 65.95 28.55 64.2 27.65 62.3 27 61.6 27.1 60.85 27.3 60.35 27.5 59.8 27.7 55.25 31.35 53.8 37 53.65 37.45 53.15 37.4 49.8 37.25 50.7 33.9 53.15 25.1 61.95 22.95 64.7 23.35 67.3 24.4 67.36484375 24.4236328125 67.4 24.45 72.276171875 20.0521484375 70.35 16.75 69.6 15.55 67.85 15 66.4 14.5 64.6 14.6 57.6 14.6 51.4 18.75 49.3130859375 20.146875 47.6 21.8 46.2525390625 23.49921875 45.15 25.45 44.8 26.8 44.45 28.15 43.95 30.45 44.3 32.75 44.55 34.45 45.2 36.05 46.95 39.3 50.45 40.35 53.45 41.3 55.35 43.45 55.8 44 55.8 44.85 55.8 45.65 55.75 46.4 55.9 46.95 56.05 47.5 56.4 48.5 56.6 49.6 56.85 50.85 57.55 51.95 57.5890625 52.0673828125 57.6 52.15 57.6390625 52.2173828125 57.65 52.25 58.3607421875 53.108984375 59.1 53.85 59.116015625 53.5890625 59.1 53.3 59.0029296875 49.390625 59.15 45.45 59.25 42.2 62.3 41.3 65.3 41.95 66.4 45.15 68.42109375 50.988671875 69.1 57.1 72.0474609375 57.460546875 75 57 81.35 55.75 83.1 51.85 83.169921875 51.705859375 83.2 51.55 82.96328125 50.1109375 82.75 48.65 81.97265625 46.4595703125 81.9 44.15 81.906640625 43.508203125 81.95 42.85 81.9654296875 42.5306640625 82 42.2 82.3 39.6 84.6 38.9 87.1701171875 39.453515625 88.3 41.8 92.37421875 40.6671875 95.85 38.35 99.95 35.5 100.25 32.35
M 136.05 23.8
Q 135.75 20.1 134.85 16.5 126.6130859375 13.0603515625 117.9 15.25 118.9333984375 17.0478515625 119.6 19 121.65 25.05 119.7 31 118.9 34.3 116.5 36.75 113 40.25 108 40.6 108 45.55 106 50.1 102.834375 57.303125 95.55 60.25 95.5716796875 60.2767578125 95.6 60.3 96.1 60.7 95.95 61.35 95.4 63.9 92.45 63.5 92.4234375 63.8740234375 92.4 64.25 92.3 66.15 90.55 67.15 88.35 68.4 87.4 66 86.820703125 64.5388671875 86.3 63.05 79.1310546875 64.5205078125 71.65 63.75 70.5529296875 63.6388671875 69.5 63.45 69.5013671875 63.725 69.5 64 69.5 65.95 69.55 67.95 69.6 71.15 66.45 71.3 65.65 71.35 65.05 70.8 63.35078125 69.1673828125 62.15 67.25 59.9349609375 67.5208984375 58.15 66.2 57.6 65.8 57.8 65.05 58.3087890625 63.2107421875 60.1 62.85 59.6138671875 61.0908203125 59.4 59.15 56.6208984375 57.077734375 54.35 54.05 53 52.2 52.65 50.1 52.4 49.65 52.25 49.15 52.1 48.45 51.95 47.75 51.65 46.75 51.75 45.7 51.75 45.6 51.75 45.55 44.5 43.55 41.45 36.9 39.5 32.7 40.2 28.15 40.3416015625 27.2740234375 40.55 26.4 39.73984375 26.3115234375 38.9 26.15 28.75 24.05 18.55 26.2 12.85 27.45 7.9 29.65 8.15 35.6 9.95 41.25 11.1 44.95 12.65 48.5 14.4 52.4 16.95 55.8 19.79609375 59.594921875 23.7 62.2 27.9107421875 59.9826171875 32.6 59.15 38.45 58.45 43.1 61.4 43.55 61.7 43.4 62.3 42.65 65.3 39.2 64.05 34.55 62.4 29.75 63.75 26.2 64.75 23.6 67.25 19.85 70.85 19.4 76.15 18.6 86.5 27.15 92.45 31.5 95.55 36.85 96.05 39.7 96.3 42.15 97.35 42.6 97.55 42.65 98.1 42.65 98.8869140625 42.4 99.45 41.71875 101.034375 39.1 100.85 36.25 100.65 34.9 103.1 34.9 103.25 34.85 103.4 34.7 103.85 34.8 104.35 35 105.25 35.75 105.8 36.5 106.4 37.25 107 44.9 110.95 53.25 107.7 55.707421875 106.7548828125 57.95 107.2 59.1849609375 107.151171875 60.45 108.1 61.85 109.15 63.4 110 73.5 114.5 84.9 113.3 90.65 112.7 96.25 111.3 105.85 108.85 112.55 101.6 112.85 101.3 113.25 101.4 119.75 102.9 125.65 100.15 126.3478515625 99.8212890625 126.9 99.45 130.575 97.055859375 128.8 92.9 126.1 91.6 122.85 91.7 122.2 91.7 121.95 91 121.1 88.7 123.6 88.45 127.1 88.1 129.95 86.15 132.5 84.45 133.95 81.85 139.05 72.6 134.55 63.3 133.4 60.8 131.8 58.55 130.059375 56.8484375 128.2 55.9 127.8951171875 55.74609375 127.55 55.6 122.5587890625 53.4369140625 116.7 56.75 115.5 57.45 114.5 58.45 112.2 60.8 110.55 58.25 109.85 57.2 110.75 56.2 115.2 51.4 121.55 50.85 125.0033203125 50.555078125 127.85 51.35 128.0869140625 51.144921875 128.35 50.95 130.5 49.3 131.65 46.9 137.05 36 136.05 23.8
M 134 26
Q 135.7 30.75 133.15 35.45 131.85 37.85 131.1 40.55 130.05 44.5 127.55 47.6 126.8 48.6 125.75 47.85 121.55 44.85 124.6 40.75 128.9 35.05 130.75 28.1 130.55 27.1 131.15 26.35 131.75 25.5 132.7 25.5 133 25.55 133.3 25.65 133.65 25.8 134 26
M 88.9 77.35
Q 85.3 78.85 81.25 78.65 76.8 79.75 72.35 77.95 71.815625 77.7318359375 71.35 77.45 69.78046875 78.1033203125 68.25 78.9 66.2 79.95 64.2 81 61.8 83.55 58.85 84.95 58.35 85.2 58 84.8 55.8 82.55 58.55 80.4 60.1 79.25 61.65 78.25 65.1435546875 75.9453125 68.9 74.25 68.4828125 72.712890625 69.95 71.75 73.5 69.4 77.65 69.25 83.71640625 68.3556640625 89.05 70.1 97.21875 70.2443359375 104 74.65 104.65 75.15 104.5 75.95 103.75 79.25 100.85 77.4 98 75.6 94.7 75 93.40546875 74.7572265625 92.1 74.6 91.133984375 76.4220703125 88.9 77.35
M 102.1 89.5
Q 104.2 92.5 104.65 96.1 104.8810546875 97.852734375 104.65 99.45 104.1548828125 103.73203125 100.55 106.9 97.7 109.4 94.15 110.8 85.1 114.45 75.55 111.95 74.25 111.6 72.95 111.15 68.1 111.05 64.9 107.3 61.698828125 103.5091796875 61.65 99.45 61.64296875 96.281640625 63.55 92.95 66.55 87.65 71.95 84.7 78.5 81.1 85.8 80.95 96.2 81.05 102.1 89.5
M 12.85 36.9
L 12.9 36.9
Q 16.7 39.65 19.75 43.7 22.5 47.25 25.1 50.85 27.65 54.35 26.2 58.1 25.05 61.1 22.7 58.6 17.4 52.95 13.7 46 12.55 43.85 11.8 41.5 11.1 40.45 11 39.15 10.85 37.65 12.2 37.05 12.3 37 12.4 37 12.65 36.95 12.85 36.9 Z" stroke="none" fill="#6520C6"></path>

<path d="M 68.55 105.25
Q 71.6916015625 106.02265625 74.8 107.2 80.8 109.55 87.25 108.7 94.9017578125 107.7080078125 99.3 101.9 97.5 100.95 95.45 100.95 87.8 108.65 76.65 106.05 72.95 105.2 69.6 103.55 69.1736328125 104.48828125 68.55 105.25 Z" stroke="none" fill="#FFFFFF"></path>
</g>
</g>
</g>
</g>
</g>
</svg>
