
<svg viewBox="0 0 112 184" height="184px" width="112px" y="0px" x="0px" preserveAspectRatio="none" xmlns:xlink="http://www.w3.org/1999/xlink" version="1.1" xmlns="http://www.w3.org/2000/svg">
<defs></defs>

<g id="fun_scrollers">
<g transform="matrix( 0.3621063232421875, 0, 0, 0.3621063232421875, -594.2,0.1)" id="svg">
<g transform="matrix( 1, 0, 0, 1, 1712.4,5.9)" id="Layer_2">
<g>
<g>
<g>
<path d="M 178.2 440.95
Q 178.1 443.4 178.35 445 178.65 447.45 180.45 452.15
L 183.35 459.75
Q 184.45 462.5 184.6 463.55 184.65 464.1 184.7 465.4 184.75 466.55 184.85 467.2 186 467.1 189.6 467.3 192.6 467.5 194.35 467.1 195.75 466.85 196.35 466 196.85 465.35 196.85 463.7
L 196.75 454.2 190.3 453.9
Q 188.85 448.9 187.05 444.75 185.55 440.9 185.3 439.75 185 438.3 185 435.3
L 185 421.65 178.2 421.5 178.2 440.95
M 23.75 407.9
Q 23.85 411.1 22.4 416.55
L 19.7 427.05
Q 18.8 430.55 18.2 432.3 17.55 434 16.05 437.3 14.15 441.8 13.15 446.65
L 6.1 446.95 5.95 454
Q 5.95 456.1 6.15 457.2 6.45 458.9 7.4 459.9 9.15 461.8 12.8 461.5 13.8 461.45 15.75 461.25 17.45 461.1 18.65 461.3 18.45 457.75 19.05 455.9 19.2 455.3 19.65 454.25 20.1 453.2 20.25 452.65
L 20.7 450.25
Q 21 448.7 21.8 446.75 22.8 444.55 23.25 443.4 25 439.4 26.5 434.1 27.4 431 28.95 424.5 30.05 419.95 30.35 417.45 30.65 414.75 30.55 408.05
L 23.75 407.9
M 88.1 433.45
L 81.25 433.3 81.25 454.2
Q 81.25 456.45 81 457.5 80.8 458.4 80.15 460.1 79.95 460.9 79.7 464.2 79.25 471.05 75.75 476.9 74.75 477.15 71.8 476.85 69.35 476.6 68.15 477.4 67.4 477.95 66.6 479.35 65.35 481.7 64.8 483.35 63.95 486.25 64.15 491.2 64.4 497.35 64.2 499.2
L 71.85 499.25
Q 74.85 497.05 77.45 493.2 79.1 490.8 81.6 485.95 83.95 481.3 85 478.55 86.55 474.3 86.65 470.7 86.65 469.45 86.7 468.8 86.75 467.65 86.95 466.9 87.6 465.3 87.8 464.5 88.1 463.45 88.1 461.25
L 88.1 433.45 Z" stroke="none" fill="#000000"></path>
</g>
</g>
</g>

<g transform="matrix( 0.9990386962890625, 0.042816162109375, -0.042816162109375, 0.9990386962890625, 35.5,-6.95)" id="Layer_1">
<g transform="matrix( 0.9619598388671875, -0.01678466796875, 0.01678466796875, 0.9619598388671875, -399.45,-223.15)">
<g>
<g>
<path d="M 464.9 344.1
Q 460.35 344 458.55 344.15 455.35 344.45 452.45 345.7
L 449.85 347.25
Q 441.4 351.75 437.55 354.2 431.05 358.45 426.85 363.25 423.3 368.65 421.7 373.9 420.1 379.05 420 385.5
L 419.95 422.55
Q 419.85 441.1 419.5 453.4 418.75 480.7 417.95 535.4
L 417.7 553.85
Q 416.8 614.55 416.65 644.85
L 416.6 665.95
Q 416.55 670.75 416.85 676.25 418.9 684.65 424.85 690.25 431.65 693.35 437.55 693.9 443.45 694.4 472 694.45
L 543.15 694.5
Q 549.6 694.15 552.05 693.75 557.1 692.85 560.15 690.5
L 568.8 680.2
Q 571.35 676.5 572.3 672.05 573.05 668.6 573.1 663.05
L 573.15 629.3
Q 573.25 593.7 573.65 571.15 574.25 539.3 575.7 513
L 575.85 510.5
Q 576.65 495.25 577.15 487.95
L 577.85 478.25
Q 578.85 471.55 579.05 469.4
L 580.6 439.25
Q 581.9 414.85 581.95 402.65
L 582 399.75
Q 582 387.15 579.2 376.5 574.7 361.1 564.15 352.95 557.85 348.35 552.35 346.5 546.75 344.55 539 344.45
L 490.85 344.3
Q 479.7 344.3 474.15 344.2
L 464.9 344.1 Z" stroke="none" fill="#F5F7F9"></path>
</g>
</g>
</g>

<g transform="matrix( 0.9621124267578125, 0, 0, 0.9621124267578125, 3.4,8.55)">
<g>
<g>
<path d="M 138.9 39.5
L 138.95 30.5
Q 139 24 137.8 19.75 136.45 16.65 134.5 14.35 132.7 12.3 129.7 10.15
L 126.4 8.2
Q 119.4 4 112.55 2.05 105.75 0.1 97.5 0
L 93.6 0.05
Q 67.45 -0.05 43.8 2.7
L 40.25 3.15
Q 32.35 4.1 27.75 5 20.85 6.25 15.55 8.2 14.7 9.95 14.6 11.1 14.45 12.25 14.55 17.4
L 14.6 20.2
Q 14.6 22.25 14.6 26.35 14.75 29.9 15.95 32.2 18.95 33.65 19.85 33.95 20.75 34.2 22.9 34.45
L 47 34.65
Q 45.8 38.35 45.25 42.55 44.8 45.65 44.6 50.55 44.2 59.35 43.9 62.45 43.2 69.05 41.6 74.1 39.6 79.95 39.25 86.65 39.3 87.9 39.2 89.05 39.15 90.05 39.1 90.95
L 39.2 98.35
Q 39.7 98.15 40.15 98 43.85 96.7 47.45 96.25
L 58.15 96.35
Q 63.3 96.4 73.6 96.3 83.1 96.15 92.6 96.15
L 131 95.8
Q 133.75 95.7 134.6 95.75 135.5 95.8 138.05 96.1 138.7 96.35 139.4 96.65
L 145.85 96.55 145.8 91.85
Q 145.4 91.45 144.95 90.95
L 144.2 86.4
Q 143.8 80.95 142.7 76.25 139.05 60.45 138.9 39.5 Z" stroke="none" fill="#7E1A34"></path>
</g>
</g>
</g>

<g transform="matrix( 0.9621124267578125, 0, 0, 0.9621124267578125, 3.4,8.55)">
<g>
<g>
<path d="M 175.6 142.35
Q 174.2 125.2 168.35 112.2 164.9 105.75 161.7 101.85 157.5 96.75 152.35 94.1 147.5 91.75 144.95 89.6 144.2 87.7 144.05 87.05 143.9 86.4 143.75 84.3
L 143.75 79.65 142.75 79.65
Q 143.65 84.45 143.75 86.7 143.95 90.4 143 93.65 138.4455078125 94.9513671875 136.45 95.2
L 136.45 95.75
Q 138.8783203125 96.07734375 141.35 97.15
L 144.1 98.65
Q 153.15 103.7 158.65 110.65 164 118.3 166.55 127.55 168.8 135.75 169.05 146.05
L 169.1 148.7
Q 169.3 161.5 168.55 184.25
L 167.5 215.45
Q 167.35 220.25 166.8 224.25 166.35 227.3 166.1 230.25
L 164.9 259.5
Q 163.9 286.55 163.8 319 163.75 342.7 164.25 378.45
L 164.65 409.4
Q 164.8 418.3 164.4 422.7 162.7 426.75 161.85 427.95 161.05 429.2 157.95 432.45
L 153 437.55 151.1 441.55
Q 146.05 442.5 136.4 442.95
L 68.3 444.15
Q 53.45 444.65 45.95 444.65 32.95 444.7 23.75 442.9 20.55 442 18.85 440.75 17.15 439.65 15 436.95 12.55 432.45 11.45 428.95 10.3 425.05 10.2 420.3
L 9.85 380.45
Q 9.9 372 9.8 367.8
L 9.55 291.8
Q 9.35 232.55 9.55 209.85 9.8 191.65 9.65 178.55
L 9.35 140.5
Q 9.25 134.15 9.4 131.55 9.65 126.75 10.95 122.8
L 12.5 119.95
Q 20.9 109.8 24.3 107.05 27.7 104.3 39.7 98.15
L 43.1 96.4
Q 41.8 96.05 40.05 95.45
L 39.7 93.2
Q 39.7 93.1 39.9 85.45
L 38.9 85.45 38.95 90.45 36.95 90.5
Q 27.55 94.9 22.1 98.35 14.3 103.25 9.4 109.15 5.35 115.15 3.6 122.8 2.15 129.15 2.15 137.65
L 2.5 188.55
Q 2.7 200.35 2.8 223.7
L 2.95 242.7
Q 3.05 259.95 3.05 262.9 3.05 274.35 2.75 283.1 2.35 293.3 2.7 306.6 3.25 331.45 3.1 350.5 2.9 381.45 3.15 400.5
L 3.45 420.7
Q 3.55 429.85 4.85 435.05 7.55 442.1 13.95 447.3 17.7 449.15 22.2 450.05 25.75 450.75 30.8 451
L 99.7 451.2
Q 117.1 451.3 124 451.05 137.65 450.55 148.2 448.6 154.65 446.85 159.2 443.45 163.15 440.6 167.8 434.9 171.75 427.95 172.3 422.65 172.85 417.25 172.25 392.25
L 171.75 372.8
Q 170.95 336.8 171 311.25 171.1 277.95 172.55 249.75 173.7 228.55 174.65 199.9
L 175.65 173.55
Q 176.45 152.8 175.6 142.35 Z" stroke="none" fill="#706C84"></path>
</g>
</g>
</g>

<g transform="matrix( 0.9619598388671875, -0.01678466796875, 0.01678466796875, 0.9619598388671875, -399.45,-223.15)">
<g>
<g>
<path d="M 442.9 366.8
Q 442.1 367.1 441.35 367.45 440.6 367.85 439.85 368.25 439.5 369.65 439.2 371.1 438.65 373.95 438.25 376.8 438.05 378.2 438 379.65 437.9 381.15 437.95 382.65 437.95 384.1 438.05 385.6 438.15 387.1 438.35 388.65 438.5 390.15 438.8 391.6 438.9 392.05 439.1 392.45 439.2 392.7 439.35 393.05 439.45 393.2 439.55 393.4 439.6 393.45 439.65 393.5 439.75 393.6 439.9 393.7 440.05 393.8 440.2 393.9 440.45 394.05 440.7 394.2 440.95 394.35 441.3 394.4 442.05 394.8 442.9 395.05
L 479 395.05
Q 484.6 394.9 490.25 394.8 493 394.75 495.75 394.8 498.45 394.85 501.15 394.85 504.1 394.85 507.2 395.15 508.95 395.15 510.7 395.2 511.45 395.2 512.25 395.25 512.9 395.25 513.6 395.25 514.75 395.2 515.9 395.2 517.55 395.2 519.2 395.2 520.7 395.15 522.2 395.1 523.6 395.05 525.05 395.05 526.35 395 527.65 394.95 528.85 394.95 530.05 394.95 531.15 394.9 532.25 394.85 533.25 394.8 534.25 394.8 535.1 394.7 535.95 394.65 541.45 394.45 547 394.25 548.3 394.2 549.65 394.2 550.9 394.15 552.2 394.15 553.4 394.15 554.6 394.15 555.7 394.15 556.85 394.25 557.35 394.25 557.85 394.35
L 557.85 398.25
Q 557.3 398.3 556.8 398.4 556.35 398.45 555.9 398.5 555.55 398.55 555.2 398.65 554.9 398.7 554.65 398.9 554.35 398.9 554.15 399.1
L 554.15 403.4 563.85 403.4 564.1 378.7 563.85 371.25
Q 562.85 370.25 561.75 369.4 561.1 369 560.4 368.75 559.55 368.5 558.75 368.3 557.85 368.1 557 367.95 556.05 367.75 555.15 367.6 554.2 367.45 553.3 367.4 552.25 367.25 551.25 367.15 550.2 367.05 549.15 367 548 366.95 546.9 366.9
L 453.4 366.05
Q 452.65 366.05 451.95 366.05 451.3 366.05 450.65 366.05 450.1 366.05 449.55 366.05 449.05 366.05 448.55 366.05 448.15 366.05 447.8 366.05 447.45 366.05 447.15 366.05 446.9 366.05 446.7 366.05 446.5 366.05 446.35 366.05 445.45 366.2 444.6 366.35 443.75 366.55 442.9 366.8 Z" stroke="none" fill="#110F1A"></path>
</g>
</g>
</g>

<g transform="matrix( 0.9619598388671875, -0.01678466796875, 0.01678466796875, 0.9619598388671875, -154.35,-10.4)">
<g>
<g>
<path d="M 295.35 74.45
L 295.2 68
Q 295.15 65.3 295.05 64.4 294.8 62.7 294 61 290.25 59.1 285.75 58.75
L 225.65 58.65
Q 222.9 58.65 222.05 58.7 221.2 58.75 219 59
L 216 62
Q 213.95 70.1 213.05 83.45 212.35 94.15 210.45 100.7 209.35 104.2 209.05 106 208.75 107.75 208 115
L 288.6 115.25
Q 293.5 115.25 297 115
L 299 113
Q 299.3 109 298.35 103.15 295.8 89.2 295.35 74.45 Z" stroke="none" fill="#E21F2D"></path>
</g>
</g>
</g>

<g transform="matrix( 0.9621124267578125, 0, 0, 0.9621124267578125, 3.4,8.55)">
<g>
<g>
<path d="M 149.85 241.9
Q 149.75 241.1 149.3 238.7
L 148.5 235.6
Q 147.55 228.75 145.3 224.65
L 143 224.15 133.6 224.5
Q 124.05 224.75 116.9 225.4 104.95 226.55 88.55 226.85
L 79.65 227.05
Q 78.25 227.05 55.3 227.15 37.4 227.2 37.2 227.6 35.05 239.65 38.7 247.45 42.7 249.6 44.75 249.85 46.8 250.1 55.2 249.5 57.15 249.3 61.15 249.1 69.8 248.8 76.7 248.35 82 248 92.8 247.5 108 246.9 111.05 246.7
L 119.35 246.2
Q 123.45 245.95 127.65 245.9
L 128.7 247.9
Q 140.25 249.3 148.7 247.55
L 150 245.05
Q 149.9 242.7 149.85 241.9 Z" stroke="none" fill="#9DAEEA"></path>
</g>
</g>
</g>

<g transform="matrix( 0.9619598388671875, -0.01678466796875, 0.01678466796875, 0.9619598388671875, -154.4,-11.7)">
<g>
<g>
<path d="M 296.05 436.5
L 299.65 436.4
Q 304.65 436.35 311 436
L 312 435
Q 312.95 430.25 313.05 427 313.15 422.85 312 419 308.55 417.45 306.75 417.25 304.9 417.1 297.4 417.45
L 280.75 417.85
Q 270.85 418.15 255.4 417.5 247.1 417.2 238.95 417.05 232.1 417 225.1 416.75 215.7 416.35 211 416.3
L 205.75 416.25
Q 199.05 415.85 197.15 415.95 192.5 416.15 189 418 187.5 421.1 187.15 422.2 186.8 423.35 186.25 427 186.65 430.7 186.95 431.85 187.3 432.95 189 436 192.85 437.9 195.7 438.15 198.5 438.4 211.55 437.95
L 219.7 437.75
Q 230.4 437.75 241.05 437.45 253.3 437.1 263.15 437.05 285.05 436.75 296.05 436.5 Z" stroke="none" fill="#9DAEEA"></path>
</g>
</g>
</g>

<g transform="matrix( 0.9619598388671875, -0.01678466796875, 0.01678466796875, 0.9619598388671875, -399.45,-223.15)">
<g>
<g>
<path d="M 561.85 404.25
L 563.85 404.25 564.05 402.15 564 398.25 557.85 398.25
Q 555 398.45 554.15 398.45 553.35 398.45 551.2 398.3
L 542.2 397.65
Q 534.2 397.15 527.2 397.1
L 524.35 397.05
Q 510.05 396.9 495.7 396.9
L 446.45 396.6
Q 441.95 396.45 437.85 397.25 437.25 399.45 437.25 400.2 437.25 400.95 437.85 403.25
L 441.75 404.9 446.85 406.25
Q 453.75 409.45 457.85 410.85 464 413.05 469.4 413.5 477.3 413.95 485.85 416.85 494.8 420.1 499.5 419.9 504.15 419.75 523.25 415.5
L 537.45 412.35
Q 547.4 410.15 556.2 409.8 558.7 409.8 559.4 409.75 560.1 409.65 561.85 409.25
L 561.85 404.25 Z" stroke="none" fill="#992A3F"></path>
</g>
</g>
</g>

<g transform="matrix( 0.9619598388671875, -0.01678466796875, 0.01678466796875, 0.9619598388671875, -399.45,-223.15)">
<g>
<g>
<path d="M 434.85 262.6
Q 433 269.25 435.85 275.6
L 469.85 276.6 470.85 279.6 544.85 278.6
Q 544.7 277.75 544.55 276.95 543.65 271.8 536.65 265.9 529.85 260.95 529.85 260.6 482.05 248.45 434.85 262.6 Z" stroke="none" fill="#DF202E"></path>
</g>
</g>
</g>

<g transform="matrix( 0.9619598388671875, -0.01678466796875, 0.01678466796875, 0.9619598388671875, -154.4,-11.7)">
<g>
<g>
<path d="M 304.7 197.05
Q 303.25 194.85 301 193 297.15 191.85 291.75 191.85
L 288.3 191.95
Q 280.25 192.15 276.35 193.1 270.45 194.55 265.85 198.7
L 264 201
Q 261.7 203.8 260.8 205.8 259.85 207.9 259.5 211.35
L 259.55 216.1
Q 259.55 219.65 259.6 220.75 259.65 221.85 260 225 261 227.4 261.65 228.4 262.35 229.35 265.55 232.8 268.2 234.5 270.7 235.1 272.75 235.6 276.3 235.6
L 279.05 235.5
Q 287.95 235.35 291.25 235 298.25 234.25 303 232
L 304 228
Q 306.25 224.95 306.95 222.5 307.45 220.55 307.55 216.3
L 307.55 213.35
Q 307.8 206.75 307 202 305.95 198.95 304.7 197.05 Z" stroke="none" fill="#F1F3F7"></path>
</g>
</g>
</g>

<g transform="matrix( 0.9619598388671875, -0.01678466796875, 0.01678466796875, 0.9619598388671875, -154.4,-11.7)">
<g>
<g>
<path d="M 304.7 197.05
Q 303.25 194.85 301 193 297.15 191.85 291.75 191.85
L 288.3 191.95
Q 280.25 192.15 276.35 193.1 270.45 194.55 265.85 198.7
L 264 201
Q 261.7 203.8 260.8 205.8 259.85 207.9 259.5 211.35
L 259.55 216.1
Q 259.55 219.65 259.6 220.75 259.65 221.85 260 225 261 227.4 261.65 228.4 262.35 229.35 265.55 232.8 268.2 234.5 270.7 235.1 272.75 235.6 276.3 235.6
L 279.05 235.5
Q 287.95 235.35 291.25 235 298.25 234.25 303 232
L 304 228
Q 306.25 224.95 306.95 222.5 307.45 220.55 307.55 216.3
L 307.55 213.35
Q 307.8 206.75 307 202 305.95 198.95 304.7 197.05
M 284.7 198.8
L 288.75 198.85
Q 292.35 198.85 296 199 297.05 200.05 297.5 200.7 297.95 201.3 299.55 204 301.5 207.5 302 210.8 302.4 213.5 302 218
L 301 219
Q 299.9 221.65 299.4 222.55 298.9 223.4 297 226 291.85 228.6 285.75 229.25 280.55 229.8 274 229 270.7 227.85 269.85 227.2 268.95 226.6 267 224 265 219.3 265 214 267.35 209.05 268.45 207.6 269.6 206.2 273.85 202.55 276.55 200.6 278.95 199.8 281.3 199 284.7 198.8 Z" stroke="none" fill="#5D5A76"></path>
</g>
</g>
</g>

<g transform="matrix( 0.9619598388671875, -0.01678466796875, 0.01678466796875, 0.9619598388671875, -154.4,-11.7)">
<g>
<g>
<path d="M 190 143
L 189 144 188.85 150.1
Q 188.85 154.05 189 156
L 190 156 192 143 190 143 Z" stroke="none" fill="#110F1A"></path>
</g>
</g>
</g>
</g>
</g>

<g transform="matrix( 1, 0, 0, 1, 1712.4,5.9)" id="Layer_3">
<g>
<g>
<g>
<path d="M 139.95 433.75
L 135.7 445.35
Q 133.5 451.55 131.9 454.85 130.95 456.85 128.75 460.75 126.6 464.6 125.65 466.65 124.9 468.2 124.55 469.45 124.2 470.95 124.3 473.35 124.45 476.65 124.45 477.25 124.4 478 124.3 479.5 124.25 480.8 124.65 481.7 125.2 483.05 127.35 484.5 132.4 488.15 137.95 491.55 140.35 492.95 141.65 493.3 143.15 493.7 145.85 493.5 148.85 493.35 150.05 493.5
L 150.1 488.5
Q 150.1 486.8 149.9 485.95 149.35 484 146.45 481.6
L 140.5 476.55
Q 138.35 474.7 136.8 473.9 134.6 472.75 132.65 473.1 136.2 466.8 137.85 463.6 140.55 458.25 142.1 453.7 143.65 448.6 144.65 446.15 146.2 442.45 146.4 441.7 147.15 439 146.75 433.85
L 139.95 433.75
M 48.05 292.1
L 46.2 280.1 39 280
Q 39.45 289.5 41 298.35 41.3 300.05 41.9 300.9 42.8 302.05 45.7 302.45 94.55 309.05 137.7 315.6 147.1 317 151.3 317.5 158.95 318.4 165 318.45
L 164.85 311.55 51.4 295.25
Q 49.45 294.9 48.85 294.25 48.35 293.65 48.05 292.1
M 149.5 251.3
Q 144.7 253.35 142.25 254.7 138.35 256.85 135.85 259.35 132.5 262.75 130.95 267.4 129.35 272.1 130 276.8
L 133.75 276.8
Q 133.8271484375 277.0578125 133.95 277.15 134.1 277.3 134.5 277.3
L 142.4 277.4
Q 143.1 277.4 143.45 277.3 144.15 277.1 145.15 276.05 146.4 275.4 146.85 274.9 147.15 274.65 147.45 274.15 147.9 273.5 148 273.35 148.75 272.35 150.05 272 150.1 271.5 150.7 270.95 151.5 270.25 151.65 270.05 152 269.55 152 268.4
L 152 262.6
Q 152 260.8 151.85 260.25
L 151.8 260.25
Q 153.7197265625 259.3298828125 156.15 258.3 160.95 256.35 162.85 255.8 165.8 255.05 171.1 254.55 173.75 254.25 175.2 254.65 176.55 255.1 177.95 256.25 183.5 260.7 184.9 267.6
L 191.65 267.7
Q 192.35 262.9 190.95 258.35 189.5 253.55 186.15 250.45 183.95 248.45 181.9 247.85 180.2 247.35 177.75 247.35 171.35 247.15 164.5 247.6 158.75 248.1 155.6 249 153.5 249.6 149.5 251.3
M 88.15 279.2
L 95.9 279.3 95.9 277.75
Q 97.9744140625 278.684765625 100.05 279.65 103.25 281.1 104.5 281.45 108.25 282.65 112 282.1 111.65 281.15 112 278.5 112.3 276.2 111.5 275.2 111.05 274.7 109.85 274.1
L 105.1 271.95
Q 90.6 265.4 81.95 262.05 75.65 259.6 71.4 258.65 65.6 257.45 56.05 257.65 43.75 257.9 40.55 257.7
L 40.55 264.5
Q 41.3 264.55 53.1 264.6 59.7009765625 264.64375 64.2 265.45
L 64.2 269.25
Q 68.55 272.55 73 274.65
L 76.55 276.25
Q 78.05 276.95 78.9 276.95 79.95 276.95 80.15 277
L 81 277.55
Q 81.75 278 83.55 278.25 84.3 278.45 85.75 279 86.55 279.2 88.15 279.2 Z" stroke="none" fill="#000000"></path>
</g>
</g>
</g>
</g>
</g>

<g transform="matrix( 0.3621063232421875, 0, 0, 0.3621063232421875, -594.2,0.1)" id="Layer_2"></g>

<g transform="matrix( 0.3621063232421875, 0, 0, 0.3621063232421875, -594.2,0.1)" id="Layer_3"></g>

<g transform="matrix( 0.3621063232421875, 0, 0, 0.3621063232421875, -594.2,0.1)" id="Layer_6"></g>

<g transform="matrix( 0.3621063232421875, 0, 0, 0.3621063232421875, -594.2,0.1)" id="MergedLayer_1"></g>
</g>
</svg>
