
<svg viewBox="0 0 80 70" height="70px" width="80px" y="0px" x="0px" preserveAspectRatio="none" xmlns:xlink="http://www.w3.org/1999/xlink" version="1.1" xmlns="http://www.w3.org/2000/svg">
<defs></defs>

<g id="Layer_2">
<g transform="matrix( 0.2443389892578125, 0, 0, 0.2443389892578125, -5.6,-13.9)" id="Layer_1">
<g>
<g>
<g>
<path d="M 271 304
Q 270.5 304 270.1 304.2 269.5 304.5 269 305 268.25 309.2 270.2 310.75 270.5 311 271 311 271 310.5 270.75 310.3 269.3 309.2 270 306 270.5 305.5 270.8 304.9 271 304.5 271 304 Z" stroke="none" fill="#38555E"></path>

<path d="M 173 301.05
Q 173.5 301 174 301 174 300.5 173.85 300.45 168.25 298.25 160 299 164.1 302.45 173 301.05 Z" stroke="none" fill="#6B7162"></path>

<path d="M 194 303
Q 194 302.5 193.85 302.45 186.15 300.35 176 301 183.65 302.85 193 303 193.5 303 194 303 Z" stroke="none" fill="#6A7163"></path>

<path d="M 232 333
Q 232 332.5 231.8 332.05 230.55 328.95 228 327 228.8 330.7 231.2 332.75 231.5 333 232 333 Z" stroke="none" fill="#24444D"></path>

<path d="M 211 319
Q 211 318.5 211 318 211 315 211 312 210.5 312 210 312 210 319 210.5 325.95 210.5 326 211 326 211 325.5 211 325 211 322 211 319 Z" stroke="none" fill="#28434A"></path>

<path d="M 212 309
Q 211.5 309 211 309 211 310 211 311 211 311.5 211 312 211 315 211 318 211 318.5 211 319 213.55 314.6 212.15 309.95 212 309.5 212 309 Z" stroke="none" fill="#021D27"></path>

<path d="M 213.1 304
Q 213 303.5 213 303 212.5 303 212 303.05 208.3625 303.3763671875 201.05 303.05 209.90859375 303.65625 210.9 308 211 308.5 211 309 211.5 309 212 309 212 308.5 212 308 212 307.5 212 307 213.7 306.7 213.1 304 Z" stroke="none" fill="#5F6861"></path>

<path d="M 226 321
Q 226 317.5 226 314 225.5 314 225 314 225 318 225.5 321.95 225.5 322 226 322 226 321.5 226 321 Z" stroke="none" fill="#2B4249"></path>

<path d="M 227.05 302.9
Q 227.5 303 228 303 228 302.5 227.75 302.3 220.45 295.85 213 302 213 302.5 213 303 218.75 300.8 227.05 302.9 Z" stroke="none" fill="#331200"></path>

<path d="M 229 303
Q 228.5 303 228 303 227.5 303 227.05 302.9 218.75 300.8 213 303 213 303.5 213.1 304 213.7 306.7 212 307 212 307.5 212 308 212 308.5 212 309 212 309.5 212.15 309.95 213.55 314.6 211 319 211 322 211 325 211 325.5 211 326 213.55 339.95 229 340.5
L 229 340
Q 235.1 339.1 232.2 333.9 232 333.5 232 333 231.5 333 231.2 332.75 228.8 330.7 228 327 227.5 327 227.35 326.8 226.2 324.8 226 322 225.5 322 225.5 321.95 225 318 225 314 225.5 314 226 314 227.7 312.2 227.95 309 228 308.5 228 308 228 307.5 228 307 228 306.5 228 306 229.65 306.15 229.1 303.95 229 303.5 229 303 Z" stroke="none" fill="#020C12"></path>

<path d="M 240 303
Q 240 303.5 240 304 240 304.5 240 305 243.5 305 245.8 303.65 246 303.5 246 303 245.5 303 245 303 242.5 303 240 303 Z" stroke="none" fill="#6D7060"></path>

<path d="M 238.85 305.55
Q 239 305.5 239 305 238.5 305 238 305.05 231.45 306.05 229 303 229 303.5 229.1 303.95 229.65 306.15 228 306 228 306.5 228 307 228 307.5 228 308 233.5 307 238.85 305.55 Z" stroke="none" fill="#616A60"></path>

<path d="M 173 293
Q 172.5 293 172.05 292.85 159.45 289.5 143 289 162.05 297.35 186.9 293.5 187 293.5 187 293 186.5 293 186.05 292.85 177.75 290.6 173 293 Z" stroke="none" fill="#A16023"></path>

<path d="M 274 287
Q 274 287.5 274.25 287.7 276.45 289.55 278 292 278 292.5 278.2 292.9 281.5 300.7 271 304 271 304.5 270.8 304.9 270.5 305.5 270 306 269.3 309.2 270.75 310.3 271 310.5 271 311 289.95 318.25 294.9 296.95 295 296.5 295 296 290.15 286.35 285.2 276.9 285 276.5 285 276 284.5 276 284.5 275.9 283.9 273.1 282 272 282 272.5 282.05 273 283.95 291.7 276 285 275.5 285 275.1 284.8 274.5 284.5 274 284 274 284.5 274 285 274 285.5 274 286 274 286.5 274 287
M 283 296.5
L 283 296
Q 296.8 290.05 283 296.5
M 278.15 305.55
Q 278 305.5 278 305 283.45 307 278.15 305.55
M 272.15 306.55
Q 272 306.5 272 306 281.7 310.05 272.15 306.55 Z" stroke="none" fill="#030E1A"></path>

<path d="M 272 306
Q 272 306.5 272.15 306.55 281.7 310.05 272 306 Z" stroke="none" fill="#0C050E"></path>

<path d="M 278 305
Q 278 305.5 278.15 305.55 283.45 307 278 305 Z" stroke="none" fill="#010703"></path>

<path d="M 283 296
L 283 296.5
Q 296.8 290.05 283 296 Z" stroke="none" fill="#010205"></path>

<path d="M 260 295
Q 259.5 295 259 295 257.5 295 256 295 256 295.5 256 296 256 296.5 256 297 259.2 297.7 259.85 295.95 260 295.5 260 295 Z" stroke="none" fill="#6C7161"></path>

<path d="M 245 291
Q 244.5 291 244.05 291.15 239.5 292.5 234 293 237.55 295.9 245.05 293.15 245.5 293 246 293 246 292.5 246 292 246 291.5 245.75 291.25 245.5 291 245 291 Z" stroke="none" fill="#9F6700"></path>

<path d="M 247 292.95
Q 246.5 293 246 293 245.5 293 245.05 293.15 237.55 295.9 234 293 233.5 293 233 293 224.35 293.15 217 292 217 292.5 216.8 292.6 210.9 295.15 192 295 197.5 301.3 207.1 297.2 207.5 297 208 297 218.45 299.1 226.15 294.25 226.5 294 227 294 231.6 294.6 235.3 298.75 235.5 299 236 299 252.7 292.5 247 292.95 Z" stroke="none" fill="#A26320"></path>

<path d="M 282 272
Q 281.5 272 281.4 272.2 279.4 276.75 274 274 273.55 280.45 275.8 284.15 276 284.5 276 285 283.95 291.7 282.05 273 282 272.5 282 272 Z" stroke="none" fill="#020506"></path>

<path d="M 281 269
Q 281.5 270 281.85 271.05 282 271.5 282 272 283.9 273.1 284.5 275.9 284.5 276 285 276 285 275.5 284.85 275.05 283.5 270 284 263 283.5 263 283.4 263.2 282 266 281 269 Z" stroke="none" fill="#56635D"></path>

<path d="M 269.75 271.75
Q 269.5 272 269 272 269.3 280.2 273.3 284.75 273.5 285 274 285 274 284.5 274 284 274.5 284.5 275.1 284.8 275.5 285 276 285 276 284.5 275.8 284.15 273.55 280.45 274 274 279.4 276.75 281.4 272.2 281.5 272 282 272 282 271.5 281.85 271.05 281.5 270 281 269 280.5 269 280 269 277 269 274 269 273.5 269 273.3 269.25 272.25 270.75 270 271 270 271.5 269.75 271.75 Z" stroke="none" fill="#270B01"></path>

<path d="M 272 268
Q 271.5 268 271.1 268.2 270.5 268.5 270 269 270 269.5 270 270 270 270.5 270 271 272.25 270.75 273.3 269.25 273.5 269 274 269 274 268.5 274 268 273.9 264.75 272 268 Z" stroke="none" fill="#88551D"></path>

<path d="M 267 271
Q 266.5 271 266 271 266 271.5 265.85 271.95 264.8 275.3 262 277 262 277.5 262 278 262 278.5 261.75 278.75 255 285.5 246 290 245.5 290 245 290 245 290.5 245 291 245.5 291 245.75 291.25 246 291.5 246 292 257.1 287.8 265.05 285.15 265.5 285 266 285 267.85 280.6 268.5 272.05 268.5 272 269 272 269.5 272 269.75 271.75 270 271.5 270 271 269.5 271 269 271 268.5 271 268 271 267.5 271 267 271 Z" stroke="none" fill="#A36716"></path>

<path d="M 266 271
Q 266 270.5 266.15 270.05 268.65 262.35 260 273 259.3 276.7 261.15 277.8 261.5 278 262 278 262 277.5 262 277 264.8 275.3 265.85 271.95 266 271.5 266 271 Z" stroke="none" fill="#F9CD50"></path>

<path d="M 273 263
Q 273 263.5 273 264 273 264.5 273 265 276.9 265.9 276.1 262 276 261.5 276 261
L 275.5 261
Q 275.65 263.65 273 263
M 70 260
Q 70 260.5 70.05 261 70.15 262.65 68 262 69.45 263.55 71.15 264.75 71.5 265 72 265 72 264.5 72.05 264 72.55 260.45 70 260 Z" stroke="none" fill="#A16121"></path>

<path d="M 278 237
Q 278.5 237 278.65 236.75 282.1 231.9 278 229 278 232.5 278 236 278 236.5 278 237
M 278.05 238
Q 278 237.5 278 237 277.5 237 277 237 276.5 237 276 237 276 244 276 251 276 251.5 276 252 279.35 249.75 278.05 238
M 280 215
Q 279.5 215 279 215 278.5 215 278 215 278 217.5 278 220 278 220.5 278 221 281.2 220.7 280.1 216 280 215.5 280 215
M 118 289
Q 118 288.5 117.8 288.35 113.45 285.8 110 287 112.7 288.85 117 289 117.5 289 118 289
M 282 105
Q 282 104.5 281.85 104.05 281.2 102.3 278 103 277.6 105.95 281.05 105.1 281.5 105 282 105
M 278 103
Q 278 102.5 278.05 102 278.2 99.3 276 99 275.75 106.4 277.4 103.2 277.5 103 278 103
M 284 115
Q 284 114.5 284.1 114 285.35 107.15 282 105 281.25 111.25 283.35 114.8 283.5 115 284 115 Z" stroke="none" fill="#A26024"></path>

<path d="M 277 209
Q 276.5 209 276 209 276 212.5 276 216 276 216.5 276 217 277.75 214.75 277.05 210 277 209.5 277 209 Z" stroke="none" fill="#CC9134"></path>

<path d="M 278 199
Q 277.5 199 277 199 277 202.5 277 206 277 206.5 277 207 278.75 204.75 278.05 200 278 199.5 278 199 Z" stroke="none" fill="#D39935"></path>

<path d="M 286 239
Q 285.5 239 285 239 284.5 239 284 239 284 246.5 284 254 284 254.5 284 255 287.45 249.95 286.05 240 286 239.5 286 239 Z" stroke="none" fill="#697165"></path>

<path d="M 288 232
Q 287.95 230.05 287 229 286.5 229 286 229 286 232.5 286 236 286 236.5 286 237 288.95 237.45 288.1 233.95 288 233.5 288 233 288 232.5 288 232 Z" stroke="none" fill="#686E63"></path>

<path d="M 288.1 224
Q 288 223.5 288 223 287.5 223 287 223 286.5 223 286 223 285.3 226.7 286.75 228.25 287 228.5 287 229 288.7 227.7 288.1 224 Z" stroke="none" fill="#67604D"></path>

<path d="M 119.9 333
Q 119.4 329.6 117 328 117.65 331.35 119.35 333.75 119.5 334 120 334 120 333.5 119.9 333 Z" stroke="none" fill="#30474C"></path>

<path d="M 112.5 318.95
Q 112.5 319 113 319 113 318.5 113 318 113 314.5 113 311 112.5 311 112 311 112 315 112.5 318.95 Z" stroke="none" fill="#36525B"></path>

<path d="M 78 272
Q 77.7 265.8 72 265 74.55 271.05 77.15 272.75 77.5 273 78 273 78 272.5 78 272
M 282 186
Q 281.5 186 281.1 185.8 280.5 185.5 280 185 280 191.5 280 198 280 198.5 280 199 283.4 195.4 282.1 187 282 186.5 282 186 Z" stroke="none" fill="#A16122"></path>

<path d="M 34 243
Q 33.5 243 33 243 32.5 243 32 243 32 243.5 31.75 243.65 26.3 247.3 23 253 29.3 268.05 39.75 254.8 40 254.5 40 254 39.5 254 39.05 253.9 31.7 251.95 34 243 Z" stroke="none" fill="#021525"></path>

<path d="M 37 240
Q 36.5 240 36.15 240.25 34.7 241.25 32 241 32 241.5 32 242 32 242.5 32 243 32.5 243 33 243 33.5 243 34 243 34 242.5 34 242 35.95 241.95 36.75 240.85 37 240.5 37 240 Z" stroke="none" fill="#314B54"></path>

<path d="M 62 243
Q 62.5 243 62.5 242.9 64 235.5 58 235 60.6 237.9 61.85 242.05 62 242.5 62 243 Z" stroke="none" fill="#5B2C04"></path>

<path d="M 67.05 235
Q 67 234.5 67 234 67 233.5 66.75 233.25 66.5 233 66 233 66 238.5 66 244 66 244.5 66 245 67.75 241.25 67.05 235 Z" stroke="none" fill="#A1620E"></path>

<path d="M 68 234
Q 67.5 234 67 234 67 234.5 67.05 235 67.75 241.25 66 245 66.8 247.2 67.45 249.9 67.5 250 68 250 68.5 250 69 250 69 249.5 68.9 249 67.75 242.25 68 234 Z" stroke="none" fill="#B97B2A"></path>

<path d="M 58 246
Q 57.5 246 57 246 56.5 246 56 246 55.25 250.75 57.25 252.75 57.5 253 58 253 58 252.5 58 252 58 249 58 246 Z" stroke="none" fill="#637265"></path>

<path d="M 56 235
Q 55.5 235 55 235 52.5 235 50 235 49.5 235 49 235.1 41.75 236.25 37 240 37 240.5 36.75 240.85 35.95 241.95 34 242 34 242.5 34 243 31.7 251.95 39.05 253.9 39.5 254 40 254 40 253.5 40 253 46.1 248.1 55 246.1 55.5 246 56 246 56.5 246 57 246 57.5 246 58 246 58 245.5 58 245 57.5 245 57 245.1 54.3 245.7 54 244 57.35 242.35 56.1 236 56 235.5 56 235 Z" stroke="none" fill="#010E1C"></path>

<path d="M 58 235
Q 57.5 235 57 235 56.5 235 56 235 56 235.5 56.1 236 57.35 242.35 54 244 54.3 245.7 57 245.1 57.5 245 58 245 60.7 245.25 61.75 243.8 62 243.5 62 243 62 242.5 61.85 242.05 60.6 237.9 58 235 Z" stroke="none" fill="#230900"></path>

<path d="M 58 235
Q 58 234.5 58 234 57.5 234 57 234 56.5 234 56 234 55.5 234 55 234 52.5 234 50 234 50 234.5 50 235 52.5 235 55 235 55.5 235 56 235 56.5 235 57 235 57.5 235 58 235 Z" stroke="none" fill="#2F494B"></path>

<path d="M 58 221
Q 57.5 221 57.1 221.2 56.5 221.5 56 222 56 227.5 56 233 56 233.5 56 234 56.5 234 57 234 57.5 234 58 234 58 233.5 58 233 58 227 58 221 Z" stroke="none" fill="#786B53"></path>

<path d="M 121.75 296.3
Q 119.25 294.25 114 295 115.2 298.3 121 297.1 121.5 297 122 297 122 296.5 121.75 296.3 Z" stroke="none" fill="#6A6D5F"></path>

<path d="M 144 285
Q 144 284.5 143.95 284.5 140 284 136 284 138.25 285.75 143 285.05 143.5 285 144 285 Z" stroke="none" fill="#D9A834"></path>

<path d="M 125 296
Q 125 296.5 124.75 296.75 124.5 297 124 297 124 297.5 123.75 297.8 118.25 304.25 113 311 113 314.5 113 318 113 318.5 113 319 114.75 323.25 116.8 327.1 117 327.5 117 328 119.4 329.6 119.9 333 120 333.5 120 334 126.65 346.15 139.75 337.65 140 337.5 140 337 140 328.5 133 327.1 132.5 327 132 327 130.5 321.5 128.2 316.9 128 316.5 128 316 135.2 307.7 140.8 297.9 141 297.5 141 297 140.5 297 140 296.95 133.3 296.25 125 296 Z" stroke="none" fill="#040E17"></path>

<path d="M 125 295
Q 125 295.5 125 296 133.3 296.25 140 296.95 140.5 297 141 297 141 296.5 140.75 296.3 133.85 290.95 125 295 Z" stroke="none" fill="#381A04"></path>

<path d="M 129.95 283.5
Q 126 283 122 283 124.25 284.75 129 284.05 129.5 284 130 284 130 283.5 129.95 283.5 Z" stroke="none" fill="#C39128"></path>

<path d="M 110 295
Q 110 294.5 109.8 294.4 106.8 292.75 102 293 103.85 295.65 109 295.05 109.5 295 110 295 Z" stroke="none" fill="#6A7065"></path>

<path d="M 110 287
Q 110 286.5 109.85 286.05 109.2 284.3 106 285 106 285.5 106 286 106 286.5 106 287 107.5 287 109 287 109.5 287 110 287
M 268 91
Q 268 90.5 267.9 90.05 267.2 87.25 264 87 264 87.5 264 88 264 88.5 264 89 266.25 89.3 267.3 90.75 267.5 91 268 91
M 284.1 199.95
Q 287.05 211.3 284 199 284 199.5 284.1 199.95 Z" stroke="none" fill="#A26124"></path>

<path d="M 93.1 284.8
Q 93.5 285 94 285 94 284.5 94.15 284.05 95.75 279.45 84 279 88.2 282.35 93.1 284.8 Z" stroke="none" fill="#A36124"></path>

<path d="M 100 287
Q 100 286.5 99.75 286.2 98.2 284.25 94 285 94.3 288.2 99 287.1 99.5 287 100 287 Z" stroke="none" fill="#A66225"></path>

<path d="M 88 289
Q 87.6 291.95 91.05 291.1 91.5 291 92 291 92 290.5 91.85 290.05 91.2 288.3 88 289 Z" stroke="none" fill="#6B7063"></path>

<path d="M 83 272
Q 83 271.5 82.75 271.15 80 267 77 263 76.5 263 76.3 262.75 71.9 257.1 69 250 68.5 250 68 250 68.35 255.15 69.85 259.05 70 259.5 70 260 72.55 260.45 72.05 264 72 264.5 72 265 77.7 265.8 78 272 78 272.5 78 273 81.65 274.85 83.75 278.15 84 278.5 84 279 95.75 279.45 94.15 284.05 94 284.5 94 285 98.2 284.25 99.75 286.2 100 286.5 100 287 102.5 287 105 287 105.5 287 106 287 106 286.5 106 286 106 285.5 106 285 109.2 284.3 109.85 286.05 110 286.5 110 287 113.45 285.8 117.8 288.35 118 288.5 118 289 130 289 142 289 142.5 289 143 289 159.45 289.5 172.05 292.85 172.5 293 173 293 177.75 290.6 186.05 292.85 186.5 293 187 293 190.7 292.3 191.8 294.15 192 294.5 192 295 210.9 295.15 216.8 292.6 217 292.5 217 292 216.5 292 216 291.95 179.95 288.55 144 285 143.5 285 143 285.05 138.25 285.75 136 284 135.5 284 135 284 132.5 284 130 284 129.5 284 129 284.05 124.25 284.75 122 283 121.5 283 121 282.95 98 281.5 83 272
M 122 286.5
L 122 286
Q 141.7 285.65 122 286.5 Z" stroke="none" fill="#A4690E"></path>

<path d="M 122 286
L 122 286.5
Q 141.7 285.65 122 286 Z" stroke="none" fill="#9E621B"></path>

<path d="M 105 267
Q 104.5 267 104.3 267.25 97.35 276.35 92 269
L 92 268.5
Q 90.1 274.1 86 268 86 267.5 85.8 267.45 81.1 265.5 77 259 77 260.5 77 262 77 262.5 77 263 80 267 82.75 271.15 83 271.5 83 272 98 281.5 121 282.95 121.5 283 122 283 126 283 129.95 283.5 130 283.5 130 284 132.5 284 135 284 135.5 284 136 284 140 284 143.95 284.5 144 284.5 144 285 179.95 288.55 216 291.95 216.5 292 217 292 224.35 293.15 233 293 233.5 293 234 293 239.5 292.5 244.05 291.15 244.5 291 245 291 245 290.5 245 290 245.5 290 246 290 246 289.5 245.95 289 245.8 287.35 242 281
L 242 280.5
Q 250.9 282.25 254 282
L 254.5 282
Q 239.6 277.85 231 277 231 277.5 230.75 277.65 222.6 282.85 220 273 219.5 273 219.05 272.85 207.5 268.2 208 272
L 208 272.5
Q 217.85 272.2 214 274 214 274.5 213.8 274.9 211.5 280.25 201 271 200.5 271 200 271.1 193.2 272.3 191 276 191 275.5 190.8 275.15 188.75 271.7 181 276 181 275.5 180.85 275.05 180.4 273.25 172 272 171.5 272 171.45 272.15 169.85 277.45 161 271
L 160.5 271
Q 165.95 265.9 160 265
L 159.5 265
Q 161.1 271.95 153 265 152.5 265 152.4 265.2 146.7 275.1 147 267 146.5 267 146 267 135.9 266.9 132 271 132 270.5 131.75 270.35 123 264.85 105 267 Z" stroke="none" fill="#F7D540"></path>

<path d="M 73 178
Q 72.5 178 72 178 72 181.5 72 185 72 185.5 72 186 73.75 183.75 73.05 179 73 178.5 73 178 Z" stroke="none" fill="#D49839"></path>

<path d="M 59.5 191
Q 59.65 193.15 58 193 58 199.5 58 206 58 206.5 58 207 61.45 201.95 60.05 192 60 191.5 60 191
L 59.5 191 Z" stroke="none" fill="#687166"></path>

<path d="M 60 188
Q 60 188.5 60 189 63.15 184.65 62.05 176 62 175.5 62 175
L 61.5 175
Q 61.65 177.15 60 177 60 181.5 60 186 60 186.5 60 187 60 187.5 60 188
M 184 71.1
Q 184.5 71 185 71 185 70.5 184.95 70.5 180.85 70.15 178 69 178.75 72.25 184 71.1 Z" stroke="none" fill="#676556"></path>

<path d="M 76 143
Q 75.5 143 75 143 75 146.5 75 150 75 150.5 75 151 76.75 148.75 76.05 144 76 143.5 76 143 Z" stroke="none" fill="#CC903B"></path>

<path d="M 79 119
Q 79 119.5 79.05 120 80.75 131.05 79 115 79 116.5 79 118 79 118.5 79 119 Z" stroke="none" fill="#FFCB57"></path>

<path d="M 68 109
L 67.5 109
Q 67.7 112.2 66 113 66 115.5 66 118 66 118.5 66 119 69.35 116.85 68.1 110 68 109.5 68 109 Z" stroke="none" fill="#67634F"></path>

<path d="M 80 108
Q 80 108.5 80 109 81 117.75 81.5 106
L 81 106
Q 80.5 106 80 106 80 107 80 108 Z" stroke="none" fill="#FBC757"></path>

<path d="M 79 111
Q 78.5 111 78 111 78 114.5 78 118 78 118.5 78 119 78.5 119 79 119 79 118.5 79 118 79 116.5 79 115 79 114.5 79 114 79 112.5 79 111 Z" stroke="none" fill="#CB9331"></path>

<path d="M 137 76.5
L 137 77
Q 139 77 141 77 141.5 77 142 77 142 76.5 141.8 76.4 137.75 74.25 131 75 132.75 76.7 137 76.5 Z" stroke="none" fill="#9E6402"></path>

<path d="M 161.95 68.5
Q 157.1 67.75 154 67 155.2 70.3 161 69.1 161.5 69 162 69 162 68.5 161.95 68.5 Z" stroke="none" fill="#676452"></path>

<path d="M 144 67
Q 144 66.5 143.85 66.45 139 64.5 132 65 135.7 67.8 143 67.05 143.5 67 144 67 Z" stroke="none" fill="#67634E"></path>

<path d="M 96 84
Q 96 84.5 95.75 84.65 89.35 89.35 85 96 85 96.5 85 97 99.6 87.2 112.5 77
L 112 77
Q 111.5 77 111.05 77.15 106.85 78.35 103 80 103 80.5 102.8 80.6 99.3 82.3 96 84 Z" stroke="none" fill="#F8C359"></path>

<path d="M 95.1 83.8
Q 95.5 84 96 84 99.3 82.3 102.8 80.6 103 80.5 103 80
L 103 79.5
Q 98 80.5 94 83 94.5 83.5 95.1 83.8 Z" stroke="none" fill="#AA700F"></path>

<path d="M 102 73
Q 102 73.5 101.75 73.8 96.2 81.2 86 84 86 84.5 85.95 85 85.6 89.6 83 93
L 82.5 93
Q 82.8 93.9 76 101 76 101.5 76 102 76.2 106.25 71 115 71.5 115 71.95 115.1 77.2 116.5 74 122
L 74 121.5
Q 70.8 122.8 70 133
L 70 133.5
Q 75.75 133.6 73 140 72.5 140 72.4 140.2 66.1138671875 153.96015625 66 178.5 71.85 179.15 68 185 67.5 185 67 184.95 61.85 184.65 66 193 66 193.5 65.85 193.55 61 194.95 60 209 65.45 219.2 60.25 225.2 60 225.5 60 226 61.8 230.2 65.8 232.4 66 232.5 66 233 66.5 233 66.75 233.25 67 233.5 67 234 67.5 234 68 234 68 233.5 68 233 68 228 68 223 70.6 205.6 71.95 187 72 186.5 72 186 72 185.5 72 185 72 181.5 72 178 72.5 178 73 178 73 177.5 73 177 73 172 73 167 75.05 160.55 75 152 75 151.5 75 151 75 150.5 75 150 75 146.5 75 143 75.5 143 76 143 76 142.5 76 142 76 140.5 76 139 77.75 130.25 78 120 78 119.5 78 119 78 118.5 78 118 78 114.5 78 111 78.5 111 79 111 79 110.5 79 110 79 109.5 79 109 79.5 109 80 109 80 108.5 80 108 80 107 80 106 80.5 106 81 106 81 105.5 81 105 81 104 81 103 83.35 100.85 84.45 97.15 84.5 97 85 97 85 96.5 85 96 89.35 89.35 95.75 84.65 96 84.5 96 84 95.5 84 95.1 83.8 94.5 83.5 94 83 98 80.5 103 79.5
L 103 80
Q 106.85 78.35 111.05 77.15 111.5 77 112 77 112 76.5 112 76 124.85 75.65 136 76.95 136.5 77 137 77
L 137 76.5
Q 132.75 76.7 131 75 137.75 74.25 141.8 76.4 142 76.5 142 77 143.05 77.95 145 78 145.5 78 146 78 146 77.5 146 77 149.5 77 153 77 153.5 77 154 77 154 76.5 153.95 76.5 138.75 74.25 130 69 129.5 69 129 68.95 117.6 67.6 113 73 112.5 73 112 73.05 105.1 73.4 102 73 Z" stroke="none" fill="#A56420"></path>

<path d="M 292 176
L 291.5 176
Q 291.7 180.2 290 182 290 185 290 188 290 188.5 290 189 293.1 185.1 292.05 177 292 176.5 292 176 Z" stroke="none" fill="#676050"></path>

<path d="M 279 191
Q 278.5 191 278 191 278 194.5 278 198 278 198.5 278 199 279.75 196.75 279.05 192 279 191.5 279 191 Z" stroke="none" fill="#BA7A28"></path>

<path d="M 279 183
Q 280.75 180.75 280.05 176 280 175.5 280 175 279.5 175 279 175 279 178.5 279 182 279 182.5 279 183 Z" stroke="none" fill="#D79A38"></path>

<path d="M 281 166
Q 280.5 166 280 166 280 169.5 280 173 280 173.5 280 174 281.75 171.75 281.05 167 281 166.5 281 166 Z" stroke="none" fill="#D39639"></path>

<path d="M 283 141
Q 283 141.5 283 142 283.5 142 283.5 141.95 284.75 132.75 283 126 283 133.5 283 141 Z" stroke="none" fill="#D49739"></path>

<path d="M 283 143
Q 282.5 143 282 143 282 148 282 153 282 153.5 282 154 283.75 150.25 283.05 144 283 143.5 283 143 Z" stroke="none" fill="#CF923F"></path>

<path d="M 296 138
Q 296 137.5 296.05 137 296.65 129.35 294 125 293.85 132.15 295.45 137.85 295.5 138 296 138 Z" stroke="none" fill="#676150"></path>

<path d="M 286 143
Q 285.5 143 285.45 143.15 282.2 152.85 286 157 286 157.5 285.85 157.95 283.95 164.95 282 172 282 173 282 174 282 174.5 282 175 291.2 165.85 290.05 151 290 150.5 290 150 287.65 147.4 286.2 143.95 286 143.5 286 143 Z" stroke="none" fill="#A35F24"></path>

<path d="M 289.75 121.3
Q 286.4 118.6 284 115 287 126.5 286.05 142 286 142.5 286 143 286.5 143 286.5 142.95 287.6 131.6 290 122 290 121.5 289.75 121.3 Z" stroke="none" fill="#A65F25"></path>

<path d="M 238 87.05
Q 238.5 87 239 87 239 86.5 238.95 86.5 235 86 231 86 233.25 87.75 238 87.05 Z" stroke="none" fill="#C58933"></path>

<path d="M 225 86.05
Q 225.5 86 226 86 226 85.5 225.95 85.5 222 85 218 85 220.25 86.75 225 86.05 Z" stroke="none" fill="#CD9530"></path>

<path d="M 226 75
Q 226 74.5 225.85 74.45 219.25 72.25 210 73 215.05 76.45 225 75.05 225.5 75 226 75
M 266 83
Q 266 82.5 265.85 82.05 265.2 80.3 262 81 261.6 83.9 265.05 83.1 265.5 83 266 83 Z" stroke="none" fill="#676451"></path>

<path d="M 234 75
Q 235.2 78.3 241 77.1 241.5 77 242 77 242 76.5 241.75 76.3 239.25 74.25 234 75 Z" stroke="none" fill="#68634D"></path>

<path d="M 210 84
Q 212.25 85.75 217 85.05 217.5 85 218 85 218 84.5 217.95 84.5 214 84 210 84 Z" stroke="none" fill="#C98D32"></path>

<path d="M 170 80
Q 170 80.5 169.75 80.7 165.95 84.05 164 80 163.5 80 163.05 79.85 155.7 77.8 146 78 145.5 78 145 78 143.05 77.95 142 77 141.5 77 141 77 139 77 137 77 136.5 77 136 76.95 124.85 75.65 112 76 112 76.5 112 77
L 112.5 77
Q 99.6 87.2 85 97 84.5 97 84.45 97.15 83.35 100.85 81 103 81 104 81 105 81 105.5 81 106
L 81.5 106
Q 81 117.75 80 109 79.5 109 79 109 79 109.5 79 110 79 110.5 79 111 79 112.5 79 114 79 114.5 79 115 80.75 131.05 79.05 120 79 119.5 79 119 78.5 119 78 119 78 119.5 78 120 77.75 130.25 76 139 76 140.5 76 142 76 142.5 76 143 76 143.5 76.05 144 76.75 148.75 75 151 75 151.5 75 152 75.05 160.55 73 167 73 172 73 177 73 177.5 73 178 73 178.5 73.05 179 73.75 183.75 72 186 72 186.5 71.95 187 70.6 205.6 68 223 68 228 68 233 68 233.5 68 234 67.75 242.25 68.9 249 69 249.5 69 250 71.9 257.1 76.3 262.75 76.5 263 77 263 77 262.5 77 262 77 260.5 77 259 81.1 265.5 85.8 267.45 86 267.5 86 268 90.1 274.1 92 268.5
L 92 269
Q 97.35 276.35 104.3 267.25 104.5 267 105 267 123 264.85 131.75 270.35 132 270.5 132 271 135.9 266.9 146 267 146.5 267 147 267 146.7 275.1 152.4 265.2 152.5 265 153 265 161.1 271.95 159.5 265
L 160 265
Q 165.95 265.9 160.5 271
L 161 271
Q 169.85 277.45 171.45 272.15 171.5 272 172 272 180.4 273.25 180.85 275.05 181 275.5 181 276 188.75 271.7 190.8 275.15 191 275.5 191 276 193.2 272.3 200 271.1 200.5 271 201 271 211.5 280.25 213.8 274.9 214 274.5 214 274 217.85 272.2 208 272.5
L 208 272
Q 207.5 268.2 219.05 272.85 219.5 273 220 273 222.6 282.85 230.75 277.65 231 277.5 231 277 239.6 277.85 254.5 282
L 254 282
Q 250.9 282.25 242 280.5
L 242 281
Q 245.8 287.35 245.95 289 246 289.5 246 290 255 285.5 261.75 278.75 262 278.5 262 278 261.5 278 261.15 277.8 259.3 276.7 260 273 268.65 262.35 266.15 270.05 266 270.5 266 271 266.5 271 267 271 267.5 271 268 271 268 270.5 268 270 275.5 247.5 276 218 276 217.5 276 217 276 216.5 276 216 276 212.5 276 209 276.5 209 277 209 277 208.5 277 208 277 207.5 277 207 277 206.5 277 206 277 202.5 277 199 277.5 199 278 199 278 198.5 278 198 278 194.5 278 191 278.5 191 279 191 279 190.5 279 190 279 186.5 279 183 279 182.5 279 182 279 178.5 279 175 279.5 175 280 175 280 174.5 280 174 280 173.5 280 173 280 169.5 280 166 280.5 166 281 166 281 165.5 281 165 281 162 281 159 282.7 158.2 282.1 155 282 154.5 282 154 282 153.5 282 153 282 148 282 143 282.5 143 283 143 283 142.5 283 142 283 141.5 283 141 283 133.5 283 126 283 125.5 282.9 125 276.4 90.6 239 87 238.5 87 238 87.05 233.25 87.75 231 86 230.5 86 230 86 228 86 226 86 225.5 86 225 86.05 220.25 86.75 218 85 217.5 85 217 85.05 212.25 85.75 210 84 209.5 84 209 83.95 189.15 82.35 170 80
M 256 96
Q 256.5 96 256.9 96.2 262.3 99.2 266 104 266 104.5 266.15 104.95 267.8 111.2 266 116
L 266 116.5
Q 212.1 112.9 176 105 175.5 105 175 105.05 151.05 108.65 126 100 125.5 100 125 100.1 105.3 103.7 101 92 104.6 86.6 109.75 82.7 110 82.5 110 82 116 81 122 80.1 122.5 80 123 80 193.9 85.4 255.9 95.5 256 95.5 256 96
M 164.95 118.5
Q 165 118.5 165 119 204 127 219.4 158.8 219.5 159 220 159 223.1 158.9 222.1 163.05 222 163.5 222 164 223.2 169.8 223.95 176 224 176.5 224 177 224.5 177 225 177 225 176.5 225 176 225 174.5 225 173 226.75 177.75 225.5 184.9 225.5 185 225 185 225 185.5 225.1 186 225.7 189.7 224 191 224 191.5 223.9 192 222.3 200.8 218 207 218 207.5 217.8 207.9 216.45 210.45 214 212 214 212.5 214 213 214 213.5 214 214 214 214.5 213.8 214.9 209 224 200 229 200 229.5 199.75 229.75 189.4 240.4 173 245 172.5 245 172 245 169 245 166 245 165.5 245 165 245 158.5 245 152 245 151.5 245 151.1 245.2 146.7 247.25 146 241 146 240.5 145.85 240.05 145 237.5 144 235 143.5 235 143.5 234.95 141.25 204.25 142 171 142 170.5 142 170 142 166 142 162 142 161.5 142 161 142 158 142 155 141.5 155 141.5 154.95 141 150 141 145 141 144.5 141 144 140.5 144 140.45 143.85 139.95 142.05 139 141 140.75 136.25 140.5 129
L 141 129
Q 141 128.5 141 128 141 127.5 141 127 142.65 121.15 148.05 119.15 148.5 119 149 119 149 118.5 149 118 157 118 164.95 118.5
M 134 78
Q 148.85 78.5 134 78.5
L 134 78
M 78.05 131
Q 78 130.5 78 130 79.45 142.3 78.05 131
M 98.15 263.55
Q 98 263.5 98 263 110.15 267 98.15 263.55
M 92 262
Q 96.15 269.9 92.2 262.9 92 262.5 92 262
M 144.25 249.7
Q 144 249.5 144 249 152.25 247.95 161.9 250.45 162 250.5 162 251 151.9 256.1 144.25 249.7
M 262.1 263.5
Q 262 263.5 262 263 269 265.1 262.1 263.5
M 244.1 282.55
Q 244 282.5 244 282 251.1 284.25 244.1 282.55
M 252.1 277.5
Q 252 277.5 252 277 260.35 279.3 252.1 277.5
M 184.65 271.75
Q 184.5 272 184 272 180.5 266.8 177.65 270.75 177.5 271 177 271 167.6 273.15 165.15 265.95 165 265.5 165 265 177.05 268.3 183.1 265.2 183.5 265 184 265 188 266.6 184.65 271.75
M 188 268
Q 198.35 268.9 188 268.5
L 188 268 Z" stroke="none" fill="#F8C640"></path>

<path d="M 188 268.5
Q 198.35 268.9 188 268
L 188 268.5
M 92.2 262.9
Q 96.15 269.9 92 262 92 262.5 92.2 262.9 Z" stroke="none" fill="#F9D840"></path>

<path d="M 184 272
Q 184.5 272 184.65 271.75 188 266.6 184 265 183.5 265 183.1 265.2 177.05 268.3 165 265 165 265.5 165.15 265.95 167.6 273.15 177 271 177.5 271 177.65 270.75 180.5 266.8 184 272 Z" stroke="none" fill="#F8D83F"></path>

<path d="M 252 277
Q 252 277.5 252.1 277.5 260.35 279.3 252 277
M 262 263
Q 262 263.5 262.1 263.5 269 265.1 262 263
M 144 249
Q 144 249.5 144.25 249.7 151.9 256.1 162 251 162 250.5 161.9 250.45 152.25 247.95 144 249 Z" stroke="none" fill="#F8D63A"></path>

<path d="M 244 282
Q 244 282.5 244.1 282.55 251.1 284.25 244 282 Z" stroke="none" fill="#F8D83E"></path>

<path d="M 98 263
Q 98 263.5 98.15 263.55 110.15 267 98 263 Z" stroke="none" fill="#F9D83F"></path>

<path d="M 78 130
Q 78 130.5 78.05 131 79.45 142.3 78 130 Z" stroke="none" fill="#FECC51"></path>

<path d="M 134 78.5
Q 148.85 78.5 134 78
L 134 78.5 Z" stroke="none" fill="#FFCC58"></path>

<path d="M 173 244
Q 173 244.5 173 245 189.4 240.4 199.75 229.75 200 229.5 200 229 199.5 229 199 229 198.5 229 198.2 229.25 187 237.5 173 243 173 243.5 173 244 Z" stroke="none" fill="#DDC56B"></path>

<path d="M 166 244
Q 166 244.5 166 245 169 245 172 245 172.5 245 173 245 173 244.5 173 244 173 243.5 173 243 172.5 243 172 243 171.5 243 171 243 171 243.5 170.9 243.5 168.5 244 166 244 Z" stroke="none" fill="#CFB264"></path>

<path d="M 163 242
Q 163.3 243.7 165 243.95 165.5 244 166 244 168.5 244 170.9 243.5 171 243.5 171 243 170.5 243 170 243 165.85 243.15 163 242 Z" stroke="none" fill="#796019"></path>

<path d="M 214 214
Q 213.5 214 213.3 214.25 206.75 221.75 199 228 199 228.5 199 229 199.5 229 200 229 209 224 213.8 214.9 214 214.5 214 214 Z" stroke="none" fill="#CCB462"></path>

<path d="M 159 243
Q 159 243.5 158.95 243.5 155.5 244 152 244 152 244.5 152 245 158.5 245 165 245 165.5 245 166 245 166 244.5 166 244 165.5 244 165 243.95 163.3 243.7 163 242 162.5 242 162 242 160.05 242.05 159 243 Z" stroke="none" fill="#D1BA74"></path>

<path d="M 149 243
Q 148.9 244.65 151.05 244.1 151.5 244 152 244 155.5 244 158.95 243.5 159 243.5 159 243 158.5 243 158 243 153.5 243 149 243 Z" stroke="none" fill="#573F02"></path>

<path d="M 149 243
Q 148.5 243 148.4 242.8 147.7 241.3 146 241 146.7 247.25 151.1 245.2 151.5 245 152 245 152 244.5 152 244 151.5 244 151.05 244.1 148.9 244.65 149 243 Z" stroke="none" fill="#DFC36A"></path>

<path d="M 144 222
Q 143.5 222 143 222 143 227 143.5 231.95 143.5 232 144 232 144 231.5 144 231 144 226.5 144 222 Z" stroke="none" fill="#795E14"></path>

<path d="M 144 199
Q 143.5 199 143 199 143 210 143 221 143 221.5 143 222 143.5 222 144 222 144 221.5 144 221 144 210 144 199 Z" stroke="none" fill="#806705"></path>

<path d="M 144 199
Q 144 198.5 144.05 198 144.75 189.75 143 184 143 191 143 198 143 198.5 143 199 143.5 199 144 199 Z" stroke="none" fill="#4F3300"></path>

<path d="M 143 171
Q 142.5 171 142 171 141.25 204.25 143.5 234.95 143.5 235 144 235 144 234.5 144 234 144 233 144 232 143.5 232 143.5 231.95 143 227 143 222 143 221.5 143 221 143 210 143 199 143 198.5 143 198 143 191 143 184 143 183.5 143 183 143 177 143 171 Z" stroke="none" fill="#D7BF6C"></path>

<path d="M 143 171
Q 143 170.5 143.05 170 143.75 164.75 142 162 142 166 142 170 142 170.5 142 171 142.5 171 143 171 Z" stroke="none" fill="#615742"></path>

<path d="M 142 145
Q 141.5 145 141 145 141 150 141.5 154.95 141.5 155 142 155 142 154.5 142 154 142 149.5 142 145 Z" stroke="none" fill="#8D690B"></path>

<path d="M 141 129
L 140.5 129
Q 140.75 136.25 139 141 139.95 142.05 140.45 143.85 140.5 144 141 144 141 143.5 141 143 141 136 141 129 Z" stroke="none" fill="#AF914B"></path>

<path d="M 225 184
Q 225 180.5 225 177 224.5 177 224 177 224 183.5 224 190 224 190.5 224 191 225.7 189.7 225.1 186 225 185.5 225 185 225 184.5 225 184 Z" stroke="none" fill="#7A5B09"></path>

<path d="M 225 177
Q 225 180.5 225 184 225 184.5 225 185 225.5 185 225.5 184.9 226.75 177.75 225 173 225 174.5 225 176 225 176.5 225 177 Z" stroke="none" fill="#E8C96B"></path>

<path d="M 222 164
Q 222 163.5 222.1 163.05 223.1 158.9 220 159 220.2 161.8 221.35 163.8 221.5 164 222 164 Z" stroke="none" fill="#D1B15D"></path>

<path d="M 165 119
Q 165 118.5 164.95 118.5 157 118 149 118 149 118.5 149 119 156.5 119 164 119 164.5 119 165 119 Z" stroke="none" fill="#734B06"></path>

<path d="M 174 123
Q 173.5 123 173 122.9 159.6 120.3 146 123 146 123.5 145.95 124 145.05 130.55 142 137 145.4 141.85 142.25 144.3 142 144.5 142 145 142 149.5 142 154 142 154.5 142 155 142 158 142 161 142 161.5 142 162 143.75 164.75 143.05 170 143 170.5 143 171 143 177 143 183 143 183.5 143 184 144.75 189.75 144.05 198 144 198.5 144 199 144 210 144 221 144 221.5 144 222 144 226.5 144 231 144 231.5 144 232 144 233 144 234 144 234.5 144 235 145 237.5 145.85 240.05 146 240.5 146 241 147.7 241.3 148.4 242.8 148.5 243 149 243 153.5 243 158 243 158.5 243 159 243 160.05 242.05 162 242 162.5 242 163 242 165.85 243.15 170 243 170.5 243 171 243 171.5 243 172 243 172.5 243 173 243 187 237.5 198.2 229.25 198.5 229 199 229 199 228.5 199 228 206.75 221.75 213.3 214.25 213.5 214 214 214 214 213.5 214 213 214 212.5 214 212 216.45 210.45 217.8 207.9 218 207.5 218 207 218 206.5 217.95 206 217.15 196.25 221 196 221 195.5 221 195 221.7 170.8 214 155 213.5 155 213.35 154.75 203 140.15 189 134 189 133.5 188.75 133.15 185.6 128.4 178 128 178 127.5 177.85 127.45 174.65 126.35 174 123
M 173.85 134.45
Q 174 134.5 174 135 177.8 136.7 181.8 138.4 182 138.5 182 139 186.25 141.25 189.75 144.3 190 144.5 190 145 194.25 146.25 195.8 150.05 196 150.5 196 151 203.55 157.95 205.9 170 206 170.5 206 171 206.5 171.5 206.8 172.1 207 172.5 207 173 208.75 177.75 207.5 184.9 207.5 185 207 185 207 185.5 206.85 185.95 198.75 215.25 173 227 173 227.5 172.85 227.55 168 229.5 161 229 160.5 229 160.5 228.95 160 224.5 160 220 160 219.5 160 219 160 215 160 211 159.5 211 159.5 210.95 159 204.5 159 198 159 197.5 159 197 159 192 159 187 158.5 187 158.5 186.95 158 178.5 158 170 158 169.5 158 169 158 165 158 161
L 157.5 161
Q 157 146 157 131 157.5 131 158 131 165.25 131.25 170.1 133.8 170.5 134 171 134 172.5 134 173.85 134.45 Z" stroke="none" fill="#120604"></path>

<path d="M 161 228
Q 161 228.5 161 229 168 229.5 172.85 227.55 173 227.5 173 227 172.5 227 172.05 227.15 167.45 228.45 161 228 Z" stroke="none" fill="#6F5610"></path>

<path d="M 161 220
Q 160.5 220 160 220 160 224.5 160.5 228.95 160.5 229 161 229 161 228.5 161 228 161 227.5 161 227 161 223.5 161 220 Z" stroke="none" fill="#5E4302"></path>

<path d="M 160 206
Q 160 208 160 210 160 210.5 160 211 160 215 160 219 160 219.5 160 220 160.5 220 161 220 161 219.5 161.05 219 161.75 211.25 160 206 Z" stroke="none" fill="#A87C09"></path>

<path d="M 160 198
Q 159.5 198 159 198 159 204.5 159.5 210.95 159.5 211 160 211 160 210.5 160 210 160 208 160 206 160 205.5 160 205 160 201.5 160 198 Z" stroke="none" fill="#442F00"></path>

<path d="M 160 187
Q 159.5 187 159 187 159 192 159 197 159 197.5 159 198 159.5 198 160 198 160 197.5 160 197 160 192 160 187 Z" stroke="none" fill="#7B5A30"></path>

<path d="M 160 187
Q 160 186.5 160.05 186 160.75 178.75 159 174 159 180 159 186 159 186.5 159 187 159.5 187 160 187 Z" stroke="none" fill="#C2A55C"></path>

<path d="M 159 172
Q 159 171 159 170 158.5 170 158 170 158 178.5 158.5 186.95 158.5 187 159 187 159 186.5 159 186 159 180 159 174 159 173.5 159 173 159 172.5 159 172 Z" stroke="none" fill="#472A00"></path>

<path d="M 159 169
Q 159 169.5 159 170 159 171 159 172 159 172.5 159 173 159.5 173 159.5 172.9 160.75 166.75 159 163 159 166 159 169 Z" stroke="none" fill="#E1C573"></path>

<path d="M 158 156
Q 158 158 158 160 158 160.5 158 161 158 165 158 169 158 169.5 158 170 158.5 170 159 170 159 169.5 159 169 159 166 159 163 159 162.5 159.05 162 159.7 157.75 158 156 Z" stroke="none" fill="#8C6804"></path>

<path d="M 158 131
Q 157.5 131 157 131 157 146 157.5 161
L 158 161
Q 158 160.5 158 160 158 158 158 156 158 155.5 158 155 158 148 158 141 158 140.5 158 140 158 135.5 158 131 Z" stroke="none" fill="#4F3609"></path>

<path d="M 207 185
Q 207.5 185 207.5 184.9 208.75 177.75 207 173 207 175.5 207 178 207 178.5 207 179 207 181.5 207 184 207 184.5 207 185 Z" stroke="none" fill="#856A13"></path>

<path d="M 207 173
Q 207 172.5 206.8 172.1 206.5 171.5 206 171 206 175 206.5 178.95 206.5 179 207 179 207 178.5 207 178 207 175.5 207 173 Z" stroke="none" fill="#CEB46F"></path>

<path d="M 196 151
Q 196 150.5 195.8 150.05 194.25 146.25 190 145 192.05 148.45 195.2 150.75 195.5 151 196 151 Z" stroke="none" fill="#BA9D51"></path>

<path d="M 182 139
Q 182 138.5 181.8 138.4 177.8 136.7 174 135 175.8 138.7 181 139 181.5 139 182 139 Z" stroke="none" fill="#C1A25A"></path>

<path d="M 171 134
Q 170.5 134 170.1 133.8 165.25 131.25 158 131 158 135.5 158 140 158 140.5 158 141 159.65 133.15 171 134.5
L 171 134 Z" stroke="none" fill="#D7B466"></path>

<path d="M 174 135
Q 174 134.5 173.85 134.45 172.5 134 171 134
L 171 134.5
Q 159.65 133.15 158 141 158 148 158 155 158 155.5 158 156 159.7 157.75 159.05 162 159 162.5 159 163 160.75 166.75 159.5 172.9 159.5 173 159 173 159 173.5 159 174 160.75 178.75 160.05 186 160 186.5 160 187 160 192 160 197 160 197.5 160 198 160 201.5 160 205 160 205.5 160 206 161.75 211.25 161.05 219 161 219.5 161 220 161 223.5 161 227 161 227.5 161 228 167.45 228.45 172.05 227.15 172.5 227 173 227 198.75 215.25 206.85 185.95 207 185.5 207 185 207 184.5 207 184 207 181.5 207 179 206.5 179 206.5 178.95 206 175 206 171 206 170.5 205.9 170 203.55 157.95 196 151 195.5 151 195.2 150.75 192.05 148.45 190 145 190 144.5 189.75 144.3 186.25 141.25 182 139 181.5 139 181 139 175.8 138.7 174 135 Z" stroke="none" fill="#F5C441"></path>

<path d="M 173 122.9
Q 173.5 123 174 123 174.65 126.35 177.85 127.45 178 127.5 178 128 185.6 128.4 188.75 133.15 189 133.5 189 134 203 140.15 213.35 154.75 213.5 155 214 155 221.7 170.8 221 195 221 195.5 221 196 217.15 196.25 217.95 206 218 206.5 218 207 222.3 200.8 223.9 192 224 191.5 224 191 224 190.5 224 190 224 183.5 224 177 224 176.5 223.95 176 223.2 169.8 222 164 221.5 164 221.35 163.8 220.2 161.8 220 159 219.5 159 219.4 158.8 204 127 165 119 164.5 119 164 119 156.5 119 149 119 148.5 119 148.05 119.15 142.65 121.15 141 127 141 127.5 141 128 141 128.5 141 129 141 136 141 143 141 143.5 141 144 141 144.5 141 145 141.5 145 142 145 142 144.5 142.25 144.3 145.4 141.85 142 137 145.05 130.55 145.95 124 146 123.5 146 123 159.6 120.3 173 122.9 Z" stroke="none" fill="#311301"></path>

<path d="M 255.95 96.5
Q 256 96.5 256 96 256 95.5 255.9 95.5 193.9 85.4 123 80 123 80.5 122.8 80.6 119.5 82 116 83 123.6 90.45 139.9 87.5 140 87.5 140 87 207.75 100.05 255.95 96.5 Z" stroke="none" fill="#FEE171"></path>

<path d="M 256.9 96.2
Q 256.5 96 256 96 256 96.5 255.95 96.5 207.75 100.05 140 87 140 87.5 139.9 87.5 123.6 90.45 116 83 119.5 82 122.8 80.6 123 80.5 123 80 122.5 80 122 80.1 116 81 110 82 110 82.5 109.75 82.7 104.6 86.6 101 92 105.3 103.7 125 100.1 125.5 100 126 100 151.05 108.65 175 105.05 175.5 105 176 105 212.1 112.9 266 116.5
L 266 116
Q 267.8 111.2 266.15 104.95 266 104.5 266 104 262.3 99.2 256.9 96.2 Z" stroke="none" fill="#FED35F"></path>

<path d="M 169.75 80.7
Q 170 80.5 170 80 169.5 80 169 80 166.5 80 164 80 165.95 84.05 169.75 80.7 Z" stroke="none" fill="#FBC65D"></path>

<path d="M 174 79
Q 175.5 79 177 79 177.5 79 178 79 178 78.5 177.85 78.05 177.2 76.3 174 77 174 77.5 174 78 174 78.5 174 79
M 154 72
L 154 72.5
Q 164.4 71.2 154 72
M 196 76
L 196 76.5
Q 212.4 76.5 196 76
M 186 74
Q 185.5 74 185 74 175.3 73.6 162 73 162 73.5 162.1 73.55 174 76.5 186 74 Z" stroke="none" fill="#A25F25"></path>

<path d="M 267.75 91.75
Q 267.5 92 267 92 270.25 96.7 275.1 98.8 275.5 99 276 99 276 98.5 275.8 98.1 273.6 92.95 268 91 268 91.5 267.75 91.75 Z" stroke="none" fill="#A36024"></path>

<path d="M 262 89
Q 262 88.5 261.85 88.05 261.2 86.3 258 87 257.6 89.9 261.05 89.1 261.5 89 262 89 Z" stroke="none" fill="#A46224"></path>

<path d="M 250 84
L 250 84.5
Q 232.05 84.55 213 81 212.5 81 212 81 194.4 80.6 178 79 177.5 79 177 79 175.5 79 174 79 173.5 79 173 78.9 164.35 77.15 154 77 153.5 77 153 77 149.5 77 146 77 146 77.5 146 78 155.7 77.8 163.05 79.85 163.5 80 164 80 166.5 80 169 80 169.5 80 170 80 189.15 82.35 209 83.95 209.5 84 210 84 214 84 217.95 84.5 218 84.5 218 85 222 85 225.95 85.5 226 85.5 226 86 228 86 230 86 230.5 86 231 86 235 86 238.95 86.5 239 86.5 239 87 276.4 90.6 282.9 125 283 125.5 283 126 284.75 132.75 283.5 141.95 283.5 142 283 142 283 142.5 283 143 283 143.5 283.05 144 283.75 150.25 282 154 282 154.5 282.1 155 282.7 158.2 281 159 281 162 281 165 281 165.5 281 166 281 166.5 281.05 167 281.75 171.75 280 174 280 174.5 280 175 280 175.5 280.05 176 280.75 180.75 279 183 279 186.5 279 190 279 190.5 279 191 279 191.5 279.05 192 279.75 196.75 278 199 278 199.5 278.05 200 278.75 204.75 277 207 277 207.5 277 208 277 208.5 277 209 277 209.5 277.05 210 277.75 214.75 276 217 276 217.5 276 218 275.5 247.5 268 270 268 270.5 268 271 268.5 271 269 271 269.5 271 270 271 270 270.5 270 270 270 269.5 270 269 270.5 268.5 271.1 268.2 271.5 268 272 268 272 267.5 272 267 272 266 272 265 272.5 265 273 265 273 264.5 273 264 273 263.5 273 263 275.65 263.65 275.5 261
L 276 261
Q 276 260.5 275.85 260.05 275.35 258.35 274 254 276.15 254.65 276.05 253 276 252.5 276 252 276 251.5 276 251 276 244 276 237 276.5 237 277 237 277.5 237 278 237 278 236.5 278 236 278 232.5 278 229 278 228.5 278 228 278 224.5 278 221 278 220.5 278 220 278 217.5 278 215 278.5 215 279 215 279.5 215 280 215 280 214.5 280 214 280 206.5 280 199 280 198.5 280 198 280 191.5 280 185 280.5 185.5 281.1 185.8 281.5 186 282 186 282 185.5 282 185 282 180 282 175 282 174.5 282 174 282 173 282 172 283.95 164.95 285.85 157.95 286 157.5 286 157 282.2 152.85 285.45 143.15 285.5 143 286 143 286 142.5 286.05 142 287 126.5 284 115 283.5 115 283.35 114.8 281.25 111.25 282 105 281.5 105 281.05 105.1 277.6 105.95 278 103 277.5 103 277.4 103.2 275.75 106.4 276 99 275.5 99 275.1 98.8 270.25 96.7 267 92 267.5 92 267.75 91.75 268 91.5 268 91 267.5 91 267.3 90.75 266.25 89.3 264 89 263.5 89 263 89 262.5 89 262 89 261.5 89 261.05 89.1 257.6 89.9 258 87 257.5 87 257.05 86.9 253.15 85.85 250 84 Z" stroke="none" fill="#A66812"></path>

<path d="M 250 84
Q 250 83.5 249.9 83.45 228.55 78.35 208 76 210.8 80.15 212.9 80.5 213 80.5 213 81 232.05 84.55 250 84.5
L 250 84 Z" stroke="none" fill="#A16024"></path>

<path d="M 262 81
Q 261.5 81 261.1 80.8 253.25 77.25 242 77 241.5 77 241 77.1 235.2 78.3 234 75 233.5 75 233 75 229.5 75 226 75 225.5 75 225 75.05 215.05 76.45 210 73 209.5 73 209 73 196.15 72.85 185 71 184.5 71 184 71.1 178.75 72.25 178 69 177.5 69 177 69 169.5 69 162 69 161.5 69 161 69.1 155.2 70.3 154 67 153.5 67 153 67 148.5 67 144 67 143.5 67 143 67.05 135.7 67.8 132 65 131.5 65 131 65 112.3 64.8 98 69 98 69.5 97.75 69.75 91.9 75.4 84 79 84 79.5 83.75 79.8 75.1 91.6 68 105 68 106.5 68 108 68 108.5 68 109 68 109.5 68.1 110 69.35 116.85 66 119 66 119.5 66 120 65.5 141.5 62 160 62 167 62 174 62 174.5 62 175 62 175.5 62.05 176 63.15 184.65 60 189 60 189.5 60 190 60 190.5 60 191 60 191.5 60.05 192 61.45 201.95 58 207 58 213.5 58 220 58 220.5 58 221 58 227 58 233 58 233.5 58 234 58 234.5 58 235 64 235.5 62.5 242.9 62.5 243 62 243 62 243.5 61.75 243.8 60.7 245.25 58 245 58 245.5 58 246 58 249 58 252 58 252.5 58 253 66.15 277.35 87.8 288.4 88 288.5 88 289 91.2 288.3 91.85 290.05 92 290.5 92 291 97.5 291 101.1 292.8 101.5 293 102 293 106.8 292.75 109.8 294.4 110 294.5 110 295 111.5 295 113 295 113.5 295 114 295 119.25 294.25 121.75 296.3 122 296.5 122 297 122.5 297 123 297 123.5 297 124 297 124.5 297 124.75 296.75 125 296.5 125 296 125 295.5 125 295 133.85 290.95 140.75 296.3 141 296.5 141 297 147.65 300.35 159 299.05 159.5 299 160 299 168.25 298.25 173.85 300.45 174 300.5 174 301 174.5 301 175 301 175.5 301 176 301 186.15 300.35 193.85 302.45 194 302.5 194 303 196.5 303 199 303 199.5 303 200 303 200.3013671875 303.01484375 200.6 303
L 201.05 303.05
Q 208.3625 303.3763671875 212 303.05 212.5 303 213 303 213 302.5 213 302 220.45 295.85 227.75 302.3 228 302.5 228 303 228.5 303 229 303 231.45 306.05 238 305.05 238.5 305 239 305 239.5 305 240 305 240 304.5 240 304 240 303.5 240 303 242.5 303 245 303 245.5 303 246 303 251.9 301.4 255.75 297.75 256 297.5 256 297 256 296.5 256 296 256 295.5 256 295 257.5 295 259 295 259.5 295 260 295 265.6 290.1 273.05 287.15 273.5 287 274 287 274 286.5 274 286 274 285.5 274 285 273.5 285 273.3 284.75 269.3 280.2 269 272 268.5 272 268.5 272.05 267.85 280.6 266 285 265.5 285 265.05 285.15 257.1 287.8 246 292 246 292.5 246 293 246.5 293 247 292.95 252.7 292.5 236 299 235.5 299 235.3 298.75 231.6 294.6 227 294 226.5 294 226.15 294.25 218.45 299.1 208 297 207.5 297 207.1 297.2 197.5 301.3 192 295 192 294.5 191.8 294.15 190.7 292.3 187 293 187 293.5 186.9 293.5 162.05 297.35 143 289 142.5 289 142 289 130 289 118 289 117.5 289 117 289 112.7 288.85 110 287 109.5 287 109 287 107.5 287 106 287 105.5 287 105 287 102.5 287 100 287 99.5 287 99 287.1 94.3 288.2 94 285 93.5 285 93.1 284.8 88.2 282.35 84 279 84 278.5 83.75 278.15 81.65 274.85 78 273 77.5 273 77.15 272.75 74.55 271.05 72 265 71.5 265 71.15 264.75 69.45 263.55 68 262 70.15 262.65 70.05 261 70 260.5 70 260 70 259.5 69.85 259.05 68.35 255.15 68 250 67.5 250 67.45 249.9 66.8 247.2 66 245 66 244.5 66 244 66 238.5 66 233 66 232.5 65.8 232.4 61.8 230.2 60 226 60 225.5 60.25 225.2 65.45 219.2 60 209 61 194.95 65.85 193.55 66 193.5 66 193 61.85 184.65 67 184.95 67.5 185 68 185 71.85 179.15 66 178.5 66.1138671875 153.96015625 72.4 140.2 72.5 140 73 140 75.75 133.6 70 133.5
L 70 133
Q 70.8 122.8 74 121.5
L 74 122
Q 77.2 116.5 71.95 115.1 71.5 115 71 115 76.2 106.25 76 102 76 101.5 76 101 82.8 93.9 82.5 93
L 83 93
Q 85.6 89.6 85.95 85 86 84.5 86 84 96.2 81.2 101.75 73.8 102 73.5 102 73 105.1 73.4 112 73.05 112.5 73 113 73 117.6 67.6 129 68.95 129.5 69 130 69 138.75 74.25 153.95 76.5 154 76.5 154 77 164.35 77.15 173 78.9 173.5 79 174 79 174 78.5 174 78 174 77.5 174 77 177.2 76.3 177.85 78.05 178 78.5 178 79 194.4 80.6 212 81 212.5 81 213 81 213 80.5 212.9 80.5 210.8 80.15 208 76 228.55 78.35 249.9 83.45 250 83.5 250 84 253.15 85.85 257.05 86.9 257.5 87 258 87 261.2 86.3 261.85 88.05 262 88.5 262 89 262.5 89 263 89 263.5 89 264 89 264 88.5 264 88 264 87.5 264 87 267.2 87.25 267.9 90.05 268 90.5 268 91 273.6 92.95 275.8 98.1 276 98.5 276 99 278.2 99.3 278.05 102 278 102.5 278 103 281.2 102.3 281.85 104.05 282 104.5 282 105 285.35 107.15 284.1 114 284 114.5 284 115 286.4 118.6 289.75 121.3 290 121.5 290 122 287.6 131.6 286.5 142.95 286.5 143 286 143 286 143.5 286.2 143.95 287.65 147.4 290 150 290 150.5 290.05 151 291.2 165.85 282 175 282 180 282 185 282 185.5 282 186 282 186.5 282.1 187 283.4 195.4 280 199 280 206.5 280 214 280 214.5 280 215 280 215.5 280.1 216 281.2 220.7 278 221 278 224.5 278 228 278 228.5 278 229 282.1 231.9 278.65 236.75 278.5 237 278 237 278 237.5 278.05 238 279.35 249.75 276 252 276 252.5 276.05 253 276.15 254.65 274 254 275.35 258.35 275.85 260.05 276 260.5 276 261 276 261.5 276.1 262 276.9 265.9 273 265 272.5 265 272 265 272 266 272 267 272 267.5 272 268 273.9 264.75 274 268 274 268.5 274 269 277 269 280 269 280.5 269 281 269 282 266 283.4 263.2 283.5 263 284 263 284 262.5 284 262 284 258.5 284 255 284 254.5 284 254 284 246.5 284 239 284.5 239 285 239 285.5 239 286 239 286 238.5 286 238 286 237.5 286 237 286 236.5 286 236 286 232.5 286 229 286.5 229 287 229 287 228.5 286.75 228.25 285.3 226.7 286 223 286.5 223 287 223 287.5 223 288 223 288 222.5 288 222 288 215.5 288 209 291.45 201.95 290.05 190 290 189.5 290 189 290 188.5 290 188 290 185 290 182 291.7 180.2 291.5 176
L 292 176
Q 292 175.5 292 175 292 167 292 159 294.2 149.2 295.9 139 296 138.5 296 138 295.5 138 295.45 137.85 293.85 132.15 294 125 294 124.5 293.9 124 290.05 105.45 280 93 279.5 93 279.1 92.8 273.2 89.8 266 83 265.5 83 265.05 83.1 261.6 83.9 262 81
M 185 74
Q 185.5 74 186 74 174 76.5 162.1 73.55 162 73.5 162 73 175.3 73.6 185 74
M 196 76.5
L 196 76
Q 212.4 76.5 196 76.5
M 154 72.5
L 154 72
Q 164.4 71.2 154 72.5
M 284 199
Q 287.05 211.3 284.1 199.95 284 199.5 284 199 Z" stroke="none" fill="#976132"></path>
</g>
</g>
</g>
</g>
</g>
</svg>
