<svg version="1.1" xmlns="http://www.w3.org/2000/svg" xmlns:xlink="http://www.w3.org/1999/xlink" width="169.83598" height="128.72633" viewBox="0,0,169.83598,128.72633"><g transform="translate(-244.33529,-123.11488)"><g data-paper-data="{&quot;isPaintingLayer&quot;:true}" fill-rule="nonzero" stroke="none" stroke-width="0.5" stroke-linecap="butt" stroke-linejoin="miter" stroke-miterlimit="10" stroke-dasharray="" stroke-dashoffset="0" style="mix-blend-mode: normal"><path d="M268.12498,189.84317c-0.00893,-0.01 -0.01784,-0.02005 -0.02673,-0.03014c-1.94963,-2.21377 -2.81178,-4.65453 -3.24359,-7.27901c-0.62267,1.43203 -1.14267,2.95301 -1.80037,4.35587c-1.74993,3.7326 -4.79455,8.25695 -5.88469,12.32726c-0.19122,0.71398 0.18064,1.48656 0.23961,2.23417c0.12207,1.54751 0.20769,3.09895 0.30785,4.64883c0.15808,-0.15534 0.32237,-0.30208 0.49359,-0.43913c0.42072,-0.33676 7.45488,-3.51926 8.2019,-3.8607c0.0526,-0.02404 0.1052,-0.04808 0.1578,-0.07212c0.2943,-1.90606 0.5667,-3.58591 0.6355,-3.74462c0.07324,-0.16896 0.86924,-1.2739 1.85298,-2.61239c-0.01969,-0.77235 -0.04095,-1.62408 -0.0611,-2.46895c-0.31973,-0.14287 -0.56043,-0.33458 -0.68829,-0.58779c-0.22474,-0.44505 -0.26055,-1.34736 -0.18445,-2.47126zM283.24498,191.80755c-0.02171,0.32914 -0.04209,0.65806 -0.05899,0.9865c1.96301,-0.34811 3.90424,-0.92984 5.86331,-1.32206c1.53238,-0.30679 3.06333,-0.59848 4.59099,-0.89912c2.00676,-0.57338 4.02135,-1.06357 6.03326,-1.44902c0.00456,-0.02267 0.00907,-0.04533 0.01353,-0.06801c0.04624,-0.23528 0.08666,-0.47374 0.12363,-0.71412c-1.80612,0.38854 -7.52748,1.58437 -7.75416,1.63187c-2.9446,0.61706 -5.87238,1.2738 -8.81158,1.83396zM331.34264,143.64321c1.4636,-1.08617 2.92889,-2.1688 4.42211,-3.1927c0.94224,-0.64608 2.26859,-0.73532 2.87773,-1.82366c-3.02719,0.81813 -6.07091,1.64638 -9.03635,2.72643c0.42802,0.60393 0.84304,1.22893 1.29646,1.78343c0.14144,0.17296 0.28903,0.34105 0.44004,0.50649zM270.9138,212.39668c-0.52097,0.35431 -1.04194,0.70864 -1.56288,1.063c0.23776,0.39945 0.54609,0.77271 0.73412,1.19777c0.20305,0.45901 0.36523,0.95059 0.5266,1.44216c1.01099,0.21535 2.02174,0.43247 3.03249,0.64913c-0.14204,-0.25749 -0.28409,-0.51498 -0.42614,-0.77247c-0.6818,-1.23593 -1.55835,-2.37301 -2.30419,-3.57959zM283.37819,233.68394c-1.43379,0.36283 -2.85446,0.77098 -4.18828,1.48567c-1.34627,0.72136 -2.34736,2.15584 -3.45972,3.36189c1.36462,-0.00683 2.72925,-0.01366 4.09388,-0.0205c3.66677,-0.01836 7.31489,-0.09625 10.95198,-0.23368c-1.38796,-0.70713 -2.76397,-1.52161 -4.12985,-2.46908c-1.06826,-0.74103 -2.25928,-1.28223 -3.26802,-2.12431zM323.43089,230.53989c5.78295,0.01047 11.58931,0.0909 17.34621,-0.24231c0.54538,-0.64543 1.04641,-1.36389 1.62358,-1.96307c1.19072,-1.23612 4.66123,-3.65434 1.30854,-2.58477c-2.71898,-0.25891 -5.44734,-0.43247 -8.18054,-0.52239c-3.55175,1.7904 -7.25091,3.20015 -10.86428,4.75167c-0.4044,0.17365 -0.81606,0.36226 -1.23351,0.56087zM356.30369,174.35702c-0.03357,-0.24335 -0.0731,-0.48226 -0.1269,-0.7111c-0.05572,0.01678 -0.11143,0.03356 -0.16716,0.05035c-0.116,0.03494 -0.2322,0.06961 -0.34859,0.10403c0.01322,0.01213 0.02428,0.02231 0.0331,0.03047c0.19737,0.18233 0.40168,0.35638 0.60954,0.52625zM287.25491,209.61596c-3.19235,0.42183 -6.35259,0.54893 -9.64983,-0.28841c0.1858,0.52946 0.46201,1.06266 0.85097,1.60607c0.69976,1.16319 1.2134,2.53325 2.0993,3.48956c0.49009,0.52905 1.24417,0.49879 1.85661,0.78076c0.34084,0.15692 0.6812,0.30353 1.02124,0.44069c2.18255,-1.28884 4.43453,-2.85398 6.71251,-4.19398c-0.52888,-0.19094 -1.05222,-0.37422 -1.56842,-0.54516c-0.43086,-0.4357 -0.87402,-0.86355 -1.32238,-1.28953zM364.30241,177.88165c1.53117,-0.36586 3.06172,-0.75613 4.59026,-1.15335c0.13079,-1.56378 0.30828,-3.23865 -0.69674,-3.6972c-0.54778,-0.24993 -1.11388,-0.40863 -1.69043,-0.51636c-0.35693,1.36067 -0.69011,2.64528 -0.94094,3.8082c-0.42039,0.51089 -0.84097,1.03125 -1.26215,1.55871zM326.64232,144.62419c-0.29341,-0.41566 -0.61554,-0.78507 -1.01133,-1.03807c-0.18679,-0.1194 -0.39551,-0.21362 -0.62082,-0.28667c-1.0788,0.53294 -2.13933,1.11989 -3.17649,1.77386c0.06187,0.12738 0.12266,0.25674 0.18232,0.38796c0.94567,-0.1863 1.6379,-0.32212 1.74294,-0.34279c0.96603,-0.19012 1.92677,-0.35408 2.8834,-0.49429zM365.33891,221.84276c-0.2108,0.25531 -0.42679,0.50441 -0.64749,0.74769c-0.39873,1.06154 -0.86776,2.11508 -1.15224,3.18961c-0.09625,0.08129 -0.97977,0.8356 -2.0961,1.77839c4.04329,-0.77495 8.07698,-1.65149 12.10304,-2.56263c0.10833,-0.06498 0.2166,-0.12946 0.32482,-0.19343c3.17843,-1.87876 6.49945,-4.61157 8.5089,-8.33847c1.12096,-2.07902 0.86063,-4.86598 1.39258,-7.26779c0.28636,-1.29293 0.94057,-2.50868 0.94807,-3.84786c0.0033,-0.58911 -0.61258,-0.91147 -0.91887,-1.36721c-0.16909,-0.34925 -0.3109,-0.72763 -0.44952,-1.10941c-3.73512,2.4252 -7.42561,4.35822 -11.77265,5.45636c-0.02562,0.00647 -0.49155,0.07834 -1.19099,0.18476c-0.07279,0.24117 -0.13756,0.4802 -0.19009,0.71627c-0.02222,0.09985 -0.21726,0.79157 -0.49531,1.76223c1.79898,0.61863 3.85557,1.3146 4.2874,3.31942c0.51625,2.39674 -1.54985,4.85057 -3.16603,6.35383c-1.29191,1.20164 -3.1948,0.73003 -4.79805,1.05379c0,0 -0.26023,0.04711 -0.68747,0.12445zM310.17806,234.99669c-3.28478,0.20582 -6.6986,0.01904 -9.95491,-0.03634c0.55008,0.39723 1.13788,0.74418 1.65416,1.19104c0.36774,0.31829 0.70957,0.69148 1.05238,1.06157c0.4431,0.0966 0.88795,0.18933 1.33468,0.27902c5.52338,-0.43463 11.04307,-1.00769 16.58609,-1.71913c-2.44367,0.08502 -4.87898,0.08852 -7.25438,-0.15267c-1.39747,-0.1419 -2.4644,-0.34575 -3.41802,-0.62349zM375.26502,229.54171c-4.71659,2.88296 -9.60018,6.55955 -14.5535,8.66325c-3.82731,1.62549 -8.29622,2.22845 -12.25978,3.2843c-5.1063,1.36026 -10.40627,3.41966 -15.59753,4.14377c-4.12007,0.57469 -8.50273,0.29866 -12.64911,0.43203c-1.91068,-0.2871 -3.82237,-0.56792 -5.73369,-0.85259c-13.6162,3.37081 -27.60638,5.26743 -41.24947,5.92433c-2.73268,0.13158 -5.46453,0.29168 -8.19802,0.39473c-1.38091,0.05206 -2.81902,0.59172 -4.14367,0.11336c-1.59623,-0.57643 -3.57228,-1.31167 -4.27249,-3.15263c-0.81503,-2.14286 -0.22506,-4.82816 0.38425,-7.07028c0.48738,-1.79343 1.83967,-3.04135 2.77345,-4.54929c1.43562,-2.31835 2.73458,-4.40587 4.1711,-6.34673c-2.60463,0.03572 -5.21596,0.02477 -7.83539,0.00604c-2.31988,-0.01658 -6.91787,1.14422 -7.68145,-3.47677c-1.33391,-0.11475 -2.85944,-0.01468 -3.51164,-1.2868c-2.20338,-4.29765 2.54371,-7.72611 4.21703,-9.45552c0.74034,-0.76516 1.40314,-1.67739 2.25342,-2.24805c0.08691,-0.05833 1.1315,-0.57242 2.43594,-1.20804c0.06147,-0.11046 0.11971,-0.22085 0.17406,-0.33118c0.0295,-0.05989 0.05891,-0.12002 0.08824,-0.18036c-0.45665,-1.7376 -0.25596,-3.68107 -0.42672,-5.50821c-0.19187,-2.89986 -1.1542,-5.91546 -0.48436,-8.70782c0.14248,-0.59395 3.88998,-8.5221 4.29164,-9.37882c1.76854,-3.77227 3.37922,-8.83781 5.72028,-12.12945c0.18315,-0.25752 0.3785,-0.52355 0.58446,-0.79622c-1.78092,-5.66974 0.0676,-11.0039 1.50075,-16.868c0.43886,-1.79571 0.56444,-3.7627 1.34551,-5.37651c0.78108,-1.61381 2.14002,-2.69058 3.21003,-4.03586c5.54495,-6.78006 11.32329,-14.80635 18.79736,-18.52462c0.22924,-0.11405 7.8338,-2.47684 8.25597,-2.60857c3.95957,-1.23549 8.07657,-2.99281 12.11162,-3.76768c4.03505,-0.77486 8.39592,-0.64559 12.47534,-0.95385c5.19519,-0.39258 10.02923,-1.06817 15.17629,-0.00124c2.94132,0.6097 5.10589,0.6696 6.60833,4.58093c2.50996,0.22319 4.97605,0.67736 7.29484,1.56664c1.06777,-0.26845 2.13407,-0.49746 3.19642,-0.66892c4.06344,-0.65584 8.38997,-0.47902 12.48655,-0.70746c5.62048,-0.31342 11.10284,-0.88345 16.70078,-0.08848c2.45069,0.34803 5.01463,0.11418 7.34715,1.09441c3.73631,1.57015 7.75716,4.87429 11.21125,7.23877c0.88445,0.60545 2.04035,0.88618 2.6085,1.91046c0.91258,1.64523 1.07873,3.74842 1.57877,5.63853c0.88851,3.35855 2.24008,7.61862 1.32784,11.2664c-0.46528,1.86051 -1.84664,3.17297 -2.79186,4.74007c-0.16646,0.27598 -1.36174,2.20899 -2.5765,4.15446c0.08256,0.23908 0.14264,0.48406 0.17016,0.73735c1.85186,3.32373 1.74007,7.56846 1.99618,11.65189c-1.78315,2.8352 -3.66992,6.38656 -5.72305,9.59831c-1.01111,2.0841 -2.06199,4.10309 -2.83906,5.86279c-0.49578,1.12271 -0.76048,2.47491 -1.52836,3.34075c-0.03803,0.04288 -0.15064,0.1355 -0.32194,0.26709c2.58861,0.03153 5.12403,0.21456 7.82161,0.81204c2.69005,0.59581 5.36535,1.61187 7.7737,3.1894c1.56275,1.02364 3.86507,1.30193 4.59552,3.27255c2.66922,7.20102 -4.23932,10.98691 -7.67248,14.18566c-1.16305,1.08364 -2.21998,2.36487 -3.49516,3.2413c-3.48376,2.39438 -7.93874,3.79986 -11.67376,5.56297c-5.17439,1.17097 -10.32293,2.32736 -15.46535,3.40537zM391.08877,149.69094c2.1466,1.30539 4.47686,2.75452 4.59163,2.88419c0.16843,0.19029 2.45053,4.8242 3.72448,7.44321c0.48329,-0.95222 0.96882,-1.90322 1.52582,-2.77308c0.70153,-1.09553 1.79077,-1.921 2.15464,-3.23805c0.58275,-2.10932 -0.94339,-6.59382 -1.34036,-8.29032c-0.30374,-1.29811 -0.26603,-2.75657 -0.82278,-3.92346c-0.24812,-0.52002 -0.93061,-0.40916 -1.3724,-0.67734c-1.224,-0.74301 -2.41307,-1.56863 -3.61959,-2.35294c-2.30118,-1.4959 -4.42724,-3.4685 -6.88672,-4.52593c-2.08756,-0.89753 -4.40136,-0.58347 -6.59968,-0.90014c-5.36591,-0.77296 -10.64419,-0.18332 -16.03526,0.11732c-3.27101,0.18241 -6.69666,0.08636 -10.00453,0.40034c0.43685,0.51845 0.86814,1.04662 1.32706,1.52653c0.3412,0.36402 3.3018,3.47183 5.01429,5.42298c1.71524,0.00221 3.41514,0.07497 5.07587,0.25826c0.12869,0.0142 8.01122,1.824 8.25716,1.88035c2.68773,0.61583 5.38161,1.193 8.06318,1.8475c1.18979,0.2904 2.50948,0.18789 3.55953,0.92904c1.35586,0.957 2.26908,2.63405 3.38767,3.97154zM356.76169,141.01842c-0.57855,-0.62346 -1.15147,-1.25498 -1.7325,-1.87489c-0.91199,-0.99725 -1.66632,-2.26352 -2.73599,-2.99176c-0.62138,-0.42304 -1.26475,-0.78579 -1.92585,-1.09672c-2.40648,0.71684 -4.81519,1.62491 -7.15051,2.30518c-0.12667,0.0369 -0.25345,0.07359 -0.38034,0.11011c-0.08997,1.41491 -0.16886,2.83554 -0.80293,3.97013c-0.27343,0.48927 -0.62394,0.88346 -1.01821,1.22328c0.92442,-0.37696 1.58655,-0.64376 1.6381,-0.65589c0.17867,-0.04203 8.1198,-0.57264 8.46671,-0.5961c1.84376,-0.12466 3.73511,-0.27394 5.64152,-0.39333zM376.5612,179.8519c-0.25621,0.82013 -0.51392,1.66545 -0.77784,2.51841c0.0013,-0.00042 0.0026,-0.00083 0.00391,-0.00125c2.55764,-0.81726 4.88511,-2.46805 7.3311,-3.69185c2.23259,-1.11702 8.33094,-2.71719 9.55304,-6.47727c-4.10125,2.27028 -8.22135,4.49342 -12.3369,6.7235c-1.25368,0.29371 -2.51178,0.60612 -3.77332,0.92846zM339.37374,133.32933c0.01217,-0.03731 0.02429,-0.07462 0.03635,-0.11193c-1.94901,-0.00682 -3.86969,0.0469 -5.68156,0.00078c-5.34476,-0.13604 -10.904,-0.81888 -16.23733,-0.42168c-4.49722,0.33493 -9.07717,1.45593 -13.5752,2.35568c1.68135,0.26791 3.16882,0.50782 3.34091,0.53674c1.50864,0.25354 3.09717,0.13715 4.5224,0.79129c1.14537,0.5257 2.10072,1.51023 3.09148,2.4072c3.19972,-0.63341 6.82496,-1.32286 9.85609,-0.76331c4.37746,-1.93597 8.98266,-3.13523 13.54658,-4.46469c0.36581,-0.10656 0.73261,-0.21685 1.10029,-0.33009zM371.64954,194.02188c-0.02954,0.19059 -0.05648,0.38267 -0.08227,0.57549c1.45625,-0.01905 2.91251,-0.03637 4.36876,-0.05013c1.9348,-0.01828 3.88941,-0.22007 5.75365,0.30675c3.05619,-2.0099 6.56032,-3.91816 9.21188,-6.44236c1.00677,-0.95842 1.94244,-2.14114 2.83732,-3.43326c0.79549,-1.73445 1.77222,-3.37923 2.51983,-5.13515c-1.67747,1.72308 -5.85072,5.76101 -6.28678,6.18597c-3.97044,1.73959 -7.9492,3.44794 -11.92918,5.15478c-2.13719,0.91655 -4.2012,2.16639 -6.3932,2.83791zM306.03236,175.83097c-0.05533,-0.17043 -0.1084,-0.34163 -0.15851,-0.51384c-0.43004,0.08643 -0.85921,0.17203 -1.28732,0.25553c-2.01856,0.97424 -4.06807,1.87831 -5.97728,2.86679c-3.34316,1.7309 -6.90716,3.63313 -10.5634,4.91893c-0.5736,0.80659 -1.14544,1.59605 -1.72016,2.34752c-0.16261,0.21262 -0.32932,0.42144 -0.49901,0.62748c3.19869,-0.69522 6.39153,-1.47256 9.57768,-2.13471c2.20694,-0.45865 4.31511,-1.19404 6.38409,-2.07057c0.79751,-0.91245 1.77962,-1.63894 2.60094,-2.524c0.22296,-0.24026 0.4464,-0.47986 0.67024,-0.71889c0.01958,-0.14885 0.0412,-0.29976 0.06493,-0.45284c0.01831,-0.1181 0.40124,-1.20004 0.90779,-2.60141zM363.42774,166.31126c0.09712,-0.4864 0.19538,-0.97246 0.29492,-1.45812c0.34583,-1.68743 1.29782,-4.56551 0.90493,-6.76402c-1.08063,-0.20481 -2.1555,-0.4135 -3.22019,-0.63574c-0.30756,0.33351 -0.60914,0.67128 -0.88432,1.02901c-1.87051,2.43172 -3.79989,4.79517 -5.70552,7.18602c-0.23609,0.29621 -0.47534,0.5864 -0.71761,0.87081c0.33604,0.17243 0.67534,0.34751 1.00918,0.52106c1.56914,-0.44724 2.89607,-0.81774 3.00282,-0.82255c1.18272,-0.0533 2.34627,0.31329 3.51265,0.60851c0.45664,-0.13221 0.91196,-0.26639 1.36569,-0.40306c0.14569,-0.04388 0.2915,-0.08787 0.43746,-0.13194zM383.44479,222.71949c2.05658,-0.47271 4.11159,-0.94007 6.16529,-1.39309c3.4475,-1.65084 7.56144,-2.89682 10.77912,-5.10833c2.29811,-1.57949 4.13987,-3.98972 6.26393,-5.89712c0.89541,-0.80407 2.02534,-1.28607 2.73436,-2.33049c0.45392,-0.66864 0.97955,-1.81795 0.55459,-2.5143c-0.57931,-0.94928 -1.87134,-0.65069 -2.76604,-1.10946c-3.56584,-1.82843 -6.58429,-3.22707 -10.54067,-3.6183c-3.25647,-0.32202 -6.5169,-0.38434 -9.77592,-0.25909c-0.0017,0.00118 -0.0034,0.00236 -0.00509,0.00354c0.12629,0.26967 0.25767,0.53334 0.39863,0.7857c0.50468,1.08289 1.44544,2.00607 1.51403,3.24866c0.10999,1.99248 -0.64931,3.91515 -1.01105,5.86286c-0.52967,2.85195 -0.51391,6.01964 -1.78799,8.49731c-0.71259,1.38577 -1.56891,2.66162 -2.52319,3.83211zM292.75084,232.19243c-0.44726,-0.30087 -0.87405,-0.63888 -1.27103,-1.03071c-0.71059,0.24877 -1.42004,0.49949 -2.12799,0.74591c1.02024,0.65437 2.04347,1.2349 3.07137,1.75334c0.05686,-0.52169 0.13707,-0.95082 0.23698,-1.22966c0.02888,-0.08059 0.05913,-0.16019 0.09066,-0.23888zM280.31715,229.31584c-3.45407,0.54143 -6.91472,0.85285 -10.38535,1.02733c-2.57456,2.79915 -4.62635,6.01905 -6.9132,9.57547c-0.61677,0.95918 -3.38533,4.1393 -2.78079,6.24474c0.1795,0.62514 1.01028,0.56247 1.5525,0.6061c1.02366,0.08236 2.04703,-0.17241 3.07168,-0.23405c2.73148,-0.16434 5.46535,-0.26315 8.19802,-0.39473c8.95965,-0.4314 17.86155,-1.55755 26.69654,-3.2256c-0.10434,-0.02446 -0.20746,-0.04864 -0.30904,-0.07247c-6.50519,0.41258 -13.02656,0.63539 -19.6066,0.66833c-2.73479,0.01369 -5.46956,0.02738 -8.20435,0.04107l-2.23926,0.01121c-0.00328,0.00002 -0.00657,0.00003 -0.00985,0.00003c-1.13279,0 -2.0511,-1.11929 -2.0511,-2.5c0,-0.82831 0.3305,-1.56254 0.83954,-2.01746l3.26267,-2.98254l0.05932,0.09641c1.76337,-2.24735 3.72124,-4.29677 5.90473,-5.49055c0.92881,-0.50781 1.90575,-0.95331 2.91454,-1.35329zM363.62952,216.6556c0.11261,-0.18386 0.22184,-0.37112 0.32749,-0.56192c0.1134,-0.20479 0.2077,-0.4209 0.28835,-0.64512c-0.05222,-0.0011 -0.10445,-0.00225 -0.15667,-0.00345c-0.60188,-0.01382 -1.19713,-0.02911 -1.78762,-0.04311c-0.03535,0.03293 -0.05788,0.05295 -0.0662,0.05864c-0.04078,0.02795 -0.08163,0.05576 -0.12255,0.08343c0.13271,0.10839 0.2651,0.2195 0.39719,0.3334c0.32671,0.28172 0.72484,0.52617 1.12,0.77814zM327.38018,177.68371c0.52807,-0.24992 1.05624,-0.49903 1.58472,-0.74654c-1.07508,-0.48644 -2.14212,-0.99941 -3.21198,-1.50274c-0.75011,-0.35289 -1.50727,-0.64278 -2.27028,-0.87741c-0.63071,0.75413 -1.28479,1.53448 -1.85503,2.21122c0.66097,0.59948 1.33616,1.16516 2.05396,1.63254c0.98284,-0.16194 1.94074,-0.33091 2.84771,-0.5319c0.2842,-0.06298 0.56783,-0.12471 0.85091,-0.18516zM272.59362,157.39681c-1.0387,2.71734 -2.1112,5.41542 -3.16379,8.12485c-0.52931,1.29087 -1.38733,2.45036 -1.58792,3.87261c-0.0767,0.54388 -0.0503,1.0904 0.01894,1.6382c1.61939,-1.70441 3.30238,-3.27959 4.72102,-4.33905c1.58921,-1.18685 3.33092,-2.21092 5.13432,-3.15037c0.1574,-0.28917 0.31777,-0.57637 0.48103,-0.86156c-1.27474,-0.40262 -2.44933,-1.02866 -3.45424,-1.95531c-1.10938,-1.02298 -1.78114,-2.14321 -2.14937,-3.32936zM318.88661,163.80007c2.77134,-0.2307 5.50128,-0.22339 8.23184,-0.02754c0.64347,-0.74292 1.22495,-1.54547 1.67548,-2.47461c0.14713,-0.30343 0.27697,-0.61574 0.39275,-0.93529c-2.23933,-0.04275 -4.47886,-0.10261 -6.71797,-0.16956c-0.85213,1.48509 -2.33122,2.31446 -3.47231,3.49734c-0.03658,0.03638 -0.07317,0.07294 -0.10978,0.10966zM316.62197,213.51811c1.31023,-0.28331 2.62207,-0.55559 3.93339,-0.79594c0.93075,-0.34761 1.85988,-0.69124 2.78726,-1.02247c0.15694,-0.18308 0.3137,-0.36646 0.4705,-0.54979c-0.15633,-0.09106 -0.31265,-0.18214 -0.46896,-0.27325c-2.20442,0.87471 -4.82618,1.89752 -5.11526,2.01095c-0.53564,0.21017 -1.07128,0.42034 -1.60692,0.63051zM333.63085,173.54934c0.31751,-0.2347 0.63502,-0.46939 0.95253,-0.70409c-2.50373,-0.70647 -5.0042,-1.43297 -7.50609,-2.14602c1.89369,0.87389 3.77636,1.74943 3.96959,1.84312c0.82635,0.40068 1.73381,0.64731 2.58396,1.00698zM276.24923,184.47731c-0.3605,-0.03731 -0.72291,-0.07493 -1.07673,-0.11178c-0.64072,1.09255 -1.31123,2.3098 -1.78434,3.45763c0.0877,0.05131 0.17502,0.10331 0.26174,0.15638c0.04343,-0.00756 0.08688,-0.01483 0.13038,-0.02183c0.077,-0.13888 0.15494,-0.27677 0.23378,-0.41364c0.69993,-1.2151 1.44429,-2.21056 2.23516,-3.06676zM308.18077,150.8341c1.49801,-0.98802 3.02269,-1.98023 4.54817,-2.80517c0.68372,-1.11688 1.3449,-2.26525 2.12285,-3.25539c-0.19941,-0.19295 -0.39816,-0.38723 -0.59714,-0.58084c-0.92649,0.11754 -1.85302,0.23454 -2.77957,0.3514c-8.55855,1.07942 -17.56268,5.96622 -24.29767,13.32698c1.04917,-0.15407 2.0855,-0.34328 3.08267,-0.53435c3.02037,-1.73803 6.16525,-3.70614 9.24832,-4.74602c2.73278,-0.92172 5.69775,-1.39054 8.67236,-1.7566zM378.61455,174.26503c0.16337,-0.03754 0.32669,-0.07472 0.48995,-0.11153c3.39199,-1.88227 6.79268,-3.74067 10.19202,-5.60313c0.72814,-0.39894 1.49114,-0.72636 2.25723,-1.04687c-0.20467,-0.21342 -0.42875,-0.41565 -0.66813,-0.60771c-3.77139,-0.11997 -7.23313,-0.21167 -11.01637,0.50989c-0.47476,0.09055 -0.9486,0.18389 -1.42159,0.27987c0.32407,1.41389 0.88563,2.81946 0.74566,4.26292c-0.07835,0.80804 -0.30106,1.57106 -0.57877,2.31657zM374.30509,154.8497c2.38904,0.52235 4.74338,1.14068 7.00732,1.9557c0.12281,0.04421 7.5388,3.80796 7.78153,3.93342c0.67383,0.34829 1.35676,0.66016 2.0246,0.98448c1.0427,0.06348 2.08046,0.13838 3.10183,0.21071c-0.17597,-0.69772 -0.35091,-1.39581 -0.52508,-2.09418c-2.01705,-2.3817 -3.25562,-3.81505 -5.17144,-6.19542c-0.69623,-0.49692 -1.39163,-0.99421 -2.16094,-1.26446c-3.55542,-1.24897 -8.19673,-0.98446 -11.88362,-1.44522c-3.29578,-0.41188 -6.7378,-1.16246 -10.0925,-1.42508c1.49498,0.31607 3.07843,0.25609 4.48397,0.95229c1.40808,0.69745 2.52739,2.0597 3.76464,3.1357c0.52205,0.45401 1.10916,0.83716 1.66968,1.25206zM360.7003,175.3403c0.43341,-0.51348 0.86908,-1.01773 1.30806,-1.50976c0.10565,-0.58702 0.21218,-1.17382 0.31978,-1.76034c-0.13865,-0.02212 -0.27683,-0.04677 -0.41443,-0.07451c-0.04335,-0.00874 -0.08655,-0.01728 -0.12957,-0.02562c-0.60608,0.17845 -1.21234,0.35824 -1.81897,0.53902c0.15976,0.72857 0.30791,1.46463 0.5149,2.15125c0.06857,0.22748 0.14278,0.45397 0.22022,0.67996zM348.05279,163.38395c0.7453,-0.52807 1.44367,-1.12886 2.04461,-1.88151c0.62919,-0.78802 0.69055,-2.03246 1.07093,-3.02952c0.03163,-0.08291 0.59084,-1.22425 1.10871,-2.57024c-2.74575,-0.30187 -5.50149,-0.46969 -8.26311,-0.5499c1.45736,1.95482 1.38411,3.8817 1.6059,7.11684c0.18299,0.03382 0.36538,0.07507 0.54707,0.12472c0.65038,0.17771 1.273,0.46465 1.88588,0.78961zM365.37161,183.94877c-0.18987,-0.27335 -0.40062,-0.51952 -0.64687,-0.72002c-0.12337,-0.10045 -0.25256,-0.18463 -0.38634,-0.25599c-0.94231,0.21875 -1.88472,0.42748 -2.82681,0.62264c0.1114,0.28642 0.22812,0.57183 0.3392,0.85831c0.64962,-0.09757 1.31134,-0.20041 1.99119,-0.30308c0.50104,-0.07566 1.01185,-0.14165 1.52963,-0.20187zM365.09303,189.02578c-1.05907,0.17071 -2.11164,0.33723 -3.16212,0.48403c-0.07139,0.22945 -0.14733,0.45794 -0.22534,0.68595c0.92231,-0.04247 1.85188,-0.08293 2.77829,-0.14003c0.05022,-0.08293 0.10001,-0.16617 0.14937,-0.24972c0.15351,-0.25985 0.30668,-0.52001 0.45979,-0.78023zM374.4011,168.57173c-1.12055,0.26245 -2.23757,0.53741 -3.35214,0.82276c1.62134,1.68032 1.78214,3.9141 1.82443,6.29362c0.22775,-0.0592 0.45544,-0.11822 0.68304,-0.17699c0.02378,-0.06505 0.04764,-0.12977 0.07162,-0.19414c0.47483,-1.2748 1.32597,-2.40642 1.47794,-3.79414c0.11122,-1.01562 -0.4664,-1.96316 -0.7049,-2.95112zM334.20339,155.91064c-0.00251,0.01138 -0.00502,0.02278 -0.00753,0.0342c1.85249,0.79821 5.60052,2.41922 6.90848,3.03978c-0.30319,-0.60635 -0.80194,-1.15492 -1.62303,-1.65935c-1.613,-0.99092 -3.45545,-1.16295 -5.27792,-1.41464zM255.46653,222.82457c1.64658,0.12318 3.24709,0.15574 4.86534,0.14164c-0.8562,-0.14484 -1.80719,-0.46397 -3.30731,-1.10035c-0.17671,0.11823 -0.35355,0.23616 -0.53056,0.35373c-0.32261,0.21429 -0.67171,0.40877 -1.02746,0.60498zM276.74208,151.3526c-0.30729,1.24947 -0.60562,2.49622 -0.55194,3.78059c0.07829,1.87314 3.48473,2.7712 3.99437,2.86218c0.322,0.05748 0.64908,0.1029 0.9803,0.13746c6.44787,-8.74252 15.67789,-15.03154 25.00578,-17.57756c-2.4186,-0.42873 -4.81584,-1.2155 -7.25671,-1.19328c-4.0404,0.03679 -9.87879,2.13427 -13.49806,4.30948c-2.05872,1.2373 -3.65669,3.38308 -5.49299,5.06173c-1.01886,0.93138 -2.11686,1.75204 -3.18074,2.6194zM280.57335,179.88057c0.30916,-1.22628 0.59324,-2.47125 1.16058,-3.51911c-1.00054,0.45087 -1.99273,0.92259 -2.94762,1.48795c-0.35882,0.62835 -0.70268,1.26126 -1.03163,1.88993c0.77255,0.08907 1.54619,0.1492 2.32225,0.14925c0.16542,0.00001 0.33089,-0.00269 0.49642,-0.00801zM270.768,179.25364c0.56669,-0.66148 1.12496,-1.33838 1.69544,-1.99453c0.63519,-2.02559 1.27395,-4.08117 1.969,-6.07913c-1.82461,1.4223 -4.01036,3.64111 -5.84738,5.78932c0.17876,0.81154 0.36722,1.60828 0.89696,2.07076c0.36553,0.31912 0.81527,0.30293 1.28598,0.21357zM355.75984,223.80309c0.02259,-0.09121 0.0452,-0.18241 0.0678,-0.27362c-2.18194,0.32505 -4.37937,0.55159 -6.58514,0.70867c0.35187,1.52526 -0.03398,2.81009 -0.73578,3.94991c0.96152,-0.63207 1.91332,-1.24849 2.85176,-1.80783c1.39493,-0.83143 2.90292,-1.66198 4.40136,-2.57713zM362.28752,232.05804c-1.84887,0.3237 -3.69911,0.63035 -5.55161,0.917c-0.82967,0.80026 -1.76612,1.52024 -2.75818,2.16773c1.85549,-0.43434 3.68783,-0.93901 5.38398,-1.65938c0.97998,-0.4162 1.95521,-0.89822 2.9258,-1.42535zM387.97644,181.65854c-0.01213,0.00632 -0.02427,0.01266 -0.03641,0.019c0.00998,-0.00417 0.01998,-0.00835 0.02996,-0.01252c0.00215,-0.00216 0.0043,-0.00432 0.00645,-0.00647zM318.43817,173.88758c0.05224,-0.04955 0.10411,-0.09966 0.15563,-0.1503c-0.12387,-0.00574 -0.24781,-0.01051 -0.37185,-0.01434c0.0248,0.01724 0.04922,0.03502 0.07319,0.05342c0.04783,0.03673 0.09551,0.0738 0.14304,0.11121zM368.40971,215.45392c-0.10506,0.35855 -0.20708,0.70553 -0.30346,1.03194c0.21273,-0.03389 0.4245,-0.07551 0.63486,-0.12855c0.46559,-0.11739 1.66837,-0.39769 1.28837,-0.74598c-0.43774,-0.40121 -1.03775,-0.25264 -1.61977,-0.15741zM306.00265,187.44951c-0.1434,-0.52549 -0.28099,-1.03293 -0.40728,-1.53221c-0.47866,0.2435 -0.9582,0.48194 -1.43837,0.71217c-0.14423,0.4722 -0.21186,0.98065 -0.25933,1.49916c0.3521,-0.10846 0.70379,-0.22038 1.05505,-0.33607c0.34912,-0.11469 0.69915,-0.22897 1.04993,-0.34306zM316.57446,228.53692c-0.3289,-1.14343 0.28801,-2.2463 0.28801,-2.2463l0.02628,-0.04673c-2.5888,1.28791 -5.17101,2.581 -7.76423,3.78417c1.38808,-0.04645 2.75978,-0.1602 4.09537,-0.40318c1.08644,-0.19766 2.21606,-0.59548 3.35457,-1.08795zM323.00307,225.39364c-0.11304,0.00666 -0.22608,0.01346 -0.33911,0.02039c-0.05465,0.06981 -0.10925,0.13968 -0.16381,0.2096c0.16899,-0.07912 0.33668,-0.15593 0.50292,-0.23zM310.2409,183.4828c-0.28896,0.14938 -0.57858,0.30073 -0.8688,0.45332c0.03242,0.14675 0.06639,0.29314 0.10163,0.4392l0.88448,-0.72927c-0.03909,-0.05438 -0.0782,-0.10881 -0.11731,-0.16325zM337.66108,162.8882c-1.38107,-0.79113 -2.84206,-1.40367 -4.5416,-2.15608c-0.34754,1.50002 -0.64497,2.7153 -0.76949,3.05053c1.74312,-0.41994 3.50479,-0.74061 5.31109,-0.89445zM319.00304,192.58084c-1.49489,1.02187 -2.95742,2.1034 -4.36568,3.27359c2.9659,-1.1212 5.93182,-2.2424 8.89772,-3.3636c-1.5064,0.03355 -3.0184,0.05954 -4.53204,0.09001zM300.27,228.59085c-0.37666,0.49262 -0.76363,0.97661 -1.1455,1.46444c1.91126,-0.11287 3.88415,-0.06366 5.86315,-0.02683c0.31036,-0.71766 0.62005,-1.43602 0.96454,-2.1192c-1.6846,0.25858 -3.37576,0.41986 -5.07943,0.54866c-0.201,0.04389 -0.40192,0.0882 -0.60276,0.13293zM295.372,215.62276c0.56371,-0.11593 1.12632,-0.23883 1.68773,-0.3692c0.18432,-0.37346 0.36781,-0.7559 0.5509,-1.1457c-0.2466,-0.0736 -0.49354,-0.15 -0.74068,-0.22876c-0.49107,0.58883 -1.00182,1.1603 -1.49795,1.74366zM373.75249,163.35653c-0.16375,-1.29794 -0.4192,-2.54799 -0.96919,-3.65052c-1.33672,-0.30385 -2.68148,-0.5767 -4.02598,-0.83678c0.09721,1.90653 -0.10731,3.93963 -0.46197,5.98119c1.80764,-0.52997 3.62889,-1.03992 5.45713,-1.49389zM280.50187,167.51727c-0.1429,0.28573 -0.28264,0.5759 -0.41946,0.87007c0.40566,-0.44786 0.82183,-0.8746 1.24861,-1.27613c-0.2773,0.13383 -0.55381,0.26909 -0.82915,0.40605zM274.56833,198.07255c0.20584,-0.09408 0.41167,-0.18817 0.61751,-0.28225c-0.19147,-0.00327 -0.37719,-0.00677 -0.55756,-0.0118c-0.0202,0.09841 -0.04018,0.19644 -0.05995,0.29405zM313.35007,176.77053c0.23779,-0.09178 0.47527,-0.18428 0.71178,-0.27903c-0.0867,-0.08545 -0.16958,-0.17549 -0.24765,-0.2713c-0.15172,0.18873 -0.30549,0.37382 -0.46414,0.55032zM369.21656,182.05725c0.01088,-0.09771 0.01788,-0.19584 0.02152,-0.29436c-0.05604,0.01446 -0.11208,0.02891 -0.16813,0.04334c0.04896,0.08359 0.0978,0.16731 0.14661,0.25101zM302.77736,194.84036c0.00239,0.31882 0.03205,0.63819 0.09751,0.95923c1.66075,0.03266 3.32815,0.08238 4.99715,0.12582c0.06144,-0.06602 0.12304,-0.13179 0.1848,-0.1973c-0.20326,-0.76051 -0.39067,-1.53151 -0.57337,-2.30737c-1.57011,0.46791 -3.13887,0.94446 -4.7061,1.41963zM377.04515,160.81274c0.11899,0.56401 0.24057,1.14761 0.35953,1.72346c1.03969,-0.2061 2.0802,-0.38655 3.12034,-0.53479c-1.14229,-0.4457 -2.30424,-0.83753 -3.47985,-1.18867zM357.09644,218.27981c0.00686,-0.02855 0.01372,-0.0571 0.02057,-0.08565c-0.11901,0.04902 -0.23827,0.09733 -0.35777,0.14494c0.11245,-0.01947 0.22485,-0.03923 0.3372,-0.05929zM374.30383,187.60636c-0.09758,0.01496 -0.19662,0.03012 -0.29683,0.04545c-0.01638,0.04267 -0.0328,0.08526 -0.04927,0.12777c0.11541,-0.05753 0.23076,-0.11534 0.3461,-0.17322z" fill="#000000"/><path d="M295.12477,190.95626c-0.9848,-2.06156 1.31306,-2.94509 1.31306,-2.94509l1.05977,-0.36669c3.95691,-2.36422 6.69305,-4.11745 9.63728,-7.55712c0,0 1.52428,-1.77779 3.50584,-0.41026c1.98156,1.36753 0.45728,3.14532 0.45728,3.14532c-2.02936,2.36317 -4.0328,4.08414 -6.30855,5.67691c9.71595,13.32245 27.03236,16.79435 43.76056,13.79275c7.66588,-1.0966 12.8881,-6.5679 17.80374,-11.47165l0.02771,-0.21946c-2.12786,-2.99895 -1.63346,-7.08115 -0.29402,-10.32592c0,0 0.89745,-2.09341 3.23081,-1.28826c2.33336,0.80516 1.43592,2.89857 1.43592,2.89857c-1.70406,3.78034 -1.02625,6.73027 3.46884,7.933l0.46234,-0.1151c0,0 2.5,0 2.5,2.24291c0,2.24291 -2.5,2.24291 -2.5,2.24291l-2.04348,-0.1151c-0.77788,-0.2494 -1.60942,-0.40164 -2.39358,-0.63968l-0.17807,0.38698c-5.75063,5.72808 -11.74541,11.50887 -20.6188,12.88311c-9.52747,1.70955 -20.91339,2.03918 -30.05037,-1.45863c-7.41076,-2.83698 -14.1623,-8.12148 -18.67413,-14.14269c-0.15053,0.09075 -0.30245,0.18199 -0.45581,0.27382l-1.86368,0.75738c0,0 -2.29786,0.88353 -3.28266,-1.17803z" fill="#ffffff"/></g></g></svg>