
<svg viewBox="0 0 128 127" height="127px" width="128px" y="0px" x="0px" preserveAspectRatio="none" xmlns:xlink="http://www.w3.org/1999/xlink" version="1.1" xmlns="http://www.w3.org/2000/svg">
<defs></defs>

<g id="Layer_1"></g>

<g id="Layer_2">
<g transform="matrix( 1, 0, 0, 1, 166.2,105.7)" id="Layer_1">
<g>
<g>
<g>
<path d="M -154.55 -71.45
Q -155.75 -70.55 -156.55 -69.3 -161.4130859375 -61.7505859375 -156.75 -54.15 -157.676953125 -54.6154296875 -158.65 -55 -159.75 -54.95 -160.2 -53.9 -161 -52.05 -159.95 -50 -158.7 -47.65 -157.75 -45.15 -157.7 -44.85 -157.6 -44.55 -157.15 -43.2 -156.55 -41.95 -156.525 -41.89453125 -156.5 -41.85 -156.0732421875 -40.9234375 -155.45 -40.05 -155.4181640625 -40.024609375 -155.4 -40 -155.448828125 -40.0244140625 -155.5 -40.05 -155.748828125 -40.1744140625 -156 -40.3 -156.95 -40.75 -157.95 -40.95 -159.65703125 -41.3341796875 -160 -40 -160.0353515625 -39.735546875 -160.05 -39.45 -160.085546875 -38.7033203125 -160 -38 -159.7412109375 -36.7099609375 -159 -35.55 -155.25 -29.55 -150.1 -24.65 -148.3712890625 -22.9693359375 -146.85 -21.15 -146.76328125 -21.0751953125 -146.7 -21 -145.3056640625 -19.315234375 -143.8 -19.1 -143.1498046875 -16.756640625 -142.3 -14.5 -140.612109375 -9.9072265625 -137.95 -5.85 -138.3 -5.0962890625 -138.3 -4.05 -138.25 -2.05 -138 -0.15 -136.8 8.65 -128.45 12.9 -126.85 13.75 -125.05 14 -120.55 14.65 -121.7 10.25 -121.6 10.1 -121.5 9.95 -121.35 9.7 -121.25 9.45 -121.15 9.3 -121.1 9.15 -120.4505859375 8.8302734375 -120 8.45 -118.545703125 9.2453125 -117 9.9 -115.25 10.9 -113.35 11.5 -111.5 12.1 -109.7 12.6 -96.55 16.2 -82.85 14.3 -73.8 13.1 -65.65 8.85 -64.3208984375 8.160546875 -63.1 7.4 -63.0677734375 7.842578125 -63 8.3 -62.6 10.55 -62.7 12.85 -62.75 13.5 -62.1 13.65 -57.05 14.95 -52.65 11.6 -49.25 9 -47.35 5.2 -44.694921875 0.0123046875 -46.5 -5.05 -42.0826171875 -9.70703125 -39.85 -15.8 -38.871484375 -18.4091796875 -38.4 -21.15 -38.21015625 -22.1904296875 -38.1 -23.25 -37.254296875 -31.4958984375 -39.5 -39.25 -39.895703125 -40.6427734375 -40.4 -42.05
L -40.4 -42.05
Q -40.853515625 -43.32734375 -41.35 -44.6 -43.571875 -50.0607421875 -46.75 -54.95 -48.15 -57.1 -49.8 -59.05 -55.0076171875 -65.071484375 -62.1 -68.35 -61.988671875 -68.961328125 -61.95 -69.6 -61.838671875 -71.625 -61.9 -73.65 -61.9224609375 -76.175 -62.2 -78.7 -62.85 -84.7 -65.35 -90.2 -66.85 -93.45 -69.9 -95.4 -78.35 -100.9 -88.8 -99.8 -100.6 -97.45 -111.85 -92.8 -124.35 -87.6 -136.8 -82.1 -144.6583984375 -78.6029296875 -151.6 -73.65 -153.0974609375 -72.58359375 -154.55 -71.45
M -84.2 -73.05
Q -99.1 -72.2 -113.2 -67.25 -121.8 -64.25 -129.05 -58.95 -138.132421875 -52.3076171875 -142.4 -42.2 -142.79453125 -41.2513671875 -143.15 -40.3 -143.200390625 -40.1388671875 -143.25 -40 -143.5025390625 -39.29921875 -143.75 -38.6 -145.7484375 -32.1232421875 -145.05 -25.45 -149.5193359375 -29.0953125 -152.8 -33.85 -151.95 -33.3 -150.55 -33.3 -148.9 -33.3 -148.85 -34.95 -148.7533203125 -36.7396484375 -149.8 -38.4 -149.8140625 -38.44453125 -149.85 -38.5 -150.368359375 -39.31328125 -150.85 -40.15 -151.3841796875 -41.0373046875 -151.9 -41.95 -153.4609375 -44.90234375 -154.65 -48 -154.25 -47.75 -153.95 -47.4 -153.6 -47.05 -153.15 -46.8 -153.129296875 -46.7775390625 -153.1 -46.75 -152.69765625 -46.3125 -152.3 -45.85 -152.0359375 -45.6029296875 -151.8 -45.35 -150 -43.5 -148.35 -45.2 -147.4 -46.15 -148.2 -47.15 -148.7251953125 -47.8171875 -149.3 -48.45 -149.5091796875 -49.6130859375 -150.3 -50.75 -153.75 -55.65 -155.05 -61.45 -155.45 -63.35 -154.45 -64.95 -150.9154296875 -70.3951171875 -145 -73.65 -144.7318359375 -73.80234375 -144.45 -73.95 -133.4 -79.8 -121.85 -84.75 -109.65 -90 -97.05 -94.1 -85.15 -98 -73.55 -93.6 -73.3 -93.3 -72.95 -93.05 -72.3 -92.6 -71.65 -92.1 -71.5 -92 -71.3 -91.9 -68.6 -89.55 -67.75 -86.2 -66.1228515625 -79.97421875 -65.85 -73.65 -65.7611328125 -71.741796875 -65.8 -69.85 -74.7375 -72.9029296875 -84.2 -73.05
M -115.95 -62.05
Q -105.6 -66.25 -94.6 -68.05 -81.8 -70.1 -69.45 -66.65 -54.15 -62.4 -47.55 -48.3 -46.676953125 -46.3875 -45.8 -44.5 -45.5853515625 -44.0875 -45.4 -43.7 -44.9865234375 -42.8349609375 -44.65 -41.95 -44.0791015625 -40.6478515625 -43.65 -39.35 -41.6541015625 -33.3533203125 -41.8 -26.9 -41.85 -23.95 -42.45 -21.15 -43 -18.35 -44.1 -15.7 -45.7 -11.75 -48.5 -9 -48.75 -9.35 -48.85 -9.8 -49.0232421875 -10.839453125 -49.65 -11.25 -48.9427734375 -16.1609375 -48.65 -21.15 -48.4927734375 -23.8669921875 -48.45 -26.6 -48.3609375 -33.14921875 -49.5 -39.45 -49.6419921875 -40.1873046875 -49.8 -40.95 -49.9083984375 -41.442578125 -50.1 -41.9 -50.8328125 -43.587890625 -52.8 -44.15 -53.103125 -44.228125 -53.4 -44.3 -57.959375 -45.428125 -62.6 -45.85 -72.05 -46.6 -81.55 -46.95 -85.4 -46.8 -89.05 -45.55 -89.95 -45.25 -90.15 -44.35 -90.2556640625 -43.901171875 -90.35 -43.45 -90.5658203125 -42.420703125 -90.75 -41.4 -91.5353515625 -42.0171875 -92.55 -42.4 -93.45 -42.35 -94 -41.55 -94.12890625 -41.346484375 -94.25 -41.15 -94.6904296875 -40.38671875 -95.05 -39.6 -95.265625 -38.9765625 -95.45 -38.35 -96.65 -33.85 -97.65 -29.4 -106.05 -29.65 -114.55 -29.8 -121 -29.9 -127.4 -30.85 -128.35 -31 -129.35 -31.1 -132.1 -31.3 -131.85 -28.75 -131.83515625 -28.63828125 -131.8 -28.55 -132.465234375 -26.699609375 -132.5 -24.55 -132.5150390625 -22.8455078125 -132.6 -21.15 -132.74609375 -17.2255859375 -133.2 -13.35 -133.6 -9.9 -133.6 -6.6 -134.8 -8.2 -135.8 -9.95 -138.92734375 -15.2400390625 -140.25 -21.15 -140.932421875 -24.121484375 -141.15 -27.25 -141.558203125 -33.2853515625 -139.75 -38.75 -139.4326171875 -39.5388671875 -139.1 -40.35 -138.6830078125 -41.3349609375 -138.2 -42.3 -137.212109375 -44.2646484375 -135.9 -46.15 -128.35 -57 -115.95 -62.05
M -127.95 -26.85
Q -126.296484375 -26.4765625 -124.6 -26.35 -123.9630859375 -26.300390625 -123.35 -26.25 -123.2916015625 -23.4548828125 -121.8 -21.15 -121.21796875 -20.2908203125 -120.45 -19.5 -115.05 -14 -107.2 -14.6 -105.4 -14.75 -103.8 -15.5 -99.5591796875 -17.5623046875 -98 -21.15 -97.6814453125 -21.8806640625 -97.5 -22.7 -97.5494140625 -21.90859375 -97.65 -21.15 -97.896484375 -19.48125 -98.3 -17.85 -99.4 -15.45 -100.9 -13.3 -101.15 -12.95 -101.55 -12.7 -109.75 -7.65 -119.15 -10.4 -119.35 -10.55 -119.6 -10.65 -125.35 -13.15 -128.05 -18.8 -128.1 -19 -128.15 -19.2 -128.2 -19.35 -128.25 -19.55 -128.3 -19.7 -128.4 -19.8 -128.4662109375 -20.461328125 -128.6 -21.15
L -128.6 -21.15
Q -128.271484375 -23.9921875 -127.95 -26.85
M -128.25 -4.5
Q -128.45 -5.25 -128.55 -6 -128.7185546875 -7.204296875 -129.4 -7.75 -129.3841796875 -8.0361328125 -129.4 -8.35 -129.5283203125 -10.8513671875 -129.4 -13.35 -127.88828125 -11.283203125 -125.65 -9.6 -119.6 -5.1 -112 -5.45 -109.6 -5.55 -107.25 -5.9 -99.4 -6.95 -95.85 -13.65 -94.35 -16.5 -93.9 -19.65 -93.8037109375 -20.398828125 -93.7 -21.15 -93.3537109375 -23.9095703125 -93 -26.7 -92.7759765625 -28.2685546875 -93.35 -29.3 -93.180078125 -29.919921875 -93.1 -30.6 -92.75 -33.35 -91.7 -35.6 -91.4818359375 -35.0365234375 -91.25 -34.5 -91.255859375 -34.16875 -91.25 -33.85 -91.183984375 -27.478125 -90.5 -21.15 -90.1595703125 -17.894140625 -89.65 -14.65 -88.7 -8.35 -87.15 -2.2 -86.45 0.5 -83.9 -0.85 -80.75 -0.9 -77.55 -1.2 -73.6390625 -1.5736328125 -69.75 -1.95 -69.02109375 -2.028515625 -68.3 -2.1 -64.0408203125 -2.5447265625 -59.8 -3 -58.05 -3.175 -56.4 -3.65 -57.4068359375 -2.3841796875 -58.5 -1.2 -59.2 -0.85 -59.8 -0.3 -63.4 3.05 -67.85 5.35 -69.5 6.25 -71.25 7 -77.9 10 -85.15 10.8 -100.7 12.5 -114.8 6.65 -123.35 3.1 -128.25 -4.5
M -134.2 -1
Q -132.4560546875 0.31953125 -130.45 -0.55 -127.5021484375 3.3408203125 -123.7 6.15 -125.0955078125 7.48359375 -125.7 9.75 -126.75 9.4 -127.75 8.8 -133.737890625 5.3232421875 -134.2 -1
M -82.85 -39.65
Q -82.835546875 -39.6919921875 -82.85 -39.75 -83.0546875 -40.59296875 -83.4 -41.35 -83.683203125 -42.026953125 -84.1 -42.65 -82.928125 -42.79609375 -81.75 -42.9 -77.212109375 -42.996484375 -72.75 -42.8 -72.9318359375 -42.14296875 -72.95 -41.5 -72.9439453125 -40.7818359375 -72.7 -40.05 -72.687890625 -39.8396484375 -72.7 -39.65 -72.398046875 -34.5876953125 -72.35 -29.5 -72.35 -26.37109375 -72.4 -23.25 -74.253515625 -23.101171875 -76.15 -22.95 -77.72890625 -26.8970703125 -79.65 -30.85 -81.67421875 -35.0958984375 -82.85 -39.65
M -86.9 -28.05
L -86.95 -28.05
Q -87.0501953125 -30.4673828125 -87.1 -32.9 -87.0755859375 -33.416796875 -87.1 -33.95 -87.0890625 -35.991015625 -87.05 -38.05 -86.81484375 -37.362109375 -86.55 -36.7 -83.63515625 -29.4337890625 -80.15 -22.5 -81.3890625 -22.3630859375 -82.65 -22.35 -83.30234375 -26.1890625 -86.9 -28.05
M -103.5 -22.6
Q -102.430078125 -22.6 -101.7 -22.85 -101.969140625 -22.2427734375 -102.3 -21.65 -102.4453125 -21.387109375 -102.6 -21.15 -103.6337890625 -19.673828125 -105.4 -19.2 -111.810546875 -17.448046875 -116.25 -21.15 -117.391796875 -22.096484375 -118.4 -23.4 -118.5568359375 -23.6091796875 -118.7 -23.85 -111.2064453125 -22.6443359375 -103.5 -22.6
M -83.9 -14.5
Q -82.9806640625 -16.3068359375 -82.7 -18.3 -80.9994140625 -18.2580078125 -79.3 -18.4 -81.067578125 -12.6228515625 -84.35 -7.6 -84.8787109375 -10.216796875 -85.3 -12.9 -84.526953125 -13.0890625 -83.9 -14.5
M -56.55 -41
Q -57.1029296875 -40.3103515625 -57.5 -39.55 -57.79375 -38.9205078125 -58 -38.25 -60.3 -30.55 -63.85 -23.35 -63.8703125 -23.3240234375 -63.9 -23.3 -66.143359375 -23.334375 -68.4 -23.35 -68.2236328125 -31.5525390625 -68.85 -39.6 -68.91328125 -40.594140625 -69 -41.6
L -69 -41.6
Q -68.95 -42.05 -69.05 -42.55 -65.0689453125 -42.2474609375 -61.15 -41.7 -58.8318359375 -41.3783203125 -56.55 -41
M -53 -36.25
Q -52.8740234375 -31.4630859375 -52.85 -26.7 -54.822265625 -25.481640625 -56.45 -23.5 -56.6037109375 -23.3111328125 -56.75 -23.15 -58.1927734375 -23.171484375 -59.7 -23.2 -58.4658203125 -25.3216796875 -57.6 -27.6 -55.5052734375 -33.074609375 -53.25 -38.45 -53.0388671875 -37.3392578125 -53 -36.25
M -64.3 -19.3
Q -64.069921875 -18.8046875 -63.75 -18.35 -61.9 -13.15 -59.9 -7.95 -59.7578125 -7.5845703125 -59.6 -7.3 -63.405078125 -6.598046875 -67.25 -6.15 -68.301953125 -12.559375 -68.45 -19.15 -66.3474609375 -19.2169921875 -64.3 -19.3
M -73 -19
Q -72.7181640625 -19.0087890625 -72.45 -19.05 -72.3458984375 -12.260546875 -71.3 -5.7 -76.2328125 -5.25390625 -81.2 -5.2 -77.020703125 -11.3439453125 -74.95 -18.55 -74.9046875 -18.731640625 -74.9 -18.9 -73.947265625 -18.978515625 -73 -19
M -59.95 -19.45
Q -58.380078125 -19.49296875 -56.85 -19.55 -56.666796875 -19.2474609375 -56.45 -18.95 -55.75 -18 -55.3 -16.85 -54.4775390625 -14.9037109375 -53.2 -14.5 -53.440234375 -11.6326171875 -53.85 -8.8 -54 -8.75 -54.1 -8.65 -54.2 -8.6 -54.3 -8.5 -54.4 -8.4 -54.5 -8.35 -55.3994140625 -8.1466796875 -56.3 -7.95 -57.6912109375 -13.80703125 -59.95 -19.45
M -52.4 -2.4
Q -51.605078125 -3.234765625 -51 -4.2 -50.628515625 -3.8873046875 -50.15 -3.7 -50.073828125 -3.66953125 -50 -3.65 -49.008984375 0.6224609375 -51.3 4.25 -53.95 8.55 -58.5 9.8 -58.45 8.15 -58.85 6.6 -59.0876953125 5.688671875 -59.75 5.1 -55.5666015625 1.882421875 -52.4 -2.4 Z" stroke="none" fill="#000000"></path>

<path d="M -51 -4.2
Q -51.605078125 -3.234765625 -52.4 -2.4 -55.5666015625 1.882421875 -59.75 5.1 -59.0876953125 5.688671875 -58.85 6.6 -58.45 8.15 -58.5 9.8 -53.95 8.55 -51.3 4.25 -49.008984375 0.6224609375 -50 -3.65 -50.073828125 -3.66953125 -50.15 -3.7 -50.628515625 -3.8873046875 -51 -4.2
M -101.7 -22.85
Q -102.430078125 -22.6 -103.5 -22.6 -111.2064453125 -22.6443359375 -118.7 -23.85 -118.5568359375 -23.6091796875 -118.4 -23.4 -117.391796875 -22.096484375 -116.25 -21.15 -111.810546875 -17.448046875 -105.4 -19.2 -103.6337890625 -19.673828125 -102.6 -21.15 -102.4453125 -21.387109375 -102.3 -21.65 -101.969140625 -22.2427734375 -101.7 -22.85
M -130.45 -0.55
Q -132.4560546875 0.31953125 -134.2 -1 -133.737890625 5.3232421875 -127.75 8.8 -126.75 9.4 -125.7 9.75 -125.0955078125 7.48359375 -123.7 6.15 -127.5021484375 3.3408203125 -130.45 -0.55
M -43.65 -39.35
Q -46.5751953125 -39.3765625 -49.5 -39.45 -48.3609375 -33.14921875 -48.45 -26.6 -48.4927734375 -23.8669921875 -48.65 -21.15 -48.9427734375 -16.1609375 -49.65 -11.25 -49.0232421875 -10.839453125 -48.85 -9.8 -48.75 -9.35 -48.5 -9 -45.7 -11.75 -44.1 -15.7 -43 -18.35 -42.45 -21.15 -41.85 -23.95 -41.8 -26.9 -41.6541015625 -33.3533203125 -43.65 -39.35
M -44.65 -41.95
Q -44.9865234375 -42.8349609375 -45.4 -43.7 -45.5853515625 -44.0875 -45.8 -44.5 -49.565234375 -44.38984375 -53.4 -44.3 -53.103125 -44.228125 -52.8 -44.15 -50.8328125 -43.587890625 -50.1 -41.9 -47.3447265625 -41.9080078125 -44.65 -41.95
M -131.8 -28.55
Q -131.83515625 -28.63828125 -131.85 -28.75 -132.1 -31.3 -129.35 -31.1 -128.35 -31 -127.4 -30.85 -121 -29.9 -114.55 -29.8 -106.05 -29.65 -97.65 -29.4 -96.65 -33.85 -95.45 -38.35 -95.265625 -38.9765625 -95.05 -39.6 -117.36953125 -39.401953125 -139.75 -38.75 -141.558203125 -33.2853515625 -141.15 -27.25 -140.932421875 -24.121484375 -140.25 -21.15 -138.92734375 -15.2400390625 -135.8 -9.95 -134.8 -8.2 -133.6 -6.6 -133.6 -9.9 -133.2 -13.35 -132.74609375 -17.2255859375 -132.6 -21.15 -132.5150390625 -22.8455078125 -132.5 -24.55 -132.465234375 -26.699609375 -131.8 -28.55
M -138.2 -42.3
Q -138.6830078125 -41.3349609375 -139.1 -40.35 -115.97265625 -40.764453125 -94.25 -41.15 -94.12890625 -41.346484375 -94 -41.55 -93.45 -42.35 -92.55 -42.4 -91.5353515625 -42.0171875 -90.75 -41.4 -90.5658203125 -42.420703125 -90.35 -43.45 -113.462890625 -42.90546875 -138.2 -42.3
M -143.75 -38.6
Q -146.7509765625 -38.4982421875 -149.8 -38.4 -148.7533203125 -36.7396484375 -148.85 -34.95 -148.9 -33.3 -150.55 -33.3 -151.95 -33.3 -152.8 -33.85 -149.5193359375 -29.0953125 -145.05 -25.45 -145.7484375 -32.1232421875 -143.75 -38.6
M -151.9 -41.95
Q -151.3841796875 -41.0373046875 -150.85 -40.15 -146.9822265625 -40.2064453125 -143.15 -40.3 -142.79453125 -41.2513671875 -142.4 -42.2 -147.1076171875 -42.0736328125 -151.9 -41.95 Z" stroke="none" fill="#97E915"></path>

<path d="M -56.85 -19.55
Q -58.380078125 -19.49296875 -59.95 -19.45 -57.6912109375 -13.80703125 -56.3 -7.95 -55.3994140625 -8.1466796875 -54.5 -8.35 -54.4 -8.4 -54.3 -8.5 -54.2 -8.6 -54.1 -8.65 -54 -8.75 -53.85 -8.8 -53.440234375 -11.6326171875 -53.2 -14.5 -54.4775390625 -14.9037109375 -55.3 -16.85 -55.75 -18 -56.45 -18.95 -56.666796875 -19.2474609375 -56.85 -19.55
M -72.45 -19.05
Q -72.7181640625 -19.0087890625 -73 -19 -73.947265625 -18.978515625 -74.9 -18.9 -74.9046875 -18.731640625 -74.95 -18.55 -77.020703125 -11.3439453125 -81.2 -5.2 -76.2328125 -5.25390625 -71.3 -5.7 -72.3458984375 -12.260546875 -72.45 -19.05
M -63.75 -18.35
Q -64.069921875 -18.8046875 -64.3 -19.3 -66.3474609375 -19.2169921875 -68.45 -19.15 -68.301953125 -12.559375 -67.25 -6.15 -63.405078125 -6.598046875 -59.6 -7.3 -59.7578125 -7.5845703125 -59.9 -7.95 -61.9 -13.15 -63.75 -18.35
M -52.85 -26.7
Q -52.8740234375 -31.4630859375 -53 -36.25 -53.0388671875 -37.3392578125 -53.25 -38.45 -55.5052734375 -33.074609375 -57.6 -27.6 -58.4658203125 -25.3216796875 -59.7 -23.2 -58.1927734375 -23.171484375 -56.75 -23.15 -56.6037109375 -23.3111328125 -56.45 -23.5 -54.822265625 -25.481640625 -52.85 -26.7
M -57.5 -39.55
Q -57.1029296875 -40.3103515625 -56.55 -41 -58.8318359375 -41.3783203125 -61.15 -41.7 -65.0689453125 -42.2474609375 -69.05 -42.55 -68.95 -42.05 -69 -41.6
L -69 -41.6
Q -68.91328125 -40.594140625 -68.85 -39.6 -68.2236328125 -31.5525390625 -68.4 -23.35 -66.143359375 -23.334375 -63.9 -23.3 -63.8703125 -23.3240234375 -63.85 -23.35 -60.3 -30.55 -58 -38.25 -57.79375 -38.9205078125 -57.5 -39.55
M -82.7 -18.3
Q -82.9806640625 -16.3068359375 -83.9 -14.5 -84.526953125 -13.0890625 -85.3 -12.9 -84.8787109375 -10.216796875 -84.35 -7.6 -81.067578125 -12.6228515625 -79.3 -18.4 -80.9994140625 -18.2580078125 -82.7 -18.3
M -86.95 -28.05
L -86.9 -28.05
Q -83.30234375 -26.1890625 -82.65 -22.35 -81.3890625 -22.3630859375 -80.15 -22.5 -83.63515625 -29.4337890625 -86.55 -36.7 -86.81484375 -37.362109375 -87.05 -38.05 -87.0890625 -35.991015625 -87.1 -33.95 -87.0755859375 -33.416796875 -87.1 -32.9 -87.0501953125 -30.4673828125 -86.95 -28.05
M -82.85 -39.75
Q -82.835546875 -39.6919921875 -82.85 -39.65 -81.67421875 -35.0958984375 -79.65 -30.85 -77.72890625 -26.8970703125 -76.15 -22.95 -74.253515625 -23.101171875 -72.4 -23.25 -72.35 -26.37109375 -72.35 -29.5 -72.398046875 -34.5876953125 -72.7 -39.65 -72.687890625 -39.8396484375 -72.7 -40.05 -72.9439453125 -40.7818359375 -72.95 -41.5 -72.9318359375 -42.14296875 -72.75 -42.8 -77.212109375 -42.996484375 -81.75 -42.9 -82.928125 -42.79609375 -84.1 -42.65 -83.683203125 -42.026953125 -83.4 -41.35 -83.0546875 -40.59296875 -82.85 -39.75
M -124.6 -26.35
Q -126.296484375 -26.4765625 -127.95 -26.85 -128.271484375 -23.9921875 -128.6 -21.15
L -128.6 -21.15
Q -128.4662109375 -20.461328125 -128.4 -19.8 -128.3 -19.7 -128.25 -19.55 -128.2 -19.35 -128.15 -19.2 -128.1 -19 -128.05 -18.8 -125.35 -13.15 -119.6 -10.65 -119.35 -10.55 -119.15 -10.4 -109.75 -7.65 -101.55 -12.7 -101.15 -12.95 -100.9 -13.3 -99.4 -15.45 -98.3 -17.85 -97.896484375 -19.48125 -97.65 -21.15 -97.5494140625 -21.90859375 -97.5 -22.7 -97.6814453125 -21.8806640625 -98 -21.15 -99.5591796875 -17.5623046875 -103.8 -15.5 -105.4 -14.75 -107.2 -14.6 -115.05 -14 -120.45 -19.5 -121.21796875 -20.2908203125 -121.8 -21.15 -123.2916015625 -23.4548828125 -123.35 -26.25 -123.9630859375 -26.300390625 -124.6 -26.35 Z" stroke="none" fill="#FFFFFF"></path>

<path d="M -128.55 -6
Q -128.45 -5.25 -128.25 -4.5 -123.35 3.1 -114.8 6.65 -100.7 12.5 -85.15 10.8 -77.9 10 -71.25 7 -69.5 6.25 -67.85 5.35 -63.4 3.05 -59.8 -0.3 -59.2 -0.85 -58.5 -1.2 -57.4068359375 -2.3841796875 -56.4 -3.65 -58.05 -3.175 -59.8 -3 -64.0408203125 -2.5447265625 -68.3 -2.1 -69.02109375 -2.028515625 -69.75 -1.95 -73.6390625 -1.5736328125 -77.55 -1.2 -80.75 -0.9 -83.9 -0.85 -86.45 0.5 -87.15 -2.2 -88.7 -8.35 -89.65 -14.65 -90.1595703125 -17.894140625 -90.5 -21.15 -91.183984375 -27.478125 -91.25 -33.85 -91.255859375 -34.16875 -91.25 -34.5 -91.4818359375 -35.0365234375 -91.7 -35.6 -92.75 -33.35 -93.1 -30.6 -93.180078125 -29.919921875 -93.35 -29.3 -92.7759765625 -28.2685546875 -93 -26.7 -93.3537109375 -23.9095703125 -93.7 -21.15 -93.8037109375 -20.398828125 -93.9 -19.65 -94.35 -16.5 -95.85 -13.65 -99.4 -6.95 -107.25 -5.9 -109.6 -5.55 -112 -5.45 -119.6 -5.1 -125.65 -9.6 -127.88828125 -11.283203125 -129.4 -13.35 -129.5283203125 -10.8513671875 -129.4 -8.35 -129.3841796875 -8.0361328125 -129.4 -7.75 -128.7185546875 -7.204296875 -128.55 -6 Z" stroke="none" fill="#D9AD8D"></path>

<path d="M -50.1 -41.9
Q -49.9083984375 -41.442578125 -49.8 -40.95 -49.6419921875 -40.1873046875 -49.5 -39.45 -46.5751953125 -39.3765625 -43.65 -39.35 -44.0791015625 -40.6478515625 -44.65 -41.95 -47.3447265625 -41.9080078125 -50.1 -41.9
M -139.1 -40.35
Q -139.4326171875 -39.5388671875 -139.75 -38.75 -117.36953125 -39.401953125 -95.05 -39.6 -94.6904296875 -40.38671875 -94.25 -41.15 -115.97265625 -40.764453125 -139.1 -40.35
M -94.6 -68.05
Q -105.6 -66.25 -115.95 -62.05 -128.35 -57 -135.9 -46.15 -137.212109375 -44.2646484375 -138.2 -42.3 -113.462890625 -42.90546875 -90.35 -43.45 -90.2556640625 -43.901171875 -90.15 -44.35 -89.95 -45.25 -89.05 -45.55 -85.4 -46.8 -81.55 -46.95 -72.05 -46.6 -62.6 -45.85 -57.959375 -45.428125 -53.4 -44.3 -49.565234375 -44.38984375 -45.8 -44.5 -46.676953125 -46.3875 -47.55 -48.3 -54.15 -62.4 -69.45 -66.65 -81.8 -70.1 -94.6 -68.05
M -150.85 -40.15
Q -150.368359375 -39.31328125 -149.85 -38.5 -149.8140625 -38.44453125 -149.8 -38.4 -146.7509765625 -38.4982421875 -143.75 -38.6 -143.5025390625 -39.29921875 -143.25 -40 -143.200390625 -40.1388671875 -143.15 -40.3 -146.9822265625 -40.2064453125 -150.85 -40.15
M -113.2 -67.25
Q -99.1 -72.2 -84.2 -73.05 -74.7375 -72.9029296875 -65.8 -69.85 -65.7611328125 -71.741796875 -65.85 -73.65 -66.1228515625 -79.97421875 -67.75 -86.2 -68.6 -89.55 -71.3 -91.9 -71.5 -92 -71.65 -92.1 -72.3 -92.6 -72.95 -93.05 -73.3 -93.3 -73.55 -93.6 -85.15 -98 -97.05 -94.1 -109.65 -90 -121.85 -84.75 -133.4 -79.8 -144.45 -73.95 -144.7318359375 -73.80234375 -145 -73.65 -150.9154296875 -70.3951171875 -154.45 -64.95 -155.45 -63.35 -155.05 -61.45 -153.75 -55.65 -150.3 -50.75 -149.5091796875 -49.6130859375 -149.3 -48.45 -148.7251953125 -47.8171875 -148.2 -47.15 -147.4 -46.15 -148.35 -45.2 -150 -43.5 -151.8 -45.35 -152.0359375 -45.6029296875 -152.3 -45.85 -152.69765625 -46.3125 -153.1 -46.75 -153.129296875 -46.7775390625 -153.15 -46.8 -153.6 -47.05 -153.95 -47.4 -154.25 -47.75 -154.65 -48 -153.4609375 -44.90234375 -151.9 -41.95 -147.1076171875 -42.0736328125 -142.4 -42.2 -138.132421875 -52.3076171875 -129.05 -58.95 -121.8 -64.25 -113.2 -67.25 Z" stroke="none" fill="#E44695"></path>
</g>
</g>
</g>
</g>
</g>
</svg>
