
<svg viewBox="0 0 128 107" height="107px" width="128px" y="0px" x="0px" preserveAspectRatio="none" xmlns:xlink="http://www.w3.org/1999/xlink" version="1.1" xmlns="http://www.w3.org/2000/svg">
<defs></defs>

<g id="Layer_1"></g>

<g id="Layer_2">
<g transform="matrix( 1.0869140625, 0, 0, 1.08746337890625, 32,39.85)" id="Layer_1">
<g>
<g>
<g>
<path d="M 23 -25.25
Q 22.7966796875 -25.165234375 22.6 -25.1 16.35625 -26.3796875 9.85 -26.35 7.75 -26.1 5.7 -25.15 1.65 -23.3 -1.15 -19.8 -2.5912109375 -18.0109375 -3.1 -15.85 -9.4564453125 -11.4087890625 -13.95 -5.05 -14.2099609375 -4.6837890625 -14.45 -4.3 -17.4890625 0.389453125 -17.35 5.95 -17.2822265625 9.6076171875 -15 12 -17.4408203125 12.757421875 -19.7 14.2 -25.3 17.8 -27.35 24 -28.6 27.7 -27.9 31.55 -26.85 37.5 -21.45 40.4 -22.8 41.7 -23.05 43.5 -23.4 46.2 -21.8 48.5 -18.8392578125 52.8095703125 -14.45 54.05 -12.16796875 54.72109375 -9.5 54.55 -8.3 54.5 -7.15 54.35 -4.8103515625 54.116015625 -4.25 52.15 -3.3896484375 51.3990234375 -3.2 50.75 0.9166015625 54.4322265625 6.2 56.2 8.0609375 56.81640625 10.05 57.2 14.1228515625 57.988671875 18.15 58.3 20.7685546875 60.1716796875 23.85 61.5 27.85 63.25 31.7 61.4 35.425 59.617578125 38.2 56.95 39.8005859375 56.6271484375 41.4 56.2 45.4541015625 55.108984375 49.45 53.5 54.15 51.55 58.5 49.65 60.45 51 62.45 52.15 70.65 56.95 79.1 52.55 82.95 50.55 84.9 46.75 87.75 41 82.65 36.75 86.85 34.6 87.85 29.95 88.85 25 87.1 20.3 85.748046875 16.75625 83.3 14.65 84.9943359375 13.5927734375 86.45 12 89.9 8.3 88.8 3.5 87.1 -4.15 79.7 -6.8 82.25 -13.7 79.7 -20.95 78.85 -23.35 77.45 -25.4 75.884765625 -27.694140625 74 -29.4 73.75859375 -29.6302734375 73.5 -29.85 67.6994140625 -34.81015625 59.1 -34.3 52.85 -33.45 46.6 -32.25 41.3275390625 -31.281640625 36.2 -29.85 35.4416015625 -29.63046875 34.65 -29.4 28.715625 -27.6421875 23 -25.25
M 0.35 -5.9
Q 0.35 -6.1 0.3 -6.25 0.25 -6.55 0.15 -6.8 0.15 -6.9 0.15 -7 0.15 -7.3 -0.05 -7.55 -0.1 -7.6 -0.15 -7.7 -0.1 -8.9 -0.25 -10.05 -0.3904296875 -11.314453125 -0.05 -12.6 1.59375 -13.9107421875 2.05 -15.85 1.9 -16.2 1.65 -16.55 1.602734375 -16.6142578125 1.55 -16.7 1.9537109375 -17.277734375 2.45 -17.8 3.75 -19.2 5.4 -20.05 12.65 -23.95 21 -21.35 21.2873046875 -21.2599609375 21.55 -21.2 22.011328125 -21.0349609375 22.45 -20.9 25.8787109375 -19.850390625 29.35 -18.9 38.55 -16.3 46.7 -11.3 47.3 -10.95 47.7 -10.5 49.9 -8.05 52.45 -9.35 53.05 -10.25 52.6 -11.15 51.05 -14.15 47.85 -15.8 42.35 -18.6 36.5 -20.7 33.8 -21.7 31.05 -22.65 30.2513671875 -22.9421875 29.45 -23.2 40.8994140625 -27.1724609375 52.85 -29.4 54.1095703125 -29.6345703125 55.35 -29.85 56.6146484375 -30.0591796875 57.85 -30.25 61.9369140625 -30.8572265625 65.4 -29.85 66.066796875 -29.655078125 66.7 -29.4 69.8611328125 -28.1494140625 72.45 -25.45 75.85 -21.9 76.8 -16.9 77.8 -11.85 75.45 -7.4 74.9 -6.35 74.2 -5.35 72.4 -2.85 75.55 -2.3 76.25 -2.15 76.9 -2.2 82.2 -2.6 84.65 2.35 84.65 2.45 84.65 2.55 84.65 2.8 84.75 3.1 84.85 3.35 84.95 3.6 85 3.8 85.1 3.95 85.1 4.05 85.2 4.15 85.2 4.25 85.2 4.35 85.2 4.45 85.2 4.5 85.2 4.6 85.25 4.7 85.3 4.8 85.35 4.9 85.35 4.95 85.35 5.05 85.25 5.35 85.2 5.6 85.2 5.8 85.15 5.95 85.15 6.15 85.15 6.35 85.1 6.4 85.1 6.5 85 6.8 84.9 7.05 84.85 7.25 84.8 7.4 84.75 7.6 84.65 7.8 84.65 7.85 84.65 7.95 82.5193359375 11.1921875 78.85 12.3 76.6806640625 11.723046875 74.05 11.75 65.6822265625 12.923046875 59.75 18.35 59.7333984375 18.1390625 59.7 17.9 59.05 13.7 56.1 10.65 54.4654296875 9.0154296875 52.6 7.95 52.9380859375 7.2796875 53.15 6.55 53 6.2 52.75 5.85 52.4 5.35 51.85 5.4 50.234765625 5.641015625 48.75 6.35 46.48359375 5.811328125 43.95 5.9 41.9 6.15 39.9 6.95 35.229296875 8.6951171875 32.1 11.9 28.6853515625 10.8486328125 26.65 7.25 26.15 6.45 25.2 6.35 21.6 6.15 17.9 6.85 17.1587890625 6.98984375 16.45 7.05 14.104296875 6.4134765625 11.45 6.45 11.0556640625 6.489453125 10.65 6.55 6.8171875 5.2751953125 4.05 1.45 1.65 -1.9 0.35 -5.9
M 84.25 27.05
Q 84 29.55 82.85 31.8 81.1 33.3 78.9 33.7 77.75 33.95 76.55 34 73.55 34.15 74.55 36.85 74.85 37.65 75.65 37.75 80.7 38.3 82.2 43.2 80.55 48.65 74.9 50.05 73.5 50.4 72.1 50.45 66.6 50.55 61.95 47.2 60.7 46.3 59.3 45.7 58.65 45.4 58.05 45.7 50.4806640625 49.3755859375 42.35 51.7 43.59609375 49.6134765625 44.45 47.2 45.95 43.3 46.7 39.2 46.85 38.3 47.05 37.4 47.38046875 35.9017578125 47 34.8 47.140234375 34.8095703125 47.25 34.8 48.35 34.75 48.7 33.75 49.8 30.85 46.4 30.85 45.55 31 44.6 31.05 41.2 31.2 41.15 34.35 41.15 35.25 40.8 36 39.6 38.4 36.85 39.55 26.85 43.75 17 39.5 16.45 39.25 15.95 39.55 10.35 43.15 4 41.45 2.95 41 2.4 40.05 2.25 39.75 2.05 39.45 2 38.7 2.35 38.15 3.8 35.75 1.85 34.1 1.25 33.6 0.6 34.05 -2.3 36.05 -1.8 39.75 -1.4 42.75 1.35 44.15 4.765625 45.8912109375 8.15 45.95 8.296484375 46.6443359375 8.95 47.5 9.3 48.7 10.05 49.8 11.39765625 51.9005859375 13 53.7 10.36640625 53.2263671875 7.75 52.5 -0.65 50.15 -4.6 42.85 -4.75 41.9 -4.9 40.95 -5.2 39.2 -4.45 37.5 -3.9 36.25 -3.25 35.05 -2.65 34.95 -2.25 34.6 -1 33.6 -1.8 32.25 -2.95 30.25 -4.95 31.65 -5.262109375 31.8671875 -5.55 32.1 -8.0232421875 30.0796875 -11.5 30.4 -14.75 30.95 -13.5 33.75 -13.3 34.2 -12.9 34.2 -10.5 34.35 -8.15 35.1 -8.0427734375 35.136328125 -7.95 35.15 -8.1076171875 35.5228515625 -8.25 35.9 -10.6 42.35 -6.15 47.7 -5.719140625 48.215625 -5.3 48.7 -5.5732421875 48.7923828125 -5.85 49 -6.459375 49.4677734375 -6.75 49.9 -7.646484375 49.9033203125 -8.65 50.3 -10.2 50.9 -11.85 50.55 -13.2646484375 50.2384765625 -14.45 49.65 -17.83203125 48.0001953125 -19.35 44.15 -17.9 42.05 -15.35 41.7 -14.8478515625 41.620703125 -14.45 41.45 -12.5880859375 40.80078125 -13 38.7 -13.2357421875 37.4740234375 -14.45 37.55 -14.5232421875 37.54140625 -14.6 37.55 -19.65 38.1 -22.95 34.15 -23.4 33.3 -23.7 32.45 -24.55 30.15 -24.25 27.65 -24.1 26 -23.6 24.45 -23.3 23.95 -23 23.45 -22.65 22.8 -22.25 22.15 -21.85 21.6 -21.55 21 -20 19.55 -18.35 18.35 -16.562890625 16.9884765625 -14.45 16.2 -14.080078125 16.069140625 -13.7 15.95 -8.95 14.5 -4.75 17.15
L -4.75 17.15
Q -5.877734375 20.8111328125 -2.6 22.75 -1.5 23.45 -0.35 23 1.2 22.4 1.5 20.7 1.52265625 20.57734375 1.55 20.45 2.063671875 17.8931640625 3.4 15.65 5.3 12.5 8.95 12.15 15.9 11.5 19.4 17.2 19.9 18 20.15 18.85 20.9 21.65 20.6 24.6 20.3 24.85 20.05 25.1 19.745703125 25.37890625 19.65 25.7 19.5513671875 26.0302734375 19.65 26.4 20.3 29.35 23.7 28.9 24.65 28.75 25 27.95 25.234765625 27.437890625 25.4 26.9 25.490625 26.7517578125 25.55 26.55 26.612109375 23.573828125 26.45 20.25 26.3 16.4 24.65 12.95 24.25 12.05 23.6 11.4 23.1185546875 10.9037109375 22.6 10.45 23.0810546875 10.3376953125 23.55 10.2 25.1 12.85 27.85 14.15 28.7822265625 14.5873046875 29.7 14.9 28.4462890625 16.89609375 27.6 19.25 26.5 22.2 26.65 25.3 26.2376953125 26.00078125 26.4 26.65 26.4796875 26.8095703125 26.55 26.95 26.5615234375 26.9751953125 26.55 27 27.3794921875 28.7021484375 29.4 28.85 31.9109375 29.0146484375 32.6 27.1 32.7380859375 26.7037109375 32.8 26.2 33.05 24.05 33.35 21.95 33.45 21.8 33.5 21.6 33.5 21.35 33.6 21.15 33.7 20.95 33.7 20.8 33.7 20.7 33.75 20.65 34.8923828125 18.4126953125 36.1 16.15 41.4861328125 16.25625 46.65 13.05 47.491796875 12.511328125 48.3 12 49.3310546875 12.4759765625 50.3 13.15 53.15 15.15 53.25 18.6 53.384375 22.0921875 52.85 25.6 52.81796875 26.037109375 52.75 26.45 52.55 27.6 53.5 28.3 54.95 29.25 56.7 28.65 58.45 28.1 59 26.3 59.3548828125 25.1810546875 59.55 24.05 62.493359375 20.8275390625 66.2 18.5 67.8 17.5 69.55 16.8 72.28359375 15.651171875 74.8 15.7 74.90078125 16.151171875 75.15 16.55 75.5 17.05 76.05 17 77.494921875 16.9177734375 78.8 16.6 80.4916015625 17.328125 82.05 18.65 84.65 22.4 84.25 27.05
M 3.55 6.95
Q 4.06171875 7.46171875 4.6 7.85 -0.18359375 9.5841796875 -2.9 13.55 -5.377734375 11.9271484375 -8.45 11.45 -9.383203125 10.3158203125 -10.9 9.65 -13.45 8.55 -13.3 5.85 -12.85 -2.3 -6.65 -7.9 -5.5412109375 -8.8783203125 -4.4 -9.75 -4.3599609375 -7.625390625 -3.75 -5.45 -1.75 1.7 3.55 6.95
M -6.9 30.05
Q -4.15 30.9 -3.6 28.3 -3.45 27.7 -3.9 27.3 -6.5 25.05 -10.25 25.45 -13.1 26.2 -11.85 28.75 -11.65 29.15 -11.2 29.2 -9.05 29.45 -6.9 30.05
M 17.95 29.3
Q 17.45 29.4 16.9 29.45 16.1 29.5 15.65 30.1 13.85 32.5 16.8 33.65 17.65 33.95 18.4 34.45 20.0626953125 35.5439453125 22.05 35.3 23.422265625 35.7880859375 25 35.45 26.85 35 28.75 34.7 30.7 34.35 31.35 32.6 31.85 31.25 30.6 30.45 29.01171875 29.4572265625 27 29.95
L 27 29.95
Q 22.5544921875 29.0806640625 17.95 29.3
M 59.75 36.75
Q 59.3 37.55 59.85 38.25 61.25 40.1 63.8 39.35 64.2 39.6 64.55 39.85 67.4 41.5 68.75 38.9 69.05 38.35 68.7 37.9 66.7 35.2 63.05 35.3 60.8 34.9 59.75 36.75
M 59.1 31.2
Q 57.55 32.4 57.2 34.2 57.05 35 57.65 35.4 60 37.05 61.6 34.4 61.75 34.35 61.9 34.3 63.05 34.25 64.15 34.25 64.7 34.5 65.3 34.5 66.5 34.5 66.9 33.35 67.7 31.25 65.4 30.5 63.5 29.85 61.45 30.2 60.2 30.35 59.1 31.2 Z" stroke="none" fill="#000000"></path>

<path d="M 4.6 7.85
Q 4.06171875 7.46171875 3.55 6.95 -1.75 1.7 -3.75 -5.45 -4.3599609375 -7.625390625 -4.4 -9.75 -5.5412109375 -8.8783203125 -6.65 -7.9 -12.85 -2.3 -13.3 5.85 -13.45 8.55 -10.9 9.65 -9.383203125 10.3158203125 -8.45 11.45 -5.377734375 11.9271484375 -2.9 13.55 -0.18359375 9.5841796875 4.6 7.85
M 3.4 15.65
Q 2.063671875 17.8931640625 1.55 20.45 10.220703125 24.0251953125 19.65 25.7 19.745703125 25.37890625 20.05 25.1 20.3 24.85 20.6 24.6 20.9 21.65 20.15 18.85 19.9 18 19.4 17.2 15.9 11.5 8.95 12.15 5.3 12.5 3.4 15.65
M 22.6 10.45
Q 23.1185546875 10.9037109375 23.6 11.4 24.25 12.05 24.65 12.95 26.3 16.4 26.45 20.25 26.612109375 23.573828125 25.55 26.55 25.490625 26.7517578125 25.4 26.9 25.535546875 26.972265625 25.6 27
L 26.55 27
Q 26.5615234375 26.9751953125 26.55 26.95 26.4796875 26.8095703125 26.4 26.65 26.2376953125 26.00078125 26.65 25.3 26.5 22.2 27.6 19.25 28.4462890625 16.89609375 29.7 14.9 28.7822265625 14.5873046875 27.85 14.15 25.1 12.85 23.55 10.2 23.0810546875 10.3376953125 22.6 10.45
M 48.3 12
Q 47.491796875 12.511328125 46.65 13.05 41.4861328125 16.25625 36.1 16.15 34.8923828125 18.4126953125 33.75 20.65 33.7 20.7 33.7 20.8 33.7 20.95 33.6 21.15 33.5 21.35 33.5 21.6 33.45 21.8 33.35 21.95 33.05 24.05 32.8 26.2 32.7380859375 26.7037109375 32.6 27.1 42.875 27.515625 52.85 25.6 53.384375 22.0921875 53.25 18.6 53.15 15.15 50.3 13.15 49.3310546875 12.4759765625 48.3 12
M 0.3 -6.25
Q 0.35 -6.1 0.35 -5.9 1.65 -1.9 4.05 1.45 6.8171875 5.2751953125 10.65 6.55 11.0556640625 6.489453125 11.45 6.45 14.104296875 6.4134765625 16.45 7.05 17.1587890625 6.98984375 17.9 6.85 21.6 6.15 25.2 6.35 26.15 6.45 26.65 7.25 28.6853515625 10.8486328125 32.1 11.9 35.229296875 8.6951171875 39.9 6.95 41.9 6.15 43.95 5.9 46.48359375 5.811328125 48.75 6.35 50.234765625 5.641015625 51.85 5.4 52.4 5.35 52.75 5.85 53 6.2 53.15 6.55 52.9380859375 7.2796875 52.6 7.95 54.4654296875 9.0154296875 56.1 10.65 59.05 13.7 59.7 17.9 59.7333984375 18.1390625 59.75 18.35 65.6822265625 12.923046875 74.05 11.75 76.6806640625 11.723046875 78.85 12.3 82.5193359375 11.1921875 84.65 7.95 84.65 7.85 84.65 7.8 84.75 7.6 84.8 7.4 84.85 7.25 84.9 7.05 85 6.8 85.1 6.5 85.1 6.4 85.15 6.35 85.15 6.15 85.15 5.95 85.2 5.8 85.2 5.6 85.25 5.35 85.35 5.05 85.35 4.95 85.35 4.9 85.3 4.8 85.25 4.7 85.2 4.6 85.2 4.5 85.2 4.45 85.2 4.35 85.2 4.25 85.2 4.15 85.1 4.05 85.1 3.95 85 3.8 84.95 3.6 84.85 3.35 84.75 3.1 84.65 2.8 84.65 2.55 84.65 2.45 84.65 2.35 82.2 -2.6 76.9 -2.2 76.25 -2.15 75.55 -2.3 72.4 -2.85 74.2 -5.35 74.9 -6.35 75.45 -7.4 77.8 -11.85 76.8 -16.9 75.85 -21.9 72.45 -25.45 69.8611328125 -28.1494140625 66.7 -29.4 66.066796875 -29.655078125 65.4 -29.85 61.9369140625 -30.8572265625 57.85 -30.25 56.6146484375 -30.0591796875 55.35 -29.85 54.1095703125 -29.6345703125 52.85 -29.4 40.8994140625 -27.1724609375 29.45 -23.2 30.2513671875 -22.9421875 31.05 -22.65 33.8 -21.7 36.5 -20.7 42.35 -18.6 47.85 -15.8 51.05 -14.15 52.6 -11.15 53.05 -10.25 52.45 -9.35 49.9 -8.05 47.7 -10.5 47.3 -10.95 46.7 -11.3 38.55 -16.3 29.35 -18.9 25.8787109375 -19.850390625 22.45 -20.9 22.011328125 -21.0349609375 21.55 -21.2 21.2873046875 -21.2599609375 21 -21.35 12.65 -23.95 5.4 -20.05 3.75 -19.2 2.45 -17.8 1.9537109375 -17.277734375 1.55 -16.7 1.602734375 -16.6142578125 1.65 -16.55 1.9 -16.2 2.05 -15.85 1.59375 -13.9107421875 -0.05 -12.6 -0.3904296875 -11.314453125 -0.25 -10.05 -0.1 -8.9 -0.15 -7.7 -0.1 -7.6 -0.05 -7.55 0.15 -7.3 0.15 -7 0.15 -6.9 0.15 -6.8 0.25 -6.55 0.3 -6.25 Z" stroke="none" fill="#FFE400"></path>

<path d="M 82.85 31.8
Q 84 29.55 84.25 27.05 84.65 22.4 82.05 18.65 80.4916015625 17.328125 78.8 16.6 77.494921875 16.9177734375 76.05 17 75.5 17.05 75.15 16.55 74.90078125 16.151171875 74.8 15.7 72.28359375 15.651171875 69.55 16.8 67.8 17.5 66.2 18.5 62.493359375 20.8275390625 59.55 24.05 59.3548828125 25.1810546875 59 26.3 58.45 28.1 56.7 28.65 54.95 29.25 53.5 28.3 52.55 27.6 52.75 26.45 52.81796875 26.037109375 52.85 25.6 42.875 27.515625 32.6 27.1 31.9109375 29.0146484375 29.4 28.85 27.3794921875 28.7021484375 26.55 27
L 25.6 27
Q 25.535546875 26.972265625 25.4 26.9 25.234765625 27.437890625 25 27.95 24.65 28.75 23.7 28.9 20.3 29.35 19.65 26.4 19.5513671875 26.0302734375 19.65 25.7 10.220703125 24.0251953125 1.55 20.45 1.52265625 20.57734375 1.5 20.7 1.2 22.4 -0.35 23 -1.5 23.45 -2.6 22.75 -5.877734375 20.8111328125 -4.75 17.15
L -4.75 17.15
Q -8.95 14.5 -13.7 15.95 -14.080078125 16.069140625 -14.45 16.2 -16.562890625 16.9884765625 -18.35 18.35 -20 19.55 -21.55 21 -21.85 21.6 -22.25 22.15 -22.65 22.8 -23 23.45 -23.3 23.95 -23.6 24.45 -24.1 26 -24.25 27.65 -24.55 30.15 -23.7 32.45 -23.4 33.3 -22.95 34.15 -19.65 38.1 -14.6 37.55 -14.5232421875 37.54140625 -14.45 37.55 -13.2357421875 37.4740234375 -13 38.7 -12.5880859375 40.80078125 -14.45 41.45 -14.8478515625 41.620703125 -15.35 41.7 -17.9 42.05 -19.35 44.15 -17.83203125 48.0001953125 -14.45 49.65 -13.2646484375 50.2384765625 -11.85 50.55 -10.2 50.9 -8.65 50.3 -7.646484375 49.9033203125 -6.75 49.9 -6.459375 49.4677734375 -5.85 49 -5.5732421875 48.7923828125 -5.3 48.7 -5.719140625 48.215625 -6.15 47.7 -10.6 42.35 -8.25 35.9 -8.1076171875 35.5228515625 -7.95 35.15 -8.0427734375 35.136328125 -8.15 35.1 -10.5 34.35 -12.9 34.2 -13.3 34.2 -13.5 33.75 -14.75 30.95 -11.5 30.4 -8.0232421875 30.0796875 -5.55 32.1 -5.262109375 31.8671875 -4.95 31.65 -2.95 30.25 -1.8 32.25 -1 33.6 -2.25 34.6 -2.65 34.95 -3.25 35.05 -3.9 36.25 -4.45 37.5 -5.2 39.2 -4.9 40.95 -4.75 41.9 -4.6 42.85 -0.65 50.15 7.75 52.5 10.36640625 53.2263671875 13 53.7 11.39765625 51.9005859375 10.05 49.8 9.3 48.7 8.95 47.5 8.296484375 46.6443359375 8.15 45.95 4.765625 45.8912109375 1.35 44.15 -1.4 42.75 -1.8 39.75 -2.3 36.05 0.6 34.05 1.25 33.6 1.85 34.1 3.8 35.75 2.35 38.15 2 38.7 2.05 39.45 2.25 39.75 2.4 40.05 2.95 41 4 41.45 10.35 43.15 15.95 39.55 16.45 39.25 17 39.5 26.85 43.75 36.85 39.55 39.6 38.4 40.8 36 41.15 35.25 41.15 34.35 41.2 31.2 44.6 31.05 45.55 31 46.4 30.85 49.8 30.85 48.7 33.75 48.35 34.75 47.25 34.8 47.140234375 34.8095703125 47 34.8 47.38046875 35.9017578125 47.05 37.4 46.85 38.3 46.7 39.2 45.95 43.3 44.45 47.2 43.59609375 49.6134765625 42.35 51.7 50.4806640625 49.3755859375 58.05 45.7 58.65 45.4 59.3 45.7 60.7 46.3 61.95 47.2 66.6 50.55 72.1 50.45 73.5 50.4 74.9 50.05 80.55 48.65 82.2 43.2 80.7 38.3 75.65 37.75 74.85 37.65 74.55 36.85 73.55 34.15 76.55 34 77.75 33.95 78.9 33.7 81.1 33.3 82.85 31.8
M 57.2 34.2
Q 57.55 32.4 59.1 31.2 60.2 30.35 61.45 30.2 63.5 29.85 65.4 30.5 67.7 31.25 66.9 33.35 66.5 34.5 65.3 34.5 64.7 34.5 64.15 34.25 63.05 34.25 61.9 34.3 61.75 34.35 61.6 34.4 60 37.05 57.65 35.4 57.05 35 57.2 34.2
M 59.85 38.25
Q 59.3 37.55 59.75 36.75 60.8 34.9 63.05 35.3 66.7 35.2 68.7 37.9 69.05 38.35 68.75 38.9 67.4 41.5 64.55 39.85 64.2 39.6 63.8 39.35 61.25 40.1 59.85 38.25
M 16.9 29.45
Q 17.45 29.4 17.95 29.3 22.5544921875 29.0806640625 27 29.95
L 27 29.95
Q 29.01171875 29.4572265625 30.6 30.45 31.85 31.25 31.35 32.6 30.7 34.35 28.75 34.7 26.85 35 25 35.45 23.422265625 35.7880859375 22.05 35.3 20.0626953125 35.5439453125 18.4 34.45 17.65 33.95 16.8 33.65 13.85 32.5 15.65 30.1 16.1 29.5 16.9 29.45
M -3.6 28.3
Q -4.15 30.9 -6.9 30.05 -9.05 29.45 -11.2 29.2 -11.65 29.15 -11.85 28.75 -13.1 26.2 -10.25 25.45 -6.5 25.05 -3.9 27.3 -3.45 27.7 -3.6 28.3 Z" stroke="none" fill="#FFED9C"></path>
</g>
</g>
</g>
</g>
</g>
</svg>
