
<svg viewBox="0 0 80 70" height="70px" width="80px" y="0px" x="0px" preserveAspectRatio="none" xmlns:xlink="http://www.w3.org/1999/xlink" version="1.1" xmlns="http://www.w3.org/2000/svg">
<defs></defs>

<g id="Layer_2">
<g transform="matrix( 0.2443389892578125, 0, 0, 0.2443389892578125, -5.6,-13.9)" id="Layer_1">
<g>
<g>
<g>
<path d="M 258 299
Q 258 298.5 257.75 298.3 252.85 294.45 245 297 245 297.5 245 298 248.25 300.25 257 299.05 257.5 299 258 299 Z" stroke="none" fill="#150200"></path>

<path d="M 268.85 300.25
Q 268.5 300 268 300 267.5 300 267.45 299.85 266.7 297.8 264 298 264 298.5 263.8 298.6 258.65 301.35 258 299 257.5 299 257 299.05 248.25 300.25 245 298 245 298.5 245 299 245 299.5 245.25 299.65 255 306 263 314 263 314.5 262.75 314.75 254 324 243 331 263.05 349.25 278.8 315.9 279 315.5 279 315 276.25 305.25 268.85 300.25 Z" stroke="none" fill="#020E17"></path>

<path d="M 163 308.5
L 163 309
Q 163 309.5 163.25 309.75 163.5 310 164 310 164 309.5 164 309 166.95 308.45 169.1 307.2 169.5 307 170 307 170 306.5 169.9 306.45 167.3 305.85 161 307 160.9 308.65 163 308.5 Z" stroke="none" fill="#6D6959"></path>

<path d="M 182 306
Q 182 305.5 182 305 181.5 305 181 305 176.5 305 172 305 172 305.5 172 306 172 306.5 172 307 176.5 307 181 307 181.5 307 182 307 182 306.5 182 306 Z" stroke="none" fill="#746E5C"></path>

<path d="M 189.75 305.7
Q 190 305.5 190 305 189.5 305 189 305 185.5 305 182 305 182 305.5 182 306 182 306.5 182 307 187.25 307.75 189.75 305.7 Z" stroke="none" fill="#677168"></path>

<path d="M 200 305
Q 200 304.5 200 304 201 304 201.8 303.6 202 303.5 202 303 201.5 303 201 302.95 194.35 302.35 190 304 190 304.5 190 305 194.5 305 199 305 199.5 305 200 305 Z" stroke="none" fill="#726E59"></path>

<path d="M 206 303
Q 205.5 303 205 303 203.5 303 202 303 202 303.5 201.8 303.6 201 304 200 304 200 304.5 200 305 204.8 305.3 207.8 303.6 208 303.5 208 303 207.5 303 207 303 206.5 303 206 303 Z" stroke="none" fill="#677269"></path>

<path d="M 220 303
Q 220 302.5 220 302 221 302 221.8 301.6 222 301.5 222 301 221.5 301 221 300.95 214 300.3 206 302 206 302.5 206 303 206.5 303 207 303 207.5 303 208 303 213.5 303 219 303 219.5 303 220 303 Z" stroke="none" fill="#776D57"></path>

<path d="M 232 299
Q 231.5 299 231 299.05 226.1 299.4 222 300 222 300.5 222 301 228.15 301.65 231.8 299.6 232 299.5 232 299 Z" stroke="none" fill="#846C4E"></path>

<path d="M 241.9 299.55
Q 242 299.5 242 299 241.5 299 241 299 236.5 299 232 299 232 299.5 231.8 299.6 228.15 301.65 222 301 222 301.5 221.8 301.6 221 302 220 302 220 302.5 220 303 231.55 302.05 241.9 299.55 Z" stroke="none" fill="#6E6F60"></path>

<path d="M 319 292
Q 319 291.5 319 291 319.2 284.4 309 286 312.95 289.6 318.1 291.8 318.5 292 319 292 Z" stroke="none" fill="#041B27"></path>

<path d="M 315 274
Q 315.85 276.15 318.05 276.85 318.5 277 319 277 319 276.5 318.9 276.05 317.9 272.05 315 274 Z" stroke="none" fill="#5E665F"></path>

<path d="M 288 289
Q 288 289.5 288 290 288 290.5 288 291 293.3 289.8 295.8 285.85 296 285.5 296 285 295.5 285 295.05 285.15 291.25 286.75 288 289 Z" stroke="none" fill="#756F5D"></path>

<path d="M 302 278
Q 302 277.5 302 277 310.9 281.15 308.15 273.95 308 273.5 308 273 307.5 273 307 273 305 273 303 273 302.5 273 302.1 273.2 301.5 273.5 301 274 301 275.5 301 277 301 277.5 301 278 301 278.5 301.25 278.75 301.5 279 302 279 302 278.5 302 278 Z" stroke="none" fill="#170803"></path>

<path d="M 301 278
L 300.5 278
Q 300.3 282.8 296 283 296 283.5 296 284 296 284.5 296 285 301.65 281.6 305.15 283.8 305.5 284 306 284 306 283.5 305.75 283.35 303.35 281.65 302 279 301.5 279 301.25 278.75 301 278.5 301 278 Z" stroke="none" fill="#586057"></path>

<path d="M 306 271
Q 306 271.5 306 272 307.5 272 309 272 309.5 272 310 272 310 271.5 310 271 310 270 310 269 310 268.5 310 268 309.5 268 309.45 268.15 308.7 270.7 306 271 Z" stroke="none" fill="#776B55"></path>

<path d="M 306 272
Q 305.5 272 305 272 304 272 303 272 303 272.5 303 273 305 273 307 273 307.5 273 308 273 311.95 272.55 314.15 273.8 314.5 274 315 274 315 273.5 314.75 273.2 313.35 271.65 310 272 309.5 272 309 272 307.5 272 306 272 Z" stroke="none" fill="#3C4233"></path>

<path d="M 312.05 264
Q 312 263.5 312 263 311.5 263 311 263 310.5 263 310 263 310 265 310 267 310 267.5 310 268 310 268.5 310 269 312.2 267.7 312.05 264 Z" stroke="none" fill="#6F6E5F"></path>

<path d="M 313 259
Q 312.5 259 312 259 312 260.5 312 262 312 262.5 312 263 314.95 263.45 314.1 259.95 314 259.5 314 259 313.5 259 313 259 Z" stroke="none" fill="#766C56"></path>

<path d="M 282 291
Q 282 291.5 282 292 282 292.5 282 293 282 293.5 282 294 285.2 293.2 287.8 291.65 288 291.5 288 291 287.5 291 287 291 284.5 291 282 291 Z" stroke="none" fill="#726E5B"></path>

<path d="M 278 294
Q 278 294.5 278 295 280 295 281.9 294.55 282 294.5 282 294 282 293.5 282 293 281.5 293 281 293 279.5 293 278 293 278 293.5 278 294 Z" stroke="none" fill="#7B6E57"></path>

<path d="M 265 293
Q 265.5 293.5 265.8 294.1 266 294.5 266 295 267.5 295 269 295 269.5 295 270 295 270 294.5 269.8 294.15 268.7 292.3 265 293 Z" stroke="none" fill="#946645"></path>

<path d="M 263 295
Q 262.5 295 262 295 262 295.5 262 296 263 296.5 263.75 297.25 264 297.5 264 298 266.7 297.8 267.45 299.85 267.5 300 268 300 268 299.5 268 299 268 298.5 268 298 271.6 296.1 276.95 295.5 277 295.5 277 295 276.5 295 276.1 294.8 272.65 293.3 270 295 269.5 295 269 295 267.5 295 266 295 265.5 295 265 295 264.5 295 264 295 263.5 295 263 295 Z" stroke="none" fill="#6C6D60"></path>

<path d="M 258 293
Q 258 293.5 258 294 259 295.5 261 295.9 261.5 296 262 296 262 295.5 262 295 262.5 295 263 295 263.5 295 264 295 264 294.5 263.75 294.2 262.2 292.25 258 293 Z" stroke="none" fill="#8B623F"></path>

<path d="M 245 295
Q 245 295.5 245 296 245 296.5 245 297 252.85 294.45 257.75 298.3 258 298.5 258 299 258.65 301.35 263.8 298.6 264 298.5 264 298 264 297.5 263.75 297.25 263 296.5 262 296 261.5 296 261 295.9 259 295.5 258 294 257.5 294 257.05 293.85 250.15 291.15 245 295 Z" stroke="none" fill="#2E0F02"></path>

<path d="M 316 229
Q 316 228.5 316.05 228 316.9 221.6 314 219 314.15 224.35 315.45 228.85 315.5 229 316 229 Z" stroke="none" fill="#6B624F"></path>

<path d="M 314 205
Q 314 204.5 314.1 204 315.05 198.5 312 197 311.25 202.25 313.3 204.75 313.5 205 314 205 Z" stroke="none" fill="#636352"></path>

<path d="M 117 303.05
Q 117.5 303 118 303 118 302.5 117.8 302.1 116.7 299.8 114 299 112.8 303.7 117 303.05 Z" stroke="none" fill="#6E6F5E"></path>

<path d="M 147 340
Q 146.5 340 146 340 142.5 340 139 340 141.75 341.75 146.9 340.55 147 340.5 147 340 Z" stroke="none" fill="#2B444B"></path>

<path d="M 139 329
Q 139 329.5 139 330 142.25 329.25 145.9 328.5 146 328.5 146 328 145.5 328 145 328 141.45 327.95 139 329 Z" stroke="none" fill="#314D55"></path>

<path d="M 122 304
Q 122 303.5 122 303 121.5 303 121 303 119.5 303 118 303 117.6 305.95 121.05 305.1 121.5 305 122 305 122 304.5 122 304 Z" stroke="none" fill="#6C7061"></path>

<path d="M 130 307
Q 130 306.5 129.85 306.45 125.35 305.15 122 303 122 303.5 122 304 122 304.5 122 305 123.2 308.3 129 307.1 129.5 307 130 307 Z" stroke="none" fill="#776E59"></path>

<path d="M 137 309.1
Q 137.5 309 138 309 138 308.5 137.8 308.4 134.8 306.75 130 307 131.2 310.3 137 309.1 Z" stroke="none" fill="#7A6D58"></path>

<path d="M 154 320
Q 154 320.5 154.1 320.95 154.65 323.15 153 323 153 323.5 153 324 153 324.5 153 325 157.5 323.85 154.7 320.25 154.5 320 154 320 Z" stroke="none" fill="#384B4F"></path>

<path d="M 153.8 319.4
Q 154 319.5 154 320 154.5 320 154.7 320.25 157.5 323.85 153 325 152.5 325 152.3 325.25 150.45 327.45 146 327 146 327.5 146 328 146 328.5 145.9 328.5 142.25 329.25 139 330 139 330.5 138.75 330.75 137.5 332 136 333 135.15 338.35 138.1 339.8 138.5 340 139 340 142.5 340 146 340 146.5 340 147 340 163.45 335.45 173.75 324.75 174 324.5 174 324 171.1 315.4 164.25 310.65 164 310.5 164 310 163.5 310 163.25 309.75 163 309.5 163 309 162.5 309 162 309 160 309 158 309 158 309.5 157.75 309.8 152.65 315.5 146 311 148.15 316.85 153.8 319.4 Z" stroke="none" fill="#030C19"></path>

<path d="M 158 309
Q 157.5 309 157 309 151.5 309 146 309 146 309.5 146 310 146 310.5 146 311 152.65 315.5 157.75 309.8 158 309.5 158 309 Z" stroke="none" fill="#030405"></path>

<path d="M 157 309
Q 157.5 309 158 309 160 309 162 309 162.5 309 163 309
L 163 308.5
Q 160.9 308.65 161 307 160.5 307 160.2 306.75 152.75 300.55 145 307 145 307.5 145 308 145 308.5 145 309 145 310 145.4 310.8 145.5 311 146 311 146 310.5 146 310 146 309.5 146 309 151.5 309 157 309 Z" stroke="none" fill="#2A1005"></path>

<path d="M 79 306
Q 78.5 306 78 306 74.5 306 71 306 73.75 307.75 78.9 306.55 79 306.5 79 306 Z" stroke="none" fill="#304951"></path>

<path d="M 107 294
Q 107 294.5 107 295 107.8 297.2 111 297 111.5 297 112 297 112 296.5 111.75 296.3 110.3 295.25 110 293 109.5 293 109.1 293.2 108.5 293.5 108 294 107.5 294 107 294 Z" stroke="none" fill="#6B6859"></path>

<path d="M 98 286
Q 98 286.5 97.8 286.9 95.1 292.1 86 302 85.9 303.65 88.05 303.1 88.5 303 89 303 99.15 300.65 106.2 295.25 106.5 295 107 295 107 294.5 107 294 107.5 294 108 294 108 293.5 107.9 293 106.55 285.45 98 285 98 285.5 98 286 Z" stroke="none" fill="#0A060C"></path>

<path d="M 98 286
Q 97.5 286 97.1 286.2 82.75 293.25 67 299 66.3 304.7 70.9 305.5 71 305.5 71 306 74.5 306 78 306 78.5 306 79 306 83.5 304.5 88.9 303.5 89 303.5 89 303 88.5 303 88.05 303.1 85.9 303.65 86 302 95.1 292.1 97.8 286.9 98 286.5 98 286
M 75 304.5
L 75 304
Q 90.15 296.3 75 304.5 Z" stroke="none" fill="#011320"></path>

<path d="M 75 304
L 75 304.5
Q 90.15 296.3 75 304 Z" stroke="none" fill="#06030E"></path>

<path d="M 100 284
Q 99.5 284 99 284 98.5 284 98 284 98 284.5 98 285 106.55 285.45 107.9 293 108 293.5 108 294 108.5 293.5 109.1 293.2 109.5 293 110 293 110 292.5 110 292 110.35 282.65 100 284 Z" stroke="none" fill="#3D1B08"></path>

<path d="M 96 281
Q 96 280.5 96.1 280.05 96.9 276.6 94 277 93.3 280.2 95.05 280.85 95.5 281 96 281 Z" stroke="none" fill="#6E6E60"></path>

<path d="M 94 277
Q 94 276.5 94.1 276 94.75 271.75 92 271 91.25 275.2 93.2 276.75 93.5 277 94 277 Z" stroke="none" fill="#6F6E5C"></path>

<path d="M 90 261
Q 90.5 261 90.7 260.75 92.55 258.4 90 255 90 257.5 90 260 90 260.5 90 261
M 88 245
Q 88 245.5 88 246 88 247 88 248 88 248.5 88 249 88.5 249 88.9 248.8 91.45 247.4 88 244 88 244.5 88 245 Z" stroke="none" fill="#A46537"></path>

<path d="M 89 255
Q 88.5 255 88 255 87.45 260.1 89.35 262.75 89.5 263 90 263 90 262.5 90 262 90 261.5 90 261 90 260.5 90 260 90 257.5 90 255 89.5 255 89 255 Z" stroke="none" fill="#6E6F62"></path>

<path d="M 88 244
Q 88 243.5 88.1 243.05 89.1 238.9 86 239 85.45 243.55 87.3 245.75 87.5 246 88 246 88 245.5 88 245 88 244.5 88 244 Z" stroke="none" fill="#736F5D"></path>

<path d="M 85.3 230.75
Q 85.5 231 86 231 86 230.5 86.1 230 87.3 224.2 84 223 83.25 228.25 85.3 230.75 Z" stroke="none" fill="#6E6F5F"></path>

<path d="M 83.35 214.8
Q 83.5 215 84 215 84 214.5 84.1 214 85.35 207.15 82 205 81.25 211.25 83.35 214.8 Z" stroke="none" fill="#6C7063"></path>

<path d="M 80 175
Q 80 174.5 80.1 174 81.3 168.2 78 167 77.25 172.25 79.3 174.75 79.5 175 80 175 Z" stroke="none" fill="#69624F"></path>

<path d="M 80 189
Q 80 189.5 80 190 80.5 190.5 81.1 190.8 81.5 191 82 191 82 190.5 82.05 190 83.2 181.5 80 182 80 185.5 80 189 Z" stroke="none" fill="#716551"></path>

<path d="M 77.3 150.75
Q 77.5 151 78 151 78 150.5 78.1 150 79.3 144.2 76 143 75.25 148.25 77.3 150.75 Z" stroke="none" fill="#706550"></path>

<path d="M 78.1 122
Q 78 121.5 78 121 77.5 121 77 121 76.5 121 76 121 76 123.5 76 126 76 126.5 76 127 79.2 126.7 78.1 122
M 196 71
Q 196 71.5 196 72 196 72.5 196 73 207.25 73.75 215.9 71.55 216 71.5 216 71 215.5 71 215 71 205.5 71 196 71 Z" stroke="none" fill="#686452"></path>

<path d="M 154 77
Q 153.5 77 153 77 149.5 77 146 77 146 77.5 146 78 146 78.5 146 79 151.25 79.75 153.75 77.7 154 77.5 154 77 Z" stroke="none" fill="#71624B"></path>

<path d="M 120 80
Q 120 80.5 120 81 127.25 81.75 131.8 79.6 132 79.5 132 79 131.5 79 131 78.95 124.55 78.55 120 80 Z" stroke="none" fill="#696452"></path>

<path d="M 111.85 83.95
Q 112 83.5 112 83 111.5 83 111 83 109.5 83 108 83 108 83.5 108 84 108 84.5 108 85 111.2 85.7 111.85 83.95
M 274 75
Q 273.6 77.9 277.05 77.1 277.5 77 278 77 278 76.5 277.85 76.05 277.2 74.3 274 75 Z" stroke="none" fill="#6F6450"></path>

<path d="M 113 81
Q 113 81.5 113 82 113 82.5 113 83 117.75 83.75 119.75 81.75 120 81.5 120 81 119.5 81 119 81 116 81 113 81 Z" stroke="none" fill="#6C6552"></path>

<path d="M 98 89
Q 98 89.5 98 90 98 90.5 98 91 101.45 89.95 103.75 87.75 104 87.5 104 87 103.5 87 103 87.05 99.95 87.45 98 89 Z" stroke="none" fill="#686351"></path>

<path d="M 312 187
Q 312 186.5 312.1 186 313.3 180.2 310 179 309.25 184.25 311.3 186.75 311.5 187 312 187 Z" stroke="none" fill="#646455"></path>

<path d="M 301.05 108.85
Q 301.5 109 302 109 302 108.5 302.1 108.05 302.95 104.6 300 105 299.3 108.2 301.05 108.85 Z" stroke="none" fill="#6D634F"></path>

<path d="M 299.4 102.8
Q 299.5 103 300 103 300 102.5 300.05 102 300.3 97.2 296 97 297.75 99.75 299.4 102.8 Z" stroke="none" fill="#70634D"></path>

<path d="M 304 115
Q 304 114.5 304.1 114.05 304.95 110.6 302 111 301.3 114.2 303.05 114.85 303.5 115 304 115 Z" stroke="none" fill="#696350"></path>

<path d="M 242 69
Q 241.5 69 241 69 233.5 69 226 69 226 69.5 226 70 226 70.5 226 71 235.25 71.75 241.85 69.55 242 69.5 242 69 Z" stroke="none" fill="#6D6450"></path>

<path d="M 177.8 75.6
Q 178 75.5 178 75 177.5 75 177 75 169.5 75 162 75 162 75.5 162 76 162 76.5 162 77 173.25 77.5 177.8 75.6 Z" stroke="none" fill="#73634B"></path>

<path d="M 194 73
Q 193.5 73 193 72.95 184.3 72.3 178 74 178 74.5 178 75 187.25 75.75 193.85 73.55 194 73.5 194 73 Z" stroke="none" fill="#686453"></path>

<path d="M 294 93
Q 294 92.5 293.9 92 292.9 86.6 288 85 289.25 90.25 293.15 92.75 293.5 93 294 93 Z" stroke="none" fill="#6F6550"></path>

<path d="M 274 75
Q 274 74.5 273.75 74.25 270.9 71.6 266 71 267.15 75.35 273 75.05 273.5 75 274 75 Z" stroke="none" fill="#6C6450"></path>

<path d="M 266 71
Q 265.5 71 265 71 264.5 71 264 71 263.5 71 263 71.05 259.25 71.2 258 69 257.5 69 257 69 249.5 69 242 69 242 69.5 241.85 69.55 235.25 71.75 226 71 225.5 71 225 71 220.5 71 216 71 216 71.5 215.9 71.55 207.25 73.75 196 73 195.5 73 195 73 194.5 73 194 73 194 73.5 193.85 73.55 187.25 75.75 178 75 178 75.5 177.8 75.6 173.25 77.5 162 77 161.5 77 161 77 157.5 77 154 77 154 77.5 153.75 77.7 151.25 79.75 146 79 145.5 79 145 79 138.5 79 132 79 132 79.5 131.8 79.6 127.25 81.75 120 81 120 81.5 119.75 81.75 117.75 83.75 113 83 112.5 83 112 83 112 83.5 111.85 83.95 111.2 85.7 108 85 107.5 85 107.1 85.2 105.5 86 104 87 104 87.5 103.75 87.75 101.45 89.95 98 91 98 91.5 97.75 91.75 89.9 99.85 84 105 84 105.5 83.8 105.9 80.9 111.4 78 117 78 118.5 78 120 78 120.5 78 121 78 121.5 78.1 122 79.2 126.7 76 127 76 134.5 76 142 76 142.5 76 143 79.3 144.2 78.1 150 78 150.5 78 151 78 158.5 78 166 78 166.5 78 167 81.3 168.2 80.1 174 80 174.5 80 175 80 178 80 181 80 181.5 80 182 83.2 181.5 82.05 190 82 190.5 82 191 82 197.5 82 204 82 204.5 82 205 85.35 207.15 84.1 214 84 214.5 84 215 84 218.5 84 222 84 222.5 84 223 87.3 224.2 86.1 230 86 230.5 86 231 86 234.5 86 238 86 238.5 86 239 89.1 238.9 88.1 243.05 88 243.5 88 244 91.45 247.4 88.9 248.8 88.5 249 88 249 88 251.5 88 254 88 254.5 88 255 88.5 255 89 255 89.5 255 90 255 92.55 258.4 90.7 260.75 90.5 261 90 261 90 261.5 90 262 90 262.5 90 263 89.25 268.25 91.3 270.75 91.5 271 92 271 94.75 271.75 94.1 276 94 276.5 94 277 96.9 276.6 96.1 280.05 96 280.5 96 281 95.9 284.1 100 283.5
L 100 284
Q 110.35 282.65 110 292 110 292.5 110 293 110.3 295.25 111.75 296.3 112 296.5 112 297 114.15 296.4 114.05 298 114 298.5 114 299 116.7 299.8 117.8 302.1 118 302.5 118 303 119.5 303 121 303 121.5 303 122 303 125.35 305.15 129.85 306.45 130 306.5 130 307 134.8 306.75 137.8 308.4 138 308.5 138 309 141 309 144 309 144.5 309 145 309 145 308.5 145 308 145 307.5 145 307 152.75 300.55 160.2 306.75 160.5 307 161 307 167.3 305.85 169.9 306.45 170 306.5 170 307 170.5 307 171 307 171.5 307 172 307 172 306.5 172 306 172 305.5 172 305 176.5 305 181 305 181.5 305 182 305 185.5 305 189 305 189.5 305 190 305 190 304.5 190 304 194.35 302.35 201 302.95 201.5 303 202 303 203.5 303 205 303 205.5 303 206 303 206 302.5 206 302 214 300.3 221 300.95 221.5 301 222 301 222 300.5 222 300 226.1 299.4 231 299.05 231.5 299 232 299 236.5 299 241 299 241.5 299 242 299 242 298.5 242 298 242 297.5 242 297 244.55 294.75 244.5 299
L 245 299
Q 245 298.5 245 298 245 297.5 245 297 245 296.5 245 296 245 295.5 245 295 250.15 291.15 257.05 293.85 257.5 294 258 294 258 293.5 258 293 262.2 292.25 263.75 294.2 264 294.5 264 295 264.5 295 265 295 265.5 295 266 295 266 294.5 265.8 294.1 265.5 293.5 265 293 268.7 292.3 269.8 294.15 270 294.5 270 295 272.65 293.3 276.1 294.8 276.5 295 277 295 277.5 295 278 295 278 294.5 278 294 278 293.5 278 293 279.5 293 281 293 281.5 293 282 293 282 292.5 282 292 282 291.5 282 291 284.5 291 287 291 287.5 291 288 291 288 290.5 288 290 288 289.5 288 289 291.25 286.75 295.05 285.15 295.5 285 296 285 296 284.5 296 284 296 283.5 296 283 300.3 282.8 300.5 278
L 301 278
Q 301 277.5 301 277 301 275.5 301 274 301.5 273.5 302.1 273.2 302.5 273 303 273 303 272.5 303 272 304 272 305 272 305.5 272 306 272 306 271.5 306 271 308.7 270.7 309.45 268.15 309.5 268 310 268 310 267.5 310 267 310 265 310 263 310.5 263 311 263 311.5 263 312 263 312 262.5 312 262 312 260.5 312 259 312.5 259 313 259 313.5 259 314 259 314 258.5 314 258 314 256.5 314 255 317.2 249.7 316.05 240 316 239.5 316 239 316 238.5 316 238 316 233.5 316 229 315.5 229 315.45 228.85 314.15 224.35 314 219 314 218.5 314 218 314 211.5 314 205 313.5 205 313.3 204.75 311.25 202.25 312 197 312 196.5 312 196 312 191.5 312 187 311.5 187 311.3 186.75 309.25 184.25 310 179 310 178.5 309.95 178 306.55 146.95 304 115 303.5 115 303.05 114.85 301.3 114.2 302 111 302 110.5 302 110 302 109.5 302 109 301.5 109 301.05 108.85 299.3 108.2 300 105 300 104.5 300 104 300 103.5 300 103 299.5 103 299.4 102.8 297.75 99.75 296 97 296 96.5 295.85 96.45 293.8 95.7 294 93 293.5 93 293.15 92.75 289.25 90.25 288 85 287.5 85 287.25 84.75 282.8 80.75 278 77 277.5 77 277.05 77.1 273.6 77.9 274 75 273.5 75 273 75.05 267.15 75.35 266 71
M 252.95 79.5
Q 253 79.5 253 80 254.5 80 256 80 256.5 80 257 80 257 79.5 257 79 266.4 77.55 267.5 83
L 267 83
Q 266.9 84.65 269 84.5
L 269 85
Q 272.75 85.75 274.4 88.8 274.5 89 275 89 275 88.5 275 88 275 87.5 275 87 281.5 88.5 283.8 94.05 284 94.5 284 95 290.45 97.05 290 106 290 106.5 290 107 292.8 103.3 291.5 110.9 291.5 111 291 111 291 113 291.45 114.9 291.5 115 292 115 292 114.5 292 114 292 113.5 292 113 295.85 117.9 294.1 126 294 126.5 294 127 294 127.5 294 128 294 128.5 294 129 298.2 144.8 298 165 298 165.5 298 166 298 167.5 298 169 298 169.5 298 170 298.5 170 299 170 300.75 175.75 299.5 183.95 299.5 184 299 184 298.3 187.2 299.75 188.3 300 188.5 300 189 302.65 188.35 302.1 191 302 191.5 302 192 302 192.5 302.05 193 302.75 197.75 301 200 300.3 203.2 301.75 204.3 302 204.5 302 205 304.45 209.7 304.5 220
L 304 220
Q 304 220.5 304.15 220.95 307.45 233.15 306 255 305.5 255 305.35 255.25 302.35 259.35 302 266 301.5 266 301.45 266.15 299.9 271.65 290 275 290 275.5 289.85 275.95 287.9 280.9 281 281 280.5 281 280 281 280 281.5 279.75 281.65 266.85 290.9 250 287 249.5 287 249 287 246.5 287 244 287 244 287.5 243.85 287.55 217.15 295.55 192 293 192 293.5 191.85 293.55 176.8 298.8 159 297 158.5 297 158 297.1 115.45 305 102 269 102 268.5 101.9 268 101.5 266 101 264 101 263.5 101 263 100.5 263 100 263 99.5 263 99 263
L 99 263.5
Q 97.35 263.1 98 255 98 254.5 98 254 98 250.5 98 247 98 246.5 98 246 98 243.5 98 241 97.5 241 97.4 240.8 95.25 236.75 96 230 96.5 230 97 230 97 229.5 97.1 229 97.7 226.3 96 226
L 96 226.5
Q 91.3 213.7 92 195 91.5 195 91.5 194.9 89.35 185.15 90 173 89.5 173 89.35 172.75 87.25 169.75 88 164 88 163.5 88 163 88 159 88 155 87.5 155 87.45 154.85 85.25 148.75 86 140 86.5 140 87 140 87 139.5 87 139 87 138.5 87 138 86.5 138 86.1 138.2 84.45 139 85 133 85.5 133 86 133 86 132.5 86 132 86 126.5 86 121 90.3 109.8 99 103.5
L 99 104
Q 99.5 104 99.75 103.75 100 103.5 100 103 100 102.5 100 102 100 101.5 100 101 106.55 92.05 121 91.5
L 121 92
Q 121.5 92 121.75 91.75 122 91.5 122 91 122 90.5 122 90 127.95 88.45 136 88.95 136.5 89 137 89 142.7 85.7 153 86.95 153.5 87 154 87 154 86.5 154 86 158 86 161.95 86.5 162 86.5 162 87 162.5 87 163 87 163.5 87 164 87 164 86.5 164 86 175 85.5 184.05 83.1 184.5 83 185 83 192 83 199 83 199.5 83 200 83 200.5 83 201 83 201 82.5 200.8 82.1 200.5 81.5 200 81 218.8 79.8 238 79 238.5 79 239 79 246 79 252.95 79.5 Z" stroke="none" fill="#9C612B"></path>

<path d="M 222 288
Q 222 288.5 222 289 226 289 229.95 288.5 230 288.5 230 288 229.5 288 229 288 225.5 288 222 288 Z" stroke="none" fill="#D8AA31"></path>

<path d="M 189 251
Q 188.5 251 188 251 185 251 182 251 185.9 253.3 188.8 251.65 189 251.5 189 251 Z" stroke="none" fill="#D9BE70"></path>

<path d="M 191 249
Q 190.5 249 190.05 249.2 186.6 250.6 181 250 181 250.5 181.25 250.75 181.5 251 182 251 185 251 188 251 188.5 251 189 251 190 250.5 190.75 249.75 191 249.5 191 249 Z" stroke="none" fill="#574105"></path>

<path d="M 172 233
Q 172 232.5 172 232 171.7 225.8 170 221 169.35 228.15 171.4 232.8 171.5 233 172 233 Z" stroke="none" fill="#C4A961"></path>

<path d="M 168 213
Q 168 212.5 167.95 212 167.45 208.05 166 205 165.7 209.8 167.4 212.8 167.5 213 168 213 Z" stroke="none" fill="#D8BA6D"></path>

<path d="M 210 242
Q 210 242.5 210 243 216.2 242.2 217.85 236.95 218 236.5 218 236 217.5 236 217.35 236.25 214.6 240.1 210 242 Z" stroke="none" fill="#C4AA63"></path>

<path d="M 204 247
Q 203.5 247 203 247.05 197.1 247.9 192 248 192 248.5 192 249 199.25 249.75 203.8 247.6 204 247.5 204 247 Z" stroke="none" fill="#D2BA76"></path>

<path d="M 281 280
Q 281 280.5 281 281 287.9 280.9 289.85 275.95 290 275.5 290 275 289.5 275 289 275 289 275.5 288.8 275.6 284.7 277.7 281 280 Z" stroke="none" fill="#A56E11"></path>

<path d="M 250 286
Q 250 286.5 250 287 266.85 290.9 279.75 281.65 280 281.5 280 281 279.5 281 279.1 281.2 267.8 286.8 250 286 Z" stroke="none" fill="#A26B07"></path>

<path d="M 243.85 287.55
Q 244 287.5 244 287 243.5 287 243 287.05 236.65 287.65 230 288 230 288.5 229.95 288.5 226 289 222 289 221.5 289 221 289.05 206.5 291 191 292 191 292.5 191 293 191.5 293 192 293 217.15 295.55 243.85 287.55 Z" stroke="none" fill="#A46F06"></path>

<path d="M 304.15 220.95
Q 304 220.5 304 220 303.5 220 303 220 303 220.5 303.1 221 305.7 236.8 304 254 303.5 254 303.45 254.15 299.2 267.2 289 274 289 274.5 289 275 289.5 275 290 275 299.9 271.65 301.45 266.15 301.5 266 302 266 302.35 259.35 305.35 255.25 305.5 255 306 255 307.45 233.15 304.15 220.95 Z" stroke="none" fill="#A56B0D"></path>

<path d="M 304 220
L 304.5 220
Q 304.45 209.7 302 205 301.6 212.9 302.9 219 303 219.5 303 220 303.5 220 304 220 Z" stroke="none" fill="#A66710"></path>

<path d="M 145.95 296.5
Q 141.5 296 137 296 139.75 297.75 145 297.05 145.5 297 146 297 146 296.5 145.95 296.5 Z" stroke="none" fill="#C99C1E"></path>

<path d="M 156 295
Q 156 295.5 156 296 160.5 296 164.95 295.5 165 295.5 165 295 164.5 295 164 295 160 295 156 295 Z" stroke="none" fill="#BF901D"></path>

<path d="M 105 273
Q 104.5 273 104.4 272.8 103.35 270.65 102 269 115.45 305 158 297.1 158.5 297 159 297 176.8 298.8 191.85 293.55 192 293.5 192 293 191.5 293 191 293 190.5 293 190 293 176.6 292.85 165 295 165 295.5 164.95 295.5 160.5 296 156 296 155.5 296 155 295.95 149.65 295.65 146 297 145.5 297 145 297.05 139.75 297.75 137 296 136.5 296 136.05 295.9 114.4 290.65 105 273 Z" stroke="none" fill="#A56D09"></path>

<path d="M 99 263
Q 99 262.5 99.05 262 99.75 257.25 98 255 97.35 263.1 99 263.5
L 99 263 Z" stroke="none" fill="#A3650A"></path>

<path d="M 98 254
Q 98 254.5 98 255 99.75 257.25 99.05 262 99 262.5 99 263 99.5 263 100 263 100.5 263 101 263 101 262.5 100.95 262 100.05 253.95 98 247 98 250.5 98 254 Z" stroke="none" fill="#BD8125"></path>

<path d="M 101.9 268
Q 102 268.5 102 269 103.35 270.65 104.4 272.8 104.5 273 105 273 105 272.5 104.9 272 103.9 267.1 101 264 101.5 266 101.9 268 Z" stroke="none" fill="#D2983A"></path>

<path d="M 98 238
Q 98 237.5 98.05 237 98.75 232.25 97 230 97 234 97.5 237.95 97.5 238 98 238 Z" stroke="none" fill="#DC9F45"></path>

<path d="M 97 230
Q 96.5 230 96 230 95.25 236.75 97.4 240.8 97.5 241 98 241 98 240.5 98 240 98 239 98 238 97.5 238 97.5 237.95 97 234 97 230 Z" stroke="none" fill="#A86A0F"></path>

<path d="M 158 169
Q 158 168.5 157.95 168 157.55 164.45 156 162 155.25 166.75 157.25 168.75 157.5 169 158 169 Z" stroke="none" fill="#C8AA60"></path>

<path d="M 93 195
Q 92.5 195 92 195 91.3 213.7 96 226.5
L 96 226
Q 96 225.5 96 225 95.2 209.3 93 195 Z" stroke="none" fill="#AB6E15"></path>

<path d="M 93 193
Q 93 192.5 93.05 192 93.75 186.75 92 184 92 188.5 92.5 192.95 92.5 193 93 193 Z" stroke="none" fill="#D7A42D"></path>

<path d="M 92 184
Q 92 183.5 92.05 183 92.75 178.25 91 176 91 180 91.5 183.95 91.5 184 92 184 Z" stroke="none" fill="#D69D33"></path>

<path d="M 90 172
Q 90 172.5 90 173 89.35 185.15 91.5 194.9 91.5 195 92 195 92.5 195 93 195 93 194.5 93 194 93 193.5 93 193 92.5 193 92.5 192.95 92 188.5 92 184 91.5 184 91.5 183.95 91 180 91 176 91 175.5 91.1 175 91.7 172.3 90 172 Z" stroke="none" fill="#A66A0B"></path>

<path d="M 90 166
L 89.5 166
Q 89.65 163.9 88 164 87.25 169.75 89.35 172.75 89.5 173 90 173 90 172.5 90 172 90 171.5 90 171 90 168.5 90 166 Z" stroke="none" fill="#A3640B"></path>

<path d="M 88 154
Q 88 154.5 88 155 88 159 88 163 88 163.5 88 164 89.65 163.9 89.5 166
L 90 166
Q 90 165.5 89.95 165 89.45 159.05 88 154 Z" stroke="none" fill="#B27617"></path>

<path d="M 87 140
Q 86.5 140 86 140 85.25 148.75 87.45 154.85 87.5 155 88 155 88 154.5 88 154 88 153.5 88 153 88 148 88 143 87.5 143 87.45 142.85 87 141.5 87 140 Z" stroke="none" fill="#AB6D0F"></path>

<path d="M 86 133
Q 85.5 133 85 133 84.45 139 86.1 138.2 86.5 138 87 138 87 137.5 87 137 87 136.5 87 136 86.5 136 86.45 135.85 86 134.5 86 133 Z" stroke="none" fill="#A36611"></path>

<path d="M 88 126
Q 87.5 126 87 126 87 130.5 87 135 87 135.5 87 136 87 136.5 87 137 87 137.5 87 138 87 138.5 87 139 87 139.5 87 140 87 141.5 87.45 142.85 87.5 143 88 143 88 142.5 88 142 88 134 88 126 Z" stroke="none" fill="#ECB052"></path>

<path d="M 99 104
L 99 103.5
Q 90.3 109.8 86 121 86 126.5 86 132 86 132.5 86 133 86 134.5 86.45 135.85 86.5 136 87 136 87 135.5 87 135 87 130.5 87 126 87.5 126 88 126 88 125.5 88 125 88 124.5 88 124 91.5 112.5 98.75 104.75 99 104.5 99 104 Z" stroke="none" fill="#AB6E10"></path>

<path d="M 151.8 146.1
Q 150.25 143.25 151 138 150.5 138 150 138 149.25 143.75 151.35 146.75 151.5 147 152 147 152 146.5 151.8 146.1 Z" stroke="none" fill="#E4BF6C"></path>

<path d="M 151 138
Q 150.25 143.25 151.8 146.1 152 146.5 152 147 152 148 152.4 148.8 152.5 149 153 149 153 148.5 152.9 148 151.65 142.35 152 135 151.5 135 151 135 151 136 151 137 151 137.5 151 138 Z" stroke="none" fill="#9D7424"></path>

<path d="M 161.95 86.5
Q 158 86 154 86 154 86.5 154 87 157.5 87 161 87 161.5 87 162 87 162 86.5 161.95 86.5 Z" stroke="none" fill="#9B5C04"></path>

<path d="M 137 89
Q 137 89.5 137 90 144.4 88.4 154 88.5
L 154 88
Q 154 87.5 154 87 153.5 87 153 86.95 142.7 85.7 137 89 Z" stroke="none" fill="#AB6E18"></path>

<path d="M 122 90
Q 122 90.5 122 91 129.7 91.2 136 90.1 136.5 90 137 90 137 89.5 137 89 136.5 89 136 88.95 127.95 88.45 122 90 Z" stroke="none" fill="#A86B15"></path>

<path d="M 121 92
L 121 91.5
Q 106.55 92.05 100 101 100 101.5 100 102 100 102.5 100 103 108.45 95.95 120.05 92.15 120.5 92 121 92 Z" stroke="none" fill="#A76D11"></path>

<path d="M 302.05 193
Q 302 192.5 302 192 301.5 192 301 192 301 195 301 198 301 198.5 301 199 301 199.5 301 200 302.75 197.75 302.05 193 Z" stroke="none" fill="#9D5F03"></path>

<path d="M 302.1 191
Q 302.65 188.35 300 189 300 194 300.5 198.95 300.5 199 301 199 301 198.5 301 198 301 195 301 192 301.5 192 302 192 302 191.5 302.1 191 Z" stroke="none" fill="#B17320"></path>

<path d="M 299 184
Q 299.5 184 299.5 183.95 300.75 175.75 299 170 299 174.5 299 179 299 179.5 299 180 299 181.5 299 183 299 183.5 299 184 Z" stroke="none" fill="#A36602"></path>

<path d="M 299 170
Q 298.5 170 298 170 298 175 298.5 179.95 298.5 180 299 180 299 179.5 299 179 299 174.5 299 170 Z" stroke="none" fill="#C28530"></path>

<path d="M 297 159
Q 296.5 159 296 159 296 159.5 296 160 295.85 165.65 297.45 169.85 297.5 170 298 170 298 169.5 298 169 298 167.5 298 166 297.5 166 297.5 165.95 297 162.5 297 159 Z" stroke="none" fill="#D79D3E"></path>

<path d="M 296 159
Q 296.5 159 297 159 297 158.5 297 158 296.85 153.7 295 151 295 155.5 295.5 159.95 295.5 160 296 160 296 159.5 296 159 Z" stroke="none" fill="#E2AB3F"></path>

<path d="M 244 191
Q 244 191.5 244 192 244.5 192 244.5 191.9 245.75 184.25 244 179 244 185 244 191 Z" stroke="none" fill="#5F3E01"></path>

<path d="M 295 143
Q 295 142.5 295.05 142 295.75 137.25 294 135 294 139 294.5 142.95 294.5 143 295 143 Z" stroke="none" fill="#CA8C34"></path>

<path d="M 293 128
Q 292.5 128 292 128 292 128.5 292 129 291.95 139.9 294.45 148.85 294.5 149 295 149 295 148.5 295 148 295 145.5 295 143 294.5 143 294.5 142.95 294 139 294 135 293.5 135 293.5 134.95 293 131.5 293 128 Z" stroke="none" fill="#F0AF4D"></path>

<path d="M 294 134
Q 294 131.5 294 129 294 128.5 294 128 294 127.5 294 127 293.5 127 293 127 293 127.5 293 128 293 131.5 293.5 134.95 293.5 135 294 135 294 134.5 294 134 Z" stroke="none" fill="#CD9036"></path>

<path d="M 294 129
Q 294 131.5 294 134 294 134.5 294 135 295.75 137.25 295.05 142 295 142.5 295 143 295 145.5 295 148 295 148.5 295 149 295 149.5 295 150 295 150.5 295 151 296.85 153.7 297 158 297 158.5 297 159 297 162.5 297.5 165.95 297.5 166 298 166 298 165.5 298 165 298.2 144.8 294 129 Z" stroke="none" fill="#A7680B"></path>

<path d="M 292 113
Q 292 113.5 292 114 292 114.5 292 115 293.45 119.55 293.05 126 293 126.5 293 127 293.5 127 294 127 294 126.5 294.1 126 295.85 117.9 292 113 Z" stroke="none" fill="#A7680D"></path>

<path d="M 290.85 110.05
Q 291 110.5 291 111 291.5 111 291.5 110.9 292.8 103.3 290 107 290 107.5 290 108 290.5 109 290.85 110.05 Z" stroke="none" fill="#A6630F"></path>

<path d="M 163.85 192.05
Q 163 189.5 162 187 161.5 187 161 187 161 191 163.2 192.75 163.5 193 164 193 164 192.5 163.85 192.05 Z" stroke="none" fill="#D5B657"></path>

<path d="M 163 126
L 162.5 126
Q 168 119.45 157 125 156.5 125 156.05 125.15 150.3 126.65 147 123 146.5 123 146.2 123.25 139.2 129.35 132 125 132 125.5 132.25 125.8 135.8 129.7 129 131 129 130.5 128.95 130 128 124 117 128 116.5 128 116.3 127.75 113.1 123.85 109 128 108.5 128 108.15 127.8 103.25 124.9 106 123 106 122.5 105.75 122.3 101.255078125 118.58671875 102.9 107.5 102.8576171875 107.69921875 102.75 107.85 97.15 115.65 92 124 92 124.5 92.1 125 92.9 129.45 91 136 91.5 136 91.55 136.15 94.9 145.15 90 145 96.35 155.25 95.1 162 95 162.5 95 163 98.85 173.5 99.95 161 100 160.5 100 160 99.85 156 102.8 162.1 103 162.5 103 163 106.65 165.15 113.85 162.55 114 162.5 114 162 114.45 158 106 159.5
L 106 159
Q 112.9 159.9 114.45 155.15 114.5 155 115 155 123.5 154.45 129.8 157.4 130 157.5 130 158 132.4 169.95 138 160.5
L 138 161
Q 146.3 165.15 145.1 159 145 158.5 145 158 149.35 154.15 144.25 147.8 144 147.5 144 147 150.7 137.3 148.5 131
L 149 131
Q 151.9 127.4 158 127.5
L 158 128
Q 159.3 126.8 162 126.95 162.5 127 163 127 163 126.5 163 126 Z" stroke="none" fill="#F8BA3D"></path>

<path d="M 180 126
Q 179.5 126 179 126 172.5 126 166 126 165.5 126 165 126 164 126 163 126 163 126.5 163 127 174 127 185 127 185.5 127 186 127 186 126.5 186 126 185.5 126 185 126 182.5 126 180 126 Z" stroke="none" fill="#603E05"></path>

<path d="M 180 126
Q 180 125.5 179.95 125.5 174 125 168 125 167.5 125 167 125 166.5 125 166 125 166 125.5 166 126 172.5 126 179 126 179.5 126 180 126 Z" stroke="none" fill="#BF8F3F"></path>

<path d="M 179.95 125.5
Q 180 125.5 180 126 182.5 126 185 126 185.5 126 186 126 186 125.5 185.8 125.05 183.35 119.15 167 123 167.5 123.5 167.8 124.1 168 124.5 168 125 174 125 179.95 125.5 Z" stroke="none" fill="#F6B941"></path>

<path d="M 226 144
Q 225.5 144 225 144 224.5 144 224 144 225.85 147.15 229.1 148.8 229.5 149 230 149 230 148.5 229.75 148.35 227.35 146.65 226 144 Z" stroke="none" fill="#765317"></path>

<path d="M 224 144
Q 224 143.5 223.75 143.3 209.95 132.05 190 127 189.5 127 189 127 187.5 127 186 127 185.5 127 185 127 174 127 163 127 162.5 127 162 126.95 159.3 126.8 158 128 157.5 128 157.15 128.25 154 130.5 152 134 152 134.5 152 135 151.65 142.35 152.9 148 153 148.5 153 149 153.9 155.6 155.85 161.05 156 161.5 156 162 157.55 164.45 157.95 168 158 168.5 158 169 160.7 176.8 161.95 186 162 186.5 162 187 163 189.5 163.85 192.05 164 192.5 164 193 165.25 198.25 165.95 204 166 204.5 166 205 167.45 208.05 167.95 212 168 212.5 168 213 169 216.5 169.9 220.05 170 220.5 170 221 171.7 225.8 172 232 172 232.5 172 233 173.65 237.85 174.9 243.05 175 243.5 175 244 177.9 246.6 180.3 249.75 180.5 250 181 250 186.6 250.6 190.05 249.2 190.5 249 191 249 191.5 249 192 249 192 248.5 192 248 197.1 247.9 203 247.05 203.5 247 204 247 206.5 245 209.15 243.25 209.5 243 210 243 210 242.5 210 242 214.6 240.1 217.35 236.25 217.5 236 218 236 237.3 220.8 243.9 192.95 244 192.5 244 192 244 191.5 244 191 244 185 244 179 244 178.5 243.9 178 240.5 160 230 149 229.5 149 229.1 148.8 225.85 147.15 224 144
M 178.25 131.8
Q 178 131.5 178 131 187.05 131.95 193.8 135.4 194 135.5 194 136 183 137.45 178.25 131.8
M 168.45 141.85
Q 168 140.5 168 139 179.5 138.5 188.9 140.5 189 140.5 189 141 189.5 141 190 141 190.5 141 191 141 199.8 143.2 205.75 148.3 206 148.5 206 149 209.7 149.8 211.75 152.2 212 152.5 212 153 214.5 155 216.75 157.25 217 157.5 217 158 219.65 159.35 220.8 162.1 221 162.5 221 163 221.5 164 221.85 165.05 222 165.5 222 166 223.5 168 224.8 170.15 225 170.5 225 171 227 173 227 177 227 177.5 227 178 227 178.5 227 179 227 179.5 227 180 228.75 184.75 227.5 191.9 227.5 192 227 192 227 192.5 227.1 192.95 227.65 195.15 226 195 226 195.5 225.9 196 224.05 204.55 219 210 219 210.5 218.95 211 218.7 212.7 217 213 217 213.5 217 214 217 214.5 216.75 214.75 216 215.5 215 216 215 216.5 214.75 216.8 210.6 221.6 206 226 206 226.5 205.75 226.8 202.7 230.2 198 232 197.5 232 197.15 232.25 195.95 232.95 194 233 194 233.5 193.85 233.55 189.3 235.2 190 231 189.5 231 189.45 230.9 189 229 189 227 188.5 227 188.5 226.95 187.7 220.75 186 216 186 215.5 185.85 215.05 184 209.55 183 203 183 202.5 182.85 202.05 182 199 181 196 181 195.5 180.85 195.05 179.95 192.5 180 189 180 188.5 179.85 188.05 176.85 179.65 175 170 174.5 170 174.5 169.95 173.9 165.6 173 162 173 161.5 173 161 172.5 161 172.45 160.85 171.25 157.75 171 154 171 153.5 170.85 153.05 169.45 149.55 169 145 169 144.5 169 144 169 143 169 142 168.5 142 168.45 141.85
M 168.05 192
Q 168 191.5 168 191 180.1 183.7 171 199.5
L 171 199
Q 168.3 194 168.05 192
M 228.25 161.7
Q 228 161.5 228 161 233.8 166.45 228.25 161.7
M 228.15 167.95
Q 228 167.5 228 167 231.4 175.8 228.15 167.95
M 222.25 151.85
Q 222 151.5 222 151 230.9 163.7 222.25 151.85
M 232.05 176
Q 232 175.5 232 175 241.25 179.15 237.55 188.85 237.5 189 237 189 232.9 186.7 232.05 176
M 230.25 193.8
Q 230 193.5 230 193 236.5 201.8 230.25 193.8
M 237.2 197.25
Q 237.5 197 238 197 238.25 200.15 236.25 203.15 236 203.5 236 204 229.6 217.25 224.25 213.65 224 213.5 224 213 229.45 204 237.2 197.25
M 154 137.5
L 154 137
Q 172.5 134.15 154 137.5
M 174.2 209.9
Q 174 209.5 174 209 181.55 216.7 176 222.5
L 176 222
Q 176.7 214.55 174.2 209.9
M 178.25 234.7
Q 178 234.5 178 234 185.3 240 178.25 234.7
M 200.15 237.55
Q 200 237.5 200 237 209.5 240.15 200.15 237.55 Z" stroke="none" fill="#190903"></path>

<path d="M 200 237
Q 200 237.5 200.15 237.55 209.5 240.15 200 237 Z" stroke="none" fill="#090214"></path>

<path d="M 178 234
Q 178 234.5 178.25 234.7 185.3 240 178 234
M 174 209
Q 174 209.5 174.2 209.9 176.7 214.55 176 222
L 176 222.5
Q 181.55 216.7 174 209
M 228 161
Q 228 161.5 228.25 161.7 233.8 166.45 228 161 Z" stroke="none" fill="#02030B"></path>

<path d="M 154 137
L 154 137.5
Q 172.5 134.15 154 137 Z" stroke="none" fill="#0A0214"></path>

<path d="M 238 197
Q 237.5 197 237.2 197.25 229.45 204 224 213 224 213.5 224.25 213.65 229.6 217.25 236 204 236 203.5 236.25 203.15 238.25 200.15 238 197 Z" stroke="none" fill="#030411"></path>

<path d="M 230 193
Q 230 193.5 230.25 193.8 236.5 201.8 230 193 Z" stroke="none" fill="#020313"></path>

<path d="M 232 175
Q 232 175.5 232.05 176 232.9 186.7 237 189 237.5 189 237.55 188.85 241.25 179.15 232 175 Z" stroke="none" fill="#03030E"></path>

<path d="M 222 151
Q 222 151.5 222.25 151.85 230.9 163.7 222 151 Z" stroke="none" fill="#01030B"></path>

<path d="M 228 167
Q 228 167.5 228.15 167.95 231.4 175.8 228 167 Z" stroke="none" fill="#0B0316"></path>

<path d="M 168 191
Q 168 191.5 168.05 192 168.3 194 171 199
L 171 199.5
Q 180.1 183.7 168 191 Z" stroke="none" fill="#070212"></path>

<path d="M 188.5 226.95
Q 188.5 227 189 227 189.5 227 189.5 226.95 190.55 218.95 186 216 187.7 220.75 188.5 226.95 Z" stroke="none" fill="#D7B74F"></path>

<path d="M 194 233
Q 193.5 233 193.1 232.8 192.5 232.5 192 232 192 231.5 191.8 231.4 191 231 190 231 189.3 235.2 193.85 233.55 194 233.5 194 233 Z" stroke="none" fill="#BFA44F"></path>

<path d="M 194 233
Q 195.95 232.95 197.15 232.25 197.5 232 198 232 198 231.5 197.95 231.5 194.45 230.95 192 232 192.5 232.5 193.1 232.8 193.5 233 194 233 Z" stroke="none" fill="#E4C367"></path>

<path d="M 215 216
L 215 215.5
Q 209.8 218.8 206 224 206 224.5 206 225 206 225.5 206 226 210.6 221.6 214.75 216.8 215 216.5 215 216 Z" stroke="none" fill="#DBBB5F"></path>

<path d="M 219 210
L 219 209.5
Q 217 211 215 213 215.5 213.5 216.1 213.8 216.5 214 217 214 217 213.5 217 213 218.7 212.7 218.95 211 219 210.5 219 210 Z" stroke="none" fill="#DDBB64"></path>

<path d="M 227 192
Q 227.5 192 227.5 191.9 228.75 184.75 227 180 227 185.5 227 191 227 191.5 227 192 Z" stroke="none" fill="#906E1C"></path>

<path d="M 227 178
Q 226.5 178 226 178 226 186 226 194 226 194.5 226 195 227.65 195.15 227.1 192.95 227 192.5 227 192 227 191.5 227 191 227 185.5 227 180 227 179.5 227 179 227 178.5 227 178 Z" stroke="none" fill="#D3B669"></path>

<path d="M 227 178
Q 227 177.5 227 177 227 173 225 171 225 172.5 225 174 225 174.5 225 175 226.65 174.9 226.1 177.05 226 177.5 226 178 226.5 178 227 178 Z" stroke="none" fill="#816529"></path>

<path d="M 221 163
Q 220.5 163 220.4 162.8 219.7 161.3 218 161 217.85 164.95 221.1 166.8 221.5 167 222 167 222 166.5 222 166 222 165.5 221.85 165.05 221.5 164 221 163 Z" stroke="none" fill="#DFBD68"></path>

<path d="M 211 152.9
Q 211.5 153 212 153 212 152.5 211.75 152.2 209.7 149.8 206 149 206 149.5 205.8 149.6 205 150 204 150 207 152 211 152.9 Z" stroke="none" fill="#D4AF61"></path>

<path d="M 217 158
Q 216.4 160.15 217.9 160.5 218 160.5 218 161 219.7 161.3 220.4 162.8 220.5 163 221 163 221 162.5 220.8 162.1 219.65 159.35 217 158 Z" stroke="none" fill="#8D7134"></path>

<path d="M 225 171
Q 225 170.5 224.8 170.15 223.5 168 222 166 222 166.5 222 167 223 171 224.45 174.85 224.5 175 225 175 225 174.5 225 174 225 172.5 225 171 Z" stroke="none" fill="#D7B666"></path>

<path d="M 182 196
Q 181.5 196 181 196 182 199 182.85 202.05 183 202.5 183 203 183.5 203 183.55 202.85 185 197.5 182 196 Z" stroke="none" fill="#DBB95F"></path>

<path d="M 182 196
Q 182 195.5 182.1 195 183.25 189.75 180 189 179.95 192.5 180.85 195.05 181 195.5 181 196 181.5 196 182 196 Z" stroke="none" fill="#DABA64"></path>

<path d="M 173 162
Q 173.9 165.6 174.5 169.95 174.5 170 175 170 175 169.5 175.05 169 175.65 163.85 173 162 Z" stroke="none" fill="#99771A"></path>

<path d="M 172 154
Q 171.5 154 171 154 171.25 157.75 172.45 160.85 172.5 161 173 161 173 160.5 172.95 160 172.5 157 172 154 Z" stroke="none" fill="#835E13"></path>

<path d="M 191 142
Q 191 141.5 191 141 190.5 141 190 141 189.5 141 189 141 188.5 141 188 141 187.5 141 187 141 187 141.5 187 142 187.3 143.7 190 143.1 190.5 143 191 143 191 142.5 191 142 Z" stroke="none" fill="#E1B862"></path>

<path d="M 191 141
Q 191 141.5 191 142 191 142.5 191 143 197.95 145.55 203.75 149.35 204 149.5 204 150 205 150 205.8 149.6 206 149.5 206 149 206 148.5 205.75 148.3 199.8 143.2 191 141 Z" stroke="none" fill="#CCAC62"></path>

<path d="M 182 143
Q 182 143.5 181.85 143.55 176.65 145.5 172 143 172 148 172 153 172 153.5 172 154 172.5 157 172.95 160 173 160.5 173 161 173 161.5 173 162 175.65 163.85 175.05 169 175 169.5 175 170 176.85 179.65 179.85 188.05 180 188.5 180 189 183.25 189.75 182.1 195 182 195.5 182 196 185 197.5 183.55 202.85 183.5 203 183 203 184 209.55 185.85 215.05 186 215.5 186 216 190.55 218.95 189.5 226.95 189.5 227 189 227 189 229 189.45 230.9 189.5 231 190 231 191 231 191.8 231.4 192 231.5 192 232 194.45 230.95 197.95 231.5 198 231.5 198 232 202.7 230.2 205.75 226.8 206 226.5 206 226 206 225.5 206 225 206 224.5 206 224 209.8 218.8 215 215.5
L 215 216
Q 216 215.5 216.75 214.75 217 214.5 217 214 216.5 214 216.1 213.8 215.5 213.5 215 213 217 211 219 209.5
L 219 210
Q 224.05 204.55 225.9 196 226 195.5 226 195 226 194.5 226 194 226 186 226 178 226 177.5 226.1 177.05 226.65 174.9 225 175 224.5 175 224.45 174.85 223 171 222 167 221.5 167 221.1 166.8 217.85 164.95 218 161 218 160.5 217.9 160.5 216.4 160.15 217 158 217 157.5 216.75 157.25 214.5 155 212 153 211.5 153 211 152.9 207 152 204 150 204 149.5 203.75 149.35 197.95 145.55 191 143 190.5 143 190 143.1 187.3 143.7 187 142 186.5 142 186 142.1 184 142.5 182 143 Z" stroke="none" fill="#F6C340"></path>

<path d="M 176 141
Q 175.5 141 175 140.95 169.3 140.3 169 145 169.45 149.55 170.85 153.05 171 153.5 171 154 171.5 154 172 154 172 153.5 172 153 172 148 172 143 176.65 145.5 181.85 143.55 182 143.5 182 143 181.5 143 181.4 142.8 180.25 140.25 176 141 Z" stroke="none" fill="#E3B44D"></path>

<path d="M 169 140
Q 169 140.5 169 141 169 141.5 169 142 169 143 169 144 169 144.5 169 145 169.3 140.3 175 140.95 175.5 141 176 141 176 140.5 175.95 140.5 172.5 140 169 140 Z" stroke="none" fill="#DFC179"></path>

<path d="M 168 139
Q 168 140.5 168.45 141.85 168.5 142 169 142 169 141.5 169 141 169 140.5 169 140 172.5 140 175.95 140.5 176 140.5 176 141 180.25 140.25 181.4 142.8 181.5 143 182 143 184 142.5 186 142.1 186.5 142 187 142 187 141.5 187 141 187.5 141 188 141 188.5 141 189 141 189 140.5 188.9 140.5 179.5 138.5 168 139 Z" stroke="none" fill="#C7A860"></path>

<path d="M 178 131
Q 178 131.5 178.25 131.8 183 137.45 194 136 194 135.5 193.8 135.4 187.05 131.95 178 131 Z" stroke="none" fill="#01030C"></path>

<path d="M 218 82
Q 217.5 82 217 82 212.5 82 208 82 208 82.5 208 83 213 83 217.95 82.5 218 82.5 218 82 Z" stroke="none" fill="#DCA14B"></path>

<path d="M 200 83
Q 199.5 83 199 83 192 83 185 83 185.3 84.7 188 84.1 188.5 84 189 84 194.5 84 199.95 83.5 200 83.5 200 83 Z" stroke="none" fill="#A26404"></path>

<path d="M 200.8 82.1
Q 201 82.5 201 83 204 83 207 83 207.5 83 208 83 208 82.5 208 82 212.5 82 217 82 217.5 82 218 82 227.55 80.55 238 80.05 238.5 80 239 80 239 79.5 239 79 238.5 79 238 79 218.8 79.8 200 81 200.5 81.5 200.8 82.1 Z" stroke="none" fill="#A5660B"></path>

<path d="M 166 87
Q 165.5 87 165 87 164.5 87 164 87 163.5 87 163 87 162.5 87 162 87 161.5 87 161 87 157.5 87 154 87 154 87.5 154 88 160 88 165.95 87.5 166 87.5 166 87 Z" stroke="none" fill="#C79136"></path>

<path d="M 165 87
Q 165.5 87 166 87 177.05 85.55 188.95 84.5 189 84.5 189 84 188.5 84 188 84.1 185.3 84.7 185 83 184.5 83 184.05 83.1 175 85.5 164 86 164 86.5 164 87 164.5 87 165 87 Z" stroke="none" fill="#A66A13"></path>

<path d="M 283 95
Q 282.5 95 282 95 286.9 100.1 289.45 107.85 289.5 108 290 108 290 107.5 290 107 290 106.5 290 106 290.45 97.05 284 95 283.5 95 283 95 Z" stroke="none" fill="#AE6F1B"></path>

<path d="M 275 88
Q 275 88.5 275 89 279.1 90.9 281.75 94.2 282 94.5 282 95 282.5 95 283 95 283.5 95 284 95 284 94.5 283.8 94.05 281.5 88.5 275 87 275 87.5 275 88 Z" stroke="none" fill="#A4640E"></path>

<path d="M 269 85
Q 269 85.5 268.75 85.85 266.3 89.6 274 97
L 273.5 97
Q 275.55 97.95 278 98 278 98.5 278.2 98.85 281.35 104.15 284 110
L 284 110.5
Q 276.05 109.05 277 103 276.5 103 276.15 103.25 274.1 104.7 268 112
L 268 112.5
Q 250.55 113.15 232 118 231.5 118 231 118 214.75 117.3 200 118 199.5 118 199.35 118.2 195.45 124.8 190 127 209.95 132.05 223.75 143.3 224 143.5 224 144 224.5 144 225 144 225.5 144 226 144 226 143.5 226 143 238.8 150.45 240.45 146.15 240.5 146 241 146 248.75 145.15 245.2 153.1 245 153.5 245 154 247.4 147.25 255 147 255.5 147 256 147 256.4 151.7 264.15 146.25 264.5 146 265 146 267 151.95 269 149.5
L 269 150
Q 282.25 146.35 287.85 144.55 288 144.5 288 144 284.8853515625 139.15859375 277.6 138.35 283.515234375 137.41328125 288.1 135.2 288.5 135 289 135 286.5 129.8 291 129.1 291.5 129 292 129 292 128.5 292 128 292.5 128 293 128 293 127.5 293 127 293 126.5 293.05 126 293.45 119.55 292 115 291.5 115 291.45 114.9 291 113 291 111 291 110.5 290.85 110.05 290.5 109 290 108 289.5 108 289.45 107.85 286.9 100.1 282 95 282 94.5 281.75 94.2 279.1 90.9 275 89 274.5 89 274.4 88.8 272.75 85.75 269 85 Z" stroke="none" fill="#F7BA3F"></path>

<path d="M 257 80
Q 256.5 80 256 80 254.5 80 253 80 252.5 80 252 80 245.5 80 239 80 238.5 80 238 80.05 227.55 80.55 218 82 218 82.5 217.95 82.5 213 83 208 83 207.5 83 207 83 204 83 201 83 200.5 83 200 83 200 83.5 199.95 83.5 194.5 84 189 84 189 84.5 188.95 84.5 177.05 85.55 166 87 166 87.5 165.95 87.5 160 88 154 88
L 154 88.5
Q 144.4 88.4 137 90 136.5 90 136 90.1 129.7 91.2 122 91 122 91.5 121.75 91.75 121.5 92 121 92 120.5 92 120.05 92.15 108.45 95.95 100 103 100 103.5 99.75 103.75 99.5 104 99 104 99 104.5 98.75 104.75 91.5 112.5 88 124 88 124.5 88 125 88 125.5 88 126 88 134 88 142 88 142.5 88 143 88 148 88 153 88 153.5 88 154 89.45 159.05 89.95 165 90 165.5 90 166 90 168.5 90 171 90 171.5 90 172 91.7 172.3 91.1 175 91 175.5 91 176 92.75 178.25 92.05 183 92 183.5 92 184 93.75 186.75 93.05 192 93 192.5 93 193 93 193.5 93 194 93 194.5 93 195 95.2 209.3 96 225 96 225.5 96 226 97.7 226.3 97.1 229 97 229.5 97 230 98.75 232.25 98.05 237 98 237.5 98 238 98 239 98 240 98 240.5 98 241 98 243.5 98 246 98 246.5 98 247 100.05 253.95 100.95 262 101 262.5 101 263 101 263.5 101 264 103.9 267.1 104.9 272 105 272.5 105 273 114.4 290.65 136.05 295.9 136.5 296 137 296 141.5 296 145.95 296.5 146 296.5 146 297 149.65 295.65 155 295.95 155.5 296 156 296 156 295.5 156 295 160 295 164 295 164.5 295 165 295 176.6 292.85 190 293 190.5 293 191 293 191 292.5 191 292 206.5 291 221 289.05 221.5 289 222 289 222 288.5 222 288 225.5 288 229 288 229.5 288 230 288 236.65 287.65 243 287.05 243.5 287 244 287 246.5 287 249 287 249.5 287 250 287 250 286.5 250 286 267.8 286.8 279.1 281.2 279.5 281 280 281 280.5 281 281 281 281 280.5 281 280 284.7 277.7 288.8 275.6 289 275.5 289 275 289 274.5 289 274 299.2 267.2 303.45 254.15 303.5 254 304 254 305.7 236.8 303.1 221 303 220.5 303 220 303 219.5 302.9 219 301.6 212.9 302 205 302 204.5 301.75 204.3 300.3 203.2 301 200 301 199.5 301 199 300.5 199 300.5 198.95 300 194 300 189 300 188.5 299.75 188.3 298.3 187.2 299 184 299 183.5 299 183 299 181.5 299 180 298.5 180 298.5 179.95 298 175 298 170 297.5 170 297.45 169.85 295.85 165.65 296 160 295.5 160 295.5 159.95 295 155.5 295 151 295 150.5 295 150 295 149.5 295 149 294.5 149 294.45 148.85 291.95 139.9 292 129 291.5 129 291 129.1 286.5 129.8 289 135 288.5 135 288.1 135.2 283.515234375 137.41328125 277.6 138.35 284.8853515625 139.15859375 288 144 288 144.5 287.85 144.55 282.25 146.35 269 150
L 269 149.5
Q 267 151.95 265 146 264.5 146 264.15 146.25 256.4 151.7 256 147 255.5 147 255 147 247.4 147.25 245 154 245 153.5 245.2 153.1 248.75 145.15 241 146 240.5 146 240.45 146.15 238.8 150.45 226 143 226 143.5 226 144 227.35 146.65 229.75 148.35 230 148.5 230 149 240.5 160 243.9 178 244 178.5 244 179 245.75 184.25 244.5 191.9 244.5 192 244 192 244 192.5 243.9 192.95 237.3 220.8 218 236 218 236.5 217.85 236.95 216.2 242.2 210 243 209.5 243 209.15 243.25 206.5 245 204 247 204 247.5 203.8 247.6 199.25 249.75 192 249 191.5 249 191 249 191 249.5 190.75 249.75 190 250.5 189 251 189 251.5 188.8 251.65 185.9 253.3 182 251 181.5 251 181.25 250.75 181 250.5 181 250 180.5 250 180.3 249.75 177.9 246.6 175 244 175 243.5 174.9 243.05 173.65 237.85 172 233 171.5 233 171.4 232.8 169.35 228.15 170 221 170 220.5 169.9 220.05 169 216.5 168 213 167.5 213 167.4 212.8 165.7 209.8 166 205 166 204.5 165.95 204 165.25 198.25 164 193 163.5 193 163.2 192.75 161 191 161 187 161.5 187 162 187 162 186.5 161.95 186 160.7 176.8 158 169 157.5 169 157.25 168.75 155.25 166.75 156 162 156 161.5 155.85 161.05 153.9 155.6 153 149 152.5 149 152.4 148.8 152 148 152 147 151.5 147 151.35 146.75 149.25 143.75 150 138 150.5 138 151 138 151 137.5 151 137 151 136 151 135 151.5 135 152 135 152 134.5 152 134 154 130.5 157.15 128.25 157.5 128 158 128
L 158 127.5
Q 151.9 127.4 149 131
L 148.5 131
Q 150.7 137.3 144 147 144 147.5 144.25 147.8 149.35 154.15 145 158 145 158.5 145.1 159 146.3 165.15 138 161
L 138 160.5
Q 132.4 169.95 130 158 130 157.5 129.8 157.4 123.5 154.45 115 155 114.5 155 114.45 155.15 112.9 159.9 106 159
L 106 159.5
Q 114.45 158 114 162 114 162.5 113.85 162.55 106.65 165.15 103 163 103 162.5 102.8 162.1 99.85 156 100 160 100 160.5 99.95 161 98.85 173.5 95 163 95 162.5 95.1 162 96.35 155.25 90 145 94.9 145.15 91.55 136.15 91.5 136 91 136 92.9 129.45 92.1 125 92 124.5 92 124 97.15 115.65 102.75 107.85 102.8576171875 107.69921875 102.9 107.5 101.255078125 118.58671875 105.75 122.3 106 122.5 106 123 103.25 124.9 108.15 127.8 108.5 128 109 128 113.1 123.85 116.3 127.75 116.5 128 117 128 128 124 128.95 130 129 130.5 129 131 135.8 129.7 132.25 125.8 132 125.5 132 125 139.2 129.35 146.2 123.25 146.5 123 147 123 150.3 126.65 156.05 125.15 156.5 125 157 125 168 119.45 162.5 126
L 163 126
Q 164 126 165 126 165.5 126 166 126 166 125.5 166 125 166.5 125 167 125 167.5 125 168 125 168 124.5 167.8 124.1 167.5 123.5 167 123 183.35 119.15 185.8 125.05 186 125.5 186 126 186 126.5 186 127 187.5 127 189 127 189.5 127 190 127 195.45 124.8 199.35 118.2 199.5 118 200 118 214.75 117.3 231 118 231.5 118 232 118 250.55 113.15 268 112.5
L 268 112
Q 274.1 104.7 276.15 103.25 276.5 103 277 103 276.05 109.05 284 110.5
L 284 110
Q 281.35 104.15 278.2 98.85 278 98.5 278 98 275.55 97.95 273.5 97
L 274 97
Q 266.3 89.6 268.75 85.85 269 85.5 269 85
L 269 84.5
Q 266.9 84.65 267 83 266.5 83 266.1 82.8 262.2 80.75 257 80
M 169 90.5
L 169 90
Q 174.35 88.35 182 88.95 182.5 89 183 89 176.7 90.7 169 90.5
M 190.1 87.5
Q 190 87.5 190 87 198.5 87 207 87 207.5 87 208 87 198.15 89.15 190.1 87.5
M 188.1 122.55
Q 188 122.5 188 122 195.3 124.3 188.1 122.55
M 268 152.5
L 268 152
Q 279.2 151.05 268 152.5
M 277 152.5
L 277 152
Q 286.9 152.8 277 152.5
M 246.2 159.9
Q 246 159.5 246 159 252.95 172 246.2 159.9
M 256.05 152.5
Q 256 152.5 256 152 265.9 153.35 256.05 152.5
M 249 154.5
L 249 154
Q 258.65 146.1 249 154.5
M 284.15 150.55
Q 284 150.5 284 150 291.45 153.15 284.15 150.55
M 146 92.5
L 146 92
Q 159.25 92.5 146 92.5
M 116.25 159.7
Q 116 159.5 116 159 125.15 161.15 124.5 166.95 124.5 167 124 167 121.05 164.05 116.25 159.7
M 113 168.5
L 113 168
Q 119.95 168.2 113 168.5
M 147 157
Q 155.4 157.05 147 157.5
L 147 157
M 122.25 168.8
Q 122 168.5 122 168 128.8 177.35 122.25 168.8
M 125.25 159.75
Q 125 159.5 125 159 132.5 166.45 125.25 159.75
M 146 294.5
L 146 294
Q 155.8 293.55 146 294.5
M 255.75 280.35
Q 256 280.5 256 281 245.85 284.95 242.25 279.85 242 279.5 242 279 251.65 277.7 255.75 280.35
M 255.75 273.25
Q 256 273.5 256 274 251.4 277.15 240.15 272.55 240 272.5 240 272 251.6 268.9 255.75 273.25 Z" stroke="none" fill="#F8CC45"></path>

<path d="M 256 274
Q 256 273.5 255.75 273.25 251.6 268.9 240 272 240 272.5 240.15 272.55 251.4 277.15 256 274
M 256 281
Q 256 280.5 255.75 280.35 251.65 277.7 242 279 242 279.5 242.25 279.85 245.85 284.95 256 281 Z" stroke="none" fill="#F6D83A"></path>

<path d="M 146 294
L 146 294.5
Q 155.8 293.55 146 294 Z" stroke="none" fill="#F8D636"></path>

<path d="M 125 159
Q 125 159.5 125.25 159.75 132.5 166.45 125 159
M 122 168
Q 122 168.5 122.25 168.8 128.8 177.35 122 168
M 147 157.5
Q 155.4 157.05 147 157
L 147 157.5
M 113 168
L 113 168.5
Q 119.95 168.2 113 168
M 116 159
Q 116 159.5 116.25 159.7 121.05 164.05 124 167 124.5 167 124.5 166.95 125.15 161.15 116 159
M 284 150
Q 284 150.5 284.15 150.55 291.45 153.15 284 150
M 249 154
L 249 154.5
Q 258.65 146.1 249 154
M 256 152
Q 256 152.5 256.05 152.5 265.9 153.35 256 152
M 246 159
Q 246 159.5 246.2 159.9 252.95 172 246 159
M 277 152
L 277 152.5
Q 286.9 152.8 277 152
M 268 152
L 268 152.5
Q 279.2 151.05 268 152 Z" stroke="none" fill="#FABB3E"></path>

<path d="M 146 92
L 146 92.5
Q 159.25 92.5 146 92
M 190 87
Q 190 87.5 190.1 87.5 198.15 89.15 208 87 207.5 87 207 87 198.5 87 190 87 Z" stroke="none" fill="#ECBA44"></path>

<path d="M 188 122
Q 188 122.5 188.1 122.55 195.3 124.3 188 122 Z" stroke="none" fill="#F7B93C"></path>

<path d="M 169 90
L 169 90.5
Q 176.7 90.7 183 89 182.5 89 182 88.95 174.35 88.35 169 90 Z" stroke="none" fill="#EAB841"></path>

<path d="M 257 79
Q 257 79.5 257 80 262.2 80.75 266.1 82.8 266.5 83 267 83
L 267.5 83
Q 266.4 77.55 257 79 Z" stroke="none" fill="#A5660D"></path>

<path d="M 253 80
Q 253 79.5 252.95 79.5 246 79 239 79 239 79.5 239 80 245.5 80 252 80 252.5 80 253 80 Z" stroke="none" fill="#D89D43"></path>

<path d="M 264 71
Q 264 70.5 263.75 70.2 262.2 68.25 258 69 259.25 71.2 263 71.05 263.5 71 264 71 Z" stroke="none" fill="#6F644F"></path>

<path d="M 334 298
Q 334 297.5 333.75 297.35 329.05 294.1 325 295 327.95 297.55 333 297.95 333.5 298 334 298 Z" stroke="none" fill="#0F2934"></path>

<path d="M 345 296
Q 345.5 296 345.55 295.9 347.05 290 343 289 344.8 291.2 345 295 345 295.5 345 296 Z" stroke="none" fill="#2A4851"></path>

<path d="M 338 287
Q 338 286.5 337.95 286.5 333.6 285.9 330 285 331.85 287.65 337 287.05 337.5 287 338 287 Z" stroke="none" fill="#0F2D37"></path>

<path d="M 329.05 283.85
Q 326.2 282.8 324 281 324 280.5 323.8 280.4 320.9 279.1 319 277 318.5 277 318.05 276.85 315.85 276.15 315 274 314.5 274 314.15 273.8 311.95 272.55 308 273 308 273.5 308.15 273.95 310.9 281.15 302 277 302 277.5 302 278 302 278.5 302 279 303.35 281.65 305.75 283.35 306 283.5 306 284 307.7 284.3 308.4 285.8 308.5 286 309 286 319.2 284.4 319 291 319 291.5 319 292 321.75 293.25 324.15 294.75 324.5 295 325 295 329.05 294.1 333.75 297.35 334 297.5 334 298 340.65 299.95 344.75 296.7 345 296.5 345 296 345 295.5 345 295 344.8 291.2 343 289 342.5 289 342.05 288.85 340 288 338 287 337.5 287 337 287.05 331.85 287.65 330 285 330 284.5 330 284 329.5 284 329.05 283.85 Z" stroke="none" fill="#010B17"></path>

<path d="M 324 281
Q 326.2 282.8 329.05 283.85 329.5 284 330 284 330 283.5 329.75 283.2 327.9 281.1 324 281 Z" stroke="none" fill="#2A4950"></path>
</g>
</g>
</g>
</g>
</g>
</svg>
