
<svg viewBox="0 0 154 124" height="124px" width="154px" y="0px" x="0px" preserveAspectRatio="none" xmlns:xlink="http://www.w3.org/1999/xlink" version="1.1" xmlns="http://www.w3.org/2000/svg">
<defs></defs>

<g id="Layer_1"></g>

<g id="Layer_2">
<g transform="matrix( 1, 0, 0, 1, -8.8,115.5)" id="Layer_1">
<g>
<g>
<g>
<path d="M 114 -113.15
Q 106.3 -110.45 102.15 -103.5 99.259375 -98.624609375 99.2 -93.15 96.141015625 -93.8810546875 92.8 -93.8 90.3 -93.45 87.95 -92.3 82.65 -89.6 80.5 -84.2 80.4802734375 -84.15 80.45 -84.1 79.20234375 -80.8447265625 79.35 -77.25 76.55 -77.65 74.1 -75.95 73.995703125 -75.8775390625 73.9 -75.8 73.0044921875 -78.6126953125 71.3 -81.2 70.305078125 -82.7037109375 69.2 -84.1 65.4076171875 -88.87890625 60.3 -92.4 53.55 -97 45.35 -96.8 36.95 -96.15 29.35 -92.35 21.95 -88.6 16.7 -82.25 13.55 -78.45 12 -73.75 9.5 -66.25 11 -58.55 12.5 -50.7 18 -44.95 20.5560546875 -42.3087890625 23.6 -40.3 23.5828125 -40.0681640625 23.55 -39.85 23.2 -37.6 23.25 -35.3 23.3 -31.85 24.3 -28.55 25.75 -23.75 28.45 -19.45 30.5 -16.1 33.75 -13.7 36.2396484375 -11.3716796875 39.05 -9.8 44.08515625 -6.9134765625 50.15 -6.4 51.33671875 -6.3181640625 52.5 -6.15 50.4515625 -3.34140625 51.05 0.05 51.3 1.7 52.35 3 55.85 7.25 61.4 8.05 66.3 8.75 71.1 7.25 78.3013671875 4.8986328125 83.8 -0.15 86.058203125 1.1640625 88.8 1.65 96.7 3.05 104.5 1.05 104.95 0.9 105.4 0.9 106.6970703125 0.8150390625 107.45 0.25 110.7482421875 0.9888671875 113.8 -0.85 115.24765625 -1.69609375 116.35 -2.7 117.280078125 -2.5189453125 118.35 -2.85 122.65 -4.2 126.2 -6.95 128.4 -8.7 130.55 -10.5 132.85 -12.45 134.75 -14.75 134.8326171875 -14.8509765625 134.9 -14.95 136.534375 -14.28359375 138.4 -14.1 147.4 -13.25 151.7 -20.65 154.35 -25.15 151.9 -29.8 150.8755859375 -31.755859375 149.4 -32.9 155.939453125 -36.3939453125 158.6 -43.55 159.85 -47.05 160.05 -50.75 160.45 -58.75 156.95 -66 155.9259765625 -68.084765625 154.6 -69.9 157.2384765625 -73.38359375 157.85 -77.9 158.2412109375 -81.049609375 158 -84.1 157.598046875 -88.8453125 155.65 -93.35 155.3 -94.1 154.95 -94.85 151.55 -102 145.55 -107.25 142.75 -109.7 139.5 -111.5 132.4 -115.4 124.3 -115.5 119.05 -114.85 114 -113.15
M 108.85 -105.25
Q 109.7 -106.1 110.7 -106.8 116.15 -110.4 122.75 -111 131.35 -111.85 138.85 -107.2 140.75 -106 142.45 -104.55 147.85 -99.9 151 -93.55 151.9 -91.75 152.55 -89.85 153.524609375 -87.0408203125 153.8 -84.1 153.9919921875 -81.911328125 153.8 -79.65 153.55 -76.35 152.25 -73.3 151.99140625 -73.170703125 151.8 -73 150.59140625 -74.1337890625 149.2 -75.15 149.7974609375 -75.6935546875 150.15 -76.6 151.5107421875 -80.3244140625 151.15 -84.1 151.047265625 -85.5958984375 150.65 -87.1 149.05 -93.05 144.35 -97.3 138.2 -102.9 130 -103.15 128.45 -102.8 126.9 -102.1 123.9 -100.8 121.4 -98.5 115.05 -92.75 112.65 -84.6 112.58203125 -84.3552734375 112.5 -84.1
L 112.5 -84.1 112.5 -84.1
Q 110.4189453125 -86.8431640625 107.55 -89.05 105.3578125 -90.71953125 102.95 -91.8 103.00625 -92.1216796875 103 -92.5 103 -93.45 103.2 -94.35 104.45 -100.65 108.85 -105.25
M 62.55 -85.35
Q 63.212890625 -84.7373046875 63.8 -84.1 68.72421875 -79.0876953125 71.05 -72.55 70.8125 -72.0166015625 70.6 -71.45 69.45 -68.55 69.95 -65.45 70.6947265625 -60.3072265625 74.45 -57.7 72.7427734375 -58.6974609375 70.85 -59.45 66.8400390625 -61.0048828125 62.6 -61.6 60.805859375 -65.9140625 58.6 -70.05 55.8 -75.35 51.45 -79.5 48.0142578125 -82.73359375 43.8 -84.1 40.7072265625 -85.1 37.2 -85.1 36.8 -85.05 36.35 -85 28.25 -83.75 22.45 -78 16.5 -72.1 17.25 -63.85 17.45 -61.95 17.85 -60 19.6 -51.95 26.2 -47.1
L 26.25 -47.1
Q 25.4279296875 -45.796875 24.85 -44.45 23.75 -45.310546875 22.65 -46.2 18.65 -49.5 16.6 -54.25 13.85 -60.5 14.55 -67.3 15.3 -74.8 20.5 -80.4 27.65 -88.15 37.85 -91.5 46.4 -94.25 54.65 -91 58.95 -88.6 62.55 -85.35
M 55.5 -61.95
Q 52.05 -61.9 48.65 -61.15 43.5943359375 -60.0009765625 39.05 -57.8 35.684765625 -56.1337890625 32.6 -53.9 30.496484375 -52.401953125 28.8 -50.55 28.6212890625 -50.6158203125 28.4 -50.7 26.5 -51.4 25.4 -53 22.4 -57.4 21.25 -62.75 20.7 -65.5 21.45 -68.2 23.65 -76.2 31.45 -79.55 34.8 -81 38.4 -80.85 38.7279296875 -80.8341796875 39.05 -80.8 46.8818359375 -80.183203125 51.3 -73.7 55.1720703125 -68.06796875 58.35 -62 56.9537109375 -62.013671875 55.5 -61.95
M 76.75 -73
Q 78.9 -73.55 80.5 -72.35 81.4 -71.65 82.3 -71.05 84.65 -69.55 85.4 -72.15 85.65 -73 85.05 -73.7 84.05 -74.9 83.7 -76.3 82.8 -80.3 84.75 -83.8 84.834765625 -83.9517578125 84.9 -84.1 89.0255859375 -91.112890625 97.35 -89.35 103.025 -88.1578125 107.2 -84.1 107.401171875 -83.9033203125 107.6 -83.7 108.4 -82.65 109.3 -81.65 111.05 -79.6 112 -77.05 112.65 -75.35 113.3 -73.65 113.3 -73.4 113.35 -73.15 113.55 -72.15 113.75 -71.15 114 -69.95 114.1 -68.7 114.15 -68.15 114.25 -67.55 114.2408203125 -67.49296875 114.2 -67.45 113.928515625 -65.64765625 113.25 -64 112.65 -62.5 113.3 -61.2 113.7771484375 -60.3091796875 114.5 -60.25 114.9408203125 -60.1818359375 115.45 -60.4 115.704296875 -60.519140625 115.9 -60.7 118.4087890625 -61.1248046875 117.85 -64.15 117.9025390625 -64.28671875 117.9 -64.45 120.7384765625 -70.6908203125 127.15 -73.65 136.75 -78.1 145.95 -72.55 148.55 -70.95 150.35 -68.6 154.6 -62.95 156 -56.1 156.65 -52.95 156.2 -49.75 155.7 -48.2 155.2 -46.65 154.5 -44.55 153.5 -42.55 152.75 -41.15 151.85 -39.85 147.8 -35.75 142.1 -34.35 140.6 -33.95 139.1 -33.8 137.87421875 -33.651953125 137.2 -33.1 136.348046875 -32.3720703125 136.55 -30.9 136.7 -29.45 138.2 -29.6 138.853125 -29.6564453125 139.5 -29.75 139.766015625 -29.5232421875 140.15 -29.6 143 -30.3 145.95 -30.4 150.8 -27.25 148.1 -22.3 147.75 -21.7 147.25 -21.2 142.5 -16.6 135.85 -18.95 134.0021484375 -19.630859375 133.1 -18.75 132.2697265625 -18.31796875 131.7 -17.4 130.9 -16.15 129.8 -15.1 125.2 -10.9 119.85 -7.85 119.6921875 -7.759765625 119.5 -7.7 120.346484375 -10.555859375 119.55 -14.15 118.95703125 -16.855078125 117 -18.35 118.433203125 -18.9494140625 119.8 -19.7 122.45 -21.15 123.1 -24 124.25 -28.7 119.9 -30.45 118.65 -30.3 118.05 -29.2 116.95 -27.1 119.25 -26.2 119.3 -26.15 119.3 -26.05 119.25 -25.85 119.4 -25.65 119.45 -25.55 119.5 -25.45 119.5 -25.3 119.5 -25.2 119.4 -25 119.3 -24.8 119.2 -24.35 118.85 -24 118.65 -23.8 118.5 -23.55 117.9 -23.15 117.25 -22.85 111.9 -20.35 105.95 -19.5 103.35 -19.1 101.15 -17.75 95.9 -14.55 89.85 -14.75 89.8 -14.8 89.7 -14.85 89.4 -15.05 89.15 -15.3 88.95 -15.5 89 -15.75 89.05 -16.05 89.3 -16.3 91.45 -18.5 89.65 -20.6 89.25 -21.05 88.7 -20.85 86.05 -20 85.2 -17.2 84.85 -16.05 85.2 -14.95 86.85 -9.7 92.7 -10.65 94.15625 -10.894921875 95.55 -11.3 96.480078125 -9.171484375 97.7 -7.15 99.3380859375 -4.37109375 101.75 -2.5 99.390625 -1.7765625 96.9 -1.7 91.1314453125 -1.5328125 85.7 -3.35 85.6919921875 -4.44140625 84.2 -4.95 83.6 -5.1 83.2 -4.75 79.2 -0.9 74.15 1.6 71.85 2.7 69.5 3.5 63.05 5.7 57.25 2.2 53.8 0.15 55.4 -3.55 57.7 -6.55 61.4 -7.5 62.2 -7.7 62.95 -7.4 65.4 -6.55 66.6 -8.55 66.95 -9.15 66.65 -9.75 66.1568359375 -10.571875 65.45 -11.05 64.0814453125 -12.052734375 61.9 -11.65 59.5 -11.55 57.35 -10.35 56.569921875 -9.91953125 55.85 -9.45 54.5751953125 -10.4947265625 52.65 -10.45 49.95 -10.35 47.3 -10.95 45.45 -11.35 43.7 -12.15 41.2287109375 -13.2380859375 39.05 -14.7 35.3216796875 -17.165625 32.45 -20.7 30.75 -22.75 29.75 -25.25 28.35 -28.5 27.65 -32.05 26.7 -36.65 28.05 -41.1 29 -44.2 30.8 -46.85 33.65 -49.95 37.2 -52.2 38.113671875 -52.76953125 39.05 -53.3 42.05859375 -54.9322265625 45.3 -56 52.9 -58.55 60.9 -57.7 68.6 -56.9 75.15 -52.7 77.5 -51.2 78.6 -53.6 79 -54.45 78.3 -55 76.9900390625 -56.1115234375 75.55 -57.05 76.6849609375 -56.4259765625 78.05 -56 80.9 -55.1 80.9 -57.95 80.9 -58.9 80 -59.15 74.7 -60.7 73.85 -66.05 73.15 -70.45 76.75 -73
M 146.9 -86.4
Q 147.281640625 -85.255078125 147.35 -84.1 147.4357421875 -82.6826171875 147.05 -81.25 146.65 -79.85 146.2 -78.35 145.7134765625 -77.847265625 145.5 -77.35 140.2689453125 -79.8873046875 134.2 -79.85 126.95 -79.45 121.2 -74.8 119.7 -73.6 118.45 -72.25 118.055078125 -71.82734375 117.7 -71.4 117.277734375 -73.9154296875 116.5 -76.35 115.98515625 -77.96796875 115.3 -79.5 115.3796875 -79.58671875 115.4 -79.75 115.754296875 -82.001953125 116.5 -84.1 117.21328125 -86.1482421875 118.3 -88.05 120.75 -92.45 124.4 -95.9 126.65 -98.05 129.55 -98.6 134.4 -99.5 138.6 -96.55 142.65 -93.75 145.55 -89.7 146.35 -88.1 146.9 -86.4
M 101.15 -9.25
Q 100.3734375 -10.95078125 99.35 -12.55 101.45625 -13.3359375 103.45 -14.45 104.95 -15.3 106.65 -15.5 110.3841796875 -15.9501953125 113.85 -17.1 114.4171875 -15.017578125 115.65 -13.1 117.05 -6.75 111.3 -4 110.05 -3.4 108.7 -3.7 103.75 -4.85 101.15 -9.25
M 137.7 -50.6
Q 138.1041015625 -50.9537109375 138.45 -51.4 140.5 -54.1 137.3 -55.25 136.9 -55.25 136.45 -54.95 135.4 -54.35 134.45 -53.55 134.165234375 -53.31015625 133.95 -53.05 130.4501953125 -54.6060546875 126.05 -54.25 121.15 -53.9 116.3 -52.8 114.147265625 -52.3083984375 112.15 -51.5 108.305859375 -49.926171875 105.1 -47.15 100.05 -42.8 101.3 -36.6 101.55 -35.2 102.9 -34.75 104.871484375 -34.0541015625 106.75 -34.25 108.9591796875 -34.4095703125 111.05 -35.75 116.3 -37.1 121.6 -38.6 125.7 -39.75 130 -40.1 134.75 -40.5 138.75 -42.9 142.35 -45.05 139.85 -48.3 138.8521484375 -49.5884765625 137.7 -50.6
M 106.05 -42
Q 106.119921875 -42.105078125 106.15 -42.2 106.674609375 -40.1841796875 108.1 -38.95 108.2267578125 -38.876171875 108.3 -38.8 108.191015625 -38.76328125 108.05 -38.75 106.5533203125 -38.33125 105.05 -38.1 104.95 -38.35 104.9 -38.6 104.85 -38.9 104.9 -39.2 105.05 -39.6 105.1 -40 105.15 -40.15 105.15 -40.35 105.15 -40.55 105.25 -40.75 105.45 -41.05 105.65 -41.35 105.9 -41.65 106.05 -42
M 109.95 -30.85
Q 108.7 -30.65 107.5 -30.2 106.5931640625 -29.846875 105.7 -29.5 101.852734375 -27.977734375 98.05 -26.4 95.85 -25.5 96.75 -23.4 97.15 -22.5 98.05 -22.45 99.5 -22.4 100.9 -23 100.959375 -23.0271484375 101 -23.05 101.1537109375 -22.43828125 101.85 -21.8 102.3 -21.35 102.9 -21.5 105.2 -22 107.4 -23 108.15 -23.35 108.45 -24.15 108.9205078125 -25.3884765625 108.5 -26.1 109.394140625 -26.438671875 110.3 -26.75 111.35 -27.15 111.65 -28.15 112.3 -30.4 109.95 -30.85
M 72.85 -36.3
Q 66.75234375 -33.152734375 62.8 -27.6 61.18671875 -28 59.4 -28 57.8 -27.9 57.5 -26.3 57.25 -24.8 58.75 -24.35 59.8013671875 -24.045703125 60.85 -23.8 60.2740234375 -21.94765625 60.2 -19.95 60.15 -18.8 61.15 -18.25 65.3 -16.2 68.8 -19.6 73.7 -24.35 79.65 -27.7 80.05 -27.85 80.45 -27.9 86.9650390625 -29.2537109375 93.5 -30.6 94.707421875 -30.8537109375 95.9 -31.1 98.95 -31.7 99.7 -34.65 100 -36 98.95 -37 95.114453125 -40.5908203125 89.85 -40.8 88.7005859375 -40.8287109375 87.45 -40.7 79.8 -39.85 72.85 -36.3
M 66.95 -26.4
Q 67.0294921875 -26.1626953125 67.15 -25.9 67.55 -25.05 68.4 -24.5 66.434765625 -22.9080078125 64.4 -21.6 64.8333984375 -22.7587890625 65.35 -23.85 65.612890625 -24.29453125 65.85 -24.75 66.3802734375 -25.6125 66.95 -26.4 Z" stroke="none" fill="#000000"></path>

<path d="M 99.35 -12.55
Q 100.3734375 -10.95078125 101.15 -9.25 103.75 -4.85 108.7 -3.7 110.05 -3.4 111.3 -4 117.05 -6.75 115.65 -13.1 114.4171875 -15.017578125 113.85 -17.1 110.3841796875 -15.9501953125 106.65 -15.5 104.95 -15.3 103.45 -14.45 101.45625 -13.3359375 99.35 -12.55
M 147.35 -84.1
Q 147.281640625 -85.255078125 146.9 -86.4 146.35 -88.1 145.55 -89.7 142.65 -93.75 138.6 -96.55 134.4 -99.5 129.55 -98.6 126.65 -98.05 124.4 -95.9 120.75 -92.45 118.3 -88.05 117.21328125 -86.1482421875 116.5 -84.1 115.754296875 -82.001953125 115.4 -79.75 115.3796875 -79.58671875 115.3 -79.5 115.98515625 -77.96796875 116.5 -76.35 117.277734375 -73.9154296875 117.7 -71.4 118.055078125 -71.82734375 118.45 -72.25 119.7 -73.6 121.2 -74.8 126.95 -79.45 134.2 -79.85 140.2689453125 -79.8873046875 145.5 -77.35 145.7134765625 -77.847265625 146.2 -78.35 146.65 -79.85 147.05 -81.25 147.4357421875 -82.6826171875 147.35 -84.1
M 48.65 -61.15
Q 52.05 -61.9 55.5 -61.95 56.9537109375 -62.013671875 58.35 -62 55.1720703125 -68.06796875 51.3 -73.7 46.8818359375 -80.183203125 39.05 -80.8 38.7279296875 -80.8341796875 38.4 -80.85 34.8 -81 31.45 -79.55 23.65 -76.2 21.45 -68.2 20.7 -65.5 21.25 -62.75 22.4 -57.4 25.4 -53 26.5 -51.4 28.4 -50.7 28.6212890625 -50.6158203125 28.8 -50.55 30.496484375 -52.401953125 32.6 -53.9 35.684765625 -56.1337890625 39.05 -57.8 43.5943359375 -60.0009765625 48.65 -61.15 Z" stroke="none" fill="#3399FF"></path>

<path d="M 106.15 -42.2
Q 106.119921875 -42.105078125 106.05 -42 105.9 -41.65 105.65 -41.35 105.45 -41.05 105.25 -40.75 105.15 -40.55 105.15 -40.35 105.15 -40.15 105.1 -40 105.05 -39.6 104.9 -39.2 104.85 -38.9 104.9 -38.6 104.95 -38.35 105.05 -38.1 106.5533203125 -38.33125 108.05 -38.75 108.191015625 -38.76328125 108.3 -38.8 108.2267578125 -38.876171875 108.1 -38.95 106.674609375 -40.1841796875 106.15 -42.2
M 67.15 -25.9
Q 67.0294921875 -26.1626953125 66.95 -26.4 66.3802734375 -25.6125 65.85 -24.75 65.612890625 -24.29453125 65.35 -23.85 64.8333984375 -22.7587890625 64.4 -21.6 66.434765625 -22.9080078125 68.4 -24.5 67.55 -25.05 67.15 -25.9 Z" stroke="none" fill="#FFFFFF"></path>

<path d="M 138.45 -51.4
Q 138.1041015625 -50.9537109375 137.7 -50.6 138.8521484375 -49.5884765625 139.85 -48.3 142.35 -45.05 138.75 -42.9 134.75 -40.5 130 -40.1 125.7 -39.75 121.6 -38.6 116.3 -37.1 111.05 -35.75 108.9591796875 -34.4095703125 106.75 -34.25 106.3052734375 -32.4466796875 105.95 -30.95 121.6578125 -34.5787109375 137.2 -33.1 137.87421875 -33.651953125 139.1 -33.8 140.6 -33.95 142.1 -34.35 147.8 -35.75 151.85 -39.85 152.75 -41.15 153.5 -42.55 154.5 -44.55 155.2 -46.65 155.7 -48.2 156.2 -49.75 156.65 -52.95 156 -56.1 154.6 -62.95 150.35 -68.6 148.55 -70.95 145.95 -72.55 136.75 -78.1 127.15 -73.65 120.7384765625 -70.6908203125 117.9 -64.45 117.9025390625 -64.28671875 117.85 -64.15 118.4087890625 -61.1248046875 115.9 -60.7 115.704296875 -60.519140625 115.45 -60.4 114.9408203125 -60.1818359375 114.5 -60.25 114.351953125 -59.3142578125 114.1 -58.35 113.5306640625 -55.93046875 112.15 -51.5 114.147265625 -52.3083984375 116.3 -52.8 121.15 -53.9 126.05 -54.25 130.4501953125 -54.6060546875 133.95 -53.05 134.165234375 -53.31015625 134.45 -53.55 135.4 -54.35 136.45 -54.95 136.9 -55.25 137.3 -55.25 140.5 -54.1 138.45 -51.4
M 80.5 -72.35
Q 78.9 -73.55 76.75 -73 73.15 -70.45 73.85 -66.05 74.7 -60.7 80 -59.15 80.9 -58.9 80.9 -57.95 80.9 -55.1 78.05 -56 76.6849609375 -56.4259765625 75.55 -57.05 76.9900390625 -56.1115234375 78.3 -55 79 -54.45 78.6 -53.6 77.5 -51.2 75.15 -52.7 68.6 -56.9 60.9 -57.7 52.9 -58.55 45.3 -56 42.05859375 -54.9322265625 39.05 -53.3 38.113671875 -52.76953125 37.2 -52.2 33.65 -49.95 30.8 -46.85 29 -44.2 28.05 -41.1 26.7 -36.65 27.65 -32.05 28.35 -28.5 29.75 -25.25 30.75 -22.75 32.45 -20.7 35.3216796875 -17.165625 39.05 -14.7 41.2287109375 -13.2380859375 43.7 -12.15 45.45 -11.35 47.3 -10.95 49.95 -10.35 52.65 -10.45 54.5751953125 -10.4947265625 55.85 -9.45 56.569921875 -9.91953125 57.35 -10.35 59.5 -11.55 61.9 -11.65 64.0814453125 -12.052734375 65.45 -11.05 78.8044921875 -22.0798828125 95.45 -27.9 94.39921875 -29.1685546875 93.5 -30.6 86.9650390625 -29.2537109375 80.45 -27.9 80.05 -27.85 79.65 -27.7 73.7 -24.35 68.8 -19.6 65.3 -16.2 61.15 -18.25 60.15 -18.8 60.2 -19.95 60.2740234375 -21.94765625 60.85 -23.8 59.8013671875 -24.045703125 58.75 -24.35 57.25 -24.8 57.5 -26.3 57.8 -27.9 59.4 -28 61.18671875 -28 62.8 -27.6 66.75234375 -33.152734375 72.85 -36.3 79.8 -39.85 87.45 -40.7 88.7005859375 -40.8287109375 89.85 -40.8 89.2455078125 -44.904296875 89.85 -49.1 90.7 -54.85 93.75 -60.1 96.7 -65.2 101.25 -69 106.35 -73.05 110 -71.85 111.8 -71.3 113.05 -69.65 113.8001953125 -68.6388671875 114.2 -67.45 114.2408203125 -67.49296875 114.25 -67.55 114.15 -68.15 114.1 -68.7 114 -69.95 113.75 -71.15 113.55 -72.15 113.35 -73.15 113.3 -73.4 113.3 -73.65 112.65 -75.35 112 -77.05 111.05 -79.6 109.3 -81.65 108.4 -82.65 107.6 -83.7 107.401171875 -83.9033203125 107.2 -84.1 103.025 -88.1578125 97.35 -89.35 89.0255859375 -91.112890625 84.9 -84.1 84.834765625 -83.9517578125 84.75 -83.8 82.8 -80.3 83.7 -76.3 84.05 -74.9 85.05 -73.7 85.65 -73 85.4 -72.15 84.65 -69.55 82.3 -71.05 81.4 -71.65 80.5 -72.35
M 63.8 -84.1
Q 63.212890625 -84.7373046875 62.55 -85.35 58.95 -88.6 54.65 -91 46.4 -94.25 37.85 -91.5 27.65 -88.15 20.5 -80.4 15.3 -74.8 14.55 -67.3 13.85 -60.5 16.6 -54.25 18.65 -49.5 22.65 -46.2 23.75 -45.310546875 24.85 -44.45 25.4279296875 -45.796875 26.25 -47.1
L 26.2 -47.1
Q 19.6 -51.95 17.85 -60 17.45 -61.95 17.25 -63.85 16.5 -72.1 22.45 -78 28.25 -83.75 36.35 -85 36.8 -85.05 37.2 -85.1 40.7072265625 -85.1 43.8 -84.1 48.0142578125 -82.73359375 51.45 -79.5 55.8 -75.35 58.6 -70.05 60.805859375 -65.9140625 62.6 -61.6 66.8400390625 -61.0048828125 70.85 -59.45 72.7427734375 -58.6974609375 74.45 -57.7 70.6947265625 -60.3072265625 69.95 -65.45 69.45 -68.55 70.6 -71.45 70.8125 -72.0166015625 71.05 -72.55 68.72421875 -79.0876953125 63.8 -84.1
M 110.7 -106.8
Q 109.7 -106.1 108.85 -105.25 104.45 -100.65 103.2 -94.35 103 -93.45 103 -92.5 103.00625 -92.1216796875 102.95 -91.8 105.3578125 -90.71953125 107.55 -89.05 110.4189453125 -86.8431640625 112.5 -84.1
L 112.5 -84.1 112.5 -84.1
Q 112.58203125 -84.3552734375 112.65 -84.6 115.05 -92.75 121.4 -98.5 123.9 -100.8 126.9 -102.1 128.45 -102.8 130 -103.15 138.2 -102.9 144.35 -97.3 149.05 -93.05 150.65 -87.1 151.047265625 -85.5958984375 151.15 -84.1 151.5107421875 -80.3244140625 150.15 -76.6 149.7974609375 -75.6935546875 149.2 -75.15 150.59140625 -74.1337890625 151.8 -73 151.99140625 -73.170703125 152.25 -73.3 153.55 -76.35 153.8 -79.65 153.9919921875 -81.911328125 153.8 -84.1 153.524609375 -87.0408203125 152.55 -89.85 151.9 -91.75 151 -93.55 147.85 -99.9 142.45 -104.55 140.75 -106 138.85 -107.2 131.35 -111.85 122.75 -111 116.15 -110.4 110.7 -106.8 Z" stroke="none" fill="#66FFCC"></path>

<path d="M 65.45 -11.05
Q 66.1568359375 -10.571875 66.65 -9.75 66.95 -9.15 66.6 -8.55 65.4 -6.55 62.95 -7.4 62.2 -7.7 61.4 -7.5 57.7 -6.55 55.4 -3.55 53.8 0.15 57.25 2.2 63.05 5.7 69.5 3.5 71.85 2.7 74.15 1.6 79.2 -0.9 83.2 -4.75 83.6 -5.1 84.2 -4.95 85.6919921875 -4.44140625 85.7 -3.35 91.1314453125 -1.5328125 96.9 -1.7 99.390625 -1.7765625 101.75 -2.5 99.3380859375 -4.37109375 97.7 -7.15 96.480078125 -9.171484375 95.55 -11.3 94.15625 -10.894921875 92.7 -10.65 86.85 -9.7 85.2 -14.95 84.85 -16.05 85.2 -17.2 86.05 -20 88.7 -20.85 89.25 -21.05 89.65 -20.6 91.45 -18.5 89.3 -16.3 89.05 -16.05 89 -15.75 88.95 -15.5 89.15 -15.3 89.4 -15.05 89.7 -14.85 89.8 -14.8 89.85 -14.75 95.9 -14.55 101.15 -17.75 103.35 -19.1 105.95 -19.5 111.9 -20.35 117.25 -22.85 117.9 -23.15 118.5 -23.55 118.65 -23.8 118.85 -24 119.2 -24.35 119.3 -24.8 119.4 -25 119.5 -25.2 119.5 -25.3 119.5 -25.45 119.45 -25.55 119.4 -25.65 119.25 -25.85 119.3 -26.05 119.3 -26.15 119.25 -26.2 116.95 -27.1 118.05 -29.2 118.65 -30.3 119.9 -30.45 124.25 -28.7 123.1 -24 122.45 -21.15 119.8 -19.7 118.433203125 -18.9494140625 117 -18.35 118.95703125 -16.855078125 119.55 -14.15 120.346484375 -10.555859375 119.5 -7.7 119.6921875 -7.759765625 119.85 -7.85 125.2 -10.9 129.8 -15.1 130.9 -16.15 131.7 -17.4 132.2697265625 -18.31796875 133.1 -18.75 134.0021484375 -19.630859375 135.85 -18.95 142.5 -16.6 147.25 -21.2 147.75 -21.7 148.1 -22.3 150.8 -27.25 145.95 -30.4 143 -30.3 140.15 -29.6 139.766015625 -29.5232421875 139.5 -29.75 138.853125 -29.6564453125 138.2 -29.6 136.7 -29.45 136.55 -30.9 136.348046875 -32.3720703125 137.2 -33.1 121.6578125 -34.5787109375 105.95 -30.95 106.3052734375 -32.4466796875 106.75 -34.25 104.871484375 -34.0541015625 102.9 -34.75 101.55 -35.2 101.3 -36.6 100.05 -42.8 105.1 -47.15 108.305859375 -49.926171875 112.15 -51.5 113.5306640625 -55.93046875 114.1 -58.35 114.351953125 -59.3142578125 114.5 -60.25 113.7771484375 -60.3091796875 113.3 -61.2 112.65 -62.5 113.25 -64 113.928515625 -65.64765625 114.2 -67.45 113.8001953125 -68.6388671875 113.05 -69.65 111.8 -71.3 110 -71.85 106.35 -73.05 101.25 -69 96.7 -65.2 93.75 -60.1 90.7 -54.85 89.85 -49.1 89.2455078125 -44.904296875 89.85 -40.8 95.114453125 -40.5908203125 98.95 -37 100 -36 99.7 -34.65 98.95 -31.7 95.9 -31.1 94.707421875 -30.8537109375 93.5 -30.6 94.39921875 -29.1685546875 95.45 -27.9 78.8044921875 -22.0798828125 65.45 -11.05
M 107.5 -30.2
Q 108.7 -30.65 109.95 -30.85 112.3 -30.4 111.65 -28.15 111.35 -27.15 110.3 -26.75 109.394140625 -26.438671875 108.5 -26.1 108.9205078125 -25.3884765625 108.45 -24.15 108.15 -23.35 107.4 -23 105.2 -22 102.9 -21.5 102.3 -21.35 101.85 -21.8 101.1537109375 -22.43828125 101 -23.05 100.959375 -23.0271484375 100.9 -23 99.5 -22.4 98.05 -22.45 97.15 -22.5 96.75 -23.4 95.85 -25.5 98.05 -26.4 101.852734375 -27.977734375 105.7 -29.5 106.5931640625 -29.846875 107.5 -30.2 Z" stroke="none" fill="#B7FFF3"></path>
</g>
</g>
</g>
</g>
</g>
</svg>
