<svg version="1.1" xmlns="http://www.w3.org/2000/svg" xmlns:xlink="http://www.w3.org/1999/xlink" width="31.46917" height="27.87627" viewBox="0,0,31.46917,27.87627"><g transform="translate(-304.26541,-166.06187)"><g data-paper-data="{&quot;isPaintingLayer&quot;:true}" fill-rule="nonzero" stroke="none" stroke-width="1" stroke-linecap="butt" stroke-linejoin="miter" stroke-miterlimit="10" stroke-dasharray="" stroke-dashoffset="0" style="mix-blend-mode: normal"><g><path d="M335.03666,176.51526c0.00118,0.07679 -0.00756,0.15359 -0.02621,0.23038c0.00029,0.0192 0.00059,0.0384 0.00088,0.05759c-0.01894,0.05759 -0.03788,0.11519 -0.05683,0.17278c-0.01953,0.0192 -0.02915,0.0384 -0.02885,0.05759c-0.01953,0.0192 -0.03906,0.0384 -0.05859,0.05759c-0.03906,0.0384 -0.08818,0.06719 -0.14736,0.08639c0.00029,0.0192 -0.00932,0.0384 -0.02885,0.05759c-0.03877,0.05759 -0.06777,0.10559 -0.08701,0.14399c-0.01953,0.0192 -0.02915,0.0384 -0.02885,0.05759l-0.0293,0.0288c-0.21749,0.0384 -0.38453,0.13439 -0.50113,0.28797c-0.03906,0.0384 -0.06821,0.07679 -0.08745,0.11519c-0.01953,0.0192 -0.03921,0.0288 -0.05903,0.0288c-0.31485,0.15359 -0.59937,0.34557 -0.85356,0.57594c0.00029,0.0192 0.00059,0.0384 0.00088,0.05759c0.57581,0.05759 1.15206,0.14399 1.72875,0.25917c0.31838,0.07679 0.63676,0.15359 0.95513,0.23038c0.00029,0.0192 0.00059,0.0384 0.00088,0.05759c0.00088,0.05759 0.00162,0.10559 0.00221,0.14399c0.00088,0.05759 0.00162,0.10559 0.00221,0.14399c-0.12099,-0.00187 -0.24009,-0.01147 -0.35729,-0.0288c-0.01524,0.11249 -0.01362,0.21808 0.00486,0.31677c0.00088,0.05759 0.00162,0.10559 0.00221,0.14399c0.1006,0.09599 0.15207,0.22078 0.15443,0.37436c-0.01247,0.47995 -0.01502,0.95991 -0.00767,1.43986c0.00088,0.05759 0.00162,0.10559 0.00221,0.14399c-0.09324,0.38396 -0.17657,0.76793 -0.24998,1.15189c-0.08941,0.63354 -0.13918,1.26708 -0.14929,1.90062c-0.03877,0.05759 -0.06777,0.10559 -0.08701,0.14399c-0.11307,0.38396 -0.19639,0.76793 -0.24998,1.15189c-0.01835,0.09599 -0.01688,0.19198 0.00441,0.28797c-1.16372,2.97571 -3.33296,5.02031 -6.50773,6.13381c-5.38282,1.91981 -10.79565,1.88142 -16.2385,-0.11519c-2.173,-0.78712 -3.87829,-2.1022 -5.11586,-3.94522c-0.40592,-0.61434 -0.78239,-1.24788 -1.12942,-1.90062c-0.00029,-0.0192 -0.00059,-0.0384 -0.00088,-0.05759c-0.14437,-0.36476 -0.27882,-0.72953 -0.40336,-1.09429c-0.0213,-0.09599 -0.06242,-0.19198 -0.12336,-0.28797c-0.026,-0.40316 -0.09151,-0.79672 -0.19652,-1.18069c-0.18784,-0.61434 -0.29653,-1.23828 -0.32607,-1.87182c-0.12336,-0.28797 -0.17778,-0.60474 -0.16325,-0.95031c0.00153,-0.08714 0.00021,-0.17353 -0.00397,-0.25917c-0.1054,0 -0.21444,0 -0.32711,0c0.01835,-0.09599 0.02679,-0.19198 0.02532,-0.28797c0.05271,-0.44156 0.1353,-0.87352 0.24778,-1.29587c0.01865,-0.07679 0.02738,-0.15359 0.02621,-0.23038c-0.00029,-0.0192 0.00932,-0.0384 0.02885,-0.05759c0.01953,-0.0192 0.029,-0.048 0.02841,-0.08639c-0.00029,-0.0192 -0.00059,-0.0384 -0.00088,-0.05759c-0.00029,-0.0192 -0.00074,-0.048 -0.00132,-0.08639c0.01953,-0.0192 0.03906,-0.0384 0.05859,-0.05759c0.01953,-0.0192 0.03891,-0.048 0.05815,-0.08639l-0.00044,-0.0288c0.3968,0.0192 0.80336,0.0288 1.21968,0.0288l0.00044,0.0288c0.28041,-0.04605 0.56728,-0.08444 0.86063,-0.11519c0.23731,-0.0384 0.46442,-0.09599 0.68132,-0.17278c-0.02012,-0.0192 -0.0503,-0.048 -0.09054,-0.08639c-0.06036,-0.05759 -0.12086,-0.12479 -0.18152,-0.20158c-0.02012,-0.0192 -0.04039,-0.048 -0.0608,-0.08639c-0.02012,-0.0192 -0.04009,-0.0288 -0.05992,-0.0288c-0.13966,-0.05759 -0.24987,-0.13439 -0.33064,-0.23038c-0.02041,-0.0384 -0.04068,-0.06719 -0.0608,-0.08639c-0.10001,-0.05759 -0.1901,-0.11519 -0.27029,-0.17278c-0.40121,-0.30717 -0.8218,-0.58554 -1.26178,-0.83512c-0.00059,-0.0384 -0.01094,-0.06719 -0.03106,-0.08639c-0.00029,-0.0192 -0.00059,-0.0384 -0.00088,-0.05759c-0.04024,-0.0384 -0.08033,-0.06719 -0.12027,-0.08639c-0.05977,-0.0192 -0.11954,-0.0384 -0.17931,-0.05759c-0.00059,-0.0384 -0.01094,-0.06719 -0.03106,-0.08639c-0.02012,-0.0192 -0.05015,-0.0384 -0.0901,-0.05759c-0.00059,-0.0384 -0.00103,-0.06719 -0.00132,-0.08639c-0.021,-0.07679 -0.03209,-0.15359 -0.03327,-0.23038c-0.00088,-0.05759 -0.00191,-0.12479 -0.00309,-0.20158c1.36528,-0.17278 2.75142,-0.27837 4.15841,-0.31677c-0.02012,-0.0192 -0.04039,-0.048 -0.0608,-0.08639c-0.04142,-0.11519 -0.09274,-0.23038 -0.15398,-0.34557c-0.04112,-0.09599 -0.07233,-0.19198 -0.09363,-0.28797c-0.1216,-0.17278 -0.22337,-0.34557 -0.30532,-0.51835c-0.20531,-0.46076 -0.3908,-0.92151 -0.55646,-1.38227c-0.04142,-0.11519 -0.11227,-0.21118 -0.21258,-0.28797c-0.00029,-0.0192 -0.00059,-0.0384 -0.00088,-0.05759c-0.02188,-0.13439 -0.03371,-0.25917 -0.03548,-0.37436c-0.00147,-0.09599 -0.00294,-0.19198 -0.00441,-0.28797c1.2268,-0.15359 2.43907,0.0384 3.63682,0.57594c0.06006,0.0384 0.12989,0.06719 0.20949,0.08639c0.07901,-0.0192 0.15816,-0.0288 0.23746,-0.0288c-0.026,-0.40316 -0.10128,-0.78712 -0.22582,-1.15189c-0.24908,-0.72953 -0.40925,-1.47826 -0.48049,-2.24618c-0.02071,-0.05759 -0.03136,-0.10559 -0.03194,-0.14399c-0.00059,-0.0384 -0.01094,-0.06719 -0.03106,-0.08639c-0.00029,-0.0192 -0.0105,-0.0384 -0.03062,-0.05759c-0.02041,-0.0384 -0.04068,-0.06719 -0.0608,-0.08639c-0.00029,-0.0192 -0.00059,-0.0384 -0.00088,-0.05759c-0.00206,-0.13439 -0.00397,-0.25917 -0.00574,-0.37436c-0.00147,-0.09599 -0.00294,-0.19198 -0.00441,-0.28797l0.0293,-0.0288c0.45568,-0.0192 0.92142,-0.0288 1.39723,-0.0288c0.62046,0.38396 1.2606,0.75833 1.92042,1.12309c0.4598,0.24958 0.9094,0.47995 1.34879,0.69113c-0.00029,-0.0192 -0.00059,-0.0384 -0.00088,-0.05759c0.05653,-0.19198 0.09324,-0.38396 0.11012,-0.57594c0.01747,-0.15359 0.03494,-0.30717 0.05241,-0.46076c0.01953,-0.0192 0.02915,-0.0384 0.02885,-0.05759c0.07606,-0.21118 0.13215,-0.43196 0.16827,-0.66234c0.01777,-0.13439 0.0453,-0.27837 0.08259,-0.43196c-0.00029,-0.0192 0.00932,-0.0384 0.02885,-0.05759c0.07783,-0.09599 0.1456,-0.20158 0.20331,-0.31677c0.03847,-0.07679 0.08701,-0.14399 0.1456,-0.20158c-0.00029,-0.0192 -0.00059,-0.0384 -0.00088,-0.05759c-0.00059,-0.0384 -0.00103,-0.06719 -0.00132,-0.08639c-0.00029,-0.0192 0.00918,-0.048 0.02841,-0.08639c0.03847,-0.07679 0.08701,-0.14399 0.1456,-0.20158c0.03906,-0.0384 0.07812,-0.07679 0.11718,-0.11519l0.0293,-0.0288c0.49563,0 0.98149,0.0096 1.45758,0.0288c0.03994,0.0192 0.0898,0.0384 0.14957,0.05759c0.02041,0.0384 0.03077,0.06719 0.03106,0.08639c0.02012,0.0192 0.04024,0.0384 0.06036,0.05759c0.00059,0.0384 0.01094,0.06719 0.03106,0.08639c0.02012,0.0192 0.05015,0.0384 0.0901,0.05759c0.04024,0.0384 0.09024,0.06719 0.15001,0.08639c0.10089,0.11519 0.20193,0.23998 0.30311,0.37436c0.30385,0.42236 0.64676,0.80632 1.02873,1.15189c0.03994,0.0192 0.08004,0.048 0.12027,0.08639c0.21454,-0.23038 0.40912,-0.47035 0.58372,-0.71993c0.34949,-0.47995 0.75891,-0.93111 1.22823,-1.35347c0.05918,-0.0192 0.1083,-0.048 0.14736,-0.08639c0.05918,-0.0192 0.10845,-0.0384 0.14781,-0.05759c0.01953,-0.0192 0.03921,-0.0288 0.05903,-0.0288c0.3965,0 0.79315,0.0096 1.18995,0.0288c0.02012,0.0192 0.04024,0.0384 0.06036,0.05759c0.08018,0.05759 0.16022,0.10559 0.24011,0.14399c0.10177,0.17278 0.22293,0.31677 0.36347,0.43196c0.42192,0.36476 0.76527,0.77752 1.03006,1.23828c0.02041,0.0384 0.03077,0.06719 0.03106,0.08639c0.02012,0.0192 0.04024,0.0384 0.06036,0.05759c0.06036,0.05759 0.1108,0.11519 0.15134,0.17278c0.04024,0.0384 0.08048,0.07679 0.12072,0.11519c0.00059,0.0384 0.00103,0.06719 0.00132,0.08639c0.021,0.07679 0.05177,0.14399 0.0923,0.20158c0.06095,0.09599 0.13151,0.17278 0.21169,0.23038c0.00029,0.0192 0.0105,0.0384 0.03062,0.05759c0.02071,0.05759 0.04142,0.11519 0.06212,0.17278c0.02041,0.0384 0.04097,0.08639 0.06168,0.14399c1.32181,-0.42236 2.73577,-0.65274 4.24188,-0.69113c0.06065,0.07679 0.09157,0.15359 0.09274,0.23038c0.02453,0.30717 0.02924,0.61434 0.01412,0.92151c0.00353,0.23038 -0.01291,0.45116 -0.04932,0.66234c-0.058,0.09599 -0.09618,0.19198 -0.11454,0.28797c-0.03376,0.38396 -0.08735,0.76793 -0.16077,1.15189c-0.03641,0.21118 -0.0135,0.41276 0.06874,0.60474h0.02974c1.30845,0 2.62682,0 3.9551,0c0.10501,0.38396 0.01118,0.72953 -0.28149,1.0367c-0.52615,0.59514 -1.03234,1.19988 -1.51855,1.81422l-0.0293,0.0288c-0.05918,0.0192 -0.10845,0.0384 -0.14781,0.05759c-0.01953,0.0192 -0.03906,0.0384 -0.05859,0.05759c0.69564,0.11519 1.39143,0.23998 2.08737,0.37436c0.39768,0.07679 0.76694,0.23998 1.1078,0.48955c0.00029,0.0192 0.00059,0.0384 0.00088,0.05759c0.00088,0.05759 0.01153,0.10559 0.03194,0.14399M322.52192,167.12736c-0.20098,0.13034 -0.37675,0.30312 -0.52733,0.51835c-0.31073,0.42236 -0.64128,0.84472 -0.99166,1.26708c0.00029,0.0192 0.00074,0.048 0.00132,0.08639c-0.01924,0.0384 -0.03833,0.08639 -0.05727,0.14399c0.00059,0.0384 -0.00859,0.08639 -0.02753,0.14399l-0.0293,0.0288c-0.51516,0.0192 -1.03046,0.0288 -1.54591,0.0288c-0.22161,-0.23038 -0.46304,-0.46076 -0.7243,-0.69113c-0.45538,-0.41591 -0.87877,-0.87667 -1.27017,-1.38227c0.00556,-0.01125 0.00541,-0.02085 -0.00044,-0.0288c-0.01953,0.0192 -0.03891,0.048 -0.05815,0.08639c-0.03818,0.09599 -0.09618,0.19198 -0.17401,0.28797c-0.0583,0.07679 -0.10683,0.14399 -0.1456,0.20158c0.00059,0.0384 0.00103,0.06719 0.00132,0.08639c-0.01659,0.21118 -0.053,0.42236 -0.10924,0.63354c-0.05712,0.15359 -0.11424,0.30717 -0.17136,0.46076c0.00029,0.0192 0.00059,0.0384 0.00088,0.05759c-0.05536,0.26877 -0.1008,0.53755 -0.13633,0.80632c-0.03243,0.18823 -0.05937,0.37061 -0.08083,0.54715c0.0027,0.03465 0.00314,0.06344 0.00132,0.08639c-0.03936,0.0192 -0.06895,0.0288 -0.08877,0.0288c-0.45568,0.0192 -0.92157,0.0192 -1.39767,0c-0.00029,-0.0192 -0.01035,-0.0288 -0.03018,-0.0288c-0.03994,-0.0192 -0.07989,-0.0384 -0.11983,-0.05759c-0.03994,-0.0192 -0.0898,-0.0384 -0.14957,-0.05759c-0.02012,-0.0192 -0.04024,-0.0384 -0.06036,-0.05759c-0.02041,-0.0384 -0.04068,-0.06719 -0.0608,-0.08639c-0.05977,-0.0192 -0.10948,-0.0288 -0.14913,-0.0288c-0.09971,-0.0384 -0.19928,-0.06719 -0.2987,-0.08639c-0.24025,-0.15359 -0.4706,-0.30717 -0.69103,-0.46076c-0.4601,-0.26877 -0.92981,-0.51835 -1.40914,-0.74873c0.04171,0.13439 0.07365,0.27837 0.09583,0.43196c0.01009,0.09232 0.02133,0.17871 0.03371,0.25917c0.05102,0.33769 0.12541,0.66406 0.22317,0.97911c0.06212,0.17278 0.14407,0.34557 0.24585,0.51835c-0.01806,0.11519 -0.01629,0.23038 0.0053,0.34557c0.04583,0.40316 0.13102,0.78712 0.25556,1.15189c0.06271,0.21118 0.08577,0.42236 0.06919,0.63354c-0.02306,0.00112 -0.0528,0.00112 -0.08921,0c-1.17111,0.04807 -2.32435,-0.17271 -3.45971,-0.66234l-0.03018,-0.0288c-0.20147,-0.07334 -0.33018,-0.06374 -0.38615,0.0288c0.04348,0.24958 0.12645,0.48955 0.24894,0.71993c0.26567,0.51835 0.51166,1.0463 0.73798,1.58385c0.04142,0.11519 0.10236,0.21118 0.18284,0.28797c0.00059,0.0384 0.01094,0.06719 0.03106,0.08639c0.00118,0.07679 0.00221,0.14399 0.00309,0.20158c0.00131,0.08549 0.00263,0.17188 0.00397,0.25917l0.00044,0.0288c-0.12135,0.01035 -0.24015,0.01995 -0.35641,0.0288c-0.84345,0.07364 -1.66516,0.14084 -2.46513,0.20158c-0.33526,0.04455 -0.6717,0.08294 -1.00931,0.11519c0.02159,0.11519 0.09245,0.21118 0.21258,0.28797c0.42074,0.28797 0.8511,0.55675 1.29108,0.80632c0.01643,0.01567 0.02663,0.03487 0.03062,0.05759l0.03018,0.0288c0.08077,0.09599 0.18093,0.16318 0.30047,0.20158c0.03994,0.0192 0.08004,0.048 0.12027,0.08639c0.02012,0.0192 0.03033,0.0384 0.03062,0.05759c0.04112,0.09599 0.10177,0.17278 0.18196,0.23038c0.06006,0.0384 0.11036,0.08639 0.1509,0.14399c0.02012,0.0192 0.03033,0.0384 0.03062,0.05759c0.00029,0.0192 0.00074,0.048 0.00132,0.08639c0.02012,0.0192 0.04024,0.0384 0.06036,0.05759c0.02012,0.0192 0.0503,0.048 0.09054,0.08639c0.00029,0.0192 0.00059,0.0384 0.00088,0.05759c0.00088,0.05759 0.00162,0.10559 0.00221,0.14399c0.00118,0.07679 0.00235,0.15359 0.00353,0.23038l0.00044,0.0288c-0.98118,0.3038 -2.00958,0.46698 -3.08521,0.48955c0.00041,0.027 0.00071,0.0462 0.00088,0.05759l0.00132,0.08639c-0.1132,2.49216 0.35915,4.85353 1.41704,7.08411c1.29165,2.78373 3.4428,4.73234 6.45345,5.84583c3.27014,1.22868 6.62485,1.50705 10.06411,0.83512c0.92913,-0.17278 1.84732,-0.41276 2.75456,-0.71993c2.50484,-0.84472 4.50463,-2.30378 5.99938,-4.37718c0.46609,-0.63354 0.83217,-1.32467 1.09825,-2.0734c-0.00037,-0.02422 -0.00081,-0.05302 -0.00132,-0.08639c-0.00026,-0.01717 -0.00056,-0.03637 -0.00088,-0.05759c0.03376,-0.38396 0.09727,-0.76793 0.19051,-1.15189c0.03818,-0.09599 0.07636,-0.19198 0.11454,-0.28797c-0.00618,-0.40316 0.01753,-0.79672 0.07112,-1.18069c0.10924,-0.63354 0.21863,-1.25748 0.32816,-1.87182c-0.00029,-0.0192 -0.00059,-0.0384 -0.00088,-0.05759c0.016,-0.24958 0.02223,-0.48955 0.0187,-0.71993c-0.00118,-0.07679 -0.01227,-0.15359 -0.03327,-0.23038c-0.03994,-0.0192 -0.06021,-0.048 -0.0608,-0.08639c-0.04171,-0.13439 -0.06374,-0.27837 -0.0661,-0.43196c-0.00059,-0.0384 -0.00132,-0.08639 -0.00221,-0.14399c-0.00029,-0.0192 -0.0105,-0.0384 -0.03062,-0.05759c-0.02071,-0.05759 -0.04127,-0.10559 -0.06168,-0.14399c-0.00029,-0.0192 -0.00074,-0.048 -0.00132,-0.08639c-0.0004,-0.02587 -0.00084,-0.05467 -0.00132,-0.08639c-0.69538,-0.0474 -1.40035,-0.12419 -2.1149,-0.23038c-0.04024,-0.0384 -0.09024,-0.06719 -0.15001,-0.08639c-0.08018,-0.05759 -0.17013,-0.10559 -0.26985,-0.14399c-0.02012,-0.0192 -0.03047,-0.048 -0.03106,-0.08639c-0.00088,-0.05759 -0.01183,-0.12479 -0.03283,-0.20158c-0.00147,-0.09599 0.00712,-0.18238 0.02577,-0.25917c0.07871,-0.0384 0.15728,-0.08639 0.23569,-0.14399c0.41162,-0.30717 0.81332,-0.61434 1.20512,-0.92151c0.03936,-0.0192 0.06865,-0.048 0.08789,-0.08639c0.03936,-0.0192 0.06895,-0.0288 0.08877,-0.0288c0.03936,-0.0192 0.08862,-0.0384 0.14781,-0.05759c0.03936,-0.0192 0.07871,-0.0384 0.11807,-0.05759c0.01953,-0.0192 0.03906,-0.0384 0.05859,-0.05759c0.01894,-0.05759 0.04794,-0.10559 0.08701,-0.14399c0.01924,-0.0384 0.03862,-0.06719 0.05815,-0.08639c-0.54028,-0.32637 -1.13797,-0.51835 -1.79308,-0.57594c-0.49622,-0.0384 -0.95366,-0.13439 -1.37234,-0.28797c-0.00029,-0.0192 -0.00074,-0.048 -0.00132,-0.08639c-0.00088,-0.05759 -0.00191,-0.12479 -0.00309,-0.20158c-0.00118,-0.07679 -0.00235,-0.15359 -0.00353,-0.23038c0.01953,-0.0192 0.02915,-0.0384 0.02885,-0.05759c0.03936,-0.0192 0.06865,-0.048 0.08789,-0.08639c0.03936,-0.0192 0.0688,-0.0384 0.08833,-0.05759c-0.00029,-0.0192 -0.00074,-0.048 -0.00132,-0.08639c0.01953,-0.0192 0.03906,-0.0384 0.05859,-0.05759c0.01953,-0.0192 0.03906,-0.0384 0.05859,-0.05759c0.03936,-0.0192 0.07871,-0.0384 0.11807,-0.05759c0.05859,-0.05759 0.11704,-0.12479 0.17534,-0.20158c0.27225,-0.34557 0.57439,-0.68153 0.90642,-1.0079c0.03877,-0.05759 0.08759,-0.10559 0.14648,-0.14399c0.01924,-0.0384 0.02871,-0.06719 0.02841,-0.08639c0.05742,-0.13439 0.14501,-0.23998 0.26278,-0.31677c0.03906,-0.0384 0.07812,-0.07679 0.11718,-0.11519c-1.16938,0.0192 -2.43863,-0.0096 -3.80774,-0.08639c-0.08018,-0.05759 -0.1213,-0.15359 -0.12336,-0.28797c0.01394,-0.38396 0.0477,-0.76793 0.10129,-1.15189c0.01688,-0.19198 0.01394,-0.38396 -0.00883,-0.57594c0.01894,-0.05759 0.03803,-0.10559 0.05727,-0.14399c0.05506,-0.28797 0.11012,-0.57594 0.16518,-0.86392c0.05624,-0.21118 0.07283,-0.42236 0.04976,-0.63354c-1.3008,0.49915 -2.6652,0.72953 -4.0932,0.69113c-0.03965,0 -0.06953,-0.0096 -0.08965,-0.0288c-0.02041,-0.0384 -0.05059,-0.06719 -0.09054,-0.08639c-0.02041,-0.0384 -0.05089,-0.08639 -0.09142,-0.14399c-0.00029,-0.0192 -0.00059,-0.0384 -0.00088,-0.05759c-0.04024,-0.0384 -0.06051,-0.06719 -0.0608,-0.08639c-0.08165,-0.15359 -0.18299,-0.29757 -0.304,-0.43196c-0.06095,-0.09599 -0.09216,-0.19198 -0.09363,-0.28797c-0.02012,-0.0192 -0.04039,-0.048 -0.0608,-0.08639c-0.06006,-0.0384 -0.11036,-0.08639 -0.1509,-0.14399c-0.04024,-0.0384 -0.08062,-0.08639 -0.12116,-0.14399c-0.00029,-0.0192 -0.00059,-0.0384 -0.00088,-0.05759c-0.00059,-0.0384 -0.00103,-0.06719 -0.00132,-0.08639c-0.02012,-0.0192 -0.04024,-0.0384 -0.06036,-0.05759c-0.24202,-0.26877 -0.49381,-0.52795 -0.75536,-0.77752c-0.10089,-0.11519 -0.20193,-0.23998 -0.30311,-0.37436c-0.03518,0.01852 -0.07454,0.03772 -0.11807,0.05759z" fill="#000000"/><path d="M309.37167,172.54124c1.1242,1.12519 2.05204,2.16189 2.78353,3.1101c-0.19884,-0.0384 -0.46662,-0.048 -0.80336,-0.0288c-0.17843,0 -0.45583,0.0096 -0.83221,0.0288l-0.32623,0.05759c-0.00134,-0.08729 -0.00266,-0.17368 -0.00397,-0.25917c-0.00088,-0.05759 -0.00191,-0.12479 -0.00309,-0.20158c-0.02012,-0.0192 -0.03047,-0.048 -0.03106,-0.08639c-0.08048,-0.07679 -0.14142,-0.17278 -0.18284,-0.28797c-0.22632,-0.53755 -0.47231,-1.0655 -0.73798,-1.58385c-0.12248,-0.23038 -0.20546,-0.47035 -0.24894,-0.71993c0.05597,-0.09254 0.18468,-0.10214 0.38615,-0.0288M314.19578,172.9732c0.16478,0.40316 0.2482,0.67193 0.25026,0.80632c-0.56182,-0.16048 -1.08998,-0.34287 -1.58448,-0.54715c0.03641,0.00112 0.06615,0.00112 0.08921,0c0.01659,-0.21118 -0.00647,-0.42236 -0.06919,-0.63354c-0.12454,-0.36476 -0.20973,-0.74873 -0.25556,-1.15189c-0.02159,-0.11519 -0.02336,-0.23038 -0.0053,-0.34557c-0.10177,-0.17278 -0.18372,-0.34557 -0.24585,-0.51835c-0.09776,-0.31504 -0.17215,-0.64141 -0.22317,-0.97911c0.83658,1.2565 1.51793,2.37959 2.04406,3.36927M317.29119,167.32894c0.01924,-0.0384 0.03862,-0.06719 0.05815,-0.08639c0.00585,0.00795 0.006,0.01755 0.00044,0.0288c0.03924,1.29707 0.21785,2.60255 0.53583,3.91642c-0.01924,0.0384 -0.07871,0.0384 -0.17843,0c-0.07959,-0.0192 -0.13951,-0.048 -0.17975,-0.08639l-1.05141,-0.69113c0.02146,-0.17653 0.0484,-0.35892 0.08083,-0.54715c0.03553,-0.26877 0.08097,-0.53755 0.13633,-0.80632c-0.00029,-0.0192 -0.00059,-0.0384 -0.00088,-0.05759c0.05712,-0.15359 0.11424,-0.30717 0.17136,-0.46076c0.05624,-0.21118 0.09265,-0.42236 0.10924,-0.63354c-0.00029,-0.0192 -0.00074,-0.048 -0.00132,-0.08639c0.03877,-0.05759 0.0873,-0.12479 0.1456,-0.20158c0.07783,-0.09599 0.13583,-0.19198 0.17401,-0.28797M333.60535,185.96074c-0.26607,0.74873 -0.63216,1.43986 -1.09825,2.0734c-1.49475,2.0734 -3.49454,3.53246 -5.99938,4.37718c-0.90725,0.30717 -1.82543,0.54715 -2.75456,0.71993c-3.43926,0.67193 -6.79397,0.39356 -10.06411,-0.83512c-3.01065,-1.11349 -5.1618,-3.0621 -6.45345,-5.84583c-1.05789,-2.23058 -1.53024,-4.59196 -1.41704,-7.08411l-0.00132,-0.08639c-0.00017,-0.0114 -0.00047,-0.0306 -0.00088,-0.05759c1.07563,-0.02257 2.10403,-0.18576 3.08521,-0.48955l-0.00044,-0.0288c-0.00118,-0.07679 -0.00235,-0.15359 -0.00353,-0.23038c-0.00059,-0.0384 -0.00132,-0.08639 -0.00221,-0.14399c-0.00029,-0.0192 -0.00059,-0.0384 -0.00088,-0.05759c-0.04024,-0.0384 -0.07042,-0.06719 -0.09054,-0.08639c-0.02012,-0.0192 -0.04024,-0.0384 -0.06036,-0.05759c-0.00059,-0.0384 -0.00103,-0.06719 -0.00132,-0.08639c-0.00029,-0.0192 -0.0105,-0.0384 -0.03062,-0.05759c-0.04053,-0.05759 -0.09083,-0.10559 -0.1509,-0.14399c-0.08018,-0.05759 -0.14084,-0.13439 -0.18196,-0.23038c-0.00029,-0.0192 -0.0105,-0.0384 -0.03062,-0.05759c-0.04024,-0.0384 -0.08033,-0.06719 -0.12027,-0.08639c-0.11954,-0.0384 -0.21969,-0.10559 -0.30047,-0.20158l-0.03018,-0.0288l3.12361,2.0158l-3.10612,1.0655c-0.1487,1.93901 0.29646,3.82043 1.33549,5.64425c1.01921,1.82382 2.40833,3.20609 4.16735,4.1468c1.55901,0.82552 3.33065,1.29587 5.31492,1.41106c1.72655,0.11519 3.55801,-0.0384 5.49439,-0.46076c3.47921,-0.65274 6.20541,-1.92941 8.17861,-3.83003c0.44791,-0.42491 0.84741,-0.87607 1.1985,-1.35347c0.00051,0.03337 0.00095,0.06217 0.00132,0.08639M321.42764,169.45994c-0.14951,-0.11916 -0.30973,-0.22475 -0.48066,-0.31677c0.01894,-0.05759 0.03803,-0.10559 0.05727,-0.14399c-0.00059,-0.0384 -0.00103,-0.06719 -0.00132,-0.08639c0.35038,-0.42236 0.68093,-0.84472 0.99166,-1.26708c0.15058,-0.21523 0.32635,-0.38801 0.52733,-0.51835c-0.32167,0.97678 -0.58774,1.72551 -0.79822,2.24618c0.00147,0.09599 -0.04736,0.14399 -0.14648,0.14399z" fill="#ee9b27"/><path d="M323.69846,168.22166c0.02012,0.0192 0.04024,0.0384 0.06036,0.05759c0.00029,0.0192 0.00074,0.048 0.00132,0.08639c0.00029,0.0192 0.00059,0.0384 0.00088,0.05759c0.04053,0.05759 0.08092,0.10559 0.12116,0.14399c0.04053,0.05759 0.09083,0.10559 0.1509,0.14399c0.02041,0.0384 0.04068,0.06719 0.0608,0.08639c0.00147,0.09599 0.03268,0.19198 0.09363,0.28797c0.12101,0.13439 0.22234,0.27837 0.304,0.43196c0.00029,0.0192 0.02056,0.048 0.0608,0.08639c0.00029,0.0192 0.00059,0.0384 0.00088,0.05759c0.04053,0.05759 0.07101,0.10559 0.09142,0.14399c0.03994,0.0192 0.07012,0.048 0.09054,0.08639c0.02012,0.0192 0.05,0.0288 0.08965,0.0288c1.42799,0.0384 2.79239,-0.19198 4.0932,-0.69113c0.02306,0.21118 0.00647,0.42236 -0.04976,0.63354c-0.05506,0.28797 -0.11012,0.57594 -0.16518,0.86392c-0.01924,0.0384 -0.03833,0.08639 -0.05727,0.14399c0.02277,0.19198 0.02571,0.38396 0.00883,0.57594c-0.05359,0.38396 -0.08735,0.76793 -0.10129,1.15189c0.00206,0.13439 0.04318,0.23038 0.12336,0.28797c1.36911,0.07679 2.63835,0.10559 3.80774,0.08639c-0.03906,0.0384 -0.07812,0.07679 -0.11718,0.11519c-0.11777,0.07679 -0.20537,0.18238 -0.26278,0.31677c0.00029,0.0192 -0.00918,0.048 -0.02841,0.08639c-0.05889,0.0384 -0.10771,0.08639 -0.14648,0.14399c-0.33202,0.32637 -0.63416,0.66234 -0.90642,1.0079c-0.0583,0.07679 -0.11674,0.14399 -0.17534,0.20158c-0.03936,0.0192 -0.07871,0.0384 -0.11807,0.05759c-0.01953,0.0192 -0.03906,0.0384 -0.05859,0.05759c-0.01953,0.0192 -0.03906,0.0384 -0.05859,0.05759c0.00059,0.0384 0.00103,0.06719 0.00132,0.08639c-0.01953,0.0192 -0.04897,0.0384 -0.08833,0.05759c-0.01924,0.0384 -0.04853,0.06719 -0.08789,0.08639c0.00029,0.0192 -0.00932,0.0384 -0.02885,0.05759c0.00118,0.07679 0.00235,0.15359 0.00353,0.23038c0.00118,0.07679 0.00221,0.14399 0.00309,0.20158c0.00059,0.0384 0.00103,0.06719 0.00132,0.08639c0.41868,0.15359 0.87613,0.24958 1.37234,0.28797c0.65511,0.05759 1.2528,0.24958 1.79308,0.57594c-0.01953,0.0192 -0.03891,0.048 -0.05815,0.08639c-0.03906,0.0384 -0.06806,0.08639 -0.08701,0.14399c-0.01953,0.0192 -0.03906,0.0384 -0.05859,0.05759c-0.03936,0.0192 -0.07871,0.0384 -0.11807,0.05759c-0.05918,0.0192 -0.10845,0.0384 -0.14781,0.05759c-0.01983,0 -0.04942,0.0096 -0.08877,0.0288c-0.01924,0.0384 -0.04853,0.06719 -0.08789,0.08639c-0.39179,0.30717 -0.7935,0.61434 -1.20512,0.92151c-0.07842,0.05759 -0.15698,0.10559 -0.23569,0.14399c-0.01865,0.07679 -0.02724,0.16318 -0.02577,0.25917c0.021,0.07679 0.03194,0.14399 0.03283,0.20158c0.00059,0.0384 0.01094,0.06719 0.03106,0.08639c0.09971,0.0384 0.18966,0.08639 0.26985,0.14399c0.05977,0.0192 0.10977,0.048 0.15001,0.08639c0.71456,0.10619 1.41952,0.18298 2.1149,0.23038c0.00049,0.03172 0.00093,0.06052 0.00132,0.08639c0.00059,0.0384 0.00103,0.06719 0.00132,0.08639c0.02041,0.0384 0.04097,0.08639 0.06168,0.14399c0.02012,0.0192 0.03033,0.0384 0.03062,0.05759c0.00088,0.05759 0.00162,0.10559 0.00221,0.14399c0.00235,0.15359 0.02439,0.29757 0.0661,0.43196c0.00059,0.0384 0.02086,0.06719 0.0608,0.08639c0.021,0.07679 0.03209,0.15359 0.03327,0.23038c0.00353,0.23038 -0.0027,0.47035 -0.0187,0.71993c0.00029,0.0192 0.00059,0.0384 0.00088,0.05759c-0.10953,0.61434 -0.21892,1.23828 -0.32816,1.87182c-0.05359,0.38396 -0.0773,0.77752 -0.07112,1.18069c-0.03818,0.09599 -0.07636,0.19198 -0.11454,0.28797c-0.09324,0.38396 -0.15674,0.76793 -0.19051,1.15189c0.00033,0.02122 0.00062,0.04042 0.00088,0.05759c-0.35108,0.4774 -0.75058,0.92856 -1.1985,1.35347c-1.9732,1.90062 -4.6994,3.17729 -8.17861,3.83003c-1.93638,0.42236 -3.76785,0.57594 -5.49439,0.46076c-1.98427,-0.11519 -3.75591,-0.58554 -5.31492,-1.41106c-1.75903,-0.94071 -3.14814,-2.32298 -4.16735,-4.1468c-1.03903,-1.82382 -1.4842,-3.70524 -1.33549,-5.64425l3.10612,-1.0655l-3.12361,-2.0158c-0.00399,-0.02272 -0.01419,-0.04192 -0.03062,-0.05759c-0.43998,-0.24958 -0.87034,-0.51835 -1.29108,-0.80632c-0.12013,-0.07679 -0.19099,-0.17278 -0.21258,-0.28797c0.33762,-0.03225 0.67405,-0.07064 1.00931,-0.11519c0.79997,-0.06074 1.62168,-0.12794 2.46513,-0.20158c0.11626,-0.00885 0.23506,-0.01845 0.35641,-0.0288l-0.00044,-0.0288l0.32623,-0.05759c0.37638,-0.0192 0.65379,-0.0288 0.83221,-0.0288c0.33673,-0.0192 0.60452,-0.0096 0.80336,0.0288c-0.73149,-0.94821 -1.65933,-1.98491 -2.78353,-3.1101l0.03018,0.0288c1.13537,0.48963 2.2886,0.71041 3.45971,0.66234c0.4945,0.20428 1.02266,0.38666 1.58448,0.54715c-0.00206,-0.13439 -0.08548,-0.40316 -0.25026,-0.80632c-0.52613,-0.98968 -1.20748,-2.11277 -2.04406,-3.36927c-0.01238,-0.08047 -0.02362,-0.16686 -0.03371,-0.25917c-0.02218,-0.15359 -0.05412,-0.29757 -0.09583,-0.43196c0.47933,0.23038 0.94905,0.47995 1.40914,0.74873c0.22043,0.15359 0.45077,0.30717 0.69103,0.46076c0.09942,0.0192 0.19899,0.048 0.2987,0.08639c0.03965,0 0.08936,0.0096 0.14913,0.0288c0.02012,0.0192 0.04039,0.048 0.0608,0.08639c0.02012,0.0192 0.04024,0.0384 0.06036,0.05759c0.05977,0.0192 0.10963,0.0384 0.14957,0.05759c0.03994,0.0192 0.07989,0.0384 0.11983,0.05759c0.01983,0 0.02988,0.0096 0.03018,0.0288c0.4761,0.0192 0.94199,0.0192 1.39767,0c0.01983,0 0.04942,-0.0096 0.08877,-0.0288c0.00182,-0.02295 0.00138,-0.05174 -0.00132,-0.08639l1.05141,0.69113c0.04024,0.0384 0.10016,0.06719 0.17975,0.08639c0.09971,0.0384 0.15919,0.0384 0.17843,0c-0.31798,-1.31387 -0.49659,-2.61935 -0.53583,-3.91642c0.3914,0.5056 0.81478,0.96636 1.27017,1.38227c0.26126,0.23038 0.50269,0.46076 0.7243,0.69113c0.51545,0 1.03076,-0.0096 1.54591,-0.0288l0.0293,-0.0288c0.01894,-0.05759 0.02812,-0.10559 0.02753,-0.14399c0.17093,0.09202 0.33115,0.19761 0.48066,0.31677l0.14957,0.05759c0.09913,0 0.14795,-0.048 0.14648,-0.14399c0.21048,-0.52067 0.47656,-1.2694 0.79822,-2.24618c0.04353,-0.01987 0.08288,-0.03907 0.11807,-0.05759c0.10119,0.13439 0.20222,0.25917 0.30311,0.37436c0.26155,0.24958 0.51334,0.50875 0.75536,0.77752z" fill="#fedf59"/></g><g><path d="M313.08399,176.98822c1.19333,-0.19184 2.30142,-0.04263 3.32427,0.44763c0.34095,0.17052 0.61797,0.42631 0.83107,0.76736c0.02131,0.02132 0.03196,0.04263 0.03196,0.06395c0.08524,0.19184 0.15982,0.38368 0.22375,0.57552c0.12786,0.31973 0.17048,0.65012 0.12786,0.99117c-0.04262,0.06395 -0.06393,0.12789 -0.06393,0.19184c-0.06393,0.59683 -0.30899,1.09775 -0.73517,1.50274c-0.31964,0.29842 -0.66059,0.5542 -1.02285,0.76736c-0.06393,0.02132 -0.12786,0.03197 -0.19178,0.03197c-1.1294,0.14921 -2.22683,0.0746 -3.2923,-0.22381c-0.17048,-0.14921 -0.35161,-0.28776 -0.54339,-0.41565c-0.72452,-0.51157 -1.06547,-1.21498 -1.02285,-2.11024c0.02131,-0.21316 0.05327,-0.42631 0.09589,-0.63947c0.02131,-0.04263 0.04262,-0.08526 0.06393,-0.12789c0.25571,-0.59683 0.66059,-1.06578 1.21464,-1.40682c0.31964,-0.19184 0.63928,-0.33039 0.95892,-0.41565M314.10684,177.53177c-0.80976,0.23447 -1.42773,0.72473 -1.85392,1.47077c-0.12786,0.23447 -0.20244,0.49026 -0.22375,0.76736c0.25571,0.87394 0.80976,1.48143 1.66213,1.82248c0.25571,0.10658 0.52208,0.18118 0.7991,0.22381c0.21309,-0.10658 0.42619,-0.22381 0.63928,-0.35171c0.10655,-0.08526 0.2344,-0.14921 0.38357,-0.19184c0.06393,-0.08526 0.12786,-0.15987 0.19178,-0.22381c0.04262,-0.04263 0.08524,-0.08526 0.12786,-0.12789c0.12786,-0.23447 0.2344,-0.46894 0.31964,-0.70341c0.06393,-0.25579 0.1172,-0.51157 0.15982,-0.76736c-0.02131,-0.12789 -0.06393,-0.24513 -0.12786,-0.35171c-0.06393,-0.10658 -0.1172,-0.22381 -0.15982,-0.35171c0,-0.02132 0,-0.04263 0,-0.06395c-0.04262,-0.04263 -0.08524,-0.08526 -0.12786,-0.12789c-0.02131,-0.02132 -0.04262,-0.03197 -0.06393,-0.03197c-0.02131,-0.10658 -0.06393,-0.19184 -0.12786,-0.25579c-0.04262,-0.04263 -0.08524,-0.09592 -0.12786,-0.15987c-0.19178,-0.06395 -0.36226,-0.15987 -0.51143,-0.28776c-0.06393,-0.04263 -0.1172,-0.08526 -0.15982,-0.12789c-0.2344,-0.02132 -0.4475,-0.0746 -0.63928,-0.15987h-0.03196c-0.04262,0 -0.08524,0 -0.12786,0M329.48158,177.24401c0.02131,0.02132 0.04262,0.04263 0.06393,0.06395c0.17048,0.17052 0.3303,0.34105 0.47946,0.51157c0.06393,0.04263 0.10655,0.10658 0.12786,0.19184c0,0.02132 0.01065,0.04263 0.03196,0.06395c0.02131,0.02132 0.04262,0.04263 0.06393,0.06395c0,0.02132 0.01065,0.04263 0.03196,0.06395c0,0.06395 0.01065,0.11724 0.03196,0.15987c0.02131,0.04263 0.04262,0.08526 0.06393,0.12789c0.02131,0.02132 0.03196,0.04263 0.03196,0.06395c0,0.02132 0,0.04263 0,0.06395c0.02131,0.23447 0.03196,0.46894 0.03196,0.70341c0,0.21316 0,0.42631 0,0.63947c0,0.06395 0,0.11724 0,0.15987c-0.02131,0.02132 -0.03196,0.04263 -0.03196,0.06395c-0.04262,0.06395 -0.09589,0.12789 -0.15982,0.19184c-0.04262,0.04263 -0.07458,0.09592 -0.09589,0.15987c-0.02131,0.02132 -0.03196,0.04263 -0.03196,0.06395c-0.02131,0.02132 -0.04262,0.04263 -0.06393,0.06395c-0.06393,0.06395 -0.12786,0.10658 -0.19178,0.12789c-0.02131,0.02132 -0.03196,0.04263 -0.03196,0.06395c-0.02131,0.02132 -0.03196,0.04263 -0.03196,0.06395c-0.02131,0.02132 -0.05327,0.04263 -0.09589,0.06395c-0.29833,0.21316 -0.59666,0.42631 -0.895,0.63947c-0.04262,0.02132 -0.07458,0.05329 -0.09589,0.09592c-1.40642,0.23447 -2.70629,0.17052 -3.89962,-0.19184c-0.12786,-0.06395 -0.27702,-0.10658 -0.4475,-0.12789c-0.02131,-0.02132 -0.05327,-0.03197 -0.09589,-0.03197c-0.02131,-0.02132 -0.04262,-0.04263 -0.06393,-0.06395c-0.02131,-0.08526 -0.07458,-0.14921 -0.15982,-0.19184c-0.06393,-0.04263 -0.12786,-0.08526 -0.19178,-0.12789c-0.02131,-0.04263 -0.04262,-0.0746 -0.06393,-0.09592c-0.19178,-0.25579 -0.30899,-0.53289 -0.35161,-0.8313c-0.04262,-0.29842 -0.05327,-0.59683 -0.03196,-0.89525c0.10655,-0.38368 0.26637,-0.73539 0.47946,-1.05512c0.55404,-0.87394 1.33184,-1.38551 2.33338,-1.53472c0.87369,-0.08526 1.70475,0.02132 2.4932,0.31973c0.27702,0.08526 0.53274,0.2025 0.76714,0.35171M326.02945,177.62769c-0.49012,0.25579 -0.85238,0.65012 -1.08678,1.18301c-0.10655,0.2771 -0.18113,0.56486 -0.22375,0.86328c0.02131,0.14921 0.06393,0.28776 0.12786,0.41565c0.06393,0.14921 0.14917,0.28776 0.25571,0.41565c0.12786,0.08526 0.2344,0.18118 0.31964,0.28776c0.02131,0.02132 0.04262,0.04263 0.06393,0.06395c0.46881,0.12789 0.96958,0.2025 1.50231,0.22381v0.03197c0,0.02132 0,0.04263 0,0.06395v0.03197c0.53274,-0.02132 1.02285,-0.25579 1.47035,-0.70341c0.04262,-0.02132 0.07458,-0.04263 0.09589,-0.06395c0,-0.02132 0.01065,-0.04263 0.03196,-0.06395c0,-0.02132 0.01065,-0.04263 0.03196,-0.06395c0.04262,-0.02132 0.09589,-0.05329 0.15982,-0.09592c0.02131,-0.02132 0.04262,-0.04263 0.06393,-0.06395c0.06393,-0.10658 0.12786,-0.2025 0.19178,-0.28776c0.04262,-0.06395 0.09589,-0.12789 0.15982,-0.19184c0,-0.08526 0,-0.18118 0,-0.28776c0,-0.08526 0,-0.15987 0,-0.22381c0,-0.04263 0,-0.08526 0,-0.12789c-0.06393,-0.06395 -0.1172,-0.13855 -0.15982,-0.22381c0,-0.06395 0,-0.12789 0,-0.19184c-0.02131,-0.02132 -0.04262,-0.04263 -0.06393,-0.06395c-0.02131,-0.02132 -0.04262,-0.04263 -0.06393,-0.06395c-0.02131,0 -0.03196,-0.01066 -0.03196,-0.03197c-0.36226,-0.61815 -0.90565,-1.02314 -1.63017,-1.21498c-0.10655,-0.04263 -0.22375,-0.06395 -0.35161,-0.06395c-0.2344,0.08526 -0.45815,0.18118 -0.67125,0.28776c-0.08524,0.04263 -0.14917,0.09592 -0.19178,0.15987z" fill="#000000"/><path d="M314.2347,177.53177h0.03196c0.19178,0.08526 0.40488,0.13855 0.63928,0.15987c0.04262,0.04263 0.09589,0.08526 0.15982,0.12789c0.14917,0.12789 0.31964,0.22381 0.51143,0.28776c0.04262,0.06395 0.08524,0.11724 0.12786,0.15987c0.06393,0.06395 0.10655,0.14921 0.12786,0.25579c0.02131,0 0.04262,0.01066 0.06393,0.03197c0.04262,0.04263 0.08524,0.08526 0.12786,0.12789c0,0.02132 0,0.04263 0,0.06395c0.04262,0.12789 0.09589,0.24513 0.15982,0.35171c0.06393,0.10658 0.10655,0.22381 0.12786,0.35171c-0.04262,0.25579 -0.09589,0.51157 -0.15982,0.76736c-0.08524,0.23447 -0.19178,0.46894 -0.31964,0.70341c-0.04262,0.04263 -0.08524,0.08526 -0.12786,0.12789c-0.06393,0.06395 -0.12786,0.13855 -0.19178,0.22381c-0.14917,0.04263 -0.27702,0.10658 -0.38357,0.19184c-0.21309,0.12789 -0.42619,0.24513 -0.63928,0.35171c-0.27702,-0.04263 -0.54339,-0.11724 -0.7991,-0.22381c-0.85238,-0.34105 -1.40642,-0.94854 -1.66213,-1.82248c0.02131,-0.2771 0.09589,-0.53289 0.22375,-0.76736c0.42619,-0.74604 1.04416,-1.2363 1.85392,-1.47077c0.04262,0 0.08524,0 0.12786,0M327.24409,177.24401c0.72452,0.19184 1.26791,0.59683 1.63017,1.21498c0,0.02132 0.01065,0.03197 0.03196,0.03197c0.02131,0.02132 0.04262,0.04263 0.06393,0.06395c0.02131,0.02132 0.04262,0.04263 0.06393,0.06395c0,0.06395 0,0.12789 0,0.19184c0.04262,0.08526 0.09589,0.15987 0.15982,0.22381c0,0.04263 0,0.08526 0,0.12789c0,0.06395 0,0.13855 0,0.22381c0,0.10658 0,0.2025 0,0.28776c-0.06393,0.06395 -0.1172,0.12789 -0.15982,0.19184c-0.06393,0.08526 -0.12786,0.18118 -0.19178,0.28776c-0.02131,0.02132 -0.04262,0.04263 -0.06393,0.06395c-0.06393,0.04263 -0.1172,0.0746 -0.15982,0.09592c-0.02131,0.02132 -0.03196,0.04263 -0.03196,0.06395c-0.02131,0.02132 -0.03196,0.04263 -0.03196,0.06395c-0.02131,0.02132 -0.05327,0.04263 -0.09589,0.06395c-0.4475,0.44763 -0.93761,0.6821 -1.47035,0.70341v-0.03197c0,-0.02132 0,-0.04263 0,-0.06395v-0.03197c-0.53274,-0.02132 -1.03351,-0.09592 -1.50231,-0.22381c-0.02131,-0.02132 -0.04262,-0.04263 -0.06393,-0.06395c-0.08524,-0.10658 -0.19178,-0.2025 -0.31964,-0.28776c-0.10655,-0.12789 -0.19178,-0.26644 -0.25571,-0.41565c-0.06393,-0.12789 -0.10655,-0.26644 -0.12786,-0.41565c0.04262,-0.29842 0.1172,-0.58618 0.22375,-0.86328c0.2344,-0.53289 0.59666,-0.92722 1.08678,-1.18301c0.04262,-0.06395 0.10655,-0.11724 0.19178,-0.15987c0.21309,-0.10658 0.43684,-0.2025 0.67125,-0.28776c0.12786,0 0.24506,0.02132 0.35161,0.06395z" fill="#ee9b27"/></g><g><path d="M328.49069,184.82167c0.46881,0 0.93761,0.01066 1.40642,0.03197v0.06395c0,0.12789 0,0.24513 0,0.35171c0,0.06395 -0.01065,0.12789 -0.03196,0.19184c-0.06393,0.21316 -0.13851,0.42631 -0.22375,0.63947c-0.19178,0.53289 -0.46881,1.02314 -0.83107,1.47077c-0.06393,0.06395 -0.12786,0.11724 -0.19178,0.15987c-0.02131,0.02132 -0.03196,0.04263 -0.03196,0.06395c-0.02131,0.04263 -0.03196,0.08526 -0.03196,0.12789c-1.5769,1.76919 -3.60129,2.71773 -6.07318,2.84562c-0.2344,0 -0.46881,0.01066 -0.70321,0.03197c-2.66368,0.21316 -5.15688,-0.26644 -7.4796,-1.4388c-0.40488,-0.21316 -0.76714,-0.49026 -1.08678,-0.8313c-0.04262,0 -0.08524,-0.01066 -0.12786,-0.03197c-0.02131,-0.02132 -0.03196,-0.04263 -0.03196,-0.06395l-0.03196,-0.03197v-0.03197c-0.02131,-0.02132 -0.04262,-0.04263 -0.06393,-0.06395c-0.27702,-0.25579 -0.53274,-0.52223 -0.76714,-0.79933c-0.02131,-0.02132 -0.03196,-0.04263 -0.03196,-0.06395c-0.06393,-0.19184 -0.09589,-0.38368 -0.09589,-0.57552c0.02131,-0.44763 0.03196,-0.89525 0.03196,-1.34288c0,-0.19184 0,-0.39434 0,-0.60749c0.19178,-0.04263 0.38357,-0.09592 0.57535,-0.15987c0.02131,0 0.03196,-0.02132 0.03196,-0.06395c0.42619,0 0.85238,0.01066 1.27856,0.03197c1.06547,1.81182 2.68499,2.82431 4.85854,3.03746c2.40796,0.21316 4.752,-0.09592 7.0321,-0.92722c0.80976,-0.29842 1.54493,-0.74604 2.20552,-1.34288c0.02131,-0.02132 0.03196,-0.04263 0.03196,-0.06395c0.04262,-0.08526 0.10655,-0.15987 0.19178,-0.22381c0.02131,-0.02132 0.03196,-0.04263 0.03196,-0.06395c0.02131,-0.06395 0.04262,-0.13855 0.06393,-0.22381c0.02131,-0.02132 0.04262,-0.04263 0.06393,-0.06395l0.03196,-0.03197M321.49055,188.46663c-2.34403,0.14921 -4.57087,-0.24513 -6.6805,-1.18301c-0.34095,-0.17052 -0.63928,-0.37302 -0.895,-0.60749c-0.25571,-0.10658 -0.4475,-0.2771 -0.57535,-0.51157v0.03197c0,0.17052 0.01065,0.34105 0.03196,0.51157c0,0.08526 0,0.15987 0,0.22381c0.27702,0.38368 0.59666,0.72473 0.95892,1.02314c0.04262,0.04263 0.08524,0.0746 0.12786,0.09592c1.91785,1.59866 4.17664,2.33405 6.77639,2.20616c2.10963,-0.10658 3.93159,-0.85262 5.46586,-2.23813c0.19178,-0.17052 0.38357,-0.35171 0.57535,-0.54355c0.04262,-0.04263 0.06393,-0.09592 0.06393,-0.15987c0.02131,-0.02132 0.03196,-0.04263 0.03196,-0.06395c-1.89654,0.66078 -3.857,1.06578 -5.8814,1.21498z" fill="#000000"/><path d="M327.27605,187.47545c-0.19178,0.19184 -0.38357,0.37302 -0.57535,0.54355c-1.53428,1.38551 -3.35623,2.13155 -5.46586,2.23813c-2.59975,0.12789 -4.85854,-0.60749 -6.77639,-2.20616c-0.04262,-0.02132 -0.08524,-0.05329 -0.12786,-0.09592c-0.36226,-0.29842 -0.6819,-0.63947 -0.95892,-1.02314c0,-0.06395 0,-0.13855 0,-0.22381c-0.02131,-0.17052 -0.03196,-0.34105 -0.03196,-0.51157v-0.03197c0.12786,0.23447 0.31964,0.40499 0.57535,0.51157c0.25571,0.23447 0.55404,0.43697 0.895,0.60749c2.10963,0.93788 4.33646,1.33222 6.6805,1.18301c2.02439,-0.14921 3.98486,-0.5542 5.8814,-1.21498c0,0.02132 -0.01065,0.04263 -0.03196,0.06395c0,0.06395 -0.02131,0.11724 -0.06393,0.15987z" fill="#ee9b27"/></g></g></g></svg>