
<svg viewBox="0 0 80 70" height="70px" width="80px" y="0px" x="0px" preserveAspectRatio="none" xmlns:xlink="http://www.w3.org/1999/xlink" version="1.1" xmlns="http://www.w3.org/2000/svg">
<defs></defs>

<g id="Layer_2">
<g transform="matrix( 0.2443389892578125, 0, 0, 0.2443389892578125, -5.6,-13.9)" id="Layer_1">
<g>
<g>
<g>
<path d="M 249 318
Q 249 318.5 249.15 318.95 250.3 322.25 250 327 249.5 327 249.5 327.1 248.75 331.75 246 334 245 339.55 248.1 340.8 248.5 341 249 341 249 340.5 249 340 255.05 325.9 250.25 318.85 250 318.5 250 318 249.5 318 249 318 Z" stroke="none" fill="#00111E"></path>

<path d="M 244 313
Q 243.5 313 243 313 244.8 314.2 246.25 315.75 246.5 316 247 316 247 315.5 247.25 315.2 249.45 312.5 244 313 Z" stroke="none" fill="#00141C"></path>

<path d="M 262 305
Q 261.5 305 261 305.05 256.25 305.3 253 304 254.35 306.65 257.1 307.8 257.5 308 258 308 259.7 308.3 259.5 311
L 260 311
Q 260 310.5 260 310 260 308.5 260 307 262.15 307.65 262.05 306 262 305.5 262 305 Z" stroke="none" fill="#625B4B"></path>

<path d="M 265 320
Q 265 320.5 265.05 321 265.75 325.75 264 328 264 329.5 264 331 264 331.5 264 332 267.1 328.1 265.5 320.1 265.5 320 265 320 Z" stroke="none" fill="#274046"></path>

<path d="M 265 320
Q 265 319.5 264.75 319.15 262.2 315.3 260 311
L 259.5 311
Q 259.7 308.3 258 308 258 308.5 257.75 308.8 254.15 313.4 250 317 250 317.5 250 318 250 318.5 250.25 318.85 255.05 325.9 249 340 249 340.5 249 341 259.9 345.35 263.85 332.95 264 332.5 264 332 264 331.5 264 331 264 329.5 264 328 265.75 325.75 265.05 321 265 320.5 265 320 Z" stroke="none" fill="#040B18"></path>

<path d="M 276 298
Q 276 297.5 276 297 275.5 297 275.2 297.25 270.35 301.35 263 303 263.5 303.5 263.8 304.1 264 304.5 264 305 271.4 303.9 275.3 299.25 275.5 299 276 299 276 298.5 276 298 Z" stroke="none" fill="#766E5A"></path>

<path d="M 241 310
Q 241 310.5 241 311 241.5 312 242.25 312.75 242.5 313 243 313 243.5 313 244 313 244 312.5 244.15 312.45 253.1 309 241 309 241 309.5 241 310 Z" stroke="none" fill="#011513"></path>

<path d="M 241 307
Q 241 307.5 241 308 241 308.5 241 309 253.1 309 244.15 312.45 244 312.5 244 313 249.45 312.5 247.25 315.2 247 315.5 247 316 247.5 317 248.25 317.75 248.5 318 249 318 249.5 318 250 318 250 317.5 250 317 254.15 313.4 257.75 308.8 258 308.5 258 308 257.5 308 257.1 307.8 254.35 306.65 253 304 252.5 304 252.1 303.8 248.15 301.65 244 304 244 304.5 243.75 304.75 242.5 306 241 307 Z" stroke="none" fill="#160905"></path>

<path d="M 234 308
Q 234 308.5 234 309 239.25 307.75 240.45 310.85 240.5 311 241 311 241 310.5 241 310 241 309.5 241 309 241 308.5 241 308 241 307.5 241 307 242.5 306 243.75 304.75 244 304.5 244 304 243.5 304 243.2 304.25 239.75 307.25 234 308 Z" stroke="none" fill="#65573C"></path>

<path d="M 234 308
L 234 307.5
Q 214 307 194 307 211.05 310.5 233 309.05 233.5 309 234 309 234 308.5 234 308 Z" stroke="none" fill="#687268"></path>

<path d="M 296 271
Q 295.5 271 295.45 271.1 293.4 278.9 288 283 288 283.5 288 284 288 284.5 288 285 295.7 282.2 296 272 296 271.5 296 271 Z" stroke="none" fill="#706E5D"></path>

<path d="M 298.1 267.95
Q 298 267.5 298 267 297.5 267 297 267 296.5 267 296 267 296 268.5 296 270 296 270.5 296 271 298.95 271.45 298.1 267.95 Z" stroke="none" fill="#796D56"></path>

<path d="M 300.1 260.95
Q 300 260.5 300 260 299.5 260 299.1 260.2 298.5 260.5 298 261 298 262.5 298 264 298 264.5 298 265 301.1 265.1 300.1 260.95 Z" stroke="none" fill="#66726B"></path>

<path d="M 300 255
Q 299.5 255 299 255 298.5 255 298 255 298 257.5 298 260 298 260.5 298 261 298.5 260.5 299.1 260.2 299.5 260 300 260 300 259.5 300 259 300 257 300 255 Z" stroke="none" fill="#776C56"></path>

<path d="M 282 291
Q 282 291.5 282 292 282 292.5 282 293 284.7 292.2 285.8 289.9 286 289.5 286 289 285.5 289 285.1 289.2 283.5 290 282 291 Z" stroke="none" fill="#6F6F62"></path>

<path d="M 276 295
Q 276 295.5 276 296 276 296.5 276 297 276 297.5 276 298 276 298.5 276 299 278.7 298.2 279.8 295.9 280 295.5 280 295 279.5 295 279 295 277.5 295 276 295 Z" stroke="none" fill="#736E61"></path>

<path d="M 300 205
Q 300.5 205 301 205.05 310.75 206.55 300 204 300 204.5 300 205 Z" stroke="none" fill="#020501"></path>

<path d="M 300 203
Q 299.5 203 299 203.05 296.8 203.3 296 205 295 211.5 299.05 212.85 299.5 213 300 213 300 212.5 300 212 300 208.5 300 205 300 204.5 300 204 300 203.5 300 203 Z" stroke="none" fill="#350E00"></path>

<path d="M 305 214
Q 305 214.5 305 215 311.5 215 317.95 214.5 318 214.5 318 214 317.5 214 317 214 311 214 305 214 Z" stroke="none" fill="#26363B"></path>

<path d="M 316.5 198
L 316 198
Q 316 198.5 315.75 198.85 312.3 203.8 302 202 302 202.5 302 203 314.8 205.8 316.5 198 Z" stroke="none" fill="#1F393F"></path>

<path d="M 116 332
Q 116 332.5 116 333 116 333.5 116 334 118.75 337.65 118.5 331
L 118 331
Q 117.5 331 117.1 331.2 116.5 331.5 116 332 Z" stroke="none" fill="#00161B"></path>

<path d="M 115.1 333.2
Q 114.5 333.5 114 334 113.85 338.15 115.35 340.8 115.5 341 116 341 116 340.5 116 340 116 337 116 334 116 333.5 116 333 115.5 333 115.1 333.2 Z" stroke="none" fill="#0B2C35"></path>

<path d="M 100 299
Q 100 298.5 99.75 298.2 95.35 293.15 88 291 91.75 295.75 97.1 298.8 97.5 299 98 299 98.5 299 99 299 99.5 299 100 299 Z" stroke="none" fill="#756E57"></path>

<path d="M 124.9 342.5
Q 125 342.5 125 342 124.5 342 124 342 119.6 341.9 116 341 118.6 343.9 124.9 342.5 Z" stroke="none" fill="#16383F"></path>

<path d="M 132.8 305.85
Q 133 305.5 133 305
L 133 304.5
Q 114.3 306.15 100 299 99.5 299 99 299 98.5 299 98 299 105.2 303.3 113.85 306.45 114 306.5 114 307 124.45 305.55 129.75 309.35 130 309.5 130 310 131.5 308 132.8 305.85 Z" stroke="none" fill="#6E6F5F"></path>

<path d="M 148 307
Q 147.5 307 147.35 306.75 142.9 300.7 134 305 133.5 305 133 305 133 305.5 132.8 305.85 131.5 308 130 310 130 310.5 129.8 310.9 124.4 320.4 118 329 118 329.5 118 330 118 330.5 118 331
L 118.5 331
Q 118.75 337.65 116 334 116 337 116 340 116 340.5 116 341 119.6 341.9 124 342 124.5 342 125 342 137.9 327.9 147.8 310.85 148 310.5 148 310 148 309.5 148 309 148 308 148 307 Z" stroke="none" fill="#030D13"></path>

<path d="M 148 307
Q 148 306.5 147.8 306.1 143.95 296.95 134 303 134 303.5 134 304 134 304.5 134 305 142.9 300.7 147.35 306.75 147.5 307 148 307 Z" stroke="none" fill="#320800"></path>

<path d="M 154 307
Q 153.5 307 153 307.1 151 307.5 149 308 149 308.5 149 309 153.65 312.15 153.95 308 154 307.5 154 307 Z" stroke="none" fill="#657473"></path>

<path d="M 153 307.1
Q 153.5 307 154 307 173.5 307 193 307 193.5 307 194 307 194 306.5 193.9 306.5 169.75 302.75 148 307 148 308 148 309 148 309.5 148 310 148.5 310 148.75 309.75 149 309.5 149 309 149 308.5 149 308 151 307.5 153 307.1 Z" stroke="none" fill="#806A4F"></path>

<path d="M 79 279.95
Q 79.5 280 80 280 80 279.5 79.85 279.05 79 276 76 275 75.35 279.65 79 279.95 Z" stroke="none" fill="#716E5D"></path>

<path d="M 75.05 274.85
Q 75.5 275 76 275 76 274.5 76.1 274.05 76.9 270.6 74 271 73.3 274.2 75.05 274.85 Z" stroke="none" fill="#6B7161"></path>

<path d="M 74.1 270
Q 75.3 264.2 72 263 71.7 267.8 73.4 270.8 73.5 271 74 271 74 270.5 74.1 270 Z" stroke="none" fill="#6C7062"></path>

<path d="M 39 215
Q 38.5 215 38 215 38 219.5 38.5 223.95 38.5 224 39 224 39 223.5 39 223 39 219 39 215 Z" stroke="none" fill="#3B5B63"></path>

<path d="M 79.5 214.05
Q 79.5 214 79 214 79 214.5 79 215 79.2 219.7 74 219 74 219.5 74 220 74 220.5 74 221 80.5 221 79.5 214.05 Z" stroke="none" fill="#482604"></path>

<path d="M 78.15 212.8
Q 78.5 213 79 213 79 212.5 78.75 212.25 76.95 210.55 73 211 72.5 211 72 211 72 211.5 72 212 75.95 211.55 78.15 212.8 Z" stroke="none" fill="#452500"></path>

<path d="M 70 222
Q 69.5 222 69 222 69 222.5 69 223 70 243 71.5 262.95 71.5 263 72 263 72 262.5 72 262 72.8 238.3 71 222 70.5 222 70 222 Z" stroke="none" fill="#716E5B"></path>

<path d="M 67 211
Q 66.5 211 66 211 62.45 210.95 60 212 60 212.5 60 213 65.05 212.05 71 212 71.5 212 72 212 72 211.5 72 211 71.5 211 71 211 69 211 67 211 Z" stroke="none" fill="#0D292F"></path>

<path d="M 68 222.1
Q 68.5 222 69 222 69.5 222 70 222 70.5 222 71 222 71 221.5 71 221 72 221 73 221 73.5 221 74 221 74 220.5 74 220 74 219.5 74 219 79.2 219.7 79 215 79 214.5 79 214 79 213.5 79 213 78.5 213 78.15 212.8 75.95 211.55 72 212 71.5 212 71 212 65.05 212.05 60 213 59.5 213 59.15 213.25 57.7 214.25 55 214 54.5 214 54.3 214.25 51.35 217.75 47 215 52.1 224.6 68 222.1 Z" stroke="none" fill="#0A0504"></path>

<path d="M 86 289
Q 86 288.5 85.85 288.05 84.3 282.7 80 280 81 286 85.15 288.75 85.5 289 86 289 Z" stroke="none" fill="#736E5A"></path>

<path d="M 43.95 193
Q 44 192.5 44 192
L 43.5 192
Q 43.65 194.15 42 194 42 196 42 198 42 198.5 42 199 43.55 196.55 43.95 193 Z" stroke="none" fill="#304E54"></path>

<path d="M 44 191
Q 44 191.5 44 192 44 192.5 43.95 193 43.55 196.55 42 199 42 199.5 41.95 200 40.9 206.9 39 213 39 213.5 39 214 39 214.5 39 215 39 219 39 223 39 223.5 39 224 51.8 230.15 68.1 223.2 68.5 223 69 223 69 222.5 69 222 68.5 222 68 222.1 52.1 224.6 47 215 51.35 217.75 54.3 214.25 54.5 214 55 214 55 213.5 55 213 55 212 55 211 56.7 210.2 56.5 207
L 57 207
Q 57 206.5 57.1 206.05 62.15 184.35 44 191
M 46.25 196.8
Q 46 196.5 46 196 52.05 204.35 46.25 196.8 Z" stroke="none" fill="#020B16"></path>

<path d="M 46 196
Q 46 196.5 46.25 196.8 52.05 204.35 46 196 Z" stroke="none" fill="#060503"></path>

<path d="M 74 119
L 73.5 119
Q 73.65 121.15 72 121 72 123.5 72 126 72 126.5 72 127 74.45 123.95 74.5 119
L 74 119 Z" stroke="none" fill="#7E6043"></path>

<path d="M 102 83
Q 105.2 83.7 105.85 81.95 106 81.5 106 81 105.5 81 105 81 103.5 81 102 81 102 81.5 102 82 102 82.5 102 83
M 294 109
Q 294 108.5 294.1 108.05 294.95 104.6 292 105 291.3 108.2 293.05 108.85 293.5 109 294 109
M 242 79
L 242 78.5
Q 204.45 76.7 164 77 200.25 80.25 241 79 241.5 79 242 79
M 286 98
Q 286 97.5 286 97 286.1 93.9 282 95 283.2 96.8 285.1 97.8 285.5 98 286 98 Z" stroke="none" fill="#6E644E"></path>

<path d="M 114 78
Q 114 78.5 114 79 118.8 79.3 121.8 77.6 122 77.5 122 77 121.5 77 121 76.95 116.45 76.45 114 78 Z" stroke="none" fill="#72654E"></path>

<path d="M 113 79
Q 112.5 79 112 79 109 79 106 79 106 79.5 106 80 106 80.5 106 81 110.55 81.55 112.75 79.7 113 79.5 113 79 Z" stroke="none" fill="#71644D"></path>

<path d="M 86 94
Q 86 94.5 86 95 89.2 95.7 89.85 93.95 90 93.5 90 93 89.5 93 89 93 87.5 93 86 93 86 93.5 86 94 Z" stroke="none" fill="#71634B"></path>

<path d="M 292 105
Q 292 104.5 291.9 104.05 290.3 97.35 286 98 287.95 102.05 291.2 104.75 291.5 105 292 105 Z" stroke="none" fill="#69614A"></path>

<path d="M 282 95
Q 282 94.5 282.1 94 282.9 90.1 279 91 279.65 93.35 281.2 94.75 281.5 95 282 95 Z" stroke="none" fill="#6A624A"></path>

<path d="M 276 89
Q 276 88.5 275.75 88.2 273.85 85.65 270 85 271.25 88.25 275 88.9 275.5 89 276 89 Z" stroke="none" fill="#74644B"></path>

<path d="M 269.85 84.05
Q 269.2 82.3 266 83 265.6 85.9 269.05 85.1 269.5 85 270 85 270 84.5 269.85 84.05 Z" stroke="none" fill="#6F634D"></path>

<path d="M 265 82.95
Q 265.5 83 266 83 266 82.5 265.8 82.35 261.35 79.65 250 79 256.15 82.35 265 82.95 Z" stroke="none" fill="#6C634D"></path>

<path d="M 250 79
Q 249.5 79 249 79 245.5 79 242 79 241.5 79 241 79 200.25 80.25 164 77 163.5 77 163 77 142.5 77 122 77 122 77.5 121.8 77.6 118.8 79.3 114 79 113.5 79 113 79 113 79.5 112.75 79.7 110.55 81.55 106 81 106 81.5 105.85 81.95 105.2 83.7 102 83 102 83.5 101.8 83.6 95.55 87.05 90 91 90 91.5 90 92 90 92.5 90 93 90 93.5 89.85 93.95 89.2 95.7 86 95 86 95.5 85.75 95.8 78.55 104.55 74 116 74 117 74 118 74 118.5 74 119
L 74.5 119
Q 74.45 123.95 72 127 72 157.5 72 188 72 188.5 72 189 71.25 200.75 72.9 210 73 210.5 73 211 76.95 210.55 78.75 212.25 79 212.5 79 213 79 213.5 79 214 79.5 214 79.5 214.05 80.5 221 74 221 73.5 221 73 221 72 221 71 221 71 221.5 71 222 72.8 238.3 72 262 72 262.5 72 263 75.3 264.2 74.1 270 74 270.5 74 271 76.9 270.6 76.1 274.05 76 274.5 76 275 79 276 79.85 279.05 80 279.5 80 280 84.3 282.7 85.85 288.05 86 288.5 86 289 88.15 288.4 88.05 290 88 290.5 88 291 95.35 293.15 99.75 298.2 100 298.5 100 299 114.3 306.15 133 304.5
L 133 305
Q 133.5 305 134 305 134 304.5 134 304 134 303.5 134 303 143.95 296.95 147.8 306.1 148 306.5 148 307 169.75 302.75 193.9 306.5 194 306.5 194 307 214 307 234 307.5
L 234 308
Q 239.75 307.25 243.2 304.25 243.5 304 244 304 248.15 301.65 252.1 303.8 252.5 304 253 304 256.25 305.3 261 305.05 261.5 305 262 305 262.5 305 263 305 263.5 305 264 305 264 304.5 263.8 304.1 263.5 303.5 263 303 270.35 301.35 275.2 297.25 275.5 297 276 297 276 296.5 276 296 276 295.5 276 295 277.5 295 279 295 279.5 295 280 295 280 294.5 280 294 280 293.5 280 293 280.5 293 281 293 281.5 293 282 293 282 292.5 282 292 282 291.5 282 291 283.5 290 285.1 289.2 285.5 289 286 289 286 288.5 286 288 286 287 286 286 286.5 285.5 287.1 285.2 287.5 285 288 285 288 284.5 288 284 288 283.5 288 283 293.4 278.9 295.45 271.1 295.5 271 296 271 296 270.5 296 270 296 268.5 296 267 296.5 267 297 267 297.5 267 298 267 298 266.5 298 266 298 265.5 298 265 298 264.5 298 264 298 262.5 298 261 298 260.5 298 260 298 257.5 298 255 298.5 255 299 255 299.5 255 300 255 300 254.5 300 254 300 245.5 300 237 300 236.5 300 236 300 225 300 214 300 213.5 300 213 299.5 213 299.05 212.85 295 211.5 296 205 296.8 203.3 299 203.05 299.5 203 300 203 300 202.5 300 202 301.35 156.15 298 115 297.5 115 297.35 114.75 295.45 112.05 294 109 293.5 109 293.05 108.85 291.3 108.2 292 105 291.5 105 291.2 104.75 287.95 102.05 286 98 285.5 98 285.1 97.8 283.2 96.8 282 95 281.5 95 281.2 94.75 279.65 93.35 279 91
L 278.5 91
Q 278.65 88.35 276 89 275.5 89 275 88.9 271.25 88.25 270 85 269.5 85 269.05 85.1 265.6 85.9 266 83 265.5 83 265 82.95 256.15 82.35 250 79
M 249 89
Q 249.5 89 250 89 255.25 88.25 257.75 90.3 258 90.5 258 91 258.5 91 259 91 261.5 91 263.9 91.5 264 91.5 264 92 275.55 94.95 279.8 105.1 280 105.5 280 106 283.85 104.4 283.5 111
L 283 111
Q 283.3 112.7 284.8 113.4 285 113.5 285 114 288.95 114.55 288.1 120 288 120.5 288 121 291.1 118.45 290.05 129 290 129.5 290 130 290 140 290 150 290 150.5 290 151 290 151.5 290 152 291.0955078125 201.5701171875 289.25 245.2 289.1751953125 246.8619140625 289.1 248.5 288.6376953125 258.9390625 288 269 288 269.5 287.8 269.9 283.4 279.9 274 285 274 285.5 273.8 285.9 267.9 298.45 245 297 244.5 297 244.05 297.15 233.4 300.45 231 298
L 231 297.5
Q 187.2 298.85 144 295 143.5 295 143 295 142 295 141 295 140.5 295 140 295.1 121.5 299 114 293 113.5 293 113.05 292.85 106.15 291 102 291 102 290.5 101.75 290.2 98.1 285.4 92 283 92 282.5 91.75 282.2 86.4 276.1 84 267 84 266.5 83.75 266.2 81.35 263.15 82 254 82 253.5 82 253 82 246 82 239 82 238.5 82 238 82 237.5 82 237 81.5 237 81.2 236.75 79.25 235.2 80 231 80.5 231 81 231 81.5 231 82 231 82 230.5 82 230 82 209 82 188 82 187.5 82 187 82.1 146.6 82 116 84.95 110.2 87.95 110.5 88 110.5 88 111 89.5 110 89.9 108 90 107.5 90 107 90 106.5 90 106 90 104.5 90 103 93.55 100.55 97.15 98.25 97.5 98 98 98 98 97.5 98 97 98 96 98 95 100.45 93 102.1 93.8 102.5 94 103 94 105 93.5 106.8 92.6 107 92.5 107 92 106.5 92 106.25 91.75 106 91.5 106 91 111.45 87.15 112.75 89.15 113 89.5 113 90 113.5 90 113.75 89.75 114 89.5 114 89 114 88.5 114 88 114 87.5 114 87 123.4 84.7 129.85 86.45 130 86.5 130 87 133.5 87 137 87 137.5 87 138 87 138 86.5 138 86 142 86 145.95 86.5 146 86.5 146 87 151.5 87 157 87 157.5 87 158 87 192.65 85.8 227.95 88.5 228 88.5 228 89 234 89 240 89 240.5 89 241 89 245 89 249 89 Z" stroke="none" fill="#9D6029"></path>

<path d="M 230 296
L 230 295.5
Q 216 295 202 295 214.25 296.75 229 296 229.5 296 230 296 Z" stroke="none" fill="#CD9539"></path>

<path d="M 169 295
Q 169.5 295 170 295 170 294.5 169.95 294.5 166 294 162 294 162 294.5 162 295 165.5 295 169 295 Z" stroke="none" fill="#D3A92C"></path>

<path d="M 273 284
Q 273 284.5 273 285 273.5 285 274 285 283.4 279.9 287.8 269.9 288 269.5 288 269 288.6376953125 258.9390625 289.1 248.5 288.8267578125 252.0474609375 288 255 288 255.5 287.95 256 285.9 275.4 273 284
M 290 152
Q 290 151.5 290 151 289.5 151 289 151 289 173.5 289 196 289 196.5 289 197 289 217.5 289 238 289 238.5 289 239 289 239.5 289.05 240 289.2673828125 242.717578125 289.25 245.2 291.0955078125 201.5701171875 290 152 Z" stroke="none" fill="#A56906"></path>

<path d="M 273 285
Q 272.5 285 272.25 285.25 263 295 245 296 245 296.5 245 297 267.9 298.45 273.8 285.9 274 285.5 274 285 273.5 285 273 285 Z" stroke="none" fill="#A36908"></path>

<path d="M 289.05 240
Q 289 239.5 289 239 288.5 239 288 239 288 246.5 288 254 288 254.5 288 255 288.8267578125 252.0474609375 289.1 248.5 289.1751953125 246.8619140625 289.25 245.2 289.2673828125 242.717578125 289.05 240 Z" stroke="none" fill="#B47926"></path>

<path d="M 161 295
Q 152.5 295 144 295 187.2 298.85 231 297.5
L 231 298
Q 233.4 300.45 244.05 297.15 244.5 297 245 297 245 296.5 245 296 244.5 296 244 296 237 296 230 296 229.5 296 229 296 214.25 296.75 202 295 201.5 295 201 295 185.5 295 170 295 169.5 295 169 295 165.5 295 162 295 161.5 295 161 295 Z" stroke="none" fill="#A56A0E"></path>

<path d="M 161 294
Q 151 294 141 294 141 294.5 141 295 142 295 143 295 143.5 295 144 295 152.5 295 161 295 161.5 295 162 295 162 294.5 162 294 161.5 294 161 294 Z" stroke="none" fill="#BF8C11"></path>

<path d="M 114 292
Q 114 292.5 114 293 121.5 299 140 295.1 140.5 295 141 295 141 294.5 141 294 140.5 294 140 294.05 125.2 294.8 114 292 Z" stroke="none" fill="#A67207"></path>

<path d="M 85.1 267.8
Q 84.5 267.5 84 267 86.4 276.1 91.75 282.2 92 282.5 92 283 98.1 285.4 101.75 290.2 102 290.5 102 291 106.15 291 113.05 292.85 113.5 293 114 293 114 292.5 114 292 113.5 292 113.1 291.8 95.25 284.25 86 268 85.5 268 85.1 267.8 Z" stroke="none" fill="#AA6F0E"></path>

<path d="M 85.85 267.05
Q 83.6 260.9 82 254 81.35 263.15 83.75 266.2 84 266.5 84 267 84.5 267.5 85.1 267.8 85.5 268 86 268 86 267.5 85.85 267.05 Z" stroke="none" fill="#B07618"></path>

<path d="M 82 231
Q 81.5 231 81 231 80.5 231 80 231 79.25 235.2 81.2 236.75 81.5 237 82 237 82 236.5 82 236 82 233.5 82 231 Z" stroke="none" fill="#A46518"></path>

<path d="M 83 188
Q 82.5 188 82 188 82 209 82 230 82 230.5 82 231 82 233.5 82 236 82 236.5 82 237 82 237.5 82 238 82 238.5 82 239 83.75 215.25 83 189 83 188.5 83 188 Z" stroke="none" fill="#D19C30"></path>

<path d="M 87.95 110.5
Q 84.95 110.2 82 116 82.1 146.6 82 187 82 187.5 82 188 82.5 188 83 188 83 187.5 83 187 83 157 83 127 84.95 118.95 87.85 111.95 88 111.5 88 111 88 110.5 87.95 110.5 Z" stroke="none" fill="#AB6E0F"></path>

<path d="M 138 86
Q 138 86.5 138 87 141.5 87 145 87 145.5 87 146 87 146 86.5 145.95 86.5 142 86 138 86 Z" stroke="none" fill="#A96918"></path>

<path d="M 130 87
Q 129.5 87 129 87 126 87 123 87 123 87.5 123 88 140 88 157 88 157.5 88 158 88 158 87.5 158 87 157.5 87 157 87 151.5 87 146 87 145.5 87 145 87 141.5 87 138 87 137.5 87 137 87 133.5 87 130 87 Z" stroke="none" fill="#C38A27"></path>

<path d="M 114 87
Q 114 87.5 114 88 114 88.5 114 89 117.6 88.1 122 88 122.5 88 123 88 123 87.5 123 87 126 87 129 87 129.5 87 130 87 130 86.5 129.85 86.45 123.4 84.7 114 87 Z" stroke="none" fill="#A56712"></path>

<path d="M 106 91
Q 106 91.5 106.25 91.75 106.5 92 107 92 109.95 91.45 112.1 90.2 112.5 90 113 90 113 89.5 112.75 89.15 111.45 87.15 106 91 Z" stroke="none" fill="#A76912"></path>

<path d="M 98 95
Q 98 96 98 97 98 97.5 98 98 101.1 97.1 102.75 94.8 103 94.5 103 94 102.5 94 102.1 93.8 100.45 93 98 95 Z" stroke="none" fill="#A96E16"></path>

<path d="M 98 98
Q 97.5 98 97.15 98.25 93.55 100.55 90 103 90 104.5 90 106 90 106.5 90 107 93.55 102.55 97.75 98.75 98 98.5 98 98 Z" stroke="none" fill="#A36705"></path>

<path d="M 289 197
Q 288.5 197 288 197 288 217.5 288 238 288 238.5 288 239 288.5 239 289 239 289 238.5 289 238 289 217.5 289 197 Z" stroke="none" fill="#D39D38"></path>

<path d="M 280 106
Q 279.5 106 279 106 280.75 108.25 282.35 110.75 282.5 111 283 111
L 283.5 111
Q 283.85 104.4 280 106 Z" stroke="none" fill="#AE7019"></path>

<path d="M 290 130
Q 289.5 130 289 130 289 140 289 150 289 150.5 289 151 289.5 151 290 151 290 150.5 290 150 290 140 290 130 Z" stroke="none" fill="#C27F13"></path>

<path d="M 288 122
Q 288 121.5 288 121 288 120.5 288.1 120 288.95 114.55 285 114 286.7 117.35 287.5 121.9 287.5 122 288 122 Z" stroke="none" fill="#B1721B"></path>

<path d="M 288 121
Q 288 121.5 288 122 289.55 124.45 289.05 129 289 129.5 289 130 289.5 130 290 130 290 129.5 290.05 129 291.1 118.45 288 121 Z" stroke="none" fill="#A7680A"></path>

<path d="M 203 89
Q 209 89 215 89 215.5 89 216 89 216 88.5 215.95 88.5 209.5 88 203 88 203 88.5 203 89 Z" stroke="none" fill="#B4812A"></path>

<path d="M 202 88
Q 194 88 186 88 192.75 89.75 202 89.05 202.5 89 203 89 203 88.5 203 88 202.5 88 202 88 Z" stroke="none" fill="#CB9437"></path>

<path d="M 185 88
Q 185.5 88 186 88 194 88 202 88 202.5 88 203 88 209.5 88 215.95 88.5 216 88.5 216 89 221.5 89 227 89 227.5 89 228 89 228 88.5 227.95 88.5 192.65 85.8 158 87 158 87.5 158 88 171.5 88 185 88 Z" stroke="none" fill="#A3640B"></path>

<path d="M 264 92
Q 264 92.5 263.75 92.75 263.5 93 263 93 272 98 278.75 105.25 279 105.5 279 106 279.5 106 280 106 280 105.5 279.8 105.1 275.55 94.95 264 92 Z" stroke="none" fill="#AA6B13"></path>

<path d="M 262 92.9
Q 262.5 93 263 93 263.5 93 263.75 92.75 264 92.5 264 92 264 91.5 263.9 91.5 261.5 91 259 91 260 92.5 262 92.9 Z" stroke="none" fill="#A7680F"></path>

<path d="M 250 90
Q 249.5 90 249 90.05 243.75 90.75 241 89 240.5 89 240 89 234 89 228 89 227.5 89 227 89 221.5 89 216 89 215.5 89 215 89 209 89 203 89 202.5 89 202 89.05 192.75 89.75 186 88 185.5 88 185 88 171.5 88 158 88 157.5 88 157 88 140 88 123 88 122.5 88 122 88 117.6 88.1 114 89 114 89.5 113.75 89.75 113.5 90 113 90 112.5 90 112.1 90.2 109.95 91.45 107 92 107 92.5 106.8 92.6 105 93.5 103 94 103 94.5 102.75 94.8 101.1 97.1 98 98 98 98.5 97.75 98.75 93.55 102.55 90 107 90 107.5 89.9 108 89.5 110 88 111 88 111.5 87.85 111.95 84.95 118.95 83 127 83 157 83 187 83 187.5 83 188 83 188.5 83 189 83.75 215.25 82 239 82 246 82 253 82 253.5 82 254 83.6 260.9 85.85 267.05 86 267.5 86 268 95.25 284.25 113.1 291.8 113.5 292 114 292 125.2 294.8 140 294.05 140.5 294 141 294 151 294 161 294 161.5 294 162 294 166 294 169.95 294.5 170 294.5 170 295 185.5 295 201 295 201.5 295 202 295 216 295 230 295.5
L 230 296
Q 237 296 244 296 244.5 296 245 296 263 295 272.25 285.25 272.5 285 273 285 273 284.5 273 284 285.9 275.4 287.95 256 288 255.5 288 255 288 254.5 288 254 288 246.5 288 239 288 238.5 288 238 288 217.5 288 197 288.5 197 289 197 289 196.5 289 196 289 173.5 289 151 289 150.5 289 150 289 140 289 130 289 129.5 289.05 129 289.55 124.45 288 122 287.5 122 287.5 121.9 286.7 117.35 285 114 285 113.5 284.8 113.4 283.3 112.7 283 111 282.5 111 282.35 110.75 280.75 108.25 279 106 279 105.5 278.75 105.25 272 98 263 93 262.5 93 262 92.9 260 92.5 259 91 258.5 91 258 91 257.5 91 257 90.95 253.25 90.75 250 90
M 246 98.5
L 246 98
Q 256.6 97.1 246 98.5
M 242 96
Q 235.1919921875 96.6623046875 228.95 96.95 248.650390625 100.40859375 267.05 106.05 271.15 107.3 269 112 186.95 114.4 105.05 105.5 105 105.5 105 105 108.7 98.7 114.75 94.65 115 94.5 115 94 166.0505859375 88.8166015625 210.8 94.25 226.2087890625 94.7982421875 241 95.95 241.5 96 242 96
M 204.8 139.35
Q 205 139.5 205 140 208.3 141.2 210.75 143.3 211 143.5 211 144 225 155 231.85 173.05 232 173.5 232 174 235 172.35 234.05 179 234 179.5 234 180 234 181.5 234 183 234 183.5 234 184 235.75 188.75 234.5 195.9 234.5 196 234 196 234 196.5 234.05 197 234.65 202.15 232 204 232 205 232 206 232 206.5 232 207 232 207.5 232.05 208 232.7 214.2 228 215
L 227.5 215
Q 227.65 217.15 226 217 226 217.5 226 218 226 218.5 225.9 219 224.5 225.75 223 223 222.5 223 222.3 223.25 220.15 226.15 217 228 217 228.5 217 229
L 217.5 229
Q 217 235 212 237 212 237.5 211.75 237.7 209 239.8 204 241 204 241.5 203.8 241.85 199.35 249.35 189 251 189 251.5 188.9 251.55 180.7 253.45 174 253 174 253.5 173.8 253.6 160.25 259.45 158 244 158 243.5 158 243 158 242.5 158 242 157.5 242 157.45 241.85 155.4 235.6 156 227 156 226.5 156 226 156 222.5 156 219 155.5 219 155.4 218.8 155 218 155 217 154.5 217 154.5 216.95 154 212.5 154 208 154 207.5 154 207 154.2 192.3 151 181
L 151 181.5
Q 150 176.5 148 172 150.65 171.35 150.5 174
L 151 174
Q 151 173.5 151.1 173 151.7 169.8 150 169 149.5 169 149.35 168.8 147.4 165.6 148 160 147.5 160 147.45 159.85 145.3 154.2 146 146 146 145.5 146 145 146 141 146 137 146.5 137 147 137 147 136.5 147 136 147 135.5 147 135 148.9 131.4 152.15 129.25 152.5 129 153 129 153 128.5 153 128 154.65 126.65 158 126.95 158.5 127 159 127 159 126.5 159 126 163.5 126 167.95 126.5 168 126.5 168 127 170 127 172 127 172.5 127 173 127 176.25 127.75 179.9 128.5 180 128.5 180 129 193.8 132.7 204.8 139.35 Z" stroke="none" fill="#F7C840"></path>

<path d="M 173.8 253.6
Q 174 253.5 174 253 173.5 253 173 253 172.5 253 172 253 160.15 253.35 158 244 160.25 259.45 173.8 253.6 Z" stroke="none" fill="#DBBF6B"></path>

<path d="M 189 251
Q 188.5 251 188 251 187.5 251 187 250.95 177.6 249.55 173 252 173 252.5 173 253 173.5 253 174 253 180.7 253.45 188.9 251.55 189 251.5 189 251 Z" stroke="none" fill="#D4B969"></path>

<path d="M 203.8 241.85
Q 204 241.5 204 241 203.5 241 203.2 241.25 196.3 246.3 188 250 188 250.5 188 251 188.5 251 189 251 199.35 249.35 203.8 241.85 Z" stroke="none" fill="#DBBF6F"></path>

<path d="M 212 237
Q 212 236.5 211.8 236.1 211.5 235.5 211 235 210.5 235 210.25 235.25 207.4 237.9 204 240 204 240.5 204 241 209 239.8 211.75 237.7 212 237.5 212 237 Z" stroke="none" fill="#D9BD6B"></path>

<path d="M 217.5 229
L 217 229
Q 216.5 229 216.3 229.25 214.15 232.15 211 234 211 234.5 211 235 211.5 235.5 211.8 236.1 212 236.5 212 237 217 235 217.5 229 Z" stroke="none" fill="#D7BD68"></path>

<path d="M 225.9 219
Q 226 218.5 226 218 225.5 218 225.5 218.05 225.2 220.7 223 221 223 221.5 223 222 223 222.5 223 223 224.5 225.75 225.9 219 Z" stroke="none" fill="#DABC6A"></path>

<path d="M 232 207
Q 231.5 207 231.45 207.15 230.05 211.05 228 214 228 214.5 228 215 232.7 214.2 232.05 208 232 207.5 232 207 Z" stroke="none" fill="#D6BA6A"></path>

<path d="M 158 242
Q 158 241.5 157.95 241 157.15 233.85 156 227 155.4 235.6 157.45 241.85 157.5 242 158 242 Z" stroke="none" fill="#AA915A"></path>

<path d="M 156 219
Q 156 218.5 156.05 218 156.75 212.75 155 210 155 213 155 216 155 216.5 155 217 155 218 155.4 218.8 155.5 219 156 219 Z" stroke="none" fill="#85620A"></path>

<path d="M 155 210
Q 155 209.5 154.8 209.1 154.5 208.5 154 208 154 212.5 154.5 216.95 154.5 217 155 217 155 216.5 155 216 155 213 155 210 Z" stroke="none" fill="#D4B768"></path>

<path d="M 151 174
L 150.5 174
Q 150.65 171.35 148 172 150 176.5 151 181.5
L 151 181
Q 151 180.5 151 180 151 177 151 174 Z" stroke="none" fill="#E2C672"></path>

<path d="M 148 159
Q 148 159.5 148 160 147.4 165.6 149.35 168.8 149.5 169 150 169 150 168.5 149.95 168 149.55 160.95 148 155 148 157 148 159 Z" stroke="none" fill="#B19550"></path>

<path d="M 147 146
Q 146.5 146 146 146 145.3 154.2 147.45 159.85 147.5 160 148 160 148 159.5 148 159 148 157 148 155 148 154.5 147.8 154.1 146.45 151.05 147 146 Z" stroke="none" fill="#DEC06B"></path>

<path d="M 147 137
Q 146.5 137 146 137 146 141 146 145 146 145.5 146 146 146.5 146 147 146 147 145.5 147 145 147 141 147 137 Z" stroke="none" fill="#8F7547"></path>

<path d="M 234 196
Q 234.5 196 234.5 195.9 235.75 188.75 234 184 234 189.5 234 195 234 195.5 234 196 Z" stroke="none" fill="#7C5B05"></path>

<path d="M 234 180
Q 234 179.5 234.05 179 235 172.35 232 174 233.45 176.05 233.5 180
L 234 180 Z" stroke="none" fill="#C5A558"></path>

<path d="M 168 127
Q 168 126.5 167.95 126.5 163.5 126 159 126 159 126.5 159 127 163 127 167 127 167.5 127 168 127 Z" stroke="none" fill="#CD9928"></path>

<path d="M 173 128
Q 173 127.5 173 127 172.5 127 172 127 170 127 168 127 167.5 127 167 127 163 127 159 127 158.5 127 158 126.95 154.65 126.65 153 128 153 128.5 153 129 161.35 127.35 172 127.95 172.5 128 173 128 Z" stroke="none" fill="#5D420B"></path>

<path d="M 180 129
Q 180 128.5 179.9 128.5 176.25 127.75 173 127 173 127.5 173 128 175.05 129.45 179 129.05 179.5 129 180 129 Z" stroke="none" fill="#85661A"></path>

<path d="M 211 144
Q 211 143.5 210.75 143.3 208.3 141.2 205 140 206.55 142.95 210.05 143.9 210.5 144 211 144 Z" stroke="none" fill="#7B5710"></path>

<path d="M 205 140
Q 205 139.5 204.8 139.35 193.8 132.7 180 129 179.5 129 179 129.05 175.05 129.45 173 128 172.5 128 172 127.95 161.35 127.35 153 129 152.5 129 152.15 129.25 148.9 131.4 147 135 147 135.5 147 136 147 136.5 147 137 147 141 147 145 147 145.5 147 146 146.45 151.05 147.8 154.1 148 154.5 148 155 149.55 160.95 149.95 168 150 168.5 150 169 151.7 169.8 151.1 173 151 173.5 151 174 151 177 151 180 151 180.5 151 181 154.2 192.3 154 207 154 207.5 154 208 154.5 208.5 154.8 209.1 155 209.5 155 210 156.75 212.75 156.05 218 156 218.5 156 219 156 222.5 156 226 156 226.5 156 227 157.15 233.85 157.95 241 158 241.5 158 242 158 242.5 158 243 158 243.5 158 244 160.15 253.35 172 253 172.5 253 173 253 173 252.5 173 252 177.6 249.55 187 250.95 187.5 251 188 251 188 250.5 188 250 196.3 246.3 203.2 241.25 203.5 241 204 241 204 240.5 204 240 207.4 237.9 210.25 235.25 210.5 235 211 235 211 234.5 211 234 214.15 232.15 216.3 229.25 216.5 229 217 229 217 228.5 217 228 220.15 226.15 222.3 223.25 222.5 223 223 223 223 222.5 223 222 223 221.5 223 221 225.2 220.7 225.5 218.05 225.5 218 226 218 226 217.5 226 217 227.65 217.15 227.5 215
L 228 215
Q 228 214.5 228 214 230.05 211.05 231.45 207.15 231.5 207 232 207 232 206.5 232 206 232 205 232 204 234.65 202.15 234.05 197 234 196.5 234 196 234 195.5 234 195 234 189.5 234 184 234 183.5 234 183 234 181.5 234 180
L 233.5 180
Q 233.45 176.05 232 174 232 173.5 231.85 173.05 225 155 211 144 210.5 144 210.05 143.9 206.55 142.95 205 140
M 163.5 146.95
Q 163 143.5 163 140 168 140 172.95 140.5 173 140.5 173 141 209.6 147.4 216.9 183 217 183.5 217 184 218.75 187.75 217.5 193.9 217.5 194 217 194 217 194.5 216.9 194.95 211.55 215.55 196 226 196 226.5 195.75 226.75 195.5 227 195 227 195 227.5 194.75 227.8 191.15 232.15 185 234 185 234.5 184.8 234.6 181.8 236.3 177 236
L 177 236.5
Q 171.6 235.9 173 228 173 227.5 173 227 173 225 173 223 172.5 223 172.5 222.95 172 219 172 215 172 214.5 171.9 214 170.2 205.8 170 196
L 169.5 196
Q 169.05 185.45 167 177 166.5 177 166.5 176.95 166 173 166 169 166 168.5 165.95 168 165 157.5 164 147 163.5 147 163.5 146.95
M 216.15 160.95
Q 216 160.5 216 160 224.65 164.15 219.6 174.8 219.5 175 219 175 218.1 167.4 216.15 160.95
M 220 177
Q 223.65 174.1 220 177.5
L 220 177
M 155.95 176
Q 156 175.5 156 175 163.7 186.7 157.95 185.15 157.5 185 157 185 155.25 181.75 155.95 176
M 160.15 207.95
Q 160 207.5 160 207 163 216.5 160.15 207.95
M 218.05 207.5
Q 218 207.5 218 207 229.4 209.25 218.05 207.5 Z" stroke="none" fill="#170702"></path>

<path d="M 218 207
Q 218 207.5 218.05 207.5 229.4 209.25 218 207 Z" stroke="none" fill="#010612"></path>

<path d="M 160 207
Q 160 207.5 160.15 207.95 163 216.5 160 207 Z" stroke="none" fill="#02030D"></path>

<path d="M 156 175
Q 156 175.5 155.95 176 155.25 181.75 157 185 157.5 185 157.95 185.15 163.7 186.7 156 175 Z" stroke="none" fill="#01030F"></path>

<path d="M 220 177.5
Q 223.65 174.1 220 177
L 220 177.5 Z" stroke="none" fill="#02030C"></path>

<path d="M 216 160
Q 216 160.5 216.15 160.95 218.1 167.4 219 175 219.5 175 219.6 174.8 224.65 164.15 216 160 Z" stroke="none" fill="#020411"></path>

<path d="M 195 227
L 195 226.5
Q 191.4 228.4 185 233 185 233.5 185 234 191.15 232.15 194.75 227.8 195 227.5 195 227 Z" stroke="none" fill="#D6B856"></path>

<path d="M 177 236
Q 176.5 236 176.35 235.75 174.15 232.35 173 228 171.6 235.9 177 236.5
L 177 236 Z" stroke="none" fill="#7B601B"></path>

<path d="M 173.05 222
Q 173.75 217.25 172 215 172 219 172.5 222.95 172.5 223 173 223 173 222.5 173.05 222 Z" stroke="none" fill="#B28A25"></path>

<path d="M 217 194
Q 217.5 194 217.5 193.9 218.75 187.75 217 184 217 188.5 217 193 217 193.5 217 194 Z" stroke="none" fill="#644603"></path>

<path d="M 166.5 176.95
Q 166.5 177 167 177 167 176.5 167.05 176 167.75 171.25 166 169 166 173 166.5 176.95 Z" stroke="none" fill="#6B4A03"></path>

<path d="M 196 165
Q 196 164.5 195.9 164 194.35 155.65 190 167 190 166.5 190.2 166.1 193 159.65 189 157 188.5 157 188 156.95 181.5 156.55 179 157 178.5 157 178.45 156.85 173.7 144.95 167 150 174.05 159.35 168.25 168.15 168 168.5 168 169 173.1 168.55 169.65 173.75 169.5 174 169 174 171.9 181.35 172 188 172 188.5 172 189 168.75 189.75 169.9 195 170 195.5 170 196 170.2 205.8 171.9 214 172 214.5 172 215 173.75 217.25 173.05 222 173 222.5 173 223 173 225 173 227 173 227.5 173 228 174.15 232.35 176.35 235.75 176.5 236 177 236 181.8 236.3 184.8 234.6 185 234.5 185 234 185 233.5 185 233 191.4 228.4 195 226.5
L 195 227
Q 195.5 227 195.75 226.75 196 226.5 196 226 196 225.5 196.25 225.25 200.9 221.05 201 217 201.5 217 201.7 216.75 207.3 210.3 212 203 212 202.5 212.2 202.1 215.5 194.5 210 192 210 191.5 210.1 191 211.35 182.65 210 178 209.5 178 209.2 177.75 205 174.55 208 171 207.5 171 207.45 170.85 204.45 162.45 196 165 Z" stroke="none" fill="#F7C63E"></path>

<path d="M 172 141
Q 168 141 164 141 164 143.5 164 146 164 146.5 164 147 165 157.5 165.95 168 166 168.5 166 169 167.75 171.25 167.05 176 167 176.5 167 177 169.05 185.45 169.5 196
L 170 196
Q 170 195.5 169.9 195 168.75 189.75 172 189 172 188.5 172 188 171.9 181.35 169 174 169.5 174 169.65 173.75 173.1 168.55 168 169 168 168.5 168.25 168.15 174.05 159.35 167 150 173.7 144.95 178.45 156.85 178.5 157 179 157 181.5 156.55 188 156.95 188.5 157 189 157 193 159.65 190.2 166.1 190 166.5 190 167 194.35 155.65 195.9 164 196 164.5 196 165 204.45 162.45 207.45 170.85 207.5 171 208 171 205 174.55 209.2 177.75 209.5 178 210 178 211.35 182.65 210.1 191 210 191.5 210 192 215.5 194.5 212.2 202.1 212 202.5 212 203 207.3 210.3 201.7 216.75 201.5 217 201 217 200.9 221.05 196.25 225.25 196 225.5 196 226 211.55 215.55 216.9 194.95 217 194.5 217 194 217 193.5 217 193 217 188.5 217 184 217 183.5 216.9 183 209.6 147.4 173 141 172.5 141 172 141
M 172.1 147.5
Q 172 147.5 172 147 183.15 149.6 172.1 147.5 Z" stroke="none" fill="#EBBC4A"></path>

<path d="M 172 147
Q 172 147.5 172.1 147.5 183.15 149.6 172 147 Z" stroke="none" fill="#F9C43D"></path>

<path d="M 163 140
Q 163 143.5 163.5 146.95 163.5 147 164 147 164 146.5 164 146 164 143.5 164 141 168 141 172 141 172.5 141 173 141 173 140.5 172.95 140.5 168 140 163 140 Z" stroke="none" fill="#A2854E"></path>

<path d="M 164 94
Q 164 94.5 164.15 94.55 179.55 99.85 195 95 195.5 95 196 95.1 209.77265625 97.816796875 228.95 96.95 235.1919921875 96.6623046875 242 96 241.5 96 241 95.95 226.2087890625 94.7982421875 210.8 94.25 188.0732421875 93.463671875 164 94 Z" stroke="none" fill="#FEE479"></path>

<path d="M 164.15 94.55
Q 164 94.5 164 94 188.0732421875 93.463671875 210.8 94.25 166.0505859375 88.8166015625 115 94 115 94.5 114.75 94.65 108.7 98.7 105 105 105 105.5 105.05 105.5 186.95 114.4 269 112 271.15 107.3 267.05 106.05 248.650390625 100.40859375 228.95 96.95 209.77265625 97.816796875 196 95.1 195.5 95 195 95 179.55 99.85 164.15 94.55 Z" stroke="none" fill="#FED966"></path>

<path d="M 246 98
L 246 98.5
Q 256.6 97.1 246 98 Z" stroke="none" fill="#FFE579"></path>

<path d="M 250 90
Q 250 89.5 250 89 249.5 89 249 89 245 89 241 89 243.75 90.75 249 90.05 249.5 90 250 90 Z" stroke="none" fill="#CE9634"></path>

<path d="M 250 89
Q 250 89.5 250 90 253.25 90.75 257 90.95 257.5 91 258 91 258 90.5 257.75 90.3 255.25 88.25 250 89 Z" stroke="none" fill="#AE6F18"></path>

<path d="M 331 207
Q 330.5 207 330.25 207.25 327.65 210.15 323 211 323 211.5 323 212 328.55 211.6 330.8 207.85 331 207.5 331 207 Z" stroke="none" fill="#213C42"></path>

<path d="M 331 207
Q 331 206.5 331 206 332.3 172.75 307 171 308.45 187 315.75 197.15 316 197.5 316 198
L 316.5 198
Q 314.8 205.8 302 203 301.5 203 301 203 300.5 203 300 203 300 203.5 300 204 310.75 206.55 301 205.05 300.5 205 300 205 300 208.5 300 212 300 212.5 300 213 300 213.5 300 214 303.2 213.3 304.3 214.75 304.5 215 305 215 305 214.5 305 214 311 214 317 214 317.5 214 318 214 318 213.5 318 213 320.75 213.25 322.15 212.25 322.5 212 323 212 323 211.5 323 211 327.65 210.15 330.25 207.25 330.5 207 331 207 Z" stroke="none" fill="#010C19"></path>
</g>
</g>
</g>
</g>
</g>
</svg>
