
<svg viewBox="0 0 272 172" height="172px" width="272px" y="0px" x="0px" preserveAspectRatio="none" xmlns:xlink="http://www.w3.org/1999/xlink" version="1.1" xmlns="http://www.w3.org/2000/svg">
<defs></defs>

<g id="Layer_2">
<g>
<g>
<g>
<path d="M 89.9 147.6
Q 89.65 147.5 89.6 147.65 91.000390625 151.1748046875 93.05 154.1 97.4689453125 154.0119140625 101.9 153.9 101.5978515625 153.750390625 101.3 153.6 98.75 152.3 96.3 151.35 96.05 151.05 95.9 150.75 95.8 150.65 95.7 150.55 95.15 150.35 94.45 150.1 94.4 150 94.35 149.9 94.25 149.8 94.15 149.7 93.15 149.3 92.05 149.1 91.05 148.25 89.9 147.6
M 210.85 148.75
Q 210.4638671875 150.08359375 210.1 151.4 210.619140625 151.4013671875 211.1 151.35 211.051171875 150.0572265625 210.85 148.75
M 187.45 152.35
Q 187.933984375 151.907421875 188.4 151.45 187.3375 151.933984375 186.25 152.4 186.8578125 152.37109375 187.45 152.35
M 74.55 135.6
Q 73.3 134.45 72.5 132.95 69.9 129.9 66.95 127.2 66.7 127.75 66.55 128.35 66.6 128.45 66.6 128.5 66.6 128.95 66.8 129.3 67.05 132.45 67.4 135.6 67.4935546875 136.659765625 67.55 137.7 67.6435546875 138.328515625 67.7 138.95 69.35 138.95 71 139.3 71.1 139.3 71.25 139.35 73.8 139.05 76.4 138.7 76.3677734375 138.2 76.15 137.7 75.735546875 136.65 74.55 135.6
M 79 107.55
Q 78.7 106.65 78.35 105.8 78.2 109.75 78.25 113.7 78.25 116.65 78.4 119.55 79.479296875 119.259375 80.55 118.95 82.05859375 118.4970703125 83.55 118 81.9404296875 114.8123046875 80.55 111.45 79.7375 109.54140625 79 107.55
M 191.85 117.95
Q 191.75 118.05 191.7 118.2 194.05 119.25 197 120.5 197 120.3 197 120.15 197.15 118.4 196.7 116.8 196.7 115.9 196.7 115.05 196.7 113.45 196.7 111.9 196.7 111.75 196.65 111.65 195.6 113.05 194.65 114.55 193.65 116.15 192.4 117.6 192.1 117.75 191.85 117.95
M 204.55 131.2
Q 204.55 130 204.55 128.75 203.45 129.2 202.15 129.4 201.4 129.5 200.6 129.65 200.45 129.8 200.3 129.95 200.15 130.1 200 130.2 199.9 130.25 199.8 130.25 198.65 130.6 197.55 131.1 197.45 131.25 197.3 131.35 196.85 131.75 196.4 132.25 196.3 132.3 196.2 132.3 195.8 132.45 195.4 132.55 195.25 132.7 195.05 132.8 194.35 133.1 194.15 133.75 194.15 133.85 194.1 133.9 193.4 134.25 192.65 134.5 198.45 135.45 204.55 136.35 204.55 133.8 204.55 131.2
M 112.9 123.65
Q 108.7 120.95 103.65 121.4 98.45 121.85 94.5 125.3 93.05 126.55 92.75 128.35 94.6 131.45 98.05 132.95 101.05 134.2 103.25 133.65 104.75 133.25 106.05 133.9 112.05 135.1 115.55 131 115.75 130.8 115.9 130.6 115.95 130.5 115.95 130.4 115.95 130.15 116 129.85 116.05 129.5 116.2 129.2 116.25 129.15 116.25 129.05 116.25 128.95 116.25 128.85 116.25 128.75 116.2 128.65 116.1 128.45 115.95 128.25 115.95 128.15 115.95 128.05 115.95 127.95 115.95 127.85 115.95 127.65 115.95 127.5 115.95 127.4 115.95 127.3 115.95 127.2 115.9 127.1 115.85 127 115.8 126.9 115.75 126.8 115.7 126.7 115.6 126.6 115.45 126.5 115.15 126.25 114.95 125.9 114.8 125.7 114.7 125.5 114.65 125.4 114.5 125.35 114.2 125.1 114 124.75 113.85 124.55 113.75 124.35 113.65 124.25 113.55 124.2 113.35 124.15 113.15 124.05 113.05 123.95 113 123.85 112.9 123.75 112.9 123.65
M 164.85 120.3
Q 164.46328125 120.289453125 164.05 120.25 163.737890625 120.297265625 163.4 120.35 159.488671875 121.070703125 156.15 123.25 154.8 124.1 153.7 125.3 153.55 125.8 153.55 126.3 153.6 126.8 153.6 127.3 153.8 127.55 154 127.85 154.2 128.05 154.35 128.25 154.75 129.55 155.85 130.5 156.5 131.05 157.25 131.6 157.4 131.65 157.5 131.75 165.2 133.05 172.7 130.7 173.75 129.95 174.5 128.85 174.65 128.6 174.9 128.35 174.9 128.15 175 127.95 175.05 127.75 175.15 127.55 175.1 127.15 175.05 126.75 175 126.4 174.7 126.15 174.7 126.05 174.7 125.95 174.7 125.85 174.65 125.75 174.65 125.65 174.6 125.6 173.9 124.6 172.85 123.85 172.55 123.65 172.45 123.3 172.25 123.2 172.05 123.15 171.85 123.1 171.6 123 169.3 120.95 166.15 120.5 165.51328125 120.408984375 164.85 120.3 Z" stroke="none" fill="#EE9D33"></path>

<path d="M 87.15 145.85
Q 87.15 145.9 87.15 146 87.15 146.1 87.15 146.2 87.15 146.4 87.15 146.6 87.15 146.7 87.15 146.8 87.25 146.9 87.3 147 87.35 147.1 87.4 147.2 87.4 147.3 87.4 147.4 87.45 147.6 87.55 147.8 87.6 147.9 87.65 148 87.65 148.1 87.65 148.2 87.65 148.3 87.65 148.4 87.65 148.6 87.7 148.75 87.7 148.85 87.7 148.95 89.15 151.15 90.55 153.35 90.791796875 153.7435546875 91.05 154.1 92.063671875 154.10859375 93.05 154.1 91.000390625 151.1748046875 89.6 147.65 89.65 147.5 89.9 147.6 91.05 148.25 92.05 149.1 93.15 149.3 94.15 149.7 94.25 149.8 94.35 149.9 94.4 150 94.45 150.1 95.15 150.35 95.7 150.55 95.8 150.65 95.9 150.75 96.05 151.05 96.3 151.35 98.75 152.3 101.3 153.6 101.5978515625 153.750390625 101.9 153.9 103.2482421875 153.86328125 104.6 153.8 101.8306640625 152.4859375 99.2 150.8 98.75 150.75 98.3 150.65 98.2 150.6 98.15 150.55 98.1 150.45 98 150.35 97.9 150.15 97.75 149.95 97.65 149.85 97.55 149.75 97.25 149.7 96.9 149.6 96.75 149.55 96.55 149.5 96.45 149.4 96.35 149.3 95.45 148.55 94.2 148.45 94.05 148.45 93.9 148.4 92.5 147.4 91 146.7 90.25 146.35 89.7 145.75 88.5 145.75 87.25 145.7 87.2 145.75 87.15 145.85
M 192.3 146.85
Q 192.2 146.9 192.15 147 192.1 147.1 192 147.2 190.65 148.25 189.15 149.15 188.25 149.65 187.25 150 187.2 150.1 187.15 150.2 187.05 150.3 186.95 150.4 184.7 151.5369140625 182.4 152.5 184.3310546875 152.459765625 186.25 152.4 187.3375 151.933984375 188.4 151.45 187.933984375 151.907421875 187.45 152.35 188.89296875 152.303125 190.3 152.25 190.7642578125 151.8357421875 191.2 151.4 191.25 151.3 191.3 151.2 191.35 151.1 191.4 151 191.45 150.9 191.45 150.8 191.9 150.35 192.25 149.9 192.6 149.5 193.1 149.2 193.2 149.15 193.3 149.05 193.35 148.95 193.35 148.85 193.4 148.75 193.45 148.65 193.45 148.55 193.5 148.45 193.8 148.15 194.1 147.9 194.4 147.65 194.45 147.25 194.5 147.15 194.5 147.05 194.5 146.95 194.45 146.95 193.5 146.75 192.5 146.65
L 192.5 146.7
Q 192.4 146.75 192.3 146.85
M 178.65 92.2
Q 178.6 92.35 178.6 92.5 179.3 95.3 179.15 98.35 179 101.25 179 104.15 186.05 104.45 193.15 104.7 194.15 105.25 195.3 105.45
L 195.3 105.5
Q 195.35 105.55 195.45 105.65 195.15 105.6 194.85 105.6 195.05 107.2 195.7 108.75 195.55 108.85 195.4 109 195.35 109.45 195.25 109.9 195.25 110.05 195.2 110.2 193.95 111.95 192.75 113.65 190.9 116.25 189.25 118.5 196.95 121.7 204.6 126.7 203.85 127.05 203.3 127.35 201.2 128.5 198.75 128.95 197.8 129.65 196.65 130 195.3 130.45 194.35 131.5 193.95 131.6 193.55 131.7 192.85 132.25 192.25 132.9 192.15 133 192.1 133.15 191.6 133.25 191.1 133.4 191.05 133.4 191 133.45 190.9 133.55 190.8 133.65 190.15 134.2 189.7 134.95 189.65 135.05 189.65 135.2 198.441796875 136.3580078125 207.2 137.7 208.691796875 137.9224609375 210.15 138.15 210.15 138.3 210.15 138.5 210.15 140.15 210.15 141.85 210.15 142.8 210.15 143.7 208.95 146.7 208.25 149.8 208.0419921875 150.6734375 207.8 151.5 208.9640625 151.4720703125 210.1 151.4 210.4638671875 150.08359375 210.85 148.75 211.051171875 150.0572265625 211.1 151.35 212.0701171875 151.3294921875 213 151.25 212.7017578125 145.7470703125 212.35 140.25 212.35 140.15 212.35 140.1 212.25 140.1 212.2 140.1 212.2 138.920703125 212.2 137.7 212.2 137.5751953125 212.2 137.45 209.35 137.05 206.55 136.65 206.55 134.75 206.55 132.85 206.55 130.2 206.55 127.6 206.9 127.25 207.25 126.9 204.7 123.8 200.75 122.1 199.85 121.7 198.95 121.35 198.95 119.9 199 118.45 199.05 117.3 198.65 116.3 198.65 114.6 198.75 112.95 198.8 111.8 198.4 110.75 198.5 109.7 198.2 108.75 198.4 108.4 198.55 108.05 198.6 107.9 198.65 107.75 198.65 107.45 198.65 107.15 198.65 106.55 198.65 105.9 198.6 105.75 198.55 105.6 198.2 105.5 197.85 105.4 197.85 105.35 197.8 105.35 197.7 105.2 197.55 105.05 197.45 104.95 197.35 104.8 196.4 104.5 195.5 104.15 195.25 104.05 195 103.95 188 103.7 181.05 103.45 181.05 100.7 181.05 97.95 181.05 95.3 181.05 92.7 181 92.55 180.9 92.45 180.6 92 180.65 91.45 180.65 91.3 180.65 91.15 180.65 91 180.55 90.95 180.25 90.7 180 90.35 179.9 90.2 179.7 90.05 170.1 91.1 161 93.85 160.95 93.55 160.8 93.35 160.75 93.15 160.55 93 160.55 92.85 160.55 92.7 160.35 92.25 160.2 91.75 160.15 91.65 160.15 91.5 159.95 91.15 159.8 90.85 159.75 90.7 159.75 90.55 159.75 90.4 159.75 90.25 159.95 88.5 159.6 86.8 159.4 85.9 158.95 85 158.95 84.7 158.95 84.4 158.95 84.25 158.95 84.1 158.9 83.95 158.8 83.85 158.45 83.4 158.5 82.85 158.55 82.7 158.55 82.55 158.5 82.4 158.4 82.3 158.25 82.1 158.1 81.95 158.05 81.65 157.95 81.35 157.85 81.2 157.7 81.05 156.4 81 155.05 81 154.9 81.05 154.75 81.15 154.2 81.55 153.7 82.05 153.5 82.2 153.3 82.35 151.591015625 83.0580078125 149.9 83.8 144.6642578125 86.1412109375 139.6 88.9 139.05 88.95 138.55 88.9 138.5 88.9 138.45 88.8 138.15 87.8 137.25 87.25 137.05 87.1 136.9 86.95 136.85 86.8 136.8 86.65 136.75 86.5 136.7 86.35 136.3 86.05 135.9 85.7 135.75 85.6 135.6 85.45 134.9 84.25 134.35 83 134.1 82.3 133.55 81.75 133.55 81.6 133.5 81.45 132.95 80.15 132 79 131.55 78.45 131.4 77.75 131.1 77.65 130.8 77.5 130.75 77.5 130.65 77.45 130.55 77.35 130.5 77.25 130.35 77.1 130.25 76.95 129.15 76.9 128 76.85 125.5 78.5 123.3 80.9 118.5 86.15 114.6 91.8 114.1 91.4 113.5 91.05 107.35 87.35 101.7 82.75 101.15 82.6 100.6 82.4 100.4 82.35 100.25 82.25 99.2 82.2 98.1 82.25 98 82.25 97.9 82.35 97.95 82.9 97.65 83.3 97.55 83.45 97.5 83.6 97.5 83.9 97.5 84.2 97.25 88.35 97.2 92.5 97.1 97.7 97.1 102.95 91.85 102.6 86.8 100.95 83.539453125 99.9080078125 80.55 99.9 79.0927734375 99.904296875 77.7 100.15 77.15 100.1 76.65 100.1 76.65 100.25 76.65 100.4 76.4 100.45 76.2 100.5 76.4 100.9 76.55 101.35 76.35 104.1 76.35 106.9 76.35 113.45 76.35 120 74.4 120.4 72.45 120.7 67.4 121.45 64.3 123.75 64.75 124.7 65.35 125.5 65.05 126.35 64.8 127.25 64.35 128.65 64.85 129.95 64.95 132.35 65.25 134.7 65.4921875 136.1880859375 65.6 137.7 65.6345703125 138.37265625 65.65 139.05 65.25 139.1 64.85 139.15 62.6 139.8 60.25 140.55 60.15 140.6 60 140.65 59.95 140.7 59.95 140.8 59.25 140.85 58.6 140.95 59.2 140.95 59.85 141 59.8 141 59.75 141.05 59.65 141.15 59.6 141.25 59.6 141.35 59.6 141.45 59.6 141.55 59.6 141.65 59.6 141.75 59.6 141.85 59.6 141.9 59.6 141.95 59.55 141.95 59.45 142 59.4 142 59.4 142.15 59.4 142.3 59.4 142.45 59.4 142.95 59.4 143.4 59.4 143.55 59.4 143.7 59.9 144.05 59.85 144.6 59.8 144.75 59.8 144.95 60.05 145.25 60.3 145.55 60.45 145.7 60.55 145.85 60.6 146 60.6 146.15 60.6 146.7 60.9 147.1 60.85 148.65 60.75 150.15 60.652734375 152.2912109375 61.25 154.25 63.179296875 154.2623046875 65.1 154.25 64.8478515625 153.5927734375 64.65 152.9 64.05 150.95 63.1 149.25 63.1 148.9 63.1 148.6 63.1 147.85 63.1 147.1 63.1 146.9 63.1 146.75 63.05 146.6 63 146.45 62.95 146.25 62.85 146.1 62.85 145.95 62.85 145.8 62.75 145.7 62.7 145.55 62.65 145.45 62.6 145.35 62.6 145.1 62.6 144.85 62.6 144 62.6 143.1 62.6 143 62.6 142.85
L 62.6 142.75
Q 62.2 142.7 61.85 142.7 61.85 142.6 61.85 142.5 61.85 142.3 61.8 142.1 61.8 141.9 61.85 141.7 61.85 141.6 61.9 141.5 62.5 141.2 63.1 141 67.55 140.95 72.4 140.6 76.55 140.25 79.05 138.6 78.8380859375 138.1458984375 78.6 137.7 77.687109375 135.936328125 76.45 134.3 72.5 129.3 67.75 125.2 67.9 124.7 67.85 124.2
L 67.85 124.1
Q 67.35 124 66.85 124 66.8 123.9 66.7 123.8 66.55 123.7 66.45 123.55 73.9017578125 122.2900390625 80.55 120.15 83.1357421875 119.3521484375 85.6 118.4 85.6 118.25 85.6 118.1 85.6 117.65 85.6 117.2 85.55 117 85.5 116.85 83.65 114 82.4 110.8 81.446484375 108.247265625 80.55 105.65 79.9888671875 104.0666015625 79.45 102.45 79.2 102.15 78.95 101.8 78.85 101.65 78.75 101.5 78.7 101.2 78.6 100.9
L 78.6 100.85
Q 78.6 100.75 78.6 100.65 79.5765625 100.90703125 80.55 101.15 89.99375 103.4234375 99.15 103.65 99.15 103.35 99.15 103.05 99.15 98.9 99.1 94.75 99.05 89.05 99.85 83.7 100.6 84.2 101.35 84.7 103.5 86.2 105.7 87.6 106.2 88.25 106.85 88.75 110.05 90.9 113.25 92.9 115.05 92.75 116.85 92.6 118.1 90.35 119.65 88.3 123.65 83 128.5 78.45 128.95 78.4 129.35 78.45 129.4 78.45 129.45 78.55 129.5 78.75 129.55 78.85 130.1 80.05 130.95 81.05 131.2 81.35 131.4 81.65 131.45 81.8 131.45 81.95 131.5 82.1 131.5 82.25 132.45 83.35 132.9 84.7 133.15 85.35 133.45 85.95 134.15 86.5 134.7 87.25 134.75 87.35 134.75 87.5 135.75 88.25 136.35 89.35 136.4 89.5 136.4 89.65 136.75 89.75 137.1 89.85 137.2 89.9 137.25 89.95 137.3 90.05 137.35 90.15 137.5 90.3 137.65 90.45 138.85 90.5 140.1 90.5
L 140.1 90.45
Q 144.9904296875 87.6203125 149.9 85.3 152.9712890625 83.8814453125 156.05 82.65 156.55 83 156.5 83.6 156.5 83.75 156.5 83.9 156.6 84.05 156.7 84.2 156.8 84.35 156.9 84.5 156.9 84.95 156.9 85.45 156.9 85.6 156.9 85.75 157.05 86.05 157.1 86.35 157.25 87.3 157.55 88.2 157.6 88.35 157.7 88.5 157.7 88.95 157.7 89.45 157.7 90.2 157.7 90.95 157.7 91.1 157.7 91.25 157.9 91.75 158.05 92.2 158.1 92.35 158.1 92.5 158.2 92.65 158.3 92.8 158.6 93.75 159.05 94.65 159.15 94.8 159.25 94.95 168.85 93.15 178.2 91.25 178.8 91.55 178.65 92.2
M 204.55 128.75
Q 204.55 130 204.55 131.2 204.55 133.8 204.55 136.35 198.45 135.45 192.65 134.5 193.4 134.25 194.1 133.9 194.15 133.85 194.15 133.75 194.35 133.1 195.05 132.8 195.25 132.7 195.4 132.55 195.8 132.45 196.2 132.3 196.3 132.3 196.4 132.25 196.85 131.75 197.3 131.35 197.45 131.25 197.55 131.1 198.65 130.6 199.8 130.25 199.9 130.25 200 130.2 200.15 130.1 200.3 129.95 200.45 129.8 200.6 129.65 201.4 129.5 202.15 129.4 203.45 129.2 204.55 128.75
M 191.7 118.2
Q 191.75 118.05 191.85 117.95 192.1 117.75 192.4 117.6 193.65 116.15 194.65 114.55 195.6 113.05 196.65 111.65 196.7 111.75 196.7 111.9 196.7 113.45 196.7 115.05 196.7 115.9 196.7 116.8 197.15 118.4 197 120.15 197 120.3 197 120.5 194.05 119.25 191.7 118.2
M 78.35 105.8
Q 78.7 106.65 79 107.55 79.7375 109.54140625 80.55 111.45 81.9404296875 114.8123046875 83.55 118 82.05859375 118.4970703125 80.55 118.95 79.479296875 119.259375 78.4 119.55 78.25 116.65 78.25 113.7 78.2 109.75 78.35 105.8
M 72.5 132.95
Q 73.3 134.45 74.55 135.6 75.735546875 136.65 76.15 137.7 76.3677734375 138.2 76.4 138.7 73.8 139.05 71.25 139.35 71.1 139.3 71 139.3 69.35 138.95 67.7 138.95 67.6435546875 138.328515625 67.55 137.7 67.4935546875 136.659765625 67.4 135.6 67.05 132.45 66.8 129.3 66.6 128.95 66.6 128.5 66.6 128.45 66.55 128.35 66.7 127.75 66.95 127.2 69.9 129.9 72.5 132.95
M 114.85 123.1
Q 114.75 123 114.65 122.9 113.45 122.15 112.15 121.65 108.05 120.2 103.65 120.4 97.55 120.65 92.75 124.5 91.4 125.6 90.8 127.3 90.8 127.4 90.8 127.5 90.8 127.75 90.8 128.05 90.8 128.15 90.8 128.25 90.8 128.35 90.8 128.45 90.8 128.65 90.8 128.85 90.8 128.95 90.8 129.05 90.85 129.15 90.85 129.25 90.95 129.35 91 129.45 91.1 129.55 91.2 129.65 91.35 129.75 91.45 129.85 94.1 133.6 98.75 134.55 107.5 136.25 115.85 133.55 116.2 133.2 116.6 132.85 117 132.5 117.25 132.1 117.5 131.75 117.75 131.45 117.8 131.35 117.85 131.25 117.9 131.2 117.95 131.1 117.95 131 117.95 130.9 117.95 130.8 117.95 130.7 117.95 130.6 117.95 130.5 117.95 130.4 118 130.3 118.05 130.2 118.1 130.1 118.15 130 118.2 129.9 118.2 129.8 118.2 129.7 118.2 129.4 118.2 129.1 118.2 129 118.2 128.9 118.2 128.8 118.2 128.7 118.2 128.5 118.2 128.35 118.2 128.25 118.2 128.15 118.2 128.05 118.2 127.95 118.15 127.85 118.1 127.75 118.05 127.65 118 127.5 117.95 127.45 117.95 127.35 117.95 127.25 117.95 127.15 117.95 127.05 117.95 126.95 117.9 126.75 117.85 126.55 117.85 126.45 117.8 126.35 117.75 126.25 117.75 126.15 117.65 126.05 117.6 125.95 117.5 125.85 117.35 125.75 117.25 125.65 117.15 125.6 117.05 125.5 116.95 125.4 116.9 125.3 116.9 125.2 116.85 125.1 116.8 125 116.75 124.9 116.7 124.8 116.55 124.7 116.45 124.6 116.35 124.5 116.25 124.4 116.05 124.2 115.9 124 115.85 123.9 115.75 123.8 115.7 123.7 115.65 123.6 115.5 123.55 115.3 123.5 115.2 123.45 115.15 123.4 115.05 123.35 115 123.3 114.9 123.2 114.85 123.1
M 103.65 121.4
Q 108.7 120.95 112.9 123.65 112.9 123.75 113 123.85 113.05 123.95 113.15 124.05 113.35 124.15 113.55 124.2 113.65 124.25 113.75 124.35 113.85 124.55 114 124.75 114.2 125.1 114.5 125.35 114.65 125.4 114.7 125.5 114.8 125.7 114.95 125.9 115.15 126.25 115.45 126.5 115.6 126.6 115.7 126.7 115.75 126.8 115.8 126.9 115.85 127 115.9 127.1 115.95 127.2 115.95 127.3 115.95 127.4 115.95 127.5 115.95 127.65 115.95 127.85 115.95 127.95 115.95 128.05 115.95 128.15 115.95 128.25 116.1 128.45 116.2 128.65 116.25 128.75 116.25 128.85 116.25 128.95 116.25 129.05 116.25 129.15 116.2 129.2 116.05 129.5 116 129.85 115.95 130.15 115.95 130.4 115.95 130.5 115.9 130.6 115.75 130.8 115.55 131 112.05 135.1 106.05 133.9 104.75 133.25 103.25 133.65 101.05 134.2 98.05 132.95 94.6 131.45 92.75 128.35 93.05 126.55 94.5 125.3 98.45 121.85 103.65 121.4
M 170.85 120.55
Q 166.8 119 162.3 119.55 158 120.15 154.3 122.5 153 123.3 151.95 124.4 151.9 124.5 151.85 124.6 151.8 124.7 151.75 124.8 151.7 124.9 151.6 125 151.6 125.4 151.6 125.75 151.6 126.25 151.6 126.75 151.6 127.25 151.6 127.75 151.6 127.85 151.6 127.95 151.8 128.25 152.05 128.5 152.1 128.6 152.2 128.7 152.3 128.8 152.4 128.9 153.6 131.8 156.7 132.5 165.6 134.45 174.6 131.4 175.55 130.7 176.25 129.8 176.85 129.05 177.1 128.25 177.15 128.15 177.2 128.05 177.2 127.95 177.2 127.85 177.2 127.6 177.2 127.3 177.2 127.1 177.2 126.9 177.2 126.8 177.2 126.7 177.1 126.6 177.05 126.5 177 126.4 176.9 126.3 176.9 126.1 176.9 125.9 176.9 125.8 176.85 125.75 176.8 125.6 176.65 125.5 176.65 125.3 176.65 125.1 176.6 125 176.6 124.9 176.55 124.8 176.5 124.7 176.1 124.4 175.75 124 175.1 123.35 174.45 122.75 174.35 122.65 174.3 122.55 174.1 122.5 173.9 122.45 173.75 122.4 173.6 122.35 173.5 122.35 173.45 122.3 172.4 121.15 170.85 120.55
M 164.05 120.25
Q 164.46328125 120.289453125 164.85 120.3 165.51328125 120.408984375 166.15 120.5 169.3 120.95 171.6 123 171.85 123.1 172.05 123.15 172.25 123.2 172.45 123.3 172.55 123.65 172.85 123.85 173.9 124.6 174.6 125.6 174.65 125.65 174.65 125.75 174.7 125.85 174.7 125.95 174.7 126.05 174.7 126.15 175 126.4 175.05 126.75 175.1 127.15 175.15 127.55 175.05 127.75 175 127.95 174.9 128.15 174.9 128.35 174.65 128.6 174.5 128.85 173.75 129.95 172.7 130.7 165.2 133.05 157.5 131.75 157.4 131.65 157.25 131.6 156.5 131.05 155.85 130.5 154.75 129.55 154.35 128.25 154.2 128.05 154 127.85 153.8 127.55 153.6 127.3 153.6 126.8 153.55 126.3 153.55 125.8 153.7 125.3 154.8 124.1 156.15 123.25 159.488671875 121.070703125 163.4 120.35 163.737890625 120.297265625 164.05 120.25 Z" stroke="none" fill="#000000"></path>

<path d="M 178.6 92.5
Q 178.6 92.35 178.65 92.2 178.8 91.55 178.2 91.25 168.85 93.15 159.25 94.95 159.15 94.8 159.05 94.65 158.6 93.75 158.3 92.8 158.2 92.65 158.1 92.5 158.1 92.35 158.05 92.2 157.9 91.75 157.7 91.25 157.7 91.1 157.7 90.95 157.7 90.2 157.7 89.45 157.7 88.95 157.7 88.5 157.6 88.35 157.55 88.2 157.25 87.3 157.1 86.35 157.05 86.05 156.9 85.75 156.9 85.6 156.9 85.45 156.9 84.95 156.9 84.5 156.8 84.35 156.7 84.2 156.6 84.05 156.5 83.9 156.5 83.75 156.5 83.6 156.55 83 156.05 82.65 152.9712890625 83.8814453125 149.9 85.3 144.9904296875 87.6203125 140.1 90.45
L 140.1 90.5
Q 138.85 90.5 137.65 90.45 137.5 90.3 137.35 90.15 137.3 90.05 137.25 89.95 137.2 89.9 137.1 89.85 136.75 89.75 136.4 89.65 136.4 89.5 136.35 89.35 135.75 88.25 134.75 87.5 134.75 87.35 134.7 87.25 134.15 86.5 133.45 85.95 133.15 85.35 132.9 84.7 132.45 83.35 131.5 82.25 131.5 82.1 131.45 81.95 131.45 81.8 131.4 81.65 131.2 81.35 130.95 81.05 130.1 80.05 129.55 78.85 129.5 78.75 129.45 78.55 129.4 78.45 129.35 78.45 128.95 78.4 128.5 78.45 123.65 83 119.65 88.3 118.1 90.35 116.85 92.6 115.05 92.75 113.25 92.9 110.05 90.9 106.85 88.75 106.2 88.25 105.7 87.6 103.5 86.2 101.35 84.7 100.6 84.2 99.85 83.7 99.05 89.05 99.1 94.75 99.15 98.9 99.15 103.05 99.15 103.35 99.15 103.65 89.99375 103.4234375 80.55 101.15 79.5765625 100.90703125 78.6 100.65 78.6 100.75 78.6 100.85
L 78.6 100.9
Q 78.7 101.2 78.75 101.5 78.85 101.65 78.95 101.8 79.2 102.15 79.45 102.45 79.9888671875 104.0666015625 80.55 105.65 81.446484375 108.247265625 82.4 110.8 83.65 114 85.5 116.85 85.55 117 85.6 117.2 85.6 117.65 85.6 118.1 85.6 118.25 85.6 118.4 83.1357421875 119.3521484375 80.55 120.15 73.9017578125 122.2900390625 66.45 123.55 66.55 123.7 66.7 123.8 66.8 123.9 66.85 124 67.35 124 67.85 124.1
L 67.85 124.2
Q 67.9 124.7 67.75 125.2 72.5 129.3 76.45 134.3 77.687109375 135.936328125 78.6 137.7 78.8380859375 138.1458984375 79.05 138.6 76.55 140.25 72.4 140.6 67.55 140.95 63.1 141 62.5 141.2 61.9 141.5 61.85 141.6 61.85 141.7 61.8 141.9 61.8 142.1 61.85 142.3 61.85 142.5 61.85 142.6 61.85 142.7 62.2 142.7 62.6 142.75
L 62.6 142.85
Q 62.6 143 62.6 143.1 62.6 144 62.6 144.85 62.6 145.1 62.6 145.35 62.65 145.45 62.7 145.55 62.75 145.7 62.85 145.8 62.85 145.95 62.85 146.1 62.95 146.25 63 146.45 63.05 146.6 63.1 146.75 63.1 146.9 63.1 147.1 63.1 147.85 63.1 148.6 63.1 148.9 63.1 149.25 64.05 150.95 64.65 152.9 64.8478515625 153.5927734375 65.1 154.25 72.7638671875 154.3166015625 80.55 154.25 85.7724609375 154.2130859375 91.05 154.1 90.791796875 153.7435546875 90.55 153.35 89.15 151.15 87.7 148.95 87.7 148.85 87.7 148.75 87.65 148.6 87.65 148.4 87.65 148.3 87.65 148.2 87.65 148.1 87.65 148 87.6 147.9 87.55 147.8 87.45 147.6 87.4 147.4 87.4 147.3 87.4 147.2 87.35 147.1 87.3 147 87.25 146.9 87.15 146.8 87.15 146.7 87.15 146.6 87.15 146.4 87.15 146.2 87.15 146.1 87.15 146 87.15 145.9 87.15 145.85 87.2 145.75 87.25 145.7 88.5 145.75 89.7 145.75 90.25 146.35 91 146.7 92.5 147.4 93.9 148.4 94.05 148.45 94.2 148.45 95.45 148.55 96.35 149.3 96.45 149.4 96.55 149.5 96.75 149.55 96.9 149.6 97.25 149.7 97.55 149.75 97.65 149.85 97.75 149.95 97.9 150.15 98 150.35 98.1 150.45 98.15 150.55 98.2 150.6 98.3 150.65 98.75 150.75 99.2 150.8 101.8306640625 152.4859375 104.6 153.8 105.0501953125 153.8126953125 105.5 153.8 117.8 153.45 130.15 153.45 140.0439453125 153.419921875 149.9 153.25 166.201953125 153.0517578125 182.4 152.5 184.7 151.5369140625 186.95 150.4 187.05 150.3 187.15 150.2 187.2 150.1 187.25 150 188.25 149.65 189.15 149.15 190.65 148.25 192 147.2 192.1 147.1 192.15 147 192.2 146.9 192.3 146.85 192.4 146.75 192.5 146.7
L 192.5 146.65
Q 193.5 146.75 194.45 146.95 194.5 146.95 194.5 147.05 194.5 147.15 194.45 147.25 194.4 147.65 194.1 147.9 193.8 148.15 193.5 148.45 193.45 148.55 193.45 148.65 193.4 148.75 193.35 148.85 193.35 148.95 193.3 149.05 193.2 149.15 193.1 149.2 192.6 149.5 192.25 149.9 191.9 150.35 191.45 150.8 191.45 150.9 191.4 151 191.35 151.1 191.3 151.2 191.25 151.3 191.2 151.4 190.7642578125 151.8357421875 190.3 152.25 199.07734375 151.9353515625 207.8 151.5 208.0419921875 150.6734375 208.25 149.8 208.95 146.7 210.15 143.7 210.15 142.8 210.15 141.85 210.15 140.15 210.15 138.5 210.15 138.3 210.15 138.15 208.691796875 137.9224609375 207.2 137.7 198.441796875 136.3580078125 189.65 135.2 189.65 135.05 189.7 134.95 190.15 134.2 190.8 133.65 190.9 133.55 191 133.45 191.05 133.4 191.1 133.4 191.6 133.25 192.1 133.15 192.15 133 192.25 132.9 192.85 132.25 193.55 131.7 193.95 131.6 194.35 131.5 195.3 130.45 196.65 130 197.8 129.65 198.75 128.95 201.2 128.5 203.3 127.35 203.85 127.05 204.6 126.7 196.95 121.7 189.25 118.5 190.9 116.25 192.75 113.65 193.95 111.95 195.2 110.2 195.25 110.05 195.25 109.9 195.35 109.45 195.4 109 195.55 108.85 195.7 108.75 195.05 107.2 194.85 105.6 195.15 105.6 195.45 105.65 195.35 105.55 195.3 105.5
L 195.3 105.45
Q 194.15 105.25 193.15 104.7 186.05 104.45 179 104.15 179 101.25 179.15 98.35 179.3 95.3 178.6 92.5
M 162.3 119.55
Q 166.8 119 170.85 120.55 172.4 121.15 173.45 122.3 173.5 122.35 173.6 122.35 173.75 122.4 173.9 122.45 174.1 122.5 174.3 122.55 174.35 122.65 174.45 122.75 175.1 123.35 175.75 124 176.1 124.4 176.5 124.7 176.55 124.8 176.6 124.9 176.6 125 176.65 125.1 176.65 125.3 176.65 125.5 176.8 125.6 176.85 125.75 176.9 125.8 176.9 125.9 176.9 126.1 176.9 126.3 177 126.4 177.05 126.5 177.1 126.6 177.2 126.7 177.2 126.8 177.2 126.9 177.2 127.1 177.2 127.3 177.2 127.6 177.2 127.85 177.2 127.95 177.2 128.05 177.15 128.15 177.1 128.25 176.85 129.05 176.25 129.8 175.55 130.7 174.6 131.4 165.6 134.45 156.7 132.5 153.6 131.8 152.4 128.9 152.3 128.8 152.2 128.7 152.1 128.6 152.05 128.5 151.8 128.25 151.6 127.95 151.6 127.85 151.6 127.75 151.6 127.25 151.6 126.75 151.6 126.25 151.6 125.75 151.6 125.4 151.6 125 151.7 124.9 151.75 124.8 151.8 124.7 151.85 124.6 151.9 124.5 151.95 124.4 153 123.3 154.3 122.5 158 120.15 162.3 119.55
M 114.65 122.9
Q 114.75 123 114.85 123.1 114.9 123.2 115 123.3 115.05 123.35 115.15 123.4 115.2 123.45 115.3 123.5 115.5 123.55 115.65 123.6 115.7 123.7 115.75 123.8 115.85 123.9 115.9 124 116.05 124.2 116.25 124.4 116.35 124.5 116.45 124.6 116.55 124.7 116.7 124.8 116.75 124.9 116.8 125 116.85 125.1 116.9 125.2 116.9 125.3 116.95 125.4 117.05 125.5 117.15 125.6 117.25 125.65 117.35 125.75 117.5 125.85 117.6 125.95 117.65 126.05 117.75 126.15 117.75 126.25 117.8 126.35 117.85 126.45 117.85 126.55 117.9 126.75 117.95 126.95 117.95 127.05 117.95 127.15 117.95 127.25 117.95 127.35 117.95 127.45 118 127.5 118.05 127.65 118.1 127.75 118.15 127.85 118.2 127.95 118.2 128.05 118.2 128.15 118.2 128.25 118.2 128.35 118.2 128.5 118.2 128.7 118.2 128.8 118.2 128.9 118.2 129 118.2 129.1 118.2 129.4 118.2 129.7 118.2 129.8 118.2 129.9 118.15 130 118.1 130.1 118.05 130.2 118 130.3 117.95 130.4 117.95 130.5 117.95 130.6 117.95 130.7 117.95 130.8 117.95 130.9 117.95 131 117.95 131.1 117.9 131.2 117.85 131.25 117.8 131.35 117.75 131.45 117.5 131.75 117.25 132.1 117 132.5 116.6 132.85 116.2 133.2 115.85 133.55 107.5 136.25 98.75 134.55 94.1 133.6 91.45 129.85 91.35 129.75 91.2 129.65 91.1 129.55 91 129.45 90.95 129.35 90.85 129.25 90.85 129.15 90.8 129.05 90.8 128.95 90.8 128.85 90.8 128.65 90.8 128.45 90.8 128.35 90.8 128.25 90.8 128.15 90.8 128.05 90.8 127.75 90.8 127.5 90.8 127.4 90.8 127.3 91.4 125.6 92.75 124.5 97.55 120.65 103.65 120.4 108.05 120.2 112.15 121.65 113.45 122.15 114.65 122.9 Z" stroke="none" fill="#FDDF5E"></path>
</g>
</g>
</g>
</g>
</svg>
