
<svg viewBox="0 0 112 184" height="184px" width="112px" y="0px" x="0px" preserveAspectRatio="none" xmlns:xlink="http://www.w3.org/1999/xlink" version="1.1" xmlns="http://www.w3.org/2000/svg">
<defs></defs>

<g id="fun_scrollers">
<g transform="matrix( 0.3621063232421875, 0, 0, 0.3621063232421875, -594.2,0.1)" id="svg"></g>

<g transform="matrix( 0.3621063232421875, 0, 0, 0.3621063232421875, -594.2,0.1)" id="Layer_2"></g>

<g transform="matrix( 0.3621063232421875, 0, 0, 0.3621063232421875, -594.2,0.1)" id="Layer_3"></g>

<g transform="matrix( 0.3621063232421875, 0, 0, 0.3621063232421875, -594.2,0.1)" id="Layer_2">
<g>
<g>
<g>
<path d="M 1931.1 105.75
L 1931.1 110.55 1929.2 110.55
Q 1920.1 114.7 1914.8 117.95 1907.25 122.6 1902.5 128.15 1898.5 133.85 1896.7 141.25 1895.2 147.35 1895.1 155.5
L 1894.85 204.5
Q 1894.9 215.85 1894.7 238.3
L 1894.6 256.6
Q 1894.5 273.15 1894.45 276 1894.3 287 1893.9 295.45 1893.35 305.25 1893.55 318.05 1893.8 341.95 1893.4 360.3 1892.8 390.05 1892.8 408.4
L 1892.8 427.8
Q 1892.8 436.6 1893.95 441.6 1896.5 448.45 1902.55 453.55 1906.2 455.35 1910.5 456.3 1913.9 456.95 1918.75 457.3
L 1936.95 457.6 1936.95 451.4
Q 1934.9998046875 451.4111328125 1933.4 451.4 1920.9 451.25 1912.05 449.4 1909 448.5 1907.4 447.3 1905.75 446.2 1903.75 443.6 1901.4 439.2 1900.4 435.85 1899.35 432.1 1899.3 427.5
L 1899.5 389.15
Q 1899.6 381 1899.6 376.95
L 1900.35 303.85
Q 1900.85 246.85 1901.35 225 1901.85 207.5 1901.85 194.9
L 1902.05 158.3
Q 1902 152.2 1902.2 149.7 1902.5 145.1 1903.8 141.35
L 1905.3 138.6
Q 1913.5 128.95 1916.85 126.35 1920.13515625 123.76171875 1931.65 118 1931.6978515625 117.976171875 1931.75 117.95
L 1935.05 116.35
Q 1933.8 116 1932.15 115.35
L 1931.85 113.2
Q 1931.85 113.1 1932.1 105.75
L 1931.55 105.75 1931.1 105.75 Z" stroke="none" fill="#706C84"></path>

<path d="M 1936.25 83.7
Q 1935.5 90.05 1933.85 94.85 1932.0748046875 99.9478515625 1931.55 105.75
L 1932.1 105.75
Q 1931.85 113.1 1931.85 113.2
L 1932.15 115.35
Q 1933.8 116 1935.05 116.35
L 1931.75 117.95
Q 1931.6978515625 117.976171875 1931.65 118 1931.9150390625 117.9087890625 1932.15 117.85 1934.594921875 117.0126953125 1936.95 116.55
L 1936.95 73.9
Q 1936.5193359375 81.00625 1936.25 83.7
M 1908.6 40
L 1908.6 42.7
Q 1908.55 44.65 1908.5 48.6 1908.6 52 1909.75 54.25 1912.65 55.65 1913.45 55.95 1914.3 56.2 1916.4 56.5
L 1936.95 56.95 1936.95 50 1915.5 49.5
Q 1912.75 43.4 1914.5 37 1925.70390625 33.5783203125 1936.95 31.7
L 1936.95 26.2
Q 1936.925 26.1974609375 1936.9 26.2
L 1933.45 26.6
Q 1925.85 27.4 1921.45 28.2 1914.75 29.3 1909.65 31.15 1908.8 32.8 1908.7 33.95 1908.55 35.05 1908.6 40 Z" stroke="none" fill="#7E1A34"></path>

<path d="M 1936.95 400.35
Q 1930.5427734375 399.9505859375 1928.7 400.1 1924.25 400.3 1920.9 402.1 1919.45 405.05 1919.1 406.15 1918.75 407.25 1918.3 410.75 1918.65 414.3 1918.95 415.4 1919.3 416.45 1920.95 419.4 1924.7 421.25 1927.4 421.45 1929.41953125 421.599609375 1936.95 421.35
L 1936.95 400.35
M 1936.95 242.15
Q 1927.8947265625 242.1603515625 1927.75 242.45 1925.5 254.05 1928.95 261.6 1932.75 263.7 1934.7 263.95 1935.4134765625 264.059765625 1936.95 264.05
L 1936.95 242.15 Z" stroke="none" fill="#9DAEEA"></path>

<path d="M 1936.95 165.85
L 1926.2 165.85
Q 1921.9 165.7 1917.95 166.45 1917.35 168.6 1917.35 169.3 1917.4 170.05 1918 172.25
L 1921.75 173.85 1926.65 175.15
Q 1933.0509765625 178.0376953125 1936.95 179.4
L 1936.95 165.85 Z" stroke="none" fill="#992A3F"></path>

<path d="M 1920.7 137.5
L 1919.75 138.5 1919.75 138.6
Q 1919.4 139.9 1919.15 141.3 1918.6 144.05 1918.25 146.8 1918.1 148.15 1918.05 149.55 1917.95 151 1918 152.45 1918 153.8 1918.1 155.25 1918.15 156.7 1918.35 158.2 1918.55 159.65 1918.85 161.05 1918.95 161.45 1919.15 161.85 1919.25 162.1 1919.4 162.45 1919.45 162.6 1919.55 162.75 1919.6 162.8 1919.65 162.85 1919.75 162.95 1919.9 163.05 1920.05 163.15 1920.2 163.25 1920.45 163.4 1920.7 163.55 1920.9 163.7 1921.25 163.75 1921.95 164.1 1922.8 164.35
L 1936.95 164.3 1936.95 136.4 1932.8 136.4
Q 1932.05 136.4 1931.4 136.4 1930.75 136.4 1930.15 136.4 1929.6 136.4 1929.1 136.4 1928.6 136.4 1928.15 136.4 1927.75 136.45 1927.4 136.45 1927.05 136.45 1926.8 136.45 1926.55 136.45 1926.35 136.45 1926.15 136.45 1926 136.45 1925.15 136.6 1924.35 136.75 1923.5 136.95 1922.7 137.2 1922.2669921875 137.3353515625 1921.85 137.5
L 1920.7 137.5 Z" stroke="none" fill="#110F1A"></path>

<path d="M 1932.15 117.85
Q 1931.9150390625 117.9087890625 1931.65 118 1920.13515625 123.76171875 1916.85 126.35 1913.5 128.95 1905.3 138.6
L 1903.8 141.35
Q 1902.5 145.1 1902.2 149.7 1902 152.2 1902.05 158.3
L 1901.85 194.9
Q 1901.85 207.5 1901.35 225 1900.85 246.85 1900.35 303.85
L 1899.6 376.95
Q 1899.6 381 1899.5 389.15
L 1899.3 427.5
Q 1899.35 432.1 1900.4 435.85 1901.4 439.2 1903.75 443.6 1905.75 446.2 1907.4 447.3 1909 448.5 1912.05 449.4 1920.9 451.25 1933.4 451.4 1934.9998046875 451.4111328125 1936.95 451.4
L 1936.95 421.35
Q 1929.41953125 421.599609375 1927.4 421.45 1924.7 421.25 1920.95 419.4 1919.3 416.45 1918.95 415.4 1918.65 414.3 1918.3 410.75 1918.75 407.25 1919.1 406.15 1919.45 405.05 1920.9 402.1 1924.25 400.3 1928.7 400.1 1930.5427734375 399.9505859375 1936.95 400.35
L 1936.95 264.05
Q 1935.4134765625 264.059765625 1934.7 263.95 1932.75 263.7 1928.95 261.6 1925.5 254.05 1927.75 242.45 1927.8947265625 242.1603515625 1936.95 242.15
L 1936.95 179.4
Q 1933.0509765625 178.0376953125 1926.65 175.15
L 1921.75 173.85 1918 172.25
Q 1917.4 170.05 1917.35 169.3 1917.35 168.6 1917.95 166.45 1921.9 165.7 1926.2 165.85
L 1936.95 165.85 1936.95 164.3 1922.8 164.35
Q 1921.95 164.1 1921.25 163.75 1920.9 163.7 1920.7 163.55 1920.45 163.4 1920.2 163.25 1920.05 163.15 1919.9 163.05 1919.75 162.95 1919.65 162.85 1919.6 162.8 1919.55 162.75 1919.45 162.6 1919.4 162.45 1919.25 162.1 1919.15 161.85 1918.95 161.45 1918.85 161.05 1918.55 159.65 1918.35 158.2 1918.15 156.7 1918.1 155.25 1918 153.8 1918 152.45 1917.95 151 1918.05 149.55 1918.1 148.15 1918.25 146.8 1918.6 144.05 1919.15 141.3 1919.4 139.9 1919.75 138.6
L 1919.75 138.5 1920.7 137.5 1921.85 137.5
Q 1922.2669921875 137.3353515625 1922.7 137.2 1923.5 136.95 1924.35 136.75 1925.15 136.6 1926 136.45 1926.15 136.45 1926.35 136.45 1926.55 136.45 1926.8 136.45 1927.05 136.45 1927.4 136.45 1927.75 136.45 1928.15 136.4 1928.6 136.4 1929.1 136.4 1929.6 136.4 1930.15 136.4 1930.75 136.4 1931.4 136.4 1932.05 136.4 1932.8 136.4
L 1936.95 136.4 1936.95 116.55
Q 1934.594921875 117.0126953125 1932.15 117.85 Z" stroke="none" fill="#F5F7F9"></path>

<path d="M 1936.95 31.7
Q 1925.70390625 33.5783203125 1914.5 37 1912.75 43.4 1915.5 49.5
L 1936.95 50 1936.95 31.7 Z" stroke="none" fill="#DF202E"></path>
</g>
</g>
</g>
</g>

<g transform="matrix( 0.3621063232421875, 0, 0, 0.3621063232421875, -594.2,0.1)" id="Layer_3">
<g>
<g>
<g>
<path d="M 1936.95 485.1
L 1936.95 474.65 1931.45 474.7
Q 1927.7 474.7 1925.35 475.05 1924.55 475.15 1924.3 475.4 1923.8 475.9 1924 477.2 1921.55 477.35 1918.35 477.85
L 1918.35 484.55
Q 1928.6328125 484.8927734375 1936.95 485.1
M 1887.4 436.4
Q 1887.2 436.7 1885.15 439.2 1883.8 440.9 1883.05 442.05 1878.5 448.85 1878.35 456.95
L 1871.65 457
Q 1871.05 457 1870.8 457.25 1870.55 457.45 1870.55 458.15
L 1870.55 466.5
Q 1870.55 467.7 1870.95 468.1 1871.4 468.5 1872.45 468.5
L 1877.05 468.55
Q 1879.2 468.65 1881.3 468.55 1883.65 468.45 1889.95 467.6 1890.75 467.5 1891.05 467.15 1891.4 466.85 1891.4 465.85
L 1891.45 462.15
Q 1891.55 459 1890.9 457.35 1890.45 456.15 1889.55 455.4 1888.55 454.5 1887.4 454.45 1887.9 452 1889.75 449.25 1890.15 448.7 1893.35 444.6 1894.95 442.6 1897.85 438.3
L 1900.35 434.6
Q 1901.4 432.55 1900.6 428.35 1899.65 428.5 1896.7 428.15 1894.15 427.95 1892.85 428.85 1892.15 429.35 1891.1 431.05 1889.45 433.8 1887.4 436.4 Z" stroke="none" fill="#000000"></path>
</g>
</g>
</g>
</g>

<g transform="matrix( 0.3621063232421875, 0, 0, 0.3621063232421875, -594.2,0.1)" id="MergedLayer_3">
<g>
<g>
<g>
<path d="M 1925.95 208.1
Q 1924.65 207.8 1924.1 207.25 1923.4 206.55 1923.3 204.6 1923.22265625 202.5484375 1923.5 201.1 1922.4576171875 201.239453125 1921.4 201.4
L 1921.45 200
Q 1920.5 200.15 1913.3 199.9 1908.4 199.75 1905.95 201.6 1903.85 203.25 1902.2 207.75 1897.1 221.95 1894.65 239.05 1892.65 253.2 1892.2 271.1 1891.95 280.3 1892.25 289.45 1892.4 292.75 1893.25 305.8 1893.85 315.85 1893.85 322.15 1893.85 325.8 1893.6 332.4 1893.4 339.5 1893.35 342.7 1893.3 347.45 1893.8 365.7 1894.25 379.85 1893.55 388.7 1903.25 388.7 1919.25 387.7 1930.18671875 387.0533203125 1936.95 386.7
L 1936.95 379.55
Q 1921.5849609375 380.0525390625 1901.15 381.6 1900.85 370.8 1900.9 336.2 1900.9 307.95 1899.9 290.9 1899.5 283.9 1899.35 280.45 1899.05 274.45 1899.15 269.95 1899.3 263 1900.9 250.75 1902.65 238 1904.4 230.2 1907 219.05 1911.05 210.5 1911.75 209.1 1912.6 208.3 1913.75 207.3 1914.9 207.65
L 1914.9 209.3
Q 1919.9 209.45 1927.15 208.5 1927.29375 208.48046875 1927.45 208.45 1926.6859375 208.286328125 1925.95 208.1 Z" stroke="none" fill="#6C6C87"></path>

<path d="M 1923.8 195.55
Q 1924 197.65 1925.5 197.95 1924.02890625 198.7775390625 1923.5 201.1 1923.22265625 202.5484375 1923.3 204.6 1923.4 206.55 1924.1 207.25 1924.65 207.8 1925.95 208.1 1926.6859375 208.286328125 1927.45 208.45 1931.8416015625 209.46640625 1936.95 210.05
L 1936.95 184.1
Q 1930.8126953125 185.400390625 1925.45 188.5 1924.2 189.2 1923.9 189.95 1923.7 190.4 1923.75 191.15 1923.8 191.55 1923.9 192.35 1923.9 192.85 1923.85 193.95 1923.75 195 1923.8 195.55 Z" stroke="none" fill="#7F7FA4"></path>

<path d="M 1927.45 208.45
Q 1927.29375 208.48046875 1927.15 208.5 1919.9 209.45 1914.9 209.3
L 1914.9 207.65
Q 1913.75 207.3 1912.6 208.3 1911.75 209.1 1911.05 210.5 1907 219.05 1904.4 230.2 1902.65 238 1900.9 250.75 1899.3 263 1899.15 269.95 1899.05 274.45 1899.35 280.45 1899.5 283.9 1899.9 290.9 1900.9 307.95 1900.9 336.2 1900.85 370.8 1901.15 381.6 1921.5849609375 380.0525390625 1936.95 379.55
L 1936.95 210.05
Q 1931.8416015625 209.46640625 1927.45 208.45 Z" stroke="none" fill="#DEDFE9"></path>
</g>
</g>
</g>
</g>

<g transform="matrix( 0.3621063232421875, 0, 0, 0.3621063232421875, -594.2,0.1)" id="Layer_4">
<g>
<g>
<g>
<path d="M 1936.95 361.7
L 1936.95 357.65
Q 1933.6541015625 358.048828125 1930.4 358.5 1930 358.55 1929.6 358.6 1922.55 359.9 1914.25 359.65 1913.7 362.75 1915.75 362.9 1919.75 363.3 1923.75 363.3 1926.3 363.3 1928.85 362.9 1932.7705078125 362.2548828125 1936.95 361.7 Z" stroke="none" fill="#000000"></path>
</g>
</g>
</g>
</g>

<g transform="matrix( 0.3621063232421875, 0, 0, 0.3621063232421875, -594.2,0.1)" id="Layer_5"></g>

<g transform="matrix( 0.3621063232421875, 0, 0, 0.3621063232421875, -594.2,0.1)" id="Layer_6"></g>

<g transform="matrix( 0.3621063232421875, 0, 0, 0.3621063232421875, -594.2,0.1)" id="MergedLayer_1">
<g>
<g>
<g>
<path d="M 1709.15 92.05
Q 1708.15 87 1705.35 78.15 1700.45 63.05 1696.4 52.95 1690.95 39.5 1684.9 29 1684.9 28.95 1684.85 28.9
L 1683.8 28.9
Q 1675.3 28.2 1664.25 28.8
L 1663.65 28.8
Q 1660.15 29 1656.35 29.3 1639.6388671875 31.0498046875 1630.2 31.7
L 1630.2 481.45 1717.65 481.35 1717.65 475.8
Q 1719.3 476.4 1721.1 475.5 1722.75 474.65 1723.7 473.05 1725.05 470.85 1725.25 466.1 1725.65 458.45 1725.45 440.85 1724.7 381.35 1728.9 322 1729.15 387.3 1736.95 441.45 1739.65 460.2 1746.5 496.95
L 1753.35 497.2
Q 1751.4 469.3 1749.6 413.6
L 1747.8 356.5
Q 1746.4 312.2 1746.05 291.4 1745.4 255.1 1746.15 226.25 1746.4 216.05 1745.75 210.8 1744.65 202.3 1740.85 196.7
L 1733.6 196.75 1727.7 231.65 1725.25 211.6 1721.5 211.25
Q 1721.9 207.3 1720.55 200.55 1719 192.8 1718.9 189.85 1718.8 187.4 1719.3 182.45 1719.8 177.6 1719.65 175.1 1719.4 170.9 1717 163.8 1714.4 155.95 1713.9 152.55 1713.6 150.65 1713.45 140.3 1713.3 132.85 1711.3 128.55
L 1704.4 128.3 1704.05 132.55 1700.95 127.05 1704.75 126.5
Q 1704.75 114.3 1700.2 102.9 1701.65 105.2 1704.4 106.15 1707.15 107.1 1709.75 106.2 1710.65 99.85 1709.15 92.05
M 1734 239.95
Q 1738.45 225.1 1738.45 216.55 1738.85 227.85 1738.9 243.35 1738.9 252.65 1738.8 271.25 1738.8 305.75 1740.35 348.8 1741.25 374.6 1743.7 426.35 1738.2 402.05 1737.05 355.6 1736.4 330.1 1735.8 319.85 1734.6 299.95 1731.75 284.5 1730 275.1 1729.9 274.5 1728.95 268.8 1729 264.4 1729.05 256.4 1734 239.95 Z" stroke="none" fill="#000000"></path>
</g>
</g>
</g>
</g>

<g transform="matrix( 0.3621063232421875, 0, 0, 0.3621063232421875, -594.2,0.1)" id="Layer_2"></g>
</g>
</svg>
