
<svg viewBox="0 0 272 172" height="172px" width="272px" y="0px" x="0px" preserveAspectRatio="none" xmlns:xlink="http://www.w3.org/1999/xlink" version="1.1" xmlns="http://www.w3.org/2000/svg">
<defs></defs>

<g id="Layer_2">
<g>
<g>
<g>
<path d="M 211.1 111.35
Q 211.25 108.7 210.85 106.1 210.3 108 209.85 109.9 209.05 113.15 207.35 116 207.35 116.15 207.35 116.3 207.2 116.75 207.25 117.25 207.25 117.4 207.25 117.55 206.9 118.1 206.55 118.7 205.9 119.9 205.6 121.2 205.6 121.4 205.55 121.55 203.95 124.4 201.7 126.8 200.3 128.4 199.1 130.15 198.75 130.3 198.45 130.45 197.65 130.85 197.25 131.65 192.892578125 134.9830078125 188.2 137.7 175.8361328125 144.9291015625 161.3 147.8 155.6251953125 148.92265625 149.9 149.35 141.602734375 149.998828125 133.2 149.2 110.5357421875 147.023828125 90.1 137.7 85.68671875 135.66953125 81.35 133.3 80.9462890625 133.0783203125 80.55 132.85 72.4619140625 128.16953125 67.6 120.4 67.3 119.4 66.75 118.4 65.85 116.85 64.4 115.8 64.35 115.65 64.35 115.5 64.3 115.2 64.3 114.85 63.7 113.95 63.3 113 63.3 113.15 63.3 113.25 63.3 114.95 63.9 116.45 63.95 118.85 64.5 121.2 64.95 123.05 64.9 125.05 65 125.15 65.05 125.3 65.1 125.4 65.15 125.55 65.15 125.65 65.15 125.8 65.05 126.8 65.35 127.75 65.45 128 65.55 128.25 65.55 128.35 65.55 128.5 65.55 129.2 65.55 129.95 65.55 130.1 65.55 130.2 65.65 130.35 65.7 130.45 65.8 130.95 65.8 131.45 65.8 131.55 65.8 131.7 65.9 131.8 65.95 131.9 66.05 132.05 66.1 132.15 66.15 132.3 66.15 132.4 66.2 133.05 66.2 133.65 66.2 133.75 66.2 133.9 66.2 134 66.25 134.1 66.5 134.4 66.8 134.65 66.8 134.75 66.85 134.85 67.1 135.5 67.4 136.1 67.45 136.2 67.5 136.35 68.1517578125 137.0017578125 68.7 137.7 69.3328125 138.4482421875 69.85 139.25 70.55 140.4 71.35 141.5 71.65 141.75 71.95 142 72.75 142.8 73.65 143.45 73.75 143.6 73.8 143.75 73.95 143.95 74.05 144.2 74.8 144.6 75.4 145.15 76.15 145.85 77 146.4 77.05 146.55 77.1 146.65 77.2 146.8 77.25 146.9 77.6 147.05 77.9 147.15 78 147.3 78.1 147.4 78.5 148.15 79.25 148.45 79.3 148.6 79.4 148.7 79.8384765625 149.4419921875 80.55 149.85 80.8931640625 150.0697265625 81.3 150.2 81.45 150.3 81.55 150.45 81.75 150.7 81.85 150.95 82.1 151.05 82.35 151.15 82.65 151.3 82.9 151.4 83 151.55 83.05 151.65 83.1 151.8 83.15 151.9 84.3 152.7 85.45 153.5 85.91875 153.830859375 86.35 154.2 95.833203125 154.0734375 105.5 153.8 117.8 153.45 130.15 153.45 140.0447265625 153.419921875 149.9 153.25 171.0146484375 152.9876953125 191.95 152.2 195.91640625 149.0234375 199.3 145.05 199.45 144.9 199.6 144.8 200 144.55 200.45 144.3 200.55 144.15 200.65 144.05 201.15 143.2 201.6 142.3 201.65 142.2 201.7 142.1 202.5 141.45 202.95 140.55 203.45 139.55 204.3 138.9 204.35 138.75 204.4 138.65 204.55 138.3 204.5 137.9 204.59140625 137.8021484375 204.65 137.7 205.2587890625 137.01953125 205.65 136.15 206.2 134.95 207 133.95 207 133.85 207.05 133.75 207.05 133.6 207.1 133.5 207.2 133.35 207.3 133.25 207.85 132.55 208.35 131.75 208.35 131.65 208.35 131.5 208.35 131.15 208.35 130.8 208.4 130.65 208.5 130.55 208.75 130.3 209 130.05 209 129.9 209 129.8 209 129.55 209 129.3 209.55 128.5 209.7 127.6 209.95 126.25 209.95 124.9 210.05 124.75 210.15 124.65 210.2 124.5 210.3 124.4 210.35 124.25 210.35 124.15 210.4 123.55 210.4 122.9 210.4 122.8 210.4 122.65 210.4 122.55 210.5 122.45 210.55 122.3 210.65 122.15 210.65 116.75 211.1 111.35
M 66.55 85.7
Q 66.6 85.8 66.6 85.85 66.6 86.3 66.8 86.65 67.05 89.8 67.4 92.95 67.55 94.65 67.7 96.3 69.35 96.3 71 96.65 71.1 96.65 71.25 96.7 73.8 96.4 76.4 96.05 76.3 94.5 74.55 92.95 73.3 91.8 72.5 90.3 69.9 87.25 66.95 84.55 66.7 85.1 66.55 85.7
M 80.55 68.8
Q 79.7375 66.89140625 79 64.9 78.7 64 78.35 63.15 78.2 67.1 78.25 71.05 78.25 74 78.4 76.9 79.479296875 76.609375 80.55 76.3 82.05859375 75.8470703125 83.55 75.35 81.9404296875 72.1623046875 80.55 68.8
M 200.3 87.3
Q 200.15 87.45 200 87.55 199.9 87.6 199.8 87.6 198.65 87.95 197.55 88.45 197.45 88.6 197.3 88.7 196.85 89.1 196.4 89.6 196.3 89.65 196.2 89.65 195.8 89.8 195.4 89.9 195.25 90.05 195.05 90.15 194.35 90.45 194.15 91.1 194.15 91.2 194.1 91.25 193.4 91.6 192.65 91.85 198.45 92.8 204.55 93.7 204.55 91.15 204.55 88.55 204.55 87.35 204.55 86.1 203.45 86.55 202.15 86.75 201.4 86.85 200.6 87 200.45 87.15 200.3 87.3
M 196.7 69.25
Q 196.7 69.1 196.65 69 195.6 70.4 194.65 71.9 193.65 73.5 192.4 74.95 192.1 75.1 191.85 75.3 191.75 75.4 191.7 75.55 194.05 76.6 197 77.85 197 77.65 197 77.5 197.15 75.75 196.7 74.15 196.7 73.25 196.7 72.4 196.7 70.8 196.7 69.25
M 176.35 117.95
Q 182.95 114.15 188.4 108.8 174.35 115.2 158.7 117.05 154.289453125 117.58046875 149.9 117.8 130.701171875 118.9416015625 111.9 114.75 106.35 113.5 101.3 110.95 98.75 109.65 96.3 108.7 96.05 108.4 95.9 108.1 95.8 108 95.7 107.9 95.15 107.7 94.45 107.45 94.4 107.35 94.35 107.25 94.25 107.15 94.15 107.05 93.15 106.65 92.05 106.45 91.05 105.6 89.9 104.95 89.65 104.85 89.6 105 94.05 116.2 105.35 121.25 113.5 124.85 122.2 126.75 129 128.25 135.95 128.5 143.0384765625 128.736328125 149.9 127.6 154.6546875 126.832421875 159.3 125.4 168.25 122.65 176.35 117.95 Z" stroke="none" fill="#EE9D33"></path>

<path d="M 180.65 48.8
Q 180.65 48.65 180.65 48.5 180.65 48.35 180.55 48.3 180.25 48.05 180 47.7 179.9 47.55 179.7 47.4 170.1 48.45 161 51.2 160.95 50.9 160.8 50.7 160.75 50.5 160.55 50.35 160.55 50.2 160.55 50.05 160.35 49.6 160.2 49.1 160.15 49 160.15 48.85 159.95 48.5 159.8 48.2 159.75 48.05 159.75 47.9 159.75 47.75 159.75 47.6 159.95 45.85 159.6 44.15 159.4 43.25 158.95 42.35 158.95 42.075 158.95 41.8
L 158.95 41.75
Q 158.95 41.6 158.95 41.45 158.9 41.3 158.8 41.2 158.45 40.75 158.5 40.2 158.55 40.05 158.55 39.9 158.5 39.75 158.4 39.65 158.25 39.45 158.1 39.3 158.05 39 157.95 38.7 157.85 38.55 157.7 38.4 156.4 38.35 155.05 38.35 154.9 38.4 154.75 38.5 154.2 38.9 153.7 39.4 153.5 39.55 153.3 39.7 151.591015625 40.4080078125 149.9 41.15 149.1818359375 41.47109375 148.45 41.8 143.9697265625 43.86953125 139.6 46.25 139.05 46.3 138.55 46.25 138.5 46.25 138.45 46.15 138.15 45.15 137.25 44.6 137.05 44.45 136.9 44.3 136.85 44.15 136.8 44 136.75 43.85 136.7 43.7 136.3 43.4 135.9 43.05 135.75 42.95 135.6 42.8 135.3109375 42.304296875 135.05 41.8 134.6728515625 41.08359375 134.35 40.35 134.1 39.65 133.55 39.1 133.55 38.95 133.5 38.8 132.95 37.5 132 36.35 131.55 35.8 131.4 35.1 131.1 35 130.8 34.85 130.75 34.85 130.65 34.8 130.55 34.7 130.5 34.6 130.35 34.45 130.25 34.3 129.15 34.25 128 34.2 125.5 35.85 123.3 38.25 121.6974609375 40.002734375 120.2 41.8 117.198046875 45.386328125 114.6 49.15 114.1 48.75 113.5 48.4 108.5078125 45.396484375 103.85 41.8 102.763671875 40.966015625 101.7 40.1 101.15 39.95 100.6 39.75 100.4 39.7 100.25 39.6 99.2 39.55 98.1 39.6 98 39.6 97.9 39.7 97.95 40.25 97.65 40.65 97.55 40.8 97.5 40.95 97.5 41.25 97.5 41.55 97.4923828125 41.675 97.45 41.8 97.2484375 45.825 97.2 49.85 97.1 55.05 97.1 60.3 91.85 59.95 86.8 58.3 83.539453125 57.2580078125 80.55 57.25 79.0927734375 57.254296875 77.7 57.5 77.15 57.45 76.65 57.45 76.65 57.6 76.65 57.75 76.4 57.8 76.2 57.85 76.4 58.25 76.55 58.7 76.35 61.45 76.35 64.25 76.35 70.8 76.35 77.35 74.4 77.75 72.45 78.05 67.4 78.8 64.3 81.1 64.75 82.05 65.35 82.85 65.05 83.7 64.8 84.6 64.35 86 64.85 87.3 64.95 89.7 65.25 92.05 65.6 94.2 65.65 96.4 65.25 96.45 64.85 96.5 62.6 97.15 60.25 97.9 60.15 97.95 60 98 59.95 98.05 59.95 98.15 59.25 98.2 58.6 98.3 59.2 98.3 59.85 98.35 59.8 98.35 59.75 98.4 59.65 98.5 59.6 98.6 59.6 98.7 59.6 98.8 59.6 98.9 59.6 99 59.6 99.1 59.6 99.2 59.6 99.25 59.6 99.3 59.55 99.3 59.45 99.35 59.4 99.35 59.4 99.5 59.4 99.65 59.4 99.8 59.4 100.3 59.4 100.75 59.4 100.9 59.4 101.05 59.9 101.4 59.85 101.95 59.8 102.1 59.8 102.3 60.05 102.6 60.3 102.9 60.45 103.05 60.55 103.2 60.6 103.35 60.6 103.5 60.6 104.05 60.9 104.45 60.85 106 60.75 107.5 60.65 109.7 61.3 111.7 61.5 113.3 61.45 114.9 61.4 116.05 61.95 117.1 62 119.1 62.5 121.05 63.15 123.3 62.95 125.7 63 125.8 63.1 125.95 63.15 126.05 63.15 126.2 63.15 126.45 63.15 126.7 63 127.75 63.5 128.65 63.55 128.75 63.6 128.9 63.6 129 63.6 129.15 63.6 130 63.7 130.85 63.7 131 63.85 131.1 63.85 131.25 63.85 131.35 63.85 131.7 63.85 132.1 63.85 132.2 63.85 132.35 64 132.6 64.15 132.85 64.2 132.95 64.25 133.05 64.25 133.2 64.25 133.3 64.25 133.8 64.25 134.3 64.25 134.4 64.25 134.55 64.4 134.8 64.6 135 64.7 135.15 64.8 135.3 64.85 135.4 64.9 135.55 65.15 136.2 65.45 136.75 65.5 136.9 65.55 137 65.90546875 137.3384765625 66.2 137.7 66.85390625 138.4060546875 67.35 139.2 68.35 140.75 69.4 142.15 70.25 142.8 71 143.6 71.3 143.9 71.7 144.15 71.9 144.5 72.15 144.85 72.25 145 72.35 145.1 73.3 145.6 74.15 146.35 74.5 146.65 74.9 146.9 75.05 147.15 75.2 147.4 75.3 147.55 75.4 147.65 75.7 147.75 76.05 147.85 76.1 147.85 76.1 147.9 76.45 148.85 77.2 149.55 78.25 150.55 79.65 151.1 79.7 151.2 79.75 151.35 79.8 151.45 79.9 151.6 80.15 151.7 80.4 151.8 80.4728515625 151.84375 80.55 151.9 80.7373046875 151.99375 80.95 152.1 81.05 152.2 81.1 152.35 81.15 152.45 81.2 152.55 81.95 152.95 82.55 153.45 83.0052734375 153.8505859375 83.45 154.2 84.913671875 154.217578125 86.35 154.2 85.91875 153.830859375 85.45 153.5 84.3 152.7 83.15 151.9 83.1 151.8 83.05 151.65 83 151.55 82.9 151.4 82.65 151.3 82.35 151.15 82.1 151.05 81.85 150.95 81.75 150.7 81.55 150.45 81.45 150.3 81.3 150.2 80.8931640625 150.0697265625 80.55 149.85 79.8384765625 149.4419921875 79.4 148.7 79.3 148.6 79.25 148.45 78.5 148.15 78.1 147.4 78 147.3 77.9 147.15 77.6 147.05 77.25 146.9 77.2 146.8 77.1 146.65 77.05 146.55 77 146.4 76.15 145.85 75.4 145.15 74.8 144.6 74.05 144.2 73.95 143.95 73.8 143.75 73.75 143.6 73.65 143.45 72.75 142.8 71.95 142 71.65 141.75 71.35 141.5 70.55 140.4 69.85 139.25 69.3328125 138.4482421875 68.7 137.7 68.1517578125 137.0017578125 67.5 136.35 67.45 136.2 67.4 136.1 67.1 135.5 66.85 134.85 66.8 134.75 66.8 134.65 66.5 134.4 66.25 134.1 66.2 134 66.2 133.9 66.2 133.75 66.2 133.65 66.2 133.05 66.15 132.4 66.15 132.3 66.1 132.15 66.05 132.05 65.95 131.9 65.9 131.8 65.8 131.7 65.8 131.55 65.8 131.45 65.8 130.95 65.7 130.45 65.65 130.35 65.55 130.2 65.55 130.1 65.55 129.95 65.55 129.2 65.55 128.5 65.55 128.35 65.55 128.25 65.45 128 65.35 127.75 65.05 126.8 65.15 125.8 65.15 125.65 65.15 125.55 65.1 125.4 65.05 125.3 65 125.15 64.9 125.05 64.95 123.05 64.5 121.2 63.95 118.85 63.9 116.45 63.3 114.95 63.3 113.25 63.3 113.15 63.3 113 63.7 113.95 64.3 114.85 64.3 115.2 64.35 115.5 64.35 115.65 64.4 115.8 65.85 116.85 66.75 118.4 67.3 119.4 67.6 120.4 72.4619140625 128.16953125 80.55 132.85 80.9462890625 133.0783203125 81.35 133.3 85.68671875 135.66953125 90.1 137.7 110.5357421875 147.023828125 133.2 149.2 141.602734375 149.998828125 149.9 149.35 155.6251953125 148.92265625 161.3 147.8 175.8361328125 144.9291015625 188.2 137.7 192.892578125 134.9830078125 197.25 131.65 197.65 130.85 198.45 130.45 198.75 130.3 199.1 130.15 200.3 128.4 201.7 126.8 203.95 124.4 205.55 121.55 205.6 121.4 205.6 121.2 205.9 119.9 206.55 118.7 206.9 118.1 207.25 117.55 207.25 117.4 207.25 117.25 207.2 116.75 207.35 116.3 207.35 116.15 207.35 116 209.05 113.15 209.85 109.9 210.3 108 210.85 106.1 211.25 108.7 211.1 111.35 210.65 116.75 210.65 122.15 210.55 122.3 210.5 122.45 210.4 122.55 210.4 122.65 210.4 122.8 210.4 122.9 210.4 123.55 210.35 124.15 210.35 124.25 210.3 124.4 210.2 124.5 210.15 124.65 210.05 124.75 209.95 124.9 209.95 126.25 209.7 127.6 209.55 128.5 209 129.3 209 129.55 209 129.8 209 129.9 209 130.05 208.75 130.3 208.5 130.55 208.4 130.65 208.35 130.8 208.35 131.15 208.35 131.5 208.35 131.65 208.35 131.75 207.85 132.55 207.3 133.25 207.2 133.35 207.1 133.5 207.05 133.6 207.05 133.75 207 133.85 207 133.95 206.2 134.95 205.65 136.15 205.2587890625 137.01953125 204.65 137.7 204.59140625 137.8021484375 204.5 137.9 204.55 138.3 204.4 138.65 204.35 138.75 204.3 138.9 203.45 139.55 202.95 140.55 202.5 141.45 201.7 142.1 201.65 142.2 201.6 142.3 201.15 143.2 200.65 144.05 200.55 144.15 200.45 144.3 200 144.55 199.6 144.8 199.45 144.9 199.3 145.05 195.91640625 149.0234375 191.95 152.2 193.4556640625 152.14375 194.95 152.05 198.455859375 149.1435546875 201.45 145.5 201.95 145.3 202.4 144.95 202.5 144.9 202.5 144.8 202.55 144.65 202.65 144.55 203.3 143.75 203.65 142.8 203.7 142.7 203.75 142.55 204.9 141.9 205.4 140.6 205.5 140.35 205.65 140.1 205.9 139.85 206.2 139.6 206.3 139.5 206.35 139.4 206.4 139.15 206.45 138.9 206.45 138.75 206.45 138.65 206.8265625 138.184765625 207.15 137.7 207.5658203125 137.0904296875 207.9 136.45 208.35 135.55 208.9 134.7 208.95 134.6 208.95 134.45 209 134.35 209 134.2 210 133.25 210.25 132 210.3 131.75 210.3 131.5 210.6 131.15 210.85 130.75 210.9 130.65 210.95 130.55 210.95 130.3 210.95 130.05 210.95 129.9 210.95 129.8 211.4 129.35 211.6 128.8 211.65 128.7 211.7 128.55 211.7 128.45 211.7 128.3 211.7 127.95 211.7 127.6 211.7 127.45 211.7 127.35 211.8 127.2 211.85 127.1 211.9 126.95 211.95 126.85 211.95 126.7 211.95 126.6 211.95 126.25 211.95 125.85 211.95 125.75 211.95 125.6 212.1 125.35 212.25 125.1 212.3 125 212.35 124.9 212.35 124.75 212.35 124.65 212.35 124 212.35 123.4 212.35 123.3 212.35 123.15 212.45 123.05 212.5 122.9 212.55 122.8 212.6 122.65 212.6 121.05 212.6 119.45 212.6 118.1 212.6 116.75 213.3 113.55 213.1 110.15 212.75 103.85 212.35 97.6 212.35 97.5 212.35 97.45 212.25 97.45 212.2 97.45 212.2 96.15 212.2 94.8 209.35 94.4 206.55 94 206.55 92.1 206.55 90.2 206.55 87.55 206.55 84.95 206.9 84.6 207.25 84.25 204.7 81.15 200.75 79.45 199.85 79.05 198.95 78.7 198.95 77.25 199 75.8 199.05 74.65 198.65 73.65 198.65 71.95 198.75 70.3 198.8 69.15 198.4 68.1 198.5 67.05 198.2 66.1 198.4 65.75 198.55 65.4 198.6 65.25 198.65 65.1 198.65 64.8 198.65 64.5 198.65 63.9 198.65 63.25 198.6 63.1 198.55 62.95 198.2 62.85 197.85 62.75 197.85 62.7 197.8 62.7 197.7 62.55 197.55 62.4 197.45 62.3 197.35 62.15 196.4 61.85 195.5 61.5 195.25 61.4 195 61.3 188 61.05 181.05 60.8 181.05 58.05 181.05 55.3 181.05 52.65 181.05 50.05 181 49.9 180.9 49.8 180.6 49.35 180.65 48.8
M 195.3 62.8
L 195.3 62.85
Q 195.35 62.9 195.45 63 195.15 62.95 194.85 62.95 195.05 64.55 195.7 66.1 195.55 66.2 195.4 66.35 195.35 66.8 195.25 67.25 195.25 67.4 195.2 67.55 193.95 69.3 192.75 71 190.9 73.6 189.25 75.85 196.95 79.05 204.6 84.05 203.85 84.4 203.3 84.7 201.2 85.85 198.75 86.3 197.8 87 196.65 87.35 195.3 87.8 194.35 88.85 193.95 88.95 193.55 89.05 192.85 89.6 192.25 90.25 192.15 90.35 192.1 90.5 191.6 90.6 191.1 90.75 191.05 90.75 191 90.8 190.9 90.9 190.8 91 190.15 91.55 189.7 92.3 189.65 92.4 189.65 92.55 199.9 93.9 210.15 95.5 210.15 95.65 210.15 95.85 210.15 97.5 210.15 99.2 210.15 100.15 210.15 101.05 208.95 104.05 208.25 107.15 207.25 111.35 205.45 115.2 205.3 117 204.35 118.55 203.7 119.7 203.5 121 202.55 122.2 201.85 123.5 201.6 123.95 201.35 124.4 200 125.45 199 126.85 198 128.35 196.8 129.6 195.85 130 195.3 130.85 195.2 131 195.1 131.15 190.605078125 134.7953125 185.7 137.7 179.660546875 141.2904296875 173 143.75 164.3 146.95 155.2 147.75 152.5416015625 147.971875 149.9 148.1 120.323046875 149.4111328125 92.9 137.7 91.8791015625 137.259375 90.85 136.8 85.23515625 134.3021484375 80.55 130.85 74.2626953125 126.1890625 69.65 119.8 69.65 119.65 69.6 119.5 69.6 119.35 69.55 119.15 68.45 118.15 67.8 116.75 67.35 115.75 66.45 115.2 66.4 114.85 66.4 114.55 66.35 114.4 66.35 114.25 65.25 112.35 64.65 110.25 64.05 108.3 63.1 106.6 63.1 106.25 63.1 105.95 63.1 105.2 63.1 104.45 63.1 104.25 63.1 104.1 63.05 103.95 63 103.8 62.95 103.6 62.85 103.45 62.85 103.3 62.85 103.15 62.75 103.05 62.7 102.9 62.65 102.8 62.6 102.7 62.6 102.45 62.6 102.2 62.6 101.35 62.6 100.45 62.6 100.35 62.6 100.2
L 62.6 100.1
Q 62.2 100.05 61.85 100.05 61.85 99.95 61.85 99.85 61.85 99.65 61.8 99.45 61.8 99.25 61.85 99.05 61.85 98.95 61.9 98.85 62.5 98.55 63.1 98.35 67.55 98.3 72.4 97.95 76.55 97.6 79.05 95.95 78 93.7 76.45 91.65 72.5 86.65 67.75 82.55 67.9 82.05 67.85 81.55
L 67.85 81.45
Q 67.35 81.35 66.85 81.35 66.8 81.25 66.7 81.15 66.55 81.05 66.45 80.9 73.9017578125 79.6400390625 80.55 77.5 83.1357421875 76.7021484375 85.6 75.75 85.6 75.6 85.6 75.45 85.6 75 85.6 74.55 85.55 74.35 85.5 74.2 83.65 71.35 82.4 68.15 81.446484375 65.597265625 80.55 63 79.9888671875 61.4166015625 79.45 59.8 79.2 59.5 78.95 59.15 78.85 59 78.75 58.85 78.7 58.55 78.6 58.25
L 78.6 58.2
Q 78.6 58.1 78.6 58 79.5765625 58.25703125 80.55 58.5 89.99375 60.7734375 99.15 61 99.15 60.7 99.15 60.4 99.15 56.25 99.1 52.1 99.053515625 46.7986328125 99.75 41.8 99.794140625 41.42421875 99.85 41.05 100.4125 41.425 100.95 41.8 101.1625 41.925 101.35 42.05 103.5 43.55 105.7 44.95 106.2 45.6 106.85 46.1 110.05 48.25 113.25 50.25 115.05 50.1 116.85 49.95 118.1 47.7 119.65 45.65 121.1421875 43.6728515625 122.75 41.8 125.459375 38.6525390625 128.5 35.8 128.95 35.75 129.35 35.8 129.4 35.8 129.45 35.9 129.5 36.1 129.55 36.2 130.1 37.4 130.95 38.4 131.2 38.7 131.4 39 131.45 39.15 131.45 39.3 131.5 39.45 131.5 39.6 132.361328125 40.597265625 132.8 41.8 132.8580078125 41.9240234375 132.9 42.05 133.15 42.7 133.45 43.3 134.15 43.85 134.7 44.6 134.75 44.7 134.75 44.85 135.75 45.6 136.35 46.7 136.4 46.85 136.4 47 136.75 47.1 137.1 47.2 137.2 47.25 137.25 47.3 137.3 47.4 137.35 47.5 137.5 47.65 137.65 47.8 138.85 47.85 140.1 47.85
L 140.1 47.8
Q 144.9904296875 44.9703125 149.9 42.65 150.85234375 42.22734375 151.8 41.8 153.9259765625 40.849609375 156.05 40 156.55 40.35 156.5 40.95 156.5 41.1 156.5 41.25 156.6 41.4 156.7 41.55 156.7833984375 41.675 156.85 41.8 156.8833984375 41.825 156.9 41.85 156.9 42.3 156.9 42.8 156.9 42.95 156.9 43.1 157.05 43.4 157.1 43.7 157.25 44.65 157.55 45.55 157.6 45.7 157.7 45.85 157.7 46.3 157.7 46.8 157.7 47.55 157.7 48.3 157.7 48.45 157.7 48.6 157.9 49.1 158.05 49.55 158.1 49.7 158.1 49.85 158.2 50 158.3 50.15 158.6 51.1 159.05 52 159.15 52.15 159.25 52.3 168.85 50.5 178.2 48.6 178.8 48.9 178.65 49.55 178.6 49.7 178.6 49.85 179.3 52.65 179.15 55.7 179 58.6 179 61.5 186.05 61.8 193.15 62.05 194.15 62.6 195.3 62.8
M 196.65 69
Q 196.7 69.1 196.7 69.25 196.7 70.8 196.7 72.4 196.7 73.25 196.7 74.15 197.15 75.75 197 77.5 197 77.65 197 77.85 194.05 76.6 191.7 75.55 191.75 75.4 191.85 75.3 192.1 75.1 192.4 74.95 193.65 73.5 194.65 71.9 195.6 70.4 196.65 69
M 200 87.55
Q 200.15 87.45 200.3 87.3 200.45 87.15 200.6 87 201.4 86.85 202.15 86.75 203.45 86.55 204.55 86.1 204.55 87.35 204.55 88.55 204.55 91.15 204.55 93.7 198.45 92.8 192.65 91.85 193.4 91.6 194.1 91.25 194.15 91.2 194.15 91.1 194.35 90.45 195.05 90.15 195.25 90.05 195.4 89.9 195.8 89.8 196.2 89.65 196.3 89.65 196.4 89.6 196.85 89.1 197.3 88.7 197.45 88.6 197.55 88.45 198.65 87.95 199.8 87.6 199.9 87.6 200 87.55
M 79 64.9
Q 79.7375 66.89140625 80.55 68.8 81.9404296875 72.1623046875 83.55 75.35 82.05859375 75.8470703125 80.55 76.3 79.479296875 76.609375 78.4 76.9 78.25 74 78.25 71.05 78.2 67.1 78.35 63.15 78.7 64 79 64.9
M 66.6 85.85
Q 66.6 85.8 66.55 85.7 66.7 85.1 66.95 84.55 69.9 87.25 72.5 90.3 73.3 91.8 74.55 92.95 76.3 94.5 76.4 96.05 73.8 96.4 71.25 96.7 71.1 96.65 71 96.65 69.35 96.3 67.7 96.3 67.55 94.65 67.4 92.95 67.05 89.8 66.8 86.65 66.6 86.3 66.6 85.85
M 90.8 84.65
Q 90.8 84.75 90.8 84.85 90.8 85.1 90.8 85.4 90.8 85.5 90.8 85.6 90.8 85.7 90.8 85.8 90.8 86 90.8 86.2 90.8 86.3 90.8 86.4 90.85 86.5 90.85 86.6 90.95 86.7 91 86.8 91.1 86.9 91.2 87 91.35 87.1 91.45 87.2 94.1 90.95 98.75 91.9 107.5 93.6 115.85 90.9 116.2 90.55 116.6 90.2 117 89.85 117.25 89.45 117.5 89.1 117.75 88.8 117.8 88.7 117.85 88.6 117.9 88.55 117.95 88.45 117.95 88.35 117.95 88.25 117.95 88.15 117.95 88.05 117.95 87.95 117.95 87.85 117.95 87.75 118 87.65 118.05 87.55 118.1 87.45 118.15 87.35 118.2 87.25 118.2 87.15 118.2 87.05 118.2 86.75 118.2 86.45 118.2 86.35 118.2 86.25 118.2 86.15 118.2 86.05 118.2 85.85 118.2 85.7 118.2 85.6 118.2 85.5 118.2 85.4 118.2 85.3 118.15 85.2 118.1 85.1 118.05 85 118 84.85 117.95 84.8 117.95 84.7 117.95 84.6 117.95 84.5 117.95 84.4 117.95 84.3 117.9 84.1 117.85 83.9 117.85 83.8 117.8 83.7 117.75 83.6 117.75 83.5 117.65 83.4 117.6 83.3 117.5 83.2 117.35 83.1 117.25 83 117.15 82.95 117.05 82.85 116.95 82.75 116.9 82.65 116.9 82.55 116.85 82.45 116.8 82.35 116.75 82.25 116.7 82.15 116.55 82.05 116.45 81.95 116.35 81.85 116.25 81.75 116.05 81.55 115.9 81.35 115.85 81.25 115.75 81.15 115.7 81.05 115.65 80.95 115.5 80.9 115.3 80.85 115.2 80.8 115.15 80.75 115.05 80.7 115 80.65 114.9 80.55 114.85 80.45 114.75 80.35 114.65 80.25 113.45 79.5 112.15 79 108.05 77.55 103.65 77.75 97.55 78 92.75 81.85 91.4 82.95 90.8 84.65
M 92.75 85.7
Q 93.05 83.9 94.5 82.65 98.45 79.2 103.65 78.75 108.7 78.3 112.9 81 112.9 81.1 113 81.2 113.05 81.3 113.15 81.4 113.35 81.5 113.55 81.55 113.65 81.6 113.75 81.7 113.85 81.9 114 82.1 114.2 82.45 114.5 82.7 114.65 82.75 114.7 82.85 114.8 83.05 114.95 83.25 115.15 83.6 115.45 83.85 115.6 83.95 115.7 84.05 115.75 84.15 115.8 84.25 115.85 84.35 115.9 84.45 115.95 84.55 115.95 84.65 115.95 84.75 115.95 84.85 115.95 85 115.95 85.2 115.95 85.3 115.95 85.4 115.95 85.5 115.95 85.6 116.1 85.8 116.2 86 116.25 86.1 116.25 86.2 116.25 86.3 116.25 86.4 116.25 86.5 116.2 86.55 116.05 86.85 116 87.2 115.95 87.5 115.95 87.75 115.95 87.85 115.9 87.95 115.75 88.15 115.55 88.35 112.05 92.45 106.05 91.25 104.75 90.6 103.25 91 101.05 91.55 98.05 90.3 94.6 88.8 92.75 85.7
M 194.5 104.4
Q 194.5 104.3 194.45 104.3 193.5 104.1 192.5 104
L 192.5 104.05
Q 192.4 104.1 192.3 104.2 192.2 104.25 192.15 104.35 192.1 104.45 192 104.55 190.65 105.6 189.15 106.5 188.25 107 187.25 107.35 187.2 107.45 187.15 107.55 187.05 107.65 186.95 107.75 177.45 112.55 166.9 114.65 164 115.2 161.15 115.65 155.5212890625 116.5416015625 149.9 116.95 134.398046875 118.1083984375 118.95 115.65 108.25 113.95 99.2 108.15 98.75 108.1 98.3 108 98.2 107.95 98.15 107.9 98.1 107.8 98 107.7 97.9 107.5 97.75 107.3 97.65 107.2 97.55 107.1 97.25 107.05 96.9 106.95 96.75 106.9 96.55 106.85 96.45 106.75 96.35 106.65 95.45 105.9 94.2 105.8 94.05 105.8 93.9 105.75 92.5 104.75 91 104.05 90.25 103.7 89.7 103.1 88.5 103.1 87.25 103.05 87.2 103.1 87.15 103.2 87.15 103.25 87.15 103.35 87.15 103.45 87.15 103.55 87.15 103.75 87.15 103.95 87.15 104.05 87.15 104.15 87.25 104.25 87.3 104.35 87.35 104.45 87.4 104.55 87.4 104.65 87.4 104.75 87.45 104.95 87.55 105.15 87.6 105.25 87.65 105.35 87.65 105.45 87.65 105.55 87.65 105.65 87.65 105.75 87.65 105.95 87.7 106.1 87.7 106.2 87.7 106.3 89.15 108.5 90.55 110.7 96.05 119.65 106.25 123.35 126.45 130.6 147.8 128.9 148.854296875 128.8162109375 149.9 128.7 153.218359375 128.3103515625 156.45 127.55 166.75 125.15 176.05 120.05 184.45 115.5 191.2 108.75 191.25 108.65 191.3 108.55 191.35 108.45 191.4 108.35 191.45 108.25 191.45 108.15 191.9 107.7 192.25 107.25 192.6 106.85 193.1 106.55 193.2 106.5 193.3 106.4 193.35 106.3 193.35 106.2 193.4 106.1 193.45 106 193.45 105.9 193.5 105.8 193.8 105.5 194.1 105.25 194.4 105 194.45 104.6 194.5 104.5 194.5 104.4
M 188.4 108.8
Q 182.95 114.15 176.35 117.95 168.25 122.65 159.3 125.4 154.6546875 126.832421875 149.9 127.6 143.0384765625 128.736328125 135.95 128.5 129 128.25 122.2 126.75 113.5 124.85 105.35 121.25 94.05 116.2 89.6 105 89.65 104.85 89.9 104.95 91.05 105.6 92.05 106.45 93.15 106.65 94.15 107.05 94.25 107.15 94.35 107.25 94.4 107.35 94.45 107.45 95.15 107.7 95.7 107.9 95.8 108 95.9 108.1 96.05 108.4 96.3 108.7 98.75 109.65 101.3 110.95 106.35 113.5 111.9 114.75 130.701171875 118.9416015625 149.9 117.8 154.289453125 117.58046875 158.7 117.05 174.35 115.2 188.4 108.8
M 173.9 79.8
Q 173.75 79.75 173.6 79.7 173.5 79.7 173.45 79.65 172.4 78.5 170.85 77.9 166.8 76.35 162.3 76.9 158 77.5 154.3 79.85 153 80.65 151.95 81.75 151.9 81.85 151.85 81.95 151.8 82.05 151.75 82.15 151.7 82.25 151.6 82.35 151.6 82.75 151.6 83.1 151.6 83.6 151.6 84.1 151.6 84.6 151.6 85.1 151.6 85.2 151.6 85.3 151.8 85.6 152.05 85.85 152.1 85.95 152.2 86.05 152.3 86.15 152.4 86.25 153.6 89.15 156.7 89.85 165.6 91.8 174.6 88.75 175.55 88.05 176.25 87.15 176.85 86.4 177.1 85.6 177.15 85.5 177.2 85.4 177.2 85.3 177.2 85.2 177.2 84.95 177.2 84.65 177.2 84.45 177.2 84.25 177.2 84.15 177.2 84.05 177.1 83.95 177.05 83.85 177 83.75 176.9 83.65 176.9 83.45 176.9 83.25 176.9 83.15 176.85 83.1 176.8 82.95 176.65 82.85 176.65 82.65 176.65 82.45 176.6 82.35 176.6 82.25 176.55 82.15 176.5 82.05 176.1 81.75 175.75 81.35 175.1 80.7 174.45 80.1 174.35 80 174.3 79.9 174.1 79.85 173.9 79.8
M 174.7 83.3
Q 174.7 83.4 174.7 83.5 175 83.75 175.05 84.1 175.1 84.5 175.15 84.9 175.05 85.1 175 85.3 174.9 85.5 174.9 85.7 174.65 85.95 174.5 86.2 173.75 87.3 172.7 88.05 165.2 90.4 157.5 89.1 157.4 89 157.25 88.95 156.5 88.4 155.85 87.85 154.75 86.9 154.35 85.6 154.2 85.4 154 85.2 153.8 84.9 153.6 84.65 153.6 84.15 153.55 83.65 153.55 83.15 153.7 82.65 154.8 81.45 156.15 80.6 159.488671875 78.420703125 163.4 77.7 163.737890625 77.647265625 164.05 77.6 164.46328125 77.639453125 164.85 77.65 165.51328125 77.758984375 166.15 77.85 169.3 78.3 171.6 80.35 171.85 80.45 172.05 80.5 172.25 80.55 172.45 80.65 172.55 81 172.85 81.2 173.9 81.95 174.6 82.95 174.65 83 174.65 83.1 174.7 83.2 174.7 83.3 Z" stroke="none" fill="#000000"></path>

<path d="M 195.3 62.85
L 195.3 62.8
Q 194.15 62.6 193.15 62.05 186.05 61.8 179 61.5 179 58.6 179.15 55.7 179.3 52.65 178.6 49.85 178.6 49.7 178.65 49.55 178.8 48.9 178.2 48.6 168.85 50.5 159.25 52.3 159.15 52.15 159.05 52 158.6 51.1 158.3 50.15 158.2 50 158.1 49.85 158.1 49.7 158.05 49.55 157.9 49.1 157.7 48.6 157.7 48.45 157.7 48.3 157.7 47.55 157.7 46.8 157.7 46.3 157.7 45.85 157.6 45.7 157.55 45.55 157.25 44.65 157.1 43.7 157.05 43.4 156.9 43.1 156.9 42.95 156.9 42.8 156.9 42.3 156.9 41.85 156.8833984375 41.825 156.85 41.8 156.7833984375 41.675 156.7 41.55 156.6 41.4 156.5 41.25 156.5 41.1 156.5 40.95 156.55 40.35 156.05 40 153.9259765625 40.849609375 151.8 41.8 150.85234375 42.22734375 149.9 42.65 144.9904296875 44.9703125 140.1 47.8
L 140.1 47.85
Q 138.85 47.85 137.65 47.8 137.5 47.65 137.35 47.5 137.3 47.4 137.25 47.3 137.2 47.25 137.1 47.2 136.75 47.1 136.4 47 136.4 46.85 136.35 46.7 135.75 45.6 134.75 44.85 134.75 44.7 134.7 44.6 134.15 43.85 133.45 43.3 133.15 42.7 132.9 42.05 132.8580078125 41.9240234375 132.8 41.8 132.361328125 40.597265625 131.5 39.6 131.5 39.45 131.45 39.3 131.45 39.15 131.4 39 131.2 38.7 130.95 38.4 130.1 37.4 129.55 36.2 129.5 36.1 129.45 35.9 129.4 35.8 129.35 35.8 128.95 35.75 128.5 35.8 125.459375 38.6525390625 122.75 41.8 121.1421875 43.6728515625 119.65 45.65 118.1 47.7 116.85 49.95 115.05 50.1 113.25 50.25 110.05 48.25 106.85 46.1 106.2 45.6 105.7 44.95 103.5 43.55 101.35 42.05 101.1625 41.925 100.95 41.8 100.4125 41.425 99.85 41.05 99.794140625 41.42421875 99.75 41.8 99.053515625 46.7986328125 99.1 52.1 99.15 56.25 99.15 60.4 99.15 60.7 99.15 61 89.99375 60.7734375 80.55 58.5 79.5765625 58.25703125 78.6 58 78.6 58.1 78.6 58.2
L 78.6 58.25
Q 78.7 58.55 78.75 58.85 78.85 59 78.95 59.15 79.2 59.5 79.45 59.8 79.9888671875 61.4166015625 80.55 63 81.446484375 65.597265625 82.4 68.15 83.65 71.35 85.5 74.2 85.55 74.35 85.6 74.55 85.6 75 85.6 75.45 85.6 75.6 85.6 75.75 83.1357421875 76.7021484375 80.55 77.5 73.9017578125 79.6400390625 66.45 80.9 66.55 81.05 66.7 81.15 66.8 81.25 66.85 81.35 67.35 81.35 67.85 81.45
L 67.85 81.55
Q 67.9 82.05 67.75 82.55 72.5 86.65 76.45 91.65 78 93.7 79.05 95.95 76.55 97.6 72.4 97.95 67.55 98.3 63.1 98.35 62.5 98.55 61.9 98.85 61.85 98.95 61.85 99.05 61.8 99.25 61.8 99.45 61.85 99.65 61.85 99.85 61.85 99.95 61.85 100.05 62.2 100.05 62.6 100.1
L 62.6 100.2
Q 62.6 100.35 62.6 100.45 62.6 101.35 62.6 102.2 62.6 102.45 62.6 102.7 62.65 102.8 62.7 102.9 62.75 103.05 62.85 103.15 62.85 103.3 62.85 103.45 62.95 103.6 63 103.8 63.05 103.95 63.1 104.1 63.1 104.25 63.1 104.45 63.1 105.2 63.1 105.95 63.1 106.25 63.1 106.6 64.05 108.3 64.65 110.25 65.25 112.35 66.35 114.25 66.35 114.4 66.4 114.55 66.4 114.85 66.45 115.2 67.35 115.75 67.8 116.75 68.45 118.15 69.55 119.15 69.6 119.35 69.6 119.5 69.65 119.65 69.65 119.8 74.2626953125 126.1890625 80.55 130.85 85.23515625 134.3021484375 90.85 136.8 91.8791015625 137.259375 92.9 137.7 120.323046875 149.4111328125 149.9 148.1 152.5416015625 147.971875 155.2 147.75 164.3 146.95 173 143.75 179.660546875 141.2904296875 185.7 137.7 190.605078125 134.7953125 195.1 131.15 195.2 131 195.3 130.85 195.85 130 196.8 129.6 198 128.35 199 126.85 200 125.45 201.35 124.4 201.6 123.95 201.85 123.5 202.55 122.2 203.5 121 203.7 119.7 204.35 118.55 205.3 117 205.45 115.2 207.25 111.35 208.25 107.15 208.95 104.05 210.15 101.05 210.15 100.15 210.15 99.2 210.15 97.5 210.15 95.85 210.15 95.65 210.15 95.5 199.9 93.9 189.65 92.55 189.65 92.4 189.7 92.3 190.15 91.55 190.8 91 190.9 90.9 191 90.8 191.05 90.75 191.1 90.75 191.6 90.6 192.1 90.5 192.15 90.35 192.25 90.25 192.85 89.6 193.55 89.05 193.95 88.95 194.35 88.85 195.3 87.8 196.65 87.35 197.8 87 198.75 86.3 201.2 85.85 203.3 84.7 203.85 84.4 204.6 84.05 196.95 79.05 189.25 75.85 190.9 73.6 192.75 71 193.95 69.3 195.2 67.55 195.25 67.4 195.25 67.25 195.35 66.8 195.4 66.35 195.55 66.2 195.7 66.1 195.05 64.55 194.85 62.95 195.15 62.95 195.45 63 195.35 62.9 195.3 62.85
M 173.6 79.7
Q 173.75 79.75 173.9 79.8 174.1 79.85 174.3 79.9 174.35 80 174.45 80.1 175.1 80.7 175.75 81.35 176.1 81.75 176.5 82.05 176.55 82.15 176.6 82.25 176.6 82.35 176.65 82.45 176.65 82.65 176.65 82.85 176.8 82.95 176.85 83.1 176.9 83.15 176.9 83.25 176.9 83.45 176.9 83.65 177 83.75 177.05 83.85 177.1 83.95 177.2 84.05 177.2 84.15 177.2 84.25 177.2 84.45 177.2 84.65 177.2 84.95 177.2 85.2 177.2 85.3 177.2 85.4 177.15 85.5 177.1 85.6 176.85 86.4 176.25 87.15 175.55 88.05 174.6 88.75 165.6 91.8 156.7 89.85 153.6 89.15 152.4 86.25 152.3 86.15 152.2 86.05 152.1 85.95 152.05 85.85 151.8 85.6 151.6 85.3 151.6 85.2 151.6 85.1 151.6 84.6 151.6 84.1 151.6 83.6 151.6 83.1 151.6 82.75 151.6 82.35 151.7 82.25 151.75 82.15 151.8 82.05 151.85 81.95 151.9 81.85 151.95 81.75 153 80.65 154.3 79.85 158 77.5 162.3 76.9 166.8 76.35 170.85 77.9 172.4 78.5 173.45 79.65 173.5 79.7 173.6 79.7
M 194.45 104.3
Q 194.5 104.3 194.5 104.4 194.5 104.5 194.45 104.6 194.4 105 194.1 105.25 193.8 105.5 193.5 105.8 193.45 105.9 193.45 106 193.4 106.1 193.35 106.2 193.35 106.3 193.3 106.4 193.2 106.5 193.1 106.55 192.6 106.85 192.25 107.25 191.9 107.7 191.45 108.15 191.45 108.25 191.4 108.35 191.35 108.45 191.3 108.55 191.25 108.65 191.2 108.75 184.45 115.5 176.05 120.05 166.75 125.15 156.45 127.55 153.218359375 128.3103515625 149.9 128.7 148.854296875 128.8162109375 147.8 128.9 126.45 130.6 106.25 123.35 96.05 119.65 90.55 110.7 89.15 108.5 87.7 106.3 87.7 106.2 87.7 106.1 87.65 105.95 87.65 105.75 87.65 105.65 87.65 105.55 87.65 105.45 87.65 105.35 87.6 105.25 87.55 105.15 87.45 104.95 87.4 104.75 87.4 104.65 87.4 104.55 87.35 104.45 87.3 104.35 87.25 104.25 87.15 104.15 87.15 104.05 87.15 103.95 87.15 103.75 87.15 103.55 87.15 103.45 87.15 103.35 87.15 103.25 87.15 103.2 87.2 103.1 87.25 103.05 88.5 103.1 89.7 103.1 90.25 103.7 91 104.05 92.5 104.75 93.9 105.75 94.05 105.8 94.2 105.8 95.45 105.9 96.35 106.65 96.45 106.75 96.55 106.85 96.75 106.9 96.9 106.95 97.25 107.05 97.55 107.1 97.65 107.2 97.75 107.3 97.9 107.5 98 107.7 98.1 107.8 98.15 107.9 98.2 107.95 98.3 108 98.75 108.1 99.2 108.15 108.25 113.95 118.95 115.65 134.398046875 118.1083984375 149.9 116.95 155.5212890625 116.5416015625 161.15 115.65 164 115.2 166.9 114.65 177.45 112.55 186.95 107.75 187.05 107.65 187.15 107.55 187.2 107.45 187.25 107.35 188.25 107 189.15 106.5 190.65 105.6 192 104.55 192.1 104.45 192.15 104.35 192.2 104.25 192.3 104.2 192.4 104.1 192.5 104.05
L 192.5 104
Q 193.5 104.1 194.45 104.3
M 90.8 84.85
Q 90.8 84.75 90.8 84.65 91.4 82.95 92.75 81.85 97.55 78 103.65 77.75 108.05 77.55 112.15 79 113.45 79.5 114.65 80.25 114.75 80.35 114.85 80.45 114.9 80.55 115 80.65 115.05 80.7 115.15 80.75 115.2 80.8 115.3 80.85 115.5 80.9 115.65 80.95 115.7 81.05 115.75 81.15 115.85 81.25 115.9 81.35 116.05 81.55 116.25 81.75 116.35 81.85 116.45 81.95 116.55 82.05 116.7 82.15 116.75 82.25 116.8 82.35 116.85 82.45 116.9 82.55 116.9 82.65 116.95 82.75 117.05 82.85 117.15 82.95 117.25 83 117.35 83.1 117.5 83.2 117.6 83.3 117.65 83.4 117.75 83.5 117.75 83.6 117.8 83.7 117.85 83.8 117.85 83.9 117.9 84.1 117.95 84.3 117.95 84.4 117.95 84.5 117.95 84.6 117.95 84.7 117.95 84.8 118 84.85 118.05 85 118.1 85.1 118.15 85.2 118.2 85.3 118.2 85.4 118.2 85.5 118.2 85.6 118.2 85.7 118.2 85.85 118.2 86.05 118.2 86.15 118.2 86.25 118.2 86.35 118.2 86.45 118.2 86.75 118.2 87.05 118.2 87.15 118.2 87.25 118.15 87.35 118.1 87.45 118.05 87.55 118 87.65 117.95 87.75 117.95 87.85 117.95 87.95 117.95 88.05 117.95 88.15 117.95 88.25 117.95 88.35 117.95 88.45 117.9 88.55 117.85 88.6 117.8 88.7 117.75 88.8 117.5 89.1 117.25 89.45 117 89.85 116.6 90.2 116.2 90.55 115.85 90.9 107.5 93.6 98.75 91.9 94.1 90.95 91.45 87.2 91.35 87.1 91.2 87 91.1 86.9 91 86.8 90.95 86.7 90.85 86.6 90.85 86.5 90.8 86.4 90.8 86.3 90.8 86.2 90.8 86 90.8 85.8 90.8 85.7 90.8 85.6 90.8 85.5 90.8 85.4 90.8 85.1 90.8 84.85 Z" stroke="none" fill="#FDDF5E"></path>

<path d="M 94.5 82.65
Q 93.05 83.9 92.75 85.7 94.6 88.8 98.05 90.3 101.05 91.55 103.25 91 104.75 90.6 106.05 91.25 112.05 92.45 115.55 88.35 115.75 88.15 115.9 87.95 115.95 87.85 115.95 87.75 115.95 87.5 116 87.2 116.05 86.85 116.2 86.55 116.25 86.5 116.25 86.4 116.25 86.3 116.25 86.2 116.25 86.1 116.2 86 116.1 85.8 115.95 85.6 115.95 85.5 115.95 85.4 115.95 85.3 115.95 85.2 115.95 85 115.95 84.85 115.95 84.75 115.95 84.65 115.95 84.55 115.9 84.45 115.85 84.35 115.8 84.25 115.75 84.15 115.7 84.05 115.6 83.95 115.45 83.85 115.15 83.6 114.95 83.25 114.8 83.05 114.7 82.85 114.65 82.75 114.5 82.7 114.2 82.45 114 82.1 113.85 81.9 113.75 81.7 113.65 81.6 113.55 81.55 113.35 81.5 113.15 81.4 113.05 81.3 113 81.2 112.9 81.1 112.9 81 108.7 78.3 103.65 78.75 98.45 79.2 94.5 82.65
M 174.7 83.5
Q 174.7 83.4 174.7 83.3 174.7 83.2 174.65 83.1 174.65 83 174.6 82.95 173.9 81.95 172.85 81.2 172.55 81 172.45 80.65 172.25 80.55 172.05 80.5 171.85 80.45 171.6 80.35 169.3 78.3 166.15 77.85 165.51328125 77.758984375 164.85 77.65 164.46328125 77.639453125 164.05 77.6 163.737890625 77.647265625 163.4 77.7 159.488671875 78.420703125 156.15 80.6 154.8 81.45 153.7 82.65 153.55 83.15 153.55 83.65 153.6 84.15 153.6 84.65 153.8 84.9 154 85.2 154.2 85.4 154.35 85.6 154.75 86.9 155.85 87.85 156.5 88.4 157.25 88.95 157.4 89 157.5 89.1 165.2 90.4 172.7 88.05 173.75 87.3 174.5 86.2 174.65 85.95 174.9 85.7 174.9 85.5 175 85.3 175.05 85.1 175.15 84.9 175.1 84.5 175.05 84.1 175 83.75 174.7 83.5 Z" stroke="none" fill="#EEC24E"></path>
</g>
</g>
</g>
</g>
</svg>
