
<svg viewBox="0 0 112 184" height="184px" width="112px" y="0px" x="0px" preserveAspectRatio="none" xmlns:xlink="http://www.w3.org/1999/xlink" version="1.1" xmlns="http://www.w3.org/2000/svg">
<defs></defs>

<g id="fun_scrollers">
<g transform="matrix( 0.3621063232421875, 0, 0, 0.3621063232421875, -594.2,0.1)" id="svg"></g>

<g transform="matrix( 0.3621063232421875, 0, 0, 0.3621063232421875, -594.2,0.1)" id="Layer_2"></g>

<g transform="matrix( 0.3621063232421875, 0, 0, 0.3621063232421875, -594.2,0.1)" id="Layer_3"></g>

<g transform="matrix( 0.3621063232421875, 0, 0, 0.3621063232421875, -594.2,0.1)" id="Layer_2"></g>

<g transform="matrix( 0.3621063232421875, 0, 0, 0.3621063232421875, -594.2,0.1)" id="Layer_3"></g>

<g transform="matrix( 0.3621063232421875, 0, 0, 0.3621063232421875, -594.2,0.1)" id="MergedLayer_3"></g>

<g transform="matrix( 0.3621063232421875, 0, 0, 0.3621063232421875, -594.2,0.1)" id="Layer_4"></g>

<g transform="matrix( 0.3621063232421875, 0, 0, 0.3621063232421875, -594.2,0.1)" id="Layer_1"></g>

<g transform="matrix( 0.3621063232421875, 0, 0, 0.3621063232421875, -594.2,0.1)" id="Layer_5"></g>

<g transform="matrix( 0.3621063232421875, 0, 0, 0.3621063232421875, -594.2,0.1)" id="Layer_6"></g>

<g transform="matrix( 0.3621063232421875, 0, 0, 0.3621063232421875, -594.2,0.1)" id="MergedLayer_1">
<g>
<g>
<g>
<path d="M 1796.05 110.65
Q 1795.35 110.3 1794.8 110.05 1792.35 109.6 1791.5 109.5 1790.65 109.4 1788.05 109.3
L 1751.15 107.1
Q 1742.05 106.45 1732.9 105.9 1723 105.3 1718.05 104.95
L 1707.85 104.15
Q 1704.35 104.35 1700.7 105.35 1700.4541015625 105.4046875 1700.2 105.45 1688.3416015625 110.5556640625 1684.85 112.95 1681.4 115.4 1672.7 124.55
L 1671 127.2
Q 1669.5 130.9 1668.9 135.5 1668.65 137.95 1668.25 144.05
L 1666.05 180.6
Q 1665.3 193.2 1663.85 210.65 1662.15 232.4 1658.35 289.3
L 1653.55 362.25
Q 1653.35 366.3 1652.75 374.4
L 1650.45 412.7
Q 1650.25 417.25 1651.05 421.05 1651.9 424.5 1653.95 428.95 1655.8 431.7 1657.4 432.85 1658.9 434.15 1661.95 435.25 1670.6 437.6 1683.1 438.4 1690.3 438.9 1704.6 439.4
L 1770.05 442.8
Q 1778.478515625 443.027734375 1783.3 442.6 1783.9134765625 442.3869140625 1784.45 442.15
L 1786.35 438.75 1791.45 434.2
Q 1794.6 431.25 1795.5 430.1 1796.35 429 1798.3 425.25 1798.95 421.05 1799.4 412.5
L 1801.1 382.75
Q 1803 348.45 1804.6 325.7 1806.9 294.55 1809.65 268.65
L 1812.75 240.7
Q 1813.2 237.85 1813.85 234.95 1814.6 231.15 1815.05 226.6
L 1818.15 196.7
Q 1820.4 174.9 1821.1 162.6
L 1821.2 160.05
Q 1821.65 150.15 1820.05 142.1 1818.2 133.1 1813.55 125.4 1808.8 118.35 1800.4 112.9
L 1797.85 111.3
Q 1797.21484375 110.961328125 1796.55 110.65
L 1796.05 110.65
M 1792.2 129.6
Q 1793.2 129.7 1794.2 129.85 1795.2 130 1796.2 130.2 1797.05 130.3 1797.9 130.45 1798.8 130.65 1799.7 130.9 1800.5 131.1 1801.35 131.35 1802.15 131.55 1802.9 131.85 1803.6 132.1 1804.2 132.55 1805.2 133.4 1806.1 134.45
L 1804.75 160.35 1804.95 160.35 1804.45 166.15 1802.55 166.05 1802.3 170.85
Q 1800.55 171.1 1799.9 171.15 1799.2 171.2 1796.8 171.05 1788.35 170.95 1778.7 172.55
L 1764.9 174.9
Q 1746.3 178.05 1741.85 177.9 1737.35 177.9 1728.9 174.35 1720.8 171.1 1713.3 170.25 1708.1 169.6 1702.3 167.2 1698.45 165.65 1691.95 162.2
L 1687.1 160.65 1683.45 158.85
Q 1683 156.6 1683.05 155.9 1683.1 155.15 1683.75 153.1 1687.75 152.55 1692.05 152.9
L 1739.35 155.65
Q 1753.15 156.35 1766.85 157.2
L 1769.6 157.4
Q 1776.35 157.8 1783.95 158.7
L 1792.6 159.75
Q 1794.7 160 1795.45 160.05 1796.2255859375 160.0984375 1798.8 160.05 1798.9166015625 160.05 1799 160.05
L 1799.2 156.3
Q 1798.75 156.2 1798.25 156.2 1797.15 156.05 1796.1 155.95 1794.95 155.9 1793.8 155.85 1792.55 155.8 1791.35 155.8 1790.05 155.7 1788.8 155.7 1783.45 155.55 1778.1 155.5 1777.3 155.5 1776.5 155.55 1775.5 155.5 1774.55 155.5 1773.5 155.5 1772.45 155.5 1771.3 155.45 1770.15 155.4 1768.9 155.35 1767.65 155.35 1766.25 155.25 1764.9 155.25 1763.45 155.25 1762 155.2 1760.45 155.1 1758.85 155.05 1757.75 155 1756.65 154.95 1755.95 154.95 1755.35 154.9 1754.6 154.8 1753.85 154.8 1752.2 154.65 1750.5 154.55 1747.5 154.1 1744.7 153.95 1742.1 153.8 1739.5 153.65 1736.85 153.45 1734.2 153.35 1728.8 153.15 1723.4 153.05
L 1688.7 151.25
Q 1687.9 150.95 1687.25 150.5 1686.9 150.45 1686.65 150.35 1686.4 150.15 1686.15 150 1686.05 149.9 1685.9 149.8 1685.75 149.7 1685.7 149.6 1685.65 149.5 1685.6 149.45 1685.5 149.25 1685.4 149.1 1685.25 148.8 1685.2 148.55 1685.05 148.15 1684.95 147.75 1684.75 146.3 1684.65 144.85 1684.55 143.35 1684.5 141.9 1684.5 140.5 1684.55 139.1 1684.6 137.65 1684.75 136.2 1684.9 134.8 1685.15 133.45 1685.7 130.75 1686.35 128.05 1686.67265625 126.7591796875 1687.05 125.55
L 1687.1 125.3 1688.1 124.4 1689.1 124.45
Q 1689.6021484375 124.266015625 1690.1 124.1 1691 123.9 1691.8 123.7 1692.6 123.65 1693.5 123.55 1693.65 123.55 1693.8 123.6 1694 123.6 1694.25 123.6 1694.55 123.6 1694.9 123.65 1695.2 123.65 1695.6 123.65 1696.1 123.7 1696.55 123.7 1697.1 123.75 1697.6 123.8 1698.25 123.8 1698.85 123.85 1699.55 123.9 1700.25 123.9
L 1790.05 129.4
Q 1791.1 129.5 1792.2 129.6
M 1783.4 176.4
Q 1788.6 176.65 1792.25 178 1794.3 179.85 1795.6 182.05 1796.7 183.95 1797.55 186.9 1798.05 191.55 1797.55 197.85
L 1797.4 200.65
Q 1797.1 204.75 1796.5 206.6 1795.7 208.9 1793.35 211.75
L 1792.2 215.55
Q 1787.55 217.45 1780.75 217.85 1777.6 218 1769.05 217.7
L 1766.35 217.65
Q 1762.95 217.5 1761.05 216.9 1758.65 216.2 1756.2 214.4 1753.3 210.95 1752.7 210.05 1752.1 209.05 1751.25 206.65 1751.05 203.65 1751.05 202.6 1751.05 201.5 1751.25 198.05
L 1751.45 193.5
Q 1751.95 190.25 1752.95 188.25 1753.95 186.4 1756.3 183.8
L 1758.15 181.7
Q 1762.8 177.9 1768.55 176.8 1772.35 176.1 1780.1 176.3
L 1783.4 176.4
M 1765.85 232.75
Q 1772.75 232.6 1781.9 232.95
L 1791 233.3 1793.15 233.9
Q 1795.05 238 1795.5 244.6
L 1796.05 247.65
Q 1796.3 250 1796.35 250.75 1796.35 251.55 1796.3 253.8
L 1794.9 256.1
Q 1786.65 257.2 1775.65 255.1
L 1774.8 253.1
Q 1770.8 252.9 1766.8 252.85
L 1758.85 252.75
Q 1755.85 252.75 1741.25 252.35 1730.85 252.05 1725.7 252.05 1719.1 252.05 1710.75 251.75 1706.9 251.65 1705.05 251.75 1696.9 251.75 1694.95 251.4 1693.05 251 1689.35 248.7 1686.35 240.95 1689.2 229.55 1689.45 229.15 1706.6 230.3 1728.65 231.7 1730 231.8
L 1738.55 232.2
Q 1754.35 233.05 1765.85 232.75
M 1689.6 387.7
L 1694.6 388
Q 1699.15 388.3 1708.1 389.15 1714.85 389.75 1721.4 390.15 1729.25 390.7 1737.25 391.35 1752 392.8 1761.55 393
L 1777.6 393.4
Q 1784.8 393.5 1786.55 393.7 1788.3 393.95 1791.5 395.65 1792.4 399.4 1792.1 403.4 1791.85 406.5 1790.7 411.05
L 1789.7 411.95
Q 1783.6 412 1778.8 411.75
L 1775.35 411.65
Q 1764.7 411.35 1743.65 410.55 1734.2 410.1 1722.45 409.85 1712.15 409.55 1701.9 409.05
L 1694.05 408.8
Q 1681.5 408.6 1678.8 408.25 1676.1 407.85 1672.5 405.85 1671 402.8 1670.7 401.75 1670.45 400.65 1670.3 397.05 1671 393.6 1671.4 392.5 1671.8 391.4 1673.4 388.55 1676.85 386.9 1681.3 387 1683.15 387 1689.6 387.7 Z" stroke="none" fill="#F5F7F9"></path>

<path d="M 1694.6 388
L 1689.6 387.7
Q 1683.15 387 1681.3 387 1676.85 386.9 1673.4 388.55 1671.8 391.4 1671.4 392.5 1671 393.6 1670.3 397.05 1670.45 400.65 1670.7 401.75 1671 402.8 1672.5 405.85 1676.1 407.85 1678.8 408.25 1681.5 408.6 1694.05 408.8
L 1701.9 409.05
Q 1712.15 409.55 1722.45 409.85 1734.2 410.1 1743.65 410.55 1764.7 411.35 1775.35 411.65
L 1778.8 411.75
Q 1783.6 412 1789.7 411.95
L 1790.7 411.05
Q 1791.85 406.5 1792.1 403.4 1792.4 399.4 1791.5 395.65 1788.3 393.95 1786.55 393.7 1784.8 393.5 1777.6 393.4
L 1761.55 393
Q 1752 392.8 1737.25 391.35 1729.25 390.7 1721.4 390.15 1714.85 389.75 1708.1 389.15 1699.15 388.3 1694.6 388
M 1781.9 232.95
Q 1772.75 232.6 1765.85 232.75 1754.35 233.05 1738.55 232.2
L 1730 231.8
Q 1728.65 231.7 1706.6 230.3 1689.45 229.15 1689.2 229.55 1686.35 240.95 1689.35 248.7 1693.05 251 1694.95 251.4 1696.9 251.75 1705.05 251.75 1706.9 251.65 1710.75 251.75 1719.1 252.05 1725.7 252.05 1730.85 252.05 1741.25 252.35 1755.85 252.75 1758.85 252.75
L 1766.8 252.85
Q 1770.8 252.9 1774.8 253.1
L 1775.65 255.1
Q 1786.65 257.2 1794.9 256.1
L 1796.3 253.8
Q 1796.35 251.55 1796.35 250.75 1796.3 250 1796.05 247.65
L 1795.5 244.6
Q 1795.05 238 1793.15 233.9
L 1791 233.3 1781.9 232.95 Z" stroke="none" fill="#9DAEEA"></path>

<path d="M 1792.25 178
Q 1788.6 176.65 1783.4 176.4
L 1780.1 176.3
Q 1772.35 176.1 1768.55 176.8 1762.8 177.9 1758.15 181.7
L 1756.3 183.8
Q 1753.95 186.4 1752.95 188.25 1751.95 190.25 1751.45 193.5
L 1751.25 198.05
Q 1751.05 201.5 1751.05 202.6 1751.05 203.65 1751.25 206.65 1752.1 209.05 1752.7 210.05 1753.3 210.95 1756.2 214.4 1758.65 216.2 1761.05 216.9 1762.95 217.5 1766.35 217.65
L 1769.05 217.7
Q 1777.6 218 1780.75 217.85 1787.55 217.45 1792.2 215.55
L 1793.35 211.75
Q 1795.7 208.9 1796.5 206.6 1797.1 204.75 1797.4 200.65
L 1797.55 197.85
Q 1798.05 191.55 1797.55 186.9 1796.7 183.95 1795.6 182.05 1794.3 179.85 1792.25 178
M 1790.3 188.45
Q 1792 191.9 1792.3 195.15 1792.6 197.7 1791.95 202.05
L 1790.95 202.95
Q 1789.75 205.45 1789.25 206.25 1788.7 207.1 1786.75 209.5 1781.65 211.75 1775.8 212.05 1770.75 212.3 1764.5 211.2 1761.4 209.95 1760.6 209.3 1759.75 208.65 1758 206.05 1756.35 201.45 1756.6 196.35 1759.1 191.7 1760.2 190.35 1761.4 189.1 1765.65 185.8 1768.35 184.05 1770.7 183.4 1773 182.75 1776.3 182.75
L 1780.15 183
Q 1783.65 183.15 1787.15 183.5 1788.1 184.55 1788.45 185.15 1788.9 185.8 1790.3 188.45 Z" stroke="none" fill="#5D5A76"></path>

<path d="M 1792.3 195.15
Q 1792 191.9 1790.3 188.45 1788.9 185.8 1788.45 185.15 1788.1 184.55 1787.15 183.5 1783.65 183.15 1780.15 183
L 1776.3 182.75
Q 1773 182.75 1770.7 183.4 1768.35 184.05 1765.65 185.8 1761.4 189.1 1760.2 190.35 1759.1 191.7 1756.6 196.35 1756.35 201.45 1758 206.05 1759.75 208.65 1760.6 209.3 1761.4 209.95 1764.5 211.2 1770.75 212.3 1775.8 212.05 1781.65 211.75 1786.75 209.5 1788.7 207.1 1789.25 206.25 1789.75 205.45 1790.95 202.95
L 1791.95 202.05
Q 1792.6 197.7 1792.3 195.15 Z" stroke="none" fill="#F1F3F7"></path>

<path d="M 1804.95 160.35
L 1804.75 160.35 1799 160.05
Q 1798.9166015625 160.05 1798.8 160.05 1796.2255859375 160.0984375 1795.45 160.05 1794.7 160 1792.6 159.75
L 1783.95 158.7
Q 1776.35 157.8 1769.6 157.4
L 1766.85 157.2
Q 1753.15 156.35 1739.35 155.65
L 1692.05 152.9
Q 1687.75 152.55 1683.75 153.1 1683.1 155.15 1683.05 155.9 1683 156.6 1683.45 158.85
L 1687.1 160.65 1691.95 162.2
Q 1698.45 165.65 1702.3 167.2 1708.1 169.6 1713.3 170.25 1720.8 171.1 1728.9 174.35 1737.35 177.9 1741.85 177.9 1746.3 178.05 1764.9 174.9
L 1778.7 172.55
Q 1788.35 170.95 1796.8 171.05 1799.2 171.2 1799.9 171.15 1800.55 171.1 1802.3 170.85
L 1802.55 166.05 1804.45 166.15 1804.95 160.35 Z" stroke="none" fill="#992A3F"></path>

<path d="M 1794.2 129.85
Q 1793.2 129.7 1792.2 129.6 1791.1 129.5 1790.05 129.4
L 1700.25 123.9
Q 1699.55 123.9 1698.85 123.85 1698.25 123.8 1697.6 123.8 1697.1 123.75 1696.55 123.7 1696.1 123.7 1695.6 123.65 1695.2 123.65 1694.9 123.65 1694.55 123.6 1694.25 123.6 1694 123.6 1693.8 123.6 1693.65 123.55 1693.5 123.55 1692.6 123.65 1691.8 123.7 1691 123.9 1690.1 124.1 1689.6021484375 124.266015625 1689.1 124.45
L 1688.1 124.4 1687.1 125.3 1687.05 125.55
Q 1686.67265625 126.7591796875 1686.35 128.05 1685.7 130.75 1685.15 133.45 1684.9 134.8 1684.75 136.2 1684.6 137.65 1684.55 139.1 1684.5 140.5 1684.5 141.9 1684.55 143.35 1684.65 144.85 1684.75 146.3 1684.95 147.75 1685.05 148.15 1685.2 148.55 1685.25 148.8 1685.4 149.1 1685.5 149.25 1685.6 149.45 1685.65 149.5 1685.7 149.6 1685.75 149.7 1685.9 149.8 1686.05 149.9 1686.15 150 1686.4 150.15 1686.65 150.35 1686.9 150.45 1687.25 150.5 1687.9 150.95 1688.7 151.25
L 1723.4 153.05
Q 1728.8 153.15 1734.2 153.35 1736.85 153.45 1739.5 153.65 1742.1 153.8 1744.7 153.95 1747.5 154.1 1750.5 154.55 1752.2 154.65 1753.85 154.8 1754.6 154.8 1755.35 154.9 1755.95 154.95 1756.65 154.95 1757.75 155 1758.85 155.05 1760.45 155.1 1762 155.2 1763.45 155.25 1764.9 155.25 1766.25 155.25 1767.65 155.35 1768.9 155.35 1770.15 155.4 1771.3 155.45 1772.45 155.5 1773.5 155.5 1774.55 155.5 1775.5 155.5 1776.5 155.55 1777.3 155.5 1778.1 155.5 1783.45 155.55 1788.8 155.7 1790.05 155.7 1791.35 155.8 1792.55 155.8 1793.8 155.85 1794.95 155.9 1796.1 155.95 1797.15 156.05 1798.25 156.2 1798.75 156.2 1799.2 156.3
L 1799 160.05 1804.75 160.35 1806.1 134.45
Q 1805.2 133.4 1804.2 132.55 1803.6 132.1 1802.9 131.85 1802.15 131.55 1801.35 131.35 1800.5 131.1 1799.7 130.9 1798.8 130.65 1797.9 130.45 1797.05 130.3 1796.2 130.2 1795.2 130 1794.2 129.85 Z" stroke="none" fill="#110F1A"></path>

<path d="M 1801.15 101.75
Q 1801.225390625 102.201953125 1801.55 103.4
L 1801.35 101.1
Q 1801.3287109375 98.884375 1801.15 96.75
L 1801 99.1
Q 1801.05 101.1 1801.15 101.75
M 1800 47.1
Q 1800.5 40.95 1799.65 36.75 1798.55 33.7 1796.85 31.35 1795.25 29.25 1792.5 27
L 1789.45 24.9
Q 1783.05 20.4 1776.55 18.05 1770.2 15.75 1762.3 15.1
L 1758.55 14.9
Q 1733.45 13.05 1710.55 14.1
L 1707.15 14.3
Q 1699.5 14.7 1695 15.25 1688.3 16 1683.05 17.5 1682.15 19.15 1681.95 20.2 1681.75 21.3 1681.5 26.25
L 1681.35 28.95
Q 1681.2 30.9 1680.95 34.85 1680.85 38.3 1681.85 40.55 1684.65 42.15 1685.5 42.5 1686.3 42.8 1688.4 43.2
L 1711.5 45
Q 1710.1 48.45 1709.3 52.45 1708.65 55.4 1708.15 60.1 1707.15 68.5 1706.7 71.5 1705.55 77.75 1703.7 82.5 1701.560546875 87.50703125 1700.7 93.2
L 1701.3 93.25
Q 1700.6 100.6 1700.6 100.7
L 1700.8 102.85
Q 1702.4 103.6 1703.6 104
L 1700.2 105.45
Q 1700.4541015625 105.4046875 1700.7 105.35 1704.35 104.35 1707.85 104.15
L 1718.05 104.95
Q 1723 105.3 1732.9 105.9 1742.05 106.45 1751.15 107.1
L 1788.05 109.3
Q 1790.65 109.4 1791.5 109.5 1792.35 109.6 1794.8 110.05 1795.35 110.3 1796.05 110.65
L 1796.55 110.65
Q 1794.9365234375 109.9587890625 1793.25 109.6
L 1793.3 109.1
Q 1795.25 109 1799.7 108.05 1800.8 104.95 1800.85 101.4 1800.9 99.25 1800.4 94.6
L 1801 94.6
Q 1800.8154296875 92.9279296875 1800.55 91.3 1798.1 75.9 1799.35 55.75
L 1800 47.1
M 1785.25 31.85
Q 1791.65 37.9 1792.3 42.85 1792.35 43.65 1792.45 44.45
L 1721.3 41.75 1720.5 38.8 1687.9 36.15
Q 1685.5 29.9 1687.6 23.6 1733.7 12.35 1778.95 26.4 1778.95 26.75 1785.25 31.85
M 1784.3 49.55
Q 1788.6 50.1 1792.1 52.1 1792.8 53.8 1792.95 55.4 1793 56.3 1792.9 58.9
L 1792.75 65.1
Q 1792.45 79.3 1794.2 92.8 1794.8 98.45 1794.3 102.3
L 1792.3 104.15
Q 1788.95 104.2 1784.2 104
L 1706.8 99.7
Q 1707.85 92.75 1708.25 91.1 1708.65 89.35 1709.85 86.05 1712 79.85 1713.25 69.6 1714.75 56.85 1717.1 49.15
L 1720.15 46.45
Q 1722.25 46.3 1723.1 46.3 1723.9 46.3 1726.55 46.45
L 1784.3 49.55 Z" stroke="none" fill="#7E1A34"></path>

<path d="M 1801 94.6
L 1800.4 94.6
Q 1800.9 99.25 1800.85 101.4 1800.8 104.95 1799.7 108.05 1795.25 109 1793.3 109.1
L 1793.25 109.6
Q 1794.9365234375 109.9587890625 1796.55 110.65 1797.21484375 110.961328125 1797.85 111.3
L 1800.4 112.9
Q 1808.8 118.35 1813.55 125.4 1818.2 133.1 1820.05 142.1 1821.65 150.15 1821.2 160.05
L 1821.1 162.6
Q 1820.4 174.9 1818.15 196.7
L 1815.05 226.6
Q 1814.6 231.15 1813.85 234.95 1813.2 237.85 1812.75 240.7
L 1809.65 268.65
Q 1806.9 294.55 1804.6 325.7 1803 348.45 1801.1 382.75
L 1799.4 412.5
Q 1798.95 421.05 1798.3 425.25 1796.35 429 1795.5 430.1 1794.6 431.25 1791.45 434.2
L 1786.35 438.75 1784.45 442.15 1784.25 442.5
Q 1783.8103515625 442.548828125 1783.3 442.6 1778.478515625 443.027734375 1770.05 442.8
L 1704.6 439.4
Q 1690.3 438.9 1683.1 438.4 1670.6 437.6 1661.95 435.25 1658.9 434.15 1657.4 432.85 1655.8 431.7 1653.95 428.95 1651.9 424.5 1651.05 421.05 1650.25 417.25 1650.45 412.7
L 1652.75 374.4
Q 1653.35 366.3 1653.55 362.25
L 1658.35 289.3
Q 1662.15 232.4 1663.85 210.65 1665.3 193.2 1666.05 180.6
L 1668.25 144.05
Q 1668.65 137.95 1668.9 135.5 1669.5 130.9 1671 127.2
L 1672.7 124.55
Q 1681.4 115.4 1684.85 112.95 1688.3416015625 110.5556640625 1700.2 105.45
L 1703.6 104
Q 1702.4 103.6 1700.8 102.85
L 1700.6 100.7
Q 1700.6 100.6 1701.3 93.25
L 1700.7 93.2 1700.35 93.2 1700.05 98 1698.1 97.9
Q 1688.8 101.55 1683.35 104.45 1675.5 108.65 1670.4 114 1666.15 119.45 1663.95 126.7 1662.15 132.7 1661.55 140.85
L 1658.5 189.7
Q 1657.95 201.1 1656.45 223.5
L 1655.35 241.75
Q 1654.3 258.3 1654.1 261.1 1653.35 272.1 1652.45 280.5 1651.35 290.25 1650.85 303.05 1649.7 326.9 1648.3 345.2 1646.05 374.9 1644.95 393.2
L 1643.9 412.6
Q 1643.4 421.4 1644.3 426.45 1646.45 433.4 1652.25 438.85 1655.7 440.85 1659.95 442.05 1663.3 442.9 1668.15 443.5
L 1734.3 448.3
Q 1751 449.55 1757.6 449.8 1770.75 450.2 1781 449.05 1787.3 447.75 1791.9 444.85 1795.9 442.35 1800.7 437.2 1805 430.75 1805.85 425.75 1806.75 420.6 1807.8 396.55
L 1808.65 377.85
Q 1810.25 343.25 1812.05 318.7 1814.35 286.75 1817.65 259.8 1820.15 239.55 1822.95 212.1
L 1825.7 186.85
Q 1827.85 167.05 1827.75 156.9 1827.55 140.4 1822.75 127.55 1819.9 121.1 1817.1 117.15 1813.4 111.95 1808.6 109.05 1804.15 106.5 1801.8 104.25 1801.6642578125 103.7810546875 1801.55 103.4 1801.225390625 102.201953125 1801.15 101.75 1801.05 101.1 1801 99.1
L 1801.15 96.75 1801.35 94.65 1801 94.6 Z" stroke="none" fill="#706C84"></path>

<path d="M 1792.1 52.1
Q 1788.6 50.1 1784.3 49.55
L 1726.55 46.45
Q 1723.9 46.3 1723.1 46.3 1722.25 46.3 1720.15 46.45
L 1717.1 49.15
Q 1714.75 56.85 1713.25 69.6 1712 79.85 1709.85 86.05 1708.65 89.35 1708.25 91.1 1707.85 92.75 1706.8 99.7
L 1784.2 104
Q 1788.95 104.2 1792.3 104.15
L 1794.3 102.3
Q 1794.8 98.45 1794.2 92.8 1792.45 79.3 1792.75 65.1
L 1792.9 58.9
Q 1793 56.3 1792.95 55.4 1792.8 53.8 1792.1 52.1 Z" stroke="none" fill="#E21F2D"></path>

<path d="M 1792.3 42.85
Q 1791.65 37.9 1785.25 31.85 1778.95 26.75 1778.95 26.4 1733.7 12.35 1687.6 23.6 1685.5 29.9 1687.9 36.15
L 1720.5 38.8 1721.3 41.75 1792.45 44.45
Q 1792.35 43.65 1792.3 42.85 Z" stroke="none" fill="#DF202E"></path>
</g>
</g>
</g>
</g>

<g transform="matrix( 0.3621063232421875, 0, 0, 0.3621063232421875, -594.2,0.1)" id="Layer_2">
<g>
<g>
<g>
<path d="M 1652.85 350.15
Q 1652.2 349.75 1650.9 349.75
L 1644.5 349.7
Q 1643.65 349.7 1643.35 349.9 1643 350.1 1642.6 350.8
L 1641.6 352.6
Q 1637.25 352.4 1635 353.45 1633.95 354.05 1632.45 355.25 1631.097265625 356.31953125 1630.2 357.2
L 1630.2 396.15
Q 1630.6296875 396.41484375 1631.1 396.65 1633.45 397.85 1635.15 398.25 1636.55 398.6 1638.35 398.7 1639.2 398.75 1641.6 398.75
L 1649.05 398.7
Q 1650.85 398.7 1651.75 398.25
L 1651.75 391.5
Q 1650.45 391.35 1646.85 391.5 1643.7 391.6 1641.95 391.2 1640.05 390.75 1636.55 388.85 1634.95 388.05 1634.05 387.2 1632.55 385.75 1632.05 383.15 1631.7 381.4 1631.75 378.35 1631.85 375.15 1632.15 374 1632.35 373.25 1633.25 370.8 1634.7 367.15 1636.05 365.4 1637.55 363.45 1641.35 360.9
L 1641.4 366.5
Q 1641.4 367.3 1641.75 367.6 1642.05 367.85 1642.6 367.85
L 1648.45 367.9
Q 1650.4 367.9 1651.1 367.65 1652.6 367.1 1652.9 365.85
L 1655.05 365.6
Q 1655.25 361.25 1655.15 358.85 1654.95 355.1 1654.1 352.2 1653.75 350.7 1652.85 350.15
M 1676.1 434.7
L 1669.15 434.6 1669.15 442.5
Q 1663.75 442.2 1652.95 442.1 1648.8 442.05 1646.75 442.15 1643.3 442.3 1640.6 442.85 1639.3 443.15 1638.8 443.65 1638.55 443.9 1638.1 445 1635 454.1 1633.85 463.15 1633.25 467.7 1633 473.4 1633 476.15 1634.1 477 1634.55 477.35 1635.3 477.5 1635.75 477.6 1636.65 477.8 1637.55 478.1 1639.2 478.95 1640.55 479.5 1643.6 479.5 1649.95 479.5 1653.45 479.3 1658.9 479 1663.2 478.1 1664.45 477.8 1664.85 477.3 1665.3 476.75 1665.3 475.4
L 1665.25 466.6 1655.3 466.45
Q 1653.7 466.45 1653 466.05 1652 465.5 1651.45 464.05 1651.05 462.8 1651.15 461.1 1651.2 460.6 1651.5 458.15 1651.8 455.55 1651.7 449.25
L 1676 449.95
Q 1676.15 441.45 1676.1 434.7
M 1810.35 451.2
Q 1807.75 450.1 1804.3 449.65 1802.1 449.4 1798 449.3 1788.95 449 1784.05 449.65 1781.9 449.95 1780.85 450.1 1778.95 450.35 1777.65 450.35 1775.2 450.3 1772.25 449.45 1770.25 448.85 1767.05 447.55 1767.9 443.75 1767.45 439.95
L 1762.2 439.85
Q 1761 439.85 1760.5 440.1 1759.4 440.55 1758.9 442.5 1758.35 444.5 1758.25 447.15 1758.2 448.55 1758.3 451.9 1758.3 453 1758.65 453.5 1758.95 453.9 1759.75 454.3 1764.45 456.7 1770.95 457.25 1775.1 457.6 1782.8 457.25
L 1790.85 456.85
Q 1790.15 456.9 1790.15 458.15
L 1790.2 468.2
Q 1786.85 469.3 1783.45 469.15
L 1783.45 476.4
Q 1801.05 477.5 1819.2 477.05 1819.75 468.05 1817.2 459.7 1816.1 455.85 1814.35 453.95 1812.9 452.3 1810.35 451.2
M 1816.7 346.05
Q 1816.6 344.8 1816.05 344.45 1815.65 344.15 1814.85 344.15
L 1810.4 344.05
Q 1808 343.95 1806.65 344.4 1805.15 344.95 1804.1 346.2 1803.55 346.95 1802.85 348.65 1802.25 349.9 1802 350.95 1801.75 352.1 1801.75 354.5
L 1801.75 363.7
Q 1801.75 365 1802.25 365.5 1802.75 365.95 1803.9 365.95
L 1808.55 366.05
Q 1810.55 366.05 1811.25 365.85 1811.8 365.7 1813.4 364.95 1814.75 364.3 1815.6 364.25 1816.65 364.2 1818.25 364.75 1825.75 367.55 1830.6 373.85 1835.1 379.7 1835.1 385.95 1835.1 388.4 1833.85 393.6 1833.2 396.3 1832.55 397.75 1831.6 399.95 1830.15 401.2 1827.2 403.75 1822.1 403 1820.45 402.75 1818 402.05 1814.3 400.95 1813.9 400.85 1808.85 399.6 1804 400.1
L 1804 406.9
Q 1817.65 412.1 1832.1 409.9 1836.7 409.2 1838.4 407.05 1839.25 406 1839.95 403.3 1842.45 393.9 1842.85 387.8 1843.45 379 1840.6 372.3 1838.85 368.1 1835.85 364.8 1832.25 360.9 1827.25 358.75 1822.2 356.6 1816.9 356.65 1817.2 351.65 1816.7 346.05
M 1684.55 367.95
Q 1672.45 370.05 1662.55 369.75 1661.55 372.5 1662.55 375.5 1663.5 378.45 1666.1 380.3 1668.45 381.9 1673.75 382.9 1699.2 388.05 1725.25 385.35 1733.05 384.5 1737.95 383.15 1739.5 382.7 1744.3 381.1 1748.3 379.8 1750.75 379.25 1752.8 378.75 1756.85 378 1760.75 377.1 1765.15 375 1773.85 371 1781 364.6 1788.1 358.2 1792.85 350.3 1795.15 346.45 1795.95 343.2 1796.7 340.4 1796.6 335.85 1796.4 329.25 1796.45 328.45 1792.1 327.35 1788.25 329.1 1786.95 329.7 1785.3 330.9 1782.65 332.75 1782.4 332.9 1780.2 334.35 1776.9 335.75 1773.05 337.3 1771.1 338.1 1766.9 339.9 1760.1 343.4 1752.1 347.65 1749.25 349 1740.15 353.25 1728.15 357 1720.6 359.3 1706.15 362.95 1691.9 366.6 1684.55 367.95
M 1704.6 379.7
Q 1704.75 379.55 1704.9 379.45 1706.4 378.45 1708.85 377.35
L 1713.55 375
Q 1715.45 374 1715.7 373.05 1715.8 372.75 1715.8 372.15
L 1715.8 368.5
Q 1728.6 365.15 1737.1 362.4 1748.65 358.65 1757.75 354.25 1767.65 349.15 1772.6 346.6 1781.5 342.15 1788.15 340.3 1782.25 351.9 1772.15 360.2 1761.5 369.05 1748.8 372 1744.95 372.8 1743 373.3 1741.4 373.7 1738.95 374.5 1736.25 375.45 1734.9 375.85 1720.5 380.3 1704.6 379.7
M 1766.6 255.1
Q 1765.1 257.55 1761.95 260.2 1760.2 261.75 1756.55 264.65 1754.55 266.45 1752.3 268.95 1751 270.35 1750.65 271.25 1750.15 272.4 1750.3 274.5 1750.5 277 1750.35 277.85 1751.35 277.65 1753.85 277.9 1756.1 278.05 1757.25 277.6 1758.25 277.25 1760.05 275.45 1767.15 268.3 1774.65 262.1
L 1774.7 255.25 1766.6 255.1
M 1702.9 268.5
Q 1704.15 267.05 1704.5 266.2 1705.05 264.95 1704.9 262.7 1704.7 259.95 1704.85 259.05
L 1697.8 258.9
Q 1697.55 259.75 1696.75 260.55 1696.25 261.05 1695.2 261.95 1694.2 262.95 1692.55 265.25 1691.4 266.6 1687.2 270.5 1683.75 273.65 1682.3 276.1 1681.85 276.8 1681 278.25 1680.55 278.95 1679.45 280.15 1678.7 280.95 1678.55 281.6 1678.45 282.05 1678.45 282.9
L 1678.45 288.4 1684.15 288.55
Q 1685.35 288.55 1685.85 288.25 1686.15 288 1686.5 287.5 1686.9 286.8 1687 286.65
L 1688.05 285.45
Q 1688.15 285.35 1689.4 283.1 1690.4 281.35 1692.3 279.4 1694.65 277.2 1695.8 276.1 1698.05 274 1702.9 268.5 Z" stroke="none" fill="#000000"></path>

<path d="M 1704.9 379.45
Q 1704.75 379.55 1704.6 379.7 1720.5 380.3 1734.9 375.85 1736.25 375.45 1738.95 374.5 1741.4 373.7 1743 373.3 1744.95 372.8 1748.8 372 1761.5 369.05 1772.15 360.2 1782.25 351.9 1788.15 340.3 1781.5 342.15 1772.6 346.6 1767.65 349.15 1757.75 354.25 1748.65 358.65 1737.1 362.4 1728.6 365.15 1715.8 368.5
L 1715.8 372.15
Q 1715.8 372.75 1715.7 373.05 1715.45 374 1713.55 375
L 1708.85 377.35
Q 1706.4 378.45 1704.9 379.45 Z" stroke="none" fill="#FFFFFF"></path>
</g>
</g>
</g>
</g>
</g>
</svg>
