
<svg viewBox="0 0 272 172" height="172px" width="272px" y="0px" x="0px" preserveAspectRatio="none" xmlns:xlink="http://www.w3.org/1999/xlink" version="1.1" xmlns="http://www.w3.org/2000/svg">
<defs></defs>

<g id="Layer_2">
<g>
<g>
<g>
<path d="M 63.3 138.95
Q 63.3 139.1 63.3 139.2 63.3 140.9 63.9 142.4 63.95 144.8 64.5 147.15 64.95 149 64.9 151 65 151.1 65.05 151.25 65.1 151.35 65.15 151.5 65.15 151.6 65.15 151.75 65.05 152.75 65.35 153.7 65.45 153.95 65.55 154.2 65.55 154.2306640625 65.55 154.25 69.896484375 154.2974609375 74.25 154.25 70.405078125 150.8328125 67.6 146.35 67.3 145.35 66.75 144.35 65.85 142.8 64.4 141.75 64.35 141.6 64.35 141.45 64.3 141.15 64.3 140.8 63.7 139.9 63.3 138.95
M 185.15 137.7
Q 186.83203125 136.2892578125 188.4 134.75 184.8412109375 136.37109375 181.15 137.7 170.3859375 141.6185546875 158.7 143 154.289453125 143.53046875 149.9 143.75 130.701171875 144.8916015625 111.9 140.7 107.25859375 139.6546875 102.95 137.7 102.1267578125 137.317578125 101.3 136.9 98.75 135.6 96.3 134.65 96.05 134.35 95.9 134.05 95.8 133.95 95.7 133.85 95.15 133.65 94.45 133.4 94.4 133.3 94.35 133.2 94.25 133.1 94.15 133 93.15 132.6 92.05 132.4 91.05 131.55 89.9 130.9 89.65 130.8 89.6 130.95 91.075390625 134.6630859375 93.3 137.7 97.7962890625 143.82421875 105.35 147.2 113.5 150.8 122.2 152.7 124.15625 153.1314453125 126.1 153.45 128.13671875 153.45 130.15 153.45 140.0404296875 153.419921875 149.9 153.25 150.7626953125 153.2634765625 151.6 153.25 155.4947265625 152.5234375 159.3 151.35 168.25 148.6 176.35 143.9 181.051171875 141.193359375 185.15 137.7
M 210.85 132.05
Q 210.3 133.95 209.85 135.85 209.6181640625 136.791796875 209.3 137.7 208.557421875 139.9259765625 207.35 141.95 207.35 142.1 207.35 142.25 207.2 142.7 207.25 143.2 207.25 143.35 207.25 143.5 206.9 144.05 206.55 144.65 205.9 145.85 205.6 147.15 205.6 147.35 205.55 147.5 204.26875 149.7822265625 202.55 151.75 206.2607421875 151.6111328125 209.95 151.4 209.95 151.1408203125 209.95 150.85 210.05 150.7 210.15 150.6 210.2 150.45 210.3 150.35 210.35 150.2 210.35 150.1 210.4 149.5 210.4 148.85 210.4 148.75 210.4 148.6 210.4 148.5 210.5 148.4 210.55 148.25 210.65 148.1 210.65 142.9 211.05 137.7 211.0833984375 137.5 211.1 137.3 211.25 134.65 210.85 132.05
M 113.75 107.65
Q 113.65 107.55 113.55 107.5 113.35 107.45 113.15 107.35 113.05 107.25 113 107.15 112.9 107.05 112.9 106.95 108.7 104.25 103.65 104.7 98.45 105.15 94.5 108.6 93.05 109.85 92.75 111.65 94.6 114.75 98.05 116.25 101.05 117.5 103.25 116.95 104.75 116.55 106.05 117.2 112.05 118.4 115.55 114.3 115.75 114.1 115.9 113.9 115.95 113.8 115.95 113.7 115.95 113.45 116 113.15 116.05 112.8 116.2 112.5 116.25 112.45 116.25 112.35 116.25 112.25 116.25 112.15 116.25 112.05 116.2 111.95 116.1 111.75 115.95 111.55 115.95 111.45 115.95 111.35 115.95 111.25 115.95 111.15 115.95 110.95 115.95 110.8 115.95 110.7 115.95 110.6 115.95 110.5 115.9 110.4 115.85 110.3 115.8 110.2 115.75 110.1 115.7 110 115.6 109.9 115.45 109.8 115.15 109.55 114.95 109.2 114.8 109 114.7 108.8 114.65 108.7 114.5 108.65 114.2 108.4 114 108.05 113.85 107.85 113.75 107.65
M 172.85 107.15
Q 172.55 106.95 172.45 106.6 172.25 106.5 172.05 106.45 171.85 106.4 171.6 106.3 169.3 104.25 166.15 103.8 165.51328125 103.708984375 164.85 103.6 164.46328125 103.589453125 164.05 103.55 163.737890625 103.597265625 163.4 103.65 159.488671875 104.370703125 156.15 106.55 154.8 107.4 153.7 108.6 153.55 109.1 153.55 109.6 153.6 110.1 153.6 110.6 153.8 110.85 154 111.15 154.2 111.35 154.35 111.55 154.75 112.85 155.85 113.8 156.5 114.35 157.25 114.9 157.4 114.95 157.5 115.05 165.2 116.35 172.7 114 173.75 113.25 174.5 112.15 174.65 111.9 174.9 111.65 174.9 111.45 175 111.25 175.05 111.05 175.15 110.85 175.1 110.45 175.05 110.05 175 109.7 174.7 109.45 174.7 109.35 174.7 109.25 174.7 109.15 174.65 109.05 174.65 108.95 174.6 108.9 173.9 107.9 172.85 107.15
M 66.55 111.65
Q 66.6 111.75 66.6 111.8 66.6 112.25 66.8 112.6 67.05 115.75 67.4 118.9 67.55 120.6 67.7 122.25 69.35 122.25 71 122.6 71.1 122.6 71.25 122.65 73.8 122.35 76.4 122 76.3 120.45 74.55 118.9 73.3 117.75 72.5 116.25 69.9 113.2 66.95 110.5 66.7 111.05 66.55 111.65
M 80.55 94.75
Q 79.7375 92.84140625 79 90.85 78.7 89.95 78.35 89.1 78.2 93.05 78.25 97 78.25 99.95 78.4 102.85 79.479296875 102.559375 80.55 102.25 82.05859375 101.7970703125 83.55 101.3 81.9404296875 98.1123046875 80.55 94.75
M 204.55 114.5
Q 204.55 113.3 204.55 112.05 203.45 112.5 202.15 112.7 201.4 112.8 200.6 112.95 200.45 113.1 200.3 113.25 200.15 113.4 200 113.5 199.9 113.55 199.8 113.55 198.65 113.9 197.55 114.4 197.45 114.55 197.3 114.65 196.85 115.05 196.4 115.55 196.3 115.6 196.2 115.6 195.8 115.75 195.4 115.85 195.25 116 195.05 116.1 194.35 116.4 194.15 117.05 194.15 117.15 194.1 117.2 193.4 117.55 192.65 117.8 198.45 118.75 204.55 119.65 204.55 117.1 204.55 114.5
M 196.7 95.2
Q 196.7 95.05 196.65 94.95 195.6 96.35 194.65 97.85 193.65 99.45 192.4 100.9 192.1 101.05 191.85 101.25 191.75 101.35 191.7 101.5 194.05 102.55 197 103.8 197 103.6 197 103.45 197.15 101.7 196.7 100.1 196.7 99.2 196.7 98.35 196.7 96.75 196.7 95.2 Z" stroke="none" fill="#EE9D33"></path>

<path d="M 177.55 137.7
Q 172.364453125 139.5123046875 166.9 140.6 164 141.15 161.15 141.6 155.5212890625 142.4916015625 149.9 142.9 134.398046875 144.0583984375 118.95 141.6 112.047265625 140.5033203125 105.8 137.7 102.41171875 136.1583984375 99.2 134.1 98.75 134.05 98.3 133.95 98.2 133.9 98.15 133.85 98.1 133.75 98 133.65 97.9 133.45 97.75 133.25 97.65 133.15 97.55 133.05 97.25 133 96.9 132.9 96.75 132.85 96.55 132.8 96.45 132.7 96.35 132.6 95.45 131.85 94.2 131.75 94.05 131.75 93.9 131.7 92.5 130.7 91 130 90.25 129.65 89.7 129.05 88.5 129.05 87.25 129 87.2 129.05 87.15 129.15 87.15 129.2 87.15 129.3 87.15 129.4 87.15 129.5 87.15 129.7 87.15 129.9 87.15 130 87.15 130.1 87.25 130.2 87.3 130.3 87.35 130.4 87.4 130.5 87.4 130.6 87.4 130.7 87.45 130.9 87.55 131.1 87.6 131.2 87.65 131.3 87.65 131.4 87.65 131.5 87.65 131.6 87.65 131.7 87.65 131.9 87.7 132.05 87.7 132.15 87.7 132.25 89.15 134.45 90.55 136.65 90.8783203125 137.184375 91.2 137.7 96.658984375 145.8208984375 106.25 149.3 113.8435546875 152.025390625 121.6 153.45 123.86171875 153.4625 126.1 153.45 124.15625 153.1314453125 122.2 152.7 113.5 150.8 105.35 147.2 97.7962890625 143.82421875 93.3 137.7 91.075390625 134.6630859375 89.6 130.95 89.65 130.8 89.9 130.9 91.05 131.55 92.05 132.4 93.15 132.6 94.15 133 94.25 133.1 94.35 133.2 94.4 133.3 94.45 133.4 95.15 133.65 95.7 133.85 95.8 133.95 95.9 134.05 96.05 134.35 96.3 134.65 98.75 135.6 101.3 136.9 102.1267578125 137.317578125 102.95 137.7 107.25859375 139.6546875 111.9 140.7 130.701171875 144.8916015625 149.9 143.75 154.289453125 143.53046875 158.7 143 170.3859375 141.6185546875 181.15 137.7 184.8412109375 136.37109375 188.4 134.75 186.83203125 136.2892578125 185.15 137.7 181.051171875 141.193359375 176.35 143.9 168.25 148.6 159.3 151.35 155.4947265625 152.5234375 151.6 153.25 154.762890625 153.2044921875 157.9 153.15 167.4056640625 150.7404296875 176.05 146 182.51015625 142.50078125 188 137.7 189.6412109375 136.2587890625 191.2 134.7 191.25 134.6 191.3 134.5 191.35 134.4 191.4 134.3 191.45 134.2 191.45 134.1 191.9 133.65 192.25 133.2 192.6 132.8 193.1 132.5 193.2 132.45 193.3 132.35 193.35 132.25 193.35 132.15 193.4 132.05 193.45 131.95 193.45 131.85 193.5 131.75 193.8 131.45 194.1 131.2 194.4 130.95 194.45 130.55 194.5 130.45 194.5 130.35 194.5 130.25 194.45 130.25 193.5 130.05 192.5 129.95
L 192.5 130
Q 192.4 130.05 192.3 130.15 192.2 130.2 192.15 130.3 192.1 130.4 192 130.5 190.65 131.55 189.15 132.45 188.25 132.95 187.25 133.3 187.2 133.4 187.15 133.5 187.05 133.6 186.95 133.7 182.370703125 136.0138671875 177.55 137.7
M 115.15 106.7
Q 115.05 106.65 115 106.6 114.9 106.5 114.85 106.4 114.75 106.3 114.65 106.2 113.45 105.45 112.15 104.95 108.05 103.5 103.65 103.7 97.55 103.95 92.75 107.8 91.4 108.9 90.8 110.6 90.8 110.7 90.8 110.8 90.8 111.05 90.8 111.35 90.8 111.45 90.8 111.55 90.8 111.65 90.8 111.75 90.8 111.95 90.8 112.15 90.8 112.25 90.8 112.35 90.85 112.45 90.85 112.55 90.95 112.65 91 112.75 91.1 112.85 91.2 112.95 91.35 113.05 91.45 113.15 94.1 116.9 98.75 117.85 107.5 119.55 115.85 116.85 116.2 116.5 116.6 116.15 117 115.8 117.25 115.4 117.5 115.05 117.75 114.75 117.8 114.65 117.85 114.55 117.9 114.5 117.95 114.4 117.95 114.3 117.95 114.2 117.95 114.1 117.95 114 117.95 113.9 117.95 113.8 117.95 113.7 118 113.6 118.05 113.5 118.1 113.4 118.15 113.3 118.2 113.2 118.2 113.1 118.2 113 118.2 112.7 118.2 112.4 118.2 112.3 118.2 112.2 118.2 112.1 118.2 112 118.2 111.8 118.2 111.65 118.2 111.55 118.2 111.45 118.2 111.35 118.2 111.25 118.15 111.15 118.1 111.05 118.05 110.95 118 110.8 117.95 110.75 117.95 110.65 117.95 110.55 117.95 110.45 117.95 110.35 117.95 110.25 117.9 110.05 117.85 109.85 117.85 109.75 117.8 109.65 117.75 109.55 117.75 109.45 117.65 109.35 117.6 109.25 117.5 109.15 117.35 109.05 117.25 108.95 117.15 108.9 117.05 108.8 116.95 108.7 116.9 108.6 116.9 108.5 116.85 108.4 116.8 108.3 116.75 108.2 116.7 108.1 116.55 108 116.45 107.9 116.35 107.8 116.25 107.7 116.05 107.5 115.9 107.3 115.85 107.2 115.75 107.1 115.7 107 115.65 106.9 115.5 106.85 115.3 106.8 115.2 106.75 115.15 106.7
M 113.55 107.5
Q 113.65 107.55 113.75 107.65 113.85 107.85 114 108.05 114.2 108.4 114.5 108.65 114.65 108.7 114.7 108.8 114.8 109 114.95 109.2 115.15 109.55 115.45 109.8 115.6 109.9 115.7 110 115.75 110.1 115.8 110.2 115.85 110.3 115.9 110.4 115.95 110.5 115.95 110.6 115.95 110.7 115.95 110.8 115.95 110.95 115.95 111.15 115.95 111.25 115.95 111.35 115.95 111.45 115.95 111.55 116.1 111.75 116.2 111.95 116.25 112.05 116.25 112.15 116.25 112.25 116.25 112.35 116.25 112.45 116.2 112.5 116.05 112.8 116 113.15 115.95 113.45 115.95 113.7 115.95 113.8 115.9 113.9 115.75 114.1 115.55 114.3 112.05 118.4 106.05 117.2 104.75 116.55 103.25 116.95 101.05 117.5 98.05 116.25 94.6 114.75 92.75 111.65 93.05 109.85 94.5 108.6 98.45 105.15 103.65 104.7 108.7 104.25 112.9 106.95 112.9 107.05 113 107.15 113.05 107.25 113.15 107.35 113.35 107.45 113.55 107.5
M 176.5 108
Q 176.1 107.7 175.75 107.3 175.1 106.65 174.45 106.05 174.35 105.95 174.3 105.85 174.1 105.8 173.9 105.75 173.75 105.7 173.6 105.65 173.5 105.65 173.45 105.6 172.4 104.45 170.85 103.85 166.8 102.3 162.3 102.85 158 103.45 154.3 105.8 153 106.6 151.95 107.7 151.9 107.8 151.85 107.9 151.8 108 151.75 108.1 151.7 108.2 151.6 108.3 151.6 108.7 151.6 109.05 151.6 109.55 151.6 110.05 151.6 110.55 151.6 111.05 151.6 111.15 151.6 111.25 151.8 111.55 152.05 111.8 152.1 111.9 152.2 112 152.3 112.1 152.4 112.2 153.6 115.1 156.7 115.8 165.6 117.75 174.6 114.7 175.55 114 176.25 113.1 176.85 112.35 177.1 111.55 177.15 111.45 177.2 111.35 177.2 111.25 177.2 111.15 177.2 110.9 177.2 110.6 177.2 110.4 177.2 110.2 177.2 110.1 177.2 110 177.1 109.9 177.05 109.8 177 109.7 176.9 109.6 176.9 109.4 176.9 109.2 176.9 109.1 176.85 109.05 176.8 108.9 176.65 108.8 176.65 108.6 176.65 108.4 176.6 108.3 176.6 108.2 176.55 108.1 176.5 108
M 172.45 106.6
Q 172.55 106.95 172.85 107.15 173.9 107.9 174.6 108.9 174.65 108.95 174.65 109.05 174.7 109.15 174.7 109.25 174.7 109.35 174.7 109.45 175 109.7 175.05 110.05 175.1 110.45 175.15 110.85 175.05 111.05 175 111.25 174.9 111.45 174.9 111.65 174.65 111.9 174.5 112.15 173.75 113.25 172.7 114 165.2 116.35 157.5 115.05 157.4 114.95 157.25 114.9 156.5 114.35 155.85 113.8 154.75 112.85 154.35 111.55 154.2 111.35 154 111.15 153.8 110.85 153.6 110.6 153.6 110.1 153.55 109.6 153.55 109.1 153.7 108.6 154.8 107.4 156.15 106.55 159.488671875 104.370703125 163.4 103.65 163.737890625 103.597265625 164.05 103.55 164.46328125 103.589453125 164.85 103.6 165.51328125 103.708984375 166.15 103.8 169.3 104.25 171.6 106.3 171.85 106.4 172.05 106.45 172.25 106.5 172.45 106.6
M 180 73.65
Q 179.9 73.5 179.7 73.35 170.1 74.4 161 77.15 160.95 76.85 160.8 76.65 160.75 76.45 160.55 76.3 160.55 76.15 160.55 76 160.35 75.55 160.2 75.05 160.15 74.95 160.15 74.8 159.95 74.45 159.8 74.15 159.75 74 159.75 73.85 159.75 73.7 159.75 73.55 159.95 71.8 159.6 70.1 159.4 69.2 158.95 68.3 158.95 68 158.95 67.7 158.95 67.55 158.95 67.4 158.9 67.25 158.8 67.15 158.45 66.7 158.5 66.15 158.55 66 158.55 65.85 158.5 65.7 158.4 65.6 158.25 65.4 158.1 65.25 158.05 64.95 157.95 64.65 157.85 64.5 157.7 64.35 156.4 64.3 155.05 64.3 154.9 64.35 154.75 64.45 154.2 64.85 153.7 65.35 153.5 65.5 153.3 65.65 151.591015625 66.3580078125 149.9 67.1 144.6642578125 69.4412109375 139.6 72.2 139.05 72.25 138.55 72.2 138.5 72.2 138.45 72.1 138.15 71.1 137.25 70.55 137.05 70.4 136.9 70.25 136.85 70.1 136.8 69.95 136.75 69.8 136.7 69.65 136.3 69.35 135.9 69 135.75 68.9 135.6 68.75 134.9 67.55 134.35 66.3 134.1 65.6 133.55 65.05 133.55 64.9 133.5 64.75 132.95 63.45 132 62.3 131.55 61.75 131.4 61.05 131.1 60.95 130.8 60.8 130.75 60.8 130.65 60.75 130.55 60.65 130.5 60.55 130.35 60.4 130.25 60.25 129.15 60.2 128 60.15 125.5 61.8 123.3 64.2 118.5 69.45 114.6 75.1 114.1 74.7 113.5 74.35 107.35 70.65 101.7 66.05 101.15 65.9 100.6 65.7 100.4 65.65 100.25 65.55 99.2 65.5 98.1 65.55 98 65.55 97.9 65.65 97.95 66.2 97.65 66.6 97.55 66.75 97.5 66.9 97.5 67.2 97.5 67.5 97.25 71.65 97.2 75.8 97.1 81 97.1 86.25 91.85 85.9 86.8 84.25 83.539453125 83.2080078125 80.55 83.2 79.0927734375 83.204296875 77.7 83.45 77.15 83.4 76.65 83.4 76.65 83.55 76.65 83.7 76.4 83.75 76.2 83.8 76.4 84.2 76.55 84.65 76.35 87.4 76.35 90.2 76.35 96.75 76.35 103.3 74.4 103.7 72.45 104 67.4 104.75 64.3 107.05 64.75 108 65.35 108.8 65.05 109.65 64.8 110.55 64.35 111.95 64.85 113.25 64.95 115.65 65.25 118 65.6 120.15 65.65 122.35 65.25 122.4 64.85 122.45 62.6 123.1 60.25 123.85 60.15 123.9 60 123.95 59.95 124 59.95 124.1 59.25 124.15 58.6 124.25 59.2 124.25 59.85 124.3 59.8 124.3 59.75 124.35 59.65 124.45 59.6 124.55 59.6 124.65 59.6 124.75 59.6 124.85 59.6 124.95 59.6 125.05 59.6 125.15 59.6 125.2 59.6 125.25 59.55 125.25 59.45 125.3 59.4 125.3 59.4 125.45 59.4 125.6 59.4 125.75 59.4 126.25 59.4 126.7 59.4 126.85 59.4 127 59.9 127.35 59.85 127.9 59.8 128.05 59.8 128.25 60.05 128.55 60.3 128.85 60.45 129 60.55 129.15 60.6 129.3 60.6 129.45 60.6 130 60.9 130.4 60.85 131.95 60.75 133.45 60.65 135.65 61.3 137.65 61.303125 137.675 61.3 137.7 61.49921875 139.275 61.45 140.85 61.4 142 61.95 143.05 62 145.05 62.5 147 63.15 149.25 62.95 151.65 63 151.75 63.1 151.9 63.15 152 63.15 152.15 63.15 152.4 63.15 152.65 63.0279296875 153.504296875 63.3 154.25 64.4419921875 154.268359375 65.55 154.25 65.55 154.2306640625 65.55 154.2 65.45 153.95 65.35 153.7 65.05 152.75 65.15 151.75 65.15 151.6 65.15 151.5 65.1 151.35 65.05 151.25 65 151.1 64.9 151 64.95 149 64.5 147.15 63.95 144.8 63.9 142.4 63.3 140.9 63.3 139.2 63.3 139.1 63.3 138.95 63.7 139.9 64.3 140.8 64.3 141.15 64.35 141.45 64.35 141.6 64.4 141.75 65.85 142.8 66.75 144.35 67.3 145.35 67.6 146.35 70.405078125 150.8328125 74.25 154.25 75.8521484375 154.2830078125 77.4 154.25 73.073046875 150.4912109375 69.65 145.75 69.65 145.6 69.6 145.45 69.6 145.3 69.55 145.1 68.45 144.1 67.8 142.7 67.35 141.7 66.45 141.15 66.4 140.8 66.4 140.5 66.35 140.35 66.35 140.2 65.6498046875 138.990625 65.15 137.7 64.8681640625 136.96328125 64.65 136.2 64.05 134.25 63.1 132.55 63.1 132.2 63.1 131.9 63.1 131.15 63.1 130.4 63.1 130.2 63.1 130.05 63.05 129.9 63 129.75 62.95 129.55 62.85 129.4 62.85 129.25 62.85 129.1 62.75 129 62.7 128.85 62.65 128.75 62.6 128.65 62.6 128.4 62.6 128.15 62.6 127.3 62.6 126.4 62.6 126.3 62.6 126.15
L 62.6 126.05
Q 62.2 126 61.85 126 61.85 125.9 61.85 125.8 61.85 125.6 61.8 125.4 61.8 125.2 61.85 125 61.85 124.9 61.9 124.8 62.5 124.5 63.1 124.3 67.55 124.25 72.4 123.9 76.55 123.55 79.05 121.9 78 119.65 76.45 117.6 72.5 112.6 67.75 108.5 67.9 108 67.85 107.5
L 67.85 107.4
Q 67.35 107.3 66.85 107.3 66.8 107.2 66.7 107.1 66.55 107 66.45 106.85 73.9017578125 105.5900390625 80.55 103.45 83.1357421875 102.6521484375 85.6 101.7 85.6 101.55 85.6 101.4 85.6 100.95 85.6 100.5 85.55 100.3 85.5 100.15 83.65 97.3 82.4 94.1 81.446484375 91.547265625 80.55 88.95 79.9888671875 87.3666015625 79.45 85.75 79.2 85.45 78.95 85.1 78.85 84.95 78.75 84.8 78.7 84.5 78.6 84.2
L 78.6 84.15
Q 78.6 84.05 78.6 83.95 79.5765625 84.20703125 80.55 84.45 89.99375 86.7234375 99.15 86.95 99.15 86.65 99.15 86.35 99.15 82.2 99.1 78.05 99.05 72.35 99.85 67 100.6 67.5 101.35 68 103.5 69.5 105.7 70.9 106.2 71.55 106.85 72.05 110.05 74.2 113.25 76.2 115.05 76.05 116.85 75.9 118.1 73.65 119.65 71.6 123.65 66.3 128.5 61.75 128.95 61.7 129.35 61.75 129.4 61.75 129.45 61.85 129.5 62.05 129.55 62.15 130.1 63.35 130.95 64.35 131.2 64.65 131.4 64.95 131.45 65.1 131.45 65.25 131.5 65.4 131.5 65.55 132.45 66.65 132.9 68 133.15 68.65 133.45 69.25 134.15 69.8 134.7 70.55 134.75 70.65 134.75 70.8 135.75 71.55 136.35 72.65 136.4 72.8 136.4 72.95 136.75 73.05 137.1 73.15 137.2 73.2 137.25 73.25 137.3 73.35 137.35 73.45 137.5 73.6 137.65 73.75 138.85 73.8 140.1 73.8
L 140.1 73.75
Q 144.9904296875 70.9203125 149.9 68.6 152.9712890625 67.1814453125 156.05 65.95 156.55 66.3 156.5 66.9 156.5 67.05 156.5 67.2 156.6 67.35 156.7 67.5 156.8 67.65 156.9 67.8 156.9 68.25 156.9 68.75 156.9 68.9 156.9 69.05 157.05 69.35 157.1 69.65 157.25 70.6 157.55 71.5 157.6 71.65 157.7 71.8 157.7 72.25 157.7 72.75 157.7 73.5 157.7 74.25 157.7 74.4 157.7 74.55 157.9 75.05 158.05 75.5 158.1 75.65 158.1 75.8 158.2 75.95 158.3 76.1 158.6 77.05 159.05 77.95 159.15 78.1 159.25 78.25 168.85 76.45 178.2 74.55 178.8 74.85 178.65 75.5 178.6 75.65 178.6 75.8 179.3 78.6 179.15 81.65 179 84.55 179 87.45 186.05 87.75 193.15 88 194.15 88.55 195.3 88.75
L 195.3 88.8
Q 195.35 88.85 195.45 88.95 195.15 88.9 194.85 88.9 195.05 90.5 195.7 92.05 195.55 92.15 195.4 92.3 195.35 92.75 195.25 93.2 195.25 93.35 195.2 93.5 193.95 95.25 192.75 96.95 190.9 99.55 189.25 101.8 196.95 105 204.6 110 203.85 110.35 203.3 110.65 201.2 111.8 198.75 112.25 197.8 112.95 196.65 113.3 195.3 113.75 194.35 114.8 193.95 114.9 193.55 115 192.85 115.55 192.25 116.2 192.15 116.3 192.1 116.45 191.6 116.55 191.1 116.7 191.05 116.7 191 116.75 190.9 116.85 190.8 116.95 190.15 117.5 189.7 118.25 189.65 118.35 189.65 118.5 199.9 119.85 210.15 121.45 210.15 121.6 210.15 121.8 210.15 123.45 210.15 125.15 210.15 126.1 210.15 127 208.95 130 208.25 133.1 207.6892578125 135.455078125 206.85 137.7 206.240625 139.4587890625 205.45 141.15 205.3 142.95 204.35 144.5 203.7 145.65 203.5 146.95 202.55 148.15 201.85 149.45 201.6 149.9 201.35 150.35 200.456640625 151.044921875 199.7 151.9 201.1478515625 151.8396484375 202.55 151.75 204.26875 149.7822265625 205.55 147.5 205.6 147.35 205.6 147.15 205.9 145.85 206.55 144.65 206.9 144.05 207.25 143.5 207.25 143.35 207.25 143.2 207.2 142.7 207.35 142.25 207.35 142.1 207.35 141.95 208.557421875 139.9259765625 209.3 137.7 209.6181640625 136.791796875 209.85 135.85 210.3 133.95 210.85 132.05 211.25 134.65 211.1 137.3 211.0833984375 137.5 211.05 137.7 210.65 142.9 210.65 148.1 210.55 148.25 210.5 148.4 210.4 148.5 210.4 148.6 210.4 148.75 210.4 148.85 210.4 149.5 210.35 150.1 210.35 150.2 210.3 150.35 210.2 150.45 210.15 150.6 210.05 150.7 209.95 150.85 209.95 151.1408203125 209.95 151.4 211.00703125 151.3791015625 212.05 151.3 212.165234375 151.19140625 212.25 151.05 212.3 150.95 212.35 150.85 212.35 150.7 212.35 150.6 212.35 149.95 212.35 149.35 212.35 149.25 212.35 149.1 212.45 149 212.5 148.85 212.55 148.75 212.6 148.6 212.6 147 212.6 145.4 212.6 144.05 212.6 142.7 213.1341796875 140.258203125 213.15 137.7 213.1474609375 136.9056640625 213.1 136.1 212.75 129.8 212.35 123.55 212.35 123.45 212.35 123.4 212.25 123.4 212.2 123.4 212.2 122.1 212.2 120.75 209.35 120.35 206.55 119.95 206.55 118.05 206.55 116.15 206.55 113.5 206.55 110.9 206.9 110.55 207.25 110.2 204.7 107.1 200.75 105.4 199.85 105 198.95 104.65 198.95 103.2 199 101.75 199.05 100.6 198.65 99.6 198.65 97.9 198.75 96.25 198.8 95.1 198.4 94.05 198.5 93 198.2 92.05 198.4 91.7 198.55 91.35 198.6 91.2 198.65 91.05 198.65 90.75 198.65 90.45 198.65 89.85 198.65 89.2 198.6 89.05 198.55 88.9 198.2 88.8 197.85 88.7 197.85 88.65 197.8 88.65 197.7 88.5 197.55 88.35 197.45 88.25 197.35 88.1 196.4 87.8 195.5 87.45 195.25 87.35 195 87.25 188 87 181.05 86.75 181.05 84 181.05 81.25 181.05 78.6 181.05 76 181 75.85 180.9 75.75 180.6 75.3 180.65 74.75 180.65 74.6 180.65 74.45 180.65 74.3 180.55 74.25 180.25 74 180 73.65
M 196.65 94.95
Q 196.7 95.05 196.7 95.2 196.7 96.75 196.7 98.35 196.7 99.2 196.7 100.1 197.15 101.7 197 103.45 197 103.6 197 103.8 194.05 102.55 191.7 101.5 191.75 101.35 191.85 101.25 192.1 101.05 192.4 100.9 193.65 99.45 194.65 97.85 195.6 96.35 196.65 94.95
M 204.55 112.05
Q 204.55 113.3 204.55 114.5 204.55 117.1 204.55 119.65 198.45 118.75 192.65 117.8 193.4 117.55 194.1 117.2 194.15 117.15 194.15 117.05 194.35 116.4 195.05 116.1 195.25 116 195.4 115.85 195.8 115.75 196.2 115.6 196.3 115.6 196.4 115.55 196.85 115.05 197.3 114.65 197.45 114.55 197.55 114.4 198.65 113.9 199.8 113.55 199.9 113.55 200 113.5 200.15 113.4 200.3 113.25 200.45 113.1 200.6 112.95 201.4 112.8 202.15 112.7 203.45 112.5 204.55 112.05
M 79 90.85
Q 79.7375 92.84140625 80.55 94.75 81.9404296875 98.1123046875 83.55 101.3 82.05859375 101.7970703125 80.55 102.25 79.479296875 102.559375 78.4 102.85 78.25 99.95 78.25 97 78.2 93.05 78.35 89.1 78.7 89.95 79 90.85
M 66.6 111.8
Q 66.6 111.75 66.55 111.65 66.7 111.05 66.95 110.5 69.9 113.2 72.5 116.25 73.3 117.75 74.55 118.9 76.3 120.45 76.4 122 73.8 122.35 71.25 122.65 71.1 122.6 71 122.6 69.35 122.25 67.7 122.25 67.55 120.6 67.4 118.9 67.05 115.75 66.8 112.6 66.6 112.25 66.6 111.8 Z" stroke="none" fill="#000000"></path>

<path d="M 178.65 75.5
Q 178.8 74.85 178.2 74.55 168.85 76.45 159.25 78.25 159.15 78.1 159.05 77.95 158.6 77.05 158.3 76.1 158.2 75.95 158.1 75.8 158.1 75.65 158.05 75.5 157.9 75.05 157.7 74.55 157.7 74.4 157.7 74.25 157.7 73.5 157.7 72.75 157.7 72.25 157.7 71.8 157.6 71.65 157.55 71.5 157.25 70.6 157.1 69.65 157.05 69.35 156.9 69.05 156.9 68.9 156.9 68.75 156.9 68.25 156.9 67.8 156.8 67.65 156.7 67.5 156.6 67.35 156.5 67.2 156.5 67.05 156.5 66.9 156.55 66.3 156.05 65.95 152.9712890625 67.1814453125 149.9 68.6 144.9904296875 70.9203125 140.1 73.75
L 140.1 73.8
Q 138.85 73.8 137.65 73.75 137.5 73.6 137.35 73.45 137.3 73.35 137.25 73.25 137.2 73.2 137.1 73.15 136.75 73.05 136.4 72.95 136.4 72.8 136.35 72.65 135.75 71.55 134.75 70.8 134.75 70.65 134.7 70.55 134.15 69.8 133.45 69.25 133.15 68.65 132.9 68 132.45 66.65 131.5 65.55 131.5 65.4 131.45 65.25 131.45 65.1 131.4 64.95 131.2 64.65 130.95 64.35 130.1 63.35 129.55 62.15 129.5 62.05 129.45 61.85 129.4 61.75 129.35 61.75 128.95 61.7 128.5 61.75 123.65 66.3 119.65 71.6 118.1 73.65 116.85 75.9 115.05 76.05 113.25 76.2 110.05 74.2 106.85 72.05 106.2 71.55 105.7 70.9 103.5 69.5 101.35 68 100.6 67.5 99.85 67 99.05 72.35 99.1 78.05 99.15 82.2 99.15 86.35 99.15 86.65 99.15 86.95 89.99375 86.7234375 80.55 84.45 79.5765625 84.20703125 78.6 83.95 78.6 84.05 78.6 84.15
L 78.6 84.2
Q 78.7 84.5 78.75 84.8 78.85 84.95 78.95 85.1 79.2 85.45 79.45 85.75 79.9888671875 87.3666015625 80.55 88.95 81.446484375 91.547265625 82.4 94.1 83.65 97.3 85.5 100.15 85.55 100.3 85.6 100.5 85.6 100.95 85.6 101.4 85.6 101.55 85.6 101.7 83.1357421875 102.6521484375 80.55 103.45 73.9017578125 105.5900390625 66.45 106.85 66.55 107 66.7 107.1 66.8 107.2 66.85 107.3 67.35 107.3 67.85 107.4
L 67.85 107.5
Q 67.9 108 67.75 108.5 72.5 112.6 76.45 117.6 78 119.65 79.05 121.9 76.55 123.55 72.4 123.9 67.55 124.25 63.1 124.3 62.5 124.5 61.9 124.8 61.85 124.9 61.85 125 61.8 125.2 61.8 125.4 61.85 125.6 61.85 125.8 61.85 125.9 61.85 126 62.2 126 62.6 126.05
L 62.6 126.15
Q 62.6 126.3 62.6 126.4 62.6 127.3 62.6 128.15 62.6 128.4 62.6 128.65 62.65 128.75 62.7 128.85 62.75 129 62.85 129.1 62.85 129.25 62.85 129.4 62.95 129.55 63 129.75 63.05 129.9 63.1 130.05 63.1 130.2 63.1 130.4 63.1 131.15 63.1 131.9 63.1 132.2 63.1 132.55 64.05 134.25 64.65 136.2 64.8681640625 136.96328125 65.15 137.7 65.6498046875 138.990625 66.35 140.2 66.35 140.35 66.4 140.5 66.4 140.8 66.45 141.15 67.35 141.7 67.8 142.7 68.45 144.1 69.55 145.1 69.6 145.3 69.6 145.45 69.65 145.6 69.65 145.75 73.073046875 150.4912109375 77.4 154.25 78.9849609375 154.266796875 80.55 154.25 92.87265625 154.1572265625 105.5 153.8 113.5392578125 153.5712890625 121.6 153.45 113.8435546875 152.025390625 106.25 149.3 96.658984375 145.8208984375 91.2 137.7 90.8783203125 137.184375 90.55 136.65 89.15 134.45 87.7 132.25 87.7 132.15 87.7 132.05 87.65 131.9 87.65 131.7 87.65 131.6 87.65 131.5 87.65 131.4 87.65 131.3 87.6 131.2 87.55 131.1 87.45 130.9 87.4 130.7 87.4 130.6 87.4 130.5 87.35 130.4 87.3 130.3 87.25 130.2 87.15 130.1 87.15 130 87.15 129.9 87.15 129.7 87.15 129.5 87.15 129.4 87.15 129.3 87.15 129.2 87.15 129.15 87.2 129.05 87.25 129 88.5 129.05 89.7 129.05 90.25 129.65 91 130 92.5 130.7 93.9 131.7 94.05 131.75 94.2 131.75 95.45 131.85 96.35 132.6 96.45 132.7 96.55 132.8 96.75 132.85 96.9 132.9 97.25 133 97.55 133.05 97.65 133.15 97.75 133.25 97.9 133.45 98 133.65 98.1 133.75 98.15 133.85 98.2 133.9 98.3 133.95 98.75 134.05 99.2 134.1 102.41171875 136.1583984375 105.8 137.7 112.047265625 140.5033203125 118.95 141.6 134.398046875 144.0583984375 149.9 142.9 155.5212890625 142.4916015625 161.15 141.6 164 141.15 166.9 140.6 172.364453125 139.5123046875 177.55 137.7 182.370703125 136.0138671875 186.95 133.7 187.05 133.6 187.15 133.5 187.2 133.4 187.25 133.3 188.25 132.95 189.15 132.45 190.65 131.55 192 130.5 192.1 130.4 192.15 130.3 192.2 130.2 192.3 130.15 192.4 130.05 192.5 130
L 192.5 129.95
Q 193.5 130.05 194.45 130.25 194.5 130.25 194.5 130.35 194.5 130.45 194.45 130.55 194.4 130.95 194.1 131.2 193.8 131.45 193.5 131.75 193.45 131.85 193.45 131.95 193.4 132.05 193.35 132.15 193.35 132.25 193.3 132.35 193.2 132.45 193.1 132.5 192.6 132.8 192.25 133.2 191.9 133.65 191.45 134.1 191.45 134.2 191.4 134.3 191.35 134.4 191.3 134.5 191.25 134.6 191.2 134.7 189.6412109375 136.2587890625 188 137.7 182.51015625 142.50078125 176.05 146 167.4056640625 150.7404296875 157.9 153.15 178.8939453125 152.7701171875 199.7 151.9 200.456640625 151.044921875 201.35 150.35 201.6 149.9 201.85 149.45 202.55 148.15 203.5 146.95 203.7 145.65 204.35 144.5 205.3 142.95 205.45 141.15 206.240625 139.4587890625 206.85 137.7 207.6892578125 135.455078125 208.25 133.1 208.95 130 210.15 127 210.15 126.1 210.15 125.15 210.15 123.45 210.15 121.8 210.15 121.6 210.15 121.45 199.9 119.85 189.65 118.5 189.65 118.35 189.7 118.25 190.15 117.5 190.8 116.95 190.9 116.85 191 116.75 191.05 116.7 191.1 116.7 191.6 116.55 192.1 116.45 192.15 116.3 192.25 116.2 192.85 115.55 193.55 115 193.95 114.9 194.35 114.8 195.3 113.75 196.65 113.3 197.8 112.95 198.75 112.25 201.2 111.8 203.3 110.65 203.85 110.35 204.6 110 196.95 105 189.25 101.8 190.9 99.55 192.75 96.95 193.95 95.25 195.2 93.5 195.25 93.35 195.25 93.2 195.35 92.75 195.4 92.3 195.55 92.15 195.7 92.05 195.05 90.5 194.85 88.9 195.15 88.9 195.45 88.95 195.35 88.85 195.3 88.8
L 195.3 88.75
Q 194.15 88.55 193.15 88 186.05 87.75 179 87.45 179 84.55 179.15 81.65 179.3 78.6 178.6 75.8 178.6 75.65 178.65 75.5
M 175.75 107.3
Q 176.1 107.7 176.5 108 176.55 108.1 176.6 108.2 176.6 108.3 176.65 108.4 176.65 108.6 176.65 108.8 176.8 108.9 176.85 109.05 176.9 109.1 176.9 109.2 176.9 109.4 176.9 109.6 177 109.7 177.05 109.8 177.1 109.9 177.2 110 177.2 110.1 177.2 110.2 177.2 110.4 177.2 110.6 177.2 110.9 177.2 111.15 177.2 111.25 177.2 111.35 177.15 111.45 177.1 111.55 176.85 112.35 176.25 113.1 175.55 114 174.6 114.7 165.6 117.75 156.7 115.8 153.6 115.1 152.4 112.2 152.3 112.1 152.2 112 152.1 111.9 152.05 111.8 151.8 111.55 151.6 111.25 151.6 111.15 151.6 111.05 151.6 110.55 151.6 110.05 151.6 109.55 151.6 109.05 151.6 108.7 151.6 108.3 151.7 108.2 151.75 108.1 151.8 108 151.85 107.9 151.9 107.8 151.95 107.7 153 106.6 154.3 105.8 158 103.45 162.3 102.85 166.8 102.3 170.85 103.85 172.4 104.45 173.45 105.6 173.5 105.65 173.6 105.65 173.75 105.7 173.9 105.75 174.1 105.8 174.3 105.85 174.35 105.95 174.45 106.05 175.1 106.65 175.75 107.3
M 115 106.6
Q 115.05 106.65 115.15 106.7 115.2 106.75 115.3 106.8 115.5 106.85 115.65 106.9 115.7 107 115.75 107.1 115.85 107.2 115.9 107.3 116.05 107.5 116.25 107.7 116.35 107.8 116.45 107.9 116.55 108 116.7 108.1 116.75 108.2 116.8 108.3 116.85 108.4 116.9 108.5 116.9 108.6 116.95 108.7 117.05 108.8 117.15 108.9 117.25 108.95 117.35 109.05 117.5 109.15 117.6 109.25 117.65 109.35 117.75 109.45 117.75 109.55 117.8 109.65 117.85 109.75 117.85 109.85 117.9 110.05 117.95 110.25 117.95 110.35 117.95 110.45 117.95 110.55 117.95 110.65 117.95 110.75 118 110.8 118.05 110.95 118.1 111.05 118.15 111.15 118.2 111.25 118.2 111.35 118.2 111.45 118.2 111.55 118.2 111.65 118.2 111.8 118.2 112 118.2 112.1 118.2 112.2 118.2 112.3 118.2 112.4 118.2 112.7 118.2 113 118.2 113.1 118.2 113.2 118.15 113.3 118.1 113.4 118.05 113.5 118 113.6 117.95 113.7 117.95 113.8 117.95 113.9 117.95 114 117.95 114.1 117.95 114.2 117.95 114.3 117.95 114.4 117.9 114.5 117.85 114.55 117.8 114.65 117.75 114.75 117.5 115.05 117.25 115.4 117 115.8 116.6 116.15 116.2 116.5 115.85 116.85 107.5 119.55 98.75 117.85 94.1 116.9 91.45 113.15 91.35 113.05 91.2 112.95 91.1 112.85 91 112.75 90.95 112.65 90.85 112.55 90.85 112.45 90.8 112.35 90.8 112.25 90.8 112.15 90.8 111.95 90.8 111.75 90.8 111.65 90.8 111.55 90.8 111.45 90.8 111.35 90.8 111.05 90.8 110.8 90.8 110.7 90.8 110.6 91.4 108.9 92.75 107.8 97.55 103.95 103.65 103.7 108.05 103.5 112.15 104.95 113.45 105.45 114.65 106.2 114.75 106.3 114.85 106.4 114.9 106.5 115 106.6 Z" stroke="none" fill="#FDDF5E"></path>
</g>
</g>
</g>
</g>
</svg>
