
<svg viewBox="0 0 112 184" height="184px" width="112px" y="0px" x="0px" preserveAspectRatio="none" xmlns:xlink="http://www.w3.org/1999/xlink" version="1.1" xmlns="http://www.w3.org/2000/svg">
<defs></defs>

<g id="fun_scrollers">
<g transform="matrix( 0.3621063232421875, 0, 0, 0.3621063232421875, -594.2,0.1)" id="svg">
<g transform="matrix( 1, 0, 0, 1, 1678.15,23.65)" id="Layer_2">
<g transform="matrix( 0.9998779296875, 0.013092041015625, -0.013092041015625, 0.9998779296875, 24.3,-2.65)" id="Layer_1">
<g transform="matrix( 0.9619598388671875, -0.01678466796875, 0.01678466796875, 0.9619598388671875, -399.45,-223.15)">
<g>
<g>
<path d="M 464.9 344.1
Q 460.35 344 458.55 344.15 455.35 344.45 452.45 345.7
L 449.85 347.25
Q 441.4 351.75 437.55 354.2 431.05 358.45 426.85 363.25 423.3 368.65 421.7 373.9 420.1 379.05 420 385.5
L 419.95 422.55
Q 419.85 441.1 419.5 453.4 418.75 480.7 417.95 535.4
L 417.7 553.85
Q 416.8 614.55 416.65 644.85
L 416.6 665.95
Q 416.55 670.75 416.85 676.25 418.9 684.65 424.85 690.25 431.65 693.35 437.55 693.9 443.45 694.4 472 694.45
L 543.15 694.5
Q 549.6 694.15 552.05 693.75 557.1 692.85 560.15 690.5
L 568.8 680.2
Q 571.35 676.5 572.3 672.05 573.05 668.6 573.1 663.05
L 573.15 629.3
Q 573.25 593.7 573.65 571.15 574.25 539.3 575.7 513
L 575.85 510.5
Q 576.65 495.25 577.15 487.95
L 577.85 478.25
Q 578.85 471.55 579.05 469.4
L 580.6 439.25
Q 581.9 414.85 581.95 402.65
L 582 399.75
Q 582 387.15 579.2 376.5 574.7 361.1 564.15 352.95 557.85 348.35 552.35 346.5 546.75 344.55 539 344.45
L 490.85 344.3
Q 479.7 344.3 474.15 344.2
L 464.9 344.1 Z" stroke="none" fill="#F5F7F9"></path>
</g>
</g>
</g>

<g transform="matrix( 0.9621124267578125, 0, 0, 0.9621124267578125, 3.4,8.55)">
<g>
<g>
<path d="M 138.9 39.5
L 138.95 30.5
Q 139 24 137.8 19.75 136.45 16.65 134.5 14.35 132.7 12.3 129.7 10.15
L 126.4 8.2
Q 119.4 4 112.55 2.05 105.75 0.1 97.5 0
L 93.6 0.05
Q 67.45 -0.05 43.8 2.7
L 40.25 3.15
Q 32.35 4.1 27.75 5 20.85 6.25 15.55 8.2 14.7 9.95 14.6 11.1 14.45 12.25 14.55 17.4
L 14.6 20.2
Q 14.6 22.25 14.6 26.35 14.75 29.9 15.95 32.2 18.95 33.65 19.85 33.95 20.75 34.2 22.9 34.45
L 47 34.65
Q 45.8 38.35 45.25 42.55 44.8 45.65 44.6 50.55 44.2 59.35 43.9 62.45 43.2 69.05 41.6 74.1 39.6 79.95 39.25 86.65 39.3 87.9 39.2 89.05 39.15 90.05 39.1 90.95
L 39.2 98.35
Q 39.7 98.15 40.15 98 43.85 96.7 47.45 96.25
L 58.15 96.35
Q 63.3 96.4 73.6 96.3 83.1 96.15 92.6 96.15
L 131 95.8
Q 133.75 95.7 134.6 95.75 135.5 95.8 138.05 96.1 138.7 96.35 139.4 96.65
L 145.85 96.55 145.8 91.85
Q 145.4 91.45 144.95 90.95
L 144.2 86.4
Q 143.8 80.95 142.7 76.25 139.05 60.45 138.9 39.5 Z" stroke="none" fill="#7E1A34"></path>
</g>
</g>
</g>

<g transform="matrix( 0.9621124267578125, 0, 0, 0.9621124267578125, 3.4,8.55)">
<g>
<g>
<path d="M 175.6 142.35
Q 174.2 125.2 168.35 112.2 164.9 105.75 161.7 101.85 157.5 96.75 152.35 94.1 147.5 91.75 144.95 89.6 144.2 87.7 144.05 87.05 143.9 86.4 143.75 84.3
L 143.75 79.65 142.75 79.65
Q 143.65 84.45 143.75 86.7 143.95 90.4 143 93.65 138.4455078125 94.9513671875 136.45 95.2
L 136.45 95.75
Q 138.8783203125 96.07734375 141.35 97.15
L 144.1 98.65
Q 153.15 103.7 158.65 110.65 164 118.3 166.55 127.55 168.8 135.75 169.05 146.05
L 169.1 148.7
Q 169.3 161.5 168.55 184.25
L 167.5 215.45
Q 167.35 220.25 166.8 224.25 166.35 227.3 166.1 230.25
L 164.9 259.5
Q 163.9 286.55 163.8 319 163.75 342.7 164.25 378.45
L 164.65 409.4
Q 164.8 418.3 164.4 422.7 162.7 426.75 161.85 427.95 161.05 429.2 157.95 432.45
L 153 437.55 151.1 441.55
Q 146.05 442.5 136.4 442.95
L 68.3 444.15
Q 53.45 444.65 45.95 444.65 32.95 444.7 23.75 442.9 20.55 442 18.85 440.75 17.15 439.65 15 436.95 12.55 432.45 11.45 428.95 10.3 425.05 10.2 420.3
L 9.85 380.45
Q 9.9 372 9.8 367.8
L 9.55 291.8
Q 9.35 232.55 9.55 209.85 9.8 191.65 9.65 178.55
L 9.35 140.5
Q 9.25 134.15 9.4 131.55 9.65 126.75 10.95 122.8
L 12.5 119.95
Q 20.9 109.8 24.3 107.05 27.7 104.3 39.7 98.15
L 43.1 96.4
Q 41.8 96.05 40.05 95.45
L 39.7 93.2
Q 39.7 93.1 39.9 85.45
L 38.9 85.45 38.95 90.45 36.95 90.5
Q 27.55 94.9 22.1 98.35 14.3 103.25 9.4 109.15 5.35 115.15 3.6 122.8 2.15 129.15 2.15 137.65
L 2.5 188.55
Q 2.7 200.35 2.8 223.7
L 2.95 242.7
Q 3.05 259.95 3.05 262.9 3.05 274.35 2.75 283.1 2.35 293.3 2.7 306.6 3.25 331.45 3.1 350.5 2.9 381.45 3.15 400.5
L 3.45 420.7
Q 3.55 429.85 4.85 435.05 7.55 442.1 13.95 447.3 17.7 449.15 22.2 450.05 25.75 450.75 30.8 451
L 99.7 451.2
Q 117.1 451.3 124 451.05 137.65 450.55 148.2 448.6 154.65 446.85 159.2 443.45 163.15 440.6 167.8 434.9 171.75 427.95 172.3 422.65 172.85 417.25 172.25 392.25
L 171.75 372.8
Q 170.95 336.8 171 311.25 171.1 277.95 172.55 249.75 173.7 228.55 174.65 199.9
L 175.65 173.55
Q 176.45 152.8 175.6 142.35 Z" stroke="none" fill="#706C84"></path>
</g>
</g>
</g>

<g transform="matrix( 0.9619598388671875, -0.01678466796875, 0.01678466796875, 0.9619598388671875, -399.45,-223.15)">
<g>
<g>
<path d="M 442.9 366.8
Q 442.1 367.1 441.35 367.45 440.6 367.85 439.85 368.25 439.5 369.65 439.2 371.1 438.65 373.95 438.25 376.8 438.05 378.2 438 379.65 437.9 381.15 437.95 382.65 437.95 384.1 438.05 385.6 438.15 387.1 438.35 388.65 438.5 390.15 438.8 391.6 438.9 392.05 439.1 392.45 439.2 392.7 439.35 393.05 439.45 393.2 439.55 393.4 439.6 393.45 439.65 393.5 439.75 393.6 439.9 393.7 440.05 393.8 440.2 393.9 440.45 394.05 440.7 394.2 440.95 394.35 441.3 394.4 442.05 394.8 442.9 395.05
L 479 395.05
Q 484.6 394.9 490.25 394.8 493 394.75 495.75 394.8 498.45 394.85 501.15 394.85 504.1 394.85 507.2 395.15 508.95 395.15 510.7 395.2 511.45 395.2 512.25 395.25 512.9 395.25 513.6 395.25 514.75 395.2 515.9 395.2 517.55 395.2 519.2 395.2 520.7 395.15 522.2 395.1 523.6 395.05 525.05 395.05 526.35 395 527.65 394.95 528.85 394.95 530.05 394.95 531.15 394.9 532.25 394.85 533.25 394.8 534.25 394.8 535.1 394.7 535.95 394.65 541.45 394.45 547 394.25 548.3 394.2 549.65 394.2 550.9 394.15 552.2 394.15 553.4 394.15 554.6 394.15 555.7 394.15 556.85 394.25 557.35 394.25 557.85 394.35
L 557.85 398.25
Q 557.3 398.3 556.8 398.4 556.35 398.45 555.9 398.5 555.55 398.55 555.2 398.65 554.9 398.7 554.65 398.9 554.35 398.9 554.15 399.1
L 554.15 403.4 563.85 403.4 564.1 378.7 563.85 371.25
Q 562.85 370.25 561.75 369.4 561.1 369 560.4 368.75 559.55 368.5 558.75 368.3 557.85 368.1 557 367.95 556.05 367.75 555.15 367.6 554.2 367.45 553.3 367.4 552.25 367.25 551.25 367.15 550.2 367.05 549.15 367 548 366.95 546.9 366.9
L 453.4 366.05
Q 452.65 366.05 451.95 366.05 451.3 366.05 450.65 366.05 450.1 366.05 449.55 366.05 449.05 366.05 448.55 366.05 448.15 366.05 447.8 366.05 447.45 366.05 447.15 366.05 446.9 366.05 446.7 366.05 446.5 366.05 446.35 366.05 445.45 366.2 444.6 366.35 443.75 366.55 442.9 366.8 Z" stroke="none" fill="#110F1A"></path>
</g>
</g>
</g>

<g transform="matrix( 0.9619598388671875, -0.01678466796875, 0.01678466796875, 0.9619598388671875, -154.35,-10.4)">
<g>
<g>
<path d="M 295.35 74.45
L 295.2 68
Q 295.15 65.3 295.05 64.4 294.8 62.7 294 61 290.25 59.1 285.75 58.75
L 225.65 58.65
Q 222.9 58.65 222.05 58.7 221.2 58.75 219 59
L 216 62
Q 213.95 70.1 213.05 83.45 212.35 94.15 210.45 100.7 209.35 104.2 209.05 106 208.75 107.75 208 115
L 288.6 115.25
Q 293.5 115.25 297 115
L 299 113
Q 299.3 109 298.35 103.15 295.8 89.2 295.35 74.45 Z" stroke="none" fill="#E21F2D"></path>
</g>
</g>
</g>

<g transform="matrix( 0.9621124267578125, 0, 0, 0.9621124267578125, 3.4,8.55)">
<g>
<g>
<path d="M 149.85 241.9
Q 149.75 241.1 149.3 238.7
L 148.5 235.6
Q 147.55 228.75 145.3 224.65
L 143 224.15 133.6 224.5
Q 124.05 224.75 116.9 225.4 104.95 226.55 88.55 226.85
L 79.65 227.05
Q 78.25 227.05 55.3 227.15 37.4 227.2 37.2 227.6 35.05 239.65 38.7 247.45 42.7 249.6 44.75 249.85 46.8 250.1 55.2 249.5 57.15 249.3 61.15 249.1 69.8 248.8 76.7 248.35 82 248 92.8 247.5 108 246.9 111.05 246.7
L 119.35 246.2
Q 123.45 245.95 127.65 245.9
L 128.7 247.9
Q 140.25 249.3 148.7 247.55
L 150 245.05
Q 149.9 242.7 149.85 241.9 Z" stroke="none" fill="#9DAEEA"></path>
</g>
</g>
</g>

<g transform="matrix( 0.9619598388671875, -0.01678466796875, 0.01678466796875, 0.9619598388671875, -154.4,-11.7)">
<g>
<g>
<path d="M 296.05 436.5
L 299.65 436.4
Q 304.65 436.35 311 436
L 312 435
Q 312.95 430.25 313.05 427 313.15 422.85 312 419 308.55 417.45 306.75 417.25 304.9 417.1 297.4 417.45
L 280.75 417.85
Q 270.85 418.15 255.4 417.5 247.1 417.2 238.95 417.05 232.1 417 225.1 416.75 215.7 416.35 211 416.3
L 205.75 416.25
Q 199.05 415.85 197.15 415.95 192.5 416.15 189 418 187.5 421.1 187.15 422.2 186.8 423.35 186.25 427 186.65 430.7 186.95 431.85 187.3 432.95 189 436 192.85 437.9 195.7 438.15 198.5 438.4 211.55 437.95
L 219.7 437.75
Q 230.4 437.75 241.05 437.45 253.3 437.1 263.15 437.05 285.05 436.75 296.05 436.5 Z" stroke="none" fill="#9DAEEA"></path>
</g>
</g>
</g>

<g transform="matrix( 0.9619598388671875, -0.01678466796875, 0.01678466796875, 0.9619598388671875, -399.45,-223.15)">
<g>
<g>
<path d="M 561.85 404.25
L 563.85 404.25 564.05 402.15 564 398.25 557.85 398.25
Q 555 398.45 554.15 398.45 553.35 398.45 551.2 398.3
L 542.2 397.65
Q 534.2 397.15 527.2 397.1
L 524.35 397.05
Q 510.05 396.9 495.7 396.9
L 446.45 396.6
Q 441.95 396.45 437.85 397.25 437.25 399.45 437.25 400.2 437.25 400.95 437.85 403.25
L 441.75 404.9 446.85 406.25
Q 453.75 409.45 457.85 410.85 464 413.05 469.4 413.5 477.3 413.95 485.85 416.85 494.8 420.1 499.5 419.9 504.15 419.75 523.25 415.5
L 537.45 412.35
Q 547.4 410.15 556.2 409.8 558.7 409.8 559.4 409.75 560.1 409.65 561.85 409.25
L 561.85 404.25 Z" stroke="none" fill="#992A3F"></path>
</g>
</g>
</g>

<g transform="matrix( 0.9619598388671875, -0.01678466796875, 0.01678466796875, 0.9619598388671875, -399.45,-223.15)">
<g>
<g>
<path d="M 434.85 262.6
Q 433 269.25 435.85 275.6
L 469.85 276.6 470.85 279.6 544.85 278.6
Q 544.7 277.75 544.55 276.95 543.65 271.8 536.65 265.9 529.85 260.95 529.85 260.6 482.05 248.45 434.85 262.6 Z" stroke="none" fill="#DF202E"></path>
</g>
</g>
</g>

<g transform="matrix( 0.9619598388671875, -0.01678466796875, 0.01678466796875, 0.9619598388671875, -154.4,-11.7)">
<g>
<g>
<path d="M 304.7 197.05
Q 303.25 194.85 301 193 297.15 191.85 291.75 191.85
L 288.3 191.95
Q 280.25 192.15 276.35 193.1 270.45 194.55 265.85 198.7
L 264 201
Q 261.7 203.8 260.8 205.8 259.85 207.9 259.5 211.35
L 259.55 216.1
Q 259.55 219.65 259.6 220.75 259.65 221.85 260 225 261 227.4 261.65 228.4 262.35 229.35 265.55 232.8 268.2 234.5 270.7 235.1 272.75 235.6 276.3 235.6
L 279.05 235.5
Q 287.95 235.35 291.25 235 298.25 234.25 303 232
L 304 228
Q 306.25 224.95 306.95 222.5 307.45 220.55 307.55 216.3
L 307.55 213.35
Q 307.8 206.75 307 202 305.95 198.95 304.7 197.05 Z" stroke="none" fill="#F1F3F7"></path>
</g>
</g>
</g>

<g transform="matrix( 0.9619598388671875, -0.01678466796875, 0.01678466796875, 0.9619598388671875, -154.4,-11.7)">
<g>
<g>
<path d="M 304.7 197.05
Q 303.25 194.85 301 193 297.15 191.85 291.75 191.85
L 288.3 191.95
Q 280.25 192.15 276.35 193.1 270.45 194.55 265.85 198.7
L 264 201
Q 261.7 203.8 260.8 205.8 259.85 207.9 259.5 211.35
L 259.55 216.1
Q 259.55 219.65 259.6 220.75 259.65 221.85 260 225 261 227.4 261.65 228.4 262.35 229.35 265.55 232.8 268.2 234.5 270.7 235.1 272.75 235.6 276.3 235.6
L 279.05 235.5
Q 287.95 235.35 291.25 235 298.25 234.25 303 232
L 304 228
Q 306.25 224.95 306.95 222.5 307.45 220.55 307.55 216.3
L 307.55 213.35
Q 307.8 206.75 307 202 305.95 198.95 304.7 197.05
M 284.7 198.8
L 288.75 198.85
Q 292.35 198.85 296 199 297.05 200.05 297.5 200.7 297.95 201.3 299.55 204 301.5 207.5 302 210.8 302.4 213.5 302 218
L 301 219
Q 299.9 221.65 299.4 222.55 298.9 223.4 297 226 291.85 228.6 285.75 229.25 280.55 229.8 274 229 270.7 227.85 269.85 227.2 268.95 226.6 267 224 265 219.3 265 214 267.35 209.05 268.45 207.6 269.6 206.2 273.85 202.55 276.55 200.6 278.95 199.8 281.3 199 284.7 198.8 Z" stroke="none" fill="#5D5A76"></path>
</g>
</g>
</g>

<g transform="matrix( 0.9619598388671875, -0.01678466796875, 0.01678466796875, 0.9619598388671875, -154.4,-11.7)">
<g>
<g>
<path d="M 190 143
L 189 144 188.85 150.1
Q 188.85 154.05 189 156
L 190 156 192 143 190 143 Z" stroke="none" fill="#110F1A"></path>
</g>
</g>
</g>
</g>
</g>

<g transform="matrix( 1, 0, 0, 1, 1678.15,23.65)" id="Layer_5">
<g>
<g>
<g>
<path d="M 179.15 435.6
L 179.15 442.8
Q 179.15 444.75 179.55 445.65 179.7 446 180.2 446.8 180.65 447.45 180.8 447.9 180.95 448.35 181.2 449.25
L 181.9 450.3
Q 182.1 450.75 182.4 451.65
L 183.1 452.5
Q 183.3 452.85 183.65 453.75
L 184.15 455.35 187.7 455.4
Q 187.65 457.8298828125 187.65 460.25
L 196 460.35
Q 196.6 460.35 196.8 460.15 197.1 459.9 197.1 459.2
L 197.15 453.25
Q 197.15 450.5 196.5 449.3
L 191.2 449.25
Q 191.10625 448.19921875 190.9 447.4 190.8 446.95 190.4 446.05 190.25 445.65 190 445.4 189.6 445.05 189.45 444.8 189.3 444.6 189.25 444.2 189.15 443.75 189.05 443.55 188.9 443.3 188.45 442.7
L 187.85 441.2
Q 186.95 439.4 186.6 438.5 185.85 436.8 186.1 435.65
L 179.15 435.6
M 23.75 441.45
Q 23.8 443.5 23.5 444.7 23.4 445.4 23.05 446.35
L 22.45 448
Q 22.1857421875 448.86640625 22 449.95
L 20 449.95
Q 19.55 450.95 19.55 453.2 19.45 458.75 19.8 461.5 19.9 462.35 20.15 462.65 20.5 463 21 463.15 21.8 463.45 22.95 463.55 24.75 463.75 29.65 463.75
L 29.65 454.6
Q 30.0505859375 453.9609375 30.2 453.55 30.65 452.5 30.65 450.65 30.7 448.6 30.7 438.3
L 23.7 438.2
Q 23.65 438.85 23.75 441.45
M 166.35 452.25
Q 165.5 449.8 165.35 446.5 165.25 444.5 165.4 440.6
L 158.3 440.5 158.4 451.15
Q 158.4 453 158.55 454.8
L 158.75 456.7
Q 159.15 458.95 159.9 461.45
L 161.2 466.2
Q 162.25 470.15 163.25 472.35 164 474 164.9 475.25 165.35 475.9 165.85 476.15 166.3 476.4 167.05 476.3
L 172.9 476.3 172.9 470.85
Q 172.9 469.95 172.8 469.55 172.6 469 171.9 468.1 170.4 466.15 169.45 463.65 168.8 462.1 168.5 460.35
L 167.9 457.4
Q 167.55 455.65 167.15 454.5
L 166.35 452.25
M 58.7 440.6
L 51.7 440.5 51.7 454.6
Q 51.7 456.3 51.45 457.05 51.2 457.9 50.5 458.95
L 48.6 461.95
Q 46.3 461.85 45.45 462.65 45.35 462.75 44.35 464.15 43.5 465.3 41 466.8 40.2 467.3 40 467.75 39.8 468.1 39.8 468.9
L 39.85 474.6 40.8 474.8 40.8 477.65
Q 45.7 477.75 48.1 477.7 48.25 476.5 49.25 475.3 49.75 474.7 51.3 473.3 53.6 471.25 55.4 469
L 57.05 466.75
Q 58.15 465.2 58.45 463.95 58.7 463 58.7 461
L 58.7 440.6 Z" stroke="none" fill="#000000"></path>
</g>
</g>
</g>
</g>

<g transform="matrix( 1, 0, 0, 1, 1678.15,23.65)" id="Layer_4">
<g>
<g>
<g>
<path d="M 152.1 215.15
Q 137.85 214.1 123.6 214 111.2 213.9 98.75 213.75 85.6 213 72.95 216.05 58.5 219.5 45 225.5 34.75 230 31.25 248.05 31.45 254.1 31.2 260.15 30.6 273.85 33.2 287.35 35.95 301.65 36.95 316.4 37.8 329.05 39.6 341.65 41.25 353.45 43.3 365.05 45.6 377.95 49.15 390.25 52.55 402.2 56.8 413.85 61.9 427.9 69.45 441.05 75.9 452.2 89.05 452.3 95.15 452.35 101.2 452.95 117.7 454.2 127.7 442.3 135.85 432.7 144.2 423.2 152.8 413.45 159.05 402.05 165.8 389.65 169.1 375.95 172.65 361.15 175.05 346 177.1 333.15 179.1 320.45 181.1 308.05 182.2 295.65 183.4 282.05 184.15 268.6 184.95 254.8 185.25 241.15 185.55 229.05 175.5 222.4 165 215.4 152.1 215.15
M 126.2 238
Q 130.99765625 235.471875 133.35 237.35 139.6650390625 239.3693359375 140.75 242.35 141.888671875 245.3853515625 143.15 246.5 144.4537109375 247.6046875 148.3 247.2 152.55 246.8 154.3 247.2 155.8 249.35 156.25 252.6 156.55 254.75 156.45 258.6
L 155.65 299.2
Q 155.45 308.2 155.25 312.05 154.8494140625 319.205078125 155.4 322.3 156.000390625 325.4359375 155.45 332 154.9017578125 338.610546875 153.4 342.75 151.9455078125 346.901953125 153.05 363.35 154.1517578125 379.797265625 152.7 387.75 152 391.65 150.3 394.45 148.3 397.75 145.2 398.7 145.05 398.75 141.15 399.4 138.75 399.8 137.65 401 137 401.7 136.6 402.95 136.5 403.3 136.05 405.2 135.05 409.2 132.25 413.6 130.5 416.35 126.65 421.05 124 424.3 122.15 425.15 120.6 425.85 117.2 425.95 114.55 426.05 113.1 425.85 110.9 425.6 109.45 424.55 108.65 423.95 107.55 422.7 106.2 421.2 105.75 420.75 103.4 418.7 99.4 418.4 97.05 418.25 92.15 418.75 87.8 419.25 84.95 418.75 81 418.1 79.05 415.6 77.75 413.95 76.65 409.55 75.65 405.3 74.1 403.65 73.15 402.65 71.2 401.55 68.7 400.2 68.05 399.7 65.25 397.6 63.75 393.4 62.75 390.65 62 385.6
L 58.45 361.85
Q 56.15 346.9 55.45 338.2 54.65 327.9 54.95 305.35 55.3 283.9 54.15 272.45 53.65 267.2 53.6 265.9 53.5 262.15 54.1 259.4 54.9 256 57 253.5 59.3 250.75 62.35 250.1 63.3 249.9 66.3 249.85 68.8 249.8 70.15 249.2 72.5 248.2 74.4 244.75 77.45 239.1 77.55 238.95 80.55 234.85 86.9 233.45 91.2 232.5 98.55 232.7 101 232.8 102.4 233.2 104.45 233.75 105.4 235.15 106.1 236.15 106.5 238.3 106.9 240.7 107.4 241.6 108.3 243.15 110.25 243.85 112 244.5 114 244.25 115.4951171875 244.0458984375 117.1 243.45 118.7646484375 242.912109375 120.75 241.65 122.78046875 240.3837890625 126.2 238
M 154.9 172.9
Q 154.9 171.95 154.75 171.55 154.5 171 153.8 170.55 152.9 170.05 152.5 169.8 151.95 169.45 150.35 168.05 149.1 166.95 148.1 166.65 147.45 166.45 146.05 166.45
L 135.3 166.4
Q 131 166.55 127.15 167.65
L 127.15 174.4
Q 133.35 174.7 136.4 174.1 138.95 173.6 139.35 173.55 141.1 173.45 142.3 174.05 143.15 174.55 144.55 176 144.95 176.35 145.9 176.9 146.8 177.45 147.2 177.8 147.7 178.3 147.85 178.35 148.15 178.5 148.8 178.5
L 154.9 178.5 154.9 172.9
M 58.5 182.95
Q 57.7 184.05 57.2 185.15 56.65 186.55 56.4 186.85 56.2 187.15 55.5 187.95 54.9 188.6 54.7 189.1 54.45 189.7 54.45 191
L 54.45 197.95 61.4 198.05
Q 61.1 197 61.9 195.75 62.85 194.5 63.3 193.8 63.45 193.55 64.5 191.45 64.95 190.5 65.8 189.3 66.5 188.05 67.2 187.3 68.15 186.2 70.55 184.5
L 72.95 182.85
Q 73.75 182.25 74.3 182.15 75.15 181.95 76.25 182.4 77.05 182.7 79.1 183.75 80.85 184.65 81.95 185 83.4 185.4 85.9 185.35 89.1 185.35 89.9 185.4
L 89.9 179.7
Q 90 179.1 89.75 178.65 89.55 178.35 88.85 178.05
L 83.55 175.65
Q 82.55 175.15 81.7 174.95
L 71.1 174.8
Q 68.15 174.8 66.85 175.4 66.05 175.8 65.4 176.3
L 63.5 177.65
Q 61.55 179.05 60.95 179.7 60 180.65 58.5 182.95 Z" stroke="none" fill="#000000"></path>

<path d="M 133.35 237.35
Q 130.99765625 235.471875 126.2 238 122.78046875 240.3837890625 120.75 241.65 118.7646484375 242.912109375 117.1 243.45 115.4951171875 244.0458984375 114 244.25 112 244.5 110.25 243.85 108.3 243.15 107.4 241.6 106.9 240.7 106.5 238.3 106.1 236.15 105.4 235.15 104.45 233.75 102.4 233.2 101 232.8 98.55 232.7 91.2 232.5 86.9 233.45 80.55 234.85 77.55 238.95 77.45 239.1 74.4 244.75 72.5 248.2 70.15 249.2 68.8 249.8 66.3 249.85 63.3 249.9 62.35 250.1 59.3 250.75 57 253.5 54.9 256 54.1 259.4 53.5 262.15 53.6 265.9 53.65 267.2 54.15 272.45 55.3 283.9 54.95 305.35 54.65 327.9 55.45 338.2 56.15 346.9 58.45 361.85
L 62 385.6
Q 62.75 390.65 63.75 393.4 65.25 397.6 68.05 399.7 68.7 400.2 71.2 401.55 73.15 402.65 74.1 403.65 75.65 405.3 76.65 409.55 77.75 413.95 79.05 415.6 81 418.1 84.95 418.75 87.8 419.25 92.15 418.75 97.05 418.25 99.4 418.4 103.4 418.7 105.75 420.75 106.2 421.2 107.55 422.7 108.65 423.95 109.45 424.55 110.9 425.6 113.1 425.85 114.55 426.05 117.2 425.95 120.6 425.85 122.15 425.15 124 424.3 126.65 421.05 130.5 416.35 132.25 413.6 135.05 409.2 136.05 405.2 136.5 403.3 136.6 402.95 137 401.7 137.65 401 138.75 399.8 141.15 399.4 145.05 398.75 145.2 398.7 148.3 397.75 150.3 394.45 152 391.65 152.7 387.75 154.1517578125 379.797265625 153.05 363.35 151.9455078125 346.901953125 153.4 342.75 154.9017578125 338.610546875 155.45 332 156.000390625 325.4359375 155.4 322.3 154.8494140625 319.205078125 155.25 312.05 155.45 308.2 155.65 299.2
L 156.45 258.6
Q 156.55 254.75 156.25 252.6 155.8 249.35 154.3 247.2 152.55 246.8 148.3 247.2 144.4537109375 247.6046875 143.15 246.5 141.888671875 245.3853515625 140.75 242.35 139.6650390625 239.3693359375 133.35 237.35 Z" stroke="none" fill="#FFFFFF"></path>
</g>
</g>
</g>
</g>
</g>

<g transform="matrix( 0.3621063232421875, 0, 0, 0.3621063232421875, -594.2,0.1)" id="Layer_2"></g>

<g transform="matrix( 0.3621063232421875, 0, 0, 0.3621063232421875, -594.2,0.1)" id="Layer_3"></g>

<g transform="matrix( 0.3621063232421875, 0, 0, 0.3621063232421875, -594.2,0.1)" id="Layer_2"></g>

<g transform="matrix( 0.3621063232421875, 0, 0, 0.3621063232421875, -594.2,0.1)" id="Layer_3"></g>

<g transform="matrix( 0.3621063232421875, 0, 0, 0.3621063232421875, -594.2,0.1)" id="Layer_6"></g>

<g transform="matrix( 0.3621063232421875, 0, 0, 0.3621063232421875, -594.2,0.1)" id="MergedLayer_1"></g>

<g transform="matrix( 0.3621063232421875, 0, 0, 0.3621063232421875, -594.2,0.1)" id="Layer_2"></g>
</g>
</svg>
