
<svg viewBox="0 0 145 107" height="107px" width="145px" y="0px" x="0px" preserveAspectRatio="none" xmlns:xlink="http://www.w3.org/1999/xlink" version="1.1" xmlns="http://www.w3.org/2000/svg">
<defs></defs>

<g id="Layer_1"></g>

<g id="Layer_2">
<g transform="matrix( 1, 0, 0, 1, 8,14.05)" id="Layer_1">
<g>
<g>
<g>
<path d="M 38 -5.6
Q 37.96015625 -5.631640625 37.9 -5.65 31.2 -7.75 24.1 -7.25 22.9216796875 -7.117578125 21.75 -6.95 14.5205078125 -5.8537109375 7.55 -3.1 -0.75 0.2 -6.35 6.7 -6.4 7.3 -6.45 7.9 -6.45 9 -6.45 10.1 -6.45 11.4 -6.35 12.7 -6.1 16.05 -5.05 19.25 -4.65 20.55 -4.25 21.9 -4.15 22 -4.1 22.1 -4 22.3 -3.9 22.5 -3.75 22.7 -3.65 22.9 -3.55 23 -3.5 23.1 -2.95 25.15 -1.75 26.95 -0.45 28.85 1.05 30.7 1.45 31.25 2.1 31.5 3.35 33.05 4.75 34.35 5.8619140625 35.378515625 7.1 35.8 4.83984375 38.499609375 3 41.5 -2.1 49.75 -4.95 59.2 -5.35 60.5 -4.35 61.35 -3.994921875 61.656640625 -3.65 61.95 -1.7546875 63.4759765625 0.3 64.65 6.15 68 12.8 69.55 15.5 70.2 16.65 71.1 15.2 71.8 13.65 72.15 9.3 73.2 6.7 76.4 6.6 77.15 7.05 77.6 9.75 80.1 13.15 81.8 26.95 88.7 42.55 87.3 42.7392578125 87.2822265625 42.9 87.25 43.4208984375 87.58359375 44 87.85 50.4 90.85 57.55 91.45 65.5 92.1 73.4 90.9 74.5 90.7 75.55 90.5 83.023828125 89.1837890625 89.55 85.5 101.263671875 87.29765625 112.1 82.25 119.3 78.9 124.05 72.65 124.45 72.15 124.1 71.75 121.05 67.7 115.6 66.35 122.25 64.75 128.7 62.4 130.25 61.85 131 60.5 132.45 57.75 130.65 54.65 130.6 54.55 130.6 54.45 130.55 54.25 130.5 54.05 130.5 53.95 130.45 53.85 130.45 53.75 130.45 53.65 130.4 53.55 130.3 53.45 130.25 53.35 130.2 53.25 130.05 52.9 130 52.45 129.85 51.1 129.4 49.8 129 48.7 128.55 47.65 128.25 47 127.85 46.45 127.85 46 127.65 45.65 127.25 44.9 126.9 44.2 126.55 43.45 126 42.85 125.9 42.75 125.8 42.65 125.7 42.35 125.6 42.05 125.45 41.65 125.3 41.25 125.15 40.85 124.9 40.45 124.85 40.35 124.8 40.25 123.4966796875 36.9232421875 121.4 34 121.8533203125 33.753125 122.3 33.4 131.95 26 136.2 14.75 137.05 12.55 136.7 10.3 136.25 7.1 133.95 4.8 129.95 0.85 124.95 -1.45 114.1 -6.5 101.95 -5.65 99.1876953125 -5.4732421875 96.7 -4.75 93.7865234375 -3.865625 91.25 -2.25 90.5220703125 -1.758984375 89.8 -1.25 87.2755859375 -4.054296875 83.35 -5.65 82.7 -5.95 82.05 -5.65 79.6 -4.55 80.5 -1.95 78.20625 -5.5318359375 74.85 -7.85 72.8595703125 -9.22109375 70.5 -10.15 66.163671875 -11.8609375 61.6 -12.35 58.4302734375 -12.6666015625 55.15 -12.4 52.45 -11.95 49.75 -11.3 45.130078125 -10.187890625 41.25 -7.85 39.5666015625 -6.839453125 38 -5.6
M 21.75 -3.1
Q 22.471875 -3.191796875 23.2 -3.3 28.25 -4.05 32.8 -2.25 33.8205078125 -1.8501953125 34.8 -1.65 34.330078125 1.1376953125 37.5 1.5 32.6 6.8 32.3 14 32.0921875 18.295703125 33.9 21.9 32.97109375 21.85 32 21.85 31.7529296875 21.88359375 31.5 21.9 31.5140625 21.33515625 31.05 20.7 28.6 17.4 24.8 15.45 23.28984375 14.666796875 21.75 14 12.3783203125 9.9564453125 1.9 10.3 0.25 10.45 0 12.1 -0.25 14 0.25 15.8 2.944921875 25.6314453125 11.4 31.4 11.1578125 31.661328125 10.9 31.9 10.345703125 32.4126953125 9.8 32.95 9.691015625 32.8181640625 9.55 32.7 7.65 31.15 5.75 29.55 5.6 29.4 5.45 29.3 5.3 29.1 5.15 28.9 4.8 28.4 4.25 28.1 4.05 28 3.9 27.9 3.7 27.6 3.5 27.3 2.55 26.15 1.85 24.8 1.25 23.7 0.55 22.7 0.45 22.6 0.45 22.5 0.4 22.1 0.2 21.7 -0.3 20.85 -0.65 19.9 -1.05 18.85 -1.55 17.9 -1.6 17.8 -1.65 17.7 -1.65 17.2 -1.8 16.7 -2.3 14.45 -2.4 12.1 -2.45 10.4 -2.45 8.7 -2.45 8.4 -2.45 8.1 0.5 5.2 4.15 3.15 12.4548828125 -1.4431640625 21.75 -3.1
M 47.45 -0.4
Q 47.9 -1.55 46.8 -2.2 43.95 -3.9 41.05 -3.05 46.5365234375 -6.68203125 52.55 -7.85 55.644921875 -8.4498046875 58.85 -8.4 60.1234375 -8.3748046875 61.4 -8.25 62.857421875 -8.1154296875 64.35 -7.85 66.446484375 -7.466796875 68.4 -6.7 70.8259765625 -5.7828125 73.05 -4.3 76.85 -1 79.05 3.55 80 5.45 81.5 6.8 82.45 7.65 83.45 6.9 85.05 5.75 84.85 3.6 84.6 1.6 84.7 -0.45 84.95 -0.2 85.2 0.05 85.9 0.85 86.8 1.5 86.998828125 1.640234375 87.15 1.8 87.18671875 1.8234375 87.2 1.85 87.680078125 2.797265625 88.2 3.25 88.4259765625 4.09609375 88.85 4.85 89.45 6 89.8 7.2 90.1 8.3 90.05 9.4 90.05 9.5 90.05 9.55 90 9.6 90 9.7 89.9 9.95 89.85 10.2 89.8 10.55 89.65 10.95 89.55 11.35 89.5 11.75 89.5 11.8 89.5 11.85 88.7 14.2 86.4 15.25 85 15.85 85.25 17.2 85.75 20.05 88.6 18.6 90.1765625 17.792578125 91.25 16.5 91.5728515625 16.12734375 91.85 15.7 95 10.9 93.45 5.45 92.8583984375 3.4486328125 91.9 1.75 91.962109375 1.7015625 92 1.65 94.301171875 0.459765625 96.7 -0.35 103.371484375 -2.5326171875 110.8 -1.65 119.7 -0.6 126.9 4.4 130.85 7.1 132.9 11.1 132.9 11.2 132.85 11.3 132.65 11.6 132.6 11.9 132.6 12.25 132.45 12.5 132.2 13.1 132.15 13.7 132.1 13.8 132.1 13.9 129.5 20.75 124.3 25.95 122 28.3 119.15 29.8 122.3009765625 25.8810546875 125.05 21.6 126.75 19 128.4 16.45 130.6 12.95 129.4 9.45 128.2 8.35 126.5 8.35 122.9 8.25 119.3 8.25 104.388671875 9.44296875 97.55 22.35 97.1408203125 22.377734375 96.7 22.4 94.6673828125 22.5138671875 92.5 22.55 91.8265625 22.55 91.25 22.65 89.5578125 23.0708984375 88.7 24.6 88.5 27.15 91.25 26.9 93.19921875 26.6763671875 95.15 26.5 95.924609375 26.4525390625 96.7 26.4 97.025 26.3712890625 97.35 26.35 108.6 25.65 115.8 33.9 117.75 36.15 119.2 38.75 122.25 44.25 125.1 49.8 125.1 50.2 125.25 50.6 125.4 51.1 125.55 51.6 125.75 52.1 126 52.6 126.05 52.7 126.1 52.8 126.1 53.3 126.15 53.8 126.3 54.55 126.5 55.25 126.75 55.95 127.15 56.6 127.2 56.7 127.25 56.8 127.25 57 127.25 57.2 127.3 57.4 127.3 57.6 127.35 57.8 127.35 58 127.4 58.1 127.4 58.2 121.9 60.75 115.95 61.9 112.309765625 62.5583984375 109.55 64.45 108.771484375 65.034765625 108.05 65.7 108 66.2 108.2 66.6 109.6 69.05 112.55 69.75 113.31640625 69.9361328125 114.05 70.15 116.71796875 71.016015625 119.1 72.5 111.35 80 100.75 81.8 98.2994140625 82.2130859375 95.85 82.05 94.1111328125 81.989453125 92.35 81.6 92.1166015625 81.562890625 91.85 81.5 91.6009765625 81.4447265625 91.35 81.4 90.7869140625 80.9005859375 89.5 80.8 89.35 80.8 89.2 80.9 86.45 82.8 83.3 84 75.85 86.7 67.95 87.4 60.1 88.05 52.35 86.5 48.4978515625 85.712109375 45.2 83.55
L 45.2 83.5
Q 45.090625 83.4375 44.95 83.35 44.636328125 83.148828125 44.3 82.9 42.47890625 81.5541015625 41.15 82.7 41.0025390625 82.8255859375 40.85 83 32.673046875 83.5466796875 24.5 82.2 23.75 81.8 22.9 81.55 22.65 81.5 22.4 81.45 21.8 81.35 21.25 81.3 20.05 80.6 18.8 80.1 15.65 78.95 12.9 77.15 13.85 76.6 15.15 76.1 16.387890625 75.6013671875 17.65 75.1 20.022265625 74.1857421875 22.45 73.3 25.9509765625 71.99296875 24.7 69.15 24.6578125 69.041796875 24.6 68.9 24.5490234375 68.840625 24.5 68.75 24.241015625 68.6431640625 23.95 68.55 21.06640625 67.4046875 17.9 66.9 10.2525390625 65.680859375 3.8 61.95 1.5650390625 60.6318359375 -0.55 59 0 57.7 0.4 56.4 1.05 54.25 1.85 52.15 2.8 49.7 3.75 47.2 7.9 40.3 13.8 34.7 17.4994140625 31.1919921875 21.75 29.1 27.4962890625 26.34375 34.25 26.2 34.3853515625 26.2458984375 34.5 26.25 36.1994140625 26.78515625 36.8 26 37.371484375 26.63359375 37.95 27.2 36.838671875 27.5556640625 35.75 28.1 34.1 28.9 32.55 30 28.45 32.9 26.8 37.6 24.879296875 40.9037109375 24.45 44.65 24.3384765625 45.7798828125 24.35 46.95 24.35 51.9 27.2 56 29.828515625 59.8279296875 33.5 61.95 35.69375 63.1919921875 38.2 63.85 37.47578125 64.641015625 37.15 65.7 37 66.35 37.5 66.75 39.9 68.65 42.25 66 42.45 65.95 42.6 65.9 42.85 65.85 43.1 65.75 43.2 65.7 43.35 65.6 43.6 65.45 43.8 65.25 43.85 65.15 43.95 65.1 46.5 64.3 49 63.45 50.011328125 63.1083984375 51 62.8 51.106640625 62.9548828125 51.2 63.1 52.15 64.55 53.65 65.3 57.5009765625 67.16328125 61.3 67.65 60.417578125 68.4892578125 60.1 70.15 60 70.25 59.85 70.4 59.75 70.5 59.7 70.65 59.6 70.75 59.55 70.9 58.75 71.55 58 72.25 56.95 73.2 55.6 73.65 50.25 75.45 44.5 74.75 40.7 74.3 38.3 71.55 37.8 70.9 38 70.15 38.9 67 36.05 66 33.7 66.65 33.65 69.4 33.6 75.1 39.25 77.2 44.6 79.2 50.4 79.1 54.9119140625 79.0189453125 58.4 77.05 62.38671875 78.9001953125 67.1 77.45 67.85 77.25 68.25 76.65 68.4115234375 76.4212890625 68.5 76.2 70.0154296875 77.044921875 71.65 77.6 79.35 80.15 87.35 78.65 91.55 77.9 95.05 75.55 97.65 73.8 98.6 70.85 99.35 68.6 97.75 66.95 97.15 66.35 96.4 66.7 94.25 67.8 94.2 70.5 94.15 70.6 94.1 70.65 93.85 70.95 93.75 71.3 93.7 71.5 93.6 71.65 92.25 72.75 90.7 73.35 87.75 74.5 84.55 75.05 76.75 76.3 70.2 72.45 67.2513671875 70.6615234375 65.4 67.75 70.248046875 67.4021484375 75 64.8 76.2876953125 64.0845703125 76.4 62.7 78.4658203125 63.2634765625 80.5 63.95 84.7 65.6 88.4 68.2 89.05 68.65 89.85 68.65 92.49140625 68.56484375 92 66.5 99.662109375 64.0279296875 103 56.45 103.75 54.8 104.05 53.05 105.1 47.05 103 41.25 101.75 37.8 99.2 35.15 98.103515625 33.66171875 96.7 32.45 96.31171875 32.153515625 95.9 31.85 93.6794921875 30.1705078125 91.25 29.15 87.1697265625 27.4806640625 82.5 27.7 75.1 29.1 70.1 34.6 68.25 36.6 66.95 39 66.103515625 40.5947265625 65.5 42.25 65.3203125 40.9787109375 64.95 39.7 64.95 38.75 64.7 37.85 64.491796875 37.1763671875 64.15 36.6 64.642578125 36.475 65.1 36.3 66.2 35.85 66.5 34.75 68.2 27.45 68.95 19.95 69.051171875 19.0650390625 69.05 18.2 69.0994140625 17.340234375 69.05 16.5 69 15.65 68.2 15.45 65.25 14.6 65.1 17.75 65.0951171875 17.860546875 65.1 17.95 65.0369140625 19.251953125 64.9 20.5 64.5896484375 24.7017578125 63.8 28.8 63.4 30.85 62.9 32.85 56.4 33.7 50.45 31 49.332421875 30.4943359375 48.25 29.9 48.015234375 29.7966796875 47.75 29.65
L 47.45 29.45
Q 44.9478515625 28.01796875 42.7 26.15 40.4 24.25 38.6 21.95 36.65 19.25 36.4 16.05 36 11.9 37.75 8.15 38.45 6.75 39.35 5.4 41.4 2.65 44.65 1.9 46.75 1.45 47.45 -0.4
M 102.1 22.45
Q 103.842578125 20.464453125 105.6 18.4 106.05 17.85 106.6 17.4 115.2 11.1 125.5 12.6 122.9 18.2 119.1 23.05 117.2169921875 25.4138671875 115.4 27.8 109.6400390625 23.30546875 102.1 22.45
M 96.7 38.4
Q 96.8275390625 38.546875 96.95 38.7 97.3 39.1 97.65 39.5 97.7 39.6 97.75 39.65 97.8 39.7 97.8 39.8 97.9 40.4 98.25 40.95 98.55 41.4 98.65 41.95 98.8 42.5 99.15 43 99.15 43.05 99.2 43.1 99.6 44.45 99.9 45.8 100.25 47.2 100.35 48.65 100.75 53.95 97.35 58.1 97.03359375 58.4900390625 96.7 58.85 94.705078125 60.986328125 92.1 61.95 90.9986328125 62.35234375 89.8 62.55 88.9640625 62.6892578125 88.2 62.95 87.2177734375 62.437109375 86.2 61.95 82.77265625 60.275390625 79.1 59.2 82.9302734375 59.9427734375 87.05 58.6 89.6 57.75 91.6 56 98.2 50.05 94.45 41.9 93.171875 39.151171875 91.25 37.35 87.68359375 34.1025390625 81.9 34.2 76.419140625 34.6060546875 72.75 38.35
L 72.45 38.9 75.2 37.25
Q 75.95 37.15 76.7 37.15 78.3 37.05 78.75 38.5
L 78.45 40
Q 75.85 43.85 71.35 43.8
L 70.95 43.4
Q 70.466796875 42.128125 70.8 40.9 69.6314453125 42.7216796875 69.15 44.65 68.4130859375 47.530859375 69.2 50.65 70.3 55.1 74.3 57.4 75.6716796875 58.17734375 77.05 58.65 76.519921875 58.52421875 75.95 58.4 73.4599609375 57.84296875 70.95 57.5 69.71484375 55.9244140625 69.05 54 68.05 51.05 68.35 47.9 68.5814453125 46.2033203125 69 44.65 70.9380859375 38.145703125 76.75 34.15 81.2 31.15 86.4 32.1 89.004296875 32.597265625 91.25 33.75 93.7466796875 35.0677734375 95.8 37.2 95.9 37.5 96.1 37.7 96.412109375 38.046875 96.7 38.4
M 55.85 36.85
Q 56.296484375 36.968359375 56.75 37.05 58.2947265625 37.3373046875 59.8 37.3 60.09375 38.5337890625 60.9 39.65 61.542578125 42.1072265625 61.65 44.65 61.6744140625 45.4705078125 61.65 46.3 61.55 53.4 55.5 57.1 55.0427734375 57.3701171875 54.8 57.7 53.7845703125 57.8876953125 52.75 58.1 57.2921875 55.4373046875 59.4 50.1 60.4767578125 47.3482421875 60.1 44.65 59.8541015625 42.837890625 58.95 41.05 57.6765625 38.5208984375 55.85 36.85
M 41.9 30.65
Q 44.3494140625 32.5068359375 47.05 33.85 43.2701171875 34.1072265625 40.2 35.7 38.33203125 36.69296875 36.7 38.2 39.317578125 36.6205078125 41.15 38.9 41.2 38.95 41.3 39.05 41.45 40.7 40.45 41.75 39.75 42.5 39.1 43.3
L 38.55 43.4
Q 37.39375 44.49375 36.2 44.65 35.8298828125 44.701953125 35.4 44.65 35.1173828125 44.60859375 34.8 44.5 34.5 44.35 34.2 44.35 33.8416015625 42.8265625 34 41.5 33.0533203125 43.0205078125 32.55 44.65 31.6498046875 47.708203125 32.35 51.15 33.85 58.45 41.45 59.85 43.1662109375 60.359375 44.9 60.35 44.062890625 60.69140625 43.2 61.05 38.691015625 60.344140625 34.85 57.85 30.75 55.2 29.3 50.6 28.3552734375 47.6357421875 28.65 44.65 28.8271484375 43.053125 29.35 41.45 29.4 41.4 29.45 41.3 30.05 40.2 30.5 39 31.05 37.65 31.85 36.45 32.35 35.95 32.8 35.45 34.7 33.55 36.9 32.1 38.6 31.3 40.45 31 41.185546875 30.8638671875 41.6 30.4 41.75390625 30.541015625 41.9 30.65
M 27.6 22.6
Q 27.633984375 22.6609375 27.65 22.7 24.5958984375 23.5154296875 21.75 24.75 17.969140625 26.40546875 14.6 28.85 11.6546875 26.7533203125 9.15 24.05 9.05 23.95 8.95 23.85 8.85 23.75 8.7 23.65 8.05 22.55 7.35 21.45 6.6 20.15 5.85 18.85 5.75 18.75 5.7 18.65 5.55 17.6 5.1 16.6 4.65 15.65 4.4 14.65 4.4 14.55 4.35 14.45 10.25 14.35 16 15.7 19.0638671875 16.426953125 21.75 17.85 24.23671875 19.2291015625 26.4 21.2 26.55 21.5 26.75 21.75 27 22.15 27.4 22.45 27.5 22.5 27.6 22.6
M 63.85 53.85
Q 64.171484375 53.1568359375 64.45 52.45 64.4669921875 52.7046875 64.5 52.95 64.815234375 55.205078125 65.85 57.05 63.8697265625 56.9580078125 61.85 57 63.0345703125 55.58828125 63.85 53.85 Z" stroke="none" fill="#000000"></path>

<path d="M 64.45 52.45
Q 64.171484375 53.1568359375 63.85 53.85 63.0345703125 55.58828125 61.85 57 63.8697265625 56.9580078125 65.85 57.05 64.815234375 55.205078125 64.5 52.95 64.4669921875 52.7046875 64.45 52.45
M 54.5 -3.85
Q 52.186328125 -2.646875 52.1 -1.25 52.092578125 -1.115625 52.1 -1 52.18125 -0.105859375 53.05 0.5 53.256640625 0.6283203125 53.5 0.75 54.55 1.25 56 1.35 50.65 3.8 48.25 5.4 46.608984375 6.4736328125 45.3 7.65 43.450390625 9.387109375 42.35 11.35 39.85 16.15 41.65 21.75 42.4525390625 24.2005859375 43.8 26.05 44.4046875 26.5099609375 45.1 26.85 48.75 28.8 53.75 27.5 58.35 26.35 62.05 23.35 63.650390625 22.05234375 64.9 20.5 65.0369140625 19.251953125 65.1 17.95 65.0951171875 17.860546875 65.1 17.75 65.25 14.6 68.2 15.45 69 15.65 69.05 16.5 69.0994140625 17.340234375 69.05 18.2 69.051171875 19.0650390625 68.95 19.95 68.2 27.45 66.5 34.75 66.2 35.85 65.1 36.3 64.642578125 36.475 64.15 36.6 64.491796875 37.1763671875 64.7 37.85 64.95 38.75 64.95 39.7 65.3203125 40.9787109375 65.5 42.25 66.103515625 40.5947265625 66.95 39 68.25 36.6 70.1 34.6 75.1 29.1 82.5 27.7 87.1697265625 27.4806640625 91.25 29.15 93.6794921875 30.1705078125 95.9 31.85 96.31171875 32.153515625 96.7 32.45 98.103515625 33.66171875 99.2 35.15 101.75 37.8 103 41.25 105.1 47.05 104.05 53.05 103.75 54.8 103 56.45 99.662109375 64.0279296875 92 66.5 92.49140625 68.56484375 89.85 68.65 89.05 68.65 88.4 68.2 84.7 65.6 80.5 63.95 78.4658203125 63.2634765625 76.4 62.7 76.2876953125 64.0845703125 75 64.8 70.248046875 67.4021484375 65.4 67.75 67.2513671875 70.6615234375 70.2 72.45 76.75 76.3 84.55 75.05 87.75 74.5 90.7 73.35 92.25 72.75 93.6 71.65 93.7 71.5 93.75 71.3 93.85 70.95 94.1 70.65 94.15 70.6 94.2 70.5 94.25 67.8 96.4 66.7 97.15 66.35 97.75 66.95 99.35 68.6 98.6 70.85 97.65 73.8 95.05 75.55 91.55 77.9 87.35 78.65 79.35 80.15 71.65 77.6 70.0154296875 77.044921875 68.5 76.2 68.4115234375 76.4212890625 68.25 76.65 67.85 77.25 67.1 77.45 62.38671875 78.9001953125 58.4 77.05 54.9119140625 79.0189453125 50.4 79.1 44.6 79.2 39.25 77.2 33.6 75.1 33.65 69.4 33.7 66.65 36.05 66 38.9 67 38 70.15 37.8 70.9 38.3 71.55 40.7 74.3 44.5 74.75 50.25 75.45 55.6 73.65 56.95 73.2 58 72.25 58.75 71.55 59.55 70.9 59.6 70.75 59.7 70.65 59.75 70.5 59.85 70.4 60 70.25 60.1 70.15 60.417578125 68.4892578125 61.3 67.65 57.5009765625 67.16328125 53.65 65.3 52.15 64.55 51.2 63.1 51.106640625 62.9548828125 51 62.8 50.011328125 63.1083984375 49 63.45 46.5 64.3 43.95 65.1 43.85 65.15 43.8 65.25 43.6 65.45 43.35 65.6 43.2 65.7 43.1 65.75 42.85 65.85 42.6 65.9 42.45 65.95 42.25 66 39.9 68.65 37.5 66.75 37 66.35 37.15 65.7 37.47578125 64.641015625 38.2 63.85 35.69375 63.1919921875 33.5 61.95 29.828515625 59.8279296875 27.2 56 24.35 51.9 24.35 46.95 24.3384765625 45.7798828125 24.45 44.65 24.879296875 40.9037109375 26.8 37.6 28.45 32.9 32.55 30 34.1 28.9 35.75 28.1 36.838671875 27.5556640625 37.95 27.2 37.371484375 26.63359375 36.8 26 36.1994140625 26.78515625 34.5 26.25 28.47890625 28.5892578125 23.05 32.55 22.390234375 33.033203125 21.75 33.5 14.7712890625 38.9892578125 10.1 46.5 6.6 52.2 7.5 56.25 8.1458984375 59.37734375 11.25 61.95 12.733203125 63.1615234375 14.75 64.25 16.45 65.05 19.9 66.5 22.3181640625 67.553125 23.95 68.55 24.241015625 68.6431640625 24.5 68.75 24.5490234375 68.840625 24.6 68.9 24.6578125 69.041796875 24.7 69.15 25.9509765625 71.99296875 22.45 73.3 20.022265625 74.1857421875 17.65 75.1 17.4392578125 75.4255859375 17.25 75.75 28.9068359375 80.2162109375 41.15 82.7 42.47890625 81.5541015625 44.3 82.9 44.636328125 83.148828125 44.95 83.35 45.090625 83.4375 45.2 83.5
L 45.2 83.55
Q 48.4978515625 85.712109375 52.35 86.5 60.1 88.05 67.95 87.4 75.85 86.7 83.3 84 86.45 82.8 89.2 80.9 89.35 80.8 89.5 80.8 90.7869140625 80.9005859375 91.35 81.4 91.6009765625 81.4447265625 91.85 81.5 92.1166015625 81.562890625 92.35 81.6 92.4353515625 81.5298828125 92.5 81.4 92.5478515625 81.3423828125 92.6 81.25 93.29609375 80.97734375 93.95 80.7 102.504296875 77.3611328125 109.85 74.35 112.8 73.15 113.6 71.75 114.016796875 71.0056640625 114.05 70.15 113.31640625 69.9361328125 112.55 69.75 109.6 69.05 108.2 66.6 108 66.2 108.05 65.7 108.771484375 65.034765625 109.55 64.45 108.835546875 64.1384765625 107.6 63.6 108.75 62.4 113.5 59.7 117.35 57.5 118.35 55.1 119.4 52.35 117.75 47.75 114.55 39.35 107.45 33.35 102.47421875 29.13984375 96.7 27.05 95.9322265625 26.7662109375 95.15 26.5 93.19921875 26.6763671875 91.25 26.9 88.5 27.15 88.7 24.6 89.5578125 23.0708984375 91.25 22.65 91.8265625 22.55 92.5 22.55 94.6673828125 22.5138671875 96.7 22.4 97.1408203125 22.377734375 97.55 22.35 104.388671875 9.44296875 119.3 8.25 122.9 8.25 126.5 8.35 128.2 8.35 129.4 9.45 130.6 12.95 128.4 16.45 126.75 19 125.05 21.6 122.3009765625 25.8810546875 119.15 29.8 122 28.3 124.3 25.95 129.5 20.75 132.1 13.9 132.1 13.8 132.15 13.7 132.2 13.1 132.45 12.5 132.6 12.25 132.6 11.9 132.65 11.6 132.85 11.3 132.9 11.2 132.9 11.1 130.85 7.1 126.9 4.4 119.7 -0.6 110.8 -1.65 103.371484375 -2.5326171875 96.7 -0.35 94.301171875 0.459765625 92 1.65 91.962109375 1.7015625 91.9 1.75 92.8583984375 3.4486328125 93.45 5.45 95 10.9 91.85 15.7 91.5728515625 16.12734375 91.25 16.5 90.1765625 17.792578125 88.6 18.6 85.75 20.05 85.25 17.2 85 15.85 86.4 15.25 88.7 14.2 89.5 11.85 89.5 11.8 89.5 11.75 89.55 11.35 89.65 10.95 89.8 10.55 89.85 10.2 89.9 9.95 90 9.7 90 9.6 90.05 9.55 90.05 9.5 90.05 9.4 90.1 8.3 89.8 7.2 89.45 6 88.85 4.85 88.4259765625 4.09609375 88.2 3.25 87.680078125 2.797265625 87.2 1.85 87.18671875 1.8234375 87.15 1.8 86.998828125 1.640234375 86.8 1.5 85.9 0.85 85.2 0.05 84.95 -0.2 84.7 -0.45 84.6 1.6 84.85 3.6 85.05 5.75 83.45 6.9 82.45 7.65 81.5 6.8 80 5.45 79.05 3.55 76.85 -1 73.05 -4.3 70.8259765625 -5.7828125 68.4 -6.7 66.8435546875 -6.7638671875 65.25 -6.65 59.55 -6.3 54.5 -3.85
M 23.2 -3.3
Q 22.471875 -3.191796875 21.75 -3.1 12.4548828125 -1.4431640625 4.15 3.15 0.5 5.2 -2.45 8.1 -2.45 8.4 -2.45 8.7 -2.45 10.4 -2.4 12.1 -2.3 14.45 -1.8 16.7 -1.65 17.2 -1.65 17.7 -1.6 17.8 -1.55 17.9 -1.05 18.85 -0.65 19.9 -0.3 20.85 0.2 21.7 0.4 22.1 0.45 22.5 0.45 22.6 0.55 22.7 1.25 23.7 1.85 24.8 2.55 26.15 3.5 27.3 3.7 27.6 3.9 27.9 4.05 28 4.25 28.1 4.8 28.4 5.15 28.9 5.3 29.1 5.45 29.3 5.6 29.4 5.75 29.55 7.65 31.15 9.55 32.7 9.691015625 32.8181640625 9.8 32.95 10.345703125 32.4126953125 10.9 31.9 11.1578125 31.661328125 11.4 31.4 2.944921875 25.6314453125 0.25 15.8 -0.25 14 0 12.1 0.25 10.45 1.9 10.3 12.3783203125 9.9564453125 21.75 14 23.28984375 14.666796875 24.8 15.45 28.6 17.4 31.05 20.7 31.5140625 21.33515625 31.5 21.9 31.7529296875 21.88359375 32 21.85 32.97109375 21.85 33.9 21.9 32.0921875 18.295703125 32.3 14 32.6 6.8 37.5 1.5 34.330078125 1.1376953125 34.8 -1.65 33.8205078125 -1.8501953125 32.8 -2.25 28.25 -4.05 23.2 -3.3 Z" stroke="none" fill="#3333FF"></path>

<path d="M 27.65 22.7
Q 27.633984375 22.6609375 27.6 22.6 27.5 22.5 27.4 22.45 27 22.15 26.75 21.75 26.55 21.5 26.4 21.2 24.23671875 19.2291015625 21.75 17.85 19.0638671875 16.426953125 16 15.7 10.25 14.35 4.35 14.45 4.4 14.55 4.4 14.65 4.65 15.65 5.1 16.6 5.55 17.6 5.7 18.65 5.75 18.75 5.85 18.85 6.6 20.15 7.35 21.45 8.05 22.55 8.7 23.65 8.85 23.75 8.95 23.85 9.05 23.95 9.15 24.05 11.6546875 26.7533203125 14.6 28.85 17.969140625 26.40546875 21.75 24.75 24.5958984375 23.5154296875 27.65 22.7
M 105.6 18.4
Q 103.842578125 20.464453125 102.1 22.45 109.6400390625 23.30546875 115.4 27.8 117.2169921875 25.4138671875 119.1 23.05 122.9 18.2 125.5 12.6 115.2 11.1 106.6 17.4 106.05 17.85 105.6 18.4 Z" stroke="none" fill="#33FF00"></path>

<path d="M 47.05 33.85
Q 44.3494140625 32.5068359375 41.9 30.65 41.75390625 30.541015625 41.6 30.4 41.185546875 30.8638671875 40.45 31 38.6 31.3 36.9 32.1 34.7 33.55 32.8 35.45 32.35 35.95 31.85 36.45 31.05 37.65 30.5 39 30.05 40.2 29.45 41.3 29.4 41.4 29.35 41.45 28.8271484375 43.053125 28.65 44.65 28.3552734375 47.6357421875 29.3 50.6 30.75 55.2 34.85 57.85 38.691015625 60.344140625 43.2 61.05 44.062890625 60.69140625 44.9 60.35 43.1662109375 60.359375 41.45 59.85 33.85 58.45 32.35 51.15 31.6498046875 47.708203125 32.55 44.65 33.0533203125 43.0205078125 34 41.5 33.8416015625 42.8265625 34.2 44.35 34.5 44.35 34.8 44.5 35.1173828125 44.60859375 35.4 44.65 35.8298828125 44.701953125 36.2 44.65 37.39375 44.49375 38.55 43.4
L 39.1 43.3
Q 39.75 42.5 40.45 41.75 41.45 40.7 41.3 39.05 41.2 38.95 41.15 38.9 39.317578125 36.6205078125 36.7 38.2 38.33203125 36.69296875 40.2 35.7 43.2701171875 34.1072265625 47.05 33.85
M 96.95 38.7
Q 96.8275390625 38.546875 96.7 38.4 96.412109375 38.046875 96.1 37.7 95.9 37.5 95.8 37.2 93.7466796875 35.0677734375 91.25 33.75 89.004296875 32.597265625 86.4 32.1 81.2 31.15 76.75 34.15 70.9380859375 38.145703125 69 44.65 68.5814453125 46.2033203125 68.35 47.9 68.05 51.05 69.05 54 69.71484375 55.9244140625 70.95 57.5 73.4599609375 57.84296875 75.95 58.4 76.519921875 58.52421875 77.05 58.65 75.6716796875 58.17734375 74.3 57.4 70.3 55.1 69.2 50.65 68.4130859375 47.530859375 69.15 44.65 69.6314453125 42.7216796875 70.8 40.9 70.466796875 42.128125 70.95 43.4
L 71.35 43.8
Q 75.85 43.85 78.45 40
L 78.75 38.5
Q 78.3 37.05 76.7 37.15 75.95 37.15 75.2 37.25
L 72.45 38.9 72.75 38.35
Q 76.419140625 34.6060546875 81.9 34.2 87.68359375 34.1025390625 91.25 37.35 93.171875 39.151171875 94.45 41.9 98.2 50.05 91.6 56 89.6 57.75 87.05 58.6 82.9302734375 59.9427734375 79.1 59.2 82.77265625 60.275390625 86.2 61.95 87.2177734375 62.437109375 88.2 62.95 88.9640625 62.6892578125 89.8 62.55 90.9986328125 62.35234375 92.1 61.95 94.705078125 60.986328125 96.7 58.85 97.03359375 58.4900390625 97.35 58.1 100.75 53.95 100.35 48.65 100.25 47.2 99.9 45.8 99.6 44.45 99.2 43.1 99.15 43.05 99.15 43 98.8 42.5 98.65 41.95 98.55 41.4 98.25 40.95 97.9 40.4 97.8 39.8 97.8 39.7 97.75 39.65 97.7 39.6 97.65 39.5 97.3 39.1 96.95 38.7 Z" stroke="none" fill="#FFFFFF"></path>

<path d="M 12.9 77.15
Q 15.65 78.95 18.8 80.1 20.05 80.6 21.25 81.3 21.8 81.35 22.4 81.45 22.65 81.5 22.9 81.55 23.75 81.8 24.5 82.2 32.673046875 83.5466796875 40.85 83 41.0025390625 82.8255859375 41.15 82.7 28.9068359375 80.2162109375 17.25 75.75 17.4392578125 75.4255859375 17.65 75.1 16.387890625 75.6013671875 15.15 76.1 13.85 76.6 12.9 77.15
M 13.8 34.7
Q 7.9 40.3 3.75 47.2 2.8 49.7 1.85 52.15 1.05 54.25 0.4 56.4 0 57.7 -0.55 59 1.5650390625 60.6318359375 3.8 61.95 10.2525390625 65.680859375 17.9 66.9 21.06640625 67.4046875 23.95 68.55 22.3181640625 67.553125 19.9 66.5 16.45 65.05 14.75 64.25 12.733203125 63.1615234375 11.25 61.95 8.1458984375 59.37734375 7.5 56.25 6.6 52.2 10.1 46.5 14.7712890625 38.9892578125 21.75 33.5 22.390234375 33.033203125 23.05 32.55 28.47890625 28.5892578125 34.5 26.25 34.3853515625 26.2458984375 34.25 26.2 27.4962890625 26.34375 21.75 29.1 17.4994140625 31.1919921875 13.8 34.7
M 114.05 70.15
Q 114.016796875 71.0056640625 113.6 71.75 112.8 73.15 109.85 74.35 102.504296875 77.3611328125 93.95 80.7 93.29609375 80.97734375 92.6 81.25 92.5478515625 81.3423828125 92.5 81.4 92.4353515625 81.5298828125 92.35 81.6 94.1111328125 81.989453125 95.85 82.05 98.2994140625 82.2130859375 100.75 81.8 111.35 80 119.1 72.5 116.71796875 71.016015625 114.05 70.15
M 97.35 26.35
Q 97.025 26.3712890625 96.7 26.4 95.924609375 26.4525390625 95.15 26.5 95.9322265625 26.7662109375 96.7 27.05 102.47421875 29.13984375 107.45 33.35 114.55 39.35 117.75 47.75 119.4 52.35 118.35 55.1 117.35 57.5 113.5 59.7 108.75 62.4 107.6 63.6 108.835546875 64.1384765625 109.55 64.45 112.309765625 62.5583984375 115.95 61.9 121.9 60.75 127.4 58.2 127.4 58.1 127.35 58 127.35 57.8 127.3 57.6 127.3 57.4 127.25 57.2 127.25 57 127.25 56.8 127.2 56.7 127.15 56.6 126.75 55.95 126.5 55.25 126.3 54.55 126.15 53.8 126.1 53.3 126.1 52.8 126.05 52.7 126 52.6 125.75 52.1 125.55 51.6 125.4 51.1 125.25 50.6 125.1 50.2 125.1 49.8 122.25 44.25 119.2 38.75 117.75 36.15 115.8 33.9 108.6 25.65 97.35 26.35
M 52.1 -1.25
Q 52.186328125 -2.646875 54.5 -3.85 59.55 -6.3 65.25 -6.65 66.8435546875 -6.7638671875 68.4 -6.7 66.446484375 -7.466796875 64.35 -7.85 62.857421875 -8.1154296875 61.4 -8.25 60.1234375 -8.3748046875 58.85 -8.4 55.644921875 -8.4498046875 52.55 -7.85 46.5365234375 -6.68203125 41.05 -3.05 43.95 -3.9 46.8 -2.2 47.9 -1.55 47.45 -0.4 46.75 1.45 44.65 1.9 41.4 2.65 39.35 5.4 38.45 6.75 37.75 8.15 36 11.9 36.4 16.05 36.65 19.25 38.6 21.95 40.4 24.25 42.7 26.15 44.9478515625 28.01796875 47.45 29.45
L 47.75 29.65
Q 48.015234375 29.7966796875 48.25 29.9 49.332421875 30.4943359375 50.45 31 56.4 33.7 62.9 32.85 63.4 30.85 63.8 28.8 64.5896484375 24.7017578125 64.9 20.5 63.650390625 22.05234375 62.05 23.35 58.35 26.35 53.75 27.5 48.75 28.8 45.1 26.85 44.4046875 26.5099609375 43.8 26.05 42.4525390625 24.2005859375 41.65 21.75 39.85 16.15 42.35 11.35 43.450390625 9.387109375 45.3 7.65 46.608984375 6.4736328125 48.25 5.4 50.65 3.8 56 1.35 54.55 1.25 53.5 0.75 53.256640625 0.6283203125 53.05 0.5 52.18125 -0.105859375 52.1 -1 52.092578125 -1.115625 52.1 -1.25 Z" stroke="none" fill="#FF0033"></path>
</g>
</g>
</g>
</g>
</g>
</svg>
