
<svg viewBox="0 0 80 70" height="70px" width="80px" y="0px" x="0px" preserveAspectRatio="none" xmlns:xlink="http://www.w3.org/1999/xlink" version="1.1" xmlns="http://www.w3.org/2000/svg">
<defs></defs>

<g id="Layer_2">
<g transform="matrix( 0.2443389892578125, 0, 0, 0.2443389892578125, -5.6,-13.9)" id="Layer_1">
<g>
<g>
<g>
<path d="M 248.9 340.55
Q 249 340.5 249 340 248.5 340 248 340 244.5 340 241 340 243.75 341.75 248.9 340.55 Z" stroke="none" fill="#102F38"></path>

<path d="M 258 320
L 257.5 320
Q 257.7 322.7 256 323 256 324.5 256 326 256 326.5 256 327 258 325 258 321 258 320.5 258 320 Z" stroke="none" fill="#173742"></path>

<path d="M 261 302
Q 261 302.5 261 303 261.25 308.75 259 312 259 313.5 259 315 259 315.5 259 316 261.95 311.45 262 304 262 303.5 262 303 262 302.5 262 302 261.5 302 261 302 Z" stroke="none" fill="#213A41"></path>

<path d="M 273 303
Q 273.5 303 274 303 274 302.5 274 302 274 301.5 274 301 273.5 301 273 301.1 264.528125 302.640234375 263.2 297.05 263.4419921875 299.897265625 262 301 262 301.5 262 302 262 302.5 262 303 267.5 303 273 303 Z" stroke="none" fill="#7C684D"></path>

<path d="M 182 315
Q 182 315.5 182.05 316 183.2 324.2 179 327 179 327.5 179 328 179 328.5 179 329 184.55 325.55 182.5 315.1 182.5 315 182 315 Z" stroke="none" fill="#19353D"></path>

<path d="M 164 311
Q 164.05 312.95 164.75 314.15 165 314.5 165 315 166.65 314.9 166.5 317
L 167 317
Q 167 316.5 166.95 316 166.75 312.25 164 311 Z" stroke="none" fill="#33423C"></path>

<path d="M 175 300
Q 175 299.5 175 299 174.5 299 174 299 169.5 299 165 299 165 299.5 165 300 169.5 300 174 300 174.5 300 175 300 Z" stroke="none" fill="#604705"></path>

<path d="M 179 300
Q 178.5 300 178 300 176.5 300 175 300 176.55 301.45 177.45 303.85 177.5 304 178 304 178 303.5 178 303 178 302 178 301 180.15 301.65 179.55 300.15 179.5 300 179 300 Z" stroke="none" fill="#755A09"></path>

<path d="M 241 328
Q 241 329.5 241 331 241 331.5 241 332 245.8 335.7 241.25 339.3 241 339.5 241 340 244.5 340 248 340 248.5 340 249 340 255.7 337.2 256 328 256 327.5 256 327 256 326.5 256 326 256 324.5 256 323 257.7 322.7 257.5 320
L 258 320
Q 258 319.5 258 319 259.65 319.15 259.1 316.95 259 316.5 259 316 259 315.5 259 315 259 313.5 259 312 261.25 308.75 261 303 261 302.5 261 302 260.5 302 260 302.05 254.25 302.4 247 305 247 305.5 247 306 247 306.5 247.1 306.95 247.65 309.15 246 309 246 309.5 245.95 310 244.75 320.25 241 328 Z" stroke="none" fill="#050C18"></path>

<path d="M 241 332
L 240.5 332
Q 240.65 334.15 239 334 238.55 337.95 240.25 339.75 240.5 340 241 340 241 339.5 241.25 339.3 245.8 335.7 241 332 Z" stroke="none" fill="#041A27"></path>

<path d="M 216 309
Q 215.5 309 215 309 202.3 308.75 192 310 192 310.5 192 311 205.2 311.7 215.9 309.5 216 309.5 216 309 Z" stroke="none" fill="#6D7160"></path>

<path d="M 235 306
Q 235 306.5 235 307 241.75 306.25 245.8 308.4 246 308.5 246 309 247.65 309.15 247.1 306.95 247 306.5 247 306 246.5 306 246.05 305.85 240.6 303.6 235 306 Z" stroke="none" fill="#666F63"></path>

<path d="M 230 307
Q 229.5 307 229 307 224.5 307 220 307 220 307.5 220 308 220 308.5 220 309 225.95 309.45 229.8 307.6 230 307.5 230 307 Z" stroke="none" fill="#6A7263"></path>

<path d="M 230.2 277.15
Q 230 277.5 230 278 230.5 278 230.65 277.75 233.95 273.25 230 271 232.05 274 230.2 277.15 Z" stroke="none" fill="#9E7F1A"></path>

<path d="M 223 284
Q 223.5 284 223.75 284.25 224 284.5 224 285 229.65 284.65 229.95 279 230 278.5 230 278 229.5 278 229.35 278.2 227.25 281.75 223 283 223 283.5 223 284 Z" stroke="none" fill="#D8C66C"></path>

<path d="M 222.25 284.25
Q 221 285.5 219 286 221.5 288.45 223.75 285.8 224 285.5 224 285 224 284.5 223.75 284.25 223.5 284 223 284 222.5 284 222.25 284.25 Z" stroke="none" fill="#DBC57B"></path>

<path d="M 221 295
Q 221 295.5 221 296 230 296 237.9 294.5 238 294.5 238 294 237.5 294 237 294 236.5 294 236 294 235.5 294 235 294.1 228.7 295.2 221 295 Z" stroke="none" fill="#AF7F09"></path>

<path d="M 208 294
Q 208 293.5 208 293 207.5 293 207.05 293.15 204.25 294.25 202 296 202.5 296.5 203.1 296.8 203.5 297 204 297 205.5 297 207 297 207.5 297 208 297 208 296.5 208 296 208 295.5 208 295 208 294.5 208 294 Z" stroke="none" fill="#D6C179"></path>

<path d="M 208 293
Q 208 293.5 208 294 208 294.5 208 295 213 293 215.5 289
L 215 289
Q 214.5 289 214.2 289.25 211.5 291.5 208 293 Z" stroke="none" fill="#DBC66B"></path>

<path d="M 229 270
Q 229 269.5 228.95 269.5 225 269 221 269 221 269.5 221 270 224.5 270 228 270 228.5 270 229 270 Z" stroke="none" fill="#674F03"></path>

<path d="M 189 283
Q 189 283.5 189 284 189.55 288.5 193.75 285.65 194 285.5 194 285 194 284.5 193.8 284.4 193 284 192 284 191.5 284 191.45 283.85 190.1 278.9 189 274 189 278.5 189 283 Z" stroke="none" fill="#E4CD67"></path>

<path d="M 189 274
Q 188.5 274 188 274 188 279 188.5 283.95 188.5 284 189 284 189 283.5 189 283 189 278.5 189 274 Z" stroke="none" fill="#6F5102"></path>

<path d="M 197.8 283.6
Q 198 283.5 198 283 197.5 283 197 283 194.5 283 192 283 192 283.5 192 284 193 284 193.8 284.4 194 284.5 194 285 196 284.5 197.8 283.6 Z" stroke="none" fill="#D1B759"></path>

<path d="M 176 293
Q 176 293.5 176.1 294 176.7 297.7 175 299 175 299.5 175 300 176.5 300 178 300 178.5 300 179 300 179 299.5 179 299 182.5 299 185.95 298.5 186 298.5 186 298 185.5 298 185 297.9 179.05 296.95 176 293 Z" stroke="none" fill="#D8C270"></path>

<path d="M 186 271
Q 185.5 271 185 271 181.5 271 178 271 177.5 271 177.1 271.2 175.5 272 174 273 173.4 282.1 174.9 289 175 289.5 175 290 176.65 289.9 176.1 292.05 176 292.5 176 293 179.05 296.95 185 297.9 185.5 298 186 298 194.45 300.35 201.15 296.2 201.5 296 202 296 204.25 294.25 207.05 293.15 207.5 293 208 293 211.5 291.5 214.2 289.25 214.5 289 215 289 215 288.5 215 288 217.7 288.2 218.45 286.15 218.5 286 219 286 221 285.5 222.25 284.25 222.5 284 223 284 223 283.5 223 283 227.25 281.75 229.35 278.2 229.5 278 230 278 230 277.5 230.2 277.15 232.05 274 230 271 230 270.5 229.75 270.25 229.5 270 229 270 228.5 270 228 270 224.5 270 221 270 220.5 270 220.15 270.25 210.05 277.55 198 283 198 283.5 197.8 283.6 196 284.5 194 285 194 285.5 193.75 285.65 189.55 288.5 189 284 188.5 284 188.5 283.95 188 279 188 274 188 273.5 187.95 273 187.7 271.3 186 271 Z" stroke="none" fill="#1E0A03"></path>

<path d="M 185 271
Q 185.5 271 186 271 186 270.5 185.95 270.5 182 270 178 270 178 270.5 178 271 181.5 271 185 271 Z" stroke="none" fill="#674A03"></path>

<path d="M 287.75 293.85
Q 288 293.5 288 293 287.5 293 287 293 286.5 293 286 293 286 293.5 285.75 293.7 280.35 297.85 274 301 274 301.5 274 302 274 302.5 274 303 283.3 300.8 287.75 293.85 Z" stroke="none" fill="#716E5D"></path>

<path d="M 292.95 289
Q 293 288.5 293 288 292.5 288 292.3 288.25 289.85 291.35 284 291 284 291.5 284 292 286.5 292 289 292 289.5 292 290 292 290 291.5 290 291 292.7 291.2 292.95 289 Z" stroke="none" fill="#1D2A26"></path>

<path d="M 303 277
Q 302.5 277 302.5 277.05 302.1 280.1 298 279
L 297.5 279
Q 297.7 281.7 296 282 296 283 296 284 296 284.5 296 285 304.45 285.15 304.05 278 304 277.5 304 277 303.5 277 303 277 Z" stroke="none" fill="#716D5A"></path>

<path d="M 286 263
Q 285.5 263 285 263 285 263.5 285.05 264 285.55 267.55 283 268 285.75 272 286 264 286 263.5 286 263 Z" stroke="none" fill="#887132"></path>

<path d="M 300 252
Q 300 251.5 299.95 251.5 296.5 251 293 251 292.5 251 292 251 290.05 251.05 289 252 289 252.5 289 253 293.1 251.6 299 251.95 299.5 252 300 252 Z" stroke="none" fill="#634704"></path>

<path d="M 306.1 272
Q 306 271.5 306 271 305.5 271 305.4 271.2 304.35 273.35 303 275 303 275.5 303 276 303 276.5 303 277 303.5 277 304 277 307.2 276.7 306.1 272 Z" stroke="none" fill="#786B55"></path>

<path d="M 310.1 263.95
Q 310 263.5 310 263 309.5 263 309.45 263.15 308.1 266.6 306 269 306 269.5 306 270 306 270.5 306 271 311.95 271.45 310.1 263.95 Z" stroke="none" fill="#7A6B53"></path>

<path d="M 311.5 257
Q 311.65 259.15 310 259 310 260.5 310 262 310 262.5 310 263 313.2 262.7 312.1 258 312 257.5 312 257
L 311.5 257 Z" stroke="none" fill="#786D55"></path>

<path d="M 283.3 291.75
Q 282.2 290.3 279 291 280.1 293.9 285 293.1 285.5 293 286 293 286.5 293 287 293 287.5 293 288 293 289 293 289.8 292.6 290 292.5 290 292 289.5 292 289 292 286.5 292 284 292 283.5 292 283.3 291.75 Z" stroke="none" fill="#5E553F"></path>

<path d="M 269 289
Q 269 289.5 269 290 270 290 271 290 271.5 290 272 290 273.95 289.95 274.75 288.85 275 288.5 275 288 274.5 288 274 288 273 288 272 288 272 288.5 271.85 288.55 270.5 289 269 289 Z" stroke="none" fill="#C19734"></path>

<path d="M 271.1 279.8
Q 270.5 279.5 270 279 272.05 281.95 272 287 272 287.5 272 288 273 288 274 288 274.5 288 275 288 275 287.5 275 287 275 286.5 275 286 275 285.5 274.75 285.2 273.05 282.95 272 280 271.5 280 271.1 279.8 Z" stroke="none" fill="#E0C96E"></path>

<path d="M 269.85 276.55
Q 270 276.5 270 276 269.5 276 269.45 275.85 268.7 273.3 266 273 264.85 278.15 269.85 276.55 Z" stroke="none" fill="#D6C069"></path>

<path d="M 263 293
Q 263 293.5 263 294 263 294.5 263 295 263 295.1060546875 263 295.2 263.0212890625 295.6060546875 263.1 296 263.191015625 296.5615234375 263.2 297.05 264.528125 302.640234375 273 301.1 273.5 301 274 301 280.35 297.85 285.75 293.7 286 293.5 286 293 285.5 293 285 293.1 280.1 293.9 279 291 279 290.5 278.8 290.1 277.65 287.35 275 286 275 286.5 275 287 275 287.5 275 288 275 288.5 274.75 288.85 273.95 289.95 272 290 272 290.5 271.75 290.75 269.1 293.6 263 293 Z" stroke="none" fill="#98612E"></path>

<path d="M 262.25 293.75
Q 262.5 294 263 294 263 293.5 263 293 269.1 293.6 271.75 290.75 272 290.5 272 290 271.5 290 271 290 270 290 269 290 269 290.5 268.85 290.55 265.4 291.9 261 292 261.5 293 262.25 293.75 Z" stroke="none" fill="#966206"></path>

<path d="M 261 291
Q 261 291.5 261 292 265.4 291.9 268.85 290.55 269 290.5 269 290 268.5 290 268 290.1 264.75 290.75 261 291 Z" stroke="none" fill="#BB9227"></path>

<path d="M 248 295
Q 248 295.5 248.05 296 248.75 300.75 247 303 247 303.5 247 304 247 304.5 247 305 254.25 302.4 260 302.05 260.5 302 261 302 261.5 302 262 302 262 301.5 262 301 263.4419921875 299.897265625 263.2 297.05 263.191015625 296.5615234375 263.1 296 263.0212890625 295.6060546875 263 295.2 263 295.1060546875 263 295 263 294.5 263 294 262.5 294 262.25 293.75 261.5 293 261 292 261 291.5 261 291 260.5 291 260 290.95 253.7 290.2 251 293 251 293.5 250.75 293.85 249.95 294.95 248 295 Z" stroke="none" fill="#260F01"></path>

<path d="M 246 295
Q 246 295.5 245.85 295.95 243.3 302.7 229 305 228.5 305 228.05 305.1 206.95 309.95 184 302 194.95 304.1 203.75 297.65 204 297.5 204 297 203.5 297 203.1 296.8 202.5 296.5 202 296 201.5 296 201.15 296.2 194.45 300.35 186 298 186 298.5 185.95 298.5 182.5 299 179 299 179 299.5 179 300 179.5 300 179.55 300.15 180.15 301.65 178 301 178 302 178 303 178 303.5 178 304 179.65 307.35 181.75 310.2 182 310.5 182 311 184.7 311.5 191 311.05 191.5 311 192 311 192 310.5 192 310 202.3 308.75 215 309 215.5 309 216 309 217.5 309 219 309 219.5 309 220 309 220 308.5 220 308 220 307.5 220 307 224.5 307 229 307 229.5 307 230 307 232 307 234 307 234.5 307 235 307 235 306.5 235 306 240.6 303.6 246.05 305.85 246.5 306 247 306 247 305.5 247 305 247 304.5 247 304 247 303.5 247 303 248.75 300.75 248.05 296 248 295.5 248 295 247.5 295 247 295 246.5 295 246 295 Z" stroke="none" fill="#8E663C"></path>

<path d="M 245.25 294.75
Q 245 294.5 245 294 244.5 294 244 294 241 294 238 294 238 294.5 237.9 294.5 230 296 221 296 220.5 296 220 296 213.7 296.2 208 297 207.5 297 207 297 205.5 297 204 297 204 297.5 203.75 297.65 194.95 304.1 184 302 206.95 309.95 228.05 305.1 228.5 305 229 305 243.3 302.7 245.85 295.95 246 295.5 246 295 245.5 295 245.25 294.75 Z" stroke="none" fill="#A06223"></path>

<path d="M 248 293
Q 248 293.5 247.85 293.55 246.5 294 245 294 245 294.5 245.25 294.75 245.5 295 246 295 246.5 295 247 295 247.5 295 248 295 249.95 294.95 250.75 293.85 251 293.5 251 293 250.5 293 250 293 249 293 248 293 Z" stroke="none" fill="#765B06"></path>

<path d="M 247.85 293.55
Q 248 293.5 248 293 247.5 293 247 293 241.5 293 236 293 236 293.5 236 294 236.5 294 237 294 237.5 294 238 294 241 294 244 294 244.5 294 245 294 246.5 294 247.85 293.55 Z" stroke="none" fill="#BD8E1A"></path>

<path d="M 282.8 267.4
Q 283 267.5 283 268 285.55 267.55 285.05 264 285 263.5 285 263
L 284.5 263
Q 284.45 265.95 281 265 281.3 266.7 282.8 267.4 Z" stroke="none" fill="#E1CD75"></path>

<path d="M 280 265
Q 279.5 265 279 265 278.5 265 278 265 276.5 265 275 265 278.9 266.1 282.1 267.8 282.5 268 283 268 283 267.5 282.8 267.4 281.3 266.7 281 265 280.5 265 280 265 Z" stroke="none" fill="#503C0A"></path>

<path d="M 268 264
Q 268 264.5 268 265 271 265 274 265 274.5 265 275 265 276.5 265 278 265 278.5 265 279 265 279 264.5 278.95 264.5 273.5 264 268 264 Z" stroke="none" fill="#856B12"></path>

<path d="M 268 265
Q 268 265.5 268 266 267.9 268.9 266 270 266 270.5 266 271 266 271.5 266 272 266 272.5 266 273 268.7 273.3 269.45 275.85 269.5 276 270 276 272.2 276.3 272.05 279 272 279.5 272 280 273.05 282.95 274.75 285.2 275 285.5 275 286 277.65 287.35 278.8 290.1 279 290.5 279 291 282.2 290.3 283.3 291.75 283.5 292 284 292 284 291.5 284 291 289.85 291.35 292.3 288.25 292.5 288 293 288 295.2 287.7 295.5 285.05 295.5 285 296 285 296 284.5 296 284 296 283 296 282 297.7 281.7 297.5 279
L 298 279
Q 298 278.5 298 278 298 277.5 298 277 303.85 264.85 300.15 252.95 300 252.5 300 252 299.5 252 299 251.95 293.1 251.6 289 253 288.5 253 288.45 253.1 287.4 257.4 286 261 286 261.5 286 262 286 262.5 286 263 286 263.5 286 264 285.75 272 283 268 282.5 268 282.1 267.8 278.9 266.1 275 265 274.5 265 274 265 271 265 268 265 Z" stroke="none" fill="#140704"></path>

<path d="M 268 266
Q 268 265.5 268 265 267.5 265 267.4 265.2 266.7 266.7 265 267 265 269.5 265.5 271.9 265.5 272 266 272 266 271.5 266 271 266 270.5 266 270 267.9 268.9 268 266 Z" stroke="none" fill="#473101"></path>

<path d="M 314.05 239
Q 314 238.5 314 238 314 237.5 313.8 237.4 313 237 312 237 312 245.5 312 254 312 254.5 312 255 315.45 249.45 314.05 239 Z" stroke="none" fill="#657269"></path>

<path d="M 312 237
Q 312 236.5 312.05 236 313.45 227.1 310 223 309.25 231.25 311.45 236.85 311.5 237 312 237
M 280 89
Q 280 88.5 279.85 88.05 279.2 86.3 276 87 275.6 89.9 279.05 89.1 279.5 89 280 89 Z" stroke="none" fill="#75634A"></path>

<path d="M 302 243
Q 302 242.5 302.05 242 302.75 236.75 301 234 301 238 301 242 301 242.5 301 243 301.5 243 302 243 Z" stroke="none" fill="#A86B0C"></path>

<path d="M 302.05 244
Q 302 243.5 302 243 301.5 243 301 243 301 247 301 251 301 251.5 301 252 302.75 249.25 302.05 244 Z" stroke="none" fill="#C58D35"></path>

<path d="M 300 230
Q 300 229.5 300.05 229 300.75 224.25 299 222 299 226 299.5 229.95 299.5 230 300 230 Z" stroke="none" fill="#C89230"></path>

<path d="M 299 219
Q 299 218.5 299.05 218 299.75 213.25 298 211 298 215 298.5 218.95 298.5 219 299 219 Z" stroke="none" fill="#C58B37"></path>

<path d="M 154 334
Q 158.3 338.05 157.15 341.05 157 341.5 157 342 168.85 336.85 178.75 329.65 179 329.5 179 329 179 328.5 179 328 179 327.5 179 327 183.2 324.2 182.05 316 182 315.5 182 315 182 314.5 182 314 181.5 314 181.35 313.75 173 301.35 163 308 163 308.5 163 309 163.5 309.5 163.8 310.1 164 310.5 164 311 166.75 312.25 166.95 316 167 316.5 167 317 167 317.5 167.05 318 168 324.5 163 325 163 325.5 163 326 163 326.5 162.75 326.7 158.45 330.45 154 334 Z" stroke="none" fill="#040B16"></path>

<path d="M 154 330
Q 154 330.5 153.75 330.75 150.75 333.75 148 337 149.75 341.75 156 342 156.5 342 157 342 157 341.5 157.15 341.05 158.3 338.05 154 334 158.45 330.45 162.75 326.7 163 326.5 163 326 162.5 326 162.25 326.25 159.4 329.4 154 330 Z" stroke="none" fill="#061D29"></path>

<path d="M 138.05 316.85
Q 138.5 317 139 317 148.6 314.35 164 315 164.5 315 165 315 165 314.5 164.75 314.15 164.05 312.95 164 311 164 310.5 163.8 310.1 163.5 309.5 163 309 162.5 309 162 309 161.5 309 161.05 309.15 121.4 319.9 98 295 104.35 307.15 117.85 312.45 118 312.5 118 313 128.9 314.1 138.05 316.85 Z" stroke="none" fill="#756D58"></path>

<path d="M 122 299.5
L 122 299
Q 121.5 299 121.2 298.75 118.15 296.35 114 295 114.05 299.5 122 299.5 Z" stroke="none" fill="#AC760B"></path>

<path d="M 133 303
Q 133 302.5 132.85 302.45 129.75 301.25 126 301 128 303 132 303 132.5 303 133 303 Z" stroke="none" fill="#B2820E"></path>

<path d="M 147 303
Q 146.5 303 146 303 140 303 134 303 139.25 304.75 146.9 303.5 147 303.5 147 303 Z" stroke="none" fill="#A77502"></path>

<path d="M 159 303
Q 159.5 303 160 303 161.95 302.95 162.75 301.85 163 301.5 163 301 162.5 301 162.05 301.15 157.45 302.45 151 302 151 302.5 151 303 155 303 159 303 Z" stroke="none" fill="#A9790B"></path>

<path d="M 160 303
Q 159.25 307.25 161.8 308.4 162 308.5 162 309 162.5 309 163 309 163 308.5 163 308 173 301.35 181.35 313.75 181.5 314 182 314 182 313.5 182 313 182 312 182 311 182 310.5 181.75 310.2 179.65 307.35 178 304 177.5 304 177.45 303.85 176.55 301.45 175 300 174.5 300 174 300 169.5 300 165 300 164.5 300 164.1 300.2 163.5 300.5 163 301 163 301.5 162.75 301.85 161.95 302.95 160 303 Z" stroke="none" fill="#250E03"></path>

<path d="M 79.45 216.85
Q 79.5 217 80 217 80 216.5 80.1 216 81.4 208.1 78 205 77.5 212 79.45 216.85 Z" stroke="none" fill="#6E705D"></path>

<path d="M 107 288
Q 105.95 292.85 111 293 111.5 293 112 293 112 292.5 111.75 292.25 109.5 290 107 288 Z" stroke="none" fill="#AC780A"></path>

<path d="M 100 277
Q 100 277.5 100.05 278 100.15 279.65 98 279 99 282 102.05 282.85 102.5 283 103 283 103 282.5 102.85 282.05 101.95 279.05 100 277 Z" stroke="none" fill="#B27918"></path>

<path d="M 96 262
L 95.5 262
Q 95.7 258.8 94 258 94.1 264.4 96.4 268.8 96.5 269 97 269 97 268.5 96.95 268 96.5 265 96 262 Z" stroke="none" fill="#A76C08"></path>

<path d="M 83.45 258.9
Q 83.5 259 84 259 83.45 261.95 82.2 264.1 82 264.5 82 265 86.75 282.75 97.3 294.75 97.5 295 98 295 98 294.5 97.8 294.1 93.15 284.85 88 276 88 275.5 87.95 275 85.75 256.25 82 239 81.35 250.15 83.45 258.9 Z" stroke="none" fill="#776D57"></path>

<path d="M 95 255
Q 94.5 255 94 255 94 256 94 257 94 257.5 94 258 95.7 258.8 95.5 262
L 96 262
Q 96 261.5 96 261 96 257.45 95 255 Z" stroke="none" fill="#C28827"></path>

<path d="M 94 244
Q 94 244.5 94 245 94 245.5 94 246 94 248.5 94 251 94 251.5 94 252 94.5 252 95 252 95 251.5 95.05 251 95.75 246.25 94 244 Z" stroke="none" fill="#D29831"></path>

<path d="M 93.5 246
Q 93.65 243.9 92 244 92.5 248 93.45 251.9 93.5 252 94 252 94 251.5 94 251 94 248.5 94 246
L 93.5 246 Z" stroke="none" fill="#A36405"></path>

<path d="M 81.35 232.8
Q 81.5 233 82 233 82 232.5 82.1 232 83.35 225.15 80 223 79.25 229.25 81.35 232.8 Z" stroke="none" fill="#6C7060"></path>

<path d="M 93 232
Q 92.5 232 92 232 92 236 92.5 239.95 92.5 240 93 240 93 239.5 93 239 93 235.5 93 232 Z" stroke="none" fill="#A87107"></path>

<path d="M 92 226
Q 92 225.5 92.05 225 92.75 219.25 91 216 91 221 91.5 225.95 91.5 226 92 226 Z" stroke="none" fill="#C78F31"></path>

<path d="M 160 244
Q 159.5 244 159.45 244.15 157.7 248.55 154 251 154 250.5 153.95 250 152.95 240.5 146 247 146 246.5 145.85 246.05 144.1 240.45 133 244 133 244.5 133.15 244.55 143.6 247.95 136 251
L 136 250.5
Q 132.7265625 252.714453125 126.45 252.95 119.003515625 242.658203125 123 252 123 252.5 122.75 252.65 115.85 257.5 111 250
L 111 250.5
Q 103 245.85 116 251
L 116 251.5
Q 121.8 245.9 106 247 105.5 247 105.4 247.2 103.3 252.1 104 258 104 258.5 104.2 258.85 107.65 264.4 102 268 103.25 274.75 103.85 277.05 104 277.5 104 278 107.4 283.4 111.05 284.85 111.5 285 112 285 113.15 293 119 292.1 119.5 292 120 292 122.3 296.7 127.85 298.45 128 298.5 128 299 143.7 302.4 160 299.1 160.5 299 161 299 168.45 289.05 169.9 296 170 296.5 170 297 174.2 296.3 174.95 291 175 290.5 175 290 175 289.5 174.9 289 173.4 282.1 174 273 175.5 272 177.1 271.2 177.5 271 178 271 178 270.5 178 270 182 270 185.95 270.5 186 270.5 186 271 187.7 271.3 187.95 273 188 273.5 188 274 188.5 274 189 274 190.1 278.9 191.45 283.85 191.5 284 192 284 192 283.5 192 283 194.5 283 197 283 197.5 283 198 283 210.05 277.55 220.15 270.25 220.5 270 221 270 221 269.5 221 269 225 269 228.95 269.5 229 269.5 229 270 229.5 270 229.75 270.25 230 270.5 230 271 233.95 273.25 230.65 277.75 230.5 278 230 278 230 278.5 229.95 279 229.65 284.65 224 285 224 285.5 223.75 285.8 221.5 288.45 219 286 218.5 286 218.45 286.15 217.7 288.2 215 288 215 288.5 215 289
L 215.5 289
Q 213 293 208 295 208 295.5 208 296 208 296.5 208 297 213.7 296.2 220 296 220.5 296 221 296 221 295.5 221 295 228.7 295.2 235 294.1 235.5 294 236 294 236 293.5 236 293 241.5 293 247 293 247.5 293 248 293 249 293 250 293 250.5 293 251 293 253.7 290.2 260 290.95 260.5 291 261 291 264.75 290.75 268 290.1 268.5 290 269 290 269 289.5 269 289 270.5 289 271.85 288.55 272 288.5 272 288 272 287.5 272 287 272.05 281.95 270 279 270.5 279.5 271.1 279.8 271.5 280 272 280 272 279.5 272.05 279 272.2 276.3 270 276 270 276.5 269.85 276.55 264.85 278.15 266 273 266 272.5 266 272 265.5 272 265.5 271.9 265 269.5 265 267 266.7 266.7 267.4 265.2 267.5 265 268 265 268 264.5 268 264 273.5 264 278.95 264.5 279 264.5 279 265 279.5 265 280 265 280.5 265 281 265 284.45 265.95 284.5 263
L 285 263
Q 285.5 263 286 263 286 262.5 286 262 286 261.5 286 261 287.4 257.4 288.45 253.1 288.5 253 289 253 289 252.5 289 252 290.05 251.05 292 251 292.5 251 293 251 293 250.5 292.8 250.1 290.15 245 296 240 296 239.5 295.8 239.4 288.95 236.35 284 235 284 235.5 283.75 235.8 279.4 240.8 276 234
L 276 233.5
Q 267.15 235.65 274 237
L 274 236.5
Q 277.25 242.8 264 239 264 238.5 264.2 238.4 271.1333984375 235.323828125 264.3 232.15 259.4208984375 236.5564453125 246 234 246 234.5 246.2 234.9 249.15 240.85 245 241 244.5 241 244.15 240.8 238.8 237.7 244 235
L 244.5 235
Q 236.05 225.7 240 236 239.5 236 239.2 236.25 235.2 239.5 226 240 226 240.5 225.85 240.55 219.35 242.85 217 249 216.5 249 216.1 249.2 210.45 251.95 206 256
L 206 255.5
Q 196.75 259.05 191 259 190.5 259 190.15 259.25 185 262.85 175 264 175 263.5 174.75 263.2 171.05 258.95 168 254
L 168.5 254
Q 167.9 247.3 160 244 Z" stroke="none" fill="#F6D33E"></path>

<path d="M 86.5 184.95
Q 86.5 185 87 185 87 184.5 87.05 184 87.75 178.25 86 175 86 180 86.5 184.95 Z" stroke="none" fill="#A87006"></path>

<path d="M 85.35 170.75
Q 85.5 171 86 171 86 170.5 85.9 170 85.1 166.4 85 162 84.5 162 84 162 83.25 167.75 85.35 170.75 Z" stroke="none" fill="#A46708"></path>

<path d="M 83 134
Q 82.5 134 82 134 82 140.5 82.5 146.95 82.5 147 83 147 83 146.5 83 146 83 140 83 134
M 293 163
Q 293 163.5 293 164 293.5 164 294 164 294 163.5 294.05 163 294.75 158.25 293 156 293 159.5 293 163 Z" stroke="none" fill="#A36504"></path>

<path d="M 84 133
Q 83.5 133 83 133 83 133.5 83 134 83 140 83 146 83 146.5 83 147 83.5 147 84 147 84 146.5 84 146 84 139.5 84 133 Z" stroke="none" fill="#CF943C"></path>

<path d="M 87 123
Q 87.15 120.3 84 123 84.05 124.95 85.15 125.75 85.5 126 86 126 86 125.5 86 125 86.5 125 86.75 124.75 87 124.5 87 124 87 123.5 87 123 Z" stroke="none" fill="#A56906"></path>

<path d="M 77 197
Q 76.5 197 76 197 77 199.45 77.5 202.95 77.5 203 78 203 78 202.5 78 202 78 199.5 78 197 77.5 197 77 197 Z" stroke="none" fill="#65726A"></path>

<path d="M 76 189
Q 76 190 76 191 76 191.5 76 192 76 194 76 196 76 196.5 76 197 76.5 197 77 197 77.5 197 78 197 78 196.5 78.1 196 79.3 190.2 76 189 Z" stroke="none" fill="#786951"></path>

<path d="M 76 177
Q 76 176.5 76.1 176 77.3 170.2 74 169 73.45 174.1 75.35 176.75 75.5 177 76 177 Z" stroke="none" fill="#766344"></path>

<path d="M 73 135
Q 72.5 135 72 135 71.25 148.25 73.5 158.9 73.5 159 74 159 74 158.5 74 158 74 146.5 74 135 73.5 135 73 135 Z" stroke="none" fill="#836137"></path>

<path d="M 74 132
Q 74 131.5 74 131 73.5 131 73 131 72.5 131 72 131 72 132.5 72 134 72 134.5 72 135 72.5 135 73 135 73.5 135 74 135 74 134.5 74 134 74 133.5 74 133 74 132.5 74 132 Z" stroke="none" fill="#6B6554"></path>

<path d="M 76.1 126
Q 76 125.5 76 125 75.5 125 75 125 74.5 125 74 125 74 127.5 74 130 74 130.5 74 131 74 131.5 74 132 74 132.5 74 133 77.3 131.8 76.1 126 Z" stroke="none" fill="#8C5F30"></path>

<path d="M 78 116
Q 78 116.5 78 117 85.95 108.45 93.75 99.8 94 99.5 94 99 93.5 99 93.15 99.2 83.6 105.1 78 115 78 115.5 78 116
M 304 159
Q 304 158.5 304.05 158 304.75 149.75 302 145 301.25 153.25 303.45 158.85 303.5 159 304 159 Z" stroke="none" fill="#74634B"></path>

<path d="M 121 97
Q 117.5 97 114 97 114 97.5 114 98 114 98.5 114 99 117.2 97.7 122 97.5
L 122 97
Q 121.5 97 121 97 Z" stroke="none" fill="#A56707"></path>

<path d="M 106 91
Q 105.5 91 105 91 103.5 91 102 91 102 91.5 102 92 102 92.5 102 93 105.2 93.7 105.85 91.95 106 91.5 106 91 Z" stroke="none" fill="#71634B"></path>

<path d="M 110 89
Q 109.5 89 109 89 107.5 89 106 89 106 89.5 106 90 106 90.5 106 91 109.2 91.7 109.85 89.95 110 89.5 110 89 Z" stroke="none" fill="#6F624C"></path>

<path d="M 111 88
Q 111 88.5 111 89 124.8 87.8 137.9 85.5 138 85.5 138 85 137.5 85 137 85 122.65 85.15 111 88 Z" stroke="none" fill="#72644D"></path>

<path d="M 96 96
Q 96 96.5 96 97 100.65 97.15 101.85 93.95 102 93.5 102 93 101.5 93 101.05 93.15 98.5 94 96 95 96 95.5 96 96 Z" stroke="none" fill="#74644B"></path>

<path d="M 306 181
Q 306 180.5 306.05 180 307.2 170.3 304 165 303.25 174.25 305.45 180.85 305.5 181 306 181 Z" stroke="none" fill="#73634A"></path>

<path d="M 296 183
Q 295.5 183 295 183 295 187 295.5 190.95 295.5 191 296 191 296 190.5 296 190 296 186.5 296 183 Z" stroke="none" fill="#C68A2A"></path>

<path d="M 294 171
Q 294 171.5 294 172 294.5 177 294.95 182 295 182.5 295 183 295.5 183 296 183 296 182.5 296.05 182 297.3 173.7 294 170 294 170.5 294 171 Z" stroke="none" fill="#A7690C"></path>

<path d="M 293 164
Q 293 168 293.5 171.95 293.5 172 294 172 294 171.5 294 171 294 170.5 294 170 294 169.5 294 169 294 166.5 294 164 293.5 164 293 164 Z" stroke="none" fill="#C38727"></path>

<path d="M 293 156
Q 292.5 156 292 156 292 160 292.5 163.95 292.5 164 293 164 293 163.5 293 163 293 159.5 293 156 Z" stroke="none" fill="#C78935"></path>

<path d="M 302 143
Q 302 142.5 302.05 142 302.75 133.75 300 129 299.25 137.25 301.45 142.85 301.5 143 302 143 Z" stroke="none" fill="#71624D"></path>

<path d="M 291 141
Q 291 142 291 143 291 143.5 291 144 291 147.5 291.5 150.95 291.5 151 292 151 292 150.5 292.05 150 292.75 144.25 291 141 Z" stroke="none" fill="#AE7011"></path>

<path d="M 290.5 143.95
Q 290.5 144 291 144 291 143.5 291 143 291 142 291 141 291 140.5 291.1 140 291.7 136.3 290 135 290 139.5 290.5 143.95 Z" stroke="none" fill="#C28331"></path>

<path d="M 290 130
Q 290 129.5 290.05 129 290.95 122 288 119 288.35 124.65 289.5 129.9 289.5 130 290 130 Z" stroke="none" fill="#B6781E"></path>

<path d="M 300.1 122
Q 300.75 117.75 298 117 297.6 125.65 299.35 123.25 299.5 123 300 123 300 122.5 300.1 122 Z" stroke="none" fill="#796348"></path>

<path d="M 298 115
Q 298 114.5 298.1 114.05 298.95 110.6 296 111 295.3 114.2 297.05 114.85 297.5 115 298 115 Z" stroke="none" fill="#7D6246"></path>

<path d="M 285.4 111.8
Q 285.5 112 286 112 286 111.5 285.95 111 285.4 104.6 280 103 283.05 106.95 285.4 111.8 Z" stroke="none" fill="#AE7013"></path>

<path d="M 294 105
Q 294 104.5 293.9 104.05 292.6 98.9 288 97 289.45 102.05 293.15 104.75 293.5 105 294 105 Z" stroke="none" fill="#74634E"></path>

<path d="M 233 85
Q 233 85.5 233 86 235.5 86 238 86 238.5 86 239 86 240 86 241 86 241.5 86 242 86 242 85.5 241.95 85.5 237.5 85 233 85 Z" stroke="none" fill="#A56807"></path>

<path d="M 238.95 86.5
Q 239 86.5 239 86 238.5 86 238 86 235.5 86 233 86 232.5 86 232 86 231.5 86 231 86 231 86.5 231 87 235 87 238.95 86.5 Z" stroke="none" fill="#CE923F"></path>

<path d="M 217 87
Q 217 87.5 217 88 221.5 88 225.95 87.5 226 87.5 226 87 225.5 87 225 87 221 87 217 87 Z" stroke="none" fill="#B7781E"></path>

<path d="M 200 90
Q 200 89.5 199.95 89.5 196 89 192 89 192.5 89.5 193.1 89.8 193.5 90 194 90 196.5 90 199 90 199.5 90 200 90 Z" stroke="none" fill="#A26402"></path>

<path d="M 194 90
Q 194 90.5 193.95 90.5 158.1 94.1 122 97
L 122 97.5
Q 117.2 97.7 114 99 114 99.5 113.85 99.55 94.3 105.8 87 124 87 124.5 86.75 124.75 86.5 125 86 125 86 125.5 86 126 86 126.5 85.95 127 85.7 130.2 84 132 84 132.5 84 133 84 139.5 84 146 84 146.5 84 147 84.25 154.25 84.95 161 85 161.5 85 162 85.1 166.4 85.9 170 86 170.5 86 171 86 172.5 86 174 86 174.5 86 175 87.75 178.25 87.05 184 87 184.5 87 185 89.75 199.25 90.95 215 91 215.5 91 216 92.75 219.25 92.05 225 92 225.5 92 226 92.2 228.8 92.85 231.05 93 231.5 93 232 93 235.5 93 239 93 239.5 93 240 93.05 241.95 93.75 243.15 94 243.5 94 244 95.75 246.25 95.05 251 95 251.5 95 252 95 253 95 254 95 254.5 95 255 96 257.45 96 261 96 261.5 96 262 96.5 265 96.95 268 97 268.5 97 269 98.45 272.55 99.85 276.05 100 276.5 100 277 101.95 279.05 102.85 282.05 103 282.5 103 283 105.45 284.55 106.8 287.1 107 287.5 107 288 109.5 290 111.75 292.25 112 292.5 112 293 114.15 292.4 114.05 294 114 294.5 114 295 118.15 296.35 121.2 298.75 121.5 299 122 299 123.3 300.25 125.95 300.5 126 300.5 126 301 129.75 301.25 132.85 302.45 133 302.5 133 303 133.5 303 134 303 140 303 146 303 146.5 303 147 303 148.5 303 150 303 150.5 303 151 303 151 302.5 151 302 157.45 302.45 162.05 301.15 162.5 301 163 301 163.5 300.5 164.1 300.2 164.5 300 165 300 165 299.5 165 299 169.5 299 174 299 174.5 299 175 299 176.7 297.7 176.1 294 176 293.5 176 293 176 292.5 176.1 292.05 176.65 289.9 175 290 175 290.5 174.95 291 174.2 296.3 170 297 170 296.5 169.9 296 168.45 289.05 161 299 160.5 299 160 299.1 143.7 302.4 128 299 128 298.5 127.85 298.45 122.3 296.7 120 292 119.5 292 119 292.1 113.15 293 112 285 111.5 285 111.05 284.85 107.4 283.4 104 278 104 277.5 103.85 277.05 103.25 274.75 102 268 107.65 264.4 104.2 258.85 104 258.5 104 258 103.3 252.1 105.4 247.2 105.5 247 106 247 121.8 245.9 116 251.5
L 116 251
Q 103 245.85 111 250.5
L 111 250
Q 115.85 257.5 122.75 252.65 123 252.5 123 252 119.003515625 242.658203125 126.45 252.95 132.7265625 252.714453125 136 250.5
L 136 251
Q 143.6 247.95 133.15 244.55 133 244.5 133 244 144.1 240.45 145.85 246.05 146 246.5 146 247 152.95 240.5 153.95 250 154 250.5 154 251 157.7 248.55 159.45 244.15 159.5 244 160 244 167.9 247.3 168.5 254
L 168 254
Q 171.05 258.95 174.75 263.2 175 263.5 175 264 185 262.85 190.15 259.25 190.5 259 191 259 196.75 259.05 206 255.5
L 206 256
Q 210.45 251.95 216.1 249.2 216.5 249 217 249 219.35 242.85 225.85 240.55 226 240.5 226 240 235.2 239.5 239.2 236.25 239.5 236 240 236 236.05 225.7 244.5 235
L 244 235
Q 238.8 237.7 244.15 240.8 244.5 241 245 241 249.15 240.85 246.2 234.9 246 234.5 246 234 259.4208984375 236.5564453125 264.3 232.15 271.1333984375 235.323828125 264.2 238.4 264 238.5 264 239 277.25 242.8 274 236.5
L 274 237
Q 267.15 235.65 276 233.5
L 276 234
Q 279.4 240.8 283.75 235.8 284 235.5 284 235 288.95 236.35 295.8 239.4 296 239.5 296 240 290.15 245 292.8 250.1 293 250.5 293 251 296.5 251 299.95 251.5 300 251.5 300 252 300.5 252 301 252 301 251.5 301 251 301 247 301 243 301 242.5 301 242 301 238 301 234 300.5 234 300.45 233.9 300 232 300 230 299.5 230 299.5 229.95 299 226 299 222 299 221.5 299 221 299 220 299 219 298.5 219 298.5 218.95 298 215 298 211 298 210.5 297.9 210 296.1 201.4 296 191 295.5 191 295.5 190.95 295 187 295 183 295 182.5 294.95 182 294.5 177 294 172 293.5 172 293.5 171.95 293 168 293 164 292.5 164 292.5 163.95 292 160 292 156 292 155.5 292 155 292 153 292 151 291.5 151 291.5 150.95 291 147.5 291 144 290.5 144 290.5 143.95 290 139.5 290 135 290 134.5 290 134 290 132 290 130 289.5 130 289.5 129.9 288.35 124.65 288 119 287.5 119 287.35 118.8 285.85 116.15 286 112 285.5 112 285.4 111.8 283.05 106.95 280 103 279.5 103 279.35 102.75 268.6 86.4 242 86 241.5 86 241 86 240 86 239 86 239 86.5 238.95 86.5 235 87 231 87 230.5 87 230 87 228 87 226 87 226 87.5 225.95 87.5 221.5 88 217 88 216.5 88 216 88.1 208.4 89.4 200 90 199.5 90 199 90 196.5 90 194 90
M 261.9 97.5
Q 262 97.5 262 98 262.35 102.5 257.9 104.8 257.5 105 257 105 233 105.5 209 108.95 208.5 109 208 109 205.45 107.95 204.15 107.55 204 107.5 204 107 154.6 116.7 106.05 110.5 106 110.5 106 110 185.45 85.55 261.9 97.5
M 179.95 132.5
Q 180 132.5 180 133 230.1 139.95 240.9 186.05 241 186.5 241 187 242.75 190.75 241.5 196.9 241.5 197 241 197 241 197.5 241.1 198 241.7 200.7 240 201 240 201.5 239.9 202 237.3 215.3 230 224 230 224.5 230 225 230 225.5 230.1 226 230.9 229.9 227 229 226.5 229 226.35 229.25 222.25 235.75 216 240 216 240.5 215.75 240.75 215 241.5 214 242 214 242.5 214 243 214 243.5 213.8 243.9 209.85 252.8 202 253 202 253.5 201.9 253.55 193.2 255.85 187 257 186.5 257 186 257 186 257.5 185.75 257.75 185.5 258 185 258 185 258.5 184.85 258.55 178.15 260.35 176 257 176.5 257 177 257 177 256.5 176.75 256.3 168.8 249.65 168 236 167.5 236 167.45 235.9 166.5 232 166 228 166 227.5 165.9 227 159.15 195.35 152 164 151.5 164 151.45 163.85 149.2 157.8 148 151 147.5 151 147.5 150.95 147 146.5 147 142 147.5 142 148 142 150.85 134.35 160 133.05 160.5 133 161 133 161 132.5 161 132 170.5 132 179.95 132.5
M 98.2 245.9
Q 98 245.5 98 245 101.2 251.7 98.2 245.9
M 125.15 247.55
Q 125 247.5 125 247 136.7 251.1 125.15 247.55
M 286 233
Q 295.25 228.55 286 233.5
L 286 233
M 283.2 234.15
Q 283 234.5 283 235 277.65 234.35 276.15 229.95 276 229.5 276 229 286.4 228.9 283.2 234.15
M 162.25 235.65
Q 162 235.5 162 235 167.45 239.15 162.25 235.65 Z" stroke="none" fill="#F8C343"></path>

<path d="M 162 235
Q 162 235.5 162.25 235.65 167.45 239.15 162 235
M 286 233.5
Q 295.25 228.55 286 233
L 286 233.5
M 125 247
Q 125 247.5 125.15 247.55 136.7 251.1 125 247
M 98 245
Q 98 245.5 98.2 245.9 101.2 251.7 98 245 Z" stroke="none" fill="#F8D23E"></path>

<path d="M 283 235
Q 283 234.5 283.2 234.15 286.4 228.9 276 229 276 229.5 276.15 229.95 277.65 234.35 283 235 Z" stroke="none" fill="#F8D13E"></path>

<path d="M 185 258
Q 184.5 258 184 258.05 179.25 258.75 177 257 176.5 257 176 257 178.15 260.35 184.85 258.55 185 258.5 185 258 Z" stroke="none" fill="#E6D074"></path>

<path d="M 185.75 257.75
Q 186 257.5 186 257 185.5 257 185 257 181 257 177 257 179.25 258.75 184 258.05 184.5 258 185 258 185.5 258 185.75 257.75 Z" stroke="none" fill="#BFA04A"></path>

<path d="M 201.9 253.55
Q 202 253.5 202 253 201.5 253 201 253 192.95 253.45 187 256 187 256.5 187 257 193.2 255.85 201.9 253.55 Z" stroke="none" fill="#D8C375"></path>

<path d="M 167.45 235.9
Q 167.5 236 168 236 168 235.5 168 235 168.25 230.25 166 228 166.5 232 167.45 235.9 Z" stroke="none" fill="#9E823B"></path>

<path d="M 230.1 226
Q 230 225.5 230 225 229.5 225 229.4 225.2 228.5 227 227 228 227 228.5 227 229 230.9 229.9 230.1 226 Z" stroke="none" fill="#C1AA5C"></path>

<path d="M 214 243
Q 213.5 243 213.25 243.25 208.2 248.2 202 252 202 252.5 202 253 209.85 252.8 213.8 243.9 214 243.5 214 243 Z" stroke="none" fill="#DBC56D"></path>

<path d="M 148 142
Q 147.5 142 147 142 147 146.5 147.5 150.95 147.5 151 148 151 148 150.5 148 150 148 146 148 142 Z" stroke="none" fill="#C99426"></path>

<path d="M 241 192
Q 240.5 192 240 192 240 196 240 200 240 200.5 240 201 241.7 200.7 241.1 198 241 197.5 241 197 241 196.5 241 196 241 194 241 192 Z" stroke="none" fill="#664705"></path>

<path d="M 241 187
Q 241 189 241 191 241 191.5 241 192 241 194 241 196 241 196.5 241 197 241.5 197 241.5 196.9 242.75 190.75 241 187 Z" stroke="none" fill="#D2AD53"></path>

<path d="M 180 133
Q 180 132.5 179.95 132.5 170.5 132 161 132 161 132.5 161 133 170 133 179 133 179.5 133 180 133 Z" stroke="none" fill="#8F5E0A"></path>

<path d="M 205 143
Q 204.5 143 204.05 142.85 200.05 141.4 196 142 196 141.5 195.8 141.35 187.55 136.6 180 135 179.5 135 179 134.95 158.1 133.7 150 147 152.95 154.65 152.05 163 152 163.5 152 164 159.15 195.35 165.9 227 166 227.5 166 228 168.25 230.25 168 235 168 235.5 168 236 168.8 249.65 176.75 256.3 177 256.5 177 257 181 257 185 257 185.5 257 186 257 186.5 257 187 257 187 256.5 187 256 192.95 253.45 201 253 201.5 253 202 253 202 252.5 202 252 208.2 248.2 213.25 243.25 213.5 243 214 243 214 242.5 214 242 215 241.5 215.75 240.75 216 240.5 216 240 216 239.5 216.15 239.05 220.05 227.95 228 223 228 222.5 227.95 222.5 225.3 222.15 228 219 228.5 219 228.65 218.75 237.55 206.55 238 186 237.5 186 237.4 185.8 232.75 176.75 230 166 230 165.5 229.75 165.25 216.95 153.25 205 143
M 164 146
Q 164.5 146 165 146 165 145.5 165 145 172.5 145 179.95 145.5 180 145.5 180 146 181 146 181.8 146.4 182 146.5 182 147 205.9 151.6 216.8 169.15 217 169.5 217 170 219.4 171.6 219.9 175 220 175.5 220 176 221.85 179.2 222.85 183.05 223 183.5 223 184 224.75 186.25 224.05 191 224 191.5 224 192 224 192.5 223.9 193 223.1 197.6 222 202 222 202.5 222.05 203 222.2 206.7 220 208 220 208.5 219.9 209 219.5 211 218 212 218 212.5 217.85 212.95 215 220.5 209 225 209 225.5 208.75 225.75 207.5 227 206 228 206 228.5 205.8 228.85 203.15 233.15 199 236 199 236.5 198.8 236.65 196.8 237.8 194 238 194 238.5 194 239 194 239.5 193.8 239.6 189.3 241.8 186 240 186 239.5 186 239 186 238 186 237 185.5 237 185.5 236.95 184.7 230.75 183 226 183 225.5 183 225 182.5 225 182.4 224.8 180.5 220.5 180 215 180 214.5 179.9 214.05 178.55 208.95 178 203 177.5 203 177.4 202.8 174.25 197.25 174 189 174 188.5 173.9 188.05 169.6 171.4 166 154 165.5 154 165.45 153.85 164.1 150.4 164 146 Z" stroke="none" fill="#140805"></path>

<path d="M 199 236
Q 199 235.5 198.95 235.5 195.55 235.05 194 237 194 237.5 194 238 196.8 237.8 198.8 236.65 199 236.5 199 236 Z" stroke="none" fill="#D8B758"></path>

<path d="M 190 239
Q 190 239.5 189.9 239.55 188 240 186 240 189.3 241.8 193.8 239.6 194 239.5 194 239 193.5 239 193 239 191.5 239 190 239 Z" stroke="none" fill="#5C440D"></path>

<path d="M 189.9 239.55
Q 190 239.5 190 239 189.5 239 189.45 238.85 188.7 236.8 186 237 186 238 186 239 186 239.5 186 240 188 240 189.9 239.55 Z" stroke="none" fill="#CAB05A"></path>

<path d="M 183 226
Q 183.5 226 183.55 225.85 185.3 220.2 182 219 182.2 221.8 182.85 224.05 183 224.5 183 225 183 225.5 183 226 Z" stroke="none" fill="#E0BE65"></path>

<path d="M 182 219
Q 182 218.5 181.8 218.1 181 216.5 180 215 180.5 220.5 182.4 224.8 182.5 225 183 225 183 224.5 182.85 224.05 182.2 221.8 182 219 Z" stroke="none" fill="#593E09"></path>

<path d="M 178 203
Q 178 202.5 178 202 178 201.5 178 201 177.5 201 177.5 200.95 176.55 194 174 189 174.25 197.25 177.4 202.8 177.5 203 178 203 Z" stroke="none" fill="#5E440E"></path>

<path d="M 206 228
Q 207.5 227 208.75 225.75 209 225.5 209 225
L 209 224.5
Q 207.5 225.45 206 224 206 225.5 206 227 206 227.5 206 228 Z" stroke="none" fill="#E2C562"></path>

<path d="M 220 208
Q 220 207.5 220 207 219.5 207 219 207 218.5 207 218 207 218 209 218 211 218 211.5 218 212 219.5 211 219.9 209 220 208.5 220 208 Z" stroke="none" fill="#D9B861"></path>

<path d="M 222.05 203
Q 222 202.5 222 202 222 201.5 222 201 221.5 201 221.1 201.2 220.5 201.5 220 202 220 204 220 206 220 206.5 220 207 220 207.5 220 208 222.2 206.7 222.05 203 Z" stroke="none" fill="#CDAD55"></path>

<path d="M 224 192
Q 224 191.5 224.05 191 224.75 186.25 223 184 223 188 223.5 191.95 223.5 192 224 192 Z" stroke="none" fill="#936F1E"></path>

<path d="M 223 184
Q 223 183.5 222.85 183.05 221.85 179.2 220 176 222.6 186.4 222 200 222 200.5 222 201 222 201.5 222 202 223.1 197.6 223.9 193 224 192.5 224 192 223.5 192 223.5 191.95 223 188 223 184 Z" stroke="none" fill="#D9BA65"></path>

<path d="M 184 154
Q 184 153.5 183.75 153.35 174.25 146.45 169 153 170.45 163 171.75 164.25 172 164.5 172 165 175.7 181.25 177.95 200 178 200.5 178 201 178 201.5 178 202 178 202.5 178 203 178.55 208.95 179.9 214.05 180 214.5 180 215 181 216.5 181.8 218.1 182 218.5 182 219 185.3 220.2 183.55 225.85 183.5 226 183 226 184.7 230.75 185.5 236.95 185.5 237 186 237 188.7 236.8 189.45 238.85 189.5 239 190 239 191.5 239 193 239 193.5 239 194 239 194 238.5 194 238 194 237.5 194 237 195.55 235.05 198.95 235.5 199 235.5 199 236 203.15 233.15 205.8 228.85 206 228.5 206 228 206 227.5 206 227 206 225.5 206 224 207.5 225.45 209 224.5
L 209 225
Q 215 220.5 217.85 212.95 218 212.5 218 212 218 211.5 218 211 218 209 218 207 218.5 207 219 207 219.5 207 220 207 220 206.5 220 206 220 204 220 202 220.5 201.5 221.1 201.2 221.5 201 222 201 222 200.5 222 200 222.6 186.4 220 176 220 175.5 219.9 175 219.4 171.6 217 170 217 170.5 216.95 170.5 214.85 170.75 208 167 208 166.5 208.25 166.3 211.05 164.25 204 163 204 162.5 203.75 162.2 196.85 152.85 184 154 Z" stroke="none" fill="#F6C43F"></path>

<path d="M 182 147
Q 181.5 147 181 147 173.5 147 166 147 166 148 166 149 166 149.5 166 150 166 151.5 166 153 166 153.5 166 154 169.6 171.4 173.9 188.05 174 188.5 174 189 176.55 194 177.5 200.95 177.5 201 178 201 178 200.5 177.95 200 175.7 181.25 172 165 172 164.5 171.75 164.25 170.45 163 169 153 174.25 146.45 183.75 153.35 184 153.5 184 154 196.85 152.85 203.75 162.2 204 162.5 204 163 211.05 164.25 208.25 166.3 208 166.5 208 167 214.85 170.75 216.95 170.5 217 170.5 217 170 217 169.5 216.8 169.15 205.9 151.6 182 147 Z" stroke="none" fill="#E6B954"></path>

<path d="M 180 146
Q 179.5 146 179 146 172 146 165 146 165 148 165.45 149.9 165.5 150 166 150 166 149.5 166 149 166 148 166 147 173.5 147 181 147 181.5 147 182 147 182 146.5 181.8 146.4 181 146 180 146 Z" stroke="none" fill="#CFB677"></path>

<path d="M 165 145
Q 165 145.5 165 146 172 146 179 146 179.5 146 180 146 180 145.5 179.95 145.5 172.5 145 165 145 Z" stroke="none" fill="#7E6729"></path>

<path d="M 165 146
Q 164.5 146 164 146 164.1 150.4 165.45 153.85 165.5 154 166 154 166 153.5 166 153 166 151.5 166 150 165.5 150 165.45 149.9 165 148 165 146 Z" stroke="none" fill="#725920"></path>

<path d="M 204.05 142.85
Q 204.5 143 205 143 216.95 153.25 229.75 165.25 230 165.5 230 166 232.75 176.75 237.4 185.8 237.5 186 238 186 237.55 206.55 228.65 218.75 228.5 219 228 219 225.3 222.15 227.95 222.5 228 222.5 228 223 220.05 227.95 216.15 239.05 216 239.5 216 240 222.25 235.75 226.35 229.25 226.5 229 227 229 227 228.5 227 228 228.5 227 229.4 225.2 229.5 225 230 225 230 224.5 230 224 237.3 215.3 239.9 202 240 201.5 240 201 240 200.5 240 200 240 196 240 192 240.5 192 241 192 241 191.5 241 191 241 189 241 187 241 186.5 240.9 186.05 230.1 139.95 180 133 179.5 133 179 133 170 133 161 133 160.5 133 160 133.05 150.85 134.35 148 142 148 146 148 150 148 150.5 148 151 149.2 157.8 151.45 163.85 151.5 164 152 164 152 163.5 152.05 163 152.95 154.65 150 147 158.1 133.7 179 134.95 179.5 135 180 135 187.55 136.6 195.8 141.35 196 141.5 196 142 200.05 141.4 204.05 142.85 Z" stroke="none" fill="#301301"></path>

<path d="M 262 98
Q 262 97.5 261.9 97.5 185.45 85.55 106 110 106 110.5 106.05 110.5 154.6 116.7 204 107 204 107.5 204.15 107.55 205.45 107.95 208 109 208.5 109 209 108.95 233 105.5 257 105 257.5 105 257.9 104.8 262.35 102.5 262 98 Z" stroke="none" fill="#FEDE6F"></path>

<path d="M 184 81
L 184 80.5
Q 164.4 80.9 148 85 165.1 85.1 183 81.1 183.5 81 184 81 Z" stroke="none" fill="#78654C"></path>

<path d="M 286 95
Q 286 94.5 286 94 285.95 88.55 280 89 281.85 92.65 285.15 94.75 285.5 95 286 95 Z" stroke="none" fill="#74644D"></path>

<path d="M 276 87
Q 276 86.5 275.8 86.1 272.55 78.95 262 79 269.55 81.95 275.2 86.75 275.5 87 276 87
M 256 77
L 256 76.5
Q 219.7 74.7 185 80 185 80.5 185 81 219.55 78.55 255 77 255.5 77 256 77 Z" stroke="none" fill="#76644C"></path>

<path d="M 261.8 78.15
Q 260.7 76.3 257 77 257.45 79.55 261 79.05 261.5 79 262 79 262 78.5 261.8 78.15 Z" stroke="none" fill="#70634F"></path>

<path d="M 256 77
Q 255.5 77 255 77 219.55 78.55 185 81 184.5 81 184 81 183.5 81 183 81.1 165.1 85.1 148 85 147.5 85 147 85 142.5 85 138 85 138 85.5 137.9 85.5 124.8 87.8 111 89 110.5 89 110 89 110 89.5 109.85 89.95 109.2 91.7 106 91 106 91.5 105.85 91.95 105.2 93.7 102 93 102 93.5 101.85 93.95 100.65 97.15 96 97 95.5 97 95 97 94.5 97 94 97 94 97.5 94 98 94 98.5 94 99 94 99.5 93.75 99.8 85.95 108.45 78 117 78 117.5 77.75 117.75 77 118.5 76 119 76 121.5 76 124 76 124.5 76 125 76 125.5 76.1 126 77.3 131.8 74 133 74 133.5 74 134 74 134.5 74 135 74 146.5 74 158 74 158.5 74 159 74 163.5 74 168 74 168.5 74 169 77.3 170.2 76.1 176 76 176.5 76 177 76 182.5 76 188 76 188.5 76 189 79.3 190.2 78.1 196 78 196.5 78 197 78 199.5 78 202 78 202.5 78 203 78 203.5 78 204 78 204.5 78 205 81.4 208.1 80.1 216 80 216.5 80 217 80 219.5 80 222 80 222.5 80 223 83.35 225.15 82.1 232 82 232.5 82 233 82 235.5 82 238 82 238.5 82 239 85.75 256.25 87.95 275 88 275.5 88 276 93.15 284.85 97.8 294.1 98 294.5 98 295 121.4 319.9 161.05 309.15 161.5 309 162 309 162 308.5 161.8 308.4 159.25 307.25 160 303 159.5 303 159 303 155 303 151 303 150.5 303 150 303 148.5 303 147 303 147 303.5 146.9 303.5 139.25 304.75 134 303 133.5 303 133 303 132.5 303 132 303 128 303 126 301 126 300.5 125.95 300.5 123.3 300.25 122 299
L 122 299.5
Q 114.05 299.5 114 295 114 294.5 114.05 294 114.15 292.4 112 293 111.5 293 111 293 105.95 292.85 107 288 107 287.5 106.8 287.1 105.45 284.55 103 283 102.5 283 102.05 282.85 99 282 98 279 100.15 279.65 100.05 278 100 277.5 100 277 100 276.5 99.85 276.05 98.45 272.55 97 269 96.5 269 96.4 268.8 94.1 264.4 94 258 94 257.5 94 257 94 256 94 255 94.5 255 95 255 95 254.5 95 254 95 253 95 252 94.5 252 94 252 93.5 252 93.45 251.9 92.5 248 92 244 93.65 243.9 93.5 246
L 94 246
Q 94 245.5 94 245 94 244.5 94 244 94 243.5 93.75 243.15 93.05 241.95 93 240 92.5 240 92.5 239.95 92 236 92 232 92.5 232 93 232 93 231.5 92.85 231.05 92.2 228.8 92 226 91.5 226 91.5 225.95 91 221 91 216 91 215.5 90.95 215 89.75 199.25 87 185 86.5 185 86.5 184.95 86 180 86 175 86 174.5 86 174 86 172.5 86 171 85.5 171 85.35 170.75 83.25 167.75 84 162 84.5 162 85 162 85 161.5 84.95 161 84.25 154.25 84 147 83.5 147 83 147 82.5 147 82.5 146.95 82 140.5 82 134 82.5 134 83 134 83 133.5 83 133 83.5 133 84 133 84 132.5 84 132 85.7 130.2 85.95 127 86 126.5 86 126 85.5 126 85.15 125.75 84.05 124.95 84 123 87.15 120.3 87 123 87 123.5 87 124 94.3 105.8 113.85 99.55 114 99.5 114 99 114 98.5 114 98 114 97.5 114 97 117.5 97 121 97 121.5 97 122 97 158.1 94.1 193.95 90.5 194 90.5 194 90 193.5 90 193.1 89.8 192.5 89.5 192 89 196 89 199.95 89.5 200 89.5 200 90 208.4 89.4 216 88.1 216.5 88 217 88 217 87.5 217 87 221 87 225 87 225.5 87 226 87 228 87 230 87 230.5 87 231 87 231 86.5 231 86 231.5 86 232 86 232.5 86 233 86 233 85.5 233 85 237.5 85 241.95 85.5 242 85.5 242 86 268.6 86.4 279.35 102.75 279.5 103 280 103 285.4 104.6 285.95 111 286 111.5 286 112 285.85 116.15 287.35 118.8 287.5 119 288 119 290.95 122 290.05 129 290 129.5 290 130 290 132 290 134 290 134.5 290 135 291.7 136.3 291.1 140 291 140.5 291 141 292.75 144.25 292.05 150 292 150.5 292 151 292 153 292 155 292 155.5 292 156 292.5 156 293 156 294.75 158.25 294.05 163 294 163.5 294 164 294 166.5 294 169 294 169.5 294 170 297.3 173.7 296.05 182 296 182.5 296 183 296 186.5 296 190 296 190.5 296 191 296.1 201.4 297.9 210 298 210.5 298 211 299.75 213.25 299.05 218 299 218.5 299 219 299 220 299 221 299 221.5 299 222 300.75 224.25 300.05 229 300 229.5 300 230 300 232 300.45 233.9 300.5 234 301 234 302.75 236.75 302.05 242 302 242.5 302 243 302 243.5 302.05 244 302.75 249.25 301 252 300.5 252 300 252 300 252.5 300.15 252.95 303.85 264.85 298 277 298 277.5 298 278 298 278.5 298 279 302.1 280.1 302.5 277.05 302.5 277 303 277 303 276.5 303 276 303 275.5 303 275 304.35 273.35 305.4 271.2 305.5 271 306 271 306 270.5 306 270 306 269.5 306 269 308.1 266.6 309.45 263.15 309.5 263 310 263 310 262.5 310 262 310 260.5 310 259 311.65 259.15 311.5 257
L 312 257
Q 312 256.5 312 256 312 255.5 312 255 312 254.5 312 254 312 245.5 312 237 311.5 237 311.45 236.85 309.25 231.25 310 223 310 222.5 309.95 222 308.05 201.45 306 181 305.5 181 305.45 180.85 303.25 174.25 304 165 304 164.5 304 164 304 161.5 304 159 303.5 159 303.45 158.85 301.25 153.25 302 145 302 144.5 302 144 302 143.5 302 143 301.5 143 301.45 142.85 299.25 137.25 300 129 300 128.5 300 128 300 125.5 300 123 299.5 123 299.35 123.25 297.6 125.65 298 117 298 116.5 298 116 298 115.5 298 115 297.5 115 297.05 114.85 295.3 114.2 296 111 296 110.5 295.95 110 295.5 106.95 294 105 293.5 105 293.15 104.75 289.45 102.05 288 97 288 96.5 288.05 96 288.15 94.4 286 95 285.5 95 285.15 94.75 281.85 92.65 280 89 279.5 89 279.05 89.1 275.6 89.9 276 87 275.5 87 275.2 86.75 269.55 81.95 262 79 261.5 79 261 79.05 257.45 79.55 257 77 256.5 77 256 77 Z" stroke="none" fill="#9F6227"></path>
</g>
</g>
</g>
</g>
</g>
</svg>
