
<svg viewBox="0 0 272 172" height="172px" width="272px" y="0px" x="0px" preserveAspectRatio="none" xmlns:xlink="http://www.w3.org/1999/xlink" version="1.1" xmlns="http://www.w3.org/2000/svg">
<defs></defs>

<g id="Layer_2">
<g>
<g>
<g>
<path d="M 94.15 153.4
Q 93.15 153 92.05 152.8 91.05 151.95 89.9 151.3 89.65 151.2 89.6 151.35 90.1708984375 152.7869140625 90.85 154.1 93.0080078125 154.0927734375 95.15 154.05 94.8306640625 153.9359375 94.45 153.8 94.4 153.7 94.35 153.6 94.25 153.5 94.15 153.4
M 94.5 129
Q 93.05 130.25 92.75 132.05 94.6 135.15 98.05 136.65 101.05 137.9 103.25 137.35 104.75 136.95 106.05 137.6 106.329296875 137.655859375 106.6 137.7 108.721484375 138.043359375 110.5 137.7 113.472265625 137.133984375 115.55 134.7 115.75 134.5 115.9 134.3 115.95 134.2 115.95 134.1 115.95 133.85 116 133.55 116.05 133.2 116.2 132.9 116.25 132.85 116.25 132.75 116.25 132.65 116.25 132.55 116.25 132.45 116.2 132.35 116.1 132.15 115.95 131.95 115.95 131.85 115.95 131.75 115.95 131.65 115.95 131.55 115.95 131.35 115.95 131.2 115.95 131.1 115.95 131 115.95 130.9 115.9 130.8 115.85 130.7 115.8 130.6 115.75 130.5 115.7 130.4 115.6 130.3 115.45 130.2 115.15 129.95 114.95 129.6 114.8 129.4 114.7 129.2 114.65 129.1 114.5 129.05 114.2 128.8 114 128.45 113.85 128.25 113.75 128.05 113.65 127.95 113.55 127.9 113.35 127.85 113.15 127.75 113.05 127.65 113 127.55 112.9 127.45 112.9 127.35 108.7 124.65 103.65 125.1 98.45 125.55 94.5 129
M 172.85 127.55
Q 172.55 127.35 172.45 127 172.25 126.9 172.05 126.85 171.85 126.8 171.6 126.7 169.3 124.65 166.15 124.2 165.51328125 124.108984375 164.85 124 164.46328125 123.989453125 164.05 123.95 163.737890625 123.997265625 163.4 124.05 159.488671875 124.770703125 156.15 126.95 154.8 127.8 153.7 129 153.55 129.5 153.55 130 153.6 130.5 153.6 131 153.8 131.25 154 131.55 154.2 131.75 154.35 131.95 154.75 133.25 155.85 134.2 156.5 134.75 157.25 135.3 157.4 135.35 157.5 135.45 165.2 136.75 172.7 134.4 173.75 133.65 174.5 132.55 174.65 132.3 174.9 132.05 174.9 131.85 175 131.65 175.05 131.45 175.15 131.25 175.1 130.85 175.05 130.45 175 130.1 174.7 129.85 174.7 129.75 174.7 129.65 174.7 129.55 174.65 129.45 174.65 129.35 174.6 129.3 173.9 128.3 172.85 127.55
M 66.6 132.2
Q 66.6 132.65 66.8 133 66.9865234375 135.35 67.2 137.7 67.3111328125 138.5 67.4 139.3 67.55 141 67.7 142.65 69.35 142.65 71 143 71.1 143 71.25 143.05 73.8 142.75 76.4 142.4 76.3 140.85 74.55 139.3 73.75703125 138.5705078125 73.15 137.7 72.792578125 137.1984375 72.5 136.65 69.9 133.6 66.95 130.9 66.7 131.45 66.55 132.05 66.6 132.15 66.6 132.2
M 79 111.25
Q 78.7 110.35 78.35 109.5 78.2 113.45 78.25 117.4 78.25 120.35 78.4 123.25 79.479296875 122.959375 80.55 122.65 82.05859375 122.1970703125 83.55 121.7 81.9404296875 118.5123046875 80.55 115.15 79.7375 113.24140625 79 111.25
M 191.85 121.65
Q 191.75 121.75 191.7 121.9 194.05 122.95 197 124.2 197 124 197 123.85 197.15 122.1 196.7 120.5 196.7 119.6 196.7 118.75 196.7 117.15 196.7 115.6 196.7 115.45 196.65 115.35 195.6 116.75 194.65 118.25 193.65 119.85 192.4 121.3 192.1 121.45 191.85 121.65
M 204.55 134.9
Q 204.55 133.7 204.55 132.45 203.45 132.9 202.15 133.1 201.4 133.2 200.6 133.35 200.45 133.5 200.3 133.65 200.15 133.8 200 133.9 199.9 133.95 199.8 133.95 198.65 134.3 197.55 134.8 197.45 134.95 197.3 135.05 196.85 135.45 196.4 135.95 196.3 136 196.2 136 195.8 136.15 195.4 136.25 195.25 136.4 195.05 136.5 194.35 136.8 194.15 137.45 194.15 137.55 194.1 137.6 193.9978515625 137.651171875 193.9 137.7 193.2904296875 137.9865234375 192.65 138.2 198.45 139.15 204.55 140.05 204.55 138.8802734375 204.55 137.7 204.55 136.307421875 204.55 134.9 Z" stroke="none" fill="#EE9D33"></path>

<path d="M 96.9 153.3
Q 96.75 153.25 96.55 153.2 96.45 153.1 96.35 153 95.45 152.25 94.2 152.15 94.05 152.15 93.9 152.1 92.5 151.1 91 150.4 90.25 150.05 89.7 149.45 88.5 149.45 87.25 149.4 87.2 149.45 87.15 149.55 87.15 149.6 87.15 149.7 87.15 149.8 87.15 149.9 87.15 150.1 87.15 150.3 87.15 150.4 87.15 150.5 87.25 150.6 87.3 150.7 87.35 150.8 87.4 150.9 87.4 151 87.4 151.1 87.45 151.3 87.55 151.5 87.6 151.6 87.65 151.7 87.65 151.8 87.65 151.9 87.65 152 87.65 152.1 87.65 152.3 87.7 152.45 87.7 152.55 87.7 152.65 88.19765625 153.405078125 88.7 154.15 89.77578125 154.1380859375 90.85 154.1 90.1708984375 152.7869140625 89.6 151.35 89.65 151.2 89.9 151.3 91.05 151.95 92.05 152.8 93.15 153 94.15 153.4 94.25 153.5 94.35 153.6 94.4 153.7 94.45 153.8 94.8306640625 153.9359375 95.15 154.05 96.5693359375 154.0302734375 97.95 154 97.8771484375 153.81953125 97.75 153.65 97.65 153.55 97.55 153.45 97.25 153.4 96.9 153.3
M 194.5 150.75
Q 194.5 150.65 194.45 150.65 193.5 150.45 192.5 150.35
L 192.5 150.4
Q 192.4 150.45 192.3 150.55 192.2 150.6 192.15 150.7 192.1 150.8 192 150.9 191.0685546875 151.6244140625 190.05 152.25 191.7833984375 152.215625 193.5 152.15 193.8 151.85 194.1 151.6 194.4 151.35 194.45 150.95 194.5 150.85 194.5 150.75
M 91.2 133.35
Q 91.35 133.45 91.45 133.55 93.519921875 136.479296875 96.8 137.7 97.7322265625 138.0419921875 98.75 138.25 106.712890625 139.7970703125 114.35 137.7 115.098828125 137.49296875 115.85 137.25 116.2 136.9 116.6 136.55 117 136.2 117.25 135.8 117.5 135.45 117.75 135.15 117.8 135.05 117.85 134.95 117.9 134.9 117.95 134.8 117.95 134.7 117.95 134.6 117.95 134.5 117.95 134.4 117.95 134.3 117.95 134.2 117.95 134.1 118 134 118.05 133.9 118.1 133.8 118.15 133.7 118.2 133.6 118.2 133.5 118.2 133.4 118.2 133.1 118.2 132.8 118.2 132.7 118.2 132.6 118.2 132.5 118.2 132.4 118.2 132.2 118.2 132.05 118.2 131.95 118.2 131.85 118.2 131.75 118.2 131.65 118.15 131.55 118.1 131.45 118.05 131.35 118 131.2 117.95 131.15 117.95 131.05 117.95 130.95 117.95 130.85 117.95 130.75 117.95 130.65 117.9 130.45 117.85 130.25 117.85 130.15 117.8 130.05 117.75 129.95 117.75 129.85 117.65 129.75 117.6 129.65 117.5 129.55 117.35 129.45 117.25 129.35 117.15 129.3 117.05 129.2 116.95 129.1 116.9 129 116.9 128.9 116.85 128.8 116.8 128.7 116.75 128.6 116.7 128.5 116.55 128.4 116.45 128.3 116.35 128.2 116.25 128.1 116.05 127.9 115.9 127.7 115.85 127.6 115.75 127.5 115.7 127.4 115.65 127.3 115.5 127.25 115.3 127.2 115.2 127.15 115.15 127.1 115.05 127.05 115 127 114.9 126.9 114.85 126.8 114.75 126.7 114.65 126.6 113.45 125.85 112.15 125.35 108.05 123.9 103.65 124.1 97.55 124.35 92.75 128.2 91.4 129.3 90.8 131 90.8 131.1 90.8 131.2 90.8 131.45 90.8 131.75 90.8 131.85 90.8 131.95 90.8 132.05 90.8 132.15 90.8 132.35 90.8 132.55 90.8 132.65 90.8 132.75 90.85 132.85 90.85 132.95 90.95 133.05 91 133.15 91.1 133.25 91.2 133.35
M 92.75 132.05
Q 93.05 130.25 94.5 129 98.45 125.55 103.65 125.1 108.7 124.65 112.9 127.35 112.9 127.45 113 127.55 113.05 127.65 113.15 127.75 113.35 127.85 113.55 127.9 113.65 127.95 113.75 128.05 113.85 128.25 114 128.45 114.2 128.8 114.5 129.05 114.65 129.1 114.7 129.2 114.8 129.4 114.95 129.6 115.15 129.95 115.45 130.2 115.6 130.3 115.7 130.4 115.75 130.5 115.8 130.6 115.85 130.7 115.9 130.8 115.95 130.9 115.95 131 115.95 131.1 115.95 131.2 115.95 131.35 115.95 131.55 115.95 131.65 115.95 131.75 115.95 131.85 115.95 131.95 116.1 132.15 116.2 132.35 116.25 132.45 116.25 132.55 116.25 132.65 116.25 132.75 116.25 132.85 116.2 132.9 116.05 133.2 116 133.55 115.95 133.85 115.95 134.1 115.95 134.2 115.9 134.3 115.75 134.5 115.55 134.7 113.472265625 137.133984375 110.5 137.7 108.721484375 138.043359375 106.6 137.7 106.329296875 137.655859375 106.05 137.6 104.75 136.95 103.25 137.35 101.05 137.9 98.05 136.65 94.6 135.15 92.75 132.05
M 173.6 126.05
Q 173.5 126.05 173.45 126 172.4 124.85 170.85 124.25 166.8 122.7 162.3 123.25 158 123.85 154.3 126.2 153 127 151.95 128.1 151.9 128.2 151.85 128.3 151.8 128.4 151.75 128.5 151.7 128.6 151.6 128.7 151.6 129.1 151.6 129.45 151.6 129.95 151.6 130.45 151.6 130.95 151.6 131.45 151.6 131.55 151.6 131.65 151.8 131.95 152.05 132.2 152.1 132.3 152.2 132.4 152.3 132.5 152.4 132.6 153.6 135.5 156.7 136.2 165.6 138.15 174.6 135.1 175.55 134.4 176.25 133.5 176.85 132.75 177.1 131.95 177.15 131.85 177.2 131.75 177.2 131.65 177.2 131.55 177.2 131.3 177.2 131 177.2 130.8 177.2 130.6 177.2 130.5 177.2 130.4 177.1 130.3 177.05 130.2 177 130.1 176.9 130 176.9 129.8 176.9 129.6 176.9 129.5 176.85 129.45 176.8 129.3 176.65 129.2 176.65 129 176.65 128.8 176.6 128.7 176.6 128.6 176.55 128.5 176.5 128.4 176.1 128.1 175.75 127.7 175.1 127.05 174.45 126.45 174.35 126.35 174.3 126.25 174.1 126.2 173.9 126.15 173.75 126.1 173.6 126.05
M 172.45 127
Q 172.55 127.35 172.85 127.55 173.9 128.3 174.6 129.3 174.65 129.35 174.65 129.45 174.7 129.55 174.7 129.65 174.7 129.75 174.7 129.85 175 130.1 175.05 130.45 175.1 130.85 175.15 131.25 175.05 131.45 175 131.65 174.9 131.85 174.9 132.05 174.65 132.3 174.5 132.55 173.75 133.65 172.7 134.4 165.2 136.75 157.5 135.45 157.4 135.35 157.25 135.3 156.5 134.75 155.85 134.2 154.75 133.25 154.35 131.95 154.2 131.75 154 131.55 153.8 131.25 153.6 131 153.6 130.5 153.55 130 153.55 129.5 153.7 129 154.8 127.8 156.15 126.95 159.488671875 124.770703125 163.4 124.05 163.737890625 123.997265625 164.05 123.95 164.46328125 123.989453125 164.85 124 165.51328125 124.108984375 166.15 124.2 169.3 124.65 171.6 126.7 171.85 126.8 172.05 126.85 172.25 126.9 172.45 127
M 180.65 95.15
Q 180.65 95 180.65 94.85 180.65 94.7 180.55 94.65 180.25 94.4 180 94.05 179.9 93.9 179.7 93.75 170.1 94.8 161 97.55 160.95 97.25 160.8 97.05 160.75 96.85 160.55 96.7 160.55 96.55 160.55 96.4 160.35 95.95 160.2 95.45 160.15 95.35 160.15 95.2 159.95 94.85 159.8 94.55 159.75 94.4 159.75 94.25 159.75 94.1 159.75 93.95 159.95 92.2 159.6 90.5 159.4 89.6 158.95 88.7 158.95 88.4 158.95 88.1 158.95 87.95 158.95 87.8 158.9 87.65 158.8 87.55 158.45 87.1 158.5 86.55 158.55 86.4 158.55 86.25 158.5 86.1 158.4 86 158.25 85.8 158.1 85.65 158.05 85.35 157.95 85.05 157.85 84.9 157.7 84.75 156.4 84.7 155.05 84.7 154.9 84.75 154.75 84.85 154.2 85.25 153.7 85.75 153.5 85.9 153.3 86.05 151.591015625 86.7580078125 149.9 87.5 144.6642578125 89.8412109375 139.6 92.6 139.05 92.65 138.55 92.6 138.5 92.6 138.45 92.5 138.15 91.5 137.25 90.95 137.05 90.8 136.9 90.65 136.85 90.5 136.8 90.35 136.75 90.2 136.7 90.05 136.3 89.75 135.9 89.4 135.75 89.3 135.6 89.15 134.9 87.95 134.35 86.7 134.1 86 133.55 85.45 133.55 85.3 133.5 85.15 132.95 83.85 132 82.7 131.55 82.15 131.4 81.45 131.1 81.35 130.8 81.2 130.75 81.2 130.65 81.15 130.55 81.05 130.5 80.95 130.35 80.8 130.25 80.65 129.15 80.6 128 80.55 125.5 82.2 123.3 84.6 118.5 89.85 114.6 95.5 114.1 95.1 113.5 94.75 107.35 91.05 101.7 86.45 101.15 86.3 100.6 86.1 100.4 86.05 100.25 85.95 99.2 85.9 98.1 85.95 98 85.95 97.9 86.05 97.95 86.6 97.65 87 97.55 87.15 97.5 87.3 97.5 87.6 97.5 87.9 97.25 92.05 97.2 96.2 97.1 101.4 97.1 106.65 91.85 106.3 86.8 104.65 83.539453125 103.6080078125 80.55 103.6 79.0927734375 103.604296875 77.7 103.85 77.15 103.8 76.65 103.8 76.65 103.95 76.65 104.1 76.4 104.15 76.2 104.2 76.4 104.6 76.55 105.05 76.35 107.8 76.35 110.6 76.35 117.15 76.35 123.7 74.4 124.1 72.45 124.4 67.4 125.15 64.3 127.45 64.75 128.4 65.35 129.2 65.05 130.05 64.8 130.95 64.35 132.35 64.85 133.65 64.93515625 135.6931640625 65.15 137.7 65.20546875 138.0505859375 65.25 138.4 65.6 140.55 65.65 142.75 65.25 142.8 64.85 142.85 62.6 143.5 60.25 144.25 60.15 144.3 60 144.35 59.95 144.4 59.95 144.5 59.25 144.55 58.6 144.65 59.2 144.65 59.85 144.7 59.8 144.7 59.75 144.75 59.65 144.85 59.6 144.95 59.6 145.05 59.6 145.15 59.6 145.25 59.6 145.35 59.6 145.45 59.6 145.55 59.6 145.6 59.6 145.65 59.55 145.65 59.45 145.7 59.4 145.7 59.4 145.85 59.4 146 59.4 146.15 59.4 146.65 59.4 147.1 59.4 147.25 59.4 147.4 59.9 147.75 59.85 148.3 59.8 148.45 59.8 148.65 60.05 148.95 60.3 149.25 60.45 149.4 60.55 149.55 60.6 149.7 60.6 149.85 60.6 150.4 60.9 150.8 60.85 152.35 60.75 153.85 60.74140625 154.0380859375 60.75 154.2 62.2421875 154.2396484375 63.75 154.25 63.4548828125 153.5849609375 63.1 152.95 63.1 152.6 63.1 152.3 63.1 151.55 63.1 150.8 63.1 150.6 63.1 150.45 63.05 150.3 63 150.15 62.95 149.95 62.85 149.8 62.85 149.65 62.85 149.5 62.75 149.4 62.7 149.25 62.65 149.15 62.6 149.05 62.6 148.8 62.6 148.55 62.6 147.7 62.6 146.8 62.6 146.7 62.6 146.55
L 62.6 146.45
Q 62.2 146.4 61.85 146.4 61.85 146.3 61.85 146.2 61.85 146 61.8 145.8 61.8 145.6 61.85 145.4 61.85 145.3 61.9 145.2 62.5 144.9 63.1 144.7 67.55 144.65 72.4 144.3 76.55 143.95 79.05 142.3 78 140.05 76.45 138 76.33125 137.849609375 76.2 137.7 72.3572265625 132.8767578125 67.75 128.9 67.9 128.4 67.85 127.9
L 67.85 127.8
Q 67.35 127.7 66.85 127.7 66.8 127.6 66.7 127.5 66.55 127.4 66.45 127.25 73.9017578125 125.9900390625 80.55 123.85 83.1357421875 123.0521484375 85.6 122.1 85.6 121.95 85.6 121.8 85.6 121.35 85.6 120.9 85.55 120.7 85.5 120.55 83.65 117.7 82.4 114.5 81.446484375 111.947265625 80.55 109.35 79.9888671875 107.7666015625 79.45 106.15 79.2 105.85 78.95 105.5 78.85 105.35 78.75 105.2 78.7 104.9 78.6 104.6
L 78.6 104.55
Q 78.6 104.45 78.6 104.35 79.5765625 104.60703125 80.55 104.85 89.99375 107.1234375 99.15 107.35 99.15 107.05 99.15 106.75 99.15 102.6 99.1 98.45 99.05 92.75 99.85 87.4 100.6 87.9 101.35 88.4 103.5 89.9 105.7 91.3 106.2 91.95 106.85 92.45 110.05 94.6 113.25 96.6 115.05 96.45 116.85 96.3 118.1 94.05 119.65 92 123.65 86.7 128.5 82.15 128.95 82.1 129.35 82.15 129.4 82.15 129.45 82.25 129.5 82.45 129.55 82.55 130.1 83.75 130.95 84.75 131.2 85.05 131.4 85.35 131.45 85.5 131.45 85.65 131.5 85.8 131.5 85.95 132.45 87.05 132.9 88.4 133.15 89.05 133.45 89.65 134.15 90.2 134.7 90.95 134.75 91.05 134.75 91.2 135.75 91.95 136.35 93.05 136.4 93.2 136.4 93.35 136.75 93.45 137.1 93.55 137.2 93.6 137.25 93.65 137.3 93.75 137.35 93.85 137.5 94 137.65 94.15 138.85 94.2 140.1 94.2
L 140.1 94.15
Q 144.9904296875 91.3203125 149.9 89 152.9712890625 87.5814453125 156.05 86.35 156.55 86.7 156.5 87.3 156.5 87.45 156.5 87.6 156.6 87.75 156.7 87.9 156.8 88.05 156.9 88.2 156.9 88.65 156.9 89.15 156.9 89.3 156.9 89.45 157.05 89.75 157.1 90.05 157.25 91 157.55 91.9 157.6 92.05 157.7 92.2 157.7 92.65 157.7 93.15 157.7 93.9 157.7 94.65 157.7 94.8 157.7 94.95 157.9 95.45 158.05 95.9 158.1 96.05 158.1 96.2 158.2 96.35 158.3 96.5 158.6 97.45 159.05 98.35 159.15 98.5 159.25 98.65 168.85 96.85 178.2 94.95 178.8 95.25 178.65 95.9 178.6 96.05 178.6 96.2 179.3 99 179.15 102.05 179 104.95 179 107.85 186.05 108.15 193.15 108.4 194.15 108.95 195.3 109.15
L 195.3 109.2
Q 195.35 109.25 195.45 109.35 195.15 109.3 194.85 109.3 195.05 110.9 195.7 112.45 195.55 112.55 195.4 112.7 195.35 113.15 195.25 113.6 195.25 113.75 195.2 113.9 193.95 115.65 192.75 117.35 190.9 119.95 189.25 122.2 196.95 125.4 204.6 130.4 203.85 130.75 203.3 131.05 201.2 132.2 198.75 132.65 197.8 133.35 196.65 133.7 195.3 134.15 194.35 135.2 193.95 135.3 193.55 135.4 192.85 135.95 192.25 136.6 192.15 136.7 192.1 136.85 191.6 136.95 191.1 137.1 191.05 137.1 191 137.15 190.9 137.25 190.8 137.35 190.60390625 137.5158203125 190.4 137.7 190.0142578125 138.126171875 189.7 138.65 189.65 138.75 189.65 138.9 199.9 140.25 210.15 141.85 210.15 142 210.15 142.2 210.15 143.85 210.15 145.55 210.15 146.5 210.15 147.4 209.340234375 149.4244140625 208.75 151.5 210.780078125 151.399609375 212.8 151.3 212.5845703125 147.6146484375 212.35 143.95 212.35 143.85 212.35 143.8 212.25 143.8 212.2 143.8 212.2 142.5 212.2 141.15 209.35 140.75 206.55 140.35 206.55 139.025 206.55 137.7 206.55 137.125 206.55 136.55 206.55 133.9 206.55 131.3 206.9 130.95 207.25 130.6 204.7 127.5 200.75 125.8 199.85 125.4 198.95 125.05 198.95 123.6 199 122.15 199.05 121 198.65 120 198.65 118.3 198.75 116.65 198.8 115.5 198.4 114.45 198.5 113.4 198.2 112.45 198.4 112.1 198.55 111.75 198.6 111.6 198.65 111.45 198.65 111.15 198.65 110.85 198.65 110.25 198.65 109.6 198.6 109.45 198.55 109.3 198.2 109.2 197.85 109.1 197.85 109.05 197.8 109.05 197.7 108.9 197.55 108.75 197.45 108.65 197.35 108.5 196.4 108.2 195.5 107.85 195.25 107.75 195 107.65 188 107.4 181.05 107.15 181.05 104.4 181.05 101.65 181.05 99 181.05 96.4 181 96.25 180.9 96.15 180.6 95.7 180.65 95.15
M 204.55 132.45
Q 204.55 133.7 204.55 134.9 204.55 136.307421875 204.55 137.7 204.55 138.8802734375 204.55 140.05 198.45 139.15 192.65 138.2 193.2904296875 137.9865234375 193.9 137.7 193.9978515625 137.651171875 194.1 137.6 194.15 137.55 194.15 137.45 194.35 136.8 195.05 136.5 195.25 136.4 195.4 136.25 195.8 136.15 196.2 136 196.3 136 196.4 135.95 196.85 135.45 197.3 135.05 197.45 134.95 197.55 134.8 198.65 134.3 199.8 133.95 199.9 133.95 200 133.9 200.15 133.8 200.3 133.65 200.45 133.5 200.6 133.35 201.4 133.2 202.15 133.1 203.45 132.9 204.55 132.45
M 191.7 121.9
Q 191.75 121.75 191.85 121.65 192.1 121.45 192.4 121.3 193.65 119.85 194.65 118.25 195.6 116.75 196.65 115.35 196.7 115.45 196.7 115.6 196.7 117.15 196.7 118.75 196.7 119.6 196.7 120.5 197.15 122.1 197 123.85 197 124 197 124.2 194.05 122.95 191.7 121.9
M 78.35 109.5
Q 78.7 110.35 79 111.25 79.7375 113.24140625 80.55 115.15 81.9404296875 118.5123046875 83.55 121.7 82.05859375 122.1970703125 80.55 122.65 79.479296875 122.959375 78.4 123.25 78.25 120.35 78.25 117.4 78.2 113.45 78.35 109.5
M 66.8 133
Q 66.6 132.65 66.6 132.2 66.6 132.15 66.55 132.05 66.7 131.45 66.95 130.9 69.9 133.6 72.5 136.65 72.792578125 137.1984375 73.15 137.7 73.75703125 138.5705078125 74.55 139.3 76.3 140.85 76.4 142.4 73.8 142.75 71.25 143.05 71.1 143 71 143 69.35 142.65 67.7 142.65 67.55 141 67.4 139.3 67.3111328125 138.5 67.2 137.7 66.9865234375 135.35 66.8 133 Z" stroke="none" fill="#000000"></path>

<path d="M 178.65 95.9
Q 178.8 95.25 178.2 94.95 168.85 96.85 159.25 98.65 159.15 98.5 159.05 98.35 158.6 97.45 158.3 96.5 158.2 96.35 158.1 96.2 158.1 96.05 158.05 95.9 157.9 95.45 157.7 94.95 157.7 94.8 157.7 94.65 157.7 93.9 157.7 93.15 157.7 92.65 157.7 92.2 157.6 92.05 157.55 91.9 157.25 91 157.1 90.05 157.05 89.75 156.9 89.45 156.9 89.3 156.9 89.15 156.9 88.65 156.9 88.2 156.8 88.05 156.7 87.9 156.6 87.75 156.5 87.6 156.5 87.45 156.5 87.3 156.55 86.7 156.05 86.35 152.9712890625 87.5814453125 149.9 89 144.9904296875 91.3203125 140.1 94.15
L 140.1 94.2
Q 138.85 94.2 137.65 94.15 137.5 94 137.35 93.85 137.3 93.75 137.25 93.65 137.2 93.6 137.1 93.55 136.75 93.45 136.4 93.35 136.4 93.2 136.35 93.05 135.75 91.95 134.75 91.2 134.75 91.05 134.7 90.95 134.15 90.2 133.45 89.65 133.15 89.05 132.9 88.4 132.45 87.05 131.5 85.95 131.5 85.8 131.45 85.65 131.45 85.5 131.4 85.35 131.2 85.05 130.95 84.75 130.1 83.75 129.55 82.55 129.5 82.45 129.45 82.25 129.4 82.15 129.35 82.15 128.95 82.1 128.5 82.15 123.65 86.7 119.65 92 118.1 94.05 116.85 96.3 115.05 96.45 113.25 96.6 110.05 94.6 106.85 92.45 106.2 91.95 105.7 91.3 103.5 89.9 101.35 88.4 100.6 87.9 99.85 87.4 99.05 92.75 99.1 98.45 99.15 102.6 99.15 106.75 99.15 107.05 99.15 107.35 89.99375 107.1234375 80.55 104.85 79.5765625 104.60703125 78.6 104.35 78.6 104.45 78.6 104.55
L 78.6 104.6
Q 78.7 104.9 78.75 105.2 78.85 105.35 78.95 105.5 79.2 105.85 79.45 106.15 79.9888671875 107.7666015625 80.55 109.35 81.446484375 111.947265625 82.4 114.5 83.65 117.7 85.5 120.55 85.55 120.7 85.6 120.9 85.6 121.35 85.6 121.8 85.6 121.95 85.6 122.1 83.1357421875 123.0521484375 80.55 123.85 73.9017578125 125.9900390625 66.45 127.25 66.55 127.4 66.7 127.5 66.8 127.6 66.85 127.7 67.35 127.7 67.85 127.8
L 67.85 127.9
Q 67.9 128.4 67.75 128.9 72.3572265625 132.8767578125 76.2 137.7 76.33125 137.849609375 76.45 138 78 140.05 79.05 142.3 76.55 143.95 72.4 144.3 67.55 144.65 63.1 144.7 62.5 144.9 61.9 145.2 61.85 145.3 61.85 145.4 61.8 145.6 61.8 145.8 61.85 146 61.85 146.2 61.85 146.3 61.85 146.4 62.2 146.4 62.6 146.45
L 62.6 146.55
Q 62.6 146.7 62.6 146.8 62.6 147.7 62.6 148.55 62.6 148.8 62.6 149.05 62.65 149.15 62.7 149.25 62.75 149.4 62.85 149.5 62.85 149.65 62.85 149.8 62.95 149.95 63 150.15 63.05 150.3 63.1 150.45 63.1 150.6 63.1 150.8 63.1 151.55 63.1 152.3 63.1 152.6 63.1 152.95 63.4548828125 153.5849609375 63.75 154.25 72.0759765625 154.3119140625 80.55 154.25 84.6080078125 154.212109375 88.7 154.15 88.19765625 153.405078125 87.7 152.65 87.7 152.55 87.7 152.45 87.65 152.3 87.65 152.1 87.65 152 87.65 151.9 87.65 151.8 87.65 151.7 87.6 151.6 87.55 151.5 87.45 151.3 87.4 151.1 87.4 151 87.4 150.9 87.35 150.8 87.3 150.7 87.25 150.6 87.15 150.5 87.15 150.4 87.15 150.3 87.15 150.1 87.15 149.9 87.15 149.8 87.15 149.7 87.15 149.6 87.15 149.55 87.2 149.45 87.25 149.4 88.5 149.45 89.7 149.45 90.25 150.05 91 150.4 92.5 151.1 93.9 152.1 94.05 152.15 94.2 152.15 95.45 152.25 96.35 153 96.45 153.1 96.55 153.2 96.75 153.25 96.9 153.3 97.25 153.4 97.55 153.45 97.65 153.55 97.75 153.65 97.8771484375 153.81953125 97.95 154 101.72109375 153.9068359375 105.5 153.8 117.8 153.45 130.15 153.45 140.0439453125 153.4197265625 149.9 153.25 170.0662109375 153.0025390625 190.05 152.25 191.0685546875 151.6244140625 192 150.9 192.1 150.8 192.15 150.7 192.2 150.6 192.3 150.55 192.4 150.45 192.5 150.4
L 192.5 150.35
Q 193.5 150.45 194.45 150.65 194.5 150.65 194.5 150.75 194.5 150.85 194.45 150.95 194.4 151.35 194.1 151.6 193.8 151.85 193.5 152.15 201.1416015625 151.8533203125 208.75 151.5 209.340234375 149.4244140625 210.15 147.4 210.15 146.5 210.15 145.55 210.15 143.85 210.15 142.2 210.15 142 210.15 141.85 199.9 140.25 189.65 138.9 189.65 138.75 189.7 138.65 190.0142578125 138.126171875 190.4 137.7 190.60390625 137.5158203125 190.8 137.35 190.9 137.25 191 137.15 191.05 137.1 191.1 137.1 191.6 136.95 192.1 136.85 192.15 136.7 192.25 136.6 192.85 135.95 193.55 135.4 193.95 135.3 194.35 135.2 195.3 134.15 196.65 133.7 197.8 133.35 198.75 132.65 201.2 132.2 203.3 131.05 203.85 130.75 204.6 130.4 196.95 125.4 189.25 122.2 190.9 119.95 192.75 117.35 193.95 115.65 195.2 113.9 195.25 113.75 195.25 113.6 195.35 113.15 195.4 112.7 195.55 112.55 195.7 112.45 195.05 110.9 194.85 109.3 195.15 109.3 195.45 109.35 195.35 109.25 195.3 109.2
L 195.3 109.15
Q 194.15 108.95 193.15 108.4 186.05 108.15 179 107.85 179 104.95 179.15 102.05 179.3 99 178.6 96.2 178.6 96.05 178.65 95.9
M 173.45 126
Q 173.5 126.05 173.6 126.05 173.75 126.1 173.9 126.15 174.1 126.2 174.3 126.25 174.35 126.35 174.45 126.45 175.1 127.05 175.75 127.7 176.1 128.1 176.5 128.4 176.55 128.5 176.6 128.6 176.6 128.7 176.65 128.8 176.65 129 176.65 129.2 176.8 129.3 176.85 129.45 176.9 129.5 176.9 129.6 176.9 129.8 176.9 130 177 130.1 177.05 130.2 177.1 130.3 177.2 130.4 177.2 130.5 177.2 130.6 177.2 130.8 177.2 131 177.2 131.3 177.2 131.55 177.2 131.65 177.2 131.75 177.15 131.85 177.1 131.95 176.85 132.75 176.25 133.5 175.55 134.4 174.6 135.1 165.6 138.15 156.7 136.2 153.6 135.5 152.4 132.6 152.3 132.5 152.2 132.4 152.1 132.3 152.05 132.2 151.8 131.95 151.6 131.65 151.6 131.55 151.6 131.45 151.6 130.95 151.6 130.45 151.6 129.95 151.6 129.45 151.6 129.1 151.6 128.7 151.7 128.6 151.75 128.5 151.8 128.4 151.85 128.3 151.9 128.2 151.95 128.1 153 127 154.3 126.2 158 123.85 162.3 123.25 166.8 122.7 170.85 124.25 172.4 124.85 173.45 126
M 91.45 133.55
Q 91.35 133.45 91.2 133.35 91.1 133.25 91 133.15 90.95 133.05 90.85 132.95 90.85 132.85 90.8 132.75 90.8 132.65 90.8 132.55 90.8 132.35 90.8 132.15 90.8 132.05 90.8 131.95 90.8 131.85 90.8 131.75 90.8 131.45 90.8 131.2 90.8 131.1 90.8 131 91.4 129.3 92.75 128.2 97.55 124.35 103.65 124.1 108.05 123.9 112.15 125.35 113.45 125.85 114.65 126.6 114.75 126.7 114.85 126.8 114.9 126.9 115 127 115.05 127.05 115.15 127.1 115.2 127.15 115.3 127.2 115.5 127.25 115.65 127.3 115.7 127.4 115.75 127.5 115.85 127.6 115.9 127.7 116.05 127.9 116.25 128.1 116.35 128.2 116.45 128.3 116.55 128.4 116.7 128.5 116.75 128.6 116.8 128.7 116.85 128.8 116.9 128.9 116.9 129 116.95 129.1 117.05 129.2 117.15 129.3 117.25 129.35 117.35 129.45 117.5 129.55 117.6 129.65 117.65 129.75 117.75 129.85 117.75 129.95 117.8 130.05 117.85 130.15 117.85 130.25 117.9 130.45 117.95 130.65 117.95 130.75 117.95 130.85 117.95 130.95 117.95 131.05 117.95 131.15 118 131.2 118.05 131.35 118.1 131.45 118.15 131.55 118.2 131.65 118.2 131.75 118.2 131.85 118.2 131.95 118.2 132.05 118.2 132.2 118.2 132.4 118.2 132.5 118.2 132.6 118.2 132.7 118.2 132.8 118.2 133.1 118.2 133.4 118.2 133.5 118.2 133.6 118.15 133.7 118.1 133.8 118.05 133.9 118 134 117.95 134.1 117.95 134.2 117.95 134.3 117.95 134.4 117.95 134.5 117.95 134.6 117.95 134.7 117.95 134.8 117.9 134.9 117.85 134.95 117.8 135.05 117.75 135.15 117.5 135.45 117.25 135.8 117 136.2 116.6 136.55 116.2 136.9 115.85 137.25 115.098828125 137.49296875 114.35 137.7 106.712890625 139.7970703125 98.75 138.25 97.7322265625 138.0419921875 96.8 137.7 93.519921875 136.479296875 91.45 133.55 Z" stroke="none" fill="#FDDF5E"></path>
</g>
</g>
</g>
</g>
</svg>
