
<svg viewBox="0 0 112 184" height="184px" width="112px" y="0px" x="0px" preserveAspectRatio="none" xmlns:xlink="http://www.w3.org/1999/xlink" version="1.1" xmlns="http://www.w3.org/2000/svg">
<defs></defs>

<g id="fun_scrollers">
<g transform="matrix( 0.3621063232421875, 0, 0, 0.3621063232421875, -594.2,0.1)" id="svg"></g>

<g transform="matrix( 0.3621063232421875, 0, 0, 0.3621063232421875, -594.2,0.1)" id="Layer_2"></g>

<g transform="matrix( 0.3621063232421875, 0, 0, 0.3621063232421875, -594.2,0.1)" id="Layer_3"></g>

<g transform="matrix( 0.3621063232421875, 0, 0, 0.3621063232421875, -594.2,0.1)" id="Layer_2">
<g>
<g>
<g>
<path d="M 1936.95 141.55
L 1936.95 124.1
Q 1936.8240234375 124.255078125 1936.7 124.4 1932.7 130.1 1930.9 137.5 1929.4 143.6 1929.3 151.75
L 1929.05 200.75
Q 1929.1 212.1 1928.9 234.55
L 1928.8 252.85
Q 1928.7 269.4 1928.65 272.25 1928.5 283.25 1928.1 291.7 1927.55 301.5 1927.75 314.3 1928 338.2 1927.6 356.55 1927 386.3 1927 404.65
L 1927 424.05
Q 1927 432.85 1928.15 437.85 1930.7 444.7 1936.75 449.8 1936.8498046875 449.84921875 1936.95 449.9
L 1936.95 437.9
Q 1935.372265625 434.6873046875 1934.6 432.1 1933.55 428.35 1933.5 423.75
L 1933.7 385.4
Q 1933.8 377.25 1933.8 373.2
L 1934.55 300.1
Q 1935.05 243.1 1935.55 221.25 1936.05 203.75 1936.05 191.15
L 1936.25 154.55
Q 1936.2 148.45 1936.4 145.95 1936.55 143.65 1936.95 141.55 Z" stroke="none" fill="#706C84"></path>

<path d="M 1936.95 141.55
Q 1936.55 143.65 1936.4 145.95 1936.2 148.45 1936.25 154.55
L 1936.05 191.15
Q 1936.05 203.75 1935.55 221.25 1935.05 243.1 1934.55 300.1
L 1933.8 373.2
Q 1933.8 377.25 1933.7 385.4
L 1933.5 423.75
Q 1933.55 428.35 1934.6 432.1 1935.372265625 434.6873046875 1936.95 437.9
L 1936.95 141.55 Z" stroke="none" fill="#F5F7F9"></path>
</g>
</g>
</g>
</g>

<g transform="matrix( 0.3621063232421875, 0, 0, 0.3621063232421875, -594.2,0.1)" id="Layer_3">
<g>
<g>
<g>
<path d="M 1936.95 441.5
L 1931.85 441.4
Q 1932 441.95 1931.55 442.65 1931.3 443.05 1930.75 443.8 1930.4 444.5 1930.35 445.6 1930.35 446.25 1930.4 447.5 1930.4 447.95 1930 450.6 1929.75 452.35 1929.85 456.7
L 1924.2 457.05
Q 1924.1 461.8 1924.3 464.2 1924.4 465.9 1924.65 467.3 1924.7 467.65 1925.25 469.5 1925.45 470.35 1925.8 470.7 1926.3 471.1 1927.45 471.1
L 1932.5 471.05
Q 1935.5 470.95 1936.65 470.55 1936.808203125 470.494921875 1936.95 470.4
L 1936.95 441.5 Z" stroke="none" fill="#000000"></path>
</g>
</g>
</g>
</g>

<g transform="matrix( 0.3621063232421875, 0, 0, 0.3621063232421875, -594.2,0.1)" id="MergedLayer_3"></g>

<g transform="matrix( 0.3621063232421875, 0, 0, 0.3621063232421875, -594.2,0.1)" id="Layer_5">
<g>
<g>
<g>
<path d="M 1654.25 109.8
Q 1654.25 109.7 1654.5 102.35
L 1653.95 102.35 1653.5 102.35 1653.5 107.15 1651.6 107.15
Q 1642.5 111.3 1637.2 114.55 1633.3326171875 116.9318359375 1630.2 119.55
L 1630.2 132.3
Q 1636.4361328125 125.133984375 1639.25 122.95 1642.53515625 120.36171875 1654.05 114.6 1654.0978515625 114.576171875 1654.15 114.55
L 1657.45 112.95
Q 1656.2 112.6 1654.55 111.95
L 1654.25 109.8
M 1783.95 188.8
Q 1785.05 168.85 1784.35 158.8 1783.2 142.3 1777.75 129.7 1774.5 123.5 1771.45 119.7 1767.5 114.7 1762.55 112.05 1757.95 109.75 1755.5 107.65 1755.2958984375 107.1103515625 1755.15 106.65 1754.75625 105.625 1754.65 105.2 1754.55 104.55 1754.45 102.55
L 1754.45 100.45 1754.5 98.05 1754.15 98.05 1753.5 98.05
Q 1754.35 102.7 1754.4 104.85 1754.55 108.4 1753.55 111.55 1749.2 112.75 1747.25 113
L 1747.25 113.45
Q 1748.9916015625 113.746484375 1750.75 114.4 1751.3787109375 114.628125 1752 114.9
L 1754.55 116.35
Q 1763.25 121.35 1768.4 128.1 1773.45 135.5 1775.8 144.45 1777.9 152.35 1777.95 162.3
L 1778 164.85
Q 1778 177.15 1777.05 199
L 1775.65 229
Q 1775.45 233.65 1774.85 237.5 1774.4 240.4 1774.1 243.25
L 1772.6 271.4
Q 1771.25 297.35 1770.75 328.55 1770.45 351.35 1770.45 385.75
L 1770.45 415.55
Q 1770.5 424.1 1770.05 428.35 1768.35 432.25 1767.5 433.4 1766.75 434.6 1763.7 437.65
L 1758.9 442.5 1757.15 446 1757 446.3
Q 1756.64375 446.366015625 1756.25 446.4 1751.46328125 447.218359375 1742.8 447.45
L 1677.3 447.75
Q 1663 448.05 1655.8 448 1643.3 447.85 1634.45 446 1631.7615234375 445.206640625 1630.2 444.15
L 1630.2 452.2
Q 1631.5162109375 452.5943359375 1632.9 452.9 1636.3 453.55 1641.15 453.9
L 1707.4 454.95
Q 1724.15 455.25 1730.8 455.1 1743.95 454.8 1754.1 453.05 1760.3 451.45 1764.75 448.25 1768.6 445.55 1773.15 440.1 1777 433.5 1777.65 428.4 1778.25 423.25 1777.95 399.15
L 1777.7 380.45
Q 1777.4 345.8 1777.8 321.2 1778.3 289.2 1780.05 262.05 1781.4 241.7 1782.7 214.15
L 1783.95 188.8 Z" stroke="none" fill="#706C84"></path>

<path d="M 1671.95 113.1
L 1661.65 112.85
Q 1658.2 113.2 1654.55 114.45 1654.3150390625 114.5087890625 1654.05 114.6 1642.53515625 120.36171875 1639.25 122.95 1636.4361328125 125.133984375 1630.2 132.3
L 1630.2 444.15
Q 1631.7615234375 445.206640625 1634.45 446 1643.3 447.85 1655.8 448 1663 448.05 1677.3 447.75
L 1742.8 447.45
Q 1751.46328125 447.218359375 1756.25 446.4 1756.7216796875 446.230078125 1757.15 446
L 1758.9 442.5 1763.7 437.65
Q 1766.75 434.6 1767.5 433.4 1768.35 432.25 1770.05 428.35 1770.5 424.1 1770.45 415.55
L 1770.45 385.75
Q 1770.45 351.35 1770.75 328.55 1771.25 297.35 1772.6 271.4
L 1774.1 243.25
Q 1774.4 240.4 1774.85 237.5 1775.45 233.65 1775.65 229
L 1777.05 199
Q 1778 177.15 1778 164.85
L 1777.95 162.3
Q 1777.9 152.35 1775.8 144.45 1773.45 135.5 1768.4 128.1 1763.25 121.35 1754.55 116.35
L 1752 114.9
Q 1751.3787109375 114.628125 1750.75 114.4
L 1750.1 114.4
Q 1749.45 114.1 1748.8 113.85 1746.35 113.5 1745.5 113.45 1744.65 113.4 1742 113.45
L 1705.1 113.3
Q 1695.95 113.2 1686.8 113.25 1676.9 113.2 1671.95 113.1
M 1751.95 237.1
L 1754.15 237.6
Q 1756.25 241.55 1757.1 248.15
L 1757.85 251.2
Q 1758.2 253.5 1758.3 254.25 1758.35 255.05 1758.4 257.3
L 1757.15 259.65
Q 1748.95 261.2 1737.9 259.75
L 1736.9 257.8
Q 1732.85 257.8 1728.9 258
L 1720.95 258.35
Q 1718 258.5 1703.35 258.9 1693 259.25 1687.85 259.5 1681.2 259.9 1672.9 260.05 1669.05 260.15 1667.15 260.35 1659.05 260.85 1657.1 260.55 1655.15 260.3 1651.35 258.2 1647.9 250.65 1650.15 239.05 1650.35 238.65 1667.55 238.85 1689.65 239.05 1690.95 239.05
L 1699.55 239
Q 1715.3 238.9 1726.8 237.95 1733.7 237.4 1742.85 237.3
L 1751.95 237.1
M 1747.55 397.75
Q 1754.8 397.4 1756.55 397.5 1758.3 397.7 1761.6 399.2 1762.7 402.9 1762.65 406.9 1762.55 410 1761.65 414.6
L 1760.7 415.55
Q 1754.6 415.95 1749.8 416
L 1746.3 416.1
Q 1735.8 416.4 1714.7 416.75 1705.25 416.85 1693.45 417.25 1683.2 417.6 1672.9 417.65
L 1665.05 417.85
Q 1652.5 418.3 1649.8 418.1 1647.1 417.9 1643.35 416.05 1641.7 413.1 1641.35 412.05 1641.05 410.95 1640.7 407.4 1641.15 403.9 1641.5 402.8 1641.85 401.7 1643.3 398.75 1646.65 396.95 1651.1 396.75 1652.95 396.6 1659.4 397
L 1664.45 397
Q 1668.95 397.05 1678 397.4 1684.75 397.65 1691.35 397.6 1699.15 397.7 1707.15 398 1722 398.55 1731.55 398.25
L 1747.55 397.75
M 1714.55 189.65
L 1716.3 187.45
Q 1720.7 183.4 1726.35 182 1730.1 181.1 1737.85 180.85
L 1741.2 180.75
Q 1746.35 180.7 1750.1 181.85 1752.25 183.6 1753.65 185.7 1754.9 187.5 1755.9 190.45 1756.65 195 1756.5 201.35
L 1756.5 204.2
Q 1756.4 208.3 1755.95 210.15 1755.3 212.5 1753.1 215.5
L 1752.15 219.35
Q 1747.65 221.5 1740.9 222.3 1737.7 222.6 1729.15 222.8
L 1726.5 222.9
Q 1723.1 222.9 1721.15 222.45 1718.7 221.9 1716.1 220.25 1713.05 216.95 1712.35 216.05 1711.75 215.05 1710.8 212.75 1710.45 209.75 1710.35 208.65 1710.3 207.6 1710.3 204.2
L 1710.25 199.65
Q 1710.55 196.3 1711.45 194.3 1712.3 192.35 1714.55 189.65
M 1653.8 133
Q 1654.45 133 1655.2 133
L 1745.15 133.45
Q 1746.2 133.45 1747.3 133.5 1748.3 133.55 1749.35 133.65 1750.3 133.75 1751.3 133.9 1752.15 133.95 1753.1 134.1 1753.95 134.25 1754.85 134.4 1755.7 134.55 1756.55 134.7 1757.3 134.9 1758.15 135.15 1758.8 135.4 1759.45 135.8 1760.5 136.6 1761.45 137.55
L 1761.75 144.75 1761.6 163.55 1761.75 163.55 1761.8 167.3 1761.6 169.3 1759.7 169.3 1759.7 174.1
Q 1758 174.5 1757.3 174.6 1756.65 174.65 1754.25 174.65 1745.8 175.05 1736.2 177.2
L 1722.6 180.3
Q 1704.2 184.45 1699.75 184.6 1695.2 184.85 1686.6 181.75 1678.4 179 1670.8 178.6 1665.6 178.2 1659.65 176.1 1655.7 174.75 1649.05 171.75
L 1644.15 170.45 1640.4 168.85
Q 1639.8 166.65 1639.75 165.9 1639.75 165.2 1640.35 163.05 1644.3 162.3 1648.6 162.45
L 1696 162.55
Q 1709.8 162.45 1723.55 162.55
L 1726.3 162.6
Q 1733.05 162.6 1740.7 163.05
L 1749.4 163.65
Q 1751.45 163.8 1752.2 163.8 1753.0125 163.8 1755.55 163.55
L 1755.8 163.55 1755.8 159.8
Q 1755.3 159.7 1754.8 159.7 1753.7 159.65 1752.65 159.65 1751.5 159.65 1750.35 159.65 1749.1 159.65 1747.9 159.7 1746.6 159.7 1745.35 159.75 1740 160 1734.7 160.15 1733.9 160.2 1733.1 160.3 1732.1 160.3 1731.15 160.35 1730.1 160.45 1729.05 160.5 1727.9 160.5 1726.75 160.5 1725.5 160.55 1724.25 160.6 1722.85 160.6 1721.5 160.65 1720.05 160.7 1718.6 160.8 1717 160.8 1715.4 160.8 1714.3 160.8 1713.2 160.85 1712.55 160.85 1711.9 160.85 1711.15 160.8 1710.4 160.8 1708.75 160.75 1707.05 160.8 1704.05 160.5 1701.25 160.5 1698.65 160.5 1696.05 160.5 1693.4 160.45 1690.75 160.5 1685.3 160.6 1679.9 160.8
L 1645.2 160.95
Q 1644.35 160.7 1643.65 160.35 1643.3 160.3 1643.1 160.15 1642.85 160 1642.6 159.85 1642.45 159.75 1642.3 159.65 1642.15 159.55 1642.05 159.45 1642 159.4 1641.95 159.35 1641.85 159.2 1641.8 159.05 1641.65 158.7 1641.55 158.45 1641.35 158.05 1641.25 157.65 1640.95 156.25 1640.75 154.8 1640.55 153.3 1640.5 151.85 1640.4 150.4 1640.4 149.05 1640.35 147.6 1640.45 146.15 1640.5 144.75 1640.65 143.4 1641 140.65 1641.55 137.9 1641.8 136.5 1642.15 135.2
L 1642.15 135.15 1643.1 134.15 1644.15 134.15
Q 1644.601953125 133.9556640625 1645.1 133.8 1645.9 133.55 1646.75 133.35 1647.55 133.2 1648.4 133.05 1648.55 133.05 1648.75 133.05 1648.95 133.05 1649.2 133.05 1649.45 133.05 1649.8 133.05 1650.15 133.05 1650.55 133 1651 133 1651.5 133 1652 133 1652.55 133 1653.15 133 1653.8 133 Z" stroke="none" fill="#F5F7F9"></path>

<path d="M 1655.2 133
Q 1654.45 133 1653.8 133 1653.15 133 1652.55 133 1652 133 1651.5 133 1651 133 1650.55 133 1650.15 133.05 1649.8 133.05 1649.45 133.05 1649.2 133.05 1648.95 133.05 1648.75 133.05 1648.55 133.05 1648.4 133.05 1647.55 133.2 1646.75 133.35 1645.9 133.55 1645.1 133.8 1644.601953125 133.9556640625 1644.15 134.15
L 1643.1 134.15 1642.15 135.15 1642.15 135.2
Q 1641.8 136.5 1641.55 137.9 1641 140.65 1640.65 143.4 1640.5 144.75 1640.45 146.15 1640.35 147.6 1640.4 149.05 1640.4 150.4 1640.5 151.85 1640.55 153.3 1640.75 154.8 1640.95 156.25 1641.25 157.65 1641.35 158.05 1641.55 158.45 1641.65 158.7 1641.8 159.05 1641.85 159.2 1641.95 159.35 1642 159.4 1642.05 159.45 1642.15 159.55 1642.3 159.65 1642.45 159.75 1642.6 159.85 1642.85 160 1643.1 160.15 1643.3 160.3 1643.65 160.35 1644.35 160.7 1645.2 160.95
L 1679.9 160.8
Q 1685.3 160.6 1690.75 160.5 1693.4 160.45 1696.05 160.5 1698.65 160.5 1701.25 160.5 1704.05 160.5 1707.05 160.8 1708.75 160.75 1710.4 160.8 1711.15 160.8 1711.9 160.85 1712.55 160.85 1713.2 160.85 1714.3 160.8 1715.4 160.8 1717 160.8 1718.6 160.8 1720.05 160.7 1721.5 160.65 1722.85 160.6 1724.25 160.6 1725.5 160.55 1726.75 160.5 1727.9 160.5 1729.05 160.5 1730.1 160.45 1731.15 160.35 1732.1 160.3 1733.1 160.3 1733.9 160.2 1734.7 160.15 1740 160 1745.35 159.75 1746.6 159.7 1747.9 159.7 1749.1 159.65 1750.35 159.65 1751.5 159.65 1752.65 159.65 1753.7 159.65 1754.8 159.7 1755.3 159.7 1755.8 159.8
L 1755.8 163.55 1761.6 163.55 1761.75 144.75 1761.45 137.55
Q 1760.5 136.6 1759.45 135.8 1758.8 135.4 1758.15 135.15 1757.3 134.9 1756.55 134.7 1755.7 134.55 1754.85 134.4 1753.95 134.25 1753.1 134.1 1752.15 133.95 1751.3 133.9 1750.3 133.75 1749.35 133.65 1748.3 133.55 1747.3 133.5 1746.2 133.45 1745.15 133.45
L 1655.2 133 Z" stroke="none" fill="#110F1A"></path>

<path d="M 1640.4 168.85
L 1644.15 170.45 1649.05 171.75
Q 1655.7 174.75 1659.65 176.1 1665.6 178.2 1670.8 178.6 1678.4 179 1686.6 181.75 1695.2 184.85 1699.75 184.6 1704.2 184.45 1722.6 180.3
L 1736.2 177.2
Q 1745.8 175.05 1754.25 174.65 1756.65 174.65 1757.3 174.6 1758 174.5 1759.7 174.1
L 1759.7 169.3 1761.6 169.3 1761.8 167.3 1761.75 163.55 1761.6 163.55 1755.8 163.55 1755.55 163.55
Q 1753.0125 163.8 1752.2 163.8 1751.45 163.8 1749.4 163.65
L 1740.7 163.05
Q 1733.05 162.6 1726.3 162.6
L 1723.55 162.55
Q 1709.8 162.45 1696 162.55
L 1648.6 162.45
Q 1644.3 162.3 1640.35 163.05 1639.75 165.2 1639.75 165.9 1639.8 166.65 1640.4 168.85 Z" stroke="none" fill="#992A3F"></path>

<path d="M 1716.3 187.45
L 1714.55 189.65
Q 1712.3 192.35 1711.45 194.3 1710.55 196.3 1710.25 199.65
L 1710.3 204.2
Q 1710.3 207.6 1710.35 208.65 1710.45 209.75 1710.8 212.75 1711.75 215.05 1712.35 216.05 1713.05 216.95 1716.1 220.25 1718.7 221.9 1721.15 222.45 1723.1 222.9 1726.5 222.9
L 1729.15 222.8
Q 1737.7 222.6 1740.9 222.3 1747.65 221.5 1752.15 219.35
L 1753.1 215.5
Q 1755.3 212.5 1755.95 210.15 1756.4 208.3 1756.5 204.2
L 1756.5 201.35
Q 1756.65 195 1755.9 190.45 1754.9 187.5 1753.65 185.7 1752.25 183.6 1750.1 181.85 1746.35 180.7 1741.2 180.75
L 1737.85 180.85
Q 1730.1 181.1 1726.35 182 1720.7 183.4 1716.3 187.45
M 1734.45 187.45
L 1738.35 187.5
Q 1741.8 187.5 1745.3 187.6 1746.35 188.6 1746.75 189.25 1747.2 189.8 1748.75 192.4 1750.6 195.8 1751.15 198.95 1751.5 201.55 1751.15 205.9
L 1750.2 206.85
Q 1749.15 209.4 1748.7 210.25 1748.2 211.05 1746.4 213.55 1741.4 216.1 1735.55 216.75 1730.55 217.35 1724.25 216.55 1721.1 215.45 1720.25 214.85 1719.4 214.3 1717.5 211.8 1715.55 207.3 1715.55 202.2 1717.75 197.4 1718.8 196 1719.9 194.6 1724 191.1 1726.6 189.25 1728.9 188.45 1731.2 187.65 1734.45 187.45 Z" stroke="none" fill="#5D5A76"></path>

<path d="M 1738.35 187.5
L 1734.45 187.45
Q 1731.2 187.65 1728.9 188.45 1726.6 189.25 1724 191.1 1719.9 194.6 1718.8 196 1717.75 197.4 1715.55 202.2 1715.55 207.3 1717.5 211.8 1719.4 214.3 1720.25 214.85 1721.1 215.45 1724.25 216.55 1730.55 217.35 1735.55 216.75 1741.4 216.1 1746.4 213.55 1748.2 211.05 1748.7 210.25 1749.15 209.4 1750.2 206.85
L 1751.15 205.9
Q 1751.5 201.55 1751.15 198.95 1750.6 195.8 1748.75 192.4 1747.2 189.8 1746.75 189.25 1746.35 188.6 1745.3 187.6 1741.8 187.5 1738.35 187.5 Z" stroke="none" fill="#F1F3F7"></path>

<path d="M 1756.55 397.5
Q 1754.8 397.4 1747.55 397.75
L 1731.55 398.25
Q 1722 398.55 1707.15 398 1699.15 397.7 1691.35 397.6 1684.75 397.65 1678 397.4 1668.95 397.05 1664.45 397
L 1659.4 397
Q 1652.95 396.6 1651.1 396.75 1646.65 396.95 1643.3 398.75 1641.85 401.7 1641.5 402.8 1641.15 403.9 1640.7 407.4 1641.05 410.95 1641.35 412.05 1641.7 413.1 1643.35 416.05 1647.1 417.9 1649.8 418.1 1652.5 418.3 1665.05 417.85
L 1672.9 417.65
Q 1683.2 417.6 1693.45 417.25 1705.25 416.85 1714.7 416.75 1735.8 416.4 1746.3 416.1
L 1749.8 416
Q 1754.6 415.95 1760.7 415.55
L 1761.65 414.6
Q 1762.55 410 1762.65 406.9 1762.7 402.9 1761.6 399.2 1758.3 397.7 1756.55 397.5
M 1754.15 237.6
L 1751.95 237.1 1742.85 237.3
Q 1733.7 237.4 1726.8 237.95 1715.3 238.9 1699.55 239
L 1690.95 239.05
Q 1689.65 239.05 1667.55 238.85 1650.35 238.65 1650.15 239.05 1647.9 250.65 1651.35 258.2 1655.15 260.3 1657.1 260.55 1659.05 260.85 1667.15 260.35 1669.05 260.15 1672.9 260.05 1681.2 259.9 1687.85 259.5 1693 259.25 1703.35 258.9 1718 258.5 1720.95 258.35
L 1728.9 258
Q 1732.85 257.8 1736.9 257.8
L 1737.9 259.75
Q 1748.95 261.2 1757.15 259.65
L 1758.4 257.3
Q 1758.35 255.05 1758.3 254.25 1758.2 253.5 1757.85 251.2
L 1757.1 248.15
Q 1756.25 241.55 1754.15 237.6 Z" stroke="none" fill="#9DAEEA"></path>

<path d="M 1754.45 100.45
L 1754.45 102.55
Q 1754.55 104.55 1754.65 105.2 1754.75625 105.625 1755.15 106.65
L 1754.8 104.55
Q 1754.6994140625 102.4365234375 1754.45 100.45
M 1749.5 40.4
Q 1748.25 37.35 1746.4 35.15 1744.7 33.15 1741.8 31.05
L 1738.7 29.15
Q 1732 25 1725.4 23 1718.95 21.1 1711 20.9
L 1707.25 20.9
Q 1682.1 20.45 1659.3 22.8
L 1655.85 23.2
Q 1648.25 24 1643.85 24.8 1637.15 25.9 1632.05 27.75 1631.2 29.4 1631.1 30.55 1630.95 31.65 1631 36.6
L 1631 39.3
Q 1630.95 41.25 1630.9 45.2 1631 48.6 1632.15 50.85 1635.05 52.25 1635.85 52.55 1636.7 52.8 1638.8 53.1
L 1661.95 53.6
Q 1660.75 57.15 1660.2 61.15 1659.75 64.1 1659.45 68.85 1658.95 77.3 1658.65 80.3 1657.9 86.65 1656.25 91.45 1654.4748046875 96.5478515625 1653.95 102.35
L 1654.5 102.35
Q 1654.25 109.7 1654.25 109.8
L 1654.55 111.95
Q 1656.2 112.6 1657.45 112.95
L 1654.15 114.55
Q 1654.0978515625 114.576171875 1654.05 114.6 1654.3150390625 114.5087890625 1654.55 114.45 1658.2 113.2 1661.65 112.85
L 1671.95 113.1
Q 1676.9 113.2 1686.8 113.25 1695.95 113.2 1705.1 113.3
L 1742 113.45
Q 1744.65 113.4 1745.5 113.45 1746.35 113.5 1748.8 113.85 1749.45 114.1 1750.1 114.4
L 1750.75 114.4
Q 1748.9916015625 113.746484375 1747.25 113.45
L 1747.25 113
Q 1749.2 112.75 1753.55 111.55 1754.55 108.4 1754.4 104.85 1754.35 102.7 1753.5 98.05
L 1754.15 98.05
Q 1753.90078125 96.3787109375 1753.55 94.8 1750.2 79.55 1750.3 59.4
L 1750.45 50.75
Q 1750.6 44.5 1749.5 40.4
M 1742.5 46.9
Q 1742.65 47.65 1742.75 48.5
L 1671.6 49.8 1670.6 46.9 1637.9 46.1
Q 1635.15 40 1636.9 33.6 1682.25 19.75 1728.3 31.25 1728.3 31.6 1734.85 36.3 1741.6 42 1742.5 46.9
M 1744.05 62.85
L 1744.2 69.05
Q 1744.65 83.25 1747.25 96.7 1748.15 102.3 1747.85 106.15
L 1746 108.1
Q 1742.6 108.35 1737.9 108.4
L 1660.35 108.5
Q 1661.05 101.5 1661.3 99.85 1661.6 98.05 1662.6 94.7 1664.45 88.4 1665.05 78.1 1665.9 65.25 1667.8 57.45
L 1670.7 54.55
Q 1672.8 54.3 1673.6 54.2 1674.45 54.15 1677.1 54.15
L 1734.9 54
Q 1739.25 54.35 1742.85 56.15 1743.6 57.75 1743.85 59.4 1743.95 60.25 1744.05 62.85 Z" stroke="none" fill="#7E1A34"></path>

<path d="M 1744.2 69.05
L 1744.05 62.85
Q 1743.95 60.25 1743.85 59.4 1743.6 57.75 1742.85 56.15 1739.25 54.35 1734.9 54
L 1677.1 54.15
Q 1674.45 54.15 1673.6 54.2 1672.8 54.3 1670.7 54.55
L 1667.8 57.45
Q 1665.9 65.25 1665.05 78.1 1664.45 88.4 1662.6 94.7 1661.6 98.05 1661.3 99.85 1661.05 101.5 1660.35 108.5
L 1737.9 108.4
Q 1742.6 108.35 1746 108.1
L 1747.85 106.15
Q 1748.15 102.3 1747.25 96.7 1744.65 83.25 1744.2 69.05 Z" stroke="none" fill="#E21F2D"></path>

<path d="M 1742.75 48.5
Q 1742.65 47.65 1742.5 46.9 1741.6 42 1734.85 36.3 1728.3 31.6 1728.3 31.25 1682.25 19.75 1636.9 33.6 1635.15 40 1637.9 46.1
L 1670.6 46.9 1671.6 49.8 1742.75 48.5 Z" stroke="none" fill="#DF202E"></path>
</g>
</g>
</g>
</g>

<g transform="matrix( 0.3621063232421875, 0, 0, 0.3621063232421875, -594.2,0.1)" id="Layer_6">
<g>
<g>
<g>
<path d="M 1653.85 471.3
Q 1650.1 471.3 1647.75 471.65 1646.95 471.75 1646.7 472 1646.2 472.5 1646.4 473.8 1643.95 473.95 1640.75 474.45
L 1640.75 481.15
Q 1667.75 482.05 1681.2 482.1 1681.65 478.1 1681.4 473.8 1681.3 471.85 1681 470.45 1680.65 468.7 1679.55 466.15
L 1675.15 454.95 1668.1 454.85
Q 1668.2 455.75 1668.1 458.1 1668.05 460.15 1668.25 461.35 1668.4 462.15 1668.9 463.65 1670.05 466.95 1671.85 471.2
L 1653.85 471.3
M 1737.7 473.45
Q 1735 473.6 1730.5 473.55 1725.05 473.5 1723.3 473.55 1720.75 473.55 1718.6 473.75 1717.3 473.85 1716.9 474.35 1716.5 474.85 1716.5 475.95
L 1716.55 481.4
Q 1716.55 482.15 1716.75 482.45 1717.15 483.1 1718.55 483.1
L 1749.3 483.2
Q 1751.9 483.2 1753.1 482.85 1753.5 480.35 1753.8 475.25
L 1754.3 464.4
Q 1754.75 455.35 1754.7 449.65
L 1747.8 449.6
Q 1747.2 456.8 1746.85 468.05
L 1746.7 472.6
Q 1741.2 473.35 1737.7 473.45
M 1797.1 444.95
Q 1796.25 443.35 1794.55 441.05 1792.15 437.7 1791.85 437.25 1790.2 434.85 1787.5 429.75
L 1782.15 419.6
Q 1780.65 416.75 1781 415.1
L 1774.05 415.05
Q 1774.2 416.25 1774.05 419.75 1773.9 422.65 1774.35 424.35 1774.6 425.4 1775.9 427.9
L 1781.75 438.95
Q 1784.6 444.35 1786.7 446.7 1787.1 447.2 1787 447.5 1786.85 447.85 1785.95 447.9 1785.3 448.2 1785.3 449.5
L 1785.3 457.95
Q 1785.3 460.2 1786.15 461 1786.9 461.65 1788.55 461.75 1796.8 462.3 1804.95 460.15 1806.1 459.85 1806.55 459.35 1806.9 458.85 1806.9 457.7 1807.1 450.75 1806.5 446.95
L 1799.75 446.7
Q 1798.75 446.7 1798.2 446.35 1797.8 446.15 1797.1 444.95 Z" stroke="none" fill="#000000"></path>
</g>
</g>
</g>
</g>

<g transform="matrix( 0.3621063232421875, 0, 0, 0.3621063232421875, -594.2,0.1)" id="MergedLayer_1">
<g>
<g>
<g>
<path d="M 1740.75 196.7
L 1733.85 196.5
Q 1731.8453125 197.4943359375 1731.35 198.8 1730.95 199.8 1731.2 201.85 1731.31484375 202.8142578125 1731.3 203.5 1734.3029296875 203.6396484375 1737.4 203.75 1746.5 204.05 1750.85 204.9 1755.6 205.8 1757.35 208.15 1758.35 209.3 1759.15 212.15 1763.95 229.75 1764.9 252.55 1765.55 266.55 1764.75 293.7
L 1762.6 368.95
Q 1762.55 370.6 1761.95 371.25 1761.55 371.65 1760.1 372 1741.05 375.75 1713.7 376.05 1682.55 375.7 1667 375.95 1651.6337890625 376.2103515625 1630.2 377.7
L 1630.2 384.9
Q 1635.45234375 384.6873046875 1641.65 384.3 1661.1 383.15 1667.35 382.95 1683.95 382.45 1717.3 382.9 1746.95 382.8 1766.85 378.85 1768.45 378.4 1768.85 377.9 1769.3 377.35 1769.35 376.05 1771.75 301.7 1772.35 269.85 1772.7 251.2 1772.05 240.95 1770.85 222.6 1766.1 205.05 1765.3 201.8 1764 200.5 1762.45 198.9 1758.65 198.1 1752.8 196.95 1740.75 196.7
M 1635.7 196.5
Q 1632.3916015625 196.3986328125 1630.2 197.2
L 1630.2 215
Q 1631.6876953125 210.8203125 1633.45 207.1 1634.15 205.7 1635 204.9 1636.15 203.9 1637.3 204.25
L 1637.3 205.9
Q 1642.3 206.05 1649.55 205.1 1649.69375 205.08046875 1649.85 205.05 1649.0859375 204.886328125 1648.35 204.7 1647.05 204.4 1646.5 203.85 1645.8 203.15 1645.7 201.2 1645.62265625 199.1484375 1645.9 197.7 1644.8576171875 197.839453125 1643.8 198
L 1643.85 196.6
Q 1642.9 196.75 1635.7 196.5 Z" stroke="none" fill="#6C6C87"></path>

<path d="M 1757.35 208.15
Q 1755.6 205.8 1750.85 204.9 1746.5 204.05 1737.4 203.75 1734.3029296875 203.6396484375 1731.3 203.5 1731.26640625 204.386328125 1731.05 204.9 1730 207.5 1724.75 207.5
L 1683 207.55
Q 1671.35 207.55 1665.55 207.2 1656.8017578125 206.6587890625 1649.85 205.05 1649.69375 205.08046875 1649.55 205.1 1642.3 206.05 1637.3 205.9
L 1637.3 204.25
Q 1636.15 203.9 1635 204.9 1634.15 205.7 1633.45 207.1 1631.6876953125 210.8203125 1630.2 215
L 1630.2 377.7
Q 1651.6337890625 376.2103515625 1667 375.95 1682.55 375.7 1713.7 376.05 1741.05 375.75 1760.1 372 1761.55 371.65 1761.95 371.25 1762.55 370.6 1762.6 368.95
L 1764.75 293.7
Q 1765.55 266.55 1764.9 252.55 1763.95 229.75 1759.15 212.15 1758.35 209.3 1757.35 208.15
M 1663.15 191.25
L 1663.15 196.6
Q 1663.15 197.6 1662.75 198 1662.45 198.25 1661.5 198.35 1660.65 198.4 1660.45 198.85 1662.45 198.95 1665.9 199.45 1669.8 200 1671.35 200.15 1673.5 200.3 1677.85 200.3
L 1718.1 200.3 1718.1 193.6
Q 1720.1 192.4 1722.8 191.85
L 1680.35 191.65
Q 1678.1 191.65 1676.3 191.45 1675.25 191.3 1670.1 189.95 1666.3 189 1663.85 189.3
L 1663.85 188.55
Q 1662.65 188.3 1662.05 189.35 1662.65 189.3 1662.95 190 1663.2 190.55 1663.15 191.25 Z" stroke="none" fill="#DEDFE9"></path>

<path d="M 1646.2 192.15
Q 1646.4 194.25 1647.9 194.55 1646.42890625 195.3775390625 1645.9 197.7 1645.62265625 199.1484375 1645.7 201.2 1645.8 203.15 1646.5 203.85 1647.05 204.4 1648.35 204.7 1649.0859375 204.886328125 1649.85 205.05 1656.8017578125 206.6587890625 1665.55 207.2 1671.35 207.55 1683 207.55
L 1724.75 207.5
Q 1730 207.5 1731.05 204.9 1731.26640625 204.386328125 1731.3 203.5 1731.31484375 202.8142578125 1731.2 201.85 1730.95 199.8 1731.35 198.8 1731.8453125 197.4943359375 1733.85 196.5 1734.0609375 196.4044921875 1734.3 196.3 1737.2 194.95 1737.95 194.2 1739.25 192.85 1739.45 190.5 1739.6 188.9 1739.15 186.25 1735.45 185.15 1730.65 184.8 1727.8 184.6 1722 184.6 1704.5 184.5 1690.5 184.65 1685.55 184.65 1683.6 184.35 1682.65 184.2 1677.85 183 1674.35 182.15 1672.05 182.2
L 1672.05 180.15
Q 1665.85 179.35 1659.55 180.65 1653.3 181.95 1647.85 185.1 1646.6 185.8 1646.3 186.55 1646.1 187 1646.15 187.75 1646.2 188.15 1646.3 188.95 1646.3 189.45 1646.25 190.55 1646.15 191.6 1646.2 192.15
M 1663.15 196.6
L 1663.15 191.25
Q 1663.2 190.55 1662.95 190 1662.65 189.3 1662.05 189.35 1662.65 188.3 1663.85 188.55
L 1663.85 189.3
Q 1666.3 189 1670.1 189.95 1675.25 191.3 1676.3 191.45 1678.1 191.65 1680.35 191.65
L 1722.8 191.85
Q 1720.1 192.4 1718.1 193.6
L 1718.1 200.3 1677.85 200.3
Q 1673.5 200.3 1671.35 200.15 1669.8 200 1665.9 199.45 1662.45 198.95 1660.45 198.85 1660.65 198.4 1661.5 198.35 1662.45 198.25 1662.75 198 1663.15 197.6 1663.15 196.6 Z" stroke="none" fill="#7F7FA4"></path>
</g>
</g>
</g>
</g>

<g transform="matrix( 0.3621063232421875, 0, 0, 0.3621063232421875, -594.2,0.1)" id="Layer_2">
<g>
<g>
<g>
<path d="M 1636.65 356.25
Q 1636.1 359.35 1638.15 359.5 1642.15 359.9 1646.15 359.9 1648.7 359.9 1651.25 359.5 1659.15 358.2 1668.1 357.4 1668.5 357.35 1668.9 357.3 1674.35 356.95 1679.85 356.8 1700.5 356 1721.6 355.6 1724.55 355.5 1727.4 355.1 1731.9 354.5 1737.7 355.1 1742.6 355.6 1744.3 353.3 1744.3 352.6 1744.25 352.6 1726 351.85 1707.7 351.75 1685.85 351.6 1666 353.5 1664.45 353.7 1663 353.85 1657.85 354.4 1652.8 355.1 1652.4 355.15 1652 355.2 1644.95 356.5 1636.65 356.25
M 1672.25 229.6
Q 1672.75 225.7 1670.35 225.15 1669.95 225.15 1669.6 225.15 1668.85 225.15 1668.75 225.45 1668.15 226.6 1667.75 227.95 1666 234 1666.3 242.75 1666.3 243.1 1666.25 243.5 1665.95 247.5 1665.55 251.45 1665.35 253.1 1665.2 255.15 1664.5 265.45 1662.7 274.9 1662.4 276.6 1662.6 278.6 1662.85 282.1 1661.55 283.75 1661.55 289.25 1661 294.7 1660.65 298.55 1663 299.1 1665.55 299.85 1665.55 297.65 1665.55 297.25 1665.7 296.85 1665.95 295.85 1666.3 294.9 1667.25 292.4 1669.6 291.05 1670.8 271.4 1671 250.8 1671.1 239.85 1672.25 229.6
M 1711.8 260.3
Q 1711.9 263.75 1710.6 265.45 1710.35 274.1 1712 280.8 1713.6 287.3 1716.5 292.55 1717.7 293.55 1720.15 293.6 1720.5 293.6 1720.55 294 1720.7 298.15 1724.55 298.4 1726.9 298.15 1725.7 294.85 1725.1 293.05 1724.4 291.1 1723.2 287.25 1722.1 283.1 1721.4 280.3 1720.6 277.2 1718.35 268.65 1716.5 259.55 1716.5 258.85 1716.1 258.5 1715.75 258.1 1715.15 257.8 1711.75 256.15 1711.8 260.3 Z" stroke="none" fill="#000000"></path>
</g>
</g>
</g>
</g>
</g>
</svg>
