
<svg viewBox="0 0 112 184" height="184px" width="112px" y="0px" x="0px" preserveAspectRatio="none" xmlns:xlink="http://www.w3.org/1999/xlink" version="1.1" xmlns="http://www.w3.org/2000/svg">
<defs></defs>

<g id="fun_scrollers">
<g transform="matrix( 0.3621063232421875, 0, 0, 0.3621063232421875, -594.2,0.1)" id="svg">
<g transform="matrix( 1, 0, 0, 1, 1682.6,8.2)" id="Layer_2">
<g transform="matrix( 0.9972686767578125, 0.072998046875, -0.1065673828125, 0.9947967529296875, 55,-9.45)" id="Layer_1">
<g transform="matrix( 0.9619598388671875, -0.01678466796875, 0.01678466796875, 0.9619598388671875, -399.45,-223.15)">
<g>
<g>
<path d="M 464.9 344.1
Q 460.35 344 458.55 344.15 455.35 344.45 452.45 345.7
L 449.85 347.25
Q 441.4 351.75 437.55 354.2 431.05 358.45 426.85 363.25 423.3 368.65 421.7 373.9 420.1 379.05 420 385.5
L 419.95 422.55
Q 419.85 441.1 419.5 453.4 418.75 480.7 417.95 535.4
L 417.7 553.85
Q 416.8 614.55 416.65 644.85
L 416.6 665.95
Q 416.55 670.75 416.85 676.25 418.9 684.65 424.85 690.25 431.65 693.35 437.55 693.9 443.45 694.4 472 694.45
L 543.15 694.5
Q 549.6 694.15 552.05 693.75 557.1 692.85 560.15 690.5
L 568.8 680.2
Q 571.35 676.5 572.3 672.05 573.05 668.6 573.1 663.05
L 573.15 629.3
Q 573.25 593.7 573.65 571.15 574.25 539.3 575.7 513
L 575.85 510.5
Q 576.65 495.25 577.15 487.95
L 577.85 478.25
Q 578.85 471.55 579.05 469.4
L 580.6 439.25
Q 581.9 414.85 581.95 402.65
L 582 399.75
Q 582 387.15 579.2 376.5 574.7 361.1 564.15 352.95 557.85 348.35 552.35 346.5 546.75 344.55 539 344.45
L 490.85 344.3
Q 479.7 344.3 474.15 344.2
L 464.9 344.1 Z" stroke="none" fill="#F5F7F9"></path>
</g>
</g>
</g>

<g transform="matrix( 0.9621124267578125, 0, 0, 0.9621124267578125, 3.4,8.55)">
<g>
<g>
<path d="M 138.9 39.5
L 138.95 30.5
Q 139 24 137.8 19.75 136.45 16.65 134.5 14.35 132.7 12.3 129.7 10.15
L 126.4 8.2
Q 119.4 4 112.55 2.05 105.75 0.1 97.5 0
L 93.6 0.05
Q 67.45 -0.05 43.8 2.7
L 40.25 3.15
Q 32.35 4.1 27.75 5 20.85 6.25 15.55 8.2 14.7 9.95 14.6 11.1 14.45 12.25 14.55 17.4
L 14.6 20.2
Q 14.6 22.25 14.6 26.35 14.75 29.9 15.95 32.2 18.95 33.65 19.85 33.95 20.75 34.2 22.9 34.45
L 47 34.65
Q 45.8 38.35 45.25 42.55 44.8 45.65 44.6 50.55 44.2 59.35 43.9 62.45 43.2 69.05 41.6 74.1 39.6 79.95 39.25 86.65 39.3 87.9 39.2 89.05 39.15 90.05 39.1 90.95
L 39.2 98.35
Q 39.7 98.15 40.15 98 43.85 96.7 47.45 96.25
L 58.15 96.35
Q 63.3 96.4 73.6 96.3 83.1 96.15 92.6 96.15
L 131 95.8
Q 133.75 95.7 134.6 95.75 135.5 95.8 138.05 96.1 138.7 96.35 139.4 96.65
L 145.85 96.55 145.8 91.85
Q 145.4 91.45 144.95 90.95
L 144.2 86.4
Q 143.8 80.95 142.7 76.25 139.05 60.45 138.9 39.5 Z" stroke="none" fill="#7E1A34"></path>
</g>
</g>
</g>

<g transform="matrix( 0.9621124267578125, 0, 0, 0.9621124267578125, 3.4,8.55)">
<g>
<g>
<path d="M 175.6 142.35
Q 174.2 125.2 168.35 112.2 164.9 105.75 161.7 101.85 157.5 96.75 152.35 94.1 147.5 91.75 144.95 89.6 144.2 87.7 144.05 87.05 143.9 86.4 143.75 84.3
L 143.75 79.65 142.75 79.65
Q 143.65 84.45 143.75 86.7 143.95 90.4 143 93.65 138.4455078125 94.9513671875 136.45 95.2
L 136.45 95.75
Q 138.8783203125 96.07734375 141.35 97.15
L 144.1 98.65
Q 153.15 103.7 158.65 110.65 164 118.3 166.55 127.55 168.8 135.75 169.05 146.05
L 169.1 148.7
Q 169.3 161.5 168.55 184.25
L 167.5 215.45
Q 167.35 220.25 166.8 224.25 166.35 227.3 166.1 230.25
L 164.9 259.5
Q 163.9 286.55 163.8 319 163.75 342.7 164.25 378.45
L 164.65 409.4
Q 164.8 418.3 164.4 422.7 162.7 426.75 161.85 427.95 161.05 429.2 157.95 432.45
L 153 437.55 151.1 441.55
Q 146.05 442.5 136.4 442.95
L 68.3 444.15
Q 53.45 444.65 45.95 444.65 32.95 444.7 23.75 442.9 20.55 442 18.85 440.75 17.15 439.65 15 436.95 12.55 432.45 11.45 428.95 10.3 425.05 10.2 420.3
L 9.85 380.45
Q 9.9 372 9.8 367.8
L 9.55 291.8
Q 9.35 232.55 9.55 209.85 9.8 191.65 9.65 178.55
L 9.35 140.5
Q 9.25 134.15 9.4 131.55 9.65 126.75 10.95 122.8
L 12.5 119.95
Q 20.9 109.8 24.3 107.05 27.7 104.3 39.7 98.15
L 43.1 96.4
Q 41.8 96.05 40.05 95.45
L 39.7 93.2
Q 39.7 93.1 39.9 85.45
L 38.9 85.45 38.95 90.45 36.95 90.5
Q 27.55 94.9 22.1 98.35 14.3 103.25 9.4 109.15 5.35 115.15 3.6 122.8 2.15 129.15 2.15 137.65
L 2.5 188.55
Q 2.7 200.35 2.8 223.7
L 2.95 242.7
Q 3.05 259.95 3.05 262.9 3.05 274.35 2.75 283.1 2.35 293.3 2.7 306.6 3.25 331.45 3.1 350.5 2.9 381.45 3.15 400.5
L 3.45 420.7
Q 3.55 429.85 4.85 435.05 7.55 442.1 13.95 447.3 17.7 449.15 22.2 450.05 25.75 450.75 30.8 451
L 99.7 451.2
Q 117.1 451.3 124 451.05 137.65 450.55 148.2 448.6 154.65 446.85 159.2 443.45 163.15 440.6 167.8 434.9 171.75 427.95 172.3 422.65 172.85 417.25 172.25 392.25
L 171.75 372.8
Q 170.95 336.8 171 311.25 171.1 277.95 172.55 249.75 173.7 228.55 174.65 199.9
L 175.65 173.55
Q 176.45 152.8 175.6 142.35 Z" stroke="none" fill="#706C84"></path>
</g>
</g>
</g>

<g transform="matrix( 0.9619598388671875, -0.01678466796875, 0.01678466796875, 0.9619598388671875, -399.45,-223.15)">
<g>
<g>
<path d="M 442.9 366.8
Q 442.1 367.1 441.35 367.45 440.6 367.85 439.85 368.25 439.5 369.65 439.2 371.1 438.65 373.95 438.25 376.8 438.05 378.2 438 379.65 437.9 381.15 437.95 382.65 437.95 384.1 438.05 385.6 438.15 387.1 438.35 388.65 438.5 390.15 438.8 391.6 438.9 392.05 439.1 392.45 439.2 392.7 439.35 393.05 439.45 393.2 439.55 393.4 439.6 393.45 439.65 393.5 439.75 393.6 439.9 393.7 440.05 393.8 440.2 393.9 440.45 394.05 440.7 394.2 440.95 394.35 441.3 394.4 442.05 394.8 442.9 395.05
L 479 395.05
Q 484.6 394.9 490.25 394.8 493 394.75 495.75 394.8 498.45 394.85 501.15 394.85 504.1 394.85 507.2 395.15 508.95 395.15 510.7 395.2 511.45 395.2 512.25 395.25 512.9 395.25 513.6 395.25 514.75 395.2 515.9 395.2 517.55 395.2 519.2 395.2 520.7 395.15 522.2 395.1 523.6 395.05 525.05 395.05 526.35 395 527.65 394.95 528.85 394.95 530.05 394.95 531.15 394.9 532.25 394.85 533.25 394.8 534.25 394.8 535.1 394.7 535.95 394.65 541.45 394.45 547 394.25 548.3 394.2 549.65 394.2 550.9 394.15 552.2 394.15 553.4 394.15 554.6 394.15 555.7 394.15 556.85 394.25 557.35 394.25 557.85 394.35
L 557.85 398.25
Q 557.3 398.3 556.8 398.4 556.35 398.45 555.9 398.5 555.55 398.55 555.2 398.65 554.9 398.7 554.65 398.9 554.35 398.9 554.15 399.1
L 554.15 403.4 563.85 403.4 564.1 378.7 563.85 371.25
Q 562.85 370.25 561.75 369.4 561.1 369 560.4 368.75 559.55 368.5 558.75 368.3 557.85 368.1 557 367.95 556.05 367.75 555.15 367.6 554.2 367.45 553.3 367.4 552.25 367.25 551.25 367.15 550.2 367.05 549.15 367 548 366.95 546.9 366.9
L 453.4 366.05
Q 452.65 366.05 451.95 366.05 451.3 366.05 450.65 366.05 450.1 366.05 449.55 366.05 449.05 366.05 448.55 366.05 448.15 366.05 447.8 366.05 447.45 366.05 447.15 366.05 446.9 366.05 446.7 366.05 446.5 366.05 446.35 366.05 445.45 366.2 444.6 366.35 443.75 366.55 442.9 366.8 Z" stroke="none" fill="#110F1A"></path>
</g>
</g>
</g>

<g transform="matrix( 0.9619598388671875, -0.01678466796875, 0.01678466796875, 0.9619598388671875, -154.35,-10.4)">
<g>
<g>
<path d="M 295.35 74.45
L 295.2 68
Q 295.15 65.3 295.05 64.4 294.8 62.7 294 61 290.25 59.1 285.75 58.75
L 225.65 58.65
Q 222.9 58.65 222.05 58.7 221.2 58.75 219 59
L 216 62
Q 213.95 70.1 213.05 83.45 212.35 94.15 210.45 100.7 209.35 104.2 209.05 106 208.75 107.75 208 115
L 288.6 115.25
Q 293.5 115.25 297 115
L 299 113
Q 299.3 109 298.35 103.15 295.8 89.2 295.35 74.45 Z" stroke="none" fill="#E21F2D"></path>
</g>
</g>
</g>

<g transform="matrix( 0.9621124267578125, 0, 0, 0.9621124267578125, 3.4,8.55)">
<g>
<g>
<path d="M 149.85 241.9
Q 149.75 241.1 149.3 238.7
L 148.5 235.6
Q 147.55 228.75 145.3 224.65
L 143 224.15 133.6 224.5
Q 124.05 224.75 116.9 225.4 104.95 226.55 88.55 226.85
L 79.65 227.05
Q 78.25 227.05 55.3 227.15 37.4 227.2 37.2 227.6 35.05 239.65 38.7 247.45 42.7 249.6 44.75 249.85 46.8 250.1 55.2 249.5 57.15 249.3 61.15 249.1 69.8 248.8 76.7 248.35 82 248 92.8 247.5 108 246.9 111.05 246.7
L 119.35 246.2
Q 123.45 245.95 127.65 245.9
L 128.7 247.9
Q 140.25 249.3 148.7 247.55
L 150 245.05
Q 149.9 242.7 149.85 241.9 Z" stroke="none" fill="#9DAEEA"></path>
</g>
</g>
</g>

<g transform="matrix( 0.9619598388671875, -0.01678466796875, 0.01678466796875, 0.9619598388671875, -154.4,-11.7)">
<g>
<g>
<path d="M 296.05 436.5
L 299.65 436.4
Q 304.65 436.35 311 436
L 312 435
Q 312.95 430.25 313.05 427 313.15 422.85 312 419 308.55 417.45 306.75 417.25 304.9 417.1 297.4 417.45
L 280.75 417.85
Q 270.85 418.15 255.4 417.5 247.1 417.2 238.95 417.05 232.1 417 225.1 416.75 215.7 416.35 211 416.3
L 205.75 416.25
Q 199.05 415.85 197.15 415.95 192.5 416.15 189 418 187.5 421.1 187.15 422.2 186.8 423.35 186.25 427 186.65 430.7 186.95 431.85 187.3 432.95 189 436 192.85 437.9 195.7 438.15 198.5 438.4 211.55 437.95
L 219.7 437.75
Q 230.4 437.75 241.05 437.45 253.3 437.1 263.15 437.05 285.05 436.75 296.05 436.5 Z" stroke="none" fill="#9DAEEA"></path>
</g>
</g>
</g>

<g transform="matrix( 0.9619598388671875, -0.01678466796875, 0.01678466796875, 0.9619598388671875, -399.45,-223.15)">
<g>
<g>
<path d="M 561.85 404.25
L 563.85 404.25 564.05 402.15 564 398.25 557.85 398.25
Q 555 398.45 554.15 398.45 553.35 398.45 551.2 398.3
L 542.2 397.65
Q 534.2 397.15 527.2 397.1
L 524.35 397.05
Q 510.05 396.9 495.7 396.9
L 446.45 396.6
Q 441.95 396.45 437.85 397.25 437.25 399.45 437.25 400.2 437.25 400.95 437.85 403.25
L 441.75 404.9 446.85 406.25
Q 453.75 409.45 457.85 410.85 464 413.05 469.4 413.5 477.3 413.95 485.85 416.85 494.8 420.1 499.5 419.9 504.15 419.75 523.25 415.5
L 537.45 412.35
Q 547.4 410.15 556.2 409.8 558.7 409.8 559.4 409.75 560.1 409.65 561.85 409.25
L 561.85 404.25 Z" stroke="none" fill="#992A3F"></path>
</g>
</g>
</g>

<g transform="matrix( 0.9619598388671875, -0.01678466796875, 0.01678466796875, 0.9619598388671875, -399.45,-223.15)">
<g>
<g>
<path d="M 434.85 262.6
Q 433 269.25 435.85 275.6
L 469.85 276.6 470.85 279.6 544.85 278.6
Q 544.7 277.75 544.55 276.95 543.65 271.8 536.65 265.9 529.85 260.95 529.85 260.6 482.05 248.45 434.85 262.6 Z" stroke="none" fill="#DF202E"></path>
</g>
</g>
</g>

<g transform="matrix( 0.9619598388671875, -0.01678466796875, 0.01678466796875, 0.9619598388671875, -154.4,-11.7)">
<g>
<g>
<path d="M 304.7 197.05
Q 303.25 194.85 301 193 297.15 191.85 291.75 191.85
L 288.3 191.95
Q 280.25 192.15 276.35 193.1 270.45 194.55 265.85 198.7
L 264 201
Q 261.7 203.8 260.8 205.8 259.85 207.9 259.5 211.35
L 259.55 216.1
Q 259.55 219.65 259.6 220.75 259.65 221.85 260 225 261 227.4 261.65 228.4 262.35 229.35 265.55 232.8 268.2 234.5 270.7 235.1 272.75 235.6 276.3 235.6
L 279.05 235.5
Q 287.95 235.35 291.25 235 298.25 234.25 303 232
L 304 228
Q 306.25 224.95 306.95 222.5 307.45 220.55 307.55 216.3
L 307.55 213.35
Q 307.8 206.75 307 202 305.95 198.95 304.7 197.05 Z" stroke="none" fill="#F1F3F7"></path>
</g>
</g>
</g>

<g transform="matrix( 0.9619598388671875, -0.01678466796875, 0.01678466796875, 0.9619598388671875, -154.4,-11.7)">
<g>
<g>
<path d="M 304.7 197.05
Q 303.25 194.85 301 193 297.15 191.85 291.75 191.85
L 288.3 191.95
Q 280.25 192.15 276.35 193.1 270.45 194.55 265.85 198.7
L 264 201
Q 261.7 203.8 260.8 205.8 259.85 207.9 259.5 211.35
L 259.55 216.1
Q 259.55 219.65 259.6 220.75 259.65 221.85 260 225 261 227.4 261.65 228.4 262.35 229.35 265.55 232.8 268.2 234.5 270.7 235.1 272.75 235.6 276.3 235.6
L 279.05 235.5
Q 287.95 235.35 291.25 235 298.25 234.25 303 232
L 304 228
Q 306.25 224.95 306.95 222.5 307.45 220.55 307.55 216.3
L 307.55 213.35
Q 307.8 206.75 307 202 305.95 198.95 304.7 197.05
M 284.7 198.8
L 288.75 198.85
Q 292.35 198.85 296 199 297.05 200.05 297.5 200.7 297.95 201.3 299.55 204 301.5 207.5 302 210.8 302.4 213.5 302 218
L 301 219
Q 299.9 221.65 299.4 222.55 298.9 223.4 297 226 291.85 228.6 285.75 229.25 280.55 229.8 274 229 270.7 227.85 269.85 227.2 268.95 226.6 267 224 265 219.3 265 214 267.35 209.05 268.45 207.6 269.6 206.2 273.85 202.55 276.55 200.6 278.95 199.8 281.3 199 284.7 198.8 Z" stroke="none" fill="#5D5A76"></path>
</g>
</g>
</g>

<g transform="matrix( 0.9619598388671875, -0.01678466796875, 0.01678466796875, 0.9619598388671875, -154.4,-11.7)">
<g>
<g>
<path d="M 190 143
L 189 144 188.85 150.1
Q 188.85 154.05 189 156
L 190 156 192 143 190 143 Z" stroke="none" fill="#110F1A"></path>
</g>
</g>
</g>
</g>
</g>

<g transform="matrix( 1, 0, 0, 1, 1682.6,8.2)" id="Layer_3">
<g>
<g>
<g>
<path d="M 156.75 261.4
Q 154.75 260.7 150.4 260.7
L 145.45 260.7
Q 145 260.7 144.85 260.85 144.65 261.05 144.65 261.5 144.55 265.35 144.75 267.3 144.95 269 145.35 270.85
L 146.45 271.3
Q 146.3 272 147 272.35 147.5 272.6 148.25 272.6
L 162.6 272.75
Q 162.85 268.55 162.6 264.35 161.7 264 159.7 262.85 157.85 261.8 156.75 261.4
M 89 246.85
Q 86.2 246.65 84.85 246.35 81.75 245.3 80.2 244.85 77.85 244.1 73.7 243.65 64.95 242.65 57.55 242.6
L 57.55 241.5
Q 56.95 241.55 54.35 241.4 54.171875 241.386328125 54 241.35
L 54 241.2
Q 54 240 53.8 239.4 53.7 239.15 52.95 237.75 52.4 236.2 52.05 235.45 51.55 234.25 50.15 232.5
L 46.5 227.7
Q 44.35 225 43.55 223.25 43.15 222.25 42.85 221.9 42.45 221.45 42.3 221.25 42.25 221.15 41.9 220.25 41.7 219.6 41.35 219.4 41.25 219.35 40.45 219.2
L 33.9 219.15 33.9 225.9
Q 34.55 225.9 34.85 226.7 35.05 227.1 35.35 227.95
L 35.9 228.65
Q 36.05 228.85 37 230.6 37.7 232 39.65 234.6
L 43 239
Q 45.5 242.2 46 244.2 46.25 245.1 46.35 245.3 46.367578125 245.3419921875 46.35 245.35 45.5533203125 246.769140625 45.15 248.45 44.65 250.5 44.65 253.25 44.65 253.75 44.85 258.1 44.95 260.05 45 263.95 45.15 267.35 45.6 269.7 46.85 276.4 51.05 279.7 53.75 281.8 57.95 282.45 60.7 282.9 65.65 282.85
L 71.1 282.8
Q 75 282.8 77.25 282.65 80.65 282.45 83.3 281.85 85.8677734375 281.267578125 88.8 280.05
L 88.8 280.65
Q 88.8 281.8 89.05 282.3 89.3 282.9 90 283.4 90.45 283.7 91.25 284.3 92 284.9 92.85 286.2 93.85 287.75 94.25 288.2 95.1 289.05 95.3 289.4 95.4 289.6 95.55 290.05 95.75 290.4 95.95 290.6
L 96.55 291.05 96.95 291.55
Q 97.3 291.85 98.3 291.95 98.4 292.55 99.15 292.85 99.1994140625 292.8685546875 99.25 292.85 99.262890625 293.06640625 99.3 293.2 82.081640625 294.110546875 54.65 295.8 51.85 295.95 50.2 296.45 47.85 297.1 46.7 298.7 45.45 300.4 45.35 304.25 44.7 324.1 46.7 340.6 49 359.8 55.05 375.8 57.25 381.6 59.3 385.1 61.9509765625 389.6927734375 65.8 393.65 64.996484375 393.473046875 64.2 393.3 58.8 392.15 24.55 386.9 0.4 383.2 -14.35 377.8 -17.65 376.6 -19.6 375.35 -22.3 373.55 -23.3 371.2 -23.4974609375 370.771875 -23.7 370.15 -11.6169921875 369.5037109375 0.4 371.1 4.85 371.75 13.75 373.15 21.45 374.1 27.1 373.4
L 27.1 366.85
Q 22.55 366.75 15.85 365.7 8.35 364.45 4.55 363.95 -2.35 363.05 -11.05 362.85 -15.9146484375 362.757421875 -25.25 362.85 -25.3435546875 362.648828125 -25.45 362.45 -25.9357421875 361.50546875 -26.75 360.7 -26.9763671875 358.16796875 -28.7 355.6 -30.1 353.45 -31.8 352.9 -32.7 352.55 -34.55 352.55
L -38.55 352.45
Q -41.55 352.45 -42.85 353.05 -45.3 354.15 -46.2 357.35 -46.7 359.05 -46.7 363
L -46.55 374.2
Q -46.55 375.75 -45.95 376.3 -45.45 376.7 -44.4 376.8 -44.0857421875 376.8349609375 -43.8 376.85 -43.434765625 379.1498046875 -42.55 380.3 -41.15 382.1 -38 382.25 -34.2 382.05 -32.45 382 -29.4 381.9 -25.6 382.95 -24.05 383.4 -18.9 385.2 -4.6 390.2 18.6 393.85 51.5 399 56.75 400.1 68.85 402.65 86.75 408.15 114.5 416.65 116.5 417.2 132.3 421.7 144.1 423.45 159.25 425.7 172.1 424.25
L 172.1 418
Q 157.8935546875 418.1294921875 139.35 414.2 149.25 412.9 155.4 407.85 159.1 404.8 162.85 398.95 171.8 384.95 174.8 368.25 175.9 362.1 176.25 354.5 176.5 349.15 176.45 340.65 176.3771484375 332.23515625 176.05 325.8
L 184.65 325.9
Q 186.45 325.9 187.25 325.6 187.8 325.35 188.75 324.75 189.5 324.4 189.85 324.15 191.6 323 191.4 319.85 191.25 318.25 191.2 317.45 191.1 316 191.3 315.05
L 184.45 314.9
Q 184.35 316.25 183.15 317.05
L 182.1 317.55 180.95 318.35
Q 180 319 178.1 318.95 176.3658203125 318.9146484375 175.5 318.95 174.615625 309.8453125 172.75 302.25 171.9 298.95 170.9 297 169.55 294.3 167.4 293 165 291.55 159.5 291.55 136.151171875 291.55 107.3 292.85
L 107.3 289.3
Q 107.3 287.8224609375 106.8 287.25
L 106.8 287
Q 106.8 286.55 106.7 286.35 106.55 286.1 105.8 285.8 105.15 285.6 105.15 285.1 103.5 285.05 102.6 283.3 102.05 282.25 101.95 282.1 101.2 281.45 100.85 281.1 100.7 280.95 99.9 279.6 99.25 278.35 98 277.35 96.5 276.25 96.35 276.1 97.252734375 275.52265625 97.9 275 99.6 273.5 101.9 270.2
L 104.35 266.65
Q 105.6 264.95 106 263.9 106.7 262.15 106.6 258.7
L 106.5 249.5
Q 98.25 247.65 89 246.85
M 152.45 298.5
Q 154.95 298.45 156.3 298.6 158.4 298.85 159.9 299.6 162.6 300.95 164.25 304.35 165.45 306.8 166.3 310.9 166.873046875 313.5822265625 167.35 316.25 165.471875 316.36484375 164 316.9 162.95 317.3 160.05 319.1 154.1 322.65 145.5 323.7 140 324.4 129.85 324.2
L 118.45 324.05
Q 111.25 323.95 107.35 323.25 101.25 322.15 97.35 319.1 95.6 317.75 93.8 315.6 92.75 314.3 90.8 311.55 89 308.95 88.65 307.6 88.3 306.15 88.55 303.45 88.666015625 302.1044921875 88.65 301.1 99.571484375 300.512890625 106.95 300.15 132.2 298.9 152.45 298.5
M 72.3 347.8
Q 74.25 347.35 77.3 349.5 81.9 352.8 90.15 360.5 98.4 368.2 102.95 371.45 108.35 375.35 118.2 380.25 123.9 383 127.9 384.5 133.25 386.55 138 387.4 143.45 388.4 148.55 387.85 154.1 387.25 158.55 384.85 159.8990234375 384.0791015625 160.8 383.55 158.53125 388.354296875 155.65 392.65 149.8 401.3 143.3 404.5 138.1 407.1 130.85 407.15 126.05 407.15 117.8 405.85 112.794921875 405.04453125 108.55 404.2 108.054296875 403.8466796875 107.2 403.45 104.65 402.25 102 400 98.7 397.35 95 393.45 92.95 391.25 88.6 386.25 84.3 381.25 82.5 378.6 80.05 375.05 76.6 368.1 73.95 362.75 72.85 359.95 71.1 355.3 70.75 351.35
L 69.2 351.3 69.2 351.3
Q 69.5 350.05 70.3 349.1 71.15 348.1 72.3 347.8
M 58.5 436.2
Q 58.3 432.3 58.45 431.35
L 51.65 431.2
Q 52.3 433.4 49.4 436 47.8 437.45 44.55 439.7 41.1 442.15 39.65 443.35 38 444.75 34.85 447.95 31.75 451.1 30 452.55 28 454.15 23.1 457.2 19.4 459.45 17.45 460.45 14.2 462.1 11.4 462.8
L 11.4 461.5
Q 7.8 460.35 4.35 457.35 1.9 455.2 -1.4 451.2 -3.1 449.2 -4.1 448.6 -5.9 447.55 -9.45 447.75 -13.8 448.05 -15.15 447.75 -15.05 449 -15.15 450.95 -15.35 453.45 -15.35 454.15 -15.45 458.15 -13.5 460.15 -12.65 461.05 -11.05 461.95
L 1.25 469.3
Q 4.85 471.4 6.85 471.85 9.95 472.55 14.2 471.4 19.75 469.9 28.1 465.05 33.75 461.85 36.75 459.3 38.35 458 40.95 455.35 43.8 452.5 45.1 451.35 47.9 448.8 54 444.6 57 442.5 57.85 440.8 58.65 439.15 58.5 436.2
M 128.9 439.6
Q 126.9 441.55 123 444.9
L 90.5 473.15
Q 89.4 471.3 88.85 469.05 88.55 466.3 88.15 465 87.65 463.35 85.75 460.45
L 82.55 455.7
Q 81.15 453.55 79.95 453 79 452.55 76.9 452.55
L 71.85 452.5
Q 70.25 452.5 69.65 453.05 69 453.65 68.9 455.3 68.55 460.5 68.7 463.3 68.9 467.75 70.15 471.05 71.5 474.5 75.05 478.7 78.3 482.45 81 483.45 82.75 484.1 86.1 484.2 90.45 484.3 92.6 483.45 94.05 482.9 95.6 481.75 96.55 481.05 98.3 479.5
L 113.5 465.85
Q 121.1 459 126.8 454.15 135.05 447.1 135.25 446.9 138.3 444.15 139.45 442.25 141.85 438.15 140.6 433.7
L 134 433.6
Q 132 436.5 128.9 439.6
M 184.7 190.7
Q 178.3 189.7 168.85 192.75 164.05 194.4 156.7 197.4 146.3 201.6 141.2 203.9 132.7 207.7 126.3 211.55 118.45 216.2 114.7 220.85 113.2 222.6 112.75 224.3 112.4 225.45 112.5 227.4 112.55 229.95 112.5 230.6 113.45 230.35 115.95 230.65 118.1 230.95 119.2 230.4 119.95 230 121.1 228.4 125.5 222.6 134.4 217.45 138.85 214.85 144.75 212.2 147.9 210.75 155.4 207.6 170.05 201.5 176.9 199.15 180.45 197.9 182.55 197.8 184 197.7 184.45 197.2 184.75 196.8 184.75 195.8
L 184.7 190.7 Z" stroke="none" fill="#000000"></path>

<path d="M 77.3 349.5
Q 74.25 347.35 72.3 347.8 71.15 348.1 70.3 349.1 69.5 350.05 69.2 351.3
L 69.2 351.3 70.75 351.35
Q 71.1 355.3 72.85 359.95 73.95 362.75 76.6 368.1 80.05 375.05 82.5 378.6 84.3 381.25 88.6 386.25 92.95 391.25 95 393.45 98.7 397.35 102 400 104.65 402.25 107.2 403.45 108.054296875 403.8466796875 108.55 404.2 112.794921875 405.04453125 117.8 405.85 126.05 407.15 130.85 407.15 138.1 407.1 143.3 404.5 149.8 401.3 155.65 392.65 158.53125 388.354296875 160.8 383.55 159.8990234375 384.0791015625 158.55 384.85 154.1 387.25 148.55 387.85 143.45 388.4 138 387.4 133.25 386.55 127.9 384.5 123.9 383 118.2 380.25 108.35 375.35 102.95 371.45 98.4 368.2 90.15 360.5 81.9 352.8 77.3 349.5
M 156.3 298.6
Q 154.95 298.45 152.45 298.5 132.2 298.9 106.95 300.15 99.571484375 300.512890625 88.65 301.1 88.666015625 302.1044921875 88.55 303.45 88.3 306.15 88.65 307.6 89 308.95 90.8 311.55 92.75 314.3 93.8 315.6 95.6 317.75 97.35 319.1 101.25 322.15 107.35 323.25 111.25 323.95 118.45 324.05
L 129.85 324.2
Q 140 324.4 145.5 323.7 154.1 322.65 160.05 319.1 162.95 317.3 164 316.9 165.471875 316.36484375 167.35 316.25 166.873046875 313.5822265625 166.3 310.9 165.45 306.8 164.25 304.35 162.6 300.95 159.9 299.6 158.4 298.85 156.3 298.6 Z" stroke="none" fill="#FFFFFF"></path>
</g>
</g>
</g>
</g>
</g>

<g transform="matrix( 0.3621063232421875, 0, 0, 0.3621063232421875, -594.2,0.1)" id="Layer_2"></g>

<g transform="matrix( 0.3621063232421875, 0, 0, 0.3621063232421875, -594.2,0.1)" id="Layer_3"></g>

<g transform="matrix( 0.3621063232421875, 0, 0, 0.3621063232421875, -594.2,0.1)" id="Layer_6"></g>

<g transform="matrix( 0.3621063232421875, 0, 0, 0.3621063232421875, -594.2,0.1)" id="MergedLayer_1"></g>
</g>
</svg>
