
<svg viewBox="0 0 112 184" height="184px" width="112px" y="0px" x="0px" preserveAspectRatio="none" xmlns:xlink="http://www.w3.org/1999/xlink" version="1.1" xmlns="http://www.w3.org/2000/svg">
<defs></defs>

<g id="fun_scrollers">
<g transform="matrix( 0.3621063232421875, 0, 0, 0.3621063232421875, -594.2,0.1)" id="svg"></g>

<g transform="matrix( 0.3621063232421875, 0, 0, 0.3621063232421875, -594.2,0.1)" id="Layer_2"></g>

<g transform="matrix( 0.3621063232421875, 0, 0, 0.3621063232421875, -594.2,0.1)" id="Layer_3"></g>

<g transform="matrix( 0.3621063232421875, 0, 0, 0.3621063232421875, -594.2,0.1)" id="Layer_6">
<g>
<g>
<g>
<path d="M 1831.1 92.1
L 1830.5 92.05 1830.1 92.05 1829.65 96.8 1827.7 96.7
Q 1818.25 100.3 1812.65 103.2 1804.65 107.3 1799.35 112.6 1794.9 118.1 1792.4 125.3 1790.35 131.25 1789.5 139.4
L 1784.6 188.15
Q 1783.6 199.45 1781.3 221.8
L 1779.5 240
Q 1777.85 256.5 1777.55 259.3 1776.35 270.3 1775.2 278.65 1773.75 288.35 1772.7 301.15 1770.65 325 1768.55 343.15 1765.25 372.8 1763.5 391
L 1761.7 410.4
Q 1760.9 419.15 1761.6 424.25 1763.45 431.2 1769.1 436.6 1772.5 438.65 1776.7 439.8 1780.05 440.7 1784.85 441.3
L 1850.95 446.35
Q 1867.65 447.65 1874.25 447.9 1887.4 448.35 1897.75 447.25 1904.15 446.05 1908.85 443.1 1912.95 440.65 1917.95 435.55 1922.45 429.15 1923.5 424.1 1924.6 419 1926.6 395
L 1928.15 376.35
Q 1931 341.85 1933.7 317.4 1935.246875 303.3015625 1936.95 290.2
L 1936.95 241.85 1933.15 267.45
Q 1929.4 293.25 1926 324.3 1923.5 347 1920.35 381.25
L 1917.55 410.9
Q 1916.75 419.4 1915.95 423.6 1913.9 427.35 1912.95 428.45 1912.05 429.6 1908.75 432.5
L 1903.5 437.05 1901.4 440.45 1901.25 440.7
Q 1900.9220703125 440.7369140625 1900.55 440.75 1895.7240234375 441.2365234375 1887 441.05
L 1821.55 437.4
Q 1807.25 436.8 1800.05 436.3 1787.55 435.4 1778.95 433.05 1775.95 432 1774.45 430.65 1772.95 429.5 1771.15 426.75 1769.25 422.3 1768.55 418.85 1767.85 415 1768.25 410.45
L 1772 372.35
Q 1772.9 364.25 1773.25 360.2
L 1780.8 287.45
Q 1786.65 230.7 1789.2 209 1791.3 191.65 1792.5 179.1
L 1796.1 142.6
Q 1796.65 136.55 1797.05 134.05 1797.8 129.5 1799.45 125.8
L 1801.25 123.2
Q 1810.35 114.05 1813.85 111.65 1817.45 109.25 1829.6 104.25
L 1829.7 104.2 1833 102.8
Q 1831.8 102.4 1830.2 101.65
L 1830.1 99.5
Q 1830.1 99.4 1831.1 92.1
M 1930.95 93.8
L 1930.35 93.75
Q 1930.75 98.45 1930.55 100.6 1930.4 104.1 1929.15 107.2 1924.65 108.1 1922.7 108.25
L 1922.65 108.75
Q 1924.3015625 109.108984375 1925.9 109.8 1926.565625 110.11171875 1927.2 110.45
L 1929.7 112
Q 1933.775 114.75 1936.95 117.9
L 1936.95 107.55
Q 1933.3595703125 105.366015625 1931.4 103.45 1931.274609375 102.9859375 1931.15 102.6 1930.8875 101.4244140625 1930.85 100.9 1930.75 100.3 1930.8 98.3
L 1931.05 96.05 1931.3 93.85 1930.95 93.8 Z" stroke="none" fill="#706C84"></path>

<path d="M 1862.3 104.8
Q 1852.4 104.2 1847.45 103.8
L 1837.25 102.95
Q 1833.7 103.15 1830 104.1 1829.8681640625 104.1494140625 1829.7 104.2
L 1829.6 104.25
Q 1817.45 109.25 1813.85 111.65 1810.35 114.05 1801.25 123.2
L 1799.45 125.8
Q 1797.8 129.5 1797.05 134.05 1796.65 136.55 1796.1 142.6
L 1792.5 179.1
Q 1791.3 191.65 1789.2 209 1786.65 230.7 1780.8 287.45
L 1773.25 360.2
Q 1772.9 364.25 1772 372.35
L 1768.25 410.45
Q 1767.85 415 1768.55 418.85 1769.25 422.3 1771.15 426.75 1772.95 429.5 1774.45 430.65 1775.95 432 1778.95 433.05 1787.55 435.4 1800.05 436.3 1807.25 436.8 1821.55 437.4
L 1887 441.05
Q 1895.7240234375 441.2365234375 1900.55 440.75 1901.0029296875 440.6162109375 1901.4 440.45
L 1903.5 437.05 1908.75 432.5
Q 1912.05 429.6 1912.95 428.45 1913.9 427.35 1915.95 423.6 1916.75 419.4 1917.55 410.9
L 1920.35 381.25
Q 1923.5 347 1926 324.3 1929.4 293.25 1933.15 267.45
L 1936.95 241.85 1936.95 117.9
Q 1933.775 114.75 1929.7 112
L 1927.2 110.45
Q 1926.565625 110.11171875 1925.9 109.8
L 1925.4 109.8
Q 1924.75 109.45 1924.15 109.2 1921.75 108.7 1920.9 108.6 1920.1 108.5 1917.45 108.4
L 1880.55 106
Q 1871.45 105.35 1862.3 104.8
M 1906.75 231.75
L 1915.75 232.1 1917.9 232.7
Q 1919.65 236.8 1919.9 243.45
L 1920.35 246.45
Q 1920.55 248.75 1920.5 249.5 1920.45 250.35 1920.35 252.6
L 1918.8 254.9
Q 1910.55 255.95 1899.65 253.8
L 1898.8 251.8
Q 1894.8 251.55 1890.8 251.55
L 1882.8 251.4
Q 1879.85 251.4 1865.25 250.9 1854.8 250.6 1849.7 250.6 1843 250.5 1834.65 250.2 1830.85 250.1 1828.9 250.2 1820.8 250.15 1818.9 249.8 1816.9 249.4 1813.35 247.05 1810.65 239.3 1813.9 227.95 1814.15 227.6 1831.3 228.8 1853.35 230.3 1854.65 230.4
L 1863.25 230.8
Q 1879 231.7 1890.6 231.45 1897.5 231.3 1906.75 231.75
M 1808.4 385.7
L 1813.45 386.05
Q 1817.95 386.35 1826.95 387.2 1833.65 387.8 1840.25 388.25 1848.05 388.8 1856 389.55 1870.8 391 1880.35 391.2
L 1896.4 391.75
Q 1903.65 391.8 1905.35 392.05 1907.1 392.35 1910.25 394.05 1911.05 397.75 1910.6 401.75 1910.25 404.85 1908.9 409.35
L 1907.85 410.25
Q 1901.7 410.25 1896.9 410.05
L 1893.45 409.95
Q 1882.85 409.6 1861.75 408.7 1852.3 408.2 1840.5 407.9 1830.25 407.65 1819.95 407.05
L 1812.1 406.8
Q 1799.55 406.5 1796.85 406.1 1794.15 405.75 1790.6 403.7 1789.2 400.7 1789 399.65 1788.8 398.55 1788.75 394.95 1789.6 391.5 1790 390.4 1790.45 389.4 1792.15 386.45 1795.65 384.9 1800.15 384.95 1802 384.95 1808.4 385.7
M 1877.25 196.8
L 1877.6 192.25
Q 1878.25 188.95 1879.35 187 1880.35 185.15 1882.85 182.6
L 1884.8 180.5
Q 1889.6 176.7 1895.4 175.65 1899.2 174.95 1907 175.2
L 1910.3 175.3
Q 1915.5 175.6 1919.1 176.9 1921.1 178.8 1922.3 180.95 1923.35 182.85 1924.05 185.85 1924.45 190.4 1923.65 196.75
L 1923.4 199.55
Q 1922.95 203.65 1922.25 205.5 1921.4 207.8 1919 210.55
L 1917.65 214.35
Q 1912.9 216.25 1906.1 216.6 1902.9 216.75 1894.35 216.45
L 1891.7 216.4
Q 1888.3 216.2 1886.35 215.6 1884 214.9 1881.6 213.1 1878.85 209.65 1878.2 208.7 1877.7 207.7 1876.95 205.35 1876.85 202.3 1876.9 201.25 1876.95 200.2 1877.25 196.8
M 1822.85 122.35
Q 1823.15 122.35 1823.5 122.35 1823.8 122.4 1824.2 122.4 1824.7 122.45 1825.15 122.45 1825.7 122.5 1826.2 122.5 1826.85 122.55 1827.45 122.6 1828.15 122.6 1828.85 122.65
L 1918.7 128.45
Q 1919.75 128.55 1920.8 128.7 1921.8 128.8 1922.8 128.95 1923.75 129.1 1924.8 129.3 1925.65 129.4 1926.5 129.6 1927.35 129.75 1928.3 130 1929.1 130.2 1929.9 130.45 1930.7 130.7 1931.45 131 1932.15 131.25 1932.7 131.65 1933.7 132.5 1934.55 133.5
L 1932.25 159.45 1932.45 159.45 1931.75 165.15 1929.85 165.05 1929.4 169.85
Q 1927.65 170.1 1927 170.2 1926.3 170.2 1923.9 170.05 1915.4 169.95 1905.7 171.5
L 1891.75 173.75
Q 1873.05 176.85 1868.55 176.75 1864 176.7 1855.7 173.05 1847.75 169.85 1840.2 168.95 1835 168.25 1829.3 165.8 1825.5 164.3 1819.1 160.8
L 1814.3 159.25 1810.7 157.5
Q 1810.35 155.25 1810.4 154.5 1810.5 153.8 1811.25 151.75 1815.25 151.15 1819.6 151.55
L 1866.85 154.5
Q 1880.65 155.25 1894.4 156.15
L 1897.15 156.35
Q 1903.85 156.8 1911.5 157.65
L 1920.1 158.8
Q 1922.2 159.05 1922.95 159.1 1923.720703125 159.1482421875 1926.3 159.1 1926.3990234375 159.1 1926.5 159.1
L 1926.85 155.35
Q 1926.35 155.25 1925.9 155.2 1924.8 155.05 1923.75 155 1922.6 154.9 1921.4 154.85 1920.15 154.8 1918.95 154.75 1917.65 154.7 1916.4 154.65 1911.05 154.55 1905.75 154.5 1904.95 154.5 1904.1 154.55 1903.15 154.5 1902.2 154.5 1901.15 154.45 1900.1 154.45 1898.95 154.4 1897.8 154.35 1896.5 154.3 1895.25 154.3 1893.85 154.2 1892.5 154.2 1891.05 154.1 1889.6 154.1 1888 154 1886.45 153.9 1885.35 153.85 1884.2 153.85 1883.55 153.8 1882.95 153.75 1882.15 153.65 1881.45 153.65 1879.75 153.5 1878.05 153.4 1875.15 153 1872.3 152.8 1869.7 152.65 1867.1 152.5 1864.45 152.3 1861.85 152.2 1856.4 152 1850.95 151.85
L 1816.25 149.9
Q 1815.5 149.6 1814.8 149.15 1814.5 149.1 1814.25 148.95 1814 148.75 1813.8 148.65 1813.65 148.55 1813.55 148.45 1813.4 148.35 1813.3 148.25 1813.25 148.15 1813.2 148.1 1813.15 147.9 1813.05 147.75 1812.9 147.45 1812.85 147.2 1812.7 146.8 1812.65 146.35 1812.5 144.95 1812.45 143.5 1812.4 142 1812.45 140.55 1812.45 139.15 1812.6 137.75 1812.65 136.3 1812.9 134.85 1813.05 133.5 1813.4 132.15 1814.05 129.4 1814.75 126.75 1815.1916015625 125.37578125 1815.6 124.1
L 1815.65 123.95 1816.7 123 1817.9 123.05
Q 1818.299609375 122.9251953125 1818.7 122.8 1819.55 122.6 1820.4 122.5 1821.2 122.4 1822.1 122.3 1822.25 122.3 1822.45 122.3 1822.6 122.3 1822.85 122.35 Z" stroke="none" fill="#F5F7F9"></path>

<path d="M 1823.5 122.35
Q 1823.15 122.35 1822.85 122.35 1822.6 122.3 1822.45 122.3 1822.25 122.3 1822.1 122.3 1821.2 122.4 1820.4 122.5 1819.55 122.6 1818.7 122.8 1818.299609375 122.9251953125 1817.9 123.05
L 1816.7 123 1815.65 123.95 1815.6 124.1
Q 1815.1916015625 125.37578125 1814.75 126.75 1814.05 129.4 1813.4 132.15 1813.05 133.5 1812.9 134.85 1812.65 136.3 1812.6 137.75 1812.45 139.15 1812.45 140.55 1812.4 142 1812.45 143.5 1812.5 144.95 1812.65 146.35 1812.7 146.8 1812.85 147.2 1812.9 147.45 1813.05 147.75 1813.15 147.9 1813.2 148.1 1813.25 148.15 1813.3 148.25 1813.4 148.35 1813.55 148.45 1813.65 148.55 1813.8 148.65 1814 148.75 1814.25 148.95 1814.5 149.1 1814.8 149.15 1815.5 149.6 1816.25 149.9
L 1850.95 151.85
Q 1856.4 152 1861.85 152.2 1864.45 152.3 1867.1 152.5 1869.7 152.65 1872.3 152.8 1875.15 153 1878.05 153.4 1879.75 153.5 1881.45 153.65 1882.15 153.65 1882.95 153.75 1883.55 153.8 1884.2 153.85 1885.35 153.85 1886.45 153.9 1888 154 1889.6 154.1 1891.05 154.1 1892.5 154.2 1893.85 154.2 1895.25 154.3 1896.5 154.3 1897.8 154.35 1898.95 154.4 1900.1 154.45 1901.15 154.45 1902.2 154.5 1903.15 154.5 1904.1 154.55 1904.95 154.5 1905.75 154.5 1911.05 154.55 1916.4 154.65 1917.65 154.7 1918.95 154.75 1920.15 154.8 1921.4 154.85 1922.6 154.9 1923.75 155 1924.8 155.05 1925.9 155.2 1926.35 155.25 1926.85 155.35
L 1926.5 159.1 1932.25 159.45 1934.55 133.5
Q 1933.7 132.5 1932.7 131.65 1932.15 131.25 1931.45 131 1930.7 130.7 1929.9 130.45 1929.1 130.2 1928.3 130 1927.35 129.75 1926.5 129.6 1925.65 129.4 1924.8 129.3 1923.75 129.1 1922.8 128.95 1921.8 128.8 1920.8 128.7 1919.75 128.55 1918.7 128.45
L 1828.85 122.65
Q 1828.15 122.6 1827.45 122.6 1826.85 122.55 1826.2 122.5 1825.7 122.5 1825.15 122.45 1824.7 122.45 1824.2 122.4 1823.8 122.4 1823.5 122.35 Z" stroke="none" fill="#110F1A"></path>

<path d="M 1810.7 157.5
L 1814.3 159.25 1819.1 160.8
Q 1825.5 164.3 1829.3 165.8 1835 168.25 1840.2 168.95 1847.75 169.85 1855.7 173.05 1864 176.7 1868.55 176.75 1873.05 176.85 1891.75 173.75
L 1905.7 171.5
Q 1915.4 169.95 1923.9 170.05 1926.3 170.2 1927 170.2 1927.65 170.1 1929.4 169.85
L 1929.85 165.05 1931.75 165.15 1932.45 159.45 1932.25 159.45 1926.5 159.1
Q 1926.3990234375 159.1 1926.3 159.1 1923.720703125 159.1482421875 1922.95 159.1 1922.2 159.05 1920.1 158.8
L 1911.5 157.65
Q 1903.85 156.8 1897.15 156.35
L 1894.4 156.15
Q 1880.65 155.25 1866.85 154.5
L 1819.6 151.55
Q 1815.25 151.15 1811.25 151.75 1810.5 153.8 1810.4 154.5 1810.35 155.25 1810.7 157.5 Z" stroke="none" fill="#992A3F"></path>

<path d="M 1877.6 192.25
L 1877.25 196.8
Q 1876.95 200.2 1876.9 201.25 1876.85 202.3 1876.95 205.35 1877.7 207.7 1878.2 208.7 1878.85 209.65 1881.6 213.1 1884 214.9 1886.35 215.6 1888.3 216.2 1891.7 216.4
L 1894.35 216.45
Q 1902.9 216.75 1906.1 216.6 1912.9 216.25 1917.65 214.35
L 1919 210.55
Q 1921.4 207.8 1922.25 205.5 1922.95 203.65 1923.4 199.55
L 1923.65 196.75
Q 1924.45 190.4 1924.05 185.85 1923.35 182.85 1922.3 180.95 1921.1 178.8 1919.1 176.9 1915.5 175.6 1910.3 175.3
L 1907 175.2
Q 1899.2 174.95 1895.4 175.65 1889.6 176.7 1884.8 180.5
L 1882.85 182.6
Q 1880.35 185.15 1879.35 187 1878.25 188.95 1877.6 192.25
M 1892.2 184.6
Q 1894.95 182.85 1897.3 182.25 1899.65 181.6 1902.95 181.6
L 1906.8 181.85
Q 1910.3 182.05 1913.8 182.4 1914.7 183.45 1915.1 184.05 1915.45 184.7 1916.75 187.35 1918.3 190.8 1918.5 194 1918.7 196.6 1917.9 200.9
L 1916.85 201.8
Q 1915.6 204.3 1915 205.1 1914.45 205.9 1912.4 208.3 1907.25 210.5 1901.35 210.8 1896.3 211.05 1890.05 209.9 1886.95 208.65 1886.2 208 1885.4 207.35 1883.75 204.8 1882.25 200.2 1882.7 195.1 1885.35 190.45 1886.55 189.1 1887.75 187.9 1892.2 184.6 Z" stroke="none" fill="#5D5A76"></path>

<path d="M 1897.3 182.25
Q 1894.95 182.85 1892.2 184.6 1887.75 187.9 1886.55 189.1 1885.35 190.45 1882.7 195.1 1882.25 200.2 1883.75 204.8 1885.4 207.35 1886.2 208 1886.95 208.65 1890.05 209.9 1896.3 211.05 1901.35 210.8 1907.25 210.5 1912.4 208.3 1914.45 205.9 1915 205.1 1915.6 204.3 1916.85 201.8
L 1917.9 200.9
Q 1918.7 196.6 1918.5 194 1918.3 190.8 1916.75 187.35 1915.45 184.7 1915.1 184.05 1914.7 183.45 1913.8 182.4 1910.3 182.05 1906.8 181.85
L 1902.95 181.6
Q 1899.65 181.6 1897.3 182.25 Z" stroke="none" fill="#F1F3F7"></path>

<path d="M 1813.45 386.05
L 1808.4 385.7
Q 1802 384.95 1800.15 384.95 1795.65 384.9 1792.15 386.45 1790.45 389.4 1790 390.4 1789.6 391.5 1788.75 394.95 1788.8 398.55 1789 399.65 1789.2 400.7 1790.6 403.7 1794.15 405.75 1796.85 406.1 1799.55 406.5 1812.1 406.8
L 1819.95 407.05
Q 1830.25 407.65 1840.5 407.9 1852.3 408.2 1861.75 408.7 1882.85 409.6 1893.45 409.95
L 1896.9 410.05
Q 1901.7 410.25 1907.85 410.25
L 1908.9 409.35
Q 1910.25 404.85 1910.6 401.75 1911.05 397.75 1910.25 394.05 1907.1 392.35 1905.35 392.05 1903.65 391.8 1896.4 391.75
L 1880.35 391.2
Q 1870.8 391 1856 389.55 1848.05 388.8 1840.25 388.25 1833.65 387.8 1826.95 387.2 1817.95 386.35 1813.45 386.05
M 1915.75 232.1
L 1906.75 231.75
Q 1897.5 231.3 1890.6 231.45 1879 231.7 1863.25 230.8
L 1854.65 230.4
Q 1853.35 230.3 1831.3 228.8 1814.15 227.6 1813.9 227.95 1810.65 239.3 1813.35 247.05 1816.9 249.4 1818.9 249.8 1820.8 250.15 1828.9 250.2 1830.85 250.1 1834.65 250.2 1843 250.5 1849.7 250.6 1854.8 250.6 1865.25 250.9 1879.85 251.4 1882.8 251.4
L 1890.8 251.55
Q 1894.8 251.55 1898.8 251.8
L 1899.65 253.8
Q 1910.55 255.95 1918.8 254.9
L 1920.35 252.6
Q 1920.45 250.35 1920.5 249.5 1920.55 248.75 1920.35 246.45
L 1919.9 243.45
Q 1919.65 236.8 1917.9 232.7
L 1915.75 232.1 Z" stroke="none" fill="#9DAEEA"></path>

<path d="M 1931.05 96.05
L 1930.8 98.3
Q 1930.75 100.3 1930.85 100.9 1930.8875 101.4244140625 1931.15 102.6
L 1931.05 100.35
Q 1931.1130859375 98.1431640625 1931.05 96.05
M 1922 24.25
Q 1915.7 19.75 1909.35 17.35 1903 15.05 1895.1 14.35
L 1891.35 14.1
Q 1866.25 12.2 1843.25 13.2
L 1839.85 13.35
Q 1832.2 13.65 1827.65 14.25 1820.9 14.95 1815.6 16.45 1814.65 18.05 1814.4 19.15 1814.15 20.2 1813.7 25.15
L 1813.5 27.9
Q 1813.25 29.85 1812.85 33.75 1812.65 37.15 1813.55 39.4 1816.3 41.05 1817.1 41.4 1817.95 41.7 1819.95 42.05
L 1843.1 43.95
Q 1841.55 47.4 1840.6 51.4 1839.85 54.35 1839.15 59.05 1837.85 67.4 1837.25 70.35 1835.9 76.65 1833.85 81.3 1831.5720703125 86.311328125 1830.5 92.05
L 1831.1 92.1
Q 1830.1 99.4 1830.1 99.5
L 1830.2 101.65
Q 1831.8 102.4 1833 102.8
L 1829.7 104.2
Q 1829.8681640625 104.1494140625 1830 104.1 1833.7 103.15 1837.25 102.95
L 1847.45 103.8
Q 1852.4 104.2 1862.3 104.8 1871.45 105.35 1880.55 106
L 1917.45 108.4
Q 1920.1 108.5 1920.9 108.6 1921.75 108.7 1924.15 109.2 1924.75 109.45 1925.4 109.8
L 1925.9 109.8
Q 1924.3015625 109.108984375 1922.65 108.75
L 1922.7 108.25
Q 1924.65 108.1 1929.15 107.2 1930.4 104.1 1930.55 100.6 1930.75 98.45 1930.35 93.75
L 1930.95 93.8
Q 1930.843359375 92.11640625 1930.65 90.5 1928.75 75.1 1930.75 55.05
L 1931.7 46.45
Q 1932.45 40.2 1931.75 36.1 1930.75 33.05 1929.15 30.7 1927.6 28.55 1924.95 26.3
L 1922 24.25
M 1911.4 25.7
Q 1911.35 26.05 1917.5 31.15 1923.7 37.2 1924.1 42.15 1924.2 42.95 1924.25 43.75
L 1853.05 40.75 1852.4 37.85 1819.75 35
Q 1817.55 28.8 1819.95 22.5 1866.5 11.5 1911.4 25.7
M 1924.3 54.65
Q 1924.3 55.5 1924.1 58.1
L 1923.7 64.3
Q 1922.9 78.45 1924.15 91.95 1924.55 97.6 1923.9 101.4
L 1921.85 103.25
Q 1918.45 103.3 1913.75 103.05
L 1836.3 98.5
Q 1837.65 91.55 1838.05 89.9 1838.5 88.2 1839.85 84.9 1842.25 78.7 1843.85 68.5 1845.9 55.75 1848.55 48.1
L 1851.7 45.4
Q 1853.8 45.3 1854.6 45.3 1855.45 45.3 1858.05 45.45
L 1915.85 48.75
Q 1920.15 49.35 1923.55 51.35 1924.2 53.05 1924.3 54.65 Z" stroke="none" fill="#7E1A34"></path>

<path d="M 1924.1 58.1
Q 1924.3 55.5 1924.3 54.65 1924.2 53.05 1923.55 51.35 1920.15 49.35 1915.85 48.75
L 1858.05 45.45
Q 1855.45 45.3 1854.6 45.3 1853.8 45.3 1851.7 45.4
L 1848.55 48.1
Q 1845.9 55.75 1843.85 68.5 1842.25 78.7 1839.85 84.9 1838.5 88.2 1838.05 89.9 1837.65 91.55 1836.3 98.5
L 1913.75 103.05
Q 1918.45 103.3 1921.85 103.25
L 1923.9 101.4
Q 1924.55 97.6 1924.15 91.95 1922.9 78.45 1923.7 64.3
L 1924.1 58.1 Z" stroke="none" fill="#E21F2D"></path>

<path d="M 1917.5 31.15
Q 1911.35 26.05 1911.4 25.7 1866.5 11.5 1819.95 22.5 1817.55 28.8 1819.75 35
L 1852.4 37.85 1853.05 40.75 1924.25 43.75
Q 1924.2 42.95 1924.1 42.15 1923.7 37.2 1917.5 31.15 Z" stroke="none" fill="#DF202E"></path>
</g>
</g>
</g>
</g>

<g transform="matrix( 0.3621063232421875, 0, 0, 0.3621063232421875, -594.2,0.1)" id="MergedLayer_1">
<g>
<g>
<g>
<path d="M 1802.55 439.55
L 1795.75 439.4
Q 1796.4 441.6 1793.5 444.2 1791.9 445.65 1788.65 447.9 1785.2 450.35 1783.75 451.55 1782.1 452.95 1778.95 456.15 1775.85 459.3 1774.1 460.75 1772.1 462.35 1767.2 465.4 1763.5 467.65 1761.55 468.65 1758.3 470.3 1755.5 471
L 1755.5 469.7
Q 1751.9 468.55 1748.45 465.55 1746 463.4 1742.7 459.4 1741 457.4 1740 456.8 1738.2 455.75 1734.65 455.95 1730.3 456.25 1728.95 455.95 1729.05 457.2 1728.95 459.15 1728.75 461.65 1728.75 462.35 1728.65 466.35 1730.6 468.35 1731.45 469.25 1733.05 470.15
L 1745.35 477.5
Q 1748.95 479.6 1750.95 480.05 1754.05 480.75 1758.3 479.6 1763.85 478.1 1772.2 473.25 1777.85 470.05 1780.85 467.5 1782.45 466.2 1785.05 463.55 1787.9 460.7 1789.2 459.55 1792 457 1798.1 452.8 1801.1 450.7 1801.95 449 1802.75 447.35 1802.6 444.4 1802.4 440.5 1802.55 439.55
M 1884.7 441.9
L 1878.1 441.8
Q 1876.1 444.7 1873 447.8 1871 449.75 1867.1 453.1
L 1834.6 481.35
Q 1833.5 479.5 1832.95 477.25 1832.65 474.5 1832.25 473.2 1831.75 471.55 1829.85 468.65
L 1826.65 463.9
Q 1825.25 461.75 1824.05 461.2 1823.1 460.75 1821 460.75
L 1815.95 460.7
Q 1814.35 460.7 1813.75 461.25 1813.1 461.85 1813 463.5 1812.65 468.7 1812.8 471.5 1813 475.95 1814.25 479.25 1815.6 482.7 1819.15 486.9 1822.4 490.65 1825.1 491.65 1826.85 492.3 1830.2 492.4 1834.55 492.5 1836.7 491.65 1838.15 491.1 1839.7 489.95 1840.65 489.25 1842.4 487.7
L 1857.6 474.05
Q 1865.2 467.2 1870.9 462.35 1879.15 455.3 1879.35 455.1 1882.4 452.35 1883.55 450.45 1885.95 446.35 1884.7 441.9
M 1888.95 269.05
Q 1888.75 269.25 1888.75 269.7 1888.65 273.55 1888.85 275.5 1889.05 277.2 1889.45 279.05
L 1890.55 279.5
Q 1890.4 280.2 1891.1 280.55 1891.6 280.8 1892.35 280.8
L 1906.7 280.95
Q 1906.95 276.75 1906.7 272.55 1905.8 272.2 1903.8 271.05 1901.95 270 1900.85 269.6 1898.85 268.9 1894.5 268.9
L 1889.55 268.9
Q 1889.1 268.9 1888.95 269.05
M 1921 207.35
Q 1924.55 206.1 1926.65 206 1928.1 205.9 1928.55 205.4 1928.85 205 1928.85 204
L 1928.8 198.9
Q 1922.4 197.9 1912.95 200.95 1908.15 202.6 1900.8 205.6 1890.4 209.8 1885.3 212.1 1876.8 215.9 1870.4 219.75 1862.55 224.4 1858.8 229.05 1857.3 230.8 1856.85 232.5 1856.5 233.65 1856.6 235.6 1856.65 238.15 1856.6 238.8 1857.55 238.55 1860.05 238.85 1862.2 239.15 1863.3 238.6 1864.05 238.2 1865.2 236.6 1869.6 230.8 1878.5 225.65 1882.95 223.05 1888.85 220.4 1892 218.95 1899.5 215.8 1914.15 209.7 1921 207.35
M 1778 227.35
L 1778 234.1
Q 1778.65 234.1 1778.95 234.9 1779.15 235.3 1779.45 236.15
L 1780 236.85
Q 1780.15 237.05 1781.1 238.8 1781.8 240.2 1783.75 242.8
L 1787.1 247.2
Q 1789.6 250.4 1790.1 252.4 1790.35 253.3 1790.45 253.5 1790.45 253.55 1790.5 253.6 1789.65 254.95 1789.25 256.65 1788.75 258.7 1788.75 261.45 1788.75 261.95 1788.95 266.3 1789.05 268.25 1789.1 272.15 1789.25 275.55 1789.7 277.9 1790.95 284.6 1795.15 287.9 1797.85 290 1802.05 290.65 1804.8 291.1 1809.75 291.05
L 1815.2 291
Q 1819.1 291 1821.35 290.85 1824.75 290.65 1827.4 290.05 1829.95 289.45 1832.9 288.25
L 1832.9 288.85
Q 1832.9 290 1833.15 290.5 1833.4 291.1 1834.1 291.6 1834.55 291.9 1835.35 292.5 1836.1 293.1 1836.95 294.4 1837.95 295.95 1838.35 296.4 1839.2 297.25 1839.4 297.6 1839.5 297.8 1839.65 298.25 1839.85 298.6 1840.05 298.8
L 1840.65 299.25 1841.05 299.75
Q 1841.4 300.05 1842.4 300.15 1842.5 300.75 1843.25 301.05 1843.3 301.05 1843.35 301.1 1843.35 301.25 1843.4 301.45 1826.2 302.3 1798.75 304 1795.95 304.15 1794.3 304.65 1791.95 305.3 1790.8 306.9 1789.55 308.6 1789.45 312.45 1788.8 332.3 1790.8 348.8 1793.1 368 1799.15 384 1801.35 389.8 1803.4 393.3 1806.05 397.9 1809.95 401.85 1809.1 401.65 1808.3 401.5 1802.9 400.35 1768.65 395.1 1744.5 391.4 1729.75 386 1726.45 384.8 1724.5 383.55 1721.8 381.75 1720.8 379.4 1720.6 378.95 1720.45 378.35 1732.5 377.7 1744.5 379.3 1748.95 379.95 1757.85 381.35 1765.55 382.3 1771.2 381.6
L 1771.2 375.05
Q 1766.65 374.95 1759.95 373.9 1752.45 372.65 1748.65 372.15 1741.75 371.25 1733.05 371.05 1728.2 370.95 1718.85 371.1 1718.75 370.85 1718.65 370.65 1718.15 369.7 1717.4 368.95 1717.1 366.35 1715.4 363.8 1714 361.65 1712.3 361.1 1711.4 360.75 1709.55 360.75
L 1705.55 360.65
Q 1702.55 360.65 1701.25 361.25 1698.8 362.35 1697.9 365.55 1697.4 367.25 1697.4 371.2
L 1697.55 382.4
Q 1697.55 383.95 1698.15 384.5 1698.65 384.9 1699.7 385 1700 385.05 1700.35 385.1 1700.65 387.35 1701.55 388.5 1702.95 390.3 1706.1 390.45 1709.9 390.25 1711.65 390.2 1714.7 390.1 1718.5 391.15 1720.05 391.6 1725.2 393.4 1739.5 398.4 1762.7 402.05 1795.6 407.2 1800.85 408.3 1812.95 410.85 1830.85 416.35 1858.6 424.85 1860.6 425.4 1876.4 429.9 1888.2 431.65 1903.35 433.9 1916.2 432.45
L 1916.2 426.2
Q 1902 426.35 1883.45 422.4 1893.35 421.1 1899.5 416.05 1903.2 413 1906.95 407.15 1915.9 393.15 1918.9 376.45 1920 370.3 1920.35 362.7 1920.6 357.35 1920.55 348.85 1920.5 340.45 1920.15 334
L 1928.75 334.1
Q 1930.55 334.1 1931.35 333.8 1931.9 333.55 1932.85 332.95 1933.6 332.6 1933.95 332.35 1935.7 331.2 1935.5 328.05 1935.35 326.45 1935.3 325.65 1935.2 324.2 1935.4 323.25
L 1928.55 323.1
Q 1928.45 324.45 1927.25 325.25
L 1926.2 325.75 1925.05 326.55
Q 1924.1 327.2 1922.2 327.15 1920.45 327.1 1919.65 327.2 1918.7 318.05 1916.85 310.45 1916 307.15 1915 305.2 1913.65 302.5 1911.5 301.2 1909.1 299.75 1903.6 299.75 1880.25 299.75 1851.4 301.05
L 1851.4 297.5
Q 1851.4 296 1850.9 295.45
L 1850.9 295.2
Q 1850.9 294.75 1850.8 294.55 1850.65 294.3 1849.9 294 1849.25 293.8 1849.25 293.3 1847.6 293.25 1846.7 291.5 1846.15 290.45 1846.05 290.3 1845.3 289.65 1844.95 289.3 1844.8 289.15 1844 287.8 1843.35 286.55 1842.1 285.55 1840.6 284.45 1840.45 284.3 1841.35 283.7 1842 283.2 1843.7 281.7 1846 278.4
L 1848.45 274.85
Q 1849.7 273.15 1850.1 272.1 1850.8 270.35 1850.7 266.9
L 1850.6 257.7
Q 1842.35 255.85 1833.1 255.05 1830.3 254.85 1828.95 254.55 1825.85 253.5 1824.3 253.05 1821.95 252.3 1817.8 251.85 1809.05 250.85 1801.65 250.8
L 1801.65 249.7
Q 1801.05 249.75 1798.45 249.6 1798.25 249.6 1798.1 249.6
L 1798.1 249.4
Q 1798.1 248.2 1797.9 247.6 1797.8 247.35 1797.05 245.95 1796.5 244.4 1796.15 243.65 1795.65 242.45 1794.25 240.7
L 1790.6 235.9
Q 1788.45 233.2 1787.65 231.45 1787.25 230.45 1786.95 230.1 1786.55 229.65 1786.4 229.45 1786.35 229.35 1786 228.45 1785.8 227.8 1785.45 227.6 1785.35 227.55 1784.55 227.4
L 1778 227.35
M 1834.9 319.75
Q 1833.1 317.15 1832.75 315.8 1832.4 314.35 1832.65 311.65 1832.75 310.3 1832.8 309.35 1843.65 308.7 1851.05 308.35 1876.3 307.1 1896.55 306.7 1899.05 306.65 1900.4 306.8 1902.5 307.05 1904 307.8 1906.7 309.15 1908.35 312.55 1909.55 315 1910.4 319.1 1910.95 321.8 1911.45 324.5 1909.55 324.55 1908.1 325.1 1907.05 325.5 1904.15 327.3 1898.2 330.85 1889.6 331.9 1884.1 332.6 1873.95 332.4
L 1862.55 332.25
Q 1855.35 332.15 1851.45 331.45 1845.35 330.35 1841.45 327.3 1839.7 325.95 1837.9 323.8 1836.85 322.5 1834.9 319.75
M 1816.4 356
Q 1818.35 355.55 1821.4 357.7 1826 361 1834.25 368.7 1842.5 376.4 1847.05 379.65 1852.45 383.55 1862.3 388.45 1868 391.2 1872 392.7 1877.35 394.75 1882.1 395.6 1887.55 396.6 1892.65 396.05 1898.2 395.45 1902.65 393.05 1904 392.3 1904.95 391.8 1902.65 396.55 1899.75 400.85 1893.9 409.5 1887.4 412.7 1882.2 415.3 1874.95 415.35 1870.15 415.35 1861.9 414.05 1856.9 413.25 1852.65 412.4 1852.15 412.05 1851.3 411.65 1848.75 410.45 1846.1 408.2 1842.8 405.55 1839.1 401.65 1837.05 399.45 1832.7 394.45 1828.4 389.45 1826.6 386.8 1824.15 383.25 1820.7 376.3 1818.05 370.95 1816.95 368.15 1815.2 363.5 1814.85 359.55
L 1813.3 359.55 1813.3 359.5
Q 1813.6 358.25 1814.4 357.3 1815.25 356.3 1816.4 356 Z" stroke="none" fill="#000000"></path>

<path d="M 1821.4 357.7
Q 1818.35 355.55 1816.4 356 1815.25 356.3 1814.4 357.3 1813.6 358.25 1813.3 359.5
L 1813.3 359.55 1814.85 359.55
Q 1815.2 363.5 1816.95 368.15 1818.05 370.95 1820.7 376.3 1824.15 383.25 1826.6 386.8 1828.4 389.45 1832.7 394.45 1837.05 399.45 1839.1 401.65 1842.8 405.55 1846.1 408.2 1848.75 410.45 1851.3 411.65 1852.15 412.05 1852.65 412.4 1856.9 413.25 1861.9 414.05 1870.15 415.35 1874.95 415.35 1882.2 415.3 1887.4 412.7 1893.9 409.5 1899.75 400.85 1902.65 396.55 1904.95 391.8 1904 392.3 1902.65 393.05 1898.2 395.45 1892.65 396.05 1887.55 396.6 1882.1 395.6 1877.35 394.75 1872 392.7 1868 391.2 1862.3 388.45 1852.45 383.55 1847.05 379.65 1842.5 376.4 1834.25 368.7 1826 361 1821.4 357.7
M 1832.75 315.8
Q 1833.1 317.15 1834.9 319.75 1836.85 322.5 1837.9 323.8 1839.7 325.95 1841.45 327.3 1845.35 330.35 1851.45 331.45 1855.35 332.15 1862.55 332.25
L 1873.95 332.4
Q 1884.1 332.6 1889.6 331.9 1898.2 330.85 1904.15 327.3 1907.05 325.5 1908.1 325.1 1909.55 324.55 1911.45 324.5 1910.95 321.8 1910.4 319.1 1909.55 315 1908.35 312.55 1906.7 309.15 1904 307.8 1902.5 307.05 1900.4 306.8 1899.05 306.65 1896.55 306.7 1876.3 307.1 1851.05 308.35 1843.65 308.7 1832.8 309.35 1832.75 310.3 1832.65 311.65 1832.4 314.35 1832.75 315.8 Z" stroke="none" fill="#FFFFFF"></path>
</g>
</g>
</g>
</g>
</g>
</svg>
