
<svg viewBox="0 0 112 184" height="184px" width="112px" y="0px" x="0px" preserveAspectRatio="none" xmlns:xlink="http://www.w3.org/1999/xlink" version="1.1" xmlns="http://www.w3.org/2000/svg">
<defs></defs>

<g id="fun_scrollers">
<g transform="matrix( 0.3621063232421875, 0, 0, 0.3621063232421875, -594.2,0.1)" id="svg"></g>

<g transform="matrix( 0.3621063232421875, 0, 0, 0.3621063232421875, -594.2,0.1)" id="Layer_2"></g>

<g transform="matrix( 0.3621063232421875, 0, 0, 0.3621063232421875, -594.2,0.1)" id="Layer_3"></g>

<g transform="matrix( 0.3621063232421875, 0, 0, 0.3621063232421875, -594.2,0.1)" id="Layer_2"></g>

<g transform="matrix( 0.3621063232421875, 0, 0, 0.3621063232421875, -594.2,0.1)" id="Layer_3"></g>

<g transform="matrix( 0.3621063232421875, 0, 0, 0.3621063232421875, -594.2,0.1)" id="MergedLayer_3"></g>

<g transform="matrix( 0.3621063232421875, 0, 0, 0.3621063232421875, -594.2,0.1)" id="Layer_4"></g>

<g transform="matrix( 0.3621063232421875, 0, 0, 0.3621063232421875, -594.2,0.1)" id="Layer_1">
<g>
<g>
<g>
<path d="M 1930.45 456.3
L 1936.95 456.25 1936.95 386.95
Q 1930.2048828125 421.2103515625 1930.45 456.3
M 1936.95 317.2
Q 1936.7263671875 317.98359375 1936.5 318.75 1925.05 357.7 1920.85 373.95 1912.9 405 1909.7 430
L 1917.1 430.25
Q 1924.8 405.75 1929.15 393.5 1932.9861328125 382.7107421875 1936.95 373.3
L 1936.95 350.3
Q 1936.0404296875 352.6076171875 1935.1 354.9 1935.9412109375 350.952734375 1936.95 346.95
L 1936.95 317.2
M 1936.95 71.3
L 1936.95 55.05
Q 1932.0814453125 57.0275390625 1927.35 59.6 1923.35 61.75 1921.95 63.8 1920.9 65.3 1920.75 67.05 1920.65 68.95 1921.65 70.3 1928.2744140625 70.1693359375 1936.95 71.3 Z" stroke="none" fill="#000000"></path>
</g>
</g>
</g>
</g>

<g transform="matrix( 0.3621063232421875, 0, 0, 0.3621063232421875, -594.2,0.1)" id="Layer_5"></g>

<g transform="matrix( 0.3621063232421875, 0, 0, 0.3621063232421875, -594.2,0.1)" id="Layer_6"></g>

<g transform="matrix( 0.3621063232421875, 0, 0, 0.3621063232421875, -594.2,0.1)" id="MergedLayer_1">
<g>
<g>
<g>
<path d="M 1630.85 386.35
Q 1630.522265625 386.342578125 1630.2 386.35
L 1630.2 407.75
Q 1634.0453125 407.99765625 1643.6 408.15
L 1651.45 408.4
Q 1661.7 408.9 1672 409.2 1683.75 409.45 1693.2 409.9 1714.25 410.7 1724.9 411
L 1728.35 411.1
Q 1733.15 411.35 1739.25 411.3
L 1740.25 410.4
Q 1741.4 405.85 1741.65 402.75 1741.95 398.75 1741.05 395 1737.85 393.3 1736.1 393.05 1734.35 392.85 1727.15 392.75
L 1711.1 392.35
Q 1701.55 392.15 1686.8 390.7 1678.8 390.05 1670.95 389.5 1664.4 389.1 1657.65 388.5 1648.7 387.65 1644.15 387.35
L 1639.15 387.05
Q 1632.7 386.35 1630.85 386.35
M 1745.05 243.95
Q 1744.6 237.35 1742.7 233.25
L 1740.55 232.65 1731.45 232.3
Q 1722.3 231.95 1715.4 232.1 1703.9 232.4 1688.1 231.55
L 1679.55 231.15
Q 1678.2 231.05 1656.15 229.65 1639 228.5 1638.75 228.9 1635.9 240.3 1638.9 248.05 1642.6 250.35 1644.5 250.75 1646.45 251.1 1654.6 251.1 1656.45 251 1660.3 251.1 1668.65 251.4 1675.25 251.4 1680.4 251.4 1690.8 251.7 1705.4 252.1 1708.4 252.1
L 1716.35 252.2
Q 1720.35 252.25 1724.35 252.45
L 1725.2 254.45
Q 1736.2 256.55 1744.45 255.45
L 1745.85 253.15
Q 1745.9 250.9 1745.9 250.1 1745.85 249.35 1745.6 247
L 1745.05 243.95 Z" stroke="none" fill="#9DAEEA"></path>

<path d="M 1700.7 106.45
Q 1691.6 105.8 1682.45 105.25 1672.55 104.65 1667.6 104.3
L 1657.4 103.5
Q 1653.9 103.7 1650.25 104.7 1650.0041015625 104.7546875 1649.75 104.8 1637.8916015625 109.9056640625 1634.4 112.3 1632.8380859375 113.4091796875 1630.2 115.9
L 1630.2 386.35
Q 1630.522265625 386.342578125 1630.85 386.35 1632.7 386.35 1639.15 387.05
L 1644.15 387.35
Q 1648.7 387.65 1657.65 388.5 1664.4 389.1 1670.95 389.5 1678.8 390.05 1686.8 390.7 1701.55 392.15 1711.1 392.35
L 1727.15 392.75
Q 1734.35 392.85 1736.1 393.05 1737.85 393.3 1741.05 395 1741.95 398.75 1741.65 402.75 1741.4 405.85 1740.25 410.4
L 1739.25 411.3
Q 1733.15 411.35 1728.35 411.1
L 1724.9 411
Q 1714.25 410.7 1693.2 409.9 1683.75 409.45 1672 409.2 1661.7 408.9 1651.45 408.4
L 1643.6 408.15
Q 1634.0453125 407.99765625 1630.2 407.75
L 1630.2 437.55
Q 1631.405859375 437.6703125 1632.65 437.75 1639.85 438.25 1654.15 438.75
L 1719.6 442.15
Q 1728.01796875 442.3775390625 1732.85 441.95 1733.4564453125 441.740625 1734 441.5
L 1735.9 438.1 1741 433.55
Q 1744.15 430.6 1745.05 429.45 1745.9 428.35 1747.85 424.6 1748.5 420.4 1748.95 411.85
L 1750.65 382.1
Q 1752.55 347.8 1754.15 325.05 1756.45 293.9 1759.2 268
L 1762.3 240.05
Q 1762.75 237.2 1763.4 234.3 1764.15 230.5 1764.6 225.95
L 1767.7 196.05
Q 1769.95 174.25 1770.65 161.95
L 1770.75 159.4
Q 1771.2 149.5 1769.6 141.45 1767.75 132.45 1763.1 124.75 1758.35 117.7 1749.95 112.25
L 1747.4 110.65
Q 1746.76484375 110.311328125 1746.1 110
L 1745.6 110
Q 1744.9 109.65 1744.35 109.4 1741.9 108.95 1741.05 108.85 1740.2 108.75 1737.6 108.65
L 1700.7 106.45
M 1641.35 123.05
Q 1642.15 123 1643.05 122.9 1643.2 122.9 1643.35 122.95 1643.55 122.95 1643.8 122.95 1644.1 122.95 1644.45 123 1644.75 123 1645.15 123 1645.65 123.05 1646.1 123.05 1646.65 123.1 1647.15 123.15 1647.8 123.15 1648.4 123.2 1649.1 123.25 1649.8 123.25
L 1739.6 128.75
Q 1740.65 128.85 1741.75 128.95 1742.75 129.05 1743.75 129.2 1744.75 129.35 1745.75 129.55 1746.6 129.65 1747.45 129.8 1748.35 130 1749.25 130.25 1750.05 130.45 1750.9 130.7 1751.7 130.9 1752.45 131.2 1753.15 131.45 1753.75 131.9 1754.75 132.75 1755.65 133.8
L 1754.3 159.7 1754.5 159.7 1754 165.5 1752.1 165.4 1751.85 170.2
Q 1750.1 170.45 1749.45 170.5 1748.75 170.55 1746.35 170.4 1737.9 170.3 1728.25 171.9
L 1714.45 174.25
Q 1695.85 177.4 1691.4 177.25 1686.9 177.25 1678.45 173.7 1670.35 170.45 1662.85 169.6 1657.65 168.95 1651.85 166.55 1648 165 1641.5 161.55
L 1636.65 160 1633 158.2
Q 1632.55 155.95 1632.6 155.25 1632.65 154.5 1633.3 152.45 1637.3 151.9 1641.6 152.25
L 1688.9 155
Q 1702.7 155.7 1716.4 156.55
L 1719.15 156.75
Q 1725.9 157.15 1733.5 158.05
L 1742.15 159.1
Q 1744.25 159.35 1745 159.4 1745.7755859375 159.4484375 1748.35 159.4 1748.4666015625 159.4 1748.55 159.4
L 1748.75 155.65
Q 1748.3 155.55 1747.8 155.55 1746.7 155.4 1745.65 155.3 1744.5 155.25 1743.35 155.2 1742.1 155.15 1740.9 155.15 1739.6 155.05 1738.35 155.05 1733 154.9 1727.65 154.85 1726.85 154.85 1726.05 154.9 1725.05 154.85 1724.1 154.85 1723.05 154.85 1722 154.85 1720.85 154.8 1719.7 154.75 1718.45 154.7 1717.2 154.7 1715.8 154.6 1714.45 154.6 1713 154.6 1711.55 154.55 1710 154.45 1708.4 154.4 1707.3 154.35 1706.2 154.3 1705.5 154.3 1704.9 154.25 1704.15 154.15 1703.4 154.15 1701.75 154 1700.05 153.9 1697.05 153.45 1694.25 153.3 1691.65 153.15 1689.05 153 1686.4 152.8 1683.75 152.7 1678.35 152.5 1672.95 152.4
L 1638.25 150.6
Q 1637.45 150.3 1636.8 149.85 1636.45 149.8 1636.2 149.7 1635.95 149.5 1635.7 149.35 1635.6 149.25 1635.45 149.15 1635.3 149.05 1635.25 148.95 1635.2 148.85 1635.15 148.8 1635.05 148.6 1634.95 148.45 1634.8 148.15 1634.75 147.9 1634.6 147.5 1634.5 147.1 1634.3 145.65 1634.2 144.2 1634.1 142.7 1634.05 141.25 1634.05 139.85 1634.1 138.45 1634.15 137 1634.3 135.55 1634.45 134.15 1634.7 132.8 1635.25 130.1 1635.9 127.4 1636.22265625 126.1091796875 1636.6 124.9
L 1636.65 124.65 1637.65 123.75 1638.65 123.8
Q 1639.1521484375 123.616015625 1639.65 123.45 1640.55 123.25 1641.35 123.05
M 1707.7 181.05
Q 1712.35 177.25 1718.1 176.15 1721.9 175.45 1729.65 175.65
L 1732.95 175.75
Q 1738.15 176 1741.8 177.35 1743.85 179.2 1745.15 181.4 1746.25 183.3 1747.1 186.25 1747.6 190.9 1747.1 197.2
L 1746.95 200
Q 1746.65 204.1 1746.05 205.95 1745.25 208.25 1742.9 211.1
L 1741.75 214.9
Q 1737.1 216.8 1730.3 217.2 1727.15 217.35 1718.6 217.05
L 1715.9 217
Q 1712.5 216.85 1710.6 216.25 1708.2 215.55 1705.75 213.75 1702.85 210.3 1702.25 209.4 1701.65 208.4 1700.8 206 1700.6 203 1700.6 201.95 1700.6 200.85 1700.8 197.4
L 1701 192.85
Q 1701.5 189.6 1702.5 187.6 1703.5 185.75 1705.85 183.15
L 1707.7 181.05
M 1742.7 233.25
Q 1744.6 237.35 1745.05 243.95
L 1745.6 247
Q 1745.85 249.35 1745.9 250.1 1745.9 250.9 1745.85 253.15
L 1744.45 255.45
Q 1736.2 256.55 1725.2 254.45
L 1724.35 252.45
Q 1720.35 252.25 1716.35 252.2
L 1708.4 252.1
Q 1705.4 252.1 1690.8 251.7 1680.4 251.4 1675.25 251.4 1668.65 251.4 1660.3 251.1 1656.45 251 1654.6 251.1 1646.45 251.1 1644.5 250.75 1642.6 250.35 1638.9 248.05 1635.9 240.3 1638.75 228.9 1639 228.5 1656.15 229.65 1678.2 231.05 1679.55 231.15
L 1688.1 231.55
Q 1703.9 232.4 1715.4 232.1 1722.3 231.95 1731.45 232.3
L 1740.55 232.65 1742.7 233.25 Z" stroke="none" fill="#F5F7F9"></path>

<path d="M 1718.1 176.15
Q 1712.35 177.25 1707.7 181.05
L 1705.85 183.15
Q 1703.5 185.75 1702.5 187.6 1701.5 189.6 1701 192.85
L 1700.8 197.4
Q 1700.6 200.85 1700.6 201.95 1700.6 203 1700.8 206 1701.65 208.4 1702.25 209.4 1702.85 210.3 1705.75 213.75 1708.2 215.55 1710.6 216.25 1712.5 216.85 1715.9 217
L 1718.6 217.05
Q 1727.15 217.35 1730.3 217.2 1737.1 216.8 1741.75 214.9
L 1742.9 211.1
Q 1745.25 208.25 1746.05 205.95 1746.65 204.1 1746.95 200
L 1747.1 197.2
Q 1747.6 190.9 1747.1 186.25 1746.25 183.3 1745.15 181.4 1743.85 179.2 1741.8 177.35 1738.15 176 1732.95 175.75
L 1729.65 175.65
Q 1721.9 175.45 1718.1 176.15
M 1715.2 185.15
Q 1717.9 183.4 1720.25 182.75 1722.55 182.1 1725.85 182.1
L 1729.7 182.35
Q 1733.2 182.5 1736.7 182.85 1737.65 183.9 1738 184.5 1738.45 185.15 1739.85 187.8 1741.55 191.25 1741.85 194.5 1742.15 197.05 1741.5 201.4
L 1740.5 202.3
Q 1739.3 204.8 1738.8 205.6 1738.25 206.45 1736.3 208.85 1731.2 211.1 1725.35 211.4 1720.3 211.65 1714.05 210.55 1710.95 209.3 1710.15 208.65 1709.3 208 1707.55 205.4 1705.9 200.8 1706.15 195.7 1708.65 191.05 1709.75 189.7 1710.95 188.45 1715.2 185.15 Z" stroke="none" fill="#5D5A76"></path>

<path d="M 1720.25 182.75
Q 1717.9 183.4 1715.2 185.15 1710.95 188.45 1709.75 189.7 1708.65 191.05 1706.15 195.7 1705.9 200.8 1707.55 205.4 1709.3 208 1710.15 208.65 1710.95 209.3 1714.05 210.55 1720.3 211.65 1725.35 211.4 1731.2 211.1 1736.3 208.85 1738.25 206.45 1738.8 205.6 1739.3 204.8 1740.5 202.3
L 1741.5 201.4
Q 1742.15 197.05 1741.85 194.5 1741.55 191.25 1739.85 187.8 1738.45 185.15 1738 184.5 1737.65 183.9 1736.7 182.85 1733.2 182.5 1729.7 182.35
L 1725.85 182.1
Q 1722.55 182.1 1720.25 182.75 Z" stroke="none" fill="#F1F3F7"></path>

<path d="M 1641.5 161.55
Q 1648 165 1651.85 166.55 1657.65 168.95 1662.85 169.6 1670.35 170.45 1678.45 173.7 1686.9 177.25 1691.4 177.25 1695.85 177.4 1714.45 174.25
L 1728.25 171.9
Q 1737.9 170.3 1746.35 170.4 1748.75 170.55 1749.45 170.5 1750.1 170.45 1751.85 170.2
L 1752.1 165.4 1754 165.5 1754.5 159.7 1754.3 159.7 1748.55 159.4
Q 1748.4666015625 159.4 1748.35 159.4 1745.7755859375 159.4484375 1745 159.4 1744.25 159.35 1742.15 159.1
L 1733.5 158.05
Q 1725.9 157.15 1719.15 156.75
L 1716.4 156.55
Q 1702.7 155.7 1688.9 155
L 1641.6 152.25
Q 1637.3 151.9 1633.3 152.45 1632.65 154.5 1632.6 155.25 1632.55 155.95 1633 158.2
L 1636.65 160 1641.5 161.55 Z" stroke="none" fill="#992A3F"></path>

<path d="M 1643.05 122.9
Q 1642.15 123 1641.35 123.05 1640.55 123.25 1639.65 123.45 1639.1521484375 123.616015625 1638.65 123.8
L 1637.65 123.75 1636.65 124.65 1636.6 124.9
Q 1636.22265625 126.1091796875 1635.9 127.4 1635.25 130.1 1634.7 132.8 1634.45 134.15 1634.3 135.55 1634.15 137 1634.1 138.45 1634.05 139.85 1634.05 141.25 1634.1 142.7 1634.2 144.2 1634.3 145.65 1634.5 147.1 1634.6 147.5 1634.75 147.9 1634.8 148.15 1634.95 148.45 1635.05 148.6 1635.15 148.8 1635.2 148.85 1635.25 148.95 1635.3 149.05 1635.45 149.15 1635.6 149.25 1635.7 149.35 1635.95 149.5 1636.2 149.7 1636.45 149.8 1636.8 149.85 1637.45 150.3 1638.25 150.6
L 1672.95 152.4
Q 1678.35 152.5 1683.75 152.7 1686.4 152.8 1689.05 153 1691.65 153.15 1694.25 153.3 1697.05 153.45 1700.05 153.9 1701.75 154 1703.4 154.15 1704.15 154.15 1704.9 154.25 1705.5 154.3 1706.2 154.3 1707.3 154.35 1708.4 154.4 1710 154.45 1711.55 154.55 1713 154.6 1714.45 154.6 1715.8 154.6 1717.2 154.7 1718.45 154.7 1719.7 154.75 1720.85 154.8 1722 154.85 1723.05 154.85 1724.1 154.85 1725.05 154.85 1726.05 154.9 1726.85 154.85 1727.65 154.85 1733 154.9 1738.35 155.05 1739.6 155.05 1740.9 155.15 1742.1 155.15 1743.35 155.2 1744.5 155.25 1745.65 155.3 1746.7 155.4 1747.8 155.55 1748.3 155.55 1748.75 155.65
L 1748.55 159.4 1754.3 159.7 1755.65 133.8
Q 1754.75 132.75 1753.75 131.9 1753.15 131.45 1752.45 131.2 1751.7 130.9 1750.9 130.7 1750.05 130.45 1749.25 130.25 1748.35 130 1747.45 129.8 1746.6 129.65 1745.75 129.55 1744.75 129.35 1743.75 129.2 1742.75 129.05 1741.75 128.95 1740.65 128.85 1739.6 128.75
L 1649.8 123.25
Q 1649.1 123.25 1648.4 123.2 1647.8 123.15 1647.15 123.15 1646.65 123.1 1646.1 123.05 1645.65 123.05 1645.15 123 1644.75 123 1644.45 123 1644.1 122.95 1643.8 122.95 1643.55 122.95 1643.35 122.95 1643.2 122.9 1643.05 122.9 Z" stroke="none" fill="#110F1A"></path>

<path d="M 1650.85 92.6
L 1650.25 92.55 1649.9 92.55 1649.6 97.35 1647.65 97.25
Q 1638.35 100.9 1632.9 103.8 1631.506640625 104.5455078125 1630.2 105.3
L 1630.2 115.9
Q 1632.8380859375 113.4091796875 1634.4 112.3 1637.8916015625 109.9056640625 1649.75 104.8
L 1653.15 103.35
Q 1651.95 102.95 1650.35 102.2
L 1650.15 100.05
Q 1650.15 99.95 1650.85 92.6
M 1750.55 93.95
L 1749.95 93.95
Q 1750.45 98.6 1750.4 100.75 1750.35 104.3 1749.25 107.4 1744.8 108.35 1742.85 108.45
L 1742.8 108.95
Q 1744.4865234375 109.3087890625 1746.1 110 1746.76484375 110.311328125 1747.4 110.65
L 1749.95 112.25
Q 1758.35 117.7 1763.1 124.75 1767.75 132.45 1769.6 141.45 1771.2 149.5 1770.75 159.4
L 1770.65 161.95
Q 1769.95 174.25 1767.7 196.05
L 1764.6 225.95
Q 1764.15 230.5 1763.4 234.3 1762.75 237.2 1762.3 240.05
L 1759.2 268
Q 1756.45 293.9 1754.15 325.05 1752.55 347.8 1750.65 382.1
L 1748.95 411.85
Q 1748.5 420.4 1747.85 424.6 1745.9 428.35 1745.05 429.45 1744.15 430.6 1741 433.55
L 1735.9 438.1 1734 441.5 1733.8 441.85
Q 1733.3546875 441.8994140625 1732.85 441.95 1728.01796875 442.3775390625 1719.6 442.15
L 1654.15 438.75
Q 1639.85 438.25 1632.65 437.75 1631.405859375 437.6703125 1630.2 437.55
L 1630.2 443.75 1683.85 447.65
Q 1700.55 448.9 1707.15 449.15 1720.3 449.55 1730.55 448.4 1736.85 447.1 1741.45 444.2 1745.45 441.7 1750.25 436.55 1754.55 430.1 1755.4 425.1 1756.3 419.95 1757.35 395.9
L 1758.2 377.2
Q 1759.8 342.6 1761.6 318.05 1763.9 286.1 1767.2 259.15 1769.7 238.9 1772.5 211.45
L 1775.25 186.2
Q 1777.4 166.4 1777.3 156.25 1777.1 139.75 1772.3 126.9 1769.45 120.45 1766.65 116.5 1762.95 111.3 1758.15 108.4 1753.7 105.85 1751.35 103.6 1751.2142578125 103.1310546875 1751.1 102.75 1750.775390625 101.551953125 1750.7 101.1 1750.6 100.45 1750.55 98.45
L 1750.7 96.1 1750.9 94 1750.55 93.95 Z" stroke="none" fill="#706C84"></path>

<path d="M 1750.7 96.1
L 1750.55 98.45
Q 1750.6 100.45 1750.7 101.1 1750.775390625 101.551953125 1751.1 102.75
L 1750.9 100.45
Q 1750.8787109375 98.234375 1750.7 96.1
M 1749.55 46.45
Q 1750.05 40.3 1749.2 36.1 1748.1 33.05 1746.4 30.7 1744.8 28.6 1742.05 26.35
L 1739 24.25
Q 1732.6 19.75 1726.1 17.4 1719.75 15.1 1711.85 14.45
L 1708.1 14.25
Q 1683 12.4 1660.1 13.45
L 1656.7 13.65
Q 1649.05 14.05 1644.55 14.6 1637.85 15.35 1632.6 16.85 1631.7 18.5 1631.5 19.55 1631.3 20.65 1631.05 25.6
L 1630.9 28.3
Q 1630.75 30.25 1630.5 34.2 1630.4 37.65 1631.4 39.9 1634.2 41.5 1635.05 41.85 1635.85 42.15 1637.95 42.55
L 1661.05 44.35
Q 1659.65 47.8 1658.85 51.8 1658.2 54.75 1657.7 59.45 1656.7 67.85 1656.25 70.85 1655.1 77.1 1653.25 81.85 1651.110546875 86.85703125 1650.25 92.55
L 1650.85 92.6
Q 1650.15 99.95 1650.15 100.05
L 1650.35 102.2
Q 1651.95 102.95 1653.15 103.35
L 1649.75 104.8
Q 1650.0041015625 104.7546875 1650.25 104.7 1653.9 103.7 1657.4 103.5
L 1667.6 104.3
Q 1672.55 104.65 1682.45 105.25 1691.6 105.8 1700.7 106.45
L 1737.6 108.65
Q 1740.2 108.75 1741.05 108.85 1741.9 108.95 1744.35 109.4 1744.9 109.65 1745.6 110
L 1746.1 110
Q 1744.4865234375 109.3087890625 1742.8 108.95
L 1742.85 108.45
Q 1744.8 108.35 1749.25 107.4 1750.35 104.3 1750.4 100.75 1750.45 98.6 1749.95 93.95
L 1750.55 93.95
Q 1750.3654296875 92.2779296875 1750.1 90.65 1747.65 75.25 1748.9 55.1
L 1749.55 46.45
M 1741.85 42.2
Q 1741.9 43 1742 43.8
L 1670.85 41.1 1670.05 38.15 1637.45 35.5
Q 1635.05 29.25 1637.15 22.95 1683.25 11.7 1728.5 25.75 1728.5 26.1 1734.8 31.2 1741.2 37.25 1741.85 42.2
M 1741.65 51.45
Q 1742.35 53.15 1742.5 54.75 1742.55 55.65 1742.45 58.25
L 1742.3 64.45
Q 1742 78.65 1743.75 92.15 1744.35 97.8 1743.85 101.65
L 1741.85 103.5
Q 1738.5 103.55 1733.75 103.35
L 1656.35 99.05
Q 1657.4 92.1 1657.8 90.45 1658.2 88.7 1659.4 85.4 1661.55 79.2 1662.8 68.95 1664.3 56.2 1666.65 48.5
L 1669.7 45.8
Q 1671.8 45.65 1672.65 45.65 1673.45 45.65 1676.1 45.8
L 1733.85 48.9
Q 1738.15 49.45 1741.65 51.45 Z" stroke="none" fill="#7E1A34"></path>

<path d="M 1742.5 54.75
Q 1742.35 53.15 1741.65 51.45 1738.15 49.45 1733.85 48.9
L 1676.1 45.8
Q 1673.45 45.65 1672.65 45.65 1671.8 45.65 1669.7 45.8
L 1666.65 48.5
Q 1664.3 56.2 1662.8 68.95 1661.55 79.2 1659.4 85.4 1658.2 88.7 1657.8 90.45 1657.4 92.1 1656.35 99.05
L 1733.75 103.35
Q 1738.5 103.55 1741.85 103.5
L 1743.85 101.65
Q 1744.35 97.8 1743.75 92.15 1742 78.65 1742.3 64.45
L 1742.45 58.25
Q 1742.55 55.65 1742.5 54.75 Z" stroke="none" fill="#E21F2D"></path>

<path d="M 1742 43.8
Q 1741.9 43 1741.85 42.2 1741.2 37.25 1734.8 31.2 1728.5 26.1 1728.5 25.75 1683.25 11.7 1637.15 22.95 1635.05 29.25 1637.45 35.5
L 1670.05 38.15 1670.85 41.1 1742 43.8 Z" stroke="none" fill="#DF202E"></path>
</g>
</g>
</g>
</g>

<g transform="matrix( 0.3621063232421875, 0, 0, 0.3621063232421875, -594.2,0.1)" id="Layer_2">
<g>
<g>
<g>
<path d="M 1630.2 367.9
L 1630.2 383.5
Q 1652.27578125 387.0345703125 1674.8 384.7 1682.6 383.85 1687.5 382.5 1689.05 382.05 1693.85 380.45 1697.85 379.15 1700.3 378.6 1702.35 378.1 1706.4 377.35 1710.3 376.45 1714.7 374.35 1723.4 370.35 1730.55 363.95 1737.65 357.55 1742.4 349.65 1744.7 345.8 1745.5 342.55 1746.25 339.75 1746.15 335.2 1745.95 328.6 1746 327.8 1741.65 326.7 1737.8 328.45 1736.5 329.05 1734.85 330.25 1732.2 332.1 1731.95 332.25 1729.75 333.7 1726.45 335.1 1722.6 336.65 1720.65 337.45 1716.45 339.25 1709.65 342.75 1701.65 347 1698.8 348.35 1689.7 352.6 1677.7 356.35 1670.15 358.65 1655.7 362.3 1641.45 365.95 1634.1 367.3 1632.1205078125 367.6435546875 1630.2 367.9
M 1654.15 379.05
Q 1654.3 378.9 1654.45 378.8 1655.95 377.8 1658.4 376.7
L 1663.1 374.35
Q 1665 373.35 1665.25 372.4 1665.35 372.1 1665.35 371.5
L 1665.35 367.85
Q 1678.15 364.5 1686.65 361.75 1698.2 358 1707.3 353.6 1717.2 348.5 1722.15 345.95 1731.05 341.5 1737.7 339.65 1731.8 351.25 1721.7 359.55 1711.05 368.4 1698.35 371.35 1694.5 372.15 1692.55 372.65 1690.95 373.05 1688.5 373.85 1685.8 374.8 1684.45 375.2 1670.05 379.65 1654.15 379.05
M 1652.45 267.85
Q 1653.7 266.4 1654.05 265.55 1654.6 264.3 1654.45 262.05 1654.25 259.3 1654.4 258.4
L 1647.35 258.25
Q 1647.1 259.1 1646.3 259.9 1645.8 260.4 1644.75 261.3 1643.75 262.3 1642.1 264.6 1640.95 265.95 1636.75 269.85 1633.3 273 1631.85 275.45 1631.4 276.15 1630.55 277.6 1630.4076171875 277.821484375 1630.2 278.1
L 1630.2 287.8 1633.7 287.9
Q 1634.9 287.9 1635.4 287.6 1635.7 287.35 1636.05 286.85 1636.45 286.15 1636.55 286
L 1637.6 284.8
Q 1637.7 284.7 1638.95 282.45 1639.95 280.7 1641.85 278.75 1644.2 276.55 1645.35 275.45 1647.6 273.35 1652.45 267.85
M 1717 439.3
L 1711.75 439.2
Q 1710.55 439.2 1710.05 439.45 1708.95 439.9 1708.45 441.85 1707.9 443.85 1707.8 446.5 1707.75 447.9 1707.85 451.25 1707.85 452.35 1708.2 452.85 1708.5 453.25 1709.3 453.65 1714 456.05 1720.5 456.6 1724.65 456.95 1732.35 456.6
L 1740.4 456.2
Q 1739.7 456.25 1739.7 457.5
L 1739.75 467.55
Q 1736.4 468.65 1733 468.5
L 1733 475.75
Q 1750.6 476.85 1768.75 476.4 1769.3 467.4 1766.75 459.05 1765.65 455.2 1763.9 453.3 1762.45 451.65 1759.9 450.55 1757.3 449.45 1753.85 449 1751.65 448.75 1747.55 448.65 1738.5 448.35 1733.6 449 1731.45 449.3 1730.4 449.45 1728.5 449.7 1727.2 449.7 1724.75 449.65 1721.8 448.8 1719.8 448.2 1716.6 446.9 1717.45 443.1 1717 439.3
M 1766.25 345.4
Q 1766.15 344.15 1765.6 343.8 1765.2 343.5 1764.4 343.5
L 1759.95 343.4
Q 1757.55 343.3 1756.2 343.75 1754.7 344.3 1753.65 345.55 1753.1 346.3 1752.4 348 1751.8 349.25 1751.55 350.3 1751.3 351.45 1751.3 353.85
L 1751.3 363.05
Q 1751.3 364.35 1751.8 364.85 1752.3 365.3 1753.45 365.3
L 1758.1 365.4
Q 1760.1 365.4 1760.8 365.2 1761.35 365.05 1762.95 364.3 1764.3 363.65 1765.15 363.6 1766.2 363.55 1767.8 364.1 1775.3 366.9 1780.15 373.2 1784.65 379.05 1784.65 385.3 1784.65 387.75 1783.4 392.95 1782.75 395.65 1782.1 397.1 1781.15 399.3 1779.7 400.55 1776.75 403.1 1771.65 402.35 1770 402.1 1767.55 401.4 1763.85 400.3 1763.45 400.2 1758.4 398.95 1753.55 399.45
L 1753.55 406.25
Q 1767.2 411.45 1781.65 409.25 1786.25 408.55 1787.95 406.4 1788.8 405.35 1789.5 402.65 1792 393.25 1792.4 387.15 1793 378.35 1790.15 371.65 1788.4 367.45 1785.4 364.15 1781.8 360.25 1776.8 358.1 1771.75 355.95 1766.45 356 1766.75 351 1766.25 345.4
M 1703.4 277.25
Q 1705.65 277.4 1706.8 276.95 1707.8 276.6 1709.6 274.8 1716.7 267.65 1724.2 261.45
L 1724.25 254.6 1716.15 254.45
Q 1714.65 256.9 1711.5 259.55 1709.75 261.1 1706.1 264 1704.1 265.8 1701.85 268.3 1700.55 269.7 1700.2 270.6 1699.7 271.75 1699.85 273.85 1700.05 276.35 1699.9 277.2 1700.9 277 1703.4 277.25 Z" stroke="none" fill="#000000"></path>

<path d="M 1654.45 378.8
Q 1654.3 378.9 1654.15 379.05 1670.05 379.65 1684.45 375.2 1685.8 374.8 1688.5 373.85 1690.95 373.05 1692.55 372.65 1694.5 372.15 1698.35 371.35 1711.05 368.4 1721.7 359.55 1731.8 351.25 1737.7 339.65 1731.05 341.5 1722.15 345.95 1717.2 348.5 1707.3 353.6 1698.2 358 1686.65 361.75 1678.15 364.5 1665.35 367.85
L 1665.35 371.5
Q 1665.35 372.1 1665.25 372.4 1665 373.35 1663.1 374.35
L 1658.4 376.7
Q 1655.95 377.8 1654.45 378.8 Z" stroke="none" fill="#FFFFFF"></path>
</g>
</g>
</g>
</g>
</g>
</svg>
