
<svg viewBox="0 0 80 70" height="70px" width="80px" y="0px" x="0px" preserveAspectRatio="none" xmlns:xlink="http://www.w3.org/1999/xlink" version="1.1" xmlns="http://www.w3.org/2000/svg">
<defs></defs>

<g id="Layer_2">
<g transform="matrix( 0.2443389892578125, 0, 0, 0.2443389892578125, -5.6,-13.9)" id="Layer_1">
<g>
<g>
<g>
<path d="M 253 341
Q 249.5 341 246 341 248.75 342.75 253.9 341.55 254 341.5 254 341 253.5 341 253 341 Z" stroke="none" fill="#37565E"></path>

<path d="M 176 315
Q 176 314.5 175.75 314.15 173.7 311.3 171 309 171.95 313.05 175.1 314.8 175.5 315 176 315 Z" stroke="none" fill="#254047"></path>

<path d="M 191.9 299.5
Q 192 299.5 192 299 191.5 299 191 298.95 187.05 298.55 185 300 185 300.5 185 301 188.25 300.25 191.9 299.5 Z" stroke="none" fill="#697064"></path>

<path d="M 242 332
Q 242 335 242.5 337.9 242.5 338 243 338 243 337.5 243 337 243 335 243 333 244.65 333.15 244.1 330.95 244 330.5 244 330
L 243.5 330
Q 243.65 332.15 242 332 Z" stroke="none" fill="#36535B"></path>

<path d="M 204 297
Q 203.5 297 203 297 198.5 297 194 297 194 297.5 194 298 194 298.5 194 299 199.95 299.45 203.8 297.6 204 297.5 204 297 Z" stroke="none" fill="#6C6F60"></path>

<path d="M 220 294
Q 220 294.5 220 295 228 294.5 235.95 293.5 236 293.5 236 293 235.5 293 235 292.95 226.4 292.4 220 294
M 273.85 279.95
Q 274 279.5 274 279 273.5 279 273 279 271.5 279 270 279 270 279.5 270 280 270 280.5 270 281 273.2 281.7 273.85 279.95 Z" stroke="none" fill="#6D6F5F"></path>

<path d="M 210 295
Q 210 295.5 210 296 210 296.5 210 297 214.8 297.3 217.8 295.6 218 295.5 218 295 217.5 295 217 295 213.5 295 210 295 Z" stroke="none" fill="#687066"></path>

<path d="M 288 255
Q 288 257 288 259 288 259.5 288 260 290.9 261.95 290.05 256 290 255.5 290 255 289.5 255 289 255 288.5 255 288 255 Z" stroke="none" fill="#677163"></path>

<path d="M 292.1 250
Q 292 249.5 292 249
L 291.5 249
Q 291.65 251.15 290 251 290 252.5 290 254 290 254.5 290 255 293.2 254.7 292.1 250 Z" stroke="none" fill="#6E6E5D"></path>

<path d="M 255 291
Q 254.5 291 254 291 253.5 291 253 291 245.8 291.3 240 293 243.65 304.35 248.8 314.1 249 314.5 249 315 248.05 323.55 244.6 329.8 244.5 330 244 330 244 330.5 244.1 330.95 244.65 333.15 243 333 243 335 243 337 243 337.5 243 338 244 339.5 245.8 340.4 246 340.5 246 341 249.5 341 253 341 253.5 341 254 341 263.6 331.1 264 312 264 311.5 264 311 259.3 301.7 255.2 291.9 255 291.5 255 291 Z" stroke="none" fill="#010C16"></path>

<path d="M 253.8 290.1
Q 254 290.5 254 291 254.5 291 255 291 258.3 290.3 259.8 287.85 260 287.5 260 287 259.5 287 259.1 287.2 256.45 288.45 253 289 253.5 289.5 253.8 290.1 Z" stroke="none" fill="#686D61"></path>

<path d="M 260 285
Q 260 285.5 260 286 260 286.5 260 287 264.2 287.7 265.75 285.8 266 285.5 266 285 265.5 285 265 285 262.5 285 260 285 Z" stroke="none" fill="#6C6F61"></path>

<path d="M 253 289
Q 252.5 289 252.05 288.85 244.35 285.85 240 291 240 291.5 240 292 240 292.5 240 293 245.8 291.3 253 291 253.5 291 254 291 254 290.5 253.8 290.1 253.5 289.5 253 289 Z" stroke="none" fill="#2E1002"></path>

<path d="M 293.1 241.2
Q 292.5 241.5 292 242 292 244 292 246 292 246.5 292 247 295.2 246.7 294.1 242 294 241.5 294 241 293.5 241 293.1 241.2 Z" stroke="none" fill="#6D6F5E"></path>

<path d="M 294 233
Q 294 232.5 294.05 232 294.9 225.6 292 223 291.25 232.25 293.45 238.85 293.5 239 294 239 294 238.5 294 238 294 235.5 294 233 Z" stroke="none" fill="#6D6655"></path>

<path d="M 89 299
Q 89.5 299 90 299 90 298.5 89.8 298.1 88.25 295.25 84 295 84.6 298.9 89 299 Z" stroke="none" fill="#697061"></path>

<path d="M 95 303
Q 95.5 303 96 303 96 302.5 95.75 302.2 93.85 299.65 90 299 90.6 302.9 95 303 Z" stroke="none" fill="#6B7060"></path>

<path d="M 104 307
Q 104.3 310.2 109 309.1 109.5 309 110 309 110 308.5 109.75 308.2 108.2 306.25 104 307 Z" stroke="none" fill="#6E6F5D"></path>

<path d="M 130.85 309.55
Q 131 309.5 131 309 130.5 309 130 309 122 309 114 309 121.25 313.15 130.85 309.55 Z" stroke="none" fill="#677165"></path>

<path d="M 161 320
L 161.5 320
Q 161.1 315.9 157 315 158 318 160.8 319.4 161 319.5 161 320 Z" stroke="none" fill="#34474C"></path>

<path d="M 146 307
Q 145.5 307 145 307 141.5 307 138 307 138 307.5 138 308 138 308.5 138 309 144.15 308.4 148.05 309.85 148.5 310 149 310 149 309.5 148.85 309.05 148.2 307.3 146 307 Z" stroke="none" fill="#5B645B"></path>

<path d="M 146 305
Q 146 305.5 146 306 146 306.5 146 307 148.2 307.3 148.85 309.05 149 309.5 149 310 153.45 311.5 156.3 314.75 156.5 315 157 315 161.1 315.9 161.5 320
L 161 320
Q 161 320.5 160.85 320.55 149.25 323.75 142 331 141.5 347.9 155.1 341.2 155.5 341 156 341 162.2 331.2 175.05 328.1 175.5 328 176 328 178.35 322 176.15 315.95 176 315.5 176 315 175.5 315 175.1 314.8 171.95 313.05 171 309 170.5 309 170.25 308.75 166.85 305.65 163 303 162.5 303 162 303 162 303.5 161.9 303.5 154.8 304.75 146 305 Z" stroke="none" fill="#020C14"></path>

<path d="M 161 302
Q 160.5 302 160.05 301.85 154.15 299.8 148 302 147.5 302 147 302 146.5 302 146 302 146 303 146 304 146 304.5 146 305 154.8 304.75 161.9 303.5 162 303.5 162 303 162 302.5 161.75 302.25 161.5 302 161 302 Z" stroke="none" fill="#200601"></path>

<path d="M 161 302
Q 161 301.5 160.8 301.4 154.5 298.65 148 301 148 301.5 148 302 154.15 299.8 160.05 301.85 160.5 302 161 302 Z" stroke="none" fill="#5A3805"></path>

<path d="M 72 279
Q 72 278.5 72.05 278 72.2 274.25 70 273 69.25 277.2 71.2 278.75 71.5 279 72 279 Z" stroke="none" fill="#696F64"></path>

<path d="M 68 271
Q 68 270.5 68.1 270 69.3 264.2 66 263 65.45 268.1 67.35 270.75 67.5 271 68 271 Z" stroke="none" fill="#697062"></path>

<path d="M 66 251
Q 66 250.5 66.1 250.05 66.9 246.6 64 247 63.3 250.2 65.05 250.85 65.5 251 66 251 Z" stroke="none" fill="#677065"></path>

<path d="M 63.2 238.75
Q 63.5 239 64 239 64 238.5 63.9 238 63.25 235.25 62 233 61.25 237.2 63.2 238.75 Z" stroke="none" fill="#766B56"></path>

<path d="M 62 231
Q 62 230.5 62.1 230 63.3 224.2 60 223 59.25 228.25 61.3 230.75 61.5 231 62 231 Z" stroke="none" fill="#697162"></path>

<path d="M 59.4 220.8
Q 59.5 221 60 221 60 220.5 60.05 220 60.7 213.3 58 210 57.35 216.65 59.4 220.8 Z" stroke="none" fill="#667063"></path>

<path d="M 51.35 166.8
Q 51.5 167 52 167 52 166.5 52.1 166 52.9 161.1 50 160 49.85 164.15 51.35 166.8 Z" stroke="none" fill="#686251"></path>

<path d="M 50 123
Q 49.5 123 49 123 48.5 123 48 123 48 124.5 48 126 48 126.5 48 127 50.9 127.45 50.1 123.95 50 123.5 50 123 Z" stroke="none" fill="#6A6350"></path>

<path d="M 129.75 77.65
Q 130 77.5 130 77 129.5 77 129 77 125.5 77 122 77 122 77.5 122 78 127.05 79.45 129.75 77.65 Z" stroke="none" fill="#6E654F"></path>

<path d="M 140 75
Q 139.5 75 139.05 75.1 135.75 75.85 130 76 130 76.5 130 77 135.95 77.4 139.8 75.6 140 75.5 140 75 Z" stroke="none" fill="#676354"></path>

<path d="M 154 73
Q 153.5 73 153 73 149.5 73 146 73 146 73.5 146 74 146 74.5 146 75 149.2 73.7 154 73.5
L 154 73
M 186 67
Q 186 67.5 186 68 190 69.75 193.8 67.6 194 67.5 194 67 193.5 67 193 67 189.5 67 186 67 Z" stroke="none" fill="#6A624C"></path>

<path d="M 113 79
Q 112.5 79 112 79 107.6 79.1 104 80 104 80.5 104 81 109.6 81.6 112.8 79.65 113 79.5 113 79 Z" stroke="none" fill="#69624E"></path>

<path d="M 100 81
Q 99.5 81 99 81 96.5 81 94 81 94 81.5 94 82 94 82.5 94 83 97.5 83 99.8 81.65 100 81.5 100 81 Z" stroke="none" fill="#6B6653"></path>

<path d="M 286 183
Q 286 182.5 286.1 182 287.2 177.3 284 177 283.25 181.2 285.2 182.75 285.5 183 286 183 Z" stroke="none" fill="#696658"></path>

<path d="M 279.9 142
Q 279.25 139.25 278 137 277.25 141.2 279.2 142.75 279.5 143 280 143 280 142.5 279.9 142
M 178 69
Q 177.5 69 177.05 69.1 174.25 69.85 170 70 170 70.5 170 71 175.25 71.75 177.75 69.7 178 69.5 178 69 Z" stroke="none" fill="#676456"></path>

<path d="M 229 65
Q 229.5 65 230 65 230 64.5 229.85 64.45 220 61.7 210 64 210 64.5 210 65 219.5 65 229 65 Z" stroke="none" fill="#6A6351"></path>

<path d="M 201.75 65.8
Q 202 65.5 202 65 201.5 65 201.15 65.25 199.35 66.35 196 66 196 66.5 196 67 200.2 67.7 201.75 65.8 Z" stroke="none" fill="#686351"></path>

<path d="M 258 79
Q 257.5 79 257.05 78.85 250.75 76.25 247 71 246.5 71 246.05 70.85 239.7 68.3 230 65 229.5 65 229 65 219.5 65 210 65 209.5 65 209 65 205.5 65 202 65 202 65.5 201.75 65.8 200.2 67.7 196 67 195.5 67 195 67 194.5 67 194 67 194 67.5 193.8 67.6 190 69.75 186 68 186 68.5 185.95 68.5 182 69 178 69 178 69.5 177.75 69.7 175.25 71.75 170 71 169.5 71 169 71.1 161.7 72.2 154 73
L 154 73.5
Q 149.2 73.7 146 75 145.5 75 145 75 142.5 75 140 75 140 75.5 139.8 75.6 135.95 77.4 130 77 130 77.5 129.75 77.65 127.05 79.45 122 78 122 78.5 121.95 78.5 117.5 79 113 79 113 79.5 112.8 79.65 109.6 81.6 104 81 103.5 81 103 81 101.5 81 100 81 100 81.5 99.8 81.65 97.5 83 94 83 93.5 83 93.05 83.1 84.55 85.05 78 87 78 87.5 77.8 87.65 59.05 98.55 50 119 50 120.5 50 122 50 122.5 50 123 50 123.5 50.1 123.95 50.9 127.45 48 127 47.35 144.65 49.9 159 50 159.5 50 160 52.9 161.1 52.1 166 52 166.5 52 167 53.2 177.3 54.5 187
L 54 187
Q 57.45 196.55 58 209 58 209.5 58 210 60.7 213.3 60.05 220 60 220.5 60 221 60 221.5 60 222 60 222.5 60 223 63.3 224.2 62.1 230 62 230.5 62 231 62 231.5 62 232 62 232.5 62 233 63.25 235.25 63.9 238 64 238.5 64 239 64 242.5 64 246 64 246.5 64 247 66.9 246.6 66.1 250.05 66 250.5 66 251 66 256.5 66 262 66 262.5 66 263 69.3 264.2 68.1 270 68 270.5 68 271 70.15 270.4 70.05 272 70 272.5 70 273 72.2 274.25 72.05 278 72 278.5 72 279 75.15 281.35 75.9 286 76 286.5 76 287 81.65 288.85 83.8 294.05 84 294.5 84 295 88.25 295.25 89.8 298.1 90 298.5 90 299 93.85 299.65 95.75 302.2 96 302.5 96 303 100.9 303.6 103.75 306.25 104 306.5 104 307 108.2 306.25 109.75 308.2 110 308.5 110 309 111.5 309 113 309 113.5 309 114 309 122 309 130 309 130.5 309 131 309 134 309 137 309 137.5 309 138 309 138 308.5 138 308 138 307.5 138 307 141.5 307 145 307 145.5 307 146 307 146 306.5 146 306 146 305.5 146 305 146 304.5 146 304 146 303 146 302 146.5 302 147 302 147.5 302 148 302 148 301.5 148 301 154.5 298.65 160.8 301.4 161 301.5 161 302 161.5 302 161.75 302.25 162 302.5 162 303 162.5 303 163 303 174.9 303.4 184.05 301.1 184.5 301 185 301 185 300.5 185 300 187.05 298.55 191 298.95 191.5 299 192 299 192.5 299 193 299 193.5 299 194 299 194 298.5 194 298 194 297.5 194 297 198.5 297 203 297 203.5 297 204 297 206.5 297 209 297 209.5 297 210 297 210 296.5 210 296 210 295.5 210 295 213.5 295 217 295 217.5 295 218 295 218.5 295 219 295 219.5 295 220 295 220 294.5 220 294 226.4 292.4 235 292.95 235.5 293 236 293 237.5 293 239 293 239.5 293 240 293 240 292.5 240 292 240 291.5 240 291 244.35 285.85 252.05 288.85 252.5 289 253 289 256.45 288.45 259.1 287.2 259.5 287 260 287 260 286.5 260 286 260 285.5 260 285 262.5 285 265 285 265.5 285 266 285 266 284.5 266 284 266 283.5 266 283 268.25 282.75 269.3 281.25 269.5 281 270 281 270 280.5 270 280 270 279.5 270 279 271.5 279 273 279 273.5 279 274 279 274 278.5 274 278 274 277.5 274 277 281.8 269.8 287.75 260.85 288 260.5 288 260 288 259.5 288 259 288 257 288 255 288.5 255 289 255 289.5 255 290 255 290 254.5 290 254 290 252.5 290 251 291.65 251.15 291.5 249
L 292 249
Q 292 248.5 292 248 292 247.5 292 247 292 246.5 292 246 292 244 292 242 292.5 241.5 293.1 241.2 293.5 241 294 241 294 240.5 294 240 294 239.5 294 239 293.5 239 293.45 238.85 291.25 232.25 292 223 292 222.5 291.95 222 289.15 202.35 286 183 285.5 183 285.2 182.75 283.25 181.2 284 177 284 176.5 283.95 176 281.65 159.85 280 143 279.5 143 279.2 142.75 277.25 141.2 278 137 278 136.5 277.95 136 275.3 100.2 258 79
M 179.5 75
L 179 75
Q 183.65 74 193.05 76.85 193.5 77 194 77
L 194 76.5
Q 191.9 76.65 192 75 205.05 71.55 229.95 74.5 230 74.5 230 75 236 74.45 235.2 76.1 235 76.5 235 77 272.1 91.15 272 138 272 138.5 272 139 270.923828125 140.1251953125 270.4 141.8 269.8978515625 143.59921875 270 146 270 146.5 270 147 271.1234375 150.176953125 271.95 153.15 275.8998046875 167.17109375 273.55 176.9 273.5 177 273 177 273 177.5 273.1 177.95 273.65 180.15 272 180 280.55 185.35 278.15 192.05 278 192.5 278 193 278 193.5 277.8 193.6 277 194 276 194 276 194.5 276 195 276 197 276.45 198.9 276.5 199 277 199 277 198.5 277 198 277 197 277 196 283.45 204.85 280.55 214.85 280.5 215 280 215 280 215.5 280 216 280 216.5 280 217 286.35 210.85 282.15 226.05 282 226.5 282 227 282 228 282 229 282 229.5 282 230 282.5 230 282.55 230.15 285.9 242.35 282 254 282 254.5 281.75 254.7 280.4 255.95 278 263 277.5 263 277.15 263.25 271.5 267.4 266 276 265.5 276 265.15 276.25 261.45 278.95 255 279 255 279.5 254.85 279.95 254.75 280.25 252 283 251.5 283 251 283.05 188.3 288.15 134 301
L 134 300.5
Q 128.35 300.9 112 301 112 300.5 111.8 300.4 103.9 296.05 96 295 96 294.5 95.75 294.2 89.35 286.15 80 281 80 280.5 79.9 280 78.4 272.55 76 256 76 255.5 75.85 255.05 71.85 241.65 72 224 71.5 224 71.45 223.85 68.7 213.8 65 207 64.5 207 64.5 206.95 64 200 64 193 65 193 65.8 192.6 66 192.5 66 192 65.5 192 65.4 191.8 63.35 187.15 64 180 63.5 180 63.35 179.8 61.2 176.3 61 171 61.5 171 62 171 62 170.5 62 170 62 169.5 62 169 61.5 169 61.45 168.85 59.35 162.8 56 162 61.9 156.65 58.1 141.95 58 141.5 58 141 57.5 141 57.5 140.9 55.85 133.65 56 125 58 115.5 65.15 111.2 65.5 111 66 111 66 110.5 66 110 66 107.5 66 105 71.15 100.65 77.1 97.2 77.5 97 78 97 79.4 93.1 83.95 92.5 84 92.5 84 92 100.2 89.85 106.1 87.2 106.5 87 107 87 120.65 89.1 121.85 84.95 122 84.5 122 84 136.5 82.95 141.8 85.4 142 85.5 142 86 144 86 145.9 85.55 146 85.5 146 85 145.5 85 145.05 85.1 142.9 85.65 143 84 147.45 83 147.15 81.95 147 81.5 147 81 153.05 81.95 158.1 79.2 158.5 79 159 79 169.1 81.95 179.5 75
M 62 207
Q 64.85 219.1 62.1 207.95 62 207.5 62 207 Z" stroke="none" fill="#9B612D"></path>

<path d="M 62.1 207.95
Q 64.85 219.1 62 207 62 207.5 62.1 207.95 Z" stroke="none" fill="#A0621C"></path>

<path d="M 166 249
Q 165.5 249 165 249 161.5 249 158 249 160.75 250.75 165.9 249.55 166 249.5 166 249 Z" stroke="none" fill="#A28940"></path>

<path d="M 204 224
Q 203.5 224 203 224 202.5 224 202.4 224.2 200.55 228.05 197 230 197 230.5 197 231 197.5 231 198 231 202.3 229.3 203.85 224.95 204 224.5 204 224 Z" stroke="none" fill="#D7BA6A"></path>

<path d="M 210 215
Q 209.5 215 209.35 215.2 206.85 219.35 203 222 203 222.5 203 223 203 223.5 203 224 203.5 224 204 224 208.25 221.25 209.85 215.95 210 215.5 210 215 Z" stroke="none" fill="#CEB160"></path>

<path d="M 216 203
Q 215.5 203 215.45 203.15 214.35 206.85 212 209 212 209.5 212 210 212 210.5 212 211 214.45 209.95 215.75 207.85 216 207.5 216 207 216 206.5 216 206 216 204.5 216 203 Z" stroke="none" fill="#D7B96B"></path>

<path d="M 282 227
Q 282 226.5 282.15 226.05 286.35 210.85 280 217 280.15 222.35 281.45 226.85 281.5 227 282 227 Z" stroke="none" fill="#A96C18"></path>

<path d="M 277 198
Q 277 198.5 277 199 278.75 206.25 279.5 214.95 279.5 215 280 215 280.5 215 280.55 214.85 283.45 204.85 277 196 277 197 277 198 Z" stroke="none" fill="#A46516"></path>

<path d="M 72 223
Q 72 223.5 72 224 71.85 241.65 75.85 255.05 76 255.5 76 256 76.5 256 77 256 77 255.5 76.95 255 75.15 238.35 72 223 Z" stroke="none" fill="#AF701B"></path>

<path d="M 107 293
Q 107 293.5 107 294 108.65 295.35 111.05 295.9 111.5 296 112 296 112 295.5 111.8 295.1 110.7 292.75 107 293 Z" stroke="none" fill="#F6C859"></path>

<path d="M 95.75 294.2
Q 96 294.5 96 295 103.9 296.05 111.8 300.4 112 300.5 112 301 128.35 300.9 134 300.5
L 134 301
Q 188.3 288.15 251 283.05 251.5 283 252 283 254.75 280.25 254.85 279.95 255 279.5 255 279 261.45 278.95 265.15 276.25 265.5 276 266 276 271.5 267.4 277.15 263.25 277.5 263 278 263 280.4 255.95 281.75 254.7 282 254.5 282 254 285.9 242.35 282.55 230.15 282.5 230 282 230 282.75 246.25 274.4 252.55 214.2 298.15 112 296 111.5 296 111.05 295.9 108.65 295.35 107 294 106.5 294 106.05 293.85 92.9 289.1 86 278 85.5 278 85.35 277.8 79.7 268.3 77 256 76.5 256 76 256 78.4 272.55 79.9 280 80 280.5 80 281 89.35 286.15 95.75 294.2 Z" stroke="none" fill="#A26B0F"></path>

<path d="M 150 238
Q 150 238.5 150 239 151.6 248.4 158.15 252.75 158.5 253 159 253 169.65 250.65 179 247.5
L 179 248
Q 193.25 242.8 197.8 231.9 198 231.5 198 231 197.5 231 197 231 196.5 231 196.3 231.25 189.5 239.95 179 245 178.5 245 178 245 169.8 244.8 166 249 166 249.5 165.9 249.55 160.75 250.75 158 249 157.5 249 157.35 248.75 153.4 243.1 150 237 150 237.5 150 238 Z" stroke="none" fill="#DCC162"></path>

<path d="M 147 228
Q 146.5 228 146 228 148.05 232.95 149.45 238.9 149.5 239 150 239 150 238.5 150 238 150 237.5 150 237 150 236.5 149.95 236 149.3 231.7 148 228 147.5 228 147 228 Z" stroke="none" fill="#DEC45F"></path>

<path d="M 147 222
Q 147 221.5 146.85 221.05 145.5 217 144 213 142.85 219.65 146.15 221.75 146.5 222 147 222 Z" stroke="none" fill="#CFB061"></path>

<path d="M 142 206
Q 142 205.5 141.9 205 141.2 201.8 140 199 140 201.5 140 204 140 204.5 140 205 140.5 205.5 141.1 205.8 141.5 206 142 206 Z" stroke="none" fill="#DDBA60"></path>

<path d="M 128 159
Q 128 158.5 127.75 158.2 126.3 156.2 126 153 125.5 153 125.1 152.8 124.5 152.5 124 152 124.25 156.75 127.15 158.75 127.5 159 128 159 Z" stroke="none" fill="#E6C372"></path>

<path d="M 152 125
Q 152.5 125 153 125 153 124.5 152.95 124.5 147.5 124 142 124 142 124.5 142 125 147 125 152 125 Z" stroke="none" fill="#C9942F"></path>

<path d="M 141 125
Q 136.85 124.85 134 126 134 126.5 134 127 145.35 125.35 159 126 159.5 126 160 126 160 125.5 159.95 125.5 156.5 125 153 125 152.5 125 152 125 147 125 142 125 141.5 125 141 125 Z" stroke="none" fill="#604205"></path>

<path d="M 66 192
Q 66 192.5 65.8 192.6 65 193 64 193 64 200 64.5 206.95 64.5 207 65 207 68.7 213.8 71.45 223.85 71.5 224 72 224 72 223.5 72 223 71.5 223 71.5 222.95 70.2 206.3 67 192 66.5 192 66 192 Z" stroke="none" fill="#A56615"></path>

<path d="M 63 171
Q 63 170.5 63.05 170 63.75 165.25 62 163 62 165.5 62 168 62 168.5 62 169 62 169.5 62 170 62 170.5 62 171 62.5 171 63 171 Z" stroke="none" fill="#A77703"></path>

<path d="M 62 171
Q 61.5 171 61 171 61.2 176.3 63.35 179.8 63.5 180 64 180 63.35 187.15 65.4 191.8 65.5 192 66 192 66.5 192 67 192 67 191.5 66.95 191 66 180 63 171 62.5 171 62 171 Z" stroke="none" fill="#AB6E16"></path>

<path d="M 59 138
Q 59 138.5 59 139 59 141 59.45 142.9 59.5 143 60 143 60 142.5 60.05 142 60.75 134.25 59 129 59 133.5 59 138 Z" stroke="none" fill="#F1B456"></path>

<path d="M 59 139
Q 58.5 139 58 139 58 139.5 58 140 58 140.5 58 141 58 141.5 58.1 141.95 61.9 156.65 56 162 59.35 162.8 61.45 168.85 61.5 169 62 169 62 168.5 62 168 62 165.5 62 163 62 162.5 61.95 162 60.65 152.85 60 143 59.5 143 59.45 142.9 59 141 59 139 Z" stroke="none" fill="#AE6F1F"></path>

<path d="M 66 111
Q 65.5 111 65.15 111.2 58 115.5 56 125 55.85 133.65 57.5 140.9 57.5 141 58 141 58 140.5 58 140 58 139.5 58 139 58.5 139 59 139 59 138.5 59 138 59 133.5 59 129 59 128.5 59 128 59 127.5 59 127 61.8 121.3 64.4 115.2 64.5 115 65 115 65 114.5 65 114 65 113.5 65 113 65.5 113 65.75 112.75 66 112.5 66 112 66 111.5 66 111 Z" stroke="none" fill="#A56714"></path>

<path d="M 67.5 111.1
Q 67.5 111 67 111 67 111.5 66.75 111.75 66.5 112 66 112 66 112.5 65.75 112.75 65.5 113 65 113 65 113.5 65 114 65 114.5 65 115 68.25 114.75 67.5 111.1 Z" stroke="none" fill="#F7C05C"></path>

<path d="M 137.95 86.5
Q 138 86.5 138 86 137.5 86 137 86 133.5 86 130 86 130 86.5 130 87 134 87 137.95 86.5 Z" stroke="none" fill="#AF792D"></path>

<path d="M 118 89
Q 118 89.5 118 90 125.55 92.55 126.5 89
L 126 89
Q 125.5 89 125 89 121.5 89 118 89 Z" stroke="none" fill="#F7C262"></path>

<path d="M 98 93
Q 98 93.5 97.75 93.75 97.5 94 97 94 104.45 95.45 106.5 92
L 106 92
Q 105.5 92 105 91.95 100.45 91.45 98 93 Z" stroke="none" fill="#F5C05E"></path>

<path d="M 94 94
Q 93.5 94 93 94.1 78.7 97.2 70 106 70 106.5 70 107 70 107.5 70 108 74.85 106.85 79.75 100.8 80 100.5 80 100 91.1 97.25 94.5 94
L 94 94 Z" stroke="none" fill="#F5BE5B"></path>

<path d="M 84 92
Q 84 92.5 83.95 92.5 79.4 93.1 78 97 77.5 97 77.1 97.2 71.15 100.65 66 105 66 107.5 66 110 66 110.5 66 111 66 111.5 66 112 66.5 112 66.75 111.75 67 111.5 67 111 67 110.5 67 110 68.7 109.7 69.4 108.2 69.5 108 70 108 70 107.5 70 107 70 106.5 70 106 78.7 97.2 93 94.1 93.5 94 94 94 94 93.5 94 93 95.5 93 97 93 97.5 93 98 93 100.45 91.45 105 91.95 105.5 92 106 92 106 91.5 106 91 112.25 91.25 117.05 90.1 117.5 90 118 90 118 89.5 118 89 121.5 89 125 89 125.5 89 126 89 126 88.5 126 88 128 88 129.9 87.55 130 87.5 130 87 130 86.5 130 86 133.5 86 137 86 137.5 86 138 86 139.5 86 141 86 141.5 86 142 86 142 85.5 141.8 85.4 136.5 82.95 122 84 122 84.5 121.85 84.95 120.65 89.1 107 87 106.5 87 106.1 87.2 100.2 89.85 84 92 Z" stroke="none" fill="#A66817"></path>

<path d="M 275 194.05
Q 275.5 194 276 194 277 194 277.8 193.6 278 193.5 278 193 277.5 193 277 193 272 193 267 193 269.75 194.75 275 194.05 Z" stroke="none" fill="#6E4B0B"></path>

<path d="M 267 193
Q 266.5 193 266 193 268.15 196.35 275 195.1 275.5 195 276 195 276 194.5 276 194 275.5 194 275 194.05 269.75 194.75 267 193 Z" stroke="none" fill="#D6BB77"></path>

<path d="M 273 176
Q 273 176.5 273 177 273.5 177 273.55 176.9 275.8998046875 167.17109375 271.95 153.15 273.0697265625 163.990625 273 176
M 270.4 141.8
Q 270.923828125 140.1251953125 272 139 272 138.5 272 138 272.1 91.15 235 77 263.0986328125 99.0251953125 270.4 141.8 Z" stroke="none" fill="#A86719"></path>

<path d="M 263 191
Q 263 190.5 262.75 190.2 261.1 187.9 258 187 258.5 188 258.5 189
L 258 189
Q 257.9 192.1 262.05 191.1 262.5 191 263 191 Z" stroke="none" fill="#CBAE5C"></path>

<path d="M 258 187
Q 258 186.5 257.75 186.3 256 185 254 184 254.25 187.75 257.05 188.85 257.5 189 258 189
L 258.5 189
Q 258.5 188 258 187 Z" stroke="none" fill="#DFC072"></path>

<path d="M 246 178
Q 246 178.5 246 179 246 179.5 246 180 246 180.5 246 181 247.95 182.5 251 182.95 251.5 183 252 183 252 182.5 251.75 182.3 249 180 246 178 Z" stroke="none" fill="#CAB173"></path>

<path d="M 245 179.05
Q 245.5 179 246 179 246 178.5 246 178 246 177.5 245.75 177.2 244.75 175.8 242 176 241.75 179.25 245 179.05 Z" stroke="none" fill="#CAAE68"></path>

<path d="M 250 161
Q 249.5 161 249 161 248.5 166 252.05 166.9 252.5 167 253 167 253 166.5 252.8 166.45 249.85 165.15 250 161 Z" stroke="none" fill="#9B803C"></path>

<path d="M 253.75 148.25
Q 253.5 148 253 148 253 148.5 252.95 149 252.7 150.7 251 151 251 152.5 251 154 251 154.5 251 155 252.95 152.95 253.85 149.95 254 149.5 254 149 254 148.5 253.75 148.25 Z" stroke="none" fill="#513A25"></path>

<path d="M 241 175
Q 241 174.5 240.8 174.4 237.9 173.1 236 171 234.85 176.15 240 175.1 240.5 175 241 175 Z" stroke="none" fill="#CEAE68"></path>

<path d="M 236 186
Q 235.5 186 235.3 185.75 230.75 180 226 186 226 186.5 226.1 186.95 227 190.35 223 198 222.5 198 222.15 198.25 219.25 200.3 216 207 216 207.5 215.75 207.85 214.45 209.95 212 211
L 211.5 211
Q 211.65 213.15 210 213 210 213.5 210 214 210 214.5 210 215 210 215.5 209.85 215.95 208.25 221.25 204 224 204 224.5 203.85 224.95 202.3 229.3 198 231 198 231.5 197.8 231.9 193.25 242.8 179 248
L 179 247.5
Q 169.65 250.65 159 253 158.5 253 158.15 252.75 151.6 248.4 150 239 149.5 239 149.45 238.9 148.05 232.95 146 228 146.5 228 147 228 147.5 228 148 228 148 227.5 147.75 227.15 146.65 225.35 147 222 146.5 222 146.15 221.75 142.85 219.65 144 213 144 212.5 143.85 212.05 143 209 142 206 141.5 206 141.1 205.8 140.5 205.5 140 205 139.5 205 139.4 204.8 133.95 192.9 128 207 128 207.5 127.75 207.65 122.5 211.2 122 207 121.5 207 121.05 207.15 115.8 209.1 110 215 110.5 215 110.85 215.25 115.1 218 104 219 104 219.5 103.9 220 102.4 226.5 95 229 94.5 229 94.1 228.8 83.65 222.75 74 228 80.6 251.2 85.9 277 86 277.5 86 278 92.9 289.1 106.05 293.85 106.5 294 107 294 107 293.5 107 293 110.7 292.75 111.8 295.1 112 295.5 112 296 214.2 298.15 274.4 252.55 282.75 246.25 282 230 282 229.5 282 229 282 228 282 227 281.5 227 281.45 226.85 280.15 222.35 280 217 280 216.5 280 216 280 215.5 280 215 279.5 215 279.5 214.95 278.75 206.25 277 199 276.5 199 276.45 198.9 276 197 276 195 275.5 195 275 195.1 268.15 196.35 266 193 266 192.5 265.75 192.15 264.95 191.05 263 191 262.5 191 262.05 191.1 257.9 192.1 258 189 257.5 189 257.05 188.85 254.25 187.75 254 184 254 183.5 253.8 183.4 253 183 252 183 251.5 183 251 182.95 247.95 182.5 246 181 245.5 181 245.3 181.25 243.15 183.9 236 186 Z" stroke="none" fill="#F7D13F"></path>

<path d="M 218 175
Q 218 175.5 218.05 176 218.75 185.25 217 192 217 193.5 217 195 217 195.5 217 196 220.25 187.75 218.5 175.05 218.5 175 218 175 Z" stroke="none" fill="#644407"></path>

<path d="M 212 158
Q 212 157.5 212.1 157.05 213.2 152.3 209 153 210 155.5 211.35 157.8 211.5 158 212 158 Z" stroke="none" fill="#C7A759"></path>

<path d="M 235 167
Q 235 167.5 235 168 235.5 169 235.85 170.05 236 170.5 236 171 237.9 173.1 240.8 174.4 241 174.5 241 175 241.5 175 241.75 175.25 242 175.5 242 176 244.75 175.8 245.75 177.2 246 177.5 246 178 249 180 251.75 182.3 252 182.5 252 183 253 183 253.8 183.4 254 183.5 254 184 256 185 257.75 186.3 258 186.5 258 187 261.1 187.9 262.75 190.2 263 190.5 263 191 264.95 191.05 265.75 192.15 266 192.5 266 193 266.5 193 267 193 272 193 277 193 277.5 193 278 193 278 192.5 278.15 192.05 280.55 185.35 272 180 271.5 180 271.2 179.75 262.95 172.55 253 167 252.5 167 252.05 166.9 248.5 166 249 161 249.5 161 250 161 250 160.5 250 160 250 159.5 250 159 251.7 158.7 251.1 156 251 155.5 251 155 251 154.5 251 154 251 152.5 251 151 252.7 150.7 252.95 149 253 148.5 253 148 253 147.5 252.75 147.3 242.35 139.3 235 159 235 163 235 167 Z" stroke="none" fill="#1E0903"></path>

<path d="M 235 158
Q 235 157.5 235 157 234.5 157 234 157 234 162.5 234.5 167.95 234.5 168 235 168 235 167.5 235 167 235 163 235 159 235 158.5 235 158 Z" stroke="none" fill="#735F3F"></path>

<path d="M 235 157
Q 235 157.5 235 158 235 158.5 235 159 242.35 139.3 252.75 147.3 253 147.5 253 148 253.5 148 253.75 148.25 254 148.5 254 149 254.5 149 254.55 148.85 258 140.4 248 140 247.5 140 247.1 140.2 238.05 144.55 235 155 235 155.5 235 156 235 156.5 235 157 Z" stroke="none" fill="#492302"></path>

<path d="M 186 134
Q 186 133.5 185.75 133.35 183.35 131.65 180 131 181.6 133.4 185 133.9 185.5 134 186 134 Z" stroke="none" fill="#865D17"></path>

<path d="M 180 131
Q 179.5 131 179.1 130.8 171.25 126.75 160 126 159.5 126 159 126 145.35 125.35 134 127 133.5 127 133 127.1 124.9 128.4 123 136 123.1 145.4 125.85 152.05 126 152.5 126 153 126.3 156.2 127.75 158.2 128 158.5 128 159 134.7 177.8 139.9 198.05 140 198.5 140 199 141.2 201.8 141.9 205 142 205.5 142 206 143 209 143.85 212.05 144 212.5 144 213 145.5 217 146.85 221.05 147 221.5 147 222 146.65 225.35 147.75 227.15 148 227.5 148 228 149.3 231.7 149.95 236 150 236.5 150 237 153.4 243.1 157.35 248.75 157.5 249 158 249 161.5 249 165 249 165.5 249 166 249 169.8 244.8 178 245 178.5 245 179 245 189.5 239.95 196.3 231.25 196.5 231 197 231 197 230.5 197 230 200.55 228.05 202.4 224.2 202.5 224 203 224 203 223.5 203 223 203 222.5 203 222 206.85 219.35 209.35 215.2 209.5 215 210 215 210 214.5 210 214 210 213.5 210 213 211.65 213.15 211.5 211
L 212 211
Q 212 210.5 212 210 212 209.5 212 209 214.35 206.85 215.45 203.15 215.5 203 216 203 216 202.5 216 202 216 200 216 198 216.5 197.5 216.8 196.9 217 196.5 217 196 217 195.5 217 195 217 193.5 217 192 218.75 185.25 218.05 176 218 175.5 218 175 218 174.5 217.9 174 215.95 165.05 212 158 211.5 158 211.35 157.8 210 155.5 209 153 208.5 153 208.35 152.75 200.15 140.35 186 134 185.5 134 185 133.9 181.6 133.4 180 131
M 182.15 141.55
Q 182 141.5 182 141 195.15 146.35 182.15 141.55
M 177.5 137
L 177 137
Q 169.5 139.25 160.2 133.65 160 133.5 160 133 169.55 132.05 177.5 137
M 162 139
Q 165 139.5 167.85 140.45 168 140.5 168 141 193.4 149.1 200.85 175.05 201 175.5 201 176 202.75 181.75 201.5 189.95 201.5 190 201 190 201 190.5 200.9 190.95 194.55 216.55 175 229 175 229.5 175 230 175 230.5 174.8 230.6 170.3 232.8 167 231 167 230.5 166.85 230.05 158.5 202.5 150 175 149.5 175 149.45 174.85 148.25 171.75 148 168 148 167.5 147.85 167.05 145.25 159.25 143 151 142.5 151 142.45 150.85 141.25 147.75 141 144 141 143.5 140.75 143.25 139.3 141.7 140 138 149 138 157.95 138.5 158 138.5 158 139 159.5 139 161 139 161.5 139 162 139
M 194.25 149.85
Q 194 149.5 194 149 200.3 150.7 203.75 155.2 204 155.5 204 156 207.9 164.35 215.8 177.15 216 177.5 216 178 212.9 183.9 213.95 194 214 194.5 214 195 208.35 201.5 208 209 208 209.5 208 210 198.6 212.95 199.9 219 200 219.5 200 220 194.95 225.5 195 223 195 222.5 195 222 200.75 200.35 208.15 195.25 208.5 195 209 195 211.25 190.1 204.65 179.2 204.5 179 204 179 205.7 166.3 194.25 149.85
M 124.2 140.65
Q 124 140.5 124 140 132.1 135.2 135.5 143
L 135 143
Q 133.45 147.35 137.75 153.2 138 153.5 138 154 134.75 159.6 130.85 157.2 130.5 157 130 157 131.1 144.9 124.2 140.65
M 158.75 133.35
Q 159 133.5 159 134 152.5 135.75 143.15 132.55 143 132.5 143 132 152.1 129.05 158.75 133.35
M 145.9 172
Q 146 172.5 146 173 135.05 173.1 135.95 164 136 163.5 136 163 142.5 156.3 145.9 172
M 140 153
Q 142.4 161.8 140.15 153.95 140 153.5 140 153
M 140 184
Q 140 183.5 140 183 155.6 181.85 146.75 190.75 146.5 191 146 191 140.15 194.5 140 184
M 144.15 177.55
Q 144 177.5 144 177 152 179.85 144.15 177.55
M 154.2 206.1
Q 154 206.5 154 207 161.65 208 158.15 217.05 158 217.5 158 218 161.2 226.85 156.25 219.85 156 219.5 156 219 150.5 219.9 147.55 211.15 147.5 211 147 211 147.65 214.6 144.1 199.95 144 199.5 144 199 159.35 197.15 154.2 206.1
M 152.1 228
Q 152 227.5 152 227 160.2 224.4 163.4 230.8 163.5 231 164 231 162.45 236.55 162 238.5
L 162 238
Q 154.75 241.75 152.1 228
M 160 243.5
L 160 243
Q 170.75 242.15 160 243.5
M 167.25 237.7
Q 167 237.5 167 237 177.25 235.75 177.9 239 178 239.5 178 240 172.1 241.9 167.25 237.7 Z" stroke="none" fill="#1F0A02"></path>

<path d="M 167 237
Q 167 237.5 167.25 237.7 172.1 241.9 178 240 178 239.5 177.9 239 177.25 235.75 167 237 Z" stroke="none" fill="#050207"></path>

<path d="M 160 243
L 160 243.5
Q 170.75 242.15 160 243 Z" stroke="none" fill="#0F020F"></path>

<path d="M 152 227
Q 152 227.5 152.1 228 154.75 241.75 162 238
L 162 238.5
Q 162.45 236.55 164 231 163.5 231 163.4 230.8 160.2 224.4 152 227 Z" stroke="none" fill="#040402"></path>

<path d="M 154 207
Q 154 206.5 154.2 206.1 159.35 197.15 144 199 144 199.5 144.1 199.95 147.65 214.6 147 211 147.5 211 147.55 211.15 150.5 219.9 156 219 156 219.5 156.25 219.85 161.2 226.85 158 218 158 217.5 158.15 217.05 161.65 208 154 207 Z" stroke="none" fill="#030401"></path>

<path d="M 144 177
Q 144 177.5 144.15 177.55 152 179.85 144 177
M 159 134
Q 159 133.5 158.75 133.35 152.1 129.05 143 132 143 132.5 143.15 132.55 152.5 135.75 159 134 Z" stroke="none" fill="#030301"></path>

<path d="M 140 183
Q 140 183.5 140 184 140.15 194.5 146 191 146.5 191 146.75 190.75 155.6 181.85 140 183 Z" stroke="none" fill="#0A020A"></path>

<path d="M 140.15 153.95
Q 142.4 161.8 140 153 140 153.5 140.15 153.95 Z" stroke="none" fill="#0F0110"></path>

<path d="M 146 173
Q 146 172.5 145.9 172 142.5 156.3 136 163 136 163.5 135.95 164 135.05 173.1 146 173 Z" stroke="none" fill="#030202"></path>

<path d="M 124 140
Q 124 140.5 124.2 140.65 131.1 144.9 130 157 130.5 157 130.85 157.2 134.75 159.6 138 154 138 153.5 137.75 153.2 133.45 147.35 135 143
L 135.5 143
Q 132.1 135.2 124 140 Z" stroke="none" fill="#060505"></path>

<path d="M 194 149
Q 194 149.5 194.25 149.85 205.7 166.3 204 179 204.5 179 204.65 179.2 211.25 190.1 209 195 208.5 195 208.15 195.25 200.75 200.35 195 222 195 222.5 195 223 194.95 225.5 200 220 200 219.5 199.9 219 198.6 212.95 208 210 208 209.5 208 209 208.35 201.5 214 195 214 194.5 213.95 194 212.9 183.9 216 178 216 177.5 215.8 177.15 207.9 164.35 204 156 204 155.5 203.75 155.2 200.3 150.7 194 149 Z" stroke="none" fill="#060308"></path>

<path d="M 175 230
Q 174.5 230 174 230.1 170.75 230.75 167 231 170.3 232.8 174.8 230.6 175 230.5 175 230 Z" stroke="none" fill="#8F701B"></path>

<path d="M 150 175
Q 150 174.5 150 174 150 170 148 168 148.25 171.75 149.45 174.85 149.5 175 150 175 Z" stroke="none" fill="#85651C"></path>

<path d="M 142 144
Q 141.5 144 141 144 141.25 147.75 142.45 150.85 142.5 151 143 151 143 150.5 142.95 150 142.5 147 142 144 Z" stroke="none" fill="#8C6D27"></path>

<path d="M 140.75 143.25
Q 141 143.5 141 144 141.5 144 142 144 142 143.5 142 143 142 142 142 141 150.4 139.75 157 139.05 157.5 139 158 139 158 138.5 157.95 138.5 149 138 140 138 139.3 141.7 140.75 143.25 Z" stroke="none" fill="#D2B26F"></path>

<path d="M 201 190
Q 201.5 190 201.5 189.95 202.75 181.75 201 176 201 182.5 201 189 201 189.5 201 190 Z" stroke="none" fill="#86650E"></path>

<path d="M 167 141.1
Q 162.3 142.2 162 139 161.5 139 161 139 159.5 139 158 139 157.5 139 157 139.05 150.4 139.75 142 141 142 142 142 143 142 143.5 142 144 142.5 147 142.95 150 143 150.5 143 151 145.25 159.25 147.85 167.05 148 167.5 148 168 150 170 150 174 150 174.5 150 175 158.5 202.5 166.85 230.05 167 230.5 167 231 170.75 230.75 174 230.1 174.5 230 175 230 175 229.5 175 229 194.55 216.55 200.9 190.95 201 190.5 201 190 201 189.5 201 189 201 182.5 201 176 201 175.5 200.85 175.05 193.4 149.1 168 141 167.5 141 167 141.1
M 167 151.5
L 167 151
Q 172 147.4 171.1 153 171 153.5 171 154 168.1 160.15 164 157.5
L 164 158
Q 155.35 155.85 151.6 149.2 151.5 149 151 149 151.65 160.7 146.2 147.9 146 147.5 146 147 156.85 146.25 161.1 144.2 161.5 144 162 144 162.25 149.85 167 151.5
M 172 153
Q 185.9 160.9 172.2 153.6 172 153.5 172 153
M 152 159
Q 164.05 161.25 152.05 159.5 152 159.5 152 159 Z" stroke="none" fill="#F4C342"></path>

<path d="M 152.05 159.5
Q 164.05 161.25 152 159 152 159.5 152.05 159.5
M 172.2 153.6
Q 185.9 160.9 172 153 172 153.5 172.2 153.6 Z" stroke="none" fill="#FABB3E"></path>

<path d="M 167 151
L 167 151.5
Q 162.25 149.85 162 144 161.5 144 161.1 144.2 156.85 146.25 146 147 146 147.5 146.2 147.9 151.65 160.7 151 149 151.5 149 151.6 149.2 155.35 155.85 164 158
L 164 157.5
Q 168.1 160.15 171 154 171 153.5 171.1 153 172 147.4 167 151 Z" stroke="none" fill="#F9BB3E"></path>

<path d="M 167.85 140.45
Q 165 139.5 162 139 162.3 142.2 167 141.1 167.5 141 168 141 168 140.5 167.85 140.45 Z" stroke="none" fill="#AF9056"></path>

<path d="M 177 137
L 177.5 137
Q 169.55 132.05 160 133 160 133.5 160.2 133.65 169.5 139.25 177 137 Z" stroke="none" fill="#0D0111"></path>

<path d="M 182 141
Q 182 141.5 182.15 141.55 195.15 146.35 182 141 Z" stroke="none" fill="#0E0110"></path>

<path d="M 235 77
Q 235 76.5 235.2 76.1 236 74.45 230 75 229.5 75 229 75 230.8 76.7 234 76.95 234.5 77 235 77 Z" stroke="none" fill="#AD6E19"></path>

<path d="M 222 75
Q 222 74.5 221.95 74.5 216 74 210 74 210 74.5 210 75 215.5 75 221 75 221.5 75 222 75 Z" stroke="none" fill="#C08C37"></path>

<path d="M 192 75
Q 191.9 76.65 194 76.5
L 194 77
Q 202.5 77 209.05 75.15 209.5 75 210 75 210 74.5 210 74 216 74 221.95 74.5 222 74.5 222 75 225 75 228 75 228.5 75 229 75 229.5 75 230 75 230 74.5 229.95 74.5 205.05 71.55 192 75 Z" stroke="none" fill="#A46517"></path>

<path d="M 194 77
Q 194 77.5 193.95 77.5 169.65 81.15 146 85 146 85.5 145.9 85.55 144 86 142 86 141.5 86 141 86 139.5 86 138 86 138 86.5 137.95 86.5 134 87 130 87 130 87.5 129.9 87.55 128 88 126 88 126 88.5 126 89
L 126.5 89
Q 125.55 92.55 118 90 117.5 90 117.05 90.1 112.25 91.25 106 91 106 91.5 106 92
L 106.5 92
Q 104.45 95.45 97 94 97.5 94 97.75 93.75 98 93.5 98 93 97.5 93 97 93 95.5 93 94 93 94 93.5 94 94
L 94.5 94
Q 91.1 97.25 80 100 80 100.5 79.75 100.8 74.85 106.85 70 108 69.5 108 69.4 108.2 68.7 109.7 67 110 67 110.5 67 111 67.5 111 67.5 111.1 68.25 114.75 65 115 64.5 115 64.4 115.2 61.8 121.3 59 127 59 127.5 59 128 59 128.5 59 129 60.75 134.25 60.05 142 60 142.5 60 143 60.65 152.85 61.95 162 62 162.5 62 163 63.75 165.25 63.05 170 63 170.5 63 171 66 180 66.95 191 67 191.5 67 192 70.2 206.3 71.5 222.95 71.5 223 72 223 75.15 238.35 76.95 255 77 255.5 77 256 79.7 268.3 85.35 277.8 85.5 278 86 278 86 277.5 85.9 277 80.6 251.2 74 228 83.65 222.75 94.1 228.8 94.5 229 95 229 102.4 226.5 103.9 220 104 219.5 104 219 115.1 218 110.85 215.25 110.5 215 110 215 115.8 209.1 121.05 207.15 121.5 207 122 207 122.5 211.2 127.75 207.65 128 207.5 128 207 133.95 192.9 139.4 204.8 139.5 205 140 205 140 204.5 140 204 140 201.5 140 199 140 198.5 139.9 198.05 134.7 177.8 128 159 127.5 159 127.15 158.75 124.25 156.75 124 152 124.5 152.5 125.1 152.8 125.5 153 126 153 126 152.5 125.85 152.05 123.1 145.4 123 136 124.9 128.4 133 127.1 133.5 127 134 127 134 126.5 134 126 136.85 124.85 141 125 141.5 125 142 125 142 124.5 142 124 147.5 124 152.95 124.5 153 124.5 153 125 156.5 125 159.95 125.5 160 125.5 160 126 171.25 126.75 179.1 130.8 179.5 131 180 131 183.35 131.65 185.75 133.35 186 133.5 186 134 200.15 140.35 208.35 152.75 208.5 153 209 153 213.2 152.3 212.1 157.05 212 157.5 212 158 215.95 165.05 217.9 174 218 174.5 218 175 218.5 175 218.5 175.05 220.25 187.75 217 196 217 196.5 216.8 196.9 216.5 197.5 216 198 216 200 216 202 216 202.5 216 203 216 204.5 216 206 216 206.5 216 207 219.25 200.3 222.15 198.25 222.5 198 223 198 227 190.35 226.1 186.95 226 186.5 226 186 230.75 180 235.3 185.75 235.5 186 236 186 243.15 183.9 245.3 181.25 245.5 181 246 181 246 180.5 246 180 246 179.5 246 179 245.5 179 245 179.05 241.75 179.25 242 176 242 175.5 241.75 175.25 241.5 175 241 175 240.5 175 240 175.1 234.85 176.15 236 171 236 170.5 235.85 170.05 235.5 169 235 168 234.5 168 234.5 167.95 234 162.5 234 157 234.5 157 235 157 235 156.5 235 156 235 155.5 235 155 238.05 144.55 247.1 140.2 247.5 140 248 140 258 140.4 254.55 148.85 254.5 149 254 149 254 149.5 253.85 149.95 252.95 152.95 251 155 251 155.5 251.1 156 251.7 158.7 250 159 250 159.5 250 160 250 160.5 250 161 249.85 165.15 252.8 166.45 253 166.5 253 167 262.95 172.55 271.2 179.75 271.5 180 272 180 273.65 180.15 273.1 177.95 273 177.5 273 177 273 176.5 273 176 273.0697265625 163.990625 271.95 153.15 271.1234375 150.176953125 270 147 270 146.5 270 146 269.8978515625 143.59921875 270.4 141.8 263.0986328125 99.0251953125 235 77 234.5 77 234 76.95 230.8 76.7 229 75 228.5 75 228 75 225 75 222 75 221.5 75 221 75 215.5 75 210 75 209.5 75 209.05 75.15 202.5 77 194 77
M 233 81.9
Q 233.5 82 234 82 239.35 86.65 240.5 95
L 240 95
Q 227.3 101.85 213 99.1 212.5 99 212 99 210.7 101.2 207.05 101.5 207 101.5 207 102 143.85 110.8 78 113.5
L 78 113
Q 79.9 110.4 80.85 106.95 81 106.5 81 106 84.95 102.45 89.8 99.65 90 99.5 90 99 155.55 86.55 226 79.05 226.5 79 227 79 229.45 81.1 233 81.9
M 228.25 155.7
Q 228 155.5 228 155 234.4 160.3 228.25 155.7
M 226 151
Q 230.05 157.7 226.25 151.85 226 151.5 226 151
M 264 165
Q 271.4 179.15 264.2 165.9 264 165.5 264 165
M 78.15 195.55
Q 78 195.5 78 195 88.45 198.55 78.15 195.55
M 96 145
Q 96 144.5 96 144 100 144 103.95 144.5 104 144.5 104 145 106.15 144.4 106.05 146 106 146.5 106 147 106.5 147 106.75 147.25 107 147.5 107 148 109.25 150.8 107.2 154.15 107 154.5 107 155 108 155.5 108.75 156.25 109 156.5 109 157 112.75 159.75 115.75 163.2 116 163.5 116 164 120.95 172.55 125.8 181.1 126 181.5 126 182 126 190.5 122.25 195.2 122 195.5 122 196 122 196.5 121.9 197 121.1 201.55 119 200 118.5 200 118 200 118 200.5 118 201 118 201.5 118 202 117.9 206.4 114 207 114 207.5 113.8 207.9 111.15 212.7 107 212 106.5 212 106.3 212.25 104.15 214.65 102 217 102 217.5 102 218 102.2 221.7 98 221 98 221.5 97.75 221.85 95.4 225.15 91 223 90.5 223 90 223 89 223 88 223 88 223.5 87.9 223.5 81.75 224.75 78 223 77.5 223 77.15 222.8 74.45 221.1 74 217 78.05 213.55 83.85 211.55 84 211.5 84 211 83.5 211 83.05 210.85 76.45 208.1 74 205 73.928515625 198.99296875 71 194 77.1 199.05 84 199 84.5 199 85 199 88.3 203.85 89.8 207.1 90 207.5 90 208 92.15 208.65 92.5 207.1 92.5 207 93 207 93 206.5 93 206 95.15 205.15 96.35 203.2 96.5 203 97 203 102.3 196.3 107.75 189.8 108 189.5 108 189 108 188.5 108 188 108 185.5 108 183 108.5 183 109 183 109 182.5 109 182 108.75 177.25 106 175 105.5 175 105 175.05 101.95 175.3 102 170 102 169.5 101.8 169.4 98.75 167.75 98 164 97.5 164 97.05 163.85 88.15 160.85 86 151 88.85 147.35 94.05 146.1 94.5 146 95 146 95 145.5 95 145 95.5 145 96 145
M 135.2 191.9
Q 135 191.5 135 191 138.45 199.75 135.2 191.9 Z" stroke="none" fill="#F6BD44"></path>

<path d="M 135 191
Q 135 191.5 135.2 191.9 138.45 199.75 135 191 Z" stroke="none" fill="#F9CB3E"></path>

<path d="M 88 223
Q 87.5 223 87 223 82.5 223 78 223 81.75 224.75 87.9 223.5 88 223.5 88 223 Z" stroke="none" fill="#9D6D04"></path>

<path d="M 95.9 221.55
Q 94 222 92 222 91.5 222 91 222 91 222.5 91 223 95.4 225.15 97.75 221.85 98 221.5 98 221 97.5 221 97 221 96.5 221 96 221 96 221.5 95.9 221.55 Z" stroke="none" fill="#E2C86B"></path>

<path d="M 92 221
Q 92 221.5 92 222 94 222 95.9 221.55 96 221.5 96 221 96 220.5 96 220 98.7 220.7 98.95 219 99 218.5 99 218 98.5 218 98.15 218.25 95.45 219.95 92 221 Z" stroke="none" fill="#947B35"></path>

<path d="M 90 208
Q 89.5 208 89.2 208.25 87.55 209.55 85 210 85 210.5 85 211 89 211.5 89.85 208.95 90 208.5 90 208 Z" stroke="none" fill="#6B4803"></path>

<path d="M 89.2 208.25
Q 89.5 208 90 208 90 207.5 89.8 207.1 88.3 203.85 85 199 84.5 199 84 199 77.1 199.05 71 194 73.928515625 198.99296875 74 205 76.45 208.1 83.05 210.85 83.5 211 84 211 84.5 211 85 211 85 210.5 85 210 87.55 209.55 89.2 208.25 Z" stroke="none" fill="#F7CB43"></path>

<path d="M 93 207
Q 96.75 207.25 96.95 204 97 203.5 97 203 96.5 203 96.35 203.2 95.15 205.15 93 206 93 206.5 93 207 Z" stroke="none" fill="#673D07"></path>

<path d="M 102 218
Q 102 217.5 102 217 101.5 217 101.05 217.15 100 217.5 99 218 99 218.5 98.95 219 98.7 220.7 96 220 96 220.5 96 221 96.5 221 97 221 97.5 221 98 221 102.2 221.7 102 218 Z" stroke="none" fill="#D4BA6C"></path>

<path d="M 113 207
Q 112.5 207 112.15 207.25 109.5 209 107 211 107 211.5 107 212 111.15 212.7 113.8 207.9 114 207.5 114 207 113.5 207 113 207 Z" stroke="none" fill="#D5BA60"></path>

<path d="M 118 202
Q 118 201.5 118 201 117.5 201 117.35 201.25 115.65 203.65 113 205 113 205.5 113 206 113 206.5 113 207 113.5 207 114 207 117.9 206.4 118 202 Z" stroke="none" fill="#D0B268"></path>

<path d="M 121.9 197
Q 122 196.5 122 196 121.5 196 121.4 196.2 120.7 197.7 119 198 119 198.5 119 199 119 199.5 119 200 121.1 201.55 121.9 197 Z" stroke="none" fill="#C8A953"></path>

<path d="M 109.2 183.85
Q 109 183.5 109 183 108.5 183 108 183 108 185.5 108 188 108 188.5 108 189 111 186.95 109.2 183.85 Z" stroke="none" fill="#BD9F5D"></path>

<path d="M 116 164
Q 116 163.5 115.75 163.2 112.75 159.75 109 157 111 161.5 115.1 163.8 115.5 164 116 164 Z" stroke="none" fill="#6D4D07"></path>

<path d="M 103 170
Q 102.5 170 102 170 101.95 175.3 105 175.05 105.5 175 106 175 106 174.5 105.75 174.2 104.25 172.25 103 170 Z" stroke="none" fill="#D7B56B"></path>

<path d="M 102 170
Q 102.5 170 103 170 103 169.5 102.8 169.1 101.15 165.85 98 164 98.75 167.75 101.8 169.4 102 169.5 102 170 Z" stroke="none" fill="#6B522F"></path>

<path d="M 107 155
Q 107 154.5 107.2 154.15 109.25 150.8 107 148 107 148.5 107.1 149 107.7 151.7 106 152 106 153.5 106.45 154.85 106.5 155 107 155 Z" stroke="none" fill="#7F5D16"></path>

<path d="M 95 145
Q 95 145.5 95 146 101.25 145.25 105.05 146.85 105.5 147 106 147 106 146.5 106.05 146 106.15 144.4 104 145 103.5 145 103 145 99.5 145 96 145 95.5 145 95 145 Z" stroke="none" fill="#512C00"></path>

<path d="M 95 146
Q 94.5 146 94.05 146.1 88.85 147.35 86 151 88.15 160.85 97.05 163.85 97.5 164 98 164 101.15 165.85 102.8 169.1 103 169.5 103 170 104.25 172.25 105.75 174.2 106 174.5 106 175 108.75 177.25 109 182 109 182.5 109 183 109 183.5 109.2 183.85 111 186.95 108 189 108 189.5 107.75 189.8 102.3 196.3 97 203 97 203.5 96.95 204 96.75 207.25 93 207 92.5 207 92.5 207.1 92.15 208.65 90 208 90 208.5 89.85 208.95 89 211.5 85 211 84.5 211 84 211 84 211.5 83.85 211.55 78.05 213.55 74 217 74.45 221.1 77.15 222.8 77.5 223 78 223 82.5 223 87 223 87.5 223 88 223 89 223 90 223 90.5 223 91 223 91 222.5 91 222 91.5 222 92 222 92 221.5 92 221 95.45 219.95 98.15 218.25 98.5 218 99 218 100 217.5 101.05 217.15 101.5 217 102 217 104.15 214.65 106.3 212.25 106.5 212 107 212 107 211.5 107 211 109.5 209 112.15 207.25 112.5 207 113 207 113 206.5 113 206 113 205.5 113 205 115.65 203.65 117.35 201.25 117.5 201 118 201 118 200.5 118 200 118.5 200 119 200 119 199.5 119 199 119 198.5 119 198 120.7 197.7 121.4 196.2 121.5 196 122 196 122 195.5 122.25 195.2 126 190.5 126 182 126 181.5 125.8 181.1 120.95 172.55 116 164 115.5 164 115.1 163.8 111 161.5 109 157 109 156.5 108.75 156.25 108 155.5 107 155 106.5 155 106.45 154.85 106 153.5 106 152 107.7 151.7 107.1 149 107 148.5 107 148 107 147.5 106.75 147.25 106.5 147 106 147 105.5 147 105.05 146.85 101.25 145.25 95 146
M 106.25 197.75
Q 106 197.5 106 197 116.15 207.2 106.25 197.75
M 114.2 185.9
Q 114 185.5 114 185 117.75 192.15 114.2 185.9 Z" stroke="none" fill="#1F0904"></path>

<path d="M 114 185
Q 114 185.5 114.2 185.9 117.75 192.15 114 185 Z" stroke="none" fill="#080515"></path>

<path d="M 106 197
Q 106 197.5 106.25 197.75 116.15 207.2 106 197 Z" stroke="none" fill="#020519"></path>

<path d="M 96 144
Q 96 144.5 96 145 99.5 145 103 145 103.5 145 104 145 104 144.5 103.95 144.5 100 144 96 144 Z" stroke="none" fill="#A87211"></path>

<path d="M 78 195
Q 78 195.5 78.15 195.55 88.45 198.55 78 195 Z" stroke="none" fill="#FACC42"></path>

<path d="M 264.2 165.9
Q 271.4 179.15 264 165 264 165.5 264.2 165.9 Z" stroke="none" fill="#F6C631"></path>

<path d="M 226.25 151.85
Q 230.05 157.7 226 151 226 151.5 226.25 151.85
M 228 155
Q 228 155.5 228.25 155.7 234.4 160.3 228 155 Z" stroke="none" fill="#F9C635"></path>

<path d="M 234 82
Q 233.5 82 233 81.9 229.45 81.1 227 79 226.5 79 226 79.05 155.55 86.55 90 99 90 99.5 89.8 99.65 84.95 102.45 81 106 81 106.5 80.85 106.95 79.9 110.4 78 113
L 78 113.5
Q 143.85 110.8 207 102 207 101.5 207.05 101.5 210.7 101.2 212 99 212.5 99 213 99.1 227.3 101.85 240 95
L 240.5 95
Q 239.35 86.65 234 82
M 212.2 83.6
Q 212 83.5 212 83 222.2 82.3 224.5 84
L 224 84
Q 218 86.5 212.2 83.6 Z" stroke="none" fill="#FED968"></path>

<path d="M 212 83
Q 212 83.5 212.2 83.6 218 86.5 224 84
L 224.5 84
Q 222.2 82.3 212 83 Z" stroke="none" fill="#FFE578"></path>

<path d="M 179 75
L 179.5 75
Q 169.1 81.95 159 79 158.5 79 158.1 79.2 153.05 81.95 147 81 147 81.5 147.15 81.95 147.45 83 143 84 142.9 85.65 145.05 85.1 145.5 85 146 85 169.65 81.15 193.95 77.5 194 77.5 194 77 193.5 77 193.05 76.85 183.65 74 179 75 Z" stroke="none" fill="#A66719"></path>
</g>
</g>
</g>
</g>
</g>
</svg>
