
<svg viewBox="0 0 112 184" height="184px" width="112px" y="0px" x="0px" preserveAspectRatio="none" xmlns:xlink="http://www.w3.org/1999/xlink" version="1.1" xmlns="http://www.w3.org/2000/svg">
<defs></defs>

<g id="fun_scrollers">
<g transform="matrix( 0.3621063232421875, 0, 0, 0.3621063232421875, -594.2,0.1)" id="svg"></g>

<g transform="matrix( 0.3621063232421875, 0, 0, 0.3621063232421875, -594.2,0.1)" id="Layer_2"></g>

<g transform="matrix( 0.3621063232421875, 0, 0, 0.3621063232421875, -594.2,0.1)" id="Layer_3"></g>

<g transform="matrix( 0.3621063232421875, 0, 0, 0.3621063232421875, -594.2,0.1)" id="Layer_2"></g>

<g transform="matrix( 0.3621063232421875, 0, 0, 0.3621063232421875, -594.2,0.1)" id="Layer_3"></g>

<g transform="matrix( 0.3621063232421875, 0, 0, 0.3621063232421875, -594.2,0.1)" id="MergedLayer_3"></g>

<g transform="matrix( 0.3621063232421875, 0, 0, 0.3621063232421875, -594.2,0.1)" id="Layer_4"></g>

<g transform="matrix( 0.3621063232421875, 0, 0, 0.3621063232421875, -594.2,0.1)" id="Layer_1">
<g>
<g>
<g>
<path d="M 1936.95 32
L 1936.15 32
Q 1927.65 31.3 1916.6 31.9
L 1916 31.9
Q 1912.5 32.1 1908.7 32.4 1889.6 34.4 1880 35 1871.05 35.6 1857.65 35.7 1842.7 35.75 1835.25 35.9 1808.4 36.35 1791.1 40.65 1789.65 43.55 1791.8 46.7 1793.95 49.8 1797.2 49.4 1786.25 52.15 1775.95 57.75 1771.95 59.9 1770.55 61.95 1769.5 63.45 1769.35 65.2 1769.25 67.1 1770.25 68.45 1777.85 68.3 1788.15 69.85 1794.1 70.8 1806 73 1828.05 76.75 1841.15 73.2 1822.95 109.3 1807.5 145.05
L 1800.05 162.5
Q 1797 169.75 1796 173.75 1794.35 180.2 1795.35 185.35
L 1802.35 185.55
Q 1805.65 173.5 1812.7 162.95 1807.4 179.25 1808.55 196
L 1815.85 196
Q 1815.4 182.75 1819.65 170.15 1816.55 187.75 1816.45 205.15
L 1809.95 205.5
Q 1807.55 231 1800.25 261.7 1795.5 281.7 1785.1 316.9 1773.65 355.85 1769.45 372.1 1761.5 403.15 1758.3 428.15
L 1765.7 428.4
Q 1773.4 403.9 1777.75 391.65 1784.95 371.4 1792.6 356 1778.7 404.35 1779.05 454.45
L 1785.95 454.4
Q 1794.8 408.25 1800.1 360.85 1801.5 365.85 1800.7 372.85 1800.25 376.9 1798.7 384.95 1797.45 392.75 1797.4 402.7 1797.35 408.4 1797.8 420.5
L 1804.9 421.05 1804.9 435.35
Q 1803.1 432.85 1799.9 431.9 1796.75 430.9 1793.85 432 1798.9 449.6 1805.45 467.4 1797.3 468.9 1788.95 469.5
L 1789.1 476.45
Q 1798.6 477.95 1807.45 478.65
L 1808.55 483.05 1815.55 483.05
Q 1815.1 481.75 1816 480.8 1826.95 483.35 1840.95 484.15 1849.3 484.6 1866.15 484.6
L 1936.95 484.5 1936.95 32
M 1786.7 340.7
Q 1787.75 336.85 1790.05 329.25
L 1806 276.9
Q 1798.9 316 1783.7 353.05 1785 346.95 1786.7 340.7
M 1812.8 461.4
Q 1813.05 461.35 1813.45 461.65
L 1817.7 465.3
Q 1817.5 465.6 1816.8 465.7 1815.3 465.85 1814.05 465.8 1813.75 465.3 1813.6 464.5 1813.3 463.2 1813.3 463.15 1812.85 462 1812.8 461.4 Z" stroke="none" fill="#000000"></path>
</g>
</g>
</g>
</g>

<g transform="matrix( 0.3621063232421875, 0, 0, 0.3621063232421875, -594.2,0.1)" id="Layer_5"></g>

<g transform="matrix( 0.3621063232421875, 0, 0, 0.3621063232421875, -594.2,0.1)" id="Layer_6"></g>

<g transform="matrix( 0.3621063232421875, 0, 0, 0.3621063232421875, -594.2,0.1)" id="MergedLayer_1"></g>

<g transform="matrix( 0.3621063232421875, 0, 0, 0.3621063232421875, -594.2,0.1)" id="Layer_2">
<g>
<g>
<g>
<path d="M 1638.75 369.8
Q 1637 365.6 1634 362.3 1632.2630859375 360.4181640625 1630.2 358.95
L 1630.2 373.4
Q 1633.25 378.3048828125 1633.25 383.45 1633.25 385.9 1632 391.1 1631.35 393.8 1630.7 395.25 1630.465234375 395.7935546875 1630.2 396.25
L 1630.2 407.4
Q 1630.225 407.4037109375 1630.25 407.4 1634.85 406.7 1636.55 404.55 1637.4 403.5 1638.1 400.8 1640.6 391.4 1641 385.3 1641.6 376.5 1638.75 369.8 Z" stroke="none" fill="#000000"></path>
</g>
</g>
</g>
</g>
</g>
</svg>
