
<svg viewBox="0 0 112 184" height="184px" width="112px" y="0px" x="0px" preserveAspectRatio="none" xmlns:xlink="http://www.w3.org/1999/xlink" version="1.1" xmlns="http://www.w3.org/2000/svg">
<defs></defs>

<g id="fun_scrollers">
<g transform="matrix( 0.3621063232421875, 0, 0, 0.3621063232421875, -594.2,0.1)" id="svg"></g>

<g transform="matrix( 0.3621063232421875, 0, 0, 0.3621063232421875, -594.2,0.1)" id="Layer_2"></g>

<g transform="matrix( 0.3621063232421875, 0, 0, 0.3621063232421875, -594.2,0.1)" id="Layer_3"></g>

<g transform="matrix( 0.3621063232421875, 0, 0, 0.3621063232421875, -594.2,0.1)" id="Layer_2">
<g>
<g>
<g>
<path d="M 1862.45 105.55
Q 1853.35 109.7 1848.05 112.95 1840.5 117.6 1835.75 123.15 1831.75 128.85 1829.95 136.25 1828.45 142.35 1828.35 150.5
L 1828.1 199.5
Q 1828.15 210.85 1827.95 233.3
L 1827.85 251.6
Q 1827.75 268.15 1827.7 271 1827.55 282 1827.15 290.45 1826.6 300.25 1826.8 313.05 1827.05 336.95 1826.65 355.3 1826.05 385.05 1826.05 403.4
L 1826.05 422.8
Q 1826.05 431.6 1827.2 436.6 1829.75 443.45 1835.8 448.55 1839.45 450.35 1843.75 451.3 1847.15 451.95 1852 452.3
L 1918.25 453.35
Q 1930.1482421875 453.5630859375 1936.95 453.55
L 1936.95 445.9 1888.15 446.15
Q 1873.85 446.45 1866.65 446.4 1854.15 446.25 1845.3 444.4 1842.25 443.5 1840.65 442.3 1839 441.2 1837 438.6 1834.65 434.2 1833.65 430.85 1832.6 427.1 1832.55 422.5
L 1832.75 384.15
Q 1832.85 376 1832.85 371.95
L 1833.6 298.85
Q 1834.1 241.85 1834.6 220 1835.1 202.5 1835.1 189.9
L 1835.3 153.3
Q 1835.25 147.2 1835.45 144.7 1835.75 140.1 1837.05 136.35
L 1838.55 133.6
Q 1846.75 123.95 1850.1 121.35 1853.38515625 118.76171875 1864.9 113 1864.9478515625 112.976171875 1865 112.95
L 1868.3 111.35
Q 1867.05 111 1865.4 110.35
L 1865.1 108.2
Q 1865.1 108.1 1865.35 100.75
L 1864.8 100.75 1864.35 100.75 1864.35 105.55 1862.45 105.55 Z" stroke="none" fill="#706C84"></path>

<path d="M 1936.95 29.1
L 1936.95 21.6
Q 1936.6 21.5060546875 1936.25 21.4 1929.8 19.5 1921.85 19.3
L 1918.1 19.3
Q 1892.95 18.85 1870.15 21.2
L 1866.7 21.6
Q 1859.1 22.4 1854.7 23.2 1848 24.3 1842.9 26.15 1842.05 27.8 1841.95 28.95 1841.8 30.05 1841.85 35
L 1841.85 37.7
Q 1841.8 39.65 1841.75 43.6 1841.85 47 1843 49.25 1845.9 50.65 1846.7 50.95 1847.55 51.2 1849.65 51.5
L 1872.8 52
Q 1871.6 55.55 1871.05 59.55 1870.6 62.5 1870.3 67.25 1869.8 75.7 1869.5 78.7 1868.75 85.05 1867.1 89.85 1865.3248046875 94.9478515625 1864.8 100.75
L 1865.35 100.75
Q 1865.1 108.1 1865.1 108.2
L 1865.4 110.35
Q 1867.05 111 1868.3 111.35
L 1865 112.95
Q 1864.9478515625 112.976171875 1864.9 113 1865.1650390625 112.9087890625 1865.4 112.85 1869.05 111.6 1872.5 111.25
L 1882.8 111.5
Q 1887.75 111.6 1897.65 111.65 1906.8 111.6 1915.95 111.7
L 1936.95 111.75 1936.95 106.8 1871.2 106.9
Q 1871.9 99.9 1872.15 98.25 1872.45 96.45 1873.45 93.1 1875.3 86.8 1875.9 76.5 1876.75 63.65 1878.65 55.85
L 1881.55 52.95
Q 1883.65 52.7 1884.45 52.6 1885.3 52.55 1887.95 52.55
L 1936.95 52.4 1936.95 47.2 1882.45 48.2 1881.45 45.3 1848.75 44.5
Q 1846 38.4 1847.75 32 1892.01640625 18.480859375 1936.95 29.1 Z" stroke="none" fill="#7E1A34"></path>

<path d="M 1875.3 395.4
L 1870.25 395.4
Q 1863.8 395 1861.95 395.15 1857.5 395.35 1854.15 397.15 1852.7 400.1 1852.35 401.2 1852 402.3 1851.55 405.8 1851.9 409.35 1852.2 410.45 1852.55 411.5 1854.2 414.45 1857.95 416.3 1860.65 416.5 1863.35 416.7 1875.9 416.25
L 1883.75 416.05
Q 1894.05 416 1904.3 415.65 1916.1 415.25 1925.55 415.15 1931.700390625 415.048046875 1936.95 414.95
L 1936.95 396.75
Q 1928.9037109375 396.80390625 1918 396.4 1910 396.1 1902.2 396 1895.6 396.05 1888.85 395.8 1879.8 395.45 1875.3 395.4
M 1936.95 236.4
Q 1925.6734375 237.3029296875 1910.4 237.4
L 1901.8 237.45
Q 1900.5 237.45 1878.4 237.25 1861.2 237.05 1861 237.45 1858.75 249.05 1862.2 256.6 1866 258.7 1867.95 258.95 1869.9 259.25 1878 258.75 1879.9 258.55 1883.75 258.45 1892.05 258.3 1898.7 257.9 1903.85 257.65 1914.2 257.3 1928.85 256.9 1931.8 256.75
L 1936.95 256.5 1936.95 236.4 Z" stroke="none" fill="#9DAEEA"></path>

<path d="M 1936.95 188.15
Q 1935.92578125 188.7345703125 1934.85 189.5 1930.75 193 1929.65 194.4 1928.6 195.8 1926.4 200.6 1926.4 205.7 1928.35 210.2 1930.25 212.7 1931.1 213.25 1931.95 213.85 1935.1 214.95 1936.0396484375 215.0693359375 1936.95 215.15
L 1936.95 188.15 Z" stroke="none" fill="#F1F3F7"></path>

<path d="M 1927.15 185.85
L 1925.4 188.05
Q 1923.15 190.75 1922.3 192.7 1921.4 194.7 1921.1 198.05
L 1921.15 202.6
Q 1921.15 206 1921.2 207.05 1921.3 208.15 1921.65 211.15 1922.6 213.45 1923.2 214.45 1923.9 215.35 1926.95 218.65 1929.55 220.3 1932 220.85 1933.8337890625 221.2732421875 1936.95 221.3
L 1936.95 215.15
Q 1936.0396484375 215.0693359375 1935.1 214.95 1931.95 213.85 1931.1 213.25 1930.25 212.7 1928.35 210.2 1926.4 205.7 1926.4 200.6 1928.6 195.8 1929.65 194.4 1930.75 193 1934.85 189.5 1935.92578125 188.7345703125 1936.95 188.15
L 1936.95 180.45
Q 1931.4525390625 181.88984375 1927.15 185.85 Z" stroke="none" fill="#5D5A76"></path>

<path d="M 1850.6 164.3
Q 1850.65 165.05 1851.25 167.25
L 1855 168.85 1859.9 170.15
Q 1866.55 173.15 1870.5 174.5 1876.45 176.6 1881.65 177 1889.25 177.4 1897.45 180.15 1906.05 183.25 1910.6 183 1915.05 182.85 1933.45 178.7
L 1936.95 177.9 1936.95 161 1934.4 160.95
Q 1920.65 160.85 1906.85 160.95
L 1859.45 160.85
Q 1855.15 160.7 1851.2 161.45 1850.6 163.6 1850.6 164.3 Z" stroke="none" fill="#992A3F"></path>

<path d="M 1855 132.55
L 1853.95 132.55 1853 133.55 1853 133.6
Q 1852.65 134.9 1852.4 136.3 1851.85 139.05 1851.5 141.8 1851.35 143.15 1851.3 144.55 1851.2 146 1851.25 147.45 1851.25 148.8 1851.35 150.25 1851.4 151.7 1851.6 153.2 1851.8 154.65 1852.1 156.05 1852.2 156.45 1852.4 156.85 1852.5 157.1 1852.65 157.45 1852.7 157.6 1852.8 157.75 1852.85 157.8 1852.9 157.85 1853 157.95 1853.15 158.05 1853.3 158.15 1853.45 158.25 1853.7 158.4 1853.95 158.55 1854.15 158.7 1854.5 158.75 1855.2 159.1 1856.05 159.35
L 1890.75 159.2
Q 1896.15 159 1901.6 158.9 1904.25 158.85 1906.9 158.9 1909.5 158.9 1912.1 158.9 1914.9 158.9 1917.9 159.2 1919.6 159.15 1921.25 159.2 1922 159.2 1922.75 159.25 1923.4 159.25 1924.05 159.25 1925.15 159.2 1926.25 159.2 1927.85 159.2 1929.45 159.2 1930.9 159.1 1932.35 159.05 1933.7 159 1935.1 159 1936.025 158.9630859375 1936.95 158.9
L 1936.95 131.75 1866.05 131.4
Q 1865.3 131.4 1864.65 131.4 1864 131.4 1863.4 131.4 1862.85 131.4 1862.35 131.4 1861.85 131.4 1861.4 131.4 1861 131.45 1860.65 131.45 1860.3 131.45 1860.05 131.45 1859.8 131.45 1859.6 131.45 1859.4 131.45 1859.25 131.45 1858.4 131.6 1857.6 131.75 1856.75 131.95 1855.95 132.2 1855.451953125 132.3556640625 1855 132.55 Z" stroke="none" fill="#110F1A"></path>

<path d="M 1838.55 133.6
L 1837.05 136.35
Q 1835.75 140.1 1835.45 144.7 1835.25 147.2 1835.3 153.3
L 1835.1 189.9
Q 1835.1 202.5 1834.6 220 1834.1 241.85 1833.6 298.85
L 1832.85 371.95
Q 1832.85 376 1832.75 384.15
L 1832.55 422.5
Q 1832.6 427.1 1833.65 430.85 1834.65 434.2 1837 438.6 1839 441.2 1840.65 442.3 1842.25 443.5 1845.3 444.4 1854.15 446.25 1866.65 446.4 1873.85 446.45 1888.15 446.15
L 1936.95 445.9 1936.95 414.95
Q 1931.700390625 415.048046875 1925.55 415.15 1916.1 415.25 1904.3 415.65 1894.05 416 1883.75 416.05
L 1875.9 416.25
Q 1863.35 416.7 1860.65 416.5 1857.95 416.3 1854.2 414.45 1852.55 411.5 1852.2 410.45 1851.9 409.35 1851.55 405.8 1852 402.3 1852.35 401.2 1852.7 400.1 1854.15 397.15 1857.5 395.35 1861.95 395.15 1863.8 395 1870.25 395.4
L 1875.3 395.4
Q 1879.8 395.45 1888.85 395.8 1895.6 396.05 1902.2 396 1910 396.1 1918 396.4 1928.9037109375 396.80390625 1936.95 396.75
L 1936.95 256.5 1931.8 256.75
Q 1928.85 256.9 1914.2 257.3 1903.85 257.65 1898.7 257.9 1892.05 258.3 1883.75 258.45 1879.9 258.55 1878 258.75 1869.9 259.25 1867.95 258.95 1866 258.7 1862.2 256.6 1858.75 249.05 1861 237.45 1861.2 237.05 1878.4 237.25 1900.5 237.45 1901.8 237.45
L 1910.4 237.4
Q 1925.6734375 237.3029296875 1936.95 236.4
L 1936.95 221.3
Q 1933.8337890625 221.2732421875 1932 220.85 1929.55 220.3 1926.95 218.65 1923.9 215.35 1923.2 214.45 1922.6 213.45 1921.65 211.15 1921.3 208.15 1921.2 207.05 1921.15 206 1921.15 202.6
L 1921.1 198.05
Q 1921.4 194.7 1922.3 192.7 1923.15 190.75 1925.4 188.05
L 1927.15 185.85
Q 1931.4525390625 181.88984375 1936.95 180.45
L 1936.95 177.9 1933.45 178.7
Q 1915.05 182.85 1910.6 183 1906.05 183.25 1897.45 180.15 1889.25 177.4 1881.65 177 1876.45 176.6 1870.5 174.5 1866.55 173.15 1859.9 170.15
L 1855 168.85 1851.25 167.25
Q 1850.65 165.05 1850.6 164.3 1850.6 163.6 1851.2 161.45 1855.15 160.7 1859.45 160.85
L 1906.85 160.95
Q 1920.65 160.85 1934.4 160.95
L 1936.95 161 1936.95 158.9
Q 1936.025 158.9630859375 1935.1 159 1933.7 159 1932.35 159.05 1930.9 159.1 1929.45 159.2 1927.85 159.2 1926.25 159.2 1925.15 159.2 1924.05 159.25 1923.4 159.25 1922.75 159.25 1922 159.2 1921.25 159.2 1919.6 159.15 1917.9 159.2 1914.9 158.9 1912.1 158.9 1909.5 158.9 1906.9 158.9 1904.25 158.85 1901.6 158.9 1896.15 159 1890.75 159.2
L 1856.05 159.35
Q 1855.2 159.1 1854.5 158.75 1854.15 158.7 1853.95 158.55 1853.7 158.4 1853.45 158.25 1853.3 158.15 1853.15 158.05 1853 157.95 1852.9 157.85 1852.85 157.8 1852.8 157.75 1852.7 157.6 1852.65 157.45 1852.5 157.1 1852.4 156.85 1852.2 156.45 1852.1 156.05 1851.8 154.65 1851.6 153.2 1851.4 151.7 1851.35 150.25 1851.25 148.8 1851.25 147.45 1851.2 146 1851.3 144.55 1851.35 143.15 1851.5 141.8 1851.85 139.05 1852.4 136.3 1852.65 134.9 1853 133.6
L 1853 133.55 1853.95 132.55 1855 132.55
Q 1855.451953125 132.3556640625 1855.95 132.2 1856.75 131.95 1857.6 131.75 1858.4 131.6 1859.25 131.45 1859.4 131.45 1859.6 131.45 1859.8 131.45 1860.05 131.45 1860.3 131.45 1860.65 131.45 1861 131.45 1861.4 131.4 1861.85 131.4 1862.35 131.4 1862.85 131.4 1863.4 131.4 1864 131.4 1864.65 131.4 1865.3 131.4 1866.05 131.4
L 1936.95 131.75 1936.95 111.75 1915.95 111.7
Q 1906.8 111.6 1897.65 111.65 1887.75 111.6 1882.8 111.5
L 1872.5 111.25
Q 1869.05 111.6 1865.4 112.85 1865.1650390625 112.9087890625 1864.9 113 1853.38515625 118.76171875 1850.1 121.35 1846.75 123.95 1838.55 133.6 Z" stroke="none" fill="#F5F7F9"></path>

<path d="M 1887.95 52.55
Q 1885.3 52.55 1884.45 52.6 1883.65 52.7 1881.55 52.95
L 1878.65 55.85
Q 1876.75 63.65 1875.9 76.5 1875.3 86.8 1873.45 93.1 1872.45 96.45 1872.15 98.25 1871.9 99.9 1871.2 106.9
L 1936.95 106.8 1936.95 52.4 1887.95 52.55 Z" stroke="none" fill="#E21F2D"></path>

<path d="M 1936.95 47.2
L 1936.95 29.1
Q 1892.01640625 18.480859375 1847.75 32 1846 38.4 1848.75 44.5
L 1881.45 45.3 1882.45 48.2 1936.95 47.2 Z" stroke="none" fill="#DF202E"></path>
</g>
</g>
</g>
</g>

<g transform="matrix( 0.3621063232421875, 0, 0, 0.3621063232421875, -594.2,0.1)" id="Layer_3">
<g>
<g>
<g>
<path d="M 1936.35 467.45
Q 1935.55 469.5 1935.4 470.2 1935.2 471 1935.1 473.6
L 1935.05 483.65
Q 1935.05 486.1 1935.7 487.15 1936.327734375 487.1666015625 1936.95 487.2
L 1936.95 465.85
Q 1936.6619140625 466.6728515625 1936.35 467.45
M 1830.9 440.15
Q 1831.05 440.7 1830.6 441.4 1830.35 441.8 1829.8 442.55 1829.45 443.25 1829.4 444.35 1829.4 445 1829.45 446.25 1829.45 446.7 1829.05 449.35 1828.8 451.1 1828.9 455.45
L 1823.25 455.8
Q 1823.15 460.55 1823.35 462.95 1823.45 464.65 1823.7 466.05 1823.75 466.4 1824.3 468.25 1824.5 469.1 1824.85 469.45 1825.35 469.85 1826.5 469.85
L 1831.55 469.8
Q 1834.55 469.7 1835.7 469.3 1836.85 468.9 1837.15 468.25 1837.35 467.85 1837.35 466.95
L 1837.35 459.05
Q 1837.35 457.1 1836.75 456.25
L 1836.05 456.05
Q 1836.7 454.05 1836.55 452.15 1836.45 450.3 1836.75 449.7 1837.4 448.95 1837.65 448.5 1837.95 447.95 1837.95 446.7
L 1837.95 440.3 1830.9 440.15
M 1870.8 486.7
Q 1876.35 486.7 1879.1 486.3 1879.7 486.3 1879.9 486 1880.1 485.75 1880.1 485.3 1880.4 479.6 1879.75 476.85 1879.45 475.7 1878.95 475.4 1878.5 475.05 1877.45 475.05
L 1854.15 474.65 1861.55 458.3
Q 1862.85 455.55 1863.3 453.7 1864.05 450.9 1863.65 445.45
L 1856.65 445.35
Q 1856.5 447.2 1854.85 450.7 1850.25 460 1846.15 469.85 1845.25 472.35 1845.15 472.65 1844.7 474.15 1844.45 476.35 1843.8 481.3 1843.95 486.6
L 1870.8 486.7 Z" stroke="none" fill="#000000"></path>
</g>
</g>
</g>
</g>

<g transform="matrix( 0.3621063232421875, 0, 0, 0.3621063232421875, -594.2,0.1)" id="MergedLayer_3">
<g>
<g>
<g>
<path d="M 1859.85 365.4
Q 1860.05 366.2 1859.8 368.75 1859.65 370.9 1860.35 371.95 1860.6 372.4 1861.75 373.2 1863.95 374.9 1865.75 375.75 1865.55 376.2 1865.4 376.55 1863.85 380.55 1863.25 383.9 1862.45 388.2 1862.55 396.35
L 1862.7 412.9
Q 1862.75 415.95 1863 417.4 1863.3 419.85 1864.4 421.6 1865.95 424.2 1869.4 425.65 1871.95 426.75 1876 427.35 1881.55 428.15 1888.55 428.35 1892.75 428.5 1901.15 428.5 1907.45 428.5 1910.6 428.15 1913.3 427.75 1919.95 426.05
L 1936.95 421.55 1936.95 409.75
Q 1935.3791015625 410.3119140625 1933.95 410.55
L 1933.95 413.9 1921.9 417.2
Q 1916.95 418.6 1913.55 419.45 1913.7 419.35 1913.9 419.2 1918.85 416.15 1921.15 413.85 1923.05 411.9 1924.8 409.1 1925.95 407.3 1927.75 403.8 1929.5 400.55 1929.95 398.65 1930.35 396.85 1930.35 393.7 1930.35 387.8 1930.2 385.8 1930.05 383 1929.55 381.4 1928.6 378.15 1925.25 374.35 1925.2 374.25 1925.1 374.2 1925.3 373.05 1926.05 372.4 1926.75 371.95 1928.4 371.85 1932.525390625 371.681640625 1936.95 371.65
L 1936.95 329.5
Q 1931.333984375 330.0341796875 1926.05 330.85 1917.35 332.1 1911.8 334.25 1908.85 335.4 1903.25 338.35 1895.65 342.4 1890.5 345.15 1885.6 347.9 1882.85 349.8 1878.8 352.65 1876.15 355.65 1873.85 358.3 1871.75 362.25 1870.75 364 1869.35 367.25 1867.9 366.3 1866.95 365.95 1865.45 365.4 1863.45 365.3 1862.25 365.25 1859.85 365.4
M 1899.65 362.9
Q 1896.7 365.5 1891.2 367.6 1884.55 370.25 1879.45 370.6 1878.35 370.65 1877.4 370.65 1879.25 366.9 1881.05 364.5 1884.6 359.7 1890.85 355.5 1894.6 352.95 1902.55 348.65 1906.7 346.45 1909.6 345 1907.8 351.85 1903.75 358 1901.75 361.05 1899.65 362.9
M 1936.95 285.75
Q 1936.616796875 286.1029296875 1936.25 286.45 1932.6 290.1 1926.7 297.2 1925.8 298.25 1925.55 298.9 1925.4 299.45 1925.4 300.5
L 1925.4 307 1927.75 307.25
Q 1927.95 307.25 1928.1 307.4 1928.2 307.5 1928.15 307.65
L 1933.35 307.75
Q 1934.15 307.75 1934.55 307.6 1935.1 307.4 1935.65 306.65 1936.2 305.75 1936.5 305.35 1936.6458984375 305.187890625 1936.95 304.95
L 1936.95 285.75
M 1892.25 313.35
L 1892.2 306.3 1883.2 305.95
Q 1881.35 305.85 1880.5 306.1 1879.05 306.5 1877.6 308.05 1875.6 310.05 1873 314.55
L 1868.05 323.35
Q 1867.3 325.05 1866 326.7 1865.25 327.75 1865.05 328.35 1864.85 328.95 1864.85 330.3
L 1864.95 337.2
Q 1865.8 337.15 1868.55 337.3 1870.75 337.45 1872.05 337.1 1872.9 336.85 1874.2 336.2
L 1877.05 334.8
Q 1878.45 334.1 1878.95 333.65 1879.45 333.15 1880.25 331.55 1881.35 329.5 1883.9 326.6 1887.05 322.9 1888.1 321.05 1889.95 318.15 1890.25 317.75 1890.95 317 1891.3 316.6 1891.85 315.95 1892.05 315.35 1892.25 314.7 1892.25 313.35 Z" stroke="none" fill="#000000"></path>

<path d="M 1891.2 367.6
Q 1896.7 365.5 1899.65 362.9 1901.75 361.05 1903.75 358 1907.8 351.85 1909.6 345 1906.7 346.45 1902.55 348.65 1894.6 352.95 1890.85 355.5 1884.6 359.7 1881.05 364.5 1879.25 366.9 1877.4 370.65 1878.35 370.65 1879.45 370.6 1884.55 370.25 1891.2 367.6
M 1936.95 371.65
Q 1932.525390625 371.681640625 1928.4 371.85 1926.75 371.95 1926.05 372.4 1925.3 373.05 1925.1 374.2 1925.2 374.25 1925.25 374.35 1928.6 378.15 1929.55 381.4 1930.05 383 1930.2 385.8 1930.35 387.8 1930.35 393.7 1930.35 396.85 1929.95 398.65 1929.5 400.55 1927.75 403.8 1925.95 407.3 1924.8 409.1 1923.05 411.9 1921.15 413.85 1918.85 416.15 1913.9 419.2 1913.7 419.35 1913.55 419.45 1916.95 418.6 1921.9 417.2
L 1933.95 413.9 1933.95 410.55
Q 1935.3791015625 410.3119140625 1936.95 409.75
L 1936.95 371.65 Z" stroke="none" fill="#FFFFFF"></path>
</g>
</g>
</g>
</g>

<g transform="matrix( 0.3621063232421875, 0, 0, 0.3621063232421875, -594.2,0.1)" id="Layer_5">
<g>
<g>
<g>
<path d="M 1653.2 96.8
L 1652.55 96.8
Q 1653.4 101.45 1653.45 103.6 1653.6 107.15 1652.6 110.3 1648.25 111.5 1646.3 111.75
L 1646.3 112.2
Q 1648.0416015625 112.496484375 1649.8 113.15 1650.4287109375 113.378125 1651.05 113.65
L 1653.6 115.1
Q 1662.3 120.1 1667.45 126.85 1672.5 134.25 1674.85 143.2 1676.95 151.1 1677 161.05
L 1677.05 163.6
Q 1677.05 175.9 1676.1 197.75
L 1674.7 227.75
Q 1674.5 232.4 1673.9 236.25 1673.45 239.15 1673.15 242
L 1671.65 270.15
Q 1670.3 296.1 1669.8 327.3 1669.5 350.1 1669.5 384.5
L 1669.5 414.3
Q 1669.55 422.85 1669.1 427.1 1667.4 431 1666.55 432.15 1665.8 433.35 1662.75 436.4
L 1657.95 441.25 1656.2 444.75 1656.05 445.05
Q 1655.709375 445.11328125 1655.35 445.15 1650.5431640625 445.967578125 1641.85 446.2
L 1630.2 446.25 1630.2 453.85
Q 1643.1353515625 453.5267578125 1653.15 451.8 1659.35 450.2 1663.8 447 1667.65 444.3 1672.2 438.85 1676.05 432.25 1676.7 427.15 1677.3 422 1677 397.9
L 1676.75 379.2
Q 1676.45 344.55 1676.85 319.95 1677.35 287.95 1679.1 260.8 1680.45 240.45 1681.75 212.9
L 1683 187.55
Q 1684.1 167.6 1683.4 157.55 1682.25 141.05 1676.8 128.45 1673.55 122.25 1670.5 118.45 1666.55 113.45 1661.6 110.8 1657 108.5 1654.55 106.4 1654.3458984375 105.8603515625 1654.2 105.4 1653.80625 104.375 1653.7 103.95 1653.6 103.3 1653.5 101.3
L 1653.5 99.2 1653.55 96.8 1653.2 96.8 Z" stroke="none" fill="#706C84"></path>

<path d="M 1630.2 32.35
Q 1631.670703125 33.450390625 1633.9 35.05 1640.65 40.75 1641.55 45.65 1641.7 46.4 1641.8 47.25
L 1630.2 47.45 1630.2 52.75 1633.95 52.75
Q 1638.3 53.1 1641.9 54.9 1642.65 56.5 1642.9 58.15 1643 59 1643.1 61.6
L 1643.25 67.8
Q 1643.7 82 1646.3 95.45 1647.2 101.05 1646.9 104.9
L 1645.05 106.85
Q 1641.65 107.1 1636.95 107.15
L 1630.2 107.15 1630.2 112.15 1641.05 112.2
Q 1643.7 112.15 1644.55 112.2 1645.4 112.25 1647.85 112.6 1648.5 112.85 1649.15 113.15
L 1649.8 113.15
Q 1648.0416015625 112.496484375 1646.3 112.2
L 1646.3 111.75
Q 1648.25 111.5 1652.6 110.3 1653.6 107.15 1653.45 103.6 1653.4 101.45 1652.55 96.8
L 1653.2 96.8
Q 1652.95078125 95.1287109375 1652.6 93.55 1649.25 78.3 1649.35 58.15
L 1649.5 49.5
Q 1649.65 43.25 1648.55 39.15 1647.3 36.1 1645.45 33.9 1643.75 31.9 1640.85 29.8
L 1637.75 27.9
Q 1633.958984375 25.5517578125 1630.2 23.9
L 1630.2 32.35
M 1653.5 101.3
Q 1653.6 103.3 1653.7 103.95 1653.80625 104.375 1654.2 105.4
L 1653.85 103.3
Q 1653.7494140625 101.1865234375 1653.5 99.2
L 1653.5 101.3 Z" stroke="none" fill="#7E1A34"></path>

<path d="M 1661.7 405.65
Q 1661.75 401.65 1660.65 397.95 1657.35 396.45 1655.6 396.25 1653.85 396.15 1646.6 396.5
L 1630.6 397
Q 1630.4013671875 397.00625 1630.2 397
L 1630.2 415.2
Q 1639.4490234375 415.0185546875 1645.35 414.85
L 1648.85 414.75
Q 1653.65 414.7 1659.75 414.3
L 1660.7 413.35
Q 1661.6 408.75 1661.7 405.65
M 1656.15 246.9
Q 1655.3 240.3 1653.2 236.35
L 1651 235.85 1641.9 236.05
Q 1635.499609375 236.119921875 1630.2 236.4
L 1630.2 256.65
Q 1633.0494140625 256.55 1635.95 256.55
L 1636.95 258.5
Q 1648 259.95 1656.2 258.4
L 1657.45 256.05
Q 1657.4 253.8 1657.35 253 1657.25 252.25 1656.9 249.95
L 1656.15 246.9 Z" stroke="none" fill="#9DAEEA"></path>

<path d="M 1637.4 186.25
L 1633.5 186.2
Q 1631.705078125 186.310546875 1630.2 186.6
L 1630.2 215.75
Q 1632.51328125 215.750390625 1634.6 215.5 1640.45 214.85 1645.45 212.3 1647.25 209.8 1647.75 209 1648.2 208.15 1649.25 205.6
L 1650.2 204.65
Q 1650.55 200.3 1650.2 197.7 1649.65 194.55 1647.8 191.15 1646.25 188.55 1645.8 188 1645.4 187.35 1644.35 186.35 1640.85 186.25 1637.4 186.25 Z" stroke="none" fill="#F1F3F7"></path>

<path d="M 1636.9 179.6
Q 1633.0583984375 179.723828125 1630.2 180
L 1630.2 186.6
Q 1631.705078125 186.310546875 1633.5 186.2
L 1637.4 186.25
Q 1640.85 186.25 1644.35 186.35 1645.4 187.35 1645.8 188 1646.25 188.55 1647.8 191.15 1649.65 194.55 1650.2 197.7 1650.55 200.3 1650.2 204.65
L 1649.25 205.6
Q 1648.2 208.15 1647.75 209 1647.25 209.8 1645.45 212.3 1640.45 214.85 1634.6 215.5 1632.51328125 215.750390625 1630.2 215.75
L 1630.2 221.5
Q 1637.1390625 221.3134765625 1639.95 221.05 1646.7 220.25 1651.2 218.1
L 1652.15 214.25
Q 1654.35 211.25 1655 208.9 1655.45 207.05 1655.55 202.95
L 1655.55 200.1
Q 1655.7 193.75 1654.95 189.2 1653.95 186.25 1652.7 184.45 1651.3 182.35 1649.15 180.6 1645.4 179.45 1640.25 179.5
L 1636.9 179.6 Z" stroke="none" fill="#5D5A76"></path>

<path d="M 1654.6 162.3
Q 1652.0625 162.55 1651.25 162.55 1650.5 162.55 1648.45 162.4
L 1639.75 161.8
Q 1634.785546875 161.5080078125 1630.2 161.4
L 1630.2 177.1 1635.25 175.95
Q 1644.85 173.8 1653.3 173.4 1655.7 173.4 1656.35 173.35 1657.05 173.25 1658.75 172.85
L 1658.75 168.05 1660.65 168.05 1660.85 166.05 1660.8 162.3 1660.65 162.3 1654.85 162.3 1654.6 162.3 Z" stroke="none" fill="#992A3F"></path>

<path d="M 1653.85 158.45
Q 1652.75 158.4 1651.7 158.4 1650.55 158.4 1649.4 158.4 1648.15 158.4 1646.95 158.45 1645.65 158.45 1644.4 158.5 1639.05 158.75 1633.75 158.9 1632.95 158.95 1632.15 159.05 1631.15 159.05 1630.2 159.1
L 1630.2 161.4
Q 1634.785546875 161.5080078125 1639.75 161.8
L 1648.45 162.4
Q 1650.5 162.55 1651.25 162.55 1652.0625 162.55 1654.6 162.3
L 1654.85 162.3 1654.85 158.55
Q 1654.35 158.45 1653.85 158.45
M 1660.5 136.3
L 1660.8 143.5 1660.65 162.3 1660.8 162.3 1660.85 166.05 1660.65 168.05 1658.75 168.05 1658.75 172.85
Q 1657.05 173.25 1656.35 173.35 1655.7 173.4 1653.3 173.4 1644.85 173.8 1635.25 175.95
L 1630.2 177.1 1630.2 180
Q 1633.0583984375 179.723828125 1636.9 179.6
L 1640.25 179.5
Q 1645.4 179.45 1649.15 180.6 1651.3 182.35 1652.7 184.45 1653.95 186.25 1654.95 189.2 1655.7 193.75 1655.55 200.1
L 1655.55 202.95
Q 1655.45 207.05 1655 208.9 1654.35 211.25 1652.15 214.25
L 1651.2 218.1
Q 1646.7 220.25 1639.95 221.05 1637.1390625 221.3134765625 1630.2 221.5
L 1630.2 236.4
Q 1635.499609375 236.119921875 1641.9 236.05
L 1651 235.85 1653.2 236.35
Q 1655.3 240.3 1656.15 246.9
L 1656.9 249.95
Q 1657.25 252.25 1657.35 253 1657.4 253.8 1657.45 256.05
L 1656.2 258.4
Q 1648 259.95 1636.95 258.5
L 1635.95 256.55
Q 1633.0494140625 256.55 1630.2 256.65
L 1630.2 397
Q 1630.4013671875 397.00625 1630.6 397
L 1646.6 396.5
Q 1653.85 396.15 1655.6 396.25 1657.35 396.45 1660.65 397.95 1661.75 401.65 1661.7 405.65 1661.6 408.75 1660.7 413.35
L 1659.75 414.3
Q 1653.65 414.7 1648.85 414.75
L 1645.35 414.85
Q 1639.4490234375 415.0185546875 1630.2 415.2
L 1630.2 446.25 1641.85 446.2
Q 1650.5431640625 445.967578125 1655.35 445.15 1655.7859375 444.983203125 1656.2 444.75
L 1657.95 441.25 1662.75 436.4
Q 1665.8 433.35 1666.55 432.15 1667.4 431 1669.1 427.1 1669.55 422.85 1669.5 414.3
L 1669.5 384.5
Q 1669.5 350.1 1669.8 327.3 1670.3 296.1 1671.65 270.15
L 1673.15 242
Q 1673.45 239.15 1673.9 236.25 1674.5 232.4 1674.7 227.75
L 1676.1 197.75
Q 1677.05 175.9 1677.05 163.6
L 1677 161.05
Q 1676.95 151.1 1674.85 143.2 1672.5 134.25 1667.45 126.85 1662.3 120.1 1653.6 115.1
L 1651.05 113.65
Q 1650.4287109375 113.378125 1649.8 113.15
L 1649.15 113.15
Q 1648.5 112.85 1647.85 112.6 1645.4 112.25 1644.55 112.2 1643.7 112.15 1641.05 112.2
L 1630.2 112.15 1630.2 132.1 1644.2 132.2
Q 1645.25 132.2 1646.35 132.25 1647.35 132.3 1648.4 132.4 1649.35 132.5 1650.35 132.65 1651.2 132.7 1652.15 132.85 1653 133 1653.9 133.15 1654.75 133.3 1655.6 133.45 1656.35 133.65 1657.2 133.9 1657.85 134.15 1658.5 134.55 1659.55 135.35 1660.5 136.3 Z" stroke="none" fill="#F5F7F9"></path>

<path d="M 1660.8 143.5
L 1660.5 136.3
Q 1659.55 135.35 1658.5 134.55 1657.85 134.15 1657.2 133.9 1656.35 133.65 1655.6 133.45 1654.75 133.3 1653.9 133.15 1653 133 1652.15 132.85 1651.2 132.7 1650.35 132.65 1649.35 132.5 1648.4 132.4 1647.35 132.3 1646.35 132.25 1645.25 132.2 1644.2 132.2
L 1630.2 132.1 1630.2 159.1
Q 1631.15 159.05 1632.15 159.05 1632.95 158.95 1633.75 158.9 1639.05 158.75 1644.4 158.5 1645.65 158.45 1646.95 158.45 1648.15 158.4 1649.4 158.4 1650.55 158.4 1651.7 158.4 1652.75 158.4 1653.85 158.45 1654.35 158.45 1654.85 158.55
L 1654.85 162.3 1660.65 162.3 1660.8 143.5 Z" stroke="none" fill="#110F1A"></path>

<path d="M 1643.25 67.8
L 1643.1 61.6
Q 1643 59 1642.9 58.15 1642.65 56.5 1641.9 54.9 1638.3 53.1 1633.95 52.75
L 1630.2 52.75 1630.2 107.15 1636.95 107.15
Q 1641.65 107.1 1645.05 106.85
L 1646.9 104.9
Q 1647.2 101.05 1646.3 95.45 1643.7 82 1643.25 67.8 Z" stroke="none" fill="#E21F2D"></path>

<path d="M 1630.2 32.35
L 1630.2 47.45 1641.8 47.25
Q 1641.7 46.4 1641.55 45.65 1640.65 40.75 1633.9 35.05 1631.670703125 33.450390625 1630.2 32.35 Z" stroke="none" fill="#DF202E"></path>
</g>
</g>
</g>
</g>

<g transform="matrix( 0.3621063232421875, 0, 0, 0.3621063232421875, -594.2,0.1)" id="Layer_6">
<g>
<g>
<g>
<path d="M 1646.85 448.35
Q 1646.25 455.55 1645.9 466.8
L 1645.75 471.35
Q 1640.25 472.1 1636.75 472.2 1634.248046875 472.3390625 1630.2 472.3
L 1630.2 481.9 1648.35 481.95
Q 1650.95 481.95 1652.15 481.6 1652.55 479.1 1652.85 474
L 1653.35 463.15
Q 1653.8 454.1 1653.75 448.4
L 1646.85 448.35
M 1704 458.9
Q 1705.15 458.6 1705.6 458.1 1705.95 457.6 1705.95 456.45 1706.15 449.5 1705.55 445.7
L 1698.8 445.45
Q 1697.8 445.45 1697.25 445.1 1696.85 444.9 1696.15 443.7 1695.3 442.1 1693.6 439.8 1691.2 436.45 1690.9 436 1689.25 433.6 1686.55 428.5
L 1681.2 418.35
Q 1679.7 415.5 1680.05 413.85
L 1673.1 413.8
Q 1673.25 415 1673.1 418.5 1672.95 421.4 1673.4 423.1 1673.65 424.15 1674.95 426.65
L 1680.8 437.7
Q 1683.65 443.1 1685.75 445.45 1686.15 445.95 1686.05 446.25 1685.9 446.6 1685 446.65 1684.35 446.95 1684.35 448.25
L 1684.35 456.7
Q 1684.35 458.95 1685.2 459.75 1685.95 460.4 1687.6 460.5 1695.85 461.05 1704 458.9 Z" stroke="none" fill="#000000"></path>
</g>
</g>
</g>
</g>

<g transform="matrix( 0.3621063232421875, 0, 0, 0.3621063232421875, -594.2,0.1)" id="MergedLayer_1">
<g>
<g>
<g>
<path d="M 1632.9 195.25
Q 1630.8953125 196.2443359375 1630.4 197.55 1630.260546875 197.898828125 1630.2 198.35 1630.1078125 199.1015625 1630.2 200.1 1630.2203125 200.3572265625 1630.25 200.6 1630.36484375 201.5642578125 1630.35 202.25 1633.3529296875 202.3896484375 1636.45 202.5 1645.55 202.8 1649.9 203.65 1654.65 204.55 1656.4 206.9 1657.4 208.05 1658.2 210.9 1663 228.5 1663.95 251.3 1664.6 265.3 1663.8 292.45
L 1661.65 367.7
Q 1661.6 369.35 1661 370 1660.6 370.4 1659.15 370.75 1646.50390625 373.239453125 1630.2 374.2
L 1630.2 381.35
Q 1650.8416015625 380.5888671875 1665.9 377.6 1667.5 377.15 1667.9 376.65 1668.35 376.1 1668.4 374.8 1670.8 300.45 1671.4 268.6 1671.75 249.95 1671.1 239.7 1669.9 221.35 1665.15 203.8 1664.35 200.55 1663.05 199.25 1661.5 197.65 1657.7 196.85 1651.85 195.7 1639.8 195.45
L 1632.9 195.25 Z" stroke="none" fill="#6C6C87"></path>

<path d="M 1638.2 185
Q 1634.6939453125 183.9576171875 1630.2 183.6
L 1630.2 198.35
Q 1630.260546875 197.898828125 1630.4 197.55 1630.8953125 196.2443359375 1632.9 195.25 1633.1109375 195.1544921875 1633.35 195.05 1636.25 193.7 1637 192.95 1638.3 191.6 1638.5 189.25 1638.65 187.65 1638.2 185
M 1630.2 200.1
L 1630.2 203.35
Q 1630.3251953125 202.9123046875 1630.35 202.25 1630.36484375 201.5642578125 1630.25 200.6 1630.2203125 200.3572265625 1630.2 200.1 Z" stroke="none" fill="#7F7FA4"></path>

<path d="M 1658.2 210.9
Q 1657.4 208.05 1656.4 206.9 1654.65 204.55 1649.9 203.65 1645.55 202.8 1636.45 202.5 1633.3529296875 202.3896484375 1630.35 202.25 1630.3251953125 202.9123046875 1630.2 203.35
L 1630.2 374.2
Q 1646.50390625 373.239453125 1659.15 370.75 1660.6 370.4 1661 370 1661.6 369.35 1661.65 367.7
L 1663.8 292.45
Q 1664.6 265.3 1663.95 251.3 1663 228.5 1658.2 210.9 Z" stroke="none" fill="#DEDFE9"></path>
</g>
</g>
</g>
</g>

<g transform="matrix( 0.3621063232421875, 0, 0, 0.3621063232421875, -594.2,0.1)" id="Layer_2">
<g>
<g>
<g>
<path d="M 1630.2 350.9
L 1630.2 353.55
Q 1633.2365234375 353.4865234375 1636.75 353.85 1641.65 354.35 1643.35 352.05 1643.35 351.35 1643.3 351.35 1636.7533203125 351.0810546875 1630.2 350.9 Z" stroke="none" fill="#000000"></path>
</g>
</g>
</g>
</g>
</g>
</svg>
