
<svg viewBox="0 0 112 184" height="184px" width="112px" y="0px" x="0px" preserveAspectRatio="none" xmlns:xlink="http://www.w3.org/1999/xlink" version="1.1" xmlns="http://www.w3.org/2000/svg">
<defs></defs>

<g id="fun_scrollers">
<g transform="matrix( 0.3621063232421875, 0, 0, 0.3621063232421875, -594.2,0.1)" id="svg"></g>

<g transform="matrix( 0.3621063232421875, 0, 0, 0.3621063232421875, -594.2,0.1)" id="Layer_2"></g>

<g transform="matrix( 0.3621063232421875, 0, 0, 0.3621063232421875, -594.2,0.1)" id="Layer_3"></g>

<g transform="matrix( 0.3621063232421875, 0, 0, 0.3621063232421875, -594.2,0.1)" id="Layer_2">
<g>
<g>
<g>
<path d="M 1860.7 145
Q 1861 140.4 1862.3 136.65
L 1863.8 133.9
Q 1872 124.25 1875.35 121.65 1878.63515625 119.06171875 1890.15 113.3 1890.1978515625 113.276171875 1890.25 113.25
L 1893.55 111.65
Q 1892.3 111.3 1890.65 110.65
L 1890.35 108.5
Q 1890.35 108.4 1890.6 101.05
L 1890.05 101.05 1889.6 101.05 1889.6 105.85 1887.7 105.85
Q 1878.6 110 1873.3 113.25 1865.75 117.9 1861 123.45 1857 129.15 1855.2 136.55 1853.7 142.65 1853.6 150.8
L 1853.35 199.8
Q 1853.4 211.15 1853.2 233.6
L 1853.1 251.9
Q 1853 268.45 1852.95 271.3 1852.8 282.3 1852.4 290.75 1851.85 300.55 1852.05 313.35 1852.3 337.25 1851.9 355.6 1851.3 385.35 1851.3 403.7
L 1851.3 423.1
Q 1851.3 431.9 1852.45 436.9 1855 443.75 1861.05 448.85 1864.7 450.65 1869 451.6 1872.4 452.25 1877.25 452.6
L 1936.95 453.55 1936.95 446.35 1913.4 446.45
Q 1899.1 446.75 1891.9 446.7 1879.4 446.55 1870.55 444.7 1867.5 443.8 1865.9 442.6 1864.25 441.5 1862.25 438.9 1859.9 434.5 1858.9 431.15 1857.85 427.4 1857.8 422.8
L 1858 384.45
Q 1858.1 376.3 1858.1 372.25
L 1858.85 299.15
Q 1859.35 242.15 1859.85 220.3 1860.35 202.8 1860.35 190.2
L 1860.55 153.6
Q 1860.5 147.5 1860.7 145 Z" stroke="none" fill="#706C84"></path>

<path d="M 1936.95 25.35
L 1936.95 19.5
Q 1915.2814453125 19.45078125 1895.4 21.5
L 1891.95 21.9
Q 1884.35 22.7 1879.95 23.5 1873.25 24.6 1868.15 26.45 1867.3 28.1 1867.2 29.25 1867.05 30.35 1867.1 35.3
L 1867.1 38
Q 1867.05 39.95 1867 43.9 1867.1 47.3 1868.25 49.55 1871.15 50.95 1871.95 51.25 1872.8 51.5 1874.9 51.8
L 1898.05 52.3
Q 1896.85 55.85 1896.3 59.85 1895.85 62.8 1895.55 67.55 1895.05 76 1894.75 79 1894 85.35 1892.35 90.15 1890.5748046875 95.2478515625 1890.05 101.05
L 1890.6 101.05
Q 1890.35 108.4 1890.35 108.5
L 1890.65 110.65
Q 1892.3 111.3 1893.55 111.65
L 1890.25 113.25
Q 1890.1978515625 113.276171875 1890.15 113.3 1890.4150390625 113.2087890625 1890.65 113.15 1894.3 111.9 1897.75 111.55
L 1908.05 111.8
Q 1913 111.9 1922.9 111.95 1929.925 111.9115234375 1936.95 111.95
L 1936.95 107.15 1896.45 107.2
Q 1897.15 100.2 1897.4 98.55 1897.7 96.75 1898.7 93.4 1900.55 87.1 1901.15 76.8 1902 63.95 1903.9 56.15
L 1906.8 53.25
Q 1908.9 53 1909.7 52.9 1910.55 52.85 1913.2 52.85
L 1936.95 52.8 1936.95 47.95 1907.7 48.5 1906.7 45.6 1874 44.8
Q 1871.25 38.7 1873 32.3 1904.8029296875 22.5873046875 1936.95 25.35 Z" stroke="none" fill="#7E1A34"></path>

<path d="M 1900.55 395.7
L 1895.5 395.7
Q 1889.05 395.3 1887.2 395.45 1882.75 395.65 1879.4 397.45 1877.95 400.4 1877.6 401.5 1877.25 402.6 1876.8 406.1 1877.15 409.65 1877.45 410.75 1877.8 411.8 1879.45 414.75 1883.2 416.6 1885.9 416.8 1888.6 417 1901.15 416.55
L 1909 416.35
Q 1919.3 416.3 1929.55 415.95 1933.3734375 415.8203125 1936.95 415.7
L 1936.95 396.5
Q 1932.16328125 396.3603515625 1927.45 396.3 1920.85 396.35 1914.1 396.1 1905.05 395.75 1900.55 395.7
M 1936.95 237.7
Q 1936.30390625 237.6958984375 1935.65 237.7
L 1927.05 237.75
Q 1925.75 237.75 1903.65 237.55 1886.45 237.35 1886.25 237.75 1884 249.35 1887.45 256.9 1891.25 259 1893.2 259.25 1895.15 259.55 1903.25 259.05 1905.15 258.85 1909 258.75 1917.3 258.6 1923.95 258.2 1928.4578125 257.98125 1936.95 257.65
L 1936.95 237.7 Z" stroke="none" fill="#9DAEEA"></path>

<path d="M 1876.5 167.55
L 1880.25 169.15 1885.15 170.45
Q 1891.8 173.45 1895.75 174.8 1901.7 176.9 1906.9 177.3 1914.5 177.7 1922.7 180.45 1931.3 183.55 1935.85 183.3 1936.321484375 183.2841796875 1936.95 183.2
L 1936.95 161.2
Q 1934.52578125 161.232421875 1932.1 161.25
L 1884.7 161.15
Q 1880.4 161 1876.45 161.75 1875.85 163.9 1875.85 164.6 1875.9 165.35 1876.5 167.55 Z" stroke="none" fill="#992A3F"></path>

<path d="M 1880.25 132.85
L 1879.2 132.85 1878.25 133.85 1878.25 133.9
Q 1877.9 135.2 1877.65 136.6 1877.1 139.35 1876.75 142.1 1876.6 143.45 1876.55 144.85 1876.45 146.3 1876.5 147.75 1876.5 149.1 1876.6 150.55 1876.65 152 1876.85 153.5 1877.05 154.95 1877.35 156.35 1877.45 156.75 1877.65 157.15 1877.75 157.4 1877.9 157.75 1877.95 157.9 1878.05 158.05 1878.1 158.1 1878.15 158.15 1878.25 158.25 1878.4 158.35 1878.55 158.45 1878.7 158.55 1878.95 158.7 1879.2 158.85 1879.4 159 1879.75 159.05 1880.45 159.4 1881.3 159.65
L 1916 159.5
Q 1921.4 159.3 1926.85 159.2 1929.5 159.15 1932.15 159.2 1934.55 159.2 1936.95 159.2
L 1936.95 131.9 1891.3 131.7
Q 1890.55 131.7 1889.9 131.7 1889.25 131.7 1888.65 131.7 1888.1 131.7 1887.6 131.7 1887.1 131.7 1886.65 131.7 1886.25 131.75 1885.9 131.75 1885.55 131.75 1885.3 131.75 1885.05 131.75 1884.85 131.75 1884.65 131.75 1884.5 131.75 1883.65 131.9 1882.85 132.05 1882 132.25 1881.2 132.5 1880.701953125 132.6556640625 1880.25 132.85 Z" stroke="none" fill="#110F1A"></path>

<path d="M 1862.3 136.65
Q 1861 140.4 1860.7 145 1860.5 147.5 1860.55 153.6
L 1860.35 190.2
Q 1860.35 202.8 1859.85 220.3 1859.35 242.15 1858.85 299.15
L 1858.1 372.25
Q 1858.1 376.3 1858 384.45
L 1857.8 422.8
Q 1857.85 427.4 1858.9 431.15 1859.9 434.5 1862.25 438.9 1864.25 441.5 1865.9 442.6 1867.5 443.8 1870.55 444.7 1879.4 446.55 1891.9 446.7 1899.1 446.75 1913.4 446.45
L 1936.95 446.35 1936.95 415.7
Q 1933.3734375 415.8203125 1929.55 415.95 1919.3 416.3 1909 416.35
L 1901.15 416.55
Q 1888.6 417 1885.9 416.8 1883.2 416.6 1879.45 414.75 1877.8 411.8 1877.45 410.75 1877.15 409.65 1876.8 406.1 1877.25 402.6 1877.6 401.5 1877.95 400.4 1879.4 397.45 1882.75 395.65 1887.2 395.45 1889.05 395.3 1895.5 395.7
L 1900.55 395.7
Q 1905.05 395.75 1914.1 396.1 1920.85 396.35 1927.45 396.3 1932.16328125 396.3603515625 1936.95 396.5
L 1936.95 257.65
Q 1928.4578125 257.98125 1923.95 258.2 1917.3 258.6 1909 258.75 1905.15 258.85 1903.25 259.05 1895.15 259.55 1893.2 259.25 1891.25 259 1887.45 256.9 1884 249.35 1886.25 237.75 1886.45 237.35 1903.65 237.55 1925.75 237.75 1927.05 237.75
L 1935.65 237.7
Q 1936.30390625 237.6958984375 1936.95 237.7
L 1936.95 183.2
Q 1936.321484375 183.2841796875 1935.85 183.3 1931.3 183.55 1922.7 180.45 1914.5 177.7 1906.9 177.3 1901.7 176.9 1895.75 174.8 1891.8 173.45 1885.15 170.45
L 1880.25 169.15 1876.5 167.55
Q 1875.9 165.35 1875.85 164.6 1875.85 163.9 1876.45 161.75 1880.4 161 1884.7 161.15
L 1932.1 161.25
Q 1934.52578125 161.232421875 1936.95 161.2
L 1936.95 159.2
Q 1934.55 159.2 1932.15 159.2 1929.5 159.15 1926.85 159.2 1921.4 159.3 1916 159.5
L 1881.3 159.65
Q 1880.45 159.4 1879.75 159.05 1879.4 159 1879.2 158.85 1878.95 158.7 1878.7 158.55 1878.55 158.45 1878.4 158.35 1878.25 158.25 1878.15 158.15 1878.1 158.1 1878.05 158.05 1877.95 157.9 1877.9 157.75 1877.75 157.4 1877.65 157.15 1877.45 156.75 1877.35 156.35 1877.05 154.95 1876.85 153.5 1876.65 152 1876.6 150.55 1876.5 149.1 1876.5 147.75 1876.45 146.3 1876.55 144.85 1876.6 143.45 1876.75 142.1 1877.1 139.35 1877.65 136.6 1877.9 135.2 1878.25 133.9
L 1878.25 133.85 1879.2 132.85 1880.25 132.85
Q 1880.701953125 132.6556640625 1881.2 132.5 1882 132.25 1882.85 132.05 1883.65 131.9 1884.5 131.75 1884.65 131.75 1884.85 131.75 1885.05 131.75 1885.3 131.75 1885.55 131.75 1885.9 131.75 1886.25 131.75 1886.65 131.7 1887.1 131.7 1887.6 131.7 1888.1 131.7 1888.65 131.7 1889.25 131.7 1889.9 131.7 1890.55 131.7 1891.3 131.7
L 1936.95 131.9 1936.95 111.95
Q 1929.925 111.9115234375 1922.9 111.95 1913 111.9 1908.05 111.8
L 1897.75 111.55
Q 1894.3 111.9 1890.65 113.15 1890.4150390625 113.2087890625 1890.15 113.3 1878.63515625 119.06171875 1875.35 121.65 1872 124.25 1863.8 133.9
L 1862.3 136.65 Z" stroke="none" fill="#F5F7F9"></path>

<path d="M 1901.15 76.8
Q 1900.55 87.1 1898.7 93.4 1897.7 96.75 1897.4 98.55 1897.15 100.2 1896.45 107.2
L 1936.95 107.15 1936.95 52.8 1913.2 52.85
Q 1910.55 52.85 1909.7 52.9 1908.9 53 1906.8 53.25
L 1903.9 56.15
Q 1902 63.95 1901.15 76.8 Z" stroke="none" fill="#E21F2D"></path>

<path d="M 1936.95 47.95
L 1936.95 25.35
Q 1904.8029296875 22.5873046875 1873 32.3 1871.25 38.7 1874 44.8
L 1906.7 45.6 1907.7 48.5 1936.95 47.95 Z" stroke="none" fill="#DF202E"></path>
</g>
</g>
</g>
</g>

<g transform="matrix( 0.3621063232421875, 0, 0, 0.3621063232421875, -594.2,0.1)" id="Layer_3">
<g>
<g>
<g>
<path d="M 1863.2 447
L 1863.2 440.6 1856.15 440.45
Q 1856.3 441 1855.85 441.7 1855.6 442.1 1855.05 442.85 1854.7 443.55 1854.65 444.65 1854.65 445.3 1854.7 446.55 1854.7 447 1854.3 449.65 1854.05 451.4 1854.15 455.75
L 1848.5 456.1
Q 1848.4 460.85 1848.6 463.25 1848.7 464.95 1848.95 466.35 1849 466.7 1849.55 468.55 1849.75 469.4 1850.1 469.75 1850.6 470.15 1851.75 470.15
L 1856.8 470.1
Q 1859.8 470 1860.95 469.6 1862.1 469.2 1862.4 468.55 1862.6 468.15 1862.6 467.25
L 1862.6 459.35
Q 1862.6 457.4 1862 456.55
L 1861.3 456.35
Q 1861.95 454.35 1861.8 452.45 1861.7 450.6 1862 450 1862.65 449.25 1862.9 448.8 1863.2 448.25 1863.2 447
M 1886.8 458.6
Q 1888.1 455.85 1888.55 454 1889.3 451.2 1888.9 445.75
L 1881.9 445.65
Q 1881.75 447.5 1880.1 451 1875.5 460.3 1871.4 470.15 1870.5 472.65 1870.4 472.95 1869.95 474.45 1869.7 476.65 1869.05 481.6 1869.2 486.9
L 1896.05 487
Q 1901.6 487 1904.35 486.6 1904.95 486.6 1905.15 486.3 1905.35 486.05 1905.35 485.6 1905.65 479.9 1905 477.15 1904.7 476 1904.2 475.7 1903.75 475.35 1902.7 475.35
L 1879.4 474.95 1886.8 458.6 Z" stroke="none" fill="#000000"></path>
</g>
</g>
</g>
</g>

<g transform="matrix( 0.3621063232421875, 0, 0, 0.3621063232421875, -594.2,0.1)" id="MergedLayer_3">
<g>
<g>
<g>
<path d="M 1936.95 334.6
Q 1934.0060546875 335.749609375 1928.5 338.65 1920.9 342.7 1915.75 345.45 1910.85 348.2 1908.1 350.1 1904.05 352.95 1901.4 355.95 1899.1 358.6 1897 362.55 1896 364.3 1894.6 367.55 1893.15 366.6 1892.2 366.25 1890.7 365.7 1888.7 365.6 1887.5 365.55 1885.1 365.7 1885.3 366.5 1885.05 369.05 1884.9 371.2 1885.6 372.25 1885.85 372.7 1887 373.5 1889.2 375.2 1891 376.05 1890.8 376.5 1890.65 376.85 1889.1 380.85 1888.5 384.2 1887.7 388.5 1887.8 396.65
L 1887.95 413.2
Q 1888 416.25 1888.25 417.7 1888.55 420.15 1889.65 421.9 1891.2 424.5 1894.65 425.95 1897.2 427.05 1901.25 427.65 1906.8 428.45 1913.8 428.65 1918 428.8 1926.4 428.8 1932.7 428.8 1935.85 428.45 1936.3359375 428.3779296875 1936.95 428.25
L 1936.95 334.6
M 1929 358.3
Q 1927 361.35 1924.9 363.2 1921.95 365.8 1916.45 367.9 1909.8 370.55 1904.7 370.9 1903.6 370.95 1902.65 370.95 1904.5 367.2 1906.3 364.8 1909.85 360 1916.1 355.8 1919.85 353.25 1927.8 348.95 1931.95 346.75 1934.85 345.3 1933.05 352.15 1929 358.3
M 1908.45 306.25
Q 1906.6 306.15 1905.75 306.4 1904.3 306.8 1902.85 308.35 1900.85 310.35 1898.25 314.85
L 1893.3 323.65
Q 1892.55 325.35 1891.25 327 1890.5 328.05 1890.3 328.65 1890.1 329.25 1890.1 330.6
L 1890.2 337.5
Q 1891.05 337.45 1893.8 337.6 1896 337.75 1897.3 337.4 1898.15 337.15 1899.45 336.5
L 1902.3 335.1
Q 1903.7 334.4 1904.2 333.95 1904.7 333.45 1905.5 331.85 1906.6 329.8 1909.15 326.9 1912.3 323.2 1913.35 321.35 1915.2 318.45 1915.5 318.05 1916.2 317.3 1916.55 316.9 1917.1 316.25 1917.3 315.65 1917.5 315 1917.5 313.65
L 1917.45 306.6 1908.45 306.25 Z" stroke="none" fill="#000000"></path>

<path d="M 1924.9 363.2
Q 1927 361.35 1929 358.3 1933.05 352.15 1934.85 345.3 1931.95 346.75 1927.8 348.95 1919.85 353.25 1916.1 355.8 1909.85 360 1906.3 364.8 1904.5 367.2 1902.65 370.95 1903.6 370.95 1904.7 370.9 1909.8 370.55 1916.45 367.9 1921.95 365.8 1924.9 363.2 Z" stroke="none" fill="#FFFFFF"></path>
</g>
</g>
</g>
</g>

<g transform="matrix( 0.3621063232421875, 0, 0, 0.3621063232421875, -594.2,0.1)" id="Layer_5">
<g>
<g>
<g>
<path d="M 1678.45 97.1
L 1677.8 97.1
Q 1678.65 101.75 1678.7 103.9 1678.85 107.45 1677.85 110.6 1673.5 111.8 1671.55 112.05
L 1671.55 112.5
Q 1673.2916015625 112.796484375 1675.05 113.45 1675.6787109375 113.678125 1676.3 113.95
L 1678.85 115.4
Q 1687.55 120.4 1692.7 127.15 1697.75 134.55 1700.1 143.5 1702.2 151.4 1702.25 161.35
L 1702.3 163.9
Q 1702.3 176.2 1701.35 198.05
L 1699.95 228.05
Q 1699.75 232.7 1699.15 236.55 1698.7 239.45 1698.4 242.3
L 1696.9 270.45
Q 1695.55 296.4 1695.05 327.6 1694.75 350.4 1694.75 384.8
L 1694.75 414.6
Q 1694.8 423.15 1694.35 427.4 1692.65 431.3 1691.8 432.45 1691.05 433.65 1688 436.7
L 1683.2 441.55 1681.45 445.05 1681.3 445.35
Q 1680.959375 445.41328125 1680.6 445.45 1675.7931640625 446.267578125 1667.1 446.5
L 1630.2 446.65 1630.2 453.95 1631.7 454
Q 1648.45 454.3 1655.1 454.15 1668.25 453.85 1678.4 452.1 1684.6 450.5 1689.05 447.3 1692.9 444.6 1697.45 439.15 1701.3 432.55 1701.95 427.45 1702.55 422.3 1702.25 398.2
L 1702 379.5
Q 1701.7 344.85 1702.1 320.25 1702.6 288.25 1704.35 261.1 1705.7 240.75 1707 213.2
L 1708.25 187.85
Q 1709.35 167.9 1708.65 157.85 1707.5 141.35 1702.05 128.75 1698.8 122.55 1695.75 118.75 1691.8 113.75 1686.85 111.1 1682.25 108.8 1679.8 106.7 1679.5958984375 106.1603515625 1679.45 105.7 1679.05625 104.675 1678.95 104.25 1678.85 103.6 1678.75 101.6
L 1678.75 99.5 1678.8 97.1 1678.45 97.1 Z" stroke="none" fill="#706C84"></path>

<path d="M 1666.8 45.95
Q 1666.95 46.7 1667.05 47.55
L 1630.2 48.2 1630.2 53.1 1659.2 53.05
Q 1663.55 53.4 1667.15 55.2 1667.9 56.8 1668.15 58.45 1668.25 59.3 1668.35 61.9
L 1668.5 68.1
Q 1668.95 82.3 1671.55 95.75 1672.45 101.35 1672.15 105.2
L 1670.3 107.15
Q 1666.9 107.4 1662.2 107.45
L 1630.2 107.5 1630.2 112.35 1666.3 112.5
Q 1668.95 112.45 1669.8 112.5 1670.65 112.55 1673.1 112.9 1673.75 113.15 1674.4 113.45
L 1675.05 113.45
Q 1673.2916015625 112.796484375 1671.55 112.5
L 1671.55 112.05
Q 1673.5 111.8 1677.85 110.6 1678.85 107.45 1678.7 103.9 1678.65 101.75 1677.8 97.1
L 1678.45 97.1
Q 1678.20078125 95.4287109375 1677.85 93.85 1674.5 78.6 1674.6 58.45
L 1674.75 49.8
Q 1674.9 43.55 1673.8 39.45 1672.55 36.4 1670.7 34.2 1669 32.2 1666.1 30.1
L 1663 28.2
Q 1656.3 24.05 1649.7 22.05 1643.25 20.15 1635.3 19.95
L 1631.55 19.95
Q 1630.87421875 19.937890625 1630.2 19.9
L 1630.2 26.2
Q 1641.3791015625 27.4978515625 1652.6 30.3 1652.6 30.65 1659.15 35.35 1665.9 41.05 1666.8 45.95
M 1678.75 101.6
Q 1678.85 103.6 1678.95 104.25 1679.05625 104.675 1679.45 105.7
L 1679.1 103.6
Q 1678.9994140625 101.4865234375 1678.75 99.5
L 1678.75 101.6 Z" stroke="none" fill="#7E1A34"></path>

<path d="M 1685.9 398.25
Q 1682.6 396.75 1680.85 396.55 1679.1 396.45 1671.85 396.8
L 1655.85 397.3
Q 1646.3 397.6 1631.45 397.05 1630.82421875 397.0265625 1630.2 397
L 1630.2 415.95
Q 1634.82890625 415.844140625 1639 415.8 1660.1 415.45 1670.6 415.15
L 1674.1 415.05
Q 1678.9 415 1685 414.6
L 1685.95 413.65
Q 1686.85 409.05 1686.95 405.95 1687 401.95 1685.9 398.25
M 1676.25 236.15
L 1667.15 236.35
Q 1658 236.45 1651.1 237 1641.98515625 237.7529296875 1630.2 237.95
L 1630.2 257.85
Q 1642.56640625 257.5365234375 1645.25 257.4
L 1653.2 257.05
Q 1657.15 256.85 1661.2 256.85
L 1662.2 258.8
Q 1673.25 260.25 1681.45 258.7
L 1682.7 256.35
Q 1682.65 254.1 1682.6 253.3 1682.5 252.55 1682.15 250.25
L 1681.4 247.2
Q 1680.55 240.6 1678.45 236.65
L 1676.25 236.15 Z" stroke="none" fill="#9DAEEA"></path>

<path d="M 1650.6 161.65
L 1647.85 161.6
Q 1639.0353515625 161.5359375 1630.2 161.55
L 1630.2 182.8
Q 1636.184375 181.766796875 1646.9 179.35
L 1660.5 176.25
Q 1670.1 174.1 1678.55 173.7 1680.95 173.7 1681.6 173.65 1682.3 173.55 1684 173.15
L 1684 168.35 1685.9 168.35 1686.1 166.35 1686.05 162.6 1685.9 162.6 1680.1 162.6 1679.85 162.6
Q 1677.3125 162.85 1676.5 162.85 1675.75 162.85 1673.7 162.7
L 1665 162.1
Q 1657.35 161.65 1650.6 161.65 Z" stroke="none" fill="#992A3F"></path>

<path d="M 1647.85 161.6
L 1650.6 161.65
Q 1657.35 161.65 1665 162.1
L 1673.7 162.7
Q 1675.75 162.85 1676.5 162.85 1677.3125 162.85 1679.85 162.6
L 1680.1 162.6 1680.1 158.85
Q 1679.6 158.75 1679.1 158.75 1678 158.7 1676.95 158.7 1675.8 158.7 1674.65 158.7 1673.4 158.7 1672.2 158.75 1670.9 158.75 1669.65 158.8 1664.3 159.05 1659 159.2 1658.2 159.25 1657.4 159.35 1656.4 159.35 1655.45 159.4 1654.4 159.5 1653.35 159.55 1652.2 159.55 1651.05 159.55 1649.8 159.6 1648.55 159.65 1647.15 159.65 1645.8 159.7 1644.35 159.75 1642.9 159.85 1641.3 159.85 1639.7 159.85 1638.6 159.85 1637.5 159.9 1636.85 159.9 1636.2 159.9 1635.45 159.85 1634.7 159.85 1633.05 159.8 1631.35 159.85 1630.7712890625 159.7921875 1630.2 159.75
L 1630.2 161.55
Q 1639.0353515625 161.5359375 1647.85 161.6
M 1669.8 112.5
Q 1668.95 112.45 1666.3 112.5
L 1630.2 112.35 1630.2 132.3 1669.45 132.5
Q 1670.5 132.5 1671.6 132.55 1672.6 132.6 1673.65 132.7 1674.6 132.8 1675.6 132.95 1676.45 133 1677.4 133.15 1678.25 133.3 1679.15 133.45 1680 133.6 1680.85 133.75 1681.6 133.95 1682.45 134.2 1683.1 134.45 1683.75 134.85 1684.8 135.65 1685.75 136.6
L 1686.05 143.8 1685.9 162.6 1686.05 162.6 1686.1 166.35 1685.9 168.35 1684 168.35 1684 173.15
Q 1682.3 173.55 1681.6 173.65 1680.95 173.7 1678.55 173.7 1670.1 174.1 1660.5 176.25
L 1646.9 179.35
Q 1636.184375 181.766796875 1630.2 182.8
L 1630.2 237.95
Q 1641.98515625 237.7529296875 1651.1 237 1658 236.45 1667.15 236.35
L 1676.25 236.15 1678.45 236.65
Q 1680.55 240.6 1681.4 247.2
L 1682.15 250.25
Q 1682.5 252.55 1682.6 253.3 1682.65 254.1 1682.7 256.35
L 1681.45 258.7
Q 1673.25 260.25 1662.2 258.8
L 1661.2 256.85
Q 1657.15 256.85 1653.2 257.05
L 1645.25 257.4
Q 1642.56640625 257.5365234375 1630.2 257.85
L 1630.2 397
Q 1630.82421875 397.0265625 1631.45 397.05 1646.3 397.6 1655.85 397.3
L 1671.85 396.8
Q 1679.1 396.45 1680.85 396.55 1682.6 396.75 1685.9 398.25 1687 401.95 1686.95 405.95 1686.85 409.05 1685.95 413.65
L 1685 414.6
Q 1678.9 415 1674.1 415.05
L 1670.6 415.15
Q 1660.1 415.45 1639 415.8 1634.82890625 415.844140625 1630.2 415.95
L 1630.2 446.65 1667.1 446.5
Q 1675.7931640625 446.267578125 1680.6 445.45 1681.0359375 445.283203125 1681.45 445.05
L 1683.2 441.55 1688 436.7
Q 1691.05 433.65 1691.8 432.45 1692.65 431.3 1694.35 427.4 1694.8 423.15 1694.75 414.6
L 1694.75 384.8
Q 1694.75 350.4 1695.05 327.6 1695.55 296.4 1696.9 270.45
L 1698.4 242.3
Q 1698.7 239.45 1699.15 236.55 1699.75 232.7 1699.95 228.05
L 1701.35 198.05
Q 1702.3 176.2 1702.3 163.9
L 1702.25 161.35
Q 1702.2 151.4 1700.1 143.5 1697.75 134.55 1692.7 127.15 1687.55 120.4 1678.85 115.4
L 1676.3 113.95
Q 1675.6787109375 113.678125 1675.05 113.45
L 1674.4 113.45
Q 1673.75 113.15 1673.1 112.9 1670.65 112.55 1669.8 112.5
M 1635.75 193.35
Q 1636.6 191.4 1638.85 188.7
L 1640.6 186.5
Q 1645 182.45 1650.65 181.05 1654.4 180.15 1662.15 179.9
L 1665.5 179.8
Q 1670.65 179.75 1674.4 180.9 1676.55 182.65 1677.95 184.75 1679.2 186.55 1680.2 189.5 1680.95 194.05 1680.8 200.4
L 1680.8 203.25
Q 1680.7 207.35 1680.25 209.2 1679.6 211.55 1677.4 214.55
L 1676.45 218.4
Q 1671.95 220.55 1665.2 221.35 1662 221.65 1653.45 221.85
L 1650.8 221.95
Q 1647.4 221.95 1645.45 221.5 1643 220.95 1640.4 219.3 1637.35 216 1636.65 215.1 1636.05 214.1 1635.1 211.8 1634.75 208.8 1634.65 207.7 1634.6 206.65 1634.6 203.25
L 1634.55 198.7
Q 1634.85 195.35 1635.75 193.35 Z" stroke="none" fill="#F5F7F9"></path>

<path d="M 1673.65 132.7
Q 1672.6 132.6 1671.6 132.55 1670.5 132.5 1669.45 132.5
L 1630.2 132.3 1630.2 159.75
Q 1630.7712890625 159.7921875 1631.35 159.85 1633.05 159.8 1634.7 159.85 1635.45 159.85 1636.2 159.9 1636.85 159.9 1637.5 159.9 1638.6 159.85 1639.7 159.85 1641.3 159.85 1642.9 159.85 1644.35 159.75 1645.8 159.7 1647.15 159.65 1648.55 159.65 1649.8 159.6 1651.05 159.55 1652.2 159.55 1653.35 159.55 1654.4 159.5 1655.45 159.4 1656.4 159.35 1657.4 159.35 1658.2 159.25 1659 159.2 1664.3 159.05 1669.65 158.8 1670.9 158.75 1672.2 158.75 1673.4 158.7 1674.65 158.7 1675.8 158.7 1676.95 158.7 1678 158.7 1679.1 158.75 1679.6 158.75 1680.1 158.85
L 1680.1 162.6 1685.9 162.6 1686.05 143.8 1685.75 136.6
Q 1684.8 135.65 1683.75 134.85 1683.1 134.45 1682.45 134.2 1681.6 133.95 1680.85 133.75 1680 133.6 1679.15 133.45 1678.25 133.3 1677.4 133.15 1676.45 133 1675.6 132.95 1674.6 132.8 1673.65 132.7 Z" stroke="none" fill="#110F1A"></path>

<path d="M 1638.85 188.7
Q 1636.6 191.4 1635.75 193.35 1634.85 195.35 1634.55 198.7
L 1634.6 203.25
Q 1634.6 206.65 1634.65 207.7 1634.75 208.8 1635.1 211.8 1636.05 214.1 1636.65 215.1 1637.35 216 1640.4 219.3 1643 220.95 1645.45 221.5 1647.4 221.95 1650.8 221.95
L 1653.45 221.85
Q 1662 221.65 1665.2 221.35 1671.95 220.55 1676.45 218.4
L 1677.4 214.55
Q 1679.6 211.55 1680.25 209.2 1680.7 207.35 1680.8 203.25
L 1680.8 200.4
Q 1680.95 194.05 1680.2 189.5 1679.2 186.55 1677.95 184.75 1676.55 182.65 1674.4 180.9 1670.65 179.75 1665.5 179.8
L 1662.15 179.9
Q 1654.4 180.15 1650.65 181.05 1645 182.45 1640.6 186.5
L 1638.85 188.7
M 1653.2 187.5
Q 1655.5 186.7 1658.75 186.5
L 1662.65 186.55
Q 1666.1 186.55 1669.6 186.65 1670.65 187.65 1671.05 188.3 1671.5 188.85 1673.05 191.45 1674.9 194.85 1675.45 198 1675.8 200.6 1675.45 204.95
L 1674.5 205.9
Q 1673.45 208.45 1673 209.3 1672.5 210.1 1670.7 212.6 1665.7 215.15 1659.85 215.8 1654.85 216.4 1648.55 215.6 1645.4 214.5 1644.55 213.9 1643.7 213.35 1641.8 210.85 1639.85 206.35 1639.85 201.25 1642.05 196.45 1643.1 195.05 1644.2 193.65 1648.3 190.15 1650.9 188.3 1653.2 187.5 Z" stroke="none" fill="#5D5A76"></path>

<path d="M 1658.75 186.5
Q 1655.5 186.7 1653.2 187.5 1650.9 188.3 1648.3 190.15 1644.2 193.65 1643.1 195.05 1642.05 196.45 1639.85 201.25 1639.85 206.35 1641.8 210.85 1643.7 213.35 1644.55 213.9 1645.4 214.5 1648.55 215.6 1654.85 216.4 1659.85 215.8 1665.7 215.15 1670.7 212.6 1672.5 210.1 1673 209.3 1673.45 208.45 1674.5 205.9
L 1675.45 204.95
Q 1675.8 200.6 1675.45 198 1674.9 194.85 1673.05 191.45 1671.5 188.85 1671.05 188.3 1670.65 187.65 1669.6 186.65 1666.1 186.55 1662.65 186.55
L 1658.75 186.5 Z" stroke="none" fill="#F1F3F7"></path>

<path d="M 1659.2 53.05
L 1630.2 53.1 1630.2 107.5 1662.2 107.45
Q 1666.9 107.4 1670.3 107.15
L 1672.15 105.2
Q 1672.45 101.35 1671.55 95.75 1668.95 82.3 1668.5 68.1
L 1668.35 61.9
Q 1668.25 59.3 1668.15 58.45 1667.9 56.8 1667.15 55.2 1663.55 53.4 1659.2 53.05 Z" stroke="none" fill="#E21F2D"></path>

<path d="M 1667.05 47.55
Q 1666.95 46.7 1666.8 45.95 1665.9 41.05 1659.15 35.35 1652.6 30.65 1652.6 30.3 1641.3791015625 27.4978515625 1630.2 26.2
L 1630.2 48.2 1667.05 47.55 Z" stroke="none" fill="#DF202E"></path>
</g>
</g>
</g>
</g>

<g transform="matrix( 0.3621063232421875, 0, 0, 0.3621063232421875, -594.2,0.1)" id="Layer_6">
<g>
<g>
<g>
<path d="M 1654.8 472.6
Q 1649.35 472.55 1647.6 472.6 1645.05 472.6 1642.9 472.8 1641.6 472.9 1641.2 473.4 1640.8 473.9 1640.8 475
L 1640.85 480.45
Q 1640.85 481.2 1641.05 481.5 1641.45 482.15 1642.85 482.15
L 1673.6 482.25
Q 1676.2 482.25 1677.4 481.9 1677.8 479.4 1678.1 474.3
L 1678.6 463.45
Q 1679.05 454.4 1679 448.7
L 1672.1 448.65
Q 1671.5 455.85 1671.15 467.1
L 1671 471.65
Q 1665.5 472.4 1662 472.5 1659.3 472.65 1654.8 472.6
M 1722.5 445.4
Q 1722.1 445.2 1721.4 444 1720.55 442.4 1718.85 440.1 1716.45 436.75 1716.15 436.3 1714.5 433.9 1711.8 428.8
L 1706.45 418.65
Q 1704.95 415.8 1705.3 414.15
L 1698.35 414.1
Q 1698.5 415.3 1698.35 418.8 1698.2 421.7 1698.65 423.4 1698.9 424.45 1700.2 426.95
L 1706.05 438
Q 1708.9 443.4 1711 445.75 1711.4 446.25 1711.3 446.55 1711.15 446.9 1710.25 446.95 1709.6 447.25 1709.6 448.55
L 1709.6 457
Q 1709.6 459.25 1710.45 460.05 1711.2 460.7 1712.85 460.8 1721.1 461.35 1729.25 459.2 1730.4 458.9 1730.85 458.4 1731.2 457.9 1731.2 456.75 1731.4 449.8 1730.8 446
L 1724.05 445.75
Q 1723.05 445.75 1722.5 445.4 Z" stroke="none" fill="#000000"></path>
</g>
</g>
</g>
</g>

<g transform="matrix( 0.3621063232421875, 0, 0, 0.3621063232421875, -594.2,0.1)" id="MergedLayer_1">
<g>
<g>
<g>
<path d="M 1658.15 195.55
Q 1656.1453125 196.5443359375 1655.65 197.85 1655.25 198.85 1655.5 200.9 1655.61484375 201.8642578125 1655.6 202.55 1658.6029296875 202.6896484375 1661.7 202.8 1670.8 203.1 1675.15 203.95 1679.9 204.85 1681.65 207.2 1682.65 208.35 1683.45 211.2 1688.25 228.8 1689.2 251.6 1689.85 265.6 1689.05 292.75
L 1686.9 368
Q 1686.85 369.65 1686.25 370.3 1685.85 370.7 1684.4 371.05 1665.35 374.8 1638 375.1 1633.9693359375 375.0546875 1630.2 375
L 1630.2 381.8
Q 1635.6318359375 381.86953125 1641.6 381.95 1671.25 381.85 1691.15 377.9 1692.75 377.45 1693.15 376.95 1693.6 376.4 1693.65 375.1 1696.05 300.75 1696.65 268.9 1697 250.25 1696.35 240 1695.15 221.65 1690.4 204.1 1689.6 200.85 1688.3 199.55 1686.75 197.95 1682.95 197.15 1677.1 196 1665.05 195.75
L 1658.15 195.55 Z" stroke="none" fill="#6C6C87"></path>

<path d="M 1630.2 183.6
L 1630.2 190.8 1647.1 190.9
Q 1644.4 191.45 1642.4 192.65
L 1642.4 199.35 1630.2 199.35 1630.2 206.55 1649.05 206.55
Q 1654.3 206.55 1655.35 203.95 1655.56640625 203.436328125 1655.6 202.55 1655.61484375 201.8642578125 1655.5 200.9 1655.25 198.85 1655.65 197.85 1656.1453125 196.5443359375 1658.15 195.55 1658.3609375 195.4544921875 1658.6 195.35 1661.5 194 1662.25 193.25 1663.55 191.9 1663.75 189.55 1663.9 187.95 1663.45 185.3 1659.75 184.2 1654.95 183.85 1652.1 183.65 1646.3 183.65 1637.841015625 183.6017578125 1630.2 183.6 Z" stroke="none" fill="#7F7FA4"></path>

<path d="M 1675.15 203.95
Q 1670.8 203.1 1661.7 202.8 1658.6029296875 202.6896484375 1655.6 202.55 1655.56640625 203.436328125 1655.35 203.95 1654.3 206.55 1649.05 206.55
L 1630.2 206.55 1630.2 375
Q 1633.9693359375 375.0546875 1638 375.1 1665.35 374.8 1684.4 371.05 1685.85 370.7 1686.25 370.3 1686.85 369.65 1686.9 368
L 1689.05 292.75
Q 1689.85 265.6 1689.2 251.6 1688.25 228.8 1683.45 211.2 1682.65 208.35 1681.65 207.2 1679.9 204.85 1675.15 203.95
M 1647.1 190.9
L 1630.2 190.8 1630.2 199.35 1642.4 199.35 1642.4 192.65
Q 1644.4 191.45 1647.1 190.9 Z" stroke="none" fill="#DEDFE9"></path>
</g>
</g>
</g>
</g>

<g transform="matrix( 0.3621063232421875, 0, 0, 0.3621063232421875, -594.2,0.1)" id="Layer_2">
<g>
<g>
<g>
<path d="M 1630.2 350.8
L 1630.2 355
Q 1638.01875 354.7994140625 1645.9 354.65 1648.85 354.55 1651.7 354.15 1656.2 353.55 1662 354.15 1666.9 354.65 1668.6 352.35 1668.6 351.65 1668.55 351.65 1650.3 350.9 1632 350.8 1631.098046875 350.79375 1630.2 350.8
M 1640.8 258.6
Q 1640.8 257.9 1640.4 257.55 1640.05 257.15 1639.45 256.85 1636.05 255.2 1636.1 259.35 1636.2 262.8 1634.9 264.5 1634.65 273.15 1636.3 279.85 1637.9 286.35 1640.8 291.6 1642 292.6 1644.45 292.65 1644.8 292.65 1644.85 293.05 1645 297.2 1648.85 297.45 1651.2 297.2 1650 293.9 1649.4 292.1 1648.7 290.15 1647.5 286.3 1646.4 282.15 1645.7 279.35 1644.9 276.25 1642.65 267.7 1640.8 258.6 Z" stroke="none" fill="#000000"></path>
</g>
</g>
</g>
</g>
</g>
</svg>
