
<svg viewBox="0 0 272 172" height="172px" width="272px" y="0px" x="0px" preserveAspectRatio="none" xmlns:xlink="http://www.w3.org/1999/xlink" version="1.1" xmlns="http://www.w3.org/2000/svg">
<defs></defs>

<g id="Layer_2">
<g>
<g>
<g>
<path d="M 180.65 21
Q 180.65 20.85 180.65 20.7 180.65 20.55 180.55 20.5 180.25 20.25 180 19.9 179.9 19.75 179.7 19.6 170.1 20.65 161 23.4 160.95 23.1 160.8 22.9 160.75 22.7 160.55 22.55 160.55 22.4 160.55 22.25 160.35 21.8 160.2 21.3 160.15 21.2 160.15 21.05 159.95 20.7 159.8 20.4 159.75 20.25 159.75 20.1 159.75 19.95 159.75 19.8 159.95 18.05 159.6 16.35 159.4 15.45 158.95 14.55 158.95 14.25 158.95 13.95 158.95 13.8 158.95 13.65 158.9 13.5 158.8 13.4 158.45 12.95 158.5 12.4 158.55 12.25 158.55 12.1 158.5 11.95 158.4 11.85 158.25 11.65 158.1 11.5 158.05 11.2 157.95 10.9 157.85 10.75 157.7 10.6 156.4 10.55 155.05 10.55 154.9 10.6 154.75 10.7 154.2 11.1 153.7 11.6 153.5 11.75 153.3 11.9 151.591015625 12.6080078125 149.9 13.35 144.6642578125 15.6912109375 139.6 18.45 139.05 18.5 138.55 18.45 138.5 18.45 138.45 18.35 138.15 17.35 137.25 16.8 137.05 16.65 136.9 16.5 136.85 16.35 136.8 16.2 136.75 16.05 136.7 15.9 136.3 15.6 135.9 15.25 135.75 15.15 135.6 15 134.9 13.8 134.35 12.55 134.1 11.85 133.55 11.3 133.55 11.15 133.5 11 132.95 9.7 132 8.55 131.55 8 131.4 7.3 131.1 7.2 130.8 7.05 130.75 7.05 130.65 7 130.55 6.9 130.5 6.8 130.35 6.65 130.25 6.5 129.15 6.45 128 6.4 125.5 8.05 123.3 10.45 118.5 15.7 114.6 21.35 114.1 20.95 113.5 20.6 107.35 16.9 101.7 12.3 101.15 12.15 100.6 11.95 100.4 11.9 100.25 11.8 99.2 11.75 98.1 11.8 98 11.8 97.9 11.9 97.95 12.45 97.65 12.85 97.55 13 97.5 13.15 97.5 13.45 97.5 13.75 97.25 17.9 97.2 22.05 97.1 27.25 97.1 32.5 91.85 32.15 86.8 30.5 83.539453125 29.4580078125 80.55 29.45 79.0927734375 29.454296875 77.7 29.7 77.15 29.65 76.65 29.65 76.65 29.8 76.65 29.95 76.4 30 76.2 30.05 76.4 30.45 76.55 30.9 76.35 33.65 76.35 36.45 76.35 39.125 76.35 41.8 76.35 45.675 76.35 49.55 74.4 49.95 72.45 50.25 67.4 51 64.3 53.3 64.75 54.25 65.35 55.05 65.05 55.9 64.8 56.8 64.35 58.2 64.85 59.5 64.95 61.9 65.25 64.25 65.6 66.4 65.65 68.6 65.25 68.65 64.85 68.7 62.6 69.35 60.25 70.1 60.15 70.15 60 70.2 59.95 70.25 59.95 70.35 59.25 70.4 58.6 70.5 59.2 70.5 59.85 70.55 59.8 70.55 59.75 70.6 59.65 70.7 59.6 70.8 59.6 70.9 59.6 71 59.6 71.1 59.6 71.2 59.6 71.3 59.6 71.4 59.6 71.45 59.6 71.5 59.55 71.5 59.45 71.55 59.4 71.55 59.4 71.7 59.4 71.85 59.4 72 59.4 72.5 59.4 72.95 59.4 73.1 59.4 73.25 59.9 73.6 59.85 74.15 59.8 74.3 59.8 74.5 60.05 74.8 60.3 75.1 60.45 75.25 60.55 75.4 60.6 75.55 60.6 75.7 60.6 76.25 60.9 76.65 60.85 78.2 60.75 79.7 60.65 81.9 61.3 83.9 61.5 85.5 61.45 87.1 61.4 88.25 61.95 89.3 62 91.3 62.5 93.25 63.15 95.5 62.95 97.9 63 98 63.1 98.15 63.15 98.25 63.15 98.4 63.15 98.65 63.15 98.9 63 99.95 63.5 100.85 63.55 100.95 63.6 101.1 63.6 101.2 63.6 101.35 63.6 102.2 63.7 103.05 63.7 103.2 63.85 103.3 63.85 103.45 63.85 103.55 63.85 103.9 63.85 104.3 63.85 104.4 63.85 104.55 64 104.8 64.15 105.05 64.2 105.15 64.25 105.25 64.25 105.4 64.25 105.5 64.25 106 64.25 106.5 64.25 106.6 64.25 106.75 64.4 107 64.6 107.2 64.7 107.35 64.8 107.5 64.85 107.6 64.9 107.75 65.15 108.4 65.45 108.95 65.5 109.1 65.55 109.2 66.6 110.2 67.35 111.4 68.35 112.95 69.4 114.35 70.25 115 71 115.8 71.3 116.1 71.7 116.35 71.9 116.7 72.15 117.05 72.25 117.2 72.35 117.3 73.3 117.8 74.15 118.55 74.5 118.85 74.9 119.1 75.05 119.35 75.2 119.6 75.3 119.75 75.4 119.85 75.7 119.95 76.05 120.05 76.1 120.05 76.1 120.1 76.45 121.05 77.2 121.75 78.25 122.75 79.65 123.3 79.7 123.4 79.75 123.55 79.8 123.65 79.9 123.8 80.15 123.9 80.4 124 80.4728515625 124.04375 80.55 124.1 80.7373046875 124.19375 80.95 124.3 81.05 124.4 81.1 124.55 81.15 124.65 81.2 124.75 81.95 125.15 82.55 125.65 83.8 126.75 85.2 127.7 86.15 127.55 86.3 128.1 86.35 128.25 86.45 128.35 87.5 128.8 88.55 129.25 88.9 129.4 89.2 129.5 92.65 131.9 96.6 133.3 96.7 133.4 96.85 133.5 97 133.65 97.15 133.8 103.077734375 136.062890625 109.15 137.7 118.2583984375 140.1509765625 127.7 141.2 139.0265625 142.451171875 149.9 141.25 158.7236328125 140.28203125 167.25 137.7 172.148828125 136.2166015625 176.95 134.2 177.1 134.05 177.3 133.95 177.4 133.8 177.55 133.7 192 129.2 201.45 117.7 201.95 117.5 202.4 117.15 202.5 117.1 202.5 117 202.55 116.85 202.65 116.75 203.3 115.95 203.65 115 203.7 114.9 203.75 114.75 204.9 114.1 205.4 112.8 205.5 112.55 205.65 112.3 205.9 112.05 206.2 111.8 206.3 111.7 206.35 111.6 206.4 111.35 206.45 111.1 206.45 110.95 206.45 110.85 207.3 109.8 207.9 108.65 208.35 107.75 208.9 106.9 208.95 106.8 208.95 106.65 209 106.55 209 106.4 210 105.45 210.25 104.2 210.3 103.95 210.3 103.7 210.6 103.35 210.85 102.95 210.9 102.85 210.95 102.75 210.95 102.5 210.95 102.25 210.95 102.1 210.95 102 211.4 101.55 211.6 101 211.65 100.9 211.7 100.75 211.7 100.65 211.7 100.5 211.7 100.15 211.7 99.8 211.7 99.65 211.7 99.55 211.8 99.4 211.85 99.3 211.9 99.15 211.95 99.05 211.95 98.9 211.95 98.8 211.95 98.45 211.95 98.05 211.95 97.95 211.95 97.8 212.1 97.55 212.25 97.3 212.3 97.2 212.35 97.1 212.35 96.95 212.35 96.85 212.35 96.2 212.35 95.6 212.35 95.5 212.35 95.35 212.45 95.25 212.5 95.1 212.55 95 212.6 94.85 212.6 93.25 212.6 91.65 212.6 90.3 212.6 88.95 213.3 85.75 213.1 82.35 212.75 76.05 212.35 69.8 212.35 69.7 212.35 69.65 212.25 69.65 212.2 69.65 212.2 68.35 212.2 67 209.35 66.6 206.55 66.2 206.55 64.3 206.55 62.4 206.55 59.75 206.55 57.15 206.9 56.8 207.25 56.45 204.7 53.35 200.75 51.65 199.85 51.25 198.95 50.9 198.95 49.45 199 48 199.05 46.85 198.65 45.85 198.65 44.15 198.75 42.5 198.7654296875 42.1453125 198.75 41.8 198.6765625 41.026171875 198.4 40.3 198.5 39.25 198.2 38.3 198.4 37.95 198.55 37.6 198.6 37.45 198.65 37.3 198.65 37 198.65 36.7 198.65 36.1 198.65 35.45 198.6 35.3 198.55 35.15 198.2 35.05 197.85 34.95 197.85 34.9 197.8 34.9 197.7 34.75 197.55 34.6 197.45 34.5 197.35 34.35 196.4 34.05 195.5 33.7 195.25 33.6 195 33.5 188 33.25 181.05 33 181.05 30.25 181.05 27.5 181.05 24.85 181.05 22.25 181 22.1 180.9 22 180.6 21.55 180.65 21
M 178.65 21.75
Q 178.6 21.9 178.6 22.05 179.3 24.85 179.15 27.9 179 30.8 179 33.7 186.05 34 193.15 34.25 194.15 34.8 195.3 35
L 195.3 35.05
Q 195.35 35.1 195.45 35.2 195.15 35.15 194.85 35.15 195.05 36.75 195.7 38.3 195.55 38.4 195.4 38.55 195.35 39 195.25 39.45 195.25 39.6 195.2 39.75 194.4615234375 40.7837890625 193.75 41.8 193.241015625 42.504296875 192.75 43.2 190.9 45.8 189.25 48.05 196.95 51.25 204.6 56.25 203.85 56.6 203.3 56.9 201.2 58.05 198.75 58.5 197.8 59.2 196.65 59.55 195.3 60 194.35 61.05 193.95 61.15 193.55 61.25 192.85 61.8 192.25 62.45 192.15 62.55 192.1 62.7 191.6 62.8 191.1 62.95 191.05 62.95 191 63 190.9 63.1 190.8 63.2 190.15 63.75 189.7 64.5 189.65 64.6 189.65 64.75 199.9 66.1 210.15 67.7 210.15 67.85 210.15 68.05 210.15 69.7 210.15 71.4 210.15 72.35 210.15 73.25 208.95 76.25 208.25 79.35 207.25 83.55 205.45 87.4 205.3 89.2 204.35 90.75 203.7 91.9 203.5 93.2 202.55 94.4 201.85 95.7 201.6 96.15 201.35 96.6 200 97.65 199 99.05 198 100.55 196.8 101.8 195.85 102.2 195.3 103.05 195.2 103.2 195.1 103.35 185.05 111.5 173 115.95 164.3 119.15 155.2 119.95 152.5416015625 120.171875 149.9 120.3 119.209375 121.660546875 90.85 109 85.23515625 106.5021484375 80.55 103.05 74.2626953125 98.3890625 69.65 92 69.65 91.85 69.6 91.7 69.6 91.55 69.55 91.35 68.45 90.35 67.8 88.95 67.35 87.95 66.45 87.4 66.4 87.05 66.4 86.75 66.35 86.6 66.35 86.45 65.25 84.55 64.65 82.45 64.05 80.5 63.1 78.8 63.1 78.45 63.1 78.15 63.1 77.4 63.1 76.65 63.1 76.45 63.1 76.3 63.05 76.15 63 76 62.95 75.8 62.85 75.65 62.85 75.5 62.85 75.35 62.75 75.25 62.7 75.1 62.65 75 62.6 74.9 62.6 74.65 62.6 74.4 62.6 73.55 62.6 72.65 62.6 72.55 62.6 72.4
L 62.6 72.3
Q 62.2 72.25 61.85 72.25 61.85 72.15 61.85 72.05 61.85 71.85 61.8 71.65 61.8 71.45 61.85 71.25 61.85 71.15 61.9 71.05 62.5 70.75 63.1 70.55 67.55 70.5 72.4 70.15 76.55 69.8 79.05 68.15 78 65.9 76.45 63.85 72.5 58.85 67.75 54.75 67.9 54.25 67.85 53.75
L 67.85 53.65
Q 67.35 53.55 66.85 53.55 66.8 53.45 66.7 53.35 66.55 53.25 66.45 53.1 73.9017578125 51.8400390625 80.55 49.7 83.1357421875 48.9021484375 85.6 47.95 85.6 47.8 85.6 47.65 85.6 47.2 85.6 46.75 85.55 46.55 85.5 46.4 84.0744140625 44.20390625 83 41.8 82.6869140625 41.084375 82.4 40.35 81.446484375 37.797265625 80.55 35.2 79.9888671875 33.6166015625 79.45 32 79.2 31.7 78.95 31.35 78.85 31.2 78.75 31.05 78.7 30.75 78.6 30.45
L 78.6 30.4
Q 78.6 30.3 78.6 30.2 79.5765625 30.45703125 80.55 30.7 89.99375 32.9734375 99.15 33.2 99.15 32.9 99.15 32.6 99.15 28.45 99.1 24.3 99.05 18.6 99.85 13.25 100.6 13.75 101.35 14.25 103.5 15.75 105.7 17.15 106.2 17.8 106.85 18.3 110.05 20.45 113.25 22.45 115.05 22.3 116.85 22.15 118.1 19.9 119.65 17.85 123.65 12.55 128.5 8 128.95 7.95 129.35 8 129.4 8 129.45 8.1 129.5 8.3 129.55 8.4 130.1 9.6 130.95 10.6 131.2 10.9 131.4 11.2 131.45 11.35 131.45 11.5 131.5 11.65 131.5 11.8 132.45 12.9 132.9 14.25 133.15 14.9 133.45 15.5 134.15 16.05 134.7 16.8 134.75 16.9 134.75 17.05 135.75 17.8 136.35 18.9 136.4 19.05 136.4 19.2 136.75 19.3 137.1 19.4 137.2 19.45 137.25 19.5 137.3 19.6 137.35 19.7 137.5 19.85 137.65 20 138.85 20.05 140.1 20.05
L 140.1 20
Q 144.9904296875 17.1703125 149.9 14.85 152.9712890625 13.4314453125 156.05 12.2 156.55 12.55 156.5 13.15 156.5 13.3 156.5 13.45 156.6 13.6 156.7 13.75 156.8 13.9 156.9 14.05 156.9 14.5 156.9 15 156.9 15.15 156.9 15.3 157.05 15.6 157.1 15.9 157.25 16.85 157.55 17.75 157.6 17.9 157.7 18.05 157.7 18.5 157.7 19 157.7 19.75 157.7 20.5 157.7 20.65 157.7 20.8 157.9 21.3 158.05 21.75 158.1 21.9 158.1 22.05 158.2 22.2 158.3 22.35 158.6 23.3 159.05 24.2 159.15 24.35 159.25 24.5 168.85 22.7 178.2 20.8 178.8 21.1 178.65 21.75
M 191.7 47.75
Q 191.75 47.6 191.85 47.5 192.1 47.3 192.4 47.15 193.65 45.7 194.65 44.1 195.398046875 42.9189453125 196.2 41.8 196.4267578125 41.49765625 196.65 41.2 196.7 41.3 196.7 41.45 196.7 41.624609375 196.7 41.8 196.7 43.1802734375 196.7 44.6 196.7 45.45 196.7 46.35 197.15 47.95 197 49.7 197 49.85 197 50.05 194.05 48.8 191.7 47.75
M 196.2 61.85
Q 196.3 61.85 196.4 61.8 196.85 61.3 197.3 60.9 197.45 60.8 197.55 60.65 198.65 60.15 199.8 59.8 199.9 59.8 200 59.75 200.15 59.65 200.3 59.5 200.45 59.35 200.6 59.2 201.4 59.05 202.15 58.95 203.45 58.75 204.55 58.3 204.55 59.55 204.55 60.75 204.55 63.35 204.55 65.9 198.45 65 192.65 64.05 193.4 63.8 194.1 63.45 194.15 63.4 194.15 63.3 194.35 62.65 195.05 62.35 195.25 62.25 195.4 62.1 195.8 62 196.2 61.85
M 209.85 82.1
Q 210.3 80.2 210.85 78.3 211.25 80.9 211.1 83.55 210.65 88.95 210.65 94.35 210.55 94.5 210.5 94.65 210.4 94.75 210.4 94.85 210.4 95 210.4 95.1 210.4 95.75 210.35 96.35 210.35 96.45 210.3 96.6 210.2 96.7 210.15 96.85 210.05 96.95 209.95 97.1 209.95 98.45 209.7 99.8 209.55 100.7 209 101.5 209 101.75 209 102 209 102.1 209 102.25 208.75 102.5 208.5 102.75 208.4 102.85 208.35 103 208.35 103.35 208.35 103.7 208.35 103.85 208.35 103.95 207.85 104.75 207.3 105.45 207.2 105.55 207.1 105.7 207.05 105.8 207.05 105.95 207 106.05 207 106.15 206.2 107.15 205.65 108.35 205.2 109.35 204.5 110.1 204.55 110.5 204.4 110.85 204.35 110.95 204.3 111.1 203.45 111.75 202.95 112.75 202.5 113.65 201.7 114.3 201.65 114.4 201.6 114.5 201.15 115.4 200.65 116.25 200.55 116.35 200.45 116.5 200 116.75 199.6 117 199.45 117.1 199.3 117.25 189.55 128.7 175 133.55 168.724609375 136.003515625 162.25 137.7 161.8857421875 137.8013671875 161.5 137.9 160.25 138.2 159.1 138.4 154.475 139.2927734375 149.9 139.8 131.803515625 141.7916015625 114.5 137.7 106.28359375 135.7595703125 98.25 132.45 94.45 131.2 91.2 128.85 90 128.35 88.85 127.9 88.6 127.85 88.4 127.7 88.3 127.6 88.25 127.5 88.1 127.35 88 127.2 87.6 127.15 87.2 127.05 87.1 127 87 127 86.3 126.3 85.45 125.7 84.3 124.9 83.15 124.1 83.1 124 83.05 123.85 83 123.75 82.9 123.6 82.65 123.5 82.35 123.35 82.1 123.25 81.85 123.15 81.75 122.9 81.55 122.65 81.45 122.5 81.3 122.4 80.8931640625 122.2697265625 80.55 122.05 79.8384765625 121.6419921875 79.4 120.9 79.3 120.8 79.25 120.65 78.5 120.35 78.1 119.6 78 119.5 77.9 119.35 77.6 119.25 77.25 119.1 77.2 119 77.1 118.85 77.05 118.75 77 118.6 76.15 118.05 75.4 117.35 74.8 116.8 74.05 116.4 73.95 116.15 73.8 115.95 73.75 115.8 73.65 115.65 72.75 115 71.95 114.2 71.65 113.95 71.35 113.7 70.55 112.6 69.85 111.45 68.85 109.9 67.5 108.55 67.45 108.4 67.4 108.3 67.1 107.7 66.85 107.05 66.8 106.95 66.8 106.85 66.5 106.6 66.25 106.3 66.2 106.2 66.2 106.1 66.2 105.95 66.2 105.85 66.2 105.25 66.15 104.6 66.15 104.5 66.1 104.35 66.05 104.25 65.95 104.1 65.9 104 65.8 103.9 65.8 103.75 65.8 103.65 65.8 103.15 65.7 102.65 65.65 102.55 65.55 102.4 65.55 102.3 65.55 102.15 65.55 101.4 65.55 100.7 65.55 100.55 65.55 100.45 65.45 100.2 65.35 99.95 65.05 99 65.15 98 65.15 97.85 65.15 97.75 65.1 97.6 65.05 97.5 65 97.35 64.9 97.25 64.95 95.25 64.5 93.4 63.95 91.05 63.9 88.65 63.3 87.15 63.3 85.45 63.3 85.35 63.3 85.2 63.7 86.15 64.3 87.05 64.3 87.4 64.35 87.7 64.35 87.85 64.4 88 65.85 89.05 66.75 90.6 67.3 91.6 67.6 92.6 72.4619140625 100.36953125 80.55 105.05 80.9462890625 105.2783203125 81.35 105.5 105.6 118.75 133.2 121.4 141.602734375 122.198828125 149.9 121.55 155.6251953125 121.12265625 161.3 120 181.3 116.05 197.25 103.85 197.65 103.05 198.45 102.65 198.75 102.5 199.1 102.35 200.3 100.6 201.7 99 203.95 96.6 205.55 93.75 205.6 93.6 205.6 93.4 205.9 92.1 206.55 90.9 206.9 90.3 207.25 89.75 207.25 89.6 207.25 89.45 207.2 88.95 207.35 88.5 207.35 88.35 207.35 88.2 209.05 85.35 209.85 82.1
M 78.35 35.35
Q 78.7 36.2 79 37.1 79.7375 39.09140625 80.55 41 80.7119140625 41.413671875 80.85 41.8 82.1279296875 44.73359375 83.55 47.55 82.05859375 48.0470703125 80.55 48.5 79.479296875 48.809375 78.4 49.1 78.25 46.2 78.25 43.25 78.2408203125 42.525 78.25 41.8 78.2275390625 38.575 78.35 35.35
M 66.8 58.85
Q 66.6 58.5 66.6 58.05 66.6 58 66.55 57.9 66.7 57.3 66.95 56.75 69.9 59.45 72.5 62.5 73.3 64 74.55 65.15 76.3 66.7 76.4 68.25 73.8 68.6 71.25 68.9 71.1 68.85 71 68.85 69.35 68.5 67.7 68.5 67.55 66.85 67.4 65.15 67.05 62 66.8 58.85
M 116.8 54.55
Q 116.75 54.45 116.7 54.35 116.55 54.25 116.45 54.15 116.35 54.05 116.25 53.95 116.05 53.75 115.9 53.55 115.85 53.45 115.75 53.35 115.7 53.25 115.65 53.15 115.5 53.1 115.3 53.05 115.2 53 115.15 52.95 115.05 52.9 115 52.85 114.9 52.75 114.85 52.65 114.75 52.55 114.65 52.45 113.45 51.7 112.15 51.2 108.05 49.75 103.65 49.95 97.55 50.2 92.75 54.05 91.4 55.15 90.8 56.85 90.8 56.95 90.8 57.05 90.8 57.3 90.8 57.6 90.8 57.7 90.8 57.8 90.8 57.9 90.8 58 90.8 58.2 90.8 58.4 90.8 58.5 90.8 58.6 90.85 58.7 90.85 58.8 90.95 58.9 91 59 91.1 59.1 91.2 59.2 91.35 59.3 91.45 59.4 94.1 63.15 98.75 64.1 107.5 65.8 115.85 63.1 116.2 62.75 116.6 62.4 117 62.05 117.25 61.65 117.5 61.3 117.75 61 117.8 60.9 117.85 60.8 117.9 60.75 117.95 60.65 117.95 60.55 117.95 60.45 117.95 60.35 117.95 60.25 117.95 60.15 117.95 60.05 117.95 59.95 118 59.85 118.05 59.75 118.1 59.65 118.15 59.55 118.2 59.45 118.2 59.35 118.2 59.25 118.2 58.95 118.2 58.65 118.2 58.55 118.2 58.45 118.2 58.35 118.2 58.25 118.2 58.05 118.2 57.9 118.2 57.8 118.2 57.7 118.2 57.6 118.2 57.5 118.15 57.4 118.1 57.3 118.05 57.2 118 57.05 117.95 57 117.95 56.9 117.95 56.8 117.95 56.7 117.95 56.6 117.95 56.5 117.9 56.3 117.85 56.1 117.85 56 117.8 55.9 117.75 55.8 117.75 55.7 117.65 55.6 117.6 55.5 117.5 55.4 117.35 55.3 117.25 55.2 117.15 55.15 117.05 55.05 116.95 54.95 116.9 54.85 116.9 54.75 116.85 54.65 116.8 54.55
M 112.9 53.2
Q 112.9 53.3 113 53.4 113.05 53.5 113.15 53.6 113.35 53.7 113.55 53.75 113.65 53.8 113.75 53.9 113.85 54.1 114 54.3 114.2 54.65 114.5 54.9 114.65 54.95 114.7 55.05 114.8 55.25 114.95 55.45 115.15 55.8 115.45 56.05 115.6 56.15 115.7 56.25 115.75 56.35 115.8 56.45 115.85 56.55 115.9 56.65 115.95 56.75 115.95 56.85 115.95 56.95 115.95 57.05 115.95 57.2 115.95 57.4 115.95 57.5 115.95 57.6 115.95 57.7 115.95 57.8 116.1 58 116.2 58.2 116.25 58.3 116.25 58.4 116.25 58.5 116.25 58.6 116.25 58.7 116.2 58.75 116.05 59.05 116 59.4 115.95 59.7 115.95 59.95 115.95 60.05 115.9 60.15 115.75 60.35 115.55 60.55 112.05 64.65 106.05 63.45 104.75 62.8 103.25 63.2 101.05 63.75 98.05 62.5 94.6 61 92.75 57.9 93.05 56.1 94.5 54.85 98.45 51.4 103.65 50.95 108.7 50.5 112.9 53.2
M 192.5 76.2
L 192.5 76.25
Q 192.4 76.3 192.3 76.4 192.2 76.45 192.15 76.55 192.1 76.65 192 76.75 190.65 77.8 189.15 78.7 188.25 79.2 187.25 79.55 187.2 79.65 187.15 79.75 187.05 79.85 186.95 79.95 177.45 84.75 166.9 86.85 164 87.4 161.15 87.85 155.5212890625 88.7416015625 149.9 89.15 134.398046875 90.3083984375 118.95 87.85 108.25 86.15 99.2 80.35 98.75 80.3 98.3 80.2 98.2 80.15 98.15 80.1 98.1 80 98 79.9 97.9 79.7 97.75 79.5 97.65 79.4 97.55 79.3 97.25 79.25 96.9 79.15 96.75 79.1 96.55 79.05 96.45 78.95 96.35 78.85 95.45 78.1 94.2 78 94.05 78 93.9 77.95 92.5 76.95 91 76.25 90.25 75.9 89.7 75.3 88.5 75.3 87.25 75.25 87.2 75.3 87.15 75.4 87.15 75.45 87.15 75.55 87.15 75.65 87.15 75.75 87.15 75.95 87.15 76.15 87.15 76.25 87.15 76.35 87.25 76.45 87.3 76.55 87.35 76.65 87.4 76.75 87.4 76.85 87.4 76.95 87.45 77.15 87.55 77.35 87.6 77.45 87.65 77.55 87.65 77.65 87.65 77.75 87.65 77.85 87.65 77.95 87.65 78.15 87.7 78.3 87.7 78.4 87.7 78.5 89.15 80.7 90.55 82.9 96.05 91.85 106.25 95.55 126.45 102.8 147.8 101.1 148.854296875 101.0162109375 149.9 100.9 153.218359375 100.5103515625 156.45 99.75 166.75 97.35 176.05 92.25 184.45 87.7 191.2 80.95 191.25 80.85 191.3 80.75 191.35 80.65 191.4 80.55 191.45 80.45 191.45 80.35 191.9 79.9 192.25 79.45 192.6 79.05 193.1 78.75 193.2 78.7 193.3 78.6 193.35 78.5 193.35 78.4 193.4 78.3 193.45 78.2 193.45 78.1 193.5 78 193.8 77.7 194.1 77.45 194.4 77.2 194.45 76.8 194.5 76.7 194.5 76.6 194.5 76.5 194.45 76.5 193.5 76.3 192.5 76.2
M 188.4 81
Q 182.95 86.35 176.35 90.15 168.25 94.85 159.3 97.6 154.6546875 99.032421875 149.9 99.8 143.0384765625 100.936328125 135.95 100.7 129 100.45 122.2 98.95 113.5 97.05 105.35 93.45 94.05 88.4 89.6 77.2 89.65 77.05 89.9 77.15 91.05 77.8 92.05 78.65 93.15 78.85 94.15 79.25 94.25 79.35 94.35 79.45 94.4 79.55 94.45 79.65 95.15 79.9 95.7 80.1 95.8 80.2 95.9 80.3 96.05 80.6 96.3 80.9 98.75 81.85 101.3 83.15 106.35 85.7 111.9 86.95 130.701171875 91.1416015625 149.9 90 154.289453125 89.78046875 158.7 89.25 174.35 87.4 188.4 81
M 173.6 51.9
Q 173.5 51.9 173.45 51.85 172.4 50.7 170.85 50.1 166.8 48.55 162.3 49.1 158 49.7 154.3 52.05 153 52.85 151.95 53.95 151.9 54.05 151.85 54.15 151.8 54.25 151.75 54.35 151.7 54.45 151.6 54.55 151.6 54.95 151.6 55.3 151.6 55.8 151.6 56.3 151.6 56.8 151.6 57.3 151.6 57.4 151.6 57.5 151.8 57.8 152.05 58.05 152.1 58.15 152.2 58.25 152.3 58.35 152.4 58.45 153.6 61.35 156.7 62.05 165.6 64 174.6 60.95 175.55 60.25 176.25 59.35 176.85 58.6 177.1 57.8 177.15 57.7 177.2 57.6 177.2 57.5 177.2 57.4 177.2 57.15 177.2 56.85 177.2 56.65 177.2 56.45 177.2 56.35 177.2 56.25 177.1 56.15 177.05 56.05 177 55.95 176.9 55.85 176.9 55.65 176.9 55.45 176.9 55.35 176.85 55.3 176.8 55.15 176.65 55.05 176.65 54.85 176.65 54.65 176.6 54.55 176.6 54.45 176.55 54.35 176.5 54.25 176.1 53.95 175.75 53.55 175.1 52.9 174.45 52.3 174.35 52.2 174.3 52.1 174.1 52.05 173.9 52 173.75 51.95 173.6 51.9
M 172.85 53.4
Q 173.9 54.15 174.6 55.15 174.65 55.2 174.65 55.3 174.7 55.4 174.7 55.5 174.7 55.6 174.7 55.7 175 55.95 175.05 56.3 175.1 56.7 175.15 57.1 175.05 57.3 175 57.5 174.9 57.7 174.9 57.9 174.65 58.15 174.5 58.4 173.75 59.5 172.7 60.25 165.2 62.6 157.5 61.3 157.4 61.2 157.25 61.15 156.5 60.6 155.85 60.05 154.75 59.1 154.35 57.8 154.2 57.6 154 57.4 153.8 57.1 153.6 56.85 153.6 56.35 153.55 55.85 153.55 55.35 153.7 54.85 154.8 53.65 156.15 52.8 159.488671875 50.620703125 163.4 49.9 163.737890625 49.847265625 164.05 49.8 164.46328125 49.839453125 164.85 49.85 165.51328125 49.958984375 166.15 50.05 169.3 50.5 171.6 52.55 171.85 52.65 172.05 52.7 172.25 52.75 172.45 52.85 172.55 53.2 172.85 53.4 Z" stroke="none" fill="#000000"></path>

<path d="M 66.6 58.05
Q 66.6 58.5 66.8 58.85 67.05 62 67.4 65.15 67.55 66.85 67.7 68.5 69.35 68.5 71 68.85 71.1 68.85 71.25 68.9 73.8 68.6 76.4 68.25 76.3 66.7 74.55 65.15 73.3 64 72.5 62.5 69.9 59.45 66.95 56.75 66.7 57.3 66.55 57.9 66.6 58 66.6 58.05
M 79 37.1
Q 78.7 36.2 78.35 35.35 78.2275390625 38.575 78.25 41.8 78.2408203125 42.525 78.25 43.25 78.25 46.2 78.4 49.1 79.479296875 48.809375 80.55 48.5 82.05859375 48.0470703125 83.55 47.55 82.1279296875 44.73359375 80.85 41.8 80.7119140625 41.413671875 80.55 41 79.7375 39.09140625 79 37.1
M 210.85 78.3
Q 210.3 80.2 209.85 82.1 209.05 85.35 207.35 88.2 207.35 88.35 207.35 88.5 207.2 88.95 207.25 89.45 207.25 89.6 207.25 89.75 206.9 90.3 206.55 90.9 205.9 92.1 205.6 93.4 205.6 93.6 205.55 93.75 203.95 96.6 201.7 99 200.3 100.6 199.1 102.35 198.75 102.5 198.45 102.65 197.65 103.05 197.25 103.85 181.3 116.05 161.3 120 155.6251953125 121.12265625 149.9 121.55 141.602734375 122.198828125 133.2 121.4 105.6 118.75 81.35 105.5 80.9462890625 105.2783203125 80.55 105.05 72.4619140625 100.36953125 67.6 92.6 67.3 91.6 66.75 90.6 65.85 89.05 64.4 88 64.35 87.85 64.35 87.7 64.3 87.4 64.3 87.05 63.7 86.15 63.3 85.2 63.3 85.35 63.3 85.45 63.3 87.15 63.9 88.65 63.95 91.05 64.5 93.4 64.95 95.25 64.9 97.25 65 97.35 65.05 97.5 65.1 97.6 65.15 97.75 65.15 97.85 65.15 98 65.05 99 65.35 99.95 65.45 100.2 65.55 100.45 65.55 100.55 65.55 100.7 65.55 101.4 65.55 102.15 65.55 102.3 65.55 102.4 65.65 102.55 65.7 102.65 65.8 103.15 65.8 103.65 65.8 103.75 65.8 103.9 65.9 104 65.95 104.1 66.05 104.25 66.1 104.35 66.15 104.5 66.15 104.6 66.2 105.25 66.2 105.85 66.2 105.95 66.2 106.1 66.2 106.2 66.25 106.3 66.5 106.6 66.8 106.85 66.8 106.95 66.85 107.05 67.1 107.7 67.4 108.3 67.45 108.4 67.5 108.55 68.85 109.9 69.85 111.45 70.55 112.6 71.35 113.7 71.65 113.95 71.95 114.2 72.75 115 73.65 115.65 73.75 115.8 73.8 115.95 73.95 116.15 74.05 116.4 74.8 116.8 75.4 117.35 76.15 118.05 77 118.6 77.05 118.75 77.1 118.85 77.2 119 77.25 119.1 77.6 119.25 77.9 119.35 78 119.5 78.1 119.6 78.5 120.35 79.25 120.65 79.3 120.8 79.4 120.9 79.8384765625 121.6419921875 80.55 122.05 80.8931640625 122.2697265625 81.3 122.4 81.45 122.5 81.55 122.65 81.75 122.9 81.85 123.15 82.1 123.25 82.35 123.35 82.65 123.5 82.9 123.6 83 123.75 83.05 123.85 83.1 124 83.15 124.1 84.3 124.9 85.45 125.7 86.3 126.3 87 127 87.1 127 87.2 127.05 87.6 127.15 88 127.2 88.1 127.35 88.25 127.5 88.3 127.6 88.4 127.7 88.6 127.85 88.85 127.9 90 128.35 91.2 128.85 94.45 131.2 98.25 132.45 106.28359375 135.7595703125 114.5 137.7 131.803515625 141.7916015625 149.9 139.8 154.475 139.2927734375 159.1 138.4 160.25 138.2 161.5 137.9 161.8857421875 137.8013671875 162.25 137.7 168.724609375 136.003515625 175 133.55 189.55 128.7 199.3 117.25 199.45 117.1 199.6 117 200 116.75 200.45 116.5 200.55 116.35 200.65 116.25 201.15 115.4 201.6 114.5 201.65 114.4 201.7 114.3 202.5 113.65 202.95 112.75 203.45 111.75 204.3 111.1 204.35 110.95 204.4 110.85 204.55 110.5 204.5 110.1 205.2 109.35 205.65 108.35 206.2 107.15 207 106.15 207 106.05 207.05 105.95 207.05 105.8 207.1 105.7 207.2 105.55 207.3 105.45 207.85 104.75 208.35 103.95 208.35 103.85 208.35 103.7 208.35 103.35 208.35 103 208.4 102.85 208.5 102.75 208.75 102.5 209 102.25 209 102.1 209 102 209 101.75 209 101.5 209.55 100.7 209.7 99.8 209.95 98.45 209.95 97.1 210.05 96.95 210.15 96.85 210.2 96.7 210.3 96.6 210.35 96.45 210.35 96.35 210.4 95.75 210.4 95.1 210.4 95 210.4 94.85 210.4 94.75 210.5 94.65 210.55 94.5 210.65 94.35 210.65 88.95 211.1 83.55 211.25 80.9 210.85 78.3
M 196.4 61.8
Q 196.3 61.85 196.2 61.85 195.8 62 195.4 62.1 195.25 62.25 195.05 62.35 194.35 62.65 194.15 63.3 194.15 63.4 194.1 63.45 193.4 63.8 192.65 64.05 198.45 65 204.55 65.9 204.55 63.35 204.55 60.75 204.55 59.55 204.55 58.3 203.45 58.75 202.15 58.95 201.4 59.05 200.6 59.2 200.45 59.35 200.3 59.5 200.15 59.65 200 59.75 199.9 59.8 199.8 59.8 198.65 60.15 197.55 60.65 197.45 60.8 197.3 60.9 196.85 61.3 196.4 61.8
M 191.85 47.5
Q 191.75 47.6 191.7 47.75 194.05 48.8 197 50.05 197 49.85 197 49.7 197.15 47.95 196.7 46.35 196.7 45.45 196.7 44.6 196.7 43.1802734375 196.7 41.8 196.7 41.624609375 196.7 41.45 196.7 41.3 196.65 41.2 196.4267578125 41.49765625 196.2 41.8 195.398046875 42.9189453125 194.65 44.1 193.65 45.7 192.4 47.15 192.1 47.3 191.85 47.5
M 176.35 90.15
Q 182.95 86.35 188.4 81 174.35 87.4 158.7 89.25 154.289453125 89.78046875 149.9 90 130.701171875 91.1416015625 111.9 86.95 106.35 85.7 101.3 83.15 98.75 81.85 96.3 80.9 96.05 80.6 95.9 80.3 95.8 80.2 95.7 80.1 95.15 79.9 94.45 79.65 94.4 79.55 94.35 79.45 94.25 79.35 94.15 79.25 93.15 78.85 92.05 78.65 91.05 77.8 89.9 77.15 89.65 77.05 89.6 77.2 94.05 88.4 105.35 93.45 113.5 97.05 122.2 98.95 129 100.45 135.95 100.7 143.0384765625 100.936328125 149.9 99.8 154.6546875 99.032421875 159.3 97.6 168.25 94.85 176.35 90.15 Z" stroke="none" fill="#EE9D33"></path>

<path d="M 178.6 22.05
Q 178.6 21.9 178.65 21.75 178.8 21.1 178.2 20.8 168.85 22.7 159.25 24.5 159.15 24.35 159.05 24.2 158.6 23.3 158.3 22.35 158.2 22.2 158.1 22.05 158.1 21.9 158.05 21.75 157.9 21.3 157.7 20.8 157.7 20.65 157.7 20.5 157.7 19.75 157.7 19 157.7 18.5 157.7 18.05 157.6 17.9 157.55 17.75 157.25 16.85 157.1 15.9 157.05 15.6 156.9 15.3 156.9 15.15 156.9 15 156.9 14.5 156.9 14.05 156.8 13.9 156.7 13.75 156.6 13.6 156.5 13.45 156.5 13.3 156.5 13.15 156.55 12.55 156.05 12.2 152.9712890625 13.4314453125 149.9 14.85 144.9904296875 17.1703125 140.1 20
L 140.1 20.05
Q 138.85 20.05 137.65 20 137.5 19.85 137.35 19.7 137.3 19.6 137.25 19.5 137.2 19.45 137.1 19.4 136.75 19.3 136.4 19.2 136.4 19.05 136.35 18.9 135.75 17.8 134.75 17.05 134.75 16.9 134.7 16.8 134.15 16.05 133.45 15.5 133.15 14.9 132.9 14.25 132.45 12.9 131.5 11.8 131.5 11.65 131.45 11.5 131.45 11.35 131.4 11.2 131.2 10.9 130.95 10.6 130.1 9.6 129.55 8.4 129.5 8.3 129.45 8.1 129.4 8 129.35 8 128.95 7.95 128.5 8 123.65 12.55 119.65 17.85 118.1 19.9 116.85 22.15 115.05 22.3 113.25 22.45 110.05 20.45 106.85 18.3 106.2 17.8 105.7 17.15 103.5 15.75 101.35 14.25 100.6 13.75 99.85 13.25 99.05 18.6 99.1 24.3 99.15 28.45 99.15 32.6 99.15 32.9 99.15 33.2 89.99375 32.9734375 80.55 30.7 79.5765625 30.45703125 78.6 30.2 78.6 30.3 78.6 30.4
L 78.6 30.45
Q 78.7 30.75 78.75 31.05 78.85 31.2 78.95 31.35 79.2 31.7 79.45 32 79.9888671875 33.6166015625 80.55 35.2 81.446484375 37.797265625 82.4 40.35 82.6869140625 41.084375 83 41.8 84.0744140625 44.20390625 85.5 46.4 85.55 46.55 85.6 46.75 85.6 47.2 85.6 47.65 85.6 47.8 85.6 47.95 83.1357421875 48.9021484375 80.55 49.7 73.9017578125 51.8400390625 66.45 53.1 66.55 53.25 66.7 53.35 66.8 53.45 66.85 53.55 67.35 53.55 67.85 53.65
L 67.85 53.75
Q 67.9 54.25 67.75 54.75 72.5 58.85 76.45 63.85 78 65.9 79.05 68.15 76.55 69.8 72.4 70.15 67.55 70.5 63.1 70.55 62.5 70.75 61.9 71.05 61.85 71.15 61.85 71.25 61.8 71.45 61.8 71.65 61.85 71.85 61.85 72.05 61.85 72.15 61.85 72.25 62.2 72.25 62.6 72.3
L 62.6 72.4
Q 62.6 72.55 62.6 72.65 62.6 73.55 62.6 74.4 62.6 74.65 62.6 74.9 62.65 75 62.7 75.1 62.75 75.25 62.85 75.35 62.85 75.5 62.85 75.65 62.95 75.8 63 76 63.05 76.15 63.1 76.3 63.1 76.45 63.1 76.65 63.1 77.4 63.1 78.15 63.1 78.45 63.1 78.8 64.05 80.5 64.65 82.45 65.25 84.55 66.35 86.45 66.35 86.6 66.4 86.75 66.4 87.05 66.45 87.4 67.35 87.95 67.8 88.95 68.45 90.35 69.55 91.35 69.6 91.55 69.6 91.7 69.65 91.85 69.65 92 74.2626953125 98.3890625 80.55 103.05 85.23515625 106.5021484375 90.85 109 119.209375 121.660546875 149.9 120.3 152.5416015625 120.171875 155.2 119.95 164.3 119.15 173 115.95 185.05 111.5 195.1 103.35 195.2 103.2 195.3 103.05 195.85 102.2 196.8 101.8 198 100.55 199 99.05 200 97.65 201.35 96.6 201.6 96.15 201.85 95.7 202.55 94.4 203.5 93.2 203.7 91.9 204.35 90.75 205.3 89.2 205.45 87.4 207.25 83.55 208.25 79.35 208.95 76.25 210.15 73.25 210.15 72.35 210.15 71.4 210.15 69.7 210.15 68.05 210.15 67.85 210.15 67.7 199.9 66.1 189.65 64.75 189.65 64.6 189.7 64.5 190.15 63.75 190.8 63.2 190.9 63.1 191 63 191.05 62.95 191.1 62.95 191.6 62.8 192.1 62.7 192.15 62.55 192.25 62.45 192.85 61.8 193.55 61.25 193.95 61.15 194.35 61.05 195.3 60 196.65 59.55 197.8 59.2 198.75 58.5 201.2 58.05 203.3 56.9 203.85 56.6 204.6 56.25 196.95 51.25 189.25 48.05 190.9 45.8 192.75 43.2 193.241015625 42.504296875 193.75 41.8 194.4615234375 40.7837890625 195.2 39.75 195.25 39.6 195.25 39.45 195.35 39 195.4 38.55 195.55 38.4 195.7 38.3 195.05 36.75 194.85 35.15 195.15 35.15 195.45 35.2 195.35 35.1 195.3 35.05
L 195.3 35
Q 194.15 34.8 193.15 34.25 186.05 34 179 33.7 179 30.8 179.15 27.9 179.3 24.85 178.6 22.05
M 173.45 51.85
Q 173.5 51.9 173.6 51.9 173.75 51.95 173.9 52 174.1 52.05 174.3 52.1 174.35 52.2 174.45 52.3 175.1 52.9 175.75 53.55 176.1 53.95 176.5 54.25 176.55 54.35 176.6 54.45 176.6 54.55 176.65 54.65 176.65 54.85 176.65 55.05 176.8 55.15 176.85 55.3 176.9 55.35 176.9 55.45 176.9 55.65 176.9 55.85 177 55.95 177.05 56.05 177.1 56.15 177.2 56.25 177.2 56.35 177.2 56.45 177.2 56.65 177.2 56.85 177.2 57.15 177.2 57.4 177.2 57.5 177.2 57.6 177.15 57.7 177.1 57.8 176.85 58.6 176.25 59.35 175.55 60.25 174.6 60.95 165.6 64 156.7 62.05 153.6 61.35 152.4 58.45 152.3 58.35 152.2 58.25 152.1 58.15 152.05 58.05 151.8 57.8 151.6 57.5 151.6 57.4 151.6 57.3 151.6 56.8 151.6 56.3 151.6 55.8 151.6 55.3 151.6 54.95 151.6 54.55 151.7 54.45 151.75 54.35 151.8 54.25 151.85 54.15 151.9 54.05 151.95 53.95 153 52.85 154.3 52.05 158 49.7 162.3 49.1 166.8 48.55 170.85 50.1 172.4 50.7 173.45 51.85
M 192.5 76.25
L 192.5 76.2
Q 193.5 76.3 194.45 76.5 194.5 76.5 194.5 76.6 194.5 76.7 194.45 76.8 194.4 77.2 194.1 77.45 193.8 77.7 193.5 78 193.45 78.1 193.45 78.2 193.4 78.3 193.35 78.4 193.35 78.5 193.3 78.6 193.2 78.7 193.1 78.75 192.6 79.05 192.25 79.45 191.9 79.9 191.45 80.35 191.45 80.45 191.4 80.55 191.35 80.65 191.3 80.75 191.25 80.85 191.2 80.95 184.45 87.7 176.05 92.25 166.75 97.35 156.45 99.75 153.218359375 100.5103515625 149.9 100.9 148.854296875 101.0162109375 147.8 101.1 126.45 102.8 106.25 95.55 96.05 91.85 90.55 82.9 89.15 80.7 87.7 78.5 87.7 78.4 87.7 78.3 87.65 78.15 87.65 77.95 87.65 77.85 87.65 77.75 87.65 77.65 87.65 77.55 87.6 77.45 87.55 77.35 87.45 77.15 87.4 76.95 87.4 76.85 87.4 76.75 87.35 76.65 87.3 76.55 87.25 76.45 87.15 76.35 87.15 76.25 87.15 76.15 87.15 75.95 87.15 75.75 87.15 75.65 87.15 75.55 87.15 75.45 87.15 75.4 87.2 75.3 87.25 75.25 88.5 75.3 89.7 75.3 90.25 75.9 91 76.25 92.5 76.95 93.9 77.95 94.05 78 94.2 78 95.45 78.1 96.35 78.85 96.45 78.95 96.55 79.05 96.75 79.1 96.9 79.15 97.25 79.25 97.55 79.3 97.65 79.4 97.75 79.5 97.9 79.7 98 79.9 98.1 80 98.15 80.1 98.2 80.15 98.3 80.2 98.75 80.3 99.2 80.35 108.25 86.15 118.95 87.85 134.398046875 90.3083984375 149.9 89.15 155.5212890625 88.7416015625 161.15 87.85 164 87.4 166.9 86.85 177.45 84.75 186.95 79.95 187.05 79.85 187.15 79.75 187.2 79.65 187.25 79.55 188.25 79.2 189.15 78.7 190.65 77.8 192 76.75 192.1 76.65 192.15 76.55 192.2 76.45 192.3 76.4 192.4 76.3 192.5 76.25
M 116.7 54.35
Q 116.75 54.45 116.8 54.55 116.85 54.65 116.9 54.75 116.9 54.85 116.95 54.95 117.05 55.05 117.15 55.15 117.25 55.2 117.35 55.3 117.5 55.4 117.6 55.5 117.65 55.6 117.75 55.7 117.75 55.8 117.8 55.9 117.85 56 117.85 56.1 117.9 56.3 117.95 56.5 117.95 56.6 117.95 56.7 117.95 56.8 117.95 56.9 117.95 57 118 57.05 118.05 57.2 118.1 57.3 118.15 57.4 118.2 57.5 118.2 57.6 118.2 57.7 118.2 57.8 118.2 57.9 118.2 58.05 118.2 58.25 118.2 58.35 118.2 58.45 118.2 58.55 118.2 58.65 118.2 58.95 118.2 59.25 118.2 59.35 118.2 59.45 118.15 59.55 118.1 59.65 118.05 59.75 118 59.85 117.95 59.95 117.95 60.05 117.95 60.15 117.95 60.25 117.95 60.35 117.95 60.45 117.95 60.55 117.95 60.65 117.9 60.75 117.85 60.8 117.8 60.9 117.75 61 117.5 61.3 117.25 61.65 117 62.05 116.6 62.4 116.2 62.75 115.85 63.1 107.5 65.8 98.75 64.1 94.1 63.15 91.45 59.4 91.35 59.3 91.2 59.2 91.1 59.1 91 59 90.95 58.9 90.85 58.8 90.85 58.7 90.8 58.6 90.8 58.5 90.8 58.4 90.8 58.2 90.8 58 90.8 57.9 90.8 57.8 90.8 57.7 90.8 57.6 90.8 57.3 90.8 57.05 90.8 56.95 90.8 56.85 91.4 55.15 92.75 54.05 97.55 50.2 103.65 49.95 108.05 49.75 112.15 51.2 113.45 51.7 114.65 52.45 114.75 52.55 114.85 52.65 114.9 52.75 115 52.85 115.05 52.9 115.15 52.95 115.2 53 115.3 53.05 115.5 53.1 115.65 53.15 115.7 53.25 115.75 53.35 115.85 53.45 115.9 53.55 116.05 53.75 116.25 53.95 116.35 54.05 116.45 54.15 116.55 54.25 116.7 54.35 Z" stroke="none" fill="#FDDF5E"></path>

<path d="M 113 53.4
Q 112.9 53.3 112.9 53.2 108.7 50.5 103.65 50.95 98.45 51.4 94.5 54.85 93.05 56.1 92.75 57.9 94.6 61 98.05 62.5 101.05 63.75 103.25 63.2 104.75 62.8 106.05 63.45 112.05 64.65 115.55 60.55 115.75 60.35 115.9 60.15 115.95 60.05 115.95 59.95 115.95 59.7 116 59.4 116.05 59.05 116.2 58.75 116.25 58.7 116.25 58.6 116.25 58.5 116.25 58.4 116.25 58.3 116.2 58.2 116.1 58 115.95 57.8 115.95 57.7 115.95 57.6 115.95 57.5 115.95 57.4 115.95 57.2 115.95 57.05 115.95 56.95 115.95 56.85 115.95 56.75 115.9 56.65 115.85 56.55 115.8 56.45 115.75 56.35 115.7 56.25 115.6 56.15 115.45 56.05 115.15 55.8 114.95 55.45 114.8 55.25 114.7 55.05 114.65 54.95 114.5 54.9 114.2 54.65 114 54.3 113.85 54.1 113.75 53.9 113.65 53.8 113.55 53.75 113.35 53.7 113.15 53.6 113.05 53.5 113 53.4
M 174.6 55.15
Q 173.9 54.15 172.85 53.4 172.55 53.2 172.45 52.85 172.25 52.75 172.05 52.7 171.85 52.65 171.6 52.55 169.3 50.5 166.15 50.05 165.51328125 49.958984375 164.85 49.85 164.46328125 49.839453125 164.05 49.8 163.737890625 49.847265625 163.4 49.9 159.488671875 50.620703125 156.15 52.8 154.8 53.65 153.7 54.85 153.55 55.35 153.55 55.85 153.6 56.35 153.6 56.85 153.8 57.1 154 57.4 154.2 57.6 154.35 57.8 154.75 59.1 155.85 60.05 156.5 60.6 157.25 61.15 157.4 61.2 157.5 61.3 165.2 62.6 172.7 60.25 173.75 59.5 174.5 58.4 174.65 58.15 174.9 57.9 174.9 57.7 175 57.5 175.05 57.3 175.15 57.1 175.1 56.7 175.05 56.3 175 55.95 174.7 55.7 174.7 55.6 174.7 55.5 174.7 55.4 174.65 55.3 174.65 55.2 174.6 55.15 Z" stroke="none" fill="#FFFFFF"></path>
</g>
</g>
</g>
</g>
</svg>
