
<svg viewBox="0 0 272 172" height="172px" width="272px" y="0px" x="0px" preserveAspectRatio="none" xmlns:xlink="http://www.w3.org/1999/xlink" version="1.1" xmlns="http://www.w3.org/2000/svg">
<defs></defs>

<g id="Layer_2">
<g>
<g>
<g>
<path d="M 113.75 144.75
Q 113.65 144.65 113.55 144.6 113.35 144.55 113.15 144.45 113.05 144.35 113 144.25 112.9 144.15 112.9 144.05 108.7 141.35 103.65 141.8 98.45 142.25 94.5 145.7 93.05 146.95 92.75 148.75 94.6 151.85 98.05 153.35 98.9646484375 153.7310546875 99.8 153.95 102.6462890625 153.8806640625 105.5 153.8 109.1482421875 153.69609375 112.8 153.6 114.3271484375 152.8326171875 115.55 151.4 115.75 151.2 115.9 151 115.95 150.9 115.95 150.8 115.95 150.55 116 150.25 116.05 149.9 116.2 149.6 116.25 149.55 116.25 149.45 116.25 149.35 116.25 149.25 116.25 149.15 116.2 149.05 116.1 148.85 115.95 148.65 115.95 148.55 115.95 148.45 115.95 148.35 115.95 148.25 115.95 148.05 115.95 147.9 115.95 147.8 115.95 147.7 115.95 147.6 115.9 147.5 115.85 147.4 115.8 147.3 115.75 147.2 115.7 147.1 115.6 147 115.45 146.9 115.15 146.65 114.95 146.3 114.8 146.1 114.7 145.9 114.65 145.8 114.5 145.75 114.2 145.5 114 145.15 113.85 144.95 113.75 144.75
M 73.05 154.25
Q 72.75859375 153.834765625 72.5 153.35 69.9 150.3 66.95 147.6 66.7 148.15 66.55 148.75 66.6 148.85 66.6 148.9 66.6 149.35 66.8 149.7 66.9810546875 151.9818359375 67.2 154.25 70.1361328125 154.279296875 73.05 154.25
M 202.15 149.8
Q 201.4 149.9 200.6 150.05 200.45 150.2 200.3 150.35 200.15 150.5 200 150.6 199.9 150.65 199.8 150.65 198.65 151 197.55 151.5 197.45 151.65 197.3 151.75 197.1625 151.872265625 197 152 200.7904296875 151.848828125 204.55 151.65 204.55 151.6408203125 204.55 151.6 204.55 150.4 204.55 149.15 203.45 149.6 202.15 149.8
M 164.05 140.65
Q 163.737890625 140.697265625 163.4 140.75 159.488671875 141.470703125 156.15 143.65 154.8 144.5 153.7 145.7 153.55 146.2 153.55 146.7 153.6 147.2 153.6 147.7 153.8 147.95 154 148.25 154.2 148.45 154.35 148.65 154.75 149.95 155.85 150.9 156.5 151.45 157.25 152 157.4 152.05 157.5 152.15 165.2 153.45 172.7 151.1 173.75 150.35 174.5 149.25 174.65 149 174.9 148.75 174.9 148.55 175 148.35 175.05 148.15 175.15 147.95 175.1 147.55 175.05 147.15 175 146.8 174.7 146.55 174.7 146.45 174.7 146.35 174.7 146.25 174.65 146.15 174.65 146.05 174.6 146 173.9 145 172.85 144.25 172.55 144.05 172.45 143.7 172.25 143.6 172.05 143.55 171.85 143.5 171.6 143.4 169.3 141.35 166.15 140.9 165.51328125 140.808984375 164.85 140.7 164.46328125 140.689453125 164.05 140.65
M 80.55 131.85
Q 79.7375 129.94140625 79 127.95 78.7 127.05 78.35 126.2 78.2 130.15 78.25 134.1 78.25 135.909375 78.3 137.7 78.3419921875 138.8287109375 78.4 139.95 79.479296875 139.659375 80.55 139.35 82.05859375 138.8970703125 83.55 138.4 83.373828125 138.0509765625 83.2 137.7 81.78828125 134.8470703125 80.55 131.85
M 196.7 132.3
Q 196.7 132.15 196.65 132.05 195.6 133.45 194.65 134.95 193.7529296875 136.3853515625 192.65 137.7 192.528515625 137.85078125 192.4 138 192.1 138.15 191.85 138.35 191.75 138.45 191.7 138.6 194.05 139.65 197 140.9 197 140.7 197 140.55 197.1267578125 139.071484375 196.8 137.7 196.769921875 137.4482421875 196.7 137.2 196.7 136.3 196.7 135.45 196.7 133.85 196.7 132.3 Z" stroke="none" fill="#EE9D33"></path>

<path d="M 90.8 147.7
Q 90.8 147.8 90.8 147.9 90.8 148.15 90.8 148.45 90.8 148.55 90.8 148.65 90.8 148.75 90.8 148.85 90.8 149.05 90.8 149.25 90.8 149.35 90.8 149.45 90.85 149.55 90.85 149.65 90.95 149.75 91 149.85 91.1 149.95 91.2 150.05 91.35 150.15 91.45 150.25 93.236328125 152.7779296875 95.9 154 97.862109375 153.9888671875 99.8 153.95 98.9646484375 153.7310546875 98.05 153.35 94.6 151.85 92.75 148.75 93.05 146.95 94.5 145.7 98.45 142.25 103.65 141.8 108.7 141.35 112.9 144.05 112.9 144.15 113 144.25 113.05 144.35 113.15 144.45 113.35 144.55 113.55 144.6 113.65 144.65 113.75 144.75 113.85 144.95 114 145.15 114.2 145.5 114.5 145.75 114.65 145.8 114.7 145.9 114.8 146.1 114.95 146.3 115.15 146.65 115.45 146.9 115.6 147 115.7 147.1 115.75 147.2 115.8 147.3 115.85 147.4 115.9 147.5 115.95 147.6 115.95 147.7 115.95 147.8 115.95 147.9 115.95 148.05 115.95 148.25 115.95 148.35 115.95 148.45 115.95 148.55 115.95 148.65 116.1 148.85 116.2 149.05 116.25 149.15 116.25 149.25 116.25 149.35 116.25 149.45 116.25 149.55 116.2 149.6 116.05 149.9 116 150.25 115.95 150.55 115.95 150.8 115.95 150.9 115.9 151 115.75 151.2 115.55 151.4 114.3271484375 152.8326171875 112.8 153.6 114.52421875 153.58125 116.25 153.55 116.422265625 153.40546875 116.6 153.25 117 152.9 117.25 152.5 117.5 152.15 117.75 151.85 117.8 151.75 117.85 151.65 117.9 151.6 117.95 151.5 117.95 151.4 117.95 151.3 117.95 151.2 117.95 151.1 117.95 151 117.95 150.9 117.95 150.8 118 150.7 118.05 150.6 118.1 150.5 118.15 150.4 118.2 150.3 118.2 150.2 118.2 150.1 118.2 149.8 118.2 149.5 118.2 149.4 118.2 149.3 118.2 149.2 118.2 149.1 118.2 148.9 118.2 148.75 118.2 148.65 118.2 148.55 118.2 148.45 118.2 148.35 118.15 148.25 118.1 148.15 118.05 148.05 118 147.9 117.95 147.85 117.95 147.75 117.95 147.65 117.95 147.55 117.95 147.45 117.95 147.35 117.9 147.15 117.85 146.95 117.85 146.85 117.8 146.75 117.75 146.65 117.75 146.55 117.65 146.45 117.6 146.35 117.5 146.25 117.35 146.15 117.25 146.05 117.15 146 117.05 145.9 116.95 145.8 116.9 145.7 116.9 145.6 116.85 145.5 116.8 145.4 116.75 145.3 116.7 145.2 116.55 145.1 116.45 145 116.35 144.9 116.25 144.8 116.05 144.6 115.9 144.4 115.85 144.3 115.75 144.2 115.7 144.1 115.65 144 115.5 143.95 115.3 143.9 115.2 143.85 115.15 143.8 115.05 143.75 115 143.7 114.9 143.6 114.85 143.5 114.75 143.4 114.65 143.3 113.45 142.55 112.15 142.05 108.05 140.6 103.65 140.8 97.55 141.05 92.75 144.9 91.4 146 90.8 147.7
M 170.85 140.95
Q 166.8 139.4 162.3 139.95 158 140.55 154.3 142.9 153 143.7 151.95 144.8 151.9 144.9 151.85 145 151.8 145.1 151.75 145.2 151.7 145.3 151.6 145.4 151.6 145.8 151.6 146.15 151.6 146.65 151.6 147.15 151.6 147.65 151.6 148.15 151.6 148.25 151.6 148.35 151.8 148.65 152.05 148.9 152.1 149 152.2 149.1 152.3 149.2 152.4 149.3 153.6 152.2 156.7 152.9 157.338671875 153.03984375 157.95 153.15 164.384375 153.0369140625 170.75 152.85 172.6810546875 152.450390625 174.6 151.8 175.55 151.1 176.25 150.2 176.85 149.45 177.1 148.65 177.15 148.55 177.2 148.45 177.2 148.35 177.2 148.25 177.2 148 177.2 147.7 177.2 147.5 177.2 147.3 177.2 147.2 177.2 147.1 177.1 147 177.05 146.9 177 146.8 176.9 146.7 176.9 146.5 176.9 146.3 176.9 146.2 176.85 146.15 176.8 146 176.65 145.9 176.65 145.7 176.65 145.5 176.6 145.4 176.6 145.3 176.55 145.2 176.5 145.1 176.1 144.8 175.75 144.4 175.1 143.75 174.45 143.15 174.35 143.05 174.3 142.95 174.1 142.9 173.9 142.85 173.75 142.8 173.6 142.75 173.5 142.75 173.45 142.7 172.4 141.55 170.85 140.95
M 163.4 140.75
Q 163.737890625 140.697265625 164.05 140.65 164.46328125 140.689453125 164.85 140.7 165.51328125 140.808984375 166.15 140.9 169.3 141.35 171.6 143.4 171.85 143.5 172.05 143.55 172.25 143.6 172.45 143.7 172.55 144.05 172.85 144.25 173.9 145 174.6 146 174.65 146.05 174.65 146.15 174.7 146.25 174.7 146.35 174.7 146.45 174.7 146.55 175 146.8 175.05 147.15 175.1 147.55 175.15 147.95 175.05 148.15 175 148.35 174.9 148.55 174.9 148.75 174.65 149 174.5 149.25 173.75 150.35 172.7 151.1 165.2 153.45 157.5 152.15 157.4 152.05 157.25 152 156.5 151.45 155.85 150.9 154.75 149.95 154.35 148.65 154.2 148.45 154 148.25 153.8 147.95 153.6 147.7 153.6 147.2 153.55 146.7 153.55 146.2 153.7 145.7 154.8 144.5 156.15 143.65 159.488671875 141.470703125 163.4 140.75
M 204.6 147.1
Q 203.85 147.45 203.3 147.75 201.2 148.9 198.75 149.35 197.8 150.05 196.65 150.4 195.3 150.85 194.35 151.9 193.95 152 193.55 152.1 193.525390625 152.1193359375 193.5 152.15 195.2638671875 152.071484375 197 152 197.1625 151.872265625 197.3 151.75 197.45 151.65 197.55 151.5 198.65 151 199.8 150.65 199.9 150.65 200 150.6 200.15 150.5 200.3 150.35 200.45 150.2 200.6 150.05 201.4 149.9 202.15 149.8 203.45 149.6 204.55 149.15 204.55 150.4 204.55 151.6 204.55 151.6408203125 204.55 151.65 205.550390625 151.6310546875 206.55 151.55 206.55 149.780859375 206.55 148 206.9 147.65 207.25 147.3 204.7 144.2 200.75 142.5 199.85 142.1 198.95 141.75 198.95 140.3 199 138.85 199.02578125 138.2548828125 198.9 137.7 198.84296875 137.1826171875 198.65 136.7 198.65 135 198.75 133.35 198.8 132.2 198.4 131.15 198.5 130.1 198.2 129.15 198.4 128.8 198.55 128.45 198.6 128.3 198.65 128.15 198.65 127.85 198.65 127.55 198.65 126.95 198.65 126.3 198.6 126.15 198.55 126 198.2 125.9 197.85 125.8 197.85 125.75 197.8 125.75 197.7 125.6 197.55 125.45 197.45 125.35 197.35 125.2 196.4 124.9 195.5 124.55 195.25 124.45 195 124.35 188 124.1 181.05 123.85 181.05 121.1 181.05 118.35 181.05 115.7 181.05 113.1 181 112.95 180.9 112.85 180.6 112.4 180.65 111.85 180.65 111.7 180.65 111.55 180.65 111.4 180.55 111.35 180.25 111.1 180 110.75 179.9 110.6 179.7 110.45 170.1 111.5 161 114.25 160.95 113.95 160.8 113.75 160.75 113.55 160.55 113.4 160.55 113.25 160.55 113.1 160.35 112.65 160.2 112.15 160.15 112.05 160.15 111.9 159.95 111.55 159.8 111.25 159.75 111.1 159.75 110.95 159.75 110.8 159.75 110.65 159.95 108.9 159.6 107.2 159.4 106.3 158.95 105.4 158.95 105.1 158.95 104.8 158.95 104.65 158.95 104.5 158.9 104.35 158.8 104.25 158.45 103.8 158.5 103.25 158.55 103.1 158.55 102.95 158.5 102.8 158.4 102.7 158.25 102.5 158.1 102.35 158.05 102.05 157.95 101.75 157.85 101.6 157.7 101.45 156.4 101.4 155.05 101.4 154.9 101.45 154.75 101.55 154.2 101.95 153.7 102.45 153.5 102.6 153.3 102.75 151.591015625 103.4580078125 149.9 104.2 144.6642578125 106.5412109375 139.6 109.3 139.05 109.35 138.55 109.3 138.5 109.3 138.45 109.2 138.15 108.2 137.25 107.65 137.05 107.5 136.9 107.35 136.85 107.2 136.8 107.05 136.75 106.9 136.7 106.75 136.3 106.45 135.9 106.1 135.75 106 135.6 105.85 134.9 104.65 134.35 103.4 134.1 102.7 133.55 102.15 133.55 102 133.5 101.85 132.95 100.55 132 99.4 131.55 98.85 131.4 98.15 131.1 98.05 130.8 97.9 130.75 97.9 130.65 97.85 130.55 97.75 130.5 97.65 130.35 97.5 130.25 97.35 129.15 97.3 128 97.25 125.5 98.9 123.3 101.3 118.5 106.55 114.6 112.2 114.1 111.8 113.5 111.45 107.35 107.75 101.7 103.15 101.15 103 100.6 102.8 100.4 102.75 100.25 102.65 99.2 102.6 98.1 102.65 98 102.65 97.9 102.75 97.95 103.3 97.65 103.7 97.55 103.85 97.5 104 97.5 104.3 97.5 104.6 97.25 108.75 97.2 112.9 97.1 118.1 97.1 123.35 91.85 123 86.8 121.35 83.539453125 120.3080078125 80.55 120.3 79.0927734375 120.304296875 77.7 120.55 77.15 120.5 76.65 120.5 76.65 120.65 76.65 120.8 76.4 120.85 76.2 120.9 76.4 121.3 76.55 121.75 76.35 124.5 76.35 127.3 76.35 132.5 76.35 137.7 76.35 139.05 76.35 140.4 74.4 140.8 72.45 141.1 67.4 141.85 64.3 144.15 64.75 145.1 65.35 145.9 65.05 146.75 64.8 147.65 64.35 149.05 64.85 150.35 64.9322265625 152.32109375 65.15 154.25 66.1814453125 154.2580078125 67.2 154.25 66.9810546875 151.9818359375 66.8 149.7 66.6 149.35 66.6 148.9 66.6 148.85 66.55 148.75 66.7 148.15 66.95 147.6 69.9 150.3 72.5 153.35 72.75859375 153.834765625 73.05 154.25 74.5884765625 154.27421875 76.1 154.25 72.2943359375 149.5224609375 67.75 145.6 67.9 145.1 67.85 144.6
L 67.85 144.5
Q 67.35 144.4 66.85 144.4 66.8 144.3 66.7 144.2 66.55 144.1 66.45 143.95 73.9017578125 142.6900390625 80.55 140.55 83.1357421875 139.7521484375 85.6 138.8 85.6 138.65 85.6 138.5 85.6 138.1 85.6 137.7 85.6 137.65 85.6 137.6 85.55 137.4 85.5 137.25 83.65 134.4 82.4 131.2 81.446484375 128.647265625 80.55 126.05 79.9888671875 124.4666015625 79.45 122.85 79.2 122.55 78.95 122.2 78.85 122.05 78.75 121.9 78.7 121.6 78.6 121.3
L 78.6 121.25
Q 78.6 121.15 78.6 121.05 79.5765625 121.30703125 80.55 121.55 89.99375 123.8234375 99.15 124.05 99.15 123.75 99.15 123.45 99.15 119.3 99.1 115.15 99.05 109.45 99.85 104.1 100.6 104.6 101.35 105.1 103.5 106.6 105.7 108 106.2 108.65 106.85 109.15 110.05 111.3 113.25 113.3 115.05 113.15 116.85 113 118.1 110.75 119.65 108.7 123.65 103.4 128.5 98.85 128.95 98.8 129.35 98.85 129.4 98.85 129.45 98.95 129.5 99.15 129.55 99.25 130.1 100.45 130.95 101.45 131.2 101.75 131.4 102.05 131.45 102.2 131.45 102.35 131.5 102.5 131.5 102.65 132.45 103.75 132.9 105.1 133.15 105.75 133.45 106.35 134.15 106.9 134.7 107.65 134.75 107.75 134.75 107.9 135.75 108.65 136.35 109.75 136.4 109.9 136.4 110.05 136.75 110.15 137.1 110.25 137.2 110.3 137.25 110.35 137.3 110.45 137.35 110.55 137.5 110.7 137.65 110.85 138.85 110.9 140.1 110.9
L 140.1 110.85
Q 144.9904296875 108.0203125 149.9 105.7 152.9712890625 104.2814453125 156.05 103.05 156.55 103.4 156.5 104 156.5 104.15 156.5 104.3 156.6 104.45 156.7 104.6 156.8 104.75 156.9 104.9 156.9 105.35 156.9 105.85 156.9 106 156.9 106.15 157.05 106.45 157.1 106.75 157.25 107.7 157.55 108.6 157.6 108.75 157.7 108.9 157.7 109.35 157.7 109.85 157.7 110.6 157.7 111.35 157.7 111.5 157.7 111.65 157.9 112.15 158.05 112.6 158.1 112.75 158.1 112.9 158.2 113.05 158.3 113.2 158.6 114.15 159.05 115.05 159.15 115.2 159.25 115.35 168.85 113.55 178.2 111.65 178.8 111.95 178.65 112.6 178.6 112.75 178.6 112.9 179.3 115.7 179.15 118.75 179 121.65 179 124.55 186.05 124.85 193.15 125.1 194.15 125.65 195.3 125.85
L 195.3 125.9
Q 195.35 125.95 195.45 126.05 195.15 126 194.85 126 195.05 127.6 195.7 129.15 195.55 129.25 195.4 129.4 195.35 129.85 195.25 130.3 195.25 130.45 195.2 130.6 193.95 132.35 192.75 134.05 191.3833984375 135.9705078125 190.1 137.7 189.68125 138.3119140625 189.25 138.9 196.95 142.1 204.6 147.1
M 196.65 132.05
Q 196.7 132.15 196.7 132.3 196.7 133.85 196.7 135.45 196.7 136.3 196.7 137.2 196.769921875 137.4482421875 196.8 137.7 197.1267578125 139.071484375 197 140.55 197 140.7 197 140.9 194.05 139.65 191.7 138.6 191.75 138.45 191.85 138.35 192.1 138.15 192.4 138 192.528515625 137.85078125 192.65 137.7 193.7529296875 136.3853515625 194.65 134.95 195.6 133.45 196.65 132.05
M 79 127.95
Q 79.7375 129.94140625 80.55 131.85 81.78828125 134.8470703125 83.2 137.7 83.373828125 138.0509765625 83.55 138.4 82.05859375 138.8970703125 80.55 139.35 79.479296875 139.659375 78.4 139.95 78.3419921875 138.8287109375 78.3 137.7 78.25 135.909375 78.25 134.1 78.2 130.15 78.35 126.2 78.7 127.05 79 127.95 Z" stroke="none" fill="#000000"></path>

<path d="M 203.3 147.75
Q 203.85 147.45 204.6 147.1 196.95 142.1 189.25 138.9 189.68125 138.3119140625 190.1 137.7 191.3833984375 135.9705078125 192.75 134.05 193.95 132.35 195.2 130.6 195.25 130.45 195.25 130.3 195.35 129.85 195.4 129.4 195.55 129.25 195.7 129.15 195.05 127.6 194.85 126 195.15 126 195.45 126.05 195.35 125.95 195.3 125.9
L 195.3 125.85
Q 194.15 125.65 193.15 125.1 186.05 124.85 179 124.55 179 121.65 179.15 118.75 179.3 115.7 178.6 112.9 178.6 112.75 178.65 112.6 178.8 111.95 178.2 111.65 168.85 113.55 159.25 115.35 159.15 115.2 159.05 115.05 158.6 114.15 158.3 113.2 158.2 113.05 158.1 112.9 158.1 112.75 158.05 112.6 157.9 112.15 157.7 111.65 157.7 111.5 157.7 111.35 157.7 110.6 157.7 109.85 157.7 109.35 157.7 108.9 157.6 108.75 157.55 108.6 157.25 107.7 157.1 106.75 157.05 106.45 156.9 106.15 156.9 106 156.9 105.85 156.9 105.35 156.9 104.9 156.8 104.75 156.7 104.6 156.6 104.45 156.5 104.3 156.5 104.15 156.5 104 156.55 103.4 156.05 103.05 152.9712890625 104.2814453125 149.9 105.7 144.9904296875 108.0203125 140.1 110.85
L 140.1 110.9
Q 138.85 110.9 137.65 110.85 137.5 110.7 137.35 110.55 137.3 110.45 137.25 110.35 137.2 110.3 137.1 110.25 136.75 110.15 136.4 110.05 136.4 109.9 136.35 109.75 135.75 108.65 134.75 107.9 134.75 107.75 134.7 107.65 134.15 106.9 133.45 106.35 133.15 105.75 132.9 105.1 132.45 103.75 131.5 102.65 131.5 102.5 131.45 102.35 131.45 102.2 131.4 102.05 131.2 101.75 130.95 101.45 130.1 100.45 129.55 99.25 129.5 99.15 129.45 98.95 129.4 98.85 129.35 98.85 128.95 98.8 128.5 98.85 123.65 103.4 119.65 108.7 118.1 110.75 116.85 113 115.05 113.15 113.25 113.3 110.05 111.3 106.85 109.15 106.2 108.65 105.7 108 103.5 106.6 101.35 105.1 100.6 104.6 99.85 104.1 99.05 109.45 99.1 115.15 99.15 119.3 99.15 123.45 99.15 123.75 99.15 124.05 89.99375 123.8234375 80.55 121.55 79.5765625 121.30703125 78.6 121.05 78.6 121.15 78.6 121.25
L 78.6 121.3
Q 78.7 121.6 78.75 121.9 78.85 122.05 78.95 122.2 79.2 122.55 79.45 122.85 79.9888671875 124.4666015625 80.55 126.05 81.446484375 128.647265625 82.4 131.2 83.65 134.4 85.5 137.25 85.55 137.4 85.6 137.6 85.6 137.65 85.6 137.7 85.6 138.1 85.6 138.5 85.6 138.65 85.6 138.8 83.1357421875 139.7521484375 80.55 140.55 73.9017578125 142.6900390625 66.45 143.95 66.55 144.1 66.7 144.2 66.8 144.3 66.85 144.4 67.35 144.4 67.85 144.5
L 67.85 144.6
Q 67.9 145.1 67.75 145.6 72.2943359375 149.5224609375 76.1 154.25 78.3203125 154.266796875 80.55 154.25 88.1818359375 154.1904296875 95.9 154 93.236328125 152.7779296875 91.45 150.25 91.35 150.15 91.2 150.05 91.1 149.95 91 149.85 90.95 149.75 90.85 149.65 90.85 149.55 90.8 149.45 90.8 149.35 90.8 149.25 90.8 149.05 90.8 148.85 90.8 148.75 90.8 148.65 90.8 148.55 90.8 148.45 90.8 148.15 90.8 147.9 90.8 147.8 90.8 147.7 91.4 146 92.75 144.9 97.55 141.05 103.65 140.8 108.05 140.6 112.15 142.05 113.45 142.55 114.65 143.3 114.75 143.4 114.85 143.5 114.9 143.6 115 143.7 115.05 143.75 115.15 143.8 115.2 143.85 115.3 143.9 115.5 143.95 115.65 144 115.7 144.1 115.75 144.2 115.85 144.3 115.9 144.4 116.05 144.6 116.25 144.8 116.35 144.9 116.45 145 116.55 145.1 116.7 145.2 116.75 145.3 116.8 145.4 116.85 145.5 116.9 145.6 116.9 145.7 116.95 145.8 117.05 145.9 117.15 146 117.25 146.05 117.35 146.15 117.5 146.25 117.6 146.35 117.65 146.45 117.75 146.55 117.75 146.65 117.8 146.75 117.85 146.85 117.85 146.95 117.9 147.15 117.95 147.35 117.95 147.45 117.95 147.55 117.95 147.65 117.95 147.75 117.95 147.85 118 147.9 118.05 148.05 118.1 148.15 118.15 148.25 118.2 148.35 118.2 148.45 118.2 148.55 118.2 148.65 118.2 148.75 118.2 148.9 118.2 149.1 118.2 149.2 118.2 149.3 118.2 149.4 118.2 149.5 118.2 149.8 118.2 150.1 118.2 150.2 118.2 150.3 118.15 150.4 118.1 150.5 118.05 150.6 118 150.7 117.95 150.8 117.95 150.9 117.95 151 117.95 151.1 117.95 151.2 117.95 151.3 117.95 151.4 117.95 151.5 117.9 151.6 117.85 151.65 117.8 151.75 117.75 151.85 117.5 152.15 117.25 152.5 117 152.9 116.6 153.25 116.422265625 153.40546875 116.25 153.55 123.19453125 153.45 130.15 153.45 140.044140625 153.4197265625 149.9 153.25 153.9408203125 153.2248046875 157.95 153.15 157.338671875 153.03984375 156.7 152.9 153.6 152.2 152.4 149.3 152.3 149.2 152.2 149.1 152.1 149 152.05 148.9 151.8 148.65 151.6 148.35 151.6 148.25 151.6 148.15 151.6 147.65 151.6 147.15 151.6 146.65 151.6 146.15 151.6 145.8 151.6 145.4 151.7 145.3 151.75 145.2 151.8 145.1 151.85 145 151.9 144.9 151.95 144.8 153 143.7 154.3 142.9 158 140.55 162.3 139.95 166.8 139.4 170.85 140.95 172.4 141.55 173.45 142.7 173.5 142.75 173.6 142.75 173.75 142.8 173.9 142.85 174.1 142.9 174.3 142.95 174.35 143.05 174.45 143.15 175.1 143.75 175.75 144.4 176.1 144.8 176.5 145.1 176.55 145.2 176.6 145.3 176.6 145.4 176.65 145.5 176.65 145.7 176.65 145.9 176.8 146 176.85 146.15 176.9 146.2 176.9 146.3 176.9 146.5 176.9 146.7 177 146.8 177.05 146.9 177.1 147 177.2 147.1 177.2 147.2 177.2 147.3 177.2 147.5 177.2 147.7 177.2 148 177.2 148.25 177.2 148.35 177.2 148.45 177.15 148.55 177.1 148.65 176.85 149.45 176.25 150.2 175.55 151.1 174.6 151.8 172.6810546875 152.450390625 170.75 152.85 182.159375 152.5833984375 193.5 152.15 193.525390625 152.1193359375 193.55 152.1 193.95 152 194.35 151.9 195.3 150.85 196.65 150.4 197.8 150.05 198.75 149.35 201.2 148.9 203.3 147.75 Z" stroke="none" fill="#FDDF5E"></path>
</g>
</g>
</g>
</g>
</svg>
