
<svg viewBox="0 0 145 107" height="107px" width="145px" y="0px" x="0px" preserveAspectRatio="none" xmlns:xlink="http://www.w3.org/1999/xlink" version="1.1" xmlns="http://www.w3.org/2000/svg">
<defs></defs>

<g id="Layer_1"></g>

<g id="Layer_2">
<g transform="matrix( 1, 0, 0, 1, 8,14.05)" id="Layer_1">
<g>
<g>
<g>
<path d="M 5.05 -8.3
Q 3.45 -7.9 2.45 -6.6 -1.45 -1.65 -3.25 4.55 -5.05 10.85 -4 17.3 -2.2615234375 28.2625 6.6 34.85 0.4900390625 41.0234375 -2.85 48.85 -4.05 51.55 -5.05 54.3 -6.35 57.8 -3.75 60.3 -0.7 63.25 2.95 65.4 7.95 68.45 13.4 69.8 9.3 71.15 5.35 72.9 4.6 73.25 4.3 73.95 2.9 76.9 5.75 79 19 89.05 35.8 87.4 37.2 87.25 38.55 87.3 39.712890625 87.333203125 40.4 87 44.90546875 90.8267578125 50.8 92.1 56.95 93.45 63.25 92.8 65.35 92.6 67.45 92.45 73.7 92.05 79.6 90.2 85.316015625 88.4048828125 89.9 84.75 90.681640625 85.398046875 91.95 85.7 99.75 87.5 107.7 85.45 116.75 83.1 123.2 76.45 123.2 76.35 123.25 76.25 123.3 76.15 123.4 76.05 124.95 74.3 126.05 72.25 127.3 69.95 124.9 68.75 121.2 66.9 117.25 65.7 117.2 65.65 117.1 65.6 116.8 65.35 116.45 65.15 116.3 65.05 116.2 64.95 122.2 62.7 128.4 60.5 132.9 58.9 131.15 54.3 130.2 51.8 129.35 49.2 126.269140625 39.3583984375 119.6 31.75 124.55 28.35 127 23 131.1 14.1 129 4.4 127.9 -0.55 125.35 -4.95 120.95 -12.6 112 -11.75 103.8 -11.45 96.3 -8.1 92.3474609375 -6.3232421875 90.15 -3 89.2244140625 -4.0193359375 88.1 -4.95 85.8 -6.85 84.7 -4.15 83.65 -1.55 81.75 0.3 80.3056640625 -3.1501953125 77.7 -5.75 77.0615234375 -6.3669921875 76.35 -6.95 73.6 -9.25 70.3 -10.65 63 -13.7 54.95 -13.1 50.6 -12.8 46.25 -11.8 44.15 -11.3 42 -10.7 39 -9.85 39.05 -7.15 39.05 -6.7771484375 39.2 -6.5 38.2654296875 -6.8189453125 37.3 -7.15 35 -8.3 32.35 -8.65 24.7 -9.75 16.95 -9.9 10.95 -9.85 5.05 -8.3
M 5.15 -3.9
Q 8.35 -5.15 11.85 -5.55 20.05 -6.4 28.25 -5.35 34.16171875 -4.6279296875 39.5 -2.05 36.710546875 -0.0849609375 35 3 32.47109375 7.6115234375 32.85 12.9 31.06328125 10.34375 28.6 8.25 21.05 1.9 11.25 1.25 10.65 1.35 10.1 1.75 5.95 4.6 4.8 9.7 4.15 12.5 3.9 15.35 3.2 24.95 10.5 30.8 10.689453125 30.9529296875 10.85 31.05 10.16328125 31.6392578125 9.45 32.2 6.523828125 29.7697265625 4.15 26.7 1.6 23.4 0.4 19.35 -0.5 16.3 -0.4 13.05 -0.2 7.25 1.85 1.75 3.05 -1.35 5.15 -3.9
M 43.5 -4.05
Q 43.4626953125 -4.0369140625 43.4 -4.05 43.4005859375 -4.0623046875 43.35 -4.1 43.4345703125 -4.07734375 43.5 -4.05
M 48.5 -6.65
Q 46.85 -7.1 46.4 -7.7 52.75 -9.25 59.3 -9.1 63.1 -9 66.55 -7.85 67.1046875 -7.661328125 67.6 -7.45 76.27421875 -4.0599609375 79.1 4.7 79.45 5.75 80.55 6 82.8 6.4 84.15 4.35 85.7 1.95 87.35 -0.3 87.4 -0.25 87.45 -0.2 87.5 -0.1 87.55 -0.05 87.6 0 87.7 0.05 87.75 0.15 87.8 0.2 88 0.4 88.2 0.6 88.25 0.65 88.3 0.7 88.4173828125 0.8830078125 88.5 1.05 88.90390625 1.6837890625 89.2 2.3 90.238671875 4.2451171875 90.8 6.35 91.4 8.6 91.45 10.95 91.5 11.6 91.5 12.25 91.45 12.3 91.4 12.4 91.35 12.45 91.35 12.5 91.3 12.55 91.3 12.65 91.25 12.7 91.2 12.75 91.2 12.9 91.15 13 91.15 13.15 91.15 13.25 91.1 13.35 91.1 13.4 90.2 14.75 89.15 15.95 88.65 16.45 87.95 16.65 85 17.4 85.05 20 85.05 20.6 85.6 20.8 88.9 22.1 91.65 19.35 94.1 16.95 95 13.7 95.9 10.45 95.3 7.15 94.5701171875 3.34375 92.65 0.2 93.484375 -1.12890625 94.8 -2.1 104.75 -9.3 117.2 -7.35 120.1 -5.75 121.85 -3 127.15 5.4 125.55 15.4 124.35 23.15 118.05 27.8 117.3201171875 28.3529296875 117 29 116.433203125 28.46796875 115.85 27.95 116.188671875 27.67421875 116.5 27.35 123.45 20.05 122.5 9.85 122.3 7.45 121.85 5.15 121.15 1.05 117.3 0.2 109.4 0.65 103.55 6.25 97.25 12.2 97.7 20.5 97.706640625 20.610546875 97.7 20.7 96.8693359375 20.6861328125 96 20.7 92.35 20.7 90.05 23.3 89.35 24.1 90 24.95 91.85 27.25 94.35 25.1 95.2880859375 24.946875 96.2 24.9 97.7380859375 24.81484375 99.25 25 100.45 25.1 101.7 25 102.15 25.3 102.65 25.45 117.2 30.5 122.8 44.85 124.8 50 127.05 55 127.05 55.1 127.05 55.2 127.05 55.3 127.1 55.4 127.1 55.5 127.1 55.6 127.1 55.9 127.1 56.2 127.15 56.3 127.05 56.4 121.75 58.95 116.05 60.5 114.95 60.8 113.9 61.05 113.5548828125 61.1212890625 113.2 61.2 111.1482421875 61.8400390625 110.1 63.5 110.085546875 63.5697265625 110.05 63.65 109.8546875 64.0021484375 109.7 64.4 109.25 65.6 110.35 66.3 111.3427734375 66.9181640625 112.35 67.5 116.773828125 69.983984375 121.65 71.65 120.1 73.7 118.05 75.35 108.1 83.35 94.95 82.5 94.3 82.45 93.85 82.05 93.3224609375 81.63125 92.8 81.35 92.3080078125 81.0728515625 91.8 80.95 91.470703125 80.123828125 90.1 79.75 89.75 79.75 89.5 80 86.35 82.95 82.4 84.65 76.65 87.15 70.5 88.05 68.95 88.25 67.4 88.45 61.5 89.2 55.55 88.75 49.4 88.3 44.25 85 42.2 83.7 40.6 81.85 39.8 80.95 38.75 81.5 37.4626953125 82.1435546875 37.5 83.15 36.6345703125 83.1087890625 35.75 83.15 34.9462890625 83.166796875 34.15 83.25 25.75 84.15 17.9 81.25 12.75 79.4 8.6 75.9 13.3 74 18.15 72.4 18.260546875 72.3630859375 18.35 72.3 19.010546875 72.1353515625 19.65 72.05 22.830078125 71.5681640625 22.95 68.9 22.95 68.85546875 22.95 68.8 22.95 68.7556640625 22.95 68.7 22.95 68.2 22.5 68 21.5517578125 67.5435546875 20.55 67.15 18.69375 66.5068359375 16.65 66.15 10.95 65.2 5.8 62.4 1.85 60.25 -1.3 57.05 -1.25 56.8 -1.15 56.55 -1 56.2 -0.95 55.75 -0.9 55.65 -0.9 55.5 -0.9 55.4 -0.9 55.25 -0.9 55.2 -0.9 55.15 -0.8 54.95 -0.75 54.75 1.55 47.15 6.6 40.95 11.65 34.75 18.55 30.8 23.95 27.65 30 26.7 32.55 26.25 35.1 26.8 35.287109375 26.8380859375 35.45 26.85 37.1984375 27.1181640625 38 26.2 38.189453125 26.46875 38.35 26.7 29.546875 29.007421875 26.05 37.55 24.3 41.75 24.05 46.2 23.65 52.4 27.4 57.35 31.0677734375 62.225390625 36.7 64 36.478515625 64.8796875 37.15 65.8 36.5330078125 65.4111328125 35.4 65.6 34.65 65.75 34.45 66.4 33.7 68.55 34.9 70.65 36.95 76 42.9 76.85 49.1771484375 77.7890625 54.85 75.15 55.1978515625 76.0177734375 55.75 76.8 57.25 78.9 58.65 81.1 60 83.2 61.9 84.65 62.8 85.35 63.95 85.15 66.45 84.65 67.7 82.4 69.4 79.45 71 76.5 71.5751953125 75.4802734375 71.85 74.4 73.5228515625 75.13046875 75.25 75.7 81.5 77.8 87.8 76.25 93.1 75 96.5 70.95 97.8 69.45 98 67.6 98.1 66.9 97.55 66.4 95.4 64.45 94.2 67 92.05 70.95 87.6 72.2 81.55 73.95 75.65 71.65 69.9990234375 69.438671875 65.55 65.45 66.17578125 65.2927734375 66.8 65.1 70.2 64 73.35 62.35 74.471484375 61.76484375 74.8 60.95 77.771875 61.8734375 80.6 63.35 84.65 65.45 87.85 68.7 89.45 70.35 91.2 69.1 92.301171875 68.329296875 91.9 67.35 92.779296875 67.178515625 93.7 66.65 97.65 64.45 100.15 60.65 103.85 56.2 104.35 50.4 104.6 47.15 104.05 43.85 102.75 35.75 96.3 30.55 89.95 25.35 81.7 25.8 81.25 25.9 80.75 25.95 75.55 26.9 71.25 30.1 66.670703125 33.5087890625 64.45 38.4 64.278125 37.79375 64.1 37.2 62.8689453125 33.0001953125 59.55 30.95 62.4498046875 25.8818359375 64.85 20.5 65.2 19.6 65.75 18.8 66.9 17 66.4 15.1 66.15 14.2 65.15 14.15 63.1677734375 14.15 62.2 15.85 62.07421875 16.1322265625 61.95 16.45 59.8 22.05 57.05 27.35 56.244921875 28.8931640625 55.4 30.4 55.3720703125 30.419921875 55.35 30.45 55.0248046875 30.8751953125 54.9 31.25 54.722265625 31.5583984375 54.55 31.85 45.45 30.05 40.2 22.45 36.55 17.05 36.9 10.6 37.25 4.8 41.75 1.5 44.25 -0.3 47.3 -0.6 49.55 -0.8 51.6 -1.75 52.35 -2.1 52.2 -2.9 51.75 -5.8 48.5 -6.65
M 101.45 21.05
Q 101.4658203125 20.8755859375 101.45 20.65 101 15.55 104.15 11.45 109.1 4.95 117.15 4.45 118.15 6.95 118.5 9.7 119.55 18.75 112.8 24.75 112.5359375 24.9884765625 112.3 25.25 107.3783203125 21.9984375 101.45 21.05
M 91.8 44.6
Q 93.85 40.55 93.25 36 93.0123046875 34.1123046875 92.3 32.6 99.3546875 37.4400390625 100.35 45.85 100.7 48.8 100.2 51.75 98.6 57.45 94.2 61.45 92.75 62.75 90.8 63.05 89.4296875 63.2287109375 88.65 64 84.8203125 60.6314453125 80 58.55 74.38515625 56.1033203125 68.35 55.4 67.90546875 54.2994140625 67.5 53.15 69.2802734375 54.4267578125 71.7 55.1 78.05 56.85 83.65 53.5 89.05 50.25 91.8 44.6
M 57.35 34.7
Q 57.40625 34.608984375 57.45 34.5
L 57.5 34.55
Q 58.500390625 35.4328125 59.2 36.5 58.182421875 35.73125 56.95 35.2 57.178515625 34.9716796875 57.35 34.7
M 41.15 29.6
Q 44.6458984375 32.8150390625 49.05 34.6 48.6 34.7646484375 48.15 34.95 44.1109375 36.63984375 41 39.65 42.327734375 39.2138671875 43.8 39.65 43.9 39.65 44.05 39.65 44.2 39.75 44.3 39.95 44.35 40.05 44.4 40.2 44.45 40.3 44.6 40.45 43.25 46.65 37.25 48.95
L 36.4 48.4 35.95 47.25
Q 34.8015625 50.54765625 35.05 54.3 35.2638671875 57.5091796875 37.1 59.5 36.8037109375 59.409375 36.5 59.3 30.25 57 28.35 50.75 28.15 49.5 28.05 48.2 27.8 44.3 28.95 40.6 30.65 35 35.8 31.95 37.6 31 39.6 30.75 40.8123046875 30.624609375 41.15 29.6
M 75.65 32.4
Q 75.8 32.45 75.95 32.5
L 76.65 33.2
Q 76.15 38.65 70.55 40 69.4 40.35 68.4 40.05 68.4 39.95 68.4 39.9 68.3 39.7 68.35 39.35 68.45 38.7 68.85 38.25 69.05 38 69.4 37.45
L 69.1 39.1
Q 70.3 33.4 75.65 32.4
M 30.75 22.5
Q 28.75 22.5 26.75 23.05 23 24.1 19.45 25.8 16.5927734375 27.14921875 14 28.85 11.733203125 26.91015625 10.1 24.35 7.75 20.65 7.9 16.15 8.05 11.55 9.95 7.35 10.05 7.2 10.15 7.05 10.25 6.85 10.35 6.7 10.6 6.45 10.85 6.2 10.9 6.15 11 6.1 11.25 5.8 11.35 5.45 17.45 5.5 22.7 8.6 30.7830078125 13.360546875 32.05 22.35 31.421484375 22.3939453125 30.75 22.5
M 39.4 70.9
Q 38.95 70.1 38.65 69.25 38.35 68.35 38.05 67.5 37.9771484375 66.8306640625 37.7 66.4 38.0435546875 66.6083984375 38.4 66.45 42.75 64.15 47.45 62.4 49.07109375 61.778515625 50.7 61.25 52.3087890625 63.3654296875 54.85 64.5 57.3185546875 65.5640625 59.85 65.8 59.237890625 66.567578125 58.6 67.3 52.75 74 43.7 72.9 41.2 72.6 39.4 70.9 Z" stroke="none" fill="#000000"></path>

<path d="M 38.65 69.25
Q 38.95 70.1 39.4 70.9 41.2 72.6 43.7 72.9 52.75 74 58.6 67.3 59.237890625 66.567578125 59.85 65.8 57.3185546875 65.5640625 54.85 64.5 52.3087890625 63.3654296875 50.7 61.25 49.07109375 61.778515625 47.45 62.4 42.75 64.15 38.4 66.45 38.0435546875 66.6083984375 37.7 66.4 37.9771484375 66.8306640625 38.05 67.5 38.35 68.35 38.65 69.25
M 57.5 -5.1
Q 55.65 -4.2 55.25 -3.1 54.95 -2.2 55.55 -1.25 56.1 -0.4 57.1 0 57.85 0.15 59.05 0.1
L 61.1 0
Q 53.35 0.75 47.35 6.35 43.95 9.8 43.25 13 42.75 14.95 43.25 16.85 43.8 18.8 45.25 20.1 47.1 21.85 50.1 21.8 52.85 21.75 55.35 20.35 57 19.55 59.95 17.45 61.2111328125 16.530859375 62.2 15.85 63.1677734375 14.15 65.15 14.15 66.15 14.2 66.4 15.1 66.9 17 65.75 18.8 65.2 19.6 64.85 20.5 62.4498046875 25.8818359375 59.55 30.95 62.8689453125 33.0001953125 64.1 37.2 64.278125 37.79375 64.45 38.4 66.670703125 33.5087890625 71.25 30.1 75.55 26.9 80.75 25.95 81.25 25.9 81.7 25.8 89.95 25.35 96.3 30.55 102.75 35.75 104.05 43.85 104.6 47.15 104.35 50.4 103.85 56.2 100.15 60.65 97.65 64.45 93.7 66.65 92.779296875 67.178515625 91.9 67.35 92.301171875 68.329296875 91.2 69.1 89.45 70.35 87.85 68.7 84.65 65.45 80.6 63.35 77.771875 61.8734375 74.8 60.95 74.471484375 61.76484375 73.35 62.35 70.2 64 66.8 65.1 66.17578125 65.2927734375 65.55 65.45 69.9990234375 69.438671875 75.65 71.65 81.55 73.95 87.6 72.2 92.05 70.95 94.2 67 95.4 64.45 97.55 66.4 98.1 66.9 98 67.6 97.8 69.45 96.5 70.95 93.1 75 87.8 76.25 81.5 77.8 75.25 75.7 73.5228515625 75.13046875 71.85 74.4 71.5751953125 75.4802734375 71 76.5 69.4 79.45 67.7 82.4 66.45 84.65 63.95 85.15 62.8 85.35 61.9 84.65 60 83.2 58.65 81.1 57.25 78.9 55.75 76.8 55.1978515625 76.0177734375 54.85 75.15 49.1771484375 77.7890625 42.9 76.85 36.95 76 34.9 70.65 33.7 68.55 34.45 66.4 34.65 65.75 35.4 65.6 36.5330078125 65.4111328125 37.15 65.8 36.478515625 64.8796875 36.7 64 31.0677734375 62.225390625 27.4 57.35 23.65 52.4 24.05 46.2 24.3 41.75 26.05 37.55 29.546875 29.007421875 38.35 26.7 38.189453125 26.46875 38 26.2 37.1984375 27.1181640625 35.45 26.85 29.620703125 28.7171875 24.25 31.85 17 36.05 11.5 42.1 4.5 49.9 6.35 56 7.75 60.3 13.6 63.6 15.2 64.5 18.45 66.05 19.596875 66.6234375 20.55 67.15 21.5517578125 67.5435546875 22.5 68 22.95 68.2 22.95 68.7 22.95 68.7556640625 22.95 68.8 22.95 68.85546875 22.95 68.9 22.830078125 71.5681640625 19.65 72.05 19.010546875 72.1353515625 18.35 72.3 17.4888671875 73.13828125 16.95 74.05 16.2 75.4 16.5 76.6 17.1 79.5 22 80.5 29.526953125 82.277734375 35.75 83.15 36.6345703125 83.1087890625 37.5 83.15 37.4626953125 82.1435546875 38.75 81.5 39.8 80.95 40.6 81.85 42.2 83.7 44.25 85 49.4 88.3 55.55 88.75 61.5 89.2 67.4 88.45 68.95 88.25 70.5 88.05 76.65 87.15 82.4 84.65 86.35 82.95 89.5 80 89.75 79.75 90.1 79.75 91.470703125 80.123828125 91.8 80.95 92.3080078125 81.0728515625 92.8 81.35 98.54765625 81.544140625 102.1 80.75 108.8 79.2 111.5 74.35 112.95 71.65 112.55 68.6 112.4861328125 68.0244140625 112.35 67.5 111.3427734375 66.9181640625 110.35 66.3 109.25 65.6 109.7 64.4 109.8546875 64.0021484375 110.05 63.65 110.085546875 63.5697265625 110.1 63.5 111.1482421875 61.8400390625 113.2 61.2 117.8234375 57.372265625 118.85 53 120 47.85 116.35 41.25 112.75 34.8 106.6 30.25 101.7732421875 26.649609375 96.2 24.9 95.2880859375 24.946875 94.35 25.1 91.85 27.25 90 24.95 89.35 24.1 90.05 23.3 92.35 20.7 96 20.7 96.8693359375 20.6861328125 97.7 20.7 97.706640625 20.610546875 97.7 20.5 97.25 12.2 103.55 6.25 109.4 0.65 117.3 0.2 121.15 1.05 121.85 5.15 122.3 7.45 122.5 9.85 123.45 20.05 116.5 27.35 116.188671875 27.67421875 115.85 27.95 116.433203125 28.46796875 117 29 117.3201171875 28.3529296875 118.05 27.8 124.35 23.15 125.55 15.4 127.15 5.4 121.85 -3 120.1 -5.75 117.2 -7.35 104.75 -9.3 94.8 -2.1 93.484375 -1.12890625 92.65 0.2 94.5701171875 3.34375 95.3 7.15 95.9 10.45 95 13.7 94.1 16.95 91.65 19.35 88.9 22.1 85.6 20.8 85.05 20.6 85.05 20 85 17.4 87.95 16.65 88.65 16.45 89.15 15.95 90.2 14.75 91.1 13.4 91.1 13.35 91.15 13.25 91.15 13.15 91.15 13 91.2 12.9 91.2 12.75 91.25 12.7 91.3 12.65 91.3 12.55 91.35 12.5 91.35 12.45 91.4 12.4 91.45 12.3 91.5 12.25 91.5 11.6 91.45 10.95 91.4 8.6 90.8 6.35 90.238671875 4.2451171875 89.2 2.3 88.90390625 1.6837890625 88.5 1.05 88.4173828125 0.8830078125 88.3 0.7 88.25 0.65 88.2 0.6 88 0.4 87.8 0.2 87.75 0.15 87.7 0.05 87.6 0 87.55 -0.05 87.5 -0.1 87.45 -0.2 87.4 -0.25 87.35 -0.3 85.7 1.95 84.15 4.35 82.8 6.4 80.55 6 79.45 5.75 79.1 4.7 76.27421875 -4.0599609375 67.6 -7.45 62.27265625 -7.29296875 57.5 -5.1
M 11.85 -5.55
Q 8.35 -5.15 5.15 -3.9 3.05 -1.35 1.85 1.75 -0.2 7.25 -0.4 13.05 -0.5 16.3 0.4 19.35 1.6 23.4 4.15 26.7 6.523828125 29.7697265625 9.45 32.2 10.16328125 31.6392578125 10.85 31.05 10.689453125 30.9529296875 10.5 30.8 3.2 24.95 3.9 15.35 4.15 12.5 4.8 9.7 5.95 4.6 10.1 1.75 10.65 1.35 11.25 1.25 21.05 1.9 28.6 8.25 31.06328125 10.34375 32.85 12.9 32.47109375 7.6115234375 35 3 36.710546875 -0.0849609375 39.5 -2.05 34.16171875 -4.6279296875 28.25 -5.35 20.05 -6.4 11.85 -5.55 Z" stroke="none" fill="#3333FF"></path>

<path d="M 26.75 23.05
Q 28.75 22.5 30.75 22.5 31.421484375 22.3939453125 32.05 22.35 30.7830078125 13.360546875 22.7 8.6 17.45 5.5 11.35 5.45 11.25 5.8 11 6.1 10.9 6.15 10.85 6.2 10.6 6.45 10.35 6.7 10.25 6.85 10.15 7.05 10.05 7.2 9.95 7.35 8.05 11.55 7.9 16.15 7.75 20.65 10.1 24.35 11.733203125 26.91015625 14 28.85 16.5927734375 27.14921875 19.45 25.8 23 24.1 26.75 23.05
M 101.45 20.65
Q 101.4658203125 20.8755859375 101.45 21.05 107.3783203125 21.9984375 112.3 25.25 112.5359375 24.9884765625 112.8 24.75 119.55 18.75 118.5 9.7 118.15 6.95 117.15 4.45 109.1 4.95 104.15 11.45 101 15.55 101.45 20.65 Z" stroke="none" fill="#33FF00"></path>

<path d="M 75.95 32.5
Q 75.8 32.45 75.65 32.4 70.3 33.4 69.1 39.1
L 69.4 37.45
Q 69.05 38 68.85 38.25 68.45 38.7 68.35 39.35 68.3 39.7 68.4 39.9 68.4 39.95 68.4 40.05 69.4 40.35 70.55 40 76.15 38.65 76.65 33.2
L 75.95 32.5
M 49.05 34.6
Q 44.6458984375 32.8150390625 41.15 29.6 40.8123046875 30.624609375 39.6 30.75 37.6 31 35.8 31.95 30.65 35 28.95 40.6 27.8 44.3 28.05 48.2 28.15 49.5 28.35 50.75 30.25 57 36.5 59.3 36.8037109375 59.409375 37.1 59.5 35.2638671875 57.5091796875 35.05 54.3 34.8015625 50.54765625 35.95 47.25
L 36.4 48.4 37.25 48.95
Q 43.25 46.65 44.6 40.45 44.45 40.3 44.4 40.2 44.35 40.05 44.3 39.95 44.2 39.75 44.05 39.65 43.9 39.65 43.8 39.65 42.327734375 39.2138671875 41 39.65 44.1109375 36.63984375 48.15 34.95 48.6 34.7646484375 49.05 34.6
M 57.45 34.5
Q 57.40625 34.608984375 57.35 34.7 57.178515625 34.9716796875 56.95 35.2 58.182421875 35.73125 59.2 36.5 58.500390625 35.4328125 57.5 34.55
L 57.45 34.5
M 93.25 36
Q 93.85 40.55 91.8 44.6 89.05 50.25 83.65 53.5 78.05 56.85 71.7 55.1 69.2802734375 54.4267578125 67.5 53.15 67.90546875 54.2994140625 68.35 55.4 74.38515625 56.1033203125 80 58.55 84.8203125 60.6314453125 88.65 64 89.4296875 63.2287109375 90.8 63.05 92.75 62.75 94.2 61.45 98.6 57.45 100.2 51.75 100.7 48.8 100.35 45.85 99.3546875 37.4400390625 92.3 32.6 93.0123046875 34.1123046875 93.25 36 Z" stroke="none" fill="#FFFFFF"></path>

<path d="M 18.35 72.3
Q 18.260546875 72.3630859375 18.15 72.4 13.3 74 8.6 75.9 12.75 79.4 17.9 81.25 25.75 84.15 34.15 83.25 34.9462890625 83.166796875 35.75 83.15 29.526953125 82.277734375 22 80.5 17.1 79.5 16.5 76.6 16.2 75.4 16.95 74.05 17.4888671875 73.13828125 18.35 72.3
M 18.55 30.8
Q 11.65 34.75 6.6 40.95 1.55 47.15 -0.75 54.75 -0.8 54.95 -0.9 55.15 -0.9 55.2 -0.9 55.25 -0.9 55.4 -0.9 55.5 -0.9 55.65 -0.95 55.75 -1 56.2 -1.15 56.55 -1.25 56.8 -1.3 57.05 1.85 60.25 5.8 62.4 10.95 65.2 16.65 66.15 18.69375 66.5068359375 20.55 67.15 19.596875 66.6234375 18.45 66.05 15.2 64.5 13.6 63.6 7.75 60.3 6.35 56 4.5 49.9 11.5 42.1 17 36.05 24.25 31.85 29.620703125 28.7171875 35.45 26.85 35.287109375 26.8380859375 35.1 26.8 32.55 26.25 30 26.7 23.95 27.65 18.55 30.8
M 112.35 67.5
Q 112.4861328125 68.0244140625 112.55 68.6 112.95 71.65 111.5 74.35 108.8 79.2 102.1 80.75 98.54765625 81.544140625 92.8 81.35 93.3224609375 81.63125 93.85 82.05 94.3 82.45 94.95 82.5 108.1 83.35 118.05 75.35 120.1 73.7 121.65 71.65 116.773828125 69.983984375 112.35 67.5
M 99.25 25
Q 97.7380859375 24.81484375 96.2 24.9 101.7732421875 26.649609375 106.6 30.25 112.75 34.8 116.35 41.25 120 47.85 118.85 53 117.8234375 57.372265625 113.2 61.2 113.5548828125 61.1212890625 113.9 61.05 114.95 60.8 116.05 60.5 121.75 58.95 127.05 56.4 127.15 56.3 127.1 56.2 127.1 55.9 127.1 55.6 127.1 55.5 127.1 55.4 127.05 55.3 127.05 55.2 127.05 55.1 127.05 55 124.8 50 122.8 44.85 117.2 30.5 102.65 25.45 102.15 25.3 101.7 25 100.45 25.1 99.25 25
M 46.4 -7.7
Q 46.85 -7.1 48.5 -6.65 51.75 -5.8 52.2 -2.9 52.35 -2.1 51.6 -1.75 49.55 -0.8 47.3 -0.6 44.25 -0.3 41.75 1.5 37.25 4.8 36.9 10.6 36.55 17.05 40.2 22.45 45.45 30.05 54.55 31.85 54.722265625 31.5583984375 54.9 31.25 55.0248046875 30.8751953125 55.35 30.45 55.3720703125 30.419921875 55.4 30.4 56.244921875 28.8931640625 57.05 27.35 59.8 22.05 61.95 16.45 62.07421875 16.1322265625 62.2 15.85 61.2111328125 16.530859375 59.95 17.45 57 19.55 55.35 20.35 52.85 21.75 50.1 21.8 47.1 21.85 45.25 20.1 43.8 18.8 43.25 16.85 42.75 14.95 43.25 13 43.95 9.8 47.35 6.35 53.35 0.75 61.1 0
L 59.05 0.1
Q 57.85 0.15 57.1 0 56.1 -0.4 55.55 -1.25 54.95 -2.2 55.25 -3.1 55.65 -4.2 57.5 -5.1 62.27265625 -7.29296875 67.6 -7.45 67.1046875 -7.661328125 66.55 -7.85 63.1 -9 59.3 -9.1 52.75 -9.25 46.4 -7.7 Z" stroke="none" fill="#FF0033"></path>
</g>
</g>
</g>
</g>
</g>
</svg>
