
<svg viewBox="0 0 272 172" height="172px" width="272px" y="0px" x="0px" preserveAspectRatio="none" xmlns:xlink="http://www.w3.org/1999/xlink" version="1.1" xmlns="http://www.w3.org/2000/svg">
<defs></defs>

<g id="Layer_2">
<g>
<g>
<g>
<path d="M 211.1 107.65
Q 211.25 105 210.85 102.4 210.3 104.3 209.85 106.2 209.05 109.45 207.35 112.3 207.35 112.45 207.35 112.6 207.2 113.05 207.25 113.55 207.25 113.7 207.25 113.85 206.9 114.4 206.55 115 205.9 116.2 205.6 117.5 205.6 117.7 205.55 117.85 203.95 120.7 201.7 123.1 200.3 124.7 199.1 126.45 198.75 126.6 198.45 126.75 197.65 127.15 197.25 127.95 189.6529296875 133.7609375 181.1 137.7 171.7740234375 142.0314453125 161.3 144.1 155.6251953125 145.22265625 149.9 145.65 141.602734375 146.298828125 133.2 145.5 115.4396484375 143.7947265625 99.05 137.7 89.9953125 134.3236328125 81.35 129.6 80.9462890625 129.3783203125 80.55 129.15 72.4619140625 124.46953125 67.6 116.7 67.3 115.7 66.75 114.7 65.85 113.15 64.4 112.1 64.35 111.95 64.35 111.8 64.3 111.5 64.3 111.15 63.7 110.25 63.3 109.3 63.3 109.45 63.3 109.55 63.3 111.25 63.9 112.75 63.95 115.15 64.5 117.5 64.95 119.35 64.9 121.35 65 121.45 65.05 121.6 65.1 121.7 65.15 121.85 65.15 121.95 65.15 122.1 65.05 123.1 65.35 124.05 65.45 124.3 65.55 124.55 65.55 124.65 65.55 124.8 65.55 125.5 65.55 126.25 65.55 126.4 65.55 126.5 65.65 126.65 65.7 126.75 65.8 127.25 65.8 127.75 65.8 127.85 65.8 128 65.9 128.1 65.95 128.2 66.05 128.35 66.1 128.45 66.15 128.6 66.15 128.7 66.2 129.35 66.2 129.95 66.2 130.05 66.2 130.2 66.2 130.3 66.25 130.4 66.5 130.7 66.8 130.95 66.8 131.05 66.85 131.15 67.1 131.8 67.4 132.4 67.45 132.5 67.5 132.65 68.85 134 69.85 135.55 70.5181640625 136.6478515625 71.25 137.7 71.313671875 137.75 71.35 137.8 71.65 138.05 71.95 138.3 72.75 139.1 73.65 139.75 73.75 139.9 73.8 140.05 73.95 140.25 74.05 140.5 74.8 140.9 75.4 141.45 76.15 142.15 77 142.7 77.05 142.85 77.1 142.95 77.2 143.1 77.25 143.2 77.6 143.35 77.9 143.45 78 143.6 78.1 143.7 78.5 144.45 79.25 144.75 79.3 144.9 79.4 145 79.8384765625 145.7419921875 80.55 146.15 80.8931640625 146.3697265625 81.3 146.5 81.45 146.6 81.55 146.75 81.75 147 81.85 147.25 82.1 147.35 82.35 147.45 82.65 147.6 82.9 147.7 83 147.85 83.05 147.95 83.1 148.1 83.15 148.2 84.3 149 85.45 149.8 86.3 150.4 87 151.1 87.1 151.1 87.2 151.15 87.6 151.25 88 151.3 88.1 151.45 88.25 151.6 88.3 151.7 88.4 151.8 88.6 151.95 88.85 152 90 152.45 91.2 152.95 92.040234375 153.5576171875 92.9 154.1 99.171484375 153.97890625 105.5 153.8 117.8 153.45 130.15 153.45 140.0439453125 153.419921875 149.9 153.25 168.21484375 153.0265625 186.4 152.4 193.651171875 147.98359375 199.3 141.35 199.45 141.2 199.6 141.1 200 140.85 200.45 140.6 200.55 140.45 200.65 140.35 201.15 139.5 201.6 138.6 201.65 138.5 201.7 138.4 202.0935546875 138.0802734375 202.4 137.7 202.7212890625 137.3072265625 202.95 136.85 203.45 135.85 204.3 135.2 204.35 135.05 204.4 134.95 204.55 134.6 204.5 134.2 205.2 133.45 205.65 132.45 206.2 131.25 207 130.25 207 130.15 207.05 130.05 207.05 129.9 207.1 129.8 207.2 129.65 207.3 129.55 207.85 128.85 208.35 128.05 208.35 127.95 208.35 127.8 208.35 127.45 208.35 127.1 208.4 126.95 208.5 126.85 208.75 126.6 209 126.35 209 126.2 209 126.1 209 125.85 209 125.6 209.55 124.8 209.7 123.9 209.95 122.55 209.95 121.2 210.05 121.05 210.15 120.95 210.2 120.8 210.3 120.7 210.35 120.55 210.35 120.45 210.4 119.85 210.4 119.2 210.4 119.1 210.4 118.95 210.4 118.85 210.5 118.75 210.55 118.6 210.65 118.45 210.65 113.05 211.1 107.65
M 66.6 82.15
Q 66.6 82.6 66.8 82.95 67.05 86.1 67.4 89.25 67.55 90.95 67.7 92.6 69.35 92.6 71 92.95 71.1 92.95 71.25 93 73.8 92.7 76.4 92.35 76.3 90.8 74.55 89.25 73.3 88.1 72.5 86.6 69.9 83.55 66.95 80.85 66.7 81.4 66.55 82 66.6 82.1 66.6 82.15
M 79 61.2
Q 78.7 60.3 78.35 59.45 78.2 63.4 78.25 67.35 78.25 70.3 78.4 73.2 79.479296875 72.909375 80.55 72.6 82.05859375 72.1470703125 83.55 71.65 81.9404296875 68.4623046875 80.55 65.1 79.7375 63.19140625 79 61.2
M 196.4 85.9
Q 196.3 85.95 196.2 85.95 195.8 86.1 195.4 86.2 195.25 86.35 195.05 86.45 194.35 86.75 194.15 87.4 194.15 87.5 194.1 87.55 193.4 87.9 192.65 88.15 198.45 89.1 204.55 90 204.55 87.45 204.55 84.85 204.55 83.65 204.55 82.4 203.45 82.85 202.15 83.05 201.4 83.15 200.6 83.3 200.45 83.45 200.3 83.6 200.15 83.75 200 83.85 199.9 83.9 199.8 83.9 198.65 84.25 197.55 84.75 197.45 84.9 197.3 85 196.85 85.4 196.4 85.9
M 191.85 71.6
Q 191.75 71.7 191.7 71.85 194.05 72.9 197 74.15 197 73.95 197 73.8 197.15 72.05 196.7 70.45 196.7 69.55 196.7 68.7 196.7 67.1 196.7 65.55 196.7 65.4 196.65 65.3 195.6 66.7 194.65 68.2 193.65 69.8 192.4 71.25 192.1 71.4 191.85 71.6
M 176.35 114.25
Q 182.95 110.45 188.4 105.1 174.35 111.5 158.7 113.35 154.289453125 113.88046875 149.9 114.1 130.701171875 115.2416015625 111.9 111.05 106.35 109.8 101.3 107.25 98.75 105.95 96.3 105 96.05 104.7 95.9 104.4 95.8 104.3 95.7 104.2 95.15 104 94.45 103.75 94.4 103.65 94.35 103.55 94.25 103.45 94.15 103.35 93.15 102.95 92.05 102.75 91.05 101.9 89.9 101.25 89.65 101.15 89.6 101.3 94.05 112.5 105.35 117.55 113.5 121.15 122.2 123.05 129 124.55 135.95 124.8 143.0384765625 125.036328125 149.9 123.9 154.6546875 123.132421875 159.3 121.7 168.25 118.95 176.35 114.25 Z" stroke="none" fill="#EE9D33"></path>

<path d="M 180.65 44.8
Q 180.65 44.65 180.55 44.6 180.25 44.35 180 44 179.9 43.85 179.7 43.7 170.1 44.75 161 47.5 160.95 47.2 160.8 47 160.75 46.8 160.55 46.65 160.55 46.5 160.55 46.35 160.35 45.9 160.2 45.4 160.15 45.3 160.15 45.15 159.95 44.8 159.8 44.5 159.75 44.35 159.75 44.2 159.75 44.05 159.75 43.9 159.87109375 42.8408203125 159.8 41.8 159.7380859375 41.12109375 159.6 40.45 159.4 39.55 158.95 38.65 158.95 38.35 158.95 38.05 158.95 37.9 158.95 37.75 158.9 37.6 158.8 37.5 158.45 37.05 158.5 36.5 158.55 36.35 158.55 36.2 158.5 36.05 158.4 35.95 158.25 35.75 158.1 35.6 158.05 35.3 157.95 35 157.85 34.85 157.7 34.7 156.4 34.65 155.05 34.65 154.9 34.7 154.75 34.8 154.2 35.2 153.7 35.7 153.5 35.85 153.3 36 151.591015625 36.7080078125 149.9 37.45 145.383203125 39.4697265625 141 41.8 140.2955078125 42.17109375 139.6 42.55 139.05 42.6 138.55 42.55 138.5 42.55 138.45 42.45 138.344140625 42.096875 138.15 41.8 137.8322265625 41.255859375 137.25 40.9 137.05 40.75 136.9 40.6 136.85 40.45 136.8 40.3 136.75 40.15 136.7 40 136.3 39.7 135.9 39.35 135.75 39.25 135.6 39.1 134.9 37.9 134.35 36.65 134.1 35.95 133.55 35.4 133.55 35.25 133.5 35.1 132.95 33.8 132 32.65 131.55 32.1 131.4 31.4 131.1 31.3 130.8 31.15 130.75 31.15 130.65 31.1 130.55 31 130.5 30.9 130.35 30.75 130.25 30.6 129.15 30.55 128 30.5 125.5 32.15 123.3 34.55 120.0685546875 38.084375 117.25 41.8 115.8744140625 43.603515625 114.6 45.45 114.1 45.05 113.5 44.7 111.194921875 43.31328125 108.95 41.8 105.232421875 39.2759765625 101.7 36.4 101.15 36.25 100.6 36.05 100.4 36 100.25 35.9 99.2 35.85 98.1 35.9 98 35.9 97.9 36 97.95 36.55 97.65 36.95 97.55 37.1 97.5 37.25 97.5 37.55 97.5 37.85 97.3810546875 39.825 97.3 41.8 97.226171875 43.975 97.2 46.15 97.1 51.35 97.1 56.6 91.85 56.25 86.8 54.6 83.539453125 53.5580078125 80.55 53.55 79.0927734375 53.554296875 77.7 53.8 77.15 53.75 76.65 53.75 76.65 53.9 76.65 54.05 76.4 54.1 76.2 54.15 76.4 54.55 76.55 55 76.35 57.75 76.35 60.55 76.35 67.1 76.35 73.65 74.4 74.05 72.45 74.35 67.4 75.1 64.3 77.4 64.75 78.35 65.35 79.15 65.05 80 64.8 80.9 64.35 82.3 64.85 83.6 64.95 86 65.25 88.35 65.6 90.5 65.65 92.7 65.25 92.75 64.85 92.8 62.6 93.45 60.25 94.2 60.15 94.25 60 94.3 59.95 94.35 59.95 94.45 59.25 94.5 58.6 94.6 59.2 94.6 59.85 94.65 59.8 94.65 59.75 94.7 59.65 94.8 59.6 94.9 59.6 95 59.6 95.1 59.6 95.2 59.6 95.3 59.6 95.4 59.6 95.5 59.6 95.55 59.6 95.6 59.55 95.6 59.45 95.65 59.4 95.65 59.4 95.8 59.4 95.95 59.4 96.1 59.4 96.6 59.4 97.05 59.4 97.2 59.4 97.35 59.9 97.7 59.85 98.25 59.8 98.4 59.8 98.6 60.05 98.9 60.3 99.2 60.45 99.35 60.55 99.5 60.6 99.65 60.6 99.8 60.6 100.35 60.9 100.75 60.85 102.3 60.75 103.8 60.65 106 61.3 108 61.5 109.6 61.45 111.2 61.4 112.35 61.95 113.4 62 115.4 62.5 117.35 63.15 119.6 62.95 122 63 122.1 63.1 122.25 63.15 122.35 63.15 122.5 63.15 122.75 63.15 123 63 124.05 63.5 124.95 63.55 125.05 63.6 125.2 63.6 125.3 63.6 125.45 63.6 126.3 63.7 127.15 63.7 127.3 63.85 127.4 63.85 127.55 63.85 127.65 63.85 128 63.85 128.4 63.85 128.5 63.85 128.65 64 128.9 64.15 129.15 64.2 129.25 64.25 129.35 64.25 129.5 64.25 129.6 64.25 130.1 64.25 130.6 64.25 130.7 64.25 130.85 64.4 131.1 64.6 131.3 64.7 131.45 64.8 131.6 64.85 131.7 64.9 131.85 65.15 132.5 65.45 133.05 65.5 133.2 65.55 133.3 66.6 134.3 67.35 135.5 68.0859375 136.640625 68.85 137.7 69.12265625 138.0802734375 69.4 138.45 70.25 139.1 71 139.9 71.3 140.2 71.7 140.45 71.9 140.8 72.15 141.15 72.25 141.3 72.35 141.4 73.3 141.9 74.15 142.65 74.5 142.95 74.9 143.2 75.05 143.45 75.2 143.7 75.3 143.85 75.4 143.95 75.7 144.05 76.05 144.15 76.1 144.15 76.1 144.2 76.45 145.15 77.2 145.85 78.25 146.85 79.65 147.4 79.7 147.5 79.75 147.65 79.8 147.75 79.9 147.9 80.15 148 80.4 148.1 80.4728515625 148.14375 80.55 148.2 80.7373046875 148.29375 80.95 148.4 81.05 148.5 81.1 148.65 81.15 148.75 81.2 148.85 81.95 149.25 82.55 149.75 83.8 150.85 85.2 151.8 86.15 151.65 86.3 152.2 86.35 152.35 86.45 152.45 87.5 152.9 88.55 153.35 88.9 153.5 89.2 153.6 89.60390625 153.8810546875 90 154.15 91.467578125 154.1259765625 92.9 154.1 92.040234375 153.5576171875 91.2 152.95 90 152.45 88.85 152 88.6 151.95 88.4 151.8 88.3 151.7 88.25 151.6 88.1 151.45 88 151.3 87.6 151.25 87.2 151.15 87.1 151.1 87 151.1 86.3 150.4 85.45 149.8 84.3 149 83.15 148.2 83.1 148.1 83.05 147.95 83 147.85 82.9 147.7 82.65 147.6 82.35 147.45 82.1 147.35 81.85 147.25 81.75 147 81.55 146.75 81.45 146.6 81.3 146.5 80.8931640625 146.3697265625 80.55 146.15 79.8384765625 145.7419921875 79.4 145 79.3 144.9 79.25 144.75 78.5 144.45 78.1 143.7 78 143.6 77.9 143.45 77.6 143.35 77.25 143.2 77.2 143.1 77.1 142.95 77.05 142.85 77 142.7 76.15 142.15 75.4 141.45 74.8 140.9 74.05 140.5 73.95 140.25 73.8 140.05 73.75 139.9 73.65 139.75 72.75 139.1 71.95 138.3 71.65 138.05 71.35 137.8 71.313671875 137.75 71.25 137.7 70.5181640625 136.6478515625 69.85 135.55 68.85 134 67.5 132.65 67.45 132.5 67.4 132.4 67.1 131.8 66.85 131.15 66.8 131.05 66.8 130.95 66.5 130.7 66.25 130.4 66.2 130.3 66.2 130.2 66.2 130.05 66.2 129.95 66.2 129.35 66.15 128.7 66.15 128.6 66.1 128.45 66.05 128.35 65.95 128.2 65.9 128.1 65.8 128 65.8 127.85 65.8 127.75 65.8 127.25 65.7 126.75 65.65 126.65 65.55 126.5 65.55 126.4 65.55 126.25 65.55 125.5 65.55 124.8 65.55 124.65 65.55 124.55 65.45 124.3 65.35 124.05 65.05 123.1 65.15 122.1 65.15 121.95 65.15 121.85 65.1 121.7 65.05 121.6 65 121.45 64.9 121.35 64.95 119.35 64.5 117.5 63.95 115.15 63.9 112.75 63.3 111.25 63.3 109.55 63.3 109.45 63.3 109.3 63.7 110.25 64.3 111.15 64.3 111.5 64.35 111.8 64.35 111.95 64.4 112.1 65.85 113.15 66.75 114.7 67.3 115.7 67.6 116.7 72.4619140625 124.46953125 80.55 129.15 80.9462890625 129.3783203125 81.35 129.6 89.9953125 134.3236328125 99.05 137.7 115.4396484375 143.7947265625 133.2 145.5 141.602734375 146.298828125 149.9 145.65 155.6251953125 145.22265625 161.3 144.1 171.7740234375 142.0314453125 181.1 137.7 189.6529296875 133.7609375 197.25 127.95 197.65 127.15 198.45 126.75 198.75 126.6 199.1 126.45 200.3 124.7 201.7 123.1 203.95 120.7 205.55 117.85 205.6 117.7 205.6 117.5 205.9 116.2 206.55 115 206.9 114.4 207.25 113.85 207.25 113.7 207.25 113.55 207.2 113.05 207.35 112.6 207.35 112.45 207.35 112.3 209.05 109.45 209.85 106.2 210.3 104.3 210.85 102.4 211.25 105 211.1 107.65 210.65 113.05 210.65 118.45 210.55 118.6 210.5 118.75 210.4 118.85 210.4 118.95 210.4 119.1 210.4 119.2 210.4 119.85 210.35 120.45 210.35 120.55 210.3 120.7 210.2 120.8 210.15 120.95 210.05 121.05 209.95 121.2 209.95 122.55 209.7 123.9 209.55 124.8 209 125.6 209 125.85 209 126.1 209 126.2 209 126.35 208.75 126.6 208.5 126.85 208.4 126.95 208.35 127.1 208.35 127.45 208.35 127.8 208.35 127.95 208.35 128.05 207.85 128.85 207.3 129.55 207.2 129.65 207.1 129.8 207.05 129.9 207.05 130.05 207 130.15 207 130.25 206.2 131.25 205.65 132.45 205.2 133.45 204.5 134.2 204.55 134.6 204.4 134.95 204.35 135.05 204.3 135.2 203.45 135.85 202.95 136.85 202.7212890625 137.3072265625 202.4 137.7 202.0935546875 138.0802734375 201.7 138.4 201.65 138.5 201.6 138.6 201.15 139.5 200.65 140.35 200.55 140.45 200.45 140.6 200 140.85 199.6 141.1 199.45 141.2 199.3 141.35 193.651171875 147.98359375 186.4 152.4 188.00859375 152.344921875 189.6 152.25 196.280859375 148.0904296875 201.45 141.8 201.95 141.6 202.4 141.25 202.5 141.2 202.5 141.1 202.55 140.95 202.65 140.85 203.3 140.05 203.65 139.1 203.7 139 203.75 138.85 204.513671875 138.418359375 205 137.7 205.23203125 137.33671875 205.4 136.9 205.5 136.65 205.65 136.4 205.9 136.15 206.2 135.9 206.3 135.8 206.35 135.7 206.4 135.45 206.45 135.2 206.45 135.05 206.45 134.95 207.3 133.9 207.9 132.75 208.35 131.85 208.9 131 208.95 130.9 208.95 130.75 209 130.65 209 130.5 210 129.55 210.25 128.3 210.3 128.05 210.3 127.8 210.6 127.45 210.85 127.05 210.9 126.95 210.95 126.85 210.95 126.6 210.95 126.35 210.95 126.2 210.95 126.1 211.4 125.65 211.6 125.1 211.65 125 211.7 124.85 211.7 124.75 211.7 124.6 211.7 124.25 211.7 123.9 211.7 123.75 211.7 123.65 211.8 123.5 211.85 123.4 211.9 123.25 211.95 123.15 211.95 123 211.95 122.9 211.95 122.55 211.95 122.15 211.95 122.05 211.95 121.9 212.1 121.65 212.25 121.4 212.3 121.3 212.35 121.2 212.35 121.05 212.35 120.95 212.35 120.3 212.35 119.7 212.35 119.6 212.35 119.45 212.45 119.35 212.5 119.2 212.55 119.1 212.6 118.95 212.6 117.35 212.6 115.75 212.6 114.4 212.6 113.05 213.3 109.85 213.1 106.45 212.75 100.15 212.35 93.9 212.35 93.8 212.35 93.75 212.25 93.75 212.2 93.75 212.2 92.45 212.2 91.1 209.35 90.7 206.55 90.3 206.55 88.4 206.55 86.5 206.55 83.85 206.55 81.25 206.9 80.9 207.25 80.55 204.7 77.45 200.75 75.75 199.85 75.35 198.95 75 198.95 73.55 199 72.1 199.05 70.95 198.65 69.95 198.65 68.25 198.75 66.6 198.8 65.45 198.4 64.4 198.5 63.35 198.2 62.4 198.4 62.05 198.55 61.7 198.6 61.55 198.65 61.4 198.65 61.1 198.65 60.8 198.65 60.2 198.65 59.55 198.6 59.4 198.55 59.25 198.2 59.15 197.85 59.05 197.85 59 197.8 59 197.7 58.85 197.55 58.7 197.45 58.6 197.35 58.45 196.4 58.15 195.5 57.8 195.25 57.7 195 57.6 188 57.35 181.05 57.1 181.05 54.35 181.05 51.6 181.05 48.95 181.05 46.35 181 46.2 180.9 46.1 180.6 45.65 180.65 45.1 180.65 44.95 180.65 44.8
M 178.2 44.9
Q 178.8 45.2 178.65 45.85 178.6 46 178.6 46.15 179.3 48.95 179.15 52 179 54.9 179 57.8 186.05 58.1 193.15 58.35 194.15 58.9 195.3 59.1
L 195.3 59.15
Q 195.35 59.2 195.45 59.3 195.15 59.25 194.85 59.25 195.05 60.85 195.7 62.4 195.55 62.5 195.4 62.65 195.35 63.1 195.25 63.55 195.25 63.7 195.2 63.85 193.95 65.6 192.75 67.3 190.9 69.9 189.25 72.15 196.95 75.35 204.6 80.35 203.85 80.7 203.3 81 201.2 82.15 198.75 82.6 197.8 83.3 196.65 83.65 195.3 84.1 194.35 85.15 193.95 85.25 193.55 85.35 192.85 85.9 192.25 86.55 192.15 86.65 192.1 86.8 191.6 86.9 191.1 87.05 191.05 87.05 191 87.1 190.9 87.2 190.8 87.3 190.15 87.85 189.7 88.6 189.65 88.7 189.65 88.85 199.9 90.2 210.15 91.8 210.15 91.95 210.15 92.15 210.15 93.8 210.15 95.5 210.15 96.45 210.15 97.35 208.95 100.35 208.25 103.45 207.25 107.65 205.45 111.5 205.3 113.3 204.35 114.85 203.7 116 203.5 117.3 202.55 118.5 201.85 119.8 201.6 120.25 201.35 120.7 200 121.75 199 123.15 198 124.65 196.8 125.9 195.85 126.3 195.3 127.15 195.2 127.3 195.1 127.45 187.4625 133.6435546875 178.65 137.7 175.892578125 138.9818359375 173 140.05 164.3 143.25 155.2 144.05 152.5416015625 144.271875 149.9 144.4 125.49921875 145.481640625 102.55 137.7 96.6619140625 135.6947265625 90.85 133.1 85.23515625 130.6021484375 80.55 127.15 74.2626953125 122.4890625 69.65 116.1 69.65 115.95 69.6 115.8 69.6 115.65 69.55 115.45 68.45 114.45 67.8 113.05 67.35 112.05 66.45 111.5 66.4 111.15 66.4 110.85 66.35 110.7 66.35 110.55 65.25 108.65 64.65 106.55 64.05 104.6 63.1 102.9 63.1 102.55 63.1 102.25 63.1 101.5 63.1 100.75 63.1 100.55 63.1 100.4 63.05 100.25 63 100.1 62.95 99.9 62.85 99.75 62.85 99.6 62.85 99.45 62.75 99.35 62.7 99.2 62.65 99.1 62.6 99 62.6 98.75 62.6 98.5 62.6 97.65 62.6 96.75 62.6 96.65 62.6 96.5
L 62.6 96.4
Q 62.2 96.35 61.85 96.35 61.85 96.25 61.85 96.15 61.85 95.95 61.8 95.75 61.8 95.55 61.85 95.35 61.85 95.25 61.9 95.15 62.5 94.85 63.1 94.65 67.55 94.6 72.4 94.25 76.55 93.9 79.05 92.25 78 90 76.45 87.95 72.5 82.95 67.75 78.85 67.9 78.35 67.85 77.85
L 67.85 77.75
Q 67.35 77.65 66.85 77.65 66.8 77.55 66.7 77.45 66.55 77.35 66.45 77.2 73.9017578125 75.9400390625 80.55 73.8 83.1357421875 73.0021484375 85.6 72.05 85.6 71.9 85.6 71.75 85.6 71.3 85.6 70.85 85.55 70.65 85.5 70.5 83.65 67.65 82.4 64.45 81.446484375 61.897265625 80.55 59.3 79.9888671875 57.7166015625 79.45 56.1 79.2 55.8 78.95 55.45 78.85 55.3 78.75 55.15 78.7 54.85 78.6 54.55
L 78.6 54.5
Q 78.6 54.4 78.6 54.3 79.5765625 54.55703125 80.55 54.8 89.99375 57.0734375 99.15 57.3 99.15 57 99.15 56.7 99.15 52.55 99.1 48.4 99.0705078125 45.0392578125 99.3 41.8 99.5216796875 39.5455078125 99.85 37.35 100.6 37.85 101.35 38.35 103.5 39.85 105.7 41.25 105.923046875 41.5400390625 106.15 41.8 106.4900390625 42.123046875 106.85 42.4 110.05 44.55 113.25 46.55 115.05 46.4 116.85 46.25 118.1 44 119.65 41.95 119.706640625 41.8748046875 119.75 41.8 123.71875 36.585546875 128.5 32.1 128.95 32.05 129.35 32.1 129.4 32.1 129.45 32.2 129.5 32.4 129.55 32.5 130.1 33.7 130.95 34.7 131.2 35 131.4 35.3 131.45 35.45 131.45 35.6 131.5 35.75 131.5 35.9 132.45 37 132.9 38.35 133.15 39 133.45 39.6 134.15 40.15 134.7 40.9 134.75 41 134.75 41.15 135.1466796875 41.4474609375 135.45 41.8 135.987890625 42.336328125 136.35 43 136.4 43.15 136.4 43.3 136.75 43.4 137.1 43.5 137.2 43.55 137.25 43.6 137.3 43.7 137.35 43.8 137.5 43.95 137.65 44.1 138.85 44.15 140.1 44.15
L 140.1 44.1
Q 142.1703125 42.9021484375 144.25 41.8 147.06875 40.2986328125 149.9 38.95 152.9712890625 37.5314453125 156.05 36.3 156.55 36.65 156.5 37.25 156.5 37.4 156.5 37.55 156.6 37.7 156.7 37.85 156.8 38 156.9 38.15 156.9 38.6 156.9 39.1 156.9 39.25 156.9 39.4 157.05 39.7 157.1 40 157.2458984375 40.9236328125 157.5 41.8 157.5416015625 41.825 157.55 41.85 157.6 42 157.7 42.15 157.7 42.6 157.7 43.1 157.7 43.85 157.7 44.6 157.7 44.75 157.7 44.9 157.9 45.4 158.05 45.85 158.1 46 158.1 46.15 158.2 46.3 158.3 46.45 158.6 47.4 159.05 48.3 159.15 48.45 159.25 48.6 168.85 46.8 178.2 44.9
M 191.7 71.85
Q 191.75 71.7 191.85 71.6 192.1 71.4 192.4 71.25 193.65 69.8 194.65 68.2 195.6 66.7 196.65 65.3 196.7 65.4 196.7 65.55 196.7 67.1 196.7 68.7 196.7 69.55 196.7 70.45 197.15 72.05 197 73.8 197 73.95 197 74.15 194.05 72.9 191.7 71.85
M 196.2 85.95
Q 196.3 85.95 196.4 85.9 196.85 85.4 197.3 85 197.45 84.9 197.55 84.75 198.65 84.25 199.8 83.9 199.9 83.9 200 83.85 200.15 83.75 200.3 83.6 200.45 83.45 200.6 83.3 201.4 83.15 202.15 83.05 203.45 82.85 204.55 82.4 204.55 83.65 204.55 84.85 204.55 87.45 204.55 90 198.45 89.1 192.65 88.15 193.4 87.9 194.1 87.55 194.15 87.5 194.15 87.4 194.35 86.75 195.05 86.45 195.25 86.35 195.4 86.2 195.8 86.1 196.2 85.95
M 78.35 59.45
Q 78.7 60.3 79 61.2 79.7375 63.19140625 80.55 65.1 81.9404296875 68.4623046875 83.55 71.65 82.05859375 72.1470703125 80.55 72.6 79.479296875 72.909375 78.4 73.2 78.25 70.3 78.25 67.35 78.2 63.4 78.35 59.45
M 66.8 82.95
Q 66.6 82.6 66.6 82.15 66.6 82.1 66.55 82 66.7 81.4 66.95 80.85 69.9 83.55 72.5 86.6 73.3 88.1 74.55 89.25 76.3 90.8 76.4 92.35 73.8 92.7 71.25 93 71.1 92.95 71 92.95 69.35 92.6 67.7 92.6 67.55 90.95 67.4 89.25 67.05 86.1 66.8 82.95
M 91.2 83.3
Q 91.35 83.4 91.45 83.5 94.1 87.25 98.75 88.2 107.5 89.9 115.85 87.2 116.2 86.85 116.6 86.5 117 86.15 117.25 85.75 117.5 85.4 117.75 85.1 117.8 85 117.85 84.9 117.9 84.85 117.95 84.75 117.95 84.65 117.95 84.55 117.95 84.45 117.95 84.35 117.95 84.25 117.95 84.15 117.95 84.05 118 83.95 118.05 83.85 118.1 83.75 118.15 83.65 118.2 83.55 118.2 83.45 118.2 83.35 118.2 83.05 118.2 82.75 118.2 82.65 118.2 82.55 118.2 82.45 118.2 82.35 118.2 82.15 118.2 82 118.2 81.9 118.2 81.8 118.2 81.7 118.2 81.6 118.15 81.5 118.1 81.4 118.05 81.3 118 81.15 117.95 81.1 117.95 81 117.95 80.9 117.95 80.8 117.95 80.7 117.95 80.6 117.9 80.4 117.85 80.2 117.85 80.1 117.8 80 117.75 79.9 117.75 79.8 117.65 79.7 117.6 79.6 117.5 79.5 117.35 79.4 117.25 79.3 117.15 79.25 117.05 79.15 116.95 79.05 116.9 78.95 116.9 78.85 116.85 78.75 116.8 78.65 116.75 78.55 116.7 78.45 116.55 78.35 116.45 78.25 116.35 78.15 116.25 78.05 116.05 77.85 115.9 77.65 115.85 77.55 115.75 77.45 115.7 77.35 115.65 77.25 115.5 77.2 115.3 77.15 115.2 77.1 115.15 77.05 115.05 77 115 76.95 114.9 76.85 114.85 76.75 114.75 76.65 114.65 76.55 113.45 75.8 112.15 75.3 108.05 73.85 103.65 74.05 97.55 74.3 92.75 78.15 91.4 79.25 90.8 80.95 90.8 81.05 90.8 81.15 90.8 81.4 90.8 81.7 90.8 81.8 90.8 81.9 90.8 82 90.8 82.1 90.8 82.3 90.8 82.5 90.8 82.6 90.8 82.7 90.85 82.8 90.85 82.9 90.95 83 91 83.1 91.1 83.2 91.2 83.3
M 98.05 86.6
Q 94.6 85.1 92.75 82 93.05 80.2 94.5 78.95 98.45 75.5 103.65 75.05 108.7 74.6 112.9 77.3 112.9 77.4 113 77.5 113.05 77.6 113.15 77.7 113.35 77.8 113.55 77.85 113.65 77.9 113.75 78 113.85 78.2 114 78.4 114.2 78.75 114.5 79 114.65 79.05 114.7 79.15 114.8 79.35 114.95 79.55 115.15 79.9 115.45 80.15 115.6 80.25 115.7 80.35 115.75 80.45 115.8 80.55 115.85 80.65 115.9 80.75 115.95 80.85 115.95 80.95 115.95 81.05 115.95 81.15 115.95 81.3 115.95 81.5 115.95 81.6 115.95 81.7 115.95 81.8 115.95 81.9 116.1 82.1 116.2 82.3 116.25 82.4 116.25 82.5 116.25 82.6 116.25 82.7 116.25 82.8 116.2 82.85 116.05 83.15 116 83.5 115.95 83.8 115.95 84.05 115.95 84.15 115.9 84.25 115.75 84.45 115.55 84.65 112.05 88.75 106.05 87.55 104.75 86.9 103.25 87.3 101.05 87.85 98.05 86.6
M 192.5 100.3
L 192.5 100.35
Q 192.4 100.4 192.3 100.5 192.2 100.55 192.15 100.65 192.1 100.75 192 100.85 190.65 101.9 189.15 102.8 188.25 103.3 187.25 103.65 187.2 103.75 187.15 103.85 187.05 103.95 186.95 104.05 177.45 108.85 166.9 110.95 164 111.5 161.15 111.95 155.5212890625 112.8416015625 149.9 113.25 134.398046875 114.4083984375 118.95 111.95 108.25 110.25 99.2 104.45 98.75 104.4 98.3 104.3 98.2 104.25 98.15 104.2 98.1 104.1 98 104 97.9 103.8 97.75 103.6 97.65 103.5 97.55 103.4 97.25 103.35 96.9 103.25 96.75 103.2 96.55 103.15 96.45 103.05 96.35 102.95 95.45 102.2 94.2 102.1 94.05 102.1 93.9 102.05 92.5 101.05 91 100.35 90.25 100 89.7 99.4 88.5 99.4 87.25 99.35 87.2 99.4 87.15 99.5 87.15 99.55 87.15 99.65 87.15 99.75 87.15 99.85 87.15 100.05 87.15 100.25 87.15 100.35 87.15 100.45 87.25 100.55 87.3 100.65 87.35 100.75 87.4 100.85 87.4 100.95 87.4 101.05 87.45 101.25 87.55 101.45 87.6 101.55 87.65 101.65 87.65 101.75 87.65 101.85 87.65 101.95 87.65 102.05 87.65 102.25 87.7 102.4 87.7 102.5 87.7 102.6 89.15 104.8 90.55 107 96.05 115.95 106.25 119.65 126.45 126.9 147.8 125.2 148.854296875 125.1162109375 149.9 125 153.218359375 124.6103515625 156.45 123.85 166.75 121.45 176.05 116.35 184.45 111.8 191.2 105.05 191.25 104.95 191.3 104.85 191.35 104.75 191.4 104.65 191.45 104.55 191.45 104.45 191.9 104 192.25 103.55 192.6 103.15 193.1 102.85 193.2 102.8 193.3 102.7 193.35 102.6 193.35 102.5 193.4 102.4 193.45 102.3 193.45 102.2 193.5 102.1 193.8 101.8 194.1 101.55 194.4 101.3 194.45 100.9 194.5 100.8 194.5 100.7 194.5 100.6 194.45 100.6 193.5 100.4 192.5 100.3
M 188.4 105.1
Q 182.95 110.45 176.35 114.25 168.25 118.95 159.3 121.7 154.6546875 123.132421875 149.9 123.9 143.0384765625 125.036328125 135.95 124.8 129 124.55 122.2 123.05 113.5 121.15 105.35 117.55 94.05 112.5 89.6 101.3 89.65 101.15 89.9 101.25 91.05 101.9 92.05 102.75 93.15 102.95 94.15 103.35 94.25 103.45 94.35 103.55 94.4 103.65 94.45 103.75 95.15 104 95.7 104.2 95.8 104.3 95.9 104.4 96.05 104.7 96.3 105 98.75 105.95 101.3 107.25 106.35 109.8 111.9 111.05 130.701171875 115.2416015625 149.9 114.1 154.289453125 113.88046875 158.7 113.35 174.35 111.5 188.4 105.1
M 170.85 74.2
Q 166.8 72.65 162.3 73.2 158 73.8 154.3 76.15 153 76.95 151.95 78.05 151.9 78.15 151.85 78.25 151.8 78.35 151.75 78.45 151.7 78.55 151.6 78.65 151.6 79.05 151.6 79.4 151.6 79.9 151.6 80.4 151.6 80.9 151.6 81.4 151.6 81.5 151.6 81.6 151.8 81.9 152.05 82.15 152.1 82.25 152.2 82.35 152.3 82.45 152.4 82.55 153.6 85.45 156.7 86.15 165.6 88.1 174.6 85.05 175.55 84.35 176.25 83.45 176.85 82.7 177.1 81.9 177.15 81.8 177.2 81.7 177.2 81.6 177.2 81.5 177.2 81.25 177.2 80.95 177.2 80.75 177.2 80.55 177.2 80.45 177.2 80.35 177.1 80.25 177.05 80.15 177 80.05 176.9 79.95 176.9 79.75 176.9 79.55 176.9 79.45 176.85 79.4 176.8 79.25 176.65 79.15 176.65 78.95 176.65 78.75 176.6 78.65 176.6 78.55 176.55 78.45 176.5 78.35 176.1 78.05 175.75 77.65 175.1 77 174.45 76.4 174.35 76.3 174.3 76.2 174.1 76.15 173.9 76.1 173.75 76.05 173.6 76 173.5 76 173.45 75.95 172.4 74.8 170.85 74.2
M 164.85 73.95
Q 165.51328125 74.058984375 166.15 74.15 169.3 74.6 171.6 76.65 171.85 76.75 172.05 76.8 172.25 76.85 172.45 76.95 172.55 77.3 172.85 77.5 173.9 78.25 174.6 79.25 174.65 79.3 174.65 79.4 174.7 79.5 174.7 79.6 174.7 79.7 174.7 79.8 175 80.05 175.05 80.4 175.1 80.8 175.15 81.2 175.05 81.4 175 81.6 174.9 81.8 174.9 82 174.65 82.25 174.5 82.5 173.75 83.6 172.7 84.35 165.2 86.7 157.5 85.4 157.4 85.3 157.25 85.25 156.5 84.7 155.85 84.15 154.75 83.2 154.35 81.9 154.2 81.7 154 81.5 153.8 81.2 153.6 80.95 153.6 80.45 153.55 79.95 153.55 79.45 153.7 78.95 154.8 77.75 156.15 76.9 159.488671875 74.720703125 163.4 74 163.737890625 73.947265625 164.05 73.9 164.46328125 73.939453125 164.85 73.95 Z" stroke="none" fill="#000000"></path>

<path d="M 178.65 45.85
Q 178.8 45.2 178.2 44.9 168.85 46.8 159.25 48.6 159.15 48.45 159.05 48.3 158.6 47.4 158.3 46.45 158.2 46.3 158.1 46.15 158.1 46 158.05 45.85 157.9 45.4 157.7 44.9 157.7 44.75 157.7 44.6 157.7 43.85 157.7 43.1 157.7 42.6 157.7 42.15 157.6 42 157.55 41.85 157.5416015625 41.825 157.5 41.8 157.2458984375 40.9236328125 157.1 40 157.05 39.7 156.9 39.4 156.9 39.25 156.9 39.1 156.9 38.6 156.9 38.15 156.8 38 156.7 37.85 156.6 37.7 156.5 37.55 156.5 37.4 156.5 37.25 156.55 36.65 156.05 36.3 152.9712890625 37.5314453125 149.9 38.95 147.06875 40.2986328125 144.25 41.8 142.1703125 42.9021484375 140.1 44.1
L 140.1 44.15
Q 138.85 44.15 137.65 44.1 137.5 43.95 137.35 43.8 137.3 43.7 137.25 43.6 137.2 43.55 137.1 43.5 136.75 43.4 136.4 43.3 136.4 43.15 136.35 43 135.987890625 42.336328125 135.45 41.8 135.1466796875 41.4474609375 134.75 41.15 134.75 41 134.7 40.9 134.15 40.15 133.45 39.6 133.15 39 132.9 38.35 132.45 37 131.5 35.9 131.5 35.75 131.45 35.6 131.45 35.45 131.4 35.3 131.2 35 130.95 34.7 130.1 33.7 129.55 32.5 129.5 32.4 129.45 32.2 129.4 32.1 129.35 32.1 128.95 32.05 128.5 32.1 123.71875 36.585546875 119.75 41.8 119.706640625 41.8748046875 119.65 41.95 118.1 44 116.85 46.25 115.05 46.4 113.25 46.55 110.05 44.55 106.85 42.4 106.4900390625 42.123046875 106.15 41.8 105.923046875 41.5400390625 105.7 41.25 103.5 39.85 101.35 38.35 100.6 37.85 99.85 37.35 99.5216796875 39.5455078125 99.3 41.8 99.0705078125 45.0392578125 99.1 48.4 99.15 52.55 99.15 56.7 99.15 57 99.15 57.3 89.99375 57.0734375 80.55 54.8 79.5765625 54.55703125 78.6 54.3 78.6 54.4 78.6 54.5
L 78.6 54.55
Q 78.7 54.85 78.75 55.15 78.85 55.3 78.95 55.45 79.2 55.8 79.45 56.1 79.9888671875 57.7166015625 80.55 59.3 81.446484375 61.897265625 82.4 64.45 83.65 67.65 85.5 70.5 85.55 70.65 85.6 70.85 85.6 71.3 85.6 71.75 85.6 71.9 85.6 72.05 83.1357421875 73.0021484375 80.55 73.8 73.9017578125 75.9400390625 66.45 77.2 66.55 77.35 66.7 77.45 66.8 77.55 66.85 77.65 67.35 77.65 67.85 77.75
L 67.85 77.85
Q 67.9 78.35 67.75 78.85 72.5 82.95 76.45 87.95 78 90 79.05 92.25 76.55 93.9 72.4 94.25 67.55 94.6 63.1 94.65 62.5 94.85 61.9 95.15 61.85 95.25 61.85 95.35 61.8 95.55 61.8 95.75 61.85 95.95 61.85 96.15 61.85 96.25 61.85 96.35 62.2 96.35 62.6 96.4
L 62.6 96.5
Q 62.6 96.65 62.6 96.75 62.6 97.65 62.6 98.5 62.6 98.75 62.6 99 62.65 99.1 62.7 99.2 62.75 99.35 62.85 99.45 62.85 99.6 62.85 99.75 62.95 99.9 63 100.1 63.05 100.25 63.1 100.4 63.1 100.55 63.1 100.75 63.1 101.5 63.1 102.25 63.1 102.55 63.1 102.9 64.05 104.6 64.65 106.55 65.25 108.65 66.35 110.55 66.35 110.7 66.4 110.85 66.4 111.15 66.45 111.5 67.35 112.05 67.8 113.05 68.45 114.45 69.55 115.45 69.6 115.65 69.6 115.8 69.65 115.95 69.65 116.1 74.2626953125 122.4890625 80.55 127.15 85.23515625 130.6021484375 90.85 133.1 96.6619140625 135.6947265625 102.55 137.7 125.49921875 145.481640625 149.9 144.4 152.5416015625 144.271875 155.2 144.05 164.3 143.25 173 140.05 175.892578125 138.9818359375 178.65 137.7 187.4625 133.6435546875 195.1 127.45 195.2 127.3 195.3 127.15 195.85 126.3 196.8 125.9 198 124.65 199 123.15 200 121.75 201.35 120.7 201.6 120.25 201.85 119.8 202.55 118.5 203.5 117.3 203.7 116 204.35 114.85 205.3 113.3 205.45 111.5 207.25 107.65 208.25 103.45 208.95 100.35 210.15 97.35 210.15 96.45 210.15 95.5 210.15 93.8 210.15 92.15 210.15 91.95 210.15 91.8 199.9 90.2 189.65 88.85 189.65 88.7 189.7 88.6 190.15 87.85 190.8 87.3 190.9 87.2 191 87.1 191.05 87.05 191.1 87.05 191.6 86.9 192.1 86.8 192.15 86.65 192.25 86.55 192.85 85.9 193.55 85.35 193.95 85.25 194.35 85.15 195.3 84.1 196.65 83.65 197.8 83.3 198.75 82.6 201.2 82.15 203.3 81 203.85 80.7 204.6 80.35 196.95 75.35 189.25 72.15 190.9 69.9 192.75 67.3 193.95 65.6 195.2 63.85 195.25 63.7 195.25 63.55 195.35 63.1 195.4 62.65 195.55 62.5 195.7 62.4 195.05 60.85 194.85 59.25 195.15 59.25 195.45 59.3 195.35 59.2 195.3 59.15
L 195.3 59.1
Q 194.15 58.9 193.15 58.35 186.05 58.1 179 57.8 179 54.9 179.15 52 179.3 48.95 178.6 46.15 178.6 46 178.65 45.85
M 162.3 73.2
Q 166.8 72.65 170.85 74.2 172.4 74.8 173.45 75.95 173.5 76 173.6 76 173.75 76.05 173.9 76.1 174.1 76.15 174.3 76.2 174.35 76.3 174.45 76.4 175.1 77 175.75 77.65 176.1 78.05 176.5 78.35 176.55 78.45 176.6 78.55 176.6 78.65 176.65 78.75 176.65 78.95 176.65 79.15 176.8 79.25 176.85 79.4 176.9 79.45 176.9 79.55 176.9 79.75 176.9 79.95 177 80.05 177.05 80.15 177.1 80.25 177.2 80.35 177.2 80.45 177.2 80.55 177.2 80.75 177.2 80.95 177.2 81.25 177.2 81.5 177.2 81.6 177.2 81.7 177.15 81.8 177.1 81.9 176.85 82.7 176.25 83.45 175.55 84.35 174.6 85.05 165.6 88.1 156.7 86.15 153.6 85.45 152.4 82.55 152.3 82.45 152.2 82.35 152.1 82.25 152.05 82.15 151.8 81.9 151.6 81.6 151.6 81.5 151.6 81.4 151.6 80.9 151.6 80.4 151.6 79.9 151.6 79.4 151.6 79.05 151.6 78.65 151.7 78.55 151.75 78.45 151.8 78.35 151.85 78.25 151.9 78.15 151.95 78.05 153 76.95 154.3 76.15 158 73.8 162.3 73.2
M 192.5 100.35
L 192.5 100.3
Q 193.5 100.4 194.45 100.6 194.5 100.6 194.5 100.7 194.5 100.8 194.45 100.9 194.4 101.3 194.1 101.55 193.8 101.8 193.5 102.1 193.45 102.2 193.45 102.3 193.4 102.4 193.35 102.5 193.35 102.6 193.3 102.7 193.2 102.8 193.1 102.85 192.6 103.15 192.25 103.55 191.9 104 191.45 104.45 191.45 104.55 191.4 104.65 191.35 104.75 191.3 104.85 191.25 104.95 191.2 105.05 184.45 111.8 176.05 116.35 166.75 121.45 156.45 123.85 153.218359375 124.6103515625 149.9 125 148.854296875 125.1162109375 147.8 125.2 126.45 126.9 106.25 119.65 96.05 115.95 90.55 107 89.15 104.8 87.7 102.6 87.7 102.5 87.7 102.4 87.65 102.25 87.65 102.05 87.65 101.95 87.65 101.85 87.65 101.75 87.65 101.65 87.6 101.55 87.55 101.45 87.45 101.25 87.4 101.05 87.4 100.95 87.4 100.85 87.35 100.75 87.3 100.65 87.25 100.55 87.15 100.45 87.15 100.35 87.15 100.25 87.15 100.05 87.15 99.85 87.15 99.75 87.15 99.65 87.15 99.55 87.15 99.5 87.2 99.4 87.25 99.35 88.5 99.4 89.7 99.4 90.25 100 91 100.35 92.5 101.05 93.9 102.05 94.05 102.1 94.2 102.1 95.45 102.2 96.35 102.95 96.45 103.05 96.55 103.15 96.75 103.2 96.9 103.25 97.25 103.35 97.55 103.4 97.65 103.5 97.75 103.6 97.9 103.8 98 104 98.1 104.1 98.15 104.2 98.2 104.25 98.3 104.3 98.75 104.4 99.2 104.45 108.25 110.25 118.95 111.95 134.398046875 114.4083984375 149.9 113.25 155.5212890625 112.8416015625 161.15 111.95 164 111.5 166.9 110.95 177.45 108.85 186.95 104.05 187.05 103.95 187.15 103.85 187.2 103.75 187.25 103.65 188.25 103.3 189.15 102.8 190.65 101.9 192 100.85 192.1 100.75 192.15 100.65 192.2 100.55 192.3 100.5 192.4 100.4 192.5 100.35
M 91.45 83.5
Q 91.35 83.4 91.2 83.3 91.1 83.2 91 83.1 90.95 83 90.85 82.9 90.85 82.8 90.8 82.7 90.8 82.6 90.8 82.5 90.8 82.3 90.8 82.1 90.8 82 90.8 81.9 90.8 81.8 90.8 81.7 90.8 81.4 90.8 81.15 90.8 81.05 90.8 80.95 91.4 79.25 92.75 78.15 97.55 74.3 103.65 74.05 108.05 73.85 112.15 75.3 113.45 75.8 114.65 76.55 114.75 76.65 114.85 76.75 114.9 76.85 115 76.95 115.05 77 115.15 77.05 115.2 77.1 115.3 77.15 115.5 77.2 115.65 77.25 115.7 77.35 115.75 77.45 115.85 77.55 115.9 77.65 116.05 77.85 116.25 78.05 116.35 78.15 116.45 78.25 116.55 78.35 116.7 78.45 116.75 78.55 116.8 78.65 116.85 78.75 116.9 78.85 116.9 78.95 116.95 79.05 117.05 79.15 117.15 79.25 117.25 79.3 117.35 79.4 117.5 79.5 117.6 79.6 117.65 79.7 117.75 79.8 117.75 79.9 117.8 80 117.85 80.1 117.85 80.2 117.9 80.4 117.95 80.6 117.95 80.7 117.95 80.8 117.95 80.9 117.95 81 117.95 81.1 118 81.15 118.05 81.3 118.1 81.4 118.15 81.5 118.2 81.6 118.2 81.7 118.2 81.8 118.2 81.9 118.2 82 118.2 82.15 118.2 82.35 118.2 82.45 118.2 82.55 118.2 82.65 118.2 82.75 118.2 83.05 118.2 83.35 118.2 83.45 118.2 83.55 118.15 83.65 118.1 83.75 118.05 83.85 118 83.95 117.95 84.05 117.95 84.15 117.95 84.25 117.95 84.35 117.95 84.45 117.95 84.55 117.95 84.65 117.95 84.75 117.9 84.85 117.85 84.9 117.8 85 117.75 85.1 117.5 85.4 117.25 85.75 117 86.15 116.6 86.5 116.2 86.85 115.85 87.2 107.5 89.9 98.75 88.2 94.1 87.25 91.45 83.5 Z" stroke="none" fill="#FDDF5E"></path>

<path d="M 92.75 82
Q 94.6 85.1 98.05 86.6 101.05 87.85 103.25 87.3 104.75 86.9 106.05 87.55 112.05 88.75 115.55 84.65 115.75 84.45 115.9 84.25 115.95 84.15 115.95 84.05 115.95 83.8 116 83.5 116.05 83.15 116.2 82.85 116.25 82.8 116.25 82.7 116.25 82.6 116.25 82.5 116.25 82.4 116.2 82.3 116.1 82.1 115.95 81.9 115.95 81.8 115.95 81.7 115.95 81.6 115.95 81.5 115.95 81.3 115.95 81.15 115.95 81.05 115.95 80.95 115.95 80.85 115.9 80.75 115.85 80.65 115.8 80.55 115.75 80.45 115.7 80.35 115.6 80.25 115.45 80.15 115.15 79.9 114.95 79.55 114.8 79.35 114.7 79.15 114.65 79.05 114.5 79 114.2 78.75 114 78.4 113.85 78.2 113.75 78 113.65 77.9 113.55 77.85 113.35 77.8 113.15 77.7 113.05 77.6 113 77.5 112.9 77.4 112.9 77.3 108.7 74.6 103.65 75.05 98.45 75.5 94.5 78.95 93.05 80.2 92.75 82
M 166.15 74.15
Q 165.51328125 74.058984375 164.85 73.95 164.46328125 73.939453125 164.05 73.9 163.737890625 73.947265625 163.4 74 159.488671875 74.720703125 156.15 76.9 154.8 77.75 153.7 78.95 153.55 79.45 153.55 79.95 153.6 80.45 153.6 80.95 153.8 81.2 154 81.5 154.2 81.7 154.35 81.9 154.75 83.2 155.85 84.15 156.5 84.7 157.25 85.25 157.4 85.3 157.5 85.4 165.2 86.7 172.7 84.35 173.75 83.6 174.5 82.5 174.65 82.25 174.9 82 174.9 81.8 175 81.6 175.05 81.4 175.15 81.2 175.1 80.8 175.05 80.4 175 80.05 174.7 79.8 174.7 79.7 174.7 79.6 174.7 79.5 174.65 79.4 174.65 79.3 174.6 79.25 173.9 78.25 172.85 77.5 172.55 77.3 172.45 76.95 172.25 76.85 172.05 76.8 171.85 76.75 171.6 76.65 169.3 74.6 166.15 74.15 Z" stroke="none" fill="#EEDC7F"></path>
</g>
</g>
</g>
</g>
</svg>
