<svg version="1.1" xmlns="http://www.w3.org/2000/svg" xmlns:xlink="http://www.w3.org/1999/xlink" width="204.52289" height="91.02359" viewBox="0,0,204.52289,91.02359"><g transform="translate(-198.56894,-84.37446)"><g data-paper-data="{&quot;isPaintingLayer&quot;:true}" fill="#e30000" fill-rule="nonzero" stroke="none" stroke-width="0.5" stroke-linecap="butt" stroke-linejoin="miter" stroke-miterlimit="10" stroke-dasharray="" stroke-dashoffset="0" style="mix-blend-mode: normal"><path d="M256.96602,156.61029c0,2.5 -2.5,2.5 -2.5,2.5l-1.88414,-0.00283c-12.25568,-0.5836 -24.4921,-1.85601 -36.76087,-1.03392c-3.08819,0.19248 -6.1064,1.04029 -9.10811,1.79107c-1.97887,0.49495 -4.3157,2.23966 -6.01714,1.11449c-1.90151,-1.25748 -1.85511,-4.23656 -2.12666,-6.50003c-0.01696,-0.14136 1.36934,-10.27175 1.42631,-10.52246c1.816,-7.9925 5.3699,-15.61824 7.34922,-23.58369c2.73786,-11.01806 3.32626,-22.62365 4.92896,-33.84258c0,0 0.35355,-2.47487 2.82843,-2.12132c2.47487,0.35355 2.12132,2.82843 2.12132,2.82843c-1.62733,11.39132 -2.24626,23.15355 -5.02627,34.34124c-1.58266,6.36915 -3.85281,12.68311 -5.85885,18.93165c-1.48795,4.63477 -2.05565,9.01614 -2.77138,13.8181c-0.11568,0.7761 -1.06142,1.97151 -0.36144,2.3261c0.73213,0.37087 1.18019,-1.19161 1.92637,-1.53335c4.49489,-2.05859 5.52388,-1.69576 10.35656,-2.03657c12.46436,-0.82731 24.88132,0.43564 37.33138,1.0285l1.64631,-0.00283c0,0 2.5,0 2.5,2.5z"/><path d="M300.95102,102.77093c0,-1.04463 0.4365,-1.65275 0.94471,-2.00678c-6.86134,2.43477 -13.03711,6.93365 -18.78524,11.77096c-2.47458,2.08247 -5.22581,3.87184 -7.43516,6.23383c-2.20935,2.36199 -3.8112,5.22646 -5.72396,7.83444c-2.90546,3.96151 -4.36696,5.82632 -6.05142,10.40948c-0.57495,1.56436 -1.12292,3.13916 -1.73657,4.68874c-0.22721,0.57374 -0.87007,1.06582 -0.7843,1.67691c0.19187,1.3671 1.03881,2.55813 1.55821,3.83719c0.40919,1.2974 0.32366,2.87553 1.22757,3.89221c0.90391,1.01667 2.49685,1.08287 3.72182,1.6746c1.371,0.66228 2.60548,1.64757 4.06352,2.0862c3.05402,0.91877 6.34026,0.69887 9.50508,1.09267c1.48736,0.18507 2.96518,0.70853 4.45866,0.582c3.15414,-0.26723 6.05648,-1.84391 9.09206,-2.74129c2.88092,-0.85166 5.98041,-1.14735 8.6535,-2.51831c2.83687,-1.45496 5.0931,-3.83685 7.66295,-5.72381c1.17857,-0.86538 2.54914,-1.51149 3.54807,-2.57922c3.24247,-3.4658 4.88533,-7.3916 5.4208,-11.93294c0.2831,-2.40098 1.52785,-4.82998 0.98439,-7.18572c-1.01562,-4.4024 -3.65165,-8.25708 -6.76089,-11.32745c-3.24723,-3.29314 -6.83376,-6.13225 -11.30928,-7.35991l0.2455,0.09619c0,0 -2.5,0 -2.5,-2.5zM303.38045,100.27346c0.04536,-0.00253 0.07057,-0.00253 0.07057,-0.00253l1.12811,0.09619c5.33502,1.57238 9.55613,4.71394 13.4835,8.64433c2.50657,2.56532 4.61657,5.61834 6.01674,8.92035c0.73579,1.73521 1.76985,3.38414 2.14715,5.23075c0.57119,2.79558 -0.60318,5.67527 -0.9737,8.50444c-0.24078,1.83853 -0.11479,3.77042 -0.75239,5.51158c-2.54987,6.96315 -8.563,11.21721 -14.21964,15.37533c-1.45986,1.07312 -2.77662,2.3809 -4.39041,3.2046c-0.2488,0.12699 -9.27256,2.78101 -9.46694,2.83847c-0.5907,0.17462 -9.75702,2.90058 -10.08742,2.92857c-1.82813,0.15489 -3.64846,-0.39135 -5.47134,-0.59915c-5.73151,-0.65339 -10.03952,-0.98891 -15.22486,-3.67714c-1.75345,-0.90904 -3.89931,-1.34305 -5.21164,-2.81909c-1.31234,-1.47605 -1.45991,-3.67049 -2.18986,-5.50573c-0.61974,-1.85358 -1.69323,-3.61336 -1.85922,-5.56074c-0.10109,-1.18598 0.70214,-2.27525 1.09554,-3.39865c0.14322,-0.40898 3.51634,-9.49194 3.61612,-9.69404c1.2097,-2.45023 3.21268,-4.42119 4.82876,-6.62466c0.22268,-0.30361 5.97028,-8.14973 6.10426,-8.29296c0.13398,-0.14324 7.57921,-6.40143 7.86729,-6.64387c10.57311,-8.89774 22.28564,-16.132 36.63392,-14.60157c0,0 2.48471,0.27608 2.20863,2.76079c-0.27608,2.48471 -2.76079,2.20863 -2.76079,2.20863c-4.45621,-0.51828 -8.6379,-0.01411 -12.59237,1.19611z"/><path d="M402.30616,145.5751c1.76777,1.76777 0,3.53553 0,3.53553l-2.41507,2.23358c-18.48269,9.24023 -37.81193,15.80583 -56.92209,23.55799c-1.64894,-0.01868 -3.835,1.16185 -4.94681,-0.05603c-1.43664,-1.57368 -0.70376,-4.20786 -0.88404,-6.33105c-0.37906,-4.4642 -0.01782,-9.29566 0.11548,-13.76863c0.64249,-21.55935 1.97728,-43.92746 7.01443,-64.91558c0,0 0.58343,-2.43097 3.0144,-1.84754c2.43097,0.58343 1.84754,3.0144 1.84754,3.0144c-4.21965,17.58186 -5.44392,35.92234 -6.36861,53.96434c-0.34017,6.63726 -0.53693,13.23361 -0.59242,19.87936c-0.01741,2.08554 -0.23674,4.21731 -0.9149,6.18959c-0.10854,0.31565 0.23258,-0.62576 0.34886,-0.93864c18.77815,-7.75425 37.84048,-14.11566 56.05231,-23.22047l1.11538,-1.29687c0,0 1.76777,-1.76777 3.53553,0z"/></g></g></svg>