<svg version="1.1" xmlns="http://www.w3.org/2000/svg" xmlns:xlink="http://www.w3.org/1999/xlink" width="28.36263" height="25.59911" viewBox="0,0,28.36263,25.59911"><g transform="translate(-305.81868,-167.20044)"><g data-paper-data="{&quot;isPaintingLayer&quot;:true}" fill-rule="nonzero" stroke-linecap="butt" stroke-linejoin="miter" stroke-miterlimit="10" stroke-dasharray="" stroke-dashoffset="0" style="mix-blend-mode: normal"><path d="M305.81868,192.79956v-25.59911h28.36263v25.59911z" fill-opacity="0.01176" fill="#000000" stroke="#000000" stroke-width="0"/><path d="M308.00002,186.00003v-1.575c0,-0.71667 0.36667,-1.3 1.1,-1.75c0.73333,-0.45 1.7,-0.675 2.9,-0.675c0.21667,0 0.425,0.00417 0.625,0.0125c0.2,0.00833 0.39167,0.02917 0.575,0.0625c-0.23333,0.35 -0.40833,0.71667 -0.525,1.1c-0.11667,0.38333 -0.175,0.78333 -0.175,1.2v1.625zM314.00002,186.00003v-1.625c0,-0.53333 0.14583,-1.02083 0.4375,-1.4625c0.29167,-0.44167 0.70417,-0.82917 1.2375,-1.1625c0.53333,-0.33333 1.17083,-0.58333 1.9125,-0.75c0.74167,-0.16667 1.54583,-0.25 2.4125,-0.25c0.88333,0 1.69583,0.08333 2.4375,0.25c0.74167,0.16667 1.37917,0.41667 1.9125,0.75c0.53333,0.33333 0.94167,0.72083 1.225,1.1625c0.28333,0.44167 0.425,0.92917 0.425,1.4625v1.625zM327.50002,186.00003v-1.625c0,-0.43333 -0.05417,-0.84167 -0.1625,-1.225c-0.10833,-0.38333 -0.27083,-0.74167 -0.4875,-1.075c0.18333,-0.03333 0.37083,-0.05417 0.5625,-0.0625c0.19167,-0.00833 0.3875,-0.0125 0.5875,-0.0125c1.2,0 2.16667,0.22083 2.9,0.6625c0.73333,0.44167 1.1,1.02917 1.1,1.7625v1.575zM316.12502,184.00003h7.775c-0.16667,-0.33333 -0.62917,-0.625 -1.3875,-0.875c-0.75833,-0.25 -1.59583,-0.375 -2.5125,-0.375c-0.91667,0 -1.75417,0.125 -2.5125,0.375c-0.75833,0.25 -1.2125,0.54167 -1.3625,0.875zM312.00002,181.00003c-0.55,0 -1.02083,-0.19583 -1.4125,-0.5875c-0.39167,-0.39167 -0.5875,-0.8625 -0.5875,-1.4125c0,-0.56667 0.19583,-1.04167 0.5875,-1.425c0.39167,-0.38333 0.8625,-0.575 1.4125,-0.575c0.56667,0 1.04167,0.19167 1.425,0.575c0.38333,0.38333 0.575,0.85833 0.575,1.425c0,0.55 -0.19167,1.02083 -0.575,1.4125c-0.38333,0.39167 -0.85833,0.5875 -1.425,0.5875zM328.00002,181.00003c-0.55,0 -1.02083,-0.19583 -1.4125,-0.5875c-0.39167,-0.39167 -0.5875,-0.8625 -0.5875,-1.4125c0,-0.56667 0.19583,-1.04167 0.5875,-1.425c0.39167,-0.38333 0.8625,-0.575 1.4125,-0.575c0.56667,0 1.04167,0.19167 1.425,0.575c0.38333,0.38333 0.575,0.85833 0.575,1.425c0,0.55 -0.19167,1.02083 -0.575,1.4125c-0.38333,0.39167 -0.85833,0.5875 -1.425,0.5875zM320.00002,180.00003c-0.83333,0 -1.54167,-0.29167 -2.125,-0.875c-0.58333,-0.58333 -0.875,-1.29167 -0.875,-2.125c0,-0.85 0.29167,-1.5625 0.875,-2.1375c0.58333,-0.575 1.29167,-0.8625 2.125,-0.8625c0.85,0 1.5625,0.2875 2.1375,0.8625c0.575,0.575 0.8625,1.2875 0.8625,2.1375c0,0.83333 -0.2875,1.54167 -0.8625,2.125c-0.575,0.58333 -1.2875,0.875 -2.1375,0.875zM320.00002,178.00003c0.28333,0 0.52083,-0.09583 0.7125,-0.2875c0.19167,-0.19167 0.2875,-0.42917 0.2875,-0.7125c0,-0.28333 -0.09583,-0.52083 -0.2875,-0.7125c-0.19167,-0.19167 -0.42917,-0.2875 -0.7125,-0.2875c-0.28333,0 -0.52083,0.09583 -0.7125,0.2875c-0.19167,0.19167 -0.2875,0.42917 -0.2875,0.7125c0,0.28333 0.09583,0.52083 0.2875,0.7125c0.19167,0.19167 0.42917,0.2875 0.7125,0.2875z" fill="#b8b8ba" stroke="none" stroke-width="1"/></g></g></svg>