
<svg viewBox="0 0 272 172" height="172px" width="272px" y="0px" x="0px" preserveAspectRatio="none" xmlns:xlink="http://www.w3.org/1999/xlink" version="1.1" xmlns="http://www.w3.org/2000/svg">
<defs></defs>

<g id="Layer_2">
<g>
<g>
<g>
<path d="M 63.3 126
Q 63.3 126.15 63.3 126.25 63.3 127.95 63.9 129.45 63.95 131.85 64.5 134.2 64.910546875 135.8876953125 64.9 137.7 64.904296875 137.8744140625 64.9 138.05 65 138.15 65.05 138.3 65.1 138.4 65.15 138.55 65.15 138.65 65.15 138.8 65.05 139.8 65.35 140.75 65.45 141 65.55 141.25 65.55 141.35 65.55 141.5 65.55 142.2 65.55 142.95 65.55 143.1 65.55 143.2 65.65 143.35 65.7 143.45 65.8 143.95 65.8 144.45 65.8 144.55 65.8 144.7 65.9 144.8 65.95 144.9 66.05 145.05 66.1 145.15 66.15 145.3 66.15 145.4 66.2 146.05 66.2 146.65 66.2 146.75 66.2 146.9 66.2 147 66.25 147.1 66.5 147.4 66.8 147.65 66.8 147.75 66.85 147.85 67.1 148.5 67.4 149.1 67.45 149.2 67.5 149.35 68.85 150.7 69.85 152.25 70.4798828125 153.2849609375 71.2 154.25 75.8521484375 154.280078125 80.55 154.25 89.197265625 154.1875 98 154 89.4853515625 150.7451171875 81.35 146.3 80.9462890625 146.0783203125 80.55 145.85 74.8390625 142.5451171875 70.7 137.7 69.02890625 135.68359375 67.6 133.4 67.3 132.4 66.75 131.4 65.85 129.85 64.4 128.8 64.35 128.65 64.35 128.5 64.3 128.2 64.3 127.85 63.7 126.95 63.3 126
M 210.85 119.1
Q 210.3 121 209.85 122.9 209.05 126.15 207.35 129 207.35 129.15 207.35 129.3 207.2 129.75 207.25 130.25 207.25 130.4 207.25 130.55 206.9 131.1 206.55 131.7 205.9 132.9 205.6 134.2 205.6 134.4 205.55 134.55 204.6234375 136.2005859375 203.45 137.7 202.646875 138.7900390625 201.7 139.8 200.3 141.4 199.1 143.15 198.75 143.3 198.45 143.45 197.65 143.85 197.25 144.65 191.424609375 149.105859375 185.05 152.45 194.7396484375 152.1279296875 204.35 151.7
L 204.4 151.65
Q 204.55 151.3 204.5 150.9 205.2 150.15 205.65 149.15 206.2 147.95 207 146.95 207 146.85 207.05 146.75 207.05 146.6 207.1 146.5 207.2 146.35 207.3 146.25 207.85 145.55 208.35 144.75 208.35 144.65 208.35 144.5 208.35 144.15 208.35 143.8 208.4 143.65 208.5 143.55 208.75 143.3 209 143.05 209 142.9 209 142.8 209 142.55 209 142.3 209.55 141.5 209.7 140.6 209.95 139.25 209.95 137.9 210.0263671875 137.7853515625 210.1 137.7 210.1263671875 137.6736328125 210.15 137.65 210.2 137.5 210.3 137.4 210.35 137.25 210.35 137.15 210.4 136.55 210.4 135.9 210.4 135.8 210.4 135.65 210.4 135.55 210.5 135.45 210.55 135.3 210.65 135.15 210.65 129.75 211.1 124.35 211.25 121.7 210.85 119.1
M 176.35 130.95
Q 182.95 127.15 188.4 121.8 174.35 128.2 158.7 130.05 154.289453125 130.58046875 149.9 130.8 130.701171875 131.9416015625 111.9 127.75 106.35 126.5 101.3 123.95 98.75 122.65 96.3 121.7 96.05 121.4 95.9 121.1 95.8 121 95.7 120.9 95.15 120.7 94.45 120.45 94.4 120.35 94.35 120.25 94.25 120.15 94.15 120.05 93.15 119.65 92.05 119.45 91.05 118.6 89.9 117.95 89.65 117.85 89.6 118 94.05 129.2 105.35 134.25 109.839453125 136.2330078125 114.5 137.7 118.2923828125 138.8966796875 122.2 139.75 129 141.25 135.95 141.5 143.0384765625 141.736328125 149.9 140.6 154.6546875 139.832421875 159.3 138.4 160.391796875 138.0646484375 161.45 137.7 169.2380859375 135.0767578125 176.35 130.95
M 66.55 98.7
Q 66.6 98.8 66.6 98.85 66.6 99.3 66.8 99.65 67.05 102.8 67.4 105.95 67.55 107.65 67.7 109.3 69.35 109.3 71 109.65 71.1 109.65 71.25 109.7 73.8 109.4 76.4 109.05 76.3 107.5 74.55 105.95 73.3 104.8 72.5 103.3 69.9 100.25 66.95 97.55 66.7 98.1 66.55 98.7
M 80.55 81.8
Q 79.7375 79.89140625 79 77.9 78.7 77 78.35 76.15 78.2 80.1 78.25 84.05 78.25 87 78.4 89.9 79.479296875 89.609375 80.55 89.3 82.05859375 88.8470703125 83.55 88.35 81.9404296875 85.1623046875 80.55 81.8
M 204.55 101.55
Q 204.55 100.35 204.55 99.1 203.45 99.55 202.15 99.75 201.4 99.85 200.6 100 200.45 100.15 200.3 100.3 200.15 100.45 200 100.55 199.9 100.6 199.8 100.6 198.65 100.95 197.55 101.45 197.45 101.6 197.3 101.7 196.85 102.1 196.4 102.6 196.3 102.65 196.2 102.65 195.8 102.8 195.4 102.9 195.25 103.05 195.05 103.15 194.35 103.45 194.15 104.1 194.15 104.2 194.1 104.25 193.4 104.6 192.65 104.85 198.45 105.8 204.55 106.7 204.55 104.15 204.55 101.55
M 196.7 82.25
Q 196.7 82.1 196.65 82 195.6 83.4 194.65 84.9 193.65 86.5 192.4 87.95 192.1 88.1 191.85 88.3 191.75 88.4 191.7 88.55 194.05 89.6 197 90.85 197 90.65 197 90.5 197.15 88.75 196.7 87.15 196.7 86.25 196.7 85.4 196.7 83.8 196.7 82.25 Z" stroke="none" fill="#EE9D33"></path>

<path d="M 178.6 62.85
Q 178.6 62.7 178.65 62.55 178.8 61.9 178.2 61.6 168.85 63.5 159.25 65.3 159.15 65.15 159.05 65 158.6 64.1 158.3 63.15 158.2 63 158.1 62.85 158.1 62.7 158.05 62.55 157.9 62.1 157.7 61.6 157.7 61.45 157.7 61.3 157.7 60.55 157.7 59.8 157.7 59.3 157.7 58.85 157.6 58.7 157.55 58.55 157.25 57.65 157.1 56.7 157.05 56.4 156.9 56.1 156.9 55.95 156.9 55.8 156.9 55.3 156.9 54.85 156.8 54.7 156.7 54.55 156.6 54.4 156.5 54.25 156.5 54.1 156.5 53.95 156.55 53.35 156.05 53 152.9712890625 54.2314453125 149.9 55.65 144.9904296875 57.9703125 140.1 60.8
L 140.1 60.85
Q 138.85 60.85 137.65 60.8 137.5 60.65 137.35 60.5 137.3 60.4 137.25 60.3 137.2 60.25 137.1 60.2 136.75 60.1 136.4 60 136.4 59.85 136.35 59.7 135.75 58.6 134.75 57.85 134.75 57.7 134.7 57.6 134.15 56.85 133.45 56.3 133.15 55.7 132.9 55.05 132.45 53.7 131.5 52.6 131.5 52.45 131.45 52.3 131.45 52.15 131.4 52 131.2 51.7 130.95 51.4 130.1 50.4 129.55 49.2 129.5 49.1 129.45 48.9 129.4 48.8 129.35 48.8 128.95 48.75 128.5 48.8 123.65 53.35 119.65 58.65 118.1 60.7 116.85 62.95 115.05 63.1 113.25 63.25 110.05 61.25 106.85 59.1 106.2 58.6 105.7 57.95 103.5 56.55 101.35 55.05 100.6 54.55 99.85 54.05 99.05 59.4 99.1 65.1 99.15 69.25 99.15 73.4 99.15 73.7 99.15 74 89.99375 73.7734375 80.55 71.5 79.5765625 71.25703125 78.6 71 78.6 71.1 78.6 71.2
L 78.6 71.25
Q 78.7 71.55 78.75 71.85 78.85 72 78.95 72.15 79.2 72.5 79.45 72.8 79.9888671875 74.4166015625 80.55 76 81.446484375 78.597265625 82.4 81.15 83.65 84.35 85.5 87.2 85.55 87.35 85.6 87.55 85.6 88 85.6 88.45 85.6 88.6 85.6 88.75 83.1357421875 89.7021484375 80.55 90.5 73.9017578125 92.6400390625 66.45 93.9 66.55 94.05 66.7 94.15 66.8 94.25 66.85 94.35 67.35 94.35 67.85 94.45
L 67.85 94.55
Q 67.9 95.05 67.75 95.55 72.5 99.65 76.45 104.65 78 106.7 79.05 108.95 76.55 110.6 72.4 110.95 67.55 111.3 63.1 111.35 62.5 111.55 61.9 111.85 61.85 111.95 61.85 112.05 61.8 112.25 61.8 112.45 61.85 112.65 61.85 112.85 61.85 112.95 61.85 113.05 62.2 113.05 62.6 113.1
L 62.6 113.2
Q 62.6 113.35 62.6 113.45 62.6 114.35 62.6 115.2 62.6 115.45 62.6 115.7 62.65 115.8 62.7 115.9 62.75 116.05 62.85 116.15 62.85 116.3 62.85 116.45 62.95 116.6 63 116.8 63.05 116.95 63.1 117.1 63.1 117.25 63.1 117.45 63.1 118.2 63.1 118.95 63.1 119.25 63.1 119.6 64.05 121.3 64.65 123.25 65.25 125.35 66.35 127.25 66.35 127.4 66.4 127.55 66.4 127.85 66.45 128.2 67.35 128.75 67.8 129.75 68.45 131.15 69.55 132.15 69.6 132.35 69.6 132.5 69.65 132.65 69.65 132.8 71.5216796875 135.3923828125 73.65 137.7 76.813671875 141.0802734375 80.55 143.85 85.23515625 147.3021484375 90.85 149.8 95.9712890625 152.086328125 101.15 153.9 103.3298828125 153.861328125 105.5 153.8 117.8 153.45 130.15 153.45 140.0451171875 153.419921875 149.9 153.25 166.217578125 153.0611328125 182.4 152.55 189.12109375 148.9986328125 195.1 144.15 195.2 144 195.3 143.85 195.85 143 196.8 142.6 198 141.35 199 139.85 199.8603515625 138.6455078125 200.95 137.7 201.1615234375 137.5466796875 201.35 137.4 201.6 136.95 201.85 136.5 202.55 135.2 203.5 134 203.7 132.7 204.35 131.55 205.3 130 205.45 128.2 207.25 124.35 208.25 120.15 208.95 117.05 210.15 114.05 210.15 113.15 210.15 112.2 210.15 110.5 210.15 108.85 210.15 108.65 210.15 108.5 199.9 106.9 189.65 105.55 189.65 105.4 189.7 105.3 190.15 104.55 190.8 104 190.9 103.9 191 103.8 191.05 103.75 191.1 103.75 191.6 103.6 192.1 103.5 192.15 103.35 192.25 103.25 192.85 102.6 193.55 102.05 193.95 101.95 194.35 101.85 195.3 100.8 196.65 100.35 197.8 100 198.75 99.3 201.2 98.85 203.3 97.7 203.85 97.4 204.6 97.05 196.95 92.05 189.25 88.85 190.9 86.6 192.75 84 193.95 82.3 195.2 80.55 195.25 80.4 195.25 80.25 195.35 79.8 195.4 79.35 195.55 79.2 195.7 79.1 195.05 77.55 194.85 75.95 195.15 75.95 195.45 76 195.35 75.9 195.3 75.85
L 195.3 75.8
Q 194.15 75.6 193.15 75.05 186.05 74.8 179 74.5 179 71.6 179.15 68.7 179.3 65.65 178.6 62.85
M 162.3 89.9
Q 166.8 89.35 170.85 90.9 172.4 91.5 173.45 92.65 173.5 92.7 173.6 92.7 173.75 92.75 173.9 92.8 174.1 92.85 174.3 92.9 174.35 93 174.45 93.1 175.1 93.7 175.75 94.35 176.1 94.75 176.5 95.05 176.55 95.15 176.6 95.25 176.6 95.35 176.65 95.45 176.65 95.65 176.65 95.85 176.8 95.95 176.85 96.1 176.9 96.15 176.9 96.25 176.9 96.45 176.9 96.65 177 96.75 177.05 96.85 177.1 96.95 177.2 97.05 177.2 97.15 177.2 97.25 177.2 97.45 177.2 97.65 177.2 97.95 177.2 98.2 177.2 98.3 177.2 98.4 177.15 98.5 177.1 98.6 176.85 99.4 176.25 100.15 175.55 101.05 174.6 101.75 165.6 104.8 156.7 102.85 153.6 102.15 152.4 99.25 152.3 99.15 152.2 99.05 152.1 98.95 152.05 98.85 151.8 98.6 151.6 98.3 151.6 98.2 151.6 98.1 151.6 97.6 151.6 97.1 151.6 96.6 151.6 96.1 151.6 95.75 151.6 95.35 151.7 95.25 151.75 95.15 151.8 95.05 151.85 94.95 151.9 94.85 151.95 94.75 153 93.65 154.3 92.85 158 90.5 162.3 89.9
M 192 117.55
Q 192.1 117.45 192.15 117.35 192.2 117.25 192.3 117.2 192.4 117.1 192.5 117.05
L 192.5 117
Q 193.5 117.1 194.45 117.3 194.5 117.3 194.5 117.4 194.5 117.5 194.45 117.6 194.4 118 194.1 118.25 193.8 118.5 193.5 118.8 193.45 118.9 193.45 119 193.4 119.1 193.35 119.2 193.35 119.3 193.3 119.4 193.2 119.5 193.1 119.55 192.6 119.85 192.25 120.25 191.9 120.7 191.45 121.15 191.45 121.25 191.4 121.35 191.35 121.45 191.3 121.55 191.25 121.65 191.2 121.75 184.45 128.5 176.05 133.05 171.1177734375 135.7546875 165.9 137.7 161.2873046875 139.4228515625 156.45 140.55 153.218359375 141.3103515625 149.9 141.7 148.854296875 141.8162109375 147.8 141.9 128.5677734375 143.4314453125 110.25 137.7 108.2537109375 137.069140625 106.25 136.35 96.05 132.65 90.55 123.7 89.15 121.5 87.7 119.3 87.7 119.2 87.7 119.1 87.65 118.95 87.65 118.75 87.65 118.65 87.65 118.55 87.65 118.45 87.65 118.35 87.6 118.25 87.55 118.15 87.45 117.95 87.4 117.75 87.4 117.65 87.4 117.55 87.35 117.45 87.3 117.35 87.25 117.25 87.15 117.15 87.15 117.05 87.15 116.95 87.15 116.75 87.15 116.55 87.15 116.45 87.15 116.35 87.15 116.25 87.15 116.2 87.2 116.1 87.25 116.05 88.5 116.1 89.7 116.1 90.25 116.7 91 117.05 92.5 117.75 93.9 118.75 94.05 118.8 94.2 118.8 95.45 118.9 96.35 119.65 96.45 119.75 96.55 119.85 96.75 119.9 96.9 119.95 97.25 120.05 97.55 120.1 97.65 120.2 97.75 120.3 97.9 120.5 98 120.7 98.1 120.8 98.15 120.9 98.2 120.95 98.3 121 98.75 121.1 99.2 121.15 108.25 126.95 118.95 128.65 134.398046875 131.1083984375 149.9 129.95 155.5212890625 129.5416015625 161.15 128.65 164 128.2 166.9 127.65 177.45 125.55 186.95 120.75 187.05 120.65 187.15 120.55 187.2 120.45 187.25 120.35 188.25 120 189.15 119.5 190.65 118.6 192 117.55
M 90.8 97.85
Q 90.8 97.75 90.8 97.65 91.4 95.95 92.75 94.85 97.55 91 103.65 90.75 108.05 90.55 112.15 92 113.45 92.5 114.65 93.25 114.75 93.35 114.85 93.45 114.9 93.55 115 93.65 115.05 93.7 115.15 93.75 115.2 93.8 115.3 93.85 115.5 93.9 115.65 93.95 115.7 94.05 115.75 94.15 115.85 94.25 115.9 94.35 116.05 94.55 116.25 94.75 116.35 94.85 116.45 94.95 116.55 95.05 116.7 95.15 116.75 95.25 116.8 95.35 116.85 95.45 116.9 95.55 116.9 95.65 116.95 95.75 117.05 95.85 117.15 95.95 117.25 96 117.35 96.1 117.5 96.2 117.6 96.3 117.65 96.4 117.75 96.5 117.75 96.6 117.8 96.7 117.85 96.8 117.85 96.9 117.9 97.1 117.95 97.3 117.95 97.4 117.95 97.5 117.95 97.6 117.95 97.7 117.95 97.8 118 97.85 118.05 98 118.1 98.1 118.15 98.2 118.2 98.3 118.2 98.4 118.2 98.5 118.2 98.6 118.2 98.7 118.2 98.85 118.2 99.05 118.2 99.15 118.2 99.25 118.2 99.35 118.2 99.45 118.2 99.75 118.2 100.05 118.2 100.15 118.2 100.25 118.15 100.35 118.1 100.45 118.05 100.55 118 100.65 117.95 100.75 117.95 100.85 117.95 100.95 117.95 101.05 117.95 101.15 117.95 101.25 117.95 101.35 117.95 101.45 117.9 101.55 117.85 101.6 117.8 101.7 117.75 101.8 117.5 102.1 117.25 102.45 117 102.85 116.6 103.2 116.2 103.55 115.85 103.9 107.5 106.6 98.75 104.9 94.1 103.95 91.45 100.2 91.35 100.1 91.2 100 91.1 99.9 91 99.8 90.95 99.7 90.85 99.6 90.85 99.5 90.8 99.4 90.8 99.3 90.8 99.2 90.8 99 90.8 98.8 90.8 98.7 90.8 98.6 90.8 98.5 90.8 98.4 90.8 98.1 90.8 97.85 Z" stroke="none" fill="#FDDF5E"></path>

<path d="M 90.8 97.65
Q 90.8 97.75 90.8 97.85 90.8 98.1 90.8 98.4 90.8 98.5 90.8 98.6 90.8 98.7 90.8 98.8 90.8 99 90.8 99.2 90.8 99.3 90.8 99.4 90.85 99.5 90.85 99.6 90.95 99.7 91 99.8 91.1 99.9 91.2 100 91.35 100.1 91.45 100.2 94.1 103.95 98.75 104.9 107.5 106.6 115.85 103.9 116.2 103.55 116.6 103.2 117 102.85 117.25 102.45 117.5 102.1 117.75 101.8 117.8 101.7 117.85 101.6 117.9 101.55 117.95 101.45 117.95 101.35 117.95 101.25 117.95 101.15 117.95 101.05 117.95 100.95 117.95 100.85 117.95 100.75 118 100.65 118.05 100.55 118.1 100.45 118.15 100.35 118.2 100.25 118.2 100.15 118.2 100.05 118.2 99.75 118.2 99.45 118.2 99.35 118.2 99.25 118.2 99.15 118.2 99.05 118.2 98.85 118.2 98.7 118.2 98.6 118.2 98.5 118.2 98.4 118.2 98.3 118.15 98.2 118.1 98.1 118.05 98 118 97.85 117.95 97.8 117.95 97.7 117.95 97.6 117.95 97.5 117.95 97.4 117.95 97.3 117.9 97.1 117.85 96.9 117.85 96.8 117.8 96.7 117.75 96.6 117.75 96.5 117.65 96.4 117.6 96.3 117.5 96.2 117.35 96.1 117.25 96 117.15 95.95 117.05 95.85 116.95 95.75 116.9 95.65 116.9 95.55 116.85 95.45 116.8 95.35 116.75 95.25 116.7 95.15 116.55 95.05 116.45 94.95 116.35 94.85 116.25 94.75 116.05 94.55 115.9 94.35 115.85 94.25 115.75 94.15 115.7 94.05 115.65 93.95 115.5 93.9 115.3 93.85 115.2 93.8 115.15 93.75 115.05 93.7 115 93.65 114.9 93.55 114.85 93.45 114.75 93.35 114.65 93.25 113.45 92.5 112.15 92 108.05 90.55 103.65 90.75 97.55 91 92.75 94.85 91.4 95.95 90.8 97.65
M 92.75 98.7
Q 93.05 96.9 94.5 95.65 98.45 92.2 103.65 91.75 108.7 91.3 112.9 94 112.9 94.1 113 94.2 113.05 94.3 113.15 94.4 113.35 94.5 113.55 94.55 113.65 94.6 113.75 94.7 113.85 94.9 114 95.1 114.2 95.45 114.5 95.7 114.65 95.75 114.7 95.85 114.8 96.05 114.95 96.25 115.15 96.6 115.45 96.85 115.6 96.95 115.7 97.05 115.75 97.15 115.8 97.25 115.85 97.35 115.9 97.45 115.95 97.55 115.95 97.65 115.95 97.75 115.95 97.85 115.95 98 115.95 98.2 115.95 98.3 115.95 98.4 115.95 98.5 115.95 98.6 116.1 98.8 116.2 99 116.25 99.1 116.25 99.2 116.25 99.3 116.25 99.4 116.25 99.5 116.2 99.55 116.05 99.85 116 100.2 115.95 100.5 115.95 100.75 115.95 100.85 115.9 100.95 115.75 101.15 115.55 101.35 112.05 105.45 106.05 104.25 104.75 103.6 103.25 104 101.05 104.55 98.05 103.3 94.6 101.8 92.75 98.7
M 192.15 117.35
Q 192.1 117.45 192 117.55 190.65 118.6 189.15 119.5 188.25 120 187.25 120.35 187.2 120.45 187.15 120.55 187.05 120.65 186.95 120.75 177.45 125.55 166.9 127.65 164 128.2 161.15 128.65 155.5212890625 129.5416015625 149.9 129.95 134.398046875 131.1083984375 118.95 128.65 108.25 126.95 99.2 121.15 98.75 121.1 98.3 121 98.2 120.95 98.15 120.9 98.1 120.8 98 120.7 97.9 120.5 97.75 120.3 97.65 120.2 97.55 120.1 97.25 120.05 96.9 119.95 96.75 119.9 96.55 119.85 96.45 119.75 96.35 119.65 95.45 118.9 94.2 118.8 94.05 118.8 93.9 118.75 92.5 117.75 91 117.05 90.25 116.7 89.7 116.1 88.5 116.1 87.25 116.05 87.2 116.1 87.15 116.2 87.15 116.25 87.15 116.35 87.15 116.45 87.15 116.55 87.15 116.75 87.15 116.95 87.15 117.05 87.15 117.15 87.25 117.25 87.3 117.35 87.35 117.45 87.4 117.55 87.4 117.65 87.4 117.75 87.45 117.95 87.55 118.15 87.6 118.25 87.65 118.35 87.65 118.45 87.65 118.55 87.65 118.65 87.65 118.75 87.65 118.95 87.7 119.1 87.7 119.2 87.7 119.3 89.15 121.5 90.55 123.7 96.05 132.65 106.25 136.35 108.2537109375 137.069140625 110.25 137.7 128.5677734375 143.4314453125 147.8 141.9 148.854296875 141.8162109375 149.9 141.7 153.218359375 141.3103515625 156.45 140.55 161.2873046875 139.4228515625 165.9 137.7 171.1177734375 135.7546875 176.05 133.05 184.45 128.5 191.2 121.75 191.25 121.65 191.3 121.55 191.35 121.45 191.4 121.35 191.45 121.25 191.45 121.15 191.9 120.7 192.25 120.25 192.6 119.85 193.1 119.55 193.2 119.5 193.3 119.4 193.35 119.3 193.35 119.2 193.4 119.1 193.45 119 193.45 118.9 193.5 118.8 193.8 118.5 194.1 118.25 194.4 118 194.45 117.6 194.5 117.5 194.5 117.4 194.5 117.3 194.45 117.3 193.5 117.1 192.5 117
L 192.5 117.05
Q 192.4 117.1 192.3 117.2 192.2 117.25 192.15 117.35
M 188.4 121.8
Q 182.95 127.15 176.35 130.95 169.2380859375 135.0767578125 161.45 137.7 160.391796875 138.0646484375 159.3 138.4 154.6546875 139.832421875 149.9 140.6 143.0384765625 141.736328125 135.95 141.5 129 141.25 122.2 139.75 118.2923828125 138.8966796875 114.5 137.7 109.839453125 136.2330078125 105.35 134.25 94.05 129.2 89.6 118 89.65 117.85 89.9 117.95 91.05 118.6 92.05 119.45 93.15 119.65 94.15 120.05 94.25 120.15 94.35 120.25 94.4 120.35 94.45 120.45 95.15 120.7 95.7 120.9 95.8 121 95.9 121.1 96.05 121.4 96.3 121.7 98.75 122.65 101.3 123.95 106.35 126.5 111.9 127.75 130.701171875 131.9416015625 149.9 130.8 154.289453125 130.58046875 158.7 130.05 174.35 128.2 188.4 121.8
M 170.85 90.9
Q 166.8 89.35 162.3 89.9 158 90.5 154.3 92.85 153 93.65 151.95 94.75 151.9 94.85 151.85 94.95 151.8 95.05 151.75 95.15 151.7 95.25 151.6 95.35 151.6 95.75 151.6 96.1 151.6 96.6 151.6 97.1 151.6 97.6 151.6 98.1 151.6 98.2 151.6 98.3 151.8 98.6 152.05 98.85 152.1 98.95 152.2 99.05 152.3 99.15 152.4 99.25 153.6 102.15 156.7 102.85 165.6 104.8 174.6 101.75 175.55 101.05 176.25 100.15 176.85 99.4 177.1 98.6 177.15 98.5 177.2 98.4 177.2 98.3 177.2 98.2 177.2 97.95 177.2 97.65 177.2 97.45 177.2 97.25 177.2 97.15 177.2 97.05 177.1 96.95 177.05 96.85 177 96.75 176.9 96.65 176.9 96.45 176.9 96.25 176.9 96.15 176.85 96.1 176.8 95.95 176.65 95.85 176.65 95.65 176.65 95.45 176.6 95.35 176.6 95.25 176.55 95.15 176.5 95.05 176.1 94.75 175.75 94.35 175.1 93.7 174.45 93.1 174.35 93 174.3 92.9 174.1 92.85 173.9 92.8 173.75 92.75 173.6 92.7 173.5 92.7 173.45 92.65 172.4 91.5 170.85 90.9
M 164.05 90.6
Q 164.46328125 90.639453125 164.85 90.65 165.51328125 90.758984375 166.15 90.85 169.3 91.3 171.6 93.35 171.85 93.45 172.05 93.5 172.25 93.55 172.45 93.65 172.55 94 172.85 94.2 173.9 94.95 174.6 95.95 174.65 96 174.65 96.1 174.7 96.2 174.7 96.3 174.7 96.4 174.7 96.5 175 96.75 175.05 97.1 175.1 97.5 175.15 97.9 175.05 98.1 175 98.3 174.9 98.5 174.9 98.7 174.65 98.95 174.5 99.2 173.75 100.3 172.7 101.05 165.2 103.4 157.5 102.1 157.4 102 157.25 101.95 156.5 101.4 155.85 100.85 154.75 99.9 154.35 98.6 154.2 98.4 154 98.2 153.8 97.9 153.6 97.65 153.6 97.15 153.55 96.65 153.55 96.15 153.7 95.65 154.8 94.45 156.15 93.6 159.488671875 91.420703125 163.4 90.7 163.737890625 90.647265625 164.05 90.6
M 180 60.7
Q 179.9 60.55 179.7 60.4 170.1 61.45 161 64.2 160.95 63.9 160.8 63.7 160.75 63.5 160.55 63.35 160.55 63.2 160.55 63.05 160.35 62.6 160.2 62.1 160.15 62 160.15 61.85 159.95 61.5 159.8 61.2 159.75 61.05 159.75 60.9 159.75 60.75 159.75 60.6 159.95 58.85 159.6 57.15 159.4 56.25 158.95 55.35 158.95 55.05 158.95 54.75 158.95 54.6 158.95 54.45 158.9 54.3 158.8 54.2 158.45 53.75 158.5 53.2 158.55 53.05 158.55 52.9 158.5 52.75 158.4 52.65 158.25 52.45 158.1 52.3 158.05 52 157.95 51.7 157.85 51.55 157.7 51.4 156.4 51.35 155.05 51.35 154.9 51.4 154.75 51.5 154.2 51.9 153.7 52.4 153.5 52.55 153.3 52.7 151.591015625 53.4080078125 149.9 54.15 144.6642578125 56.4912109375 139.6 59.25 139.05 59.3 138.55 59.25 138.5 59.25 138.45 59.15 138.15 58.15 137.25 57.6 137.05 57.45 136.9 57.3 136.85 57.15 136.8 57 136.75 56.85 136.7 56.7 136.3 56.4 135.9 56.05 135.75 55.95 135.6 55.8 134.9 54.6 134.35 53.35 134.1 52.65 133.55 52.1 133.55 51.95 133.5 51.8 132.95 50.5 132 49.35 131.55 48.8 131.4 48.1 131.1 48 130.8 47.85 130.75 47.85 130.65 47.8 130.55 47.7 130.5 47.6 130.35 47.45 130.25 47.3 129.15 47.25 128 47.2 125.5 48.85 123.3 51.25 118.5 56.5 114.6 62.15 114.1 61.75 113.5 61.4 107.35 57.7 101.7 53.1 101.15 52.95 100.6 52.75 100.4 52.7 100.25 52.6 99.2 52.55 98.1 52.6 98 52.6 97.9 52.7 97.95 53.25 97.65 53.65 97.55 53.8 97.5 53.95 97.5 54.25 97.5 54.55 97.25 58.7 97.2 62.85 97.1 68.05 97.1 73.3 91.85 72.95 86.8 71.3 83.539453125 70.2580078125 80.55 70.25 79.0927734375 70.254296875 77.7 70.5 77.15 70.45 76.65 70.45 76.65 70.6 76.65 70.75 76.4 70.8 76.2 70.85 76.4 71.25 76.55 71.7 76.35 74.45 76.35 77.25 76.35 83.8 76.35 90.35 74.4 90.75 72.45 91.05 67.4 91.8 64.3 94.1 64.75 95.05 65.35 95.85 65.05 96.7 64.8 97.6 64.35 99 64.85 100.3 64.95 102.7 65.25 105.05 65.6 107.2 65.65 109.4 65.25 109.45 64.85 109.5 62.6 110.15 60.25 110.9 60.15 110.95 60 111 59.95 111.05 59.95 111.15 59.25 111.2 58.6 111.3 59.2 111.3 59.85 111.35 59.8 111.35 59.75 111.4 59.65 111.5 59.6 111.6 59.6 111.7 59.6 111.8 59.6 111.9 59.6 112 59.6 112.1 59.6 112.2 59.6 112.25 59.6 112.3 59.55 112.3 59.45 112.35 59.4 112.35 59.4 112.5 59.4 112.65 59.4 112.8 59.4 113.3 59.4 113.75 59.4 113.9 59.4 114.05 59.9 114.4 59.85 114.95 59.8 115.1 59.8 115.3 60.05 115.6 60.3 115.9 60.45 116.05 60.55 116.2 60.6 116.35 60.6 116.5 60.6 117.05 60.9 117.45 60.85 119 60.75 120.5 60.65 122.7 61.3 124.7 61.5 126.3 61.45 127.9 61.4 129.05 61.95 130.1 62 132.1 62.5 134.05 63.013671875 135.828125 63 137.7 62.9919921875 138.1966796875 62.95 138.7 63 138.8 63.1 138.95 63.15 139.05 63.15 139.2 63.15 139.45 63.15 139.7 63 140.75 63.5 141.65 63.55 141.75 63.6 141.9 63.6 142 63.6 142.15 63.6 143 63.7 143.85 63.7 144 63.85 144.1 63.85 144.25 63.85 144.35 63.85 144.7 63.85 145.1 63.85 145.2 63.85 145.35 64 145.6 64.15 145.85 64.2 145.95 64.25 146.05 64.25 146.2 64.25 146.3 64.25 146.8 64.25 147.3 64.25 147.4 64.25 147.55 64.4 147.8 64.6 148 64.7 148.15 64.8 148.3 64.85 148.4 64.9 148.55 65.15 149.2 65.45 149.75 65.5 149.9 65.55 150 66.6 151 67.35 152.2 68.044140625 153.2759765625 68.75 154.25 69.981640625 154.278515625 71.2 154.25 70.4798828125 153.2849609375 69.85 152.25 68.85 150.7 67.5 149.35 67.45 149.2 67.4 149.1 67.1 148.5 66.85 147.85 66.8 147.75 66.8 147.65 66.5 147.4 66.25 147.1 66.2 147 66.2 146.9 66.2 146.75 66.2 146.65 66.2 146.05 66.15 145.4 66.15 145.3 66.1 145.15 66.05 145.05 65.95 144.9 65.9 144.8 65.8 144.7 65.8 144.55 65.8 144.45 65.8 143.95 65.7 143.45 65.65 143.35 65.55 143.2 65.55 143.1 65.55 142.95 65.55 142.2 65.55 141.5 65.55 141.35 65.55 141.25 65.45 141 65.35 140.75 65.05 139.8 65.15 138.8 65.15 138.65 65.15 138.55 65.1 138.4 65.05 138.3 65 138.15 64.9 138.05 64.904296875 137.8744140625 64.9 137.7 64.910546875 135.8876953125 64.5 134.2 63.95 131.85 63.9 129.45 63.3 127.95 63.3 126.25 63.3 126.15 63.3 126 63.7 126.95 64.3 127.85 64.3 128.2 64.35 128.5 64.35 128.65 64.4 128.8 65.85 129.85 66.75 131.4 67.3 132.4 67.6 133.4 69.02890625 135.68359375 70.7 137.7 74.8390625 142.5451171875 80.55 145.85 80.9462890625 146.0783203125 81.35 146.3 89.4853515625 150.7451171875 98 154 99.5841796875 153.96328125 101.15 153.9 95.9712890625 152.086328125 90.85 149.8 85.23515625 147.3021484375 80.55 143.85 76.813671875 141.0802734375 73.65 137.7 71.5216796875 135.3923828125 69.65 132.8 69.65 132.65 69.6 132.5 69.6 132.35 69.55 132.15 68.45 131.15 67.8 129.75 67.35 128.75 66.45 128.2 66.4 127.85 66.4 127.55 66.35 127.4 66.35 127.25 65.25 125.35 64.65 123.25 64.05 121.3 63.1 119.6 63.1 119.25 63.1 118.95 63.1 118.2 63.1 117.45 63.1 117.25 63.1 117.1 63.05 116.95 63 116.8 62.95 116.6 62.85 116.45 62.85 116.3 62.85 116.15 62.75 116.05 62.7 115.9 62.65 115.8 62.6 115.7 62.6 115.45 62.6 115.2 62.6 114.35 62.6 113.45 62.6 113.35 62.6 113.2
L 62.6 113.1
Q 62.2 113.05 61.85 113.05 61.85 112.95 61.85 112.85 61.85 112.65 61.8 112.45 61.8 112.25 61.85 112.05 61.85 111.95 61.9 111.85 62.5 111.55 63.1 111.35 67.55 111.3 72.4 110.95 76.55 110.6 79.05 108.95 78 106.7 76.45 104.65 72.5 99.65 67.75 95.55 67.9 95.05 67.85 94.55
L 67.85 94.45
Q 67.35 94.35 66.85 94.35 66.8 94.25 66.7 94.15 66.55 94.05 66.45 93.9 73.9017578125 92.6400390625 80.55 90.5 83.1357421875 89.7021484375 85.6 88.75 85.6 88.6 85.6 88.45 85.6 88 85.6 87.55 85.55 87.35 85.5 87.2 83.65 84.35 82.4 81.15 81.446484375 78.597265625 80.55 76 79.9888671875 74.4166015625 79.45 72.8 79.2 72.5 78.95 72.15 78.85 72 78.75 71.85 78.7 71.55 78.6 71.25
L 78.6 71.2
Q 78.6 71.1 78.6 71 79.5765625 71.25703125 80.55 71.5 89.99375 73.7734375 99.15 74 99.15 73.7 99.15 73.4 99.15 69.25 99.1 65.1 99.05 59.4 99.85 54.05 100.6 54.55 101.35 55.05 103.5 56.55 105.7 57.95 106.2 58.6 106.85 59.1 110.05 61.25 113.25 63.25 115.05 63.1 116.85 62.95 118.1 60.7 119.65 58.65 123.65 53.35 128.5 48.8 128.95 48.75 129.35 48.8 129.4 48.8 129.45 48.9 129.5 49.1 129.55 49.2 130.1 50.4 130.95 51.4 131.2 51.7 131.4 52 131.45 52.15 131.45 52.3 131.5 52.45 131.5 52.6 132.45 53.7 132.9 55.05 133.15 55.7 133.45 56.3 134.15 56.85 134.7 57.6 134.75 57.7 134.75 57.85 135.75 58.6 136.35 59.7 136.4 59.85 136.4 60 136.75 60.1 137.1 60.2 137.2 60.25 137.25 60.3 137.3 60.4 137.35 60.5 137.5 60.65 137.65 60.8 138.85 60.85 140.1 60.85
L 140.1 60.8
Q 144.9904296875 57.9703125 149.9 55.65 152.9712890625 54.2314453125 156.05 53 156.55 53.35 156.5 53.95 156.5 54.1 156.5 54.25 156.6 54.4 156.7 54.55 156.8 54.7 156.9 54.85 156.9 55.3 156.9 55.8 156.9 55.95 156.9 56.1 157.05 56.4 157.1 56.7 157.25 57.65 157.55 58.55 157.6 58.7 157.7 58.85 157.7 59.3 157.7 59.8 157.7 60.55 157.7 61.3 157.7 61.45 157.7 61.6 157.9 62.1 158.05 62.55 158.1 62.7 158.1 62.85 158.2 63 158.3 63.15 158.6 64.1 159.05 65 159.15 65.15 159.25 65.3 168.85 63.5 178.2 61.6 178.8 61.9 178.65 62.55 178.6 62.7 178.6 62.85 179.3 65.65 179.15 68.7 179 71.6 179 74.5 186.05 74.8 193.15 75.05 194.15 75.6 195.3 75.8
L 195.3 75.85
Q 195.35 75.9 195.45 76 195.15 75.95 194.85 75.95 195.05 77.55 195.7 79.1 195.55 79.2 195.4 79.35 195.35 79.8 195.25 80.25 195.25 80.4 195.2 80.55 193.95 82.3 192.75 84 190.9 86.6 189.25 88.85 196.95 92.05 204.6 97.05 203.85 97.4 203.3 97.7 201.2 98.85 198.75 99.3 197.8 100 196.65 100.35 195.3 100.8 194.35 101.85 193.95 101.95 193.55 102.05 192.85 102.6 192.25 103.25 192.15 103.35 192.1 103.5 191.6 103.6 191.1 103.75 191.05 103.75 191 103.8 190.9 103.9 190.8 104 190.15 104.55 189.7 105.3 189.65 105.4 189.65 105.55 199.9 106.9 210.15 108.5 210.15 108.65 210.15 108.85 210.15 110.5 210.15 112.2 210.15 113.15 210.15 114.05 208.95 117.05 208.25 120.15 207.25 124.35 205.45 128.2 205.3 130 204.35 131.55 203.7 132.7 203.5 134 202.55 135.2 201.85 136.5 201.6 136.95 201.35 137.4 201.1615234375 137.5466796875 200.95 137.7 199.8603515625 138.6455078125 199 139.85 198 141.35 196.8 142.6 195.85 143 195.3 143.85 195.2 144 195.1 144.15 189.12109375 148.9986328125 182.4 152.55 183.7421875 152.5064453125 185.05 152.45 191.424609375 149.105859375 197.25 144.65 197.65 143.85 198.45 143.45 198.75 143.3 199.1 143.15 200.3 141.4 201.7 139.8 202.646875 138.7900390625 203.45 137.7 204.6234375 136.2005859375 205.55 134.55 205.6 134.4 205.6 134.2 205.9 132.9 206.55 131.7 206.9 131.1 207.25 130.55 207.25 130.4 207.25 130.25 207.2 129.75 207.35 129.3 207.35 129.15 207.35 129 209.05 126.15 209.85 122.9 210.3 121 210.85 119.1 211.25 121.7 211.1 124.35 210.65 129.75 210.65 135.15 210.55 135.3 210.5 135.45 210.4 135.55 210.4 135.65 210.4 135.8 210.4 135.9 210.4 136.55 210.35 137.15 210.35 137.25 210.3 137.4 210.2 137.5 210.15 137.65 210.1263671875 137.6736328125 210.1 137.7 210.0263671875 137.7853515625 209.95 137.9 209.95 139.25 209.7 140.6 209.55 141.5 209 142.3 209 142.55 209 142.8 209 142.9 209 143.05 208.75 143.3 208.5 143.55 208.4 143.65 208.35 143.8 208.35 144.15 208.35 144.5 208.35 144.65 208.35 144.75 207.85 145.55 207.3 146.25 207.2 146.35 207.1 146.5 207.05 146.6 207.05 146.75 207 146.85 207 146.95 206.2 147.95 205.65 149.15 205.2 150.15 204.5 150.9 204.55 151.3 204.4 151.65
L 204.35 151.7
Q 205.4318359375 151.6521484375 206.5 151.6 207.3134765625 150.57421875 207.9 149.45 208.35 148.55 208.9 147.7 208.95 147.6 208.95 147.45 209 147.35 209 147.2 210 146.25 210.25 145 210.3 144.75 210.3 144.5 210.6 144.15 210.85 143.75 210.9 143.65 210.95 143.55 210.95 143.3 210.95 143.05 210.95 142.9 210.95 142.8 211.4 142.35 211.6 141.8 211.65 141.7 211.7 141.55 211.7 141.45 211.7 141.3 211.7 140.95 211.7 140.6 211.7 140.45 211.7 140.35 211.8 140.2 211.85 140.1 211.9 139.95 211.95 139.85 211.95 139.7 211.95 139.6 211.95 139.25 211.95 138.85 211.95 138.75 211.95 138.6 212.1 138.35 212.25 138.1 212.3 138 212.35 137.9 212.35 137.7853515625 212.35 137.7
L 212.35 137.65
Q 212.35 137 212.35 136.4 212.35 136.3 212.35 136.15 212.45 136.05 212.5 135.9 212.55 135.8 212.6 135.65 212.6 134.05 212.6 132.45 212.6 131.1 212.6 129.75 213.3 126.55 213.1 123.15 212.75 116.85 212.35 110.6 212.35 110.5 212.35 110.45 212.25 110.45 212.2 110.45 212.2 109.15 212.2 107.8 209.35 107.4 206.55 107 206.55 105.1 206.55 103.2 206.55 100.55 206.55 97.95 206.9 97.6 207.25 97.25 204.7 94.15 200.75 92.45 199.85 92.05 198.95 91.7 198.95 90.25 199 88.8 199.05 87.65 198.65 86.65 198.65 84.95 198.75 83.3 198.8 82.15 198.4 81.1 198.5 80.05 198.2 79.1 198.4 78.75 198.55 78.4 198.6 78.25 198.65 78.1 198.65 77.8 198.65 77.5 198.65 76.9 198.65 76.25 198.6 76.1 198.55 75.95 198.2 75.85 197.85 75.75 197.85 75.7 197.8 75.7 197.7 75.55 197.55 75.4 197.45 75.3 197.35 75.15 196.4 74.85 195.5 74.5 195.25 74.4 195 74.3 188 74.05 181.05 73.8 181.05 71.05 181.05 68.3 181.05 65.65 181.05 63.05 181 62.9 180.9 62.8 180.6 62.35 180.65 61.8 180.65 61.65 180.65 61.5 180.65 61.35 180.55 61.3 180.25 61.05 180 60.7
M 196.65 82
Q 196.7 82.1 196.7 82.25 196.7 83.8 196.7 85.4 196.7 86.25 196.7 87.15 197.15 88.75 197 90.5 197 90.65 197 90.85 194.05 89.6 191.7 88.55 191.75 88.4 191.85 88.3 192.1 88.1 192.4 87.95 193.65 86.5 194.65 84.9 195.6 83.4 196.65 82
M 204.55 99.1
Q 204.55 100.35 204.55 101.55 204.55 104.15 204.55 106.7 198.45 105.8 192.65 104.85 193.4 104.6 194.1 104.25 194.15 104.2 194.15 104.1 194.35 103.45 195.05 103.15 195.25 103.05 195.4 102.9 195.8 102.8 196.2 102.65 196.3 102.65 196.4 102.6 196.85 102.1 197.3 101.7 197.45 101.6 197.55 101.45 198.65 100.95 199.8 100.6 199.9 100.6 200 100.55 200.15 100.45 200.3 100.3 200.45 100.15 200.6 100 201.4 99.85 202.15 99.75 203.45 99.55 204.55 99.1
M 79 77.9
Q 79.7375 79.89140625 80.55 81.8 81.9404296875 85.1623046875 83.55 88.35 82.05859375 88.8470703125 80.55 89.3 79.479296875 89.609375 78.4 89.9 78.25 87 78.25 84.05 78.2 80.1 78.35 76.15 78.7 77 79 77.9
M 66.6 98.85
Q 66.6 98.8 66.55 98.7 66.7 98.1 66.95 97.55 69.9 100.25 72.5 103.3 73.3 104.8 74.55 105.95 76.3 107.5 76.4 109.05 73.8 109.4 71.25 109.7 71.1 109.65 71 109.65 69.35 109.3 67.7 109.3 67.55 107.65 67.4 105.95 67.05 102.8 66.8 99.65 66.6 99.3 66.6 98.85 Z" stroke="none" fill="#000000"></path>

<path d="M 94.5 95.65
Q 93.05 96.9 92.75 98.7 94.6 101.8 98.05 103.3 101.05 104.55 103.25 104 104.75 103.6 106.05 104.25 112.05 105.45 115.55 101.35 115.75 101.15 115.9 100.95 115.95 100.85 115.95 100.75 115.95 100.5 116 100.2 116.05 99.85 116.2 99.55 116.25 99.5 116.25 99.4 116.25 99.3 116.25 99.2 116.25 99.1 116.2 99 116.1 98.8 115.95 98.6 115.95 98.5 115.95 98.4 115.95 98.3 115.95 98.2 115.95 98 115.95 97.85 115.95 97.75 115.95 97.65 115.95 97.55 115.9 97.45 115.85 97.35 115.8 97.25 115.75 97.15 115.7 97.05 115.6 96.95 115.45 96.85 115.15 96.6 114.95 96.25 114.8 96.05 114.7 95.85 114.65 95.75 114.5 95.7 114.2 95.45 114 95.1 113.85 94.9 113.75 94.7 113.65 94.6 113.55 94.55 113.35 94.5 113.15 94.4 113.05 94.3 113 94.2 112.9 94.1 112.9 94 108.7 91.3 103.65 91.75 98.45 92.2 94.5 95.65
M 164.85 90.65
Q 164.46328125 90.639453125 164.05 90.6 163.737890625 90.647265625 163.4 90.7 159.488671875 91.420703125 156.15 93.6 154.8 94.45 153.7 95.65 153.55 96.15 153.55 96.65 153.6 97.15 153.6 97.65 153.8 97.9 154 98.2 154.2 98.4 154.35 98.6 154.75 99.9 155.85 100.85 156.5 101.4 157.25 101.95 157.4 102 157.5 102.1 165.2 103.4 172.7 101.05 173.75 100.3 174.5 99.2 174.65 98.95 174.9 98.7 174.9 98.5 175 98.3 175.05 98.1 175.15 97.9 175.1 97.5 175.05 97.1 175 96.75 174.7 96.5 174.7 96.4 174.7 96.3 174.7 96.2 174.65 96.1 174.65 96 174.6 95.95 173.9 94.95 172.85 94.2 172.55 94 172.45 93.65 172.25 93.55 172.05 93.5 171.85 93.45 171.6 93.35 169.3 91.3 166.15 90.85 165.51328125 90.758984375 164.85 90.65 Z" stroke="none" fill="#EEC24E"></path>
</g>
</g>
</g>
</g>
</svg>
