
<svg viewBox="0 0 272 172" height="172px" width="272px" y="0px" x="0px" preserveAspectRatio="none" xmlns:xlink="http://www.w3.org/1999/xlink" version="1.1" xmlns="http://www.w3.org/2000/svg">
<defs></defs>

<g id="Layer_2">
<g>
<g>
<g>
<path d="M 180.55 26.05
Q 180.25 25.8 180 25.45 179.9 25.3 179.7 25.15 170.1 26.2 161 28.95 160.95 28.65 160.8 28.45 160.75 28.25 160.55 28.1 160.55 27.95 160.55 27.8 160.35 27.35 160.2 26.85 160.15 26.75 160.15 26.6 159.95 26.25 159.8 25.95 159.75 25.8 159.75 25.65 159.75 25.5 159.75 25.35 159.95 23.6 159.6 21.9 159.4 21 158.95 20.1 158.95 19.8 158.95 19.5 158.95 19.35 158.95 19.2 158.9 19.05 158.8 18.95 158.45 18.5 158.5 17.95 158.55 17.8 158.55 17.65 158.5 17.5 158.4 17.4 158.25 17.2 158.1 17.05 158.05 16.75 157.95 16.45 157.85 16.3 157.7 16.15 156.4 16.1 155.05 16.1 154.9 16.15 154.75 16.25 154.2 16.65 153.7 17.15 153.5 17.3 153.3 17.45 151.591015625 18.1580078125 149.9 18.9 144.6642578125 21.2412109375 139.6 24 139.05 24.05 138.55 24 138.5 24 138.45 23.9 138.15 22.9 137.25 22.35 137.05 22.2 136.9 22.05 136.85 21.9 136.8 21.75 136.75 21.6 136.7 21.45 136.3 21.15 135.9 20.8 135.75 20.7 135.6 20.55 134.9 19.35 134.35 18.1 134.1 17.4 133.55 16.85 133.55 16.7 133.5 16.55 132.95 15.25 132 14.1 131.55 13.55 131.4 12.85 131.1 12.75 130.8 12.6 130.75 12.6 130.65 12.55 130.55 12.45 130.5 12.35 130.35 12.2 130.25 12.05 129.15 12 128 11.95 125.5 13.6 123.3 16 118.5 21.25 114.6 26.9 114.1 26.5 113.5 26.15 107.35 22.45 101.7 17.85 101.15 17.7 100.6 17.5 100.4 17.45 100.25 17.35 99.2 17.3 98.1 17.35 98 17.35 97.9 17.45 97.95 18 97.65 18.4 97.55 18.55 97.5 18.7 97.5 19 97.5 19.3 97.25 23.45 97.2 27.6 97.1 32.8 97.1 38.05 91.85 37.7 86.8 36.05 83.539453125 35.0080078125 80.55 35 79.0927734375 35.004296875 77.7 35.25 77.15 35.2 76.65 35.2 76.65 35.35 76.65 35.5 76.4 35.55 76.2 35.6 76.4 36 76.55 36.45 76.3572265625 39.1017578125 76.35 41.8 76.35 41.9 76.35 42 76.35 48.55 76.35 55.1 74.4 55.5 72.45 55.8 67.4 56.55 64.3 58.85 64.75 59.8 65.35 60.6 65.05 61.45 64.8 62.35 64.35 63.75 64.85 65.05 64.95 67.45 65.25 69.8 65.6 71.95 65.65 74.15 65.25 74.2 64.85 74.25 62.6 74.9 60.25 75.65 60.15 75.7 60 75.75 59.95 75.8 59.95 75.9 59.25 75.95 58.6 76.05 59.2 76.05 59.85 76.1 59.8 76.1 59.75 76.15 59.65 76.25 59.6 76.35 59.6 76.45 59.6 76.55 59.6 76.65 59.6 76.75 59.6 76.85 59.6 76.95 59.6 77 59.6 77.05 59.55 77.05 59.45 77.1 59.4 77.1 59.4 77.25 59.4 77.4 59.4 77.55 59.4 78.05 59.4 78.5 59.4 78.65 59.4 78.8 59.9 79.15 59.85 79.7 59.8 79.85 59.8 80.05 60.05 80.35 60.3 80.65 60.45 80.8 60.55 80.95 60.6 81.1 60.6 81.25 60.6 81.8 60.9 82.2 60.85 83.75 60.75 85.25 60.65 87.45 61.3 89.45 61.5 91.05 61.45 92.65 61.4 93.8 61.95 94.85 62 96.85 62.5 98.8 63.15 101.05 62.95 103.45 63 103.55 63.1 103.7 63.15 103.8 63.15 103.95 63.15 104.2 63.15 104.45 63 105.5 63.5 106.4 63.55 106.5 63.6 106.65 63.6 106.75 63.6 106.9 63.6 107.75 63.7 108.6 63.7 108.75 63.85 108.85 63.85 109 63.85 109.1 63.85 109.45 63.85 109.85 63.85 109.95 63.85 110.1 64 110.35 64.15 110.6 64.2 110.7 64.25 110.8 64.25 110.95 64.25 111.05 64.25 111.55 64.25 112.05 64.25 112.15 64.25 112.3 64.4 112.55 64.6 112.75 64.7 112.9 64.8 113.05 64.85 113.15 64.9 113.3 65.15 113.95 65.45 114.5 65.5 114.65 65.55 114.75 66.6 115.75 67.35 116.95 68.35 118.5 69.4 119.9 70.25 120.55 71 121.35 71.3 121.65 71.7 121.9 71.9 122.25 72.15 122.6 72.25 122.75 72.35 122.85 73.3 123.35 74.15 124.1 74.5 124.4 74.9 124.65 75.05 124.9 75.2 125.15 75.3 125.3 75.4 125.4 75.7 125.5 76.05 125.6 76.1 125.6 76.1 125.65 76.45 126.6 77.2 127.3 78.25 128.3 79.65 128.85 79.7 128.95 79.75 129.1 79.8 129.2 79.9 129.35 80.15 129.45 80.4 129.55 80.4728515625 129.59375 80.55 129.65 80.7373046875 129.74375 80.95 129.85 81.05 129.95 81.1 130.1 81.15 130.2 81.2 130.3 81.95 130.7 82.55 131.2 83.8 132.3 85.2 133.25 86.15 133.1 86.3 133.65 86.35 133.8 86.45 133.9 87.5 134.35 88.55 134.8 88.9 134.95 89.2 135.05 91.39609375 136.577734375 93.8 137.7 95.164453125 138.3412109375 96.6 138.85 96.7 138.95 96.85 139.05 97 139.2 97.15 139.35 111.95 145 127.7 146.75 139.0265625 148.001171875 149.9 146.8 163.7947265625 145.27578125 176.95 139.75 177.1 139.6 177.3 139.5 177.4 139.35 177.55 139.25 179.7724609375 138.5578125 181.85 137.7 193.453515625 132.98125 201.45 123.25 201.95 123.05 202.4 122.7 202.5 122.65 202.5 122.55 202.55 122.4 202.65 122.3 203.3 121.5 203.65 120.55 203.7 120.45 203.75 120.3 204.9 119.65 205.4 118.35 205.5 118.1 205.65 117.85 205.9 117.6 206.2 117.35 206.3 117.25 206.35 117.15 206.4 116.9 206.45 116.65 206.45 116.5 206.45 116.4 207.3 115.35 207.9 114.2 208.35 113.3 208.9 112.45 208.95 112.35 208.95 112.2 209 112.1 209 111.95 210 111 210.25 109.75 210.3 109.5 210.3 109.25 210.6 108.9 210.85 108.5 210.9 108.4 210.95 108.3 210.95 108.05 210.95 107.8 210.95 107.65 210.95 107.55 211.4 107.1 211.6 106.55 211.65 106.45 211.7 106.3 211.7 106.2 211.7 106.05 211.7 105.7 211.7 105.35 211.7 105.2 211.7 105.1 211.8 104.95 211.85 104.85 211.9 104.7 211.95 104.6 211.95 104.45 211.95 104.35 211.95 104 211.95 103.6 211.95 103.5 211.95 103.35 212.1 103.1 212.25 102.85 212.3 102.75 212.35 102.65 212.35 102.5 212.35 102.4 212.35 101.75 212.35 101.15 212.35 101.05 212.35 100.9 212.45 100.8 212.5 100.65 212.55 100.55 212.6 100.4 212.6 98.8 212.6 97.2 212.6 95.85 212.6 94.5 213.3 91.3 213.1 87.9 212.75 81.6 212.35 75.35 212.35 75.25 212.35 75.2 212.25 75.2 212.2 75.2 212.2 73.9 212.2 72.55 209.35 72.15 206.55 71.75 206.55 69.85 206.55 67.95 206.55 65.3 206.55 62.7 206.9 62.35 207.25 62 204.7 58.9 200.75 57.2 199.85 56.8 198.95 56.45 198.95 55 199 53.55 199.05 52.4 198.65 51.4 198.65 49.7 198.75 48.05 198.8 46.9 198.4 45.85 198.5 44.8 198.2 43.85 198.4 43.5 198.55 43.15 198.6 43 198.65 42.85 198.65 42.55 198.65 42.25 198.65 42.028515625 198.65 41.8 198.65 41.4099609375 198.65 41 198.6 40.85 198.55 40.7 198.2 40.6 197.85 40.5 197.85 40.45 197.8 40.45 197.7 40.3 197.55 40.15 197.45 40.05 197.35 39.9 196.4 39.6 195.5 39.25 195.25 39.15 195 39.05 188 38.8 181.05 38.55 181.05 35.8 181.05 33.05 181.05 30.4 181.05 27.8 181 27.65 180.9 27.55 180.6 27.1 180.65 26.55 180.65 26.4 180.65 26.25 180.65 26.1 180.55 26.05
M 178.65 27.3
Q 178.6 27.45 178.6 27.6 179.3 30.4 179.15 33.45 179 36.35 179 39.25 186.05 39.55 193.15 39.8 194.15 40.35 195.3 40.55
L 195.3 40.6
Q 195.35 40.65 195.45 40.75 195.15 40.7 194.85 40.7 194.919140625 41.253125 195.05 41.8 195.274609375 42.8357421875 195.7 43.85 195.55 43.95 195.4 44.1 195.35 44.55 195.25 45 195.25 45.15 195.2 45.3 193.95 47.05 192.75 48.75 190.9 51.35 189.25 53.6 196.95 56.8 204.6 61.8 203.85 62.15 203.3 62.45 201.2 63.6 198.75 64.05 197.8 64.75 196.65 65.1 195.3 65.55 194.35 66.6 193.95 66.7 193.55 66.8 192.85 67.35 192.25 68 192.15 68.1 192.1 68.25 191.6 68.35 191.1 68.5 191.05 68.5 191 68.55 190.9 68.65 190.8 68.75 190.15 69.3 189.7 70.05 189.65 70.15 189.65 70.3 199.9 71.65 210.15 73.25 210.15 73.4 210.15 73.6 210.15 75.25 210.15 76.95 210.15 77.9 210.15 78.8 208.95 81.8 208.25 84.9 207.25 89.1 205.45 92.95 205.3 94.75 204.35 96.3 203.7 97.45 203.5 98.75 202.55 99.95 201.85 101.25 201.6 101.7 201.35 102.15 200 103.2 199 104.6 198 106.1 196.8 107.35 195.85 107.75 195.3 108.6 195.2 108.75 195.1 108.9 185.05 117.05 173 121.5 164.3 124.7 155.2 125.5 152.5416015625 125.721875 149.9 125.85 119.209375 127.210546875 90.85 114.55 85.23515625 112.0521484375 80.55 108.6 74.2626953125 103.9390625 69.65 97.55 69.65 97.4 69.6 97.25 69.6 97.1 69.55 96.9 68.45 95.9 67.8 94.5 67.35 93.5 66.45 92.95 66.4 92.6 66.4 92.3 66.35 92.15 66.35 92 65.25 90.1 64.65 88 64.05 86.05 63.1 84.35 63.1 84 63.1 83.7 63.1 82.95 63.1 82.2 63.1 82 63.1 81.85 63.05 81.7 63 81.55 62.95 81.35 62.85 81.2 62.85 81.05 62.85 80.9 62.75 80.8 62.7 80.65 62.65 80.55 62.6 80.45 62.6 80.2 62.6 79.95 62.6 79.1 62.6 78.2 62.6 78.1 62.6 77.95
L 62.6 77.85
Q 62.2 77.8 61.85 77.8 61.85 77.7 61.85 77.6 61.85 77.4 61.8 77.2 61.8 77 61.85 76.8 61.85 76.7 61.9 76.6 62.5 76.3 63.1 76.1 67.55 76.05 72.4 75.7 76.55 75.35 79.05 73.7 78 71.45 76.45 69.4 72.5 64.4 67.75 60.3 67.9 59.8 67.85 59.3
L 67.85 59.2
Q 67.35 59.1 66.85 59.1 66.8 59 66.7 58.9 66.55 58.8 66.45 58.65 73.9017578125 57.3900390625 80.55 55.25 83.1357421875 54.4521484375 85.6 53.5 85.6 53.35 85.6 53.2 85.6 52.75 85.6 52.3 85.55 52.1 85.5 51.95 83.65 49.1 82.4 45.9 81.63671875 43.8564453125 80.9 41.8 80.7287109375 41.2880859375 80.55 40.75 79.9888671875 39.1666015625 79.45 37.55 79.2 37.25 78.95 36.9 78.85 36.75 78.75 36.6 78.7 36.3 78.6 36
L 78.6 35.95
Q 78.6 35.85 78.6 35.75 79.5765625 36.00703125 80.55 36.25 89.99375 38.5234375 99.15 38.75 99.15 38.45 99.15 38.15 99.15 34 99.1 29.85 99.05 24.15 99.85 18.8 100.6 19.3 101.35 19.8 103.5 21.3 105.7 22.7 106.2 23.35 106.85 23.85 110.05 26 113.25 28 115.05 27.85 116.85 27.7 118.1 25.45 119.65 23.4 123.65 18.1 128.5 13.55 128.95 13.5 129.35 13.55 129.4 13.55 129.45 13.65 129.5 13.85 129.55 13.95 130.1 15.15 130.95 16.15 131.2 16.45 131.4 16.75 131.45 16.9 131.45 17.05 131.5 17.2 131.5 17.35 132.45 18.45 132.9 19.8 133.15 20.45 133.45 21.05 134.15 21.6 134.7 22.35 134.75 22.45 134.75 22.6 135.75 23.35 136.35 24.45 136.4 24.6 136.4 24.75 136.75 24.85 137.1 24.95 137.2 25 137.25 25.05 137.3 25.15 137.35 25.25 137.5 25.4 137.65 25.55 138.85 25.6 140.1 25.6
L 140.1 25.55
Q 144.9904296875 22.7203125 149.9 20.4 152.9712890625 18.9814453125 156.05 17.75 156.55 18.1 156.5 18.7 156.5 18.85 156.5 19 156.6 19.15 156.7 19.3 156.8 19.45 156.9 19.6 156.9 20.05 156.9 20.55 156.9 20.7 156.9 20.85 157.05 21.15 157.1 21.45 157.25 22.4 157.55 23.3 157.6 23.45 157.7 23.6 157.7 24.05 157.7 24.55 157.7 25.3 157.7 26.05 157.7 26.2 157.7 26.35 157.9 26.85 158.05 27.3 158.1 27.45 158.1 27.6 158.2 27.75 158.3 27.9 158.6 28.85 159.05 29.75 159.15 29.9 159.25 30.05 168.85 28.25 178.2 26.35 178.8 26.65 178.65 27.3
M 196.65 46.75
Q 196.7 46.85 196.7 47 196.7 48.55 196.7 50.15 196.7 51 196.7 51.9 197.15 53.5 197 55.25 197 55.4 197 55.6 194.05 54.35 191.7 53.3 191.75 53.15 191.85 53.05 192.1 52.85 192.4 52.7 193.65 51.25 194.65 49.65 195.6 48.15 196.65 46.75
M 200.6 64.75
Q 201.4 64.6 202.15 64.5 203.45 64.3 204.55 63.85 204.55 65.1 204.55 66.3 204.55 68.9 204.55 71.45 198.45 70.55 192.65 69.6 193.4 69.35 194.1 69 194.15 68.95 194.15 68.85 194.35 68.2 195.05 67.9 195.25 67.8 195.4 67.65 195.8 67.55 196.2 67.4 196.3 67.4 196.4 67.35 196.85 66.85 197.3 66.45 197.45 66.35 197.55 66.2 198.65 65.7 199.8 65.35 199.9 65.35 200 65.3 200.15 65.2 200.3 65.05 200.45 64.9 200.6 64.75
M 207.35 94.05
Q 207.35 93.9 207.35 93.75 209.05 90.9 209.85 87.65 210.3 85.75 210.85 83.85 211.25 86.45 211.1 89.1 210.65 94.5 210.65 99.9 210.55 100.05 210.5 100.2 210.4 100.3 210.4 100.4 210.4 100.55 210.4 100.65 210.4 101.3 210.35 101.9 210.35 102 210.3 102.15 210.2 102.25 210.15 102.4 210.05 102.5 209.95 102.65 209.95 104 209.7 105.35 209.55 106.25 209 107.05 209 107.3 209 107.55 209 107.65 209 107.8 208.75 108.05 208.5 108.3 208.4 108.4 208.35 108.55 208.35 108.9 208.35 109.25 208.35 109.4 208.35 109.5 207.85 110.3 207.3 111 207.2 111.1 207.1 111.25 207.05 111.35 207.05 111.5 207 111.6 207 111.7 206.2 112.7 205.65 113.9 205.2 114.9 204.5 115.65 204.55 116.05 204.4 116.4 204.35 116.5 204.3 116.65 203.45 117.3 202.95 118.3 202.5 119.2 201.7 119.85 201.65 119.95 201.6 120.05 201.15 120.95 200.65 121.8 200.55 121.9 200.45 122.05 200 122.3 199.6 122.55 199.45 122.65 199.3 122.8 190.8408203125 132.7341796875 178.75 137.7 176.926171875 138.4580078125 175 139.1 168.35 141.7 161.5 143.45 160.25 143.75 159.1 143.95 154.475 144.8427734375 149.9 145.35 123.2189453125 148.286328125 98.25 138 97.8162109375 137.8572265625 97.4 137.7 94.0791015625 136.4818359375 91.2 134.4 90 133.9 88.85 133.45 88.6 133.4 88.4 133.25 88.3 133.15 88.25 133.05 88.1 132.9 88 132.75 87.6 132.7 87.2 132.6 87.1 132.55 87 132.55 86.3 131.85 85.45 131.25 84.3 130.45 83.15 129.65 83.1 129.55 83.05 129.4 83 129.3 82.9 129.15 82.65 129.05 82.35 128.9 82.1 128.8 81.85 128.7 81.75 128.45 81.55 128.2 81.45 128.05 81.3 127.95 80.8931640625 127.8197265625 80.55 127.6 79.8384765625 127.1919921875 79.4 126.45 79.3 126.35 79.25 126.2 78.5 125.9 78.1 125.15 78 125.05 77.9 124.9 77.6 124.8 77.25 124.65 77.2 124.55 77.1 124.4 77.05 124.3 77 124.15 76.15 123.6 75.4 122.9 74.8 122.35 74.05 121.95 73.95 121.7 73.8 121.5 73.75 121.35 73.65 121.2 72.75 120.55 71.95 119.75 71.65 119.5 71.35 119.25 70.55 118.15 69.85 117 68.85 115.45 67.5 114.1 67.45 113.95 67.4 113.85 67.1 113.25 66.85 112.6 66.8 112.5 66.8 112.4 66.5 112.15 66.25 111.85 66.2 111.75 66.2 111.65 66.2 111.5 66.2 111.4 66.2 110.8 66.15 110.15 66.15 110.05 66.1 109.9 66.05 109.8 65.95 109.65 65.9 109.55 65.8 109.45 65.8 109.3 65.8 109.2 65.8 108.7 65.7 108.2 65.65 108.1 65.55 107.95 65.55 107.85 65.55 107.7 65.55 106.95 65.55 106.25 65.55 106.1 65.55 106 65.45 105.75 65.35 105.5 65.05 104.55 65.15 103.55 65.15 103.4 65.15 103.3 65.1 103.15 65.05 103.05 65 102.9 64.9 102.8 64.95 100.8 64.5 98.95 63.95 96.6 63.9 94.2 63.3 92.7 63.3 91 63.3 90.9 63.3 90.75 63.7 91.7 64.3 92.6 64.3 92.95 64.35 93.25 64.35 93.4 64.4 93.55 65.85 94.6 66.75 96.15 67.3 97.15 67.6 98.15 72.4619140625 105.91953125 80.55 110.6 80.9462890625 110.8283203125 81.35 111.05 105.6 124.3 133.2 126.95 141.602734375 127.748828125 149.9 127.1 155.6251953125 126.67265625 161.3 125.55 181.3 121.6 197.25 109.4 197.65 108.6 198.45 108.2 198.75 108.05 199.1 107.9 200.3 106.15 201.7 104.55 203.95 102.15 205.55 99.3 205.6 99.15 205.6 98.95 205.9 97.65 206.55 96.45 206.9 95.85 207.25 95.3 207.25 95.15 207.25 95 207.2 94.5 207.35 94.05
M 78.3 41.8
Q 78.3330078125 41.35 78.35 40.9 78.532421875 41.3431640625 78.7 41.8 78.8564453125 42.219140625 79 42.65 79.7375 44.64140625 80.55 46.55 81.9404296875 49.9123046875 83.55 53.1 82.05859375 53.5970703125 80.55 54.05 79.479296875 54.359375 78.4 54.65 78.25 51.75 78.25 48.8 78.2056640625 45.3 78.3 41.8
M 66.8 64.4
Q 66.6 64.05 66.6 63.6 66.6 63.55 66.55 63.45 66.7 62.85 66.95 62.3 69.9 65 72.5 68.05 73.3 69.55 74.55 70.7 76.3 72.25 76.4 73.8 73.8 74.15 71.25 74.45 71.1 74.4 71 74.4 69.35 74.05 67.7 74.05 67.55 72.4 67.4 70.7 67.05 67.55 66.8 64.4
M 115.15 58.5
Q 115.05 58.45 115 58.4 114.9 58.3 114.85 58.2 114.75 58.1 114.65 58 113.45 57.25 112.15 56.75 108.05 55.3 103.65 55.5 97.55 55.75 92.75 59.6 91.4 60.7 90.8 62.4 90.8 62.5 90.8 62.6 90.8 62.85 90.8 63.15 90.8 63.25 90.8 63.35 90.8 63.45 90.8 63.55 90.8 63.75 90.8 63.95 90.8 64.05 90.8 64.15 90.85 64.25 90.85 64.35 90.95 64.45 91 64.55 91.1 64.65 91.2 64.75 91.35 64.85 91.45 64.95 94.1 68.7 98.75 69.65 107.5 71.35 115.85 68.65 116.2 68.3 116.6 67.95 117 67.6 117.25 67.2 117.5 66.85 117.75 66.55 117.8 66.45 117.85 66.35 117.9 66.3 117.95 66.2 117.95 66.1 117.95 66 117.95 65.9 117.95 65.8 117.95 65.7 117.95 65.6 117.95 65.5 118 65.4 118.05 65.3 118.1 65.2 118.15 65.1 118.2 65 118.2 64.9 118.2 64.8 118.2 64.5 118.2 64.2 118.2 64.1 118.2 64 118.2 63.9 118.2 63.8 118.2 63.6 118.2 63.45 118.2 63.35 118.2 63.25 118.2 63.15 118.2 63.05 118.15 62.95 118.1 62.85 118.05 62.75 118 62.6 117.95 62.55 117.95 62.45 117.95 62.35 117.95 62.25 117.95 62.15 117.95 62.05 117.9 61.85 117.85 61.65 117.85 61.55 117.8 61.45 117.75 61.35 117.75 61.25 117.65 61.15 117.6 61.05 117.5 60.95 117.35 60.85 117.25 60.75 117.15 60.7 117.05 60.6 116.95 60.5 116.9 60.4 116.9 60.3 116.85 60.2 116.8 60.1 116.75 60 116.7 59.9 116.55 59.8 116.45 59.7 116.35 59.6 116.25 59.5 116.05 59.3 115.9 59.1 115.85 59 115.75 58.9 115.7 58.8 115.65 58.7 115.5 58.65 115.3 58.6 115.2 58.55 115.15 58.5
M 113 58.95
Q 113.05 59.05 113.15 59.15 113.35 59.25 113.55 59.3 113.65 59.35 113.75 59.45 113.85 59.65 114 59.85 114.2 60.2 114.5 60.45 114.65 60.5 114.7 60.6 114.8 60.8 114.95 61 115.15 61.35 115.45 61.6 115.6 61.7 115.7 61.8 115.75 61.9 115.8 62 115.85 62.1 115.9 62.2 115.95 62.3 115.95 62.4 115.95 62.5 115.95 62.6 115.95 62.75 115.95 62.95 115.95 63.05 115.95 63.15 115.95 63.25 115.95 63.35 116.1 63.55 116.2 63.75 116.25 63.85 116.25 63.95 116.25 64.05 116.25 64.15 116.25 64.25 116.2 64.3 116.05 64.6 116 64.95 115.95 65.25 115.95 65.5 115.95 65.6 115.9 65.7 115.75 65.9 115.55 66.1 112.05 70.2 106.05 69 104.75 68.35 103.25 68.75 101.05 69.3 98.05 68.05 94.6 66.55 92.75 63.45 93.05 61.65 94.5 60.4 98.45 56.95 103.65 56.5 108.7 56.05 112.9 58.75 112.9 58.85 113 58.95
M 192.5 81.75
L 192.5 81.8
Q 192.4 81.85 192.3 81.95 192.2 82 192.15 82.1 192.1 82.2 192 82.3 190.65 83.35 189.15 84.25 188.25 84.75 187.25 85.1 187.2 85.2 187.15 85.3 187.05 85.4 186.95 85.5 177.45 90.3 166.9 92.4 164 92.95 161.15 93.4 155.5212890625 94.2916015625 149.9 94.7 134.398046875 95.8583984375 118.95 93.4 108.25 91.7 99.2 85.9 98.75 85.85 98.3 85.75 98.2 85.7 98.15 85.65 98.1 85.55 98 85.45 97.9 85.25 97.75 85.05 97.65 84.95 97.55 84.85 97.25 84.8 96.9 84.7 96.75 84.65 96.55 84.6 96.45 84.5 96.35 84.4 95.45 83.65 94.2 83.55 94.05 83.55 93.9 83.5 92.5 82.5 91 81.8 90.25 81.45 89.7 80.85 88.5 80.85 87.25 80.8 87.2 80.85 87.15 80.95 87.15 81 87.15 81.1 87.15 81.2 87.15 81.3 87.15 81.5 87.15 81.7 87.15 81.8 87.15 81.9 87.25 82 87.3 82.1 87.35 82.2 87.4 82.3 87.4 82.4 87.4 82.5 87.45 82.7 87.55 82.9 87.6 83 87.65 83.1 87.65 83.2 87.65 83.3 87.65 83.4 87.65 83.5 87.65 83.7 87.7 83.85 87.7 83.95 87.7 84.05 89.15 86.25 90.55 88.45 96.05 97.4 106.25 101.1 126.45 108.35 147.8 106.65 148.854296875 106.5662109375 149.9 106.45 153.218359375 106.0603515625 156.45 105.3 166.75 102.9 176.05 97.8 184.45 93.25 191.2 86.5 191.25 86.4 191.3 86.3 191.35 86.2 191.4 86.1 191.45 86 191.45 85.9 191.9 85.45 192.25 85 192.6 84.6 193.1 84.3 193.2 84.25 193.3 84.15 193.35 84.05 193.35 83.95 193.4 83.85 193.45 83.75 193.45 83.65 193.5 83.55 193.8 83.25 194.1 83 194.4 82.75 194.45 82.35 194.5 82.25 194.5 82.15 194.5 82.05 194.45 82.05 193.5 81.85 192.5 81.75
M 188.4 86.55
Q 182.95 91.9 176.35 95.7 168.25 100.4 159.3 103.15 154.6546875 104.582421875 149.9 105.35 143.0384765625 106.486328125 135.95 106.25 129 106 122.2 104.5 113.5 102.6 105.35 99 94.05 93.95 89.6 82.75 89.65 82.6 89.9 82.7 91.05 83.35 92.05 84.2 93.15 84.4 94.15 84.8 94.25 84.9 94.35 85 94.4 85.1 94.45 85.2 95.15 85.45 95.7 85.65 95.8 85.75 95.9 85.85 96.05 86.15 96.3 86.45 98.75 87.4 101.3 88.7 106.35 91.25 111.9 92.5 130.701171875 96.6916015625 149.9 95.55 154.289453125 95.33046875 158.7 94.8 174.35 92.95 188.4 86.55
M 174.45 57.85
Q 174.35 57.75 174.3 57.65 174.1 57.6 173.9 57.55 173.75 57.5 173.6 57.45 173.5 57.45 173.45 57.4 172.4 56.25 170.85 55.65 166.8 54.1 162.3 54.65 158 55.25 154.3 57.6 153 58.4 151.95 59.5 151.9 59.6 151.85 59.7 151.8 59.8 151.75 59.9 151.7 60 151.6 60.1 151.6 60.5 151.6 60.85 151.6 61.35 151.6 61.85 151.6 62.35 151.6 62.85 151.6 62.95 151.6 63.05 151.8 63.35 152.05 63.6 152.1 63.7 152.2 63.8 152.3 63.9 152.4 64 153.6 66.9 156.7 67.6 165.6 69.55 174.6 66.5 175.55 65.8 176.25 64.9 176.85 64.15 177.1 63.35 177.15 63.25 177.2 63.15 177.2 63.05 177.2 62.95 177.2 62.7 177.2 62.4 177.2 62.2 177.2 62 177.2 61.9 177.2 61.8 177.1 61.7 177.05 61.6 177 61.5 176.9 61.4 176.9 61.2 176.9 61 176.9 60.9 176.85 60.85 176.8 60.7 176.65 60.6 176.65 60.4 176.65 60.2 176.6 60.1 176.6 60 176.55 59.9 176.5 59.8 176.1 59.5 175.75 59.1 175.1 58.45 174.45 57.85
M 174.6 60.7
Q 174.65 60.75 174.65 60.85 174.7 60.95 174.7 61.05 174.7 61.15 174.7 61.25 175 61.5 175.05 61.85 175.1 62.25 175.15 62.65 175.05 62.85 175 63.05 174.9 63.25 174.9 63.45 174.65 63.7 174.5 63.95 173.75 65.05 172.7 65.8 165.2 68.15 157.5 66.85 157.4 66.75 157.25 66.7 156.5 66.15 155.85 65.6 154.75 64.65 154.35 63.35 154.2 63.15 154 62.95 153.8 62.65 153.6 62.4 153.6 61.9 153.55 61.4 153.55 60.9 153.7 60.4 154.8 59.2 156.15 58.35 159.488671875 56.170703125 163.4 55.45 163.737890625 55.397265625 164.05 55.35 164.46328125 55.389453125 164.85 55.4 165.51328125 55.508984375 166.15 55.6 169.3 56.05 171.6 58.1 171.85 58.2 172.05 58.25 172.25 58.3 172.45 58.4 172.55 58.75 172.85 58.95 173.9 59.7 174.6 60.7 Z" stroke="none" fill="#000000"></path>

<path d="M 66.6 63.6
Q 66.6 64.05 66.8 64.4 67.05 67.55 67.4 70.7 67.55 72.4 67.7 74.05 69.35 74.05 71 74.4 71.1 74.4 71.25 74.45 73.8 74.15 76.4 73.8 76.3 72.25 74.55 70.7 73.3 69.55 72.5 68.05 69.9 65 66.95 62.3 66.7 62.85 66.55 63.45 66.6 63.55 66.6 63.6
M 78.35 40.9
Q 78.3330078125 41.35 78.3 41.8 78.2056640625 45.3 78.25 48.8 78.25 51.75 78.4 54.65 79.479296875 54.359375 80.55 54.05 82.05859375 53.5970703125 83.55 53.1 81.9404296875 49.9123046875 80.55 46.55 79.7375 44.64140625 79 42.65 78.8564453125 42.219140625 78.7 41.8 78.532421875 41.3431640625 78.35 40.9
M 207.35 93.75
Q 207.35 93.9 207.35 94.05 207.2 94.5 207.25 95 207.25 95.15 207.25 95.3 206.9 95.85 206.55 96.45 205.9 97.65 205.6 98.95 205.6 99.15 205.55 99.3 203.95 102.15 201.7 104.55 200.3 106.15 199.1 107.9 198.75 108.05 198.45 108.2 197.65 108.6 197.25 109.4 181.3 121.6 161.3 125.55 155.6251953125 126.67265625 149.9 127.1 141.602734375 127.748828125 133.2 126.95 105.6 124.3 81.35 111.05 80.9462890625 110.8283203125 80.55 110.6 72.4619140625 105.91953125 67.6 98.15 67.3 97.15 66.75 96.15 65.85 94.6 64.4 93.55 64.35 93.4 64.35 93.25 64.3 92.95 64.3 92.6 63.7 91.7 63.3 90.75 63.3 90.9 63.3 91 63.3 92.7 63.9 94.2 63.95 96.6 64.5 98.95 64.95 100.8 64.9 102.8 65 102.9 65.05 103.05 65.1 103.15 65.15 103.3 65.15 103.4 65.15 103.55 65.05 104.55 65.35 105.5 65.45 105.75 65.55 106 65.55 106.1 65.55 106.25 65.55 106.95 65.55 107.7 65.55 107.85 65.55 107.95 65.65 108.1 65.7 108.2 65.8 108.7 65.8 109.2 65.8 109.3 65.8 109.45 65.9 109.55 65.95 109.65 66.05 109.8 66.1 109.9 66.15 110.05 66.15 110.15 66.2 110.8 66.2 111.4 66.2 111.5 66.2 111.65 66.2 111.75 66.25 111.85 66.5 112.15 66.8 112.4 66.8 112.5 66.85 112.6 67.1 113.25 67.4 113.85 67.45 113.95 67.5 114.1 68.85 115.45 69.85 117 70.55 118.15 71.35 119.25 71.65 119.5 71.95 119.75 72.75 120.55 73.65 121.2 73.75 121.35 73.8 121.5 73.95 121.7 74.05 121.95 74.8 122.35 75.4 122.9 76.15 123.6 77 124.15 77.05 124.3 77.1 124.4 77.2 124.55 77.25 124.65 77.6 124.8 77.9 124.9 78 125.05 78.1 125.15 78.5 125.9 79.25 126.2 79.3 126.35 79.4 126.45 79.8384765625 127.1919921875 80.55 127.6 80.8931640625 127.8197265625 81.3 127.95 81.45 128.05 81.55 128.2 81.75 128.45 81.85 128.7 82.1 128.8 82.35 128.9 82.65 129.05 82.9 129.15 83 129.3 83.05 129.4 83.1 129.55 83.15 129.65 84.3 130.45 85.45 131.25 86.3 131.85 87 132.55 87.1 132.55 87.2 132.6 87.6 132.7 88 132.75 88.1 132.9 88.25 133.05 88.3 133.15 88.4 133.25 88.6 133.4 88.85 133.45 90 133.9 91.2 134.4 94.0791015625 136.4818359375 97.4 137.7 97.8162109375 137.8572265625 98.25 138 123.2189453125 148.286328125 149.9 145.35 154.475 144.8427734375 159.1 143.95 160.25 143.75 161.5 143.45 168.35 141.7 175 139.1 176.926171875 138.4580078125 178.75 137.7 190.8408203125 132.7341796875 199.3 122.8 199.45 122.65 199.6 122.55 200 122.3 200.45 122.05 200.55 121.9 200.65 121.8 201.15 120.95 201.6 120.05 201.65 119.95 201.7 119.85 202.5 119.2 202.95 118.3 203.45 117.3 204.3 116.65 204.35 116.5 204.4 116.4 204.55 116.05 204.5 115.65 205.2 114.9 205.65 113.9 206.2 112.7 207 111.7 207 111.6 207.05 111.5 207.05 111.35 207.1 111.25 207.2 111.1 207.3 111 207.85 110.3 208.35 109.5 208.35 109.4 208.35 109.25 208.35 108.9 208.35 108.55 208.4 108.4 208.5 108.3 208.75 108.05 209 107.8 209 107.65 209 107.55 209 107.3 209 107.05 209.55 106.25 209.7 105.35 209.95 104 209.95 102.65 210.05 102.5 210.15 102.4 210.2 102.25 210.3 102.15 210.35 102 210.35 101.9 210.4 101.3 210.4 100.65 210.4 100.55 210.4 100.4 210.4 100.3 210.5 100.2 210.55 100.05 210.65 99.9 210.65 94.5 211.1 89.1 211.25 86.45 210.85 83.85 210.3 85.75 209.85 87.65 209.05 90.9 207.35 93.75
M 202.15 64.5
Q 201.4 64.6 200.6 64.75 200.45 64.9 200.3 65.05 200.15 65.2 200 65.3 199.9 65.35 199.8 65.35 198.65 65.7 197.55 66.2 197.45 66.35 197.3 66.45 196.85 66.85 196.4 67.35 196.3 67.4 196.2 67.4 195.8 67.55 195.4 67.65 195.25 67.8 195.05 67.9 194.35 68.2 194.15 68.85 194.15 68.95 194.1 69 193.4 69.35 192.65 69.6 198.45 70.55 204.55 71.45 204.55 68.9 204.55 66.3 204.55 65.1 204.55 63.85 203.45 64.3 202.15 64.5
M 196.7 47
Q 196.7 46.85 196.65 46.75 195.6 48.15 194.65 49.65 193.65 51.25 192.4 52.7 192.1 52.85 191.85 53.05 191.75 53.15 191.7 53.3 194.05 54.35 197 55.6 197 55.4 197 55.25 197.15 53.5 196.7 51.9 196.7 51 196.7 50.15 196.7 48.55 196.7 47
M 176.35 95.7
Q 182.95 91.9 188.4 86.55 174.35 92.95 158.7 94.8 154.289453125 95.33046875 149.9 95.55 130.701171875 96.6916015625 111.9 92.5 106.35 91.25 101.3 88.7 98.75 87.4 96.3 86.45 96.05 86.15 95.9 85.85 95.8 85.75 95.7 85.65 95.15 85.45 94.45 85.2 94.4 85.1 94.35 85 94.25 84.9 94.15 84.8 93.15 84.4 92.05 84.2 91.05 83.35 89.9 82.7 89.65 82.6 89.6 82.75 94.05 93.95 105.35 99 113.5 102.6 122.2 104.5 129 106 135.95 106.25 143.0384765625 106.486328125 149.9 105.35 154.6546875 104.582421875 159.3 103.15 168.25 100.4 176.35 95.7 Z" stroke="none" fill="#EE9D33"></path>

<path d="M 178.6 27.6
Q 178.6 27.45 178.65 27.3 178.8 26.65 178.2 26.35 168.85 28.25 159.25 30.05 159.15 29.9 159.05 29.75 158.6 28.85 158.3 27.9 158.2 27.75 158.1 27.6 158.1 27.45 158.05 27.3 157.9 26.85 157.7 26.35 157.7 26.2 157.7 26.05 157.7 25.3 157.7 24.55 157.7 24.05 157.7 23.6 157.6 23.45 157.55 23.3 157.25 22.4 157.1 21.45 157.05 21.15 156.9 20.85 156.9 20.7 156.9 20.55 156.9 20.05 156.9 19.6 156.8 19.45 156.7 19.3 156.6 19.15 156.5 19 156.5 18.85 156.5 18.7 156.55 18.1 156.05 17.75 152.9712890625 18.9814453125 149.9 20.4 144.9904296875 22.7203125 140.1 25.55
L 140.1 25.6
Q 138.85 25.6 137.65 25.55 137.5 25.4 137.35 25.25 137.3 25.15 137.25 25.05 137.2 25 137.1 24.95 136.75 24.85 136.4 24.75 136.4 24.6 136.35 24.45 135.75 23.35 134.75 22.6 134.75 22.45 134.7 22.35 134.15 21.6 133.45 21.05 133.15 20.45 132.9 19.8 132.45 18.45 131.5 17.35 131.5 17.2 131.45 17.05 131.45 16.9 131.4 16.75 131.2 16.45 130.95 16.15 130.1 15.15 129.55 13.95 129.5 13.85 129.45 13.65 129.4 13.55 129.35 13.55 128.95 13.5 128.5 13.55 123.65 18.1 119.65 23.4 118.1 25.45 116.85 27.7 115.05 27.85 113.25 28 110.05 26 106.85 23.85 106.2 23.35 105.7 22.7 103.5 21.3 101.35 19.8 100.6 19.3 99.85 18.8 99.05 24.15 99.1 29.85 99.15 34 99.15 38.15 99.15 38.45 99.15 38.75 89.99375 38.5234375 80.55 36.25 79.5765625 36.00703125 78.6 35.75 78.6 35.85 78.6 35.95
L 78.6 36
Q 78.7 36.3 78.75 36.6 78.85 36.75 78.95 36.9 79.2 37.25 79.45 37.55 79.9888671875 39.1666015625 80.55 40.75 80.7287109375 41.2880859375 80.9 41.8 81.63671875 43.8564453125 82.4 45.9 83.65 49.1 85.5 51.95 85.55 52.1 85.6 52.3 85.6 52.75 85.6 53.2 85.6 53.35 85.6 53.5 83.1357421875 54.4521484375 80.55 55.25 73.9017578125 57.3900390625 66.45 58.65 66.55 58.8 66.7 58.9 66.8 59 66.85 59.1 67.35 59.1 67.85 59.2
L 67.85 59.3
Q 67.9 59.8 67.75 60.3 72.5 64.4 76.45 69.4 78 71.45 79.05 73.7 76.55 75.35 72.4 75.7 67.55 76.05 63.1 76.1 62.5 76.3 61.9 76.6 61.85 76.7 61.85 76.8 61.8 77 61.8 77.2 61.85 77.4 61.85 77.6 61.85 77.7 61.85 77.8 62.2 77.8 62.6 77.85
L 62.6 77.95
Q 62.6 78.1 62.6 78.2 62.6 79.1 62.6 79.95 62.6 80.2 62.6 80.45 62.65 80.55 62.7 80.65 62.75 80.8 62.85 80.9 62.85 81.05 62.85 81.2 62.95 81.35 63 81.55 63.05 81.7 63.1 81.85 63.1 82 63.1 82.2 63.1 82.95 63.1 83.7 63.1 84 63.1 84.35 64.05 86.05 64.65 88 65.25 90.1 66.35 92 66.35 92.15 66.4 92.3 66.4 92.6 66.45 92.95 67.35 93.5 67.8 94.5 68.45 95.9 69.55 96.9 69.6 97.1 69.6 97.25 69.65 97.4 69.65 97.55 74.2626953125 103.9390625 80.55 108.6 85.23515625 112.0521484375 90.85 114.55 119.209375 127.210546875 149.9 125.85 152.5416015625 125.721875 155.2 125.5 164.3 124.7 173 121.5 185.05 117.05 195.1 108.9 195.2 108.75 195.3 108.6 195.85 107.75 196.8 107.35 198 106.1 199 104.6 200 103.2 201.35 102.15 201.6 101.7 201.85 101.25 202.55 99.95 203.5 98.75 203.7 97.45 204.35 96.3 205.3 94.75 205.45 92.95 207.25 89.1 208.25 84.9 208.95 81.8 210.15 78.8 210.15 77.9 210.15 76.95 210.15 75.25 210.15 73.6 210.15 73.4 210.15 73.25 199.9 71.65 189.65 70.3 189.65 70.15 189.7 70.05 190.15 69.3 190.8 68.75 190.9 68.65 191 68.55 191.05 68.5 191.1 68.5 191.6 68.35 192.1 68.25 192.15 68.1 192.25 68 192.85 67.35 193.55 66.8 193.95 66.7 194.35 66.6 195.3 65.55 196.65 65.1 197.8 64.75 198.75 64.05 201.2 63.6 203.3 62.45 203.85 62.15 204.6 61.8 196.95 56.8 189.25 53.6 190.9 51.35 192.75 48.75 193.95 47.05 195.2 45.3 195.25 45.15 195.25 45 195.35 44.55 195.4 44.1 195.55 43.95 195.7 43.85 195.274609375 42.8357421875 195.05 41.8 194.919140625 41.253125 194.85 40.7 195.15 40.7 195.45 40.75 195.35 40.65 195.3 40.6
L 195.3 40.55
Q 194.15 40.35 193.15 39.8 186.05 39.55 179 39.25 179 36.35 179.15 33.45 179.3 30.4 178.6 27.6
M 174.3 57.65
Q 174.35 57.75 174.45 57.85 175.1 58.45 175.75 59.1 176.1 59.5 176.5 59.8 176.55 59.9 176.6 60 176.6 60.1 176.65 60.2 176.65 60.4 176.65 60.6 176.8 60.7 176.85 60.85 176.9 60.9 176.9 61 176.9 61.2 176.9 61.4 177 61.5 177.05 61.6 177.1 61.7 177.2 61.8 177.2 61.9 177.2 62 177.2 62.2 177.2 62.4 177.2 62.7 177.2 62.95 177.2 63.05 177.2 63.15 177.15 63.25 177.1 63.35 176.85 64.15 176.25 64.9 175.55 65.8 174.6 66.5 165.6 69.55 156.7 67.6 153.6 66.9 152.4 64 152.3 63.9 152.2 63.8 152.1 63.7 152.05 63.6 151.8 63.35 151.6 63.05 151.6 62.95 151.6 62.85 151.6 62.35 151.6 61.85 151.6 61.35 151.6 60.85 151.6 60.5 151.6 60.1 151.7 60 151.75 59.9 151.8 59.8 151.85 59.7 151.9 59.6 151.95 59.5 153 58.4 154.3 57.6 158 55.25 162.3 54.65 166.8 54.1 170.85 55.65 172.4 56.25 173.45 57.4 173.5 57.45 173.6 57.45 173.75 57.5 173.9 57.55 174.1 57.6 174.3 57.65
M 192.5 81.8
L 192.5 81.75
Q 193.5 81.85 194.45 82.05 194.5 82.05 194.5 82.15 194.5 82.25 194.45 82.35 194.4 82.75 194.1 83 193.8 83.25 193.5 83.55 193.45 83.65 193.45 83.75 193.4 83.85 193.35 83.95 193.35 84.05 193.3 84.15 193.2 84.25 193.1 84.3 192.6 84.6 192.25 85 191.9 85.45 191.45 85.9 191.45 86 191.4 86.1 191.35 86.2 191.3 86.3 191.25 86.4 191.2 86.5 184.45 93.25 176.05 97.8 166.75 102.9 156.45 105.3 153.218359375 106.0603515625 149.9 106.45 148.854296875 106.5662109375 147.8 106.65 126.45 108.35 106.25 101.1 96.05 97.4 90.55 88.45 89.15 86.25 87.7 84.05 87.7 83.95 87.7 83.85 87.65 83.7 87.65 83.5 87.65 83.4 87.65 83.3 87.65 83.2 87.65 83.1 87.6 83 87.55 82.9 87.45 82.7 87.4 82.5 87.4 82.4 87.4 82.3 87.35 82.2 87.3 82.1 87.25 82 87.15 81.9 87.15 81.8 87.15 81.7 87.15 81.5 87.15 81.3 87.15 81.2 87.15 81.1 87.15 81 87.15 80.95 87.2 80.85 87.25 80.8 88.5 80.85 89.7 80.85 90.25 81.45 91 81.8 92.5 82.5 93.9 83.5 94.05 83.55 94.2 83.55 95.45 83.65 96.35 84.4 96.45 84.5 96.55 84.6 96.75 84.65 96.9 84.7 97.25 84.8 97.55 84.85 97.65 84.95 97.75 85.05 97.9 85.25 98 85.45 98.1 85.55 98.15 85.65 98.2 85.7 98.3 85.75 98.75 85.85 99.2 85.9 108.25 91.7 118.95 93.4 134.398046875 95.8583984375 149.9 94.7 155.5212890625 94.2916015625 161.15 93.4 164 92.95 166.9 92.4 177.45 90.3 186.95 85.5 187.05 85.4 187.15 85.3 187.2 85.2 187.25 85.1 188.25 84.75 189.15 84.25 190.65 83.35 192 82.3 192.1 82.2 192.15 82.1 192.2 82 192.3 81.95 192.4 81.85 192.5 81.8
M 115 58.4
Q 115.05 58.45 115.15 58.5 115.2 58.55 115.3 58.6 115.5 58.65 115.65 58.7 115.7 58.8 115.75 58.9 115.85 59 115.9 59.1 116.05 59.3 116.25 59.5 116.35 59.6 116.45 59.7 116.55 59.8 116.7 59.9 116.75 60 116.8 60.1 116.85 60.2 116.9 60.3 116.9 60.4 116.95 60.5 117.05 60.6 117.15 60.7 117.25 60.75 117.35 60.85 117.5 60.95 117.6 61.05 117.65 61.15 117.75 61.25 117.75 61.35 117.8 61.45 117.85 61.55 117.85 61.65 117.9 61.85 117.95 62.05 117.95 62.15 117.95 62.25 117.95 62.35 117.95 62.45 117.95 62.55 118 62.6 118.05 62.75 118.1 62.85 118.15 62.95 118.2 63.05 118.2 63.15 118.2 63.25 118.2 63.35 118.2 63.45 118.2 63.6 118.2 63.8 118.2 63.9 118.2 64 118.2 64.1 118.2 64.2 118.2 64.5 118.2 64.8 118.2 64.9 118.2 65 118.15 65.1 118.1 65.2 118.05 65.3 118 65.4 117.95 65.5 117.95 65.6 117.95 65.7 117.95 65.8 117.95 65.9 117.95 66 117.95 66.1 117.95 66.2 117.9 66.3 117.85 66.35 117.8 66.45 117.75 66.55 117.5 66.85 117.25 67.2 117 67.6 116.6 67.95 116.2 68.3 115.85 68.65 107.5 71.35 98.75 69.65 94.1 68.7 91.45 64.95 91.35 64.85 91.2 64.75 91.1 64.65 91 64.55 90.95 64.45 90.85 64.35 90.85 64.25 90.8 64.15 90.8 64.05 90.8 63.95 90.8 63.75 90.8 63.55 90.8 63.45 90.8 63.35 90.8 63.25 90.8 63.15 90.8 62.85 90.8 62.6 90.8 62.5 90.8 62.4 91.4 60.7 92.75 59.6 97.55 55.75 103.65 55.5 108.05 55.3 112.15 56.75 113.45 57.25 114.65 58 114.75 58.1 114.85 58.2 114.9 58.3 115 58.4 Z" stroke="none" fill="#FDDF5E"></path>

<path d="M 113.15 59.15
Q 113.05 59.05 113 58.95 112.9 58.85 112.9 58.75 108.7 56.05 103.65 56.5 98.45 56.95 94.5 60.4 93.05 61.65 92.75 63.45 94.6 66.55 98.05 68.05 101.05 69.3 103.25 68.75 104.75 68.35 106.05 69 112.05 70.2 115.55 66.1 115.75 65.9 115.9 65.7 115.95 65.6 115.95 65.5 115.95 65.25 116 64.95 116.05 64.6 116.2 64.3 116.25 64.25 116.25 64.15 116.25 64.05 116.25 63.95 116.25 63.85 116.2 63.75 116.1 63.55 115.95 63.35 115.95 63.25 115.95 63.15 115.95 63.05 115.95 62.95 115.95 62.75 115.95 62.6 115.95 62.5 115.95 62.4 115.95 62.3 115.9 62.2 115.85 62.1 115.8 62 115.75 61.9 115.7 61.8 115.6 61.7 115.45 61.6 115.15 61.35 114.95 61 114.8 60.8 114.7 60.6 114.65 60.5 114.5 60.45 114.2 60.2 114 59.85 113.85 59.65 113.75 59.45 113.65 59.35 113.55 59.3 113.35 59.25 113.15 59.15
M 174.65 60.85
Q 174.65 60.75 174.6 60.7 173.9 59.7 172.85 58.95 172.55 58.75 172.45 58.4 172.25 58.3 172.05 58.25 171.85 58.2 171.6 58.1 169.3 56.05 166.15 55.6 165.51328125 55.508984375 164.85 55.4 164.46328125 55.389453125 164.05 55.35 163.737890625 55.397265625 163.4 55.45 159.488671875 56.170703125 156.15 58.35 154.8 59.2 153.7 60.4 153.55 60.9 153.55 61.4 153.6 61.9 153.6 62.4 153.8 62.65 154 62.95 154.2 63.15 154.35 63.35 154.75 64.65 155.85 65.6 156.5 66.15 157.25 66.7 157.4 66.75 157.5 66.85 165.2 68.15 172.7 65.8 173.75 65.05 174.5 63.95 174.65 63.7 174.9 63.45 174.9 63.25 175 63.05 175.05 62.85 175.15 62.65 175.1 62.25 175.05 61.85 175 61.5 174.7 61.25 174.7 61.15 174.7 61.05 174.7 60.95 174.65 60.85 Z" stroke="none" fill="#EBEEA6"></path>
</g>
</g>
</g>
</g>
</svg>
