
<svg viewBox="0 0 272 172" height="172px" width="272px" y="0px" x="0px" preserveAspectRatio="none" xmlns:xlink="http://www.w3.org/1999/xlink" version="1.1" xmlns="http://www.w3.org/2000/svg">
<defs></defs>

<g id="Layer_2">
<g>
<g>
<g>
<path d="M 211.1 98.4
Q 211.25 95.75 210.85 93.15 210.3 95.05 209.85 96.95 209.05 100.2 207.35 103.05 207.35 103.2 207.35 103.35 207.2 103.8 207.25 104.3 207.25 104.45 207.25 104.6 206.9 105.15 206.55 105.75 205.9 106.95 205.6 108.25 205.6 108.45 205.55 108.6 203.95 111.45 201.7 113.85 200.3 115.45 199.1 117.2 198.75 117.35 198.45 117.5 197.65 117.9 197.25 118.7 181.3 130.9 161.3 134.85 155.6251953125 135.97265625 149.9 136.4 141.602734375 137.048828125 133.2 136.25 105.6 133.6 81.35 120.35 80.9462890625 120.1283203125 80.55 119.9 72.4619140625 115.21953125 67.6 107.45 67.3 106.45 66.75 105.45 65.85 103.9 64.4 102.85 64.35 102.7 64.35 102.55 64.3 102.25 64.3 101.9 63.7 101 63.3 100.05 63.3 100.2 63.3 100.3 63.3 102 63.9 103.5 63.95 105.9 64.5 108.25 64.95 110.1 64.9 112.1 65 112.2 65.05 112.35 65.1 112.45 65.15 112.6 65.15 112.7 65.15 112.85 65.05 113.85 65.35 114.8 65.45 115.05 65.55 115.3 65.55 115.4 65.55 115.55 65.55 116.25 65.55 117 65.55 117.15 65.55 117.25 65.65 117.4 65.7 117.5 65.8 118 65.8 118.5 65.8 118.6 65.8 118.75 65.9 118.85 65.95 118.95 66.05 119.1 66.1 119.2 66.15 119.35 66.15 119.45 66.2 120.1 66.2 120.7 66.2 120.8 66.2 120.95 66.2 121.05 66.25 121.15 66.5 121.45 66.8 121.7 66.8 121.8 66.85 121.9 67.1 122.55 67.4 123.15 67.45 123.25 67.5 123.4 68.85 124.75 69.85 126.3 70.55 127.45 71.35 128.55 71.65 128.8 71.95 129.05 72.75 129.85 73.65 130.5 73.75 130.65 73.8 130.8 73.95 131 74.05 131.25 74.8 131.65 75.4 132.2 76.15 132.9 77 133.45 77.05 133.6 77.1 133.7 77.2 133.85 77.25 133.95 77.6 134.1 77.9 134.2 78 134.35 78.1 134.45 78.5 135.2 79.25 135.5 79.3 135.65 79.4 135.75 79.8384765625 136.4919921875 80.55 136.9 80.8931640625 137.1197265625 81.3 137.25 81.45 137.35 81.55 137.5 81.630078125 137.6 81.7 137.7 81.7900390625 137.85 81.85 138 82.1 138.1 82.35 138.2 82.65 138.35 82.9 138.45 83 138.6 83.05 138.7 83.1 138.85 83.15 138.95 84.3 139.75 85.45 140.55 86.3 141.15 87 141.85 87.1 141.85 87.2 141.9 87.6 142 88 142.05 88.1 142.2 88.25 142.35 88.3 142.45 88.4 142.55 88.6 142.7 88.85 142.75 90 143.2 91.2 143.7 94.45 146.05 98.25 147.3 108.5109375 151.5271484375 119.05 153.5 124.600390625 153.45 130.15 153.45 140.0435546875 153.419921875 149.9 153.25 154.8671875 153.21875 159.8 153.1 160.6369140625 152.9572265625 161.5 152.75 168.35 151 175 148.4 185.6978515625 144.833984375 193.8 137.7 196.7185546875 135.1314453125 199.3 132.1 199.45 131.95 199.6 131.85 200 131.6 200.45 131.35 200.55 131.2 200.65 131.1 201.15 130.25 201.6 129.35 201.65 129.25 201.7 129.15 202.5 128.5 202.95 127.6 203.45 126.6 204.3 125.95 204.35 125.8 204.4 125.7 204.55 125.35 204.5 124.95 205.2 124.2 205.65 123.2 206.2 122 207 121 207 120.9 207.05 120.8 207.05 120.65 207.1 120.55 207.2 120.4 207.3 120.3 207.85 119.6 208.35 118.8 208.35 118.7 208.35 118.55 208.35 118.2 208.35 117.85 208.4 117.7 208.5 117.6 208.75 117.35 209 117.1 209 116.95 209 116.85 209 116.6 209 116.35 209.55 115.55 209.7 114.65 209.95 113.3 209.95 111.95 210.05 111.8 210.15 111.7 210.2 111.55 210.3 111.45 210.35 111.3 210.35 111.2 210.4 110.6 210.4 109.95 210.4 109.85 210.4 109.7 210.4 109.6 210.5 109.5 210.55 109.35 210.65 109.2 210.65 103.8 211.1 98.4
M 66.6 72.9
Q 66.6 73.35 66.8 73.7 67.05 76.85 67.4 80 67.55 81.7 67.7 83.35 69.35 83.35 71 83.7 71.1 83.7 71.25 83.75 73.8 83.45 76.4 83.1 76.3 81.55 74.55 80 73.3 78.85 72.5 77.35 69.9 74.3 66.95 71.6 66.7 72.15 66.55 72.75 66.6 72.85 66.6 72.9
M 80.55 55.85
Q 79.7375 53.94140625 79 51.95 78.7 51.05 78.35 50.2 78.2 54.15 78.25 58.1 78.25 61.05 78.4 63.95 79.479296875 63.659375 80.55 63.35 82.05859375 62.8970703125 83.55 62.4 81.9404296875 59.2123046875 80.55 55.85
M 202.15 73.8
Q 201.4 73.9 200.6 74.05 200.45 74.2 200.3 74.35 200.15 74.5 200 74.6 199.9 74.65 199.8 74.65 198.65 75 197.55 75.5 197.45 75.65 197.3 75.75 196.85 76.15 196.4 76.65 196.3 76.7 196.2 76.7 195.8 76.85 195.4 76.95 195.25 77.1 195.05 77.2 194.35 77.5 194.15 78.15 194.15 78.25 194.1 78.3 193.4 78.65 192.65 78.9 198.45 79.85 204.55 80.75 204.55 78.2 204.55 75.6 204.55 74.4 204.55 73.15 203.45 73.6 202.15 73.8
M 196.7 56.3
Q 196.7 56.15 196.65 56.05 195.6 57.45 194.65 58.95 193.65 60.55 192.4 62 192.1 62.15 191.85 62.35 191.75 62.45 191.7 62.6 194.05 63.65 197 64.9 197 64.7 197 64.55 197.15 62.8 196.7 61.2 196.7 60.3 196.7 59.45 196.7 57.85 196.7 56.3
M 176.35 105
Q 182.95 101.2 188.4 95.85 174.35 102.25 158.7 104.1 154.289453125 104.63046875 149.9 104.85 130.701171875 105.9916015625 111.9 101.8 106.35 100.55 101.3 98 98.75 96.7 96.3 95.75 96.05 95.45 95.9 95.15 95.8 95.05 95.7 94.95 95.15 94.75 94.45 94.5 94.4 94.4 94.35 94.3 94.25 94.2 94.15 94.1 93.15 93.7 92.05 93.5 91.05 92.65 89.9 92 89.65 91.9 89.6 92.05 94.05 103.25 105.35 108.3 113.5 111.9 122.2 113.8 129 115.3 135.95 115.55 143.0384765625 115.786328125 149.9 114.65 154.6546875 113.882421875 159.3 112.45 168.25 109.7 176.35 105 Z" stroke="none" fill="#EE9D33"></path>

<path d="M 180.55 35.35
Q 180.25 35.1 180 34.75 179.9 34.6 179.7 34.45 170.1 35.5 161 38.25 160.95 37.95 160.8 37.75 160.75 37.55 160.55 37.4 160.55 37.25 160.55 37.1 160.35 36.65 160.2 36.15 160.15 36.05 160.15 35.9 159.95 35.55 159.8 35.25 159.75 35.1 159.75 34.95 159.75 34.8 159.75 34.65 159.95 32.9 159.6 31.2 159.4 30.3 158.95 29.4 158.95 29.1 158.95 28.8 158.95 28.65 158.95 28.5 158.9 28.35 158.8 28.25 158.45 27.8 158.5 27.25 158.55 27.1 158.55 26.95 158.5 26.8 158.4 26.7 158.25 26.5 158.1 26.35 158.05 26.05 157.95 25.75 157.85 25.6 157.7 25.45 156.4 25.4 155.05 25.4 154.9 25.45 154.75 25.55 154.2 25.95 153.7 26.45 153.5 26.6 153.3 26.75 151.591015625 27.4580078125 149.9 28.2 144.6642578125 30.5412109375 139.6 33.3 139.05 33.35 138.55 33.3 138.5 33.3 138.45 33.2 138.15 32.2 137.25 31.65 137.05 31.5 136.9 31.35 136.85 31.2 136.8 31.05 136.75 30.9 136.7 30.75 136.3 30.45 135.9 30.1 135.75 30 135.6 29.85 134.9 28.65 134.35 27.4 134.1 26.7 133.55 26.15 133.55 26 133.5 25.85 132.95 24.55 132 23.4 131.55 22.85 131.4 22.15 131.1 22.05 130.8 21.9 130.75 21.9 130.65 21.85 130.55 21.75 130.5 21.65 130.35 21.5 130.25 21.35 129.15 21.3 128 21.25 125.5 22.9 123.3 25.3 118.5 30.55 114.6 36.2 114.1 35.8 113.5 35.45 107.35 31.75 101.7 27.15 101.15 27 100.6 26.8 100.4 26.75 100.25 26.65 99.2 26.6 98.1 26.65 98 26.65 97.9 26.75 97.95 27.3 97.65 27.7 97.55 27.85 97.5 28 97.5 28.3 97.5 28.6 97.25 32.75 97.2 36.9 97.1529296875 39.34453125 97.1 41.8 97.1 44.56796875 97.1 47.35 91.85 47 86.8 45.35 83.539453125 44.3080078125 80.55 44.3 79.0927734375 44.304296875 77.7 44.55 77.15 44.5 76.65 44.5 76.65 44.65 76.65 44.8 76.4 44.85 76.2 44.9 76.4 45.3 76.55 45.75 76.35 48.5 76.35 51.3 76.35 57.85 76.35 64.4 74.4 64.8 72.45 65.1 67.4 65.85 64.3 68.15 64.75 69.1 65.35 69.9 65.05 70.75 64.8 71.65 64.35 73.05 64.85 74.35 64.95 76.75 65.25 79.1 65.6 81.25 65.65 83.45 65.25 83.5 64.85 83.55 62.6 84.2 60.25 84.95 60.15 85 60 85.05 59.95 85.1 59.95 85.2 59.25 85.25 58.6 85.35 59.2 85.35 59.85 85.4 59.8 85.4 59.75 85.45 59.65 85.55 59.6 85.65 59.6 85.75 59.6 85.85 59.6 85.95 59.6 86.05 59.6 86.15 59.6 86.25 59.6 86.3 59.6 86.35 59.55 86.35 59.45 86.4 59.4 86.4 59.4 86.55 59.4 86.7 59.4 86.85 59.4 87.35 59.4 87.8 59.4 87.95 59.4 88.1 59.9 88.45 59.85 89 59.8 89.15 59.8 89.35 60.05 89.65 60.3 89.95 60.45 90.1 60.55 90.25 60.6 90.4 60.6 90.55 60.6 91.1 60.9 91.5 60.85 93.05 60.75 94.55 60.65 96.75 61.3 98.75 61.5 100.35 61.45 101.95 61.4 103.1 61.95 104.15 62 106.15 62.5 108.1 63.15 110.35 62.95 112.75 63 112.85 63.1 113 63.15 113.1 63.15 113.25 63.15 113.5 63.15 113.75 63 114.8 63.5 115.7 63.55 115.8 63.6 115.95 63.6 116.05 63.6 116.2 63.6 117.05 63.7 117.9 63.7 118.05 63.85 118.15 63.85 118.3 63.85 118.4 63.85 118.75 63.85 119.15 63.85 119.25 63.85 119.4 64 119.65 64.15 119.9 64.2 120 64.25 120.1 64.25 120.25 64.25 120.35 64.25 120.85 64.25 121.35 64.25 121.45 64.25 121.6 64.4 121.85 64.6 122.05 64.7 122.2 64.8 122.35 64.85 122.45 64.9 122.6 65.15 123.25 65.45 123.8 65.5 123.95 65.55 124.05 66.6 125.05 67.35 126.25 68.35 127.8 69.4 129.2 70.25 129.85 71 130.65 71.3 130.95 71.7 131.2 71.9 131.55 72.15 131.9 72.25 132.05 72.35 132.15 73.3 132.65 74.15 133.4 74.5 133.7 74.9 133.95 75.05 134.2 75.2 134.45 75.3 134.6 75.4 134.7 75.7 134.8 76.05 134.9 76.1 134.9 76.1 134.95 76.45 135.9 77.2 136.6 77.875390625 137.2431640625 78.7 137.7 79.150390625 137.9537109375 79.65 138.15 79.7 138.25 79.75 138.4 79.8 138.5 79.9 138.65 80.15 138.75 80.4 138.85 80.4728515625 138.89375 80.55 138.95 80.7373046875 139.04375 80.95 139.15 81.05 139.25 81.1 139.4 81.15 139.5 81.2 139.6 81.95 140 82.55 140.5 83.8 141.6 85.2 142.55 86.15 142.4 86.3 142.95 86.35 143.1 86.45 143.2 87.5 143.65 88.55 144.1 88.9 144.25 89.2 144.35 92.65 146.75 96.6 148.15 96.7 148.25 96.85 148.35 97 148.5 97.15 148.65 105.1380859375 151.6994140625 113.4 153.6 116.226171875 153.5591796875 119.05 153.5 108.5109375 151.5271484375 98.25 147.3 94.45 146.05 91.2 143.7 90 143.2 88.85 142.75 88.6 142.7 88.4 142.55 88.3 142.45 88.25 142.35 88.1 142.2 88 142.05 87.6 142 87.2 141.9 87.1 141.85 87 141.85 86.3 141.15 85.45 140.55 84.3 139.75 83.15 138.95 83.1 138.85 83.05 138.7 83 138.6 82.9 138.45 82.65 138.35 82.35 138.2 82.1 138.1 81.85 138 81.7900390625 137.85 81.7 137.7 81.630078125 137.6 81.55 137.5 81.45 137.35 81.3 137.25 80.8931640625 137.1197265625 80.55 136.9 79.8384765625 136.4919921875 79.4 135.75 79.3 135.65 79.25 135.5 78.5 135.2 78.1 134.45 78 134.35 77.9 134.2 77.6 134.1 77.25 133.95 77.2 133.85 77.1 133.7 77.05 133.6 77 133.45 76.15 132.9 75.4 132.2 74.8 131.65 74.05 131.25 73.95 131 73.8 130.8 73.75 130.65 73.65 130.5 72.75 129.85 71.95 129.05 71.65 128.8 71.35 128.55 70.55 127.45 69.85 126.3 68.85 124.75 67.5 123.4 67.45 123.25 67.4 123.15 67.1 122.55 66.85 121.9 66.8 121.8 66.8 121.7 66.5 121.45 66.25 121.15 66.2 121.05 66.2 120.95 66.2 120.8 66.2 120.7 66.2 120.1 66.15 119.45 66.15 119.35 66.1 119.2 66.05 119.1 65.95 118.95 65.9 118.85 65.8 118.75 65.8 118.6 65.8 118.5 65.8 118 65.7 117.5 65.65 117.4 65.55 117.25 65.55 117.15 65.55 117 65.55 116.25 65.55 115.55 65.55 115.4 65.55 115.3 65.45 115.05 65.35 114.8 65.05 113.85 65.15 112.85 65.15 112.7 65.15 112.6 65.1 112.45 65.05 112.35 65 112.2 64.9 112.1 64.95 110.1 64.5 108.25 63.95 105.9 63.9 103.5 63.3 102 63.3 100.3 63.3 100.2 63.3 100.05 63.7 101 64.3 101.9 64.3 102.25 64.35 102.55 64.35 102.7 64.4 102.85 65.85 103.9 66.75 105.45 67.3 106.45 67.6 107.45 72.4619140625 115.21953125 80.55 119.9 80.9462890625 120.1283203125 81.35 120.35 105.6 133.6 133.2 136.25 141.602734375 137.048828125 149.9 136.4 155.6251953125 135.97265625 161.3 134.85 181.3 130.9 197.25 118.7 197.65 117.9 198.45 117.5 198.75 117.35 199.1 117.2 200.3 115.45 201.7 113.85 203.95 111.45 205.55 108.6 205.6 108.45 205.6 108.25 205.9 106.95 206.55 105.75 206.9 105.15 207.25 104.6 207.25 104.45 207.25 104.3 207.2 103.8 207.35 103.35 207.35 103.2 207.35 103.05 209.05 100.2 209.85 96.95 210.3 95.05 210.85 93.15 211.25 95.75 211.1 98.4 210.65 103.8 210.65 109.2 210.55 109.35 210.5 109.5 210.4 109.6 210.4 109.7 210.4 109.85 210.4 109.95 210.4 110.6 210.35 111.2 210.35 111.3 210.3 111.45 210.2 111.55 210.15 111.7 210.05 111.8 209.95 111.95 209.95 113.3 209.7 114.65 209.55 115.55 209 116.35 209 116.6 209 116.85 209 116.95 209 117.1 208.75 117.35 208.5 117.6 208.4 117.7 208.35 117.85 208.35 118.2 208.35 118.55 208.35 118.7 208.35 118.8 207.85 119.6 207.3 120.3 207.2 120.4 207.1 120.55 207.05 120.65 207.05 120.8 207 120.9 207 121 206.2 122 205.65 123.2 205.2 124.2 204.5 124.95 204.55 125.35 204.4 125.7 204.35 125.8 204.3 125.95 203.45 126.6 202.95 127.6 202.5 128.5 201.7 129.15 201.65 129.25 201.6 129.35 201.15 130.25 200.65 131.1 200.55 131.2 200.45 131.35 200 131.6 199.6 131.85 199.45 131.95 199.3 132.1 196.7185546875 135.1314453125 193.8 137.7 185.6978515625 144.833984375 175 148.4 168.35 151 161.5 152.75 160.6369140625 152.9572265625 159.8 153.1 162.77734375 153.066796875 165.7 153 171.40390625 151.3796875 176.95 149.05 177.1 148.9 177.3 148.8 177.4 148.65 177.55 148.55 188.507421875 145.1376953125 196.6 137.7 199.166015625 135.3294921875 201.45 132.55 201.95 132.35 202.4 132 202.5 131.95 202.5 131.85 202.55 131.7 202.65 131.6 203.3 130.8 203.65 129.85 203.7 129.75 203.75 129.6 204.9 128.95 205.4 127.65 205.5 127.4 205.65 127.15 205.9 126.9 206.2 126.65 206.3 126.55 206.35 126.45 206.4 126.2 206.45 125.95 206.45 125.8 206.45 125.7 207.3 124.65 207.9 123.5 208.35 122.6 208.9 121.75 208.95 121.65 208.95 121.5 209 121.4 209 121.25 210 120.3 210.25 119.05 210.3 118.8 210.3 118.55 210.6 118.2 210.85 117.8 210.9 117.7 210.95 117.6 210.95 117.35 210.95 117.1 210.95 116.95 210.95 116.85 211.4 116.4 211.6 115.85 211.65 115.75 211.7 115.6 211.7 115.5 211.7 115.35 211.7 115 211.7 114.65 211.7 114.5 211.7 114.4 211.8 114.25 211.85 114.15 211.9 114 211.95 113.9 211.95 113.75 211.95 113.65 211.95 113.3 211.95 112.9 211.95 112.8 211.95 112.65 212.1 112.4 212.25 112.15 212.3 112.05 212.35 111.95 212.35 111.8 212.35 111.7 212.35 111.05 212.35 110.45 212.35 110.35 212.35 110.2 212.45 110.1 212.5 109.95 212.55 109.85 212.6 109.7 212.6 108.1 212.6 106.5 212.6 105.15 212.6 103.8 213.3 100.6 213.1 97.2 212.75 90.9 212.35 84.65 212.35 84.55 212.35 84.5 212.25 84.5 212.2 84.5 212.2 83.2 212.2 81.85 209.35 81.45 206.55 81.05 206.55 79.15 206.55 77.25 206.55 74.6 206.55 72 206.9 71.65 207.25 71.3 204.7 68.2 200.75 66.5 199.85 66.1 198.95 65.75 198.95 64.3 199 62.85 199.05 61.7 198.65 60.7 198.65 59 198.75 57.35 198.8 56.2 198.4 55.15 198.5 54.1 198.2 53.15 198.4 52.8 198.55 52.45 198.6 52.3 198.65 52.15 198.65 51.85 198.65 51.55 198.65 50.95 198.65 50.3 198.6 50.15 198.55 50 198.2 49.9 197.85 49.8 197.85 49.75 197.8 49.75 197.7 49.6 197.55 49.45 197.45 49.35 197.35 49.2 196.4 48.9 195.5 48.55 195.25 48.45 195 48.35 188 48.1 181.05 47.85 181.05 45.1 181.05 42.35 181.05 42.074609375 181.05 41.8 181.05 39.4298828125 181.05 37.1 181 36.95 180.9 36.85 180.6 36.4 180.65 35.85 180.65 35.7 180.65 35.55 180.65 35.4 180.55 35.35
M 178.2 35.65
Q 178.8 35.95 178.65 36.6 178.6 36.75 178.6 36.9 179.190234375 39.2611328125 179.15 41.8 179.1734375 42.271875 179.15 42.75 179 45.65 179 48.55 186.05 48.85 193.15 49.1 194.15 49.65 195.3 49.85
L 195.3 49.9
Q 195.35 49.95 195.45 50.05 195.15 50 194.85 50 195.05 51.6 195.7 53.15 195.55 53.25 195.4 53.4 195.35 53.85 195.25 54.3 195.25 54.45 195.2 54.6 193.95 56.35 192.75 58.05 190.9 60.65 189.25 62.9 196.95 66.1 204.6 71.1 203.85 71.45 203.3 71.75 201.2 72.9 198.75 73.35 197.8 74.05 196.65 74.4 195.3 74.85 194.35 75.9 193.95 76 193.55 76.1 192.85 76.65 192.25 77.3 192.15 77.4 192.1 77.55 191.6 77.65 191.1 77.8 191.05 77.8 191 77.85 190.9 77.95 190.8 78.05 190.15 78.6 189.7 79.35 189.65 79.45 189.65 79.6 199.9 80.95 210.15 82.55 210.15 82.7 210.15 82.9 210.15 84.55 210.15 86.25 210.15 87.2 210.15 88.1 208.95 91.1 208.25 94.2 207.25 98.4 205.45 102.25 205.3 104.05 204.35 105.6 203.7 106.75 203.5 108.05 202.55 109.25 201.85 110.55 201.6 111 201.35 111.45 200 112.5 199 113.9 198 115.4 196.8 116.65 195.85 117.05 195.3 117.9 195.2 118.05 195.1 118.2 185.05 126.35 173 130.8 164.3 134 155.2 134.8 152.5416015625 135.021875 149.9 135.15 119.209375 136.510546875 90.85 123.85 85.23515625 121.3521484375 80.55 117.9 74.2626953125 113.2390625 69.65 106.85 69.65 106.7 69.6 106.55 69.6 106.4 69.55 106.2 68.45 105.2 67.8 103.8 67.35 102.8 66.45 102.25 66.4 101.9 66.4 101.6 66.35 101.45 66.35 101.3 65.25 99.4 64.65 97.3 64.05 95.35 63.1 93.65 63.1 93.3 63.1 93 63.1 92.25 63.1 91.5 63.1 91.3 63.1 91.15 63.05 91 63 90.85 62.95 90.65 62.85 90.5 62.85 90.35 62.85 90.2 62.75 90.1 62.7 89.95 62.65 89.85 62.6 89.75 62.6 89.5 62.6 89.25 62.6 88.4 62.6 87.5 62.6 87.4 62.6 87.25
L 62.6 87.15
Q 62.2 87.1 61.85 87.1 61.85 87 61.85 86.9 61.85 86.7 61.8 86.5 61.8 86.3 61.85 86.1 61.85 86 61.9 85.9 62.5 85.6 63.1 85.4 67.55 85.35 72.4 85 76.55 84.65 79.05 83 78 80.75 76.45 78.7 72.5 73.7 67.75 69.6 67.9 69.1 67.85 68.6
L 67.85 68.5
Q 67.35 68.4 66.85 68.4 66.8 68.3 66.7 68.2 66.55 68.1 66.45 67.95 73.9017578125 66.6900390625 80.55 64.55 83.1357421875 63.7521484375 85.6 62.8 85.6 62.65 85.6 62.5 85.6 62.05 85.6 61.6 85.55 61.4 85.5 61.25 83.65 58.4 82.4 55.2 81.446484375 52.647265625 80.55 50.05 79.9888671875 48.4666015625 79.45 46.85 79.2 46.55 78.95 46.2 78.85 46.05 78.75 45.9 78.7 45.6 78.6 45.3
L 78.6 45.25
Q 78.6 45.15 78.6 45.05 79.5765625 45.30703125 80.55 45.55 89.99375 47.8234375 99.15 48.05 99.15 47.75 99.15 47.45 99.15 44.625 99.1 41.8 99.116015625 40.475 99.1 39.15 99.05 33.45 99.85 28.1 100.6 28.6 101.35 29.1 103.5 30.6 105.7 32 106.2 32.65 106.85 33.15 110.05 35.3 113.25 37.3 115.05 37.15 116.85 37 118.1 34.75 119.65 32.7 123.65 27.4 128.5 22.85 128.95 22.8 129.35 22.85 129.4 22.85 129.45 22.95 129.5 23.15 129.55 23.25 130.1 24.45 130.95 25.45 131.2 25.75 131.4 26.05 131.45 26.2 131.45 26.35 131.5 26.5 131.5 26.65 132.45 27.75 132.9 29.1 133.15 29.75 133.45 30.35 134.15 30.9 134.7 31.65 134.75 31.75 134.75 31.9 135.75 32.65 136.35 33.75 136.4 33.9 136.4 34.05 136.75 34.15 137.1 34.25 137.2 34.3 137.25 34.35 137.3 34.45 137.35 34.55 137.5 34.7 137.65 34.85 138.85 34.9 140.1 34.9
L 140.1 34.85
Q 144.9904296875 32.0203125 149.9 29.7 152.9712890625 28.2814453125 156.05 27.05 156.55 27.4 156.5 28 156.5 28.15 156.5 28.3 156.6 28.45 156.7 28.6 156.8 28.75 156.9 28.9 156.9 29.35 156.9 29.85 156.9 30 156.9 30.15 157.05 30.45 157.1 30.75 157.25 31.7 157.55 32.6 157.6 32.75 157.7 32.9 157.7 33.35 157.7 33.85 157.7 34.6 157.7 35.35 157.7 35.5 157.7 35.65 157.9 36.15 158.05 36.6 158.1 36.75 158.1 36.9 158.2 37.05 158.3 37.2 158.6 38.15 159.05 39.05 159.15 39.2 159.25 39.35 168.85 37.55 178.2 35.65
M 196.65 56.05
Q 196.7 56.15 196.7 56.3 196.7 57.85 196.7 59.45 196.7 60.3 196.7 61.2 197.15 62.8 197 64.55 197 64.7 197 64.9 194.05 63.65 191.7 62.6 191.75 62.45 191.85 62.35 192.1 62.15 192.4 62 193.65 60.55 194.65 58.95 195.6 57.45 196.65 56.05
M 200.6 74.05
Q 201.4 73.9 202.15 73.8 203.45 73.6 204.55 73.15 204.55 74.4 204.55 75.6 204.55 78.2 204.55 80.75 198.45 79.85 192.65 78.9 193.4 78.65 194.1 78.3 194.15 78.25 194.15 78.15 194.35 77.5 195.05 77.2 195.25 77.1 195.4 76.95 195.8 76.85 196.2 76.7 196.3 76.7 196.4 76.65 196.85 76.15 197.3 75.75 197.45 75.65 197.55 75.5 198.65 75 199.8 74.65 199.9 74.65 200 74.6 200.15 74.5 200.3 74.35 200.45 74.2 200.6 74.05
M 79 51.95
Q 79.7375 53.94140625 80.55 55.85 81.9404296875 59.2123046875 83.55 62.4 82.05859375 62.8970703125 80.55 63.35 79.479296875 63.659375 78.4 63.95 78.25 61.05 78.25 58.1 78.2 54.15 78.35 50.2 78.7 51.05 79 51.95
M 66.8 73.7
Q 66.6 73.35 66.6 72.9 66.6 72.85 66.55 72.75 66.7 72.15 66.95 71.6 69.9 74.3 72.5 77.35 73.3 78.85 74.55 80 76.3 81.55 76.4 83.1 73.8 83.45 71.25 83.75 71.1 83.7 71 83.7 69.35 83.35 67.7 83.35 67.55 81.7 67.4 80 67.05 76.85 66.8 73.7
M 115.15 67.8
Q 115.05 67.75 115 67.7 114.9 67.6 114.85 67.5 114.75 67.4 114.65 67.3 113.45 66.55 112.15 66.05 108.05 64.6 103.65 64.8 97.55 65.05 92.75 68.9 91.4 70 90.8 71.7 90.8 71.8 90.8 71.9 90.8 72.15 90.8 72.45 90.8 72.55 90.8 72.65 90.8 72.75 90.8 72.85 90.8 73.05 90.8 73.25 90.8 73.35 90.8 73.45 90.85 73.55 90.85 73.65 90.95 73.75 91 73.85 91.1 73.95 91.2 74.05 91.35 74.15 91.45 74.25 94.1 78 98.75 78.95 107.5 80.65 115.85 77.95 116.2 77.6 116.6 77.25 117 76.9 117.25 76.5 117.5 76.15 117.75 75.85 117.8 75.75 117.85 75.65 117.9 75.6 117.95 75.5 117.95 75.4 117.95 75.3 117.95 75.2 117.95 75.1 117.95 75 117.95 74.9 117.95 74.8 118 74.7 118.05 74.6 118.1 74.5 118.15 74.4 118.2 74.3 118.2 74.2 118.2 74.1 118.2 73.8 118.2 73.5 118.2 73.4 118.2 73.3 118.2 73.2 118.2 73.1 118.2 72.9 118.2 72.75 118.2 72.65 118.2 72.55 118.2 72.45 118.2 72.35 118.15 72.25 118.1 72.15 118.05 72.05 118 71.9 117.95 71.85 117.95 71.75 117.95 71.65 117.95 71.55 117.95 71.45 117.95 71.35 117.9 71.15 117.85 70.95 117.85 70.85 117.8 70.75 117.75 70.65 117.75 70.55 117.65 70.45 117.6 70.35 117.5 70.25 117.35 70.15 117.25 70.05 117.15 70 117.05 69.9 116.95 69.8 116.9 69.7 116.9 69.6 116.85 69.5 116.8 69.4 116.75 69.3 116.7 69.2 116.55 69.1 116.45 69 116.35 68.9 116.25 68.8 116.05 68.6 115.9 68.4 115.85 68.3 115.75 68.2 115.7 68.1 115.65 68 115.5 67.95 115.3 67.9 115.2 67.85 115.15 67.8
M 114.7 69.9
Q 114.8 70.1 114.95 70.3 115.15 70.65 115.45 70.9 115.6 71 115.7 71.1 115.75 71.2 115.8 71.3 115.85 71.4 115.9 71.5 115.95 71.6 115.95 71.7 115.95 71.8 115.95 71.9 115.95 72.05 115.95 72.25 115.95 72.35 115.95 72.45 115.95 72.55 115.95 72.65 116.1 72.85 116.2 73.05 116.25 73.15 116.25 73.25 116.25 73.35 116.25 73.45 116.25 73.55 116.2 73.6 116.05 73.9 116 74.25 115.95 74.55 115.95 74.8 115.95 74.9 115.9 75 115.75 75.2 115.55 75.4 112.05 79.5 106.05 78.3 104.75 77.65 103.25 78.05 101.05 78.6 98.05 77.35 94.6 75.85 92.75 72.75 93.05 70.95 94.5 69.7 98.45 66.25 103.65 65.8 108.7 65.35 112.9 68.05 112.9 68.15 113 68.25 113.05 68.35 113.15 68.45 113.35 68.55 113.55 68.6 113.65 68.65 113.75 68.75 113.85 68.95 114 69.15 114.2 69.5 114.5 69.75 114.65 69.8 114.7 69.9
M 192.15 91.4
Q 192.1 91.5 192 91.6 190.65 92.65 189.15 93.55 188.25 94.05 187.25 94.4 187.2 94.5 187.15 94.6 187.05 94.7 186.95 94.8 177.45 99.6 166.9 101.7 164 102.25 161.15 102.7 155.5212890625 103.5916015625 149.9 104 134.398046875 105.1583984375 118.95 102.7 108.25 101 99.2 95.2 98.75 95.15 98.3 95.05 98.2 95 98.15 94.95 98.1 94.85 98 94.75 97.9 94.55 97.75 94.35 97.65 94.25 97.55 94.15 97.25 94.1 96.9 94 96.75 93.95 96.55 93.9 96.45 93.8 96.35 93.7 95.45 92.95 94.2 92.85 94.05 92.85 93.9 92.8 92.5 91.8 91 91.1 90.25 90.75 89.7 90.15 88.5 90.15 87.25 90.1 87.2 90.15 87.15 90.25 87.15 90.3 87.15 90.4 87.15 90.5 87.15 90.6 87.15 90.8 87.15 91 87.15 91.1 87.15 91.2 87.25 91.3 87.3 91.4 87.35 91.5 87.4 91.6 87.4 91.7 87.4 91.8 87.45 92 87.55 92.2 87.6 92.3 87.65 92.4 87.65 92.5 87.65 92.6 87.65 92.7 87.65 92.8 87.65 93 87.7 93.15 87.7 93.25 87.7 93.35 89.15 95.55 90.55 97.75 96.05 106.7 106.25 110.4 126.45 117.65 147.8 115.95 148.854296875 115.8662109375 149.9 115.75 153.218359375 115.3603515625 156.45 114.6 166.75 112.2 176.05 107.1 184.45 102.55 191.2 95.8 191.25 95.7 191.3 95.6 191.35 95.5 191.4 95.4 191.45 95.3 191.45 95.2 191.9 94.75 192.25 94.3 192.6 93.9 193.1 93.6 193.2 93.55 193.3 93.45 193.35 93.35 193.35 93.25 193.4 93.15 193.45 93.05 193.45 92.95 193.5 92.85 193.8 92.55 194.1 92.3 194.4 92.05 194.45 91.65 194.5 91.55 194.5 91.45 194.5 91.35 194.45 91.35 193.5 91.15 192.5 91.05
L 192.5 91.1
Q 192.4 91.15 192.3 91.25 192.2 91.3 192.15 91.4
M 188.4 95.85
Q 182.95 101.2 176.35 105 168.25 109.7 159.3 112.45 154.6546875 113.882421875 149.9 114.65 143.0384765625 115.786328125 135.95 115.55 129 115.3 122.2 113.8 113.5 111.9 105.35 108.3 94.05 103.25 89.6 92.05 89.65 91.9 89.9 92 91.05 92.65 92.05 93.5 93.15 93.7 94.15 94.1 94.25 94.2 94.35 94.3 94.4 94.4 94.45 94.5 95.15 94.75 95.7 94.95 95.8 95.05 95.9 95.15 96.05 95.45 96.3 95.75 98.75 96.7 101.3 98 106.35 100.55 111.9 101.8 130.701171875 105.9916015625 149.9 104.85 154.289453125 104.63046875 158.7 104.1 174.35 102.25 188.4 95.85
M 170.85 64.95
Q 166.8 63.4 162.3 63.95 158 64.55 154.3 66.9 153 67.7 151.95 68.8 151.9 68.9 151.85 69 151.8 69.1 151.75 69.2 151.7 69.3 151.6 69.4 151.6 69.8 151.6 70.15 151.6 70.65 151.6 71.15 151.6 71.65 151.6 72.15 151.6 72.25 151.6 72.35 151.8 72.65 152.05 72.9 152.1 73 152.2 73.1 152.3 73.2 152.4 73.3 153.6 76.2 156.7 76.9 165.6 78.85 174.6 75.8 175.55 75.1 176.25 74.2 176.85 73.45 177.1 72.65 177.15 72.55 177.2 72.45 177.2 72.35 177.2 72.25 177.2 72 177.2 71.7 177.2 71.5 177.2 71.3 177.2 71.2 177.2 71.1 177.1 71 177.05 70.9 177 70.8 176.9 70.7 176.9 70.5 176.9 70.3 176.9 70.2 176.85 70.15 176.8 70 176.65 69.9 176.65 69.7 176.65 69.5 176.6 69.4 176.6 69.3 176.55 69.2 176.5 69.1 176.1 68.8 175.75 68.4 175.1 67.75 174.45 67.15 174.35 67.05 174.3 66.95 174.1 66.9 173.9 66.85 173.75 66.8 173.6 66.75 173.5 66.75 173.45 66.7 172.4 65.55 170.85 64.95
M 171.6 67.4
Q 171.85 67.5 172.05 67.55 172.25 67.6 172.45 67.7 172.55 68.05 172.85 68.25 173.9 69 174.6 70 174.65 70.05 174.65 70.15 174.7 70.25 174.7 70.35 174.7 70.45 174.7 70.55 175 70.8 175.05 71.15 175.1 71.55 175.15 71.95 175.05 72.15 175 72.35 174.9 72.55 174.9 72.75 174.65 73 174.5 73.25 173.75 74.35 172.7 75.1 165.2 77.45 157.5 76.15 157.4 76.05 157.25 76 156.5 75.45 155.85 74.9 154.75 73.95 154.35 72.65 154.2 72.45 154 72.25 153.8 71.95 153.6 71.7 153.6 71.2 153.55 70.7 153.55 70.2 153.7 69.7 154.8 68.5 156.15 67.65 159.488671875 65.470703125 163.4 64.75 163.737890625 64.697265625 164.05 64.65 164.46328125 64.689453125 164.85 64.7 165.51328125 64.808984375 166.15 64.9 169.3 65.35 171.6 67.4 Z" stroke="none" fill="#000000"></path>

<path d="M 178.65 36.6
Q 178.8 35.95 178.2 35.65 168.85 37.55 159.25 39.35 159.15 39.2 159.05 39.05 158.6 38.15 158.3 37.2 158.2 37.05 158.1 36.9 158.1 36.75 158.05 36.6 157.9 36.15 157.7 35.65 157.7 35.5 157.7 35.35 157.7 34.6 157.7 33.85 157.7 33.35 157.7 32.9 157.6 32.75 157.55 32.6 157.25 31.7 157.1 30.75 157.05 30.45 156.9 30.15 156.9 30 156.9 29.85 156.9 29.35 156.9 28.9 156.8 28.75 156.7 28.6 156.6 28.45 156.5 28.3 156.5 28.15 156.5 28 156.55 27.4 156.05 27.05 152.9712890625 28.2814453125 149.9 29.7 144.9904296875 32.0203125 140.1 34.85
L 140.1 34.9
Q 138.85 34.9 137.65 34.85 137.5 34.7 137.35 34.55 137.3 34.45 137.25 34.35 137.2 34.3 137.1 34.25 136.75 34.15 136.4 34.05 136.4 33.9 136.35 33.75 135.75 32.65 134.75 31.9 134.75 31.75 134.7 31.65 134.15 30.9 133.45 30.35 133.15 29.75 132.9 29.1 132.45 27.75 131.5 26.65 131.5 26.5 131.45 26.35 131.45 26.2 131.4 26.05 131.2 25.75 130.95 25.45 130.1 24.45 129.55 23.25 129.5 23.15 129.45 22.95 129.4 22.85 129.35 22.85 128.95 22.8 128.5 22.85 123.65 27.4 119.65 32.7 118.1 34.75 116.85 37 115.05 37.15 113.25 37.3 110.05 35.3 106.85 33.15 106.2 32.65 105.7 32 103.5 30.6 101.35 29.1 100.6 28.6 99.85 28.1 99.05 33.45 99.1 39.15 99.116015625 40.475 99.1 41.8 99.15 44.625 99.15 47.45 99.15 47.75 99.15 48.05 89.99375 47.8234375 80.55 45.55 79.5765625 45.30703125 78.6 45.05 78.6 45.15 78.6 45.25
L 78.6 45.3
Q 78.7 45.6 78.75 45.9 78.85 46.05 78.95 46.2 79.2 46.55 79.45 46.85 79.9888671875 48.4666015625 80.55 50.05 81.446484375 52.647265625 82.4 55.2 83.65 58.4 85.5 61.25 85.55 61.4 85.6 61.6 85.6 62.05 85.6 62.5 85.6 62.65 85.6 62.8 83.1357421875 63.7521484375 80.55 64.55 73.9017578125 66.6900390625 66.45 67.95 66.55 68.1 66.7 68.2 66.8 68.3 66.85 68.4 67.35 68.4 67.85 68.5
L 67.85 68.6
Q 67.9 69.1 67.75 69.6 72.5 73.7 76.45 78.7 78 80.75 79.05 83 76.55 84.65 72.4 85 67.55 85.35 63.1 85.4 62.5 85.6 61.9 85.9 61.85 86 61.85 86.1 61.8 86.3 61.8 86.5 61.85 86.7 61.85 86.9 61.85 87 61.85 87.1 62.2 87.1 62.6 87.15
L 62.6 87.25
Q 62.6 87.4 62.6 87.5 62.6 88.4 62.6 89.25 62.6 89.5 62.6 89.75 62.65 89.85 62.7 89.95 62.75 90.1 62.85 90.2 62.85 90.35 62.85 90.5 62.95 90.65 63 90.85 63.05 91 63.1 91.15 63.1 91.3 63.1 91.5 63.1 92.25 63.1 93 63.1 93.3 63.1 93.65 64.05 95.35 64.65 97.3 65.25 99.4 66.35 101.3 66.35 101.45 66.4 101.6 66.4 101.9 66.45 102.25 67.35 102.8 67.8 103.8 68.45 105.2 69.55 106.2 69.6 106.4 69.6 106.55 69.65 106.7 69.65 106.85 74.2626953125 113.2390625 80.55 117.9 85.23515625 121.3521484375 90.85 123.85 119.209375 136.510546875 149.9 135.15 152.5416015625 135.021875 155.2 134.8 164.3 134 173 130.8 185.05 126.35 195.1 118.2 195.2 118.05 195.3 117.9 195.85 117.05 196.8 116.65 198 115.4 199 113.9 200 112.5 201.35 111.45 201.6 111 201.85 110.55 202.55 109.25 203.5 108.05 203.7 106.75 204.35 105.6 205.3 104.05 205.45 102.25 207.25 98.4 208.25 94.2 208.95 91.1 210.15 88.1 210.15 87.2 210.15 86.25 210.15 84.55 210.15 82.9 210.15 82.7 210.15 82.55 199.9 80.95 189.65 79.6 189.65 79.45 189.7 79.35 190.15 78.6 190.8 78.05 190.9 77.95 191 77.85 191.05 77.8 191.1 77.8 191.6 77.65 192.1 77.55 192.15 77.4 192.25 77.3 192.85 76.65 193.55 76.1 193.95 76 194.35 75.9 195.3 74.85 196.65 74.4 197.8 74.05 198.75 73.35 201.2 72.9 203.3 71.75 203.85 71.45 204.6 71.1 196.95 66.1 189.25 62.9 190.9 60.65 192.75 58.05 193.95 56.35 195.2 54.6 195.25 54.45 195.25 54.3 195.35 53.85 195.4 53.4 195.55 53.25 195.7 53.15 195.05 51.6 194.85 50 195.15 50 195.45 50.05 195.35 49.95 195.3 49.9
L 195.3 49.85
Q 194.15 49.65 193.15 49.1 186.05 48.85 179 48.55 179 45.65 179.15 42.75 179.1734375 42.271875 179.15 41.8 179.190234375 39.2611328125 178.6 36.9 178.6 36.75 178.65 36.6
M 162.3 63.95
Q 166.8 63.4 170.85 64.95 172.4 65.55 173.45 66.7 173.5 66.75 173.6 66.75 173.75 66.8 173.9 66.85 174.1 66.9 174.3 66.95 174.35 67.05 174.45 67.15 175.1 67.75 175.75 68.4 176.1 68.8 176.5 69.1 176.55 69.2 176.6 69.3 176.6 69.4 176.65 69.5 176.65 69.7 176.65 69.9 176.8 70 176.85 70.15 176.9 70.2 176.9 70.3 176.9 70.5 176.9 70.7 177 70.8 177.05 70.9 177.1 71 177.2 71.1 177.2 71.2 177.2 71.3 177.2 71.5 177.2 71.7 177.2 72 177.2 72.25 177.2 72.35 177.2 72.45 177.15 72.55 177.1 72.65 176.85 73.45 176.25 74.2 175.55 75.1 174.6 75.8 165.6 78.85 156.7 76.9 153.6 76.2 152.4 73.3 152.3 73.2 152.2 73.1 152.1 73 152.05 72.9 151.8 72.65 151.6 72.35 151.6 72.25 151.6 72.15 151.6 71.65 151.6 71.15 151.6 70.65 151.6 70.15 151.6 69.8 151.6 69.4 151.7 69.3 151.75 69.2 151.8 69.1 151.85 69 151.9 68.9 151.95 68.8 153 67.7 154.3 66.9 158 64.55 162.3 63.95
M 192 91.6
Q 192.1 91.5 192.15 91.4 192.2 91.3 192.3 91.25 192.4 91.15 192.5 91.1
L 192.5 91.05
Q 193.5 91.15 194.45 91.35 194.5 91.35 194.5 91.45 194.5 91.55 194.45 91.65 194.4 92.05 194.1 92.3 193.8 92.55 193.5 92.85 193.45 92.95 193.45 93.05 193.4 93.15 193.35 93.25 193.35 93.35 193.3 93.45 193.2 93.55 193.1 93.6 192.6 93.9 192.25 94.3 191.9 94.75 191.45 95.2 191.45 95.3 191.4 95.4 191.35 95.5 191.3 95.6 191.25 95.7 191.2 95.8 184.45 102.55 176.05 107.1 166.75 112.2 156.45 114.6 153.218359375 115.3603515625 149.9 115.75 148.854296875 115.8662109375 147.8 115.95 126.45 117.65 106.25 110.4 96.05 106.7 90.55 97.75 89.15 95.55 87.7 93.35 87.7 93.25 87.7 93.15 87.65 93 87.65 92.8 87.65 92.7 87.65 92.6 87.65 92.5 87.65 92.4 87.6 92.3 87.55 92.2 87.45 92 87.4 91.8 87.4 91.7 87.4 91.6 87.35 91.5 87.3 91.4 87.25 91.3 87.15 91.2 87.15 91.1 87.15 91 87.15 90.8 87.15 90.6 87.15 90.5 87.15 90.4 87.15 90.3 87.15 90.25 87.2 90.15 87.25 90.1 88.5 90.15 89.7 90.15 90.25 90.75 91 91.1 92.5 91.8 93.9 92.8 94.05 92.85 94.2 92.85 95.45 92.95 96.35 93.7 96.45 93.8 96.55 93.9 96.75 93.95 96.9 94 97.25 94.1 97.55 94.15 97.65 94.25 97.75 94.35 97.9 94.55 98 94.75 98.1 94.85 98.15 94.95 98.2 95 98.3 95.05 98.75 95.15 99.2 95.2 108.25 101 118.95 102.7 134.398046875 105.1583984375 149.9 104 155.5212890625 103.5916015625 161.15 102.7 164 102.25 166.9 101.7 177.45 99.6 186.95 94.8 187.05 94.7 187.15 94.6 187.2 94.5 187.25 94.4 188.25 94.05 189.15 93.55 190.65 92.65 192 91.6
M 115 67.7
Q 115.05 67.75 115.15 67.8 115.2 67.85 115.3 67.9 115.5 67.95 115.65 68 115.7 68.1 115.75 68.2 115.85 68.3 115.9 68.4 116.05 68.6 116.25 68.8 116.35 68.9 116.45 69 116.55 69.1 116.7 69.2 116.75 69.3 116.8 69.4 116.85 69.5 116.9 69.6 116.9 69.7 116.95 69.8 117.05 69.9 117.15 70 117.25 70.05 117.35 70.15 117.5 70.25 117.6 70.35 117.65 70.45 117.75 70.55 117.75 70.65 117.8 70.75 117.85 70.85 117.85 70.95 117.9 71.15 117.95 71.35 117.95 71.45 117.95 71.55 117.95 71.65 117.95 71.75 117.95 71.85 118 71.9 118.05 72.05 118.1 72.15 118.15 72.25 118.2 72.35 118.2 72.45 118.2 72.55 118.2 72.65 118.2 72.75 118.2 72.9 118.2 73.1 118.2 73.2 118.2 73.3 118.2 73.4 118.2 73.5 118.2 73.8 118.2 74.1 118.2 74.2 118.2 74.3 118.15 74.4 118.1 74.5 118.05 74.6 118 74.7 117.95 74.8 117.95 74.9 117.95 75 117.95 75.1 117.95 75.2 117.95 75.3 117.95 75.4 117.95 75.5 117.9 75.6 117.85 75.65 117.8 75.75 117.75 75.85 117.5 76.15 117.25 76.5 117 76.9 116.6 77.25 116.2 77.6 115.85 77.95 107.5 80.65 98.75 78.95 94.1 78 91.45 74.25 91.35 74.15 91.2 74.05 91.1 73.95 91 73.85 90.95 73.75 90.85 73.65 90.85 73.55 90.8 73.45 90.8 73.35 90.8 73.25 90.8 73.05 90.8 72.85 90.8 72.75 90.8 72.65 90.8 72.55 90.8 72.45 90.8 72.15 90.8 71.9 90.8 71.8 90.8 71.7 91.4 70 92.75 68.9 97.55 65.05 103.65 64.8 108.05 64.6 112.15 66.05 113.45 66.55 114.65 67.3 114.75 67.4 114.85 67.5 114.9 67.6 115 67.7 Z" stroke="none" fill="#FDDF5E"></path>

<path d="M 114.95 70.3
Q 114.8 70.1 114.7 69.9 114.65 69.8 114.5 69.75 114.2 69.5 114 69.15 113.85 68.95 113.75 68.75 113.65 68.65 113.55 68.6 113.35 68.55 113.15 68.45 113.05 68.35 113 68.25 112.9 68.15 112.9 68.05 108.7 65.35 103.65 65.8 98.45 66.25 94.5 69.7 93.05 70.95 92.75 72.75 94.6 75.85 98.05 77.35 101.05 78.6 103.25 78.05 104.75 77.65 106.05 78.3 112.05 79.5 115.55 75.4 115.75 75.2 115.9 75 115.95 74.9 115.95 74.8 115.95 74.55 116 74.25 116.05 73.9 116.2 73.6 116.25 73.55 116.25 73.45 116.25 73.35 116.25 73.25 116.25 73.15 116.2 73.05 116.1 72.85 115.95 72.65 115.95 72.55 115.95 72.45 115.95 72.35 115.95 72.25 115.95 72.05 115.95 71.9 115.95 71.8 115.95 71.7 115.95 71.6 115.9 71.5 115.85 71.4 115.8 71.3 115.75 71.2 115.7 71.1 115.6 71 115.45 70.9 115.15 70.65 114.95 70.3
M 172.05 67.55
Q 171.85 67.5 171.6 67.4 169.3 65.35 166.15 64.9 165.51328125 64.808984375 164.85 64.7 164.46328125 64.689453125 164.05 64.65 163.737890625 64.697265625 163.4 64.75 159.488671875 65.470703125 156.15 67.65 154.8 68.5 153.7 69.7 153.55 70.2 153.55 70.7 153.6 71.2 153.6 71.7 153.8 71.95 154 72.25 154.2 72.45 154.35 72.65 154.75 73.95 155.85 74.9 156.5 75.45 157.25 76 157.4 76.05 157.5 76.15 165.2 77.45 172.7 75.1 173.75 74.35 174.5 73.25 174.65 73 174.9 72.75 174.9 72.55 175 72.35 175.05 72.15 175.15 71.95 175.1 71.55 175.05 71.15 175 70.8 174.7 70.55 174.7 70.45 174.7 70.35 174.7 70.25 174.65 70.15 174.65 70.05 174.6 70 173.9 69 172.85 68.25 172.55 68.05 172.45 67.7 172.25 67.6 172.05 67.55 Z" stroke="none" fill="#EEDC7F"></path>
</g>
</g>
</g>
</g>
</svg>
