
<svg viewBox="0 0 272 172" height="172px" width="272px" y="0px" x="0px" preserveAspectRatio="none" xmlns:xlink="http://www.w3.org/1999/xlink" version="1.1" xmlns="http://www.w3.org/2000/svg">
<defs></defs>

<g id="Layer_2">
<g>
<g>
<g>
<path d="M 63.3 146.4
Q 63.3 146.55 63.3 146.65 63.3 148.35 63.9 149.85 63.9462890625 152.0763671875 64.4 154.25 66.158203125 154.2623046875 67.9 154.25 67.7474609375 154.0357421875 67.6 153.8 67.3 152.8 66.75 151.8 65.85 150.25 64.4 149.2 64.35 149.05 64.35 148.9 64.3 148.6 64.3 148.25 63.7 147.35 63.3 146.4
M 173.75 152.75
Q 175.0763671875 152.0890625 176.35 151.35 182.95 147.55 188.4 142.2 174.35 148.6 158.7 150.45 154.289453125 150.98046875 149.9 151.2 130.701171875 152.3416015625 111.9 148.15 106.35 146.9 101.3 144.35 98.75 143.05 96.3 142.1 96.05 141.8 95.9 141.5 95.8 141.4 95.7 141.3 95.15 141.1 94.45 140.85 94.4 140.75 94.35 140.65 94.25 140.55 94.15 140.45 93.15 140.05 92.05 139.85 91.05 139 89.9 138.35 89.65 138.25 89.6 138.4 93.7130859375 148.7517578125 103.65 153.85 104.58828125 153.82578125 105.5 153.8 117.8 153.45 130.15 153.45 140.0455078125 153.419921875 149.9 153.25 161.8677734375 153.10859375 173.75 152.75
M 210.85 139.5
Q 210.3 141.4 209.85 143.3 209.05 146.55 207.35 149.4 207.35 149.55 207.35 149.7 207.2 150.15 207.25 150.65 207.25 150.8 207.25 150.95 207.057421875 151.252734375 206.85 151.55 208.7955078125 151.485546875 210.7 151.4 210.8232421875 148.0708984375 211.1 144.75 211.25 142.1 210.85 139.5
M 113.75 115.1
Q 113.65 115 113.55 114.95 113.35 114.9 113.15 114.8 113.05 114.7 113 114.6 112.9 114.5 112.9 114.4 108.7 111.7 103.65 112.15 98.45 112.6 94.5 116.05 93.05 117.3 92.75 119.1 94.6 122.2 98.05 123.7 101.05 124.95 103.25 124.4 104.75 124 106.05 124.65 112.05 125.85 115.55 121.75 115.75 121.55 115.9 121.35 115.95 121.25 115.95 121.15 115.95 120.9 116 120.6 116.05 120.25 116.2 119.95 116.25 119.9 116.25 119.8 116.25 119.7 116.25 119.6 116.25 119.5 116.2 119.4 116.1 119.2 115.95 119 115.95 118.9 115.95 118.8 115.95 118.7 115.95 118.6 115.95 118.4 115.95 118.25 115.95 118.15 115.95 118.05 115.95 117.95 115.9 117.85 115.85 117.75 115.8 117.65 115.75 117.55 115.7 117.45 115.6 117.35 115.45 117.25 115.15 117 114.95 116.65 114.8 116.45 114.7 116.25 114.65 116.15 114.5 116.1 114.2 115.85 114 115.5 113.85 115.3 113.75 115.1
M 166.15 111.25
Q 165.51328125 111.158984375 164.85 111.05 164.46328125 111.039453125 164.05 111 163.737890625 111.047265625 163.4 111.1 159.488671875 111.820703125 156.15 114 154.8 114.85 153.7 116.05 153.55 116.55 153.55 117.05 153.6 117.55 153.6 118.05 153.8 118.3 154 118.6 154.2 118.8 154.35 119 154.75 120.3 155.85 121.25 156.5 121.8 157.25 122.35 157.4 122.4 157.5 122.5 165.2 123.8 172.7 121.45 173.75 120.7 174.5 119.6 174.65 119.35 174.9 119.1 174.9 118.9 175 118.7 175.05 118.5 175.15 118.3 175.1 117.9 175.05 117.5 175 117.15 174.7 116.9 174.7 116.8 174.7 116.7 174.7 116.6 174.65 116.5 174.65 116.4 174.6 116.35 173.9 115.35 172.85 114.6 172.55 114.4 172.45 114.05 172.25 113.95 172.05 113.9 171.85 113.85 171.6 113.75 169.3 111.7 166.15 111.25
M 66.6 119.25
Q 66.6 119.7 66.8 120.05 67.05 123.2 67.4 126.35 67.55 128.05 67.7 129.7 69.35 129.7 71 130.05 71.1 130.05 71.25 130.1 73.8 129.8 76.4 129.45 76.3 127.9 74.55 126.35 73.3 125.2 72.5 123.7 69.9 120.65 66.95 117.95 66.7 118.5 66.55 119.1 66.6 119.2 66.6 119.25
M 79 98.3
Q 78.7 97.4 78.35 96.55 78.2 100.5 78.25 104.45 78.25 107.4 78.4 110.3 79.479296875 110.009375 80.55 109.7 82.05859375 109.2470703125 83.55 108.75 81.9404296875 105.5623046875 80.55 102.2 79.7375 100.29140625 79 98.3
M 196.7 102.65
Q 196.7 102.5 196.65 102.4 195.6 103.8 194.65 105.3 193.65 106.9 192.4 108.35 192.1 108.5 191.85 108.7 191.75 108.8 191.7 108.95 194.05 110 197 111.25 197 111.05 197 110.9 197.15 109.15 196.7 107.55 196.7 106.65 196.7 105.8 196.7 104.2 196.7 102.65
M 204.55 121.95
Q 204.55 120.75 204.55 119.5 203.45 119.95 202.15 120.15 201.4 120.25 200.6 120.4 200.45 120.55 200.3 120.7 200.15 120.85 200 120.95 199.9 121 199.8 121 198.65 121.35 197.55 121.85 197.45 122 197.3 122.1 196.85 122.5 196.4 123 196.3 123.05 196.2 123.05 195.8 123.2 195.4 123.3 195.25 123.45 195.05 123.55 194.35 123.85 194.15 124.5 194.15 124.6 194.1 124.65 193.4 125 192.65 125.25 198.45 126.2 204.55 127.1 204.55 124.55 204.55 121.95 Z" stroke="none" fill="#EE9D33"></path>

<path d="M 192.3 137.6
Q 192.2267578125 137.6365234375 192.15 137.7 192.1634765625 137.7232421875 192.15 137.75 192.1 137.85 192 137.95 190.65 139 189.15 139.9 188.25 140.4 187.25 140.75 187.2 140.85 187.15 140.95 187.05 141.05 186.95 141.15 177.45 145.95 166.9 148.05 164 148.6 161.15 149.05 155.5212890625 149.9416015625 149.9 150.35 134.398046875 151.5083984375 118.95 149.05 108.25 147.35 99.2 141.55 98.75 141.5 98.3 141.4 98.2 141.35 98.15 141.3 98.1 141.2 98 141.1 97.9 140.9 97.75 140.7 97.65 140.6 97.55 140.5 97.25 140.45 96.9 140.35 96.75 140.3 96.55 140.25 96.45 140.15 96.35 140.05 95.45 139.3 94.2 139.2 94.05 139.2 93.9 139.15 92.7408203125 138.3220703125 91.5 137.7 91.258203125 137.5705078125 91 137.45 90.25 137.1 89.7 136.5 88.5 136.5 87.25 136.45 87.2 136.5 87.15 136.6 87.15 136.65 87.15 136.75 87.15 136.85 87.15 136.95 87.15 137.15 87.15 137.35 87.15 137.45 87.15 137.55 87.225 137.625 87.25 137.7 87.2875 137.725 87.3 137.75 87.35 137.85 87.4 137.95 87.4 138.05 87.4 138.15 87.45 138.35 87.55 138.55 87.6 138.65 87.65 138.75 87.65 138.85 87.65 138.95 87.65 139.05 87.65 139.15 87.65 139.35 87.7 139.5 87.7 139.6 87.7 139.7 89.15 141.9 90.55 144.1 94.3359375 150.2609375 100.35 153.9 102.009765625 153.8947265625 103.65 153.85 93.7130859375 148.7517578125 89.6 138.4 89.65 138.25 89.9 138.35 91.05 139 92.05 139.85 93.15 140.05 94.15 140.45 94.25 140.55 94.35 140.65 94.4 140.75 94.45 140.85 95.15 141.1 95.7 141.3 95.8 141.4 95.9 141.5 96.05 141.8 96.3 142.1 98.75 143.05 101.3 144.35 106.35 146.9 111.9 148.15 130.701171875 152.3416015625 149.9 151.2 154.289453125 150.98046875 158.7 150.45 174.35 148.6 188.4 142.2 182.95 147.55 176.35 151.35 175.0763671875 152.0890625 173.75 152.75 175.6041015625 152.729296875 177.4 152.65 185.0078125 148.3421875 191.2 142.15 191.25 142.05 191.3 141.95 191.35 141.85 191.4 141.75 191.45 141.65 191.45 141.55 191.9 141.1 192.25 140.65 192.6 140.25 193.1 139.95 193.2 139.9 193.3 139.8 193.35 139.7 193.35 139.6 193.4 139.5 193.45 139.4 193.45 139.3 193.5 139.2 193.8 138.9 194.1 138.65 194.4 138.4 194.45 138 194.5 137.9 194.5 137.8 194.5 137.7015625 194.45 137.7 193.5 137.5 192.5 137.4
L 192.5 137.45
Q 192.4 137.5 192.3 137.6
M 116.7 115.55
Q 116.55 115.45 116.45 115.35 116.35 115.25 116.25 115.15 116.05 114.95 115.9 114.75 115.85 114.65 115.75 114.55 115.7 114.45 115.65 114.35 115.5 114.3 115.3 114.25 115.2 114.2 115.15 114.15 115.05 114.1 115 114.05 114.9 113.95 114.85 113.85 114.75 113.75 114.65 113.65 113.45 112.9 112.15 112.4 108.05 110.95 103.65 111.15 97.55 111.4 92.75 115.25 91.4 116.35 90.8 118.05 90.8 118.15 90.8 118.25 90.8 118.5 90.8 118.8 90.8 118.9 90.8 119 90.8 119.1 90.8 119.2 90.8 119.4 90.8 119.6 90.8 119.7 90.8 119.8 90.85 119.9 90.85 120 90.95 120.1 91 120.2 91.1 120.3 91.2 120.4 91.35 120.5 91.45 120.6 94.1 124.35 98.75 125.3 107.5 127 115.85 124.3 116.2 123.95 116.6 123.6 117 123.25 117.25 122.85 117.5 122.5 117.75 122.2 117.8 122.1 117.85 122 117.9 121.95 117.95 121.85 117.95 121.75 117.95 121.65 117.95 121.55 117.95 121.45 117.95 121.35 117.95 121.25 117.95 121.15 118 121.05 118.05 120.95 118.1 120.85 118.15 120.75 118.2 120.65 118.2 120.55 118.2 120.45 118.2 120.15 118.2 119.85 118.2 119.75 118.2 119.65 118.2 119.55 118.2 119.45 118.2 119.25 118.2 119.1 118.2 119 118.2 118.9 118.2 118.8 118.2 118.7 118.15 118.6 118.1 118.5 118.05 118.4 118 118.25 117.95 118.2 117.95 118.1 117.95 118 117.95 117.9 117.95 117.8 117.95 117.7 117.9 117.5 117.85 117.3 117.85 117.2 117.8 117.1 117.75 117 117.75 116.9 117.65 116.8 117.6 116.7 117.5 116.6 117.35 116.5 117.25 116.4 117.15 116.35 117.05 116.25 116.95 116.15 116.9 116.05 116.9 115.95 116.85 115.85 116.8 115.75 116.75 115.65 116.7 115.55
M 113.55 114.95
Q 113.65 115 113.75 115.1 113.85 115.3 114 115.5 114.2 115.85 114.5 116.1 114.65 116.15 114.7 116.25 114.8 116.45 114.95 116.65 115.15 117 115.45 117.25 115.6 117.35 115.7 117.45 115.75 117.55 115.8 117.65 115.85 117.75 115.9 117.85 115.95 117.95 115.95 118.05 115.95 118.15 115.95 118.25 115.95 118.4 115.95 118.6 115.95 118.7 115.95 118.8 115.95 118.9 115.95 119 116.1 119.2 116.2 119.4 116.25 119.5 116.25 119.6 116.25 119.7 116.25 119.8 116.25 119.9 116.2 119.95 116.05 120.25 116 120.6 115.95 120.9 115.95 121.15 115.95 121.25 115.9 121.35 115.75 121.55 115.55 121.75 112.05 125.85 106.05 124.65 104.75 124 103.25 124.4 101.05 124.95 98.05 123.7 94.6 122.2 92.75 119.1 93.05 117.3 94.5 116.05 98.45 112.6 103.65 112.15 108.7 111.7 112.9 114.4 112.9 114.5 113 114.6 113.05 114.7 113.15 114.8 113.35 114.9 113.55 114.95
M 170.85 111.3
Q 166.8 109.75 162.3 110.3 158 110.9 154.3 113.25 153 114.05 151.95 115.15 151.9 115.25 151.85 115.35 151.8 115.45 151.75 115.55 151.7 115.65 151.6 115.75 151.6 116.15 151.6 116.5 151.6 117 151.6 117.5 151.6 118 151.6 118.5 151.6 118.6 151.6 118.7 151.8 119 152.05 119.25 152.1 119.35 152.2 119.45 152.3 119.55 152.4 119.65 153.6 122.55 156.7 123.25 165.6 125.2 174.6 122.15 175.55 121.45 176.25 120.55 176.85 119.8 177.1 119 177.15 118.9 177.2 118.8 177.2 118.7 177.2 118.6 177.2 118.35 177.2 118.05 177.2 117.85 177.2 117.65 177.2 117.55 177.2 117.45 177.1 117.35 177.05 117.25 177 117.15 176.9 117.05 176.9 116.85 176.9 116.65 176.9 116.55 176.85 116.5 176.8 116.35 176.65 116.25 176.65 116.05 176.65 115.85 176.6 115.75 176.6 115.65 176.55 115.55 176.5 115.45 176.1 115.15 175.75 114.75 175.1 114.1 174.45 113.5 174.35 113.4 174.3 113.3 174.1 113.25 173.9 113.2 173.75 113.15 173.6 113.1 173.5 113.1 173.45 113.05 172.4 111.9 170.85 111.3
M 164.85 111.05
Q 165.51328125 111.158984375 166.15 111.25 169.3 111.7 171.6 113.75 171.85 113.85 172.05 113.9 172.25 113.95 172.45 114.05 172.55 114.4 172.85 114.6 173.9 115.35 174.6 116.35 174.65 116.4 174.65 116.5 174.7 116.6 174.7 116.7 174.7 116.8 174.7 116.9 175 117.15 175.05 117.5 175.1 117.9 175.15 118.3 175.05 118.5 175 118.7 174.9 118.9 174.9 119.1 174.65 119.35 174.5 119.6 173.75 120.7 172.7 121.45 165.2 123.8 157.5 122.5 157.4 122.4 157.25 122.35 156.5 121.8 155.85 121.25 154.75 120.3 154.35 119 154.2 118.8 154 118.6 153.8 118.3 153.6 118.05 153.6 117.55 153.55 117.05 153.55 116.55 153.7 116.05 154.8 114.85 156.15 114 159.488671875 111.820703125 163.4 111.1 163.737890625 111.047265625 164.05 111 164.46328125 111.039453125 164.85 111.05
M 180.55 81.7
Q 180.25 81.45 180 81.1 179.9 80.95 179.7 80.8 170.1 81.85 161 84.6 160.95 84.3 160.8 84.1 160.75 83.9 160.55 83.75 160.55 83.6 160.55 83.45 160.35 83 160.2 82.5 160.15 82.4 160.15 82.25 159.95 81.9 159.8 81.6 159.75 81.45 159.75 81.3 159.75 81.15 159.75 81 159.95 79.25 159.6 77.55 159.4 76.65 158.95 75.75 158.95 75.45 158.95 75.15 158.95 75 158.95 74.85 158.9 74.7 158.8 74.6 158.45 74.15 158.5 73.6 158.55 73.45 158.55 73.3 158.5 73.15 158.4 73.05 158.25 72.85 158.1 72.7 158.05 72.4 157.95 72.1 157.85 71.95 157.7 71.8 156.4 71.75 155.05 71.75 154.9 71.8 154.75 71.9 154.2 72.3 153.7 72.8 153.5 72.95 153.3 73.1 151.591015625 73.8080078125 149.9 74.55 144.6642578125 76.8912109375 139.6 79.65 139.05 79.7 138.55 79.65 138.5 79.65 138.45 79.55 138.15 78.55 137.25 78 137.05 77.85 136.9 77.7 136.85 77.55 136.8 77.4 136.75 77.25 136.7 77.1 136.3 76.8 135.9 76.45 135.75 76.35 135.6 76.2 134.9 75 134.35 73.75 134.1 73.05 133.55 72.5 133.55 72.35 133.5 72.2 132.95 70.9 132 69.75 131.55 69.2 131.4 68.5 131.1 68.4 130.8 68.25 130.75 68.25 130.65 68.2 130.55 68.1 130.5 68 130.35 67.85 130.25 67.7 129.15 67.65 128 67.6 125.5 69.25 123.3 71.65 118.5 76.9 114.6 82.55 114.1 82.15 113.5 81.8 107.35 78.1 101.7 73.5 101.15 73.35 100.6 73.15 100.4 73.1 100.25 73 99.2 72.95 98.1 73 98 73 97.9 73.1 97.95 73.65 97.65 74.05 97.55 74.2 97.5 74.35 97.5 74.65 97.5 74.95 97.25 79.1 97.2 83.25 97.1 88.45 97.1 93.7 91.85 93.35 86.8 91.7 83.539453125 90.6580078125 80.55 90.65 79.0927734375 90.654296875 77.7 90.9 77.15 90.85 76.65 90.85 76.65 91 76.65 91.15 76.4 91.2 76.2 91.25 76.4 91.65 76.55 92.1 76.35 94.85 76.35 97.65 76.35 104.2 76.35 110.75 74.4 111.15 72.45 111.45 67.4 112.2 64.3 114.5 64.75 115.45 65.35 116.25 65.05 117.1 64.8 118 64.35 119.4 64.85 120.7 64.95 123.1 65.25 125.45 65.6 127.6 65.65 129.8 65.25 129.85 64.85 129.9 62.6 130.55 60.25 131.3 60.15 131.35 60 131.4 59.95 131.45 59.95 131.55 59.25 131.6 58.6 131.7 59.2 131.7 59.85 131.75 59.8 131.75 59.75 131.8 59.65 131.9 59.6 132 59.6 132.1 59.6 132.2 59.6 132.3 59.6 132.4 59.6 132.5 59.6 132.6 59.6 132.65 59.6 132.7 59.55 132.7 59.45 132.75 59.4 132.75 59.4 132.9 59.4 133.05 59.4 133.2 59.4 133.7 59.4 134.15 59.4 134.3 59.4 134.45 59.9 134.8 59.85 135.35 59.8 135.5 59.8 135.7 60.05 136 60.3 136.3 60.45 136.45 60.55 136.6 60.6 136.75 60.6 136.9 60.6 137.350390625 60.8 137.7 60.845703125 137.7775390625 60.9 137.85 60.85 139.4 60.75 140.9 60.65 143.1 61.3 145.1 61.5 146.7 61.45 148.3 61.4 149.45 61.95 150.5 61.997265625 152.390234375 62.45 154.2 63.4349609375 154.2439453125 64.4 154.25 63.9462890625 152.0763671875 63.9 149.85 63.3 148.35 63.3 146.65 63.3 146.55 63.3 146.4 63.7 147.35 64.3 148.25 64.3 148.6 64.35 148.9 64.35 149.05 64.4 149.2 65.85 150.25 66.75 151.8 67.3 152.8 67.6 153.8 67.7474609375 154.0357421875 67.9 154.25 69.172265625 154.2734375 70.45 154.25 70.0427734375 153.744140625 69.65 153.2 69.65 153.05 69.6 152.9 69.6 152.75 69.55 152.55 68.45 151.55 67.8 150.15 67.35 149.15 66.45 148.6 66.4 148.25 66.4 147.95 66.35 147.8 66.35 147.65 65.25 145.75 64.65 143.65 64.05 141.7 63.1 140 63.1 139.65 63.1 139.35 63.1 138.6 63.1 137.85 63.1 137.77109375 63.1 137.7 63.1 137.5908203125 63.1 137.5 63.05 137.35 63 137.2 62.95 137 62.85 136.85 62.85 136.7 62.85 136.55 62.75 136.45 62.7 136.3 62.65 136.2 62.6 136.1 62.6 135.85 62.6 135.6 62.6 134.75 62.6 133.85 62.6 133.75 62.6 133.6
L 62.6 133.5
Q 62.2 133.45 61.85 133.45 61.85 133.35 61.85 133.25 61.85 133.05 61.8 132.85 61.8 132.65 61.85 132.45 61.85 132.35 61.9 132.25 62.5 131.95 63.1 131.75 67.55 131.7 72.4 131.35 76.55 131 79.05 129.35 78 127.1 76.45 125.05 72.5 120.05 67.75 115.95 67.9 115.45 67.85 114.95
L 67.85 114.85
Q 67.35 114.75 66.85 114.75 66.8 114.65 66.7 114.55 66.55 114.45 66.45 114.3 73.9017578125 113.0400390625 80.55 110.9 83.1357421875 110.1021484375 85.6 109.15 85.6 109 85.6 108.85 85.6 108.4 85.6 107.95 85.55 107.75 85.5 107.6 83.65 104.75 82.4 101.55 81.446484375 98.997265625 80.55 96.4 79.9888671875 94.8166015625 79.45 93.2 79.2 92.9 78.95 92.55 78.85 92.4 78.75 92.25 78.7 91.95 78.6 91.65
L 78.6 91.6
Q 78.6 91.5 78.6 91.4 79.5765625 91.65703125 80.55 91.9 89.99375 94.1734375 99.15 94.4 99.15 94.1 99.15 93.8 99.15 89.65 99.1 85.5 99.05 79.8 99.85 74.45 100.6 74.95 101.35 75.45 103.5 76.95 105.7 78.35 106.2 79 106.85 79.5 110.05 81.65 113.25 83.65 115.05 83.5 116.85 83.35 118.1 81.1 119.65 79.05 123.65 73.75 128.5 69.2 128.95 69.15 129.35 69.2 129.4 69.2 129.45 69.3 129.5 69.5 129.55 69.6 130.1 70.8 130.95 71.8 131.2 72.1 131.4 72.4 131.45 72.55 131.45 72.7 131.5 72.85 131.5 73 132.45 74.1 132.9 75.45 133.15 76.1 133.45 76.7 134.15 77.25 134.7 78 134.75 78.1 134.75 78.25 135.75 79 136.35 80.1 136.4 80.25 136.4 80.4 136.75 80.5 137.1 80.6 137.2 80.65 137.25 80.7 137.3 80.8 137.35 80.9 137.5 81.05 137.65 81.2 138.85 81.25 140.1 81.25
L 140.1 81.2
Q 144.9904296875 78.3703125 149.9 76.05 152.9712890625 74.6314453125 156.05 73.4 156.55 73.75 156.5 74.35 156.5 74.5 156.5 74.65 156.6 74.8 156.7 74.95 156.8 75.1 156.9 75.25 156.9 75.7 156.9 76.2 156.9 76.35 156.9 76.5 157.05 76.8 157.1 77.1 157.25 78.05 157.55 78.95 157.6 79.1 157.7 79.25 157.7 79.7 157.7 80.2 157.7 80.95 157.7 81.7 157.7 81.85 157.7 82 157.9 82.5 158.05 82.95 158.1 83.1 158.1 83.25 158.2 83.4 158.3 83.55 158.6 84.5 159.05 85.4 159.15 85.55 159.25 85.7 168.85 83.9 178.2 82 178.8 82.3 178.65 82.95 178.6 83.1 178.6 83.25 179.3 86.05 179.15 89.1 179 92 179 94.9 186.05 95.2 193.15 95.45 194.15 96 195.3 96.2
L 195.3 96.25
Q 195.35 96.3 195.45 96.4 195.15 96.35 194.85 96.35 195.05 97.95 195.7 99.5 195.55 99.6 195.4 99.75 195.35 100.2 195.25 100.65 195.25 100.8 195.2 100.95 193.95 102.7 192.75 104.4 190.9 107 189.25 109.25 196.95 112.45 204.6 117.45 203.85 117.8 203.3 118.1 201.2 119.25 198.75 119.7 197.8 120.4 196.65 120.75 195.3 121.2 194.35 122.25 193.95 122.35 193.55 122.45 192.85 123 192.25 123.65 192.15 123.75 192.1 123.9 191.6 124 191.1 124.15 191.05 124.15 191 124.2 190.9 124.3 190.8 124.4 190.15 124.95 189.7 125.7 189.65 125.8 189.65 125.95 199.9 127.3 210.15 128.9 210.15 129.05 210.15 129.25 210.15 130.9 210.15 132.6 210.15 133.55 210.15 134.45 209.5056640625 136.060546875 209 137.7 208.57421875 139.1142578125 208.25 140.55 207.25 144.75 205.45 148.6 205.312890625 150.244921875 204.5 151.65 205.683203125 151.6240234375 206.85 151.55 207.057421875 151.252734375 207.25 150.95 207.25 150.8 207.25 150.65 207.2 150.15 207.35 149.7 207.35 149.55 207.35 149.4 209.05 146.55 209.85 143.3 210.3 141.4 210.85 139.5 211.25 142.1 211.1 144.75 210.8232421875 148.0708984375 210.7 151.4 211.6583984375 151.346484375 212.6 151.3 212.6 150.7275390625 212.6 150.15 213.3 146.95 213.1 143.55 212.937109375 140.61953125 212.75 137.7 212.5638671875 134.3427734375 212.35 131 212.35 130.9 212.35 130.85 212.25 130.85 212.2 130.85 212.2 129.55 212.2 128.2 209.35 127.8 206.55 127.4 206.55 125.5 206.55 123.6 206.55 120.95 206.55 118.35 206.9 118 207.25 117.65 204.7 114.55 200.75 112.85 199.85 112.45 198.95 112.1 198.95 110.65 199 109.2 199.05 108.05 198.65 107.05 198.65 105.35 198.75 103.7 198.8 102.55 198.4 101.5 198.5 100.45 198.2 99.5 198.4 99.15 198.55 98.8 198.6 98.65 198.65 98.5 198.65 98.2 198.65 97.9 198.65 97.3 198.65 96.65 198.6 96.5 198.55 96.35 198.2 96.25 197.85 96.15 197.85 96.1 197.8 96.1 197.7 95.95 197.55 95.8 197.45 95.7 197.35 95.55 196.4 95.25 195.5 94.9 195.25 94.8 195 94.7 188 94.45 181.05 94.2 181.05 91.45 181.05 88.7 181.05 86.05 181.05 83.45 181 83.3 180.9 83.2 180.6 82.75 180.65 82.2 180.65 82.05 180.65 81.9 180.65 81.75 180.55 81.7
M 204.55 119.5
Q 204.55 120.75 204.55 121.95 204.55 124.55 204.55 127.1 198.45 126.2 192.65 125.25 193.4 125 194.1 124.65 194.15 124.6 194.15 124.5 194.35 123.85 195.05 123.55 195.25 123.45 195.4 123.3 195.8 123.2 196.2 123.05 196.3 123.05 196.4 123 196.85 122.5 197.3 122.1 197.45 122 197.55 121.85 198.65 121.35 199.8 121 199.9 121 200 120.95 200.15 120.85 200.3 120.7 200.45 120.55 200.6 120.4 201.4 120.25 202.15 120.15 203.45 119.95 204.55 119.5
M 196.65 102.4
Q 196.7 102.5 196.7 102.65 196.7 104.2 196.7 105.8 196.7 106.65 196.7 107.55 197.15 109.15 197 110.9 197 111.05 197 111.25 194.05 110 191.7 108.95 191.75 108.8 191.85 108.7 192.1 108.5 192.4 108.35 193.65 106.9 194.65 105.3 195.6 103.8 196.65 102.4
M 78.35 96.55
Q 78.7 97.4 79 98.3 79.7375 100.29140625 80.55 102.2 81.9404296875 105.5623046875 83.55 108.75 82.05859375 109.2470703125 80.55 109.7 79.479296875 110.009375 78.4 110.3 78.25 107.4 78.25 104.45 78.2 100.5 78.35 96.55
M 66.8 120.05
Q 66.6 119.7 66.6 119.25 66.6 119.2 66.55 119.1 66.7 118.5 66.95 117.95 69.9 120.65 72.5 123.7 73.3 125.2 74.55 126.35 76.3 127.9 76.4 129.45 73.8 129.8 71.25 130.1 71.1 130.05 71 130.05 69.35 129.7 67.7 129.7 67.55 128.05 67.4 126.35 67.05 123.2 66.8 120.05 Z" stroke="none" fill="#000000"></path>

<path d="M 178.65 82.95
Q 178.8 82.3 178.2 82 168.85 83.9 159.25 85.7 159.15 85.55 159.05 85.4 158.6 84.5 158.3 83.55 158.2 83.4 158.1 83.25 158.1 83.1 158.05 82.95 157.9 82.5 157.7 82 157.7 81.85 157.7 81.7 157.7 80.95 157.7 80.2 157.7 79.7 157.7 79.25 157.6 79.1 157.55 78.95 157.25 78.05 157.1 77.1 157.05 76.8 156.9 76.5 156.9 76.35 156.9 76.2 156.9 75.7 156.9 75.25 156.8 75.1 156.7 74.95 156.6 74.8 156.5 74.65 156.5 74.5 156.5 74.35 156.55 73.75 156.05 73.4 152.9712890625 74.6314453125 149.9 76.05 144.9904296875 78.3703125 140.1 81.2
L 140.1 81.25
Q 138.85 81.25 137.65 81.2 137.5 81.05 137.35 80.9 137.3 80.8 137.25 80.7 137.2 80.65 137.1 80.6 136.75 80.5 136.4 80.4 136.4 80.25 136.35 80.1 135.75 79 134.75 78.25 134.75 78.1 134.7 78 134.15 77.25 133.45 76.7 133.15 76.1 132.9 75.45 132.45 74.1 131.5 73 131.5 72.85 131.45 72.7 131.45 72.55 131.4 72.4 131.2 72.1 130.95 71.8 130.1 70.8 129.55 69.6 129.5 69.5 129.45 69.3 129.4 69.2 129.35 69.2 128.95 69.15 128.5 69.2 123.65 73.75 119.65 79.05 118.1 81.1 116.85 83.35 115.05 83.5 113.25 83.65 110.05 81.65 106.85 79.5 106.2 79 105.7 78.35 103.5 76.95 101.35 75.45 100.6 74.95 99.85 74.45 99.05 79.8 99.1 85.5 99.15 89.65 99.15 93.8 99.15 94.1 99.15 94.4 89.99375 94.1734375 80.55 91.9 79.5765625 91.65703125 78.6 91.4 78.6 91.5 78.6 91.6
L 78.6 91.65
Q 78.7 91.95 78.75 92.25 78.85 92.4 78.95 92.55 79.2 92.9 79.45 93.2 79.9888671875 94.8166015625 80.55 96.4 81.446484375 98.997265625 82.4 101.55 83.65 104.75 85.5 107.6 85.55 107.75 85.6 107.95 85.6 108.4 85.6 108.85 85.6 109 85.6 109.15 83.1357421875 110.1021484375 80.55 110.9 73.9017578125 113.0400390625 66.45 114.3 66.55 114.45 66.7 114.55 66.8 114.65 66.85 114.75 67.35 114.75 67.85 114.85
L 67.85 114.95
Q 67.9 115.45 67.75 115.95 72.5 120.05 76.45 125.05 78 127.1 79.05 129.35 76.55 131 72.4 131.35 67.55 131.7 63.1 131.75 62.5 131.95 61.9 132.25 61.85 132.35 61.85 132.45 61.8 132.65 61.8 132.85 61.85 133.05 61.85 133.25 61.85 133.35 61.85 133.45 62.2 133.45 62.6 133.5
L 62.6 133.6
Q 62.6 133.75 62.6 133.85 62.6 134.75 62.6 135.6 62.6 135.85 62.6 136.1 62.65 136.2 62.7 136.3 62.75 136.45 62.85 136.55 62.85 136.7 62.85 136.85 62.95 137 63 137.2 63.05 137.35 63.1 137.5 63.1 137.5908203125 63.1 137.7 63.1 137.77109375 63.1 137.85 63.1 138.6 63.1 139.35 63.1 139.65 63.1 140 64.05 141.7 64.65 143.65 65.25 145.75 66.35 147.65 66.35 147.8 66.4 147.95 66.4 148.25 66.45 148.6 67.35 149.15 67.8 150.15 68.45 151.55 69.55 152.55 69.6 152.75 69.6 152.9 69.65 153.05 69.65 153.2 70.0427734375 153.744140625 70.45 154.25 75.4744140625 154.2830078125 80.55 154.25 90.3546875 154.1708984375 100.35 153.9 94.3359375 150.2609375 90.55 144.1 89.15 141.9 87.7 139.7 87.7 139.6 87.7 139.5 87.65 139.35 87.65 139.15 87.65 139.05 87.65 138.95 87.65 138.85 87.65 138.75 87.6 138.65 87.55 138.55 87.45 138.35 87.4 138.15 87.4 138.05 87.4 137.95 87.35 137.85 87.3 137.75 87.2875 137.725 87.25 137.7 87.225 137.625 87.15 137.55 87.15 137.45 87.15 137.35 87.15 137.15 87.15 136.95 87.15 136.85 87.15 136.75 87.15 136.65 87.15 136.6 87.2 136.5 87.25 136.45 88.5 136.5 89.7 136.5 90.25 137.1 91 137.45 91.258203125 137.5705078125 91.5 137.7 92.7408203125 138.3220703125 93.9 139.15 94.05 139.2 94.2 139.2 95.45 139.3 96.35 140.05 96.45 140.15 96.55 140.25 96.75 140.3 96.9 140.35 97.25 140.45 97.55 140.5 97.65 140.6 97.75 140.7 97.9 140.9 98 141.1 98.1 141.2 98.15 141.3 98.2 141.35 98.3 141.4 98.75 141.5 99.2 141.55 108.25 147.35 118.95 149.05 134.398046875 151.5083984375 149.9 150.35 155.5212890625 149.9416015625 161.15 149.05 164 148.6 166.9 148.05 177.45 145.95 186.95 141.15 187.05 141.05 187.15 140.95 187.2 140.85 187.25 140.75 188.25 140.4 189.15 139.9 190.65 139 192 137.95 192.1 137.85 192.15 137.75 192.1634765625 137.7232421875 192.15 137.7 192.2267578125 137.6365234375 192.3 137.6 192.4 137.5 192.5 137.45
L 192.5 137.4
Q 193.5 137.5 194.45 137.7 194.5 137.7015625 194.5 137.8 194.5 137.9 194.45 138 194.4 138.4 194.1 138.65 193.8 138.9 193.5 139.2 193.45 139.3 193.45 139.4 193.4 139.5 193.35 139.6 193.35 139.7 193.3 139.8 193.2 139.9 193.1 139.95 192.6 140.25 192.25 140.65 191.9 141.1 191.45 141.55 191.45 141.65 191.4 141.75 191.35 141.85 191.3 141.95 191.25 142.05 191.2 142.15 185.0078125 148.3421875 177.4 152.65 191.00078125 152.2826171875 204.5 151.65 205.312890625 150.244921875 205.45 148.6 207.25 144.75 208.25 140.55 208.57421875 139.1142578125 209 137.7 209.5056640625 136.060546875 210.15 134.45 210.15 133.55 210.15 132.6 210.15 130.9 210.15 129.25 210.15 129.05 210.15 128.9 199.9 127.3 189.65 125.95 189.65 125.8 189.7 125.7 190.15 124.95 190.8 124.4 190.9 124.3 191 124.2 191.05 124.15 191.1 124.15 191.6 124 192.1 123.9 192.15 123.75 192.25 123.65 192.85 123 193.55 122.45 193.95 122.35 194.35 122.25 195.3 121.2 196.65 120.75 197.8 120.4 198.75 119.7 201.2 119.25 203.3 118.1 203.85 117.8 204.6 117.45 196.95 112.45 189.25 109.25 190.9 107 192.75 104.4 193.95 102.7 195.2 100.95 195.25 100.8 195.25 100.65 195.35 100.2 195.4 99.75 195.55 99.6 195.7 99.5 195.05 97.95 194.85 96.35 195.15 96.35 195.45 96.4 195.35 96.3 195.3 96.25
L 195.3 96.2
Q 194.15 96 193.15 95.45 186.05 95.2 179 94.9 179 92 179.15 89.1 179.3 86.05 178.6 83.25 178.6 83.1 178.65 82.95
M 162.3 110.3
Q 166.8 109.75 170.85 111.3 172.4 111.9 173.45 113.05 173.5 113.1 173.6 113.1 173.75 113.15 173.9 113.2 174.1 113.25 174.3 113.3 174.35 113.4 174.45 113.5 175.1 114.1 175.75 114.75 176.1 115.15 176.5 115.45 176.55 115.55 176.6 115.65 176.6 115.75 176.65 115.85 176.65 116.05 176.65 116.25 176.8 116.35 176.85 116.5 176.9 116.55 176.9 116.65 176.9 116.85 176.9 117.05 177 117.15 177.05 117.25 177.1 117.35 177.2 117.45 177.2 117.55 177.2 117.65 177.2 117.85 177.2 118.05 177.2 118.35 177.2 118.6 177.2 118.7 177.2 118.8 177.15 118.9 177.1 119 176.85 119.8 176.25 120.55 175.55 121.45 174.6 122.15 165.6 125.2 156.7 123.25 153.6 122.55 152.4 119.65 152.3 119.55 152.2 119.45 152.1 119.35 152.05 119.25 151.8 119 151.6 118.7 151.6 118.6 151.6 118.5 151.6 118 151.6 117.5 151.6 117 151.6 116.5 151.6 116.15 151.6 115.75 151.7 115.65 151.75 115.55 151.8 115.45 151.85 115.35 151.9 115.25 151.95 115.15 153 114.05 154.3 113.25 158 110.9 162.3 110.3
M 116.45 115.35
Q 116.55 115.45 116.7 115.55 116.75 115.65 116.8 115.75 116.85 115.85 116.9 115.95 116.9 116.05 116.95 116.15 117.05 116.25 117.15 116.35 117.25 116.4 117.35 116.5 117.5 116.6 117.6 116.7 117.65 116.8 117.75 116.9 117.75 117 117.8 117.1 117.85 117.2 117.85 117.3 117.9 117.5 117.95 117.7 117.95 117.8 117.95 117.9 117.95 118 117.95 118.1 117.95 118.2 118 118.25 118.05 118.4 118.1 118.5 118.15 118.6 118.2 118.7 118.2 118.8 118.2 118.9 118.2 119 118.2 119.1 118.2 119.25 118.2 119.45 118.2 119.55 118.2 119.65 118.2 119.75 118.2 119.85 118.2 120.15 118.2 120.45 118.2 120.55 118.2 120.65 118.15 120.75 118.1 120.85 118.05 120.95 118 121.05 117.95 121.15 117.95 121.25 117.95 121.35 117.95 121.45 117.95 121.55 117.95 121.65 117.95 121.75 117.95 121.85 117.9 121.95 117.85 122 117.8 122.1 117.75 122.2 117.5 122.5 117.25 122.85 117 123.25 116.6 123.6 116.2 123.95 115.85 124.3 107.5 127 98.75 125.3 94.1 124.35 91.45 120.6 91.35 120.5 91.2 120.4 91.1 120.3 91 120.2 90.95 120.1 90.85 120 90.85 119.9 90.8 119.8 90.8 119.7 90.8 119.6 90.8 119.4 90.8 119.2 90.8 119.1 90.8 119 90.8 118.9 90.8 118.8 90.8 118.5 90.8 118.25 90.8 118.15 90.8 118.05 91.4 116.35 92.75 115.25 97.55 111.4 103.65 111.15 108.05 110.95 112.15 112.4 113.45 112.9 114.65 113.65 114.75 113.75 114.85 113.85 114.9 113.95 115 114.05 115.05 114.1 115.15 114.15 115.2 114.2 115.3 114.25 115.5 114.3 115.65 114.35 115.7 114.45 115.75 114.55 115.85 114.65 115.9 114.75 116.05 114.95 116.25 115.15 116.35 115.25 116.45 115.35 Z" stroke="none" fill="#FDDF5E"></path>
</g>
</g>
</g>
</g>
</svg>
