
<svg viewBox="0 0 112 184" height="184px" width="112px" y="0px" x="0px" preserveAspectRatio="none" xmlns:xlink="http://www.w3.org/1999/xlink" version="1.1" xmlns="http://www.w3.org/2000/svg">
<defs></defs>

<g id="fun_scrollers">
<g transform="matrix( 0.3621063232421875, 0, 0, 0.3621063232421875, -594.2,0.1)" id="svg"></g>

<g transform="matrix( 0.3621063232421875, 0, 0, 0.3621063232421875, -594.2,0.1)" id="Layer_2"></g>

<g transform="matrix( 0.3621063232421875, 0, 0, 0.3621063232421875, -594.2,0.1)" id="Layer_3">
<g>
<g>
<g>
<path d="M 1630.2 287.75
L 1630.2 296.7
Q 1631.151953125 297.05546875 1632.15 297.45 1633.85 298.1 1639.75 300.6
L 1649.5 304.9
Q 1653.05 306.45 1654.75 307.8 1657.45 310.05 1657.6 312.9 1657.65 315.65 1655.25 318.25 1654.4 319.15 1653 320.2 1652.2 320.8 1650.55 321.95 1648.5 323.4 1645.7 325.9
L 1640.95 330.05
Q 1636.2970703125 333.8982421875 1630.2 337.5
L 1630.2 348.4
Q 1634.3673828125 346.1373046875 1637.25 344.3 1642.15 341.3 1647.85 336.9 1651.05 334.4 1657.95 328.75 1660.5 326.7 1661.8 325.3 1663.7 323.25 1664.55 321.1 1665.2 319.55 1665.35 317.45 1665.45 316.3 1665.45 313.6 1665.4 309.35 1664.9 306.95 1664.15 303.35 1662.05 301.3 1660.55 299.9 1657.35 298.45 1645.75 292.95 1639.45 290.65 1634.6537109375 288.88671875 1630.2 287.75 Z" stroke="none" fill="#1A1A1A"></path>
</g>
</g>
</g>
</g>

<g transform="matrix( 0.3621063232421875, 0, 0, 0.3621063232421875, -594.2,0.1)" id="Layer_6">
<g>
<g>
<g>
<path d="M 1818.55 81.95
L 1817.95 81.95 1817.6 81.95 1817.6 86.75 1815.7 86.8
Q 1806.65 91.05 1801.4 94.35 1793.9 99.1 1789.2 104.75 1785.3 110.55 1783.6 117.9 1782.2 124 1782.2 132.2
L 1782.55 181.15
Q 1782.75 192.5 1782.85 214.95
L 1783 233.25
Q 1783.1 249.85 1783.1 252.7 1783.1 263.7 1782.8 272.1 1782.4 281.95 1782.75 294.75 1783.3 318.65 1783.15 336.95 1782.95 366.75 1783.2 385.1
L 1783.45 404.5
Q 1783.55 413.3 1784.8 418.3 1787.4 425.1 1793.55 430.1 1797.2 431.9 1801.5 432.75 1804.9 433.4 1809.8 433.65
L 1876.05 433.85
Q 1892.8 433.95 1899.45 433.7 1912.6 433.25 1922.75 431.35 1928.95 429.65 1933.3 426.4 1935.05078125 425.1330078125 1936.95 423.25
L 1936.95 409.5
Q 1936.296484375 410.8958984375 1935.85 411.5 1935.1 412.7 1932.1 415.8
L 1927.35 420.7 1925.7 424.2 1925.55 424.55
Q 1925.16015625 424.6255859375 1924.75 424.7 1919.9140625 425.5318359375 1911.4 425.9
L 1845.85 427.05
Q 1831.55 427.55 1824.35 427.55 1811.85 427.6 1803 425.85 1799.9 425 1798.3 423.8 1796.65 422.75 1794.6 420.15 1792.2 415.8 1791.15 412.45 1790.05 408.7 1789.95 404.15
L 1789.65 365.8
Q 1789.65 357.65 1789.6 353.6
L 1789.35 280.5
Q 1789.15 223.5 1789.35 201.65 1789.6 184.15 1789.45 171.55
L 1789.15 134.95
Q 1789.05 128.8 1789.2 126.3 1789.45 121.7 1790.7 117.9
L 1792.2 115.15
Q 1800.25 105.4 1803.55 102.75 1806.8 100.1 1818.35 94.2
L 1821.6 92.5
Q 1820.35 92.15 1818.7 91.6
L 1818.35 89.4
Q 1818.35 89.3 1818.55 81.95
M 1918.1 76.4
L 1917.5 76.4
Q 1918.35 81 1918.45 83.15 1918.65 86.7 1917.75 89.85 1913.35 91.1 1911.45 91.4
L 1911.45 91.85
Q 1913.2126953125 92.1125 1914.95 92.75 1915.5626953125 92.95 1916.15 93.2
L 1918.8 94.65
Q 1927.5 99.5 1932.8 106.2 1935.158203125 109.565625 1936.95 113.25
L 1936.95 99.35
Q 1936.3208984375 98.501171875 1935.7 97.75 1931.7 92.85 1926.75 90.3 1922.05 88 1919.6 85.95 1919.3947265625 85.4224609375 1919.2 85 1918.8560546875 83.959375 1918.75 83.5 1918.6 82.9 1918.45 80.85
L 1918.45 78.65 1918.45 76.4 1918.1 76.4 Z" stroke="none" fill="#706C84"></path>

<path d="M 1913.8 37.75
L 1913.85 29.1
Q 1913.9 22.85 1912.75 18.75 1911.45 15.75 1909.55 13.55 1907.8 11.6 1904.95 9.5
L 1901.75 7.65
Q 1895.4755859375 3.8572265625 1889.3 1.95
L 1825.9 1.95
Q 1824.0890625 2.1416015625 1822.3 2.35
L 1818.9 2.8
Q 1811.25 3.7 1806.85 4.55 1800.2 5.75 1795.1 7.65 1794.3 9.3 1794.2 10.45 1794.05 11.55 1794.15 16.5
L 1794.2 19.2
Q 1794.2 21.15 1794.2 25.1 1794.35 28.5 1795.5 30.75 1798.4 32.15 1799.25 32.4 1800.1 32.65 1802.2 32.9
L 1825.35 33.1
Q 1824.2 36.65 1823.7 40.7 1823.25 43.65 1823.05 48.4 1822.7 56.85 1822.4 59.85 1821.7 66.2 1820.15 71.05 1818.4203125 76.1478515625 1817.95 81.95
L 1818.55 81.95
Q 1818.35 89.3 1818.35 89.4
L 1818.7 91.6
Q 1820.35 92.15 1821.6 92.5
L 1818.35 94.2
Q 1818.58046875 94.1232421875 1818.8 94.05 1822.35 92.8 1825.8 92.35
L 1836.1 92.45
Q 1841.05 92.5 1850.95 92.4 1860.1 92.25 1869.25 92.25
L 1906.2 91.9
Q 1908.85 91.8 1909.65 91.85 1910.5 91.9 1912.95 92.2 1913.6 92.45 1914.25 92.75
L 1914.95 92.75
Q 1913.2126953125 92.1125 1911.45 91.85
L 1911.45 91.4
Q 1913.35 91.1 1917.75 89.85 1918.65 86.7 1918.45 83.15 1918.35 81 1917.5 76.4
L 1918.1 76.4
Q 1917.820703125 74.70625 1917.45 73.1 1913.95 57.9 1913.8 37.75
M 1906.2 34.55
Q 1907.05 36.15 1907.35 37.8 1907.4 38.65 1907.5 41.25
L 1907.75 47.45
Q 1908.45 61.65 1911.15 75.05 1912.15 80.65 1911.95 84.5
L 1910.05 86.45
Q 1906.7 86.7 1901.95 86.8
L 1824.45 87.95
Q 1825 80.95 1825.3 79.25 1825.55 77.55 1826.55 74.1 1828.25 67.8 1828.75 57.5 1829.4 44.65 1831.25 36.8
L 1834.05 33.85
Q 1836.2 33.6 1837 33.5 1837.8 33.45 1840.45 33.4
L 1898.3 32.5
Q 1902.6 32.8 1906.2 34.55
M 1905.8 25.3
Q 1905.95 26.1 1906.1 26.9
L 1834.95 29.1 1833.95 26.25 1801.2 25.85
Q 1798.35 19.8 1800 13.35 1845.15 -1.05 1891.35 9.85 1891.4 10.15 1898 14.85 1904.8 20.4 1905.8 25.3
M 1919.2 85
L 1918.9 82.9
Q 1918.73359375 80.7158203125 1918.45 78.65
L 1918.45 80.85
Q 1918.6 82.9 1918.75 83.5 1918.8560546875 83.959375 1919.2 85 Z" stroke="none" fill="#7E1A34"></path>

<path d="M 1906.1 26.9
Q 1905.95 26.1 1905.8 25.3 1904.8 20.4 1898 14.85 1891.4 10.15 1891.35 9.85 1845.15 -1.05 1800 13.35 1798.35 19.8 1801.2 25.85
L 1833.95 26.25 1834.95 29.1 1906.1 26.9 Z" stroke="none" fill="#DF202E"></path>

<path d="M 1907.35 37.8
Q 1907.05 36.15 1906.2 34.55 1902.6 32.8 1898.3 32.5
L 1840.45 33.4
Q 1837.8 33.45 1837 33.5 1836.2 33.6 1834.05 33.85
L 1831.25 36.8
Q 1829.4 44.65 1828.75 57.5 1828.25 67.8 1826.55 74.1 1825.55 77.55 1825.3 79.25 1825 80.95 1824.45 87.95
L 1901.95 86.8
Q 1906.7 86.7 1910.05 86.45
L 1911.95 84.5
Q 1912.15 80.65 1911.15 75.05 1908.45 61.65 1907.75 47.45
L 1907.5 41.25
Q 1907.4 38.65 1907.35 37.8 Z" stroke="none" fill="#E21F2D"></path>

<path d="M 1909.65 91.85
Q 1908.85 91.8 1906.2 91.9
L 1869.25 92.25
Q 1860.1 92.25 1850.95 92.4 1841.05 92.5 1836.1 92.45
L 1825.8 92.35
Q 1822.35 92.8 1818.8 94.05 1818.58046875 94.1232421875 1818.35 94.2 1806.8 100.1 1803.55 102.75 1800.25 105.4 1792.2 115.15
L 1790.7 117.9
Q 1789.45 121.7 1789.2 126.3 1789.05 128.8 1789.15 134.95
L 1789.45 171.55
Q 1789.6 184.15 1789.35 201.65 1789.15 223.5 1789.35 280.5
L 1789.6 353.6
Q 1789.65 357.65 1789.65 365.8
L 1789.95 404.15
Q 1790.05 408.7 1791.15 412.45 1792.2 415.8 1794.6 420.15 1796.65 422.75 1798.3 423.8 1799.9 425 1803 425.85 1811.85 427.6 1824.35 427.55 1831.55 427.55 1845.85 427.05
L 1911.4 425.9
Q 1919.9140625 425.5318359375 1924.75 424.7 1925.240234375 424.47890625 1925.7 424.2
L 1927.35 420.7 1932.1 415.8
Q 1935.1 412.7 1935.85 411.5 1936.296484375 410.8958984375 1936.95 409.5
L 1936.95 113.25
Q 1935.158203125 109.565625 1932.8 106.2 1927.5 99.5 1918.8 94.65
L 1916.15 93.2
Q 1915.5626953125 92.95 1914.95 92.75
L 1914.25 92.75
Q 1913.6 92.45 1912.95 92.2 1910.5 91.9 1909.65 91.85
M 1917.75 215.4
L 1919.95 215.9
Q 1922.1 219.85 1923 226.4
L 1923.8 229.4
Q 1924.25 231.7 1924.3 232.5 1924.35 233.25 1924.45 235.5
L 1923.2 237.9
Q 1915.1 239.6 1903.95 238.25
L 1902.95 236.35
Q 1898.9 236.4 1895 236.6
L 1887 237.1
Q 1884.05 237.3 1869.45 237.85 1859.05 238.35 1853.95 238.7 1847.3 239.1 1839 239.4 1835.15 239.6 1833.25 239.8 1825.2 240.35 1823.2 240.15 1821.25 239.9 1817.4 237.8 1813.85 230.3 1815.95 218.75 1816.15 218.35 1833.35 218.3 1855.45 218.2 1856.8 218.2
L 1865.35 218
Q 1881.1 217.7 1892.6 216.6 1899.5 216 1908.7 215.75
L 1917.75 215.4
M 1811.15 378.45
Q 1814.55 376.55 1819 376.35 1820.85 376.2 1827.25 376.45
L 1832.3 376.4
Q 1836.85 376.4 1845.9 376.6 1852.6 376.75 1859.2 376.7 1867.05 376.7 1875.05 376.8 1889.9 377.2 1899.4 376.75
L 1915.45 376.05
Q 1922.65 375.65 1924.45 375.75 1926.15 375.85 1929.55 377.3 1930.7 381 1930.65 385 1930.6 388.15 1929.8 392.7
L 1928.8 393.7
Q 1922.7 394.15 1917.9 394.25
L 1914.5 394.45
Q 1903.9 394.85 1882.85 395.5 1873.35 395.7 1861.6 396.25 1851.35 396.75 1841.05 396.9
L 1833.2 397.25
Q 1820.65 397.85 1817.95 397.7 1815.2 397.5 1811.45 395.75 1809.8 392.85 1809.45 391.75 1809.15 390.65 1808.65 387.1 1809.15 383.6 1809.5 382.5 1809.75 381.45 1811.15 378.45
M 1891.45 160.6
Q 1895.2 159.65 1902.9 159.3
L 1906.2 159.15
Q 1911.4 159.05 1915.15 160.1 1917.3 161.85 1918.75 163.95 1920 165.75 1921.05 168.65 1921.9 173.25 1921.8 179.6
L 1921.85 182.4
Q 1921.8 186.5 1921.35 188.4 1920.75 190.75 1918.65 193.75
L 1917.7 197.55
Q 1913.2 199.85 1906.45 200.65 1903.3 201.05 1894.75 201.35
L 1892.1 201.5
Q 1888.65 201.55 1886.7 201.1 1884.3 200.6 1881.7 199 1878.55 195.75 1877.9 194.8 1877.2 193.85 1876.25 191.6 1875.8 188.55 1875.75 187.5 1875.75 186.45 1875.7 183.05
L 1875.55 178.45
Q 1875.8 175.15 1876.7 173.05 1877.5 171.15 1879.65 168.4
L 1881.45 166.2
Q 1885.75 162.1 1891.45 160.6
M 1855.55 139.6
Q 1850.1 139.8 1844.75 140
L 1810 140.6
Q 1809.2 140.45 1808.4 140.05 1808.1 140 1807.85 139.85 1807.6 139.7 1807.35 139.55 1807.2 139.45 1807.05 139.35 1806.9 139.3 1806.85 139.2 1806.8 139.15 1806.75 139.1 1806.65 138.9 1806.55 138.8 1806.4 138.45 1806.3 138.2 1806.1 137.85 1805.95 137.4 1805.65 136 1805.5 134.55 1805.3 133.05 1805.15 131.65 1805.05 130.2 1805 128.8 1804.95 127.35 1805 125.9 1805.05 124.5 1805.2 123.15 1805.55 120.4 1806.05 117.7 1806.2779296875 116.377734375 1806.55 115.15
L 1806.55 114.85 1807.5 113.85 1808.6 113.85
Q 1809.0521484375 113.658984375 1809.5 113.45 1810.3 113.2 1811.15 113 1811.95 112.8 1812.8 112.7 1812.95 112.7 1813.15 112.7 1813.35 112.7 1813.6 112.7 1813.9 112.7 1814.2 112.7 1814.55 112.7 1814.95 112.65 1815.4 112.65 1815.9 112.65 1816.45 112.65 1816.95 112.65 1817.6 112.65 1818.2 112.6 1818.9 112.6 1819.6 112.6
L 1909.55 111.8
Q 1910.6 111.85 1911.7 111.9 1912.7 111.9 1913.75 112 1914.7 112.1 1915.7 112.15 1916.55 112.2 1917.5 112.35 1918.35 112.45 1919.3 112.65 1920.15 112.8 1921 112.95 1921.75 113.15 1922.6 113.35 1923.25 113.6 1923.9 113.95 1924.95 114.75 1925.95 115.75
L 1926.35 141.7 1926.6 141.7 1926.5 147.45 1924.6 147.45 1924.65 152.3
Q 1923 152.7 1922.3 152.8 1921.65 152.85 1919.25 152.9 1910.8 153.4 1901.2 155.7
L 1887.6 158.95
Q 1869.3 163.4 1864.85 163.6 1860.35 163.85 1851.65 160.9 1843.4 158.25 1835.8 157.9 1830.6 157.6 1824.65 155.55 1820.65 154.3 1813.95 151.35
L 1809.05 150.15 1805.25 148.6
Q 1804.65 146.4 1804.6 145.7 1804.6 144.95 1805.15 142.85 1809.1 142 1813.4 142.05
L 1860.8 141.55
Q 1874.6 141.3 1888.35 141.2
L 1891.1 141.2
Q 1897.85 141.15 1905.5 141.45
L 1914.25 141.95
Q 1916.3 142.05 1917.05 142.05 1917.8625 142.05 1920.4 141.8
L 1920.65 141.8 1920.55 138.05
Q 1920.05 137.95 1919.55 137.95 1918.45 137.85 1917.4 137.9 1916.25 137.9 1915.1 137.95 1913.85 137.95 1912.65 138 1911.35 138.05 1910.1 138.1 1904.75 138.4 1899.45 138.7 1898.65 138.75 1897.9 138.9 1896.9 138.9 1895.95 138.95 1894.9 139.05 1893.85 139.1 1892.7 139.1 1891.55 139.15 1890.3 139.15 1889.05 139.25 1887.65 139.25 1886.3 139.35 1884.85 139.4 1883.4 139.5 1881.8 139.5 1880.25 139.55 1879.1 139.55 1878 139.65 1877.35 139.65 1876.7 139.65 1875.95 139.6 1875.2 139.65 1873.55 139.6 1871.85 139.65 1868.85 139.45 1866.05 139.5 1863.45 139.55 1860.85 139.55 1858.2 139.55 1855.55 139.6 Z" stroke="none" fill="#F5F7F9"></path>

<path d="M 1844.75 140
Q 1850.1 139.8 1855.55 139.6 1858.2 139.55 1860.85 139.55 1863.45 139.55 1866.05 139.5 1868.85 139.45 1871.85 139.65 1873.55 139.6 1875.2 139.65 1875.95 139.6 1876.7 139.65 1877.35 139.65 1878 139.65 1879.1 139.55 1880.25 139.55 1881.8 139.5 1883.4 139.5 1884.85 139.4 1886.3 139.35 1887.65 139.25 1889.05 139.25 1890.3 139.15 1891.55 139.15 1892.7 139.1 1893.85 139.1 1894.9 139.05 1895.95 138.95 1896.9 138.9 1897.9 138.9 1898.65 138.75 1899.45 138.7 1904.75 138.4 1910.1 138.1 1911.35 138.05 1912.65 138 1913.85 137.95 1915.1 137.95 1916.25 137.9 1917.4 137.9 1918.45 137.85 1919.55 137.95 1920.05 137.95 1920.55 138.05
L 1920.65 141.8 1926.35 141.7 1925.95 115.75
Q 1924.95 114.75 1923.9 113.95 1923.25 113.6 1922.6 113.35 1921.75 113.15 1921 112.95 1920.15 112.8 1919.3 112.65 1918.35 112.45 1917.5 112.35 1916.55 112.2 1915.7 112.15 1914.7 112.1 1913.75 112 1912.7 111.9 1911.7 111.9 1910.6 111.85 1909.55 111.8
L 1819.6 112.6
Q 1818.9 112.6 1818.2 112.6 1817.6 112.65 1816.95 112.65 1816.45 112.65 1815.9 112.65 1815.4 112.65 1814.95 112.65 1814.55 112.7 1814.2 112.7 1813.9 112.7 1813.6 112.7 1813.35 112.7 1813.15 112.7 1812.95 112.7 1812.8 112.7 1811.95 112.8 1811.15 113 1810.3 113.2 1809.5 113.45 1809.0521484375 113.658984375 1808.6 113.85
L 1807.5 113.85 1806.55 114.85 1806.55 115.15
Q 1806.2779296875 116.377734375 1806.05 117.7 1805.55 120.4 1805.2 123.15 1805.05 124.5 1805 125.9 1804.95 127.35 1805 128.8 1805.05 130.2 1805.15 131.65 1805.3 133.05 1805.5 134.55 1805.65 136 1805.95 137.4 1806.1 137.85 1806.3 138.2 1806.4 138.45 1806.55 138.8 1806.65 138.9 1806.75 139.1 1806.8 139.15 1806.85 139.2 1806.9 139.3 1807.05 139.35 1807.2 139.45 1807.35 139.55 1807.6 139.7 1807.85 139.85 1808.1 140 1808.4 140.05 1809.2 140.45 1810 140.6
L 1844.75 140 Z" stroke="none" fill="#110F1A"></path>

<path d="M 1805.15 142.85
Q 1804.6 144.95 1804.6 145.7 1804.65 146.4 1805.25 148.6
L 1809.05 150.15 1813.95 151.35
Q 1820.65 154.3 1824.65 155.55 1830.6 157.6 1835.8 157.9 1843.4 158.25 1851.65 160.9 1860.35 163.85 1864.85 163.6 1869.3 163.4 1887.6 158.95
L 1901.2 155.7
Q 1910.8 153.4 1919.25 152.9 1921.65 152.85 1922.3 152.8 1923 152.7 1924.65 152.3
L 1924.6 147.45 1926.5 147.45 1926.6 141.7 1926.35 141.7 1920.65 141.8 1920.4 141.8
Q 1917.8625 142.05 1917.05 142.05 1916.3 142.05 1914.25 141.95
L 1905.5 141.45
Q 1897.85 141.15 1891.1 141.2
L 1888.35 141.2
Q 1874.6 141.3 1860.8 141.55
L 1813.4 142.05
Q 1809.1 142 1805.15 142.85 Z" stroke="none" fill="#992A3F"></path>

<path d="M 1902.9 159.3
Q 1895.2 159.65 1891.45 160.6 1885.75 162.1 1881.45 166.2
L 1879.65 168.4
Q 1877.5 171.15 1876.7 173.05 1875.8 175.15 1875.55 178.45
L 1875.7 183.05
Q 1875.75 186.45 1875.75 187.5 1875.8 188.55 1876.25 191.6 1877.2 193.85 1877.9 194.8 1878.55 195.75 1881.7 199 1884.3 200.6 1886.7 201.1 1888.65 201.55 1892.1 201.5
L 1894.75 201.35
Q 1903.3 201.05 1906.45 200.65 1913.2 199.85 1917.7 197.55
L 1918.65 193.75
Q 1920.75 190.75 1921.35 188.4 1921.8 186.5 1921.85 182.4
L 1921.8 179.6
Q 1921.9 173.25 1921.05 168.65 1920 165.75 1918.75 163.95 1917.3 161.85 1915.15 160.1 1911.4 159.05 1906.2 159.15
L 1902.9 159.3
M 1894.05 167
Q 1896.3 166.25 1899.55 165.95
L 1903.45 165.95
Q 1906.95 165.9 1910.45 166 1911.45 166.95 1911.9 167.55 1912.35 168.15 1913.9 170.7 1915.9 174.05 1916.4 177.25 1916.85 179.8 1916.5 184.15
L 1915.6 185.1
Q 1914.55 187.65 1914.1 188.55 1913.65 189.4 1911.85 191.9 1906.95 194.5 1901.1 195.25 1896.1 195.85 1889.8 195.2 1886.55 194.15 1885.75 193.5 1884.85 193 1882.95 190.5 1880.95 186 1880.85 180.9 1883.05 176.1 1884.1 174.7 1885.15 173.3 1889.2 169.75 1891.75 167.8 1894.05 167 Z" stroke="none" fill="#5D5A76"></path>

<path d="M 1899.55 165.95
Q 1896.3 166.25 1894.05 167 1891.75 167.8 1889.2 169.75 1885.15 173.3 1884.1 174.7 1883.05 176.1 1880.85 180.9 1880.95 186 1882.95 190.5 1884.85 193 1885.75 193.5 1886.55 194.15 1889.8 195.2 1896.1 195.85 1901.1 195.25 1906.95 194.5 1911.85 191.9 1913.65 189.4 1914.1 188.55 1914.55 187.65 1915.6 185.1
L 1916.5 184.15
Q 1916.85 179.8 1916.4 177.25 1915.9 174.05 1913.9 170.7 1912.35 168.15 1911.9 167.55 1911.45 166.95 1910.45 166 1906.95 165.9 1903.45 165.95
L 1899.55 165.95 Z" stroke="none" fill="#F1F3F7"></path>

<path d="M 1819 376.35
Q 1814.55 376.55 1811.15 378.45 1809.75 381.45 1809.5 382.5 1809.15 383.6 1808.65 387.1 1809.15 390.65 1809.45 391.75 1809.8 392.85 1811.45 395.75 1815.2 397.5 1817.95 397.7 1820.65 397.85 1833.2 397.25
L 1841.05 396.9
Q 1851.35 396.75 1861.6 396.25 1873.35 395.7 1882.85 395.5 1903.9 394.85 1914.5 394.45
L 1917.9 394.25
Q 1922.7 394.15 1928.8 393.7
L 1929.8 392.7
Q 1930.6 388.15 1930.65 385 1930.7 381 1929.55 377.3 1926.15 375.85 1924.45 375.75 1922.65 375.65 1915.45 376.05
L 1899.4 376.75
Q 1889.9 377.2 1875.05 376.8 1867.05 376.7 1859.2 376.7 1852.6 376.75 1845.9 376.6 1836.85 376.4 1832.3 376.4
L 1827.25 376.45
Q 1820.85 376.2 1819 376.35
M 1919.95 215.9
L 1917.75 215.4 1908.7 215.75
Q 1899.5 216 1892.6 216.6 1881.1 217.7 1865.35 218
L 1856.8 218.2
Q 1855.45 218.2 1833.35 218.3 1816.15 218.35 1815.95 218.75 1813.85 230.3 1817.4 237.8 1821.25 239.9 1823.2 240.15 1825.2 240.35 1833.25 239.8 1835.15 239.6 1839 239.4 1847.3 239.1 1853.95 238.7 1859.05 238.35 1869.45 237.85 1884.05 237.3 1887 237.1
L 1895 236.6
Q 1898.9 236.4 1902.95 236.35
L 1903.95 238.25
Q 1915.1 239.6 1923.2 237.9
L 1924.45 235.5
Q 1924.35 233.25 1924.3 232.5 1924.25 231.7 1923.8 229.4
L 1923 226.4
Q 1922.1 219.85 1919.95 215.9 Z" stroke="none" fill="#9DAEEA"></path>
</g>
</g>
</g>
</g>

<g transform="matrix( 0.3621063232421875, 0, 0, 0.3621063232421875, -594.2,0.1)" id="MergedLayer_1">
<g>
<g>
<g>
<path d="M 1936.95 427.95
Q 1936.8283203125 426.923828125 1936.6 426.5
L 1929.25 426.4 1929.25 433.15
Q 1930 433.5 1930.2 434.7 1930.25 435.3 1930.2 436.55 1930.2 437.6 1930.8 439.6 1932.55 445.05 1933.4 447.05
L 1935.2 450.95
Q 1936.2 453.15 1936.55 454.85 1937.05 457.3 1936.75 462.25 1936.84765625 462.2322265625 1936.95 462.2
L 1936.95 427.95
M 1821.65 446.85
Q 1821.65 455.4 1821.85 459.7 1821.95 463.35 1822.6 465.7 1822.9 466.7 1823.65 468.45 1824.4 470.3 1824.7 471.2 1824.7 471.25 1825.5 475 1826 477.3 1826.8 478.65 1827.55 480 1829.05 481.2 1829.95 481.95 1831.9 483.2
L 1831.9 488.55
Q 1832.75 488.45 1835.2 488.65 1837.25 488.8 1838.45 488.5 1839.3 488.35 1840.9 487.85 1841.65 487.7 1843.2 487.7
L 1848.5 487.8
Q 1849.35 487.8 1849.65 487.5 1850.05 487.2 1849.9 486.2 1849.8 485.1 1849.95 484.75 1851.7 484.35 1854.35 481.9 1856.65 479.7 1857.25 478.45 1858.2 476.5 1858 473 1857.75 468.55 1857.95 467.3 1852.35 467 1849.3 467.35 1844.55 467.85 1841.4 470 1840.8 470.4 1837.65 473.05 1836.65 473.85 1836 473.8 1835.25 473.8 1834.65 473.1 1833.3 471.8 1832.65 469.1 1832.1 466 1831.65 464.5 1831.4 463.65 1830.65 462 1829.95 460.35 1829.65 459.5 1828.65 456.65 1828.65 451.45 1828.6 444.25 1829.15 432.65
L 1822.15 432.55
Q 1821.65 437.3 1821.65 446.85
M 1803.1 440.1
Q 1803.1 435.3 1803 432.9 1802.85 430.3 1802.45 426.95
L 1795.7 426.85
Q 1795.5 429.4 1795.65 432.85 1795.75 434.85 1796.05 438.85 1796.6 446.2 1795.1 450.8 1794.75 450.95 1794.15 450.95 1793.55 450.9 1793.2 450.9 1791.85 450.8 1791.45 451.6 1791.3 451.9 1791.3 452.55
L 1791.35 455.75
Q 1789.8 455.95 1788.15 456.7 1788.1 460.35 1788.25 464.85
L 1792.2 465.1
Q 1792.25 465.6 1792.85 465.9 1793.4 466.1 1794.1 466.05
L 1800.15 466.05
Q 1800.1 465.1 1800.9 463.85 1802.05 462 1802.15 461.75 1802.6 460.7 1802.55 459.1 1802.45 457.25 1802.45 456.35 1802.75 454.3 1802.9 453.25 1803.1 451.8 1803.1 448.85
L 1803.1 440.1
M 1897.6 433.15
L 1890.4 433
Q 1890.2 435.9 1890.8 441.2 1891.4 446.9 1891.35 449.4 1891.3 451.35 1891 454.05 1890.8 455.55 1890.35 458.65 1889.6 464.25 1889.45 471.3 1889.35 475.55 1889.45 484 1889.45 486.9 1889.85 488.55
L 1892.4 488.8 1892.4 492.35 1900.8 492.45
Q 1903 492.45 1903.95 491.9 1905.2 491.2 1905.85 489.15 1906.35 487.4 1906.35 485.1 1906.35 483.7 1906.1 481
L 1897.6 480.9
Q 1896.7 480.8 1896.5 480.55 1896.25 480.3 1896.25 479.5 1896.35 474.8 1896.65 471.5
L 1897.7 461.25
Q 1898.95 447.35 1897.6 433.15
M 1841.15 388.95
Q 1837.75 390.9 1831.35 395.9 1827.9 398.55 1826.8 400.6 1826.25 401.6 1825.8 403.2 1825.25 405.45 1825.3 408.35 1825.3 410.1 1825.6 413.55
L 1832.35 413.55 1832.3 410.95
Q 1832.3 409.45 1832.65 408.5 1833.15 407.35 1835.05 405.65 1841.9 399.85 1844.25 398.2 1860.5 386.95 1888.6 387.75 1895.05 387.95 1898.45 389.55 1901.55 391.05 1903.85 394.1 1906 396.95 1907.05 400.55 1908 403.65 1908.3 407.65 1908.5 410.45 1908.4 414.85
L 1915.25 415
Q 1915.3 408.9 1915.3 405.85 1915.3 400.4 1914.65 396.75 1913.75 391.9 1911.35 388.2 1908.65 384 1904.65 382.3 1902.55 381.45 1899.7 381.15 1897.85 380.95 1894.5 380.95 1885.4 380.8 1880.85 380.8 1873 380.8 1867.2 381.35 1851.7 382.8 1841.15 388.95
M 1833.8 288.45
Q 1833.55 289.15 1833.55 290.7
L 1833.55 303.15 1839.5 303.15
Q 1840.45 303.25 1841.1 303 1842.05 302.7 1842.85 301.55 1843.75 300.1 1844.2 299.45
L 1845.5 297.9
Q 1846.85 296.35 1849.15 292.5 1849.95 291.2 1850.15 290.45 1850.35 289.75 1850.35 288.3 1850.35 279.1 1850.3 277.25
L 1844.1 277.1
Q 1842.9 277.1 1842.35 277.25 1841.6 277.5 1840.4 278.7
L 1837.3 281.9
Q 1835.1 284.2 1834.7 285.7 1834.5 286.3 1834.25 287.45
L 1833.8 288.45
M 1903 268.65
Q 1902.6 268.75 1902.15 269.2 1901.2 269.85 1900.5 270.6 1899.75 271.35 1898.65 273.15 1897.75 274.5 1897.4 275.5 1896.95 276.85 1896.95 278.9 1897 280.05 1897.05 282.35
L 1897 284.15
Q 1896.95 285.2 1897.05 285.9 1897.05 286.15 1897.5 288.45 1897.8 290 1897.6 290.95
L 1904.2 291.1
Q 1905.45 291.1 1906.05 290.95 1907.05 290.65 1908.7 289.2 1912.2 285.9 1913.5 284.3 1914.2 283.45 1916.25 280.5
L 1918.5 277.1
Q 1918.7 276.8 1919.3 275.6 1919.55 274.7 1919.85 274.2
L 1920.7 272.5
Q 1921 271.65 1921 269.75
L 1920.9 262.55 1914.9 262.45
Q 1913.75 262.45 1913.2 262.65 1912.7 262.85 1911.9 263.55 1909.9 265.35 1908.1 267.35 1907.45 268.1 1907 268.3
L 1906.05 268.45 1903.8 268.55
Q 1903.25 268.55 1903 268.65 Z" stroke="none" fill="#000000"></path>
</g>
</g>
</g>
</g>
</g>
</svg>
