<svg version="1.1" xmlns="http://www.w3.org/2000/svg" xmlns:xlink="http://www.w3.org/1999/xlink" width="156.78686" height="121.93394" viewBox="0,0,156.78686,121.93394"><g transform="translate(-251.331,-125.14228)"><g data-paper-data="{&quot;isPaintingLayer&quot;:true}" fill-rule="nonzero" stroke="none" stroke-width="0.5" stroke-linecap="butt" stroke-linejoin="miter" stroke-miterlimit="10" stroke-dasharray="" stroke-dashoffset="0" style="mix-blend-mode: normal"><path d="M379.12556,200.92986c-0.07192,0.12362 -0.14715,0.24548 -0.22611,0.36536c-0.10788,0.16379 -1.11078,1.18227 -2.36066,2.42908c1.73237,0.57364 3.49194,1.1998 5.03493,2.09485c2.03712,-0.95167 4.0957,-1.86771 5.89445,-3.19834c1.67477,-1.23892 2.57568,-3.24554 3.73895,-5.00129c-1.01592,-0.31132 -2.28271,-0.39773 -2.92956,-0.4424c-1.53474,0.96517 -3.12016,1.83221 -4.74687,2.5851c-1.45812,0.41199 -2.92693,0.80953 -4.40512,1.16763zM403.01641,182.87095c0.97821,2.70002 1.61974,5.56242 2.18718,8.1076c0.36163,1.62203 0.50402,3.28505 0.51141,4.9579c0.52025,1.59397 1.09792,3.18156 1.07228,4.83607c-0.02931,1.89132 -1.1718,3.59712 -1.77826,5.38881c-0.94421,2.78953 -1.21868,5.95806 -2.98271,8.31628c-4.95219,6.62024 -13.83279,10.27606 -20.80133,14.20703c-11.43794,6.45217 -22.77544,13.75402 -35.86112,16.15038c-4.0544,0.74248 -9.03363,2.39308 -13.21332,1.62659c-1.29217,-0.23696 -2.53646,-0.66878 -3.77896,-1.10791c-6.54056,1.52399 -13.18254,1.53893 -19.85472,1.61993c-0.48152,0.00585 -10.13397,0.1323 -10.38568,0.09608c-0.23848,-0.03432 -9.48917,-2.88086 -9.93722,-3.02047c-1.69726,-0.52884 -3.5153,-0.77276 -5.08567,-1.60602c-3.04928,-1.61799 -4.43196,-3.94539 -5.08363,-6.62648c-3.44111,-0.26533 -6.92268,-0.71619 -10.26953,-1.06031c-1.83849,-0.18903 -3.89812,0.25748 -5.50583,-0.65414c-3.7892,-2.1486 -5.84639,-6.71279 -5.30583,-10.93749c0.05787,-0.45226 4.10781,-9.00056 4.46281,-9.75637c0.71136,-1.45775 1.13614,-3.10182 2.01572,-4.4502c-0.05187,-0.72808 -0.13334,-1.46864 -0.18393,-2.20779c-1.05084,-0.50934 -2.05899,-1.13189 -3.1075,-1.64425c-5.59523,-2.73417 -9.25399,-4.83709 -8.75399,-12.02514c0.12957,-1.86274 1.16228,-3.54921 1.77427,-5.31331c0.60433,-1.74201 0.91143,-3.63191 1.87445,-5.2043c1.41812,-2.31545 3.12092,-4.04564 5.02838,-5.425c-0.24718,-1.71843 -0.25883,-3.48578 -0.36189,-4.98655c-0.34081,-4.96281 1.26923,-9.99733 3.94338,-14.28953c1.71201,-2.74791 3.94466,-4.5458 6.42112,-6.06607c0.84584,-0.88031 1.74295,-1.69809 2.7596,-2.36806c2.20383,-1.45233 4.73084,-2.56985 7.33279,-3.4648c1.30959,-0.81818 2.64723,-1.57298 4.10455,-2.05496c0.04971,-0.01644 0.3335,-0.07397 0.77718,-0.15939c4.50458,-3.06907 9.87138,-5.08934 14.67336,-7.3388c4.70893,-2.20587 8.96818,-4.19073 13.99126,-5.57743c13.92864,-3.81914 28.41797,-5.95567 42.84833,-5.66415c0.7291,0.01473 10.2176,0.18418 10.60322,0.28901c1.80369,0.49028 3.29113,1.77298 4.92825,2.67494c2.73545,1.50708 6.02948,2.34637 8.12947,4.65809c1.88314,2.07301 2.68005,3.60858 3.08757,5.3003c0.85199,0.08226 1.69183,0.1934 2.51662,0.3353c1.76794,0.38764 3.76039,0.21755 5.30382,1.16292c3.14871,1.92863 2.75289,6.27535 2.95545,9.16132c0.08945,1.27447 0.58806,2.63149 0.14567,3.83006c-0.24705,0.66933 -0.60738,1.28024 -1.02048,1.86366c3.52097,-0.24347 7.1742,-0.36082 9.90841,2.29106c3.87097,3.7544 3.54414,5.75083 4.24896,10.61328c0.26471,1.82618 0.94104,3.65529 0.72598,5.48798c-0.47386,4.03799 -2.83926,6.79252 -5.0046,9.95379c-0.0184,0.02686 -0.03682,0.05371 -0.05528,0.08054zM400.50301,177.78515c1.19721,-1.70171 2.42409,-3.66894 2.60159,-5.47991c0.13942,-1.42246 -0.49021,-2.81648 -0.70123,-4.23009c-0.57073,-3.8232 0.05404,-4.78428 -2.67656,-7.65029c-1.35564,-1.42287 -4.4712,-1.26244 -6.91037,-1.0269c-0.31412,1.21875 -0.86128,2.416 -1.19691,3.62603c-0.4569,1.64726 -0.51197,3.51155 -1.50608,4.90223c-0.50214,0.70245 -1.08179,1.34328 -1.71629,1.93354c3.86939,0.92748 7.50014,2.82957 10.64714,6.11703c0.5321,0.55585 1.01631,1.16235 1.45871,1.80835zM346.20321,167.1829c0.99321,-0.37646 1.9868,-0.75166 2.99111,-1.08814c1.02952,-0.34492 2.05776,-0.67896 3.08282,-1.01106c-0.02092,-0.52335 -0.03815,-1.04676 -0.05294,-1.56996c-0.01735,-0.61383 0.05195,-1.24155 0.10074,-1.86539c-4.13455,-1.38062 -8.71677,-1.69236 -13.24838,-1.28855c-0.01948,1.97594 -0.29021,3.94563 -0.97724,5.73356c2.19049,0.38213 4.83345,0.86809 5.71339,1.1343c0.31586,-0.00741 0.63268,-0.01347 0.95054,-0.01815c0.48019,-0.00706 0.96018,-0.01613 1.43996,-0.02661zM274.00652,188.87587c-0.08481,-0.28684 -0.14416,-0.57559 -0.18189,-0.86732c-1.11016,-0.01065 -2.08058,-0.02848 -2.61215,-0.05758c-0.58904,1.13952 -1.10312,2.30636 -1.42076,3.54531c-0.14018,0.54678 -0.1302,1.43032 -0.05072,2.40439c1.00397,-1.44002 2.00879,-2.86846 2.90474,-4.14859c0.45269,-0.28697 0.90626,-0.57939 1.36078,-0.8762zM265.47517,216.44313c-1.30107,2.44585 -3.03513,4.7395 -3.58316,7.43718c-0.36246,1.78419 0.90315,4.95428 2.62926,5.76796c1.10361,0.52024 2.44046,0.04861 3.65807,0.12617c2.4653,0.15704 4.9532,0.46924 7.44191,0.74413c-0.05048,-0.07599 -0.10047,-0.15319 -0.14997,-0.23162c-2.04799,-3.24561 -1.8597,-7.39911 -2.05088,-10.99685c-0.02501,-0.47061 -0.07595,-0.94603 -0.14003,-1.42403c-0.99083,0.10363 -1.98073,0.19357 -2.94285,-0.01295c-1.60403,-0.34431 -3.47482,-0.57179 -4.86236,-1.40998zM277.29845,169.74721c-0.28971,-0.89491 -0.53125,-1.81444 -0.84828,-2.69145c-0.63254,-1.74984 -1.75471,-3.42933 -1.78232,-5.28978c-0.02871,-1.93489 1.0488,-3.72583 1.62113,-5.57435c0.25872,-0.83563 0.44843,-1.70481 0.67636,-2.55707c-1.14457,0.56529 -2.30534,1.10622 -3.42302,1.71081c-1.25133,1.30391 -2.34225,2.8037 -3.62955,4.07081c-1.00284,0.98711 -2.42807,1.65321 -3.05564,2.91266c-0.62758,1.25945 -0.29805,2.79882 -0.48529,4.19345c-0.29942,2.23006 -0.98454,5.04733 -0.50409,7.47875c1.86992,-0.78215 3.83204,-1.4707 5.83853,-2.20575c0.16894,-0.06189 3.03088,-1.11167 5.59217,-2.04809zM310.89278,160.42936c1.03132,-1.33857 2.09327,-2.50516 2.77188,-3.34c1.10843,-1.3636 2.05222,-2.88228 3.33667,-4.08155c1.1723,-1.09456 2.46362,-2.02808 3.83952,-2.82233c0.49272,-0.99016 1.07259,-1.91389 1.86747,-2.6719c0.91253,-0.8702 1.74616,-1.53885 2.55917,-2.08358c-0.05844,0.01343 -0.11681,0.02699 -0.17511,0.04068c-3.14486,0.73851 -6.05247,2.26052 -9.08204,3.38181c-2.92673,1.08323 -6.25527,1.37755 -8.80859,3.17191c-1.18981,0.83614 -1.82003,2.26877 -2.74715,3.38915c-1.94431,2.34959 -4.90582,4.0613 -6.00918,6.90162c1.73871,-0.30662 3.48567,-0.5775 5.22547,-0.85775c2.60176,-0.41909 4.91941,-0.81135 7.22189,-1.02806zM285.62917,166.07293c-0.19924,-2.17527 -0.21032,-4.32154 -0.18007,-6.19491c0.53464,-0.73281 6.10701,-8.49429 6.91622,-9.11912c0.33782,-0.26085 0.69953,-0.48155 1.07708,-0.67557c1.02446,-0.88711 2.27226,-1.6805 3.99497,-2.96626c0.09634,-0.0719 0.19296,-0.14335 0.28986,-0.21434c-3.05566,0.56497 -6.1218,1.22497 -9.28392,1.94216c-0.60205,0.13485 -1.2164,0.2775 -1.83803,0.42992c-0.39072,0.34791 -0.77132,0.70841 -1.14077,1.08267c-1.03473,1.04819 -2.38441,1.84342 -3.14267,3.10612c-0.75826,1.2627 -0.81099,2.83253 -1.26495,4.2337c-0.43133,1.33131 -1.40706,2.56214 -1.39019,3.96147c0.01598,1.32492 1.02636,2.44423 1.48243,3.68828c0.32934,0.89837 0.47472,1.88129 0.77243,2.79035c0.20677,-0.04895 0.41445,-0.09631 0.62296,-0.14218c0.64705,-0.51054 1.08094,-0.84948 1.12378,-0.87454c0.64477,-0.37718 1.29876,-0.72536 1.96087,-1.04776zM267.14241,185.56028c-1.91096,-1.26682 -4.02917,-2.70504 -4.90672,-3.37785c-3.37548,3.60629 -7.27608,9.80262 -5.35386,15.01904c0.62925,1.70761 4.46748,3.55962 7.23044,4.64031c0.39973,-0.67766 0.90147,-1.30767 1.40384,-1.93689c-0.0316,-0.20169 -0.06234,-0.40417 -0.09236,-0.60744c-0.36782,-2.48979 -1.09646,-6.448 -0.50982,-8.89989c0.04571,-0.19105 1.13503,-2.52152 2.22848,-4.83728zM269.15855,210.15805c-0.39668,0.31656 -0.77285,0.65576 -1.12085,1.02608c-0.03552,0.42919 0.01067,0.83599 0.24155,1.19426c0.50927,0.79029 1.83229,0.47447 2.77105,0.52579c0.21254,0.01162 0.4256,0.02117 0.63912,0.02877c-0.31212,-0.24744 -0.61009,-0.51525 -0.89162,-0.80592c-0.61655,-0.63657 -1.1594,-1.29331 -1.63924,-1.96898zM276.01985,194.43932c-0.13714,-0.11761 -0.26704,-0.24087 -0.38852,-0.37036c-1.60049,2.39919 -3.16872,4.76173 -4.83578,7.13094c0.12719,0.64117 0.27364,1.25992 0.45129,1.86247c0.6742,-0.47232 1.15857,-0.81082 1.29689,-0.9079c0.04172,-0.02928 0.25591,-0.17974 0.59053,-0.41473c-0.03031,-0.57553 -0.0093,-1.14595 0.12539,-1.70444c0.09782,-0.40561 1.46922,-3.10361 2.7602,-5.59599zM285.70533,220.65397c0.53547,0.71716 1.10947,1.39745 1.78348,1.9837c0.62484,0.54348 1.30659,0.94546 2.02704,1.24341c0.10554,-0.85622 0.34716,-1.71291 0.57209,-2.56764c-1.22353,-0.14469 -2.44218,-0.33214 -3.65199,-0.55051c-0.2409,-0.04348 -0.48483,-0.0787 -0.73062,-0.10896zM299.34054,197.57043c-0.01735,0.00033 -0.03018,0.00057 -0.03828,0.00073c-0.32703,0.00627 -0.65402,0.01033 -0.98096,0.01236c-0.3071,0.28036 -0.63068,0.57454 -0.97581,0.88704c-0.60524,0.54803 -1.18311,0.99993 -1.70967,1.42834c0.59142,-0.10758 1.18542,-0.20576 1.77979,-0.30249c0.69788,-0.82009 1.27021,-1.48808 1.52691,-1.78968c0.13261,-0.07837 0.26528,-0.15715 0.39801,-0.2363zM369.06756,190.90684c1.44479,-0.03736 2.8803,-0.08286 4.30212,-0.14664c0.66436,-0.02805 1.31796,-0.04109 1.96329,-0.04067c0.57977,-1.33076 1.02459,-2.68947 1.30073,-4.08136c-0.44724,0.05557 -0.90056,0.11771 -1.36099,0.18662c-1.47123,0.22018 -2.94275,0.43851 -4.41416,0.65747c-0.30764,0.5033 -0.61377,1.00701 -0.88138,1.52457c-0.3211,0.62101 -0.61828,1.25842 -0.9096,1.90001zM362.05199,161.07719c0.84131,-0.28215 1.70276,-0.56429 2.58672,-0.86616c0.24655,-1.9718 0.23053,-4.02324 -0.09112,-6.14786c-0.05615,-0.45306 -0.0675,-0.95371 -0.07213,-1.46821c-1.9054,0.18638 -3.75626,0.42704 -5.3445,0.50607c-1.68769,0.08398 -3.35102,0.20773 -4.99623,0.37092c1.02149,1.33065 2.23027,2.57431 2.76097,4.14962c0.03977,0.11804 0.07532,0.2369 0.10706,0.3565c0.58214,0.36749 1.16143,0.7413 1.75836,1.07261c1.12407,0.6239 2.22382,1.30039 3.29087,2.02651zM349.80407,156.01723c-0.06643,-0.08552 -0.13092,-0.17211 -0.19293,-0.26003c-0.41086,-0.58251 -0.73628,-1.10539 -1.02383,-1.57673c-1.24735,0.19526 -2.48813,0.41389 -3.72522,0.65574c-0.53372,0.28331 -1.07452,0.55642 -1.61581,0.82877c1.82688,0.0439 3.70725,0.15456 5.67689,0.30914c0.29189,0.02291 0.5859,0.03539 0.8809,0.04311zM378.60142,150.48613c0.07222,-0.12949 0.1435,-0.25925 0.21263,-0.38964c-1.20662,-1.48761 -2.64644,-2.57867 -5.04397,-3.12272c-2.13522,-0.54682 -4.31024,-1.2062 -6.49691,-1.83204c0.4079,0.54496 0.79776,1.28366 1.22062,2.3012c2.20189,-0.01825 4.35123,0.17215 6.27547,0.81497c0.68468,0.22873 2.22466,1.17498 3.83215,2.22823zM360.1349,148.02783c-1.07514,-0.11745 -2.16183,-0.22816 -3.23738,-0.22803c-0.35153,0.14797 -0.70223,0.30661 -1.05204,0.47431c1.0197,-0.06202 2.03303,-0.11648 3.03579,-0.16685c0.40961,-0.02058 0.828,-0.04778 1.25363,-0.07944zM389.09892,148.01986c0.14012,-1.72309 0.61629,-3.77465 -0.7707,-4.27743c-0.44668,-0.16192 -0.91442,-0.23456 -1.39006,-0.27369c0.06183,0.83852 0.05812,1.69954 0.10409,2.5435c0.51715,0.27873 0.99368,0.6065 1.37489,1.04925c0.25769,0.29929 0.48169,0.62095 0.68178,0.95837zM342.00408,138.22736c1.59213,-0.61275 3.18463,-1.14906 4.7579,-1.52812c0.21452,-0.05169 9.8596,-1.03308 10.27861,-1.07602c5.15034,-0.52783 10.07011,-1.07559 15.25496,-0.9253c0.52831,0.01531 1.06465,-0.0134 1.60053,-0.03801c-1.38817,-0.74736 -2.89092,-1.381 -4.26484,-2.16506c-1.27202,-0.72591 -2.38288,-1.82806 -3.79618,-2.21223c-3.0215,-0.82131 -6.2622,-0.05171 -9.3927,-0.11495c-13.95282,-0.28188 -27.95647,1.79416 -41.42517,5.48719c-2.96662,0.80738 -5.88164,1.8553 -8.66457,3.1622c-1.29671,0.60895 -2.62454,1.18997 -3.96286,1.76664c2.89009,-0.38389 5.89145,-0.49267 8.87912,-0.5679c0.40895,-0.02258 0.81932,-0.04343 1.23131,-0.06258c2.55574,-0.67342 5.17618,-1.13778 7.8266,-1.3987c0.58678,-0.05777 10.54315,-0.44553 10.83944,-0.36478c0.52184,0.14222 1.04603,0.31183 1.56145,0.51133c2.58327,-0.13284 5.16589,-0.23029 7.72969,-0.37142c0.51048,-0.0281 1.02643,-0.06288 1.5467,-0.10228zM370.90306,168.07583c0.18308,-0.00394 0.36631,-0.00752 0.54969,-0.01075c0.00476,-0.00003 0.00953,-0.00006 0.01429,-0.0001c3.14744,-1.40903 6.22488,-3.0118 8.84691,-5.1996c-0.08018,-0.6455 -0.19663,-1.31785 -0.32677,-1.98341c-0.68327,0.14542 -1.36371,0.30136 -2.04234,0.46683c-1.68427,1.95093 -3.50177,3.78902 -5.22297,5.58833c-0.60648,0.37378 -1.21261,0.75402 -1.81881,1.1387zM369.75976,157.75254c2.04639,-1.02402 4.28479,-2.05249 6.31767,-3.19781c-0.92618,-0.61875 -1.8683,-1.20026 -2.91379,-1.56164c-1.13871,-0.3936 -2.42701,-0.57214 -3.78246,-0.62118c0.03109,0.33569 0.06822,0.66976 0.11844,1.00028c0.19469,1.4965 0.27875,2.95689 0.26014,4.38035zM283.66909,236.03873c-0.15989,0.00076 -0.3199,0.00096 -0.48004,0.00059c0.07333,0.18246 0.15376,0.35502 0.24202,0.51595c0.90695,1.65376 5.27775,2.42627 6.23078,2.71429c3.06762,0.92709 6.00949,2.39468 9.18147,2.85112c3.17198,0.45644 6.40843,-0.10779 9.61284,-0.14669c5.04886,-0.06129 10.08765,-0.05417 15.06946,-0.78953c-0.05842,-0.09773 -0.11477,-0.19681 -0.1688,-0.2974c-0.63833,-1.18848 -0.97361,-2.46715 -1.09917,-3.78553c-0.54306,0.02296 -1.0867,0.04399 -1.63108,0.06309c-6.50485,2.38036 -14.20889,2.7383 -20.8519,2.27734c-5.72275,-0.40877 -9.74153,-0.57742 -15.03675,-2.93868c-0.35901,-0.16009 -0.71556,-0.31386 -1.06884,-0.46455zM344.59049,239.89366c10.51345,-1.92447 20.0972,-7.24806 29.39554,-12.69898c-2.21818,0.64975 -4.4951,1.19259 -6.81474,1.67853c-2.86275,0.59971 -5.85499,1.46237 -8.82928,2.08292c-0.51435,0.85995 -0.87692,1.45382 -0.92986,1.51028c-3.23168,3.44755 -8.35058,5.80354 -12.82166,7.42726zM327.49835,236.819c0.24487,1.12289 0.67629,2.21875 1.32891,3.26109c4.34955,-1.19161 8.68761,-3.04596 12.93281,-4.48862c0.23182,-0.07756 0.46285,-0.1579 0.69304,-0.24093c-0.13043,0.01884 -0.26149,0.03699 -0.3932,0.05446c-4.92213,0.62733 -9.73891,1.09788 -14.56157,1.41401zM369.20671,221.40136c4.34169,-0.82382 8.51321,-2.08934 12.39373,-4.77496c1.23829,-0.85699 0.07072,-3.1197 -0.5725,-4.48133c-0.05871,-0.12427 -0.12457,-0.24491 -0.1971,-0.36206c-2.01828,1.08172 -8.18334,4.38509 -8.29613,4.43313c-0.56747,0.2417 -1.13898,0.47221 -1.71417,0.69239c-0.31237,0.71242 -0.6455,1.42048 -0.90079,2.14139c-0.27057,0.76406 -0.45179,1.57896 -0.71303,2.35145zM282.08036,223.78496c-0.32768,1.37012 0.21279,2.81429 0.28206,4.22298c0.02729,0.55502 0.03349,1.24343 0.04716,1.99674c0.69938,0.38987 1.44433,0.7208 2.17158,1.02323c2.41366,-0.04539 4.79817,-0.22199 7.1637,-0.49623c-0.27339,-0.37514 -0.52904,-0.76101 -0.76336,-1.15511c-2.29055,-0.34516 -4.47193,-1.09795 -6.69684,-2.90049c-0.32964,-0.26707 -1.21097,-1.37882 -2.2043,-2.69113zM387.663,181.33658c1.78052,0.16374 3.57199,0.45602 5.38448,0.91483c1.16085,0.29386 2.62004,0.19187 3.5757,0.83416c0.24756,-0.30683 0.4907,-0.61556 0.72926,-0.92586c-0.52593,-1.02484 -1.1461,-1.9476 -1.89015,-2.69446c-1.05768,-1.06169 -2.51373,-1.63289 -3.75068,-2.47896c-1.19234,-0.81556 -2.1674,-2.04361 -3.53622,-2.5053c-0.72959,-0.24608 -1.50195,-0.25281 -2.28273,-0.21564c0.10635,0.17635 0.21043,0.35758 0.31218,0.54381c0.90982,1.66514 0.85684,3.69729 1.24581,5.55449c0.06963,0.33248 0.14107,0.65636 0.21233,0.97294zM286.10481,211.72037c0.60075,-0.06603 1.20236,-0.12712 1.80388,-0.18867c0.51625,-0.37773 1.02829,-0.74419 1.54189,-1.10065c-0.89888,-1.32826 -1.41217,-2.63161 -1.61459,-3.90538c-1.48047,0.25246 -2.96639,0.47227 -4.47698,0.64359c-0.02197,0.06503 -0.04433,0.12986 -0.06711,0.19447c0.15048,1.21379 0.31661,2.31036 0.45309,2.81756c0.20991,0.31608 0.47168,0.58819 0.77681,0.82155c0.43726,0.19853 0.96263,0.31148 1.35696,0.56627c0.07608,0.04916 0.15139,0.09965 0.22604,0.15126zM308.49995,221.4638c1.90654,-0.15654 3.82197,-0.50201 5.72712,-0.59953c0.04746,-0.00243 0.09488,-0.00489 0.14229,-0.00738c-0.13779,-0.48313 -0.20949,-0.95959 -0.23076,-1.43529c-1.54194,0.07533 -2.93081,0.11462 -4.31323,0.08134c-0.16753,0.2409 -0.33111,0.48619 -0.49061,0.73595c-0.26531,0.41545 -0.54583,0.82253 -0.83482,1.2249zM357.08483,223.20357c0.45335,-0.78686 0.91254,-1.57024 1.39108,-2.34191c0.149,-0.24027 0.32657,-0.46875 0.51542,-0.69235c-4.77707,0.94059 -9.63457,1.58548 -14.39874,2.33959c-0.6658,0.42074 -1.31549,0.8781 -1.96754,1.33048c0.75488,0.01509 1.50973,0.02968 2.26455,0.04335c4.15487,-0.11135 8.12957,-0.20478 12.19524,-0.67915zM319.8064,220.42889c0.62292,-0.06542 1.24247,-0.1361 1.8592,-0.2119c-0.43392,-0.40261 -0.81206,-0.78041 -1.14199,-1.14079c-0.4597,0.0248 -0.91867,0.04864 -1.37658,0.07236c0.04649,0.45541 0.18375,0.84461 0.45474,1.10685c0.06485,0.06276 0.13325,0.1203 0.20463,0.17348zM388.49556,186.64306c-0.02912,1.40597 -0.37819,2.83127 -1.30857,4.4484c0.41897,-0.00836 0.83848,-0.01419 1.25892,-0.01793c1.65147,-1.24691 3.22354,-2.63088 4.69454,-4.1053c-0.36207,0.03744 -0.80486,0.22631 -1.14963,0.17027c-1.20415,-0.19574 -2.36269,-0.36217 -3.49526,-0.49543zM381.40163,176.46073c0.62702,1.44529 0.45941,3.12829 0.47716,4.74894c0.2133,-0.00856 0.4266,-0.01585 0.63991,-0.0218c-0.23835,-1.35681 -0.1305,-2.82217 -0.73999,-4.05293c-0.11786,-0.238 -0.24375,-0.46249 -0.37708,-0.6742zM294.02961,160.16479c1.00769,-1.3452 4.57444,-5.58162 6.02712,-7.29698c-0.19512,0.08032 -0.39033,0.16044 -0.58562,0.24034c-0.98453,0.40278 -2.0825,0.60205 -3.05129,1.02854c-0.63087,0.67382 -1.166,1.51624 -1.65587,2.78236c-0.38783,1.0024 -0.61819,2.10389 -0.73434,3.24574zM280.38138,178.89022c1.42607,0.0715 2.85402,0.07289 4.28149,0.01271c0.41503,-0.21386 1.08644,-0.55978 1.87806,-0.96725c-1.35669,-0.75021 -2.67586,-1.56739 -3.9422,-2.45487c-0.87187,0.9206 -1.59282,1.95185 -2.09676,3.10332c-0.04412,0.10081 -0.08412,0.20289 -0.12059,0.30608zM399.15843,208.95466c-0.6483,0.39566 -1.38786,0.76151 -2.25629,1.10177c-1.5005,2.21423 -3.72605,5.4163 -4.56533,6.55568c2.11221,-1.41351 4.05178,-3.01176 5.54158,-4.92643c0.62585,-0.80433 1.00001,-1.74225 1.28003,-2.73103zM278.43905,219.69096c0.09376,-0.15574 0.19047,-0.30694 0.29002,-0.45402c-0.13037,-0.17949 -0.24094,-0.33165 -0.32731,-0.45005c0.00395,0.08208 0.00797,0.16416 0.01204,0.24623c0.01013,0.20396 0.01812,0.42426 0.02525,0.65784zM341.15814,143.95115c-0.82208,0.35114 -1.64139,0.71246 -2.45515,1.07088c0.08877,0.26281 0.17441,0.53258 0.25668,0.80784c1.55003,-0.2164 3.11359,-0.51556 4.62657,-0.43584c3.24469,-0.74497 6.20331,-1.55845 9.18754,-2.0495c-1.86841,0.17121 -3.71849,0.38789 -5.38119,0.44947c-2.02376,0.07495 -4.1158,0.10945 -6.23444,0.15715zM317.32057,180.0755c0.13122,-0.0794 0.26203,-0.15923 0.39238,-0.2395c0.03285,-0.1509 0.06668,-0.30143 0.10148,-0.45154c-0.10084,0.01443 -0.20168,0.0289 -0.30253,0.04342c-0.39574,0.2327 -0.79446,0.45586 -1.19646,0.67039c0.02751,-0.00066 0.05501,-0.00128 0.08251,-0.00186c0.30685,-0.00646 0.61441,-0.01341 0.92261,-0.02091zM293.98725,173.97847c-0.03436,-0.19733 -0.06733,-0.39494 -0.09885,-0.5928c-0.553,-0.36131 -1.07639,-0.7718 -1.59277,-1.19392c0.12866,0.22903 0.26488,0.44477 0.40908,0.64514c0.33866,0.47058 0.78964,0.82708 1.28254,1.14158zM400.8151,197.11684c-0.74639,-0.26258 -1.51915,-0.48332 -2.31254,-0.66685c-0.28199,0.43141 -0.60659,0.84076 -0.94599,1.24227c0.68783,1.51179 1.10301,3.20671 1.25457,4.88778c0.61381,-0.745 1.18763,-1.55585 1.83874,-2.37329c0.09078,-1.02192 0.15443,-2.05605 0.16522,-3.08992zM399.47353,191.27709c0.24566,0.07297 0.48736,0.15644 0.72584,0.24848c-0.2685,-1.18587 -0.55252,-2.51265 -0.89875,-3.86405c-0.11384,0.13068 -0.22837,0.26086 -0.34357,0.39053c0.25091,1.05821 0.43178,2.16978 0.51648,3.22504zM371.51395,211.19579c0.11328,-0.05308 0.22624,-0.10683 0.33891,-0.1612c-0.127,-0.00677 -0.25375,-0.01411 -0.3802,-0.02209c0.01426,0.06117 0.02803,0.12227 0.04129,0.18329zM386.92914,214.48307c1.16101,-0.97057 2.26807,-2.0246 3.23671,-3.15762c-1.34005,0.07469 -2.70677,0.08352 -4.04255,0.05901c0.37332,0.98861 0.67376,2.0427 0.80585,3.09861zM311.50963,171.42048c-0.06838,0.05813 -0.13701,0.1159 -0.20593,0.17326c0.28359,-0.05705 0.56748,-0.11346 0.85168,-0.16931c-0.21898,0.0087 -0.43482,0.00854 -0.64575,-0.00395zM318.38148,197.24538c-0.06899,-0.2009 -0.13557,-0.4039 -0.19974,-0.60888c-0.98382,0.51468 -1.97845,1.05937 -2.98126,1.61034c1.05386,-0.35247 2.11602,-0.68362 3.181,-1.00146zM269.95147,177.57003c0.28737,0.02953 0.57441,0.06214 0.86118,0.0972c0.09195,-0.14873 0.19054,-0.2931 0.29749,-0.43199c-0.38566,0.11287 -0.77243,0.2233 -1.15867,0.33479zM294.4641,224.73078c0.51781,0.01602 1.03559,0.0219 1.54844,0.02772c0.06277,-0.35893 0.14967,-0.72253 0.25643,-1.08951c-0.51347,-0.31703 -0.99937,-0.67096 -1.45202,-1.06533c-0.22261,0.70434 -0.40871,1.40925 -0.35285,2.12713zM364.94362,213.61595c0.47592,-0.13984 0.94983,-0.28544 1.42151,-0.43729c0.06943,-0.55402 0.09085,-1.1028 0.04696,-1.64163c-0.65293,0.35478 -1.30739,0.71166 -1.96344,1.06797c0.18378,0.32496 0.34936,0.66201 0.49498,1.01096zM383.50143,186.28014c-0.30709,-0.00697 -0.61446,-0.01089 -0.92254,-0.01168c0.27181,0.66468 0.44204,1.28861 0.52981,1.88702c0.27229,-0.60417 0.38336,-1.235 0.39273,-1.87534zM376.91332,178.66287c-0.63093,0.40457 -1.33181,0.85122 -2.03362,1.29703c0.75032,0.2203 1.48273,0.47491 2.18089,0.77661c0.07818,-0.723 0.11623,-1.43443 -0.14727,-2.07364zM328.1102,177.9581c-0.01527,0.01659 -0.03047,0.03311 -0.0456,0.04955c0.78261,-0.0618 1.68517,-0.13258 2.59269,-0.20353c-0.84665,0.05397 -1.69631,0.10376 -2.54709,0.15398zM326.96593,194.81061c0.98033,-0.27568 1.97597,-0.55132 2.98385,-0.82072c-0.87459,0.0804 -1.74789,0.15027 -2.6229,0.21021c-0.11819,0.20445 -0.23874,0.40785 -0.36095,0.61051zM286.8756,172.28809c0.00329,0.00208 0.00658,0.00416 0.00987,0.00623c-0.00115,-0.00325 -0.00229,-0.0065 -0.00344,-0.00974c-0.00214,0.00117 -0.00429,0.00234 -0.00643,0.00351zM331.89983,231.46369c-0.73982,-0.1272 -1.46535,-0.31968 -2.16688,-0.60763c-0.30598,0.27935 -0.60846,0.56428 -0.90995,0.85085c1.02481,-0.07396 2.05003,-0.15499 3.07684,-0.24322zM357.00572,190.62094c-0.30269,-0.06561 -0.60528,-0.13167 -0.9078,-0.1981c-0.72624,0.26909 -1.45134,0.55207 -2.17424,0.84084c0.00962,0.05251 0.01882,0.105 0.02756,0.15749c1.10076,-0.07733 2.20497,-0.13927 3.3107,-0.1902c-0.07683,-0.20679 -0.1618,-0.4103 -0.25622,-0.61002zM293.62123,188.05316c-0.01392,0.04084 -0.02777,0.08185 -0.04155,0.12305c0.41286,-0.24945 0.82727,-0.49008 1.24332,-0.7224c-0.40022,0.20062 -0.80079,0.40045 -1.20177,0.59935zM273.80456,183.18076c0.06955,-0.01076 0.13921,-0.0221 0.20891,-0.0336c-0.06045,-0.0078 -0.1209,-0.01555 -0.18136,-0.02326c-0.00916,0.01897 -0.01834,0.03792 -0.02755,0.05687zM393.2479,205.91593c0.26777,-0.9282 0.41272,-1.89055 0.40756,-2.88559c-0.79155,1.19648 -1.64088,2.3369 -2.73515,3.23006c0.80306,-0.07747 1.5844,-0.18898 2.32759,-0.34447zM280.33899,196.55639c-0.02295,-0.00825 -0.04595,-0.01651 -0.06898,-0.02478c-0.07266,0.11955 -0.14499,0.23922 -0.21676,0.35909c0.06394,-0.04457 0.12515,-0.0872 0.18341,-0.12775c0.03409,-0.06884 0.06821,-0.13771 0.10233,-0.20656z" fill="#000000"/><path d="M296.82131,187.91592c-0.31009,-2.48069 2.17061,-2.79078 2.17061,-2.79078l1.37429,-0.15348c3.94979,-0.98434 5.10415,-1.17124 6.37854,-5.25621c0,0 0.79057,-2.37171 3.16228,-1.58114c2.37171,0.79057 1.58114,3.16228 1.58114,3.16228c-1.10203,3.15684 -2.34435,5.02053 -4.21175,6.29512c2.04004,2.86453 4.25037,5.63483 7.30592,7.478c2.51714,1.51839 4.14344,1.75004 7.02438,2.98505c3.43287,1.47162 6.48569,3.19896 10.18528,4.02454c10.34781,2.30918 20.57807,-0.21212 28.08382,-7.78804c1.03715,-1.29664 1.99648,-2.65798 2.88594,-4.06007l0.44666,-0.67102c0,0 0.65035,-0.97553 1.72838,-1.14509c-1.59628,-2.45288 -1.72464,-6.01971 -1.73061,-9.16197c0,0 0,-2.5 2.5,-2.5c2.5,0 2.5,2.5 2.5,2.5c-0.00732,3.43796 -0.57255,7.95551 3.99348,6.55382l-0.15396,-0.07241c0,0 2.08013,-1.38675 3.46688,0.69338c1.38675,2.08013 -0.69338,3.46688 -0.69338,3.46688l-1.40687,0.76287c-1.06937,0.23309 -2.11845,0.80187 -3.2081,0.69926c-0.90649,-0.08536 -1.6957,-0.27646 -2.38279,-0.55597c0.00456,0.84674 -0.45278,1.53275 -0.45278,1.53275l-0.38861,0.58189c-1.03945,1.62883 -2.17145,3.20155 -3.37861,4.7103c-3.96408,3.93705 -9.94805,8.10576 -15.43806,9.52383c-9.99148,2.58079 -19.57598,-0.66461 -28.5672,-4.51697c-3.34036,-1.4312 -4.64087,-1.47793 -7.59289,-3.27949c-3.99313,-2.43694 -6.80505,-6.01849 -9.45145,-9.78569c-0.3132,0.08602 -0.63732,0.17067 -0.97297,0.25483l-1.9668,0.26416c0,0 -2.48069,0.31009 -2.79078,-2.17061z" fill="#ffffff"/></g></g></svg>