
<svg viewBox="0 0 178 263" height="263px" width="178px" y="0px" x="0px" preserveAspectRatio="none" xmlns:xlink="http://www.w3.org/1999/xlink" version="1.1" xmlns="http://www.w3.org/2000/svg">
<defs></defs>

<g id="Layer_1">
<g transform="matrix( 0.6392822265625, 0, 0, 0.63946533203125, 46.85,7.3)" id="Layer_1"></g>

<g transform="matrix( 0.6392822265625, 0, 0, 0.63946533203125, 46.85,7.3)" id="Layer_2">
<g transform="matrix( 0.880706787109375, 0, 0.13470458984375, 0.946502685546875, 138.3,78.3)" id="Layer_1">
<g>
<g>
<g>
<path d="M -178.3 -74.6
Q -178.35 -74.7 -178.35 -74.85 -178.35 -74.9 -178.35 -74.95 -179.2 -75.6 -180.2 -75.8 -181.95 -76.15 -183.7 -76.45 -183.65 -76.5 -183.6 -76.55 -183.5 -76.6 -183.35 -76.65
L -183.3 -76.7
Q -182.05 -78.3 -180.7 -79.85 -179.95 -80.65 -180.2 -81.65 -183.55 -81.65 -186.85 -81.65
L -186.9 -81.65
Q -187.1 -82.15 -187 -82.7 -186.8 -83.7 -186.7 -84.7 -186.65 -84.95 -186.5 -85.2 -186.4 -85.75 -186.4 -86.35 -186.35 -87.15 -186.4 -87.95 -186.4 -88.15 -186.55 -88.35 -190.35 -88.25 -193.7 -87.15 -193.75 -87.3 -193.8 -87.4 -193.85 -87.55 -193.9 -87.7 -193.95 -87.75 -193.95 -87.8 -194.15 -87.95 -194.3 -88.2 -194.4 -88.35 -194.45 -88.55 -194.45 -88.6 -194.45 -88.7 -194.55 -88.8 -194.65 -88.9 -194.75 -89.05 -194.9 -89.2 -194.95 -89.25 -195 -89.3 -195 -89.35 -195.05 -89.45 -195.7 -90.65 -196.75 -91.6 -197.1 -91.9 -197.35 -92.35 -197.55 -92.45 -197.75 -92.6 -197.8 -92.65 -197.85 -92.7 -198.85 -92.75 -199.85 -92.75 -199.9 -92.75 -199.95 -92.7 -200.05 -92.65 -200.2 -92.6 -200.3 -92.5 -200.45 -92.45 -201.65 -91.35 -202.55 -90.1 -203 -89.45 -203.55 -88.85 -203.65 -88.95 -203.75 -89 -204.7 -89.9 -205.45 -91 -205.7 -91.35 -205.95 -91.65 -206.1 -91.7 -206.2 -91.8 -206.3 -91.85 -206.35 -91.9 -206.4 -91.95 -206.4 -92.05 -206.45 -92.1 -206.5 -92.15 -206.5 -92.2 -206.55 -92.3 -206.7 -92.35 -206.8 -92.4 -208 -92.45 -209.25 -92.45
L -209.3 -92.4
Q -209.4 -92.3 -209.5 -92.2 -209.65 -92.05 -209.75 -91.85 -209.8 -91.75 -209.8 -91.7 -209.8 -91.65 -209.8 -91.55 -209.8 -91.5 -209.8 -91.45 -209.95 -91.3 -210.05 -91.1 -210.2 -90.8 -210.4 -90.55 -210.45 -90.5 -210.45 -90.45 -210.55 -90.05 -210.6 -89.7 -210.7 -89.1 -210.9 -88.55 -210.9 -88.5 -210.95 -88.45 -211 -88.05 -211.05 -87.65 -211.1 -87.15 -211.25 -86.65 -211.25 -86.6 -211.25 -86.55 -212.35 -87.1 -213.5 -87.75 -215.15 -88.7 -216.7 -89.7 -217.9 -89.7 -219.05 -89.65
L -219.1 -89.6
Q -219.1 -89.35 -219.1 -89.1 -219.1 -88.8 -219.1 -88.45 -219.1 -88.4 -219.1 -88.35 -219.05 -88.3 -219 -88.2 -218.95 -88.15 -218.95 -88.1 -218.9 -88.05 -218.9 -87.95 -218.9 -87.85 -218.85 -87.7 -218.7 -85.7 -218.1 -83.8 -217.8 -82.85 -217.75 -81.8 -217.95 -81.8 -218.15 -81.75 -218.35 -81.8 -218.5 -81.9 -221.5 -83.3 -224.6 -82.9 -224.6 -82.65 -224.6 -82.4 -224.6 -82.1 -224.55 -81.75 -224.55 -81.7 -224.55 -81.65 -224.3 -81.45 -224.2 -81.15 -223.8 -79.95 -223.3 -78.75 -223.1 -78.3 -222.8 -77.85 -222.75 -77.6 -222.65 -77.35 -222.5 -77.05 -222.4 -76.75 -222.35 -76.65 -222.3 -76.6 -225.85 -76.5 -229.3 -76.05 -229.3 -75.85 -229.3 -75.7 -229.3 -75.5 -229.25 -75.3 -229.25 -75.25 -229.25 -75.15 -229.15 -75.1 -229.1 -75.05 -229.05 -75 -229.05 -74.9 -228.9 -74.85 -228.75 -74.8 -228.65 -74.75 -228.55 -74.65 -228.55 -74.6 -228.55 -74.55 -228.5 -74.5 -228.5 -74.4 -227.4 -73.75 -226.4 -72.95 -226.2 -72.8 -225.95 -72.65 -225.9 -72.6 -225.85 -72.5 -225.65 -72.25 -225.3 -72.1 -225.25 -72.1 -225.2 -72.05 -225.15 -71.95 -225.1 -71.9 -224.95 -71.7 -224.8 -71.55 -224.7 -71.45 -224.65 -71.4 -225.2 -71.2 -225.8 -71.1 -226.541015625 -71.019921875 -227.25 -70.9
L -227.25 -70.95
Q -228.3 -70.95 -229.3 -71
L -229.3 -70.95
Q -229.35 -70.85 -229.4 -70.8 -229.45 -70.75 -229.5 -70.7 -229.5 -70.6 -229.5 -70.55 -229.5 -70.5 -229.5 -70.45 -229.5 -70.35 -229.55 -70.3 -229.6 -70.25 -229.6 -70.2 -229.6 -70 -229.65 -69.8 -229.95 -68.7 -230.1 -67.55 -230.1 -67.3 -230.15 -67.05 -229.8658203125 -67.05 -229.6 -67.05 -229.5927734375 -66.826953125 -229.6 -66.6 -229.65 -65.7 -229.35 -64.95 -229.3 -63.3 -228.85 -61.7 -228.6 -60.7 -228.55 -59.65 -228.4 -59.4 -228.35 -59.15 -228.05 -58.2 -227.7 -57.25 -227.7 -57.2 -227.7 -57.15 -226.85 -55.45 -225.85 -53.85 -222.8 -49.05 -217.35 -47 -203.7 -41.8 -190.05 -46.8 -182 -49.7 -178.95 -57.45 -179 -57.7 -178.95 -57.95 -178.8 -58.95 -178.5 -59.95 -178.45 -60.05 -178.35 -60.2 -178.3 -61.85 -178.05 -63.5 -177.85 -64.5 -177.6 -65.5 -177.6 -65.6 -177.6 -65.75 -177.6 -67 -177.55 -68.25 -177.55 -68.65 -177.8 -68.9 -177.8 -69 -177.8 -69.15 -177.8427734375 -69.40703125 -177.8 -69.7 -177.505078125 -69.6548828125 -177.2 -69.65 -177.2 -69.75 -177.2 -69.9 -177.2 -70 -177.2 -70.15 -177.2 -70.2 -177.2 -70.25 -178 -70.45 -178.8 -70.65 -180.25 -70.95 -181.7 -71.1 -181.7 -71.15 -181.7 -71.2 -181.05 -71.8 -180.25 -72.2 -180.2 -72.2 -180.15 -72.25 -180.1 -72.35 -180 -72.45 -179.7 -72.85 -179.15 -72.95
L -179.1 -73
Q -179.1 -73.05 -179.05 -73.1 -179 -73.2 -178.9 -73.35 -178.85 -73.4 -178.85 -73.45 -178.7 -73.5 -178.6 -73.6 -178.55 -73.65 -178.5 -73.7 -178.5 -73.75 -178.45 -73.8 -178.4 -73.95 -178.35 -74.1 -178.35 -74.15 -178.35 -74.2 -178.3 -74.4 -178.3 -74.6
M -198.9 -91
Q -198.65 -90.65 -198.4 -90.35 -197.75 -89.7 -197.15 -89 -197.1 -88.95 -197.05 -88.9 -197.05 -88.85 -197.05 -88.75 -197.05 -88.7 -197.05 -88.65 -196.95 -88.5 -196.85 -88.4 -196.75 -88.25 -196.6 -88.15 -196.55 -88.05 -196.5 -88 -196.5 -87.75 -196.35 -87.5 -196.05 -87.15 -195.85 -86.75 -195.85 -86.7 -195.75 -86.6 -195.75 -86.55 -195.75 -86.5 -195.65 -86.35 -195.6 -86.25 -195.5 -86.2 -195.45 -86.1 -195.4 -86.05 -195.3 -86.05 -191.7 -85.95 -188.4 -87.25 -188.35 -86.7 -188.5 -86.15 -188.65 -85.4 -188.8 -84.65 -188.85 -84.55 -188.9 -84.4 -188.85 -83.9 -188.9 -83.4 -189.05 -82.4 -189.1 -81.4 -189.1 -81.05 -188.9 -80.9 -185.45 -80.7 -182.5 -80.75 -182.6 -80.65 -182.7 -80.55 -183 -80.35 -183.15 -80 -183.15 -79.95 -183.2 -79.85 -183.35 -79.75 -183.45 -79.6 -184.3 -78.75 -185 -77.85 -185.15 -77.65 -185.3 -77.5 -185.4 -77.45 -185.5 -77.4 -185.55 -77.35 -185.6 -77.3 -185.65 -77.25 -185.7 -77.2 -185.7 -77.1 -185.7 -77.05 -185.75 -77 -185.85 -76.95 -185.9 -76.85 -186 -76.8 -186 -76.75 -186.05 -76.7 -186.05 -76.5 -186.05 -76.3 -186.05 -76.1 -186.05 -75.95 -186.05 -75.85 -186.05 -75.8 -185 -75.4 -183.75 -75.3 -182.1 -75.15 -180.75 -74.3 -180.8 -74.25 -180.85 -74.15 -180.95 -74.05 -181 -73.9 -181.05 -73.85 -181.1 -73.8 -181.2 -73.75 -181.3 -73.7 -181.45 -73.65 -181.55 -73.6 -181.6 -73.6 -181.7 -73.55 -181.75 -73.45 -181.85 -73.4 -182.85 -72.6 -183.9 -71.8 -184.1 -71.65 -184.3 -71.55 -184.35 -71.35 -184.35 -71.1 -184.3 -70.9 -184.3 -70.75 -184.3 -70.65 -184.25 -70.6 -184 -70.5 -183.8 -70.35 -183.65 -70.3 -183.55 -70.2 -181.751953125 -69.9234375 -180 -69.8 -180 -69.7173828125 -180 -69.65 -180 -69.55 -180 -69.5 -179.95 -69.4 -179.9 -69.25 -179.85 -69.2 -179.85 -69.15 -179.85 -69 -179.85 -68.9 -179.85 -68.5 -179.75 -68.15 -179.75 -68.05 -179.65 -68 -179.6 -67.8 -179.6 -67.6 -179.6 -67 -179.65 -66.35 -179.65 -66.3 -179.65 -66.25 -179.95 -64.65 -180.25 -63 -180.4 -62 -180.4 -60.95 -180.5 -60.7 -180.6 -60.45 -180.85 -59.45 -180.95 -58.45 -180.95 -58.3947265625 -180.95 -58.35 -180.95 -58.2630859375 -180.95 -58.2 -181.65 -56.25 -182.85 -54.6 -186.7 -49.2 -193.05 -47 -195.35 -46.2 -197.7 -45.75 -206.4 -44 -214.6 -47.2 -222.15 -50.1 -225.3 -57.35 -227.8818359375 -63.159375 -227.5 -69.65
L -227.5 -69.8
Q -227.5 -69.8296875 -227.5 -69.9 -224.786328125 -69.9587890625 -222.3 -70.75
L -222.3 -70.8
Q -222.3 -71 -222.3 -71.2 -222.3 -71.3 -222.3 -71.45 -222.3 -71.5 -222.3 -71.55 -222.4 -71.65 -222.45 -71.7 -222.5 -71.75 -222.55 -71.8 -222.55 -71.9 -222.55 -71.95 -222.55 -72 -222.6 -72.05 -222.7 -72.2 -222.85 -72.3 -223.05 -72.45 -223.15 -72.7 -223.15 -72.75 -223.2 -72.8 -223.3 -72.9 -223.4 -72.95 -223.7 -73.05 -223.9 -73.3
L -223.95 -73.35
Q -223.9591796875 -73.4091796875 -224 -73.45 -225.1 -74.1 -226.15 -74.85 -226.45 -75.05 -226.5 -75.35 -225.647265625 -75.433984375 -224.8 -75.55 -222.780078125 -75.708203125 -220.65 -75.9 -220.3564453125 -75.923046875 -220.05 -75.95
L -220.05 -76
Q -220.05 -76.22734375 -220.05 -76.45 -220.05 -76.6 -220.05 -76.8 -220.1 -76.85 -220.1 -76.95 -220.3 -77.15 -220.4 -77.45 -220.95 -78.85 -221.6 -80.2 -221.9 -80.8 -222 -81.45 -221.8552734375 -81.691015625 -221.35 -81.5
L -221.3 -81.45
Q -218.45546875 -80.1748046875 -215.5 -80.3 -215.408203125 -80.2970703125 -215.35 -80.3 -215.3 -80.85 -215.45 -81.4 -215.75 -82.35 -215.85 -83.4 -215.9 -83.7 -215.85 -84 -216.1 -84.45 -216.25 -84.9 -216.484375 -85.7205078125 -216.6 -86.6 -216.628125 -86.8095703125 -216.65 -87.05 -216.7 -87.45 -216.8 -87.8 -215.6 -87.2 -214.45 -86.5 -213.9 -86.1 -213.3 -85.7 -213.05 -85.65 -212.8 -85.55 -212.7 -85.55 -212.55 -85.5 -212.5 -85.45 -212.45 -85.35 -212.4 -85.3 -212.35 -85.25 -212.2 -85.2 -212.1 -85.15 -212 -85.1 -211.9 -85.05 -211.85 -85.05 -211.85 -85 -210.65 -84.95 -209.5 -85 -209.45 -85 -209.35 -85.05 -209.34453125 -85.109765625 -209.35 -85.2 -209.2890625 -85.659765625 -209.2 -86.15 -209.1 -86.85 -208.95 -87.55 -208.95 -87.6 -208.95 -87.65 -208.8 -88.05 -208.65 -88.45 -208.5 -89 -208.45 -89.55 -208.45 -89.6 -208.45 -89.7 -208.35 -89.85 -208.2 -90.05 -208 -90.3 -207.9 -90.55 -207.85 -90.65 -207.8 -90.7 -207.785546875 -90.679296875 -207.8 -90.65 -206.832421875 -89.333203125 -205.7 -88.25 -205.05 -87.65 -204.5 -87.05 -203.2 -87.05 -201.9 -87.1
L -201.85 -87.15
Q -201.8 -87.3 -201.8 -87.4 -201.75 -87.55 -201.7 -87.65 -201.7 -87.75 -201.7 -87.8 -200.8 -88.9 -200 -90 -199.6119140625 -90.560546875 -199.1 -90.9 -198.989453125 -90.9517578125 -198.9 -91 Z" stroke="none" fill="#000000"></path>

<path d="M -221.35 -81.5
Q -221.8552734375 -81.691015625 -222 -81.45 -221.9 -80.8 -221.6 -80.2 -220.95 -78.85 -220.4 -77.45 -220.3 -77.15 -220.1 -76.95 -220.1 -76.85 -220.05 -76.8 -220.05 -76.6 -220.05 -76.45 -220.05 -76.22734375 -220.05 -76
L -219.5 -76.1
Q -218.55 -76.15 -218.1 -76.15 -217.25 -76.2 -216.75 -76.1 -218.558203125 -78.56953125 -221.35 -81.5
M -213.25 -80.75
Q -214.538671875 -83.3275390625 -216.6 -86.6 -216.484375 -85.7205078125 -216.25 -84.9 -216.1 -84.45 -215.85 -84 -215.9 -83.7 -215.85 -83.4 -215.75 -82.35 -215.45 -81.4 -215.3 -80.85 -215.35 -80.3 -215.408203125 -80.2970703125 -215.5 -80.3 -214.2607421875 -79.76796875 -212.85 -79.35 -212.85 -79.7 -213.25 -80.75
M -207.9 -90.55
Q -208 -90.3 -208.2 -90.05 -208.35 -89.85 -208.45 -89.7 -208.45 -89.6 -208.45 -89.55 -208.5 -89 -208.65 -88.45 -208.8 -88.05 -208.95 -87.65 -208.95 -87.6 -208.95 -87.55 -209.1 -86.85 -209.2 -86.15 -209.2890625 -85.659765625 -209.35 -85.2
L -207.6 -84
Q -207.5 -83.9 -207.3 -83.85 -207.05 -83.75 -207 -83.85 -207.751171875 -87.271875 -207.8 -90.65 -207.785546875 -90.679296875 -207.8 -90.7 -207.85 -90.65 -207.9 -90.55
M -180.95 -58.2
Q -180.95 -58.2630859375 -180.95 -58.35 -181.85390625 -57.106640625 -183 -56 -188.05 -51.05 -196.85 -49.35 -201.75 -48.25 -206.1 -48.55 -211.1 -48.85 -215 -51 -219.4 -53.45 -221.9 -58.2 -224.45 -62.95 -224 -68
L -218.75 -69.85 -223.95 -73.35 -223.9 -73.3
Q -223.7 -73.05 -223.4 -72.95 -223.3 -72.9 -223.2 -72.8 -223.15 -72.75 -223.15 -72.7 -223.05 -72.45 -222.85 -72.3 -222.7 -72.2 -222.6 -72.05 -222.55 -72 -222.55 -71.95 -222.55 -71.9 -222.55 -71.8 -222.5 -71.75 -222.45 -71.7 -222.4 -71.65 -222.3 -71.55 -222.3 -71.5 -222.3 -71.45 -222.3 -71.3 -222.3 -71.2 -222.3 -71 -222.3 -70.8
L -222.3 -70.75
Q -224.786328125 -69.9587890625 -227.5 -69.9 -227.5 -69.8296875 -227.5 -69.8
L -227.5 -69.65
Q -227.8818359375 -63.159375 -225.3 -57.35 -222.15 -50.1 -214.6 -47.2 -206.4 -44 -197.7 -45.75 -195.35 -46.2 -193.05 -47 -186.7 -49.2 -182.85 -54.6 -181.65 -56.25 -180.95 -58.2
M -200.75 -86.75
Q -200.5 -86.75 -200.5 -87 -199.9490234375 -88.3560546875 -199.1 -90.9 -199.6119140625 -90.560546875 -200 -90 -200.8 -88.9 -201.7 -87.8 -201.7 -87.75 -201.7 -87.65 -201.75 -87.55 -201.8 -87.4 -201.3724609375 -87.1603515625 -201 -86.85
L -200.75 -86.75 Z" stroke="none" fill="#EE9B27"></path>

<path d="M -198.4 -90.35
Q -198.65 -90.65 -198.9 -91 -198.989453125 -90.9517578125 -199.1 -90.9 -199.9490234375 -88.3560546875 -200.5 -87 -200.5 -86.75 -200.75 -86.75
L -201 -86.85
Q -201.3724609375 -87.1603515625 -201.8 -87.4 -201.8 -87.3 -201.85 -87.15
L -201.9 -87.1
Q -203.2 -87.05 -204.5 -87.05 -205.05 -87.65 -205.7 -88.25 -206.832421875 -89.333203125 -207.8 -90.65 -207.751171875 -87.271875 -207 -83.85 -207.05 -83.75 -207.3 -83.85 -207.5 -83.9 -207.6 -84
L -209.35 -85.2
Q -209.34453125 -85.109765625 -209.35 -85.05 -209.45 -85 -209.5 -85 -210.65 -84.95 -211.85 -85 -211.85 -85.05 -211.9 -85.05 -212 -85.1 -212.1 -85.15 -212.2 -85.2 -212.35 -85.25 -212.4 -85.3 -212.45 -85.35 -212.5 -85.45 -212.55 -85.5 -212.7 -85.55 -212.8 -85.55 -213.05 -85.65 -213.3 -85.7 -213.9 -86.1 -214.45 -86.5 -215.6 -87.2 -216.8 -87.8 -216.7 -87.45 -216.65 -87.05 -216.628125 -86.8095703125 -216.6 -86.6 -214.538671875 -83.3275390625 -213.25 -80.75 -212.85 -79.7 -212.85 -79.35 -214.2607421875 -79.76796875 -215.5 -80.3 -218.45546875 -80.1748046875 -221.3 -81.45
L -221.35 -81.5
Q -218.558203125 -78.56953125 -216.75 -76.1 -217.25 -76.2 -218.1 -76.15 -218.55 -76.15 -219.5 -76.1
L -220.05 -76 -220.05 -75.95
Q -220.3564453125 -75.923046875 -220.65 -75.9 -222.780078125 -75.708203125 -224.8 -75.55 -225.647265625 -75.433984375 -226.5 -75.35 -226.45 -75.05 -226.15 -74.85 -225.1 -74.1 -224 -73.45 -223.9591796875 -73.4091796875 -223.95 -73.35
L -218.75 -69.85 -224 -68
Q -224.45 -62.95 -221.9 -58.2 -219.4 -53.45 -215 -51 -211.1 -48.85 -206.1 -48.55 -201.75 -48.25 -196.85 -49.35 -188.05 -51.05 -183 -56 -181.85390625 -57.106640625 -180.95 -58.35 -180.95 -58.3947265625 -180.95 -58.45 -180.85 -59.45 -180.6 -60.45 -180.5 -60.7 -180.4 -60.95 -180.4 -62 -180.25 -63 -179.95 -64.65 -179.65 -66.25 -179.65 -66.3 -179.65 -66.35 -179.6 -67 -179.6 -67.6 -179.6 -67.8 -179.65 -68 -179.75 -68.05 -179.75 -68.15 -179.85 -68.5 -179.85 -68.9 -179.85 -69 -179.85 -69.15 -179.85 -69.2 -179.9 -69.25 -179.95 -69.4 -180 -69.5 -180 -69.55 -180 -69.65 -180 -69.7173828125 -180 -69.8 -181.751953125 -69.9234375 -183.55 -70.2 -183.65 -70.3 -183.8 -70.35 -184 -70.5 -184.25 -70.6 -184.3 -70.65 -184.3 -70.75 -184.3 -70.9 -184.35 -71.1 -184.35 -71.35 -184.3 -71.55 -184.1 -71.65 -183.9 -71.8 -182.85 -72.6 -181.85 -73.4 -181.75 -73.45 -181.7 -73.55 -181.6 -73.6 -181.55 -73.6 -181.45 -73.65 -181.3 -73.7 -181.2 -73.75 -181.1 -73.8 -181.05 -73.85 -181 -73.9 -180.95 -74.05 -180.85 -74.15 -180.8 -74.25 -180.75 -74.3 -182.1 -75.15 -183.75 -75.3 -185 -75.4 -186.05 -75.8 -186.05 -75.85 -186.05 -75.95 -186.05 -76.1 -186.05 -76.3 -186.05 -76.5 -186.05 -76.7 -186 -76.75 -186 -76.8 -185.9 -76.85 -185.85 -76.95 -185.75 -77 -185.7 -77.05 -185.7 -77.1 -185.7 -77.2 -185.65 -77.25 -185.6 -77.3 -185.55 -77.35 -185.5 -77.4 -185.4 -77.45 -185.3 -77.5 -185.15 -77.65 -185 -77.85 -184.3 -78.75 -183.45 -79.6 -183.35 -79.75 -183.2 -79.85 -183.15 -79.95 -183.15 -80 -183 -80.35 -182.7 -80.55 -182.6 -80.65 -182.5 -80.75 -185.45 -80.7 -188.9 -80.9 -189.1 -81.05 -189.1 -81.4 -189.05 -82.4 -188.9 -83.4 -188.85 -83.9 -188.9 -84.4 -188.85 -84.55 -188.8 -84.65 -188.65 -85.4 -188.5 -86.15 -188.35 -86.7 -188.4 -87.25 -191.7 -85.95 -195.3 -86.05 -195.4 -86.05 -195.45 -86.1 -195.5 -86.2 -195.6 -86.25 -195.65 -86.35 -195.75 -86.5 -195.75 -86.55 -195.75 -86.6 -195.85 -86.7 -195.85 -86.75 -196.05 -87.15 -196.35 -87.5 -196.5 -87.75 -196.5 -88 -196.55 -88.05 -196.6 -88.15 -196.75 -88.25 -196.85 -88.4 -196.95 -88.5 -197.05 -88.65 -197.05 -88.7 -197.05 -88.75 -197.05 -88.85 -197.05 -88.9 -197.1 -88.95 -197.15 -89 -197.75 -89.7 -198.4 -90.35 Z" stroke="none" fill="#FEDF59"></path>
</g>
</g>
</g>
</g>
</g>

<g transform="matrix( 0.6392822265625, 0, 0, 0.63946533203125, 46.85,7.3)" id="Layer_3">
<g>
<g>
<g>
<path d="M -50.9 12.75
Q -52 12.65 -53.05 12.65 -59.75 13.45 -66.35 14 -66.45 14.25 -66.45 14.55 -66.7 16.9 -64.7 18.1 -62.2 19.5 -59.35 18.8 -59.25 18.7 -59.15 18.65 -59.05 18.6 -59 18.55 -58.35 18.4 -57.9 17.9 -57.55 17.5 -57.35 17.05 -57.1 16.6 -57 16.15 -56.85 15.7 -56.65 15.3 -56.65 15.2 -56.65 15.1 -56.65 15 -56.65 14.85 -56.65 14.5 -56.65 14.1 -56.65 14.05 -56.6 14 -55.75 13.9 -54.85 13.85 -52.8 13.65 -50.9 13.3
L -50.9 13.25
Q -50.9 13.05 -50.9 12.85 -50.9 12.8 -50.9 12.75
M -58.75 14.25
Q -58.5 14.6 -58.8 15.05 -58.85 15.1 -58.85 15.15 -58.9 15.3 -58.95 15.4 -59.1 15.7 -59.1 16 -59.3 16.3 -59.45 16.6 -59.45 16.65 -59.5 16.7 -59.6 16.85 -59.7 17 -60 17.25 -60.25 17.55 -60.35 17.6 -60.4 17.6 -60.5 17.65 -60.6 17.7 -60.75 17.7 -60.9 17.75 -60.9 17.8 -60.95 17.8 -61.05 17.85 -61.1 17.9 -61.15 17.95 -61.2 18 -61.35 18 -61.5 18 -63.5 17.5 -64.3 15.75 -64.35 15.65 -64.35 15.55 -64.5 15.15 -64.4 14.75 -62.65 14.65 -60.9 14.5 -59.85 14.4 -58.75 14.25
M -39.8 12.3
Q -37.45 12.2 -35.15 12 -35.15 11.95 -35.15 11.9 -35.15 11.7 -35.15 11.5
L -35.15 11.4
Q -36.3 11.3 -37.45 11.3 -43.45 11.2 -49.05 12 -49.15 12.1 -49.2 12.2 -49.2 12.25 -49.2 12.3 -49.2 12.35 -49.2 12.4
L -49.2 12.45
Q -49.2 12.5 -49.2 12.55 -49.2 12.95 -49.2 13.3 -49.2 13.35 -49.2 13.4 -49.2 13.45 -49.15 13.5 -49.05 13.65 -49.05 13.85 -49.05 13.9 -49.05 13.95 -48.8 14.3 -48.55 14.65 -48.55 14.7 -48.5 14.75 -48.4 14.85 -48.3 14.95 -47.8 15.35 -47.35 15.75 -47.3 15.8 -47.25 15.85 -43.55 17.1 -40.55 14.9 -40 14.5 -39.8 13.85 -39.8 13.65 -39.8 13.5 -39.8 13.45 -39.8 13.4 -39.8 13.3 -39.8 13.2 -39.8 13.15 -39.8 13.1 -39.8 12.75 -39.8 12.4 -39.8 12.35 -39.8 12.3
M -41.85 12.45
L -41.85 12.55
Q -41.85 12.6 -41.85 12.7 -41.85 12.75 -41.8 12.8 -41.8 12.85 -41.8 12.9 -41.75 12.95 -41.75 13 -41.8 13.1 -41.8 13.15 -41.8 13.2 -41.85 13.25 -41.9 13.35 -41.95 13.45 -41.95 13.5 -41.95 13.55 -42 13.65 -42 13.7 -42.3 14.05 -42.65 14.4 -44.05 15.7 -45.5 14.85 -46.6 14.25 -47.05 13.15 -47.1 13.05 -47.1 12.95 -47.1 12.9 -47.1 12.85 -47.1 12.8 -47.1 12.75
L -47.1 12.7
Q -46.55 12.55 -45.95 12.5 -44.6 12.35 -43.2 12.3 -42.5 12.35 -41.85 12.45 Z" stroke="none" fill="#000000"></path>

<path d="M -58.8 15.05
Q -58.5 14.6 -58.75 14.25 -59.85 14.4 -60.9 14.5 -62.65 14.65 -64.4 14.75 -64.5 15.15 -64.35 15.55 -64.35 15.65 -64.3 15.75 -63.5 17.5 -61.5 18 -61.35 18 -61.2 18 -61.15 17.95 -61.1 17.9 -61.05 17.85 -60.95 17.8 -60.9 17.8 -60.9 17.75 -60.75 17.7 -60.6 17.7 -60.5 17.65 -60.4 17.6 -60.35 17.6 -60.25 17.55 -60 17.25 -59.7 17 -59.6 16.85 -59.5 16.7 -59.45 16.65 -59.45 16.6 -59.3 16.3 -59.1 16 -59.1 15.7 -58.95 15.4 -58.9 15.3 -58.85 15.15 -58.85 15.1 -58.8 15.05
M -41.85 12.55
L -41.85 12.45
Q -42.5 12.35 -43.2 12.3 -44.6 12.35 -45.95 12.5 -46.55 12.55 -47.1 12.7
L -47.1 12.75
Q -47.1 12.8 -47.1 12.85 -47.1 12.9 -47.1 12.95 -47.1 13.05 -47.05 13.15 -46.6 14.25 -45.5 14.85 -44.05 15.7 -42.65 14.4 -42.3 14.05 -42 13.7 -42 13.65 -41.95 13.55 -41.95 13.5 -41.95 13.45 -41.9 13.35 -41.85 13.25 -41.8 13.2 -41.8 13.15 -41.8 13.1 -41.75 13 -41.75 12.95 -41.8 12.9 -41.8 12.85 -41.8 12.8 -41.85 12.75 -41.85 12.7 -41.85 12.6 -41.85 12.55 Z" stroke="none" fill="#EE9B27"></path>
</g>
</g>
</g>
</g>

<g transform="matrix( 0.6392822265625, 0, 0, 0.63946533203125, 46.85,7.3)" id="Layer_4">
<g>
<g>
<g>
<path d="M -41.3 21.65
Q -41.3 21.6 -41.35 21.55 -42.6 21.25 -43.95 21.1 -48 20.8 -52.05 21 -57 21.05 -61.95 21.75 -62.6 21.85 -63.2 21.95 -63.25 22 -63.3 22 -63.35 22.05 -63.45 22.1 -63.55 22.15 -63.65 22.25
L -63.65 22.3
Q -63.85 23.7 -62.65 24.7 -60.2 26.65 -57.1 27.4
L -57.1 27.5
Q -57.05 27.55 -57.05 27.6
L -57.05 27.65
Q -57.05 27.7 -57.05 27.75 -57.05 27.8 -57.05 27.85 -57.05 27.9 -57.05 27.95 -56.1 28 -55.1 28.05 -50.45 26.05 -45.45 24.45 -43.4 23.8 -41.5 22.85 -41.45 22.8 -41.4 22.75 -41.4 22.7 -41.35 22.65 -41.35 22.6 -41.3 22.55
L -41.25 22.5
Q -41.25 22.45 -41.25 22.4 -41.25 22.35 -41.25 22.3 -41.25 22.1 -41.25 21.95 -41.25 21.9 -41.25 21.85 -41.25 21.8 -41.25 21.75 -41.25 21.7 -41.3 21.65
M -45.5 21.85
Q -44.6 21.95 -43.8 22.2 -48.55 24.25 -53.65 25.95 -54.4 26.2 -55.15 26.25 -56.75 26.4 -58.35 25.65 -60.5 24.65 -61.4 22.8 -60.1 22.35 -58.65 22.2 -54.55 21.85 -50.45 21.75 -47.95 21.6 -45.5 21.85 Z" stroke="none" fill="#000000"></path>

<path d="M -43.8 22.2
Q -44.6 21.95 -45.5 21.85 -47.95 21.6 -50.45 21.75 -54.55 21.85 -58.65 22.2 -60.1 22.35 -61.4 22.8 -60.5 24.65 -58.35 25.65 -56.75 26.4 -55.15 26.25 -54.4 26.2 -53.65 25.95 -48.55 24.25 -43.8 22.2 Z" stroke="none" fill="#EE9B27"></path>
</g>
</g>
</g>
</g>
</g>
</svg>
