
<svg viewBox="0 0 112 184" height="184px" width="112px" y="0px" x="0px" preserveAspectRatio="none" xmlns:xlink="http://www.w3.org/1999/xlink" version="1.1" xmlns="http://www.w3.org/2000/svg">
<defs></defs>

<g id="fun_scrollers">
<g transform="matrix( 0.3621063232421875, 0, 0, 0.3621063232421875, -594.2,0.1)" id="svg"></g>

<g transform="matrix( 0.3621063232421875, 0, 0, 0.3621063232421875, -594.2,0.1)" id="Layer_2"></g>

<g transform="matrix( 0.3621063232421875, 0, 0, 0.3621063232421875, -594.2,0.1)" id="Layer_3"></g>

<g transform="matrix( 0.3621063232421875, 0, 0, 0.3621063232421875, -594.2,0.1)" id="Layer_2">
<g>
<g>
<g>
<path d="M 1856.4 104.8
L 1855.85 104.8 1855.4 104.8 1855.4 109.6 1853.5 109.6
Q 1844.4 113.75 1839.1 117 1831.55 121.65 1826.8 127.2 1822.8 132.9 1821 140.3 1819.5 146.4 1819.4 154.55
L 1819.15 203.55
Q 1819.2 214.9 1819 237.35
L 1818.9 255.65
Q 1818.8 272.2 1818.75 275.05 1818.6 286.05 1818.2 294.5 1817.65 304.3 1817.85 317.1 1818.1 341 1817.7 359.35 1817.1 389.1 1817.1 407.45
L 1817.1 426.85
Q 1817.1 435.65 1818.25 440.65 1820.8 447.5 1826.85 452.6 1830.5 454.4 1834.8 455.35 1838.2 456 1843.05 456.35
L 1909.3 457.4
Q 1926.05 457.7 1932.7 457.55 1934.8658203125 457.5005859375 1936.95 457.4
L 1936.95 449.9 1879.2 450.2
Q 1864.9 450.5 1857.7 450.45 1845.2 450.3 1836.35 448.45 1833.3 447.55 1831.7 446.35 1830.05 445.25 1828.05 442.65 1825.7 438.25 1824.7 434.9 1823.65 431.15 1823.6 426.55
L 1823.8 388.2
Q 1823.9 380.05 1823.9 376
L 1824.65 302.9
Q 1825.15 245.9 1825.65 224.05 1826.15 206.55 1826.15 193.95
L 1826.35 157.35
Q 1826.3 151.25 1826.5 148.75 1826.8 144.15 1828.1 140.4
L 1829.6 137.65
Q 1837.8 128 1841.15 125.4 1844.43515625 122.81171875 1855.95 117.05 1855.9978515625 117.026171875 1856.05 117
L 1859.35 115.4
Q 1858.1 115.05 1856.45 114.4
L 1856.15 112.25
Q 1856.15 112.15 1856.4 104.8 Z" stroke="none" fill="#706C84"></path>

<path d="M 1912.9 23.35
L 1909.15 23.35
Q 1884 22.9 1861.2 25.25
L 1857.75 25.65
Q 1850.15 26.45 1845.75 27.25 1839.05 28.35 1833.95 30.2 1833.1 31.85 1833 33 1832.85 34.1 1832.9 39.05
L 1832.9 41.75
Q 1832.85 43.7 1832.8 47.65 1832.9 51.05 1834.05 53.3 1836.95 54.7 1837.75 55 1838.6 55.25 1840.7 55.55
L 1863.85 56.05
Q 1862.65 59.6 1862.1 63.6 1861.65 66.55 1861.35 71.3 1860.85 79.75 1860.55 82.75 1859.8 89.1 1858.15 93.9 1856.3748046875 98.9978515625 1855.85 104.8
L 1856.4 104.8
Q 1856.15 112.15 1856.15 112.25
L 1856.45 114.4
Q 1858.1 115.05 1859.35 115.4
L 1856.05 117
Q 1855.9978515625 117.026171875 1855.95 117.05 1856.2150390625 116.9587890625 1856.45 116.9 1860.1 115.65 1863.55 115.3
L 1873.85 115.55
Q 1878.8 115.65 1888.7 115.7 1897.85 115.65 1907 115.75
L 1936.95 115.85 1936.95 110.8 1862.25 110.9
Q 1862.95 103.9 1863.2 102.25 1863.5 100.45 1864.5 97.1 1866.35 90.8 1866.95 80.5 1867.8 67.65 1869.7 59.85
L 1872.6 56.95
Q 1874.7 56.7 1875.5 56.6 1876.35 56.55 1879 56.55
L 1936.8 56.4
Q 1936.8751953125 56.4060546875 1936.95 56.4
L 1936.95 51.1 1873.5 52.25 1872.5 49.35 1839.8 48.55
Q 1837.05 42.45 1838.8 36.05 1884.15 22.2 1930.2 33.7 1930.2 34.05 1936.75 38.75 1936.85078125 38.83515625 1936.95 38.9
L 1936.95 29.5
Q 1932.0986328125 26.9041015625 1927.3 25.45 1920.85 23.55 1912.9 23.35 Z" stroke="none" fill="#7E1A34"></path>

<path d="M 1936.95 418.8
L 1936.95 400.6 1933.45 400.7
Q 1923.9 401 1909.05 400.45 1901.05 400.15 1893.25 400.05 1886.65 400.1 1879.9 399.85 1870.85 399.5 1866.35 399.45
L 1861.3 399.45
Q 1854.85 399.05 1853 399.2 1848.55 399.4 1845.2 401.2 1843.75 404.15 1843.4 405.25 1843.05 406.35 1842.6 409.85 1842.95 413.4 1843.25 414.5 1843.6 415.55 1845.25 418.5 1849 420.35 1851.7 420.55 1854.4 420.75 1866.95 420.3
L 1874.8 420.1
Q 1885.1 420.05 1895.35 419.7 1907.15 419.3 1916.6 419.2 1928.4455078125 419.003515625 1936.95 418.8
M 1936.95 239.9
Q 1932.486328125 240.0982421875 1928.7 240.4 1917.2 241.35 1901.45 241.45
L 1892.85 241.5
Q 1891.55 241.5 1869.45 241.3 1852.25 241.1 1852.05 241.5 1849.8 253.1 1853.25 260.65 1857.05 262.75 1859 263 1860.95 263.3 1869.05 262.8 1870.95 262.6 1874.8 262.5 1883.1 262.35 1889.75 261.95 1894.9 261.7 1905.25 261.35 1919.9 260.95 1922.85 260.8
L 1930.8 260.45
Q 1933.8453125 260.2958984375 1936.95 260.25
L 1936.95 239.9 Z" stroke="none" fill="#9DAEEA"></path>

<path d="M 1930.8 190.9
Q 1928.5 191.7 1925.9 193.55 1921.8 197.05 1920.7 198.45 1919.65 199.85 1917.45 204.65 1917.45 209.75 1919.4 214.25 1921.3 216.75 1922.15 217.3 1923 217.9 1926.15 219 1932.137109375 219.7603515625 1936.95 219.25
L 1936.95 189.9 1936.35 189.9
Q 1933.1 190.1 1930.8 190.9 Z" stroke="none" fill="#F1F3F7"></path>

<path d="M 1918.2 189.9
L 1916.45 192.1
Q 1914.2 194.8 1913.35 196.75 1912.45 198.75 1912.15 202.1
L 1912.2 206.65
Q 1912.2 210.05 1912.25 211.1 1912.35 212.2 1912.7 215.2 1913.65 217.5 1914.25 218.5 1914.95 219.4 1918 222.7 1920.6 224.35 1923.05 224.9 1925 225.35 1928.4 225.35
L 1931.05 225.25
Q 1934.4142578125 225.1712890625 1936.95 225.05
L 1936.95 219.25
Q 1932.137109375 219.7603515625 1926.15 219 1923 217.9 1922.15 217.3 1921.3 216.75 1919.4 214.25 1917.45 209.75 1917.45 204.65 1919.65 199.85 1920.7 198.45 1921.8 197.05 1925.9 193.55 1928.5 191.7 1930.8 190.9 1933.1 190.1 1936.35 189.9
L 1936.95 189.9 1936.95 183.4
Q 1931.2876953125 183.7208984375 1928.25 184.45 1922.6 185.85 1918.2 189.9 Z" stroke="none" fill="#5D5A76"></path>

<path d="M 1841.65 168.35
Q 1841.7 169.1 1842.3 171.3
L 1846.05 172.9 1850.95 174.2
Q 1857.6 177.2 1861.55 178.55 1867.5 180.65 1872.7 181.05 1880.3 181.45 1888.5 184.2 1897.1 187.3 1901.65 187.05 1906.1 186.9 1924.5 182.75
L 1936.95 179.9 1936.95 165.2
Q 1932.40078125 165.05 1928.2 165.05
L 1925.45 165
Q 1911.7 164.9 1897.9 165
L 1850.5 164.9
Q 1846.2 164.75 1842.25 165.5 1841.65 167.65 1841.65 168.35 Z" stroke="none" fill="#992A3F"></path>

<path d="M 1857.1 135.45
Q 1856.35 135.45 1855.7 135.45 1855.05 135.45 1854.45 135.45 1853.9 135.45 1853.4 135.45 1852.9 135.45 1852.45 135.45 1852.05 135.5 1851.7 135.5 1851.35 135.5 1851.1 135.5 1850.85 135.5 1850.65 135.5 1850.45 135.5 1850.3 135.5 1849.45 135.65 1848.65 135.8 1847.8 136 1847 136.25 1846.501953125 136.4056640625 1846.05 136.6
L 1845 136.6 1844.05 137.6 1844.05 137.65
Q 1843.7 138.95 1843.45 140.35 1842.9 143.1 1842.55 145.85 1842.4 147.2 1842.35 148.6 1842.25 150.05 1842.3 151.5 1842.3 152.85 1842.4 154.3 1842.45 155.75 1842.65 157.25 1842.85 158.7 1843.15 160.1 1843.25 160.5 1843.45 160.9 1843.55 161.15 1843.7 161.5 1843.75 161.65 1843.85 161.8 1843.9 161.85 1843.95 161.9 1844.05 162 1844.2 162.1 1844.35 162.2 1844.5 162.3 1844.75 162.45 1845 162.6 1845.2 162.75 1845.55 162.8 1846.25 163.15 1847.1 163.4
L 1881.8 163.25
Q 1887.2 163.05 1892.65 162.95 1895.3 162.9 1897.95 162.95 1900.55 162.95 1903.15 162.95 1905.95 162.95 1908.95 163.25 1910.65 163.2 1912.3 163.25 1913.05 163.25 1913.8 163.3 1914.45 163.3 1915.1 163.3 1916.2 163.25 1917.3 163.25 1918.9 163.25 1920.5 163.25 1921.95 163.15 1923.4 163.1 1924.75 163.05 1926.15 163.05 1927.4 163 1928.65 162.95 1929.8 162.95 1930.95 162.95 1932 162.9 1933.05 162.8 1934 162.75 1935 162.75 1935.8 162.65 1936.6 162.6 1936.775 162.5951171875 1936.95 162.6
L 1936.95 135.85 1857.1 135.45 Z" stroke="none" fill="#110F1A"></path>

<path d="M 1856.45 116.9
Q 1856.2150390625 116.9587890625 1855.95 117.05 1844.43515625 122.81171875 1841.15 125.4 1837.8 128 1829.6 137.65
L 1828.1 140.4
Q 1826.8 144.15 1826.5 148.75 1826.3 151.25 1826.35 157.35
L 1826.15 193.95
Q 1826.15 206.55 1825.65 224.05 1825.15 245.9 1824.65 302.9
L 1823.9 376
Q 1823.9 380.05 1823.8 388.2
L 1823.6 426.55
Q 1823.65 431.15 1824.7 434.9 1825.7 438.25 1828.05 442.65 1830.05 445.25 1831.7 446.35 1833.3 447.55 1836.35 448.45 1845.2 450.3 1857.7 450.45 1864.9 450.5 1879.2 450.2
L 1936.95 449.9 1936.95 418.8
Q 1928.4455078125 419.003515625 1916.6 419.2 1907.15 419.3 1895.35 419.7 1885.1 420.05 1874.8 420.1
L 1866.95 420.3
Q 1854.4 420.75 1851.7 420.55 1849 420.35 1845.25 418.5 1843.6 415.55 1843.25 414.5 1842.95 413.4 1842.6 409.85 1843.05 406.35 1843.4 405.25 1843.75 404.15 1845.2 401.2 1848.55 399.4 1853 399.2 1854.85 399.05 1861.3 399.45
L 1866.35 399.45
Q 1870.85 399.5 1879.9 399.85 1886.65 400.1 1893.25 400.05 1901.05 400.15 1909.05 400.45 1923.9 401 1933.45 400.7
L 1936.95 400.6 1936.95 260.25
Q 1933.8453125 260.2958984375 1930.8 260.45
L 1922.85 260.8
Q 1919.9 260.95 1905.25 261.35 1894.9 261.7 1889.75 261.95 1883.1 262.35 1874.8 262.5 1870.95 262.6 1869.05 262.8 1860.95 263.3 1859 263 1857.05 262.75 1853.25 260.65 1849.8 253.1 1852.05 241.5 1852.25 241.1 1869.45 241.3 1891.55 241.5 1892.85 241.5
L 1901.45 241.45
Q 1917.2 241.35 1928.7 240.4 1932.486328125 240.0982421875 1936.95 239.9
L 1936.95 225.05
Q 1934.4142578125 225.1712890625 1931.05 225.25
L 1928.4 225.35
Q 1925 225.35 1923.05 224.9 1920.6 224.35 1918 222.7 1914.95 219.4 1914.25 218.5 1913.65 217.5 1912.7 215.2 1912.35 212.2 1912.25 211.1 1912.2 210.05 1912.2 206.65
L 1912.15 202.1
Q 1912.45 198.75 1913.35 196.75 1914.2 194.8 1916.45 192.1
L 1918.2 189.9
Q 1922.6 185.85 1928.25 184.45 1931.2876953125 183.7208984375 1936.95 183.4
L 1936.95 179.9 1924.5 182.75
Q 1906.1 186.9 1901.65 187.05 1897.1 187.3 1888.5 184.2 1880.3 181.45 1872.7 181.05 1867.5 180.65 1861.55 178.55 1857.6 177.2 1850.95 174.2
L 1846.05 172.9 1842.3 171.3
Q 1841.7 169.1 1841.65 168.35 1841.65 167.65 1842.25 165.5 1846.2 164.75 1850.5 164.9
L 1897.9 165
Q 1911.7 164.9 1925.45 165
L 1928.2 165.05
Q 1932.40078125 165.05 1936.95 165.2
L 1936.95 162.6
Q 1936.775 162.5951171875 1936.6 162.6 1935.8 162.65 1935 162.75 1934 162.75 1933.05 162.8 1932 162.9 1930.95 162.95 1929.8 162.95 1928.65 162.95 1927.4 163 1926.15 163.05 1924.75 163.05 1923.4 163.1 1921.95 163.15 1920.5 163.25 1918.9 163.25 1917.3 163.25 1916.2 163.25 1915.1 163.3 1914.45 163.3 1913.8 163.3 1913.05 163.25 1912.3 163.25 1910.65 163.2 1908.95 163.25 1905.95 162.95 1903.15 162.95 1900.55 162.95 1897.95 162.95 1895.3 162.9 1892.65 162.95 1887.2 163.05 1881.8 163.25
L 1847.1 163.4
Q 1846.25 163.15 1845.55 162.8 1845.2 162.75 1845 162.6 1844.75 162.45 1844.5 162.3 1844.35 162.2 1844.2 162.1 1844.05 162 1843.95 161.9 1843.9 161.85 1843.85 161.8 1843.75 161.65 1843.7 161.5 1843.55 161.15 1843.45 160.9 1843.25 160.5 1843.15 160.1 1842.85 158.7 1842.65 157.25 1842.45 155.75 1842.4 154.3 1842.3 152.85 1842.3 151.5 1842.25 150.05 1842.35 148.6 1842.4 147.2 1842.55 145.85 1842.9 143.1 1843.45 140.35 1843.7 138.95 1844.05 137.65
L 1844.05 137.6 1845 136.6 1846.05 136.6
Q 1846.501953125 136.4056640625 1847 136.25 1847.8 136 1848.65 135.8 1849.45 135.65 1850.3 135.5 1850.45 135.5 1850.65 135.5 1850.85 135.5 1851.1 135.5 1851.35 135.5 1851.7 135.5 1852.05 135.5 1852.45 135.45 1852.9 135.45 1853.4 135.45 1853.9 135.45 1854.45 135.45 1855.05 135.45 1855.7 135.45 1856.35 135.45 1857.1 135.45
L 1936.95 135.85 1936.95 115.85 1907 115.75
Q 1897.85 115.65 1888.7 115.7 1878.8 115.65 1873.85 115.55
L 1863.55 115.3
Q 1860.1 115.65 1856.45 116.9 Z" stroke="none" fill="#F5F7F9"></path>

<path d="M 1875.5 56.6
Q 1874.7 56.7 1872.6 56.95
L 1869.7 59.85
Q 1867.8 67.65 1866.95 80.5 1866.35 90.8 1864.5 97.1 1863.5 100.45 1863.2 102.25 1862.95 103.9 1862.25 110.9
L 1936.95 110.8 1936.95 56.4
Q 1936.8751953125 56.4060546875 1936.8 56.4
L 1879 56.55
Q 1876.35 56.55 1875.5 56.6 Z" stroke="none" fill="#E21F2D"></path>

<path d="M 1936.75 38.75
Q 1930.2 34.05 1930.2 33.7 1884.15 22.2 1838.8 36.05 1837.05 42.45 1839.8 48.55
L 1872.5 49.35 1873.5 52.25 1936.95 51.1 1936.95 38.9
Q 1936.85078125 38.83515625 1936.75 38.75 Z" stroke="none" fill="#DF202E"></path>
</g>
</g>
</g>
</g>

<g transform="matrix( 0.3621063232421875, 0, 0, 0.3621063232421875, -594.2,0.1)" id="Layer_3">
<g>
<g>
<g>
<path d="M 1918.65 484.9
Q 1919.05 485.55 1920.45 485.55
L 1936.95 485.6 1936.95 476
Q 1934.9681640625 476.028515625 1932.4 476 1926.95 475.95 1925.2 476 1922.65 476 1920.5 476.2 1919.2 476.3 1918.8 476.8 1918.4 477.3 1918.4 478.4
L 1918.45 483.85
Q 1918.45 484.6 1918.65 484.9
M 1824.65 433.65
Q 1825.7 431.6 1824.9 427.4 1823.95 427.55 1821 427.2 1818.45 427 1817.15 427.9 1816.45 428.4 1815.4 430.1 1813.75 432.85 1811.7 435.45 1811.5 435.75 1809.45 438.25 1808.1 439.95 1807.35 441.1 1802.8 447.9 1802.65 456
L 1795.95 456.05
Q 1795.35 456.05 1795.1 456.3 1794.85 456.5 1794.85 457.2
L 1794.85 465.55
Q 1794.85 466.75 1795.25 467.15 1795.7 467.55 1796.75 467.55
L 1801.35 467.6
Q 1803.5 467.7 1805.6 467.6 1807.95 467.5 1814.25 466.65 1815.05 466.55 1815.35 466.2 1815.7 465.9 1815.7 464.9
L 1815.75 461.2
Q 1815.85 458.05 1815.2 456.4 1814.75 455.2 1813.85 454.45 1812.85 453.55 1811.7 453.5 1812.2 451.05 1814.05 448.3 1814.45 447.75 1817.65 443.65 1819.25 441.65 1822.15 437.35
L 1824.65 433.65
M 1870.15 463.8
Q 1870.3 464.6 1870.8 466.1 1871.95 469.4 1873.75 473.65
L 1855.75 473.75
Q 1852 473.75 1849.65 474.1 1848.85 474.2 1848.6 474.45 1848.1 474.95 1848.3 476.25 1845.85 476.4 1842.65 476.9
L 1842.65 483.6
Q 1869.65 484.5 1883.1 484.55 1883.55 480.55 1883.3 476.25 1883.2 474.3 1882.9 472.9 1882.55 471.15 1881.45 468.6
L 1877.05 457.4 1870 457.3
Q 1870.1 458.2 1870 460.55 1869.95 462.6 1870.15 463.8 Z" stroke="none" fill="#000000"></path>
</g>
</g>
</g>
</g>

<g transform="matrix( 0.3621063232421875, 0, 0, 0.3621063232421875, -594.2,0.1)" id="MergedLayer_3">
<g>
<g>
<g>
<path d="M 1847.6 203.65
Q 1847.52265625 201.5984375 1847.8 200.15 1846.7576171875 200.289453125 1845.7 200.45
L 1845.75 199.05
Q 1844.8 199.2 1837.6 198.95 1832.7 198.8 1830.25 200.65 1828.15 202.3 1826.5 206.8 1821.4 221 1818.95 238.1 1816.95 252.25 1816.5 270.15 1816.25 279.35 1816.55 288.5 1816.7 291.8 1817.55 304.85 1818.15 314.9 1818.15 321.2 1818.15 324.85 1817.9 331.45 1817.7 338.55 1817.65 341.75 1817.6 346.5 1818.1 364.75 1818.55 378.9 1817.85 387.75 1827.55 387.75 1843.55 386.75 1863 385.6 1869.25 385.4 1885.85 384.9 1919.2 385.35 1928.5611328125 385.318359375 1936.95 384.9
L 1936.95 377.65
Q 1926.9955078125 378.375 1915.6 378.5 1884.45 378.15 1868.9 378.4 1851.2 378.7 1825.45 380.65 1825.15 369.85 1825.2 335.25 1825.2 307 1824.2 289.95 1823.8 282.95 1823.65 279.5 1823.35 273.5 1823.45 269 1823.6 262.05 1825.2 249.8 1826.95 237.05 1828.7 229.25 1831.3 218.1 1835.35 209.55 1836.05 208.15 1836.9 207.35 1838.05 206.35 1839.2 206.7
L 1839.2 208.35
Q 1844.2 208.5 1851.45 207.55 1851.59375 207.53046875 1851.75 207.5 1850.9859375 207.336328125 1850.25 207.15 1848.95 206.85 1848.4 206.3 1847.7 205.6 1847.6 203.65
M 1936.95 206.1
L 1936.95 199 1935.75 198.95
Q 1933.7453125 199.9443359375 1933.25 201.25 1932.85 202.25 1933.1 204.3 1933.21484375 205.2642578125 1933.2 205.95 1935.05703125 206.0458984375 1936.95 206.1 Z" stroke="none" fill="#6C6C87"></path>

<path d="M 1848.1 194.6
Q 1848.3 196.7 1849.8 197 1848.32890625 197.8275390625 1847.8 200.15 1847.52265625 201.5984375 1847.6 203.65 1847.7 205.6 1848.4 206.3 1848.95 206.85 1850.25 207.15 1850.9859375 207.336328125 1851.75 207.5 1858.7017578125 209.1087890625 1867.45 209.65 1873.25 210 1884.9 210
L 1926.65 209.95
Q 1931.9 209.95 1932.95 207.35 1933.16640625 206.836328125 1933.2 205.95 1933.21484375 205.2642578125 1933.1 204.3 1932.85 202.25 1933.25 201.25 1933.7453125 199.9443359375 1935.75 198.95 1935.9609375 198.8544921875 1936.2 198.75 1936.5951171875 198.566015625 1936.95 198.4
L 1936.95 187.75
Q 1934.8796875 187.419921875 1932.55 187.25 1929.7 187.05 1923.9 187.05 1906.4 186.95 1892.4 187.1 1887.45 187.1 1885.5 186.8 1884.55 186.65 1879.75 185.45 1876.25 184.6 1873.95 184.65
L 1873.95 182.6
Q 1867.75 181.8 1861.45 183.1 1855.2 184.4 1849.75 187.55 1848.5 188.25 1848.2 189 1848 189.45 1848.05 190.2 1848.1 190.6 1848.2 191.4 1848.2 191.9 1848.15 193 1848.05 194.05 1848.1 194.6
M 1865.75 191
L 1865.75 191.75
Q 1868.2 191.45 1872 192.4 1877.15 193.75 1878.2 193.9 1880 194.1 1882.25 194.1
L 1924.7 194.3
Q 1922 194.85 1920 196.05
L 1920 202.75 1879.75 202.75
Q 1875.4 202.75 1873.25 202.6 1871.7 202.45 1867.8 201.9 1864.35 201.4 1862.35 201.3 1862.55 200.85 1863.4 200.8 1864.35 200.7 1864.65 200.45 1865.05 200.05 1865.05 199.05
L 1865.05 193.7
Q 1865.1 193 1864.85 192.45 1864.55 191.75 1863.95 191.8 1864.55 190.75 1865.75 191 Z" stroke="none" fill="#7F7FA4"></path>

<path d="M 1865.75 191.75
L 1865.75 191
Q 1864.55 190.75 1863.95 191.8 1864.55 191.75 1864.85 192.45 1865.1 193 1865.05 193.7
L 1865.05 199.05
Q 1865.05 200.05 1864.65 200.45 1864.35 200.7 1863.4 200.8 1862.55 200.85 1862.35 201.3 1864.35 201.4 1867.8 201.9 1871.7 202.45 1873.25 202.6 1875.4 202.75 1879.75 202.75
L 1920 202.75 1920 196.05
Q 1922 194.85 1924.7 194.3
L 1882.25 194.1
Q 1880 194.1 1878.2 193.9 1877.15 193.75 1872 192.4 1868.2 191.45 1865.75 191.75
M 1933.2 205.95
Q 1933.16640625 206.836328125 1932.95 207.35 1931.9 209.95 1926.65 209.95
L 1884.9 210
Q 1873.25 210 1867.45 209.65 1858.7017578125 209.1087890625 1851.75 207.5 1851.59375 207.53046875 1851.45 207.55 1844.2 208.5 1839.2 208.35
L 1839.2 206.7
Q 1838.05 206.35 1836.9 207.35 1836.05 208.15 1835.35 209.55 1831.3 218.1 1828.7 229.25 1826.95 237.05 1825.2 249.8 1823.6 262.05 1823.45 269 1823.35 273.5 1823.65 279.5 1823.8 282.95 1824.2 289.95 1825.2 307 1825.2 335.25 1825.15 369.85 1825.45 380.65 1851.2 378.7 1868.9 378.4 1884.45 378.15 1915.6 378.5 1926.9955078125 378.375 1936.95 377.65
L 1936.95 206.1
Q 1935.05703125 206.0458984375 1933.2 205.95 Z" stroke="none" fill="#DEDFE9"></path>
</g>
</g>
</g>
</g>

<g transform="matrix( 0.3621063232421875, 0, 0, 0.3621063232421875, -594.2,0.1)" id="Layer_4">
<g>
<g>
<g>
<path d="M 1848.05 362.35
Q 1850.6 362.35 1853.15 361.95 1861.05 360.65 1870 359.85 1870.4 359.8 1870.8 359.75 1876.25 359.4 1881.75 359.25 1902.4 358.45 1923.5 358.05 1926.45 357.95 1929.3 357.55 1932.7443359375 357.0908203125 1936.95 357.3
L 1936.95 354.7
Q 1923.2890625 354.2748046875 1909.6 354.2 1887.75 354.05 1867.9 355.95 1866.35 356.15 1864.9 356.3 1859.75 356.85 1854.7 357.55 1854.3 357.6 1853.9 357.65 1846.85 358.95 1838.55 358.7 1838 361.8 1840.05 361.95 1844.05 362.35 1848.05 362.35
M 1917.05 260.25
Q 1913.65 258.6 1913.7 262.75 1913.8 266.2 1912.5 267.9 1912.25 276.55 1913.9 283.25 1915.5 289.75 1918.4 295 1919.6 296 1922.05 296.05 1922.4 296.05 1922.45 296.45 1922.6 300.6 1926.45 300.85 1928.8 300.6 1927.6 297.3 1927 295.5 1926.3 293.55 1925.1 289.7 1924 285.55 1923.3 282.75 1922.5 279.65 1920.25 271.1 1918.4 262 1918.4 261.3 1918 260.95 1917.65 260.55 1917.05 260.25
M 1868.2 245.2
Q 1868.2 245.55 1868.15 245.95 1867.85 249.95 1867.45 253.9 1867.25 255.55 1867.1 257.6 1866.4 267.9 1864.6 277.35 1864.3 279.05 1864.5 281.05 1864.75 284.55 1863.45 286.2 1863.45 291.7 1862.9 297.15 1862.55 301 1864.9 301.55 1867.45 302.3 1867.45 300.1 1867.45 299.7 1867.6 299.3 1867.85 298.3 1868.2 297.35 1869.15 294.85 1871.5 293.5 1872.7 273.85 1872.9 253.25 1873 242.3 1874.15 232.05 1874.65 228.15 1872.25 227.6 1871.85 227.6 1871.5 227.6 1870.75 227.6 1870.65 227.9 1870.05 229.05 1869.65 230.4 1867.9 236.45 1868.2 245.2 Z" stroke="none" fill="#000000"></path>
</g>
</g>
</g>
</g>

<g transform="matrix( 0.3621063232421875, 0, 0, 0.3621063232421875, -594.2,0.1)" id="Layer_5"></g>

<g transform="matrix( 0.3621063232421875, 0, 0, 0.3621063232421875, -594.2,0.1)" id="Layer_6"></g>

<g transform="matrix( 0.3621063232421875, 0, 0, 0.3621063232421875, -594.2,0.1)" id="MergedLayer_1">
<g>
<g>
<g>
<path d="M 1637.75 139.35
Q 1637.6 131.9 1635.6 127.6
L 1630.2 127.4 1630.2 480.4 1641.95 480.4 1641.95 474.85
Q 1643.6 475.45 1645.4 474.55 1647.05 473.7 1648 472.1 1649.35 469.9 1649.55 465.15 1649.95 457.5 1649.75 439.9 1649 380.4 1653.2 321.05 1653.45 386.35 1661.25 440.5 1663.95 459.25 1670.8 496
L 1677.65 496.25
Q 1675.7 468.35 1673.9 412.65
L 1672.1 355.55
Q 1670.7 311.25 1670.35 290.45 1669.7 254.15 1670.45 225.3 1670.7 215.1 1670.05 209.85 1668.95 201.35 1665.15 195.75
L 1657.9 195.8 1652 230.7 1649.55 210.65 1645.8 210.3
Q 1646.2 206.35 1644.85 199.6 1643.3 191.85 1643.2 188.9 1643.1 186.45 1643.6 181.5 1644.1 176.65 1643.95 174.15 1643.7 169.95 1641.3 162.85 1638.7 155 1638.2 151.6 1637.9 149.7 1637.75 139.35
M 1662.75 215.6
Q 1663.15 226.9 1663.2 242.4 1663.2 251.7 1663.1 270.3 1663.1 304.8 1664.65 347.85 1665.55 373.65 1668 425.4 1662.5 401.1 1661.35 354.65 1660.7 329.15 1660.1 318.9 1658.9 299 1656.05 283.55 1654.3 274.15 1654.2 273.55 1653.25 267.85 1653.3 263.45 1653.35 255.45 1658.3 239 1662.75 224.15 1662.75 215.6
M 1633.45 91.1
Q 1632.5515625 86.562890625 1630.2 78.95
L 1630.2 105.55
Q 1632.164453125 105.902734375 1634.05 105.25 1634.95 98.9 1633.45 91.1 Z" stroke="none" fill="#000000"></path>
</g>
</g>
</g>
</g>

<g transform="matrix( 0.3621063232421875, 0, 0, 0.3621063232421875, -594.2,0.1)" id="Layer_2"></g>
</g>
</svg>
