
<svg viewBox="0 0 272 172" height="172px" width="272px" y="0px" x="0px" preserveAspectRatio="none" xmlns:xlink="http://www.w3.org/1999/xlink" version="1.1" xmlns="http://www.w3.org/2000/svg">
<defs></defs>

<g id="Layer_2">
<g>
<g>
<g>
<path d="M 64.4 123.25
Q 64.35 123.1 64.35 122.95 64.3 122.65 64.3 122.3 63.7 121.4 63.3 120.45 63.3 120.6 63.3 120.7 63.3 122.4 63.9 123.9 63.95 126.3 64.5 128.65 64.95 130.5 64.9 132.5 65 132.6 65.05 132.75 65.1 132.85 65.15 133 65.15 133.1 65.15 133.25 65.05 134.25 65.35 135.2 65.45 135.45 65.55 135.7 65.55 135.8 65.55 135.95 65.55 136.65 65.55 137.4 65.55 137.55 65.55 137.65 65.5671875 137.67578125 65.55 137.7 65.65859375 137.8171875 65.7 137.9 65.8 138.4 65.8 138.9 65.8 139 65.8 139.15 65.9 139.25 65.95 139.35 66.05 139.5 66.1 139.6 66.15 139.75 66.15 139.85 66.2 140.5 66.2 141.1 66.2 141.2 66.2 141.35 66.2 141.45 66.25 141.55 66.5 141.85 66.8 142.1 66.8 142.2 66.85 142.3 67.1 142.95 67.4 143.55 67.45 143.65 67.5 143.8 68.85 145.15 69.85 146.7 70.55 147.85 71.35 148.95 71.65 149.2 71.95 149.45 72.75 150.25 73.65 150.9 73.75 151.05 73.8 151.2 73.95 151.4 74.05 151.65 74.8 152.05 75.4 152.6 76.15 153.3 77 153.85 77.05 154 77.1 154.1 77.163671875 154.1955078125 77.2 154.25 78.872265625 154.2666015625 80.55 154.25 92.8779296875 154.1568359375 105.5 153.8 110.080078125 153.6697265625 114.65 153.55 97.2833984375 149.455859375 81.35 140.75 80.9462890625 140.5283203125 80.55 140.3 78.47890625 139.1013671875 76.6 137.7 71.2169921875 133.6298828125 67.6 127.85 67.3 126.85 66.75 125.85 65.85 124.3 64.4 123.25
M 210.85 113.55
Q 210.3 115.45 209.85 117.35 209.05 120.6 207.35 123.45 207.35 123.6 207.35 123.75 207.2 124.2 207.25 124.7 207.25 124.85 207.25 125 206.9 125.55 206.55 126.15 205.9 127.35 205.6 128.65 205.6 128.85 205.55 129 203.95 131.85 201.7 134.25 200.3 135.85 199.1 137.6 198.9833984375 137.65 198.85 137.7 198.65 137.8 198.45 137.9 197.65 138.3 197.25 139.1 185.13515625 148.3666015625 170.65 152.85 185.4994140625 152.49609375 200.2 151.85 200.3408203125 151.8107421875 200.45 151.75 200.55 151.6 200.65 151.5 201.15 150.65 201.6 149.75 201.65 149.65 201.7 149.55 202.5 148.9 202.95 148 203.45 147 204.3 146.35 204.35 146.2 204.4 146.1 204.55 145.75 204.5 145.35 205.2 144.6 205.65 143.6 206.2 142.4 207 141.4 207 141.3 207.05 141.2 207.05 141.05 207.1 140.95 207.2 140.8 207.3 140.7 207.85 140 208.35 139.2 208.35 139.1 208.35 138.95 208.35 138.6 208.35 138.25 208.4 138.1 208.5 138 208.65 137.85 208.8 137.7 208.9 137.6 209 137.5 209 137.35 209 137.25 209 137 209 136.75 209.55 135.95 209.7 135.05 209.95 133.7 209.95 132.35 210.05 132.2 210.15 132.1 210.2 131.95 210.3 131.85 210.35 131.7 210.35 131.6 210.4 131 210.4 130.35 210.4 130.25 210.4 130.1 210.4 130 210.5 129.9 210.55 129.75 210.65 129.6 210.65 124.2 211.1 118.8 211.25 116.15 210.85 113.55
M 66.55 93.15
Q 66.6 93.25 66.6 93.3 66.6 93.75 66.8 94.1 67.05 97.25 67.4 100.4 67.55 102.1 67.7 103.75 69.35 103.75 71 104.1 71.1 104.1 71.25 104.15 73.8 103.85 76.4 103.5 76.3 101.95 74.55 100.4 73.3 99.25 72.5 97.75 69.9 94.7 66.95 92 66.7 92.55 66.55 93.15
M 79 72.35
Q 78.7 71.45 78.35 70.6 78.2 74.55 78.25 78.5 78.25 81.45 78.4 84.35 79.479296875 84.059375 80.55 83.75 82.05859375 83.2970703125 83.55 82.8 81.9404296875 79.6123046875 80.55 76.25 79.7375 74.34140625 79 72.35
M 194.15 98.55
Q 194.15 98.65 194.1 98.7 193.4 99.05 192.65 99.3 198.45 100.25 204.55 101.15 204.55 98.6 204.55 96 204.55 94.8 204.55 93.55 203.45 94 202.15 94.2 201.4 94.3 200.6 94.45 200.45 94.6 200.3 94.75 200.15 94.9 200 95 199.9 95.05 199.8 95.05 198.65 95.4 197.55 95.9 197.45 96.05 197.3 96.15 196.85 96.55 196.4 97.05 196.3 97.1 196.2 97.1 195.8 97.25 195.4 97.35 195.25 97.5 195.05 97.6 194.35 97.9 194.15 98.55
M 196.7 76.7
Q 196.7 76.55 196.65 76.45 195.6 77.85 194.65 79.35 193.65 80.95 192.4 82.4 192.1 82.55 191.85 82.75 191.75 82.85 191.7 83 194.05 84.05 197 85.3 197 85.1 197 84.95 197.15 83.2 196.7 81.6 196.7 80.7 196.7 79.85 196.7 78.25 196.7 76.7
M 176.35 125.4
Q 182.95 121.6 188.4 116.25 174.35 122.65 158.7 124.5 154.289453125 125.03046875 149.9 125.25 130.701171875 126.3916015625 111.9 122.2 106.35 120.95 101.3 118.4 98.75 117.1 96.3 116.15 96.05 115.85 95.9 115.55 95.8 115.45 95.7 115.35 95.15 115.15 94.45 114.9 94.4 114.8 94.35 114.7 94.25 114.6 94.15 114.5 93.15 114.1 92.05 113.9 91.05 113.05 89.9 112.4 89.65 112.3 89.6 112.45 94.05 123.65 105.35 128.7 113.5 132.3 122.2 134.2 129 135.7 135.95 135.95 143.0384765625 136.186328125 149.9 135.05 154.6546875 134.282421875 159.3 132.85 168.25 130.1 176.35 125.4 Z" stroke="none" fill="#EE9D33"></path>

<path d="M 195.3 70.25
L 195.3 70.3
Q 195.35 70.35 195.45 70.45 195.15 70.4 194.85 70.4 195.05 72 195.7 73.55 195.55 73.65 195.4 73.8 195.35 74.25 195.25 74.7 195.25 74.85 195.2 75 193.95 76.75 192.75 78.45 190.9 81.05 189.25 83.3 196.95 86.5 204.6 91.5 203.85 91.85 203.3 92.15 201.2 93.3 198.75 93.75 197.8 94.45 196.65 94.8 195.3 95.25 194.35 96.3 193.95 96.4 193.55 96.5 192.85 97.05 192.25 97.7 192.15 97.8 192.1 97.95 191.6 98.05 191.1 98.2 191.05 98.2 191 98.25 190.9 98.35 190.8 98.45 190.15 99 189.7 99.75 189.65 99.85 189.65 100 199.9 101.35 210.15 102.95 210.15 103.1 210.15 103.3 210.15 104.95 210.15 106.65 210.15 107.6 210.15 108.5 208.95 111.5 208.25 114.6 207.25 118.8 205.45 122.65 205.3 124.45 204.35 126 203.7 127.15 203.5 128.45 202.55 129.65 201.85 130.95 201.6 131.4 201.35 131.85 200 132.9 199 134.3 198 135.8 196.8 137.05 196.2244140625 137.2923828125 195.8 137.7 195.516796875 137.9650390625 195.3 138.3 195.2 138.45 195.1 138.6 185.05 146.75 173 151.2 170.3072265625 152.1904296875 167.55 152.95 169.126171875 152.914453125 170.65 152.85 185.13515625 148.3666015625 197.25 139.1 197.65 138.3 198.45 137.9 198.65 137.8 198.85 137.7 198.9833984375 137.65 199.1 137.6 200.3 135.85 201.7 134.25 203.95 131.85 205.55 129 205.6 128.85 205.6 128.65 205.9 127.35 206.55 126.15 206.9 125.55 207.25 125 207.25 124.85 207.25 124.7 207.2 124.2 207.35 123.75 207.35 123.6 207.35 123.45 209.05 120.6 209.85 117.35 210.3 115.45 210.85 113.55 211.25 116.15 211.1 118.8 210.65 124.2 210.65 129.6 210.55 129.75 210.5 129.9 210.4 130 210.4 130.1 210.4 130.25 210.4 130.35 210.4 131 210.35 131.6 210.35 131.7 210.3 131.85 210.2 131.95 210.15 132.1 210.05 132.2 209.95 132.35 209.95 133.7 209.7 135.05 209.55 135.95 209 136.75 209 137 209 137.25 209 137.35 209 137.5 208.9 137.6 208.8 137.7 208.65 137.85 208.5 138 208.4 138.1 208.35 138.25 208.35 138.6 208.35 138.95 208.35 139.1 208.35 139.2 207.85 140 207.3 140.7 207.2 140.8 207.1 140.95 207.05 141.05 207.05 141.2 207 141.3 207 141.4 206.2 142.4 205.65 143.6 205.2 144.6 204.5 145.35 204.55 145.75 204.4 146.1 204.35 146.2 204.3 146.35 203.45 147 202.95 148 202.5 148.9 201.7 149.55 201.65 149.65 201.6 149.75 201.15 150.65 200.65 151.5 200.55 151.6 200.45 151.75 200.3408203125 151.8107421875 200.2 151.85 201.530078125 151.81953125 202.8 151.75 203.3513671875 151.060546875 203.65 150.25 203.7 150.15 203.75 150 204.9 149.35 205.4 148.05 205.5 147.8 205.65 147.55 205.9 147.3 206.2 147.05 206.3 146.95 206.35 146.85 206.4 146.6 206.45 146.35 206.45 146.2 206.45 146.1 207.3 145.05 207.9 143.9 208.35 143 208.9 142.15 208.95 142.05 208.95 141.9 209 141.8 209 141.65 210 140.7 210.25 139.45 210.3 139.2 210.3 138.95 210.6 138.6 210.85 138.2 210.9 138.1 210.95 138 210.95 137.85 210.95 137.7 210.95 137.6 210.95 137.5 210.95 137.35 210.95 137.25 211.4 136.8 211.6 136.25 211.65 136.15 211.7 136 211.7 135.9 211.7 135.75 211.7 135.4 211.7 135.05 211.7 134.9 211.7 134.8 211.8 134.65 211.85 134.55 211.9 134.4 211.95 134.3 211.95 134.15 211.95 134.05 211.95 133.7 211.95 133.3 211.95 133.2 211.95 133.05 212.1 132.8 212.25 132.55 212.3 132.45 212.35 132.35 212.35 132.2 212.35 132.1 212.35 131.45 212.35 130.85 212.35 130.75 212.35 130.6 212.45 130.5 212.5 130.35 212.55 130.25 212.6 130.1 212.6 128.5 212.6 126.9 212.6 125.55 212.6 124.2 213.3 121 213.1 117.6 212.75 111.3 212.35 105.05 212.35 104.95 212.35 104.9 212.25 104.9 212.2 104.9 212.2 103.6 212.2 102.25 209.35 101.85 206.55 101.45 206.55 99.55 206.55 97.65 206.55 95 206.55 92.4 206.9 92.05 207.25 91.7 204.7 88.6 200.75 86.9 199.85 86.5 198.95 86.15 198.95 84.7 199 83.25 199.05 82.1 198.65 81.1 198.65 79.4 198.75 77.75 198.8 76.6 198.4 75.55 198.5 74.5 198.2 73.55 198.4 73.2 198.55 72.85 198.6 72.7 198.65 72.55 198.65 72.25 198.65 71.95 198.65 71.35 198.65 70.7 198.6 70.55 198.55 70.4 198.2 70.3 197.85 70.2 197.85 70.15 197.8 70.15 197.7 70 197.55 69.85 197.45 69.75 197.35 69.6 196.4 69.3 195.5 68.95 195.25 68.85 195 68.75 188 68.5 181.05 68.25 181.05 65.5 181.05 62.75 181.05 60.1 181.05 57.5 181 57.35 180.9 57.25 180.6 56.8 180.65 56.25 180.65 56.1 180.65 55.95 180.65 55.8 180.55 55.75 180.25 55.5 180 55.15 179.9 55 179.7 54.85 170.1 55.9 161 58.65 160.95 58.35 160.8 58.15 160.75 57.95 160.55 57.8 160.55 57.65 160.55 57.5 160.35 57.05 160.2 56.55 160.15 56.45 160.15 56.3 159.95 55.95 159.8 55.65 159.75 55.5 159.75 55.35 159.75 55.2 159.75 55.05 159.95 53.3 159.6 51.6 159.4 50.7 158.95 49.8 158.95 49.5 158.95 49.2 158.95 49.05 158.95 48.9 158.9 48.75 158.8 48.65 158.45 48.2 158.5 47.65 158.55 47.5 158.55 47.35 158.5 47.2 158.4 47.1 158.25 46.9 158.1 46.75 158.05 46.45 157.95 46.15 157.85 46 157.7 45.85 156.4 45.8 155.05 45.8 154.9 45.85 154.75 45.95 154.2 46.35 153.7 46.85 153.5 47 153.3 47.15 151.591015625 47.8580078125 149.9 48.6 144.6642578125 50.9412109375 139.6 53.7 139.05 53.75 138.55 53.7 138.5 53.7 138.45 53.6 138.15 52.6 137.25 52.05 137.05 51.9 136.9 51.75 136.85 51.6 136.8 51.45 136.75 51.3 136.7 51.15 136.3 50.85 135.9 50.5 135.75 50.4 135.6 50.25 134.9 49.05 134.35 47.8 134.1 47.1 133.55 46.55 133.55 46.4 133.5 46.25 132.95 44.95 132 43.8 131.55 43.25 131.4 42.55 131.1 42.45 130.8 42.3 130.75 42.3 130.65 42.25 130.55 42.15 130.5 42.05 130.375 41.925 130.25 41.8 130.2666015625 41.775 130.25 41.75 129.15 41.7 128 41.65 127.8875 41.72421875 127.75 41.8 125.4009765625 43.4080078125 123.3 45.7 118.5 50.95 114.6 56.6 114.1 56.2 113.5 55.85 107.35 52.15 101.7 47.55 101.15 47.4 100.6 47.2 100.4 47.15 100.25 47.05 99.2 47 98.1 47.05 98 47.05 97.9 47.15 97.95 47.7 97.65 48.1 97.55 48.25 97.5 48.4 97.5 48.7 97.5 49 97.25 53.15 97.2 57.3 97.1 62.5 97.1 67.75 91.85 67.4 86.8 65.75 83.539453125 64.7080078125 80.55 64.7 79.0927734375 64.704296875 77.7 64.95 77.15 64.9 76.65 64.9 76.65 65.05 76.65 65.2 76.4 65.25 76.2 65.3 76.4 65.7 76.55 66.15 76.35 68.9 76.35 71.7 76.35 78.25 76.35 84.8 74.4 85.2 72.45 85.5 67.4 86.25 64.3 88.55 64.75 89.5 65.35 90.3 65.05 91.15 64.8 92.05 64.35 93.45 64.85 94.75 64.95 97.15 65.25 99.5 65.6 101.65 65.65 103.85 65.25 103.9 64.85 103.95 62.6 104.6 60.25 105.35 60.15 105.4 60 105.45 59.95 105.5 59.95 105.6 59.25 105.65 58.6 105.75 59.2 105.75 59.85 105.8 59.8 105.8 59.75 105.85 59.65 105.95 59.6 106.05 59.6 106.15 59.6 106.25 59.6 106.35 59.6 106.45 59.6 106.55 59.6 106.65 59.6 106.7 59.6 106.75 59.55 106.75 59.45 106.8 59.4 106.8 59.4 106.95 59.4 107.1 59.4 107.25 59.4 107.75 59.4 108.2 59.4 108.35 59.4 108.5 59.9 108.85 59.85 109.4 59.8 109.55 59.8 109.75 60.05 110.05 60.3 110.35 60.45 110.5 60.55 110.65 60.6 110.8 60.6 110.95 60.6 111.5 60.9 111.9 60.85 113.45 60.75 114.95 60.65 117.15 61.3 119.15 61.5 120.75 61.45 122.35 61.4 123.5 61.95 124.55 62 126.55 62.5 128.5 63.15 130.75 62.95 133.15 63 133.25 63.1 133.4 63.15 133.5 63.15 133.65 63.15 133.9 63.15 134.15 63 135.2 63.5 136.1 63.55 136.2 63.6 136.35 63.6 136.45 63.6 136.6 63.6 137.15 63.65 137.7 63.6646484375 138 63.7 138.3 63.7 138.45 63.85 138.55 63.85 138.7 63.85 138.8 63.85 139.15 63.85 139.55 63.85 139.65 63.85 139.8 64 140.05 64.15 140.3 64.2 140.4 64.25 140.5 64.25 140.65 64.25 140.75 64.25 141.25 64.25 141.75 64.25 141.85 64.25 142 64.4 142.25 64.6 142.45 64.7 142.6 64.8 142.75 64.85 142.85 64.9 143 65.15 143.65 65.45 144.2 65.5 144.35 65.55 144.45 66.6 145.45 67.35 146.65 68.35 148.2 69.4 149.6 70.25 150.25 71 151.05 71.3 151.35 71.7 151.6 71.9 151.95 72.15 152.3 72.25 152.45 72.35 152.55 73.3 153.05 74.15 153.8 74.45390625 154.0603515625 74.8 154.25 75.9962890625 154.28046875 77.2 154.25 77.163671875 154.1955078125 77.1 154.1 77.05 154 77 153.85 76.15 153.3 75.4 152.6 74.8 152.05 74.05 151.65 73.95 151.4 73.8 151.2 73.75 151.05 73.65 150.9 72.75 150.25 71.95 149.45 71.65 149.2 71.35 148.95 70.55 147.85 69.85 146.7 68.85 145.15 67.5 143.8 67.45 143.65 67.4 143.55 67.1 142.95 66.85 142.3 66.8 142.2 66.8 142.1 66.5 141.85 66.25 141.55 66.2 141.45 66.2 141.35 66.2 141.2 66.2 141.1 66.2 140.5 66.15 139.85 66.15 139.75 66.1 139.6 66.05 139.5 65.95 139.35 65.9 139.25 65.8 139.15 65.8 139 65.8 138.9 65.8 138.4 65.7 137.9 65.65859375 137.8171875 65.55 137.7 65.5671875 137.67578125 65.55 137.65 65.55 137.55 65.55 137.4 65.55 136.65 65.55 135.95 65.55 135.8 65.55 135.7 65.45 135.45 65.35 135.2 65.05 134.25 65.15 133.25 65.15 133.1 65.15 133 65.1 132.85 65.05 132.75 65 132.6 64.9 132.5 64.95 130.5 64.5 128.65 63.95 126.3 63.9 123.9 63.3 122.4 63.3 120.7 63.3 120.6 63.3 120.45 63.7 121.4 64.3 122.3 64.3 122.65 64.35 122.95 64.35 123.1 64.4 123.25 65.85 124.3 66.75 125.85 67.3 126.85 67.6 127.85 71.2169921875 133.6298828125 76.6 137.7 78.47890625 139.1013671875 80.55 140.3 80.9462890625 140.5283203125 81.35 140.75 97.2833984375 149.455859375 114.65 153.55 117.4935546875 153.533984375 120.3 153.5 105.290234375 150.696484375 90.85 144.25 85.23515625 141.7521484375 80.55 138.3 80.1501953125 138.003515625 79.75 137.7 73.9693359375 133.2328125 69.65 127.25 69.65 127.1 69.6 126.95 69.6 126.8 69.55 126.6 68.45 125.6 67.8 124.2 67.35 123.2 66.45 122.65 66.4 122.3 66.4 122 66.35 121.85 66.35 121.7 65.25 119.8 64.65 117.7 64.05 115.75 63.1 114.05 63.1 113.7 63.1 113.4 63.1 112.65 63.1 111.9 63.1 111.7 63.1 111.55 63.05 111.4 63 111.25 62.95 111.05 62.85 110.9 62.85 110.75 62.85 110.6 62.75 110.5 62.7 110.35 62.65 110.25 62.6 110.15 62.6 109.9 62.6 109.65 62.6 108.8 62.6 107.9 62.6 107.8 62.6 107.65
L 62.6 107.55
Q 62.2 107.5 61.85 107.5 61.85 107.4 61.85 107.3 61.85 107.1 61.8 106.9 61.8 106.7 61.85 106.5 61.85 106.4 61.9 106.3 62.5 106 63.1 105.8 67.55 105.75 72.4 105.4 76.55 105.05 79.05 103.4 78 101.15 76.45 99.1 72.5 94.1 67.75 90 67.9 89.5 67.85 89
L 67.85 88.9
Q 67.35 88.8 66.85 88.8 66.8 88.7 66.7 88.6 66.55 88.5 66.45 88.35 73.9017578125 87.0900390625 80.55 84.95 83.1357421875 84.1521484375 85.6 83.2 85.6 83.05 85.6 82.9 85.6 82.45 85.6 82 85.55 81.8 85.5 81.65 83.65 78.8 82.4 75.6 81.446484375 73.047265625 80.55 70.45 79.9888671875 68.8666015625 79.45 67.25 79.2 66.95 78.95 66.6 78.85 66.45 78.75 66.3 78.7 66 78.6 65.7
L 78.6 65.65
Q 78.6 65.55 78.6 65.45 79.5765625 65.70703125 80.55 65.95 89.99375 68.2234375 99.15 68.45 99.15 68.15 99.15 67.85 99.15 63.7 99.1 59.55 99.05 53.85 99.85 48.5 100.6 49 101.35 49.5 103.5 51 105.7 52.4 106.2 53.05 106.85 53.55 110.05 55.7 113.25 57.7 115.05 57.55 116.85 57.4 118.1 55.15 119.65 53.1 123.65 47.8 128.5 43.25 128.95 43.2 129.35 43.25 129.4 43.25 129.45 43.35 129.5 43.55 129.55 43.65 130.1 44.85 130.95 45.85 131.2 46.15 131.4 46.45 131.45 46.6 131.45 46.75 131.5 46.9 131.5 47.05 132.45 48.15 132.9 49.5 133.15 50.15 133.45 50.75 134.15 51.3 134.7 52.05 134.75 52.15 134.75 52.3 135.75 53.05 136.35 54.15 136.4 54.3 136.4 54.45 136.75 54.55 137.1 54.65 137.2 54.7 137.25 54.75 137.3 54.85 137.35 54.95 137.5 55.1 137.65 55.25 138.85 55.3 140.1 55.3
L 140.1 55.25
Q 144.9904296875 52.4203125 149.9 50.1 152.9712890625 48.6814453125 156.05 47.45 156.55 47.8 156.5 48.4 156.5 48.55 156.5 48.7 156.6 48.85 156.7 49 156.8 49.15 156.9 49.3 156.9 49.75 156.9 50.25 156.9 50.4 156.9 50.55 157.05 50.85 157.1 51.15 157.25 52.1 157.55 53 157.6 53.15 157.7 53.3 157.7 53.75 157.7 54.25 157.7 55 157.7 55.75 157.7 55.9 157.7 56.05 157.9 56.55 158.05 57 158.1 57.15 158.1 57.3 158.2 57.45 158.3 57.6 158.6 58.55 159.05 59.45 159.15 59.6 159.25 59.75 168.85 57.95 178.2 56.05 178.8 56.35 178.65 57 178.6 57.15 178.6 57.3 179.3 60.1 179.15 63.15 179 66.05 179 68.95 186.05 69.25 193.15 69.5 194.15 70.05 195.3 70.25
M 196.65 76.45
Q 196.7 76.55 196.7 76.7 196.7 78.25 196.7 79.85 196.7 80.7 196.7 81.6 197.15 83.2 197 84.95 197 85.1 197 85.3 194.05 84.05 191.7 83 191.75 82.85 191.85 82.75 192.1 82.55 192.4 82.4 193.65 80.95 194.65 79.35 195.6 77.85 196.65 76.45
M 194.1 98.7
Q 194.15 98.65 194.15 98.55 194.35 97.9 195.05 97.6 195.25 97.5 195.4 97.35 195.8 97.25 196.2 97.1 196.3 97.1 196.4 97.05 196.85 96.55 197.3 96.15 197.45 96.05 197.55 95.9 198.65 95.4 199.8 95.05 199.9 95.05 200 95 200.15 94.9 200.3 94.75 200.45 94.6 200.6 94.45 201.4 94.3 202.15 94.2 203.45 94 204.55 93.55 204.55 94.8 204.55 96 204.55 98.6 204.55 101.15 198.45 100.25 192.65 99.3 193.4 99.05 194.1 98.7
M 78.35 70.6
Q 78.7 71.45 79 72.35 79.7375 74.34140625 80.55 76.25 81.9404296875 79.6123046875 83.55 82.8 82.05859375 83.2970703125 80.55 83.75 79.479296875 84.059375 78.4 84.35 78.25 81.45 78.25 78.5 78.2 74.55 78.35 70.6
M 66.6 93.3
Q 66.6 93.25 66.55 93.15 66.7 92.55 66.95 92 69.9 94.7 72.5 97.75 73.3 99.25 74.55 100.4 76.3 101.95 76.4 103.5 73.8 103.85 71.25 104.15 71.1 104.1 71 104.1 69.35 103.75 67.7 103.75 67.55 102.1 67.4 100.4 67.05 97.25 66.8 94.1 66.6 93.75 66.6 93.3
M 90.8 93.25
Q 90.8 93.45 90.8 93.65 90.8 93.75 90.8 93.85 90.85 93.95 90.85 94.05 90.95 94.15 91 94.25 91.1 94.35 91.2 94.45 91.35 94.55 91.45 94.65 94.1 98.4 98.75 99.35 107.5 101.05 115.85 98.35 116.2 98 116.6 97.65 117 97.3 117.25 96.9 117.5 96.55 117.75 96.25 117.8 96.15 117.85 96.05 117.9 96 117.95 95.9 117.95 95.8 117.95 95.7 117.95 95.6 117.95 95.5 117.95 95.4 117.95 95.3 117.95 95.2 118 95.1 118.05 95 118.1 94.9 118.15 94.8 118.2 94.7 118.2 94.6 118.2 94.5 118.2 94.2 118.2 93.9 118.2 93.8 118.2 93.7 118.2 93.6 118.2 93.5 118.2 93.3 118.2 93.15 118.2 93.05 118.2 92.95 118.2 92.85 118.2 92.75 118.15 92.65 118.1 92.55 118.05 92.45 118 92.3 117.95 92.25 117.95 92.15 117.95 92.05 117.95 91.95 117.95 91.85 117.95 91.75 117.9 91.55 117.85 91.35 117.85 91.25 117.8 91.15 117.75 91.05 117.75 90.95 117.65 90.85 117.6 90.75 117.5 90.65 117.35 90.55 117.25 90.45 117.15 90.4 117.05 90.3 116.95 90.2 116.9 90.1 116.9 90 116.85 89.9 116.8 89.8 116.75 89.7 116.7 89.6 116.55 89.5 116.45 89.4 116.35 89.3 116.25 89.2 116.05 89 115.9 88.8 115.85 88.7 115.75 88.6 115.7 88.5 115.65 88.4 115.5 88.35 115.3 88.3 115.2 88.25 115.15 88.2 115.05 88.15 115 88.1 114.9 88 114.85 87.9 114.75 87.8 114.65 87.7 113.45 86.95 112.15 86.45 108.05 85 103.65 85.2 97.55 85.45 92.75 89.3 91.4 90.4 90.8 92.1 90.8 92.2 90.8 92.3 90.8 92.55 90.8 92.85 90.8 92.95 90.8 93.05 90.8 93.15 90.8 93.25
M 98.05 97.75
Q 94.6 96.25 92.75 93.15 93.05 91.35 94.5 90.1 98.45 86.65 103.65 86.2 108.7 85.75 112.9 88.45 112.9 88.55 113 88.65 113.05 88.75 113.15 88.85 113.35 88.95 113.55 89 113.65 89.05 113.75 89.15 113.85 89.35 114 89.55 114.2 89.9 114.5 90.15 114.65 90.2 114.7 90.3 114.8 90.5 114.95 90.7 115.15 91.05 115.45 91.3 115.6 91.4 115.7 91.5 115.75 91.6 115.8 91.7 115.85 91.8 115.9 91.9 115.95 92 115.95 92.1 115.95 92.2 115.95 92.3 115.95 92.45 115.95 92.65 115.95 92.75 115.95 92.85 115.95 92.95 115.95 93.05 116.1 93.25 116.2 93.45 116.25 93.55 116.25 93.65 116.25 93.75 116.25 93.85 116.25 93.95 116.2 94 116.05 94.3 116 94.65 115.95 94.95 115.95 95.2 115.95 95.3 115.9 95.4 115.75 95.6 115.55 95.8 112.05 99.9 106.05 98.7 104.75 98.05 103.25 98.45 101.05 99 98.05 97.75
M 192.15 111.8
Q 192.1 111.9 192 112 190.65 113.05 189.15 113.95 188.25 114.45 187.25 114.8 187.2 114.9 187.15 115 187.05 115.1 186.95 115.2 177.45 120 166.9 122.1 164 122.65 161.15 123.1 155.5212890625 123.9916015625 149.9 124.4 134.398046875 125.5583984375 118.95 123.1 108.25 121.4 99.2 115.6 98.75 115.55 98.3 115.45 98.2 115.4 98.15 115.35 98.1 115.25 98 115.15 97.9 114.95 97.75 114.75 97.65 114.65 97.55 114.55 97.25 114.5 96.9 114.4 96.75 114.35 96.55 114.3 96.45 114.2 96.35 114.1 95.45 113.35 94.2 113.25 94.05 113.25 93.9 113.2 92.5 112.2 91 111.5 90.25 111.15 89.7 110.55 88.5 110.55 87.25 110.5 87.2 110.55 87.15 110.65 87.15 110.7 87.15 110.8 87.15 110.9 87.15 111 87.15 111.2 87.15 111.4 87.15 111.5 87.15 111.6 87.25 111.7 87.3 111.8 87.35 111.9 87.4 112 87.4 112.1 87.4 112.2 87.45 112.4 87.55 112.6 87.6 112.7 87.65 112.8 87.65 112.9 87.65 113 87.65 113.1 87.65 113.2 87.65 113.4 87.7 113.55 87.7 113.65 87.7 113.75 89.15 115.95 90.55 118.15 96.05 127.1 106.25 130.8 126.45 138.05 147.8 136.35 148.854296875 136.2662109375 149.9 136.15 153.218359375 135.7603515625 156.45 135 166.75 132.6 176.05 127.5 184.45 122.95 191.2 116.2 191.25 116.1 191.3 116 191.35 115.9 191.4 115.8 191.45 115.7 191.45 115.6 191.9 115.15 192.25 114.7 192.6 114.3 193.1 114 193.2 113.95 193.3 113.85 193.35 113.75 193.35 113.65 193.4 113.55 193.45 113.45 193.45 113.35 193.5 113.25 193.8 112.95 194.1 112.7 194.4 112.45 194.45 112.05 194.5 111.95 194.5 111.85 194.5 111.75 194.45 111.75 193.5 111.55 192.5 111.45
L 192.5 111.5
Q 192.4 111.55 192.3 111.65 192.2 111.7 192.15 111.8
M 188.4 116.25
Q 182.95 121.6 176.35 125.4 168.25 130.1 159.3 132.85 154.6546875 134.282421875 149.9 135.05 143.0384765625 136.186328125 135.95 135.95 129 135.7 122.2 134.2 113.5 132.3 105.35 128.7 94.05 123.65 89.6 112.45 89.65 112.3 89.9 112.4 91.05 113.05 92.05 113.9 93.15 114.1 94.15 114.5 94.25 114.6 94.35 114.7 94.4 114.8 94.45 114.9 95.15 115.15 95.7 115.35 95.8 115.45 95.9 115.55 96.05 115.85 96.3 116.15 98.75 117.1 101.3 118.4 106.35 120.95 111.9 122.2 130.701171875 126.3916015625 149.9 125.25 154.289453125 125.03046875 158.7 124.5 174.35 122.65 188.4 116.25
M 170.85 85.35
Q 166.8 83.8 162.3 84.35 158 84.95 154.3 87.3 153 88.1 151.95 89.2 151.9 89.3 151.85 89.4 151.8 89.5 151.75 89.6 151.7 89.7 151.6 89.8 151.6 90.2 151.6 90.55 151.6 91.05 151.6 91.55 151.6 92.05 151.6 92.55 151.6 92.65 151.6 92.75 151.8 93.05 152.05 93.3 152.1 93.4 152.2 93.5 152.3 93.6 152.4 93.7 153.6 96.6 156.7 97.3 165.6 99.25 174.6 96.2 175.55 95.5 176.25 94.6 176.85 93.85 177.1 93.05 177.15 92.95 177.2 92.85 177.2 92.75 177.2 92.65 177.2 92.4 177.2 92.1 177.2 91.9 177.2 91.7 177.2 91.6 177.2 91.5 177.1 91.4 177.05 91.3 177 91.2 176.9 91.1 176.9 90.9 176.9 90.7 176.9 90.6 176.85 90.55 176.8 90.4 176.65 90.3 176.65 90.1 176.65 89.9 176.6 89.8 176.6 89.7 176.55 89.6 176.5 89.5 176.1 89.2 175.75 88.8 175.1 88.15 174.45 87.55 174.35 87.45 174.3 87.35 174.1 87.3 173.9 87.25 173.75 87.2 173.6 87.15 173.5 87.15 173.45 87.1 172.4 85.95 170.85 85.35
M 164.05 85.05
Q 164.46328125 85.089453125 164.85 85.1 165.51328125 85.208984375 166.15 85.3 169.3 85.75 171.6 87.8 171.85 87.9 172.05 87.95 172.25 88 172.45 88.1 172.55 88.45 172.85 88.65 173.9 89.4 174.6 90.4 174.65 90.45 174.65 90.55 174.7 90.65 174.7 90.75 174.7 90.85 174.7 90.95 175 91.2 175.05 91.55 175.1 91.95 175.15 92.35 175.05 92.55 175 92.75 174.9 92.95 174.9 93.15 174.65 93.4 174.5 93.65 173.75 94.75 172.7 95.5 165.2 97.85 157.5 96.55 157.4 96.45 157.25 96.4 156.5 95.85 155.85 95.3 154.75 94.35 154.35 93.05 154.2 92.85 154 92.65 153.8 92.35 153.6 92.1 153.6 91.6 153.55 91.1 153.55 90.6 153.7 90.1 154.8 88.9 156.15 88.05 159.488671875 85.870703125 163.4 85.15 163.737890625 85.097265625 164.05 85.05 Z" stroke="none" fill="#000000"></path>

<path d="M 195.3 70.3
L 195.3 70.25
Q 194.15 70.05 193.15 69.5 186.05 69.25 179 68.95 179 66.05 179.15 63.15 179.3 60.1 178.6 57.3 178.6 57.15 178.65 57 178.8 56.35 178.2 56.05 168.85 57.95 159.25 59.75 159.15 59.6 159.05 59.45 158.6 58.55 158.3 57.6 158.2 57.45 158.1 57.3 158.1 57.15 158.05 57 157.9 56.55 157.7 56.05 157.7 55.9 157.7 55.75 157.7 55 157.7 54.25 157.7 53.75 157.7 53.3 157.6 53.15 157.55 53 157.25 52.1 157.1 51.15 157.05 50.85 156.9 50.55 156.9 50.4 156.9 50.25 156.9 49.75 156.9 49.3 156.8 49.15 156.7 49 156.6 48.85 156.5 48.7 156.5 48.55 156.5 48.4 156.55 47.8 156.05 47.45 152.9712890625 48.6814453125 149.9 50.1 144.9904296875 52.4203125 140.1 55.25
L 140.1 55.3
Q 138.85 55.3 137.65 55.25 137.5 55.1 137.35 54.95 137.3 54.85 137.25 54.75 137.2 54.7 137.1 54.65 136.75 54.55 136.4 54.45 136.4 54.3 136.35 54.15 135.75 53.05 134.75 52.3 134.75 52.15 134.7 52.05 134.15 51.3 133.45 50.75 133.15 50.15 132.9 49.5 132.45 48.15 131.5 47.05 131.5 46.9 131.45 46.75 131.45 46.6 131.4 46.45 131.2 46.15 130.95 45.85 130.1 44.85 129.55 43.65 129.5 43.55 129.45 43.35 129.4 43.25 129.35 43.25 128.95 43.2 128.5 43.25 123.65 47.8 119.65 53.1 118.1 55.15 116.85 57.4 115.05 57.55 113.25 57.7 110.05 55.7 106.85 53.55 106.2 53.05 105.7 52.4 103.5 51 101.35 49.5 100.6 49 99.85 48.5 99.05 53.85 99.1 59.55 99.15 63.7 99.15 67.85 99.15 68.15 99.15 68.45 89.99375 68.2234375 80.55 65.95 79.5765625 65.70703125 78.6 65.45 78.6 65.55 78.6 65.65
L 78.6 65.7
Q 78.7 66 78.75 66.3 78.85 66.45 78.95 66.6 79.2 66.95 79.45 67.25 79.9888671875 68.8666015625 80.55 70.45 81.446484375 73.047265625 82.4 75.6 83.65 78.8 85.5 81.65 85.55 81.8 85.6 82 85.6 82.45 85.6 82.9 85.6 83.05 85.6 83.2 83.1357421875 84.1521484375 80.55 84.95 73.9017578125 87.0900390625 66.45 88.35 66.55 88.5 66.7 88.6 66.8 88.7 66.85 88.8 67.35 88.8 67.85 88.9
L 67.85 89
Q 67.9 89.5 67.75 90 72.5 94.1 76.45 99.1 78 101.15 79.05 103.4 76.55 105.05 72.4 105.4 67.55 105.75 63.1 105.8 62.5 106 61.9 106.3 61.85 106.4 61.85 106.5 61.8 106.7 61.8 106.9 61.85 107.1 61.85 107.3 61.85 107.4 61.85 107.5 62.2 107.5 62.6 107.55
L 62.6 107.65
Q 62.6 107.8 62.6 107.9 62.6 108.8 62.6 109.65 62.6 109.9 62.6 110.15 62.65 110.25 62.7 110.35 62.75 110.5 62.85 110.6 62.85 110.75 62.85 110.9 62.95 111.05 63 111.25 63.05 111.4 63.1 111.55 63.1 111.7 63.1 111.9 63.1 112.65 63.1 113.4 63.1 113.7 63.1 114.05 64.05 115.75 64.65 117.7 65.25 119.8 66.35 121.7 66.35 121.85 66.4 122 66.4 122.3 66.45 122.65 67.35 123.2 67.8 124.2 68.45 125.6 69.55 126.6 69.6 126.8 69.6 126.95 69.65 127.1 69.65 127.25 73.9693359375 133.2328125 79.75 137.7 80.1501953125 138.003515625 80.55 138.3 85.23515625 141.7521484375 90.85 144.25 105.290234375 150.696484375 120.3 153.5 125.238671875 153.45 130.15 153.45 140.0458984375 153.4197265625 149.9 153.25 158.754296875 153.159375 167.55 152.95 170.3072265625 152.1904296875 173 151.2 185.05 146.75 195.1 138.6 195.2 138.45 195.3 138.3 195.516796875 137.9650390625 195.8 137.7 196.2244140625 137.2923828125 196.8 137.05 198 135.8 199 134.3 200 132.9 201.35 131.85 201.6 131.4 201.85 130.95 202.55 129.65 203.5 128.45 203.7 127.15 204.35 126 205.3 124.45 205.45 122.65 207.25 118.8 208.25 114.6 208.95 111.5 210.15 108.5 210.15 107.6 210.15 106.65 210.15 104.95 210.15 103.3 210.15 103.1 210.15 102.95 199.9 101.35 189.65 100 189.65 99.85 189.7 99.75 190.15 99 190.8 98.45 190.9 98.35 191 98.25 191.05 98.2 191.1 98.2 191.6 98.05 192.1 97.95 192.15 97.8 192.25 97.7 192.85 97.05 193.55 96.5 193.95 96.4 194.35 96.3 195.3 95.25 196.65 94.8 197.8 94.45 198.75 93.75 201.2 93.3 203.3 92.15 203.85 91.85 204.6 91.5 196.95 86.5 189.25 83.3 190.9 81.05 192.75 78.45 193.95 76.75 195.2 75 195.25 74.85 195.25 74.7 195.35 74.25 195.4 73.8 195.55 73.65 195.7 73.55 195.05 72 194.85 70.4 195.15 70.4 195.45 70.45 195.35 70.35 195.3 70.3
M 162.3 84.35
Q 166.8 83.8 170.85 85.35 172.4 85.95 173.45 87.1 173.5 87.15 173.6 87.15 173.75 87.2 173.9 87.25 174.1 87.3 174.3 87.35 174.35 87.45 174.45 87.55 175.1 88.15 175.75 88.8 176.1 89.2 176.5 89.5 176.55 89.6 176.6 89.7 176.6 89.8 176.65 89.9 176.65 90.1 176.65 90.3 176.8 90.4 176.85 90.55 176.9 90.6 176.9 90.7 176.9 90.9 176.9 91.1 177 91.2 177.05 91.3 177.1 91.4 177.2 91.5 177.2 91.6 177.2 91.7 177.2 91.9 177.2 92.1 177.2 92.4 177.2 92.65 177.2 92.75 177.2 92.85 177.15 92.95 177.1 93.05 176.85 93.85 176.25 94.6 175.55 95.5 174.6 96.2 165.6 99.25 156.7 97.3 153.6 96.6 152.4 93.7 152.3 93.6 152.2 93.5 152.1 93.4 152.05 93.3 151.8 93.05 151.6 92.75 151.6 92.65 151.6 92.55 151.6 92.05 151.6 91.55 151.6 91.05 151.6 90.55 151.6 90.2 151.6 89.8 151.7 89.7 151.75 89.6 151.8 89.5 151.85 89.4 151.9 89.3 151.95 89.2 153 88.1 154.3 87.3 158 84.95 162.3 84.35
M 192 112
Q 192.1 111.9 192.15 111.8 192.2 111.7 192.3 111.65 192.4 111.55 192.5 111.5
L 192.5 111.45
Q 193.5 111.55 194.45 111.75 194.5 111.75 194.5 111.85 194.5 111.95 194.45 112.05 194.4 112.45 194.1 112.7 193.8 112.95 193.5 113.25 193.45 113.35 193.45 113.45 193.4 113.55 193.35 113.65 193.35 113.75 193.3 113.85 193.2 113.95 193.1 114 192.6 114.3 192.25 114.7 191.9 115.15 191.45 115.6 191.45 115.7 191.4 115.8 191.35 115.9 191.3 116 191.25 116.1 191.2 116.2 184.45 122.95 176.05 127.5 166.75 132.6 156.45 135 153.218359375 135.7603515625 149.9 136.15 148.854296875 136.2662109375 147.8 136.35 126.45 138.05 106.25 130.8 96.05 127.1 90.55 118.15 89.15 115.95 87.7 113.75 87.7 113.65 87.7 113.55 87.65 113.4 87.65 113.2 87.65 113.1 87.65 113 87.65 112.9 87.65 112.8 87.6 112.7 87.55 112.6 87.45 112.4 87.4 112.2 87.4 112.1 87.4 112 87.35 111.9 87.3 111.8 87.25 111.7 87.15 111.6 87.15 111.5 87.15 111.4 87.15 111.2 87.15 111 87.15 110.9 87.15 110.8 87.15 110.7 87.15 110.65 87.2 110.55 87.25 110.5 88.5 110.55 89.7 110.55 90.25 111.15 91 111.5 92.5 112.2 93.9 113.2 94.05 113.25 94.2 113.25 95.45 113.35 96.35 114.1 96.45 114.2 96.55 114.3 96.75 114.35 96.9 114.4 97.25 114.5 97.55 114.55 97.65 114.65 97.75 114.75 97.9 114.95 98 115.15 98.1 115.25 98.15 115.35 98.2 115.4 98.3 115.45 98.75 115.55 99.2 115.6 108.25 121.4 118.95 123.1 134.398046875 125.5583984375 149.9 124.4 155.5212890625 123.9916015625 161.15 123.1 164 122.65 166.9 122.1 177.45 120 186.95 115.2 187.05 115.1 187.15 115 187.2 114.9 187.25 114.8 188.25 114.45 189.15 113.95 190.65 113.05 192 112
M 90.8 93.65
Q 90.8 93.45 90.8 93.25 90.8 93.15 90.8 93.05 90.8 92.95 90.8 92.85 90.8 92.55 90.8 92.3 90.8 92.2 90.8 92.1 91.4 90.4 92.75 89.3 97.55 85.45 103.65 85.2 108.05 85 112.15 86.45 113.45 86.95 114.65 87.7 114.75 87.8 114.85 87.9 114.9 88 115 88.1 115.05 88.15 115.15 88.2 115.2 88.25 115.3 88.3 115.5 88.35 115.65 88.4 115.7 88.5 115.75 88.6 115.85 88.7 115.9 88.8 116.05 89 116.25 89.2 116.35 89.3 116.45 89.4 116.55 89.5 116.7 89.6 116.75 89.7 116.8 89.8 116.85 89.9 116.9 90 116.9 90.1 116.95 90.2 117.05 90.3 117.15 90.4 117.25 90.45 117.35 90.55 117.5 90.65 117.6 90.75 117.65 90.85 117.75 90.95 117.75 91.05 117.8 91.15 117.85 91.25 117.85 91.35 117.9 91.55 117.95 91.75 117.95 91.85 117.95 91.95 117.95 92.05 117.95 92.15 117.95 92.25 118 92.3 118.05 92.45 118.1 92.55 118.15 92.65 118.2 92.75 118.2 92.85 118.2 92.95 118.2 93.05 118.2 93.15 118.2 93.3 118.2 93.5 118.2 93.6 118.2 93.7 118.2 93.8 118.2 93.9 118.2 94.2 118.2 94.5 118.2 94.6 118.2 94.7 118.15 94.8 118.1 94.9 118.05 95 118 95.1 117.95 95.2 117.95 95.3 117.95 95.4 117.95 95.5 117.95 95.6 117.95 95.7 117.95 95.8 117.95 95.9 117.9 96 117.85 96.05 117.8 96.15 117.75 96.25 117.5 96.55 117.25 96.9 117 97.3 116.6 97.65 116.2 98 115.85 98.35 107.5 101.05 98.75 99.35 94.1 98.4 91.45 94.65 91.35 94.55 91.2 94.45 91.1 94.35 91 94.25 90.95 94.15 90.85 94.05 90.85 93.95 90.8 93.85 90.8 93.75 90.8 93.65 Z" stroke="none" fill="#FDDF5E"></path>

<path d="M 92.75 93.15
Q 94.6 96.25 98.05 97.75 101.05 99 103.25 98.45 104.75 98.05 106.05 98.7 112.05 99.9 115.55 95.8 115.75 95.6 115.9 95.4 115.95 95.3 115.95 95.2 115.95 94.95 116 94.65 116.05 94.3 116.2 94 116.25 93.95 116.25 93.85 116.25 93.75 116.25 93.65 116.25 93.55 116.2 93.45 116.1 93.25 115.95 93.05 115.95 92.95 115.95 92.85 115.95 92.75 115.95 92.65 115.95 92.45 115.95 92.3 115.95 92.2 115.95 92.1 115.95 92 115.9 91.9 115.85 91.8 115.8 91.7 115.75 91.6 115.7 91.5 115.6 91.4 115.45 91.3 115.15 91.05 114.95 90.7 114.8 90.5 114.7 90.3 114.65 90.2 114.5 90.15 114.2 89.9 114 89.55 113.85 89.35 113.75 89.15 113.65 89.05 113.55 89 113.35 88.95 113.15 88.85 113.05 88.75 113 88.65 112.9 88.55 112.9 88.45 108.7 85.75 103.65 86.2 98.45 86.65 94.5 90.1 93.05 91.35 92.75 93.15
M 164.85 85.1
Q 164.46328125 85.089453125 164.05 85.05 163.737890625 85.097265625 163.4 85.15 159.488671875 85.870703125 156.15 88.05 154.8 88.9 153.7 90.1 153.55 90.6 153.55 91.1 153.6 91.6 153.6 92.1 153.8 92.35 154 92.65 154.2 92.85 154.35 93.05 154.75 94.35 155.85 95.3 156.5 95.85 157.25 96.4 157.4 96.45 157.5 96.55 165.2 97.85 172.7 95.5 173.75 94.75 174.5 93.65 174.65 93.4 174.9 93.15 174.9 92.95 175 92.75 175.05 92.55 175.15 92.35 175.1 91.95 175.05 91.55 175 91.2 174.7 90.95 174.7 90.85 174.7 90.75 174.7 90.65 174.65 90.55 174.65 90.45 174.6 90.4 173.9 89.4 172.85 88.65 172.55 88.45 172.45 88.1 172.25 88 172.05 87.95 171.85 87.9 171.6 87.8 169.3 85.75 166.15 85.3 165.51328125 85.208984375 164.85 85.1 Z" stroke="none" fill="#EEC24E"></path>
</g>
</g>
</g>
</g>
</svg>
