<svg version="1.1" xmlns="http://www.w3.org/2000/svg" xmlns:xlink="http://www.w3.org/1999/xlink" width="144.99746" height="122.34933" viewBox="0,0,144.99746,122.34933"><g transform="translate(-256.90893,-126.97682)"><g data-paper-data="{&quot;isPaintingLayer&quot;:true}" fill-rule="nonzero" stroke="none" stroke-width="0.5" stroke-linecap="butt" stroke-linejoin="miter" stroke-miterlimit="10" stroke-dasharray="" stroke-dashoffset="0" style="mix-blend-mode: normal"><path d="M322.15336,171.4661c0.05203,-0.07727 0.105,-0.15371 0.15919,-0.22909c0.28716,-0.39952 0.58017,-0.79073 0.87511,-1.17595c0.06366,-0.28335 0.13586,-0.56486 0.21642,-0.84388c-0.31206,0.02699 -0.6244,0.05481 -0.93712,0.08322c-0.19909,0.70848 -0.49914,1.49032 -0.92341,2.40571c0.05614,-0.02179 0.09769,-0.03792 0.12321,-0.04786c0.16182,-0.06297 0.32403,-0.12706 0.48659,-0.19215zM288.92044,216.21806c-0.63837,-0.12521 -1.25646,-0.31798 -1.84316,-0.61453c-0.30907,-0.15622 -1.10031,-0.75315 -2.06592,-1.51949c-0.29301,0.33747 -0.55193,0.69836 -0.76974,1.08582c-0.35647,0.63411 -0.02771,1.45603 -0.09711,2.18015c-0.26521,2.7674 -0.51284,5.68202 0.75589,8.13527c0.87319,-0.75044 1.85625,-1.39267 2.90388,-1.95856c-0.19031,-1.21317 -0.34509,-2.42445 -0.12665,-3.61589c0.22133,-1.20723 0.66,-2.45098 1.2428,-3.69277zM280.72922,210.57539c-0.47828,-0.39874 -0.87181,-0.72787 -1.124,-0.9375c-0.44363,-0.87464 -0.8496,-1.77187 -1.2164,-2.68635c-0.63338,0.54917 -1.22568,1.13894 -1.74908,1.79694c-0.89734,1.12811 -1.26818,2.58635 -1.88594,3.89136c-0.17318,0.55744 -0.34658,1.12148 -0.52226,1.69273c-0.19498,0.63404 -0.38915,1.29629 -0.56774,1.97767c0.87709,-0.71479 1.86308,-1.33604 2.71499,-2.06974c0.00804,-0.00692 2.31278,-1.95318 4.35044,-3.66511zM285.50324,241.36187c0.22366,0.17435 0.47419,0.3506 0.75377,0.52939c3.0254,1.93473 8.97495,1.36994 12.32082,1.64839c9.7523,0.81162 19.73234,1.15112 29.50954,0.25565c7.90098,-0.72363 15.87407,-2.63108 23.70619,-3.91827c3.87047,-1.11339 8.04578,-1.89706 11.78875,-3.36278c3.0304,-1.18668 5.8019,-2.95032 8.7084,-4.4145c1.47011,-0.74058 6.26201,-2.824 7.3941,-4.50384c0.64784,-0.96129 0.45026,-2.27544 0.73618,-3.39884c0.06588,-0.25883 0.14602,-0.515 0.23315,-0.76979c-0.5865,1.24875 -1.25862,2.43534 -2.21044,3.41487c-4.51117,4.64251 -11.94709,8.4968 -18.27482,9.77577c-0.198,0.04002 -6.7695,0.49594 -9.33025,0.67277c-1.00847,0.73381 -2.04471,1.42228 -3.14812,2.0006c-6.21164,3.25568 -13.8641,3.74477 -20.73226,3.68586c-4.133,-0.03545 -6.79549,0.42834 -10.5436,-1.7229c-1.76999,0.13511 -3.54085,0.26982 -5.3071,0.42716c-8.31615,0.00406 -17.21017,0.76249 -25.60432,-0.31954zM278.89684,240.01583c-2.60669,-0.79252 -5.9128,-2.13113 -7.67155,-3.82044c-0.90356,-0.33058 -1.53985,-0.58474 -1.65896,-0.68431c-2.01265,-1.68243 -3.30333,-4.38289 -3.94371,-7.26499c-1.22395,-0.63397 -2.40816,-1.23553 -3.52055,-1.73348c-1.68626,-0.92839 -4.16432,-1.08067 -5.05879,-2.78516c-0.50121,-0.9551 0.54947,-9.87697 0.71347,-11.45396c0.34481,-3.31545 0.64083,-6.63634 1.03442,-9.94635c0.23154,-1.94722 -0.1092,-4.07856 0.76769,-5.83251c0.1696,-0.33924 6.63393,-6.44836 8.00609,-7.61009c-1.68308,-3.00561 -2.06833,-5.81238 -1.85017,-8.8874c-2.4395,-1.7796 -4.48776,-4.1146 -4.80987,-6.90471c-0.04377,-0.37912 1.18983,-9.83278 1.29476,-10.55204c0.26019,-1.78345 -0.02993,-3.76906 0.85554,-5.33888c1.90093,-3.37014 6.07506,-5.02244 9.24757,-6.66344c6.10231,-3.15647 11.71397,-5.44539 18.31302,-7.34516c0.18057,-0.02855 0.36146,-0.05777 0.54265,-0.08757c0.00122,-0.0013 0.00241,-0.00258 0.00357,-0.00381c1.97837,-2.11026 3.6454,-4.57018 5.95398,-6.31306c8.30417,-6.2693 18.33889,-7.51241 28.21832,-9.71848c7.21028,-0.0213 13.94805,-0.66126 20.81822,1.73308c1.07959,0.37625 2.31776,0.48562 3.21543,1.19362c0.1328,0.10474 1.00398,1.09693 2.10103,2.37517c2.98725,-0.25747 6.01266,-0.2707 9.12621,0.08541c0.91435,0.10458 9.83676,1.06616 10.42976,1.46713c0.8229,0.55641 1.38831,1.37141 1.87779,2.26017c1.98594,0.50132 3.98953,1.15497 6.22869,1.85633c3.97125,1.24389 6.44896,1.45659 9.12343,5.37709c1.07425,1.57475 1.1895,3.6224 1.75545,5.44271c0.32638,1.04975 0.58135,2.07561 0.78052,3.08876c0.51573,0.44749 1.02941,0.92376 1.54314,1.43038c1.37511,1.35611 3.17776,2.41317 4.06501,4.12862c0.88725,1.71545 0.69938,3.79894 1.02022,5.70342c0.35281,2.09423 1.26852,6.82316 0.52479,8.88115c-0.03556,0.0984 -1.00007,1.49119 -2.1695,3.14321c-0.00038,0.08634 -0.00181,0.17277 -0.00433,0.2593c-0.02389,0.81887 -0.10305,1.74946 -0.22663,2.74232c1.05005,0.74334 1.99684,1.67312 3.01223,2.46308c0.96277,0.74903 2.32135,1.25739 2.7696,2.39186c0.74174,1.87726 0.43105,4.01521 0.55794,6.02971c0.55503,8.81196 -9.0236,14.49953 -15.40292,18.82982c-0.40535,0.13461 -0.81056,0.26969 -1.21566,0.40513c0.28391,1.94414 0.34949,3.90235 -0.17515,5.96469c-0.0622,0.2445 -0.13872,0.48359 -0.22669,0.71836c0.15533,0.42419 0.32445,0.87823 0.51439,1.36601c0.43788,1.1245 1.21534,2.20881 1.20034,3.41547c-0.0239,1.92174 -0.83469,3.75274 -1.31262,5.61425c-0.41968,1.63467 -0.42098,3.48242 -1.37948,4.8715c-2.05599,2.97957 -6.28117,4.70355 -9.33921,6.25433c-7.15285,3.62731 -13.95288,6.00332 -21.65626,8.19326c-8.03292,1.33377 -16.21511,3.2715 -24.32199,4.01682c-10.07236,0.92602 -20.35786,0.58643 -30.40492,-0.24972c-0.05164,-0.0043 -9.61987,-0.79522 -9.78514,-0.82991c-4.03972,-0.84792 -8.6056,-3.4484 -9.48118,-7.67669zM384.30863,203.44019c2.51665,-1.73878 5.37626,-3.05249 7.57288,-5.18065c3.4497,-3.3422 6.46818,-7.82286 5.02727,-12.82287c-0.14467,-0.502 -0.95256,-0.44482 -1.37494,-0.75227c-0.35417,-0.25781 -0.68148,-0.55768 -1.00325,-0.86529c-0.47134,2.02178 -1.03463,3.95146 -1.61417,5.4443c-0.89253,2.29907 -2.23845,4.4037 -3.85051,6.37c-0.07152,0.43636 -0.18581,0.8608 -0.3703,1.2654c-1.40905,3.09011 -2.76564,4.33903 -4.62513,5.31684c0.0654,0.35696 0.13472,0.71938 0.21143,1.08717c0.00885,0.04582 0.01776,0.09161 0.02672,0.13736zM298.21328,162.10223c-1.8572,0.8752 -3.70989,1.80255 -5.28284,2.84861c-0.64327,0.65294 -1.26627,1.33472 -1.8654,2.05194c-0.56686,0.67858 -1.23558,1.44366 -1.94145,2.26466c1.6986,-1.17738 3.21063,-2.22221 3.40413,-2.35591c1.55883,-1.07713 3.12091,-2.0278 4.70384,-2.90644c0.3455,-0.79616 0.58491,-1.33534 0.62416,-1.39349c0.11537,-0.17089 0.23464,-0.34068 0.35756,-0.50937zM293.74634,172.17989c-0.83861,0.56296 -1.66673,1.12696 -2.48353,1.68865c-2.04248,1.40455 -4.12403,2.94789 -5.8134,4.84139c1.9867,-0.04687 3.95199,-0.11556 5.90409,-0.20741c0.33587,-2.02252 1.32854,-3.77573 2.37935,-6.29043c0.00354,-0.00847 0.00805,-0.01923 0.0135,-0.03221zM344.19499,133.42407c-6.05024,-1.91451 -11.9343,-1.36424 -18.30314,-1.38527c-5.68538,1.3183 -12.32353,1.88531 -17.73552,4.01682c-3.30838,1.303 -5.9921,3.25366 -8.45703,5.5093c1.97194,-0.32835 3.94083,-0.59757 5.88142,-0.72094c1.83757,-0.11682 3.77943,-0.48948 5.5229,0.10267c1.58673,0.53892 2.72722,1.11376 3.60009,1.77039c1.81028,-1.06961 3.6921,-2.04202 5.69872,-2.86881c4.86193,-1.97705 9.60918,-3.12816 14.70108,-4.36527c3.06836,-0.74548 6.0813,-1.47571 9.09147,-2.05889zM362.04925,165.20724c0.90032,-0.21977 1.82043,-0.39204 2.75952,-0.51352c1.09366,-0.14147 2.16926,-0.27603 3.2248,-0.33854c0.36748,-0.49812 0.72111,-0.99495 1.05433,-1.4806c-0.46075,-0.52112 -0.95028,-1.00482 -1.54456,-1.35446c-1.26568,-0.74466 -2.8316,-0.78033 -4.23977,-1.1969c-1.6338,-0.48332 -2.98326,-0.77164 -4.25046,-0.93119c0.57363,1.06224 1.02425,2.21222 1.59634,3.27256c0.50166,0.9298 0.97418,1.75706 1.3998,2.54265zM366.88303,228.86354c2.79416,-1.24606 5.42053,-2.95229 7.8027,-5.3195c1.76123,-1.75017 2.25322,-4.42583 3.4329,-6.61064c0.41855,-0.77517 0.96026,-1.49951 1.41114,-2.26047c-0.45275,-1.00153 -1.1784,-1.6624 -3.16051,-2.30922c-1.10121,1.80165 -2.10578,3.42637 -2.29757,3.7387c-0.9751,1.51422 -2.07795,2.68481 -3.28845,3.67147c0.40303,1.42416 0.66638,2.90798 0.23804,4.26786c-0.61109,1.94009 -2.61472,3.11736 -3.96901,4.63501c-0.05614,0.06291 -0.11256,0.12517 -0.16924,0.18679zM376.25552,187.05759c0.01556,-0.6427 -0.01598,-1.2773 -0.19632,-1.88711c-0.03819,0.00459 -0.07639,0.00922 -0.11458,0.0139c-0.72005,0.08818 -1.44595,0.17381 -2.17676,0.25567c0.08842,0.06199 0.17728,0.12301 0.2667,0.18285c0.84017,0.56223 1.57398,1.02143 2.22096,1.4347zM323.96549,206.5995c-0.64174,0.34046 -1.27353,0.70133 -1.8966,1.08768c0.34163,-0.02771 0.68298,-0.05687 1.02378,-0.08701c0.24082,-0.11581 0.47953,-0.23423 0.71602,-0.3553c0.03549,-0.14546 0.071,-0.29214 0.10639,-0.44006c0.01639,-0.06851 0.0332,-0.13695 0.05041,-0.2053zM270.0658,210.83932c1.53492,-4.971 3.18411,-9.497 5.97977,-13.88665c-0.08019,-1.04605 -0.11506,-2.11962 -0.10232,-3.20842c-1.7683,-0.02225 -3.49138,-0.28747 -4.98383,-1.11372c-0.16373,0.09476 -0.32572,0.19294 -0.48578,0.29486c-1.27992,0.81501 -2.18448,2.10744 -3.31174,3.12318c-1.02087,0.91986 -2.51632,1.45284 -3.13081,2.68195c-0.61449,1.22911 -0.14862,2.74477 -0.26674,4.11384c-0.28651,3.321 -0.68961,6.6309 -1.03442,9.94635c-0.1724,1.65773 -0.25291,3.3276 -0.51721,4.97318c-0.18847,1.17346 -1.33635,2.38653 -0.83816,3.46557c0.39994,0.86624 1.84693,0.4797 2.7704,0.71954c0.34108,0.15268 0.69021,0.31726 1.04616,0.49106c0.06206,-0.84524 0.18107,-1.65446 0.35495,-2.40333c0.42026,-1.80998 1.6115,-3.34873 2.43144,-5.01617c0.12278,-0.24968 1.07065,-2.15288 2.0883,-4.18125zM364.96477,224.04345c0.50526,-0.37981 0.96396,-0.79015 1.22177,-1.33952c-0.23847,0.12899 -0.47928,0.25799 -0.72233,0.38775c-0.12978,0.26054 -0.26262,0.51639 -0.39834,0.76718c-0.03344,0.0618 -0.06714,0.12332 -0.1011,0.18459zM367.29882,201.75402c1.52001,-0.60811 2.98443,-1.2639 4.38165,-2.01548c0.06913,-0.38246 0.13403,-0.76389 0.19512,-1.14354c0.04937,-0.30681 0.0967,-0.59896 0.13713,-0.8768c-1.10579,-0.37234 -2.15786,-0.94509 -3.28232,-1.22266c-0.18251,-0.00852 -0.36522,-0.01323 -0.54819,-0.01322c-1.68334,0.00007 -2.83813,0.11809 -3.91586,0.33731c0.12089,0.11224 0.23613,0.23087 0.34457,0.3572c1.16517,1.35737 2.0493,2.90657 2.68789,4.57719zM367.90868,150.53141c-0.177,-0.00282 -0.35321,-0.00919 -0.52846,-0.01993c-2.98896,-0.18317 -5.77813,-0.23874 -8.53759,-0.15946c0.04685,0.42735 0.08388,0.85264 0.10795,1.27151c0.58287,-0.06415 1.15507,-0.13329 1.71377,-0.21049c1.61507,-0.22318 4.64738,-0.74595 7.24433,-0.88162zM370.73903,157.65335c-0.0147,-0.34776 -0.05159,-0.68587 -0.11231,-1.01171c-0.05844,-0.3136 -0.10379,-0.61347 -0.14126,-0.90094c-0.15647,-0.07604 -0.31806,-0.14195 -0.486,-0.1953c-0.59364,-0.1886 -2.52721,-0.01654 -4.42219,0.21855c1.54113,0.3882 3.14232,0.64702 4.50154,1.44672c0.22947,0.13501 0.44884,0.28351 0.66022,0.44267zM372.22938,145.13929c-0.0355,-0.11743 -0.0736,-0.23611 -0.11443,-0.35615c-0.40303,-1.18491 -1.37108,-2.09611 -1.99097,-3.18339c-0.18082,-0.31717 -0.31797,-0.67026 -0.44521,-1.03068c-1.6365,-0.30002 -3.34104,-0.43885 -5.28971,-0.3174c-2.3605,0.14712 -4.74153,0.24743 -7.12709,0.36315c0.09123,0.48873 0.15534,0.98643 0.21545,1.48533c0.87323,0.01512 1.71612,0.08165 2.50991,0.22075c1.79881,0.31521 3.47421,1.12756 5.20174,1.71978c0.72988,0.25021 1.49208,0.43757 2.24517,0.64394c1.38912,-0.06253 2.7852,-0.16273 4.10571,0.21382c0.23534,0.06711 0.46478,0.14829 0.68943,0.24084zM327.35966,152.15108c-0.28032,-0.34964 -0.64692,-0.64453 -1.13154,-0.85948c-0.18292,-0.08113 -0.36569,-0.15896 -0.54831,-0.2336c-1.86138,0.45091 -3.7085,0.95416 -5.53817,1.51291c0.22248,0.6035 0.42023,1.19882 0.59307,1.78839c0.80464,-0.14373 1.60269,-0.28593 2.31348,-0.41244c2.03298,-0.84915 3.90906,-1.62822 4.15195,-1.72942c0.05317,-0.02215 0.10635,-0.04428 0.15952,-0.06636zM309.18706,163.95246c-0.28254,0.07708 -0.54226,0.16255 -0.77305,0.25748c-1.39485,0.57379 -2.49286,1.6995 -3.76665,2.50715c-1.16776,0.74042 -2.59314,1.14347 -3.55602,2.13582c-0.47422,0.48874 -0.26539,1.3373 -0.44995,1.9928c-0.4517,1.60429 -0.96733,3.1899 -1.45777,4.78277c-0.12118,0.39358 -0.25849,0.78335 -0.39928,1.17228c0.50579,-0.15119 1.01649,-0.27497 1.53655,-0.346c0.62992,-1.34733 1.65864,-2.53595 2.42893,-3.82063c0.98735,-1.64671 1.59201,-3.64368 3.06207,-4.87876c0.19537,-0.16414 0.39257,-0.31794 0.5915,-0.46212c0.05986,-0.19716 0.13681,-0.38914 0.23517,-0.57458c0.5904,-1.1131 1.55712,-1.94978 2.5485,-2.76622zM352.21247,142.43563c-0.16008,-0.51051 -0.33966,-1.00747 -0.53991,-1.4919c-3.92204,0.29251 -7.82243,0.75838 -11.62973,1.67501c-1.80397,0.43432 -3.56312,0.96643 -5.28415,1.58c3.89886,-0.53675 7.79637,-0.91904 11.57291,-1.1393c1.79122,-0.10294 3.82144,-0.38981 5.88088,-0.62381zM288.98317,161.84983c3.5031,-3.63044 7.5317,-6.43365 11.66731,-9.3469c-0.97577,0.12324 -1.95273,0.2379 -2.92857,0.36042c-1.06525,0.39866 -2.15444,0.82193 -3.29809,1.25832c-2.65418,1.00724 -5.30929,2.10748 -7.80778,3.49278c-0.21605,0.84656 -0.42728,1.69596 -0.72054,2.50302c-1.08403,2.98324 -2.80153,5.79845 -3.29538,8.93389c-0.01723,0.1094 -0.03291,0.21888 -0.04713,0.32845c1.43519,-2.68256 3.29482,-5.08685 5.42072,-6.93792c0.0533,-0.04641 0.43252,-0.26679 1.00947,-0.59206zM269.9808,166.75837c0.72713,-1.25877 1.30929,-2.25845 1.458,-2.51579c0.46409,-0.80307 5.11998,-8.9346 5.51501,-9.28279c1.44989,-1.27797 3.52042,-1.59671 5.2928,-2.36746c0.33306,-0.14483 0.66234,-0.28769 0.98845,-0.42842c0.2237,-0.47444 0.47972,-0.93197 0.78118,-1.36569c0.01826,-0.02626 0.06645,-0.08388 0.14049,-0.16853c-3.20082,1.2503 -6.29286,2.67744 -9.56527,4.3538c-1.40813,0.72134 -6.14696,2.74772 -7.11739,4.55758c-0.57647,1.07511 -0.1807,2.43368 -0.31641,3.64601c-0.2375,2.12172 -2.18832,7.8971 -1.01243,10.49004c0.00116,-0.00588 0.00233,-0.01176 0.00351,-0.01764c0.022,-0.10956 0.24999,-0.55709 0.60035,-1.20252c0.12787,-1.01369 0.31429,-2.00784 0.7655,-2.91055c0.08302,-0.1661 1.16342,-1.36738 2.4662,-2.78805zM279.06578,164.27928c-0.22037,0.25962 -0.44456,0.51498 -0.67522,0.76309c-1.16423,1.25233 -2.57147,2.33065 -3.83183,3.51137c-1.05606,1.43523 -2.2214,2.82509 -2.94146,4.38776c-0.18216,1.00075 -0.11935,2.07948 -0.29177,3.08647c-0.03918,0.22882 -0.0778,0.45236 -0.11553,0.6711c0.07059,0.27471 0.15033,0.54973 0.2265,0.82499c0.36089,0.23759 0.73435,0.45218 1.13151,0.62373c1.45406,0.62809 3.41495,0.81674 5.43454,0.83014c-0.00335,-0.07733 -0.00652,-0.15463 -0.00951,-0.23187c-0.02239,-0.57865 -0.3796,-10.17048 -0.33201,-10.47267c0.02152,-0.13662 0.66899,-1.95388 1.40477,-3.99413zM286.86573,200.44341c-0.08493,0.06598 -0.16983,0.13212 -0.25469,0.19844c0.12111,0.0772 0.24463,0.15845 0.37051,0.24446c1.1843,0.80925 2.16054,1.98362 3.49432,2.51132c0.08568,0.0339 0.17261,0.061 0.26061,0.08232c-1.73749,-1.35515 -3.32963,-2.60118 -3.50388,-2.73728c-0.12379,-0.09859 -0.24608,-0.19836 -0.36688,-0.29927zM344.72654,164.97136c0.07853,0.00811 0.15422,0.01597 0.22685,0.02356c0.9367,-0.11847 1.87304,-0.23365 2.80636,-0.35039c1.34614,-1.43435 2.09906,-3.29947 2.93815,-5.10556c-2.98553,0.67794 -6.45309,1.12497 -9.62073,1.91468c-0.21569,0.24116 -0.42957,0.48476 -0.64928,0.72128c1.0927,0.4058 1.88073,0.70583 1.95568,0.75414c0.87333,0.56304 1.62103,1.28625 2.34297,2.04228zM295.33939,194.5958c-1.4657,0.87548 -2.89897,1.80483 -4.31156,2.78405c0.68569,0.56713 1.35463,1.15938 2.02579,1.74817c0.03529,-0.33413 0.07118,-0.66904 0.10758,-1.0048c0.66922,-1.17585 1.39479,-2.36052 2.17819,-3.52743zM321.76002,227.29632c-0.07923,-0.313 -0.14507,-0.62782 -0.19655,-0.94345c-2.07981,-0.01852 -4.15277,-0.07236 -6.23343,-0.17499c-1,0.47328 -1.99613,0.94297 -2.81177,1.32702c0.24796,0.80921 0.54141,1.62527 0.87966,2.42484c1.28523,-0.237 2.61542,-0.60366 4.07364,-1.17344c1.40122,-0.54751 2.85402,-0.9847 4.28845,-1.45999zM356.46113,198.98428c-1.52023,0.42562 -3.04605,0.87132 -4.54386,1.38576c0.31226,1.03169 0.49956,1.97382 0.61667,2.92275c0.16298,-0.08272 0.32446,-0.16881 0.4843,-0.25862c1.78455,-1.00263 2.75581,-2.43113 3.44288,-4.04989zM322.00273,162.63441c0.14671,0.60148 0.28131,1.14421 0.39611,1.64813c1.28049,-0.11123 2.55514,-0.21012 3.82987,-0.28402c0.47252,-0.49129 1.02748,-0.89328 1.61555,-1.25901c-0.27923,-0.08342 -0.56284,-0.14996 -0.85268,-0.1925c-1.65187,-0.24242 -3.31867,-0.11415 -4.98884,0.0874zM314.39226,169.96414c-1.09188,0.08855 -2.25132,0.23622 -3.27011,0.53669c0.06023,0.32317 0.11824,0.64712 0.1085,0.95656c-0.02386,0.75773 -0.0483,1.5284 -0.03752,2.2972c0.92979,-0.79826 1.94731,-1.52304 2.6039,-2.54507c0.25045,-0.38984 0.43892,-0.80976 0.59523,-1.24539zM276.51186,185.10979c0.24718,-0.10051 0.45526,-0.18508 0.61382,-0.24952c0.08401,-0.31813 0.17266,-0.63471 0.26603,-0.94944c-1.78833,-0.03626 -3.55128,-0.18956 -5.09479,-0.58995c0.48439,0.78005 1.39078,1.28746 2.03742,1.96268c0.72775,-0.0585 1.45344,-0.11618 2.17752,-0.17377zM312.45305,156.46647c-0.16957,0.1143 -0.33906,0.22866 -0.50847,0.34307c-0.18236,0.12251 -0.36777,0.24726 -0.55572,0.37419c0.4428,-0.20489 0.87804,-0.4061 1.28957,-0.59612c-0.03323,-0.01685 -0.06615,-0.03408 -0.09873,-0.05174c-0.04231,-0.02294 -0.08453,-0.04607 -0.12665,-0.0694zM390.67063,173.79023c-0.27209,-1.89165 -1.01,-3.74182 -1.47115,-5.619c-0.62314,0.94599 -1.28148,1.8836 -1.97885,2.79124c-0.28478,1.26183 -0.56796,2.47053 -0.76088,3.29327c0.07972,0.92904 0.14694,1.83811 0.21081,2.71481c0.59261,0.00467 1.18506,0.01602 1.77721,0.03469c0.88728,-0.88917 1.40049,-2.10831 2.15258,-3.12193c0.02314,-0.03119 0.04658,-0.06221 0.07029,-0.09307zM375.89203,159.46551c-0.0953,0.27625 -0.19441,0.55147 -0.29723,0.82552c-0.11563,0.59921 -0.25805,1.19711 -0.42521,1.79057c2.81431,2.84021 4.79093,5.47853 4.92146,9.31696c0.33614,-0.29828 0.66692,-0.61184 0.99178,-0.93766c-0.52541,-3.8129 -1.55011,-7.64446 -3.87354,-9.9773c-0.39372,-0.39531 -0.84372,-0.72108 -1.31726,-1.01809zM371.54525,169.61336c-0.32604,0.45543 -0.66543,0.89461 -1.01651,1.31501c2.17311,1.04223 3.34928,1.94584 4.28368,3.07063c0.02814,-0.09055 0.05364,-0.18208 0.07619,-0.27472c-0.52479,-1.29404 -1.18162,-2.43146 -2.04621,-3.22891c-0.39607,-0.36531 -0.83115,-0.65628 -1.29715,-0.88201zM353.47815,229.0709c-0.52888,0.22207 -1.06015,0.43959 -1.59368,0.65255c-0.5466,0.68334 -1.18209,1.32135 -1.87994,1.9198c0.00374,-0.00046 0.00748,-0.00093 0.01122,-0.0014c0.80463,-0.62587 1.60922,-1.25198 2.43941,-1.83721c0.34339,-0.24207 0.68476,-0.48627 1.02298,-0.73374zM280.71663,228.11867c-1.59976,-2.89433 -1.92194,-6.20575 -1.69487,-9.62545c-0.99001,0.67495 -2.11297,1.22595 -2.74476,2.22105c-0.75954,1.19631 -0.62701,2.7644 -0.98457,4.13561c-0.1595,0.61167 -0.44361,1.39079 -0.70623,2.23909c0.93061,0.35705 1.8437,0.64264 2.72239,0.81984c1.1229,0.22645 2.26181,0.26103 3.40804,0.20986zM361.14029,215.93995c-3.07192,0.78587 -6.16854,1.46679 -9.30146,1.99558c0.11191,0.16244 0.22138,0.33168 0.32832,0.50801c1.24705,-0.34628 2.48461,-0.68156 3.70559,-0.97543c1.76783,-0.4255 3.54451,-0.91405 5.26755,-1.52816zM376.07882,142.33116c0.46007,1.17536 0.80337,2.38282 1.03886,3.61093c2.8164,0.37967 5.31291,1.03752 7.63858,2.08684c-0.13692,-0.65473 -0.32112,-1.2885 -0.67043,-1.85069c-1.51083,-2.43158 -4.02004,-2.63329 -6.42481,-3.35846c-0.54395,-0.16403 -1.06989,-0.32772 -1.5822,-0.48862zM345.92162,151.61012c0.8541,0.40899 1.68224,0.80457 2.49992,1.1975c1.83179,-0.32032 3.71145,-0.52887 5.56423,-0.70725c-0.02272,-0.45728 -0.07013,-0.94995 -0.13353,-1.45681c-1.89165,0.16593 -3.81683,0.39607 -5.82883,0.69269c-0.64618,0.09427 -1.35597,0.18005 -2.10179,0.27387zM354.92184,162.04215c-0.48134,0.85001 -0.89291,1.57392 -1.14417,2.01481c0.66773,-0.01028 1.34374,-0.04839 2.00676,-0.04282c-0.27222,-0.66801 -0.51998,-1.35097 -0.86258,-1.97199zM329.51814,196.67673c0.00422,-0.12096 0.00893,-0.24161 0.01397,-0.36194c-0.37494,0.28864 -0.74835,0.58834 -1.12705,0.90053c0.21914,-0.0042 0.43854,-0.0084 0.65822,-0.01272c0.14948,-0.1766 0.30113,-0.3519 0.45486,-0.52587zM340.51371,176.75966c0.04382,0.0258 0.08771,0.05146 0.13166,0.077c0.00697,-0.00133 0.01394,-0.00265 0.0209,-0.00398c-0.05031,-0.02435 -0.10055,-0.04882 -0.15072,-0.0734c-0.00061,0.00013 -0.00123,0.00026 -0.00184,0.00038zM321.11284,144.97993c0.05273,0.00968 0.10557,0.01953 0.15852,0.02956c0.25409,-0.14348 0.50875,-0.28588 0.76397,-0.42715c-0.31055,0.12845 -0.61798,0.26106 -0.9225,0.39759zM380.04102,156.30613c-0.77353,-0.95629 -1.75491,-1.69738 -2.79833,-2.35071c-0.02367,0.1637 -0.04882,0.32733 -0.07544,0.49088c0.9816,0.59083 1.99491,1.14724 2.87377,1.85983zM389.76019,182.22554c-0.46658,0.27981 -0.94102,0.52664 -1.4225,0.74518c0.32379,0.52031 0.60249,1.05645 0.82641,1.60487c0.21127,-0.75892 0.41221,-1.55003 0.5961,-2.35005zM298.90864,227.66969c0.07726,-0.00662 0.15433,-0.01355 0.23118,-0.02079c-0.00448,-0.47961 0.01221,-0.96442 0.04735,-1.45202c-0.33098,-0.01672 -0.65854,-0.03601 -0.98133,-0.06407c0.1868,0.53543 0.41692,1.04998 0.7028,1.53688zM308.28832,230.36058c-0.07157,-0.20459 -0.14091,-0.40974 -0.20805,-0.61527c-0.37711,0.21127 -0.75417,0.42281 -1.13296,0.62918c0.45643,-0.00295 0.90241,-0.00668 1.34101,-0.01391zM382.06223,189.71354c0.3185,-1.28963 0.41019,-2.64862 0.38248,-4.02646c-0.08148,-0.18633 -0.17366,-0.38297 -0.27661,-0.59191c-0.05448,1.46099 -0.12296,3.23798 -0.18768,4.74146c0.02789,-0.04153 0.05516,-0.08255 0.08181,-0.12308zM353.20179,169.01939c0.0461,0.03705 0.09236,0.0743 0.13878,0.11176c0.05413,-0.03692 0.10838,-0.07365 0.16275,-0.11019c-0.10052,-0.00036 -0.20103,-0.00085 -0.30153,-0.00157zM335.57733,156.91191c-0.24746,0.65409 -0.57721,1.28698 -0.85956,1.93053c1.04067,-0.47092 2.09605,-0.8793 3.16518,-1.2427c0.35084,-0.37137 0.70692,-0.73618 1.08368,-1.0738c-1.13118,0.11814 -2.25966,0.24314 -3.38929,0.38597zM331.78554,149.77102c0.1009,0.16364 0.2004,0.33533 0.29856,0.51559c0.97598,-0.36378 1.95433,-0.71449 2.93558,-1.05085c-1.08113,0.16296 -2.15938,0.34119 -3.23414,0.53526zM293.5755,147.78125c-0.33837,0.33384 -0.68037,0.66462 -1.02262,0.99518c1.27383,-0.32692 2.5928,-0.59638 3.99447,-0.79866c1.23041,-0.44842 2.43839,-0.86435 3.66034,-1.23504c-2.40613,0.37912 -4.31665,0.67725 -6.63219,1.03852zM362.1394,202.8018c-0.33563,-0.62535 -0.73269,-1.21157 -1.19671,-1.74894c-0.29066,0.685 -0.61175,1.34045 -0.98965,1.96938c0.73043,-0.06401 1.45897,-0.13827 2.18636,-0.22045zM316.11694,164.29637c-0.18762,0.20383 -0.3759,0.4069 -0.56603,0.60769c0.13848,-0.01016 0.27714,-0.02051 0.41594,-0.03122c0.05332,-0.19395 0.10334,-0.38605 0.15009,-0.57647zM312.32192,220.39434c-0.10706,0.02394 -0.21405,0.04807 -0.32097,0.0724c-0.00537,0.05299 -0.01073,0.10598 -0.01612,0.15897c0.11383,-0.07407 0.22611,-0.15135 0.33709,-0.23137z" fill="#000000"/><path d="M303.37884,187.26429c0.22925,-0.60909 0.62875,-1.00859 0.62875,-1.00859c4.80982,-4.7181 10.88606,-5.50088 17.14491,-7.31387c14.39931,-4.17103 33.08439,-3.60214 43.13337,9.02506c1.38927,3.08907 3.10783,5.1938 1.38259,8.85316c-0.7158,1.51827 -2.31376,2.43796 -3.56832,3.55314c-3.0912,2.74779 -7.61819,5.1874 -11.58034,6.34275c-13.46084,3.92512 -30.02555,5.76706 -41.32755,-4.22333c-3.39972,-4.13943 -6.23848,-7.92588 -6.33453,-13.42505v-0.20882c0,0 0,-0.87889 0.52112,-1.59445z" fill="#ffffff"/><path d="M326.00921,196.35134c-1.27506,-2.80169 -1.5521,-6.28269 -0.65633,-8.7676c1.89091,-5.24547 9.14987,-8.29737 14.25547,-7.66247c8.58267,1.06728 16.71323,12.15626 9.96325,19.83539c-2.74509,3.12295 -8.18231,3.83266 -12.00579,4.32655c-5.00962,0.41439 -7.98171,0.30425 -11.52425,-3.54028l-0.63148,-2.49618c0,0 0,-0.96455 0.59912,-1.6954zM335.0258,199.29172c0.60877,-0.0456 1.27476,-0.11882 2.0222,-0.18163c3.04265,-0.36488 8.88984,-0.82868 9.72842,-4.56119c0.16739,-0.74507 -0.31329,-3.55891 -0.41451,-4.05862c-0.11345,-0.56009 -0.08906,-1.21105 -0.44967,-1.65437c-3.3453,-4.11259 -8.89252,-4.72695 -13.12733,-2.2423c-0.67009,0.39315 -2.4324,1.86118 -2.73525,2.70486c-0.75904,2.11455 -0.01491,6.90803 2.66445,6.04809c0,0 2.49136,-0.20761 2.69898,2.28375c0.06122,0.73463 -0.11223,1.27069 -0.38729,1.66141z" fill="#ff0000"/><path d="M329.4995,192.97844c-0.21033,-1.66387 -0.36518,-3.62331 0.02365,-4.54253c1.82115,-4.30535 8.94439,-6.79973 13.15663,-4.48689c3.71753,2.04121 6.80772,7.73598 5.62179,11.95746c-1.99962,7.11795 -15.16476,8.44222 -18.29541,1.47469c-0.85779,-1.90909 -0.87563,-3.15046 -0.50667,-4.40274z" fill="#00fff3"/><path d="M340.23618,191.99101c0,-1.38071 1.11929,-2.5 2.5,-2.5c1.38071,0 2.5,1.11929 2.5,2.5c0,1.38071 -1.11929,2.5 -2.5,2.5c-1.38071,0 -2.5,-1.11929 -2.5,-2.5z" fill="#000c94"/></g></g></svg>