
<svg viewBox="0 0 112 184" height="184px" width="112px" y="0px" x="0px" preserveAspectRatio="none" xmlns:xlink="http://www.w3.org/1999/xlink" version="1.1" xmlns="http://www.w3.org/2000/svg">
<defs></defs>

<g id="fun_scrollers">
<g transform="matrix( 0.3621063232421875, 0, 0, 0.3621063232421875, -594.2,0.1)" id="svg"></g>

<g transform="matrix( 0.3621063232421875, 0, 0, 0.3621063232421875, -594.2,0.1)" id="Layer_2"></g>

<g transform="matrix( 0.3621063232421875, 0, 0, 0.3621063232421875, -594.2,0.1)" id="Layer_3"></g>

<g transform="matrix( 0.3621063232421875, 0, 0, 0.3621063232421875, -594.2,0.1)" id="Layer_2"></g>

<g transform="matrix( 0.3621063232421875, 0, 0, 0.3621063232421875, -594.2,0.1)" id="Layer_3"></g>

<g transform="matrix( 0.3621063232421875, 0, 0, 0.3621063232421875, -594.2,0.1)" id="MergedLayer_3"></g>

<g transform="matrix( 0.3621063232421875, 0, 0, 0.3621063232421875, -594.2,0.1)" id="Layer_4"></g>

<g transform="matrix( 0.3621063232421875, 0, 0, 0.3621063232421875, -594.2,0.1)" id="Layer_1">
<g>
<g>
<g>
<path d="M 1900.95 163.75
Q 1897.9 171 1896.9 175 1895.25 181.45 1896.25 186.6
L 1903.25 186.8
Q 1906.55 174.75 1913.6 164.2 1908.3 180.5 1909.45 197.25
L 1916.75 197.25
Q 1916.3 184 1920.55 171.4 1917.45 189 1917.35 206.4
L 1910.85 206.75
Q 1908.45 232.25 1901.15 262.95 1896.4 282.95 1886 318.15 1874.55 357.1 1870.35 373.35 1862.4 404.4 1859.2 429.4
L 1866.6 429.65
Q 1874.3 405.15 1878.65 392.9 1885.85 372.65 1893.5 357.25 1879.6 405.6 1879.95 455.7
L 1886.85 455.65
Q 1895.7 409.5 1901 362.1 1902.4 367.1 1901.6 374.1 1901.15 378.15 1899.6 386.2 1898.35 394 1898.3 403.95 1898.25 409.65 1898.7 421.75
L 1905.8 422.3 1905.8 436.6
Q 1904 434.1 1900.8 433.15 1897.65 432.15 1894.75 433.25 1899.8 450.85 1906.35 468.65 1898.2 470.15 1889.85 470.75
L 1890 477.7
Q 1899.5 479.2 1908.35 479.9
L 1909.45 484.3 1916.45 484.3
Q 1916 483 1916.9 482.05 1925.895703125 484.144921875 1936.95 485.05
L 1936.95 84.65
Q 1921.662109375 115.612890625 1908.4 146.3
L 1900.95 163.75
M 1887.6 341.95
Q 1888.65 338.1 1890.95 330.5
L 1906.9 278.15
Q 1899.8 317.25 1884.6 354.3 1885.9 348.2 1887.6 341.95
M 1913.7 462.65
Q 1913.95 462.6 1914.35 462.9
L 1918.6 466.55
Q 1918.4 466.85 1917.7 466.95 1916.2 467.1 1914.95 467.05 1914.65 466.55 1914.5 465.75 1914.2 464.45 1914.2 464.4 1913.75 463.25 1913.7 462.65
M 1936.95 37.1
Q 1936.53984375 37.1421875 1936.15 37.15 1909.3 37.6 1892 41.9 1890.55 44.8 1892.7 47.95 1894.85 51.05 1898.1 50.65 1887.15 53.4 1876.85 59 1872.85 61.15 1871.45 63.2 1870.4 64.7 1870.25 66.45 1870.15 68.35 1871.15 69.7 1878.75 69.55 1889.05 71.1 1895 72.05 1906.9 74.25 1924.9109375 77.3130859375 1936.95 75.5
L 1936.95 37.1 Z" stroke="none" fill="#000000"></path>
</g>
</g>
</g>
</g>

<g transform="matrix( 0.3621063232421875, 0, 0, 0.3621063232421875, -594.2,0.1)" id="Layer_5"></g>

<g transform="matrix( 0.3621063232421875, 0, 0, 0.3621063232421875, -594.2,0.1)" id="Layer_6"></g>

<g transform="matrix( 0.3621063232421875, 0, 0, 0.3621063232421875, -594.2,0.1)" id="MergedLayer_1">
<g>
<g>
<g>
<path d="M 1636.3 390.1
Q 1633.2390625 389.8513671875 1630.2 389.6
L 1630.2 408.8
Q 1636.885546875 409.023046875 1642.7 409.3 1663.75 410.1 1674.4 410.4
L 1677.85 410.5
Q 1682.65 410.75 1688.75 410.7
L 1689.75 409.8
Q 1690.9 405.25 1691.15 402.15 1691.45 398.15 1690.55 394.4 1687.35 392.7 1685.6 392.45 1683.85 392.25 1676.65 392.15
L 1660.6 391.75
Q 1651.05 391.55 1636.3 390.1
M 1690.05 232.05
L 1680.95 231.7
Q 1671.8 231.35 1664.9 231.5 1653.4 231.8 1637.6 230.95
L 1630.2 230.6 1630.2 250.85
Q 1634.4072265625 250.930078125 1640.3 251.1 1654.9 251.5 1657.9 251.5
L 1665.85 251.6
Q 1669.85 251.65 1673.85 251.85
L 1674.7 253.85
Q 1685.7 255.95 1693.95 254.85
L 1695.35 252.55
Q 1695.4 250.3 1695.4 249.5 1695.35 248.75 1695.1 246.4
L 1694.55 243.35
Q 1694.1 236.75 1692.2 232.65
L 1690.05 232.05 Z" stroke="none" fill="#9DAEEA"></path>

<path d="M 1638.4 154.4
L 1630.2 153.9 1630.2 174
Q 1637.019140625 176.65 1640.9 176.65 1645.35 176.8 1663.95 173.65
L 1677.75 171.3
Q 1687.4 169.7 1695.85 169.8 1698.25 169.95 1698.95 169.9 1699.6 169.85 1701.35 169.6
L 1701.6 164.8 1703.5 164.9 1704 159.1 1703.8 159.1 1698.05 158.8
Q 1697.9666015625 158.8 1697.85 158.8 1695.2755859375 158.8484375 1694.5 158.8 1693.75 158.75 1691.65 158.5
L 1683 157.45
Q 1675.4 156.55 1668.65 156.15
L 1665.9 155.95
Q 1652.2 155.1 1638.4 154.4 Z" stroke="none" fill="#992A3F"></path>

<path d="M 1652.9 153.55
Q 1651.25 153.4 1649.55 153.3 1646.55 152.85 1643.75 152.7 1641.15 152.55 1638.55 152.4 1635.9 152.2 1633.25 152.1 1631.725 152.0435546875 1630.2 152
L 1630.2 153.9 1638.4 154.4
Q 1652.2 155.1 1665.9 155.95
L 1668.65 156.15
Q 1675.4 156.55 1683 157.45
L 1691.65 158.5
Q 1693.75 158.75 1694.5 158.8 1695.2755859375 158.8484375 1697.85 158.8 1697.9666015625 158.8 1698.05 158.8
L 1698.25 155.05
Q 1697.8 154.95 1697.3 154.95 1696.2 154.8 1695.15 154.7 1694 154.65 1692.85 154.6 1691.6 154.55 1690.4 154.55 1689.1 154.45 1687.85 154.45 1682.5 154.3 1677.15 154.25 1676.35 154.25 1675.55 154.3 1674.55 154.25 1673.6 154.25 1672.55 154.25 1671.5 154.25 1670.35 154.2 1669.2 154.15 1667.95 154.1 1666.7 154.1 1665.3 154 1663.95 154 1662.5 154 1661.05 153.95 1659.5 153.85 1657.9 153.8 1656.8 153.75 1655.7 153.7 1655 153.7 1654.4 153.65 1653.65 153.55 1652.9 153.55
M 1695.1 109.4
Q 1694.4 109.05 1693.85 108.8 1691.4 108.35 1690.55 108.25 1689.7 108.15 1687.1 108.05
L 1650.2 105.85
Q 1641.1 105.2 1631.95 104.65 1631.0546875 104.595703125 1630.2 104.55
L 1630.2 124.55 1689.1 128.15
Q 1690.15 128.25 1691.25 128.35 1692.25 128.45 1693.25 128.6 1694.25 128.75 1695.25 128.95 1696.1 129.05 1696.95 129.2 1697.85 129.4 1698.75 129.65 1699.55 129.85 1700.4 130.1 1701.2 130.3 1701.95 130.6 1702.65 130.85 1703.25 131.3 1704.25 132.15 1705.15 133.2
L 1703.8 159.1 1704 159.1 1703.5 164.9 1701.6 164.8 1701.35 169.6
Q 1699.6 169.85 1698.95 169.9 1698.25 169.95 1695.85 169.8 1687.4 169.7 1677.75 171.3
L 1663.95 173.65
Q 1645.35 176.8 1640.9 176.65 1637.019140625 176.65 1630.2 174
L 1630.2 230.6 1637.6 230.95
Q 1653.4 231.8 1664.9 231.5 1671.8 231.35 1680.95 231.7
L 1690.05 232.05 1692.2 232.65
Q 1694.1 236.75 1694.55 243.35
L 1695.1 246.4
Q 1695.35 248.75 1695.4 249.5 1695.4 250.3 1695.35 252.55
L 1693.95 254.85
Q 1685.7 255.95 1674.7 253.85
L 1673.85 251.85
Q 1669.85 251.65 1665.85 251.6
L 1657.9 251.5
Q 1654.9 251.5 1640.3 251.1 1634.4072265625 250.930078125 1630.2 250.85
L 1630.2 389.6
Q 1633.2390625 389.8513671875 1636.3 390.1 1651.05 391.55 1660.6 391.75
L 1676.65 392.15
Q 1683.85 392.25 1685.6 392.45 1687.35 392.7 1690.55 394.4 1691.45 398.15 1691.15 402.15 1690.9 405.25 1689.75 409.8
L 1688.75 410.7
Q 1682.65 410.75 1677.85 410.5
L 1674.4 410.4
Q 1663.75 410.1 1642.7 409.3 1636.885546875 409.023046875 1630.2 408.8
L 1630.2 439.5 1669.1 441.55
Q 1677.51796875 441.7775390625 1682.35 441.35 1682.9564453125 441.140625 1683.5 440.9
L 1685.4 437.5 1690.5 432.95
Q 1693.65 430 1694.55 428.85 1695.4 427.75 1697.35 424 1698 419.8 1698.45 411.25
L 1700.15 381.5
Q 1702.05 347.2 1703.65 324.45 1705.95 293.3 1708.7 267.4
L 1711.8 239.45
Q 1712.25 236.6 1712.9 233.7 1713.65 229.9 1714.1 225.35
L 1717.2 195.45
Q 1719.45 173.65 1720.15 161.35
L 1720.25 158.8
Q 1720.7 148.9 1719.1 140.85 1717.25 131.85 1712.6 124.15 1707.85 117.1 1699.45 111.65
L 1696.9 110.05
Q 1696.26484375 109.711328125 1695.6 109.4
L 1695.1 109.4
M 1655.35 182.55
L 1657.2 180.45
Q 1661.85 176.65 1667.6 175.55 1671.4 174.85 1679.15 175.05
L 1682.45 175.15
Q 1687.65 175.4 1691.3 176.75 1693.35 178.6 1694.65 180.8 1695.75 182.7 1696.6 185.65 1697.1 190.3 1696.6 196.6
L 1696.45 199.4
Q 1696.15 203.5 1695.55 205.35 1694.75 207.65 1692.4 210.5
L 1691.25 214.3
Q 1686.6 216.2 1679.8 216.6 1676.65 216.75 1668.1 216.45
L 1665.4 216.4
Q 1662 216.25 1660.1 215.65 1657.7 214.95 1655.25 213.15 1652.35 209.7 1651.75 208.8 1651.15 207.8 1650.3 205.4 1650.1 202.4 1650.1 201.35 1650.1 200.25 1650.3 196.8
L 1650.5 192.25
Q 1651 189 1652 187 1653 185.15 1655.35 182.55 Z" stroke="none" fill="#F5F7F9"></path>

<path d="M 1700.4 130.1
Q 1699.55 129.85 1698.75 129.65 1697.85 129.4 1696.95 129.2 1696.1 129.05 1695.25 128.95 1694.25 128.75 1693.25 128.6 1692.25 128.45 1691.25 128.35 1690.15 128.25 1689.1 128.15
L 1630.2 124.55 1630.2 152
Q 1631.725 152.0435546875 1633.25 152.1 1635.9 152.2 1638.55 152.4 1641.15 152.55 1643.75 152.7 1646.55 152.85 1649.55 153.3 1651.25 153.4 1652.9 153.55 1653.65 153.55 1654.4 153.65 1655 153.7 1655.7 153.7 1656.8 153.75 1657.9 153.8 1659.5 153.85 1661.05 153.95 1662.5 154 1663.95 154 1665.3 154 1666.7 154.1 1667.95 154.1 1669.2 154.15 1670.35 154.2 1671.5 154.25 1672.55 154.25 1673.6 154.25 1674.55 154.25 1675.55 154.3 1676.35 154.25 1677.15 154.25 1682.5 154.3 1687.85 154.45 1689.1 154.45 1690.4 154.55 1691.6 154.55 1692.85 154.6 1694 154.65 1695.15 154.7 1696.2 154.8 1697.3 154.95 1697.8 154.95 1698.25 155.05
L 1698.05 158.8 1703.8 159.1 1705.15 133.2
Q 1704.25 132.15 1703.25 131.3 1702.65 130.85 1701.95 130.6 1701.2 130.3 1700.4 130.1 Z" stroke="none" fill="#110F1A"></path>

<path d="M 1657.2 180.45
L 1655.35 182.55
Q 1653 185.15 1652 187 1651 189 1650.5 192.25
L 1650.3 196.8
Q 1650.1 200.25 1650.1 201.35 1650.1 202.4 1650.3 205.4 1651.15 207.8 1651.75 208.8 1652.35 209.7 1655.25 213.15 1657.7 214.95 1660.1 215.65 1662 216.25 1665.4 216.4
L 1668.1 216.45
Q 1676.65 216.75 1679.8 216.6 1686.6 216.2 1691.25 214.3
L 1692.4 210.5
Q 1694.75 207.65 1695.55 205.35 1696.15 203.5 1696.45 199.4
L 1696.6 196.6
Q 1697.1 190.3 1696.6 185.65 1695.75 182.7 1694.65 180.8 1693.35 178.6 1691.3 176.75 1687.65 175.4 1682.45 175.15
L 1679.15 175.05
Q 1671.4 174.85 1667.6 175.55 1661.85 176.65 1657.2 180.45
M 1655.65 195.1
Q 1658.15 190.45 1659.25 189.1 1660.45 187.85 1664.7 184.55 1667.4 182.8 1669.75 182.15 1672.05 181.5 1675.35 181.5
L 1679.2 181.75
Q 1682.7 181.9 1686.2 182.25 1687.15 183.3 1687.5 183.9 1687.95 184.55 1689.35 187.2 1691.05 190.65 1691.35 193.9 1691.65 196.45 1691 200.8
L 1690 201.7
Q 1688.8 204.2 1688.3 205 1687.75 205.85 1685.8 208.25 1680.7 210.5 1674.85 210.8 1669.8 211.05 1663.55 209.95 1660.45 208.7 1659.65 208.05 1658.8 207.4 1657.05 204.8 1655.4 200.2 1655.65 195.1 Z" stroke="none" fill="#5D5A76"></path>

<path d="M 1659.25 189.1
Q 1658.15 190.45 1655.65 195.1 1655.4 200.2 1657.05 204.8 1658.8 207.4 1659.65 208.05 1660.45 208.7 1663.55 209.95 1669.8 211.05 1674.85 210.8 1680.7 210.5 1685.8 208.25 1687.75 205.85 1688.3 205 1688.8 204.2 1690 201.7
L 1691 200.8
Q 1691.65 196.45 1691.35 193.9 1691.05 190.65 1689.35 187.2 1687.95 184.55 1687.5 183.9 1687.15 183.3 1686.2 182.25 1682.7 181.9 1679.2 181.75
L 1675.35 181.5
Q 1672.05 181.5 1669.75 182.15 1667.4 182.8 1664.7 184.55 1660.45 187.85 1659.25 189.1 Z" stroke="none" fill="#F1F3F7"></path>

<path d="M 1700.2 95.5
L 1700.05 97.85
Q 1700.1 99.85 1700.2 100.5 1700.275390625 100.951953125 1700.6 102.15
L 1700.4 99.85
Q 1700.3787109375 97.634375 1700.2 95.5
M 1675.6 16.8
Q 1669.25 14.5 1661.35 13.85
L 1657.6 13.65
Q 1643.55546875 12.61484375 1630.2 12.5
L 1630.2 17.35
Q 1654.2177734375 17.765625 1678 25.15 1678 25.5 1684.3 30.6 1690.7 36.65 1691.35 41.6 1691.4 42.4 1691.5 43.2
L 1630.2 40.85 1630.2 45.45 1683.35 48.3
Q 1687.65 48.85 1691.15 50.85 1691.85 52.55 1692 54.15 1692.05 55.05 1691.95 57.65
L 1691.8 63.85
Q 1691.5 78.05 1693.25 91.55 1693.85 97.2 1693.35 101.05
L 1691.35 102.9
Q 1688 102.95 1683.25 102.75
L 1630.2 99.8 1630.2 104.55
Q 1631.0546875 104.595703125 1631.95 104.65 1641.1 105.2 1650.2 105.85
L 1687.1 108.05
Q 1689.7 108.15 1690.55 108.25 1691.4 108.35 1693.85 108.8 1694.4 109.05 1695.1 109.4
L 1695.6 109.4
Q 1693.9865234375 108.7087890625 1692.3 108.35
L 1692.35 107.85
Q 1694.3 107.75 1698.75 106.8 1699.85 103.7 1699.9 100.15 1699.95 98 1699.45 93.35
L 1700.05 93.35
Q 1699.8654296875 91.6779296875 1699.6 90.05 1697.15 74.65 1698.4 54.5
L 1699.05 45.85
Q 1699.55 39.7 1698.7 35.5 1697.6 32.45 1695.9 30.1 1694.3 28 1691.55 25.75
L 1688.5 23.65
Q 1682.1 19.15 1675.6 16.8 Z" stroke="none" fill="#7E1A34"></path>

<path d="M 1700.05 93.35
L 1699.45 93.35
Q 1699.95 98 1699.9 100.15 1699.85 103.7 1698.75 106.8 1694.3 107.75 1692.35 107.85
L 1692.3 108.35
Q 1693.9865234375 108.7087890625 1695.6 109.4 1696.26484375 109.711328125 1696.9 110.05
L 1699.45 111.65
Q 1707.85 117.1 1712.6 124.15 1717.25 131.85 1719.1 140.85 1720.7 148.9 1720.25 158.8
L 1720.15 161.35
Q 1719.45 173.65 1717.2 195.45
L 1714.1 225.35
Q 1713.65 229.9 1712.9 233.7 1712.25 236.6 1711.8 239.45
L 1708.7 267.4
Q 1705.95 293.3 1703.65 324.45 1702.05 347.2 1700.15 381.5
L 1698.45 411.25
Q 1698 419.8 1697.35 424 1695.4 427.75 1694.55 428.85 1693.65 430 1690.5 432.95
L 1685.4 437.5 1683.5 440.9 1683.3 441.25
Q 1682.8546875 441.2994140625 1682.35 441.35 1677.51796875 441.7775390625 1669.1 441.55
L 1630.2 439.5 1630.2 446.8 1633.35 447.05
Q 1650.05 448.3 1656.65 448.55 1669.8 448.95 1680.05 447.8 1686.35 446.5 1690.95 443.6 1694.95 441.1 1699.75 435.95 1704.05 429.5 1704.9 424.5 1705.8 419.35 1706.85 395.3
L 1707.7 376.6
Q 1709.3 342 1711.1 317.45 1713.4 285.5 1716.7 258.55 1719.2 238.3 1722 210.85
L 1724.75 185.6
Q 1726.9 165.8 1726.8 155.65 1726.6 139.15 1721.8 126.3 1718.95 119.85 1716.15 115.9 1712.45 110.7 1707.65 107.8 1703.2 105.25 1700.85 103 1700.7142578125 102.5310546875 1700.6 102.15 1700.275390625 100.951953125 1700.2 100.5 1700.1 99.85 1700.05 97.85
L 1700.2 95.5 1700.4 93.4 1700.05 93.35 Z" stroke="none" fill="#706C84"></path>

<path d="M 1692 54.15
Q 1691.85 52.55 1691.15 50.85 1687.65 48.85 1683.35 48.3
L 1630.2 45.45 1630.2 99.8 1683.25 102.75
Q 1688 102.95 1691.35 102.9
L 1693.35 101.05
Q 1693.85 97.2 1693.25 91.55 1691.5 78.05 1691.8 63.85
L 1691.95 57.65
Q 1692.05 55.05 1692 54.15 Z" stroke="none" fill="#E21F2D"></path>

<path d="M 1691.5 43.2
Q 1691.4 42.4 1691.35 41.6 1690.7 36.65 1684.3 30.6 1678 25.5 1678 25.15 1654.2177734375 17.765625 1630.2 17.35
L 1630.2 40.85 1691.5 43.2 Z" stroke="none" fill="#DF202E"></path>
</g>
</g>
</g>
</g>

<g transform="matrix( 0.3621063232421875, 0, 0, 0.3621063232421875, -594.2,0.1)" id="Layer_2">
<g>
<g>
<g>
<path d="M 1671.65 345.35
Q 1680.55 340.9 1687.2 339.05 1681.3 350.65 1671.2 358.95 1660.55 367.8 1647.85 370.75 1644 371.55 1642.05 372.05 1640.45 372.45 1638 373.25 1635.3 374.2 1633.95 374.6 1632.0876953125 375.1755859375 1630.2 375.65
L 1630.2 383.3
Q 1634.105859375 382.697265625 1637 381.9 1638.55 381.45 1643.35 379.85 1647.35 378.55 1649.8 378 1651.85 377.5 1655.9 376.75 1659.8 375.85 1664.2 373.75 1672.9 369.75 1680.05 363.35 1687.15 356.95 1691.9 349.05 1694.2 345.2 1695 341.95 1695.75 339.15 1695.65 334.6 1695.45 328 1695.5 327.2 1691.15 326.1 1687.3 327.85 1686 328.45 1684.35 329.65 1681.7 331.5 1681.45 331.65 1679.25 333.1 1675.95 334.5 1672.1 336.05 1670.15 336.85 1665.95 338.65 1659.15 342.15 1651.15 346.4 1648.3 347.75 1640.3552734375 351.460546875 1630.2 354.8
L 1630.2 363
Q 1633.4001953125 362.0396484375 1636.15 361.15 1647.7 357.4 1656.8 353 1666.7 347.9 1671.65 345.35
M 1709.4 449.95
Q 1706.8 448.85 1703.35 448.4 1701.15 448.15 1697.05 448.05 1688 447.75 1683.1 448.4 1680.95 448.7 1679.9 448.85 1678 449.1 1676.7 449.1 1674.25 449.05 1671.3 448.2 1669.3 447.6 1666.1 446.3 1666.95 442.5 1666.5 438.7
L 1661.25 438.6
Q 1660.05 438.6 1659.55 438.85 1658.45 439.3 1657.95 441.25 1657.4 443.25 1657.3 445.9 1657.25 447.3 1657.35 450.65 1657.35 451.75 1657.7 452.25 1658 452.65 1658.8 453.05 1663.5 455.45 1670 456 1674.15 456.35 1681.85 456
L 1689.9 455.6
Q 1689.2 455.65 1689.2 456.9
L 1689.25 466.95
Q 1685.9 468.05 1682.5 467.9
L 1682.5 475.15
Q 1700.1 476.25 1718.25 475.8 1718.8 466.8 1716.25 458.45 1715.15 454.6 1713.4 452.7 1711.95 451.05 1709.4 449.95
M 1700.8 353.25
L 1700.8 362.45
Q 1700.8 363.75 1701.3 364.25 1701.8 364.7 1702.95 364.7
L 1707.6 364.8
Q 1709.6 364.8 1710.3 364.6 1710.85 364.45 1712.45 363.7 1713.8 363.05 1714.65 363 1715.7 362.95 1717.3 363.5 1724.8 366.3 1729.65 372.6 1734.15 378.45 1734.15 384.7 1734.15 387.15 1732.9 392.35 1732.25 395.05 1731.6 396.5 1730.65 398.7 1729.2 399.95 1726.25 402.5 1721.15 401.75 1719.5 401.5 1717.05 400.8 1713.35 399.7 1712.95 399.6 1707.9 398.35 1703.05 398.85
L 1703.05 405.65
Q 1716.7 410.85 1731.15 408.65 1735.75 407.95 1737.45 405.8 1738.3 404.75 1739 402.05 1741.5 392.65 1741.9 386.55 1742.5 377.75 1739.65 371.05 1737.9 366.85 1734.9 363.55 1731.3 359.65 1726.3 357.5 1721.25 355.35 1715.95 355.4 1716.25 350.4 1715.75 344.8 1715.65 343.55 1715.1 343.2 1714.7 342.9 1713.9 342.9
L 1709.45 342.8
Q 1707.05 342.7 1705.7 343.15 1704.2 343.7 1703.15 344.95 1702.6 345.7 1701.9 347.4 1701.3 348.65 1701.05 349.7 1700.8 350.85 1700.8 353.25
M 1649.4 276.6
Q 1650.4 276.4 1652.9 276.65 1655.15 276.8 1656.3 276.35 1657.3 276 1659.1 274.2 1666.2 267.05 1673.7 260.85
L 1673.75 254 1665.65 253.85
Q 1664.15 256.3 1661 258.95 1659.25 260.5 1655.6 263.4 1653.6 265.2 1651.35 267.7 1650.05 269.1 1649.7 270 1649.2 271.15 1649.35 273.25 1649.55 275.75 1649.4 276.6 Z" stroke="none" fill="#000000"></path>

<path d="M 1687.2 339.05
Q 1680.55 340.9 1671.65 345.35 1666.7 347.9 1656.8 353 1647.7 357.4 1636.15 361.15 1633.4001953125 362.0396484375 1630.2 363
L 1630.2 375.65
Q 1632.0876953125 375.1755859375 1633.95 374.6 1635.3 374.2 1638 373.25 1640.45 372.45 1642.05 372.05 1644 371.55 1647.85 370.75 1660.55 367.8 1671.2 358.95 1681.3 350.65 1687.2 339.05 Z" stroke="none" fill="#FFFFFF"></path>
</g>
</g>
</g>
</g>
</g>
</svg>
