
<svg viewBox="0 0 272 172" height="172px" width="272px" y="0px" x="0px" preserveAspectRatio="none" xmlns:xlink="http://www.w3.org/1999/xlink" version="1.1" xmlns="http://www.w3.org/2000/svg">
<defs></defs>

<g id="Layer_2">
<g>
<g>
<g>
<path d="M 207.35 119.7
Q 207.35 119.85 207.35 120 207.2 120.45 207.25 120.95 207.25 121.1 207.25 121.25 206.9 121.8 206.55 122.4 205.9 123.6 205.6 124.9 205.6 125.1 205.55 125.25 203.95 128.1 201.7 130.5 200.3 132.1 199.1 133.85 198.75 134 198.45 134.15 197.65 134.55 197.25 135.35 195.6599609375 136.5662109375 194 137.7 179.30625 147.94375 161.3 151.5 155.6251953125 152.62265625 149.9 153.05 141.602734375 153.698828125 133.2 152.9 106.3375 150.3208984375 82.65 137.7 81.9978515625 137.3541015625 81.35 137 80.9462890625 136.7783203125 80.55 136.55 72.4619140625 131.86953125 67.6 124.1 67.3 123.1 66.75 122.1 65.85 120.55 64.4 119.5 64.35 119.35 64.35 119.2 64.3 118.9 64.3 118.55 63.7 117.65 63.3 116.7 63.3 116.85 63.3 116.95 63.3 118.65 63.9 120.15 63.95 122.55 64.5 124.9 64.95 126.75 64.9 128.75 65 128.85 65.05 129 65.1 129.1 65.15 129.25 65.15 129.35 65.15 129.5 65.05 130.5 65.35 131.45 65.45 131.7 65.55 131.95 65.55 132.05 65.55 132.2 65.55 132.9 65.55 133.65 65.55 133.8 65.55 133.9 65.65 134.05 65.7 134.15 65.8 134.65 65.8 135.15 65.8 135.25 65.8 135.4 65.9 135.5 65.95 135.6 66.05 135.75 66.1 135.85 66.15 136 66.15 136.1 66.2 136.75 66.2 137.35 66.2 137.45 66.2 137.6 66.2 137.65 66.2 137.7 66.225 137.75 66.25 137.8 66.5 138.1 66.8 138.35 66.8 138.45 66.85 138.55 67.1 139.2 67.4 139.8 67.45 139.9 67.5 140.05 68.85 141.4 69.85 142.95 70.55 144.1 71.35 145.2 71.65 145.45 71.95 145.7 72.75 146.5 73.65 147.15 73.75 147.3 73.8 147.45 73.95 147.65 74.05 147.9 74.8 148.3 75.4 148.85 76.15 149.55 77 150.1 77.05 150.25 77.1 150.35 77.2 150.5 77.25 150.6 77.6 150.75 77.9 150.85 78 151 78.1 151.1 78.5 151.85 79.25 152.15 79.3 152.3 79.4 152.4 79.8384765625 153.1419921875 80.55 153.55 80.8931640625 153.7697265625 81.3 153.9 81.45 154 81.55 154.15 81.5900390625 154.2 81.6 154.25 93.4236328125 154.1416015625 105.5 153.8 117.8 153.45 130.15 153.45 140.0443359375 153.419921875 149.9 153.25 173.19375 152.955078125 196.25 152 197.8384765625 150.46640625 199.3 148.75 199.45 148.6 199.6 148.5 200 148.25 200.45 148 200.55 147.85 200.65 147.75 201.15 146.9 201.6 146 201.65 145.9 201.7 145.8 202.5 145.15 202.95 144.25 203.45 143.25 204.3 142.6 204.35 142.45 204.4 142.35 204.55 142 204.5 141.6 205.2 140.85 205.65 139.85 206.186328125 138.6798828125 206.95 137.7 206.980078125 137.6748046875 207 137.65 207 137.55 207.05 137.45 207.05 137.3 207.1 137.2 207.2 137.05 207.3 136.95 207.85 136.25 208.35 135.45 208.35 135.35 208.35 135.2 208.35 134.85 208.35 134.5 208.4 134.35 208.5 134.25 208.75 134 209 133.75 209 133.6 209 133.5 209 133.25 209 133 209.55 132.2 209.7 131.3 209.95 129.95 209.95 128.6 210.05 128.45 210.15 128.35 210.2 128.2 210.3 128.1 210.35 127.95 210.35 127.85 210.4 127.25 210.4 126.6 210.4 126.5 210.4 126.35 210.4 126.25 210.5 126.15 210.55 126 210.65 125.85 210.65 120.45 211.1 115.05 211.25 112.4 210.85 109.8 210.3 111.7 209.85 113.6 209.05 116.85 207.35 119.7
M 66.95 88.25
Q 66.7 88.8 66.55 89.4 66.6 89.5 66.6 89.55 66.6 90 66.8 90.35 67.05 93.5 67.4 96.65 67.55 98.35 67.7 100 69.35 100 71 100.35 71.1 100.35 71.25 100.4 73.8 100.1 76.4 99.75 76.3 98.2 74.55 96.65 73.3 95.5 72.5 94 69.9 90.95 66.95 88.25
M 80.55 72.5
Q 79.7375 70.59140625 79 68.6 78.7 67.7 78.35 66.85 78.2 70.8 78.25 74.75 78.25 77.7 78.4 80.6 79.479296875 80.309375 80.55 80 82.05859375 79.5470703125 83.55 79.05 81.9404296875 75.8623046875 80.55 72.5
M 199.8 91.3
Q 198.65 91.65 197.55 92.15 197.45 92.3 197.3 92.4 196.85 92.8 196.4 93.3 196.3 93.35 196.2 93.35 195.8 93.5 195.4 93.6 195.25 93.75 195.05 93.85 194.35 94.15 194.15 94.8 194.15 94.9 194.1 94.95 193.4 95.3 192.65 95.55 198.45 96.5 204.55 97.4 204.55 94.85 204.55 92.25 204.55 91.05 204.55 89.8 203.45 90.25 202.15 90.45 201.4 90.55 200.6 90.7 200.45 90.85 200.3 91 200.15 91.15 200 91.25 199.9 91.3 199.8 91.3
M 196.7 72.95
Q 196.7 72.8 196.65 72.7 195.6 74.1 194.65 75.6 193.65 77.2 192.4 78.65 192.1 78.8 191.85 79 191.75 79.1 191.7 79.25 194.05 80.3 197 81.55 197 81.35 197 81.2 197.15 79.45 196.7 77.85 196.7 76.95 196.7 76.1 196.7 74.5 196.7 72.95
M 176.35 121.65
Q 182.95 117.85 188.4 112.5 174.35 118.9 158.7 120.75 154.289453125 121.28046875 149.9 121.5 130.701171875 122.6416015625 111.9 118.45 106.35 117.2 101.3 114.65 98.75 113.35 96.3 112.4 96.05 112.1 95.9 111.8 95.8 111.7 95.7 111.6 95.15 111.4 94.45 111.15 94.4 111.05 94.35 110.95 94.25 110.85 94.15 110.75 93.15 110.35 92.05 110.15 91.05 109.3 89.9 108.65 89.65 108.55 89.6 108.7 94.05 119.9 105.35 124.95 113.5 128.55 122.2 130.45 129 131.95 135.95 132.2 143.0384765625 132.436328125 149.9 131.3 154.6546875 130.532421875 159.3 129.1 168.25 126.35 176.35 121.65 Z" stroke="none" fill="#EE9D33"></path>

<path d="M 197.8 66.4
Q 197.7 66.25 197.55 66.1 197.45 66 197.35 65.85 196.4 65.55 195.5 65.2 195.25 65.1 195 65 188 64.75 181.05 64.5 181.05 61.75 181.05 59 181.05 56.35 181.05 53.75 181 53.6 180.9 53.5 180.6 53.05 180.65 52.5 180.65 52.35 180.65 52.2 180.65 52.05 180.55 52 180.25 51.75 180 51.4 179.9 51.25 179.7 51.1 170.1 52.15 161 54.9 160.95 54.6 160.8 54.4 160.75 54.2 160.55 54.05 160.55 53.9 160.55 53.75 160.35 53.3 160.2 52.8 160.15 52.7 160.15 52.55 159.95 52.2 159.8 51.9 159.75 51.75 159.75 51.6 159.75 51.45 159.75 51.3 159.95 49.55 159.6 47.85 159.4 46.95 158.95 46.05 158.95 45.75 158.95 45.45 158.95 45.3 158.95 45.15 158.9 45 158.8 44.9 158.45 44.45 158.5 43.9 158.55 43.75 158.55 43.6 158.5 43.45 158.4 43.35 158.25 43.15 158.1 43 158.05 42.7 157.95 42.4 157.85 42.25 157.7 42.1 156.4 42.05 155.05 42.05 154.9 42.1 154.75 42.2 154.2 42.6 153.7 43.1 153.5 43.25 153.3 43.4 151.591015625 44.1080078125 149.9 44.85 144.6642578125 47.1912109375 139.6 49.95 139.05 50 138.55 49.95 138.5 49.95 138.45 49.85 138.15 48.85 137.25 48.3 137.05 48.15 136.9 48 136.85 47.85 136.8 47.7 136.75 47.55 136.7 47.4 136.3 47.1 135.9 46.75 135.75 46.65 135.6 46.5 134.9 45.3 134.35 44.05 134.1 43.35 133.55 42.8 133.55 42.65 133.5 42.5 133.349609375 42.1443359375 133.15 41.8 132.690234375 40.885546875 132 40.05 131.55 39.5 131.4 38.8 131.1 38.7 130.8 38.55 130.75 38.55 130.65 38.5 130.55 38.4 130.5 38.3 130.35 38.15 130.25 38 129.15 37.95 128 37.9 125.578515625 39.4982421875 123.45 41.8 123.3689453125 41.8748046875 123.3 41.95 118.5 47.2 114.6 52.85 114.1 52.45 113.5 52.1 107.35 48.4 101.7 43.8 101.15 43.65 100.6 43.45 100.4 43.4 100.25 43.3 99.2 43.25 98.1 43.3 98 43.3 97.9 43.4 97.95 43.95 97.65 44.35 97.55 44.5 97.5 44.65 97.5 44.95 97.5 45.25 97.25 49.4 97.2 53.55 97.1 58.75 97.1 64 91.85 63.65 86.8 62 83.539453125 60.9580078125 80.55 60.95 79.0927734375 60.954296875 77.7 61.2 77.15 61.15 76.65 61.15 76.65 61.3 76.65 61.45 76.4 61.5 76.2 61.55 76.4 61.95 76.55 62.4 76.35 65.15 76.35 67.95 76.35 74.5 76.35 81.05 74.4 81.45 72.45 81.75 67.4 82.5 64.3 84.8 64.75 85.75 65.35 86.55 65.05 87.4 64.8 88.3 64.35 89.7 64.85 91 64.95 93.4 65.25 95.75 65.6 97.9 65.65 100.1 65.25 100.15 64.85 100.2 62.6 100.85 60.25 101.6 60.15 101.65 60 101.7 59.95 101.75 59.95 101.85 59.25 101.9 58.6 102 59.2 102 59.85 102.05 59.8 102.05 59.75 102.1 59.65 102.2 59.6 102.3 59.6 102.4 59.6 102.5 59.6 102.6 59.6 102.7 59.6 102.8 59.6 102.9 59.6 102.95 59.6 103 59.55 103 59.45 103.05 59.4 103.05 59.4 103.2 59.4 103.35 59.4 103.5 59.4 104 59.4 104.45 59.4 104.6 59.4 104.75 59.9 105.1 59.85 105.65 59.8 105.8 59.8 106 60.05 106.3 60.3 106.6 60.45 106.75 60.55 106.9 60.6 107.05 60.6 107.2 60.6 107.75 60.9 108.15 60.85 109.7 60.75 111.2 60.65 113.4 61.3 115.4 61.5 117 61.45 118.6 61.4 119.75 61.95 120.8 62 122.8 62.5 124.75 63.15 127 62.95 129.4 63 129.5 63.1 129.65 63.15 129.75 63.15 129.9 63.15 130.15 63.15 130.4 63 131.45 63.5 132.35 63.55 132.45 63.6 132.6 63.6 132.7 63.6 132.85 63.6 133.7 63.7 134.55 63.7 134.7 63.85 134.8 63.85 134.95 63.85 135.05 63.85 135.4 63.85 135.8 63.85 135.9 63.85 136.05 64 136.3 64.15 136.55 64.2 136.65 64.25 136.75 64.25 136.9 64.25 137 64.25 137.35 64.25 137.7 64.25 137.85 64.25 138 64.25 138.1 64.25 138.25 64.4 138.5 64.6 138.7 64.7 138.85 64.8 139 64.85 139.1 64.9 139.25 65.15 139.9 65.45 140.45 65.5 140.6 65.55 140.7 66.6 141.7 67.35 142.9 68.35 144.45 69.4 145.85 70.25 146.5 71 147.3 71.3 147.6 71.7 147.85 71.9 148.2 72.15 148.55 72.25 148.7 72.35 148.8 73.3 149.3 74.15 150.05 74.5 150.35 74.9 150.6 75.05 150.85 75.2 151.1 75.3 151.25 75.4 151.35 75.7 151.45 76.05 151.55 76.1 151.55 76.1 151.6 76.45 152.55 77.2 153.25 77.812890625 153.8337890625 78.55 154.25 79.54921875 154.268359375 80.55 154.25 81.0873046875 154.255078125 81.6 154.25 81.5900390625 154.2 81.55 154.15 81.45 154 81.3 153.9 80.8931640625 153.7697265625 80.55 153.55 79.8384765625 153.1419921875 79.4 152.4 79.3 152.3 79.25 152.15 78.5 151.85 78.1 151.1 78 151 77.9 150.85 77.6 150.75 77.25 150.6 77.2 150.5 77.1 150.35 77.05 150.25 77 150.1 76.15 149.55 75.4 148.85 74.8 148.3 74.05 147.9 73.95 147.65 73.8 147.45 73.75 147.3 73.65 147.15 72.75 146.5 71.95 145.7 71.65 145.45 71.35 145.2 70.55 144.1 69.85 142.95 68.85 141.4 67.5 140.05 67.45 139.9 67.4 139.8 67.1 139.2 66.85 138.55 66.8 138.45 66.8 138.35 66.5 138.1 66.25 137.8 66.225 137.75 66.2 137.7 66.2 137.65 66.2 137.6 66.2 137.45 66.2 137.35 66.2 136.75 66.15 136.1 66.15 136 66.1 135.85 66.05 135.75 65.95 135.6 65.9 135.5 65.8 135.4 65.8 135.25 65.8 135.15 65.8 134.65 65.7 134.15 65.65 134.05 65.55 133.9 65.55 133.8 65.55 133.65 65.55 132.9 65.55 132.2 65.55 132.05 65.55 131.95 65.45 131.7 65.35 131.45 65.05 130.5 65.15 129.5 65.15 129.35 65.15 129.25 65.1 129.1 65.05 129 65 128.85 64.9 128.75 64.95 126.75 64.5 124.9 63.95 122.55 63.9 120.15 63.3 118.65 63.3 116.95 63.3 116.85 63.3 116.7 63.7 117.65 64.3 118.55 64.3 118.9 64.35 119.2 64.35 119.35 64.4 119.5 65.85 120.55 66.75 122.1 67.3 123.1 67.6 124.1 72.4619140625 131.86953125 80.55 136.55 80.9462890625 136.7783203125 81.35 137 81.9978515625 137.3541015625 82.65 137.7 106.3375 150.3208984375 133.2 152.9 141.602734375 153.698828125 149.9 153.05 155.6251953125 152.62265625 161.3 151.5 179.30625 147.94375 194 137.7 195.6599609375 136.5662109375 197.25 135.35 197.65 134.55 198.45 134.15 198.75 134 199.1 133.85 200.3 132.1 201.7 130.5 203.95 128.1 205.55 125.25 205.6 125.1 205.6 124.9 205.9 123.6 206.55 122.4 206.9 121.8 207.25 121.25 207.25 121.1 207.25 120.95 207.2 120.45 207.35 120 207.35 119.85 207.35 119.7 209.05 116.85 209.85 113.6 210.3 111.7 210.85 109.8 211.25 112.4 211.1 115.05 210.65 120.45 210.65 125.85 210.55 126 210.5 126.15 210.4 126.25 210.4 126.35 210.4 126.5 210.4 126.6 210.4 127.25 210.35 127.85 210.35 127.95 210.3 128.1 210.2 128.2 210.15 128.35 210.05 128.45 209.95 128.6 209.95 129.95 209.7 131.3 209.55 132.2 209 133 209 133.25 209 133.5 209 133.6 209 133.75 208.75 134 208.5 134.25 208.4 134.35 208.35 134.5 208.35 134.85 208.35 135.2 208.35 135.35 208.35 135.45 207.85 136.25 207.3 136.95 207.2 137.05 207.1 137.2 207.05 137.3 207.05 137.45 207 137.55 207 137.65 206.980078125 137.6748046875 206.95 137.7 206.186328125 138.6798828125 205.65 139.85 205.2 140.85 204.5 141.6 204.55 142 204.4 142.35 204.35 142.45 204.3 142.6 203.45 143.25 202.95 144.25 202.5 145.15 201.7 145.8 201.65 145.9 201.6 146 201.15 146.9 200.65 147.75 200.55 147.85 200.45 148 200 148.25 199.6 148.5 199.45 148.6 199.3 148.75 197.8384765625 150.46640625 196.25 152 197.6673828125 151.9701171875 199.05 151.9 200.2921875 150.608984375 201.45 149.2 201.95 149 202.4 148.65 202.5 148.6 202.5 148.5 202.55 148.35 202.65 148.25 203.3 147.45 203.65 146.5 203.7 146.4 203.75 146.25 204.9 145.6 205.4 144.3 205.5 144.05 205.65 143.8 205.9 143.55 206.2 143.3 206.3 143.2 206.35 143.1 206.4 142.85 206.45 142.6 206.45 142.45 206.45 142.35 207.3 141.3 207.9 140.15 208.35 139.25 208.9 138.4 208.95 138.3 208.95 138.15 209 138.05 209 137.9 209.103515625 137.8017578125 209.2 137.7 210.02578125 136.820703125 210.25 135.7 210.3 135.45 210.3 135.2 210.6 134.85 210.85 134.45 210.9 134.35 210.95 134.25 210.95 134 210.95 133.75 210.95 133.6 210.95 133.5 211.4 133.05 211.6 132.5 211.65 132.4 211.7 132.25 211.7 132.15 211.7 132 211.7 131.65 211.7 131.3 211.7 131.15 211.7 131.05 211.8 130.9 211.85 130.8 211.9 130.65 211.95 130.55 211.95 130.4 211.95 130.3 211.95 129.95 211.95 129.55 211.95 129.45 211.95 129.3 212.1 129.05 212.25 128.8 212.3 128.7 212.35 128.6 212.35 128.45 212.35 128.35 212.35 127.7 212.35 127.1 212.35 127 212.35 126.85 212.45 126.75 212.5 126.6 212.55 126.5 212.6 126.35 212.6 124.75 212.6 123.15 212.6 121.8 212.6 120.45 213.3 117.25 213.1 113.85 212.75 107.55 212.35 101.3 212.35 101.2 212.35 101.15 212.25 101.15 212.2 101.15 212.2 99.85 212.2 98.5 209.35 98.1 206.55 97.7 206.55 95.8 206.55 93.9 206.55 91.25 206.55 88.65 206.9 88.3 207.25 87.95 204.7 84.85 200.75 83.15 199.85 82.75 198.95 82.4 198.95 80.95 199 79.5 199.05 78.35 198.65 77.35 198.65 75.65 198.75 74 198.8 72.85 198.4 71.8 198.5 70.75 198.2 69.8 198.4 69.45 198.55 69.1 198.6 68.95 198.65 68.8 198.65 68.5 198.65 68.2 198.65 67.6 198.65 66.95 198.6 66.8 198.55 66.65 198.2 66.55 197.85 66.45 197.85 66.4 197.8 66.4
M 193.15 65.75
Q 194.15 66.3 195.3 66.5
L 195.3 66.55
Q 195.35 66.6 195.45 66.7 195.15 66.65 194.85 66.65 195.05 68.25 195.7 69.8 195.55 69.9 195.4 70.05 195.35 70.5 195.25 70.95 195.25 71.1 195.2 71.25 193.95 73 192.75 74.7 190.9 77.3 189.25 79.55 196.95 82.75 204.6 87.75 203.85 88.1 203.3 88.4 201.2 89.55 198.75 90 197.8 90.7 196.65 91.05 195.3 91.5 194.35 92.55 193.95 92.65 193.55 92.75 192.85 93.3 192.25 93.95 192.15 94.05 192.1 94.2 191.6 94.3 191.1 94.45 191.05 94.45 191 94.5 190.9 94.6 190.8 94.7 190.15 95.25 189.7 96 189.65 96.1 189.65 96.25 199.9 97.6 210.15 99.2 210.15 99.35 210.15 99.55 210.15 101.2 210.15 102.9 210.15 103.85 210.15 104.75 208.95 107.75 208.25 110.85 207.25 115.05 205.45 118.9 205.3 120.7 204.35 122.25 203.7 123.4 203.5 124.7 202.55 125.9 201.85 127.2 201.6 127.65 201.35 128.1 200 129.15 199 130.55 198 132.05 196.8 133.3 195.85 133.7 195.3 134.55 195.2 134.7 195.1 134.85 193.2666015625 136.33671875 191.35 137.7 182.8517578125 143.81171875 173 147.45 164.3 150.65 155.2 151.45 152.5416015625 151.671875 149.9 151.8 119.209375 153.160546875 90.85 140.5 87.9830078125 139.224609375 85.35 137.7 82.8427734375 136.239453125 80.55 134.55 74.2626953125 129.8890625 69.65 123.5 69.65 123.35 69.6 123.2 69.6 123.05 69.55 122.85 68.45 121.85 67.8 120.45 67.35 119.45 66.45 118.9 66.4 118.55 66.4 118.25 66.35 118.1 66.35 117.95 65.25 116.05 64.65 113.95 64.05 112 63.1 110.3 63.1 109.95 63.1 109.65 63.1 108.9 63.1 108.15 63.1 107.95 63.1 107.8 63.05 107.65 63 107.5 62.95 107.3 62.85 107.15 62.85 107 62.85 106.85 62.75 106.75 62.7 106.6 62.65 106.5 62.6 106.4 62.6 106.15 62.6 105.9 62.6 105.05 62.6 104.15 62.6 104.05 62.6 103.9
L 62.6 103.8
Q 62.2 103.75 61.85 103.75 61.85 103.65 61.85 103.55 61.85 103.35 61.8 103.15 61.8 102.95 61.85 102.75 61.85 102.65 61.9 102.55 62.5 102.25 63.1 102.05 67.55 102 72.4 101.65 76.55 101.3 79.05 99.65 78 97.4 76.45 95.35 72.5 90.35 67.75 86.25 67.9 85.75 67.85 85.25
L 67.85 85.15
Q 67.35 85.05 66.85 85.05 66.8 84.95 66.7 84.85 66.55 84.75 66.45 84.6 73.9017578125 83.3400390625 80.55 81.2 83.1357421875 80.4021484375 85.6 79.45 85.6 79.3 85.6 79.15 85.6 78.7 85.6 78.25 85.55 78.05 85.5 77.9 83.65 75.05 82.4 71.85 81.446484375 69.297265625 80.55 66.7 79.9888671875 65.1166015625 79.45 63.5 79.2 63.2 78.95 62.85 78.85 62.7 78.75 62.55 78.7 62.25 78.6 61.95
L 78.6 61.9
Q 78.6 61.8 78.6 61.7 79.5765625 61.95703125 80.55 62.2 89.99375 64.4734375 99.15 64.7 99.15 64.4 99.15 64.1 99.15 59.95 99.1 55.8 99.05 50.1 99.85 44.75 100.6 45.25 101.35 45.75 103.5 47.25 105.7 48.65 106.2 49.3 106.85 49.8 110.05 51.95 113.25 53.95 115.05 53.8 116.85 53.65 118.1 51.4 119.65 49.35 122.659375 45.3626953125 126.15 41.8 127.298828125 40.626953125 128.5 39.5 128.95 39.45 129.35 39.5 129.4 39.5 129.45 39.6 129.5 39.8 129.55 39.9 130.01875 40.92265625 130.7 41.8 130.8244140625 41.95234375 130.95 42.1 131.2 42.4 131.4 42.7 131.45 42.85 131.45 43 131.5 43.15 131.5 43.3 132.45 44.4 132.9 45.75 133.15 46.4 133.45 47 134.15 47.55 134.7 48.3 134.75 48.4 134.75 48.55 135.75 49.3 136.35 50.4 136.4 50.55 136.4 50.7 136.75 50.8 137.1 50.9 137.2 50.95 137.25 51 137.3 51.1 137.35 51.2 137.5 51.35 137.65 51.5 138.85 51.55 140.1 51.55
L 140.1 51.5
Q 144.9904296875 48.6703125 149.9 46.35 152.9712890625 44.9314453125 156.05 43.7 156.55 44.05 156.5 44.65 156.5 44.8 156.5 44.95 156.6 45.1 156.7 45.25 156.8 45.4 156.9 45.55 156.9 46 156.9 46.5 156.9 46.65 156.9 46.8 157.05 47.1 157.1 47.4 157.25 48.35 157.55 49.25 157.6 49.4 157.7 49.55 157.7 50 157.7 50.5 157.7 51.25 157.7 52 157.7 52.15 157.7 52.3 157.9 52.8 158.05 53.25 158.1 53.4 158.1 53.55 158.2 53.7 158.3 53.85 158.6 54.8 159.05 55.7 159.15 55.85 159.25 56 168.85 54.2 178.2 52.3 178.8 52.6 178.65 53.25 178.6 53.4 178.6 53.55 179.3 56.35 179.15 59.4 179 62.3 179 65.2 186.05 65.5 193.15 65.75
M 196.65 72.7
Q 196.7 72.8 196.7 72.95 196.7 74.5 196.7 76.1 196.7 76.95 196.7 77.85 197.15 79.45 197 81.2 197 81.35 197 81.55 194.05 80.3 191.7 79.25 191.75 79.1 191.85 79 192.1 78.8 192.4 78.65 193.65 77.2 194.65 75.6 195.6 74.1 196.65 72.7
M 197.55 92.15
Q 198.65 91.65 199.8 91.3 199.9 91.3 200 91.25 200.15 91.15 200.3 91 200.45 90.85 200.6 90.7 201.4 90.55 202.15 90.45 203.45 90.25 204.55 89.8 204.55 91.05 204.55 92.25 204.55 94.85 204.55 97.4 198.45 96.5 192.65 95.55 193.4 95.3 194.1 94.95 194.15 94.9 194.15 94.8 194.35 94.15 195.05 93.85 195.25 93.75 195.4 93.6 195.8 93.5 196.2 93.35 196.3 93.35 196.4 93.3 196.85 92.8 197.3 92.4 197.45 92.3 197.55 92.15
M 79 68.6
Q 79.7375 70.59140625 80.55 72.5 81.9404296875 75.8623046875 83.55 79.05 82.05859375 79.5470703125 80.55 80 79.479296875 80.309375 78.4 80.6 78.25 77.7 78.25 74.75 78.2 70.8 78.35 66.85 78.7 67.7 79 68.6
M 66.55 89.4
Q 66.7 88.8 66.95 88.25 69.9 90.95 72.5 94 73.3 95.5 74.55 96.65 76.3 98.2 76.4 99.75 73.8 100.1 71.25 100.4 71.1 100.35 71 100.35 69.35 100 67.7 100 67.55 98.35 67.4 96.65 67.05 93.5 66.8 90.35 66.6 90 66.6 89.55 66.6 89.5 66.55 89.4
M 90.8 89.3
Q 90.8 89.4 90.8 89.5 90.8 89.7 90.8 89.9 90.8 90 90.8 90.1 90.85 90.2 90.85 90.3 90.95 90.4 91 90.5 91.1 90.6 91.2 90.7 91.35 90.8 91.45 90.9 94.1 94.65 98.75 95.6 107.5 97.3 115.85 94.6 116.2 94.25 116.6 93.9 117 93.55 117.25 93.15 117.5 92.8 117.75 92.5 117.8 92.4 117.85 92.3 117.9 92.25 117.95 92.15 117.95 92.05 117.95 91.95 117.95 91.85 117.95 91.75 117.95 91.65 117.95 91.55 117.95 91.45 118 91.35 118.05 91.25 118.1 91.15 118.15 91.05 118.2 90.95 118.2 90.85 118.2 90.75 118.2 90.45 118.2 90.15 118.2 90.05 118.2 89.95 118.2 89.85 118.2 89.75 118.2 89.55 118.2 89.4 118.2 89.3 118.2 89.2 118.2 89.1 118.2 89 118.15 88.9 118.1 88.8 118.05 88.7 118 88.55 117.95 88.5 117.95 88.4 117.95 88.3 117.95 88.2 117.95 88.1 117.95 88 117.9 87.8 117.85 87.6 117.85 87.5 117.8 87.4 117.75 87.3 117.75 87.2 117.65 87.1 117.6 87 117.5 86.9 117.35 86.8 117.25 86.7 117.15 86.65 117.05 86.55 116.95 86.45 116.9 86.35 116.9 86.25 116.85 86.15 116.8 86.05 116.75 85.95 116.7 85.85 116.55 85.75 116.45 85.65 116.35 85.55 116.25 85.45 116.05 85.25 115.9 85.05 115.85 84.95 115.75 84.85 115.7 84.75 115.65 84.65 115.5 84.6 115.3 84.55 115.2 84.5 115.15 84.45 115.05 84.4 115 84.35 114.9 84.25 114.85 84.15 114.75 84.05 114.65 83.95 113.45 83.2 112.15 82.7 108.05 81.25 103.65 81.45 97.55 81.7 92.75 85.55 91.4 86.65 90.8 88.35 90.8 88.45 90.8 88.55 90.8 88.8 90.8 89.1 90.8 89.2 90.8 89.3
M 98.05 94
Q 94.6 92.5 92.75 89.4 93.05 87.6 94.5 86.35 98.45 82.9 103.65 82.45 108.7 82 112.9 84.7 112.9 84.8 113 84.9 113.05 85 113.15 85.1 113.35 85.2 113.55 85.25 113.65 85.3 113.75 85.4 113.85 85.6 114 85.8 114.2 86.15 114.5 86.4 114.65 86.45 114.7 86.55 114.8 86.75 114.95 86.95 115.15 87.3 115.45 87.55 115.6 87.65 115.7 87.75 115.75 87.85 115.8 87.95 115.85 88.05 115.9 88.15 115.95 88.25 115.95 88.35 115.95 88.45 115.95 88.55 115.95 88.7 115.95 88.9 115.95 89 115.95 89.1 115.95 89.2 115.95 89.3 116.1 89.5 116.2 89.7 116.25 89.8 116.25 89.9 116.25 90 116.25 90.1 116.25 90.2 116.2 90.25 116.05 90.55 116 90.9 115.95 91.2 115.95 91.45 115.95 91.55 115.9 91.65 115.75 91.85 115.55 92.05 112.05 96.15 106.05 94.95 104.75 94.3 103.25 94.7 101.05 95.25 98.05 94
M 192.5 107.7
L 192.5 107.75
Q 192.4 107.8 192.3 107.9 192.2 107.95 192.15 108.05 192.1 108.15 192 108.25 190.65 109.3 189.15 110.2 188.25 110.7 187.25 111.05 187.2 111.15 187.15 111.25 187.05 111.35 186.95 111.45 177.45 116.25 166.9 118.35 164 118.9 161.15 119.35 155.5212890625 120.2416015625 149.9 120.65 134.398046875 121.8083984375 118.95 119.35 108.25 117.65 99.2 111.85 98.75 111.8 98.3 111.7 98.2 111.65 98.15 111.6 98.1 111.5 98 111.4 97.9 111.2 97.75 111 97.65 110.9 97.55 110.8 97.25 110.75 96.9 110.65 96.75 110.6 96.55 110.55 96.45 110.45 96.35 110.35 95.45 109.6 94.2 109.5 94.05 109.5 93.9 109.45 92.5 108.45 91 107.75 90.25 107.4 89.7 106.8 88.5 106.8 87.25 106.75 87.2 106.8 87.15 106.9 87.15 106.95 87.15 107.05 87.15 107.15 87.15 107.25 87.15 107.45 87.15 107.65 87.15 107.75 87.15 107.85 87.25 107.95 87.3 108.05 87.35 108.15 87.4 108.25 87.4 108.35 87.4 108.45 87.45 108.65 87.55 108.85 87.6 108.95 87.65 109.05 87.65 109.15 87.65 109.25 87.65 109.35 87.65 109.45 87.65 109.65 87.7 109.8 87.7 109.9 87.7 110 89.15 112.2 90.55 114.4 96.05 123.35 106.25 127.05 126.45 134.3 147.8 132.6 148.854296875 132.5162109375 149.9 132.4 153.218359375 132.0103515625 156.45 131.25 166.75 128.85 176.05 123.75 184.45 119.2 191.2 112.45 191.25 112.35 191.3 112.25 191.35 112.15 191.4 112.05 191.45 111.95 191.45 111.85 191.9 111.4 192.25 110.95 192.6 110.55 193.1 110.25 193.2 110.2 193.3 110.1 193.35 110 193.35 109.9 193.4 109.8 193.45 109.7 193.45 109.6 193.5 109.5 193.8 109.2 194.1 108.95 194.4 108.7 194.45 108.3 194.5 108.2 194.5 108.1 194.5 108 194.45 108 193.5 107.8 192.5 107.7
M 188.4 112.5
Q 182.95 117.85 176.35 121.65 168.25 126.35 159.3 129.1 154.6546875 130.532421875 149.9 131.3 143.0384765625 132.436328125 135.95 132.2 129 131.95 122.2 130.45 113.5 128.55 105.35 124.95 94.05 119.9 89.6 108.7 89.65 108.55 89.9 108.65 91.05 109.3 92.05 110.15 93.15 110.35 94.15 110.75 94.25 110.85 94.35 110.95 94.4 111.05 94.45 111.15 95.15 111.4 95.7 111.6 95.8 111.7 95.9 111.8 96.05 112.1 96.3 112.4 98.75 113.35 101.3 114.65 106.35 117.2 111.9 118.45 130.701171875 122.6416015625 149.9 121.5 154.289453125 121.28046875 158.7 120.75 174.35 118.9 188.4 112.5
M 173.6 83.4
Q 173.5 83.4 173.45 83.35 172.4 82.2 170.85 81.6 166.8 80.05 162.3 80.6 158 81.2 154.3 83.55 153 84.35 151.95 85.45 151.9 85.55 151.85 85.65 151.8 85.75 151.75 85.85 151.7 85.95 151.6 86.05 151.6 86.45 151.6 86.8 151.6 87.3 151.6 87.8 151.6 88.3 151.6 88.8 151.6 88.9 151.6 89 151.8 89.3 152.05 89.55 152.1 89.65 152.2 89.75 152.3 89.85 152.4 89.95 153.6 92.85 156.7 93.55 165.6 95.5 174.6 92.45 175.55 91.75 176.25 90.85 176.85 90.1 177.1 89.3 177.15 89.2 177.2 89.1 177.2 89 177.2 88.9 177.2 88.65 177.2 88.35 177.2 88.15 177.2 87.95 177.2 87.85 177.2 87.75 177.1 87.65 177.05 87.55 177 87.45 176.9 87.35 176.9 87.15 176.9 86.95 176.9 86.85 176.85 86.8 176.8 86.65 176.65 86.55 176.65 86.35 176.65 86.15 176.6 86.05 176.6 85.95 176.55 85.85 176.5 85.75 176.1 85.45 175.75 85.05 175.1 84.4 174.45 83.8 174.35 83.7 174.3 83.6 174.1 83.55 173.9 83.5 173.75 83.45 173.6 83.4
M 172.45 84.35
Q 172.55 84.7 172.85 84.9 173.9 85.65 174.6 86.65 174.65 86.7 174.65 86.8 174.7 86.9 174.7 87 174.7 87.1 174.7 87.2 175 87.45 175.05 87.8 175.1 88.2 175.15 88.6 175.05 88.8 175 89 174.9 89.2 174.9 89.4 174.65 89.65 174.5 89.9 173.75 91 172.7 91.75 165.2 94.1 157.5 92.8 157.4 92.7 157.25 92.65 156.5 92.1 155.85 91.55 154.75 90.6 154.35 89.3 154.2 89.1 154 88.9 153.8 88.6 153.6 88.35 153.6 87.85 153.55 87.35 153.55 86.85 153.7 86.35 154.8 85.15 156.15 84.3 159.488671875 82.120703125 163.4 81.4 163.737890625 81.347265625 164.05 81.3 164.46328125 81.339453125 164.85 81.35 165.51328125 81.458984375 166.15 81.55 169.3 82 171.6 84.05 171.85 84.15 172.05 84.2 172.25 84.25 172.45 84.35 Z" stroke="none" fill="#000000"></path>

<path d="M 195.3 66.5
Q 194.15 66.3 193.15 65.75 186.05 65.5 179 65.2 179 62.3 179.15 59.4 179.3 56.35 178.6 53.55 178.6 53.4 178.65 53.25 178.8 52.6 178.2 52.3 168.85 54.2 159.25 56 159.15 55.85 159.05 55.7 158.6 54.8 158.3 53.85 158.2 53.7 158.1 53.55 158.1 53.4 158.05 53.25 157.9 52.8 157.7 52.3 157.7 52.15 157.7 52 157.7 51.25 157.7 50.5 157.7 50 157.7 49.55 157.6 49.4 157.55 49.25 157.25 48.35 157.1 47.4 157.05 47.1 156.9 46.8 156.9 46.65 156.9 46.5 156.9 46 156.9 45.55 156.8 45.4 156.7 45.25 156.6 45.1 156.5 44.95 156.5 44.8 156.5 44.65 156.55 44.05 156.05 43.7 152.9712890625 44.9314453125 149.9 46.35 144.9904296875 48.6703125 140.1 51.5
L 140.1 51.55
Q 138.85 51.55 137.65 51.5 137.5 51.35 137.35 51.2 137.3 51.1 137.25 51 137.2 50.95 137.1 50.9 136.75 50.8 136.4 50.7 136.4 50.55 136.35 50.4 135.75 49.3 134.75 48.55 134.75 48.4 134.7 48.3 134.15 47.55 133.45 47 133.15 46.4 132.9 45.75 132.45 44.4 131.5 43.3 131.5 43.15 131.45 43 131.45 42.85 131.4 42.7 131.2 42.4 130.95 42.1 130.8244140625 41.95234375 130.7 41.8 130.01875 40.92265625 129.55 39.9 129.5 39.8 129.45 39.6 129.4 39.5 129.35 39.5 128.95 39.45 128.5 39.5 127.298828125 40.626953125 126.15 41.8 122.659375 45.3626953125 119.65 49.35 118.1 51.4 116.85 53.65 115.05 53.8 113.25 53.95 110.05 51.95 106.85 49.8 106.2 49.3 105.7 48.65 103.5 47.25 101.35 45.75 100.6 45.25 99.85 44.75 99.05 50.1 99.1 55.8 99.15 59.95 99.15 64.1 99.15 64.4 99.15 64.7 89.99375 64.4734375 80.55 62.2 79.5765625 61.95703125 78.6 61.7 78.6 61.8 78.6 61.9
L 78.6 61.95
Q 78.7 62.25 78.75 62.55 78.85 62.7 78.95 62.85 79.2 63.2 79.45 63.5 79.9888671875 65.1166015625 80.55 66.7 81.446484375 69.297265625 82.4 71.85 83.65 75.05 85.5 77.9 85.55 78.05 85.6 78.25 85.6 78.7 85.6 79.15 85.6 79.3 85.6 79.45 83.1357421875 80.4021484375 80.55 81.2 73.9017578125 83.3400390625 66.45 84.6 66.55 84.75 66.7 84.85 66.8 84.95 66.85 85.05 67.35 85.05 67.85 85.15
L 67.85 85.25
Q 67.9 85.75 67.75 86.25 72.5 90.35 76.45 95.35 78 97.4 79.05 99.65 76.55 101.3 72.4 101.65 67.55 102 63.1 102.05 62.5 102.25 61.9 102.55 61.85 102.65 61.85 102.75 61.8 102.95 61.8 103.15 61.85 103.35 61.85 103.55 61.85 103.65 61.85 103.75 62.2 103.75 62.6 103.8
L 62.6 103.9
Q 62.6 104.05 62.6 104.15 62.6 105.05 62.6 105.9 62.6 106.15 62.6 106.4 62.65 106.5 62.7 106.6 62.75 106.75 62.85 106.85 62.85 107 62.85 107.15 62.95 107.3 63 107.5 63.05 107.65 63.1 107.8 63.1 107.95 63.1 108.15 63.1 108.9 63.1 109.65 63.1 109.95 63.1 110.3 64.05 112 64.65 113.95 65.25 116.05 66.35 117.95 66.35 118.1 66.4 118.25 66.4 118.55 66.45 118.9 67.35 119.45 67.8 120.45 68.45 121.85 69.55 122.85 69.6 123.05 69.6 123.2 69.65 123.35 69.65 123.5 74.2626953125 129.8890625 80.55 134.55 82.8427734375 136.239453125 85.35 137.7 87.9830078125 139.224609375 90.85 140.5 119.209375 153.160546875 149.9 151.8 152.5416015625 151.671875 155.2 151.45 164.3 150.65 173 147.45 182.8517578125 143.81171875 191.35 137.7 193.2666015625 136.33671875 195.1 134.85 195.2 134.7 195.3 134.55 195.85 133.7 196.8 133.3 198 132.05 199 130.55 200 129.15 201.35 128.1 201.6 127.65 201.85 127.2 202.55 125.9 203.5 124.7 203.7 123.4 204.35 122.25 205.3 120.7 205.45 118.9 207.25 115.05 208.25 110.85 208.95 107.75 210.15 104.75 210.15 103.85 210.15 102.9 210.15 101.2 210.15 99.55 210.15 99.35 210.15 99.2 199.9 97.6 189.65 96.25 189.65 96.1 189.7 96 190.15 95.25 190.8 94.7 190.9 94.6 191 94.5 191.05 94.45 191.1 94.45 191.6 94.3 192.1 94.2 192.15 94.05 192.25 93.95 192.85 93.3 193.55 92.75 193.95 92.65 194.35 92.55 195.3 91.5 196.65 91.05 197.8 90.7 198.75 90 201.2 89.55 203.3 88.4 203.85 88.1 204.6 87.75 196.95 82.75 189.25 79.55 190.9 77.3 192.75 74.7 193.95 73 195.2 71.25 195.25 71.1 195.25 70.95 195.35 70.5 195.4 70.05 195.55 69.9 195.7 69.8 195.05 68.25 194.85 66.65 195.15 66.65 195.45 66.7 195.35 66.6 195.3 66.55
L 195.3 66.5
M 173.45 83.35
Q 173.5 83.4 173.6 83.4 173.75 83.45 173.9 83.5 174.1 83.55 174.3 83.6 174.35 83.7 174.45 83.8 175.1 84.4 175.75 85.05 176.1 85.45 176.5 85.75 176.55 85.85 176.6 85.95 176.6 86.05 176.65 86.15 176.65 86.35 176.65 86.55 176.8 86.65 176.85 86.8 176.9 86.85 176.9 86.95 176.9 87.15 176.9 87.35 177 87.45 177.05 87.55 177.1 87.65 177.2 87.75 177.2 87.85 177.2 87.95 177.2 88.15 177.2 88.35 177.2 88.65 177.2 88.9 177.2 89 177.2 89.1 177.15 89.2 177.1 89.3 176.85 90.1 176.25 90.85 175.55 91.75 174.6 92.45 165.6 95.5 156.7 93.55 153.6 92.85 152.4 89.95 152.3 89.85 152.2 89.75 152.1 89.65 152.05 89.55 151.8 89.3 151.6 89 151.6 88.9 151.6 88.8 151.6 88.3 151.6 87.8 151.6 87.3 151.6 86.8 151.6 86.45 151.6 86.05 151.7 85.95 151.75 85.85 151.8 85.75 151.85 85.65 151.9 85.55 151.95 85.45 153 84.35 154.3 83.55 158 81.2 162.3 80.6 166.8 80.05 170.85 81.6 172.4 82.2 173.45 83.35
M 192.5 107.75
L 192.5 107.7
Q 193.5 107.8 194.45 108 194.5 108 194.5 108.1 194.5 108.2 194.45 108.3 194.4 108.7 194.1 108.95 193.8 109.2 193.5 109.5 193.45 109.6 193.45 109.7 193.4 109.8 193.35 109.9 193.35 110 193.3 110.1 193.2 110.2 193.1 110.25 192.6 110.55 192.25 110.95 191.9 111.4 191.45 111.85 191.45 111.95 191.4 112.05 191.35 112.15 191.3 112.25 191.25 112.35 191.2 112.45 184.45 119.2 176.05 123.75 166.75 128.85 156.45 131.25 153.218359375 132.0103515625 149.9 132.4 148.854296875 132.5162109375 147.8 132.6 126.45 134.3 106.25 127.05 96.05 123.35 90.55 114.4 89.15 112.2 87.7 110 87.7 109.9 87.7 109.8 87.65 109.65 87.65 109.45 87.65 109.35 87.65 109.25 87.65 109.15 87.65 109.05 87.6 108.95 87.55 108.85 87.45 108.65 87.4 108.45 87.4 108.35 87.4 108.25 87.35 108.15 87.3 108.05 87.25 107.95 87.15 107.85 87.15 107.75 87.15 107.65 87.15 107.45 87.15 107.25 87.15 107.15 87.15 107.05 87.15 106.95 87.15 106.9 87.2 106.8 87.25 106.75 88.5 106.8 89.7 106.8 90.25 107.4 91 107.75 92.5 108.45 93.9 109.45 94.05 109.5 94.2 109.5 95.45 109.6 96.35 110.35 96.45 110.45 96.55 110.55 96.75 110.6 96.9 110.65 97.25 110.75 97.55 110.8 97.65 110.9 97.75 111 97.9 111.2 98 111.4 98.1 111.5 98.15 111.6 98.2 111.65 98.3 111.7 98.75 111.8 99.2 111.85 108.25 117.65 118.95 119.35 134.398046875 121.8083984375 149.9 120.65 155.5212890625 120.2416015625 161.15 119.35 164 118.9 166.9 118.35 177.45 116.25 186.95 111.45 187.05 111.35 187.15 111.25 187.2 111.15 187.25 111.05 188.25 110.7 189.15 110.2 190.65 109.3 192 108.25 192.1 108.15 192.15 108.05 192.2 107.95 192.3 107.9 192.4 107.8 192.5 107.75
M 90.8 89.5
Q 90.8 89.4 90.8 89.3 90.8 89.2 90.8 89.1 90.8 88.8 90.8 88.55 90.8 88.45 90.8 88.35 91.4 86.65 92.75 85.55 97.55 81.7 103.65 81.45 108.05 81.25 112.15 82.7 113.45 83.2 114.65 83.95 114.75 84.05 114.85 84.15 114.9 84.25 115 84.35 115.05 84.4 115.15 84.45 115.2 84.5 115.3 84.55 115.5 84.6 115.65 84.65 115.7 84.75 115.75 84.85 115.85 84.95 115.9 85.05 116.05 85.25 116.25 85.45 116.35 85.55 116.45 85.65 116.55 85.75 116.7 85.85 116.75 85.95 116.8 86.05 116.85 86.15 116.9 86.25 116.9 86.35 116.95 86.45 117.05 86.55 117.15 86.65 117.25 86.7 117.35 86.8 117.5 86.9 117.6 87 117.65 87.1 117.75 87.2 117.75 87.3 117.8 87.4 117.85 87.5 117.85 87.6 117.9 87.8 117.95 88 117.95 88.1 117.95 88.2 117.95 88.3 117.95 88.4 117.95 88.5 118 88.55 118.05 88.7 118.1 88.8 118.15 88.9 118.2 89 118.2 89.1 118.2 89.2 118.2 89.3 118.2 89.4 118.2 89.55 118.2 89.75 118.2 89.85 118.2 89.95 118.2 90.05 118.2 90.15 118.2 90.45 118.2 90.75 118.2 90.85 118.2 90.95 118.15 91.05 118.1 91.15 118.05 91.25 118 91.35 117.95 91.45 117.95 91.55 117.95 91.65 117.95 91.75 117.95 91.85 117.95 91.95 117.95 92.05 117.95 92.15 117.9 92.25 117.85 92.3 117.8 92.4 117.75 92.5 117.5 92.8 117.25 93.15 117 93.55 116.6 93.9 116.2 94.25 115.85 94.6 107.5 97.3 98.75 95.6 94.1 94.65 91.45 90.9 91.35 90.8 91.2 90.7 91.1 90.6 91 90.5 90.95 90.4 90.85 90.3 90.85 90.2 90.8 90.1 90.8 90 90.8 89.9 90.8 89.7 90.8 89.5 Z" stroke="none" fill="#FDDF5E"></path>

<path d="M 92.75 89.4
Q 94.6 92.5 98.05 94 101.05 95.25 103.25 94.7 104.75 94.3 106.05 94.95 112.05 96.15 115.55 92.05 115.75 91.85 115.9 91.65 115.95 91.55 115.95 91.45 115.95 91.2 116 90.9 116.05 90.55 116.2 90.25 116.25 90.2 116.25 90.1 116.25 90 116.25 89.9 116.25 89.8 116.2 89.7 116.1 89.5 115.95 89.3 115.95 89.2 115.95 89.1 115.95 89 115.95 88.9 115.95 88.7 115.95 88.55 115.95 88.45 115.95 88.35 115.95 88.25 115.9 88.15 115.85 88.05 115.8 87.95 115.75 87.85 115.7 87.75 115.6 87.65 115.45 87.55 115.15 87.3 114.95 86.95 114.8 86.75 114.7 86.55 114.65 86.45 114.5 86.4 114.2 86.15 114 85.8 113.85 85.6 113.75 85.4 113.65 85.3 113.55 85.25 113.35 85.2 113.15 85.1 113.05 85 113 84.9 112.9 84.8 112.9 84.7 108.7 82 103.65 82.45 98.45 82.9 94.5 86.35 93.05 87.6 92.75 89.4
M 172.85 84.9
Q 172.55 84.7 172.45 84.35 172.25 84.25 172.05 84.2 171.85 84.15 171.6 84.05 169.3 82 166.15 81.55 165.51328125 81.458984375 164.85 81.35 164.46328125 81.339453125 164.05 81.3 163.737890625 81.347265625 163.4 81.4 159.488671875 82.120703125 156.15 84.3 154.8 85.15 153.7 86.35 153.55 86.85 153.55 87.35 153.6 87.85 153.6 88.35 153.8 88.6 154 88.9 154.2 89.1 154.35 89.3 154.75 90.6 155.85 91.55 156.5 92.1 157.25 92.65 157.4 92.7 157.5 92.8 165.2 94.1 172.7 91.75 173.75 91 174.5 89.9 174.65 89.65 174.9 89.4 174.9 89.2 175 89 175.05 88.8 175.15 88.6 175.1 88.2 175.05 87.8 175 87.45 174.7 87.2 174.7 87.1 174.7 87 174.7 86.9 174.65 86.8 174.65 86.7 174.6 86.65 173.9 85.65 172.85 84.9 Z" stroke="none" fill="#EEC24E"></path>
</g>
</g>
</g>
</g>
</svg>
