
<svg viewBox="0 0 272 172" height="172px" width="272px" y="0px" x="0px" preserveAspectRatio="none" xmlns:xlink="http://www.w3.org/1999/xlink" version="1.1" xmlns="http://www.w3.org/2000/svg">
<defs></defs>

<g id="Layer_2">
<g>
<g>
<g>
<path d="M 63.3 122.3
Q 63.3 122.45 63.3 122.55 63.3 124.25 63.9 125.75 63.95 128.15 64.5 130.5 64.95 132.35 64.9 134.35 65 134.45 65.05 134.6 65.1 134.7 65.15 134.85 65.15 134.95 65.15 135.1 65.05 136.1 65.35 137.05 65.45 137.3 65.55 137.55 65.55 137.614453125 65.55 137.7 65.55 137.746875 65.55 137.8 65.55 138.5 65.55 139.25 65.55 139.4 65.55 139.5 65.65 139.65 65.7 139.75 65.8 140.25 65.8 140.75 65.8 140.85 65.8 141 65.9 141.1 65.95 141.2 66.05 141.35 66.1 141.45 66.15 141.6 66.15 141.7 66.2 142.35 66.2 142.95 66.2 143.05 66.2 143.2 66.2 143.3 66.25 143.4 66.5 143.7 66.8 143.95 66.8 144.05 66.85 144.15 67.1 144.8 67.4 145.4 67.45 145.5 67.5 145.65 68.85 147 69.85 148.55 70.55 149.7 71.35 150.8 71.65 151.05 71.95 151.3 72.75 152.1 73.65 152.75 73.75 152.9 73.8 153.05 73.95 153.25 74.05 153.5 74.68046875 153.836328125 75.2 154.25 77.86796875 154.2677734375 80.55 154.25 92.8767578125 154.1568359375 105.5 153.8 106.84921875 153.7615234375 108.2 153.7 94.296875 149.6740234375 81.35 142.6 80.9462890625 142.3783203125 80.55 142.15 77.17109375 140.1947265625 74.35 137.7 70.430859375 134.223828125 67.6 129.7 67.3 128.7 66.75 127.7 65.85 126.15 64.4 125.1 64.35 124.95 64.35 124.8 64.3 124.5 64.3 124.15 63.7 123.25 63.3 122.3
M 210.85 115.4
Q 210.3 117.3 209.85 119.2 209.05 122.45 207.35 125.3 207.35 125.45 207.35 125.6 207.2 126.05 207.25 126.55 207.25 126.7 207.25 126.85 206.9 127.4 206.55 128 205.9 129.2 205.6 130.5 205.6 130.7 205.55 130.85 203.95 133.7 201.7 136.1 201.0158203125 136.88203125 200.35 137.7 199.7134765625 138.5552734375 199.1 139.45 198.75 139.6 198.45 139.75 197.65 140.15 197.25 140.95 187.5654296875 148.3576171875 176.4 152.7 188.97578125 152.3607421875 201.5 151.8 201.5453125 151.709375 201.6 151.6 201.65 151.5 201.7 151.4 202.5 150.75 202.95 149.85 203.45 148.85 204.3 148.2 204.35 148.05 204.4 147.95 204.55 147.6 204.5 147.2 205.2 146.45 205.65 145.45 206.2 144.25 207 143.25 207 143.15 207.05 143.05 207.05 142.9 207.1 142.8 207.2 142.65 207.3 142.55 207.85 141.85 208.35 141.05 208.35 140.95 208.35 140.8 208.35 140.45 208.35 140.1 208.4 139.95 208.5 139.85 208.75 139.6 209 139.35 209 139.2 209 139.1 209 138.85 209 138.6 209.29921875 138.16484375 209.45 137.7 209.631640625 137.3103515625 209.7 136.9 209.95 135.55 209.95 134.2 210.05 134.05 210.15 133.95 210.2 133.8 210.3 133.7 210.35 133.55 210.35 133.45 210.4 132.85 210.4 132.2 210.4 132.1 210.4 131.95 210.4 131.85 210.5 131.75 210.55 131.6 210.65 131.45 210.65 126.05 211.1 120.65 211.25 118 210.85 115.4
M 176.35 127.25
Q 182.95 123.45 188.4 118.1 174.35 124.5 158.7 126.35 154.289453125 126.88046875 149.9 127.1 130.701171875 128.2416015625 111.9 124.05 106.35 122.8 101.3 120.25 98.75 118.95 96.3 118 96.05 117.7 95.9 117.4 95.8 117.3 95.7 117.2 95.15 117 94.45 116.75 94.4 116.65 94.35 116.55 94.25 116.45 94.15 116.35 93.15 115.95 92.05 115.75 91.05 114.9 89.9 114.25 89.65 114.15 89.6 114.3 94.05 125.5 105.35 130.55 113.5 134.15 122.2 136.05 128.007421875 137.3310546875 133.9 137.7 134.9353515625 137.7634765625 135.95 137.8 139.4388671875 137.91640625 142.85 137.7 146.415625 137.476953125 149.9 136.9 154.6546875 136.132421875 159.3 134.7 168.25 131.95 176.35 127.25
M 66.6 95.15
Q 66.6 95.6 66.8 95.95 67.05 99.1 67.4 102.25 67.55 103.95 67.7 105.6 69.35 105.6 71 105.95 71.1 105.95 71.25 106 73.8 105.7 76.4 105.35 76.3 103.8 74.55 102.25 73.3 101.1 72.5 99.6 69.9 96.55 66.95 93.85 66.7 94.4 66.55 95 66.6 95.1 66.6 95.15
M 79 74.2
Q 78.7 73.3 78.35 72.45 78.2 76.4 78.25 80.35 78.25 83.3 78.4 86.2 79.479296875 85.909375 80.55 85.6 82.05859375 85.1470703125 83.55 84.65 81.9404296875 81.4623046875 80.55 78.1 79.7375 76.19140625 79 74.2
M 196.4 98.9
Q 196.3 98.95 196.2 98.95 195.8 99.1 195.4 99.2 195.25 99.35 195.05 99.45 194.35 99.75 194.15 100.4 194.15 100.5 194.1 100.55 193.4 100.9 192.65 101.15 198.45 102.1 204.55 103 204.55 100.45 204.55 97.85 204.55 96.65 204.55 95.4 203.45 95.85 202.15 96.05 201.4 96.15 200.6 96.3 200.45 96.45 200.3 96.6 200.15 96.75 200 96.85 199.9 96.9 199.8 96.9 198.65 97.25 197.55 97.75 197.45 97.9 197.3 98 196.85 98.4 196.4 98.9
M 196.7 78.55
Q 196.7 78.4 196.65 78.3 195.6 79.7 194.65 81.2 193.65 82.8 192.4 84.25 192.1 84.4 191.85 84.6 191.75 84.7 191.7 84.85 194.05 85.9 197 87.15 197 86.95 197 86.8 197.15 85.05 196.7 83.45 196.7 82.55 196.7 81.7 196.7 80.1 196.7 78.55 Z" stroke="none" fill="#EE9D33"></path>

<path d="M 195.3 72.15
L 195.3 72.1
Q 194.15 71.9 193.15 71.35 186.05 71.1 179 70.8 179 67.9 179.15 65 179.3 61.95 178.6 59.15 178.6 59 178.65 58.85 178.8 58.2 178.2 57.9 168.85 59.8 159.25 61.6 159.15 61.45 159.05 61.3 158.6 60.4 158.3 59.45 158.2 59.3 158.1 59.15 158.1 59 158.05 58.85 157.9 58.4 157.7 57.9 157.7 57.75 157.7 57.6 157.7 56.85 157.7 56.1 157.7 55.6 157.7 55.15 157.6 55 157.55 54.85 157.25 53.95 157.1 53 157.05 52.7 156.9 52.4 156.9 52.25 156.9 52.1 156.9 51.6 156.9 51.15 156.8 51 156.7 50.85 156.6 50.7 156.5 50.55 156.5 50.4 156.5 50.25 156.55 49.65 156.05 49.3 152.9712890625 50.5314453125 149.9 51.95 144.9904296875 54.2703125 140.1 57.1
L 140.1 57.15
Q 138.85 57.15 137.65 57.1 137.5 56.95 137.35 56.8 137.3 56.7 137.25 56.6 137.2 56.55 137.1 56.5 136.75 56.4 136.4 56.3 136.4 56.15 136.35 56 135.75 54.9 134.75 54.15 134.75 54 134.7 53.9 134.15 53.15 133.45 52.6 133.15 52 132.9 51.35 132.45 50 131.5 48.9 131.5 48.75 131.45 48.6 131.45 48.45 131.4 48.3 131.2 48 130.95 47.7 130.1 46.7 129.55 45.5 129.5 45.4 129.45 45.2 129.4 45.1 129.35 45.1 128.95 45.05 128.5 45.1 123.65 49.65 119.65 54.95 118.1 57 116.85 59.25 115.05 59.4 113.25 59.55 110.05 57.55 106.85 55.4 106.2 54.9 105.7 54.25 103.5 52.85 101.35 51.35 100.6 50.85 99.85 50.35 99.05 55.7 99.1 61.4 99.15 65.55 99.15 69.7 99.15 70 99.15 70.3 89.99375 70.0734375 80.55 67.8 79.5765625 67.55703125 78.6 67.3 78.6 67.4 78.6 67.5
L 78.6 67.55
Q 78.7 67.85 78.75 68.15 78.85 68.3 78.95 68.45 79.2 68.8 79.45 69.1 79.9888671875 70.7166015625 80.55 72.3 81.446484375 74.897265625 82.4 77.45 83.65 80.65 85.5 83.5 85.55 83.65 85.6 83.85 85.6 84.3 85.6 84.75 85.6 84.9 85.6 85.05 83.1357421875 86.0021484375 80.55 86.8 73.9017578125 88.9400390625 66.45 90.2 66.55 90.35 66.7 90.45 66.8 90.55 66.85 90.65 67.35 90.65 67.85 90.75
L 67.85 90.85
Q 67.9 91.35 67.75 91.85 72.5 95.95 76.45 100.95 78 103 79.05 105.25 76.55 106.9 72.4 107.25 67.55 107.6 63.1 107.65 62.5 107.85 61.9 108.15 61.85 108.25 61.85 108.35 61.8 108.55 61.8 108.75 61.85 108.95 61.85 109.15 61.85 109.25 61.85 109.35 62.2 109.35 62.6 109.4
L 62.6 109.5
Q 62.6 109.65 62.6 109.75 62.6 110.65 62.6 111.5 62.6 111.75 62.6 112 62.65 112.1 62.7 112.2 62.75 112.35 62.85 112.45 62.85 112.6 62.85 112.75 62.95 112.9 63 113.1 63.05 113.25 63.1 113.4 63.1 113.55 63.1 113.75 63.1 114.5 63.1 115.25 63.1 115.55 63.1 115.9 64.05 117.6 64.65 119.55 65.25 121.65 66.35 123.55 66.35 123.7 66.4 123.85 66.4 124.15 66.45 124.5 67.35 125.05 67.8 126.05 68.45 127.45 69.55 128.45 69.6 128.65 69.6 128.8 69.65 128.95 69.65 129.1 73.104296875 133.8845703125 77.5 137.7 78.97109375 138.9794921875 80.55 140.15 85.23515625 143.6021484375 90.85 146.1 101.499609375 150.854296875 112.45 153.6 121.3009765625 153.45 130.15 153.45 140.0443359375 153.419921875 149.9 153.25 161.815625 153.1193359375 173.65 152.8 185.333203125 148.3703125 195.1 140.45 195.2 140.3 195.3 140.15 195.85 139.3 196.8 138.9 197.3505859375 138.3263671875 197.85 137.7 198.4587890625 136.96171875 199 136.15 200 134.75 201.35 133.7 201.6 133.25 201.85 132.8 202.55 131.5 203.5 130.3 203.7 129 204.35 127.85 205.3 126.3 205.45 124.5 207.25 120.65 208.25 116.45 208.95 113.35 210.15 110.35 210.15 109.45 210.15 108.5 210.15 106.8 210.15 105.15 210.15 104.95 210.15 104.8 199.9 103.2 189.65 101.85 189.65 101.7 189.7 101.6 190.15 100.85 190.8 100.3 190.9 100.2 191 100.1 191.05 100.05 191.1 100.05 191.6 99.9 192.1 99.8 192.15 99.65 192.25 99.55 192.85 98.9 193.55 98.35 193.95 98.25 194.35 98.15 195.3 97.1 196.65 96.65 197.8 96.3 198.75 95.6 201.2 95.15 203.3 94 203.85 93.7 204.6 93.35 196.95 88.35 189.25 85.15 190.9 82.9 192.75 80.3 193.95 78.6 195.2 76.85 195.25 76.7 195.25 76.55 195.35 76.1 195.4 75.65 195.55 75.5 195.7 75.4 195.05 73.85 194.85 72.25 195.15 72.25 195.45 72.3 195.35 72.2 195.3 72.15
M 173.45 88.95
Q 173.5 89 173.6 89 173.75 89.05 173.9 89.1 174.1 89.15 174.3 89.2 174.35 89.3 174.45 89.4 175.1 90 175.75 90.65 176.1 91.05 176.5 91.35 176.55 91.45 176.6 91.55 176.6 91.65 176.65 91.75 176.65 91.95 176.65 92.15 176.8 92.25 176.85 92.4 176.9 92.45 176.9 92.55 176.9 92.75 176.9 92.95 177 93.05 177.05 93.15 177.1 93.25 177.2 93.35 177.2 93.45 177.2 93.55 177.2 93.75 177.2 93.95 177.2 94.25 177.2 94.5 177.2 94.6 177.2 94.7 177.15 94.8 177.1 94.9 176.85 95.7 176.25 96.45 175.55 97.35 174.6 98.05 165.6 101.1 156.7 99.15 153.6 98.45 152.4 95.55 152.3 95.45 152.2 95.35 152.1 95.25 152.05 95.15 151.8 94.9 151.6 94.6 151.6 94.5 151.6 94.4 151.6 93.9 151.6 93.4 151.6 92.9 151.6 92.4 151.6 92.05 151.6 91.65 151.7 91.55 151.75 91.45 151.8 91.35 151.85 91.25 151.9 91.15 151.95 91.05 153 89.95 154.3 89.15 158 86.8 162.3 86.2 166.8 85.65 170.85 87.2 172.4 87.8 173.45 88.95
M 189.15 115.8
Q 190.65 114.9 192 113.85 192.1 113.75 192.15 113.65 192.2 113.55 192.3 113.5 192.4 113.4 192.5 113.35
L 192.5 113.3
Q 193.5 113.4 194.45 113.6 194.5 113.6 194.5 113.7 194.5 113.8 194.45 113.9 194.4 114.3 194.1 114.55 193.8 114.8 193.5 115.1 193.45 115.2 193.45 115.3 193.4 115.4 193.35 115.5 193.35 115.6 193.3 115.7 193.2 115.8 193.1 115.85 192.6 116.15 192.25 116.55 191.9 117 191.45 117.45 191.45 117.55 191.4 117.65 191.35 117.75 191.3 117.85 191.25 117.95 191.2 118.05 184.45 124.8 176.05 129.35 166.75 134.45 156.45 136.85 154.291015625 137.3580078125 152.1 137.7 151.0015625 137.870703125 149.9 138 148.854296875 138.1162109375 147.8 138.2 137.2712890625 139.03828125 127 137.7 116.4884765625 136.324609375 106.25 132.65 96.05 128.95 90.55 120 89.15 117.8 87.7 115.6 87.7 115.5 87.7 115.4 87.65 115.25 87.65 115.05 87.65 114.95 87.65 114.85 87.65 114.75 87.65 114.65 87.6 114.55 87.55 114.45 87.45 114.25 87.4 114.05 87.4 113.95 87.4 113.85 87.35 113.75 87.3 113.65 87.25 113.55 87.15 113.45 87.15 113.35 87.15 113.25 87.15 113.05 87.15 112.85 87.15 112.75 87.15 112.65 87.15 112.55 87.15 112.5 87.2 112.4 87.25 112.35 88.5 112.4 89.7 112.4 90.25 113 91 113.35 92.5 114.05 93.9 115.05 94.05 115.1 94.2 115.1 95.45 115.2 96.35 115.95 96.45 116.05 96.55 116.15 96.75 116.2 96.9 116.25 97.25 116.35 97.55 116.4 97.65 116.5 97.75 116.6 97.9 116.8 98 117 98.1 117.1 98.15 117.2 98.2 117.25 98.3 117.3 98.75 117.4 99.2 117.45 108.25 123.25 118.95 124.95 134.398046875 127.4083984375 149.9 126.25 155.5212890625 125.8416015625 161.15 124.95 164 124.5 166.9 123.95 177.45 121.85 186.95 117.05 187.05 116.95 187.15 116.85 187.2 116.75 187.25 116.65 188.25 116.3 189.15 115.8
M 90.8 94.7
Q 90.8 94.4 90.8 94.15 90.8 94.05 90.8 93.95 91.4 92.25 92.75 91.15 97.55 87.3 103.65 87.05 108.05 86.85 112.15 88.3 113.45 88.8 114.65 89.55 114.75 89.65 114.85 89.75 114.9 89.85 115 89.95 115.05 90 115.15 90.05 115.2 90.1 115.3 90.15 115.5 90.2 115.65 90.25 115.7 90.35 115.75 90.45 115.85 90.55 115.9 90.65 116.05 90.85 116.25 91.05 116.35 91.15 116.45 91.25 116.55 91.35 116.7 91.45 116.75 91.55 116.8 91.65 116.85 91.75 116.9 91.85 116.9 91.95 116.95 92.05 117.05 92.15 117.15 92.25 117.25 92.3 117.35 92.4 117.5 92.5 117.6 92.6 117.65 92.7 117.75 92.8 117.75 92.9 117.8 93 117.85 93.1 117.85 93.2 117.9 93.4 117.95 93.6 117.95 93.7 117.95 93.8 117.95 93.9 117.95 94 117.95 94.1 118 94.15 118.05 94.3 118.1 94.4 118.15 94.5 118.2 94.6 118.2 94.7 118.2 94.8 118.2 94.9 118.2 95 118.2 95.15 118.2 95.35 118.2 95.45 118.2 95.55 118.2 95.65 118.2 95.75 118.2 96.05 118.2 96.35 118.2 96.45 118.2 96.55 118.15 96.65 118.1 96.75 118.05 96.85 118 96.95 117.95 97.05 117.95 97.15 117.95 97.25 117.95 97.35 117.95 97.45 117.95 97.55 117.95 97.65 117.95 97.75 117.9 97.85 117.85 97.9 117.8 98 117.75 98.1 117.5 98.4 117.25 98.75 117 99.15 116.6 99.5 116.2 99.85 115.85 100.2 107.5 102.9 98.75 101.2 94.1 100.25 91.45 96.5 91.35 96.4 91.2 96.3 91.1 96.2 91 96.1 90.95 96 90.85 95.9 90.85 95.8 90.8 95.7 90.8 95.6 90.8 95.5 90.8 95.3 90.8 95.1 90.8 95 90.8 94.9 90.8 94.8 90.8 94.7 Z" stroke="none" fill="#FDDF5E"></path>

<path d="M 90.8 94.15
Q 90.8 94.4 90.8 94.7 90.8 94.8 90.8 94.9 90.8 95 90.8 95.1 90.8 95.3 90.8 95.5 90.8 95.6 90.8 95.7 90.85 95.8 90.85 95.9 90.95 96 91 96.1 91.1 96.2 91.2 96.3 91.35 96.4 91.45 96.5 94.1 100.25 98.75 101.2 107.5 102.9 115.85 100.2 116.2 99.85 116.6 99.5 117 99.15 117.25 98.75 117.5 98.4 117.75 98.1 117.8 98 117.85 97.9 117.9 97.85 117.95 97.75 117.95 97.65 117.95 97.55 117.95 97.45 117.95 97.35 117.95 97.25 117.95 97.15 117.95 97.05 118 96.95 118.05 96.85 118.1 96.75 118.15 96.65 118.2 96.55 118.2 96.45 118.2 96.35 118.2 96.05 118.2 95.75 118.2 95.65 118.2 95.55 118.2 95.45 118.2 95.35 118.2 95.15 118.2 95 118.2 94.9 118.2 94.8 118.2 94.7 118.2 94.6 118.15 94.5 118.1 94.4 118.05 94.3 118 94.15 117.95 94.1 117.95 94 117.95 93.9 117.95 93.8 117.95 93.7 117.95 93.6 117.9 93.4 117.85 93.2 117.85 93.1 117.8 93 117.75 92.9 117.75 92.8 117.65 92.7 117.6 92.6 117.5 92.5 117.35 92.4 117.25 92.3 117.15 92.25 117.05 92.15 116.95 92.05 116.9 91.95 116.9 91.85 116.85 91.75 116.8 91.65 116.75 91.55 116.7 91.45 116.55 91.35 116.45 91.25 116.35 91.15 116.25 91.05 116.05 90.85 115.9 90.65 115.85 90.55 115.75 90.45 115.7 90.35 115.65 90.25 115.5 90.2 115.3 90.15 115.2 90.1 115.15 90.05 115.05 90 115 89.95 114.9 89.85 114.85 89.75 114.75 89.65 114.65 89.55 113.45 88.8 112.15 88.3 108.05 86.85 103.65 87.05 97.55 87.3 92.75 91.15 91.4 92.25 90.8 93.95 90.8 94.05 90.8 94.15
M 92.75 95
Q 93.05 93.2 94.5 91.95 98.45 88.5 103.65 88.05 108.7 87.6 112.9 90.3 112.9 90.4 113 90.5 113.05 90.6 113.15 90.7 113.35 90.8 113.55 90.85 113.65 90.9 113.75 91 113.85 91.2 114 91.4 114.2 91.75 114.5 92 114.65 92.05 114.7 92.15 114.8 92.35 114.95 92.55 115.15 92.9 115.45 93.15 115.6 93.25 115.7 93.35 115.75 93.45 115.8 93.55 115.85 93.65 115.9 93.75 115.95 93.85 115.95 93.95 115.95 94.05 115.95 94.15 115.95 94.3 115.95 94.5 115.95 94.6 115.95 94.7 115.95 94.8 115.95 94.9 116.1 95.1 116.2 95.3 116.25 95.4 116.25 95.5 116.25 95.6 116.25 95.7 116.25 95.8 116.2 95.85 116.05 96.15 116 96.5 115.95 96.8 115.95 97.05 115.95 97.15 115.9 97.25 115.75 97.45 115.55 97.65 112.05 101.75 106.05 100.55 104.75 99.9 103.25 100.3 101.05 100.85 98.05 99.6 94.6 98.1 92.75 95
M 192 113.85
Q 190.65 114.9 189.15 115.8 188.25 116.3 187.25 116.65 187.2 116.75 187.15 116.85 187.05 116.95 186.95 117.05 177.45 121.85 166.9 123.95 164 124.5 161.15 124.95 155.5212890625 125.8416015625 149.9 126.25 134.398046875 127.4083984375 118.95 124.95 108.25 123.25 99.2 117.45 98.75 117.4 98.3 117.3 98.2 117.25 98.15 117.2 98.1 117.1 98 117 97.9 116.8 97.75 116.6 97.65 116.5 97.55 116.4 97.25 116.35 96.9 116.25 96.75 116.2 96.55 116.15 96.45 116.05 96.35 115.95 95.45 115.2 94.2 115.1 94.05 115.1 93.9 115.05 92.5 114.05 91 113.35 90.25 113 89.7 112.4 88.5 112.4 87.25 112.35 87.2 112.4 87.15 112.5 87.15 112.55 87.15 112.65 87.15 112.75 87.15 112.85 87.15 113.05 87.15 113.25 87.15 113.35 87.15 113.45 87.25 113.55 87.3 113.65 87.35 113.75 87.4 113.85 87.4 113.95 87.4 114.05 87.45 114.25 87.55 114.45 87.6 114.55 87.65 114.65 87.65 114.75 87.65 114.85 87.65 114.95 87.65 115.05 87.65 115.25 87.7 115.4 87.7 115.5 87.7 115.6 89.15 117.8 90.55 120 96.05 128.95 106.25 132.65 116.4884765625 136.324609375 127 137.7 137.2712890625 139.03828125 147.8 138.2 148.854296875 138.1162109375 149.9 138 151.0015625 137.870703125 152.1 137.7 154.291015625 137.3580078125 156.45 136.85 166.75 134.45 176.05 129.35 184.45 124.8 191.2 118.05 191.25 117.95 191.3 117.85 191.35 117.75 191.4 117.65 191.45 117.55 191.45 117.45 191.9 117 192.25 116.55 192.6 116.15 193.1 115.85 193.2 115.8 193.3 115.7 193.35 115.6 193.35 115.5 193.4 115.4 193.45 115.3 193.45 115.2 193.5 115.1 193.8 114.8 194.1 114.55 194.4 114.3 194.45 113.9 194.5 113.8 194.5 113.7 194.5 113.6 194.45 113.6 193.5 113.4 192.5 113.3
L 192.5 113.35
Q 192.4 113.4 192.3 113.5 192.2 113.55 192.15 113.65 192.1 113.75 192 113.85
M 188.4 118.1
Q 182.95 123.45 176.35 127.25 168.25 131.95 159.3 134.7 154.6546875 136.132421875 149.9 136.9 146.415625 137.476953125 142.85 137.7 139.4388671875 137.91640625 135.95 137.8 134.9353515625 137.7634765625 133.9 137.7 128.007421875 137.3310546875 122.2 136.05 113.5 134.15 105.35 130.55 94.05 125.5 89.6 114.3 89.65 114.15 89.9 114.25 91.05 114.9 92.05 115.75 93.15 115.95 94.15 116.35 94.25 116.45 94.35 116.55 94.4 116.65 94.45 116.75 95.15 117 95.7 117.2 95.8 117.3 95.9 117.4 96.05 117.7 96.3 118 98.75 118.95 101.3 120.25 106.35 122.8 111.9 124.05 130.701171875 128.2416015625 149.9 127.1 154.289453125 126.88046875 158.7 126.35 174.35 124.5 188.4 118.1
M 173.6 89
Q 173.5 89 173.45 88.95 172.4 87.8 170.85 87.2 166.8 85.65 162.3 86.2 158 86.8 154.3 89.15 153 89.95 151.95 91.05 151.9 91.15 151.85 91.25 151.8 91.35 151.75 91.45 151.7 91.55 151.6 91.65 151.6 92.05 151.6 92.4 151.6 92.9 151.6 93.4 151.6 93.9 151.6 94.4 151.6 94.5 151.6 94.6 151.8 94.9 152.05 95.15 152.1 95.25 152.2 95.35 152.3 95.45 152.4 95.55 153.6 98.45 156.7 99.15 165.6 101.1 174.6 98.05 175.55 97.35 176.25 96.45 176.85 95.7 177.1 94.9 177.15 94.8 177.2 94.7 177.2 94.6 177.2 94.5 177.2 94.25 177.2 93.95 177.2 93.75 177.2 93.55 177.2 93.45 177.2 93.35 177.1 93.25 177.05 93.15 177 93.05 176.9 92.95 176.9 92.75 176.9 92.55 176.9 92.45 176.85 92.4 176.8 92.25 176.65 92.15 176.65 91.95 176.65 91.75 176.6 91.65 176.6 91.55 176.55 91.45 176.5 91.35 176.1 91.05 175.75 90.65 175.1 90 174.45 89.4 174.35 89.3 174.3 89.2 174.1 89.15 173.9 89.1 173.75 89.05 173.6 89
M 171.6 89.65
Q 171.85 89.75 172.05 89.8 172.25 89.85 172.45 89.95 172.55 90.3 172.85 90.5 173.9 91.25 174.6 92.25 174.65 92.3 174.65 92.4 174.7 92.5 174.7 92.6 174.7 92.7 174.7 92.8 175 93.05 175.05 93.4 175.1 93.8 175.15 94.2 175.05 94.4 175 94.6 174.9 94.8 174.9 95 174.65 95.25 174.5 95.5 173.75 96.6 172.7 97.35 165.2 99.7 157.5 98.4 157.4 98.3 157.25 98.25 156.5 97.7 155.85 97.15 154.75 96.2 154.35 94.9 154.2 94.7 154 94.5 153.8 94.2 153.6 93.95 153.6 93.45 153.55 92.95 153.55 92.45 153.7 91.95 154.8 90.75 156.15 89.9 159.488671875 87.720703125 163.4 87 163.737890625 86.947265625 164.05 86.9 164.46328125 86.939453125 164.85 86.95 165.51328125 87.058984375 166.15 87.15 169.3 87.6 171.6 89.65
M 195.5 70.8
Q 195.25 70.7 195 70.6 188 70.35 181.05 70.1 181.05 67.35 181.05 64.6 181.05 61.95 181.05 59.35 181 59.2 180.9 59.1 180.6 58.65 180.65 58.1 180.65 57.95 180.65 57.8 180.65 57.65 180.55 57.6 180.25 57.35 180 57 179.9 56.85 179.7 56.7 170.1 57.75 161 60.5 160.95 60.2 160.8 60 160.75 59.8 160.55 59.65 160.55 59.5 160.55 59.35 160.35 58.9 160.2 58.4 160.15 58.3 160.15 58.15 159.95 57.8 159.8 57.5 159.75 57.35 159.75 57.2 159.75 57.05 159.75 56.9 159.95 55.15 159.6 53.45 159.4 52.55 158.95 51.65 158.95 51.35 158.95 51.05 158.95 50.9 158.95 50.75 158.9 50.6 158.8 50.5 158.45 50.05 158.5 49.5 158.55 49.35 158.55 49.2 158.5 49.05 158.4 48.95 158.25 48.75 158.1 48.6 158.05 48.3 157.95 48 157.85 47.85 157.7 47.7 156.4 47.65 155.05 47.65 154.9 47.7 154.75 47.8 154.2 48.2 153.7 48.7 153.5 48.85 153.3 49 151.591015625 49.7080078125 149.9 50.45 144.6642578125 52.7912109375 139.6 55.55 139.05 55.6 138.55 55.55 138.5 55.55 138.45 55.45 138.15 54.45 137.25 53.9 137.05 53.75 136.9 53.6 136.85 53.45 136.8 53.3 136.75 53.15 136.7 53 136.3 52.7 135.9 52.35 135.75 52.25 135.6 52.1 134.9 50.9 134.35 49.65 134.1 48.95 133.55 48.4 133.55 48.25 133.5 48.1 132.95 46.8 132 45.65 131.55 45.1 131.4 44.4 131.1 44.3 130.8 44.15 130.75 44.15 130.65 44.1 130.55 44 130.5 43.9 130.35 43.75 130.25 43.6 129.15 43.55 128 43.5 125.5 45.15 123.3 47.55 118.5 52.8 114.6 58.45 114.1 58.05 113.5 57.7 107.35 54 101.7 49.4 101.15 49.25 100.6 49.05 100.4 49 100.25 48.9 99.2 48.85 98.1 48.9 98 48.9 97.9 49 97.95 49.55 97.65 49.95 97.55 50.1 97.5 50.25 97.5 50.55 97.5 50.85 97.25 55 97.2 59.15 97.1 64.35 97.1 69.6 91.85 69.25 86.8 67.6 83.539453125 66.5580078125 80.55 66.55 79.0927734375 66.554296875 77.7 66.8 77.15 66.75 76.65 66.75 76.65 66.9 76.65 67.05 76.4 67.1 76.2 67.15 76.4 67.55 76.55 68 76.35 70.75 76.35 73.55 76.35 80.1 76.35 86.65 74.4 87.05 72.45 87.35 67.4 88.1 64.3 90.4 64.75 91.35 65.35 92.15 65.05 93 64.8 93.9 64.35 95.3 64.85 96.6 64.95 99 65.25 101.35 65.6 103.5 65.65 105.7 65.25 105.75 64.85 105.8 62.6 106.45 60.25 107.2 60.15 107.25 60 107.3 59.95 107.35 59.95 107.45 59.25 107.5 58.6 107.6 59.2 107.6 59.85 107.65 59.8 107.65 59.75 107.7 59.65 107.8 59.6 107.9 59.6 108 59.6 108.1 59.6 108.2 59.6 108.3 59.6 108.4 59.6 108.5 59.6 108.55 59.6 108.6 59.55 108.6 59.45 108.65 59.4 108.65 59.4 108.8 59.4 108.95 59.4 109.1 59.4 109.6 59.4 110.05 59.4 110.2 59.4 110.35 59.9 110.7 59.85 111.25 59.8 111.4 59.8 111.6 60.05 111.9 60.3 112.2 60.45 112.35 60.55 112.5 60.6 112.65 60.6 112.8 60.6 113.35 60.9 113.75 60.85 115.3 60.75 116.8 60.65 119 61.3 121 61.5 122.6 61.45 124.2 61.4 125.35 61.95 126.4 62 128.4 62.5 130.35 63.15 132.6 62.95 135 63 135.1 63.1 135.25 63.15 135.35 63.15 135.5 63.15 135.75 63.15 136 63.0205078125 136.905859375 63.35 137.7 63.4314453125 137.8263671875 63.5 137.95 63.55 138.05 63.6 138.2 63.6 138.3 63.6 138.45 63.6 139.3 63.7 140.15 63.7 140.3 63.85 140.4 63.85 140.55 63.85 140.65 63.85 141 63.85 141.4 63.85 141.5 63.85 141.65 64 141.9 64.15 142.15 64.2 142.25 64.25 142.35 64.25 142.5 64.25 142.6 64.25 143.1 64.25 143.6 64.25 143.7 64.25 143.85 64.4 144.1 64.6 144.3 64.7 144.45 64.8 144.6 64.85 144.7 64.9 144.85 65.15 145.5 65.45 146.05 65.5 146.2 65.55 146.3 66.6 147.3 67.35 148.5 68.35 150.05 69.4 151.45 70.25 152.1 71 152.9 71.3 153.2 71.7 153.45 71.9 153.8 72.15 154.15 72.197265625 154.220703125 72.25 154.25 73.719921875 154.2796875 75.2 154.25 74.68046875 153.836328125 74.05 153.5 73.95 153.25 73.8 153.05 73.75 152.9 73.65 152.75 72.75 152.1 71.95 151.3 71.65 151.05 71.35 150.8 70.55 149.7 69.85 148.55 68.85 147 67.5 145.65 67.45 145.5 67.4 145.4 67.1 144.8 66.85 144.15 66.8 144.05 66.8 143.95 66.5 143.7 66.25 143.4 66.2 143.3 66.2 143.2 66.2 143.05 66.2 142.95 66.2 142.35 66.15 141.7 66.15 141.6 66.1 141.45 66.05 141.35 65.95 141.2 65.9 141.1 65.8 141 65.8 140.85 65.8 140.75 65.8 140.25 65.7 139.75 65.65 139.65 65.55 139.5 65.55 139.4 65.55 139.25 65.55 138.5 65.55 137.8 65.55 137.746875 65.55 137.7 65.55 137.614453125 65.55 137.55 65.45 137.3 65.35 137.05 65.05 136.1 65.15 135.1 65.15 134.95 65.15 134.85 65.1 134.7 65.05 134.6 65 134.45 64.9 134.35 64.95 132.35 64.5 130.5 63.95 128.15 63.9 125.75 63.3 124.25 63.3 122.55 63.3 122.45 63.3 122.3 63.7 123.25 64.3 124.15 64.3 124.5 64.35 124.8 64.35 124.95 64.4 125.1 65.85 126.15 66.75 127.7 67.3 128.7 67.6 129.7 70.430859375 134.223828125 74.35 137.7 77.17109375 140.1947265625 80.55 142.15 80.9462890625 142.3783203125 81.35 142.6 94.296875 149.6740234375 108.2 153.7 110.3365234375 153.671484375 112.45 153.6 101.499609375 150.854296875 90.85 146.1 85.23515625 143.6021484375 80.55 140.15 78.97109375 138.9794921875 77.5 137.7 73.104296875 133.8845703125 69.65 129.1 69.65 128.95 69.6 128.8 69.6 128.65 69.55 128.45 68.45 127.45 67.8 126.05 67.35 125.05 66.45 124.5 66.4 124.15 66.4 123.85 66.35 123.7 66.35 123.55 65.25 121.65 64.65 119.55 64.05 117.6 63.1 115.9 63.1 115.55 63.1 115.25 63.1 114.5 63.1 113.75 63.1 113.55 63.1 113.4 63.05 113.25 63 113.1 62.95 112.9 62.85 112.75 62.85 112.6 62.85 112.45 62.75 112.35 62.7 112.2 62.65 112.1 62.6 112 62.6 111.75 62.6 111.5 62.6 110.65 62.6 109.75 62.6 109.65 62.6 109.5
L 62.6 109.4
Q 62.2 109.35 61.85 109.35 61.85 109.25 61.85 109.15 61.85 108.95 61.8 108.75 61.8 108.55 61.85 108.35 61.85 108.25 61.9 108.15 62.5 107.85 63.1 107.65 67.55 107.6 72.4 107.25 76.55 106.9 79.05 105.25 78 103 76.45 100.95 72.5 95.95 67.75 91.85 67.9 91.35 67.85 90.85
L 67.85 90.75
Q 67.35 90.65 66.85 90.65 66.8 90.55 66.7 90.45 66.55 90.35 66.45 90.2 73.9017578125 88.9400390625 80.55 86.8 83.1357421875 86.0021484375 85.6 85.05 85.6 84.9 85.6 84.75 85.6 84.3 85.6 83.85 85.55 83.65 85.5 83.5 83.65 80.65 82.4 77.45 81.446484375 74.897265625 80.55 72.3 79.9888671875 70.7166015625 79.45 69.1 79.2 68.8 78.95 68.45 78.85 68.3 78.75 68.15 78.7 67.85 78.6 67.55
L 78.6 67.5
Q 78.6 67.4 78.6 67.3 79.5765625 67.55703125 80.55 67.8 89.99375 70.0734375 99.15 70.3 99.15 70 99.15 69.7 99.15 65.55 99.1 61.4 99.05 55.7 99.85 50.35 100.6 50.85 101.35 51.35 103.5 52.85 105.7 54.25 106.2 54.9 106.85 55.4 110.05 57.55 113.25 59.55 115.05 59.4 116.85 59.25 118.1 57 119.65 54.95 123.65 49.65 128.5 45.1 128.95 45.05 129.35 45.1 129.4 45.1 129.45 45.2 129.5 45.4 129.55 45.5 130.1 46.7 130.95 47.7 131.2 48 131.4 48.3 131.45 48.45 131.45 48.6 131.5 48.75 131.5 48.9 132.45 50 132.9 51.35 133.15 52 133.45 52.6 134.15 53.15 134.7 53.9 134.75 54 134.75 54.15 135.75 54.9 136.35 56 136.4 56.15 136.4 56.3 136.75 56.4 137.1 56.5 137.2 56.55 137.25 56.6 137.3 56.7 137.35 56.8 137.5 56.95 137.65 57.1 138.85 57.15 140.1 57.15
L 140.1 57.1
Q 144.9904296875 54.2703125 149.9 51.95 152.9712890625 50.5314453125 156.05 49.3 156.55 49.65 156.5 50.25 156.5 50.4 156.5 50.55 156.6 50.7 156.7 50.85 156.8 51 156.9 51.15 156.9 51.6 156.9 52.1 156.9 52.25 156.9 52.4 157.05 52.7 157.1 53 157.25 53.95 157.55 54.85 157.6 55 157.7 55.15 157.7 55.6 157.7 56.1 157.7 56.85 157.7 57.6 157.7 57.75 157.7 57.9 157.9 58.4 158.05 58.85 158.1 59 158.1 59.15 158.2 59.3 158.3 59.45 158.6 60.4 159.05 61.3 159.15 61.45 159.25 61.6 168.85 59.8 178.2 57.9 178.8 58.2 178.65 58.85 178.6 59 178.6 59.15 179.3 61.95 179.15 65 179 67.9 179 70.8 186.05 71.1 193.15 71.35 194.15 71.9 195.3 72.1
L 195.3 72.15
Q 195.35 72.2 195.45 72.3 195.15 72.25 194.85 72.25 195.05 73.85 195.7 75.4 195.55 75.5 195.4 75.65 195.35 76.1 195.25 76.55 195.25 76.7 195.2 76.85 193.95 78.6 192.75 80.3 190.9 82.9 189.25 85.15 196.95 88.35 204.6 93.35 203.85 93.7 203.3 94 201.2 95.15 198.75 95.6 197.8 96.3 196.65 96.65 195.3 97.1 194.35 98.15 193.95 98.25 193.55 98.35 192.85 98.9 192.25 99.55 192.15 99.65 192.1 99.8 191.6 99.9 191.1 100.05 191.05 100.05 191 100.1 190.9 100.2 190.8 100.3 190.15 100.85 189.7 101.6 189.65 101.7 189.65 101.85 199.9 103.2 210.15 104.8 210.15 104.95 210.15 105.15 210.15 106.8 210.15 108.5 210.15 109.45 210.15 110.35 208.95 113.35 208.25 116.45 207.25 120.65 205.45 124.5 205.3 126.3 204.35 127.85 203.7 129 203.5 130.3 202.55 131.5 201.85 132.8 201.6 133.25 201.35 133.7 200 134.75 199 136.15 198.4587890625 136.96171875 197.85 137.7 197.3505859375 138.3263671875 196.8 138.9 195.85 139.3 195.3 140.15 195.2 140.3 195.1 140.45 185.333203125 148.3703125 173.65 152.8 175.031640625 152.762890625 176.4 152.7 187.5654296875 148.3576171875 197.25 140.95 197.65 140.15 198.45 139.75 198.75 139.6 199.1 139.45 199.7134765625 138.5552734375 200.35 137.7 201.0158203125 136.88203125 201.7 136.1 203.95 133.7 205.55 130.85 205.6 130.7 205.6 130.5 205.9 129.2 206.55 128 206.9 127.4 207.25 126.85 207.25 126.7 207.25 126.55 207.2 126.05 207.35 125.6 207.35 125.45 207.35 125.3 209.05 122.45 209.85 119.2 210.3 117.3 210.85 115.4 211.25 118 211.1 120.65 210.65 126.05 210.65 131.45 210.55 131.6 210.5 131.75 210.4 131.85 210.4 131.95 210.4 132.1 210.4 132.2 210.4 132.85 210.35 133.45 210.35 133.55 210.3 133.7 210.2 133.8 210.15 133.95 210.05 134.05 209.95 134.2 209.95 135.55 209.7 136.9 209.631640625 137.3103515625 209.45 137.7 209.29921875 138.16484375 209 138.6 209 138.85 209 139.1 209 139.2 209 139.35 208.75 139.6 208.5 139.85 208.4 139.95 208.35 140.1 208.35 140.45 208.35 140.8 208.35 140.95 208.35 141.05 207.85 141.85 207.3 142.55 207.2 142.65 207.1 142.8 207.05 142.9 207.05 143.05 207 143.15 207 143.25 206.2 144.25 205.65 145.45 205.2 146.45 204.5 147.2 204.55 147.6 204.4 147.95 204.35 148.05 204.3 148.2 203.45 148.85 202.95 149.85 202.5 150.75 201.7 151.4 201.65 151.5 201.6 151.6 201.5453125 151.709375 201.5 151.8 202.73515625 151.7712890625 203.95 151.7 204.94921875 151.0720703125 205.4 149.9 205.5 149.65 205.65 149.4 205.9 149.15 206.2 148.9 206.3 148.8 206.35 148.7 206.4 148.45 206.45 148.2 206.45 148.05 206.45 147.95 207.3 146.9 207.9 145.75 208.35 144.85 208.9 144 208.95 143.9 208.95 143.75 209 143.65 209 143.5 210 142.55 210.25 141.3 210.3 141.05 210.3 140.8 210.6 140.45 210.85 140.05 210.9 139.95 210.95 139.85 210.95 139.6 210.95 139.35 210.95 139.2 210.95 139.1 211.4 138.65 211.6 138.1 211.65 138 211.7 137.85 211.7 137.785546875 211.7 137.7 211.7 137.653125 211.7 137.6 211.7 137.25 211.7 136.9 211.7 136.75 211.7 136.65 211.8 136.5 211.85 136.4 211.9 136.25 211.95 136.15 211.95 136 211.95 135.9 211.95 135.55 211.95 135.15 211.95 135.05 211.95 134.9 212.1 134.65 212.25 134.4 212.3 134.3 212.35 134.2 212.35 134.05 212.35 133.95 212.35 133.3 212.35 132.7 212.35 132.6 212.35 132.45 212.45 132.35 212.5 132.2 212.55 132.1 212.6 131.95 212.6 130.35 212.6 128.75 212.6 127.4 212.6 126.05 213.3 122.85 213.1 119.45 212.75 113.15 212.35 106.9 212.35 106.8 212.35 106.75 212.25 106.75 212.2 106.75 212.2 105.45 212.2 104.1 209.35 103.7 206.55 103.3 206.55 101.4 206.55 99.5 206.55 96.85 206.55 94.25 206.9 93.9 207.25 93.55 204.7 90.45 200.75 88.75 199.85 88.35 198.95 88 198.95 86.55 199 85.1 199.05 83.95 198.65 82.95 198.65 81.25 198.75 79.6 198.8 78.45 198.4 77.4 198.5 76.35 198.2 75.4 198.4 75.05 198.55 74.7 198.6 74.55 198.65 74.4 198.65 74.1 198.65 73.8 198.65 73.2 198.65 72.55 198.6 72.4 198.55 72.25 198.2 72.15 197.85 72.05 197.85 72 197.8 72 197.7 71.85 197.55 71.7 197.45 71.6 197.35 71.45 196.4 71.15 195.5 70.8
M 196.65 78.3
Q 196.7 78.4 196.7 78.55 196.7 80.1 196.7 81.7 196.7 82.55 196.7 83.45 197.15 85.05 197 86.8 197 86.95 197 87.15 194.05 85.9 191.7 84.85 191.75 84.7 191.85 84.6 192.1 84.4 192.4 84.25 193.65 82.8 194.65 81.2 195.6 79.7 196.65 78.3
M 196.2 98.95
Q 196.3 98.95 196.4 98.9 196.85 98.4 197.3 98 197.45 97.9 197.55 97.75 198.65 97.25 199.8 96.9 199.9 96.9 200 96.85 200.15 96.75 200.3 96.6 200.45 96.45 200.6 96.3 201.4 96.15 202.15 96.05 203.45 95.85 204.55 95.4 204.55 96.65 204.55 97.85 204.55 100.45 204.55 103 198.45 102.1 192.65 101.15 193.4 100.9 194.1 100.55 194.15 100.5 194.15 100.4 194.35 99.75 195.05 99.45 195.25 99.35 195.4 99.2 195.8 99.1 196.2 98.95
M 78.35 72.45
Q 78.7 73.3 79 74.2 79.7375 76.19140625 80.55 78.1 81.9404296875 81.4623046875 83.55 84.65 82.05859375 85.1470703125 80.55 85.6 79.479296875 85.909375 78.4 86.2 78.25 83.3 78.25 80.35 78.2 76.4 78.35 72.45
M 66.8 95.95
Q 66.6 95.6 66.6 95.15 66.6 95.1 66.55 95 66.7 94.4 66.95 93.85 69.9 96.55 72.5 99.6 73.3 101.1 74.55 102.25 76.3 103.8 76.4 105.35 73.8 105.7 71.25 106 71.1 105.95 71 105.95 69.35 105.6 67.7 105.6 67.55 103.95 67.4 102.25 67.05 99.1 66.8 95.95 Z" stroke="none" fill="#000000"></path>

<path d="M 94.5 91.95
Q 93.05 93.2 92.75 95 94.6 98.1 98.05 99.6 101.05 100.85 103.25 100.3 104.75 99.9 106.05 100.55 112.05 101.75 115.55 97.65 115.75 97.45 115.9 97.25 115.95 97.15 115.95 97.05 115.95 96.8 116 96.5 116.05 96.15 116.2 95.85 116.25 95.8 116.25 95.7 116.25 95.6 116.25 95.5 116.25 95.4 116.2 95.3 116.1 95.1 115.95 94.9 115.95 94.8 115.95 94.7 115.95 94.6 115.95 94.5 115.95 94.3 115.95 94.15 115.95 94.05 115.95 93.95 115.95 93.85 115.9 93.75 115.85 93.65 115.8 93.55 115.75 93.45 115.7 93.35 115.6 93.25 115.45 93.15 115.15 92.9 114.95 92.55 114.8 92.35 114.7 92.15 114.65 92.05 114.5 92 114.2 91.75 114 91.4 113.85 91.2 113.75 91 113.65 90.9 113.55 90.85 113.35 90.8 113.15 90.7 113.05 90.6 113 90.5 112.9 90.4 112.9 90.3 108.7 87.6 103.65 88.05 98.45 88.5 94.5 91.95
M 172.05 89.8
Q 171.85 89.75 171.6 89.65 169.3 87.6 166.15 87.15 165.51328125 87.058984375 164.85 86.95 164.46328125 86.939453125 164.05 86.9 163.737890625 86.947265625 163.4 87 159.488671875 87.720703125 156.15 89.9 154.8 90.75 153.7 91.95 153.55 92.45 153.55 92.95 153.6 93.45 153.6 93.95 153.8 94.2 154 94.5 154.2 94.7 154.35 94.9 154.75 96.2 155.85 97.15 156.5 97.7 157.25 98.25 157.4 98.3 157.5 98.4 165.2 99.7 172.7 97.35 173.75 96.6 174.5 95.5 174.65 95.25 174.9 95 174.9 94.8 175 94.6 175.05 94.4 175.15 94.2 175.1 93.8 175.05 93.4 175 93.05 174.7 92.8 174.7 92.7 174.7 92.6 174.7 92.5 174.65 92.4 174.65 92.3 174.6 92.25 173.9 91.25 172.85 90.5 172.55 90.3 172.45 89.95 172.25 89.85 172.05 89.8 Z" stroke="none" fill="#EEC24E"></path>
</g>
</g>
</g>
</g>
</svg>
