
<svg viewBox="0 0 112 184" height="184px" width="112px" y="0px" x="0px" preserveAspectRatio="none" xmlns:xlink="http://www.w3.org/1999/xlink" version="1.1" xmlns="http://www.w3.org/2000/svg">
<defs></defs>

<g id="fun_scrollers">
<g transform="matrix( 0.3621063232421875, 0, 0, 0.3621063232421875, -594.2,0.1)" id="svg"></g>

<g transform="matrix( 0.3621063232421875, 0, 0, 0.3621063232421875, -594.2,0.1)" id="Layer_2"></g>

<g transform="matrix( 0.3621063232421875, 0, 0, 0.3621063232421875, -594.2,0.1)" id="Layer_3"></g>

<g transform="matrix( 0.3621063232421875, 0, 0, 0.3621063232421875, -594.2,0.1)" id="Layer_2">
<g>
<g>
<g>
<path d="M 1709.25 117.35
L 1708.9 117.35 1708.25 117.35
Q 1709.1 122 1709.15 124.15 1709.3 127.7 1708.3 130.85 1703.95 132.05 1702 132.3
L 1702 132.75
Q 1703.7416015625 133.046484375 1705.5 133.7 1706.1287109375 133.928125 1706.75 134.2
L 1709.3 135.65
Q 1718 140.65 1723.15 147.4 1728.2 154.8 1730.55 163.75 1732.65 171.65 1732.7 181.6
L 1732.75 184.15
Q 1732.75 196.45 1731.8 218.3
L 1730.4 248.3
Q 1730.2 252.95 1729.6 256.8 1729.15 259.7 1728.85 262.55
L 1727.35 290.7
Q 1726 316.65 1725.5 347.85 1725.2 370.65 1725.2 405.05
L 1725.2 434.85
Q 1725.25 443.4 1724.8 447.65 1723.1 451.55 1722.25 452.7 1721.5 453.9 1718.45 456.95
L 1713.65 461.8 1711.9 465.3 1711.75 465.6
Q 1711.409375 465.66328125 1711.05 465.7 1706.2431640625 466.517578125 1697.55 466.75
L 1632.05 467.05
Q 1631.1095703125 467.0697265625 1630.2 467.1
L 1630.2 473.75 1662.15 474.25
Q 1678.9 474.55 1685.55 474.4 1698.7 474.1 1708.85 472.35 1715.05 470.75 1719.5 467.55 1723.35 464.85 1727.9 459.4 1731.75 452.8 1732.4 447.7 1733 442.55 1732.7 418.45
L 1732.45 399.75
Q 1732.15 365.1 1732.55 340.5 1733.05 308.5 1734.8 281.35 1736.15 261 1737.45 233.45
L 1738.7 208.1
Q 1739.8 188.15 1739.1 178.1 1737.95 161.6 1732.5 149 1729.25 142.8 1726.2 139 1722.25 134 1717.3 131.35 1712.7 129.05 1710.25 126.95 1710.0458984375 126.4103515625 1709.9 125.95 1709.50625 124.925 1709.4 124.5 1709.3 123.85 1709.2 121.85
L 1709.2 119.7 1709.25 117.35 Z" stroke="none" fill="#706C84"></path>

<path d="M 1705.05 78.7
L 1705.2 70.05
Q 1705.35 63.8 1704.25 59.7 1703 56.65 1701.15 54.45 1699.45 52.45 1696.55 50.35
L 1693.45 48.45
Q 1686.75 44.3 1680.15 42.3 1673.7 40.4 1665.75 40.2
L 1662 40.2
Q 1645.600390625 39.906640625 1630.2 40.8
L 1630.2 45.7
Q 1656.5087890625 43.921875 1683.05 50.55 1683.05 50.9 1689.6 55.6 1696.35 61.3 1697.25 66.2 1697.4 66.95 1697.5 67.8
L 1630.2 69 1630.2 73.4
Q 1630.912109375 73.4 1631.85 73.4
L 1689.65 73.25
Q 1694 73.6 1697.6 75.4 1698.35 77 1698.6 78.65 1698.7 79.5 1698.8 82.1
L 1698.95 88.3
Q 1699.4 102.5 1702 115.95 1702.9 121.55 1702.6 125.4
L 1700.75 127.35
Q 1697.35 127.6 1692.65 127.65
L 1630.2 127.7 1630.2 132.45
Q 1634.684765625 132.515234375 1641.55 132.55 1650.7 132.5 1659.85 132.6
L 1696.75 132.75
Q 1699.4 132.7 1700.25 132.75 1701.1 132.8 1703.55 133.15 1704.2 133.4 1704.85 133.7
L 1705.5 133.7
Q 1703.7416015625 133.046484375 1702 132.75
L 1702 132.3
Q 1703.95 132.05 1708.3 130.85 1709.3 127.7 1709.15 124.15 1709.1 122 1708.25 117.35
L 1708.9 117.35
Q 1708.650390625 115.676953125 1708.3 114.1 1704.95 98.85 1705.05 78.7
M 1709.2 119.7
L 1709.2 121.85
Q 1709.3 123.85 1709.4 124.5 1709.50625 124.925 1709.9 125.95
L 1709.55 123.85
Q 1709.4486328125 121.7205078125 1709.2 119.7 Z" stroke="none" fill="#7E1A34"></path>

<path d="M 1716.35 418.45
Q 1713.05 416.95 1711.3 416.75 1709.55 416.65 1702.3 417
L 1686.3 417.5
Q 1676.75 417.8 1661.9 417.25 1653.9 416.95 1646.1 416.85 1639.5 416.9 1632.75 416.65 1631.426171875 416.598828125 1630.2 416.55
L 1630.2 436.85
Q 1639.219140625 436.806640625 1648.2 436.5 1660 436.1 1669.45 436 1690.55 435.65 1701.05 435.35
L 1704.55 435.25
Q 1709.35 435.2 1715.45 434.8
L 1716.4 433.85
Q 1717.3 429.25 1717.4 426.15 1717.45 422.15 1716.35 418.45
M 1712.6 270.5
L 1711.85 267.45
Q 1711 260.85 1708.9 256.9
L 1706.7 256.4 1697.6 256.6
Q 1688.45 256.7 1681.55 257.25 1670.05 258.2 1654.3 258.3
L 1645.7 258.35
Q 1644.6560546875 258.35 1630.2 258.2
L 1630.2 279.3
Q 1636.9876953125 279.1375 1642.6 278.8 1647.75 278.55 1658.1 278.2 1672.75 277.8 1675.7 277.65
L 1683.65 277.3
Q 1687.6 277.1 1691.65 277.1
L 1692.65 279.05
Q 1703.7 280.5 1711.9 278.95
L 1713.15 276.6
Q 1713.1 274.35 1713.05 273.55 1712.95 272.8 1712.6 270.5 Z" stroke="none" fill="#9DAEEA"></path>

<path d="M 1650.75 181.85
L 1630.2 181.8 1630.2 198.35
Q 1635.6291015625 199.1314453125 1641.35 201.05 1649.95 204.15 1654.5 203.9 1658.95 203.75 1677.35 199.6
L 1690.95 196.5
Q 1700.55 194.35 1709 193.95 1711.4 193.95 1712.05 193.9 1712.75 193.8 1714.45 193.4
L 1714.45 188.6 1716.35 188.6 1716.55 186.6 1716.5 182.85 1716.35 182.85 1710.55 182.85 1710.3 182.85
Q 1707.7625 183.1 1706.95 183.1 1706.2 183.1 1704.15 182.95
L 1695.45 182.35
Q 1687.8 181.9 1681.05 181.9
L 1678.3 181.85
Q 1664.55 181.75 1650.75 181.85 Z" stroke="none" fill="#992A3F"></path>

<path d="M 1630.2 180.1
L 1630.2 181.8 1650.75 181.85
Q 1664.55 181.75 1678.3 181.85
L 1681.05 181.9
Q 1687.8 181.9 1695.45 182.35
L 1704.15 182.95
Q 1706.2 183.1 1706.95 183.1 1707.7625 183.1 1710.3 182.85
L 1710.55 182.85 1710.55 179.1
Q 1710.05 179 1709.55 179 1708.45 178.95 1707.4 178.95 1706.25 178.95 1705.1 178.95 1703.85 178.95 1702.65 179 1701.35 179 1700.1 179.05 1694.75 179.3 1689.45 179.45 1688.65 179.5 1687.85 179.6 1686.85 179.6 1685.9 179.65 1684.85 179.75 1683.8 179.8 1682.65 179.8 1681.5 179.8 1680.25 179.85 1679 179.9 1677.6 179.9 1676.25 179.95 1674.8 180 1673.35 180.1 1671.75 180.1 1670.15 180.1 1669.05 180.1 1667.95 180.15 1667.3 180.15 1666.65 180.15 1665.9 180.1 1665.15 180.1 1663.5 180.05 1661.8 180.1 1658.8 179.8 1656 179.8 1653.4 179.8 1650.8 179.8 1648.15 179.75 1645.5 179.8 1640.05 179.9 1634.65 180.1
L 1630.2 180.1
M 1700.25 132.75
Q 1699.4 132.7 1696.75 132.75
L 1659.85 132.6
Q 1650.7 132.5 1641.55 132.55 1634.684765625 132.515234375 1630.2 132.45
L 1630.2 152.4 1699.9 152.75
Q 1700.95 152.75 1702.05 152.8 1703.05 152.85 1704.1 152.95 1705.05 153.05 1706.05 153.2 1706.9 153.25 1707.85 153.4 1708.7 153.55 1709.6 153.7 1710.45 153.85 1711.3 154 1712.05 154.2 1712.9 154.45 1713.55 154.7 1714.2 155.1 1715.25 155.9 1716.2 156.85
L 1716.5 164.05 1716.35 182.85 1716.5 182.85 1716.55 186.6 1716.35 188.6 1714.45 188.6 1714.45 193.4
Q 1712.75 193.8 1712.05 193.9 1711.4 193.95 1709 193.95 1700.55 194.35 1690.95 196.5
L 1677.35 199.6
Q 1658.95 203.75 1654.5 203.9 1649.95 204.15 1641.35 201.05 1635.6291015625 199.1314453125 1630.2 198.35
L 1630.2 258.2
Q 1644.6560546875 258.35 1645.7 258.35
L 1654.3 258.3
Q 1670.05 258.2 1681.55 257.25 1688.45 256.7 1697.6 256.6
L 1706.7 256.4 1708.9 256.9
Q 1711 260.85 1711.85 267.45
L 1712.6 270.5
Q 1712.95 272.8 1713.05 273.55 1713.1 274.35 1713.15 276.6
L 1711.9 278.95
Q 1703.7 280.5 1692.65 279.05
L 1691.65 277.1
Q 1687.6 277.1 1683.65 277.3
L 1675.7 277.65
Q 1672.75 277.8 1658.1 278.2 1647.75 278.55 1642.6 278.8 1636.9876953125 279.1375 1630.2 279.3
L 1630.2 416.55
Q 1631.426171875 416.598828125 1632.75 416.65 1639.5 416.9 1646.1 416.85 1653.9 416.95 1661.9 417.25 1676.75 417.8 1686.3 417.5
L 1702.3 417
Q 1709.55 416.65 1711.3 416.75 1713.05 416.95 1716.35 418.45 1717.45 422.15 1717.4 426.15 1717.3 429.25 1716.4 433.85
L 1715.45 434.8
Q 1709.35 435.2 1704.55 435.25
L 1701.05 435.35
Q 1690.55 435.65 1669.45 436 1660 436.1 1648.2 436.5 1639.219140625 436.806640625 1630.2 436.85
L 1630.2 467.1
Q 1631.1095703125 467.0697265625 1632.05 467.05
L 1697.55 466.75
Q 1706.2431640625 466.517578125 1711.05 465.7 1711.4859375 465.533203125 1711.9 465.3
L 1713.65 461.8 1718.45 456.95
Q 1721.5 453.9 1722.25 452.7 1723.1 451.55 1724.8 447.65 1725.25 443.4 1725.2 434.85
L 1725.2 405.05
Q 1725.2 370.65 1725.5 347.85 1726 316.65 1727.35 290.7
L 1728.85 262.55
Q 1729.15 259.7 1729.6 256.8 1730.2 252.95 1730.4 248.3
L 1731.8 218.3
Q 1732.75 196.45 1732.75 184.15
L 1732.7 181.6
Q 1732.65 171.65 1730.55 163.75 1728.2 154.8 1723.15 147.4 1718 140.65 1709.3 135.65
L 1706.75 134.2
Q 1706.1287109375 133.928125 1705.5 133.7
L 1704.85 133.7
Q 1704.2 133.4 1703.55 133.15 1701.1 132.8 1700.25 132.75
M 1708.4 204.95
Q 1709.65 206.75 1710.65 209.7 1711.4 214.25 1711.25 220.6
L 1711.25 223.45
Q 1711.15 227.55 1710.7 229.4 1710.05 231.75 1707.85 234.75
L 1706.9 238.6
Q 1702.4 240.75 1695.65 241.55 1692.45 241.85 1683.9 242.05
L 1681.25 242.15
Q 1677.85 242.15 1675.9 241.7 1673.45 241.15 1670.85 239.5 1667.8 236.2 1667.1 235.3 1666.5 234.3 1665.55 232 1665.2 229 1665.1 227.9 1665.05 226.85 1665.05 223.45
L 1665 218.9
Q 1665.3 215.55 1666.2 213.55 1667.05 211.6 1669.3 208.9
L 1671.05 206.7
Q 1675.45 202.65 1681.1 201.25 1684.85 200.35 1692.6 200.1
L 1695.95 200
Q 1701.1 199.95 1704.85 201.1 1707 202.85 1708.4 204.95 Z" stroke="none" fill="#F5F7F9"></path>

<path d="M 1630.2 152.4
L 1630.2 180.1 1634.65 180.1
Q 1640.05 179.9 1645.5 179.8 1648.15 179.75 1650.8 179.8 1653.4 179.8 1656 179.8 1658.8 179.8 1661.8 180.1 1663.5 180.05 1665.15 180.1 1665.9 180.1 1666.65 180.15 1667.3 180.15 1667.95 180.15 1669.05 180.1 1670.15 180.1 1671.75 180.1 1673.35 180.1 1674.8 180 1676.25 179.95 1677.6 179.9 1679 179.9 1680.25 179.85 1681.5 179.8 1682.65 179.8 1683.8 179.8 1684.85 179.75 1685.9 179.65 1686.85 179.6 1687.85 179.6 1688.65 179.5 1689.45 179.45 1694.75 179.3 1700.1 179.05 1701.35 179 1702.65 179 1703.85 178.95 1705.1 178.95 1706.25 178.95 1707.4 178.95 1708.45 178.95 1709.55 179 1710.05 179 1710.55 179.1
L 1710.55 182.85 1716.35 182.85 1716.5 164.05 1716.2 156.85
Q 1715.25 155.9 1714.2 155.1 1713.55 154.7 1712.9 154.45 1712.05 154.2 1711.3 154 1710.45 153.85 1709.6 153.7 1708.7 153.55 1707.85 153.4 1706.9 153.25 1706.05 153.2 1705.05 153.05 1704.1 152.95 1703.05 152.85 1702.05 152.8 1700.95 152.75 1699.9 152.75
L 1630.2 152.4 Z" stroke="none" fill="#110F1A"></path>

<path d="M 1710.65 209.7
Q 1709.65 206.75 1708.4 204.95 1707 202.85 1704.85 201.1 1701.1 199.95 1695.95 200
L 1692.6 200.1
Q 1684.85 200.35 1681.1 201.25 1675.45 202.65 1671.05 206.7
L 1669.3 208.9
Q 1667.05 211.6 1666.2 213.55 1665.3 215.55 1665 218.9
L 1665.05 223.45
Q 1665.05 226.85 1665.1 227.9 1665.2 229 1665.55 232 1666.5 234.3 1667.1 235.3 1667.8 236.2 1670.85 239.5 1673.45 241.15 1675.9 241.7 1677.85 242.15 1681.25 242.15
L 1683.9 242.05
Q 1692.45 241.85 1695.65 241.55 1702.4 240.75 1706.9 238.6
L 1707.85 234.75
Q 1710.05 231.75 1710.7 229.4 1711.15 227.55 1711.25 223.45
L 1711.25 220.6
Q 1711.4 214.25 1710.65 209.7
M 1701.5 208.5
Q 1701.95 209.05 1703.5 211.65 1705.35 215.05 1705.9 218.2 1706.25 220.8 1705.9 225.15
L 1704.95 226.1
Q 1703.9 228.65 1703.45 229.5 1702.95 230.3 1701.15 232.8 1696.15 235.35 1690.3 236 1685.3 236.6 1679 235.8 1675.85 234.7 1675 234.1 1674.15 233.55 1672.25 231.05 1670.3 226.55 1670.3 221.45 1672.5 216.65 1673.55 215.25 1674.65 213.85 1678.75 210.35 1681.35 208.5 1683.65 207.7 1685.95 206.9 1689.2 206.7
L 1693.1 206.75
Q 1696.55 206.75 1700.05 206.85 1701.1 207.85 1701.5 208.5 Z" stroke="none" fill="#5D5A76"></path>

<path d="M 1703.5 211.65
Q 1701.95 209.05 1701.5 208.5 1701.1 207.85 1700.05 206.85 1696.55 206.75 1693.1 206.75
L 1689.2 206.7
Q 1685.95 206.9 1683.65 207.7 1681.35 208.5 1678.75 210.35 1674.65 213.85 1673.55 215.25 1672.5 216.65 1670.3 221.45 1670.3 226.55 1672.25 231.05 1674.15 233.55 1675 234.1 1675.85 234.7 1679 235.8 1685.3 236.6 1690.3 236 1696.15 235.35 1701.15 232.8 1702.95 230.3 1703.45 229.5 1703.9 228.65 1704.95 226.1
L 1705.9 225.15
Q 1706.25 220.8 1705.9 218.2 1705.35 215.05 1703.5 211.65 Z" stroke="none" fill="#F1F3F7"></path>

<path d="M 1689.6 55.6
Q 1683.05 50.9 1683.05 50.55 1656.5087890625 43.921875 1630.2 45.7
L 1630.2 69 1697.5 67.8
Q 1697.4 66.95 1697.25 66.2 1696.35 61.3 1689.6 55.6 Z" stroke="none" fill="#DF202E"></path>

<path d="M 1631.85 73.4
Q 1630.912109375 73.4 1630.2 73.4
L 1630.2 127.7 1692.65 127.65
Q 1697.35 127.6 1700.75 127.35
L 1702.6 125.4
Q 1702.9 121.55 1702 115.95 1699.4 102.5 1698.95 88.3
L 1698.8 82.1
Q 1698.7 79.5 1698.6 78.65 1698.35 77 1697.6 75.4 1694 73.6 1689.65 73.25
L 1631.85 73.4 Z" stroke="none" fill="#E21F2D"></path>
</g>
</g>
</g>
</g>

<g transform="matrix( 0.3621063232421875, 0, 0, 0.3621063232421875, -594.2,0.1)" id="Layer_3">
<g>
<g>
<g>
<path d="M 1631 478.2
Q 1630.52265625 476.5560546875 1630.2 475.35
L 1630.2 508.35
Q 1633.5001953125 508.221875 1636.8 508.05 1637.1 505.45 1637.1 502.75 1637 498.25 1636.15 494.85
L 1631 478.2
M 1648.3 350.55
Q 1644.75 351.15 1640.45 352.7 1638.05 353.55 1632.9 355.7 1631.4884765625 356.2962890625 1630.2 356.85
L 1630.2 368.7
Q 1631.2326171875 368.1416015625 1632.3 367.65 1634.8 366.55 1636.55 366.25 1638.1 365.95 1640.6 365.95
L 1652.25 365.75
Q 1663.95 365.55 1670.15 366.25 1680 367.4 1687 371.15 1688.15 371.8 1690.35 373.1 1692.35 374.25 1693.8 374.8 1697.6 376.3 1701.15 375.55 1702.25 372.5 1701.55 368.95 1700.9 365.7 1698.9 362.8 1696 358.6 1688.9 353.95 1684.45 351.15 1681.6 350.5 1679.8 350.05 1675.4 349.95
L 1658.25 349.95
Q 1652.25 349.95 1648.3 350.55
M 1649 358.7
Q 1652.95 357.4 1658.15 357 1661.3 356.75 1667.55 356.75 1671.8 356.75 1674.15 357.15 1677.75 357.8 1680.05 359.65 1673.25 358.85 1664.55 358.7 1659.8 358.6 1649 358.7
M 1630.55 289.15
Q 1630.337109375 289.15 1630.2 289.2
L 1630.2 315.3 1631.2 315.35 1631.2 314.15
Q 1632.8 314.35 1634.25 313.35 1635.65 312.3 1636 310.75 1636.1 309.55 1636.25 309 1636.85 307.8 1637.05 307.1 1637.25 306.5 1637.25 305.15
L 1637.25 289.2 1630.55 289.15
M 1642.7 268.05
Q 1642.1 266.95 1640.65 265.45
L 1631.15 254.8
Q 1630.6728515625 254.2544921875 1630.2 253.7
L 1630.2 268.45
Q 1632.6333984375 271.3001953125 1634.2 273.5 1635.65 275.55 1636.75 276.1 1637.95 276.7 1640.2 276.45 1642.85 276.15 1643.8 276.4 1644.2 272.4 1643.65 270.3 1643.4 269.25 1642.7 268.05
M 1724.25 488.95
Q 1718.85 488.2 1713.45 489.4 1711.25 489.9 1708.2 490.95
L 1697.75 494.35
Q 1692.5 496.05 1690.05 496.7 1685.7 497.9 1682.1 498.3 1682.2 497.1 1682.9 493.15
L 1685.2 481.45
Q 1685.9 477.95 1686.1 476.05 1686.4 473.05 1686.05 470.65
L 1680.1 470.55
Q 1679.4 470.45 1679 470.8 1678.85 471 1678.75 471.5
L 1674.15 497.3
Q 1673.55 501.05 1673.4 502.95 1673.15 506.1 1673.55 508.6 1688.4 508.45 1724.3 507.3
L 1724.25 488.95
M 1738.05 432.2
Q 1736.9 431.9 1735.05 431.9 1732.35 431.9 1732 431.85 1732.25 432.85 1731.95 435.4 1731.7 437.7 1732.3 438.8 1732.75 439.6 1734.15 440.7 1740.6 445.95 1746.4 454.25 1750.65 460.25 1755.9 470.05 1757.8 473.65 1758.3 475.6 1758.65 477.15 1758.35 478.25 1758.05 479.1 1757.15 480.3
L 1753.15 485.75
Q 1753.45 485.3 1753.2 484.65 1753 484.05 1752.5 483.75 1751.85 483.35 1750.25 483.35
L 1742.8 483.3
Q 1742.6 484.65 1742.65 485.95
L 1739.1 486.4
Q 1739.05 490.35 1739.2 495.3 1740.6 495.15 1745.85 495.45 1749.95 495.7 1752.25 494.7 1753.95 493.9 1754.25 493.85 1754.8 493.7 1755.95 493.75 1757.1 493.8 1757.65 493.7 1759.45 493.4 1761.05 491.2 1762.55 488.7 1763.45 487.55 1764.75 486.05 1765 485.5 1765.45 484.5 1765.45 482.5
L 1765.45 475.15
Q 1765.45 470.95 1765 468.9 1764.4 466.25 1762.1 461.9 1752.95 445 1742.95 435.45 1740.15 432.75 1738.05 432.2
M 1699.35 294.3
L 1699.35 286.1
Q 1698.5 286.15 1694.9 286 1692.2 285.9 1690.55 286.35 1686.45 287.4 1683 292.4 1682.2 293.55 1681.9 294.45 1681.25 296 1681.35 299.1
L 1681.4 306.9 1687.3 307
Q 1688.7 307 1689.35 306.8 1689.9 306.6 1690.8 305.9
L 1694.1 303.35
Q 1695.85 301.9 1696.05 301.65 1696.8 300.85 1698.35 298.05 1699.2 296.25 1699.25 295.7 1699.35 295.25 1699.35 294.3
M 1701.2 234.4
Q 1701.9 233.45 1702.15 232.75 1702.55 231.6 1702.4 229.45 1702.2 227.05 1702.35 226.1 1701.5 226.25 1700.35 226.15 1699 226 1698.3 225.95 1695.7 225.75 1694.4 226.9 1693.8 227.4 1693.35 228.3 1693.25 228.55 1692.65 230 1691.35 233.25 1687.85 238
L 1673.4 257.45
Q 1671.15 260.55 1670.65 262.25 1670.3 263.5 1670.3 266.65
L 1670.35 272.15
Q 1670.35 272.95 1670.65 273.3 1671 273.65 1671.9 273.65
L 1677.8 273.7
Q 1677 270.35 1679.05 266.35 1680.15 264.35 1683.5 260.25 1686.5 256.5 1691.15 250.1
L 1694.95 244.9
Q 1697.35 241.6 1698.1 240 1699.3 237.25 1700.1 236 1700.85 234.95 1701.2 234.4 Z" stroke="none" fill="#000000"></path>

<path d="M 1658.15 357
Q 1652.95 357.4 1649 358.7 1659.8 358.6 1664.55 358.7 1673.25 358.85 1680.05 359.65 1677.75 357.8 1674.15 357.15 1671.8 356.75 1667.55 356.75 1661.3 356.75 1658.15 357 Z" stroke="none" fill="#FFFFFF"></path>
</g>
</g>
</g>
</g>

<g transform="matrix( 0.3621063232421875, 0, 0, 0.3621063232421875, -594.2,0.1)" id="Layer_6">
<g>
<g>
<g>
<path d="M 1926.5 117.05
L 1924.6 117.05
Q 1915.5 121.2 1910.2 124.45 1902.65 129.1 1897.9 134.65 1893.9 140.35 1892.1 147.75 1890.6 153.85 1890.5 162
L 1890.25 211
Q 1890.3 222.35 1890.1 244.8
L 1890 263.1
Q 1889.9 279.65 1889.85 282.5 1889.7 293.5 1889.3 301.95 1888.75 311.75 1888.95 324.55 1889.2 348.45 1888.8 366.8 1888.2 396.55 1888.2 414.9
L 1888.2 434.3
Q 1888.2 443.1 1889.35 448.1 1891.9 454.95 1897.95 460.05 1901.6 461.85 1905.9 462.8 1909.3 463.45 1914.15 463.8
L 1936.95 464.15 1936.95 457.85
Q 1932.1201171875 457.923046875 1928.8 457.9 1916.3 457.75 1907.45 455.9 1904.4 455 1902.8 453.8 1901.15 452.7 1899.15 450.1 1896.8 445.7 1895.8 442.35 1894.75 438.6 1894.7 434
L 1894.9 395.65
Q 1895 387.5 1895 383.45
L 1895.75 310.35
Q 1896.25 253.35 1896.75 231.5 1897.25 214 1897.25 201.4
L 1897.45 164.8
Q 1897.4 158.7 1897.6 156.2 1897.9 151.6 1899.2 147.85
L 1900.7 145.1
Q 1908.9 135.45 1912.25 132.85 1915.53515625 130.26171875 1927.05 124.5 1927.0978515625 124.476171875 1927.15 124.45
L 1930.45 122.85
Q 1929.2 122.5 1927.55 121.85
L 1927.25 119.7
Q 1927.25 119.6 1927.5 112.25
L 1926.95 112.25 1926.5 112.25 1926.5 117.05 Z" stroke="none" fill="#706C84"></path>

<path d="M 1904 46.5
L 1904 49.2
Q 1903.95 51.15 1903.9 55.1 1904 58.5 1905.15 60.75 1908.05 62.15 1908.85 62.45 1909.7 62.7 1911.8 63
L 1934.95 63.5
Q 1933.75 67.05 1933.2 71.05 1932.75 74 1932.45 78.75 1931.95 87.2 1931.65 90.2 1930.9 96.55 1929.25 101.35 1927.4748046875 106.4478515625 1926.95 112.25
L 1927.5 112.25
Q 1927.25 119.6 1927.25 119.7
L 1927.55 121.85
Q 1929.2 122.5 1930.45 122.85
L 1927.15 124.45
Q 1927.0978515625 124.476171875 1927.05 124.5 1927.3150390625 124.4087890625 1927.55 124.35 1931.2 123.1 1934.65 122.75
L 1936.95 122.8 1936.95 118.35 1933.35 118.35
Q 1934.05 111.35 1934.3 109.7 1934.6 107.9 1935.6 104.55 1936.388671875 101.8642578125 1936.95 98.45
L 1936.95 56.65 1910.9 56
Q 1908.15 49.9 1909.9 43.5 1923.3943359375 39.3787109375 1936.95 37.5
L 1936.95 32.25
Q 1934.612890625 32.4615234375 1932.3 32.7
L 1928.85 33.1
Q 1921.25 33.9 1916.85 34.7 1910.15 35.8 1905.05 37.65 1904.2 39.3 1904.1 40.45 1903.95 41.55 1904 46.5 Z" stroke="none" fill="#7E1A34"></path>

<path d="M 1936.95 406.85
L 1932.4 406.85
Q 1925.95 406.45 1924.1 406.6 1919.65 406.8 1916.3 408.6 1914.85 411.55 1914.5 412.65 1914.15 413.75 1913.7 417.25 1914.05 420.8 1914.35 421.9 1914.7 422.95 1916.35 425.9 1920.1 427.75 1922.8 427.95 1925.3794921875 428.141015625 1936.95 427.75
L 1936.95 406.85
M 1936.95 270.4
L 1936.95 248.7
Q 1923.3279296875 248.5943359375 1923.15 248.95 1920.9 260.55 1924.35 268.1 1928.15 270.2 1930.1 270.45 1931.6306640625 270.685546875 1936.95 270.4 Z" stroke="none" fill="#9DAEEA"></path>

<path d="M 1921.6 172.35
Q 1917.3 172.2 1913.35 172.95 1912.75 175.1 1912.75 175.8 1912.8 176.55 1913.4 178.75
L 1917.15 180.35 1922.05 181.65
Q 1928.7 184.65 1932.65 186 1934.8513671875 186.776953125 1936.95 187.3
L 1936.95 172.35 1921.6 172.35 Z" stroke="none" fill="#992A3F"></path>

<path d="M 1915.15 145
L 1915.15 145.1
Q 1914.8 146.4 1914.55 147.8 1914 150.55 1913.65 153.3 1913.5 154.65 1913.45 156.05 1913.35 157.5 1913.4 158.95 1913.4 160.3 1913.5 161.75 1913.55 163.2 1913.75 164.7 1913.95 166.15 1914.25 167.55 1914.35 167.95 1914.55 168.35 1914.65 168.6 1914.8 168.95 1914.85 169.1 1914.95 169.25 1915 169.3 1915.05 169.35 1915.15 169.45 1915.3 169.55 1915.45 169.65 1915.6 169.75 1915.85 169.9 1916.1 170.05 1916.3 170.2 1916.65 170.25 1917.35 170.6 1918.2 170.85
L 1936.95 170.75 1936.95 142.95 1928.2 142.9
Q 1927.45 142.9 1926.8 142.9 1926.15 142.9 1925.55 142.9 1925 142.9 1924.5 142.9 1924 142.9 1923.55 142.9 1923.15 142.95 1922.8 142.95 1922.45 142.95 1922.2 142.95 1921.95 142.95 1921.75 142.95 1921.55 142.95 1921.4 142.95 1920.55 143.1 1919.75 143.25 1918.9 143.45 1918.1 143.7 1917.6669921875 143.8353515625 1917.25 144
L 1916.1 144 1915.15 145 Z" stroke="none" fill="#110F1A"></path>

<path d="M 1936.95 122.8
L 1934.65 122.75
Q 1931.2 123.1 1927.55 124.35 1927.3150390625 124.4087890625 1927.05 124.5 1915.53515625 130.26171875 1912.25 132.85 1908.9 135.45 1900.7 145.1
L 1899.2 147.85
Q 1897.9 151.6 1897.6 156.2 1897.4 158.7 1897.45 164.8
L 1897.25 201.4
Q 1897.25 214 1896.75 231.5 1896.25 253.35 1895.75 310.35
L 1895 383.45
Q 1895 387.5 1894.9 395.65
L 1894.7 434
Q 1894.75 438.6 1895.8 442.35 1896.8 445.7 1899.15 450.1 1901.15 452.7 1902.8 453.8 1904.4 455 1907.45 455.9 1916.3 457.75 1928.8 457.9 1932.1201171875 457.923046875 1936.95 457.85
L 1936.95 427.75
Q 1925.3794921875 428.141015625 1922.8 427.95 1920.1 427.75 1916.35 425.9 1914.7 422.95 1914.35 421.9 1914.05 420.8 1913.7 417.25 1914.15 413.75 1914.5 412.65 1914.85 411.55 1916.3 408.6 1919.65 406.8 1924.1 406.6 1925.95 406.45 1932.4 406.85
L 1936.95 406.85 1936.95 270.4
Q 1931.6306640625 270.685546875 1930.1 270.45 1928.15 270.2 1924.35 268.1 1920.9 260.55 1923.15 248.95 1923.3279296875 248.5943359375 1936.95 248.7
L 1936.95 187.3
Q 1934.8513671875 186.776953125 1932.65 186 1928.7 184.65 1922.05 181.65
L 1917.15 180.35 1913.4 178.75
Q 1912.8 176.55 1912.75 175.8 1912.75 175.1 1913.35 172.95 1917.3 172.2 1921.6 172.35
L 1936.95 172.35 1936.95 170.75 1918.2 170.85
Q 1917.35 170.6 1916.65 170.25 1916.3 170.2 1916.1 170.05 1915.85 169.9 1915.6 169.75 1915.45 169.65 1915.3 169.55 1915.15 169.45 1915.05 169.35 1915 169.3 1914.95 169.25 1914.85 169.1 1914.8 168.95 1914.65 168.6 1914.55 168.35 1914.35 167.95 1914.25 167.55 1913.95 166.15 1913.75 164.7 1913.55 163.2 1913.5 161.75 1913.4 160.3 1913.4 158.95 1913.35 157.5 1913.45 156.05 1913.5 154.65 1913.65 153.3 1914 150.55 1914.55 147.8 1914.8 146.4 1915.15 145.1
L 1915.15 145 1916.1 144 1917.25 144
Q 1917.6669921875 143.8353515625 1918.1 143.7 1918.9 143.45 1919.75 143.25 1920.55 143.1 1921.4 142.95 1921.55 142.95 1921.75 142.95 1921.95 142.95 1922.2 142.95 1922.45 142.95 1922.8 142.95 1923.15 142.95 1923.55 142.9 1924 142.9 1924.5 142.9 1925 142.9 1925.55 142.9 1926.15 142.9 1926.8 142.9 1927.45 142.9 1928.2 142.9
L 1936.95 142.95 1936.95 122.8 Z" stroke="none" fill="#F5F7F9"></path>

<path d="M 1935.6 104.55
Q 1934.6 107.9 1934.3 109.7 1934.05 111.35 1933.35 118.35
L 1936.95 118.35 1936.95 98.45
Q 1936.388671875 101.8642578125 1935.6 104.55 Z" stroke="none" fill="#E21F2D"></path>

<path d="M 1936.95 37.5
Q 1923.3943359375 39.3787109375 1909.9 43.5 1908.15 49.9 1910.9 56
L 1936.95 56.65 1936.95 37.5 Z" stroke="none" fill="#DF202E"></path>
</g>
</g>
</g>
</g>

<g transform="matrix( 0.3621063232421875, 0, 0, 0.3621063232421875, -594.2,0.1)" id="MergedLayer_1">
<g>
<g>
<g>
<path d="M 1902.65 491.4
Q 1902.45 491.75 1902.45 492.55
L 1902.5 498.25 1903.45 498.45 1903.45 501.3
Q 1908.35 501.4 1910.75 501.35 1910.9 500.15 1911.9 498.95 1912.4 498.35 1913.95 496.95 1916.25 494.9 1918.05 492.65
L 1919.7 490.4
Q 1920.8 488.85 1921.1 487.6 1921.35 486.65 1921.35 484.65
L 1921.35 464.25 1914.35 464.15 1914.35 478.25
Q 1914.35 479.95 1914.1 480.7 1913.85 481.55 1913.15 482.6
L 1911.25 485.6
Q 1908.95 485.5 1908.1 486.3 1908 486.4 1907 487.8 1906.15 488.95 1903.65 490.45 1902.85 490.95 1902.65 491.4
M 1893.35 461.95
L 1886.35 461.85
Q 1886.3 462.5 1886.4 465.1 1886.45 467.15 1886.15 468.35 1886.05 469.05 1885.7 470
L 1885.1 471.65
Q 1884.85 472.5 1884.7 473.65
L 1882.65 473.6
Q 1882.2 474.6 1882.2 476.85 1882.1 482.4 1882.45 485.15 1882.55 486 1882.8 486.3 1883.15 486.65 1883.65 486.8 1884.45 487.1 1885.6 487.2 1887.4 487.4 1892.3 487.4
L 1892.3 478.3
Q 1892.7 477.6 1892.85 477.2 1893.3 476.15 1893.3 474.3 1893.35 472.25 1893.35 461.95 Z" stroke="none" fill="#000000"></path>
</g>
</g>
</g>
</g>

<g transform="matrix( 0.3621063232421875, 0, 0, 0.3621063232421875, -594.2,0.1)" id="Layer_2">
<g>
<g>
<g>
<path d="M 1936.95 239.35
Q 1936.27421875 239.5375 1935.6 239.7 1921.15 243.15 1907.65 249.15 1897.4 253.65 1893.9 271.7 1894.1 277.75 1893.85 283.8 1893.25 297.5 1895.85 311 1898.6 325.3 1899.6 340.05 1900.45 352.7 1902.25 365.3 1903.9 377.1 1905.95 388.7 1908.25 401.6 1911.8 413.9 1915.2 425.85 1919.45 437.5 1924.55 451.55 1932.1 464.7 1934.17734375 468.2912109375 1936.95 470.7
L 1936.95 427.5
Q 1936.851171875 427.4078125 1936.75 427.3 1935.8 426.3 1933.85 425.2 1931.35 423.85 1930.7 423.35 1927.9 421.25 1926.4 417.05 1925.4 414.3 1924.65 409.25
L 1921.1 385.5
Q 1918.8 370.55 1918.1 361.85 1917.3 351.55 1917.6 329 1917.95 307.55 1916.8 296.1 1916.3 290.85 1916.25 289.55 1916.15 285.8 1916.75 283.05 1917.55 279.65 1919.65 277.15 1921.95 274.4 1925 273.75 1925.95 273.55 1928.95 273.5 1931.45 273.45 1932.8 272.85 1935.0884765625 271.876171875 1936.95 268.55
L 1936.95 239.35
M 1936.95 205.8
L 1936.95 198.5 1933.75 198.45
Q 1930.8 198.45 1929.5 199.05 1928.7 199.45 1928.05 199.95
L 1926.15 201.3
Q 1924.2 202.7 1923.6 203.35 1922.65 204.3 1921.15 206.6 1920.35 207.7 1919.85 208.8 1919.3 210.2 1919.05 210.5 1918.85 210.8 1918.15 211.6 1917.55 212.25 1917.35 212.75 1917.1 213.35 1917.1 214.65
L 1917.1 221.6 1924.05 221.7
Q 1923.75 220.65 1924.55 219.4 1925.5 218.15 1925.95 217.45 1926.1 217.2 1927.15 215.1 1927.6 214.15 1928.45 212.95 1929.15 211.7 1929.85 210.95 1930.8 209.85 1933.2 208.15
L 1935.6 206.5
Q 1936.4 205.9 1936.95 205.8 Z" stroke="none" fill="#000000"></path>

<path d="M 1916.25 289.55
Q 1916.3 290.85 1916.8 296.1 1917.95 307.55 1917.6 329 1917.3 351.55 1918.1 361.85 1918.8 370.55 1921.1 385.5
L 1924.65 409.25
Q 1925.4 414.3 1926.4 417.05 1927.9 421.25 1930.7 423.35 1931.35 423.85 1933.85 425.2 1935.8 426.3 1936.75 427.3 1936.851171875 427.4078125 1936.95 427.5
L 1936.95 268.55
Q 1935.0884765625 271.876171875 1932.8 272.85 1931.45 273.45 1928.95 273.5 1925.95 273.55 1925 273.75 1921.95 274.4 1919.65 277.15 1917.55 279.65 1916.75 283.05 1916.15 285.8 1916.25 289.55 Z" stroke="none" fill="#FFFFFF"></path>
</g>
</g>
</g>
</g>
</g>
</svg>
