
<svg viewBox="0 0 80 70" height="70px" width="80px" y="0px" x="0px" preserveAspectRatio="none" xmlns:xlink="http://www.w3.org/1999/xlink" version="1.1" xmlns="http://www.w3.org/2000/svg">
<defs></defs>

<g id="Layer_2">
<g transform="matrix( 0.2443389892578125, 0, 0, 0.2443389892578125, -5.6,-13.9)" id="Layer_1">
<g>
<g>
<g>
<path d="M 245.05 318
Q 245.75 312.75 244 310 244 314 244 318 244 318.5 244 319 244.5 319 245 319 245 318.5 245.05 318 Z" stroke="none" fill="#395A63"></path>

<path d="M 245.05 320
Q 245 319.5 245 319 244.5 319 244 319 244 326.5 244 334 244 334.5 244 335 245.75 328.75 245.05 320 Z" stroke="none" fill="#214950"></path>

<path d="M 229.5 315.05
Q 229.5 315 229 315 229 315.5 229.05 316 229.75 323.75 228 329 228 332 228 335 228 335.5 228 336 230.85 327.35 229.5 315.05 Z" stroke="none" fill="#294952"></path>

<path d="M 242 299
Q 241.5 299 241.4 298.8 241 298 241 297 240.5 297 240 296.9 232.3 295.25 226 297 226 297.5 226 298 227.3 306.2 228.9 314 229 314.5 229 315 229.5 315 229.5 315.05 230.85 327.35 228 336 235.1 350.1 243.8 335.85 244 335.5 244 335 244 334.5 244 334 244 326.5 244 319 244 318.5 244 318 244 314 244 310 244 309.5 243.85 309.05 242.5 304.5 242 299 Z" stroke="none" fill="#010D14"></path>

<path d="M 226 291
Q 226 293 226 295 226 295.5 226 296 226 296.5 226 297 232.3 295.25 240 296.9 240.5 297 241 297 241 296.5 241 296 241 295.5 241 295 241 294.5 240.75 294.15 235.95 287.6 226 291 Z" stroke="none" fill="#200A02"></path>

<path d="M 180 295
Q 180 295.5 180 296 180 296.5 180 297 202.5 297 225 297 225.5 297 226 297 226 296.5 226 296 225.5 296 225 295.95 204.4 294.45 180 295 Z" stroke="none" fill="#7F694C"></path>

<path d="M 307 285
Q 307 284.5 306.95 284.5 303 284 299 284 301.25 285.75 306 285.05 306.5 285 307 285 Z" stroke="none" fill="#2B444B"></path>

<path d="M 297.1 264.2
Q 296.5 264.5 296 265 296 266 296 267 296 267.5 296 268 296.5 268 296.75 268.25 297 268.5 297 269 297.5 269 298 269 298 268.5 298 268 298 266 298 264 297.5 264 297.1 264.2 Z" stroke="none" fill="#676556"></path>

<path d="M 292 268
Q 292 268.5 291.8 268.6 288.35 270.35 284 271 283.55 276 286.15 277.75 286.5 278 287 278 297.4 276.9 297.05 270 297 269.5 297 269 297 268.5 296.75 268.25 296.5 268 296 268 295.5 268 295 268 293.5 268 292 268 Z" stroke="none" fill="#170502"></path>

<path d="M 292 268
L 292 267.5
Q 287.8 268.3 284 270 284 270.5 284 271 288.35 270.35 291.8 268.6 292 268.5 292 268 Z" stroke="none" fill="#582601"></path>

<path d="M 300.1 257.95
Q 300 257.5 300 257 299.5 257 299 257 298.5 257 298 257 298 258.5 298 260 298 260.5 298 261 300.95 261.45 300.1 257.95 Z" stroke="none" fill="#746D59"></path>

<path d="M 302.1 250
Q 302 249.5 302 249
L 301.5 249
Q 301.65 251.15 300 251 300 253.5 300 256 300 256.5 300 257 303.05 255.5 302.1 250 Z" stroke="none" fill="#706F5E"></path>

<path d="M 273 287.05
Q 269.95 287.45 268 289 268 289.5 268 290 268 290.5 268 291 272.65 291.15 273.85 287.95 274 287.5 274 287 273.5 287 273 287.05 Z" stroke="none" fill="#766D58"></path>

<path d="M 268 291
Q 267.5 291 267.05 291.15 255.35 294.35 241 295 241 295.5 241 296 241 296.5 241 297 241 298 241.4 298.8 241.5 299 242 299 242 298.5 242 298 242 297.5 242 297 257.25 296.75 267.8 291.6 268 291.5 268 291 Z" stroke="none" fill="#6D6E5F"></path>

<path d="M 282 279
Q 282 280 282 281 282 281.5 282 282 284.9 281.9 285.8 279.9 286 279.5 286 279 285.5 279 285 279 283.5 279 282 279 Z" stroke="none" fill="#6D6F62"></path>

<path d="M 281.75 283.75
Q 282 283.5 282 283 281.5 283 281.05 283.15 277.9 284.4 274 285 274 285.5 274 286 274 286.5 274 287 278.95 286.45 281.75 283.75 Z" stroke="none" fill="#736E5A"></path>

<path d="M 303 239
Q 302.5 239 302 239 302 241.5 302 244 302 244.5 302 245 305.2 244.7 304.1 240 304 239.5 304 239 303.5 239 303 239 Z" stroke="none" fill="#677267"></path>

<path d="M 301.45 206.85
Q 301.5 207 302 207 302 206.5 302.05 206 303.45 196.05 300 191 299.25 200.25 301.45 206.85 Z" stroke="none" fill="#67634C"></path>

<path d="M 137 312
Q 137 316.5 137 321 137 321.5 137 322 137.5 322 137.5 321.9 138.75 315.75 137 312 Z" stroke="none" fill="#27474E"></path>

<path d="M 125 299.1
Q 125.5 299 126 299
L 126 298.5
Q 123.9 298.65 124 297 123.5 297 123 297 120.5 297 118 297 117.5 297 117 297 116.5 297 116 297 118.35 300.15 125 299.1
M 73.3 238.75
Q 73.5 239 74 239 74 238.5 74 238 74 234.5 74 231 73.5 231 73 231 72.5 231 72 231 71.25 236.25 73.3 238.75 Z" stroke="none" fill="#6A7164"></path>

<path d="M 135 301
Q 135 300 135 299 135 298.5 135 298 134.5 298 134.05 297.85 130.25 296.25 124 297 123.9 298.65 126 298.5
L 126 299
Q 132.7 297.8 134.4 301.8 134.5 302 135 302 135 301.5 135 301 Z" stroke="none" fill="#726855"></path>

<path d="M 146.85 299.95
Q 147 299.5 147 299 146.5 299 146.1 298.8 140.1 296.1 135 299 135 300 135 301 135 301.5 135 302 135 302.5 135.25 302.75 135.5 303 136 303 144 308.85 146.85 299.95 Z" stroke="none" fill="#030504"></path>

<path d="M 160 298
Q 160 298.5 160 299 191.3 298.35 225 298 225.5 298 226 298 226 297.5 226 297 225.5 297 225 297 202.5 297 180 297 179.5 297 179 297 171 297 163 297 163 297.5 162.85 297.55 161.5 298 160 298 Z" stroke="none" fill="#63726B"></path>

<path d="M 152 303
Q 152 302.5 152 302 152 300.5 152 299 152 298.5 151.8 298.1 151.5 297.5 151 297 150.5 297 150 297 150 297.5 150 298 150 298.5 150 299 151.2 300.3 151.5 302.95 151.5 303 152 303 Z" stroke="none" fill="#4B5755"></path>

<path d="M 159 299.05
Q 159.5 299 160 299 160 298.5 160 298 161.5 298 162.85 297.55 163 297.5 163 297 162.5 297 162 297 156.5 297 151 297 151.5 297.5 151.8 298.1 152 298.5 152 299 154 299.65 159 299.05 Z" stroke="none" fill="#716F5F"></path>

<path d="M 152.05 304
Q 152 303.5 152 303 151.5 303 151.5 302.95 151.2 300.3 150 299 149.5 299 149 299 148 299 147 299 147 299.5 146.85 299.95 144 308.85 136 303 136.5 307 136.95 311 137 311.5 137 312 138.75 315.75 137.5 321.9 137.5 322 137 322 137 322.5 136.85 322.95 134.45 330.45 130 336 130.4 347.75 143.05 343.15 143.5 343 144 343 148 333.55 152.8 324.9 153 324.5 153 324 153 313.5 152.05 304
M 138.05 336.5
Q 138 336.5 138 336 143.95 337.1 138.05 336.5
M 142.25 329.85
Q 142 329.5 142 329 145.35 334.7 142.25 329.85 Z" stroke="none" fill="#030B16"></path>

<path d="M 142 329
Q 142 329.5 142.25 329.85 145.35 334.7 142 329 Z" stroke="none" fill="#050204"></path>

<path d="M 138 336
Q 138 336.5 138.05 336.5 143.95 337.1 138 336 Z" stroke="none" fill="#030202"></path>

<path d="M 79 287
Q 78.5 287 78 287 72.2 286.75 69 284 70.95 289.05 78.9 287.5 79 287.5 79 287 Z" stroke="none" fill="#26474F"></path>

<path d="M 77 266
Q 77 265.5 77 265 77 264.5 77 264 77.5 264 78 264 78 263.5 78.1 263 79.35 256.65 76 255 76 260 76 265 76 265.5 76 266 76.5 266 77 266 Z" stroke="none" fill="#7D6A58"></path>

<path d="M 64 253
Q 64 252.5 63.95 252.5 60 252 56 252 56 252.5 56 253 59.5 253 63 253 63.5 253 64 253 Z" stroke="none" fill="#34565E"></path>

<path d="M 64.75 253.25
Q 64.5 253 64 253 63.5 253 63 253 59.5 253 56 253 56 253.5 55.8 253.6 54 254.5 52 255 52.9 262.1 57.2 265.75 57.5 266 58 266 58 265.5 58.05 265 58.55 260.45 57 258 59.9 255.4 64.05 254.15 64.5 254 65 254 65 253.5 64.75 253.25 Z" stroke="none" fill="#041A28"></path>

<path d="M 74 255
Q 74 255.5 73.85 255.95 73.2 257.7 70 257 70 257.5 70 258 72.8 261.2 74.45 265.85 74.5 266 75 266 75.5 266 76 266 76 265.5 76 265 76 260 76 255 75.5 255 75 255 74.5 255 74 255 Z" stroke="none" fill="#53716E"></path>

<path d="M 74 255
Q 73.5 255 73.15 255.2 70.95 256.5 68 255 68.95 256.05 69.45 257.85 69.5 258 70 258 70 257.5 70 257 73.2 257.7 73.85 255.95 74 255.5 74 255 Z" stroke="none" fill="#506B58"></path>

<path d="M 74 231
Q 74 230.5 74 230 74.15 219.55 72 215 72 222.5 72 230 72 230.5 72 231 72.5 231 73 231 73.5 231 74 231 Z" stroke="none" fill="#7A6C53"></path>

<path d="M 149.75 296.2
Q 143.3 288.65 135 295 135 296 135 297 135 297.5 135 298 135 298.5 135 299 140.1 296.1 146.1 298.8 146.5 299 147 299 148 299 149 299 149.5 299 150 299 150 298.5 150 298 150 297.5 150 297 150 296.5 149.75 296.2 Z" stroke="none" fill="#270C00"></path>

<path d="M 117.85 296.45
Q 105.9 292.6 96 287 101.55 295.95 115 296.95 115.5 297 116 297 116.5 297 117 297 117.5 297 118 297 118 296.5 117.85 296.45 Z" stroke="none" fill="#746E5C"></path>

<path d="M 89 281
Q 89 281.5 88.85 281.95 87.75 285.25 86 282 87.15 287.75 95 287.05 95.5 287 96 287 96 286.5 95.8 286.1 93.75 282.25 89 281 Z" stroke="none" fill="#736F5C"></path>

<path d="M 86 282
Q 86 281.5 86 281 86 280 86 279 85.5 279 85.5 279.05 85.15 282.65 82 283 82 283.5 82 284 82 284.5 82 285 84.7 284.7 85.45 282.15 85.5 282 86 282 Z" stroke="none" fill="#1E3E47"></path>

<path d="M 88 276
L 87.5 276
Q 87.7 278.7 86 279 86 280 86 281 86 281.5 86 282 87.75 285.25 88.85 281.95 89 281.5 89 281 89 280.5 88.75 280.3 87.3 279.2 88 276 Z" stroke="none" fill="#68604E"></path>

<path d="M 87.5 276
L 88 276
Q 88 275.5 88 275 88 274.5 88 274 88 273.5 88 273 87.5 273 87.35 272.75 84.3 268.25 78 267 77.5 267 77.05 267.1 74.9 267.65 75 266 74.5 266 74.45 265.85 72.8 261.2 70 258 69.5 258 69.45 257.85 68.95 256.05 68 255 67.5 255 67.45 254.9 67.15 253.4 65 254 64.5 254 64.05 254.15 59.9 255.4 57 258 58.55 260.45 58.05 265 58 265.5 58 266 62.75 275.3 68.75 283.2 69 283.5 69 284 72.2 286.75 78 287 78.5 287 79 287 80.95 286.95 81.75 285.85 82 285.5 82 285 82 284.5 82 284 82 283.5 82 283 85.15 282.65 85.5 279.05 85.5 279 86 279 87.7 278.7 87.5 276 Z" stroke="none" fill="#050E17"></path>

<path d="M 88 267
Q 88 269.5 88 272 88 272.5 88 273 88 273.5 88 274 88 274.5 88 275 88.5 275 88.65 274.75 91.8 269.95 88 267 Z" stroke="none" fill="#634005"></path>

<path d="M 88 267
Q 88 266.5 87.85 266.45 86.5 266 85 266 84.5 266 84.05 266.15 82.25 266.9 78 267 84.3 268.25 87.35 272.75 87.5 273 88 273 88 272.5 88 272 88 269.5 88 267 Z" stroke="none" fill="#240300"></path>

<path d="M 84 264.95
Q 84.5 265 85 265 85 264.5 84.95 264.5 81.5 264 78 264 77.5 264 77 264 77 264.5 77 265 77 265.5 77 266 79.45 264.45 84 264.95 Z" stroke="none" fill="#6B5435"></path>

<path d="M 85 266
Q 85 265.5 85 265 84.5 265 84 264.95 79.45 264.45 77 266 76.5 266 76 266 75.5 266 75 266 74.9 267.65 77.05 267.1 77.5 267 78 267 82.25 266.9 84.05 266.15 84.5 266 85 266 Z" stroke="none" fill="#311B05"></path>

<path d="M 72 183
Q 72 182.5 72.05 182 73.45 166.1 70 160 69.3 172.7 71.5 182.9 71.5 183 72 183 Z" stroke="none" fill="#6E624C"></path>

<path d="M 72 109
Q 71.5 109 71 109 70.5 109 70 109 70 111.5 70 114 70 114.5 70 115 73 116.65 72.05 110 72 109.5 72 109 Z" stroke="none" fill="#72624A"></path>

<path d="M 96 77
Q 99.2 77.7 99.85 75.95 100 75.5 100 75 99.5 75 99 75 97.5 75 96 75 96 75.5 96 76 96 76.5 96 77 Z" stroke="none" fill="#696552"></path>

<path d="M 120 69
Q 119.5 69 119 68.95 114.45 68.45 112 70 112 70.5 112 71 117.25 71.75 119.75 69.7 120 69.5 120 69 Z" stroke="none" fill="#6F644C"></path>

<path d="M 109.75 71.7
Q 110 71.5 110 71 109.5 71 109 70.95 106.3 70.8 105 72 105 72.5 105 73 106.85 74.3 109.75 71.7 Z" stroke="none" fill="#74654B"></path>

<path d="M 300 153
Q 300 152.5 300 152 300.5 135.6 298 125 297.25 140.25 299.5 152.9 299.5 153 300 153 Z" stroke="none" fill="#696250"></path>

<path d="M 294 101
Q 293.3 104.2 295.05 104.85 295.5 105 296 105 296 104.5 296.1 104.05 296.95 100.6 294 101 Z" stroke="none" fill="#6B6450"></path>

<path d="M 185 67
Q 184.5 67 184 67 161.1 67.05 146 68 146 68.5 146 69 166.6 69.6 184.95 67.5 185 67.5 185 67 Z" stroke="none" fill="#686451"></path>

<path d="M 186 67
Q 188.75 68.75 193.9 67.55 194 67.5 194 67 193.5 67 193 67 189.5 67 186 67 Z" stroke="none" fill="#78654A"></path>

<path d="M 260 69
Q 260 68.5 259.8 68.35 257.5 66.95 254 67 255.25 69.2 259 69.05 259.5 69 260 69 Z" stroke="none" fill="#6D644E"></path>

<path d="M 251 67
Q 251.5 67 252 67 252 66.5 251.95 66.5 235.25 64.3 218 66 218 66.5 218 67 234.5 67 251 67 Z" stroke="none" fill="#646354"></path>

<path d="M 266 71
Q 265.5 71 265 71.1 260.75 71.75 260 69 259.5 69 259 69.05 255.25 69.2 254 67 253.5 67 253 67 252.5 67 252 67 251.5 67 251 67 234.5 67 218 67 217.5 67 217 67 205.5 67 194 67 194 67.5 193.9 67.55 188.75 68.75 186 67 185.5 67 185 67 185 67.5 184.95 67.5 166.6 69.6 146 69 145.5 69 145 69 132.5 69 120 69 120 69.5 119.75 69.7 117.25 71.75 112 71 111.5 71 111 71 110.5 71 110 71 110 71.5 109.75 71.7 106.85 74.3 105 73 104.5 73 104 73.05 101.45 73.45 100 75 100 75.5 99.85 75.95 99.2 77.7 96 77 96 77.5 95.75 77.65 80.6 88.1 72 105 72 106.5 72 108 72 108.5 72 109 72 109.5 72.05 110 73 116.65 70 115 70 137 70 159 70 159.5 70 160 73.45 166.1 72.05 182 72 182.5 72 183 72 186.5 72 190 72 190.5 72 191 72 202.5 72 214 72 214.5 72 215 74.15 219.55 74 230 74 230.5 74 231 74 234.5 74 238 74 238.5 74 239 74 246.5 74 254 74 254.5 74 255 74.5 255 75 255 75.5 255 76 255 79.35 256.65 78.1 263 78 263.5 78 264 81.5 264 84.95 264.5 85 264.5 85 265 85 265.5 85 266 86.5 266 87.85 266.45 88 266.5 88 267 91.8 269.95 88.65 274.75 88.5 275 88 275 88 275.5 88 276 87.3 279.2 88.75 280.3 89 280.5 89 281 93.75 282.25 95.8 286.1 96 286.5 96 287 105.9 292.6 117.85 296.45 118 296.5 118 297 120.5 297 123 297 123.5 297 124 297 130.25 296.25 134.05 297.85 134.5 298 135 298 135 297.5 135 297 135 296 135 295 143.3 288.65 149.75 296.2 150 296.5 150 297 150.5 297 151 297 156.5 297 162 297 162.5 297 163 297 171 297 179 297 179.5 297 180 297 180 296.5 180 296 180 295.5 180 295 204.4 294.45 225 295.95 225.5 296 226 296 226 295.5 226 295 226 293 226 291 235.95 287.6 240.75 294.15 241 294.5 241 295 255.35 294.35 267.05 291.15 267.5 291 268 291 268 290.5 268 290 268 289.5 268 289 269.95 287.45 273 287.05 273.5 287 274 287 274 286.5 274 286 274 285.5 274 285 277.9 284.4 281.05 283.15 281.5 283 282 283 282 282.5 282 282 282 281.5 282 281 282 280 282 279 283.5 279 285 279 285.5 279 286 279 286.5 279 287 279 287 278.5 287 278 286.5 278 286.15 277.75 283.55 276 284 271 284 270.5 284 270 287.8 268.3 292 267.5
L 292 268
Q 293.5 268 295 268 295.5 268 296 268 296 267.5 296 267 296 266 296 265 296.5 264.5 297.1 264.2 297.5 264 298 264 298 263.5 298 263 298 262 298 261 298 260.5 298 260 298 258.5 298 257 298.5 257 299 257 299.5 257 300 257 300 256.5 300 256 300 253.5 300 251 301.65 251.15 301.5 249
L 302 249
Q 302 248.5 302 248 302 246.5 302 245 302 244.5 302 244 302 241.5 302 239 302 238.5 302 238 302 222.5 302 207 301.5 207 301.45 206.85 299.25 200.25 300 191 300 190.5 300 190 300 171.5 300 153 299.5 153 299.5 152.9 297.25 140.25 298 125 298 124.5 298 124 298.2 113.3 296 105 295.5 105 295.05 104.85 293.3 104.2 294 101 294 100.5 293.75 100.15 287.5 91 282 81 281.5 81 281.15 80.8 273.35 76.15 266 71
M 260.8 80.4
Q 261 80.5 261 81 261.5 81 262 81 268.55 80.5 269.9 86.05 270 86.5 270 87 270.5 87 271 87 274.45 85.8 275.85 91.05 276 91.5 276 92 283.95 101.55 286.9 116 287 116.5 287 117 288.75 124.25 288.05 134 288 134.5 288 135 288 138.5 288 142 288 142.5 288 143 288 146.5 288 150 288 150.5 288 151 288.5 151.5 288.8 152.1 289 152.5 289 153 290.75 166.25 290 182 290 182.5 290 183 290 186.5 290 190 290 190.5 290 191 290 195.5 290 200 290 200.5 290 201 290 203.5 290 206 290 206.5 290 207 291.75 213.25 291.05 222 291 222.5 291 223 291 223.5 291 224 291 224.5 291 225 292.75 234.25 291.5 245.95 291.5 246 291 246
L 290.5 246
Q 291 251.5 288 253 288 253.5 288.1 253.95 288.65 256.15 287 256 287 256.5 287 257 287 257.5 287 258
L 287.5 258
Q 286.35 270.65 276 273 275.5 273 275.2 273.25 273.55 274.55 271 275 271 275.5 271 276 271.5 276 271.55 276.15 273.1 280.1 268 278 267.5 278 267.1 278.2 266.5 278.5 266 279 266 279.5 265.75 279.75 257.75 287.2 242 284 241.5 284 241 284 240 284 239 284 239 284.5 238.95 284.5 212.75 288 174 287 173.5 287 173 287 168.5 287 164 287 164 287.5 163.8 287.6 157.95 290.55 154 287 153.5 287 153 287 149.5 287 146 287 146 287.5 145.9 287.5 133.75 290.3 125 287 124.5 287 124 286.95 106.65 285.35 96 277 96 276.5 95.8 276.1 91.95 269.05 88 262 88.5 262 88.75 261.75 89 261.5 89 261 89 260.5 88.75 260.15 87.2 257.8 87 254 86.5 254 86.05 253.85 84.3 253.2 85 250 84.5 250 84.5 249.95 84 244 84 238 84 237.5 84 237 84 230 84 223 83.5 223 83.5 222.9 81.3 209.7 82 194 82.5 194 83 194 83 193.5 83 193 82.5 193 82.5 192.95 82 187.5 82 182 82 181.5 82 181 82 176 82 171 82 170.5 82 170 82 164.5 82 159 81.5 159 81.5 158.95 81 155 81 151 81 150.5 81 150 81 146.5 81 143
L 80.5 143
Q 80 132.5 80 122 80 121.5 80 121 80 116 80 111 82.5 106 85.35 101.2 85.5 101 86 101 86 100.5 86 100 86 99.5 86 99 87.7 98.7 88.4 97.2 88.5 97 89 97 89 96.5 89 96 89 95.5 89 95 91.85 93.35 94.2 91.25 94.5 91 95 91 97 90 98.75 88.7 99 88.5 99 88 98.5 88 98.1 87.8 97.5 87.5 97 87 100.75 84.3 106 83.5
L 106 84
Q 106.5 83.5 107.1 83.2 107.5 83 108 83 108 82.5 107.8 82.1 107.5 81.5 107 81 109.5 81 111.9 81.5 112 81.5 112 82 115.2 81.7 117.2 80.25 117.5 80 118 80 118 79.5 118 79 125 79 132 79 132.5 79 133 79 139 79 145 79 145.5 79 146 79 151.5 79 157 79 157.5 79 158 79 161.5 79 165 79 165.5 79 166 79 166 78.5 166 78 170.5 78 175 78 175.5 78 176 78 176 77.5 176 77 188.5 77 201 77 201.5 77 202 77 205.5 77 209 77 209.5 77 210 77 211.5 77 213 77 213.5 77 214 77 214 76.5 214 76 243.85 71.65 260.8 80.4 Z" stroke="none" fill="#9D6129"></path>

<path d="M 206 284
Q 206 284.5 206 285 216 285 226 284.5
L 226 284
Q 225.5 284 225 284 215.5 284 206 284 Z" stroke="none" fill="#BC8C0A"></path>

<path d="M 198 284
Q 198 284.5 198 285 201.5 285 205 285 205.5 285 206 285 206 284.5 206 284 205.5 284 205 284 201.5 284 198 284 Z" stroke="none" fill="#D5A931"></path>

<path d="M 174 286
Q 174 286.5 174 287 212.75 288 238.95 284.5 239 284.5 239 284 238.5 284 238 284 236 284 234 284 233.5 284 233 284 229.5 284 226 284
L 226 284.5
Q 216 285 206 285 205.5 285 205 285 201.5 285 198 285 197.5 285 197 285
L 197 285.5
Q 185.5 286 174 286 Z" stroke="none" fill="#9C6903"></path>

<path d="M 174 285
Q 174 285.5 174 286 185.5 286 197 285.5
L 197 285
Q 196.5 285 196 285 185 285 174 285 Z" stroke="none" fill="#AD7D04"></path>

<path d="M 166 285
Q 166 285.5 166 286 169.5 286 173 286 173.5 286 174 286 174 285.5 174 285 173.5 285 173 285 169.5 285 166 285 Z" stroke="none" fill="#D7A931"></path>

<path d="M 164 287
Q 163.5 287 163 287 158.5 287 154 287 157.95 290.55 163.8 287.6 164 287.5 164 287 Z" stroke="none" fill="#9E6402"></path>

<path d="M 180.9 242.5
Q 181 242.5 181 243 190.45 244.45 193.75 239.85 194 239.5 194 239 193.5 239 193 239 192.5 239 192.15 239.25 186.95 242.85 180 240 179.4 242.15 180.9 242.5 Z" stroke="none" fill="#DABB64"></path>

<path d="M 176 243
Q 175.5 243 175 243.05 167.55 243.95 164 241 168 247.95 177.8 243.6 178 243.5 178 243 177.5 243 177 243 176.5 243 176 243 Z" stroke="none" fill="#D3B75E"></path>

<path d="M 180 240
Q 179.5 240 179.3 240.25 178.2 241.75 176 242 176 242.5 176 243 176.5 243 177 243 177.5 243 178 243 179.7 244.65 180.4 243.2 180.5 243 181 243 181 242.5 180.9 242.5 179.4 242.15 180 240 Z" stroke="none" fill="#D5BE7B"></path>

<path d="M 204 233
Q 203.5 233 203 233 202.5 233 202 233 201.5 233 201.25 233.25 197.95 236.45 193 238 193 238.5 193 239 193.5 239 194 239 201.6 239.1 203.8 233.9 204 233.5 204 233 Z" stroke="none" fill="#DDC26B"></path>

<path d="M 209.85 226.95
Q 210 226.5 210 226 209.5 226 209.35 226.25 206.6 230.1 202 232 202 232.5 202 233 202.5 233 203 233 203.5 233 204 233 208.3 231.3 209.85 226.95 Z" stroke="none" fill="#CAB063"></path>

<path d="M 217 219
Q 217 219.5 216.75 219.75 214.5 222 212 224 212 224.5 212 225 217.95 225.45 218 220 218 219.5 218 219 217.5 219 217 219 Z" stroke="none" fill="#DDC06F"></path>

<path d="M 226 209
Q 225.5 209 225.35 209.25 222 214.5 217 218 217 218.5 217 219 217.5 219 218 219 223.9 216.4 225.85 209.95 226 209.5 226 209 Z" stroke="none" fill="#C8AE5D"></path>

<path d="M 276 272
Q 276 272.5 276 273 286.35 270.65 287.5 258
L 287 258
Q 286.5 258 286.45 258.15 283 267 276 272 Z" stroke="none" fill="#A66E09"></path>

<path d="M 271 276
Q 270.5 276 270.4 276.2 269.7 277.7 268 278 273.1 280.1 271.55 276.15 271.5 276 271 276 Z" stroke="none" fill="#A26E10"></path>

<path d="M 251 283
Q 251 283.5 250.95 283.5 246.5 284 242 284 257.75 287.2 265.75 279.75 266 279.5 266 279 265.5 279 265.15 279.25 259.7 282.7 251 283 Z" stroke="none" fill="#9F6C03"></path>

<path d="M 251 283
Q 250.5 283 250 283 242 283 234 283 234 283.5 234 284 236 284 238 284 238.5 284 239 284 240 284 241 284 241.5 284 242 284 246.5 284 250.95 283.5 251 283.5 251 283 Z" stroke="none" fill="#C49033"></path>

<path d="M 291 246
Q 291.5 246 291.5 245.95 292.75 234.25 291 225 291 235 291 245 291 245.5 291 246 Z" stroke="none" fill="#A57004"></path>

<path d="M 291.05 222
Q 291.75 213.25 290 207 290 215 290.5 222.95 290.5 223 291 223 291 222.5 291.05 222 Z" stroke="none" fill="#C58835"></path>

<path d="M 145 286
Q 145 286.5 145 287 145.5 287 146 287 149.5 287 153 287 153.5 287 154 287 158.5 287 163 287 163.5 287 164 287 168.5 287 173 287 173.5 287 174 287 174 286.5 174 286 173.5 286 173 286 169.5 286 166 286 165.5 286 165 286 155 286 145 286 Z" stroke="none" fill="#AA7A03"></path>

<path d="M 133 287
Q 129 287 125 287 133.75 290.3 145.9 287.5 146 287.5 146 287 145.5 287 145 287 144.5 287 144 287 139 287 134 287 133.5 287 133 287 Z" stroke="none" fill="#A16504"></path>

<path d="M 134 287
Q 134 286.5 134 286 133.5 286 133 286 129 286 125 286 125 286.5 125 287 129 287 133 287 133.5 287 134 287 Z" stroke="none" fill="#D4A631"></path>

<path d="M 134 286
Q 134 286.5 134 287 139 287 144 287 144.5 287 145 287 145 286.5 145 286 144.5 286 144 286 139 286 134 286 Z" stroke="none" fill="#CDA00C"></path>

<path d="M 88.75 261.75
Q 88.5 262 88 262 91.95 269.05 95.8 276.1 96 276.5 96 277 106.65 285.35 124 286.95 124.5 287 125 287 125 286.5 125 286 124.5 286 124 285.9 98.6 281.9 90 261 89.5 261 89 261 89 261.5 88.75 261.75 Z" stroke="none" fill="#A66D07"></path>

<path d="M 88 254
Q 87.5 254 87 254 87.2 257.8 88.75 260.15 89 260.5 89 261 89.5 261 90 261 90 260.5 90.05 260 90.7 255.3 88 254 Z" stroke="none" fill="#E0A44C"></path>

<path d="M 86.05 253.85
Q 86.5 254 87 254 87 253.5 86.9 253 86.2 249.8 85 247 85 248 85 249 85 249.5 85 250 84.3 253.2 86.05 253.85 Z" stroke="none" fill="#C2842E"></path>

<path d="M 85 238
Q 84.5 238 84 238 84 244 84.5 249.95 84.5 250 85 250 85 249.5 85 249 85 248 85 247 85 246.5 85 246 85 242 85 238 Z" stroke="none" fill="#AB6D12"></path>

<path d="M 85 238
Q 85 237.5 85.05 237 85.75 228.75 84 223 84 230 84 237 84 237.5 84 238 84.5 238 85 238 Z" stroke="none" fill="#CB8E32"></path>

<path d="M 84.05 207
Q 84.75 201.75 83 199 83 203.5 83.5 207.95 83.5 208 84 208 84 207.5 84.05 207 Z" stroke="none" fill="#CC9135"></path>

<path d="M 159 230
Q 159 229.5 159 229 159 226.5 159 224 158.5 224 158 224 157.5 233.25 158.8 230.9 159 230.5 159 230 Z" stroke="none" fill="#E1C671"></path>

<path d="M 157 212
Q 157 213 157 214 157 214.5 157 215 156.7 219.8 157.85 223.05 158 223.5 158 224 158.5 224 159 224 159 223.5 159 223 158.7 216.8 157 212 Z" stroke="none" fill="#B99E3D"></path>

<path d="M 83 194
Q 82.5 194 82 194 81.3 209.7 83.5 222.9 83.5 223 84 223 84 222.5 84 222 84 215 84 208 83.5 208 83.5 207.95 83 203.5 83 199 83 198.5 83 198 83 196 83 194 Z" stroke="none" fill="#AA6913"></path>

<path d="M 83 182
Q 82.5 182 82 182 82 187.5 82.5 192.95 82.5 193 83 193 83 192.5 83 192 83 187 83 182 Z" stroke="none" fill="#A77203"></path>

<path d="M 83 182
Q 83 181.5 83.05 181 83.75 174.75 82 171 82 176 82 181 82 181.5 82 182 82.5 182 83 182 Z" stroke="none" fill="#CC9F0C"></path>

<path d="M 82 151
Q 81.5 151 81 151 81 155 81.5 158.95 81.5 159 82 159 82 158.5 82 158 82 154.5 82 151 Z" stroke="none" fill="#B77828"></path>

<path d="M 82 151
Q 82 150.5 82.05 150 82.75 145.25 81 143 81 146.5 81 150 81 150.5 81 151 81.5 151 82 151 Z" stroke="none" fill="#D49847"></path>

<path d="M 146 125
Q 145.5 125 145 125 145 126 145 127 145 127.5 145 128 145 131.5 145 135 145 135.5 145 136 146.4 144.1 147.5 152.95 147.5 153 148 153 148 152.5 147.95 152 147.4 140.6 146 125 Z" stroke="none" fill="#3B1D05"></path>

<path d="M 145 128
Q 144.5 128 144 128 144 132 144.5 135.95 144.5 136 145 136 145 135.5 145 135 145 131.5 145 128 Z" stroke="none" fill="#90612B"></path>

<path d="M 80 122
Q 80 132.5 80.5 143
L 81 143
Q 81 142.5 81 142 81 132 81 122 80.5 122 80 122 Z" stroke="none" fill="#B07416"></path>

<path d="M 80 121
Q 80 121.5 80 122 80.5 122 81 122 81 121.5 81 121 81 118 81 115 83 109 85.8 103.9 86 103.5 86 103 86 102.5 86 102 86 101.5 86 101 85.5 101 85.35 101.2 82.5 106 80 111 80 116 80 121 Z" stroke="none" fill="#A7690A"></path>

<path d="M 157.95 79.5
Q 158 79.5 158 79 157.5 79 157 79 151.5 79 146 79 146 79.5 146 80 152 80 157.95 79.5 Z" stroke="none" fill="#DA9B41"></path>

<path d="M 133 79
Q 133 79.5 133 80 139 80 145 80 145.5 80 146 80 146 79.5 146 79 145.5 79 145 79 139 79 133 79 Z" stroke="none" fill="#B47C20"></path>

<path d="M 118 79
Q 118 79.5 118 80 125 80 132 80 132.5 80 133 80 133 79.5 133 79 132.5 79 132 79 125 79 118 79 Z" stroke="none" fill="#A26605"></path>

<path d="M 112 82
Q 112 81.5 111.9 81.5 109.5 81 107 81 107.5 81.5 107.8 82.1 108 82.5 108 83 110.7 83.7 111.4 82.2 111.5 82 112 82 Z" stroke="none" fill="#AE7319"></path>

<path d="M 97 87
Q 97.5 87.5 98.1 87.8 98.5 88 99 88 102.5 86.5 105.2 84.25 105.5 84 106 84
L 106 83.5
Q 100.75 84.3 97 87 Z" stroke="none" fill="#A26706"></path>

<path d="M 89 97
Q 89 97.5 89 98 92.25 95.25 94.75 91.8 95 91.5 95 91 94.5 91 94.2 91.25 91.85 93.35 89 95 89 95.5 89 96 89 96.5 89 97 Z" stroke="none" fill="#B27518"></path>

<path d="M 88.8 98.85
Q 89 98.5 89 98 89 97.5 89 97 88.5 97 88.4 97.2 87.7 98.7 86 99 86 99.5 86 100 86 100.5 86 101 86 101.5 86 102 86 102.5 86 103 87.5 101 88.8 98.85 Z" stroke="none" fill="#B27418"></path>

<path d="M 290 191
Q 289.5 191 289 191 289 196 289.5 200.95 289.5 201 290 201 290 200.5 290 200 290 195.5 290 191 Z" stroke="none" fill="#E3AA37"></path>

<path d="M 290 183
Q 289.5 183 289 183 289 186.5 289 190 289 190.5 289 191 289.5 191 290 191 290 190.5 290 190 290 186.5 290 183 Z" stroke="none" fill="#B6850C"></path>

<path d="M 289 166
Q 289 166.5 289 167 289 172 289 177 289 177.5 289 178 289 180 289 182 289 182.5 289 183 289.5 183 290 183 290 182.5 290 182 290.75 166.25 289 153 289 159.5 289 166 Z" stroke="none" fill="#A46703"></path>

<path d="M 289 167
Q 288.5 167 288 167 288 172.5 288.5 177.95 288.5 178 289 178 289 177.5 289 177 289 172 289 167 Z" stroke="none" fill="#E5A649"></path>

<path d="M 289 153
Q 289 152.5 288.8 152.1 288.5 151.5 288 151 288 154.5 288 158 288 158.5 288 159 288 162.5 288 166 288 166.5 288 167 288.5 167 289 167 289 166.5 289 166 289 159.5 289 153 Z" stroke="none" fill="#BF8028"></path>

<path d="M 288 143
Q 287.5 143 287 143 287 151 287.5 158.95 287.5 159 288 159 288 158.5 288 158 288 154.5 288 151 288 150.5 288 150 288 146.5 288 143 Z" stroke="none" fill="#E7AA37"></path>

<path d="M 288 135
Q 287.5 135 287 135 287 138.5 287 142 287 142.5 287 143 287.5 143 288 143 288 142.5 288 142 288 138.5 288 135 Z" stroke="none" fill="#CC9332"></path>

<path d="M 287 135
Q 287.5 135 288 135 288 134.5 288.05 134 288.75 124.25 287 117 287 125.5 287 134 287 134.5 287 135 Z" stroke="none" fill="#B7771C"></path>

<path d="M 234 174
Q 234 179 234 184 234 184.5 234 185 234.5 185 234.5 184.9 235.75 178.25 234 174 Z" stroke="none" fill="#856001"></path>

<path d="M 240 184
L 240 183.5
Q 233.5 189.45 238 197 238 197.5 237.75 197.65 232.7 201 227 207 226.5 207 226 207 226 207.5 226 208 226 208.5 226 209 226 209.5 225.85 209.95 223.9 216.4 218 219 218 219.5 218 220 217.95 225.45 212 225 211.5 225 211.1 225.2 210.5 225.5 210 226 210 226.5 209.85 226.95 208.3 231.3 204 233 204 233.5 203.8 233.9 201.6 239.1 194 239 194 239.5 193.75 239.85 190.45 244.45 181 243 180.5 243 180.4 243.2 179.7 244.65 178 243 178 243.5 177.8 243.6 168 247.95 164 241 164 240.5 163.8 240.15 161.05 235.45 159 230 159 230.5 158.8 230.9 157.5 233.25 158 224 158 223.5 157.85 223.05 156.7 219.8 157 215 156.5 215 156.45 214.85 153 206 151 187 150.5 187 150.35 187.25 148.9 189.35 150 195
L 150 195.5
Q 146.4 186.4 140 191 139.5 191 139.15 190.8 135.4 188.45 130 191
L 129.5 191
Q 131.55 192.25 129 196 129 195.5 128.8 195.4 116.35 189.6 107 188 107 188.5 106.75 188.65 99.85 193.65 93 193 92.5 193 92.4 193.2 88.35 201.45 87 217 88.1 222.5 87.1 228 87 228.5 87 229 90.15 238.1 88.05 253 88 253.5 88 254 90.7 255.3 90.05 260 90 260.5 90 261 98.6 281.9 124 285.9 124.5 286 125 286 129 286 133 286 133.5 286 134 286 139 286 144 286 144.5 286 145 286 155 286 165 286 165.5 286 166 286 166 285.5 166 285 169.5 285 173 285 173.5 285 174 285 185 285 196 285 196.5 285 197 285 197.5 285 198 285 198 284.5 198 284 201.5 284 205 284 205.5 284 206 284 215.5 284 225 284 225.5 284 226 284 229.5 284 233 284 233.5 284 234 284 234 283.5 234 283 242 283 250 283 250.5 283 251 283 259.7 282.7 265.15 279.25 265.5 279 266 279 266.5 278.5 267.1 278.2 267.5 278 268 278 269.7 277.7 270.4 276.2 270.5 276 271 276 271 275.5 271 275 273.55 274.55 275.2 273.25 275.5 273 276 273 276 272.5 276 272 283 267 286.45 258.15 286.5 258 287 258 287 257.5 287 257 287 256.5 287 256 288.65 256.15 288.1 253.95 288 253.5 288 253 288 252.5 287.8 252.1 284.5 245.65 289 238 289 237.5 288.9 237 286.65 222.6 288 206 288 205.5 287.85 205.45 281.85 203.15 284 198
L 284 197.5
Q 286.7 198.7 287 198 287 197.5 286.75 197.15 283.9806640625 193.200390625 281.5 193 274.7 197.25 272 191 272.5 191 272.55 190.85 274.35 184.35 269 185 268.5 185 268.25 184.75 265.25 181.8 263 191 263 191.5 263.2 191.85 267.05 198.45 261 189 260.5 189 260 189.1 256.1 189.7 260 182 259.5 182 259.25 182.25 252.45 189.05 243 185 243 185.5 242.85 185.95 240.1 193.8 240 184 Z" stroke="none" fill="#F7D13E"></path>

<path d="M 169 118
Q 169 117.5 168.95 117.5 163 117 157 117 157 117.5 157 118 162.5 118 168 118 168.5 118 169 118 Z" stroke="none" fill="#AF7D2E"></path>

<path d="M 171 119
Q 171.5 119 172 119 172 118.5 171.85 118.45 170.5 118 169 118 168.5 118 168 118 162.5 118 157 118 156.5 118 156 118 155 118 154 118 154 118.5 154 119 162.5 119 171 119 Z" stroke="none" fill="#522C01"></path>

<path d="M 184 121.05
Q 184.5 121 185 121 185 120.5 184.9 120.5 181.25 119.75 178 119 179.55 121.45 184 121.05 Z" stroke="none" fill="#885A13"></path>

<path d="M 216 138
Q 216 137.5 215.75 137.2 214.1 134.9 211 134 212.35 136.65 215.1 137.8 215.5 138 216 138 Z" stroke="none" fill="#88631E"></path>

<path d="M 211 134
Q 211 133.5 210.75 133.35 199.25 125.75 185 121 184.5 121 184 121.05 179.55 121.45 178 119 177.5 119 177 119 174.5 119 172 119 171.5 119 171 119 162.5 119 154 119 153.5 119 153 119.1 148.05 120.05 146 124 146 124.5 146 125 147.4 140.6 147.95 152 148 152.5 148 153 153.05 181.45 156.95 211 157 211.5 157 212 158.7 216.8 159 223 159 223.5 159 224 159 226.5 159 229 159 229.5 159 230 161.05 235.45 163.8 240.15 164 240.5 164 241 167.55 243.95 175 243.05 175.5 243 176 243 176 242.5 176 242 178.2 241.75 179.3 240.25 179.5 240 180 240 186.95 242.85 192.15 239.25 192.5 239 193 239 193 238.5 193 238 197.95 236.45 201.25 233.25 201.5 233 202 233 202 232.5 202 232 206.6 230.1 209.35 226.25 209.5 226 210 226 210.5 225.5 211.1 225.2 211.5 225 212 225 212 224.5 212 224 214.5 222 216.75 219.75 217 219.5 217 219 217 218.5 217 218 222 214.5 225.35 209.25 225.5 209 226 209 226 208.5 226 208 226 207.5 226 207 226.5 207 227 207 227 206.5 227 206 227 205.5 227 205 232.85 197.85 233.95 186 234 185.5 234 185 234 184.5 234 184 234 179 234 174 234 173.5 233.9 173 230 150.5 216 138 215.5 138 215.1 137.8 212.35 136.65 211 134
M 203.75 146.25
Q 204 146.5 204 147 208.3 151.7 211.75 157.15 212 157.5 212 158 213.45 160.05 213.9 163 214 163.5 214 164 215.9 165.1 216 168 216 168.5 216 169 216 169.5 216 170 217.65 169.9 217.1 172.05 217 172.5 217 173 218.75 177.75 217.5 184.9 217.5 185 217 185 217 185.5 217 186 217 186.5 216.8 186.9 216.5 187.5 216 188 216 188.5 216 189 216 189.5 215.9 190 214.35 196.85 210 201 210 201.5 209.75 201.8 200.15 214.65 188 225 187.5 225 187.05 225.15 182.1 226.6 176 227 176 226.5 175.95 226 174.3 210.2 172 195
L 171.5 195
Q 171.6 189.4 170 186 170 185.5 170 185 170 184 170 183 169.5 183 169.5 182.95 169.05 177.95 168 174 168 173.5 167.9 173.05 165.1 160.95 164 147 163.5 147 163.5 146.9 162 139 161 131 161.5 131 162 131 174.55 129.95 182.1 133.8 182.5 134 183 134 195.35 138.15 203.75 146.25
M 206.25 140.85
Q 206 140.5 206 140 213 142 217.3 146.75 217.5 147 218 147 220.2 158.3 227.75 164.3 228 164.5 228 165 226 171.85 229.8 178.15 230 178.5 230 179 226.1 187.05 224.1 177 224 176.5 224 176 218.35 169.55 218 157 218 156.5 218 156 213.8 151.45 206.25 140.85
M 170.15 123.55
Q 170 123.5 170 123 186.2 128.35 170.15 123.55
M 182.1 127.5
Q 182 127.5 182 127 189 129.1 182.1 127.5
M 196 135.5
L 196 135
Q 205.85 134.95 196 135.5
M 168 193
Q 168 193.5 168 194 165.1 198.35 164.05 206 164 206.5 164 207 167.95 208.8 165.5 219.9 165.5 220 165 220 163.25 215.25 163.95 208 164 207.5 164 207 162.4 191.9 160.15 183.95 160 183.5 160 183 168.25 181.6 168 193
M 218.2 195.9
Q 218 195.5 218 195 225.25 208.05 218.2 195.9
M 152.2 144.9
Q 152 144.5 152 144 155.25 151.4 152.2 144.9
M 182 232.5
L 182 232
Q 202.2 231.3 182 232.5
M 166 228
Q 173.2 237.7 166.25 228.8 166 228.5 166 228 Z" stroke="none" fill="#190903"></path>

<path d="M 166.25 228.8
Q 173.2 237.7 166 228 166 228.5 166.25 228.8
M 165.5 219.9
Q 167.95 208.8 164 207 164 207.5 163.95 208 163.25 215.25 165 220 165.5 220 165.5 219.9 Z" stroke="none" fill="#01040C"></path>

<path d="M 182 232
L 182 232.5
Q 202.2 231.3 182 232 Z" stroke="none" fill="#050310"></path>

<path d="M 152 144
Q 152 144.5 152.2 144.9 155.25 151.4 152 144 Z" stroke="none" fill="#010A04"></path>

<path d="M 218 195
Q 218 195.5 218.2 195.9 225.25 208.05 218 195 Z" stroke="none" fill="#05050C"></path>

<path d="M 168 194
Q 168 193.5 168 193 168.25 181.6 160 183 160 183.5 160.15 183.95 162.4 191.9 164 207 164 206.5 164.05 206 165.1 198.35 168 194 Z" stroke="none" fill="#02040E"></path>

<path d="M 196 135
L 196 135.5
Q 205.85 134.95 196 135 Z" stroke="none" fill="#0B0614"></path>

<path d="M 182 127
Q 182 127.5 182.1 127.5 189 129.1 182 127 Z" stroke="none" fill="#040412"></path>

<path d="M 170 123
Q 170 123.5 170.15 123.55 186.2 128.35 170 123 Z" stroke="none" fill="#0B0313"></path>

<path d="M 206 140
Q 206 140.5 206.25 140.85 213.8 151.45 218 156 218 156.5 218 157 218.35 169.55 224 176 224 176.5 224.1 177 226.1 187.05 230 179 230 178.5 229.8 178.15 226 171.85 228 165 228 164.5 227.75 164.3 220.2 158.3 218 147 217.5 147 217.3 146.75 213 142 206 140 Z" stroke="none" fill="#070710"></path>

<path d="M 216 189
Q 215.5 189 215.4 189.2 213 194 210 198 210 199 210 200 210 200.5 210 201 214.35 196.85 215.9 190 216 189.5 216 189 Z" stroke="none" fill="#CDAC55"></path>

<path d="M 217 185
Q 217.5 185 217.5 184.9 218.75 177.75 217 173 217 178.5 217 184 217 184.5 217 185 Z" stroke="none" fill="#6F5103"></path>

<path d="M 217.1 172.05
Q 217.65 169.9 216 170 216 178 216.5 185.95 216.5 186 217 186 217 185.5 217 185 217 184.5 217 184 217 178.5 217 173 217 172.5 217.1 172.05 Z" stroke="none" fill="#D4B76C"></path>

<path d="M 215.15 168.8
Q 215.5 169 216 169 216 168.5 216 168 215.9 165.1 214 164 213.3 167.7 215.15 168.8 Z" stroke="none" fill="#D7B761"></path>

<path d="M 172 195
Q 172 194.5 172.05 194 173.2 185.5 170 186 171.6 189.4 171.5 195
L 172 195 Z" stroke="none" fill="#C8AB63"></path>

<path d="M 170 183
Q 170 182.5 170.1 182 171.1 175.9 168 174 169.05 177.95 169.5 182.95 169.5 183 170 183 Z" stroke="none" fill="#C0A35C"></path>

<path d="M 164 134
Q 163.5 134 163 133.95 161.3 133.7 162 131 161.5 131 161 131 162 139 163.5 146.9 163.5 147 164 147 164 146.5 164 146 164 140 164 134 Z" stroke="none" fill="#C39F4D"></path>

<path d="M 163 133.95
Q 163.5 134 164 134 164 133.5 164 133 174.35 133.15 183 134.5
L 183 134
Q 182.5 134 182.1 133.8 174.55 129.95 162 131 161.3 133.7 163 133.95 Z" stroke="none" fill="#D0B067"></path>

<path d="M 204 147
Q 204 147.5 203.75 147.75 203.5 148 203 148 206.85 153.15 211.25 157.75 211.5 158 212 158 212 157.5 211.75 157.15 208.3 151.7 204 147 Z" stroke="none" fill="#CDAE65"></path>

<path d="M 204 147
Q 204 146.5 203.75 146.25 195.35 138.15 183 134
L 183 134.5
Q 174.35 133.15 164 133 164 133.5 164 134 164 140 164 146 164 146.5 164 147 165.1 160.95 167.9 173.05 168 173.5 168 174 171.1 175.9 170.1 182 170 182.5 170 183 170 184 170 185 170 185.5 170 186 173.2 185.5 172.05 194 172 194.5 172 195 174.3 210.2 175.95 226 176 226.5 176 227 182.1 226.6 187.05 225.15 187.5 225 188 225 200.15 214.65 209.75 201.8 210 201.5 210 201 210 200.5 210 200 210 199 210 198 213 194 215.4 189.2 215.5 189 216 189 216 188.5 216 188 216.5 187.5 216.8 186.9 217 186.5 217 186 216.5 186 216.5 185.95 216 178 216 170 216 169.5 216 169 215.5 169 215.15 168.8 213.3 167.7 214 164 214 163.5 213.9 163 213.45 160.05 212 158 211.5 158 211.25 157.75 206.85 153.15 203 148 203.5 148 203.75 147.75 204 147.5 204 147 Z" stroke="none" fill="#F5C340"></path>

<path d="M 218 77
Q 218 77.5 218 78 222 78 225.95 77.5 226 77.5 226 77 225.5 77 225 77 221.5 77 218 77 Z" stroke="none" fill="#E3A344"></path>

<path d="M 217 78
Q 217.5 78 218 78 218 77.5 218 77 217.5 77 217 77 215.5 77 214 77 213.5 77 213 77 211.5 77 210 77 210 77.5 210 78 213.5 78 217 78 Z" stroke="none" fill="#CA8E34"></path>

<path d="M 202 77
Q 202 77.5 202 78 205.5 78 209 78 209.5 78 210 78 210 77.5 210 77 209.5 77 209 77 205.5 77 202 77 Z" stroke="none" fill="#B57E27"></path>

<path d="M 176 77
Q 176 77.5 176 78 178 78 180 78 180.5 78 181 78 185 78 189 78 189.5 78 190 78 195.5 78 201 78 201.5 78 202 78 202 77.5 202 77 201.5 77 201 77 188.5 77 176 77 Z" stroke="none" fill="#A36506"></path>

<path d="M 181 79
Q 181 78.5 181 78 180.5 78 180 78 178 78 176 78 175.5 78 175 78 170.5 78 166 78 166 78.5 166 79 173 79 180 79 180.5 79 181 79 Z" stroke="none" fill="#BF802E"></path>

<path d="M 181 78
Q 181 78.5 181 79 185.5 79 189.95 78.5 190 78.5 190 78 189.5 78 189 78 185 78 181 78 Z" stroke="none" fill="#D29744"></path>

<path d="M 276 92
Q 276 91.5 275.85 91.05 274.45 85.8 271 87 273 89.5 275.25 91.75 275.5 92 276 92 Z" stroke="none" fill="#A96B0D"></path>

<path d="M 270 87
Q 270 86.5 269.9 86.05 268.55 80.5 262 81 265.75 83.75 269.2 86.75 269.5 87 270 87 Z" stroke="none" fill="#B0711A"></path>

<path d="M 261 81
Q 260.5 81 260.1 80.8 247 75 226 77 226 77.5 225.95 77.5 222 78 218 78 217.5 78 217 78 213.5 78 210 78 209.5 78 209 78 205.5 78 202 78 201.5 78 201 78 195.5 78 190 78 190 78.5 189.95 78.5 185.5 79 181 79 180.5 79 180 79 173 79 166 79 165.5 79 165 79 161.5 79 158 79 158 79.5 157.95 79.5 152 80 146 80 145.5 80 145 80 139 80 133 80 132.5 80 132 80 125 80 118 80 117.5 80 117.2 80.25 115.2 81.7 112 82 111.5 82 111.4 82.2 110.7 83.7 108 83 107.5 83 107.1 83.2 106.5 83.5 106 84 105.5 84 105.2 84.25 102.5 86.5 99 88 99 88.5 98.75 88.7 97 90 95 91 95 91.5 94.75 91.8 92.25 95.25 89 98 89 98.5 88.8 98.85 87.5 101 86 103 86 103.5 85.8 103.9 83 109 81 115 81 118 81 121 81 121.5 81 122 81 132 81 142 81 142.5 81 143 82.75 145.25 82.05 150 82 150.5 82 151 82 154.5 82 158 82 158.5 82 159 82 164.5 82 170 82 170.5 82 171 83.75 174.75 83.05 181 83 181.5 83 182 83 187 83 192 83 192.5 83 193 83 193.5 83 194 83 196 83 198 83 198.5 83 199 84.75 201.75 84.05 207 84 207.5 84 208 84 215 84 222 84 222.5 84 223 85.75 228.75 85.05 237 85 237.5 85 238 85 242 85 246 85 246.5 85 247 86.2 249.8 86.9 253 87 253.5 87 254 87.5 254 88 254 88 253.5 88.05 253 90.15 238.1 87 229 87 228.5 87.1 228 88.1 222.5 87 217 88.35 201.45 92.4 193.2 92.5 193 93 193 99.85 193.65 106.75 188.65 107 188.5 107 188 116.35 189.6 128.8 195.4 129 195.5 129 196 131.55 192.25 129.5 191
L 130 191
Q 135.4 188.45 139.15 190.8 139.5 191 140 191 146.4 186.4 150 195.5
L 150 195
Q 148.9 189.35 150.35 187.25 150.5 187 151 187 153 206 156.45 214.85 156.5 215 157 215 157 214.5 157 214 157 213 157 212 157 211.5 156.95 211 153.05 181.45 148 153 147.5 153 147.5 152.95 146.4 144.1 145 136 144.5 136 144.5 135.95 144 132 144 128 144.5 128 145 128 145 127.5 145 127 145 126 145 125 145.5 125 146 125 146 124.5 146 124 148.05 120.05 153 119.1 153.5 119 154 119 154 118.5 154 118 155 118 156 118 156.5 118 157 118 157 117.5 157 117 163 117 168.95 117.5 169 117.5 169 118 170.5 118 171.85 118.45 172 118.5 172 119 174.5 119 177 119 177.5 119 178 119 181.25 119.75 184.9 120.5 185 120.5 185 121 199.25 125.75 210.75 133.35 211 133.5 211 134 214.1 134.9 215.75 137.2 216 137.5 216 138 230 150.5 233.9 173 234 173.5 234 174 235.75 178.25 234.5 184.9 234.5 185 234 185 234 185.5 233.95 186 232.85 197.85 227 205 227 205.5 227 206 227 206.5 227 207 232.7 201 237.75 197.65 238 197.5 238 197 233.5 189.45 240 183.5
L 240 184
Q 240.1 193.8 242.85 185.95 243 185.5 243 185 252.45 189.05 259.25 182.25 259.5 182 260 182 256.1 189.7 260 189.1 260.5 189 261 189 267.05 198.45 263.2 191.85 263 191.5 263 191 265.25 181.8 268.25 184.75 268.5 185 269 185 274.35 184.35 272.55 190.85 272.5 191 272 191 274.7 197.25 281.5 193 283.9806640625 193.200390625 286.75 197.15 287 197.5 287 198 286.7 198.7 284 197.5
L 284 198
Q 281.85 203.15 287.85 205.45 288 205.5 288 206 286.65 222.6 288.9 237 289 237.5 289 238 284.5 245.65 287.8 252.1 288 252.5 288 253 291 251.5 290.5 246
L 291 246
Q 291 245.5 291 245 291 235 291 225 291 224.5 291 224 291 223.5 291 223 290.5 223 290.5 222.95 290 215 290 207 290 206.5 290 206 290 203.5 290 201 289.5 201 289.5 200.95 289 196 289 191 289 190.5 289 190 289 186.5 289 183 289 182.5 289 182 289 180 289 178 288.5 178 288.5 177.95 288 172.5 288 167 288 166.5 288 166 288 162.5 288 159 287.5 159 287.5 158.95 287 151 287 143 287 142.5 287 142 287 138.5 287 135 287 134.5 287 134 287 125.5 287 117 287 116.5 286.9 116 283.95 101.55 276 92 275.5 92 275.25 91.75 273 89.5 271 87 270.5 87 270 87 269.5 87 269.2 86.75 265.75 83.75 262 81 261.5 81 261 81
M 251 90.5
L 251 91
Q 175.3 93.15 112.05 88.5 112 88.5 112 88 189.55 76.95 260 87.9 260.5 88 261 88 259.2 91.25 251 90.5
M 220 79.95
Q 220.5 80 221 80 212.8 81.8 203 81.5
L 203 81
Q 210.4 79.4 220 79.95
M 234 80.5
L 234 80
Q 247.25 80.5 234 80.5
M 282.2 184.85
Q 282 184.5 282 184 288.3 195.2 282.2 184.85
M 86.2 185.65
Q 86 185.5 86 185 95.15 191.2 86.2 185.65 Z" stroke="none" fill="#F9C146"></path>

<path d="M 86 185
Q 86 185.5 86.2 185.65 95.15 191.2 86 185 Z" stroke="none" fill="#F8C537"></path>

<path d="M 282 184
Q 282 184.5 282.2 184.85 288.3 195.2 282 184 Z" stroke="none" fill="#FACA41"></path>

<path d="M 234 80
L 234 80.5
Q 247.25 80.5 234 80
M 221 80
Q 220.5 80 220 79.95 210.4 79.4 203 81
L 203 81.5
Q 212.8 81.8 221 80 Z" stroke="none" fill="#ECB83D"></path>

<path d="M 251 91
L 251 90.5
Q 259.2 91.25 261 88 260.5 88 260 87.9 189.55 76.95 112 88 112 88.5 112.05 88.5 175.3 93.15 251 91 Z" stroke="none" fill="#FFE272"></path>

<path d="M 260.1 80.8
Q 260.5 81 261 81 261 80.5 260.8 80.4 243.85 71.65 214 76 214 76.5 214 77 215.5 77 217 77 217.5 77 218 77 221.5 77 225 77 225.5 77 226 77 247 75 260.1 80.8 Z" stroke="none" fill="#A7690D"></path>

<path d="M 265 71.1
Q 265.5 71 266 71 266 70.5 265.8 70.35 263.5 68.95 260 69 260.75 71.75 265 71.1 Z" stroke="none" fill="#6C634D"></path>

<path d="M 334 255
Q 333.5 255 333.1 255.2 313.3 264.55 298 269 297.5 269 297 269 297 269.5 297.05 270 297.4 276.9 287 278 287 278.5 287 279 293.95 280.05 298.2 283.75 298.5 284 299 284 303 284 306.95 284.5 307 284.5 307 285 307.5 285 307.95 284.8 329.45 275.95 334 255 Z" stroke="none" fill="#010D17"></path>
</g>
</g>
</g>
</g>
</g>
</svg>
