<svg version="1.1" xmlns="http://www.w3.org/2000/svg" xmlns:xlink="http://www.w3.org/1999/xlink" width="30.08511" height="34.47458" viewBox="0,0,30.08511,34.47458"><g transform="translate(-304.95744,-162.76271)"><g data-paper-data="{&quot;isPaintingLayer&quot;:true}" fill="#9966ff" fill-rule="nonzero" stroke="none" stroke-width="0.5" stroke-linecap="butt" stroke-linejoin="miter" stroke-miterlimit="10" stroke-dasharray="" stroke-dashoffset="0" style="mix-blend-mode: normal"><path d="M323.62854,193.86479l-0.91158,1.09389l-0.13924,-0.11603l-0.13276,0.1217l-0.11606,0.31222c-0.07421,-0.0148 -0.14842,-0.02961 -0.22263,-0.04441l-0.25604,0.19203l0.00046,0.0039l-0.00672,0.00079l-0.62402,0.46801c-0.19286,0.14794 -0.42743,0.24422 -0.68301,0.26818c-0.81819,0.33847 -1.77875,0.41329 -2.62754,0.69504c-3.52868,0.70887 -7.00897,0.49566 -10.22977,-1.30381c-1.34264,-0.75014 -2.75942,-1.66732 -2.72145,-3.5216c0.03326,-1.6247 1.56487,-2.49929 2.58998,-3.35402c2.98742,-2.49089 7.32738,-4.59155 11.13661,-3.39918c-0.13602,-0.60048 -0.30726,-1.32639 -0.52729,-2.22824c-0.40825,-4.60593 -2.14571,-7.30797 -3.22614,-11.83311l-0.15323,-0.74793c0,0 -0.21298,-1.04451 0.67758,-1.4539c0.08523,-0.47236 0.22952,-0.96103 0.52598,-1.70038c0.29387,-0.73291 0.57735,-1.4987 1.07779,-2.1095c0.6062,-0.73986 1.33786,-1.41213 2.17967,-1.86625c3.4568,-1.86478 5.28517,1.15855 7.05473,3.58848c0.41194,0.56567 2.59816,4.01122 3.84226,3.49095c0.5839,-0.24418 1.03159,-0.73354 1.54739,-1.10031l1.01438,-1.14433c0,0 0.88965,-0.9885 1.87815,-0.09885c0.62313,0.56081 0.49993,1.16091 0.32372,1.52791c0.07239,0.53952 -0.26449,1.00273 -0.26449,1.00273c-0.64406,0.88527 -1.11593,1.91418 -1.89772,2.68055c-2.01377,1.97404 -5.3474,2.49875 -8.00391,1.74924c-1.23819,-0.34934 -2.06817,-1.06343 -2.97024,-1.77931c0.73798,5.68086 1.87134,11.33787 1.97315,17.06137c0.40986,0.74462 0.58298,1.63934 0.32997,2.81703c-0.02867,0.13346 -0.1022,0.24483 -0.20968,0.33936c-0.05391,0.14258 -0.13163,0.27348 -0.2283,0.38783z"/></g></g></svg>