
<svg viewBox="0 0 112 184" height="184px" width="112px" y="0px" x="0px" preserveAspectRatio="none" xmlns:xlink="http://www.w3.org/1999/xlink" version="1.1" xmlns="http://www.w3.org/2000/svg">
<defs></defs>

<g id="fun_scrollers">
<g transform="matrix( 0.3621063232421875, 0, 0, 0.3621063232421875, -594.2,0.1)" id="svg"></g>

<g transform="matrix( 0.3621063232421875, 0, 0, 0.3621063232421875, -594.2,0.1)" id="Layer_2">
<g>
<g>
<g>
<path d="M 1646.65 92.1
L 1646.05 92.05 1645.65 92.05 1645.2 96.8 1643.25 96.7
Q 1635.394921875 99.6923828125 1630.2 102.2
L 1630.2 111.15
Q 1634.2076171875 108.7529296875 1645.15 104.25
L 1645.25 104.2 1648.55 102.8
Q 1647.35 102.4 1645.75 101.65
L 1645.65 99.5
Q 1645.65 99.4 1646.65 92.1
M 1746.35 98.3
L 1746.6 96.05 1746.85 93.85 1746.5 93.8 1745.9 93.75
Q 1746.3 98.45 1746.1 100.6 1745.95 104.1 1744.7 107.2 1740.2 108.1 1738.25 108.25
L 1738.2 108.75
Q 1739.8515625 109.108984375 1741.45 109.8 1742.115625 110.11171875 1742.75 110.45
L 1745.25 112
Q 1753.4 117.5 1757.95 124.55 1762.3 132.2 1763.8 141.3 1765.15 149.3 1764.35 159.15
L 1764.1 161.65
Q 1763 173.95 1759.9 195.7
L 1755.7 225.45
Q 1755.05 230.05 1754.15 233.85 1753.4 236.75 1752.85 239.5
L 1748.7 267.45
Q 1744.95 293.25 1741.55 324.3 1739.05 347 1735.9 381.25
L 1733.1 410.9
Q 1732.3 419.4 1731.5 423.6 1729.45 427.35 1728.5 428.45 1727.6 429.6 1724.3 432.5
L 1719.05 437.05 1716.95 440.45 1716.8 440.7
Q 1716.4720703125 440.7369140625 1716.1 440.75 1711.2740234375 441.2365234375 1702.55 441.05
L 1637.1 437.4
Q 1633.4138671875 437.2453125 1630.2 437.1
L 1630.2 443.55 1666.5 446.35
Q 1683.2 447.65 1689.8 447.9 1702.95 448.35 1713.3 447.25 1719.7 446.05 1724.4 443.1 1728.5 440.65 1733.5 435.55 1738 429.15 1739.05 424.1 1740.15 419 1742.15 395
L 1743.7 376.35
Q 1746.55 341.85 1749.25 317.4 1752.75 285.5 1757.05 258.65 1760.3 238.45 1764.15 211.05
L 1767.85 185.95
Q 1770.75 166.15 1771 156.1 1771.4 139.6 1767.1 126.7 1764.45 120.3 1761.8 116.35 1758.3 111.15 1753.6 108.25 1749.2 105.65 1746.95 103.45 1746.824609375 102.9859375 1746.7 102.6 1746.4375 101.4244140625 1746.4 100.9 1746.3 100.3 1746.35 98.3 Z" stroke="none" fill="#706C84"></path>

<path d="M 1747.25 46.45
Q 1748 40.2 1747.3 36.1 1746.3 33.05 1744.7 30.7 1743.15 28.55 1740.5 26.3
L 1737.55 24.25
Q 1731.25 19.75 1724.9 17.35 1718.55 15.05 1710.65 14.35
L 1706.9 14.1
Q 1681.8 12.2 1658.8 13.2
L 1655.4 13.35
Q 1647.75 13.65 1643.2 14.25 1636.45 14.95 1631.15 16.45 1630.5220703125 17.5076171875 1630.2 18.35
L 1630.2 40.05
Q 1632.0232421875 41.12578125 1632.65 41.4 1633.5 41.7 1635.5 42.05
L 1658.65 43.95
Q 1657.1 47.4 1656.15 51.4 1655.4 54.35 1654.7 59.05 1653.4 67.4 1652.8 70.35 1651.45 76.65 1649.4 81.3 1647.1220703125 86.311328125 1646.05 92.05
L 1646.65 92.1
Q 1645.65 99.4 1645.65 99.5
L 1645.75 101.65
Q 1647.35 102.4 1648.55 102.8
L 1645.25 104.2
Q 1645.4181640625 104.1494140625 1645.55 104.1 1649.25 103.15 1652.8 102.95
L 1663 103.8
Q 1667.95 104.2 1677.85 104.8 1687 105.35 1696.1 106
L 1733 108.4
Q 1735.65 108.5 1736.45 108.6 1737.3 108.7 1739.7 109.2 1740.3 109.45 1740.95 109.8
L 1741.45 109.8
Q 1739.8515625 109.108984375 1738.2 108.75
L 1738.25 108.25
Q 1740.2 108.1 1744.7 107.2 1745.95 104.1 1746.1 100.6 1746.3 98.45 1745.9 93.75
L 1746.5 93.8
Q 1746.393359375 92.11640625 1746.2 90.5 1744.3 75.1 1746.3 55.05
L 1747.25 46.45
M 1726.95 25.7
Q 1726.9 26.05 1733.05 31.15 1739.25 37.2 1739.65 42.15 1739.75 42.95 1739.8 43.75
L 1668.6 40.75 1667.95 37.85 1635.3 35
Q 1633.1 28.8 1635.5 22.5 1682.05 11.5 1726.95 25.7
M 1739.1 51.35
Q 1739.75 53.05 1739.85 54.65 1739.85 55.5 1739.65 58.1
L 1739.25 64.3
Q 1738.45 78.45 1739.7 91.95 1740.1 97.6 1739.45 101.4
L 1737.4 103.25
Q 1734 103.3 1729.3 103.05
L 1651.85 98.5
Q 1653.2 91.55 1653.6 89.9 1654.05 88.2 1655.4 84.9 1657.8 78.7 1659.4 68.5 1661.45 55.75 1664.1 48.1
L 1667.25 45.4
Q 1669.35 45.3 1670.15 45.3 1671 45.3 1673.6 45.45
L 1731.4 48.75
Q 1735.7 49.35 1739.1 51.35
M 1746.6 96.05
L 1746.35 98.3
Q 1746.3 100.3 1746.4 100.9 1746.4375 101.4244140625 1746.7 102.6
L 1746.6 100.35
Q 1746.6630859375 98.1431640625 1746.6 96.05 Z" stroke="none" fill="#7E1A34"></path>

<path d="M 1739.85 54.65
Q 1739.75 53.05 1739.1 51.35 1735.7 49.35 1731.4 48.75
L 1673.6 45.45
Q 1671 45.3 1670.15 45.3 1669.35 45.3 1667.25 45.4
L 1664.1 48.1
Q 1661.45 55.75 1659.4 68.5 1657.8 78.7 1655.4 84.9 1654.05 88.2 1653.6 89.9 1653.2 91.55 1651.85 98.5
L 1729.3 103.05
Q 1734 103.3 1737.4 103.25
L 1739.45 101.4
Q 1740.1 97.6 1739.7 91.95 1738.45 78.45 1739.25 64.3
L 1739.65 58.1
Q 1739.85 55.5 1739.85 54.65 Z" stroke="none" fill="#E21F2D"></path>

<path d="M 1733.05 31.15
Q 1726.9 26.05 1726.95 25.7 1682.05 11.5 1635.5 22.5 1633.1 28.8 1635.3 35
L 1667.95 37.85 1668.6 40.75 1739.8 43.75
Q 1739.75 42.95 1739.65 42.15 1739.25 37.2 1733.05 31.15 Z" stroke="none" fill="#DF202E"></path>

<path d="M 1642.5 387.2
Q 1634.6291015625 386.456640625 1630.2 386.1
L 1630.2 406.85 1635.5 407.05
Q 1645.8 407.65 1656.05 407.9 1667.85 408.2 1677.3 408.7 1698.4 409.6 1709 409.95
L 1712.45 410.05
Q 1717.25 410.25 1723.4 410.25
L 1724.45 409.35
Q 1725.8 404.85 1726.15 401.75 1726.6 397.75 1725.8 394.05 1722.65 392.35 1720.9 392.05 1719.2 391.8 1711.95 391.75
L 1695.9 391.2
Q 1686.35 391 1671.55 389.55 1663.6 388.8 1655.8 388.25 1649.2 387.8 1642.5 387.2
M 1735.9 246.45
L 1735.45 243.45
Q 1735.2 236.8 1733.45 232.7
L 1731.3 232.1 1722.3 231.75
Q 1713.05 231.3 1706.15 231.45 1694.55 231.7 1678.8 230.8
L 1670.2 230.4
Q 1668.9 230.3 1646.85 228.8 1633.0681640625 227.8357421875 1630.2 227.85
L 1630.2 247.85
Q 1632.8322265625 249.4763671875 1634.45 249.8 1636.35 250.15 1644.45 250.2 1646.4 250.1 1650.2 250.2 1658.55 250.5 1665.25 250.6 1670.35 250.6 1680.8 250.9 1695.4 251.4 1698.35 251.4
L 1706.35 251.55
Q 1710.35 251.55 1714.35 251.8
L 1715.2 253.8
Q 1726.1 255.95 1734.35 254.9
L 1735.9 252.6
Q 1736 250.35 1736.05 249.5 1736.1 248.75 1735.9 246.45 Z" stroke="none" fill="#9DAEEA"></path>

<path d="M 1630.2 149.1
L 1630.2 151.4
Q 1632.615625 151.3169921875 1635.15 151.55
L 1682.4 154.5
Q 1696.2 155.25 1709.95 156.15
L 1712.7 156.35
Q 1719.4 156.8 1727.05 157.65
L 1735.65 158.8
Q 1737.75 159.05 1738.5 159.1 1739.270703125 159.1482421875 1741.85 159.1 1741.9490234375 159.1 1742.05 159.1
L 1742.4 155.35
Q 1741.9 155.25 1741.45 155.2 1740.35 155.05 1739.3 155 1738.15 154.9 1736.95 154.85 1735.7 154.8 1734.5 154.75 1733.2 154.7 1731.95 154.65 1726.6 154.55 1721.3 154.5 1720.5 154.5 1719.65 154.55 1718.7 154.5 1717.75 154.5 1716.7 154.45 1715.65 154.45 1714.5 154.4 1713.35 154.35 1712.05 154.3 1710.8 154.3 1709.4 154.2 1708.05 154.2 1706.6 154.1 1705.15 154.1 1703.55 154 1702 153.9 1700.9 153.85 1699.75 153.85 1699.1 153.8 1698.5 153.75 1697.7 153.65 1697 153.65 1695.3 153.5 1693.6 153.4 1690.7 153 1687.85 152.8 1685.25 152.65 1682.65 152.5 1680 152.3 1677.4 152.2 1671.95 152 1666.5 151.85
L 1631.8 149.9
Q 1631.05 149.6 1630.35 149.15 1630.2734375 149.1373046875 1630.2 149.1
M 1696.1 106
Q 1687 105.35 1677.85 104.8 1667.95 104.2 1663 103.8
L 1652.8 102.95
Q 1649.25 103.15 1645.55 104.1 1645.4181640625 104.1494140625 1645.25 104.2
L 1645.15 104.25
Q 1634.2076171875 108.7529296875 1630.2 111.15
L 1630.2 127.1
Q 1630.2498046875 126.93984375 1630.3 126.75 1630.7416015625 125.37578125 1631.15 124.1
L 1631.2 123.95 1632.25 123 1633.45 123.05
Q 1633.849609375 122.9251953125 1634.25 122.8 1635.1 122.6 1635.95 122.5 1636.75 122.4 1637.65 122.3 1637.8 122.3 1638 122.3 1638.15 122.3 1638.4 122.35 1638.7 122.35 1639.05 122.35 1639.35 122.4 1639.75 122.4 1640.25 122.45 1640.7 122.45 1641.25 122.5 1641.75 122.5 1642.4 122.55 1643 122.6 1643.7 122.6 1644.4 122.65
L 1734.25 128.45
Q 1735.3 128.55 1736.35 128.7 1737.35 128.8 1738.35 128.95 1739.3 129.1 1740.35 129.3 1741.2 129.4 1742.05 129.6 1742.9 129.75 1743.85 130 1744.65 130.2 1745.45 130.45 1746.25 130.7 1747 131 1747.7 131.25 1748.25 131.65 1749.25 132.5 1750.1 133.5
L 1747.8 159.45 1748 159.45 1747.3 165.15 1745.4 165.05 1744.95 169.85
Q 1743.2 170.1 1742.55 170.2 1741.85 170.2 1739.45 170.05 1730.95 169.95 1721.25 171.5
L 1707.3 173.75
Q 1688.6 176.85 1684.1 176.75 1679.55 176.7 1671.25 173.05 1663.3 169.85 1655.75 168.95 1650.55 168.25 1644.85 165.8 1641.05 164.3 1634.65 160.8
L 1630.2 159.35 1630.2 227.85
Q 1633.0681640625 227.8357421875 1646.85 228.8 1668.9 230.3 1670.2 230.4
L 1678.8 230.8
Q 1694.55 231.7 1706.15 231.45 1713.05 231.3 1722.3 231.75
L 1731.3 232.1 1733.45 232.7
Q 1735.2 236.8 1735.45 243.45
L 1735.9 246.45
Q 1736.1 248.75 1736.05 249.5 1736 250.35 1735.9 252.6
L 1734.35 254.9
Q 1726.1 255.95 1715.2 253.8
L 1714.35 251.8
Q 1710.35 251.55 1706.35 251.55
L 1698.35 251.4
Q 1695.4 251.4 1680.8 250.9 1670.35 250.6 1665.25 250.6 1658.55 250.5 1650.2 250.2 1646.4 250.1 1644.45 250.2 1636.35 250.15 1634.45 249.8 1632.8322265625 249.4763671875 1630.2 247.85
L 1630.2 386.1
Q 1634.6291015625 386.456640625 1642.5 387.2 1649.2 387.8 1655.8 388.25 1663.6 388.8 1671.55 389.55 1686.35 391 1695.9 391.2
L 1711.95 391.75
Q 1719.2 391.8 1720.9 392.05 1722.65 392.35 1725.8 394.05 1726.6 397.75 1726.15 401.75 1725.8 404.85 1724.45 409.35
L 1723.4 410.25
Q 1717.25 410.25 1712.45 410.05
L 1709 409.95
Q 1698.4 409.6 1677.3 408.7 1667.85 408.2 1656.05 407.9 1645.8 407.65 1635.5 407.05
L 1630.2 406.85 1630.2 437.1
Q 1633.4138671875 437.2453125 1637.1 437.4
L 1702.55 441.05
Q 1711.2740234375 441.2365234375 1716.1 440.75 1716.5529296875 440.6162109375 1716.95 440.45
L 1719.05 437.05 1724.3 432.5
Q 1727.6 429.6 1728.5 428.45 1729.45 427.35 1731.5 423.6 1732.3 419.4 1733.1 410.9
L 1735.9 381.25
Q 1739.05 347 1741.55 324.3 1744.95 293.25 1748.7 267.45
L 1752.85 239.5
Q 1753.4 236.75 1754.15 233.85 1755.05 230.05 1755.7 225.45
L 1759.9 195.7
Q 1763 173.95 1764.1 161.65
L 1764.35 159.15
Q 1765.15 149.3 1763.8 141.3 1762.3 132.2 1757.95 124.55 1753.4 117.5 1745.25 112
L 1742.75 110.45
Q 1742.115625 110.11171875 1741.45 109.8
L 1740.95 109.8
Q 1740.3 109.45 1739.7 109.2 1737.3 108.7 1736.45 108.6 1735.65 108.5 1733 108.4
L 1696.1 106
M 1698.4 182.6
L 1700.35 180.5
Q 1705.15 176.7 1710.95 175.65 1714.75 174.95 1722.55 175.2
L 1725.85 175.3
Q 1731.05 175.6 1734.65 176.9 1736.65 178.8 1737.85 180.95 1738.9 182.85 1739.6 185.85 1740 190.4 1739.2 196.75
L 1738.95 199.55
Q 1738.5 203.65 1737.8 205.5 1736.95 207.8 1734.55 210.55
L 1733.2 214.35
Q 1728.45 216.25 1721.65 216.6 1718.45 216.75 1709.9 216.45
L 1707.25 216.4
Q 1703.85 216.2 1701.9 215.6 1699.55 214.9 1697.15 213.1 1694.4 209.65 1693.75 208.7 1693.25 207.7 1692.5 205.35 1692.4 202.3 1692.45 201.25 1692.5 200.2 1692.8 196.8
L 1693.15 192.25
Q 1693.8 188.95 1694.9 187 1695.9 185.15 1698.4 182.6 Z" stroke="none" fill="#F5F7F9"></path>

<path d="M 1644.85 165.8
Q 1650.55 168.25 1655.75 168.95 1663.3 169.85 1671.25 173.05 1679.55 176.7 1684.1 176.75 1688.6 176.85 1707.3 173.75
L 1721.25 171.5
Q 1730.95 169.95 1739.45 170.05 1741.85 170.2 1742.55 170.2 1743.2 170.1 1744.95 169.85
L 1745.4 165.05 1747.3 165.15 1748 159.45 1747.8 159.45 1742.05 159.1
Q 1741.9490234375 159.1 1741.85 159.1 1739.270703125 159.1482421875 1738.5 159.1 1737.75 159.05 1735.65 158.8
L 1727.05 157.65
Q 1719.4 156.8 1712.7 156.35
L 1709.95 156.15
Q 1696.2 155.25 1682.4 154.5
L 1635.15 151.55
Q 1632.615625 151.3169921875 1630.2 151.4
L 1630.2 159.35 1634.65 160.8
Q 1641.05 164.3 1644.85 165.8 Z" stroke="none" fill="#992A3F"></path>

<path d="M 1644.4 122.65
Q 1643.7 122.6 1643 122.6 1642.4 122.55 1641.75 122.5 1641.25 122.5 1640.7 122.45 1640.25 122.45 1639.75 122.4 1639.35 122.4 1639.05 122.35 1638.7 122.35 1638.4 122.35 1638.15 122.3 1638 122.3 1637.8 122.3 1637.65 122.3 1636.75 122.4 1635.95 122.5 1635.1 122.6 1634.25 122.8 1633.849609375 122.9251953125 1633.45 123.05
L 1632.25 123 1631.2 123.95 1631.15 124.1
Q 1630.7416015625 125.37578125 1630.3 126.75 1630.2498046875 126.93984375 1630.2 127.1
L 1630.2 149.1
Q 1630.2734375 149.1373046875 1630.35 149.15 1631.05 149.6 1631.8 149.9
L 1666.5 151.85
Q 1671.95 152 1677.4 152.2 1680 152.3 1682.65 152.5 1685.25 152.65 1687.85 152.8 1690.7 153 1693.6 153.4 1695.3 153.5 1697 153.65 1697.7 153.65 1698.5 153.75 1699.1 153.8 1699.75 153.85 1700.9 153.85 1702 153.9 1703.55 154 1705.15 154.1 1706.6 154.1 1708.05 154.2 1709.4 154.2 1710.8 154.3 1712.05 154.3 1713.35 154.35 1714.5 154.4 1715.65 154.45 1716.7 154.45 1717.75 154.5 1718.7 154.5 1719.65 154.55 1720.5 154.5 1721.3 154.5 1726.6 154.55 1731.95 154.65 1733.2 154.7 1734.5 154.75 1735.7 154.8 1736.95 154.85 1738.15 154.9 1739.3 155 1740.35 155.05 1741.45 155.2 1741.9 155.25 1742.4 155.35
L 1742.05 159.1 1747.8 159.45 1750.1 133.5
Q 1749.25 132.5 1748.25 131.65 1747.7 131.25 1747 131 1746.25 130.7 1745.45 130.45 1744.65 130.2 1743.85 130 1742.9 129.75 1742.05 129.6 1741.2 129.4 1740.35 129.3 1739.3 129.1 1738.35 128.95 1737.35 128.8 1736.35 128.7 1735.3 128.55 1734.25 128.45
L 1644.4 122.65 Z" stroke="none" fill="#110F1A"></path>

<path d="M 1700.35 180.5
L 1698.4 182.6
Q 1695.9 185.15 1694.9 187 1693.8 188.95 1693.15 192.25
L 1692.8 196.8
Q 1692.5 200.2 1692.45 201.25 1692.4 202.3 1692.5 205.35 1693.25 207.7 1693.75 208.7 1694.4 209.65 1697.15 213.1 1699.55 214.9 1701.9 215.6 1703.85 216.2 1707.25 216.4
L 1709.9 216.45
Q 1718.45 216.75 1721.65 216.6 1728.45 216.25 1733.2 214.35
L 1734.55 210.55
Q 1736.95 207.8 1737.8 205.5 1738.5 203.65 1738.95 199.55
L 1739.2 196.75
Q 1740 190.4 1739.6 185.85 1738.9 182.85 1737.85 180.95 1736.65 178.8 1734.65 176.9 1731.05 175.6 1725.85 175.3
L 1722.55 175.2
Q 1714.75 174.95 1710.95 175.65 1705.15 176.7 1700.35 180.5
M 1707.75 184.6
Q 1710.5 182.85 1712.85 182.25 1715.2 181.6 1718.5 181.6
L 1722.35 181.85
Q 1725.85 182.05 1729.35 182.4 1730.25 183.45 1730.65 184.05 1731 184.7 1732.3 187.35 1733.85 190.8 1734.05 194 1734.25 196.6 1733.45 200.9
L 1732.4 201.8
Q 1731.15 204.3 1730.55 205.1 1730 205.9 1727.95 208.3 1722.8 210.5 1716.9 210.8 1711.85 211.05 1705.6 209.9 1702.5 208.65 1701.75 208 1700.95 207.35 1699.3 204.8 1697.8 200.2 1698.25 195.1 1700.9 190.45 1702.1 189.1 1703.3 187.9 1707.75 184.6 Z" stroke="none" fill="#5D5A76"></path>

<path d="M 1712.85 182.25
Q 1710.5 182.85 1707.75 184.6 1703.3 187.9 1702.1 189.1 1700.9 190.45 1698.25 195.1 1697.8 200.2 1699.3 204.8 1700.95 207.35 1701.75 208 1702.5 208.65 1705.6 209.9 1711.85 211.05 1716.9 210.8 1722.8 210.5 1727.95 208.3 1730 205.9 1730.55 205.1 1731.15 204.3 1732.4 201.8
L 1733.45 200.9
Q 1734.25 196.6 1734.05 194 1733.85 190.8 1732.3 187.35 1731 184.7 1730.65 184.05 1730.25 183.45 1729.35 182.4 1725.85 182.05 1722.35 181.85
L 1718.5 181.6
Q 1715.2 181.6 1712.85 182.25 Z" stroke="none" fill="#F1F3F7"></path>
</g>
</g>
</g>
</g>

<g transform="matrix( 0.3621063232421875, 0, 0, 0.3621063232421875, -594.2,0.1)" id="Layer_3">
<g>
<g>
<g>
<path d="M 1700.25 441.9
L 1693.65 441.8
Q 1691.65 444.7 1688.55 447.8 1686.55 449.75 1682.65 453.1
L 1650.15 481.35
Q 1649.05 479.5 1648.5 477.25 1648.2 474.5 1647.8 473.2 1647.3 471.55 1645.4 468.65
L 1642.2 463.9
Q 1640.8 461.75 1639.6 461.2 1638.65 460.75 1636.55 460.75
L 1631.5 460.7
Q 1630.7359375 460.7 1630.2 460.8
L 1630.2 480.15
Q 1631.62421875 483.2611328125 1634.7 486.9 1637.95 490.65 1640.65 491.65 1642.4 492.3 1645.75 492.4 1650.1 492.5 1652.25 491.65 1653.7 491.1 1655.25 489.95 1656.2 489.25 1657.95 487.7
L 1673.15 474.05
Q 1680.75 467.2 1686.45 462.35 1694.7 455.3 1694.9 455.1 1697.95 452.35 1699.1 450.45 1701.5 446.35 1700.25 441.9
M 1648.65 255.05
Q 1645.85 254.85 1644.5 254.55 1641.4 253.5 1639.85 253.05 1637.5 252.3 1633.35 251.85 1631.75234375 251.6673828125 1630.2 251.5
L 1630.2 291 1630.75 291
Q 1634.65 291 1636.9 290.85 1640.3 290.65 1642.95 290.05 1645.5 289.45 1648.45 288.25
L 1648.45 288.85
Q 1648.45 290 1648.7 290.5 1648.95 291.1 1649.65 291.6 1650.1 291.9 1650.9 292.5 1651.65 293.1 1652.5 294.4 1653.5 295.95 1653.9 296.4 1654.75 297.25 1654.95 297.6 1655.05 297.8 1655.2 298.25 1655.4 298.6 1655.6 298.8
L 1656.2 299.25 1656.6 299.75
Q 1656.95 300.05 1657.95 300.15 1658.05 300.75 1658.8 301.05 1658.85 301.05 1658.9 301.1 1658.9 301.25 1658.95 301.45 1647.034765625 302.0388671875 1630.2 303
L 1630.2 357
Q 1630.96484375 356.25703125 1631.95 356 1633.9 355.55 1636.95 357.7 1641.55 361 1649.8 368.7 1658.05 376.4 1662.6 379.65 1668 383.55 1677.85 388.45 1683.55 391.2 1687.55 392.7 1692.9 394.75 1697.65 395.6 1703.1 396.6 1708.2 396.05 1713.75 395.45 1718.2 393.05 1719.55 392.3 1720.5 391.8 1718.2 396.55 1715.3 400.85 1709.45 409.5 1702.95 412.7 1697.75 415.3 1690.5 415.35 1685.7 415.35 1677.45 414.05 1672.45 413.25 1668.2 412.4 1667.7 412.05 1666.85 411.65 1664.3 410.45 1661.65 408.2 1658.35 405.55 1654.65 401.65 1652.6 399.45 1648.25 394.45 1643.95 389.45 1642.15 386.8 1639.7 383.25 1636.25 376.3 1633.6 370.95 1632.5 368.15 1630.75 363.5 1630.4 359.55
L 1630.2 359.55 1630.2 411.65
Q 1637.598828125 413.645703125 1646.4 416.35 1674.15 424.85 1676.15 425.4 1691.95 429.9 1703.75 431.65 1718.9 433.9 1731.75 432.45
L 1731.75 426.2
Q 1717.55 426.35 1699 422.4 1708.9 421.1 1715.05 416.05 1718.75 413 1722.5 407.15 1731.45 393.15 1734.45 376.45 1735.55 370.3 1735.9 362.7 1736.15 357.35 1736.1 348.85 1736.05 340.45 1735.7 334
L 1744.3 334.1
Q 1746.1 334.1 1746.9 333.8 1747.45 333.55 1748.4 332.95 1749.15 332.6 1749.5 332.35 1751.25 331.2 1751.05 328.05 1750.9 326.45 1750.85 325.65 1750.75 324.2 1750.95 323.25
L 1744.1 323.1
Q 1744 324.45 1742.8 325.25
L 1741.75 325.75 1740.6 326.55
Q 1739.65 327.2 1737.75 327.15 1736 327.1 1735.2 327.2 1734.25 318.05 1732.4 310.45 1731.55 307.15 1730.55 305.2 1729.2 302.5 1727.05 301.2 1724.65 299.75 1719.15 299.75 1695.8 299.75 1666.95 301.05
L 1666.95 297.5
Q 1666.95 296 1666.45 295.45
L 1666.45 295.2
Q 1666.45 294.75 1666.35 294.55 1666.2 294.3 1665.45 294 1664.8 293.8 1664.8 293.3 1663.15 293.25 1662.25 291.5 1661.7 290.45 1661.6 290.3 1660.85 289.65 1660.5 289.3 1660.35 289.15 1659.55 287.8 1658.9 286.55 1657.65 285.55 1656.15 284.45 1656 284.3 1656.9 283.7 1657.55 283.2 1659.25 281.7 1661.55 278.4
L 1664 274.85
Q 1665.25 273.15 1665.65 272.1 1666.35 270.35 1666.25 266.9
L 1666.15 257.7
Q 1657.9 255.85 1648.65 255.05
M 1689.5 332.4
L 1678.1 332.25
Q 1670.9 332.15 1667 331.45 1660.9 330.35 1657 327.3 1655.25 325.95 1653.45 323.8 1652.4 322.5 1650.45 319.75 1648.65 317.15 1648.3 315.8 1647.95 314.35 1648.2 311.65 1648.3 310.3 1648.35 309.35 1659.2 308.7 1666.6 308.35 1691.85 307.1 1712.1 306.7 1714.6 306.65 1715.95 306.8 1718.05 307.05 1719.55 307.8 1722.25 309.15 1723.9 312.55 1725.1 315 1725.95 319.1 1726.5 321.8 1727 324.5 1725.1 324.55 1723.65 325.1 1722.6 325.5 1719.7 327.3 1713.75 330.85 1705.15 331.9 1699.65 332.6 1689.5 332.4
M 1704.5 269.05
Q 1704.3 269.25 1704.3 269.7 1704.2 273.55 1704.4 275.5 1704.6 277.2 1705 279.05
L 1706.1 279.5
Q 1705.95 280.2 1706.65 280.55 1707.15 280.8 1707.9 280.8
L 1722.25 280.95
Q 1722.5 276.75 1722.25 272.55 1721.35 272.2 1719.35 271.05 1717.5 270 1716.4 269.6 1714.4 268.9 1710.05 268.9
L 1705.1 268.9
Q 1704.65 268.9 1704.5 269.05
M 1742.2 206
Q 1743.65 205.9 1744.1 205.4 1744.4 205 1744.4 204
L 1744.35 198.9
Q 1737.95 197.9 1728.5 200.95 1723.7 202.6 1716.35 205.6 1705.95 209.8 1700.85 212.1 1692.35 215.9 1685.95 219.75 1678.1 224.4 1674.35 229.05 1672.85 230.8 1672.4 232.5 1672.05 233.65 1672.15 235.6 1672.2 238.15 1672.15 238.8 1673.1 238.55 1675.6 238.85 1677.75 239.15 1678.85 238.6 1679.6 238.2 1680.75 236.6 1685.15 230.8 1694.05 225.65 1698.5 223.05 1704.4 220.4 1707.55 218.95 1715.05 215.8 1729.7 209.7 1736.55 207.35 1740.1 206.1 1742.2 206 Z" stroke="none" fill="#000000"></path>

<path d="M 1678.1 332.25
L 1689.5 332.4
Q 1699.65 332.6 1705.15 331.9 1713.75 330.85 1719.7 327.3 1722.6 325.5 1723.65 325.1 1725.1 324.55 1727 324.5 1726.5 321.8 1725.95 319.1 1725.1 315 1723.9 312.55 1722.25 309.15 1719.55 307.8 1718.05 307.05 1715.95 306.8 1714.6 306.65 1712.1 306.7 1691.85 307.1 1666.6 308.35 1659.2 308.7 1648.35 309.35 1648.3 310.3 1648.2 311.65 1647.95 314.35 1648.3 315.8 1648.65 317.15 1650.45 319.75 1652.4 322.5 1653.45 323.8 1655.25 325.95 1657 327.3 1660.9 330.35 1667 331.45 1670.9 332.15 1678.1 332.25
M 1636.95 357.7
Q 1633.9 355.55 1631.95 356 1630.96484375 356.25703125 1630.2 357
L 1630.2 359.55 1630.4 359.55
Q 1630.75 363.5 1632.5 368.15 1633.6 370.95 1636.25 376.3 1639.7 383.25 1642.15 386.8 1643.95 389.45 1648.25 394.45 1652.6 399.45 1654.65 401.65 1658.35 405.55 1661.65 408.2 1664.3 410.45 1666.85 411.65 1667.7 412.05 1668.2 412.4 1672.45 413.25 1677.45 414.05 1685.7 415.35 1690.5 415.35 1697.75 415.3 1702.95 412.7 1709.45 409.5 1715.3 400.85 1718.2 396.55 1720.5 391.8 1719.55 392.3 1718.2 393.05 1713.75 395.45 1708.2 396.05 1703.1 396.6 1697.65 395.6 1692.9 394.75 1687.55 392.7 1683.55 391.2 1677.85 388.45 1668 383.55 1662.6 379.65 1658.05 376.4 1649.8 368.7 1641.55 361 1636.95 357.7 Z" stroke="none" fill="#FFFFFF"></path>
</g>
</g>
</g>
</g>

<g transform="matrix( 0.3621063232421875, 0, 0, 0.3621063232421875, -594.2,0.1)" id="Layer_6">
<g>
<g>
<g>
<path d="M 1936.95 117.6
Q 1934.9578125 121.3912109375 1933.75 125.8 1932.1 131.85 1931.75 140
L 1930 188.95
Q 1929.7 200.25 1928.85 222.7
L 1928.2 241
Q 1927.6 257.6 1927.45 260.45 1927 271.45 1926.35 279.8 1925.5 289.6 1925.3 302.4 1924.8 326.35 1923.9 344.65 1922.45 374.35 1921.9 392.7
L 1921.3 412.1
Q 1921.2751953125 412.9763671875 1921.25 413.8 1921.1544921875 421.4029296875 1922.1 425.95 1923.2494140625 429.3982421875 1925.3 432.4 1927.3736328125 435.4736328125 1930.35 438.1 1933.355078125 439.77421875 1936.95 440.75
L 1936.95 433.05
Q 1935.9900390625 432.5890625 1935.3 432.05 1933.75 430.9 1931.75 428.2 1929.6 423.75 1928.7 420.35 1927.75 416.55 1927.85 412
L 1929.15 373.7
Q 1929.55 365.55 1929.6 361.5
L 1932.55 288.45
Q 1934.75 231.5 1935.9 209.7 1936.5376953125 197.953125 1936.95 188.4
L 1936.95 117.6 Z" stroke="none" fill="#706C84"></path>

<path d="M 1935.9 209.7
Q 1934.75 231.5 1932.55 288.45
L 1929.6 361.5
Q 1929.55 365.55 1929.15 373.7
L 1927.85 412
Q 1927.75 416.55 1928.7 420.35 1929.6 423.75 1931.75 428.2 1933.75 430.9 1935.3 432.05 1935.9900390625 432.5890625 1936.95 433.05
L 1936.95 188.4
Q 1936.5376953125 197.953125 1935.9 209.7 Z" stroke="none" fill="#F5F7F9"></path>

<path d="M 1921.25 413.8
L 1920.6 413.8
Q 1920.7 417 1919.25 422.45
L 1916.55 432.95
Q 1915.65 436.45 1915.05 438.2 1914.4 439.9 1912.9 443.2 1911 447.7 1910 452.55
L 1902.95 452.85 1902.8 459.9
Q 1902.8 462 1903 463.1 1903.3 464.8 1904.25 465.8 1906 467.7 1909.65 467.4 1910.65 467.35 1912.6 467.15 1914.3 467 1915.5 467.2 1915.3 463.65 1915.9 461.8 1916.05 461.2 1916.5 460.15 1916.95 459.1 1917.1 458.55
L 1917.55 456.15
Q 1917.85 454.6 1918.65 452.65 1919.65 450.45 1920.1 449.3 1921.85 445.3 1923.35 440 1924.1029296875 437.4068359375 1925.3 432.4 1923.2494140625 429.3982421875 1922.1 425.95 1921.1544921875 421.4029296875 1921.25 413.8 Z" stroke="none" fill="#000000"></path>
</g>
</g>
</g>
</g>

<g transform="matrix( 0.3621063232421875, 0, 0, 0.3621063232421875, -594.2,0.1)" id="MergedLayer_1">
<g>
<g>
<g>
<path d="M 1936.95 285.9
L 1935.85 285.9
Q 1936.1521484375 292.276953125 1936.95 298.35
L 1936.95 285.9 Z" stroke="none" fill="#000000"></path>
</g>
</g>
</g>
</g>
</g>
</svg>
