
<svg viewBox="0 0 144 181" height="181px" width="144px" y="0px" x="0px" preserveAspectRatio="none" xmlns:xlink="http://www.w3.org/1999/xlink" version="1.1" xmlns="http://www.w3.org/2000/svg">
<defs></defs>

<g id="Layer_2"></g>

<g id="Layer_7">
<g transform="matrix( 0.32763671875, 0, 0, 0.3274383544921875, -174.7,-35.1)" id="Layer_1">
<g>
<g>
<g>
<path d="M 656.35 386.65
Q 656.1451171875 387.2361328125 655.95 387.8 655.8 388 655.65 388.2 655.45 388.4 655.3 388.6 655.15 388.8 655 389 654.6 390.95 654.6 392.95 654.55 396.4 655.35 399.7 656.25 403.3 657.65 406.7 664.9728515625 420.219140625 677.9 427.8 676.410546875 429.768359375 675.9 432.4 674.3 440.75 671.35 448.8 665.7431640625 463.881640625 662.15 479.2 661.4994140625 478.983203125 660.8 478.85 659.95 478.65 659.05 478.65 658.1 478.85 656.9 479.2 654.45 479.95 652.45 481.6 646.75 482.5 641.75 485.4 627 494.1 618.45 509.05 605.75 531.3 614.05 555.7 616.59375 563.1642578125 621 569.15 627.21796875 577.5197265625 637.1 583 642.3634765625 585.9361328125 647.85 588 647.610546875 588.0421875 647.35 588.1 647.1 588.2 646.85 588.25 639.05 595.85 635.7 606.15 632.7033203125 615.39921875 634.6 624.2 635.974609375 630.6712890625 640 636.9 646.6166015625 647.187109375 657.65 651.95 658.0546875 652.1380859375 658.45 652.3 690.4 665.4 717.65 643.25 728.28125 634.566796875 736.6 624.2 748.37734375 609.5548828125 755.55 591.55 755.6 591.3 755.65 591.05 755.7 590.8 755.7 590.55 757.35 588.25 758.6 585.7 761.4 580.15 764.45 574.7 764.6462890625 573.742578125 765 572.85 773.130859375 592.23046875 783.6 610.35 787.864453125 617.728125 793.25 624.2 799.796484375 632.0701171875 808 638.6 829.35 655.6 856.15 651.05 867.9 649.05 877.2 641.9 885.15 635.85 888.85 627
L 888.85 626.95
Q 889.4392578125 625.5763671875 889.9 624.2 893.0220703125 615.4369140625 892.6 607 892.389453125 603.1291015625 891.4 599.3 889.6951171875 592.423828125 885.5 585.8 885.35 585.05 884.95 584.5 884.0015625 583.1583984375 882.8 582.15 893.0677734375 577.70390625 900.4 569.15 903.9162109375 565.1064453125 906.75 560.15 906.8 559.95 906.85 559.75 906.85 559.55 906.9 559.35 906.95 559.15 907 558.95 907.3955078125 558.20625 907.75 557.45 909.6662109375 553.4271484375 910.55 549.05 911.55 544.2 911.8 539.2 912.3 529.95 908.85 521.75 906.9 515.4 903.85 509.5 895.43515625 493.028515625 879.35 484.9 883.9166015625 467.9046875 878.15 450.2 877.9037109375 449.47578125 877.65 448.75 871.75 431.85 862.55 416.2 856.119921875 405.3033203125 847.2 397.2 847.448828125 395.1005859375 847.55 393 847.7078125 389.2498046875 846.8 385.55 846.4369140625 381.6009765625 844.05 377.85 839.15 370.05 831.3 365.05 826.05 361.65 820.15 359.7 812.1 356.85 803.5 355.7 791.3 354.1 779 354.2 742.7 354.35 706.75 359.3 690.85 361.5 676 367.4 666.6 371.15 660.25 378.8 657.3802734375 382.307421875 656.35 386.65
M 663.95 385.35
Q 664.5205078125 384.7794921875 665.05 384.2 664.76875 383.6619140625 664.5 383.1 666.9314453125 379.239453125 671.65 376.6 680.8 371.45 691.05 369 702.95 366.2 715.1 364.65 737.45 361.8 759.9 360.45 784 359.05 807.75 362.75 819.4 364.55 829.15 370.75 832.8 373.1 835.65 376.45 835.7 376.65 835.8 376.85 836.05 377.3 836.35 377.7 836.65 378 836.85 378.3 836.95 378.4 837 378.5 837.2 378.85 837.5 379.1 837.65 379.25 837.75 379.35 837.95 379.8 838.3 380.15 838.65 380.55 838.85 381 839 381.3 839.2 381.6 839.25 381.7 839.3 381.8 839.45 382.1 839.7 382.4 839.75 382.5 839.8 382.6 839.9 383.1 840.05 383.6 840.15 384.05 840.35 384.5 840.45 384.8 840.5 385.1 840.5 385.2 840.55 385.25 840.65 385.6 840.85 385.9 840.9 386 840.9 386.1 840.95 386.45 840.9 386.75 840.9 387.05 840.9 387.35 840.9 387.45 840.95 387.55 840.95 387.75 840.95 387.95 841 388.05 841 388.15 841 388.4615234375 841.1 388.7 841.13359375 388.7669921875 841.15 388.8 841.2 388.9 841.25 389 841.00625 391.04765625 841.9 392 841.9517578125 392.2423828125 842 392.5 841.6 394.25 841.4 396.05 841 399.55 839.75 402.75 839.35 404.15 838.55 405.35 835.25 410.1 832.3 414.95 820.3 426.35 804.1 431.2 795.8 433.7 787.3 435.2 760.45 439.95 733.3 437.55 721.941796875 436.539453125 711.1 433.75 695.1353515625 429.6943359375 680.3 421.8 664.9044921875 413.591796875 661.65 398.4 661.9650390625 396.06953125 661.9 393.6 661.819140625 390.9779296875 662.3 388.65 662.841796875 387.409765625 663.15 386.1 663.55 385.7 663.95 385.35
M 844.5 407.2
Q 845.551953125 405.4982421875 846.15 403.65 850.3341796875 408.8080078125 853.9 414.4 863.95 430.15 871 447.4 871.1609375 448.8216796875 871.45 450.2 871.7560546875 451.3912109375 872.15 452.55 877.27109375 468.178125 873.75 483.8 873.588671875 483.9533203125 873.4 484.1 873.05 484.45 872.7 484.85 872.65 485.25 872.55 485.65 872.45 486.2 872.6 486.85 872.682421875 487.2076171875 872.8 487.5 872.7638671875 487.7349609375 872.7 487.95 870.8 494.2 866 498.75 849.7 514.1 828.25 505.3 827.05 504.8 826.05 504.1 824.494921875 503.0328125 823.05 502.65 822.6072265625 502.525390625 822.15 502.45 822.1369140625 495.9345703125 820.1 489.55 819.8 489.35 819.55 489.15 819.2 488.95 818.85 488.8 818.35 488.6 817.85 488.5 817.25 488.6 816.7 488.8 816.35 488.95 816 489.15 815.8 489.35 815.65 489.55 815.45 489.75 815.35 489.95 815.2 490.15 815.1 490.35 815.05 494.65 815.35 499.05 816.05 508.1 812.6 516.3 810.8 520.6 807.3 523.9 801.9 528 794.9 527.05 791.559765625 526.580859375 788.45 525.7 788.2267578125 523.571484375 788.05 521.45 787.45 515.2 787.1 508.9 787.05 507.9 787.25 506.9 787.6806640625 504.823046875 786.9 503.55 786.21328125 502.387890625 784.55 501.85 784.399609375 501.8388671875 784.25 501.8 783.7 501.85 783.15 502.05 782.1142578125 502.419921875 781.7 503.3 781.1916015625 503.91328125 780.85 504.75 780.15 506.45 779.4 508.1 778.4 510.35 777.6 512.65 776.2291015625 516.8873046875 777.55 520.9 773.337890625 518.3220703125 769.7 514.7 769.4837890625 511.70390625 769.3 508.7 769.290625 507.6158203125 769.25 506.5 769.15 502.7 769.5 499.05 769.7 497.05 770.15 495.1 770.18984375 494.927734375 770.2 494.75 770.4189453125 494.3595703125 770.5 493.9 771.022265625 490.8138671875 768 490.2 767.62421875 490.03203125 767.15 489.9 766.5 489.9 765.9 490.3 764.3146484375 491.33046875 763.9 493.15 763.2126953125 494.2169921875 762.75 495.5 761.95 497.75 761.5 500.1 761.194921875 501.6408203125 761.1 503.15 755.1263671875 491.9248046875 756.6 478.7 757.75 468.65 763.4 460.35 767.3998046875 454.4814453125 772.5 450.2 779.663671875 444.18125 789 441.3 789.7525390625 441.1501953125 790.5 441 794.098046875 440.289453125 797.6 439.35 817.0666015625 436.6900390625 830.5 450.2 831.2162109375 450.903125 831.9 451.65 832.65 451.75 833.35 451.75 834 451.7 834.65 451.45 835 451.3 835.35 451.1 835.45 450.9 835.6 450.7 835.75 450.5 835.85 450.35 835.9037109375 450.2783203125 835.95 450.2 836.0359375 450.0603515625 836.1 449.9 836.2 449.75 836.25 449.55 834.45 444.2 829.25 440.7 821.935546875 435.8068359375 813.8 433.95 817.4453125 432.446875 821 430.7 836.9 422.85 844.5 407.2
M 875.85 494.75
Q 876.817578125 492.593359375 877.6 490.4 884.41328125 494.495703125 889.75 500.4 899.7 511.45 904.25 525.6 905.75 534.3 905.2 543.4 904.721875 550.8595703125 901.25 557.45 901.113671875 557.7509765625 900.95 558.05 899.85 560 898.45 561.75 895.0515625 565.8880859375 891.3 569.15 873.7177734375 584.413671875 848.3 580.5 846.3 580.2 844.5 579.45 836.6 576.2 828.7 576.65 828.5 576.85 828.3 577.05 828.15 577.25 828.05 577.4 827.9 577.6 827.75 577.8 827.7 578.2 827.65 578.6 827.65 579 827.65 579.4 827.7 579.8 827.75 580.2 828.05 580.6 828.35 580.9 828.8 581.4 829.35 581.75 847.7 589.1 867.3 586.4 872.305078125 585.7201171875 876.8 584.35 876.8826171875 584.8302734375 877 585.3 877.5 585.95 878.15 586.5 879 587.3 879.9 588.05 880.15 588.95 880.75 589.6 881.35 590.25 882.05 590.85 884.4892578125 594.6966796875 885.4 599.05 884.918359375 599.10234375 884.4 599.15 881.799609375 599.3912109375 879.3 600.05 876.10703125 600 872.9 600 869.15 600.75 870.4 604.25 870.5556640625 604.6861328125 870.8 605 870.776171875 605.0453125 870.75 605.1 870.8130859375 605.093359375 870.85 605.05 871.41875 605.66796875 872.35 605.7 879.1744140625 605.916015625 885.95 605.55 886.1931640625 605.61015625 886.4 605.65 887.008984375 611.9193359375 886.3 618.3 885.3 620.2 884.65 622.25 884.388671875 623.1439453125 884.05 624 880.874609375 622.161328125 877.55 620.5 876.0556640625 618.6302734375 874.6 616.75 872.9 614.55 870.3 614 867.65 614.25 867.4 616.85 867.3 617.4 867.65 617.85 869.25 620.25 871.25 622.35 874.708984375 625.9697265625 877.6 630 878.3056640625 631.44453125 878.9 632.9 872.6484375 639.7234375 863.7 642.9 862.4703125 643.3330078125 861.25 643.7 860.4361328125 639.529296875 859.5 636.85 859.43125 636.678515625 859.35 636.5 858.7763671875 633.6712890625 857.9 630.9 857.75 630.5 857.7 630.05 857.5 626.5 854.15 625.7 853.55 625.7 852.95 625.95 851.8 626.45 851.55 627.65 850.95 630.3 852.25 632.85 852.61640625 634.04375 852.9 635.25 852.7958984375 637.0419921875 852.5 639 852.14140625 641.575390625 851.4 645.8 834.267578125 647.926953125 818.5 638.4 808.4705078125 632.333984375 800.7 624.2 792.408984375 615.50625 786.7 604.45 777.683984375 586.885546875 769.5 569.15 769.0119140625 568.0876953125 768.5 567 769.10234375 565.899609375 769.6 564.75 769.6 564.5 769.55 564.25 769.5123046875 563.872265625 769.4 563.5 788.8423828125 563.3189453125 807.15 557.45 819.34375 553.5353515625 831.05 547.1 831.2 546.85 831.4 546.6 831.65 546.35 831.85 546.1 832.55 545.85 833.15 545.5 833.95 545.1 834.65 544.6 834.85 544.35 834.95 544.1 835.1 543.85 835.15 543.6 836.15 543.1 837.15 542.65 837.3 542.4 837.5 542.15 837.7 541.9 837.95 541.65 838.45 541.4 838.9 541.1 839.55 540.65 840.1 540.15 840.35 539.65 840.55 539.15 840.75 538.65 840.95 538.2 840.95 537.7 840.8 537.2 840.7 536.7 840.45 536.2 839.85 535.7 839.2 535.4 838.55 535.05 837.8 534.9
L 837.8 534.95
Q 837.4 535.05 837 535.15 836.55 535.2 836.15 535.4 826 544.25 813.45 549.2 796.87109375 555.77890625 779.55 557.45 767.762890625 558.5888671875 755.6 557.45 755.114453125 557.40234375 754.6 557.35 729.755078125 554.7578125 708.6 543.15 703.2310546875 540.221875 698.1 536.7 697.65 536.8 697.25 536.9 697 536.95 696.8 537.1 696.5 537.2 696.25 537.4 696 537.65 695.85 537.9 695.55 538.35 695.35 538.9 695.2 539.35 695.1 539.85 695.2 540.1 695.3 540.35 695.35 540.6 695.45 540.85 695.55 541.1 695.6 541.35 700.75 545.75 706.7 548.8 707.64765625 549.2888671875 708.6 549.75 717.9134765625 554.3736328125 727.75 557.45 740.3705078125 561.4009765625 753.85 562.8 758.753515625 563.30234375 763.6 563.45 763.25 563.8 762.95 564.25 762.85 564.4 762.8 564.6 762.6740234375 565.1984375 762.65 565.75 761.629296875 567.45234375 760.6 569.15 757.216796875 574.858203125 754.2 580.8 747.55 593.95 740.9 607.05 736.1396484375 616.4873046875 729.7 624.2 716.92890625 639.5759765625 697.55 648.1 694.1111328125 649.613671875 690.6 650.45 691.1658203125 646.6478515625 691 642.7 690.8859375 640.4390625 690.5 638.25 691.0568359375 636.58671875 691.65 634.95 693.05 630.95 688.9 630 687.95 630 687.1 630.65 686.1 631.4 685.85 632.6 683.55 638.55 682.8 644.9 682.72421875 645.5361328125 682.65 646.15 681.766796875 648.8890625 680.95 651.65 675.909765625 651.6744140625 670.7 650.4 664.7298828125 648.9423828125 659.9 646.55 661.9439453125 641.6478515625 663.75 636.7 664.8927734375 634.9814453125 666.15 633.3 667.05 632.5 667.5 631.45 668.64140625 628.8212890625 666.95 627.7 666.9841796875 627.647265625 667 627.6 666.9453125 627.627734375 666.9 627.65 666.151171875 627.19140625 664.9 627 662.95 627.2 661.8 629.05 660.8654296875 630.5185546875 659.85 631.9 655.825 634.7935546875 652.35 638.35 651.359375 639.340625 650.75 640.3 644.04140625 633.8900390625 641.55 624.2 641.4568359375 623.8376953125 641.35 623.45 643.606640625 621.6974609375 646.5 619.35 650.3873046875 617.2322265625 654.55 615.5 656.05 614.85 656.55 613.4 657.75 609.75 653.8 609.25 650.957421875 610.3283203125 648.2 611.65 646.3658203125 611.6474609375 644.85 612 642.75 612.55 640.65 614.25 640.416015625 614.43203125 640.15 614.65 640.118359375 613.8837890625 640.1 613.1 640.15 612.85 640.25 612.6 640.4 612.1 640.6 611.6 640.65 611.35 640.75 611.1 641.75 609.7 642.2 608.1 642.7 606.4 643.05 604.65 644.05 603.3 644.7 601.7 645.95 598.5 648.05 595.7 649.25 594.95 650.15 593.85 651.1 592.65 651.5 591.25 651.5 591 651.45 590.75 651.4 590.25 651.25 589.8 651.15 589.5 651 589.25 650.84453125 589.1205078125 650.65 589 664.2453125 593.51015625 679.2 592.85 698.55 592.05 709.85 577.6 709.85 577.1 709.8 576.6 709.75 576.35 709.65 576.1 709.55 575.85 709.35 575.6 709.2 575.35 709 575.15 708.6 574.85 708.2 574.7 707.65 574.45 707.05 574.3 706.4 574.45 705.75 574.6 703.65 576.3 701.6 578.1 699.7 579.8 697.5 580.8 682.15 587.9 664.8 586.55 647.75 585.2 634.9 574.5 631.8078125 571.9197265625 629.25 569.15 613.2486328125 551.9 617.6 527.3 618.25 523.6 619.7 520.15 630.9 492.95 659.85 484.75 660.45 484.85 661.05 484.85 661.4291015625 484.85 661.8 484.7 661.8533203125 484.7583984375 661.9 484.8 663.35 486.15 665.15 485.35 665.6 485.05 665.7 484.6 668.95 475.55 672.2 466.4 678.35 449.05 682.9 431.45 683.20234375 431.063671875 683.35 430.65 685.19140625 431.4734375 687.1 432.2 698.3916015625 436.491015625 709.95 439.3 737.8642578125 446.04453125 767.35 444.1 769.45625 443.9560546875 771.55 443.75 767.1875 446.653125 763.65 450.2 757.1271484375 456.7939453125 753.5 465.7 748.2 478.75 751.2 492.3 758.15 524 790.25 532.1 800.05 534.6 808.3 529.6 818.95 523.1 821.3 511 821.4279296875 510.3484375 821.5 509.7 822.0466796875 509.9212890625 822.55 510.1 835.2693359375 515.2271484375 849.1 513.7 859 512.65 866.8 506.4 872.75 501.7 875.85 494.75
M 687 387.8
Q 685.7 387.3 684.4 387.5 680.15 388.2 682.15 391.85 682.9 393.1 684.3 393.65 693.55 397.1 703 399.85 713.75 402.9 724.85 405.1 736.9 407.5 749.25 407.65 760.35 407.75 771.55 407.2 782.35 406.6 793 404.8 801.4 403.35 809.15 400.05 817.45 396.55 825.2 391.95 827.2 390.75 828.55 388.9 831.3 385.05 826.65 383.8 823.1 385.7 819.45 388.1 811.4 393.45 802.15 396.2 787.65 400.5 772.35 401.15 768.9 401.3 765.45 401.5 744.45 402.9 724.15 398.4 721.55 397.8 718.9 397.35 713.5 396.45 708.25 395 697.5 392 687 387.8 Z" stroke="none" fill="#000000"></path>

<path d="M 821.5 509.7
Q 821.4279296875 510.3484375 821.3 511 818.95 523.1 808.3 529.6 800.05 534.6 790.25 532.1 758.15 524 751.2 492.3 748.2 478.75 753.5 465.7 757.1271484375 456.7939453125 763.65 450.2 767.1875 446.653125 771.55 443.75 769.45625 443.9560546875 767.35 444.1 737.8642578125 446.04453125 709.95 439.3 708.030078125 448.7109375 707.15 454.4 704.8 469.85 705.35 482.25 705.8576171875 493.0904296875 708.6 502.7 709.6392578125 506.336328125 711 509.8 716.4 523.7 726.25 532.75 738.85 544.25 757.6 547.05 775.3 549.7 792.75 543.85 809.4 538.25 816.6 527.6 821.1 520.85 822.5 510.7 822.536328125 510.4205078125 822.55 510.1 822.0466796875 509.9212890625 821.5 509.7 Z" stroke="none" fill="#FAF6E9"></path>

<path d="M 877.6 490.4
Q 876.817578125 492.593359375 875.85 494.75 872.75 501.7 866.8 506.4 859 512.65 849.1 513.7 835.2693359375 515.2271484375 822.55 510.1 822.536328125 510.4205078125 822.5 510.7 821.1 520.85 816.6 527.6 809.4 538.25 792.75 543.85 775.3 549.7 757.6 547.05 738.85 544.25 726.25 532.75 716.4 523.7 711 509.8 709.6392578125 506.336328125 708.6 502.7 705.8576171875 493.0904296875 705.35 482.25 704.8 469.85 707.15 454.4 708.030078125 448.7109375 709.95 439.3 698.3916015625 436.491015625 687.1 432.2 685.19140625 431.4734375 683.35 430.65 683.20234375 431.063671875 682.9 431.45 678.35 449.05 672.2 466.4 668.95 475.55 665.7 484.6 665.6 485.05 665.15 485.35 663.35 486.15 661.9 484.8 661.8533203125 484.7583984375 661.8 484.7 661.4291015625 484.85 661.05 484.85 660.45 484.85 659.85 484.75 630.9 492.95 619.7 520.15 618.25 523.6 617.6 527.3 613.2486328125 551.9 629.25 569.15 631.8078125 571.9197265625 634.9 574.5 647.75 585.2 664.8 586.55 682.15 587.9 697.5 580.8 699.7 579.8 701.6 578.1 703.65 576.3 705.75 574.6 706.4 574.45 707.05 574.3 707.65 574.45 708.2 574.7 708.6 574.85 709 575.15 709.2 575.35 709.35 575.6 709.55 575.85 709.65 576.1 709.75 576.35 709.8 576.6 709.85 577.1 709.85 577.6 698.55 592.05 679.2 592.85 664.2453125 593.51015625 650.65 589 650.84453125 589.1205078125 651 589.25 651.15 589.5 651.25 589.8 651.4 590.25 651.45 590.75 651.5 591 651.5 591.25 651.1 592.65 650.15 593.85 649.25 594.95 648.05 595.7 645.95 598.5 644.7 601.7 644.05 603.3 643.05 604.65 642.7 606.4 642.2 608.1 641.75 609.7 640.75 611.1 640.65 611.35 640.6 611.6 640.4 612.1 640.25 612.6 640.15 612.85 640.1 613.1 640.118359375 613.8837890625 640.15 614.65 640.416015625 614.43203125 640.65 614.25 642.75 612.55 644.85 612 646.3658203125 611.6474609375 648.2 611.65 650.957421875 610.3283203125 653.8 609.25 657.75 609.75 656.55 613.4 656.05 614.85 654.55 615.5 650.3873046875 617.2322265625 646.5 619.35 643.606640625 621.6974609375 641.35 623.45 641.4568359375 623.8376953125 641.55 624.2 644.04140625 633.8900390625 650.75 640.3 651.359375 639.340625 652.35 638.35 655.825 634.7935546875 659.85 631.9 660.8654296875 630.5185546875 661.8 629.05 662.95 627.2 664.9 627 666.151171875 627.19140625 666.9 627.65 666.9453125 627.627734375 667 627.6 666.9841796875 627.647265625 666.95 627.7 668.64140625 628.8212890625 667.5 631.45 667.05 632.5 666.15 633.3 664.8927734375 634.9814453125 663.75 636.7 661.9439453125 641.6478515625 659.9 646.55 664.7298828125 648.9423828125 670.7 650.4 675.909765625 651.6744140625 680.95 651.65 681.766796875 648.8890625 682.65 646.15 682.72421875 645.5361328125 682.8 644.9 683.55 638.55 685.85 632.6 686.1 631.4 687.1 630.65 687.95 630 688.9 630 693.05 630.95 691.65 634.95 691.0568359375 636.58671875 690.5 638.25 690.8859375 640.4390625 691 642.7 691.1658203125 646.6478515625 690.6 650.45 694.1111328125 649.613671875 697.55 648.1 716.92890625 639.5759765625 729.7 624.2 736.1396484375 616.4873046875 740.9 607.05 747.55 593.95 754.2 580.8 757.216796875 574.858203125 760.6 569.15 761.629296875 567.45234375 762.65 565.75 762.6740234375 565.1984375 762.8 564.6 762.85 564.4 762.95 564.25 763.25 563.8 763.6 563.45 758.753515625 563.30234375 753.85 562.8 740.3705078125 561.4009765625 727.75 557.45 717.9134765625 554.3736328125 708.6 549.75 707.64765625 549.2888671875 706.7 548.8 700.75 545.75 695.6 541.35 695.55 541.1 695.45 540.85 695.35 540.6 695.3 540.35 695.2 540.1 695.1 539.85 695.2 539.35 695.35 538.9 695.55 538.35 695.85 537.9 696 537.65 696.25 537.4 696.5 537.2 696.8 537.1 697 536.95 697.25 536.9 697.65 536.8 698.1 536.7 703.2310546875 540.221875 708.6 543.15 729.755078125 554.7578125 754.6 557.35 755.114453125 557.40234375 755.6 557.45 767.762890625 558.5888671875 779.55 557.45 796.87109375 555.77890625 813.45 549.2 826 544.25 836.15 535.4 836.55 535.2 837 535.15 837.4 535.05 837.8 534.95
L 837.8 534.9
Q 838.55 535.05 839.2 535.4 839.85 535.7 840.45 536.2 840.7 536.7 840.8 537.2 840.95 537.7 840.95 538.2 840.75 538.65 840.55 539.15 840.35 539.65 840.1 540.15 839.55 540.65 838.9 541.1 838.45 541.4 837.95 541.65 837.7 541.9 837.5 542.15 837.3 542.4 837.15 542.65 836.15 543.1 835.15 543.6 835.1 543.85 834.95 544.1 834.85 544.35 834.65 544.6 833.95 545.1 833.15 545.5 832.55 545.85 831.85 546.1 831.65 546.35 831.4 546.6 831.2 546.85 831.05 547.1 819.34375 553.5353515625 807.15 557.45 788.8423828125 563.3189453125 769.4 563.5 769.5123046875 563.872265625 769.55 564.25 769.6 564.5 769.6 564.75 769.10234375 565.899609375 768.5 567 769.0119140625 568.0876953125 769.5 569.15 777.683984375 586.885546875 786.7 604.45 792.408984375 615.50625 800.7 624.2 808.4705078125 632.333984375 818.5 638.4 834.267578125 647.926953125 851.4 645.8 852.14140625 641.575390625 852.5 639 852.7958984375 637.0419921875 852.9 635.25 852.61640625 634.04375 852.25 632.85 850.95 630.3 851.55 627.65 851.8 626.45 852.95 625.95 853.55 625.7 854.15 625.7 857.5 626.5 857.7 630.05 857.75 630.5 857.9 630.9 858.7763671875 633.6712890625 859.35 636.5 859.43125 636.678515625 859.5 636.85 860.4361328125 639.529296875 861.25 643.7 862.4703125 643.3330078125 863.7 642.9 872.6484375 639.7234375 878.9 632.9 878.3056640625 631.44453125 877.6 630 874.708984375 625.9697265625 871.25 622.35 869.25 620.25 867.65 617.85 867.3 617.4 867.4 616.85 867.65 614.25 870.3 614 872.9 614.55 874.6 616.75 876.0556640625 618.6302734375 877.55 620.5 880.874609375 622.161328125 884.05 624 884.388671875 623.1439453125 884.65 622.25 885.3 620.2 886.3 618.3 887.008984375 611.9193359375 886.4 605.65 886.1931640625 605.61015625 885.95 605.55 879.1744140625 605.916015625 872.35 605.7 871.41875 605.66796875 870.85 605.05 870.8130859375 605.093359375 870.75 605.1 870.776171875 605.0453125 870.8 605 870.5556640625 604.6861328125 870.4 604.25 869.15 600.75 872.9 600 876.10703125 600 879.3 600.05 881.799609375 599.3912109375 884.4 599.15 884.918359375 599.10234375 885.4 599.05 884.4892578125 594.6966796875 882.05 590.85 881.35 590.25 880.75 589.6 880.15 588.95 879.9 588.05 879 587.3 878.15 586.5 877.5 585.95 877 585.3 876.8826171875 584.8302734375 876.8 584.35 872.305078125 585.7201171875 867.3 586.4 847.7 589.1 829.35 581.75 828.8 581.4 828.35 580.9 828.05 580.6 827.75 580.2 827.7 579.8 827.65 579.4 827.65 579 827.65 578.6 827.7 578.2 827.75 577.8 827.9 577.6 828.05 577.4 828.15 577.25 828.3 577.05 828.5 576.85 828.7 576.65 836.6 576.2 844.5 579.45 846.3 580.2 848.3 580.5 873.7177734375 584.413671875 891.3 569.15 895.0515625 565.8880859375 898.45 561.75 899.85 560 900.95 558.05 901.113671875 557.7509765625 901.25 557.45 904.721875 550.8595703125 905.2 543.4 905.75 534.3 904.25 525.6 899.7 511.45 889.75 500.4 884.41328125 494.495703125 877.6 490.4
M 846.15 403.65
Q 845.551953125 405.4982421875 844.5 407.2 836.9 422.85 821 430.7 817.4453125 432.446875 813.8 433.95 821.935546875 435.8068359375 829.25 440.7 834.45 444.2 836.25 449.55 836.2 449.75 836.1 449.9 836.0359375 450.0603515625 835.95 450.2 835.9037109375 450.2783203125 835.85 450.35 835.75 450.5 835.6 450.7 835.45 450.9 835.35 451.1 835 451.3 834.65 451.45 834 451.7 833.35 451.75 832.65 451.75 831.9 451.65 831.2162109375 450.903125 830.5 450.2 817.0666015625 436.6900390625 797.6 439.35 794.098046875 440.289453125 790.5 441 789.7525390625 441.1501953125 789 441.3 779.663671875 444.18125 772.5 450.2 767.3998046875 454.4814453125 763.4 460.35 757.75 468.65 756.6 478.7 755.1263671875 491.9248046875 761.1 503.15 761.194921875 501.6408203125 761.5 500.1 761.95 497.75 762.75 495.5 763.2126953125 494.2169921875 763.9 493.15 764.3146484375 491.33046875 765.9 490.3 766.5 489.9 767.15 489.9 767.62421875 490.03203125 768 490.2 771.022265625 490.8138671875 770.5 493.9 770.4189453125 494.3595703125 770.2 494.75 770.18984375 494.927734375 770.15 495.1 769.7 497.05 769.5 499.05 769.15 502.7 769.25 506.5 769.290625 507.6158203125 769.3 508.7 769.4837890625 511.70390625 769.7 514.7 773.337890625 518.3220703125 777.55 520.9 776.2291015625 516.8873046875 777.6 512.65 778.4 510.35 779.4 508.1 780.15 506.45 780.85 504.75 781.1916015625 503.91328125 781.7 503.3 782.1142578125 502.419921875 783.15 502.05 783.7 501.85 784.25 501.8 784.399609375 501.8388671875 784.55 501.85 786.21328125 502.387890625 786.9 503.55 787.6806640625 504.823046875 787.25 506.9 787.05 507.9 787.1 508.9 787.45 515.2 788.05 521.45 788.2267578125 523.571484375 788.45 525.7 791.559765625 526.580859375 794.9 527.05 801.9 528 807.3 523.9 810.8 520.6 812.6 516.3 816.05 508.1 815.35 499.05 815.05 494.65 815.1 490.35 815.2 490.15 815.35 489.95 815.45 489.75 815.65 489.55 815.8 489.35 816 489.15 816.35 488.95 816.7 488.8 817.25 488.6 817.85 488.5 818.35 488.6 818.85 488.8 819.2 488.95 819.55 489.15 819.8 489.35 820.1 489.55 822.1369140625 495.9345703125 822.15 502.45 822.6072265625 502.525390625 823.05 502.65 824.494921875 503.0328125 826.05 504.1 827.05 504.8 828.25 505.3 849.7 514.1 866 498.75 870.8 494.2 872.7 487.95 872.7638671875 487.7349609375 872.8 487.5 872.682421875 487.2076171875 872.6 486.85 872.45 486.2 872.55 485.65 872.65 485.25 872.7 484.85 873.05 484.45 873.4 484.1 873.588671875 483.9533203125 873.75 483.8 877.27109375 468.178125 872.15 452.55 871.7560546875 451.3912109375 871.45 450.2 871.1609375 448.8216796875 871 447.4 863.95 430.15 853.9 414.4 850.3341796875 408.8080078125 846.15 403.65 Z" stroke="none" fill="#FFD62F"></path>

<path d="M 665.05 384.2
Q 664.5205078125 384.7794921875 663.95 385.35 663.55 385.7 663.15 386.1 662.841796875 387.409765625 662.3 388.65 661.819140625 390.9779296875 661.9 393.6 661.9650390625 396.06953125 661.65 398.4 664.9044921875 413.591796875 680.3 421.8 695.1353515625 429.6943359375 711.1 433.75 721.941796875 436.539453125 733.3 437.55 760.45 439.95 787.3 435.2 795.8 433.7 804.1 431.2 820.3 426.35 832.3 414.95 835.25 410.1 838.55 405.35 839.35 404.15 839.75 402.75 841 399.55 841.4 396.05 841.6 394.25 842 392.5 841.9517578125 392.2423828125 841.9 392 841.00625 391.04765625 841.25 389 841.2 388.9 841.15 388.8 841.13359375 388.7669921875 841.1 388.7 841 388.4615234375 841 388.15 841 388.05 840.95 387.95 840.95 387.75 840.95 387.55 840.9 387.45 840.9 387.35 840.9 387.05 840.9 386.75 840.95 386.45 840.9 386.1 840.9 386 840.85 385.9 840.65 385.6 840.55 385.25 840.5 385.2 840.5 385.1 840.45 384.8 840.35 384.5 840.15 384.05 840.05 383.6 839.9 383.1 839.8 382.6 839.75 382.5 839.7 382.4 839.45 382.1 839.3 381.8 839.25 381.7 839.2 381.6 839 381.3 838.85 381 838.65 380.55 838.3 380.15 837.95 379.8 837.75 379.35 837.65 379.25 837.5 379.1 837.2 378.85 837 378.5 836.95 378.4 836.85 378.3 836.65 378 836.35 377.7 836.05 377.3 835.8 376.85 835.7 376.65 835.65 376.45 832.8 373.1 829.15 370.75 819.4 364.55 807.75 362.75 784 359.05 759.9 360.45 737.45 361.8 715.1 364.65 702.95 366.2 691.05 369 680.8 371.45 671.65 376.6 666.9314453125 379.239453125 664.5 383.1 664.76875 383.6619140625 665.05 384.2
M 684.4 387.5
Q 685.7 387.3 687 387.8 697.5 392 708.25 395 713.5 396.45 718.9 397.35 721.55 397.8 724.15 398.4 744.45 402.9 765.45 401.5 768.9 401.3 772.35 401.15 787.65 400.5 802.15 396.2 811.4 393.45 819.45 388.1 823.1 385.7 826.65 383.8 831.3 385.05 828.55 388.9 827.2 390.75 825.2 391.95 817.45 396.55 809.15 400.05 801.4 403.35 793 404.8 782.35 406.6 771.55 407.2 760.35 407.75 749.25 407.65 736.9 407.5 724.85 405.1 713.75 402.9 703 399.85 693.55 397.1 684.3 393.65 682.9 393.1 682.15 391.85 680.15 388.2 684.4 387.5 Z" stroke="none" fill="#94693A"></path>
</g>
</g>
</g>
</g>

<g transform="matrix( 0.32763671875, 0, 0, 0.3274383544921875, 42.4,108.05)" id="Layer_2">
<g>
<g>
<g>
<path d="M -85.65 -60.75
Q -94.8 -63.85 -104.45 -63.65 -113.5 -63.1 -120.65 -57.65 -127.7 -52.25 -129.15 -43.7 -130.15 -37.7 -126.55 -32.9 -122.85 -27.95 -117 -25.7 -115.0521484375 -24.9603515625 -113.05 -24.35 -113.63515625 -23.7890625 -114.2 -23.2 -122.8 -14.2 -122.25 -1.7 -122.15 1.45 -120.75 4.3 -116.65 12.9 -107.65 17.1 -103.05 19.2 -101.2 23.6 -100.0056640625 26.4509765625 -97.65 25.95 -91.4705078125 35.54453125 -84.15 44.35 -84.05390625 44.4751953125 -83.95 44.6 -75.95 54.15 -64.1 57.75 -49.25 62.25 -33.85 59.15 -26.35 57.65 -18.95 55.75 -8.168359375 52.87734375 -1.45 45.5 -0.55625 45.8673828125 0.35 45.15 0.8341796875 44.77109375 1.25 44.35 2.9236328125 42.77109375 3.95 40.6 6.25 35.65 8.35 30.65 12.8 19.75 16.05 8.5 16.478515625 7.02734375 16.95 5.55 17.3587890625 4.3041015625 17.8 3.05 19.8 -2.5 20.6 -8.35 20.85 -10.05 19.4 -11 18.1578125 -11.848828125 16.95 -12.75 15.240625 -13.981640625 13.6 -15.3 9.45 -18.65 4.6 -20.2 3.5 -20.05 2.3 -19.95 0.3310546875 -19.77109375 -0.95 -18.8 -2.9591796875 -18.315234375 -5 -17.55 -16.821875 -13.0396484375 -28.8 -8.9 -28.8322265625 -9.05078125 -28.9 -9.2 -29.2 -9.85 -29.6 -10.45 -29.75 -10.7 -29.9 -10.95 -29.95 -11.05 -30 -11.2 -30.0263671875 -11.5431640625 -30.15 -11.85 -29.550390625 -13.004296875 -29.25 -14.4 -29 -14.75 -28.8 -15.2 -27.0513671875 -19.1697265625 -27.7 -23.4 -27.6984375 -24.998828125 -28.35 -26.5 -28.478515625 -26.95234375 -28.65 -27.45 -28.7892578125 -28.183203125 -29.15 -28.95 -29.171875 -29 -29.2 -29.05 -29.2708984375 -29.2505859375 -29.35 -29.45 -25.3 -32.4 -22.35 -36.45 -20.9732421875 -38.384765625 -20.2 -40.6 -18.89140625 -42.867578125 -18.3 -45.55 -18.05 -46.6 -18.45 -47.6 -18.5548828125 -47.883984375 -18.7 -48.15 -18.70546875 -48.7517578125 -18.8 -49.35 -19.4 -53.3 -21.85 -56.5 -28 -64.45 -38.3 -64.4 -46.4 -64.55 -53.4 -60.6 -59.8 -57 -62.9 -50.35 -63.1 -50.05 -63.35 -49.7 -63.45 -49.6 -63.55 -49.4 -63.75 -48.95 -63.85 -48.45 -63.85 -48.3 -63.9 -48.15 -64.076953125 -47.8427734375 -64.25 -47.55 -67.0048828125 -50.1294921875 -70 -52.4 -74.816796875 -56.0478515625 -80.15 -58.3 -82.7306640625 -59.7869140625 -85.65 -60.75
M -118.45 -51.4
Q -109.05 -59.7 -96.3 -57.1 -89.4 -55.7 -82.9 -53.15 -81.7 -52.25 -80.45 -51.5 -79.2888671875 -50.8033203125 -78.3 -50.95 -74.609765625 -48.8390625 -71.3 -45.8 -68.58203125 -43.31484375 -66.65 -40.35 -66.8244140625 -38.8865234375 -66.85 -37.4 -66.9 -33.9 -64.7 -31.35 -64 -30.55 -62.95 -30.75 -58.8 -31.6 -60.45 -35.5 -60.45 -35.95 -60.45 -36.45 -60.45 -36.7 -60.5 -36.9 -60.5 -37.3 -60.6 -37.7 -60.65 -37.95 -60.65 -38.2 -60.4 -39.1 -60.3 -40.05 -60.15 -41.6 -59.55 -43.05 -59.25 -43.85 -59 -44.65 -58.75 -44.95 -58.6 -45.3 -58.55 -45.4 -58.55 -45.45 -58.3 -45.95 -58.15 -46.4 -58.05 -46.55 -58.05 -46.75 -56.7 -49.55 -54.6 -51.85 -54.05 -52.5 -53.4 -52.95 -43.55 -60.75 -31.35 -57.05 -27.309765625 -54.9138671875 -25.5 -50.9 -25.50625 -50.8400390625 -25.5 -50.8 -25.3671875 -49.9451171875 -25.3 -49.15 -25.072265625 -48.8 -24.85 -48.45 -24.8392578125 -48.2072265625 -24.85 -47.95 -24.9490234375 -45.540234375 -25.65 -43.3 -25.7953125 -43.11875 -25.95 -42.95 -26.0150390625 -42.8759765625 -26.1 -42.8 -26.96484375 -40.1841796875 -28.85 -37.9 -30.7529296875 -36.11484375 -32.95 -34.65 -34.25 -33.7 -35.2 -32.45 -37 -29.95 -35.1 -27.55 -34.4 -25.85 -34.05 -24.05 -33.7890625 -22.89453125 -33.8 -21.7 -33.8015625 -21.6677734375 -33.85 -21.65 -33.969921875 -19.7125 -34.25 -17.8 -35.17578125 -15.70390625 -36.3 -13.7 -38.015625 -10.6396484375 -35.4 -8.8 -34.17890625 -6.518359375 -33.2 -4.1 -33.15 -4 -33.15 -3.85 -33.1 -3.2 -32.75 -2.6 -32.5 -2.2 -32.15 -1.9 -32 -1.75 -31.9 -1.65 -31.7 -1 -31.5 -0.4 -31.3 0.3 -30.85 0.85 -30.65 1.1 -30.5 1.35 -30.55 2.55 -30.1 3.65 -29.35 5.6 -27.85 6.95 -25.9 8.7 -24.45 6.6 -22.4 3.55 -24.65 0.45 -24.6 -0.2 -24.9 -0.8 -25.25 -1.45 -25.65 -2.05 -25.8 -2.3 -25.95 -2.55 -26.0328125 -2.9638671875 -26.2 -3.35 -24.9458984375 -3.512890625 -23.7 -3.95 -11.171875 -8.1681640625 0.85 -13.1 2.4970703125 -12.91328125 4.45 -13.95 5.95 -13.05 7.3 -12.05 10.75 -9.4 14.45 -7.2 12.5 -0.45 10.55 6.3 9.1 11.4 7.35 16.4 7.1 16.8 6.85 17.2 6.55 17.65 6.45 18.2 6.4 18.55 6.4 18.95 4.2 24.2 2.1 29.5 0.2119140625 34.1982421875 -2.3 38.6 -5.5603515625 41.9361328125 -9.5 44.35 -11.7970703125 45.7830078125 -14.35 46.9 -28.1 52.9 -43 54.6 -48.95 55.25 -54.9 54 -67.0138671875 51.4806640625 -75.8 44.35 -83.4228515625 38.177734375 -88.55 28.55 -92.65 20.8 -98.75 15.6
L -98.75 15.65
Q -99.0951171875 15.6931640625 -99.4 15.75 -102.3525390625 12.5650390625 -106.8 10.6 -115.7 6.65 -116.2 -2.45 -116.45 -7.6 -114.1 -12.1 -106.2 -27.2 -89 -30.95 -86.25 -31.55 -83.55 -31.15 -69.4 -29.15 -63.5 -16.45 -61.8 -10.05 -63.45 -3.7 -65.9826171875 6.2697265625 -74.95 9.15 -77.0923828125 9.8658203125 -79.65 10.15 -87.25 8 -93.75 3.45 -97.9 0.5 -99.7 4.65 -100.1 5.55 -99.4 6.2 -94.35 11 -87.85 14 -79.6 17.8 -71.55 14.2 -69.4623046875 13.265234375 -67.7 12.1 -57.9318359375 5.9876953125 -56.75 -6 -55.8 -15.5 -60.9 -23.3 -62.6615234375 -26.0044921875 -64.75 -28.2 -72.6640625 -36.58828125 -85.15 -37.5 -90.05 -37.1 -94.8 -35.5 -99.9470703125 -33.761328125 -104.45 -31.05
L -104.45 -31
Q -104.512890625 -30.9849609375 -104.6 -31 -104.8865234375 -30.7728515625 -105.2 -30.6 -105.5037109375 -30.645703125 -105.8 -30.75 -109.9048828125 -29.989453125 -113.65 -30.95 -117.6927734375 -32.2158203125 -120.8 -35.25 -121.3642578125 -36.0037109375 -122 -36.7 -123.2703125 -38.95390625 -123.35 -41.5 -123.3220703125 -41.753125 -123.3 -42 -122.8 -47.6 -118.45 -51.4 Z" stroke="none" fill="#000000"></path>

<path d="M -43.1 -0.85
Q -40.7 -6.05 -40.85 -11.6 -41 -17.5 -44.1 -21.85 -47.9 -27.15 -54.85 -28.6 -60.06796875 -29.7044921875 -64.75 -28.2 -62.6615234375 -26.0044921875 -60.9 -23.3 -55.8 -15.5 -56.75 -6 -57.9318359375 5.9876953125 -67.7 12.1 -67.163671875 12.22734375 -66.65 12.3 -61.75 13 -57.1 11.5 -52.65 10.05 -48.9 6.7 -45.35 3.45 -43.1 -0.85 Z" stroke="none" fill="#FAF6E9"></path>

<path d="M -96.3 -57.1
Q -109.05 -59.7 -118.45 -51.4 -122.8 -47.6 -123.3 -42 -123.3220703125 -41.753125 -123.35 -41.5 -123.2703125 -38.95390625 -122 -36.7 -121.3642578125 -36.0037109375 -120.8 -35.25 -117.6927734375 -32.2158203125 -113.65 -30.95 -109.9048828125 -29.989453125 -105.8 -30.75 -105.5037109375 -30.645703125 -105.2 -30.6 -104.8865234375 -30.7728515625 -104.6 -31 -104.512890625 -30.9849609375 -104.45 -31
L -104.45 -31.05
Q -99.9470703125 -33.761328125 -94.8 -35.5 -90.05 -37.1 -85.15 -37.5 -72.6640625 -36.58828125 -64.75 -28.2 -60.06796875 -29.7044921875 -54.85 -28.6 -47.9 -27.15 -44.1 -21.85 -41 -17.5 -40.85 -11.6 -40.7 -6.05 -43.1 -0.85 -45.35 3.45 -48.9 6.7 -52.65 10.05 -57.1 11.5 -61.75 13 -66.65 12.3 -67.163671875 12.22734375 -67.7 12.1 -69.4623046875 13.265234375 -71.55 14.2 -79.6 17.8 -87.85 14 -94.35 11 -99.4 6.2 -100.1 5.55 -99.7 4.65 -97.9 0.5 -93.75 3.45 -87.25 8 -79.65 10.15 -77.0923828125 9.8658203125 -74.95 9.15 -65.9826171875 6.2697265625 -63.45 -3.7 -61.8 -10.05 -63.5 -16.45 -69.4 -29.15 -83.55 -31.15 -86.25 -31.55 -89 -30.95 -106.2 -27.2 -114.1 -12.1 -116.45 -7.6 -116.2 -2.45 -115.7 6.65 -106.8 10.6 -102.3525390625 12.5650390625 -99.4 15.75 -99.0951171875 15.6931640625 -98.75 15.65
L -98.75 15.6
Q -92.65 20.8 -88.55 28.55 -83.4228515625 38.177734375 -75.8 44.35 -67.0138671875 51.4806640625 -54.9 54 -48.95 55.25 -43 54.6 -28.1 52.9 -14.35 46.9 -11.7970703125 45.7830078125 -9.5 44.35 -5.5603515625 41.9361328125 -2.3 38.6 0.2119140625 34.1982421875 2.1 29.5 4.2 24.2 6.4 18.95 6.4 18.55 6.45 18.2 6.55 17.65 6.85 17.2 7.1 16.8 7.35 16.4 9.1 11.4 10.55 6.3 12.5 -0.45 14.45 -7.2 10.75 -9.4 7.3 -12.05 5.95 -13.05 4.45 -13.95 2.4970703125 -12.91328125 0.85 -13.1 -11.171875 -8.1681640625 -23.7 -3.95 -24.9458984375 -3.512890625 -26.2 -3.35 -26.0328125 -2.9638671875 -25.95 -2.55 -25.8 -2.3 -25.65 -2.05 -25.25 -1.45 -24.9 -0.8 -24.6 -0.2 -24.65 0.45 -22.4 3.55 -24.45 6.6 -25.9 8.7 -27.85 6.95 -29.35 5.6 -30.1 3.65 -30.55 2.55 -30.5 1.35 -30.65 1.1 -30.85 0.85 -31.3 0.3 -31.5 -0.4 -31.7 -1 -31.9 -1.65 -32 -1.75 -32.15 -1.9 -32.5 -2.2 -32.75 -2.6 -33.1 -3.2 -33.15 -3.85 -33.15 -4 -33.2 -4.1 -34.17890625 -6.518359375 -35.4 -8.8 -38.015625 -10.6396484375 -36.3 -13.7 -35.17578125 -15.70390625 -34.25 -17.8 -33.969921875 -19.7125 -33.85 -21.65 -33.8015625 -21.6677734375 -33.8 -21.7 -33.7890625 -22.89453125 -34.05 -24.05 -34.4 -25.85 -35.1 -27.55 -37 -29.95 -35.2 -32.45 -34.25 -33.7 -32.95 -34.65 -30.7529296875 -36.11484375 -28.85 -37.9 -26.96484375 -40.1841796875 -26.1 -42.8 -26.0150390625 -42.8759765625 -25.95 -42.95 -25.7953125 -43.11875 -25.65 -43.3 -24.9490234375 -45.540234375 -24.85 -47.95 -24.8392578125 -48.2072265625 -24.85 -48.45 -25.072265625 -48.8 -25.3 -49.15 -25.3671875 -49.9451171875 -25.5 -50.8 -25.50625 -50.8400390625 -25.5 -50.9 -27.309765625 -54.9138671875 -31.35 -57.05 -43.55 -60.75 -53.4 -52.95 -54.05 -52.5 -54.6 -51.85 -56.7 -49.55 -58.05 -46.75 -58.05 -46.55 -58.15 -46.4 -58.3 -45.95 -58.55 -45.45 -58.55 -45.4 -58.6 -45.3 -58.75 -44.95 -59 -44.65 -59.25 -43.85 -59.55 -43.05 -60.15 -41.6 -60.3 -40.05 -60.4 -39.1 -60.65 -38.2 -60.65 -37.95 -60.6 -37.7 -60.5 -37.3 -60.5 -36.9 -60.45 -36.7 -60.45 -36.45 -60.45 -35.95 -60.45 -35.5 -58.8 -31.6 -62.95 -30.75 -64 -30.55 -64.7 -31.35 -66.9 -33.9 -66.85 -37.4 -66.8244140625 -38.8865234375 -66.65 -40.35 -68.58203125 -43.31484375 -71.3 -45.8 -74.609765625 -48.8390625 -78.3 -50.95 -79.2888671875 -50.8033203125 -80.45 -51.5 -81.7 -52.25 -82.9 -53.15 -89.4 -55.7 -96.3 -57.1 Z" stroke="none" fill="#FFD62F"></path>
</g>
</g>
</g>
</g>
</g>

<g id="Layer_6">
<g transform="matrix( 0.3265228271484375, 0.0269622802734375, -0.0269622802734375, 0.3263092041015625, 123.2,71.2)" id="Layer_1">
<g transform="matrix( 1, 0, 0, 1, -81.75,-26.9)" id="Layer_1">
<g transform="matrix( 1, 0, 0, 1, -770.55,-286.25)" id="Layer_1">
<g>
<g>
<g>
<path d="M 708.85 139.95
Q 707.15 139.95 705.45 140.05 704.6900390625 140.0845703125 704.05 140.5 703.36328125 140.1326171875 702.55 140.1 700.6 140 698.7 140 673.95 143.4 654.2 158.7 635.9 172.85 623.45 192.3 623.241015625 192.62578125 623 192.95 617.7490234375 201.09140625 611.45 208.4 609.1619140625 210.9876953125 607.8 213.75 603.2224609375 218.511328125 599 223.65 584.3 241.6 575.15 262.8 571.35 271.15 569.35 280.35 568.25 285.35 567.6 290.4 565.7685546875 304.5052734375 568.15 317.8 563.8931640625 315.9330078125 559.5 314.35
L 559.5 314.4
Q 559.1 314.45 558.7 314.5 558.4 314.6 558.05 314.7 556.5 315.6 555.5 317.1 554.55 318.55 554.85 320.2 555.1 321.55 555.45 322.9 559.35 328.8 565.75 331.8 569.43984375 333.5263671875 573.15 335.1 574.025390625 337.2509765625 575 339.35 575.2 340.6 575.8 341.65 576.85 343.4 578.4 344.8 578.819140625 346.106640625 579.3 347.35 570.212109375 343.578125 561.3 339.35
L 561.3 339.4
Q 560.95 339.45 560.55 339.55 560.2 339.6 559.9 339.75 559.65 339.9 559.4 340.15 559.15 340.3 559 340.5 557.45 348.5 564.95 353.45 577.550390625 361.73515625 591.4 364.35 597.9392578125 371.6373046875 606.1 377.45 648.6 407.75 702.2 406.65 704.2732421875 406.7345703125 706.25 406.6 753.451953125 407.5376953125 790.95 377.4 800.35 369.85 807.3 359.8 808.2591796875 358.6767578125 809.15 357.45 813.53984375 356.7482421875 817.9 355.25 823.55 353.25 829.2 351.15 837.4 348.1 842.25 341.65 842.25 341.3 842.25 341 842.25 340.85 842.25 340.7 842.25 340.55 842.25 340.4 841.9 339.35 841.1 338.65 838.65 336.4 835.25 336.85 832.4 337.55 829.35 338.6 823.3408203125 340.6384765625 817.3 342.5 817.564453125 342.0580078125 817.8 341.6 818.35 340.55 818.5 339.3 820.72265625 333.9123046875 822.25 328.35 829.7416015625 324.6796875 836.6 319.7 841 316.55 843.4 311.8 846.5 305.65 838.9 305.25 838 305.45 836.9 305.95 834.1 307.15 831.55 308.85 828.42890625 310.9220703125 825.25 312.85 826.41796875 301.876953125 825.1 290.35 824.5 285.3 823.55 280.3 821.75 271.1 818.4 262.75 810.3 241.55 797.25 223.6 793.5 218.45 789.45 213.7 788.25 210.95 786.2 208.35 780.639453125 201.063671875 775.95 192.95 775.7501953125 192.60078125 775.55 192.25 764.55 172.8 748.3 158.65 730.8 143.35 708.85 139.95
M 659.15 194.8
Q 657.2 194.55 655.2 194.55 646.6 195.2 638.1 197.8 629.791015625 200.3408203125 622.45 204.35 626.590234375 198.7138671875 630.55 192.95 631.641015625 191.40390625 632.7 189.85 644.55 172.35 662.15 160.55 681.4056640625 147.580859375 704.3 144.95 724.3318359375 147.6521484375 741.25 160.5 756.85 172.3 767.35 189.8 768.3056640625 191.378515625 769.25 192.95 772.787890625 198.6962890625 776.4 204.35 769.95 200.3 762.6 197.75 755.05 195.15 747.4 194.5 745.65 194.5 743.9 194.75 743.1 194.85 742.4 195.15 742.15 195.35 741.95 195.6 741.85 195.75 741.7 195.95 741.55 196.3 741.4 196.7 741.3 196.9 741.25 197.1 741.25 197.3 741.2 197.5 741.15 198.3 741.5 199 741.9 199.95 742.7 200.45 763.9 200.45 780.85 214.95 788.15 221.15 793.6 229.3 800.75 241.2 807.6 253.35 811.75 260.6 815.15 268 818.25 278 818.9 288.45 819.3 295.15 820.15 301.75 819.78046875 309.2755859375 818.7 316.7 815.4958984375 318.5107421875 812.2 320.2 809.6443359375 321.3845703125 807.05 322.55 799.3802734375 326.0552734375 791.6 329.4 790.6900390625 329.798046875 789.95 330.4 789.69921875 330.6052734375 789.45 330.8 785.52265625 333.8828125 789.1 335.8 789.3373046875 335.9978515625 789.6 336.2 790.15 336.65 790.85 336.65 791.730078125 337.7802734375 793.25 337.55 798.3 336.75 803.3 335.45 806.9603515625 334.4921875 810.5 333.25 813.1845703125 332.3634765625 815.8 331.3 814.70625 334.9603515625 813.2 338.5 811.971484375 341.1794921875 810.6 343.75 810.3841796875 344.1908203125 810.15 344.6 799.85625 347.5728515625 789.45 350 789 350.4 788.75 350.95 788.6 351.25 788.5 351.55 788.45 351.7 788.4 351.85 788 352.15 787.7 352.5 787.45 352.8 787.25 353.1 787.15 353.25 787.05 353.4 786.8 354.2 786.9 355 787.05 356.4 788.4 356.7 794.941796875 358.2533203125 801.4 358.15 794.3783203125 367.3169921875 785.3 374.6 780.65 378.4 776.5 382.5 749.9798828125 397.26328125 721.3 399.2 716.7134765625 400.3244140625 711.9 400.45 705.95 400.75 700 400.45 694.15 399.85 688.3 399.75 686.985546875 399.726953125 685.9 399.3 652.911328125 397.5990234375 622.4 382.55 617.7 378.45 612.45 374.65 606.464453125 370.383203125 601.25 365.45 606.8140625 365.7138671875 612.55 365.1 612.65 364.95 612.75 364.7 612.9 364.35 613.05 363.95 613.1 363.75 613.15 363.55 613.2 363.35 613.2 363.15 613.2 363.001171875 613.2 362.85 616.2435546875 360.287109375 612.9 357.65 611.1 356.2 608.9 355.65 598.4234375 353.1556640625 588.1 350.3 586.8625 348.5298828125 585.7 346.7 583.183984375 342.7626953125 581 338.55 580.9427734375 338.4294921875 580.85 338.3 582.4642578125 338.9251953125 584.05 339.5 594.751953125 343.57265625 605.75 346.65 605.95 346.55 606.1 346.45 606.6 346.15 607 345.8 607.3 345.45 607.55 345.05 607.75 344.65 607.95 344.3
L 607.95 344.25
Q 608.4490234375 343.823828125 608.8 343.2 611.1 339 606.95 336.35 603.9 334.4 600.5 333.15 594.0056640625 330.681640625 587.45 328.3 586.2224609375 327.5068359375 584.95 326.7 580.3533203125 323.850390625 575.55 321.35 573.723828125 311.6869140625 573.15 301.8 574.1 295.2 574.55 288.5 575.3 278.05 578.8 268.05 582.65 260.65 587.3 253.4 595.0466796875 241.25234375 603.05 229.35 609.2529296875 221.2140625 617.5 215 636.6 200.5 660.5 200.5 661.45 200 661.9 199.05 662.25 198.35 662.2 197.55 662.15 197.35 662.15 197.15 662.1 196.95 662 196.75 661.85 196.35 661.65 196 661.5 195.8 661.35 195.65 661.15 195.4 660.85 195.2 660.05 194.9 659.15 194.8
M 726.25 340.2
Q 729.9 333.9 724.4 329.45 721.055078125 326.7546875 717.4 324.85 707.8353515625 319.9626953125 696.15 320.65 689.95 321.4 683.95 323.6 681.8353515625 324.384765625 680 325.55 677.6830078125 327.100390625 675.85 329.3 672.45 333.35 673.75 338.85 674.4 341.75 676.05 344.25 685.05 357.9 702.3 355.8 718.35 353.85 726.25 340.2
M 652.95 229.25
Q 650.65 229.75 648.15 230.55 619.55 239.7 604.25 268.9 598.75 279.5 598.95 291.75 599.130078125 301.6869140625 604.05 307.9 607.3255859375 312.0525390625 612.7 314.55 612.8 314.7 612.95 314.8 613.2 315 613.5 315.2 640.55 327.95 669.3 321.55 671.48046875 320.692578125 673.55 319.6 679.939453125 316.24921875 685.3 310.7 688.2 307.7 689.25 303.4 689.4 303.2 689.55 303 689.8 302.6 690.05 302.25 690.1 302.05 690.25 301.85 691.8 292.6 692.65 283.25 694.2 265.3 686.45 249.95 675.4 228.35 652.95 229.25
M 652.8 235.35
Q 655.45 235.35 658.1 235.55 666.1 236.2 673 240.8 673.1 241 673.25 241.1 678.75 245.65 682.2 252.3 684.55 256.75 685.95 261.8 686.1 263.75 686.4 265.7 688.05 275.5 687.05 285.55 686.4 292.35 685.5 299.1 685.4 299.3 685.3 299.5 685.15 299.7 685.1 299.9 684.95 300.1 684.8 300.3 684.6 300.65 684.4 301.05 678.3 313.45 665.4 316.05 639.45 321.3 615.15 309.35 615.1 309.25 614.95 309.1 614.6 308.7 614.25 308.4 613.75 307.95 613.15 307.55 613.1 307.35 613.05 307.2 612.95 306.95 612.75 306.8 612.6 306.6 612.4 306.4 612.1 306.2 611.75 306.05 611.3 305.85 610.75 305.85 610.35 305.8 609.9 305.85 601 296.9 604.85 283.55 609.1 268.9 618.15 257.4 632.2 239.5 652.8 235.35
M 684.3 184.65
Q 684.25 184.95 684.2 185.2 684.15 185.55 684.15 185.85 684.15 186.15 684.25 186.45 684.35 186.75 684.45 187.05 684.65 187.35 684.9 187.6 685.25 187.95 685.7 188.15 686.35 188.45 687.1 188.65 687.8 188.45 688.45 188.15 688.9 187.95 689.3 187.65 693.15 181.3 698.05 175.8 700.65 172.95 703.7 170.65 703.8 170.35 703.9 170.05 704.1 169.75 704.3 169.45 704.8 169.15 705.25 168.8 706 168.2 706.65 167.55 706.9 167.3 707.1 167 711.05 164.1 717.05 165.45 717.25 165.5 717.45 165.6 718.65 166.15 719.55 167.15 720.1 167.8 720.7 168.4 721.1 168.7 721.5 169 721.75 170.25 722.35 171.45 722.85 172.35 723.35 173.25 723.55 173.6 723.75 173.9 723.75 174.2 723.7 174.5 723.6 175.45 723.9 176.3 724.15 176.9 724.35 177.55 724.45 177.85 724.55 178.15 723.956640625 185.8625 721.1 192.95 720.8423828125 193.6279296875 720.55 194.3 718.7 198.7 715.85 202.45 715.85 202.75 715.85 203.05 715.85 203.65 715.9 204.25 715.95 204.85 716.2 205.4 716.35 205.8 716.65 206.1 717.05 206.4 717.5 206.6 718.15 206.9 718.9 207.1 719.6 206.9 720.25 206.65 720.9 206.4 721.5 206.1 727.75 205.3 733.5 207.8 734.15 208.1 734.9 208.3 735.4 208.8 735.95 209.2 737.5 210.25 739.3 210.65 739.65 210.75 739.95 210.95 740.55 211.55 741.1 212.2 742.15 213.4 743.55 214.1 743.9 214.3 744.2 214.6 744.3 214.9 744.45 215.15 744.6 215.5 744.8 215.8 745.1 216.1 745.45 216.4 746.2 217 746.95 217.7 747.15 217.95 747.25 218.25 747.35 218.55 747.4 218.85 747.45 219.15 747.45 219.45 750.1302734375 224.5232421875 749.6 229.75 749.4482421875 229.7359375 749.3 229.7 749.577734375 232.537109375 748 235.45 748.046875 235.4630859375 748.1 235.45 748.02265625 235.6349609375 747.95 235.8 747.926171875 235.8533203125 747.9 235.9 747.2685546875 237.30703125 746.55 238.65 745.139453125 241.3212890625 743.4 243.75 743.1 244.05 742.75 244.35 742.4 244.65 742 245 741.65 245.25 741.35 245.55 741.15 245.9 741 246.2 740.85 246.5 740.75 246.8 738.1 248.8 735.5 250.75 728.0359375 256.263671875 719.3 256.6 716.1140625 257.0955078125 712.55 257 712.137109375 257.0552734375 711.7 257.05 708.3244140625 256.03125 705.05 254.75 702.85 254.9 702.25 257.05 701.8 258.45 702.85 259.55 704.3 261.15 706.35 262 707.811328125 262.6099609375 709.3 263 706.9857421875 272.711328125 707.9 283.3 708.75 292.65 710.3 301.9 710.45 302.1 710.5 302.3 710.75 302.65 711 303.05 711.15 303.25 711.3 303.45 712.35 307.75 715.25 310.75 720.458203125 316.1416015625 726.6 319.45 728.878515625 320.6673828125 731.25 321.6 760 328 787.05 315.25 787.35 315.05 787.6 314.85 787.75 314.75 787.85 314.6 787.971875 314.543359375 788.1 314.45 801.302734375 308.2 801.6 291.8 801.8 279.55 796.3 268.95 781.7466796875 241.1748046875 755.15 231.55 755.2068359375 231.246484375 755.25 230.95 756.85 220.1 749.85 212.15 749.75 211.85 749.6 211.55 749.45 211.25 749.3 210.9 749.15 210.65 749.05 210.35 748.15 209.7 747.2 209.15 746.6 208.8 746 208.5 745.6 207.9 745.1 207.4 743.05 205.35 740.35 204.5 739.95 204.35 739.55 204.25 734.85 201.1 728.75 200.2 726.15 199.85 725.75 198.6 726.9486328125 195.81328125 727.8 192.95 729.7650390625 186.25859375 729.8 179.15 729.85 170.95 725.55 163.95 724.95 163.65 724.35 163.3 723.95 163.05 723.55 162.75 723.45 162.45 723.3 162.15 723.1 161.85 722.9 161.55 722.7 161.25 722.45 160.95 722.1 160.6 721.7 160.3 719.8 159.7 717.8 159.5 713.8 159.1 709.75 159.1
L 709.75 159.2
Q 708.15 159.6 706.5 159.95 705.8 160.1 705.1 160.3 698.85 166.05 693.2 172.35 688.3 177.75 684.45 184 684.35 184.3 684.3 184.65
M 745.2 251.05
Q 745.4 250.75 745.6 250.4 745.7 250.15 745.8 249.8 751.4126953125 244.1873046875 753.8 236.95 770.470703125 242.251953125 782.4 257.45 791.45 268.95 795.7 283.6 799.55 296.95 790.65 305.9 790.2 305.85 789.8 305.9 789.25 305.9 788.8 306.1 788.45 306.25 788.15 306.45 787.95 306.65 787.8 306.85 787.6 307 787.5 307.25 787.45 307.4 787.4 307.6 786.8 308 786.3 308.45 785.95 308.75 785.6 309.15 785.45 309.3 785.4 309.4 761.1 321.35 735.15 316.1 722.25 313.5 716.15 301.1 715.95 300.7 715.75 300.35 715.6 300.15 715.45 299.95 715.4 299.75 715.25 299.55 715.15 299.35 715.05 299.15 714.15 292.4 713.5 285.6 712.5 275.55 714.15 265.75 714.2958984375 264.8021484375 714.4 263.85 715.8412109375 263.9294921875 717.3 263.85 719.3298828125 264.02890625 721.6 263.55 735.3 260.65 745.2 251.05 Z" stroke="none" fill="#000000"></path>

<path d="M 580.85 338.3
Q 580.9427734375 338.4294921875 581 338.55 583.183984375 342.7626953125 585.7 346.7 584.5109375 343.0662109375 584.05 339.5 582.4642578125 338.9251953125 580.85 338.3
M 815.8 331.3
Q 813.1845703125 332.3634765625 810.5 333.25 811.228125 338.7171875 810.6 343.75 811.971484375 341.1794921875 813.2 338.5 814.70625 334.9603515625 815.8 331.3 Z" stroke="none" fill="#FFED2B"></path>

<path d="M 724.4 329.45
Q 729.9 333.9 726.25 340.2 718.35 353.85 702.3 355.8 685.05 357.9 676.05 344.25 674.4 341.75 673.75 338.85 672.45 333.35 675.85 329.3 677.6830078125 327.100390625 680 325.55 676.33203125 323.042578125 673.55 319.6 671.48046875 320.692578125 669.3 321.55 640.55 327.95 613.5 315.2 613.2 315 612.95 314.8 612.8 314.7 612.7 314.55 607.3255859375 312.0525390625 604.05 307.9 597.0439453125 309.273046875 591.5 315.25 586.7931640625 320.3396484375 584.95 326.7 586.2224609375 327.5068359375 587.45 328.3 594.0056640625 330.681640625 600.5 333.15 603.9 334.4 606.95 336.35 611.1 339 608.8 343.2 608.4490234375 343.823828125 607.95 344.25
L 607.95 344.3
Q 607.75 344.65 607.55 345.05 607.3 345.45 607 345.8 606.6 346.15 606.1 346.45 605.95 346.55 605.75 346.65 594.751953125 343.57265625 584.05 339.5 584.5109375 343.0662109375 585.7 346.7 586.8625 348.5298828125 588.1 350.3 598.4234375 353.1556640625 608.9 355.65 611.1 356.2 612.9 357.65 616.2435546875 360.287109375 613.2 362.85 613.2 363.001171875 613.2 363.15 613.2 363.35 613.15 363.55 613.1 363.75 613.05 363.95 612.9 364.35 612.75 364.7 612.65 364.95 612.55 365.1 606.8140625 365.7138671875 601.25 365.45 606.464453125 370.383203125 612.45 374.65 617.7 378.45 622.4 382.55 652.911328125 397.5990234375 685.9 399.3 686.985546875 399.726953125 688.3 399.75 694.15 399.85 700 400.45 705.95 400.75 711.9 400.45 716.7134765625 400.3244140625 721.3 399.2 749.9798828125 397.26328125 776.5 382.5 780.65 378.4 785.3 374.6 794.3783203125 367.3169921875 801.4 358.15 794.941796875 358.2533203125 788.4 356.7 787.05 356.4 786.9 355 786.8 354.2 787.05 353.4 787.15 353.25 787.25 353.1 787.45 352.8 787.7 352.5 788 352.15 788.4 351.85 788.45 351.7 788.5 351.55 788.6 351.25 788.75 350.95 789 350.4 789.45 350 799.85625 347.5728515625 810.15 344.6 810.3841796875 344.1908203125 810.6 343.75 811.228125 338.7171875 810.5 333.25 806.9603515625 334.4921875 803.3 335.45 798.3 336.75 793.25 337.55 791.730078125 337.7802734375 790.85 336.65 790.15 336.65 789.6 336.2 789.3373046875 335.9978515625 789.1 335.8 785.52265625 333.8828125 789.45 330.8 789.69921875 330.6052734375 789.95 330.4 790.6900390625 329.798046875 791.6 329.4 799.3802734375 326.0552734375 807.05 322.55 805.7033203125 320.2287109375 803.85 318.6 800.25 315.45 794.5 314.7 791.676953125 314.3150390625 788.1 314.45 787.971875 314.543359375 787.85 314.6 787.75 314.75 787.6 314.85 787.35 315.05 787.05 315.25 760 328 731.25 321.6 728.878515625 320.6673828125 726.6 319.45 721.57421875 322.7033203125 717.4 324.85 721.055078125 326.7546875 724.4 329.45 Z" stroke="none" fill="#FAF6E9"></path>

<path d="M 658.1 235.55
Q 655.45 235.35 652.8 235.35 632.2 239.5 618.15 257.4 609.1 268.9 604.85 283.55 601 296.9 609.9 305.85 610.35 305.8 610.75 305.85 611.3 305.85 611.75 306.05 612.1 306.2 612.4 306.4 612.6 306.6 612.75 306.8 612.95 306.95 613.05 307.2 613.1 307.35 613.15 307.55 613.75 307.95 614.25 308.4 614.6 308.7 614.95 309.1 615.1 309.25 615.15 309.35 639.45 321.3 665.4 316.05 678.3 313.45 684.4 301.05 684.6 300.65 684.8 300.3 684.95 300.1 685.1 299.9 685.15 299.7 685.3 299.5 685.4 299.3 685.5 299.1 686.4 292.35 687.05 285.55 688.05 275.5 686.4 265.7 686.1 263.75 685.95 261.8 684.55 256.75 682.2 252.3 678.75 245.65 673.25 241.1 673.1 241 673 240.8 666.1 236.2 658.1 235.55
M 745.6 250.4
Q 745.4 250.75 745.2 251.05 735.3 260.65 721.6 263.55 719.3298828125 264.02890625 717.3 263.85 715.8412109375 263.9294921875 714.4 263.85 714.2958984375 264.8021484375 714.15 265.75 712.5 275.55 713.5 285.6 714.15 292.4 715.05 299.15 715.15 299.35 715.25 299.55 715.4 299.75 715.45 299.95 715.6 300.15 715.75 300.35 715.95 300.7 716.15 301.1 722.25 313.5 735.15 316.1 761.1 321.35 785.4 309.4 785.45 309.3 785.6 309.15 785.95 308.75 786.3 308.45 786.8 308 787.4 307.6 787.45 307.4 787.5 307.25 787.6 307 787.8 306.85 787.95 306.65 788.15 306.45 788.45 306.25 788.8 306.1 789.25 305.9 789.8 305.9 790.2 305.85 790.65 305.9 799.55 296.95 795.7 283.6 791.45 268.95 782.4 257.45 770.470703125 242.251953125 753.8 236.95 751.4126953125 244.1873046875 745.8 249.8 745.7 250.15 745.6 250.4 Z" stroke="none" fill="#FFFFFF"></path>

<path d="M 655.2 194.55
Q 657.2 194.55 659.15 194.8 660.05 194.9 660.85 195.2 661.15 195.4 661.35 195.65 661.5 195.8 661.65 196 661.85 196.35 662 196.75 662.1 196.95 662.15 197.15 662.15 197.35 662.2 197.55 662.25 198.35 661.9 199.05 661.45 200 660.5 200.5 636.6 200.5 617.5 215 609.2529296875 221.2140625 603.05 229.35 595.0466796875 241.25234375 587.3 253.4 582.65 260.65 578.8 268.05 575.3 278.05 574.55 288.5 574.1 295.2 573.15 301.8 573.723828125 311.6869140625 575.55 321.35 580.3533203125 323.850390625 584.95 326.7 586.7931640625 320.3396484375 591.5 315.25 597.0439453125 309.273046875 604.05 307.9 599.130078125 301.6869140625 598.95 291.75 598.75 279.5 604.25 268.9 619.55 239.7 648.15 230.55 650.65 229.75 652.95 229.25 675.4 228.35 686.45 249.95 694.2 265.3 692.65 283.25 691.8 292.6 690.25 301.85 690.1 302.05 690.05 302.25 689.8 302.6 689.55 303 689.4 303.2 689.25 303.4 688.2 307.7 685.3 310.7 679.939453125 316.24921875 673.55 319.6 676.33203125 323.042578125 680 325.55 681.8353515625 324.384765625 683.95 323.6 689.95 321.4 696.15 320.65 707.8353515625 319.9626953125 717.4 324.85 721.57421875 322.7033203125 726.6 319.45 720.458203125 316.1416015625 715.25 310.75 712.35 307.75 711.3 303.45 711.15 303.25 711 303.05 710.75 302.65 710.5 302.3 710.45 302.1 710.3 301.9 708.75 292.65 707.9 283.3 706.9857421875 272.711328125 709.3 263 707.811328125 262.6099609375 706.35 262 704.3 261.15 702.85 259.55 701.8 258.45 702.25 257.05 702.85 254.9 705.05 254.75 708.3244140625 256.03125 711.7 257.05 712.137109375 257.0552734375 712.55 257 716.1140625 257.0955078125 719.3 256.6 728.0359375 256.263671875 735.5 250.75 738.1 248.8 740.75 246.8 740.85 246.5 741 246.2 741.15 245.9 741.35 245.55 741.65 245.25 742 245 742.4 244.65 742.75 244.35 743.1 244.05 743.4 243.75 745.139453125 241.3212890625 746.55 238.65 747.2685546875 237.30703125 747.9 235.9 747.926171875 235.8533203125 747.95 235.8 748.02265625 235.6349609375 748.1 235.45 748.046875 235.4630859375 748 235.45 749.577734375 232.537109375 749.3 229.7 749.4482421875 229.7359375 749.6 229.75 750.1302734375 224.5232421875 747.45 219.45 747.45 219.15 747.4 218.85 747.35 218.55 747.25 218.25 747.15 217.95 746.95 217.7 746.2 217 745.45 216.4 745.1 216.1 744.8 215.8 744.6 215.5 744.45 215.15 744.3 214.9 744.2 214.6 743.9 214.3 743.55 214.1 742.15 213.4 741.1 212.2 740.55 211.55 739.95 210.95 739.65 210.75 739.3 210.65 737.5 210.25 735.95 209.2 735.4 208.8 734.9 208.3 734.15 208.1 733.5 207.8 727.75 205.3 721.5 206.1 720.9 206.4 720.25 206.65 719.6 206.9 718.9 207.1 718.15 206.9 717.5 206.6 717.05 206.4 716.65 206.1 716.35 205.8 716.2 205.4 715.95 204.85 715.9 204.25 715.85 203.65 715.85 203.05 715.85 202.75 715.85 202.45 718.7 198.7 720.55 194.3 720.8423828125 193.6279296875 721.1 192.95 723.956640625 185.8625 724.55 178.15 724.45 177.85 724.35 177.55 724.15 176.9 723.9 176.3 723.6 175.45 723.7 174.5 723.75 174.2 723.75 173.9 723.55 173.6 723.35 173.25 722.85 172.35 722.35 171.45 721.75 170.25 721.5 169 721.1 168.7 720.7 168.4 720.1 167.8 719.55 167.15 718.65 166.15 717.45 165.6 717.25 165.5 717.05 165.45 711.05 164.1 707.1 167 706.9 167.3 706.65 167.55 706 168.2 705.25 168.8 704.8 169.15 704.3 169.45 704.1 169.75 703.9 170.05 703.8 170.35 703.7 170.65 700.65 172.95 698.05 175.8 693.15 181.3 689.3 187.65 688.9 187.95 688.45 188.15 687.8 188.45 687.1 188.65 686.35 188.45 685.7 188.15 685.25 187.95 684.9 187.6 684.65 187.35 684.45 187.05 684.35 186.75 684.25 186.45 684.15 186.15 684.15 185.85 684.15 185.55 684.2 185.2 684.25 184.95 684.3 184.65 684.35 184.3 684.45 184 688.3 177.75 693.2 172.35 698.85 166.05 705.1 160.3 705.8 160.1 706.5 159.95 708.15 159.6 709.75 159.2
L 709.75 159.1
Q 713.8 159.1 717.8 159.5 719.8 159.7 721.7 160.3 722.1 160.6 722.45 160.95 722.7 161.25 722.9 161.55 723.1 161.85 723.3 162.15 723.45 162.45 723.55 162.75 723.95 163.05 724.35 163.3 724.95 163.65 725.55 163.95 729.85 170.95 729.8 179.15 729.7650390625 186.25859375 727.8 192.95 726.9486328125 195.81328125 725.75 198.6 726.15 199.85 728.75 200.2 734.85 201.1 739.55 204.25 739.95 204.35 740.35 204.5 743.05 205.35 745.1 207.4 745.6 207.9 746 208.5 746.6 208.8 747.2 209.15 748.15 209.7 749.05 210.35 749.15 210.65 749.3 210.9 749.45 211.25 749.6 211.55 749.75 211.85 749.85 212.15 756.85 220.1 755.25 230.95 755.2068359375 231.246484375 755.15 231.55 781.7466796875 241.1748046875 796.3 268.95 801.8 279.55 801.6 291.8 801.302734375 308.2 788.1 314.45 791.676953125 314.3150390625 794.5 314.7 800.25 315.45 803.85 318.6 805.7033203125 320.2287109375 807.05 322.55 809.6443359375 321.3845703125 812.2 320.2 815.4958984375 318.5107421875 818.7 316.7 819.78046875 309.2755859375 820.15 301.75 819.3 295.15 818.9 288.45 818.25 278 815.15 268 811.75 260.6 807.6 253.35 800.75 241.2 793.6 229.3 788.15 221.15 780.85 214.95 763.9 200.45 742.7 200.45 741.9 199.95 741.5 199 741.15 198.3 741.2 197.5 741.25 197.3 741.25 197.1 741.3 196.9 741.4 196.7 741.55 196.3 741.7 195.95 741.85 195.75 741.95 195.6 742.15 195.35 742.4 195.15 743.1 194.85 743.9 194.75 745.65 194.5 747.4 194.5 755.05 195.15 762.6 197.75 769.95 200.3 776.4 204.35 772.787890625 198.6962890625 769.25 192.95 768.3056640625 191.378515625 767.35 189.8 756.85 172.3 741.25 160.5 724.3318359375 147.6521484375 704.3 144.95 681.4056640625 147.580859375 662.15 160.55 644.55 172.35 632.7 189.85 631.641015625 191.40390625 630.55 192.95 626.590234375 198.7138671875 622.45 204.35 629.791015625 200.3408203125 638.1 197.8 646.6 195.2 655.2 194.55 Z" stroke="none" fill="#FFD52C"></path>
</g>
</g>
</g>
</g>
</g>

<g transform="matrix( 1, 0, 0, 1, -81.75,-26.9)" id="Layer_2">
<g>
<g>
<g>
<path d="M -85.9 117.8
Q -95.3 115.05 -103 109.1 -104.1509765625 108.162109375 -105.05 107 -105.202734375 106.80625 -105.35 106.6 -107 104.1 -109.85 104.5 -111.5 104.75 -111.75 106.35 -112.15 109.3 -109.65 111.5 -102.3 117.95 -93.25 121.6 -84.25 125.25 -74.55 125.65 -64.8 126.05 -55.45 123.45 -45.95 120.8 -38.95 114 -35.9 111.05 -33.75 107.35 -31.55 103.6 -35.9 102.55 -37.1 102.55 -37.95 103.5 -38.7255859375 104.3212890625 -39.5 105.15 -40.3572265625 106.166796875 -41.2 107.2 -47.4 114.8 -56.8 117.65 -61.9 119.25 -67.25 119.7 -76.8 120.5 -85.9 117.8
M -69.1 58.8
Q -69.9 58.4 -70.75 58.1 -71.1 58.15 -71.5 58.25 -71.7 58.3 -71.9 58.35 -72.15 58.45 -72.4 58.65 -72.8 59 -73.15 59.4 -73.3 59.55 -73.45 59.75 -73.85 62.45 -73.7 65.2 -73.25 71.3 -76.05 76.45 -76.1 76.85 -76.2 77.2 -76.3 77.4 -76.4 77.6 -76.5 77.8 -76.55 78 -77.5 78.6 -78.2 79.45 -79 80.5 -79.9 81.5 -101.35 94.95 -122.95 81.5 -123.3 80.75 -123.9 80.2 -127.55 76.95 -130.85 73.35 -131.45 71.9 -132.3 70.55 -133.5 68.7 -134.45 66.75 -134.3 65.3 -134.75 63.95 -135.15 62.85 -135.5 61.7 -135.35 60.15 -135.1 58.6 -134.8 56.65 -134.6 54.7 -134.7 54.35 -134.85 53.95 -134.9 53.75 -135 53.55 -135.1 53.35 -135.25 53.15 -135.5 53 -135.8 52.85 -136.6 52.45 -137.45 52.15
L -137.45 52.2
Q -137.8 52.25 -138.2 52.35 -138.55 52.4 -138.85 52.55 -140.9 54.15 -141.3 56.7 -142.05 61.55 -140.4 66.1 -140.4 66.3 -140.4 66.5 -140.5 67.3 -140.3 68.05 -140.2 68.4 -140.15 68.8 -137.4 74.9 -133.2 79.9 -127.25 86.95 -118.5 90.35 -113.66796875 92.235546875 -109.05 93.15 -104.95078125 99.4375 -99.75 103.8 -87.5650390625 114.001953125 -69.3 113.9 -53.7373046875 113.8015625 -42.7 103.35 -42.5173828125 103.211328125 -42.35 103.05 -38.6646484375 99.4810546875 -36.4 95.3 -25.4271484375 94.4318359375 -15.05 86.9 -14.3 86.5 -13.65 86.1 -13.4 85.95 -13.2 85.75 -13.1 85.55 -13 85.35 -12.9 85.15 -12.85 84.95 -12.75 84.8 -12.7 84.6 -8.75 80.8 -6.75 75.6 -2.6 65.05 -4.95 53.95 -5.2 53.75 -5.5 53.6 -6.3 53.25 -7.15 52.9 -7.55 53 -7.9 53.1 -8.25 53.15 -8.55 53.3 -8.8 53.5 -9.05 53.7 -9.25 53.9 -9.45 54.1 -10.5 57 -10.3 60.3 -9.9 67.1 -12.2 73.45 -12.75 74.2 -13.15 74.95 -16.4 81 -22 85.1 -26.3 87.35 -31.1 88.45 -51.65 93.2 -64.25 78.1 -64.85 76.8 -65.25 75.45 -65.65 74.2 -66.2 73.1 -66 70.45 -66.45 67.95 -67.25 63.45 -68.55 59.1 -68.8 58.9 -69.1 58.8 Z" stroke="none" fill="#000000"></path>

<path d="M -99.75 103.8
Q -102.46875 105.2748046875 -105.05 107 -104.1509765625 108.162109375 -103 109.1 -95.3 115.05 -85.9 117.8 -76.8 120.5 -67.25 119.7 -61.9 119.25 -56.8 117.65 -47.4 114.8 -41.2 107.2 -40.3572265625 106.166796875 -39.5 105.15 -41.0462890625 104.2171875 -42.7 103.35 -53.7373046875 113.8015625 -69.3 113.9 -87.5650390625 114.001953125 -99.75 103.8 Z" stroke="none" fill="#FAF6E9"></path>
</g>
</g>
</g>
</g>
</g>

<g transform="matrix( 0.3265228271484375, 0.0269622802734375, -0.0269622802734375, 0.3263092041015625, 123.2,71.2)" id="Layer_2">
<g>
<g>
<g>
<path d="M -109.85 -60.05
Q -110.915625 -58.9216796875 -112.25 -58.4 -115.678125 -46.2916015625 -115.55 -32.9 -115.096484375 -34.2037109375 -114.25 -35.45 -112.45 -38.1 -109.6 -39.25 -107.2 -40.2 -105.6 -39.75 -103.25 -39.25 -101.25 -36.5 -99.35 -34.05 -99 -31.1 -98.7 -28.2 -100.45 -25.55 -102.2 -22.95 -105 -22 -106.629296875 -21.4267578125 -108.35 -21.6 -110.3333984375 -21.6650390625 -112 -22.75 -113.9798828125 -23.7736328125 -115.2 -25.7 -113.819140625 -9.1994140625 -106.95 4.85 -96.353125 4.7765625 -86.65 2.15 -89.1197265625 -2.6390625 -90.95 -7.85 -95.25 -20 -95.35 -32.6 -95.55 -45.25 -91.5 -57.5 -89.2552734375 -64.262109375 -85.9 -70.4 -85.9791015625 -70.436328125 -86.05 -70.5 -91.92578125 -73.6919921875 -97.9 -76.65 -100.6318359375 -70.497265625 -105.05 -65.35 -107.35 -62.65 -109.85 -60.05
M -93.25 -107.65
Q -97.3 -106.95 -98.2 -103.05 -98.45 -102.15 -97.8 -101.65 -92.75 -97.8 -86.65 -94.8 -84.65 -92.85 -82.2 -91.6 -80.15 -90.55 -77.95 -89.95 -75.8 -87.95 -73.1 -88.9 -72.1 -89.3 -71.3 -90.05 -71.2 -90.2 -71.15 -90.35 -71.05 -90.5 -71 -90.65 -70.9 -90.85 -70.8 -91 -70.75 -91.15 -70.7 -91.3 -70.6 -92.6 -71.2 -93.7 -72.5 -96 -74.35 -97.85 -82.35 -105.85 -93.25 -107.65
M -206 -91.2
Q -206.45 -91.2 -206.95 -91.05 -216.15 -88.25 -225.4 -85.55 -226.05 -85.35 -226.65 -85.25 -230.45 -84.5 -231.1 -81.15 -231.25 -80.4 -230.9 -79.7 -228.9 -75.45 -223.75 -76.2 -215.1 -77.5 -207.65 -82 -206.7 -82.6 -205.8 -83.15 -203.6 -84.55 -202.95 -86.95 -201.85 -90.85 -206 -91.2
M -191.95 -77.55
Q -196.14375 -78.671484375 -200.35 -79.4 -205.4181640625 -73.5751953125 -209.4 -66.7 -216.8 -53.8 -219 -39.35 -221.15 -24.9 -217.7 -10.45 -215.980859375 -3.1443359375 -213 3.5 -202.3732421875 5.067578125 -191.4 3.5 -191.2267578125 3.474609375 -191.05 3.45 -194.075 -3.10703125 -195.85 -10.35 -198.95 -22.95 -197.75 -35.6 -196.45 -48.35 -190.95 -60.1 -187.4349609375 -67.673046875 -182.5 -74.1 -185.79765625 -76.0380859375 -189.6 -77.2 -190.8 -77.25 -191.95 -77.55
M -213.9 -25.95
Q -215.4587890625 -26.3376953125 -216.8 -27.6 -218.4 -29.15 -219 -31.25 -220.25 -35.35 -217.75 -39.75 -215.45 -43.6 -211.35 -45.1 -208.45 -45.95 -205.75 -45.35 -203.7 -45 -202 -43.6 -200.25 -41.9 -199.6 -39.5 -198.45 -35.8 -199.8 -32 -201.1087890625 -28.2677734375 -204.05 -26.25 -204.155078125 -26.1626953125 -204.25 -26.1 -207.45 -23.95 -211.55 -24.3 -212.9439453125 -24.4189453125 -214.2 -24.8 -214.13359375 -24.966796875 -214.1 -25.15 -213.99609375 -25.5216796875 -213.9 -25.95 Z" stroke="none" fill="#966C3E"></path>

<path d="M -96.7 -80.8
Q -96.9072265625 -82.7224609375 -99.55 -83.4 -99.60390625 -83.3978515625 -99.65 -83.4 -100.8873046875 -83.30859375 -101.75 -82.35 -102.75 -81.2 -103.35 -79.8 -106.4 -72.5 -111.9 -66.7 -113.35 -65.2 -115.05 -63.9 -117.75 -61.9 -116.15 -59.1 -115.4 -57.8 -113.9 -58 -113.023046875 -58.093359375 -112.25 -58.4 -110.915625 -58.9216796875 -109.85 -60.05 -107.35 -62.65 -105.05 -65.35 -100.6318359375 -70.497265625 -97.9 -76.65 -91.92578125 -73.6919921875 -86.05 -70.5 -85.9791015625 -70.436328125 -85.9 -70.4 -89.2552734375 -64.262109375 -91.5 -57.5 -95.55 -45.25 -95.35 -32.6 -95.25 -20 -90.95 -7.85 -89.1197265625 -2.6390625 -86.65 2.15 -96.353125 4.7765625 -106.95 4.85 -107.4134765625 4.8521484375 -107.9 4.85 -112.5 4.8 -111.5 8.9 -111.3 9.85 -110.35 9.95 -107.1369140625 10.3498046875 -103.95 10.4 -96.7330078125 10.558203125 -89.6 9 -86.54375 8.35 -83.55 7.5 -75.659765625 5.35 -68.1 1.95 -57.35 -2.9 -52.55 -13.1 -52.4 -13.3 -52.3 -13.5 -51.85 -14.35 -51.6 -15.3 -51.4 -16.05 -51.45 -16.85 -50.6 -19.35 -50.6 -22 -50.7 -29.55 -53.1 -36.7 -55.8 -44.75 -61 -51.5 -61.05 -51.6 -61.05 -51.7 -61.15 -52.35 -61.55 -52.85 -61.85 -53.3 -62.25 -53.65 -62.8 -54.95 -63.55 -56.15 -66.280078125 -60.5138671875 -69.6 -64.35
L -70.75 -64.1
Q -76.15 -70 -83.15 -74.05 -89.7365234375 -77.7791015625 -96.7 -80.8
M -89 -35.6
Q -87.741015625 -36.958203125 -85.85 -37.1 -79.85 -36.75 -79 -31.15 -78.8 -29.9 -79.4 -28.7 -81.85 -23.55 -87.3 -24.95 -88.1240234375 -25.1560546875 -88.75 -25.65 -89.200390625 -25.976953125 -89.55 -26.45 -92.85 -31 -89.15 -35.4 -89.079296875 -35.484375 -89 -35.6
M -243.9 -9
Q -244.566796875 -9.023828125 -245.35 -8.8 -246.6 -8.45 -246.7 -7.2 -247.05 -3.3 -243.7 -0.8 -242.2720703125 0.3001953125 -240.75 1.2 -226.2123046875 2.8859375 -211.7 6.2 -208.8466796875 6.8814453125 -206 7.6 -196.9751953125 9.8416015625 -188.6 8.25 -182.610546875 7.14140625 -176.95 4.05 -170.3 0.45 -167.45 -6.25 -166.45 -6.55 -165.9 -7.65 -165.05 -9.45 -164.7 -11.5 -164.5 -12.5 -163.8 -13.15 -162.55 -23 -162.2 -32.95 -161.8 -45.15 -165.1 -56.6 -166.85 -62.65 -170.4 -66.9
L -170.7 -68.2 -178.3 -76.15
Q -179.17109375 -76.65859375 -180.05 -77.15 -188.0064453125 -81.331640625 -197.45 -82.5 -198.86640625 -82.690625 -200.35 -82.8 -201.05546875 -82.8201171875 -201.75 -82.85 -202.2162109375 -81.5568359375 -201.65 -80.25 -201.3 -79.5 -200.55 -79.4 -200.44375 -79.3826171875 -200.35 -79.4 -196.14375 -78.671484375 -191.95 -77.55 -190.8 -77.25 -189.6 -77.2 -185.79765625 -76.0380859375 -182.5 -74.1 -187.4349609375 -67.673046875 -190.95 -60.1 -196.45 -48.35 -197.75 -35.6 -198.95 -22.95 -195.85 -10.35 -194.075 -3.10703125 -191.05 3.45 -191.2267578125 3.474609375 -191.4 3.5 -202.3732421875 5.067578125 -213 3.5 -220.6345703125 2.426171875 -228.1 -0.3 -228.5521484375 -0.4626953125 -229 -0.65 -230.2353515625 -1.0787109375 -231.45 -1.55 -235.9728515625 -3.2939453125 -240.35 -5.3 -240.4205078125 -5.4833984375 -240.5 -5.7 -242.475 -7.1068359375 -243.9 -9
M -189.5 -41
Q -187.4 -41.3 -185.5 -40.6 -183.45 -39.85 -182.35 -38.25 -181.75 -37.15 -181.75 -36.1 -181.75 -34.95 -182.5 -33.6 -183.55 -31.75 -184.35 -31.1 -186.6 -29.05 -190 -29.5 -190.0958984375 -29.5169921875 -190.2 -29.55 -190.7287109375 -29.6328125 -191.25 -29.8 -191.2126953125 -29.875390625 -191.2 -29.95 -193.224609375 -30.89453125 -194.25 -32.75 -195.2 -34.75 -194.85 -36.5 -194.4 -38.2 -192.85 -39.5 -191.35 -40.7 -189.5 -41 Z" stroke="none" fill="#000000"></path>

<path d="M -85.85 -37.1
Q -87.741015625 -36.958203125 -89 -35.6 -89.079296875 -35.484375 -89.15 -35.4 -92.85 -31 -89.55 -26.45 -89.200390625 -25.976953125 -88.75 -25.65 -88.1240234375 -25.1560546875 -87.3 -24.95 -81.85 -23.55 -79.4 -28.7 -78.8 -29.9 -79 -31.15 -79.85 -36.75 -85.85 -37.1 Z" stroke="none" fill="#FFFFFF"></path>
</g>
</g>
</g>
</g>
</g>
</svg>
