<svg version="1.1" xmlns="http://www.w3.org/2000/svg" xmlns:xlink="http://www.w3.org/1999/xlink" width="833.45" height="209.2" viewBox="0,0,833.45,209.2"><defs><linearGradient x1="-64.2125" y1="-162.7625" x2="-62.8375" y2="-5.7375" gradientUnits="userSpaceOnUse" id="color-1"><stop offset="0" stop-color="#ffe3f2"/><stop offset="1" stop-color="#fcbedf"/></linearGradient></defs><g transform="translate(110.025,148.4)"><g data-paper-data="{&quot;isPaintingLayer&quot;:true}" fill="url(#color-1)" fill-rule="nonzero" stroke="none" stroke-width="1" stroke-linecap="butt" stroke-linejoin="miter" stroke-miterlimit="10" stroke-dasharray="" stroke-dashoffset="0" style="mix-blend-mode: normal"><path d="M421.425,10.4c-36.23333,0 -67.16667,9.83333 -92.8,29.5c-2.06667,1.56667 -4.03333,3.18333 -5.9,4.85c-1.9,-1.66667 -3.88333,-3.28333 -5.95,-4.85c-25.6,-19.66667 -56.51667,-29.5 -92.75,-29.5c-36.23333,0 -67.16667,9.83333 -92.8,29.5c-5.53333,4.23333 -10.45,8.66667 -14.75,13.3c-25.03333,-18.2 -54.98333,-27.3 -89.85,-27.3c-36.23333,0 -67.16667,9.83333 -92.8,29.5c-2.3,1.76667 -4.5,3.56667 -6.6,5.4h-37.25v-209.2h833.45v209.2h-5.25c-2.1,-1.83333 -4.3,-3.63333 -6.6,-5.4c-25.6,-19.66667 -56.51667,-29.5 -92.75,-29.5c-34.86667,0 -64.81667,9.1 -89.85,27.3c-4.33333,-4.63333 -9.26667,-9.06667 -14.8,-13.3c-25.6,-19.66667 -56.51667,-29.5 -92.75,-29.5z"/></g></g></svg>