
<svg viewBox="0 0 270 260" height="260px" width="270px" y="0px" x="0px" preserveAspectRatio="none" xmlns:xlink="http://www.w3.org/1999/xlink" version="1.1" xmlns="http://www.w3.org/2000/svg">
<defs>
<linearGradient spreadMethod="pad" y2="191.83749999999998" x2="43.65" y1="234.0625" x1="43.65" gradientUnits="userSpaceOnUse" id="Gradient_1">
<stop stop-color="#FFAFAF" offset="0%"></stop>

<stop stop-color="#FF1A1A" offset="100%"></stop>
</linearGradient>

<linearGradient spreadMethod="pad" y2="188.02499999999998" x2="70.1" y1="229.875" x1="70.1" gradientUnits="userSpaceOnUse" id="Gradient_2">
<stop stop-color="#FFAFAF" offset="0%"></stop>

<stop stop-color="#FF1A1A" offset="100%"></stop>
</linearGradient>

<linearGradient spreadMethod="pad" y2="184.9375" x2="25.65" y1="226.16250000000002" x1="25.65" gradientUnits="userSpaceOnUse" id="Gradient_3">
<stop stop-color="#FFAFAF" offset="0%"></stop>

<stop stop-color="#FF1A1A" offset="100%"></stop>
</linearGradient>

<linearGradient spreadMethod="pad" y2="151.67499999999998" x2="50.05" y1="165.525" x1="50.05" gradientUnits="userSpaceOnUse" id="Gradient_4">
<stop stop-color="#EFEFEF" offset="0%"></stop>

<stop stop-color="#FFFFFF" offset="100%"></stop>
</linearGradient>

<linearGradient spreadMethod="pad" y2="191.425" x2="9.75" y1="223.675" x1="9.75" gradientUnits="userSpaceOnUse" id="Gradient_5">
<stop stop-color="#FFAFAF" offset="0%"></stop>

<stop stop-color="#FF1A1A" offset="100%"></stop>
</linearGradient>

<linearGradient spreadMethod="pad" y2="186.05" x2="89.15" y1="215.95" x1="89.15" gradientUnits="userSpaceOnUse" id="Gradient_6">
<stop stop-color="#FFAFAF" offset="0%"></stop>

<stop stop-color="#FF1A1A" offset="100%"></stop>
</linearGradient>

<radialGradient spreadMethod="pad" gradientTransform="matrix( 0.9999999999999994, 0, 0, 0.9999999999999994, 57.35,136.7)" fy="0" fx="0" r="6.050000000000004" cy="0" cx="0" gradientUnits="userSpaceOnUse" id="Gradient_7">
<stop stop-color="#B76446" offset="0%"></stop>

<stop stop-color="#C16F4A" offset="100%"></stop>
</radialGradient>
</defs>

<g id="Layer_1">
<g transform="matrix( 0.5870361328125, 0, 0, 0.5870361328125, 106.25,0)" id="Layer_3">
<g transform="matrix( 1, 0, 0, 1, 14.5,214.8)" id="Layer_1">
<g transform="matrix( 1, 0, 0, 1, -14.5,-214.8)">
<g>
<g>
<path d="M 36.15 292.95
Q 29.8 287 21.1 291.7 16.55 303.45 15 315.55 12.45 335.05 22.6 336.5 31.6 338.2 35.45 319.9 37 312.8 37.15 304.85 37.3 297.35 36.15 292.95 Z" stroke="none" fill="#009900"></path>
</g>
</g>

<g>
<path d="M 21.1 291.7
Q 29.8 287 36.15 292.95 37.3 297.35 37.15 304.85 37 312.8 35.45 319.9 31.6 338.2 22.6 336.5 12.45 335.05 15 315.55 16.55 303.45 21.1 291.7 Z" fill="none" stroke-miterlimit="10" stroke-linecap="round" stroke-linejoin="miter" stroke-width="0.5" stroke="#000000"></path>
</g>
</g>

<g transform="matrix( 1, 0, 0, 1, -14.5,-214.8)">
<g>
<g>
<path d="M 40.7 231.45
L 42.15 219.7 28 214.8 26 231.9
Q 23.9 250.7 23.25 259.15 22.35 271.3 22.1 292.2
L 22.9 296.2
Q 24.4 300.3 28.05 300.85 30.1 301.15 32.8 297.65
L 35.1 294.1
Q 37.15 264.9 38.35 252.2 39.05 244.65 40.7 231.45 Z" stroke="none" fill="#FFFFFF"></path>
</g>
</g>

<g>
<path d="M 28 214.8
L 26 231.9
Q 23.9 250.7 23.25 259.15 22.35 271.3 22.1 292.2
L 22.9 296.2
Q 24.4 300.3 28.05 300.85 30.1 301.15 32.8 297.65
L 35.1 294.1
Q 37.15 264.9 38.35 252.2 39.05 244.65 40.7 231.45
L 42.15 219.7 28 214.8 Z" fill="none" stroke-miterlimit="10" stroke-linecap="round" stroke-linejoin="miter" stroke-width="0.5" stroke="#000000"></path>
</g>
</g>
</g>
</g>

<g transform="matrix( 0.5870361328125, 0, 0, 0.5870361328125, 106.25,0)" id="Layer_4">
<g transform="matrix( 0.999114990234375, 0.041412353515625, -0.041412353515625, 0.999114990234375, 54.55,215.2)" id="Layer_1">
<g transform="matrix( 1, 0, 0, 1, -54.3,-215.45)">
<g>
<g>
<path d="M 70.45 293.65
Q 68.5 294.05 66.1 292.7 63.5 291 62.3 290.5 58.15 288.85 54.75 298.6 53.9 300.85 54.75 307.6 55.65 314.95 58 321.85 64.35 340.75 74.9 339.05 81.15 336.9 79.7 321.05 78.2 305.05 70.45 293.65 Z" stroke="none" fill="#009900"></path>
</g>
</g>

<g>
<path d="M 54.75 298.6
Q 58.15 288.85 62.3 290.5 63.5 291 66.1 292.7 68.5 294.05 70.45 293.65 78.2 305.05 79.7 321.05 81.15 336.9 74.9 339.05 64.35 340.75 58 321.85 55.65 314.95 54.75 307.6 53.9 300.85 54.75 298.6 Z" fill="none" stroke-miterlimit="10" stroke-linecap="round" stroke-linejoin="miter" stroke-width="0.5" stroke="#000000"></path>
</g>
</g>

<g transform="matrix( 1, 0, 0, 1, -54.3,-215.45)">
<g>
<g>
<path d="M 67.5 215.45
L 54.4 215.65 54.8 232.1
Q 55.4 250.05 56.1 257.6 57.3 270.3 59.35 296.5
L 60.75 298.7
Q 62.75 300.95 65.9 301.3 69.55 300.8 70.7 297.25
L 71.15 293.8 68.4 259.15
Q 67.8 250.7 67.6 232.25
L 67.5 215.45 Z" stroke="none" fill="#FFFFFF"></path>
</g>
</g>

<g>
<path d="M 67.5 215.45
L 67.6 232.25
Q 67.8 250.7 68.4 259.15
L 71.15 293.8 70.7 297.25
Q 69.55 300.8 65.9 301.3 62.75 300.95 60.75 298.7
L 59.35 296.5
Q 57.3 270.3 56.1 257.6 55.4 250.05 54.8 232.1
L 54.4 215.65 67.5 215.45 Z" fill="none" stroke-miterlimit="10" stroke-linecap="round" stroke-linejoin="miter" stroke-width="0.5" stroke="#000000"></path>
</g>
</g>
</g>
</g>

<g transform="matrix( 0.5870361328125, 0, 0, 0.5870361328125, 106.25,0)" id="Layer_1">
<g>
<g>
<g>
<path d="M 55 37.45
L 51.7 40.85 59.5 99.55 68.8 101.85 55 37.45 Z" stroke="none" fill="#009900"></path>
</g>
</g>

<g>
<path d="M 51.7 40.85
L 55 37.45 68.8 101.85 59.5 99.55 51.7 40.85 Z" fill="none" stroke-miterlimit="10" stroke-linecap="round" stroke-linejoin="miter" stroke-width="0.5" stroke="#000000"></path>
</g>
</g>

<g>
<g>
<g>
<path d="M 27.25 182.4
L 35.5 185.1
Q 44.8 187.85 50.25 187.95 58.2 188.1 65.3 184.5 68.85 182.7 70.8 180.9
L 71.15 151.5 28.15 150 27.25 182.4 Z" stroke="none" fill="#009900"></path>
</g>
</g>

<g>
<path d="M 28.15 150
L 27.25 182.4 35.5 185.1
Q 44.8 187.85 50.25 187.95 58.2 188.1 65.3 184.5 68.85 182.7 70.8 180.9
L 71.15 151.5 28.15 150 Z" fill="none" stroke-miterlimit="10" stroke-linecap="round" stroke-linejoin="miter" stroke-width="0.5" stroke="#000000"></path>
</g>
</g>

<g>
<g>
<g>
<path d="M 50.35 39.85
L 45.75 38.15 34.6 97.25 38.3 98.8
Q 42.2 100.2 43.25 99.25 44.55 98.15 45.5 92.6
L 50.35 39.85 Z" stroke="none" fill="#009900"></path>
</g>
</g>

<g>
<path d="M 34.6 97.25
L 45.75 38.15 50.35 39.85 45.5 92.6
Q 44.55 98.15 43.25 99.25 42.2 100.2 38.3 98.8
L 34.6 97.25 Z" fill="none" stroke-miterlimit="10" stroke-linecap="round" stroke-linejoin="miter" stroke-width="0.5" stroke="#000000"></path>
</g>
</g>

<g>
<g>
<g>
<path d="M 75.6 127.05
Q 71 124.35 58.05 123.2 46.5 122.15 35.65 122.8 28.95 123.25 24.2 125.5 19.6 128.05 22.35 137.75 24.85 146.5 29.55 151.2 33.85 154 39.35 155.45 44.45 156.75 49.9 156.65 52.65 156.6 56.4 155.95 58.5 155.6 62.6 154.8 67.75 153.6 71 150.6 73.2 148.5 79.25 140.3 79.85 136.35 79.15 132.9 78.25 128.6 75.6 127.05 Z" stroke="none" fill="#FFFFFF"></path>
</g>
</g>

<g>
<path d="M 24.2 125.5
Q 19.6 128.05 22.35 137.75 24.85 146.5 29.55 151.2 33.85 154 39.35 155.45 44.45 156.75 49.9 156.65 52.65 156.6 56.4 155.95 58.5 155.6 62.6 154.8 67.75 153.6 71 150.6 73.2 148.5 79.25 140.3 79.85 136.35 79.15 132.9 78.25 128.6 75.6 127.05 71 124.35 58.05 123.2 46.5 122.15 35.65 122.8 28.95 123.25 24.2 125.5 Z" fill="none" stroke-miterlimit="10" stroke-linecap="round" stroke-linejoin="miter" stroke-width="0.5" stroke="#000000"></path>
</g>
</g>

<g>
<g>
<g>
<path d="M 46.7 122.65
Q 60.25 122.95 69.4 124.9 74 125.9 75.85 126.85
L 73.55 115.6
Q 69.9 114.55 64.6 113.5 53.95 111.4 45.55 111.55 37.75 111.7 29.15 113.5 21.75 115.05 21.05 115.9 20.05 117.2 20.15 121 20.15 123.45 21.05 128.65 21.75 126.95 25.3 125.3 32.4 122.1 46.7 122.65 Z" stroke="none" fill="#CC0000"></path>
</g>
</g>

<g>
<path d="M 21.05 128.65
Q 20.15 123.45 20.15 121 20.05 117.2 21.05 115.9 21.75 115.05 29.15 113.5 37.75 111.7 45.55 111.55 53.95 111.4 64.6 113.5 69.9 114.55 73.55 115.6
L 75.85 126.85
Q 74 125.9 69.4 124.9 60.25 122.95 46.7 122.65 32.4 122.1 25.3 125.3 21.75 126.95 21.05 128.65 Z" fill="none" stroke-miterlimit="10" stroke-linecap="round" stroke-linejoin="miter" stroke-width="0.5" stroke="#000000"></path>
</g>
</g>

<g>
<g>
<g>
<path d="M 56.45 95
Q 53.75 94.6 47.2 94.4 42.75 94.3 37.9 96.35 33.65 98.2 30.1 101.15 23.25 107.05 21.75 110.9 20.7 113.55 21.15 116 25.1 114.9 30.1 113.8 40.1 111.6 45.45 111.5 50.95 111.4 62.8 113.4 68.75 114.4 73.55 115.4 73.5 112.7 72.65 109.25 70.95 102.45 67.1 99 63.7 96 56.45 95 Z" stroke="none" fill="#009900"></path>
</g>
</g>

<g>
<path d="M 21.15 116
Q 20.7 113.55 21.75 110.9 23.25 107.05 30.1 101.15 33.65 98.2 37.9 96.35 42.75 94.3 47.2 94.4 53.75 94.6 56.45 95 63.7 96 67.1 99 70.95 102.45 72.65 109.25 73.5 112.7 73.55 115.4 68.75 114.4 62.8 113.4 50.95 111.4 45.45 111.5 40.1 111.6 30.1 113.8 25.1 114.9 21.15 116 Z" fill="none" stroke-miterlimit="10" stroke-linecap="round" stroke-linejoin="miter" stroke-width="0.5" stroke="#000000"></path>
</g>
</g>

<g>
<g>
<g>
<path d="M 39.95 91.5
Q 39.2 93.6 39.55 95.65
L 42.2 94.85
Q 45.15 94.05 46.7 94 49.05 93.9 54.15 94.4 53.85 92.65 52.8 90.85 50.65 87.3 46.8 87.35 41.4 87.4 39.95 91.5 Z" stroke="none" fill="#FFFFFF"></path>
</g>
</g>

<g>
<path d="M 39.55 95.65
Q 39.2 93.6 39.95 91.5 41.4 87.4 46.8 87.35 50.65 87.3 52.8 90.85 53.85 92.65 54.15 94.4 49.05 93.9 46.7 94 45.15 94.05 42.2 94.85
L 39.55 95.65 Z" fill="none" stroke-miterlimit="10" stroke-linecap="round" stroke-linejoin="miter" stroke-width="0.5" stroke="#000000"></path>
</g>
</g>

<g>
<g>
<g>
<path d="M 45.9 38.45
L 50.4 39.55
Q 51.5 29.8 50.95 27.6 50.7 26.35 49.35 26.5 47.85 26.65 46.85 28.65 45.8 30.65 45.9 38.45 Z" stroke="none" fill="#FFFFFF"></path>
</g>
</g>

<g>
<path d="M 45.9 38.45
Q 45.8 30.65 46.85 28.65 47.85 26.65 49.35 26.5 50.7 26.35 50.95 27.6 51.5 29.8 50.4 39.55
L 45.9 38.45 Z" fill="none" stroke-miterlimit="10" stroke-linecap="round" stroke-linejoin="miter" stroke-width="0.5" stroke="#000000"></path>
</g>
</g>

<g>
<g>
<g>
<path d="M 51.35 40.2
L 55.85 39.05
Q 55.95 31 54.9 28.95 53.85 26.9 52.4 26.75 51.05 26.6 50.75 27.85 50.25 30.15 51.35 40.2 Z" stroke="none" fill="#FFFFFF"></path>
</g>
</g>

<g>
<path d="M 51.35 40.2
Q 50.25 30.15 50.75 27.85 51.05 26.6 52.4 26.75 53.85 26.9 54.9 28.95 55.95 31 55.85 39.05
L 51.35 40.2 Z" fill="none" stroke-miterlimit="10" stroke-linecap="round" stroke-linejoin="miter" stroke-width="0.5" stroke="#000000"></path>
</g>
</g>

<g>
<g>
<g>
<path d="M 26.8 182.6
L 20.8 189
Q 14.25 196.2 11.6 200.05 8.8 204.1 4.4 212.85 2.2 217.2 0.55 220.75 3 222.15 6.3 223.45 12.85 226.05 17.1 225.75 17.9 225.7 19 225.15 20.15 224.55 21.6 224.35 22.9 224.2 24.1 224.55 24.95 224.85 26.5 225.65 27.2 226.05 27.05 226.95 26.95 227.45 26.65 228.75 26.3 231.3 30.7 232.8 33.9 233.9 37.9 233.85 40.5 233.8 46 233.1 47.6 232.9 54.4 233 59.9 233.1 62.9 232.2 65.1 231.55 67.25 230.35 70.15 228.7 71.35 228.2 73.2 227.4 77.75 225.8 78.3 224.4 79.45 223.9 81.25 223.3 82.7 222.5 83.45 222.1 84.75 221.2 86.05 220.3 86.85 219.9 87.7 219.55 90.25 218.6 92.4 217.8 93.35 217.25 95.3 216.15 97.25 214.8
L 98.75 213.7
Q 91.5 201.3 84.65 191.9 82.3 188.65 78.9 185.15 75.75 182 75.05 181.15 74.35 180.3 72.65 180.3
L 71.1 180.5
Q 68.55 182.65 64.45 184.65 56.35 188.65 48.8 187.85 44.4 188.05 35.15 185.35
L 26.8 182.6 Z" stroke="none" fill="#008900"></path>
</g>
</g>

<g>
<path d="M 26.8 182.6
L 20.8 189
Q 14.25 196.2 11.6 200.05 8.8 204.1 4.4 212.85 2.2 217.2 0.55 220.75 3 222.15 6.3 223.45 12.85 226.05 17.1 225.75 17.9 225.7 19 225.15 20.15 224.55 21.6 224.35 22.9 224.2 24.1 224.55 24.95 224.85 26.5 225.65 27.2 226.05 27.05 226.95 26.95 227.45 26.65 228.75 26.3 231.3 30.7 232.8 33.9 233.9 37.9 233.85 40.5 233.8 46 233.1 47.6 232.9 54.4 233 59.9 233.1 62.9 232.2 65.1 231.55 67.25 230.35 70.15 228.7 71.35 228.2 73.2 227.4 77.75 225.8 78.3 224.4 79.45 223.9 81.25 223.3 82.7 222.5 83.45 222.1 84.75 221.2 86.05 220.3 86.85 219.9 87.7 219.55 90.25 218.6 92.4 217.8 93.35 217.25 95.3 216.15 97.25 214.8
L 98.75 213.7
Q 91.5 201.3 84.65 191.9 82.3 188.65 78.9 185.15 75.75 182 75.05 181.15 74.35 180.3 72.65 180.3
L 71.1 180.5
Q 68.55 182.65 64.45 184.65 56.35 188.65 48.8 187.85 44.4 188.05 35.15 185.35
L 26.8 182.6 Z" fill="none" stroke-miterlimit="10" stroke-linecap="round" stroke-linejoin="miter" stroke-width="0.5" stroke="#000000"></path>
</g>
</g>

<g>
<g>
<g>
<path d="M 44.9 191.85
L 43.55 196.65
Q 42.05 202.25 41.3 206.4 39.95 213.8 37.5 234.1
L 43.15 233.3
Q 45.2 233.1 49.8 233 47.8 214.35 46.95 207.15
L 44.9 191.85 Z" stroke="none" fill="url(#Gradient_1)"></path>
</g>
</g>

<g>
<path d="M 49.8 233
Q 47.8 214.35 46.95 207.15
L 44.9 191.85 43.55 196.65
Q 42.05 202.25 41.3 206.4 39.95 213.8 37.5 234.1
L 43.15 233.3
Q 45.2 233.1 49.8 233 Z" fill="none" stroke-miterlimit="10" stroke-linecap="round" stroke-linejoin="miter" stroke-width="0.5" stroke="#000000"></path>
</g>
</g>

<g>
<g>
<g>
<path d="M 40.2 181.4
Q 39.3 184.05 38.75 186.2
L 41.1 186.8
Q 43.75 187.45 45.25 187.65 47.8 187.95 53.65 188.05 56.15 182.25 58.15 178.9 58.85 177.75 61.2 174.85 63.75 171.65 65 169.75 66.65 167.2 68.45 164.05
L 69.9 161.4
Q 69.35 155.5 68.2 154.8 67.1 154.2 63.7 155
L 60.55 155.95 53.6 162.8
Q 46.2 170.3 43.65 173.8 42 176.1 40.2 181.4 Z" stroke="none" fill="#FFFFFF"></path>
</g>
</g>

<g>
<path d="M 38.75 186.2
Q 39.3 184.05 40.2 181.4 42 176.1 43.65 173.8 46.2 170.3 53.6 162.8
L 60.55 155.95 63.7 155
Q 67.1 154.2 68.2 154.8 69.35 155.5 69.9 161.4
L 68.45 164.05
Q 66.65 167.2 65 169.75 63.75 171.65 61.2 174.85 58.85 177.75 58.15 178.9 56.15 182.25 53.65 188.05 47.8 187.95 45.25 187.65 43.75 187.45 41.1 186.8
L 38.75 186.2 Z" fill="none" stroke-miterlimit="10" stroke-linecap="round" stroke-linejoin="miter" stroke-width="0.5" stroke="#000000"></path>
</g>
</g>

<g>
<g>
<g>
<path d="M 65.6 154.8
L 63.55 155.2 55.35 161.4 51.35 166.05
Q 47 171.2 45.1 173.7 42.7 177.65 39.8 186.35
L 41.6 186.95
Q 43.65 187.55 44.9 187.7 47.05 187.95 52.3 187.95 55.5 180.75 57.4 177.55 59.3 174.4 64.2 167.1
L 68.75 160.45
Q 69.05 155.75 68.4 155.1 67.8 154.5 65.6 154.8 Z" stroke="none" fill="#CC0000"></path>
</g>
</g>

<g>
<path d="M 55.35 161.4
L 51.35 166.05
Q 47 171.2 45.1 173.7 42.7 177.65 39.8 186.35
L 41.6 186.95
Q 43.65 187.55 44.9 187.7 47.05 187.95 52.3 187.95 55.5 180.75 57.4 177.55 59.3 174.4 64.2 167.1
L 68.75 160.45
Q 69.05 155.75 68.4 155.1 67.8 154.5 65.6 154.8
L 63.55 155.2 55.35 161.4 Z" fill="none" stroke-miterlimit="10" stroke-linecap="round" stroke-linejoin="miter" stroke-width="0.5" stroke="#000000"></path>
</g>
</g>

<g>
<g>
<g>
<path d="M 63.55 190.3
L 61.5 188 62.15 189.9
Q 62.85 192.35 63.3 195.05 63.55 196.45 63.75 198.9 63.85 200.3 64 202.95 64.15 204.8 63.9 207.7 63.6 211.15 63.6 212.05 63.65 214.6 64.65 218.5 65.55 224.15 68.3 229.85 68.7 229.55 69.3 229.15 70.55 228.35 71.7 227.9 74.15 227 77.15 226.15 77.95 225.55 78.35 224.8
L 78.65 224.2
Q 77.65 222.6 76 218.25 75.7 217.5 75 214.9 74.25 212.35 73.9 211.4 71.3 205 66.9 195.4 65.8 193.05 63.55 190.3 Z" stroke="none" fill="url(#Gradient_2)"></path>
</g>
</g>

<g>
<path d="M 61.5 188
L 62.15 189.9
Q 62.85 192.35 63.3 195.05 63.55 196.45 63.75 198.9 63.85 200.3 64 202.95 64.15 204.8 63.9 207.7 63.6 211.15 63.6 212.05 63.65 214.6 64.65 218.5 65.55 224.15 68.3 229.85 68.7 229.55 69.3 229.15 70.55 228.35 71.7 227.9 74.15 227 77.15 226.15 77.95 225.55 78.35 224.8
L 78.65 224.2
Q 77.65 222.6 76 218.25 75.7 217.5 75 214.9 74.25 212.35 73.9 211.4 71.3 205 66.9 195.4 65.8 193.05 63.55 190.3
L 61.5 188 Z" fill="none" stroke-miterlimit="10" stroke-linecap="round" stroke-linejoin="miter" stroke-width="0.5" stroke="#000000"></path>
</g>
</g>

<g>
<g>
<g>
<path d="M 31.2 186.75
Q 30.15 189.15 29.35 191.85 28.9 193.45 27.45 199.65 26.1 205.3 25.45 207.35 23.6 213.1 19.25 224.65
L 20.5 224.3
Q 21.85 223.95 22.6 224.05 24 224.2 27.45 226.2 28.2 223.6 28.8 218 29.3 214.1 29.5 211.45 29.85 206.7 29.55 200.8 29.85 196.25 30.95 190.15
L 32.05 184.95 31.2 186.75 Z" stroke="none" fill="url(#Gradient_3)"></path>
</g>
</g>

<g>
<path d="M 19.25 224.65
Q 23.6 213.1 25.45 207.35 26.1 205.3 27.45 199.65 28.9 193.45 29.35 191.85 30.15 189.15 31.2 186.75
L 32.05 184.95 30.95 190.15
Q 29.85 196.25 29.55 200.8 29.85 206.7 29.5 211.45 29.3 214.1 28.8 218 28.2 223.6 27.45 226.2 24 224.2 22.6 224.05 21.85 223.95 20.5 224.3
L 19.25 224.65 Z" fill="none" stroke-miterlimit="10" stroke-linecap="round" stroke-linejoin="miter" stroke-width="0.5" stroke="#000000"></path>
</g>
</g>

<g>
<g>
<g>
<path d="M 36.75 154.05
L 30.55 151.9 35.9 157.55
Q 42.65 163.55 49.6 165.5 56.7 163.3 63.85 157.25
L 69.55 151.65
Q 66.65 152.8 62.65 154 54.7 156.35 49.4 156.6 44.05 156.3 36.75 154.05 Z" stroke="none" fill="url(#Gradient_4)"></path>
</g>
</g>

<g>
<path d="M 30.55 151.9
L 35.9 157.55
Q 42.65 163.55 49.6 165.5 56.7 163.3 63.85 157.25
L 69.55 151.65
Q 66.65 152.8 62.65 154 54.7 156.35 49.4 156.6 44.05 156.3 36.75 154.05
L 30.55 151.9 Z" fill="none" stroke-miterlimit="10" stroke-linecap="round" stroke-linejoin="miter" stroke-width="0.5" stroke="#000000"></path>
</g>
</g>

<g>
<g>
<g>
<path d="M 19.2 191.4
L 15.5 195.5
Q 11.4 200.25 9.4 203.35 6.3 208.2 0.3 220.8
L 6.95 223.65
Q 11.2 211.65 13.3 206.05
L 19.2 191.4 Z" stroke="none" fill="url(#Gradient_5)"></path>
</g>
</g>

<g>
<path d="M 19.2 191.4
L 13.3 206.05
Q 11.2 211.65 6.95 223.65
L 0.3 220.8
Q 6.3 208.2 9.4 203.35 11.4 200.25 15.5 195.5
L 19.2 191.4 Z" fill="none" stroke-miterlimit="10" stroke-linecap="round" stroke-linejoin="miter" stroke-width="0.5" stroke="#000000"></path>
</g>
</g>

<g>
<g>
<path d="M 58.8 129.15
L 59.45 128.2" fill="none" stroke-miterlimit="10" stroke-linecap="round" stroke-linejoin="miter" stroke-width="0.5" stroke="#000000"></path>
</g>
</g>

<g>
<g>
<g>
<path d="M 88.8 197.5
Q 86.85 194.75 82.95 190.1
L 79.45 186 95.45 215.95 98.85 213.6
Q 92.15 202.25 88.8 197.5 Z" stroke="none" fill="url(#Gradient_6)"></path>
</g>
</g>

<g>
<path d="M 79.45 186
L 95.45 215.95 98.85 213.6
Q 92.15 202.25 88.8 197.5 86.85 194.75 82.95 190.1
L 79.45 186 Z" fill="none" stroke-miterlimit="10" stroke-linecap="round" stroke-linejoin="miter" stroke-width="0.5" stroke="#000000"></path>
</g>
</g>

<g>
<g>
<g>
<path d="M 45.05 130.3
Q 45.05 129.3 44.55 128.55 44.05 127.85 43.35 127.85 42.65 127.85 42.15 128.55 41.65 129.3 41.65 130.3 41.65 131.3 42.15 132.05 42.65 132.75 43.35 132.75 44.05 132.75 44.55 132.05 45.05 131.3 45.05 130.3 Z" stroke="none" fill="#000000"></path>
</g>
</g>
</g>

<g>
<g>
<g>
<path d="M 59.2 130.3
Q 59.2 129.3 58.7 128.55 58.15 127.85 57.45 127.85 56.75 127.85 56.25 128.55 55.75 129.3 55.75 130.3 55.75 131.3 56.25 132.05 56.75 132.75 57.45 132.75 58.15 132.75 58.7 132.05 59.2 131.3 59.2 130.3 Z" stroke="none" fill="#000000"></path>
</g>
</g>
</g>

<g>
<g>
<g>
<path d="M 44.5 129.6
Q 44.5 128.6 43.95 128.6 43.35 128.6 43.35 129.6 43.35 130.55 43.95 130.55 44.5 130.55 44.5 129.6 Z" stroke="none" fill="#FFFFFF"></path>
</g>
</g>
</g>

<g>
<g>
<g>
<path d="M 58.75 129.5
Q 58.75 128.5 58.15 128.5 57.9 128.5 57.75 128.8 57.55 129.1 57.55 129.5 57.55 129.9 57.75 130.2 57.9 130.5 58.15 130.5 58.75 130.5 58.75 129.5 Z" stroke="none" fill="#FFFFFF"></path>
</g>
</g>
</g>

<g>
<g>
<g>
<path d="M 48.55 134.8
L 49.6 141.75 60.65 135.9 48.55 134.8 Z" stroke="none" fill="url(#Gradient_7)"></path>
</g>
</g>

<g>
<path d="M 48.55 134.8
L 60.65 135.9 49.6 141.75 48.55 134.8 Z" fill="none" stroke-miterlimit="10" stroke-linecap="round" stroke-linejoin="miter" stroke-width="0.5" stroke="#000000"></path>
</g>
</g>

<g>
<g>
<path d="M 40.8 141
L 40.8 141.85 44.1 144.25
Q 45.5 145.25 48.3 147.5
L 52.95 147.35 60.9 141.9 60.65 141" fill="none" stroke-miterlimit="10" stroke-linecap="round" stroke-linejoin="miter" stroke-width="0.5" stroke="#000000"></path>
</g>
</g>

<g>
<g>
<g>
<path d="M 52.55 147.55
L 48.6 147.5 49.25 149.05
Q 50.1 150.65 51.2 150.95 51.9 150.3 52.3 148.85
L 52.55 147.55 Z" stroke="none" fill="#000000"></path>
</g>
</g>

<g>
<path d="M 48.6 147.5
L 49.25 149.05
Q 50.1 150.65 51.2 150.95 51.9 150.3 52.3 148.85
L 52.55 147.55 48.6 147.5 Z" fill="none" stroke-miterlimit="10" stroke-linecap="round" stroke-linejoin="miter" stroke-width="0.5" stroke="#000000"></path>
</g>
</g>

<g>
<g>
<path d="M 40.6 141.75
L 39.9 141.9" fill="none" stroke-miterlimit="10" stroke-linecap="round" stroke-linejoin="miter" stroke-width="0.5" stroke="#000000"></path>
</g>
</g>

<g>
<g>
<path d="M 61 141.9
L 62 141.9" fill="none" stroke-miterlimit="10" stroke-linecap="round" stroke-linejoin="miter" stroke-width="0.5" stroke="#000000"></path>
</g>
</g>

<g>
<g>
<path d="M 42.15 129.2
L 41.55 127.8" fill="none" stroke-miterlimit="10" stroke-linecap="round" stroke-linejoin="miter" stroke-width="0.5" stroke="#000000"></path>
</g>
</g>

<g>
<g>
<path d="M 47.55 177.05
L 47.95 177.4 47.8 185.35 48.25 185.7" fill="none" stroke-miterlimit="10" stroke-linecap="round" stroke-linejoin="miter" stroke-width="0.5" stroke="#FFFFFF"></path>
</g>
</g>

<g>
<g>
<path d="M 52.55 180.6
L 52 181 44.4 180.7 44.15 180.45" fill="none" stroke-miterlimit="10" stroke-linecap="round" stroke-linejoin="miter" stroke-width="0.5" stroke="#FFFFFF"></path>
</g>
</g>

<g>
<g>
<path d="M 50.6 177.85
L 50.75 178.55 45.2 183 45.25 183.5" fill="none" stroke-miterlimit="10" stroke-linecap="round" stroke-linejoin="miter" stroke-width="0.5" stroke="#FFFFFF"></path>
</g>
</g>

<g>
<g>
<path d="M 50.9 183.3
L 50.15 183.35 45.5 178.35 45.75 177.75" fill="none" stroke-miterlimit="10" stroke-linecap="round" stroke-linejoin="miter" stroke-width="0.5" stroke="#FFFFFF"></path>
</g>
</g>

<g>
<g>
<path d="M 47.9 177.45
L 48.65 177" fill="none" stroke-miterlimit="10" stroke-linecap="round" stroke-linejoin="miter" stroke-width="0.5" stroke="#FFFFFF"></path>
</g>
</g>

<g>
<g>
<path d="M 50.7 178.6
L 51.5 178.65" fill="none" stroke-miterlimit="10" stroke-linecap="round" stroke-linejoin="miter" stroke-width="0.5" stroke="#FFFFFF"></path>
</g>
</g>

<g>
<g>
<path d="M 52 181.05
L 52.4 181.5" fill="none" stroke-miterlimit="10" stroke-linecap="round" stroke-linejoin="miter" stroke-width="0.5" stroke="#FFFFFF"></path>
</g>
</g>

<g>
<g>
<path d="M 50.15 183.4
L 49.95 184" fill="none" stroke-miterlimit="10" stroke-linecap="round" stroke-linejoin="miter" stroke-width="0.5" stroke="#FFFFFF"></path>
</g>
</g>

<g>
<g>
<path d="M 47.75 185.4
L 47.25 185.7" fill="none" stroke-miterlimit="10" stroke-linecap="round" stroke-linejoin="miter" stroke-width="0.5" stroke="#FFFFFF"></path>
</g>
</g>

<g>
<g>
<path d="M 45.25 183.05
L 44.75 182.8" fill="none" stroke-miterlimit="10" stroke-linecap="round" stroke-linejoin="miter" stroke-width="0.5" stroke="#FFFFFF"></path>
</g>
</g>

<g>
<g>
<path d="M 44.35 180.7
L 44 181.05" fill="none" stroke-miterlimit="10" stroke-linecap="round" stroke-linejoin="miter" stroke-width="0.5" stroke="#FFFFFF"></path>
</g>
</g>

<g>
<g>
<path d="M 45.5 178.4
L 44.8 178.45" fill="none" stroke-miterlimit="10" stroke-linecap="round" stroke-linejoin="miter" stroke-width="0.5" stroke="#FFFFFF"></path>
</g>
</g>

<g>
<g>
<path d="M 55.25 165.4
L 55.65 165.8 55.55 173.7 56 174.05" fill="none" stroke-miterlimit="10" stroke-linecap="round" stroke-linejoin="miter" stroke-width="0.5" stroke="#FFFFFF"></path>
</g>
</g>

<g>
<g>
<path d="M 60.3 169
L 59.75 169.4 52.1 169.1 51.9 168.8" fill="none" stroke-miterlimit="10" stroke-linecap="round" stroke-linejoin="miter" stroke-width="0.5" stroke="#FFFFFF"></path>
</g>
</g>

<g>
<g>
<path d="M 58.35 166.2
L 58.45 166.9 52.95 171.35 53 171.85" fill="none" stroke-miterlimit="10" stroke-linecap="round" stroke-linejoin="miter" stroke-width="0.5" stroke="#FFFFFF"></path>
</g>
</g>

<g>
<g>
<path d="M 58.65 171.7
L 57.9 171.7 53.25 166.75 53.45 166.1" fill="none" stroke-miterlimit="10" stroke-linecap="round" stroke-linejoin="miter" stroke-width="0.5" stroke="#FFFFFF"></path>
</g>
</g>

<g>
<g>
<path d="M 55.65 165.8
L 56.35 165.35" fill="none" stroke-miterlimit="10" stroke-linecap="round" stroke-linejoin="miter" stroke-width="0.5" stroke="#FFFFFF"></path>
</g>
</g>

<g>
<g>
<path d="M 58.45 166.95
L 59.25 167" fill="none" stroke-miterlimit="10" stroke-linecap="round" stroke-linejoin="miter" stroke-width="0.5" stroke="#FFFFFF"></path>
</g>
</g>

<g>
<g>
<path d="M 59.75 169.4
L 60.1 169.85" fill="none" stroke-miterlimit="10" stroke-linecap="round" stroke-linejoin="miter" stroke-width="0.5" stroke="#FFFFFF"></path>
</g>
</g>

<g>
<g>
<path d="M 57.85 171.75
L 57.65 172.35" fill="none" stroke-miterlimit="10" stroke-linecap="round" stroke-linejoin="miter" stroke-width="0.5" stroke="#FFFFFF"></path>
</g>
</g>

<g>
<g>
<path d="M 55.45 173.75
L 55 174.05" fill="none" stroke-miterlimit="10" stroke-linecap="round" stroke-linejoin="miter" stroke-width="0.5" stroke="#FFFFFF"></path>
</g>
</g>

<g>
<g>
<path d="M 52.95 171.4
L 52.45 171.15" fill="none" stroke-miterlimit="10" stroke-linecap="round" stroke-linejoin="miter" stroke-width="0.5" stroke="#FFFFFF"></path>
</g>
</g>

<g>
<g>
<path d="M 52.1 169.1
L 51.7 169.4" fill="none" stroke-miterlimit="10" stroke-linecap="round" stroke-linejoin="miter" stroke-width="0.5" stroke="#FFFFFF"></path>
</g>
</g>

<g>
<g>
<path d="M 53.25 166.75
L 52.55 166.8" fill="none" stroke-miterlimit="10" stroke-linecap="round" stroke-linejoin="miter" stroke-width="0.5" stroke="#FFFFFF"></path>
</g>
</g>

<g>
<g>
<g>
<path d="M 47.65 23.1
L 49.2 23.1
Q 48.55 20.55 47.1 18.85 45.55 17 42.3 13.4 39 9.75 38.25 8.85 37.15 7.5 34.65 7.4
L 32.4 7.6 31.6 11.15 33.4 9.95
Q 35.45 8.9 36.55 9.7 38.25 11 41.25 14.15 44.2 17.3 46.35 20.05 47.5 21.55 47.65 23.1 Z" stroke="none" fill="#009900"></path>
</g>
</g>

<g>
<path d="M 47.65 23.1
Q 47.5 21.55 46.35 20.05 44.2 17.3 41.25 14.15 38.25 11 36.55 9.7 35.45 8.9 33.4 9.95
L 31.6 11.15 32.4 7.6 34.65 7.4
Q 37.15 7.5 38.25 8.85 39 9.75 42.3 13.4 45.55 17 47.1 18.85 48.55 20.55 49.2 23.1
L 47.65 23.1 Z" fill="none" stroke-miterlimit="10" stroke-linecap="round" stroke-linejoin="miter" stroke-width="0.5" stroke="#000000"></path>
</g>
</g>

<g>
<g>
<g>
<path d="M 60.9 9.8
Q 61.95 9 64 10.05 65 10.6 65.8 11.25
L 65 7.75
Q 64 7.5 62.75 7.55 60.3 7.6 59.2 8.95 58.35 9.95 55.2 13.45 51.9 17.15 50.45 18.85 49.55 19.9 48.9 21.6 48.55 22.45 48.4 23.05
L 49.95 23.05
Q 50 22.65 50.15 22.1 50.5 20.95 51.2 20.05 53.35 17.35 56.3 14.2 59.25 11.1 60.9 9.8 Z" stroke="none" fill="#009900"></path>
</g>
</g>

<g>
<path d="M 49.95 23.05
Q 50 22.65 50.15 22.1 50.5 20.95 51.2 20.05 53.35 17.35 56.3 14.2 59.25 11.1 60.9 9.8 61.95 9 64 10.05 65 10.6 65.8 11.25
L 65 7.75
Q 64 7.5 62.75 7.55 60.3 7.6 59.2 8.95 58.35 9.95 55.2 13.45 51.9 17.15 50.45 18.85 49.55 19.9 48.9 21.6 48.55 22.45 48.4 23.05
L 49.95 23.05 Z" fill="none" stroke-miterlimit="10" stroke-linecap="round" stroke-linejoin="miter" stroke-width="0.5" stroke="#000000"></path>
</g>
</g>

<g>
<g>
<g>
<path d="M 48.25 23.3
L 49.7 23.85
Q 50 21.25 49.3 19.15 48.6 17.25 46.75 12.35 45.05 8.05 44.6 6.65 44.05 4.95 41.75 4
L 39.55 3.4 37.5 6.45 39.65 5.95
Q 41.95 5.7 42.65 6.8 43.75 8.55 45.45 12.65 47.1 16.6 48.15 20 48.7 21.8 48.25 23.3 Z" stroke="none" fill="#009900"></path>
</g>
</g>

<g>
<path d="M 48.25 23.3
Q 48.7 21.8 48.15 20 47.1 16.6 45.45 12.65 43.75 8.55 42.65 6.8 41.95 5.7 39.65 5.95
L 37.5 6.45 39.55 3.4 41.75 4
Q 44.05 4.95 44.6 6.65 45.05 8.05 46.75 12.35 48.6 17.25 49.3 19.15 50 21.25 49.7 23.85
L 48.25 23.3 Z" fill="none" stroke-miterlimit="10" stroke-linecap="round" stroke-linejoin="miter" stroke-width="0.5" stroke="#000000"></path>
</g>
</g>

<g>
<g>
<g>
<path d="M 65.4 15.6
Q 66.7 15.25 68.2 16.95 68.95 17.85 69.45 18.75
L 69.95 15.15
Q 69.1 14.6 67.95 14.15 65.6 13.35 64.1 14.2 62.9 14.9 58.75 17 54.3 19.3 52.4 20.35 51.2 21 49.95 22.3
L 48.95 23.5 50.4 24.05 50.95 23.25
Q 51.7 22.35 52.65 21.75 55.6 19.95 59.5 18.1 63.4 16.2 65.4 15.6 Z" stroke="none" fill="#009900"></path>
</g>
</g>

<g>
<path d="M 50.4 24.05
L 50.95 23.25
Q 51.7 22.35 52.65 21.75 55.6 19.95 59.5 18.1 63.4 16.2 65.4 15.6 66.7 15.25 68.2 16.95 68.95 17.85 69.45 18.75
L 69.95 15.15
Q 69.1 14.6 67.95 14.15 65.6 13.35 64.1 14.2 62.9 14.9 58.75 17 54.3 19.3 52.4 20.35 51.2 21 49.95 22.3
L 48.95 23.5 50.4 24.05 Z" fill="none" stroke-miterlimit="10" stroke-linecap="round" stroke-linejoin="miter" stroke-width="0.5" stroke="#000000"></path>
</g>
</g>

<g>
<g>
<g>
<path d="M 47.8 23.8
L 49.3 23.3
Q 47.9 21.1 45.95 19.95 44.05 18.8 39.65 16.35 35.5 14.05 34.35 13.35 32.9 12.4 30.5 13.15
L 28.4 14.05 28.8 17.7 30.15 15.95
Q 31.7 14.3 33 14.7 34.95 15.35 38.85 17.4 42.65 19.4 45.65 21.35 47.2 22.4 47.8 23.8 Z" stroke="none" fill="#CC0000"></path>
</g>
</g>

<g>
<path d="M 47.8 23.8
Q 47.2 22.4 45.65 21.35 42.65 19.4 38.85 17.4 34.95 15.35 33 14.7 31.7 14.3 30.15 15.95
L 28.8 17.7 28.4 14.05 30.5 13.15
Q 32.9 12.4 34.35 13.35 35.5 14.05 39.65 16.35 44.05 18.8 45.95 19.95 47.9 21.1 49.3 23.3
L 47.8 23.8 Z" fill="none" stroke-miterlimit="10" stroke-linecap="round" stroke-linejoin="miter" stroke-width="0.5" stroke="#000000"></path>
</g>
</g>

<g>
<g>
<g>
<path d="M 54.2 6.75
Q 53.7 8.1 51.9 12.3 49.85 17 49.1 18.9 48.3 20.95 48.5 23.55
L 50 23.05
Q 49.6 21.55 50.2 19.8 51.4 16.5 53.15 12.65 54.95 8.7 56.1 6.95 56.85 5.85 59.1 6.2 60.25 6.4 61.2 6.8
L 59.3 3.7
Q 58.3 3.8 57.15 4.25 54.85 5.1 54.2 6.75 Z" stroke="none" fill="#CC0000"></path>
</g>
</g>

<g>
<path d="M 50 23.05
Q 49.6 21.55 50.2 19.8 51.4 16.5 53.15 12.65 54.95 8.7 56.1 6.95 56.85 5.85 59.1 6.2 60.25 6.4 61.2 6.8
L 59.3 3.7
Q 58.3 3.8 57.15 4.25 54.85 5.1 54.2 6.75 53.7 8.1 51.9 12.3 49.85 17 49.1 18.9 48.3 20.95 48.5 23.55
L 50 23.05 Z" fill="none" stroke-miterlimit="10" stroke-linecap="round" stroke-linejoin="miter" stroke-width="0.5" stroke="#000000"></path>
</g>
</g>

<g>
<g>
<g>
<path d="M 61.6 9.55
Q 62.35 7.95 61.35 5.65
L 60.15 3.7 56.6 4.55 58.5 5.65
Q 60.35 7.05 60.1 8.35 59.7 10.4 58.15 14.55 56.6 18.55 55.05 21.75 54.25 23.4 52.9 24.2
L 53.6 25.6
Q 55.55 23.95 56.5 21.9 58.25 17.9 61.6 9.55 Z" stroke="none" fill="#009900"></path>
</g>
</g>

<g>
<path d="M 52.9 24.2
Q 54.25 23.4 55.05 21.75 56.6 18.55 58.15 14.55 59.7 10.4 60.1 8.35 60.35 7.05 58.5 5.65
L 56.6 4.55 60.15 3.7 61.35 5.65
Q 62.35 7.95 61.6 9.55 58.25 17.9 56.5 21.9 55.55 23.95 53.6 25.6
L 52.9 24.2 Z" fill="none" stroke-miterlimit="10" stroke-linecap="round" stroke-linejoin="miter" stroke-width="0.5" stroke="#000000"></path>
</g>
</g>

<g>
<g>
<g>
<path d="M 53.25 24.85
L 53.95 26.25 54.9 26.05
Q 56.05 25.85 57.15 26.1 60.55 26.8 64.65 28.1 68.75 29.4 70.65 30.35 71.8 30.95 71.75 33.25 71.7 34.4 71.45 35.4
L 74.3 33.1
Q 74.05 32.1 73.5 31 72.35 28.85 70.65 28.45 62.1 25.95 57.95 24.9 56.6 24.55 54.8 24.65
L 53.25 24.85 Z" stroke="none" fill="#009900"></path>
</g>
</g>

<g>
<path d="M 53.95 26.25
L 54.9 26.05
Q 56.05 25.85 57.15 26.1 60.55 26.8 64.65 28.1 68.75 29.4 70.65 30.35 71.8 30.95 71.75 33.25 71.7 34.4 71.45 35.4
L 74.3 33.1
Q 74.05 32.1 73.5 31 72.35 28.85 70.65 28.45 62.1 25.95 57.95 24.9 56.6 24.55 54.8 24.65
L 53.25 24.85 53.95 26.25 Z" fill="none" stroke-miterlimit="10" stroke-linecap="round" stroke-linejoin="miter" stroke-width="0.5" stroke="#000000"></path>
</g>
</g>

<g>
<g>
<g>
<path d="M 62.15 18.7
Q 65.45 15.1 66.35 14.25 67.6 13.05 67.5 10.55
L 67.1 8.3 63.45 7.8 64.85 9.55
Q 66.05 11.5 65.35 12.6 64.25 14.4 61.35 17.65 58.45 20.95 55.9 23.3 55.05 24.1 53.95 24.55
L 53 24.85 53.1 26.4 54.55 25.8
Q 56.2 24.95 57.15 23.95 58.8 22.3 62.15 18.7 Z" stroke="none" fill="#CC0000"></path>
</g>
</g>

<g>
<path d="M 53 24.85
L 53.95 24.55
Q 55.05 24.1 55.9 23.3 58.45 20.95 61.35 17.65 64.25 14.4 65.35 12.6 66.05 11.5 64.85 9.55
L 63.45 7.8 67.1 8.3 67.5 10.55
Q 67.6 13.05 66.35 14.25 65.45 15.1 62.15 18.7 58.8 22.3 57.15 23.95 56.2 24.95 54.55 25.8
L 53.1 26.4 53 24.85 Z" fill="none" stroke-miterlimit="10" stroke-linecap="round" stroke-linejoin="miter" stroke-width="0.5" stroke="#000000"></path>
</g>
</g>

<g>
<g>
<g>
<path d="M 53.1 25.6
L 53.2 27.15 54.15 27.3
Q 55.35 27.55 56.3 28.15 59.2 30 62.6 32.7 65.95 35.35 67.35 36.9 68.25 37.9 67.4 40 66.95 41.05 66.35 41.9
L 69.8 40.8
Q 69.95 39.8 69.8 38.55 69.5 36.1 68.05 35.15 66.9 34.4 63.2 31.55 59.25 28.55 57.45 27.3 56.3 26.5 54.6 25.95
L 53.1 25.6 Z" stroke="none" fill="#CC0000"></path>
</g>
</g>

<g>
<path d="M 53.2 27.15
L 54.15 27.3
Q 55.35 27.55 56.3 28.15 59.2 30 62.6 32.7 65.95 35.35 67.35 36.9 68.25 37.9 67.4 40 66.95 41.05 66.35 41.9
L 69.8 40.8
Q 69.95 39.8 69.8 38.55 69.5 36.1 68.05 35.15 66.9 34.4 63.2 31.55 59.25 28.55 57.45 27.3 56.3 26.5 54.6 25.95
L 53.1 25.6 53.2 27.15 Z" fill="none" stroke-miterlimit="10" stroke-linecap="round" stroke-linejoin="miter" stroke-width="0.5" stroke="#000000"></path>
</g>
</g>

<g>
<g>
<g>
<path d="M 55.85 8
Q 56.05 6.25 54.35 4.45
L 52.6 2.95 49.5 4.9 51.65 5.35
Q 53.85 6.05 54.05 7.35 54.3 9.45 54.15 13.8 54 18.15 53.55 21.65 53.35 23.5 52.3 24.65
L 53.4 25.8
Q 54.75 23.55 54.95 21.35 55.15 19.15 55.45 14.1 55.7 9.35 55.85 8 Z" stroke="none" fill="#CC0000"></path>
</g>
</g>

<g>
<path d="M 52.3 24.65
Q 53.35 23.5 53.55 21.65 54 18.15 54.15 13.8 54.3 9.45 54.05 7.35 53.85 6.05 51.65 5.35
L 49.5 4.9 52.6 2.95 54.35 4.45
Q 56.05 6.25 55.85 8 55.7 9.35 55.45 14.1 55.15 19.15 54.95 21.35 54.75 23.55 53.4 25.8
L 52.3 24.65 Z" fill="none" stroke-miterlimit="10" stroke-linecap="round" stroke-linejoin="miter" stroke-width="0.5" stroke="#000000"></path>
</g>
</g>

<g>
<g>
<g>
<path d="M 70.5 23
Q 69.2 23.1 64.5 23.3 59.55 23.5 57.3 23.7 55.95 23.85 54.25 24.55
L 52.85 25.2 53.95 26.3 54.8 25.8
Q 55.85 25.25 56.95 25.1 60.4 24.7 64.7 24.6 69.05 24.5 71.1 24.8 72.4 25 73.1 27.15 73.45 28.25 73.5 29.3
L 75.45 26.25
Q 74.9 25.35 74 24.5 72.2 22.8 70.5 23 Z" stroke="none" fill="#CC0000"></path>
</g>
</g>

<g>
<path d="M 53.95 26.3
L 54.8 25.8
Q 55.85 25.25 56.95 25.1 60.4 24.7 64.7 24.6 69.05 24.5 71.1 24.8 72.4 25 73.1 27.15 73.45 28.25 73.5 29.3
L 75.45 26.25
Q 74.9 25.35 74 24.5 72.2 22.8 70.5 23 69.2 23.1 64.5 23.3 59.55 23.5 57.3 23.7 55.95 23.85 54.25 24.55
L 52.85 25.2 53.95 26.3 Z" fill="none" stroke-miterlimit="10" stroke-linecap="round" stroke-linejoin="miter" stroke-width="0.5" stroke="#000000"></path>
</g>
</g>

<g>
<g>
<g>
<path d="M 49.35 27.15
L 49.35 25.6
Q 46.85 26.2 45.1 27.6 43.3 29.05 39.6 32.35 35.95 35.5 34.95 36.3 33.6 37.4 33.45 39.9 33.4 41.15 33.6 42.15
L 37.15 43
Q 36.5 42.2 35.95 41.15 34.95 39.1 35.75 38.05 37.05 36.4 40.3 33.45 43.45 30.5 46.3 28.4 47.8 27.25 49.35 27.15 Z" stroke="none" fill="#CC0000"></path>
</g>
</g>

<g>
<path d="M 49.35 27.15
Q 47.8 27.25 46.3 28.4 43.45 30.5 40.3 33.45 37.05 36.4 35.75 38.05 34.95 39.1 35.95 41.15 36.5 42.2 37.15 43
L 33.6 42.15
Q 33.4 41.15 33.45 39.9 33.6 37.4 34.95 36.3 35.95 35.5 39.6 32.35 43.3 29.05 45.1 27.6 46.85 26.2 49.35 25.6
L 49.35 27.15 Z" fill="none" stroke-miterlimit="10" stroke-linecap="round" stroke-linejoin="miter" stroke-width="0.5" stroke="#000000"></path>
</g>
</g>

<g>
<g>
<g>
<path d="M 49.3 26.4
L 49.35 24.85
Q 47.8 24.7 46.4 23.55 43.7 21.35 40.6 18.35 37.55 15.35 36.3 13.65 35.5 12.6 36.6 10.6 37.15 9.6 37.85 8.8
L 34.3 9.55 34.05 11.8
Q 34.1 14.25 35.4 15.35 36.5 16.25 39.85 19.45 43.55 22.9 45.15 24.3 46.85 25.75 49.3 26.4 Z" stroke="none" fill="#009900"></path>
</g>
</g>

<g>
<path d="M 49.35 24.85
Q 47.8 24.7 46.4 23.55 43.7 21.35 40.6 18.35 37.55 15.35 36.3 13.65 35.5 12.6 36.6 10.6 37.15 9.6 37.85 8.8
L 34.3 9.55 34.05 11.8
Q 34.1 14.25 35.4 15.35 36.5 16.25 39.85 19.45 43.55 22.9 45.15 24.3 46.85 25.75 49.3 26.4
L 49.35 24.85 Z" fill="none" stroke-miterlimit="10" stroke-linecap="round" stroke-linejoin="miter" stroke-width="0.5" stroke="#000000"></path>
</g>
</g>

<g>
<g>
<g>
<path d="M 49.55 26.55
L 50.15 25.1
Q 47.55 24.75 45.4 25.45 43.25 26.15 38.6 27.9 34.1 29.55 32.85 29.95 31.15 30.45 30.15 32.75 29.65 33.85 29.5 34.9
L 32.5 37
Q 32.15 36 32.05 34.85 31.85 32.55 33 31.85 34.8 30.8 38.85 29.15 42.9 27.6 46.3 26.6 48.05 26.1 49.55 26.55 Z" stroke="none" fill="#009900"></path>
</g>
</g>

<g>
<path d="M 49.55 26.55
Q 48.05 26.1 46.3 26.6 42.9 27.6 38.85 29.15 34.8 30.8 33 31.85 31.85 32.55 32.05 34.85 32.15 36 32.5 37
L 29.5 34.9
Q 29.65 33.85 30.15 32.75 31.15 30.45 32.85 29.95 34.1 29.55 38.6 27.9 43.25 26.15 45.4 25.45 47.55 24.75 50.15 25.1
L 49.55 26.55 Z" fill="none" stroke-miterlimit="10" stroke-linecap="round" stroke-linejoin="miter" stroke-width="0.5" stroke="#000000"></path>
</g>
</g>

<g>
<g>
<g>
<path d="M 41.75 4.7
Q 41.15 5.55 40.75 6.75 39.9 9.05 40.75 10.55 41.4 11.7 43.45 15.95 45.65 20.4 46.7 22.35 47.7 24.3 49.8 25.85
L 50.4 24.4
Q 49 23.7 48.1 22.1 46.35 19.1 44.55 15.2 42.7 11.25 42.15 9.25 41.8 8 43.55 6.55 44.4 5.8 45.35 5.3
L 41.75 4.7 Z" stroke="none" fill="#CC0000"></path>
</g>
</g>

<g>
<path d="M 50.4 24.4
Q 49 23.7 48.1 22.1 46.35 19.1 44.55 15.2 42.7 11.25 42.15 9.25 41.8 8 43.55 6.55 44.4 5.8 45.35 5.3
L 41.75 4.7
Q 41.15 5.55 40.75 6.75 39.9 9.05 40.75 10.55 41.4 11.7 43.45 15.95 45.65 20.4 46.7 22.35 47.7 24.3 49.8 25.85
L 50.4 24.4 Z" fill="none" stroke-miterlimit="10" stroke-linecap="round" stroke-linejoin="miter" stroke-width="0.5" stroke="#000000"></path>
</g>
</g>

<g>
<g>
<g>
<path d="M 50.05 27
L 49.6 25.5
Q 47.4 26.9 46.2 28.8 45 30.65 42.5 35.05 40.15 39.15 39.4 40.25 38.45 41.75 39.1 44.15 39.45 45.35 40 46.25
L 43.65 45.9
Q 42.75 45.35 41.9 44.55 40.25 42.95 40.7 41.65 41.4 39.65 43.5 35.85 45.6 32.05 47.6 29.1 48.65 27.6 50.05 27 Z" stroke="none" fill="#CC0000"></path>
</g>
</g>

<g>
<path d="M 50.05 27
Q 48.65 27.6 47.6 29.1 45.6 32.05 43.5 35.85 41.4 39.65 40.7 41.65 40.25 42.95 41.9 44.55 42.75 45.35 43.65 45.9
L 40 46.25
Q 39.45 45.35 39.1 44.15 38.45 41.75 39.4 40.25 40.15 39.15 42.5 35.05 45 30.65 46.2 28.8 47.4 26.9 49.6 25.5
L 50.05 27 Z" fill="none" stroke-miterlimit="10" stroke-linecap="round" stroke-linejoin="miter" stroke-width="0.5" stroke="#000000"></path>
</g>
</g>

<g>
<g>
<g>
<path d="M 49.8 26.3
L 49.35 24.8
Q 47.85 25.15 46.1 24.55 42.85 23.35 38.95 21.5 35.1 19.6 33.35 18.4 32.3 17.65 32.65 15.4
L 33.25 13.3 30.15 15.15 30.65 17.35
Q 31.5 19.7 33.1 20.3 34.25 20.75 38.6 22.75 43.05 24.75 45.2 25.6 47.25 26.45 49.8 26.3 Z" stroke="none" fill="#CC0000"></path>
</g>
</g>

<g>
<path d="M 49.35 24.8
Q 47.85 25.15 46.1 24.55 42.85 23.35 38.95 21.5 35.1 19.6 33.35 18.4 32.3 17.65 32.65 15.4
L 33.25 13.3 30.15 15.15 30.65 17.35
Q 31.5 19.7 33.1 20.3 34.25 20.75 38.6 22.75 43.05 24.75 45.2 25.6 47.25 26.45 49.8 26.3
L 49.35 24.8 Z" fill="none" stroke-miterlimit="10" stroke-linecap="round" stroke-linejoin="miter" stroke-width="0.5" stroke="#000000"></path>
</g>
</g>

<g>
<g>
<g>
<path d="M 51.4 27.4
L 50.15 26.5
Q 49.1 27.6 47.35 28.1 44 28.95 39.7 29.65 35.45 30.3 33.4 30.3 32.05 30.3 31.1 28.25
L 30.4 26.15 28.85 29.45 30.5 30.95
Q 32.55 32.4 34.25 32 35.55 31.7 40.15 30.85 45.05 29.95 47.2 29.5 49.35 29 51.4 27.4 Z" stroke="none" fill="#009900"></path>
</g>
</g>

<g>
<path d="M 50.15 26.5
Q 49.1 27.6 47.35 28.1 44 28.95 39.7 29.65 35.45 30.3 33.4 30.3 32.05 30.3 31.1 28.25
L 30.4 26.15 28.85 29.45 30.5 30.95
Q 32.55 32.4 34.25 32 35.55 31.7 40.15 30.85 45.05 29.95 47.2 29.5 49.35 29 51.4 27.4
L 50.15 26.5 Z" fill="none" stroke-miterlimit="10" stroke-linecap="round" stroke-linejoin="miter" stroke-width="0.5" stroke="#000000"></path>
</g>
</g>

<g>
<g>
<g>
<path d="M 51.2 26.7
L 50.4 25.35
Q 49 26.05 47.2 25.85 43.7 25.45 39.55 24.6 35.25 23.7 33.35 22.95 32.15 22.5 31.95 20.2
L 32.05 18.05 29.45 20.55 30.45 22.55
Q 31.85 24.65 33.55 24.85 34.85 25.05 39.5 25.9 44.3 26.8 46.55 27.15 48.75 27.45 51.2 26.7 Z" stroke="none" fill="#009900"></path>
</g>
</g>

<g>
<path d="M 50.4 25.35
Q 49 26.05 47.2 25.85 43.7 25.45 39.55 24.6 35.25 23.7 33.35 22.95 32.15 22.5 31.95 20.2
L 32.05 18.05 29.45 20.55 30.45 22.55
Q 31.85 24.65 33.55 24.85 34.85 25.05 39.5 25.9 44.3 26.8 46.55 27.15 48.75 27.45 51.2 26.7
L 50.4 25.35 Z" fill="none" stroke-miterlimit="10" stroke-linecap="round" stroke-linejoin="miter" stroke-width="0.5" stroke="#000000"></path>
</g>
</g>

<g>
<g>
<g>
<path d="M 52.55 30.45
Q 52.15 29.35 52.2 28.15
L 52.3 27.15 50.8 26.65 50.8 28.2
Q 50.9 30.05 51.45 31.35 53 35.4 56.6 43.65 57.25 45.3 59.55 46.2 60.7 46.65 61.75 46.75
L 63.7 43.6
Q 62.7 44 61.55 44.2 59.25 44.55 58.5 43.4 57.3 41.65 55.5 37.7 53.65 33.7 52.55 30.45 Z" stroke="none" fill="#CC0000"></path>
</g>
</g>

<g>
<path d="M 52.3 27.15
L 52.2 28.15
Q 52.15 29.35 52.55 30.45 53.65 33.7 55.5 37.7 57.3 41.65 58.5 43.4 59.25 44.55 61.55 44.2 62.7 44 63.7 43.6
L 61.75 46.75
Q 60.7 46.65 59.55 46.2 57.25 45.3 56.6 43.65 53 35.4 51.45 31.35 50.9 30.05 50.8 28.2
L 50.8 26.65 52.3 27.15 Z" fill="none" stroke-miterlimit="10" stroke-linecap="round" stroke-linejoin="miter" stroke-width="0.5" stroke="#000000"></path>
</g>
</g>

<g>
<g>
<g>
<path d="M 51.55 26.95
L 50.1 26.45
Q 49.5 27.85 47.95 28.9 45 30.85 41.25 32.8 37.4 34.85 35.45 35.45 34.2 35.9 32.65 34.25
L 31.3 32.5 30.9 36.15 32.95 37.05
Q 35.35 37.75 36.8 36.8 37.8 36.15 42.05 33.85 46.25 31.45 48.25 30.25 50.15 29.1 51.55 26.95 Z" stroke="none" fill="#CC0000"></path>
</g>
</g>

<g>
<path d="M 50.1 26.45
Q 49.5 27.85 47.95 28.9 45 30.85 41.25 32.8 37.4 34.85 35.45 35.45 34.2 35.9 32.65 34.25
L 31.3 32.5 30.9 36.15 32.95 37.05
Q 35.35 37.75 36.8 36.8 37.8 36.15 42.05 33.85 46.25 31.45 48.25 30.25 50.15 29.1 51.55 26.95
L 50.1 26.45 Z" fill="none" stroke-miterlimit="10" stroke-linecap="round" stroke-linejoin="miter" stroke-width="0.5" stroke="#000000"></path>
</g>
</g>

<g>
<g>
<g>
<path d="M 48.5 23.75
L 48.8 22.25
Q 46.2 22.35 44.25 23.4 42.3 24.45 37.95 27.05 33.9 29.45 32.65 30.1 31.1 30.9 30.5 33.35 30.25 34.55 30.25 35.6
L 33.6 37.1
Q 33.1 36.15 32.8 35.05 32.15 32.85 33.15 31.95 34.7 30.6 38.45 28.25 42.1 26 45.3 24.4 46.95 23.6 48.5 23.75 Z" stroke="none" fill="#009900"></path>
</g>
</g>

<g>
<path d="M 48.5 23.75
Q 46.95 23.6 45.3 24.4 42.1 26 38.45 28.25 34.7 30.6 33.15 31.95 32.15 32.85 32.8 35.05 33.1 36.15 33.6 37.1
L 30.25 35.6
Q 30.25 34.55 30.5 33.35 31.1 30.9 32.65 30.1 33.9 29.45 37.95 27.05 42.3 24.45 44.25 23.4 46.2 22.35 48.8 22.25
L 48.5 23.75 Z" fill="none" stroke-miterlimit="10" stroke-linecap="round" stroke-linejoin="miter" stroke-width="0.5" stroke="#000000"></path>
</g>
</g>

<g>
<g>
<g>
<path d="M 48.6 23
L 48.95 21.5
Q 47.45 21.1 46.25 19.7 44 17 41.55 13.5 39.05 9.95 38.15 8.1 37.6 6.9 39.05 5.15 39.75 4.25 40.6 3.6
L 36.95 3.65
Q 36.55 4.6 36.3 5.8 35.9 8.25 37 9.6 37.8 10.55 40.6 14.45 43.5 18.35 44.95 20.15 46.3 21.9 48.6 23 Z" stroke="none" fill="#009900"></path>
</g>
</g>

<g>
<path d="M 48.95 21.5
Q 47.45 21.1 46.25 19.7 44 17 41.55 13.5 39.05 9.95 38.15 8.1 37.6 6.9 39.05 5.15 39.75 4.25 40.6 3.6
L 36.95 3.65
Q 36.55 4.6 36.3 5.8 35.9 8.25 37 9.6 37.8 10.55 40.6 14.45 43.5 18.35 44.95 20.15 46.3 21.9 48.6 23
L 48.95 21.5 Z" fill="none" stroke-miterlimit="10" stroke-linecap="round" stroke-linejoin="miter" stroke-width="0.5" stroke="#000000"></path>
</g>
</g>

<g>
<g>
<g>
<path d="M 48.8 23.2
L 49.65 21.85
Q 47.2 21.05 44.95 21.35 34.55 23.1 31.8 23.45 30.05 23.65 28.65 25.7 27.9 26.75 27.55 27.75
L 30.15 30.35
Q 30 29.3 30.1 28.15 30.3 25.8 31.55 25.35 33.55 24.65 37.85 23.8 42.1 23 45.6 22.65 47.45 22.45 48.8 23.2 Z" stroke="none" fill="#CC0000"></path>
</g>
</g>

<g>
<path d="M 48.8 23.2
Q 47.45 22.45 45.6 22.65 42.1 23 37.85 23.8 33.55 24.65 31.55 25.35 30.3 25.8 30.1 28.15 30 29.3 30.15 30.35
L 27.55 27.75
Q 27.9 26.75 28.65 25.7 30.05 23.65 31.8 23.45 34.55 23.1 44.95 21.35 47.2 21.05 49.65 21.85
L 48.8 23.2 Z" fill="none" stroke-miterlimit="10" stroke-linecap="round" stroke-linejoin="miter" stroke-width="0.5" stroke="#000000"></path>
</g>
</g>

<g>
<g>
<g>
<path d="M 43.85 2.1
Q 42.6 4.2 43.15 5.85 44 8.5 46.75 18.55 47.45 20.65 49.2 22.55
L 50.05 21.25
Q 48.8 20.3 48.2 18.6 47.05 15.3 46 11.15 44.95 6.95 44.75 4.85 44.65 3.55 46.6 2.4 47.6 1.8 48.6 1.5
L 45.2 0.3
Q 44.45 1.05 43.85 2.1 Z" stroke="none" fill="#CC0000"></path>
</g>
</g>

<g>
<path d="M 50.05 21.25
Q 48.8 20.3 48.2 18.6 47.05 15.3 46 11.15 44.95 6.95 44.75 4.85 44.65 3.55 46.6 2.4 47.6 1.8 48.6 1.5
L 45.2 0.3
Q 44.45 1.05 43.85 2.1 42.6 4.2 43.15 5.85 44 8.5 46.75 18.55 47.45 20.65 49.2 22.55
L 50.05 21.25 Z" fill="none" stroke-miterlimit="10" stroke-linecap="round" stroke-linejoin="miter" stroke-width="0.5" stroke="#000000"></path>
</g>
</g>

<g>
<g>
<g>
<path d="M 49.25 23.75
L 49.05 22.2
Q 46.65 23.15 45.1 24.8 43.6 26.45 40.3 30.25 37.25 33.8 36.3 34.8 35.1 36.1 35.3 38.55 35.45 39.8 35.8 40.8
L 39.45 41.15
Q 38.65 40.45 38 39.5 36.7 37.6 37.35 36.45 38.4 34.65 41.15 31.25 43.9 27.9 46.4 25.35 47.75 24.05 49.25 23.75 Z" stroke="none" fill="#CC0000"></path>
</g>
</g>

<g>
<path d="M 49.25 23.75
Q 47.75 24.05 46.4 25.35 43.9 27.9 41.15 31.25 38.4 34.65 37.35 36.45 36.7 37.6 38 39.5 38.65 40.45 39.45 41.15
L 35.8 40.8
Q 35.45 39.8 35.3 38.55 35.1 36.1 36.3 34.8 37.25 33.8 40.3 30.25 43.6 26.45 45.1 24.8 46.65 23.15 49.05 22.2
L 49.25 23.75 Z" fill="none" stroke-miterlimit="10" stroke-linecap="round" stroke-linejoin="miter" stroke-width="0.5" stroke="#000000"></path>
</g>
</g>

<g>
<g>
<g>
<path d="M 49.1 23
L 48.95 21.45
Q 47.4 21.55 45.8 20.6 42.75 18.75 39.35 16.25 35.85 13.65 34.45 12.2 33.5 11.25 34.3 9.15 34.7 8.1 35.25 7.2
L 31.85 8.4 31.95 10.65
Q 32.35 13.1 33.8 14.05 34.95 14.75 38.8 17.45 42.85 20.25 44.7 21.45 46.55 22.7 49.1 23 Z" stroke="none" fill="#CC0000"></path>
</g>
</g>

<g>
<path d="M 48.95 21.45
Q 47.4 21.55 45.8 20.6 42.75 18.75 39.35 16.25 35.85 13.65 34.45 12.2 33.5 11.25 34.3 9.15 34.7 8.1 35.25 7.2
L 31.85 8.4 31.95 10.65
Q 32.35 13.1 33.8 14.05 34.95 14.75 38.8 17.45 42.85 20.25 44.7 21.45 46.55 22.7 49.1 23
L 48.95 21.45 Z" fill="none" stroke-miterlimit="10" stroke-linecap="round" stroke-linejoin="miter" stroke-width="0.5" stroke="#000000"></path>
</g>
</g>

<g>
<g>
<g>
<path d="M 70.5 23.2
Q 68.5 23.75 64.15 24.1 59.8 24.5 56.3 24.45 55.1 24.45 54 24.05
L 53.15 23.6 52.15 24.8 53.65 25.35
Q 55.4 25.85 56.75 25.8 61.1 25.7 70.1 25.1 71.85 25.05 73.5 23.2 74.3 22.25 74.75 21.3
L 72.45 18.4 72.25 20.6
Q 71.8 22.9 70.5 23.2 Z" stroke="none" fill="#CC0000"></path>
</g>
</g>

<g>
<path d="M 53.15 23.6
L 54 24.05
Q 55.1 24.45 56.3 24.45 59.8 24.5 64.15 24.1 68.5 23.75 70.5 23.2 71.8 22.9 72.25 20.6
L 72.45 18.4 74.75 21.3
Q 74.3 22.25 73.5 23.2 71.85 25.05 70.1 25.1 61.1 25.7 56.75 25.8 55.4 25.85 53.65 25.35
L 52.15 24.8 53.15 23.6 Z" fill="none" stroke-miterlimit="10" stroke-linecap="round" stroke-linejoin="miter" stroke-width="0.5" stroke="#000000"></path>
</g>
</g>

<g>
<g>
<g>
<path d="M 53.25 24.65
L 52.6 23.95 51.25 24.75 52.4 25.75
Q 53.85 26.9 55.2 27.35 57.2 28.05 62.1 29.55 66.6 30.9 67.9 31.4 69.55 32.05 71.75 30.85 72.85 30.25 73.6 29.5
L 72.45 26
Q 72.1 27 71.5 28 70.3 29.95 68.95 29.8 66.9 29.6 62.65 28.4 58.5 27.2 55.2 25.9 54.15 25.45 53.25 24.65 Z" stroke="none" fill="#009900"></path>
</g>
</g>

<g>
<path d="M 52.6 23.95
L 53.25 24.65
Q 54.15 25.45 55.2 25.9 58.5 27.2 62.65 28.4 66.9 29.6 68.95 29.8 70.3 29.95 71.5 28 72.1 27 72.45 26
L 73.6 29.5
Q 72.85 30.25 71.75 30.85 69.55 32.05 67.9 31.4 66.6 30.9 62.1 29.55 57.2 28.05 55.2 27.35 53.85 26.9 52.4 25.75
L 51.25 24.75 52.6 23.95 Z" fill="none" stroke-miterlimit="10" stroke-linecap="round" stroke-linejoin="miter" stroke-width="0.5" stroke="#000000"></path>
</g>
</g>

<g>
<g>
<g>
<path d="M 63.35 21.5
Q 67.8 19.7 69 19.25 70.65 18.65 71.55 16.35
L 72.15 14.15 69.05 12.15 69.6 14.3
Q 69.95 16.6 68.8 17.3 67.05 18.45 63.05 20.2 59.1 21.95 55.7 23.1 54.6 23.5 53.4 23.4
L 52.45 23.25 51.9 24.75 53.45 24.8
Q 55.3 24.7 56.6 24.2 58.8 23.4 63.35 21.5 Z" stroke="none" fill="#CC0000"></path>
</g>
</g>

<g>
<path d="M 52.45 23.25
L 53.4 23.4
Q 54.6 23.5 55.7 23.1 59.1 21.95 63.05 20.2 67.05 18.45 68.8 17.3 69.95 16.6 69.6 14.3
L 69.05 12.15 72.15 14.15 71.55 16.35
Q 70.65 18.65 69 19.25 67.8 19.7 63.35 21.5 58.8 23.4 56.6 24.2 55.3 24.7 53.45 24.8
L 51.9 24.75 52.45 23.25 Z" fill="none" stroke-miterlimit="10" stroke-linecap="round" stroke-linejoin="miter" stroke-width="0.5" stroke="#000000"></path>
</g>
</g>

<g>
<g>
<g>
<path d="M 55.45 27.35
Q 54.75 26.15 53.4 24.95
L 52.2 24 51.7 25.45 52.55 25.95
Q 53.5 26.7 54.1 27.65 56 30.65 57.9 34.4 59.85 38.3 60.45 40.25 60.85 41.5 59.2 43.05
L 57.45 44.35 61.05 44.8
Q 61.6 43.95 62 42.75 62.75 40.4 61.85 38.9 61.15 37.75 58.95 33.65 56.6 29.25 55.45 27.35 Z" stroke="none" fill="#CC0000"></path>
</g>
</g>

<g>
<path d="M 51.7 25.45
L 52.55 25.95
Q 53.5 26.7 54.1 27.65 56 30.65 57.9 34.4 59.85 38.3 60.45 40.25 60.85 41.5 59.2 43.05
L 57.45 44.35 61.05 44.8
Q 61.6 43.95 62 42.75 62.75 40.4 61.85 38.9 61.15 37.75 58.95 33.65 56.6 29.25 55.45 27.35 54.75 26.15 53.4 24.95
L 52.2 24 51.7 25.45 Z" fill="none" stroke-miterlimit="10" stroke-linecap="round" stroke-linejoin="miter" stroke-width="0.5" stroke="#000000"></path>
</g>
</g>

<g>
<g>
<g>
<path d="M 47.75 25.5
L 48.3 24.2
Q 45.55 24 43.35 24.75 41.2 25.45 36.3 27.15 31.7 28.8 30.35 29.2 28.65 29.7 27.7 31.75 27.25 32.75 27.15 33.65
L 30.4 35.3
Q 30 34.45 29.8 33.45 29.45 31.5 30.65 30.85 32.45 29.8 36.65 28.25 40.8 26.7 44.3 25.7 46.15 25.15 47.75 25.5 Z" stroke="none" fill="#009900"></path>
</g>
</g>

<g>
<path d="M 47.75 25.5
Q 46.15 25.15 44.3 25.7 40.8 26.7 36.65 28.25 32.45 29.8 30.65 30.85 29.45 31.5 29.8 33.45 30 34.45 30.4 35.3
L 27.15 33.65
Q 27.25 32.75 27.7 31.75 28.65 29.7 30.35 29.2 31.7 28.8 36.3 27.15 41.2 25.45 43.35 24.75 45.55 24 48.3 24.2
L 47.75 25.5 Z" fill="none" stroke-miterlimit="10" stroke-linecap="round" stroke-linejoin="miter" stroke-width="0.5" stroke="#000000"></path>
</g>
</g>

<g>
<g>
<g>
<path d="M 47.95 24.85
L 48.5 23.6
Q 47 23.05 45.95 21.75 43.95 19.2 41.85 15.95 39.7 12.6 39.05 10.9 38.6 9.85 40.35 8.5 41.2 7.8 42.15 7.35
L 38.35 7
Q 37.8 7.75 37.4 8.8 36.65 10.8 37.6 12.1 38.4 13.1 40.75 16.6 43.35 20.45 44.5 22 45.7 23.65 47.95 24.85 Z" stroke="none" fill="#009900"></path>
</g>
</g>

<g>
<path d="M 48.5 23.6
Q 47 23.05 45.95 21.75 43.95 19.2 41.85 15.95 39.7 12.6 39.05 10.9 38.6 9.85 40.35 8.5 41.2 7.8 42.15 7.35
L 38.35 7
Q 37.8 7.75 37.4 8.8 36.65 10.8 37.6 12.1 38.4 13.1 40.75 16.6 43.35 20.45 44.5 22 45.7 23.65 47.95 24.85
L 48.5 23.6 Z" fill="none" stroke-miterlimit="10" stroke-linecap="round" stroke-linejoin="miter" stroke-width="0.5" stroke="#000000"></path>
</g>
</g>

<g>
<g>
<g>
<path d="M 48.15 25.05
L 49.2 24
Q 46.75 23 44.4 23.05 41.9 23.05 36.75 23.25 31.55 23.4 30.3 23.4 28.45 23.35 26.7 25 25.85 25.8 25.35 26.6
L 27.7 29.15
Q 27.7 28.25 27.95 27.25 28.5 25.3 29.85 25 32 24.6 36.6 24.35 41.1 24.1 44.85 24.2 46.8 24.25 48.15 25.05 Z" stroke="none" fill="#009900"></path>
</g>
</g>

<g>
<path d="M 48.15 25.05
Q 46.8 24.25 44.85 24.2 41.1 24.1 36.6 24.35 32 24.6 29.85 25 28.5 25.3 27.95 27.25 27.7 28.25 27.7 29.15
L 25.35 26.6
Q 25.85 25.8 26.7 25 28.45 23.35 30.3 23.4 31.55 23.4 36.75 23.25 41.9 23.05 44.4 23.05 46.75 23 49.2 24
L 48.15 25.05 Z" fill="none" stroke-miterlimit="10" stroke-linecap="round" stroke-linejoin="miter" stroke-width="0.5" stroke="#000000"></path>
</g>
</g>

<g>
<g>
<g>
<path d="M 45.75 6.4
Q 44.15 8.1 44.5 9.55 45.05 11.9 46.65 20.8 47.05 22.7 48.65 24.5
L 49.7 23.5
Q 48.55 22.55 48.1 21 47.3 18.05 46.8 14.4 46.25 10.7 46.35 8.85 46.4 7.75 48.6 6.95 49.7 6.55 50.8 6.4
L 47.4 5
Q 46.55 5.55 45.75 6.4 Z" stroke="none" fill="#009900"></path>
</g>
</g>

<g>
<path d="M 49.7 23.5
Q 48.55 22.55 48.1 21 47.3 18.05 46.8 14.4 46.25 10.7 46.35 8.85 46.4 7.75 48.6 6.95 49.7 6.55 50.8 6.4
L 47.4 5
Q 46.55 5.55 45.75 6.4 44.15 8.1 44.5 9.55 45.05 11.9 46.65 20.8 47.05 22.7 48.65 24.5
L 49.7 23.5 Z" fill="none" stroke-miterlimit="10" stroke-linecap="round" stroke-linejoin="miter" stroke-width="0.5" stroke="#000000"></path>
</g>
</g>

<g>
<g>
<g>
<path d="M 48.55 25.55
L 48.55 24.2
Q 45.9 24.75 44.05 26 35.8 32.1 33.55 33.65 32.1 34.6 32 36.75 31.95 37.8 32.2 38.7
L 36 39.4
Q 35.25 38.7 34.7 37.8 33.6 36.05 34.45 35.15 35.75 33.7 39.1 31.1 42.45 28.5 45.35 26.65 46.9 25.65 48.55 25.55 Z" stroke="none" fill="#CC0000"></path>
</g>
</g>

<g>
<path d="M 48.55 25.55
Q 46.9 25.65 45.35 26.65 42.45 28.5 39.1 31.1 35.75 33.7 34.45 35.15 33.6 36.05 34.7 37.8 35.25 38.7 36 39.4
L 32.2 38.7
Q 31.95 37.8 32 36.75 32.1 34.6 33.55 33.65 35.8 32.1 44.05 26 45.9 24.75 48.55 24.2
L 48.55 25.55 Z" fill="none" stroke-miterlimit="10" stroke-linecap="round" stroke-linejoin="miter" stroke-width="0.5" stroke="#000000"></path>
</g>
</g>

<g>
<g>
<g>
<path d="M 48.5 24.9
L 48.5 23.55
Q 46.9 23.45 45.35 22.45 42.45 20.6 39.2 18.05 35.9 15.5 34.55 14.05 33.75 13.15 34.85 11.4 35.4 10.55 36.1 9.85
L 32.4 10.5 32.2 12.45
Q 32.25 14.6 33.7 15.55 35.95 17.05 44.1 23.1 45.9 24.35 48.5 24.9 Z" stroke="none" fill="#CC0000"></path>
</g>
</g>

<g>
<path d="M 48.5 23.55
Q 46.9 23.45 45.35 22.45 42.45 20.6 39.2 18.05 35.9 15.5 34.55 14.05 33.75 13.15 34.85 11.4 35.4 10.55 36.1 9.85
L 32.4 10.5 32.2 12.45
Q 32.25 14.6 33.7 15.55 35.95 17.05 44.1 23.1 45.9 24.35 48.5 24.9
L 48.5 23.55 Z" fill="none" stroke-miterlimit="10" stroke-linecap="round" stroke-linejoin="miter" stroke-width="0.5" stroke="#000000"></path>
</g>
</g>

<g>
<g>
<g>
<path d="M 50.65 21.5
L 52.3 21.3
Q 51.3 19.25 49.55 17.9 41.15 11.95 39 10.3 37.65 9.25 35.05 9.45
L 32.7 9.85 32.3 13 34.05 11.75
Q 36.1 10.6 37.3 11.2 39.2 12.1 42.8 14.5 46.25 16.85 48.95 19.05 50.3 20.15 50.65 21.5 Z" stroke="none" fill="#009900"></path>
</g>
</g>

<g>
<path d="M 50.65 21.5
Q 50.3 20.15 48.95 19.05 46.25 16.85 42.8 14.5 39.2 12.1 37.3 11.2 36.1 10.6 34.05 11.75
L 32.3 13 32.7 9.85 35.05 9.45
Q 37.65 9.25 39 10.3 41.15 11.95 49.55 17.9 51.3 19.25 52.3 21.3
L 50.65 21.5 Z" fill="none" stroke-miterlimit="10" stroke-linecap="round" stroke-linejoin="miter" stroke-width="0.5" stroke="#000000"></path>
</g>
</g>

<g>
<g>
<g>
<path d="M 62.8 8.7
Q 63.8 7.9 66.05 8.55 67.2 8.9 68.1 9.4
L 66.8 6.5
Q 65.7 6.4 64.45 6.55 61.85 6.85 60.9 8.15 60.15 9.2 57.3 12.45 54.3 16 53.05 17.55 52.25 18.6 51.75 20.1 51.55 20.85 51.45 21.4
L 53.05 21.2
Q 53.05 20.9 53.15 20.4 53.4 19.4 54 18.55 55.9 15.9 58.55 12.95 61.25 9.9 62.8 8.7 Z" stroke="none" fill="#009900"></path>
</g>
</g>

<g>
<path d="M 53.05 21.2
Q 53.05 20.9 53.15 20.4 53.4 19.4 54 18.55 55.9 15.9 58.55 12.95 61.25 9.9 62.8 8.7 63.8 7.9 66.05 8.55 67.2 8.9 68.1 9.4
L 66.8 6.5
Q 65.7 6.4 64.45 6.55 61.85 6.85 60.9 8.15 60.15 9.2 57.3 12.45 54.3 16 53.05 17.55 52.25 18.6 51.75 20.1 51.55 20.85 51.45 21.4
L 53.05 21.2 Z" fill="none" stroke-miterlimit="10" stroke-linecap="round" stroke-linejoin="miter" stroke-width="0.5" stroke="#000000"></path>
</g>
</g>

<g>
<g>
<g>
<path d="M 51.35 21.6
L 52.95 21.9
Q 52.9 19.65 51.85 17.95 50.8 16.2 48.3 12.4 45.95 8.75 45.35 7.7 44.55 6.35 42 5.75
L 39.65 5.45 37.9 8.3 40.1 7.65
Q 42.45 7.2 43.35 8.05 44.75 9.45 47 12.75 49.25 16 50.8 18.8 51.6 20.25 51.35 21.6 Z" stroke="none" fill="#CC0000"></path>
</g>
</g>

<g>
<path d="M 51.35 21.6
Q 51.6 20.25 50.8 18.8 49.25 16 47 12.75 44.75 9.45 43.35 8.05 42.45 7.2 40.1 7.65
L 37.9 8.3 39.65 5.45 42 5.75
Q 44.55 6.35 45.35 7.7 45.95 8.75 48.3 12.4 50.8 16.2 51.85 17.95 52.9 19.65 52.95 21.9
L 51.35 21.6 Z" fill="none" stroke-miterlimit="10" stroke-linecap="round" stroke-linejoin="miter" stroke-width="0.5" stroke="#000000"></path>
</g>
</g>

<g>
<g>
<g>
<path d="M 66.7 12.15
Q 65.5 12.9 61.5 15.1 57.05 17.6 55.25 18.65 54.1 19.35 53 20.6
L 52.1 21.75 53.7 22.05 54.15 21.3
Q 54.8 20.45 55.75 19.8 58.65 17.95 62.4 15.95 66.25 13.9 68.25 13.2 69.55 12.75 71.35 14.05 72.25 14.7 72.9 15.45
L 72.95 12.3
Q 72 11.9 70.7 11.7 68.15 11.25 66.7 12.15 Z" stroke="none" fill="#CC0000"></path>
</g>
</g>

<g>
<path d="M 53.7 22.05
L 54.15 21.3
Q 54.8 20.45 55.75 19.8 58.65 17.95 62.4 15.95 66.25 13.9 68.25 13.2 69.55 12.75 71.35 14.05 72.25 14.7 72.9 15.45
L 72.95 12.3
Q 72 11.9 70.7 11.7 68.15 11.25 66.7 12.15 65.5 12.9 61.5 15.1 57.05 17.6 55.25 18.65 54.1 19.35 53 20.6
L 52.1 21.75 53.7 22.05 Z" fill="none" stroke-miterlimit="10" stroke-linecap="round" stroke-linejoin="miter" stroke-width="0.5" stroke="#000000"></path>
</g>
</g>

<g>
<g>
<g>
<path d="M 50.95 22.1
L 52.4 21.5
Q 50.65 19.8 48.5 19 38.2 15.6 35.5 14.55 33.85 13.95 31.45 14.8
L 29.4 15.8 30.25 18.9 31.45 17.25
Q 32.9 15.65 34.25 15.85 36.45 16.25 40.7 17.55 45.05 18.9 48.35 20.25 50.1 20.95 50.95 22.1 Z" stroke="none" fill="#CC0000"></path>
</g>
</g>

<g>
<path d="M 50.95 22.1
Q 50.1 20.95 48.35 20.25 45.05 18.9 40.7 17.55 36.45 16.25 34.25 15.85 32.9 15.65 31.45 17.25
L 30.25 18.9 29.4 15.8 31.45 14.8
Q 33.85 13.95 35.5 14.55 38.2 15.6 48.5 19 50.65 19.8 52.4 21.5
L 50.95 22.1 Z" fill="none" stroke-miterlimit="10" stroke-linecap="round" stroke-linejoin="miter" stroke-width="0.5" stroke="#000000"></path>
</g>
</g>

<g>
<g>
<g>
<path d="M 55.4 6.75
Q 55.1 7.95 53.7 11.8 52.2 15.95 51.65 17.75 51.1 19.6 51.65 21.8
L 53.1 21.2
Q 52.5 19.95 52.9 18.4 53.7 15.4 55.05 11.9 56.45 8.35 57.45 6.75 58.45 5.15 62.75 6.05
L 60.35 3.6
Q 59.3 3.8 58.15 4.3 55.85 5.3 55.4 6.75 Z" stroke="none" fill="#CC0000"></path>
</g>
</g>

<g>
<path d="M 53.1 21.2
Q 52.5 19.95 52.9 18.4 53.7 15.4 55.05 11.9 56.45 8.35 57.45 6.75 58.45 5.15 62.75 6.05
L 60.35 3.6
Q 59.3 3.8 58.15 4.3 55.85 5.3 55.4 6.75 55.1 7.95 53.7 11.8 52.2 15.95 51.65 17.75 51.1 19.6 51.65 21.8
L 53.1 21.2 Z" fill="none" stroke-miterlimit="10" stroke-linecap="round" stroke-linejoin="miter" stroke-width="0.5" stroke="#000000"></path>
</g>
</g>

<g>
<g>
<g>
<path d="M 52.4 25.25
L 50.85 24.75 50.85 26.1
Q 50.9 27.7 51.4 28.85 52.15 30.5 54.25 34.65 56.1 38.35 56.6 39.55 57.25 41 59.7 41.8 60.9 42.2 62 42.3
L 64.05 39.6
Q 63 39.95 61.8 40.05 59.4 40.3 58.65 39.35 57.4 37.8 55.55 34.4 53.7 30.95 52.6 28.05 52.2 27.1 52.25 26.1
L 52.4 25.25 Z" stroke="none" fill="#CC0000"></path>
</g>
</g>

<g>
<path d="M 52.4 25.25
L 52.25 26.1
Q 52.2 27.1 52.6 28.05 53.7 30.95 55.55 34.4 57.4 37.8 58.65 39.35 59.4 40.3 61.8 40.05 63 39.95 64.05 39.6
L 62 42.3
Q 60.9 42.2 59.7 41.8 57.25 41 56.6 39.55 56.1 38.35 54.25 34.65 52.15 30.5 51.4 28.85 50.9 27.7 50.85 26.1
L 50.85 24.75 52.4 25.25 Z" fill="none" stroke-miterlimit="10" stroke-linecap="round" stroke-linejoin="miter" stroke-width="0.5" stroke="#000000"></path>
</g>
</g>

<g>
<g>
<g>
<path d="M 51.65 25.05
L 50.1 24.6
Q 49.45 25.8 47.8 26.65 44.8 28.25 40.65 29.95 36.65 31.55 34.5 32.15 33.2 32.5 31.55 31.05
L 30.2 29.5 29.7 32.65 31.85 33.45
Q 34.35 34.1 35.9 33.35 38.4 32.1 48.1 27.85 50.1 26.9 51.65 25.05 Z" stroke="none" fill="#009900"></path>
</g>
</g>

<g>
<path d="M 50.1 24.6
Q 49.45 25.8 47.8 26.65 44.8 28.25 40.65 29.95 36.65 31.55 34.5 32.15 33.2 32.5 31.55 31.05
L 30.2 29.5 29.7 32.65 31.85 33.45
Q 34.35 34.1 35.9 33.35 38.4 32.1 48.1 27.85 50.1 26.9 51.65 25.05
L 50.1 24.6 Z" fill="none" stroke-miterlimit="10" stroke-linecap="round" stroke-linejoin="miter" stroke-width="0.5" stroke="#000000"></path>
</g>
</g>

<g>
<g>
<g>
<path d="M 51.25 24.5
L 50 23.6
Q 48.85 24.55 46.95 24.85 43.35 25.45 38.85 25.85 34.35 26.2 32.15 26.1 30.75 26.05 29.85 24.2
L 29.2 22.4 27.45 25.15 29.1 26.55
Q 31.15 27.9 32.95 27.65 34.45 27.4 39.25 26.9 44.55 26.35 46.7 26.05 49 25.75 51.25 24.5 Z" stroke="none" fill="#CC0000"></path>
</g>
</g>

<g>
<path d="M 50 23.6
Q 48.85 24.55 46.95 24.85 43.35 25.45 38.85 25.85 34.35 26.2 32.15 26.1 30.75 26.05 29.85 24.2
L 29.2 22.4 27.45 25.15 29.1 26.55
Q 31.15 27.9 32.95 27.65 34.45 27.4 39.25 26.9 44.55 26.35 46.7 26.05 49 25.75 51.25 24.5
L 50 23.6 Z" fill="none" stroke-miterlimit="10" stroke-linecap="round" stroke-linejoin="miter" stroke-width="0.5" stroke="#000000"></path>
</g>
</g>

<g>
<g>
<g>
<path d="M 52.5 24.6
L 50.85 24.55 51.35 25.85
Q 52 27.3 52.95 28.25 55.85 31.15 62.1 37.05 63.25 38.25 65.85 38.35 67.15 38.4 68.25 38.2
L 69.15 35.1
Q 68.3 35.7 67.2 36.15 65.05 37 63.95 36.3 62.2 35.2 59.1 32.4 56 29.65 53.75 27.2 53.05 26.4 52.7 25.4
L 52.5 24.6 Z" stroke="none" fill="#CC0000"></path>
</g>
</g>

<g>
<path d="M 52.5 24.6
L 52.7 25.4
Q 53.05 26.4 53.75 27.2 56 29.65 59.1 32.4 62.2 35.2 63.95 36.3 65.05 37 67.2 36.15 68.3 35.7 69.15 35.1
L 68.25 38.2
Q 67.15 38.4 65.85 38.35 63.25 38.25 62.1 37.05 55.85 31.15 52.95 28.25 52 27.3 51.35 25.85
L 50.85 24.55 52.5 24.6 Z" fill="none" stroke-miterlimit="10" stroke-linecap="round" stroke-linejoin="miter" stroke-width="0.5" stroke="#000000"></path>
</g>
</g>

<g>
<g>
<g>
<path d="M 51.7 24.6
L 50.05 24.6
Q 49.9 25.9 48.7 27.15 46.3 29.55 43.2 32.15 40 34.85 38.25 35.85 37.15 36.55 35.05 35.6
L 33.15 34.5 33.9 37.6 36.25 37.8
Q 38.85 37.75 40.05 36.6 41.95 34.8 49.45 28.2 50.95 26.75 51.7 24.6 Z" stroke="none" fill="#CC0000"></path>
</g>
</g>

<g>
<path d="M 50.05 24.6
Q 49.9 25.9 48.7 27.15 46.3 29.55 43.2 32.15 40 34.85 38.25 35.85 37.15 36.55 35.05 35.6
L 33.15 34.5 33.9 37.6 36.25 37.8
Q 38.85 37.75 40.05 36.6 41.95 34.8 49.45 28.2 50.95 26.75 51.7 24.6
L 50.05 24.6 Z" fill="none" stroke-miterlimit="10" stroke-linecap="round" stroke-linejoin="miter" stroke-width="0.5" stroke="#000000"></path>
</g>
</g>

<g>
<g>
<g>
<path d="M 56.85 25.2
L 55.5 25.95 56.8 26.75
Q 58.4 27.65 59.8 28 64.2 29.05 73.4 30.95 75.2 31.4 77.4 30.3 78.5 29.7 79.25 29.05
L 77.9 26.1
Q 77.6 27 77 27.85 75.8 29.55 74.4 29.5 72.15 29.4 67.75 28.55 63.25 27.7 59.75 26.75 58.6 26.45 57.6 25.8
L 56.85 25.2 Z" stroke="none" fill="#009900"></path>
</g>
</g>

<g>
<path d="M 56.85 25.2
L 57.6 25.8
Q 58.6 26.45 59.75 26.75 63.25 27.7 67.75 28.55 72.15 29.4 74.4 29.5 75.8 29.55 77 27.85 77.6 27 77.9 26.1
L 79.25 29.05
Q 78.5 29.7 77.4 30.3 75.2 31.4 73.4 30.95 64.2 29.05 59.8 28 58.4 27.65 56.8 26.75
L 55.5 25.95 56.85 25.2 Z" fill="none" stroke-miterlimit="10" stroke-linecap="round" stroke-linejoin="miter" stroke-width="0.5" stroke="#000000"></path>
</g>
</g>

<g>
<g>
<g>
<path d="M 56.2 25.35
L 54.6 25.65 55.45 26.8
Q 56.55 28.1 57.75 28.85 61.4 31.1 69.15 35.55 70.6 36.5 73.2 36.1 74.45 35.9 75.45 35.5
L 75.45 32.35
Q 74.8 33.1 73.85 33.7 72.05 34.95 70.75 34.5 68.75 33.75 64.9 31.65 61.15 29.6 58.2 27.65 57.25 27.05 56.65 26.15
L 56.2 25.35 Z" stroke="none" fill="#009900"></path>
</g>
</g>

<g>
<path d="M 56.2 25.35
L 56.65 26.15
Q 57.25 27.05 58.2 27.65 61.15 29.6 64.9 31.65 68.75 33.75 70.75 34.5 72.05 34.95 73.85 33.7 74.8 33.1 75.45 32.35
L 75.45 35.5
Q 74.45 35.9 73.2 36.1 70.6 36.5 69.15 35.55 61.4 31.1 57.75 28.85 56.55 28.1 55.45 26.8
L 54.6 25.65 56.2 25.35 Z" fill="none" stroke-miterlimit="10" stroke-linecap="round" stroke-linejoin="miter" stroke-width="0.5" stroke="#000000"></path>
</g>
</g>

<g>
<g>
<g>
<path d="M 76.4 21.95
Q 75.95 23.9 74.6 24.2 72.5 24.7 67.9 25.1 63.35 25.45 59.6 25.5 58.4 25.5 57.2 25.15
L 56.3 24.75 55.3 25.85 56.85 26.3
Q 58.7 26.7 60.15 26.65 62.5 26.6 67.8 26.2 72.75 25.9 74.2 25.85 76.05 25.8 77.7 24.15 78.55 23.35 79 22.5
L 76.55 20.05 76.4 21.95 Z" stroke="none" fill="#CC0000"></path>
</g>
</g>

<g>
<path d="M 56.3 24.75
L 57.2 25.15
Q 58.4 25.5 59.6 25.5 63.35 25.45 67.9 25.1 72.5 24.7 74.6 24.2 75.95 23.9 76.4 21.95
L 76.55 20.05 79 22.5
Q 78.55 23.35 77.7 24.15 76.05 25.8 74.2 25.85 72.75 25.9 67.8 26.2 62.5 26.6 60.15 26.65 58.7 26.7 56.85 26.3
L 55.3 25.85 56.3 24.75 Z" fill="none" stroke-miterlimit="10" stroke-linecap="round" stroke-linejoin="miter" stroke-width="0.5" stroke="#000000"></path>
</g>
</g>

<g>
<g>
<g>
<path d="M 55.85 25.3
L 54.85 26.35 55.5 27
Q 56.2 27.85 56.5 28.8 57.45 31.65 58.15 35.35 58.85 39 58.85 40.85 58.85 42 56.7 42.85
L 54.5 43.45 57.95 44.75 59.55 43.3
Q 61.1 41.55 60.65 40.1 60.35 39.05 59.45 35 58.55 30.85 58 28.9 57.7 27.75 56.75 26.4
L 55.85 25.3 Z" stroke="none" fill="#CC0000"></path>
</g>
</g>

<g>
<path d="M 54.85 26.35
L 55.5 27
Q 56.2 27.85 56.5 28.8 57.45 31.65 58.15 35.35 58.85 39 58.85 40.85 58.85 42 56.7 42.85
L 54.5 43.45 57.95 44.75 59.55 43.3
Q 61.1 41.55 60.65 40.1 60.35 39.05 59.45 35 58.55 30.85 58 28.9 57.7 27.75 56.75 26.4
L 55.85 25.3 54.85 26.35 Z" fill="none" stroke-miterlimit="10" stroke-linecap="round" stroke-linejoin="miter" stroke-width="0.5" stroke="#000000"></path>
</g>
</g>

<g>
<g>
<g>
<path d="M 50.9 26.6
L 49.5 25.95
Q 48.55 27.05 46.75 27.6 43.35 28.75 39 29.75 34.65 30.8 32.45 31 31.1 31.15 29.8 29.5
L 28.8 27.8 27.65 30.75 29.6 31.9
Q 31.9 32.95 33.6 32.4 34.95 32 39.6 30.8 44.65 29.5 46.8 28.85 49 28.2 50.9 26.6 Z" stroke="none" fill="#009900"></path>
</g>
</g>

<g>
<path d="M 49.5 25.95
Q 48.55 27.05 46.75 27.6 43.35 28.75 39 29.75 34.65 30.8 32.45 31 31.1 31.15 29.8 29.5
L 28.8 27.8 27.65 30.75 29.6 31.9
Q 31.9 32.95 33.6 32.4 34.95 32 39.6 30.8 44.65 29.5 46.8 28.85 49 28.2 50.9 26.6
L 49.5 25.95 Z" fill="none" stroke-miterlimit="10" stroke-linecap="round" stroke-linejoin="miter" stroke-width="0.5" stroke="#000000"></path>
</g>
</g>

<g>
<g>
<g>
<path d="M 50.6 26
L 49.6 24.95
Q 48.25 25.7 46.35 25.75 42.65 25.8 38.15 25.45 33.65 25.15 31.5 24.7 30.15 24.4 29.65 22.5
L 29.45 20.65 27.1 23.1 28.4 24.7
Q 30.1 26.3 31.95 26.35 33.45 26.35 38.3 26.6 43.65 26.85 45.8 26.9 48.15 26.95 50.6 26 Z" stroke="none" fill="#CC0000"></path>
</g>
</g>

<g>
<path d="M 49.6 24.95
Q 48.25 25.7 46.35 25.75 42.65 25.8 38.15 25.45 33.65 25.15 31.5 24.7 30.15 24.4 29.65 22.5
L 29.45 20.65 27.1 23.1 28.4 24.7
Q 30.1 26.3 31.95 26.35 33.45 26.35 38.3 26.6 43.65 26.85 45.8 26.9 48.15 26.95 50.6 26
L 49.6 24.95 Z" fill="none" stroke-miterlimit="10" stroke-linecap="round" stroke-linejoin="miter" stroke-width="0.5" stroke="#000000"></path>
</g>
</g>

<g>
<g>
<g>
<path d="M 60.25 9.65
Q 60.85 8.2 59.5 6.3
L 58.05 4.75 54.4 5.85 56.55 6.6
Q 58.65 7.6 58.55 8.75 58.35 10.55 57.25 14.25 56.15 17.85 54.95 20.75 54.3 22.25 53 23.1
L 53.9 24.2
Q 55.75 22.6 56.45 20.75 57.15 18.95 58.5 14.7 59.8 10.75 60.25 9.65 Z" stroke="none" fill="#CC0000"></path>
</g>
</g>

<g>
<path d="M 53 23.1
Q 54.3 22.25 54.95 20.75 56.15 17.85 57.25 14.25 58.35 10.55 58.55 8.75 58.65 7.6 56.55 6.6
L 54.4 5.85 58.05 4.75 59.5 6.3
Q 60.85 8.2 60.25 9.65 59.8 10.75 58.5 14.7 57.15 18.95 56.45 20.75 55.75 22.6 53.9 24.2
L 53 23.1 Z" fill="none" stroke-miterlimit="10" stroke-linecap="round" stroke-linejoin="miter" stroke-width="0.5" stroke="#000000"></path>
</g>
</g>

<g>
<g>
<g>
<path d="M 55 23.3
L 53.45 23.6 54.35 24.75 55.3 24.45
Q 56.5 24.15 57.7 24.25 61.45 24.55 65.8 25.25 70.3 25.95 72.3 26.55 73.6 26.95 73.85 28.9 73.95 29.9 73.8 30.8
L 76.5 28.55
Q 76.15 27.7 75.4 26.8 73.9 25.05 72.1 24.9 70.55 24.75 65.85 24.1 60.45 23.4 58.35 23.15 56.9 23 55 23.3 Z" stroke="none" fill="#009900"></path>
</g>
</g>

<g>
<path d="M 54.35 24.75
L 55.3 24.45
Q 56.5 24.15 57.7 24.25 61.45 24.55 65.8 25.25 70.3 25.95 72.3 26.55 73.6 26.95 73.85 28.9 73.95 29.9 73.8 30.8
L 76.5 28.55
Q 76.15 27.7 75.4 26.8 73.9 25.05 72.1 24.9 70.55 24.75 65.85 24.1 60.45 23.4 58.35 23.15 56.9 23 55 23.3
L 53.45 23.6 54.35 24.75 Z" fill="none" stroke-miterlimit="10" stroke-linecap="round" stroke-linejoin="miter" stroke-width="0.5" stroke="#000000"></path>
</g>
</g>

<g>
<g>
<g>
<path d="M 62 17.4
Q 64.85 14.15 65.8 13.2 67 12 66.55 9.9
L 65.85 8 62 7.95 63.65 9.3
Q 65.15 10.8 64.55 11.85 63.6 13.5 61 16.6 58.4 19.75 56 22.05 55.2 22.8 54.1 23.3
L 53.15 23.65 53.5 24.95 54.9 24.25
Q 56.5 23.4 57.45 22.45 58.8 21 62 17.4 Z" stroke="none" fill="#009900"></path>
</g>
</g>

<g>
<path d="M 53.15 23.65
L 54.1 23.3
Q 55.2 22.8 56 22.05 58.4 19.75 61 16.6 63.6 13.5 64.55 11.85 65.15 10.8 63.65 9.3
L 62 7.95 65.85 8 66.55 9.9
Q 67 12 65.8 13.2 64.85 14.15 62 17.4 58.8 21 57.45 22.45 56.5 23.4 54.9 24.25
L 53.5 24.95 53.15 23.65 Z" fill="none" stroke-miterlimit="10" stroke-linecap="round" stroke-linejoin="miter" stroke-width="0.5" stroke="#000000"></path>
</g>
</g>

<g>
<g>
<g>
<path d="M 54.95 24.4
L 53.35 24.25 53.7 25.6 54.7 25.6
Q 55.95 25.65 57.05 26.1 60.3 27.4 64.2 29.4 68.05 31.35 69.7 32.5 70.75 33.25 70.1 35.15 69.8 36.1 69.25 36.9
L 72.75 35.6
Q 72.75 34.7 72.45 33.65 71.85 31.6 70.2 30.9 62.1 27.05 58.15 25.25 56.85 24.7 54.95 24.4 Z" stroke="none" fill="#CC0000"></path>
</g>
</g>

<g>
<path d="M 53.7 25.6
L 54.7 25.6
Q 55.95 25.65 57.05 26.1 60.3 27.4 64.2 29.4 68.05 31.35 69.7 32.5 70.75 33.25 70.1 35.15 69.8 36.1 69.25 36.9
L 72.75 35.6
Q 72.75 34.7 72.45 33.65 71.85 31.6 70.2 30.9 62.1 27.05 58.15 25.25 56.85 24.7 54.95 24.4
L 53.35 24.25 53.7 25.6 Z" fill="none" stroke-miterlimit="10" stroke-linecap="round" stroke-linejoin="miter" stroke-width="0.5" stroke="#000000"></path>
</g>
</g>

<g>
<g>
<g>
<path d="M 54.05 8.9
Q 54.05 7.35 52.05 6
L 50.05 4.9 47 6.85 49.3 7.05
Q 51.7 7.45 52.05 8.55 52.6 10.3 53 14.05 53.4 17.75 53.4 20.85 53.35 22.45 52.45 23.55
L 53.75 24.4
Q 54.85 22.35 54.8 20.4 54.1 11.3 54.05 8.9 Z" stroke="none" fill="#CC0000"></path>
</g>
</g>

<g>
<path d="M 52.45 23.55
Q 53.35 22.45 53.4 20.85 53.4 17.75 53 14.05 52.6 10.3 52.05 8.55 51.7 7.45 49.3 7.05
L 47 6.85 50.05 4.9 52.05 6
Q 54.05 7.35 54.05 8.9 54.1 11.3 54.8 20.4 54.85 22.35 53.75 24.4
L 52.45 23.55 Z" fill="none" stroke-miterlimit="10" stroke-linecap="round" stroke-linejoin="miter" stroke-width="0.5" stroke="#000000"></path>
</g>
</g>

<g>
<g>
<g>
<path d="M 65.4 22.2
Q 69.95 21.7 72.1 21.75 73.5 21.75 74.45 23.55 74.95 24.45 75.15 25.35
L 76.8 22.5
Q 76.15 21.8 75.1 21.15 73.05 19.9 71.25 20.25 62 21.5 57.55 22.2 56.1 22.45 54.45 23.25
L 53.1 23.95 54.35 24.8 55.15 24.25
Q 56.15 23.65 57.35 23.45 61 22.7 65.4 22.2 Z" stroke="none" fill="#CC0000"></path>
</g>
</g>

<g>
<path d="M 54.35 24.8
L 55.15 24.25
Q 56.15 23.65 57.35 23.45 61 22.7 65.4 22.2 69.95 21.7 72.1 21.75 73.5 21.75 74.45 23.55 74.95 24.45 75.15 25.35
L 76.8 22.5
Q 76.15 21.8 75.1 21.15 73.05 19.9 71.25 20.25 62 21.5 57.55 22.2 56.1 22.45 54.45 23.25
L 53.1 23.95 54.35 24.8 Z" fill="none" stroke-miterlimit="10" stroke-linecap="round" stroke-linejoin="miter" stroke-width="0.5" stroke="#000000"></path>
</g>
</g>

<g>
<g>
<g>
<path d="M 63.85 110.65
L 63.45 110.85
Q 63.1 111.2 63.5 112.15 63.8 112.8 65.25 116.15 66.8 119.55 67.85 121.45 68.95 123.4 70.05 124.05
L 69.2 118.7
Q 68.95 116.45 67.7 114.95 67.3 114.5 66.55 113.15 65.8 111.85 65.6 111.65 65.05 111.1 64.4 110.8
L 63.85 110.65 Z" stroke="none" fill="#379C00"></path>
</g>
</g>

<g>
<path d="M 69.2 118.7
Q 68.95 116.45 67.7 114.95 67.3 114.5 66.55 113.15 65.8 111.85 65.6 111.65 65.05 111.1 64.4 110.8
L 63.85 110.65 63.45 110.85
Q 63.1 111.2 63.5 112.15 63.8 112.8 65.25 116.15 66.8 119.55 67.85 121.45 68.95 123.4 70.05 124.05
L 69.2 118.7 Z" fill="none" stroke-miterlimit="10" stroke-linecap="round" stroke-linejoin="miter" stroke-width="0.5" stroke="#000000"></path>
</g>
</g>

<g>
<g>
<g>
<path d="M 67.7 114.9
L 68.4 117.5
Q 69.2 120.2 69.95 121 71.25 122.4 75.3 122.9 74.95 119.95 75.2 117.55 75.3 116.9 75.75 116 76.2 115.15 76.2 114.85 76.2 114.5 75.85 114.1 75.4 113.6 75.35 113.45 75.25 113 75.4 112.4
L 75.55 111.9
Q 74.1 111.45 73.25 111.4 72.7 111.35 71.5 111.5
L 70.4 111.7 68.7 113.1
Q 68.25 113.7 67.7 114.9 Z" stroke="none" fill="#379C00"></path>
</g>
</g>

<g>
<path d="M 67.7 114.9
Q 68.25 113.7 68.7 113.1
L 70.4 111.7 71.5 111.5
Q 72.7 111.35 73.25 111.4 74.1 111.45 75.55 111.9
L 75.4 112.4
Q 75.25 113 75.35 113.45 75.4 113.6 75.85 114.1 76.2 114.5 76.2 114.85 76.2 115.15 75.75 116 75.3 116.9 75.2 117.55 74.95 119.95 75.3 122.9 71.25 122.4 69.95 121 69.2 120.2 68.4 117.5
L 67.7 114.9 Z" fill="none" stroke-miterlimit="10" stroke-linecap="round" stroke-linejoin="miter" stroke-width="0.5" stroke="#000000"></path>
</g>
</g>

<g>
<g>
<g>
<path d="M 69.05 119
Q 69 120.2 70.4 120.75 71.75 121.3 72.2 120.45 72.95 119 72.45 117.85 72.15 117.15 71.3 116.5 70.25 115.8 69.6 116.75 69.1 117.5 69.05 119 Z" stroke="none" fill="#E30000"></path>
</g>
</g>

<g>
<path d="M 69.05 119
Q 69.1 117.5 69.6 116.75 70.25 115.8 71.3 116.5 72.15 117.15 72.45 117.85 72.95 119 72.2 120.45 71.75 121.3 70.4 120.75 69 120.2 69.05 119 Z" fill="none" stroke-miterlimit="10" stroke-linecap="round" stroke-linejoin="miter" stroke-width="0.5" stroke="#000000"></path>
</g>
</g>

<g>
<g>
<g>
<path d="M 71.35 122.9
Q 71.3 124.15 73.1 124.75 74.85 125.3 75.45 124.4 76.35 123 75.75 121.75 75.25 120.95 74.25 120.4 72.9 119.7 72.1 120.6 71.45 121.4 71.35 122.9 Z" stroke="none" fill="#E30000"></path>
</g>
</g>

<g>
<path d="M 71.35 122.9
Q 71.45 121.4 72.1 120.6 72.9 119.7 74.25 120.4 75.25 120.95 75.75 121.75 76.35 123 75.45 124.4 74.85 125.3 73.1 124.75 71.3 124.15 71.35 122.9 Z" fill="none" stroke-miterlimit="10" stroke-linecap="round" stroke-linejoin="miter" stroke-width="0.5" stroke="#000000"></path>
</g>
</g>

<g>
<g>
<g>
<path d="M 69.45 122.95
Q 69.4 124.2 71.2 124.75 72.95 125.3 73.5 124.45 74.45 123 73.8 121.75 73.35 120.95 72.35 120.4 71 119.7 70.2 120.65 69.55 121.4 69.45 122.95 Z" stroke="none" fill="#E30000"></path>
</g>
</g>

<g>
<path d="M 69.45 122.95
Q 69.55 121.4 70.2 120.65 71 119.7 72.35 120.4 73.35 120.95 73.8 121.75 74.45 123 73.5 124.45 72.95 125.3 71.2 124.75 69.4 124.2 69.45 122.95 Z" fill="none" stroke-miterlimit="10" stroke-linecap="round" stroke-linejoin="miter" stroke-width="0.5" stroke="#000000"></path>
</g>
</g>
</g>
</g>
</svg>
