
<svg viewBox="0 0 112 184" height="184px" width="112px" y="0px" x="0px" preserveAspectRatio="none" xmlns:xlink="http://www.w3.org/1999/xlink" version="1.1" xmlns="http://www.w3.org/2000/svg">
<defs></defs>

<g id="fun_scrollers">
<g transform="matrix( 0.3621063232421875, 0, 0, 0.3621063232421875, -594.2,0.1)" id="svg"></g>

<g transform="matrix( 0.3621063232421875, 0, 0, 0.3621063232421875, -594.2,0.1)" id="Layer_2"></g>

<g transform="matrix( 0.3621063232421875, 0, 0, 0.3621063232421875, -594.2,0.1)" id="Layer_3"></g>

<g transform="matrix( 0.3621063232421875, 0, 0, 0.3621063232421875, -594.2,0.1)" id="Layer_2">
<g>
<g>
<g>
<path d="M 1936.95 131.55
L 1936.95 120.25
Q 1931.4515625 124.0666015625 1927.7 128.45 1923.7 134.15 1921.9 141.55 1920.4 147.65 1920.3 155.8
L 1920.05 204.8
Q 1920.1 216.15 1919.9 238.6
L 1919.8 256.9
Q 1919.7 273.45 1919.65 276.3 1919.5 287.3 1919.1 295.75 1918.55 305.55 1918.75 318.35 1919 342.25 1918.6 360.6 1918 390.35 1918 408.7
L 1918 428.1
Q 1918 436.9 1919.15 441.9 1921.7 448.75 1927.75 453.85 1931.4 455.65 1935.7 456.6 1936.3021484375 456.7150390625 1936.95 456.8
L 1936.95 449.6
Q 1934.1205078125 448.740234375 1932.6 447.6 1930.95 446.5 1928.95 443.9 1926.6 439.5 1925.6 436.15 1924.55 432.4 1924.5 427.8
L 1924.7 389.45
Q 1924.8 381.3 1924.8 377.25
L 1925.55 304.15
Q 1926.05 247.15 1926.55 225.3 1927.05 207.8 1927.05 195.2
L 1927.25 158.6
Q 1927.2 152.5 1927.4 150 1927.7 145.4 1929 141.65
L 1930.5 138.9
Q 1934.2255859375 134.515625 1936.95 131.55 Z" stroke="none" fill="#706C84"></path>

<path d="M 1936.95 131.55
Q 1934.2255859375 134.515625 1930.5 138.9
L 1929 141.65
Q 1927.7 145.4 1927.4 150 1927.2 152.5 1927.25 158.6
L 1927.05 195.2
Q 1927.05 207.8 1926.55 225.3 1926.05 247.15 1925.55 304.15
L 1924.8 377.25
Q 1924.8 381.3 1924.7 389.45
L 1924.5 427.8
Q 1924.55 432.4 1925.6 436.15 1926.6 439.5 1928.95 443.9 1930.95 446.5 1932.6 447.6 1934.1205078125 448.740234375 1936.95 449.6
L 1936.95 131.55 Z" stroke="none" fill="#F5F7F9"></path>

<path d="M 1936.95 30.75
Q 1935.8681640625 31.0806640625 1934.85 31.45 1934 33.1 1933.9 34.25 1933.75 35.35 1933.8 40.3
L 1933.8 43
Q 1933.75 44.95 1933.7 48.9 1933.8 52.3 1934.95 54.55 1936.121484375 55.1154296875 1936.95 55.5
L 1936.95 30.75 Z" stroke="none" fill="#7E1A34"></path>
</g>
</g>
</g>
</g>

<g transform="matrix( 0.3621063232421875, 0, 0, 0.3621063232421875, -594.2,0.1)" id="Layer_3">
<g>
<g>
<g>
<path d="M 1910.35 439.5
Q 1909 441.2 1908.25 442.35 1903.7 449.15 1903.55 457.25
L 1896.85 457.3
Q 1896.25 457.3 1896 457.55 1895.75 457.75 1895.75 458.45
L 1895.75 466.8
Q 1895.75 468 1896.15 468.4 1896.6 468.8 1897.65 468.8
L 1902.25 468.85
Q 1904.4 468.95 1906.5 468.85 1908.85 468.75 1915.15 467.9 1915.95 467.8 1916.25 467.45 1916.6 467.15 1916.6 466.15
L 1916.65 462.45
Q 1916.75 459.3 1916.1 457.65 1915.65 456.45 1914.75 455.7 1913.75 454.8 1912.6 454.75 1913.1 452.3 1914.95 449.55 1915.35 449 1918.55 444.9 1920.15 442.9 1923.05 438.6
L 1925.55 434.9
Q 1926.6 432.85 1925.8 428.65 1924.85 428.8 1921.9 428.45 1919.35 428.25 1918.05 429.15 1917.35 429.65 1916.3 431.35 1914.65 434.1 1912.6 436.7 1912.4 437 1910.35 439.5 Z" stroke="none" fill="#000000"></path>
</g>
</g>
</g>
</g>

<g transform="matrix( 0.3621063232421875, 0, 0, 0.3621063232421875, -594.2,0.1)" id="MergedLayer_3">
<g>
<g>
<g>
<path d="M 1936.95 209.6
L 1936.95 200.2
Q 1933.1958984375 200.3552734375 1931.15 201.9 1929.05 203.55 1927.4 208.05 1922.3 222.25 1919.85 239.35 1917.85 253.5 1917.4 271.4 1917.15 280.6 1917.45 289.75 1917.6 293.05 1918.45 306.1 1919.05 316.15 1919.05 322.45 1919.05 326.1 1918.8 332.7 1918.6 339.8 1918.55 343 1918.5 347.75 1919 366 1919.45 380.15 1918.75 389 1926.0607421875 389 1936.95 388.4
L 1936.95 381.15
Q 1931.8328125 381.484765625 1926.35 381.9 1926.05 371.1 1926.1 336.5 1926.1 308.25 1925.1 291.2 1924.7 284.2 1924.55 280.75 1924.25 274.75 1924.35 270.25 1924.5 263.3 1926.1 251.05 1927.85 238.3 1929.6 230.5 1932.2 219.35 1936.25 210.8 1936.5830078125 210.1337890625 1936.95 209.6 Z" stroke="none" fill="#6C6C87"></path>

<path d="M 1936.95 209.6
Q 1936.5830078125 210.1337890625 1936.25 210.8 1932.2 219.35 1929.6 230.5 1927.85 238.3 1926.1 251.05 1924.5 263.3 1924.35 270.25 1924.25 274.75 1924.55 280.75 1924.7 284.2 1925.1 291.2 1926.1 308.25 1926.1 336.5 1926.05 371.1 1926.35 381.9 1931.8328125 381.484765625 1936.95 381.15
L 1936.95 209.6 Z" stroke="none" fill="#DEDFE9"></path>
</g>
</g>
</g>
</g>

<g transform="matrix( 0.3621063232421875, 0, 0, 0.3621063232421875, -594.2,0.1)" id="Layer_4"></g>

<g transform="matrix( 0.3621063232421875, 0, 0, 0.3621063232421875, -594.2,0.1)" id="Layer_5"></g>

<g transform="matrix( 0.3621063232421875, 0, 0, 0.3621063232421875, -594.2,0.1)" id="Layer_6"></g>

<g transform="matrix( 0.3621063232421875, 0, 0, 0.3621063232421875, -594.2,0.1)" id="MergedLayer_1">
<g>
<g>
<g>
<path d="M 1710.1 29.3
Q 1710.1 29.25 1710.05 29.2
L 1709 29.2
Q 1700.5 28.5 1689.45 29.1
L 1688.85 29.1
Q 1685.35 29.3 1681.55 29.6 1662.45 31.6 1652.85 32.2 1643.9 32.8 1630.5 32.9 1630.3494140625 32.9005859375 1630.2 32.9
L 1630.2 481.75
Q 1634.2642578125 481.8 1639 481.8
L 1742.85 481.65 1742.85 476.1
Q 1744.5 476.7 1746.3 475.8 1747.95 474.95 1748.9 473.35 1750.25 471.15 1750.45 466.4 1750.85 458.75 1750.65 441.15 1749.9 381.65 1754.1 322.3 1754.35 387.6 1762.15 441.75 1764.85 460.5 1771.7 497.25
L 1778.55 497.5
Q 1776.6 469.6 1774.8 413.9
L 1773 356.8
Q 1771.6 312.5 1771.25 291.7 1770.6 255.4 1771.35 226.55 1771.6 216.35 1770.95 211.1 1769.85 202.6 1766.05 197
L 1758.8 197.05 1752.9 231.95 1750.45 211.9 1746.7 211.55
Q 1747.1 207.6 1745.75 200.85 1744.2 193.1 1744.1 190.15 1744 187.7 1744.5 182.75 1745 177.9 1744.85 175.4 1744.6 171.2 1742.2 164.1 1739.6 156.25 1739.1 152.85 1738.8 150.95 1738.65 140.6 1738.5 133.15 1736.5 128.85
L 1729.6 128.6 1729.25 132.85 1726.15 127.35 1729.95 126.8
Q 1729.95 114.6 1725.4 103.2 1726.85 105.5 1729.6 106.45 1732.35 107.4 1734.95 106.5 1735.85 100.15 1734.35 92.35 1733.35 87.3 1730.55 78.45 1725.65 63.35 1721.6 53.25 1716.15 39.8 1710.1 29.3
M 1759.2 240.25
Q 1763.65 225.4 1763.65 216.85 1764.05 228.15 1764.1 243.65 1764.1 252.95 1764 271.55 1764 306.05 1765.55 349.1 1766.45 374.9 1768.9 426.65 1763.4 402.35 1762.25 355.9 1761.6 330.4 1761 320.15 1759.8 300.25 1756.95 284.8 1755.2 275.4 1755.1 274.8 1754.15 269.1 1754.2 264.7 1754.25 256.7 1759.2 240.25 Z" stroke="none" fill="#000000"></path>
</g>
</g>
</g>
</g>

<g transform="matrix( 0.3621063232421875, 0, 0, 0.3621063232421875, -594.2,0.1)" id="Layer_2"></g>
</g>
</svg>
