
<svg viewBox="0 0 112 184" height="184px" width="112px" y="0px" x="0px" preserveAspectRatio="none" xmlns:xlink="http://www.w3.org/1999/xlink" version="1.1" xmlns="http://www.w3.org/2000/svg">
<defs></defs>

<g id="fun_scrollers">
<g transform="matrix( 0.3621063232421875, 0, 0, 0.3621063232421875, -594.2,0.1)" id="svg"></g>

<g transform="matrix( 0.3621063232421875, 0, 0, 0.3621063232421875, -594.2,0.1)" id="Layer_2">
<g>
<g>
<g>
<path d="M 1655.15 108.4
L 1654.6 108.4 1654.2 108.45 1654.55 113.25 1652.7 113.45
Q 1644 118.3 1639 122 1633.8435546875 125.7599609375 1630.2 129.9
L 1630.2 145.85 1631.3 143.4
Q 1638.65 133.1 1641.7 130.2 1644.8 127.35 1655.85 120.6
L 1659 118.65
Q 1657.7 118.4 1656 118
L 1655.5 115.85
Q 1655.5 115.75 1655.15 108.4
M 1783.35 157.45
L 1783.6 160
Q 1784.7 172.2 1785.6 194.15
L 1786.75 224.15
Q 1786.95 228.75 1786.7 232.6 1786.45 235.6 1786.45 238.45
L 1787.35 266.6
Q 1788.3 292.6 1790.45 323.75 1792.1 346.5 1795.1 380.8
L 1797.7 410.45
Q 1798.45 418.95 1798.4 423.2 1797 427.2 1796.3 428.45 1795.65 429.7 1792.85 433
L 1788.5 438.25 1787.1 441.85 1786.95 442.25
Q 1786.5501953125 442.3541015625 1786.1 442.45 1781.38359375 443.5916015625 1772.95 444.6
L 1707.7 450.55
Q 1693.5 452.1 1686.3 452.6 1673.8 453.6 1664.85 452.5 1661.7 451.85 1660 450.75 1658.25 449.85 1656.05 447.4 1653.35 443.25 1652.05 440 1650.7 436.3 1650.25 431.8
L 1647.1 393.55
Q 1646.55 385.45 1646.15 381.4
L 1640.55 308.55
Q 1636.2 251.7 1634.8 229.9 1633.75 212.4 1632.7 199.8
L 1630.2 169.4 1630.2 254.6 1630.8 261.9
Q 1632.1 278.45 1632.3 281.25 1633.15 292.25 1633.45 300.65 1633.75 310.5 1635.05 323.2 1637.3 347 1638.5 365.3 1640.5 395 1642.05 413.3
L 1643.8 432.6
Q 1644.55 441.4 1646.15 446.3 1649.25 452.85 1655.75 457.4 1659.5 458.9 1663.85 459.5 1667.3 459.9 1672.15 459.8
L 1738.3 455.15
Q 1755 454 1761.65 453.25 1774.7 451.8 1784.65 449.2 1790.75 447.05 1794.85 443.5 1798.45 440.45 1802.5 434.7 1805.8 427.75 1806 422.6 1806.1 417.35 1803.8 393.4
L 1801.9 374.8
Q 1798.65 340.3 1796.9 315.8 1794.6 283.85 1794 256.7 1793.6 236.25 1792.55 208.7
L 1791.65 183.35
Q 1790.9 163.35 1789.4 153.45 1786.8 137.1 1780.3 125 1776.5 119.05 1773.2 115.55 1768.75 110.95 1763.7 108.75 1758.85 106.85 1756.25 104.95 1755.998828125 104.4330078125 1755.8 104 1755.3408203125 103.02265625 1755.2 102.6 1755 101.95 1754.75 99.95
L 1754.55 97.85 1754.4 95.5 1754.05 95.5 1753.4 95.6
Q 1754.65 100.15 1754.9 102.25 1755.3 105.8 1754.65 109 1750.4 110.55 1748.5 111
L 1748.55 111.45
Q 1750.33046875 111.563671875 1752.15 112.05 1752.75625 112.2439453125 1753.35 112.45
L 1756.05 113.7
Q 1765.1 117.9 1770.9 124.15 1776.55 131.15 1779.65 139.85 1782.35 147.55 1783.35 157.45 Z" stroke="none" fill="#706C84"></path>

<path d="M 1746.35 48.65
Q 1745.9 42.45 1744.45 38.45 1742.95 35.6 1740.9 33.45 1739.05 31.65 1736 29.8
L 1732.75 28.15
Q 1725.7 24.65 1719 23.2 1712.3 21.85 1704.4 22.35
L 1700.65 22.65
Q 1675.55 24.4 1653.1 28.7
L 1649.65 29.35
Q 1642.2 30.85 1637.85 32.05 1633.7044921875 33.1259765625 1630.2 34.4
L 1630.2 59.65
Q 1631.706640625 60.23515625 1632.3 60.4 1633.15 60.55 1635.25 60.65
L 1658.4 59.15
Q 1657.5 62.75 1657.25 66.85 1657.05 69.85 1657.2 74.55 1657.45 83.05 1657.35 86 1657.15 92.4 1655.95 97.35 1654.63125 102.5794921875 1654.6 108.4
L 1655.15 108.4
Q 1655.5 115.75 1655.5 115.85
L 1656 118
Q 1657.7 118.4 1659 118.65
L 1655.85 120.6
Q 1656.0548828125 120.49765625 1656.25 120.4 1659.7 118.9 1663.2 118.2
L 1673.45 117.55
Q 1678.4 117.25 1688.25 116.4 1697.35 115.6 1706.45 114.95
L 1743.3 111.85
Q 1745.95 111.65 1746.75 111.55 1747.6 111.55 1750.05 111.65 1750.75 111.9 1751.4 112.15
L 1752.15 112.05
Q 1750.33046875 111.563671875 1748.55 111.45
L 1748.5 111
Q 1750.4 110.55 1754.65 109 1755.3 105.8 1754.9 102.25 1754.65 100.15 1753.4 95.6
L 1754.05 95.5
Q 1753.6154296875 93.8640625 1753.1 92.3 1748.5 77.4 1746.95 57.3
L 1746.35 48.65
M 1722.45 31.15
Q 1722.5 31.5 1729.5 35.6 1736.7 40.65 1738 45.55 1738.2 46.25 1738.45 47.1
L 1667.6 54.5 1666.4 51.7 1633.75 53.7
Q 1630.45 47.9 1631.65 41.35 1675.6 23.7 1722.45 31.15
M 1731.05 53.25
Q 1735.4 53.2 1739.15 54.65 1740.05 56.25 1740.45 57.85 1740.65 58.65 1740.95 61.25
L 1741.65 67.45
Q 1743.35 81.5 1747 94.7 1748.4 100.2 1748.5 104.05
L 1746.7 106.15
Q 1743.4 106.7 1738.7 107.15
L 1661.45 113.9
Q 1661.55 106.9 1661.7 105.2 1661.85 103.45 1662.6 100 1663.8 93.55 1663.55 83.25 1663.25 70.35 1664.5 62.4
L 1667.15 59.3
Q 1669.2 58.85 1670 58.75 1670.8 58.6 1673.45 58.4
L 1731.05 53.25
M 1755.2 102.6
Q 1755.3408203125 103.02265625 1755.8 104
L 1755.3 101.95
Q 1754.998046875 99.8359375 1754.55 97.85
L 1754.75 99.95
Q 1755 101.95 1755.2 102.6 Z" stroke="none" fill="#7E1A34"></path>

<path d="M 1739.15 54.65
Q 1735.4 53.2 1731.05 53.25
L 1673.45 58.4
Q 1670.8 58.6 1670 58.75 1669.2 58.85 1667.15 59.3
L 1664.5 62.4
Q 1663.25 70.35 1663.55 83.25 1663.8 93.55 1662.6 100 1661.85 103.45 1661.7 105.2 1661.55 106.9 1661.45 113.9
L 1738.7 107.15
Q 1743.4 106.7 1746.7 106.15
L 1748.5 104.05
Q 1748.4 100.2 1747 94.7 1743.35 81.5 1741.65 67.45
L 1740.95 61.25
Q 1740.65 58.65 1740.45 57.85 1740.05 56.25 1739.15 54.65 Z" stroke="none" fill="#E21F2D"></path>

<path d="M 1729.5 35.6
Q 1722.5 31.5 1722.45 31.15 1675.6 23.7 1631.65 41.35 1630.45 47.9 1633.75 53.7
L 1666.4 51.7 1667.6 54.5 1738.45 47.1
Q 1738.2 46.25 1738 45.55 1736.7 40.65 1729.5 35.6 Z" stroke="none" fill="#DF202E"></path>

<path d="M 1783.6 160
L 1783.35 157.45
Q 1782.35 147.55 1779.65 139.85 1776.55 131.15 1770.9 124.15 1765.1 117.9 1756.05 113.7
L 1753.35 112.45
Q 1752.75625 112.2439453125 1752.15 112.05
L 1751.4 112.15
Q 1750.75 111.9 1750.05 111.65 1747.6 111.55 1746.75 111.55 1745.95 111.65 1743.3 111.85
L 1706.45 114.95
Q 1697.35 115.6 1688.25 116.4 1678.4 117.25 1673.45 117.55
L 1663.2 118.2
Q 1659.7 118.9 1656.25 120.4 1656.0548828125 120.49765625 1655.85 120.6 1644.8 127.35 1641.7 130.2 1638.65 133.1 1631.3 143.4
L 1630.2 145.85 1630.2 169.4 1632.7 199.8
Q 1633.75 212.4 1634.8 229.9 1636.2 251.7 1640.55 308.55
L 1646.15 381.4
Q 1646.55 385.45 1647.1 393.55
L 1650.25 431.8
Q 1650.7 436.3 1652.05 440 1653.35 443.25 1656.05 447.4 1658.25 449.85 1660 450.75 1661.7 451.85 1664.85 452.5 1673.8 453.6 1686.3 452.6 1693.5 452.1 1707.7 450.55
L 1772.95 444.6
Q 1781.38359375 443.5916015625 1786.1 442.45 1786.6298828125 442.1787109375 1787.1 441.85
L 1788.5 438.25 1792.85 433
Q 1795.65 429.7 1796.3 428.45 1797 427.2 1798.4 423.2 1798.45 418.95 1797.7 410.45
L 1795.1 380.8
Q 1792.1 346.5 1790.45 323.75 1788.3 292.6 1787.35 266.6
L 1786.45 238.45
Q 1786.45 235.6 1786.7 232.6 1786.95 228.75 1786.75 224.15
L 1785.6 194.15
Q 1784.7 172.2 1783.6 160
M 1754.85 235.2
L 1763.85 234.25 1766.1 234.5
Q 1768.55 238.3 1769.95 244.8
L 1770.9 247.75
Q 1771.55 250 1771.7 250.75 1771.8 251.55 1772.05 253.8
L 1771 256.25
Q 1762.95 258.5 1751.8 258
L 1750.65 256.15
Q 1746.65 256.5 1742.7 257.05
L 1734.8 258.1
Q 1731.9 258.5 1717.35 260.15 1707 261.35 1701.95 262.1 1695.35 263.05 1687.05 263.9 1683.25 264.35 1681.4 264.7 1673.35 265.9 1671.4 265.8 1669.4 265.7 1665.45 263.9 1661.4 256.7 1662.6 245 1662.75 244.55 1679.9 243.25 1701.95 241.55 1703.3 241.45
L 1711.8 240.6
Q 1727.5 239.2 1738.9 237.25 1745.75 236.1 1754.85 235.2
M 1782.25 393.6
Q 1784.05 393.65 1787.5 394.8 1788.9 398.4 1789.15 402.4 1789.35 405.5 1788.85 410.15
L 1788 411.2
Q 1781.95 412.1 1777.15 412.6
L 1773.7 413
Q 1763.15 414.15 1742.25 416.35 1732.8 417.25 1721.1 418.7 1710.9 419.9 1700.65 420.85
L 1692.9 421.7
Q 1680.4 423.3 1677.7 423.3 1674.95 423.3 1671.1 421.8 1669.2 419.05 1668.8 418 1668.4 416.95 1667.65 413.45 1667.9 409.9 1668.1 408.8 1668.35 407.65 1669.55 404.55 1672.75 402.5 1677.15 401.9 1678.95 401.65 1685.45 401.45
L 1690.45 401.05
Q 1694.95 400.65 1704.05 400.25 1710.75 399.85 1717.3 399.3 1725.1 398.75 1733.1 398.35 1747.95 397.6 1757.45 396.45
L 1773.35 394.6
Q 1780.5 393.6 1782.25 393.6
M 1722.45 190.15
L 1724 187.75
Q 1728.1 183.35 1733.65 181.45 1737.25 180.2 1745 179.3
L 1748.25 178.9
Q 1753.4 178.45 1757.2 179.2 1759.55 180.8 1761.15 182.8 1762.5 184.5 1763.75 187.35 1764.9 191.8 1765.3 198.15
L 1765.55 201
Q 1765.85 205.05 1765.5 207 1765.05 209.4 1763.2 212.5
L 1762.5 216.45
Q 1758.15 219 1751.55 220.3 1748.4 220.95 1739.9 221.85
L 1737.3 222.2
Q 1733.9 222.5 1731.85 222.2 1729.4 221.85 1726.75 220.45 1723.35 217.45 1722.6 216.6 1721.9 215.7 1720.7 213.5 1720.15 210.45 1720 209.4 1719.85 208.35 1719.55 204.95
L 1719.05 200.45
Q 1719.05 197.1 1719.85 195 1720.5 193 1722.45 190.15
M 1648.45 140.5
Q 1649.25 140.15 1650.05 139.9 1650.8 139.65 1651.65 139.5 1651.8 139.5 1652 139.45 1652.2 139.45 1652.45 139.4 1652.7 139.4 1653.05 139.35 1653.4 139.35 1653.8 139.3 1654.25 139.25 1654.75 139.2 1655.25 139.15 1655.8 139.1 1656.4 139.05 1657.05 139 1657.7 138.95 1658.4 138.9
L 1748.1 131.5
Q 1749.15 131.5 1750.25 131.45 1751.25 131.4 1752.3 131.4 1753.25 131.4 1754.3 131.4 1755.15 131.4 1756.05 131.45 1756.95 131.55 1757.9 131.65 1758.7 131.7 1759.55 131.85 1760.35 131.95 1761.2 132.1 1761.85 132.3 1762.55 132.65 1763.7 133.35 1764.7 134.2
L 1767.05 160.1 1767.25 160.1 1767.6 165.85 1765.7 166 1766.15 170.75
Q 1764.45 171.3 1763.8 171.5 1763.1 171.6 1760.7 171.8 1752.35 172.95 1743 175.9
L 1729.65 180.15
Q 1711.75 185.9 1707.3 186.45 1702.8 187 1693.95 184.7 1685.5 182.65 1677.9 182.95 1672.7 182.95 1666.6 181.4 1662.55 180.4 1655.65 177.95
L 1650.65 177.1 1646.75 175.85
Q 1646 173.7 1645.95 173 1645.85 172.3 1646.25 170.1 1650.1 168.95 1654.4 168.75
L 1701.65 164.75
Q 1715.4 163.5 1729.1 162.4
L 1731.85 162.2
Q 1738.55 161.65 1746.25 161.4
L 1754.95 161.25
Q 1757.05 161.15 1757.8 161.1 1758.6 161 1761.3 160.6
L 1761 156.85
Q 1760.45 156.8 1760 156.85 1758.9 156.85 1757.85 156.95 1756.7 157.05 1755.55 157.15 1754.3 157.3 1753.1 157.45 1751.8 157.55 1750.55 157.7 1745.3 158.4 1740 159.1 1739.2 159.2 1738.4 159.4 1737.45 159.45 1736.45 159.55 1735.4 159.7 1734.4 159.85 1733.25 159.95 1732.1 160.05 1730.85 160.2 1729.6 160.4 1728.25 160.5 1726.9 160.7 1725.45 160.85 1724 161.05 1722.45 161.2 1720.85 161.35 1719.75 161.45 1718.65 161.6 1718 161.65 1717.35 161.7 1716.6 161.7 1715.85 161.8 1714.2 161.9 1712.5 162.05 1709.5 162 1706.65 162.25 1704.1 162.5 1701.5 162.75 1698.85 162.9 1696.25 163.2 1690.8 163.75 1685.5 164.4
L 1650.9 167.55
Q 1650.05 167.4 1649.35 167.1 1649 167.05 1648.7 166.95 1648.45 166.8 1648.25 166.7 1648.1 166.6 1647.9 166.5 1647.75 166.45 1647.65 166.35 1647.6 166.35 1647.55 166.3 1647.45 166.1 1647.3 165.95 1647.15 165.6 1647 165.35 1646.85 165.05 1646.7 164.6 1646.25 163.2 1646 161.85 1645.65 160.35 1645.4 158.9 1645.2 157.45 1645.05 156.1 1644.9 154.7 1644.85 153.2 1644.75 151.8 1644.85 150.5 1645 147.7 1645.25 144.9 1645.4 143.55 1645.65 142.15
L 1645.65 142 1646.5 141 1647.7 140.85
Q 1648.064453125 140.6798828125 1648.45 140.5 Z" stroke="none" fill="#F5F7F9"></path>

<path d="M 1650.05 139.9
Q 1649.25 140.15 1648.45 140.5 1648.064453125 140.6798828125 1647.7 140.85
L 1646.5 141 1645.65 142 1645.65 142.15
Q 1645.4 143.55 1645.25 144.9 1645 147.7 1644.85 150.5 1644.75 151.8 1644.85 153.2 1644.9 154.7 1645.05 156.1 1645.2 157.45 1645.4 158.9 1645.65 160.35 1646 161.85 1646.25 163.2 1646.7 164.6 1646.85 165.05 1647 165.35 1647.15 165.6 1647.3 165.95 1647.45 166.1 1647.55 166.3 1647.6 166.35 1647.65 166.35 1647.75 166.45 1647.9 166.5 1648.1 166.6 1648.25 166.7 1648.45 166.8 1648.7 166.95 1649 167.05 1649.35 167.1 1650.05 167.4 1650.9 167.55
L 1685.5 164.4
Q 1690.8 163.75 1696.25 163.2 1698.85 162.9 1701.5 162.75 1704.1 162.5 1706.65 162.25 1709.5 162 1712.5 162.05 1714.2 161.9 1715.85 161.8 1716.6 161.7 1717.35 161.7 1718 161.65 1718.65 161.6 1719.75 161.45 1720.85 161.35 1722.45 161.2 1724 161.05 1725.45 160.85 1726.9 160.7 1728.25 160.5 1729.6 160.4 1730.85 160.2 1732.1 160.05 1733.25 159.95 1734.4 159.85 1735.4 159.7 1736.45 159.55 1737.45 159.45 1738.4 159.4 1739.2 159.2 1740 159.1 1745.3 158.4 1750.55 157.7 1751.8 157.55 1753.1 157.45 1754.3 157.3 1755.55 157.15 1756.7 157.05 1757.85 156.95 1758.9 156.85 1760 156.85 1760.45 156.8 1761 156.85
L 1761.3 160.6 1767.05 160.1 1764.7 134.2
Q 1763.7 133.35 1762.55 132.65 1761.85 132.3 1761.2 132.1 1760.35 131.95 1759.55 131.85 1758.7 131.7 1757.9 131.65 1756.95 131.55 1756.05 131.45 1755.15 131.4 1754.3 131.4 1753.25 131.4 1752.3 131.4 1751.25 131.4 1750.25 131.45 1749.15 131.5 1748.1 131.5
L 1658.4 138.9
Q 1657.7 138.95 1657.05 139 1656.4 139.05 1655.8 139.1 1655.25 139.15 1654.75 139.2 1654.25 139.25 1653.8 139.3 1653.4 139.35 1653.05 139.35 1652.7 139.4 1652.45 139.4 1652.2 139.45 1652 139.45 1651.8 139.5 1651.65 139.5 1650.8 139.65 1650.05 139.9 Z" stroke="none" fill="#110F1A"></path>

<path d="M 1646.25 170.1
Q 1645.85 172.3 1645.95 173 1646 173.7 1646.75 175.85
L 1650.65 177.1 1655.65 177.95
Q 1662.55 180.4 1666.6 181.4 1672.7 182.95 1677.9 182.95 1685.5 182.65 1693.95 184.7 1702.8 187 1707.3 186.45 1711.75 185.9 1729.65 180.15
L 1743 175.9
Q 1752.35 172.95 1760.7 171.8 1763.1 171.6 1763.8 171.5 1764.45 171.3 1766.15 170.75
L 1765.7 166 1767.6 165.85 1767.25 160.1 1767.05 160.1 1761.3 160.6
Q 1758.6 161 1757.8 161.1 1757.05 161.15 1754.95 161.25
L 1746.25 161.4
Q 1738.55 161.65 1731.85 162.2
L 1729.1 162.4
Q 1715.4 163.5 1701.65 164.75
L 1654.4 168.75
Q 1650.1 168.95 1646.25 170.1 Z" stroke="none" fill="#992A3F"></path>

<path d="M 1724 187.75
L 1722.45 190.15
Q 1720.5 193 1719.85 195 1719.05 197.1 1719.05 200.45
L 1719.55 204.95
Q 1719.85 208.35 1720 209.4 1720.15 210.45 1720.7 213.5 1721.9 215.7 1722.6 216.6 1723.35 217.45 1726.75 220.45 1729.4 221.85 1731.85 222.2 1733.9 222.5 1737.3 222.2
L 1739.9 221.85
Q 1748.4 220.95 1751.55 220.3 1758.15 219 1762.5 216.45
L 1763.2 212.5
Q 1765.05 209.4 1765.5 207 1765.85 205.05 1765.55 201
L 1765.3 198.15
Q 1764.9 191.8 1763.75 187.35 1762.5 184.5 1761.15 182.8 1759.55 180.8 1757.2 179.2 1753.4 178.45 1748.25 178.9
L 1745 179.3
Q 1737.25 180.2 1733.65 181.45 1728.1 183.35 1724 187.75
M 1727.3 196.05
Q 1728.3 194.6 1732.05 190.75 1734.5 188.65 1736.65 187.7 1738.9 186.7 1742.15 186.25
L 1746 185.95
Q 1749.45 185.6 1752.95 185.4 1754.05 186.35 1754.55 186.9 1755.05 187.45 1756.8 189.9 1759 193.05 1759.75 196.2 1760.35 198.75 1760.35 203.1
L 1759.5 204.15
Q 1758.65 206.75 1758.25 207.7 1757.85 208.55 1756.25 211.2 1751.6 214.15 1745.8 215.3 1740.85 216.3 1734.5 216.05 1731.2 215.25 1730.35 214.75 1729.45 214.2 1727.35 211.85 1725 207.55 1724.55 202.5 1726.35 197.55 1727.3 196.05 Z" stroke="none" fill="#5D5A76"></path>

<path d="M 1732.05 190.75
Q 1728.3 194.6 1727.3 196.05 1726.35 197.55 1724.55 202.5 1725 207.55 1727.35 211.85 1729.45 214.2 1730.35 214.75 1731.2 215.25 1734.5 216.05 1740.85 216.3 1745.8 215.3 1751.6 214.15 1756.25 211.2 1757.85 208.55 1758.25 207.7 1758.65 206.75 1759.5 204.15
L 1760.35 203.1
Q 1760.35 198.75 1759.75 196.2 1759 193.05 1756.8 189.9 1755.05 187.45 1754.55 186.9 1754.05 186.35 1752.95 185.4 1749.45 185.6 1746 185.95
L 1742.15 186.25
Q 1738.9 186.7 1736.65 187.7 1734.5 188.65 1732.05 190.75 Z" stroke="none" fill="#F1F3F7"></path>

<path d="M 1787.5 394.8
Q 1784.05 393.65 1782.25 393.6 1780.5 393.6 1773.35 394.6
L 1757.45 396.45
Q 1747.95 397.6 1733.1 398.35 1725.1 398.75 1717.3 399.3 1710.75 399.85 1704.05 400.25 1694.95 400.65 1690.45 401.05
L 1685.45 401.45
Q 1678.95 401.65 1677.15 401.9 1672.75 402.5 1669.55 404.55 1668.35 407.65 1668.1 408.8 1667.9 409.9 1667.65 413.45 1668.4 416.95 1668.8 418 1669.2 419.05 1671.1 421.8 1674.95 423.3 1677.7 423.3 1680.4 423.3 1692.9 421.7
L 1700.65 420.85
Q 1710.9 419.9 1721.1 418.7 1732.8 417.25 1742.25 416.35 1763.15 414.15 1773.7 413
L 1777.15 412.6
Q 1781.95 412.1 1788 411.2
L 1788.85 410.15
Q 1789.35 405.5 1789.15 402.4 1788.9 398.4 1787.5 394.8
M 1763.85 234.25
L 1754.85 235.2
Q 1745.75 236.1 1738.9 237.25 1727.5 239.2 1711.8 240.6
L 1703.3 241.45
Q 1701.95 241.55 1679.9 243.25 1662.75 244.55 1662.6 245 1661.4 256.7 1665.45 263.9 1669.4 265.7 1671.4 265.8 1673.35 265.9 1681.4 264.7 1683.25 264.35 1687.05 263.9 1695.35 263.05 1701.95 262.1 1707 261.35 1717.35 260.15 1731.9 258.5 1734.8 258.1
L 1742.7 257.05
Q 1746.65 256.5 1750.65 256.15
L 1751.8 258
Q 1762.95 258.5 1771 256.25
L 1772.05 253.8
Q 1771.8 251.55 1771.7 250.75 1771.55 250 1770.9 247.75
L 1769.95 244.8
Q 1768.55 238.3 1766.1 234.5
L 1763.85 234.25 Z" stroke="none" fill="#9DAEEA"></path>
</g>
</g>
</g>
</g>

<g transform="matrix( 0.3621063232421875, 0, 0, 0.3621063232421875, -594.2,0.1)" id="Layer_3">
<g>
<g>
<g>
<path d="M 1650.85 410.35
Q 1648.25 410.15 1646.95 410 1638.4009765625 409.160546875 1630.2 406.85
L 1630.2 428.95
Q 1630.315234375 430.128515625 1630.5 431 1631 433.35 1632.3 434.85 1633.95 436.75 1637 437.5 1639.1 438 1642.7 438.05 1645.35 438.15 1646.9 438 1649.15 437.75 1650.85 436.9 1652.95 435.75 1654.75 433.35 1656.75 430.75 1657.45 428.35 1657.9 426.85 1658.05 424.8 1658.1 423.8 1658.1 421.2
L 1658 414.95
Q 1658 413.4 1657.6 412.7 1656.95 411.5 1654.7 411 1653.05 410.6 1650.85 410.35
M 1630.2 376.2
L 1630.2 386.55
Q 1632.496484375 385.333984375 1635.15 384.05 1638.05 382.65 1639.6 382.25 1641 381.8 1641.35 381.25 1641.55 380.9 1641.55 380
L 1641.5 374.55
Q 1637.75 373.8 1633.3 375.1 1631.8595703125 375.5146484375 1630.2 376.2
M 1674.2 470
Q 1674.65 469 1675.2 467.15 1675.9 464.85 1676.4 462.6 1676.9 460.5 1677.1 458.85 1677.25 456.95 1677.15 453.15
L 1669.95 453.05
Q 1669.2 457.95 1667.8 461.7 1667.5 462.45 1665.7 466.3 1664.4 469.1 1663.85 471 1663.15 473.6 1663.1 477.55 1663.1 479.75 1663.1 484.2
L 1670.6 484.35
Q 1674.55 484.45 1676.5 484.7
L 1679.65 485.25
Q 1684.4 486.1 1689.55 485.8
L 1689.55 479
Q 1685.6 477.75 1680.45 477.5 1677.35 477.3 1671.15 477.45 1671.7 474.85 1672.75 472.8
L 1674.2 470
M 1784.05 482.65
Q 1785.5 482.45 1786 481.7 1786.4 481.15 1786.4 479.9
L 1786.35 474.25
Q 1785.15 473.9 1783.15 473.6 1780.65 473.25 1779.9 473.1 1777.25 472.35 1775.9 472 1771.7 470.9 1766.3 470.7 1763.2 470.55 1756.5 470.7 1759.1 466.2 1762.15 461.75 1764.15 458.95 1764.6 457.35 1765.1 455.75 1765 452.95 1764.85 449.5 1764.95 448.4
L 1758.1 448.3
Q 1757.85 450.25 1756.75 452.4 1756.05 453.75 1754.45 456.2
L 1751.3 460.95
Q 1748.4 465.35 1747.6 466.75 1746.4 468.8 1746.15 470.05 1746 470.9 1746 472.7
L 1746 482.8 1780.45 482.8
Q 1782.9 482.8 1784.05 482.65
M 1797.5 252.5
L 1790.6 252.45
Q 1790.3 271.25 1793.3 289.7 1793.6 291.5 1794.3 292.15 1795 292.85 1796.9 293.05 1805 293.95 1808.9 294.9 1812.35 295.75 1816.65 297.45 1818.35 298.1 1824.25 300.6
L 1834 304.9
Q 1837.55 306.45 1839.25 307.8 1841.95 310.05 1842.1 312.9 1842.15 315.65 1839.75 318.25 1838.9 319.15 1837.5 320.2 1836.7 320.8 1835.05 321.95 1833 323.4 1830.2 325.9
L 1825.45 330.05
Q 1818.8 335.55 1809.2 340.6 1803.55 343.6 1791.6 348.95
L 1791.6 355.7
Q 1795.75 356.4 1800.75 354.9 1804.25 353.85 1809.45 351.15 1817.2 347.2 1821.75 344.3 1826.65 341.3 1832.35 336.9 1835.55 334.4 1842.45 328.75 1845 326.7 1846.3 325.3 1848.2 323.25 1849.05 321.1 1849.7 319.55 1849.85 317.45 1849.95 316.3 1849.95 313.6 1849.9 309.35 1849.4 306.95 1848.65 303.35 1846.55 301.3 1845.05 299.9 1841.85 298.45 1830.25 292.95 1823.95 290.65 1813.75 286.9 1805.1 286.15 1803.55 286 1802.85 285.8 1801.65 285.45 1801.05 284.7 1800.4 283.95 1800.1 282.1 1797.8 267.05 1797.5 252.5
M 1700.25 341.1
Q 1693.15 341.45 1687.55 342.45 1686.9 342.55 1686.65 342.8 1686.35 343.1 1686.35 343.95
L 1686.3 349.45
Q 1686.2 351.1 1686.7 351.9 1687.1 352.6 1688.3 353.45 1693.6 357.3 1696.8 358.8 1701.9 361.2 1708.9 362 1713.3 362.5 1721.55 362.5
L 1725.5 362.5
Q 1727.3 362.6 1728.7 362.45 1730.3 362.25 1732.05 361.85
L 1742.95 359.65
Q 1745.25 359.25 1746.4 358.45 1747.55 357.7 1747.85 356.6 1748.05 356.05 1748.05 354.85
L 1748.1 349.9
Q 1747.2 350.1 1744.15 349.8 1741.65 349.55 1740.45 350.45
L 1739.4 351.45
Q 1738.75 351.95 1736.6 352.5
L 1724.9 354.9
Q 1722.4 355.4 1721.2 355.45 1720.25 355.5 1717.3 355.15 1710.95 354.35 1707.45 353.3 1702.15 351.75 1698.8 348.85 1703.45 348.25 1712.85 348.05
L 1750.7 347.45 1750.7 340.65 1713.05 340.85
Q 1704.5 340.9 1700.25 341.1
M 1659.25 261.1
Q 1656.9 261.75 1654.95 262.65 1650.6 264.75 1649.8 267.6 1649.55 268.5 1649.55 270.45
L 1649.6 274.4
Q 1649.6 275.1 1649.75 275.4 1650 276.05 1650.9 276.4 1652.5 277.15 1654.65 277.45 1656.05 277.6 1658.6 277.6
L 1670.7 277.55
Q 1671.9 277.55 1672.4 277.25 1673.3 276.8 1673.8 275.15 1674.9 272.15 1675.35 270.15 1675.9 267.3 1675.5 265 1682.95 263.5 1690.45 263.55
L 1690.45 256.7
Q 1678.4 256.5 1672.4 257.2 1668.1 257.75 1665.4 258.9 1663.55 259.8 1662.55 260.15 1662.1 260.35 1659.25 261.1
M 1738.45 249.6
Q 1737.05 249.7 1736.45 250.15 1736 250.45 1735.85 251 1735.65 251.55 1735.95 251.95
L 1735.1 252.15
Q 1734.8 255.3 1734.8 261.6 1734.8 263.3 1735.25 264 1736.15 265.4 1739.3 265.4
L 1758.9 265.5
Q 1761.5 265.5 1762.15 264.35 1762.4 263.9 1762.5 262.8
L 1762.65 259.5
Q 1769.55 259.25 1775.15 259.25
L 1775.15 252.4
Q 1774.1 252.4 1772.65 251.95 1771.05 251.45 1770.2 251.2 1768.15 250.65 1764.6 250.65 1760.25 250.6 1758.95 250.45 1756.35 250 1755.1 249.85 1753.4 249.6 1751.1 249.6 1742.65 249.3 1738.45 249.6 Z" stroke="none" fill="#1A1A1A"></path>
</g>
</g>
</g>
</g>
</g>
</svg>
