
<svg viewBox="0 0 272 172" height="172px" width="272px" y="0px" x="0px" preserveAspectRatio="none" xmlns:xlink="http://www.w3.org/1999/xlink" version="1.1" xmlns="http://www.w3.org/2000/svg">
<defs></defs>

<g id="Layer_2">
<g>
<g>
<g>
<path d="M 64.35 126.65
Q 64.3 126.35 64.3 126 63.7 125.1 63.3 124.15 63.3 124.3 63.3 124.4 63.3 126.1 63.9 127.6 63.95 130 64.5 132.35 64.95 134.2 64.9 136.2 65 136.3 65.05 136.45 65.1 136.55 65.15 136.7 65.15 136.8 65.15 136.95 65.112109375 137.328515625 65.1 137.7 65.163671875 138.309765625 65.35 138.9 65.45 139.15 65.55 139.4 65.55 139.5 65.55 139.65 65.55 140.35 65.55 141.1 65.55 141.25 65.55 141.35 65.65 141.5 65.7 141.6 65.8 142.1 65.8 142.6 65.8 142.7 65.8 142.85 65.9 142.95 65.95 143.05 66.05 143.2 66.1 143.3 66.15 143.45 66.15 143.55 66.2 144.2 66.2 144.8 66.2 144.9 66.2 145.05 66.2 145.15 66.25 145.25 66.5 145.55 66.8 145.8 66.8 145.9 66.85 146 67.1 146.65 67.4 147.25 67.45 147.35 67.5 147.5 68.85 148.85 69.85 150.4 70.55 151.55 71.35 152.65 71.65 152.9 71.95 153.15 72.56015625 153.76015625 73.2 154.25 76.873828125 154.272265625 80.55 154.25 91.553515625 154.1669921875 102.8 153.85 91.761328125 150.138671875 81.35 144.45 80.9462890625 144.2283203125 80.55 144 75.9646484375 141.346484375 72.4 137.7 69.7056640625 134.91484375 67.6 131.55 67.3 130.55 66.75 129.55 65.85 128 64.4 126.95 64.35 126.8 64.35 126.65
M 210.85 117.25
Q 210.3 119.15 209.85 121.05 209.05 124.3 207.35 127.15 207.35 127.3 207.35 127.45 207.2 127.9 207.25 128.4 207.25 128.55 207.25 128.7 206.9 129.25 206.55 129.85 205.9 131.05 205.6 132.35 205.6 132.55 205.55 132.7 204.0328125 135.40234375 201.9 137.7 201.8166015625 137.8255859375 201.7 137.95 200.3 139.55 199.1 141.3 198.75 141.45 198.45 141.6 197.65 142 197.25 142.8 189.6333984375 148.62578125 181.1 152.55 192.03203125 152.2349609375 202.9 151.75
L 202.95 151.7
Q 203.45 150.7 204.3 150.05 204.35 149.9 204.4 149.8 204.55 149.45 204.5 149.05 205.2 148.3 205.65 147.3 206.2 146.1 207 145.1 207 145 207.05 144.9 207.05 144.75 207.1 144.65 207.2 144.5 207.3 144.4 207.85 143.7 208.35 142.9 208.35 142.8 208.35 142.65 208.35 142.3 208.35 141.95 208.4 141.8 208.5 141.7 208.75 141.45 209 141.2 209 141.05 209 140.95 209 140.7 209 140.45 209.55 139.65 209.7 138.75 209.797265625 138.225 209.85 137.7 209.95 136.875 209.95 136.05 210.05 135.9 210.15 135.8 210.2 135.65 210.3 135.55 210.35 135.4 210.35 135.3 210.4 134.7 210.4 134.05 210.4 133.95 210.4 133.8 210.4 133.7 210.5 133.6 210.55 133.45 210.65 133.3 210.65 127.9 211.1 122.5 211.25 119.85 210.85 117.25
M 66.95 95.7
Q 66.7 96.25 66.55 96.85 66.6 96.95 66.6 97 66.6 97.45 66.8 97.8 67.05 100.95 67.4 104.1 67.55 105.8 67.7 107.45 69.35 107.45 71 107.8 71.1 107.8 71.25 107.85 73.8 107.55 76.4 107.2 76.3 105.65 74.55 104.1 73.3 102.95 72.5 101.45 69.9 98.4 66.95 95.7
M 80.55 79.95
Q 79.7375 78.04140625 79 76.05 78.7 75.15 78.35 74.3 78.2 78.25 78.25 82.2 78.25 85.15 78.4 88.05 79.479296875 87.759375 80.55 87.45 82.05859375 86.9970703125 83.55 86.5 81.9404296875 83.3123046875 80.55 79.95
M 200 98.7
Q 199.9 98.75 199.8 98.75 198.65 99.1 197.55 99.6 197.45 99.75 197.3 99.85 196.85 100.25 196.4 100.75 196.3 100.8 196.2 100.8 195.8 100.95 195.4 101.05 195.25 101.2 195.05 101.3 194.35 101.6 194.15 102.25 194.15 102.35 194.1 102.4 193.4 102.75 192.65 103 198.45 103.95 204.55 104.85 204.55 102.3 204.55 99.7 204.55 98.5 204.55 97.25 203.45 97.7 202.15 97.9 201.4 98 200.6 98.15 200.45 98.3 200.3 98.45 200.15 98.6 200 98.7
M 196.7 80.4
Q 196.7 80.25 196.65 80.15 195.6 81.55 194.65 83.05 193.65 84.65 192.4 86.1 192.1 86.25 191.85 86.45 191.75 86.55 191.7 86.7 194.05 87.75 197 89 197 88.8 197 88.65 197.15 86.9 196.7 85.3 196.7 84.4 196.7 83.55 196.7 81.95 196.7 80.4
M 176.35 129.1
Q 182.95 125.3 188.4 119.95 174.35 126.35 158.7 128.2 154.289453125 128.73046875 149.9 128.95 130.701171875 130.0916015625 111.9 125.9 106.35 124.65 101.3 122.1 98.75 120.8 96.3 119.85 96.05 119.55 95.9 119.25 95.8 119.15 95.7 119.05 95.15 118.85 94.45 118.6 94.4 118.5 94.35 118.4 94.25 118.3 94.15 118.2 93.15 117.8 92.05 117.6 91.05 116.75 89.9 116.1 89.65 116 89.6 116.15 94.05 127.35 105.35 132.4 113.08125 135.8150390625 121.3 137.7 121.7529296875 137.80234375 122.2 137.9 129 139.4 135.95 139.65 143.0384765625 139.886328125 149.9 138.75 152.5240234375 138.3263671875 155.1 137.7 157.218359375 137.1919921875 159.3 136.55 168.25 133.8 176.35 129.1 Z" stroke="none" fill="#EE9D33"></path>

<path d="M 195.3 74
Q 195.35 74.05 195.45 74.15 195.15 74.1 194.85 74.1 195.05 75.7 195.7 77.25 195.55 77.35 195.4 77.5 195.35 77.95 195.25 78.4 195.25 78.55 195.2 78.7 193.95 80.45 192.75 82.15 190.9 84.75 189.25 87 196.95 90.2 204.6 95.2 203.85 95.55 203.3 95.85 201.2 97 198.75 97.45 197.8 98.15 196.65 98.5 195.3 98.95 194.35 100 193.95 100.1 193.55 100.2 192.85 100.75 192.25 101.4 192.15 101.5 192.1 101.65 191.6 101.75 191.1 101.9 191.05 101.9 191 101.95 190.9 102.05 190.8 102.15 190.15 102.7 189.7 103.45 189.65 103.55 189.65 103.7 199.9 105.05 210.15 106.65 210.15 106.8 210.15 107 210.15 108.65 210.15 110.35 210.15 111.3 210.15 112.2 208.95 115.2 208.25 118.3 207.25 122.5 205.45 126.35 205.3 128.15 204.35 129.7 203.7 130.85 203.5 132.15 202.55 133.35 201.85 134.65 201.6 135.1 201.35 135.55 200.1466796875 136.4859375 199.2 137.7 199.10859375 137.8478515625 199 138 198 139.5 196.8 140.75 195.85 141.15 195.3 142 195.2 142.15 195.1 142.3 187.358203125 148.578125 178.4 152.65 179.759375 152.611328125 181.1 152.55 189.6333984375 148.62578125 197.25 142.8 197.65 142 198.45 141.6 198.75 141.45 199.1 141.3 200.3 139.55 201.7 137.95 201.8166015625 137.8255859375 201.9 137.7 204.0328125 135.40234375 205.55 132.7 205.6 132.55 205.6 132.35 205.9 131.05 206.55 129.85 206.9 129.25 207.25 128.7 207.25 128.55 207.25 128.4 207.2 127.9 207.35 127.45 207.35 127.3 207.35 127.15 209.05 124.3 209.85 121.05 210.3 119.15 210.85 117.25 211.25 119.85 211.1 122.5 210.65 127.9 210.65 133.3 210.55 133.45 210.5 133.6 210.4 133.7 210.4 133.8 210.4 133.95 210.4 134.05 210.4 134.7 210.35 135.3 210.35 135.4 210.3 135.55 210.2 135.65 210.15 135.8 210.05 135.9 209.95 136.05 209.95 136.875 209.85 137.7 209.797265625 138.225 209.7 138.75 209.55 139.65 209 140.45 209 140.7 209 140.95 209 141.05 209 141.2 208.75 141.45 208.5 141.7 208.4 141.8 208.35 141.95 208.35 142.3 208.35 142.65 208.35 142.8 208.35 142.9 207.85 143.7 207.3 144.4 207.2 144.5 207.1 144.65 207.05 144.75 207.05 144.9 207 145 207 145.1 206.2 146.1 205.65 147.3 205.2 148.3 204.5 149.05 204.55 149.45 204.4 149.8 204.35 149.9 204.3 150.05 203.45 150.7 202.95 151.7
L 202.9 151.75
Q 204.184765625 151.70703125 205.45 151.65 205.53203125 151.4466796875 205.65 151.25 205.9 151 206.2 150.75 206.3 150.65 206.35 150.55 206.4 150.3 206.45 150.05 206.45 149.9 206.45 149.8 207.3 148.75 207.9 147.6 208.35 146.7 208.9 145.85 208.95 145.75 208.95 145.6 209 145.5 209 145.35 210 144.4 210.25 143.15 210.3 142.9 210.3 142.65 210.6 142.3 210.85 141.9 210.9 141.8 210.95 141.7 210.95 141.45 210.95 141.2 210.95 141.05 210.95 140.95 211.4 140.5 211.6 139.95 211.65 139.85 211.7 139.7 211.7 139.6 211.7 139.45 211.7 139.1 211.7 138.75 211.7 138.6 211.7 138.5 211.8 138.35 211.85 138.25 211.9 138.1 211.95 138 211.95 137.85 211.95 137.75
L 211.95 137.7
Q 211.95 137.3716796875 211.95 137 211.95 136.9 211.95 136.75 212.1 136.5 212.25 136.25 212.3 136.15 212.35 136.05 212.35 135.9 212.35 135.8 212.35 135.15 212.35 134.55 212.35 134.45 212.35 134.3 212.45 134.2 212.5 134.05 212.55 133.95 212.6 133.8 212.6 132.2 212.6 130.6 212.6 129.25 212.6 127.9 213.3 124.7 213.1 121.3 212.75 115 212.35 108.75 212.35 108.65 212.35 108.6 212.25 108.6 212.2 108.6 212.2 107.3 212.2 105.95 209.35 105.55 206.55 105.15 206.55 103.25 206.55 101.35 206.55 98.7 206.55 96.1 206.9 95.75 207.25 95.4 204.7 92.3 200.75 90.6 199.85 90.2 198.95 89.85 198.95 88.4 199 86.95 199.05 85.8 198.65 84.8 198.65 83.1 198.75 81.45 198.8 80.3 198.4 79.25 198.5 78.2 198.2 77.25 198.4 76.9 198.55 76.55 198.6 76.4 198.65 76.25 198.65 75.95 198.65 75.65 198.65 75.05 198.65 74.4 198.6 74.25 198.55 74.1 198.2 74 197.85 73.9 197.85 73.85 197.8 73.85 197.7 73.7 197.55 73.55 197.45 73.45 197.35 73.3 196.4 73 195.5 72.65 195.25 72.55 195 72.45 188 72.2 181.05 71.95 181.05 69.2 181.05 66.45 181.05 63.8 181.05 61.2 181 61.05 180.9 60.95 180.6 60.5 180.65 59.95 180.65 59.8 180.65 59.65 180.65 59.5 180.55 59.45 180.25 59.2 180 58.85 179.9 58.7 179.7 58.55 170.1 59.6 161 62.35 160.95 62.05 160.8 61.85 160.75 61.65 160.55 61.5 160.55 61.35 160.55 61.2 160.35 60.75 160.2 60.25 160.15 60.15 160.15 60 159.95 59.65 159.8 59.35 159.75 59.2 159.75 59.05 159.75 58.9 159.75 58.75 159.95 57 159.6 55.3 159.4 54.4 158.95 53.5 158.95 53.2 158.95 52.9 158.95 52.75 158.95 52.6 158.9 52.45 158.8 52.35 158.45 51.9 158.5 51.35 158.55 51.2 158.55 51.05 158.5 50.9 158.4 50.8 158.25 50.6 158.1 50.45 158.05 50.15 157.95 49.85 157.85 49.7 157.7 49.55 156.4 49.5 155.05 49.5 154.9 49.55 154.75 49.65 154.2 50.05 153.7 50.55 153.5 50.7 153.3 50.85 151.591015625 51.5580078125 149.9 52.3 144.6642578125 54.6412109375 139.6 57.4 139.05 57.45 138.55 57.4 138.5 57.4 138.45 57.3 138.15 56.3 137.25 55.75 137.05 55.6 136.9 55.45 136.85 55.3 136.8 55.15 136.75 55 136.7 54.85 136.3 54.55 135.9 54.2 135.75 54.1 135.6 53.95 134.9 52.75 134.35 51.5 134.1 50.8 133.55 50.25 133.55 50.1 133.5 49.95 132.95 48.65 132 47.5 131.55 46.95 131.4 46.25 131.1 46.15 130.8 46 130.75 46 130.65 45.95 130.55 45.85 130.5 45.75 130.35 45.6 130.25 45.45 129.15 45.4 128 45.35 125.5 47 123.3 49.4 118.5 54.65 114.6 60.3 114.1 59.9 113.5 59.55 107.35 55.85 101.7 51.25 101.15 51.1 100.6 50.9 100.4 50.85 100.25 50.75 99.2 50.7 98.1 50.75 98 50.75 97.9 50.85 97.95 51.4 97.65 51.8 97.55 51.95 97.5 52.1 97.5 52.4 97.5 52.7 97.25 56.85 97.2 61 97.1 66.2 97.1 71.45 91.85 71.1 86.8 69.45 83.539453125 68.4080078125 80.55 68.4 79.0927734375 68.404296875 77.7 68.65 77.15 68.6 76.65 68.6 76.65 68.75 76.65 68.9 76.4 68.95 76.2 69 76.4 69.4 76.55 69.85 76.35 72.6 76.35 75.4 76.35 81.95 76.35 88.5 74.4 88.9 72.45 89.2 67.4 89.95 64.3 92.25 64.75 93.2 65.35 94 65.05 94.85 64.8 95.75 64.35 97.15 64.85 98.45 64.95 100.85 65.25 103.2 65.6 105.35 65.65 107.55 65.25 107.6 64.85 107.65 62.6 108.3 60.25 109.05 60.15 109.1 60 109.15 59.95 109.2 59.95 109.3 59.25 109.35 58.6 109.45 59.2 109.45 59.85 109.5 59.8 109.5 59.75 109.55 59.65 109.65 59.6 109.75 59.6 109.85 59.6 109.95 59.6 110.05 59.6 110.15 59.6 110.25 59.6 110.35 59.6 110.4 59.6 110.45 59.55 110.45 59.45 110.5 59.4 110.5 59.4 110.65 59.4 110.8 59.4 110.95 59.4 111.45 59.4 111.9 59.4 112.05 59.4 112.2 59.9 112.55 59.85 113.1 59.8 113.25 59.8 113.45 60.05 113.75 60.3 114.05 60.45 114.2 60.55 114.35 60.6 114.5 60.6 114.65 60.6 115.2 60.9 115.6 60.85 117.15 60.75 118.65 60.65 120.85 61.3 122.85 61.5 124.45 61.45 126.05 61.4 127.2 61.95 128.25 62 130.25 62.5 132.2 63.15 134.45 62.95 136.85 63 136.95 63.1 137.1 63.15 137.2 63.15 137.35 63.15 137.525 63.15 137.7 63.15 137.775 63.15 137.85 63 138.9 63.5 139.8 63.55 139.9 63.6 140.05 63.6 140.15 63.6 140.3 63.6 141.15 63.7 142 63.7 142.15 63.85 142.25 63.85 142.4 63.85 142.5 63.85 142.85 63.85 143.25 63.85 143.35 63.85 143.5 64 143.75 64.15 144 64.2 144.1 64.25 144.2 64.25 144.35 64.25 144.45 64.25 144.95 64.25 145.45 64.25 145.55 64.25 145.7 64.4 145.95 64.6 146.15 64.7 146.3 64.8 146.45 64.85 146.55 64.9 146.7 65.15 147.35 65.45 147.9 65.5 148.05 65.55 148.15 66.6 149.15 67.35 150.35 68.35 151.9 69.4 153.3 69.9908203125 153.7517578125 70.5 154.25 71.87734375 154.2771484375 73.2 154.25 72.56015625 153.76015625 71.95 153.15 71.65 152.9 71.35 152.65 70.55 151.55 69.85 150.4 68.85 148.85 67.5 147.5 67.45 147.35 67.4 147.25 67.1 146.65 66.85 146 66.8 145.9 66.8 145.8 66.5 145.55 66.25 145.25 66.2 145.15 66.2 145.05 66.2 144.9 66.2 144.8 66.2 144.2 66.15 143.55 66.15 143.45 66.1 143.3 66.05 143.2 65.95 143.05 65.9 142.95 65.8 142.85 65.8 142.7 65.8 142.6 65.8 142.1 65.7 141.6 65.65 141.5 65.55 141.35 65.55 141.25 65.55 141.1 65.55 140.35 65.55 139.65 65.55 139.5 65.55 139.4 65.45 139.15 65.35 138.9 65.163671875 138.309765625 65.1 137.7 65.112109375 137.328515625 65.15 136.95 65.15 136.8 65.15 136.7 65.1 136.55 65.05 136.45 65 136.3 64.9 136.2 64.95 134.2 64.5 132.35 63.95 130 63.9 127.6 63.3 126.1 63.3 124.4 63.3 124.3 63.3 124.15 63.7 125.1 64.3 126 64.3 126.35 64.35 126.65 64.35 126.8 64.4 126.95 65.85 128 66.75 129.55 67.3 130.55 67.6 131.55 69.7056640625 134.91484375 72.4 137.7 75.9646484375 141.346484375 80.55 144 80.9462890625 144.2283203125 81.35 144.45 91.761328125 150.138671875 102.8 153.85 104.143359375 153.83828125 105.5 153.8 105.936328125 153.7875 106.35 153.75 98.5259765625 151.3767578125 90.85 147.95 85.23515625 145.4521484375 80.55 142 77.862890625 140.0080078125 75.45 137.7 72.2912109375 134.6083984375 69.65 130.95 69.65 130.8 69.6 130.65 69.6 130.5 69.55 130.3 68.45 129.3 67.8 127.9 67.35 126.9 66.45 126.35 66.4 126 66.4 125.7 66.35 125.55 66.35 125.4 65.25 123.5 64.65 121.4 64.05 119.45 63.1 117.75 63.1 117.4 63.1 117.1 63.1 116.35 63.1 115.6 63.1 115.4 63.1 115.25 63.05 115.1 63 114.95 62.95 114.75 62.85 114.6 62.85 114.45 62.85 114.3 62.75 114.2 62.7 114.05 62.65 113.95 62.6 113.85 62.6 113.6 62.6 113.35 62.6 112.5 62.6 111.6 62.6 111.5 62.6 111.35
L 62.6 111.25
Q 62.2 111.2 61.85 111.2 61.85 111.1 61.85 111 61.85 110.8 61.8 110.6 61.8 110.4 61.85 110.2 61.85 110.1 61.9 110 62.5 109.7 63.1 109.5 67.55 109.45 72.4 109.1 76.55 108.75 79.05 107.1 78 104.85 76.45 102.8 72.5 97.8 67.75 93.7 67.9 93.2 67.85 92.7
L 67.85 92.6
Q 67.35 92.5 66.85 92.5 66.8 92.4 66.7 92.3 66.55 92.2 66.45 92.05 73.9017578125 90.7900390625 80.55 88.65 83.1357421875 87.8521484375 85.6 86.9 85.6 86.75 85.6 86.6 85.6 86.15 85.6 85.7 85.55 85.5 85.5 85.35 83.65 82.5 82.4 79.3 81.446484375 76.747265625 80.55 74.15 79.9888671875 72.5666015625 79.45 70.95 79.2 70.65 78.95 70.3 78.85 70.15 78.75 70 78.7 69.7 78.6 69.4
L 78.6 69.35
Q 78.6 69.25 78.6 69.15 79.5765625 69.40703125 80.55 69.65 89.99375 71.9234375 99.15 72.15 99.15 71.85 99.15 71.55 99.15 67.4 99.1 63.25 99.05 57.55 99.85 52.2 100.6 52.7 101.35 53.2 103.5 54.7 105.7 56.1 106.2 56.75 106.85 57.25 110.05 59.4 113.25 61.4 115.05 61.25 116.85 61.1 118.1 58.85 119.65 56.8 123.65 51.5 128.5 46.95 128.95 46.9 129.35 46.95 129.4 46.95 129.45 47.05 129.5 47.25 129.55 47.35 130.1 48.55 130.95 49.55 131.2 49.85 131.4 50.15 131.45 50.3 131.45 50.45 131.5 50.6 131.5 50.75 132.45 51.85 132.9 53.2 133.15 53.85 133.45 54.45 134.15 55 134.7 55.75 134.75 55.85 134.75 56 135.75 56.75 136.35 57.85 136.4 58 136.4 58.15 136.75 58.25 137.1 58.35 137.2 58.4 137.25 58.45 137.3 58.55 137.35 58.65 137.5 58.8 137.65 58.95 138.85 59 140.1 59
L 140.1 58.95
Q 144.9904296875 56.1203125 149.9 53.8 152.9712890625 52.3814453125 156.05 51.15 156.55 51.5 156.5 52.1 156.5 52.25 156.5 52.4 156.6 52.55 156.7 52.7 156.8 52.85 156.9 53 156.9 53.45 156.9 53.95 156.9 54.1 156.9 54.25 157.05 54.55 157.1 54.85 157.25 55.8 157.55 56.7 157.6 56.85 157.7 57 157.7 57.45 157.7 57.95 157.7 58.7 157.7 59.45 157.7 59.6 157.7 59.75 157.9 60.25 158.05 60.7 158.1 60.85 158.1 61 158.2 61.15 158.3 61.3 158.6 62.25 159.05 63.15 159.15 63.3 159.25 63.45 168.85 61.65 178.2 59.75 178.8 60.05 178.65 60.7 178.6 60.85 178.6 61 179.3 63.8 179.15 66.85 179 69.75 179 72.65 186.05 72.95 193.15 73.2 194.15 73.75 195.3 73.95
L 195.3 74
M 196.65 80.15
Q 196.7 80.25 196.7 80.4 196.7 81.95 196.7 83.55 196.7 84.4 196.7 85.3 197.15 86.9 197 88.65 197 88.8 197 89 194.05 87.75 191.7 86.7 191.75 86.55 191.85 86.45 192.1 86.25 192.4 86.1 193.65 84.65 194.65 83.05 195.6 81.55 196.65 80.15
M 199.8 98.75
Q 199.9 98.75 200 98.7 200.15 98.6 200.3 98.45 200.45 98.3 200.6 98.15 201.4 98 202.15 97.9 203.45 97.7 204.55 97.25 204.55 98.5 204.55 99.7 204.55 102.3 204.55 104.85 198.45 103.95 192.65 103 193.4 102.75 194.1 102.4 194.15 102.35 194.15 102.25 194.35 101.6 195.05 101.3 195.25 101.2 195.4 101.05 195.8 100.95 196.2 100.8 196.3 100.8 196.4 100.75 196.85 100.25 197.3 99.85 197.45 99.75 197.55 99.6 198.65 99.1 199.8 98.75
M 79 76.05
Q 79.7375 78.04140625 80.55 79.95 81.9404296875 83.3123046875 83.55 86.5 82.05859375 86.9970703125 80.55 87.45 79.479296875 87.759375 78.4 88.05 78.25 85.15 78.25 82.2 78.2 78.25 78.35 74.3 78.7 75.15 79 76.05
M 66.55 96.85
Q 66.7 96.25 66.95 95.7 69.9 98.4 72.5 101.45 73.3 102.95 74.55 104.1 76.3 105.65 76.4 107.2 73.8 107.55 71.25 107.85 71.1 107.8 71 107.8 69.35 107.45 67.7 107.45 67.55 105.8 67.4 104.1 67.05 100.95 66.8 97.8 66.6 97.45 66.6 97 66.6 96.95 66.55 96.85
M 90.8 96.95
Q 90.8 97.15 90.8 97.35 90.8 97.45 90.8 97.55 90.85 97.65 90.85 97.75 90.95 97.85 91 97.95 91.1 98.05 91.2 98.15 91.35 98.25 91.45 98.35 94.1 102.1 98.75 103.05 107.5 104.75 115.85 102.05 116.2 101.7 116.6 101.35 117 101 117.25 100.6 117.5 100.25 117.75 99.95 117.8 99.85 117.85 99.75 117.9 99.7 117.95 99.6 117.95 99.5 117.95 99.4 117.95 99.3 117.95 99.2 117.95 99.1 117.95 99 117.95 98.9 118 98.8 118.05 98.7 118.1 98.6 118.15 98.5 118.2 98.4 118.2 98.3 118.2 98.2 118.2 97.9 118.2 97.6 118.2 97.5 118.2 97.4 118.2 97.3 118.2 97.2 118.2 97 118.2 96.85 118.2 96.75 118.2 96.65 118.2 96.55 118.2 96.45 118.15 96.35 118.1 96.25 118.05 96.15 118 96 117.95 95.95 117.95 95.85 117.95 95.75 117.95 95.65 117.95 95.55 117.95 95.45 117.9 95.25 117.85 95.05 117.85 94.95 117.8 94.85 117.75 94.75 117.75 94.65 117.65 94.55 117.6 94.45 117.5 94.35 117.35 94.25 117.25 94.15 117.15 94.1 117.05 94 116.95 93.9 116.9 93.8 116.9 93.7 116.85 93.6 116.8 93.5 116.75 93.4 116.7 93.3 116.55 93.2 116.45 93.1 116.35 93 116.25 92.9 116.05 92.7 115.9 92.5 115.85 92.4 115.75 92.3 115.7 92.2 115.65 92.1 115.5 92.05 115.3 92 115.2 91.95 115.15 91.9 115.05 91.85 115 91.8 114.9 91.7 114.85 91.6 114.75 91.5 114.65 91.4 113.45 90.65 112.15 90.15 108.05 88.7 103.65 88.9 97.55 89.15 92.75 93 91.4 94.1 90.8 95.8 90.8 95.9 90.8 96 90.8 96.25 90.8 96.55 90.8 96.65 90.8 96.75 90.8 96.85 90.8 96.95
M 92.75 96.85
Q 93.05 95.05 94.5 93.8 98.45 90.35 103.65 89.9 108.7 89.45 112.9 92.15 112.9 92.25 113 92.35 113.05 92.45 113.15 92.55 113.35 92.65 113.55 92.7 113.65 92.75 113.75 92.85 113.85 93.05 114 93.25 114.2 93.6 114.5 93.85 114.65 93.9 114.7 94 114.8 94.2 114.95 94.4 115.15 94.75 115.45 95 115.6 95.1 115.7 95.2 115.75 95.3 115.8 95.4 115.85 95.5 115.9 95.6 115.95 95.7 115.95 95.8 115.95 95.9 115.95 96 115.95 96.15 115.95 96.35 115.95 96.45 115.95 96.55 115.95 96.65 115.95 96.75 116.1 96.95 116.2 97.15 116.25 97.25 116.25 97.35 116.25 97.45 116.25 97.55 116.25 97.65 116.2 97.7 116.05 98 116 98.35 115.95 98.65 115.95 98.9 115.95 99 115.9 99.1 115.75 99.3 115.55 99.5 112.05 103.6 106.05 102.4 104.75 101.75 103.25 102.15 101.05 102.7 98.05 101.45 94.6 99.95 92.75 96.85
M 192.15 115.5
Q 192.1 115.6 192 115.7 190.65 116.75 189.15 117.65 188.25 118.15 187.25 118.5 187.2 118.6 187.15 118.7 187.05 118.8 186.95 118.9 177.45 123.7 166.9 125.8 164 126.35 161.15 126.8 155.5212890625 127.6916015625 149.9 128.1 134.398046875 129.2583984375 118.95 126.8 108.25 125.1 99.2 119.3 98.75 119.25 98.3 119.15 98.2 119.1 98.15 119.05 98.1 118.95 98 118.85 97.9 118.65 97.75 118.45 97.65 118.35 97.55 118.25 97.25 118.2 96.9 118.1 96.75 118.05 96.55 118 96.45 117.9 96.35 117.8 95.45 117.05 94.2 116.95 94.05 116.95 93.9 116.9 92.5 115.9 91 115.2 90.25 114.85 89.7 114.25 88.5 114.25 87.25 114.2 87.2 114.25 87.15 114.35 87.15 114.4 87.15 114.5 87.15 114.6 87.15 114.7 87.15 114.9 87.15 115.1 87.15 115.2 87.15 115.3 87.25 115.4 87.3 115.5 87.35 115.6 87.4 115.7 87.4 115.8 87.4 115.9 87.45 116.1 87.55 116.3 87.6 116.4 87.65 116.5 87.65 116.6 87.65 116.7 87.65 116.8 87.65 116.9 87.65 117.1 87.7 117.25 87.7 117.35 87.7 117.45 89.15 119.65 90.55 121.85 96.05 130.8 106.25 134.5 111.574609375 136.4111328125 116.95 137.7 132.077734375 141.301953125 147.8 140.05 148.854296875 139.9662109375 149.9 139.85 153.218359375 139.4603515625 156.45 138.7 158.390234375 138.2478515625 160.3 137.7 168.5017578125 135.3392578125 176.05 131.2 184.45 126.65 191.2 119.9 191.25 119.8 191.3 119.7 191.35 119.6 191.4 119.5 191.45 119.4 191.45 119.3 191.9 118.85 192.25 118.4 192.6 118 193.1 117.7 193.2 117.65 193.3 117.55 193.35 117.45 193.35 117.35 193.4 117.25 193.45 117.15 193.45 117.05 193.5 116.95 193.8 116.65 194.1 116.4 194.4 116.15 194.45 115.75 194.5 115.65 194.5 115.55 194.5 115.45 194.45 115.45 193.5 115.25 192.5 115.15
L 192.5 115.2
Q 192.4 115.25 192.3 115.35 192.2 115.4 192.15 115.5
M 188.4 119.95
Q 182.95 125.3 176.35 129.1 168.25 133.8 159.3 136.55 157.218359375 137.1919921875 155.1 137.7 152.5240234375 138.3263671875 149.9 138.75 143.0384765625 139.886328125 135.95 139.65 129 139.4 122.2 137.9 121.7529296875 137.80234375 121.3 137.7 113.08125 135.8150390625 105.35 132.4 94.05 127.35 89.6 116.15 89.65 116 89.9 116.1 91.05 116.75 92.05 117.6 93.15 117.8 94.15 118.2 94.25 118.3 94.35 118.4 94.4 118.5 94.45 118.6 95.15 118.85 95.7 119.05 95.8 119.15 95.9 119.25 96.05 119.55 96.3 119.85 98.75 120.8 101.3 122.1 106.35 124.65 111.9 125.9 130.701171875 130.0916015625 149.9 128.95 154.289453125 128.73046875 158.7 128.2 174.35 126.35 188.4 119.95
M 170.85 89.05
Q 166.8 87.5 162.3 88.05 158 88.65 154.3 91 153 91.8 151.95 92.9 151.9 93 151.85 93.1 151.8 93.2 151.75 93.3 151.7 93.4 151.6 93.5 151.6 93.9 151.6 94.25 151.6 94.75 151.6 95.25 151.6 95.75 151.6 96.25 151.6 96.35 151.6 96.45 151.8 96.75 152.05 97 152.1 97.1 152.2 97.2 152.3 97.3 152.4 97.4 153.6 100.3 156.7 101 165.6 102.95 174.6 99.9 175.55 99.2 176.25 98.3 176.85 97.55 177.1 96.75 177.15 96.65 177.2 96.55 177.2 96.45 177.2 96.35 177.2 96.1 177.2 95.8 177.2 95.6 177.2 95.4 177.2 95.3 177.2 95.2 177.1 95.1 177.05 95 177 94.9 176.9 94.8 176.9 94.6 176.9 94.4 176.9 94.3 176.85 94.25 176.8 94.1 176.65 94 176.65 93.8 176.65 93.6 176.6 93.5 176.6 93.4 176.55 93.3 176.5 93.2 176.1 92.9 175.75 92.5 175.1 91.85 174.45 91.25 174.35 91.15 174.3 91.05 174.1 91 173.9 90.95 173.75 90.9 173.6 90.85 173.5 90.85 173.45 90.8 172.4 89.65 170.85 89.05
M 171.6 91.5
Q 171.85 91.6 172.05 91.65 172.25 91.7 172.45 91.8 172.55 92.15 172.85 92.35 173.9 93.1 174.6 94.1 174.65 94.15 174.65 94.25 174.7 94.35 174.7 94.45 174.7 94.55 174.7 94.65 175 94.9 175.05 95.25 175.1 95.65 175.15 96.05 175.05 96.25 175 96.45 174.9 96.65 174.9 96.85 174.65 97.1 174.5 97.35 173.75 98.45 172.7 99.2 165.2 101.55 157.5 100.25 157.4 100.15 157.25 100.1 156.5 99.55 155.85 99 154.75 98.05 154.35 96.75 154.2 96.55 154 96.35 153.8 96.05 153.6 95.8 153.6 95.3 153.55 94.8 153.55 94.3 153.7 93.8 154.8 92.6 156.15 91.75 159.488671875 89.570703125 163.4 88.85 163.737890625 88.797265625 164.05 88.75 164.46328125 88.789453125 164.85 88.8 165.51328125 88.908984375 166.15 89 169.3 89.45 171.6 91.5 Z" stroke="none" fill="#000000"></path>

<path d="M 195.45 74.15
Q 195.35 74.05 195.3 74
L 195.3 73.95
Q 194.15 73.75 193.15 73.2 186.05 72.95 179 72.65 179 69.75 179.15 66.85 179.3 63.8 178.6 61 178.6 60.85 178.65 60.7 178.8 60.05 178.2 59.75 168.85 61.65 159.25 63.45 159.15 63.3 159.05 63.15 158.6 62.25 158.3 61.3 158.2 61.15 158.1 61 158.1 60.85 158.05 60.7 157.9 60.25 157.7 59.75 157.7 59.6 157.7 59.45 157.7 58.7 157.7 57.95 157.7 57.45 157.7 57 157.6 56.85 157.55 56.7 157.25 55.8 157.1 54.85 157.05 54.55 156.9 54.25 156.9 54.1 156.9 53.95 156.9 53.45 156.9 53 156.8 52.85 156.7 52.7 156.6 52.55 156.5 52.4 156.5 52.25 156.5 52.1 156.55 51.5 156.05 51.15 152.9712890625 52.3814453125 149.9 53.8 144.9904296875 56.1203125 140.1 58.95
L 140.1 59
Q 138.85 59 137.65 58.95 137.5 58.8 137.35 58.65 137.3 58.55 137.25 58.45 137.2 58.4 137.1 58.35 136.75 58.25 136.4 58.15 136.4 58 136.35 57.85 135.75 56.75 134.75 56 134.75 55.85 134.7 55.75 134.15 55 133.45 54.45 133.15 53.85 132.9 53.2 132.45 51.85 131.5 50.75 131.5 50.6 131.45 50.45 131.45 50.3 131.4 50.15 131.2 49.85 130.95 49.55 130.1 48.55 129.55 47.35 129.5 47.25 129.45 47.05 129.4 46.95 129.35 46.95 128.95 46.9 128.5 46.95 123.65 51.5 119.65 56.8 118.1 58.85 116.85 61.1 115.05 61.25 113.25 61.4 110.05 59.4 106.85 57.25 106.2 56.75 105.7 56.1 103.5 54.7 101.35 53.2 100.6 52.7 99.85 52.2 99.05 57.55 99.1 63.25 99.15 67.4 99.15 71.55 99.15 71.85 99.15 72.15 89.99375 71.9234375 80.55 69.65 79.5765625 69.40703125 78.6 69.15 78.6 69.25 78.6 69.35
L 78.6 69.4
Q 78.7 69.7 78.75 70 78.85 70.15 78.95 70.3 79.2 70.65 79.45 70.95 79.9888671875 72.5666015625 80.55 74.15 81.446484375 76.747265625 82.4 79.3 83.65 82.5 85.5 85.35 85.55 85.5 85.6 85.7 85.6 86.15 85.6 86.6 85.6 86.75 85.6 86.9 83.1357421875 87.8521484375 80.55 88.65 73.9017578125 90.7900390625 66.45 92.05 66.55 92.2 66.7 92.3 66.8 92.4 66.85 92.5 67.35 92.5 67.85 92.6
L 67.85 92.7
Q 67.9 93.2 67.75 93.7 72.5 97.8 76.45 102.8 78 104.85 79.05 107.1 76.55 108.75 72.4 109.1 67.55 109.45 63.1 109.5 62.5 109.7 61.9 110 61.85 110.1 61.85 110.2 61.8 110.4 61.8 110.6 61.85 110.8 61.85 111 61.85 111.1 61.85 111.2 62.2 111.2 62.6 111.25
L 62.6 111.35
Q 62.6 111.5 62.6 111.6 62.6 112.5 62.6 113.35 62.6 113.6 62.6 113.85 62.65 113.95 62.7 114.05 62.75 114.2 62.85 114.3 62.85 114.45 62.85 114.6 62.95 114.75 63 114.95 63.05 115.1 63.1 115.25 63.1 115.4 63.1 115.6 63.1 116.35 63.1 117.1 63.1 117.4 63.1 117.75 64.05 119.45 64.65 121.4 65.25 123.5 66.35 125.4 66.35 125.55 66.4 125.7 66.4 126 66.45 126.35 67.35 126.9 67.8 127.9 68.45 129.3 69.55 130.3 69.6 130.5 69.6 130.65 69.65 130.8 69.65 130.95 72.2912109375 134.6083984375 75.45 137.7 77.862890625 140.0080078125 80.55 142 85.23515625 145.4521484375 90.85 147.95 98.5259765625 151.3767578125 106.35 153.75 118.2380859375 153.45 130.15 153.45 140.0447265625 153.4197265625 149.9 153.25 164.2037109375 153.0798828125 178.4 152.65 187.358203125 148.578125 195.1 142.3 195.2 142.15 195.3 142 195.85 141.15 196.8 140.75 198 139.5 199 138 199.10859375 137.8478515625 199.2 137.7 200.1466796875 136.4859375 201.35 135.55 201.6 135.1 201.85 134.65 202.55 133.35 203.5 132.15 203.7 130.85 204.35 129.7 205.3 128.15 205.45 126.35 207.25 122.5 208.25 118.3 208.95 115.2 210.15 112.2 210.15 111.3 210.15 110.35 210.15 108.65 210.15 107 210.15 106.8 210.15 106.65 199.9 105.05 189.65 103.7 189.65 103.55 189.7 103.45 190.15 102.7 190.8 102.15 190.9 102.05 191 101.95 191.05 101.9 191.1 101.9 191.6 101.75 192.1 101.65 192.15 101.5 192.25 101.4 192.85 100.75 193.55 100.2 193.95 100.1 194.35 100 195.3 98.95 196.65 98.5 197.8 98.15 198.75 97.45 201.2 97 203.3 95.85 203.85 95.55 204.6 95.2 196.95 90.2 189.25 87 190.9 84.75 192.75 82.15 193.95 80.45 195.2 78.7 195.25 78.55 195.25 78.4 195.35 77.95 195.4 77.5 195.55 77.35 195.7 77.25 195.05 75.7 194.85 74.1 195.15 74.1 195.45 74.15
M 162.3 88.05
Q 166.8 87.5 170.85 89.05 172.4 89.65 173.45 90.8 173.5 90.85 173.6 90.85 173.75 90.9 173.9 90.95 174.1 91 174.3 91.05 174.35 91.15 174.45 91.25 175.1 91.85 175.75 92.5 176.1 92.9 176.5 93.2 176.55 93.3 176.6 93.4 176.6 93.5 176.65 93.6 176.65 93.8 176.65 94 176.8 94.1 176.85 94.25 176.9 94.3 176.9 94.4 176.9 94.6 176.9 94.8 177 94.9 177.05 95 177.1 95.1 177.2 95.2 177.2 95.3 177.2 95.4 177.2 95.6 177.2 95.8 177.2 96.1 177.2 96.35 177.2 96.45 177.2 96.55 177.15 96.65 177.1 96.75 176.85 97.55 176.25 98.3 175.55 99.2 174.6 99.9 165.6 102.95 156.7 101 153.6 100.3 152.4 97.4 152.3 97.3 152.2 97.2 152.1 97.1 152.05 97 151.8 96.75 151.6 96.45 151.6 96.35 151.6 96.25 151.6 95.75 151.6 95.25 151.6 94.75 151.6 94.25 151.6 93.9 151.6 93.5 151.7 93.4 151.75 93.3 151.8 93.2 151.85 93.1 151.9 93 151.95 92.9 153 91.8 154.3 91 158 88.65 162.3 88.05
M 192 115.7
Q 192.1 115.6 192.15 115.5 192.2 115.4 192.3 115.35 192.4 115.25 192.5 115.2
L 192.5 115.15
Q 193.5 115.25 194.45 115.45 194.5 115.45 194.5 115.55 194.5 115.65 194.45 115.75 194.4 116.15 194.1 116.4 193.8 116.65 193.5 116.95 193.45 117.05 193.45 117.15 193.4 117.25 193.35 117.35 193.35 117.45 193.3 117.55 193.2 117.65 193.1 117.7 192.6 118 192.25 118.4 191.9 118.85 191.45 119.3 191.45 119.4 191.4 119.5 191.35 119.6 191.3 119.7 191.25 119.8 191.2 119.9 184.45 126.65 176.05 131.2 168.5017578125 135.3392578125 160.3 137.7 158.390234375 138.2478515625 156.45 138.7 153.218359375 139.4603515625 149.9 139.85 148.854296875 139.9662109375 147.8 140.05 132.077734375 141.301953125 116.95 137.7 111.574609375 136.4111328125 106.25 134.5 96.05 130.8 90.55 121.85 89.15 119.65 87.7 117.45 87.7 117.35 87.7 117.25 87.65 117.1 87.65 116.9 87.65 116.8 87.65 116.7 87.65 116.6 87.65 116.5 87.6 116.4 87.55 116.3 87.45 116.1 87.4 115.9 87.4 115.8 87.4 115.7 87.35 115.6 87.3 115.5 87.25 115.4 87.15 115.3 87.15 115.2 87.15 115.1 87.15 114.9 87.15 114.7 87.15 114.6 87.15 114.5 87.15 114.4 87.15 114.35 87.2 114.25 87.25 114.2 88.5 114.25 89.7 114.25 90.25 114.85 91 115.2 92.5 115.9 93.9 116.9 94.05 116.95 94.2 116.95 95.45 117.05 96.35 117.8 96.45 117.9 96.55 118 96.75 118.05 96.9 118.1 97.25 118.2 97.55 118.25 97.65 118.35 97.75 118.45 97.9 118.65 98 118.85 98.1 118.95 98.15 119.05 98.2 119.1 98.3 119.15 98.75 119.25 99.2 119.3 108.25 125.1 118.95 126.8 134.398046875 129.2583984375 149.9 128.1 155.5212890625 127.6916015625 161.15 126.8 164 126.35 166.9 125.8 177.45 123.7 186.95 118.9 187.05 118.8 187.15 118.7 187.2 118.6 187.25 118.5 188.25 118.15 189.15 117.65 190.65 116.75 192 115.7
M 90.8 97.35
Q 90.8 97.15 90.8 96.95 90.8 96.85 90.8 96.75 90.8 96.65 90.8 96.55 90.8 96.25 90.8 96 90.8 95.9 90.8 95.8 91.4 94.1 92.75 93 97.55 89.15 103.65 88.9 108.05 88.7 112.15 90.15 113.45 90.65 114.65 91.4 114.75 91.5 114.85 91.6 114.9 91.7 115 91.8 115.05 91.85 115.15 91.9 115.2 91.95 115.3 92 115.5 92.05 115.65 92.1 115.7 92.2 115.75 92.3 115.85 92.4 115.9 92.5 116.05 92.7 116.25 92.9 116.35 93 116.45 93.1 116.55 93.2 116.7 93.3 116.75 93.4 116.8 93.5 116.85 93.6 116.9 93.7 116.9 93.8 116.95 93.9 117.05 94 117.15 94.1 117.25 94.15 117.35 94.25 117.5 94.35 117.6 94.45 117.65 94.55 117.75 94.65 117.75 94.75 117.8 94.85 117.85 94.95 117.85 95.05 117.9 95.25 117.95 95.45 117.95 95.55 117.95 95.65 117.95 95.75 117.95 95.85 117.95 95.95 118 96 118.05 96.15 118.1 96.25 118.15 96.35 118.2 96.45 118.2 96.55 118.2 96.65 118.2 96.75 118.2 96.85 118.2 97 118.2 97.2 118.2 97.3 118.2 97.4 118.2 97.5 118.2 97.6 118.2 97.9 118.2 98.2 118.2 98.3 118.2 98.4 118.15 98.5 118.1 98.6 118.05 98.7 118 98.8 117.95 98.9 117.95 99 117.95 99.1 117.95 99.2 117.95 99.3 117.95 99.4 117.95 99.5 117.95 99.6 117.9 99.7 117.85 99.75 117.8 99.85 117.75 99.95 117.5 100.25 117.25 100.6 117 101 116.6 101.35 116.2 101.7 115.85 102.05 107.5 104.75 98.75 103.05 94.1 102.1 91.45 98.35 91.35 98.25 91.2 98.15 91.1 98.05 91 97.95 90.95 97.85 90.85 97.75 90.85 97.65 90.8 97.55 90.8 97.45 90.8 97.35 Z" stroke="none" fill="#FDDF5E"></path>

<path d="M 94.5 93.8
Q 93.05 95.05 92.75 96.85 94.6 99.95 98.05 101.45 101.05 102.7 103.25 102.15 104.75 101.75 106.05 102.4 112.05 103.6 115.55 99.5 115.75 99.3 115.9 99.1 115.95 99 115.95 98.9 115.95 98.65 116 98.35 116.05 98 116.2 97.7 116.25 97.65 116.25 97.55 116.25 97.45 116.25 97.35 116.25 97.25 116.2 97.15 116.1 96.95 115.95 96.75 115.95 96.65 115.95 96.55 115.95 96.45 115.95 96.35 115.95 96.15 115.95 96 115.95 95.9 115.95 95.8 115.95 95.7 115.9 95.6 115.85 95.5 115.8 95.4 115.75 95.3 115.7 95.2 115.6 95.1 115.45 95 115.15 94.75 114.95 94.4 114.8 94.2 114.7 94 114.65 93.9 114.5 93.85 114.2 93.6 114 93.25 113.85 93.05 113.75 92.85 113.65 92.75 113.55 92.7 113.35 92.65 113.15 92.55 113.05 92.45 113 92.35 112.9 92.25 112.9 92.15 108.7 89.45 103.65 89.9 98.45 90.35 94.5 93.8
M 172.05 91.65
Q 171.85 91.6 171.6 91.5 169.3 89.45 166.15 89 165.51328125 88.908984375 164.85 88.8 164.46328125 88.789453125 164.05 88.75 163.737890625 88.797265625 163.4 88.85 159.488671875 89.570703125 156.15 91.75 154.8 92.6 153.7 93.8 153.55 94.3 153.55 94.8 153.6 95.3 153.6 95.8 153.8 96.05 154 96.35 154.2 96.55 154.35 96.75 154.75 98.05 155.85 99 156.5 99.55 157.25 100.1 157.4 100.15 157.5 100.25 165.2 101.55 172.7 99.2 173.75 98.45 174.5 97.35 174.65 97.1 174.9 96.85 174.9 96.65 175 96.45 175.05 96.25 175.15 96.05 175.1 95.65 175.05 95.25 175 94.9 174.7 94.65 174.7 94.55 174.7 94.45 174.7 94.35 174.65 94.25 174.65 94.15 174.6 94.1 173.9 93.1 172.85 92.35 172.55 92.15 172.45 91.8 172.25 91.7 172.05 91.65 Z" stroke="none" fill="#EEC24E"></path>
</g>
</g>
</g>
</g>
</svg>
