
<svg viewBox="0 0 178 263" height="263px" width="178px" y="0px" x="0px" preserveAspectRatio="none" xmlns:xlink="http://www.w3.org/1999/xlink" version="1.1" xmlns="http://www.w3.org/2000/svg">
<defs></defs>

<g id="Layer_1">
<g transform="matrix( 0.6392822265625, 0, 0, 0.63946533203125, 46.85,7.3)" id="Layer_1"></g>

<g transform="matrix( 0.6392822265625, 0, 0, 0.63946533203125, 46.85,7.3)" id="Layer_2">
<g transform="matrix( 0.9050750732421875, 0, 0.210693359375, 0.89459228515625, 147.6,76.15)" id="Layer_1">
<g>
<g>
<g>
<path d="M -178.3 -74.6
Q -178.35 -74.7 -178.35 -74.85 -178.35 -74.9 -178.35 -74.95 -179.2 -75.6 -180.2 -75.8 -181.95 -76.15 -183.7 -76.45 -183.65 -76.5 -183.6 -76.55 -183.5 -76.6 -183.35 -76.65
L -183.3 -76.7
Q -182.05 -78.3 -180.7 -79.85 -179.95 -80.65 -180.2 -81.65 -183.55 -81.65 -186.85 -81.65
L -186.9 -81.65
Q -187.1 -82.15 -187 -82.7 -186.8 -83.7 -186.7 -84.7 -186.65 -84.95 -186.5 -85.2 -186.4 -85.75 -186.4 -86.35 -186.35 -87.15 -186.4 -87.95 -186.4 -88.15 -186.55 -88.35 -190.35 -88.25 -193.7 -87.15 -193.75 -87.3 -193.8 -87.4 -193.85 -87.55 -193.9 -87.7 -193.95 -87.75 -193.95 -87.8 -194.15 -87.95 -194.3 -88.2 -194.4 -88.35 -194.45 -88.55 -194.45 -88.6 -194.45 -88.7 -194.55 -88.8 -194.65 -88.9 -194.75 -89.05 -194.9 -89.2 -194.95 -89.25 -195 -89.3 -195 -89.35 -195.05 -89.45 -195.7 -90.65 -196.75 -91.6 -197.1 -91.9 -197.35 -92.35 -197.55 -92.45 -197.75 -92.6 -197.8 -92.65 -197.85 -92.7 -198.85 -92.75 -199.85 -92.75 -199.9 -92.75 -199.95 -92.7 -200.05 -92.65 -200.2 -92.6 -200.3 -92.5 -200.45 -92.45 -201.65 -91.35 -202.55 -90.1 -203 -89.45 -203.55 -88.85 -203.65 -88.95 -203.75 -89 -204.7 -89.9 -205.45 -91 -205.7 -91.35 -205.95 -91.65 -206.1 -91.7 -206.2 -91.8 -206.3 -91.85 -206.35 -91.9 -206.4 -91.95 -206.4 -92.05 -206.45 -92.1 -206.5 -92.15 -206.5 -92.2 -206.55 -92.3 -206.7 -92.35 -206.8 -92.4 -208 -92.45 -209.25 -92.45
L -209.3 -92.4
Q -209.4 -92.3 -209.5 -92.2 -209.65 -92.05 -209.75 -91.85 -209.8 -91.75 -209.8 -91.7 -209.8 -91.65 -209.8 -91.55 -209.8 -91.5 -209.8 -91.45 -209.95 -91.3 -210.05 -91.1 -210.2 -90.8 -210.4 -90.55 -210.45 -90.5 -210.45 -90.45 -210.55 -90.05 -210.6 -89.7 -210.7 -89.1 -210.9 -88.55 -210.9 -88.5 -210.95 -88.45 -211 -88.05 -211.05 -87.65 -211.1 -87.15 -211.25 -86.65 -211.25 -86.6 -211.25 -86.55 -212.35 -87.1 -213.5 -87.75 -215.15 -88.7 -216.7 -89.7 -217.9 -89.7 -219.05 -89.65
L -219.1 -89.6
Q -219.1 -89.35 -219.1 -89.1 -219.1 -88.8 -219.1 -88.45 -219.1 -88.4 -219.1 -88.35 -219.05 -88.3 -219 -88.2 -218.95 -88.15 -218.95 -88.1 -218.9 -88.05 -218.9 -87.95 -218.9 -87.85 -218.85 -87.7 -218.7 -85.7 -218.1 -83.8 -217.8 -82.85 -217.75 -81.8 -217.95 -81.8 -218.15 -81.75 -218.35 -81.8 -218.5 -81.9 -221.5 -83.3 -224.6 -82.9 -224.6 -82.65 -224.6 -82.4 -224.6 -82.1 -224.55 -81.75 -224.55 -81.7 -224.55 -81.65 -224.3 -81.45 -224.2 -81.15 -223.8 -79.95 -223.3 -78.75 -223.1 -78.3 -222.8 -77.85 -222.75 -77.6 -222.65 -77.35 -222.5 -77.05 -222.4 -76.75 -222.35 -76.65 -222.3 -76.6 -225.85 -76.5 -229.3 -76.05 -229.3 -75.85 -229.3 -75.7 -229.3 -75.5 -229.25 -75.3 -229.25 -75.25 -229.25 -75.15 -229.15 -75.1 -229.1 -75.05 -229.05 -75 -229.05 -74.9 -228.9 -74.85 -228.75 -74.8 -228.65 -74.75 -228.55 -74.65 -228.55 -74.6 -228.55 -74.55 -228.5 -74.5 -228.5 -74.4 -227.4 -73.75 -226.4 -72.95 -226.2 -72.8 -225.95 -72.65 -225.9 -72.6 -225.85 -72.5 -225.65 -72.25 -225.3 -72.1 -225.25 -72.1 -225.2 -72.05 -225.15 -71.95 -225.1 -71.9 -224.95 -71.7 -224.8 -71.55 -224.7 -71.45 -224.65 -71.4 -225.2 -71.2 -225.8 -71.1 -226.541015625 -71.019921875 -227.25 -70.9
L -227.25 -70.95
Q -228.3 -70.95 -229.3 -71
L -229.3 -70.95
Q -229.35 -70.85 -229.4 -70.8 -229.45 -70.75 -229.5 -70.7 -229.5 -70.6 -229.5 -70.55 -229.5 -70.5 -229.5 -70.45 -229.5 -70.35 -229.55 -70.3 -229.6 -70.25 -229.6 -70.2 -229.6 -70 -229.65 -69.8 -229.95 -68.7 -230.1 -67.55 -230.1 -67.3 -230.15 -67.05 -229.8658203125 -67.05 -229.6 -67.05 -229.5927734375 -66.826953125 -229.6 -66.6 -229.65 -65.7 -229.35 -64.95 -229.3 -63.3 -228.85 -61.7 -228.6 -60.7 -228.55 -59.65 -228.4 -59.4 -228.35 -59.15 -228.05 -58.2 -227.7 -57.25 -227.7 -57.2 -227.7 -57.15 -226.85 -55.45 -225.85 -53.85 -222.8 -49.05 -217.35 -47 -203.7 -41.8 -190.05 -46.8 -182 -49.7 -178.95 -57.45 -179 -57.7 -178.95 -57.95 -178.8 -58.95 -178.5 -59.95 -178.45 -60.05 -178.35 -60.2 -178.3 -61.85 -178.05 -63.5 -177.85 -64.5 -177.6 -65.5 -177.6 -65.6 -177.6 -65.75 -177.6 -67 -177.55 -68.25 -177.55 -68.65 -177.8 -68.9 -177.8 -69 -177.8 -69.15 -177.8427734375 -69.40703125 -177.8 -69.7 -177.505078125 -69.6548828125 -177.2 -69.65 -177.2 -69.75 -177.2 -69.9 -177.2 -70 -177.2 -70.15 -177.2 -70.2 -177.2 -70.25 -178 -70.45 -178.8 -70.65 -180.25 -70.95 -181.7 -71.1 -181.7 -71.15 -181.7 -71.2 -181.05 -71.8 -180.25 -72.2 -180.2 -72.2 -180.15 -72.25 -180.1 -72.35 -180 -72.45 -179.7 -72.85 -179.15 -72.95
L -179.1 -73
Q -179.1 -73.05 -179.05 -73.1 -179 -73.2 -178.9 -73.35 -178.85 -73.4 -178.85 -73.45 -178.7 -73.5 -178.6 -73.6 -178.55 -73.65 -178.5 -73.7 -178.5 -73.75 -178.45 -73.8 -178.4 -73.95 -178.35 -74.1 -178.35 -74.15 -178.35 -74.2 -178.3 -74.4 -178.3 -74.6
M -198.9 -91
Q -198.65 -90.65 -198.4 -90.35 -197.75 -89.7 -197.15 -89 -197.1 -88.95 -197.05 -88.9 -197.05 -88.85 -197.05 -88.75 -197.05 -88.7 -197.05 -88.65 -196.95 -88.5 -196.85 -88.4 -196.75 -88.25 -196.6 -88.15 -196.55 -88.05 -196.5 -88 -196.5 -87.75 -196.35 -87.5 -196.05 -87.15 -195.85 -86.75 -195.85 -86.7 -195.75 -86.6 -195.75 -86.55 -195.75 -86.5 -195.65 -86.35 -195.6 -86.25 -195.5 -86.2 -195.45 -86.1 -195.4 -86.05 -195.3 -86.05 -191.7 -85.95 -188.4 -87.25 -188.35 -86.7 -188.5 -86.15 -188.65 -85.4 -188.8 -84.65 -188.85 -84.55 -188.9 -84.4 -188.85 -83.9 -188.9 -83.4 -189.05 -82.4 -189.1 -81.4 -189.1 -81.05 -188.9 -80.9 -185.45 -80.7 -182.5 -80.75 -182.6 -80.65 -182.7 -80.55 -183 -80.35 -183.15 -80 -183.15 -79.95 -183.2 -79.85 -183.35 -79.75 -183.45 -79.6 -184.3 -78.75 -185 -77.85 -185.15 -77.65 -185.3 -77.5 -185.4 -77.45 -185.5 -77.4 -185.55 -77.35 -185.6 -77.3 -185.65 -77.25 -185.7 -77.2 -185.7 -77.1 -185.7 -77.05 -185.75 -77 -185.85 -76.95 -185.9 -76.85 -186 -76.8 -186 -76.75 -186.05 -76.7 -186.05 -76.5 -186.05 -76.3 -186.05 -76.1 -186.05 -75.95 -186.05 -75.85 -186.05 -75.8 -185 -75.4 -183.75 -75.3 -182.1 -75.15 -180.75 -74.3 -180.8 -74.25 -180.85 -74.15 -180.95 -74.05 -181 -73.9 -181.05 -73.85 -181.1 -73.8 -181.2 -73.75 -181.3 -73.7 -181.45 -73.65 -181.55 -73.6 -181.6 -73.6 -181.7 -73.55 -181.75 -73.45 -181.85 -73.4 -182.85 -72.6 -183.9 -71.8 -184.1 -71.65 -184.3 -71.55 -184.35 -71.35 -184.35 -71.1 -184.3 -70.9 -184.3 -70.75 -184.3 -70.65 -184.25 -70.6 -184 -70.5 -183.8 -70.35 -183.65 -70.3 -183.55 -70.2 -181.751953125 -69.9234375 -180 -69.8 -180 -69.7173828125 -180 -69.65 -180 -69.55 -180 -69.5 -179.95 -69.4 -179.9 -69.25 -179.85 -69.2 -179.85 -69.15 -179.85 -69 -179.85 -68.9 -179.85 -68.5 -179.75 -68.15 -179.75 -68.05 -179.65 -68 -179.6 -67.8 -179.6 -67.6 -179.6 -67 -179.65 -66.35 -179.65 -66.3 -179.65 -66.25 -179.95 -64.65 -180.25 -63 -180.4 -62 -180.4 -60.95 -180.5 -60.7 -180.6 -60.45 -180.85 -59.45 -180.95 -58.45 -180.95 -58.3947265625 -180.95 -58.35 -180.95 -58.2630859375 -180.95 -58.2 -181.65 -56.25 -182.85 -54.6 -186.7 -49.2 -193.05 -47 -195.35 -46.2 -197.7 -45.75 -206.4 -44 -214.6 -47.2 -222.15 -50.1 -225.3 -57.35 -227.8818359375 -63.159375 -227.5 -69.65
L -227.5 -69.8
Q -227.5 -69.8296875 -227.5 -69.9 -224.786328125 -69.9587890625 -222.3 -70.75
L -222.3 -70.8
Q -222.3 -71 -222.3 -71.2 -222.3 -71.3 -222.3 -71.45 -222.3 -71.5 -222.3 -71.55 -222.4 -71.65 -222.45 -71.7 -222.5 -71.75 -222.55 -71.8 -222.55 -71.9 -222.55 -71.95 -222.55 -72 -222.6 -72.05 -222.7 -72.2 -222.85 -72.3 -223.05 -72.45 -223.15 -72.7 -223.15 -72.75 -223.2 -72.8 -223.3 -72.9 -223.4 -72.95 -223.7 -73.05 -223.9 -73.3
L -223.95 -73.35
Q -223.9591796875 -73.4091796875 -224 -73.45 -225.1 -74.1 -226.15 -74.85 -226.45 -75.05 -226.5 -75.35 -225.647265625 -75.433984375 -224.8 -75.55 -222.780078125 -75.708203125 -220.65 -75.9 -220.3564453125 -75.923046875 -220.05 -75.95
L -220.05 -76
Q -220.05 -76.22734375 -220.05 -76.45 -220.05 -76.6 -220.05 -76.8 -220.1 -76.85 -220.1 -76.95 -220.3 -77.15 -220.4 -77.45 -220.95 -78.85 -221.6 -80.2 -221.9 -80.8 -222 -81.45 -221.8552734375 -81.691015625 -221.35 -81.5
L -221.3 -81.45
Q -218.45546875 -80.1748046875 -215.5 -80.3 -215.408203125 -80.2970703125 -215.35 -80.3 -215.3 -80.85 -215.45 -81.4 -215.75 -82.35 -215.85 -83.4 -215.9 -83.7 -215.85 -84 -216.1 -84.45 -216.25 -84.9 -216.484375 -85.7205078125 -216.6 -86.6 -216.628125 -86.8095703125 -216.65 -87.05 -216.7 -87.45 -216.8 -87.8 -215.6 -87.2 -214.45 -86.5 -213.9 -86.1 -213.3 -85.7 -213.05 -85.65 -212.8 -85.55 -212.7 -85.55 -212.55 -85.5 -212.5 -85.45 -212.45 -85.35 -212.4 -85.3 -212.35 -85.25 -212.2 -85.2 -212.1 -85.15 -212 -85.1 -211.9 -85.05 -211.85 -85.05 -211.85 -85 -210.65 -84.95 -209.5 -85 -209.45 -85 -209.35 -85.05 -209.34453125 -85.109765625 -209.35 -85.2 -209.2890625 -85.659765625 -209.2 -86.15 -209.1 -86.85 -208.95 -87.55 -208.95 -87.6 -208.95 -87.65 -208.8 -88.05 -208.65 -88.45 -208.5 -89 -208.45 -89.55 -208.45 -89.6 -208.45 -89.7 -208.35 -89.85 -208.2 -90.05 -208 -90.3 -207.9 -90.55 -207.85 -90.65 -207.8 -90.7 -207.785546875 -90.679296875 -207.8 -90.65 -206.832421875 -89.333203125 -205.7 -88.25 -205.05 -87.65 -204.5 -87.05 -203.2 -87.05 -201.9 -87.1
L -201.85 -87.15
Q -201.8 -87.3 -201.8 -87.4 -201.75 -87.55 -201.7 -87.65 -201.7 -87.75 -201.7 -87.8 -200.8 -88.9 -200 -90 -199.6119140625 -90.560546875 -199.1 -90.9 -198.989453125 -90.9517578125 -198.9 -91 Z" stroke="none" fill="#000000"></path>

<path d="M -221.35 -81.5
Q -221.8552734375 -81.691015625 -222 -81.45 -221.9 -80.8 -221.6 -80.2 -220.95 -78.85 -220.4 -77.45 -220.3 -77.15 -220.1 -76.95 -220.1 -76.85 -220.05 -76.8 -220.05 -76.6 -220.05 -76.45 -220.05 -76.22734375 -220.05 -76
L -219.5 -76.1
Q -218.55 -76.15 -218.1 -76.15 -217.25 -76.2 -216.75 -76.1 -218.558203125 -78.56953125 -221.35 -81.5
M -213.25 -80.75
Q -214.538671875 -83.3275390625 -216.6 -86.6 -216.484375 -85.7205078125 -216.25 -84.9 -216.1 -84.45 -215.85 -84 -215.9 -83.7 -215.85 -83.4 -215.75 -82.35 -215.45 -81.4 -215.3 -80.85 -215.35 -80.3 -215.408203125 -80.2970703125 -215.5 -80.3 -214.2607421875 -79.76796875 -212.85 -79.35 -212.85 -79.7 -213.25 -80.75
M -207.9 -90.55
Q -208 -90.3 -208.2 -90.05 -208.35 -89.85 -208.45 -89.7 -208.45 -89.6 -208.45 -89.55 -208.5 -89 -208.65 -88.45 -208.8 -88.05 -208.95 -87.65 -208.95 -87.6 -208.95 -87.55 -209.1 -86.85 -209.2 -86.15 -209.2890625 -85.659765625 -209.35 -85.2
L -207.6 -84
Q -207.5 -83.9 -207.3 -83.85 -207.05 -83.75 -207 -83.85 -207.751171875 -87.271875 -207.8 -90.65 -207.785546875 -90.679296875 -207.8 -90.7 -207.85 -90.65 -207.9 -90.55
M -180.95 -58.2
Q -180.95 -58.2630859375 -180.95 -58.35 -181.85390625 -57.106640625 -183 -56 -188.05 -51.05 -196.85 -49.35 -201.75 -48.25 -206.1 -48.55 -211.1 -48.85 -215 -51 -219.4 -53.45 -221.9 -58.2 -224.45 -62.95 -224 -68
L -218.75 -69.85 -223.95 -73.35 -223.9 -73.3
Q -223.7 -73.05 -223.4 -72.95 -223.3 -72.9 -223.2 -72.8 -223.15 -72.75 -223.15 -72.7 -223.05 -72.45 -222.85 -72.3 -222.7 -72.2 -222.6 -72.05 -222.55 -72 -222.55 -71.95 -222.55 -71.9 -222.55 -71.8 -222.5 -71.75 -222.45 -71.7 -222.4 -71.65 -222.3 -71.55 -222.3 -71.5 -222.3 -71.45 -222.3 -71.3 -222.3 -71.2 -222.3 -71 -222.3 -70.8
L -222.3 -70.75
Q -224.786328125 -69.9587890625 -227.5 -69.9 -227.5 -69.8296875 -227.5 -69.8
L -227.5 -69.65
Q -227.8818359375 -63.159375 -225.3 -57.35 -222.15 -50.1 -214.6 -47.2 -206.4 -44 -197.7 -45.75 -195.35 -46.2 -193.05 -47 -186.7 -49.2 -182.85 -54.6 -181.65 -56.25 -180.95 -58.2
M -200.75 -86.75
Q -200.5 -86.75 -200.5 -87 -199.9490234375 -88.3560546875 -199.1 -90.9 -199.6119140625 -90.560546875 -200 -90 -200.8 -88.9 -201.7 -87.8 -201.7 -87.75 -201.7 -87.65 -201.75 -87.55 -201.8 -87.4 -201.3724609375 -87.1603515625 -201 -86.85
L -200.75 -86.75 Z" stroke="none" fill="#EE9B27"></path>

<path d="M -198.4 -90.35
Q -198.65 -90.65 -198.9 -91 -198.989453125 -90.9517578125 -199.1 -90.9 -199.9490234375 -88.3560546875 -200.5 -87 -200.5 -86.75 -200.75 -86.75
L -201 -86.85
Q -201.3724609375 -87.1603515625 -201.8 -87.4 -201.8 -87.3 -201.85 -87.15
L -201.9 -87.1
Q -203.2 -87.05 -204.5 -87.05 -205.05 -87.65 -205.7 -88.25 -206.832421875 -89.333203125 -207.8 -90.65 -207.751171875 -87.271875 -207 -83.85 -207.05 -83.75 -207.3 -83.85 -207.5 -83.9 -207.6 -84
L -209.35 -85.2
Q -209.34453125 -85.109765625 -209.35 -85.05 -209.45 -85 -209.5 -85 -210.65 -84.95 -211.85 -85 -211.85 -85.05 -211.9 -85.05 -212 -85.1 -212.1 -85.15 -212.2 -85.2 -212.35 -85.25 -212.4 -85.3 -212.45 -85.35 -212.5 -85.45 -212.55 -85.5 -212.7 -85.55 -212.8 -85.55 -213.05 -85.65 -213.3 -85.7 -213.9 -86.1 -214.45 -86.5 -215.6 -87.2 -216.8 -87.8 -216.7 -87.45 -216.65 -87.05 -216.628125 -86.8095703125 -216.6 -86.6 -214.538671875 -83.3275390625 -213.25 -80.75 -212.85 -79.7 -212.85 -79.35 -214.2607421875 -79.76796875 -215.5 -80.3 -218.45546875 -80.1748046875 -221.3 -81.45
L -221.35 -81.5
Q -218.558203125 -78.56953125 -216.75 -76.1 -217.25 -76.2 -218.1 -76.15 -218.55 -76.15 -219.5 -76.1
L -220.05 -76 -220.05 -75.95
Q -220.3564453125 -75.923046875 -220.65 -75.9 -222.780078125 -75.708203125 -224.8 -75.55 -225.647265625 -75.433984375 -226.5 -75.35 -226.45 -75.05 -226.15 -74.85 -225.1 -74.1 -224 -73.45 -223.9591796875 -73.4091796875 -223.95 -73.35
L -218.75 -69.85 -224 -68
Q -224.45 -62.95 -221.9 -58.2 -219.4 -53.45 -215 -51 -211.1 -48.85 -206.1 -48.55 -201.75 -48.25 -196.85 -49.35 -188.05 -51.05 -183 -56 -181.85390625 -57.106640625 -180.95 -58.35 -180.95 -58.3947265625 -180.95 -58.45 -180.85 -59.45 -180.6 -60.45 -180.5 -60.7 -180.4 -60.95 -180.4 -62 -180.25 -63 -179.95 -64.65 -179.65 -66.25 -179.65 -66.3 -179.65 -66.35 -179.6 -67 -179.6 -67.6 -179.6 -67.8 -179.65 -68 -179.75 -68.05 -179.75 -68.15 -179.85 -68.5 -179.85 -68.9 -179.85 -69 -179.85 -69.15 -179.85 -69.2 -179.9 -69.25 -179.95 -69.4 -180 -69.5 -180 -69.55 -180 -69.65 -180 -69.7173828125 -180 -69.8 -181.751953125 -69.9234375 -183.55 -70.2 -183.65 -70.3 -183.8 -70.35 -184 -70.5 -184.25 -70.6 -184.3 -70.65 -184.3 -70.75 -184.3 -70.9 -184.35 -71.1 -184.35 -71.35 -184.3 -71.55 -184.1 -71.65 -183.9 -71.8 -182.85 -72.6 -181.85 -73.4 -181.75 -73.45 -181.7 -73.55 -181.6 -73.6 -181.55 -73.6 -181.45 -73.65 -181.3 -73.7 -181.2 -73.75 -181.1 -73.8 -181.05 -73.85 -181 -73.9 -180.95 -74.05 -180.85 -74.15 -180.8 -74.25 -180.75 -74.3 -182.1 -75.15 -183.75 -75.3 -185 -75.4 -186.05 -75.8 -186.05 -75.85 -186.05 -75.95 -186.05 -76.1 -186.05 -76.3 -186.05 -76.5 -186.05 -76.7 -186 -76.75 -186 -76.8 -185.9 -76.85 -185.85 -76.95 -185.75 -77 -185.7 -77.05 -185.7 -77.1 -185.7 -77.2 -185.65 -77.25 -185.6 -77.3 -185.55 -77.35 -185.5 -77.4 -185.4 -77.45 -185.3 -77.5 -185.15 -77.65 -185 -77.85 -184.3 -78.75 -183.45 -79.6 -183.35 -79.75 -183.2 -79.85 -183.15 -79.95 -183.15 -80 -183 -80.35 -182.7 -80.55 -182.6 -80.65 -182.5 -80.75 -185.45 -80.7 -188.9 -80.9 -189.1 -81.05 -189.1 -81.4 -189.05 -82.4 -188.9 -83.4 -188.85 -83.9 -188.9 -84.4 -188.85 -84.55 -188.8 -84.65 -188.65 -85.4 -188.5 -86.15 -188.35 -86.7 -188.4 -87.25 -191.7 -85.95 -195.3 -86.05 -195.4 -86.05 -195.45 -86.1 -195.5 -86.2 -195.6 -86.25 -195.65 -86.35 -195.75 -86.5 -195.75 -86.55 -195.75 -86.6 -195.85 -86.7 -195.85 -86.75 -196.05 -87.15 -196.35 -87.5 -196.5 -87.75 -196.5 -88 -196.55 -88.05 -196.6 -88.15 -196.75 -88.25 -196.85 -88.4 -196.95 -88.5 -197.05 -88.65 -197.05 -88.7 -197.05 -88.75 -197.05 -88.85 -197.05 -88.9 -197.1 -88.95 -197.15 -89 -197.75 -89.7 -198.4 -90.35 Z" stroke="none" fill="#FEDF59"></path>
</g>
</g>
</g>
</g>
</g>

<g transform="matrix( 0.6392822265625, 0, 0, 0.63946533203125, 46.85,7.3)" id="Layer_3">
<g>
<g>
<g>
<path d="M -58.55 10.55
Q -58.7 10.6 -58.95 10.65 -60.15 10.8 -61.25 11.35 -61.35 11.4 -61.45 11.4 -62.15 11.75 -62.6 12.35 -64.1 14.15 -63.35 16.3 -63.2 16.7 -63 17.1 -62.75 17.3 -62.5 17.45 -62.45 17.5 -62.4 17.55 -62.4 17.65 -62.4 17.7 -62.4 17.8 -62.4 17.9 -62.35 17.95 -62.35 18 -61.8 18.15 -61.3 18.45 -60.15 19.15 -58.8 19.45 -58.8 19.5 -58.75 19.5 -55.95 19.6 -53.35 18.5 -52 17.95 -50.95 16.85 -50.6 16.2 -50.5 15.5 -50.3 14.7 -50.3 13.8 -50.3 13.75 -50.3 13.7 -50.45 13.45 -50.55 13.15 -50.7 12.85 -50.8 12.55 -50.8 12.5 -50.85 12.45 -50.9 12.35 -51 12.25 -51.4 11.95 -51.7 11.6 -51.75 11.55 -51.8 11.5 -52.6 11.1 -53.45 10.85 -55.85 10.1 -58.55 10.55
M -56.65 11.3
Q -56 11.35 -55.4 11.6 -54.65 11.85 -53.85 12.15 -53.7 12.3 -53.5 12.5 -53.15 12.8 -52.8 13.15 -52.7 13.45 -52.55 13.8 -52.45 14.1 -52.25 14.4 -52.25 14.5 -52.25 14.6 -52.25 14.7 -52.3 14.8 -52.3 14.95 -52.35 15.15 -52.4 15.2 -52.45 15.25 -52.5 15.3 -52.55 15.35 -53 16.4 -53.95 17.15 -56.45 19.15 -59.05 17.85 -59.1 17.85 -59.1 17.8 -59.1 17.7 -59.1 17.65 -59.1 17.45 -59.1 17.25 -59.35 17.15 -59.6 17.1 -60.4 16.85 -61.05 16.3 -61.75 15.65 -61.5 14.8 -61.25 13.85 -60.7 13 -60.25 12.6 -59.7 12.35 -58.25 11.6 -56.65 11.3
M -38.1 12.05
L -38.1 12
Q -38.65 10.85 -39.2 9.7 -39.85 8.35 -41 7.45 -43.55 5.45 -46.95 6.05 -47.15 6.1 -47.45 6.15 -48.3 6.4 -49 6.9 -49.05 6.95 -49.15 7 -49.2 7.05 -49.25 7.1 -49.35 7.25 -49.45 7.4 -49.55 7.5 -49.65 7.65 -49.7 7.7 -49.75 7.75 -50.35 9 -50.65 10.4 -50.95 11.8 -50.35 13.05 -49.15 15.45 -46.5 15.85 -46.45 15.9 -46.4 15.95 -46.4 16 -46.4 16.05 -46.2 16.1 -46 16.1 -45.8 16.15 -45.6 16.2 -45.1 16.45 -44.45 16.55 -42.25 16.95 -40.1 16.45 -39.95 16.3 -39.75 16.15 -39.55 16 -39.25 15.9 -39.2 15.85 -39.1 15.85 -39.1 15.8 -39.05 15.75 -39.05 15.7 -39.05 15.65 -39 15.6 -39 15.55 -38.6 15.3 -38.5 14.9 -38.45 14.7 -38.3 14.55 -38.25 14.5 -38.2 14.45 -38.2 14.4 -38.2 14.35 -38 13.7 -38.05 13 -38.05 12.55 -38.1 12.05
M -40 12.85
Q -40 12.95 -40.05 13.1 -40.1 13.3 -40.15 13.5 -40.15 13.6 -40.2 13.75 -40.3 13.85 -40.35 13.95 -40.45 14.1 -40.55 14.3 -40.55 14.45 -40.65 14.55 -40.7 14.6 -40.75 14.65 -40.85 14.75 -40.95 14.85 -41 14.9 -41 14.95 -41.05 15.05 -41.1 15.1 -41.2 15.15 -41.25 15.2 -41.5 15.25 -41.7 15.4 -41.9 15.5 -42.05 15.65 -42.4 15.8 -42.8 15.7 -43.4 15.55 -43.95 15.35 -44 15.35 -44 15.3 -44.05 15.25 -44.1 15.2 -44.4 15.15 -44.75 15.05 -45.95 14.8 -46.9 14.1 -49.9 11.8 -47.8 8.45 -47.75 8.4 -47.7 8.35 -47.55 8.25 -47.45 8.05 -47.4 7.95 -47.3 7.8 -47.05 7.65 -46.8 7.5 -46.15 7.05 -45.4 6.95 -44.55 7.05 -43.8 7.5 -42.1 8.4 -41.2 10.2 -40.9 10.9 -40.55 11.65 -40.3 12.25 -40 12.85 Z" stroke="none" fill="#000000"></path>

<path d="M -55.4 11.6
Q -56 11.35 -56.65 11.3 -58.25 11.6 -59.7 12.35 -60.25 12.6 -60.7 13 -61.25 13.85 -61.5 14.8 -61.75 15.65 -61.05 16.3 -60.4 16.85 -59.6 17.1 -59.35 17.15 -59.1 17.25 -59.1 17.45 -59.1 17.65 -59.1 17.7 -59.1 17.8 -59.1 17.85 -59.05 17.85 -56.45 19.15 -53.95 17.15 -53 16.4 -52.55 15.35 -52.5 15.3 -52.45 15.25 -52.4 15.2 -52.35 15.15 -52.3 14.95 -52.3 14.8 -52.25 14.7 -52.25 14.6 -52.25 14.5 -52.25 14.4 -52.45 14.1 -52.55 13.8 -52.7 13.45 -52.8 13.15 -53.15 12.8 -53.5 12.5 -53.7 12.3 -53.85 12.15 -54.65 11.85 -55.4 11.6
M -40.05 13.1
Q -40 12.95 -40 12.85 -40.3 12.25 -40.55 11.65 -40.9 10.9 -41.2 10.2 -42.1 8.4 -43.8 7.5 -44.55 7.05 -45.4 6.95 -46.15 7.05 -46.8 7.5 -47.05 7.65 -47.3 7.8 -47.4 7.95 -47.45 8.05 -47.55 8.25 -47.7 8.35 -47.75 8.4 -47.8 8.45 -49.9 11.8 -46.9 14.1 -45.95 14.8 -44.75 15.05 -44.4 15.15 -44.1 15.2 -44.05 15.25 -44 15.3 -44 15.35 -43.95 15.35 -43.4 15.55 -42.8 15.7 -42.4 15.8 -42.05 15.65 -41.9 15.5 -41.7 15.4 -41.5 15.25 -41.25 15.2 -41.2 15.15 -41.1 15.1 -41.05 15.05 -41 14.95 -41 14.9 -40.95 14.85 -40.85 14.75 -40.75 14.65 -40.7 14.6 -40.65 14.55 -40.55 14.45 -40.55 14.3 -40.45 14.1 -40.35 13.95 -40.3 13.85 -40.2 13.75 -40.15 13.6 -40.15 13.5 -40.1 13.3 -40.05 13.1 Z" stroke="none" fill="#EE9B27"></path>
</g>
</g>
</g>
</g>

<g transform="matrix( 0.6392822265625, 0, 0, 0.63946533203125, 46.85,7.3)" id="Layer_4">
<g>
<g>
<g>
<path d="M -36.95 18.4
Q -37 18.35 -37.05 18.35 -39.8 18.3 -42.55 18.3 -45.1 18.7 -47.55 19.4 -47.6 19.4 -47.65 19.4 -47.75 19.5 -47.8 19.55 -47.85 19.6 -47.9 19.65 -48 19.7 -48.1 19.7 -48.15 19.75 -48.2 19.75 -48.2 19.8 -48.2 19.85 -48.3 19.95 -48.35 20.05 -48.35 20.1 -48.35 20.15 -48.35 20.4 -48.35 20.7 -48.35 20.9 -48.35 21.15 -48.35 21.2 -48.35 21.25 -48 22 -47.75 22.75 -47.2 24.4 -47 26.2
L -47 26.25
Q -45.4 26.95 -43.1 26.65 -41.9 26.5 -40.7 26.4 -37.75 26.15 -35.8 24.15 -35.6 23.4 -35.5 22.6 -35.3 21.15 -35.5 19.7 -35.5 19.65 -35.5 19.6 -35.65 19.4 -35.75 19.25 -36.1 18.8 -36.55 18.55 -36.6 18.55 -36.65 18.5 -36.8 18.45 -36.95 18.4
M -37.6 22.65
Q -37.6 22.7 -37.6 22.75
L -37.6 22.8
Q -37.6 22.85 -37.6 22.9 -37.6 23 -37.6 23.1 -37.65 23.15 -37.65 23.2 -37.7 23.25 -37.7 23.3 -37.7 23.35 -37.75 23.45 -38.25 24.1 -39 24.4 -41.9 25.6 -45.05 25.7 -45.05 25.65 -45.05 25.55 -45.2 23.9 -45.75 22.35 -46.1 21.5 -46.25 20.6 -46.15 20.5 -46 20.45
L -46 20.4
Q -45.9 20.35 -45.85 20.25 -45.8 20.2 -45.75 20.15 -45.1 20.05 -44.5 19.9 -42.6 19.45 -40.65 19.05 -39.85 19.05 -39 19.05 -37.4 19.55 -37.35 21.15 -37.3 21.95 -37.6 22.65 Z" stroke="none" fill="#000000"></path>

<path d="M -37.6 22.75
Q -37.6 22.7 -37.6 22.65 -37.3 21.95 -37.35 21.15 -37.4 19.55 -39 19.05 -39.85 19.05 -40.65 19.05 -42.6 19.45 -44.5 19.9 -45.1 20.05 -45.75 20.15 -45.8 20.2 -45.85 20.25 -45.9 20.35 -46 20.4
L -46 20.45
Q -46.15 20.5 -46.25 20.6 -46.1 21.5 -45.75 22.35 -45.2 23.9 -45.05 25.55 -45.05 25.65 -45.05 25.7 -41.9 25.6 -39 24.4 -38.25 24.1 -37.75 23.45 -37.7 23.35 -37.7 23.3 -37.7 23.25 -37.65 23.2 -37.65 23.15 -37.6 23.1 -37.6 23 -37.6 22.9 -37.6 22.85 -37.6 22.8
L -37.6 22.75 Z" stroke="none" fill="#EE9B27"></path>
</g>
</g>
</g>
</g>
</g>
</svg>
