
<svg viewBox="0 0 112 184" height="184px" width="112px" y="0px" x="0px" preserveAspectRatio="none" xmlns:xlink="http://www.w3.org/1999/xlink" version="1.1" xmlns="http://www.w3.org/2000/svg">
<defs></defs>

<g id="fun_scrollers">
<g transform="matrix( 0.3621063232421875, 0, 0, 0.3621063232421875, -594.2,0.1)" id="svg"></g>

<g transform="matrix( 0.3621063232421875, 0, 0, 0.3621063232421875, -594.2,0.1)" id="Layer_2"></g>

<g transform="matrix( 0.3621063232421875, 0, 0, 0.3621063232421875, -594.2,0.1)" id="Layer_3"></g>

<g transform="matrix( 0.3621063232421875, 0, 0, 0.3621063232421875, -594.2,0.1)" id="Layer_2">
<g>
<g>
<g>
<path d="M 1770.65 119.7
L 1770.65 121.85
Q 1770.75 123.85 1770.85 124.5 1770.95625 124.925 1771.35 125.95
L 1771 123.85
Q 1770.8986328125 121.7205078125 1770.65 119.7
M 1754.9 48.45
Q 1748.2 44.3 1741.6 42.3 1735.15 40.4 1727.2 40.2
L 1723.45 40.2
Q 1698.3 39.75 1675.5 42.1
L 1672.05 42.5
Q 1664.45 43.3 1660.05 44.1 1653.35 45.2 1648.25 47.05 1647.4 48.7 1647.3 49.85 1647.15 50.95 1647.2 55.9
L 1647.2 58.6
Q 1647.15 60.55 1647.1 64.5 1647.2 67.9 1648.35 70.15 1651.25 71.55 1652.05 71.85 1652.9 72.1 1655 72.4
L 1678.15 72.9
Q 1676.95 76.45 1676.4 80.45 1675.95 83.4 1675.65 88.15 1675.15 96.6 1674.85 99.6 1674.1 105.95 1672.45 110.75 1670.6748046875 115.8478515625 1670.15 121.65
L 1670.7 121.65
Q 1670.45 129 1670.45 129.1
L 1670.75 131.25
Q 1672.4 131.9 1673.65 132.25
L 1670.35 133.85
Q 1670.2978515625 133.876171875 1670.25 133.9 1670.5150390625 133.8087890625 1670.75 133.75 1674.4 132.5 1677.85 132.15
L 1688.15 132.4
Q 1693.1 132.5 1703 132.55 1712.15 132.5 1721.3 132.6
L 1758.2 132.75
Q 1760.85 132.7 1761.7 132.75 1762.55 132.8 1765 133.15 1765.65 133.4 1766.3 133.7
L 1766.95 133.7
Q 1765.1916015625 133.046484375 1763.45 132.75
L 1763.45 132.3
Q 1765.4 132.05 1769.75 130.85 1770.75 127.7 1770.6 124.15 1770.55 122 1769.7 117.35
L 1770.35 117.35
Q 1770.100390625 115.676953125 1769.75 114.1 1766.4 98.85 1766.5 78.7
L 1766.65 70.05
Q 1766.8 63.8 1765.7 59.7 1764.45 56.65 1762.6 54.45 1760.9 52.45 1758 50.35
L 1754.9 48.45
M 1758.7 66.2
Q 1758.85 66.95 1758.95 67.8
L 1687.8 69.1 1686.8 66.2 1654.1 65.4
Q 1651.35 59.3 1653.1 52.9 1698.45 39.05 1744.5 50.55 1744.5 50.9 1751.05 55.6 1757.8 61.3 1758.7 66.2
M 1759.05 75.4
Q 1759.8 77 1760.05 78.65 1760.15 79.5 1760.25 82.1
L 1760.4 88.3
Q 1760.85 102.5 1763.45 115.95 1764.35 121.55 1764.05 125.4
L 1762.2 127.35
Q 1758.8 127.6 1754.1 127.65
L 1676.55 127.75
Q 1677.25 120.75 1677.5 119.1 1677.8 117.3 1678.8 113.95 1680.65 107.65 1681.25 97.35 1682.1 84.5 1684 76.7
L 1686.9 73.8
Q 1689 73.55 1689.8 73.45 1690.65 73.4 1693.3 73.4
L 1751.1 73.25
Q 1755.45 73.6 1759.05 75.4 Z" stroke="none" fill="#7E1A34"></path>

<path d="M 1760.05 78.65
Q 1759.8 77 1759.05 75.4 1755.45 73.6 1751.1 73.25
L 1693.3 73.4
Q 1690.65 73.4 1689.8 73.45 1689 73.55 1686.9 73.8
L 1684 76.7
Q 1682.1 84.5 1681.25 97.35 1680.65 107.65 1678.8 113.95 1677.8 117.3 1677.5 119.1 1677.25 120.75 1676.55 127.75
L 1754.1 127.65
Q 1758.8 127.6 1762.2 127.35
L 1764.05 125.4
Q 1764.35 121.55 1763.45 115.95 1760.85 102.5 1760.4 88.3
L 1760.25 82.1
Q 1760.15 79.5 1760.05 78.65 Z" stroke="none" fill="#E21F2D"></path>

<path d="M 1758.95 67.8
Q 1758.85 66.95 1758.7 66.2 1757.8 61.3 1751.05 55.6 1744.5 50.9 1744.5 50.55 1698.45 39.05 1653.1 52.9 1651.35 59.3 1654.1 65.4
L 1686.8 66.2 1687.8 69.1 1758.95 67.8 Z" stroke="none" fill="#DF202E"></path>

<path d="M 1794.15 181.6
L 1794.2 184.15
Q 1794.2 196.45 1793.25 218.3
L 1791.85 248.3
Q 1791.65 252.95 1791.05 256.8 1790.6 259.7 1790.3 262.55
L 1788.8 290.7
Q 1787.45 316.65 1786.95 347.85 1786.65 370.65 1786.65 405.05
L 1786.65 434.85
Q 1786.7 443.4 1786.25 447.65 1784.55 451.55 1783.7 452.7 1782.95 453.9 1779.9 456.95
L 1775.1 461.8 1773.35 465.3 1773.2 465.6
Q 1772.84375 465.666015625 1772.45 465.7 1767.66328125 466.518359375 1759 466.75
L 1693.5 467.05
Q 1679.2 467.35 1672 467.3 1659.5 467.15 1650.65 465.3 1647.6 464.4 1646 463.2 1644.35 462.1 1642.35 459.5 1640 455.1 1639 451.75 1637.95 448 1637.9 443.4
L 1638.1 405.05
Q 1638.2 396.9 1638.2 392.85
L 1638.95 319.75
Q 1639.45 262.75 1639.95 240.9 1640.45 223.4 1640.45 210.8
L 1640.65 174.2
Q 1640.6 168.1 1640.8 165.6 1641.1 161 1642.4 157.25
L 1643.9 154.5
Q 1652.1 144.85 1655.45 142.25 1658.73515625 139.66171875 1670.25 133.9 1670.2978515625 133.876171875 1670.35 133.85
L 1673.65 132.25
Q 1672.4 131.9 1670.75 131.25
L 1670.45 129.1
Q 1670.45 129 1670.7 121.65
L 1670.15 121.65 1669.7 121.65 1669.7 126.45 1667.8 126.45
Q 1658.7 130.6 1653.4 133.85 1645.85 138.5 1641.1 144.05 1637.1 149.75 1635.3 157.15 1633.8 163.25 1633.7 171.4
L 1633.45 220.4
Q 1633.5 231.75 1633.3 254.2
L 1633.2 272.5
Q 1633.1 289.05 1633.05 291.9 1632.9 302.9 1632.5 311.35 1631.95 321.15 1632.15 333.95 1632.4 357.85 1632 376.2 1631.4 405.95 1631.4 424.3
L 1631.4 443.7
Q 1631.4 452.5 1632.55 457.5 1635.1 464.35 1641.15 469.45 1644.8 471.25 1649.1 472.2 1652.5 472.85 1657.35 473.2
L 1723.6 474.25
Q 1740.35 474.55 1747 474.4 1760.15 474.1 1770.3 472.35 1776.5 470.75 1780.95 467.55 1784.8 464.85 1789.35 459.4 1793.2 452.8 1793.85 447.7 1794.45 442.55 1794.15 418.45
L 1793.9 399.75
Q 1793.6 365.1 1794 340.5 1794.5 308.5 1796.25 281.35 1797.6 261 1798.9 233.45
L 1800.15 208.1
Q 1801.25 188.15 1800.55 178.1 1799.4 161.6 1793.95 149 1790.7 142.8 1787.65 139 1783.7 134 1778.75 131.35 1774.15 129.05 1771.7 126.95 1771.4958984375 126.4103515625 1771.35 125.95 1770.95625 124.925 1770.85 124.5 1770.75 123.85 1770.65 121.85
L 1770.65 119.7 1770.7 117.35 1770.35 117.35 1769.7 117.35
Q 1770.55 122 1770.6 124.15 1770.75 127.7 1769.75 130.85 1765.4 132.05 1763.45 132.3
L 1763.45 132.75
Q 1765.1916015625 133.046484375 1766.95 133.7 1767.5787109375 133.928125 1768.2 134.2
L 1770.75 135.65
Q 1779.45 140.65 1784.6 147.4 1789.65 154.8 1792 163.75 1794.1 171.65 1794.15 181.6 Z" stroke="none" fill="#706C84"></path>

<path d="M 1794.2 184.15
L 1794.15 181.6
Q 1794.1 171.65 1792 163.75 1789.65 154.8 1784.6 147.4 1779.45 140.65 1770.75 135.65
L 1768.2 134.2
Q 1767.5787109375 133.928125 1766.95 133.7
L 1766.3 133.7
Q 1765.65 133.4 1765 133.15 1762.55 132.8 1761.7 132.75 1760.85 132.7 1758.2 132.75
L 1721.3 132.6
Q 1712.15 132.5 1703 132.55 1693.1 132.5 1688.15 132.4
L 1677.85 132.15
Q 1674.4 132.5 1670.75 133.75 1670.5150390625 133.8087890625 1670.25 133.9 1658.73515625 139.66171875 1655.45 142.25 1652.1 144.85 1643.9 154.5
L 1642.4 157.25
Q 1641.1 161 1640.8 165.6 1640.6 168.1 1640.65 174.2
L 1640.45 210.8
Q 1640.45 223.4 1639.95 240.9 1639.45 262.75 1638.95 319.75
L 1638.2 392.85
Q 1638.2 396.9 1638.1 405.05
L 1637.9 443.4
Q 1637.95 448 1639 451.75 1640 455.1 1642.35 459.5 1644.35 462.1 1646 463.2 1647.6 464.4 1650.65 465.3 1659.5 467.15 1672 467.3 1679.2 467.35 1693.5 467.05
L 1759 466.75
Q 1767.66328125 466.518359375 1772.45 465.7 1772.9216796875 465.530078125 1773.35 465.3
L 1775.1 461.8 1779.9 456.95
Q 1782.95 453.9 1783.7 452.7 1784.55 451.55 1786.25 447.65 1786.7 443.4 1786.65 434.85
L 1786.65 405.05
Q 1786.65 370.65 1786.95 347.85 1787.45 316.65 1788.8 290.7
L 1790.3 262.55
Q 1790.6 259.7 1791.05 256.8 1791.65 252.95 1791.85 248.3
L 1793.25 218.3
Q 1794.2 196.45 1794.2 184.15
M 1737.15 277.65
Q 1734.2 277.8 1719.55 278.2 1709.2 278.55 1704.05 278.8 1697.4 279.2 1689.1 279.35 1685.25 279.45 1683.35 279.65 1675.25 280.15 1673.3 279.85 1671.35 279.6 1667.55 277.5 1664.1 269.95 1666.35 258.35 1666.55 257.95 1683.75 258.15 1705.85 258.35 1707.15 258.35
L 1715.75 258.3
Q 1731.5 258.2 1743 257.25 1749.9 256.7 1759.05 256.6
L 1768.15 256.4 1770.35 256.9
Q 1772.45 260.85 1773.3 267.45
L 1774.05 270.5
Q 1774.4 272.8 1774.5 273.55 1774.55 274.35 1774.6 276.6
L 1773.35 278.95
Q 1765.15 280.5 1754.1 279.05
L 1753.1 277.1
Q 1749.05 277.1 1745.1 277.3
L 1737.15 277.65
M 1763.75 417
Q 1771 416.65 1772.75 416.75 1774.5 416.95 1777.8 418.45 1778.9 422.15 1778.85 426.15 1778.75 429.25 1777.85 433.85
L 1776.9 434.8
Q 1770.8 435.2 1766 435.25
L 1762.5 435.35
Q 1752 435.65 1730.9 436 1721.45 436.1 1709.65 436.5 1699.4 436.85 1689.1 436.9
L 1681.25 437.1
Q 1668.7 437.55 1666 437.35 1663.3 437.15 1659.55 435.3 1657.9 432.35 1657.55 431.3 1657.25 430.2 1656.9 426.65 1657.35 423.15 1657.7 422.05 1658.05 420.95 1659.5 418 1662.85 416.2 1667.3 416 1669.15 415.85 1675.6 416.25
L 1680.65 416.25
Q 1685.15 416.3 1694.2 416.65 1700.95 416.9 1707.55 416.85 1715.35 416.95 1723.35 417.25 1738.2 417.8 1747.75 417.5
L 1763.75 417
M 1766.3 201.1
Q 1768.45 202.85 1769.85 204.95 1771.1 206.75 1772.1 209.7 1772.85 214.25 1772.7 220.6
L 1772.7 223.45
Q 1772.6 227.55 1772.15 229.4 1771.5 231.75 1769.3 234.75
L 1768.35 238.6
Q 1763.85 240.75 1757.1 241.55 1753.9 241.85 1745.35 242.05
L 1742.7 242.15
Q 1739.3 242.15 1737.35 241.7 1734.9 241.15 1732.3 239.5 1729.25 236.2 1728.55 235.3 1727.95 234.3 1727 232 1726.65 229 1726.55 227.9 1726.5 226.85 1726.5 223.45
L 1726.45 218.9
Q 1726.75 215.55 1727.65 213.55 1728.5 211.6 1730.75 208.9
L 1732.5 206.7
Q 1736.9 202.65 1742.55 201.25 1746.3 200.35 1754.05 200.1
L 1757.4 200
Q 1762.55 199.95 1766.3 201.1
M 1659.3 153.4
L 1660.45 153.4
Q 1660.8669921875 153.2353515625 1661.3 153.1 1662.1 152.85 1662.95 152.65 1663.75 152.5 1664.6 152.35 1664.75 152.35 1664.95 152.35 1665.15 152.35 1665.4 152.35 1665.65 152.35 1666 152.35 1666.35 152.35 1666.75 152.3 1667.2 152.3 1667.7 152.3 1668.2 152.3 1668.75 152.3 1669.35 152.3 1670 152.3 1670.65 152.3 1671.4 152.3
L 1761.35 152.75
Q 1762.4 152.75 1763.5 152.8 1764.5 152.85 1765.55 152.95 1766.5 153.05 1767.5 153.2 1768.35 153.25 1769.3 153.4 1770.15 153.55 1771.05 153.7 1771.9 153.85 1772.75 154 1773.5 154.2 1774.35 154.45 1775 154.7 1775.65 155.1 1776.7 155.9 1777.65 156.85
L 1777.95 164.05 1777.8 182.85 1777.95 182.85 1778 186.6 1777.8 188.6 1775.9 188.6 1775.9 193.4
Q 1774.2 193.8 1773.5 193.9 1772.85 193.95 1770.45 193.95 1762 194.35 1752.4 196.5
L 1738.8 199.6
Q 1720.4 203.75 1715.95 203.9 1711.4 204.15 1702.8 201.05 1694.6 198.3 1687 197.9 1681.8 197.5 1675.85 195.4 1671.9 194.05 1665.25 191.05
L 1660.35 189.75 1656.6 188.15
Q 1656 185.95 1655.95 185.2 1655.95 184.5 1656.55 182.35 1660.5 181.6 1664.8 181.75
L 1712.2 181.85
Q 1726 181.75 1739.75 181.85
L 1742.5 181.9
Q 1749.25 181.9 1756.9 182.35
L 1765.6 182.95
Q 1767.65 183.1 1768.4 183.1 1769.2125 183.1 1771.75 182.85
L 1772 182.85 1772 179.1
Q 1771.5 179 1771 179 1769.9 178.95 1768.85 178.95 1767.7 178.95 1766.55 178.95 1765.3 178.95 1764.1 179 1762.8 179 1761.55 179.05 1756.2 179.3 1750.9 179.45 1750.1 179.5 1749.3 179.6 1748.3 179.6 1747.35 179.65 1746.3 179.75 1745.25 179.8 1744.1 179.8 1742.95 179.8 1741.7 179.85 1740.45 179.9 1739.05 179.9 1737.7 179.95 1736.25 180 1734.8 180.1 1733.2 180.1 1731.6 180.1 1730.5 180.1 1729.4 180.15 1728.75 180.15 1728.1 180.15 1727.35 180.1 1726.6 180.1 1724.95 180.05 1723.25 180.1 1720.25 179.8 1717.45 179.8 1714.85 179.8 1712.25 179.8 1709.6 179.75 1706.95 179.8 1701.5 179.9 1696.1 180.1
L 1661.4 180.25
Q 1660.55 180 1659.85 179.65 1659.5 179.6 1659.3 179.45 1659.05 179.3 1658.8 179.15 1658.65 179.05 1658.5 178.95 1658.35 178.85 1658.25 178.75 1658.2 178.7 1658.15 178.65 1658.05 178.5 1658 178.35 1657.85 178 1657.75 177.75 1657.55 177.35 1657.45 176.95 1657.15 175.55 1656.95 174.1 1656.75 172.6 1656.7 171.15 1656.6 169.7 1656.6 168.35 1656.55 166.9 1656.65 165.45 1656.7 164.05 1656.85 162.7 1657.2 159.95 1657.75 157.2 1658 155.8 1658.35 154.5
L 1658.35 154.4 1659.3 153.4 Z" stroke="none" fill="#F5F7F9"></path>

<path d="M 1660.45 153.4
L 1659.3 153.4 1658.35 154.4 1658.35 154.5
Q 1658 155.8 1657.75 157.2 1657.2 159.95 1656.85 162.7 1656.7 164.05 1656.65 165.45 1656.55 166.9 1656.6 168.35 1656.6 169.7 1656.7 171.15 1656.75 172.6 1656.95 174.1 1657.15 175.55 1657.45 176.95 1657.55 177.35 1657.75 177.75 1657.85 178 1658 178.35 1658.05 178.5 1658.15 178.65 1658.2 178.7 1658.25 178.75 1658.35 178.85 1658.5 178.95 1658.65 179.05 1658.8 179.15 1659.05 179.3 1659.3 179.45 1659.5 179.6 1659.85 179.65 1660.55 180 1661.4 180.25
L 1696.1 180.1
Q 1701.5 179.9 1706.95 179.8 1709.6 179.75 1712.25 179.8 1714.85 179.8 1717.45 179.8 1720.25 179.8 1723.25 180.1 1724.95 180.05 1726.6 180.1 1727.35 180.1 1728.1 180.15 1728.75 180.15 1729.4 180.15 1730.5 180.1 1731.6 180.1 1733.2 180.1 1734.8 180.1 1736.25 180 1737.7 179.95 1739.05 179.9 1740.45 179.9 1741.7 179.85 1742.95 179.8 1744.1 179.8 1745.25 179.8 1746.3 179.75 1747.35 179.65 1748.3 179.6 1749.3 179.6 1750.1 179.5 1750.9 179.45 1756.2 179.3 1761.55 179.05 1762.8 179 1764.1 179 1765.3 178.95 1766.55 178.95 1767.7 178.95 1768.85 178.95 1769.9 178.95 1771 179 1771.5 179 1772 179.1
L 1772 182.85 1777.8 182.85 1777.95 164.05 1777.65 156.85
Q 1776.7 155.9 1775.65 155.1 1775 154.7 1774.35 154.45 1773.5 154.2 1772.75 154 1771.9 153.85 1771.05 153.7 1770.15 153.55 1769.3 153.4 1768.35 153.25 1767.5 153.2 1766.5 153.05 1765.55 152.95 1764.5 152.85 1763.5 152.8 1762.4 152.75 1761.35 152.75
L 1671.4 152.3
Q 1670.65 152.3 1670 152.3 1669.35 152.3 1668.75 152.3 1668.2 152.3 1667.7 152.3 1667.2 152.3 1666.75 152.3 1666.35 152.35 1666 152.35 1665.65 152.35 1665.4 152.35 1665.15 152.35 1664.95 152.35 1664.75 152.35 1664.6 152.35 1663.75 152.5 1662.95 152.65 1662.1 152.85 1661.3 153.1 1660.8669921875 153.2353515625 1660.45 153.4 Z" stroke="none" fill="#110F1A"></path>

<path d="M 1656.55 182.35
Q 1655.95 184.5 1655.95 185.2 1656 185.95 1656.6 188.15
L 1660.35 189.75 1665.25 191.05
Q 1671.9 194.05 1675.85 195.4 1681.8 197.5 1687 197.9 1694.6 198.3 1702.8 201.05 1711.4 204.15 1715.95 203.9 1720.4 203.75 1738.8 199.6
L 1752.4 196.5
Q 1762 194.35 1770.45 193.95 1772.85 193.95 1773.5 193.9 1774.2 193.8 1775.9 193.4
L 1775.9 188.6 1777.8 188.6 1778 186.6 1777.95 182.85 1777.8 182.85 1772 182.85 1771.75 182.85
Q 1769.2125 183.1 1768.4 183.1 1767.65 183.1 1765.6 182.95
L 1756.9 182.35
Q 1749.25 181.9 1742.5 181.9
L 1739.75 181.85
Q 1726 181.75 1712.2 181.85
L 1664.8 181.75
Q 1660.5 181.6 1656.55 182.35 Z" stroke="none" fill="#992A3F"></path>

<path d="M 1769.85 204.95
Q 1768.45 202.85 1766.3 201.1 1762.55 199.95 1757.4 200
L 1754.05 200.1
Q 1746.3 200.35 1742.55 201.25 1736.9 202.65 1732.5 206.7
L 1730.75 208.9
Q 1728.5 211.6 1727.65 213.55 1726.75 215.55 1726.45 218.9
L 1726.5 223.45
Q 1726.5 226.85 1726.55 227.9 1726.65 229 1727 232 1727.95 234.3 1728.55 235.3 1729.25 236.2 1732.3 239.5 1734.9 241.15 1737.35 241.7 1739.3 242.15 1742.7 242.15
L 1745.35 242.05
Q 1753.9 241.85 1757.1 241.55 1763.85 240.75 1768.35 238.6
L 1769.3 234.75
Q 1771.5 231.75 1772.15 229.4 1772.6 227.55 1772.7 223.45
L 1772.7 220.6
Q 1772.85 214.25 1772.1 209.7 1771.1 206.75 1769.85 204.95
M 1764.95 211.65
Q 1766.8 215.05 1767.35 218.2 1767.7 220.8 1767.35 225.15
L 1766.4 226.1
Q 1765.35 228.65 1764.9 229.5 1764.4 230.3 1762.6 232.8 1757.6 235.35 1751.75 236 1746.75 236.6 1740.45 235.8 1737.3 234.7 1736.45 234.1 1735.6 233.55 1733.7 231.05 1731.75 226.55 1731.75 221.45 1733.95 216.65 1735 215.25 1736.1 213.85 1740.2 210.35 1742.8 208.5 1745.1 207.7 1747.4 206.9 1750.65 206.7
L 1754.55 206.75
Q 1758 206.75 1761.5 206.85 1762.55 207.85 1762.95 208.5 1763.4 209.05 1764.95 211.65 Z" stroke="none" fill="#5D5A76"></path>

<path d="M 1767.35 218.2
Q 1766.8 215.05 1764.95 211.65 1763.4 209.05 1762.95 208.5 1762.55 207.85 1761.5 206.85 1758 206.75 1754.55 206.75
L 1750.65 206.7
Q 1747.4 206.9 1745.1 207.7 1742.8 208.5 1740.2 210.35 1736.1 213.85 1735 215.25 1733.95 216.65 1731.75 221.45 1731.75 226.55 1733.7 231.05 1735.6 233.55 1736.45 234.1 1737.3 234.7 1740.45 235.8 1746.75 236.6 1751.75 236 1757.6 235.35 1762.6 232.8 1764.4 230.3 1764.9 229.5 1765.35 228.65 1766.4 226.1
L 1767.35 225.15
Q 1767.7 220.8 1767.35 218.2 Z" stroke="none" fill="#F1F3F7"></path>

<path d="M 1772.75 416.75
Q 1771 416.65 1763.75 417
L 1747.75 417.5
Q 1738.2 417.8 1723.35 417.25 1715.35 416.95 1707.55 416.85 1700.95 416.9 1694.2 416.65 1685.15 416.3 1680.65 416.25
L 1675.6 416.25
Q 1669.15 415.85 1667.3 416 1662.85 416.2 1659.5 418 1658.05 420.95 1657.7 422.05 1657.35 423.15 1656.9 426.65 1657.25 430.2 1657.55 431.3 1657.9 432.35 1659.55 435.3 1663.3 437.15 1666 437.35 1668.7 437.55 1681.25 437.1
L 1689.1 436.9
Q 1699.4 436.85 1709.65 436.5 1721.45 436.1 1730.9 436 1752 435.65 1762.5 435.35
L 1766 435.25
Q 1770.8 435.2 1776.9 434.8
L 1777.85 433.85
Q 1778.75 429.25 1778.85 426.15 1778.9 422.15 1777.8 418.45 1774.5 416.95 1772.75 416.75
M 1719.55 278.2
Q 1734.2 277.8 1737.15 277.65
L 1745.1 277.3
Q 1749.05 277.1 1753.1 277.1
L 1754.1 279.05
Q 1765.15 280.5 1773.35 278.95
L 1774.6 276.6
Q 1774.55 274.35 1774.5 273.55 1774.4 272.8 1774.05 270.5
L 1773.3 267.45
Q 1772.45 260.85 1770.35 256.9
L 1768.15 256.4 1759.05 256.6
Q 1749.9 256.7 1743 257.25 1731.5 258.2 1715.75 258.3
L 1707.15 258.35
Q 1705.85 258.35 1683.75 258.15 1666.55 257.95 1666.35 258.35 1664.1 269.95 1667.55 277.5 1671.35 279.6 1673.3 279.85 1675.25 280.15 1683.35 279.65 1685.25 279.45 1689.1 279.35 1697.4 279.2 1704.05 278.8 1709.2 278.55 1719.55 278.2 Z" stroke="none" fill="#9DAEEA"></path>
</g>
</g>
</g>
</g>

<g transform="matrix( 0.3621063232421875, 0, 0, 0.3621063232421875, -594.2,0.1)" id="Layer_3">
<g>
<g>
<g>
<path d="M 1632.35 433.1
Q 1631.128515625 433.04453125 1630.2 433.05
L 1630.2 442.1
Q 1632.5537109375 441.085546875 1635.8 439.9
L 1635.8 433.2
Q 1634.9 433.25 1632.35 433.1
M 1697.6 494.85
L 1692.45 478.2
Q 1691.55 475.1 1691.2 473.55 1690.65 470.9 1690.75 468.75
L 1683.8 468.65
Q 1683.05 474.8 1684.75 482.4 1685.8 487 1688.8 495.85 1674.45 495.25 1659.85 496.85 1653.85 497.55 1645.8 498.85 1643.6 499.15 1642.9 500.2 1642.5 500.85 1642.5 502.4
L 1642.5 508.8
Q 1670.4 509.5 1698.25 508.05 1698.55 505.45 1698.55 502.75 1698.45 498.25 1697.6 494.85
M 1785.75 507.3
L 1785.7 488.95
Q 1780.3 488.2 1774.9 489.4 1772.7 489.9 1769.65 490.95
L 1759.2 494.35
Q 1753.95 496.05 1751.5 496.7 1747.15 497.9 1743.55 498.3 1743.65 497.1 1744.35 493.15
L 1746.65 481.45
Q 1747.35 477.95 1747.55 476.05 1747.85 473.05 1747.5 470.65
L 1741.55 470.55
Q 1740.85 470.45 1740.45 470.8 1740.3 471 1740.2 471.5
L 1735.6 497.3
Q 1735 501.05 1734.85 502.95 1734.6 506.1 1735 508.6 1749.85 508.45 1785.75 507.3
M 1804.4 435.45
Q 1801.6 432.75 1799.5 432.2 1798.35 431.9 1796.5 431.9 1793.8 431.9 1793.45 431.85 1793.7 432.85 1793.4 435.4 1793.15 437.7 1793.75 438.8 1794.2 439.6 1795.6 440.7 1802.05 445.95 1807.85 454.25 1812.1 460.25 1817.35 470.05 1819.25 473.65 1819.75 475.6 1820.1 477.15 1819.8 478.25 1819.5 479.1 1818.6 480.3
L 1814.6 485.75
Q 1814.9 485.3 1814.65 484.65 1814.45 484.05 1813.95 483.75 1813.3 483.35 1811.7 483.35
L 1804.25 483.3
Q 1804.05 484.65 1804.1 485.95
L 1800.55 486.4
Q 1800.5 490.35 1800.65 495.3 1802.05 495.15 1807.3 495.45 1811.4 495.7 1813.7 494.7 1815.4 493.9 1815.7 493.85 1816.25 493.7 1817.4 493.75 1818.55 493.8 1819.1 493.7 1820.9 493.4 1822.5 491.2 1824 488.7 1824.9 487.55 1826.2 486.05 1826.45 485.5 1826.9 484.5 1826.9 482.5
L 1826.9 475.15
Q 1826.9 470.95 1826.45 468.9 1825.85 466.25 1823.55 461.9 1814.4 445 1804.4 435.45
M 1694.35 355.7
Q 1686.3 359.1 1682.25 361.2 1675.75 364.6 1671.25 368.5 1667.3 371.8 1665.7 375.25 1663.6 379.65 1664.5 384.35
L 1671.2 384.35
Q 1672.7 381.4 1674.65 379.05 1677.25 375.9 1679.8 375.15 1680.1 375.05 1681.2 374.85 1682.1 374.7 1682.6 374.5 1683.55 374.2 1685.45 372.7 1689.3 369.7 1693.75 367.65 1696.25 366.55 1698 366.25 1699.55 365.95 1702.05 365.95
L 1713.7 365.75
Q 1725.4 365.55 1731.6 366.25 1741.45 367.4 1748.45 371.15 1749.6 371.8 1751.8 373.1 1753.8 374.25 1755.25 374.8 1759.05 376.3 1762.6 375.55 1763.7 372.5 1763 368.95 1762.35 365.7 1760.35 362.8 1757.45 358.6 1750.35 353.95 1745.9 351.15 1743.05 350.5 1741.25 350.05 1736.85 349.95
L 1719.7 349.95
Q 1713.7 349.95 1709.75 350.55 1706.2 351.15 1701.9 352.7 1699.5 353.55 1694.35 355.7
M 1729 356.75
Q 1733.25 356.75 1735.6 357.15 1739.2 357.8 1741.5 359.65 1734.7 358.85 1726 358.7 1721.25 358.6 1710.45 358.7 1714.4 357.4 1719.6 357 1722.75 356.75 1729 356.75
M 1691.2 289.75
Q 1690.9 290.5 1690.45 291.3 1690 292.2 1688.95 295.35
L 1686.55 303.4
Q 1685.95 305.75 1685.85 306.3 1685.55 308 1685.6 310.75 1685.7 314.35 1685.65 315.25
L 1692.65 315.35 1692.65 314.15
Q 1694.25 314.35 1695.7 313.35 1697.1 312.3 1697.45 310.75 1697.55 309.55 1697.7 309 1698.3 307.8 1698.5 307.1 1698.7 306.5 1698.7 305.15
L 1698.7 289.2 1692 289.15
Q 1691.7 289.15 1691.55 289.25 1691.4 289.3 1691.2 289.75
M 1760.8 294.3
L 1760.8 286.1
Q 1759.95 286.15 1756.35 286 1753.65 285.9 1752 286.35 1747.9 287.4 1744.45 292.4 1743.65 293.55 1743.35 294.45 1742.7 296 1742.8 299.1
L 1742.85 306.9 1748.75 307
Q 1750.15 307 1750.8 306.8 1751.35 306.6 1752.25 305.9
L 1755.55 303.35
Q 1757.3 301.9 1757.5 301.65 1758.25 300.85 1759.8 298.05 1760.65 296.25 1760.7 295.7 1760.8 295.25 1760.8 294.3
M 1704.15 268.05
Q 1703.55 266.95 1702.1 265.45
L 1692.6 254.8
Q 1681.8 242.45 1673.25 228.2
L 1666.05 228.05
Q 1666.15 228.95 1666.05 231.3 1665.95 233.35 1666.2 234.5 1666.55 236.2 1668.5 239.05 1676.95 251.6 1682.05 257.65 1683.05 258.8 1689 265.45 1693.3 270.2 1695.65 273.5 1697.1 275.55 1698.2 276.1 1699.4 276.7 1701.65 276.45 1704.3 276.15 1705.25 276.4 1705.65 272.4 1705.1 270.3 1704.85 269.25 1704.15 268.05
M 1756.4 244.9
Q 1758.8 241.6 1759.55 240 1760.75 237.25 1761.55 236 1762.3 234.95 1762.65 234.4 1763.35 233.45 1763.6 232.75 1764 231.6 1763.85 229.45 1763.65 227.05 1763.8 226.1 1762.95 226.25 1761.8 226.15 1760.45 226 1759.75 225.95 1757.15 225.75 1755.85 226.9 1755.25 227.4 1754.8 228.3 1754.7 228.55 1754.1 230 1752.8 233.25 1749.3 238
L 1734.85 257.45
Q 1732.6 260.55 1732.1 262.25 1731.75 263.5 1731.75 266.65
L 1731.8 272.15
Q 1731.8 272.95 1732.1 273.3 1732.45 273.65 1733.35 273.65
L 1739.25 273.7
Q 1738.45 270.35 1740.5 266.35 1741.6 264.35 1744.95 260.25 1747.95 256.5 1752.6 250.1
L 1756.4 244.9 Z" stroke="none" fill="#000000"></path>

<path d="M 1735.6 357.15
Q 1733.25 356.75 1729 356.75 1722.75 356.75 1719.6 357 1714.4 357.4 1710.45 358.7 1721.25 358.6 1726 358.7 1734.7 358.85 1741.5 359.65 1739.2 357.8 1735.6 357.15 Z" stroke="none" fill="#FFFFFF"></path>
</g>
</g>
</g>
</g>

<g transform="matrix( 0.3621063232421875, 0, 0, 0.3621063232421875, -594.2,0.1)" id="Layer_6"></g>

<g transform="matrix( 0.3621063232421875, 0, 0, 0.3621063232421875, -594.2,0.1)" id="MergedLayer_1"></g>
</g>
</svg>
