
<svg viewBox="0 0 272 172" height="172px" width="272px" y="0px" x="0px" preserveAspectRatio="none" xmlns:xlink="http://www.w3.org/1999/xlink" version="1.1" xmlns="http://www.w3.org/2000/svg">
<defs></defs>

<g id="Layer_2">
<g>
<g>
<g>
<path d="M 210.15 147.8
Q 210.15 147.6 210.15 147.45 199.9 145.85 189.65 144.5 189.65 144.35 189.7 144.25 190.15 143.5 190.8 142.95 190.9 142.85 191 142.75 191.05 142.7 191.1 142.7 191.6 142.55 192.1 142.45 192.15 142.3 192.25 142.2 192.85 141.55 193.55 141 193.95 140.9 194.35 140.8 195.3 139.75 196.65 139.3 197.8 138.95 198.75 138.25 199.857421875 138.0466796875 200.9 137.7 202.14921875 137.2802734375 203.3 136.65 203.85 136.35 204.6 136 196.95 131 189.25 127.8 190.9 125.55 192.75 122.95 193.95 121.25 195.2 119.5 195.25 119.35 195.25 119.2 195.35 118.75 195.4 118.3 195.55 118.15 195.7 118.05 195.05 116.5 194.85 114.9 195.15 114.9 195.45 114.95 195.35 114.85 195.3 114.8
L 195.3 114.75
Q 194.15 114.55 193.15 114 186.05 113.75 179 113.45 179 110.55 179.15 107.65 179.3 104.6 178.6 101.8 178.6 101.65 178.65 101.5 178.8 100.85 178.2 100.55 168.85 102.45 159.25 104.25 159.15 104.1 159.05 103.95 158.6 103.05 158.3 102.1 158.2 101.95 158.1 101.8 158.1 101.65 158.05 101.5 157.9 101.05 157.7 100.55 157.7 100.4 157.7 100.25 157.7 99.5 157.7 98.75 157.7 98.25 157.7 97.8 157.6 97.65 157.55 97.5 157.25 96.6 157.1 95.65 157.05 95.35 156.9 95.05 156.9 94.9 156.9 94.75 156.9 94.25 156.9 93.8 156.8 93.65 156.7 93.5 156.6 93.35 156.5 93.2 156.5 93.05 156.5 92.9 156.55 92.3 156.05 91.95 152.9712890625 93.1814453125 149.9 94.6 144.9904296875 96.9203125 140.1 99.75
L 140.1 99.8
Q 138.85 99.8 137.65 99.75 137.5 99.6 137.35 99.45 137.3 99.35 137.25 99.25 137.2 99.2 137.1 99.15 136.75 99.05 136.4 98.95 136.4 98.8 136.35 98.65 135.75 97.55 134.75 96.8 134.75 96.65 134.7 96.55 134.15 95.8 133.45 95.25 133.15 94.65 132.9 94 132.45 92.65 131.5 91.55 131.5 91.4 131.45 91.25 131.45 91.1 131.4 90.95 131.2 90.65 130.95 90.35 130.1 89.35 129.55 88.15 129.5 88.05 129.45 87.85 129.4 87.75 129.35 87.75 128.95 87.7 128.5 87.75 123.65 92.3 119.65 97.6 118.1 99.65 116.85 101.9 115.05 102.05 113.25 102.2 110.05 100.2 106.85 98.05 106.2 97.55 105.7 96.9 103.5 95.5 101.35 94 100.6 93.5 99.85 93 99.05 98.35 99.1 104.05 99.15 108.2 99.15 112.35 99.15 112.65 99.15 112.95 89.99375 112.7234375 80.55 110.45 79.5765625 110.20703125 78.6 109.95 78.6 110.05 78.6 110.15
L 78.6 110.2
Q 78.7 110.5 78.75 110.8 78.85 110.95 78.95 111.1 79.2 111.45 79.45 111.75 79.9888671875 113.3666015625 80.55 114.95 81.446484375 117.547265625 82.4 120.1 83.65 123.3 85.5 126.15 85.55 126.3 85.6 126.5 85.6 126.95 85.6 127.4 85.6 127.55 85.6 127.7 83.1357421875 128.6521484375 80.55 129.45 73.9017578125 131.5900390625 66.45 132.85 66.55 133 66.7 133.1 66.8 133.2 66.85 133.3 67.35 133.3 67.85 133.4
L 67.85 133.5
Q 67.9 134 67.75 134.5 69.53046875 136.03671875 71.2 137.7 73.98046875 140.4740234375 76.45 143.6 78 145.65 79.05 147.9 76.55 149.55 72.4 149.9 67.55 150.25 63.1 150.3 62.5 150.5 61.9 150.8 61.85 150.9 61.85 151 61.8 151.2 61.8 151.4 61.85 151.6 61.85 151.8 61.85 151.9 61.85 152 62.2 152 62.6 152.05
L 62.6 152.15
Q 62.6 152.3 62.6 152.4 62.6 153.3 62.6 154.15 62.6 154.198046875 62.6 154.25 71.49375 154.3216796875 80.55 154.25 92.874609375 154.15703125 105.5 153.8 117.8 153.45 130.15 153.45 140.04453125 153.419921875 149.9 153.25 180.2068359375 152.8603515625 210.15 151.4 210.15 151.2876953125 210.15 151.15 210.15 149.45 210.15 147.8
M 174.3 131.85
Q 174.35 131.95 174.45 132.05 175.1 132.65 175.75 133.3 176.1 133.7 176.5 134 176.55 134.1 176.6 134.2 176.6 134.3 176.65 134.4 176.65 134.6 176.65 134.8 176.8 134.9 176.85 135.05 176.9 135.1 176.9 135.2 176.9 135.4 176.9 135.6 177 135.7 177.05 135.8 177.1 135.9 177.2 136 177.2 136.1 177.2 136.2 177.2 136.4 177.2 136.6 177.2 136.9 177.2 137.15 177.2 137.25 177.2 137.35 177.15 137.45 177.1 137.55 177.0765625 137.625390625 177.05 137.7 176.7935546875 138.4205078125 176.25 139.1 175.55 140 174.6 140.7 165.6 143.75 156.7 141.8 153.6 141.1 152.4 138.2 152.3 138.1 152.2 138 152.1 137.9 152.05 137.8 152.0009765625 137.7509765625 151.95 137.7 151.7609375 137.4912109375 151.6 137.25 151.6 137.15 151.6 137.05 151.6 136.55 151.6 136.05 151.6 135.55 151.6 135.05 151.6 134.7 151.6 134.3 151.7 134.2 151.75 134.1 151.8 134 151.85 133.9 151.9 133.8 151.95 133.7 153 132.6 154.3 131.8 158 129.45 162.3 128.85 166.8 128.3 170.85 129.85 172.4 130.45 173.45 131.6 173.5 131.65 173.6 131.65 173.75 131.7 173.9 131.75 174.1 131.8 174.3 131.85
M 90.8 136.8
Q 90.8 136.7 90.8 136.6 91.4 134.9 92.75 133.8 97.55 129.95 103.65 129.7 108.05 129.5 112.15 130.95 113.45 131.45 114.65 132.2 114.75 132.3 114.85 132.4 114.9 132.5 115 132.6 115.05 132.65 115.15 132.7 115.2 132.75 115.3 132.8 115.5 132.85 115.65 132.9 115.7 133 115.75 133.1 115.85 133.2 115.9 133.3 116.05 133.5 116.25 133.7 116.35 133.8 116.45 133.9 116.55 134 116.7 134.1 116.75 134.2 116.8 134.3 116.85 134.4 116.9 134.5 116.9 134.6 116.95 134.7 117.05 134.8 117.15 134.9 117.25 134.95 117.35 135.05 117.5 135.15 117.6 135.25 117.65 135.35 117.75 135.45 117.75 135.55 117.8 135.65 117.85 135.75 117.85 135.85 117.9 136.05 117.95 136.25 117.95 136.35 117.95 136.45 117.95 136.55 117.95 136.65 117.95 136.75 118 136.8 118.05 136.95 118.1 137.05 118.15 137.15 118.2 137.25 118.2 137.35 118.2 137.45 118.2 137.55 118.2 137.65
L 118.2 137.7
Q 118.2 137.832421875 118.2 138 118.2 138.1 118.2 138.2 118.2 138.3 118.2 138.4 118.2 138.7 118.2 139 118.2 139.1 118.2 139.2 118.15 139.3 118.1 139.4 118.05 139.5 118 139.6 117.95 139.7 117.95 139.8 117.95 139.9 117.95 140 117.95 140.1 117.95 140.2 117.95 140.3 117.95 140.4 117.9 140.5 117.85 140.55 117.8 140.65 117.75 140.75 117.5 141.05 117.25 141.4 117 141.8 116.6 142.15 116.2 142.5 115.85 142.85 107.5 145.55 98.75 143.85 94.1 142.9 91.45 139.15 91.35 139.05 91.2 138.95 91.1 138.85 91 138.75 90.95 138.65 90.85 138.55 90.85 138.45 90.8 138.35 90.8 138.25 90.8 138.15 90.8 137.95 90.8 137.75
L 90.8 137.7
Q 90.8 137.625 90.8 137.55 90.8 137.45 90.8 137.35 90.8 137.05 90.8 136.8 Z" stroke="none" fill="#FDDF5E"></path>

<path d="M 90.8 136.6
Q 90.8 136.7 90.8 136.8 90.8 137.05 90.8 137.35 90.8 137.45 90.8 137.55 90.8 137.625 90.8 137.7
L 90.8 137.75
Q 90.8 137.95 90.8 138.15 90.8 138.25 90.8 138.35 90.85 138.45 90.85 138.55 90.95 138.65 91 138.75 91.1 138.85 91.2 138.95 91.35 139.05 91.45 139.15 94.1 142.9 98.75 143.85 107.5 145.55 115.85 142.85 116.2 142.5 116.6 142.15 117 141.8 117.25 141.4 117.5 141.05 117.75 140.75 117.8 140.65 117.85 140.55 117.9 140.5 117.95 140.4 117.95 140.3 117.95 140.2 117.95 140.1 117.95 140 117.95 139.9 117.95 139.8 117.95 139.7 118 139.6 118.05 139.5 118.1 139.4 118.15 139.3 118.2 139.2 118.2 139.1 118.2 139 118.2 138.7 118.2 138.4 118.2 138.3 118.2 138.2 118.2 138.1 118.2 138 118.2 137.832421875 118.2 137.7
L 118.2 137.65
Q 118.2 137.55 118.2 137.45 118.2 137.35 118.2 137.25 118.15 137.15 118.1 137.05 118.05 136.95 118 136.8 117.95 136.75 117.95 136.65 117.95 136.55 117.95 136.45 117.95 136.35 117.95 136.25 117.9 136.05 117.85 135.85 117.85 135.75 117.8 135.65 117.75 135.55 117.75 135.45 117.65 135.35 117.6 135.25 117.5 135.15 117.35 135.05 117.25 134.95 117.15 134.9 117.05 134.8 116.95 134.7 116.9 134.6 116.9 134.5 116.85 134.4 116.8 134.3 116.75 134.2 116.7 134.1 116.55 134 116.45 133.9 116.35 133.8 116.25 133.7 116.05 133.5 115.9 133.3 115.85 133.2 115.75 133.1 115.7 133 115.65 132.9 115.5 132.85 115.3 132.8 115.2 132.75 115.15 132.7 115.05 132.65 115 132.6 114.9 132.5 114.85 132.4 114.75 132.3 114.65 132.2 113.45 131.45 112.15 130.95 108.05 129.5 103.65 129.7 97.55 129.95 92.75 133.8 91.4 134.9 90.8 136.6
M 98.05 142.25
Q 94.6279296875 140.762109375 92.75 137.7 92.7650390625 137.6751953125 92.75 137.65 93.05 135.85 94.5 134.6 98.45 131.15 103.65 130.7 108.7 130.25 112.9 132.95 112.9 133.05 113 133.15 113.05 133.25 113.15 133.35 113.35 133.45 113.55 133.5 113.65 133.55 113.75 133.65 113.85 133.85 114 134.05 114.2 134.4 114.5 134.65 114.65 134.7 114.7 134.8 114.8 135 114.95 135.2 115.15 135.55 115.45 135.8 115.6 135.9 115.7 136 115.75 136.1 115.8 136.2 115.85 136.3 115.9 136.4 115.95 136.5 115.95 136.6 115.95 136.7 115.95 136.8 115.95 136.95 115.95 137.15 115.95 137.25 115.95 137.35 115.95 137.45 115.95 137.55 116.00625 137.625 116.05 137.7 116.1375 137.825 116.2 137.95 116.25 138.05 116.25 138.15 116.25 138.25 116.25 138.35 116.25 138.45 116.2 138.5 116.05 138.8 116 139.15 115.95 139.45 115.95 139.7 115.95 139.8 115.9 139.9 115.75 140.1 115.55 140.3 112.05 144.4 106.05 143.2 104.75 142.55 103.25 142.95 101.05 143.5 98.05 142.25
M 174.45 132.05
Q 174.35 131.95 174.3 131.85 174.1 131.8 173.9 131.75 173.75 131.7 173.6 131.65 173.5 131.65 173.45 131.6 172.4 130.45 170.85 129.85 166.8 128.3 162.3 128.85 158 129.45 154.3 131.8 153 132.6 151.95 133.7 151.9 133.8 151.85 133.9 151.8 134 151.75 134.1 151.7 134.2 151.6 134.3 151.6 134.7 151.6 135.05 151.6 135.55 151.6 136.05 151.6 136.55 151.6 137.05 151.6 137.15 151.6 137.25 151.7609375 137.4912109375 151.95 137.7 152.0009765625 137.7509765625 152.05 137.8 152.1 137.9 152.2 138 152.3 138.1 152.4 138.2 153.6 141.1 156.7 141.8 165.6 143.75 174.6 140.7 175.55 140 176.25 139.1 176.7935546875 138.4205078125 177.05 137.7 177.0765625 137.625390625 177.1 137.55 177.15 137.45 177.2 137.35 177.2 137.25 177.2 137.15 177.2 136.9 177.2 136.6 177.2 136.4 177.2 136.2 177.2 136.1 177.2 136 177.1 135.9 177.05 135.8 177 135.7 176.9 135.6 176.9 135.4 176.9 135.2 176.9 135.1 176.85 135.05 176.8 134.9 176.65 134.8 176.65 134.6 176.65 134.4 176.6 134.3 176.6 134.2 176.55 134.1 176.5 134 176.1 133.7 175.75 133.3 175.1 132.65 174.45 132.05
M 174.6 134.9
Q 174.65 134.95 174.65 135.05 174.7 135.15 174.7 135.25 174.7 135.35 174.7 135.45 175 135.7 175.05 136.05 175.1 136.45 175.15 136.85 175.05 137.05 175 137.25 174.9 137.45 174.9 137.65 174.875 137.675 174.85 137.7 174.6349609375 137.925 174.5 138.15 173.75 139.25 172.7 140 165.2 142.35 157.5 141.05 157.4 140.95 157.25 140.9 156.5 140.35 155.85 139.8 154.8140625 138.9052734375 154.4 137.7 154.3732421875 137.6255859375 154.35 137.55 154.2 137.35 154 137.15 153.8 136.85 153.6 136.6 153.6 136.1 153.55 135.6 153.55 135.1 153.7 134.6 154.8 133.4 156.15 132.55 159.488671875 130.370703125 163.4 129.65 163.737890625 129.597265625 164.05 129.55 164.46328125 129.589453125 164.85 129.6 165.51328125 129.708984375 166.15 129.8 169.3 130.25 171.6 132.3 171.85 132.4 172.05 132.45 172.25 132.5 172.45 132.6 172.55 132.95 172.85 133.15 173.9 133.9 174.6 134.9
M 206.55 142.15
Q 206.55 139.90703125 206.55 137.7 206.55 137.2994140625 206.55 136.9 206.9 136.55 207.25 136.2 204.7 133.1 200.75 131.4 199.85 131 198.95 130.65 198.95 129.2 199 127.75 199.05 126.6 198.65 125.6 198.65 123.9 198.75 122.25 198.8 121.1 198.4 120.05 198.5 119 198.2 118.05 198.4 117.7 198.55 117.35 198.6 117.2 198.65 117.05 198.65 116.75 198.65 116.45 198.65 115.85 198.65 115.2 198.6 115.05 198.55 114.9 198.2 114.8 197.85 114.7 197.85 114.65 197.8 114.65 197.7 114.5 197.55 114.35 197.45 114.25 197.35 114.1 196.4 113.8 195.5 113.45 195.25 113.35 195 113.25 188 113 181.05 112.75 181.05 110 181.05 107.25 181.05 104.6 181.05 102 181 101.85 180.9 101.75 180.6 101.3 180.65 100.75 180.65 100.6 180.65 100.45 180.65 100.3 180.55 100.25 180.25 100 180 99.65 179.9 99.5 179.7 99.35 170.1 100.4 161 103.15 160.95 102.85 160.8 102.65 160.75 102.45 160.55 102.3 160.55 102.15 160.55 102 160.35 101.55 160.2 101.05 160.15 100.95 160.15 100.8 159.95 100.45 159.8 100.15 159.75 100 159.75 99.85 159.75 99.7 159.75 99.55 159.95 97.8 159.6 96.1 159.4 95.2 158.95 94.3 158.95 94 158.95 93.7 158.95 93.55 158.95 93.4 158.9 93.25 158.8 93.15 158.45 92.7 158.5 92.15 158.55 92 158.55 91.85 158.5 91.7 158.4 91.6 158.25 91.4 158.1 91.25 158.05 90.95 157.95 90.65 157.85 90.5 157.7 90.35 156.4 90.3 155.05 90.3 154.9 90.35 154.75 90.45 154.2 90.85 153.7 91.35 153.5 91.5 153.3 91.65 151.591015625 92.3580078125 149.9 93.1 144.6642578125 95.4412109375 139.6 98.2 139.05 98.25 138.55 98.2 138.5 98.2 138.45 98.1 138.15 97.1 137.25 96.55 137.05 96.4 136.9 96.25 136.85 96.1 136.8 95.95 136.75 95.8 136.7 95.65 136.3 95.35 135.9 95 135.75 94.9 135.6 94.75 134.9 93.55 134.35 92.3 134.1 91.6 133.55 91.05 133.55 90.9 133.5 90.75 132.95 89.45 132 88.3 131.55 87.75 131.4 87.05 131.1 86.95 130.8 86.8 130.75 86.8 130.65 86.75 130.55 86.65 130.5 86.55 130.35 86.4 130.25 86.25 129.15 86.2 128 86.15 125.5 87.8 123.3 90.2 118.5 95.45 114.6 101.1 114.1 100.7 113.5 100.35 107.35 96.65 101.7 92.05 101.15 91.9 100.6 91.7 100.4 91.65 100.25 91.55 99.2 91.5 98.1 91.55 98 91.55 97.9 91.65 97.95 92.2 97.65 92.6 97.55 92.75 97.5 92.9 97.5 93.2 97.5 93.5 97.25 97.65 97.2 101.8 97.1 107 97.1 112.25 91.85 111.9 86.8 110.25 83.539453125 109.2080078125 80.55 109.2 79.0927734375 109.204296875 77.7 109.45 77.15 109.4 76.65 109.4 76.65 109.55 76.65 109.7 76.4 109.75 76.2 109.8 76.4 110.2 76.55 110.65 76.35 113.4 76.35 116.2 76.35 122.75 76.35 129.3 74.4 129.7 72.45 130 67.4 130.75 64.3 133.05 64.75 134 65.35 134.8 65.05 135.65 64.8 136.55 64.6123046875 137.1337890625 64.6 137.7 64.5583984375 138.4919921875 64.85 139.25 64.95 141.65 65.25 144 65.6 146.15 65.65 148.35 65.25 148.4 64.85 148.45 62.6 149.1 60.25 149.85 60.15 149.9 60 149.95 59.95 150 59.95 150.1 59.25 150.15 58.6 150.25 59.2 150.25 59.85 150.3 59.8 150.3 59.75 150.35 59.65 150.45 59.6 150.55 59.6 150.65 59.6 150.75 59.6 150.85 59.6 150.95 59.6 151.05 59.6 151.15 59.6 151.2 59.6 151.25 59.55 151.25 59.45 151.3 59.4 151.3 59.4 151.45 59.4 151.6 59.4 151.75 59.4 152.25 59.4 152.7 59.4 152.85 59.4 153 59.9 153.35 59.85 153.9 59.803515625 154.039453125 59.8 154.2 61.1984375 154.2380859375 62.6 154.25 62.6 154.198046875 62.6 154.15 62.6 153.3 62.6 152.4 62.6 152.3 62.6 152.15
L 62.6 152.05
Q 62.2 152 61.85 152 61.85 151.9 61.85 151.8 61.85 151.6 61.8 151.4 61.8 151.2 61.85 151 61.85 150.9 61.9 150.8 62.5 150.5 63.1 150.3 67.55 150.25 72.4 149.9 76.55 149.55 79.05 147.9 78 145.65 76.45 143.6 73.98046875 140.4740234375 71.2 137.7 69.53046875 136.03671875 67.75 134.5 67.9 134 67.85 133.5
L 67.85 133.4
Q 67.35 133.3 66.85 133.3 66.8 133.2 66.7 133.1 66.55 133 66.45 132.85 73.9017578125 131.5900390625 80.55 129.45 83.1357421875 128.6521484375 85.6 127.7 85.6 127.55 85.6 127.4 85.6 126.95 85.6 126.5 85.55 126.3 85.5 126.15 83.65 123.3 82.4 120.1 81.446484375 117.547265625 80.55 114.95 79.9888671875 113.3666015625 79.45 111.75 79.2 111.45 78.95 111.1 78.85 110.95 78.75 110.8 78.7 110.5 78.6 110.2
L 78.6 110.15
Q 78.6 110.05 78.6 109.95 79.5765625 110.20703125 80.55 110.45 89.99375 112.7234375 99.15 112.95 99.15 112.65 99.15 112.35 99.15 108.2 99.1 104.05 99.05 98.35 99.85 93 100.6 93.5 101.35 94 103.5 95.5 105.7 96.9 106.2 97.55 106.85 98.05 110.05 100.2 113.25 102.2 115.05 102.05 116.85 101.9 118.1 99.65 119.65 97.6 123.65 92.3 128.5 87.75 128.95 87.7 129.35 87.75 129.4 87.75 129.45 87.85 129.5 88.05 129.55 88.15 130.1 89.35 130.95 90.35 131.2 90.65 131.4 90.95 131.45 91.1 131.45 91.25 131.5 91.4 131.5 91.55 132.45 92.65 132.9 94 133.15 94.65 133.45 95.25 134.15 95.8 134.7 96.55 134.75 96.65 134.75 96.8 135.75 97.55 136.35 98.65 136.4 98.8 136.4 98.95 136.75 99.05 137.1 99.15 137.2 99.2 137.25 99.25 137.3 99.35 137.35 99.45 137.5 99.6 137.65 99.75 138.85 99.8 140.1 99.8
L 140.1 99.75
Q 144.9904296875 96.9203125 149.9 94.6 152.9712890625 93.1814453125 156.05 91.95 156.55 92.3 156.5 92.9 156.5 93.05 156.5 93.2 156.6 93.35 156.7 93.5 156.8 93.65 156.9 93.8 156.9 94.25 156.9 94.75 156.9 94.9 156.9 95.05 157.05 95.35 157.1 95.65 157.25 96.6 157.55 97.5 157.6 97.65 157.7 97.8 157.7 98.25 157.7 98.75 157.7 99.5 157.7 100.25 157.7 100.4 157.7 100.55 157.9 101.05 158.05 101.5 158.1 101.65 158.1 101.8 158.2 101.95 158.3 102.1 158.6 103.05 159.05 103.95 159.15 104.1 159.25 104.25 168.85 102.45 178.2 100.55 178.8 100.85 178.65 101.5 178.6 101.65 178.6 101.8 179.3 104.6 179.15 107.65 179 110.55 179 113.45 186.05 113.75 193.15 114 194.15 114.55 195.3 114.75
L 195.3 114.8
Q 195.35 114.85 195.45 114.95 195.15 114.9 194.85 114.9 195.05 116.5 195.7 118.05 195.55 118.15 195.4 118.3 195.35 118.75 195.25 119.2 195.25 119.35 195.2 119.5 193.95 121.25 192.75 122.95 190.9 125.55 189.25 127.8 196.95 131 204.6 136 203.85 136.35 203.3 136.65 202.14921875 137.2802734375 200.9 137.7 199.857421875 138.0466796875 198.75 138.25 197.8 138.95 196.65 139.3 195.3 139.75 194.35 140.8 193.95 140.9 193.55 141 192.85 141.55 192.25 142.2 192.15 142.3 192.1 142.45 191.6 142.55 191.1 142.7 191.05 142.7 191 142.75 190.9 142.85 190.8 142.95 190.15 143.5 189.7 144.25 189.65 144.35 189.65 144.5 199.9 145.85 210.15 147.45 210.15 147.6 210.15 147.8 210.15 149.45 210.15 151.15 210.15 151.2876953125 210.15 151.4 211.30625 151.36953125 212.45 151.3 212.4064453125 150.4306640625 212.35 149.55 212.35 149.45 212.35 149.4 212.25 149.4 212.2 149.4 212.2 148.1 212.2 146.75 209.35 146.35 206.55 145.95 206.55 144.05 206.55 142.15
M 204.55 138.05
Q 204.55 139.3 204.55 140.5 204.55 143.1 204.55 145.65 198.45 144.75 192.65 143.8 193.4 143.55 194.1 143.2 194.15 143.15 194.15 143.05 194.35 142.4 195.05 142.1 195.25 142 195.4 141.85 195.8 141.75 196.2 141.6 196.3 141.6 196.4 141.55 196.85 141.05 197.3 140.65 197.45 140.55 197.55 140.4 198.65 139.9 199.8 139.55 199.9 139.55 200 139.5 200.15 139.4 200.3 139.25 200.45 139.1 200.6 138.95 201.4 138.8 202.15 138.7 203.45 138.5 204.55 138.05
M 196.65 120.95
Q 196.7 121.05 196.7 121.2 196.7 122.75 196.7 124.35 196.7 125.2 196.7 126.1 197.15 127.7 197 129.45 197 129.6 197 129.8 194.05 128.55 191.7 127.5 191.75 127.35 191.85 127.25 192.1 127.05 192.4 126.9 193.65 125.45 194.65 123.85 195.6 122.35 196.65 120.95
M 79 116.85
Q 79.7375 118.84140625 80.55 120.75 81.9404296875 124.1123046875 83.55 127.3 82.05859375 127.7970703125 80.55 128.25 79.479296875 128.559375 78.4 128.85 78.25 125.95 78.25 123 78.2 119.05 78.35 115.1 78.7 115.95 79 116.85
M 66.95 136.5
Q 67.596484375 137.0916015625 68.2 137.7 70.4697265625 139.868359375 72.5 142.25 73.3 143.75 74.55 144.9 76.3 146.45 76.4 148 73.8 148.35 71.25 148.65 71.1 148.6 71 148.6 69.35 148.25 67.7 148.25 67.55 146.6 67.4 144.9 67.05 141.75 66.8 138.6 66.6 138.25 66.6 137.8 66.6 137.7634765625 66.55 137.7 66.5634765625 137.6767578125 66.55 137.65 66.7 137.05 66.95 136.5 Z" stroke="none" fill="#000000"></path>

<path d="M 92.75 137.7
Q 94.6279296875 140.762109375 98.05 142.25 101.05 143.5 103.25 142.95 104.75 142.55 106.05 143.2 112.05 144.4 115.55 140.3 115.75 140.1 115.9 139.9 115.95 139.8 115.95 139.7 115.95 139.45 116 139.15 116.05 138.8 116.2 138.5 116.25 138.45 116.25 138.35 116.25 138.25 116.25 138.15 116.25 138.05 116.2 137.95 116.1375 137.825 116.05 137.7 116.00625 137.625 115.95 137.55 115.95 137.45 115.95 137.35 115.95 137.25 115.95 137.15 115.95 136.95 115.95 136.8 115.95 136.7 115.95 136.6 115.95 136.5 115.9 136.4 115.85 136.3 115.8 136.2 115.75 136.1 115.7 136 115.6 135.9 115.45 135.8 115.15 135.55 114.95 135.2 114.8 135 114.7 134.8 114.65 134.7 114.5 134.65 114.2 134.4 114 134.05 113.85 133.85 113.75 133.65 113.65 133.55 113.55 133.5 113.35 133.45 113.15 133.35 113.05 133.25 113 133.15 112.9 133.05 112.9 132.95 108.7 130.25 103.65 130.7 98.45 131.15 94.5 134.6 93.05 135.85 92.75 137.65 92.7650390625 137.6751953125 92.75 137.7
M 174.65 135.05
Q 174.65 134.95 174.6 134.9 173.9 133.9 172.85 133.15 172.55 132.95 172.45 132.6 172.25 132.5 172.05 132.45 171.85 132.4 171.6 132.3 169.3 130.25 166.15 129.8 165.51328125 129.708984375 164.85 129.6 164.46328125 129.589453125 164.05 129.55 163.737890625 129.597265625 163.4 129.65 159.488671875 130.370703125 156.15 132.55 154.8 133.4 153.7 134.6 153.55 135.1 153.55 135.6 153.6 136.1 153.6 136.6 153.8 136.85 154 137.15 154.2 137.35 154.35 137.55 154.3732421875 137.6255859375 154.4 137.7 154.8140625 138.9052734375 155.85 139.8 156.5 140.35 157.25 140.9 157.4 140.95 157.5 141.05 165.2 142.35 172.7 140 173.75 139.25 174.5 138.15 174.6349609375 137.925 174.85 137.7 174.875 137.675 174.9 137.65 174.9 137.45 175 137.25 175.05 137.05 175.15 136.85 175.1 136.45 175.05 136.05 175 135.7 174.7 135.45 174.7 135.35 174.7 135.25 174.7 135.15 174.65 135.05
M 68.2 137.7
Q 67.596484375 137.0916015625 66.95 136.5 66.7 137.05 66.55 137.65 66.5634765625 137.6767578125 66.55 137.7 66.6 137.7634765625 66.6 137.8 66.6 138.25 66.8 138.6 67.05 141.75 67.4 144.9 67.55 146.6 67.7 148.25 69.35 148.25 71 148.6 71.1 148.6 71.25 148.65 73.8 148.35 76.4 148 76.3 146.45 74.55 144.9 73.3 143.75 72.5 142.25 70.4697265625 139.868359375 68.2 137.7
M 80.55 120.75
Q 79.7375 118.84140625 79 116.85 78.7 115.95 78.35 115.1 78.2 119.05 78.25 123 78.25 125.95 78.4 128.85 79.479296875 128.559375 80.55 128.25 82.05859375 127.7970703125 83.55 127.3 81.9404296875 124.1123046875 80.55 120.75
M 196.7 121.2
Q 196.7 121.05 196.65 120.95 195.6 122.35 194.65 123.85 193.65 125.45 192.4 126.9 192.1 127.05 191.85 127.25 191.75 127.35 191.7 127.5 194.05 128.55 197 129.8 197 129.6 197 129.45 197.15 127.7 196.7 126.1 196.7 125.2 196.7 124.35 196.7 122.75 196.7 121.2
M 204.55 140.5
Q 204.55 139.3 204.55 138.05 203.45 138.5 202.15 138.7 201.4 138.8 200.6 138.95 200.45 139.1 200.3 139.25 200.15 139.4 200 139.5 199.9 139.55 199.8 139.55 198.65 139.9 197.55 140.4 197.45 140.55 197.3 140.65 196.85 141.05 196.4 141.55 196.3 141.6 196.2 141.6 195.8 141.75 195.4 141.85 195.25 142 195.05 142.1 194.35 142.4 194.15 143.05 194.15 143.15 194.1 143.2 193.4 143.55 192.65 143.8 198.45 144.75 204.55 145.65 204.55 143.1 204.55 140.5 Z" stroke="none" fill="#EE9D33"></path>
</g>
</g>
</g>
</g>
</svg>
