
<svg viewBox="0 0 112 184" height="184px" width="112px" y="0px" x="0px" preserveAspectRatio="none" xmlns:xlink="http://www.w3.org/1999/xlink" version="1.1" xmlns="http://www.w3.org/2000/svg">
<defs></defs>

<g id="fun_scrollers">
<g transform="matrix( 0.3621063232421875, 0, 0, 0.3621063232421875, -594.2,0.1)" id="svg"></g>

<g transform="matrix( 0.3621063232421875, 0, 0, 0.3621063232421875, -594.2,0.1)" id="Layer_2">
<g>
<g>
<g>
<path d="M 1634.8 91.4
L 1634.8 91.85
Q 1636.5626953125 92.1125 1638.3 92.75 1638.9126953125 92.95 1639.5 93.2
L 1642.15 94.65
Q 1650.85 99.5 1656.15 106.2 1661.3 113.55 1663.75 122.45 1665.9 130.35 1666.15 140.25
L 1666.2 142.8
Q 1666.4 155.15 1665.65 177
L 1664.65 207.05
Q 1664.5 211.65 1664 215.5 1663.55 218.45 1663.3 221.3
L 1662.15 249.4
Q 1661.2 275.45 1661.1 306.65 1661.05 329.45 1661.55 363.85
L 1661.9 393.65
Q 1662.05 402.2 1661.65 406.45 1660.05 410.35 1659.2 411.5 1658.45 412.7 1655.45 415.8
L 1650.7 420.7 1649.05 424.2 1648.9 424.55
Q 1648.51015625 424.6255859375 1648.1 424.7 1643.2640625 425.5318359375 1634.75 425.9
L 1630.2 425.95 1630.2 433.3
Q 1638.90390625 432.6970703125 1646.1 431.35 1652.3 429.65 1656.65 426.4 1660.45 423.65 1664.95 418.15 1668.75 411.5 1669.25 406.4 1669.8 401.2 1669.2 377.15
L 1668.75 358.45
Q 1667.95 323.8 1668 299.2 1668.1 267.15 1669.5 240.05 1670.6 219.65 1671.55 192.1
L 1672.5 166.7
Q 1673.25 146.75 1672.45 136.7 1671.1 120.2 1665.45 107.7 1662.15 101.5 1659.05 97.75 1655.05 92.85 1650.1 90.3 1645.4 88 1642.95 85.95 1642.7447265625 85.4224609375 1642.55 85 1642.2060546875 83.959375 1642.1 83.5 1641.95 82.9 1641.8 80.85
L 1641.8 78.6 1641.8 76.4 1641.45 76.4 1640.85 76.4
Q 1641.7 81 1641.8 83.15 1642 86.7 1641.1 89.85 1636.7 91.1 1634.8 91.4 Z" stroke="none" fill="#706C84"></path>

<path d="M 1632.9 13.55
Q 1631.7767578125 12.2984375 1630.2 10.95
L 1630.2 36
Q 1630.5341796875 36.8876953125 1630.7 37.8 1630.75 38.65 1630.85 41.25
L 1631.1 47.45
Q 1631.8 61.65 1634.5 75.05 1635.5 80.65 1635.3 84.5
L 1633.4 86.45
Q 1631.933984375 86.559375 1630.2 86.65
L 1630.2 91.85
Q 1632.302734375 91.8064453125 1633 91.85 1633.85 91.9 1636.3 92.2 1636.95 92.45 1637.6 92.75
L 1638.3 92.75
Q 1636.5626953125 92.1125 1634.8 91.85
L 1634.8 91.4
Q 1636.7 91.1 1641.1 89.85 1642 86.7 1641.8 83.15 1641.7 81 1640.85 76.4
L 1641.45 76.4
Q 1641.1705078125 74.70546875 1640.8 73.1 1637.3 57.9 1637.15 37.75
L 1637.2 29.1
Q 1637.25 22.85 1636.1 18.75 1634.8 15.75 1632.9 13.55
M 1641.8 80.85
Q 1641.95 82.9 1642.1 83.5 1642.2060546875 83.959375 1642.55 85
L 1642.25 82.9
Q 1642.0822265625 80.6984375 1641.8 78.6
L 1641.8 80.85 Z" stroke="none" fill="#7E1A34"></path>

<path d="M 1630.2 376.4
L 1630.2 394.7
Q 1634.5357421875 394.575 1637.85 394.45
L 1641.25 394.25
Q 1646.05 394.15 1652.15 393.7
L 1653.15 392.7
Q 1653.95 388.15 1654 385 1654.05 381 1652.9 377.3 1649.5 375.85 1647.8 375.75 1646 375.65 1638.8 376.05
L 1630.2 376.4
M 1643.3 215.9
L 1641.1 215.4 1632.05 215.75
Q 1631.1130859375 215.775390625 1630.2 215.8
L 1630.2 238.55
Q 1639.5228515625 239.3748046875 1646.55 237.9
L 1647.8 235.5
Q 1647.7 233.25 1647.65 232.5 1647.6 231.7 1647.15 229.4
L 1646.35 226.4
Q 1645.45 219.85 1643.3 215.9 Z" stroke="none" fill="#9DAEEA"></path>

<path d="M 1637.25 170.7
Q 1635.7 168.15 1635.25 167.55 1634.8 166.95 1633.8 166 1632 165.9486328125 1630.2 165.9
L 1630.2 194
Q 1632.812890625 193.1666015625 1635.2 191.9 1637 189.4 1637.45 188.55 1637.9 187.65 1638.95 185.1
L 1639.85 184.15
Q 1640.2 179.8 1639.75 177.25 1639.25 174.05 1637.25 170.7 Z" stroke="none" fill="#F1F3F7"></path>

<path d="M 1644.4 168.65
Q 1643.35 165.75 1642.1 163.95 1640.65 161.85 1638.5 160.1 1634.9865234375 159.1162109375 1630.2 159.15
L 1630.2 165.9
Q 1632 165.9486328125 1633.8 166 1634.8 166.95 1635.25 167.55 1635.7 168.15 1637.25 170.7 1639.25 174.05 1639.75 177.25 1640.2 179.8 1639.85 184.15
L 1638.95 185.1
Q 1637.9 187.65 1637.45 188.55 1637 189.4 1635.2 191.9 1632.812890625 193.1666015625 1630.2 194
L 1630.2 200.6
Q 1636.683984375 199.7814453125 1641.05 197.55
L 1642 193.75
Q 1644.1 190.75 1644.7 188.4 1645.15 186.5 1645.2 182.4
L 1645.15 179.6
Q 1645.25 173.25 1644.4 168.65 Z" stroke="none" fill="#5D5A76"></path>

<path d="M 1637.6 141.95
L 1630.2 141.5 1630.2 154.45
Q 1636.6822265625 153.2501953125 1642.6 152.9 1645 152.85 1645.65 152.8 1646.35 152.7 1648 152.3
L 1647.95 147.45 1649.85 147.45 1649.95 141.7 1649.7 141.7 1644 141.8 1643.75 141.8
Q 1641.2125 142.05 1640.4 142.05 1639.65 142.05 1637.6 141.95 Z" stroke="none" fill="#992A3F"></path>

<path d="M 1630.2 138.25
L 1630.2 141.5 1637.6 141.95
Q 1639.65 142.05 1640.4 142.05 1641.2125 142.05 1643.75 141.8
L 1644 141.8 1643.9 138.05
Q 1643.4 137.95 1642.9 137.95 1641.8 137.85 1640.75 137.9 1639.6 137.9 1638.45 137.95 1637.2 137.95 1636 138 1634.7 138.05 1633.45 138.1 1631.82265625 138.1912109375 1630.2 138.25
M 1633 91.85
Q 1632.302734375 91.8064453125 1630.2 91.85
L 1630.2 111.8 1632.9 111.8
Q 1633.95 111.85 1635.05 111.9 1636.05 111.9 1637.1 112 1638.05 112.1 1639.05 112.15 1639.9 112.2 1640.85 112.35 1641.7 112.45 1642.65 112.65 1643.5 112.8 1644.35 112.95 1645.1 113.15 1645.95 113.35 1646.6 113.6 1647.25 113.95 1648.3 114.75 1649.3 115.75
L 1649.7 141.7 1649.95 141.7 1649.85 147.45 1647.95 147.45 1648 152.3
Q 1646.35 152.7 1645.65 152.8 1645 152.85 1642.6 152.9 1636.6822265625 153.2501953125 1630.2 154.45
L 1630.2 159.15
Q 1634.9865234375 159.1162109375 1638.5 160.1 1640.65 161.85 1642.1 163.95 1643.35 165.75 1644.4 168.65 1645.25 173.25 1645.15 179.6
L 1645.2 182.4
Q 1645.15 186.5 1644.7 188.4 1644.1 190.75 1642 193.75
L 1641.05 197.55
Q 1636.683984375 199.7814453125 1630.2 200.6
L 1630.2 215.8
Q 1631.1130859375 215.775390625 1632.05 215.75
L 1641.1 215.4 1643.3 215.9
Q 1645.45 219.85 1646.35 226.4
L 1647.15 229.4
Q 1647.6 231.7 1647.65 232.5 1647.7 233.25 1647.8 235.5
L 1646.55 237.9
Q 1639.5228515625 239.3748046875 1630.2 238.55
L 1630.2 376.4 1638.8 376.05
Q 1646 375.65 1647.8 375.75 1649.5 375.85 1652.9 377.3 1654.05 381 1654 385 1653.95 388.15 1653.15 392.7
L 1652.15 393.7
Q 1646.05 394.15 1641.25 394.25
L 1637.85 394.45
Q 1634.5357421875 394.575 1630.2 394.7
L 1630.2 425.95 1634.75 425.9
Q 1643.2640625 425.5318359375 1648.1 424.7 1648.590234375 424.47890625 1649.05 424.2
L 1650.7 420.7 1655.45 415.8
Q 1658.45 412.7 1659.2 411.5 1660.05 410.35 1661.65 406.45 1662.05 402.2 1661.9 393.65
L 1661.55 363.85
Q 1661.05 329.45 1661.1 306.65 1661.2 275.45 1662.15 249.4
L 1663.3 221.3
Q 1663.55 218.45 1664 215.5 1664.5 211.65 1664.65 207.05
L 1665.65 177
Q 1666.4 155.15 1666.2 142.8
L 1666.15 140.25
Q 1665.9 130.35 1663.75 122.45 1661.3 113.55 1656.15 106.2 1650.85 99.5 1642.15 94.65
L 1639.5 93.2
Q 1638.9126953125 92.95 1638.3 92.75
L 1637.6 92.75
Q 1636.95 92.45 1636.3 92.2 1633.85 91.9 1633 91.85 Z" stroke="none" fill="#F5F7F9"></path>

<path d="M 1642.65 112.65
Q 1641.7 112.45 1640.85 112.35 1639.9 112.2 1639.05 112.15 1638.05 112.1 1637.1 112 1636.05 111.9 1635.05 111.9 1633.95 111.85 1632.9 111.8
L 1630.2 111.8 1630.2 138.25
Q 1631.82265625 138.1912109375 1633.45 138.1 1634.7 138.05 1636 138 1637.2 137.95 1638.45 137.95 1639.6 137.9 1640.75 137.9 1641.8 137.85 1642.9 137.95 1643.4 137.95 1643.9 138.05
L 1644 141.8 1649.7 141.7 1649.3 115.75
Q 1648.3 114.75 1647.25 113.95 1646.6 113.6 1645.95 113.35 1645.1 113.15 1644.35 112.95 1643.5 112.8 1642.65 112.65 Z" stroke="none" fill="#110F1A"></path>

<path d="M 1630.7 37.8
Q 1630.5341796875 36.8876953125 1630.2 36
L 1630.2 86.65
Q 1631.933984375 86.559375 1633.4 86.45
L 1635.3 84.5
Q 1635.5 80.65 1634.5 75.05 1631.8 61.65 1631.1 47.45
L 1630.85 41.25
Q 1630.75 38.65 1630.7 37.8 Z" stroke="none" fill="#E21F2D"></path>
</g>
</g>
</g>
</g>

<g transform="matrix( 0.3621063232421875, 0, 0, 0.3621063232421875, -594.2,0.1)" id="Layer_3">
<g>
<g>
<g>
<path d="M 1634.7 388.2
Q 1632.7791015625 385.2119140625 1630.2 383.5
L 1630.2 399.9
Q 1630.3046875 400.223046875 1630.4 400.55 1631.35 403.65 1631.65 407.65 1631.85 410.45 1631.75 414.85
L 1638.6 415
Q 1638.65 408.9 1638.65 405.85 1638.65 400.4 1638 396.75 1637.1 391.9 1634.7 388.2
M 1644.35 269.75
L 1644.25 262.55 1638.25 262.45
Q 1637.1 262.45 1636.55 262.65 1636.05 262.85 1635.25 263.55 1633.25 265.35 1631.45 267.35 1630.8 268.1 1630.35 268.3
L 1630.2 268.3 1630.2 290.6
Q 1630.991015625 290.13046875 1632.05 289.2 1635.55 285.9 1636.85 284.3 1637.55 283.45 1639.6 280.5
L 1641.85 277.1
Q 1642.05 276.8 1642.65 275.6 1642.9 274.7 1643.2 274.2
L 1644.05 272.5
Q 1644.35 271.65 1644.35 269.75
M 1660.4 429.3
Q 1660.3 427.15 1659.95 426.5
L 1652.6 426.4 1652.6 433.15
Q 1653.35 433.5 1653.55 434.7 1653.6 435.3 1653.55 436.55 1653.55 437.6 1654.15 439.6 1655.9 445.05 1656.75 447.05
L 1658.55 450.95
Q 1659.55 453.15 1659.9 454.85 1660.4 457.3 1660.1 462.25 1660.65 462.15 1661.35 462.6 1661.75 462.85 1662.55 463.35 1663.25 463.6 1664.3 463.6 1667.35 463.6 1670.35 463.45
L 1670.35 451.4
Q 1670.35 449.2 1670.05 448.15 1669.85 447.4 1669.4 447.05 1668.95 446.75 1668 446.75 1666.95 446.75 1666.55 446.6 1663.6 440.55 1661.7 434.9 1660.5 431.2 1660.4 429.3 Z" stroke="none" fill="#000000"></path>
</g>
</g>
</g>
</g>

<g transform="matrix( 0.3621063232421875, 0, 0, 0.3621063232421875, -594.2,0.1)" id="Layer_6">
<g>
<g>
<g>
<path d="M 1923.3 92.1
L 1922.7 92.05 1922.3 92.05 1921.85 96.8 1919.9 96.7
Q 1910.45 100.3 1904.85 103.2 1896.85 107.3 1891.55 112.6 1887.1 118.1 1884.6 125.3 1882.55 131.25 1881.7 139.4
L 1876.8 188.15
Q 1875.8 199.45 1873.5 221.8
L 1871.7 240
Q 1870.05 256.5 1869.75 259.3 1868.55 270.3 1867.4 278.65 1865.95 288.35 1864.9 301.15 1862.85 325 1860.75 343.15 1857.45 372.8 1855.7 391
L 1853.9 410.4
Q 1853.1 419.15 1853.8 424.25 1855.65 431.2 1861.3 436.6 1864.7 438.65 1868.9 439.8 1872.25 440.7 1877.05 441.3
L 1936.95 445.85 1936.95 438.7 1913.75 437.4
Q 1899.45 436.8 1892.25 436.3 1879.75 435.4 1871.15 433.05 1868.15 432 1866.65 430.65 1865.15 429.5 1863.35 426.75 1861.45 422.3 1860.75 418.85 1860.05 415 1860.45 410.45
L 1864.2 372.35
Q 1865.1 364.25 1865.45 360.2
L 1873 287.45
Q 1878.85 230.7 1881.4 209 1883.5 191.65 1884.7 179.1
L 1888.3 142.6
Q 1888.85 136.55 1889.25 134.05 1890 129.5 1891.65 125.8
L 1893.45 123.2
Q 1902.55 114.05 1906.05 111.65 1909.65 109.25 1921.8 104.25
L 1921.9 104.2 1925.2 102.8
Q 1924 102.4 1922.4 101.65
L 1922.3 99.5
Q 1922.3 99.4 1923.3 92.1 Z" stroke="none" fill="#706C84"></path>

<path d="M 1936.95 18.4
L 1936.95 13.15
Q 1936.1990234375 13.1673828125 1935.45 13.2
L 1932.05 13.35
Q 1924.4 13.65 1919.85 14.25 1913.1 14.95 1907.8 16.45 1906.85 18.05 1906.6 19.15 1906.35 20.2 1905.9 25.15
L 1905.7 27.9
Q 1905.45 29.85 1905.05 33.75 1904.85 37.15 1905.75 39.4 1908.5 41.05 1909.3 41.4 1910.15 41.7 1912.15 42.05
L 1935.3 43.95
Q 1933.75 47.4 1932.8 51.4 1932.05 54.35 1931.35 59.05 1930.05 67.4 1929.45 70.35 1928.1 76.65 1926.05 81.3 1923.7720703125 86.311328125 1922.7 92.05
L 1923.3 92.1
Q 1922.3 99.4 1922.3 99.5
L 1922.4 101.65
Q 1924 102.4 1925.2 102.8
L 1921.9 104.2
Q 1922.0681640625 104.1494140625 1922.2 104.1 1925.9 103.15 1929.45 102.95
L 1936.95 103.55 1936.95 99 1928.5 98.5
Q 1929.85 91.55 1930.25 89.9 1930.7 88.2 1932.05 84.9 1934.45 78.7 1936.05 68.5 1936.4865234375 65.7857421875 1936.95 63.3
L 1936.95 37.15 1911.95 35
Q 1909.75 28.8 1912.15 22.5 1924.609375 19.555859375 1936.95 18.4 Z" stroke="none" fill="#7E1A34"></path>

<path d="M 1892.35 384.95
Q 1887.85 384.9 1884.35 386.45 1882.65 389.4 1882.2 390.4 1881.8 391.5 1880.95 394.95 1881 398.55 1881.2 399.65 1881.4 400.7 1882.8 403.7 1886.35 405.75 1889.05 406.1 1891.75 406.5 1904.3 406.8
L 1912.15 407.05
Q 1922.45 407.65 1932.7 407.9 1934.8646484375 407.955078125 1936.95 408
L 1936.95 388.55
Q 1934.69375 388.408203125 1932.45 388.25 1925.85 387.8 1919.15 387.2 1910.15 386.35 1905.65 386.05
L 1900.6 385.7
Q 1894.2 384.95 1892.35 384.95
M 1936.95 229.7
Q 1931.6384765625 229.3537109375 1923.5 228.8 1906.35 227.6 1906.1 227.95 1902.85 239.3 1905.55 247.05 1909.1 249.4 1911.1 249.8 1913 250.15 1921.1 250.2 1923.05 250.1 1926.85 250.2 1932.24453125 250.39375 1936.95 250.5
L 1936.95 229.7 Z" stroke="none" fill="#9DAEEA"></path>

<path d="M 1902.6 154.5
Q 1902.55 155.25 1902.9 157.5
L 1906.5 159.25 1911.3 160.8
Q 1917.7 164.3 1921.5 165.8 1927.2 168.25 1932.4 168.95 1934.6572265625 169.219140625 1936.95 169.7
L 1936.95 153.1 1911.8 151.55
Q 1907.45 151.15 1903.45 151.75 1902.7 153.8 1902.6 154.5 Z" stroke="none" fill="#992A3F"></path>

<path d="M 1910.1 123.05
L 1908.9 123 1907.85 123.95 1907.8 124.1
Q 1907.3916015625 125.37578125 1906.95 126.75 1906.25 129.4 1905.6 132.15 1905.25 133.5 1905.1 134.85 1904.85 136.3 1904.8 137.75 1904.65 139.15 1904.65 140.55 1904.6 142 1904.65 143.5 1904.7 144.95 1904.85 146.35 1904.9 146.8 1905.05 147.2 1905.1 147.45 1905.25 147.75 1905.35 147.9 1905.4 148.1 1905.45 148.15 1905.5 148.25 1905.6 148.35 1905.75 148.45 1905.85 148.55 1906 148.65 1906.2 148.75 1906.45 148.95 1906.7 149.1 1907 149.15 1907.7 149.6 1908.45 149.9
L 1936.95 151.5 1936.95 123.65 1921.05 122.65
Q 1920.35 122.6 1919.65 122.6 1919.05 122.55 1918.4 122.5 1917.9 122.5 1917.35 122.45 1916.9 122.45 1916.4 122.4 1916 122.4 1915.7 122.35 1915.35 122.35 1915.05 122.35 1914.8 122.3 1914.65 122.3 1914.45 122.3 1914.3 122.3 1913.4 122.4 1912.6 122.5 1911.75 122.6 1910.9 122.8 1910.499609375 122.9251953125 1910.1 123.05 Z" stroke="none" fill="#110F1A"></path>

<path d="M 1936.95 123.65
L 1936.95 103.55 1929.45 102.95
Q 1925.9 103.15 1922.2 104.1 1922.0681640625 104.1494140625 1921.9 104.2
L 1921.8 104.25
Q 1909.65 109.25 1906.05 111.65 1902.55 114.05 1893.45 123.2
L 1891.65 125.8
Q 1890 129.5 1889.25 134.05 1888.85 136.55 1888.3 142.6
L 1884.7 179.1
Q 1883.5 191.65 1881.4 209 1878.85 230.7 1873 287.45
L 1865.45 360.2
Q 1865.1 364.25 1864.2 372.35
L 1860.45 410.45
Q 1860.05 415 1860.75 418.85 1861.45 422.3 1863.35 426.75 1865.15 429.5 1866.65 430.65 1868.15 432 1871.15 433.05 1879.75 435.4 1892.25 436.3 1899.45 436.8 1913.75 437.4
L 1936.95 438.7 1936.95 408
Q 1934.8646484375 407.955078125 1932.7 407.9 1922.45 407.65 1912.15 407.05
L 1904.3 406.8
Q 1891.75 406.5 1889.05 406.1 1886.35 405.75 1882.8 403.7 1881.4 400.7 1881.2 399.65 1881 398.55 1880.95 394.95 1881.8 391.5 1882.2 390.4 1882.65 389.4 1884.35 386.45 1887.85 384.9 1892.35 384.95 1894.2 384.95 1900.6 385.7
L 1905.65 386.05
Q 1910.15 386.35 1919.15 387.2 1925.85 387.8 1932.45 388.25 1934.69375 388.408203125 1936.95 388.55
L 1936.95 250.5
Q 1932.24453125 250.39375 1926.85 250.2 1923.05 250.1 1921.1 250.2 1913 250.15 1911.1 249.8 1909.1 249.4 1905.55 247.05 1902.85 239.3 1906.1 227.95 1906.35 227.6 1923.5 228.8 1931.6384765625 229.3537109375 1936.95 229.7
L 1936.95 169.7
Q 1934.6572265625 169.219140625 1932.4 168.95 1927.2 168.25 1921.5 165.8 1917.7 164.3 1911.3 160.8
L 1906.5 159.25 1902.9 157.5
Q 1902.55 155.25 1902.6 154.5 1902.7 153.8 1903.45 151.75 1907.45 151.15 1911.8 151.55
L 1936.95 153.1 1936.95 151.5 1908.45 149.9
Q 1907.7 149.6 1907 149.15 1906.7 149.1 1906.45 148.95 1906.2 148.75 1906 148.65 1905.85 148.55 1905.75 148.45 1905.6 148.35 1905.5 148.25 1905.45 148.15 1905.4 148.1 1905.35 147.9 1905.25 147.75 1905.1 147.45 1905.05 147.2 1904.9 146.8 1904.85 146.35 1904.7 144.95 1904.65 143.5 1904.6 142 1904.65 140.55 1904.65 139.15 1904.8 137.75 1904.85 136.3 1905.1 134.85 1905.25 133.5 1905.6 132.15 1906.25 129.4 1906.95 126.75 1907.3916015625 125.37578125 1907.8 124.1
L 1907.85 123.95 1908.9 123 1910.1 123.05
Q 1910.499609375 122.9251953125 1910.9 122.8 1911.75 122.6 1912.6 122.5 1913.4 122.4 1914.3 122.3 1914.45 122.3 1914.65 122.3 1914.8 122.3 1915.05 122.35 1915.35 122.35 1915.7 122.35 1916 122.4 1916.4 122.4 1916.9 122.45 1917.35 122.45 1917.9 122.5 1918.4 122.5 1919.05 122.55 1919.65 122.6 1920.35 122.6 1921.05 122.65
L 1936.95 123.65 Z" stroke="none" fill="#F5F7F9"></path>

<path d="M 1936.95 63.3
Q 1936.4865234375 65.7857421875 1936.05 68.5 1934.45 78.7 1932.05 84.9 1930.7 88.2 1930.25 89.9 1929.85 91.55 1928.5 98.5
L 1936.95 99 1936.95 63.3 Z" stroke="none" fill="#E21F2D"></path>

<path d="M 1936.95 37.15
L 1936.95 18.4
Q 1924.609375 19.555859375 1912.15 22.5 1909.75 28.8 1911.95 35
L 1936.95 37.15 Z" stroke="none" fill="#DF202E"></path>
</g>
</g>
</g>
</g>

<g transform="matrix( 0.3621063232421875, 0, 0, 0.3621063232421875, -594.2,0.1)" id="MergedLayer_1">
<g>
<g>
<g>
<path d="M 1922.05 468.65
L 1918.85 463.9
Q 1917.45 461.75 1916.25 461.2 1915.3 460.75 1913.2 460.75
L 1908.15 460.7
Q 1906.55 460.7 1905.95 461.25 1905.3 461.85 1905.2 463.5 1904.85 468.7 1905 471.5 1905.2 475.95 1906.45 479.25 1907.8 482.7 1911.35 486.9 1914.6 490.65 1917.3 491.65 1919.05 492.3 1922.4 492.4 1926.75 492.5 1928.9 491.65 1930.35 491.1 1931.9 489.95 1932.85 489.25 1934.6 487.7
L 1936.95 485.6 1936.95 472.5 1926.8 481.35
Q 1925.7 479.5 1925.15 477.25 1924.85 474.5 1924.45 473.2 1923.95 471.55 1922.05 468.65
M 1879.85 231.45
Q 1879.45 230.45 1879.15 230.1 1878.75 229.65 1878.6 229.45 1878.55 229.35 1878.2 228.45 1878 227.8 1877.65 227.6 1877.55 227.55 1876.75 227.4
L 1870.2 227.35 1870.2 234.1
Q 1870.85 234.1 1871.15 234.9 1871.35 235.3 1871.65 236.15
L 1872.2 236.85
Q 1872.35 237.05 1873.3 238.8 1874 240.2 1875.95 242.8
L 1879.3 247.2
Q 1881.8 250.4 1882.3 252.4 1882.55 253.3 1882.65 253.5 1882.65 253.55 1882.7 253.6 1881.85 254.95 1881.45 256.65 1880.95 258.7 1880.95 261.45 1880.95 261.95 1881.15 266.3 1881.25 268.25 1881.3 272.15 1881.45 275.55 1881.9 277.9 1883.15 284.6 1887.35 287.9 1890.05 290 1894.25 290.65 1897 291.1 1901.95 291.05
L 1907.4 291
Q 1911.3 291 1913.55 290.85 1916.95 290.65 1919.6 290.05 1922.15 289.45 1925.1 288.25
L 1925.1 288.85
Q 1925.1 290 1925.35 290.5 1925.6 291.1 1926.3 291.6 1926.75 291.9 1927.55 292.5 1928.3 293.1 1929.15 294.4 1930.15 295.95 1930.55 296.4 1931.4 297.25 1931.6 297.6 1931.7 297.8 1931.85 298.25 1932.05 298.6 1932.25 298.8
L 1932.85 299.25 1933.25 299.75
Q 1933.6 300.05 1934.6 300.15 1934.7 300.75 1935.45 301.05 1935.5 301.05 1935.55 301.1 1935.55 301.25 1935.6 301.45 1918.4 302.3 1890.95 304 1888.15 304.15 1886.5 304.65 1884.15 305.3 1883 306.9 1881.75 308.6 1881.65 312.45 1881 332.3 1883 348.8 1885.3 368 1891.35 384 1893.55 389.8 1895.6 393.3 1898.25 397.9 1902.15 401.85 1901.3 401.65 1900.5 401.5 1895.1 400.35 1860.85 395.1 1836.7 391.4 1821.95 386 1818.65 384.8 1816.7 383.55 1814 381.75 1813 379.4 1812.8 378.95 1812.65 378.35 1824.7 377.7 1836.7 379.3 1841.15 379.95 1850.05 381.35 1857.75 382.3 1863.4 381.6
L 1863.4 375.05
Q 1858.85 374.95 1852.15 373.9 1844.65 372.65 1840.85 372.15 1833.95 371.25 1825.25 371.05 1820.4 370.95 1811.05 371.1 1810.95 370.85 1810.85 370.65 1810.35 369.7 1809.6 368.95 1809.3 366.35 1807.6 363.8 1806.2 361.65 1804.5 361.1 1803.6 360.75 1801.75 360.75
L 1797.75 360.65
Q 1794.75 360.65 1793.45 361.25 1791 362.35 1790.1 365.55 1789.6 367.25 1789.6 371.2
L 1789.75 382.4
Q 1789.75 383.95 1790.35 384.5 1790.85 384.9 1791.9 385 1792.2 385.05 1792.55 385.1 1792.85 387.35 1793.75 388.5 1795.15 390.3 1798.3 390.45 1802.1 390.25 1803.85 390.2 1806.9 390.1 1810.7 391.15 1812.25 391.6 1817.4 393.4 1831.7 398.4 1854.9 402.05 1887.8 407.2 1893.05 408.3 1905.15 410.85 1923.05 416.35 1931.07734375 418.8087890625 1936.95 420.6
L 1936.95 407.05
Q 1934.25234375 404.7619140625 1931.3 401.65 1929.25 399.45 1924.9 394.45 1920.6 389.45 1918.8 386.8 1916.35 383.25 1912.9 376.3 1910.25 370.95 1909.15 368.15 1907.4 363.5 1907.05 359.55
L 1905.5 359.55 1905.5 359.5
Q 1905.8 358.25 1906.6 357.3 1907.45 356.3 1908.6 356 1910.55 355.55 1913.6 357.7 1918.2 361 1926.45 368.7 1932.794140625 374.62109375 1936.95 377.9
L 1936.95 329.35
Q 1935.139453125 328.46484375 1933.65 327.3 1931.9 325.95 1930.1 323.8 1929.05 322.5 1927.1 319.75 1925.3 317.15 1924.95 315.8 1924.6 314.35 1924.85 311.65 1924.95 310.3 1925 309.35 1931.6166015625 308.9537109375 1936.95 308.65
L 1936.95 289
Q 1936.7041015625 288.6505859375 1936.2 287.8 1935.55 286.55 1934.3 285.55 1932.8 284.45 1932.65 284.3 1933.55 283.7 1934.2 283.2 1935.4203125 282.1232421875 1936.95 280.1
L 1936.95 256.55
Q 1931.3380859375 255.572265625 1925.3 255.05 1922.5 254.85 1921.15 254.55 1918.05 253.5 1916.5 253.05 1914.15 252.3 1910 251.85 1901.25 250.85 1893.85 250.8
L 1893.85 249.7
Q 1893.25 249.75 1890.65 249.6 1890.45 249.6 1890.3 249.6
L 1890.3 249.4
Q 1890.3 248.2 1890.1 247.6 1890 247.35 1889.25 245.95 1888.7 244.4 1888.35 243.65 1887.85 242.45 1886.45 240.7
L 1882.8 235.9
Q 1880.65 233.2 1879.85 231.45
M 1894.75 439.55
L 1887.95 439.4
Q 1888.6 441.6 1885.7 444.2 1884.1 445.65 1880.85 447.9 1877.4 450.35 1875.95 451.55 1874.3 452.95 1871.15 456.15 1868.05 459.3 1866.3 460.75 1864.3 462.35 1859.4 465.4 1855.7 467.65 1853.75 468.65 1850.5 470.3 1847.7 471
L 1847.7 469.7
Q 1844.1 468.55 1840.65 465.55 1838.2 463.4 1834.9 459.4 1833.2 457.4 1832.2 456.8 1830.4 455.75 1826.85 455.95 1822.5 456.25 1821.15 455.95 1821.25 457.2 1821.15 459.15 1820.95 461.65 1820.95 462.35 1820.85 466.35 1822.8 468.35 1823.65 469.25 1825.25 470.15
L 1837.55 477.5
Q 1841.15 479.6 1843.15 480.05 1846.25 480.75 1850.5 479.6 1856.05 478.1 1864.4 473.25 1870.05 470.05 1873.05 467.5 1874.65 466.2 1877.25 463.55 1880.1 460.7 1881.4 459.55 1884.2 457 1890.3 452.8 1893.3 450.7 1894.15 449 1894.95 447.35 1894.8 444.4 1894.6 440.5 1894.75 439.55 Z" stroke="none" fill="#000000"></path>

<path d="M 1913.6 357.7
Q 1910.55 355.55 1908.6 356 1907.45 356.3 1906.6 357.3 1905.8 358.25 1905.5 359.5
L 1905.5 359.55 1907.05 359.55
Q 1907.4 363.5 1909.15 368.15 1910.25 370.95 1912.9 376.3 1916.35 383.25 1918.8 386.8 1920.6 389.45 1924.9 394.45 1929.25 399.45 1931.3 401.65 1934.25234375 404.7619140625 1936.95 407.05
L 1936.95 377.9
Q 1932.794140625 374.62109375 1926.45 368.7 1918.2 361 1913.6 357.7
M 1924.95 315.8
Q 1925.3 317.15 1927.1 319.75 1929.05 322.5 1930.1 323.8 1931.9 325.95 1933.65 327.3 1935.139453125 328.46484375 1936.95 329.35
L 1936.95 308.65
Q 1931.6166015625 308.9537109375 1925 309.35 1924.95 310.3 1924.85 311.65 1924.6 314.35 1924.95 315.8 Z" stroke="none" fill="#FFFFFF"></path>
</g>
</g>
</g>
</g>
</g>
</svg>
