<svg version="1.1" xmlns="http://www.w3.org/2000/svg" xmlns:xlink="http://www.w3.org/1999/xlink" width="227.88281" height="135.46534" viewBox="0,0,227.88281,135.46534"><g transform="translate(-206.31006,-113.50795)"><g data-paper-data="{&quot;isPaintingLayer&quot;:true}" fill="#ffffff" fill-rule="nonzero" stroke="none" stroke-width="1" stroke-linecap="butt" stroke-linejoin="miter" stroke-miterlimit="10" stroke-dasharray="" stroke-dashoffset="0" style="mix-blend-mode: normal"><path d="M334.6,116.70795c4.53333,1.83333 8.56667,4.51667 12.1,8.05c3.53333,3.53333 6.21667,7.55 8.05,12.05c2.13333,4.66667 3.2,9.61667 3.2,14.85v29.65c0,2.4 -0.85,4.45 -2.55,6.15c-1.56667,1.56667 -3.55,2.35 -5.95,2.35h-16.95v-33.9h16.95v-4.25c0,-8.2 -2.9,-15.2 -8.7,-21c-5.76667,-5.76667 -12.75,-8.65 -20.95,-8.65c-8.33333,0 -15.4,2.88333 -21.2,8.65c-5.63333,5.66667 -8.45,12.66667 -8.45,21v4.25h16.95v33.9h-16.95c-2.56667,0 -4.61667,-0.78333 -6.15,-2.35c-1.56667,-1.56667 -2.35,-3.61667 -2.35,-6.15v-29.65c0,-5.5 1,-10.45 3,-14.85c1.83333,-4.5 4.51667,-8.51667 8.05,-12.05c3.5,-3.53333 7.51667,-6.21667 12.05,-8.05c4.66667,-2.13333 9.68333,-3.2 15.05,-3.2zM290.15,181.30796h8.45v-16.95h-8.45zM341,181.30796h8.45v-16.95h-8.45z"/><text transform="translate(206.56006,217.6483) scale(0.5,0.5)" font-size="40" xml:space="preserve" fill="#ffffff" fill-rule="nonzero" stroke="none" stroke-width="1" stroke-linecap="butt" stroke-linejoin="miter" stroke-miterlimit="10" stroke-dasharray="" stroke-dashoffset="0" font-family="Handwriting" font-weight="normal" text-anchor="start" style="mix-blend-mode: normal"><tspan x="0" dy="0">Something you should really </tspan><tspan x="0" dy="46.150000000000006px"> put your headphones on for</tspan></text></g></g></svg>