
<svg viewBox="0 0 112 184" height="184px" width="112px" y="0px" x="0px" preserveAspectRatio="none" xmlns:xlink="http://www.w3.org/1999/xlink" version="1.1" xmlns="http://www.w3.org/2000/svg">
<defs></defs>

<g id="fun_scrollers">
<g transform="matrix( 0.3621063232421875, 0, 0, 0.3621063232421875, -594.2,0.1)" id="svg"></g>

<g transform="matrix( 0.3621063232421875, 0, 0, 0.3621063232421875, -594.2,0.1)" id="Layer_2"></g>

<g transform="matrix( 0.3621063232421875, 0, 0, 0.3621063232421875, -594.2,0.1)" id="Layer_3"></g>

<g transform="matrix( 0.3621063232421875, 0, 0, 0.3621063232421875, -594.2,0.1)" id="Layer_2"></g>

<g transform="matrix( 0.3621063232421875, 0, 0, 0.3621063232421875, -594.2,0.1)" id="Layer_3"></g>

<g transform="matrix( 0.3621063232421875, 0, 0, 0.3621063232421875, -594.2,0.1)" id="MergedLayer_3"></g>

<g transform="matrix( 0.3621063232421875, 0, 0, 0.3621063232421875, -594.2,0.1)" id="Layer_4"></g>

<g transform="matrix( 0.3621063232421875, 0, 0, 0.3621063232421875, -594.2,0.1)" id="Layer_1">
<g>
<g>
<g>
<path d="M 1902.45 104.65
L 1902.25 102.35
Q 1902.2287109375 100.134375 1902.05 98
L 1901.9 100.35
Q 1901.95 102.35 1902.05 103 1902.125390625 103.451953125 1902.45 104.65
M 1890.35 26.15
Q 1883.95 21.65 1877.45 19.3 1871.1 17 1863.2 16.35
L 1859.45 16.15
Q 1834.35 14.3 1811.45 15.35
L 1808.05 15.55
Q 1800.4 15.95 1795.9 16.5 1789.2 17.25 1783.95 18.75 1783.05 20.4 1782.85 21.45 1782.65 22.55 1782.4 27.5
L 1782.25 30.2
Q 1782.1 32.15 1781.85 36.1 1781.75 39.55 1782.75 41.8 1785.55 43.4 1786.4 43.75 1787.2 44.05 1789.3 44.45
L 1812.4 46.25
Q 1811 49.7 1810.2 53.7 1809.55 56.65 1809.05 61.35 1808.05 69.75 1807.6 72.75 1806.45 79 1804.6 83.75 1802.460546875 88.75703125 1801.6 94.45
L 1802.2 94.5
Q 1801.5 101.85 1801.5 101.95
L 1801.7 104.1
Q 1803.3 104.85 1804.5 105.25
L 1801.1 106.7
Q 1801.3541015625 106.6546875 1801.6 106.6 1805.25 105.6 1808.75 105.4
L 1818.95 106.2
Q 1823.9 106.55 1833.8 107.15 1842.95 107.7 1852.05 108.35
L 1888.95 110.55
Q 1891.55 110.65 1892.4 110.75 1893.25 110.85 1895.7 111.3 1896.25 111.55 1896.95 111.9
L 1897.45 111.9
Q 1895.8365234375 111.2087890625 1894.15 110.85
L 1894.2 110.35
Q 1896.15 110.25 1900.6 109.3 1901.7 106.2 1901.75 102.65 1901.8 100.5 1901.3 95.85
L 1901.9 95.85
Q 1901.7154296875 94.1779296875 1901.45 92.55 1899 77.15 1900.25 57
L 1900.9 48.35
Q 1901.4 42.2 1900.55 38 1899.45 34.95 1897.75 32.6 1896.15 30.5 1893.4 28.25
L 1890.35 26.15
M 1893.2 44.1
Q 1893.25 44.9 1893.35 45.7
L 1822.2 43 1821.4 40.05 1788.8 37.4
Q 1786.4 31.15 1788.5 24.85 1834.6 13.6 1879.85 27.65 1879.85 28 1886.15 33.1 1892.55 39.15 1893.2 44.1
M 1885.2 50.8
Q 1889.5 51.35 1893 53.35 1893.7 55.05 1893.85 56.65 1893.9 57.55 1893.8 60.15
L 1893.65 66.35
Q 1893.35 80.55 1895.1 94.05 1895.7 99.7 1895.2 103.55
L 1893.2 105.4
Q 1889.85 105.45 1885.1 105.25
L 1807.7 100.95
Q 1808.75 94 1809.15 92.35 1809.55 90.6 1810.75 87.3 1812.9 81.1 1814.15 70.85 1815.65 58.1 1818 50.4
L 1821.05 47.7
Q 1823.15 47.55 1824 47.55 1824.8 47.55 1827.45 47.7
L 1885.2 50.8 Z" stroke="none" fill="#7E1A34"></path>

<path d="M 1852.05 108.35
Q 1842.95 107.7 1833.8 107.15 1823.9 106.55 1818.95 106.2
L 1808.75 105.4
Q 1805.25 105.6 1801.6 106.6 1801.3541015625 106.6546875 1801.1 106.7 1789.2416015625 111.8056640625 1785.75 114.2 1782.3 116.65 1773.6 125.8
L 1771.9 128.45
Q 1770.4 132.15 1769.8 136.75 1769.55 139.2 1769.15 145.3
L 1766.95 181.85
Q 1766.2 194.45 1764.75 211.9 1763.05 233.65 1759.25 290.55
L 1754.45 363.5
Q 1754.25 367.55 1753.65 375.65
L 1751.35 413.95
Q 1751.15 418.5 1751.95 422.3 1752.8 425.75 1754.85 430.2 1756.7 432.95 1758.3 434.1 1759.8 435.4 1762.85 436.5 1771.5 438.85 1784 439.65 1791.2 440.15 1805.5 440.65
L 1870.95 444.05
Q 1879.36796875 444.2775390625 1884.2 443.85 1884.8064453125 443.640625 1885.35 443.4
L 1887.25 440 1892.35 435.45
Q 1895.5 432.5 1896.4 431.35 1897.25 430.25 1899.2 426.5 1899.85 422.3 1900.3 413.75
L 1902 384
Q 1903.9 349.7 1905.5 326.95 1907.8 295.8 1910.55 269.9
L 1913.65 241.95
Q 1914.1 239.1 1914.75 236.2 1915.5 232.4 1915.95 227.85
L 1919.05 197.95
Q 1921.3 176.15 1922 163.85
L 1922.1 161.3
Q 1922.55 151.4 1920.95 143.35 1919.1 134.35 1914.45 126.65 1909.7 119.6 1901.3 114.15
L 1898.75 112.55
Q 1898.11484375 112.211328125 1897.45 111.9
L 1896.95 111.9
Q 1896.25 111.55 1895.7 111.3 1893.25 110.85 1892.4 110.75 1891.55 110.65 1888.95 110.55
L 1852.05 108.35
M 1772.3 393.75
Q 1772.7 392.65 1774.3 389.8 1777.75 388.15 1782.2 388.25 1784.05 388.25 1790.5 388.95
L 1795.5 389.25
Q 1800.05 389.55 1809 390.4 1815.75 391 1822.3 391.4 1830.15 391.95 1838.15 392.6 1852.9 394.05 1862.45 394.25
L 1878.5 394.65
Q 1885.7 394.75 1887.45 394.95 1889.2 395.2 1892.4 396.9 1893.3 400.65 1893 404.65 1892.75 407.75 1891.6 412.3
L 1890.6 413.2
Q 1884.5 413.25 1879.7 413
L 1876.25 412.9
Q 1865.6 412.6 1844.55 411.8 1835.1 411.35 1823.35 411.1 1813.05 410.8 1802.8 410.3
L 1794.95 410.05
Q 1782.4 409.85 1779.7 409.5 1777 409.1 1773.4 407.1 1771.9 404.05 1771.6 403 1771.35 401.9 1771.2 398.3 1771.9 394.85 1772.3 393.75
M 1866.75 234
Q 1873.65 233.85 1882.8 234.2
L 1891.9 234.55 1894.05 235.15
Q 1895.95 239.25 1896.4 245.85
L 1896.95 248.9
Q 1897.2 251.25 1897.25 252 1897.25 252.8 1897.2 255.05
L 1895.8 257.35
Q 1887.55 258.45 1876.55 256.35
L 1875.7 254.35
Q 1871.7 254.15 1867.7 254.1
L 1859.75 254
Q 1856.75 254 1842.15 253.6 1831.75 253.3 1826.6 253.3 1820 253.3 1811.65 253 1807.8 252.9 1805.95 253 1797.8 253 1795.85 252.65 1793.95 252.25 1790.25 249.95 1787.25 242.2 1790.1 230.8 1790.35 230.4 1807.5 231.55 1829.55 232.95 1830.9 233.05
L 1839.45 233.45
Q 1855.25 234.3 1866.75 234
M 1857.2 185.05
L 1859.05 182.95
Q 1863.7 179.15 1869.45 178.05 1873.25 177.35 1881 177.55
L 1884.3 177.65
Q 1889.5 177.9 1893.15 179.25 1895.2 181.1 1896.5 183.3 1897.6 185.2 1898.45 188.15 1898.95 192.8 1898.45 199.1
L 1898.3 201.9
Q 1898 206 1897.4 207.85 1896.6 210.15 1894.25 213
L 1893.1 216.8
Q 1888.45 218.7 1881.65 219.1 1878.5 219.25 1869.95 218.95
L 1867.25 218.9
Q 1863.85 218.75 1861.95 218.15 1859.55 217.45 1857.1 215.65 1854.2 212.2 1853.6 211.3 1853 210.3 1852.15 207.9 1851.95 204.9 1851.95 203.85 1851.95 202.75 1852.15 199.3
L 1852.35 194.75
Q 1852.85 191.5 1853.85 189.5 1854.85 187.65 1857.2 185.05
M 1799.75 125.1
Q 1800.45 125.15 1801.15 125.15
L 1890.95 130.65
Q 1892 130.75 1893.1 130.85 1894.1 130.95 1895.1 131.1 1896.1 131.25 1897.1 131.45 1897.95 131.55 1898.8 131.7 1899.7 131.9 1900.6 132.15 1901.4 132.35 1902.25 132.6 1903.05 132.8 1903.8 133.1 1904.5 133.35 1905.1 133.8 1906.1 134.65 1907 135.7
L 1905.65 161.6 1905.85 161.6 1905.35 167.4 1903.45 167.3 1903.2 172.1
Q 1901.45 172.35 1900.8 172.4 1900.1 172.45 1897.7 172.3 1889.25 172.2 1879.6 173.8
L 1865.8 176.15
Q 1847.2 179.3 1842.75 179.15 1838.25 179.15 1829.8 175.6 1821.7 172.35 1814.2 171.5 1809 170.85 1803.2 168.45 1799.35 166.9 1792.85 163.45
L 1788 161.9 1784.35 160.1
Q 1783.9 157.85 1783.95 157.15 1784 156.4 1784.65 154.35 1788.65 153.8 1792.95 154.15
L 1840.25 156.9
Q 1854.05 157.6 1867.75 158.45
L 1870.5 158.65
Q 1877.25 159.05 1884.85 159.95
L 1893.5 161
Q 1895.6 161.25 1896.35 161.3 1897.1255859375 161.3484375 1899.7 161.3 1899.8166015625 161.3 1899.9 161.3
L 1900.1 157.55
Q 1899.65 157.45 1899.15 157.45 1898.05 157.3 1897 157.2 1895.85 157.15 1894.7 157.1 1893.45 157.05 1892.25 157.05 1890.95 156.95 1889.7 156.95 1884.35 156.8 1879 156.75 1878.2 156.75 1877.4 156.8 1876.4 156.75 1875.45 156.75 1874.4 156.75 1873.35 156.75 1872.2 156.7 1871.05 156.65 1869.8 156.6 1868.55 156.6 1867.15 156.5 1865.8 156.5 1864.35 156.5 1862.9 156.45 1861.35 156.35 1859.75 156.3 1858.65 156.25 1857.55 156.2 1856.85 156.2 1856.25 156.15 1855.5 156.05 1854.75 156.05 1853.1 155.9 1851.4 155.8 1848.4 155.35 1845.6 155.2 1843 155.05 1840.4 154.9 1837.75 154.7 1835.1 154.6 1829.7 154.4 1824.3 154.3
L 1789.6 152.5
Q 1788.8 152.2 1788.15 151.75 1787.8 151.7 1787.55 151.6 1787.3 151.4 1787.05 151.25 1786.95 151.15 1786.8 151.05 1786.65 150.95 1786.6 150.85 1786.55 150.75 1786.5 150.7 1786.4 150.5 1786.3 150.35 1786.15 150.05 1786.1 149.8 1785.95 149.4 1785.85 149 1785.65 147.55 1785.55 146.1 1785.45 144.6 1785.4 143.15 1785.4 141.75 1785.45 140.35 1785.5 138.9 1785.65 137.45 1785.8 136.05 1786.05 134.7 1786.6 132 1787.25 129.3 1787.57265625 128.0091796875 1787.95 126.8
L 1788 126.55 1789 125.65 1790 125.7
Q 1790.5021484375 125.516015625 1791 125.35 1791.9 125.15 1792.7 124.95 1793.5 124.9 1794.4 124.8 1794.55 124.8 1794.7 124.85 1794.9 124.85 1795.15 124.85 1795.45 124.85 1795.8 124.9 1796.1 124.9 1796.5 124.9 1797 124.95 1797.45 124.95 1798 125 1798.5 125.05 1799.15 125.05 1799.75 125.1 Z" stroke="none" fill="#F5F7F9"></path>

<path d="M 1801.15 125.15
Q 1800.45 125.15 1799.75 125.1 1799.15 125.05 1798.5 125.05 1798 125 1797.45 124.95 1797 124.95 1796.5 124.9 1796.1 124.9 1795.8 124.9 1795.45 124.85 1795.15 124.85 1794.9 124.85 1794.7 124.85 1794.55 124.8 1794.4 124.8 1793.5 124.9 1792.7 124.95 1791.9 125.15 1791 125.35 1790.5021484375 125.516015625 1790 125.7
L 1789 125.65 1788 126.55 1787.95 126.8
Q 1787.57265625 128.0091796875 1787.25 129.3 1786.6 132 1786.05 134.7 1785.8 136.05 1785.65 137.45 1785.5 138.9 1785.45 140.35 1785.4 141.75 1785.4 143.15 1785.45 144.6 1785.55 146.1 1785.65 147.55 1785.85 149 1785.95 149.4 1786.1 149.8 1786.15 150.05 1786.3 150.35 1786.4 150.5 1786.5 150.7 1786.55 150.75 1786.6 150.85 1786.65 150.95 1786.8 151.05 1786.95 151.15 1787.05 151.25 1787.3 151.4 1787.55 151.6 1787.8 151.7 1788.15 151.75 1788.8 152.2 1789.6 152.5
L 1824.3 154.3
Q 1829.7 154.4 1835.1 154.6 1837.75 154.7 1840.4 154.9 1843 155.05 1845.6 155.2 1848.4 155.35 1851.4 155.8 1853.1 155.9 1854.75 156.05 1855.5 156.05 1856.25 156.15 1856.85 156.2 1857.55 156.2 1858.65 156.25 1859.75 156.3 1861.35 156.35 1862.9 156.45 1864.35 156.5 1865.8 156.5 1867.15 156.5 1868.55 156.6 1869.8 156.6 1871.05 156.65 1872.2 156.7 1873.35 156.75 1874.4 156.75 1875.45 156.75 1876.4 156.75 1877.4 156.8 1878.2 156.75 1879 156.75 1884.35 156.8 1889.7 156.95 1890.95 156.95 1892.25 157.05 1893.45 157.05 1894.7 157.1 1895.85 157.15 1897 157.2 1898.05 157.3 1899.15 157.45 1899.65 157.45 1900.1 157.55
L 1899.9 161.3 1905.65 161.6 1907 135.7
Q 1906.1 134.65 1905.1 133.8 1904.5 133.35 1903.8 133.1 1903.05 132.8 1902.25 132.6 1901.4 132.35 1900.6 132.15 1899.7 131.9 1898.8 131.7 1897.95 131.55 1897.1 131.45 1896.1 131.25 1895.1 131.1 1894.1 130.95 1893.1 130.85 1892 130.75 1890.95 130.65
L 1801.15 125.15 Z" stroke="none" fill="#110F1A"></path>

<path d="M 1803.2 168.45
Q 1809 170.85 1814.2 171.5 1821.7 172.35 1829.8 175.6 1838.25 179.15 1842.75 179.15 1847.2 179.3 1865.8 176.15
L 1879.6 173.8
Q 1889.25 172.2 1897.7 172.3 1900.1 172.45 1900.8 172.4 1901.45 172.35 1903.2 172.1
L 1903.45 167.3 1905.35 167.4 1905.85 161.6 1905.65 161.6 1899.9 161.3
Q 1899.8166015625 161.3 1899.7 161.3 1897.1255859375 161.3484375 1896.35 161.3 1895.6 161.25 1893.5 161
L 1884.85 159.95
Q 1877.25 159.05 1870.5 158.65
L 1867.75 158.45
Q 1854.05 157.6 1840.25 156.9
L 1792.95 154.15
Q 1788.65 153.8 1784.65 154.35 1784 156.4 1783.95 157.15 1783.9 157.85 1784.35 160.1
L 1788 161.9 1792.85 163.45
Q 1799.35 166.9 1803.2 168.45 Z" stroke="none" fill="#992A3F"></path>

<path d="M 1859.05 182.95
L 1857.2 185.05
Q 1854.85 187.65 1853.85 189.5 1852.85 191.5 1852.35 194.75
L 1852.15 199.3
Q 1851.95 202.75 1851.95 203.85 1851.95 204.9 1852.15 207.9 1853 210.3 1853.6 211.3 1854.2 212.2 1857.1 215.65 1859.55 217.45 1861.95 218.15 1863.85 218.75 1867.25 218.9
L 1869.95 218.95
Q 1878.5 219.25 1881.65 219.1 1888.45 218.7 1893.1 216.8
L 1894.25 213
Q 1896.6 210.15 1897.4 207.85 1898 206 1898.3 201.9
L 1898.45 199.1
Q 1898.95 192.8 1898.45 188.15 1897.6 185.2 1896.5 183.3 1895.2 181.1 1893.15 179.25 1889.5 177.9 1884.3 177.65
L 1881 177.55
Q 1873.25 177.35 1869.45 178.05 1863.7 179.15 1859.05 182.95
M 1857.5 197.6
Q 1860 192.95 1861.1 191.6 1862.3 190.35 1866.55 187.05 1869.25 185.3 1871.6 184.65 1873.9 184 1877.2 184
L 1881.05 184.25
Q 1884.55 184.4 1888.05 184.75 1889 185.8 1889.35 186.4 1889.8 187.05 1891.2 189.7 1892.9 193.15 1893.2 196.4 1893.5 198.95 1892.85 203.3
L 1891.85 204.2
Q 1890.65 206.7 1890.15 207.5 1889.6 208.35 1887.65 210.75 1882.55 213 1876.7 213.3 1871.65 213.55 1865.4 212.45 1862.3 211.2 1861.5 210.55 1860.65 209.9 1858.9 207.3 1857.25 202.7 1857.5 197.6 Z" stroke="none" fill="#5D5A76"></path>

<path d="M 1861.1 191.6
Q 1860 192.95 1857.5 197.6 1857.25 202.7 1858.9 207.3 1860.65 209.9 1861.5 210.55 1862.3 211.2 1865.4 212.45 1871.65 213.55 1876.7 213.3 1882.55 213 1887.65 210.75 1889.6 208.35 1890.15 207.5 1890.65 206.7 1891.85 204.2
L 1892.85 203.3
Q 1893.5 198.95 1893.2 196.4 1892.9 193.15 1891.2 189.7 1889.8 187.05 1889.35 186.4 1889 185.8 1888.05 184.75 1884.55 184.4 1881.05 184.25
L 1877.2 184
Q 1873.9 184 1871.6 184.65 1869.25 185.3 1866.55 187.05 1862.3 190.35 1861.1 191.6 Z" stroke="none" fill="#F1F3F7"></path>

<path d="M 1882.8 234.2
Q 1873.65 233.85 1866.75 234 1855.25 234.3 1839.45 233.45
L 1830.9 233.05
Q 1829.55 232.95 1807.5 231.55 1790.35 230.4 1790.1 230.8 1787.25 242.2 1790.25 249.95 1793.95 252.25 1795.85 252.65 1797.8 253 1805.95 253 1807.8 252.9 1811.65 253 1820 253.3 1826.6 253.3 1831.75 253.3 1842.15 253.6 1856.75 254 1859.75 254
L 1867.7 254.1
Q 1871.7 254.15 1875.7 254.35
L 1876.55 256.35
Q 1887.55 258.45 1895.8 257.35
L 1897.2 255.05
Q 1897.25 252.8 1897.25 252 1897.2 251.25 1896.95 248.9
L 1896.4 245.85
Q 1895.95 239.25 1894.05 235.15
L 1891.9 234.55 1882.8 234.2
M 1774.3 389.8
Q 1772.7 392.65 1772.3 393.75 1771.9 394.85 1771.2 398.3 1771.35 401.9 1771.6 403 1771.9 404.05 1773.4 407.1 1777 409.1 1779.7 409.5 1782.4 409.85 1794.95 410.05
L 1802.8 410.3
Q 1813.05 410.8 1823.35 411.1 1835.1 411.35 1844.55 411.8 1865.6 412.6 1876.25 412.9
L 1879.7 413
Q 1884.5 413.25 1890.6 413.2
L 1891.6 412.3
Q 1892.75 407.75 1893 404.65 1893.3 400.65 1892.4 396.9 1889.2 395.2 1887.45 394.95 1885.7 394.75 1878.5 394.65
L 1862.45 394.25
Q 1852.9 394.05 1838.15 392.6 1830.15 391.95 1822.3 391.4 1815.75 391 1809 390.4 1800.05 389.55 1795.5 389.25
L 1790.5 388.95
Q 1784.05 388.25 1782.2 388.25 1777.75 388.15 1774.3 389.8 Z" stroke="none" fill="#9DAEEA"></path>

<path d="M 1902.05 98
L 1902.25 95.9 1901.9 95.85 1901.3 95.85
Q 1901.8 100.5 1901.75 102.65 1901.7 106.2 1900.6 109.3 1896.15 110.25 1894.2 110.35
L 1894.15 110.85
Q 1895.8365234375 111.2087890625 1897.45 111.9 1898.11484375 112.211328125 1898.75 112.55
L 1901.3 114.15
Q 1909.7 119.6 1914.45 126.65 1919.1 134.35 1920.95 143.35 1922.55 151.4 1922.1 161.3
L 1922 163.85
Q 1921.3 176.15 1919.05 197.95
L 1915.95 227.85
Q 1915.5 232.4 1914.75 236.2 1914.1 239.1 1913.65 241.95
L 1910.55 269.9
Q 1907.8 295.8 1905.5 326.95 1903.9 349.7 1902 384
L 1900.3 413.75
Q 1899.85 422.3 1899.2 426.5 1897.25 430.25 1896.4 431.35 1895.5 432.5 1892.35 435.45
L 1887.25 440 1885.35 443.4 1885.15 443.75
Q 1884.7046875 443.7994140625 1884.2 443.85 1879.36796875 444.2775390625 1870.95 444.05
L 1805.5 440.65
Q 1791.2 440.15 1784 439.65 1771.5 438.85 1762.85 436.5 1759.8 435.4 1758.3 434.1 1756.7 432.95 1754.85 430.2 1752.8 425.75 1751.95 422.3 1751.15 418.5 1751.35 413.95
L 1753.65 375.65
Q 1754.25 367.55 1754.45 363.5
L 1759.25 290.55
Q 1763.05 233.65 1764.75 211.9 1766.2 194.45 1766.95 181.85
L 1769.15 145.3
Q 1769.55 139.2 1769.8 136.75 1770.4 132.15 1771.9 128.45
L 1773.6 125.8
Q 1782.3 116.65 1785.75 114.2 1789.2416015625 111.8056640625 1801.1 106.7
L 1804.5 105.25
Q 1803.3 104.85 1801.7 104.1
L 1801.5 101.95
Q 1801.5 101.85 1802.2 94.5
L 1801.6 94.45 1801.25 94.45 1800.95 99.25 1799 99.15
Q 1789.7 102.8 1784.25 105.7 1776.4 109.9 1771.3 115.25 1767.05 120.7 1764.85 127.95 1763.05 133.95 1762.45 142.1
L 1759.4 190.95
Q 1758.85 202.35 1757.35 224.75
L 1756.25 243
Q 1755.2 259.55 1755 262.35 1754.25 273.35 1753.35 281.75 1752.25 291.5 1751.75 304.3 1750.6 328.15 1749.2 346.45 1746.95 376.15 1745.85 394.45
L 1744.8 413.85
Q 1744.3 422.65 1745.2 427.7 1747.35 434.65 1753.15 440.1 1756.6 442.1 1760.85 443.3 1764.2 444.15 1769.05 444.75
L 1835.2 449.55
Q 1851.9 450.8 1858.5 451.05 1871.65 451.45 1881.9 450.3 1888.2 449 1892.8 446.1 1896.8 443.6 1901.6 438.45 1905.9 432 1906.75 427 1907.65 421.85 1908.7 397.8
L 1909.55 379.1
Q 1911.15 344.5 1912.95 319.95 1915.25 288 1918.55 261.05 1921.05 240.8 1923.85 213.35
L 1926.6 188.1
Q 1928.75 168.3 1928.65 158.15 1928.45 141.65 1923.65 128.8 1920.8 122.35 1918 118.4 1914.3 113.2 1909.5 110.3 1905.05 107.75 1902.7 105.5 1902.5642578125 105.0310546875 1902.45 104.65 1902.125390625 103.451953125 1902.05 103 1901.95 102.35 1901.9 100.35
L 1902.05 98 Z" stroke="none" fill="#706C84"></path>

<path d="M 1893 53.35
Q 1889.5 51.35 1885.2 50.8
L 1827.45 47.7
Q 1824.8 47.55 1824 47.55 1823.15 47.55 1821.05 47.7
L 1818 50.4
Q 1815.65 58.1 1814.15 70.85 1812.9 81.1 1810.75 87.3 1809.55 90.6 1809.15 92.35 1808.75 94 1807.7 100.95
L 1885.1 105.25
Q 1889.85 105.45 1893.2 105.4
L 1895.2 103.55
Q 1895.7 99.7 1895.1 94.05 1893.35 80.55 1893.65 66.35
L 1893.8 60.15
Q 1893.9 57.55 1893.85 56.65 1893.7 55.05 1893 53.35 Z" stroke="none" fill="#E21F2D"></path>

<path d="M 1893.35 45.7
Q 1893.25 44.9 1893.2 44.1 1892.55 39.15 1886.15 33.1 1879.85 28 1879.85 27.65 1834.6 13.6 1788.5 24.85 1786.4 31.15 1788.8 37.4
L 1821.4 40.05 1822.2 43 1893.35 45.7 Z" stroke="none" fill="#DF202E"></path>
</g>
</g>
</g>
</g>

<g transform="matrix( 0.3621063232421875, 0, 0, 0.3621063232421875, -594.2,0.1)" id="Layer_2">
<g>
<g>
<g>
<path d="M 1916.95 345.7
Q 1916.55 345.4 1915.75 345.4
L 1911.3 345.3
Q 1908.9 345.2 1907.55 345.65 1906.05 346.2 1905 347.45 1904.45 348.2 1903.75 349.9 1903.15 351.15 1902.9 352.2 1902.65 353.35 1902.65 355.75
L 1902.65 364.95
Q 1902.65 366.25 1903.15 366.75 1903.65 367.2 1904.8 367.2
L 1909.45 367.3
Q 1911.45 367.3 1912.15 367.1 1912.7 366.95 1914.3 366.2 1915.65 365.55 1916.5 365.5 1917.55 365.45 1919.15 366 1926.65 368.8 1931.5 375.1 1936 380.95 1936 387.2 1936 389.65 1934.75 394.85 1934.1 397.55 1933.45 399 1932.5 401.2 1931.05 402.45 1928.1 405 1923 404.25 1921.35 404 1918.9 403.3 1915.2 402.2 1914.8 402.1 1909.75 400.85 1904.9 401.35
L 1904.9 408.15
Q 1918.55 413.35 1933 411.15 1935.355078125 410.7916015625 1936.95 410.05
L 1936.95 366.25
Q 1936.85078125 366.1609375 1936.75 366.05 1933.15 362.15 1928.15 360 1923.1 357.85 1917.8 357.9 1918.1 352.9 1917.6 347.3 1917.5 346.05 1916.95 345.7
M 1777 435.95
L 1770.05 435.85 1770.05 443.75
Q 1764.65 443.45 1753.85 443.35 1749.7 443.3 1747.65 443.4 1744.2 443.55 1741.5 444.1 1740.2 444.4 1739.7 444.9 1739.45 445.15 1739 446.25 1735.9 455.35 1734.75 464.4 1734.15 468.95 1733.9 474.65 1733.9 477.4 1735 478.25 1735.45 478.6 1736.2 478.75 1736.65 478.85 1737.55 479.05 1738.45 479.35 1740.1 480.2 1741.45 480.75 1744.5 480.75 1750.85 480.75 1754.35 480.55 1759.8 480.25 1764.1 479.35 1765.35 479.05 1765.75 478.55 1766.2 478 1766.2 476.65
L 1766.15 467.85 1756.2 467.7
Q 1754.6 467.7 1753.9 467.3 1752.9 466.75 1752.35 465.3 1751.95 464.05 1752.05 462.35 1752.1 461.85 1752.4 459.4 1752.7 456.8 1752.6 450.5
L 1776.9 451.2
Q 1777.05 442.7 1777 435.95
M 1868.35 441.2
L 1863.1 441.1
Q 1861.9 441.1 1861.4 441.35 1860.3 441.8 1859.8 443.75 1859.25 445.75 1859.15 448.4 1859.1 449.8 1859.2 453.15 1859.2 454.25 1859.55 454.75 1859.85 455.15 1860.65 455.55 1865.35 457.95 1871.85 458.5 1876 458.85 1883.7 458.5
L 1891.75 458.1
Q 1891.05 458.15 1891.05 459.4
L 1891.1 469.45
Q 1887.75 470.55 1884.35 470.4
L 1884.35 477.65
Q 1901.95 478.75 1920.1 478.3 1920.65 469.3 1918.1 460.95 1917 457.1 1915.25 455.2 1913.8 453.55 1911.25 452.45 1908.65 451.35 1905.2 450.9 1903 450.65 1898.9 450.55 1889.85 450.25 1884.95 450.9 1882.8 451.2 1881.75 451.35 1879.85 451.6 1878.55 451.6 1876.1 451.55 1873.15 450.7 1871.15 450.1 1867.95 448.8 1868.8 445 1868.35 441.2
M 1875.55 263.35
L 1875.6 256.5 1867.5 256.35
Q 1866 258.8 1862.85 261.45 1861.1 263 1857.45 265.9 1855.45 267.7 1853.2 270.2 1851.9 271.6 1851.55 272.5 1851.05 273.65 1851.2 275.75 1851.4 278.25 1851.25 279.1 1852.25 278.9 1854.75 279.15 1857 279.3 1858.15 278.85 1859.15 278.5 1860.95 276.7 1868.05 269.55 1875.55 263.35
M 1763.45 376.75
Q 1764.4 379.7 1767 381.55 1769.35 383.15 1774.65 384.15 1800.1 389.3 1826.15 386.6 1833.95 385.75 1838.85 384.4 1840.4 383.95 1845.2 382.35 1849.2 381.05 1851.65 380.5 1853.7 380 1857.75 379.25 1861.65 378.35 1866.05 376.25 1874.75 372.25 1881.9 365.85 1889 359.45 1893.75 351.55 1896.05 347.7 1896.85 344.45 1897.6 341.65 1897.5 337.1 1897.3 330.5 1897.35 329.7 1893 328.6 1889.15 330.35 1887.85 330.95 1886.2 332.15 1883.55 334 1883.3 334.15 1881.1 335.6 1877.8 337 1873.95 338.55 1872 339.35 1867.8 341.15 1861 344.65 1853 348.9 1850.15 350.25 1841.05 354.5 1829.05 358.25 1821.5 360.55 1807.05 364.2 1792.8 367.85 1785.45 369.2 1773.35 371.3 1763.45 371 1762.45 373.75 1763.45 376.75
M 1805.5 380.95
Q 1805.65 380.8 1805.8 380.7 1807.3 379.7 1809.75 378.6
L 1814.45 376.25
Q 1816.35 375.25 1816.6 374.3 1816.7 374 1816.7 373.4
L 1816.7 369.75
Q 1829.5 366.4 1838 363.65 1849.55 359.9 1858.65 355.5 1868.55 350.4 1873.5 347.85 1882.4 343.4 1889.05 341.55 1883.15 353.15 1873.05 361.45 1862.4 370.3 1849.7 373.25 1845.85 374.05 1843.9 374.55 1842.3 374.95 1839.85 375.75 1837.15 376.7 1835.8 377.1 1821.4 381.55 1805.5 380.95
M 1727.15 365.2
Q 1726.35 367.4 1726.2 368.1 1725.8 369.7 1725.8 373
L 1725.7 386.7
Q 1725.7 389.4 1725.9 390.7 1726.2 392.9 1727.25 394.35 1728.5 396.15 1732 397.9 1734.35 399.1 1736.05 399.5 1737.45 399.85 1739.25 399.95 1740.1 400 1742.5 400
L 1749.95 399.95
Q 1751.75 399.95 1752.65 399.5
L 1752.65 392.75
Q 1751.35 392.6 1747.75 392.75 1744.6 392.85 1742.85 392.45 1740.95 392 1737.45 390.1 1735.85 389.3 1734.95 388.45 1733.45 387 1732.95 384.4 1732.6 382.65 1732.65 379.6 1732.75 376.4 1733.05 375.25 1733.25 374.5 1734.15 372.05 1735.6 368.4 1736.95 366.65 1738.45 364.7 1742.25 362.15
L 1742.3 367.75
Q 1742.3 368.55 1742.65 368.85 1742.95 369.1 1743.5 369.1
L 1749.35 369.15
Q 1751.3 369.15 1752 368.9 1753.5 368.35 1753.8 367.1
L 1755.95 366.85
Q 1756.15 362.5 1756.05 360.1 1755.85 356.35 1755 353.45 1754.65 351.95 1753.75 351.4 1753.1 351 1751.8 351
L 1745.4 350.95
Q 1744.55 350.95 1744.25 351.15 1743.9 351.35 1743.5 352.05
L 1742.5 353.85
Q 1738.15 353.65 1735.9 354.7 1734.85 355.3 1733.35 356.5 1731.2 358.2 1730.2 359.4 1728.7 361.2 1727.15 365.2
M 1781.9 279.5
Q 1781.45 280.2 1780.35 281.4 1779.6 282.2 1779.45 282.85 1779.35 283.3 1779.35 284.15
L 1779.35 289.65 1785.05 289.8
Q 1786.25 289.8 1786.75 289.5 1787.05 289.25 1787.4 288.75 1787.8 288.05 1787.9 287.9
L 1788.95 286.7
Q 1789.05 286.6 1790.3 284.35 1791.3 282.6 1793.2 280.65 1795.55 278.45 1796.7 277.35 1798.95 275.25 1803.8 269.75 1805.05 268.3 1805.4 267.45 1805.95 266.2 1805.8 263.95 1805.6 261.2 1805.75 260.3
L 1798.7 260.15
Q 1798.45 261 1797.65 261.8 1797.15 262.3 1796.1 263.2 1795.1 264.2 1793.45 266.5 1792.3 267.85 1788.1 271.75 1784.65 274.9 1783.2 277.35 1782.75 278.05 1781.9 279.5 Z" stroke="none" fill="#000000"></path>

<path d="M 1805.8 380.7
Q 1805.65 380.8 1805.5 380.95 1821.4 381.55 1835.8 377.1 1837.15 376.7 1839.85 375.75 1842.3 374.95 1843.9 374.55 1845.85 374.05 1849.7 373.25 1862.4 370.3 1873.05 361.45 1883.15 353.15 1889.05 341.55 1882.4 343.4 1873.5 347.85 1868.55 350.4 1858.65 355.5 1849.55 359.9 1838 363.65 1829.5 366.4 1816.7 369.75
L 1816.7 373.4
Q 1816.7 374 1816.6 374.3 1816.35 375.25 1814.45 376.25
L 1809.75 378.6
Q 1807.3 379.7 1805.8 380.7 Z" stroke="none" fill="#FFFFFF"></path>
</g>
</g>
</g>
</g>

<g transform="matrix( 0.3621063232421875, 0, 0, 0.3621063232421875, -594.2,0.1)" id="Layer_5"></g>

<g transform="matrix( 0.3621063232421875, 0, 0, 0.3621063232421875, -594.2,0.1)" id="Layer_6"></g>

<g transform="matrix( 0.3621063232421875, 0, 0, 0.3621063232421875, -594.2,0.1)" id="MergedLayer_1"></g>

<g transform="matrix( 0.3621063232421875, 0, 0, 0.3621063232421875, -594.2,0.1)" id="Layer_2"></g>
</g>
</svg>
