
<svg viewBox="0 0 272 172" height="172px" width="272px" y="0px" x="0px" preserveAspectRatio="none" xmlns:xlink="http://www.w3.org/1999/xlink" version="1.1" xmlns="http://www.w3.org/2000/svg">
<defs></defs>

<g id="Layer_2">
<g>
<g>
<g>
<path d="M 63.3 144.8
Q 63.3 146.5 63.9 148 63.95 150.4 64.5 152.75 64.680859375 153.49375 64.75 154.25 66.970703125 154.2650390625 69.15 154.25 68.34921875 153.147265625 67.6 151.95 67.3 150.95 66.75 149.95 65.85 148.4 64.4 147.35 64.35 147.2 64.35 147.05 64.3 146.75 64.3 146.4 63.7 145.5 63.3 144.55 63.3 144.7 63.3 144.8
M 169.85 152.9
Q 173.1654296875 151.3478515625 176.35 149.5 182.95 145.7 188.4 140.35 174.35 146.75 158.7 148.6 154.289453125 149.13046875 149.9 149.35 130.701171875 150.4916015625 111.9 146.3 106.35 145.05 101.3 142.5 98.75 141.2 96.3 140.25 96.05 139.95 95.9 139.65 95.8 139.55 95.7 139.45 95.15 139.25 94.45 139 94.4 138.9 94.35 138.8 94.25 138.7 94.15 138.6 93.15 138.2 92.05 138 91.8697265625 137.8466796875 91.65 137.7 90.842578125 137.0328125 89.9 136.5 89.65 136.4 89.6 136.55 89.8318359375 137.1333984375 90.05 137.7 94.638671875 148.0130859375 105.35 152.8 106.453515625 153.2875 107.55 153.75 118.8375 153.45 130.15 153.45 140.0443359375 153.419921875 149.9 153.25 159.894921875 153.1462890625 169.85 152.9
M 210.8 137.7
Q 210.294140625 139.575 209.85 141.45 209.05 144.7 207.35 147.55 207.35 147.7 207.35 147.85 207.2 148.3 207.25 148.8 207.25 148.95 207.25 149.1 206.9 149.65 206.55 150.25 206.1873046875 150.9197265625 205.9 151.6 208.301953125 151.5111328125 210.65 151.4 210.74609375 147.1474609375 211.1 142.9 211.2486328125 140.275390625 210.85 137.7 210.85390625 137.675 210.85 137.65 210.8427734375 137.675 210.8 137.7
M 103.25 122.55
Q 104.75 122.15 106.05 122.8 112.05 124 115.55 119.9 115.75 119.7 115.9 119.5 115.95 119.4 115.95 119.3 115.95 119.05 116 118.75 116.05 118.4 116.2 118.1 116.25 118.05 116.25 117.95 116.25 117.85 116.25 117.75 116.25 117.65 116.2 117.55 116.1 117.35 115.95 117.15 115.95 117.05 115.95 116.95 115.95 116.85 115.95 116.75 115.95 116.55 115.95 116.4 115.95 116.3 115.95 116.2 115.95 116.1 115.9 116 115.85 115.9 115.8 115.8 115.75 115.7 115.7 115.6 115.6 115.5 115.45 115.4 115.15 115.15 114.95 114.8 114.8 114.6 114.7 114.4 114.65 114.3 114.5 114.25 114.2 114 114 113.65 113.85 113.45 113.75 113.25 113.65 113.15 113.55 113.1 113.35 113.05 113.15 112.95 113.05 112.85 113 112.75 112.9 112.65 112.9 112.55 108.7 109.85 103.65 110.3 98.45 110.75 94.5 114.2 93.05 115.45 92.75 117.25 94.6 120.35 98.05 121.85 101.05 123.1 103.25 122.55
M 164.85 109.2
Q 164.46328125 109.189453125 164.05 109.15 163.737890625 109.197265625 163.4 109.25 159.488671875 109.970703125 156.15 112.15 154.8 113 153.7 114.2 153.55 114.7 153.55 115.2 153.6 115.7 153.6 116.2 153.8 116.45 154 116.75 154.2 116.95 154.35 117.15 154.75 118.45 155.85 119.4 156.5 119.95 157.25 120.5 157.4 120.55 157.5 120.65 165.2 121.95 172.7 119.6 173.75 118.85 174.5 117.75 174.65 117.5 174.9 117.25 174.9 117.05 175 116.85 175.05 116.65 175.15 116.45 175.1 116.05 175.05 115.65 175 115.3 174.7 115.05 174.7 114.95 174.7 114.85 174.7 114.75 174.65 114.65 174.65 114.55 174.6 114.5 173.9 113.5 172.85 112.75 172.55 112.55 172.45 112.2 172.25 112.1 172.05 112.05 171.85 112 171.6 111.9 169.3 109.85 166.15 109.4 165.51328125 109.308984375 164.85 109.2
M 66.55 117.25
Q 66.6 117.35 66.6 117.4 66.6 117.85 66.8 118.2 67.05 121.35 67.4 124.5 67.55 126.2 67.7 127.85 69.35 127.85 71 128.2 71.1 128.2 71.25 128.25 73.8 127.95 76.4 127.6 76.3 126.05 74.55 124.5 73.3 123.35 72.5 121.85 69.9 118.8 66.95 116.1 66.7 116.65 66.55 117.25
M 79 96.45
Q 78.7 95.55 78.35 94.7 78.2 98.65 78.25 102.6 78.25 105.55 78.4 108.45 79.479296875 108.159375 80.55 107.85 82.05859375 107.3970703125 83.55 106.9 81.9404296875 103.7123046875 80.55 100.35 79.7375 98.44140625 79 96.45
M 196.7 100.8
Q 196.7 100.65 196.65 100.55 195.6 101.95 194.65 103.45 193.65 105.05 192.4 106.5 192.1 106.65 191.85 106.85 191.75 106.95 191.7 107.1 194.05 108.15 197 109.4 197 109.2 197 109.05 197.15 107.3 196.7 105.7 196.7 104.8 196.7 103.95 196.7 102.35 196.7 100.8
M 204.55 120.1
Q 204.55 118.9 204.55 117.65 203.45 118.1 202.15 118.3 201.4 118.4 200.6 118.55 200.45 118.7 200.3 118.85 200.15 119 200 119.1 199.9 119.15 199.8 119.15 198.65 119.5 197.55 120 197.45 120.15 197.3 120.25 196.85 120.65 196.4 121.15 196.3 121.2 196.2 121.2 195.8 121.35 195.4 121.45 195.25 121.6 195.05 121.7 194.35 122 194.15 122.65 194.15 122.75 194.1 122.8 193.4 123.15 192.65 123.4 198.45 124.35 204.55 125.25 204.55 122.7 204.55 120.1 Z" stroke="none" fill="#EE9D33"></path>

<path d="M 194.45 135.85
Q 193.5 135.65 192.5 135.55
L 192.5 135.6
Q 192.4 135.65 192.3 135.75 192.2 135.8 192.15 135.9 192.1 136 192 136.1 190.9083984375 136.9490234375 189.7 137.7 189.437109375 137.877734375 189.15 138.05 188.25 138.55 187.25 138.9 187.2 139 187.15 139.1 187.05 139.2 186.95 139.3 177.45 144.1 166.9 146.2 164 146.75 161.15 147.2 155.5212890625 148.0916015625 149.9 148.5 134.398046875 149.6583984375 118.95 147.2 108.25 145.5 99.2 139.7 98.75 139.65 98.3 139.55 98.2 139.5 98.15 139.45 98.1 139.35 98 139.25 97.9 139.05 97.75 138.85 97.65 138.75 97.55 138.65 97.25 138.6 96.9 138.5 96.75 138.45 96.55 138.4 96.45 138.3 96.35 138.2 95.986328125 137.896875 95.55 137.7 94.944921875 137.4095703125 94.2 137.35 94.05 137.35 93.9 137.3 92.5 136.3 91 135.6 90.25 135.25 89.7 134.65 88.5 134.65 87.25 134.6 87.2 134.65 87.15 134.75 87.15 134.8 87.15 134.9 87.15 135 87.15 135.1 87.15 135.3 87.15 135.5 87.15 135.6 87.15 135.7 87.25 135.8 87.3 135.9 87.35 136 87.4 136.1 87.4 136.2 87.4 136.3 87.45 136.5 87.55 136.7 87.6 136.8 87.65 136.9 87.65 137 87.65 137.1 87.65 137.2 87.65 137.3 87.65 137.5 87.7 137.65
L 87.7 137.7
Q 87.7 137.775 87.7 137.85 89.15 140.05 90.55 142.25 95.335546875 150.0373046875 103.65 153.85 104.5890625 153.82578125 105.5 153.8 106.5333984375 153.7705078125 107.55 153.75 106.453515625 153.2875 105.35 152.8 94.638671875 148.0130859375 90.05 137.7 89.8318359375 137.1333984375 89.6 136.55 89.65 136.4 89.9 136.5 90.842578125 137.0328125 91.65 137.7 91.8697265625 137.8466796875 92.05 138 93.15 138.2 94.15 138.6 94.25 138.7 94.35 138.8 94.4 138.9 94.45 139 95.15 139.25 95.7 139.45 95.8 139.55 95.9 139.65 96.05 139.95 96.3 140.25 98.75 141.2 101.3 142.5 106.35 145.05 111.9 146.3 130.701171875 150.4916015625 149.9 149.35 154.289453125 149.13046875 158.7 148.6 174.35 146.75 188.4 140.35 182.95 145.7 176.35 149.5 173.1654296875 151.3478515625 169.85 152.9 171.8169921875 152.8501953125 173.75 152.8 174.9236328125 152.2177734375 176.05 151.6 184.45 147.05 191.2 140.3 191.25 140.2 191.3 140.1 191.35 140 191.4 139.9 191.45 139.8 191.45 139.7 191.9 139.25 192.25 138.8 192.6 138.4 193.1 138.1 193.2 138.05 193.3 137.95 193.35 137.85 193.35 137.75 193.3625 137.725 193.35 137.7 193.4125 137.625 193.45 137.55 193.45 137.45 193.5 137.35 193.8 137.05 194.1 136.8 194.4 136.55 194.45 136.15 194.5 136.05 194.5 135.95 194.5 135.85 194.45 135.85
M 116.9 114.1
Q 116.85 114 116.8 113.9 116.75 113.8 116.7 113.7 116.55 113.6 116.45 113.5 116.35 113.4 116.25 113.3 116.05 113.1 115.9 112.9 115.85 112.8 115.75 112.7 115.7 112.6 115.65 112.5 115.5 112.45 115.3 112.4 115.2 112.35 115.15 112.3 115.05 112.25 115 112.2 114.9 112.1 114.85 112 114.75 111.9 114.65 111.8 113.45 111.05 112.15 110.55 108.05 109.1 103.65 109.3 97.55 109.55 92.75 113.4 91.4 114.5 90.8 116.2 90.8 116.3 90.8 116.4 90.8 116.65 90.8 116.95 90.8 117.05 90.8 117.15 90.8 117.25 90.8 117.35 90.8 117.55 90.8 117.75 90.8 117.85 90.8 117.95 90.85 118.05 90.85 118.15 90.95 118.25 91 118.35 91.1 118.45 91.2 118.55 91.35 118.65 91.45 118.75 94.1 122.5 98.75 123.45 107.5 125.15 115.85 122.45 116.2 122.1 116.6 121.75 117 121.4 117.25 121 117.5 120.65 117.75 120.35 117.8 120.25 117.85 120.15 117.9 120.1 117.95 120 117.95 119.9 117.95 119.8 117.95 119.7 117.95 119.6 117.95 119.5 117.95 119.4 117.95 119.3 118 119.2 118.05 119.1 118.1 119 118.15 118.9 118.2 118.8 118.2 118.7 118.2 118.6 118.2 118.3 118.2 118 118.2 117.9 118.2 117.8 118.2 117.7 118.2 117.6 118.2 117.4 118.2 117.25 118.2 117.15 118.2 117.05 118.2 116.95 118.2 116.85 118.15 116.75 118.1 116.65 118.05 116.55 118 116.4 117.95 116.35 117.95 116.25 117.95 116.15 117.95 116.05 117.95 115.95 117.95 115.85 117.9 115.65 117.85 115.45 117.85 115.35 117.8 115.25 117.75 115.15 117.75 115.05 117.65 114.95 117.6 114.85 117.5 114.75 117.35 114.65 117.25 114.55 117.15 114.5 117.05 114.4 116.95 114.3 116.9 114.2 116.9 114.1
M 106.05 122.8
Q 104.75 122.15 103.25 122.55 101.05 123.1 98.05 121.85 94.6 120.35 92.75 117.25 93.05 115.45 94.5 114.2 98.45 110.75 103.65 110.3 108.7 109.85 112.9 112.55 112.9 112.65 113 112.75 113.05 112.85 113.15 112.95 113.35 113.05 113.55 113.1 113.65 113.15 113.75 113.25 113.85 113.45 114 113.65 114.2 114 114.5 114.25 114.65 114.3 114.7 114.4 114.8 114.6 114.95 114.8 115.15 115.15 115.45 115.4 115.6 115.5 115.7 115.6 115.75 115.7 115.8 115.8 115.85 115.9 115.9 116 115.95 116.1 115.95 116.2 115.95 116.3 115.95 116.4 115.95 116.55 115.95 116.75 115.95 116.85 115.95 116.95 115.95 117.05 115.95 117.15 116.1 117.35 116.2 117.55 116.25 117.65 116.25 117.75 116.25 117.85 116.25 117.95 116.25 118.05 116.2 118.1 116.05 118.4 116 118.75 115.95 119.05 115.95 119.3 115.95 119.4 115.9 119.5 115.75 119.7 115.55 119.9 112.05 124 106.05 122.8
M 173.6 111.25
Q 173.5 111.25 173.45 111.2 172.4 110.05 170.85 109.45 166.8 107.9 162.3 108.45 158 109.05 154.3 111.4 153 112.2 151.95 113.3 151.9 113.4 151.85 113.5 151.8 113.6 151.75 113.7 151.7 113.8 151.6 113.9 151.6 114.3 151.6 114.65 151.6 115.15 151.6 115.65 151.6 116.15 151.6 116.65 151.6 116.75 151.6 116.85 151.8 117.15 152.05 117.4 152.1 117.5 152.2 117.6 152.3 117.7 152.4 117.8 153.6 120.7 156.7 121.4 165.6 123.35 174.6 120.3 175.55 119.6 176.25 118.7 176.85 117.95 177.1 117.15 177.15 117.05 177.2 116.95 177.2 116.85 177.2 116.75 177.2 116.5 177.2 116.2 177.2 116 177.2 115.8 177.2 115.7 177.2 115.6 177.1 115.5 177.05 115.4 177 115.3 176.9 115.2 176.9 115 176.9 114.8 176.9 114.7 176.85 114.65 176.8 114.5 176.65 114.4 176.65 114.2 176.65 114 176.6 113.9 176.6 113.8 176.55 113.7 176.5 113.6 176.1 113.3 175.75 112.9 175.1 112.25 174.45 111.65 174.35 111.55 174.3 111.45 174.1 111.4 173.9 111.35 173.75 111.3 173.6 111.25
M 164.05 109.15
Q 164.46328125 109.189453125 164.85 109.2 165.51328125 109.308984375 166.15 109.4 169.3 109.85 171.6 111.9 171.85 112 172.05 112.05 172.25 112.1 172.45 112.2 172.55 112.55 172.85 112.75 173.9 113.5 174.6 114.5 174.65 114.55 174.65 114.65 174.7 114.75 174.7 114.85 174.7 114.95 174.7 115.05 175 115.3 175.05 115.65 175.1 116.05 175.15 116.45 175.05 116.65 175 116.85 174.9 117.05 174.9 117.25 174.65 117.5 174.5 117.75 173.75 118.85 172.7 119.6 165.2 121.95 157.5 120.65 157.4 120.55 157.25 120.5 156.5 119.95 155.85 119.4 154.75 118.45 154.35 117.15 154.2 116.95 154 116.75 153.8 116.45 153.6 116.2 153.6 115.7 153.55 115.2 153.55 114.7 153.7 114.2 154.8 113 156.15 112.15 159.488671875 109.970703125 163.4 109.25 163.737890625 109.197265625 164.05 109.15
M 180.55 79.85
Q 180.25 79.6 180 79.25 179.9 79.1 179.7 78.95 170.1 80 161 82.75 160.95 82.45 160.8 82.25 160.75 82.05 160.55 81.9 160.55 81.75 160.55 81.6 160.35 81.15 160.2 80.65 160.15 80.55 160.15 80.4 159.95 80.05 159.8 79.75 159.75 79.6 159.75 79.45 159.75 79.3 159.75 79.15 159.95 77.4 159.6 75.7 159.4 74.8 158.95 73.9 158.95 73.6 158.95 73.3 158.95 73.15 158.95 73 158.9 72.85 158.8 72.75 158.45 72.3 158.5 71.75 158.55 71.6 158.55 71.45 158.5 71.3 158.4 71.2 158.25 71 158.1 70.85 158.05 70.55 157.95 70.25 157.85 70.1 157.7 69.95 156.4 69.9 155.05 69.9 154.9 69.95 154.75 70.05 154.2 70.45 153.7 70.95 153.5 71.1 153.3 71.25 151.591015625 71.9580078125 149.9 72.7 144.6642578125 75.0412109375 139.6 77.8 139.05 77.85 138.55 77.8 138.5 77.8 138.45 77.7 138.15 76.7 137.25 76.15 137.05 76 136.9 75.85 136.85 75.7 136.8 75.55 136.75 75.4 136.7 75.25 136.3 74.95 135.9 74.6 135.75 74.5 135.6 74.35 134.9 73.15 134.35 71.9 134.1 71.2 133.55 70.65 133.55 70.5 133.5 70.35 132.95 69.05 132 67.9 131.55 67.35 131.4 66.65 131.1 66.55 130.8 66.4 130.75 66.4 130.65 66.35 130.55 66.25 130.5 66.15 130.35 66 130.25 65.85 129.15 65.8 128 65.75 125.5 67.4 123.3 69.8 118.5 75.05 114.6 80.7 114.1 80.3 113.5 79.95 107.35 76.25 101.7 71.65 101.15 71.5 100.6 71.3 100.4 71.25 100.25 71.15 99.2 71.1 98.1 71.15 98 71.15 97.9 71.25 97.95 71.8 97.65 72.2 97.55 72.35 97.5 72.5 97.5 72.8 97.5 73.1 97.25 77.25 97.2 81.4 97.1 86.6 97.1 91.85 91.85 91.5 86.8 89.85 83.539453125 88.8080078125 80.55 88.8 79.0927734375 88.804296875 77.7 89.05 77.15 89 76.65 89 76.65 89.15 76.65 89.3 76.4 89.35 76.2 89.4 76.4 89.8 76.55 90.25 76.35 93 76.35 95.8 76.35 102.35 76.35 108.9 74.4 109.3 72.45 109.6 67.4 110.35 64.3 112.65 64.75 113.6 65.35 114.4 65.05 115.25 64.8 116.15 64.35 117.55 64.85 118.85 64.95 121.25 65.25 123.6 65.6 125.75 65.65 127.95 65.25 128 64.85 128.05 62.6 128.7 60.25 129.45 60.15 129.5 60 129.55 59.95 129.6 59.95 129.7 59.25 129.75 58.6 129.85 59.2 129.85 59.85 129.9 59.8 129.9 59.75 129.95 59.65 130.05 59.6 130.15 59.6 130.25 59.6 130.35 59.6 130.45 59.6 130.55 59.6 130.65 59.6 130.75 59.6 130.8 59.6 130.85 59.55 130.85 59.45 130.9 59.4 130.9 59.4 131.05 59.4 131.2 59.4 131.35 59.4 131.85 59.4 132.3 59.4 132.45 59.4 132.6 59.9 132.95 59.85 133.5 59.8 133.65 59.8 133.85 60.05 134.15 60.3 134.45 60.45 134.6 60.55 134.75 60.6 134.9 60.6 135.05 60.6 135.6 60.9 136 60.872265625 136.8578125 60.8 137.7 60.7947265625 138.380078125 60.75 139.05 60.65 141.25 61.3 143.25 61.5 144.85 61.45 146.45 61.4 147.6 61.95 148.65 62 150.65 62.5 152.6 62.7337890625 153.408984375 62.85 154.2 63.815234375 154.2447265625 64.75 154.25 64.680859375 153.49375 64.5 152.75 63.95 150.4 63.9 148 63.3 146.5 63.3 144.8 63.3 144.7 63.3 144.55 63.7 145.5 64.3 146.4 64.3 146.75 64.35 147.05 64.35 147.2 64.4 147.35 65.85 148.4 66.75 149.95 67.3 150.95 67.6 151.95 68.34921875 153.147265625 69.15 154.25 70.5484375 154.2748046875 71.9 154.25 70.7412109375 152.8615234375 69.65 151.35 69.65 151.2 69.6 151.05 69.6 150.9 69.55 150.7 68.45 149.7 67.8 148.3 67.35 147.3 66.45 146.75 66.4 146.4 66.4 146.1 66.35 145.95 66.35 145.8 65.25 143.9 64.65 141.8 64.05 139.85 63.1 138.15 63.1 137.9134765625 63.1 137.7 63.1 137.597265625 63.1 137.5 63.1 136.75 63.1 136 63.1 135.8 63.1 135.65 63.05 135.5 63 135.35 62.95 135.15 62.85 135 62.85 134.85 62.85 134.7 62.75 134.6 62.7 134.45 62.65 134.35 62.6 134.25 62.6 134 62.6 133.75 62.6 132.9 62.6 132 62.6 131.9 62.6 131.75
L 62.6 131.65
Q 62.2 131.6 61.85 131.6 61.85 131.5 61.85 131.4 61.85 131.2 61.8 131 61.8 130.8 61.85 130.6 61.85 130.5 61.9 130.4 62.5 130.1 63.1 129.9 67.55 129.85 72.4 129.5 76.55 129.15 79.05 127.5 78 125.25 76.45 123.2 72.5 118.2 67.75 114.1 67.9 113.6 67.85 113.1
L 67.85 113
Q 67.35 112.9 66.85 112.9 66.8 112.8 66.7 112.7 66.55 112.6 66.45 112.45 73.9017578125 111.1900390625 80.55 109.05 83.1357421875 108.2521484375 85.6 107.3 85.6 107.15 85.6 107 85.6 106.55 85.6 106.1 85.55 105.9 85.5 105.75 83.65 102.9 82.4 99.7 81.446484375 97.147265625 80.55 94.55 79.9888671875 92.9666015625 79.45 91.35 79.2 91.05 78.95 90.7 78.85 90.55 78.75 90.4 78.7 90.1 78.6 89.8
L 78.6 89.75
Q 78.6 89.65 78.6 89.55 79.5765625 89.80703125 80.55 90.05 89.99375 92.3234375 99.15 92.55 99.15 92.25 99.15 91.95 99.15 87.8 99.1 83.65 99.05 77.95 99.85 72.6 100.6 73.1 101.35 73.6 103.5 75.1 105.7 76.5 106.2 77.15 106.85 77.65 110.05 79.8 113.25 81.8 115.05 81.65 116.85 81.5 118.1 79.25 119.65 77.2 123.65 71.9 128.5 67.35 128.95 67.3 129.35 67.35 129.4 67.35 129.45 67.45 129.5 67.65 129.55 67.75 130.1 68.95 130.95 69.95 131.2 70.25 131.4 70.55 131.45 70.7 131.45 70.85 131.5 71 131.5 71.15 132.45 72.25 132.9 73.6 133.15 74.25 133.45 74.85 134.15 75.4 134.7 76.15 134.75 76.25 134.75 76.4 135.75 77.15 136.35 78.25 136.4 78.4 136.4 78.55 136.75 78.65 137.1 78.75 137.2 78.8 137.25 78.85 137.3 78.95 137.35 79.05 137.5 79.2 137.65 79.35 138.85 79.4 140.1 79.4
L 140.1 79.35
Q 144.9904296875 76.5203125 149.9 74.2 152.9712890625 72.7814453125 156.05 71.55 156.55 71.9 156.5 72.5 156.5 72.65 156.5 72.8 156.6 72.95 156.7 73.1 156.8 73.25 156.9 73.4 156.9 73.85 156.9 74.35 156.9 74.5 156.9 74.65 157.05 74.95 157.1 75.25 157.25 76.2 157.55 77.1 157.6 77.25 157.7 77.4 157.7 77.85 157.7 78.35 157.7 79.1 157.7 79.85 157.7 80 157.7 80.15 157.9 80.65 158.05 81.1 158.1 81.25 158.1 81.4 158.2 81.55 158.3 81.7 158.6 82.65 159.05 83.55 159.15 83.7 159.25 83.85 168.85 82.05 178.2 80.15 178.8 80.45 178.65 81.1 178.6 81.25 178.6 81.4 179.3 84.2 179.15 87.25 179 90.15 179 93.05 186.05 93.35 193.15 93.6 194.15 94.15 195.3 94.35
L 195.3 94.4
Q 195.35 94.45 195.45 94.55 195.15 94.5 194.85 94.5 195.05 96.1 195.7 97.65 195.55 97.75 195.4 97.9 195.35 98.35 195.25 98.8 195.25 98.95 195.2 99.1 193.95 100.85 192.75 102.55 190.9 105.15 189.25 107.4 196.95 110.6 204.6 115.6 203.85 115.95 203.3 116.25 201.2 117.4 198.75 117.85 197.8 118.55 196.65 118.9 195.3 119.35 194.35 120.4 193.95 120.5 193.55 120.6 192.85 121.15 192.25 121.8 192.15 121.9 192.1 122.05 191.6 122.15 191.1 122.3 191.05 122.3 191 122.35 190.9 122.45 190.8 122.55 190.15 123.1 189.7 123.85 189.65 123.95 189.65 124.1 199.9 125.45 210.15 127.05 210.15 127.2 210.15 127.4 210.15 129.05 210.15 130.75 210.15 131.7 210.15 132.6 209.1439453125 135.11484375 208.5 137.7 208.36328125 138.198828125 208.25 138.7 207.25 142.9 205.45 146.75 205.3 148.55 204.35 150.1 203.9119140625 150.875 203.65 151.7 204.8046875 151.6732421875 205.9 151.6 206.1873046875 150.9197265625 206.55 150.25 206.9 149.65 207.25 149.1 207.25 148.95 207.25 148.8 207.2 148.3 207.35 147.85 207.35 147.7 207.35 147.55 209.05 144.7 209.85 141.45 210.294140625 139.575 210.8 137.7 210.8427734375 137.675 210.85 137.65 210.85390625 137.675 210.85 137.7 211.2486328125 140.275390625 211.1 142.9 210.74609375 147.1474609375 210.65 151.4 211.6361328125 151.34765625 212.6 151.3 212.6 151.1525390625 212.6 151 212.6 149.65 212.6 148.3 213.3 145.1 213.1 141.7 212.988671875 139.6974609375 212.85 137.7 212.6228515625 133.41328125 212.35 129.15 212.35 129.05 212.35 129 212.25 129 212.2 129 212.2 127.7 212.2 126.35 209.35 125.95 206.55 125.55 206.55 123.65 206.55 121.75 206.55 119.1 206.55 116.5 206.9 116.15 207.25 115.8 204.7 112.7 200.75 111 199.85 110.6 198.95 110.25 198.95 108.8 199 107.35 199.05 106.2 198.65 105.2 198.65 103.5 198.75 101.85 198.8 100.7 198.4 99.65 198.5 98.6 198.2 97.65 198.4 97.3 198.55 96.95 198.6 96.8 198.65 96.65 198.65 96.35 198.65 96.05 198.65 95.45 198.65 94.8 198.6 94.65 198.55 94.5 198.2 94.4 197.85 94.3 197.85 94.25 197.8 94.25 197.7 94.1 197.55 93.95 197.45 93.85 197.35 93.7 196.4 93.4 195.5 93.05 195.25 92.95 195 92.85 188 92.6 181.05 92.35 181.05 89.6 181.05 86.85 181.05 84.2 181.05 81.6 181 81.45 180.9 81.35 180.6 80.9 180.65 80.35 180.65 80.2 180.65 80.05 180.65 79.9 180.55 79.85
M 204.55 117.65
Q 204.55 118.9 204.55 120.1 204.55 122.7 204.55 125.25 198.45 124.35 192.65 123.4 193.4 123.15 194.1 122.8 194.15 122.75 194.15 122.65 194.35 122 195.05 121.7 195.25 121.6 195.4 121.45 195.8 121.35 196.2 121.2 196.3 121.2 196.4 121.15 196.85 120.65 197.3 120.25 197.45 120.15 197.55 120 198.65 119.5 199.8 119.15 199.9 119.15 200 119.1 200.15 119 200.3 118.85 200.45 118.7 200.6 118.55 201.4 118.4 202.15 118.3 203.45 118.1 204.55 117.65
M 196.65 100.55
Q 196.7 100.65 196.7 100.8 196.7 102.35 196.7 103.95 196.7 104.8 196.7 105.7 197.15 107.3 197 109.05 197 109.2 197 109.4 194.05 108.15 191.7 107.1 191.75 106.95 191.85 106.85 192.1 106.65 192.4 106.5 193.65 105.05 194.65 103.45 195.6 101.95 196.65 100.55
M 78.35 94.7
Q 78.7 95.55 79 96.45 79.7375 98.44140625 80.55 100.35 81.9404296875 103.7123046875 83.55 106.9 82.05859375 107.3970703125 80.55 107.85 79.479296875 108.159375 78.4 108.45 78.25 105.55 78.25 102.6 78.2 98.65 78.35 94.7
M 66.6 117.4
Q 66.6 117.35 66.55 117.25 66.7 116.65 66.95 116.1 69.9 118.8 72.5 121.85 73.3 123.35 74.55 124.5 76.3 126.05 76.4 127.6 73.8 127.95 71.25 128.25 71.1 128.2 71 128.2 69.35 127.85 67.7 127.85 67.55 126.2 67.4 124.5 67.05 121.35 66.8 118.2 66.6 117.85 66.6 117.4 Z" stroke="none" fill="#000000"></path>

<path d="M 178.6 81.4
Q 178.6 81.25 178.65 81.1 178.8 80.45 178.2 80.15 168.85 82.05 159.25 83.85 159.15 83.7 159.05 83.55 158.6 82.65 158.3 81.7 158.2 81.55 158.1 81.4 158.1 81.25 158.05 81.1 157.9 80.65 157.7 80.15 157.7 80 157.7 79.85 157.7 79.1 157.7 78.35 157.7 77.85 157.7 77.4 157.6 77.25 157.55 77.1 157.25 76.2 157.1 75.25 157.05 74.95 156.9 74.65 156.9 74.5 156.9 74.35 156.9 73.85 156.9 73.4 156.8 73.25 156.7 73.1 156.6 72.95 156.5 72.8 156.5 72.65 156.5 72.5 156.55 71.9 156.05 71.55 152.9712890625 72.7814453125 149.9 74.2 144.9904296875 76.5203125 140.1 79.35
L 140.1 79.4
Q 138.85 79.4 137.65 79.35 137.5 79.2 137.35 79.05 137.3 78.95 137.25 78.85 137.2 78.8 137.1 78.75 136.75 78.65 136.4 78.55 136.4 78.4 136.35 78.25 135.75 77.15 134.75 76.4 134.75 76.25 134.7 76.15 134.15 75.4 133.45 74.85 133.15 74.25 132.9 73.6 132.45 72.25 131.5 71.15 131.5 71 131.45 70.85 131.45 70.7 131.4 70.55 131.2 70.25 130.95 69.95 130.1 68.95 129.55 67.75 129.5 67.65 129.45 67.45 129.4 67.35 129.35 67.35 128.95 67.3 128.5 67.35 123.65 71.9 119.65 77.2 118.1 79.25 116.85 81.5 115.05 81.65 113.25 81.8 110.05 79.8 106.85 77.65 106.2 77.15 105.7 76.5 103.5 75.1 101.35 73.6 100.6 73.1 99.85 72.6 99.05 77.95 99.1 83.65 99.15 87.8 99.15 91.95 99.15 92.25 99.15 92.55 89.99375 92.3234375 80.55 90.05 79.5765625 89.80703125 78.6 89.55 78.6 89.65 78.6 89.75
L 78.6 89.8
Q 78.7 90.1 78.75 90.4 78.85 90.55 78.95 90.7 79.2 91.05 79.45 91.35 79.9888671875 92.9666015625 80.55 94.55 81.446484375 97.147265625 82.4 99.7 83.65 102.9 85.5 105.75 85.55 105.9 85.6 106.1 85.6 106.55 85.6 107 85.6 107.15 85.6 107.3 83.1357421875 108.2521484375 80.55 109.05 73.9017578125 111.1900390625 66.45 112.45 66.55 112.6 66.7 112.7 66.8 112.8 66.85 112.9 67.35 112.9 67.85 113
L 67.85 113.1
Q 67.9 113.6 67.75 114.1 72.5 118.2 76.45 123.2 78 125.25 79.05 127.5 76.55 129.15 72.4 129.5 67.55 129.85 63.1 129.9 62.5 130.1 61.9 130.4 61.85 130.5 61.85 130.6 61.8 130.8 61.8 131 61.85 131.2 61.85 131.4 61.85 131.5 61.85 131.6 62.2 131.6 62.6 131.65
L 62.6 131.75
Q 62.6 131.9 62.6 132 62.6 132.9 62.6 133.75 62.6 134 62.6 134.25 62.65 134.35 62.7 134.45 62.75 134.6 62.85 134.7 62.85 134.85 62.85 135 62.95 135.15 63 135.35 63.05 135.5 63.1 135.65 63.1 135.8 63.1 136 63.1 136.75 63.1 137.5 63.1 137.597265625 63.1 137.7 63.1 137.9134765625 63.1 138.15 64.05 139.85 64.65 141.8 65.25 143.9 66.35 145.8 66.35 145.95 66.4 146.1 66.4 146.4 66.45 146.75 67.35 147.3 67.8 148.3 68.45 149.7 69.55 150.7 69.6 150.9 69.6 151.05 69.65 151.2 69.65 151.35 70.7412109375 152.8615234375 71.9 154.25 76.2193359375 154.276953125 80.55 154.25 91.9857421875 154.16328125 103.65 153.85 95.335546875 150.0373046875 90.55 142.25 89.15 140.05 87.7 137.85 87.7 137.775 87.7 137.7
L 87.7 137.65
Q 87.65 137.5 87.65 137.3 87.65 137.2 87.65 137.1 87.65 137 87.65 136.9 87.6 136.8 87.55 136.7 87.45 136.5 87.4 136.3 87.4 136.2 87.4 136.1 87.35 136 87.3 135.9 87.25 135.8 87.15 135.7 87.15 135.6 87.15 135.5 87.15 135.3 87.15 135.1 87.15 135 87.15 134.9 87.15 134.8 87.15 134.75 87.2 134.65 87.25 134.6 88.5 134.65 89.7 134.65 90.25 135.25 91 135.6 92.5 136.3 93.9 137.3 94.05 137.35 94.2 137.35 94.944921875 137.4095703125 95.55 137.7 95.986328125 137.896875 96.35 138.2 96.45 138.3 96.55 138.4 96.75 138.45 96.9 138.5 97.25 138.6 97.55 138.65 97.65 138.75 97.75 138.85 97.9 139.05 98 139.25 98.1 139.35 98.15 139.45 98.2 139.5 98.3 139.55 98.75 139.65 99.2 139.7 108.25 145.5 118.95 147.2 134.398046875 149.6583984375 149.9 148.5 155.5212890625 148.0916015625 161.15 147.2 164 146.75 166.9 146.2 177.45 144.1 186.95 139.3 187.05 139.2 187.15 139.1 187.2 139 187.25 138.9 188.25 138.55 189.15 138.05 189.437109375 137.877734375 189.7 137.7 190.9083984375 136.9490234375 192 136.1 192.1 136 192.15 135.9 192.2 135.8 192.3 135.75 192.4 135.65 192.5 135.6
L 192.5 135.55
Q 193.5 135.65 194.45 135.85 194.5 135.85 194.5 135.95 194.5 136.05 194.45 136.15 194.4 136.55 194.1 136.8 193.8 137.05 193.5 137.35 193.45 137.45 193.45 137.55 193.4125 137.625 193.35 137.7 193.3625 137.725 193.35 137.75 193.35 137.85 193.3 137.95 193.2 138.05 193.1 138.1 192.6 138.4 192.25 138.8 191.9 139.25 191.45 139.7 191.45 139.8 191.4 139.9 191.35 140 191.3 140.1 191.25 140.2 191.2 140.3 184.45 147.05 176.05 151.6 174.9236328125 152.2177734375 173.75 152.8 188.773828125 152.383203125 203.65 151.7 203.9119140625 150.875 204.35 150.1 205.3 148.55 205.45 146.75 207.25 142.9 208.25 138.7 208.36328125 138.198828125 208.5 137.7 209.1439453125 135.11484375 210.15 132.6 210.15 131.7 210.15 130.75 210.15 129.05 210.15 127.4 210.15 127.2 210.15 127.05 199.9 125.45 189.65 124.1 189.65 123.95 189.7 123.85 190.15 123.1 190.8 122.55 190.9 122.45 191 122.35 191.05 122.3 191.1 122.3 191.6 122.15 192.1 122.05 192.15 121.9 192.25 121.8 192.85 121.15 193.55 120.6 193.95 120.5 194.35 120.4 195.3 119.35 196.65 118.9 197.8 118.55 198.75 117.85 201.2 117.4 203.3 116.25 203.85 115.95 204.6 115.6 196.95 110.6 189.25 107.4 190.9 105.15 192.75 102.55 193.95 100.85 195.2 99.1 195.25 98.95 195.25 98.8 195.35 98.35 195.4 97.9 195.55 97.75 195.7 97.65 195.05 96.1 194.85 94.5 195.15 94.5 195.45 94.55 195.35 94.45 195.3 94.4
L 195.3 94.35
Q 194.15 94.15 193.15 93.6 186.05 93.35 179 93.05 179 90.15 179.15 87.25 179.3 84.2 178.6 81.4
M 173.45 111.2
Q 173.5 111.25 173.6 111.25 173.75 111.3 173.9 111.35 174.1 111.4 174.3 111.45 174.35 111.55 174.45 111.65 175.1 112.25 175.75 112.9 176.1 113.3 176.5 113.6 176.55 113.7 176.6 113.8 176.6 113.9 176.65 114 176.65 114.2 176.65 114.4 176.8 114.5 176.85 114.65 176.9 114.7 176.9 114.8 176.9 115 176.9 115.2 177 115.3 177.05 115.4 177.1 115.5 177.2 115.6 177.2 115.7 177.2 115.8 177.2 116 177.2 116.2 177.2 116.5 177.2 116.75 177.2 116.85 177.2 116.95 177.15 117.05 177.1 117.15 176.85 117.95 176.25 118.7 175.55 119.6 174.6 120.3 165.6 123.35 156.7 121.4 153.6 120.7 152.4 117.8 152.3 117.7 152.2 117.6 152.1 117.5 152.05 117.4 151.8 117.15 151.6 116.85 151.6 116.75 151.6 116.65 151.6 116.15 151.6 115.65 151.6 115.15 151.6 114.65 151.6 114.3 151.6 113.9 151.7 113.8 151.75 113.7 151.8 113.6 151.85 113.5 151.9 113.4 151.95 113.3 153 112.2 154.3 111.4 158 109.05 162.3 108.45 166.8 107.9 170.85 109.45 172.4 110.05 173.45 111.2
M 116.8 113.9
Q 116.85 114 116.9 114.1 116.9 114.2 116.95 114.3 117.05 114.4 117.15 114.5 117.25 114.55 117.35 114.65 117.5 114.75 117.6 114.85 117.65 114.95 117.75 115.05 117.75 115.15 117.8 115.25 117.85 115.35 117.85 115.45 117.9 115.65 117.95 115.85 117.95 115.95 117.95 116.05 117.95 116.15 117.95 116.25 117.95 116.35 118 116.4 118.05 116.55 118.1 116.65 118.15 116.75 118.2 116.85 118.2 116.95 118.2 117.05 118.2 117.15 118.2 117.25 118.2 117.4 118.2 117.6 118.2 117.7 118.2 117.8 118.2 117.9 118.2 118 118.2 118.3 118.2 118.6 118.2 118.7 118.2 118.8 118.15 118.9 118.1 119 118.05 119.1 118 119.2 117.95 119.3 117.95 119.4 117.95 119.5 117.95 119.6 117.95 119.7 117.95 119.8 117.95 119.9 117.95 120 117.9 120.1 117.85 120.15 117.8 120.25 117.75 120.35 117.5 120.65 117.25 121 117 121.4 116.6 121.75 116.2 122.1 115.85 122.45 107.5 125.15 98.75 123.45 94.1 122.5 91.45 118.75 91.35 118.65 91.2 118.55 91.1 118.45 91 118.35 90.95 118.25 90.85 118.15 90.85 118.05 90.8 117.95 90.8 117.85 90.8 117.75 90.8 117.55 90.8 117.35 90.8 117.25 90.8 117.15 90.8 117.05 90.8 116.95 90.8 116.65 90.8 116.4 90.8 116.3 90.8 116.2 91.4 114.5 92.75 113.4 97.55 109.55 103.65 109.3 108.05 109.1 112.15 110.55 113.45 111.05 114.65 111.8 114.75 111.9 114.85 112 114.9 112.1 115 112.2 115.05 112.25 115.15 112.3 115.2 112.35 115.3 112.4 115.5 112.45 115.65 112.5 115.7 112.6 115.75 112.7 115.85 112.8 115.9 112.9 116.05 113.1 116.25 113.3 116.35 113.4 116.45 113.5 116.55 113.6 116.7 113.7 116.75 113.8 116.8 113.9 Z" stroke="none" fill="#FDDF5E"></path>
</g>
</g>
</g>
</g>
</svg>
