
<svg viewBox="0 0 128 127" height="127px" width="128px" y="0px" x="0px" preserveAspectRatio="none" xmlns:xlink="http://www.w3.org/1999/xlink" version="1.1" xmlns="http://www.w3.org/2000/svg">
<defs></defs>

<g id="Layer_1"></g>

<g id="Layer_2">
<g transform="matrix( 1, 0, 0, 1, 166.2,105.7)" id="Layer_1">
<g>
<g>
<g>
<path d="M -162.1 -48.4
Q -163 -48.45 -163.85 -48.05 -166.2 -46.85 -164.5 -44.8 -163.875 -44.063671875 -163.25 -43.35 -158.98203125 -38.481640625 -154.25 -34.15 -153.013671875 -32.99765625 -151.75 -31.9 -155.55 -28.5 -159.35 -25.15 -160.7 -23.95 -161.8 -22.6 -162.4587890625 -21.7900390625 -162.65 -21.15 -163.1017578125 -19.4578125 -160.2 -18.95 -150.3037109375 -17.1583984375 -140.85 -19.15 -139.769140625 -15.5037109375 -138.25 -12 -136.6 -8.3 -134.4 -4.85 -134.019140625 -2.9724609375 -132.95 -1.9 -132.7318359375 -1.3640625 -132.5 -0.85 -128.8 7.25 -129.9 16.25 -130.15 18.05 -129.75 19.85 -129.05 22.9 -126.35 20.85 -119.215234375 15.5322265625 -118.5 7.05 -116.169140625 8.329296875 -113.7 9.35 -104.8 13.05 -95.2 14.25 -85.5 15.45 -76.05 13.4 -70.1478515625 12.115625 -65.05 9.35 -64.9904296875 14.870703125 -61.85 19.8 -59.8 23.05 -56.7 21.4 -56.05 19.75 -55.55 18.1 -52.8 9 -49.4 0.1 -48.91015625 -1.20625 -48.25 -2.4 -47.2919921875 -2.8751953125 -46.5 -4.4 -46.4 -4.5 -46.25 -4.6 -46.1 -4.7 -46 -4.8 -45.9 -4.9 -45.8 -5 -45.65 -5.45 -45.4 -5.8 -44.75 -6.7 -44.15 -7.65 -43.4 -8.85 -42.8 -10.15 -42.5 -10.8 -41.95 -11.35 -41.65 -11.7 -41.4 -12.1 -40 -15.75 -39.15 -19.6 -38.9779296875 -20.3740234375 -38.85 -21.15 -37.6833984375 -26.9701171875 -37.65 -32.9 -37.634765625 -34.9220703125 -37.75 -36.95 -37.9044921875 -39.596875 -38.4 -42.15 -39.0484375 -45.3982421875 -40.25 -48.5 -40.7671875 -49.7859375 -41.4 -51.05 -42.938671875 -54.2041015625 -45.1 -57.05 -50.1947265625 -63.7849609375 -57.25 -68.1 -57.226953125 -68.1541015625 -57.2 -68.25 -56.4115234375 -70.913671875 -56.05 -73.65 -55.49921875 -77.3341796875 -55.7 -81.15 -55.95 -85.6 -58.3 -89.45 -61.55 -96.45 -68.4 -100.15 -79 -105.95 -91.1 -105.7 -96.3 -105.5 -101.5 -104.75 -123.05 -101.7 -140.35 -88.6 -148.3873046875 -82.5541015625 -150.4 -73.65 -151.2232421875 -70.035546875 -151.05 -65.95 -150.7578125 -59.085546875 -150.1 -52.3 -150.068359375 -52.0841796875 -150.05 -51.9 -149.957421875 -51.0671875 -149.75 -50.5 -149.7859375 -49.9701171875 -149.75 -49.45 -155.7 -48 -162.1 -48.4
M -87.05 -75.6
L -87.05 -75.55
Q -95.380078125 -75.46484375 -103.1 -73.65 -118.0244140625 -70.1384765625 -130.65 -60.15 -134.83984375 -56.8123046875 -137.7 -52.35 -138.8224609375 -50.514453125 -139.75 -48.5 -140.95 -45.859765625 -141.75 -43.2 -143.01796875 -38.6697265625 -143.15 -34.05 -143.218359375 -30.4279296875 -142.6 -26.75 -142.2783203125 -24.7939453125 -141.85 -22.9 -145.5490234375 -22.9158203125 -149.45 -22.4 -153.85 -21.85 -156.35 -22.7 -154.3 -24.3 -152.3 -25.85 -149.1 -28.3 -147.4 -31.65 -147.05 -32.3 -147.55 -32.75 -148.2501953125 -33.408984375 -148.95 -34.1 -153.508203125 -38.489453125 -157.7 -43.3 -158.24375 -43.9439453125 -158.8 -44.6 -155.8 -44.2 -152.85 -44.7 -151 -45 -149.25 -45.65 -145.305078125 -47.14375 -145.65 -50.6 -145.4630859375 -51.4232421875 -145.6 -52.3 -145.592578125 -52.3521484375 -145.6 -52.4 -147.2 -61.25 -146.7 -70.3 -146.6041015625 -72.0265625 -146.2 -73.65 -145.5484375 -76.2580078125 -144.1 -78.6 -140.25 -84.9 -133.95 -88.8 -127.05 -93.1 -119.4 -96 -113.9 -98.1 -108.25 -99.6 -91.9 -104 -75.8 -99.35 -69 -97.35 -64.9 -92 -58.571484375 -83.7642578125 -60.05 -73.65 -60.244140625 -72.0970703125 -60.65 -70.5 -60.7240234375 -70.222265625 -60.75 -70 -62.216796875 -70.678515625 -63.75 -71.3 -67.2435546875 -72.7037109375 -70.85 -73.65 -78.72421875 -75.7376953125 -87.05 -75.6
M -96.3 -53.4
Q -96.3484375 -52.7955078125 -96.4 -52.2 -96.6998046875 -47.5482421875 -96.55 -42.75 -96.507421875 -41.6740234375 -96.45 -40.6 -96.250390625 -37.0580078125 -96.1 -33.55
L -96.1 -33.5
Q -96.50859375 -33.5142578125 -96.95 -33.55 -103.681640625 -33.85 -110.8 -35.5 -119.8 -37.65 -128.95 -38.6 -129.85 -38.7 -130.2 -37.95 -131.151953125 -36.04609375 -131.5 -33.9 -131.7056640625 -32.31328125 -131.6 -30.6 -131.3439453125 -25.8646484375 -131.4 -21.15 -131.4240234375 -18.4966796875 -131.55 -15.85 -131.7 -12.3 -132.15 -8.85 -134.15 -11.75 -135.55 -15 -136.6578125 -17.5966796875 -137.45 -20.25 -137.2412109375 -20.66484375 -137.3 -21.15 -137.2732421875 -21.2978515625 -137.3 -21.45 -137.35 -22.15 -137.8 -22.65 -137.9283203125 -22.6626953125 -138.05 -22.7 -139.3193359375 -28.234765625 -139.1 -34 -139.0158203125 -35.754296875 -138.8 -37.55 -138.4453125 -40.478125 -137.65 -43.15 -136.054296875 -48.235546875 -132.8 -52.35 -130.2794921875 -55.4861328125 -126.8 -58.05 -105.65 -73.75 -79.3 -71.3 -60.25 -69.55 -48.6 -54.9 -47.1830078125 -53.1052734375 -46.05 -51.2 -44.7734375 -48.9982421875 -43.85 -46.65 -43.01640625 -44.462109375 -42.5 -42.2 -41.725 -39.024609375 -41.55 -35.7 -41.485546875 -34.3193359375 -41.5 -32.95 -41.494140625 -26.999609375 -42.75 -21.15 -42.7673828125 -20.9998046875 -42.8 -20.85 -43.55 -17.25 -45 -13.8 -45.25 -13.5 -45.45 -13.2 -46.1 -12.25 -46.7 -11.3 -47.35 -10.3 -47.9 -9.25 -48.0796875 -8.890625 -48.3 -8.55 -48.69609375 -8.4646484375 -49.05 -8.15 -49.123828125 -8.075 -49.2 -8
L -49.2 -8.05
Q -49.25 -8.15 -49.3 -8.25 -49.3 -8.35 -49.35 -8.45 -49.4 -8.55 -49.4 -8.65 -49.5 -8.75 -49.55 -8.85 -49.5 -9.55 -49.5 -10.25 -49.55 -13.3 -52.2 -14.1 -52.2369140625 -14.109765625 -52.3 -14.15 -52.1990234375 -15.90859375 -52.15 -17.7 -52.105078125 -19.4251953125 -52.1 -21.15 -51.921875 -27.102734375 -51.85 -33.05 -51.780078125 -34.9794921875 -51.75 -36.9 -51.714453125 -39.609765625 -51.8 -42.3 -51.902734375 -46.8580078125 -52.35 -51.35 -52.3669921875 -51.6728515625 -52.4 -52 -52.55 -53.35 -53.2 -54.55 -56.8 -56.75 -61.05 -57.15 -70.7 -58 -80.4 -57.8 -82.3 -57.8 -84 -56.85 -84.35 -56.65 -84.45 -56.3 -84.986328125 -54.1958984375 -85.35 -52.05 -85.8943359375 -48.9720703125 -86.1 -45.8 -86.1326171875 -45.35390625 -86.2 -44.9 -86.491015625 -45.5083984375 -86.9 -46.1 -88.95 -49.1 -91.1 -51.95 -91.1666015625 -52.04140625 -91.25 -52.15 -92.9490234375 -54.3423828125 -95.45 -54.15 -96.25 -54.1 -96.3 -53.4
M -81.45 -52
Q -81.4072265625 -52.690625 -81.35 -53.4 -81.05 -53.55 -80.8 -53.65 -80.6 -53.7 -80.45 -53.75 -79.8921875 -53.79921875 -79.35 -53.85 -79.3470703125 -53.698828125 -79.35 -53.55 -79.375 -52.7517578125 -79.45 -51.95 -79.4748046875 -51.1267578125 -79.55 -50.3 -79.651171875 -49.0171875 -79 -48.2 -80.312109375 -48.2068359375 -81.65 -48.2 -81.691015625 -48.19296875 -81.75 -48.2 -81.605078125 -50.08046875 -81.45 -52
M -127.35 -33.85
Q -127.35 -34.171875 -127.35 -34.5 -124.924609375 -34.1775390625 -122.5 -33.8 -118.14453125 -33.116015625 -113.8 -32.25 -114.207421875 -31.0375 -113.9 -29.5 -113.35 -26.7 -112.05 -24.15 -111.2107421875 -22.5017578125 -110.15 -21.15 -106.304296875 -16.2166015625 -99.6 -15.25 -100.153515625 -14.0447265625 -100.9 -12.9 -103.4 -10 -106.8 -8.35 -108.4 -7.55 -110.15 -7.55 -120.6 -7.35 -124.55 -17.05 -125.238671875 -19.0587890625 -125.65 -21.15 -125.8935546875 -22.7021484375 -126 -24.3 -126.0998046875 -26.1962890625 -127.35 -26.7 -127.35 -27.048828125 -127.35 -27.4 -127.35 -30.621875 -127.35 -33.85
M -127.6 -12.6
Q -127.577734375 -13.2521484375 -127.55 -13.9 -125.4283203125 -9.81484375 -121.5 -6.8 -119.45 -5.25 -117.05 -4.45 -107.2 -1.2 -99.7 -8.5 -98.15 -10 -97.05 -11.9 -94.470703125 -16.2734375 -93.7 -21.15 -93.038671875 -24.9705078125 -93.5 -29.1 -93.4220703125 -29.10546875 -93.35 -29.1 -92.65 -29.05 -92.6 -29.65 -92.34453125 -31.54765625 -92.25 -33.5 -92.082421875 -36.8388671875 -92.4 -40.3 -92.52109375 -41.5103515625 -92.6 -42.7 -92.698046875 -44.97578125 -92.6 -47.2 -90.9626953125 -45.067578125 -89.9 -42.7 -89.57421875 -41.925 -89.3 -41.15 -88.4974609375 -38.8267578125 -86.5 -38.4 -86.546875 -35.908984375 -86.55 -33.45 -86.5423828125 -29.98515625 -86.4 -26.55 -86.2884765625 -23.844140625 -86.1 -21.15 -85.581640625 -14.1859375 -84.5 -7.3 -83.9 -3.5 -82.75 0.15 -81.95 2.5 -79.6 1.45 -75.5775390625 2.1619140625 -71.55 2.35 -70.9419921875 2.4044921875 -70.35 2.4 -65.8212890625 2.5908203125 -61.35 2.1 -65.3833984375 5.387890625 -70.4 7.4 -75.1 9.25 -80.05 10.2 -87 11.5 -94.1 10.35 -100 9.4 -105.75 7.95 -115.2 5.55 -122.7 -0.45 -124.65 -2 -126.1 -4.05 -127.0611328125 -5.476953125 -128.3 -6.55 -127.729296875 -9.4966796875 -127.6 -12.6
M -98.05 -26.25
Q -97.72265625 -26.2140625 -97.45 -26.2 -97.2615234375 -23.595703125 -97.65 -21.15 -97.84921875 -19.9560546875 -98.2 -18.8 -101.845703125 -19.2931640625 -104.55 -21.15 -107.1748046875 -22.940625 -108.9 -26 -109 -26.5 -109.15 -26.95 -109.4212890625 -27.82421875 -109.5 -28.75 -108.936328125 -28.0970703125 -107.8 -27.85 -102.95 -26.8 -98.05 -26.25
M -81.7 -15.7
Q -81.818359375 -16.876171875 -81.95 -18.05 -80.3087890625 -17.9701171875 -78.7 -18.2 -78.75 -18.15 -78.8 -18.1 -79 -17.9 -79.1 -17.65 -79.2 -17.4 -79.3 -17.15 -79.3 -17.05 -79.35 -17
L -79.4 -17
Q -79.5228515625 -16.9443359375 -79.7 -16.9 -80.5 -16.6 -80.7 -15.85 -81.0849609375 -14.4201171875 -81.4 -13 -81.566796875 -14.3373046875 -81.7 -15.7
M -75.25 -51.05
Q -75.3158203125 -51.4673828125 -75.3 -51.9 -75.290234375 -52.3955078125 -75.15 -52.9 -74.9673828125 -53.5125 -74.95 -54.05 -72.8134765625 -54.0537109375 -70.7 -53.95 -70.7904296875 -53.634375 -70.8 -53.25 -70.81875 -52.5154296875 -70.85 -51.8 -70.7978515625 -49.795703125 -70.6 -47.85 -73.2658203125 -48.03359375 -75.95 -48.15 -75.00703125 -49.3091796875 -75.25 -51.05
M -66.6 -51.75
Q -66.43359375 -52.84140625 -66.7 -53.65 -64.4130859375 -53.400390625 -62.2 -53 -62.4068359375 -52.307421875 -62.55 -51.6 -62.9748046875 -49.4111328125 -62.5 -47.1
L -62.5 -47.05
Q -64.5462890625 -47.3083984375 -66.6 -47.5 -66.573046875 -48.3220703125 -66.65 -49.15 -66.7478515625 -50.4701171875 -66.6 -51.7
L -66.6 -51.75
M -56.4 -51.7
Q -56.38203125 -51.575 -56.4 -51.45 -56.0330078125 -49.084375 -55.9 -46.7 -56.285546875 -46.7677734375 -56.75 -46.75 -57.5333984375 -46.7365234375 -58.35 -46.75 -58.8943359375 -49.0255859375 -58.4 -51.25 -58.3708984375 -51.3775390625 -58.35 -51.5 -58.2837890625 -51.85625 -58.3 -52.2 -57.334375 -51.9537109375 -56.4 -51.7
M -79.55 -2.5
Q -79.6509765625 -2.94140625 -79.75 -3.4 -79.53203125 -3.5494140625 -79.45 -3.85 -78.6025390625 -7.8044921875 -77.35 -11.8 -75.0302734375 -11.4419921875 -72.7 -11.25 -72.6025390625 -6.5923828125 -72.95 -1.85 -76.2380859375 -2.039453125 -79.55 -2.5
M -60.85 -2
Q -64.929296875 -1.6509765625 -69 -1.7 -68.5958984375 -4.826171875 -68.45 -8 -68.4001953125 -9.820703125 -69.1 -11.1 -65.9748046875 -11.0142578125 -62.85 -11.25 -61.3349609375 -6.9091796875 -60.5 -2.4 -60.4671875 -2.2169921875 -60.45 -2.05 -60.6365234375 -2.0173828125 -60.85 -2
M -56.95 -6.15
Q -57.630078125 -8.4515625 -58.35 -10.75 -58.93671875 -12.5412109375 -60.1 -13.7 -59.509375 -15.5111328125 -61.25 -17.6 -58.730859375 -17.5099609375 -56.2 -17.15 -56.4162109375 -11.6171875 -56.95 -6.15
M -58.85 5.2
Q -56.496484375 3.3310546875 -54.3 1.3 -56.762890625 8.6212890625 -59.15 16 -61.63984375 11.7580078125 -61.2 6.95 -59.9986328125 6.1279296875 -58.85 5.2
M -127.35 0.95
Q -127.36171875 0.9115234375 -127.4 0.85 -124.8947265625 3.044921875 -122.2 4.85 -122.62890625 8.6466796875 -123.95 12.25 -124.5 12.95 -124.85 13.7 -125.1 14.35 -125.65 14.8 -125.3 7.7 -127.35 0.95 Z" stroke="none" fill="#000000"></path>

<path d="M -127.4 0.85
Q -127.36171875 0.9115234375 -127.35 0.95 -125.3 7.7 -125.65 14.8 -125.1 14.35 -124.85 13.7 -124.5 12.95 -123.95 12.25 -122.62890625 8.6466796875 -122.2 4.85 -124.8947265625 3.044921875 -127.4 0.85
M -54.3 1.3
Q -56.496484375 3.3310546875 -58.85 5.2 -59.9986328125 6.1279296875 -61.2 6.95 -61.63984375 11.7580078125 -59.15 16 -56.762890625 8.6212890625 -54.3 1.3
M -97.45 -26.2
Q -97.72265625 -26.2140625 -98.05 -26.25 -102.95 -26.8 -107.8 -27.85 -108.936328125 -28.0970703125 -109.5 -28.75 -109.4212890625 -27.82421875 -109.15 -26.95 -109 -26.5 -108.9 -26 -107.1748046875 -22.940625 -104.55 -21.15 -101.845703125 -19.2931640625 -98.2 -18.8 -97.84921875 -19.9560546875 -97.65 -21.15 -97.2615234375 -23.595703125 -97.45 -26.2
M -41.5 -32.95
L -51.85 -33.05
Q -51.921875 -27.102734375 -52.1 -21.15 -52.105078125 -19.4251953125 -52.15 -17.7 -52.1990234375 -15.90859375 -52.3 -14.15 -52.2369140625 -14.109765625 -52.2 -14.1 -49.55 -13.3 -49.5 -10.25 -49.5 -9.55 -49.55 -8.85 -49.5 -8.75 -49.4 -8.65 -49.4 -8.55 -49.35 -8.45 -49.3 -8.35 -49.3 -8.25 -49.25 -8.15 -49.2 -8.05
L -49.2 -8
Q -49.123828125 -8.075 -49.05 -8.15 -48.69609375 -8.4646484375 -48.3 -8.55 -48.0796875 -8.890625 -47.9 -9.25 -47.35 -10.3 -46.7 -11.3 -46.1 -12.25 -45.45 -13.2 -45.25 -13.5 -45 -13.8 -43.55 -17.25 -42.8 -20.85 -42.7673828125 -20.9998046875 -42.75 -21.15 -41.494140625 -26.999609375 -41.5 -32.95
M -46.05 -51.2
Q -49.190234375 -51.2619140625 -52.35 -51.35 -51.902734375 -46.8580078125 -51.8 -42.3 -47.196484375 -42.2484375 -42.5 -42.2 -43.01640625 -44.462109375 -43.85 -46.65 -44.7734375 -48.9982421875 -46.05 -51.2
M -96.4 -52.2
Q -114.582421875 -52.3935546875 -132.8 -52.35 -136.054296875 -48.235546875 -137.65 -43.15 -119.374609375 -42.9736328125 -96.55 -42.75 -96.6998046875 -47.5482421875 -96.4 -52.2
M -131.5 -33.9
L -139.1 -34
Q -139.3193359375 -28.234765625 -138.05 -22.7 -137.9283203125 -22.6626953125 -137.8 -22.65 -137.35 -22.15 -137.3 -21.45 -137.2732421875 -21.2978515625 -137.3 -21.15 -137.2412109375 -20.66484375 -137.45 -20.25 -136.6578125 -17.5966796875 -135.55 -15 -134.15 -11.75 -132.15 -8.85 -131.7 -12.3 -131.55 -15.85 -131.4240234375 -18.4966796875 -131.4 -21.15 -131.3439453125 -25.8646484375 -131.6 -30.6 -131.7056640625 -32.31328125 -131.5 -33.9
M -143.15 -34.05
L -148.95 -34.1
Q -148.2501953125 -33.408984375 -147.55 -32.75 -147.05 -32.3 -147.4 -31.65 -149.1 -28.3 -152.3 -25.85 -154.3 -24.3 -156.35 -22.7 -153.85 -21.85 -149.45 -22.4 -145.5490234375 -22.9158203125 -141.85 -22.9 -142.2783203125 -24.7939453125 -142.6 -26.75 -143.218359375 -30.4279296875 -143.15 -34.05
M -145.6 -52.3
Q -145.4630859375 -51.4232421875 -145.65 -50.6 -145.305078125 -47.14375 -149.25 -45.65 -151 -45 -152.85 -44.7 -155.8 -44.2 -158.8 -44.6 -158.24375 -43.9439453125 -157.7 -43.3 -150.22578125 -43.240234375 -141.75 -43.2 -140.95 -45.859765625 -139.75 -48.5 -138.8224609375 -50.514453125 -137.7 -52.35 -141.6208984375 -52.326953125 -145.6 -52.3 Z" stroke="none" fill="#97E915"></path>

<path d="M -58.35 -10.75
Q -57.630078125 -8.4515625 -56.95 -6.15 -56.4162109375 -11.6171875 -56.2 -17.15 -58.730859375 -17.5099609375 -61.25 -17.6 -59.509375 -15.5111328125 -60.1 -13.7 -58.93671875 -12.5412109375 -58.35 -10.75
M -69 -1.7
Q -64.929296875 -1.6509765625 -60.85 -2 -60.6365234375 -2.0173828125 -60.45 -2.05 -60.4671875 -2.2169921875 -60.5 -2.4 -61.3349609375 -6.9091796875 -62.85 -11.25 -65.9748046875 -11.0142578125 -69.1 -11.1 -68.4001953125 -9.820703125 -68.45 -8 -68.5958984375 -4.826171875 -69 -1.7
M -79.75 -3.4
Q -79.6509765625 -2.94140625 -79.55 -2.5 -76.2380859375 -2.039453125 -72.95 -1.85 -72.6025390625 -6.5923828125 -72.7 -11.25 -75.0302734375 -11.4419921875 -77.35 -11.8 -78.6025390625 -7.8044921875 -79.45 -3.85 -79.53203125 -3.5494140625 -79.75 -3.4
M -56.4 -51.45
Q -56.38203125 -51.575 -56.4 -51.7 -57.334375 -51.9537109375 -58.3 -52.2 -58.2837890625 -51.85625 -58.35 -51.5 -58.3708984375 -51.3775390625 -58.4 -51.25 -58.8943359375 -49.0255859375 -58.35 -46.75 -57.5333984375 -46.7365234375 -56.75 -46.75 -56.285546875 -46.7677734375 -55.9 -46.7 -56.0330078125 -49.084375 -56.4 -51.45
M -66.7 -53.65
Q -66.43359375 -52.84140625 -66.6 -51.75
L -66.6 -51.7
Q -66.7478515625 -50.4701171875 -66.65 -49.15 -66.573046875 -48.3220703125 -66.6 -47.5 -64.5462890625 -47.3083984375 -62.5 -47.05
L -62.5 -47.1
Q -62.9748046875 -49.4111328125 -62.55 -51.6 -62.4068359375 -52.307421875 -62.2 -53 -64.4130859375 -53.400390625 -66.7 -53.65
M -75.3 -51.9
Q -75.3158203125 -51.4673828125 -75.25 -51.05 -75.00703125 -49.3091796875 -75.95 -48.15 -73.2658203125 -48.03359375 -70.6 -47.85 -70.7978515625 -49.795703125 -70.85 -51.8 -70.81875 -52.5154296875 -70.8 -53.25 -70.7904296875 -53.634375 -70.7 -53.95 -72.8134765625 -54.0537109375 -74.95 -54.05 -74.9673828125 -53.5125 -75.15 -52.9 -75.290234375 -52.3955078125 -75.3 -51.9
M -81.95 -18.05
Q -81.818359375 -16.876171875 -81.7 -15.7 -81.566796875 -14.3373046875 -81.4 -13 -81.0849609375 -14.4201171875 -80.7 -15.85 -80.5 -16.6 -79.7 -16.9 -79.5228515625 -16.9443359375 -79.4 -17
L -79.35 -17
Q -79.3 -17.05 -79.3 -17.15 -79.2 -17.4 -79.1 -17.65 -79 -17.9 -78.8 -18.1 -78.75 -18.15 -78.7 -18.2 -80.3087890625 -17.9701171875 -81.95 -18.05
M -127.35 -34.5
Q -127.35 -34.171875 -127.35 -33.85 -127.35 -30.621875 -127.35 -27.4 -127.35 -27.048828125 -127.35 -26.7 -126.0998046875 -26.1962890625 -126 -24.3 -125.8935546875 -22.7021484375 -125.65 -21.15 -125.238671875 -19.0587890625 -124.55 -17.05 -120.6 -7.35 -110.15 -7.55 -108.4 -7.55 -106.8 -8.35 -103.4 -10 -100.9 -12.9 -100.153515625 -14.0447265625 -99.6 -15.25 -106.304296875 -16.2166015625 -110.15 -21.15 -111.2107421875 -22.5017578125 -112.05 -24.15 -113.35 -26.7 -113.9 -29.5 -114.207421875 -31.0375 -113.8 -32.25 -118.14453125 -33.116015625 -122.5 -33.8 -124.924609375 -34.1775390625 -127.35 -34.5
M -81.35 -53.4
Q -81.4072265625 -52.690625 -81.45 -52 -81.605078125 -50.08046875 -81.75 -48.2 -81.691015625 -48.19296875 -81.65 -48.2 -80.312109375 -48.2068359375 -79 -48.2 -79.651171875 -49.0171875 -79.55 -50.3 -79.4748046875 -51.1267578125 -79.45 -51.95 -79.375 -52.7517578125 -79.35 -53.55 -79.3470703125 -53.698828125 -79.35 -53.85 -79.8921875 -53.79921875 -80.45 -53.75 -80.6 -53.7 -80.8 -53.65 -81.05 -53.55 -81.35 -53.4 Z" stroke="none" fill="#FFFFFF"></path>

<path d="M -127.55 -13.9
Q -127.577734375 -13.2521484375 -127.6 -12.6 -127.729296875 -9.4966796875 -128.3 -6.55 -127.0611328125 -5.476953125 -126.1 -4.05 -124.65 -2 -122.7 -0.45 -115.2 5.55 -105.75 7.95 -100 9.4 -94.1 10.35 -87 11.5 -80.05 10.2 -75.1 9.25 -70.4 7.4 -65.3833984375 5.387890625 -61.35 2.1 -65.8212890625 2.5908203125 -70.35 2.4 -70.9419921875 2.4044921875 -71.55 2.35 -75.5775390625 2.1619140625 -79.6 1.45 -81.95 2.5 -82.75 0.15 -83.9 -3.5 -84.5 -7.3 -85.581640625 -14.1859375 -86.1 -21.15 -86.2884765625 -23.844140625 -86.4 -26.55 -86.5423828125 -29.98515625 -86.55 -33.45 -86.546875 -35.908984375 -86.5 -38.4 -88.4974609375 -38.8267578125 -89.3 -41.15 -89.57421875 -41.925 -89.9 -42.7 -90.9626953125 -45.067578125 -92.6 -47.2 -92.698046875 -44.97578125 -92.6 -42.7 -92.52109375 -41.5103515625 -92.4 -40.3 -92.082421875 -36.8388671875 -92.25 -33.5 -92.34453125 -31.54765625 -92.6 -29.65 -92.65 -29.05 -93.35 -29.1 -93.4220703125 -29.10546875 -93.5 -29.1 -93.038671875 -24.9705078125 -93.7 -21.15 -94.470703125 -16.2734375 -97.05 -11.9 -98.15 -10 -99.7 -8.5 -107.2 -1.2 -117.05 -4.45 -119.45 -5.25 -121.5 -6.8 -125.4283203125 -9.81484375 -127.55 -13.9 Z" stroke="none" fill="#D9AD8D"></path>

<path d="M -51.75 -36.9
Q -51.780078125 -34.9794921875 -51.85 -33.05
L -41.5 -32.95
Q -41.485546875 -34.3193359375 -41.55 -35.7 -41.725 -39.024609375 -42.5 -42.2 -47.196484375 -42.2484375 -51.8 -42.3 -51.714453125 -39.609765625 -51.75 -36.9
M -130.2 -37.95
Q -129.85 -38.7 -128.95 -38.6 -119.8 -37.65 -110.8 -35.5 -103.681640625 -33.85 -96.95 -33.55 -96.50859375 -33.5142578125 -96.1 -33.5
L -96.1 -33.55
Q -96.250390625 -37.0580078125 -96.45 -40.6 -96.507421875 -41.6740234375 -96.55 -42.75 -119.374609375 -42.9736328125 -137.65 -43.15 -138.4453125 -40.478125 -138.8 -37.55 -139.0158203125 -35.754296875 -139.1 -34
L -131.5 -33.9
Q -131.151953125 -36.04609375 -130.2 -37.95
M -96.4 -52.2
Q -96.3484375 -52.7955078125 -96.3 -53.4 -96.25 -54.1 -95.45 -54.15 -92.9490234375 -54.3423828125 -91.25 -52.15 -91.1666015625 -52.04140625 -91.1 -51.95 -88.95 -49.1 -86.9 -46.1 -86.491015625 -45.5083984375 -86.2 -44.9 -86.1326171875 -45.35390625 -86.1 -45.8 -85.8943359375 -48.9720703125 -85.35 -52.05 -84.986328125 -54.1958984375 -84.45 -56.3 -84.35 -56.65 -84 -56.85 -82.3 -57.8 -80.4 -57.8 -70.7 -58 -61.05 -57.15 -56.8 -56.75 -53.2 -54.55 -52.55 -53.35 -52.4 -52 -52.3669921875 -51.6728515625 -52.35 -51.35 -49.190234375 -51.2619140625 -46.05 -51.2 -47.1830078125 -53.1052734375 -48.6 -54.9 -60.25 -69.55 -79.3 -71.3 -105.65 -73.75 -126.8 -58.05 -130.2794921875 -55.4861328125 -132.8 -52.35 -114.582421875 -52.3935546875 -96.4 -52.2
M -148.95 -34.1
L -143.15 -34.05
Q -143.01796875 -38.6697265625 -141.75 -43.2 -150.22578125 -43.240234375 -157.7 -43.3 -153.508203125 -38.489453125 -148.95 -34.1
M -87.05 -75.55
L -87.05 -75.6
Q -78.72421875 -75.7376953125 -70.85 -73.65 -67.2435546875 -72.7037109375 -63.75 -71.3 -62.216796875 -70.678515625 -60.75 -70 -60.7240234375 -70.222265625 -60.65 -70.5 -60.244140625 -72.0970703125 -60.05 -73.65 -58.571484375 -83.7642578125 -64.9 -92 -69 -97.35 -75.8 -99.35 -91.9 -104 -108.25 -99.6 -113.9 -98.1 -119.4 -96 -127.05 -93.1 -133.95 -88.8 -140.25 -84.9 -144.1 -78.6 -145.5484375 -76.2580078125 -146.2 -73.65 -146.6041015625 -72.0265625 -146.7 -70.3 -147.2 -61.25 -145.6 -52.4 -145.592578125 -52.3521484375 -145.6 -52.3 -141.6208984375 -52.326953125 -137.7 -52.35 -134.83984375 -56.8123046875 -130.65 -60.15 -118.0244140625 -70.1384765625 -103.1 -73.65 -95.380078125 -75.46484375 -87.05 -75.55 Z" stroke="none" fill="#E44695"></path>
</g>
</g>
</g>
</g>
</g>
</svg>
