
<svg viewBox="0 0 272 172" height="172px" width="272px" y="0px" x="0px" preserveAspectRatio="none" xmlns:xlink="http://www.w3.org/1999/xlink" version="1.1" xmlns="http://www.w3.org/2000/svg">
<defs></defs>

<g id="Layer_2">
<g>
<g>
<g>
<path d="M 204.6 137.85
Q 203.85 138.2 203.3 138.5 201.2 139.65 198.75 140.1 197.8 140.8 196.65 141.15 195.3 141.6 194.35 142.65 193.95 142.75 193.55 142.85 192.85 143.4 192.25 144.05 192.15 144.15 192.1 144.3 191.6 144.4 191.1 144.55 191.05 144.55 191 144.6 190.9 144.7 190.8 144.8 190.15 145.35 189.7 146.1 189.65 146.2 189.65 146.35 199.9 147.7 210.15 149.3 210.15 149.45 210.15 149.65 210.15 150.5333984375 210.15 151.4 211.250390625 151.37890625 212.35 151.3 212.35 151.2765625 212.35 151.25 212.25 151.25 212.2 151.25 212.2 149.95 212.2 148.6 209.35 148.2 206.55 147.8 206.55 145.9 206.55 144 206.55 141.35 206.55 138.75 206.9 138.4 207.25 138.05 207.1041015625 137.87265625 206.95 137.7 204.4740234375 134.852734375 200.75 133.25 199.85 132.85 198.95 132.5 198.95 131.05 199 129.6 199.05 128.45 198.65 127.45 198.65 125.75 198.75 124.1 198.8 122.95 198.4 121.9 198.5 120.85 198.2 119.9 198.4 119.55 198.55 119.2 198.6 119.05 198.65 118.9 198.65 118.6 198.65 118.3 198.65 117.7 198.65 117.05 198.6 116.9 198.55 116.75 198.2 116.65 197.85 116.55 197.85 116.5 197.8 116.5 197.7 116.35 197.55 116.2 197.45 116.1 197.35 115.95 196.4 115.65 195.5 115.3 195.25 115.2 195 115.1 188 114.85 181.05 114.6 181.05 111.85 181.05 109.1 181.05 106.45 181.05 103.85 181 103.7 180.9 103.6 180.6 103.15 180.65 102.6 180.65 102.45 180.65 102.3 180.65 102.15 180.55 102.1 180.25 101.85 180 101.5 179.9 101.35 179.7 101.2 170.1 102.25 161 105 160.95 104.7 160.8 104.5 160.75 104.3 160.55 104.15 160.55 104 160.55 103.85 160.35 103.4 160.2 102.9 160.15 102.8 160.15 102.65 159.95 102.3 159.8 102 159.75 101.85 159.75 101.7 159.75 101.55 159.75 101.4 159.95 99.65 159.6 97.95 159.4 97.05 158.95 96.15 158.95 95.85 158.95 95.55 158.95 95.4 158.95 95.25 158.9 95.1 158.8 95 158.45 94.55 158.5 94 158.55 93.85 158.55 93.7 158.5 93.55 158.4 93.45 158.25 93.25 158.1 93.1 158.05 92.8 157.95 92.5 157.85 92.35 157.7 92.2 156.4 92.15 155.05 92.15 154.9 92.2 154.75 92.3 154.2 92.7 153.7 93.2 153.5 93.35 153.3 93.5 151.591015625 94.2080078125 149.9 94.95 144.6642578125 97.2912109375 139.6 100.05 139.05 100.1 138.55 100.05 138.5 100.05 138.45 99.95 138.15 98.95 137.25 98.4 137.05 98.25 136.9 98.1 136.85 97.95 136.8 97.8 136.75 97.65 136.7 97.5 136.3 97.2 135.9 96.85 135.75 96.75 135.6 96.6 134.9 95.4 134.35 94.15 134.1 93.45 133.55 92.9 133.55 92.75 133.5 92.6 132.95 91.3 132 90.15 131.55 89.6 131.4 88.9 131.1 88.8 130.8 88.65 130.75 88.65 130.65 88.6 130.55 88.5 130.5 88.4 130.35 88.25 130.25 88.1 129.15 88.05 128 88 125.5 89.65 123.3 92.05 118.5 97.3 114.6 102.95 114.1 102.55 113.5 102.2 107.35 98.5 101.7 93.9 101.15 93.75 100.6 93.55 100.4 93.5 100.25 93.4 99.2 93.35 98.1 93.4 98 93.4 97.9 93.5 97.95 94.05 97.65 94.45 97.55 94.6 97.5 94.75 97.5 95.05 97.5 95.35 97.25 99.5 97.2 103.65 97.1 108.85 97.1 114.1 91.85 113.75 86.8 112.1 83.539453125 111.0580078125 80.55 111.05 79.0927734375 111.054296875 77.7 111.3 77.15 111.25 76.65 111.25 76.65 111.4 76.65 111.55 76.4 111.6 76.2 111.65 76.4 112.05 76.55 112.5 76.35 115.25 76.35 118.05 76.35 124.6 76.35 131.15 74.4 131.55 72.45 131.85 67.4 132.6 64.3 134.9 64.75 135.85 65.35 136.65 65.16796875 137.1658203125 65 137.7 64.8982421875 138.04609375 64.8 138.4 64.35 139.8 64.85 141.1 64.95 143.5 65.25 145.85 65.6 148 65.65 150.2 65.25 150.25 64.85 150.3 62.6 150.95 60.25 151.7 60.15 151.75 60 151.8 59.95 151.85 59.95 151.95 59.25 152 58.6 152.1 59.2 152.1 59.85 152.15 59.8 152.15 59.75 152.2 59.65 152.3 59.6 152.4 59.6 152.5 59.6 152.6 59.6 152.7 59.6 152.8 59.6 152.9 59.6 153 59.6 153.05 59.6 153.1 59.55 153.1 59.45 153.15 59.4 153.15 59.4 153.3 59.4 153.45 59.4 153.6 59.4 153.919140625 59.4 154.2 60.9974609375 154.236328125 62.6 154.25 62.6 154.15 62.6 154
L 62.6 153.9
Q 62.2 153.85 61.85 153.85 61.85 153.75 61.85 153.65 61.85 153.45 61.8 153.25 61.8 153.05 61.85 152.85 61.85 152.75 61.9 152.65 62.5 152.35 63.1 152.15 67.55 152.1 72.4 151.75 76.55 151.4 79.05 149.75 78 147.5 76.45 145.45 73.1388671875 141.2587890625 69.25 137.7 68.518359375 137.01328125 67.75 136.35 67.9 135.85 67.85 135.35
L 67.85 135.25
Q 67.35 135.15 66.85 135.15 66.8 135.05 66.7 134.95 66.55 134.85 66.45 134.7 73.9017578125 133.4400390625 80.55 131.3 83.1357421875 130.5021484375 85.6 129.55 85.6 129.4 85.6 129.25 85.6 128.8 85.6 128.35 85.55 128.15 85.5 128 83.65 125.15 82.4 121.95 81.446484375 119.397265625 80.55 116.8 79.9888671875 115.2166015625 79.45 113.6 79.2 113.3 78.95 112.95 78.85 112.8 78.75 112.65 78.7 112.35 78.6 112.05
L 78.6 112
Q 78.6 111.9 78.6 111.8 79.5765625 112.05703125 80.55 112.3 89.99375 114.5734375 99.15 114.8 99.15 114.5 99.15 114.2 99.15 110.05 99.1 105.9 99.05 100.2 99.85 94.85 100.6 95.35 101.35 95.85 103.5 97.35 105.7 98.75 106.2 99.4 106.85 99.9 110.05 102.05 113.25 104.05 115.05 103.9 116.85 103.75 118.1 101.5 119.65 99.45 123.65 94.15 128.5 89.6 128.95 89.55 129.35 89.6 129.4 89.6 129.45 89.7 129.5 89.9 129.55 90 130.1 91.2 130.95 92.2 131.2 92.5 131.4 92.8 131.45 92.95 131.45 93.1 131.5 93.25 131.5 93.4 132.45 94.5 132.9 95.85 133.15 96.5 133.45 97.1 134.15 97.65 134.7 98.4 134.75 98.5 134.75 98.65 135.75 99.4 136.35 100.5 136.4 100.65 136.4 100.8 136.75 100.9 137.1 101 137.2 101.05 137.25 101.1 137.3 101.2 137.35 101.3 137.5 101.45 137.65 101.6 138.85 101.65 140.1 101.65
L 140.1 101.6
Q 144.9904296875 98.7703125 149.9 96.45 152.9712890625 95.0314453125 156.05 93.8 156.55 94.15 156.5 94.75 156.5 94.9 156.5 95.05 156.6 95.2 156.7 95.35 156.8 95.5 156.9 95.65 156.9 96.1 156.9 96.6 156.9 96.75 156.9 96.9 157.05 97.2 157.1 97.5 157.25 98.45 157.55 99.35 157.6 99.5 157.7 99.65 157.7 100.1 157.7 100.6 157.7 101.35 157.7 102.1 157.7 102.25 157.7 102.4 157.9 102.9 158.05 103.35 158.1 103.5 158.1 103.65 158.2 103.8 158.3 103.95 158.6 104.9 159.05 105.8 159.15 105.95 159.25 106.1 168.85 104.3 178.2 102.4 178.8 102.7 178.65 103.35 178.6 103.5 178.6 103.65 179.3 106.45 179.15 109.5 179 112.4 179 115.3 186.05 115.6 193.15 115.85 194.15 116.4 195.3 116.6
L 195.3 116.65
Q 195.35 116.7 195.45 116.8 195.15 116.75 194.85 116.75 195.05 118.35 195.7 119.9 195.55 120 195.4 120.15 195.35 120.6 195.25 121.05 195.25 121.2 195.2 121.35 193.95 123.1 192.75 124.8 190.9 127.4 189.25 129.65 196.8341796875 132.801953125 204.35 137.7 204.4849609375 137.7748046875 204.6 137.85
M 204.55 142.35
Q 204.55 144.95 204.55 147.5 198.45 146.6 192.65 145.65 193.4 145.4 194.1 145.05 194.15 145 194.15 144.9 194.35 144.25 195.05 143.95 195.25 143.85 195.4 143.7 195.8 143.6 196.2 143.45 196.3 143.45 196.4 143.4 196.85 142.9 197.3 142.5 197.45 142.4 197.55 142.25 198.65 141.75 199.8 141.4 199.9 141.4 200 141.35 200.15 141.25 200.3 141.1 200.45 140.95 200.6 140.8 201.4 140.65 202.15 140.55 203.45 140.35 204.55 139.9 204.55 141.15 204.55 142.35
M 196.65 122.8
Q 196.7 122.9 196.7 123.05 196.7 124.6 196.7 126.2 196.7 127.05 196.7 127.95 197.15 129.55 197 131.3 197 131.45 197 131.65 194.05 130.4 191.7 129.35 191.75 129.2 191.85 129.1 192.1 128.9 192.4 128.75 193.65 127.3 194.65 125.7 195.6 124.2 196.65 122.8
M 79 118.7
Q 79.7375 120.69140625 80.55 122.6 81.9404296875 125.9623046875 83.55 129.15 82.05859375 129.6470703125 80.55 130.1 79.479296875 130.409375 78.4 130.7 78.25 127.8 78.25 124.85 78.2 120.9 78.35 116.95 78.7 117.8 79 118.7
M 66.8 140.45
Q 66.6 140.1 66.6 139.65 66.6 139.6 66.55 139.5 66.7 138.9 66.95 138.35 69.9 141.05 72.5 144.1 73.3 145.6 74.55 146.75 76.3 148.3 76.4 149.85 73.8 150.2 71.25 150.5 71.1 150.45 71 150.45 69.35 150.1 67.7 150.1 67.55 148.45 67.4 146.75 67.05 143.6 66.8 140.45
M 90.8 138.65
Q 90.8 138.9 90.8 139.2 90.8 139.3 90.8 139.4 90.8 139.5 90.8 139.6 90.8 139.8 90.8 140 90.8 140.1 90.8 140.2 90.85 140.3 90.85 140.4 90.95 140.5 91 140.6 91.1 140.7 91.2 140.8 91.35 140.9 91.45 141 94.1 144.75 98.75 145.7 107.5 147.4 115.85 144.7 116.2 144.35 116.6 144 117 143.65 117.25 143.25 117.5 142.9 117.75 142.6 117.8 142.5 117.85 142.4 117.9 142.35 117.95 142.25 117.95 142.15 117.95 142.05 117.95 141.95 117.95 141.85 117.95 141.75 117.95 141.65 117.95 141.55 118 141.45 118.05 141.35 118.1 141.25 118.15 141.15 118.2 141.05 118.2 140.95 118.2 140.85 118.2 140.55 118.2 140.25 118.2 140.15 118.2 140.05 118.2 139.95 118.2 139.85 118.2 139.65 118.2 139.5 118.2 139.4 118.2 139.3 118.2 139.2 118.2 139.1 118.15 139 118.1 138.9 118.05 138.8 118 138.65 117.95 138.6 117.95 138.5 117.95 138.4 117.95 138.3 117.95 138.2 117.95 138.1 117.9 137.9 117.85 137.7 117.85 137.6 117.8 137.5 117.75 137.4 117.75 137.3 117.65 137.2 117.6 137.1 117.5 137 117.35 136.9 117.25 136.8 117.15 136.75 117.05 136.65 116.95 136.55 116.9 136.45 116.9 136.35 116.85 136.25 116.8 136.15 116.75 136.05 116.7 135.95 116.55 135.85 116.45 135.75 116.35 135.65 116.25 135.55 116.05 135.35 115.9 135.15 115.85 135.05 115.75 134.95 115.7 134.85 115.65 134.75 115.5 134.7 115.3 134.65 115.2 134.6 115.15 134.55 115.05 134.5 115 134.45 114.9 134.35 114.85 134.25 114.75 134.15 114.65 134.05 113.45 133.3 112.15 132.8 108.05 131.35 103.65 131.55 97.55 131.8 92.75 135.65 91.710546875 136.4970703125 91.1 137.7 90.937890625 138.058984375 90.8 138.45 90.8 138.55 90.8 138.65
M 92.75 139.5
Q 92.913671875 138.5181640625 93.4 137.7 93.841015625 137.0181640625 94.5 136.45 98.45 133 103.65 132.55 108.7 132.1 112.9 134.8 112.9 134.9 113 135 113.05 135.1 113.15 135.2 113.35 135.3 113.55 135.35 113.65 135.4 113.75 135.5 113.85 135.7 114 135.9 114.2 136.25 114.5 136.5 114.65 136.55 114.7 136.65 114.8 136.85 114.95 137.05 115.15 137.4 115.45 137.65 115.4875 137.675 115.5 137.7 115.625 137.775 115.7 137.85 115.75 137.95 115.8 138.05 115.85 138.15 115.9 138.25 115.95 138.35 115.95 138.45 115.95 138.55 115.95 138.65 115.95 138.8 115.95 139 115.95 139.1 115.95 139.2 115.95 139.3 115.95 139.4 116.1 139.6 116.2 139.8 116.25 139.9 116.25 140 116.25 140.1 116.25 140.2 116.25 140.3 116.2 140.35 116.05 140.65 116 141 115.95 141.3 115.95 141.55 115.95 141.65 115.9 141.75 115.75 141.95 115.55 142.15 112.05 146.25 106.05 145.05 104.75 144.4 103.25 144.8 101.05 145.35 98.05 144.1 94.6 142.6 92.75 139.5
M 173.6 133.5
Q 173.5 133.5 173.45 133.45 172.4 132.3 170.85 131.7 166.8 130.15 162.3 130.7 158 131.3 154.3 133.65 153 134.45 151.95 135.55 151.9 135.65 151.85 135.75 151.8 135.85 151.75 135.95 151.7 136.05 151.6 136.15 151.6 136.55 151.6 136.9 151.6 137.3 151.6 137.7 151.6 137.8 151.6 137.9 151.6 138.4 151.6 138.9 151.6 139 151.6 139.1 151.8 139.4 152.05 139.65 152.1 139.75 152.2 139.85 152.3 139.95 152.4 140.05 153.6 142.95 156.7 143.65 165.6 145.6 174.6 142.55 175.55 141.85 176.25 140.95 176.85 140.2 177.1 139.4 177.15 139.3 177.2 139.2 177.2 139.1 177.2 139 177.2 138.75 177.2 138.45 177.2 138.25 177.2 138.05 177.2 137.95 177.2 137.85 177.125 137.775 177.05 137.7 177.0625 137.675 177.05 137.65 177 137.55 176.9 137.45 176.9 137.25 176.9 137.05 176.9 136.95 176.85 136.9 176.8 136.75 176.65 136.65 176.65 136.45 176.65 136.25 176.6 136.15 176.6 136.05 176.55 135.95 176.5 135.85 176.1 135.55 175.75 135.15 175.1 134.5 174.45 133.9 174.35 133.8 174.3 133.7 174.1 133.65 173.9 133.6 173.75 133.55 173.6 133.5
M 172.45 134.45
Q 172.55 134.8 172.85 135 173.9 135.75 174.6 136.75 174.65 136.8 174.65 136.9 174.7 137 174.7 137.1 174.7 137.2 174.7 137.3 174.9103515625 137.475390625 175 137.7 175.03515625 137.7955078125 175.05 137.9 175.1 138.3 175.15 138.7 175.05 138.9 175 139.1 174.9 139.3 174.9 139.5 174.65 139.75 174.5 140 173.75 141.1 172.7 141.85 165.2 144.2 157.5 142.9 157.4 142.8 157.25 142.75 156.5 142.2 155.85 141.65 154.75 140.7 154.35 139.4 154.2 139.2 154 139 153.8 138.7 153.6 138.45 153.6 138.075 153.55 137.7 153.5625 137.575 153.55 137.45 153.55 136.95 153.7 136.45 154.8 135.25 156.15 134.4 159.488671875 132.220703125 163.4 131.5 163.737890625 131.447265625 164.05 131.4 164.46328125 131.439453125 164.85 131.45 165.51328125 131.558984375 166.15 131.65 169.3 132.1 171.6 134.15 171.85 134.25 172.05 134.3 172.25 134.35 172.45 134.45 Z" stroke="none" fill="#000000"></path>

<path d="M 66.6 139.65
Q 66.6 140.1 66.8 140.45 67.05 143.6 67.4 146.75 67.55 148.45 67.7 150.1 69.35 150.1 71 150.45 71.1 150.45 71.25 150.5 73.8 150.2 76.4 149.85 76.3 148.3 74.55 146.75 73.3 145.6 72.5 144.1 69.9 141.05 66.95 138.35 66.7 138.9 66.55 139.5 66.6 139.6 66.6 139.65
M 80.55 122.6
Q 79.7375 120.69140625 79 118.7 78.7 117.8 78.35 116.95 78.2 120.9 78.25 124.85 78.25 127.8 78.4 130.7 79.479296875 130.409375 80.55 130.1 82.05859375 129.6470703125 83.55 129.15 81.9404296875 125.9623046875 80.55 122.6
M 196.7 123.05
Q 196.7 122.9 196.65 122.8 195.6 124.2 194.65 125.7 193.65 127.3 192.4 128.75 192.1 128.9 191.85 129.1 191.75 129.2 191.7 129.35 194.05 130.4 197 131.65 197 131.45 197 131.3 197.15 129.55 196.7 127.95 196.7 127.05 196.7 126.2 196.7 124.6 196.7 123.05
M 204.55 147.5
Q 204.55 144.95 204.55 142.35 204.55 141.15 204.55 139.9 203.45 140.35 202.15 140.55 201.4 140.65 200.6 140.8 200.45 140.95 200.3 141.1 200.15 141.25 200 141.35 199.9 141.4 199.8 141.4 198.65 141.75 197.55 142.25 197.45 142.4 197.3 142.5 196.85 142.9 196.4 143.4 196.3 143.45 196.2 143.45 195.8 143.6 195.4 143.7 195.25 143.85 195.05 143.95 194.35 144.25 194.15 144.9 194.15 145 194.1 145.05 193.4 145.4 192.65 145.65 198.45 146.6 204.55 147.5
M 93.4 137.7
Q 92.913671875 138.5181640625 92.75 139.5 94.6 142.6 98.05 144.1 101.05 145.35 103.25 144.8 104.75 144.4 106.05 145.05 112.05 146.25 115.55 142.15 115.75 141.95 115.9 141.75 115.95 141.65 115.95 141.55 115.95 141.3 116 141 116.05 140.65 116.2 140.35 116.25 140.3 116.25 140.2 116.25 140.1 116.25 140 116.25 139.9 116.2 139.8 116.1 139.6 115.95 139.4 115.95 139.3 115.95 139.2 115.95 139.1 115.95 139 115.95 138.8 115.95 138.65 115.95 138.55 115.95 138.45 115.95 138.35 115.9 138.25 115.85 138.15 115.8 138.05 115.75 137.95 115.7 137.85 115.625 137.775 115.5 137.7 115.4875 137.675 115.45 137.65 115.15 137.4 114.95 137.05 114.8 136.85 114.7 136.65 114.65 136.55 114.5 136.5 114.2 136.25 114 135.9 113.85 135.7 113.75 135.5 113.65 135.4 113.55 135.35 113.35 135.3 113.15 135.2 113.05 135.1 113 135 112.9 134.9 112.9 134.8 108.7 132.1 103.65 132.55 98.45 133 94.5 136.45 93.841015625 137.0181640625 93.4 137.7
M 172.85 135
Q 172.55 134.8 172.45 134.45 172.25 134.35 172.05 134.3 171.85 134.25 171.6 134.15 169.3 132.1 166.15 131.65 165.51328125 131.558984375 164.85 131.45 164.46328125 131.439453125 164.05 131.4 163.737890625 131.447265625 163.4 131.5 159.488671875 132.220703125 156.15 134.4 154.8 135.25 153.7 136.45 153.55 136.95 153.55 137.45 153.5625 137.575 153.55 137.7 153.6 138.075 153.6 138.45 153.8 138.7 154 139 154.2 139.2 154.35 139.4 154.75 140.7 155.85 141.65 156.5 142.2 157.25 142.75 157.4 142.8 157.5 142.9 165.2 144.2 172.7 141.85 173.75 141.1 174.5 140 174.65 139.75 174.9 139.5 174.9 139.3 175 139.1 175.05 138.9 175.15 138.7 175.1 138.3 175.05 137.9 175.03515625 137.7955078125 175 137.7 174.9103515625 137.475390625 174.7 137.3 174.7 137.2 174.7 137.1 174.7 137 174.65 136.9 174.65 136.8 174.6 136.75 173.9 135.75 172.85 135 Z" stroke="none" fill="#EE9D33"></path>

<path d="M 203.3 138.5
Q 203.85 138.2 204.6 137.85 204.4849609375 137.7748046875 204.35 137.7 196.8341796875 132.801953125 189.25 129.65 190.9 127.4 192.75 124.8 193.95 123.1 195.2 121.35 195.25 121.2 195.25 121.05 195.35 120.6 195.4 120.15 195.55 120 195.7 119.9 195.05 118.35 194.85 116.75 195.15 116.75 195.45 116.8 195.35 116.7 195.3 116.65
L 195.3 116.6
Q 194.15 116.4 193.15 115.85 186.05 115.6 179 115.3 179 112.4 179.15 109.5 179.3 106.45 178.6 103.65 178.6 103.5 178.65 103.35 178.8 102.7 178.2 102.4 168.85 104.3 159.25 106.1 159.15 105.95 159.05 105.8 158.6 104.9 158.3 103.95 158.2 103.8 158.1 103.65 158.1 103.5 158.05 103.35 157.9 102.9 157.7 102.4 157.7 102.25 157.7 102.1 157.7 101.35 157.7 100.6 157.7 100.1 157.7 99.65 157.6 99.5 157.55 99.35 157.25 98.45 157.1 97.5 157.05 97.2 156.9 96.9 156.9 96.75 156.9 96.6 156.9 96.1 156.9 95.65 156.8 95.5 156.7 95.35 156.6 95.2 156.5 95.05 156.5 94.9 156.5 94.75 156.55 94.15 156.05 93.8 152.9712890625 95.0314453125 149.9 96.45 144.9904296875 98.7703125 140.1 101.6
L 140.1 101.65
Q 138.85 101.65 137.65 101.6 137.5 101.45 137.35 101.3 137.3 101.2 137.25 101.1 137.2 101.05 137.1 101 136.75 100.9 136.4 100.8 136.4 100.65 136.35 100.5 135.75 99.4 134.75 98.65 134.75 98.5 134.7 98.4 134.15 97.65 133.45 97.1 133.15 96.5 132.9 95.85 132.45 94.5 131.5 93.4 131.5 93.25 131.45 93.1 131.45 92.95 131.4 92.8 131.2 92.5 130.95 92.2 130.1 91.2 129.55 90 129.5 89.9 129.45 89.7 129.4 89.6 129.35 89.6 128.95 89.55 128.5 89.6 123.65 94.15 119.65 99.45 118.1 101.5 116.85 103.75 115.05 103.9 113.25 104.05 110.05 102.05 106.85 99.9 106.2 99.4 105.7 98.75 103.5 97.35 101.35 95.85 100.6 95.35 99.85 94.85 99.05 100.2 99.1 105.9 99.15 110.05 99.15 114.2 99.15 114.5 99.15 114.8 89.99375 114.5734375 80.55 112.3 79.5765625 112.05703125 78.6 111.8 78.6 111.9 78.6 112
L 78.6 112.05
Q 78.7 112.35 78.75 112.65 78.85 112.8 78.95 112.95 79.2 113.3 79.45 113.6 79.9888671875 115.2166015625 80.55 116.8 81.446484375 119.397265625 82.4 121.95 83.65 125.15 85.5 128 85.55 128.15 85.6 128.35 85.6 128.8 85.6 129.25 85.6 129.4 85.6 129.55 83.1357421875 130.5021484375 80.55 131.3 73.9017578125 133.4400390625 66.45 134.7 66.55 134.85 66.7 134.95 66.8 135.05 66.85 135.15 67.35 135.15 67.85 135.25
L 67.85 135.35
Q 67.9 135.85 67.75 136.35 68.518359375 137.01328125 69.25 137.7 73.1388671875 141.2587890625 76.45 145.45 78 147.5 79.05 149.75 76.55 151.4 72.4 151.75 67.55 152.1 63.1 152.15 62.5 152.35 61.9 152.65 61.85 152.75 61.85 152.85 61.8 153.05 61.8 153.25 61.85 153.45 61.85 153.65 61.85 153.75 61.85 153.85 62.2 153.85 62.6 153.9
L 62.6 154
Q 62.6 154.15 62.6 154.25 71.494140625 154.3216796875 80.55 154.25 92.875390625 154.15703125 105.5 153.8 117.8 153.45 130.15 153.45 140.044140625 153.4197265625 149.9 153.25 180.2068359375 152.86015625 210.15 151.4 210.15 150.5333984375 210.15 149.65 210.15 149.45 210.15 149.3 199.9 147.7 189.65 146.35 189.65 146.2 189.7 146.1 190.15 145.35 190.8 144.8 190.9 144.7 191 144.6 191.05 144.55 191.1 144.55 191.6 144.4 192.1 144.3 192.15 144.15 192.25 144.05 192.85 143.4 193.55 142.85 193.95 142.75 194.35 142.65 195.3 141.6 196.65 141.15 197.8 140.8 198.75 140.1 201.2 139.65 203.3 138.5
M 173.45 133.45
Q 173.5 133.5 173.6 133.5 173.75 133.55 173.9 133.6 174.1 133.65 174.3 133.7 174.35 133.8 174.45 133.9 175.1 134.5 175.75 135.15 176.1 135.55 176.5 135.85 176.55 135.95 176.6 136.05 176.6 136.15 176.65 136.25 176.65 136.45 176.65 136.65 176.8 136.75 176.85 136.9 176.9 136.95 176.9 137.05 176.9 137.25 176.9 137.45 177 137.55 177.05 137.65 177.0625 137.675 177.05 137.7 177.125 137.775 177.2 137.85 177.2 137.95 177.2 138.05 177.2 138.25 177.2 138.45 177.2 138.75 177.2 139 177.2 139.1 177.2 139.2 177.15 139.3 177.1 139.4 176.85 140.2 176.25 140.95 175.55 141.85 174.6 142.55 165.6 145.6 156.7 143.65 153.6 142.95 152.4 140.05 152.3 139.95 152.2 139.85 152.1 139.75 152.05 139.65 151.8 139.4 151.6 139.1 151.6 139 151.6 138.9 151.6 138.4 151.6 137.9 151.6 137.8 151.6 137.7 151.6 137.3 151.6 136.9 151.6 136.55 151.6 136.15 151.7 136.05 151.75 135.95 151.8 135.85 151.85 135.75 151.9 135.65 151.95 135.55 153 134.45 154.3 133.65 158 131.3 162.3 130.7 166.8 130.15 170.85 131.7 172.4 132.3 173.45 133.45
M 90.8 139.2
Q 90.8 138.9 90.8 138.65 90.8 138.55 90.8 138.45 90.937890625 138.058984375 91.1 137.7 91.710546875 136.4970703125 92.75 135.65 97.55 131.8 103.65 131.55 108.05 131.35 112.15 132.8 113.45 133.3 114.65 134.05 114.75 134.15 114.85 134.25 114.9 134.35 115 134.45 115.05 134.5 115.15 134.55 115.2 134.6 115.3 134.65 115.5 134.7 115.65 134.75 115.7 134.85 115.75 134.95 115.85 135.05 115.9 135.15 116.05 135.35 116.25 135.55 116.35 135.65 116.45 135.75 116.55 135.85 116.7 135.95 116.75 136.05 116.8 136.15 116.85 136.25 116.9 136.35 116.9 136.45 116.95 136.55 117.05 136.65 117.15 136.75 117.25 136.8 117.35 136.9 117.5 137 117.6 137.1 117.65 137.2 117.75 137.3 117.75 137.4 117.8 137.5 117.85 137.6 117.85 137.7 117.9 137.9 117.95 138.1 117.95 138.2 117.95 138.3 117.95 138.4 117.95 138.5 117.95 138.6 118 138.65 118.05 138.8 118.1 138.9 118.15 139 118.2 139.1 118.2 139.2 118.2 139.3 118.2 139.4 118.2 139.5 118.2 139.65 118.2 139.85 118.2 139.95 118.2 140.05 118.2 140.15 118.2 140.25 118.2 140.55 118.2 140.85 118.2 140.95 118.2 141.05 118.15 141.15 118.1 141.25 118.05 141.35 118 141.45 117.95 141.55 117.95 141.65 117.95 141.75 117.95 141.85 117.95 141.95 117.95 142.05 117.95 142.15 117.95 142.25 117.9 142.35 117.85 142.4 117.8 142.5 117.75 142.6 117.5 142.9 117.25 143.25 117 143.65 116.6 144 116.2 144.35 115.85 144.7 107.5 147.4 98.75 145.7 94.1 144.75 91.45 141 91.35 140.9 91.2 140.8 91.1 140.7 91 140.6 90.95 140.5 90.85 140.4 90.85 140.3 90.8 140.2 90.8 140.1 90.8 140 90.8 139.8 90.8 139.6 90.8 139.5 90.8 139.4 90.8 139.3 90.8 139.2 Z" stroke="none" fill="#FDDF5E"></path>
</g>
</g>
</g>
</g>
</svg>
