
<svg viewBox="0 0 80 70" height="70px" width="80px" y="0px" x="0px" preserveAspectRatio="none" xmlns:xlink="http://www.w3.org/1999/xlink" version="1.1" xmlns="http://www.w3.org/2000/svg">
<defs></defs>

<g id="Layer_2">
<g transform="matrix( 0.2443389892578125, 0, 0, 0.2443389892578125, -5.6,-13.9)" id="Layer_1">
<g>
<g>
<g>
<path d="M 253 340
Q 248.6 339.9 245 339 247.6 341.9 253.9 340.5 254 340.5 254 340 253.5 340 253 340 Z" stroke="none" fill="#243B44"></path>

<path d="M 258 330
Q 257.5 330 257 330 257 330.5 257.05 331 257.7 335.2 256 337 256 337.5 256 338 256 338.5 256 339 259.1 337.1 258.1 331 258 330.5 258 330 Z" stroke="none" fill="#0F2A34"></path>

<path d="M 255.15 300.75
Q 255.5 301 256 301 256 300.5 255.75 300.3 250.5 296.1 243 299 243 299.5 243 300 250.1 297.3 255.15 300.75 Z" stroke="none" fill="#543205"></path>

<path d="M 258 306
Q 258 305.5 258 305 258 304.5 257.8 304.1 257.5 303.5 257 303 257 316 257 329 257 329.5 257 330 257.5 330 258 330 258 329.5 258 329 258 318 258 307 258 306.5 258 306 Z" stroke="none" fill="#384D53"></path>

<path d="M 280 303
Q 279.5 303 279.05 303.1 270 305.5 258 305 258 305.5 258 306 258 306.5 258 307 265 307 272 307 272.5 307 273 307 275.4 304.4 279.9 303.5 280 303.5 280 303 Z" stroke="none" fill="#706F62"></path>

<path d="M 295 301
Q 295.5 301 296 301 296 300.5 295.75 300.25 295.5 300 295 300 294.5 300 294.25 299.75 291.35 297.05 288 300 288 300.5 288 301 291.5 301 295 301 Z" stroke="none" fill="#647271"></path>

<path d="M 171 299
Q 171.5 299 172 299 172 298.5 171.8 298.35 169 296.65 166 298 166 298.5 166 299 167.5 299 169 299 169.5 299 170 299 170.5 299 171 299 Z" stroke="none" fill="#826B54"></path>

<path d="M 194 301
Q 195.5 301 197 301 197.5 301 198 301 198 300.5 197.8 300.35 195.5 298.95 192 299 191.9 300.65 194 300.5
L 194 301 Z" stroke="none" fill="#846B54"></path>

<path d="M 193 301.05
Q 193.5 301 194 301
L 194 300.5
Q 191.9 300.65 192 299 191.5 299 191 299 180 298.55 172 299 171.5 299 171 299 170.5 299 170 299 179.15 302.35 193 301.05 Z" stroke="none" fill="#706F61"></path>

<path d="M 242 319
Q 242 326 242.5 332.95 242.5 333 243 333 243 332.5 243.05 332 243.75 324.25 242 319 Z" stroke="none" fill="#122E36"></path>

<path d="M 210 303
Q 210 302.5 210 302 210 301.5 210 301 209.5 301 209 301 203.5 301 198 301 197.5 301 197 301 195.5 301 194 301 199.3 304.2 209 303.05 209.5 303 210 303 Z" stroke="none" fill="#6C7169"></path>

<path d="M 242 305
Q 242 311.5 242 318 242 318.5 242 319 243.75 324.25 243.05 332 243 332.5 243 333 241.8 337.7 244.9 338.45 245 338.5 245 339 248.6 339.9 253 340 253.5 340 254 340 254 339.5 254 339 254.5 339 255 339 255.5 339 256 339 256 338.5 256 338 256 337.5 256 337 257.7 335.2 257.05 331 257 330.5 257 330 257 329.5 257 329 257 316 257 303 257 302.5 256.8 302.1 256.5 301.5 256 301 255.5 301 255.15 300.75 250.1 297.3 243 300 243 300.5 243.1 300.95 243.65 303.15 242 303 242 303.5 242 304 242 304.5 242 305 Z" stroke="none" fill="#05060E"></path>

<path d="M 241 304.95
Q 241.5 305 242 305 242 304.5 242 304 242 303.5 242 303 241.5 303 241 302.95 225.4 302.1 210 301 210 301.5 210 302 210 302.5 210 303 225.5 304 241 304.95 Z" stroke="none" fill="#786C5C"></path>

<path d="M 221 290
Q 220.5 290 220 290 215.5 290 211 290 214.25 291.75 220 291.05 220.5 291 221 291 221 290.5 221 290 Z" stroke="none" fill="#C5971D"></path>

<path d="M 210 289
Q 210 289.5 210 290 210.5 290 211 290 215.5 290 220 290 220.5 290 221 290 221.5 290 221.55 289.85 222 288.4 210 289 Z" stroke="none" fill="#FFD15C"></path>

<path d="M 202 289
Q 201.5 289 201 289 203.75 290.75 209 290.05 209.5 290 210 290 210 289.5 210 289 209.5 289 209 289 205.5 289 202 289 Z" stroke="none" fill="#C18F2B"></path>

<path d="M 191 287
Q 191 287.5 191 288 194.95 289.05 200 289 200.5 289 201 289 201.5 289 202 289 202 288.5 201.8 288.4 197.75 286.25 191 287 Z" stroke="none" fill="#F5CC52"></path>

<path d="M 186 288
Q 185.5 288 185 288 176.55 288.45 170 287 197.7 294.15 237 293 237.5 293 238 293 238 292.5 238 292 237.5 292 237 292 228.35 292.15 221 291 220.5 291 220 291.05 214.25 291.75 211 290 210.5 290 210 290 209.5 290 209 290.05 203.75 290.75 201 289 200.5 289 200 289 194.95 289.05 191 288 190.5 288 190 288 188 288 186 288 Z" stroke="none" fill="#9F6804"></path>

<path d="M 165 286
Q 165 286.5 165 287 167 287 169 287 169.5 287 170 287 176.55 288.45 185 288 185.5 288 186 288 186 287.5 185.95 287.5 175.25 286.75 165 286 Z" stroke="none" fill="#BF8C1E"></path>

<path d="M 308 291
Q 307.5 291 307 291 307 294.5 307 298 307 298.5 307 299 308.75 296.75 308.05 292 308 291.5 308 291 Z" stroke="none" fill="#04252B"></path>

<path d="M 307 285
Q 306.5 285 306.4 285.2 302.45 294.5 295 299 295 299.5 295 300 295.5 300 295.75 300.25 296 300.5 296 301 302.75 303.85 306.75 299.75 307 299.5 307 299 307 298.5 307 298 307 294.5 307 291 307.5 291 308 291 308 290.5 307.95 290 307.8 287.2 307 285 Z" stroke="none" fill="#05090F"></path>

<path d="M 310 279
Q 309.5 279 309 279 309 280.5 309 282 309 282.5 309 283 309 284.5 309 286 309 286.5 309 287 310.75 284.75 310.05 280 310 279.5 310 279 Z" stroke="none" fill="#47605F"></path>

<path d="M 308 283
Q 308 283.5 307.8 283.9 307.5 284.5 307 285 307.8 287.2 307.95 290 308 290.5 308 291 309.7 290.7 309.1 288 309 287.5 309 287 309 286.5 309 286 309 284.5 309 283 308.5 283 308 283 Z" stroke="none" fill="#0E2B32"></path>

<path d="M 308 279
L 307.5 279
Q 307.65 281.15 306 281 305.4 283.15 307 283.05 307.5 283 308 283 308.5 283 309 283 309 282.5 309 282 309 280.5 309 279 308.5 279 308 279 Z" stroke="none" fill="#081519"></path>

<path d="M 306 275
Q 306 274.5 306.1 274.05 306.95 270.6 304 271 304 272.5 304 274 304 274.5 304 275 304.5 275 305 275 305.5 275 306 275 Z" stroke="none" fill="#7F6757"></path>

<path d="M 290 296
Q 290 296.5 289.75 296.65 286.15 299.15 282 301 282 301.5 282 302 282 302.5 282 303 286.2 303.7 287.75 301.8 288 301.5 288 301 288 300.5 288 300 291.35 297.05 294.25 299.75 294.5 300 295 300 295 299.5 295 299 294.5 299 294.3 298.75 292.8 296.7 290 296 Z" stroke="none" fill="#66665A"></path>

<path d="M 298 273
Q 297.5 273 297 273.05 294.45 273.45 293 275 293 276 293.4 276.8 293.5 277 294 277 294 276.5 294 276 295.45 274.45 297.85 273.55 298 273.5 298 273 Z" stroke="none" fill="#AA852F"></path>

<path d="M 293.95 280
Q 294 279.5 294 279 293.5 279 293.3 279.25 290.85 281.95 287 280 293.05 286.25 293.95 280 Z" stroke="none" fill="#705215"></path>

<path d="M 301 267
Q 301 267.5 301 268 305.95 264.95 303.6 260.2 303.5 260 303 260 303 260.5 303.1 261 303.75 265.25 301 266 301 266.5 301 267 Z" stroke="none" fill="#A26B05"></path>

<path d="M 312 271
Q 311.5 271 311.3 271.25 309.15 273.65 306 275 305.8 277.7 307.85 278.45 308 278.5 308 279 308.5 279 309 279 309.5 279 310 279 310 278.5 310 278 310 276.5 310 275 312.2 274.7 312.05 272 312 271.5 312 271 Z" stroke="none" fill="#6F6B63"></path>

<path d="M 275 292
Q 274.5 292 274 292.1 256.85 295.35 238 292 238 292.5 238 293 256.6 297.8 274.85 292.55 275 292.5 275 292 Z" stroke="none" fill="#A97309"></path>

<path d="M 277.15 287.75
Q 275.95 287.05 274 287 274 289 274.45 290.9 274.5 291 275 291 279.4 290.45 278.25 288.85 278 288.5 278 288 277.5 288 277.15 287.75 Z" stroke="none" fill="#E4CA61"></path>

<path d="M 264 287
Q 268.5 287 273 287 273.5 287 274 287 274 286.5 273.85 286.45 269.35 285.15 264 285 264 285.5 264 286 264 286.5 264 287 Z" stroke="none" fill="#BA9A55"></path>

<path d="M 275 275
Q 274.5 275 274 275 278.1 277.9 284 278.9 284.5 279 285 279 285 278.5 284.85 278.45 280.1 276.9 276 275 275.5 275 275 275 Z" stroke="none" fill="#775C09"></path>

<path d="M 261 284
Q 260.5 284 260.05 283.85 259 283.5 258 283 258.6 286.9 263 287 263.5 287 264 287 264 286.5 264 286 264 285.5 264 285 263.5 285 263.5 284.9 263.15 283.4 261 284 Z" stroke="none" fill="#ECCA5E"></path>

<path d="M 258 275
Q 258 275.5 257.75 275.75 257.5 276 257 276 256.8 278.75 257.75 280.15 258 280.5 258 281 259.5 282 260.75 283.25 261 283.5 261 284 263.15 283.4 263.5 284.9 263.5 285 264 285 269.35 285.15 273.85 286.45 274 286.5 274 287 275.95 287.05 277.15 287.75 277.5 288 278 288 284.2 291.3 289.75 295.35 290 295.5 290 296 292.8 296.7 294.3 298.75 294.5 299 295 299 302.45 294.5 306.4 285.2 306.5 285 307 285 307.5 284.5 307.8 283.9 308 283.5 308 283 307.5 283 307 283.05 305.4 283.15 306 281 307.65 281.15 307.5 279
L 308 279
Q 308 278.5 307.85 278.45 305.8 277.7 306 275 305.5 275 305 275 304.5 275 304 275 303.5 275 303.4 274.8 302.25 272.25 298 273 298 273.5 297.85 273.55 295.45 274.45 294 276 294 276.5 294 277 294 277.5 294 278 294 278.5 294 279 294 279.5 293.95 280 293.05 286.25 287 280 286.5 280 286.1 279.8 285.5 279.5 285 279 284.5 279 284 278.9 278.1 277.9 274 275 274 274.5 273.9 274.45 272 274 270 274 269.5 274 269 274 264 274 259 274 258.5 274 258 274 258 274.5 258 275 Z" stroke="none" fill="#1D0802"></path>

<path d="M 257.75 275.75
Q 258 275.5 258 275 257.5 275 257 275 256.5 275 256 275 255.55 278.95 257.25 280.75 257.5 281 258 281 258 280.5 257.75 280.15 256.8 278.75 257 276 257.5 276 257.75 275.75 Z" stroke="none" fill="#A87E0E"></path>

<path d="M 259 273
Q 259 273.5 259 274 264 274 269 274 269.5 274 270 274 270 273.5 269.95 273.5 265.5 273 261 273 260.5 273 260 273 259.5 273 259 273 Z" stroke="none" fill="#786108"></path>

<path d="M 260 271
Q 260.5 271.5 260.8 272.1 261 272.5 261 273 265.5 273 269.95 273.5 270 273.5 270 274 272 274 273.9 274.45 274 274.5 274 275 274.5 275 275 275 275.5 275 276 275 276 274.5 275.9 274 274.85 269.35 260 271 Z" stroke="none" fill="#EBD059"></path>

<path d="M 318 243
Q 317.5 243 317 243 316.5 243 316 243 316 248.5 316 254 316 254.5 316 255 319.4 251.9 318.1 244 318 243.5 318 243 Z" stroke="none" fill="#66726D"></path>

<path d="M 307 229
Q 306.5 229 306.5 229.05 305.8 242.8 304 255 304 256.5 304 258 304 258.5 304 259 306.3 248.3 307.95 237 308 236.5 308 236 307.5 236 307.5 235.95 307 232.5 307 229 Z" stroke="none" fill="#A56A0C"></path>

<path d="M 317.1 229.2
Q 316.5 229.5 316 230 316 236 316 242 316 242.5 316 243 316.5 243 317 243 317.5 243 318 243 318 242.5 318 242 318 241 318 240 318 239.5 318 239 318 234 318 229 317.5 229 317.1 229.2 Z" stroke="none" fill="#726650"></path>

<path d="M 320.05 208
Q 320 207.5 320 207 319.5 207 319 207 318.5 207 318 207 318 214.5 318 222 318 222.5 318 223 321.45 217.95 320.05 208 Z" stroke="none" fill="#6A6250"></path>

<path d="M 308 215
Q 307.5 215 307 215 307 221.5 307 228 307 228.5 307 229 307 232.5 307.5 235.95 307.5 236 308 236 308 235.5 308 235 308 225 308 215 Z" stroke="none" fill="#A36906"></path>

<path d="M 133.5 326
Q 133.7 329.7 132 331 131.7 335.8 133.4 338.8 133.5 339 134 339 134 338.5 134 338 134 332 134 326
L 133.5 326 Z" stroke="none" fill="#03212C"></path>

<path d="M 135.75 325.75
Q 135.5 326 135 326 146.75 343.95 144.1 328 144 327.5 144 327 144 326.5 143.9 326.05 141.6 316.4 136 325 136 325.5 135.75 325.75 Z" stroke="none" fill="#030305"></path>

<path d="M 135 319
Q 134.5 319 134 319 134 322 134 325 134 325.5 134 326 134 332 134 338 134 338.5 134 339 149.75 344.6 150 325 150 324.5 150 324 149.5 324 149.4 324.2 147.85 327.25 144 327 144 327.5 144.1 328 146.75 343.95 135 326 135.5 326 135.75 325.75 136 325.5 136 325 136 324.5 135.75 324.15 134.65 322.35 135 319 Z" stroke="none" fill="#02131E"></path>

<path d="M 145 297
Q 148.35 304.3 151.8 297.9 152 297.5 152 297
L 151.5 297
Q 152.5 294.8 145 297
M 204 237
Q 203.5 237 203.2 236.75 199.2 233.8 191 235 191 235.5 191.25 235.7 197.55 241.1 204 237
M 206.1 131.5
Q 213 133.1 206 131 206 131.5 206.1 131.5 Z" stroke="none" fill="#030202"></path>

<path d="M 159 299
Q 158.5 299 158.4 298.8 156.9 296.1 152 297 152 297.5 151.8 297.9 148.35 304.3 145 297 144.5 297 144 297 143.5 297 143 297 143 297.5 143.1 297.95 143.65 300.15 142 300 142 300.5 141.9 300.95 139.6 309.6 135 316 135 317 135 318 135 318.5 135 319 134.65 322.35 135.75 324.15 136 324.5 136 325 141.6 316.4 143.9 326.05 144 326.5 144 327 147.85 327.25 149.4 324.2 149.5 324 150 324 153.75 313.75 157.8 303.95 158 303.5 158 303 158 302.5 158 302 158 301 158 300 158.5 300 158.75 299.75 159 299.5 159 299
M 144.2 305.6
Q 144 305.5 144 305 154.9 310.2 144.2 305.6 Z" stroke="none" fill="#020B15"></path>

<path d="M 144 305
Q 144 305.5 144.2 305.6 154.9 310.2 144 305 Z" stroke="none" fill="#0B0110"></path>

<path d="M 159 298
Q 159 298.5 159 299 159 299.5 158.75 299.75 158.5 300 158 300 158 301 158 302 158 302.5 158 303 159.05 300.55 161.85 299.55 162 299.5 162 299 162 298.5 161.8 298.1 161 296.1 159 298 Z" stroke="none" fill="#586058"></path>

<path d="M 64.05 270.9
Q 64.5 271 65 271 65 270.5 64.85 270.45 62.85 269.75 62 259 67.75 257.8 67.1 254.95 67 254.5 67 254 66.5 254 66.25 254.25 62.45 257.95 59 262 58.45 269.55 64.05 270.9 Z" stroke="none" fill="#081D2C"></path>

<path d="M 142.9 296.5
Q 135.1 294.95 124 293 132.5 298.6 141.95 299.5 142 299.5 142 300 143.65 300.15 143.1 297.95 143 297.5 143 297 143 296.5 142.9 296.5 Z" stroke="none" fill="#6C6C5E"></path>

<path d="M 160 286.05
Q 160.5 286 161 286 161 285.5 160.9 285.5 158.5 285 156 285 155.5 285 155 285 154 285 153 285 155.25 286.75 160 286.05 Z" stroke="none" fill="#C2922D"></path>

<path d="M 146 290
Q 146 290.5 146 291 150 291 154 291 154.5 291 155 291 155 290.5 154.95 290.5 150.5 290 146 290 Z" stroke="none" fill="#613D04"></path>

<path d="M 144 293
Q 144 294.5 144 296 144 296.5 144 297 144.5 297 145 297 152.5 294.8 151.5 297
L 152 297
Q 156.9 296.1 158.4 298.8 158.5 299 159 299 159 298.5 159 298 159 297.5 159.1 297 160.4 290.6 155 291 154.5 291 154 291 150 291 146 291 146 291.5 145.75 291.75 145 292.5 144 293 Z" stroke="none" fill="#210800"></path>

<path d="M 122 277
Q 122 277.5 122 278 125.6 279.9 129.1 281.8 129.5 282 130 282 139.75 284.75 152 285 152.5 285 153 285 154 285 155 285 155.5 285 156 285 156 284.5 155.95 284.5 135.85 282.15 122 277 Z" stroke="none" fill="#F6C954"></path>

<path d="M 124 293
Q 124 292.5 123.85 292.05 123.2 290.3 120 291 119.6 293.95 123.05 293.1 123.5 293 124 293 Z" stroke="none" fill="#716E5F"></path>

<path d="M 130 282
Q 130 282.5 130 283 142.9 289.1 164 287.05 164.5 287 165 287 165 286.5 165 286 164.5 286 164 286 162.5 286 161 286 160.5 286 160 286.05 155.25 286.75 153 285 152.5 285 152 285 139.75 284.75 130 282 Z" stroke="none" fill="#A56E08"></path>

<path d="M 120 291
Q 120 290.5 119.8 290.35 116.9 288.65 114 287 113.85 291.7 119 291.05 119.5 291 120 291 Z" stroke="none" fill="#716F5B"></path>

<path d="M 92 261
Q 92.5 263 92.5 265
L 92 265
Q 92 266.5 92 268 92 268.5 92 269 92.5 269 93 269 93.5 269 94 269 94 268.5 94.1 268 95.3 262.2 92 261 Z" stroke="none" fill="#71695B"></path>

<path d="M 111.4 269.8
Q 110.7 268.3 109 268 108.5 268 108 268 109.55 277.85 129.05 282.9 129.5 283 130 283 130 282.5 130 282 129.5 282 129.1 281.8 125.6 279.9 122 278 121.5 278 121.1 277.8 117.3 276.2 115 273 114.5 273 114.25 272.75 113 271.5 112 270 111.5 270 111.4 269.8 Z" stroke="none" fill="#A86F0B"></path>

<path d="M 112 269
Q 112 269.5 112 270 113 271.5 114.25 272.75 114.5 273 115 273
L 115.5 273
Q 115.35 269.65 112 269 Z" stroke="none" fill="#F9C854"></path>

<path d="M 109 268
Q 109 267.5 108.8 267.05 106.95 262.55 103 260 103 259.5 102.95 259 102.45 253.55 100 250 101.35 262.35 107.25 267.75 107.5 268 108 268 108.5 268 109 268 Z" stroke="none" fill="#B17816"></path>

<path d="M 82 241
Q 81.5 241 81 241.05 78.45 241.45 77 243 77 243.5 77 244 80 243.5 81.75 241.75 82 241.5 82 241 Z" stroke="none" fill="#17343B"></path>

<path d="M 90 239
Q 90 239.5 90.1 240 90.5 241.95 88 243 88.05 246.5 90 246.5
L 90 247
Q 94.1 248.1 94.5 245.05 94.5 245 95 245 95 244.5 95.05 244 95.5 239.95 90 239 Z" stroke="none" fill="#210702"></path>

<path d="M 90.1 240
Q 90 239.5 90 239 89.5 239 89.15 238.75 87.95 238.05 86 238 85.5 238 85.15 238.25 83.95 238.95 82 239 82 239.5 82 240 82 240.5 82 241 82 241.5 81.75 241.75 80 243.5 77 244 76.5 244 76.3 244.25 72.3 249.3 67 253 67 253.5 67 254 67 254.5 67.1 254.95 67.75 257.8 62 259 62.85 269.75 64.85 270.45 65 270.5 65 271 80.8 277.95 91.2 269.25 91.5 269 92 269 92 268.5 92 268 92 266.5 92 265 91.5 265 91.05 264.85 84.1 262.9 79 259 84.55 254.55 89.3 249.25 89.5 249 90 249 90 248.5 90 248 90 247.5 90 247
L 90 246.5
Q 88.05 246.5 88 243 90.5 241.95 90.1 240 Z" stroke="none" fill="#040915"></path>

<path d="M 88 237
Q 87.5 237 87 237 86.5 237 86 237 86 237.5 86 238 87.95 238.05 89.15 238.75 89.5 239 90 239 95.5 239.95 95.05 244 95 244.5 95 245 95.5 245 95.6 244.8 99.05 236.85 89 237 88.5 237 88 237 Z" stroke="none" fill="#452005"></path>

<path d="M 90 223
Q 89.5 223 89 223 88.5 223 88 223 88 229.5 88 236 88 236.5 88 237 88.5 237 89 237 89 236.5 89 236 90.75 231.25 90.05 224 90 223.5 90 223 Z" stroke="none" fill="#876748"></path>

<path d="M 99 234
Q 98.5 234 98 234 98 239.5 98.5 244.95 98.5 245 99 245 99 244.5 99 244 99 239 99 234 Z" stroke="none" fill="#B57A1E"></path>

<path d="M 99 223
Q 98.5 223 98 223 98 228 98 233 98 233.5 98 234 98.5 234 99 234 99 233.5 99 233 99 232 99 231 99 230.5 99 230 99 226.5 99 223 Z" stroke="none" fill="#A46805"></path>

<path d="M 100.05 224
Q 100 223.5 100 223 99.5 223 99 223 99 226.5 99 230 99 230.5 99 231 100.75 228.75 100.05 224 Z" stroke="none" fill="#C18834"></path>

<path d="M 100 220
Q 100 220.5 100 221 101.75 217.75 101.05 212 101 211.5 101 211 100.5 211 100 211 100 215.5 100 220 Z" stroke="none" fill="#CB9236"></path>

<path d="M 89 207
Q 88.5 207 88 207 88 214.5 88 222 88 222.5 88 223 88.5 223 89 223 89.5 223 90 223 90 222.5 90 222 90 214.5 90 207 89.5 207 89 207 Z" stroke="none" fill="#6C7068"></path>

<path d="M 102.05 201
Q 102 200.5 102 200 101.5 200 101 200 101 205 101 210 101 210.5 101 211 101 211.5 101.05 212 101.75 217.75 100 221 100 221.5 100 222 100 222.5 100 223 100 223.5 100.05 224 100.75 228.75 99 231 99 232 99 233 99 233.5 99 234 99 239 99 244 99 244.5 99 245 99 246.5 99.45 247.85 99.5 248 100 248 100 247.5 100 247 100 244 100 241 103.45 223.45 102.05 201 Z" stroke="none" fill="#EBB14C"></path>

<path d="M 102 191
L 101.5 191
Q 101.7 194.2 100 195 100.55 200.65 100.05 210 100 210.5 100 211 100.5 211 101 211 101 210.5 101 210 101 205 101 200 101.5 200 102 200 102 199.5 102 199 102 195 102 191 Z" stroke="none" fill="#A7690F"></path>

<path d="M 103 184
Q 103 183.5 103 183 103 182 103 181 102.5 181 102 181 102 185.5 102 190 102 190.5 102 191 103.7 189.2 103.05 185 103 184.5 103 184 Z" stroke="none" fill="#AC6E1E"></path>

<path d="M 104 175
Q 103.5 175 103 175 103 177.5 103 180 103 180.5 103 181 103 182 103 183 103 183.5 103 184 104.75 181.25 104.05 176 104 175.5 104 175 Z" stroke="none" fill="#E7AA56"></path>

<path d="M 92.05 192
Q 92 191.5 92 191 91.5 191 91 191 90.5 191 90 191 90 191.5 90 192 90 192.5 90 193 90 199.5 90 206 90 206.5 90 207 93.45 201.95 92.05 192 Z" stroke="none" fill="#8B6541"></path>

<path d="M 94 159
Q 93.5 159 93 159 92.5 159 92 159 92 166.5 92 174 92 174.5 92 175 94.05 168.55 94 160 94 159.5 94 159 Z" stroke="none" fill="#6F614A"></path>

<path d="M 104 167
Q 103.5 167 103 167 103 170.5 103 174 103 174.5 103 175 103.5 175 104 175 104 174.5 104 174 104 170.5 104 167 Z" stroke="none" fill="#AC7428"></path>

<path d="M 105 160
Q 104.5 160 104 160 104 160.5 104.1 161 104.7 163.7 103 164 103.5 165 103.85 166.05 104 166.5 104 167 105.7 165.2 105.05 161 105 160.5 105 160 Z" stroke="none" fill="#C28A25"></path>

<path d="M 104.5 149
Q 104.7 152.7 103 154 103.2 156.8 103.85 159.05 104 159.5 104 160 104.5 160 105 160 105 159.5 105 159 105 157 105 155 105 154.5 105 154 105 151.5 105 149
L 104.5 149 Z" stroke="none" fill="#A66A08"></path>

<path d="M 106.05 147
Q 106 146.5 106 146 105.5 146 105 146 105 147 105 148 105 148.5 105 149 105 151.5 105 154 105 154.5 105 155 106.75 152.25 106.05 147 Z" stroke="none" fill="#CF9240"></path>

<path d="M 107 135
Q 106.5 135 106 135 106 138.5 106 142 106 142.5 106 143 106.5 143 106.75 142.75 107 142.5 107 142 107 141.5 107 141 107 138 107 135 Z" stroke="none" fill="#D29837"></path>

<path d="M 107 133
Q 107 133.5 107 134 107 134.5 107 135 107 138 107 141 107 141.5 107 142 107.5 142 107.5 141.9 108.75 136.25 107 133 Z" stroke="none" fill="#FCC863"></path>

<path d="M 96.1 136
Q 96 135.5 96 135 95.5 135 95 135 94.5 135 94 135 94 139 94 143 94 143.5 94 144 97.1 142.1 96.1 136 Z" stroke="none" fill="#626254"></path>

<path d="M 98.05 114
Q 98 113.5 98 113 97.5 113 97.1 113.2 96.5 113.5 96 114 96 115.5 96 117 96 117.5 96 118 98.55 117.55 98.05 114 Z" stroke="none" fill="#676354"></path>

<path d="M 98 107
Q 100.95 107.4 100.1 103.95 100 103.5 100 103 99.5 103 99 103 98.5 103 98 103 98 104.5 98 106 98 106.5 98 107 Z" stroke="none" fill="#666251"></path>

<path d="M 107 119
Q 106.5 119 106 119 106 126.5 106 134 106 134.5 106 135 106.5 135 107 135 107 134.5 107 134 107 133.5 107 133 107 132.5 107 132 107 129.5 107 127 107 126.5 107 126 107 122.5 107 119 Z" stroke="none" fill="#A66C09"></path>

<path d="M 108 117
Q 107.5 117 107 117 107 117.5 107 118 107 118.5 107 119 107 122.5 107 126 107 126.5 107 127 108.75 123.75 108.05 118 108 117.5 108 117 Z" stroke="none" fill="#B57B2A"></path>

<path d="M 110 114
Q 110 113.5 110 113 109.5 113 109 113 109 113.5 109 114 109.5 125.7 110 114 Z" stroke="none" fill="#FCC960"></path>

<path d="M 110.1 108
Q 110.7 110.7 109 111 109 111.5 109 112 109 112.5 109 113 109.5 113 110 113 112.25 110.75 111.5 106.1 111.5 106 111 106 111 106.5 110.75 106.75 110.5 107 110 107 110 107.5 110.1 108 Z" stroke="none" fill="#F8C259"></path>

<path d="M 109.1 106.8
Q 108.5 106.5 108 106 108 109.5 108 113 108 113.5 108 114 108.5 114 109 114 109 113.5 109 113 109 112.5 109 112 109 111.5 109 111 110.7 110.7 110.1 108 110 107.5 110 107 109.5 107 109.1 106.8 Z" stroke="none" fill="#AE7112"></path>

<path d="M 112 102
Q 112 101.5 112 101 111.5 101 111 101 110.5 101 110 101 110 103.5 110.5 105.9 110.5 106 111 106 111 105.5 111 105 111.5 105 112 105 112 104.5 112 104 112 103.5 112 103 112 102.5 112 102 Z" stroke="none" fill="#A96E0B"></path>

<path d="M 115 99
Q 114.5 99 114.5 99.1 113.9 101.9 112 103 112 103.5 112 104 112 104.5 112 105 115.05 103.05 115.5 99
L 115 99 Z" stroke="none" fill="#FBC759"></path>

<path d="M 138.15 80.25
Q 138.5 80 139 80 139 79.5 138.95 79.5 132 78.5 129 82 129 82.5 129 83 129 83.5 129 84 129.5 84 130 84 132.8 83.3 134.3 81.25 134.5 81 135 81 136.95 80.95 138.15 80.25 Z" stroke="none" fill="#A96F0D"></path>

<path d="M 140 80
Q 139.5 80 139 80 138.5 80 138.15 80.25 136.95 80.95 135 81 137.2 85.3 139.8 80.9 140 80.5 140 80 Z" stroke="none" fill="#FAC659"></path>

<path d="M 132 69
Q 132 69.5 132 70 132 70.5 132 71 135.5 71 137.8 69.65 138 69.5 138 69 137.5 69 137 69 134.5 69 132 69 Z" stroke="none" fill="#6C624F"></path>

<path d="M 148 67
Q 147.5 67 147 67 143.5 67 140 67 140 67.5 140 68 140 68.5 140 69 145.05 69.55 147.75 67.65 148 67.5 148 67 Z" stroke="none" fill="#6E624D"></path>

<path d="M 115 98
Q 115 97.5 115 97 116 96.5 116.75 95.75 117 95.5 117 95 116.5 95 116 95 115.5 95 115.25 95.25 113.5 97 112 99 112 99.5 112 100 112 100.5 112 101 112 101.5 112 102 112 102.5 112 103 113.9 101.9 114.5 99.1 114.5 99 115 99 115 98.5 115 98 Z" stroke="none" fill="#B17616"></path>

<path d="M 119.75 91.75
Q 119.5 92 119 92 119 92.5 119 93 127.45 91.95 129.85 84.95 130 84.5 130 84 129.5 84 129 84 129 84.5 128.8 84.6 123.7 87.2 120 91 120 91.5 119.75 91.75 Z" stroke="none" fill="#F4C057"></path>

<path d="M 119 92
Q 119.5 92 119.75 91.75 120 91.5 120 91 119.5 91 119 91.1 117 91.5 115 92 115.5 93 115.85 94.05 116 94.5 116 95 116.5 95 117 95 117 94.5 117 94 117.5 93.5 118.1 93.2 118.5 93 119 93 119 92.5 119 92 Z" stroke="none" fill="#A56A0B"></path>

<path d="M 120 90
Q 120 90.5 120 91 123.7 87.2 128.8 84.6 129 84.5 129 84 129 83.5 129 83 128.5 83 128.1 83.2 124 85.5 120 88 120 89 120 90 Z" stroke="none" fill="#A46B0C"></path>

<path d="M 322 187
L 321.5 187
Q 321.65 189.15 320 189 320 192.5 320 196 320 196.5 320 197 323.35 194.85 322.1 188 322 187.5 322 187 Z" stroke="none" fill="#6A624F"></path>

<path d="M 309.5 191.1
Q 309.5 191 309 191 309 191.5 309.05 192 309.75 198.75 308 203 308 208.5 308 214 308 214.5 308 215 311.5 203 309.5 191.1 Z" stroke="none" fill="#A26605"></path>

<path d="M 311 175
Q 311 175.5 311.2 175.9 313.2 179.55 311 165 311 169.5 311 174 311 174.5 311 175 Z" stroke="none" fill="#A06402"></path>

<path d="M 313 140
Q 313 143.5 313 147 313 147.5 313 148 313 151 313 154 313 154.5 313 155 314.75 149.25 314.05 141 314 140.5 314 140 313.5 140 313 140 Z" stroke="none" fill="#A7680A"></path>

<path d="M 313 139
Q 313 139.5 313 140 313.5 140 314 140 314 139.5 314 139 314 133 314 127 313.5 127 313 127 313 133 313 139 Z" stroke="none" fill="#CE9237"></path>

<path d="M 313 148
Q 312.5 148 312 148 312 151.5 312 155 312 155.5 312 156 312.5 156 312.75 155.75 313 155.5 313 155 313 154.5 313 154 313 151 313 148 Z" stroke="none" fill="#BF7F2E"></path>

<path d="M 313 120
Q 312.5 120 312 120 312.5 123 312.95 126 313 126.5 313 127 313.5 127 314 127 314 126.5 314 126 314 122.45 313 120 Z" stroke="none" fill="#BA7B24"></path>

<path d="M 313 120
Q 313 119.5 313.25 119.15 314.9 116.55 311 115 311 115.5 311 116 311.05 117.95 311.75 119.15 312 119.5 312 120 312.5 120 313 120 Z" stroke="none" fill="#A76513"></path>

<path d="M 311 115
Q 311 114.5 311.1 114 312 108.05 308 111 309.5 112.95 310.45 115.85 310.5 116 311 116 311 115.5 311 115 Z" stroke="none" fill="#B1701F"></path>

<path d="M 307.4 110.8
Q 307.5 111 308 111 308 110.5 307.85 110.05 304.6 98.95 297 97 303.45 102.5 307.4 110.8 Z" stroke="none" fill="#AF7018"></path>

<path d="M 314 100
Q 314 99.5 313.9 99 313.35 95.65 310 95 310.9 98.1 313.2 99.75 313.5 100 314 100 Z" stroke="none" fill="#686252"></path>

<path d="M 318 107
Q 318 106.5 318.1 106.05 318.95 102.6 316 103 315.3 106.2 317.05 106.85 317.5 107 318 107 Z" stroke="none" fill="#6B624E"></path>

<path d="M 233.95 84.5
Q 234 84.5 234 85 236.5 85 239 85 239.5 85 240 85 240 84.5 239.85 84.45 232.6 82.4 223 83 223 83.5 223 84 224 84 225 84 225.5 84 226 84 230 84 233.95 84.5 Z" stroke="none" fill="#A5670B"></path>

<path d="M 233 85.05
Q 233.5 85 234 85 234 84.5 233.95 84.5 230 84 226 84 228.25 85.75 233 85.05 Z" stroke="none" fill="#D49845"></path>

<path d="M 242 75
Q 242 74.5 241.85 74.45 235.25 72.25 226 73 231.3 76.2 241 75.05 241.5 75 242 75 Z" stroke="none" fill="#6B624F"></path>

<path d="M 226 73
Q 226 72.5 225.9 72.45 216.25 70.25 204 71 212.65 73.85 225 73.05 225.5 73 226 73 Z" stroke="none" fill="#676251"></path>

<path d="M 198 81
Q 198 81.5 198 82 206.45 81.55 213 82.9 213.5 83 214 83 214 82.5 213.85 82.45 207.25 80.25 198 81 Z" stroke="none" fill="#A66906"></path>

<path d="M 164 79
Q 164 78.5 163.9 78.45 152.5 75.55 141 78 141 78.5 141 79 152.05 76.6 163 78.9 163.5 79 164 79 Z" stroke="none" fill="#A46708"></path>

<path d="M 178 69
Q 178 68.5 177.9 68.5 164.75 66.25 149 67 161.45 69.55 177 69 177.5 69 178 69 Z" stroke="none" fill="#686251"></path>

<path d="M 193 71.05
Q 193.5 71 194 71 194 70.5 193.85 70.45 187.25 68.25 178 69 183.05 72.45 193 71.05 Z" stroke="none" fill="#686353"></path>

<path d="M 293 93
Q 293 93.5 293 94 294 95.5 295.25 96.75 295.5 97 296 97 296 96.5 296.25 96.3 299.65 93.25 293 93 Z" stroke="none" fill="#AD6C1D"></path>

<path d="M 298 85
Q 298 84.5 297.85 84.05 297.2 82.3 294 83 293.6 85.9 297.05 85.1 297.5 85 298 85
M 274 77
Q 273.6 79.9 277.05 79.1 277.5 79 278 79 278 78.5 277.85 78.05 277.2 76.3 274 77 Z" stroke="none" fill="#6E634F"></path>

<path d="M 294 83
Q 294 82.5 293.8 82.15 292.7 80.3 289 81 289.45 83.55 293 83.05 293.5 83 294 83 Z" stroke="none" fill="#696150"></path>

<path d="M 272 87
Q 272 87.5 272 88 284 88.5 291.15 93.75 291.5 94 292 94 292 93.5 291.75 93.15 285.6 84.75 272 87 Z" stroke="none" fill="#A96913"></path>

<path d="M 270 88
Q 270 87.5 269.9 87.5 267.5 87 265 87 264.5 87 264 87 263 87 262 87 264.25 88.75 269 88.05 269.5 88 270 88 Z" stroke="none" fill="#D99E48"></path>

<path d="M 269 77.05
Q 269.5 77 270 77 270 76.5 269.9 76.45 260.25 74.25 248 75 256.5 78 269 77.05 Z" stroke="none" fill="#676353"></path>

<path d="M 248 86
Q 247.5 86 247 86.1 243.3 86.7 242 85 241.5 85 241 85 240.5 85 240 85 239.5 85 239 85 236.5 85 234 85 233.5 85 233 85.05 228.25 85.75 226 84 225.5 84 225 84 224 84 223 84 222.5 84 222 84 217.6 83.9 214 83 213.5 83 213 82.9 206.45 81.55 198 82 197.5 82 197 81.95 180.85 80.15 164 79 163.5 79 163 78.9 152.05 76.6 141 79 140.5 79 140 79 140 79.5 140 80 140 80.5 139.8 80.9 137.2 85.3 135 81 134.5 81 134.3 81.25 132.8 83.3 130 84 130 84.5 129.85 84.95 127.45 91.95 119 93 118.5 93 118.1 93.2 117.5 93.5 117 94 117 94.5 117 95 117 95.5 116.75 95.75 116 96.5 115 97 115 97.5 115 98 115 98.5 115 99
L 115.5 99
Q 115.05 103.05 112 105 111.5 105 111 105 111 105.5 111 106 111.5 106 111.5 106.1 112.25 110.75 110 113 110 113.5 110 114 109.5 125.7 109 114 108.5 114 108 114 108 115 108 116 108 116.5 108 117 108 117.5 108.05 118 108.75 123.75 107 127 107 129.5 107 132 107 132.5 107 133 108.75 136.25 107.5 141.9 107.5 142 107 142 107 142.5 106.75 142.75 106.5 143 106 143 106 144 106 145 106 145.5 106 146 106 146.5 106.05 147 106.75 152.25 105 155 105 157 105 159 105 159.5 105 160 105 160.5 105.05 161 105.7 165.2 104 167 104 170.5 104 174 104 174.5 104 175 104 175.5 104.05 176 104.75 181.25 103 184 103 184.5 103.05 185 103.7 189.2 102 191 102 195 102 199 102 199.5 102 200 102 200.5 102.05 201 103.45 223.45 100 241 100 244 100 247 100 247.5 100 248 100 248.5 100 249 100 249.5 100 250 102.45 253.55 102.95 259 103 259.5 103 260 106.95 262.55 108.8 267.05 109 267.5 109 268 110.7 268.3 111.4 269.8 111.5 270 112 270 112 269.5 112 269 115.35 269.65 115.5 273
L 115 273
Q 117.3 276.2 121.1 277.8 121.5 278 122 278 122 277.5 122 277 135.85 282.15 155.95 284.5 156 284.5 156 285 158.5 285 160.9 285.5 161 285.5 161 286 162.5 286 164 286 164.5 286 165 286 175.25 286.75 185.95 287.5 186 287.5 186 288 188 288 190 288 190.5 288 191 288 191 287.5 191 287 197.75 286.25 201.8 288.4 202 288.5 202 289 205.5 289 209 289 209.5 289 210 289 222 288.4 221.55 289.85 221.5 290 221 290 221 290.5 221 291 228.35 292.15 237 292 237.5 292 238 292 256.85 295.35 274 292.1 274.5 292 275 292 275 291.5 275 291 274.5 291 274.45 290.9 274 289 274 287 273.5 287 273 287 268.5 287 264 287 263.5 287 263 287 258.6 286.9 258 283 259 283.5 260.05 283.85 260.5 284 261 284 261 283.5 260.75 283.25 259.5 282 258 281 257.5 281 257.25 280.75 255.55 278.95 256 275 256.5 275 257 275 257.5 275 258 275 258 274.5 258 274 258.5 274 259 274 259 273.5 259 273 259.5 273 260 273 260.5 273 261 273 261 272.5 260.8 272.1 260.5 271.5 260 271 274.85 269.35 275.9 274 276 274.5 276 275 280.1 276.9 284.85 278.45 285 278.5 285 279 285.5 279.5 286.1 279.8 286.5 280 287 280 290.85 281.95 293.3 279.25 293.5 279 294 279 294 278.5 294 278 294 277.5 294 277 293.5 277 293.4 276.8 293 276 293 275 294.45 273.45 297 273.05 297.5 273 298 273 298 272.5 298 272 298 271.5 298 271 300.2 270.7 300.5 268.05 300.5 268 301 268 301 267.5 301 267 301 266.5 301 266 303.75 265.25 303.1 261 303 260.5 303 260 303 259.5 303 259 303.5 259 304 259 304 258.5 304 258 304 256.5 304 255 305.8 242.8 306.5 229.05 306.5 229 307 229 307 228.5 307 228 307 221.5 307 215 307.5 215 308 215 308 214.5 308 214 308 208.5 308 203 309.75 198.75 309.05 192 309 191.5 309 191 309 190.5 309 190 309 187.5 309 185 310.75 181.25 310.5 175
L 311 175
Q 311 174.5 311 174 311 169.5 311 165 311 164.5 311 164 311 161.5 311 159 312.65 159.15 312.1 156.95 312 156.5 312 156 312 155.5 312 155 312 151.5 312 148 312.5 148 313 148 313 147.5 313 147 313 143.5 313 140 313 139.5 313 139 313 133 313 127 313 126.5 312.95 126 312.5 123 312 120 312 119.5 311.75 119.15 311.05 117.95 311 116 310.5 116 310.45 115.85 309.5 112.95 308 111 307.5 111 307.4 110.8 303.45 102.5 297 97 296.5 97 296 97 295.5 97 295.25 96.75 294 95.5 293 94 292.5 94 292 94 291.5 94 291.15 93.75 284 88.5 272 88 271.5 88 271 88 270.5 88 270 88 269.5 88 269 88.05 264.25 88.75 262 87 261.5 87 261 87 259.5 87 258 87 257.5 87 257 87.05 251.25 87.75 248 86
M 227 108.5
L 227 109
Q 172.05 106.5 132.15 91.55 132 91.5 132 91 137.55 86.55 144.1 83.2 144.5 83 145 83 230.15 80.85 294.65 105 296.7 105.75 296 110 292.2 115.4 286 114.5
L 286 115
Q 257.75 109.6 227 108.5
M 191 120
Q 193.5 120 195.9 120.5 196 120.5 196 121 240.1 130.4 253.85 170.05 254 170.5 254 171 257.2 171.3 256.1 176 256 176.5 256 177 256 183 256 189 256 189.5 256 190 256 190.5 256 191 256 194.5 256 198 255.5 198 255.45 198.1 254 204 250 207 249.5 207 249.45 207.1 248.45 211.45 245 213 245 213.5 245 214
L 245.5 214
Q 231.1 240.65 204 246 204 246.5 203.85 246.55 193.3 250.75 180 248 179.5 248 179.35 247.75 176.6 243.9 174 240 174 239.5 174 239 173.85 234.05 173 232 173.5 232 173.75 231.75 174 231.5 174 231 174 230.5 174 230 174 226.5 174 223 174 222.5 174 222 174 212.5 174 203 174 202.5 174 202 174 198.5 174 195 174 194.5 174 194 174 189.5 174 185 173.5 185 173 185
L 172.5 185
Q 172 175 172 165 172 164.5 172 164 172 160.5 172 157 171.5 157 171.4 156.8 169.25 151.75 170 144 170 143.5 170 143 170 135 170 127 170.5 127 171 127 171.5 127 172 127 172 126.5 172 126 174.35 122.85 178.1 121.2 178.5 121 179 121 179 120.5 179 120 180.5 120 182 120 182.5 120 183 120 183 119.5 183 119 187 119 190.95 119.5 191 119.5 191 120 Z" stroke="none" fill="#F8C740"></path>

<path d="M 175 223
Q 174.5 223 174 223 174 226.5 174 230 174 230.5 174 231 174.5 231 175 231 175 230.5 175 230 175 226.5 175 223 Z" stroke="none" fill="#877140"></path>

<path d="M 174 203
Q 174.5 203 175 203 175 202.5 175.05 202 175.75 197.25 174 195 174 198.5 174 202 174 202.5 174 203 Z" stroke="none" fill="#5F482D"></path>

<path d="M 174 203
Q 174 212.5 174 222 174 222.5 174 223 174.5 223 175 223 175 222.5 175 222 175 212.5 175 203 174.5 203 174 203 Z" stroke="none" fill="#8C6D40"></path>

<path d="M 204 246
Q 203.5 246 203 246.05 198.75 246.7 197 245 196.5 245 196.05 244.85 192 243.6 183 246 182.5 246 182.1 245.8 175.15 241.85 175 231 174.5 231 174 231 174 231.5 173.75 231.75 173.5 232 173 232 173.85 234.05 174 239 174 239.5 174 240 176.6 243.9 179.35 247.75 179.5 248 180 248 193.3 250.75 203.85 246.55 204 246.5 204 246 Z" stroke="none" fill="#E2C764"></path>

<path d="M 245 214
Q 245 214.5 244.75 214.8 228.25 237.25 197 245 198.75 246.7 203 246.05 203.5 246 204 246 231.1 240.65 245.5 214
L 245 214 Z" stroke="none" fill="#DCC263"></path>

<path d="M 256 191
Q 256 190.5 256 190 255.5 190 255 190 255 190.5 255 191 255 191.5 255.05 192 255.45 196.45 253 198 253 198.5 252.9 199 252.05 203.05 250 206 250 206.5 250 207 254 204 255.45 198.1 255.5 198 256 198 256 194.5 256 191 Z" stroke="none" fill="#DFBF67"></path>

<path d="M 253 195
Q 253 196 253 197 253 197.5 253 198 255.45 196.45 255.05 192 255 191.5 255 191
L 254.5 191
Q 254.7 194.2 253 195 Z" stroke="none" fill="#876824"></path>

<path d="M 256 177
Q 255.5 177 255 177 255 183 255 189 255 189.5 255 190 255.5 190 256 190 256 189.5 256 189 256 183 256 177 Z" stroke="none" fill="#B1924C"></path>

<path d="M 256 177
Q 256 176.5 256.1 176 257.2 171.3 254 171 253.65 174.35 254.75 176.15 255 176.5 255 177 255.5 177 256 177 Z" stroke="none" fill="#D1A54B"></path>

<path d="M 174 185
Q 174 184.5 174.05 184 174.75 176.75 173 172 173 178 173 184 173 184.5 173 185 173.5 185 174 185 Z" stroke="none" fill="#70530A"></path>

<path d="M 173 172
Q 173 171.5 173 171 173 168 173 165 172.5 165 172 165 172 175 172.5 185
L 173 185
Q 173 184.5 173 184 173 178 173 172 Z" stroke="none" fill="#D3B46D"></path>

<path d="M 171.5 153.95
Q 171.5 154 172 154 172 153.5 172.05 153 172.75 148.25 171 146 171 150 171.5 153.95 Z" stroke="none" fill="#886519"></path>

<path d="M 172 156
Q 172 156.5 172 157 172 160.5 172 164 172 164.5 172 165 172.5 165 173 165 173 164.5 173.05 164 173.75 158.75 172 156 Z" stroke="none" fill="#62490B"></path>

<path d="M 171 144
Q 170.5 144 170 144 169.25 151.75 171.4 156.8 171.5 157 172 157 172 156.5 172 156 172 155.5 172 155 172 154.5 172 154 171.5 154 171.5 153.95 171 150 171 146 171 145.5 171 145 171 144.5 171 144 Z" stroke="none" fill="#DFBE6D"></path>

<path d="M 172 129
Q 171.5 129 171 129 171 135.5 171 142 171 142.5 171 143 172.75 137.75 172.05 130 172 129.5 172 129 Z" stroke="none" fill="#360C00"></path>

<path d="M 172 127
Q 171.5 127 171 127 170.5 127 170 127 170 135 170 143 170 143.5 170 144 170.5 144 171 144 171 143.5 171 143 171 142.5 171 142 171 135.5 171 129 171.5 129 172 129 172 128.5 172 128 172 127.5 172 127 Z" stroke="none" fill="#A88542"></path>

<path d="M 183 120
Q 186.5 120 190 120 190.5 120 191 120 191 119.5 190.95 119.5 187 119 183 119 183 119.5 183 120 Z" stroke="none" fill="#BC9449"></path>

<path d="M 196 121
Q 195.5 121 195 121 187 121 179 121 178.5 121 178.1 121.2 174.35 122.85 172 126 172 126.5 172 127 172 127.5 172 128 172 128.5 172 129 172 129.5 172.05 130 172.75 137.75 171 143 171 143.5 171 144 171 144.5 171 145 171 145.5 171 146 172.75 148.25 172.05 153 172 153.5 172 154 172 154.5 172 155 172 155.5 172 156 173.75 158.75 173.05 164 173 164.5 173 165 173 168 173 171 173 171.5 173 172 174.75 176.75 174.05 184 174 184.5 174 185 174 189.5 174 194 174 194.5 174 195 175.75 197.25 175.05 202 175 202.5 175 203 175 212.5 175 222 175 222.5 175 223 175 226.5 175 230 175 230.5 175 231 175.15 241.85 182.1 245.8 182.5 246 183 246 192 243.6 196.05 244.85 196.5 245 197 245 228.25 237.25 244.75 214.8 245 214.5 245 214 245 213.5 245 213 248.45 211.45 249.45 207.1 249.5 207 250 207 250 206.5 250 206 252.05 203.05 252.9 199 253 198.5 253 198 253 197.5 253 197 253 196 253 195 254.7 194.2 254.5 191
L 255 191
Q 255 190.5 255 190 255 189.5 255 189 255 183 255 177 255 176.5 254.75 176.15 253.65 174.35 254 171 254 170.5 253.85 170.05 240.1 130.4 196 121
M 205.8 129.4
Q 206 129.5 206 130 193.75 132.85 186.25 125.75 186 125.5 186 125 195.05 123.25 205.8 129.4
M 206 131
Q 213 133.1 206.1 131.5 206 131.5 206 131
M 214.1 136.55
Q 214 136.5 214 136 233.8 141.4 214.1 136.55
M 226 141
Q 230.95 143.75 234.25 146.75 234.5 147 235 147 253.05 165.2 246.55 188.85 246.5 189 246 189 245.9 177.4 243.55 184.85 243.5 185 243 185 240 169.1 238.1 160.95 238 160.5 238 160 232.3 150.7 226.25 141.85 226 141.5 226 141
M 174.05 132
Q 174 131.5 174 131 180.9 131.95 185.85 144.05 186 144.5 186 145 179.4 147 174.05 146.5 174 146.5 174 146 175.2 140.2 174.05 132
M 198.9 134.5
Q 199 134.5 199 135 231.9 143.15 237.9 178 238 178.5 238 179 239.75 181.75 238.55 186.9 238.5 187 238 187 238 187.5 237.9 188 235.25 200.75 228 209 228 209.5 227.8 209.65 225.45 210.95 224 213 224 213.5 223.75 213.8 210.75 230.7 192 227 191.5 227 191.5 226.95 191 221 191 215 191 214.5 191 214 191 213 191 212 190.5 212 190.5 211.95 190 204.5 190 197 190 196.5 190 196 190 191.5 190 187 190 186.5 190 186 190 185.5 190 185 190 184.5 190 184 190 183.5 190 183 189.5 183 189.5 182.95 189 178 189 173 188.5 173 188.5 172.95 188 168 188 163 188 162.5 188 162 188 158 188 154 188 153.5 188 153 188 150 188 147 187.5 147 187.5 146.95 187 142 187 137 187 136.5 187 136 187 134.5 187 133 193.3 133.2 198.9 134.5
M 175.95 186
Q 176 185.5 176 185 185.8 185.5 186.5 181.1 186.5 181 187 181 188.25 189.15 184.25 194.2 184 194.5 184 195 185.1 198.2 188 193.5
L 188 194
Q 189.2 210.9 186.15 220.05 186 220.5 186 221 191.55 233.3 186.7 239.75 186.5 240 186 240 182.55 239.95 178.6 231.2 178.5 231 178 231 176.4 214.85 181 210.5
L 181 211
Q 183.1 206.35 183.9 202 184 201.5 184 201 173.7 200.5 175.95 186
M 244 192.9
Q 244.5 193 245 193 247.8 200.6 246.2 203.15 246 203.5 246 204 240.9 211.4 236.2 219.15 236 219.5 236 220 230.55 221.9 226.05 221.5 226 221.5 226 221 233.95 212.45 239.4 201.2 239.5 201 240 201 240.55 192.1 244 192.9
M 206.05 234.5
Q 206 234.5 206 234 219.05 235.5 206.05 234.5
M 203.2 236.75
Q 203.5 237 204 237 197.55 241.1 191.25 235.7 191 235.5 191 235 199.2 233.8 203.2 236.75 Z" stroke="none" fill="#1E0902"></path>

<path d="M 206 234
Q 206 234.5 206.05 234.5 219.05 235.5 206 234 Z" stroke="none" fill="#0B010D"></path>

<path d="M 245 193
Q 244.5 193 244 192.9 240.55 192.1 240 201 239.5 201 239.4 201.2 233.95 212.45 226 221 226 221.5 226.05 221.5 230.55 221.9 236 220 236 219.5 236.2 219.15 240.9 211.4 246 204 246 203.5 246.2 203.15 247.8 200.6 245 193 Z" stroke="none" fill="#06040C"></path>

<path d="M 176 185
Q 176 185.5 175.95 186 173.7 200.5 184 201 184 201.5 183.9 202 183.1 206.35 181 211
L 181 210.5
Q 176.4 214.85 178 231 178.5 231 178.6 231.2 182.55 239.95 186 240 186.5 240 186.7 239.75 191.55 233.3 186 221 186 220.5 186.15 220.05 189.2 210.9 188 194
L 188 193.5
Q 185.1 198.2 184 195 184 194.5 184.25 194.2 188.25 189.15 187 181 186.5 181 186.5 181.1 185.8 185.5 176 185 Z" stroke="none" fill="#060209"></path>

<path d="M 192 227
Q 192 226.5 192.05 226 192.75 219.25 191 215 191 221 191.5 226.95 191.5 227 192 227 Z" stroke="none" fill="#694E08"></path>

<path d="M 191 208
Q 191 208.5 191 209 191.5 209 191.55 208.9 192.75 203.75 191 201 191 204.5 191 208 Z" stroke="none" fill="#D4B86F"></path>

<path d="M 227.8 209.65
Q 228 209.5 228 209 228 208.5 227.75 208.25 226.65 207.2 224 210 224 211 224 212 224 212.5 224 213 225.45 210.95 227.8 209.65 Z" stroke="none" fill="#D5B65E"></path>

<path d="M 238 187
Q 238.5 187 238.55 186.9 239.75 181.75 238 179 238 182.5 238 186 238 186.5 238 187 Z" stroke="none" fill="#4B3400"></path>

<path d="M 191 197
Q 190.5 197 190 197 190 204.5 190.5 211.95 190.5 212 191 212 191 211.5 191 211 191 210 191 209 191 208.5 191 208 191 204.5 191 201 191 200.5 191 200 191 198.5 191 197 Z" stroke="none" fill="#573D01"></path>

<path d="M 191 190
Q 191 189.5 191 189 191 188.5 190.8 188.1 190.5 187.5 190 187 190 191.5 190 196 190 196.5 190 197 190.5 197 191 197 191 196.5 191 196 191 193.5 191 191 191 190.5 191 190 Z" stroke="none" fill="#CC9E26"></path>

<path d="M 191 189
Q 191 189.5 191 190 191 190.5 191 191 191.5 191 191.9 191.2 196.3 193.4 191 189 Z" stroke="none" fill="#F9CA40"></path>

<path d="M 189.5 182.95
Q 189.5 183 190 183 190 182.5 190.05 182 190.75 176.25 189 173 189 178 189.5 182.95 Z" stroke="none" fill="#9C824A"></path>

<path d="M 190 185
Q 190.5 185 190.75 184.75 196.3 179.65 190 183 190 183.5 190 184 190 184.5 190 185
M 230 172
Q 230 172.5 230.25 172.65 235.2 176.2 230 172
M 192 173
Q 192 173.5 192.2 173.9 195.15 180.65 192 173
M 198 184
Q 198 184.5 198.1 184.95 200.65 194.85 214 188 214 187.5 213.8 187.45 208 185.05 198 184 Z" stroke="none" fill="#F9CA3E"></path>

<path d="M 189 161
Q 189 161.5 189 162 189 162.5 189 163 189 166 189 169 189 169.5 189 170 189.5 170 189.5 169.9 190.75 164.25 189 161 Z" stroke="none" fill="#E5C97E"></path>

<path d="M 189 163
Q 188.5 163 188 163 188 168 188.5 172.95 188.5 173 189 173 189 172.5 189 172 189 171 189 170 189 169.5 189 169 189 166 189 163 Z" stroke="none" fill="#5A3E00"></path>

<path d="M 189.05 160
Q 189.7 155.75 188 154 188 158 188 162 188 162.5 188 163 188.5 163 189 163 189 162.5 189 162 189 161.5 189 161 189 160.5 189.05 160 Z" stroke="none" fill="#9D741A"></path>

<path d="M 188 137
Q 187.5 137 187 137 187 142 187.5 146.95 187.5 147 188 147 188 146.5 188 146 188 141.5 188 137 Z" stroke="none" fill="#785F2E"></path>

<path d="M 199 135
Q 198.5 135 198 135.05 188.9 136.5 188 137 188 141.5 188 146 188 146.5 188 147 188 150 188 153 188 153.5 188 154 189.7 155.75 189.05 160 189 160.5 189 161 190.75 164.25 189.5 169.9 189.5 170 189 170 189 171 189 172 189 172.5 189 173 190.75 176.25 190.05 182 190 182.5 190 183 196.3 179.65 190.75 184.75 190.5 185 190 185 190 185.5 190 186 190 186.5 190 187 190.5 187.5 190.8 188.1 191 188.5 191 189 196.3 193.4 191.9 191.2 191.5 191 191 191 191 193.5 191 196 191 196.5 191 197 191 198.5 191 200 191 200.5 191 201 192.75 203.75 191.55 208.9 191.5 209 191 209 191 210 191 211 191 211.5 191 212 191 213 191 214 191 214.5 191 215 192.75 219.25 192.05 226 192 226.5 192 227 210.75 230.7 223.75 213.8 224 213.5 224 213 224 212.5 224 212 224 211 224 210 226.65 207.2 227.75 208.25 228 208.5 228 209 235.25 200.75 237.9 188 238 187.5 238 187 238 186.5 238 186 238 182.5 238 179 238 178.5 237.9 178 231.9 143.15 199 135
M 198.1 184.95
Q 198 184.5 198 184 208 185.05 213.8 187.45 214 187.5 214 188 200.65 194.85 198.1 184.95
M 200.45 193.15
Q 200.5 193 201 193 204.6 193.9 209 194 209.5 194 210 194 212.25 192.75 214.8 191.6 215 191.5 215 191 224.95 191 231.9 192.5 232 192.5 232 193 227.45 207.75 216.2 212.45 216 212.5 216 213 212.1 219.5 209.25 222.25 209 222.5 209 223 200.25 226.9 195.95 225.15 195.5 225 195 225 198.55 219.7 194.85 217.25 194.5 217 194 217 194 211 194 205 194 204.5 194 204 198.5 198.3 200.45 193.15
M 192.2 173.9
Q 192 173.5 192 173 195.15 180.65 192.2 173.9
M 230.25 172.65
Q 230 172.5 230 172 235.2 176.2 230.25 172.65
M 230 188.5
L 230 188
Q 237.8 182.85 230 188.5 Z" stroke="none" fill="#F3C043"></path>

<path d="M 230 188
L 230 188.5
Q 237.8 182.85 230 188 Z" stroke="none" fill="#F7C73A"></path>

<path d="M 201 193
Q 200.5 193 200.45 193.15 198.5 198.3 194 204 194 204.5 194 205 194 211 194 217 194.5 217 194.85 217.25 198.55 219.7 195 225 195.5 225 195.95 225.15 200.25 226.9 209 223 209 222.5 209.25 222.25 212.1 219.5 216 213 216 212.5 216.2 212.45 227.45 207.75 232 193 232 192.5 231.9 192.5 224.95 191 215 191 215 191.5 214.8 191.6 212.25 192.75 210 194 209.5 194 209 194 204.6 193.9 201 193 Z" stroke="none" fill="#F8C93D"></path>

<path d="M 198 135.05
Q 198.5 135 199 135 199 134.5 198.9 134.5 193.3 133.2 187 133 187 134.5 187 136 187 136.5 187 137 187.5 137 188 137 188.9 136.5 198 135.05 Z" stroke="none" fill="#C3A764"></path>

<path d="M 174 131
Q 174 131.5 174.05 132 175.2 140.2 174 146 174 146.5 174.05 146.5 179.4 147 186 145 186 144.5 185.85 144.05 180.9 131.95 174 131 Z" stroke="none" fill="#0C0310"></path>

<path d="M 234.25 146.75
Q 230.95 143.75 226 141 226 141.5 226.25 141.85 232.3 150.7 238 160 238 160.5 238.1 160.95 240 169.1 243 185 243.5 185 243.55 184.85 245.9 177.4 246 189 246.5 189 246.55 188.85 253.05 165.2 235 147 234.5 147 234.25 146.75 Z" stroke="none" fill="#06040A"></path>

<path d="M 214 136
Q 214 136.5 214.1 136.55 233.8 141.4 214 136 Z" stroke="none" fill="#0E0211"></path>

<path d="M 206 130
Q 206 129.5 205.8 129.4 195.05 123.25 186 125 186 125.5 186.25 125.75 193.75 132.85 206 130 Z" stroke="none" fill="#04040A"></path>

<path d="M 195 121
Q 195.5 121 196 121 196 120.5 195.9 120.5 193.5 120 191 120 190.5 120 190 120 186.5 120 183 120 182.5 120 182 120 180.5 120 179 120 179 120.5 179 121 187 121 195 121 Z" stroke="none" fill="#644002"></path>

<path d="M 227 109
L 227 108.5
Q 257.75 109.6 286 115
L 286 114.5
Q 292.2 115.4 296 110 296.7 105.75 294.65 105 230.15 80.85 145 83 144.5 83 144.1 83.2 137.55 86.55 132 91 132 91.5 132.15 91.55 172.05 106.5 227 109 Z" stroke="none" fill="#FED967"></path>

<path d="M 252 86
Q 252 85.5 251.95 85.5 247 85 242 85 243.3 86.7 247 86.1 247.5 86 248 86 249.5 86 251 86 251.5 86 252 86 Z" stroke="none" fill="#B17515"></path>

<path d="M 253 86
Q 252.5 86 252 86 251.5 86 251 86 249.5 86 248 86 251.25 87.75 257 87.05 257.5 87 258 87 258 86.5 257.9 86.5 255.5 86 253 86 Z" stroke="none" fill="#E2A656"></path>

<path d="M 253 85
Q 253 85.5 253 86 255.5 86 257.9 86.5 258 86.5 258 87 259.5 87 261 87 261.5 87 262 87 263 87 264 87 264.5 87 265 87 265 86.5 264.8 86.4 260.25 84.25 253 85 Z" stroke="none" fill="#A2630F"></path>

<path d="M 324 151
Q 324.5 151 324.55 150.9 328.15 137.25 324 126 324 138 324 150 324 150.5 324 151 Z" stroke="none" fill="#6D624E"></path>

<path d="M 324.1 160
Q 324 159.5 324 159 323.5 159 323 159 322.5 159 322 159 322 162.5 322 166 322 166.5 322 167 325.3 165.8 324.1 160 Z" stroke="none" fill="#676252"></path>

<path d="M 324 126
Q 324 125.5 324 125 324 123 324 121 323.5 121 323.35 120.8 321.95 118.5 322 115 321.5 115 321.45 114.85 319.95 110.55 318 107 317.5 107 317.05 106.85 315.3 106.2 316 103 315.5 103 315 102.95 313.3 102.7 314 100 313.5 100 313.2 99.75 310.9 98.1 310 95 309.5 95 309.25 94.75 304.05 89.45 298 85 297.5 85 297.05 85.1 293.6 85.9 294 83 293.5 83 293 83.05 289.45 83.55 289 81 288.5 81 288.1 80.8 284.1 78.85 278 79 277.5 79 277.05 79.1 273.6 79.9 274 77 273.5 77 273 77 271.5 77 270 77 269.5 77 269 77.05 256.5 78 248 75 247.5 75 247 75 244.5 75 242 75 241.5 75 241 75.05 231.3 76.2 226 73 225.5 73 225 73.05 212.65 73.85 204 71 203.5 71 203 71 198.5 71 194 71 193.5 71 193 71.05 183.05 72.45 178 69 177.5 69 177 69 161.45 69.55 149 67 148.5 67 148 67 148 67.5 147.75 67.65 145.05 69.55 140 69 139.5 69 139 69 138.5 69 138 69 138 69.5 137.8 69.65 135.5 71 132 71 131.5 71 131.1 71.2 111.2 82.2 100 102 100 102.5 100 103 100 103.5 100.1 103.95 100.95 107.4 98 107 98 109.5 98 112 98 112.5 98 113 98 113.5 98.05 114 98.55 117.55 96 118 96 126 96 134 96 134.5 96 135 96 135.5 96.1 136 97.1 142.1 94 144 94 151 94 158 94 158.5 94 159 94 159.5 94 160 94.05 168.55 92 175 92 182.5 92 190 92 190.5 92 191 92 191.5 92.05 192 93.45 201.95 90 207 90 214.5 90 222 90 222.5 90 223 90 223.5 90.05 224 90.75 231.25 89 236 89 236.5 89 237 99.05 236.85 95.6 244.8 95.5 245 95 245 94.5 245 94.5 245.05 94.1 248.1 90 247 90 247.5 90 248 90 248.5 90 249 88.85 256.65 91.75 260.2 92 260.5 92 261 95.3 262.2 94.1 268 94 268.5 94 269 102.6 278.9 113.2 286.75 113.5 287 114 287 116.9 288.65 119.8 290.35 120 290.5 120 291 123.2 290.3 123.85 292.05 124 292.5 124 293 135.1 294.95 142.9 296.5 143 296.5 143 297 143.5 297 144 297 144 296.5 144 296 144 294.5 144 293 145 292.5 145.75 291.75 146 291.5 146 291 146 290.5 146 290 150.5 290 154.95 290.5 155 290.5 155 291 160.4 290.6 159.1 297 159 297.5 159 298 161 296.1 161.8 298.1 162 298.5 162 299 163.5 299 165 299 165.5 299 166 299 166 298.5 166 298 169 296.65 171.8 298.35 172 298.5 172 299 180 298.55 191 299 191.5 299 192 299 195.5 298.95 197.8 300.35 198 300.5 198 301 203.5 301 209 301 209.5 301 210 301 225.4 302.1 241 302.95 241.5 303 242 303 243.65 303.15 243.1 300.95 243 300.5 243 300 243 299.5 243 299 250.5 296.1 255.75 300.3 256 300.5 256 301 256.5 301.5 256.8 302.1 257 302.5 257 303 257.5 303.5 257.8 304.1 258 304.5 258 305 270 305.5 279.05 303.1 279.5 303 280 303 280.5 303 281 303 281.5 303 282 303 282 302.5 282 302 282 301.5 282 301 286.15 299.15 289.75 296.65 290 296.5 290 296 290 295.5 289.75 295.35 284.2 291.3 278 288 278 288.5 278.25 288.85 279.4 290.45 275 291 275 291.5 275 292 275 292.5 274.85 292.55 256.6 297.8 238 293 237.5 293 237 293 197.7 294.15 170 287 169.5 287 169 287 167 287 165 287 164.5 287 164 287.05 142.9 289.1 130 283 129.5 283 129.05 282.9 109.55 277.85 108 268 107.5 268 107.25 267.75 101.35 262.35 100 250 100 249.5 100 249 100 248.5 100 248 99.5 248 99.45 247.85 99 246.5 99 245 98.5 245 98.5 244.95 98 239.5 98 234 98 233.5 98 233 98 228 98 223 98.5 223 99 223 99.5 223 100 223 100 222.5 100 222 100 221.5 100 221 100 220.5 100 220 100 215.5 100 211 100 210.5 100.05 210 100.55 200.65 100 195 101.7 194.2 101.5 191
L 102 191
Q 102 190.5 102 190 102 185.5 102 181 102.5 181 103 181 103 180.5 103 180 103 177.5 103 175 103 174.5 103 174 103 170.5 103 167 103.5 167 104 167 104 166.5 103.85 166.05 103.5 165 103 164 104.7 163.7 104.1 161 104 160.5 104 160 104 159.5 103.85 159.05 103.2 156.8 103 154 104.7 152.7 104.5 149
L 105 149
Q 105 148.5 105 148 105 147 105 146 105.5 146 106 146 106 145.5 106 145 106 144 106 143 106 142.5 106 142 106 138.5 106 135 106 134.5 106 134 106 126.5 106 119 106.5 119 107 119 107 118.5 107 118 107 117.5 107 117 107.5 117 108 117 108 116.5 108 116 108 115 108 114 108 113.5 108 113 108 109.5 108 106 108.5 106.5 109.1 106.8 109.5 107 110 107 110.5 107 110.75 106.75 111 106.5 111 106 110.5 106 110.5 105.9 110 103.5 110 101 110.5 101 111 101 111.5 101 112 101 112 100.5 112 100 112 99.5 112 99 113.5 97 115.25 95.25 115.5 95 116 95 116 94.5 115.85 94.05 115.5 93 115 92 117 91.5 119 91.1 119.5 91 120 91 120 90.5 120 90 120 89 120 88 124 85.5 128.1 83.2 128.5 83 129 83 129 82.5 129 82 132 78.5 138.95 79.5 139 79.5 139 80 139.5 80 140 80 140 79.5 140 79 140.5 79 141 79 141 78.5 141 78 152.5 75.55 163.9 78.45 164 78.5 164 79 180.85 80.15 197 81.95 197.5 82 198 82 198 81.5 198 81 207.25 80.25 213.85 82.45 214 82.5 214 83 217.6 83.9 222 84 222.5 84 223 84 223 83.5 223 83 232.6 82.4 239.85 84.45 240 84.5 240 85 240.5 85 241 85 241.5 85 242 85 247 85 251.95 85.5 252 85.5 252 86 252.5 86 253 86 253 85.5 253 85 260.25 84.25 264.8 86.4 265 86.5 265 87 267.5 87 269.9 87.5 270 87.5 270 88 270.5 88 271 88 271.5 88 272 88 272 87.5 272 87 285.6 84.75 291.75 93.15 292 93.5 292 94 292.5 94 293 94 293 93.5 293 93 299.65 93.25 296.25 96.3 296 96.5 296 97 296.5 97 297 97 304.6 98.95 307.85 110.05 308 110.5 308 111 312 108.05 311.1 114 311 114.5 311 115 314.9 116.55 313.25 119.15 313 119.5 313 120 314 122.45 314 126 314 126.5 314 127 314 133 314 139 314 139.5 314 140 314 140.5 314.05 141 314.75 149.25 313 155 313 155.5 312.75 155.75 312.5 156 312 156 312 156.5 312.1 156.95 312.65 159.15 311 159 311 161.5 311 164 311 164.5 311 165 313.2 179.55 311.2 175.9 311 175.5 311 175
L 310.5 175
Q 310.75 181.25 309 185 309 187.5 309 190 309 190.5 309 191 309.5 191 309.5 191.1 311.5 203 308 215 308 225 308 235 308 235.5 308 236 308 236.5 307.95 237 306.3 248.3 304 259 303.5 259 303 259 303 259.5 303 260 303.5 260 303.6 260.2 305.95 264.95 301 268 300.5 268 300.5 268.05 300.2 270.7 298 271 298 271.5 298 272 298 272.5 298 273 302.25 272.25 303.4 274.8 303.5 275 304 275 304 274.5 304 274 304 272.5 304 271 306.95 270.6 306.1 274.05 306 274.5 306 275 309.15 273.65 311.3 271.25 311.5 271 312 271 315.85 265.35 316 256 316 255.5 316 255 316 254.5 316 254 316 248.5 316 243 316 242.5 316 242 316 236 316 230 316.5 229.5 317.1 229.2 317.5 229 318 229 318 228.5 318 228 318 225.5 318 223 318 222.5 318 222 318 214.5 318 207 318.5 207 319 207 319.5 207 320 207 320 206.5 320 206 320 201.5 320 197 320 196.5 320 196 320 192.5 320 189 321.65 189.15 321.5 187
L 322 187
Q 322 186.5 322 186 322 176.5 322 167 322 166.5 322 166 322 162.5 322 159 322.5 159 323 159 323.5 159 324 159 324 158.5 324 158 324 154.5 324 151 324 150.5 324 150 324 138 324 126
M 234 300
Q 244.4 299.2 234 300.5
L 234 300 Z" stroke="none" fill="#9C612A"></path>

<path d="M 234 300.5
Q 244.4 299.2 234 300
L 234 300.5 Z" stroke="none" fill="#A96719"></path>

<path d="M 324 121
Q 324 120.5 324.1 120 325.2 115.3 322 115 321.95 118.5 323.35 120.8 323.5 121 324 121 Z" stroke="none" fill="#696151"></path>
</g>
</g>
</g>
</g>
</g>
</svg>
