
<svg viewBox="0 0 135 110" height="110px" width="135px" y="0px" x="0px" preserveAspectRatio="none" xmlns:xlink="http://www.w3.org/1999/xlink" version="1.1" xmlns="http://www.w3.org/2000/svg">
<defs></defs>

<g id="Layer_1"></g>

<g id="Layer_2">
<g transform="matrix( 0.981231689453125, 0, 0, 0.976226806640625, -4.15,-3.65)" id="Layer_1">
<g>
<g>
<g>
<path d="M 123.05 20.25
Q 123.0595703125 20.1494140625 123.05 20.05 122.15 12.25 114.55 11.7 104.962890625 12.2326171875 97 17.4 92.53671875 12.7310546875 85.55 13.2 79.4 14.1 73.85 17.05 69.6572265625 19.29453125 66.5 22.5 62.494140625 17.1419921875 55.8 14.6 46.75 11.25 36.95 11.5 30.4 15 25.8 21.05 23.35 24.3 21.9 27.95 20.55 30.3 19.7 32.85 16.5 42.1 17.7 51.85 18.95 61.75 27.25 67.75 27.4419921875 67.8923828125 27.6 68 25.3705078125 69.1125 23.35 70.7 20.45 73 19.3 76.5 16.45 85.1 21.95 92.45 25.4884765625 97.1826171875 30.85 99.45 31.5671875 99.74609375 32.3 100 35.6 101.15 38.1 101.9 34.2 106.1 38.5 109.95 40.4 111.6 42.85 111.95 51.45 113.15 60 111.1 60.750390625 110.9162109375 61.25 110.55 64.9158203125 112.62109375 69 113.85 88.6 119.7 108.5 114.6 115 112.9 120.95 109.85 128.6646484375 105.8796875 133.55 99.45 136.25703125 95.920703125 138.1 91.65 138.95 90.1 138.7 88.3 138.4 86.4 137 85.05 132.65 80.9 126.75 80.3 127.15 77.7 127 75 126.7 67.8 126.05 60.65 125.95 59.7 126 58.8 126.0087890625 58.508984375 126 58.2 130.9037109375 57.0490234375 134.95 54.05 135.7 53.6 136.35 53.1 136.5 53 136.6 52.9 136.95 52.65 137.2 52.3 137.25 52.2 137.25 52.1 137.3 52.05 137.35 51.95 138.65 50.65 139.6 49 142.9 43.1 140.8 36.65 139.7 33.2 137.65 30.2 133.6 25.45 128.05 22.45 125.6115234375 21.145703125 123.05 20.25
M 124.3 24.95
Q 124.85 25.4 125.5 25.7 131.15 28.5 134.75 33.55 136.3 35.7 137.2 38.15 137.25 38.2 137.25 38.3 137.25 38.35 137.25 38.45 137.3 38.5 137.3 38.6 137.35 38.85 137.4 39.05 137.4 39.15 137.45 39.25 137.5 39.3 137.55 39.4 137.55 40.2 137.65 40.95 137.75 42.2 137.3 43.3 137.05 44 136.95 44.75 136.9 45.05 136.9 45.4 136.6 45.75 136.4 46.2 135.85 47.25 135.2 48.2 134.75 48.95 134.15 49.55 134.05 49.7 133.95 49.85 132.4 51.1 130.7 52.05 127.359375 53.9060546875 123.75 54.55 123.61015625 54.46640625 123.45 54.4 122.8759765625 54.425 122.5 54.7 119.41796875 55.102734375 116.15 54.6 115.5 54.25 114.85 54.05 114.2 53.9 113.75 53.5 111.5 51.7 109.6 53.4 108.75 54.15 109.35 55.15 110.9 57.55 113.85 57.9 113.9462890625 57.930859375 114.05 57.95 114.0998046875 58.1994140625 114.2 58.45 116.75 64.5 112.45 69.75 110.0654296875 72.6212890625 106.7 74.35 106.6646484375 74.1482421875 106.6 73.95 107.95703125 73.640625 109.2 72.6 109.7 72.15 110.05 71.6 111.55 68.9 108.35 68.45 108.05 68.45 107.75 68.65 106.75 69.2 105.7 69.65 105.547265625 69.7220703125 105.4 69.8 105.1015625 68.7455078125 104.75 67.7 104.15 66 103.75 64.2 103.7166015625 64.041015625 103.65 63.9 103.01328125 61.3025390625 100.7 60.5 100.25 60.5 99.75 60.75 98.95 61.25 98.95 62.15 99 63.85 99.6 65.45 100.0322265625 66.66015625 100.45 67.85 101.009375 69.4462890625 101.55 71 101.5505859375 71.36796875 101.7 71.75 102.4115234375 73.760546875 102.9 75.8 100.4453125 76.433984375 97.85 76.35 97.603515625 75.6744140625 97.35 74.95 97.2853515625 74.309375 97.25 73.65 97.1755859375 72.051171875 96.2 71.1 96.0015625 70.2875 95.85 69.45 95.675390625 68.612890625 95.55 67.75 95.35 66.45 95.05 65.15 94.55 62.75 92.2 63.9 91.7 64.15 91.6 64.7 91.3875 67.2154296875 91.75 69.7 91.9376953125 70.730078125 92.2 71.75 92.4 72.6 92.55 73.4 92.7759765625 74.5296875 93.1 75.6 88.56640625 74.3431640625 85.1 71.15 84.7263671875 69.70234375 84.25 68.25 83.7712890625 66.53828125 83.2 64.85 83.2 64.4 83.05 64 82.6 62.7 81.2 62.65 80.65 62.65 80.1 63 79.6 63.3 79.6 63.9 79.5638671875 64.515625 79.55 65.1 77.5564453125 63.162890625 75.25 61.5 70.15 57.75 64.95 54.15 63.5 53.15 62.9 51.5 60.95 45.7 61.85 39.6 62.2 38.8 62.35 38 62.55 36.75 63.1 35.65 63.4 35 63.75 34.35 64.4 32.75 65.2 31.2 66.2123046875 29.220703125 67.5 27.5 70.4689453125 23.562109375 74.9 21.05 80.05 18.1 86 17.5 90.05 17.1 93.3 19.45 93.95 19.9 94.2 20.65 94.606640625 21.7994140625 95.2 22.3 92.9568359375 23.9046875 90.95 26.1 90.25 26.9 90.6 27.75 91.9 31.25 94.65 28.2 97.75 24.8 102.15 23.6 113.5 20.65 124.3 24.95
M 116.55 15.9
Q 118.2134765625 17.165625 118.85 19.05 114.370703125 18.080859375 109.55 18.3 104.3751953125 18.1375 100 19.8 107.6583984375 15.7369140625 116.55 15.9
M 117.85 68.95
Q 120.26640625 63.844140625 118.7 58.85 120.1150390625 58.9638671875 121.5 58.9 121.5431640625 59.6173828125 121.65 60.35 122.85 68.75 123.1 77.3 122.5 79.95 122.75 82.7 122.8 83.45 123.5 83.7 125.9 84.6 128.5 84.9 132.6 85.4 134.75 88.55 134.75 89.75 134.2 90.8 132.8 93.45 131.35 96.05 129.908203125 97.8310546875 128.3 99.45 126.1689453125 101.6494140625 123.75 103.55 119.55 106.8 114.5 108.55 105.9 111.6 96.85 112.45 80.25 113.95 64.95 107.9 63.5 107.35 62.2 106.65 59.858203125 105.3447265625 58.75 106.75 58.4533203125 106.829296875 58.15 106.9 54.55 107.8 50.95 108.65 44.4 110.2 40.15 106 40.75 104.6 42.15 103.75 43.2 103.15 44.25 102.6 44.55 102.5 44.8 102.35 47.1 102.6 48.75 101.15 49.55 100.45 49.05 99.5 49.037890625 99.4748046875 49 99.45 47.9177734375 97.20703125 45 97.85 42.7 98.4 40.25 98.15 31.25 97.15 25.5 90.35 22.15 86.35 22.25 81.15 22.3 77.5 24.65 74.65 24.95 74.35 25.2 74.1 27.916796875 71.630078125 31.45 70.65 33.366015625 71.525 34.7 69.9 35.486328125 69.77734375 36.25 69.65 37.15 69.6 38 69.6 40 69.6 41.95 69.95 45.55 70.65 45.55 67.45 45.6 66.7 44.9 66.45 40.85 64.8 36.25 65.55 34.6 65.95 32.8 66.3 32.7244140625 66.3158203125 32.65 66.3 31.7583984375 65.669140625 30.7 65.15 27.35 63.45 25.15 60.55 22.8 57.4 22.1 53.65 20.9 47.45 21.8 41.1 22.4 37 23.85 33.15 23.9 33.05 23.95 33 24.25 32.45 24.5 31.85 24.6 31.65 24.65 31.4 24.7 31.3 24.7 31.25 24.7 31.15 24.75 31.1 24.75 31 24.75 30.95 25 30.55 25.2 30.1 27.3 25.3 30.85 21.4 33.85 18.1 37.55 15.6 43.55 15.35 49.35 16.75 56.25 18.45 61.85 22.9 62.15 23.6 62.7 24.1 63.05 24.45 63.45 24.75 63.55 24.85 63.7 24.95 63.8 25 63.85 25.1 63.9 25.2 63.95 25.25 63.9896484375 25.330859375 64 25.4 62.37421875 27.6216796875 61.1 30.2 58.85 34.7 58.05 39.65 57.25 44.65 58.05 49.65 59 55.55 64.25 58.5 71.4 62.6 77 68.55 79.1126953125 70.7900390625 81.4 72.8 81.173046875 73.7228515625 82.05 75.05 82.2 76.15 82.45 77.25 82.8 78.7 82.75 80.25 82.4 80.8 82.2 81.5 82.1 81.95 81.9 82.4 80.2482421875 83.4552734375 78.35 83.4 76.4564453125 81.1568359375 75.45 78.4 74.6041015625 76.0791015625 73.85 73.7 73.8365234375 72.718359375 73.35 72 72.699609375 69.7890625 72.15 67.55 71.5 64.95 69.05 65.1 68.55 65.15 68.35 65.6 67.3 67.95 67.9 70.7 68.2 72.1 68.35 73.5 68.5236328125 75.0875 69.2 76.3 68.5279296875 76.14765625 67.8 76.05 65.75 76.35 65.85 78.35 65.9 79.35 66.85 79.65 68.8 80.35 70.55 81.55 71.1333984375 81.952734375 71.65 82.05 72.79765625 83.996875 74.55 85.65 75.0228515625 86.0912109375 75.55 86.4 75.6865234375 86.5224609375 75.8 86.65 77.8 88.95 80.85 88.7 83.2 88.5 84.7 86.7 87.3318359375 83.41015625 86.85 79.2 86.9169921875 78.161328125 86.75 77.05 90.3396484375 79.537890625 94.35 80.25 95.366796875 82.7115234375 97.55 84.55 99.5 86.15 102 85.85 103.5369140625 85.7103515625 104.5 84.55 106.235546875 83.56484375 107 81 107.25 80.1 107.15 79.2 107.1375 79.054296875 107.1 78.9 107.15390625 78.705078125 107.15 78.5 108.04296875 78.1533203125 108.9 77.75 115.05 74.95 117.85 68.95
M 100.7 81.3
Q 100.28828125 80.88828125 99.95 80.4 101.43828125 80.2572265625 102.95 79.85 102.965625 79.9375 102.95 80 102.805859375 80.5529296875 102.5 81 102.4671875 81.0828125 102.4 81.15 101.6 81.7 100.7 81.3
M 47.65 45.5
Q 47 42.5 44.95 40.1 38.5 32.6 29.6 28.85 28.7 28.9 28.05 29.65 27.3 30.5 27 31.6 25.35 37.85 24.8 44.3 24 53.75 29.8 60.95 30.45 61.75 31.3 62.1 37.9 64.95 42.85 59.7 42.9 59.65 42.95 59.55 43 59.45 43 59.4 43.1 59.3 43.15 59.25 44.15 57.9 45.1 56.5 45.9 55.25 46.55 54 47.1 52.35 47.55 50.7 48.2 48.1 47.65 45.5
M 43.55 45.2
Q 43.95 46.2 43.9 47.2 43.65 50.55 42.3 53.55 42.2 53.75 42.1 53.9 40.5 56.45 38.35 58.5 36.2 59.05 34.15 59.25 30.8 56.6 29.9 52.55 27.75 43 30.85 33.8 38.35 38.1 43.55 45.2
M 120.4 95.85
Q 119.7 95.45 119.05 95.85 116.3068359375 97.5873046875 118.7 99.45 118.9302734375 99.624609375 119.2 99.8 118.75 100.05 118.3 100.25 113.7 102.1 108.65 101.95 103.25 101.8 97.95 100.8 96.75 100.6 95.6 101 89.3 103.05 82.6 103.4 80.45 103.55 78.3 103.55 72.6 103.7 68.15 100.65 68.601953125 99.989453125 69.15 99.45 69.42578125 99.21328125 69.7 99 71.9 97.45 71.95 95 71.95 94.3 71.4 93.95 69.1 92.45 66.1 93.15 65.15 93.2 64.6 94.05 63.55 95.6 65.1 96.65 65.65 97.05 65.65 97.3 64.710546875 98.1947265625 64.35 99.45 64.331640625 99.5974609375 64.3 99.75 64.15 100.45 64.4 101.15 65.65 105.15 70.2 106.2 82.8 109.1 95 105.05 95.7 104.85 96.45 104.95 105 106.15 113.6 105.55 117.7 105.25 121.15 103.2 122 102.7 122.5 101.85 123.2142578125 100.557421875 123.2 99.45 123.1712890625 97.3017578125 120.4 95.85
M 120.4 85.75
Q 119.8 85.8 119.15 85.9 111.85 86.9 104.5 87.75 103.3 87.9 102.35 88.6 99.5 90.65 102.55 92.75 103.6 93.45 104.85 93.65 107 93.95 109.15 94.4 113.3 95.2 117.3 94 121.8 92.65 124.15 88.8 124.8 87.7 124 86.7 122.7 85.1 120.4 85.75 Z" stroke="none" fill="#000000"></path>

<path d="M 99.95 80.4
Q 100.28828125 80.88828125 100.7 81.3 101.6 81.7 102.4 81.15 102.4671875 81.0828125 102.5 81 102.805859375 80.5529296875 102.95 80 102.965625 79.9375 102.95 79.85 101.43828125 80.2572265625 99.95 80.4
M 118.7 58.85
Q 120.26640625 63.844140625 117.85 68.95 115.05 74.95 108.9 77.75 108.04296875 78.1533203125 107.15 78.5 107.15390625 78.705078125 107.1 78.9 107.1375 79.054296875 107.15 79.2 107.25 80.1 107 81 106.235546875 83.56484375 104.5 84.55 103.5369140625 85.7103515625 102 85.85 99.5 86.15 97.55 84.55 95.366796875 82.7115234375 94.35 80.25 90.3396484375 79.537890625 86.75 77.05 86.9169921875 78.161328125 86.85 79.2 87.3318359375 83.41015625 84.7 86.7 83.2 88.5 80.85 88.7 77.8 88.95 75.8 86.65 75.6865234375 86.5224609375 75.55 86.4 75.0228515625 86.0912109375 74.55 85.65 72.79765625 83.996875 71.65 82.05 71.1333984375 81.952734375 70.55 81.55 68.8 80.35 66.85 79.65 65.9 79.35 65.85 78.35 65.75 76.35 67.8 76.05 68.5279296875 76.14765625 69.2 76.3 68.5236328125 75.0875 68.35 73.5 68.2 72.1 67.9 70.7 67.3 67.95 68.35 65.6 68.55 65.15 69.05 65.1 71.5 64.95 72.15 67.55 72.699609375 69.7890625 73.35 72 73.8365234375 72.718359375 73.85 73.7 74.6041015625 76.0791015625 75.45 78.4 76.4564453125 81.1568359375 78.35 83.4 80.2482421875 83.4552734375 81.9 82.4 82.1 81.95 82.2 81.5 82.4 80.8 82.75 80.25 82.8 78.7 82.45 77.25 82.2 76.15 82.05 75.05 81.173046875 73.7228515625 81.4 72.8 79.1126953125 70.7900390625 77 68.55 71.4 62.6 64.25 58.5 59 55.55 58.05 49.65 57.25 44.65 58.05 39.65 58.85 34.7 61.1 30.2 62.37421875 27.6216796875 64 25.4 63.9896484375 25.330859375 63.95 25.25 63.9 25.2 63.85 25.1 63.8 25 63.7 24.95 63.55 24.85 63.45 24.75 63.05 24.45 62.7 24.1 62.15 23.6 61.85 22.9 56.25 18.45 49.35 16.75 43.55 15.35 37.55 15.6 33.85 18.1 30.85 21.4 27.3 25.3 25.2 30.1 25 30.55 24.75 30.95 24.75 31 24.75 31.1 24.7 31.15 24.7 31.25 24.7 31.3 24.65 31.4 24.6 31.65 24.5 31.85 24.25 32.45 23.95 33 23.9 33.05 23.85 33.15 22.4 37 21.8 41.1 20.9 47.45 22.1 53.65 22.8 57.4 25.15 60.55 27.35 63.45 30.7 65.15 31.7583984375 65.669140625 32.65 66.3 32.7244140625 66.3158203125 32.8 66.3 34.6 65.95 36.25 65.55 40.85 64.8 44.9 66.45 45.6 66.7 45.55 67.45 45.55 70.65 41.95 69.95 40 69.6 38 69.6 37.15 69.6 36.25 69.65 35.486328125 69.77734375 34.7 69.9 33.366015625 71.525 31.45 70.65 27.916796875 71.630078125 25.2 74.1 24.95 74.35 24.65 74.65 22.3 77.5 22.25 81.15 22.15 86.35 25.5 90.35 31.25 97.15 40.25 98.15 42.7 98.4 45 97.85 47.9177734375 97.20703125 49 99.45 49.037890625 99.4748046875 49.05 99.5 49.55 100.45 48.75 101.15 47.1 102.6 44.8 102.35 44.55 102.5 44.25 102.6 43.2 103.15 42.15 103.75 40.75 104.6 40.15 106 44.4 110.2 50.95 108.65 54.55 107.8 58.15 106.9 58.4533203125 106.829296875 58.75 106.75 59.858203125 105.3447265625 62.2 106.65 63.5 107.35 64.95 107.9 80.25 113.95 96.85 112.45 105.9 111.6 114.5 108.55 119.55 106.8 123.75 103.55 126.1689453125 101.6494140625 128.3 99.45 129.908203125 97.8310546875 131.35 96.05 132.8 93.45 134.2 90.8 134.75 89.75 134.75 88.55 132.6 85.4 128.5 84.9 125.9 84.6 123.5 83.7 122.8 83.45 122.75 82.7 122.5 79.95 123.1 77.3 122.85 68.75 121.65 60.35 121.5431640625 59.6173828125 121.5 58.9 120.1150390625 58.9638671875 118.7 58.85
M 119.15 85.9
Q 119.8 85.8 120.4 85.75 122.7 85.1 124 86.7 124.8 87.7 124.15 88.8 121.8 92.65 117.3 94 113.3 95.2 109.15 94.4 107 93.95 104.85 93.65 103.6 93.45 102.55 92.75 99.5 90.65 102.35 88.6 103.3 87.9 104.5 87.75 111.85 86.9 119.15 85.9
M 119.05 95.85
Q 119.7 95.45 120.4 95.85 123.1712890625 97.3017578125 123.2 99.45 123.2142578125 100.557421875 122.5 101.85 122 102.7 121.15 103.2 117.7 105.25 113.6 105.55 105 106.15 96.45 104.95 95.7 104.85 95 105.05 82.8 109.1 70.2 106.2 65.65 105.15 64.4 101.15 64.15 100.45 64.3 99.75 64.331640625 99.5974609375 64.35 99.45 64.710546875 98.1947265625 65.65 97.3 65.65 97.05 65.1 96.65 63.55 95.6 64.6 94.05 65.15 93.2 66.1 93.15 69.1 92.45 71.4 93.95 71.95 94.3 71.95 95 71.9 97.45 69.7 99 69.42578125 99.21328125 69.15 99.45 68.601953125 99.989453125 68.15 100.65 72.6 103.7 78.3 103.55 80.45 103.55 82.6 103.4 89.3 103.05 95.6 101 96.75 100.6 97.95 100.8 103.25 101.8 108.65 101.95 113.7 102.1 118.3 100.25 118.75 100.05 119.2 99.8 118.9302734375 99.624609375 118.7 99.45 116.3068359375 97.5873046875 119.05 95.85
M 44.95 40.1
Q 47 42.5 47.65 45.5 48.2 48.1 47.55 50.7 47.1 52.35 46.55 54 45.9 55.25 45.1 56.5 44.15 57.9 43.15 59.25 43.1 59.3 43 59.4 43 59.45 42.95 59.55 42.9 59.65 42.85 59.7 37.9 64.95 31.3 62.1 30.45 61.75 29.8 60.95 24 53.75 24.8 44.3 25.35 37.85 27 31.6 27.3 30.5 28.05 29.65 28.7 28.9 29.6 28.85 38.5 32.6 44.95 40.1
M 118.85 19.05
Q 118.2134765625 17.165625 116.55 15.9 107.6583984375 15.7369140625 100 19.8 104.3751953125 18.1375 109.55 18.3 114.370703125 18.080859375 118.85 19.05
M 94.65 31.8
Q 88.696484375 32.0052734375 83.3 34.2 83.7529296875 33.746875 84.1 33.1 85.15 31.15 84.5 29.1 83.85 27.3 82.1 26.05 80.5 24.9 78.35 24.35 74.75 23.7 71.25 25.15 69.0734375 26.0390625 67.5 27.5 66.2123046875 29.220703125 65.2 31.2 64.4 32.75 63.75 34.35 63.4 35 63.1 35.65 62.55 36.75 62.35 38 62.2 38.8 61.85 39.6 60.95 45.7 62.9 51.5 63.5 53.15 64.95 54.15 70.15 57.75 75.25 61.5 77.5564453125 63.162890625 79.55 65.1 79.5638671875 64.515625 79.6 63.9 79.6 63.3 80.1 63 80.65 62.65 81.2 62.65 82.6 62.7 83.05 64 83.2 64.4 83.2 64.85 83.7712890625 66.53828125 84.25 68.25 88.2328125 69.5642578125 91.75 69.7 91.3875 67.2154296875 91.6 64.7 91.7 64.15 92.2 63.9 94.55 62.75 95.05 65.15 95.35 66.45 95.55 67.75 95.675390625 68.612890625 95.85 69.45 98.5861328125 69.0435546875 100.45 67.85 100.0322265625 66.66015625 99.6 65.45 99 63.85 98.95 62.15 98.95 61.25 99.75 60.75 100.25 60.5 100.7 60.5 103.01328125 61.3025390625 103.65 63.9 104.137890625 62.4892578125 104.05 60.85 103.9 58.2 102.35 56 100.213671875 52.6619140625 95.35 50.7 98.7365234375 51.85 102.45 51.85 106.8 51.85 110.75 50.25 115.1 48.4 116.1 45.25 116.75 43.55 116.25 41.6 115.8 39.9 114.6 38.35 112.65 36.1 108.5 34.25 101.95 31.5 94.65 31.8 Z" stroke="none" fill="#6520C6"></path>

<path d="M 43.9 47.2
Q 43.95 46.2 43.55 45.2 38.35 38.1 30.85 33.8 27.75 43 29.9 52.55 30.8 56.6 34.15 59.25 36.2 59.05 38.35 58.5 40.5 56.45 42.1 53.9 42.2 53.75 42.3 53.55 43.65 50.55 43.9 47.2 Z" stroke="none" fill="#5113A3"></path>

<path d="M 84.25 68.25
Q 84.7263671875 69.70234375 85.1 71.15 88.56640625 74.3431640625 93.1 75.6 92.7759765625 74.5296875 92.55 73.4 92.4 72.6 92.2 71.75 91.9376953125 70.730078125 91.75 69.7 88.2328125 69.5642578125 84.25 68.25
M 101.7 71.75
Q 101.5505859375 71.36796875 101.55 71 101.009375 69.4462890625 100.45 67.85 98.5861328125 69.0435546875 95.85 69.45 96.0015625 70.2875 96.2 71.1 97.1755859375 72.051171875 97.25 73.65 97.2853515625 74.309375 97.35 74.95 97.603515625 75.6744140625 97.85 76.35 100.4453125 76.433984375 102.9 75.8 102.4115234375 73.760546875 101.7 71.75
M 125.5 25.7
Q 124.85 25.4 124.3 24.95 113.5 20.65 102.15 23.6 97.75 24.8 94.65 28.2 91.9 31.25 90.6 27.75 90.25 26.9 90.95 26.1 92.9568359375 23.9046875 95.2 22.3 94.606640625 21.7994140625 94.2 20.65 93.95 19.9 93.3 19.45 90.05 17.1 86 17.5 80.05 18.1 74.9 21.05 70.4689453125 23.562109375 67.5 27.5 69.0734375 26.0390625 71.25 25.15 74.75 23.7 78.35 24.35 80.5 24.9 82.1 26.05 83.85 27.3 84.5 29.1 85.15 31.15 84.1 33.1 83.7529296875 33.746875 83.3 34.2 88.696484375 32.0052734375 94.65 31.8 101.95 31.5 108.5 34.25 112.65 36.1 114.6 38.35 115.8 39.9 116.25 41.6 116.75 43.55 116.1 45.25 115.1 48.4 110.75 50.25 106.8 51.85 102.45 51.85 98.7365234375 51.85 95.35 50.7 100.213671875 52.6619140625 102.35 56 103.9 58.2 104.05 60.85 104.137890625 62.4892578125 103.65 63.9 103.7166015625 64.041015625 103.75 64.2 104.15 66 104.75 67.7 105.1015625 68.7455078125 105.4 69.8 105.547265625 69.7220703125 105.7 69.65 106.75 69.2 107.75 68.65 108.05 68.45 108.35 68.45 111.55 68.9 110.05 71.6 109.7 72.15 109.2 72.6 107.95703125 73.640625 106.6 73.95 106.6646484375 74.1482421875 106.7 74.35 110.0654296875 72.6212890625 112.45 69.75 116.75 64.5 114.2 58.45 114.0998046875 58.1994140625 114.05 57.95 113.9462890625 57.930859375 113.85 57.9 110.9 57.55 109.35 55.15 108.75 54.15 109.6 53.4 111.5 51.7 113.75 53.5 114.2 53.9 114.85 54.05 115.5 54.25 116.15 54.6 119.41796875 55.102734375 122.5 54.7 122.8759765625 54.425 123.45 54.4 123.61015625 54.46640625 123.75 54.55 127.359375 53.9060546875 130.7 52.05 132.4 51.1 133.95 49.85 134.05 49.7 134.15 49.55 134.75 48.95 135.2 48.2 135.85 47.25 136.4 46.2 136.6 45.75 136.9 45.4 136.9 45.05 136.95 44.75 137.05 44 137.3 43.3 137.75 42.2 137.65 40.95 137.55 40.2 137.55 39.4 137.5 39.3 137.45 39.25 137.4 39.15 137.4 39.05 137.35 38.85 137.3 38.6 137.3 38.5 137.25 38.45 137.25 38.35 137.25 38.3 137.25 38.2 137.2 38.15 136.3 35.7 134.75 33.55 131.15 28.5 125.5 25.7 Z" stroke="none" fill="#628BFF"></path>
</g>
</g>
</g>
</g>
</g>
</svg>
