
<svg viewBox="0 0 272 172" height="172px" width="272px" y="0px" x="0px" preserveAspectRatio="none" xmlns:xlink="http://www.w3.org/1999/xlink" version="1.1" xmlns="http://www.w3.org/2000/svg">
<defs></defs>

<g id="Layer_2">
<g>
<g>
<g>
<path d="M 211.1 109.5
Q 211.25 106.85 210.85 104.25 210.3 106.15 209.85 108.05 209.05 111.3 207.35 114.15 207.35 114.3 207.35 114.45 207.2 114.9 207.25 115.4 207.25 115.55 207.25 115.7 206.9 116.25 206.55 116.85 205.9 118.05 205.6 119.35 205.6 119.55 205.55 119.7 203.95 122.55 201.7 124.95 200.3 126.55 199.1 128.3 198.75 128.45 198.45 128.6 197.65 129 197.25 129.8 191.3470703125 134.3150390625 184.9 137.7 173.8982421875 143.4619140625 161.3 145.95 155.6251953125 147.07265625 149.9 147.5 141.602734375 148.148828125 133.2 147.35 112.87734375 145.398828125 94.35 137.7 87.744140625 134.94375 81.35 131.45 80.9462890625 131.2283203125 80.55 131 72.4619140625 126.31953125 67.6 118.55 67.3 117.55 66.75 116.55 65.85 115 64.4 113.95 64.35 113.8 64.35 113.65 64.3 113.35 64.3 113 63.7 112.1 63.3 111.15 63.3 111.3 63.3 111.4 63.3 113.1 63.9 114.6 63.95 117 64.5 119.35 64.95 121.2 64.9 123.2 65 123.3 65.05 123.45 65.1 123.55 65.15 123.7 65.15 123.8 65.15 123.95 65.05 124.95 65.35 125.9 65.45 126.15 65.55 126.4 65.55 126.5 65.55 126.65 65.55 127.35 65.55 128.1 65.55 128.25 65.55 128.35 65.65 128.5 65.7 128.6 65.8 129.1 65.8 129.6 65.8 129.7 65.8 129.85 65.9 129.95 65.95 130.05 66.05 130.2 66.1 130.3 66.15 130.45 66.15 130.55 66.2 131.2 66.2 131.8 66.2 131.9 66.2 132.05 66.2 132.15 66.25 132.25 66.5 132.55 66.8 132.8 66.8 132.9 66.85 133 67.1 133.65 67.4 134.25 67.45 134.35 67.5 134.5 68.85 135.85 69.85 137.4 69.9416015625 137.550390625 70 137.7 70.6546875 138.6939453125 71.35 139.65 71.65 139.9 71.95 140.15 72.75 140.95 73.65 141.6 73.75 141.75 73.8 141.9 73.95 142.1 74.05 142.35 74.8 142.75 75.4 143.3 76.15 144 77 144.55 77.05 144.7 77.1 144.8 77.2 144.95 77.25 145.05 77.6 145.2 77.9 145.3 78 145.45 78.1 145.55 78.5 146.3 79.25 146.6 79.3 146.75 79.4 146.85 79.8384765625 147.5919921875 80.55 148 80.8931640625 148.2197265625 81.3 148.35 81.45 148.45 81.55 148.6 81.75 148.85 81.85 149.1 82.1 149.2 82.35 149.3 82.65 149.45 82.9 149.55 83 149.7 83.05 149.8 83.1 149.95 83.15 150.05 84.3 150.85 85.45 151.65 86.3 152.25 87 152.95 87.1 152.95 87.2 153 87.6 153.1 88 153.15 88.1 153.3 88.25 153.45 88.3 153.55 88.4 153.65 88.6 153.8 88.85 153.85 89.22890625 153.9982421875 89.6 154.15 97.493359375 154.0263671875 105.5 153.8 117.8 153.45 130.15 153.45 140.0439453125 153.419921875 149.9 153.25 169.7142578125 153.007421875 189.35 152.3 194.83828125 148.4396484375 199.3 143.2 199.45 143.05 199.6 142.95 200 142.7 200.45 142.45 200.55 142.3 200.65 142.2 201.15 141.35 201.6 140.45 201.65 140.35 201.7 140.25 202.5 139.6 202.95 138.7 203.2267578125 138.1462890625 203.6 137.7 203.920703125 137.3400390625 204.3 137.05 204.35 136.9 204.4 136.8 204.55 136.45 204.5 136.05 205.2 135.3 205.65 134.3 206.2 133.1 207 132.1 207 132 207.05 131.9 207.05 131.75 207.1 131.65 207.2 131.5 207.3 131.4 207.85 130.7 208.35 129.9 208.35 129.8 208.35 129.65 208.35 129.3 208.35 128.95 208.4 128.8 208.5 128.7 208.75 128.45 209 128.2 209 128.05 209 127.95 209 127.7 209 127.45 209.55 126.65 209.7 125.75 209.95 124.4 209.95 123.05 210.05 122.9 210.15 122.8 210.2 122.65 210.3 122.55 210.35 122.4 210.35 122.3 210.4 121.7 210.4 121.05 210.4 120.95 210.4 120.8 210.4 120.7 210.5 120.6 210.55 120.45 210.65 120.3 210.65 114.9 211.1 109.5
M 66.95 82.7
Q 66.7 83.25 66.55 83.85 66.6 83.95 66.6 84 66.6 84.45 66.8 84.8 67.05 87.95 67.4 91.1 67.55 92.8 67.7 94.45 69.35 94.45 71 94.8 71.1 94.8 71.25 94.85 73.8 94.55 76.4 94.2 76.3 92.65 74.55 91.1 73.3 89.95 72.5 88.45 69.9 85.4 66.95 82.7
M 80.55 66.95
Q 79.7375 65.04140625 79 63.05 78.7 62.15 78.35 61.3 78.2 65.25 78.25 69.2 78.25 72.15 78.4 75.05 79.479296875 74.759375 80.55 74.45 82.05859375 73.9970703125 83.55 73.5 81.9404296875 70.3123046875 80.55 66.95
M 199.8 85.75
Q 198.65 86.1 197.55 86.6 197.45 86.75 197.3 86.85 196.85 87.25 196.4 87.75 196.3 87.8 196.2 87.8 195.8 87.95 195.4 88.05 195.25 88.2 195.05 88.3 194.35 88.6 194.15 89.25 194.15 89.35 194.1 89.4 193.4 89.75 192.65 90 198.45 90.95 204.55 91.85 204.55 89.3 204.55 86.7 204.55 85.5 204.55 84.25 203.45 84.7 202.15 84.9 201.4 85 200.6 85.15 200.45 85.3 200.3 85.45 200.15 85.6 200 85.7 199.9 85.75 199.8 85.75
M 191.85 73.45
Q 191.75 73.55 191.7 73.7 194.05 74.75 197 76 197 75.8 197 75.65 197.15 73.9 196.7 72.3 196.7 71.4 196.7 70.55 196.7 68.95 196.7 67.4 196.7 67.25 196.65 67.15 195.6 68.55 194.65 70.05 193.65 71.65 192.4 73.1 192.1 73.25 191.85 73.45
M 176.35 116.1
Q 182.95 112.3 188.4 106.95 174.35 113.35 158.7 115.2 154.289453125 115.73046875 149.9 115.95 130.701171875 117.0916015625 111.9 112.9 106.35 111.65 101.3 109.1 98.75 107.8 96.3 106.85 96.05 106.55 95.9 106.25 95.8 106.15 95.7 106.05 95.15 105.85 94.45 105.6 94.4 105.5 94.35 105.4 94.25 105.3 94.15 105.2 93.15 104.8 92.05 104.6 91.05 103.75 89.9 103.1 89.65 103 89.6 103.15 94.05 114.35 105.35 119.4 113.5 123 122.2 124.9 129 126.4 135.95 126.65 143.0384765625 126.886328125 149.9 125.75 154.6546875 124.982421875 159.3 123.55 168.25 120.8 176.35 116.1 Z" stroke="none" fill="#EE9D33"></path>

<path d="M 181.05 48.2
Q 181 48.05 180.9 47.95 180.6 47.5 180.65 46.95 180.65 46.8 180.65 46.65 180.65 46.5 180.55 46.45 180.25 46.2 180 45.85 179.9 45.7 179.7 45.55 170.1 46.6 161 49.35 160.95 49.05 160.8 48.85 160.75 48.65 160.55 48.5 160.55 48.35 160.55 48.2 160.35 47.75 160.2 47.25 160.15 47.15 160.15 47 159.95 46.65 159.8 46.35 159.75 46.2 159.75 46.05 159.75 45.9 159.75 45.75 159.95 44 159.6 42.3 159.54453125 42.05 159.45 41.8 159.275 41.15 158.95 40.5 158.95 40.2 158.95 39.9 158.95 39.75 158.95 39.6 158.9 39.45 158.8 39.35 158.45 38.9 158.5 38.35 158.55 38.2 158.55 38.05 158.5 37.9 158.4 37.8 158.25 37.6 158.1 37.45 158.05 37.15 157.95 36.85 157.85 36.7 157.7 36.55 156.4 36.5 155.05 36.5 154.9 36.55 154.75 36.65 154.2 37.05 153.7 37.55 153.5 37.7 153.3 37.85 151.591015625 38.5580078125 149.9 39.3 147.2263671875 40.4955078125 144.6 41.8 142.078125 43.05 139.6 44.4 139.05 44.45 138.55 44.4 138.5 44.4 138.45 44.3 138.15 43.3 137.25 42.75 137.05 42.6 136.9 42.45 136.85 42.3 136.8 42.15 136.75 42 136.7 41.85 136.6669921875 41.8251953125 136.6 41.8 136.2669921875 41.52109375 135.9 41.2 135.75 41.1 135.6 40.95 134.9 39.75 134.35 38.5 134.1 37.8 133.55 37.25 133.55 37.1 133.5 36.95 132.95 35.65 132 34.5 131.55 33.95 131.4 33.25 131.1 33.15 130.8 33 130.75 33 130.65 32.95 130.55 32.85 130.5 32.75 130.35 32.6 130.25 32.45 129.15 32.4 128 32.35 125.5 34 123.3 36.4 120.878125 39.0490234375 118.65 41.8 116.5322265625 44.50078125 114.6 47.3 114.1 46.9 113.5 46.55 109.8203125 44.3361328125 106.3 41.8 103.96953125 40.09765625 101.7 38.25 101.15 38.1 100.6 37.9 100.4 37.85 100.25 37.75 99.2 37.7 98.1 37.75 98 37.75 97.9 37.85 97.95 38.4 97.65 38.8 97.55 38.95 97.5 39.1 97.5 39.4 97.5 39.7 97.43671875 40.75 97.35 41.8 97.2373046875 44.9 97.2 48 97.1 53.2 97.1 58.45 91.85 58.1 86.8 56.45 83.539453125 55.4080078125 80.55 55.4 79.0927734375 55.404296875 77.7 55.65 77.15 55.6 76.65 55.6 76.65 55.75 76.65 55.9 76.4 55.95 76.2 56 76.4 56.4 76.55 56.85 76.35 59.6 76.35 62.4 76.35 68.95 76.35 75.5 74.4 75.9 72.45 76.2 67.4 76.95 64.3 79.25 64.75 80.2 65.35 81 65.05 81.85 64.8 82.75 64.35 84.15 64.85 85.45 64.95 87.85 65.25 90.2 65.6 92.35 65.65 94.55 65.25 94.6 64.85 94.65 62.6 95.3 60.25 96.05 60.15 96.1 60 96.15 59.95 96.2 59.95 96.3 59.25 96.35 58.6 96.45 59.2 96.45 59.85 96.5 59.8 96.5 59.75 96.55 59.65 96.65 59.6 96.75 59.6 96.85 59.6 96.95 59.6 97.05 59.6 97.15 59.6 97.25 59.6 97.35 59.6 97.4 59.6 97.45 59.55 97.45 59.45 97.5 59.4 97.5 59.4 97.65 59.4 97.8 59.4 97.95 59.4 98.45 59.4 98.9 59.4 99.05 59.4 99.2 59.9 99.55 59.85 100.1 59.8 100.25 59.8 100.45 60.05 100.75 60.3 101.05 60.45 101.2 60.55 101.35 60.6 101.5 60.6 101.65 60.6 102.2 60.9 102.6 60.85 104.15 60.75 105.65 60.65 107.85 61.3 109.85 61.5 111.45 61.45 113.05 61.4 114.2 61.95 115.25 62 117.25 62.5 119.2 63.15 121.45 62.95 123.85 63 123.95 63.1 124.1 63.15 124.2 63.15 124.35 63.15 124.6 63.15 124.85 63 125.9 63.5 126.8 63.55 126.9 63.6 127.05 63.6 127.15 63.6 127.3 63.6 128.15 63.7 129 63.7 129.15 63.85 129.25 63.85 129.4 63.85 129.5 63.85 129.85 63.85 130.25 63.85 130.35 63.85 130.5 64 130.75 64.15 131 64.2 131.1 64.25 131.2 64.25 131.35 64.25 131.45 64.25 131.95 64.25 132.45 64.25 132.55 64.25 132.7 64.4 132.95 64.6 133.15 64.7 133.3 64.8 133.45 64.85 133.55 64.9 133.7 65.15 134.35 65.45 134.9 65.5 135.05 65.55 135.15 66.6 136.15 67.35 137.35 67.4634765625 137.5259765625 67.55 137.7 68.469140625 139.058984375 69.4 140.3 70.25 140.95 71 141.75 71.3 142.05 71.7 142.3 71.9 142.65 72.15 143 72.25 143.15 72.35 143.25 73.3 143.75 74.15 144.5 74.5 144.8 74.9 145.05 75.05 145.3 75.2 145.55 75.3 145.7 75.4 145.8 75.7 145.9 76.05 146 76.1 146 76.1 146.05 76.45 147 77.2 147.7 78.25 148.7 79.65 149.25 79.7 149.35 79.75 149.5 79.8 149.6 79.9 149.75 80.15 149.85 80.4 149.95 80.4728515625 149.99375 80.55 150.05 80.7373046875 150.14375 80.95 150.25 81.05 150.35 81.1 150.5 81.15 150.6 81.2 150.7 81.95 151.1 82.55 151.6 83.8 152.7 85.2 153.65 86.15 153.5 86.3 154.05 86.3259765625 154.127734375 86.35 154.2 87.9916015625 154.1783203125 89.6 154.15 89.22890625 153.9982421875 88.85 153.85 88.6 153.8 88.4 153.65 88.3 153.55 88.25 153.45 88.1 153.3 88 153.15 87.6 153.1 87.2 153 87.1 152.95 87 152.95 86.3 152.25 85.45 151.65 84.3 150.85 83.15 150.05 83.1 149.95 83.05 149.8 83 149.7 82.9 149.55 82.65 149.45 82.35 149.3 82.1 149.2 81.85 149.1 81.75 148.85 81.55 148.6 81.45 148.45 81.3 148.35 80.8931640625 148.2197265625 80.55 148 79.8384765625 147.5919921875 79.4 146.85 79.3 146.75 79.25 146.6 78.5 146.3 78.1 145.55 78 145.45 77.9 145.3 77.6 145.2 77.25 145.05 77.2 144.95 77.1 144.8 77.05 144.7 77 144.55 76.15 144 75.4 143.3 74.8 142.75 74.05 142.35 73.95 142.1 73.8 141.9 73.75 141.75 73.65 141.6 72.75 140.95 71.95 140.15 71.65 139.9 71.35 139.65 70.6546875 138.6939453125 70 137.7 69.9416015625 137.550390625 69.85 137.4 68.85 135.85 67.5 134.5 67.45 134.35 67.4 134.25 67.1 133.65 66.85 133 66.8 132.9 66.8 132.8 66.5 132.55 66.25 132.25 66.2 132.15 66.2 132.05 66.2 131.9 66.2 131.8 66.2 131.2 66.15 130.55 66.15 130.45 66.1 130.3 66.05 130.2 65.95 130.05 65.9 129.95 65.8 129.85 65.8 129.7 65.8 129.6 65.8 129.1 65.7 128.6 65.65 128.5 65.55 128.35 65.55 128.25 65.55 128.1 65.55 127.35 65.55 126.65 65.55 126.5 65.55 126.4 65.45 126.15 65.35 125.9 65.05 124.95 65.15 123.95 65.15 123.8 65.15 123.7 65.1 123.55 65.05 123.45 65 123.3 64.9 123.2 64.95 121.2 64.5 119.35 63.95 117 63.9 114.6 63.3 113.1 63.3 111.4 63.3 111.3 63.3 111.15 63.7 112.1 64.3 113 64.3 113.35 64.35 113.65 64.35 113.8 64.4 113.95 65.85 115 66.75 116.55 67.3 117.55 67.6 118.55 72.4619140625 126.31953125 80.55 131 80.9462890625 131.2283203125 81.35 131.45 87.744140625 134.94375 94.35 137.7 112.87734375 145.398828125 133.2 147.35 141.602734375 148.148828125 149.9 147.5 155.6251953125 147.07265625 161.3 145.95 173.8982421875 143.4619140625 184.9 137.7 191.3470703125 134.3150390625 197.25 129.8 197.65 129 198.45 128.6 198.75 128.45 199.1 128.3 200.3 126.55 201.7 124.95 203.95 122.55 205.55 119.7 205.6 119.55 205.6 119.35 205.9 118.05 206.55 116.85 206.9 116.25 207.25 115.7 207.25 115.55 207.25 115.4 207.2 114.9 207.35 114.45 207.35 114.3 207.35 114.15 209.05 111.3 209.85 108.05 210.3 106.15 210.85 104.25 211.25 106.85 211.1 109.5 210.65 114.9 210.65 120.3 210.55 120.45 210.5 120.6 210.4 120.7 210.4 120.8 210.4 120.95 210.4 121.05 210.4 121.7 210.35 122.3 210.35 122.4 210.3 122.55 210.2 122.65 210.15 122.8 210.05 122.9 209.95 123.05 209.95 124.4 209.7 125.75 209.55 126.65 209 127.45 209 127.7 209 127.95 209 128.05 209 128.2 208.75 128.45 208.5 128.7 208.4 128.8 208.35 128.95 208.35 129.3 208.35 129.65 208.35 129.8 208.35 129.9 207.85 130.7 207.3 131.4 207.2 131.5 207.1 131.65 207.05 131.75 207.05 131.9 207 132 207 132.1 206.2 133.1 205.65 134.3 205.2 135.3 204.5 136.05 204.55 136.45 204.4 136.8 204.35 136.9 204.3 137.05 203.920703125 137.3400390625 203.6 137.7 203.2267578125 138.1462890625 202.95 138.7 202.5 139.6 201.7 140.25 201.65 140.35 201.6 140.45 201.15 141.35 200.65 142.2 200.55 142.3 200.45 142.45 200 142.7 199.6 142.95 199.45 143.05 199.3 143.2 194.83828125 148.4396484375 189.35 152.3 190.92890625 152.24375 192.45 152.15 197.4205078125 148.5537109375 201.45 143.65 201.95 143.45 202.4 143.1 202.5 143.05 202.5 142.95 202.55 142.8 202.65 142.7 203.3 141.9 203.65 140.95 203.7 140.85 203.75 140.7 204.9 140.05 205.4 138.75 205.5 138.5 205.65 138.25 205.9 138 206.2 137.75 206.225 137.725 206.25 137.7 206.3125 137.625 206.35 137.55 206.4 137.3 206.45 137.05 206.45 136.9 206.45 136.8 207.3 135.75 207.9 134.6 208.35 133.7 208.9 132.85 208.95 132.75 208.95 132.6 209 132.5 209 132.35 210 131.4 210.25 130.15 210.3 129.9 210.3 129.65 210.6 129.3 210.85 128.9 210.9 128.8 210.95 128.7 210.95 128.45 210.95 128.2 210.95 128.05 210.95 127.95 211.4 127.5 211.6 126.95 211.65 126.85 211.7 126.7 211.7 126.6 211.7 126.45 211.7 126.1 211.7 125.75 211.7 125.6 211.7 125.5 211.8 125.35 211.85 125.25 211.9 125.1 211.95 125 211.95 124.85 211.95 124.75 211.95 124.4 211.95 124 211.95 123.9 211.95 123.75 212.1 123.5 212.25 123.25 212.3 123.15 212.35 123.05 212.35 122.9 212.35 122.8 212.35 122.15 212.35 121.55 212.35 121.45 212.35 121.3 212.45 121.2 212.5 121.05 212.55 120.95 212.6 120.8 212.6 119.2 212.6 117.6 212.6 116.25 212.6 114.9 213.3 111.7 213.1 108.3 212.75 102 212.35 95.75 212.35 95.65 212.35 95.6 212.25 95.6 212.2 95.6 212.2 94.3 212.2 92.95 209.35 92.55 206.55 92.15 206.55 90.25 206.55 88.35 206.55 85.7 206.55 83.1 206.9 82.75 207.25 82.4 204.7 79.3 200.75 77.6 199.85 77.2 198.95 76.85 198.95 75.4 199 73.95 199.05 72.8 198.65 71.8 198.65 70.1 198.75 68.45 198.8 67.3 198.4 66.25 198.5 65.2 198.2 64.25 198.4 63.9 198.55 63.55 198.6 63.4 198.65 63.25 198.65 62.95 198.65 62.65 198.65 62.05 198.65 61.4 198.6 61.25 198.55 61.1 198.2 61 197.85 60.9 197.85 60.85 197.8 60.85 197.7 60.7 197.55 60.55 197.45 60.45 197.35 60.3 196.4 60 195.5 59.65 195.25 59.55 195 59.45 188 59.2 181.05 58.95 181.05 56.2 181.05 53.45 181.05 50.8 181.05 48.2
M 178.2 46.75
Q 178.8 47.05 178.65 47.7 178.6 47.85 178.6 48 179.3 50.8 179.15 53.85 179 56.75 179 59.65 186.05 59.95 193.15 60.2 194.15 60.75 195.3 60.95
L 195.3 61
Q 195.35 61.05 195.45 61.15 195.15 61.1 194.85 61.1 195.05 62.7 195.7 64.25 195.55 64.35 195.4 64.5 195.35 64.95 195.25 65.4 195.25 65.55 195.2 65.7 193.95 67.45 192.75 69.15 190.9 71.75 189.25 74 196.95 77.2 204.6 82.2 203.85 82.55 203.3 82.85 201.2 84 198.75 84.45 197.8 85.15 196.65 85.5 195.3 85.95 194.35 87 193.95 87.1 193.55 87.2 192.85 87.75 192.25 88.4 192.15 88.5 192.1 88.65 191.6 88.75 191.1 88.9 191.05 88.9 191 88.95 190.9 89.05 190.8 89.15 190.15 89.7 189.7 90.45 189.65 90.55 189.65 90.7 199.9 92.05 210.15 93.65 210.15 93.8 210.15 94 210.15 95.65 210.15 97.35 210.15 98.3 210.15 99.2 208.95 102.2 208.25 105.3 207.25 109.5 205.45 113.35 205.3 115.15 204.35 116.7 203.7 117.85 203.5 119.15 202.55 120.35 201.85 121.65 201.6 122.1 201.35 122.55 200 123.6 199 125 198 126.5 196.8 127.75 195.85 128.15 195.3 129 195.2 129.15 195.1 129.3 189.1103515625 134.1572265625 182.4 137.7 177.8685546875 140.1021484375 173 141.9 164.3 145.1 155.2 145.9 152.5416015625 146.121875 149.9 146.25 122.772265625 147.4525390625 97.45 137.7 94.1421875 136.4197265625 90.85 134.95 85.23515625 132.4521484375 80.55 129 74.2626953125 124.3390625 69.65 117.95 69.65 117.8 69.6 117.65 69.6 117.5 69.55 117.3 68.45 116.3 67.8 114.9 67.35 113.9 66.45 113.35 66.4 113 66.4 112.7 66.35 112.55 66.35 112.4 65.25 110.5 64.65 108.4 64.05 106.45 63.1 104.75 63.1 104.4 63.1 104.1 63.1 103.35 63.1 102.6 63.1 102.4 63.1 102.25 63.05 102.1 63 101.95 62.95 101.75 62.85 101.6 62.85 101.45 62.85 101.3 62.75 101.2 62.7 101.05 62.65 100.95 62.6 100.85 62.6 100.6 62.6 100.35 62.6 99.5 62.6 98.6 62.6 98.5 62.6 98.35
L 62.6 98.25
Q 62.2 98.2 61.85 98.2 61.85 98.1 61.85 98 61.85 97.8 61.8 97.6 61.8 97.4 61.85 97.2 61.85 97.1 61.9 97 62.5 96.7 63.1 96.5 67.55 96.45 72.4 96.1 76.55 95.75 79.05 94.1 78 91.85 76.45 89.8 72.5 84.8 67.75 80.7 67.9 80.2 67.85 79.7
L 67.85 79.6
Q 67.35 79.5 66.85 79.5 66.8 79.4 66.7 79.3 66.55 79.2 66.45 79.05 73.9017578125 77.7900390625 80.55 75.65 83.1357421875 74.8521484375 85.6 73.9 85.6 73.75 85.6 73.6 85.6 73.15 85.6 72.7 85.55 72.5 85.5 72.35 83.65 69.5 82.4 66.3 81.446484375 63.747265625 80.55 61.15 79.9888671875 59.5666015625 79.45 57.95 79.2 57.65 78.95 57.3 78.85 57.15 78.75 57 78.7 56.7 78.6 56.4
L 78.6 56.35
Q 78.6 56.25 78.6 56.15 79.5765625 56.40703125 80.55 56.65 89.99375 58.9234375 99.15 59.15 99.15 58.85 99.15 58.55 99.15 54.4 99.1 50.25 99.062109375 45.92421875 99.5 41.8 99.6572265625 40.48984375 99.85 39.2 100.6 39.7 101.35 40.2 102.51796875 41.01484375 103.7 41.8 104.6951171875 42.460546875 105.7 43.1 106.2 43.75 106.85 44.25 110.05 46.4 113.25 48.4 115.05 48.25 116.85 48.1 118.1 45.85 119.65 43.8 120.4150390625 42.786328125 121.2 41.8 124.577734375 37.6296875 128.5 33.95 128.95 33.9 129.35 33.95 129.4 33.95 129.45 34.05 129.5 34.25 129.55 34.35 130.1 35.55 130.95 36.55 131.2 36.85 131.4 37.15 131.45 37.3 131.45 37.45 131.5 37.6 131.5 37.75 132.45 38.85 132.9 40.2 133.15 40.85 133.45 41.45 133.6611328125 41.6158203125 133.85 41.8 134.3158203125 42.226171875 134.7 42.75 134.75 42.85 134.75 43 135.75 43.75 136.35 44.85 136.4 45 136.4 45.15 136.75 45.25 137.1 45.35 137.2 45.4 137.25 45.45 137.3 45.55 137.35 45.65 137.5 45.8 137.65 45.95 138.85 46 140.1 46
L 140.1 45.95
Q 143.976171875 43.7072265625 147.85 41.8 148.881640625 41.301171875 149.9 40.8 152.9712890625 39.3814453125 156.05 38.15 156.55 38.5 156.5 39.1 156.5 39.25 156.5 39.4 156.6 39.55 156.7 39.7 156.8 39.85 156.9 40 156.9 40.45 156.9 40.95 156.9 41.1 156.9 41.25 157.0375 41.525 157.1 41.8 157.0958984375 41.825 157.1 41.85 157.25 42.8 157.55 43.7 157.6 43.85 157.7 44 157.7 44.45 157.7 44.95 157.7 45.7 157.7 46.45 157.7 46.6 157.7 46.75 157.9 47.25 158.05 47.7 158.1 47.85 158.1 48 158.2 48.15 158.3 48.3 158.6 49.25 159.05 50.15 159.15 50.3 159.25 50.45 168.85 48.65 178.2 46.75
M 191.7 73.7
Q 191.75 73.55 191.85 73.45 192.1 73.25 192.4 73.1 193.65 71.65 194.65 70.05 195.6 68.55 196.65 67.15 196.7 67.25 196.7 67.4 196.7 68.95 196.7 70.55 196.7 71.4 196.7 72.3 197.15 73.9 197 75.65 197 75.8 197 76 194.05 74.75 191.7 73.7
M 197.55 86.6
Q 198.65 86.1 199.8 85.75 199.9 85.75 200 85.7 200.15 85.6 200.3 85.45 200.45 85.3 200.6 85.15 201.4 85 202.15 84.9 203.45 84.7 204.55 84.25 204.55 85.5 204.55 86.7 204.55 89.3 204.55 91.85 198.45 90.95 192.65 90 193.4 89.75 194.1 89.4 194.15 89.35 194.15 89.25 194.35 88.6 195.05 88.3 195.25 88.2 195.4 88.05 195.8 87.95 196.2 87.8 196.3 87.8 196.4 87.75 196.85 87.25 197.3 86.85 197.45 86.75 197.55 86.6
M 79 63.05
Q 79.7375 65.04140625 80.55 66.95 81.9404296875 70.3123046875 83.55 73.5 82.05859375 73.9970703125 80.55 74.45 79.479296875 74.759375 78.4 75.05 78.25 72.15 78.25 69.2 78.2 65.25 78.35 61.3 78.7 62.15 79 63.05
M 66.55 83.85
Q 66.7 83.25 66.95 82.7 69.9 85.4 72.5 88.45 73.3 89.95 74.55 91.1 76.3 92.65 76.4 94.2 73.8 94.55 71.25 94.85 71.1 94.8 71 94.8 69.35 94.45 67.7 94.45 67.55 92.8 67.4 91.1 67.05 87.95 66.8 84.8 66.6 84.45 66.6 84 66.6 83.95 66.55 83.85
M 91.2 85.15
Q 91.35 85.25 91.45 85.35 94.1 89.1 98.75 90.05 107.5 91.75 115.85 89.05 116.2 88.7 116.6 88.35 117 88 117.25 87.6 117.5 87.25 117.75 86.95 117.8 86.85 117.85 86.75 117.9 86.7 117.95 86.6 117.95 86.5 117.95 86.4 117.95 86.3 117.95 86.2 117.95 86.1 117.95 86 117.95 85.9 118 85.8 118.05 85.7 118.1 85.6 118.15 85.5 118.2 85.4 118.2 85.3 118.2 85.2 118.2 84.9 118.2 84.6 118.2 84.5 118.2 84.4 118.2 84.3 118.2 84.2 118.2 84 118.2 83.85 118.2 83.75 118.2 83.65 118.2 83.55 118.2 83.45 118.15 83.35 118.1 83.25 118.05 83.15 118 83 117.95 82.95 117.95 82.85 117.95 82.75 117.95 82.65 117.95 82.55 117.95 82.45 117.9 82.25 117.85 82.05 117.85 81.95 117.8 81.85 117.75 81.75 117.75 81.65 117.65 81.55 117.6 81.45 117.5 81.35 117.35 81.25 117.25 81.15 117.15 81.1 117.05 81 116.95 80.9 116.9 80.8 116.9 80.7 116.85 80.6 116.8 80.5 116.75 80.4 116.7 80.3 116.55 80.2 116.45 80.1 116.35 80 116.25 79.9 116.05 79.7 115.9 79.5 115.85 79.4 115.75 79.3 115.7 79.2 115.65 79.1 115.5 79.05 115.3 79 115.2 78.95 115.15 78.9 115.05 78.85 115 78.8 114.9 78.7 114.85 78.6 114.75 78.5 114.65 78.4 113.45 77.65 112.15 77.15 108.05 75.7 103.65 75.9 97.55 76.15 92.75 80 91.4 81.1 90.8 82.8 90.8 82.9 90.8 83 90.8 83.25 90.8 83.55 90.8 83.65 90.8 83.75 90.8 83.85 90.8 83.95 90.8 84.15 90.8 84.35 90.8 84.45 90.8 84.55 90.85 84.65 90.85 84.75 90.95 84.85 91 84.95 91.1 85.05 91.2 85.15
M 92.75 83.85
Q 93.05 82.05 94.5 80.8 98.45 77.35 103.65 76.9 108.7 76.45 112.9 79.15 112.9 79.25 113 79.35 113.05 79.45 113.15 79.55 113.35 79.65 113.55 79.7 113.65 79.75 113.75 79.85 113.85 80.05 114 80.25 114.2 80.6 114.5 80.85 114.65 80.9 114.7 81 114.8 81.2 114.95 81.4 115.15 81.75 115.45 82 115.6 82.1 115.7 82.2 115.75 82.3 115.8 82.4 115.85 82.5 115.9 82.6 115.95 82.7 115.95 82.8 115.95 82.9 115.95 83 115.95 83.15 115.95 83.35 115.95 83.45 115.95 83.55 115.95 83.65 115.95 83.75 116.1 83.95 116.2 84.15 116.25 84.25 116.25 84.35 116.25 84.45 116.25 84.55 116.25 84.65 116.2 84.7 116.05 85 116 85.35 115.95 85.65 115.95 85.9 115.95 86 115.9 86.1 115.75 86.3 115.55 86.5 112.05 90.6 106.05 89.4 104.75 88.75 103.25 89.15 101.05 89.7 98.05 88.45 94.6 86.95 92.75 83.85
M 194.1 103.4
Q 194.4 103.15 194.45 102.75 194.5 102.65 194.5 102.55 194.5 102.45 194.45 102.45 193.5 102.25 192.5 102.15
L 192.5 102.2
Q 192.4 102.25 192.3 102.35 192.2 102.4 192.15 102.5 192.1 102.6 192 102.7 190.65 103.75 189.15 104.65 188.25 105.15 187.25 105.5 187.2 105.6 187.15 105.7 187.05 105.8 186.95 105.9 177.45 110.7 166.9 112.8 164 113.35 161.15 113.8 155.5212890625 114.6916015625 149.9 115.1 134.398046875 116.2583984375 118.95 113.8 108.25 112.1 99.2 106.3 98.75 106.25 98.3 106.15 98.2 106.1 98.15 106.05 98.1 105.95 98 105.85 97.9 105.65 97.75 105.45 97.65 105.35 97.55 105.25 97.25 105.2 96.9 105.1 96.75 105.05 96.55 105 96.45 104.9 96.35 104.8 95.45 104.05 94.2 103.95 94.05 103.95 93.9 103.9 92.5 102.9 91 102.2 90.25 101.85 89.7 101.25 88.5 101.25 87.25 101.2 87.2 101.25 87.15 101.35 87.15 101.4 87.15 101.5 87.15 101.6 87.15 101.7 87.15 101.9 87.15 102.1 87.15 102.2 87.15 102.3 87.25 102.4 87.3 102.5 87.35 102.6 87.4 102.7 87.4 102.8 87.4 102.9 87.45 103.1 87.55 103.3 87.6 103.4 87.65 103.5 87.65 103.6 87.65 103.7 87.65 103.8 87.65 103.9 87.65 104.1 87.7 104.25 87.7 104.35 87.7 104.45 89.15 106.65 90.55 108.85 96.05 117.8 106.25 121.5 126.45 128.75 147.8 127.05 148.854296875 126.9662109375 149.9 126.85 153.218359375 126.4603515625 156.45 125.7 166.75 123.3 176.05 118.2 184.45 113.65 191.2 106.9 191.25 106.8 191.3 106.7 191.35 106.6 191.4 106.5 191.45 106.4 191.45 106.3 191.9 105.85 192.25 105.4 192.6 105 193.1 104.7 193.2 104.65 193.3 104.55 193.35 104.45 193.35 104.35 193.4 104.25 193.45 104.15 193.45 104.05 193.5 103.95 193.8 103.65 194.1 103.4
M 188.4 106.95
Q 182.95 112.3 176.35 116.1 168.25 120.8 159.3 123.55 154.6546875 124.982421875 149.9 125.75 143.0384765625 126.886328125 135.95 126.65 129 126.4 122.2 124.9 113.5 123 105.35 119.4 94.05 114.35 89.6 103.15 89.65 103 89.9 103.1 91.05 103.75 92.05 104.6 93.15 104.8 94.15 105.2 94.25 105.3 94.35 105.4 94.4 105.5 94.45 105.6 95.15 105.85 95.7 106.05 95.8 106.15 95.9 106.25 96.05 106.55 96.3 106.85 98.75 107.8 101.3 109.1 106.35 111.65 111.9 112.9 130.701171875 117.0916015625 149.9 115.95 154.289453125 115.73046875 158.7 115.2 174.35 113.35 188.4 106.95
M 173.6 77.85
Q 173.5 77.85 173.45 77.8 172.4 76.65 170.85 76.05 166.8 74.5 162.3 75.05 158 75.65 154.3 78 153 78.8 151.95 79.9 151.9 80 151.85 80.1 151.8 80.2 151.75 80.3 151.7 80.4 151.6 80.5 151.6 80.9 151.6 81.25 151.6 81.75 151.6 82.25 151.6 82.75 151.6 83.25 151.6 83.35 151.6 83.45 151.8 83.75 152.05 84 152.1 84.1 152.2 84.2 152.3 84.3 152.4 84.4 153.6 87.3 156.7 88 165.6 89.95 174.6 86.9 175.55 86.2 176.25 85.3 176.85 84.55 177.1 83.75 177.15 83.65 177.2 83.55 177.2 83.45 177.2 83.35 177.2 83.1 177.2 82.8 177.2 82.6 177.2 82.4 177.2 82.3 177.2 82.2 177.1 82.1 177.05 82 177 81.9 176.9 81.8 176.9 81.6 176.9 81.4 176.9 81.3 176.85 81.25 176.8 81.1 176.65 81 176.65 80.8 176.65 80.6 176.6 80.5 176.6 80.4 176.55 80.3 176.5 80.2 176.1 79.9 175.75 79.5 175.1 78.85 174.45 78.25 174.35 78.15 174.3 78.05 174.1 78 173.9 77.95 173.75 77.9 173.6 77.85
M 172.45 78.8
Q 172.55 79.15 172.85 79.35 173.9 80.1 174.6 81.1 174.65 81.15 174.65 81.25 174.7 81.35 174.7 81.45 174.7 81.55 174.7 81.65 175 81.9 175.05 82.25 175.1 82.65 175.15 83.05 175.05 83.25 175 83.45 174.9 83.65 174.9 83.85 174.65 84.1 174.5 84.35 173.75 85.45 172.7 86.2 165.2 88.55 157.5 87.25 157.4 87.15 157.25 87.1 156.5 86.55 155.85 86 154.75 85.05 154.35 83.75 154.2 83.55 154 83.35 153.8 83.05 153.6 82.8 153.6 82.3 153.55 81.8 153.55 81.3 153.7 80.8 154.8 79.6 156.15 78.75 159.488671875 76.570703125 163.4 75.85 163.737890625 75.797265625 164.05 75.75 164.46328125 75.789453125 164.85 75.8 165.51328125 75.908984375 166.15 76 169.3 76.45 171.6 78.5 171.85 78.6 172.05 78.65 172.25 78.7 172.45 78.8 Z" stroke="none" fill="#000000"></path>

<path d="M 178.65 47.7
Q 178.8 47.05 178.2 46.75 168.85 48.65 159.25 50.45 159.15 50.3 159.05 50.15 158.6 49.25 158.3 48.3 158.2 48.15 158.1 48 158.1 47.85 158.05 47.7 157.9 47.25 157.7 46.75 157.7 46.6 157.7 46.45 157.7 45.7 157.7 44.95 157.7 44.45 157.7 44 157.6 43.85 157.55 43.7 157.25 42.8 157.1 41.85 157.0958984375 41.825 157.1 41.8 157.0375 41.525 156.9 41.25 156.9 41.1 156.9 40.95 156.9 40.45 156.9 40 156.8 39.85 156.7 39.7 156.6 39.55 156.5 39.4 156.5 39.25 156.5 39.1 156.55 38.5 156.05 38.15 152.9712890625 39.3814453125 149.9 40.8 148.881640625 41.301171875 147.85 41.8 143.976171875 43.7072265625 140.1 45.95
L 140.1 46
Q 138.85 46 137.65 45.95 137.5 45.8 137.35 45.65 137.3 45.55 137.25 45.45 137.2 45.4 137.1 45.35 136.75 45.25 136.4 45.15 136.4 45 136.35 44.85 135.75 43.75 134.75 43 134.75 42.85 134.7 42.75 134.3158203125 42.226171875 133.85 41.8 133.6611328125 41.6158203125 133.45 41.45 133.15 40.85 132.9 40.2 132.45 38.85 131.5 37.75 131.5 37.6 131.45 37.45 131.45 37.3 131.4 37.15 131.2 36.85 130.95 36.55 130.1 35.55 129.55 34.35 129.5 34.25 129.45 34.05 129.4 33.95 129.35 33.95 128.95 33.9 128.5 33.95 124.577734375 37.6296875 121.2 41.8 120.4150390625 42.786328125 119.65 43.8 118.1 45.85 116.85 48.1 115.05 48.25 113.25 48.4 110.05 46.4 106.85 44.25 106.2 43.75 105.7 43.1 104.6951171875 42.460546875 103.7 41.8 102.51796875 41.01484375 101.35 40.2 100.6 39.7 99.85 39.2 99.6572265625 40.48984375 99.5 41.8 99.062109375 45.92421875 99.1 50.25 99.15 54.4 99.15 58.55 99.15 58.85 99.15 59.15 89.99375 58.9234375 80.55 56.65 79.5765625 56.40703125 78.6 56.15 78.6 56.25 78.6 56.35
L 78.6 56.4
Q 78.7 56.7 78.75 57 78.85 57.15 78.95 57.3 79.2 57.65 79.45 57.95 79.9888671875 59.5666015625 80.55 61.15 81.446484375 63.747265625 82.4 66.3 83.65 69.5 85.5 72.35 85.55 72.5 85.6 72.7 85.6 73.15 85.6 73.6 85.6 73.75 85.6 73.9 83.1357421875 74.8521484375 80.55 75.65 73.9017578125 77.7900390625 66.45 79.05 66.55 79.2 66.7 79.3 66.8 79.4 66.85 79.5 67.35 79.5 67.85 79.6
L 67.85 79.7
Q 67.9 80.2 67.75 80.7 72.5 84.8 76.45 89.8 78 91.85 79.05 94.1 76.55 95.75 72.4 96.1 67.55 96.45 63.1 96.5 62.5 96.7 61.9 97 61.85 97.1 61.85 97.2 61.8 97.4 61.8 97.6 61.85 97.8 61.85 98 61.85 98.1 61.85 98.2 62.2 98.2 62.6 98.25
L 62.6 98.35
Q 62.6 98.5 62.6 98.6 62.6 99.5 62.6 100.35 62.6 100.6 62.6 100.85 62.65 100.95 62.7 101.05 62.75 101.2 62.85 101.3 62.85 101.45 62.85 101.6 62.95 101.75 63 101.95 63.05 102.1 63.1 102.25 63.1 102.4 63.1 102.6 63.1 103.35 63.1 104.1 63.1 104.4 63.1 104.75 64.05 106.45 64.65 108.4 65.25 110.5 66.35 112.4 66.35 112.55 66.4 112.7 66.4 113 66.45 113.35 67.35 113.9 67.8 114.9 68.45 116.3 69.55 117.3 69.6 117.5 69.6 117.65 69.65 117.8 69.65 117.95 74.2626953125 124.3390625 80.55 129 85.23515625 132.4521484375 90.85 134.95 94.1421875 136.4197265625 97.45 137.7 122.772265625 147.4525390625 149.9 146.25 152.5416015625 146.121875 155.2 145.9 164.3 145.1 173 141.9 177.8685546875 140.1021484375 182.4 137.7 189.1103515625 134.1572265625 195.1 129.3 195.2 129.15 195.3 129 195.85 128.15 196.8 127.75 198 126.5 199 125 200 123.6 201.35 122.55 201.6 122.1 201.85 121.65 202.55 120.35 203.5 119.15 203.7 117.85 204.35 116.7 205.3 115.15 205.45 113.35 207.25 109.5 208.25 105.3 208.95 102.2 210.15 99.2 210.15 98.3 210.15 97.35 210.15 95.65 210.15 94 210.15 93.8 210.15 93.65 199.9 92.05 189.65 90.7 189.65 90.55 189.7 90.45 190.15 89.7 190.8 89.15 190.9 89.05 191 88.95 191.05 88.9 191.1 88.9 191.6 88.75 192.1 88.65 192.15 88.5 192.25 88.4 192.85 87.75 193.55 87.2 193.95 87.1 194.35 87 195.3 85.95 196.65 85.5 197.8 85.15 198.75 84.45 201.2 84 203.3 82.85 203.85 82.55 204.6 82.2 196.95 77.2 189.25 74 190.9 71.75 192.75 69.15 193.95 67.45 195.2 65.7 195.25 65.55 195.25 65.4 195.35 64.95 195.4 64.5 195.55 64.35 195.7 64.25 195.05 62.7 194.85 61.1 195.15 61.1 195.45 61.15 195.35 61.05 195.3 61
L 195.3 60.95
Q 194.15 60.75 193.15 60.2 186.05 59.95 179 59.65 179 56.75 179.15 53.85 179.3 50.8 178.6 48 178.6 47.85 178.65 47.7
M 173.45 77.8
Q 173.5 77.85 173.6 77.85 173.75 77.9 173.9 77.95 174.1 78 174.3 78.05 174.35 78.15 174.45 78.25 175.1 78.85 175.75 79.5 176.1 79.9 176.5 80.2 176.55 80.3 176.6 80.4 176.6 80.5 176.65 80.6 176.65 80.8 176.65 81 176.8 81.1 176.85 81.25 176.9 81.3 176.9 81.4 176.9 81.6 176.9 81.8 177 81.9 177.05 82 177.1 82.1 177.2 82.2 177.2 82.3 177.2 82.4 177.2 82.6 177.2 82.8 177.2 83.1 177.2 83.35 177.2 83.45 177.2 83.55 177.15 83.65 177.1 83.75 176.85 84.55 176.25 85.3 175.55 86.2 174.6 86.9 165.6 89.95 156.7 88 153.6 87.3 152.4 84.4 152.3 84.3 152.2 84.2 152.1 84.1 152.05 84 151.8 83.75 151.6 83.45 151.6 83.35 151.6 83.25 151.6 82.75 151.6 82.25 151.6 81.75 151.6 81.25 151.6 80.9 151.6 80.5 151.7 80.4 151.75 80.3 151.8 80.2 151.85 80.1 151.9 80 151.95 79.9 153 78.8 154.3 78 158 75.65 162.3 75.05 166.8 74.5 170.85 76.05 172.4 76.65 173.45 77.8
M 194.45 102.75
Q 194.4 103.15 194.1 103.4 193.8 103.65 193.5 103.95 193.45 104.05 193.45 104.15 193.4 104.25 193.35 104.35 193.35 104.45 193.3 104.55 193.2 104.65 193.1 104.7 192.6 105 192.25 105.4 191.9 105.85 191.45 106.3 191.45 106.4 191.4 106.5 191.35 106.6 191.3 106.7 191.25 106.8 191.2 106.9 184.45 113.65 176.05 118.2 166.75 123.3 156.45 125.7 153.218359375 126.4603515625 149.9 126.85 148.854296875 126.9662109375 147.8 127.05 126.45 128.75 106.25 121.5 96.05 117.8 90.55 108.85 89.15 106.65 87.7 104.45 87.7 104.35 87.7 104.25 87.65 104.1 87.65 103.9 87.65 103.8 87.65 103.7 87.65 103.6 87.65 103.5 87.6 103.4 87.55 103.3 87.45 103.1 87.4 102.9 87.4 102.8 87.4 102.7 87.35 102.6 87.3 102.5 87.25 102.4 87.15 102.3 87.15 102.2 87.15 102.1 87.15 101.9 87.15 101.7 87.15 101.6 87.15 101.5 87.15 101.4 87.15 101.35 87.2 101.25 87.25 101.2 88.5 101.25 89.7 101.25 90.25 101.85 91 102.2 92.5 102.9 93.9 103.9 94.05 103.95 94.2 103.95 95.45 104.05 96.35 104.8 96.45 104.9 96.55 105 96.75 105.05 96.9 105.1 97.25 105.2 97.55 105.25 97.65 105.35 97.75 105.45 97.9 105.65 98 105.85 98.1 105.95 98.15 106.05 98.2 106.1 98.3 106.15 98.75 106.25 99.2 106.3 108.25 112.1 118.95 113.8 134.398046875 116.2583984375 149.9 115.1 155.5212890625 114.6916015625 161.15 113.8 164 113.35 166.9 112.8 177.45 110.7 186.95 105.9 187.05 105.8 187.15 105.7 187.2 105.6 187.25 105.5 188.25 105.15 189.15 104.65 190.65 103.75 192 102.7 192.1 102.6 192.15 102.5 192.2 102.4 192.3 102.35 192.4 102.25 192.5 102.2
L 192.5 102.15
Q 193.5 102.25 194.45 102.45 194.5 102.45 194.5 102.55 194.5 102.65 194.45 102.75
M 91.45 85.35
Q 91.35 85.25 91.2 85.15 91.1 85.05 91 84.95 90.95 84.85 90.85 84.75 90.85 84.65 90.8 84.55 90.8 84.45 90.8 84.35 90.8 84.15 90.8 83.95 90.8 83.85 90.8 83.75 90.8 83.65 90.8 83.55 90.8 83.25 90.8 83 90.8 82.9 90.8 82.8 91.4 81.1 92.75 80 97.55 76.15 103.65 75.9 108.05 75.7 112.15 77.15 113.45 77.65 114.65 78.4 114.75 78.5 114.85 78.6 114.9 78.7 115 78.8 115.05 78.85 115.15 78.9 115.2 78.95 115.3 79 115.5 79.05 115.65 79.1 115.7 79.2 115.75 79.3 115.85 79.4 115.9 79.5 116.05 79.7 116.25 79.9 116.35 80 116.45 80.1 116.55 80.2 116.7 80.3 116.75 80.4 116.8 80.5 116.85 80.6 116.9 80.7 116.9 80.8 116.95 80.9 117.05 81 117.15 81.1 117.25 81.15 117.35 81.25 117.5 81.35 117.6 81.45 117.65 81.55 117.75 81.65 117.75 81.75 117.8 81.85 117.85 81.95 117.85 82.05 117.9 82.25 117.95 82.45 117.95 82.55 117.95 82.65 117.95 82.75 117.95 82.85 117.95 82.95 118 83 118.05 83.15 118.1 83.25 118.15 83.35 118.2 83.45 118.2 83.55 118.2 83.65 118.2 83.75 118.2 83.85 118.2 84 118.2 84.2 118.2 84.3 118.2 84.4 118.2 84.5 118.2 84.6 118.2 84.9 118.2 85.2 118.2 85.3 118.2 85.4 118.15 85.5 118.1 85.6 118.05 85.7 118 85.8 117.95 85.9 117.95 86 117.95 86.1 117.95 86.2 117.95 86.3 117.95 86.4 117.95 86.5 117.95 86.6 117.9 86.7 117.85 86.75 117.8 86.85 117.75 86.95 117.5 87.25 117.25 87.6 117 88 116.6 88.35 116.2 88.7 115.85 89.05 107.5 91.75 98.75 90.05 94.1 89.1 91.45 85.35 Z" stroke="none" fill="#FDDF5E"></path>

<path d="M 94.5 80.8
Q 93.05 82.05 92.75 83.85 94.6 86.95 98.05 88.45 101.05 89.7 103.25 89.15 104.75 88.75 106.05 89.4 112.05 90.6 115.55 86.5 115.75 86.3 115.9 86.1 115.95 86 115.95 85.9 115.95 85.65 116 85.35 116.05 85 116.2 84.7 116.25 84.65 116.25 84.55 116.25 84.45 116.25 84.35 116.25 84.25 116.2 84.15 116.1 83.95 115.95 83.75 115.95 83.65 115.95 83.55 115.95 83.45 115.95 83.35 115.95 83.15 115.95 83 115.95 82.9 115.95 82.8 115.95 82.7 115.9 82.6 115.85 82.5 115.8 82.4 115.75 82.3 115.7 82.2 115.6 82.1 115.45 82 115.15 81.75 114.95 81.4 114.8 81.2 114.7 81 114.65 80.9 114.5 80.85 114.2 80.6 114 80.25 113.85 80.05 113.75 79.85 113.65 79.75 113.55 79.7 113.35 79.65 113.15 79.55 113.05 79.45 113 79.35 112.9 79.25 112.9 79.15 108.7 76.45 103.65 76.9 98.45 77.35 94.5 80.8
M 172.85 79.35
Q 172.55 79.15 172.45 78.8 172.25 78.7 172.05 78.65 171.85 78.6 171.6 78.5 169.3 76.45 166.15 76 165.51328125 75.908984375 164.85 75.8 164.46328125 75.789453125 164.05 75.75 163.737890625 75.797265625 163.4 75.85 159.488671875 76.570703125 156.15 78.75 154.8 79.6 153.7 80.8 153.55 81.3 153.55 81.8 153.6 82.3 153.6 82.8 153.8 83.05 154 83.35 154.2 83.55 154.35 83.75 154.75 85.05 155.85 86 156.5 86.55 157.25 87.1 157.4 87.15 157.5 87.25 165.2 88.55 172.7 86.2 173.75 85.45 174.5 84.35 174.65 84.1 174.9 83.85 174.9 83.65 175 83.45 175.05 83.25 175.15 83.05 175.1 82.65 175.05 82.25 175 81.9 174.7 81.65 174.7 81.55 174.7 81.45 174.7 81.35 174.65 81.25 174.65 81.15 174.6 81.1 173.9 80.1 172.85 79.35 Z" stroke="none" fill="#EEDC7F"></path>
</g>
</g>
</g>
</g>
</svg>
