
<svg viewBox="0 0 80 70" height="70px" width="80px" y="0px" x="0px" preserveAspectRatio="none" xmlns:xlink="http://www.w3.org/1999/xlink" version="1.1" xmlns="http://www.w3.org/2000/svg">
<defs></defs>

<g id="Layer_2">
<g transform="matrix( 0.2443389892578125, 0, 0, 0.2443389892578125, -5.6,-13.9)" id="Layer_1">
<g>
<g>
<g>
<path d="M 246 319
Q 245.5 319 245.45 319.15 244.15 323.15 243 327 243 329.5 243 332 243 332.5 243 333 244.7 332.2 244.5 329
L 245 329
Q 245 328.5 245 328 245 327 245 326 246.7 324.2 246.05 320 246 319.5 246 319 Z" stroke="none" fill="#324F55"></path>

<path d="M 246.5 319.05
Q 246.5 319 246 319 246 319.5 246.05 320 246.7 324.2 245 326 245 327 245 328 245 328.5 245 329 247.55 328.05 246.5 319.05 Z" stroke="none" fill="#000913"></path>

<path d="M 178.9 301.55
Q 179 301.5 179 301 178.5 301 178 301 170 301 162 301 162 301.5 162 302 162 302.5 162 303 171.5 303.5 178.9 301.55
M 236 295
Q 235.5 295 235 295 223.4 294.4 214 296 214 296.5 214 297 226 297.5 235.9 295.5 236 295.5 236 295 Z" stroke="none" fill="#6E6E5F"></path>

<path d="M 199.9 299.5
Q 200 299.5 200 299 199.5 299 199 299 189.5 299 180 299 180 299.5 180 300 180 300.5 180 301 190.7 301.2 199.9 299.5 Z" stroke="none" fill="#6E6E60"></path>

<path d="M 211.8 297.6
Q 212 297.5 212 297 211.5 297 211 296.95 204.5 296.5 200 298 200 298.5 200 299 207.25 299.75 211.8 297.6
M 126 303
Q 126 302.5 125.8 302.35 121.7 299.8 116 299 118.9 302.6 125 302.95 125.5 303 126 303 Z" stroke="none" fill="#6E6F62"></path>

<path d="M 208 288
Q 208 288.5 208 289 213.7 289.2 217.85 287.55 218 287.5 218 287 217.5 287 217 286.95 211.4 286.4 208 288
M 180 291
Q 179.5 291 179.05 291.1 175.55 291.9 173 291 173.5 291.5 173.8 292.1 174 292.5 174 293 178.2 293.7 179.75 291.8 180 291.5 180 291
M 156 294
Q 156 294.5 156 295 159.35 295.35 160.75 293.8 160.895703125 293.6251953125 160.95 293.35 161 293.20859375 161 293 160.5 293 160 293 158.9041015625 293 157.8 293 156.9041015625 293 156 293 156 293.5 156 294 Z" stroke="none" fill="#9D621C"></path>

<path d="M 302 267
Q 301.5 267 301 267 300.5 267 300 267 300 268.5 300 270 300 270.5 300 271 302.95 271.45 302.1 267.95 302 267.5 302 267
M 306.1 261.95
Q 306 261.5 306 261 305.5 261 305 261 304.5 261 304 261 304 262.5 304 264 304 264.5 304 265 306.95 265.45 306.1 261.95
M 273 289
Q 271.5 289 270 289 270 289.5 270 290 270 290.5 270 291 272 291 273.9 290.55 274 290.5 274 290 274 289.5 274 289 273.5 289 273 289
M 92 279
Q 92 278.5 92.1 278.05 92.9 274.6 90 275 89.3 278.2 91.05 278.85 91.5 279 92 279 Z" stroke="none" fill="#6F6E5F"></path>

<path d="M 300 271
Q 299.5 271 299.3 271.25 298.25 272.75 296 273 296 273.5 296 274 296 274.5 296 275 300.7 276.2 300.05 272 300 271.5 300 271 Z" stroke="none" fill="#6A6E60"></path>

<path d="M 308 251
Q 307.5 251 307 251 306.5 251 306 251 306 252.5 306 254 306 254.5 306 255 306.5 255 307 255 307.5 255 308 255 308 254.5 308 254 308 252.5 308 251 Z" stroke="none" fill="#916E5D"></path>

<path d="M 310.1 250
Q 310 249.5 310 249 309.5 249 309 249 308.5 249 308 249 308 249.5 308 250 308 250.5 308 251 308 252.5 308 254 308 254.5 308 255 311.2 254.7 310.1 250 Z" stroke="none" fill="#6C7068"></path>

<path d="M 322 250
Q 321.5 250 321 250 321 254.5 321 259 321 259.5 321 260 321.5 260 322 260 322 259.5 322 259 322 254.5 322 250 Z" stroke="none" fill="#0C2931"></path>

<path d="M 321 250
Q 321 249.5 320.75 249.25 320.5 249 320 249 320 254.5 320.5 259.95 320.5 260 321 260 321 259.5 321 259 321 254.5 321 250 Z" stroke="none" fill="#445D64"></path>

<path d="M 319.85 248.05
Q 320 248.5 320 249 320.5 249 320.75 249.25 321 249.5 321 250 321.5 250 322 250 322.5 250 322.6 249.8 324.25 246.15 317 243 318.75 245.25 319.85 248.05 Z" stroke="none" fill="#02151B"></path>

<path d="M 283.05 285.15
Q 278.4 286.4 274 288 274 288.5 274 289 274 289.5 274 290 279.6 288.6 283.75 285.65 284 285.5 284 285 283.5 285 283.05 285.15 Z" stroke="none" fill="#6C6E5F"></path>

<path d="M 267 293
Q 267.5 293 268 293 270.15 293.65 270.05 292 270 291.5 270 291 269.5 291 269 291 267.5 291 266 291 266 291.5 266 292 266 292.5 266 293 266.5 293 267 293 Z" stroke="none" fill="#686D5F"></path>

<path d="M 262 293
Q 262 294.5 262 296 262 296.5 262 297 264.3 294.8 267.85 293.55 268 293.5 268 293 267.5 293 267 293 266.5 293 266 293 265.5 293 265 293 263.5 293 262 293 Z" stroke="none" fill="#5B6E64"></path>

<path d="M 261 293
Q 261 293.5 260.95 294 260 310.5 259 327 258.5 327 258.05 327.2 256.25 327.95 255 331 254.5 331 254.35 331.25 253.15 333.15 250 332 250 331.5 249.9 331 247.9861328125 320.6646484375 247.2 303.3 247.1130859375 307.6609375 246 311 246 314.5 246 318 246 318.5 246 319 246.5 319 246.5 319.05 247.55 328.05 245 329
L 244.5 329
Q 244.7 332.2 243 333 243 333.5 242.8 333.9 242.5 334.5 242 335 266 345.15 262.05 298 262 297.5 262 297 262 296.5 262 296 262 294.5 262 293 261.5 293 261 293 Z" stroke="none" fill="#021623"></path>

<path d="M 250 290
Q 250 290.5 250 291 253.95 290.05 260.85 292.45 261 292.5 261 293 261.5 293 262 293 262 292.5 261.8 292.1 258.1 284.8 250 290 Z" stroke="none" fill="#441D03"></path>

<path d="M 247 294
Q 247 294.5 247 295 247 295.5 247 296 247 296.5 247 297 247 297.2998046875 247 297.6
L 247.05 298
Q 247.3048828125 300.8208984375 247.2 303.3 247.9861328125 320.6646484375 249.9 331 250 331.5 250 332 253.15 333.15 254.35 331.25 254.5 331 255 331 256.25 327.95 258.05 327.2 258.5 327 259 327 260 310.5 260.95 294 261 293.5 261 293 261 292.5 260.85 292.45 253.95 290.05 250 291 249.5 291 249.4 291.2 248.5 293 247 294 Z" stroke="none" fill="#05050D"></path>

<path d="M 247 295
Q 246.5 295 246 295 246 295.5 246 296 246 296.5 246 297 246 303.5 246 310 246 310.5 246 311 247.1130859375 307.6609375 247.2 303.3 247.3048828125 300.8208984375 247.05 298
L 247 297.6
Q 247 297.2998046875 247 297 247 296.5 247 296 247 295.5 247 295 Z" stroke="none" fill="#3C5253"></path>

<path d="M 246 295
Q 245.5 295 245 295 243.5 295 242 295 241.6 297.95 245.05 297.1 245.5 297 246 297 246 296.5 246 296 246 295.5 246 295 Z" stroke="none" fill="#5D7166"></path>

<path d="M 310 241
Q 310 240.5 309.8 240.15 308.55 238.1 307 241 307.3 242.7 309 242.95 309.5 243 310 243 310 242.5 310 242 310 241.5 310 241 Z" stroke="none" fill="#B55933"></path>

<path d="M 313 241
Q 312.5 241 312 241 312 243.5 312 246 312 246.5 312 247 314.2 245.7 314.05 242 314 241.5 314 241 313.5 241 313 241 Z" stroke="none" fill="#5C746C"></path>

<path d="M 312 241
Q 312.5 241 313 241 313.5 241 314 241 314 240.5 314 240 314.5 240 315 240 315 239.5 314.95 239 314.45 235.55 310 236 311 238 311.85 240.05 312 240.5 312 241 Z" stroke="none" fill="#60655A"></path>

<path d="M 312 241
Q 311.5 241 311 241 310.5 241 310 241 310 241.5 310 242 310 242.5 310 243 310 245.5 310 248 310 248.5 310 249 312.15 249.65 312.05 248 312 247.5 312 247 312 246.5 312 246 312 243.5 312 241 Z" stroke="none" fill="#6C6F63"></path>

<path d="M 307 233.9
Q 307.5 234 308 234 308 233.5 307.9 233.05 307.35 231 306 226 306 225.5 306 225 305.5 225 305.4 225.2 304.7 226.7 303 227 302.3 233.2 307 233.9 Z" stroke="none" fill="#411300"></path>

<path d="M 300.5 238.1
Q 300.5 238 300 238 298 258.5 285.1 267.75 268.2021484375 279.846875 243.1 286.5 243.8357421875 286.737890625 244.5 287
L 244 287
Q 246.9 290.2 251.75 285.75 252 285.5 252 285 266.8 283.65 276.05 281.15 276.5 281 277 281 277.95 280.45 279.4 277.2 279.5 277 280 277 290.6 271.1 297.75 261.8 298 261.5 298 261 302.8 250.3 300.5 238.1
M 103 273
Q 102.5 273 102 273 102.25 278.25 104.75 281.2 105 281.5 105 282 107.45 283.75 107.9 286 108 286.5 108 287 112.2 286.25 113.5 288
L 113 288
Q 116.9 292.6 123.05 291.1 123.5 291 124 291 125.35 294.15 128.15 295.8 128.5 296 129 296 140.75 294.3 155 295 155.5 295 156 295 156 294.5 156 294 156 293.5 156 293 156.9041015625 293 157.8 293 126.157421875 288.847265625 103 273 Z" stroke="none" fill="#A2690A"></path>

<path d="M 300 229
Q 300 228.5 300 228 300 225.5 300 223
L 299.5 223
Q 299.7 218.75 298 217 297.95 223.55 299.45 228.85 299.5 229 300 229 Z" stroke="none" fill="#D8A34C"></path>

<path d="M 310 220
Q 309.5 220 309.45 220.15 308.7 222.7 306 223 306 223.5 306 224 306 224.5 306 225 306 225.5 306 226 310.25 226.25 310.05 222 310 221.5 310 221 310 220.5 310 220 Z" stroke="none" fill="#320D00"></path>

<path d="M 311 221
Q 311.5 221 312 221 312 220.5 312 220 314 220.5 316 220.9 316.5 221 317 221 317 220.5 316.75 220.3 314.55 218.45 310 219 310 219.5 310 220 310 220.5 310 221 310.5 221 311 221 Z" stroke="none" fill="#1C3C45"></path>

<path d="M 116 299
Q 116 298.5 115.85 298.05 114.65 294.85 110 295 111.7 297.85 115.05 298.85 115.5 299 116 299 Z" stroke="none" fill="#706D5C"></path>

<path d="M 148 327
Q 147.5 327 147.45 327.15 146.7 329.2 144 329 144 329.5 144 330 144 330.5 144 331 147.2 330.7 147.9 327.95 148 327.5 148 327 Z" stroke="none" fill="#11313A"></path>

<path d="M 140 334
Q 140 334.5 140 335 143.2 334.7 143.9 331.95 144 331.5 144 331 143.5 331 143.25 331.25 141.8 332.8 140 334 Z" stroke="none" fill="#1A353E"></path>

<path d="M 128 329
Q 127.5 329 127.05 329.15 123.2 330.7 121 334 122.3 342.7 134.9 339.55 135 339.5 135 339 134.5 339 134.1 338.8 129.25 336.3 128 330 128.5 330 128.75 329.75 129 329.5 129 329 128.5 329 128 329 Z" stroke="none" fill="#011824"></path>

<path d="M 135 321
Q 134.5 321 134.35 321.2 132.1 325.1 128 327 128 327.5 128 328 128 328.5 128 329 128.5 329 129 329 132.7 326.2 134.8 321.9 135 321.5 135 321 Z" stroke="none" fill="#203941"></path>

<path d="M 136 303
Q 135.5 303 135 303 135.4 310.6 135.95 318 136 318.5 136 319
L 136.5 319
Q 136.7 310.8 136 303 Z" stroke="none" fill="#294045"></path>

<path d="M 151 321
Q 151.5 321 151.5 320.95 152.75 312.75 151 307 151 313.5 151 320 151 320.5 151 321 Z" stroke="none" fill="#16333B"></path>

<path d="M 151 321
Q 150.5 321 150.45 321.1 149.7 324.2 148 326 148 326.5 148 327 151.1 326.1 151 322 151 321.5 151 321 Z" stroke="none" fill="#203B42"></path>

<path d="M 151 305
Q 150.5 305 150 305 149.5 305 149.15 304.75 145.1 301.9 137 303 136.5 303 136 303 136.7 310.8 136.5 319
L 136 319
Q 136 319.5 135.75 319.75 135.5 320 135 320 135 320.5 135 321 135 321.5 134.8 321.9 132.7 326.2 129 329 129 329.5 128.75 329.75 128.5 330 128 330 129.25 336.3 134.1 338.8 134.5 339 135 339 138.8 338.8 139.5 335.1 139.5 335 140 335 140 334.5 140 334 141.8 332.8 143.25 331.25 143.5 331 144 331 144 330.5 144 330 144 329.5 144 329 146.7 329.2 147.45 327.15 147.5 327 148 327 148 326.5 148 326 149.7 324.2 150.45 321.1 150.5 321 151 321 151 320.5 151 320 151 313.5 151 307 151 306.5 151 306 151 305.5 151 305 Z" stroke="none" fill="#030A11"></path>

<path d="M 150 305
Q 150.5 305 151 305 157.75 305.75 161.8 303.6 162 303.5 162 303 161.5 303 161 303 155.5 303 150 303 150 303.5 150 304 150 304.5 150 305 Z" stroke="none" fill="#6F7165"></path>

<path d="M 147 302
Q 147 301.5 146.95 301.5 143 301 139 301 139 301.5 139 302 142.5 302 146 302 146.5 302 147 302 Z" stroke="none" fill="#4E2C02"></path>

<path d="M 149.05 302.85
Q 148 302.5 147 302 146.5 302 146 302 142.5 302 139 302 138.5 302 138 302 137.5 302 137 302 137 302.5 137 303 145.1 301.9 149.15 304.75 149.5 305 150 305 150 304.5 150 304 150 303.5 150 303 149.5 303 149.05 302.85 Z" stroke="none" fill="#341101"></path>

<path d="M 78.9 282.5
Q 79 282.5 79 282 78.5 282 78 281.95 75 281.5 72 281 73.85 283.65 78.9 282.5 Z" stroke="none" fill="#1F404A"></path>

<path d="M 67.5 270.95
Q 67.5 271 68 271 68 270.5 68 270 68 266.5 68 263 67.5 263 67 263 67 267 67.5 270.95 Z" stroke="none" fill="#1E3C47"></path>

<path d="M 80 217
Q 80 216.5 80.1 216 81.35 209.15 78 207 77.6 212.95 79.4 216.8 79.5 217 80 217 Z" stroke="none" fill="#6C6D5D"></path>

<path d="M 78 207
Q 78 206.5 78.05 206 79.45 196.05 76 191 75.4 200.1 77.45 206.85 77.5 207 78 207 Z" stroke="none" fill="#6A7066"></path>

<path d="M 106 293
Q 106 292.5 105.8 292.1 103.75 287.75 98 287 100.6 290.9 105.1 292.8 105.5 293 106 293 Z" stroke="none" fill="#6F6E5E"></path>

<path d="M 98 287
Q 98 286.5 98 286 97.9 281.6 94 281 93.85 285.65 97.05 286.85 97.5 287 98 287
M 88 271
Q 88 270.5 88.1 270.05 88.9 266.6 86 267 85.3 270.2 87.05 270.85 87.5 271 88 271 Z" stroke="none" fill="#6D6E5F"></path>

<path d="M 84 278
Q 84.5 278 84.55 277.85 86.3 272.2 83 271 84.45 273.05 84.05 277 84 277.5 84 278 Z" stroke="none" fill="#23434D"></path>

<path d="M 101 270
Q 101 269.5 100.9 269 100.4 265.6 98 264 98.65 267.35 100.35 269.75 100.5 270 101 270 Z" stroke="none" fill="#D29C34"></path>

<path d="M 84 262
Q 84 261.5 84 261 84 260.5 84 260 83.5 260 83.1 260.2 82.5 260.5 82 261 82 264 82.5 266.9 82.5 267 83 267 83 266.5 83 266 83 264 83 262 83.5 262 84 262 Z" stroke="none" fill="#264852"></path>

<path d="M 86 262
Q 85.5 262 85 262 84.5 262 84 262 83.3 265.7 85.15 266.8 85.5 267 86 267 86 266.5 86 266 86 264 86 262 Z" stroke="none" fill="#667269"></path>

<path d="M 88 259
Q 87.5 259 87 259 85.05 259.05 84 260 84 260.5 84 261 84 261.5 84 262 84.5 262 85 262 85.5 262 86 262 86 261.5 86 261 88.15 261.65 88.05 260 88 259.5 88 259 Z" stroke="none" fill="#5B5F55"></path>

<path d="M 84 258
Q 84 258.5 84 259 84 259.5 84 260 85.05 259.05 87 259 87.5 259 88 259 88 258.5 88 258 89.95 257.95 90.75 256.85 91 256.5 91 256 90.5 256 90 256 88.05 256.05 87 257 87 257.5 86.85 257.55 85.5 258 84 258 Z" stroke="none" fill="#272120"></path>

<path d="M 95 257
Q 95 257.5 95 258 94.9 260.9 93 262 96.95 267.55 101.3 272.75 101.5 273 102 273 102.5 273 103 273 103 272.5 102.8 272.4 101.3 271.7 101 270 100.5 270 100.35 269.75 98.65 267.35 98 264 98 263.5 97.9 263.05 96.95 259.55 95 257 Z" stroke="none" fill="#A96B17"></path>

<path d="M 100 253
Q 99.5 253 99 253.1 97 253.5 95 254 95 254.5 95 255 98.7 255.7 99.8 253.85 100 253.5 100 253 Z" stroke="none" fill="#C2AE8A"></path>

<path d="M 87 246
Q 87 246.5 87 247 87 247.5 87.15 247.55 90.5 248.65 82 256 82.8 257.7 86 257.1 86.5 257 87 257 88.05 256.05 90 256 90.5 256 91 256 93.7 256.2 94.45 254.15 94.5 254 95 254 97 253.5 99 253.1 99.5 253 100 253 100 252.5 100 252 104 252 103.1 247 103 246.5 103 246 102.5 246 102 245.9 95.15 244.45 87 246 Z" stroke="none" fill="#210701"></path>

<path d="M 87 245
Q 87 245.5 87 246 95.15 244.45 102 245.9 102.5 246 103 246 103 245.5 102.75 245.15 101.95 244.05 100 244 99.5 244 99 244 91 243.9 87 245 Z" stroke="none" fill="#543103"></path>

<path d="M 87 247
Q 86.5 247 86 247 84.5 247 83 247 83 247.5 82.8 247.6 72.95 252.45 68 262 68 262.5 68 263 68 266.5 68 270 68 270.5 68 271 68.5 277 71.3 280.75 71.5 281 72 281 75 281.5 78 281.95 78.5 282 79 282 83.65 282.65 83.95 279 84 278.5 84 278 84 277.5 84.05 277 84.45 273.05 83 271 83 270.5 83 270 83 268.5 83 267 82.5 267 82.5 266.9 82 264 82 261 82.5 260.5 83.1 260.2 83.5 260 84 260 84 259.5 84 259 84 258.5 84 258 85.5 258 86.85 257.55 87 257.5 87 257 86.5 257 86 257.1 82.8 257.7 82 256 90.5 248.65 87.15 247.55 87 247.5 87 247 Z" stroke="none" fill="#030C18"></path>

<path d="M 82 237
Q 82 236.5 82.05 236 83.45 227.1 80 223 79.8 230.7 81.45 236.85 81.5 237 82 237 Z" stroke="none" fill="#6A7064"></path>

<path d="M 93 233
Q 93 232.5 93.05 232 93.75 226.75 92 224 92 228.5 92.5 232.95 92.5 233 93 233 Z" stroke="none" fill="#DCA43C"></path>

<path d="M 86 171
Q 86 170.5 86.05 170 86.75 165.25 85 163 85 167 85.5 170.95 85.5 171 86 171 Z" stroke="none" fill="#DBA23E"></path>

<path d="M 82 125
Q 81.5 125 81 125 81 130 81.5 134.95 81.5 135 82 135 82 134.5 82 134 82 129.5 82 125 Z" stroke="none" fill="#B67728"></path>

<path d="M 76 183
Q 76 182.5 76.1 182 77.3 176.2 74 175 75.3 178.2 75.5 183
L 76 183 Z" stroke="none" fill="#686254"></path>

<path d="M 72 119
L 71.5 119
Q 71.65 121.15 70 121 69.3 135.2 71.5 146.9 71.5 147 72 147 72 146.5 72 146 72 132.5 72 119 Z" stroke="none" fill="#72614B"></path>

<path d="M 74 112
Q 73.5 112 73.1 112.2 72.5 112.5 72 113 72 115.5 72 118 72 118.5 72 119 75.25 118.25 74.1 113 74 112.5 74 112 Z" stroke="none" fill="#7A604A"></path>

<path d="M 133 73
Q 132.5 73 132 72.95 129.3 72.8 128 74 128 74.5 128 75 131.35 75.35 132.75 73.8 133 73.5 133 73 Z" stroke="none" fill="#696353"></path>

<path d="M 102 80
Q 102 80.5 102 81 105.2 81.7 105.85 79.95 106 79.5 106 79 105.5 79 105 79 103.5 79 102 79 102 79.5 102 80 Z" stroke="none" fill="#6D6755"></path>

<path d="M 111.8 77.65
Q 112 77.5 112 77 111.5 77 111 77.05 108.2 77.2 106 78 106 78.5 106 79 109.5 79 111.8 77.65 Z" stroke="none" fill="#6A6554"></path>

<path d="M 306 175
Q 306 174.5 306 174 305.85 169.7 304 167 303.75 171.8 305.4 174.8 305.5 175 306 175 Z" stroke="none" fill="#685F50"></path>

<path d="M 295 187
Q 295 186.5 295.05 186 295.75 179.75 294 176 294 181.5 294.5 186.95 294.5 187 295 187 Z" stroke="none" fill="#D39441"></path>

<path d="M 293.05 166
Q 293.75 161.25 292 159 292 163 292.5 166.95 292.5 167 293 167 293 166.5 293.05 166 Z" stroke="none" fill="#C88935"></path>

<path d="M 292 159
Q 292 158.5 292 158 291.9 150.1 290 144 289.75 152.25 291.45 158.9 291.5 159 292 159 Z" stroke="none" fill="#DFA545"></path>

<path d="M 302 139
Q 302 138.5 302.05 138 302.65 132.85 300 131 299.75 135.8 301.4 138.8 301.5 139 302 139 Z" stroke="none" fill="#696051"></path>

<path d="M 288 126
Q 288 125.5 288.05 125 288.75 120.25 287 118 287 122 287.5 125.95 287.5 126 288 126 Z" stroke="none" fill="#E7AA48"></path>

<path d="M 218 65
Q 217.5 65 217 65.05 212.3 65.3 208 66 208 66.5 208 67 214.25 67.75 217.8 65.65 218 65.5 218 65 Z" stroke="none" fill="#696454"></path>

<path d="M 238 74
Q 237.5 74 237 74 233 74 229 74 229 74.5 229 75 233 75 237 75 237.5 75 238 75 238 74.5 238 74 Z" stroke="none" fill="#BB7B2B"></path>

<path d="M 226 64
Q 226 64.5 226 65 233 65.5 237.85 63.55 238 63.5 238 63 237.5 63 237 62.95 230.5 62.55 226 64 Z" stroke="none" fill="#6A6454"></path>

<path d="M 166 80
Q 166 80.5 166 81 169 81 172 81 172.5 81 173 81 178.7 80.2 185 80 185.5 80 186 80 186 79.5 185.95 79.5 176.35 78.5 166 79 166 79.5 166 80 Z" stroke="none" fill="#A5651A"></path>

<path d="M 165 82
Q 165 81.5 165 81 164.5 81 164 81 119.4 79.4 92 95 92 95.5 91.8 95.85 85.75 105.75 80 116 81.35 145.35 81 171 81 171.5 81 172 87.55 205.45 93 239.5
L 93 239
Q 93 238.5 93 238 93 235.5 93 233 92.5 233 92.5 232.95 92 228.5 92 224 92 223.5 91.9 223 87.75 198.25 86 171 85.5 171 85.5 170.95 85 167 85 163 85 162.5 84.9 162 82.75 149.25 82 135 81.5 135 81.5 134.95 81 130 81 125 81.5 125 82 125 82 124.5 82 124 82 123.5 82 123 98.1 77.6 164 81.95 164.5 82 165 82 Z" stroke="none" fill="#A66815"></path>

<path d="M 172.95 81.5
Q 173 81.5 173 81 172.5 81 172 81 169 81 166 81 165.5 81 165 81 165 81.5 165 82 169 82 172.95 81.5 Z" stroke="none" fill="#D2973C"></path>

<path d="M 178 70
Q 177.5 70 177 70 173.5 70 170 70 170 70.5 170 71 174 71 177.95 70.5 178 70.5 178 70 Z" stroke="none" fill="#686456"></path>

<path d="M 202 67
Q 201.5 67 201 67 197.5 67 194 67 194 67.5 194 68 194 68.5 194 69 199.25 69.75 201.75 67.7 202 67.5 202 67 Z" stroke="none" fill="#6D6452"></path>

<path d="M 281 96
Q 281 96.5 281 97 284.6 105.9 286.9 116 287 116.5 287 117
L 287.5 117
Q 286.6 112.95 287 107 286.5 107 286.45 106.85 284.6 100.4 281 96 Z" stroke="none" fill="#D69742"></path>

<path d="M 281 96
Q 281 95.5 280.75 95.15 278.7 92.3 276 90 277.5 94 280.25 96.75 280.5 97 281 97 281 96.5 281 96 Z" stroke="none" fill="#DA9D45"></path>

<path d="M 275.15 89.8
Q 275.5 90 276 90 276 89.5 275.75 89.2 272.15 84.85 267 82 270.25 86.75 275.15 89.8 Z" stroke="none" fill="#DB9F45"></path>

<path d="M 259 78
Q 259 78.5 258.85 78.55 257.5 79 256 79 261 80.5 266.05 81.85 266.5 82 267 82 267 81.5 266.75 81.3 263.65 78.85 259 78 Z" stroke="none" fill="#E0A748"></path>

<path d="M 251 75
Q 250.5 75 250 75 244 75 238 75 237.5 75 237 75 233 75 229 75 228.5 75 228 75.05 210.65 77.65 192 79 192 79.5 191.9 79.5 189 80 186 80 185.5 80 185 80 178.7 80.2 173 81 173 81.5 172.95 81.5 169 82 165 82 164.5 82 164 81.95 98.1 77.6 82 123 82 123.5 82 124 82 124.5 82 125 82 129.5 82 134 82 134.5 82 135 82.75 149.25 84.9 162 85 162.5 85 163 86.75 165.25 86.05 170 86 170.5 86 171 87.75 198.25 91.9 223 92 223.5 92 224 93.75 226.75 93.05 232 93 232.5 93 233 93 235.5 93 238 93 238.5 93 239 93.45 244.05 100 243.5
L 100 244
Q 101.95 244.05 102.75 245.15 103 245.5 103 246 103 246.5 103.1 247 104 252 100 252 100 252.5 100 253 100 253.5 99.8 253.85 98.7 255.7 95 255 95 255.5 95 256 95 256.5 95 257 96.95 259.55 97.9 263.05 98 263.5 98 264 100.4 265.6 100.9 269 101 269.5 101 270 101.3 271.7 102.8 272.4 103 272.5 103 273 126.157421875 288.847265625 157.8 293 158.9041015625 293 160 293 160.5 293 161 293 167 293 173 293 173.5 293 174 293 174 292.5 173.8 292.1 173.5 291.5 173 291 175.55 291.9 179.05 291.1 179.5 291 180 291 193 289.5 207 289 207.5 289 208 289 208 288.5 208 288 211.4 286.4 217 286.95 217.5 287 218 287 234.011328125 283.612109375 243.1 286.5 268.2021484375 279.846875 285.1 267.75 298 258.5 300 238 300 237.5 300 237 300 233 300 229 299.5 229 299.45 228.85 297.95 223.55 298 217 298 216.5 297.95 216 296.9 201.1 295 187 294.5 187 294.5 186.95 294 181.5 294 176 294 175.5 293.8 175.1 292.25 172.25 293 167 292.5 167 292.5 166.95 292 163 292 159 291.5 159 291.45 158.9 289.75 152.25 290 144 290 143.5 290 143 289.65 133.85 288 126 287.5 126 287.5 125.95 287 122 287 118 287 117.5 287 117 287 116.5 286.9 116 284.6 105.9 281 97 280.5 97 280.25 96.75 277.5 94 276 90 275.5 90 275.15 89.8 270.25 86.75 267 82 266.5 82 266.05 81.85 261 80.5 256 79 257.5 79 258.85 78.55 259 78.5 259 78 259 77.5 258.8 77.4 255.3 75.7 251 75
M 256 84
Q 255.5 84 255 84.1 188.1 95.75 122 91 162.2 88.7 199 83.1 199.5 83 200 83 200 82.5 199.8 82.1 199.5 81.5 199 81 213.05 81.3 201.05 82.5 201 82.5 201 83
L 201 83.5
Q 235.8 76.25 256 84
M 268 91
Q 274.3 100.05 268.25 91.8 268 91.5 268 91
M 210.05 80.5
Q 210 80.5 210 80 217.8 79.3 226 79 226.5 79 227 79 219.55 81.05 210.05 80.5
M 207.8 130.35
Q 208 130.5 208 131 232.8 143.2 238.9 174 239 174.5 239 175 240.75 179.25 239.5 185.9 239.5 186 239 186 239 186.5 238.9 187 233.85 213.85 216 228 216 228.5 215.95 229 215.4 232.9 211 233 210.5 233 210 233 210 233.5 210 234 210 234.5 209.8 234.85 203.05 245.85 192 243 191.5 243 191.1 242.8 190.5 242.5 190 242 189.5 242 189.1 242.2 187.5 243 186 244 186 244.5 185.75 244.75 185.5 245 185 245 185 245.5 185 246
L 185.5 246
Q 175.25 250.25 172 242 172 241.5 171.9 241.05 159 190 146 139 145.5 139 145.5 138.95 145 134 145 129 145.5 129 146 129 148.85 123.35 156 122.1 156.5 122 157 122 157 121.5 157 121 157.5 121 158 121 158.5 121 159 121 159 120.5 159 120 166.5 120 173.95 120.5 174 120.5 174 121 176 121 178 121 178.5 121 179 121 182.25 121.75 185.9 122.5 186 122.5 186 123 187.5 123 188.85 123.45 189 123.5 189 124 192.75 124.25 195.85 125.45 196 125.5 196 126 198.8 126.2 200.8 127.35 201 127.5 201 128 204.9 128.65 207.8 130.35
M 218.25 127.85
Q 218 127.5 218 127 221.85 133.25 218.25 127.85
M 188 117
Q 205.9 126.7 188.2 117.6 188 117.5 188 117
M 246.2 146.55
Q 246 146.5 246 146 252.55 149.2 246.2 146.55
M 272 144.5
L 272 144
Q 285.45 142.85 272 144.5
M 93 110
Q 102.85 106.5 93 110.5
L 93 110
M 88 144.5
L 88 144
Q 99.9 135.3 88 144.5
M 89.5 140.9
Q 89.5 141 89 141 87.4 142.1 86.15 137.95 86 137.5 86 137 86.45 132.4 86.05 124 86 123.5 86 123 93.95 115.1 89.5 140.9 Z" stroke="none" fill="#F8C942"></path>

<path d="M 89 141
Q 89.5 141 89.5 140.9 93.95 115.1 86 123 86 123.5 86.05 124 86.45 132.4 86 137 86 137.5 86.15 137.95 87.4 142.1 89 141
M 88 144
L 88 144.5
Q 99.9 135.3 88 144
M 93 110.5
Q 102.85 106.5 93 110
L 93 110.5
M 272 144
L 272 144.5
Q 285.45 142.85 272 144
M 246 146
Q 246 146.5 246.2 146.55 252.55 149.2 246 146
M 218 127
Q 218 127.5 218.25 127.85 221.85 133.25 218 127
M 146 129
Q 145.5 129 145 129 145 134 145.5 138.95 145.5 139 146 139 146 138.5 146 138 146 133.5 146 129
M 268.25 91.8
Q 274.3 100.05 268 91 268 91.5 268.25 91.8 Z" stroke="none" fill="#F7B939"></path>

<path d="M 188.2 117.6
Q 205.9 126.7 188 117 188 117.5 188.2 117.6 Z" stroke="none" fill="#F6B939"></path>

<path d="M 190 242
Q 190.5 242.5 191.1 242.8 191.5 243 192 243 196.4 242.9 199.85 241.55 200 241.5 200 241 199.5 241 199.05 241.1 195.05 242.05 190 242 Z" stroke="none" fill="#534010"></path>

<path d="M 185 246
Q 185 245.5 185 245 185.5 245 185.75 244.75 186 244.5 186 244 185.5 244 185.05 244.2 181.6 245.6 176 245 178.75 246.75 184 246.05 184.5 246 185 246 Z" stroke="none" fill="#5D4405"></path>

<path d="M 176 245
Q 175.5 245 175.2 244.75 173.55 243.45 172 242 175.25 250.25 185.5 246
L 185 246
Q 184.5 246 184 246.05 178.75 246.75 176 245 Z" stroke="none" fill="#DBC06E"></path>

<path d="M 209.8 234.85
Q 210 234.5 210 234 209.5 234 209.25 234.25 205.25 238.25 200 241 200 241.5 199.85 241.55 196.4 242.9 192 243 203.05 245.85 209.8 234.85 Z" stroke="none" fill="#D6BD69"></path>

<path d="M 215.95 229
Q 216 228.5 216 228 215.5 228 215.35 228.25 213.65 230.65 211 232 211 232.5 211 233 215.4 232.9 215.95 229 Z" stroke="none" fill="#C4AD5C"></path>

<path d="M 239 175
Q 239 180 239 185 239 185.5 239 186 239.5 186 239.5 185.9 240.75 179.25 239 175 Z" stroke="none" fill="#775A2F"></path>

<path d="M 196 126
Q 196 125.5 195.85 125.45 192.75 124.25 189 124 191 126 195 126 195.5 126 196 126 Z" stroke="none" fill="#6B4B08"></path>

<path d="M 166 121
Q 166 121.5 166 122 172 122 178 122 178.5 122 179 122 179 121.5 179 121 178.5 121 178 121 176 121 174 121 173.5 121 173 121 169.5 121 166 121 Z" stroke="none" fill="#543500"></path>

<path d="M 166 121
Q 165.5 121 165 121 162 121 159 121 158.5 121 158 121 157.5 121 157 121 157 121.5 157 122 161 122 165 122 165.5 122 166 122 166 121.5 166 121 Z" stroke="none" fill="#614301"></path>

<path d="M 165 121
Q 165.5 121 166 121 169.5 121 173 121 173.5 121 174 121 174 120.5 173.95 120.5 166.5 120 159 120 159 120.5 159 121 162 121 165 121 Z" stroke="none" fill="#D49D38"></path>

<path d="M 185 123.05
Q 185.5 123 186 123 186 122.5 185.9 122.5 182.25 121.75 179 121 179 121.5 179 122 181.05 123.45 185 123.05 Z" stroke="none" fill="#805B16"></path>

<path d="M 208 131
Q 207.5 131 207 130.95 203.15 130.35 201 128 201 127.5 200.8 127.35 198.8 126.2 196 126 195.5 126 195 126 191 126 189 124 189 123.5 188.85 123.45 187.5 123 186 123 185.5 123 185 123.05 181.05 123.45 179 122 178.5 122 178 122 172 122 166 122 165.5 122 165 122 161 122 157 122 156.5 122 156 122.1 148.85 123.35 146 129 146 133.5 146 138 146 138.5 146 139 159 190 171.9 241.05 172 241.5 172 242 173.55 243.45 175.2 244.75 175.5 245 176 245 181.6 245.6 185.05 244.2 185.5 244 186 244 187.5 243 189.1 242.2 189.5 242 190 242 195.05 242.05 199.05 241.1 199.5 241 200 241 205.25 238.25 209.25 234.25 209.5 234 210 234 210 233.5 210 233 210.5 233 211 233 211 232.5 211 232 213.65 230.65 215.35 228.25 215.5 228 216 228 233.85 213.85 238.9 187 239 186.5 239 186 239 185.5 239 185 239 180 239 175 239 174.5 238.9 174 232.8 143.2 208 131
M 206.2 141.6
Q 206 141.5 206 141 213 135.2 217.85 149.05 218 149.5 218 150 214.7 145.8 206.2 141.6
M 175.95 134.5
Q 176 134.5 176 135 179.5 135 183 135 183.5 135 184 135 191.25 138.25 198.8 141.4 199 141.5 199 142 204.05 144.45 207.75 148.25 208 148.5 208 149 210.7 151.3 212.75 154.15 213 154.5 213 155 215.55 156.95 216.8 160.05 217 160.5 217 161 217.5 161.5 217.8 162.1 218 162.5 218 163 220.45 168.05 221.9 174.05 222 174.5 222 175 223.75 177.75 222.55 182.9 222.5 183 222 183 222 183.5 222.05 184 222.6 190.1 220 193 220 193.5 220 194 219.9 196.9 218 198 218 198.5 217.9 199 217.5 201 216 202 216 202.5 215.8 202.9 213.55 207.05 210 210 210 210.5 209.75 210.85 205.6 217.1 200 222 200 222.5 199.75 222.75 199 223.5 198 224 198 224.5 197.85 224.55 195.45 225.45 194 227 194 227.5 193.85 227.55 190.75 228.75 187 229 186.5 229 186.05 228.85 184.3 228.2 185 225 184.5 225 184.45 224.9 182.1 215.9 180 207 179.5 207 179.45 206.85 178.25 203.75 178 200 178 199.5 177.8 199.1 176.55 196.95 177 193 176.5 193 176.35 192.8 174.2 189.3 174 184 174 183.5 173.85 183.05 169.1 165.4 166 146 165.5 146 165.45 145.85 163.5 141 163 135 163 134.5 163 134 169.5 134 175.95 134.5
M 181.9 128.5
Q 182 128.5 182 129 176.4 133.05 164.15 129.55 164 129.5 164 129 175.25 127.3 181.9 128.5
M 198.25 132.7
Q 198 132.5 198 132 211 143 198.25 132.7
M 163.25 186.8
Q 163 186.5 163 186 168.4 192.75 163.25 186.8
M 226 173
Q 226 169 226 165 226 164.5 226 164 223.1 160.9 222.1 156 222 155.5 222 155 232.2 160.8 233.95 175 234 175.5 234 176 231.4 181.55 230 183.5
L 230 183
Q 228.75 178.25 226.2 173.9 226 173.5 226 173
M 219 151
Q 224.7 155.15 219.25 151.65 219 151.5 219 151
M 229.05 185.15
Q 229.5 185 230 185 231.45 188.05 233.75 190.25 234 190.5 234 191 230.4 207.1 225.25 202.7 225 202.5 225 202 225.85 186.25 229.05 185.15
M 158 130.5
L 158 130
Q 164.8 130.2 158 130.5
M 150.55 145.15
Q 150.5 145 150 145 150 141 150 137 150 136.5 150 136 155.75 145.55 158.5 155
L 158 155
Q 152.85 152.05 150.55 145.15
M 154 139.5
L 154 139
Q 165.35 134.9 154 139.5
M 159 167.5
L 159 167
Q 168.8 162.95 159 167.5
M 207.8 227.1
Q 208 227.5 208 228 204.65 233.95 196.05 233.5 196 233.5 196 233 205.75 222.25 207.8 227.1
M 168.2 217.9
Q 168 217.5 168 217 172.1 225.75 168.2 217.9
M 170.2 229.6
Q 170 229.5 170 229 177.7 232.9 170.2 229.6
M 178.25 237.7
Q 178 237.5 178 237 188.55 245.35 178.25 237.7 Z" stroke="none" fill="#190A02"></path>

<path d="M 178 237
Q 178 237.5 178.25 237.7 188.55 245.35 178 237 Z" stroke="none" fill="#130917"></path>

<path d="M 170 229
Q 170 229.5 170.2 229.6 177.7 232.9 170 229 Z" stroke="none" fill="#090310"></path>

<path d="M 168 217
Q 168 217.5 168.2 217.9 172.1 225.75 168 217 Z" stroke="none" fill="#0A0411"></path>

<path d="M 208 228
Q 208 227.5 207.8 227.1 205.75 222.25 196 233 196 233.5 196.05 233.5 204.65 233.95 208 228 Z" stroke="none" fill="#080510"></path>

<path d="M 159 167
L 159 167.5
Q 168.8 162.95 159 167 Z" stroke="none" fill="#0A090A"></path>

<path d="M 154 139
L 154 139.5
Q 165.35 134.9 154 139 Z" stroke="none" fill="#020608"></path>

<path d="M 150 145
Q 150.5 145 150.55 145.15 152.85 152.05 158 155
L 158.5 155
Q 155.75 145.55 150 136 150 136.5 150 137 150 141 150 145 Z" stroke="none" fill="#030609"></path>

<path d="M 158 130
L 158 130.5
Q 164.8 130.2 158 130 Z" stroke="none" fill="#050907"></path>

<path d="M 230 185
Q 229.5 185 229.05 185.15 225.85 186.25 225 202 225 202.5 225.25 202.7 230.4 207.1 234 191 234 190.5 233.75 190.25 231.45 188.05 230 185 Z" stroke="none" fill="#0B0A10"></path>

<path d="M 219.25 151.65
Q 224.7 155.15 219 151 219 151.5 219.25 151.65 Z" stroke="none" fill="#020A04"></path>

<path d="M 226 165
Q 226 169 226 173 226 173.5 226.2 173.9 228.75 178.25 230 183
L 230 183.5
Q 231.4 181.55 234 176 234 175.5 233.95 175 232.2 160.8 222 155 222 155.5 222.1 156 223.1 160.9 226 164 226 164.5 226 165 Z" stroke="none" fill="#07080D"></path>

<path d="M 163 186
Q 163 186.5 163.25 186.8 168.4 192.75 163 186 Z" stroke="none" fill="#02030C"></path>

<path d="M 198 132
Q 198 132.5 198.25 132.7 211 143 198 132 Z" stroke="none" fill="#04050E"></path>

<path d="M 182 129
Q 182 128.5 181.9 128.5 175.25 127.3 164 129 164 129.5 164.15 129.55 176.4 133.05 182 129 Z" stroke="none" fill="#05070E"></path>

<path d="M 190 227
Q 189.5 227 189.05 226.9 185.1263671875 225.9681640625 185 221.2 185 222.59375 185 224 185 224.5 185 225 184.3 228.2 186.05 228.85 186.5 229 187 229 187 228.5 187 228 188.5 228 189.85 227.55 190 227.5 190 227 Z" stroke="none" fill="#DDC060"></path>

<path d="M 194 227
Q 195.45 225.45 197.85 224.55 198 224.5 198 224
L 198 223.5
Q 194.7 224.2 192 226 192 226.5 192 227 192.5 227 193 227 193.5 227 194 227 Z" stroke="none" fill="#D9B755"></path>

<path d="M 193.85 227.55
Q 194 227.5 194 227 193.5 227 193 227 192.5 227 192 227 191.5 227 191 227 190.5 227 190 227 190 227.5 189.85 227.55 188.5 228 187 228 187 228.5 187 229 190.75 228.75 193.85 227.55 Z" stroke="none" fill="#77580D"></path>

<path d="M 178 200
Q 178.25 203.75 179.45 206.85 179.5 207 180 207 180 206.5 180 206 180 202 178 200 Z" stroke="none" fill="#6D561F"></path>

<path d="M 210 210
Q 209.5 210 209.25 210.25 205.05 214.55 198 221 198.5 221.5 199.1 221.8 199.5 222 200 222 205.6 217.1 209.75 210.85 210 210.5 210 210 Z" stroke="none" fill="#DDBF5B"></path>

<path d="M 218 197
Q 217.5 197 217 197 216.5 197 216 197 216 199 216 201 216 201.5 216 202 217.5 201 217.9 199 218 198.5 218 198 218 197.5 218 197 Z" stroke="none" fill="#CDAE59"></path>

<path d="M 220 194
Q 220 193.5 220 193 220 192.5 220.05 192 220.15 190.4 218 191 218 193.5 218 196 218 196.5 218 197 218 197.5 218 198 219.9 196.9 220 194 Z" stroke="none" fill="#D0AF59"></path>

<path d="M 222 175
Q 222 174.5 221.9 174.05 220.45 168.05 218 163 218 170.5 221.3 174.75 221.5 175 222 175 Z" stroke="none" fill="#D9B965"></path>

<path d="M 222 175
Q 222 178.5 222 182 222 182.5 222 183 222.5 183 222.55 182.9 223.75 177.75 222 175 Z" stroke="none" fill="#5F4922"></path>

<path d="M 216.8 160.05
Q 215.55 156.95 213 155 213 155.5 212.75 155.75 212.5 156 212 156 213.55 158.8 217 161.5
L 217 161
Q 217 160.5 216.8 160.05 Z" stroke="none" fill="#D7B467"></path>

<path d="M 213 155
Q 213 154.5 212.75 154.15 210.7 151.3 208 149 208.25 153.75 211.8 155.4 212 155.5 212 156 212.5 156 212.75 155.75 213 155.5 213 155 Z" stroke="none" fill="#D5B668"></path>

<path d="M 177 193
Q 177 192.5 176.9 192 175.95 187.55 174 184 174.2 189.3 176.35 192.8 176.5 193 177 193 Z" stroke="none" fill="#695013"></path>

<path d="M 166 137
Q 166 141 166 145 166 145.5 166 146 169.1 165.4 173.85 183.05 174 183.5 174 184 175.95 187.55 176.9 192 177 192.5 177 193 176.55 196.95 177.8 199.1 178 199.5 178 200 180 202 180 206 180 206.5 180 207 182.1 215.9 184.45 224.9 184.5 225 185 225 185 224.5 185 224 185 222.59375 185 221.2 185.1263671875 225.9681640625 189.05 226.9 189.5 227 190 227 190.5 227 191 227 191.5 227 192 227 192 226.5 192 226 194.7 224.2 198 223.5
L 198 224
Q 199 223.5 199.75 222.75 200 222.5 200 222 199.5 222 199.1 221.8 198.5 221.5 198 221 205.05 214.55 209.25 210.25 209.5 210 210 210 213.55 207.05 215.8 202.9 216 202.5 216 202 216 201.5 216 201 216 199 216 197 216.5 197 217 197 217.5 197 218 197 218 196.5 218 196 218 193.5 218 191 220.15 190.4 220.05 192 220 192.5 220 193 222.6 190.1 222.05 184 222 183.5 222 183 222 182.5 222 182 222 178.5 222 175 221.5 175 221.3 174.75 218 170.5 218 163 218 162.5 217.8 162.1 217.5 161.5 217 161
L 217 161.5
Q 213.55 158.8 212 156 212 155.5 211.8 155.4 208.25 153.75 208 149 208 148.5 207.75 148.25 204.05 144.45 199 142
L 199 142.5
Q 186.75 137.8 166 137 Z" stroke="none" fill="#F5C33F"></path>

<path d="M 176 135
Q 175.5 135 175 135 169 135 163 135 163.5 141 165.45 145.85 165.5 146 166 146 166 145.5 166 145 166 141 166 137 186.75 137.8 199 142.5
L 199 142
Q 199 141.5 198.8 141.4 191.25 138.25 184 135 183.5 135 183 135 179.5 135 176 135 Z" stroke="none" fill="#DAB15A"></path>

<path d="M 175 135
Q 175.5 135 176 135 176 134.5 175.95 134.5 169.5 134 163 134 163 134.5 163 135 169 135 175 135 Z" stroke="none" fill="#BCA97D"></path>

<path d="M 206 141
Q 206 141.5 206.2 141.6 214.7 145.8 218 150 218 149.5 217.85 149.05 213 135.2 206 141 Z" stroke="none" fill="#08090D"></path>

<path d="M 208 131
Q 208 130.5 207.8 130.35 204.9 128.65 201 128 203.15 130.35 207 130.95 207.5 131 208 131 Z" stroke="none" fill="#7A5912"></path>

<path d="M 210 80
Q 210 80.5 210.05 80.5 219.55 81.05 227 79 226.5 79 226 79 217.8 79.3 210 80
M 201 83
Q 201 82.5 201.05 82.5 213.05 81.3 199 81 199.5 81.5 199.8 82.1 200 82.5 200 83 200.5 83 201 83 Z" stroke="none" fill="#EAB93C"></path>

<path d="M 255 84.1
Q 255.5 84 256 84 235.8 76.25 201 83.5
L 201 83
Q 200.5 83 200 83 199.5 83 199 83.1 162.2 88.7 122 91 188.1 95.75 255 84.1 Z" stroke="none" fill="#FFE275"></path>

<path d="M 251 75
Q 251 74.5 250.95 74.5 244.5 74 238 74 238 74.5 238 75 244 75 250 75 250.5 75 251 75 Z" stroke="none" fill="#D49743"></path>

<path d="M 255 71
Q 254.5 71 254 71.1 248.1 72.2 241 73 240.5 73 240.3 72.75 238.35 70.15 235 69 234.5 69 234.1 69.2 221.7 75.05 207 74
L 207 74.5
Q 202.3 73.8 202 77 201.5 77 201 77 196.5 77 192 77 192 77.5 192 78 192 78.5 192 79 210.65 77.65 228 75.05 228.5 75 229 75 229 74.5 229 74 233 74 237 74 237.5 74 238 74 244.5 74 250.95 74.5 251 74.5 251 75 255.3 75.7 258.8 77.4 259 77.5 259 78 263.65 78.85 266.75 81.3 267 81.5 267 82 272.15 84.85 275.75 89.2 276 89.5 276 90 278.7 92.3 280.75 95.15 281 95.5 281 96 284.6 100.4 286.45 106.85 286.5 107 287 107 286.6 112.95 287.5 117
L 287 117
Q 287 117.5 287 118 288.75 120.25 288.05 125 288 125.5 288 126 289.65 133.85 290 143 290 143.5 290 144 291.9 150.1 292 158 292 158.5 292 159 293.75 161.25 293.05 166 293 166.5 293 167 292.25 172.25 293.8 175.1 294 175.5 294 176 295.75 179.75 295.05 186 295 186.5 295 187 296.9 201.1 297.95 216 298 216.5 298 217 299.7 218.75 299.5 223
L 300 223
Q 300 222.5 299.95 222 297.15 189.2 298 170 297.5 170 297.5 169.9 293.3 148.75 290 126 290 125.5 290.05 125 290.65 117.4 294 121 294 120.5 293.9 120.05 288.65 99.85 278 85 277.5 85 277.05 84.85 271.55 82.95 269 78 268.5 78 268.2 77.75 266.2 76.25 262 77 262 76.5 261.85 76.05 260.8 72.9 255 71 Z" stroke="none" fill="#A56516"></path>

<path d="M 246 63
Q 248.15 66.35 255 65.1 255.5 65 256 65 256 64.5 255.8 64.4 251.95 62.6 246 63 Z" stroke="none" fill="#696555"></path>

<path d="M 246 63
Q 245.5 63 245 63 241.5 63 238 63 238 63.5 237.85 63.55 233 65.5 226 65 225.5 65 225 65 221.5 65 218 65 218 65.5 217.8 65.65 214.25 67.75 208 67 207.5 67 207 67 204.5 67 202 67 202 67.5 201.75 67.7 199.25 69.75 194 69 193.5 69 193 69 185.5 69 178 69 178 69.5 178 70 178 70.5 177.95 70.5 174 71 170 71 169.5 71 169 71 148.35 71.8 133 73 133 73.5 132.75 73.8 131.35 75.35 128 75 127.5 75 127 74.95 117.4 73.9 112 77 112 77.5 111.8 77.65 109.5 79 106 79 106 79.5 105.85 79.95 105.2 81.7 102 81 101.5 81 101.2 81.25 94.6 87.1 86 91 86 91.5 85.75 91.85 79.75 101.25 74 111 74 111.5 74 112 74 112.5 74.1 113 75.25 118.25 72 119 72 132.5 72 146 72 146.5 72 147 73.4 160.1 74 174 74 174.5 74 175 77.3 176.2 76.1 182 76 182.5 76 183 76 186.5 76 190 76 190.5 76 191 79.45 196.05 78.05 206 78 206.5 78 207 81.35 209.15 80.1 216 80 216.5 80 217 80 219.5 80 222 80 222.5 80 223 83.45 227.1 82.05 236 82 236.5 82 237 82 242 82.5 246.95 82.5 247 83 247 84.5 247 86 247 86.5 247 87 247 87 246.5 87 246 87 245.5 87 245 91 243.9 99 244 99.5 244 100 244
L 100 243.5
Q 93.45 244.05 93 239
L 93 239.5
Q 87.55 205.45 81 172 81 171.5 81 171 81.35 145.35 80 116 85.75 105.75 91.8 95.85 92 95.5 92 95 119.4 79.4 164 81 164.5 81 165 81 165.5 81 166 81 166 80.5 166 80 166 79.5 166 79 176.35 78.5 185.95 79.5 186 79.5 186 80 189 80 191.9 79.5 192 79.5 192 79 192 78.5 192 78 192 77.5 192 77 196.5 77 201 77 201.5 77 202 77 202.3 73.8 207 74.5
L 207 74
Q 221.7 75.05 234.1 69.2 234.5 69 235 69 238.35 70.15 240.3 72.75 240.5 73 241 73 248.1 72.2 254 71.1 254.5 71 255 71 260.8 72.9 261.85 76.05 262 76.5 262 77 266.2 76.25 268.2 77.75 268.5 78 269 78 271.55 82.95 277.05 84.85 277.5 85 278 85 288.65 99.85 293.9 120.05 294 120.5 294 121 290.65 117.4 290.05 125 290 125.5 290 126 293.3 148.75 297.5 169.9 297.5 170 298 170 297.15 189.2 299.95 222 300 222.5 300 223 300 225.5 300 228 300 228.5 300 229 300 233 300 237 300 237.5 300 238 300.5 238 300.5 238.1 302.8 250.3 298 261 298 261.5 297.75 261.8 290.6 271.1 280 277 279.5 277 279.4 277.2 277.95 280.45 277 281 276.5 281 276.05 281.15 266.8 283.65 252 285 252 285.5 251.75 285.75 246.9 290.2 244 287
L 244.5 287
Q 243.8357421875 286.737890625 243.1 286.5 234.011328125 283.612109375 218 287 218 287.5 217.85 287.55 213.7 289.2 208 289 207.5 289 207 289 193 289.5 180 291 180 291.5 179.75 291.8 178.2 293.7 174 293 173.5 293 173 293 167 293 161 293 161 293.20859375 160.95 293.35 160.895703125 293.6251953125 160.75 293.8 159.35 295.35 156 295 155.5 295 155 295 140.75 294.3 129 296 128.5 296 128.15 295.8 125.35 294.15 124 291 123.5 291 123.05 291.1 116.9 292.6 113 288
L 113.5 288
Q 112.2 286.25 108 287 108 286.5 107.9 286 107.45 283.75 105 282 105 281.5 104.75 281.2 102.25 278.25 102 273 101.5 273 101.3 272.75 96.95 267.55 93 262 94.9 260.9 95 258 95 257.5 95 257 95 256.5 95 256 95 255.5 95 255 95 254.5 95 254 94.5 254 94.45 254.15 93.7 256.2 91 256 91 256.5 90.75 256.85 89.95 257.95 88 258 88 258.5 88 259 88 259.5 88.05 260 88.15 261.65 86 261 86 261.5 86 262 86 264 86 266 86 266.5 86 267 88.9 266.6 88.1 270.05 88 270.5 88 271 90.9 270.6 90.1 274.05 90 274.5 90 275 92.9 274.6 92.1 278.05 92 278.5 92 279 94.15 278.4 94.05 280 94 280.5 94 281 97.9 281.6 98 286 98 286.5 98 287 103.75 287.75 105.8 292.1 106 292.5 106 293 108.7 292.8 109.75 294.2 110 294.5 110 295 114.65 294.85 115.85 298.05 116 298.5 116 299 121.7 299.8 125.8 302.35 126 302.5 126 303 130 303 134 303 134.5 303 135 303 135.5 303 136 303 136.5 303 137 303 137 302.5 137 302 137.5 302 138 302 138.5 302 139 302 139 301.5 139 301 143 301 146.95 301.5 147 301.5 147 302 148 302.5 149.05 302.85 149.5 303 150 303 155.5 303 161 303 161.5 303 162 303 162 302.5 162 302 162 301.5 162 301 170 301 178 301 178.5 301 179 301 179.5 301 180 301 180 300.5 180 300 180 299.5 180 299 189.5 299 199 299 199.5 299 200 299 200 298.5 200 298 204.5 296.5 211 296.95 211.5 297 212 297 212.5 297 213 297 213.5 297 214 297 214 296.5 214 296 223.4 294.4 235 295 235.5 295 236 295 238.5 295 241 295 241.5 295 242 295 243.5 295 245 295 245.5 295 246 295 246.5 295 247 295 247 294.5 247 294 248.5 293 249.4 291.2 249.5 291 250 291 250 290.5 250 290 258.1 284.8 261.8 292.1 262 292.5 262 293 263.5 293 265 293 265.5 293 266 293 266 292.5 266 292 266 291.5 266 291 267.5 291 269 291 269.5 291 270 291 270 290.5 270 290 270 289.5 270 289 271.5 289 273 289 273.5 289 274 289 274 288.5 274 288 278.4 286.4 283.05 285.15 283.5 285 284 285 284 284.5 284 284 284 283.5 284 283 291.55 281.05 295.35 275.25 295.5 275 296 275 296 274.5 296 274 296 273.5 296 273 298.25 272.75 299.3 271.25 299.5 271 300 271 300 270.5 300 270 300 268.5 300 267 300.5 267 301 267 301.5 267 302 267 302 266.5 302 266 302 265.5 302 265 302.5 265 303 265 303.5 265 304 265 304 264.5 304 264 304 262.5 304 261 304.5 261 305 261 305.5 261 306 261 306 260.5 306 260 306 257.5 306 255 306 254.5 306 254 306 252.5 306 251 306.5 251 307 251 307.5 251 308 251 308 250.5 308 250 308 249.5 308 249 308.5 249 309 249 309.5 249 310 249 310 248.5 310 248 310 245.5 310 243 309.5 243 309 242.95 307.3 242.7 307 241 308.55 238.1 309.8 240.15 310 240.5 310 241 310.5 241 311 241 311.5 241 312 241 312 240.5 311.85 240.05 311 238 310 236
L 310 235.5
Q 307.9 235.65 308 234 307.5 234 307 233.9 302.3 233.2 303 227 304.7 226.7 305.4 225.2 305.5 225 306 225 306 224.5 306 224 306 223.5 306 223 308.7 222.7 309.45 220.15 309.5 220 310 220 310 219.5 310 219 310 218.5 309.95 218 307.3 197.2 306 175 305.5 175 305.4 174.8 303.75 171.8 304 167 304 166.5 303.95 166 302.85 152.65 302 139 301.5 139 301.4 138.8 299.75 135.8 300 131 300 130.5 300 130 300.15 96.95 282 79 281.5 79 281.2 78.75 270.65 69.85 256 65 255.5 65 255 65.1 248.15 66.35 246 63 Z" stroke="none" fill="#9A612D"></path>

<path d="M 326.85 260.55
Q 327 260.5 327 260 326.5 260 326.45 259.85 324.9 255.9 322 260 323.3 261.7 326.85 260.55 Z" stroke="none" fill="#011925"></path>

<path d="M 335 253
Q 335.5 253 335.5 252.9 336.75 246.25 335 242 335 246.5 335 251 335 251.5 335 252 335 252.5 335 253 Z" stroke="none" fill="#27404A"></path>

<path d="M 335 252
Q 334.5 252 334.5 251.9 333.1 243.55 330 254 330.05 255.95 330.75 257.15 331 257.5 331 258 332.55 255.55 334.75 253.7 335 253.5 335 253 335 252.5 335 252 Z" stroke="none" fill="#031522"></path>

<path d="M 329 234
Q 329 234.5 328.8 234.9 328.5 235.5 328 236 329.25 239.75 333.05 240.85 333.5 241 334 241 334 240.5 333.8 240.15 331.75 236.75 329 234 Z" stroke="none" fill="#041B28"></path>

<path d="M 329 234
Q 328.5 234 328.1 233.8 319.65 229.6 312 221 311.5 221 311 221 310.5 221 310 221 310 221.5 310.05 222 310.25 226.25 306 226 307.35 231 307.9 233.05 308 233.5 308 234 307.9 235.65 310 235.5
L 310 236
Q 314.45 235.55 314.95 239 315 239.5 315 240 315.3 241.7 316.8 242.4 317 242.5 317 243 324.25 246.15 322.6 249.8 322.5 250 322 250 322 254.5 322 259 322 259.5 322 260 324.9 255.9 326.45 259.85 326.5 260 327 260 329 259.5 330.8 258.6 331 258.5 331 258 331 257.5 330.75 257.15 330.05 255.95 330 254 333.1 243.55 334.5 251.9 334.5 252 335 252 335 251.5 335 251 335 246.5 335 242 334.5 242 334.25 241.75 334 241.5 334 241 333.5 241 333.05 240.85 329.25 239.75 328 236 328.5 235.5 328.8 234.9 329 234.5 329 234 Z" stroke="none" fill="#03070F"></path>

<path d="M 328.1 233.8
Q 328.5 234 329 234 329 233.5 328.8 233.1 325.25 224.75 317 221 316.5 221 316 220.9 314 220.5 312 220 312 220.5 312 221 319.65 229.6 328.1 233.8 Z" stroke="none" fill="#01151F"></path>
</g>
</g>
</g>
</g>
</g>
</svg>
