
<svg viewBox="0 0 136 113" height="113px" width="136px" y="0px" x="0px" preserveAspectRatio="none" xmlns:xlink="http://www.w3.org/1999/xlink" version="1.1" xmlns="http://www.w3.org/2000/svg">
<defs></defs>

<g id="Layer_1"></g>

<g id="Layer_2">
<g transform="matrix( 1, 0, 0, 1, 311.7,142.5)" id="Layer_1">
<g>
<g>
<g>
<path d="M -217.2 -100.5
Q -217.85 -100.4 -218.6 -100.3 -220.6 -100 -222.45 -99.3 -228.6373046875 -96.9236328125 -232.8 -92.05 -232.9080078125 -92.080078125 -233.05 -92.1 -233.4 -92.45 -233.8 -92.8 -234.9 -93.85 -236.45 -94.05 -236.9810546875 -93.950390625 -237.35 -93.75 -238.673046875 -93.091015625 -238.05 -91.3 -237.894921875 -90.8091796875 -237.6 -90.4 -237.33671875 -90.0400390625 -236.95 -89.75 -236.1388671875 -89.1009765625 -235.25 -88.7 -236.504296875 -86.6951171875 -237.45 -84.55 -239.1462890625 -85.6287109375 -241.1 -86.35 -242.4 -86.25 -242.9 -85 -243.2 -84.2 -242.7 -83.55 -241.139453125 -81.65859375 -238.9 -80.6 -239.2353515625 -79.2611328125 -239.5 -77.9 -241.05 -70.45 -236.65 -63.75 -236.2 -63.15 -235.7 -62.65 -233.588671875 -60.9609375 -231.1 -59.95 -230.3396484375 -59.64375 -229.55 -59.4 -223.8841796875 -57.656640625 -219.25 -59.95 -217.5005859375 -60.8134765625 -215.9 -62.25 -213.7427734375 -64.1833984375 -211.95 -66.4 -209.33828125 -69.6048828125 -207.5 -73.4 -207.3595703125 -73.6935546875 -207.25 -74 -204.708984375 -80.592578125 -204.85 -87.45 -204.86640625 -87.44765625 -204.9 -87.45 -205.35 -90.3 -206.65 -93.1 -208.513671875 -97.2482421875 -211.95 -99.1 -214.22890625 -100.3005859375 -217.2 -100.5
M -217 -96.5
Q -216.1 -96.55 -215.2 -96.25 -214.75 -96.1 -214.35 -95.85 -212.988671875 -95.046875 -211.95 -94.05 -209.173046875 -91.3072265625 -208.7 -87.05 -208.3 -83.15 -209.2 -79.4 -210.3083984375 -76.193359375 -211.95 -73.35 -212.3814453125 -72.57890625 -212.85 -71.85 -216.35 -66.2 -222.35 -63.25 -223.45 -62.7 -224.7 -62.8 -228.46484375 -63.15859375 -232.05 -64.7 -232.440625 -64.858203125 -232.85 -65.05 -232.950390625 -65.18828125 -233.05 -65.35 -233.7263671875 -66.3017578125 -234.25 -67.3 -234.3205078125 -67.460546875 -234.4 -67.65 -234.791015625 -68.421484375 -235.1 -69.4 -233.8732421875 -69.3158203125 -232.55 -69.8 -230.75 -70.4 -229.1 -71.85 -227.05 -73.75 -226.25 -75.75 -225.35 -78.45 -226.25 -80.5 -227.35 -83.05 -230.1 -84.35 -230.941796875 -84.7140625 -232.15 -85.05 -232.0330078125 -85.383984375 -231.9 -85.7 -230.95 -87.75 -229.4 -89.4 -229.0421875 -89.790234375 -228.95 -90.3 -228.578125 -90.667578125 -228.2 -91.05 -223.6734375 -95.61015625 -217 -96.5
M -204.05 -134.85
Q -204.8 -135.65 -205.8 -136.2 -208.7 -137.75 -212.1 -137.85 -218.4 -137.35 -223.75 -133.8 -223.9 -133.7 -224 -133.6 -227.4 -141.7 -236.75 -142.5 -238.6 -142.3 -240.4 -141.6 -247.4986328125 -138.701953125 -252.65 -133.45 -255.3703125 -130.6375 -257.55 -127.15 -258.9 -125 -260.2 -122.8 -260.58671875 -122.1517578125 -260.95 -121.5 -263.78203125 -116.38359375 -265.2 -110.8 -265.65 -109.95 -265.95 -109 -266.0083984375 -108.825 -266.1 -108.65 -266.3416015625 -107.775 -266.55 -106.9 -266.7 -106.4 -266.65 -105.95 -266.8 -105.7 -266.95 -105.4 -271.75 -94.4 -275.65 -83.15 -279.2 -72.6 -279.45 -61.65 -279.5314453125 -58.0376953125 -278.55 -54.75 -277.7259765625 -51.98515625 -276.15 -49.45 -273.1 -44.45 -268.15 -41.95 -267.15 -41.35 -266.05 -40.85 -265.9 -40.8 -265.75 -40.7 -266.5 -39.75 -266.8 -38.45 -267.05 -38.1 -267.25 -37.75 -267.3 -37.55 -267.3 -37.3 -268.7 -35.35 -269.95 -33.25 -270.5 -32.4 -269.85 -31.7 -267.79296875 -29.4142578125 -265.85 -31.8 -265.680078125 -31.9884765625 -265.5 -32.25 -263.75 -34.7 -262.55 -37.35 -261.95 -38.25 -261.45 -39.15 -258.4 -38.2 -255.2 -37.85 -249.6 -37.2 -244.05 -37.65 -238.4 -38.1 -233.1 -40.25 -227.9 -42.4 -223.45 -45.8 -219.9 -48.45 -216.6 -51.35 -214.61328125 -52.96875 -212.75 -54.75 -212.348828125 -55.14296875 -211.95 -55.55 -211.699609375 -55.7953125 -211.45 -56.05 -211.15 -56.35 -210.85 -56.65 -210.45 -57 -210.15 -57.5 -209.103125 -58.68359375 -208.1 -59.95 -207.9986328125 -60.074609375 -207.9 -60.2 -207.75 -60.35 -207.65 -60.5 -206.65 -62.25 -205.55 -64 -205.35 -64.6 -205.2 -65.1 -204.75 -66.05 -204.25 -67.1 -204.2330078125 -67.15078125 -204.25 -67.2 -204.045703125 -67.759375 -204 -68.4 -204.1 -68.45 -204.2 -68.45 -204.25 -68.45 -204.3 -68.4 -204.4 -68.3 -204.65 -68.4 -204.65 -68.35 -204.65 -68.25
L -205.2 -68.1 -205.7 -67.75
Q -207.4 -65.8 -209.1 -63.8 -210.25 -62.55 -211.55 -61.35 -211.74609375 -61.0830078125 -211.95 -60.85 -212.2896484375 -60.3798828125 -212.65 -59.95 -214.07734375 -58.274609375 -215.85 -56.75 -217.05859375 -55.723828125 -218.3 -54.75 -219.7541015625 -53.587890625 -221.25 -52.5 -221.35 -52.45 -221.4 -52.4 -222.45 -51.55 -223.5 -50.7 -224.439453125 -49.9677734375 -225.4 -49.3 -227.9224609375 -47.455859375 -230.6 -45.9 -235.5 -43 -241.15 -42.15 -246.7 -41.35 -252.3 -41.55 -256.6 -41.75 -260.7 -43.05 -266.15 -44.75 -270.3 -48.65 -271.1 -49.4 -271.95 -50.1 -272.25 -50.4 -272.55 -50.5 -273.8427734375 -52.4392578125 -274.5 -54.75 -274.5671875 -55.1201171875 -274.65 -55.5 -276.85 -65.65 -274 -75.7 -270.85 -87.15 -265.8 -97.8 -265.7 -98 -265.65 -98.2 -265.6 -98.45 -265.4 -98.65
L -265.45 -99.15
Q -264.5 -102.05 -263.15 -104.75 -263 -104.95 -262.9 -105.15 -262.8 -105.35 -262.7 -105.55 -262.45 -106.05 -262.2 -106.55 -262.2 -106.85 -262.25 -107.15 -262.06875 -107.9205078125 -261.75 -108.65 -261.6873046875 -108.7251953125 -261.65 -108.8 -261.6 -108.8 -261.55 -108.75 -261.5 -109.05 -261.4 -109.3 -261.3 -109.55 -261.15 -109.8 -261.0291015625 -110.041796875 -260.95 -110.3 -260.8 -110.7591796875 -260.8 -111.25 -260.35 -112.55 -259.9 -113.8 -258.45 -117.7 -256.45 -121.4 -252.6994140625 -128.432421875 -246.65 -133.45 -244.9302734375 -134.85390625 -243.05 -136.1 -241.2 -137.35 -239 -137.85 -232.55 -139.3 -228.4 -134 -228.35 -133.95 -228.35 -133.85 -228.290234375 -133.641015625 -228.2 -133.45 -228.1306640625 -133.3208984375 -228.05 -133.2 -227.9 -133.05 -227.75 -132.9 -227.7 -132.8 -227.65 -132.75 -227.45 -131.35 -226.85 -130.1 -226.7 -129.9 -226.55 -129.7 -230 -126.05 -232.05 -121.15 -232.1 -121.05 -232.15 -120.9 -230.35 -121.35 -228.7 -122.15 -227.1 -124.75 -225 -127
L -224.85 -127.5 -223.5 -128.85 -223 -129
Q -222.25 -130.05 -221.15 -130.85 -218.4 -132.4 -215.35 -133.25 -214.959765625 -133.3681640625 -214.6 -133.45 -213.298046875 -133.714453125 -212 -133.6 -211.3154296875 -133.5564453125 -210.7 -133.45 -205.3740234375 -132.5751953125 -202.7 -127.45 -201.4 -124.9 -200.4 -122.2 -198.65 -118.95 -198.7 -115 -198.75 -111.05 -198.9 -107.2 -199.05 -103.8 -199.55 -100.45 -198.45 -96.9 -197.2 -97 -196.9 -97 -196.65 -97.1 -194.15 -94.1 -191.8 -91 -184.4 -81.35 -181.15 -69.7 -180.5 -68.25 -180.05 -66.7 -179.8 -65.25 -179.65 -63.75 -179.4466796875 -61.8525390625 -179.4 -59.95 -179.2849609375 -57.093359375 -179.5 -54.25 -179.4734375 -53.853515625 -179.45 -53.5 -179.8728515625 -52.3265625 -180 -51 -180.75 -43.05 -182.75 -35.45 -183.15 -34.75 -183.5 -34.05 -184.4609375 -32.1283203125 -183.85 -30.2 -183.82734375 -30.1283203125 -183.8 -30.05 -183.55 -29.4 -182.85 -29.4 -181.5787109375 -29.460546875 -180.8 -30.1 -179.6193359375 -30.9626953125 -179.5 -33.05 -179.05 -33.8 -178.85 -34.65 -178.75 -35.05 -178.7 -35.5 -176.65 -42.2 -175.95 -49.25 -175.793359375 -50.9333984375 -175.2 -52.5 -175.27578125 -53.93984375 -175.2 -55.4 -175.174609375 -55.9841796875 -175.15 -56.6 -175.25 -56.6509765625 -175.35 -56.75 -175.31796875 -57.738671875 -175.3 -58.75 -175.2892578125 -59.3513671875 -175.3 -59.95 -175.354296875 -64.9748046875 -176.65 -69.8 -176.8 -70.35 -176.95 -70.9 -177.2 -72 -177.8 -72.75 -179.4 -78.5 -182.4 -83.9 -184.7 -87.95 -187.2 -91.95 -190.4 -97.1 -195.35 -100.4 -195.35 -100.6 -195.35 -100.7 -193.85 -108.7 -195.35 -116.85 -195.55 -118 -195.5 -119.2 -195.35 -121.3 -196.4 -122.5 -196.55 -122.9 -196.7 -123.3 -197.6 -126.5 -199.25 -129.5 -200.4619140625 -131.75078125 -202.3 -133.45 -203.1123046875 -134.204296875 -204.05 -134.85 Z" stroke="none" fill="#000000"></path>

<path d="M -215.2 -96.25
Q -216.1 -96.55 -217 -96.5 -223.6734375 -95.61015625 -228.2 -91.05 -228.578125 -90.667578125 -228.95 -90.3 -229.0421875 -89.790234375 -229.4 -89.4 -230.95 -87.75 -231.9 -85.7 -232.0330078125 -85.383984375 -232.15 -85.05 -230.941796875 -84.7140625 -230.1 -84.35 -227.35 -83.05 -226.25 -80.5 -225.35 -78.45 -226.25 -75.75 -227.05 -73.75 -229.1 -71.85 -230.75 -70.4 -232.55 -69.8 -233.8732421875 -69.3158203125 -235.1 -69.4 -234.791015625 -68.421484375 -234.4 -67.65 -234.3205078125 -67.460546875 -234.25 -67.3 -233.7263671875 -66.3017578125 -233.05 -65.35 -232.950390625 -65.18828125 -232.85 -65.05 -232.440625 -64.858203125 -232.05 -64.7 -228.46484375 -63.15859375 -224.7 -62.8 -223.45 -62.7 -222.35 -63.25 -216.35 -66.2 -212.85 -71.85 -212.3814453125 -72.57890625 -211.95 -73.35 -210.3083984375 -76.193359375 -209.2 -79.4 -208.3 -83.15 -208.7 -87.05 -209.173046875 -91.3072265625 -211.95 -94.05 -212.988671875 -95.046875 -214.35 -95.85 -214.75 -96.1 -215.2 -96.25 Z" stroke="none" fill="#FFFFFF"></path>

<path d="M -223.6 -117.05
Q -226.1 -117.25 -228.6 -116 -233.2919921875 -113.5830078125 -235.95 -108.65 -236.0619140625 -108.37890625 -236.2 -108.1 -238.85 -102.85 -238 -97.35 -237.5005859375 -94.698828125 -237.35 -93.75 -236.9810546875 -93.950390625 -236.45 -94.05 -234.9 -93.85 -233.8 -92.8 -233.4 -92.45 -233.05 -92.1 -232.9080078125 -92.080078125 -232.8 -92.05 -228.6373046875 -96.9236328125 -222.45 -99.3 -220.6 -100 -218.6 -100.3 -217.85 -100.4 -217.2 -100.5 -214.22890625 -100.3005859375 -211.95 -99.1 -208.513671875 -97.2482421875 -206.65 -93.1 -205.35 -90.3 -204.9 -87.45 -204.86640625 -87.44765625 -204.85 -87.45 -204.708984375 -80.592578125 -207.25 -74 -207.3595703125 -73.6935546875 -207.5 -73.4 -209.33828125 -69.6048828125 -211.95 -66.4 -213.7427734375 -64.1833984375 -215.9 -62.25 -217.5005859375 -60.8134765625 -219.25 -59.95 -223.8841796875 -57.656640625 -229.55 -59.4 -230.3396484375 -59.64375 -231.1 -59.95 -233.588671875 -60.9609375 -235.7 -62.65 -236.2 -63.15 -236.65 -63.75 -241.05 -70.45 -239.5 -77.9 -239.2353515625 -79.2611328125 -238.9 -80.6 -241.139453125 -81.65859375 -242.7 -83.55 -243.2 -84.2 -242.9 -85 -242.4 -86.25 -241.1 -86.35 -239.1462890625 -85.6287109375 -237.45 -84.55 -236.504296875 -86.6951171875 -235.25 -88.7 -236.1388671875 -89.1009765625 -236.95 -89.75 -237.33671875 -90.0400390625 -237.6 -90.4 -237.766015625 -89.9771484375 -238 -89.6 -239.4 -87.45 -244.25 -87.2 -249.8 -86.95 -251.6 -85.75 -253.95 -84.15 -253.65 -80.85 -253.35 -77.6 -250.75 -76.35 -249.95 -75.95 -247.9 -75.6 -245.95 -75.3 -245.1 -74.75 -243.65 -73.85 -242.95 -72.1 -242.3 -70.45 -242.5 -68.6 -242.738671875 -66.309375 -244.6 -62.6 -244.86484375 -62.5810546875 -245.2 -62.55 -245.0130859375 -61.332421875 -244 -60.85 -242.6 -60.35 -241.9 -60.1 -241.721484375 -60.028515625 -241.55 -59.95 -240.6072265625 -59.478515625 -240.35 -58.75 -239.8 -57.25 -242.6 -55.25 -242.962890625 -54.9958984375 -243.3 -54.75 -245.587890625 -52.9625 -245.5 -51.6 -245.4 -50.25 -243.75 -49.75 -242.2 -49.3 -240.75 -50 -240.25 -50.2 -238.2 -51.45 -236.65 -52.4 -235.5 -52.6 -233.75 -52.9 -231.25 -51.6 -227.65 -49.8 -227 -49.6 -226.209375 -49.3583984375 -225.4 -49.3 -224.439453125 -49.9677734375 -223.5 -50.7 -222.45 -51.55 -221.4 -52.4 -221.35 -52.45 -221.25 -52.5 -219.7541015625 -53.587890625 -218.3 -54.75 -217.05859375 -55.723828125 -215.85 -56.75 -214.07734375 -58.274609375 -212.65 -59.95 -212.2896484375 -60.3798828125 -211.95 -60.85 -211.74609375 -61.0830078125 -211.55 -61.35 -210.25 -62.55 -209.1 -63.8 -207.4 -65.8 -205.7 -67.75
L -205.2 -68.1 -204.65 -68.25
Q -204.65 -68.35 -204.65 -68.4 -204.4 -68.3 -204.3 -68.4 -204.25 -68.45 -204.2 -68.45 -204.1 -68.45 -204 -68.4 -204.045703125 -67.759375 -204.25 -67.2 -203.4123046875 -67.8033203125 -202.6 -68.25 -198.2 -70.05 -196 -71 -192.1 -72.65 -190.75 -75.1 -189.2 -77.95 -190.7 -81.7 -191.95 -84.8 -194.85 -87.6 -196.6 -89.2 -200.3 -92.4 -203.3 -95.25 -204.25 -98.1 -204.5 -98.85 -204.95 -100.45 -205.4 -101.8 -206 -102.5 -207.3759765625 -104.1052734375 -211.95 -104.45 -212.3619140625 -104.479296875 -212.8 -104.5 -217.85 -104.75 -219 -106.85 -219.331640625 -107.51328125 -219.45 -108.65 -219.489453125 -109.569921875 -219.4 -110.8 -219.2 -113.55 -219.85 -114.75 -220.85 -116.85 -223.6 -117.05
M -250.75 -73.75
Q -252.05 -73.9 -253.1 -73.35 -254.9 -72.5 -255.75 -70.35 -256.3 -68.3 -255.35 -66.6 -255 -65.9 -254.35 -65.5 -253.6 -65.1 -252.4 -65.25 -252.25078125 -65.264453125 -252.15 -65.3 -252.133984375 -65.0734375 -252.15 -64.8 -251.2771484375 -64.7044921875 -250.35 -64.85 -247.65 -65.5 -246.5 -67.6 -246 -69.1 -246.25 -69.85 -246.55 -71 -248.25 -72.25 -249.85 -73.5 -250.75 -73.75
M -206.1 -113.6
Q -207.05 -114.4 -209.1 -114.85 -211.1 -115.15 -212.25 -114.75 -213.65 -114.2 -214.6 -113 -215.75 -111.5 -215.6 -110.75 -215.6 -109.8 -214.75 -109.1 -214.534765625 -108.8640625 -214.3 -108.65 -214.119140625 -108.4806640625 -213.95 -108.35 -213.1611328125 -107.726953125 -212.25 -107.4 -212.4150390625 -107.180859375 -212.55 -107 -212.261328125 -106.807421875 -211.95 -106.65 -210.805078125 -106.1 -209.35 -106.1 -206.4 -106.35 -205.25 -108.85 -204.7 -110 -204.9 -111.3 -205.15 -112.65 -206.1 -113.6 Z" stroke="none" fill="#61DBFF"></path>

<path d="M -202.7 -127.45
Q -205.3740234375 -132.5751953125 -210.7 -133.45 -211.3154296875 -133.5564453125 -212 -133.6 -213.298046875 -133.714453125 -214.6 -133.45 -214.959765625 -133.3681640625 -215.35 -133.25 -218.4 -132.4 -221.15 -130.85 -222.25 -130.05 -223 -129
L -223.5 -128.85 -224.85 -127.5 -225 -127
Q -227.1 -124.75 -228.7 -122.15 -230.35 -121.35 -232.15 -120.9 -232.1 -121.05 -232.05 -121.15 -230 -126.05 -226.55 -129.7 -226.7 -129.9 -226.85 -130.1 -227.45 -131.35 -227.65 -132.75 -227.7 -132.8 -227.75 -132.9 -227.9 -133.05 -228.05 -133.2 -228.1306640625 -133.3208984375 -228.2 -133.45 -228.290234375 -133.641015625 -228.35 -133.85 -228.35 -133.95 -228.4 -134 -232.55 -139.3 -239 -137.85 -241.2 -137.35 -243.05 -136.1 -244.9302734375 -134.85390625 -246.65 -133.45 -252.6994140625 -128.432421875 -256.45 -121.4 -258.45 -117.7 -259.9 -113.8 -260.35 -112.55 -260.8 -111.25 -260.8 -110.7591796875 -260.95 -110.3 -261.0291015625 -110.041796875 -261.15 -109.8 -261.3 -109.55 -261.4 -109.3 -261.5 -109.05 -261.55 -108.75 -261.6 -108.8 -261.65 -108.8 -261.6873046875 -108.7251953125 -261.75 -108.65 -262.06875 -107.9205078125 -262.25 -107.15 -262.2 -106.85 -262.2 -106.55 -262.45 -106.05 -262.7 -105.55 -262.8 -105.35 -262.9 -105.15 -263 -104.95 -263.15 -104.75 -264.5 -102.05 -265.45 -99.15
L -265.4 -98.65
Q -265.6 -98.45 -265.65 -98.2 -265.7 -98 -265.8 -97.8 -270.85 -87.15 -274 -75.7 -276.85 -65.65 -274.65 -55.5 -274.5671875 -55.1201171875 -274.5 -54.75 -273.8427734375 -52.4392578125 -272.55 -50.5 -272.25 -50.4 -271.95 -50.1 -271.1 -49.4 -270.3 -48.65 -266.15 -44.75 -260.7 -43.05 -256.6 -41.75 -252.3 -41.55 -246.7 -41.35 -241.15 -42.15 -235.5 -43 -230.6 -45.9 -227.9224609375 -47.455859375 -225.4 -49.3 -226.209375 -49.3583984375 -227 -49.6 -227.65 -49.8 -231.25 -51.6 -233.75 -52.9 -235.5 -52.6 -236.65 -52.4 -238.2 -51.45 -240.25 -50.2 -240.75 -50 -242.2 -49.3 -243.75 -49.75 -245.4 -50.25 -245.5 -51.6 -245.587890625 -52.9625 -243.3 -54.75 -242.962890625 -54.9958984375 -242.6 -55.25 -239.8 -57.25 -240.35 -58.75 -240.6072265625 -59.478515625 -241.55 -59.95 -241.721484375 -60.028515625 -241.9 -60.1 -242.6 -60.35 -244 -60.85 -245.0130859375 -61.332421875 -245.2 -62.55 -244.86484375 -62.5810546875 -244.6 -62.6 -242.738671875 -66.309375 -242.5 -68.6 -242.3 -70.45 -242.95 -72.1 -243.65 -73.85 -245.1 -74.75 -245.95 -75.3 -247.9 -75.6 -249.95 -75.95 -250.75 -76.35 -253.35 -77.6 -253.65 -80.85 -253.95 -84.15 -251.6 -85.75 -249.8 -86.95 -244.25 -87.2 -239.4 -87.45 -238 -89.6 -237.766015625 -89.9771484375 -237.6 -90.4 -237.894921875 -90.8091796875 -238.05 -91.3 -238.673046875 -93.091015625 -237.35 -93.75 -237.5005859375 -94.698828125 -238 -97.35 -238.85 -102.85 -236.2 -108.1 -236.0619140625 -108.37890625 -235.95 -108.65 -233.2919921875 -113.5830078125 -228.6 -116 -226.1 -117.25 -223.6 -117.05 -220.85 -116.85 -219.85 -114.75 -219.2 -113.55 -219.4 -110.8 -219.489453125 -109.569921875 -219.45 -108.65 -219.331640625 -107.51328125 -219 -106.85 -217.85 -104.75 -212.8 -104.5 -212.3619140625 -104.479296875 -211.95 -104.45 -207.3759765625 -104.1052734375 -206 -102.5 -205.4 -101.8 -204.95 -100.45 -204.5 -98.85 -204.25 -98.1 -203.3 -95.25 -200.3 -92.4 -196.6 -89.2 -194.85 -87.6 -191.95 -84.8 -190.7 -81.7 -189.2 -77.95 -190.75 -75.1 -192.1 -72.65 -196 -71 -198.2 -70.05 -202.6 -68.25 -203.4123046875 -67.8033203125 -204.25 -67.2 -204.2330078125 -67.15078125 -204.25 -67.1 -204.75 -66.05 -205.2 -65.1 -205.35 -64.6 -205.55 -64 -206.65 -62.25 -207.65 -60.5 -207.75 -60.35 -207.9 -60.2 -207.9986328125 -60.074609375 -208.1 -59.95 -209.103125 -58.68359375 -210.15 -57.5 -210.45 -57 -210.85 -56.65 -211.15 -56.35 -211.45 -56.05 -211.699609375 -55.7953125 -211.95 -55.55 -212.348828125 -55.14296875 -212.75 -54.75 -214.61328125 -52.96875 -216.6 -51.35 -219.9 -48.45 -223.45 -45.8 -227.9 -42.4 -233.1 -40.25 -238.4 -38.1 -244.05 -37.65 -249.6 -37.2 -255.2 -37.85 -258.4 -38.2 -261.45 -39.15 -261.95 -38.25 -262.55 -37.35 -263.75 -34.7 -265.5 -32.25 -265.680078125 -31.9884765625 -265.85 -31.8 -224.804296875 -31.98671875 -183.85 -30.2 -184.4609375 -32.1283203125 -183.5 -34.05 -183.15 -34.75 -182.75 -35.45 -180.75 -43.05 -180 -51 -179.8728515625 -52.3265625 -179.45 -53.5 -179.4734375 -53.853515625 -179.5 -54.25 -179.2849609375 -57.093359375 -179.4 -59.95 -179.4466796875 -61.8525390625 -179.65 -63.75 -179.8 -65.25 -180.05 -66.7 -180.5 -68.25 -181.15 -69.7 -184.4 -81.35 -191.8 -91 -194.15 -94.1 -196.65 -97.1 -196.9 -97 -197.2 -97 -198.45 -96.9 -199.55 -100.45 -199.05 -103.8 -198.9 -107.2 -198.75 -111.05 -198.7 -115 -198.65 -118.95 -200.4 -122.2 -201.4 -124.9 -202.7 -127.45
M -209.1 -114.85
Q -207.05 -114.4 -206.1 -113.6 -205.15 -112.65 -204.9 -111.3 -204.7 -110 -205.25 -108.85 -206.4 -106.35 -209.35 -106.1 -210.805078125 -106.1 -211.95 -106.65 -212.261328125 -106.807421875 -212.55 -107 -213.3193359375 -107.5203125 -213.95 -108.35 -214.119140625 -108.4806640625 -214.3 -108.65 -214.534765625 -108.8640625 -214.75 -109.1 -215.6 -109.8 -215.6 -110.75 -215.75 -111.5 -214.6 -113 -213.65 -114.2 -212.25 -114.75 -211.1 -115.15 -209.1 -114.85
M -253.1 -73.35
Q -252.05 -73.9 -250.75 -73.75 -249.85 -73.5 -248.25 -72.25 -246.55 -71 -246.25 -69.85 -246 -69.1 -246.5 -67.6 -247.65 -65.5 -250.35 -64.85 -251.2771484375 -64.7044921875 -252.15 -64.8 -252.133984375 -65.0734375 -252.15 -65.3 -252.25078125 -65.264453125 -252.4 -65.25 -253.6 -65.1 -254.35 -65.5 -255 -65.9 -255.35 -66.6 -256.3 -68.3 -255.75 -70.35 -254.9 -72.5 -253.1 -73.35 Z" stroke="none" fill="#D433FF"></path>

<path d="M -212.55 -107
Q -212.4150390625 -107.180859375 -212.25 -107.4 -213.1611328125 -107.726953125 -213.95 -108.35 -213.3193359375 -107.5203125 -212.55 -107 Z" stroke="none" fill="#CC00FF"></path>
</g>
</g>
</g>
</g>
</g>
</svg>
