
<svg viewBox="0 0 80 70" height="70px" width="80px" y="0px" x="0px" preserveAspectRatio="none" xmlns:xlink="http://www.w3.org/1999/xlink" version="1.1" xmlns="http://www.w3.org/2000/svg">
<defs></defs>

<g id="Layer_2">
<g transform="matrix( 0.2443389892578125, 0, 0, 0.2443389892578125, -5.6,-13.9)" id="Layer_1">
<g>
<g>
<g>
<path d="M 254 335
Q 254 334.5 253.75 334.2 252.1 331.9 249 331 250.35 333.65 253.1 334.8 253.5 335 254 335 Z" stroke="none" fill="#1C3D46"></path>

<path d="M 306.2 330.75
Q 306.5 331 307 331 307 330.5 306.95 330 306.3 321.85 302 322 302.75 327.75 306.2 330.75 Z" stroke="none" fill="#051D2A"></path>

<path d="M 316 331
Q 315.5 331 315 331 311.5 331 308 331 310.75 332.75 315.9 331.55 316 331.5 316 331 Z" stroke="none" fill="#375A64"></path>

<path d="M 318 323
Q 318 323.5 318.1 324 318.7 327.2 317 328 317 328.5 317 329 317 329.5 317 330 320.05 328.55 318.55 323.15 318.5 323 318 323 Z" stroke="none" fill="#2B4D57"></path>

<path d="M 310 297
Q 310.1 305.9 313.4 311.8 313.5 312 314 312 314 311.5 313.9 311 312.45 303.55 310 297 Z" stroke="none" fill="#031F2A"></path>

<path d="M 314 312
Q 313.25 316.75 315.25 318.75 315.5 319 316 319 316 318.5 316.1 318 316.9 313.1 314 312 Z" stroke="none" fill="#0B252F"></path>

<path d="M 178 299
Q 179.5 299 181 299 181.5 299 182 299 182 298.5 181.8 298.4 177.25 296.25 170 297 170 297.5 170 298 170 298.5 170 299 173.5 299 177 299 177.5 299 178 299 Z" stroke="none" fill="#846A4F"></path>

<path d="M 192 301
Q 192 300.5 192 300 192 299.5 192 299 191.5 299 191 299 186.5 299 182 299 181.5 299 181 299 179.5 299 178 299 182.35 302.15 191 301.05 191.5 301 192 301
M 314.1 274
Q 314 273.5 314 273 313.5 273 313.1 273.2 312.5 273.5 312 274 312 276 312 278 312 278.5 312 279 315.2 278.7 314.1 274 Z" stroke="none" fill="#716E5F"></path>

<path d="M 193 301
Q 193.5 301 194 301 195.5 301 197 301 197.5 301 198 301 198 300.5 197.75 300.2 196.2 298.25 192 299 192 299.5 192 300 192 300.5 192 301 192.5 301 193 301 Z" stroke="none" fill="#85684A"></path>

<path d="M 236 339
Q 236 338.5 235.85 338.05 234.75 335.25 231 335 233 337 235.2 338.75 235.5 339 236 339 Z" stroke="none" fill="#24424A"></path>

<path d="M 212 303
Q 212 302.5 211.85 302.45 206.2 300.3 198 301 197.5 301 197 301 195.5 301 194 301 200.2 304.25 211 303.05 211.5 303 212 303 Z" stroke="none" fill="#726E5E"></path>

<path d="M 229 320
Q 228.5 320 228 320 228 325.5 228.5 330.95 228.5 331 229 331 229 330.5 229 330 229 325 229 320 Z" stroke="none" fill="#335159"></path>

<path d="M 228 305
Q 228 304.5 228 304 228 303.5 228 303 227.5 303 227 303 220.5 303 214 303 218.35 306.15 227 305.05 227.5 305 228 305 Z" stroke="none" fill="#706F61"></path>

<path d="M 230 305
Q 230.5 305 231 305 231.5 305 232 305 232 304.5 231.85 304.05 231.2 302.3 228 303 228 303.5 228 304 228 304.5 228 305 228.5 305 229 305 229.5 305 230 305 Z" stroke="none" fill="#85694C"></path>

<path d="M 241 305
Q 241 305.5 240.8 305.6 240 306 239 306 239 306.5 239 307 250.9 308.75 255 308.5
L 255 309
Q 255.5 309 256 309 256 308.5 256 308 256 306.5 256 305 256 304.5 255.75 304.3 248.85 298.05 241 304 241 304.5 241 305 Z" stroke="none" fill="#200B02"></path>

<path d="M 237 307.05
Q 237.5 307 238 307 238.5 307 239 307 239 306.5 239 306 240 306 240.8 305.6 241 305.5 241 305 240.5 305 240 305 236 305 232 305 231.5 305 231 305 230.5 305 230 305 231.85 307.65 237 307.05 Z" stroke="none" fill="#6C6856"></path>

<path d="M 238 307
Q 238 307.5 237.8 307.85 234.05 314 229 319 229 319.5 229 320 229 325 229 330 229 330.5 229 331 229.5 333 230.4 334.8 230.5 335 231 335 234.75 335.25 235.85 338.05 236 338.5 236 339 249.1 350.35 253.85 335.95 254 335.5 254 335 253.5 335 253.1 334.8 250.35 333.65 249 331 248.5 331 248 331 242.2 330.8 244 323 249.8 316.8 254.75 309.85 255 309.5 255 309
L 255 308.5
Q 250.9 308.75 239 307 238.5 307 238 307 Z" stroke="none" fill="#020C16"></path>

<path d="M 241 294
Q 241 293.5 240.95 293.5 236.5 293 232 293 234.75 294.75 240 294.05 240.5 294 241 294 Z" stroke="none" fill="#D39F3B"></path>

<path d="M 226 293
Q 226 292.5 225.95 292.5 222 292 218 292 220.25 293.75 225 293.05 225.5 293 226 293 Z" stroke="none" fill="#A97605"></path>

<path d="M 210 291
Q 210 290.5 209.9 290.5 203.65 289.35 197 289 201.6 291.4 209 291 209.5 291 210 291 Z" stroke="none" fill="#B68615"></path>

<path d="M 177 287
Q 177 286.5 176.95 286.5 169.4 285.6 162 285 167.2 287.8 176 287.05 176.5 287 177 287 Z" stroke="none" fill="#B78718"></path>

<path d="M 307 289
Q 306.5 289 306 289 300 289 296 293 296 295.5 296 298 296 298.5 296 299 296 300 296 301 296 301.5 296 302 298.5 312 301.85 321.05 302 321.5 302 322 306.3 321.85 306.95 330 307 330.5 307 331 307.5 331 308 331 311.5 331 315 331 315.5 331 316 331 316.5 331 316.75 330.75 317 330.5 317 330 317 329.5 317 329 317 328.5 317 328 318.7 327.2 318.1 324 318 323.5 318 323 318 322.5 317.8 322.1 317 320.5 316 319 315.5 319 315.25 318.75 313.25 316.75 314 312 313.5 312 313.4 311.8 310.1 305.9 310 297 310 296.5 310 296 310 294.5 310 293 309.5 293 309.4 292.8 308.35 290.65 307 289 Z" stroke="none" fill="#050817"></path>

<path d="M 307 287
Q 307 287.5 307 288 307 288.5 307 289 308.35 290.65 309.4 292.8 309.5 293 310 293 310 292.5 309.9 292 309.4 288.6 307 287 Z" stroke="none" fill="#37494A"></path>

<path d="M 294 294
Q 294 294.5 294 295 295.7 295.8 295.5 299
L 296 299
Q 296 298.5 296 298 296 295.5 296 293 300 289 306 289 306.5 289 307 289 307 288.5 307 288 307 287.5 307 287 306.5 287 306.25 286.75 306 286.5 306 286 305.5 286 305 286 297.7 285.7 294 289 294 291.5 294 294 Z" stroke="none" fill="#250502"></path>

<path d="M 298 285
Q 297.5 285 297.25 285.25 295.8 286.8 294 288 294 288.5 294 289 297.7 285.7 305 286 305.5 286 306 286 306 285.5 305.95 285.5 302 285 298 285 Z" stroke="none" fill="#633F08"></path>

<path d="M 294 295
Q 294 295.5 293.8 295.6 285.95 299.95 279 305 278.5 305 278.05 305.15 265.8 308.45 256 305 256 306.5 256 308 256 308.5 256 309 266.7 309.45 279 307.1 279.5 307 280 307 287.85 300.15 295.05 301.9 295.5 302 296 302 296 301.5 296 301 296 300 296 299
L 295.5 299
Q 295.7 295.8 294 295 Z" stroke="none" fill="#756A58"></path>

<path d="M 298.95 277
Q 299 276.5 299 276 299 275.5 298.9 275.05 297.8 270.5 294 277 293.8 281.15 295.3 279.25 295.5 279 296 279 298.7 279.2 298.95 277 Z" stroke="none" fill="#F3C550"></path>

<path d="M 305.95 262
Q 306 261.5 306 261 305.5 261 305.5 261.1 304.15 269.15 300 274 300 274.5 300 275 300 275.5 300 276 305.25 273.7 305.95 262 Z" stroke="none" fill="#A46E0A"></path>

<path d="M 318 257
Q 317.5 257 317 257 316.5 257 316 257 316 260.5 316 264 316 264.5 316 265 319.05 263.5 318.1 258 318 257.5 318 257 Z" stroke="none" fill="#706F5E"></path>

<path d="M 256 295
Q 256 295.5 256 296 262 296 268 296 268.5 296 269 296 269 295.5 268.8 295.4 268 295 267 295 266.5 295 266 295 261 295 256 295 Z" stroke="none" fill="#F6C461"></path>

<path d="M 320 239
Q 319.5 239 319 239 318.5 239 318 239 318 245.5 318 252 318 252.5 318 253 321.4 249.4 320.1 241 320 240.5 320 240 320 239.5 320 239 Z" stroke="none" fill="#6A7062"></path>

<path d="M 309 227
Q 309 227.5 309 228 308.4 241.4 306 253 306 255 306 257 306 257.5 306 258 311.45 245.75 310.05 228 310 227.5 310 227 309.5 227 309 227 Z" stroke="none" fill="#A3680B"></path>

<path d="M 320 223
Q 320 226.5 320 230 320 230.5 320 231 322.7 230.5 322.05 224 322 223.5 322 223 321.5 223 321 223 320.5 223 320 223 Z" stroke="none" fill="#666354"></path>

<path d="M 89 303
Q 88.5 303 88.1 303.2 85.95 304.45 82 304 85.35 306.3 88.75 303.7 89 303.5 89 303 Z" stroke="none" fill="#385961"></path>

<path d="M 128 319
Q 128 318.5 128 318 127.5 318 127 318 127 323.5 127.5 328.95 127.5 329 128 329 128 328.5 128 328 128 323.5 128 319 Z" stroke="none" fill="#365B66"></path>

<path d="M 130.1 314
Q 130 313.5 130 313
L 129.5 313
Q 129.65 315.15 128 315 128 316 128 317 128 317.5 128 318 128 318.5 128 319 131.2 318.7 130.1 314 Z" stroke="none" fill="#011C28"></path>

<path d="M 157 298
Q 157 298.5 157 299 163 299 169 299 169.5 299 170 299 170 298.5 170 298 170 297.5 170 297 169.5 297 169 297.05 160.8 298.2 157 295 157 296.5 157 298 Z" stroke="none" fill="#6E6A53"></path>

<path d="M 155.75 299.75
Q 156 299.5 156 299 156 298.5 155.75 298.3 150.2 294.2 140 297 140 297.5 139.85 297.95 139.2 299.75 137 300 137 300.5 136.75 300.8 133.4 305.4 130 310 130 311 130 312 130 312.5 130 313 130 313.5 130.1 314 131.2 318.7 128 319 128 323.5 128 328 128 328.5 128 329 128.85 339.65 139 340.95 139.5 341 140 341 147.7 341.7 146.5 334.1 146.5 334 146 334 142.5 328.5 142.95 319 143 318.5 143 318 148.35 307.85 155.75 299.75 Z" stroke="none" fill="#020B17"></path>

<path d="M 155 291.85
Q 155 291.926171875 155 292
L 155.5 292
Q 155.2501953125 291.9314453125 155 291.85
M 102 252
Q 102 252.5 102 253 102 253.5 102.05 254 102.75 259.75 101 263 101 263.5 101.1 264 101.7 266.7 100 267 100 268.5 100 270 100 270.5 100 271 105.35 278.15 111.75 284.25 112 284.5 112 285 115.2 284.3 115.85 286.05 116 286.5 116 287 119.2 286.3 119.85 288.05 120 288.5 120 289 123.2 288.3 123.85 290.05 124 290.5 124 291 134.45 293.05 139.15 295.8 139.5 296 140 296 142.5 294 145.15 292.25 145.5 292 146 292 146 291.5 146 291 149.3826171875 291 152.7 291.25 142.225390625 288.70625 130 288 130 287.5 129.95 287.5 115.25 285.5 106 273 106 272.5 106.1 272.05 107.55 266.1 104 256 104 255.5 104 255 104 254 104 253 103.5 253 103.1 252.8 102.5 252.5 102 252 Z" stroke="none" fill="#926236"></path>

<path d="M 157 285.05
Q 157.5 285 158 285 158 284.5 157.95 284.5 151.7 283.8 146 283 149.95 285.5 157 285.05 Z" stroke="none" fill="#BB8A1E"></path>

<path d="M 146 292
Q 145.5 292 145.15 292.25 142.5 294 140 296 140 296.5 140 297 150.2 294.2 155.75 298.3 156 298.5 156 299 156.5 299 157 299 157 298.5 157 298 157 296.5 157 295
L 156.5 295
Q 156.65 292.9 155 293 154.5 293 154.1 292.8 151.05 291.45 146 292 Z" stroke="none" fill="#250900"></path>

<path d="M 146 291
Q 146 291.5 146 292 151.05 291.45 154.1 292.8 154.5 293 155 293 155 292.5 155 292 155 291.926171875 155 291.85 154.992578125 291.5 154.95 291.5 153.844921875 291.37578125 152.7 291.25 149.3826171875 291 146 291 Z" stroke="none" fill="#4D2C03"></path>

<path d="M 123.05 291.1
Q 123.5 291 124 291 124 290.5 123.85 290.05 123.2 288.3 120 289 119.6 291.95 123.05 291.1
M 120 289
Q 120 288.5 119.85 288.05 119.2 286.3 116 287 115.6 289.95 119.05 289.1 119.5 289 120 289 Z" stroke="none" fill="#706F5F"></path>

<path d="M 140 296
Q 139.5 296 139.15 295.8 134.45 293.05 124 291 129.8 295.7 136.8 299.4 137 299.5 137 300 139.2 299.75 139.85 297.95 140 297.5 140 297 140 296.5 140 296 Z" stroke="none" fill="#696B5D"></path>

<path d="M 159 266
Q 159 266.5 158.75 266.8 154.6 271.95 156 266 156 265.5 155.8 265.4 148.6 261.85 153 268 152.5 268 152.25 267.75 148.85 264.5 144 266
L 144 266.5
Q 136.4 261.6 136 271
L 135.5 271
Q 135.45 262.35 125 266 135.25 271.65 126.25 277.35 126 277.5 126 278 133.5 282.5 145 283 145.5 283 146 283 151.7 283.8 157.95 284.5 158 284.5 158 285 159.5 285 161 285 161.5 285 162 285 169.4 285.6 176.95 286.5 177 286.5 177 287 187.5 287.05 196 288.9 196.5 289 197 289 203.65 289.35 209.9 290.5 210 290.5 210 291 214 291 217.95 291.5 218 291.5 218 292 222 292 225.95 292.5 226 292.5 226 293 228.5 293 231 293 231.5 293 232 293 236.5 293 240.95 293.5 241 293.5 241 294 248 295 255 295.95 255.5 296 256 296 256 295.5 256 295 261 295 266 295 266.5 295 267 295 267 294.5 267.15 294.45 274.55 291.7 280 288 280 287.5 279.9 287.5 273.35 286 270 283
L 270.5 283
Q 262.5 276.85 262 276
L 262 275.5
Q 255.9 275.75 256 274
L 256 273.5
Q 251.5 275.9 245 274
L 245 274.5
Q 239.85 271.3 234 269 234 269.5 233.9 269.5 228.65 270.45 221 271
L 220.5 271
Q 226.75 266.65 219 267
L 218.5 267
Q 220.85 272.6 209 274 208.5 274 208.35 273.8 204.85 268.05 203 267
L 203 266.5
Q 201.35 274.35 196 272 196 271.5 195.75 271.3 190.9 267.3 186 266 185.5 266 185.05 265.9 177.4 264 173 267 173 267.5 172.8 267.6 170.05 268.9 165 268 165.5 268 165.5 267.9 166.85 261.9 159 266 Z" stroke="none" fill="#F8D63F"></path>

<path d="M 112 285
Q 111.6 287.95 115.05 287.1 115.5 287 116 287 116 286.5 115.85 286.05 115.2 284.3 112 285 Z" stroke="none" fill="#6B7161"></path>

<path d="M 90 254
Q 89.5 254 89.45 254.15 82.3 274.8 76 296 74.25 304.25 81 304 81.5 304 82 304 85.95 304.45 88.1 303.2 88.5 303 89 303 89 302.5 89 302 95.45 288.45 98.9 272 99 271.5 99 271 99 270.5 99 270 99.35 255.75 90 254
M 86.2 280.65
Q 86 280.5 86 280 93.3 284.95 86.2 280.65
M 92.1 277.95
Q 92 277.5 92 277 95.05 289.3 92.1 277.95 Z" stroke="none" fill="#020C13"></path>

<path d="M 92 277
Q 92 277.5 92.1 277.95 95.05 289.3 92 277 Z" stroke="none" fill="#0F0202"></path>

<path d="M 86 280
Q 86 280.5 86.2 280.65 93.3 284.95 86 280 Z" stroke="none" fill="#130101"></path>

<path d="M 99 253
Q 98.5 253 98.05 252.85 95.3 252.1 90 253 90 253.5 90 254 99.35 255.75 99 270 99 270.5 99 271 99.5 271 100 271 100 270.5 100 270 100 268.5 100 267 101.7 266.7 101.1 264 101 263.5 101 263 101 262.5 101.05 262 102.05 255.45 99 253 Z" stroke="none" fill="#1E0901"></path>

<path d="M 99 253
Q 99.5 253 100 253 100 252.5 99.8 252.4 95.15 249.9 90 252 90 252.5 90 253 95.3 252.1 98.05 252.85 98.5 253 99 253 Z" stroke="none" fill="#482A04"></path>

<path d="M 104 256
Q 107.55 266.1 106.1 272.05 106 272.5 106 273 115.25 285.5 129.95 287.5 130 287.5 130 288 142.225390625 288.70625 152.7 291.25 153.844921875 291.37578125 154.95 291.5 154.992578125 291.5 155 291.85 155.2501953125 291.9314453125 155.5 292
L 155 292
Q 155 292.5 155 293 156.65 292.9 156.5 295
L 157 295
Q 160.8 298.2 169 297.05 169.5 297 170 297 177.25 296.25 181.8 298.4 182 298.5 182 299 186.5 299 191 299 191.5 299 192 299 196.2 298.25 197.75 300.2 198 300.5 198 301 206.2 300.3 211.85 302.45 212 302.5 212 303 212.5 303 213 303 213.5 303 214 303 220.5 303 227 303 227.5 303 228 303 231.2 302.3 231.85 304.05 232 304.5 232 305 236 305 240 305 240.5 305 241 305 241 304.5 241 304 248.85 298.05 255.75 304.3 256 304.5 256 305 265.8 308.45 278.05 305.15 278.5 305 279 305 285.95 299.95 293.8 295.6 294 295.5 294 295 294 294.5 294 294 294 291.5 294 289 294 288.5 294 288 295.8 286.8 297.25 285.25 297.5 285 298 285 298 284.5 297.8 284.1 297.5 283.5 297 283 299.9 282.7 300 277 300 276.5 300 276 299.5 276 299 276 299 276.5 298.95 277 298.7 279.2 296 279 296 279.5 295.75 279.8 286.4 291.9 269 296 268.5 296 268 296 262 296 256 296 255.5 296 255 295.95 248 295 241 294 240.5 294 240 294.05 234.75 294.75 232 293 231.5 293 231 293 228.5 293 226 293 225.5 293 225 293.05 220.25 293.75 218 292 218 291.5 217.95 291.5 214 291 210 291 209.5 291 209 291 201.6 291.4 197 289 196.5 289 196 288.9 187.5 287.05 177 287 176.5 287 176 287.05 167.2 287.8 162 285 161.5 285 161 285 159.5 285 158 285 157.5 285 157 285.05 149.95 285.5 146 283 145.5 283 145 283 133.5 282.5 126 278 125.5 278 125.05 277.8 121.95 276.55 120 274 119.5 274 119.1 273.8 118.5 273.5 118 273 117.5 273 117.25 272.75 110 265 104 256 Z" stroke="none" fill="#9F6421"></path>

<path d="M 118 271
Q 118 271.5 118 272 118 272.5 118 273 118.5 273.5 119.1 273.8 119.5 274 120 274 120.5 274 120.75 273.75 122.1 272.4 118 271 Z" stroke="none" fill="#F6CB50"></path>

<path d="M 102.05 254
Q 102 253.5 102 253 101.5 253 101 253 100.5 253 100 253 99.5 253 99 253 102.05 255.45 101.05 262 101 262.5 101 263 102.75 259.75 102.05 254 Z" stroke="none" fill="#3F2500"></path>

<path d="M 100 245
Q 100 245.5 99.75 245.75 99.5 246 99 246 99.75 248.75 101.3 250.75 101.5 251 102 251 102 250.5 102.05 250 102.35 246.65 101 245 100.5 245 100 245 Z" stroke="none" fill="#B2721D"></path>

<path d="M 101 234
Q 100.5 234 100 234 100 239 100 244 100 244.5 100 245 100.5 245 101 245 101 244.5 101 244 101 239 101 234 Z" stroke="none" fill="#B57A1C"></path>

<path d="M 92.1 216
Q 92 215.5 92 215 91.5 215 91 215 90.5 215 90 215 90 218.5 90 222 90 222.5 90 223 93.3 221.8 92.1 216 Z" stroke="none" fill="#776C57"></path>

<path d="M 102 222
Q 102 221.5 102 221 101.5 221 101.35 221.2 100 223.5 99 226 100.55 228.45 100.05 233 100 233.5 100 234 100.5 234 101 234 101 233.5 101 233 101 230 101 227 102.7 226.2 102.1 223 102 222.5 102 222 Z" stroke="none" fill="#AA6F14"></path>

<path d="M 103.05 214
Q 103 213.5 103 213 102.5 213 102 213 102 216.5 102 220 102 220.5 102 221 102 221.5 102 222 103.75 219.25 103.05 214 Z" stroke="none" fill="#BE8828"></path>

<path d="M 104 207
Q 103.5 207 103 207 103 209.5 103 212 103 212.5 103 213 103 213.5 103.05 214 103.75 219.25 102 222 102 222.5 102.1 223 102.7 226.2 101 227 101 230 101 233 101 233.5 101 234 101 239 101 244 101 244.5 101 245 102.35 246.65 102.05 250 102 250.5 102 251 102 251.5 102 252 102.5 252.5 103.1 252.8 103.5 253 104 253 104 252.5 104 252 104.65 224.35 104 207 Z" stroke="none" fill="#EFB649"></path>

<path d="M 103 207
Q 103.5 207 104 207 104 206.5 104 206 104 202.5 104 199 103.5 199 103.45 199.1 102 205 101 211 101.5 211.5 101.8 212.1 102 212.5 102 213 102.5 213 103 213 103 212.5 103 212 103 209.5 103 207 Z" stroke="none" fill="#A2640B"></path>

<path d="M 106 183
Q 105.5 183 105 183 104.5 183 104 183 104 190.5 104 198 104 198.5 104 199 106.25 192.75 106 184 106 183.5 106 183 Z" stroke="none" fill="#AB6E12"></path>

<path d="M 94 191
Q 93.5 191 93 191 92.5 191 92 191 92 191.5 92 192 92 192.5 92 193 92 199.5 92 206 92 206.5 92 207 95.1 202.7 94.05 192 94 191.5 94 191 Z" stroke="none" fill="#726C59"></path>

<path d="M 94 183
Q 97.3 181.8 96.1 176 96 175.5 96 175 95.5 175 95 175 94.5 175 94 175 94 178.5 94 182 94 182.5 94 183 Z" stroke="none" fill="#646251"></path>

<path d="M 98 159
Q 97.5 159 97 159 96.5 159 96 159 96 161.5 96 164 96 164.5 96 165 99.2 164.7 98.1 160 98 159.5 98 159 Z" stroke="none" fill="#6A6251"></path>

<path d="M 108.05 166
Q 108 165.5 108 165 107.5 165 107 165 107 168.5 107 172 107 172.5 107 173 108.75 170.75 108.05 166 Z" stroke="none" fill="#AF7A2C"></path>

<path d="M 110 148
Q 109.5 148 109 148 109 152.5 109 157 109 157.5 109 158 110.75 154.75 110.05 149 110 148.5 110 148 Z" stroke="none" fill="#CB8E36"></path>

<path d="M 110 146
Q 109.5 146 109.1 145.8 108.5 145.5 108 145 108 152 108.5 158.95 108.5 159 109 159 109 158.5 109 158 109 157.5 109 157 109 152.5 109 148 109.5 148 110 148 110 147.5 110 147 110 146.5 110 146 Z" stroke="none" fill="#A5680E"></path>

<path d="M 112 129
L 111.5 129
Q 111.65 131.15 110 131 110 136 110 141 110 141.5 110 142 111.2 136.2 111.95 130 112 129.5 112 129 Z" stroke="none" fill="#A76B11"></path>

<path d="M 98 147
Q 101.1 147.1 100.1 142.95 100 142.5 100 142 99.5 142 99 142 98.5 142 98 142 98 144 98 146 98 146.5 98 147 Z" stroke="none" fill="#626455"></path>

<path d="M 102.1 118
Q 102 117.5 102 117 101.5 117 101 117 100.5 117 100 117 100 121.5 100 126 100 126.5 100 127 103.35 124.85 102.1 118 Z" stroke="none" fill="#616354"></path>

<path d="M 104.1 108
Q 104 107.5 104 107
L 103.5 107
Q 103.65 109.15 102 109 102 110.5 102 112 102 112.5 102 113 105.2 112.7 104.1 108 Z" stroke="none" fill="#686454"></path>

<path d="M 123 89
Q 123.5 89.5 123.8 90.1 124 90.5 124 91 124 91.5 124 92 132.8 81.8 148.05 78.1 148.5 78 149 78
L 149 77.5
Q 132.4 79.4 123 89 Z" stroke="none" fill="#A66A0D"></path>

<path d="M 123.75 92.75
Q 124 92.5 124 92 124 91.5 124 91 123.5 91 123.2 91.25 112.95 98.95 111 115 112.55 117.95 112.5 123
L 113 123
Q 113 122.5 113 122 113 119.5 113 117 114.15 113.65 114.9 110 115 109.5 115 109 115 108.5 115 108 115 107.5 115 107 118.15 98.65 123.75 92.75 Z" stroke="none" fill="#A86B0E"></path>

<path d="M 138 69
Q 137.5 69 137 69 135.5 69 134 69 134 69.5 134 70 134 70.5 134 71 137.2 71.7 137.85 69.95 138 69.5 138 69 Z" stroke="none" fill="#646354"></path>

<path d="M 142 67
Q 142 67.5 142 68 142 68.5 142 69 145.5 69 147.8 67.65 148 67.5 148 67 147.5 67 147 67 144.5 67 142 67 Z" stroke="none" fill="#676351"></path>

<path d="M 313 191
Q 313 191.5 312.95 192 312 208.5 309 223 309 224.5 309 226 309 226.5 309 227 309.5 227 310 227 310 226.5 310 226 314.65 211.15 313.5 191.05 313.5 191 313 191 Z" stroke="none" fill="#A4670B"></path>

<path d="M 318 142
Q 318.5 142 318.5 141.95 319.75 132.75 318 126 318 133.5 318 141 318 141.5 318 142 Z" stroke="none" fill="#CB8E37"></path>

<path d="M 316.4 120.8
Q 316.5 121 317 121 317 120.5 317 120 317.5 120 318 120 318 119.5 317.9 119.05 316.15 111.85 310 109 313.45 114.55 316.4 120.8 Z" stroke="none" fill="#B2721F"></path>

<path d="M 318.25 120.75
Q 318 120.5 318 120 317.5 120 317 120 317 120.5 317 121 316.8 123.7 317.75 125.15 318 125.5 318 126 319.75 132.75 318.5 141.95 318.5 142 318 142 318 142.5 317.95 143 316.7 159.7 314 175 314 178.5 314 182 314 182.5 314 183 317.55 174.55 319.9 160 320 159.5 320 159 320 146.69609375 320.95 136.8 320.069921875 131.380859375 321.25 130.25 321.5 130 322 130 322.3 124.95 318.25 120.75 Z" stroke="none" fill="#A86715"></path>

<path d="M 234 75
Q 234 74.5 233.75 74.3 231.25 72.25 226 73 227.2 76.3 233 75.1 233.5 75 234 75 Z" stroke="none" fill="#666353"></path>

<path d="M 220 83
Q 219.5 83 219 83 215.5 83 212 83 214.25 84.75 219 84.05 219.5 84 220 84 220 83.5 220 83 Z" stroke="none" fill="#C2882A"></path>

<path d="M 212 83
Q 212 82.5 211.8 82.35 208.25 80.25 202 81 206.2 82.3 211 82.95 211.5 83 212 83 Z" stroke="none" fill="#A4660A"></path>

<path d="M 218 73
Q 218 72.5 217.75 72.3 215.25 70.25 210 71 211.2 74.3 217 73.1 217.5 73 218 73 Z" stroke="none" fill="#606456"></path>

<path d="M 163 77
Q 163.5 77 164 77 164 76.5 163.85 76.45 159.35 75.15 154 75 154 75.5 154 76 154 76.5 154 77 158.5 77 163 77 Z" stroke="none" fill="#9F6112"></path>

<path d="M 170 78.1
Q 170.5 78 171 78 178.7 79.3 187 79.95 187.5 80 188 80 188.5 80 188.5 79.9 189.15 76.6 166 77 166.8 78.7 170 78.1 Z" stroke="none" fill="#A5670E"></path>

<path d="M 170.9 78.55
Q 171 78.5 171 78 170.5 78 170 78.1 166.8 78.7 166 77 165.5 77 165 77 164.5 77 164 77 163.5 77 163 77 158.5 77 154 77 153.5 77 153.15 77.25 151.7 78.2 149 78 148.5 78 148.05 78.1 132.8 81.8 124 92 124 92.5 123.75 92.75 118.15 98.65 115 107 115 107.5 115 108 115 108.5 115 109 124.55 92.05 141.8 82.6 142 82.5 142 82 147.05 81.85 151.8 79.6 152 79.5 152 79 162.4 80.6 170.9 78.55 Z" stroke="none" fill="#F4BF55"></path>

<path d="M 165 67
Q 165 66.5 164.75 66.3 162.2 64.3 152 65 152 65.5 152 66 152 66.5 152 67 158 67 164 67 164.5 67 165 67 Z" stroke="none" fill="#5F6356"></path>

<path d="M 186 69
Q 187.85 71.65 193 71.05 193.5 71 194 71 194 70.5 193.75 70.3 191.25 68.25 186 69 Z" stroke="none" fill="#696351"></path>

<path d="M 183 69
Q 183 68.5 182.75 68.3 180.2 66.3 170 67 174.9 69.1 182 69 182.5 69 183 69 Z" stroke="none" fill="#636353"></path>

<path d="M 296 95
Q 295.5 95 295 95 294.5 95 294 95 302.3 100.2 308.75 107.25 309 107.5 309 108 309.5 108 309.5 107.95 310.15 98.65 296 95 Z" stroke="none" fill="#AC6C16"></path>

<path d="M 292 83
Q 292 82.5 291.85 82.05 291.2 80.3 288 81 287.6 83.9 291.05 83.1 291.5 83 292 83 Z" stroke="none" fill="#686351"></path>

<path d="M 273.1 88.8
Q 270.1 87.45 265 88 265 88.5 265 89 281.3 89.7 293.1 94.8 293.5 95 294 95 294.5 95 295 95 295.5 95 296 95 296 94.5 295.75 94.3 288.95 88.35 279 87 278.5 87 278.3 87.25 276.8 89.25 274 89 273.5 89 273.1 88.8 Z" stroke="none" fill="#A66612"></path>

<path d="M 266 79
Q 266 78.5 265.75 78.3 263.25 76.25 258 77 259.2 80.3 265 79.1 265.5 79 266 79 Z" stroke="none" fill="#666454"></path>

<path d="M 276 79
Q 275.6 81.9 279.05 81.1 279.5 81 280 81 280 80.5 279.85 80.05 279.2 78.3 276 79 Z" stroke="none" fill="#656352"></path>

<path d="M 258 88
Q 259.3 89.7 263 89.1 263.5 89 264 89 264 88.5 263.75 88.2 262.2 86.25 258 87 258 87.5 258 88 Z" stroke="none" fill="#A46512"></path>

<path d="M 258 87
Q 257.5 87 257 87 253.5 87 250 87 252.25 88.75 257 88.05 257.5 88 258 88 258 87.5 258 87 Z" stroke="none" fill="#AE711C"></path>

<path d="M 248 87
Q 247.5 87 247 86.95 233.65 85.35 220 84 219.5 84 219 84.05 214.25 84.75 212 83 211.5 83 211 82.95 206.2 82.3 202 81 201.5 81 201 81.05 193.25 81.75 188 80 187.5 80 187 79.95 178.7 79.3 171 78 171 78.5 170.9 78.55 162.4 80.6 152 79 152 79.5 151.8 79.6 147.05 81.85 142 82 142 82.5 141.8 82.6 124.55 92.05 115 109 115 109.5 114.9 110 114.15 113.65 113 117 113 119.5 113 122 113 122.5 113 123 113 123.5 113.1 124 113.7 126.7 112 127 112 127.5 112 128 112 128.5 112 129 112 129.5 111.95 130 111.2 136.2 110 142 110 143.5 110 145 110 145.5 110 146 110 146.5 110 147 110 147.5 110 148 110 148.5 110.05 149 110.75 154.75 109 158 109 158.5 109 159 109 159.5 109.1 160 109.7 163.7 108 165 108 165.5 108.05 166 108.75 170.75 107 173 107 173.5 107.05 174 107.75 179.25 106 182 106 182.5 106 183 106 183.5 106 184 106.25 192.75 104 199 104 202.5 104 206 104 206.5 104 207 104.65 224.35 104 252 104 252.5 104 253 104 254 104 255 104 255.5 104 256 110 265 117.25 272.75 117.5 273 118 273 118 272.5 118 272 118 271.5 118 271 122.1 272.4 120.75 273.75 120.5 274 120 274 121.95 276.55 125.05 277.8 125.5 278 126 278 126 277.5 126.25 277.35 135.25 271.65 125 266 135.45 262.35 135.5 271
L 136 271
Q 136.4 261.6 144 266.5
L 144 266
Q 148.85 264.5 152.25 267.75 152.5 268 153 268 148.6 261.85 155.8 265.4 156 265.5 156 266 154.6 271.95 158.75 266.8 159 266.5 159 266 166.85 261.9 165.5 267.9 165.5 268 165 268 170.05 268.9 172.8 267.6 173 267.5 173 267 177.4 264 185.05 265.9 185.5 266 186 266 190.9 267.3 195.75 271.3 196 271.5 196 272 201.35 274.35 203 266.5
L 203 267
Q 204.85 268.05 208.35 273.8 208.5 274 209 274 220.85 272.6 218.5 267
L 219 267
Q 226.75 266.65 220.5 271
L 221 271
Q 228.65 270.45 233.9 269.5 234 269.5 234 269 239.85 271.3 245 274.5
L 245 274
Q 251.5 275.9 256 273.5
L 256 274
Q 255.9 275.75 262 275.5
L 262 276
Q 262.5 276.85 270.5 283
L 270 283
Q 273.35 286 279.9 287.5 280 287.5 280 288 274.55 291.7 267.15 294.45 267 294.5 267 295 268 295 268.8 295.4 269 295.5 269 296 286.4 291.9 295.75 279.8 296 279.5 296 279 295.5 279 295.3 279.25 293.8 281.15 294 277 297.8 270.5 298.9 275.05 299 275.5 299 276 299.5 276 300 276 300 275.5 300 275 300 274.5 300 274 304.15 269.15 305.5 261.1 305.5 261 306 261 306 260.5 306 260 306 259 306 258 306 257.5 306 257 306 255 306 253 308.4 241.4 309 228 309 227.5 309 227 309 226.5 309 226 309 224.5 309 223 312 208.5 312.95 192 313 191.5 313 191 313 190.5 313 190 313 187.5 313 185 313.5 184.5 313.8 183.9 314 183.5 314 183 314 182.5 314 182 314 178.5 314 175 316.7 159.7 317.95 143 318 142.5 318 142 318 141.5 318 141 318 133.5 318 126 318 125.5 317.75 125.15 316.8 123.7 317 121 316.5 121 316.4 120.8 313.45 114.55 310 109 309.5 109 309.25 108.75 309 108.5 309 108 309 107.5 308.75 107.25 302.3 100.2 294 95 293.5 95 293.1 94.8 281.3 89.7 265 89 264.5 89 264 89 263.5 89 263 89.1 259.3 89.7 258 88 257.5 88 257 88.05 252.25 88.75 250 87 249.5 87 249 87 248.5 87 248 87
M 284 96
Q 284.5 96 284.95 96.15 295.25 99.3 301 107 301 107.5 301.15 107.95 303 114 302 118
L 302 117.5
Q 297.65 119.15 293 121 292.5 121 292 120.9 262.85 114.45 228 112 227.5 112 227 111.95 177 106.95 136 94 143.9 78.6 167.9 82.5 168 82.5 168 83 226.45 88.55 283 95.95 283.5 96 284 96
M 185.05 120.15
Q 185.5 120 186 120 186 119.5 186 119 190 119 193.95 119.5 194 119.5 194 120 246.45 128.05 257.9 177.05 258 177.5 258 178 258.5 178 258.75 178.25 259 178.5 259 179 260.75 182.25 259.5 187.9 259.5 188 259 188 259 188.5 259.1 189 259.7 192.7 258 194 258 194.5 257.9 194.95 254.3 209.3 245 218 245 218.5 245 219 245.5 219 245.5 219.05 245.8 222.8 242 223 241.5 223 241.3 223.25 239.8 225.3 237 226 237 226.5 237 227
L 237.5 227
Q 236.4 232.7 232 231 231.5 231 231 231 231 231.5 231 232 231.5 232 231.5 232.1 232.35 235.95 227 235 226.5 235 226 235 226 235.5 226.15 235.95 227.5 239.6 217 241 216.5 241 216 241 216 241.5 215.8 241.95 214.25 245.75 208 245 208 245.5 207.85 245.55 201.25 247.75 192 247 192 247.5 191.9 247.5 186.25 248.75 183 247 182.5 247 182 247.1 179.35 247.65 180 245 180 244.5 180 244 180 243.5 180 243 180 242.5 179.8 242.15 178.65 240.35 178 238 177.5 238 177.5 237.95 177 234.5 177 231
L 176.5 231
Q 176 196.5 176 162 176 161.5 176 161 176 157.5 176 154 176 153.5 176 153 176 150 176 147 175.5 147 175.45 146.9 175 145 175 143 174.5 143 174.5 142.95 174 138 174 133 174.5 133 175 133 175 132.5 175 132 175 131 175 130 175.5 130 176 130 176 129.5 176 129 178.25 122.25 185.05 120.15
M 108.25 255.65
Q 108 255.5 108 255 119.5 263.2 108.25 255.65
M 274 282
Q 280.65 283.2 274.05 282.5 274 282.5 274 282
M 218 245.5
L 218 245
Q 228.75 245.95 218 245.5
M 197.75 254.25
Q 198 254.5 198 255 200 258.9 193.8 254.25 193.5 254 193 254 185.1 255.2 182.25 252.7 182 252.5 182 252 191.9 248.8 197.75 254.25
M 195 266
Q 204.1 270.65 195.2 266.6 195 266.5 195 266
M 208 269.5
L 208 269
Q 219.35 269.9 208 269.5 Z" stroke="none" fill="#F8C640"></path>

<path d="M 208 269
L 208 269.5
Q 219.35 269.9 208 269
M 195.2 266.6
Q 204.1 270.65 195 266 195 266.5 195.2 266.6 Z" stroke="none" fill="#F8D83E"></path>

<path d="M 198 255
Q 198 254.5 197.75 254.25 191.9 248.8 182 252 182 252.5 182.25 252.7 185.1 255.2 193 254 193.5 254 193.8 254.25 200 258.9 198 255
M 218 245
L 218 245.5
Q 228.75 245.95 218 245
M 108 255
Q 108 255.5 108.25 255.65 119.5 263.2 108 255 Z" stroke="none" fill="#F6D737"></path>

<path d="M 274.05 282.5
Q 280.65 283.2 274 282 274 282.5 274.05 282.5 Z" stroke="none" fill="#F9D840"></path>

<path d="M 192 247
Q 191.5 247 191 247 187 247 183 247 186.25 248.75 191.9 247.5 192 247.5 192 247 Z" stroke="none" fill="#F2D56A"></path>

<path d="M 180 244
Q 180 244.5 180 245 181.65 246.35 185 246.05 185.5 246 186 246 186 245.5 185.95 245.5 181.75 245.25 180 243 180 243.5 180 244 Z" stroke="none" fill="#997C35"></path>

<path d="M 178 215
Q 177.5 215 177 215 177 222.5 177 230 177 230.5 177 231 177 234.5 177.5 237.95 177.5 238 178 238 178 237.5 178 237 178 226 178 215 Z" stroke="none" fill="#3A1E04"></path>

<path d="M 231.5 232.1
Q 231.5 232 231 232 230.5 232 230.25 232.25 229 233.5 227 234 227 234.5 227 235 232.35 235.95 231.5 232.1 Z" stroke="none" fill="#D7BD64"></path>

<path d="M 237.5 227
L 237 227
Q 236.5 227 236.4 227.2 235.2 229.7 232 230 232 230.5 232 231 236.4 232.7 237.5 227 Z" stroke="none" fill="#D6BA6E"></path>

<path d="M 217 240
Q 217 240.5 217 241 227.5 239.6 226.15 235.95 226 235.5 226 235 225.5 235 225.2 235.25 221.75 238.25 217 240 Z" stroke="none" fill="#D7BD6B"></path>

<path d="M 208 244
Q 208 244.5 208 245 214.25 245.75 215.8 241.95 216 241.5 216 241 215.5 241 215.2 241.25 212.85 243.35 209 244 208.5 244 208 244 Z" stroke="none" fill="#D6BC6B"></path>

<path d="M 207.85 245.55
Q 208 245.5 208 245 207.5 245 207.05 245.15 200.25 247.15 194 244 193.5 244 193.35 244.25 191.5 247 186 246 185.5 246 185 246.05 181.65 246.35 180 245 179.35 247.65 182 247.1 182.5 247 183 247 187 247 191 247 191.5 247 192 247 201.25 247.75 207.85 245.55 Z" stroke="none" fill="#D7BD73"></path>

<path d="M 245 219
Q 244.5 219 244.4 219.2 243.7 220.7 242 221 242 221.5 242 222 242 222.5 242 223 245.8 222.8 245.5 219.05 245.5 219 245 219 Z" stroke="none" fill="#CCB164"></path>

<path d="M 259 187
Q 259 187.5 259 188 259.5 188 259.5 187.9 260.75 182.25 259 179 259 183 259 187 Z" stroke="none" fill="#E4C473"></path>

<path d="M 259 179
Q 259 178.5 258.75 178.25 258.5 178 258 178 258 185.5 258 193 258 193.5 258 194 259.7 192.7 259.1 189 259 188.5 259 188 259 187.5 259 187 259 183 259 179 Z" stroke="none" fill="#674A0A"></path>

<path d="M 178 190
Q 178 189.5 178.05 189 178.75 181.25 177 176 177 195 177 214 177 214.5 177 215 177.5 215 178 215 178 214.5 178 214 178 202 178 190 Z" stroke="none" fill="#583A00"></path>

<path d="M 177 162
Q 176.5 162 176 162 176 196.5 176.5 231
L 177 231
Q 177 230.5 177 230 177 222.5 177 215 177 214.5 177 214 177 195 177 176 177 175.5 177 175 177 168.5 177 162 Z" stroke="none" fill="#D7BC71"></path>

<path d="M 177 162
Q 177 161.5 177.05 161 177.75 156.25 176 154 176 157.5 176 161 176 161.5 176 162 176.5 162 177 162 Z" stroke="none" fill="#7E643D"></path>

<path d="M 175 133
Q 174.5 133 174 133 174 138 174.5 142.95 174.5 143 175 143 175 142.5 175 142 175 137.5 175 133 Z" stroke="none" fill="#DAB96F"></path>

<path d="M 175 132
Q 175 132.5 175 133 175 137.5 175 142 175 142.5 175 143 175 145 175.45 146.9 175.5 147 176 147 176 146.5 176 146 176 138 176 130 175.5 130 175 130 175 131 175 132 Z" stroke="none" fill="#9E701C"></path>

<path d="M 186 120
Q 189.5 120 193 120 193.5 120 194 120 194 119.5 193.95 119.5 190 119 186 119 186 119.5 186 120 Z" stroke="none" fill="#A27B30"></path>

<path d="M 239 145
Q 238.5 145 238.1 144.8 227 138.5 218 130
L 218 129.5
Q 211.35 131.9 205 125 204.5 125 204 125 194.3 124.55 192 123 191.5 123 191.05 123.1 182.55 125.05 178 131 179.75 140.1 178.15 144.05 178 144.5 178 145 181.283203125 150.8203125 179 160.4 179.4244140625 167.8630859375 178.5 190
L 178 190
Q 178 202 178 214 178 214.5 178 215 178 226 178 237 178 237.5 178 238 178.65 240.35 179.8 242.15 180 242.5 180 243 181.75 245.25 185.95 245.5 186 245.5 186 246 191.5 247 193.35 244.25 193.5 244 194 244 200.25 247.15 207.05 245.15 207.5 245 208 245 208 244.5 208 244 208.5 244 209 244 209 243.5 209.25 243.15 212.8 237.9 218 235 218 234.5 218.1 234.45 230.35 231.55 238 220 238.5 220 238.85 219.75 244.8 215.6 246 209 246.5 209 246.7 208.75 258.35 195.5 257 177 256.5 177 256.35 176.75 250.75 167.95 252 162 252 161.5 251.75 161.3 243.6 154.85 239 145
M 193 133
Q 197.3 133.7 201.9 134.5 202 134.5 202 135 232.95 143.05 240.9 174.05 241 174.5 241 175 242.75 181.25 241.5 189.95 241.5 190 241 190 241 190.5 240.85 190.95 230.8 218.8 204 230 204 230.5 203.9 230.5 197.75 231.75 194 230 194 229.5 194 229 193.5 229 193.5 228.95 193 220.5 193 212 193 211.5 193 211 193 206 193 201 193 200.5 193 200 193 197 193 194
L 192.5 194
Q 192 179.5 192 165 192 164.5 192 164 192 158.5 192 153 192 152.5 192 152 192 149 192 146 191.5 146 191.5 145.95 191 140 191 134 191.5 134 192 134 192 133.5 192 133 192.5 133 193 133 Z" stroke="none" fill="#100505"></path>

<path d="M 194 222
Q 194 217 194 212 193.5 212 193 212 193 220.5 193.5 228.95 193.5 229 194 229 194 228.5 194 228 194 225.5 194 223 194 222.5 194 222 Z" stroke="none" fill="#462F01"></path>

<path d="M 194 201
Q 193.5 201 193 201 193 206 193 211 193 211.5 193 212 193.5 212 194 212 194 211.5 194 211 194 206 194 201 Z" stroke="none" fill="#6B4F1F"></path>

<path d="M 204 230
Q 203.5 230 203 230 198.5 230 194 230 197.75 231.75 203.9 230.5 204 230.5 204 230 Z" stroke="none" fill="#725C06"></path>

<path d="M 241 190
Q 241.5 190 241.5 189.95 242.75 181.25 241 175 241 182 241 189 241 189.5 241 190 Z" stroke="none" fill="#9A7416"></path>

<path d="M 209 196
L 209.5 196
Q 201.9 191.15 194 198 194 199 194 200 194 200.5 194 201 194 206 194 211 194 211.5 194 212 194 217 194 222 194 222.5 194 223 194.5 223 195 223 197.6 223.1 201 227 201.5 227 201.95 226.85 214.7 222.7 209 221
L 208.5 221
Q 212.35 216.45 220 216 220 215.5 220.25 215.25 227.15 207.9 236 194 235.5 194 235 193.95 229.7 193.2 223 193
L 222.5 193
Q 227.25 195.5 227 198 227 197.5 226.85 197.45 223.25 196.35 213 194 213 194.5 213.25 194.8 219.7 202.85 209 196 Z" stroke="none" fill="#F8CA3D"></path>

<path d="M 194 189
Q 193.5 189 193 189 193 191 193 193 193 193.5 193 194 193 197 193 200 193 200.5 193 201 193.5 201 194 201 194 200.5 194 200 194 199 194 198 194 197.5 194 197 194 193 194 189 Z" stroke="none" fill="#907239"></path>

<path d="M 194 178
Q 193.5 178 193 178 193 183 193 188 193 188.5 193 189 193.5 189 194 189 194 188.5 194 188 194 183 194 178 Z" stroke="none" fill="#B9A156"></path>

<path d="M 194 178
Q 194 177.5 194.05 177 194.75 170.75 193 167 193 172 193 177 193 177.5 193 178 193.5 178 194 178 Z" stroke="none" fill="#E3C474"></path>

<path d="M 193 167
Q 193 166.5 193 166 193 165.5 193 165 192.5 165 192 165 192 179.5 192.5 194
L 193 194
Q 193 193.5 193 193 193 191 193 189 193 188.5 193 188 193 183 193 178 193 177.5 193 177 193 172 193 167 Z" stroke="none" fill="#462900"></path>

<path d="M 192 164
Q 192 164.5 192 165 192.5 165 193 165 193 164.5 193 164 193 158.5 193 153 192.5 153 192 153 192 158.5 192 164 Z" stroke="none" fill="#6A4B03"></path>

<path d="M 192 145
Q 192 145.5 192 146 192 149 192 152 192 152.5 192 153 192.5 153 193 153 193 152.5 193 152 193 147 193 142 192.5 142 192 142 192 143.5 192 145 Z" stroke="none" fill="#8F6E0B"></path>

<path d="M 192 133
Q 192 133.5 192 134 192 137.5 192 141 192 141.5 192 142 192.5 142 193 142 193 141.5 193 141 193 139.5 193 138 193 137.5 193 137 193 135 193 133 192.5 133 192 133 Z" stroke="none" fill="#A98430"></path>

<path d="M 192 134
Q 191.5 134 191 134 191 140 191.5 145.95 191.5 146 192 146 192 145.5 192 145 192 143.5 192 142 192 141.5 192 141 192 137.5 192 134 Z" stroke="none" fill="#372405"></path>

<path d="M 202 135
Q 201.5 135 201 134.9 194.3 133.8 193 138 193 139.5 193 141 193 141.5 193 142 193 147 193 152 193 152.5 193 153 193 158.5 193 164 193 164.5 193 165 193 165.5 193 166 193 166.5 193 167 194.75 170.75 194.05 177 194 177.5 194 178 194 183 194 188 194 188.5 194 189 194 193 194 197 194 197.5 194 198 201.9 191.15 209.5 196
L 209 196
Q 219.7 202.85 213.25 194.8 213 194.5 213 194 223.25 196.35 226.85 197.45 227 197.5 227 198 227.25 195.5 222.5 193
L 223 193
Q 229.7 193.2 235 193.95 235.5 194 236 194 227.15 207.9 220.25 215.25 220 215.5 220 216 212.35 216.45 208.5 221
L 209 221
Q 214.7 222.7 201.95 226.85 201.5 227 201 227 197.6 223.1 195 223 194.5 223 194 223 194 225.5 194 228 194 228.5 194 229 194 229.5 194 230 198.5 230 203 230 203.5 230 204 230 230.8 218.8 240.85 190.95 241 190.5 241 190 241 189.5 241 189 241 182 241 175 241 174.5 240.9 174.05 232.95 143.05 202 135
M 234.25 179.85
Q 234 179.5 234 179 242.4 182.2 236 192.5
L 236 192
Q 237.7 184.9 234.25 179.85
M 226 190
Q 236.45 190.65 226 190.5
L 226 190 Z" stroke="none" fill="#F4C142"></path>

<path d="M 226 190.5
Q 236.45 190.65 226 190
L 226 190.5 Z" stroke="none" fill="#F9CA3E"></path>

<path d="M 234 179
Q 234 179.5 234.25 179.85 237.7 184.9 236 192
L 236 192.5
Q 242.4 182.2 234 179 Z" stroke="none" fill="#F7CA39"></path>

<path d="M 201 134.9
Q 201.5 135 202 135 202 134.5 201.9 134.5 197.3 133.7 193 133 193 135 193 137 193 137.5 193 138 194.3 133.8 201 134.9 Z" stroke="none" fill="#C3A865"></path>

<path d="M 238.1 144.8
Q 238.5 145 239 145 243.6 154.85 251.75 161.3 252 161.5 252 162 250.75 167.95 256.35 176.75 256.5 177 257 177 258.35 195.5 246.7 208.75 246.5 209 246 209 244.8 215.6 238.85 219.75 238.5 220 238 220 230.35 231.55 218.1 234.45 218 234.5 218 235 212.8 237.9 209.25 243.15 209 243.5 209 244 212.85 243.35 215.2 241.25 215.5 241 216 241 216.5 241 217 241 217 240.5 217 240 221.75 238.25 225.2 235.25 225.5 235 226 235 226.5 235 227 235 227 234.5 227 234 229 233.5 230.25 232.25 230.5 232 231 232 231 231.5 231 231 231.5 231 232 231 232 230.5 232 230 235.2 229.7 236.4 227.2 236.5 227 237 227 237 226.5 237 226 239.8 225.3 241.3 223.25 241.5 223 242 223 242 222.5 242 222 242 221.5 242 221 243.7 220.7 244.4 219.2 244.5 219 245 219 245 218.5 245 218 254.3 209.3 257.9 194.95 258 194.5 258 194 258 193.5 258 193 258 185.5 258 178 258 177.5 257.9 177.05 246.45 128.05 194 120 193.5 120 193 120 189.5 120 186 120 185.5 120 185.05 120.15 178.25 122.25 176 129 176 129.5 176 130 176 138 176 146 176 146.5 176 147 176 150 176 153 176 153.5 176 154 177.75 156.25 177.05 161 177 161.5 177 162 177 168.5 177 175 177 175.5 177 176 178.75 181.25 178.05 189 178 189.5 178 190
L 178.5 190
Q 179.4244140625 167.8630859375 179 160.4 181.283203125 150.8203125 178 145 178 144.5 178.15 144.05 179.75 140.1 178 131 182.55 125.05 191.05 123.1 191.5 123 192 123 194.3 124.55 204 125 204.5 125 205 125 211.35 131.9 218 129.5
L 218 130
Q 227 138.5 238.1 144.8 Z" stroke="none" fill="#2D1101"></path>

<path d="M 284.25 96.65
Q 284 96.5 284 96 283.5 96 283 95.95 226.45 88.55 168 83 167.5 83 167 82.95 158.3 82.3 152 84 180.25 91.85 217 92 217.5 92 218 92 226.5 96.3 239 97.95 239.5 98 240 98 267.5 103.2 291.95 101.5 292 101.5 292 101 287.8 99.2 284.25 96.65 Z" stroke="none" fill="#FEE271"></path>

<path d="M 284.95 96.15
Q 284.5 96 284 96 284 96.5 284.25 96.65 287.8 99.2 292 101 292 101.5 291.95 101.5 267.5 103.2 240 98 239.5 98 239 97.95 226.5 96.3 218 92 217.5 92 217 92 180.25 91.85 152 84 158.3 82.3 167 82.95 167.5 83 168 83 168 82.5 167.9 82.5 143.9 78.6 136 94 177 106.95 227 111.95 227.5 112 228 112 262.85 114.45 292 120.9 292.5 121 293 121 297.65 119.15 302 117.5
L 302 118
Q 303 114 301.15 107.95 301 107.5 301 107 295.25 99.3 284.95 96.15 Z" stroke="none" fill="#FED461"></path>

<path d="M 247 86.95
Q 247.5 87 248 87 248 86.5 247.85 86.45 235.6 82.9 220 83 220 83.5 220 84 233.65 85.35 247 86.95 Z" stroke="none" fill="#A3660F"></path>

<path d="M 252 77
Q 252 76.5 252.25 76.35 255.05 74.5 242 75 244.15 78.35 251 77.1 251.5 77 252 77
M 326.1 190
Q 326 189.5 326 189
L 325.5 189
Q 325.65 191.15 324 191 324 193.5 324 196 324 196.5 324 197 327.3 195.8 326.1 190 Z" stroke="none" fill="#5F6253"></path>

<path d="M 328.1 164
Q 328 163.5 328 163 327.5 163 327 163 326.5 163 326 163 326 166.5 326 170 326 170.5 326 171 329.3 169.8 328.1 164 Z" stroke="none" fill="#676250"></path>

<path d="M 330 151
L 329.5 151
Q 329.65 153.15 328 153 328 155.5 328 158 328 158.5 328 159 331.3 157.8 330.1 152 330 151.5 330 151 Z" stroke="none" fill="#69604F"></path>

<path d="M 330 127
Q 330 126.5 330.1 126.05 330.95 122.6 328 123 327.3 126.2 329.05 126.85 329.5 127 330 127 Z" stroke="none" fill="#5F6252"></path>

<path d="M 328 123
Q 328 122.5 327.85 122.05 318.95 93.55 292 83 291.5 83 291.05 83.1 287.6 83.9 288 81 287.5 81 287 81 283.5 81 280 81 279.5 81 279.05 81.1 275.6 81.9 276 79 275.5 79 275 79 270.5 79 266 79 265.5 79 265 79.1 259.2 80.3 258 77 257.5 77 257 77 254.5 77 252 77 251.5 77 251 77.1 244.15 78.35 242 75 241.5 75 241 75 237.5 75 234 75 233.5 75 233 75.1 227.2 76.3 226 73 225.5 73 225 73 221.5 73 218 73 217.5 73 217 73.1 211.2 74.3 210 71 209.5 71 209 71 201.5 71 194 71 193.5 71 193 71.05 187.85 71.65 186 69 185.5 69 185 69 184 69 183 69 182.5 69 182 69 174.9 69.1 170 67 169.5 67 169 67 167 67 165 67 164.5 67 164 67 158 67 152 67 151.5 67 151 67 149.5 67 148 67 148 67.5 147.8 67.65 145.5 69 142 69 141.5 69 141 69 139.5 69 138 69 138 69.5 137.85 69.95 137.2 71.7 134 71 133.5 71 133.15 71.25 116.25 82.75 104 103 104 104.5 104 106 104 106.5 104 107 104 107.5 104.1 108 105.2 112.7 102 113 102 114.5 102 116 102 116.5 102 117 102 117.5 102.1 118 103.35 124.85 100 127 100 134 100 141 100 141.5 100 142 100 142.5 100.1 142.95 101.1 147.1 98 147 98 152.5 98 158 98 158.5 98 159 98 159.5 98.1 160 99.2 164.7 96 165 96 169.5 96 174 96 174.5 96 175 96 175.5 96.1 176 97.3 181.8 94 183 94 186.5 94 190 94 190.5 94 191 94 191.5 94.05 192 95.1 202.7 92 207 92 210.5 92 214 92 214.5 92 215 92 215.5 92.1 216 93.3 221.8 90 223 90 237 90 251 90 251.5 90 252 95.15 249.9 99.8 252.4 100 252.5 100 253 100.5 253 101 253 101.5 253 102 253 102 252.5 102 252 102 251.5 102 251 101.5 251 101.3 250.75 99.75 248.75 99 246 99.5 246 99.75 245.75 100 245.5 100 245 100 244.5 100 244 100 239 100 234 100 233.5 100.05 233 100.55 228.45 99 226 100 223.5 101.35 221.2 101.5 221 102 221 102 220.5 102 220 102 216.5 102 213 102 212.5 101.8 212.1 101.5 211.5 101 211 102 205 103.45 199.1 103.5 199 104 199 104 198.5 104 198 104 190.5 104 183 104.5 183 105 183 105.5 183 106 183 106 182.5 106 182 107.75 179.25 107.05 174 107 173.5 107 173 107 172.5 107 172 107 168.5 107 165 107.5 165 108 165 109.7 163.7 109.1 160 109 159.5 109 159 108.5 159 108.5 158.95 108 152 108 145 108.5 145.5 109.1 145.8 109.5 146 110 146 110 145.5 110 145 110 143.5 110 142 110 141.5 110 141 110 136 110 131 111.65 131.15 111.5 129
L 112 129
Q 112 128.5 112 128 112 127.5 112 127 113.7 126.7 113.1 124 113 123.5 113 123
L 112.5 123
Q 112.55 117.95 111 115 112.95 98.95 123.2 91.25 123.5 91 124 91 124 90.5 123.8 90.1 123.5 89.5 123 89 132.4 79.4 149 77.5
L 149 78
Q 151.7 78.2 153.15 77.25 153.5 77 154 77 154 76.5 154 76 154 75.5 154 75 159.35 75.15 163.85 76.45 164 76.5 164 77 164.5 77 165 77 165.5 77 166 77 189.15 76.6 188.5 79.9 188.5 80 188 80 193.25 81.75 201 81.05 201.5 81 202 81 208.25 80.25 211.8 82.35 212 82.5 212 83 215.5 83 219 83 219.5 83 220 83 235.6 82.9 247.85 86.45 248 86.5 248 87 248.5 87 249 87 249.5 87 250 87 253.5 87 257 87 257.5 87 258 87 262.2 86.25 263.75 88.2 264 88.5 264 89 264.5 89 265 89 265 88.5 265 88 270.1 87.45 273.1 88.8 273.5 89 274 89 276.8 89.25 278.3 87.25 278.5 87 279 87 288.95 88.35 295.75 94.3 296 94.5 296 95 310.15 98.65 309.5 107.95 309.5 108 309 108 309 108.5 309.25 108.75 309.5 109 310 109 316.15 111.85 317.9 119.05 318 119.5 318 120 318 120.5 318.25 120.75 322.3 124.95 322 130 321.5 130 321.25 130.25 320.069921875 131.380859375 320.95 136.8 320 146.69609375 320 159 320 159.5 319.9 160 317.55 174.55 314 183 314 183.5 313.8 183.9 313.5 184.5 313 185 313 187.5 313 190 313 190.5 313 191 313.5 191 313.5 191.05 314.65 211.15 310 226 310 226.5 310 227 310 227.5 310.05 228 311.45 245.75 306 258 306 259 306 260 306 260.5 306 261 306 261.5 305.95 262 305.25 273.7 300 276 300 276.5 300 277 299.9 282.7 297 283 297.5 283.5 297.8 284.1 298 284.5 298 285 302 285 305.95 285.5 306 285.5 306 286 306 286.5 306.25 286.75 306.5 287 307 287 307 286.5 307 286 308 281.5 311.15 279.25 311.5 279 312 279 312 278.5 312 278 312 276 312 274 312.5 273.5 313.1 273.2 313.5 273 314 273 314 272.5 314 272 314 270.5 314 269 315.5 268 315.9 266 316 265.5 316 265 316 264.5 316 264 316 260.5 316 257 316.5 257 317 257 317.5 257 318 257 318 256.5 318 256 318 254.5 318 253 318 252.5 318 252 318 245.5 318 239 318.5 239 319 239 319.5 239 320 239 320 238.5 320 238 320 234.5 320 231 320 230.5 320 230 320 226.5 320 223 320.5 223 321 223 321.5 223 322 223 322 222.5 322 222 322 214.5 322 207 325.35 204.85 324.1 198 324 197.5 324 197 324 196.5 324 196 324 193.5 324 191 325.65 191.15 325.5 189
L 326 189
Q 326 188.5 326 188 326 179.5 326 171 326 170.5 326 170 326 166.5 326 163 326.5 163 327 163 327.5 163 328 163 328 162.5 328 162 328 160.5 328 159 328 158.5 328 158 328 155.5 328 153 329.65 153.15 329.5 151
L 330 151
Q 330 150.5 330 150 330 138.5 330 127 329.5 127 329.05 126.85 327.3 126.2 328 123 Z" stroke="none" fill="#9B612C"></path>
</g>
</g>
</g>
</g>
</g>
</svg>
