
<svg viewBox="0 0 135 115" height="115px" width="135px" y="0px" x="0px" preserveAspectRatio="none" xmlns:xlink="http://www.w3.org/1999/xlink" version="1.1" xmlns="http://www.w3.org/2000/svg">
<defs></defs>

<g id="Layer_1"></g>

<g id="Layer_2">
<g transform="matrix( 1.05511474609375, 0, 0, 1.0621795654296875, -21.7,43.1)" id="Layer_1">
<g>
<g>
<g>
<path d="M 26 38.55
Q 22.05 39.5 24.2 42.65 24.3 43.4 24.6 44.15 25.5 46.55 27.35 48.1 27.85 48.55 28.4 48.2 31.7 46 34.75 43.4 36.65 42.5 38.5 41.45 39.15 41.1 39.1 40.4 38.9 36.7 34.75 37 30.35 37.45 26 38.55
M 24.4 16
Q 24.2 16 24 16.05 23.3 16.2 23.05 16.85 21.35 20.65 21.6 24.95 21.75 27.05 23.6 28 25.35 28.9 27.4 28.6 29.95 28.15 32.5 28.4 35.85 28.7 36.4 25.9 36.5 25.4 36.1 25.1 32.05 22.45 27.95 19.65 27.85 19.5 27.75 19.4 27.6 19.15 27.35 18.95 27.2 18.8 27.05 18.65 26.8 18.15 26.6 17.6 26.1 16.05 24.4 16
M 76.25 -31.6
Q 70.8 -22.85 67 -13.35 66.15 -11.25 65.15 -9.2 63.962109375 -6.7330078125 65.8 -5.35 64.8404296875 -4.519140625 63.9 -3.6 55.5 4.55 53.85 15.85 53.83046875 15.9814453125 53.8 16.1 53.710546875 16.076953125 53.6 16.05 49.944140625 15.1515625 46.25 14.6 43.9822265625 14.2591796875 41.7 14.05
L 41.7 14.1
Q 41.45 14.1 41.2 14.1 40.7 14.25 40.35 14.6 40.1 14.85 39.95 15.15 39.9 15.2 39.85 15.3 39.75 16.15 39.7 16.95 39.25 21.9 39.5 26.85 40 37.15 45.8 45.7 50.65 52.85 57.8 57.65 66.05 63.2 75.75 65.2 87.85 67.65 100.2 66.2 112.15 64.75 122.7 59.05 133 53.45 139.4 43.85 140.9 41.6 141.8 39.15 143.25 35.25 145.2 31.65 146.95 28.4 147.2 24.85 147.3 23.9 146.45 23.5 142.7380859375 21.732421875 138.6 21 141.5396484375 15.6890625 141.5 9.2 141.5 2.55 140.1 -4 137.85 -14.55 132.35 -23.8 129.45 -28.7 125.8 -33.1 123 -36.45 119.1 -37.55 116.8 -36.95 114.8 -35.5 110.05 -32.1 105.7 -28.1 103.2185546875 -25.83203125 100.95 -23.4 100.58046875 -24.168359375 99.9 -24.9 98.1 -26.9 96.5 -29 93.05 -33.65 88.95 -37.8 86.75 -40.05 83.95 -40.6
L 83.95 -40.55
Q 83.7 -40.55 83.5 -40.5 83.4 -40.5 83.3 -40.5 79.3 -36.45 76.25 -31.6
M 68.95 -7.75
Q 70.2673828125 -9.98828125 71.1 -12.55 72.55 -17.05 74.75 -21.25 78.8 -29.05 84.3 -35.85 91.15 -30.85 95.65 -23.65 96.25 -22.7 96.7 -21.7 97.215625 -20.64296875 98 -20.05 95.134375 -16.5123046875 92.65 -12.65 88.95 -13.55 85.1 -13.2 76.0908203125 -12.4734375 68.95 -7.75
M 109.35 -26.15
Q 114.1 -30.6 119.65 -33.15 128.55 -25.25 132.9 -14.3 134.85 -9.35 136.05 -4.25 137.8 3.35 137.45 11.1 137.35 11.4 137.3 11.65 137.25 11.95 137.2 12.2 137.15 12.35 137.15 12.55 137.15 12.65 137.15 12.75 137.05 12.9 137.05 13.1 137 13.35 136.95 13.65 136.9 13.8 136.9 14 136.9 14.1 136.9 14.15 136.85 14.35 136.85 14.55 136.8 16 136.25 17.3 135.9 18.05 135.65 18.85 135.55 18.95 135.5 19.05 135.3 19.25 135.15 19.55 135.1 19.75 135 19.9 134.95 20 134.9 20.1 134.85 20.2 134.85 20.3 134.8 20.4 134.8 20.45 134.8 20.55 134.75 20.65 134.7 20.75 134.65 20.85 134.6 20.9 134.5 21 134.45 21.1 134.4 21.2 134.1599609375 22.304296875 134.55 22.95 134.3015625 24.29296875 136.3 24.7 139.9 25.45 142.95 26.35 142.85 26.6 142.75 26.9 142.55 27.35 142.4 27.8 142.2 28.4 141.85 28.9 141.65 29.15 141.45 29.4 141.35 30.1 141.05 30.7 140.8146484375 31.170703125 140.6 31.65 139.7259765625 33.51171875 139.05 35.5 137.4 40.6 133.9 44.6 125.15 54.65 112.35 59.15 106.14140625 61.3361328125 99.8 62.25 103.0443359375 60.52421875 105.7 57.7 112.05 51 109.7 42.1 109.5 41.5 108.95 41.25 108.4806640625 41.0734375 108 40.9 109.0810546875 40.8759765625 109.35 39.8 110.3 36.45 107.3 35.25 105.8 35.35 105.5 36.85 105.35 37.8 105.5 38.8 105.6537109375 39.7990234375 106.25 40.3 102.846875 39.2841796875 99.25 38.75 91.05 37.5 82.85 36.2 80.1083984375 35.75625 77.35 35.25 76.94296875 34.4458984375 75.6 34.25 74.9068359375 34.2814453125 74.45 34.7 70.04765625 33.8529296875 65.65 32.85 65.45 32.7 65.3 32.55 64.85 32.15 64.2 32.15 63.9 32.2 63.7 32.4 60.7 34.85 59.05 38.5 57.65 41.7 57.35 45.2 57.309765625 45.697265625 57.3 46.15 57.1841796875 46.5021484375 57.15 46.9 57.10703125 47.2435546875 57.3 47.45 57.536328125 51.078125 59.4 54.1 55.2486328125 51.153515625 51.7 47.15 47.7 42.6 45.55 36.9 44.45 34.1 44.05 31.15 43.6 27.5 43.5 23.75 43.45 21.05 43.45 18.35 44.8591796875 18.486328125 46.25 18.75 49.4486328125 19.3302734375 52.55 20.55 56.1333984375 21.964453125 56.75 18.9 57.2724609375 18.68359375 57.4 17.95 57.85 15 58.8 12.1 59.4189453125 10.1888671875 60.2 8.45 61.023828125 6.6005859375 62 4.9 67.968359375 -4.9375 80.2 -8.4 81.03515625 -8.6404296875 81.85 -8.8 83.3412109375 -9.1068359375 84.8 -9.2 88.66015625 -9.3828125 92.4 -8 93.65 -7.55 94.5 -8.5 95.9 -10 97.1 -11.75 102.35 -19.7 109.35 -26.15
M 84.15 45.85
Q 83.801171875 47.082421875 83.45 48.3 82.8982421875 50.160546875 82.45 52 80.2626953125 51.590625 78.1 51.05 76.6 50.7 75.15 50.2 74.394140625 49.9259765625 73.6 49.65 74.2365234375 46.998828125 75 44.35 79.61015625 45.0693359375 84.15 45.85
M 86.05 40.45
Q 85.76015625 41.273046875 85.45 42.1 82.137109375 41.51640625 78.8 41 77.6052734375 40.8080078125 76.4 40.6 76.6451171875 39.7228515625 76.8 38.8 81.4505859375 39.6029296875 86.05 40.45
M 89.3 42.8
Q 89.57890625 41.978515625 89.85 41.15 93.55078125 41.832421875 97.25 42.55 96.9271484375 43.420703125 96.6 44.3 96.068359375 44.16796875 95.5 44.05 92.4171875 43.4 89.3 42.8
M 100.4 45.3
L 100.4 45.3
Q 100.6888671875 44.2888671875 101.1 43.3 103.7349609375 43.851953125 106.35 44.4 106.558203125 46.087109375 106.3 47.65 103.4419921875 46.304296875 100.4 45.3
M 88.15 46.6
Q 91.8466796875 47.3224609375 95.45 48.25 94.7333984375 50.9615234375 94.25 53.75 90.394140625 53.411328125 86.55 52.8 87.310546875 49.6837890625 88.15 46.6
M 105.2 51.15
Q 105.0220703125 51.5708984375 104.8 51.95 103.6525390625 53.9005859375 102.2 55.4 101.356640625 54.5734375 99.9 54.4 99.0314453125 54.2736328125 98.15 54.15 98.6703125 51.7216796875 99.3 49.3 102.2783203125 50.1658203125 105.2 51.15
M 97.25 59
Q 97.3189453125 58.57890625 97.4 58.15 97.8916015625 58.2689453125 98.35 58.4 97.8208984375 58.7333984375 97.25 59
M 93 59.3
Q 92.702734375 59.869921875 92.55 60.4 91.9201171875 60.5259765625 91.25 60.6 88.0759765625 60.9720703125 84.9 61 85.3078125 58.69140625 85.75 56.4 89.6888671875 57.07265625 93.6 57.6 93.394921875 58.48203125 93 59.3
M 64.65 36.85
Q 65.65 36.8 66.7 37 69.75 37.65 72.85 38.15 72.91953125 38.161328125 73 38.15 72.6814453125 39.03359375 72.35 39.9 68.0634765625 39.1109375 63.8 38.2 64.1869140625 37.522265625 64.65 36.85
M 70.75 44.6
Q 70.128125 46.4279296875 69.65 48.25 65.65625 46.9330078125 61.6 45.7 61.663671875 43.6587890625 62.25 41.65 66.56015625 43.071875 71 43.75 70.88515625 44.1904296875 70.75 44.6
M 76.85 60.5
Q 74.2923828125 60.1748046875 72.05 59.35 72.124609375 58.677734375 72.2 58 72.457421875 55.7970703125 72.85 53.6 76.050390625 54.6796875 79.4 55.3 80.5201171875 55.5091796875 81.65 55.7 81.145703125 58.2890625 80.8 60.9 78.837109375 60.7640625 76.85 60.5
M 62.45 51.3
Q 62.261328125 50.7072265625 62.1 50.1 62.330078125 50.1876953125 62.55 50.25 65.709375 51.11796875 68.8 52.15 68.3375 54.7693359375 68.15 57.4 65.32109375 55.551953125 63.15 52.65 62.7 52 62.45 51.3
M 45.9 24.5
Q 46.07421875 24.6078125 46.25 24.7 48.1908203125 25.8705078125 50.3 26.65 53 27.6 55.75 28.35 58.75 29.2 59.7 26.65 60 25.7 59.2 25.2 53.3 21.55 46.35 20.25 46.29921875 20.2611328125 46.25 20.25 43.868359375 20.8466796875 44.75 23.1 45.1 24 45.9 24.5
M 118.2 32.5
Q 117.05 32.5 116.55 33.65 115.75 35.65 117.85 36.3 119 36.6 119.6 35.6 121 33.2 118.2 32.5
M 94.55 32.8
Q 93.35 32.85 92.9 33.95 92.1 35.95 94.2 36.6 95.35 36.95 95.9 35.9 97.3 33.5 94.55 32.8
M 108.9 -5.15
Q 104.6 -5 100.55 -3.45 94.05 -1 89.25 3.95 84.3 9.1 84.75 16.2 85.2 23.2 90.55 27.9 91.5 28.7 92.4 29.5 93.955859375 30.7376953125 95.7 31.65 96.4388671875 32.0279296875 97.2 32.35 103.6 35.05 110.35 33.25 112.606640625 32.661328125 114.5 31.65 118.5091796875 29.56953125 121.1 25.7 124.95 19.95 124.9 13 124.9 6.05 120.55 0.55 116.2 -5.05 108.9 -5.15
M 117.7 3.35
Q 119.45 5.7 120.3 8.45 120.95 10.5 121 12.7 121 14.95 120.65 17.1 119.35 24.8 112.25 28.1 106.35 30.85 100.1 29.3 98.9 29 97.95 28.2 95.6 26.2 93 24.75 92.9 24.65 92.75 24.55 88.55 20.6 88.6 14.85 88.6 11.95 90.05 9.45 90.05 9.4 90.1 9.3 90.1 9.25 90.1 9.2 90.1 9.15 90.15 9.1 92.5 5.65 96 3.35 101.8 -0.4 108.6 -1.1 114.35 -1.2 117.7 3.35
M 108.65 2.15
Q 104.75 2.8 101.55 5.25 97.9 8.05 96.05 12.2 95.2 14.2 94.85 16.3 94.1 21.1 97.55 24.45 101 27.75 105.85 27.1 106.65 27 107.3 26.65 109.05 25.8 110.65 24.6 112.15 23.5 113.25 22 115.85 18.3 116.85 13.9 117.85 9.25 115.3 5.25 113 1.65 108.65 2.15 Z" stroke="none" fill="#000000"></path>

<path d="M 62.1 50.1
Q 62.261328125 50.7072265625 62.45 51.3 62.7 52 63.15 52.65 65.32109375 55.551953125 68.15 57.4 68.3375 54.7693359375 68.8 52.15 65.709375 51.11796875 62.55 50.25 62.330078125 50.1876953125 62.1 50.1
M 72.05 59.35
Q 74.2923828125 60.1748046875 76.85 60.5 78.837109375 60.7640625 80.8 60.9 81.145703125 58.2890625 81.65 55.7 80.5201171875 55.5091796875 79.4 55.3 76.050390625 54.6796875 72.85 53.6 72.457421875 55.7970703125 72.2 58 72.124609375 58.677734375 72.05 59.35
M 69.65 48.25
Q 70.128125 46.4279296875 70.75 44.6 70.88515625 44.1904296875 71 43.75 66.56015625 43.071875 62.25 41.65 61.663671875 43.6587890625 61.6 45.7 65.65625 46.9330078125 69.65 48.25
M 66.7 37
Q 65.65 36.8 64.65 36.85 64.1869140625 37.522265625 63.8 38.2 68.0634765625 39.1109375 72.35 39.9 72.6814453125 39.03359375 73 38.15 72.91953125 38.161328125 72.85 38.15 69.75 37.65 66.7 37
M 92.55 60.4
Q 92.702734375 59.869921875 93 59.3 93.394921875 58.48203125 93.6 57.6 89.6888671875 57.07265625 85.75 56.4 85.3078125 58.69140625 84.9 61 88.0759765625 60.9720703125 91.25 60.6 91.9201171875 60.5259765625 92.55 60.4
M 97.4 58.15
Q 97.3189453125 58.57890625 97.25 59 97.8208984375 58.7333984375 98.35 58.4 97.8916015625 58.2689453125 97.4 58.15
M 104.8 51.95
Q 105.0220703125 51.5708984375 105.2 51.15 102.2783203125 50.1658203125 99.3 49.3 98.6703125 51.7216796875 98.15 54.15 99.0314453125 54.2736328125 99.9 54.4 101.356640625 54.5734375 102.2 55.4 103.6525390625 53.9005859375 104.8 51.95
M 95.45 48.25
Q 91.8466796875 47.3224609375 88.15 46.6 87.310546875 49.6837890625 86.55 52.8 90.394140625 53.411328125 94.25 53.75 94.7333984375 50.9615234375 95.45 48.25
M 100.4 45.3
L 100.4 45.3
Q 103.4419921875 46.304296875 106.3 47.65 106.558203125 46.087109375 106.35 44.4 103.7349609375 43.851953125 101.1 43.3 100.6888671875 44.2888671875 100.4 45.3
M 89.85 41.15
Q 89.57890625 41.978515625 89.3 42.8 92.4171875 43.4 95.5 44.05 96.068359375 44.16796875 96.6 44.3 96.9271484375 43.420703125 97.25 42.55 93.55078125 41.832421875 89.85 41.15
M 85.45 42.1
Q 85.76015625 41.273046875 86.05 40.45 81.4505859375 39.6029296875 76.8 38.8 76.6451171875 39.7228515625 76.4 40.6 77.6052734375 40.8080078125 78.8 41 82.137109375 41.51640625 85.45 42.1
M 83.45 48.3
Q 83.801171875 47.082421875 84.15 45.85 79.61015625 45.0693359375 75 44.35 74.2365234375 46.998828125 73.6 49.65 74.394140625 49.9259765625 75.15 50.2 76.6 50.7 78.1 51.05 80.2626953125 51.590625 82.45 52 82.8982421875 50.160546875 83.45 48.3
M 120.3 8.45
Q 119.45 5.7 117.7 3.35 114.35 -1.2 108.6 -1.1 101.8 -0.4 96 3.35 92.5 5.65 90.15 9.1 90.1 9.15 90.1 9.2 90.1 9.25 90.1 9.3 90.05 9.4 90.05 9.45 88.6 11.95 88.6 14.85 88.55 20.6 92.75 24.55 92.9 24.65 93 24.75 95.6 26.2 97.95 28.2 98.9 29 100.1 29.3 106.35 30.85 112.25 28.1 119.35 24.8 120.65 17.1 121 14.95 121 12.7 120.95 10.5 120.3 8.45
M 101.55 5.25
Q 104.75 2.8 108.65 2.15 113 1.65 115.3 5.25 117.85 9.25 116.85 13.9 115.85 18.3 113.25 22 112.15 23.5 110.65 24.6 109.05 25.8 107.3 26.65 106.65 27 105.85 27.1 101 27.75 97.55 24.45 94.1 21.1 94.85 16.3 95.2 14.2 96.05 12.2 97.9 8.05 101.55 5.25 Z" stroke="none" fill="#FFFFFF"></path>

<path d="M 81.85 -8.8
Q 81.03515625 -8.6404296875 80.2 -8.4 67.968359375 -4.9375 62 4.9 61.809375 9.620703125 62.1 15 63.95 6.55 70.6 -0.1 74.6673828125 -4.4189453125 81.85 -8.8 Z" stroke="none" fill="#2A2D69"></path>

<path d="M 84.8 -9.2
Q 83.3412109375 -9.1068359375 81.85 -8.8 74.6673828125 -4.4189453125 70.6 -0.1 63.95 6.55 62.1 15 61.809375 9.620703125 62 4.9 61.023828125 6.6005859375 60.2 8.45 59.4119140625 13.95078125 61.6 19 62.1 20 62.75 20 63.15 20 63.4 19.55 63.55 19.3 63.75 18.75 66.05 8.9 72.7 0.95 77.909765625 -5.2859375 84.8 -9.2 Z" stroke="none" fill="#8CB6E5"></path>

<path d="M 119.65 -33.15
Q 114.1 -30.6 109.35 -26.15 102.35 -19.7 97.1 -11.75 95.9 -10 94.5 -8.5 93.65 -7.55 92.4 -8 88.66015625 -9.3828125 84.8 -9.2 77.909765625 -5.2859375 72.7 0.95 66.05 8.9 63.75 18.75 63.55 19.3 63.4 19.55 63.15 20 62.75 20 62.1 20 61.6 19 59.4119140625 13.95078125 60.2 8.45 59.4189453125 10.1888671875 58.8 12.1 57.85 15 57.4 17.95 57.2724609375 18.68359375 56.75 18.9 56.1333984375 21.964453125 52.55 20.55 49.4486328125 19.3302734375 46.25 18.75 44.8591796875 18.486328125 43.45 18.35 43.45 21.05 43.5 23.75 43.6 27.5 44.05 31.15 44.45 34.1 45.55 36.9 47.7 42.6 51.7 47.15 55.2486328125 51.153515625 59.4 54.1 57.536328125 51.078125 57.3 47.45 57.10703125 47.2435546875 57.15 46.9 57.1841796875 46.5021484375 57.3 46.15 57.309765625 45.697265625 57.35 45.2 57.65 41.7 59.05 38.5 60.7 34.85 63.7 32.4 63.9 32.2 64.2 32.15 64.85 32.15 65.3 32.55 65.45 32.7 65.65 32.85 70.04765625 33.8529296875 74.45 34.7 74.9068359375 34.2814453125 75.6 34.25 76.94296875 34.4458984375 77.35 35.25 80.1083984375 35.75625 82.85 36.2 91.05 37.5 99.25 38.75 102.846875 39.2841796875 106.25 40.3 105.6537109375 39.7990234375 105.5 38.8 105.35 37.8 105.5 36.85 105.8 35.35 107.3 35.25 110.3 36.45 109.35 39.8 109.0810546875 40.8759765625 108 40.9 108.4806640625 41.0734375 108.95 41.25 109.5 41.5 109.7 42.1 112.05 51 105.7 57.7 103.0443359375 60.52421875 99.8 62.25 106.14140625 61.3361328125 112.35 59.15 125.15 54.65 133.9 44.6 137.4 40.6 139.05 35.5 139.7259765625 33.51171875 140.6 31.65 140.8146484375 31.170703125 141.05 30.7 141.35 30.1 141.45 29.4 141.65 29.15 141.85 28.9 142.2 28.4 142.4 27.8 142.55 27.35 142.75 26.9 142.85 26.6 142.95 26.35 139.9 25.45 136.3 24.7 134.3015625 24.29296875 134.55 22.95 134.1599609375 22.304296875 134.4 21.2 134.45 21.1 134.5 21 134.6 20.9 134.65 20.85 134.7 20.75 134.75 20.65 134.8 20.55 134.8 20.45 134.8 20.4 134.85 20.3 134.85 20.2 134.9 20.1 134.95 20 135 19.9 135.1 19.75 135.15 19.55 135.3 19.25 135.5 19.05 135.55 18.95 135.65 18.85 135.9 18.05 136.25 17.3 136.8 16 136.85 14.55 136.85 14.35 136.9 14.15 136.9 14.1 136.9 14 136.9 13.8 136.95 13.65 137 13.35 137.05 13.1 137.05 12.9 137.15 12.75 137.15 12.65 137.15 12.55 137.15 12.35 137.2 12.2 137.25 11.95 137.3 11.65 137.35 11.4 137.45 11.1 137.8 3.35 136.05 -4.25 134.85 -9.35 132.9 -14.3 128.55 -25.25 119.65 -33.15
M 100.55 -3.45
Q 104.6 -5 108.9 -5.15 116.2 -5.05 120.55 0.55 124.9 6.05 124.9 13 124.95 19.95 121.1 25.7 118.5091796875 29.56953125 114.5 31.65 112.606640625 32.661328125 110.35 33.25 103.6 35.05 97.2 32.35 96.4388671875 32.0279296875 95.7 31.65 93.955859375 30.7376953125 92.4 29.5 91.5 28.7 90.55 27.9 85.2 23.2 84.75 16.2 84.3 9.1 89.25 3.95 94.05 -1 100.55 -3.45
M 122.25 -27.75
Q 127.05 -15.55 128.35 -2 124.1337890625 -3.91640625 108.95 -10.55 113.6193359375 -20.88359375 122.25 -27.75
M 92.9 33.95
Q 93.35 32.85 94.55 32.8 97.3 33.5 95.9 35.9 95.35 36.95 94.2 36.6 92.1 35.95 92.9 33.95
M 116.55 33.65
Q 117.05 32.5 118.2 32.5 121 33.2 119.6 35.6 119 36.6 117.85 36.3 115.75 35.65 116.55 33.65
M 46.25 24.7
Q 46.07421875 24.6078125 45.9 24.5 45.1 24 44.75 23.1 43.868359375 20.8466796875 46.25 20.25 46.29921875 20.2611328125 46.35 20.25 53.3 21.55 59.2 25.2 60 25.7 59.7 26.65 58.75 29.2 55.75 28.35 53 27.6 50.3 26.65 48.1908203125 25.8705078125 46.25 24.7
M 71.1 -12.55
Q 70.2673828125 -9.98828125 68.95 -7.75 76.0908203125 -12.4734375 85.1 -13.2 88.95 -13.55 92.65 -12.65 95.134375 -16.5123046875 98 -20.05 97.215625 -20.64296875 96.7 -21.7 96.25 -22.7 95.65 -23.65 91.15 -30.85 84.3 -35.85 78.8 -29.05 74.75 -21.25 72.55 -17.05 71.1 -12.55 Z" stroke="none" fill="#655F97"></path>

<path d="M 128.35 -2
Q 127.05 -15.55 122.25 -27.75 113.6193359375 -20.88359375 108.95 -10.55 124.1337890625 -3.91640625 128.35 -2 Z" stroke="none" fill="#504884"></path>
</g>
</g>
</g>
</g>
</g>
</svg>
