
<svg viewBox="0 0 272 172" height="172px" width="272px" y="0px" x="0px" preserveAspectRatio="none" xmlns:xlink="http://www.w3.org/1999/xlink" version="1.1" xmlns="http://www.w3.org/2000/svg">
<defs></defs>

<g id="Layer_2">
<g>
<g>
<g>
<path d="M 64.3 120.4
Q 63.7 119.5 63.3 118.55 63.3 118.7 63.3 118.8 63.3 120.5 63.9 122 63.95 124.4 64.5 126.75 64.95 128.6 64.9 130.6 65 130.7 65.05 130.85 65.1 130.95 65.15 131.1 65.15 131.2 65.15 131.35 65.05 132.35 65.35 133.3 65.45 133.55 65.55 133.8 65.55 133.9 65.55 134.05 65.55 134.75 65.55 135.5 65.55 135.65 65.55 135.75 65.65 135.9 65.7 136 65.8 136.5 65.8 137 65.8 137.1 65.8 137.25 65.9 137.35 65.95 137.45 66.05 137.6 66.1 137.7 66.15 137.85 66.15 137.95 66.2 138.6 66.2 139.2 66.2 139.3 66.2 139.45 66.2 139.55 66.25 139.65 66.5 139.95 66.8 140.2 66.8 140.3 66.85 140.4 67.1 141.05 67.4 141.65 67.45 141.75 67.5 141.9 68.85 143.25 69.85 144.8 70.55 145.95 71.35 147.05 71.65 147.3 71.95 147.55 72.75 148.35 73.65 149 73.75 149.15 73.8 149.3 73.95 149.5 74.05 149.75 74.8 150.15 75.4 150.7 76.15 151.4 77 151.95 77.05 152.1 77.1 152.2 77.2 152.35 77.25 152.45 77.6 152.6 77.9 152.7 78 152.85 78.1 152.95 78.5 153.7 79.25 154 79.3 154.15 79.4 154.25 79.9748046875 154.2466796875 80.55 154.25 92.8810546875 154.1568359375 105.5 153.8 114.4912109375 153.544140625 123.5 153.45 101.2962890625 149.7484375 81.35 138.85 80.9462890625 138.6283203125 80.55 138.4 79.959765625 138.0583984375 79.35 137.7 72.10703125 133.1525390625 67.6 125.95 67.3 124.95 66.75 123.95 65.85 122.4 64.4 121.35 64.35 121.2 64.35 121.05 64.3 120.75 64.3 120.4
M 210.85 111.65
Q 210.3 113.55 209.85 115.45 209.05 118.7 207.35 121.55 207.35 121.7 207.35 121.85 207.2 122.3 207.25 122.8 207.25 122.95 207.25 123.1 206.9 123.65 206.55 124.25 205.9 125.45 205.6 126.75 205.6 126.95 205.55 127.1 203.95 129.95 201.7 132.35 200.3 133.95 199.1 135.7 198.75 135.85 198.45 136 197.65 136.4 197.25 137.2 196.920703125 137.451953125 196.6 137.7 181.4671875 149.0462890625 162.75 153.05 180.483203125 152.6787109375 198.1 151.95 198.7103515625 151.2923828125 199.3 150.6 199.45 150.45 199.6 150.35 200 150.1 200.45 149.85 200.55 149.7 200.65 149.6 201.15 148.75 201.6 147.85 201.65 147.75 201.7 147.65 202.5 147 202.95 146.1 203.45 145.1 204.3 144.45 204.35 144.3 204.4 144.2 204.55 143.85 204.5 143.45 205.2 142.7 205.65 141.7 206.2 140.5 207 139.5 207 139.4 207.05 139.3 207.05 139.15 207.1 139.05 207.2 138.9 207.3 138.8 207.7103515625 138.277734375 208.1 137.7 208.223046875 137.5033203125 208.35 137.3 208.35 137.2 208.35 137.05 208.35 136.7 208.35 136.35 208.4 136.2 208.5 136.1 208.75 135.85 209 135.6 209 135.45 209 135.35 209 135.1 209 134.85 209.55 134.05 209.7 133.15 209.95 131.8 209.95 130.45 210.05 130.3 210.15 130.2 210.2 130.05 210.3 129.95 210.35 129.8 210.35 129.7 210.4 129.1 210.4 128.45 210.4 128.35 210.4 128.2 210.4 128.1 210.5 128 210.55 127.85 210.65 127.7 210.65 122.3 211.1 116.9 211.25 114.25 210.85 111.65
M 176.35 123.5
Q 182.95 119.7 188.4 114.35 174.35 120.75 158.7 122.6 154.289453125 123.13046875 149.9 123.35 130.701171875 124.4916015625 111.9 120.3 106.35 119.05 101.3 116.5 98.75 115.2 96.3 114.25 96.05 113.95 95.9 113.65 95.8 113.55 95.7 113.45 95.15 113.25 94.45 113 94.4 112.9 94.35 112.8 94.25 112.7 94.15 112.6 93.15 112.2 92.05 112 91.05 111.15 89.9 110.5 89.65 110.4 89.6 110.55 94.05 121.75 105.35 126.8 113.5 130.4 122.2 132.3 129 133.8 135.95 134.05 143.0384765625 134.286328125 149.9 133.15 154.6546875 132.382421875 159.3 130.95 168.25 128.2 176.35 123.5
M 66.6 91.4
Q 66.6 91.85 66.8 92.2 67.05 95.35 67.4 98.5 67.55 100.2 67.7 101.85 69.35 101.85 71 102.2 71.1 102.2 71.25 102.25 73.8 101.95 76.4 101.6 76.3 100.05 74.55 98.5 73.3 97.35 72.5 95.85 69.9 92.8 66.95 90.1 66.7 90.65 66.55 91.25 66.6 91.35 66.6 91.4
M 79 70.45
Q 78.7 69.55 78.35 68.7 78.2 72.65 78.25 76.6 78.25 79.55 78.4 82.45 79.479296875 82.159375 80.55 81.85 82.05859375 81.3970703125 83.55 80.9 81.9404296875 77.7123046875 80.55 74.35 79.7375 72.44140625 79 70.45
M 202.15 92.3
Q 201.4 92.4 200.6 92.55 200.45 92.7 200.3 92.85 200.15 93 200 93.1 199.9 93.15 199.8 93.15 198.65 93.5 197.55 94 197.45 94.15 197.3 94.25 196.85 94.65 196.4 95.15 196.3 95.2 196.2 95.2 195.8 95.35 195.4 95.45 195.25 95.6 195.05 95.7 194.35 96 194.15 96.65 194.15 96.75 194.1 96.8 193.4 97.15 192.65 97.4 198.45 98.35 204.55 99.25 204.55 96.7 204.55 94.1 204.55 92.9 204.55 91.65 203.45 92.1 202.15 92.3
M 196.7 74.8
Q 196.7 74.65 196.65 74.55 195.6 75.95 194.65 77.45 193.65 79.05 192.4 80.5 192.1 80.65 191.85 80.85 191.75 80.95 191.7 81.1 194.05 82.15 197 83.4 197 83.2 197 83.05 197.15 81.3 196.7 79.7 196.7 78.8 196.7 77.95 196.7 76.35 196.7 74.8 Z" stroke="none" fill="#EE9D33"></path>

<path d="M 195.3 68.4
L 195.3 68.35
Q 194.15 68.15 193.15 67.6 186.05 67.35 179 67.05 179 64.15 179.15 61.25 179.3 58.2 178.6 55.4 178.6 55.25 178.65 55.1 178.8 54.45 178.2 54.15 168.85 56.05 159.25 57.85 159.15 57.7 159.05 57.55 158.6 56.65 158.3 55.7 158.2 55.55 158.1 55.4 158.1 55.25 158.05 55.1 157.9 54.65 157.7 54.15 157.7 54 157.7 53.85 157.7 53.1 157.7 52.35 157.7 51.85 157.7 51.4 157.6 51.25 157.55 51.1 157.25 50.2 157.1 49.25 157.05 48.95 156.9 48.65 156.9 48.5 156.9 48.35 156.9 47.85 156.9 47.4 156.8 47.25 156.7 47.1 156.6 46.95 156.5 46.8 156.5 46.65 156.5 46.5 156.55 45.9 156.05 45.55 152.9712890625 46.7814453125 149.9 48.2 144.9904296875 50.5203125 140.1 53.35
L 140.1 53.4
Q 138.85 53.4 137.65 53.35 137.5 53.2 137.35 53.05 137.3 52.95 137.25 52.85 137.2 52.8 137.1 52.75 136.75 52.65 136.4 52.55 136.4 52.4 136.35 52.25 135.75 51.15 134.75 50.4 134.75 50.25 134.7 50.15 134.15 49.4 133.45 48.85 133.15 48.25 132.9 47.6 132.45 46.25 131.5 45.15 131.5 45 131.45 44.85 131.45 44.7 131.4 44.55 131.2 44.25 130.95 43.95 130.1177734375 42.9708984375 129.55 41.8 129.5615234375 41.7751953125 129.55 41.75 129.5 41.65 129.45 41.45 129.4 41.35 129.35 41.35 128.95 41.3 128.5 41.35 128.2611328125 41.5740234375 128 41.8 123.453125 46.1609375 119.65 51.2 118.1 53.25 116.85 55.5 115.05 55.65 113.25 55.8 110.05 53.8 106.85 51.65 106.2 51.15 105.7 50.5 103.5 49.1 101.35 47.6 100.6 47.1 99.85 46.6 99.05 51.95 99.1 57.65 99.15 61.8 99.15 65.95 99.15 66.25 99.15 66.55 89.99375 66.3234375 80.55 64.05 79.5765625 63.80703125 78.6 63.55 78.6 63.65 78.6 63.75
L 78.6 63.8
Q 78.7 64.1 78.75 64.4 78.85 64.55 78.95 64.7 79.2 65.05 79.45 65.35 79.9888671875 66.9666015625 80.55 68.55 81.446484375 71.147265625 82.4 73.7 83.65 76.9 85.5 79.75 85.55 79.9 85.6 80.1 85.6 80.55 85.6 81 85.6 81.15 85.6 81.3 83.1357421875 82.2521484375 80.55 83.05 73.9017578125 85.1900390625 66.45 86.45 66.55 86.6 66.7 86.7 66.8 86.8 66.85 86.9 67.35 86.9 67.85 87
L 67.85 87.1
Q 67.9 87.6 67.75 88.1 72.5 92.2 76.45 97.2 78 99.25 79.05 101.5 76.55 103.15 72.4 103.5 67.55 103.85 63.1 103.9 62.5 104.1 61.9 104.4 61.85 104.5 61.85 104.6 61.8 104.8 61.8 105 61.85 105.2 61.85 105.4 61.85 105.5 61.85 105.6 62.2 105.6 62.6 105.65
L 62.6 105.75
Q 62.6 105.9 62.6 106 62.6 106.9 62.6 107.75 62.6 108 62.6 108.25 62.65 108.35 62.7 108.45 62.75 108.6 62.85 108.7 62.85 108.85 62.85 109 62.95 109.15 63 109.35 63.05 109.5 63.1 109.65 63.1 109.8 63.1 110 63.1 110.75 63.1 111.5 63.1 111.8 63.1 112.15 64.05 113.85 64.65 115.8 65.25 117.9 66.35 119.8 66.35 119.95 66.4 120.1 66.4 120.4 66.45 120.75 67.35 121.3 67.8 122.3 68.45 123.7 69.55 124.7 69.6 124.9 69.6 125.05 69.65 125.2 69.65 125.35 74.2626953125 131.7390625 80.55 136.4 81.4568359375 137.0681640625 82.4 137.7 86.321875 140.335546875 90.85 142.35 112.0099609375 151.796484375 134.45 153.4 142.1955078125 153.384765625 149.9 153.25 153.2140625 153.2328125 156.5 153.15 164.9291015625 152.2685546875 173 149.3 184.3001953125 145.126953125 193.85 137.7 194.474609375 137.2072265625 195.1 136.7 195.2 136.55 195.3 136.4 195.85 135.55 196.8 135.15 198 133.9 199 132.4 200 131 201.35 129.95 201.6 129.5 201.85 129.05 202.55 127.75 203.5 126.55 203.7 125.25 204.35 124.1 205.3 122.55 205.45 120.75 207.25 116.9 208.25 112.7 208.95 109.6 210.15 106.6 210.15 105.7 210.15 104.75 210.15 103.05 210.15 101.4 210.15 101.2 210.15 101.05 199.9 99.45 189.65 98.1 189.65 97.95 189.7 97.85 190.15 97.1 190.8 96.55 190.9 96.45 191 96.35 191.05 96.3 191.1 96.3 191.6 96.15 192.1 96.05 192.15 95.9 192.25 95.8 192.85 95.15 193.55 94.6 193.95 94.5 194.35 94.4 195.3 93.35 196.65 92.9 197.8 92.55 198.75 91.85 201.2 91.4 203.3 90.25 203.85 89.95 204.6 89.6 196.95 84.6 189.25 81.4 190.9 79.15 192.75 76.55 193.95 74.85 195.2 73.1 195.25 72.95 195.25 72.8 195.35 72.35 195.4 71.9 195.55 71.75 195.7 71.65 195.05 70.1 194.85 68.5 195.15 68.5 195.45 68.55 195.35 68.45 195.3 68.4
M 174.3 85.45
Q 174.35 85.55 174.45 85.65 175.1 86.25 175.75 86.9 176.1 87.3 176.5 87.6 176.55 87.7 176.6 87.8 176.6 87.9 176.65 88 176.65 88.2 176.65 88.4 176.8 88.5 176.85 88.65 176.9 88.7 176.9 88.8 176.9 89 176.9 89.2 177 89.3 177.05 89.4 177.1 89.5 177.2 89.6 177.2 89.7 177.2 89.8 177.2 90 177.2 90.2 177.2 90.5 177.2 90.75 177.2 90.85 177.2 90.95 177.15 91.05 177.1 91.15 176.85 91.95 176.25 92.7 175.55 93.6 174.6 94.3 165.6 97.35 156.7 95.4 153.6 94.7 152.4 91.8 152.3 91.7 152.2 91.6 152.1 91.5 152.05 91.4 151.8 91.15 151.6 90.85 151.6 90.75 151.6 90.65 151.6 90.15 151.6 89.65 151.6 89.15 151.6 88.65 151.6 88.3 151.6 87.9 151.7 87.8 151.75 87.7 151.8 87.6 151.85 87.5 151.9 87.4 151.95 87.3 153 86.2 154.3 85.4 158 83.05 162.3 82.45 166.8 81.9 170.85 83.45 172.4 84.05 173.45 85.2 173.5 85.25 173.6 85.25 173.75 85.3 173.9 85.35 174.1 85.4 174.3 85.45
M 192.5 109.6
L 192.5 109.55
Q 193.5 109.65 194.45 109.85 194.5 109.85 194.5 109.95 194.5 110.05 194.45 110.15 194.4 110.55 194.1 110.8 193.8 111.05 193.5 111.35 193.45 111.45 193.45 111.55 193.4 111.65 193.35 111.75 193.35 111.85 193.3 111.95 193.2 112.05 193.1 112.1 192.6 112.4 192.25 112.8 191.9 113.25 191.45 113.7 191.45 113.8 191.4 113.9 191.35 114 191.3 114.1 191.25 114.2 191.2 114.3 184.45 121.05 176.05 125.6 166.75 130.7 156.45 133.1 153.218359375 133.8603515625 149.9 134.25 148.854296875 134.3662109375 147.8 134.45 126.45 136.15 106.25 128.9 96.05 125.2 90.55 116.25 89.15 114.05 87.7 111.85 87.7 111.75 87.7 111.65 87.65 111.5 87.65 111.3 87.65 111.2 87.65 111.1 87.65 111 87.65 110.9 87.6 110.8 87.55 110.7 87.45 110.5 87.4 110.3 87.4 110.2 87.4 110.1 87.35 110 87.3 109.9 87.25 109.8 87.15 109.7 87.15 109.6 87.15 109.5 87.15 109.3 87.15 109.1 87.15 109 87.15 108.9 87.15 108.8 87.15 108.75 87.2 108.65 87.25 108.6 88.5 108.65 89.7 108.65 90.25 109.25 91 109.6 92.5 110.3 93.9 111.3 94.05 111.35 94.2 111.35 95.45 111.45 96.35 112.2 96.45 112.3 96.55 112.4 96.75 112.45 96.9 112.5 97.25 112.6 97.55 112.65 97.65 112.75 97.75 112.85 97.9 113.05 98 113.25 98.1 113.35 98.15 113.45 98.2 113.5 98.3 113.55 98.75 113.65 99.2 113.7 108.25 119.5 118.95 121.2 134.398046875 123.6583984375 149.9 122.5 155.5212890625 122.0916015625 161.15 121.2 164 120.75 166.9 120.2 177.45 118.1 186.95 113.3 187.05 113.2 187.15 113.1 187.2 113 187.25 112.9 188.25 112.55 189.15 112.05 190.65 111.15 192 110.1 192.1 110 192.15 109.9 192.2 109.8 192.3 109.75 192.4 109.65 192.5 109.6
M 90.8 91.15
Q 90.8 91.05 90.8 90.95 90.8 90.65 90.8 90.4 90.8 90.3 90.8 90.2 91.4 88.5 92.75 87.4 97.55 83.55 103.65 83.3 108.05 83.1 112.15 84.55 113.45 85.05 114.65 85.8 114.75 85.9 114.85 86 114.9 86.1 115 86.2 115.05 86.25 115.15 86.3 115.2 86.35 115.3 86.4 115.5 86.45 115.65 86.5 115.7 86.6 115.75 86.7 115.85 86.8 115.9 86.9 116.05 87.1 116.25 87.3 116.35 87.4 116.45 87.5 116.55 87.6 116.7 87.7 116.75 87.8 116.8 87.9 116.85 88 116.9 88.1 116.9 88.2 116.95 88.3 117.05 88.4 117.15 88.5 117.25 88.55 117.35 88.65 117.5 88.75 117.6 88.85 117.65 88.95 117.75 89.05 117.75 89.15 117.8 89.25 117.85 89.35 117.85 89.45 117.9 89.65 117.95 89.85 117.95 89.95 117.95 90.05 117.95 90.15 117.95 90.25 117.95 90.35 118 90.4 118.05 90.55 118.1 90.65 118.15 90.75 118.2 90.85 118.2 90.95 118.2 91.05 118.2 91.15 118.2 91.25 118.2 91.4 118.2 91.6 118.2 91.7 118.2 91.8 118.2 91.9 118.2 92 118.2 92.3 118.2 92.6 118.2 92.7 118.2 92.8 118.15 92.9 118.1 93 118.05 93.1 118 93.2 117.95 93.3 117.95 93.4 117.95 93.5 117.95 93.6 117.95 93.7 117.95 93.8 117.95 93.9 117.95 94 117.9 94.1 117.85 94.15 117.8 94.25 117.75 94.35 117.5 94.65 117.25 95 117 95.4 116.6 95.75 116.2 96.1 115.85 96.45 107.5 99.15 98.75 97.45 94.1 96.5 91.45 92.75 91.35 92.65 91.2 92.55 91.1 92.45 91 92.35 90.95 92.25 90.85 92.15 90.85 92.05 90.8 91.95 90.8 91.85 90.8 91.75 90.8 91.55 90.8 91.35 90.8 91.25 90.8 91.15 Z" stroke="none" fill="#FDDF5E"></path>

<path d="M 90.8 90.95
Q 90.8 91.05 90.8 91.15 90.8 91.25 90.8 91.35 90.8 91.55 90.8 91.75 90.8 91.85 90.8 91.95 90.85 92.05 90.85 92.15 90.95 92.25 91 92.35 91.1 92.45 91.2 92.55 91.35 92.65 91.45 92.75 94.1 96.5 98.75 97.45 107.5 99.15 115.85 96.45 116.2 96.1 116.6 95.75 117 95.4 117.25 95 117.5 94.65 117.75 94.35 117.8 94.25 117.85 94.15 117.9 94.1 117.95 94 117.95 93.9 117.95 93.8 117.95 93.7 117.95 93.6 117.95 93.5 117.95 93.4 117.95 93.3 118 93.2 118.05 93.1 118.1 93 118.15 92.9 118.2 92.8 118.2 92.7 118.2 92.6 118.2 92.3 118.2 92 118.2 91.9 118.2 91.8 118.2 91.7 118.2 91.6 118.2 91.4 118.2 91.25 118.2 91.15 118.2 91.05 118.2 90.95 118.2 90.85 118.15 90.75 118.1 90.65 118.05 90.55 118 90.4 117.95 90.35 117.95 90.25 117.95 90.15 117.95 90.05 117.95 89.95 117.95 89.85 117.9 89.65 117.85 89.45 117.85 89.35 117.8 89.25 117.75 89.15 117.75 89.05 117.65 88.95 117.6 88.85 117.5 88.75 117.35 88.65 117.25 88.55 117.15 88.5 117.05 88.4 116.95 88.3 116.9 88.2 116.9 88.1 116.85 88 116.8 87.9 116.75 87.8 116.7 87.7 116.55 87.6 116.45 87.5 116.35 87.4 116.25 87.3 116.05 87.1 115.9 86.9 115.85 86.8 115.75 86.7 115.7 86.6 115.65 86.5 115.5 86.45 115.3 86.4 115.2 86.35 115.15 86.3 115.05 86.25 115 86.2 114.9 86.1 114.85 86 114.75 85.9 114.65 85.8 113.45 85.05 112.15 84.55 108.05 83.1 103.65 83.3 97.55 83.55 92.75 87.4 91.4 88.5 90.8 90.2 90.8 90.3 90.8 90.4 90.8 90.65 90.8 90.95
M 92.75 91.25
Q 93.05 89.45 94.5 88.2 98.45 84.75 103.65 84.3 108.7 83.85 112.9 86.55 112.9 86.65 113 86.75 113.05 86.85 113.15 86.95 113.35 87.05 113.55 87.1 113.65 87.15 113.75 87.25 113.85 87.45 114 87.65 114.2 88 114.5 88.25 114.65 88.3 114.7 88.4 114.8 88.6 114.95 88.8 115.15 89.15 115.45 89.4 115.6 89.5 115.7 89.6 115.75 89.7 115.8 89.8 115.85 89.9 115.9 90 115.95 90.1 115.95 90.2 115.95 90.3 115.95 90.4 115.95 90.55 115.95 90.75 115.95 90.85 115.95 90.95 115.95 91.05 115.95 91.15 116.1 91.35 116.2 91.55 116.25 91.65 116.25 91.75 116.25 91.85 116.25 91.95 116.25 92.05 116.2 92.1 116.05 92.4 116 92.75 115.95 93.05 115.95 93.3 115.95 93.4 115.9 93.5 115.75 93.7 115.55 93.9 112.05 98 106.05 96.8 104.75 96.15 103.25 96.55 101.05 97.1 98.05 95.85 94.6 94.35 92.75 91.25
M 192.5 109.55
L 192.5 109.6
Q 192.4 109.65 192.3 109.75 192.2 109.8 192.15 109.9 192.1 110 192 110.1 190.65 111.15 189.15 112.05 188.25 112.55 187.25 112.9 187.2 113 187.15 113.1 187.05 113.2 186.95 113.3 177.45 118.1 166.9 120.2 164 120.75 161.15 121.2 155.5212890625 122.0916015625 149.9 122.5 134.398046875 123.6583984375 118.95 121.2 108.25 119.5 99.2 113.7 98.75 113.65 98.3 113.55 98.2 113.5 98.15 113.45 98.1 113.35 98 113.25 97.9 113.05 97.75 112.85 97.65 112.75 97.55 112.65 97.25 112.6 96.9 112.5 96.75 112.45 96.55 112.4 96.45 112.3 96.35 112.2 95.45 111.45 94.2 111.35 94.05 111.35 93.9 111.3 92.5 110.3 91 109.6 90.25 109.25 89.7 108.65 88.5 108.65 87.25 108.6 87.2 108.65 87.15 108.75 87.15 108.8 87.15 108.9 87.15 109 87.15 109.1 87.15 109.3 87.15 109.5 87.15 109.6 87.15 109.7 87.25 109.8 87.3 109.9 87.35 110 87.4 110.1 87.4 110.2 87.4 110.3 87.45 110.5 87.55 110.7 87.6 110.8 87.65 110.9 87.65 111 87.65 111.1 87.65 111.2 87.65 111.3 87.65 111.5 87.7 111.65 87.7 111.75 87.7 111.85 89.15 114.05 90.55 116.25 96.05 125.2 106.25 128.9 126.45 136.15 147.8 134.45 148.854296875 134.3662109375 149.9 134.25 153.218359375 133.8603515625 156.45 133.1 166.75 130.7 176.05 125.6 184.45 121.05 191.2 114.3 191.25 114.2 191.3 114.1 191.35 114 191.4 113.9 191.45 113.8 191.45 113.7 191.9 113.25 192.25 112.8 192.6 112.4 193.1 112.1 193.2 112.05 193.3 111.95 193.35 111.85 193.35 111.75 193.4 111.65 193.45 111.55 193.45 111.45 193.5 111.35 193.8 111.05 194.1 110.8 194.4 110.55 194.45 110.15 194.5 110.05 194.5 109.95 194.5 109.85 194.45 109.85 193.5 109.65 192.5 109.55
M 188.4 114.35
Q 182.95 119.7 176.35 123.5 168.25 128.2 159.3 130.95 154.6546875 132.382421875 149.9 133.15 143.0384765625 134.286328125 135.95 134.05 129 133.8 122.2 132.3 113.5 130.4 105.35 126.8 94.05 121.75 89.6 110.55 89.65 110.4 89.9 110.5 91.05 111.15 92.05 112 93.15 112.2 94.15 112.6 94.25 112.7 94.35 112.8 94.4 112.9 94.45 113 95.15 113.25 95.7 113.45 95.8 113.55 95.9 113.65 96.05 113.95 96.3 114.25 98.75 115.2 101.3 116.5 106.35 119.05 111.9 120.3 130.701171875 124.4916015625 149.9 123.35 154.289453125 123.13046875 158.7 122.6 174.35 120.75 188.4 114.35
M 174.45 85.65
Q 174.35 85.55 174.3 85.45 174.1 85.4 173.9 85.35 173.75 85.3 173.6 85.25 173.5 85.25 173.45 85.2 172.4 84.05 170.85 83.45 166.8 81.9 162.3 82.45 158 83.05 154.3 85.4 153 86.2 151.95 87.3 151.9 87.4 151.85 87.5 151.8 87.6 151.75 87.7 151.7 87.8 151.6 87.9 151.6 88.3 151.6 88.65 151.6 89.15 151.6 89.65 151.6 90.15 151.6 90.65 151.6 90.75 151.6 90.85 151.8 91.15 152.05 91.4 152.1 91.5 152.2 91.6 152.3 91.7 152.4 91.8 153.6 94.7 156.7 95.4 165.6 97.35 174.6 94.3 175.55 93.6 176.25 92.7 176.85 91.95 177.1 91.15 177.15 91.05 177.2 90.95 177.2 90.85 177.2 90.75 177.2 90.5 177.2 90.2 177.2 90 177.2 89.8 177.2 89.7 177.2 89.6 177.1 89.5 177.05 89.4 177 89.3 176.9 89.2 176.9 89 176.9 88.8 176.9 88.7 176.85 88.65 176.8 88.5 176.65 88.4 176.65 88.2 176.65 88 176.6 87.9 176.6 87.8 176.55 87.7 176.5 87.6 176.1 87.3 175.75 86.9 175.1 86.25 174.45 85.65
M 163.4 83.25
Q 163.737890625 83.197265625 164.05 83.15 164.46328125 83.189453125 164.85 83.2 165.51328125 83.308984375 166.15 83.4 169.3 83.85 171.6 85.9 171.85 86 172.05 86.05 172.25 86.1 172.45 86.2 172.55 86.55 172.85 86.75 173.9 87.5 174.6 88.5 174.65 88.55 174.65 88.65 174.7 88.75 174.7 88.85 174.7 88.95 174.7 89.05 175 89.3 175.05 89.65 175.1 90.05 175.15 90.45 175.05 90.65 175 90.85 174.9 91.05 174.9 91.25 174.65 91.5 174.5 91.75 173.75 92.85 172.7 93.6 165.2 95.95 157.5 94.65 157.4 94.55 157.25 94.5 156.5 93.95 155.85 93.4 154.75 92.45 154.35 91.15 154.2 90.95 154 90.75 153.8 90.45 153.6 90.2 153.6 89.7 153.55 89.2 153.55 88.7 153.7 88.2 154.8 87 156.15 86.15 159.488671875 83.970703125 163.4 83.25
M 197.35 67.7
Q 196.4 67.4 195.5 67.05 195.25 66.95 195 66.85 188 66.6 181.05 66.35 181.05 63.6 181.05 60.85 181.05 58.2 181.05 55.6 181 55.45 180.9 55.35 180.6 54.9 180.65 54.35 180.65 54.2 180.65 54.05 180.65 53.9 180.55 53.85 180.25 53.6 180 53.25 179.9 53.1 179.7 52.95 170.1 54 161 56.75 160.95 56.45 160.8 56.25 160.75 56.05 160.55 55.9 160.55 55.75 160.55 55.6 160.35 55.15 160.2 54.65 160.15 54.55 160.15 54.4 159.95 54.05 159.8 53.75 159.75 53.6 159.75 53.45 159.75 53.3 159.75 53.15 159.95 51.4 159.6 49.7 159.4 48.8 158.95 47.9 158.95 47.6 158.95 47.3 158.95 47.15 158.95 47 158.9 46.85 158.8 46.75 158.45 46.3 158.5 45.75 158.55 45.6 158.55 45.45 158.5 45.3 158.4 45.2 158.25 45 158.1 44.85 158.05 44.55 157.95 44.25 157.85 44.1 157.7 43.95 156.4 43.9 155.05 43.9 154.9 43.95 154.75 44.05 154.2 44.45 153.7 44.95 153.5 45.1 153.3 45.25 151.591015625 45.9580078125 149.9 46.7 144.6642578125 49.0412109375 139.6 51.8 139.05 51.85 138.55 51.8 138.5 51.8 138.45 51.7 138.15 50.7 137.25 50.15 137.05 50 136.9 49.85 136.85 49.7 136.8 49.55 136.75 49.4 136.7 49.25 136.3 48.95 135.9 48.6 135.75 48.5 135.6 48.35 134.9 47.15 134.35 45.9 134.1 45.2 133.55 44.65 133.55 44.5 133.5 44.35 132.95 43.05 132 41.9 131.9595703125 41.8505859375 131.9 41.8 131.5365234375 41.2873046875 131.4 40.65 131.1 40.55 130.8 40.4 130.75 40.4 130.65 40.35 130.55 40.25 130.5 40.15 130.35 40 130.25 39.85 129.15 39.8 128 39.75 126.6201171875 40.6607421875 125.3 41.8 124.2857421875 42.724609375 123.3 43.8 118.5 49.05 114.6 54.7 114.1 54.3 113.5 53.95 107.35 50.25 101.7 45.65 101.15 45.5 100.6 45.3 100.4 45.25 100.25 45.15 99.2 45.1 98.1 45.15 98 45.15 97.9 45.25 97.95 45.8 97.65 46.2 97.55 46.35 97.5 46.5 97.5 46.8 97.5 47.1 97.25 51.25 97.2 55.4 97.1 60.6 97.1 65.85 91.85 65.5 86.8 63.85 83.539453125 62.8080078125 80.55 62.8 79.0927734375 62.804296875 77.7 63.05 77.15 63 76.65 63 76.65 63.15 76.65 63.3 76.4 63.35 76.2 63.4 76.4 63.8 76.55 64.25 76.35 67 76.35 69.8 76.35 76.35 76.35 82.9 74.4 83.3 72.45 83.6 67.4 84.35 64.3 86.65 64.75 87.6 65.35 88.4 65.05 89.25 64.8 90.15 64.35 91.55 64.85 92.85 64.95 95.25 65.25 97.6 65.6 99.75 65.65 101.95 65.25 102 64.85 102.05 62.6 102.7 60.25 103.45 60.15 103.5 60 103.55 59.95 103.6 59.95 103.7 59.25 103.75 58.6 103.85 59.2 103.85 59.85 103.9 59.8 103.9 59.75 103.95 59.65 104.05 59.6 104.15 59.6 104.25 59.6 104.35 59.6 104.45 59.6 104.55 59.6 104.65 59.6 104.75 59.6 104.8 59.6 104.85 59.55 104.85 59.45 104.9 59.4 104.9 59.4 105.05 59.4 105.2 59.4 105.35 59.4 105.85 59.4 106.3 59.4 106.45 59.4 106.6 59.9 106.95 59.85 107.5 59.8 107.65 59.8 107.85 60.05 108.15 60.3 108.45 60.45 108.6 60.55 108.75 60.6 108.9 60.6 109.05 60.6 109.6 60.9 110 60.85 111.55 60.75 113.05 60.65 115.25 61.3 117.25 61.5 118.85 61.45 120.45 61.4 121.6 61.95 122.65 62 124.65 62.5 126.6 63.15 128.85 62.95 131.25 63 131.35 63.1 131.5 63.15 131.6 63.15 131.75 63.15 132 63.15 132.25 63 133.3 63.5 134.2 63.55 134.3 63.6 134.45 63.6 134.55 63.6 134.7 63.6 135.55 63.7 136.4 63.7 136.55 63.85 136.65 63.85 136.8 63.85 136.9 63.85 137.25 63.85 137.65
L 63.85 137.7
Q 63.85 137.7853515625 63.85 137.9 64 138.15 64.15 138.4 64.2 138.5 64.25 138.6 64.25 138.75 64.25 138.85 64.25 139.35 64.25 139.85 64.25 139.95 64.25 140.1 64.4 140.35 64.6 140.55 64.7 140.7 64.8 140.85 64.85 140.95 64.9 141.1 65.15 141.75 65.45 142.3 65.5 142.45 65.55 142.55 66.6 143.55 67.35 144.75 68.35 146.3 69.4 147.7 70.25 148.35 71 149.15 71.3 149.45 71.7 149.7 71.9 150.05 72.15 150.4 72.25 150.55 72.35 150.65 73.3 151.15 74.15 151.9 74.5 152.2 74.9 152.45 75.05 152.7 75.2 152.95 75.3 153.1 75.4 153.2 75.7 153.3 76.05 153.4 76.1 153.4 76.1 153.45 76.26171875 153.888671875 76.5 154.25 77.9509765625 154.2689453125 79.4 154.25 79.3 154.15 79.25 154 78.5 153.7 78.1 152.95 78 152.85 77.9 152.7 77.6 152.6 77.25 152.45 77.2 152.35 77.1 152.2 77.05 152.1 77 151.95 76.15 151.4 75.4 150.7 74.8 150.15 74.05 149.75 73.95 149.5 73.8 149.3 73.75 149.15 73.65 149 72.75 148.35 71.95 147.55 71.65 147.3 71.35 147.05 70.55 145.95 69.85 144.8 68.85 143.25 67.5 141.9 67.45 141.75 67.4 141.65 67.1 141.05 66.85 140.4 66.8 140.3 66.8 140.2 66.5 139.95 66.25 139.65 66.2 139.55 66.2 139.45 66.2 139.3 66.2 139.2 66.2 138.6 66.15 137.95 66.15 137.85 66.1 137.7 66.05 137.6 65.95 137.45 65.9 137.35 65.8 137.25 65.8 137.1 65.8 137 65.8 136.5 65.7 136 65.65 135.9 65.55 135.75 65.55 135.65 65.55 135.5 65.55 134.75 65.55 134.05 65.55 133.9 65.55 133.8 65.45 133.55 65.35 133.3 65.05 132.35 65.15 131.35 65.15 131.2 65.15 131.1 65.1 130.95 65.05 130.85 65 130.7 64.9 130.6 64.95 128.6 64.5 126.75 63.95 124.4 63.9 122 63.3 120.5 63.3 118.8 63.3 118.7 63.3 118.55 63.7 119.5 64.3 120.4 64.3 120.75 64.35 121.05 64.35 121.2 64.4 121.35 65.85 122.4 66.75 123.95 67.3 124.95 67.6 125.95 72.10703125 133.1525390625 79.35 137.7 79.959765625 138.0583984375 80.55 138.4 80.9462890625 138.6283203125 81.35 138.85 101.2962890625 149.7484375 123.5 153.45 126.827734375 153.45 130.15 153.45 132.309765625 153.443359375 134.45 153.4 112.0099609375 151.796484375 90.85 142.35 86.321875 140.335546875 82.4 137.7 81.4568359375 137.0681640625 80.55 136.4 74.2626953125 131.7390625 69.65 125.35 69.65 125.2 69.6 125.05 69.6 124.9 69.55 124.7 68.45 123.7 67.8 122.3 67.35 121.3 66.45 120.75 66.4 120.4 66.4 120.1 66.35 119.95 66.35 119.8 65.25 117.9 64.65 115.8 64.05 113.85 63.1 112.15 63.1 111.8 63.1 111.5 63.1 110.75 63.1 110 63.1 109.8 63.1 109.65 63.05 109.5 63 109.35 62.95 109.15 62.85 109 62.85 108.85 62.85 108.7 62.75 108.6 62.7 108.45 62.65 108.35 62.6 108.25 62.6 108 62.6 107.75 62.6 106.9 62.6 106 62.6 105.9 62.6 105.75
L 62.6 105.65
Q 62.2 105.6 61.85 105.6 61.85 105.5 61.85 105.4 61.85 105.2 61.8 105 61.8 104.8 61.85 104.6 61.85 104.5 61.9 104.4 62.5 104.1 63.1 103.9 67.55 103.85 72.4 103.5 76.55 103.15 79.05 101.5 78 99.25 76.45 97.2 72.5 92.2 67.75 88.1 67.9 87.6 67.85 87.1
L 67.85 87
Q 67.35 86.9 66.85 86.9 66.8 86.8 66.7 86.7 66.55 86.6 66.45 86.45 73.9017578125 85.1900390625 80.55 83.05 83.1357421875 82.2521484375 85.6 81.3 85.6 81.15 85.6 81 85.6 80.55 85.6 80.1 85.55 79.9 85.5 79.75 83.65 76.9 82.4 73.7 81.446484375 71.147265625 80.55 68.55 79.9888671875 66.9666015625 79.45 65.35 79.2 65.05 78.95 64.7 78.85 64.55 78.75 64.4 78.7 64.1 78.6 63.8
L 78.6 63.75
Q 78.6 63.65 78.6 63.55 79.5765625 63.80703125 80.55 64.05 89.99375 66.3234375 99.15 66.55 99.15 66.25 99.15 65.95 99.15 61.8 99.1 57.65 99.05 51.95 99.85 46.6 100.6 47.1 101.35 47.6 103.5 49.1 105.7 50.5 106.2 51.15 106.85 51.65 110.05 53.8 113.25 55.8 115.05 55.65 116.85 55.5 118.1 53.25 119.65 51.2 123.453125 46.1609375 128 41.8 128.2611328125 41.5740234375 128.5 41.35 128.95 41.3 129.35 41.35 129.4 41.35 129.45 41.45 129.5 41.65 129.55 41.75 129.5615234375 41.7751953125 129.55 41.8 130.1177734375 42.9708984375 130.95 43.95 131.2 44.25 131.4 44.55 131.45 44.7 131.45 44.85 131.5 45 131.5 45.15 132.45 46.25 132.9 47.6 133.15 48.25 133.45 48.85 134.15 49.4 134.7 50.15 134.75 50.25 134.75 50.4 135.75 51.15 136.35 52.25 136.4 52.4 136.4 52.55 136.75 52.65 137.1 52.75 137.2 52.8 137.25 52.85 137.3 52.95 137.35 53.05 137.5 53.2 137.65 53.35 138.85 53.4 140.1 53.4
L 140.1 53.35
Q 144.9904296875 50.5203125 149.9 48.2 152.9712890625 46.7814453125 156.05 45.55 156.55 45.9 156.5 46.5 156.5 46.65 156.5 46.8 156.6 46.95 156.7 47.1 156.8 47.25 156.9 47.4 156.9 47.85 156.9 48.35 156.9 48.5 156.9 48.65 157.05 48.95 157.1 49.25 157.25 50.2 157.55 51.1 157.6 51.25 157.7 51.4 157.7 51.85 157.7 52.35 157.7 53.1 157.7 53.85 157.7 54 157.7 54.15 157.9 54.65 158.05 55.1 158.1 55.25 158.1 55.4 158.2 55.55 158.3 55.7 158.6 56.65 159.05 57.55 159.15 57.7 159.25 57.85 168.85 56.05 178.2 54.15 178.8 54.45 178.65 55.1 178.6 55.25 178.6 55.4 179.3 58.2 179.15 61.25 179 64.15 179 67.05 186.05 67.35 193.15 67.6 194.15 68.15 195.3 68.35
L 195.3 68.4
Q 195.35 68.45 195.45 68.55 195.15 68.5 194.85 68.5 195.05 70.1 195.7 71.65 195.55 71.75 195.4 71.9 195.35 72.35 195.25 72.8 195.25 72.95 195.2 73.1 193.95 74.85 192.75 76.55 190.9 79.15 189.25 81.4 196.95 84.6 204.6 89.6 203.85 89.95 203.3 90.25 201.2 91.4 198.75 91.85 197.8 92.55 196.65 92.9 195.3 93.35 194.35 94.4 193.95 94.5 193.55 94.6 192.85 95.15 192.25 95.8 192.15 95.9 192.1 96.05 191.6 96.15 191.1 96.3 191.05 96.3 191 96.35 190.9 96.45 190.8 96.55 190.15 97.1 189.7 97.85 189.65 97.95 189.65 98.1 199.9 99.45 210.15 101.05 210.15 101.2 210.15 101.4 210.15 103.05 210.15 104.75 210.15 105.7 210.15 106.6 208.95 109.6 208.25 112.7 207.25 116.9 205.45 120.75 205.3 122.55 204.35 124.1 203.7 125.25 203.5 126.55 202.55 127.75 201.85 129.05 201.6 129.5 201.35 129.95 200 131 199 132.4 198 133.9 196.8 135.15 195.85 135.55 195.3 136.4 195.2 136.55 195.1 136.7 194.474609375 137.2072265625 193.85 137.7 184.3001953125 145.126953125 173 149.3 164.9291015625 152.2685546875 156.5 153.15 159.6337890625 153.1166015625 162.75 153.05 181.4671875 149.0462890625 196.6 137.7 196.920703125 137.451953125 197.25 137.2 197.65 136.4 198.45 136 198.75 135.85 199.1 135.7 200.3 133.95 201.7 132.35 203.95 129.95 205.55 127.1 205.6 126.95 205.6 126.75 205.9 125.45 206.55 124.25 206.9 123.65 207.25 123.1 207.25 122.95 207.25 122.8 207.2 122.3 207.35 121.85 207.35 121.7 207.35 121.55 209.05 118.7 209.85 115.45 210.3 113.55 210.85 111.65 211.25 114.25 211.1 116.9 210.65 122.3 210.65 127.7 210.55 127.85 210.5 128 210.4 128.1 210.4 128.2 210.4 128.35 210.4 128.45 210.4 129.1 210.35 129.7 210.35 129.8 210.3 129.95 210.2 130.05 210.15 130.2 210.05 130.3 209.95 130.45 209.95 131.8 209.7 133.15 209.55 134.05 209 134.85 209 135.1 209 135.35 209 135.45 209 135.6 208.75 135.85 208.5 136.1 208.4 136.2 208.35 136.35 208.35 136.7 208.35 137.05 208.35 137.2 208.35 137.3 208.223046875 137.5033203125 208.1 137.7 207.7103515625 138.277734375 207.3 138.8 207.2 138.9 207.1 139.05 207.05 139.15 207.05 139.3 207 139.4 207 139.5 206.2 140.5 205.65 141.7 205.2 142.7 204.5 143.45 204.55 143.85 204.4 144.2 204.35 144.3 204.3 144.45 203.45 145.1 202.95 146.1 202.5 147 201.7 147.65 201.65 147.75 201.6 147.85 201.15 148.75 200.65 149.6 200.55 149.7 200.45 149.85 200 150.1 199.6 150.35 199.45 150.45 199.3 150.6 198.7103515625 151.2923828125 198.1 151.95 199.444921875 151.895703125 200.8 151.85 201.122265625 151.448828125 201.45 151.05 201.95 150.85 202.4 150.5 202.5 150.45 202.5 150.35 202.55 150.2 202.65 150.1 203.3 149.3 203.65 148.35 203.7 148.25 203.75 148.1 204.9 147.45 205.4 146.15 205.5 145.9 205.65 145.65 205.9 145.4 206.2 145.15 206.3 145.05 206.35 144.95 206.4 144.7 206.45 144.45 206.45 144.3 206.45 144.2 207.3 143.15 207.9 142 208.35 141.1 208.9 140.25 208.95 140.15 208.95 140 209 139.9 209 139.75 209.939453125 138.857421875 210.2 137.7 210.2349609375 137.6255859375 210.25 137.55 210.3 137.3 210.3 137.05 210.6 136.7 210.85 136.3 210.9 136.2 210.95 136.1 210.95 135.85 210.95 135.6 210.95 135.45 210.95 135.35 211.4 134.9 211.6 134.35 211.65 134.25 211.7 134.1 211.7 134 211.7 133.85 211.7 133.5 211.7 133.15 211.7 133 211.7 132.9 211.8 132.75 211.85 132.65 211.9 132.5 211.95 132.4 211.95 132.25 211.95 132.15 211.95 131.8 211.95 131.4 211.95 131.3 211.95 131.15 212.1 130.9 212.25 130.65 212.3 130.55 212.35 130.45 212.35 130.3 212.35 130.2 212.35 129.55 212.35 128.95 212.35 128.85 212.35 128.7 212.45 128.6 212.5 128.45 212.55 128.35 212.6 128.2 212.6 126.6 212.6 125 212.6 123.65 212.6 122.3 213.3 119.1 213.1 115.7 212.75 109.4 212.35 103.15 212.35 103.05 212.35 103 212.25 103 212.2 103 212.2 101.7 212.2 100.35 209.35 99.95 206.55 99.55 206.55 97.65 206.55 95.75 206.55 93.1 206.55 90.5 206.9 90.15 207.25 89.8 204.7 86.7 200.75 85 199.85 84.6 198.95 84.25 198.95 82.8 199 81.35 199.05 80.2 198.65 79.2 198.65 77.5 198.75 75.85 198.8 74.7 198.4 73.65 198.5 72.6 198.2 71.65 198.4 71.3 198.55 70.95 198.6 70.8 198.65 70.65 198.65 70.35 198.65 70.05 198.65 69.45 198.65 68.8 198.6 68.65 198.55 68.5 198.2 68.4 197.85 68.3 197.85 68.25 197.8 68.25 197.7 68.1 197.55 67.95 197.45 67.85 197.35 67.7
M 196.65 74.55
Q 196.7 74.65 196.7 74.8 196.7 76.35 196.7 77.95 196.7 78.8 196.7 79.7 197.15 81.3 197 83.05 197 83.2 197 83.4 194.05 82.15 191.7 81.1 191.75 80.95 191.85 80.85 192.1 80.65 192.4 80.5 193.65 79.05 194.65 77.45 195.6 75.95 196.65 74.55
M 200.6 92.55
Q 201.4 92.4 202.15 92.3 203.45 92.1 204.55 91.65 204.55 92.9 204.55 94.1 204.55 96.7 204.55 99.25 198.45 98.35 192.65 97.4 193.4 97.15 194.1 96.8 194.15 96.75 194.15 96.65 194.35 96 195.05 95.7 195.25 95.6 195.4 95.45 195.8 95.35 196.2 95.2 196.3 95.2 196.4 95.15 196.85 94.65 197.3 94.25 197.45 94.15 197.55 94 198.65 93.5 199.8 93.15 199.9 93.15 200 93.1 200.15 93 200.3 92.85 200.45 92.7 200.6 92.55
M 78.35 68.7
Q 78.7 69.55 79 70.45 79.7375 72.44140625 80.55 74.35 81.9404296875 77.7123046875 83.55 80.9 82.05859375 81.3970703125 80.55 81.85 79.479296875 82.159375 78.4 82.45 78.25 79.55 78.25 76.6 78.2 72.65 78.35 68.7
M 66.8 92.2
Q 66.6 91.85 66.6 91.4 66.6 91.35 66.55 91.25 66.7 90.65 66.95 90.1 69.9 92.8 72.5 95.85 73.3 97.35 74.55 98.5 76.3 100.05 76.4 101.6 73.8 101.95 71.25 102.25 71.1 102.2 71 102.2 69.35 101.85 67.7 101.85 67.55 100.2 67.4 98.5 67.05 95.35 66.8 92.2 Z" stroke="none" fill="#000000"></path>

<path d="M 94.5 88.2
Q 93.05 89.45 92.75 91.25 94.6 94.35 98.05 95.85 101.05 97.1 103.25 96.55 104.75 96.15 106.05 96.8 112.05 98 115.55 93.9 115.75 93.7 115.9 93.5 115.95 93.4 115.95 93.3 115.95 93.05 116 92.75 116.05 92.4 116.2 92.1 116.25 92.05 116.25 91.95 116.25 91.85 116.25 91.75 116.25 91.65 116.2 91.55 116.1 91.35 115.95 91.15 115.95 91.05 115.95 90.95 115.95 90.85 115.95 90.75 115.95 90.55 115.95 90.4 115.95 90.3 115.95 90.2 115.95 90.1 115.9 90 115.85 89.9 115.8 89.8 115.75 89.7 115.7 89.6 115.6 89.5 115.45 89.4 115.15 89.15 114.95 88.8 114.8 88.6 114.7 88.4 114.65 88.3 114.5 88.25 114.2 88 114 87.65 113.85 87.45 113.75 87.25 113.65 87.15 113.55 87.1 113.35 87.05 113.15 86.95 113.05 86.85 113 86.75 112.9 86.65 112.9 86.55 108.7 83.85 103.65 84.3 98.45 84.75 94.5 88.2
M 164.05 83.15
Q 163.737890625 83.197265625 163.4 83.25 159.488671875 83.970703125 156.15 86.15 154.8 87 153.7 88.2 153.55 88.7 153.55 89.2 153.6 89.7 153.6 90.2 153.8 90.45 154 90.75 154.2 90.95 154.35 91.15 154.75 92.45 155.85 93.4 156.5 93.95 157.25 94.5 157.4 94.55 157.5 94.65 165.2 95.95 172.7 93.6 173.75 92.85 174.5 91.75 174.65 91.5 174.9 91.25 174.9 91.05 175 90.85 175.05 90.65 175.15 90.45 175.1 90.05 175.05 89.65 175 89.3 174.7 89.05 174.7 88.95 174.7 88.85 174.7 88.75 174.65 88.65 174.65 88.55 174.6 88.5 173.9 87.5 172.85 86.75 172.55 86.55 172.45 86.2 172.25 86.1 172.05 86.05 171.85 86 171.6 85.9 169.3 83.85 166.15 83.4 165.51328125 83.308984375 164.85 83.2 164.46328125 83.189453125 164.05 83.15 Z" stroke="none" fill="#EEC24E"></path>
</g>
</g>
</g>
</g>
</svg>
