
<svg viewBox="0 0 112 184" height="184px" width="112px" y="0px" x="0px" preserveAspectRatio="none" xmlns:xlink="http://www.w3.org/1999/xlink" version="1.1" xmlns="http://www.w3.org/2000/svg">
<defs></defs>

<g id="fun_scrollers">
<g transform="matrix( 0.3621063232421875, 0, 0, 0.3621063232421875, -594.2,0.1)" id="svg"></g>

<g transform="matrix( 0.3621063232421875, 0, 0, 0.3621063232421875, -594.2,0.1)" id="Layer_2"></g>

<g transform="matrix( 0.3621063232421875, 0, 0, 0.3621063232421875, -594.2,0.1)" id="Layer_3"></g>

<g transform="matrix( 0.3621063232421875, 0, 0, 0.3621063232421875, -594.2,0.1)" id="Layer_2"></g>

<g transform="matrix( 0.3621063232421875, 0, 0, 0.3621063232421875, -594.2,0.1)" id="Layer_3"></g>

<g transform="matrix( 0.3621063232421875, 0, 0, 0.3621063232421875, -594.2,0.1)" id="MergedLayer_3"></g>

<g transform="matrix( 0.3621063232421875, 0, 0, 0.3621063232421875, -594.2,0.1)" id="Layer_4"></g>

<g transform="matrix( 0.3621063232421875, 0, 0, 0.3621063232421875, -594.2,0.1)" id="Layer_1">
<g>
<g>
<g>
<path d="M 1936.95 36.6
Q 1935.1921875 36.636328125 1933.35 36.65 1918.4 36.7 1910.95 36.85 1884.1 37.3 1866.8 41.6 1865.35 44.5 1867.5 47.65 1869.65 50.75 1872.9 50.35 1861.95 53.1 1851.65 58.7 1847.65 60.85 1846.25 62.9 1845.2 64.4 1845.05 66.15 1844.95 68.05 1845.95 69.4 1853.55 69.25 1863.85 70.8 1869.8 71.75 1881.7 73.95 1903.75 77.7 1916.85 74.15 1898.65 110.25 1883.2 146
L 1875.75 163.45
Q 1872.7 170.7 1871.7 174.7 1870.05 181.15 1871.05 186.3
L 1878.05 186.5
Q 1881.35 174.45 1888.4 163.9 1883.1 180.2 1884.25 196.95
L 1891.55 196.95
Q 1891.1 183.7 1895.35 171.1 1892.25 188.7 1892.15 206.1
L 1885.65 206.45
Q 1883.25 231.95 1875.95 262.65 1871.2 282.65 1860.8 317.85 1849.35 356.8 1845.15 373.05 1837.2 404.1 1834 429.1
L 1841.4 429.35
Q 1849.1 404.85 1853.45 392.6 1860.65 372.35 1868.3 356.95 1854.4 405.3 1854.75 455.4
L 1861.65 455.35
Q 1870.5 409.2 1875.8 361.8 1877.2 366.8 1876.4 373.8 1875.95 377.85 1874.4 385.9 1873.15 393.7 1873.1 403.65 1873.05 409.35 1873.5 421.45
L 1880.6 422 1880.6 436.3
Q 1878.8 433.8 1875.6 432.85 1872.45 431.85 1869.55 432.95 1874.6 450.55 1881.15 468.35 1873 469.85 1864.65 470.45
L 1864.8 477.4
Q 1874.3 478.9 1883.15 479.6
L 1884.25 484 1891.25 484
Q 1890.8 482.7 1891.7 481.75 1902.65 484.3 1916.65 485.1 1923.7376953125 485.48203125 1936.95 485.55
L 1936.95 36.6
M 1859.4 354
Q 1860.7 347.9 1862.4 341.65 1863.45 337.8 1865.75 330.2
L 1881.7 277.85
Q 1874.6 316.95 1859.4 354
M 1888.5 462.35
Q 1888.75 462.3 1889.15 462.6
L 1893.4 466.25
Q 1893.2 466.55 1892.5 466.65 1891 466.8 1889.75 466.75 1889.45 466.25 1889.3 465.45 1889 464.15 1889 464.1 1888.55 462.95 1888.5 462.35 Z" stroke="none" fill="#000000"></path>
</g>
</g>
</g>
</g>

<g transform="matrix( 0.3621063232421875, 0, 0, 0.3621063232421875, -594.2,0.1)" id="Layer_5"></g>

<g transform="matrix( 0.3621063232421875, 0, 0, 0.3621063232421875, -594.2,0.1)" id="Layer_6"></g>

<g transform="matrix( 0.3621063232421875, 0, 0, 0.3621063232421875, -594.2,0.1)" id="MergedLayer_1">
<g>
<g>
<g>
<path d="M 1635.4 391.45
Q 1632.9685546875 391.3990234375 1630.2 391.25
L 1630.2 409.45
Q 1642.0462890625 409.8984375 1649.2 410.1
L 1652.65 410.2
Q 1657.45 410.45 1663.55 410.4
L 1664.55 409.5
Q 1665.7 404.95 1665.95 401.85 1666.25 397.85 1665.35 394.1 1662.15 392.4 1660.4 392.15 1658.65 391.95 1651.45 391.85
L 1635.4 391.45
M 1669.9 246.1
L 1669.35 243.05
Q 1668.9 236.45 1667 232.35
L 1664.85 231.75 1655.75 231.4
Q 1646.6 231.05 1639.7 231.2 1635.269140625 231.315625 1630.2 231.25
L 1630.2 251.15
Q 1631.881640625 251.2 1632.7 251.2
L 1640.65 251.3
Q 1644.65 251.35 1648.65 251.55
L 1649.5 253.55
Q 1660.5 255.65 1668.75 254.55
L 1670.15 252.25
Q 1670.2 250 1670.2 249.2 1670.15 248.45 1669.9 246.1 Z" stroke="none" fill="#9DAEEA"></path>

<path d="M 1632 180.15
L 1630.2 182.2 1630.2 212.95
Q 1632.5736328125 214.671484375 1634.9 215.35 1636.8 215.95 1640.2 216.1
L 1642.9 216.15
Q 1651.45 216.45 1654.6 216.3 1661.4 215.9 1666.05 214
L 1667.2 210.2
Q 1669.55 207.35 1670.35 205.05 1670.95 203.2 1671.25 199.1
L 1671.4 196.3
Q 1671.9 190 1671.4 185.35 1670.55 182.4 1669.45 180.5 1668.15 178.3 1666.1 176.45 1662.45 175.1 1657.25 174.85
L 1653.95 174.75
Q 1646.2 174.55 1642.4 175.25 1636.65 176.35 1632 180.15
M 1630.45 194.8
Q 1632.95 190.15 1634.05 188.8 1635.25 187.55 1639.5 184.25 1642.2 182.5 1644.55 181.85 1646.85 181.2 1650.15 181.2
L 1654 181.45
Q 1657.5 181.6 1661 181.95 1661.95 183 1662.3 183.6 1662.75 184.25 1664.15 186.9 1665.85 190.35 1666.15 193.6 1666.45 196.15 1665.8 200.5
L 1664.8 201.4
Q 1663.6 203.9 1663.1 204.7 1662.55 205.55 1660.6 207.95 1655.5 210.2 1649.65 210.5 1644.6 210.75 1638.35 209.65 1635.25 208.4 1634.45 207.75 1633.6 207.1 1631.85 204.5 1630.2 199.9 1630.45 194.8 Z" stroke="none" fill="#5D5A76"></path>

<path d="M 1634.05 188.8
Q 1632.95 190.15 1630.45 194.8 1630.2 199.9 1631.85 204.5 1633.6 207.1 1634.45 207.75 1635.25 208.4 1638.35 209.65 1644.6 210.75 1649.65 210.5 1655.5 210.2 1660.6 207.95 1662.55 205.55 1663.1 204.7 1663.6 203.9 1664.8 201.4
L 1665.8 200.5
Q 1666.45 196.15 1666.15 193.6 1665.85 190.35 1664.15 186.9 1662.75 184.25 1662.3 183.6 1661.95 183 1661 181.95 1657.5 181.6 1654 181.45
L 1650.15 181.2
Q 1646.85 181.2 1644.55 181.85 1642.2 182.5 1639.5 184.25 1635.25 187.55 1634.05 188.8 Z" stroke="none" fill="#F1F3F7"></path>

<path d="M 1643.45 155.85
L 1640.7 155.65
Q 1635.457421875 155.3248046875 1630.2 155
L 1630.2 174.75
Q 1634.016796875 174.1515625 1638.75 173.35
L 1652.55 171
Q 1662.2 169.4 1670.65 169.5 1673.05 169.65 1673.75 169.6 1674.4 169.55 1676.15 169.3
L 1676.4 164.5 1678.3 164.6 1678.8 158.8 1678.6 158.8 1672.85 158.5
Q 1672.7666015625 158.5 1672.65 158.5 1670.0755859375 158.5484375 1669.3 158.5 1668.55 158.45 1666.45 158.2
L 1657.8 157.15
Q 1650.2 156.25 1643.45 155.85 Z" stroke="none" fill="#992A3F"></path>

<path d="M 1640.7 155.65
L 1643.45 155.85
Q 1650.2 156.25 1657.8 157.15
L 1666.45 158.2
Q 1668.55 158.45 1669.3 158.5 1670.0755859375 158.5484375 1672.65 158.5 1672.7666015625 158.5 1672.85 158.5
L 1673.05 154.75
Q 1672.6 154.65 1672.1 154.65 1671 154.5 1669.95 154.4 1668.8 154.35 1667.65 154.3 1666.4 154.25 1665.2 154.25 1663.9 154.15 1662.65 154.15 1657.3 154 1651.95 153.95 1651.15 153.95 1650.35 154 1649.35 153.95 1648.4 153.95 1647.35 153.95 1646.3 153.95 1645.15 153.9 1644 153.85 1642.75 153.8 1641.5 153.8 1640.1 153.7 1638.75 153.7 1637.3 153.7 1635.85 153.65 1634.3 153.55 1632.7 153.5 1631.6 153.45 1630.5 153.4 1630.34765625 153.4 1630.2 153.4
L 1630.2 155
Q 1635.457421875 155.3248046875 1640.7 155.65
M 1674.25 111.35
L 1671.7 109.75
Q 1671.06484375 109.411328125 1670.4 109.1
L 1669.9 109.1
Q 1669.2 108.75 1668.65 108.5 1666.2 108.05 1665.35 107.95 1664.5 107.85 1661.9 107.75
L 1630.2 105.85 1630.2 125.75 1663.9 127.85
Q 1664.95 127.95 1666.05 128.05 1667.05 128.15 1668.05 128.3 1669.05 128.45 1670.05 128.65 1670.9 128.75 1671.75 128.9 1672.65 129.1 1673.55 129.35 1674.35 129.55 1675.2 129.8 1676 130 1676.75 130.3 1677.45 130.55 1678.05 131 1679.05 131.85 1679.95 132.9
L 1678.6 158.8 1678.8 158.8 1678.3 164.6 1676.4 164.5 1676.15 169.3
Q 1674.4 169.55 1673.75 169.6 1673.05 169.65 1670.65 169.5 1662.2 169.4 1652.55 171
L 1638.75 173.35
Q 1634.016796875 174.1515625 1630.2 174.75
L 1630.2 182.2 1632 180.15
Q 1636.65 176.35 1642.4 175.25 1646.2 174.55 1653.95 174.75
L 1657.25 174.85
Q 1662.45 175.1 1666.1 176.45 1668.15 178.3 1669.45 180.5 1670.55 182.4 1671.4 185.35 1671.9 190 1671.4 196.3
L 1671.25 199.1
Q 1670.95 203.2 1670.35 205.05 1669.55 207.35 1667.2 210.2
L 1666.05 214
Q 1661.4 215.9 1654.6 216.3 1651.45 216.45 1642.9 216.15
L 1640.2 216.1
Q 1636.8 215.95 1634.9 215.35 1632.5736328125 214.671484375 1630.2 212.95
L 1630.2 231.25
Q 1635.269140625 231.315625 1639.7 231.2 1646.6 231.05 1655.75 231.4
L 1664.85 231.75 1667 232.35
Q 1668.9 236.45 1669.35 243.05
L 1669.9 246.1
Q 1670.15 248.45 1670.2 249.2 1670.2 250 1670.15 252.25
L 1668.75 254.55
Q 1660.5 255.65 1649.5 253.55
L 1648.65 251.55
Q 1644.65 251.35 1640.65 251.3
L 1632.7 251.2
Q 1631.881640625 251.2 1630.2 251.15
L 1630.2 391.25
Q 1632.9685546875 391.3990234375 1635.4 391.45
L 1651.45 391.85
Q 1658.65 391.95 1660.4 392.15 1662.15 392.4 1665.35 394.1 1666.25 397.85 1665.95 401.85 1665.7 404.95 1664.55 409.5
L 1663.55 410.4
Q 1657.45 410.45 1652.65 410.2
L 1649.2 410.1
Q 1642.0462890625 409.8984375 1630.2 409.45
L 1630.2 440.55 1643.9 441.25
Q 1652.31796875 441.4775390625 1657.15 441.05 1657.7564453125 440.840625 1658.3 440.6
L 1660.2 437.2 1665.3 432.65
Q 1668.45 429.7 1669.35 428.55 1670.2 427.45 1672.15 423.7 1672.8 419.5 1673.25 410.95
L 1674.95 381.2
Q 1676.85 346.9 1678.45 324.15 1680.75 293 1683.5 267.1
L 1686.6 239.15
Q 1687.05 236.3 1687.7 233.4 1688.45 229.6 1688.9 225.05
L 1692 195.15
Q 1694.25 173.35 1694.95 161.05
L 1695.05 158.5
Q 1695.5 148.6 1693.9 140.55 1692.05 131.55 1687.4 123.85 1682.65 116.8 1674.25 111.35 Z" stroke="none" fill="#F5F7F9"></path>

<path d="M 1673.55 129.35
Q 1672.65 129.1 1671.75 128.9 1670.9 128.75 1670.05 128.65 1669.05 128.45 1668.05 128.3 1667.05 128.15 1666.05 128.05 1664.95 127.95 1663.9 127.85
L 1630.2 125.75 1630.2 153.4
Q 1630.34765625 153.4 1630.5 153.4 1631.6 153.45 1632.7 153.5 1634.3 153.55 1635.85 153.65 1637.3 153.7 1638.75 153.7 1640.1 153.7 1641.5 153.8 1642.75 153.8 1644 153.85 1645.15 153.9 1646.3 153.95 1647.35 153.95 1648.4 153.95 1649.35 153.95 1650.35 154 1651.15 153.95 1651.95 153.95 1657.3 154 1662.65 154.15 1663.9 154.15 1665.2 154.25 1666.4 154.25 1667.65 154.3 1668.8 154.35 1669.95 154.4 1671 154.5 1672.1 154.65 1672.6 154.65 1673.05 154.75
L 1672.85 158.5 1678.6 158.8 1679.95 132.9
Q 1679.05 131.85 1678.05 131 1677.45 130.55 1676.75 130.3 1676 130 1675.2 129.8 1674.35 129.55 1673.55 129.35 Z" stroke="none" fill="#110F1A"></path>

<path d="M 1675 95.2
L 1674.85 97.55
Q 1674.9 99.55 1675 100.2 1675.075390625 100.651953125 1675.4 101.85
L 1675.2 99.55
Q 1675.1787109375 97.334375 1675 95.2
M 1666.15 41.3
Q 1666.2 42.1 1666.3 42.9
L 1630.2 41.5 1630.2 46.5 1658.15 48
Q 1662.45 48.55 1665.95 50.55 1666.65 52.25 1666.8 53.85 1666.85 54.75 1666.75 57.35
L 1666.6 63.55
Q 1666.3 77.75 1668.05 91.25 1668.65 96.9 1668.15 100.75
L 1666.15 102.6
Q 1662.8 102.65 1658.05 102.45
L 1630.2 100.9 1630.2 105.85 1661.9 107.75
Q 1664.5 107.85 1665.35 107.95 1666.2 108.05 1668.65 108.5 1669.2 108.75 1669.9 109.1
L 1670.4 109.1
Q 1668.7865234375 108.4087890625 1667.1 108.05
L 1667.15 107.55
Q 1669.1 107.45 1673.55 106.5 1674.65 103.4 1674.7 99.85 1674.75 97.7 1674.25 93.05
L 1674.85 93.05
Q 1674.6654296875 91.3779296875 1674.4 89.75 1671.95 74.35 1673.2 54.2
L 1673.85 45.55
Q 1674.35 39.4 1673.5 35.2 1672.4 32.15 1670.7 29.8 1669.1 27.7 1666.35 25.45
L 1663.3 23.35
Q 1656.9 18.85 1650.4 16.5 1644.05 14.2 1636.15 13.55
L 1632.4 13.35
Q 1631.29765625 13.26875 1630.2 13.2
L 1630.2 19.4
Q 1641.526171875 21.3494140625 1652.8 24.85 1652.8 25.2 1659.1 30.3 1665.5 36.35 1666.15 41.3 Z" stroke="none" fill="#7E1A34"></path>

<path d="M 1674.85 93.05
L 1674.25 93.05
Q 1674.75 97.7 1674.7 99.85 1674.65 103.4 1673.55 106.5 1669.1 107.45 1667.15 107.55
L 1667.1 108.05
Q 1668.7865234375 108.4087890625 1670.4 109.1 1671.06484375 109.411328125 1671.7 109.75
L 1674.25 111.35
Q 1682.65 116.8 1687.4 123.85 1692.05 131.55 1693.9 140.55 1695.5 148.6 1695.05 158.5
L 1694.95 161.05
Q 1694.25 173.35 1692 195.15
L 1688.9 225.05
Q 1688.45 229.6 1687.7 233.4 1687.05 236.3 1686.6 239.15
L 1683.5 267.1
Q 1680.75 293 1678.45 324.15 1676.85 346.9 1674.95 381.2
L 1673.25 410.95
Q 1672.8 419.5 1672.15 423.7 1670.2 427.45 1669.35 428.55 1668.45 429.7 1665.3 432.65
L 1660.2 437.2 1658.3 440.6 1658.1 440.95
Q 1657.6546875 440.9994140625 1657.15 441.05 1652.31796875 441.4775390625 1643.9 441.25
L 1630.2 440.55 1630.2 448.2
Q 1630.86484375 448.2279296875 1631.45 448.25 1644.6 448.65 1654.85 447.5 1661.15 446.2 1665.75 443.3 1669.75 440.8 1674.55 435.65 1678.85 429.2 1679.7 424.2 1680.6 419.05 1681.65 395
L 1682.5 376.3
Q 1684.1 341.7 1685.9 317.15 1688.2 285.2 1691.5 258.25 1694 238 1696.8 210.55
L 1699.55 185.3
Q 1701.7 165.5 1701.6 155.35 1701.4 138.85 1696.6 126 1693.75 119.55 1690.95 115.6 1687.25 110.4 1682.45 107.5 1678 104.95 1675.65 102.7 1675.5142578125 102.2310546875 1675.4 101.85 1675.075390625 100.651953125 1675 100.2 1674.9 99.55 1674.85 97.55
L 1675 95.2 1675.2 93.1 1674.85 93.05 Z" stroke="none" fill="#706C84"></path>

<path d="M 1658.15 48
L 1630.2 46.5 1630.2 100.9 1658.05 102.45
Q 1662.8 102.65 1666.15 102.6
L 1668.15 100.75
Q 1668.65 96.9 1668.05 91.25 1666.3 77.75 1666.6 63.55
L 1666.75 57.35
Q 1666.85 54.75 1666.8 53.85 1666.65 52.25 1665.95 50.55 1662.45 48.55 1658.15 48 Z" stroke="none" fill="#E21F2D"></path>

<path d="M 1666.3 42.9
Q 1666.2 42.1 1666.15 41.3 1665.5 36.35 1659.1 30.3 1652.8 25.2 1652.8 24.85 1641.526171875 21.3494140625 1630.2 19.4
L 1630.2 41.5 1666.3 42.9 Z" stroke="none" fill="#DF202E"></path>
</g>
</g>
</g>
</g>

<g transform="matrix( 0.3621063232421875, 0, 0, 0.3621063232421875, -594.2,0.1)" id="Layer_2">
<g>
<g>
<g>
<path d="M 1669.8 341.65
Q 1670.55 338.85 1670.45 334.3 1670.25 327.7 1670.3 326.9 1665.95 325.8 1662.1 327.55 1660.8 328.15 1659.15 329.35 1656.5 331.2 1656.25 331.35 1654.05 332.8 1650.75 334.2 1646.9 335.75 1644.95 336.55 1640.75 338.35 1633.95 341.85 1631.9068359375 342.9353515625 1630.2 343.8
L 1630.2 353.35
Q 1630.9072265625 353.0349609375 1631.6 352.7 1641.5 347.6 1646.45 345.05 1655.35 340.6 1662 338.75 1656.1 350.35 1646 358.65 1638.5955078125 364.8029296875 1630.2 368.1
L 1630.2 376.55
Q 1630.44609375 376.4970703125 1630.7 376.45 1634.6 375.55 1639 373.45 1647.7 369.45 1654.85 363.05 1661.95 356.65 1666.7 348.75 1669 344.9 1669.8 341.65
M 1648.55 253.7
L 1640.45 253.55
Q 1638.95 256 1635.8 258.65 1634.05 260.2 1630.4 263.1 1630.300390625 263.1896484375 1630.2 263.25
L 1630.2 276.25
Q 1630.7125 276.2015625 1631.1 276.05 1632.1 275.7 1633.9 273.9 1641 266.75 1648.5 260.55
L 1648.55 253.7
M 1641.3 438.4
L 1636.05 438.3
Q 1634.85 438.3 1634.35 438.55 1633.25 439 1632.75 440.95 1632.2 442.95 1632.1 445.6 1632.05 447 1632.15 450.35 1632.15 451.45 1632.5 451.95 1632.8 452.35 1633.6 452.75 1638.3 455.15 1644.8 455.7 1648.95 456.05 1656.65 455.7
L 1664.7 455.3
Q 1664 455.35 1664 456.6
L 1664.05 466.65
Q 1660.7 467.75 1657.3 467.6
L 1657.3 474.85
Q 1674.9 475.95 1693.05 475.5 1693.6 466.5 1691.05 458.15 1689.95 454.3 1688.2 452.4 1686.75 450.75 1684.2 449.65 1681.6 448.55 1678.15 448.1 1675.95 447.85 1671.85 447.75 1662.8 447.45 1657.9 448.1 1655.75 448.4 1654.7 448.55 1652.8 448.8 1651.5 448.8 1649.05 448.75 1646.1 447.9 1644.1 447.3 1640.9 446 1641.75 442.2 1641.3 438.4
M 1690.55 344.5
Q 1690.45 343.25 1689.9 342.9 1689.5 342.6 1688.7 342.6
L 1684.25 342.5
Q 1681.85 342.4 1680.5 342.85 1679 343.4 1677.95 344.65 1677.4 345.4 1676.7 347.1 1676.1 348.35 1675.85 349.4 1675.6 350.55 1675.6 352.95
L 1675.6 362.15
Q 1675.6 363.45 1676.1 363.95 1676.6 364.4 1677.75 364.4
L 1682.4 364.5
Q 1684.4 364.5 1685.1 364.3 1685.65 364.15 1687.25 363.4 1688.6 362.75 1689.45 362.7 1690.5 362.65 1692.1 363.2 1699.6 366 1704.45 372.3 1708.95 378.15 1708.95 384.4 1708.95 386.85 1707.7 392.05 1707.05 394.75 1706.4 396.2 1705.45 398.4 1704 399.65 1701.05 402.2 1695.95 401.45 1694.3 401.2 1691.85 400.5 1688.15 399.4 1687.75 399.3 1682.7 398.05 1677.85 398.55
L 1677.85 405.35
Q 1691.5 410.55 1705.95 408.35 1710.55 407.65 1712.25 405.5 1713.1 404.45 1713.8 401.75 1716.3 392.35 1716.7 386.25 1717.3 377.45 1714.45 370.75 1712.7 366.55 1709.7 363.25 1706.1 359.35 1701.1 357.2 1696.05 355.05 1690.75 355.1 1691.05 350.1 1690.55 344.5 Z" stroke="none" fill="#000000"></path>

<path d="M 1631.6 352.7
Q 1630.9072265625 353.0349609375 1630.2 353.35
L 1630.2 368.1
Q 1638.5955078125 364.8029296875 1646 358.65 1656.1 350.35 1662 338.75 1655.35 340.6 1646.45 345.05 1641.5 347.6 1631.6 352.7 Z" stroke="none" fill="#FFFFFF"></path>
</g>
</g>
</g>
</g>
</g>
</svg>
