
<svg viewBox="0 0 112 184" height="184px" width="112px" y="0px" x="0px" preserveAspectRatio="none" xmlns:xlink="http://www.w3.org/1999/xlink" version="1.1" xmlns="http://www.w3.org/2000/svg">
<defs></defs>

<g id="fun_scrollers">
<g transform="matrix( 0.3621063232421875, 0, 0, 0.3621063232421875, -594.2,0.1)" id="svg"></g>

<g transform="matrix( 0.3621063232421875, 0, 0, 0.3621063232421875, -594.2,0.1)" id="Layer_2"></g>

<g transform="matrix( 0.3621063232421875, 0, 0, 0.3621063232421875, -594.2,0.1)" id="Layer_3"></g>

<g transform="matrix( 0.3621063232421875, 0, 0, 0.3621063232421875, -594.2,0.1)" id="Layer_2">
<g>
<g>
<g>
<path d="M 1756.95 139
Q 1753 134 1748.05 131.35 1743.45 129.05 1741 126.95 1740.7958984375 126.4103515625 1740.65 125.95 1740.25625 124.925 1740.15 124.5 1740.05 123.85 1739.95 121.85
L 1739.95 119.7 1740 117.35 1739.65 117.35 1739 117.35
Q 1739.85 122 1739.9 124.15 1740.05 127.7 1739.05 130.85 1734.7 132.05 1732.75 132.3
L 1732.75 132.75
Q 1734.4916015625 133.046484375 1736.25 133.7 1736.8787109375 133.928125 1737.5 134.2
L 1740.05 135.65
Q 1748.75 140.65 1753.9 147.4 1758.95 154.8 1761.3 163.75 1763.4 171.65 1763.45 181.6
L 1763.5 184.15
Q 1763.5 196.45 1762.55 218.3
L 1761.15 248.3
Q 1760.95 252.95 1760.35 256.8 1759.9 259.7 1759.6 262.55
L 1758.1 290.7
Q 1756.75 316.65 1756.25 347.85 1755.95 370.65 1755.95 405.05
L 1755.95 434.85
Q 1756 443.4 1755.55 447.65 1753.85 451.55 1753 452.7 1752.25 453.9 1749.2 456.95
L 1744.4 461.8 1742.65 465.3 1742.5 465.6
Q 1742.159375 465.66328125 1741.8 465.7 1736.9931640625 466.517578125 1728.3 466.75
L 1662.8 467.05
Q 1648.5 467.35 1641.3 467.3 1635.3341796875 467.2283203125 1630.2 466.75
L 1630.2 473.25 1692.9 474.25
Q 1709.65 474.55 1716.3 474.4 1729.45 474.1 1739.6 472.35 1745.8 470.75 1750.25 467.55 1754.1 464.85 1758.65 459.4 1762.5 452.8 1763.15 447.7 1763.75 442.55 1763.45 418.45
L 1763.2 399.75
Q 1762.9 365.1 1763.3 340.5 1763.8 308.5 1765.55 281.35 1766.9 261 1768.2 233.45
L 1769.45 208.1
Q 1770.55 188.15 1769.85 178.1 1768.7 161.6 1763.25 149 1760 142.8 1756.95 139
M 1640 121.65
L 1639.45 121.65 1639 121.65 1639 126.45 1637.1 126.45
Q 1633.32265625 128.17265625 1630.2 129.75
L 1630.2 138.8
Q 1633.87578125 136.7392578125 1639.55 133.9 1639.5978515625 133.876171875 1639.65 133.85
L 1642.95 132.25
Q 1641.7 131.9 1640.05 131.25
L 1639.75 129.1
Q 1639.75 129 1640 121.65 Z" stroke="none" fill="#706C84"></path>

<path d="M 1724.2 48.45
Q 1717.5 44.3 1710.9 42.3 1704.45 40.4 1696.5 40.2
L 1692.75 40.2
Q 1667.6 39.75 1644.8 42.1
L 1641.35 42.5
Q 1634.4599609375 43.2251953125 1630.2 43.95
L 1630.2 50.7
Q 1671.707421875 40.03828125 1713.8 50.55 1713.8 50.9 1720.35 55.6 1727.1 61.3 1728 66.2 1728.15 66.95 1728.25 67.8
L 1657.1 69.1 1656.1 66.2 1630.2 65.55 1630.2 72.5 1647.45 72.9
Q 1646.25 76.45 1645.7 80.45 1645.25 83.4 1644.95 88.15 1644.45 96.6 1644.15 99.6 1643.4 105.95 1641.75 110.75 1639.9748046875 115.8478515625 1639.45 121.65
L 1640 121.65
Q 1639.75 129 1639.75 129.1
L 1640.05 131.25
Q 1641.7 131.9 1642.95 132.25
L 1639.65 133.85
Q 1639.5978515625 133.876171875 1639.55 133.9 1639.8150390625 133.8087890625 1640.05 133.75 1643.7 132.5 1647.15 132.15
L 1657.45 132.4
Q 1662.4 132.5 1672.3 132.55 1681.45 132.5 1690.6 132.6
L 1727.5 132.75
Q 1730.15 132.7 1731 132.75 1731.85 132.8 1734.3 133.15 1734.95 133.4 1735.6 133.7
L 1736.25 133.7
Q 1734.4916015625 133.046484375 1732.75 132.75
L 1732.75 132.3
Q 1734.7 132.05 1739.05 130.85 1740.05 127.7 1739.9 124.15 1739.85 122 1739 117.35
L 1739.65 117.35
Q 1739.400390625 115.676953125 1739.05 114.1 1735.7 98.85 1735.8 78.7
L 1735.95 70.05
Q 1736.1 63.8 1735 59.7 1733.75 56.65 1731.9 54.45 1730.2 52.45 1727.3 50.35
L 1724.2 48.45
M 1728.35 75.4
Q 1729.1 77 1729.35 78.65 1729.45 79.5 1729.55 82.1
L 1729.7 88.3
Q 1730.15 102.5 1732.75 115.95 1733.65 121.55 1733.35 125.4
L 1731.5 127.35
Q 1728.1 127.6 1723.4 127.65
L 1645.85 127.75
Q 1646.55 120.75 1646.8 119.1 1647.1 117.3 1648.1 113.95 1649.95 107.65 1650.55 97.35 1651.4 84.5 1653.3 76.7
L 1656.2 73.8
Q 1658.3 73.55 1659.1 73.45 1659.95 73.4 1662.6 73.4
L 1720.4 73.25
Q 1724.75 73.6 1728.35 75.4
M 1739.95 119.7
L 1739.95 121.85
Q 1740.05 123.85 1740.15 124.5 1740.25625 124.925 1740.65 125.95
L 1740.3 123.85
Q 1740.1986328125 121.7205078125 1739.95 119.7 Z" stroke="none" fill="#7E1A34"></path>

<path d="M 1729.35 78.65
Q 1729.1 77 1728.35 75.4 1724.75 73.6 1720.4 73.25
L 1662.6 73.4
Q 1659.95 73.4 1659.1 73.45 1658.3 73.55 1656.2 73.8
L 1653.3 76.7
Q 1651.4 84.5 1650.55 97.35 1649.95 107.65 1648.1 113.95 1647.1 117.3 1646.8 119.1 1646.55 120.75 1645.85 127.75
L 1723.4 127.65
Q 1728.1 127.6 1731.5 127.35
L 1733.35 125.4
Q 1733.65 121.55 1732.75 115.95 1730.15 102.5 1729.7 88.3
L 1729.55 82.1
Q 1729.45 79.5 1729.35 78.65 Z" stroke="none" fill="#E21F2D"></path>

<path d="M 1747.1 418.45
Q 1743.8 416.95 1742.05 416.75 1740.3 416.65 1733.05 417
L 1717.05 417.5
Q 1707.5 417.8 1692.65 417.25 1684.65 416.95 1676.85 416.85 1670.25 416.9 1663.5 416.65 1654.45 416.3 1649.95 416.25
L 1644.9 416.25
Q 1638.45 415.85 1636.6 416 1633.05 416.1595703125 1630.2 417.3
L 1630.2 435.9
Q 1633.098828125 437.1869140625 1635.3 437.35 1638 437.55 1650.55 437.1
L 1658.4 436.9
Q 1668.7 436.85 1678.95 436.5 1690.75 436.1 1700.2 436 1721.3 435.65 1731.8 435.35
L 1735.3 435.25
Q 1740.1 435.2 1746.2 434.8
L 1747.15 433.85
Q 1748.05 429.25 1748.15 426.15 1748.2 422.15 1747.1 418.45
M 1737.45 256.4
L 1728.35 256.6
Q 1719.2 256.7 1712.3 257.25 1700.8 258.2 1685.05 258.3
L 1676.45 258.35
Q 1675.15 258.35 1653.05 258.15 1635.85 257.95 1635.65 258.35 1633.4 269.95 1636.85 277.5 1640.65 279.6 1642.6 279.85 1644.55 280.15 1652.65 279.65 1654.55 279.45 1658.4 279.35 1666.7 279.2 1673.35 278.8 1678.5 278.55 1688.85 278.2 1703.5 277.8 1706.45 277.65
L 1714.4 277.3
Q 1718.35 277.1 1722.4 277.1
L 1723.4 279.05
Q 1734.45 280.5 1742.65 278.95
L 1743.9 276.6
Q 1743.85 274.35 1743.8 273.55 1743.7 272.8 1743.35 270.5
L 1742.6 267.45
Q 1741.75 260.85 1739.65 256.9
L 1737.45 256.4 Z" stroke="none" fill="#9DAEEA"></path>

<path d="M 1634.1 181.75
Q 1632.1126953125 181.6806640625 1630.2 181.8
L 1630.2 189.9 1634.55 191.05
Q 1641.2 194.05 1645.15 195.4 1651.1 197.5 1656.3 197.9 1663.9 198.3 1672.1 201.05 1680.7 204.15 1685.25 203.9 1689.7 203.75 1708.1 199.6
L 1721.7 196.5
Q 1731.3 194.35 1739.75 193.95 1742.15 193.95 1742.8 193.9 1743.5 193.8 1745.2 193.4
L 1745.2 188.6 1747.1 188.6 1747.3 186.6 1747.25 182.85 1747.1 182.85 1741.3 182.85 1741.05 182.85
Q 1738.5125 183.1 1737.7 183.1 1736.95 183.1 1734.9 182.95
L 1726.2 182.35
Q 1718.55 181.9 1711.8 181.9
L 1709.05 181.85
Q 1695.3 181.75 1681.5 181.85
L 1634.1 181.75 Z" stroke="none" fill="#992A3F"></path>

<path d="M 1630.2 180.1
L 1630.2 181.8
Q 1632.1126953125 181.6806640625 1634.1 181.75
L 1681.5 181.85
Q 1695.3 181.75 1709.05 181.85
L 1711.8 181.9
Q 1718.55 181.9 1726.2 182.35
L 1734.9 182.95
Q 1736.95 183.1 1737.7 183.1 1738.5125 183.1 1741.05 182.85
L 1741.3 182.85 1741.3 179.1
Q 1740.8 179 1740.3 179 1739.2 178.95 1738.15 178.95 1737 178.95 1735.85 178.95 1734.6 178.95 1733.4 179 1732.1 179 1730.85 179.05 1725.5 179.3 1720.2 179.45 1719.4 179.5 1718.6 179.6 1717.6 179.6 1716.65 179.65 1715.6 179.75 1714.55 179.8 1713.4 179.8 1712.25 179.8 1711 179.85 1709.75 179.9 1708.35 179.9 1707 179.95 1705.55 180 1704.1 180.1 1702.5 180.1 1700.9 180.1 1699.8 180.1 1698.7 180.15 1698.05 180.15 1697.4 180.15 1696.65 180.1 1695.9 180.1 1694.25 180.05 1692.55 180.1 1689.55 179.8 1686.75 179.8 1684.15 179.8 1681.55 179.8 1678.9 179.75 1676.25 179.8 1670.8 179.9 1665.4 180.1
L 1630.7 180.25
Q 1630.4431640625 180.1744140625 1630.2 180.1
M 1690.6 132.6
Q 1681.45 132.5 1672.3 132.55 1662.4 132.5 1657.45 132.4
L 1647.15 132.15
Q 1643.7 132.5 1640.05 133.75 1639.8150390625 133.8087890625 1639.55 133.9 1633.87578125 136.7392578125 1630.2 138.8
L 1630.2 153.2
Q 1630.3955078125 153.1638671875 1630.6 153.1 1631.4 152.85 1632.25 152.65 1633.05 152.5 1633.9 152.35 1634.05 152.35 1634.25 152.35 1634.45 152.35 1634.7 152.35 1634.95 152.35 1635.3 152.35 1635.65 152.35 1636.05 152.3 1636.5 152.3 1637 152.3 1637.5 152.3 1638.05 152.3 1638.65 152.3 1639.3 152.3 1639.95 152.3 1640.7 152.3
L 1730.65 152.75
Q 1731.7 152.75 1732.8 152.8 1733.8 152.85 1734.85 152.95 1735.8 153.05 1736.8 153.2 1737.65 153.25 1738.6 153.4 1739.45 153.55 1740.35 153.7 1741.2 153.85 1742.05 154 1742.8 154.2 1743.65 154.45 1744.3 154.7 1744.95 155.1 1746 155.9 1746.95 156.85
L 1747.25 164.05 1747.1 182.85 1747.25 182.85 1747.3 186.6 1747.1 188.6 1745.2 188.6 1745.2 193.4
Q 1743.5 193.8 1742.8 193.9 1742.15 193.95 1739.75 193.95 1731.3 194.35 1721.7 196.5
L 1708.1 199.6
Q 1689.7 203.75 1685.25 203.9 1680.7 204.15 1672.1 201.05 1663.9 198.3 1656.3 197.9 1651.1 197.5 1645.15 195.4 1641.2 194.05 1634.55 191.05
L 1630.2 189.9 1630.2 417.3
Q 1633.05 416.1595703125 1636.6 416 1638.45 415.85 1644.9 416.25
L 1649.95 416.25
Q 1654.45 416.3 1663.5 416.65 1670.25 416.9 1676.85 416.85 1684.65 416.95 1692.65 417.25 1707.5 417.8 1717.05 417.5
L 1733.05 417
Q 1740.3 416.65 1742.05 416.75 1743.8 416.95 1747.1 418.45 1748.2 422.15 1748.15 426.15 1748.05 429.25 1747.15 433.85
L 1746.2 434.8
Q 1740.1 435.2 1735.3 435.25
L 1731.8 435.35
Q 1721.3 435.65 1700.2 436 1690.75 436.1 1678.95 436.5 1668.7 436.85 1658.4 436.9
L 1650.55 437.1
Q 1638 437.55 1635.3 437.35 1633.098828125 437.1869140625 1630.2 435.9
L 1630.2 466.75
Q 1635.3341796875 467.2283203125 1641.3 467.3 1648.5 467.35 1662.8 467.05
L 1728.3 466.75
Q 1736.9931640625 466.517578125 1741.8 465.7 1742.2359375 465.533203125 1742.65 465.3
L 1744.4 461.8 1749.2 456.95
Q 1752.25 453.9 1753 452.7 1753.85 451.55 1755.55 447.65 1756 443.4 1755.95 434.85
L 1755.95 405.05
Q 1755.95 370.65 1756.25 347.85 1756.75 316.65 1758.1 290.7
L 1759.6 262.55
Q 1759.9 259.7 1760.35 256.8 1760.95 252.95 1761.15 248.3
L 1762.55 218.3
Q 1763.5 196.45 1763.5 184.15
L 1763.45 181.6
Q 1763.4 171.65 1761.3 163.75 1758.95 154.8 1753.9 147.4 1748.75 140.65 1740.05 135.65
L 1737.5 134.2
Q 1736.8787109375 133.928125 1736.25 133.7
L 1735.6 133.7
Q 1734.95 133.4 1734.3 133.15 1731.85 132.8 1731 132.75 1730.15 132.7 1727.5 132.75
L 1690.6 132.6
M 1728.35 256.6
L 1737.45 256.4 1739.65 256.9
Q 1741.75 260.85 1742.6 267.45
L 1743.35 270.5
Q 1743.7 272.8 1743.8 273.55 1743.85 274.35 1743.9 276.6
L 1742.65 278.95
Q 1734.45 280.5 1723.4 279.05
L 1722.4 277.1
Q 1718.35 277.1 1714.4 277.3
L 1706.45 277.65
Q 1703.5 277.8 1688.85 278.2 1678.5 278.55 1673.35 278.8 1666.7 279.2 1658.4 279.35 1654.55 279.45 1652.65 279.65 1644.55 280.15 1642.6 279.85 1640.65 279.6 1636.85 277.5 1633.4 269.95 1635.65 258.35 1635.85 257.95 1653.05 258.15 1675.15 258.35 1676.45 258.35
L 1685.05 258.3
Q 1700.8 258.2 1712.3 257.25 1719.2 256.7 1728.35 256.6
M 1742 220.6
L 1742 223.45
Q 1741.9 227.55 1741.45 229.4 1740.8 231.75 1738.6 234.75
L 1737.65 238.6
Q 1733.15 240.75 1726.4 241.55 1723.2 241.85 1714.65 242.05
L 1712 242.15
Q 1708.6 242.15 1706.65 241.7 1704.2 241.15 1701.6 239.5 1698.55 236.2 1697.85 235.3 1697.25 234.3 1696.3 232 1695.95 229 1695.85 227.9 1695.8 226.85 1695.8 223.45
L 1695.75 218.9
Q 1696.05 215.55 1696.95 213.55 1697.8 211.6 1700.05 208.9
L 1701.8 206.7
Q 1706.2 202.65 1711.85 201.25 1715.6 200.35 1723.35 200.1
L 1726.7 200
Q 1731.85 199.95 1735.6 201.1 1737.75 202.85 1739.15 204.95 1740.4 206.75 1741.4 209.7 1742.15 214.25 1742 220.6 Z" stroke="none" fill="#F5F7F9"></path>

<path d="M 1636.05 152.3
Q 1635.65 152.35 1635.3 152.35 1634.95 152.35 1634.7 152.35 1634.45 152.35 1634.25 152.35 1634.05 152.35 1633.9 152.35 1633.05 152.5 1632.25 152.65 1631.4 152.85 1630.6 153.1 1630.3955078125 153.1638671875 1630.2 153.2
L 1630.2 180.1
Q 1630.4431640625 180.1744140625 1630.7 180.25
L 1665.4 180.1
Q 1670.8 179.9 1676.25 179.8 1678.9 179.75 1681.55 179.8 1684.15 179.8 1686.75 179.8 1689.55 179.8 1692.55 180.1 1694.25 180.05 1695.9 180.1 1696.65 180.1 1697.4 180.15 1698.05 180.15 1698.7 180.15 1699.8 180.1 1700.9 180.1 1702.5 180.1 1704.1 180.1 1705.55 180 1707 179.95 1708.35 179.9 1709.75 179.9 1711 179.85 1712.25 179.8 1713.4 179.8 1714.55 179.8 1715.6 179.75 1716.65 179.65 1717.6 179.6 1718.6 179.6 1719.4 179.5 1720.2 179.45 1725.5 179.3 1730.85 179.05 1732.1 179 1733.4 179 1734.6 178.95 1735.85 178.95 1737 178.95 1738.15 178.95 1739.2 178.95 1740.3 179 1740.8 179 1741.3 179.1
L 1741.3 182.85 1747.1 182.85 1747.25 164.05 1746.95 156.85
Q 1746 155.9 1744.95 155.1 1744.3 154.7 1743.65 154.45 1742.8 154.2 1742.05 154 1741.2 153.85 1740.35 153.7 1739.45 153.55 1738.6 153.4 1737.65 153.25 1736.8 153.2 1735.8 153.05 1734.85 152.95 1733.8 152.85 1732.8 152.8 1731.7 152.75 1730.65 152.75
L 1640.7 152.3
Q 1639.95 152.3 1639.3 152.3 1638.65 152.3 1638.05 152.3 1637.5 152.3 1637 152.3 1636.5 152.3 1636.05 152.3 Z" stroke="none" fill="#110F1A"></path>

<path d="M 1742 223.45
L 1742 220.6
Q 1742.15 214.25 1741.4 209.7 1740.4 206.75 1739.15 204.95 1737.75 202.85 1735.6 201.1 1731.85 199.95 1726.7 200
L 1723.35 200.1
Q 1715.6 200.35 1711.85 201.25 1706.2 202.65 1701.8 206.7
L 1700.05 208.9
Q 1697.8 211.6 1696.95 213.55 1696.05 215.55 1695.75 218.9
L 1695.8 223.45
Q 1695.8 226.85 1695.85 227.9 1695.95 229 1696.3 232 1697.25 234.3 1697.85 235.3 1698.55 236.2 1701.6 239.5 1704.2 241.15 1706.65 241.7 1708.6 242.15 1712 242.15
L 1714.65 242.05
Q 1723.2 241.85 1726.4 241.55 1733.15 240.75 1737.65 238.6
L 1738.6 234.75
Q 1740.8 231.75 1741.45 229.4 1741.9 227.55 1742 223.45
M 1734.25 211.65
Q 1736.1 215.05 1736.65 218.2 1737 220.8 1736.65 225.15
L 1735.7 226.1
Q 1734.65 228.65 1734.2 229.5 1733.7 230.3 1731.9 232.8 1726.9 235.35 1721.05 236 1716.05 236.6 1709.75 235.8 1706.6 234.7 1705.75 234.1 1704.9 233.55 1703 231.05 1701.05 226.55 1701.05 221.45 1703.25 216.65 1704.3 215.25 1705.4 213.85 1709.5 210.35 1712.1 208.5 1714.4 207.7 1716.7 206.9 1719.95 206.7
L 1723.85 206.75
Q 1727.3 206.75 1730.8 206.85 1731.85 207.85 1732.25 208.5 1732.7 209.05 1734.25 211.65 Z" stroke="none" fill="#5D5A76"></path>

<path d="M 1736.65 218.2
Q 1736.1 215.05 1734.25 211.65 1732.7 209.05 1732.25 208.5 1731.85 207.85 1730.8 206.85 1727.3 206.75 1723.85 206.75
L 1719.95 206.7
Q 1716.7 206.9 1714.4 207.7 1712.1 208.5 1709.5 210.35 1705.4 213.85 1704.3 215.25 1703.25 216.65 1701.05 221.45 1701.05 226.55 1703 231.05 1704.9 233.55 1705.75 234.1 1706.6 234.7 1709.75 235.8 1716.05 236.6 1721.05 236 1726.9 235.35 1731.9 232.8 1733.7 230.3 1734.2 229.5 1734.65 228.65 1735.7 226.1
L 1736.65 225.15
Q 1737 220.8 1736.65 218.2 Z" stroke="none" fill="#F1F3F7"></path>

<path d="M 1728.25 67.8
Q 1728.15 66.95 1728 66.2 1727.1 61.3 1720.35 55.6 1713.8 50.9 1713.8 50.55 1671.707421875 40.03828125 1630.2 50.7
L 1630.2 65.55 1656.1 66.2 1657.1 69.1 1728.25 67.8 Z" stroke="none" fill="#DF202E"></path>
</g>
</g>
</g>
</g>

<g transform="matrix( 0.3621063232421875, 0, 0, 0.3621063232421875, -594.2,0.1)" id="Layer_3">
<g>
<g>
<g>
<path d="M 1660.05 468.75
L 1653.1 468.65
Q 1652.35 474.8 1654.05 482.4 1655.1 487 1658.1 495.85 1644.26640625 495.2716796875 1630.2 496.75
L 1630.2 509
Q 1648.886328125 509.0216796875 1667.55 508.05 1667.85 505.45 1667.85 502.75 1667.75 498.25 1666.9 494.85
L 1661.75 478.2
Q 1660.85 475.1 1660.5 473.55 1659.95 470.9 1660.05 468.75
M 1709.75 470.8
Q 1709.6 471 1709.5 471.5
L 1704.9 497.3
Q 1704.3 501.05 1704.15 502.95 1703.9 506.1 1704.3 508.6 1719.15 508.45 1755.05 507.3
L 1755 488.95
Q 1749.6 488.2 1744.2 489.4 1742 489.9 1738.95 490.95
L 1728.5 494.35
Q 1723.25 496.05 1720.8 496.7 1716.45 497.9 1712.85 498.3 1712.95 497.1 1713.65 493.15
L 1715.95 481.45
Q 1716.65 477.95 1716.85 476.05 1717.15 473.05 1716.8 470.65
L 1710.85 470.55
Q 1710.15 470.45 1709.75 470.8
M 1795.75 468.9
Q 1795.15 466.25 1792.85 461.9 1783.7 445 1773.7 435.45 1770.9 432.75 1768.8 432.2 1767.65 431.9 1765.8 431.9 1763.1 431.9 1762.75 431.85 1763 432.85 1762.7 435.4 1762.45 437.7 1763.05 438.8 1763.5 439.6 1764.9 440.7 1771.35 445.95 1777.15 454.25 1781.4 460.25 1786.65 470.05 1788.55 473.65 1789.05 475.6 1789.4 477.15 1789.1 478.25 1788.8 479.1 1787.9 480.3
L 1783.9 485.75
Q 1784.2 485.3 1783.95 484.65 1783.75 484.05 1783.25 483.75 1782.6 483.35 1781 483.35
L 1773.55 483.3
Q 1773.35 484.65 1773.4 485.95
L 1769.85 486.4
Q 1769.8 490.35 1769.95 495.3 1771.35 495.15 1776.6 495.45 1780.7 495.7 1783 494.7 1784.7 493.9 1785 493.85 1785.55 493.7 1786.7 493.75 1787.85 493.8 1788.4 493.7 1790.2 493.4 1791.8 491.2 1793.3 488.7 1794.2 487.55 1795.5 486.05 1795.75 485.5 1796.2 484.5 1796.2 482.5
L 1796.2 475.15
Q 1796.2 470.95 1795.75 468.9
M 1651.55 361.2
Q 1645.05 364.6 1640.55 368.5 1636.6 371.8 1635 375.25 1632.9 379.65 1633.8 384.35
L 1640.5 384.35
Q 1642 381.4 1643.95 379.05 1646.55 375.9 1649.1 375.15 1649.4 375.05 1650.5 374.85 1651.4 374.7 1651.9 374.5 1652.85 374.2 1654.75 372.7 1658.6 369.7 1663.05 367.65 1665.55 366.55 1667.3 366.25 1668.85 365.95 1671.35 365.95
L 1683 365.75
Q 1694.7 365.55 1700.9 366.25 1710.75 367.4 1717.75 371.15 1718.9 371.8 1721.1 373.1 1723.1 374.25 1724.55 374.8 1728.35 376.3 1731.9 375.55 1733 372.5 1732.3 368.95 1731.65 365.7 1729.65 362.8 1726.75 358.6 1719.65 353.95 1715.2 351.15 1712.35 350.5 1710.55 350.05 1706.15 349.95
L 1689 349.95
Q 1683 349.95 1679.05 350.55 1675.5 351.15 1671.2 352.7 1668.8 353.55 1663.65 355.7 1655.6 359.1 1651.55 361.2
M 1688.9 357
Q 1692.05 356.75 1698.3 356.75 1702.55 356.75 1704.9 357.15 1708.5 357.8 1710.8 359.65 1704 358.85 1695.3 358.7 1690.55 358.6 1679.75 358.7 1683.7 357.4 1688.9 357
M 1659.75 291.3
Q 1659.3 292.2 1658.25 295.35
L 1655.85 303.4
Q 1655.25 305.75 1655.15 306.3 1654.85 308 1654.9 310.75 1655 314.35 1654.95 315.25
L 1661.95 315.35 1661.95 314.15
Q 1663.55 314.35 1665 313.35 1666.4 312.3 1666.75 310.75 1666.85 309.55 1667 309 1667.6 307.8 1667.8 307.1 1668 306.5 1668 305.15
L 1668 289.2 1661.3 289.15
Q 1661 289.15 1660.85 289.25 1660.7 289.3 1660.5 289.75 1660.2 290.5 1659.75 291.3
M 1635.35 228.05
Q 1635.45 228.95 1635.35 231.3 1635.25 233.35 1635.5 234.5 1635.85 236.2 1637.8 239.05 1646.25 251.6 1651.35 257.65 1652.35 258.8 1658.3 265.45 1662.6 270.2 1664.95 273.5 1666.4 275.55 1667.5 276.1 1668.7 276.7 1670.95 276.45 1673.6 276.15 1674.55 276.4 1674.95 272.4 1674.4 270.3 1674.15 269.25 1673.45 268.05 1672.85 266.95 1671.4 265.45
L 1661.9 254.8
Q 1651.1 242.45 1642.55 228.2
L 1635.35 228.05
M 1713.75 292.4
Q 1712.95 293.55 1712.65 294.45 1712 296 1712.1 299.1
L 1712.15 306.9 1718.05 307
Q 1719.45 307 1720.1 306.8 1720.65 306.6 1721.55 305.9
L 1724.85 303.35
Q 1726.6 301.9 1726.8 301.65 1727.55 300.85 1729.1 298.05 1729.95 296.25 1730 295.7 1730.1 295.25 1730.1 294.3
L 1730.1 286.1
Q 1729.25 286.15 1725.65 286 1722.95 285.9 1721.3 286.35 1717.2 287.4 1713.75 292.4
M 1731.95 234.4
Q 1732.65 233.45 1732.9 232.75 1733.3 231.6 1733.15 229.45 1732.95 227.05 1733.1 226.1 1732.25 226.25 1731.1 226.15 1729.75 226 1729.05 225.95 1726.45 225.75 1725.15 226.9 1724.55 227.4 1724.1 228.3 1724 228.55 1723.4 230 1722.1 233.25 1718.6 238
L 1704.15 257.45
Q 1701.9 260.55 1701.4 262.25 1701.05 263.5 1701.05 266.65
L 1701.1 272.15
Q 1701.1 272.95 1701.4 273.3 1701.75 273.65 1702.65 273.65
L 1708.55 273.7
Q 1707.75 270.35 1709.8 266.35 1710.9 264.35 1714.25 260.25 1717.25 256.5 1721.9 250.1
L 1725.7 244.9
Q 1728.1 241.6 1728.85 240 1730.05 237.25 1730.85 236 1731.6 234.95 1731.95 234.4 Z" stroke="none" fill="#000000"></path>

<path d="M 1698.3 356.75
Q 1692.05 356.75 1688.9 357 1683.7 357.4 1679.75 358.7 1690.55 358.6 1695.3 358.7 1704 358.85 1710.8 359.65 1708.5 357.8 1704.9 357.15 1702.55 356.75 1698.3 356.75 Z" stroke="none" fill="#FFFFFF"></path>
</g>
</g>
</g>
</g>

<g transform="matrix( 0.3621063232421875, 0, 0, 0.3621063232421875, -594.2,0.1)" id="Layer_6">
<g>
<g>
<g>
<path d="M 1936.95 138.8
L 1936.95 127.1
Q 1932.073046875 130.6505859375 1928.65 134.65 1924.65 140.35 1922.85 147.75 1921.35 153.85 1921.25 162
L 1921 211
Q 1921.05 222.35 1920.85 244.8
L 1920.75 263.1
Q 1920.65 279.65 1920.6 282.5 1920.45 293.5 1920.05 301.95 1919.5 311.75 1919.7 324.55 1919.95 348.45 1919.55 366.8 1918.95 396.55 1918.95 414.9
L 1918.95 434.3
Q 1918.95 443.1 1920.1 448.1 1922.65 454.95 1928.7 460.05 1932.35 461.85 1936.65 462.8 1936.7986328125 462.828515625 1936.95 462.85
L 1936.95 455.5
Q 1934.8044921875 454.7408203125 1933.55 453.8 1931.9 452.7 1929.9 450.1 1927.55 445.7 1926.55 442.35 1925.5 438.6 1925.45 434
L 1925.65 395.65
Q 1925.75 387.5 1925.75 383.45
L 1926.5 310.35
Q 1927 253.35 1927.5 231.5 1928 214 1928 201.4
L 1928.2 164.8
Q 1928.15 158.7 1928.35 156.2 1928.65 151.6 1929.95 147.85
L 1931.45 145.1
Q 1934.545703125 141.45703125 1936.95 138.8 Z" stroke="none" fill="#706C84"></path>

<path d="M 1936.95 138.8
Q 1934.545703125 141.45703125 1931.45 145.1
L 1929.95 147.85
Q 1928.65 151.6 1928.35 156.2 1928.15 158.7 1928.2 164.8
L 1928 201.4
Q 1928 214 1927.5 231.5 1927 253.35 1926.5 310.35
L 1925.75 383.45
Q 1925.75 387.5 1925.65 395.65
L 1925.45 434
Q 1925.5 438.6 1926.55 442.35 1927.55 445.7 1929.9 450.1 1931.9 452.7 1933.55 453.8 1934.8044921875 454.7408203125 1936.95 455.5
L 1936.95 138.8 Z" stroke="none" fill="#F5F7F9"></path>

<path d="M 1936.95 37.25
Q 1936.3650390625 37.444921875 1935.8 37.65 1934.95 39.3 1934.85 40.45 1934.7 41.55 1934.75 46.5
L 1934.75 49.2
Q 1934.7 51.15 1934.65 55.1 1934.75 58.5 1935.9 60.75 1936.4650390625 61.02265625 1936.95 61.25
L 1936.95 37.25 Z" stroke="none" fill="#7E1A34"></path>
</g>
</g>
</g>
</g>

<g transform="matrix( 0.3621063232421875, 0, 0, 0.3621063232421875, -594.2,0.1)" id="MergedLayer_1">
<g>
<g>
<g>
<path d="M 1936.95 488.65
Q 1936.02265625 489.4763671875 1934.4 490.45 1933.6 490.95 1933.4 491.4 1933.2 491.75 1933.2 492.55
L 1933.25 498.25 1934.2 498.45 1934.2 501.3
Q 1935.6908203125 501.33046875 1936.95 501.35
L 1936.95 488.65
M 1917.1 461.85
Q 1917.05 462.5 1917.15 465.1 1917.2 467.15 1916.9 468.35 1916.8 469.05 1916.45 470
L 1915.85 471.65
Q 1915.6 472.5 1915.45 473.65
L 1913.4 473.6
Q 1912.95 474.6 1912.95 476.85 1912.85 482.4 1913.2 485.15 1913.3 486 1913.55 486.3 1913.9 486.65 1914.4 486.8 1915.2 487.1 1916.35 487.2 1918.15 487.4 1923.05 487.4
L 1923.05 478.3
Q 1923.45 477.6 1923.6 477.2 1924.05 476.15 1924.05 474.3 1924.1 472.25 1924.1 461.95
L 1917.1 461.85 Z" stroke="none" fill="#000000"></path>
</g>
</g>
</g>
</g>

<g transform="matrix( 0.3621063232421875, 0, 0, 0.3621063232421875, -594.2,0.1)" id="Layer_2">
<g>
<g>
<g>
<path d="M 1936.95 249.85
Q 1927.896484375 254.9576171875 1924.65 271.7 1924.85 277.75 1924.6 283.8 1924 297.5 1926.6 311 1929.35 325.3 1930.35 340.05 1931.2 352.7 1933 365.3 1934.65 377.1 1936.7 388.7 1936.823046875 389.390234375 1936.95 390.05
L 1936.95 249.85 Z" stroke="none" fill="#000000"></path>
</g>
</g>
</g>
</g>
</g>
</svg>
