<svg version="1.1" xmlns="http://www.w3.org/2000/svg" xmlns:xlink="http://www.w3.org/1999/xlink" width="127.23952" height="123.99615" viewBox="0,0,127.23952,123.99615"><g transform="translate(-256,-120.20385)"><g data-paper-data="{&quot;isPaintingLayer&quot;:true}" fill-rule="nonzero" stroke="none" stroke-width="1" stroke-linecap="butt" stroke-linejoin="miter" stroke-miterlimit="10" stroke-dasharray="" stroke-dashoffset="0" style="mix-blend-mode: normal"><g><path d="M259.2,176.55c0.63789,-0.13295 1.25456,-0.31628 1.85,-0.55c0.178,-0.06575 0.34466,-0.13242 0.5,-0.2c3.53099,-1.53086 7.08099,-2.89753 10.65,-4.1c-0.05352,-0.08711 -0.10351,-0.18711 -0.15,-0.3c-2.96666,-7.1 -4.28333,-14.55 -3.95,-22.35c0.00716,-0.16758 0.00716,-0.33425 0,-0.5c0.27409,-3.69414 1.60742,-6.96081 4,-9.8c3.93333,-4.8 8.85,-8.33334 14.75,-10.6c12.63333,-4.9 25.76666,-7.51667 39.4,-7.85c7.93334,-0.33334 15.76666,0.2 23.5,1.6c8.53334,1.56667 14.25,6.26666 17.15,14.1c0.9,2.5 1.18333,5.08334 0.85,7.75c-0.21875,1.6599 -0.56875,3.2599 -1.05,4.8c-0.57187,1.93633 -1.35521,3.76966 -2.35,5.5c2.27305,1.46719 4.38971,3.16719 6.35,5.1c2.1,1.73334 3.76666,3.78333 5,6.15c1.98763,3.7513 3.58763,7.6013 4.8,11.55c0.25847,0.76992 0.49179,1.53659 0.7,2.3c0.21654,0.7914 0.41654,1.57474 0.6,2.35c0.37878,1.67265 0.67877,3.33933 0.9,5c0.17291,1.15495 0.30625,2.30495 0.4,3.45c0.30716,3.81276 0.10716,7.51276 -0.6,11.1c-0.60547,3.03047 -1.57214,5.98047 -2.9,8.85c-0.7,1.46667 -1.48334,2.9 -2.35,4.3c-0.9,1.4 -1.83334,2.78333 -2.8,4.15c-0.03334,0.06667 -0.06666,0.13334 -0.1,0.2c-0.12682,0.24388 -0.27683,0.44388 -0.45,0.6c-1.96185,5.30091 -4.01185,10.60091 -6.15,15.9c-1.36667,3.3 -3.33333,6.1 -5.9,8.4c-0.33333,0.3 -0.68333,0.3 -1.05,0c-1.36667,-1 -2.3,-2.31667 -2.8,-3.95c-0.83659,-2.76719 -1.16992,-5.53386 -1,-8.3c-4.22109,2.56002 -8.75443,4.4267 -13.6,5.6c-7.1,1.73334 -14.18333,1.76666 -21.25,0.1c-6.36771,-1.51849 -12.36771,-3.85182 -18,-7c0.02877,1.31823 -0.13789,2.6349 -0.5,3.95c-0.03334,1 -0.33333,1.95 -0.9,2.85c-0.36667,0.6 -0.65,1.21667 -0.85,1.85c-0.93333,2.66666 -2.56667,4.51666 -4.9,5.55c-0.36667,0.2 -0.68333,0.1 -0.95,-0.3c-1.36667,-2.06667 -2.26666,-4.35 -2.7,-6.85c-1.03334,-6.3 -2.73334,-12.41666 -5.1,-18.35c-0.17474,-0.43698 -0.2914,-0.83698 -0.35,-1.2c-2.5793,-3.49844 -4.66263,-7.23177 -6.25,-11.2c-0.32682,-0.80951 -0.62682,-1.62617 -0.9,-2.45c-0.50664,0.07148 -1.05664,0.02148 -1.65,-0.15c-1.43333,-0.43333 -2.9,-0.71667 -4.4,-0.85c-2.92604,-0.23008 -5.72604,-0.79674 -8.4,-1.7c-2.70039,-0.92786 -5.26705,-2.2112 -7.7,-3.85c-0.3,-0.2 -0.41667,-0.48333 -0.35,-0.85c0.23334,-1.43333 1.1,-2.5 2.6,-3.2c0.66667,-0.3 1.3,-0.61667 1.9,-0.95c1.9,-1.06667 3.76667,-2.16666 5.6,-3.3c-1.92032,-0.99675 -3.77031,-2.09674 -5.55,-3.3c-1.94909,-1.27122 -3.81576,-2.67122 -5.6,-4.2c-0.29883,-0.23451 -0.59883,-0.48451 -0.9,-0.75c-0.2,-0.2 -0.3,-0.45 -0.3,-0.75c0.1,-1.8 1.16666,-2.91666 3.2,-3.35M330.05,146.85c6.96693,-0.403 13.80026,0.16367 20.5,1.7c1.07903,0.24245 2.1457,0.50911 3.2,0.8c2.51771,0.70651 4.90104,1.62318 7.15,2.75c0.10339,-0.28307 0.23672,-0.58308 0.4,-0.9c0.46666,-0.86667 0.88333,-1.75 1.25,-2.65c-0.03334,-0.26666 -0.01666,-0.53334 0.05,-0.8c0.16667,-0.8 0.36666,-1.6 0.6,-2.4c0.4,-1.33334 0.63333,-2.7 0.7,-4.1c0.06667,-2.26666 -0.38333,-4.43333 -1.35,-6.5c-0.83333,-1.46667 -1.9,-2.73334 -3.2,-3.8c-5.1,-4.26667 -11.05,-6.51666 -17.85,-6.75c-10.53334,-0.3 -21.03334,0.2 -31.5,1.5c-11.63333,1.43333 -22.18333,5.53334 -31.65,12.3c-1.93333,1.36667 -3.51666,3.05 -4.75,5.05c-0.13333,0.53333 -0.31667,1.05 -0.55,1.55c-0.63099,1.26185 -1.04766,2.57852 -1.25,3.95c-0.13281,1.01979 -0.14948,2.06979 -0.05,3.15c0.36667,4.6 1.08333,9.15 2.15,13.65c0.63333,1.26666 1.28334,2.53334 1.95,3.8c0.29505,0.51992 0.49505,1.03659 0.6,1.55c1.50261,0.61576 1.76927,1.66576 0.8,3.15c-0.36667,0.6 -0.9,0.98334 -1.6,1.15c-0.95534,0.21836 -1.90534,0.46836 -2.85,0.75c-1.33411,0.41549 -2.65078,0.89883 -3.95,1.45c-2.43333,1 -4.86667,1.98334 -7.3,2.95c0.68828,0.38893 1.37162,0.77227 2.05,1.15c2.31563,1.39375 4.56563,2.84375 6.75,4.35c0.76576,0.53321 1.51576,1.06653 2.25,1.6c1.56667,1.13333 1.58333,2.26667 0.05,3.4c-0.7,0.56667 -1.43333,1.08333 -2.2,1.55c-2.1,1.33334 -4.21666,2.61667 -6.35,3.85c4.93554,1.7556 10.05221,2.83893 15.35,3.25c-1.05795,-4.43554 -1.45794,-8.96888 -1.2,-13.6c0.06185,-0.67265 0.12851,-1.35599 0.2,-2.05c0.09297,-0.84896 0.20964,-1.68229 0.35,-2.5c0.3737,-1.91823 0.90703,-3.76823 1.6,-5.55c1.47265,-3.69323 3.68933,-7.05989 6.65,-10.1c8.53802,-8.74062 18.52135,-14.39062 29.95,-16.95c3.63021,-0.80808 7.39688,-1.30808 11.3,-1.5c0.63333,-0.03333 1.21666,-0.1 1.75,-0.2M330.45,167c0.5,0.03333 0.93333,0.2 1.3,0.5c0.84179,1.1224 1.49179,2.33907 1.95,3.65c0.44974,-2.17239 1.7664,-3.45573 3.95,-3.85c0.93333,-0.13333 1.81667,-0.26667 2.65,-0.4c4.63333,0.03333 9.26666,0.26666 13.9,0.7c4.63333,0.43333 9.26667,0.86667 13.9,1.3c1.86667,0.16666 3.08333,1.08334 3.65,2.75c0.5,1.43333 0.71666,2.93333 0.65,4.5c-0.00495,0.14713 -0.02161,0.29713 -0.05,0.45c-0.03034,1.60052 -0.04701,3.18385 -0.05,4.75c0.00299,1.71185 0.03633,3.41185 0.1,5.1c0.04206,1.48541 0.10873,2.96875 0.2,4.45c0.20768,3.39128 0.25768,6.77461 0.15,10.15c-0.05377,1.50156 -0.13711,3.00156 -0.25,4.5c-0.14271,2.0832 -0.32604,4.14987 -0.55,6.2c0.46602,0.23203 0.83268,0.61536 1.1,1.15c1.6,-1.83334 2.86667,-3.91666 3.8,-6.25c0.73789,-1.83034 1.30455,-3.697 1.7,-5.6c0.57162,-2.56732 0.83828,-5.20065 0.8,-7.9c-0.0405,-2.24701 -0.20716,-4.46367 -0.5,-6.65c-0.19896,-1.4125 -0.44896,-2.8125 -0.75,-4.2c-0.05977,-0.27943 -0.12643,-0.56276 -0.2,-0.85c-0.36797,-1.61393 -0.81797,-3.19726 -1.35,-4.75c-2.3444,-6.61693 -6.1944,-12.36693 -11.55,-17.25c-1.3,-1.16666 -2.73334,-2.15 -4.3,-2.95c-9.63333,-4.76666 -19.95,-6.73334 -30.95,-5.9c-9.06666,0.66666 -17.63333,3 -25.7,7c-8.25651,4.11185 -14.65651,10.09518 -19.2,17.95c-0.04037,0.1276 -0.09037,0.24427 -0.15,0.35c-0.5,0.9 -0.9,1.85 -1.2,2.85c-0.23607,0.78581 -0.45273,1.56914 -0.65,2.35c-0.3487,1.54948 -0.61536,3.09948 -0.8,4.65c-0.53334,5.07539 -0.03334,10.17539 1.5,15.3c0.13333,0.4 0.26666,0.8 0.4,1.2c1.5,4.5 3.86667,8.53333 7.1,12.1c0.06667,-2.06667 0.06667,-4.13333 0,-6.2c-0.08672,-2.37578 -0.15339,-4.74245 -0.2,-7.1c-0.01601,-2.17435 -0.01601,-4.34101 0,-6.5c0,-2.98242 0.2,-5.89909 0.6,-8.75c0.1017,-0.54844 0.2017,-1.09844 0.3,-1.65c0.06667,-0.26666 0.23334,-0.43333 0.5,-0.5c1.56667,-0.43333 3.18333,-0.36667 4.85,0.2c2.5,0.83334 5.08333,1.48334 7.75,1.95c0.24414,0.03997 0.47747,0.07331 0.7,0.1c7.50977,1.23477 14.9931,2.38476 22.45,3.45c-0.02904,-1.10104 -0.02904,-2.20104 0,-3.3c0.02461,-0.1388 0.04127,-0.2888 0.05,-0.45c0.06784,-1.54362 0.10117,-3.09362 0.1,-4.65c0.01576,-1.45989 -0.00091,-2.92656 -0.05,-4.4c-0.00651,-0.31745 -0.00651,-0.63412 0,-0.95c0.03476,-2.86836 0.5181,-5.53502 1.45,-8c0.13333,-0.4 0.43333,-0.6 0.9,-0.6M337.4,171.85c-0.03334,0.06667 -0.05,0.11667 -0.05,0.15c-0.03334,0.16666 -0.08334,0.33334 -0.15,0.5c-0.03334,0.13333 -0.05,0.25 -0.05,0.35c0,0.16666 -0.05,0.3 -0.15,0.4c-0.02943,0.82448 -0.06276,1.64114 -0.1,2.45c0.0039,0.12448 0.0039,0.24115 0,0.35c1.53334,0.13333 3.05,0.25 4.55,0.35c0.0194,-0.19935 0.03607,-0.39935 0.05,-0.6c0.10976,-1.16601 0.1931,-2.33268 0.25,-3.5c-0.2,-0.46667 -0.25,-0.91667 -0.15,-1.35c-0.46666,-0.03333 -0.95,-0.05 -1.45,-0.05c-0.56667,0.13333 -1.15,0.25 -1.75,0.35c-0.2,0.03333 -0.41666,0.06667 -0.65,0.1c-0.1,0.13333 -0.18333,0.26667 -0.25,0.4c-0.03334,0.03333 -0.06667,0.06667 -0.1,0.1M295,194.3c-0.03776,1.01927 -0.0711,2.03594 -0.1,3.05c0.42591,0.52865 0.67591,1.24532 0.75,2.15c0.0431,0.51666 0.0931,1.03334 0.15,1.55c0.08607,0.68333 0.18607,1.36666 0.3,2.05c2.23334,6 6.58333,9.36666 13.05,10.1c4.76666,0.53333 8.81667,-0.8 12.15,-4c0.29636,-0.50586 0.57969,-1.02252 0.85,-1.55c-3.1388,-0.71315 -5.7888,-2.31315 -7.95,-4.8c-0.47031,-0.5487 -0.87032,-1.1487 -1.2,-1.8c-0.06133,-0.17943 -0.12799,-0.36276 -0.2,-0.55c-1.43333,-2.4 -2.43333,-5.01666 -3,-7.85c-0.147,-0.73489 -0.13034,-1.3849 0.05,-1.95c-4.96797,-0.85586 -9.88464,-1.77253 -14.75,-2.75c0,2.1 -0.03334,4.21667 -0.1,6.35M299.4,221.55c6.23334,5.13333 13.21667,8.7 20.95,10.7c2.43333,0.63333 4.9,1.1 7.4,1.4c5.96666,0.73334 11.83334,0.43333 17.6,-0.9c5.83294,-2.64427 11.23294,-5.96094 16.2,-9.95c-0.45052,0.03333 -0.90052,0.05 -1.35,0.05c-1.3,0.03333 -2.58333,0.05 -3.85,0.05c-4.03334,0.06667 -8.06666,0.03333 -12.1,-0.1c-1.16667,-0.03333 -2.33333,-0.03333 -3.5,0c-2.13333,0.03333 -4.03333,-0.53334 -5.7,-1.7c-0.5,-0.36667 -0.71667,-0.86667 -0.65,-1.5c0.1,-0.73334 0.48334,-1.26666 1.15,-1.6c-0.06667,-0.7 -0.15,-1.38334 -0.25,-2.05c-0.23334,-1.33334 -0.45,-2.68333 -0.65,-4.05c-0.5987,-3.59232 -0.9987,-7.20898 -1.2,-10.85c-0.01407,-0.61588 -0.03073,-1.23255 -0.05,-1.85c-0.11914,-4.35013 -0.21914,-8.71679 -0.3,-13.1c0.00703,-0.51328 0.00703,-1.02995 0,-1.55c-0.02083,-0.66862 -0.0375,-1.33528 -0.05,-2c-0.11289,-0.23867 -0.21289,-0.48867 -0.3,-0.75c-0.08281,-0.30352 -0.21614,-0.57018 -0.4,-0.8c-0.02643,-0.05403 -0.05977,-0.10404 -0.1,-0.15c0,0.04974 0,0.09974 0,0.15v0.05c0,0.93333 -0.05,1.85 -0.15,2.75c-0.0888,0.76393 -0.1388,1.5306 -0.15,2.3c0.00443,0.68164 0.03776,1.36498 0.1,2.05c0.13333,1.6 -0.05,3.11666 -0.55,4.55c-0.72422,0.20808 -1.45755,0.35808 -2.2,0.45c0.26315,2.71354 0.11315,5.34688 -0.45,7.9c-0.79179,3.61015 -2.40847,7.07682 -4.85,10.4c-0.73334,1 -1.63333,1.85 -2.7,2.55c-4.73334,3.03333 -9.95,3.85 -15.65,2.45c-4.44961,-1.06979 -7.91627,-3.25312 -10.4,-6.55c0.05221,2.19297 -0.09778,4.35963 -0.45,6.5c1.19518,0.90026 2.22851,2.05026 3.1,3.45c0.4,0.63333 0.9,1.2 1.5,1.7M314.8,195.85c0.85222,2.06549 2.00221,3.79883 3.45,5.2c1.47578,1.44414 3.25912,2.52748 5.35,3.25c0.42109,-1.0556 0.77109,-2.13893 1.05,-3.25c0.19765,-0.77383 0.36433,-1.55716 0.5,-2.35c0.1155,-0.67683 0.2155,-1.36015 0.3,-2.05c-1.54401,-0.17735 -3.06068,-0.47735 -4.55,-0.9c-2.20078,0.15755 -4.28411,-0.12578 -6.25,-0.85c0.06185,0.31524 0.11185,0.6319 0.15,0.95M340.85,213.7c0.33333,-1.1 0.83333,-2.05 1.5,-2.85c0,-0.06667 0,-0.13333 0,-0.2c0.16667,-1.23334 0.56667,-2.38334 1.2,-3.45c0.16667,-0.36667 0.33333,-0.73333 0.5,-1.1c-2.03334,-0.33334 -4.2,-0.55 -6.5,-0.65c0.3,3.4 0.76666,6.78333 1.4,10.15c0.16667,0.96667 0.3,1.93333 0.4,2.9c0.06667,0 0.13333,0.01667 0.2,0.05c0.33333,-1.63333 0.76666,-3.25 1.3,-4.85M345.6,171.05c0.16667,0.5 0.2,1.08334 0.1,1.75c-0.15755,1.03985 -0.25755,2.05651 -0.3,3.05c0.00182,0.075 0.00182,0.14167 0,0.2c0,0.23334 0,0.45 0,0.65c1.46666,0.1 2.91667,0.2 4.35,0.3c0.53334,0.03333 1.06667,0.06667 1.6,0.1c0,-0.26666 0,-0.55 0,-0.85c0.00455,-0.0819 0.00455,-0.16523 0,-0.25c0.04245,-0.51979 0.09245,-1.05312 0.15,-1.6c-0.1,-0.36667 -0.16666,-0.76667 -0.2,-1.2c-0.03334,-0.66666 0.01666,-1.28333 0.15,-1.85c-1.93333,-0.13333 -3.88333,-0.23333 -5.85,-0.3M355.45,172.5c0.2,0.66666 0.21667,1.46667 0.05,2.4c-0.10442,0.39166 -0.13776,0.79166 -0.1,1.2c0.01172,0.11784 0.02839,0.2345 0.05,0.35c0.06667,0.33334 0.1,0.65 0.1,0.95c2.06667,0.1 4.15,0.21667 6.25,0.35c-0.06667,-0.3 -0.1,-0.61666 -0.1,-0.95c0.00755,-0.17435 0.00755,-0.35768 0,-0.55c0.08567,-1.34101 0.20235,-2.69102 0.35,-4.05c-0.1,-0.03333 -0.2,-0.05 -0.3,-0.05c-2.13333,-0.2 -4.26666,-0.38334 -6.4,-0.55c0.06667,0.26666 0.1,0.56667 0.1,0.9M368.65,175.55c0,-0.76666 -0.05,-1.51666 -0.15,-2.25c-0.86667,-0.2 -1.71667,-0.38334 -2.55,-0.55c0,0.16666 -0.01666,0.35 -0.05,0.55c-0.1608,1.02917 -0.19414,2.0625 -0.1,3.1c-0.00351,0.02917 -0.00351,0.0625 0,0.1c0.06667,0.56667 0.03333,1.08334 -0.1,1.55c0.96666,0.13333 1.93334,0.31666 2.9,0.55c0,-0.72005 0,-1.43672 0,-2.15c0.02317,-0.29687 0.03984,-0.59687 0.05,-0.9M350.55,213.15c-1.23334,0 -2.48334,0.01666 -3.75,0.05c-0.5,0 -0.98334,-0.03333 -1.45,-0.1c-0.16667,0.3 -0.35,0.6 -0.55,0.9c-0.6,1.63333 -1.16666,3.25 -1.7,4.85c2.46666,0.2 4.93333,0.3 7.4,0.3c-0.1,-0.46667 -0.11667,-1 -0.05,-1.6c0.23334,-1.33334 0.26667,-2.7 0.1,-4.1c0,-0.1 0,-0.2 0,-0.3M354.7,213.7c-0.13333,1.1 -0.16666,2.18333 -0.1,3.25c0.06667,0.8 0,1.51667 -0.2,2.15c2.76666,-0.06667 5.55,-0.25 8.35,-0.55c-0.56667,-1.1 -1.25,-2.15 -2.05,-3.15c-0.63333,-0.8 -1.01666,-1.61667 -1.15,-2.45c-1.6,0.03333 -3.2,0.06667 -4.8,0.1c0,0.2 -0.01666,0.41666 -0.05,0.65M361.85,207.1c0.76666,1.33334 0.98333,2.58334 0.65,3.75c0.56667,0.5 1.05,1.13334 1.45,1.9c0.8,1.56667 1.61667,3.1 2.45,4.6c0.13333,0.23334 0.26667,0.46667 0.4,0.7c0.2,-0.03333 0.43333,-0.06667 0.7,-0.1c0.4,-3.53333 0.76667,-7.06666 1.1,-10.6c-0.3,0 -0.6,-0.01666 -0.9,-0.05c-1.93333,-0.26666 -3.88333,-0.33334 -5.85,-0.2M367.7,223.65c-1.5,0.83334 -2.9,1.8 -4.2,2.9c-0.76836,0.64818 -1.55169,1.26485 -2.35,1.85c0.02344,0.25248 0.02344,0.51914 0,0.8c-0.13333,2 -0.2,4 -0.2,6c0.13333,0.36667 0.26667,0.73334 0.4,1.1c0.2,0.5 0.33333,1.01666 0.4,1.55c2.29258,-4.61302 4.29258,-9.36302 6,-14.25c-0.01718,0.02474 -0.03386,0.0414 -0.05,0.05M293.45,220.75c0.2267,0.91563 0.4767,1.83229 0.75,2.75c1.03334,3.5 1.86667,7.06667 2.5,10.7c0.2,1.2 0.53334,2.36667 1,3.5c0.03334,0 0.06667,-0.01666 0.1,-0.05c0.06667,-0.1 0.13333,-0.2 0.2,-0.3c0.06667,-0.1 0.13333,-0.2 0.2,-0.3c1.61354,-3.02175 2.28021,-6.22175 2,-9.6c-0.65091,-0.41107 -1.30091,-0.8444 -1.95,-1.3c-2.14362,-1.49609 -3.74362,-3.2961 -4.8,-5.4z" fill="#000000"/><path d="M300.2,227.45c0.28021,3.37825 -0.38646,6.57826 -2,9.6c-0.06667,0.1 -0.13333,0.2 -0.2,0.3c-0.06667,0.1 -0.13333,0.2 -0.2,0.3c-0.03334,0.03333 -0.06667,0.05 -0.1,0.05c-0.46666,-1.13333 -0.8,-2.3 -1,-3.5c-0.63333,-3.63333 -1.46666,-7.2 -2.5,-10.7c-0.2733,-0.91771 -0.5233,-1.83437 -0.75,-2.75c1.05638,2.1039 2.65638,3.90391 4.8,5.4c0.64909,0.4556 1.29909,0.88893 1.95,1.3M367.75,223.6c-1.70742,4.88698 -3.70742,9.63698 -6,14.25c-0.06667,-0.53333 -0.2,-1.05 -0.4,-1.55c-0.13333,-0.36667 -0.26667,-0.73334 -0.4,-1.1c0,-2 0.06667,-4 0.2,-6c0.02344,-0.28086 0.02344,-0.54752 0,-0.8c0.79831,-0.58515 1.58164,-1.20182 2.35,-1.85c1.3,-1.1 2.7,-2.06667 4.2,-2.9c0.01614,-0.0086 0.03282,-0.02526 0.05,-0.05M314.65,194.9c1.96589,0.72422 4.04922,1.00755 6.25,0.85c1.48933,0.42265 3.00599,0.72266 4.55,0.9c-0.0845,0.68984 -0.18451,1.37317 -0.3,2.05c-0.13567,0.79284 -0.30235,1.57617 -0.5,2.35c-0.27891,1.11107 -0.6289,2.1944 -1.05,3.25c-2.09089,-0.72252 -3.87422,-1.80586 -5.35,-3.25c-1.44779,-1.40117 -2.59778,-3.13451 -3.45,-5.2c-0.03815,-0.3181 -0.08815,-0.63476 -0.15,-0.95M379.35,193.15c0.03828,2.69935 -0.22839,5.33268 -0.8,7.9c-0.39544,1.903 -0.96211,3.76966 -1.7,5.6c-0.93333,2.33334 -2.2,4.41666 -3.8,6.25c-0.26732,-0.53464 -0.63398,-0.91797 -1.1,-1.15c0.22396,-2.05013 0.40729,-4.11679 0.55,-6.2c0.11289,-1.49844 0.19623,-2.99844 0.25,-4.5c0.10768,-3.37539 0.05768,-6.75872 -0.15,-10.15c-0.09127,-1.48125 -0.15795,-2.96459 -0.2,-4.45c2.13672,0.01654 4.28672,0.03321 6.45,0.05c0.29284,2.18633 0.4595,4.403 0.5,6.65M376.55,176.7c0.53203,1.55274 0.98203,3.13607 1.35,4.75c-1.85951,-0.01406 -3.72617,-0.04739 -5.6,-0.1c0.00299,-1.56615 0.01966,-3.14948 0.05,-4.75c1.40429,0.0431 2.80429,0.07643 4.2,0.1M328,189.35c-7.4569,-1.06524 -14.94023,-2.21523 -22.45,-3.45c7.35899,0.06302 14.84232,0.11302 22.45,0.15c-0.02904,1.09896 -0.02904,2.19896 0,3.3M290.85,194.55c-0.01601,2.15899 -0.01601,4.32565 0,6.5c0.04661,2.35755 0.11328,4.72422 0.2,7.1c0.06667,2.06667 0.06667,4.13333 0,6.2c-3.23334,-3.56667 -5.6,-7.6 -7.1,-12.1c-0.13333,-0.4 -0.26666,-0.8 -0.4,-1.2c-1.53334,-5.12461 -2.03334,-10.22461 -1.5,-15.3c3.12201,0.02591 6.25534,0.04258 9.4,0.05c-0.4,2.85091 -0.6,5.76758 -0.6,8.75M284.85,175.55c14.29883,-0.12969 28.71549,-0.11302 43.25,0.05c-0.00651,0.31589 -0.00651,0.63255 0,0.95c0.04909,1.47343 0.06575,2.9401 0.05,4.4c-15.3043,-0.03528 -30.40429,0.01471 -45.3,0.15c0.19727,-0.78086 0.41393,-1.56419 0.65,-2.35c0.3,-1 0.7,-1.95 1.2,-2.85c0.05964,-0.10573 0.10964,-0.2224 0.15,-0.35M272.65,190.65c1.53334,-1.13333 1.51667,-2.26667 -0.05,-3.4c-0.73424,-0.53347 -1.48424,-1.06679 -2.25,-1.6c2.63112,0.03385 5.26445,0.05052 7.9,0.05c-0.25795,4.63112 0.14205,9.16446 1.2,13.6c-5.29778,-0.41107 -10.41445,-1.4944 -15.35,-3.25c2.13333,-1.23334 4.25,-2.51667 6.35,-3.85c0.76666,-0.46667 1.5,-0.98333 2.2,-1.55M278.8,181.15c-5.08386,0.05026 -10.15052,0.10026 -15.2,0.15c-0.67838,-0.37774 -1.36172,-0.76107 -2.05,-1.15c2.43333,-0.96667 4.86667,-1.95 7.3,-2.95c1.29922,-0.55117 2.61588,-1.0345 3.95,-1.45c2.54062,-0.04284 5.07396,-0.09284 7.6,-0.15c-0.69297,1.78177 -1.2263,3.63177 -1.6,5.55z" fill="#97e915"/><path d="M367.7,207.3c0.3,0.03333 0.6,0.05 0.9,0.05c-0.33333,3.53333 -0.7,7.06667 -1.1,10.6c-0.26666,0.03333 -0.5,0.06667 -0.7,0.1c-0.13333,-0.23334 -0.26667,-0.46667 -0.4,-0.7c-0.83333,-1.5 -1.65,-3.03333 -2.45,-4.6c-0.4,-0.76666 -0.88333,-1.4 -1.45,-1.9c0.33333,-1.16666 0.11667,-2.41666 -0.65,-3.75c1.96666,-0.13333 3.91666,-0.06666 5.85,0.2M354.75,213.05c1.6,-0.03333 3.2,-0.06667 4.8,-0.1c0.13333,0.83334 0.51666,1.65 1.15,2.45c0.8,1 1.48334,2.05 2.05,3.15c-2.8,0.3 -5.58334,0.48333 -8.35,0.55c0.2,-0.63333 0.26667,-1.35 0.2,-2.15c-0.06667,-1.06667 -0.03334,-2.15 0.1,-3.25c0.03334,-0.23334 0.05,-0.45 0.05,-0.65M350.55,213.45c0.16667,1.4 0.13333,2.76667 -0.1,4.1c-0.06667,0.6 -0.05,1.13333 0.05,1.6c-2.46666,0 -4.93333,-0.1 -7.4,-0.3c0.53334,-1.6 1.1,-3.21667 1.7,-4.85c0.2,-0.3 0.38333,-0.6 0.55,-0.9c0.46666,0.06667 0.95,0.1 1.45,0.1c1.26666,-0.03333 2.51666,-0.05 3.75,-0.05c0,0.1 0,0.2 0,0.3M368.6,176.45c0,0.71328 0,1.42995 0,2.15c-0.96666,-0.23334 -1.93334,-0.41666 -2.9,-0.55c0.13333,-0.46667 0.16667,-0.98334 0.1,-1.55c-0.00351,-0.0375 -0.00351,-0.07083 0,-0.1c-0.09414,-1.0375 -0.06081,-2.07083 0.1,-3.1c0.03334,-0.2 0.05,-0.38334 0.05,-0.55c0.83333,0.16666 1.68333,0.35 2.55,0.55c0.1,0.73334 0.15,1.48334 0.15,2.25c-0.01015,0.30312 -0.02682,0.60312 -0.05,0.9M355.35,171.6c2.13333,0.16666 4.26666,0.35 6.4,0.55c0.1,0 0.2,0.01666 0.3,0.05c-0.14765,1.35898 -0.26433,2.70899 -0.35,4.05c0.00755,0.19232 0.00755,0.37565 0,0.55c0,0.33334 0.03334,0.65 0.1,0.95c-2.1,-0.13333 -4.18333,-0.25 -6.25,-0.35c0,-0.3 -0.03334,-0.61667 -0.1,-0.95c-0.02161,-0.1155 -0.03828,-0.23216 -0.05,-0.35c-0.03776,-0.40833 -0.00442,-0.80833 0.1,-1.2c0.16667,-0.93333 0.15,-1.73334 -0.05,-2.4c0,-0.33334 -0.03333,-0.63334 -0.1,-0.9M351.45,171.35c-0.13333,0.56667 -0.18333,1.18333 -0.15,1.85c0.03334,0.43333 0.1,0.83334 0.2,1.2c-0.05755,0.54688 -0.10755,1.08021 -0.15,1.6c0.00455,0.08477 0.00455,0.1681 0,0.25c0,0.3 0,0.58334 0,0.85c-0.53334,-0.03333 -1.06667,-0.06667 -1.6,-0.1c-1.43333,-0.1 -2.88334,-0.2 -4.35,-0.3c0,-0.2 0,-0.41666 0,-0.65c0.00182,-0.05833 0.00182,-0.125 0,-0.2c0.04245,-0.99349 0.14245,-2.01015 0.3,-3.05c0.1,-0.66666 0.06667,-1.25 -0.1,-1.75c1.96666,0.06667 3.91666,0.16666 5.85,0.3M339.55,218.55c-0.06667,-0.03333 -0.13333,-0.05 -0.2,-0.05c-0.1,-0.96667 -0.23334,-1.93333 -0.4,-2.9c-0.63333,-3.36667 -1.1,-6.75 -1.4,-10.15c2.3,0.1 4.46666,0.31667 6.5,0.65c-0.16667,0.36667 -0.33333,0.73333 -0.5,1.1c-0.63333,1.06667 -1.03333,2.21667 -1.2,3.45c0,0.06667 0,0.13333 0,0.2c-0.66667,0.8 -1.16667,1.75 -1.5,2.85c-0.53334,1.6 -0.96667,3.21667 -1.3,4.85M295.1,187.95c4.86536,0.97747 9.78203,1.89414 14.75,2.75c-0.18034,0.5651 -0.197,1.21511 -0.05,1.95c0.56667,2.83334 1.56667,5.45 3,7.85c0.072,0.18724 0.13867,0.37058 0.2,0.55c0.32968,0.6513 0.72969,1.2513 1.2,1.8c2.1612,2.48685 4.8112,4.08685 7.95,4.8c-0.27031,0.52748 -0.55364,1.04414 -0.85,1.55c-3.33333,3.2 -7.38334,4.53333 -12.15,4c-6.46666,-0.73334 -10.81666,-4.1 -13.05,-10.1c-0.11393,-0.68333 -0.21393,-1.36666 -0.3,-2.05c-0.0569,-0.51666 -0.1069,-1.03334 -0.15,-1.55c-0.07409,-0.90469 -0.32409,-1.62135 -0.75,-2.15c0.02891,-1.01406 0.06224,-2.03073 0.1,-3.05c0.06667,-2.13333 0.1,-4.25 0.1,-6.35M337.75,171.35c0.23334,-0.03333 0.45,-0.06667 0.65,-0.1c0.6,-0.1 1.18333,-0.21667 1.75,-0.35c0.5,0 0.98334,0.01666 1.45,0.05c-0.1,0.43333 -0.05,0.88334 0.15,1.35c-0.0569,1.16732 -0.14024,2.33399 -0.25,3.5c-0.01393,0.20065 -0.0306,0.40065 -0.05,0.6c-1.5,-0.1 -3.01666,-0.21667 -4.55,-0.35c0.0039,-0.10886 0.0039,-0.22552 0,-0.35c0.03724,-0.80885 0.07058,-1.62552 0.1,-2.45c0.1,-0.1 0.15,-0.23334 0.15,-0.4c0,-0.1 0.01666,-0.21667 0.05,-0.35c0.06667,-0.16666 0.11667,-0.33334 0.15,-0.5c0,-0.03333 0.01666,-0.08334 0.05,-0.15c0.03334,-0.03333 0.06667,-0.06667 0.1,-0.1c0.06667,-0.13333 0.15,-0.26667 0.25,-0.4z" fill="#ffffff"/><path d="M294.8,216.4c0.35222,-2.14037 0.50221,-4.30703 0.45,-6.5c2.48372,3.29688 5.95039,5.48021 10.4,6.55c5.7,1.4 10.91667,0.58334 15.65,-2.45c1.06667,-0.7 1.96666,-1.55 2.7,-2.55c2.44153,-3.32317 4.05821,-6.78984 4.85,-10.4c0.56315,-2.55312 0.71315,-5.18646 0.45,-7.9c0.74245,-0.09193 1.47578,-0.24193 2.2,-0.45c0.5,-1.43333 0.68333,-2.95 0.55,-4.55c-0.06224,-0.68502 -0.09557,-1.36836 -0.1,-2.05c0.0112,-0.7694 0.0612,-1.53607 0.15,-2.3c0.1,-0.9 0.15,-1.81667 0.15,-2.75v-0.05c0,-0.05026 0,-0.10026 0,-0.15c0.04023,0.04596 0.07357,0.09597 0.1,0.15c0.18385,0.22982 0.31718,0.49649 0.4,0.8c0.08711,0.26133 0.18711,0.51133 0.3,0.75c0.0125,0.66472 0.02917,1.33138 0.05,2c0.00703,0.52005 0.00703,1.03672 0,1.55c0.08086,4.38321 0.18086,8.74987 0.3,13.1c0.01927,0.61745 0.03593,1.23412 0.05,1.85c0.2013,3.64102 0.6013,7.25768 1.2,10.85c0.2,1.36667 0.41667,2.71666 0.65,4.05c0.1,0.66666 0.18333,1.35 0.25,2.05c-0.66667,0.33334 -1.05,0.86666 -1.15,1.6c-0.06667,0.63333 0.15,1.13333 0.65,1.5c1.66667,1.16666 3.56667,1.73334 5.7,1.7c1.16667,-0.03333 2.33333,-0.03333 3.5,0c4.03334,0.13333 8.06667,0.16666 12.1,0.1c1.26666,0 2.55,-0.01667 3.85,-0.05c0.44948,0 0.89948,-0.01666 1.35,-0.05c-4.96706,3.98906 -10.36705,7.30573 -16.2,9.95c-5.76666,1.33334 -11.63334,1.63334 -17.6,0.9c-2.5,-0.3 -4.96666,-0.76667 -7.4,-1.4c-7.73334,-2 -14.71667,-5.56666 -20.95,-10.7c-0.6,-0.5 -1.1,-1.06667 -1.5,-1.7c-0.87149,-1.39974 -1.90482,-2.54974 -3.1,-3.45z" fill="#d9ad8d"/><path d="M377.9,181.45c0.07357,0.28724 0.14024,0.57058 0.2,0.85c0.30104,1.3875 0.55104,2.7875 0.75,4.2c-2.16328,-0.0168 -4.31328,-0.03347 -6.45,-0.05c-0.06367,-1.68815 -0.097,-3.38815 -0.1,-5.1c1.87383,0.0526 3.74049,0.08594 5.6,0.1M291.75,184.15c-0.0983,0.55156 -0.19831,1.10156 -0.3,1.65c-3.14466,-0.00742 -6.27799,-0.02409 -9.4,-0.05c0.18464,-1.55052 0.4513,-3.10052 0.8,-4.65c14.89571,-0.13529 29.9957,-0.18528 45.3,-0.15c0.00117,1.55638 -0.03216,3.10638 -0.1,4.65c-0.00873,0.1612 -0.02539,0.3112 -0.05,0.45c-7.60768,-0.03698 -15.09101,-0.08698 -22.45,-0.15c-0.22253,-0.02669 -0.45586,-0.06002 -0.7,-0.1c-2.66667,-0.46667 -5.25,-1.11667 -7.75,-1.95c-1.66667,-0.56667 -3.28334,-0.63333 -4.85,-0.2c-0.26666,0.06667 -0.43333,0.23334 -0.5,0.5M329.55,167.6c-0.9319,2.46498 -1.41523,5.13164 -1.45,8c-14.53451,-0.16302 -28.95117,-0.17969 -43.25,-0.05c4.54349,-7.85482 10.94349,-13.83815 19.2,-17.95c8.06667,-4 16.63333,-6.33334 25.7,-7c11,-0.83334 21.31667,1.13334 30.95,5.9c1.56667,0.8 3,1.78333 4.3,2.95c5.3556,4.88307 9.2056,10.63307 11.55,17.25c-1.39571,-0.02357 -2.7957,-0.0569 -4.2,-0.1c0.02839,-0.15286 0.04505,-0.30286 0.05,-0.45c0.06667,-1.56667 -0.15,-3.06667 -0.65,-4.5c-0.56667,-1.66666 -1.78333,-2.58334 -3.65,-2.75c-4.63333,-0.43333 -9.26667,-0.86667 -13.9,-1.3c-4.63333,-0.43333 -9.26666,-0.66666 -13.9,-0.7c-0.83333,0.13333 -1.71667,0.26667 -2.65,0.4c-2.1836,0.39427 -3.50026,1.6776 -3.95,3.85c-0.45821,-1.31094 -1.1082,-2.5276 -1.95,-3.65c-0.36667,-0.3 -0.8,-0.46667 -1.3,-0.5c-0.46666,0 -0.76666,0.2 -0.9,0.6M278.45,183.65c-0.07148,0.69401 -0.13815,1.37734 -0.2,2.05c-2.63554,0.00052 -5.26888,-0.01614 -7.9,-0.05c-2.18437,-1.50625 -4.43437,-2.95625 -6.75,-4.35c5.04948,-0.04974 10.11614,-0.09974 15.2,-0.15c-0.14036,0.81771 -0.25703,1.65104 -0.35,2.5M317,148.55c-11.42865,2.55937 -21.41198,8.20937 -29.95,16.95c-2.96067,3.04011 -5.17735,6.40677 -6.65,10.1c-2.52604,0.05716 -5.05937,0.10716 -7.6,0.15c0.94466,-0.28164 1.89466,-0.53164 2.85,-0.75c0.7,-0.16666 1.23334,-0.55 1.6,-1.15c0.96927,-1.48424 0.70261,-2.53424 -0.8,-3.15c-0.10495,-0.51341 -0.30495,-1.03008 -0.6,-1.55c-0.66667,-1.26666 -1.31667,-2.53334 -1.95,-3.8c-1.06667,-4.5 -1.78333,-9.05 -2.15,-13.65c-0.09948,-1.08021 -0.08281,-2.13021 0.05,-3.15c0.20234,-1.37149 0.61901,-2.68815 1.25,-3.95c0.23334,-0.5 0.41667,-1.01666 0.55,-1.55c1.23334,-2 2.81667,-3.68333 4.75,-5.05c9.46666,-6.76666 20.01666,-10.86666 31.65,-12.3c10.46666,-1.3 20.96666,-1.8 31.5,-1.5c6.8,0.23333 12.75,2.48333 17.85,6.75c1.3,1.06667 2.36667,2.33334 3.2,3.8c0.96666,2.06667 1.41666,4.23334 1.35,6.5c-0.06667,1.4 -0.3,2.76666 -0.7,4.1c-0.23334,0.8 -0.43333,1.6 -0.6,2.4c-0.06667,0.26666 -0.08334,0.53334 -0.05,0.8c-0.36667,0.9 -0.78334,1.78333 -1.25,2.65c-0.16328,0.31692 -0.29662,0.61693 -0.4,0.9c-2.24896,-1.12682 -4.63229,-2.04349 -7.15,-2.75c-1.0543,-0.29089 -2.12097,-0.55755 -3.2,-0.8c-6.69974,-1.53633 -13.53307,-2.103 -20.5,-1.7c-0.53334,0.1 -1.11667,0.16667 -1.75,0.2c-3.90312,0.19192 -7.66979,0.69192 -11.3,1.5z" fill="#e44695"/></g></g></g></svg>