
<svg viewBox="0 0 272 172" height="172px" width="272px" y="0px" x="0px" preserveAspectRatio="none" xmlns:xlink="http://www.w3.org/1999/xlink" version="1.1" xmlns="http://www.w3.org/2000/svg">
<defs></defs>

<g id="Layer_2">
<g>
<g>
<g>
<path d="M 66.6 147.05
Q 66.6 147.5 66.8 147.85 67.05 151 67.4 154.15 67.4052734375 154.2107421875 67.4 154.25 71.0419921875 154.28515625 74.7 154.25 74.6234375 154.2150390625 74.55 154.15 73.3 153 72.5 151.5 69.9 148.45 66.95 145.75 66.7 146.3 66.55 146.9 66.6 147 66.6 147.05
M 202.15 147.95
Q 201.4 148.05 200.6 148.2 200.45 148.35 200.3 148.5 200.15 148.65 200 148.75 199.9 148.8 199.8 148.8 198.65 149.15 197.55 149.65 197.45 149.8 197.3 149.9 196.85 150.3 196.4 150.8 196.3 150.85 196.2 150.85 195.8 151 195.4 151.1 195.25 151.25 195.05 151.35 194.453515625 151.6056640625 194.2 152.1 199.39296875 151.9212890625 204.55 151.7 204.55 150.72265625 204.55 149.75 204.55 148.55 204.55 147.3 203.45 147.75 202.15 147.95
M 94.5 143.85
Q 93.05 145.1 92.75 146.9 94.6 150 98.05 151.5 101.05 152.75 103.25 152.2 104.75 151.8 106.05 152.45 112.05 153.65 115.55 149.55 115.75 149.35 115.9 149.15 115.95 149.05 115.95 148.95 115.95 148.7 116 148.4 116.05 148.05 116.2 147.75 116.25 147.7 116.25 147.6 116.25 147.5 116.25 147.4 116.25 147.3 116.2 147.2 116.1 147 115.95 146.8 115.95 146.7 115.95 146.6 115.95 146.5 115.95 146.4 115.95 146.2 115.95 146.05 115.95 145.95 115.95 145.85 115.95 145.75 115.9 145.65 115.85 145.55 115.8 145.45 115.75 145.35 115.7 145.25 115.6 145.15 115.45 145.05 115.15 144.8 114.95 144.45 114.8 144.25 114.7 144.05 114.65 143.95 114.5 143.9 114.2 143.65 114 143.3 113.85 143.1 113.75 142.9 113.65 142.8 113.55 142.75 113.35 142.7 113.15 142.6 113.05 142.5 113 142.4 112.9 142.3 112.9 142.2 108.7 139.5 103.65 139.95 98.45 140.4 94.5 143.85
M 172.05 141.7
Q 171.85 141.65 171.6 141.55 169.3 139.5 166.15 139.05 165.51328125 138.958984375 164.85 138.85 164.46328125 138.839453125 164.05 138.8 163.737890625 138.847265625 163.4 138.9 159.488671875 139.620703125 156.15 141.8 154.8 142.65 153.7 143.85 153.55 144.35 153.55 144.85 153.6 145.35 153.6 145.85 153.8 146.1 154 146.4 154.2 146.6 154.35 146.8 154.75 148.1 155.85 149.05 156.5 149.6 157.25 150.15 157.4 150.2 157.5 150.3 165.2 151.6 172.7 149.25 173.75 148.5 174.5 147.4 174.65 147.15 174.9 146.9 174.9 146.7 175 146.5 175.05 146.3 175.15 146.1 175.1 145.7 175.05 145.3 175 144.95 174.7 144.7 174.7 144.6 174.7 144.5 174.7 144.4 174.65 144.3 174.65 144.2 174.6 144.15 173.9 143.15 172.85 142.4 172.55 142.2 172.45 141.85 172.25 141.75 172.05 141.7
M 80.55 130
Q 79.7375 128.09140625 79 126.1 78.7 125.2 78.35 124.35 78.2 128.3 78.25 132.25 78.25 134.9966796875 78.35 137.7 78.3896484375 137.9001953125 78.4 138.1 79.1265625 137.904296875 79.85 137.7 80.2 137.601171875 80.55 137.5 82.05859375 137.0470703125 83.55 136.55 81.9404296875 133.3623046875 80.55 130
M 196.7 130.45
Q 196.7 130.3 196.65 130.2 195.6 131.6 194.65 133.1 193.65 134.7 192.4 136.15 192.1 136.3 191.85 136.5 191.75 136.6 191.7 136.75 192.7208984375 137.2060546875 193.85 137.7 195.3314453125 138.34296875 197 139.05 197 138.85 197 138.7 197.043359375 138.19375 197 137.7 197.019921875 136.487109375 196.7 135.35 196.7 134.45 196.7 133.6 196.7 132 196.7 130.45 Z" stroke="none" fill="#EE9D33"></path>

<path d="M 203.3 145.9
Q 203.85 145.6 204.6 145.25 197.705859375 140.7439453125 190.75 137.7 190.0107421875 137.3662109375 189.25 137.05 190.9 134.8 192.75 132.2 193.95 130.5 195.2 128.75 195.25 128.6 195.25 128.45 195.35 128 195.4 127.55 195.55 127.4 195.7 127.3 195.05 125.75 194.85 124.15 195.15 124.15 195.45 124.2 195.35 124.1 195.3 124.05
L 195.3 124
Q 194.15 123.8 193.15 123.25 186.05 123 179 122.7 179 119.8 179.15 116.9 179.3 113.85 178.6 111.05 178.6 110.9 178.65 110.75 178.8 110.1 178.2 109.8 168.85 111.7 159.25 113.5 159.15 113.35 159.05 113.2 158.6 112.3 158.3 111.35 158.2 111.2 158.1 111.05 158.1 110.9 158.05 110.75 157.9 110.3 157.7 109.8 157.7 109.65 157.7 109.5 157.7 108.75 157.7 108 157.7 107.5 157.7 107.05 157.6 106.9 157.55 106.75 157.25 105.85 157.1 104.9 157.05 104.6 156.9 104.3 156.9 104.15 156.9 104 156.9 103.5 156.9 103.05 156.8 102.9 156.7 102.75 156.6 102.6 156.5 102.45 156.5 102.3 156.5 102.15 156.55 101.55 156.05 101.2 152.9712890625 102.4314453125 149.9 103.85 144.9904296875 106.1703125 140.1 109
L 140.1 109.05
Q 138.85 109.05 137.65 109 137.5 108.85 137.35 108.7 137.3 108.6 137.25 108.5 137.2 108.45 137.1 108.4 136.75 108.3 136.4 108.2 136.4 108.05 136.35 107.9 135.75 106.8 134.75 106.05 134.75 105.9 134.7 105.8 134.15 105.05 133.45 104.5 133.15 103.9 132.9 103.25 132.45 101.9 131.5 100.8 131.5 100.65 131.45 100.5 131.45 100.35 131.4 100.2 131.2 99.9 130.95 99.6 130.1 98.6 129.55 97.4 129.5 97.3 129.45 97.1 129.4 97 129.35 97 128.95 96.95 128.5 97 123.65 101.55 119.65 106.85 118.1 108.9 116.85 111.15 115.05 111.3 113.25 111.45 110.05 109.45 106.85 107.3 106.2 106.8 105.7 106.15 103.5 104.75 101.35 103.25 100.6 102.75 99.85 102.25 99.05 107.6 99.1 113.3 99.15 117.45 99.15 121.6 99.15 121.9 99.15 122.2 89.99375 121.9734375 80.55 119.7 79.5765625 119.45703125 78.6 119.2 78.6 119.3 78.6 119.4
L 78.6 119.45
Q 78.7 119.75 78.75 120.05 78.85 120.2 78.95 120.35 79.2 120.7 79.45 121 79.9888671875 122.6166015625 80.55 124.2 81.446484375 126.797265625 82.4 129.35 83.65 132.55 85.5 135.4 85.55 135.55 85.6 135.75 85.6 136.2 85.6 136.65 85.6 136.8 85.6 136.95 84.6015625 137.3357421875 83.55 137.7 82.0880859375 138.235546875 80.55 138.7 73.9017578125 140.8400390625 66.45 142.1 66.55 142.25 66.7 142.35 66.8 142.45 66.85 142.55 67.35 142.55 67.85 142.65
L 67.85 142.75
Q 67.9 143.25 67.75 143.75 72.5 147.85 76.45 152.85 76.9763671875 153.54609375 77.45 154.25 78.99765625 154.266796875 80.55 154.25 92.8708984375 154.15703125 105.5 153.8 117.8 153.45 130.15 153.45 140.044921875 153.419921875 149.9 153.25 170.39765625 152.99765625 190.7 152.25 190.7673828125 152.2275390625 190.8 152.2 190.9 152.1 191 152 191.05 151.95 191.1 151.95 191.6 151.8 192.1 151.7 192.15 151.55 192.25 151.45 192.85 150.8 193.55 150.25 193.95 150.15 194.35 150.05 195.3 149 196.65 148.55 197.8 148.2 198.75 147.5 201.2 147.05 203.3 145.9
M 162.3 138.1
Q 166.8 137.55 170.85 139.1 172.4 139.7 173.45 140.85 173.5 140.9 173.6 140.9 173.75 140.95 173.9 141 174.1 141.05 174.3 141.1 174.35 141.2 174.45 141.3 175.1 141.9 175.75 142.55 176.1 142.95 176.5 143.25 176.55 143.35 176.6 143.45 176.6 143.55 176.65 143.65 176.65 143.85 176.65 144.05 176.8 144.15 176.85 144.3 176.9 144.35 176.9 144.45 176.9 144.65 176.9 144.85 177 144.95 177.05 145.05 177.1 145.15 177.2 145.25 177.2 145.35 177.2 145.45 177.2 145.65 177.2 145.85 177.2 146.15 177.2 146.4 177.2 146.5 177.2 146.6 177.15 146.7 177.1 146.8 176.85 147.6 176.25 148.35 175.55 149.25 174.6 149.95 165.6 153 156.7 151.05 153.6 150.35 152.4 147.45 152.3 147.35 152.2 147.25 152.1 147.15 152.05 147.05 151.8 146.8 151.6 146.5 151.6 146.4 151.6 146.3 151.6 145.8 151.6 145.3 151.6 144.8 151.6 144.3 151.6 143.95 151.6 143.55 151.7 143.45 151.75 143.35 151.8 143.25 151.85 143.15 151.9 143.05 151.95 142.95 153 141.85 154.3 141.05 158 138.7 162.3 138.1
M 90.8 147.4
Q 90.8 147.2 90.8 147 90.8 146.9 90.8 146.8 90.8 146.7 90.8 146.6 90.8 146.3 90.8 146.05 90.8 145.95 90.8 145.85 91.4 144.15 92.75 143.05 97.55 139.2 103.65 138.95 108.05 138.75 112.15 140.2 113.45 140.7 114.65 141.45 114.75 141.55 114.85 141.65 114.9 141.75 115 141.85 115.05 141.9 115.15 141.95 115.2 142 115.3 142.05 115.5 142.1 115.65 142.15 115.7 142.25 115.75 142.35 115.85 142.45 115.9 142.55 116.05 142.75 116.25 142.95 116.35 143.05 116.45 143.15 116.55 143.25 116.7 143.35 116.75 143.45 116.8 143.55 116.85 143.65 116.9 143.75 116.9 143.85 116.95 143.95 117.05 144.05 117.15 144.15 117.25 144.2 117.35 144.3 117.5 144.4 117.6 144.5 117.65 144.6 117.75 144.7 117.75 144.8 117.8 144.9 117.85 145 117.85 145.1 117.9 145.3 117.95 145.5 117.95 145.6 117.95 145.7 117.95 145.8 117.95 145.9 117.95 146 118 146.05 118.05 146.2 118.1 146.3 118.15 146.4 118.2 146.5 118.2 146.6 118.2 146.7 118.2 146.8 118.2 146.9 118.2 147.05 118.2 147.25 118.2 147.35 118.2 147.45 118.2 147.55 118.2 147.65 118.2 147.95 118.2 148.25 118.2 148.35 118.2 148.45 118.15 148.55 118.1 148.65 118.05 148.75 118 148.85 117.95 148.95 117.95 149.05 117.95 149.15 117.95 149.25 117.95 149.35 117.95 149.45 117.95 149.55 117.95 149.65 117.9 149.75 117.85 149.8 117.8 149.9 117.75 150 117.5 150.3 117.25 150.65 117 151.05 116.6 151.4 116.2 151.75 115.85 152.1 107.5 154.8 98.75 153.1 94.1 152.15 91.45 148.4 91.35 148.3 91.2 148.2 91.1 148.1 91 148 90.95 147.9 90.85 147.8 90.85 147.7 90.8 147.6 90.8 147.5 90.8 147.4 Z" stroke="none" fill="#FDDF5E"></path>

<path d="M 90.8 147
Q 90.8 147.2 90.8 147.4 90.8 147.5 90.8 147.6 90.85 147.7 90.85 147.8 90.95 147.9 91 148 91.1 148.1 91.2 148.2 91.35 148.3 91.45 148.4 94.1 152.15 98.75 153.1 107.5 154.8 115.85 152.1 116.2 151.75 116.6 151.4 117 151.05 117.25 150.65 117.5 150.3 117.75 150 117.8 149.9 117.85 149.8 117.9 149.75 117.95 149.65 117.95 149.55 117.95 149.45 117.95 149.35 117.95 149.25 117.95 149.15 117.95 149.05 117.95 148.95 118 148.85 118.05 148.75 118.1 148.65 118.15 148.55 118.2 148.45 118.2 148.35 118.2 148.25 118.2 147.95 118.2 147.65 118.2 147.55 118.2 147.45 118.2 147.35 118.2 147.25 118.2 147.05 118.2 146.9 118.2 146.8 118.2 146.7 118.2 146.6 118.2 146.5 118.15 146.4 118.1 146.3 118.05 146.2 118 146.05 117.95 146 117.95 145.9 117.95 145.8 117.95 145.7 117.95 145.6 117.95 145.5 117.9 145.3 117.85 145.1 117.85 145 117.8 144.9 117.75 144.8 117.75 144.7 117.65 144.6 117.6 144.5 117.5 144.4 117.35 144.3 117.25 144.2 117.15 144.15 117.05 144.05 116.95 143.95 116.9 143.85 116.9 143.75 116.85 143.65 116.8 143.55 116.75 143.45 116.7 143.35 116.55 143.25 116.45 143.15 116.35 143.05 116.25 142.95 116.05 142.75 115.9 142.55 115.85 142.45 115.75 142.35 115.7 142.25 115.65 142.15 115.5 142.1 115.3 142.05 115.2 142 115.15 141.95 115.05 141.9 115 141.85 114.9 141.75 114.85 141.65 114.75 141.55 114.65 141.45 113.45 140.7 112.15 140.2 108.05 138.75 103.65 138.95 97.55 139.2 92.75 143.05 91.4 144.15 90.8 145.85 90.8 145.95 90.8 146.05 90.8 146.3 90.8 146.6 90.8 146.7 90.8 146.8 90.8 146.9 90.8 147
M 92.75 146.9
Q 93.05 145.1 94.5 143.85 98.45 140.4 103.65 139.95 108.7 139.5 112.9 142.2 112.9 142.3 113 142.4 113.05 142.5 113.15 142.6 113.35 142.7 113.55 142.75 113.65 142.8 113.75 142.9 113.85 143.1 114 143.3 114.2 143.65 114.5 143.9 114.65 143.95 114.7 144.05 114.8 144.25 114.95 144.45 115.15 144.8 115.45 145.05 115.6 145.15 115.7 145.25 115.75 145.35 115.8 145.45 115.85 145.55 115.9 145.65 115.95 145.75 115.95 145.85 115.95 145.95 115.95 146.05 115.95 146.2 115.95 146.4 115.95 146.5 115.95 146.6 115.95 146.7 115.95 146.8 116.1 147 116.2 147.2 116.25 147.3 116.25 147.4 116.25 147.5 116.25 147.6 116.25 147.7 116.2 147.75 116.05 148.05 116 148.4 115.95 148.7 115.95 148.95 115.95 149.05 115.9 149.15 115.75 149.35 115.55 149.55 112.05 153.65 106.05 152.45 104.75 151.8 103.25 152.2 101.05 152.75 98.05 151.5 94.6 150 92.75 146.9
M 170.85 139.1
Q 166.8 137.55 162.3 138.1 158 138.7 154.3 141.05 153 141.85 151.95 142.95 151.9 143.05 151.85 143.15 151.8 143.25 151.75 143.35 151.7 143.45 151.6 143.55 151.6 143.95 151.6 144.3 151.6 144.8 151.6 145.3 151.6 145.8 151.6 146.3 151.6 146.4 151.6 146.5 151.8 146.8 152.05 147.05 152.1 147.15 152.2 147.25 152.3 147.35 152.4 147.45 153.6 150.35 156.7 151.05 165.6 153 174.6 149.95 175.55 149.25 176.25 148.35 176.85 147.6 177.1 146.8 177.15 146.7 177.2 146.6 177.2 146.5 177.2 146.4 177.2 146.15 177.2 145.85 177.2 145.65 177.2 145.45 177.2 145.35 177.2 145.25 177.1 145.15 177.05 145.05 177 144.95 176.9 144.85 176.9 144.65 176.9 144.45 176.9 144.35 176.85 144.3 176.8 144.15 176.65 144.05 176.65 143.85 176.65 143.65 176.6 143.55 176.6 143.45 176.55 143.35 176.5 143.25 176.1 142.95 175.75 142.55 175.1 141.9 174.45 141.3 174.35 141.2 174.3 141.1 174.1 141.05 173.9 141 173.75 140.95 173.6 140.9 173.5 140.9 173.45 140.85 172.4 139.7 170.85 139.1
M 171.6 141.55
Q 171.85 141.65 172.05 141.7 172.25 141.75 172.45 141.85 172.55 142.2 172.85 142.4 173.9 143.15 174.6 144.15 174.65 144.2 174.65 144.3 174.7 144.4 174.7 144.5 174.7 144.6 174.7 144.7 175 144.95 175.05 145.3 175.1 145.7 175.15 146.1 175.05 146.3 175 146.5 174.9 146.7 174.9 146.9 174.65 147.15 174.5 147.4 173.75 148.5 172.7 149.25 165.2 151.6 157.5 150.3 157.4 150.2 157.25 150.15 156.5 149.6 155.85 149.05 154.75 148.1 154.35 146.8 154.2 146.6 154 146.4 153.8 146.1 153.6 145.85 153.6 145.35 153.55 144.85 153.55 144.35 153.7 143.85 154.8 142.65 156.15 141.8 159.488671875 139.620703125 163.4 138.9 163.737890625 138.847265625 164.05 138.8 164.46328125 138.839453125 164.85 138.85 165.51328125 138.958984375 166.15 139.05 169.3 139.5 171.6 141.55
M 206.55 146.15
Q 206.9 145.8 207.25 145.45 204.7 142.35 200.75 140.65 199.85 140.25 198.95 139.9 198.95 138.8 198.95 137.7 198.987890625 137.35 199 137 199.05 135.85 198.65 134.85 198.65 133.15 198.75 131.5 198.8 130.35 198.4 129.3 198.5 128.25 198.2 127.3 198.4 126.95 198.55 126.6 198.6 126.45 198.65 126.3 198.65 126 198.65 125.7 198.65 125.1 198.65 124.45 198.6 124.3 198.55 124.15 198.2 124.05 197.85 123.95 197.85 123.9 197.8 123.9 197.7 123.75 197.55 123.6 197.45 123.5 197.35 123.35 196.4 123.05 195.5 122.7 195.25 122.6 195 122.5 188 122.25 181.05 122 181.05 119.25 181.05 116.5 181.05 113.85 181.05 111.25 181 111.1 180.9 111 180.6 110.55 180.65 110 180.65 109.85 180.65 109.7 180.65 109.55 180.55 109.5 180.25 109.25 180 108.9 179.9 108.75 179.7 108.6 170.1 109.65 161 112.4 160.95 112.1 160.8 111.9 160.75 111.7 160.55 111.55 160.55 111.4 160.55 111.25 160.35 110.8 160.2 110.3 160.15 110.2 160.15 110.05 159.95 109.7 159.8 109.4 159.75 109.25 159.75 109.1 159.75 108.95 159.75 108.8 159.95 107.05 159.6 105.35 159.4 104.45 158.95 103.55 158.95 103.25 158.95 102.95 158.95 102.8 158.95 102.65 158.9 102.5 158.8 102.4 158.45 101.95 158.5 101.4 158.55 101.25 158.55 101.1 158.5 100.95 158.4 100.85 158.25 100.65 158.1 100.5 158.05 100.2 157.95 99.9 157.85 99.75 157.7 99.6 156.4 99.55 155.05 99.55 154.9 99.6 154.75 99.7 154.2 100.1 153.7 100.6 153.5 100.75 153.3 100.9 151.591015625 101.6080078125 149.9 102.35 144.6642578125 104.6912109375 139.6 107.45 139.05 107.5 138.55 107.45 138.5 107.45 138.45 107.35 138.15 106.35 137.25 105.8 137.05 105.65 136.9 105.5 136.85 105.35 136.8 105.2 136.75 105.05 136.7 104.9 136.3 104.6 135.9 104.25 135.75 104.15 135.6 104 134.9 102.8 134.35 101.55 134.1 100.85 133.55 100.3 133.55 100.15 133.5 100 132.95 98.7 132 97.55 131.55 97 131.4 96.3 131.1 96.2 130.8 96.05 130.75 96.05 130.65 96 130.55 95.9 130.5 95.8 130.35 95.65 130.25 95.5 129.15 95.45 128 95.4 125.5 97.05 123.3 99.45 118.5 104.7 114.6 110.35 114.1 109.95 113.5 109.6 107.35 105.9 101.7 101.3 101.15 101.15 100.6 100.95 100.4 100.9 100.25 100.8 99.2 100.75 98.1 100.8 98 100.8 97.9 100.9 97.95 101.45 97.65 101.85 97.55 102 97.5 102.15 97.5 102.45 97.5 102.75 97.25 106.9 97.2 111.05 97.1 116.25 97.1 121.5 91.85 121.15 86.8 119.5 83.539453125 118.4580078125 80.55 118.45 79.0927734375 118.454296875 77.7 118.7 77.15 118.65 76.65 118.65 76.65 118.8 76.65 118.95 76.4 119 76.2 119.05 76.4 119.45 76.55 119.9 76.35 122.65 76.35 125.45 76.35 131.575 76.35 137.7 76.35 138.125 76.35 138.55 74.4 138.95 72.45 139.25 67.4 140 64.3 142.3 64.75 143.25 65.35 144.05 65.05 144.9 64.8 145.8 64.35 147.2 64.85 148.5 64.95 150.9 65.25 153.25 65.332421875 153.75625 65.4 154.25 66.3982421875 154.27109375 67.4 154.25 67.4052734375 154.2107421875 67.4 154.15 67.05 151 66.8 147.85 66.6 147.5 66.6 147.05 66.6 147 66.55 146.9 66.7 146.3 66.95 145.75 69.9 148.45 72.5 151.5 73.3 153 74.55 154.15 74.6234375 154.2150390625 74.7 154.25 76.070703125 154.2720703125 77.45 154.25 76.9763671875 153.54609375 76.45 152.85 72.5 147.85 67.75 143.75 67.9 143.25 67.85 142.75
L 67.85 142.65
Q 67.35 142.55 66.85 142.55 66.8 142.45 66.7 142.35 66.55 142.25 66.45 142.1 73.9017578125 140.8400390625 80.55 138.7 82.0880859375 138.235546875 83.55 137.7 84.6015625 137.3357421875 85.6 136.95 85.6 136.8 85.6 136.65 85.6 136.2 85.6 135.75 85.55 135.55 85.5 135.4 83.65 132.55 82.4 129.35 81.446484375 126.797265625 80.55 124.2 79.9888671875 122.6166015625 79.45 121 79.2 120.7 78.95 120.35 78.85 120.2 78.75 120.05 78.7 119.75 78.6 119.45
L 78.6 119.4
Q 78.6 119.3 78.6 119.2 79.5765625 119.45703125 80.55 119.7 89.99375 121.9734375 99.15 122.2 99.15 121.9 99.15 121.6 99.15 117.45 99.1 113.3 99.05 107.6 99.85 102.25 100.6 102.75 101.35 103.25 103.5 104.75 105.7 106.15 106.2 106.8 106.85 107.3 110.05 109.45 113.25 111.45 115.05 111.3 116.85 111.15 118.1 108.9 119.65 106.85 123.65 101.55 128.5 97 128.95 96.95 129.35 97 129.4 97 129.45 97.1 129.5 97.3 129.55 97.4 130.1 98.6 130.95 99.6 131.2 99.9 131.4 100.2 131.45 100.35 131.45 100.5 131.5 100.65 131.5 100.8 132.45 101.9 132.9 103.25 133.15 103.9 133.45 104.5 134.15 105.05 134.7 105.8 134.75 105.9 134.75 106.05 135.75 106.8 136.35 107.9 136.4 108.05 136.4 108.2 136.75 108.3 137.1 108.4 137.2 108.45 137.25 108.5 137.3 108.6 137.35 108.7 137.5 108.85 137.65 109 138.85 109.05 140.1 109.05
L 140.1 109
Q 144.9904296875 106.1703125 149.9 103.85 152.9712890625 102.4314453125 156.05 101.2 156.55 101.55 156.5 102.15 156.5 102.3 156.5 102.45 156.6 102.6 156.7 102.75 156.8 102.9 156.9 103.05 156.9 103.5 156.9 104 156.9 104.15 156.9 104.3 157.05 104.6 157.1 104.9 157.25 105.85 157.55 106.75 157.6 106.9 157.7 107.05 157.7 107.5 157.7 108 157.7 108.75 157.7 109.5 157.7 109.65 157.7 109.8 157.9 110.3 158.05 110.75 158.1 110.9 158.1 111.05 158.2 111.2 158.3 111.35 158.6 112.3 159.05 113.2 159.15 113.35 159.25 113.5 168.85 111.7 178.2 109.8 178.8 110.1 178.65 110.75 178.6 110.9 178.6 111.05 179.3 113.85 179.15 116.9 179 119.8 179 122.7 186.05 123 193.15 123.25 194.15 123.8 195.3 124
L 195.3 124.05
Q 195.35 124.1 195.45 124.2 195.15 124.15 194.85 124.15 195.05 125.75 195.7 127.3 195.55 127.4 195.4 127.55 195.35 128 195.25 128.45 195.25 128.6 195.2 128.75 193.95 130.5 192.75 132.2 190.9 134.8 189.25 137.05 190.0107421875 137.3662109375 190.75 137.7 197.705859375 140.7439453125 204.6 145.25 203.85 145.6 203.3 145.9 201.2 147.05 198.75 147.5 197.8 148.2 196.65 148.55 195.3 149 194.35 150.05 193.95 150.15 193.55 150.25 192.85 150.8 192.25 151.45 192.15 151.55 192.1 151.7 191.6 151.8 191.1 151.95 191.05 151.95 191 152 190.9 152.1 190.8 152.2 190.7673828125 152.2275390625 190.7 152.25 192.4810546875 152.1921875 194.2 152.1 194.453515625 151.6056640625 195.05 151.35 195.25 151.25 195.4 151.1 195.8 151 196.2 150.85 196.3 150.85 196.4 150.8 196.85 150.3 197.3 149.9 197.45 149.8 197.55 149.65 198.65 149.15 199.8 148.8 199.9 148.8 200 148.75 200.15 148.65 200.3 148.5 200.45 148.35 200.6 148.2 201.4 148.05 202.15 147.95 203.45 147.75 204.55 147.3 204.55 148.55 204.55 149.75 204.55 150.72265625 204.55 151.7 205.5501953125 151.65390625 206.55 151.6 206.55 151.5033203125 206.55 151.4 206.55 148.75 206.55 146.15
M 196.65 130.2
Q 196.7 130.3 196.7 130.45 196.7 132 196.7 133.6 196.7 134.45 196.7 135.35 197.019921875 136.487109375 197 137.7 197.043359375 138.19375 197 138.7 197 138.85 197 139.05 195.3314453125 138.34296875 193.85 137.7 192.7208984375 137.2060546875 191.7 136.75 191.75 136.6 191.85 136.5 192.1 136.3 192.4 136.15 193.65 134.7 194.65 133.1 195.6 131.6 196.65 130.2
M 79 126.1
Q 79.7375 128.09140625 80.55 130 81.9404296875 133.3623046875 83.55 136.55 82.05859375 137.0470703125 80.55 137.5 80.2 137.601171875 79.85 137.7 79.1265625 137.904296875 78.4 138.1 78.3896484375 137.9001953125 78.35 137.7 78.25 134.9966796875 78.25 132.25 78.2 128.3 78.35 124.35 78.7 125.2 79 126.1 Z" stroke="none" fill="#000000"></path>
</g>
</g>
</g>
</g>
</svg>
