
<svg viewBox="0 0 80 70" height="70px" width="80px" y="0px" x="0px" preserveAspectRatio="none" xmlns:xlink="http://www.w3.org/1999/xlink" version="1.1" xmlns="http://www.w3.org/2000/svg">
<defs></defs>

<g id="Layer_2">
<g transform="matrix( 0.2443389892578125, 0, 0, 0.2443389892578125, -5.6,-13.9)" id="Layer_1">
<g>
<g>
<g>
<path d="M 258 307
Q 257.5 307 257.1 306.8 254.55 305.45 253 303 253 303.5 253 304 253 304.5 253 305 253 306.5 253 308 253 308.5 253 309 257.15 309.15 259.8 307.65 260 307.5 260 307 259.5 307 259 307 258.5 307 258 307 Z" stroke="none" fill="#676758"></path>

<path d="M 270 305
Q 269.5 305 269 305 268.5 305 268 305 267.5 305 267 304.95 261.65 304.65 258 306 258 306.5 258 307 258.5 307 259 307 259.5 307 260 307 265.95 307.45 269.8 305.6 270 305.5 270 305 Z" stroke="none" fill="#766D5C"></path>

<path d="M 273.85 303.95
Q 274 303.5 274 303 273.5 303 273.05 303.15 270.8 303.8 268 304 268 304.5 268 305 268.5 305 269 305 269.5 305 270 305 273.2 305.7 273.85 303.95 Z" stroke="none" fill="#7C6A56"></path>

<path d="M 279.75 301.8
Q 280 301.5 280 301 279.5 301 279 301 276.5 301 274 301 274 301.5 274 302 274 302.5 274 303 278.2 303.7 279.75 301.8 Z" stroke="none" fill="#6E6E5E"></path>

<path d="M 242 327
Q 242 327.5 242 328 241.75 331.25 245 331.05 245.5 331 246 331 246 330.5 245.8 330.35 243.45 329 242 327 Z" stroke="none" fill="#304C51"></path>

<path d="M 241.5 327.95
Q 241.5 328 242 328 242 327.5 242 327 242 326.5 242 326 242 324 242 322 244 320.5 245.75 318.75 246 318.5 246 318 245.5 318 245.15 318.2 243 319.5 241 321 241 324.5 241.5 327.95 Z" stroke="none" fill="#1F393F"></path>

<path d="M 206 299
Q 206 298.5 205.8 298.4 201.95 296.6 196 297 198.15 300.35 205 299.1 205.5 299 206 299 Z" stroke="none" fill="#706E5E"></path>

<path d="M 217 301.05
Q 217.5 301 218 301 218 300.5 217.8 300.4 214.15 298.4 208 299 210.6 301.9 217 301.05 Z" stroke="none" fill="#746D59"></path>

<path d="M 232.2 312.9
Q 232 312.5 232 312 231.5 312 231.35 312.25 229 316 226 319 225.7 325.8 227.45 330.85 227.5 331 228 331 228 330.5 228.1 330 228.75 326.75 227 321 234.25 317 232.2 312.9 Z" stroke="none" fill="#02151F"></path>

<path d="M 227 303.1
Q 227.5 303 228 303 228 302.5 227.8 302.4 224.8 300.75 220 301 221.2 304.3 227 303.1 Z" stroke="none" fill="#736C5A"></path>

<path d="M 240 302
Q 240 302.5 240 303 246.35 302.15 252.1 304.8 252.5 305 253 305 253 304.5 253 304 253 303.5 253 303 252.5 303 252.15 302.75 246.9 299.25 240 302 Z" stroke="none" fill="#391603"></path>

<path d="M 234 309
L 233.5 309
Q 233.65 311.15 232 311 232 311.5 232 312 232 312.5 232.2 312.9 234.25 317 227 321 228.75 326.75 228.1 330 228 330.5 228 331 232.3 343.2 249 343 249.5 343 250 343 255.3 334.95 246.9 331.2 246.5 331 246 331 245.5 331 245 331.05 241.75 331.25 242 328 241.5 328 241.5 327.95 241 324.5 241 321 243 319.5 245.15 318.2 245.5 318 246 318 246 317.5 246 317 249.35 313.35 252.75 309.75 253 309.5 253 309 253 308.5 253 308 253 306.5 253 305 252.5 305 252.1 304.8 246.35 302.15 240 303 239.5 303 239 303 239 303.5 238.75 303.75 236.3 306.3 234 309 Z" stroke="none" fill="#030A14"></path>

<path d="M 239 303
Q 238.5 303 238 303 233 303 228 303 233.15 304.95 233.9 308.05 234 308.5 234 309 236.3 306.3 238.75 303.75 239 303.5 239 303 Z" stroke="none" fill="#636354"></path>

<path d="M 234 292
Q 234 291.5 233.95 291.5 230 291 226 291 227.65 294.35 233.85 292.55 234 292.5 234 292 Z" stroke="none" fill="#AE7610"></path>

<path d="M 226 291
Q 226 290.5 225.85 290.45 221.35 289.15 216 289 218.15 292.35 225 291.1 225.5 291 226 291 Z" stroke="none" fill="#A9730B"></path>

<path d="M 195.8 296.4
Q 192.8 294.75 188 295 189.2 298.3 195 297.1 195.5 297 196 297 196 296.5 195.8 296.4 Z" stroke="none" fill="#6D6F63"></path>

<path d="M 188 295
Q 188 294.5 187.85 294.45 177.2 291.3 164 291 173.45 295.05 187 295 187.5 295 188 295 Z" stroke="none" fill="#716E5E"></path>

<path d="M 174 280
Q 174 280.5 174 281 192.45 287.55 215 289.5
L 215 289
Q 215 288.5 214.9 288.5 193.9 284.6 174 280 Z" stroke="none" fill="#A57008"></path>

<path d="M 174 280
Q 173.5 280 173 279.9 149.1 275.9 126 271 145.9 279.6 173 280.95 173.5 281 174 281 174 280.5 174 280 Z" stroke="none" fill="#A36F05"></path>

<path d="M 313.9 275.5
Q 314 275.5 314 275 313.5 275 313 275 308.45 274.95 306 277 306 277.5 306 278 309.35 276.35 313.9 275.5 Z" stroke="none" fill="#2B4248"></path>

<path d="M 317.75 274.75
Q 318 274.5 318 274 317.5 274 317.15 274.25 315.95 274.95 314 275 314 275.5 313.9 275.5 309.35 276.35 306 278 305.5 278 305 278 304.5 278 304 278 303.9 279.65 306 279.5
L 306 280
Q 310.8 280.25 316.2 276.25 316.5 276 317 276 317 275.5 317 275 317.5 275 317.75 274.75 Z" stroke="none" fill="#05141B"></path>

<path d="M 319.75 272.3
Q 320 272.5 320 273 320.5 273 320.5 272.9 321.2 268.8 314 267 316.6 269.9 319.75 272.3 Z" stroke="none" fill="#364648"></path>

<path d="M 300.8 293.4
Q 301 293.5 301 294 309.5 290.5 317.8 286.6 318 286.5 318 286
L 318 285.5
Q 303.5 285.8 298 291 299 292.5 300.8 293.4 Z" stroke="none" fill="#040F17"></path>

<path d="M 297 291
Q 296.5 291 296 291 296.5 291.5 296.8 292.1 297 292.5 297 293 297.85 293.55 300 293.9 300.5 294 301 294 301 293.5 300.8 293.4 299 292.5 298 291 297.5 291 297 291 Z" stroke="none" fill="#354A4D"></path>

<path d="M 290 293
Q 290 293.5 290 294 290 294.5 290 295 294.45 295.45 296.3 293.25 296.5 293 297 293 297 292.5 296.8 292.1 296.5 291.5 296 291 295.5 291 295 291.05 291.95 291.45 290 293 Z" stroke="none" fill="#6B6E5D"></path>

<path d="M 289.8 295.9
Q 290 295.5 290 295 289.5 295 289 295.05 285.15 295.65 282 297 282 297.5 282 298 282 298.5 282 299 288.8 297.8 289.8 295.9 Z" stroke="none" fill="#6E6D5C"></path>

<path d="M 303 278
Q 302.5 278 302 278 302 278.5 301.9 278.5 297.05 279.55 295 283 295 283.5 295 284 295 284.5 295 285 299.1 281.6 305.05 280.1 305.5 280 306 280
L 306 279.5
Q 303.9 279.65 304 278 303.5 278 303 278 Z" stroke="none" fill="#3C1402"></path>

<path d="M 302 278
Q 302.5 278 303 278 303.5 278 304 278 304.5 278 305 278 305.5 278 306 278 306 277.5 306 277 306 276.5 306 276 306 275 306 274 305.5 274 305.45 274.15 304.7 276.7 302 277 302 277.5 302 278 Z" stroke="none" fill="#746552"></path>

<path d="M 302 262.95
Q 302.5 263 303 263 303 262.5 302.75 262.35 300.25 260.75 298 259 298 259.5 298 260 298.75 262.7 302 262.95 Z" stroke="none" fill="#6E5230"></path>

<path d="M 308 267
Q 307.5 267 307 267 306.5 267 306 267 306 269 306 271 306 271.5 306 272 309.1 272.1 308.1 267.95 308 267.5 308 267 Z" stroke="none" fill="#796A58"></path>

<path d="M 308 265
Q 308 265.5 308 266 308 266.5 308 267 308 267.5 308.1 267.95 309.1 272.1 306 272 306 272.5 306 273 306 273.5 306 274 306 275 306 276 306 276.5 306 277 308.45 274.95 313 275 313.5 275 314 275 315.95 274.95 317.15 274.25 317.5 274 318 274 318 273.5 318 273 318.5 273 319 273 319.5 273 320 273 320 272.5 319.75 272.3 316.6 269.9 314 267 313.5 267 313.15 266.8 311 265.45 308 265 Z" stroke="none" fill="#596F6F"></path>

<path d="M 306 258
Q 311.85 257.85 313.45 253.15 313.5 253 314 253 314 252.5 313.8 252.4 313 252 312 252 311.5 252 311 252 306.5 252 302 252 301.5 252 301.5 252.05 301.15 255.65 298 256 298 257 298 258 298 258.5 298 259 300.25 260.75 302.75 262.35 303 262.5 303 263 305.75 262.8 307.15 263.75 307.5 264 308 264 308 263.5 307.95 263 307.85 262.1 306 258 Z" stroke="none" fill="#2D0C01"></path>

<path d="M 320 256
Q 320 255.5 319.75 255.3 317.45 253.55 314 253 317.25 257.25 323.05 258.85 323.5 259 324 259 324 258.5 323.9 258.5 321.1 257.9 320 256 Z" stroke="none" fill="#102D35"></path>

<path d="M 274 290
Q 274 290.5 274 291 283.85 287.35 291.2 281.25 291.5 281 292 281 295.45 272.45 297.5 263
L 297 263
Q 297 263.5 296.85 263.95 290.3 281.8 274 290 Z" stroke="none" fill="#A56F07"></path>

<path d="M 262 295
Q 262 295.5 261.8 295.6 261 296 260 296 267.55 298 271.5 292
L 271 292
Q 270.5 292 270.15 292.2 267.05 294.05 262 294 262 294.5 262 295 Z" stroke="none" fill="#A36D04"></path>

<path d="M 262 295
Q 261.5 295 261 295 257.5 295 254 295 254 295.5 254 296 256.5 296 259 296 259.5 296 260 296 261 296 261.8 295.6 262 295.5 262 295 Z" stroke="none" fill="#AE7411"></path>

<path d="M 253 294.95
Q 248.7 294.3 244 294 244 294.5 244 295 248.55 297.35 253.05 296.15 253.5 296 254 296 254 295.5 254 295 253.5 295 253 294.95 Z" stroke="none" fill="#AC770C"></path>

<path d="M 243 295.05
Q 243.5 295 244 295 244 294.5 244 294 243.5 294 243.15 293.75 241.75 292.8 239 293 238.5 293 238 293 236.5 293 235 293 237.6 295.45 243 295.05 Z" stroke="none" fill="#A76F07"></path>

<path d="M 314 236
Q 314 236.5 314.1 237 314.65 239.65 312 239 312 243.5 312 248 312 248.5 312 249 314.3 244.3 315.85 238.95 316 238.5 316 238
L 315.5 238
Q 315.65 235.9 314 236 Z" stroke="none" fill="#6C6E5F"></path>

<path d="M 316.1 226
Q 316 225.5 316 225 315.5 225 315 225 314.5 225 314 225 314 228 314 231 314 231.5 314 232 317.25 231.25 316.1 226 Z" stroke="none" fill="#74634B"></path>

<path d="M 302 239
L 301.5 239
Q 301.05 248.55 298 255 298 255.5 298 256 301.15 255.65 301.5 252.05 301.5 252 302 252 302 251.5 302 251 302.4 242.9 302 239 Z" stroke="none" fill="#9B6307"></path>

<path d="M 318 214
Q 317.5 214 317.1 214.2 316.5 214.5 316 215 316 218.5 316 222 316 222.5 316 223 319.35 221.35 318.1 215 318 214.5 318 214 Z" stroke="none" fill="#6C624E"></path>

<path d="M 306 219
Q 305.5 219 305 219 305 219.5 305.1 220 305.7 222.7 304 223 304 224 304 225 304 225.5 304 226 307.25 225.25 306.1 220 306 219.5 306 219 Z" stroke="none" fill="#A86E06"></path>

<path d="M 307 208
L 306.5 208
Q 306.7 212.2 305 214 305 216 305 218 305 218.5 305 219 305.5 219 306 219 306 218.5 306 218 306 216.5 306 215 307.7 213.2 307.05 209 307 208.5 307 208 Z" stroke="none" fill="#D59D36"></path>

<path d="M 308.1 207.95
Q 308 207.5 308 207 307.5 207 307 207 307 207.5 307 208 307 208.5 307.05 209 307.7 213.2 306 215 306 216.5 306 218 306 218.5 306 219 309.6 213.6 308.1 207.95 Z" stroke="none" fill="#A46803"></path>

<path d="M 309 199
Q 309 200.5 309 202 309 202.5 309 203 309 203.5 309.2 203.9 311.05 207.9 309 199 Z" stroke="none" fill="#A06301"></path>

<path d="M 132 299
Q 131.5 299 131 299 131 315 131.5 331
L 132 331
Q 132 330.5 132 330 132.6 315.55 132 299 Z" stroke="none" fill="#07282E"></path>

<path d="M 147 312
Q 146.5 312 146 312 146 317.5 146.5 322.95 146.5 323 147 323 147 322.5 147 322 147 317 147 312 Z" stroke="none" fill="#38585E"></path>

<path d="M 147 300
Q 146.606640625 300 146.2 300 146.106640625 300 146 300 146 300.5138671875 146 301 146 306.0138671875 146 311 146 311.5 146 312 146.5 312 147 312 147 311.5 147 311 147 305.5 147 300 Z" stroke="none" fill="#2C454C"></path>

<path d="M 79 215
Q 79 214.5 78.75 214.25 76.75 212.25 72 213 75 214 78.05 214.85 78.5 215 79 215 Z" stroke="none" fill="#2C4F56"></path>

<path d="M 150 287
Q 150 288 150 289 150 289.5 150 290 151.45 288.8 154 289.5
L 154 289
Q 154 288.5 153.75 288.2 152.7 286.8 150 287 Z" stroke="none" fill="#716A58"></path>

<path d="M 150 287
Q 149.5 287 149 287 149 287.5 148.9 288 147.5765625 293.758203125 146.2 300 146.606640625 300 147 300 147 299.5 147 299 148.5 295 149.85 290.95 150 290.5 150 290 150 289.5 150 289 150 288 150 287
M 137.25 287.8
Q 137 287.5 137 287
L 136.5 287
Q 136.65 289.15 135 289 135 289.5 134.8 289.9 132.85 293.35 132 298 132 298.5 132 299 132.6 315.55 132 330 132 330.5 132 331 130.85 345.65 145.95 343.5 146 343.5 146 343 149.05 335.55 147.1 324 147 323.5 147 323 146.5 323 146.5 322.95 146 317.5 146 312 146 311.5 146 311 146 306.0138671875 146 301 142.615625 316.5392578125 139 335 138.5 335 138.35 334.75 131.25 323.75 134 303 142.6 293.9 137.25 287.8 Z" stroke="none" fill="#020D17"></path>

<path d="M 137 286
Q 137 285.5 136.85 285.45 131.8 283.7 126 283 129.85 286.15 134.8 288.4 135 288.5 135 289 136.65 289.15 136.5 287
L 137 287
Q 137 286.5 137 286 Z" stroke="none" fill="#6D6757"></path>

<path d="M 137.75 285.75
Q 137.5 286 137 286 137 286.5 137 287 137 287.5 137.25 287.8 142.6 293.9 134 303 131.25 323.75 138.35 334.75 138.5 335 139 335 142.615625 316.5392578125 146 301 146 300.5138671875 146 300 146.106640625 300 146.2 300 147.5765625 293.758203125 148.9 288 149 287.5 149 287 149 286.5 148.75 286.25 148.5 286 148 286 147.5 286 147.05 285.8 143.6 284.4 138 285 138 285.5 137.75 285.75 Z" stroke="none" fill="#090204"></path>

<path d="M 123.05 283.1
Q 123.5 283 124 283 124 282.5 123.85 282.05 123.2 280.3 120 281 119.6 283.95 123.05 283.1 Z" stroke="none" fill="#796C5A"></path>

<path d="M 139 283
Q 139 283.5 139 284 142.5 284 146 284 146.5 284 147 284 147 283.5 146.95 283.5 143 283 139 283 Z" stroke="none" fill="#73532F"></path>

<path d="M 139 284
Q 138.5 284 138 284 138 284.5 138 285 143.6 284.4 147.05 285.8 147.5 286 148 286 148 285.5 147.8 285.1 147.5 284.5 147 284 146.5 284 146 284 142.5 284 139 284 Z" stroke="none" fill="#4B2A05"></path>

<path d="M 118 281
Q 118 280.5 117.75 280.35 112.4 276.85 108 275 108.85 281.65 117 281.05 117.5 281 118 281 Z" stroke="none" fill="#677060"></path>

<path d="M 108 275
Q 108 274.5 107.75 274.2 105.05 270.45 100 269 101.6 273.9 107 274.9 107.5 275 108 275 Z" stroke="none" fill="#6F6D5B"></path>

<path d="M 99.1 268.8
Q 99.5 269 100 269 100 268.5 99.9 268.05 99.2 265.25 96 265 96.8 267.7 99.1 268.8 Z" stroke="none" fill="#6B7062"></path>

<path d="M 108 261
Q 110.8 267.7 119 268.95 119.5 269 120 269 120 268.5 119.8 268.4 112.6 265.4 108 260 108 260.5 108 261 Z" stroke="none" fill="#A87007"></path>

<path d="M 99 246
Q 98.5 246 98 246 98.65 256.1 107.1 260.8 107.5 261 108 261 108 260.5 108 260 108 259.5 107.75 259.3 101.4 254.6 99 246 Z" stroke="none" fill="#A86F06"></path>

<path d="M 86 245
Q 85.5 245 85 245 84.5 245 84 245 83.85 249.65 87.05 250.85 87.5 251 88 251 88 250.5 87.85 250.05 87 247.5 86 245 Z" stroke="none" fill="#68705E"></path>

<path d="M 84 226
Q 83.5 226 83 226 82.5 226 82 226 81.25 233.75 83.4 238.8 83.5 239 84 239 84 238.5 84 238 84 232 84 226 Z" stroke="none" fill="#687065"></path>

<path d="M 89.9 225
Q 90 224.5 90 224 89.5 224 89.5 224.1 89.15 225.65 87 225 87 225.5 86.85 225.55 85.5 226 84 226 84 232 84 238 84 238.5 84 239 84 241.5 84 244 84 244.5 84 245 84.5 245 85 245 85.5 245 86 245 86 244.5 86 244 86 236.5 86 229 89.35 228.35 89.9 225 Z" stroke="none" fill="#8C6540"></path>

<path d="M 95 223
Q 94.5 223 94 223 94 229 94.5 234.95 94.5 235 95 235 95 234.5 95 234 95 228.5 95 223 Z" stroke="none" fill="#C18528"></path>

<path d="M 96 211
L 95.5 211
Q 95.7 215.2 94 217 94 219.5 94 222 94 222.5 94 223 94.5 223 95 223 95 222.5 95 222 95 220 95 218 96.7 216.2 96.05 212 96 211.5 96 211 Z" stroke="none" fill="#B77B20"></path>

<path d="M 90.05 222
Q 90.55 218.45 88 218 88 218.5 88.1 219 88.7 222.7 87 224 87 224.5 87 225 89.15 225.65 89.5 224.1 89.5 224 90 224 90 223.5 90 223 90 222.5 90.05 222 Z" stroke="none" fill="#4B2201"></path>

<path d="M 86 216
Q 86 216.5 85.9 216.55 84 217 82 217 86.05 218.9 84.15 225.05 84 225.5 84 226 85.5 226 86.85 225.55 87 225.5 87 225 87 224.5 87 224 88.7 222.7 88.1 219 88 218.5 88 218 88 217.5 87.75 217.25 87 216.5 86 216 Z" stroke="none" fill="#170700"></path>

<path d="M 85 215
Q 84.5 215 84 215 83.5 215 83 215 81 215 79 215 78.5 215 78.05 214.85 75 214 72 213 71.5 213 71 213 57 213 57 227 55.75 243.25 66.1 247.8 66.5 248 67 248 73.15 248.65 74.8 244.9 75 244.5 75 244 66.25 226.05 81 226 81.5 226 82 226 82.5 226 83 226 83.5 226 84 226 84 225.5 84.15 225.05 86.05 218.9 82 217 84 217 85.9 216.55 86 216.5 86 216 86 215.5 86 215 85.5 215 85 215 Z" stroke="none" fill="#020F1A"></path>

<path d="M 86 208
Q 85.5 208 85.1 208.2 84.5 208.5 84 209 84 211.5 84 214 84 214.5 84 215 84.5 215 85 215 85.5 215 86 215 86 214.5 86 214 86 211 86 208 Z" stroke="none" fill="#587562"></path>

<path d="M 99.5 202.05
Q 99.5 202 99 202 99 202.5 98.85 202.95 97.6 207.1 96 211 96 211.5 96.05 212 96.7 216.2 95 218 95 220 95 222 95 222.5 95 223 95 228.5 95 234 95 234.5 95 235 95.6 240.9 97.8 245.1 98 245.5 98 246 98.5 246 99 246 99 245.5 98.9 245.05 96.8 237.2 97 227 100.3 213.25 99.5 202.05 Z" stroke="none" fill="#EEB649"></path>

<path d="M 90.15 191.95
Q 90 191.5 90 191 89.5 191 89 191 88.5 191 88 191 88 193.5 88 196 88 196.5 88 197 88 197.5 88.1 198 89.1 204.1 86 206 86 206.5 86 207 86 207.5 86 208 86 211 86 214 86 214.5 86 215 86 215.5 86 216 87 216.5 87.75 217.25 88 217.5 88 218 90.55 218.45 90.05 222 90 222.5 90 223 90.5 223 90.5 222.95 90.9 218.1 88 207 92.6 199.05 90.15 191.95 Z" stroke="none" fill="#906434"></path>

<path d="M 88 197
L 87.5 197
Q 87.65 199.15 86 199 86 202 86 205 86 205.5 86 206 89.1 204.1 88.1 198 88 197.5 88 197 Z" stroke="none" fill="#6D705A"></path>

<path d="M 92.1 176
Q 92 175.5 92 175 91.5 175 91.1 175.2 90.5 175.5 90 176 90 179 90 182 90 182.5 90 183 93.3 181.8 92.1 176 Z" stroke="none" fill="#616255"></path>

<path d="M 94.1 168
Q 94 167.5 94 167 93.5 167 93 167 92.5 167 92 167 92 170.5 92 174 92 174.5 92 175 95.3 173.8 94.1 168 Z" stroke="none" fill="#6A6251"></path>

<path d="M 95 159
Q 94.5 159 94 159 94 162.5 94 166 94 166.5 94 167 96.65 165.15 96.05 160 96 159.5 96 159 95.5 159 95 159 Z" stroke="none" fill="#776349"></path>

<path d="M 105 167
Q 106.75 164.75 106.05 160 106 159.5 106 159 105.5 159 105 159 105 162.5 105 166 105 166.5 105 167 Z" stroke="none" fill="#C88B37"></path>

<path d="M 100.1 134
Q 100 133.5 100 133
L 99.5 133
Q 99.65 135.15 98 135 98 138.5 98 142 98 142.5 98 143 101.35 140.85 100.1 134 Z" stroke="none" fill="#6F6450"></path>

<path d="M 102.05 120
Q 102 119.5 102 119 101.5 119 101 119 100.5 119 100 119 100 124.5 100 130 100 130.5 100 131 102.8 127.3 102.05 120 Z" stroke="none" fill="#676351"></path>

<path d="M 104.1 114
Q 104 113.5 104 113 103.5 113 103 113 102.5 113 102 113 102 115.5 102 118 102 118.5 102 119 105.2 118.7 104.1 114 Z" stroke="none" fill="#6B6351"></path>

<path d="M 106 105
Q 105.5 105 105 105 104.5 105 104 105 104 108 104 111 104 111.5 104 112 106.9 110.9 106.1 106 106 105.5 106 105 Z" stroke="none" fill="#6D6450"></path>

<path d="M 128 81
Q 127.5 81 127.3 81.25 125.15 83.65 122 85 122 86.5 122 88 122 88.5 122 89 125.3 85.8 127.75 81.85 128 81.5 128 81 Z" stroke="none" fill="#AB7110"></path>

<path d="M 135 76
Q 135 75.5 135 75 134.5 75 134.2 75.25 131.7 77.2 128 78 128 79 128 80 128 80.5 128 81 131.5 79 134.75 76.65 135 76.5 135 76 Z" stroke="none" fill="#A86C0D"></path>

<path d="M 139 73
Q 138.5 73 138 73 136.05 73.05 135 74 135 74.5 135 75 135 75.5 135 76 137.55 75.55 138.75 73.85 139 73.5 139 73 Z" stroke="none" fill="#AD720F"></path>

<path d="M 138 63
Q 137.5 63 137 63 134.5 63 132 63 132 63.5 132 64 132 64.5 132 65 135.5 65 137.8 63.65 138 63.5 138 63
M 292 81
Q 288 81 284 81 292.3 84.2 301.05 86.85 301.5 87 302 87 302 86.5 301.8 86.4 296.85 84.15 293 81 292.5 81 292 81 Z" stroke="none" fill="#6F634E"></path>

<path d="M 129.75 67.75
Q 130 67.5 130 67 129.5 67 129 67.05 125.95 67.45 124 69 124 69.5 124 70 124 70.5 124 71 127.45 69.95 129.75 67.75 Z" stroke="none" fill="#6E634F"></path>

<path d="M 141.85 61.95
Q 142 61.5 142 61 141.5 61 141 61 139.5 61 138 61 138 61.5 138 62 138 62.5 138 63 141.2 63.7 141.85 61.95
M 330 144
Q 330.5 144 330.55 143.85 334.05 133.4 330 125 331.6 134.7 330.1 143 330 143.5 330 144 Z" stroke="none" fill="#716049"></path>

<path d="M 142 60
Q 142 60.5 142 61 146.55 61.55 148.75 59.7 149 59.5 149 59 148.5 59 148 59 145 59 142 59 142 59.5 142 60 Z" stroke="none" fill="#6E624D"></path>

<path d="M 120 93
Q 119.5 93 119.35 93.25 116.15 98.15 114 104 114.7 107.4 114.5 114
L 115 114
Q 115 113.5 115 113 115 112 115 111 116.35 101.35 119.8 93.9 120 93.5 120 93 Z" stroke="none" fill="#AA6C0A"></path>

<path d="M 106 93
Q 106 95.5 106 98 106 98.5 106 99 109.2 98.7 108.1 94 108 93.5 108 93 107.5 93 107 93 106.5 93 106 93 Z" stroke="none" fill="#6C624D"></path>

<path d="M 110.1 89.95
Q 110 89.5 110 89 109.5 89 109 89 108.5 89 108 89 108 90.5 108 92 108 92.5 108 93 110.95 93.4 110.1 89.95
M 306 89
Q 306 88.5 305.85 88.05 305.2 86.3 302 87 301.6 89.9 305.05 89.1 305.5 89 306 89 Z" stroke="none" fill="#70644F"></path>

<path d="M 322 192
L 321.5 192
Q 321.65 194.15 320 194 320 197 320 200 320 200.5 320 201 323.35 199.35 322.1 193 322 192.5 322 192 Z" stroke="none" fill="#70614A"></path>

<path d="M 311.5 187
Q 311.7 190.2 310 191 310 191.5 310 192 310 192.5 310 193 312.9 196.5 312.05 188 312 187.5 312 187
L 311.5 187 Z" stroke="none" fill="#A97007"></path>

<path d="M 314.1 176
Q 314 175.5 314 175
L 313.5 175
Q 313.75 179.75 312 182 312 182.5 312 183 315.3 181.8 314.1 176 Z" stroke="none" fill="#A46904"></path>

<path d="M 315 167
Q 315 167.5 315 168 315 168.5 315.1 169 316.6 178.7 315 167 Z" stroke="none" fill="#A36401"></path>

<path d="M 319 143
Q 319.5 143 319.5 142.95 320.75 134.75 319 129 319 135.5 319 142 319 142.5 319 143 Z" stroke="none" fill="#E5A74E"></path>

<path d="M 319 127
Q 319 126.5 319 126 319.25 121.25 317 119 317.5 123 318.45 126.9 318.5 127 319 127 Z" stroke="none" fill="#D89B3D"></path>

<path d="M 315 115
Q 315 114.5 314.9 114.05 313.95 110.55 311 109 312.2 112.3 314.3 114.75 314.5 115 315 115 Z" stroke="none" fill="#D19239"></path>

<path d="M 321.05 106.85
Q 321.5 107 322 107 322 106.5 322.1 106.05 322.95 102.6 320 103 319.3 106.2 321.05 106.85 Z" stroke="none" fill="#71624B"></path>

<path d="M 317.05 100.85
Q 317.5 101 318 101 318 100.5 317.95 100 317.55 96 314 95 313.85 99.65 317.05 100.85 Z" stroke="none" fill="#72644F"></path>

<path d="M 210 66.9
Q 210.5 67 211 67 211 66.5 210.75 66.3 208.55 64.45 204 65 206.8 66.2 210 66.9 Z" stroke="none" fill="#745F46"></path>

<path d="M 233 71
Q 233.5 71 234 71 234 70.5 233.8 70.4 226.45 67.05 216 67 222.9 70.6 233 71 Z" stroke="none" fill="#6A6351"></path>

<path d="M 234 71
Q 235.85 73.65 241 73.05 241.5 73 242 73 242 72.5 241.75 72.3 239.25 70.25 234 71 Z" stroke="none" fill="#73654E"></path>

<path d="M 179 70.9
Q 179.5 71 180 71 180 70.5 179.75 70.3 177.25 68.25 172 69 175.35 70.15 179 70.9 Z" stroke="none" fill="#A66805"></path>

<path d="M 163 68
Q 162.5 68 162 68 158.5 68 155 68 155 68.5 155 69 158.5 69 162 69 162.5 69 163 69 163 68.5 163 68 Z" stroke="none" fill="#D09643"></path>

<path d="M 163 68
L 163.5 68
Q 159.75 66.25 153 67 153.5 67.5 154.1 67.8 154.5 68 155 68 158.5 68 162 68 162.5 68 163 68 Z" stroke="none" fill="#9B5E02"></path>

<path d="M 193 62.9
Q 193.5 63 194 63
L 194 62.5
Q 183.5 62 177 58
L 177.5 58
Q 167.1 56.5 150 57 150 57.5 150 58 150 58.5 150 59 173.5 59.45 193 62.9 Z" stroke="none" fill="#6B6350"></path>

<path d="M 202 65
Q 202 64.5 201.75 64.3 199.25 62.25 194 63 195.2 66.3 201 65.1 201.5 65 202 65 Z" stroke="none" fill="#6B624F"></path>

<path d="M 192 73.95
Q 188.05 73.45 185 72 184.5 72 184 71.9 182 71.5 180 71 179.5 71 179 70.9 175.35 70.15 172 69 171.5 69 171 69 167 69 163 69 162.5 69 162 69 158.5 69 155 69 154.5 69 154 69.05 145.75 70.25 139 73 139 73.5 138.75 73.85 137.55 75.55 135 76 135 76.5 134.75 76.65 131.5 79 128 81 128 81.5 127.75 81.85 125.3 85.8 122 89 122 89.5 121.95 90 121.7 91.7 120 92 120 92.5 120 93 120 93.5 119.8 93.9 116.35 101.35 115 111 115 112 115 113 115 113.5 115 114 115 114.5 114.9 115 110.3 136.8 106 159 106 159.5 106.05 160 106.75 164.75 105 167 105 167.5 104.95 168 102.9 182.4 99 195 99 198 99 201 99 201.5 99 202 99.5 202 99.5 202.05 100.3 213.25 97 227 96.8 237.2 98.9 245.05 99 245.5 99 246 101.4 254.6 107.75 259.3 108 259.5 108 260 112.6 265.4 119.8 268.4 120 268.5 120 269 123.7 268.75 125.3 270.75 125.5 271 126 271 149.1 275.9 173 279.9 173.5 280 174 280 193.9 284.6 214.9 288.5 215 288.5 215 289 215.5 289 216 289 221.35 289.15 225.85 290.45 226 290.5 226 291 230 291 233.95 291.5 234 291.5 234 292 236.5 292 238.9 292.5 239 292.5 239 293 241.75 292.8 243.15 293.75 243.5 294 244 294 248.7 294.3 253 294.95 253.5 295 254 295 257.5 295 261 295 261.5 295 262 295 262 294.5 262 294 267.05 294.05 270.15 292.2 270.5 292 271 292 271 291.5 271 291 272 291 273 291 273.5 291 274 291 274 290.5 274 290 290.3 281.8 296.85 263.95 297 263.5 297 263 297 262.5 297 262 297 261 297 260 297.5 260 298 260 298 259.5 298 259 298 258.5 298 258 298 257 298 256 298 255.5 298 255 301.05 248.55 301.5 239
L 302 239
Q 302 238.5 302 238 302 236.5 302 235 303.15 231.15 303.9 227 304 226.5 304 226 304 225.5 304 225 304 224 304 223 305.7 222.7 305.1 220 305 219.5 305 219 305 218.5 305 218 305 216 305 214 306.7 212.2 306.5 208
L 307 208
Q 307 207.5 307 207 307.5 207 308 207 308 206.5 308 206 308 204.5 308 203 308.5 203 309 203 309 202.5 309 202 309 200.5 309 199 309 198.5 309 198 309 196.5 309 195 309.5 194.5 309.8 193.9 310 193.5 310 193 310 192.5 310 192 310 191.5 310 191 311.7 190.2 311.5 187
L 312 187
Q 312 186.5 312 186 312 184.5 312 183 312 182.5 312 182 313.75 179.75 313.5 175
L 314 175
Q 314 174.5 314 174 314 171 314 168 314.5 168 315 168 315 167.5 315 167 315 166.5 315 166 315 164 315 162 318.35 154.35 318.95 144 319 143.5 319 143 319 142.5 319 142 319 135.5 319 129 319 128.5 319 128 319 127.5 319 127 318.5 127 318.45 126.9 317.5 123 317 119 316.5 119 316.5 118.95 316.25 116.3 315 115 314.5 115 314.3 114.75 312.2 112.3 311 109 311 108.5 310.8 108.35 263.1 79.9 193 74 192.5 74 192 73.95
M 174 73.9
Q 174.5 74 175 74 176.8 75.7 179.9 76.45 180 76.5 180 77 254.45 81.05 301.75 112.35 302 112.5 302 113 294.05 113.95 289.75 109.25 289.5 109 289 109 269.65 109.35 256.9 103.2 256.5 103 256 103 243.95 102.05 236.05 102.5 236 102.5 236 103 219.7 93.8 195 93 194.5 93 194 93 163.65 88.55 150.25 76.7 150 76.5 150 76 159.7 71.55 174 73.9
M 209.85 117.45
Q 210 117.5 210 118 213.8 118.2 215.75 120.25 216 120.5 216 121 226.4 125.1 233.75 132.25 234 132.5 234 133 237.1 133.9 238.75 136.2 239 136.5 239 137 252.1 149.9 255.9 172 256 172.5 256 173 256.5 173 256.5 173.1 258.3 184.3 255 191 255 191.5 254.85 191.95 243.2 223.2 212 235 212 235.5 211.75 235.8 209.05 239.05 203 239 202.5 239 202 239 202 239.5 201.75 239.7 198 242.5 194 240 193.5 240 193.05 239.85 190 239 187 238 186.5 238 186.05 238.15 173.55 241.95 172 230 171.5 230 171 230 170.5 230 170.5 229.95 170 225.5 170 221 170.5 221 171 221 171 220.5 171 220 171 219.5 171 219 171.5 219 172 219 172 218.5 172 218 172 214.5 172 211 172 210.5 172 210 172 204.5 172 199 172.5 199 173 199 173 198.5 173 198 173 196.5 173 195 173.5 195 174 195 174 194.5 174 194 174 192.5 174 191 174 190.5 174 190 174 186.5 174 183 174 182.5 174 182 174 178.5 174 175 174.5 175 175 175 175 174.5 175 174 175 170.5 175 167 175.5 167 176 167 176 166.5 176 166 176 162 176 158 176 157.5 176 157 176 150 176 143 176 142.5 176 142 176 134.5 176 127 177.7 126.2 177.5 123
L 178 123
Q 178 122.5 178 122 178 121.5 178 121 178 119 178 117 180.7 115.3 180.9 116.05 181 116.5 181 117 183.25 115.25 186.05 114.15 186.5 114 187 114 187 113.5 187 113 192 113 196.95 113.5 197 113.5 197 114 203.8 115.2 209.85 117.45 Z" stroke="none" fill="#F8C841"></path>

<path d="M 202 239
Q 201.5 239 201.1 239.2 198.55 240.55 194 240 198 242.5 201.75 239.7 202 239.5 202 239 Z" stroke="none" fill="#DCBF71"></path>

<path d="M 187 237
Q 187 237.5 187 238 190 239 193.05 239.85 193.5 240 194 240 194 239.5 193.8 239.35 190.9 237.65 187 237 Z" stroke="none" fill="#876D28"></path>

<path d="M 172 219
Q 171.5 219 171 219 171 219.5 171 220 171 220.5 171 221 171 225 171 229 171 229.5 171 230 171.5 230 172 230 172 229.5 172 229 172 224 172 219 Z" stroke="none" fill="#785A0F"></path>

<path d="M 171 221
Q 170.5 221 170 221 170 225.5 170.5 229.95 170.5 230 171 230 171 229.5 171 229 171 225 171 221 Z" stroke="none" fill="#E2C77A"></path>

<path d="M 173 202
Q 173 200.5 173 199 172.5 199 172 199 172 204.5 172 210 172 210.5 172 211 173.75 208.75 173.05 204 173 203.5 173 203 173 202.5 173 202 Z" stroke="none" fill="#D4B86C"></path>

<path d="M 212 235
Q 211.5 235 211.1 235.2 207.65 237.15 203 238 203 238.5 203 239 209.05 239.05 211.75 235.8 212 235.5 212 235 Z" stroke="none" fill="#CCB26E"></path>

<path d="M 256.5 173.1
Q 256.5 173 256 173 256 173.5 256.05 174 256.75 181.25 255 186 255 188 255 190 255 190.5 255 191 258.3 184.3 256.5 173.1 Z" stroke="none" fill="#78580F"></path>

<path d="M 174 195
Q 173.5 195 173 195 173 196.5 173 198 173 198.5 173 199 173 200.5 173 202 173 202.5 173 203 174.75 200.75 174.05 196 174 195.5 174 195 Z" stroke="none" fill="#AC8226"></path>

<path d="M 175.05 184
Q 175 183.5 175 183 174.5 183 174 183 174 186.5 174 190 174 190.5 174 191 175.75 188.75 175.05 184 Z" stroke="none" fill="#A0843E"></path>

<path d="M 175 182
Q 175 178.5 175 175 174.5 175 174 175 174 178.5 174 182 174 182.5 174 183 174.5 183 175 183 175 182.5 175 182 Z" stroke="none" fill="#DCBE77"></path>

<path d="M 176 167
Q 175.5 167 175 167 175 170.5 175 174 175 174.5 175 175 176.75 172.75 176.05 168 176 167.5 176 167 Z" stroke="none" fill="#B68613"></path>

<path d="M 177.05 144
Q 177 143.5 177 143 176.5 143 176 143 176 150 176 157 176 157.5 176 158 177.75 152.25 177.05 144 Z" stroke="none" fill="#9C7D49"></path>

<path d="M 181 117
Q 181 116.5 180.9 116.05 180.7 115.3 178 117 178 119 178 121 178 121.5 178 122 179.5 120 180.8 117.85 181 117.5 181 117 Z" stroke="none" fill="#BF934A"></path>

<path d="M 178 123
L 177.5 123
Q 177.7 126.2 176 127 176 134.5 176 142 176 142.5 176 143 176.5 143 177 143 177 142.5 177 142 177 135.5 177 129 178.7 127.7 178.1 124 178 123.5 178 123 Z" stroke="none" fill="#C4A156"></path>

<path d="M 187 114
Q 191.5 114 196 114 196.5 114 197 114 197 113.5 196.95 113.5 192 113 187 113 187 113.5 187 114 Z" stroke="none" fill="#7B5C10"></path>

<path d="M 238.1 136.8
Q 238.5 137 239 137 239 136.5 238.75 136.2 237.1 133.9 234 133 235.35 135.65 238.1 136.8 Z" stroke="none" fill="#7B5516"></path>

<path d="M 215.75 120.25
Q 213.8 118.2 210 118 212.05 119.95 215.05 120.85 215.5 121 216 121 216 120.5 215.75 120.25 Z" stroke="none" fill="#835D11"></path>

<path d="M 210 118
Q 210 117.5 209.85 117.45 203.8 115.2 197 114 196.5 114 196 114 191.5 114 187 114 186.5 114 186.05 114.15 183.25 115.25 181 117 181 117.5 180.8 117.85 179.5 120 178 122 178 122.5 178 123 178 123.5 178.1 124 178.7 127.7 177 129 177 135.5 177 142 177 142.5 177 143 177 143.5 177.05 144 177.75 152.25 176 158 176 162 176 166 176 166.5 176 167 176 167.5 176.05 168 176.75 172.75 175 175 175 178.5 175 182 175 182.5 175 183 175 183.5 175.05 184 175.75 188.75 174 191 174 192.5 174 194 174 194.5 174 195 174 195.5 174.05 196 174.75 200.75 173 203 173 203.5 173.05 204 173.75 208.75 172 211 172 214.5 172 218 172 218.5 172 219 172 224 172 229 172 229.5 172 230 173.55 241.95 186.05 238.15 186.5 238 187 238 187 237.5 187 237 190.9 237.65 193.8 239.35 194 239.5 194 240 198.55 240.55 201.1 239.2 201.5 239 202 239 202.5 239 203 239 203 238.5 203 238 207.65 237.15 211.1 235.2 211.5 235 212 235 243.2 223.2 254.85 191.95 255 191.5 255 191 255 190.5 255 190 255 188 255 186 256.75 181.25 256.05 174 256 173.5 256 173 256 172.5 255.9 172 252.1 149.9 239 137 238.5 137 238.1 136.8 235.35 135.65 234 133 234 132.5 233.75 132.25 226.4 125.1 216 121 215.5 121 215.05 120.85 212.05 119.95 210 118
M 201.85 128.45
Q 202 128.5 202 129 222.15 134.85 231.8 151.15 232 151.5 232 152 234.8 154.2 235.85 158.05 236 158.5 236 159 236.5 159 236.5 159.1 244.85 209.75 201 223 201 223.5 200.8 223.6 194.95 226.4 189 224 188.5 224 188.5 223.95 188 219 188 214 188.5 214 189 214 189 213.5 189 213 189 208.5 189 204 189.5 204 190 204 190 203.5 190 203 190 201 190 199 190 198.5 190 198 190 194.5 190 191 190 190.5 190 190 190 182.5 190 175 190.5 175 191 175 191 174.5 191 174 191 170.5 191 167 191 166.5 191 166 191 162.5 191 159 191.5 159 192 159 192 158.5 192 158 192 153.5 192 149 192 148.5 192 148 192 144.5 192 141 192.5 141 193 141 193 140.5 193 140 193 136 193 132 193.5 132 194 132 194 131.5 194 131 194 130 194 129 194 128.5 194 128 194 127.5 194 127 198.4 127.1 201.85 128.45
M 180.25 173.7
Q 180 173.5 180 173 193.9 183.95 180.25 173.7
M 240.25 151.85
Q 240 151.5 240 151 243.35 156.7 240.25 151.85
M 240.1 158.5
Q 240 158.5 240 158 249.05 160.5 240.1 158.5
M 246.5 197
L 246 197
Q 244.05 206.45 238.25 201.7 238 201.5 238 201 244.8 192.4 246.5 197
M 198 233.5
L 198 233
Q 207.55 231.1 198 233.5 Z" stroke="none" fill="#160603"></path>

<path d="M 198 233
L 198 233.5
Q 207.55 231.1 198 233 Z" stroke="none" fill="#010413"></path>

<path d="M 246 197
L 246.5 197
Q 244.8 192.4 238 201 238 201.5 238.25 201.7 244.05 206.45 246 197 Z" stroke="none" fill="#020514"></path>

<path d="M 240 158
Q 240 158.5 240.1 158.5 249.05 160.5 240 158 Z" stroke="none" fill="#050616"></path>

<path d="M 240 151
Q 240 151.5 240.25 151.85 243.35 156.7 240 151 Z" stroke="none" fill="#060717"></path>

<path d="M 180 173
Q 180 173.5 180.25 173.7 193.9 183.95 180 173 Z" stroke="none" fill="#020912"></path>

<path d="M 200 223
Q 199.5 223 199 223 199 223.5 198.95 223.5 194 224 189 224 194.95 226.4 200.8 223.6 201 223.5 201 223 200.5 223 200 223 Z" stroke="none" fill="#70560A"></path>

<path d="M 189 216
Q 189 215.5 189 215 189 214.5 189 214 188.5 214 188 214 188 219 188.5 223.95 188.5 224 189 224 189 223.5 189 223 189 219.5 189 216 Z" stroke="none" fill="#4D3401"></path>

<path d="M 190 216
Q 189.5 216 189 216 189 219.5 189 223 189 223.5 189 224 194 224 198.95 223.5 199 223.5 199 223 198.5 223 198 223.1 188.15 225.35 190 216 Z" stroke="none" fill="#DBC074"></path>

<path d="M 190 204
Q 189.5 204 189 204 189 208.5 189 213 189 213.5 189 214 189 214.5 189 215 189 215.5 189 216 189.5 216 190 216 190 215.5 190 215 190 209.5 190 204 Z" stroke="none" fill="#8D7342"></path>

<path d="M 236 159
Q 236 158.5 235.85 158.05 234.8 154.2 232 152 232.95 156.05 235.3 158.75 235.5 159 236 159 Z" stroke="none" fill="#D1AF61"></path>

<path d="M 191 193
Q 191.5 193 191.55 192.9 192.75 187.75 191 185 191 187.5 191 190 191 190.5 191 191 191 191.5 191 192 191 192.5 191 193 Z" stroke="none" fill="#E7C978"></path>

<path d="M 191.1 194
Q 191 193.5 191 193 191 192.5 191 192 191 191.5 191 191 190.5 191 190 191 190 194.5 190 198 190 198.5 190 199 191.7 197.7 191.1 194 Z" stroke="none" fill="#A08429"></path>

<path d="M 191 175
Q 190.5 175 190 175 190 182.5 190 190 190 190.5 190 191 190.5 191 191 191 191 190.5 191 190 191 187.5 191 185 191 184.5 191 184 191 183.5 191 183 191 182.5 191 182 191 178.5 191 175 Z" stroke="none" fill="#553B02"></path>

<path d="M 192.05 176
Q 192 175.5 192 175 191.5 175 191 175 191 178.5 191 182 191 182.5 191 183 192.75 180.75 192.05 176 Z" stroke="none" fill="#CAAD6A"></path>

<path d="M 192 167
Q 191.5 167 191 167 191 170.5 191 174 191 174.5 191 175 191.5 175 192 175 192 174.5 192 174 192 170.5 192 167 Z" stroke="none" fill="#6D5235"></path>

<path d="M 192 159
Q 191.5 159 191 159 191 162.5 191 166 191 166.5 191 167 191.5 167 192 167 192 166.5 192 166 192 162.5 192 159 Z" stroke="none" fill="#492E05"></path>

<path d="M 193 159
Q 193 158.5 193 158 193 153.5 193 149 192.5 149 192 149 192 153.5 192 158 192 158.5 192 159 192.5 159 193 159 Z" stroke="none" fill="#795D14"></path>

<path d="M 194.05 142
Q 194 141.5 194 141 193.5 141 193 141 193 144.5 193 148 193 148.5 193 149 193 153.5 193 158 193 158.5 193 159 194.75 151.75 194.05 142 Z" stroke="none" fill="#D1B975"></path>

<path d="M 192 141
Q 192 144.5 192 148 192 148.5 192 149 192.5 149 193 149 193 148.5 193 148 193 144.5 193 141 192.5 141 192 141 Z" stroke="none" fill="#432D01"></path>

<path d="M 194 132
Q 193.5 132 193 132 193 136 193 140 193 140.5 193 141 193.5 141 194 141 194 140.5 194 140 194 136 194 132 Z" stroke="none" fill="#826230"></path>

<path d="M 202 129
Q 201.5 129 201 129 197.5 129 194 129 194 130 194 131 194 131.5 194 132 194 136 194 140 194 140.5 194 141 194 141.5 194.05 142 194.75 151.75 193 159 192.5 159 192 159 192 162.5 192 166 192 166.5 192 167 192 170.5 192 174 192 174.5 192 175 192 175.5 192.05 176 192.75 180.75 191 183 191 183.5 191 184 191 184.5 191 185 192.75 187.75 191.55 192.9 191.5 193 191 193 191 193.5 191.1 194 191.7 197.7 190 199 190 201 190 203 190 203.5 190 204 190 209.5 190 215 190 215.5 190 216 188.15 225.35 198 223.1 198.5 223 199 223 199.5 223 200 223 200.5 223 201 223 244.85 209.75 236.5 159.1 236.5 159 236 159 235.5 159 235.3 158.75 232.95 156.05 232 152 232 151.5 231.8 151.15 222.15 134.85 202 129 Z" stroke="none" fill="#F5C341"></path>

<path d="M 201 129
Q 201.5 129 202 129 202 128.5 201.85 128.45 198.4 127.1 194 127 194 127.5 194 128 194 128.5 194 129 197.5 129 201 129 Z" stroke="none" fill="#C6A45B"></path>

<path d="M 175 74
Q 174.5 74 174 73.9 159.7 71.55 150 76 150 76.5 150.25 76.7 163.65 88.55 194 93 194.5 93 195 93 219.7 93.8 236 103 236 102.5 236.05 102.5 243.95 102.05 256 103 256.5 103 256.9 103.2 269.65 109.35 289 109 289.5 109 289.75 109.25 294.05 113.95 302 113 302 112.5 301.75 112.35 254.45 81.05 180 77 180 76.5 179.9 76.45 176.8 75.7 175 74 Z" stroke="none" fill="#FFDE6E"></path>

<path d="M 185 72
Q 188.05 73.45 192 73.95 192.5 74 193 74 193 73.5 192.8 73.4 189.8 71.7 185 72 Z" stroke="none" fill="#C1852D"></path>

<path d="M 266 77
Q 266 76.5 265.75 76.3 263.25 74.25 258 75 259.2 78.3 265 77.1 265.5 77 266 77 Z" stroke="none" fill="#676353"></path>

<path d="M 274 79
Q 274 78.5 273.75 78.3 271.25 76.25 266 77 267.2 80.3 273 79.1 273.5 79 274 79 Z" stroke="none" fill="#72634C"></path>

<path d="M 282 81
Q 282 80.5 281.75 80.3 279.25 78.25 274 79 275.85 81.65 281 81.05 281.5 81 282 81 Z" stroke="none" fill="#6E644F"></path>

<path d="M 258 75
Q 258 74.5 257.85 74.45 251.25 72.25 242 73 247.05 76.45 257 75.05 257.5 75 258 75 Z" stroke="none" fill="#6F634D"></path>

<path d="M 326.05 282.15
Q 326.5 282 327 282 327 281.5 326.75 281.15 323.85 276.65 317 276 316.5 276 316.2 276.25 310.8 280.25 306 280 305.5 280 305.05 280.1 299.1 281.6 295 285 294.65 288.35 295.75 290.15 296 290.5 296 291 296.5 291 297 291 297.5 291 298 291 303.5 285.8 318 285.5
L 318 286
Q 320 286 321.9 285.55 322 285.5 322 285
L 322 284.5
Q 319.9 284.65 320 283 323.5 283 326.05 282.15 Z" stroke="none" fill="#090406"></path>

<path d="M 329.85 282.55
Q 330 282.5 330 282 329.5 282 329 282 328 282 327 282 326.5 282 326.05 282.15 323.5 283 320 283 319.9 284.65 322 284.5
L 322 285
Q 326 284 329.85 282.55 Z" stroke="none" fill="#15262F"></path>

<path d="M 336.65 267.25
Q 336.5 267 336 267 336 267.5 336.2 267.85 340 274.15 335 278 335 278.5 335 279 342.05 275.25 336.65 267.25 Z" stroke="none" fill="#0D2C33"></path>

<path d="M 333.05 263.85
Q 333.5 264 334 264 334 263.5 333.75 263.3 330.3 260.7 326 259 328.55 262.45 333.05 263.85 Z" stroke="none" fill="#2A4449"></path>

<path d="M 326 259
Q 325.5 259 325 259 324.5 259 324 259 323.5 259 323.05 258.85 317.25 257.25 314 253 313.5 253 313.45 253.15 311.85 257.85 306 258 307.85 262.1 307.95 263 308 263.5 308 264 308 264.5 308 265 311 265.45 313.15 266.8 313.5 267 314 267 321.2 268.8 320.5 272.9 320.5 273 320 273 319.5 273 319 273 318.5 273 318 273 318 273.5 318 274 318 274.5 317.75 274.75 317.5 275 317 275 317 275.5 317 276 323.85 276.65 326.75 281.15 327 281.5 327 282 328 282 329 282 329.5 282 330 282 332.95 281.45 334.75 279.75 335 279.5 335 279 335 278.5 335 278 340 274.15 336.2 267.85 336 267.5 336 267 336 266.5 335.8 266.4 334.3 265.7 334 264 333.5 264 333.05 263.85 328.55 262.45 326 259 Z" stroke="none" fill="#020711"></path>

<path d="M 326 259
Q 326 258.5 325.75 258.25 323.8 256.2 320 256 321.1 257.9 323.9 258.5 324 258.5 324 259 324.5 259 325 259 325.5 259 326 259 Z" stroke="none" fill="#274952"></path>

<path d="M 324.1 184
Q 324 183.5 324 183
L 323.5 183
Q 323.7 186.2 322 187 322 188.5 322 190 322 190.5 322 191 325.3 189.8 324.1 184 Z" stroke="none" fill="#745F47"></path>

<path d="M 328.1 163
Q 328 162.5 328 162 327.5 162 327.1 162.2 326.5 162.5 326 163 326 166.5 326 170 326 170.5 326 171 329.35 169.35 328.1 163 Z" stroke="none" fill="#68614F"></path>

<path d="M 330 151
Q 329.5 151 329 151 328.5 151 328 151 328 154.5 328 158 328 158.5 328 159 331.3 157.8 330.1 152 330 151.5 330 151 Z" stroke="none" fill="#6F614A"></path>

<path d="M 327.35 115.8
Q 325.45 112.55 324 109 323.5 109 323 109.05 321.4 109.15 322 107 321.5 107 321.05 106.85 319.3 106.2 320 103 320 102.5 320.05 102 320.15 100.4 318 101 317.5 101 317.05 100.85 313.85 99.65 314 95 313.5 95 313.2 94.75 309.55 91.95 306 89 305.5 89 305.05 89.1 301.6 89.9 302 87 301.5 87 301.05 86.85 292.3 84.2 284 81 283.5 81 283 81 282.5 81 282 81 281.5 81 281 81.05 275.85 81.65 274 79 273.5 79 273 79.1 267.2 80.3 266 77 265.5 77 265 77.1 259.2 78.3 258 75 257.5 75 257 75.05 247.05 76.45 242 73 241.5 73 241 73.05 235.85 73.65 234 71 233.5 71 233 71 222.9 70.6 216 67 215.5 67 215 67 213 67 211 67 210.5 67 210 66.9 206.8 66.2 204 65 203.5 65 203 65 202.5 65 202 65 201.5 65 201 65.1 195.2 66.3 194 63 193.5 63 193 62.9 173.5 59.45 150 59 149.5 59 149 59 149 59.5 148.75 59.7 146.55 61.55 142 61 142 61.5 141.85 61.95 141.2 63.7 138 63 138 63.5 137.8 63.65 135.5 65 132 65 132 65.5 132.05 66 132.15 67.65 130 67 130 67.5 129.75 67.75 127.45 69.95 124 71 124 71.5 123.75 71.75 116 79.5 110 89 110 89.5 110.1 89.95 110.95 93.4 108 93 108 93.5 108.1 94 109.2 98.7 106 99 106 101.5 106 104 106 104.5 106 105 106 105.5 106.1 106 106.9 110.9 104 112 104 112.5 104 113 104 113.5 104.1 114 105.2 118.7 102 119 102 119.5 102.05 120 102.8 127.3 100 131 100 131.5 100 132 100 132.5 100 133 100 133.5 100.1 134 101.35 140.85 98 143 98 143.5 98.1 144 99.15 150.65 96 153 96 155.5 96 158 96 158.5 96 159 96 159.5 96.05 160 96.65 165.15 94 167 94 167.5 94.1 168 95.3 173.8 92 175 92 175.5 92.1 176 93.3 181.8 90 183 90 186.5 90 190 90 190.5 90 191 90 191.5 90.15 191.95 92.6 199.05 88 207 90.9 218.1 90.5 222.95 90.5 223 90 223 90 223.5 90 224 90 224.5 89.9 225 89.35 228.35 86 229 86 236.5 86 244 86 244.5 86 245 87 247.5 87.85 250.05 88 250.5 88 251 91.05 258.45 95.75 264.2 96 264.5 96 265 99.2 265.25 99.9 268.05 100 268.5 100 269 105.05 270.45 107.75 274.2 108 274.5 108 275 112.4 276.85 117.75 280.35 118 280.5 118 281 118.5 281 119 281 119.5 281 120 281 123.2 280.3 123.85 282.05 124 282.5 124 283 124.5 283 125 283 125.5 283 126 283 131.8 283.7 136.85 285.45 137 285.5 137 286 137.5 286 137.75 285.75 138 285.5 138 285 138 284.5 138 284 138.5 284 139 284 139 283.5 139 283 143 283 146.95 283.5 147 283.5 147 284 147.5 284.5 147.8 285.1 148 285.5 148 286 148.5 286 148.75 286.25 149 286.5 149 287 149.5 287 150 287 152.7 286.8 153.75 288.2 154 288.5 154 289 160.55 287.95 163.25 290.75 163.5 291 164 291 177.2 291.3 187.85 294.45 188 294.5 188 295 192.8 294.75 195.8 296.4 196 296.5 196 297 201.95 296.6 205.8 298.4 206 298.5 206 299 206.5 299 207 299 207.5 299 208 299 214.15 298.4 217.8 300.4 218 300.5 218 301 218.5 301 219 301 219.5 301 220 301 224.8 300.75 227.8 302.4 228 302.5 228 303 233 303 238 303 238.5 303 239 303 239.5 303 240 303 240 302.5 240 302 246.9 299.25 252.15 302.75 252.5 303 253 303 254.55 305.45 257.1 306.8 257.5 307 258 307 258 306.5 258 306 261.65 304.65 267 304.95 267.5 305 268 305 268 304.5 268 304 270.8 303.8 273.05 303.15 273.5 303 274 303 274 302.5 274 302 274 301.5 274 301 276.5 301 279 301 279.5 301 280 301 282.15 301.65 282.05 300 282 299.5 282 299 282 298.5 282 298 282 297.5 282 297 285.15 295.65 289 295.05 289.5 295 290 295 290 294.5 290 294 290 293.5 290 293 291.95 291.45 295 291.05 295.5 291 296 291 296 290.5 295.75 290.15 294.65 288.35 295 285 295 284.5 295 284 295 283.5 295 283 297.05 279.55 301.9 278.5 302 278.5 302 278 302 277.5 302 277 304.7 276.7 305.45 274.15 305.5 274 306 274 306 273.5 306 273 306 272.5 306 272 306 271.5 306 271 306 269 306 267 306.5 267 307 267 307.5 267 308 267 308 266.5 308 266 308 265.5 308 265 308 264.5 308 264 307.5 264 307.15 263.75 305.75 262.8 303 263 302.5 263 302 262.95 298.75 262.7 298 260 297.5 260 297 260 297 261 297 262 297 262.5 297 263
L 297.5 263
Q 295.45 272.45 292 281 291.5 281 291.2 281.25 283.85 287.35 274 291 273.5 291 273 291 272 291 271 291 271 291.5 271 292
L 271.5 292
Q 267.55 298 260 296 259.5 296 259 296 256.5 296 254 296 253.5 296 253.05 296.15 248.55 297.35 244 295 243.5 295 243 295.05 237.6 295.45 235 293 236.5 293 238 293 238.5 293 239 293 239 292.5 238.9 292.5 236.5 292 234 292 234 292.5 233.85 292.55 227.65 294.35 226 291 225.5 291 225 291.1 218.15 292.35 216 289 215.5 289 215 289
L 215 289.5
Q 192.45 287.55 174 281 173.5 281 173 280.95 145.9 279.6 126 271 125.5 271 125.3 270.75 123.7 268.75 120 269 119.5 269 119 268.95 110.8 267.7 108 261 107.5 261 107.1 260.8 98.65 256.1 98 246 98 245.5 97.8 245.1 95.6 240.9 95 235 94.5 235 94.5 234.95 94 229 94 223 94 222.5 94 222 94 219.5 94 217 95.7 215.2 95.5 211
L 96 211
Q 97.6 207.1 98.85 202.95 99 202.5 99 202 99 201.5 99 201 99 198 99 195 102.9 182.4 104.95 168 105 167.5 105 167 105 166.5 105 166 105 162.5 105 159 105.5 159 106 159 110.3 136.8 114.9 115 115 114.5 115 114
L 114.5 114
Q 114.7 107.4 114 104 116.15 98.15 119.35 93.25 119.5 93 120 93 120 92.5 120 92 121.7 91.7 121.95 90 122 89.5 122 89 122 88.5 122 88 122 86.5 122 85 125.15 83.65 127.3 81.25 127.5 81 128 81 128 80.5 128 80 128 79 128 78 131.7 77.2 134.2 75.25 134.5 75 135 75 135 74.5 135 74 136.05 73.05 138 73 138.5 73 139 73 145.75 70.25 154 69.05 154.5 69 155 69 155 68.5 155 68 154.5 68 154.1 67.8 153.5 67.5 153 67 159.75 66.25 163.5 68
L 163 68
Q 163 68.5 163 69 167 69 171 69 171.5 69 172 69 177.25 68.25 179.75 70.3 180 70.5 180 71 182 71.5 184 71.9 184.5 72 185 72 189.8 71.7 192.8 73.4 193 73.5 193 74 263.1 79.9 310.8 108.35 311 108.5 311 109 313.95 110.55 314.9 114.05 315 114.5 315 115 316.25 116.3 316.5 118.95 316.5 119 317 119 319.25 121.25 319 126 319 126.5 319 127 319 127.5 319 128 319 128.5 319 129 320.75 134.75 319.5 142.95 319.5 143 319 143 319 143.5 318.95 144 318.35 154.35 315 162 315 164 315 166 315 166.5 315 167 316.6 178.7 315.1 169 315 168.5 315 168 314.5 168 314 168 314 171 314 174 314 174.5 314 175 314 175.5 314.1 176 315.3 181.8 312 183 312 184.5 312 186 312 186.5 312 187 312 187.5 312.05 188 312.9 196.5 310 193 310 193.5 309.8 193.9 309.5 194.5 309 195 309 196.5 309 198 309 198.5 309 199 311.05 207.9 309.2 203.9 309 203.5 309 203 308.5 203 308 203 308 204.5 308 206 308 206.5 308 207 308 207.5 308.1 207.95 309.6 213.6 306 219 306 219.5 306.1 220 307.25 225.25 304 226 304 226.5 303.9 227 303.15 231.15 302 235 302 236.5 302 238 302 238.5 302 239 302.4 242.9 302 251 302 251.5 302 252 306.5 252 311 252 311.5 252 312 252 312 251.5 312 251 312 250 312 249 312 248.5 312 248 312 243.5 312 239 314.65 239.65 314.1 237 314 236.5 314 236 314 235.5 314 235 314 233.5 314 232 314 231.5 314 231 314 228 314 225 314.5 225 315 225 315.5 225 316 225 316 224.5 316 224 316 223.5 316 223 316 222.5 316 222 316 218.5 316 215 316.5 214.5 317.1 214.2 317.5 214 318 214 318 213.5 318 213 318 210 318 207 321.2 206.7 320.1 202 320 201.5 320 201 320 200.5 320 200 320 197 320 194 321.65 194.15 321.5 192
L 322 192
Q 322 191.5 322 191 322 190.5 322 190 322 188.5 322 187 323.7 186.2 323.5 183
L 324 183
Q 324 182.5 324 182 324 178.5 324 175 326.95 175.45 326.1 171.95 326 171.5 326 171 326 170.5 326 170 326 166.5 326 163 326.5 162.5 327.1 162.2 327.5 162 328 162 328 161.5 328 161 328 160 328 159 328 158.5 328 158 328 154.5 328 151 328.5 151 329 151 329.5 151 330 151 330 150.5 330 150 330 147 330 144 330 143.5 330.1 143 331.6 134.7 330 125 330 124.5 329.9 124 329 120 328 116 327.5 116 327.35 115.8 Z" stroke="none" fill="#9E6227"></path>

<path d="M 328.05 115
Q 328.35 109.65 324 109 325.45 112.55 327.35 115.8 327.5 116 328 116 328 115.5 328.05 115 Z" stroke="none" fill="#656251"></path>
</g>
</g>
</g>
</g>
</g>
</svg>
