
<svg viewBox="0 0 122 110" height="110px" width="122px" y="0px" x="0px" preserveAspectRatio="none" xmlns:xlink="http://www.w3.org/1999/xlink" version="1.1" xmlns="http://www.w3.org/2000/svg">
<defs></defs>

<g id="Layer_1"></g>

<g id="Layer_2">
<g transform="matrix( 1, 0, 0, 1, 60.7,65.85)" id="Layer_2">
<g>
<g>
<g>
<path d="M 14.3 -59.4
Q 15.15 -55.9 13.45 -52.65 12.15 -50.45 10.6 -48.3 7.2 -47.75 3.85 -47.25 -9.5 -45.4 -22.5 -42.1 -22.75 -42 -22.95 -41.95 -28.95 -46.75 -33.15 -53.25 -33.3 -54.05 -33.65 -54.8 -33.9 -55.2 -34.2 -55.6 -34.25 -56.1 -34.5 -56.5 -35.4 -57.95 -37.15 -57.7 -39.25 -57.45 -41.2 -56.55 -51.1 -52 -55.05 -42.2 -57.45 -36.05 -53.9 -31 -56.6 -29.05 -58.85 -26.45 -59.45 -25.75 -59.3 -24.95 -59.35 -24.95 -59.4 -24.85 -59.85 -24.4 -60 -23.7 -61 -17.45 -60.55 -10.85 -59.85 0.55 -55.9 11.35 -53.95 16.75 -51.45 22 -50.05 25.05 -48.15 27.95 -47.1 29.55 -46.15 31.15 -45.1 33.2 -43.6 35 -41.95 37.15 -39.3 37.1 -38.5 37.7 -37.4 37.85 -35.05 38.2 -32.7 38.45 -27.55 39 -22.3 38.1 -15.2 36.9 -8.05 35.85 -0.75 34.75 6.6 33.8 13.9 32.95 21.1 31.65 28.25 30.35 35.25 28.5 38.75 27.6 42.2 26.7 45.2 25.85 47.9 24.45 49.55 23.6 51.05 22.6 51.75 22.2 52.2 21.5 52.3 21.3 52.4 21.15 53.55 20.4 54.3 19.25 55.7 17.2 55.8 14.55 56.5 2.7 55.25 -9.3 54 -20.95 51.8 -32.35 50.9 -36.9 49.2 -41.25 48.55 -44.45 45.9 -46.6 45.65 -46.75 45.4 -46.9 44 -48.1 42.25 -48.9 40.2 -49.8 38 -50.2 37.9 -52.25 36.65 -54.3 35.4 -56.4 33.6 -58.1 26.35 -64.85 16.45 -65.85 16.05 -65.8 15.55 -65.6 13.95 -64.95 13.95 -63.55 13.9 -61.5 14.3 -59.4
M 17.15 -51.2
Q 19.6 -56.2 18.15 -61.6 24.2 -60.55 29.35 -56.9 32.95 -54.35 33.65 -50.5 25 -50.1 16.3 -49.35 16.25 -49.35 16.15 -49.3 16.65 -50.25 17.15 -51.2
M 34.95 -45.65
Q 35.25 -45.55 35.6 -45.5 36.05 -45.4 36.35 -45.65 40.45 -45.45 43.6 -42.9 44.4 -42.25 44.75 -41.35 48.65 -30.25 50.1 -18.4 51.1 -10.75 51.7 -2.9 52.1 1.8 52.05 6.55 52.05 9.9 51.65 13.25 51.5 15.15 51.3 17.1 48.4 18.25 45.45 19.05 35.75 21.6 25.95 23.45 36.1 21.2 46 17.8 47.15 17.4 47.65 16.35 49.75 11.9 49.5 6.9 48.85 -4.95 47.65 -16.65 46.65 -26.05 43.85 -34.9 43.15 -37.1 41.95 -38.95 41.95 -39.05 41.85 -39.15 41.85 -39.25 41.8 -39.35 41.8 -39.45 41.75 -39.5 41.65 -39.6 41.55 -39.7 41.5 -39.8 41.45 -39.9 41.4 -40 41.4 -40.1 37.85 -41.95 33.7 -41.85 22.15 -41.5 10.65 -40.45 -7.65 -38.1 -25.9 -34.5 -36.9 -32.3 -46.95 -27.45 -50.4 -25.85 -51.6 -22.6 -52.5 -14.35 -51.45 -5.85 -50.1 5.7 -46.65 16.7 -45.25 20.85 -43.25 24.7 -42.65 25.85 -42.05 27 -41.4 28.15 -40.75 29.35 -40.2 30.5 -38.95 30.55 -29.35 30.9 -19.8 29.3 -10.9 27.85 -1.9 27.3 2.45 27.05 6.8 26.6 -5.25 28.4 -17.25 30.2 -28.85 31.9 -40.3 32.6 -41.85 30.85 -43.05 28.85 -44.05 27.15 -45.1 25.45 -46.1 23.9 -46.9 22.3 -47.4 21.25 -47.75 20.2 -48.1 19.05 -48.85 18.1 -52.85 10.8 -54.6 2.75 -57.05 -8.7 -56.75 -20.55 -56.75 -21.8 -55.9 -22.55 -50.15 -28.1 -42.65 -31 -31.65 -35.25 -19.95 -37.5 -8.3 -39.7 3.4 -41.6 14.85 -43.45 26.35 -44.9 30.65 -45.45 34.95 -45.65
M 24.65 -38.05
Q 25.05 -37.95 25.45 -37.85 32.2 -38.75 38.65 -36.85 42.9 -27.5 43.85 -16.9 44.5 -9.25 44.65 -1.35 44.8 3.05 45.05 7.55 45.25 9.9 45.2 12.2 45.1 12.45 45 12.65 44.95 12.95 44.95 13.25 45 13.35 44.95 13.45 44.95 13.55 44.9 13.65 44.75 13.85 44.7 14.1 43.4 14.7 42 15.1 28.7 19.6 14.6 21.05 -3.85 22.95 -22.1 25.6 -29.95 26.75 -37.5 26.7 -39.7 23.5 -41.15 19.9 -41.5 19.15 -41.75 18.4 -42.35 17.55 -42.8 16.5 -44.15 13.45 -44.45 10.55 -44.8 9.35 -45.15 8.25 -47.35 0.75 -48.05 -7.1 -48.5 -11.6 -48.05 -16.1 -47.8 -18.45 -48.15 -20.75 -48.05 -21 -47.95 -21.2 -47.85 -21.3 -47.85 -21.4 -47.75 -21.5 -47.65 -21.6 -47.55 -21.8 -47.45 -22.05 -41.8 -25.75 -35.35 -27.7 -24 -31.25 -12.2 -33 -0.85 -34.75 10.6 -36.45 16.1 -36.7 21.6 -37.25 22.4 -37.35 23.05 -37.5 23.35 -37.55 23.65 -37.6 24.05 -37.9 24.65 -38.05
M -37.4 -53.2
Q -37.35 -53.1 -37.3 -53.05 -37.2 -52.95 -37.15 -52.85 -33.85 -45.7 -27.55 -40.75 -37 -38.15 -46.15 -35.05 -48.5 -34.25 -50.6 -33.05 -52.65 -35.9 -51.75 -39.3 -50 -45.6 -44.9 -49.75 -41.45 -52.7 -37.4 -53.2 Z" stroke="none" fill="#000000"></path>

<path d="M -37.3 -53.05
Q -37.35 -53.1 -37.4 -53.2 -41.45 -52.7 -44.9 -49.75 -50 -45.6 -51.75 -39.3 -52.65 -35.9 -50.6 -33.05 -48.5 -34.25 -46.15 -35.05 -37 -38.15 -27.55 -40.75 -33.85 -45.7 -37.15 -52.85 -37.2 -52.95 -37.3 -53.05
M 35.6 -45.5
Q 35.25 -45.55 34.95 -45.65 30.65 -45.45 26.35 -44.9 14.85 -43.45 3.4 -41.6 -8.3 -39.7 -19.95 -37.5 -31.65 -35.25 -42.65 -31 -50.15 -28.1 -55.9 -22.55 -56.75 -21.8 -56.75 -20.55 -57.05 -8.7 -54.6 2.75 -52.85 10.8 -48.85 18.1 -48.1 19.05 -47.75 20.2 -47.4 21.25 -46.9 22.3 -46.1 23.9 -45.1 25.45 -44.05 27.15 -43.05 28.85 -41.85 30.85 -40.3 32.6 -28.85 31.9 -17.25 30.2 -5.25 28.4 6.8 26.6 2.45 27.05 -1.9 27.3 -10.9 27.85 -19.8 29.3 -29.35 30.9 -38.95 30.55 -40.2 30.5 -40.75 29.35 -41.4 28.15 -42.05 27 -42.65 25.85 -43.25 24.7 -45.25 20.85 -46.65 16.7 -50.1 5.7 -51.45 -5.85 -52.5 -14.35 -51.6 -22.6 -50.4 -25.85 -46.95 -27.45 -36.9 -32.3 -25.9 -34.5 -7.65 -38.1 10.65 -40.45 22.15 -41.5 33.7 -41.85 37.85 -41.95 41.4 -40.1 41.4 -40 41.45 -39.9 41.5 -39.8 41.55 -39.7 41.65 -39.6 41.75 -39.5 41.8 -39.45 41.8 -39.35 41.85 -39.25 41.85 -39.15 41.95 -39.05 41.95 -38.95 43.15 -37.1 43.85 -34.9 46.65 -26.05 47.65 -16.65 48.85 -4.95 49.5 6.9 49.75 11.9 47.65 16.35 47.15 17.4 46 17.8 36.1 21.2 25.95 23.45 35.75 21.6 45.45 19.05 48.4 18.25 51.3 17.1 51.5 15.15 51.65 13.25 52.05 9.9 52.05 6.55 52.1 1.8 51.7 -2.9 51.1 -10.75 50.1 -18.4 48.65 -30.25 44.75 -41.35 44.4 -42.25 43.6 -42.9 40.45 -45.45 36.35 -45.65 36.05 -45.4 35.6 -45.5
M 18.15 -61.6
Q 19.6 -56.2 17.15 -51.2 16.65 -50.25 16.15 -49.3 16.25 -49.35 16.3 -49.35 25 -50.1 33.65 -50.5 32.95 -54.35 29.35 -56.9 24.2 -60.55 18.15 -61.6 Z" stroke="none" fill="#666056"></path>

<path d="M 23.65 -37.6
Q 23.45 -37.4 23.25 -37.2 22.75 -37.05 22.2 -36.85 21 -36.3 21.05 -35.05 21.25 -32.25 24.1 -33.3 24.45 -33.45 24.85 -33.4 26.5 -33.35 27.9 -32.8 29.9 -31.75 31.7 -30.25 31.75 -30.2 31.8 -30.15 32.25 -29.65 32.7 -29 36.55 -23.85 37.1 -17.5 37.75 -10.6 31.95 -6.8 31.3 -6.35 31.1 -5.85 28.8 -5.65 28.75 -3.35 28.8 -2.5 29.5 -2.2 31.8 -1.2 34.3 -2.2 37.85 -3.65 39.45 -7.15 40.2 -8.65 40.95 -10.15 43 -14.25 42.25 -18.65 41.65 -22.2 39.75 -25.25 38.5 -29.35 35.4 -32.4 33.95 -33.8 32.4 -34.9 30.65 -36.25 28.45 -36.95 27.05 -37.55 25.45 -37.85 25.05 -37.95 24.65 -38.05 24.05 -37.9 23.65 -37.6
M -11.5 -12.4
Q -11.6 -14.15 -11.75 -15.9 -12 -19.55 -15.2 -20.6 -16.15 -20.45 -16.55 -19.6 -19.3 -13.4 -17.2 -6.85 -16.9 -5.9 -16.65 -5 -15.9 -2.55 -13.6 -2.15 -12.85 -2 -12.25 -2.45 -10.7 -3.85 -10.9 -6.25 -11.2 -9.35 -11.5 -12.4
M -40.85 -16.7
Q -42.9 -11 -40.6 -5.55 -40.4 -4.3 -39.85 -3.15 -37.55 1.55 -32.7 3.15 -29.75 4.1 -29.95 1.15 -30 0.65 -30.45 0.4 -35.55 -1.85 -37.05 -7.15 -38.25 -9.8 -37.75 -12.6 -36.75 -18.35 -32.5 -22.4 -31.7 -22.65 -31.4 -23.35 -30.4 -26.05 -33.4 -26.45 -33.6 -26.35 -33.75 -26.3 -38.7 -22.6 -40.85 -16.7
M 42.15 3.8
L 42.15 3.75
Q 42.4 3.1 42 2.5 41 1.3 39.55 0.75 38.4 0.35 37 0.35 36.2 0.5 35.7 1.25 34.65 2.75 36.1 3.8 36.3 3.95 36.5 4.05 34.55 8.05 29.8 9.4 26.8 10.2 23.85 10.55 18.7 11.1 13.5 10.3 13.1 10.3 12.85 10.5 6.6 16.15 -1.6 16.7 -9.4 17.25 -16.95 15.7 -17.95 15.5 -19 16 -23.6 18.15 -28.35 17.15 -28.45 17.05 -28.55 16.95 -28.75 16.85 -28.9 16.65 -29.05 16.5 -29.15 16.45 -29.35 15.8 -29.6 15.15 -29.85 14.6 -29.85 14 -29.85 13.75 -29.9 13.5 -29.45 13.55 -29.15 13.7 -26.4 14.85 -25.45 12.1 -25.3 11.65 -25.65 11.3 -28.4 8.3 -33.05 9.45 -36.5 10.1 -39.15 12.85 -41.35 15.05 -38.65 16.3 -38.1 16.5 -37.6 16.05 -36 14.55 -34 13.95 -33.85 16.15 -32.85 18.2 -32.4 19 -31.6 19.55 -27.15 23.1 -21.25 20.65 -19 19.6 -16.7 20.05 -10.95 21 -5.1 21.2 5.7 21.5 13.7 14.4 16.15 14.7 18.6 14.75 23.25 14.85 27.95 13.95 33.95 12.9 38.1 8.55 39.45 7.2 39.95 5.55 40 5.45 40 5.4 41.35 5.35 42.15 3.8
M 7.85 -33.05
Q 7.05 -32.9 6.5 -32.35 6.2 -32.1 6.2 -31.75 6.2 -25.95 7.15 -20.25 8.25 -13.55 9.15 -6.85 9.35 -5.1 9.95 -3.5 10.8 -1.1 13 -2.5 13.45 -2.75 13.4 -3.25 13 -9.35 12 -15.4 10.85 -22.1 10.15 -28.85 10.15 -29.3 10.2 -29.7 10.4 -32.5 7.85 -33.05 Z" stroke="none" fill="#5B4201"></path>

<path d="M 23.25 -37.2
Q 23.45 -37.4 23.65 -37.6 23.35 -37.55 23.05 -37.5 22.4 -37.35 21.6 -37.25 16.1 -36.7 10.6 -36.45 -0.85 -34.75 -12.2 -33 -24 -31.25 -35.35 -27.7 -41.8 -25.75 -47.45 -22.05 -47.55 -21.8 -47.65 -21.6 -47.75 -21.5 -47.85 -21.4 -47.85 -21.3 -47.95 -21.2 -48.05 -21 -48.15 -20.75 -47.8 -18.45 -48.05 -16.1 -48.5 -11.6 -48.05 -7.1 -47.35 0.75 -45.15 8.25 -44.8 9.35 -44.45 10.55 -44.15 13.45 -42.8 16.5 -42.35 17.55 -41.75 18.4 -41.5 19.15 -41.15 19.9 -39.7 23.5 -37.5 26.7 -29.95 26.75 -22.1 25.6 -3.85 22.95 14.6 21.05 28.7 19.6 42 15.1 43.4 14.7 44.7 14.1 44.75 13.85 44.9 13.65 44.95 13.55 44.95 13.45 45 13.35 44.95 13.25 44.95 12.95 45 12.65 45.1 12.45 45.2 12.2 45.25 9.9 45.05 7.55 44.8 3.05 44.65 -1.35 44.5 -9.25 43.85 -16.9 42.9 -27.5 38.65 -36.85 32.2 -38.75 25.45 -37.85 27.05 -37.55 28.45 -36.95 30.65 -36.25 32.4 -34.9 33.95 -33.8 35.4 -32.4 38.5 -29.35 39.75 -25.25 41.65 -22.2 42.25 -18.65 43 -14.25 40.95 -10.15 40.2 -8.65 39.45 -7.15 37.85 -3.65 34.3 -2.2 31.8 -1.2 29.5 -2.2 28.8 -2.5 28.75 -3.35 28.8 -5.65 31.1 -5.85 31.3 -6.35 31.95 -6.8 37.75 -10.6 37.1 -17.5 36.55 -23.85 32.7 -29 32.25 -29.65 31.8 -30.15 31.75 -30.2 31.7 -30.25 29.9 -31.75 27.9 -32.8 26.5 -33.35 24.85 -33.4 24.45 -33.45 24.1 -33.3 21.25 -32.25 21.05 -35.05 21 -36.3 22.2 -36.85 22.75 -37.05 23.25 -37.2
M 6.5 -32.35
Q 7.05 -32.9 7.85 -33.05 10.4 -32.5 10.2 -29.7 10.15 -29.3 10.15 -28.85 10.85 -22.1 12 -15.4 13 -9.35 13.4 -3.25 13.45 -2.75 13 -2.5 10.8 -1.1 9.95 -3.5 9.35 -5.1 9.15 -6.85 8.25 -13.55 7.15 -20.25 6.2 -25.95 6.2 -31.75 6.2 -32.1 6.5 -32.35
M 42.15 3.75
L 42.15 3.8
Q 41.35 5.35 40 5.4 40 5.45 39.95 5.55 39.45 7.2 38.1 8.55 33.95 12.9 27.95 13.95 23.25 14.85 18.6 14.75 16.15 14.7 13.7 14.4 5.7 21.5 -5.1 21.2 -10.95 21 -16.7 20.05 -19 19.6 -21.25 20.65 -27.15 23.1 -31.6 19.55 -32.4 19 -32.85 18.2 -33.85 16.15 -34 13.95 -36 14.55 -37.6 16.05 -38.1 16.5 -38.65 16.3 -41.35 15.05 -39.15 12.85 -36.5 10.1 -33.05 9.45 -28.4 8.3 -25.65 11.3 -25.3 11.65 -25.45 12.1 -26.4 14.85 -29.15 13.7 -29.45 13.55 -29.9 13.5 -29.85 13.75 -29.85 14 -29.85 14.6 -29.6 15.15 -29.35 15.8 -29.15 16.45 -29.05 16.5 -28.9 16.65 -28.75 16.85 -28.55 16.95 -28.45 17.05 -28.35 17.15 -23.6 18.15 -19 16 -17.95 15.5 -16.95 15.7 -9.4 17.25 -1.6 16.7 6.6 16.15 12.85 10.5 13.1 10.3 13.5 10.3 18.7 11.1 23.85 10.55 26.8 10.2 29.8 9.4 34.55 8.05 36.5 4.05 36.3 3.95 36.1 3.8 34.65 2.75 35.7 1.25 36.2 0.5 37 0.35 38.4 0.35 39.55 0.75 41 1.3 42 2.5 42.4 3.1 42.15 3.75
M -40.6 -5.55
Q -42.9 -11 -40.85 -16.7 -38.7 -22.6 -33.75 -26.3 -33.6 -26.35 -33.4 -26.45 -30.4 -26.05 -31.4 -23.35 -31.7 -22.65 -32.5 -22.4 -36.75 -18.35 -37.75 -12.6 -38.25 -9.8 -37.05 -7.15 -35.55 -1.85 -30.45 0.4 -30 0.65 -29.95 1.15 -29.75 4.1 -32.7 3.15 -37.55 1.55 -39.85 -3.15 -40.4 -4.3 -40.6 -5.55
M -11.75 -15.9
Q -11.6 -14.15 -11.5 -12.4 -11.2 -9.35 -10.9 -6.25 -10.7 -3.85 -12.25 -2.45 -12.85 -2 -13.6 -2.15 -15.9 -2.55 -16.65 -5 -16.9 -5.9 -17.2 -6.85 -19.3 -13.4 -16.55 -19.6 -16.15 -20.45 -15.2 -20.6 -12 -19.55 -11.75 -15.9 Z" stroke="none" fill="#FFD96A"></path>
</g>
</g>
</g>
</g>
</g>
</svg>
