
<svg viewBox="0 0 136 113" height="113px" width="136px" y="0px" x="0px" preserveAspectRatio="none" xmlns:xlink="http://www.w3.org/1999/xlink" version="1.1" xmlns="http://www.w3.org/2000/svg">
<defs></defs>

<g id="Layer_1"></g>

<g id="Layer_2">
<g transform="matrix( 1, 0, 0, 1, 311.7,142.5)" id="Layer_1">
<g>
<g>
<g>
<path d="M -261.3 -101.45
Q -261.2205078125 -100.9958984375 -261.05 -100.55 -260.51875 -99.1748046875 -259.8 -97.9 -260.3880859375 -97.561328125 -260.95 -97.2 -264.5 -94.95 -267.45 -91.8 -269.55 -89.5 -271.5 -87.15 -275.45 -82.4 -274.3 -76.55 -274.15 -75.75 -273.55 -75.1 -270.1 -71.45 -265.2 -69.6 -263.1 -68.9 -260.95 -68.5 -259.85 -68.3 -258.7 -68.2 -251.8 -67.6 -245.2 -69.25 -238.55 -70.9 -232.8 -74.55 -228.8 -77.1 -225.8 -80.6 -225.7 -80.5 -225.55 -80.4 -224.2 -82.6 -223.65 -83.85 -222.5 -86.25 -222.35 -88.3 -222.25 -89.45 -222.35 -90.6 -222.6 -91.2 -222.95 -91.8 -226.55 -97.75 -233.15 -100.3 -239.2310546875 -102.7130859375 -245.8 -102.4 -245.8330078125 -103.08125 -245.75 -103.8 -245.4 -106.8 -248 -107.65 -248.4 -107.65 -248.85 -107.45 -249.35 -107.2 -249.5 -106.7 -250.2541015625 -104.28671875 -249.65 -101.85 -253.0109375 -101.1033203125 -256.25 -99.7 -256.4765625 -100.3208984375 -256.6 -101 -256.94453125 -103.02890625 -258.4 -104 -258.84921875 -104.2625 -259.4 -104.45 -260.3 -104.45 -260.8 -103.65 -261.4638671875 -102.6171875 -261.3 -101.45
M -260.95 -92.3
Q -259.95 -93 -258.95 -93.7 -253.15 -97.4 -246.35 -98.4 -241.1 -98.9 -236.15 -97.25 -233.15 -96.25 -230.7 -94.4 -227.45 -91.95 -225.85 -88.3 -225.85 -88.25 -225.85 -88.2 -225.85 -88.15 -225.85 -88.1 -225.85 -88.05 -225.85 -87.95 -226.25 -87.5 -226.5 -87 -226.95 -86 -227.55 -85.1 -228.35 -83.9 -229.25 -82.75 -230.2 -81.85 -231.1 -80.9 -232.15 -79.8 -233.4 -79 -242.45 -72.75 -253.45 -72 -257.4 -71.7 -260.95 -72.5 -266.05 -73.7 -270.35 -77.15 -270.4 -77.35 -270.45 -77.5 -270.8 -78.35 -270.6 -79.2 -269.05 -84.9 -264.65 -89.2 -262.9 -90.85 -260.95 -92.3
M -248.4 -92.95
Q -249.5 -92.8 -250.6 -92.45 -253.9 -91.35 -255.65 -88.45 -258.95 -82.85 -254.05 -78.35 -253.1 -77.4 -251.75 -77 -248.95 -76.1 -245.85 -76.6 -244.15 -76.85 -242.85 -77.95 -238.4 -81.55 -240.1 -87.1 -241.85 -92.85 -248.4 -92.95
M -222.75 -132
Q -219.05 -133.5 -215.25 -134.85 -213.35 -135.05 -211.4 -135.2 -209.2 -135.35 -207.15 -134.5 -206.6 -134.1 -206.15 -133.6 -205.35 -132.75 -204.45 -132 -204.1 -131.65 -203.7 -131.35 -203.65 -131.15 -203.55 -131 -203.5 -130.8 -203.4 -130.65 -203.4 -130.55 -203.35 -130.45 -203.3 -130.35 -203.2 -130.3 -203.2 -130.25 -203.15 -130.25 -204.45 -130 -205.7 -129.6 -207.85 -129 -210 -128.3 -212.15 -127.55 -214.2 -126.55 -215.85 -125.8 -217.35 -124.65 -218.55 -124.05 -219.75 -123.4 -221.7 -122.35 -223.75 -121.3 -224.55 -120.9 -225.1 -120.45 -225.1 -120.15 -225 -119.8 -222.05 -118.7 -218.9 -120.15 -215.6 -121.6 -212.4 -123.2 -211.05 -123.95 -209.7 -124.15 -207.9 -124.85 -206.05 -125.5 -203.95 -126.15 -201.7 -126.45 -200.8 -126.45 -199.9 -126.25 -192 -124.7 -189.35 -117.05 -189.25 -116.95 -189.2 -116.85 -189.1 -116.7 -189 -116.6 -188.95 -116.5 -188.85 -116.4 -188.8 -116.3 -188.7 -116.2 -188.7 -115.85 -188.55 -115.5 -188.2 -114.8 -188.05 -114 -187.95 -113.45 -187.85 -112.9 -187.7 -112.35 -187.35 -111.85 -187.4 -111.75 -187.4 -111.6 -187.4 -111.4 -187.4 -111.15 -187.35 -110.95 -187.3 -110.7 -187.25 -110.4 -187.15 -110.05 -187.1 -109.8 -187 -109.6 -187.05 -109.4 -187 -109.2 -187 -109 -186.95 -108.75
L -186.95 -108.7
Q -187.65 -103.95 -188.7 -99.3 -190.1 -93.05 -192.45 -87.1 -192.7 -86.75 -192.7 -86.4 -192.95 -82.8 -192.2 -79.25 -192.25 -79.1 -192.25 -78.85 -192.2 -78.9 -192.15 -78.95 -191.8 -77.35 -191.25 -75.8 -191.15 -75.5 -191 -75.2 -190.55 -70.75 -189.5 -66.35 -188.9 -63.7 -188.5 -61.05 -188.4 -60.3 -188.3 -59.55 -186.9 -49.85 -184.65 -40.4 -184.05 -37.85 -183.7 -35.25 -183.5 -33.8 -182.55 -32.85 -182.3 -32.55 -182 -32.35 -181.2 -31.85 -180.5 -32.35 -180.2 -32.65 -179.95 -33.15 -178.95 -35.05 -179.5 -37.1 -182.35 -47.2 -184.1 -57.5 -184.25 -58.55 -184.45 -59.55 -185.95 -68.9 -187.3 -78.2 -187.5 -79.5 -187.4 -80.8 -187.4 -80.9 -187.4 -81 -187.35 -82.2 -187.6 -83.1 -187.9 -84.05 -188.5 -84.7 -188.1 -85.5 -187.7 -86.25 -187.7 -87.4 -187.6 -88.55 -187.05 -90.1 -186.55 -91.7 -185.25 -95.7 -184.4 -99.75 -183.65 -102.3 -183.05 -104.75 -182.95 -105.15 -182.85 -105.55 -182.85 -106.85 -182.95 -108.15 -183 -109.1 -183.15 -110 -183.8 -114.5 -185.75 -118.75 -186.7 -121.45 -188.45 -123.8 -192.7 -129.6 -199.35 -130.45 -198.8 -130.5 -198.25 -130.55 -198.65 -130.55 -199.1 -130.55 -198.65 -130.7 -198.15 -130.75 -198.4 -130.75 -198.65 -130.75 -198.75 -130.7 -198.9 -130.7 -199.15 -131.35 -199.45 -132 -200.25 -133.5 -201.45 -134.8 -206.35 -140.05 -213.65 -139.2 -221.25 -137.5 -228.4 -134.05 -230.5 -133 -232.65 -132 -240.85 -127.95 -249.05 -123.85 -255 -120.9 -260.95 -118 -263.55 -116.75 -266.15 -115.55 -275.3 -111.2 -284.05 -106 -293.7 -100.35 -301.95 -92.95 -308.35 -87.15 -310.45 -79.1 -310.5 -79 -310.55 -78.9 -311.95 -74.5 -311.65 -69.9 -311.5 -67.55 -310.45 -65.4 -309.5 -61.45 -306.9 -58.2 -302.3 -52.4 -295.65 -49 -292.05 -47.15 -288.15 -46.35 -279.1 -44.5 -269.95 -44.6 -270.35 -38.6 -269.65 -32.5 -269.6 -32.3 -269.55 -32.05 -269.5 -31.45 -269.35 -30.9 -268.7 -28.7 -266.55 -29.65 -265.85 -29.95 -265.85 -30.7 -265.85 -31.4 -265.85 -32.05 -265.85 -37.5 -266 -42.85 -266.05 -43.85 -265.7 -44.75 -258.15 -45.25 -250.6 -47.05 -241.8 -49.1 -233.35 -52.25 -227.05 -54.55 -222.8 -59.2 -222.85 -59.25 -222.85 -59.35 -222.85 -59.45 -222.85 -59.55 -222.85 -59.65 -222.85 -59.7 -222.85 -59.8 -222.85 -59.9 -222.85 -60 -222.9 -60.1 -223.1 -60.7 -223.65 -61.1 -224.2 -61.5 -224.75 -61.25 -226.25 -60.55 -227.75 -59.75 -227.7 -59.9 -227.65 -60.05 -226.9 -61.95 -227.25 -64.25 -227.45 -65.55 -228.2 -66.55 -228.55 -67.05 -228.9 -67.45 -232.3 -71.4 -237.9 -71.1 -239.35 -70.95 -240.1 -70.15 -239.9 -70.2 -239.7 -70.2 -239.65 -70.2 -239.55 -70.2 -239.5 -70.1 -239.45 -69.95 -239.2 -69.15 -239.3 -68.05 -239.4 -66.8 -239.95 -65.5 -240.05 -65.1 -240.1 -64.75 -240.65 -62.7 -241.8 -61 -242.3 -60.25 -242.8 -59.55 -244.55 -57.3 -246.75 -55.4 -249.65 -52.9 -253.2 -51.5 -255.25 -50.7 -257.45 -50.1 -257.7 -49.95 -257.9 -49.75
L -257.95 -49.7 -258 -49.7
Q -262.7 -49.05 -267.4 -48.6 -267.45 -48.65 -267.55 -48.65 -267.7 -48.6 -267.85 -48.55 -269.6 -48.45 -271.35 -48.3 -284.85 -47.35 -296.45 -53.8 -296.9 -54.25 -297.4 -54.6 -300.75 -56.85 -303.2 -59.9 -305.05 -62.2 -306.3 -64.8 -308.15 -69.25 -307.45 -73.9 -307.05 -76.55 -306.45 -79.2 -306.15 -80.15 -305.8 -81.05 -305.25 -82.4 -304.5 -83.55 -304.1 -84.2 -303.85 -84.9 -302.65 -85.9 -301.7 -87.2 -300.75 -88.6 -299.5 -89.7 -293.25 -95.7 -285.8 -100.25 -277.7 -105.2 -269.35 -109.7 -267.6 -110.65 -265.8 -111.45 -263.35 -112.55 -260.95 -113.6 -250.95 -118.25 -241.2 -123.4 -232.15 -128.2 -222.75 -132 Z" stroke="none" fill="#000000"></path>

<path d="M -258.95 -93.7
Q -259.95 -93 -260.95 -92.3 -262.9 -90.85 -264.65 -89.2 -269.05 -84.9 -270.6 -79.2 -270.8 -78.35 -270.45 -77.5 -270.4 -77.35 -270.35 -77.15 -266.05 -73.7 -260.95 -72.5 -257.4 -71.7 -253.45 -72 -242.45 -72.75 -233.4 -79 -232.15 -79.8 -231.1 -80.9 -230.2 -81.85 -229.25 -82.75 -228.35 -83.9 -227.55 -85.1 -226.95 -86 -226.5 -87 -226.25 -87.5 -225.85 -87.95 -225.85 -88.05 -225.85 -88.1 -225.85 -88.15 -225.85 -88.2 -225.85 -88.25 -225.85 -88.3 -227.45 -91.95 -230.7 -94.4 -233.15 -96.25 -236.15 -97.25 -241.1 -98.9 -246.35 -98.4 -253.15 -97.4 -258.95 -93.7
M -250.6 -92.45
Q -249.5 -92.8 -248.4 -92.95 -241.85 -92.85 -240.1 -87.1 -238.4 -81.55 -242.85 -77.95 -244.15 -76.85 -245.85 -76.6 -248.95 -76.1 -251.75 -77 -253.1 -77.4 -254.05 -78.35 -258.95 -82.85 -255.65 -88.45 -253.9 -91.35 -250.6 -92.45 Z" stroke="none" fill="#FFFFFF"></path>

<path d="M -227.75 -103.55
Q -231 -103.35 -233.65 -104.35 -236.75 -105.5 -237.85 -107.9 -238.2 -108.75 -238.75 -110.65 -239.35 -112.35 -240.25 -113.05 -241.85 -114.35 -245 -113.4 -248.5 -112.45 -252.35 -109.4 -253.7416015625 -108.3443359375 -258.4 -104 -256.94453125 -103.02890625 -256.6 -101 -256.4765625 -100.3208984375 -256.25 -99.7 -253.0109375 -101.1033203125 -249.65 -101.85 -250.2541015625 -104.28671875 -249.5 -106.7 -249.35 -107.2 -248.85 -107.45 -248.4 -107.65 -248 -107.65 -245.4 -106.8 -245.75 -103.8 -245.8330078125 -103.08125 -245.8 -102.4 -239.2310546875 -102.7130859375 -233.15 -100.3 -226.55 -97.75 -222.95 -91.8 -222.6 -91.2 -222.35 -90.6 -222.25 -89.45 -222.35 -88.3 -222.5 -86.25 -223.65 -83.85 -224.2 -82.6 -225.55 -80.4 -225.7 -80.5 -225.8 -80.6 -228.8 -77.1 -232.8 -74.55 -238.55 -70.9 -245.2 -69.25 -251.8 -67.6 -258.7 -68.2 -259.85 -68.3 -260.95 -68.5 -263.1 -68.9 -265.2 -69.6 -270.1 -71.45 -273.55 -75.1 -274.15 -75.75 -274.3 -76.55 -275.45 -82.4 -271.5 -87.15 -269.55 -89.5 -267.45 -91.8 -264.5 -94.95 -260.95 -97.2 -260.3880859375 -97.561328125 -259.8 -97.9 -260.51875 -99.1748046875 -261.05 -100.55 -261.2205078125 -100.9958984375 -261.3 -101.45 -267.8314453125 -96.0037109375 -273 -96.15 -276.6 -96.15 -277.4 -96 -279.85 -95.65 -280.35 -93.85 -280.6 -92.65 -279.75 -91.3 -278.6 -89.7 -278.1 -88.95 -275.95 -85.65 -277.75 -81.5 -279.5 -77.35 -283.35 -76.6 -284.85 -76.3 -285.1 -76.2 -286.1 -75.85 -286.5 -75.25 -287 -74.35 -286.4 -73.25 -285.9 -72.3 -284.85 -71.7 -283.45 -70.85 -281 -70.4 -277.3 -69.65 -277 -69.55 -274.8 -68.95 -273.35 -67.55 -271.7 -65.9 -272 -64.05 -272.1 -63.3 -273 -61.4 -273.75 -59.75 -273.6 -58.75 -273.4 -57.3 -271.95 -56.5 -270.55 -55.75 -269 -56 -267.7 -56.15 -266.2 -57 -265.7 -57.25 -263.6 -58.65 -262.3 -59.45 -260.95 -60.15 -255.6 -63.05 -249.35 -64.15 -244.7 -65 -240.1 -64.75 -240.05 -65.1 -239.95 -65.5 -239.4 -66.8 -239.3 -68.05 -239.2 -69.15 -239.45 -69.95 -239.5 -70.1 -239.55 -70.2 -239.65 -70.2 -239.7 -70.2 -239.9 -70.2 -240.1 -70.15 -239.35 -70.95 -237.9 -71.1 -232.3 -71.4 -228.9 -67.45 -226.95 -67.8 -224.95 -67.9 -220.1 -68.1 -215.6 -66.6 -212.95 -65.8 -211.95 -65.65 -209.9 -65.4 -208.6 -66.25 -207.2 -67.2 -207.1 -69.2 -207 -71.1 -208 -72.65 -208.7 -73.85 -210.3 -75.45 -212.25 -77.45 -212.75 -78.1 -215.55 -81.6 -215.65 -86.4 -215.7 -91.2 -213 -94.85 -211.9 -96.05 -211.4 -96.75 -210.5 -98 -210.35 -99.05 -210.1 -101 -212 -102.65 -213.75 -104.1 -216.1 -104.45 -218.4 -104.75 -221.9 -104.3 -227.15 -103.6 -227.75 -103.55
M -282.75 -83.1
Q -281.8 -84.35 -281.6 -85.5 -281.6 -86.55 -282.25 -87.55 -283.15 -89.15 -284.5 -89.65 -285.55 -90.1 -287.35 -89.9 -290.6 -89.4 -291.6 -87.8 -292.5 -86.6 -292.5 -84.5 -292.4 -83.85 -292.3 -83.55 -292.2 -83.05 -292 -82.75 -291.5 -82.1 -290.45 -81.8 -290 -81.65 -289.4 -81.6 -289.6 -81.4 -289.7 -81.25 -289.25 -80.95 -288.75 -80.8 -287.7 -80.3 -286.5 -80.45 -285.25 -80.55 -284.35 -81.3 -283.7 -81.75 -282.75 -83.1
M -207.85 -115.9
Q -209.25 -116.4 -211.1 -116.25 -212.55 -115.95 -213.65 -114.65 -214.7 -113.45 -215.1 -111.95 -215.15 -111.75 -215.2 -111.6 -215.2 -110.75 -215 -109.95 -214.85 -109.75 -214.55 -109.5 -214.75 -109.45 -214.85 -109.45 -214.55 -108.45 -213.8 -107.6 -212.9 -106.5 -211.6 -106 -210.4 -105.5 -208.95 -105.75 -207.5 -106 -206.5 -107 -205.9 -107.6 -205.1 -109.35 -204.15 -112.65 -205.5 -114.4 -206.3 -115.25 -207.85 -115.9 Z" stroke="none" fill="#61DBFF"></path>

<path d="M -215.25 -134.85
Q -219.05 -133.5 -222.75 -132 -232.15 -128.2 -241.2 -123.4 -250.95 -118.25 -260.95 -113.6 -263.35 -112.55 -265.8 -111.45 -267.6 -110.65 -269.35 -109.7 -277.7 -105.2 -285.8 -100.25 -293.25 -95.7 -299.5 -89.7 -300.75 -88.6 -301.7 -87.2 -302.65 -85.9 -303.85 -84.9 -304.1 -84.2 -304.5 -83.55 -305.25 -82.4 -305.8 -81.05 -306.15 -80.15 -306.45 -79.2 -307.05 -76.55 -307.45 -73.9 -308.15 -69.25 -306.3 -64.8 -305.05 -62.2 -303.2 -59.9 -300.75 -56.85 -297.4 -54.6 -296.9 -54.25 -296.45 -53.8 -284.85 -47.35 -271.35 -48.3 -269.6 -48.45 -267.85 -48.55 -267.7 -48.6 -267.55 -48.65 -267.45 -48.65 -267.4 -48.6 -262.7 -49.05 -258 -49.7
L -257.95 -49.7 -257.9 -49.75
Q -257.7 -49.95 -257.45 -50.1 -255.25 -50.7 -253.2 -51.5 -249.65 -52.9 -246.75 -55.4 -244.55 -57.3 -242.8 -59.55 -242.3 -60.25 -241.8 -61 -240.65 -62.7 -240.1 -64.75 -244.7 -65 -249.35 -64.15 -255.6 -63.05 -260.95 -60.15 -262.3 -59.45 -263.6 -58.65 -265.7 -57.25 -266.2 -57 -267.7 -56.15 -269 -56 -270.55 -55.75 -271.95 -56.5 -273.4 -57.3 -273.6 -58.75 -273.75 -59.75 -273 -61.4 -272.1 -63.3 -272 -64.05 -271.7 -65.9 -273.35 -67.55 -274.8 -68.95 -277 -69.55 -277.3 -69.65 -281 -70.4 -283.45 -70.85 -284.85 -71.7 -285.9 -72.3 -286.4 -73.25 -287 -74.35 -286.5 -75.25 -286.1 -75.85 -285.1 -76.2 -284.85 -76.3 -283.35 -76.6 -279.5 -77.35 -277.75 -81.5 -275.95 -85.65 -278.1 -88.95 -278.6 -89.7 -279.75 -91.3 -280.6 -92.65 -280.35 -93.85 -279.85 -95.65 -277.4 -96 -276.6 -96.15 -273 -96.15 -267.8314453125 -96.0037109375 -261.3 -101.45 -261.4638671875 -102.6171875 -260.8 -103.65 -260.3 -104.45 -259.4 -104.45 -258.84921875 -104.2625 -258.4 -104 -253.7416015625 -108.3443359375 -252.35 -109.4 -248.5 -112.45 -245 -113.4 -241.85 -114.35 -240.25 -113.05 -239.35 -112.35 -238.75 -110.65 -238.2 -108.75 -237.85 -107.9 -236.75 -105.5 -233.65 -104.35 -231 -103.35 -227.75 -103.55 -227.15 -103.6 -221.9 -104.3 -218.4 -104.75 -216.1 -104.45 -213.75 -104.1 -212 -102.65 -210.1 -101 -210.35 -99.05 -210.5 -98 -211.4 -96.75 -211.9 -96.05 -213 -94.85 -215.7 -91.2 -215.65 -86.4 -215.55 -81.6 -212.75 -78.1 -212.25 -77.45 -210.3 -75.45 -208.7 -73.85 -208 -72.65 -207 -71.1 -207.1 -69.2 -207.2 -67.2 -208.6 -66.25 -209.9 -65.4 -211.95 -65.65 -212.95 -65.8 -215.6 -66.6 -220.1 -68.1 -224.95 -67.9 -226.95 -67.8 -228.9 -67.45 -228.55 -67.05 -228.2 -66.55 -227.45 -65.55 -227.25 -64.25 -226.9 -61.95 -227.65 -60.05 -227.7 -59.9 -227.75 -59.75 -226.25 -60.55 -224.75 -61.25 -224.2 -61.5 -223.65 -61.1 -223.1 -60.7 -222.9 -60.1 -222.85 -60 -222.85 -59.9 -222.85 -59.8 -222.85 -59.7 -222.85 -59.65 -222.85 -59.55 -222.85 -59.45 -222.85 -59.35 -222.85 -59.25 -222.8 -59.2 -227.05 -54.55 -233.35 -52.25 -241.8 -49.1 -250.6 -47.05 -258.15 -45.25 -265.7 -44.75 -266.05 -43.85 -266 -42.85 -265.85 -37.5 -265.85 -32.05 -215.6 -32.3 -182 -32.35 -182.3 -32.55 -182.55 -32.85 -183.5 -33.8 -183.7 -35.25 -184.05 -37.85 -184.65 -40.4 -186.9 -49.85 -188.3 -59.55 -188.4 -60.3 -188.5 -61.05 -188.9 -63.7 -189.5 -66.35 -190.55 -70.75 -191 -75.2 -191.15 -75.5 -191.25 -75.8 -191.8 -77.35 -192.15 -78.95 -192.2 -78.9 -192.25 -78.85 -192.25 -79.1 -192.2 -79.25 -192.95 -82.8 -192.7 -86.4 -192.7 -86.75 -192.45 -87.1 -190.1 -93.05 -188.7 -99.3 -187.65 -103.95 -186.95 -108.7
L -186.95 -108.75
Q -187 -109 -187 -109.2 -187.05 -109.4 -187 -109.6 -187.1 -109.8 -187.15 -110.05 -187.25 -110.4 -187.3 -110.7 -187.35 -110.95 -187.4 -111.15 -187.4 -111.4 -187.4 -111.6 -187.4 -111.75 -187.35 -111.85 -187.7 -112.35 -187.85 -112.9 -187.95 -113.45 -188.05 -114 -188.2 -114.8 -188.55 -115.5 -188.7 -115.85 -188.7 -116.2 -188.8 -116.3 -188.85 -116.4 -188.95 -116.5 -189 -116.6 -189.1 -116.7 -189.2 -116.85 -189.25 -116.95 -189.35 -117.05 -192 -124.7 -199.9 -126.25 -200.8 -126.45 -201.7 -126.45 -203.95 -126.15 -206.05 -125.5 -207.9 -124.85 -209.7 -124.15 -211.05 -123.95 -212.4 -123.2 -215.6 -121.6 -218.9 -120.15 -222.05 -118.7 -225 -119.8 -225.1 -120.15 -225.1 -120.45 -224.55 -120.9 -223.75 -121.3 -221.7 -122.35 -219.75 -123.4 -218.55 -124.05 -217.35 -124.65 -215.85 -125.8 -214.2 -126.55 -212.15 -127.55 -210 -128.3 -207.85 -129 -205.7 -129.6 -204.45 -130 -203.15 -130.25 -203.2 -130.25 -203.2 -130.3 -203.3 -130.35 -203.35 -130.45 -203.4 -130.55 -203.4 -130.65 -203.5 -130.8 -203.55 -131 -203.65 -131.15 -203.7 -131.35 -204.1 -131.65 -204.45 -132 -205.35 -132.75 -206.15 -133.6 -206.6 -134.1 -207.15 -134.5 -209.2 -135.35 -211.4 -135.2 -213.35 -135.05 -215.25 -134.85
M -211.1 -116.25
Q -209.25 -116.4 -207.85 -115.9 -206.3 -115.25 -205.5 -114.4 -204.15 -112.65 -205.1 -109.35 -205.9 -107.6 -206.5 -107 -207.5 -106 -208.95 -105.75 -210.4 -105.5 -211.6 -106 -212.9 -106.5 -213.8 -107.6 -214.55 -108.45 -214.85 -109.45 -214.95 -109.7 -215 -109.95 -215.15 -110.15 -215.25 -110.35 -215.35 -110.85 -215.2 -111.6 -215.15 -111.75 -215.1 -111.95 -214.7 -113.45 -213.65 -114.65 -212.55 -115.95 -211.1 -116.25
M -281.6 -85.5
Q -281.8 -84.35 -282.75 -83.1 -283.7 -81.75 -284.35 -81.3 -285.25 -80.55 -286.5 -80.45 -287.7 -80.3 -288.75 -80.8 -289.25 -80.95 -289.7 -81.25 -290.15 -81.5 -290.45 -81.8 -291.5 -82.1 -292 -82.75 -292.2 -83.05 -292.3 -83.55 -292.4 -83.85 -292.5 -84.5 -292.5 -86.6 -291.6 -87.8 -290.6 -89.4 -287.35 -89.9 -285.55 -90.1 -284.5 -89.65 -283.15 -89.15 -282.25 -87.55 -281.6 -86.55 -281.6 -85.5 Z" stroke="none" fill="#D433FF"></path>
</g>
</g>
</g>
</g>
</g>
</svg>
