
<svg viewBox="0 0 272 172" height="172px" width="272px" y="0px" x="0px" preserveAspectRatio="none" xmlns:xlink="http://www.w3.org/1999/xlink" version="1.1" xmlns="http://www.w3.org/2000/svg">
<defs></defs>

<g id="Layer_2">
<g>
<g>
<g>
<path d="M 64.3 129.7
Q 63.7 128.8 63.3 127.85 63.3 128 63.3 128.1 63.3 129.8 63.9 131.3 63.95 133.7 64.5 136.05 64.697265625 136.860546875 64.8 137.7 64.928125 138.7763671875 64.9 139.9 65 140 65.05 140.15 65.1 140.25 65.15 140.4 65.15 140.5 65.15 140.65 65.05 141.65 65.35 142.6 65.45 142.85 65.55 143.1 65.55 143.2 65.55 143.35 65.55 144.05 65.55 144.8 65.55 144.95 65.55 145.05 65.65 145.2 65.7 145.3 65.8 145.8 65.8 146.3 65.8 146.4 65.8 146.55 65.9 146.65 65.95 146.75 66.05 146.9 66.1 147 66.15 147.15 66.15 147.25 66.2 147.9 66.2 148.5 66.2 148.6 66.2 148.75 66.2 148.85 66.25 148.95 66.5 149.25 66.8 149.5 66.8 149.6 66.85 149.7 67.1 150.35 67.4 150.95 67.45 151.05 67.5 151.2 68.85 152.55 69.85 154.1 69.9052734375 154.1908203125 69.95 154.25 75.2228515625 154.2859375 80.55 154.25 87.034765625 154.198046875 93.6 154.05 87.376171875 151.4427734375 81.35 148.15 80.9462890625 147.9283203125 80.55 147.7 73.780078125 143.782421875 69.25 137.7 68.3923828125 136.5162109375 67.6 135.25 67.3 134.25 66.75 133.25 65.85 131.7 64.4 130.65 64.35 130.5 64.35 130.35 64.3 130.05 64.3 129.7
M 207.35 131.15
Q 207.2 131.6 207.25 132.1 207.25 132.25 207.25 132.4 206.9 132.95 206.55 133.55 205.9 134.75 205.6 136.05 205.6 136.25 205.55 136.4 205.1783203125 137.0623046875 204.75 137.7 203.4271484375 139.8076171875 201.7 141.65 200.3 143.25 199.1 145 198.75 145.15 198.45 145.3 197.65 145.7 197.25 146.5 193.06875 149.6982421875 188.6 152.3 196.98359375 152.0265625 205.3 151.65 205.4974609375 151.3390625 205.65 151 206.2 149.8 207 148.8 207 148.7 207.05 148.6 207.05 148.45 207.1 148.35 207.2 148.2 207.3 148.1 207.85 147.4 208.35 146.6 208.35 146.5 208.35 146.35 208.35 146 208.35 145.65 208.4 145.5 208.5 145.4 208.75 145.15 209 144.9 209 144.75 209 144.65 209 144.4 209 144.15 209.55 143.35 209.7 142.45 209.95 141.1 209.95 139.75 210.05 139.6 210.15 139.5 210.2 139.35 210.3 139.25 210.35 139.1 210.35 139 210.4 138.4 210.4 137.75
L 210.4 137.7
Q 210.4 137.6146484375 210.4 137.5 210.4 137.4 210.5 137.3 210.55 137.15 210.65 137 210.65 131.6 211.1 126.2 211.25 123.55 210.85 120.95 210.3 122.85 209.85 124.75 209.05 128 207.35 130.85 207.35 131 207.35 131.15
M 113.55 96.4
Q 113.35 96.35 113.15 96.25 113.05 96.15 113 96.05 112.9 95.95 112.9 95.85 108.7 93.15 103.65 93.6 98.45 94.05 94.5 97.5 93.05 98.75 92.75 100.55 94.6 103.65 98.05 105.15 101.05 106.4 103.25 105.85 104.75 105.45 106.05 106.1 112.05 107.3 115.55 103.2 115.75 103 115.9 102.8 115.95 102.7 115.95 102.6 115.95 102.35 116 102.05 116.05 101.7 116.2 101.4 116.25 101.35 116.25 101.25 116.25 101.15 116.25 101.05 116.25 100.95 116.2 100.85 116.1 100.65 115.95 100.45 115.95 100.35 115.95 100.25 115.95 100.15 115.95 100.05 115.95 99.85 115.95 99.7 115.95 99.6 115.95 99.5 115.95 99.4 115.9 99.3 115.85 99.2 115.8 99.1 115.75 99 115.7 98.9 115.6 98.8 115.45 98.7 115.15 98.45 114.95 98.1 114.8 97.9 114.7 97.7 114.65 97.6 114.5 97.55 114.2 97.3 114 96.95 113.85 96.75 113.75 96.55 113.65 96.45 113.55 96.4
M 166.4 137.7
Q 171.5333984375 135.5947265625 176.35 132.8 182.95 129 188.4 123.65 174.35 130.05 158.7 131.9 154.289453125 132.43046875 149.9 132.65 130.701171875 133.7916015625 111.9 129.6 106.35 128.35 101.3 125.8 98.75 124.5 96.3 123.55 96.05 123.25 95.9 122.95 95.8 122.85 95.7 122.75 95.15 122.55 94.45 122.3 94.4 122.2 94.35 122.1 94.25 122 94.15 121.9 93.15 121.5 92.05 121.3 91.05 120.45 89.9 119.8 89.65 119.7 89.6 119.85 94.05 131.05 105.35 136.1 107.2677734375 136.9470703125 109.2 137.7 115.547265625 140.1470703125 122.2 141.6 129 143.1 135.95 143.35 143.0384765625 143.586328125 149.9 142.45 154.6546875 141.682421875 159.3 140.25 162.9279296875 139.13515625 166.4 137.7
M 164.85 92.5
Q 164.46328125 92.489453125 164.05 92.45 163.737890625 92.497265625 163.4 92.55 159.488671875 93.270703125 156.15 95.45 154.8 96.3 153.7 97.5 153.55 98 153.55 98.5 153.6 99 153.6 99.5 153.8 99.75 154 100.05 154.2 100.25 154.35 100.45 154.75 101.75 155.85 102.7 156.5 103.25 157.25 103.8 157.4 103.85 157.5 103.95 165.2 105.25 172.7 102.9 173.75 102.15 174.5 101.05 174.65 100.8 174.9 100.55 174.9 100.35 175 100.15 175.05 99.95 175.15 99.75 175.1 99.35 175.05 98.95 175 98.6 174.7 98.35 174.7 98.25 174.7 98.15 174.7 98.05 174.65 97.95 174.65 97.85 174.6 97.8 173.9 96.8 172.85 96.05 172.55 95.85 172.45 95.5 172.25 95.4 172.05 95.35 171.85 95.3 171.6 95.2 169.3 93.15 166.15 92.7 165.51328125 92.608984375 164.85 92.5
M 74.55 107.8
Q 73.3 106.65 72.5 105.15 69.9 102.1 66.95 99.4 66.7 99.95 66.55 100.55 66.6 100.65 66.6 100.7 66.6 101.15 66.8 101.5 67.05 104.65 67.4 107.8 67.55 109.5 67.7 111.15 69.35 111.15 71 111.5 71.1 111.5 71.25 111.55 73.8 111.25 76.4 110.9 76.3 109.35 74.55 107.8
M 80.55 83.65
Q 79.7375 81.74140625 79 79.75 78.7 78.85 78.35 78 78.2 81.95 78.25 85.9 78.25 88.85 78.4 91.75 79.479296875 91.459375 80.55 91.15 82.05859375 90.6970703125 83.55 90.2 81.9404296875 87.0123046875 80.55 83.65
M 204.55 103.4
Q 204.55 102.2 204.55 100.95 203.45 101.4 202.15 101.6 201.4 101.7 200.6 101.85 200.45 102 200.3 102.15 200.15 102.3 200 102.4 199.9 102.45 199.8 102.45 198.65 102.8 197.55 103.3 197.45 103.45 197.3 103.55 196.85 103.95 196.4 104.45 196.3 104.5 196.2 104.5 195.8 104.65 195.4 104.75 195.25 104.9 195.05 105 194.35 105.3 194.15 105.95 194.15 106.05 194.1 106.1 193.4 106.45 192.65 106.7 198.45 107.65 204.55 108.55 204.55 106 204.55 103.4
M 196.7 84.1
Q 196.7 83.95 196.65 83.85 195.6 85.25 194.65 86.75 193.65 88.35 192.4 89.8 192.1 89.95 191.85 90.15 191.75 90.25 191.7 90.4 194.05 91.45 197 92.7 197 92.5 197 92.35 197.15 90.6 196.7 89 196.7 88.1 196.7 87.25 196.7 85.65 196.7 84.1 Z" stroke="none" fill="#EE9D33"></path>

<path d="M 178.65 64.4
Q 178.8 63.75 178.2 63.45 168.85 65.35 159.25 67.15 159.15 67 159.05 66.85 158.6 65.95 158.3 65 158.2 64.85 158.1 64.7 158.1 64.55 158.05 64.4 157.9 63.95 157.7 63.45 157.7 63.3 157.7 63.15 157.7 62.4 157.7 61.65 157.7 61.15 157.7 60.7 157.6 60.55 157.55 60.4 157.25 59.5 157.1 58.55 157.05 58.25 156.9 57.95 156.9 57.8 156.9 57.65 156.9 57.15 156.9 56.7 156.8 56.55 156.7 56.4 156.6 56.25 156.5 56.1 156.5 55.95 156.5 55.8 156.55 55.2 156.05 54.85 152.9712890625 56.0814453125 149.9 57.5 144.9904296875 59.8203125 140.1 62.65
L 140.1 62.7
Q 138.85 62.7 137.65 62.65 137.5 62.5 137.35 62.35 137.3 62.25 137.25 62.15 137.2 62.1 137.1 62.05 136.75 61.95 136.4 61.85 136.4 61.7 136.35 61.55 135.75 60.45 134.75 59.7 134.75 59.55 134.7 59.45 134.15 58.7 133.45 58.15 133.15 57.55 132.9 56.9 132.45 55.55 131.5 54.45 131.5 54.3 131.45 54.15 131.45 54 131.4 53.85 131.2 53.55 130.95 53.25 130.1 52.25 129.55 51.05 129.5 50.95 129.45 50.75 129.4 50.65 129.35 50.65 128.95 50.6 128.5 50.65 123.65 55.2 119.65 60.5 118.1 62.55 116.85 64.8 115.05 64.95 113.25 65.1 110.05 63.1 106.85 60.95 106.2 60.45 105.7 59.8 103.5 58.4 101.35 56.9 100.6 56.4 99.85 55.9 99.05 61.25 99.1 66.95 99.15 71.1 99.15 75.25 99.15 75.55 99.15 75.85 89.99375 75.6234375 80.55 73.35 79.5765625 73.10703125 78.6 72.85 78.6 72.95 78.6 73.05
L 78.6 73.1
Q 78.7 73.4 78.75 73.7 78.85 73.85 78.95 74 79.2 74.35 79.45 74.65 79.9888671875 76.2666015625 80.55 77.85 81.446484375 80.447265625 82.4 83 83.65 86.2 85.5 89.05 85.55 89.2 85.6 89.4 85.6 89.85 85.6 90.3 85.6 90.45 85.6 90.6 83.1357421875 91.5521484375 80.55 92.35 73.9017578125 94.4900390625 66.45 95.75 66.55 95.9 66.7 96 66.8 96.1 66.85 96.2 67.35 96.2 67.85 96.3
L 67.85 96.4
Q 67.9 96.9 67.75 97.4 72.5 101.5 76.45 106.5 78 108.55 79.05 110.8 76.55 112.45 72.4 112.8 67.55 113.15 63.1 113.2 62.5 113.4 61.9 113.7 61.85 113.8 61.85 113.9 61.8 114.1 61.8 114.3 61.85 114.5 61.85 114.7 61.85 114.8 61.85 114.9 62.2 114.9 62.6 114.95
L 62.6 115.05
Q 62.6 115.2 62.6 115.3 62.6 116.2 62.6 117.05 62.6 117.3 62.6 117.55 62.65 117.65 62.7 117.75 62.75 117.9 62.85 118 62.85 118.15 62.85 118.3 62.95 118.45 63 118.65 63.05 118.8 63.1 118.95 63.1 119.1 63.1 119.3 63.1 120.05 63.1 120.8 63.1 121.1 63.1 121.45 64.05 123.15 64.65 125.1 65.25 127.2 66.35 129.1 66.35 129.25 66.4 129.4 66.4 129.7 66.45 130.05 67.35 130.6 67.8 131.6 68.45 133 69.55 134 69.6 134.2 69.6 134.35 69.65 134.5 69.65 134.65 70.7890625 136.227734375 72 137.7 75.8154296875 142.1900390625 80.55 145.7 85.23515625 149.1521484375 90.85 151.65 93.6609375 152.9048828125 96.5 154 100.978125 153.9279296875 105.5 153.8 117.8 153.45 130.15 153.45 140.04453125 153.4197265625 149.9 153.25 167.977734375 153.0330078125 185.9 152.4 190.70703125 149.5625 195.1 146 195.2 145.85 195.3 145.7 195.85 144.85 196.8 144.45 198 143.2 199 141.7 200 140.3 201.35 139.25 201.6 138.8 201.85 138.35 202.0267578125 138.021875 202.2 137.7 202.78984375 136.7470703125 203.5 135.85 203.7 134.55 204.35 133.4 205.3 131.85 205.45 130.05 207.25 126.2 208.25 122 208.95 118.9 210.15 115.9 210.15 115 210.15 114.05 210.15 112.35 210.15 110.7 210.15 110.5 210.15 110.35 199.9 108.75 189.65 107.4 189.65 107.25 189.7 107.15 190.15 106.4 190.8 105.85 190.9 105.75 191 105.65 191.05 105.6 191.1 105.6 191.6 105.45 192.1 105.35 192.15 105.2 192.25 105.1 192.85 104.45 193.55 103.9 193.95 103.8 194.35 103.7 195.3 102.65 196.65 102.2 197.8 101.85 198.75 101.15 201.2 100.7 203.3 99.55 203.85 99.25 204.6 98.9 196.95 93.9 189.25 90.7 190.9 88.45 192.75 85.85 193.95 84.15 195.2 82.4 195.25 82.25 195.25 82.1 195.35 81.65 195.4 81.2 195.55 81.05 195.7 80.95 195.05 79.4 194.85 77.8 195.15 77.8 195.45 77.85 195.35 77.75 195.3 77.7
L 195.3 77.65
Q 194.15 77.45 193.15 76.9 186.05 76.65 179 76.35 179 73.45 179.15 70.55 179.3 67.5 178.6 64.7 178.6 64.55 178.65 64.4
M 162.3 91.75
Q 166.8 91.2 170.85 92.75 172.4 93.35 173.45 94.5 173.5 94.55 173.6 94.55 173.75 94.6 173.9 94.65 174.1 94.7 174.3 94.75 174.35 94.85 174.45 94.95 175.1 95.55 175.75 96.2 176.1 96.6 176.5 96.9 176.55 97 176.6 97.1 176.6 97.2 176.65 97.3 176.65 97.5 176.65 97.7 176.8 97.8 176.85 97.95 176.9 98 176.9 98.1 176.9 98.3 176.9 98.5 177 98.6 177.05 98.7 177.1 98.8 177.2 98.9 177.2 99 177.2 99.1 177.2 99.3 177.2 99.5 177.2 99.8 177.2 100.05 177.2 100.15 177.2 100.25 177.15 100.35 177.1 100.45 176.85 101.25 176.25 102 175.55 102.9 174.6 103.6 165.6 106.65 156.7 104.7 153.6 104 152.4 101.1 152.3 101 152.2 100.9 152.1 100.8 152.05 100.7 151.8 100.45 151.6 100.15 151.6 100.05 151.6 99.95 151.6 99.45 151.6 98.95 151.6 98.45 151.6 97.95 151.6 97.6 151.6 97.2 151.7 97.1 151.75 97 151.8 96.9 151.85 96.8 151.9 96.7 151.95 96.6 153 95.5 154.3 94.7 158 92.35 162.3 91.75
M 187.15 122.4
Q 187.2 122.3 187.25 122.2 188.25 121.85 189.15 121.35 190.65 120.45 192 119.4 192.1 119.3 192.15 119.2 192.2 119.1 192.3 119.05 192.4 118.95 192.5 118.9
L 192.5 118.85
Q 193.5 118.95 194.45 119.15 194.5 119.15 194.5 119.25 194.5 119.35 194.45 119.45 194.4 119.85 194.1 120.1 193.8 120.35 193.5 120.65 193.45 120.75 193.45 120.85 193.4 120.95 193.35 121.05 193.35 121.15 193.3 121.25 193.2 121.35 193.1 121.4 192.6 121.7 192.25 122.1 191.9 122.55 191.45 123 191.45 123.1 191.4 123.2 191.35 123.3 191.3 123.4 191.25 123.5 191.2 123.6 184.45 130.35 176.05 134.9 173.2783203125 136.419921875 170.4 137.7 163.6802734375 140.715234375 156.45 142.4 153.218359375 143.1603515625 149.9 143.55 148.854296875 143.6662109375 147.8 143.75 126.45 145.45 106.25 138.2 105.5912109375 137.9609375 104.95 137.7 95.6947265625 133.921875 90.55 125.55 89.15 123.35 87.7 121.15 87.7 121.05 87.7 120.95 87.65 120.8 87.65 120.6 87.65 120.5 87.65 120.4 87.65 120.3 87.65 120.2 87.6 120.1 87.55 120 87.45 119.8 87.4 119.6 87.4 119.5 87.4 119.4 87.35 119.3 87.3 119.2 87.25 119.1 87.15 119 87.15 118.9 87.15 118.8 87.15 118.6 87.15 118.4 87.15 118.3 87.15 118.2 87.15 118.1 87.15 118.05 87.2 117.95 87.25 117.9 88.5 117.95 89.7 117.95 90.25 118.55 91 118.9 92.5 119.6 93.9 120.6 94.05 120.65 94.2 120.65 95.45 120.75 96.35 121.5 96.45 121.6 96.55 121.7 96.75 121.75 96.9 121.8 97.25 121.9 97.55 121.95 97.65 122.05 97.75 122.15 97.9 122.35 98 122.55 98.1 122.65 98.15 122.75 98.2 122.8 98.3 122.85 98.75 122.95 99.2 123 108.25 128.8 118.95 130.5 134.398046875 132.9583984375 149.9 131.8 155.5212890625 131.3916015625 161.15 130.5 164 130.05 166.9 129.5 177.45 127.4 186.95 122.6 187.05 122.5 187.15 122.4
M 114.65 95.1
Q 114.75 95.2 114.85 95.3 114.9 95.4 115 95.5 115.05 95.55 115.15 95.6 115.2 95.65 115.3 95.7 115.5 95.75 115.65 95.8 115.7 95.9 115.75 96 115.85 96.1 115.9 96.2 116.05 96.4 116.25 96.6 116.35 96.7 116.45 96.8 116.55 96.9 116.7 97 116.75 97.1 116.8 97.2 116.85 97.3 116.9 97.4 116.9 97.5 116.95 97.6 117.05 97.7 117.15 97.8 117.25 97.85 117.35 97.95 117.5 98.05 117.6 98.15 117.65 98.25 117.75 98.35 117.75 98.45 117.8 98.55 117.85 98.65 117.85 98.75 117.9 98.95 117.95 99.15 117.95 99.25 117.95 99.35 117.95 99.45 117.95 99.55 117.95 99.65 118 99.7 118.05 99.85 118.1 99.95 118.15 100.05 118.2 100.15 118.2 100.25 118.2 100.35 118.2 100.45 118.2 100.55 118.2 100.7 118.2 100.9 118.2 101 118.2 101.1 118.2 101.2 118.2 101.3 118.2 101.6 118.2 101.9 118.2 102 118.2 102.1 118.15 102.2 118.1 102.3 118.05 102.4 118 102.5 117.95 102.6 117.95 102.7 117.95 102.8 117.95 102.9 117.95 103 117.95 103.1 117.95 103.2 117.95 103.3 117.9 103.4 117.85 103.45 117.8 103.55 117.75 103.65 117.5 103.95 117.25 104.3 117 104.7 116.6 105.05 116.2 105.4 115.85 105.75 107.5 108.45 98.75 106.75 94.1 105.8 91.45 102.05 91.35 101.95 91.2 101.85 91.1 101.75 91 101.65 90.95 101.55 90.85 101.45 90.85 101.35 90.8 101.25 90.8 101.15 90.8 101.05 90.8 100.85 90.8 100.65 90.8 100.55 90.8 100.45 90.8 100.35 90.8 100.25 90.8 99.95 90.8 99.7 90.8 99.6 90.8 99.5 91.4 97.8 92.75 96.7 97.55 92.85 103.65 92.6 108.05 92.4 112.15 93.85 113.45 94.35 114.65 95.1 Z" stroke="none" fill="#FDDF5E"></path>

<path d="M 114.85 95.3
Q 114.75 95.2 114.65 95.1 113.45 94.35 112.15 93.85 108.05 92.4 103.65 92.6 97.55 92.85 92.75 96.7 91.4 97.8 90.8 99.5 90.8 99.6 90.8 99.7 90.8 99.95 90.8 100.25 90.8 100.35 90.8 100.45 90.8 100.55 90.8 100.65 90.8 100.85 90.8 101.05 90.8 101.15 90.8 101.25 90.85 101.35 90.85 101.45 90.95 101.55 91 101.65 91.1 101.75 91.2 101.85 91.35 101.95 91.45 102.05 94.1 105.8 98.75 106.75 107.5 108.45 115.85 105.75 116.2 105.4 116.6 105.05 117 104.7 117.25 104.3 117.5 103.95 117.75 103.65 117.8 103.55 117.85 103.45 117.9 103.4 117.95 103.3 117.95 103.2 117.95 103.1 117.95 103 117.95 102.9 117.95 102.8 117.95 102.7 117.95 102.6 118 102.5 118.05 102.4 118.1 102.3 118.15 102.2 118.2 102.1 118.2 102 118.2 101.9 118.2 101.6 118.2 101.3 118.2 101.2 118.2 101.1 118.2 101 118.2 100.9 118.2 100.7 118.2 100.55 118.2 100.45 118.2 100.35 118.2 100.25 118.2 100.15 118.15 100.05 118.1 99.95 118.05 99.85 118 99.7 117.95 99.65 117.95 99.55 117.95 99.45 117.95 99.35 117.95 99.25 117.95 99.15 117.9 98.95 117.85 98.75 117.85 98.65 117.8 98.55 117.75 98.45 117.75 98.35 117.65 98.25 117.6 98.15 117.5 98.05 117.35 97.95 117.25 97.85 117.15 97.8 117.05 97.7 116.95 97.6 116.9 97.5 116.9 97.4 116.85 97.3 116.8 97.2 116.75 97.1 116.7 97 116.55 96.9 116.45 96.8 116.35 96.7 116.25 96.6 116.05 96.4 115.9 96.2 115.85 96.1 115.75 96 115.7 95.9 115.65 95.8 115.5 95.75 115.3 95.7 115.2 95.65 115.15 95.6 115.05 95.55 115 95.5 114.9 95.4 114.85 95.3
M 113.15 96.25
Q 113.35 96.35 113.55 96.4 113.65 96.45 113.75 96.55 113.85 96.75 114 96.95 114.2 97.3 114.5 97.55 114.65 97.6 114.7 97.7 114.8 97.9 114.95 98.1 115.15 98.45 115.45 98.7 115.6 98.8 115.7 98.9 115.75 99 115.8 99.1 115.85 99.2 115.9 99.3 115.95 99.4 115.95 99.5 115.95 99.6 115.95 99.7 115.95 99.85 115.95 100.05 115.95 100.15 115.95 100.25 115.95 100.35 115.95 100.45 116.1 100.65 116.2 100.85 116.25 100.95 116.25 101.05 116.25 101.15 116.25 101.25 116.25 101.35 116.2 101.4 116.05 101.7 116 102.05 115.95 102.35 115.95 102.6 115.95 102.7 115.9 102.8 115.75 103 115.55 103.2 112.05 107.3 106.05 106.1 104.75 105.45 103.25 105.85 101.05 106.4 98.05 105.15 94.6 103.65 92.75 100.55 93.05 98.75 94.5 97.5 98.45 94.05 103.65 93.6 108.7 93.15 112.9 95.85 112.9 95.95 113 96.05 113.05 96.15 113.15 96.25
M 187.25 122.2
Q 187.2 122.3 187.15 122.4 187.05 122.5 186.95 122.6 177.45 127.4 166.9 129.5 164 130.05 161.15 130.5 155.5212890625 131.3916015625 149.9 131.8 134.398046875 132.9583984375 118.95 130.5 108.25 128.8 99.2 123 98.75 122.95 98.3 122.85 98.2 122.8 98.15 122.75 98.1 122.65 98 122.55 97.9 122.35 97.75 122.15 97.65 122.05 97.55 121.95 97.25 121.9 96.9 121.8 96.75 121.75 96.55 121.7 96.45 121.6 96.35 121.5 95.45 120.75 94.2 120.65 94.05 120.65 93.9 120.6 92.5 119.6 91 118.9 90.25 118.55 89.7 117.95 88.5 117.95 87.25 117.9 87.2 117.95 87.15 118.05 87.15 118.1 87.15 118.2 87.15 118.3 87.15 118.4 87.15 118.6 87.15 118.8 87.15 118.9 87.15 119 87.25 119.1 87.3 119.2 87.35 119.3 87.4 119.4 87.4 119.5 87.4 119.6 87.45 119.8 87.55 120 87.6 120.1 87.65 120.2 87.65 120.3 87.65 120.4 87.65 120.5 87.65 120.6 87.65 120.8 87.7 120.95 87.7 121.05 87.7 121.15 89.15 123.35 90.55 125.55 95.6947265625 133.921875 104.95 137.7 105.5912109375 137.9609375 106.25 138.2 126.45 145.45 147.8 143.75 148.854296875 143.6662109375 149.9 143.55 153.218359375 143.1603515625 156.45 142.4 163.6802734375 140.715234375 170.4 137.7 173.2783203125 136.419921875 176.05 134.9 184.45 130.35 191.2 123.6 191.25 123.5 191.3 123.4 191.35 123.3 191.4 123.2 191.45 123.1 191.45 123 191.9 122.55 192.25 122.1 192.6 121.7 193.1 121.4 193.2 121.35 193.3 121.25 193.35 121.15 193.35 121.05 193.4 120.95 193.45 120.85 193.45 120.75 193.5 120.65 193.8 120.35 194.1 120.1 194.4 119.85 194.45 119.45 194.5 119.35 194.5 119.25 194.5 119.15 194.45 119.15 193.5 118.95 192.5 118.85
L 192.5 118.9
Q 192.4 118.95 192.3 119.05 192.2 119.1 192.15 119.2 192.1 119.3 192 119.4 190.65 120.45 189.15 121.35 188.25 121.85 187.25 122.2
M 176.35 132.8
Q 171.5333984375 135.5947265625 166.4 137.7 162.9279296875 139.13515625 159.3 140.25 154.6546875 141.682421875 149.9 142.45 143.0384765625 143.586328125 135.95 143.35 129 143.1 122.2 141.6 115.547265625 140.1470703125 109.2 137.7 107.2677734375 136.9470703125 105.35 136.1 94.05 131.05 89.6 119.85 89.65 119.7 89.9 119.8 91.05 120.45 92.05 121.3 93.15 121.5 94.15 121.9 94.25 122 94.35 122.1 94.4 122.2 94.45 122.3 95.15 122.55 95.7 122.75 95.8 122.85 95.9 122.95 96.05 123.25 96.3 123.55 98.75 124.5 101.3 125.8 106.35 128.35 111.9 129.6 130.701171875 133.7916015625 149.9 132.65 154.289453125 132.43046875 158.7 131.9 174.35 130.05 188.4 123.65 182.95 129 176.35 132.8
M 170.85 92.75
Q 166.8 91.2 162.3 91.75 158 92.35 154.3 94.7 153 95.5 151.95 96.6 151.9 96.7 151.85 96.8 151.8 96.9 151.75 97 151.7 97.1 151.6 97.2 151.6 97.6 151.6 97.95 151.6 98.45 151.6 98.95 151.6 99.45 151.6 99.95 151.6 100.05 151.6 100.15 151.8 100.45 152.05 100.7 152.1 100.8 152.2 100.9 152.3 101 152.4 101.1 153.6 104 156.7 104.7 165.6 106.65 174.6 103.6 175.55 102.9 176.25 102 176.85 101.25 177.1 100.45 177.15 100.35 177.2 100.25 177.2 100.15 177.2 100.05 177.2 99.8 177.2 99.5 177.2 99.3 177.2 99.1 177.2 99 177.2 98.9 177.1 98.8 177.05 98.7 177 98.6 176.9 98.5 176.9 98.3 176.9 98.1 176.9 98 176.85 97.95 176.8 97.8 176.65 97.7 176.65 97.5 176.65 97.3 176.6 97.2 176.6 97.1 176.55 97 176.5 96.9 176.1 96.6 175.75 96.2 175.1 95.55 174.45 94.95 174.35 94.85 174.3 94.75 174.1 94.7 173.9 94.65 173.75 94.6 173.6 94.55 173.5 94.55 173.45 94.5 172.4 93.35 170.85 92.75
M 164.05 92.45
Q 164.46328125 92.489453125 164.85 92.5 165.51328125 92.608984375 166.15 92.7 169.3 93.15 171.6 95.2 171.85 95.3 172.05 95.35 172.25 95.4 172.45 95.5 172.55 95.85 172.85 96.05 173.9 96.8 174.6 97.8 174.65 97.85 174.65 97.95 174.7 98.05 174.7 98.15 174.7 98.25 174.7 98.35 175 98.6 175.05 98.95 175.1 99.35 175.15 99.75 175.05 99.95 175 100.15 174.9 100.35 174.9 100.55 174.65 100.8 174.5 101.05 173.75 102.15 172.7 102.9 165.2 105.25 157.5 103.95 157.4 103.85 157.25 103.8 156.5 103.25 155.85 102.7 154.75 101.75 154.35 100.45 154.2 100.25 154 100.05 153.8 99.75 153.6 99.5 153.6 99 153.55 98.5 153.55 98 153.7 97.5 154.8 96.3 156.15 95.45 159.488671875 93.270703125 163.4 92.55 163.737890625 92.497265625 164.05 92.45
M 180.55 63.15
Q 180.25 62.9 180 62.55 179.9 62.4 179.7 62.25 170.1 63.3 161 66.05 160.95 65.75 160.8 65.55 160.75 65.35 160.55 65.2 160.55 65.05 160.55 64.9 160.35 64.45 160.2 63.95 160.15 63.85 160.15 63.7 159.95 63.35 159.8 63.05 159.75 62.9 159.75 62.75 159.75 62.6 159.75 62.45 159.95 60.7 159.6 59 159.4 58.1 158.95 57.2 158.95 56.9 158.95 56.6 158.95 56.45 158.95 56.3 158.9 56.15 158.8 56.05 158.45 55.6 158.5 55.05 158.55 54.9 158.55 54.75 158.5 54.6 158.4 54.5 158.25 54.3 158.1 54.15 158.05 53.85 157.95 53.55 157.85 53.4 157.7 53.25 156.4 53.2 155.05 53.2 154.9 53.25 154.75 53.35 154.2 53.75 153.7 54.25 153.5 54.4 153.3 54.55 151.591015625 55.2580078125 149.9 56 144.6642578125 58.3412109375 139.6 61.1 139.05 61.15 138.55 61.1 138.5 61.1 138.45 61 138.15 60 137.25 59.45 137.05 59.3 136.9 59.15 136.85 59 136.8 58.85 136.75 58.7 136.7 58.55 136.3 58.25 135.9 57.9 135.75 57.8 135.6 57.65 134.9 56.45 134.35 55.2 134.1 54.5 133.55 53.95 133.55 53.8 133.5 53.65 132.95 52.35 132 51.2 131.55 50.65 131.4 49.95 131.1 49.85 130.8 49.7 130.75 49.7 130.65 49.65 130.55 49.55 130.5 49.45 130.35 49.3 130.25 49.15 129.15 49.1 128 49.05 125.5 50.7 123.3 53.1 118.5 58.35 114.6 64 114.1 63.6 113.5 63.25 107.35 59.55 101.7 54.95 101.15 54.8 100.6 54.6 100.4 54.55 100.25 54.45 99.2 54.4 98.1 54.45 98 54.45 97.9 54.55 97.95 55.1 97.65 55.5 97.55 55.65 97.5 55.8 97.5 56.1 97.5 56.4 97.25 60.55 97.2 64.7 97.1 69.9 97.1 75.15 91.85 74.8 86.8 73.15 83.539453125 72.1080078125 80.55 72.1 79.0927734375 72.104296875 77.7 72.35 77.15 72.3 76.65 72.3 76.65 72.45 76.65 72.6 76.4 72.65 76.2 72.7 76.4 73.1 76.55 73.55 76.35 76.3 76.35 79.1 76.35 85.65 76.35 92.2 74.4 92.6 72.45 92.9 67.4 93.65 64.3 95.95 64.75 96.9 65.35 97.7 65.05 98.55 64.8 99.45 64.35 100.85 64.85 102.15 64.95 104.55 65.25 106.9 65.6 109.05 65.65 111.25 65.25 111.3 64.85 111.35 62.6 112 60.25 112.75 60.15 112.8 60 112.85 59.95 112.9 59.95 113 59.25 113.05 58.6 113.15 59.2 113.15 59.85 113.2 59.8 113.2 59.75 113.25 59.65 113.35 59.6 113.45 59.6 113.55 59.6 113.65 59.6 113.75 59.6 113.85 59.6 113.95 59.6 114.05 59.6 114.1 59.6 114.15 59.55 114.15 59.45 114.2 59.4 114.2 59.4 114.35 59.4 114.5 59.4 114.65 59.4 115.15 59.4 115.6 59.4 115.75 59.4 115.9 59.9 116.25 59.85 116.8 59.8 116.95 59.8 117.15 60.05 117.45 60.3 117.75 60.45 117.9 60.55 118.05 60.6 118.2 60.6 118.35 60.6 118.9 60.9 119.3 60.85 120.85 60.75 122.35 60.65 124.55 61.3 126.55 61.5 128.15 61.45 129.75 61.4 130.9 61.95 131.95 62 133.95 62.5 135.9 62.756640625 136.78828125 62.85 137.7 63.07109375 139.09765625 62.95 140.55 63 140.65 63.1 140.8 63.15 140.9 63.15 141.05 63.15 141.3 63.15 141.55 63 142.6 63.5 143.5 63.55 143.6 63.6 143.75 63.6 143.85 63.6 144 63.6 144.85 63.7 145.7 63.7 145.85 63.85 145.95 63.85 146.1 63.85 146.2 63.85 146.55 63.85 146.95 63.85 147.05 63.85 147.2 64 147.45 64.15 147.7 64.2 147.8 64.25 147.9 64.25 148.05 64.25 148.15 64.25 148.65 64.25 149.15 64.25 149.25 64.25 149.4 64.4 149.65 64.6 149.85 64.7 150 64.8 150.15 64.85 150.25 64.9 150.4 65.15 151.05 65.45 151.6 65.5 151.75 65.55 151.85 66.6 152.85 67.35 154.05 67.423046875 154.16328125 67.5 154.25 68.729296875 154.2796875 69.95 154.25 69.9052734375 154.1908203125 69.85 154.1 68.85 152.55 67.5 151.2 67.45 151.05 67.4 150.95 67.1 150.35 66.85 149.7 66.8 149.6 66.8 149.5 66.5 149.25 66.25 148.95 66.2 148.85 66.2 148.75 66.2 148.6 66.2 148.5 66.2 147.9 66.15 147.25 66.15 147.15 66.1 147 66.05 146.9 65.95 146.75 65.9 146.65 65.8 146.55 65.8 146.4 65.8 146.3 65.8 145.8 65.7 145.3 65.65 145.2 65.55 145.05 65.55 144.95 65.55 144.8 65.55 144.05 65.55 143.35 65.55 143.2 65.55 143.1 65.45 142.85 65.35 142.6 65.05 141.65 65.15 140.65 65.15 140.5 65.15 140.4 65.1 140.25 65.05 140.15 65 140 64.9 139.9 64.928125 138.7763671875 64.8 137.7 64.697265625 136.860546875 64.5 136.05 63.95 133.7 63.9 131.3 63.3 129.8 63.3 128.1 63.3 128 63.3 127.85 63.7 128.8 64.3 129.7 64.3 130.05 64.35 130.35 64.35 130.5 64.4 130.65 65.85 131.7 66.75 133.25 67.3 134.25 67.6 135.25 68.3923828125 136.5162109375 69.25 137.7 73.780078125 143.782421875 80.55 147.7 80.9462890625 147.9283203125 81.35 148.15 87.376171875 151.4427734375 93.6 154.05 95.0529296875 154.0548828125 96.5 154 93.6609375 152.9048828125 90.85 151.65 85.23515625 149.1521484375 80.55 145.7 75.8154296875 142.1900390625 72 137.7 70.7890625 136.227734375 69.65 134.65 69.65 134.5 69.6 134.35 69.6 134.2 69.55 134 68.45 133 67.8 131.6 67.35 130.6 66.45 130.05 66.4 129.7 66.4 129.4 66.35 129.25 66.35 129.1 65.25 127.2 64.65 125.1 64.05 123.15 63.1 121.45 63.1 121.1 63.1 120.8 63.1 120.05 63.1 119.3 63.1 119.1 63.1 118.95 63.05 118.8 63 118.65 62.95 118.45 62.85 118.3 62.85 118.15 62.85 118 62.75 117.9 62.7 117.75 62.65 117.65 62.6 117.55 62.6 117.3 62.6 117.05 62.6 116.2 62.6 115.3 62.6 115.2 62.6 115.05
L 62.6 114.95
Q 62.2 114.9 61.85 114.9 61.85 114.8 61.85 114.7 61.85 114.5 61.8 114.3 61.8 114.1 61.85 113.9 61.85 113.8 61.9 113.7 62.5 113.4 63.1 113.2 67.55 113.15 72.4 112.8 76.55 112.45 79.05 110.8 78 108.55 76.45 106.5 72.5 101.5 67.75 97.4 67.9 96.9 67.85 96.4
L 67.85 96.3
Q 67.35 96.2 66.85 96.2 66.8 96.1 66.7 96 66.55 95.9 66.45 95.75 73.9017578125 94.4900390625 80.55 92.35 83.1357421875 91.5521484375 85.6 90.6 85.6 90.45 85.6 90.3 85.6 89.85 85.6 89.4 85.55 89.2 85.5 89.05 83.65 86.2 82.4 83 81.446484375 80.447265625 80.55 77.85 79.9888671875 76.2666015625 79.45 74.65 79.2 74.35 78.95 74 78.85 73.85 78.75 73.7 78.7 73.4 78.6 73.1
L 78.6 73.05
Q 78.6 72.95 78.6 72.85 79.5765625 73.10703125 80.55 73.35 89.99375 75.6234375 99.15 75.85 99.15 75.55 99.15 75.25 99.15 71.1 99.1 66.95 99.05 61.25 99.85 55.9 100.6 56.4 101.35 56.9 103.5 58.4 105.7 59.8 106.2 60.45 106.85 60.95 110.05 63.1 113.25 65.1 115.05 64.95 116.85 64.8 118.1 62.55 119.65 60.5 123.65 55.2 128.5 50.65 128.95 50.6 129.35 50.65 129.4 50.65 129.45 50.75 129.5 50.95 129.55 51.05 130.1 52.25 130.95 53.25 131.2 53.55 131.4 53.85 131.45 54 131.45 54.15 131.5 54.3 131.5 54.45 132.45 55.55 132.9 56.9 133.15 57.55 133.45 58.15 134.15 58.7 134.7 59.45 134.75 59.55 134.75 59.7 135.75 60.45 136.35 61.55 136.4 61.7 136.4 61.85 136.75 61.95 137.1 62.05 137.2 62.1 137.25 62.15 137.3 62.25 137.35 62.35 137.5 62.5 137.65 62.65 138.85 62.7 140.1 62.7
L 140.1 62.65
Q 144.9904296875 59.8203125 149.9 57.5 152.9712890625 56.0814453125 156.05 54.85 156.55 55.2 156.5 55.8 156.5 55.95 156.5 56.1 156.6 56.25 156.7 56.4 156.8 56.55 156.9 56.7 156.9 57.15 156.9 57.65 156.9 57.8 156.9 57.95 157.05 58.25 157.1 58.55 157.25 59.5 157.55 60.4 157.6 60.55 157.7 60.7 157.7 61.15 157.7 61.65 157.7 62.4 157.7 63.15 157.7 63.3 157.7 63.45 157.9 63.95 158.05 64.4 158.1 64.55 158.1 64.7 158.2 64.85 158.3 65 158.6 65.95 159.05 66.85 159.15 67 159.25 67.15 168.85 65.35 178.2 63.45 178.8 63.75 178.65 64.4 178.6 64.55 178.6 64.7 179.3 67.5 179.15 70.55 179 73.45 179 76.35 186.05 76.65 193.15 76.9 194.15 77.45 195.3 77.65
L 195.3 77.7
Q 195.35 77.75 195.45 77.85 195.15 77.8 194.85 77.8 195.05 79.4 195.7 80.95 195.55 81.05 195.4 81.2 195.35 81.65 195.25 82.1 195.25 82.25 195.2 82.4 193.95 84.15 192.75 85.85 190.9 88.45 189.25 90.7 196.95 93.9 204.6 98.9 203.85 99.25 203.3 99.55 201.2 100.7 198.75 101.15 197.8 101.85 196.65 102.2 195.3 102.65 194.35 103.7 193.95 103.8 193.55 103.9 192.85 104.45 192.25 105.1 192.15 105.2 192.1 105.35 191.6 105.45 191.1 105.6 191.05 105.6 191 105.65 190.9 105.75 190.8 105.85 190.15 106.4 189.7 107.15 189.65 107.25 189.65 107.4 199.9 108.75 210.15 110.35 210.15 110.5 210.15 110.7 210.15 112.35 210.15 114.05 210.15 115 210.15 115.9 208.95 118.9 208.25 122 207.25 126.2 205.45 130.05 205.3 131.85 204.35 133.4 203.7 134.55 203.5 135.85 202.78984375 136.7470703125 202.2 137.7 202.0267578125 138.021875 201.85 138.35 201.6 138.8 201.35 139.25 200 140.3 199 141.7 198 143.2 196.8 144.45 195.85 144.85 195.3 145.7 195.2 145.85 195.1 146 190.70703125 149.5625 185.9 152.4 187.2673828125 152.3783203125 188.6 152.3 193.06875 149.6982421875 197.25 146.5 197.65 145.7 198.45 145.3 198.75 145.15 199.1 145 200.3 143.25 201.7 141.65 203.4271484375 139.8076171875 204.75 137.7 205.1783203125 137.0623046875 205.55 136.4 205.6 136.25 205.6 136.05 205.9 134.75 206.55 133.55 206.9 132.95 207.25 132.4 207.25 132.25 207.25 132.1 207.2 131.6 207.35 131.15 207.35 131 207.35 130.85 209.05 128 209.85 124.75 210.3 122.85 210.85 120.95 211.25 123.55 211.1 126.2 210.65 131.6 210.65 137 210.55 137.15 210.5 137.3 210.4 137.4 210.4 137.5 210.4 137.6146484375 210.4 137.7
L 210.4 137.75
Q 210.4 138.4 210.35 139 210.35 139.1 210.3 139.25 210.2 139.35 210.15 139.5 210.05 139.6 209.95 139.75 209.95 141.1 209.7 142.45 209.55 143.35 209 144.15 209 144.4 209 144.65 209 144.75 209 144.9 208.75 145.15 208.5 145.4 208.4 145.5 208.35 145.65 208.35 146 208.35 146.35 208.35 146.5 208.35 146.6 207.85 147.4 207.3 148.1 207.2 148.2 207.1 148.35 207.05 148.45 207.05 148.6 207 148.7 207 148.8 206.2 149.8 205.65 151 205.4974609375 151.3390625 205.3 151.65 206.5494140625 151.59453125 207.75 151.5 207.837890625 151.419140625 207.9 151.3 208.35 150.4 208.9 149.55 208.95 149.45 208.95 149.3 209 149.2 209 149.05 210 148.1 210.25 146.85 210.3 146.6 210.3 146.35 210.6 146 210.85 145.6 210.9 145.5 210.95 145.4 210.95 145.15 210.95 144.9 210.95 144.75 210.95 144.65 211.4 144.2 211.6 143.65 211.65 143.55 211.7 143.4 211.7 143.3 211.7 143.15 211.7 142.8 211.7 142.45 211.7 142.3 211.7 142.2 211.8 142.05 211.85 141.95 211.9 141.8 211.95 141.7 211.95 141.55 211.95 141.45 211.95 141.1 211.95 140.7 211.95 140.6 211.95 140.45 212.1 140.2 212.25 139.95 212.3 139.85 212.35 139.75 212.35 139.6 212.35 139.5 212.35 138.85 212.35 138.25 212.35 138.15 212.35 138 212.45 137.9 212.5 137.75 212.51171875 137.7263671875 212.5 137.7 212.56171875 137.6146484375 212.6 137.5 212.6 135.9 212.6 134.3 212.6 132.95 212.6 131.6 213.3 128.4 213.1 125 212.75 118.7 212.35 112.45 212.35 112.35 212.35 112.3 212.25 112.3 212.2 112.3 212.2 111 212.2 109.65 209.35 109.25 206.55 108.85 206.55 106.95 206.55 105.05 206.55 102.4 206.55 99.8 206.9 99.45 207.25 99.1 204.7 96 200.75 94.3 199.85 93.9 198.95 93.55 198.95 92.1 199 90.65 199.05 89.5 198.65 88.5 198.65 86.8 198.75 85.15 198.8 84 198.4 82.95 198.5 81.9 198.2 80.95 198.4 80.6 198.55 80.25 198.6 80.1 198.65 79.95 198.65 79.65 198.65 79.35 198.65 78.75 198.65 78.1 198.6 77.95 198.55 77.8 198.2 77.7 197.85 77.6 197.85 77.55 197.8 77.55 197.7 77.4 197.55 77.25 197.45 77.15 197.35 77 196.4 76.7 195.5 76.35 195.25 76.25 195 76.15 188 75.9 181.05 75.65 181.05 72.9 181.05 70.15 181.05 67.5 181.05 64.9 181 64.75 180.9 64.65 180.6 64.2 180.65 63.65 180.65 63.5 180.65 63.35 180.65 63.2 180.55 63.15
M 196.65 83.85
Q 196.7 83.95 196.7 84.1 196.7 85.65 196.7 87.25 196.7 88.1 196.7 89 197.15 90.6 197 92.35 197 92.5 197 92.7 194.05 91.45 191.7 90.4 191.75 90.25 191.85 90.15 192.1 89.95 192.4 89.8 193.65 88.35 194.65 86.75 195.6 85.25 196.65 83.85
M 204.55 100.95
Q 204.55 102.2 204.55 103.4 204.55 106 204.55 108.55 198.45 107.65 192.65 106.7 193.4 106.45 194.1 106.1 194.15 106.05 194.15 105.95 194.35 105.3 195.05 105 195.25 104.9 195.4 104.75 195.8 104.65 196.2 104.5 196.3 104.5 196.4 104.45 196.85 103.95 197.3 103.55 197.45 103.45 197.55 103.3 198.65 102.8 199.8 102.45 199.9 102.45 200 102.4 200.15 102.3 200.3 102.15 200.45 102 200.6 101.85 201.4 101.7 202.15 101.6 203.45 101.4 204.55 100.95
M 79 79.75
Q 79.7375 81.74140625 80.55 83.65 81.9404296875 87.0123046875 83.55 90.2 82.05859375 90.6970703125 80.55 91.15 79.479296875 91.459375 78.4 91.75 78.25 88.85 78.25 85.9 78.2 81.95 78.35 78 78.7 78.85 79 79.75
M 72.5 105.15
Q 73.3 106.65 74.55 107.8 76.3 109.35 76.4 110.9 73.8 111.25 71.25 111.55 71.1 111.5 71 111.5 69.35 111.15 67.7 111.15 67.55 109.5 67.4 107.8 67.05 104.65 66.8 101.5 66.6 101.15 66.6 100.7 66.6 100.65 66.55 100.55 66.7 99.95 66.95 99.4 69.9 102.1 72.5 105.15 Z" stroke="none" fill="#000000"></path>
</g>
</g>
</g>
</g>
</svg>
