
<svg viewBox="0 0 112 184" height="184px" width="112px" y="0px" x="0px" preserveAspectRatio="none" xmlns:xlink="http://www.w3.org/1999/xlink" version="1.1" xmlns="http://www.w3.org/2000/svg">
<defs></defs>

<g id="fun_scrollers">
<g transform="matrix( 0.3621063232421875, 0, 0, 0.3621063232421875, -594.2,0.1)" id="svg">
<g transform="matrix( 1, 0, 0, 1, 1674.2,18.05)" id="Layer_14">
<g>
<g>
<g>
<path d="M 171.7 143.05
Q 170.6 131 166.95 121.05 161.35 106.7 150.5 99.8 144.05 95.9 138.65 94.65 133.1 93.3 125.7 93.85
L 79.5 97.9
Q 68.8 98.9 63.5 99.25
L 54.65 99.95
Q 50.3 100.25 48.55 100.6 45.55 101.15 42.85 102.6
L 40.45 104.3
Q 32.8 109.35 29.35 112.05 23.45 116.65 19.85 121.65 16.95 127.1 15.85 132.3 14.75 137.4 15.2 143.55
L 18.4 179.05
Q 19.95 196.85 20.65 208.65 22.3 234.9 26.3 287.35
L 27.7 305.05
Q 32.1 363.3 34.6 392.35
L 36.4 412.6
Q 36.75 417.2 37.55 422.4 40.25 430.3 46.4 435.1 53.25 437.5 58.95 437.5 64.65 437.5 92 435.05
L 160.15 428.9
Q 166.3 428 168.65 427.4 173.4 426.1 176.1 423.55
L 183.5 412.95
Q 185.6 409.2 186.15 404.8 186.55 401.45 186.1 396.15
L 183.2 363.8
Q 180.2 329.7 178.65 308.05 176.4 277.5 175.5 252.15
L 175.45 249.75
Q 174.85 235.05 174.75 228.05
L 174.55 218.7
Q 174.9 212.15 174.9 210.05
L 173.8 181.05
Q 172.9 157.55 171.9 145.85
L 171.7 143.05 Z" stroke="none" fill="#F63329"></path>
</g>
</g>
</g>
</g>

<g transform="matrix( 1, 0, 0, 1, 1674.2,18.05)" id="Layer_13">
<g>
<g>
<g>
<path d="M 128 16.6
Q 126.15 14.8 123.1 12.95
L 119.85 11.3
Q 112.8 7.8 106.1 6.35 99.4 5 91.5 5.5
L 87.75 5.8
Q 62.65 7.55 40.2 11.85
L 36.75 12.5
Q 29.3 14 24.95 15.2 18.4 16.9 13.45 19.1 12.75 20.85 12.75 21.95 12.65 23.1 13.15 28
L 13.35 30.7
Q 13.5 32.65 13.8 36.6 14.2 40 15.5 42.15 18.5 43.3 19.4 43.55 20.25 43.7 22.35 43.8
L 45.5 42.3
Q 44.6 45.9 44.35 50 44.15 53 44.3 57.7 44.55 66.2 44.45 69.15 44.25 75.55 43.05 80.5 41.6 86.25 41.7 92.75 41.85 93.95 41.8 95.05 41.85 96 41.85 96.85
L 42.5 103.95
Q 42.95 103.75 43.35 103.55 46.8 102.05 50.3 101.35
L 60.55 100.7
Q 65.5 100.4 75.35 99.55 84.45 98.75 93.55 98.1
L 130.4 95
Q 133.05 94.75 133.85 94.7 134.7 94.7 137.15 94.8 137.85 95.05 138.5 95.3
L 144.7 94.7 144.3 90.25
Q 143.9 89.85 143.45 89.4
L 142.4 85.1
Q 141.65 79.85 140.2 75.45 135.6 60.55 134 40.45
L 133.4 31.8
Q 133 25.6 131.55 21.6 130 18.75 128 16.6 Z" stroke="none" fill="#F63329"></path>
</g>
</g>
</g>
</g>

<g transform="matrix( 1, 0, 0, 1, 1674.2,18.05)" id="Layer_12">
<g>
<g>
<g>
<path d="M 170.45 140.6
L 170.7 143.15
Q 171.8 155.35 172.65 177.3
L 173.85 207.25
Q 174 211.9 173.8 215.75 173.55 218.75 173.5 221.6
L 174.45 249.75
Q 175.4 275.75 177.55 306.9 179.2 329.6 182.2 363.9
L 184.8 393.55
Q 185.55 402.1 185.5 406.35 184.1 410.35 183.4 411.55 182.75 412.8 179.95 416.15
L 175.6 421.4 174.05 425.35
Q 169.25 426.65 160.05 427.75
L 94.8 433.7
Q 80.6 435.25 73.4 435.75 60.9 436.75 51.95 435.65 48.8 435 47.1 433.9 45.35 433 43.15 430.55 40.45 426.4 39.15 423.15 37.8 419.45 37.35 414.95
L 34.2 376.7
Q 33.65 368.6 33.25 364.55
L 27.65 291.7
Q 23.3 234.85 21.9 213.05 20.85 195.55 19.8 182.95
L 16.8 146.5
Q 16.3 140.4 16.2 137.9 16.15 133.25 17.1 129.45
L 18.4 126.55
Q 25.75 116.25 28.8 113.35 31.9 110.5 42.95 103.75
L 46.1 101.8
Q 44.8 101.55 43.1 101.15
L 42.6 99
Q 42.6 98.9 42.25 91.55
L 41.25 91.6 41.65 96.4 39.8 96.6
Q 31.1 101.45 26.1 105.15 18.9 110.4 14.65 116.45 11.2 122.45 10.05 129.95 9.1 136.1 9.7 144.3
L 13.65 193.05
Q 14.65 204.4 16.4 226.8
L 17.9 245
Q 19.2 261.55 19.4 264.4 20.25 275.4 20.55 283.8 20.85 293.6 22.15 306.35 24.4 330.15 25.6 348.45 27.6 378.15 29.15 396.45
L 30.9 415.75
Q 31.65 424.55 33.25 429.45 36.35 436 42.85 440.55 46.6 442.05 50.95 442.6 54.4 443.05 59.25 442.95
L 125.4 438.3
Q 142.1 437.1 148.75 436.4 161.8 434.95 171.75 432.35 177.85 430.2 181.95 426.65 185.55 423.6 189.6 417.85 192.9 410.85 193.05 405.75 193.2 400.5 190.85 376.55
L 189 357.95
Q 185.75 323.45 184 298.95 181.7 267 181.1 239.85 180.7 219.4 179.65 191.85
L 178.75 166.5
Q 178 146.5 176.5 136.6 173.9 120.25 167.4 108.15 163.6 102.2 160.3 98.7 155.85 94.1 150.8 91.9 145.95 90 143.35 88.1 142.5 86.35 142.3 85.7 142.1 85.1 141.85 83.1
L 141.5 78.6 140.5 78.7
Q 141.75 83.3 142 85.4 142.4 88.95 141.75 92.15 137.5 93.7 135.55 94.15
L 135.6 94.6
Q 137.95 94.75 140.45 95.6
L 143.15 96.85
Q 152.2 101.05 158 107.3 163.65 114.3 166.75 123 169.45 130.7 170.45 140.6 Z" stroke="none" fill="#F63329"></path>
</g>
</g>
</g>
</g>

<g transform="matrix( 1, 0, 0, 1, 1674.2,18.05)" id="Layer_11">
<g>
<g>
<g>
<path d="M 41.85 122.35
Q 41.35 122.4 40.9 122.45 40.5 122.5 40.15 122.5 39.8 122.55 39.55 122.55 39.3 122.6 39.1 122.6 38.9 122.65 38.75 122.65 37.9 122.8 37.15 123.05 36.35 123.3 35.55 123.65 34.8 124 34.15 124.4 33.4 124.85 32.75 125.3 32.5 126.7 32.35 128.05 32.1 130.85 31.95 133.65 31.85 134.95 31.95 136.35 32 137.85 32.15 139.25 32.3 140.6 32.5 142.05 32.75 143.5 33.1 145 33.35 146.35 33.8 147.75 33.95 148.2 34.1 148.5 34.25 148.75 34.4 149.1 34.55 149.25 34.65 149.45 34.7 149.5 34.75 149.5 34.85 149.6 35 149.65 35.2 149.75 35.35 149.85 35.55 149.95 35.8 150.1 36.1 150.2 36.45 150.25 37.15 150.55 38 150.7
L 72.6 147.55
Q 77.9 146.9 83.35 146.35 85.95 146.05 88.6 145.9 91.2 145.65 93.75 145.4 96.6 145.15 99.6 145.2 101.3 145.05 102.95 144.95 103.7 144.85 104.45 144.85 105.1 144.8 105.75 144.75 106.85 144.6 107.95 144.5 109.55 144.35 111.1 144.2 112.55 144 114 143.85 115.35 143.65 116.7 143.55 117.95 143.35 119.2 143.2 120.35 143.1 121.5 143 122.5 142.85 123.55 142.7 124.55 142.6 125.5 142.55 126.3 142.35 127.1 142.25 132.4 141.55 137.65 140.85 138.9 140.7 140.2 140.6 141.4 140.45 142.65 140.3 143.8 140.2 144.95 140.1 146 140 147.1 140 147.55 139.95 148.1 140
L 148.4 143.75
Q 147.85 143.85 147.45 144 147 144.05 146.6 144.15 146.25 144.2 145.9 144.35 145.6 144.45 145.4 144.65 145.1 144.7 144.95 144.9
L 145.3 149 154.6 148.15 151.8 117.35
Q 150.8 116.5 149.65 115.8 148.95 115.45 148.3 115.25 147.45 115.1 146.65 115 145.8 114.85 145 114.8 144.05 114.7 143.15 114.6 142.25 114.55 141.4 114.55 140.35 114.55 139.4 114.55 138.35 114.55 137.35 114.6 136.25 114.65 135.2 114.65
L 45.5 122.05
Q 44.8 122.1 44.15 122.15 43.5 122.2 42.9 122.25 42.35 122.3 41.85 122.35 Z" stroke="none" fill="#F63329"></path>
</g>
</g>
</g>
</g>

<g transform="matrix( 1, 0, 0, 1, 1674.2,18.05)" id="Layer_10">
<g>
<g>
<g>
<path d="M 127.55 41
Q 127.15 39.4 126.25 37.8 122.5 36.35 118.15 36.4
L 60.55 41.55
Q 57.9 41.75 57.1 41.9 56.3 42 54.25 42.45
L 51.6 45.55
Q 50.35 53.5 50.65 66.4 50.9 76.7 49.7 83.15 48.95 86.6 48.8 88.35 48.65 90.05 48.55 97.05
L 125.8 90.3
Q 130.5 89.85 133.8 89.3
L 135.6 87.2
Q 135.5 83.35 134.1 77.85 130.45 64.65 128.75 50.6
L 128.05 44.4
Q 127.75 41.8 127.55 41 Z" stroke="none" fill="#F63329"></path>
</g>
</g>
</g>
</g>

<g transform="matrix( 1, 0, 0, 1, 1674.2,18.05)" id="Layer_9">
<g>
<g>
<g>
<path d="M 150.95 217.35
L 141.95 218.35
Q 132.85 219.25 126 220.35 114.6 222.35 98.9 223.75
L 90.35 224.6
Q 89.05 224.7 67 226.4 49.85 227.7 49.7 228.15 48.5 239.85 52.55 247.05 56.5 248.85 58.5 248.95 60.45 249 68.5 247.85 70.35 247.5 74.15 247.05 82.45 246.15 89.05 245.25 94.1 244.5 104.45 243.3 119 241.65 121.9 241.25
L 129.8 240.2
Q 133.75 239.65 137.75 239.3
L 138.9 241.15
Q 150.05 241.65 158.1 239.4
L 159.15 236.95
Q 158.9 234.65 158.8 233.9 158.65 233.15 158 230.9
L 157.05 227.95
Q 155.6 221.45 153.2 217.65
L 150.95 217.35 Z" stroke="none" fill="#F63329"></path>
</g>
</g>
</g>
</g>

<g transform="matrix( 1, 0, 0, 1, 1674.2,18.05)" id="Layer_8">
<g>
<g>
<g>
<path d="M 72.55 384.6
Q 66.05 384.8 64.25 385.05 59.85 385.65 56.65 387.7 55.45 390.8 55.2 391.95 55 393.05 54.75 396.6 55.5 400.1 55.9 401.15 56.3 402.2 58.2 404.95 62.05 406.45 64.8 406.45 67.5 406.45 80 404.85
L 87.75 404
Q 98 403.05 108.2 401.85 119.9 400.4 129.35 399.5 150.25 397.3 160.8 396.15
L 164.25 395.75
Q 169.05 395.25 175.1 394.35
L 175.95 393.3
Q 176.45 388.65 176.25 385.55 176 381.55 174.6 377.95 171.15 376.8 169.35 376.75 167.6 376.75 160.45 377.75
L 144.55 379.6
Q 135.05 380.75 120.2 381.5 112.2 381.9 104.4 382.45 97.85 383 91.15 383.4 82.05 383.8 77.55 384.2
L 72.55 384.6 Z" stroke="none" fill="#F63329"></path>
</g>
</g>
</g>
</g>

<g transform="matrix( 1, 0, 0, 1, 1674.2,18.05)" id="Layer_7">
<g>
<g>
<g>
<path d="M 33.85 159
L 37.75 160.25 42.75 161.1
Q 49.65 163.55 53.7 164.55 59.8 166.1 65 166.1 72.6 165.8 81.05 167.85 89.9 170.15 94.4 169.6 98.85 169.05 116.75 163.3
L 130.1 159.05
Q 139.45 156.1 147.8 154.95 150.2 154.75 150.9 154.65 151.55 154.45 153.25 153.9
L 152.8 149.15 154.7 149 154.35 143.25 148.4 143.75
Q 145.7 144.15 144.9 144.25 144.15 144.3 142.05 144.4
L 133.35 144.55
Q 125.65 144.8 118.95 145.35
L 116.2 145.55
Q 102.5 146.65 88.75 147.9
L 41.5 151.9
Q 37.2 152.1 33.35 153.25 32.95 155.45 33.05 156.15 33.1 156.85 33.85 159 Z" stroke="none" fill="#F63329"></path>
</g>
</g>
</g>
</g>

<g transform="matrix( 1, 0, 0, 1, 1674.2,18.05)" id="Layer_6">
<g>
<g>
<g>
<path d="M 125.55 30.25
Q 125.3 29.4 125.1 28.7 123.8 23.8 116.6 18.75 109.6 14.65 109.55 14.3 62.7 6.85 18.75 24.5 17.55 31.05 20.85 36.85
L 53.5 34.85 54.7 37.65 125.55 30.25 Z" stroke="none" fill="#F63329"></path>
</g>
</g>
</g>
</g>

<g transform="matrix( 1, 0, 0, 1, 1674.2,18.05)" id="Layer_5">
<g>
<g>
<g>
<path d="M 120.75 164.6
Q 115.2 166.5 111.1 170.9
L 109.55 173.3
Q 107.6 176.15 106.95 178.15 106.15 180.25 106.15 183.6
L 106.65 188.1
Q 106.95 191.5 107.1 192.55 107.25 193.6 107.8 196.65 109 198.85 109.7 199.75 110.45 200.6 113.85 203.6 116.5 205 118.95 205.35 121 205.65 124.4 205.35
L 127 205
Q 135.5 204.1 138.65 203.45 145.25 202.15 149.6 199.6
L 150.3 195.65
Q 152.15 192.55 152.6 190.15 152.95 188.2 152.65 184.15
L 152.4 181.3
Q 152 174.95 150.85 170.5 149.6 167.65 148.25 165.95 146.65 163.95 144.3 162.35 140.5 161.6 135.35 162.05
L 132.1 162.45
Q 124.35 163.35 120.75 164.6 Z" stroke="none" fill="#F63329"></path>
</g>
</g>
</g>
</g>

<g transform="matrix( 1, 0, 0, 1, 1674.2,18.05)" id="Layer_4">
<g>
<g>
<g>
<path d="M 120.75 164.6
Q 115.2 166.5 111.1 170.9
L 109.55 173.3
Q 107.6 176.15 106.95 178.15 106.15 180.25 106.15 183.6
L 106.65 188.1
Q 106.95 191.5 107.1 192.55 107.25 193.6 107.8 196.65 109 198.85 109.7 199.75 110.45 200.6 113.85 203.6 116.5 205 118.95 205.35 121 205.65 124.4 205.35
L 127 205
Q 135.5 204.1 138.65 203.45 145.25 202.15 149.6 199.6
L 150.3 195.65
Q 152.15 192.55 152.6 190.15 152.95 188.2 152.65 184.15
L 152.4 181.3
Q 152 174.95 150.85 170.5 149.6 167.65 148.25 165.95 146.65 163.95 144.3 162.35 140.5 161.6 135.35 162.05
L 132.1 162.45
Q 124.35 163.35 120.75 164.6
M 114.4 179.2
Q 115.4 177.75 119.15 173.9 121.6 171.8 123.75 170.85 126 169.85 129.25 169.4
L 133.1 169.1
Q 136.55 168.75 140.05 168.55 141.15 169.5 141.65 170.05 142.15 170.6 143.9 173.05 146.1 176.2 146.85 179.35 147.45 181.9 147.45 186.25
L 146.6 187.3
Q 145.75 189.9 145.35 190.85 144.95 191.7 143.35 194.35 138.7 197.3 132.9 198.45 127.95 199.45 121.6 199.2 118.3 198.4 117.45 197.9 116.55 197.35 114.45 195 112.1 190.7 111.65 185.65 113.45 180.7 114.4 179.2 Z" stroke="none" fill="#F63329"></path>
</g>
</g>
</g>
</g>

<g transform="matrix( 1, 0, 0, 1, 1674.2,18.05)" id="Layer_3">
<g>
<g>
<g>
<path d="M 34.75 136.6
L 35.5 123.95 33.6 124.15 32.75 125.15 33.15 131.05
Q 33.5 134.85 33.8 136.65
L 34.75 136.6 Z" stroke="none" fill="#F63329"></path>
</g>
</g>
</g>
</g>

<g transform="matrix( 1, 0, 0, 1, 1674.2,18.05)" id="Layer_2">
<g>
<g>
<g>
<path d="M 64.15 442
Q 64.3 440.1 64.2 436.3
L 57 436.2
Q 56.25 441.1 54.85 444.85 54.55 445.6 52.75 449.45 51.45 452.25 50.9 454.15 50.2 456.75 50.15 460.7 50.15 462.9 50.15 467.35
L 57.65 467.5
Q 61.6 467.6 63.55 467.85
L 66.7 468.4
Q 71.45 469.25 76.6 468.95
L 76.6 462.15
Q 72.65 460.9 67.5 460.65 64.4 460.45 58.2 460.6 58.75 458 59.8 455.95
L 61.25 453.15
Q 61.7 452.15 62.25 450.3 62.95 448 63.45 445.75 63.95 443.65 64.15 442
M 167.5 465.95
Q 169.95 465.95 171.1 465.8 172.55 465.6 173.05 464.85 173.45 464.3 173.45 463.05
L 173.4 457.4
Q 172.2 457.05 170.2 456.75 167.7 456.4 166.95 456.25 164.3 455.5 162.95 455.15 158.75 454.05 153.35 453.85 150.25 453.7 143.55 453.85 146.15 449.35 149.2 444.9 151.2 442.1 151.65 440.5 152.15 438.9 152.05 436.1 151.9 432.65 152 431.55
L 145.15 431.45
Q 144.9 433.4 143.8 435.55 143.1 436.9 141.5 439.35
L 138.35 444.1
Q 135.45 448.5 134.65 449.9 133.45 451.95 133.2 453.2 133.05 454.05 133.05 455.85
L 133.05 465.95 167.5 465.95
M 184.55 235.65
L 177.65 235.6
Q 177.35 254.4 180.35 272.85 180.65 274.65 181.35 275.3 182.05 276 183.95 276.2 192.05 277.1 195.95 278.05 199.4 278.9 203.7 280.6 205.4 281.25 211.3 283.75
L 221.05 288.05
Q 224.6 289.6 226.3 290.95 229 293.2 229.15 296.05 229.2 298.8 226.8 301.4 225.95 302.3 224.55 303.35 223.75 303.95 222.1 305.1 220.05 306.55 217.25 309.05
L 212.5 313.2
Q 205.85 318.7 196.25 323.75 190.6 326.75 178.65 332.1
L 178.65 338.85
Q 182.8 339.55 187.8 338.05 191.3 337 196.5 334.3 204.25 330.35 208.8 327.45 213.7 324.45 219.4 320.05 222.6 317.55 229.5 311.9 232.05 309.85 233.35 308.45 235.25 306.4 236.1 304.25 236.75 302.7 236.9 300.6 237 299.45 237 296.75 236.95 292.5 236.45 290.1 235.7 286.5 233.6 284.45 232.1 283.05 228.9 281.6 217.3 276.1 211 273.8 200.8 270.05 192.15 269.3 190.6 269.15 189.9 268.95 188.7 268.6 188.1 267.85 187.45 267.1 187.15 265.25 184.85 250.2 184.55 235.65
M 28.55 357.7
Q 24.8 356.95 20.35 358.25 17.05 359.2 12.6 361.55 3 366.6 -2.6 371.85 -5.05 374.1 -5.55 375.95 -5.85 377 -5.85 378.5 -5.8 379.4 -5.7 381.15 -5.65 382.75 -5.85 385.95 -5.8 388.75 -4.75 390.35 -3.4 392.35 0.75 393.8 9.1 396.75 17.25 398.7 16.95 404.25 17.1 409.75 17.2 412.5 17.55 414.15 18.05 416.5 19.35 418 21 419.9 24.05 420.65 26.15 421.15 29.75 421.2 32.4 421.3 33.95 421.15 36.2 420.9 37.9 420.05 40 418.9 41.8 416.5 43.8 413.9 44.5 411.5 44.95 410 45.1 407.95 45.15 406.95 45.15 404.35
L 45.05 398.1
Q 45.05 396.55 44.65 395.85 44 394.65 41.75 394.15 40.1 393.75 37.9 393.5 35.3 393.3 34 393.15 20.25 391.8 7.4 386.65 4 385.35 2.55 383.7 1.75 382.8 1.8 382 1.85 381.45 2.6 380.6 6.35 376.55 11.75 373 16 370.2 22.2 367.2 25.1 365.8 26.65 365.4 28.05 364.95 28.4 364.4 28.6 364.05 28.6 363.15
L 28.55 357.7
M 74.6 325.6
Q 73.95 325.7 73.7 325.95 73.4 326.25 73.4 327.1
L 73.35 332.6
Q 73.25 334.25 73.75 335.05 74.15 335.75 75.35 336.6 80.65 340.45 83.85 341.95 88.95 344.35 95.95 345.15 100.35 345.65 108.6 345.65
L 112.55 345.65
Q 114.35 345.75 115.75 345.6 117.35 345.4 119.1 345
L 130 342.8
Q 132.3 342.4 133.45 341.6 134.6 340.85 134.9 339.75 135.1 339.2 135.1 338
L 135.15 333.05
Q 134.25 333.25 131.2 332.95 128.7 332.7 127.5 333.6
L 126.45 334.6
Q 125.8 335.1 123.65 335.65
L 111.95 338.05
Q 109.45 338.55 108.25 338.6 107.3 338.65 104.35 338.3 98 337.5 94.5 336.45 89.2 334.9 85.85 332 90.5 331.4 99.9 331.2
L 137.75 330.6 137.75 323.8 100.1 324
Q 91.55 324.05 87.3 324.25 80.2 324.6 74.6 325.6
M 59.45 240.35
Q 55.15 240.9 52.45 242.05 50.6 242.95 49.6 243.3 49.15 243.5 46.3 244.25 43.95 244.9 42 245.8 37.65 247.9 36.85 250.75 36.6 251.65 36.6 253.6
L 36.65 257.55
Q 36.65 258.25 36.8 258.55 37.05 259.2 37.95 259.55 39.55 260.3 41.7 260.6 43.1 260.75 45.65 260.75
L 57.75 260.7
Q 58.95 260.7 59.45 260.4 60.35 259.95 60.85 258.3 61.95 255.3 62.4 253.3 62.95 250.45 62.55 248.15 70 246.65 77.5 246.7
L 77.5 239.85
Q 65.45 239.65 59.45 240.35
M 138.15 232.75
Q 129.7 232.45 125.5 232.75 124.1 232.85 123.5 233.3 123.05 233.6 122.9 234.15 122.7 234.7 123 235.1
L 122.15 235.3
Q 121.85 238.45 121.85 244.75 121.85 246.45 122.3 247.15 123.2 248.55 126.35 248.55
L 145.95 248.65
Q 148.55 248.65 149.2 247.5 149.45 247.05 149.55 245.95
L 149.7 242.65
Q 156.6 242.4 162.2 242.4
L 162.2 235.55
Q 161.15 235.55 159.7 235.1 158.1 234.6 157.25 234.35 155.2 233.8 151.65 233.8 147.3 233.75 146 233.6 143.4 233.15 142.15 233 140.45 232.75 138.15 232.75 Z" stroke="none" fill="#F63329"></path>
</g>
</g>
</g>
</g>
</g>

<g transform="matrix( 0.3621063232421875, 0, 0, 0.3621063232421875, -594.2,0.1)" id="Layer_2"></g>

<g transform="matrix( 0.3621063232421875, 0, 0, 0.3621063232421875, -594.2,0.1)" id="Layer_3"></g>

<g transform="matrix( 0.3621063232421875, 0, 0, 0.3621063232421875, -594.2,0.1)" id="Layer_2"></g>

<g transform="matrix( 0.3621063232421875, 0, 0, 0.3621063232421875, -594.2,0.1)" id="Layer_3"></g>

<g transform="matrix( 0.3621063232421875, 0, 0, 0.3621063232421875, -594.2,0.1)" id="MergedLayer_3"></g>

<g transform="matrix( 0.3621063232421875, 0, 0, 0.3621063232421875, -594.2,0.1)" id="Layer_4"></g>

<g transform="matrix( 0.3621063232421875, 0, 0, 0.3621063232421875, -594.2,0.1)" id="Layer_1"></g>

<g transform="matrix( 0.3621063232421875, 0, 0, 0.3621063232421875, -594.2,0.1)" id="Layer_2"></g>

<g transform="matrix( 0.3621063232421875, 0, 0, 0.3621063232421875, -594.2,0.1)" id="Layer_5"></g>

<g transform="matrix( 0.3621063232421875, 0, 0, 0.3621063232421875, -594.2,0.1)" id="Layer_6"></g>

<g transform="matrix( 0.3621063232421875, 0, 0, 0.3621063232421875, -594.2,0.1)" id="MergedLayer_1"></g>

<g transform="matrix( 0.3621063232421875, 0, 0, 0.3621063232421875, -594.2,0.1)" id="Layer_2"></g>
</g>
</svg>
