
<svg viewBox="0 0 80 70" height="70px" width="80px" y="0px" x="0px" preserveAspectRatio="none" xmlns:xlink="http://www.w3.org/1999/xlink" version="1.1" xmlns="http://www.w3.org/2000/svg">
<defs></defs>

<g id="Layer_2">
<g transform="matrix( 0.2443389892578125, 0, 0, 0.2443389892578125, -5.6,-13.9)" id="Layer_1">
<g>
<g>
<g>
<path d="M 252.85 338.45
Q 253 338.5 253 339 253.5 339 253.5 338.95 254.55 329.95 250 326 249.1 337.4 252.85 338.45 Z" stroke="none" fill="#09232E"></path>

<path d="M 252 340
Q 251.5 340 251 340.05 245.1 340.45 241 339 244.25 342.25 251.9 340.5 252 340.5 252 340 Z" stroke="none" fill="#0D2D36"></path>

<path d="M 241 339
Q 241 338.5 241.25 338.3 244.55 335.65 239 334 238.65 337.35 240.2 338.75 240.5 339 241 339 Z" stroke="none" fill="#041B26"></path>

<path d="M 234 293
Q 233.5 293 233 293 233 307.5 233.5 322
L 234 322
Q 234 321.5 234 321 234 307 234 293 Z" stroke="none" fill="#2F4B53"></path>

<path d="M 226 293
Q 229 293 232 293 232.5 293 233 293 233 292.5 232.75 292.25 230.75 290.25 226 291 226 291.5 226 292 226 292.5 226 293 Z" stroke="none" fill="#866A4C"></path>

<path d="M 242 281
Q 242 280.5 242 280 241.5 280 241 280 236.5 280 232 280 232 280.5 232 281 236.5 281 241 281 241.5 281 242 281 Z" stroke="none" fill="#D0A129"></path>

<path d="M 214 281
Q 208.5 281 203 281 203 281.5 203 282 209 282 214.95 281.5 215 281.5 215 281 214.5 281 214 281 Z" stroke="none" fill="#BF8F16"></path>

<path d="M 194 294
Q 194 294.5 194 295 210 294.5 225.95 293.5 226 293.5 226 293 225.5 293 225 293 210.5 293 196 293 196 293.5 195.8 293.6 195 294 194 294 Z" stroke="none" fill="#697165"></path>

<path d="M 194 281
Q 194 281.5 194 282 198 282 202 282 202.5 282 203 282 203 281.5 203 281 202.5 281 202 281 198 281 194 281 Z" stroke="none" fill="#D4A732"></path>

<path d="M 175 282
Q 170.5 282 166 282 166 282.5 166 283 171 283 175.95 282.5 176 282.5 176 282 175.5 282 175 282 Z" stroke="none" fill="#B78C0F"></path>

<path d="M 178 241
Q 177.5 241 177 241 173.5 241 170 241 173.1 244.9 177.75 241.65 178 241.5 178 241 Z" stroke="none" fill="#ECD06B"></path>

<path d="M 168 238
Q 168 238.5 168 239 167.4 241.15 169 241.05 169.5 241 170 241 173.5 241 177 241 177.5 241 178 241 183.8 239.3 191 239 191.5 239 192 239 192 238.5 192 238 191.5 238 191 238.1 178.7 240.3 168 238 Z" stroke="none" fill="#D0B86E"></path>

<path d="M 164 230
Q 164 230.5 163.8 230.9 163.5 231.5 163 232 163.4 237.1 167.1 238.8 167.5 239 168 239 168 238.5 168 238 168 237.5 167.75 237.2 165.4 234.1 164 230 Z" stroke="none" fill="#D7BC66"></path>

<path d="M 162.75 220.25
Q 162.5 220 162 220 161.25 225.75 163.35 228.75 163.5 229 164 229 164 228.5 163.8 228.15 162.25 225.75 163 221 163 220.5 162.75 220.25 Z" stroke="none" fill="#D2B973"></path>

<path d="M 189.8 222.6
Q 190 222.5 190 222 189.5 222 189.05 222.15 186.15 223.15 182 223 182 223.5 182 224 186.8 224.3 189.8 222.6 Z" stroke="none" fill="#745711"></path>

<path d="M 213 200
L 213 199.5
Q 210.8 201.3 208 203 208 204 208 205 208 205.5 208 206 210.7 203.7 212.75 200.85 213 200.5 213 200 Z" stroke="none" fill="#D0B161"></path>

<path d="M 297.75 267.65
Q 298 267.5 298 267 297.5 267 297 267 295.5 267 294 267 294 267.5 294 268 294 268.5 294 269 294 269.5 294 270 294 270.5 294 271 295.55 269.05 297.75 267.65 Z" stroke="none" fill="#716E5D"></path>

<path d="M 293.15 269.25
Q 291.95 269.95 290 270 290 271.5 290 273 290 273.5 290 274 292.9 273.9 293.8 271.9 294 271.5 294 271 294 270.5 294 270 294 269.5 294 269 293.5 269 293.15 269.25 Z" stroke="none" fill="#7B6C57"></path>

<path d="M 304 254
Q 304 252.5 304 251 303.5 251 303.5 251.1 302.75 255.25 300 257 300 259.5 300 262 300 262.5 300 263 302.2 259.7 303.8 255.9 304 255.5 304 255 304 254.5 304 254 Z" stroke="none" fill="#776C55"></path>

<path d="M 272 287
Q 272.5 287 273 287 273.5 287 274 287 275 287 276 287 276.5 287 277 287 277 286.5 277 286 277.5 286 277.75 285.75 278 285.5 278 285 277.5 285 277 285 274.5 285 272 285 272 285.5 272 286 272 286.5 272 287 Z" stroke="none" fill="#7F6A4F"></path>

<path d="M 272 287
Q 271.5 287 271 287 269.5 287 268 287 268 287.5 268 288 268 288.5 268 289 268.5 289 269 289 269.5 289 270 289 273.2 289.7 273.85 287.95 274 287.5 274 287 273.5 287 273 287 272.5 287 272 287 Z" stroke="none" fill="#766D58"></path>

<path d="M 269.75 289.8
Q 270 289.5 270 289 269.5 289 269 289 268.5 289 268 289 268 289.5 267.9 289.55 266 290 264 290 264 290.5 264 291 268.2 291.7 269.75 289.8 Z" stroke="none" fill="#6E6E66"></path>

<path d="M 283 281
Q 282.5 281 282 281 281.5 281 281.3 281.25 280.25 282.75 278 283 278 283.5 278 284 278 284.5 278 285 278 285.5 277.75 285.75 277.5 286 277 286 277 286.5 277 287 281.45 285.45 283.75 281.85 284 281.5 284 281 283.5 281 283 281 Z" stroke="none" fill="#706E5E"></path>

<path d="M 282 281
Q 282.5 281 283 281 283.5 281 284 281 289.95 281.45 290 276 290 275.5 290 275 289.5 275 289.35 275.2 287.2 278.7 282 279 282 279.5 282 280 282 280.5 282 281 Z" stroke="none" fill="#7A6B56"></path>

<path d="M 260 289
Q 260 289.5 260 290 260 290.5 260 291 261 291 262 291 262.5 291 263 291 263.5 291 264 291 264 290.5 264 290 266 290 267.9 289.55 268 289.5 268 289 267.5 289 267 289 263.5 289 260 289 Z" stroke="none" fill="#816C50"></path>

<path d="M 249 292
Q 248.5 292 248 292 248 308 248.5 324
L 249 324
Q 249 323.5 249 323 249 315 249 307 249 306.5 249 306 249 299 249 292 Z" stroke="none" fill="#051F28"></path>

<path d="M 249 292
Q 249 291.5 249 291 249 289.5 249 288 248.5 288 248.05 287.85 244.6 286.75 236 287
L 235.5 287
Q 235.65 289.15 234 289 234 290.5 234 292 234 292.5 234 293 234 307 234 321 234 321.5 234 322 234 330 238.2 333.75 238.5 334 239 334 244.55 335.65 241.25 338.3 241 338.5 241 339 245.1 340.45 251 340.05 251.5 340 252 340 252.5 340 252.75 339.75 253 339.5 253 339 253 338.5 252.85 338.45 249.1 337.4 250 326 250 325.5 249.8 325.1 249.5 324.5 249 324
L 248.5 324
Q 248 308 248 292 248.5 292 249 292 Z" stroke="none" fill="#030612"></path>

<path d="M 250 291
Q 250 291.5 250 292 250 292.5 250 293 257.65 293.65 262.85 291.55 263 291.5 263 291 262.5 291 262 291 261 291 260 291 259.5 291 259 291 254.5 291 250 291 Z" stroke="none" fill="#6F6E61"></path>

<path d="M 250.1 290.05
Q 250.65 287.9 249 288 249 289.5 249 291 249 291.5 249 292 249 299 249 306 249 306.5 249 307 250.75 301.75 250.05 294 250 293.5 250 293 250 292.5 250 292 250 291.5 250 291 250 290.5 250.1 290.05 Z" stroke="none" fill="#4D5858"></path>

<path d="M 249 288
Q 249 287.5 248.75 287.3 244.4 284.1 236 285 236 285.5 236 286 236 286.5 236 287 244.6 286.75 248.05 287.85 248.5 288 249 288 Z" stroke="none" fill="#451902"></path>

<path d="M 259 280
Q 259 280.5 259 281 282.65 277.95 289.5 258
L 289 258
Q 289 258.5 288.75 258.85 278.7 274.2 259 280 Z" stroke="none" fill="#A26C04"></path>

<path d="M 259 280
Q 258.5 280 258 280 250 280 242 280 242 280.5 242 281 245 281 248 281 248.5 281 249 281 253.5 281 258 281 258.5 281 259 281 259 280.5 259 280 Z" stroke="none" fill="#AF8109"></path>

<path d="M 305.5 245
Q 305.65 247.15 304 247 304 248.5 304 250 304 250.5 304 251 304 252.5 304 254 304 254.5 304 255 307.35 252.85 306.1 246 306 245.5 306 245
L 305.5 245 Z" stroke="none" fill="#716D5D"></path>

<path d="M 295 225
Q 294.5 225 294 225 294 230 294.5 234.95 294.5 235 295 235 295 234.5 295 234 295 229.5 295 225 Z" stroke="none" fill="#EAAD53"></path>

<path d="M 294.8 216.1
Q 294.5 215.5 294 215 294 219.5 294 224 294 224.5 294 225 294.5 225 295 225 295 224.5 295 224 295 220.5 295 217 295 216.5 294.8 216.1 Z" stroke="none" fill="#CE9544"></path>

<path d="M 296 217
Q 295.5 217 295 217 295 220.5 295 224 295 224.5 295 225 295 229.5 295 234 295 234.5 295 235 295 238 295 241 295 241.5 295 242 296.6 242.85 296.5 227
L 297 227
Q 297 226.5 297 226 297 225.5 297 225 296.5 225 296.5 224.95 296 221 296 217 Z" stroke="none" fill="#A26505"></path>

<path d="M 294 214
Q 294 214.5 294 215 294.5 215.5 294.8 216.1 295 216.5 295 217 295.5 217 296 217 296 216.5 295.95 216 295.6 210.9 294 207 294 210.5 294 214 Z" stroke="none" fill="#AB6F28"></path>

<path d="M 310 215
Q 310 215.5 310 216 314.6 214.6 317.75 211.7 318 211.5 318 211 317.5 211 317.1 211.2 313.3 212.8 310 215 Z" stroke="none" fill="#2E484E"></path>

<path d="M 303.95 220
Q 304 219.5 304 219 303.5 219 303.25 219.25 300.8 221.8 297 223 297 223.5 297 224 297 224.5 297 225 297 225.5 297 226 297 226.5 297 227 297 228 297.4 228.8 297.5 229 298 229 298 228.5 298 228 298 227 298 226 303.6 225.6 303.95 220 Z" stroke="none" fill="#441500"></path>

<path d="M 306 219
Q 305.5 219 305 219 304.5 219 304 219 304 219.5 303.95 220 303.6 225.6 298 226 298 227 298 228 298 228.5 298 229 299.5 232 305 231.1 305.5 231 306 231 306 230.5 306 230 306 224.5 306 219 Z" stroke="none" fill="#1F0700"></path>

<path d="M 310.95 198.5
Q 311 198.5 311 199 312 199 313 199 313.5 199 314 199 314 198.5 313.8 198.4 311 197 308 196 308.3 198.2 310.95 198.5 Z" stroke="none" fill="#2D3E44"></path>

<path d="M 322 203
Q 322 202.5 321.85 202.45 317.75 200.75 314 199 316.65 202.85 322 203.5
L 322 203 Z" stroke="none" fill="#2D454C"></path>

<path d="M 137 314
Q 137 313.5 137 313 137 312 137 311 136.5 311 136 311 136 314.5 136 318 136 318.5 136 319 136.5 319 137 319 137 318.5 137 318 137 316 137 314 Z" stroke="none" fill="#304B51"></path>

<path d="M 138.05 302
Q 138 301.5 138 301 137.5 301 137 301 137 305.5 137 310 137 310.5 137 311 137 312 137 313 137 313.5 137 314 138.75 309.25 138.05 302 Z" stroke="none" fill="#04222B"></path>

<path d="M 152.05 320
Q 152 319.5 152 319 152 318.5 152 318 152 312 152 306 151.5 306 151.5 306.05 149.9 316.7 150 332 150 332.5 149.8 332.9 147.55 337.95 145 336
L 145 336.5
Q 137.2 330.8 137 319 136.5 319 136 319 134.9 334.15 141.75 341.25 142 341.5 142 342 149.65 343.15 152.75 339.75 153 339.5 153 339 152.8 331.7 152.05 320 Z" stroke="none" fill="#031420"></path>

<path d="M 153 302
Q 152.5 302 152 302 152 303.5 152 305 152 305.5 152 306 152 312 152 318 152 318.5 152 319 153.75 312.25 153.05 303 153 302.5 153 302 Z" stroke="none" fill="#2D4850"></path>

<path d="M 152 302
Q 152.5 302 153 302 153 301.5 153 301 153 299.5 153 298 152.5 298 152.15 297.75 147.7 294.85 138 295 138 297.5 138 300 138 300.5 138 301 138 301.5 138.05 302 138.75 309.25 137 314 137 316 137 318 137 318.5 137 319 137.2 330.8 145 336.5
L 145 336
Q 147.55 337.95 149.8 332.9 150 332.5 150 332 149.9 316.7 151.5 306.05 151.5 306 152 306 152 305.5 152 305 152 303.5 152 302
M 145.05 306
Q 145 305.5 145 305 146.75 317.75 145.5 332.95 145.5 333 145 333 139.35 329.65 139.95 320 140 319.5 140 319 142.7 313.2 143.5 305.05 143.5 305 144 305 143.9 314.5 142.5 326
L 143 326
Q 145.65 317.65 145.05 306 Z" stroke="none" fill="#04030B"></path>

<path d="M 145 305
Q 145 305.5 145.05 306 145.65 317.65 143 326
L 142.5 326
Q 143.9 314.5 144 305 143.5 305 143.5 305.05 142.7 313.2 140 319 140 319.5 139.95 320 139.35 329.65 145 333 145.5 333 145.5 332.95 146.75 317.75 145 305 Z" stroke="none" fill="#0A0201"></path>

<path d="M 80 255
Q 80 254.5 80.1 254.05 80.9 250.6 78 251 77.3 254.2 79.05 254.85 79.5 255 80 255
M 107 289
Q 107.5 289 108 289 108 288.5 108 288 108 287.5 108 287 107.5 287 107.25 286.75 105.15 284.85 102 284 102 284.5 102 285 102.6 288.9 107 289 Z" stroke="none" fill="#756D56"></path>

<path d="M 77 221
Q 76.5 221 76 221 75.45 234.05 77.5 244.9 77.5 245 78 245 78 244.5 78 244 78.35 228.05 78 221 77.5 221 77 221 Z" stroke="none" fill="#6C705B"></path>

<path d="M 80.7 210.25
Q 80.5 210 80 210 80 210.5 80.1 211 81.35 217.35 78 219 78 219.5 78 220 86.5 218 80.7 210.25 Z" stroke="none" fill="#3E1200"></path>

<path d="M 76 205
Q 76 205.5 76.05 206 76.15 207.65 74 207 74 213.5 74 220 74 220.5 74 221 74.5 221 75 221 75.5 221 76 221 76.5 221 77 221 77.5 221 78 221 78 220.5 78 220 78 219.5 78 219 81.35 217.35 80.1 211 80 210.5 80 210 80 209.5 79.75 209.2 78 207 76 205 Z" stroke="none" fill="#180902"></path>

<path d="M 161 294
Q 161 294.5 161 295 177 295 193 295 193.5 295 194 295 194 294.5 194 294 195 294 195.8 293.6 196 293.5 196 293 195.5 293 195 293 176.55 292.45 161 294 Z" stroke="none" fill="#796C55"></path>

<path d="M 154 282
Q 154 282.5 154 283 159.5 283 165 283 165.5 283 166 283 166 282.5 166 282 165.5 282 165 282 159.5 282 154 282 Z" stroke="none" fill="#D6AA33"></path>

<path d="M 138 294
Q 138 294.5 138 295 147.7 294.85 152.15 297.75 152.5 298 153 298 153 297.5 153 297 153 296 153 295 153 294.5 152.75 294.3 145.4 287.7 138 294 Z" stroke="none" fill="#280D03"></path>

<path d="M 128 293
Q 128 293.5 128 294 128 294.5 128 295 130.5 295 133 295 133.5 295 134 295 134 294.5 133.75 294.2 132.2 292.25 128 293 Z" stroke="none" fill="#8B6B4B"></path>

<path d="M 126 295
Q 126 294.5 125.85 294.45 120.05 292.45 114 291 116.35 296.15 125 295.05 125.5 295 126 295 Z" stroke="none" fill="#7C6C54"></path>

<path d="M 108 288
Q 108 288.5 108 289 109.25 291.2 113 291.05 113.5 291 114 291 114 290.5 113.75 290.35 111.05 288.45 108 287 108 287.5 108 288 Z" stroke="none" fill="#7D6C52"></path>

<path d="M 118.75 281.75
Q 118.5 282 118 282 181.9 287.45 248.95 281.5 249 281.5 249 281 248.5 281 248 281 245 281 242 281 241.5 281 241 281 236.5 281 232 281 231.5 281 231 281 223 281 215 281 215 281.5 214.95 281.5 209 282 203 282 202.5 282 202 282 198 282 194 282 193.5 282 193 282 184.5 282 176 282 176 282.5 175.95 282.5 171 283 166 283 165.5 283 165 283 159.5 283 154 283 153.5 283 153 283.05 133.9 284.1 119 281 119 281.5 118.75 281.75 Z" stroke="none" fill="#9D6C02"></path>

<path d="M 94 279
Q 95.6 283.9 101 284.9 101.5 285 102 285 102 284.5 102 284 102 283.5 101.75 283.25 98.8 280.2 94 279 Z" stroke="none" fill="#716D5B"></path>

<path d="M 94 279
Q 94 278.5 94 278 93.9 273.6 90 273 89.85 277.65 93.05 278.85 93.5 279 94 279 Z" stroke="none" fill="#7A6C55"></path>

<path d="M 100 268
Q 100 268.5 100 269 103.7 276.8 113 278.9 113.5 279 114 279 114 278.5 113.85 278.45 110.35 277.15 108 275 107.5 275 107.3 274.75 103.95 271.05 100 268 Z" stroke="none" fill="#A87107"></path>

<path d="M 100 268
Q 100 267.5 99.75 267.2 96.8 263.7 94 260 94 260.5 94 261 94.75 266.75 99.1 268.8 99.5 269 100 269 100 268.5 100 268 Z" stroke="none" fill="#A76E05"></path>

<path d="M 88 271
Q 88 270.5 87.8 270.1 86.65 267.35 84 266 84.25 269.75 87.05 270.85 87.5 271 88 271 Z" stroke="none" fill="#776C58"></path>

<path d="M 84.1 264.05
Q 84.9 260.6 82 261 81.3 264.2 83.05 264.85 83.5 265 84 265 84 264.5 84.1 264.05 Z" stroke="none" fill="#786A51"></path>

<path d="M 82 259
Q 82 258.5 82.1 258.05 82.9 254.6 80 255 79.3 258.2 81.05 258.85 81.5 259 82 259 Z" stroke="none" fill="#766B52"></path>

<path d="M 93.75 259.15
Q 93 258 92 257 91.7 264.4 93.4 261.2 93.5 261 94 261 94 260.5 94 260 94 259.5 93.75 259.15 Z" stroke="none" fill="#A26703"></path>

<path d="M 89 235
Q 88.5 235 88 235 88 239.5 88.5 243.95 88.5 244 89 244 89 243.5 89 243 89 239 89 235 Z" stroke="none" fill="#B5841A"></path>

<path d="M 89 235
Q 89 234.5 89.05 234 89.75 229.25 88 227 88 230.5 88 234 88 234.5 88 235 88.5 235 89 235 Z" stroke="none" fill="#C99420"></path>

<path d="M 88 209
Q 88 208.5 88.05 208 88.75 198.75 87 192 87 200 87 208 87 208.5 87 209 87.5 209 88 209 Z" stroke="none" fill="#D19739"></path>

<path d="M 155 177
L 154.5 177
Q 154.95 180.45 152 180 151.1 183.45 154 183.05 154.5 183 155 183 155.5 183 155.5 182.95 155.65 180.7 155 177
M 96 191
L 96 191.5
Q 108 187.8 96 191 Z" stroke="none" fill="#F9CB3E"></path>

<path d="M 148 162
Q 148 162.5 148 163 148.5 163 149 163 149.5 163 150 163 150.5 163 150.8 162.75 153.45 160.5 148 161 148 161.5 148 162 Z" stroke="none" fill="#F9C735"></path>

<path d="M 147 158
L 147 158.35 147 158.5 147 158.45
Q 152.99296875 150.8083984375 147 158 Z" stroke="none" fill="#F8C536"></path>

<path d="M 86 183
Q 84.5 183 83 183 83 183.5 83 184 84.5 184 85.85 184.45 86 184.5 86 185 86 197 86.5 209
L 87 209
Q 87 208.5 87 208 87 200 87 192 87 191.5 87 191 87 187 87 183 86.5 183 86 183 Z" stroke="none" fill="#9C6301"></path>

<path d="M 90 175
Q 89.5 175 89 175 89.5 176 89.85 177.05 90 177.5 90 178 88.75 186.75 92.3 190.75 92.5 191 93 191 97.55 181.6 91.25 175.75 91 175.5 91 175 90.5 175 90 175 Z" stroke="none" fill="#F9CB3F"></path>

<path d="M 87 167
Q 86.5 167 86 167 86 170.5 86 174 86 174.5 86 175 86 175.5 86.25 175.75 86.5 176 87 176 87 175.5 87 175 87 171 87 167 Z" stroke="none" fill="#C38B2B"></path>

<path d="M 87 167
Q 87 166.5 87.05 166 87.75 161.25 86 159 86 162.5 86 166 86 166.5 86 167 86.5 167 87 167 Z" stroke="none" fill="#E4A93E"></path>

<path d="M 86 146
Q 85.5 146 85 146 85 151.5 85.5 156.95 85.5 157 86 157 86 156.5 86 156 86 151 86 146 Z" stroke="none" fill="#A77704"></path>

<path d="M 86 144
Q 86 143.5 86.05 143 86.75 137.75 85 135 85 139 85 143 85 143.5 85 144 85.5 144 86 144 Z" stroke="none" fill="#DCA13D"></path>

<path d="M 85 144
Q 84.5 144 84 144
L 83.5 144
Q 86.15 153.75 82 161 85.9 166.1 84.15 172.05 84 172.5 84 173 84.5 174 85.25 174.75 85.5 175 86 175 86 174.5 86 174 86 170.5 86 167 86 166.5 86 166 86 162.5 86 159 86 158.5 86 158 86 157.5 86 157 85.5 157 85.5 156.95 85 151.5 85 146 85.5 146 86 146 86 145.5 86 145 86 144.5 86 144 85.5 144 85 144 Z" stroke="none" fill="#A56615"></path>

<path d="M 85 126
Q 84.5 126 84 126 84 126.5 84 127 84 135 84 143 84 143.5 84 144 84.5 144 85 144 85 143.5 85 143 85 139 85 135 85 134.5 85 134 85 130 85 126 Z" stroke="none" fill="#B67C21"></path>

<path d="M 131 145
Q 130.5 145 130.4 145.2 128.65 148.3 121 151 121 150.5 121.15 150.05 124.65 141.15 116 150 115.5 150 115 150 107.4 150.2 111 146
L 111 145.5
Q 107.25 151.25 100 154 100 154.5 99.85 154.95 98.3 158.8 94 160 94 160.5 94.2 160.9 98.65 170.2 91 175 91 175.5 91.25 175.75 97.55 181.6 93 191 92.5 191 92.3 190.75 88.75 186.75 90 178 89.5 178 89.1 177.8 88.5 177.5 88 177 88 177.5 88.1 178 88.7 180.7 87 181 87 181.5 87 182 87 182.5 87 183 87 187 87 191 87 191.5 87 192 88.75 198.75 88.05 208 88 208.5 88 209 88 217.5 88 226 88 226.5 88 227 89.75 229.25 89.05 234 89 234.5 89 235 89 239 89 243 89 243.5 89 244 90.35 250.15 91.9 256.05 92 256.5 92 257 93 258 93.75 259.15 94 259.5 94 260 96.8 263.7 99.75 267.2 100 267.5 100 268 103.95 271.05 107.3 274.75 107.5 275 108 275 108 274.5 107.75 274.2 99.7 264.8 92 250 92 249.5 92 249 92.8 218.9 91 196 103.6 195.3 103.5 188
L 103 188
Q 107.6 184.95 106.1 192 106 192.5 106 193 112.2 195.4 114.75 192.75 115 192.5 115 192 123.1 195.1 128.5 194
L 128 194
Q 119.05 189.55 110.05 188.5 110 188.5 110 188 113.85 178.2 112.5 186
L 113 186
Q 121.05 188.05 136.05 183.15 136.5 183 137 183 141.35 182.8 140.1 188.05 140 188.5 140 189 152.75 188.45 149.5 195
L 150 195
Q 154.95 191.35 154.5 184
L 155 184
Q 155 183.5 155 183 154.5 183 154 183.05 151.1 183.45 152 180 154.95 180.45 154.5 177
L 155 177
Q 155 176.5 154.75 176.15 151.1 170.9 146 167 150.7 168.2 150.05 164 150 163.5 150 163 149.5 163 149 163 148.5 163 148 163
L 147.5 163
Q 147.403125 160.4087890625 147 158.45
L 147 158.5 147 158.35
Q 145.14140625 149.5177734375 137 155 137 154.5 136.75 154.35 130.5 150.05 140 151 140 150.5 139.8 150.1 137.5 144.6 131 145
M 96 191.5
L 96 191
Q 108 187.8 96 191.5 Z" stroke="none" fill="#F8C23F"></path>

<path d="M 149.8 122.9
Q 150 122.5 150 122 149.5 122 149 122 148.5 122 148 122 148 128.5 148.5 134.95 148.5 135 149 135 149 134.5 149 134 149 129 149 124 149.5 123.5 149.8 122.9 Z" stroke="none" fill="#C0974C"></path>

<path d="M 76 192
Q 76 192.5 76 193 76 198.5 76 204 76 204.5 76 205 78 207 79.75 209.2 80 209.5 80 210 80.5 210 80.7 210.25 86.5 218 78 220 78 220.5 78 221 78.35 228.05 78 244 78 244.5 78 245 78 247.5 78 250 78 250.5 78 251 80.9 250.6 80.1 254.05 80 254.5 80 255 82.9 254.6 82.1 258.05 82 258.5 82 259 82 259.5 82 260 82 260.5 82 261 84.9 260.6 84.1 264.05 84 264.5 84 265 84 265.5 84 266 86.65 267.35 87.8 270.1 88 270.5 88 271 87.4 273.15 89 273.05 89.5 273 90 273 93.9 273.6 94 278 94 278.5 94 279 98.8 280.2 101.75 283.25 102 283.5 102 284 105.15 284.85 107.25 286.75 107.5 287 108 287 111.05 288.45 113.75 290.35 114 290.5 114 291 120.05 292.45 125.85 294.45 126 294.5 126 295 126.5 295 127 295 127.5 295 128 295 128 294.5 128 294 128 293.5 128 293 132.2 292.25 133.75 294.2 134 294.5 134 295 135.5 295 137 295 137.5 295 138 295 138 294.5 138 294 145.4 287.7 152.75 294.3 153 294.5 153 295 156.5 295 160 295 160.5 295 161 295 161 294.5 161 294 176.55 292.45 195 293 195.5 293 196 293 210.5 293 225 293 225.5 293 226 293 226 292.5 226 292 226 291.5 226 291 230.75 290.25 232.75 292.25 233 292.5 233 293 233.5 293 234 293 234 292.5 234 292 234 290.5 234 289 235.65 289.15 235.5 287
L 236 287
Q 236 286.5 236 286 236 285.5 236 285 244.4 284.1 248.75 287.3 249 287.5 249 288 250.65 287.9 250.1 290.05 250 290.5 250 291 254.5 291 259 291 259.5 291 260 291 260 290.5 260 290 260 289.5 260 289 263.5 289 267 289 267.5 289 268 289 268 288.5 268 288 268 287.5 268 287 269.5 287 271 287 271.5 287 272 287 272 286.5 272 286 272 285.5 272 285 274.5 285 277 285 277.5 285 278 285 278 284.5 278 284 278 283.5 278 283 280.25 282.75 281.3 281.25 281.5 281 282 281 282 280.5 282 280 282 279.5 282 279 287.2 278.7 289.35 275.2 289.5 275 290 275 290 274.5 290 274 290 273.5 290 273 290 271.5 290 270 291.95 269.95 293.15 269.25 293.5 269 294 269 294 268.5 294 268 294 267.5 294 267 295.5 267 297 267 297.5 267 298 267 298 266.5 298 266 298 264.5 298 263 298.5 263 299 263 299.5 263 300 263 300 262.5 300 262 300 259.5 300 257 302.75 255.25 303.5 251.1 303.5 251 304 251 304 250.5 304 250 304 248.5 304 247 305.65 247.15 305.5 245
L 306 245
Q 306 244.5 306 244 306 242.5 306 241 306 240.5 306 240 306 235.5 306 231 305.5 231 305 231.1 299.5 232 298 229 297.5 229 297.4 228.8 297 228 297 227
L 296.5 227
Q 296.6 242.85 295 242
L 294.5 242
Q 294.05 251.55 289 256 289 256.5 289 257 289 257.5 289 258
L 289.5 258
Q 282.65 277.95 259 281 258.5 281 258 281 253.5 281 249 281 249 281.5 248.95 281.5 181.9 287.45 118 282 118.5 282 118.75 281.75 119 281.5 119 281 118.5 281 118.15 280.8 116.35 279.65 114 279 113.5 279 113 278.9 103.7 276.8 100 269 99.5 269 99.1 268.8 94.75 266.75 94 261 93.5 261 93.4 261.2 91.7 264.4 92 257 92 256.5 91.9 256.05 90.35 250.15 89 244 88.5 244 88.5 243.95 88 239.5 88 235 88 234.5 88 234 88 230.5 88 227 88 226.5 88 226 88 217.5 88 209 87.5 209 87 209
L 86.5 209
Q 86 197 86 185 85.5 185 85.25 185.25 81.15 189.35 76 192 Z" stroke="none" fill="#9D6128"></path>

<path d="M 77 185
Q 76.5 185 76 185 76 188 76 191 76 191.5 76 192 81.15 189.35 85.25 185.25 85.5 185 86 185 86 184.5 85.85 184.45 84.5 184 83 184 83 184.5 82.9 184.5 80.5 185 78 185 77.5 185 77 185 Z" stroke="none" fill="#906139"></path>

<path d="M 76 181
Q 76 180.5 76.1 180 77.2 175.3 74 175 73.25 179.2 75.2 180.75 75.5 181 76 181 Z" stroke="none" fill="#020802"></path>

<path d="M 74 174
Q 74 174.5 74 175 77.2 175.3 76.1 180 76 180.5 76 181 76 182 76 183 76 183.5 76 184 77 184 77.8 184.4 78 184.5 78 185 80.5 185 82.9 184.5 83 184.5 83 184 83 183.5 83 183 84.5 183 86 183 86.5 183 87 183 87 182.5 87 182 87 181.5 87 181 88.7 180.7 88.1 178 88 177.5 88 177 87.5 177 87.25 176.75 87 176.5 87 176 86.5 176 86.25 175.75 86 175.5 86 175 85.5 175 85.25 174.75 84.5 174 84 173 83.5 173 83.1 172.8 79.65 170.85 74 171 74 172.5 74 174
M 78.25 177.85
Q 78 177.5 78 177 81.35 182.7 78.25 177.85 Z" stroke="none" fill="#2B0B01"></path>

<path d="M 78 177
Q 78 177.5 78.25 177.85 81.35 182.7 78 177 Z" stroke="none" fill="#020702"></path>

<path d="M 59 181
Q 59 183 59.45 184.9 59.5 185 60 185 60 184.5 60 184 60 183.5 60 183 65 183 70 183 70.5 183 71 183 71 182.5 70.9 182.5 65.3 181.2 59 181 Z" stroke="none" fill="#344549"></path>

<path d="M 69 170
Q 69.5 170 70 170 70 169.5 69.95 169.5 64 169 58 169 58 169.5 58 170 63.5 170 69 170 Z" stroke="none" fill="#162E35"></path>

<path d="M 74 171
Q 74 170.5 74 170 73.5 170 73 170 71.5 170 70 170 69.5 170 69 170 63.5 170 58 170 57.5 170 57 170.05 48.2 170.7 44 176 44 180 44 184 44 184.5 44 185 55.1 206.4 73.2 220.75 73.5 221 74 221 74 220.5 74 220 74 213.5 74 207 76.15 207.65 76.05 206 76 205.5 76 205 75.5 205 75.3 204.75 68.9 197.6 63 190 62.5 190 62.45 189.85 61.5 186.95 60 185 59.5 185 59.45 184.9 59 183 59 181 65.3 181.2 70.9 182.5 71 182.5 71 183 73.7 182.8 75.15 183.75 75.5 184 76 184 76 183.5 76 183 76 182 76 181 75.5 181 75.2 180.75 73.25 179.2 74 175 74 174.5 74 174 74 172.5 74 171 Z" stroke="none" fill="#020C1C"></path>

<path d="M 76 105
L 75.5 105
Q 75.65 107.15 74 107 74 108.5 74 110 74 110.5 74 111 77.2 110.7 76.1 106 76 105.5 76 105 Z" stroke="none" fill="#6A634D"></path>

<path d="M 138.95 76.5
Q 139 76.5 139 76 138.5 76 138 76 131.5 76 125 76 125 76.5 125 77 132 77 138.95 76.5 Z" stroke="none" fill="#C7903B"></path>

<path d="M 122 65
Q 123.5 68.6 127.75 65.65 128 65.5 128 65 127.5 65 127 65 124.5 65 122 65 Z" stroke="none" fill="#65634E"></path>

<path d="M 88 92
Q 88 92.5 87.95 93 86.95 101.45 82 106 81.25 117.75 83.45 126.9 83.5 127 84 127 84 126.5 84 126 84.5 126 85 126 85 125.5 85 125 85 120 85 115 88.45 98.45 98.75 88.75 99 88.5 99 88 98.5 88 98.25 87.75 98 87.5 98 87 97.5 87 97.1 87.2 92.3 89.3 88 92 Z" stroke="none" fill="#A86917"></path>

<path d="M 116 67
Q 115.5 67 115 67 113.5 67 112 67 112 67.5 112 68 112 68.5 112 69 115.2 69.7 115.85 67.95 116 67.5 116 67
M 304 129
Q 304 128.5 304.05 128 305.2 118.3 302 113 301.25 122.25 303.45 128.85 303.5 129 304 129 Z" stroke="none" fill="#676352"></path>

<path d="M 314 185
Q 314.5 185 315 185 315 184.5 314.95 184.5 310 184 305 184 305 184.5 305 185 309 185 313 185 313.5 185 314 185 Z" stroke="none" fill="#274148"></path>

<path d="M 294 190
Q 293.5 190 293 190 293 194.5 293.5 198.95 293.5 199 294 199 294 198.5 294 198 294 194 294 190 Z" stroke="none" fill="#D7A335"></path>

<path d="M 301 187
Q 301.25 191.3 303.3 193.75 303.5 194 304 194 304 193.5 304 193 304 189 304 185 303.5 185 303.4 185.2 302.7 186.7 301 187 Z" stroke="none" fill="#431100"></path>

<path d="M 293 189
Q 293 189.5 293 190 293.5 190 294 190 294 189.5 294 189 294 184.5 294 180 293.5 180 293 180 293 184.5 293 189 Z" stroke="none" fill="#B4781C"></path>

<path d="M 292.1 162.95
Q 292.65 165.15 291 165 290.95 168.5 292.35 170.8 292.5 171 293 171 293 170.5 293 170 293 166 293 162 292.5 162 292 162 292 162.5 292.1 162.95 Z" stroke="none" fill="#E1A744"></path>

<path d="M 293 162
Q 293 161.5 293.05 161 293.75 155.75 292 153 292 157 292 161 292 161.5 292 162 292.5 162 293 162 Z" stroke="none" fill="#C6862F"></path>

<path d="M 292 135
Q 291.5 135 291 135 291 139 291.5 142.95 291.5 143 292 143 292 142.5 292 142 292 138.5 292 135 Z" stroke="none" fill="#E1A542"></path>

<path d="M 292.05 134
Q 292.75 129.25 291 127 291 130.5 291 134 291 134.5 291 135 291.5 135 292 135 292 134.5 292.05 134 Z" stroke="none" fill="#CF9337"></path>

<path d="M 238 184
Q 238.5 184 238.5 183.9 239.75 176.25 238 171 238 177 238 183 238 183.5 238 184 Z" stroke="none" fill="#815B08"></path>

<path d="M 221 179
Q 221 179.5 221 180 221.5 180 221.5 179.9 222.75 174.25 221 171 221 175 221 179 Z" stroke="none" fill="#634603"></path>

<path d="M 221 171
Q 221 170.5 221.1 170.05 221.65 167.9 220 168 220 175.5 220 183 220 183.5 220 184 221.7 183.7 221.1 181 221 180.5 221 180 221 179.5 221 179 221 175 221 171 Z" stroke="none" fill="#CEB371"></path>

<path d="M 242 172
L 242 171.5
Q 240.25 181.4 239 197 239 197.5 238.75 197.8 228.8 211.3 219 225 218.5 225 218.05 225.15 212.3 227.3 210 233 209.5 233 209.15 233.25 202.3 237.8 192 239 191.5 239 191 239 183.8 239.3 178 241 178 241.5 177.75 241.65 173.1 244.9 170 241 169.5 241 169 241.05 167.4 241.15 168 239 167.5 239 167.1 238.8 163.4 237.1 163 232 163.5 231.5 163.8 230.9 164 230.5 164 230 164 229.5 164 229 163.5 229 163.35 228.75 161.25 225.75 162 220 162 219.5 162 219 162 215.5 162 212 161.5 212 161.45 211.85 161 210.5 161 209 160.5 209 160.45 208.9 157.45 196.55 155 184
L 154.5 184
Q 154.95 191.35 150 195
L 149.5 195
Q 152.75 188.45 140 189 140 188.5 140.1 188.05 141.35 182.8 137 183 136.5 183 136.05 183.15 121.05 188.05 113 186
L 112.5 186
Q 113.85 178.2 110 188 110 188.5 110.05 188.5 119.05 189.55 128 194
L 128.5 194
Q 123.1 195.1 115 192 115 192.5 114.75 192.75 112.2 195.4 106 193 106 192.5 106.1 192 107.6 184.95 103 188
L 103.5 188
Q 103.6 195.3 91 196 92.8 218.9 92 249 92 249.5 92 250 99.7 264.8 107.75 274.2 108 274.5 108 275 110.35 277.15 113.85 278.45 114 278.5 114 279 116.35 279.65 118.15 280.8 118.5 281 119 281 133.9 284.1 153 283.05 153.5 283 154 283 154 282.5 154 282 159.5 282 165 282 165.5 282 166 282 170.5 282 175 282 175.5 282 176 282 184.5 282 193 282 193.5 282 194 282 194 281.5 194 281 198 281 202 281 202.5 281 203 281 208.5 281 214 281 214.5 281 215 281 223 281 231 281 231.5 281 232 281 232 280.5 232 280 236.5 280 241 280 241.5 280 242 280 250 280 258 280 258.5 280 259 280 278.7 274.2 288.75 258.85 289 258.5 289 258 289 257.5 289 257 289 256.5 289 256 294.05 251.55 294.5 242
L 295 242
Q 295 241.5 295 241 295 238 295 235 294.5 235 294.5 234.95 294 230 294 225 293.5 225 293.5 224.95 291.85 206.9 290 203
L 289.5 203
Q 291.3 178.7 287 154
L 287 153.5
Q 281.85 154.2 277 151 277.5 151 277.75 150.75 284.55 144.6 272 149 271.5 149 271.05 148.85 259.2 144.1 249 146 249 146.5 248.85 146.95 246.45 152.85 246 145 245.5 145 245.2 145.25 237.1 151.5 246 156
L 246.5 156
Q 242.55 162.7 242 172 Z" stroke="none" fill="#F7CF3E"></path>

<path d="M 176 194
Q 176 193.5 176.05 193 177 186 174 183 174.75 186.25 174.95 190 175 190.5 175 191 175 192.5 175.45 193.85 175.5 194 176 194 Z" stroke="none" fill="#B3903E"></path>

<path d="M 174 183
Q 174 182.5 173.95 182 173.45 178.05 172 175 172 175.5 172 176 172.4 184.1 174.45 190.85 174.5 191 175 191 175 190.5 174.95 190 174.75 186.25 174 183 Z" stroke="none" fill="#432C02"></path>

<path d="M 169 164
Q 169 163.5 168.9 163 166.55 152.1 156 154 163.25 177.35 162 211 162 211.5 162 212 162 215.5 162 219 162 219.5 162 220 162.5 220 162.75 220.25 163 220.5 163 221 166 230 171.75 236.25 172 236.5 172 237 186.15 236.4 195.8 230.65 196 230.5 196 230 196.15 223.9 179 226.9 178.5 227 178 227 177.2 217.4 174.55 206.1 174.5 206 174 206 176.7 204.7 176.05 200 176 199.5 176 199 176 198.5 176 198 176 196 176 194 175.5 194 175.45 193.85 175 192.5 175 191 174.5 191 174.45 190.85 172.4 184.1 172 176 171.5 176 171.45 175.85 169.45 170.35 169 164 Z" stroke="none" fill="#090304"></path>

<path d="M 168 139
Q 167.5 139 167 139 167.85 143.65 168.5 148.95 168.5 149 169 149 169 148.5 169.15 148.05 171.05 141.25 168 139 Z" stroke="none" fill="#D5A84E"></path>

<path d="M 169 128
Q 168.5 128 168 128 167 128 166 128 165.85 133.65 166.9 138.05 167 138.5 167 139 167.5 139 168 139 168 138.5 168 138 168 134.5 168 131 170.15 131.65 170.05 130 170 129.5 170 129 169.5 129 169.25 128.75 169 128.5 169 128 Z" stroke="none" fill="#D8B86C"></path>

<path d="M 177 129
Q 177 128.5 177 128 176.5 128 176 128 172.5 128 169 128 169 128.5 169.25 128.75 169.5 129 170 129 173 129 176 129 176.5 129 177 129 Z" stroke="none" fill="#CBB071"></path>

<path d="M 177 128
Q 177 128.5 177 129 180.05 131.45 186 131.05 186.5 131 187 131 187 130.5 186.9 130.45 181.75 129.25 177 128 Z" stroke="none" fill="#B69856"></path>

<path d="M 174 115
Q 174 114.5 173.95 114.5 168 114 162 114 162 114.5 162 115 167.5 115 173 115 173.5 115 174 115 Z" stroke="none" fill="#865705"></path>

<path d="M 209 145
Q 208.5 145 208.05 144.85 204.25 143.75 203 140 202.5 140 202.05 139.9 199.65 139.35 198 138 198.5 138 198.75 137.75 199 137.5 199 137 199 136.5 198.8 136.35 193.4 133.1 187 131 186.5 131 186 131.05 180.05 131.45 177 129 176.5 129 176 129 173 129 170 129 170 129.5 170.05 130 170.15 131.65 168 131 168 134.5 168 138 168 138.5 168 139 171.05 141.25 169.15 148.05 169 148.5 169 149 170.95 161.05 171.95 174 172 174.5 172 175 173.45 178.05 173.95 182 174 182.5 174 183 177 186 176.05 193 176 193.5 176 194 176 196 176 198 176 198.5 176 199 179.1 210.9 181.5 223.9 181.5 224 182 224 182 223.5 182 223 186.15 223.15 189.05 222.15 189.5 222 190 222 190 221.5 190 221 200.95 215.95 207.75 206.8 208 206.5 208 206 208 205.5 208 205 208 204 208 203 210.8 201.3 213 199.5
L 213 200
Q 218 194 219.9 185 220 184.5 220 184 220 183.5 220 183 220 175.5 220 168 220 167.5 219.9 167 217.4 153.1 209 145 Z" stroke="none" fill="#F5C341"></path>

<path d="M 209 145
Q 209 144.5 208.75 144.25 206.25 141.75 203 140 204.25 143.75 208.05 144.85 208.5 145 209 145 Z" stroke="none" fill="#BA9B58"></path>

<path d="M 203 140
Q 203 139.5 202.75 139.15 201.55 137.45 199 137 199 137.5 198.75 137.75 198.5 138 198 138 199.65 139.35 202.05 139.9 202.5 140 203 140 Z" stroke="none" fill="#CBA963"></path>

<path d="M 214 130
Q 213.5 130 213.05 129.9 209.55 128.95 208 126 207.5 126 207.15 125.75 193.95 117.05 174 115 173.5 115 173 115 167.5 115 162 115 161.5 115 161 115.05 153.15 115.65 150 121 150 121.5 150 122 150 122.5 149.8 122.9 149.5 123.5 149 124 149 129 149 134 149 134.5 149 135 156.6 169.9 160.95 208 161 208.5 161 209 161 210.5 161.45 211.85 161.5 212 162 212 162 211.5 162 211 163.25 177.35 156 154 166.55 152.1 168.9 163 169 163.5 169 164 169.45 170.35 171.45 175.85 171.5 176 172 176 172 175.5 172 175 172 174.5 171.95 174 170.95 161.05 169 149 168.5 149 168.5 148.95 167.85 143.65 167 139 167 138.5 166.9 138.05 165.85 133.65 166 128 167 128 168 128 168.5 128 169 128 172.5 128 176 128 176.5 128 177 128 181.75 129.25 186.9 130.45 187 130.5 187 131 193.4 133.1 198.8 136.35 199 136.5 199 137 201.55 137.45 202.75 139.15 203 139.5 203 140 206.25 141.75 208.75 144.25 209 144.5 209 145 217.4 153.1 219.9 167 220 167.5 220 168 221.65 167.9 221.1 170.05 221 170.5 221 171 222.75 174.25 221.5 179.9 221.5 180 221 180 221 180.5 221.1 181 221.7 183.7 220 184 220 184.5 219.9 185 218 194 213 200 213 200.5 212.75 200.85 210.7 203.7 208 206 208 206.5 207.75 206.8 200.95 215.95 190 221 190 221.5 190 222 190 222.5 189.8 222.6 186.8 224.3 182 224 181.5 224 181.5 223.9 179.1 210.9 176 199 176 199.5 176.05 200 176.7 204.7 174 206 174.5 206 174.55 206.1 177.2 217.4 178 227 178.5 227 179 226.9 196.15 223.9 196 230 196 230.5 195.8 230.65 186.15 236.4 172 237 172 236.5 171.75 236.25 166 230 163 221 162.25 225.75 163.8 228.15 164 228.5 164 229 164 229.5 164 230 165.4 234.1 167.75 237.2 168 237.5 168 238 178.7 240.3 191 238.1 191.5 238 192 238 225.8 222.3 237.85 184.95 238 184.5 238 184 238 183.5 238 183 238 177 238 171 238 170.5 237.9 170 232.9 143.1 214 130
M 189 123
Q 189.5 123 190 123 219.65 132.05 235.4 168.8 235.5 169 236 169 235.45 186.3 231.5 196
L 232 196
Q 224.75 201.45 220.2 212.1 220 212.5 220 213 211.65 219.15 203 224.5
L 203 224
Q 204.7 220.65 209.8 210.9 210 210.5 210 210 212.6 208.6 215.1 207.2 215.5 207 216 207 218.2 198.3 223 191.5
L 223 192
Q 224.25 187.25 225.45 182.1 225.5 182 226 182 224.3 135.6 184.1 125.55 184 125.5 184 125 179.5 125.5 174.95 126.85 174.5 127 174 127 168.75 122 159.9 126.8 159.5 127 159 127 164.3 131.95 162.15 140.05 162 140.5 162 141 157.8470703125 147.44140625 157.85 149.8 154.2453125 144.249609375 154 139 154 138.5 154 138 151.05 140.15 150.05 128 150 127.5 150 127 154.8 124.8 158.75 121.7 159 121.5 159 121 167.45 120.45 173 117.5
L 173 118
Q 177.75 122.8 189 123 Z" stroke="none" fill="#280D01"></path>

<path d="M 190 123
Q 189.5 123 189 123 177.75 122.8 173 118
L 173 117.5
Q 167.45 120.45 159 121 159 121.5 158.75 121.7 154.8 124.8 150 127 150 127.5 150.05 128 151.05 140.15 154 138 154 138.5 154 139 154.2453125 144.249609375 157.85 149.8 157.8470703125 147.44140625 162 141 162 140.5 162.15 140.05 164.3 131.95 159 127 159.5 127 159.9 126.8 168.75 122 174 127 174.5 127 174.95 126.85 179.5 125.5 184 125 184 125.5 184.1 125.55 224.3 135.6 226 182 225.5 182 225.45 182.1 224.25 187.25 223 192
L 223 191.5
Q 218.2 198.3 216 207 215.5 207 215.1 207.2 212.6 208.6 210 210 210 210.5 209.8 210.9 204.7 220.65 203 224
L 203 224.5
Q 211.65 219.15 220 213 220 212.5 220.2 212.1 224.75 201.45 232 196
L 231.5 196
Q 235.45 186.3 236 169 235.5 169 235.4 168.8 219.65 132.05 190 123 Z" stroke="none" fill="#080206"></path>

<path d="M 214 130
Q 214 129.5 213.75 129.3 211.3 127.2 208 126 209.55 128.95 213.05 129.9 213.5 130 214 130 Z" stroke="none" fill="#956A1B"></path>

<path d="M 226 74
Q 225.5 74 225 74 215.5 74 206 74 206 74.5 206 75 216 75 226 74.5
L 226 74 Z" stroke="none" fill="#D09942"></path>

<path d="M 186 75
L 186 75.5
Q 174 76 162 76 161.5 76 161 76 150 76 139 76 139 76.5 138.95 76.5 132 77 125 77 124.5 77 124 77.05 108.25 79.25 99 88 99 88.5 98.75 88.75 88.45 98.45 85 115 85 120 85 125 85 125.5 85 126 85 130 85 134 85 134.5 85 135 86.75 137.75 86.05 143 86 143.5 86 144 86 144.5 86 145 86 145.5 86 146 86 151 86 156 86 156.5 86 157 86 157.5 86 158 86 158.5 86 159 87.75 161.25 87.05 166 87 166.5 87 167 87 171 87 175 87 175.5 87 176 87 176.5 87.25 176.75 87.5 177 88 177 88.5 177.5 89.1 177.8 89.5 178 90 178 90 177.5 89.85 177.05 89.5 176 89 175 89.5 175 90 175 90.5 175 91 175 98.65 170.2 94.2 160.9 94 160.5 94 160 98.3 158.8 99.85 154.95 100 154.5 100 154 107.25 151.25 111 145.5
L 111 146
Q 107.4 150.2 115 150 115.5 150 116 150 124.65 141.15 121.15 150.05 121 150.5 121 151 128.65 148.3 130.4 145.2 130.5 145 131 145 137.5 144.6 139.8 150.1 140 150.5 140 151 130.5 150.05 136.75 154.35 137 154.5 137 155 145.14140625 149.5177734375 147 158.35
L 147 158
Q 152.99296875 150.8083984375 147 158.45 147.403125 160.4087890625 147.5 163
L 148 163
Q 148 162.5 148 162 148 161.5 148 161 153.45 160.5 150.8 162.75 150.5 163 150 163 150 163.5 150.05 164 150.7 168.2 146 167 151.1 170.9 154.75 176.15 155 176.5 155 177 155.65 180.7 155.5 182.95 155.5 183 155 183 155 183.5 155 184 157.45 196.55 160.45 208.9 160.5 209 161 209 161 208.5 160.95 208 156.6 169.9 149 135 148.5 135 148.5 134.95 148 128.5 148 122 148.5 122 149 122 149.5 122 150 122 150 121.5 150 121 153.15 115.65 161 115.05 161.5 115 162 115 162 114.5 162 114 168 114 173.95 114.5 174 114.5 174 115 193.95 117.05 207.15 125.75 207.5 126 208 126 211.3 127.2 213.75 129.3 214 129.5 214 130 232.9 143.1 237.9 170 238 170.5 238 171 239.75 176.25 238.5 183.9 238.5 184 238 184 238 184.5 237.85 184.95 225.8 222.3 192 238 192 238.5 192 239 202.3 237.8 209.15 233.25 209.5 233 210 233 212.3 227.3 218.05 225.15 218.5 225 219 225 228.8 211.3 238.75 197.8 239 197.5 239 197 240.25 181.4 242 171.5
L 242 172
Q 242.55 162.7 246.5 156
L 246 156
Q 237.1 151.5 245.2 145.25 245.5 145 246 145 246.45 152.85 248.85 146.95 249 146.5 249 146 259.2 144.1 271.05 148.85 271.5 149 272 149 284.55 144.6 277.75 150.75 277.5 151 277 151 281.85 154.2 287 153.5
L 287 154
Q 291.3 178.7 289.5 203
L 290 203
Q 291.85 206.9 293.5 224.95 293.5 225 294 225 294 224.5 294 224 294 219.5 294 215 294 214.5 294 214 294 210.5 294 207 294 206.5 294 206 294 202.5 294 199 293.5 199 293.5 198.95 293 194.5 293 190 293 189.5 293 189 293 184.5 293 180 293 179.5 293 179 293 175 293 171 292.5 171 292.35 170.8 290.95 168.5 291 165 292.65 165.15 292.1 162.95 292 162.5 292 162 292 161.5 292 161 292 157 292 153 292 152.5 292 152 292 147.5 292 143 291.5 143 291.5 142.95 291 139 291 135 291 134.5 291 134 291 130.5 291 127 291 126.5 291 126 291.3 111.2 288 100 287.5 100 287.4 99.8 273.95 69.55 226 74
L 226 74.5
Q 216 75 206 75 205.5 75 205 75 195.5 75 186 75
M 263 88
Q 262.5 88 262 88.05 194.8 92.5 120 83 149.75 81.75 179 80.05 179.5 80 180 80 180 79.5 180 79 184 79 187.95 79.5 188 79.5 188 80 199.25 80.75 208 79.1 208.5 79 209 79 209 78.5 209 78 238 76 227.1 78.5 227 78.5 227 79 227.5 79 228 79 241.5 79 255 79 255 79.5 255.2 79.6 259.1 81.55 261 81 261 81.5 261.2 81.6 265.55 83.95 263 88
M 255 77
Q 255.5 77 256 77 250.25 78.75 242.05 77.5 242 77.5 242 77 248.5 77 255 77
M 232.2 139.6
Q 232 139.5 232 139 240.1 143.95 232.2 139.6
M 238 140.5
L 238 140
Q 244.7 136 238 140.5
M 270.15 138.55
Q 270 138.5 270 138 277.25 141.4 270.15 138.55
M 276.2 141.6
Q 276 141.5 276 141 284.1 145.8 276.2 141.6
M 118.15 141.55
Q 118 141.5 118 141 125 144.3 118.15 141.55
M 100.25 149.65
Q 100 149.5 100 149 106.15 153.45 100.25 149.65
M 141 148.5
L 141 148
Q 146.65 145.35 141 148.5 Z" stroke="none" fill="#F8C049"></path>

<path d="M 141 148
L 141 148.5
Q 146.65 145.35 141 148
M 100 149
Q 100 149.5 100.25 149.65 106.15 153.45 100 149
M 118 141
Q 118 141.5 118.15 141.55 125 144.3 118 141
M 276 141
Q 276 141.5 276.2 141.6 284.1 145.8 276 141
M 270 138
Q 270 138.5 270.15 138.55 277.25 141.4 270 138
M 238 140
L 238 140.5
Q 244.7 136 238 140
M 232 139
Q 232 139.5 232.2 139.6 240.1 143.95 232 139 Z" stroke="none" fill="#F9C33E"></path>

<path d="M 256 77
Q 255.5 77 255 77 248.5 77 242 77 242 77.5 242.05 77.5 250.25 78.75 256 77
M 209 78
Q 209 78.5 209 79 217.5 79 226 79 226.5 79 227 79 227 78.5 227.1 78.5 238 76 209 78
M 180 79
Q 180 79.5 180 80 183.5 80 187 80 187.5 80 188 80 188 79.5 187.95 79.5 184 79 180 79 Z" stroke="none" fill="#ECB93B"></path>

<path d="M 262 88.05
Q 262.5 88 263 88 265.55 83.95 261.2 81.6 261 81.5 261 81 259.1 81.55 255.2 79.6 255 79.5 255 79 241.5 79 228 79 227.5 79 227 79 226.5 79 226 79 217.5 79 209 79 208.5 79 208 79.1 199.25 80.75 188 80 187.5 80 187 80 183.5 80 180 80 179.5 80 179 80.05 149.75 81.75 120 83 194.8 92.5 262 88.05 Z" stroke="none" fill="#FFE273"></path>

<path d="M 173 75
Q 173 74.5 172.95 74.5 155.3513671875 72.2087890625 153.1 72.95 138.9689453125 71.5482421875 126 75 125.5 75 125.05 74.8 121.25 73.25 120 74 120 74.5 119.8 74.6 112.8 78.05 106 79 106 79.5 105.75 79.75 102.9 82.4 98 83 98 84.5 98 86 98 86.5 98 87 98 87.5 98.25 87.75 98.5 88 99 88 108.25 79.25 124 77.05 124.5 77 125 77 125 76.5 125 76 131.5 76 138 76 138.5 76 139 76 150 76 161 76 161.5 76 162 76 162 75.5 162 75 167 75 172 75 172.5 75 173 75 Z" stroke="none" fill="#A16514"></path>

<path d="M 178 75
Q 177.5 75 177 75 175 75 173 75 172.5 75 172 75 167 75 162 75 162 75.5 162 76 174 76 186 75.5
L 186 75
Q 185.5 75 185 75 181.5 75 178 75 Z" stroke="none" fill="#CA9236"></path>

<path d="M 186 64
Q 186 64.5 186 65 200.2 65.7 211.9 63.5 212 63.5 212 63 211.5 63 211 63 197.9 62.9 186 64 Z" stroke="none" fill="#64634D"></path>

<path d="M 254 65.05
Q 254.5 65 255 65 246.75 63.25 236 63.5
L 236 63
Q 235.5 63 235 63 227 63 219 63 234.05 66.45 254 65.05 Z" stroke="none" fill="#786953"></path>

<path d="M 261 71
Q 260.5 71 260 71.05 221.5 73.55 196 73 195.5 73 195 72.9 186.35 71.6 176 69 178.1 70.45 178 74 178 74.5 178 75 181.5 75 185 75 185.5 75 186 75 195.5 75 205 75 205.5 75 206 75 206 74.5 206 74 215.5 74 225 74 225.5 74 226 74 273.95 69.55 287.4 99.8 287.5 100 288 100 291.3 111.2 291 126 291 126.5 291 127 292.75 129.25 292.05 134 292 134.5 292 135 292 138.5 292 142 292 142.5 292 143 292 147.5 292 152 292 152.5 292 153 293.75 155.75 293.05 161 293 161.5 293 162 293 166 293 170 293 170.5 293 171 293 175 293 179 293 179.5 293 180 293.5 180 294 180 294 179.5 294 179 293.3 153.55 296 146 296 145.5 295.95 145 293.35 128.25 296 108 296 107.5 295.8 107.1 284.75 86.7 275 79 274.5 79 274.2 78.75 268.35 74.15 261 71 Z" stroke="none" fill="#A76619"></path>

<path d="M 260 71.05
Q 260.5 71 261 71 268.35 74.15 274.2 78.75 274.5 79 275 79 284.75 86.7 295.8 107.1 296 107.5 296 108 293.35 128.25 295.95 145 296 145.5 296 146 293.3 153.55 294 179 294 179.5 294 180 294 184.5 294 189 294 189.5 294 190 294 194 294 198 294 198.5 294 199 294 202.5 294 206 294 206.5 294 207 295.6 210.9 295.95 216 296 216.5 296 217 296 221 296.5 224.95 296.5 225 297 225 297 224.5 297 224 297 223.5 297 223 300.8 221.8 303.25 219.25 303.5 219 304 219 304.5 219 305 219 305.5 219 306 219 306 218.5 306 218 306 217.5 306 217 306 211 306 205 305.5 205 305.45 204.85 304.05 199.95 304 194 303.5 194 303.3 193.75 301.25 191.3 301 187 302.7 186.7 303.4 185.2 303.5 185 304 185 304 184.5 304 184 304.75 157.75 303 134 304.7 133.2 304.1 130 304 129.5 304 129 303.5 129 303.45 128.85 301.25 122.25 302 113 302 112.5 301.85 112.05 300.25 106.25 300 99 299.5 99 299.4 98.8 287.7 75.8 264 65 263.5 65 263 64.9 251.05 62.45 236 63
L 236 63.5
Q 246.75 63.25 255 65 254.5 65 254 65.05 234.05 66.45 219 63 218.5 63 218 63 215 63 212 63 212 63.5 211.9 63.5 200.2 65.7 186 65 185.5 65 185 65 154.4 65.1 128 65 128 65.5 127.75 65.65 123.5 68.6 122 65 121.5 65 121 65.05 117.95 65.45 116 67 116 67.5 115.85 67.95 115.2 69.7 112 69 111.5 69 111.1 69.2 101.4 73.9 92 79 92 79.5 91.9 80 91.05 84.55 86 85 86 85.5 85.8 85.9 81.45 94.95 76 103 76 103.5 76 104 76 104.5 76 105 76 105.5 76.1 106 77.2 110.7 74 111 74 140 74 169 74 169.5 74 170 74 170.5 74 171 79.65 170.85 83.1 172.8 83.5 173 84 173 84 172.5 84.15 172.05 85.9 166.1 82 161 86.15 153.75 83.5 144
L 84 144
Q 84 143.5 84 143 84 135 84 127 83.5 127 83.45 126.9 81.25 117.75 82 106 86.95 101.45 87.95 93 88 92.5 88 92 92.3 89.3 97.1 87.2 97.5 87 98 87 98 86.5 98 86 98 84.5 98 83 102.9 82.4 105.75 79.75 106 79.5 106 79 112.8 78.05 119.8 74.6 120 74.5 120 74 121.25 73.25 125.05 74.8 125.5 75 126 75 138.9689453125 71.5482421875 153.1 72.95 155.3513671875 72.2087890625 172.95 74.5 173 74.5 173 75 175 75 177 75 177.5 75 178 75 178 74.5 178 74 178.1 70.45 176 69 186.35 71.6 195 72.9 195.5 73 196 73 221.5 73.55 260 71.05 Z" stroke="none" fill="#9A602D"></path>

<path d="M 325.05 190.85
Q 325.5 191 326 191 326 190.5 325.75 190.35 320.9 187.1 315 185 314.5 185 314 185 319.1 188.4 325.05 190.85 Z" stroke="none" fill="#283C42"></path>

<path d="M 326.95 191.15
Q 326.5 191 326 191 325.5 191 325.05 190.85 319.1 188.4 314 185 313.5 185 313 185 309 185 305 185 304.5 185 304 185 304 189 304 193 304 193.5 304 194 305.5 195 307.1 195.8 307.5 196 308 196 311 197 313.8 198.4 314 198.5 314 199 317.75 200.75 321.85 202.45 322 202.5 322 203 322.5 203 322.5 203.1 323.4 207.4 318 211 318 211.5 317.75 211.7 314.6 214.6 310 216 310 216.5 309.8 216.6 308 217.5 306 218 306 218.5 306 219 306 224.5 306 230 306 230.5 306 231 329.95 224.95 339.8 204.9 340 204.5 340 204 338 198.5 334.7 194.25 334.5 194 334 194 330.55 192.45 326.95 191.15 Z" stroke="none" fill="#020B19"></path>
</g>
</g>
</g>
</g>
</g>
</svg>
