
<svg viewBox="0 0 112 184" height="184px" width="112px" y="0px" x="0px" preserveAspectRatio="none" xmlns:xlink="http://www.w3.org/1999/xlink" version="1.1" xmlns="http://www.w3.org/2000/svg">
<defs></defs>

<g id="fun_scrollers">
<g transform="matrix( 0.3621063232421875, 0, 0, 0.3621063232421875, -594.2,0.1)" id="svg"></g>

<g transform="matrix( 0.3621063232421875, 0, 0, 0.3621063232421875, -594.2,0.1)" id="Layer_2">
<g>
<g>
<g>
<path d="M 1654.3 93.8
L 1653.7 93.75
Q 1654.1 98.45 1653.9 100.6 1653.75 104.1 1652.5 107.2 1648 108.1 1646.05 108.25
L 1646 108.75
Q 1647.6515625 109.108984375 1649.25 109.8 1649.915625 110.11171875 1650.55 110.45
L 1653.05 112
Q 1661.2 117.5 1665.75 124.55 1670.1 132.2 1671.6 141.3 1672.95 149.3 1672.15 159.15
L 1671.9 161.65
Q 1670.8 173.95 1667.7 195.7
L 1663.5 225.45
Q 1662.85 230.05 1661.95 233.85 1661.2 236.75 1660.65 239.5
L 1656.5 267.45
Q 1652.75 293.25 1649.35 324.3 1646.85 347 1643.7 381.25
L 1640.9 410.9
Q 1640.1 419.4 1639.3 423.6 1637.25 427.35 1636.3 428.45 1635.4 429.6 1632.1 432.5
L 1630.2 434.15 1630.2 444.2
Q 1631.2359375 443.705078125 1632.2 443.1 1636.3 440.65 1641.3 435.55 1645.8 429.15 1646.85 424.1 1647.95 419 1649.95 395
L 1651.5 376.35
Q 1654.35 341.85 1657.05 317.4 1660.55 285.5 1664.85 258.65 1668.1 238.45 1671.95 211.05
L 1675.65 185.95
Q 1678.55 166.15 1678.8 156.1 1679.2 139.6 1674.9 126.7 1672.25 120.3 1669.6 116.35 1666.1 111.15 1661.4 108.25 1657 105.65 1654.75 103.45 1654.624609375 102.9859375 1654.5 102.6 1654.2375 101.4244140625 1654.2 100.9 1654.1 100.3 1654.15 98.3
L 1654.4 96.05 1654.65 93.85 1654.3 93.8 Z" stroke="none" fill="#706C84"></path>

<path d="M 1630.2 16.5
L 1630.2 24.3
Q 1632.4775390625 24.98125 1634.75 25.7 1634.7 26.05 1640.85 31.15 1647.05 37.2 1647.45 42.15 1647.55 42.95 1647.6 43.75
L 1630.2 43 1630.2 48.2 1639.2 48.75
Q 1643.5 49.35 1646.9 51.35 1647.55 53.05 1647.65 54.65 1647.65 55.5 1647.45 58.1
L 1647.05 64.3
Q 1646.25 78.45 1647.5 91.95 1647.9 97.6 1647.25 101.4
L 1645.2 103.25
Q 1641.8 103.3 1637.1 103.05
L 1630.2 102.65 1630.2 107.7 1640.8 108.4
Q 1643.45 108.5 1644.25 108.6 1645.1 108.7 1647.5 109.2 1648.1 109.45 1648.75 109.8
L 1649.25 109.8
Q 1647.6515625 109.108984375 1646 108.75
L 1646.05 108.25
Q 1648 108.1 1652.5 107.2 1653.75 104.1 1653.9 100.6 1654.1 98.45 1653.7 93.75
L 1654.3 93.8
Q 1654.193359375 92.11640625 1654 90.5 1652.1 75.1 1654.1 55.05
L 1655.05 46.45
Q 1655.8 40.2 1655.1 36.1 1654.1 33.05 1652.5 30.7 1650.95 28.55 1648.3 26.3
L 1645.35 24.25
Q 1639.05 19.75 1632.7 17.35 1631.4787109375 16.9076171875 1630.2 16.5
M 1654.4 96.05
L 1654.15 98.3
Q 1654.1 100.3 1654.2 100.9 1654.2375 101.4244140625 1654.5 102.6
L 1654.4 100.35
Q 1654.4630859375 98.1431640625 1654.4 96.05 Z" stroke="none" fill="#7E1A34"></path>

<path d="M 1633.6 394.05
Q 1631.6248046875 392.983984375 1630.2 392.45
L 1630.2 410.25
Q 1630.6953125 410.25 1631.2 410.25
L 1632.25 409.35
Q 1633.6 404.85 1633.95 401.75 1634.4 397.75 1633.6 394.05
M 1639.1 232.1
L 1630.2 231.75 1630.2 254.9
Q 1636.7439453125 255.5880859375 1642.15 254.9
L 1643.7 252.6
Q 1643.8 250.35 1643.85 249.5 1643.9 248.75 1643.7 246.45
L 1643.25 243.45
Q 1643 236.8 1641.25 232.7
L 1639.1 232.1 Z" stroke="none" fill="#9DAEEA"></path>

<path d="M 1638.45 184.05
Q 1638.05 183.45 1637.15 182.4 1633.675 182.0525390625 1630.2 181.85
L 1630.2 210.05
Q 1633.076171875 209.4421875 1635.75 208.3 1637.8 205.9 1638.35 205.1 1638.95 204.3 1640.2 201.8
L 1641.25 200.9
Q 1642.05 196.6 1641.85 194 1641.65 190.8 1640.1 187.35 1638.8 184.7 1638.45 184.05 Z" stroke="none" fill="#F1F3F7"></path>

<path d="M 1633.65 175.3
L 1630.35 175.2
Q 1630.274609375 175.19765625 1630.2 175.2
L 1630.2 181.85
Q 1633.675 182.0525390625 1637.15 182.4 1638.05 183.45 1638.45 184.05 1638.8 184.7 1640.1 187.35 1641.65 190.8 1641.85 194 1642.05 196.6 1641.25 200.9
L 1640.2 201.8
Q 1638.95 204.3 1638.35 205.1 1637.8 205.9 1635.75 208.3 1633.076171875 209.4421875 1630.2 210.05
L 1630.2 216.55
Q 1636.5142578125 216.1443359375 1641 214.35
L 1642.35 210.55
Q 1644.75 207.8 1645.6 205.5 1646.3 203.65 1646.75 199.55
L 1647 196.75
Q 1647.8 190.4 1647.4 185.85 1646.7 182.85 1645.65 180.95 1644.45 178.8 1642.45 176.9 1638.85 175.6 1633.65 175.3 Z" stroke="none" fill="#5D5A76"></path>

<path d="M 1644.75 154.85
Q 1643.5 154.8 1642.3 154.75 1641 154.7 1639.75 154.65 1634.9548828125 154.5603515625 1630.2 154.5
L 1630.2 157.15
Q 1632.479296875 157.3865234375 1634.85 157.65
L 1643.45 158.8
Q 1645.55 159.05 1646.3 159.1 1647.070703125 159.1482421875 1649.65 159.1 1649.7490234375 159.1 1649.85 159.1
L 1650.2 155.35
Q 1649.7 155.25 1649.25 155.2 1648.15 155.05 1647.1 155 1645.95 154.9 1644.75 154.85
M 1671.6 141.3
Q 1670.1 132.2 1665.75 124.55 1661.2 117.5 1653.05 112
L 1650.55 110.45
Q 1649.915625 110.11171875 1649.25 109.8
L 1648.75 109.8
Q 1648.1 109.45 1647.5 109.2 1645.1 108.7 1644.25 108.6 1643.45 108.5 1640.8 108.4
L 1630.2 107.7 1630.2 127.65 1642.05 128.45
Q 1643.1 128.55 1644.15 128.7 1645.15 128.8 1646.15 128.95 1647.1 129.1 1648.15 129.3 1649 129.4 1649.85 129.6 1650.7 129.75 1651.65 130 1652.45 130.2 1653.25 130.45 1654.05 130.7 1654.8 131 1655.5 131.25 1656.05 131.65 1657.05 132.5 1657.9 133.5
L 1655.6 159.45 1655.8 159.45 1655.1 165.15 1653.2 165.05 1652.75 169.85
Q 1651 170.1 1650.35 170.2 1649.65 170.2 1647.25 170.05 1639.2556640625 169.955859375 1630.2 171.3
L 1630.2 175.2
Q 1630.274609375 175.19765625 1630.35 175.2
L 1633.65 175.3
Q 1638.85 175.6 1642.45 176.9 1644.45 178.8 1645.65 180.95 1646.7 182.85 1647.4 185.85 1647.8 190.4 1647 196.75
L 1646.75 199.55
Q 1646.3 203.65 1645.6 205.5 1644.75 207.8 1642.35 210.55
L 1641 214.35
Q 1636.5142578125 216.1443359375 1630.2 216.55
L 1630.2 231.75 1639.1 232.1 1641.25 232.7
Q 1643 236.8 1643.25 243.45
L 1643.7 246.45
Q 1643.9 248.75 1643.85 249.5 1643.8 250.35 1643.7 252.6
L 1642.15 254.9
Q 1636.7439453125 255.5880859375 1630.2 254.9
L 1630.2 392.45
Q 1631.6248046875 392.983984375 1633.6 394.05 1634.4 397.75 1633.95 401.75 1633.6 404.85 1632.25 409.35
L 1631.2 410.25
Q 1630.6953125 410.25 1630.2 410.25
L 1630.2 434.15 1632.1 432.5
Q 1635.4 429.6 1636.3 428.45 1637.25 427.35 1639.3 423.6 1640.1 419.4 1640.9 410.9
L 1643.7 381.25
Q 1646.85 347 1649.35 324.3 1652.75 293.25 1656.5 267.45
L 1660.65 239.5
Q 1661.2 236.75 1661.95 233.85 1662.85 230.05 1663.5 225.45
L 1667.7 195.7
Q 1670.8 173.95 1671.9 161.65
L 1672.15 159.15
Q 1672.95 149.3 1671.6 141.3 Z" stroke="none" fill="#F5F7F9"></path>

<path d="M 1655.8 159.45
L 1655.6 159.45 1649.85 159.1
Q 1649.7490234375 159.1 1649.65 159.1 1647.070703125 159.1482421875 1646.3 159.1 1645.55 159.05 1643.45 158.8
L 1634.85 157.65
Q 1632.479296875 157.3865234375 1630.2 157.15
L 1630.2 171.3
Q 1639.2556640625 169.955859375 1647.25 170.05 1649.65 170.2 1650.35 170.2 1651 170.1 1652.75 169.85
L 1653.2 165.05 1655.1 165.15 1655.8 159.45 Z" stroke="none" fill="#992A3F"></path>

<path d="M 1653.25 130.45
Q 1652.45 130.2 1651.65 130 1650.7 129.75 1649.85 129.6 1649 129.4 1648.15 129.3 1647.1 129.1 1646.15 128.95 1645.15 128.8 1644.15 128.7 1643.1 128.55 1642.05 128.45
L 1630.2 127.65 1630.2 154.5
Q 1634.9548828125 154.5603515625 1639.75 154.65 1641 154.7 1642.3 154.75 1643.5 154.8 1644.75 154.85 1645.95 154.9 1647.1 155 1648.15 155.05 1649.25 155.2 1649.7 155.25 1650.2 155.35
L 1649.85 159.1 1655.6 159.45 1657.9 133.5
Q 1657.05 132.5 1656.05 131.65 1655.5 131.25 1654.8 131 1654.05 130.7 1653.25 130.45 Z" stroke="none" fill="#110F1A"></path>

<path d="M 1647.6 43.75
Q 1647.55 42.95 1647.45 42.15 1647.05 37.2 1640.85 31.15 1634.7 26.05 1634.75 25.7 1632.4775390625 24.98125 1630.2 24.3
L 1630.2 43 1647.6 43.75 Z" stroke="none" fill="#DF202E"></path>

<path d="M 1639.2 48.75
L 1630.2 48.2 1630.2 102.65 1637.1 103.05
Q 1641.8 103.3 1645.2 103.25
L 1647.25 101.4
Q 1647.9 97.6 1647.5 91.95 1646.25 78.45 1647.05 64.3
L 1647.45 58.1
Q 1647.65 55.5 1647.65 54.65 1647.55 53.05 1646.9 51.35 1643.5 49.35 1639.2 48.75 Z" stroke="none" fill="#E21F2D"></path>
</g>
</g>
</g>
</g>

<g transform="matrix( 0.3621063232421875, 0, 0, 0.3621063232421875, -594.2,0.1)" id="Layer_3">
<g>
<g>
<g>
<path d="M 1630.2 425.9
L 1630.2 433
Q 1635.0181640625 432.961328125 1639.55 432.45
L 1639.55 426.2
Q 1635.089453125 426.2470703125 1630.2 425.9
M 1638.35 305.2
Q 1637 302.5 1634.85 301.2 1633.2306640625 300.2216796875 1630.2 299.9
L 1630.2 310.15
Q 1631.0353515625 311.1802734375 1631.7 312.55 1632.9 315 1633.75 319.1 1634.3 321.8 1634.8 324.5 1632.9 324.55 1631.45 325.1 1630.9970703125 325.2724609375 1630.2 325.7
L 1630.2 407.3
Q 1630.25 407.2279296875 1630.3 407.15 1639.25 393.15 1642.25 376.45 1643.35 370.3 1643.7 362.7 1643.95 357.35 1643.9 348.85 1643.85 340.45 1643.5 334
L 1652.1 334.1
Q 1653.9 334.1 1654.7 333.8 1655.25 333.55 1656.2 332.95 1656.95 332.6 1657.3 332.35 1659.05 331.2 1658.85 328.05 1658.7 326.45 1658.65 325.65 1658.55 324.2 1658.75 323.25
L 1651.9 323.1
Q 1651.8 324.45 1650.6 325.25
L 1649.55 325.75 1648.4 326.55
Q 1647.45 327.2 1645.55 327.15 1643.8 327.1 1643 327.2 1642.05 318.05 1640.2 310.45 1639.35 307.15 1638.35 305.2
M 1652.2 204
L 1652.15 198.9
Q 1645.75 197.9 1636.3 200.95 1633.64140625 201.8638671875 1630.2 203.2
L 1630.2 212.75
Q 1639.3515625 209.06484375 1644.35 207.35 1647.9 206.1 1650 206 1651.45 205.9 1651.9 205.4 1652.2 205 1652.2 204 Z" stroke="none" fill="#000000"></path>

<path d="M 1633.75 319.1
Q 1632.9 315 1631.7 312.55 1631.0353515625 311.1802734375 1630.2 310.15
L 1630.2 325.7
Q 1630.9970703125 325.2724609375 1631.45 325.1 1632.9 324.55 1634.8 324.5 1634.3 321.8 1633.75 319.1 Z" stroke="none" fill="#FFFFFF"></path>
</g>
</g>
</g>
</g>

<g transform="matrix( 0.3621063232421875, 0, 0, 0.3621063232421875, -594.2,0.1)" id="Layer_6">
<g>
<g>
<g>
<path d="M 1877.05 91.35
L 1876.85 96.15 1874.9 96.1
Q 1865.75 99.95 1860.35 103.05 1852.65 107.45 1847.7 112.9 1843.55 118.5 1841.55 125.8 1839.9 131.85 1839.55 140
L 1837.8 188.95
Q 1837.5 200.25 1836.65 222.7
L 1836 241
Q 1835.4 257.6 1835.25 260.45 1834.8 271.45 1834.15 279.8 1833.3 289.6 1833.1 302.4 1832.6 326.35 1831.7 344.65 1830.25 374.35 1829.7 392.7
L 1829.1 412.1
Q 1829.0751953125 412.9763671875 1829.05 413.8 1828.9544921875 421.4029296875 1829.9 425.95 1831.0494140625 429.3982421875 1833.1 432.4 1835.1736328125 435.4736328125 1838.15 438.1 1841.65 440.05 1845.95 441.05 1849.35 441.9 1854.2 442.35
L 1885.9 443.8 1892.75 444.1 1920.4 445.4
Q 1930.520703125 445.8544921875 1936.95 446.05
L 1936.95 438.45 1890.5 437.3
Q 1876.2 437.2 1869 436.9 1856.5 436.4 1847.75 434.3 1844.7 433.3 1843.1 432.05 1841.55 430.9 1839.55 428.2 1837.4 423.75 1836.5 420.35 1835.55 416.55 1835.65 412
L 1836.95 373.7
Q 1837.35 365.55 1837.4 361.5
L 1840.35 288.45
Q 1842.55 231.5 1843.7 209.7 1844.65 192.2 1845.1 179.6
L 1846.35 143.05
Q 1846.55 136.95 1846.8 134.45 1847.25 129.85 1848.6 126.1
L 1850.2 123.4
Q 1858.75 114 1862.1 111.5 1865.45 109 1877.25 103.6
L 1880.65 102.05
Q 1879.4 101.6 1877.7 101
L 1877.45 98.85
Q 1877.45 98.75 1878 91.4
L 1877.45 91.35 1877.05 91.35 Z" stroke="none" fill="#706C84"></path>

<path d="M 1936.95 44.85
L 1936.95 39.8 1896.6 39.35 1895.7 36.4 1863 34.65
Q 1860.5 28.45 1862.4 22.1 1899.7080078125 11.947265625 1936.95 18.65
L 1936.95 11.6
Q 1936.9001953125 11.6029296875 1936.85 11.6
L 1933.1 11.5
Q 1908 10.35 1885.15 12
L 1881.7 12.3
Q 1874.1 12.9 1869.6 13.55 1862.95 14.45 1857.75 16.15 1856.9 17.75 1856.75 18.85 1856.55 19.95 1856.45 24.9
L 1856.35 27.6
Q 1856.3 29.6 1856.1 33.55 1856.1 36.95 1857.15 39.2 1859.95 40.75 1860.85 41.05 1861.7 41.3 1863.75 41.65
L 1886.85 42.85
Q 1885.55 46.35 1884.9 50.35 1884.3 53.35 1883.9 58.05 1883.2 66.45 1882.8 69.4 1881.8 75.75 1880.1 80.5 1878.0951171875 85.603515625 1877.45 91.35
L 1878 91.4
Q 1877.45 98.75 1877.45 98.85
L 1877.7 101
Q 1879.4 101.6 1880.65 102.05
L 1877.25 103.6
Q 1877.475 103.525 1877.7 103.45 1881.3 102.35 1884.8 102.05
L 1895.1 102.6
Q 1900.05 102.85 1909.95 103.2 1919.05 103.4 1928.2 103.8
L 1936.95 104.1 1936.95 99.2 1883.6 97.7
Q 1884.45 90.75 1884.8 89.05 1885.15 87.3 1886.3 84 1888.25 77.75 1889.2 67.45 1890.4 54.6 1892.6 46.9
L 1895.5 44.1
Q 1897.65 43.9 1898.45 43.85 1899.25 43.85 1901.9 43.9
L 1936.95 44.85 Z" stroke="none" fill="#7E1A34"></path>

<path d="M 1856.1 391.3
Q 1855.7 392.4 1855.1 395.9 1855.4 399.45 1855.65 400.55 1856 401.65 1857.5 404.6 1861.15 406.55 1863.9 406.9 1866.6 407.15 1879.15 407.05
L 1887 407.05
Q 1897.3 407.35 1907.55 407.3 1919.35 407.25 1928.85 407.4 1933.1158203125 407.4607421875 1936.95 407.5
L 1936.95 389.25
Q 1930.257421875 389.0162109375 1921.85 388.45 1913.85 388 1906 387.65 1899.4 387.4 1892.75 387 1883.7 386.35 1879.2 386.2
L 1874.15 386
Q 1867.7 385.5 1865.85 385.55 1861.4 385.6 1857.95 387.3 1856.4 390.3 1856.1 391.3
M 1918.9 229.3
L 1910.35 229.15
Q 1909 229.05 1886.95 228.25 1869.75 227.55 1869.55 227.9 1867 239.4 1870.15 247.05 1873.9 249.25 1875.85 249.6 1877.85 249.95 1885.9 249.65 1887.85 249.55 1891.7 249.55 1900 249.6 1906.6 249.45 1911.75 249.35 1922.15 249.3 1932.43125 249.33515625 1936.95 249.3
L 1936.95 229.35
Q 1928.745703125 229.51875 1918.9 229.3 Z" stroke="none" fill="#9DAEEA"></path>

<path d="M 1936.95 191.2
Q 1936.5244140625 192.0111328125 1936.05 192.95 1935.9375 196.775 1936.95 200.3
L 1936.95 191.2 Z" stroke="none" fill="#F1F3F7"></path>

<path d="M 1936.95 191.2
L 1936.95 178.65 1935.4 180.45
Q 1933.1 183.1 1932.2 184.95 1931.2 187 1930.8 190.3
L 1930.7 194.9
Q 1930.65 198.3 1930.65 199.35 1930.7 200.4 1930.95 203.45 1931.85 205.75 1932.45 206.75 1933.1 207.65 1936.1 211.1 1936.5265625 211.3900390625 1936.95 211.65
L 1936.95 200.3
Q 1935.9375 196.775 1936.05 192.95 1936.5244140625 192.0111328125 1936.95 191.2 Z" stroke="none" fill="#5D5A76"></path>

<path d="M 1861.35 154.55
Q 1861.3 155.25 1861.85 157.45
L 1865.55 159.15 1870.45 160.55
Q 1877 163.85 1880.9 165.3 1886.75 167.55 1891.95 168.1 1899.55 168.7 1907.65 171.7 1916.2 175.05 1920.75 175 1924.3224609375 174.959765625 1936.95 172.6
L 1936.95 153.3
Q 1927.3123046875 152.9951171875 1917.65 152.75
L 1870.25 151.25
Q 1865.95 151.05 1862 151.7 1861.35 153.8 1861.35 154.55 Z" stroke="none" fill="#992A3F"></path>

<path d="M 1862.45 137.65
Q 1862.4 139.05 1862.5 140.5 1862.55 141.95 1862.65 143.45 1862.75 144.85 1863.05 146.25 1863.15 146.7 1863.3 147.1 1863.4 147.3 1863.55 147.7 1863.65 147.85 1863.75 148.05 1863.8 148.1 1863.85 148.15 1863.9 148.25 1864.05 148.35 1864.2 148.45 1864.35 148.55 1864.6 148.65 1864.85 148.8 1865.05 148.95 1865.35 149 1866.1 149.45 1866.9 149.7
L 1901.6 150.6
Q 1907 150.6 1912.45 150.6 1915.1 150.65 1917.75 150.75 1920.3 150.85 1922.9 150.95 1925.75 151 1928.75 151.4 1930.4 151.45 1932.1 151.5 1932.85 151.55 1933.6 151.55 1934.2 151.55 1934.9 151.6 1935.925 151.6 1936.95 151.65
L 1936.95 124.1 1877.7 122.05
Q 1877 122.05 1876.3 122.05 1875.7 122 1875.05 122 1874.55 122 1874 122 1873.5 121.95 1873.05 121.95 1872.65 121.95 1872.3 121.95 1872 121.9 1871.7 121.9 1871.45 121.9 1871.25 121.9 1871.05 121.9 1870.9 121.9 1870.05 122.05 1869.25 122.15 1868.4 122.3 1867.6 122.5 1867.097265625 122.701171875 1866.6 122.9
L 1865.65 122.9 1864.65 123.8 1864.65 123.8
Q 1864.6244140625 123.8369140625 1864.6 123.85 1864.3 125.2 1863.95 126.55 1863.3 129.3 1862.9 132.05 1862.65 133.4 1862.6 134.75 1862.45 136.2 1862.45 137.65 Z" stroke="none" fill="#110F1A"></path>

<path d="M 1862.1 111.5
Q 1858.75 114 1850.2 123.4
L 1848.6 126.1
Q 1847.25 129.85 1846.8 134.45 1846.55 136.95 1846.35 143.05
L 1845.1 179.6
Q 1844.65 192.2 1843.7 209.7 1842.55 231.5 1840.35 288.45
L 1837.4 361.5
Q 1837.35 365.55 1836.95 373.7
L 1835.65 412
Q 1835.55 416.55 1836.5 420.35 1837.4 423.75 1839.55 428.2 1841.55 430.9 1843.1 432.05 1844.7 433.3 1847.75 434.3 1856.5 436.4 1869 436.9 1876.2 437.2 1890.5 437.3
L 1936.95 438.45 1936.95 407.5
Q 1933.1158203125 407.4607421875 1928.85 407.4 1919.35 407.25 1907.55 407.3 1897.3 407.35 1887 407.05
L 1879.15 407.05
Q 1866.6 407.15 1863.9 406.9 1861.15 406.55 1857.5 404.6 1856 401.65 1855.65 400.55 1855.4 399.45 1855.1 395.9 1855.7 392.4 1856.1 391.3 1856.4 390.3 1857.95 387.3 1861.4 385.6 1865.85 385.55 1867.7 385.5 1874.15 386
L 1879.2 386.2
Q 1883.7 386.35 1892.75 387 1899.4 387.4 1906 387.65 1913.85 388 1921.85 388.45 1930.257421875 389.0162109375 1936.95 389.25
L 1936.95 249.3
Q 1932.43125 249.33515625 1922.15 249.3 1911.75 249.35 1906.6 249.45 1900 249.6 1891.7 249.55 1887.85 249.55 1885.9 249.65 1877.85 249.95 1875.85 249.6 1873.9 249.25 1870.15 247.05 1867 239.4 1869.55 227.9 1869.75 227.55 1886.95 228.25 1909 229.05 1910.35 229.15
L 1918.9 229.3
Q 1928.745703125 229.51875 1936.95 229.35
L 1936.95 211.65
Q 1936.5265625 211.3900390625 1936.1 211.1 1933.1 207.65 1932.45 206.75 1931.85 205.75 1930.95 203.45 1930.7 200.4 1930.65 199.35 1930.65 198.3 1930.7 194.9
L 1930.8 190.3
Q 1931.2 187 1932.2 184.95 1933.1 183.1 1935.4 180.45
L 1936.95 178.65 1936.95 172.6
Q 1924.3224609375 174.959765625 1920.75 175 1916.2 175.05 1907.65 171.7 1899.55 168.7 1891.95 168.1 1886.75 167.55 1880.9 165.3 1877 163.85 1870.45 160.55
L 1865.55 159.15 1861.85 157.45
Q 1861.3 155.25 1861.35 154.55 1861.35 153.8 1862 151.7 1865.95 151.05 1870.25 151.25
L 1917.65 152.75
Q 1927.3123046875 152.9951171875 1936.95 153.3
L 1936.95 151.65
Q 1935.925 151.6 1934.9 151.6 1934.2 151.55 1933.6 151.55 1932.85 151.55 1932.1 151.5 1930.4 151.45 1928.75 151.4 1925.75 151 1922.9 150.95 1920.3 150.85 1917.75 150.75 1915.1 150.65 1912.45 150.6 1907 150.6 1901.6 150.6
L 1866.9 149.7
Q 1866.1 149.45 1865.35 149 1865.05 148.95 1864.85 148.8 1864.6 148.65 1864.35 148.55 1864.2 148.45 1864.05 148.35 1863.9 148.25 1863.85 148.15 1863.8 148.1 1863.75 148.05 1863.65 147.85 1863.55 147.7 1863.4 147.3 1863.3 147.1 1863.15 146.7 1863.05 146.25 1862.75 144.85 1862.65 143.45 1862.55 141.95 1862.5 140.5 1862.4 139.05 1862.45 137.65 1862.45 136.2 1862.6 134.75 1862.65 133.4 1862.9 132.05 1863.3 129.3 1863.95 126.55 1864.3 125.2 1864.6 123.85 1864.6244140625 123.8369140625 1864.65 123.8
L 1864.65 123.8 1865.65 122.9 1866.6 122.9
Q 1867.097265625 122.701171875 1867.6 122.5 1868.4 122.3 1869.25 122.15 1870.05 122.05 1870.9 121.9 1871.05 121.9 1871.25 121.9 1871.45 121.9 1871.7 121.9 1872 121.9 1872.3 121.95 1872.65 121.95 1873.05 121.95 1873.5 121.95 1874 122 1874.55 122 1875.05 122 1875.7 122 1876.3 122.05 1877 122.05 1877.7 122.05
L 1936.95 124.1 1936.95 104.1 1928.2 103.8
Q 1919.05 103.4 1909.95 103.2 1900.05 102.85 1895.1 102.6
L 1884.8 102.05
Q 1881.3 102.35 1877.7 103.45 1877.475 103.525 1877.25 103.6 1865.45 109 1862.1 111.5 Z" stroke="none" fill="#F5F7F9"></path>

<path d="M 1898.45 43.85
Q 1897.65 43.9 1895.5 44.1
L 1892.6 46.9
Q 1890.4 54.6 1889.2 67.45 1888.25 77.75 1886.3 84 1885.15 87.3 1884.8 89.05 1884.45 90.75 1883.6 97.7
L 1936.95 99.2 1936.95 44.85 1901.9 43.9
Q 1899.25 43.85 1898.45 43.85 Z" stroke="none" fill="#E21F2D"></path>

<path d="M 1936.95 39.8
L 1936.95 18.65
Q 1899.7080078125 11.947265625 1862.4 22.1 1860.5 28.45 1863 34.65
L 1895.7 36.4 1896.6 39.35 1936.95 39.8 Z" stroke="none" fill="#DF202E"></path>

<path d="M 1829.05 413.8
L 1828.4 413.8
Q 1828.5 417 1827.05 422.45
L 1824.35 432.95
Q 1823.45 436.45 1822.85 438.2 1822.2 439.9 1820.7 443.2 1818.8 447.7 1817.8 452.55
L 1810.75 452.85 1810.6 459.9
Q 1810.6 462 1810.8 463.1 1811.1 464.8 1812.05 465.8 1813.8 467.7 1817.45 467.4 1818.45 467.35 1820.4 467.15 1822.1 467 1823.3 467.2 1823.1 463.65 1823.7 461.8 1823.85 461.2 1824.3 460.15 1824.75 459.1 1824.9 458.55
L 1825.35 456.15
Q 1825.65 454.6 1826.45 452.65 1827.45 450.45 1827.9 449.3 1829.65 445.3 1831.15 440 1831.9029296875 437.4068359375 1833.1 432.4 1831.0494140625 429.3982421875 1829.9 425.95 1828.9544921875 421.4029296875 1829.05 413.8
M 1892.75 444.1
L 1885.9 443.8 1885.9 460.1
Q 1885.9 462.35 1885.65 463.4 1885.45 464.3 1884.8 466 1884.6 466.8 1884.35 470.1 1883.9 476.95 1880.4 482.8 1879.4 483.05 1876.45 482.75 1874 482.5 1872.8 483.3 1872.05 483.85 1871.25 485.25 1870 487.6 1869.45 489.25 1868.6 492.15 1868.8 497.1 1869.05 503.25 1868.85 505.1
L 1876.5 505.15
Q 1879.5 502.95 1882.1 499.1 1883.75 496.7 1886.25 491.85 1888.6 487.2 1889.65 484.45 1891.2 480.2 1891.3 476.6 1891.3 475.35 1891.35 474.7 1891.4 473.55 1891.6 472.8 1892.25 471.2 1892.45 470.4 1892.75 469.35 1892.75 467.15
L 1892.75 444.1 Z" stroke="none" fill="#000000"></path>
</g>
</g>
</g>
</g>

<g transform="matrix( 0.3621063232421875, 0, 0, 0.3621063232421875, -594.2,0.1)" id="MergedLayer_1">
<g>
<g>
<g>
<path d="M 1936.95 459.9
Q 1936.7455078125 460.3466796875 1936.55 460.75 1935.6 462.75 1933.4 466.65 1931.25 470.5 1930.3 472.55 1929.55 474.1 1929.2 475.35 1928.85 476.85 1928.95 479.25 1929.1 482.55 1929.1 483.15 1929.05 483.9 1928.95 485.4 1928.9 486.7 1929.3 487.6 1929.85 488.95 1932 490.4 1934.417578125 492.1474609375 1936.95 493.85
L 1936.95 459.9
M 1850.85 286
L 1843.65 285.9
Q 1844.1 295.4 1845.65 304.25 1845.95 305.95 1846.55 306.8 1847.45 307.95 1850.35 308.35 1896.155859375 314.538671875 1936.95 320.65
L 1936.95 312.75 1856.05 301.15
Q 1854.1 300.8 1853.5 300.15 1853 299.55 1852.7 298
L 1850.85 286
M 1934.65 282.7
L 1936.95 282.7 1936.95 270.1
Q 1936.158203125 271.6251953125 1935.6 273.3 1934 278 1934.65 282.7
M 1868.85 275.15
Q 1873.2 278.45 1877.65 280.55
L 1881.2 282.15
Q 1882.7 282.85 1883.55 282.85 1884.6 282.85 1884.8 282.9
L 1885.65 283.45
Q 1886.4 283.9 1888.2 284.15 1888.95 284.35 1890.4 284.9 1891.2 285.1 1892.8 285.1
L 1900.55 285.2 1900.55 283.65
Q 1902.6 284.6 1904.7 285.55 1907.9 287 1909.15 287.35 1912.9 288.55 1916.65 288 1916.3 287.05 1916.65 284.4 1916.95 282.1 1916.15 281.1 1915.7 280.6 1914.5 280
L 1909.75 277.85
Q 1895.25 271.3 1886.6 267.95 1880.3 265.5 1876.05 264.55 1870.25 263.35 1860.7 263.55 1848.4 263.8 1845.2 263.6
L 1845.2 270.4
Q 1845.95 270.45 1857.75 270.5 1864.35 270.55 1868.85 271.35
L 1868.85 275.15 Z" stroke="none" fill="#000000"></path>
</g>
</g>
</g>
</g>
</g>
</svg>
