
<svg viewBox="0 0 112 184" height="184px" width="112px" y="0px" x="0px" preserveAspectRatio="none" xmlns:xlink="http://www.w3.org/1999/xlink" version="1.1" xmlns="http://www.w3.org/2000/svg">
<defs></defs>

<g id="fun_scrollers">
<g transform="matrix( 0.3621063232421875, 0, 0, 0.3621063232421875, -594.2,0.1)" id="svg"></g>

<g transform="matrix( 0.3621063232421875, 0, 0, 0.3621063232421875, -594.2,0.1)" id="Layer_2"></g>

<g transform="matrix( 0.3621063232421875, 0, 0, 0.3621063232421875, -594.2,0.1)" id="Layer_3"></g>

<g transform="matrix( 0.3621063232421875, 0, 0, 0.3621063232421875, -594.2,0.1)" id="Layer_2">
<g>
<g>
<g>
<path d="M 1839.6 100.45
L 1839.15 100.45 1839.15 105.25 1837.25 105.25
Q 1828.15 109.4 1822.85 112.65 1815.3 117.3 1810.55 122.85 1806.55 128.55 1804.75 135.95 1803.25 142.05 1803.15 150.2
L 1802.9 199.2
Q 1802.95 210.55 1802.75 233
L 1802.65 251.3
Q 1802.55 267.85 1802.5 270.7 1802.35 281.7 1801.95 290.15 1801.4 299.95 1801.6 312.75 1801.85 336.65 1801.45 355 1800.85 384.75 1800.85 403.1
L 1800.85 422.5
Q 1800.85 431.3 1802 436.3 1804.55 443.15 1810.6 448.25 1814.25 450.05 1818.55 451 1821.95 451.65 1826.8 452
L 1893.05 453.05
Q 1909.8 453.35 1916.45 453.2 1927.821875 452.940625 1936.95 451.6
L 1936.95 445.1
Q 1933.305078125 445.4201171875 1928.45 445.55
L 1862.95 445.85
Q 1848.65 446.15 1841.45 446.1 1828.95 445.95 1820.1 444.1 1817.05 443.2 1815.45 442 1813.8 440.9 1811.8 438.3 1809.45 433.9 1808.45 430.55 1807.4 426.8 1807.35 422.2
L 1807.55 383.85
Q 1807.65 375.7 1807.65 371.65
L 1808.4 298.55
Q 1808.9 241.55 1809.4 219.7 1809.9 202.2 1809.9 189.6
L 1810.1 153
Q 1810.05 146.9 1810.25 144.4 1810.55 139.8 1811.85 136.05
L 1813.35 133.3
Q 1821.55 123.65 1824.9 121.05 1828.18515625 118.46171875 1839.7 112.7 1839.7478515625 112.676171875 1839.8 112.65
L 1843.1 111.05
Q 1841.85 110.7 1840.2 110.05
L 1839.9 107.9
Q 1839.9 107.8 1840.15 100.45
L 1839.6 100.45
M 1936.4 112.5
Q 1936.67578125 112.6 1936.95 112.7
L 1936.95 110.25
Q 1934.3033203125 110.9201171875 1932.9 111.1
L 1932.9 111.55
Q 1934.6416015625 111.846484375 1936.4 112.5 Z" stroke="none" fill="#706C84"></path>

<path d="M 1924.35 27.25
Q 1917.65 23.1 1911.05 21.1 1904.6 19.2 1896.65 19
L 1892.9 19
Q 1867.75 18.55 1844.95 20.9
L 1841.5 21.3
Q 1833.9 22.1 1829.5 22.9 1822.8 24 1817.7 25.85 1816.85 27.5 1816.75 28.65 1816.6 29.75 1816.65 34.7
L 1816.65 37.4
Q 1816.6 39.35 1816.55 43.3 1816.65 46.7 1817.8 48.95 1820.7 50.35 1821.5 50.65 1822.35 50.9 1824.45 51.2
L 1847.6 51.7
Q 1846.4 55.25 1845.85 59.25 1845.4 62.2 1845.1 66.95 1844.6 75.4 1844.3 78.4 1843.55 84.75 1841.9 89.55 1840.1248046875 94.6478515625 1839.6 100.45
L 1840.15 100.45
Q 1839.9 107.8 1839.9 107.9
L 1840.2 110.05
Q 1841.85 110.7 1843.1 111.05
L 1839.8 112.65
Q 1839.7478515625 112.676171875 1839.7 112.7 1839.9650390625 112.6087890625 1840.2 112.55 1843.85 111.3 1847.3 110.95
L 1857.6 111.2
Q 1862.55 111.3 1872.45 111.35 1881.6 111.3 1890.75 111.4
L 1927.65 111.55
Q 1930.3 111.5 1931.15 111.55 1932 111.6 1934.45 111.95 1935.1 112.2 1935.75 112.5
L 1936.4 112.5
Q 1934.6416015625 111.846484375 1932.9 111.55
L 1932.9 111.1
Q 1934.3033203125 110.9201171875 1936.95 110.25
L 1936.95 78.8
Q 1935.8931640625 68.9474609375 1935.95 57.5
L 1936.1 48.85
Q 1936.25 42.6 1935.15 38.5 1933.9 35.45 1932.05 33.25 1930.35 31.25 1927.45 29.15
L 1924.35 27.25
M 1913.95 29.35
Q 1913.95 29.7 1920.5 34.4 1927.25 40.1 1928.15 45 1928.3 45.75 1928.4 46.6
L 1857.25 47.9 1856.25 45 1823.55 44.2
Q 1820.8 38.1 1822.55 31.7 1867.9 17.85 1913.95 29.35
M 1929.7 60.95
L 1929.85 67.15
Q 1930.3 81.35 1932.9 94.8 1933.8 100.4 1933.5 104.25
L 1931.65 106.2
Q 1928.25 106.45 1923.55 106.5
L 1846 106.6
Q 1846.7 99.6 1846.95 97.95 1847.25 96.15 1848.25 92.8 1850.1 86.5 1850.7 76.2 1851.55 63.35 1853.45 55.55
L 1856.35 52.65
Q 1858.45 52.4 1859.25 52.3 1860.1 52.25 1862.75 52.25
L 1920.55 52.1
Q 1924.9 52.45 1928.5 54.25 1929.25 55.85 1929.5 57.5 1929.6 58.35 1929.7 60.95 Z" stroke="none" fill="#7E1A34"></path>

<path d="M 1929.85 67.15
L 1929.7 60.95
Q 1929.6 58.35 1929.5 57.5 1929.25 55.85 1928.5 54.25 1924.9 52.45 1920.55 52.1
L 1862.75 52.25
Q 1860.1 52.25 1859.25 52.3 1858.45 52.4 1856.35 52.65
L 1853.45 55.55
Q 1851.55 63.35 1850.7 76.2 1850.1 86.5 1848.25 92.8 1847.25 96.15 1846.95 97.95 1846.7 99.6 1846 106.6
L 1923.55 106.5
Q 1928.25 106.45 1931.65 106.2
L 1933.5 104.25
Q 1933.8 100.4 1932.9 94.8 1930.3 81.35 1929.85 67.15 Z" stroke="none" fill="#E21F2D"></path>

<path d="M 1920.5 34.4
Q 1913.95 29.7 1913.95 29.35 1867.9 17.85 1822.55 31.7 1820.8 38.1 1823.55 44.2
L 1856.25 45 1857.25 47.9 1928.4 46.6
Q 1928.3 45.75 1928.15 45 1927.25 40.1 1920.5 34.4 Z" stroke="none" fill="#DF202E"></path>

<path d="M 1850.1 395.1
L 1845.05 395.1
Q 1838.6 394.7 1836.75 394.85 1832.3 395.05 1828.95 396.85 1827.5 399.8 1827.15 400.9 1826.8 402 1826.35 405.5 1826.7 409.05 1827 410.15 1827.35 411.2 1829 414.15 1832.75 416 1835.45 416.2 1838.15 416.4 1850.7 415.95
L 1858.55 415.75
Q 1868.85 415.7 1879.1 415.35 1890.9 414.95 1900.35 414.85 1921.45 414.5 1931.95 414.2
L 1935.45 414.1
Q 1936.184765625 414.0923828125 1936.95 414.05
L 1936.95 395.65
Q 1935.3076171875 395.7482421875 1933.2 395.85
L 1917.2 396.35
Q 1907.65 396.65 1892.8 396.1 1884.8 395.8 1877 395.7 1870.4 395.75 1863.65 395.5 1854.6 395.15 1850.1 395.1
M 1936.95 235.2
L 1928.5 235.4
Q 1919.35 235.5 1912.45 236.05 1900.95 237 1885.2 237.1
L 1876.6 237.15
Q 1875.3 237.15 1853.2 236.95 1836 236.75 1835.8 237.15 1833.55 248.75 1837 256.3 1840.8 258.4 1842.75 258.65 1844.7 258.95 1852.8 258.45 1854.7 258.25 1858.55 258.15 1866.85 258 1873.5 257.6 1878.65 257.35 1889 257 1903.65 256.6 1906.6 256.45
L 1914.55 256.1
Q 1918.5 255.9 1922.55 255.9
L 1923.55 257.85
Q 1930.8765625 258.811328125 1936.95 258.45
L 1936.95 235.2 Z" stroke="none" fill="#9DAEEA"></path>

<path d="M 1901.95 185.55
L 1900.2 187.75
Q 1897.95 190.45 1897.1 192.4 1896.2 194.4 1895.9 197.75
L 1895.95 202.3
Q 1895.95 205.7 1896 206.75 1896.1 207.85 1896.45 210.85 1897.4 213.15 1898 214.15 1898.7 215.05 1901.75 218.35 1904.35 220 1906.8 220.55 1908.75 221 1912.15 221
L 1914.8 220.9
Q 1923.35 220.7 1926.55 220.4 1932.676953125 219.673828125 1936.95 217.8
L 1936.95 201.45
Q 1936.908984375 202.64375 1936.8 204
L 1935.85 204.95
Q 1934.8 207.5 1934.35 208.35 1933.85 209.15 1932.05 211.65 1927.05 214.2 1921.2 214.85 1916.2 215.45 1909.9 214.65 1906.75 213.55 1905.9 212.95 1905.05 212.4 1903.15 209.9 1901.2 205.4 1901.2 200.3 1903.4 195.5 1904.45 194.1 1905.55 192.7 1909.65 189.2 1912.25 187.35 1914.55 186.55 1916.85 185.75 1920.1 185.55
L 1924 185.6
Q 1927.45 185.6 1930.95 185.7 1932 186.7 1932.4 187.35 1932.85 187.9 1934.4 190.5 1936.25 193.9 1936.8 197.05 1936.908984375 197.858984375 1936.95 198.8
L 1936.95 181
Q 1936.3826171875 180.46484375 1935.75 179.95 1932 178.8 1926.85 178.85
L 1923.5 178.95
Q 1915.75 179.2 1912 180.1 1906.35 181.5 1901.95 185.55 Z" stroke="none" fill="#5D5A76"></path>

<path d="M 1826.05 166.95
L 1829.8 168.55 1834.7 169.85
Q 1841.35 172.85 1845.3 174.2 1851.25 176.3 1856.45 176.7 1864.05 177.1 1872.25 179.85 1880.85 182.95 1885.4 182.7 1889.85 182.55 1908.25 178.4
L 1921.85 175.3
Q 1929.7939453125 173.5208984375 1936.95 172.95
L 1936.95 161.85
Q 1936.2072265625 161.834765625 1935.05 161.75
L 1926.35 161.15
Q 1918.7 160.7 1911.95 160.7
L 1909.2 160.65
Q 1895.45 160.55 1881.65 160.65
L 1834.25 160.55
Q 1829.95 160.4 1826 161.15 1825.4 163.3 1825.4 164 1825.45 164.75 1826.05 166.95 Z" stroke="none" fill="#992A3F"></path>

<path d="M 1840.85 131.1
Q 1840.1 131.1 1839.45 131.1 1838.8 131.1 1838.2 131.1 1837.65 131.1 1837.15 131.1 1836.65 131.1 1836.2 131.1 1835.8 131.15 1835.45 131.15 1835.1 131.15 1834.85 131.15 1834.6 131.15 1834.4 131.15 1834.2 131.15 1834.05 131.15 1833.2 131.3 1832.4 131.45 1831.55 131.65 1830.75 131.9 1830.251953125 132.0556640625 1829.8 132.25
L 1828.75 132.25 1827.8 133.25 1827.8 133.3
Q 1827.45 134.6 1827.2 136 1826.65 138.75 1826.3 141.5 1826.15 142.85 1826.1 144.25 1826 145.7 1826.05 147.15 1826.05 148.5 1826.15 149.95 1826.2 151.4 1826.4 152.9 1826.6 154.35 1826.9 155.75 1827 156.15 1827.2 156.55 1827.3 156.8 1827.45 157.15 1827.5 157.3 1827.6 157.45 1827.65 157.5 1827.7 157.55 1827.8 157.65 1827.95 157.75 1828.1 157.85 1828.25 157.95 1828.5 158.1 1828.75 158.25 1828.95 158.4 1829.3 158.45 1830 158.8 1830.85 159.05
L 1865.55 158.9
Q 1870.95 158.7 1876.4 158.6 1879.05 158.55 1881.7 158.6 1884.3 158.6 1886.9 158.6 1889.7 158.6 1892.7 158.9 1894.4 158.85 1896.05 158.9 1896.8 158.9 1897.55 158.95 1898.2 158.95 1898.85 158.95 1899.95 158.9 1901.05 158.9 1902.65 158.9 1904.25 158.9 1905.7 158.8 1907.15 158.75 1908.5 158.7 1909.9 158.7 1911.15 158.65 1912.4 158.6 1913.55 158.6 1914.7 158.6 1915.75 158.55 1916.8 158.45 1917.75 158.4 1918.75 158.4 1919.55 158.3 1920.35 158.25 1925.65 158.1 1931 157.85 1932.25 157.8 1933.55 157.8 1934.75 157.75 1936 157.75 1936.475 157.75 1936.95 157.75
L 1936.95 132
Q 1935.95 131.85 1935 131.75 1933.95 131.65 1932.95 131.6 1931.85 131.55 1930.8 131.55
L 1840.85 131.1 Z" stroke="none" fill="#110F1A"></path>

<path d="M 1857.6 111.2
L 1847.3 110.95
Q 1843.85 111.3 1840.2 112.55 1839.9650390625 112.6087890625 1839.7 112.7 1828.18515625 118.46171875 1824.9 121.05 1821.55 123.65 1813.35 133.3
L 1811.85 136.05
Q 1810.55 139.8 1810.25 144.4 1810.05 146.9 1810.1 153
L 1809.9 189.6
Q 1809.9 202.2 1809.4 219.7 1808.9 241.55 1808.4 298.55
L 1807.65 371.65
Q 1807.65 375.7 1807.55 383.85
L 1807.35 422.2
Q 1807.4 426.8 1808.45 430.55 1809.45 433.9 1811.8 438.3 1813.8 440.9 1815.45 442 1817.05 443.2 1820.1 444.1 1828.95 445.95 1841.45 446.1 1848.65 446.15 1862.95 445.85
L 1928.45 445.55
Q 1933.305078125 445.4201171875 1936.95 445.1
L 1936.95 414.05
Q 1936.184765625 414.0923828125 1935.45 414.1
L 1931.95 414.2
Q 1921.45 414.5 1900.35 414.85 1890.9 414.95 1879.1 415.35 1868.85 415.7 1858.55 415.75
L 1850.7 415.95
Q 1838.15 416.4 1835.45 416.2 1832.75 416 1829 414.15 1827.35 411.2 1827 410.15 1826.7 409.05 1826.35 405.5 1826.8 402 1827.15 400.9 1827.5 399.8 1828.95 396.85 1832.3 395.05 1836.75 394.85 1838.6 394.7 1845.05 395.1
L 1850.1 395.1
Q 1854.6 395.15 1863.65 395.5 1870.4 395.75 1877 395.7 1884.8 395.8 1892.8 396.1 1907.65 396.65 1917.2 396.35
L 1933.2 395.85
Q 1935.3076171875 395.7482421875 1936.95 395.65
L 1936.95 258.45
Q 1930.8765625 258.811328125 1923.55 257.85
L 1922.55 255.9
Q 1918.5 255.9 1914.55 256.1
L 1906.6 256.45
Q 1903.65 256.6 1889 257 1878.65 257.35 1873.5 257.6 1866.85 258 1858.55 258.15 1854.7 258.25 1852.8 258.45 1844.7 258.95 1842.75 258.65 1840.8 258.4 1837 256.3 1833.55 248.75 1835.8 237.15 1836 236.75 1853.2 236.95 1875.3 237.15 1876.6 237.15
L 1885.2 237.1
Q 1900.95 237 1912.45 236.05 1919.35 235.5 1928.5 235.4
L 1936.95 235.2 1936.95 217.8
Q 1932.676953125 219.673828125 1926.55 220.4 1923.35 220.7 1914.8 220.9
L 1912.15 221
Q 1908.75 221 1906.8 220.55 1904.35 220 1901.75 218.35 1898.7 215.05 1898 214.15 1897.4 213.15 1896.45 210.85 1896.1 207.85 1896 206.75 1895.95 205.7 1895.95 202.3
L 1895.9 197.75
Q 1896.2 194.4 1897.1 192.4 1897.95 190.45 1900.2 187.75
L 1901.95 185.55
Q 1906.35 181.5 1912 180.1 1915.75 179.2 1923.5 178.95
L 1926.85 178.85
Q 1932 178.8 1935.75 179.95 1936.3826171875 180.46484375 1936.95 181
L 1936.95 172.95
Q 1929.7939453125 173.5208984375 1921.85 175.3
L 1908.25 178.4
Q 1889.85 182.55 1885.4 182.7 1880.85 182.95 1872.25 179.85 1864.05 177.1 1856.45 176.7 1851.25 176.3 1845.3 174.2 1841.35 172.85 1834.7 169.85
L 1829.8 168.55 1826.05 166.95
Q 1825.45 164.75 1825.4 164 1825.4 163.3 1826 161.15 1829.95 160.4 1834.25 160.55
L 1881.65 160.65
Q 1895.45 160.55 1909.2 160.65
L 1911.95 160.7
Q 1918.7 160.7 1926.35 161.15
L 1935.05 161.75
Q 1936.2072265625 161.834765625 1936.95 161.85
L 1936.95 157.75
Q 1936.475 157.75 1936 157.75 1934.75 157.75 1933.55 157.8 1932.25 157.8 1931 157.85 1925.65 158.1 1920.35 158.25 1919.55 158.3 1918.75 158.4 1917.75 158.4 1916.8 158.45 1915.75 158.55 1914.7 158.6 1913.55 158.6 1912.4 158.6 1911.15 158.65 1909.9 158.7 1908.5 158.7 1907.15 158.75 1905.7 158.8 1904.25 158.9 1902.65 158.9 1901.05 158.9 1899.95 158.9 1898.85 158.95 1898.2 158.95 1897.55 158.95 1896.8 158.9 1896.05 158.9 1894.4 158.85 1892.7 158.9 1889.7 158.6 1886.9 158.6 1884.3 158.6 1881.7 158.6 1879.05 158.55 1876.4 158.6 1870.95 158.7 1865.55 158.9
L 1830.85 159.05
Q 1830 158.8 1829.3 158.45 1828.95 158.4 1828.75 158.25 1828.5 158.1 1828.25 157.95 1828.1 157.85 1827.95 157.75 1827.8 157.65 1827.7 157.55 1827.65 157.5 1827.6 157.45 1827.5 157.3 1827.45 157.15 1827.3 156.8 1827.2 156.55 1827 156.15 1826.9 155.75 1826.6 154.35 1826.4 152.9 1826.2 151.4 1826.15 149.95 1826.05 148.5 1826.05 147.15 1826 145.7 1826.1 144.25 1826.15 142.85 1826.3 141.5 1826.65 138.75 1827.2 136 1827.45 134.6 1827.8 133.3
L 1827.8 133.25 1828.75 132.25 1829.8 132.25
Q 1830.251953125 132.0556640625 1830.75 131.9 1831.55 131.65 1832.4 131.45 1833.2 131.3 1834.05 131.15 1834.2 131.15 1834.4 131.15 1834.6 131.15 1834.85 131.15 1835.1 131.15 1835.45 131.15 1835.8 131.15 1836.2 131.1 1836.65 131.1 1837.15 131.1 1837.65 131.1 1838.2 131.1 1838.8 131.1 1839.45 131.1 1840.1 131.1 1840.85 131.1
L 1930.8 131.55
Q 1931.85 131.55 1932.95 131.6 1933.95 131.65 1935 131.75 1935.95 131.85 1936.95 132
L 1936.95 112.7
Q 1936.67578125 112.6 1936.4 112.5
L 1935.75 112.5
Q 1935.1 112.2 1934.45 111.95 1932 111.6 1931.15 111.55 1930.3 111.5 1927.65 111.55
L 1890.75 111.4
Q 1881.6 111.3 1872.45 111.35 1862.55 111.3 1857.6 111.2 Z" stroke="none" fill="#F5F7F9"></path>

<path d="M 1914.55 186.55
Q 1912.25 187.35 1909.65 189.2 1905.55 192.7 1904.45 194.1 1903.4 195.5 1901.2 200.3 1901.2 205.4 1903.15 209.9 1905.05 212.4 1905.9 212.95 1906.75 213.55 1909.9 214.65 1916.2 215.45 1921.2 214.85 1927.05 214.2 1932.05 211.65 1933.85 209.15 1934.35 208.35 1934.8 207.5 1935.85 204.95
L 1936.8 204
Q 1936.908984375 202.64375 1936.95 201.45 1936.9998046875 200.017578125 1936.95 198.8 1936.908984375 197.858984375 1936.8 197.05 1936.25 193.9 1934.4 190.5 1932.85 187.9 1932.4 187.35 1932 186.7 1930.95 185.7 1927.45 185.6 1924 185.6
L 1920.1 185.55
Q 1916.85 185.75 1914.55 186.55 Z" stroke="none" fill="#F1F3F7"></path>
</g>
</g>
</g>
</g>

<g transform="matrix( 0.3621063232421875, 0, 0, 0.3621063232421875, -594.2,0.1)" id="Layer_3">
<g>
<g>
<g>
<path d="M 1919.85 469.65
Q 1922.4 461.15 1922.05 450.9
L 1915.05 450.45
Q 1914.3 459.3 1911.15 467.15 1910.35 469.2 1910.2 469.9 1910 470.7 1909.9 473.3
L 1909.85 483.35
Q 1909.85 485.8 1910.5 486.85 1912.4 486.9 1914.25 487.05 1921.4 487.3 1928.8 487.1 1930.85 487 1935 486.75
L 1936.95 486.6 1936.95 472.55
Q 1936.8755859375 472.587890625 1936.8 472.6
L 1928.3 473.85
Q 1923.05 474.65 1920.9 475.55 1919.15 476.2 1919.1 476.2 1918.05 476.5 1917.25 476.45 1918.85 473 1919.85 469.65
M 1805.7 439.85
Q 1805.85 440.4 1805.4 441.1 1805.15 441.5 1804.6 442.25 1804.25 442.95 1804.2 444.05 1804.2 444.7 1804.25 445.95 1804.25 446.4 1803.85 449.05 1803.6 450.8 1803.7 455.15
L 1798.05 455.5
Q 1797.95 460.25 1798.15 462.65 1798.25 464.35 1798.5 465.75 1798.55 466.1 1799.1 467.95 1799.3 468.8 1799.65 469.15 1800.15 469.55 1801.3 469.55
L 1806.35 469.5
Q 1809.35 469.4 1810.5 469 1811.65 468.6 1811.95 467.95 1812.15 467.55 1812.15 466.65
L 1812.15 458.75
Q 1812.15 456.8 1811.55 455.95
L 1810.85 455.75
Q 1811.5 453.75 1811.35 451.85 1811.25 450 1811.55 449.4 1812.2 448.65 1812.45 448.2 1812.75 447.65 1812.75 446.4
L 1812.75 440 1805.7 439.85
M 1838.45 445.15
L 1831.45 445.05
Q 1831.3 446.9 1829.65 450.4 1825.05 459.7 1820.95 469.55 1820.05 472.05 1819.95 472.35 1819.5 473.85 1819.25 476.05 1818.6 481 1818.75 486.3
L 1845.6 486.4
Q 1851.15 486.4 1853.9 486 1854.5 486 1854.7 485.7 1854.9 485.45 1854.9 485 1855.2 479.3 1854.55 476.55 1854.25 475.4 1853.75 475.1 1853.3 474.75 1852.25 474.75
L 1828.95 474.35 1836.35 458
Q 1837.65 455.25 1838.1 453.4 1838.85 450.6 1838.45 445.15 Z" stroke="none" fill="#000000"></path>
</g>
</g>
</g>
</g>

<g transform="matrix( 0.3621063232421875, 0, 0, 0.3621063232421875, -594.2,0.1)" id="MergedLayer_3">
<g>
<g>
<g>
<path d="M 1857.65 349.5
Q 1853.6 352.35 1850.95 355.35 1848.65 358 1846.55 361.95 1845.55 363.7 1844.15 366.95 1842.7 366 1841.75 365.65 1840.25 365.1 1838.25 365 1837.05 364.95 1834.65 365.1 1834.85 365.9 1834.6 368.45 1834.45 370.6 1835.15 371.65 1835.4 372.1 1836.55 372.9 1838.75 374.6 1840.55 375.45 1840.35 375.9 1840.2 376.25 1838.65 380.25 1838.05 383.6 1837.25 387.9 1837.35 396.05
L 1837.5 412.6
Q 1837.55 415.65 1837.8 417.1 1838.1 419.55 1839.2 421.3 1840.75 423.9 1844.2 425.35 1846.75 426.45 1850.8 427.05 1856.35 427.85 1863.35 428.05 1867.55 428.2 1875.95 428.2 1882.25 428.2 1885.4 427.85 1888.1 427.45 1894.75 425.75
L 1929.2 416.7 1929.2 410.4
Q 1929.15 410.4 1929.05 410.4 1931.3 408.6 1933.6 406.4 1936.3 403.75 1936.7 403.5 1936.8220703125 403.3982421875 1936.95 403.3
L 1936.95 392.55
Q 1936.05234375 393.0052734375 1934.9 393.55 1932.55 394.8 1931.1 396 1930 396.85 1928.35 398.7 1926.5 400.75 1925.7 401.5 1923.65 403.4 1918.8 406.1 1915.6 407.85 1913.95 408.6 1911.15 409.85 1908.75 410.25
L 1908.75 413.6 1896.7 416.9
Q 1891.75 418.3 1888.35 419.15 1888.5 419.05 1888.7 418.9 1893.65 415.85 1895.95 413.55 1897.85 411.6 1899.6 408.8 1900.75 407 1902.55 403.5 1904.3 400.25 1904.75 398.35 1905.15 396.55 1905.15 393.4 1905.15 387.5 1905 385.5 1904.85 382.7 1904.35 381.1 1903.4 377.85 1900.05 374.05 1900 373.95 1899.9 373.9 1900.1 372.75 1900.85 372.1 1901.55 371.65 1903.2 371.55 1910.55 371.25 1918.85 371.35 1922.3 371.35 1923.9 372.2 1924.6 372.55 1926.7 374.45 1928.75 376.35 1936 381.35 1936.4857421875 381.6904296875 1936.95 382
L 1936.95 330.25
Q 1936.4525390625 330.0904296875 1936 329.95 1932.25 328.8 1925.9 328.7 1920.45 328.65 1915 328.95 1907.65 329.5 1900.85 330.55 1892.15 331.8 1886.6 333.95 1883.65 335.1 1878.05 338.05 1870.45 342.1 1865.3 344.85 1860.4 347.6 1857.65 349.5
M 1854.25 370.3
Q 1853.15 370.35 1852.2 370.35 1854.05 366.6 1855.85 364.2 1859.4 359.4 1865.65 355.2 1869.4 352.65 1877.35 348.35 1881.5 346.15 1884.4 344.7 1882.6 351.55 1878.55 357.7 1876.55 360.75 1874.45 362.6 1871.5 365.2 1866 367.3 1859.35 369.95 1854.25 370.3
M 1858 305.65
Q 1856.15 305.55 1855.3 305.8 1853.85 306.2 1852.4 307.75 1850.4 309.75 1847.8 314.25
L 1842.85 323.05
Q 1842.1 324.75 1840.8 326.4 1840.05 327.45 1839.85 328.05 1839.65 328.65 1839.65 330
L 1839.75 336.9
Q 1840.6 336.85 1843.35 337 1845.55 337.15 1846.85 336.8 1847.7 336.55 1849 335.9
L 1851.85 334.5
Q 1853.25 333.8 1853.75 333.35 1854.25 332.85 1855.05 331.25 1856.15 329.2 1858.7 326.3 1861.85 322.6 1862.9 320.75 1864.75 317.85 1865.05 317.45 1865.75 316.7 1866.1 316.3 1866.65 315.65 1866.85 315.05 1867.05 314.4 1867.05 313.05
L 1867 306 1858 305.65
M 1921.55 296.9
Q 1922 296.35 1922.75 295.05
L 1924.75 291.15
Q 1925.1 290.25 1925.45 289.15 1925.7 288.15 1925.7 285.65
L 1925.6 277.55 1919.55 277.4
Q 1918.6 277.4 1918.2 277.65 1918 277.8 1917.7 278.2 1917.6 278.4 1917.35 278.8 1916.95 279.3 1916 280.2 1915.8 280.45 1914.7 282.05 1913.85 283.5 1911.05 286.15 1907.4 289.8 1901.5 296.9 1900.6 297.95 1900.35 298.6 1900.2 299.15 1900.2 300.2
L 1900.2 306.7 1902.55 306.95
Q 1902.75 306.95 1902.9 307.1 1903 307.2 1902.95 307.35
L 1908.15 307.45
Q 1908.95 307.45 1909.35 307.3 1909.9 307.1 1910.45 306.35 1911 305.45 1911.3 305.05 1911.75 304.55 1913.7 303.25
L 1919.9 298.35
Q 1921 297.5 1921.55 296.9 Z" stroke="none" fill="#000000"></path>

<path d="M 1852.2 370.35
Q 1853.15 370.35 1854.25 370.3 1859.35 369.95 1866 367.3 1871.5 365.2 1874.45 362.6 1876.55 360.75 1878.55 357.7 1882.6 351.55 1884.4 344.7 1881.5 346.15 1877.35 348.35 1869.4 352.65 1865.65 355.2 1859.4 359.4 1855.85 364.2 1854.05 366.6 1852.2 370.35
M 1899.9 373.9
Q 1900 373.95 1900.05 374.05 1903.4 377.85 1904.35 381.1 1904.85 382.7 1905 385.5 1905.15 387.5 1905.15 393.4 1905.15 396.55 1904.75 398.35 1904.3 400.25 1902.55 403.5 1900.75 407 1899.6 408.8 1897.85 411.6 1895.95 413.55 1893.65 415.85 1888.7 418.9 1888.5 419.05 1888.35 419.15 1891.75 418.3 1896.7 416.9
L 1908.75 413.6 1908.75 410.25
Q 1911.15 409.85 1913.95 408.6 1915.6 407.85 1918.8 406.1 1923.65 403.4 1925.7 401.5 1926.5 400.75 1928.35 398.7 1930 396.85 1931.1 396 1932.55 394.8 1934.9 393.55 1936.05234375 393.0052734375 1936.95 392.55
L 1936.95 382
Q 1936.4857421875 381.6904296875 1936 381.35 1928.75 376.35 1926.7 374.45 1924.6 372.55 1923.9 372.2 1922.3 371.35 1918.85 371.35 1910.55 371.25 1903.2 371.55 1901.55 371.65 1900.85 372.1 1900.1 372.75 1899.9 373.9 Z" stroke="none" fill="#FFFFFF"></path>
</g>
</g>
</g>
</g>

<g transform="matrix( 0.3621063232421875, 0, 0, 0.3621063232421875, -594.2,0.1)" id="Layer_5">
<g>
<g>
<g>
<path d="M 1630.2 133.1
Q 1630.3 133.132421875 1630.4 133.15 1631.15 133.35 1632 133.6 1632.65 133.85 1633.3 134.25 1634.35 135.05 1635.3 136
L 1635.6 143.2 1635.45 162 1635.6 162 1635.65 165.75 1635.45 167.75 1633.55 167.75 1633.55 172.55
Q 1631.85 172.95 1631.15 173.05 1630.8552734375 173.07265625 1630.2 173.05
L 1630.2 192.75
Q 1630.441015625 195.94296875 1630.35 199.8
L 1630.35 202.65
Q 1630.3072265625 204.4060546875 1630.2 205.75
L 1630.2 242.3
Q 1630.651953125 244.2857421875 1630.95 246.6
L 1631.7 249.65
Q 1632.05 251.95 1632.15 252.7 1632.2 253.5 1632.25 255.75
L 1631 258.1
Q 1630.603515625 258.175 1630.2 258.25
L 1630.2 395.95
Q 1630.3078125 395.9447265625 1630.4 395.95 1632.15 396.15 1635.45 397.65 1636.55 401.35 1636.5 405.35 1636.4 408.45 1635.5 413.05
L 1634.55 414
Q 1632.2853515625 414.1484375 1630.2 414.25
L 1630.2 444.85
Q 1630.609765625 444.6712890625 1631 444.45
L 1632.75 440.95 1637.55 436.1
Q 1640.6 433.05 1641.35 431.85 1642.2 430.7 1643.9 426.8 1644.35 422.55 1644.3 414
L 1644.3 384.2
Q 1644.3 349.8 1644.6 327 1645.1 295.8 1646.45 269.85
L 1647.95 241.7
Q 1648.25 238.85 1648.7 235.95 1649.3 232.1 1649.5 227.45
L 1650.9 197.45
Q 1651.85 175.6 1651.85 163.3
L 1651.8 160.75
Q 1651.75 150.8 1649.65 142.9 1647.3 133.95 1642.25 126.55 1637.64453125 120.513671875 1630.2 115.85
L 1630.2 133.1 Z" stroke="none" fill="#F5F7F9"></path>

<path d="M 1636.4 110.5
Q 1632.5451171875 108.5724609375 1630.2 106.75
L 1630.2 115.85
Q 1637.64453125 120.513671875 1642.25 126.55 1647.3 133.95 1649.65 142.9 1651.75 150.8 1651.8 160.75
L 1651.85 163.3
Q 1651.85 175.6 1650.9 197.45
L 1649.5 227.45
Q 1649.3 232.1 1648.7 235.95 1648.25 238.85 1647.95 241.7
L 1646.45 269.85
Q 1645.1 295.8 1644.6 327 1644.3 349.8 1644.3 384.2
L 1644.3 414
Q 1644.35 422.55 1643.9 426.8 1642.2 430.7 1641.35 431.85 1640.6 433.05 1637.55 436.1
L 1632.75 440.95 1631 444.45 1630.85 444.75
Q 1630.533203125 444.8087890625 1630.2 444.85
L 1630.2 450.85
Q 1634.979296875 449.3037109375 1638.6 446.7 1642.45 444 1647 438.55 1650.85 431.95 1651.5 426.85 1652.1 421.7 1651.8 397.6
L 1651.55 378.9
Q 1651.25 344.25 1651.65 319.65 1652.15 287.65 1653.9 260.5 1655.25 240.15 1656.55 212.6
L 1657.8 187.25
Q 1658.9 167.3 1658.2 157.25 1657.05 140.75 1651.6 128.15 1648.35 121.95 1645.3 118.15 1641.35 113.15 1636.4 110.5 Z" stroke="none" fill="#706C84"></path>

<path d="M 1630.4 395.95
Q 1630.3078125 395.9447265625 1630.2 395.95
L 1630.2 414.25
Q 1632.2853515625 414.1484375 1634.55 414
L 1635.5 413.05
Q 1636.4 408.45 1636.5 405.35 1636.55 401.35 1635.45 397.65 1632.15 396.15 1630.4 395.95
M 1630.95 246.6
Q 1630.651953125 244.2857421875 1630.2 242.3
L 1630.2 258.25
Q 1630.603515625 258.175 1631 258.1
L 1632.25 255.75
Q 1632.2 253.5 1632.15 252.7 1632.05 251.95 1631.7 249.65
L 1630.95 246.6 Z" stroke="none" fill="#9DAEEA"></path>

<path d="M 1630.2 205.75
Q 1630.3072265625 204.4060546875 1630.35 202.65
L 1630.35 199.8
Q 1630.441015625 195.94296875 1630.2 192.75
L 1630.2 205.75 Z" stroke="none" fill="#5D5A76"></path>

<path d="M 1635.65 165.75
L 1635.6 162 1635.45 162 1630.2 162 1630.2 173.05
Q 1630.8552734375 173.07265625 1631.15 173.05 1631.85 172.95 1633.55 172.55
L 1633.55 167.75 1635.45 167.75 1635.65 165.75 Z" stroke="none" fill="#992A3F"></path>

<path d="M 1630.4 133.15
Q 1630.3 133.132421875 1630.2 133.1
L 1630.2 162 1635.45 162 1635.6 143.2 1635.3 136
Q 1634.35 135.05 1633.3 134.25 1632.65 133.85 1632 133.6 1631.15 133.35 1630.4 133.15 Z" stroke="none" fill="#110F1A"></path>
</g>
</g>
</g>
</g>

<g transform="matrix( 0.3621063232421875, 0, 0, 0.3621063232421875, -594.2,0.1)" id="Layer_6">
<g>
<g>
<g>
<path d="M 1680.35 445.4
L 1673.6 445.15
Q 1672.6 445.15 1672.05 444.8 1671.65 444.6 1670.95 443.4 1670.1 441.8 1668.4 439.5 1666 436.15 1665.7 435.7 1664.05 433.3 1661.35 428.2
L 1656 418.05
Q 1654.5 415.2 1654.85 413.55
L 1647.9 413.5
Q 1648.05 414.7 1647.9 418.2 1647.75 421.1 1648.2 422.8 1648.45 423.85 1649.75 426.35
L 1655.6 437.4
Q 1658.45 442.8 1660.55 445.15 1660.95 445.65 1660.85 445.95 1660.7 446.3 1659.8 446.35 1659.15 446.65 1659.15 447.95
L 1659.15 456.4
Q 1659.15 458.65 1660 459.45 1660.75 460.1 1662.4 460.2 1670.65 460.75 1678.8 458.6 1679.95 458.3 1680.4 457.8 1680.75 457.3 1680.75 456.15 1680.95 449.2 1680.35 445.4 Z" stroke="none" fill="#000000"></path>
</g>
</g>
</g>
</g>

<g transform="matrix( 0.3621063232421875, 0, 0, 0.3621063232421875, -594.2,0.1)" id="MergedLayer_1">
<g>
<g>
<g>
<path d="M 1632.5 196.55
Q 1631.45 196.3435546875 1630.2 196.15
L 1630.2 205.55
Q 1630.7845703125 206.0421875 1631.2 206.6 1632.2 207.75 1633 210.6 1637.8 228.2 1638.75 251 1639.4 265 1638.6 292.15
L 1636.45 367.4
Q 1636.4 369.05 1635.8 369.7 1635.4 370.1 1633.95 370.45 1632.1138671875 370.8115234375 1630.2 371.15
L 1630.2 379
Q 1635.7513671875 378.2822265625 1640.7 377.3 1642.3 376.85 1642.7 376.35 1643.15 375.8 1643.2 374.5 1645.6 300.15 1646.2 268.3 1646.55 249.65 1645.9 239.4 1644.7 221.05 1639.95 203.5 1639.15 200.25 1637.85 198.95 1636.3 197.35 1632.5 196.55 Z" stroke="none" fill="#6C6C87"></path>

<path d="M 1631.2 206.6
Q 1630.7845703125 206.0421875 1630.2 205.55
L 1630.2 371.15
Q 1632.1138671875 370.8115234375 1633.95 370.45 1635.4 370.1 1635.8 369.7 1636.4 369.05 1636.45 367.4
L 1638.6 292.15
Q 1639.4 265 1638.75 251 1637.8 228.2 1633 210.6 1632.2 207.75 1631.2 206.6 Z" stroke="none" fill="#DEDFE9"></path>
</g>
</g>
</g>
</g>

<g transform="matrix( 0.3621063232421875, 0, 0, 0.3621063232421875, -594.2,0.1)" id="Layer_2"></g>
</g>
</svg>
