
<svg viewBox="0 0 135 115" height="115px" width="135px" y="0px" x="0px" preserveAspectRatio="none" xmlns:xlink="http://www.w3.org/1999/xlink" version="1.1" xmlns="http://www.w3.org/2000/svg">
<defs></defs>

<g id="Layer_1"></g>

<g id="Layer_2">
<g transform="matrix( 1.05511474609375, 0, 0, 1.0621795654296875, -21.7,43.1)" id="Layer_1">
<g>
<g>
<g>
<path d="M 36.65 45.35
Q 35.35 45.45 34.85 46.6 34.5 47.35 34.3 48.2 33.65 48.3 32.95 48.6 30.35 49.55 32.1 51.65 32.65 52.3 33.4 52.6 36.7 53.85 38.15 51.2 39.6 52.15 40.95 51.1 41.55 50.65 41.4 49.95 40.45 46.4 36.65 45.35
M 29 34.7
Q 28.75 35.4 28.5 36.1 27.05 36.25 26.65 37.65 26.35 38.55 27.05 39.2 30.35 41.95 32.2 38.5 33.35 39.8 34.9 38.85 35.4 38.6 35.4 38.05 35.5 33.95 31.1 33.2 29.6 33.3 29 34.7
M 80.9 -22.4
Q 73.25 -16.8 67.35 -9.5 64.6 -6.05 63.7 -1.9 58.65 1.05 54.95 5.65 52.85 8.25 52.15 11.5 51.1 14.45 51.05 17.7 51.05 19.1 51.2 20.45 51.55 23 52.95 25.15 53.15 26.2 53.8 26.95 54 27.15 54.2 27.4 50.253125 27.8767578125 46.25 28.1 42.6970703125 28.3529296875 39.1 28.4 38.3 28.45 37.55 28.75 34.5 30 35.7 33.35 36.35 36.15 37.45 38.85 39.3 43.4 41.95 47.4 44.3 50.95 47.5 53.8 47.85 54.45 48.45 55 54.05 60 61.15 62.45 73.65 66.75 87.05 67.1 101.6 67.45 115.45 63.2 121.4 61.4 126.25 57.6 130.35 54.8 133.95 51.35 135 50.3 135.95 49.1 140.55 43.15 144 36.4 145.1529296875 34.094140625 145.4 31.65 145.512890625 30.808203125 145.5 29.95 145.5 29.4 145.05 29.15 141.15 27 136.85 27.55 139.8 24.25 141.5 19.95 144.65 12.05 144.65 3.4 144.65 -4.1 142.75 -11.25 140.55 -19.45 135.35 -26.2 132.9 -29.35 129.35 -30.5 127.55 -30.3 125.65 -29.8 116.1 -27.2 107.9 -22.15 106.8 -24.95 105.35 -27.6 103.55 -30.9 100.2 -32.15 89.8 -28.95 80.9 -22.4
M 76.4 -6.45
Q 72.55 -5.75 69 -4.3 72.55 -10.2 77.7 -14.9 87.5 -23.95 100.1 -27.85 101.2 -26.4 102.2 -24.85 103.45 -22.75 104.4 -20.5 104.4 -20.2 104.55 -19.9 101.1 -17.5 97.95 -14.65 94.6 -11.65 91.3 -8.55 91.15 -8.4 91.05 -8.25 89.95 -8.6 88.5 -8.2 82.45 -7.6 76.4 -6.45
M 72.95 -1.3
Q 75.582421875 -2.08515625 78.25 -2.7 81.93046875 -3.49609375 85.7 -3.9 87.15 -4.05 88.6 -3.95 90.2 -3.8 91.55 -4.45 91.95 -4.3 92.45 -4.5 94.3 -5.45 95.8 -7.1 104.7 -16.85 116.55 -22.65 122.9 -25.7 129.65 -26.15 136.05 -20.15 138.55 -11.75 140.9 -3.9 140.7 4.55 140.5 10.95 138.2 16.9 138 17.2 137.85 17.45 137.5 18 137.4 18.65 137.35 18.9 137.35 19.2 135.4 23.7 132.1 27.15 130.55 28.8 131.9 29.95 131.85 30.6 132.4 31.45 132.4796875 31.5615234375 132.55 31.65 133.02734375 32.1181640625 133.7 31.95 134.615234375 31.75546875 135.5 31.65 137.62734375 31.4 139.6 31.65 140.4759765625 31.75546875 141.3 31.95 140.9 33.1 140.45 34.2 139.1 37.45 137.3 40.55 134.6 45.15 130.8 48.95 121.7 57.95 109.35 60.85 93.4 64.65 77.1 62.3 70.5 61.35 64.1 59.35 63.6 59.05 63 58.8 61 58 59 57.15 54.5 55.2 50.9 51.9 47.65 48.7 45.05 44.85 43.4 42.4 42.2 39.65 40.8 36.6 39.7 33.45 39.7 33.25 39.65 33.05 39.55 32.8 39.55 32.6 39.55 32.55 39.55 32.45 39.5 32.4 39.5 32.3 45.769140625 32.2236328125 51.95 31.65 53.8544921875 31.4736328125 55.75 31.25 57.25 31.1 58.6 30.6 59.5 30.25 59.5 29.35 59.5 29.2 59.5 29.05
L 59.55 29
Q 60.1 28.5 59.85 27.9 59 25.65 56.75 24.2 54.55 20.25 55.15 15.7 55.3326171875 14.290625 55.8 12.95 56.2046875 11.7732421875 56.85 10.65 56.966015625 10.4412109375 57.05 10.2 60.3015625 4.6876953125 65.75 1.65 66.05 1.5 66.35 1.35 67.75 0.55 69.35 -0.05 71.14453125 -0.7158203125 72.95 -1.3
M 58.7 35.2
Q 58.7 33.45 56.8 33.3 53.05 33.1 49.3 33.1 48.3 33.2 47.2 33.2 43.8 33.2 44.25 36.2 44.3 36.75 44.85 36.95 49.25 38.7 54.2 37.95 55.5 37.75 56.85 37.45 58.75 37.05 58.7 35.2
M 117.65 47.8
Q 116.5 47.85 115.85 48.8 114.05 51.4 111.3 53 108.75 54.45 105.9 55 97.25 56.65 90 52.05 89.05 51.4 88.15 52.05 85.75 53.7 88.2 55.3 94.75 59.75 102.8 59.5 111.85 59.15 117.8 52.75 118.35 52.15 118.85 51.5 120.8 48.75 117.65 47.8
M 90.05 29.55
Q 89.95 27.1 87.7 26.5 87.5 26.55 87.2 26.6 86.45 26.8 86.15 27.45 85.45 29.1 85.95 30.95 86.069140625 31.3474609375 86.3 31.65 86.6673828125 32.108984375 87.3 32.35 88.980078125 32.9236328125 89.65 31.65 89.80078125 31.369921875 89.9 31 90.05 30.3 90.05 29.55
M 100.5 31.65
Q 100.868359375 32.3173828125 101.2 33 102.1 34.8 103.9 33.8 104.85 33.3 104.7 32.25 104.6677734375 31.95 104.6 31.65 104.4322265625 30.55 104 29.45 103.15 27.15 100.95 26.55 100.6 26.55 100.2 26.75 98.35 27.8 99.4 29.6 99.9794921875 30.6064453125 100.5 31.65
M 122.9 31.65
Q 122.9837890625 31.5326171875 123.05 31.4 123.6 30.3 122.7 29.45 120.2 27.05 116.9 26.2 116.4 26.2 115.95 26.55 114.05 28.05 115.75 29.75 116.2 30.15 116.75 30.45 117.9166015625 31.05 119.1 31.65 119.7 31.95 120.3 32.25 122.013671875 33.130078125 122.9 31.65
M 124.8 16
Q 124.5 14.85 124 13.85 120.9 7.4 114 4.85 106 1.95 97.45 2.8 97.25 2.8 97 2.85 93.6 3.25 90.35 4.3 83.6 6.55 79.45 12.15 78.65 13.25 78.25 14.55 76.75 19.3 78.05 24.25 78.8 27.05 81.35 25.4 92.2 25.35 103.05 25.35 103.5 25.35 103.95 25.4 106 25.55 108.05 25.7 115.05 26.4 122.15 25.6 122.5 25.55 122.85 25.45 123.4 25.3 123.65 24.85 126.05 20.75 124.8 16
M 81.45 16.2
Q 82.55 14 84.45 12.4 90.05 7.6 97.55 6.75 100.2 6.5 102.85 6.65 98.3 10.35 98.95 16.4 99.3 19.55 101 21.5 91.25 21.3 81.55 21.1 81.55 20.8 81.5 20.55 81.4 19.75 81.25 18.95 81.1 18.15 81.25 17.35 81.4 16.8 81.45 16.2 Z" stroke="none" fill="#000000"></path>

<path d="M 88.6 -3.95
Q 87.15 -4.05 85.7 -3.9 81.93046875 -3.49609375 78.25 -2.7 73.44140625 0.5919921875 70.35 4.85 67.4 9 66.4 13.95 65.35 19.05 66.75 23.75 63.5 23.25 60.8 21.2 58.15 19.2 56.75 16.25 56.0541015625 14.670703125 55.8 12.95 55.3326171875 14.290625 55.15 15.7 54.55 20.25 56.75 24.2 59 25.65 59.85 27.9 60.1 28.5 59.55 29
L 59.5 29.05
Q 59.5 29.2 59.5 29.35 59.5 30.25 58.6 30.6 57.25 31.1 55.75 31.25 53.8544921875 31.4736328125 51.95 31.65 45.769140625 32.2236328125 39.5 32.3 39.5 32.4 39.55 32.45 39.55 32.55 39.55 32.6 39.55 32.8 39.65 33.05 39.7 33.25 39.7 33.45 40.8 36.6 42.2 39.65 43.4 42.4 45.05 44.85 47.65 48.7 50.9 51.9 54.5 55.2 59 57.15 61 58 63 58.8 63.6 59.05 64.1 59.35 70.5 61.35 77.1 62.3 93.4 64.65 109.35 60.85 121.7 57.95 130.8 48.95 134.6 45.15 137.3 40.55 139.1 37.45 140.45 34.2 140.9 33.1 141.3 31.95 140.4759765625 31.75546875 139.6 31.65 137.62734375 31.4 135.5 31.65 134.615234375 31.75546875 133.7 31.95 133.02734375 32.1181640625 132.55 31.65 132.4796875 31.5615234375 132.4 31.45 131.85 30.6 131.9 29.95 130.55 28.8 132.1 27.15 135.4 23.7 137.35 19.2 137.35 18.9 137.4 18.65 137.5 18 137.85 17.45 138 17.2 138.2 16.9 140.5 10.95 140.7 4.55 140.9 -3.9 138.55 -11.75 136.05 -20.15 129.65 -26.15 122.9 -25.7 116.55 -22.65 104.7 -16.85 95.8 -7.1 94.3 -5.45 92.45 -4.5 91.95 -4.3 91.55 -4.45 90.2 -3.8 88.6 -3.95
M 130.25 -21
Q 136.55 -10.95 136.35 -1.85 136.25 3.3 133.9 7.85 131.4 12.65 127.1 15 126.15 8.55 122.7 2.9 119.6767578125 -2.051171875 115.25 -5.55 122.104296875 -14.3728515625 130.25 -21
M 124 13.85
Q 124.5 14.85 124.8 16 126.05 20.75 123.65 24.85 123.4 25.3 122.85 25.45 122.5 25.55 122.15 25.6 115.05 26.4 108.05 25.7 106 25.55 103.95 25.4 103.5 25.35 103.05 25.35 92.2 25.35 81.35 25.4 78.8 27.05 78.05 24.25 76.75 19.3 78.25 14.55 78.65 13.25 79.45 12.15 83.6 6.55 90.35 4.3 93.6 3.25 97 2.85 97.25 2.8 97.45 2.8 106 1.95 114 4.85 120.9 7.4 124 13.85
M 123.05 31.4
Q 122.9837890625 31.5326171875 122.9 31.65 122.013671875 33.130078125 120.3 32.25 119.7 31.95 119.1 31.65 117.9166015625 31.05 116.75 30.45 116.2 30.15 115.75 29.75 114.05 28.05 115.95 26.55 116.4 26.2 116.9 26.2 120.2 27.05 122.7 29.45 123.6 30.3 123.05 31.4
M 101.2 33
Q 100.868359375 32.3173828125 100.5 31.65 99.9794921875 30.6064453125 99.4 29.6 98.35 27.8 100.2 26.75 100.6 26.55 100.95 26.55 103.15 27.15 104 29.45 104.4322265625 30.55 104.6 31.65 104.6677734375 31.95 104.7 32.25 104.85 33.3 103.9 33.8 102.1 34.8 101.2 33
M 87.7 26.5
Q 89.95 27.1 90.05 29.55 90.05 30.3 89.9 31 89.80078125 31.369921875 89.65 31.65 88.980078125 32.9236328125 87.3 32.35 86.6673828125 32.108984375 86.3 31.65 86.069140625 31.3474609375 85.95 30.95 85.45 29.1 86.15 27.45 86.45 26.8 87.2 26.6 87.5 26.55 87.7 26.5
M 115.85 48.8
Q 116.5 47.85 117.65 47.8 120.8 48.75 118.85 51.5 118.35 52.15 117.8 52.75 111.85 59.15 102.8 59.5 94.75 59.75 88.2 55.3 85.75 53.7 88.15 52.05 89.05 51.4 90 52.05 97.25 56.65 105.9 55 108.75 54.45 111.3 53 114.05 51.4 115.85 48.8
M 56.8 33.3
Q 58.7 33.45 58.7 35.2 58.75 37.05 56.85 37.45 55.5 37.75 54.2 37.95 49.25 38.7 44.85 36.95 44.3 36.75 44.25 36.2 43.8 33.2 47.2 33.2 48.3 33.2 49.3 33.1 53.05 33.1 56.8 33.3
M 69 -4.3
Q 72.55 -5.75 76.4 -6.45 82.45 -7.6 88.5 -8.2 89.95 -8.6 91.05 -8.25 91.15 -8.4 91.3 -8.55 94.6 -11.65 97.95 -14.65 101.1 -17.5 104.55 -19.9 104.4 -20.2 104.4 -20.5 103.45 -22.75 102.2 -24.85 101.2 -26.4 100.1 -27.85 87.5 -23.95 77.7 -14.9 72.55 -10.2 69 -4.3 Z" stroke="none" fill="#655F97"></path>

<path d="M 84.45 12.4
Q 82.55 14 81.45 16.2 81.4 16.8 81.25 17.35 81.1 18.15 81.25 18.95 81.4 19.75 81.5 20.55 81.55 20.8 81.55 21.1 91.25 21.3 101 21.5 99.3 19.55 98.95 16.4 98.3 10.35 102.85 6.65 100.2 6.5 97.55 6.75 90.05 7.6 84.45 12.4 Z" stroke="none" fill="#FFFFFF"></path>

<path d="M 136.35 -1.85
Q 136.55 -10.95 130.25 -21 122.104296875 -14.3728515625 115.25 -5.55 119.6767578125 -2.051171875 122.7 2.9 126.15 8.55 127.1 15 131.4 12.65 133.9 7.85 136.25 3.3 136.35 -1.85 Z" stroke="none" fill="#504884"></path>

<path d="M 72.95 -1.3
Q 71.14453125 -0.7158203125 69.35 -0.05 67.75 0.55 66.35 1.35 66.05 1.5 65.75 1.65 60.3015625 4.6876953125 57.05 10.2 57.466796875 12.7541015625 58.45 14.95 60.05 18.7 63.1 20.75 63.1 12.8 67.35 5.7 69.70703125 1.7154296875 72.95 -1.3 Z" stroke="none" fill="#2A2D69"></path>

<path d="M 78.25 -2.7
Q 75.582421875 -2.08515625 72.95 -1.3 69.70703125 1.7154296875 67.35 5.7 63.1 12.8 63.1 20.75 60.05 18.7 58.45 14.95 57.466796875 12.7541015625 57.05 10.2 56.966015625 10.4412109375 56.85 10.65 56.2046875 11.7732421875 55.8 12.95 56.0541015625 14.670703125 56.75 16.25 58.15 19.2 60.8 21.2 63.5 23.25 66.75 23.75 65.35 19.05 66.4 13.95 67.4 9 70.35 4.85 73.44140625 0.5919921875 78.25 -2.7 Z" stroke="none" fill="#8CB6E5"></path>
</g>
</g>
</g>
</g>
</g>
</svg>
