
<svg viewBox="0 0 112 184" height="184px" width="112px" y="0px" x="0px" preserveAspectRatio="none" xmlns:xlink="http://www.w3.org/1999/xlink" version="1.1" xmlns="http://www.w3.org/2000/svg">
<defs></defs>

<g id="fun_scrollers">
<g transform="matrix( 0.3621063232421875, 0, 0, 0.3621063232421875, -594.2,0.1)" id="svg"></g>

<g transform="matrix( 0.3621063232421875, 0, 0, 0.3621063232421875, -594.2,0.1)" id="Layer_2"></g>

<g transform="matrix( 0.3621063232421875, 0, 0, 0.3621063232421875, -594.2,0.1)" id="Layer_3"></g>

<g transform="matrix( 0.3621063232421875, 0, 0, 0.3621063232421875, -594.2,0.1)" id="Layer_2">
<g>
<g>
<g>
<path d="M 1646.8 444.1
L 1639.95 443.8 1639.95 460.1
Q 1639.95 462.35 1639.7 463.4 1639.5 464.3 1638.85 466 1638.65 466.8 1638.4 470.1 1637.95 476.95 1634.45 482.8 1633.45 483.05 1630.5 482.75 1630.34765625 482.734375 1630.2 482.7
L 1630.2 505.15 1630.55 505.15
Q 1633.55 502.95 1636.15 499.1 1637.8 496.7 1640.3 491.85 1642.65 487.2 1643.7 484.45 1645.25 480.2 1645.35 476.6 1645.35 475.35 1645.4 474.7 1645.45 473.55 1645.65 472.8 1646.3 471.2 1646.5 470.4 1646.8 469.35 1646.8 467.15
L 1646.8 444.1
M 1743.7 427.55
L 1743.3 427.55
Q 1742.2365234375 429.90546875 1740.6 432.5 1738.6806640625 434.6416015625 1736.9 436.35
L 1736.9 446.85
Q 1736.8 449.3 1737.05 450.9 1737.35 453.35 1739.15 458.05
L 1742.05 465.65
Q 1743.15 468.4 1743.3 469.45 1743.35 470 1743.4 471.3 1743.45 472.45 1743.55 473.1 1744.7 473 1748.3 473.2 1751.3 473.4 1753.05 473 1754.45 472.75 1755.05 471.9 1755.55 471.25 1755.55 469.6
L 1755.45 460.1 1749 459.8
Q 1747.55 454.8 1745.75 450.65 1744.25 446.8 1744 445.65 1743.7 444.2 1743.7 441.2
L 1743.7 427.55 Z" stroke="none" fill="#000000"></path>

<path d="M 1630.9 96.15
L 1630.2 96.1 1630.2 104.1
Q 1630.740625 103.8560546875 1631.3 103.6
L 1634.7 102.05
Q 1633.45 101.6 1631.75 101
L 1631.5 98.85
Q 1631.5 98.75 1632.05 91.4
L 1631.5 91.35 1631.1 91.35 1630.9 96.15
M 1732.5 98.7
Q 1732.15703125 97.6634765625 1732.05 97.2 1731.95 96.6 1731.9 94.55
L 1731.95 92.3 1732.05 90.05 1731.7 90.05 1731.1 90.05
Q 1731.75 94.65 1731.8 96.85 1731.85 100.45 1730.8 103.5 1726.35 104.55 1724.45 104.75
L 1724.4 105.25
Q 1726.1603515625 105.549609375 1727.9 106.25 1728.4728515625 106.511328125 1729.05 106.8
L 1731.65 108.35
Q 1740.15 113.55 1745.15 120.5 1750 128.05 1752.05 137.05 1753.85 145.05 1753.7 154.95
L 1753.65 157.5
Q 1753.3 169.8 1751.6 191.65
L 1749.35 221.6
Q 1749 226.2 1748.25 230 1747.75 232.9 1747.35 235.75
L 1745 263.8
Q 1742.95 289.75 1741.5 320.95 1740.5 343.75 1739.45 378.1
L 1738.6 407.9
Q 1738.35 416.45 1737.8 420.65 1736 424.5 1735.15 425.6 1734.3 426.8 1731.2 429.75
L 1726.25 434.45 1724.35 438 1724.25 438.2
Q 1724.0169921875 438.23359375 1723.75 438.25 1718.95078125 438.90234375 1710.05 438.95
L 1644.55 437.3
Q 1636.15 437.2412109375 1630.2 437.1
L 1630.2 443.35 1639.95 443.8 1646.8 444.1 1674.45 445.4
Q 1691.15 446.15 1697.8 446.25 1710.95 446.3 1721.2 444.9 1727.45 443.45 1731.95 440.4 1734.2740234375 438.8505859375 1736.9 436.35 1738.6806640625 434.6416015625 1740.6 432.5 1742.2365234375 429.90546875 1743.3 427.55 1744.9794921875 423.9841796875 1745.4 420.95 1746.15 415.75 1746.6 391.7
L 1746.95 372.95
Q 1747.65 338.35 1748.75 313.8 1750.2 281.8 1752.75 254.75 1754.75 234.4 1756.8 206.95
L 1758.9 181.65
Q 1760.5 161.7 1760.15 151.65 1759.5 135.1 1754.4 122.4 1751.35 116.05 1748.4 112.15 1744.6 107.1 1739.75 104.3 1735.15 101.85 1732.8 99.65 1732.627734375 99.1333984375 1732.5 98.7 Z" stroke="none" fill="#706C84"></path>

<path d="M 1718.35 20.7
Q 1711.8 16.35 1705.3 14.2 1698.85 12.05 1690.9 11.6
L 1687.15 11.5
Q 1662.05 10.35 1639.2 12
L 1635.75 12.3
Q 1632.7302734375 12.5384765625 1630.2 12.75
L 1630.2 18.9
Q 1669.0611328125 11.5888671875 1707.85 22.55 1707.85 22.85 1714.25 27.75 1720.85 33.6 1721.6 38.6 1721.7 39.35 1721.85 40.2
L 1650.65 39.35 1649.75 36.4 1630.2 35.35 1630.2 42.3 1640.9 42.85
Q 1639.6 46.35 1638.95 50.35 1638.35 53.35 1637.95 58.05 1637.25 66.45 1636.85 69.4 1635.85 75.75 1634.15 80.5 1632.1451171875 85.603515625 1631.5 91.35
L 1632.05 91.4
Q 1631.5 98.75 1631.5 98.85
L 1631.75 101
Q 1633.45 101.6 1634.7 102.05
L 1631.3 103.6
Q 1631.525 103.525 1631.75 103.45 1635.35 102.35 1638.85 102.05
L 1649.15 102.6
Q 1654.1 102.85 1664 103.2 1673.1 103.4 1682.25 103.8
L 1719.15 105.1
Q 1721.8 105.1 1722.6 105.2 1723.5 105.3 1725.95 105.65 1726.55 105.9 1727.2 106.25
L 1727.9 106.25
Q 1726.1603515625 105.549609375 1724.4 105.25
L 1724.45 104.75
Q 1726.35 104.55 1730.8 103.5 1731.85 100.45 1731.8 96.85 1731.75 94.65 1731.1 90.05
L 1731.7 90.05
Q 1731.49765625 88.37578125 1731.2 86.8 1728.35 71.45 1729.05 51.25
L 1729.5 42.6
Q 1729.8 36.35 1728.85 32.3 1727.65 29.2 1725.9 26.95 1724.25 24.85 1721.45 22.7
L 1718.35 20.7
M 1713.75 45.5
Q 1718.1 45.95 1721.65 47.85 1722.35 49.5 1722.6 51.15 1722.65 52 1722.65 54.6
L 1722.65 60.8
Q 1722.7 75 1724.85 88.5 1725.6 94.15 1725.2 98
L 1723.25 99.85
Q 1719.85 100 1715.15 99.9
L 1637.65 97.7
Q 1638.5 90.75 1638.85 89.05 1639.2 87.3 1640.35 84 1642.3 77.75 1643.25 67.45 1644.45 54.6 1646.65 46.9
L 1649.55 44.1
Q 1651.7 43.9 1652.5 43.85 1653.3 43.85 1655.95 43.9
L 1713.75 45.5
M 1732.05 97.2
Q 1732.15703125 97.6634765625 1732.5 98.7
L 1732.25 96.6
Q 1732.166796875 94.39296875 1731.95 92.3
L 1731.9 94.55
Q 1731.95 96.6 1732.05 97.2 Z" stroke="none" fill="#7E1A34"></path>

<path d="M 1721.65 47.85
Q 1718.1 45.95 1713.75 45.5
L 1655.95 43.9
Q 1653.3 43.85 1652.5 43.85 1651.7 43.9 1649.55 44.1
L 1646.65 46.9
Q 1644.45 54.6 1643.25 67.45 1642.3 77.75 1640.35 84 1639.2 87.3 1638.85 89.05 1638.5 90.75 1637.65 97.7
L 1715.15 99.9
Q 1719.85 100 1723.25 99.85
L 1725.2 98
Q 1725.6 94.15 1724.85 88.5 1722.7 75 1722.65 60.8
L 1722.65 54.6
Q 1722.65 52 1722.6 51.15 1722.35 49.5 1721.65 47.85 Z" stroke="none" fill="#E21F2D"></path>

<path d="M 1633.25 386.2
L 1630.2 386.05 1630.2 407.05
Q 1631.6220703125 407.0625 1633.2 407.05
L 1641.05 407.05
Q 1651.35 407.35 1661.6 407.3 1673.4 407.25 1682.9 407.4 1703.95 407.7 1714.5 407.75
L 1718 407.7
Q 1722.8 407.8 1728.9 407.6
L 1729.9 406.65
Q 1730.9 402.15 1731.1 399 1731.3 395 1730.25 391.25 1727 389.7 1725.25 389.5 1723.5 389.3 1716.25 389.4
L 1700.25 389.4
Q 1690.75 389.45 1675.9 388.45 1667.9 388 1660.05 387.65 1653.45 387.4 1646.8 387 1637.75 386.35 1633.25 386.2
M 1727.6 229.55
L 1725.4 228.95 1716.35 228.9
Q 1707.2 228.7 1700.25 229.05 1688.7 229.65 1672.95 229.3
L 1664.4 229.15
Q 1663.05 229.05 1641 228.25 1634.31640625 227.9779296875 1630.2 227.85
L 1630.2 249.65
Q 1632.4470703125 249.9296875 1639.95 249.65 1641.9 249.55 1645.75 249.55 1654.05 249.6 1660.65 249.45 1665.8 249.35 1676.2 249.3 1690.85 249.35 1693.8 249.25
L 1701.75 249.15
Q 1705.7 249.1 1709.75 249.2
L 1710.7 251.15
Q 1721.75 253 1729.95 251.65
L 1731.25 249.35
Q 1731.3 247.05 1731.3 246.25 1731.2 245.5 1730.85 243.2
L 1730.25 240.15
Q 1729.6 233.55 1727.6 229.55 Z" stroke="none" fill="#9DAEEA"></path>

<path d="M 1630.2 151.4
L 1630.2 163.3
Q 1632.93046875 164.54921875 1634.95 165.3 1640.8 167.55 1646 168.1 1653.6 168.7 1661.7 171.7 1670.25 175.05 1674.8 175 1679.25 174.95 1697.75 171.3
L 1711.5 168.6
Q 1721.1 166.75 1729.55 166.65 1731.95 166.7 1732.65 166.65 1733.3 166.55 1735 166.25
L 1735.15 161.45 1737.05 161.5 1737.4 155.7 1737.15 155.7 1731.45 155.55
Q 1728.65 155.7 1727.85 155.7 1727.05 155.65 1725.05 155.45
L 1716.4 154.65
Q 1708.7 153.95 1701.95 153.7
L 1699.25 153.6
Q 1685.5 153.1 1671.7 152.75
L 1630.2 151.4 Z" stroke="none" fill="#992A3F"></path>

<path d="M 1630.2 149.95
L 1630.2 151.4 1671.7 152.75
Q 1685.5 153.1 1699.25 153.6
L 1701.95 153.7
Q 1708.7 153.95 1716.4 154.65
L 1725.05 155.45
Q 1727.05 155.65 1727.85 155.7 1728.65 155.7 1731.45 155.55
L 1731.5 151.8
Q 1731 151.7 1730.55 151.7 1729.5 151.55 1728.45 151.55 1727.25 151.5 1726.1 151.5 1724.85 151.45 1723.65 151.45 1722.35 151.45 1721.05 151.45 1715.75 151.5 1710.45 151.6 1709.6 151.6 1708.8 151.7 1707.85 151.65 1706.9 151.7 1705.8 151.7 1704.75 151.75 1703.6 151.7 1702.45 151.7 1701.2 151.7 1699.95 151.7 1698.55 151.7 1697.2 151.7 1695.75 151.7 1694.35 151.75 1692.75 151.7 1691.15 151.65 1690.05 151.6 1688.95 151.6 1688.25 151.55 1687.65 151.55 1686.9 151.55 1686.15 151.5 1684.45 151.45 1682.8 151.4 1679.8 151 1676.95 150.95 1674.35 150.85 1671.8 150.75 1669.15 150.65 1666.5 150.6 1661.05 150.6 1655.65 150.6
L 1630.2 149.95
M 1682.25 103.8
Q 1673.1 103.4 1664 103.2 1654.1 102.85 1649.15 102.6
L 1638.85 102.05
Q 1635.35 102.35 1631.75 103.45 1631.525 103.525 1631.3 103.6 1630.740625 103.8560546875 1630.2 104.1
L 1630.2 122.05
Q 1630.275390625 122.04375 1630.35 122.05 1631.05 122.05 1631.75 122.05
L 1721.65 125.15
Q 1722.75 125.25 1723.85 125.3 1724.85 125.4 1725.85 125.5 1726.8 125.65 1727.85 125.8 1728.7 125.9 1729.6 126.05 1730.4 126.25 1731.35 126.4 1732.15 126.55 1733 126.8 1733.8 127 1734.6 127.3 1735.3 127.55 1735.9 127.9 1736.9 128.8 1737.85 129.75
L 1737.15 155.7 1737.4 155.7 1737.05 161.5 1735.15 161.45 1735 166.25
Q 1733.3 166.55 1732.65 166.65 1731.95 166.7 1729.55 166.65 1721.1 166.75 1711.5 168.6
L 1697.75 171.3
Q 1679.25 174.95 1674.8 175 1670.25 175.05 1661.7 171.7 1653.6 168.7 1646 168.1 1640.8 167.55 1634.95 165.3 1632.93046875 164.54921875 1630.2 163.3
L 1630.2 227.85
Q 1634.31640625 227.9779296875 1641 228.25 1663.05 229.05 1664.4 229.15
L 1672.95 229.3
Q 1688.7 229.65 1700.25 229.05 1707.2 228.7 1716.35 228.9
L 1725.4 228.95 1727.6 229.55
Q 1729.6 233.55 1730.25 240.15
L 1730.85 243.2
Q 1731.2 245.5 1731.3 246.25 1731.3 247.05 1731.25 249.35
L 1729.95 251.65
Q 1721.75 253 1710.7 251.15
L 1709.75 249.2
Q 1705.7 249.1 1701.75 249.15
L 1693.8 249.25
Q 1690.85 249.35 1676.2 249.3 1665.8 249.35 1660.65 249.45 1654.05 249.6 1645.75 249.55 1641.9 249.55 1639.95 249.65 1632.4470703125 249.9296875 1630.2 249.65
L 1630.2 386.05 1633.25 386.2
Q 1637.75 386.35 1646.8 387 1653.45 387.4 1660.05 387.65 1667.9 388 1675.9 388.45 1690.75 389.45 1700.25 389.4
L 1716.25 389.4
Q 1723.5 389.3 1725.25 389.5 1727 389.7 1730.25 391.25 1731.3 395 1731.1 399 1730.9 402.15 1729.9 406.65
L 1728.9 407.6
Q 1722.8 407.8 1718 407.7
L 1714.5 407.75
Q 1703.95 407.7 1682.9 407.4 1673.4 407.25 1661.6 407.3 1651.35 407.35 1641.05 407.05
L 1633.2 407.05
Q 1631.6220703125 407.0625 1630.2 407.05
L 1630.2 437.1
Q 1636.15 437.2412109375 1644.55 437.3
L 1710.05 438.95
Q 1718.95078125 438.90234375 1723.75 438.25 1724.067578125 438.1501953125 1724.35 438
L 1726.25 434.45 1731.2 429.75
Q 1734.3 426.8 1735.15 425.6 1736 424.5 1737.8 420.65 1738.35 416.45 1738.6 407.9
L 1739.45 378.1
Q 1740.5 343.75 1741.5 320.95 1742.95 289.75 1745 263.8
L 1747.35 235.75
Q 1747.75 232.9 1748.25 230 1749 226.2 1749.35 221.6
L 1751.6 191.65
Q 1753.3 169.8 1753.65 157.5
L 1753.7 154.95
Q 1753.85 145.05 1752.05 137.05 1750 128.05 1745.15 120.5 1740.15 113.55 1731.65 108.35
L 1729.05 106.8
Q 1728.4728515625 106.511328125 1727.9 106.25
L 1727.2 106.25
Q 1726.55 105.9 1725.95 105.65 1723.5 105.3 1722.6 105.2 1721.8 105.1 1719.15 105.1
L 1682.25 103.8
M 1689.45 180.45
L 1691.3 178.3
Q 1695.8 174.4 1701.5 173.15 1705.3 172.35 1713 172.35
L 1716.35 172.3
Q 1721.55 172.45 1725.25 173.65 1727.35 175.5 1728.7 177.65 1729.85 179.5 1730.75 182.45 1731.4 187.05 1731.05 193.4
L 1730.95 196.2
Q 1730.75 200.3 1730.2 202.2 1729.5 204.55 1727.25 207.35
L 1726.2 211.2
Q 1721.6 213.3 1714.8 213.8 1711.65 214.1 1703.05 214
L 1700.45 214.05
Q 1697 213.95 1695.05 213.4 1692.65 212.8 1690.15 211.1 1687.15 207.65 1686.5 206.75 1685.9 205.75 1685 203.45 1684.75 200.4 1684.7 199.35 1684.7 198.3 1684.75 194.9
L 1684.85 190.3
Q 1685.25 187 1686.25 184.95 1687.15 183.1 1689.45 180.45 Z" stroke="none" fill="#F5F7F9"></path>

<path d="M 1630.35 122.05
Q 1630.275390625 122.04375 1630.2 122.05
L 1630.2 149.95 1655.65 150.6
Q 1661.05 150.6 1666.5 150.6 1669.15 150.65 1671.8 150.75 1674.35 150.85 1676.95 150.95 1679.8 151 1682.8 151.4 1684.45 151.45 1686.15 151.5 1686.9 151.55 1687.65 151.55 1688.25 151.55 1688.95 151.6 1690.05 151.6 1691.15 151.65 1692.75 151.7 1694.35 151.75 1695.75 151.7 1697.2 151.7 1698.55 151.7 1699.95 151.7 1701.2 151.7 1702.45 151.7 1703.6 151.7 1704.75 151.75 1705.8 151.7 1706.9 151.7 1707.85 151.65 1708.8 151.7 1709.6 151.6 1710.45 151.6 1715.75 151.5 1721.05 151.45 1722.35 151.45 1723.65 151.45 1724.85 151.45 1726.1 151.5 1727.25 151.5 1728.45 151.55 1729.5 151.55 1730.55 151.7 1731 151.7 1731.5 151.8
L 1731.45 155.55 1737.15 155.7 1737.85 129.75
Q 1736.9 128.8 1735.9 127.9 1735.3 127.55 1734.6 127.3 1733.8 127 1733 126.8 1732.15 126.55 1731.35 126.4 1730.4 126.25 1729.6 126.05 1728.7 125.9 1727.85 125.8 1726.8 125.65 1725.85 125.5 1724.85 125.4 1723.85 125.3 1722.75 125.25 1721.65 125.15
L 1631.75 122.05
Q 1631.05 122.05 1630.35 122.05 Z" stroke="none" fill="#110F1A"></path>

<path d="M 1691.3 178.3
L 1689.45 180.45
Q 1687.15 183.1 1686.25 184.95 1685.25 187 1684.85 190.3
L 1684.75 194.9
Q 1684.7 198.3 1684.7 199.35 1684.75 200.4 1685 203.45 1685.9 205.75 1686.5 206.75 1687.15 207.65 1690.15 211.1 1692.65 212.8 1695.05 213.4 1697 213.95 1700.45 214.05
L 1703.05 214
Q 1711.65 214.1 1714.8 213.8 1721.6 213.3 1726.2 211.2
L 1727.25 207.35
Q 1729.5 204.55 1730.2 202.2 1730.75 200.3 1730.95 196.2
L 1731.05 193.4
Q 1731.4 187.05 1730.75 182.45 1729.85 179.5 1728.7 177.65 1727.35 175.5 1725.25 173.65 1721.55 172.45 1716.35 172.3
L 1713 172.35
Q 1705.3 172.35 1701.5 173.15 1695.8 174.4 1691.3 178.3
M 1693.6 186.9
Q 1694.7 185.6 1698.85 182.2 1701.5 180.35 1703.8 179.65 1706.15 178.95 1709.4 178.85
L 1713.3 179
Q 1716.75 179.1 1720.25 179.35 1721.25 180.35 1721.65 180.95 1722.1 181.55 1723.55 184.2 1725.35 187.6 1725.75 190.8 1726.1 193.45 1725.6 197.7
L 1724.6 198.65
Q 1723.45 201.15 1722.95 202.05 1722.45 202.85 1720.6 205.3 1715.55 207.7 1709.65 208.2 1704.65 208.55 1698.35 207.65 1695.25 206.45 1694.4 205.8 1693.55 205.2 1691.8 202.65 1689.95 198.05 1690.1 192.95 1692.45 188.3 1693.6 186.9 Z" stroke="none" fill="#5D5A76"></path>

<path d="M 1698.85 182.2
Q 1694.7 185.6 1693.6 186.9 1692.45 188.3 1690.1 192.95 1689.95 198.05 1691.8 202.65 1693.55 205.2 1694.4 205.8 1695.25 206.45 1698.35 207.65 1704.65 208.55 1709.65 208.2 1715.55 207.7 1720.6 205.3 1722.45 202.85 1722.95 202.05 1723.45 201.15 1724.6 198.65
L 1725.6 197.7
Q 1726.1 193.45 1725.75 190.8 1725.35 187.6 1723.55 184.2 1722.1 181.55 1721.65 180.95 1721.25 180.35 1720.25 179.35 1716.75 179.1 1713.3 179
L 1709.4 178.85
Q 1706.15 178.95 1703.8 179.65 1701.5 180.35 1698.85 182.2 Z" stroke="none" fill="#F1F3F7"></path>

<path d="M 1721.85 40.2
Q 1721.7 39.35 1721.6 38.6 1720.85 33.6 1714.25 27.75 1707.85 22.85 1707.85 22.55 1669.0611328125 11.5888671875 1630.2 18.9
L 1630.2 35.35 1649.75 36.4 1650.65 39.35 1721.85 40.2 Z" stroke="none" fill="#DF202E"></path>
</g>
</g>
</g>
</g>

<g transform="matrix( 0.3621063232421875, 0, 0, 0.3621063232421875, -594.2,0.1)" id="Layer_3">
<g>
<g>
<g>
<path d="M 1630.2 304.05
L 1630.2 311.9
Q 1664.8263671875 316.7072265625 1696.4 321.5 1705.8 322.9 1710 323.4 1717.65 324.3 1723.7 324.35
L 1723.55 317.45 1630.2 304.05
M 1630.2 279.8
Q 1630.9486328125 280.1953125 1631.7 280.55
L 1635.25 282.15
Q 1636.75 282.85 1637.6 282.85 1638.65 282.85 1638.85 282.9
L 1639.7 283.45
Q 1640.45 283.9 1642.25 284.15 1643 284.35 1644.45 284.9 1645.25 285.1 1646.85 285.1
L 1654.6 285.2 1654.6 283.65
Q 1656.65 284.6 1658.75 285.55 1661.95 287 1663.2 287.35 1666.95 288.55 1670.7 288 1670.35 287.05 1670.7 284.4 1671 282.1 1670.2 281.1 1669.75 280.6 1668.55 280
L 1663.8 277.85
Q 1649.3 271.3 1640.65 267.95 1634.423828125 265.5287109375 1630.2 264.55
L 1630.2 279.8
M 1708.8 494.4
Q 1708.8 492.7 1708.6 491.85 1708.05 489.9 1705.15 487.5
L 1699.2 482.45
Q 1697.05 480.6 1695.5 479.8 1693.3 478.65 1691.35 479 1694.9 472.7 1696.55 469.5 1699.25 464.15 1700.8 459.6 1702.35 454.5 1703.35 452.05 1704.9 448.35 1705.1 447.6 1705.85 444.9 1705.45 439.75
L 1698.65 439.65 1694.4 451.25
Q 1692.2 457.45 1690.6 460.75 1689.65 462.75 1687.45 466.65 1685.3 470.5 1684.35 472.55 1683.6 474.1 1683.25 475.35 1682.9 476.85 1683 479.25 1683.15 482.55 1683.15 483.15 1683.1 483.9 1683 485.4 1682.95 486.7 1683.35 487.6 1683.9 488.95 1686.05 490.4 1691.1 494.05 1696.65 497.45 1699.05 498.85 1700.35 499.2 1701.85 499.6 1704.55 499.4 1707.55 499.25 1708.75 499.4
L 1708.8 494.4
M 1736.45 253.25
Q 1730.05 253.05 1723.2 253.5 1717.45 254 1714.3 254.9 1712.2 255.5 1708.2 257.2 1703.4 259.25 1700.95 260.6 1697.05 262.75 1694.55 265.25 1691.2 268.65 1689.65 273.3 1688.05 278 1688.7 282.7
L 1692.5 282.75
Q 1692.55 282.95 1692.65 283.05 1692.8 283.2 1693.2 283.2
L 1701.1 283.3
Q 1701.8 283.3 1702.15 283.2 1702.85 283 1703.85 281.95 1705.1 281.3 1705.55 280.8 1705.85 280.55 1706.15 280.05 1706.6 279.4 1706.7 279.25 1707.45 278.25 1708.75 277.9 1708.8 277.4 1709.4 276.85 1710.2 276.15 1710.35 275.95 1710.7 275.45 1710.7 274.3
L 1710.7 268.5
Q 1710.7 266.7 1710.55 266.15
L 1710.5 266.15
Q 1712.4 265.25 1714.85 264.2 1719.65 262.25 1721.55 261.7 1724.5 260.95 1729.8 260.45 1732.45 260.15 1733.9 260.55 1735.25 261 1736.65 262.15 1742.2 266.6 1743.6 273.5
L 1750.35 273.6
Q 1751.05 268.8 1749.65 264.25 1748.2 259.45 1744.85 256.35 1742.65 254.35 1740.6 253.75 1738.9 253.25 1736.45 253.25 Z" stroke="none" fill="#000000"></path>
</g>
</g>
</g>
</g>

<g transform="matrix( 0.3621063232421875, 0, 0, 0.3621063232421875, -594.2,0.1)" id="Layer_6">
<g>
<g>
<g>
<path d="M 1936.95 417.6
Q 1936.568359375 417.8021484375 1936.2 418 1934.75 420.95 1934.4 422.05 1934.05 423.15 1933.6 426.65 1933.95 430.2 1934.25 431.3 1934.6 432.35 1936.25 435.3 1936.6046875 435.475 1936.95 435.6
L 1936.95 417.6 Z" stroke="none" fill="#9DAEEA"></path>

<path d="M 1933.25 182.35
Q 1932.65 184.5 1932.65 185.2 1932.7 185.95 1933.3 188.15
L 1936.95 189.7 1936.95 181.85
Q 1935.0630859375 182.0056640625 1933.25 182.35 Z" stroke="none" fill="#992A3F"></path>

<path d="M 1936.95 153.4
L 1936 153.4 1935.05 154.4 1935.05 154.5
Q 1934.7 155.8 1934.45 157.2 1933.9 159.95 1933.55 162.7 1933.4 164.05 1933.35 165.45 1933.25 166.9 1933.3 168.35 1933.3 169.7 1933.4 171.15 1933.45 172.6 1933.65 174.1 1933.85 175.55 1934.15 176.95 1934.25 177.35 1934.45 177.75 1934.55 178 1934.7 178.35 1934.75 178.5 1934.85 178.65 1934.9 178.7 1934.95 178.75 1935.05 178.85 1935.2 178.95 1935.35 179.05 1935.5 179.15 1935.75 179.3 1936 179.45 1936.2 179.6 1936.55 179.65 1936.744140625 179.7470703125 1936.95 179.8
L 1936.95 153.4 Z" stroke="none" fill="#110F1A"></path>

<path d="M 1932.15 142.25
Q 1933.66953125 141.052734375 1936.95 139.15
L 1936.95 130.05
Q 1932.968359375 132.091015625 1930.1 133.85 1922.55 138.5 1917.8 144.05 1913.8 149.75 1912 157.15 1910.5 163.25 1910.4 171.4
L 1910.15 220.4
Q 1910.2 231.75 1910 254.2
L 1909.9 272.5
Q 1909.8 289.05 1909.75 291.9 1909.6 302.9 1909.2 311.35 1908.65 321.15 1908.85 333.95 1909.1 357.85 1908.7 376.2 1908.1 405.95 1908.1 424.3
L 1908.1 443.7
Q 1908.1 452.5 1909.25 457.5 1911.8 464.35 1917.85 469.45 1921.5 471.25 1925.8 472.2 1929.2 472.85 1934.05 473.2
L 1936.95 473.25 1936.95 466.7
Q 1931.707421875 466.2109375 1927.35 465.3 1924.3 464.4 1922.7 463.2 1921.05 462.1 1919.05 459.5 1916.7 455.1 1915.7 451.75 1914.65 448 1914.6 443.4
L 1914.8 405.05
Q 1914.9 396.9 1914.9 392.85
L 1915.65 319.75
Q 1916.15 262.75 1916.65 240.9 1917.15 223.4 1917.15 210.8
L 1917.35 174.2
Q 1917.3 168.1 1917.5 165.6 1917.8 161 1919.1 157.25
L 1920.6 154.5
Q 1928.8 144.85 1932.15 142.25 Z" stroke="none" fill="#706C84"></path>

<path d="M 1936.95 139.15
Q 1933.66953125 141.052734375 1932.15 142.25 1928.8 144.85 1920.6 154.5
L 1919.1 157.25
Q 1917.8 161 1917.5 165.6 1917.3 168.1 1917.35 174.2
L 1917.15 210.8
Q 1917.15 223.4 1916.65 240.9 1916.15 262.75 1915.65 319.75
L 1914.9 392.85
Q 1914.9 396.9 1914.8 405.05
L 1914.6 443.4
Q 1914.65 448 1915.7 451.75 1916.7 455.1 1919.05 459.5 1921.05 462.1 1922.7 463.2 1924.3 464.4 1927.35 465.3 1931.707421875 466.2109375 1936.95 466.7
L 1936.95 435.6
Q 1936.6046875 435.475 1936.25 435.3 1934.6 432.35 1934.25 431.3 1933.95 430.2 1933.6 426.65 1934.05 423.15 1934.4 422.05 1934.75 420.95 1936.2 418 1936.568359375 417.8021484375 1936.95 417.6
L 1936.95 189.7 1933.3 188.15
Q 1932.7 185.95 1932.65 185.2 1932.65 184.5 1933.25 182.35 1935.0630859375 182.0056640625 1936.95 181.85
L 1936.95 179.8
Q 1936.744140625 179.7470703125 1936.55 179.65 1936.2 179.6 1936 179.45 1935.75 179.3 1935.5 179.15 1935.35 179.05 1935.2 178.95 1935.05 178.85 1934.95 178.75 1934.9 178.7 1934.85 178.65 1934.75 178.5 1934.7 178.35 1934.55 178 1934.45 177.75 1934.25 177.35 1934.15 176.95 1933.85 175.55 1933.65 174.1 1933.45 172.6 1933.4 171.15 1933.3 169.7 1933.3 168.35 1933.25 166.9 1933.35 165.45 1933.4 164.05 1933.55 162.7 1933.9 159.95 1934.45 157.2 1934.7 155.8 1935.05 154.5
L 1935.05 154.4 1936 153.4 1936.95 153.4 1936.95 139.15 Z" stroke="none" fill="#F5F7F9"></path>

<path d="M 1936.95 50.85
Q 1933.37265625 51.8087890625 1929.8 52.9 1928.05 59.3 1930.8 65.4
L 1936.95 65.55 1936.95 50.85 Z" stroke="none" fill="#DF202E"></path>

<path d="M 1936.95 44.05
Q 1936.8490234375 44.08203125 1936.75 44.1 1930.05 45.2 1924.95 47.05 1924.1 48.7 1924 49.85 1923.85 50.95 1923.9 55.9
L 1923.9 58.6
Q 1923.85 60.55 1923.8 64.5 1923.9 67.9 1925.05 70.15 1927.95 71.55 1928.75 71.85 1929.6 72.1 1931.7 72.4
L 1936.95 72.5 1936.95 65.55 1930.8 65.4
Q 1928.05 59.3 1929.8 52.9 1933.37265625 51.8087890625 1936.95 50.85
L 1936.95 44.05 Z" stroke="none" fill="#7E1A34"></path>
</g>
</g>
</g>
</g>

<g transform="matrix( 0.3621063232421875, 0, 0, 0.3621063232421875, -594.2,0.1)" id="MergedLayer_1">
<g>
<g>
<g>
<path d="M 1936.55 496.85
Q 1930.55 497.55 1922.5 498.85 1920.3 499.15 1919.6 500.2 1919.2 500.85 1919.2 502.4
L 1919.2 508.8
Q 1928.0775390625 509.02265625 1936.95 509
L 1936.95 496.8
Q 1936.75 496.828125 1936.55 496.85
M 1903.8 443.65
Q 1906.75 442 1912.5 439.9
L 1912.5 433.2
Q 1911.6 433.25 1909.05 433.1 1906.85 433 1905.6 433.2 1904.35 433.4 1902.75 434.15 1900.95 435.05 1900.05 435.45 1897.95 436.4 1896.9 436.9 1895.1 437.8 1893.95 438.65 1890.15 441.35 1887.85 446.5 1886.35 449.75 1884.8 456.1 1883.7 460.5 1883.45 462.7 1883.2 464.85 1883.25 468.25 1883.3 472.65 1883.25 473.8 1883.2 476.85 1883.2 477 1883.25 478.8 1883.75 480.05 1884.65 482.2 1887.3 484.1 1888.75 485.2 1889 485.85 1889.25 486.45 1889.2 488.35 1889.1 489.9 1889.75 490.55
L 1900.7 490.6
Q 1901.65 490.6 1902 490.25 1902.3 489.95 1902.4 489.1 1903.3 480.65 1903.05 476.35
L 1892.45 475.9
Q 1890.55 473.8 1890.15 472.3 1889.8 470.9 1890.4 468.55 1892.4 458.85 1894.25 454.3 1895.35 451.45 1896.75 449.55 1899.2 446.15 1903.8 443.65 Z" stroke="none" fill="#000000"></path>
</g>
</g>
</g>
</g>
</g>
</svg>
