
<svg viewBox="0 0 272 172" height="172px" width="272px" y="0px" x="0px" preserveAspectRatio="none" xmlns:xlink="http://www.w3.org/1999/xlink" version="1.1" xmlns="http://www.w3.org/2000/svg">
<defs></defs>

<g id="Layer_2">
<g>
<g>
<g>
<path d="M 67.05 154.25
Q 66.9197265625 153.9587890625 66.75 153.65 65.85 152.1 64.4 151.05 64.35 150.9 64.35 150.75 64.3 150.45 64.3 150.1 63.7 149.2 63.3 148.25 63.3 148.4 63.3 148.5 63.3 150.2 63.9 151.7 63.9267578125 152.9833984375 64.1 154.25 65.580078125 154.2611328125 67.05 154.25
M 177.2 152.7
Q 183.3087890625 149.04765625 188.4 144.05 174.35 150.45 158.7 152.3 154.289453125 152.83046875 149.9 153.05 130.701171875 154.1916015625 111.9 150 106.35 148.75 101.3 146.2 98.75 144.9 96.3 143.95 96.05 143.65 95.9 143.35 95.8 143.25 95.7 143.15 95.15 142.95 94.45 142.7 94.4 142.6 94.35 142.5 94.25 142.4 94.15 142.3 93.15 141.9 92.05 141.7 91.05 140.85 89.9 140.2 89.65 140.1 89.6 140.25 93.052734375 148.940234375 100.6 153.9 103.059375 153.8689453125 105.5 153.8 117.8 153.45 130.15 153.45 140.0435546875 153.419921875 149.9 153.25 163.5982421875 153.0943359375 177.2 152.7
M 211.1 146.6
Q 211.25 143.95 210.85 141.35 210.3 143.25 209.85 145.15 209.05 148.4 207.35 151.25 207.35 151.4 207.35 151.55 209.0705078125 151.4712890625 210.8 151.4 210.900390625 148.99453125 211.1 146.6
M 66.6 121.1
Q 66.6 121.55 66.8 121.9 67.05 125.05 67.4 128.2 67.55 129.9 67.7 131.55 69.35 131.55 71 131.9 71.1 131.9 71.25 131.95 73.8 131.65 76.4 131.3 76.3 129.75 74.55 128.2 73.3 127.05 72.5 125.55 69.9 122.5 66.95 119.8 66.7 120.35 66.55 120.95 66.6 121.05 66.6 121.1
M 80.55 104.05
Q 79.7375 102.14140625 79 100.15 78.7 99.25 78.35 98.4 78.2 102.35 78.25 106.3 78.25 109.25 78.4 112.15 79.479296875 111.859375 80.55 111.55 82.05859375 111.0970703125 83.55 110.6 81.9404296875 107.4123046875 80.55 104.05
M 196.7 104.5
Q 196.7 104.35 196.65 104.25 195.6 105.65 194.65 107.15 193.65 108.75 192.4 110.2 192.1 110.35 191.85 110.55 191.75 110.65 191.7 110.8 194.05 111.85 197 113.1 197 112.9 197 112.75 197.15 111 196.7 109.4 196.7 108.5 196.7 107.65 196.7 106.05 196.7 104.5
M 204.55 128.95
Q 204.55 126.4 204.55 123.8 204.55 122.6 204.55 121.35 203.45 121.8 202.15 122 201.4 122.1 200.6 122.25 200.45 122.4 200.3 122.55 200.15 122.7 200 122.8 199.9 122.85 199.8 122.85 198.65 123.2 197.55 123.7 197.45 123.85 197.3 123.95 196.85 124.35 196.4 124.85 196.3 124.9 196.2 124.9 195.8 125.05 195.4 125.15 195.25 125.3 195.05 125.4 194.35 125.7 194.15 126.35 194.15 126.45 194.1 126.5 193.4 126.85 192.65 127.1 198.45 128.05 204.55 128.95
M 113.75 116.95
Q 113.65 116.85 113.55 116.8 113.35 116.75 113.15 116.65 113.05 116.55 113 116.45 112.9 116.35 112.9 116.25 108.7 113.55 103.65 114 98.45 114.45 94.5 117.9 93.05 119.15 92.75 120.95 94.6 124.05 98.05 125.55 101.05 126.8 103.25 126.25 104.75 125.85 106.05 126.5 112.05 127.7 115.55 123.6 115.75 123.4 115.9 123.2 115.95 123.1 115.95 123 115.95 122.75 116 122.45 116.05 122.1 116.2 121.8 116.25 121.75 116.25 121.65 116.25 121.55 116.25 121.45 116.25 121.35 116.2 121.25 116.1 121.05 115.95 120.85 115.95 120.75 115.95 120.65 115.95 120.55 115.95 120.45 115.95 120.25 115.95 120.1 115.95 120 115.95 119.9 115.95 119.8 115.9 119.7 115.85 119.6 115.8 119.5 115.75 119.4 115.7 119.3 115.6 119.2 115.45 119.1 115.15 118.85 114.95 118.5 114.8 118.3 114.7 118.1 114.65 118 114.5 117.95 114.2 117.7 114 117.35 113.85 117.15 113.75 116.95
M 172.05 115.75
Q 171.85 115.7 171.6 115.6 169.3 113.55 166.15 113.1 165.51328125 113.008984375 164.85 112.9 164.46328125 112.889453125 164.05 112.85 163.737890625 112.897265625 163.4 112.95 159.488671875 113.670703125 156.15 115.85 154.8 116.7 153.7 117.9 153.55 118.4 153.55 118.9 153.6 119.4 153.6 119.9 153.8 120.15 154 120.45 154.2 120.65 154.35 120.85 154.75 122.15 155.85 123.1 156.5 123.65 157.25 124.2 157.4 124.25 157.5 124.35 165.2 125.65 172.7 123.3 173.75 122.55 174.5 121.45 174.65 121.2 174.9 120.95 174.9 120.75 175 120.55 175.05 120.35 175.15 120.15 175.1 119.75 175.05 119.35 175 119 174.7 118.75 174.7 118.65 174.7 118.55 174.7 118.45 174.65 118.35 174.65 118.25 174.6 118.2 173.9 117.2 172.85 116.45 172.55 116.25 172.45 115.9 172.25 115.8 172.05 115.75 Z" stroke="none" fill="#EE9D33"></path>

<path d="M 192 139.8
Q 190.65 140.85 189.15 141.75 188.25 142.25 187.25 142.6 187.2 142.7 187.15 142.8 187.05 142.9 186.95 143 177.45 147.8 166.9 149.9 164 150.45 161.15 150.9 155.5212890625 151.7916015625 149.9 152.2 134.398046875 153.3583984375 118.95 150.9 108.25 149.2 99.2 143.4 98.75 143.35 98.3 143.25 98.2 143.2 98.15 143.15 98.1 143.05 98 142.95 97.9 142.75 97.75 142.55 97.65 142.45 97.55 142.35 97.25 142.3 96.9 142.2 96.75 142.15 96.55 142.1 96.45 142 96.35 141.9 95.45 141.15 94.2 141.05 94.05 141.05 93.9 141 92.5 140 91 139.3 90.25 138.95 89.7 138.35 88.5 138.35 87.25 138.3 87.2 138.35 87.15 138.45 87.15 138.5 87.15 138.6 87.15 138.7 87.15 138.8 87.15 139 87.15 139.2 87.15 139.3 87.15 139.4 87.25 139.5 87.3 139.6 87.35 139.7 87.4 139.8 87.4 139.9 87.4 140 87.45 140.2 87.55 140.4 87.6 140.5 87.65 140.6 87.65 140.7 87.65 140.8 87.65 140.9 87.65 141 87.65 141.2 87.7 141.35 87.7 141.45 87.7 141.55 89.15 143.75 90.55 145.95 93.4783203125 150.715234375 97.75 154 99.180078125 153.9603515625 100.6 153.9 93.052734375 148.940234375 89.6 140.25 89.65 140.1 89.9 140.2 91.05 140.85 92.05 141.7 93.15 141.9 94.15 142.3 94.25 142.4 94.35 142.5 94.4 142.6 94.45 142.7 95.15 142.95 95.7 143.15 95.8 143.25 95.9 143.35 96.05 143.65 96.3 143.95 98.75 144.9 101.3 146.2 106.35 148.75 111.9 150 130.701171875 154.1916015625 149.9 153.05 154.289453125 152.83046875 158.7 152.3 174.35 150.45 188.4 144.05 183.3087890625 149.04765625 177.2 152.7 178.9123046875 152.6498046875 180.6 152.6 186.32890625 148.87109375 191.2 144 191.25 143.9 191.3 143.8 191.35 143.7 191.4 143.6 191.45 143.5 191.45 143.4 191.9 142.95 192.25 142.5 192.6 142.1 193.1 141.8 193.2 141.75 193.3 141.65 193.35 141.55 193.35 141.45 193.4 141.35 193.45 141.25 193.45 141.15 193.5 141.05 193.8 140.75 194.1 140.5 194.4 140.25 194.45 139.85 194.5 139.75 194.5 139.65 194.5 139.55 194.45 139.55 193.5 139.35 192.5 139.25
L 192.5 139.3
Q 192.4 139.35 192.3 139.45 192.2 139.5 192.15 139.6 192.1 139.7 192 139.8
M 178.2 83.85
Q 178.8 84.15 178.65 84.8 178.6 84.95 178.6 85.1 179.3 87.9 179.15 90.95 179 93.85 179 96.75 186.05 97.05 193.15 97.3 194.15 97.85 195.3 98.05
L 195.3 98.1
Q 195.35 98.15 195.45 98.25 195.15 98.2 194.85 98.2 195.05 99.8 195.7 101.35 195.55 101.45 195.4 101.6 195.35 102.05 195.25 102.5 195.25 102.65 195.2 102.8 193.95 104.55 192.75 106.25 190.9 108.85 189.25 111.1 196.95 114.3 204.6 119.3 203.85 119.65 203.3 119.95 201.2 121.1 198.75 121.55 197.8 122.25 196.65 122.6 195.3 123.05 194.35 124.1 193.95 124.2 193.55 124.3 192.85 124.85 192.25 125.5 192.15 125.6 192.1 125.75 191.6 125.85 191.1 126 191.05 126 191 126.05 190.9 126.15 190.8 126.25 190.15 126.8 189.7 127.55 189.65 127.65 189.65 127.8 199.9 129.15 210.15 130.75 210.15 130.9 210.15 131.1 210.15 132.75 210.15 134.45 210.15 135.4 210.15 136.3 209.87109375 136.997265625 209.6 137.7 208.7873046875 140.0205078125 208.25 142.4 207.25 146.6 205.45 150.45 205.3986328125 151.0658203125 205.25 151.65 206.300390625 151.602734375 207.35 151.55 207.35 151.4 207.35 151.25 209.05 148.4 209.85 145.15 210.3 143.25 210.85 141.35 211.25 143.95 211.1 146.6 210.900390625 148.99453125 210.8 151.4 211.770703125 151.35234375 212.75 151.3 213.2783203125 148.4310546875 213.1 145.4 212.885546875 141.540625 212.65 137.7 212.5048828125 135.27109375 212.35 132.85 212.35 132.75 212.35 132.7 212.25 132.7 212.2 132.7 212.2 131.4 212.2 130.05 209.35 129.65 206.55 129.25 206.55 127.35 206.55 125.45 206.55 122.8 206.55 120.2 206.9 119.85 207.25 119.5 204.7 116.4 200.75 114.7 199.85 114.3 198.95 113.95 198.95 112.5 199 111.05 199.05 109.9 198.65 108.9 198.65 107.2 198.75 105.55 198.8 104.4 198.4 103.35 198.5 102.3 198.2 101.35 198.4 101 198.55 100.65 198.6 100.5 198.65 100.35 198.65 100.05 198.65 99.75 198.65 99.15 198.65 98.5 198.6 98.35 198.55 98.2 198.2 98.1 197.85 98 197.85 97.95 197.8 97.95 197.7 97.8 197.55 97.65 197.45 97.55 197.35 97.4 196.4 97.1 195.5 96.75 195.25 96.65 195 96.55 188 96.3 181.05 96.05 181.05 93.3 181.05 90.55 181.05 87.9 181.05 85.3 181 85.15 180.9 85.05 180.6 84.6 180.65 84.05 180.65 83.9 180.65 83.75 180.65 83.6 180.55 83.55 180.25 83.3 180 82.95 179.9 82.8 179.7 82.65 170.1 83.7 161 86.45 160.95 86.15 160.8 85.95 160.75 85.75 160.55 85.6 160.55 85.45 160.55 85.3 160.35 84.85 160.2 84.35 160.15 84.25 160.15 84.1 159.95 83.75 159.8 83.45 159.75 83.3 159.75 83.15 159.75 83 159.75 82.85 159.95 81.1 159.6 79.4 159.4 78.5 158.95 77.6 158.95 77.3 158.95 77 158.95 76.85 158.95 76.7 158.9 76.55 158.8 76.45 158.45 76 158.5 75.45 158.55 75.3 158.55 75.15 158.5 75 158.4 74.9 158.25 74.7 158.1 74.55 158.05 74.25 157.95 73.95 157.85 73.8 157.7 73.65 156.4 73.6 155.05 73.6 154.9 73.65 154.75 73.75 154.2 74.15 153.7 74.65 153.5 74.8 153.3 74.95 151.591015625 75.6580078125 149.9 76.4 144.6642578125 78.7412109375 139.6 81.5 139.05 81.55 138.55 81.5 138.5 81.5 138.45 81.4 138.15 80.4 137.25 79.85 137.05 79.7 136.9 79.55 136.85 79.4 136.8 79.25 136.75 79.1 136.7 78.95 136.3 78.65 135.9 78.3 135.75 78.2 135.6 78.05 134.9 76.85 134.35 75.6 134.1 74.9 133.55 74.35 133.55 74.2 133.5 74.05 132.95 72.75 132 71.6 131.55 71.05 131.4 70.35 131.1 70.25 130.8 70.1 130.75 70.1 130.65 70.05 130.55 69.95 130.5 69.85 130.35 69.7 130.25 69.55 129.15 69.5 128 69.45 125.5 71.1 123.3 73.5 118.5 78.75 114.6 84.4 114.1 84 113.5 83.65 107.35 79.95 101.7 75.35 101.15 75.2 100.6 75 100.4 74.95 100.25 74.85 99.2 74.8 98.1 74.85 98 74.85 97.9 74.95 97.95 75.5 97.65 75.9 97.55 76.05 97.5 76.2 97.5 76.5 97.5 76.8 97.25 80.95 97.2 85.1 97.1 90.3 97.1 95.55 91.85 95.2 86.8 93.55 83.539453125 92.5080078125 80.55 92.5 79.0927734375 92.504296875 77.7 92.75 77.15 92.7 76.65 92.7 76.65 92.85 76.65 93 76.4 93.05 76.2 93.1 76.4 93.5 76.55 93.95 76.35 96.7 76.35 99.5 76.35 106.05 76.35 112.6 74.4 113 72.45 113.3 67.4 114.05 64.3 116.35 64.75 117.3 65.35 118.1 65.05 118.95 64.8 119.85 64.35 121.25 64.85 122.55 64.95 124.95 65.25 127.3 65.6 129.45 65.65 131.65 65.25 131.7 64.85 131.75 62.6 132.4 60.25 133.15 60.15 133.2 60 133.25 59.95 133.3 59.95 133.4 59.25 133.45 58.6 133.55 59.2 133.55 59.85 133.6 59.8 133.6 59.75 133.65 59.65 133.75 59.6 133.85 59.6 133.95 59.6 134.05 59.6 134.15 59.6 134.25 59.6 134.35 59.6 134.45 59.6 134.5 59.6 134.55 59.55 134.55 59.45 134.6 59.4 134.6 59.4 134.75 59.4 134.9 59.4 135.05 59.4 135.55 59.4 136 59.4 136.15 59.4 136.3 59.9 136.65 59.85 137.2 59.8 137.35 59.8 137.55 59.8625 137.625 59.9 137.7 60.1125 137.925 60.3 138.15 60.45 138.3 60.55 138.45 60.6 138.6 60.6 138.75 60.6 139.3 60.9 139.7 60.85 141.25 60.75 142.75 60.65 144.95 61.3 146.95 61.5 148.55 61.45 150.15 61.4 151.3 61.95 152.35 61.9736328125 153.298046875 62.1 154.2 63.0984375 154.2435546875 64.1 154.25 63.9267578125 152.9833984375 63.9 151.7 63.3 150.2 63.3 148.5 63.3 148.4 63.3 148.25 63.7 149.2 64.3 150.1 64.3 150.45 64.35 150.75 64.35 150.9 64.4 151.05 65.85 152.1 66.75 153.65 66.9197265625 153.9587890625 67.05 154.25 68.2435546875 154.2728515625 69.4 154.25 68.41171875 153.3177734375 67.8 152 67.35 151 66.45 150.45 66.4 150.1 66.4 149.8 66.35 149.65 66.35 149.5 65.25 147.6 64.65 145.5 64.05 143.55 63.1 141.85 63.1 141.5 63.1 141.2 63.1 140.45 63.1 139.7 63.1 139.5 63.1 139.35 63.05 139.2 63 139.05 62.95 138.85 62.85 138.7 62.85 138.55 62.85 138.4 62.75 138.3 62.7 138.15 62.65 138.05 62.6 137.95 62.6 137.825 62.6 137.7 62.6 137.575 62.6 137.45 62.6 136.6 62.6 135.7 62.6 135.6 62.6 135.45
L 62.6 135.35
Q 62.2 135.3 61.85 135.3 61.85 135.2 61.85 135.1 61.85 134.9 61.8 134.7 61.8 134.5 61.85 134.3 61.85 134.2 61.9 134.1 62.5 133.8 63.1 133.6 67.55 133.55 72.4 133.2 76.55 132.85 79.05 131.2 78 128.95 76.45 126.9 72.5 121.9 67.75 117.8 67.9 117.3 67.85 116.8
L 67.85 116.7
Q 67.35 116.6 66.85 116.6 66.8 116.5 66.7 116.4 66.55 116.3 66.45 116.15 73.9017578125 114.8900390625 80.55 112.75 83.1357421875 111.9521484375 85.6 111 85.6 110.85 85.6 110.7 85.6 110.25 85.6 109.8 85.55 109.6 85.5 109.45 83.65 106.6 82.4 103.4 81.446484375 100.847265625 80.55 98.25 79.9888671875 96.6666015625 79.45 95.05 79.2 94.75 78.95 94.4 78.85 94.25 78.75 94.1 78.7 93.8 78.6 93.5
L 78.6 93.45
Q 78.6 93.35 78.6 93.25 79.5765625 93.50703125 80.55 93.75 89.99375 96.0234375 99.15 96.25 99.15 95.95 99.15 95.65 99.15 91.5 99.1 87.35 99.05 81.65 99.85 76.3 100.6 76.8 101.35 77.3 103.5 78.8 105.7 80.2 106.2 80.85 106.85 81.35 110.05 83.5 113.25 85.5 115.05 85.35 116.85 85.2 118.1 82.95 119.65 80.9 123.65 75.6 128.5 71.05 128.95 71 129.35 71.05 129.4 71.05 129.45 71.15 129.5 71.35 129.55 71.45 130.1 72.65 130.95 73.65 131.2 73.95 131.4 74.25 131.45 74.4 131.45 74.55 131.5 74.7 131.5 74.85 132.45 75.95 132.9 77.3 133.15 77.95 133.45 78.55 134.15 79.1 134.7 79.85 134.75 79.95 134.75 80.1 135.75 80.85 136.35 81.95 136.4 82.1 136.4 82.25 136.75 82.35 137.1 82.45 137.2 82.5 137.25 82.55 137.3 82.65 137.35 82.75 137.5 82.9 137.65 83.05 138.85 83.1 140.1 83.1
L 140.1 83.05
Q 144.9904296875 80.2203125 149.9 77.9 152.9712890625 76.4814453125 156.05 75.25 156.55 75.6 156.5 76.2 156.5 76.35 156.5 76.5 156.6 76.65 156.7 76.8 156.8 76.95 156.9 77.1 156.9 77.55 156.9 78.05 156.9 78.2 156.9 78.35 157.05 78.65 157.1 78.95 157.25 79.9 157.55 80.8 157.6 80.95 157.7 81.1 157.7 81.55 157.7 82.05 157.7 82.8 157.7 83.55 157.7 83.7 157.7 83.85 157.9 84.35 158.05 84.8 158.1 84.95 158.1 85.1 158.2 85.25 158.3 85.4 158.6 86.35 159.05 87.25 159.15 87.4 159.25 87.55 168.85 85.75 178.2 83.85
M 204.55 123.8
Q 204.55 126.4 204.55 128.95 198.45 128.05 192.65 127.1 193.4 126.85 194.1 126.5 194.15 126.45 194.15 126.35 194.35 125.7 195.05 125.4 195.25 125.3 195.4 125.15 195.8 125.05 196.2 124.9 196.3 124.9 196.4 124.85 196.85 124.35 197.3 123.95 197.45 123.85 197.55 123.7 198.65 123.2 199.8 122.85 199.9 122.85 200 122.8 200.15 122.7 200.3 122.55 200.45 122.4 200.6 122.25 201.4 122.1 202.15 122 203.45 121.8 204.55 121.35 204.55 122.6 204.55 123.8
M 196.65 104.25
Q 196.7 104.35 196.7 104.5 196.7 106.05 196.7 107.65 196.7 108.5 196.7 109.4 197.15 111 197 112.75 197 112.9 197 113.1 194.05 111.85 191.7 110.8 191.75 110.65 191.85 110.55 192.1 110.35 192.4 110.2 193.65 108.75 194.65 107.15 195.6 105.65 196.65 104.25
M 79 100.15
Q 79.7375 102.14140625 80.55 104.05 81.9404296875 107.4123046875 83.55 110.6 82.05859375 111.0970703125 80.55 111.55 79.479296875 111.859375 78.4 112.15 78.25 109.25 78.25 106.3 78.2 102.35 78.35 98.4 78.7 99.25 79 100.15
M 66.8 121.9
Q 66.6 121.55 66.6 121.1 66.6 121.05 66.55 120.95 66.7 120.35 66.95 119.8 69.9 122.5 72.5 125.55 73.3 127.05 74.55 128.2 76.3 129.75 76.4 131.3 73.8 131.65 71.25 131.95 71.1 131.9 71 131.9 69.35 131.55 67.7 131.55 67.55 129.9 67.4 128.2 67.05 125.05 66.8 121.9
M 116.7 117.4
Q 116.55 117.3 116.45 117.2 116.35 117.1 116.25 117 116.05 116.8 115.9 116.6 115.85 116.5 115.75 116.4 115.7 116.3 115.65 116.2 115.5 116.15 115.3 116.1 115.2 116.05 115.15 116 115.05 115.95 115 115.9 114.9 115.8 114.85 115.7 114.75 115.6 114.65 115.5 113.45 114.75 112.15 114.25 108.05 112.8 103.65 113 97.55 113.25 92.75 117.1 91.4 118.2 90.8 119.9 90.8 120 90.8 120.1 90.8 120.35 90.8 120.65 90.8 120.75 90.8 120.85 90.8 120.95 90.8 121.05 90.8 121.25 90.8 121.45 90.8 121.55 90.8 121.65 90.85 121.75 90.85 121.85 90.95 121.95 91 122.05 91.1 122.15 91.2 122.25 91.35 122.35 91.45 122.45 94.1 126.2 98.75 127.15 107.5 128.85 115.85 126.15 116.2 125.8 116.6 125.45 117 125.1 117.25 124.7 117.5 124.35 117.75 124.05 117.8 123.95 117.85 123.85 117.9 123.8 117.95 123.7 117.95 123.6 117.95 123.5 117.95 123.4 117.95 123.3 117.95 123.2 117.95 123.1 117.95 123 118 122.9 118.05 122.8 118.1 122.7 118.15 122.6 118.2 122.5 118.2 122.4 118.2 122.3 118.2 122 118.2 121.7 118.2 121.6 118.2 121.5 118.2 121.4 118.2 121.3 118.2 121.1 118.2 120.95 118.2 120.85 118.2 120.75 118.2 120.65 118.2 120.55 118.15 120.45 118.1 120.35 118.05 120.25 118 120.1 117.95 120.05 117.95 119.95 117.95 119.85 117.95 119.75 117.95 119.65 117.95 119.55 117.9 119.35 117.85 119.15 117.85 119.05 117.8 118.95 117.75 118.85 117.75 118.75 117.65 118.65 117.6 118.55 117.5 118.45 117.35 118.35 117.25 118.25 117.15 118.2 117.05 118.1 116.95 118 116.9 117.9 116.9 117.8 116.85 117.7 116.8 117.6 116.75 117.5 116.7 117.4
M 113.55 116.8
Q 113.65 116.85 113.75 116.95 113.85 117.15 114 117.35 114.2 117.7 114.5 117.95 114.65 118 114.7 118.1 114.8 118.3 114.95 118.5 115.15 118.85 115.45 119.1 115.6 119.2 115.7 119.3 115.75 119.4 115.8 119.5 115.85 119.6 115.9 119.7 115.95 119.8 115.95 119.9 115.95 120 115.95 120.1 115.95 120.25 115.95 120.45 115.95 120.55 115.95 120.65 115.95 120.75 115.95 120.85 116.1 121.05 116.2 121.25 116.25 121.35 116.25 121.45 116.25 121.55 116.25 121.65 116.25 121.75 116.2 121.8 116.05 122.1 116 122.45 115.95 122.75 115.95 123 115.95 123.1 115.9 123.2 115.75 123.4 115.55 123.6 112.05 127.7 106.05 126.5 104.75 125.85 103.25 126.25 101.05 126.8 98.05 125.55 94.6 124.05 92.75 120.95 93.05 119.15 94.5 117.9 98.45 114.45 103.65 114 108.7 113.55 112.9 116.25 112.9 116.35 113 116.45 113.05 116.55 113.15 116.65 113.35 116.75 113.55 116.8
M 170.85 113.15
Q 166.8 111.6 162.3 112.15 158 112.75 154.3 115.1 153 115.9 151.95 117 151.9 117.1 151.85 117.2 151.8 117.3 151.75 117.4 151.7 117.5 151.6 117.6 151.6 118 151.6 118.35 151.6 118.85 151.6 119.35 151.6 119.85 151.6 120.35 151.6 120.45 151.6 120.55 151.8 120.85 152.05 121.1 152.1 121.2 152.2 121.3 152.3 121.4 152.4 121.5 153.6 124.4 156.7 125.1 165.6 127.05 174.6 124 175.55 123.3 176.25 122.4 176.85 121.65 177.1 120.85 177.15 120.75 177.2 120.65 177.2 120.55 177.2 120.45 177.2 120.2 177.2 119.9 177.2 119.7 177.2 119.5 177.2 119.4 177.2 119.3 177.1 119.2 177.05 119.1 177 119 176.9 118.9 176.9 118.7 176.9 118.5 176.9 118.4 176.85 118.35 176.8 118.2 176.65 118.1 176.65 117.9 176.65 117.7 176.6 117.6 176.6 117.5 176.55 117.4 176.5 117.3 176.1 117 175.75 116.6 175.1 115.95 174.45 115.35 174.35 115.25 174.3 115.15 174.1 115.1 173.9 115.05 173.75 115 173.6 114.95 173.5 114.95 173.45 114.9 172.4 113.75 170.85 113.15
M 171.6 115.6
Q 171.85 115.7 172.05 115.75 172.25 115.8 172.45 115.9 172.55 116.25 172.85 116.45 173.9 117.2 174.6 118.2 174.65 118.25 174.65 118.35 174.7 118.45 174.7 118.55 174.7 118.65 174.7 118.75 175 119 175.05 119.35 175.1 119.75 175.15 120.15 175.05 120.35 175 120.55 174.9 120.75 174.9 120.95 174.65 121.2 174.5 121.45 173.75 122.55 172.7 123.3 165.2 125.65 157.5 124.35 157.4 124.25 157.25 124.2 156.5 123.65 155.85 123.1 154.75 122.15 154.35 120.85 154.2 120.65 154 120.45 153.8 120.15 153.6 119.9 153.6 119.4 153.55 118.9 153.55 118.4 153.7 117.9 154.8 116.7 156.15 115.85 159.488671875 113.670703125 163.4 112.95 163.737890625 112.897265625 164.05 112.85 164.46328125 112.889453125 164.85 112.9 165.51328125 113.008984375 166.15 113.1 169.3 113.55 171.6 115.6 Z" stroke="none" fill="#000000"></path>

<path d="M 178.65 84.8
Q 178.8 84.15 178.2 83.85 168.85 85.75 159.25 87.55 159.15 87.4 159.05 87.25 158.6 86.35 158.3 85.4 158.2 85.25 158.1 85.1 158.1 84.95 158.05 84.8 157.9 84.35 157.7 83.85 157.7 83.7 157.7 83.55 157.7 82.8 157.7 82.05 157.7 81.55 157.7 81.1 157.6 80.95 157.55 80.8 157.25 79.9 157.1 78.95 157.05 78.65 156.9 78.35 156.9 78.2 156.9 78.05 156.9 77.55 156.9 77.1 156.8 76.95 156.7 76.8 156.6 76.65 156.5 76.5 156.5 76.35 156.5 76.2 156.55 75.6 156.05 75.25 152.9712890625 76.4814453125 149.9 77.9 144.9904296875 80.2203125 140.1 83.05
L 140.1 83.1
Q 138.85 83.1 137.65 83.05 137.5 82.9 137.35 82.75 137.3 82.65 137.25 82.55 137.2 82.5 137.1 82.45 136.75 82.35 136.4 82.25 136.4 82.1 136.35 81.95 135.75 80.85 134.75 80.1 134.75 79.95 134.7 79.85 134.15 79.1 133.45 78.55 133.15 77.95 132.9 77.3 132.45 75.95 131.5 74.85 131.5 74.7 131.45 74.55 131.45 74.4 131.4 74.25 131.2 73.95 130.95 73.65 130.1 72.65 129.55 71.45 129.5 71.35 129.45 71.15 129.4 71.05 129.35 71.05 128.95 71 128.5 71.05 123.65 75.6 119.65 80.9 118.1 82.95 116.85 85.2 115.05 85.35 113.25 85.5 110.05 83.5 106.85 81.35 106.2 80.85 105.7 80.2 103.5 78.8 101.35 77.3 100.6 76.8 99.85 76.3 99.05 81.65 99.1 87.35 99.15 91.5 99.15 95.65 99.15 95.95 99.15 96.25 89.99375 96.0234375 80.55 93.75 79.5765625 93.50703125 78.6 93.25 78.6 93.35 78.6 93.45
L 78.6 93.5
Q 78.7 93.8 78.75 94.1 78.85 94.25 78.95 94.4 79.2 94.75 79.45 95.05 79.9888671875 96.6666015625 80.55 98.25 81.446484375 100.847265625 82.4 103.4 83.65 106.6 85.5 109.45 85.55 109.6 85.6 109.8 85.6 110.25 85.6 110.7 85.6 110.85 85.6 111 83.1357421875 111.9521484375 80.55 112.75 73.9017578125 114.8900390625 66.45 116.15 66.55 116.3 66.7 116.4 66.8 116.5 66.85 116.6 67.35 116.6 67.85 116.7
L 67.85 116.8
Q 67.9 117.3 67.75 117.8 72.5 121.9 76.45 126.9 78 128.95 79.05 131.2 76.55 132.85 72.4 133.2 67.55 133.55 63.1 133.6 62.5 133.8 61.9 134.1 61.85 134.2 61.85 134.3 61.8 134.5 61.8 134.7 61.85 134.9 61.85 135.1 61.85 135.2 61.85 135.3 62.2 135.3 62.6 135.35
L 62.6 135.45
Q 62.6 135.6 62.6 135.7 62.6 136.6 62.6 137.45 62.6 137.575 62.6 137.7 62.6 137.825 62.6 137.95 62.65 138.05 62.7 138.15 62.75 138.3 62.85 138.4 62.85 138.55 62.85 138.7 62.95 138.85 63 139.05 63.05 139.2 63.1 139.35 63.1 139.5 63.1 139.7 63.1 140.45 63.1 141.2 63.1 141.5 63.1 141.85 64.05 143.55 64.65 145.5 65.25 147.6 66.35 149.5 66.35 149.65 66.4 149.8 66.4 150.1 66.45 150.45 67.35 151 67.8 152 68.41171875 153.3177734375 69.4 154.25 74.9560546875 154.2888671875 80.55 154.25 89.0767578125 154.187109375 97.75 154 93.4783203125 150.715234375 90.55 145.95 89.15 143.75 87.7 141.55 87.7 141.45 87.7 141.35 87.65 141.2 87.65 141 87.65 140.9 87.65 140.8 87.65 140.7 87.65 140.6 87.6 140.5 87.55 140.4 87.45 140.2 87.4 140 87.4 139.9 87.4 139.8 87.35 139.7 87.3 139.6 87.25 139.5 87.15 139.4 87.15 139.3 87.15 139.2 87.15 139 87.15 138.8 87.15 138.7 87.15 138.6 87.15 138.5 87.15 138.45 87.2 138.35 87.25 138.3 88.5 138.35 89.7 138.35 90.25 138.95 91 139.3 92.5 140 93.9 141 94.05 141.05 94.2 141.05 95.45 141.15 96.35 141.9 96.45 142 96.55 142.1 96.75 142.15 96.9 142.2 97.25 142.3 97.55 142.35 97.65 142.45 97.75 142.55 97.9 142.75 98 142.95 98.1 143.05 98.15 143.15 98.2 143.2 98.3 143.25 98.75 143.35 99.2 143.4 108.25 149.2 118.95 150.9 134.398046875 153.3583984375 149.9 152.2 155.5212890625 151.7916015625 161.15 150.9 164 150.45 166.9 149.9 177.45 147.8 186.95 143 187.05 142.9 187.15 142.8 187.2 142.7 187.25 142.6 188.25 142.25 189.15 141.75 190.65 140.85 192 139.8 192.1 139.7 192.15 139.6 192.2 139.5 192.3 139.45 192.4 139.35 192.5 139.3
L 192.5 139.25
Q 193.5 139.35 194.45 139.55 194.5 139.55 194.5 139.65 194.5 139.75 194.45 139.85 194.4 140.25 194.1 140.5 193.8 140.75 193.5 141.05 193.45 141.15 193.45 141.25 193.4 141.35 193.35 141.45 193.35 141.55 193.3 141.65 193.2 141.75 193.1 141.8 192.6 142.1 192.25 142.5 191.9 142.95 191.45 143.4 191.45 143.5 191.4 143.6 191.35 143.7 191.3 143.8 191.25 143.9 191.2 144 186.32890625 148.87109375 180.6 152.6 192.9509765625 152.205859375 205.25 151.65 205.3986328125 151.0658203125 205.45 150.45 207.25 146.6 208.25 142.4 208.7873046875 140.0205078125 209.6 137.7 209.87109375 136.997265625 210.15 136.3 210.15 135.4 210.15 134.45 210.15 132.75 210.15 131.1 210.15 130.9 210.15 130.75 199.9 129.15 189.65 127.8 189.65 127.65 189.7 127.55 190.15 126.8 190.8 126.25 190.9 126.15 191 126.05 191.05 126 191.1 126 191.6 125.85 192.1 125.75 192.15 125.6 192.25 125.5 192.85 124.85 193.55 124.3 193.95 124.2 194.35 124.1 195.3 123.05 196.65 122.6 197.8 122.25 198.75 121.55 201.2 121.1 203.3 119.95 203.85 119.65 204.6 119.3 196.95 114.3 189.25 111.1 190.9 108.85 192.75 106.25 193.95 104.55 195.2 102.8 195.25 102.65 195.25 102.5 195.35 102.05 195.4 101.6 195.55 101.45 195.7 101.35 195.05 99.8 194.85 98.2 195.15 98.2 195.45 98.25 195.35 98.15 195.3 98.1
L 195.3 98.05
Q 194.15 97.85 193.15 97.3 186.05 97.05 179 96.75 179 93.85 179.15 90.95 179.3 87.9 178.6 85.1 178.6 84.95 178.65 84.8
M 162.3 112.15
Q 166.8 111.6 170.85 113.15 172.4 113.75 173.45 114.9 173.5 114.95 173.6 114.95 173.75 115 173.9 115.05 174.1 115.1 174.3 115.15 174.35 115.25 174.45 115.35 175.1 115.95 175.75 116.6 176.1 117 176.5 117.3 176.55 117.4 176.6 117.5 176.6 117.6 176.65 117.7 176.65 117.9 176.65 118.1 176.8 118.2 176.85 118.35 176.9 118.4 176.9 118.5 176.9 118.7 176.9 118.9 177 119 177.05 119.1 177.1 119.2 177.2 119.3 177.2 119.4 177.2 119.5 177.2 119.7 177.2 119.9 177.2 120.2 177.2 120.45 177.2 120.55 177.2 120.65 177.15 120.75 177.1 120.85 176.85 121.65 176.25 122.4 175.55 123.3 174.6 124 165.6 127.05 156.7 125.1 153.6 124.4 152.4 121.5 152.3 121.4 152.2 121.3 152.1 121.2 152.05 121.1 151.8 120.85 151.6 120.55 151.6 120.45 151.6 120.35 151.6 119.85 151.6 119.35 151.6 118.85 151.6 118.35 151.6 118 151.6 117.6 151.7 117.5 151.75 117.4 151.8 117.3 151.85 117.2 151.9 117.1 151.95 117 153 115.9 154.3 115.1 158 112.75 162.3 112.15
M 116.45 117.2
Q 116.55 117.3 116.7 117.4 116.75 117.5 116.8 117.6 116.85 117.7 116.9 117.8 116.9 117.9 116.95 118 117.05 118.1 117.15 118.2 117.25 118.25 117.35 118.35 117.5 118.45 117.6 118.55 117.65 118.65 117.75 118.75 117.75 118.85 117.8 118.95 117.85 119.05 117.85 119.15 117.9 119.35 117.95 119.55 117.95 119.65 117.95 119.75 117.95 119.85 117.95 119.95 117.95 120.05 118 120.1 118.05 120.25 118.1 120.35 118.15 120.45 118.2 120.55 118.2 120.65 118.2 120.75 118.2 120.85 118.2 120.95 118.2 121.1 118.2 121.3 118.2 121.4 118.2 121.5 118.2 121.6 118.2 121.7 118.2 122 118.2 122.3 118.2 122.4 118.2 122.5 118.15 122.6 118.1 122.7 118.05 122.8 118 122.9 117.95 123 117.95 123.1 117.95 123.2 117.95 123.3 117.95 123.4 117.95 123.5 117.95 123.6 117.95 123.7 117.9 123.8 117.85 123.85 117.8 123.95 117.75 124.05 117.5 124.35 117.25 124.7 117 125.1 116.6 125.45 116.2 125.8 115.85 126.15 107.5 128.85 98.75 127.15 94.1 126.2 91.45 122.45 91.35 122.35 91.2 122.25 91.1 122.15 91 122.05 90.95 121.95 90.85 121.85 90.85 121.75 90.8 121.65 90.8 121.55 90.8 121.45 90.8 121.25 90.8 121.05 90.8 120.95 90.8 120.85 90.8 120.75 90.8 120.65 90.8 120.35 90.8 120.1 90.8 120 90.8 119.9 91.4 118.2 92.75 117.1 97.55 113.25 103.65 113 108.05 112.8 112.15 114.25 113.45 114.75 114.65 115.5 114.75 115.6 114.85 115.7 114.9 115.8 115 115.9 115.05 115.95 115.15 116 115.2 116.05 115.3 116.1 115.5 116.15 115.65 116.2 115.7 116.3 115.75 116.4 115.85 116.5 115.9 116.6 116.05 116.8 116.25 117 116.35 117.1 116.45 117.2 Z" stroke="none" fill="#FDDF5E"></path>
</g>
</g>
</g>
</g>
</svg>
