
<svg viewBox="0 0 272 172" height="172px" width="272px" y="0px" x="0px" preserveAspectRatio="none" xmlns:xlink="http://www.w3.org/1999/xlink" version="1.1" xmlns="http://www.w3.org/2000/svg">
<defs></defs>

<g id="Layer_2">
<g>
<g>
<g>
<path d="M 63.3 131.55
Q 63.3 131.7 63.3 131.8 63.3 133.5 63.9 135 63.9283203125 136.3580078125 64.1 137.7 64.2611328125 138.7296875 64.5 139.75 64.95 141.6 64.9 143.6 65 143.7 65.05 143.85 65.1 143.95 65.15 144.1 65.15 144.2 65.15 144.35 65.05 145.35 65.35 146.3 65.45 146.55 65.55 146.8 65.55 146.9 65.55 147.05 65.55 147.75 65.55 148.5 65.55 148.65 65.55 148.75 65.65 148.9 65.7 149 65.8 149.5 65.8 150 65.8 150.1 65.8 150.25 65.9 150.35 65.95 150.45 66.05 150.6 66.1 150.7 66.15 150.85 66.15 150.95 66.2 151.6 66.2 152.2 66.2 152.3 66.2 152.45 66.2 152.55 66.25 152.65 66.5 152.95 66.8 153.2 66.8 153.3 66.85 153.4 67.0228515625 153.8494140625 67.2 154.25 73.8404296875 154.301953125 80.55 154.25 83.192578125 154.2318359375 85.85 154.2 83.58125 153.069140625 81.35 151.85 80.9462890625 151.6283203125 80.55 151.4 72.4619140625 146.71953125 67.6 138.95 67.4125 138.325 67.1 137.7 66.95625 137.325 66.75 136.95 65.85 135.4 64.4 134.35 64.35 134.2 64.35 134.05 64.3 133.75 64.3 133.4 63.7 132.5 63.3 131.55
M 210.85 124.65
Q 210.3 126.55 209.85 128.45 209.05 131.7 207.35 134.55 207.35 134.7 207.35 134.85 207.2 135.3 207.25 135.8 207.25 135.95 207.25 136.1 206.9 136.65 206.55 137.25 206.4291015625 137.4732421875 206.3 137.7 205.844140625 138.691796875 205.6 139.75 205.6 139.95 205.55 140.1 203.95 142.95 201.7 145.35 200.3 146.95 199.1 148.7 198.75 148.85 198.45 149 197.65 149.4 197.25 150.2 195.978515625 151.1724609375 194.65 152.1 201.0951171875 151.8443359375 207.5 151.55 207.9408203125 150.9548828125 208.35 150.3 208.35 150.2 208.35 150.05 208.35 149.7 208.35 149.35 208.4 149.2 208.5 149.1 208.75 148.85 209 148.6 209 148.45 209 148.35 209 148.1 209 147.85 209.55 147.05 209.7 146.15 209.95 144.8 209.95 143.45 210.05 143.3 210.15 143.2 210.2 143.05 210.3 142.95 210.35 142.8 210.35 142.7 210.4 142.1 210.4 141.45 210.4 141.35 210.4 141.2 210.4 141.1 210.5 141 210.55 140.85 210.65 140.7 210.65 139.2 210.65 137.7 210.775 133.8 211.1 129.9 211.25 127.25 210.85 124.65
M 114.95 101.8
Q 114.8 101.6 114.7 101.4 114.65 101.3 114.5 101.25 114.2 101 114 100.65 113.85 100.45 113.75 100.25 113.65 100.15 113.55 100.1 113.35 100.05 113.15 99.95 113.05 99.85 113 99.75 112.9 99.65 112.9 99.55 108.7 96.85 103.65 97.3 98.45 97.75 94.5 101.2 93.05 102.45 92.75 104.25 94.6 107.35 98.05 108.85 101.05 110.1 103.25 109.55 104.75 109.15 106.05 109.8 112.05 111 115.55 106.9 115.75 106.7 115.9 106.5 115.95 106.4 115.95 106.3 115.95 106.05 116 105.75 116.05 105.4 116.2 105.1 116.25 105.05 116.25 104.95 116.25 104.85 116.25 104.75 116.25 104.65 116.2 104.55 116.1 104.35 115.95 104.15 115.95 104.05 115.95 103.95 115.95 103.85 115.95 103.75 115.95 103.55 115.95 103.4 115.95 103.3 115.95 103.2 115.95 103.1 115.9 103 115.85 102.9 115.8 102.8 115.75 102.7 115.7 102.6 115.6 102.5 115.45 102.4 115.15 102.15 114.95 101.8
M 174.2 137.7
Q 175.2869140625 137.1169921875 176.35 136.5 182.95 132.7 188.4 127.35 174.35 133.75 158.7 135.6 154.289453125 136.13046875 149.9 136.35 130.701171875 137.4916015625 111.9 133.3 106.35 132.05 101.3 129.5 98.75 128.2 96.3 127.25 96.05 126.95 95.9 126.65 95.8 126.55 95.7 126.45 95.15 126.25 94.45 126 94.4 125.9 94.35 125.8 94.25 125.7 94.15 125.6 93.15 125.2 92.05 125 91.05 124.15 89.9 123.5 89.65 123.4 89.6 123.55 93.219140625 132.658984375 101.35 137.7 103.2404296875 138.8572265625 105.35 139.8 113.5 143.4 122.2 145.3 129 146.8 135.95 147.05 143.0384765625 147.286328125 149.9 146.15 154.6546875 145.382421875 159.3 143.95 167.0751953125 141.5609375 174.2 137.7
M 164.85 96.2
Q 164.46328125 96.189453125 164.05 96.15 163.737890625 96.197265625 163.4 96.25 159.488671875 96.970703125 156.15 99.15 154.8 100 153.7 101.2 153.55 101.7 153.55 102.2 153.6 102.7 153.6 103.2 153.8 103.45 154 103.75 154.2 103.95 154.35 104.15 154.75 105.45 155.85 106.4 156.5 106.95 157.25 107.5 157.4 107.55 157.5 107.65 165.2 108.95 172.7 106.6 173.75 105.85 174.5 104.75 174.65 104.5 174.9 104.25 174.9 104.05 175 103.85 175.05 103.65 175.15 103.45 175.1 103.05 175.05 102.65 175 102.3 174.7 102.05 174.7 101.95 174.7 101.85 174.7 101.75 174.65 101.65 174.65 101.55 174.6 101.5 173.9 100.5 172.85 99.75 172.55 99.55 172.45 99.2 172.25 99.1 172.05 99.05 171.85 99 171.6 98.9 169.3 96.85 166.15 96.4 165.51328125 96.308984375 164.85 96.2
M 66.95 103.1
Q 66.7 103.65 66.55 104.25 66.6 104.35 66.6 104.4 66.6 104.85 66.8 105.2 67.05 108.35 67.4 111.5 67.55 113.2 67.7 114.85 69.35 114.85 71 115.2 71.1 115.2 71.25 115.25 73.8 114.95 76.4 114.6 76.3 113.05 74.55 111.5 73.3 110.35 72.5 108.85 69.9 105.8 66.95 103.1
M 79 83.45
Q 78.7 82.55 78.35 81.7 78.2 85.65 78.25 89.6 78.25 92.55 78.4 95.45 79.479296875 95.159375 80.55 94.85 82.05859375 94.3970703125 83.55 93.9 81.9404296875 90.7123046875 80.55 87.35 79.7375 85.44140625 79 83.45
M 204.55 107.1
Q 204.55 105.9 204.55 104.65 203.45 105.1 202.15 105.3 201.4 105.4 200.6 105.55 200.45 105.7 200.3 105.85 200.15 106 200 106.1 199.9 106.15 199.8 106.15 198.65 106.5 197.55 107 197.45 107.15 197.3 107.25 196.85 107.65 196.4 108.15 196.3 108.2 196.2 108.2 195.8 108.35 195.4 108.45 195.25 108.6 195.05 108.7 194.35 109 194.15 109.65 194.15 109.75 194.1 109.8 193.4 110.15 192.65 110.4 198.45 111.35 204.55 112.25 204.55 109.7 204.55 107.1
M 191.85 93.85
Q 191.75 93.95 191.7 94.1 194.05 95.15 197 96.4 197 96.2 197 96.05 197.15 94.3 196.7 92.7 196.7 91.8 196.7 90.95 196.7 89.35 196.7 87.8 196.7 87.65 196.65 87.55 195.6 88.95 194.65 90.45 193.65 92.05 192.4 93.5 192.1 93.65 191.85 93.85 Z" stroke="none" fill="#EE9D33"></path>

<path d="M 178.6 68.4
Q 178.6 68.25 178.65 68.1 178.8 67.45 178.2 67.15 168.85 69.05 159.25 70.85 159.15 70.7 159.05 70.55 158.6 69.65 158.3 68.7 158.2 68.55 158.1 68.4 158.1 68.25 158.05 68.1 157.9 67.65 157.7 67.15 157.7 67 157.7 66.85 157.7 66.1 157.7 65.35 157.7 64.85 157.7 64.4 157.6 64.25 157.55 64.1 157.25 63.2 157.1 62.25 157.05 61.95 156.9 61.65 156.9 61.5 156.9 61.35 156.9 60.85 156.9 60.4 156.8 60.25 156.7 60.1 156.6 59.95 156.5 59.8 156.5 59.65 156.5 59.5 156.55 58.9 156.05 58.55 152.9712890625 59.7814453125 149.9 61.2 144.9904296875 63.5203125 140.1 66.35
L 140.1 66.4
Q 138.85 66.4 137.65 66.35 137.5 66.2 137.35 66.05 137.3 65.95 137.25 65.85 137.2 65.8 137.1 65.75 136.75 65.65 136.4 65.55 136.4 65.4 136.35 65.25 135.75 64.15 134.75 63.4 134.75 63.25 134.7 63.15 134.15 62.4 133.45 61.85 133.15 61.25 132.9 60.6 132.45 59.25 131.5 58.15 131.5 58 131.45 57.85 131.45 57.7 131.4 57.55 131.2 57.25 130.95 56.95 130.1 55.95 129.55 54.75 129.5 54.65 129.45 54.45 129.4 54.35 129.35 54.35 128.95 54.3 128.5 54.35 123.65 58.9 119.65 64.2 118.1 66.25 116.85 68.5 115.05 68.65 113.25 68.8 110.05 66.8 106.85 64.65 106.2 64.15 105.7 63.5 103.5 62.1 101.35 60.6 100.6 60.1 99.85 59.6 99.05 64.95 99.1 70.65 99.15 74.8 99.15 78.95 99.15 79.25 99.15 79.55 89.99375 79.3234375 80.55 77.05 79.5765625 76.80703125 78.6 76.55 78.6 76.65 78.6 76.75
L 78.6 76.8
Q 78.7 77.1 78.75 77.4 78.85 77.55 78.95 77.7 79.2 78.05 79.45 78.35 79.9888671875 79.9666015625 80.55 81.55 81.446484375 84.147265625 82.4 86.7 83.65 89.9 85.5 92.75 85.55 92.9 85.6 93.1 85.6 93.55 85.6 94 85.6 94.15 85.6 94.3 83.1357421875 95.2521484375 80.55 96.05 73.9017578125 98.1900390625 66.45 99.45 66.55 99.6 66.7 99.7 66.8 99.8 66.85 99.9 67.35 99.9 67.85 100
L 67.85 100.1
Q 67.9 100.6 67.75 101.1 72.5 105.2 76.45 110.2 78 112.25 79.05 114.5 76.55 116.15 72.4 116.5 67.55 116.85 63.1 116.9 62.5 117.1 61.9 117.4 61.85 117.5 61.85 117.6 61.8 117.8 61.8 118 61.85 118.2 61.85 118.4 61.85 118.5 61.85 118.6 62.2 118.6 62.6 118.65
L 62.6 118.75
Q 62.6 118.9 62.6 119 62.6 119.9 62.6 120.75 62.6 121 62.6 121.25 62.65 121.35 62.7 121.45 62.75 121.6 62.85 121.7 62.85 121.85 62.85 122 62.95 122.15 63 122.35 63.05 122.5 63.1 122.65 63.1 122.8 63.1 123 63.1 123.75 63.1 124.5 63.1 124.8 63.1 125.15 64.05 126.85 64.65 128.8 65.25 130.9 66.35 132.8 66.35 132.95 66.4 133.1 66.4 133.4 66.45 133.75 67.35 134.3 67.8 135.3 68.45 136.7 69.55 137.7 69.6 137.9 69.6 138.05 69.65 138.2 69.65 138.35 74.2626953125 144.7390625 80.55 149.4 84.172265625 152.071484375 88.35 154.15 96.8505859375 154.0447265625 105.5 153.8 117.8 153.45 130.15 153.45 140.044140625 153.419921875 149.9 153.25 170.961328125 152.987109375 191.85 152.2 193.496484375 151.000390625 195.1 149.7 195.2 149.55 195.3 149.4 195.85 148.55 196.8 148.15 198 146.9 199 145.4 200 144 201.35 142.95 201.6 142.5 201.85 142.05 202.55 140.75 203.5 139.55 203.6486328125 138.58359375 204.05 137.7 204.183203125 137.3951171875 204.35 137.1 205.3 135.55 205.45 133.75 207.25 129.9 208.25 125.7 208.95 122.6 210.15 119.6 210.15 118.7 210.15 117.75 210.15 116.05 210.15 114.4 210.15 114.2 210.15 114.05 199.9 112.45 189.65 111.1 189.65 110.95 189.7 110.85 190.15 110.1 190.8 109.55 190.9 109.45 191 109.35 191.05 109.3 191.1 109.3 191.6 109.15 192.1 109.05 192.15 108.9 192.25 108.8 192.85 108.15 193.55 107.6 193.95 107.5 194.35 107.4 195.3 106.35 196.65 105.9 197.8 105.55 198.75 104.85 201.2 104.4 203.3 103.25 203.85 102.95 204.6 102.6 196.95 97.6 189.25 94.4 190.9 92.15 192.75 89.55 193.95 87.85 195.2 86.1 195.25 85.95 195.25 85.8 195.35 85.35 195.4 84.9 195.55 84.75 195.7 84.65 195.05 83.1 194.85 81.5 195.15 81.5 195.45 81.55 195.35 81.45 195.3 81.4
L 195.3 81.35
Q 194.15 81.15 193.15 80.6 186.05 80.35 179 80.05 179 77.15 179.15 74.25 179.3 71.2 178.6 68.4
M 162.3 95.45
Q 166.8 94.9 170.85 96.45 172.4 97.05 173.45 98.2 173.5 98.25 173.6 98.25 173.75 98.3 173.9 98.35 174.1 98.4 174.3 98.45 174.35 98.55 174.45 98.65 175.1 99.25 175.75 99.9 176.1 100.3 176.5 100.6 176.55 100.7 176.6 100.8 176.6 100.9 176.65 101 176.65 101.2 176.65 101.4 176.8 101.5 176.85 101.65 176.9 101.7 176.9 101.8 176.9 102 176.9 102.2 177 102.3 177.05 102.4 177.1 102.5 177.2 102.6 177.2 102.7 177.2 102.8 177.2 103 177.2 103.2 177.2 103.5 177.2 103.75 177.2 103.85 177.2 103.95 177.15 104.05 177.1 104.15 176.85 104.95 176.25 105.7 175.55 106.6 174.6 107.3 165.6 110.35 156.7 108.4 153.6 107.7 152.4 104.8 152.3 104.7 152.2 104.6 152.1 104.5 152.05 104.4 151.8 104.15 151.6 103.85 151.6 103.75 151.6 103.65 151.6 103.15 151.6 102.65 151.6 102.15 151.6 101.65 151.6 101.3 151.6 100.9 151.7 100.8 151.75 100.7 151.8 100.6 151.85 100.5 151.9 100.4 151.95 100.3 153 99.2 154.3 98.4 158 96.05 162.3 95.45
M 192.15 122.9
Q 192.2 122.8 192.3 122.75 192.4 122.65 192.5 122.6
L 192.5 122.55
Q 193.5 122.65 194.45 122.85 194.5 122.85 194.5 122.95 194.5 123.05 194.45 123.15 194.4 123.55 194.1 123.8 193.8 124.05 193.5 124.35 193.45 124.45 193.45 124.55 193.4 124.65 193.35 124.75 193.35 124.85 193.3 124.95 193.2 125.05 193.1 125.1 192.6 125.4 192.25 125.8 191.9 126.25 191.45 126.7 191.45 126.8 191.4 126.9 191.35 127 191.3 127.1 191.25 127.2 191.2 127.3 185.10234375 133.39765625 177.65 137.7 176.86171875 138.1603515625 176.05 138.6 166.75 143.7 156.45 146.1 153.218359375 146.8603515625 149.9 147.25 148.854296875 147.3662109375 147.8 147.45 126.45 149.15 106.25 141.9 101.823828125 140.2943359375 98.25 137.7 93.66328125 134.3162109375 90.55 129.25 89.15 127.05 87.7 124.85 87.7 124.75 87.7 124.65 87.65 124.5 87.65 124.3 87.65 124.2 87.65 124.1 87.65 124 87.65 123.9 87.6 123.8 87.55 123.7 87.45 123.5 87.4 123.3 87.4 123.2 87.4 123.1 87.35 123 87.3 122.9 87.25 122.8 87.15 122.7 87.15 122.6 87.15 122.5 87.15 122.3 87.15 122.1 87.15 122 87.15 121.9 87.15 121.8 87.15 121.75 87.2 121.65 87.25 121.6 88.5 121.65 89.7 121.65 90.25 122.25 91 122.6 92.5 123.3 93.9 124.3 94.05 124.35 94.2 124.35 95.45 124.45 96.35 125.2 96.45 125.3 96.55 125.4 96.75 125.45 96.9 125.5 97.25 125.6 97.55 125.65 97.65 125.75 97.75 125.85 97.9 126.05 98 126.25 98.1 126.35 98.15 126.45 98.2 126.5 98.3 126.55 98.75 126.65 99.2 126.7 108.25 132.5 118.95 134.2 134.398046875 136.6583984375 149.9 135.5 155.5212890625 135.0916015625 161.15 134.2 164 133.75 166.9 133.2 177.45 131.1 186.95 126.3 187.05 126.2 187.15 126.1 187.2 126 187.25 125.9 188.25 125.55 189.15 125.05 190.65 124.15 192 123.1 192.1 123 192.15 122.9
M 112.15 97.55
Q 113.45 98.05 114.65 98.8 114.75 98.9 114.85 99 114.9 99.1 115 99.2 115.05 99.25 115.15 99.3 115.2 99.35 115.3 99.4 115.5 99.45 115.65 99.5 115.7 99.6 115.75 99.7 115.85 99.8 115.9 99.9 116.05 100.1 116.25 100.3 116.35 100.4 116.45 100.5 116.55 100.6 116.7 100.7 116.75 100.8 116.8 100.9 116.85 101 116.9 101.1 116.9 101.2 116.95 101.3 117.05 101.4 117.15 101.5 117.25 101.55 117.35 101.65 117.5 101.75 117.6 101.85 117.65 101.95 117.75 102.05 117.75 102.15 117.8 102.25 117.85 102.35 117.85 102.45 117.9 102.65 117.95 102.85 117.95 102.95 117.95 103.05 117.95 103.15 117.95 103.25 117.95 103.35 118 103.4 118.05 103.55 118.1 103.65 118.15 103.75 118.2 103.85 118.2 103.95 118.2 104.05 118.2 104.15 118.2 104.25 118.2 104.4 118.2 104.6 118.2 104.7 118.2 104.8 118.2 104.9 118.2 105 118.2 105.3 118.2 105.6 118.2 105.7 118.2 105.8 118.15 105.9 118.1 106 118.05 106.1 118 106.2 117.95 106.3 117.95 106.4 117.95 106.5 117.95 106.6 117.95 106.7 117.95 106.8 117.95 106.9 117.95 107 117.9 107.1 117.85 107.15 117.8 107.25 117.75 107.35 117.5 107.65 117.25 108 117 108.4 116.6 108.75 116.2 109.1 115.85 109.45 107.5 112.15 98.75 110.45 94.1 109.5 91.45 105.75 91.35 105.65 91.2 105.55 91.1 105.45 91 105.35 90.95 105.25 90.85 105.15 90.85 105.05 90.8 104.95 90.8 104.85 90.8 104.75 90.8 104.55 90.8 104.35 90.8 104.25 90.8 104.15 90.8 104.05 90.8 103.95 90.8 103.65 90.8 103.4 90.8 103.3 90.8 103.2 91.4 101.5 92.75 100.4 97.55 96.55 103.65 96.3 108.05 96.1 112.15 97.55 Z" stroke="none" fill="#FDDF5E"></path>

<path d="M 114.65 98.8
Q 113.45 98.05 112.15 97.55 108.05 96.1 103.65 96.3 97.55 96.55 92.75 100.4 91.4 101.5 90.8 103.2 90.8 103.3 90.8 103.4 90.8 103.65 90.8 103.95 90.8 104.05 90.8 104.15 90.8 104.25 90.8 104.35 90.8 104.55 90.8 104.75 90.8 104.85 90.8 104.95 90.85 105.05 90.85 105.15 90.95 105.25 91 105.35 91.1 105.45 91.2 105.55 91.35 105.65 91.45 105.75 94.1 109.5 98.75 110.45 107.5 112.15 115.85 109.45 116.2 109.1 116.6 108.75 117 108.4 117.25 108 117.5 107.65 117.75 107.35 117.8 107.25 117.85 107.15 117.9 107.1 117.95 107 117.95 106.9 117.95 106.8 117.95 106.7 117.95 106.6 117.95 106.5 117.95 106.4 117.95 106.3 118 106.2 118.05 106.1 118.1 106 118.15 105.9 118.2 105.8 118.2 105.7 118.2 105.6 118.2 105.3 118.2 105 118.2 104.9 118.2 104.8 118.2 104.7 118.2 104.6 118.2 104.4 118.2 104.25 118.2 104.15 118.2 104.05 118.2 103.95 118.2 103.85 118.15 103.75 118.1 103.65 118.05 103.55 118 103.4 117.95 103.35 117.95 103.25 117.95 103.15 117.95 103.05 117.95 102.95 117.95 102.85 117.9 102.65 117.85 102.45 117.85 102.35 117.8 102.25 117.75 102.15 117.75 102.05 117.65 101.95 117.6 101.85 117.5 101.75 117.35 101.65 117.25 101.55 117.15 101.5 117.05 101.4 116.95 101.3 116.9 101.2 116.9 101.1 116.85 101 116.8 100.9 116.75 100.8 116.7 100.7 116.55 100.6 116.45 100.5 116.35 100.4 116.25 100.3 116.05 100.1 115.9 99.9 115.85 99.8 115.75 99.7 115.7 99.6 115.65 99.5 115.5 99.45 115.3 99.4 115.2 99.35 115.15 99.3 115.05 99.25 115 99.2 114.9 99.1 114.85 99 114.75 98.9 114.65 98.8
M 114.7 101.4
Q 114.8 101.6 114.95 101.8 115.15 102.15 115.45 102.4 115.6 102.5 115.7 102.6 115.75 102.7 115.8 102.8 115.85 102.9 115.9 103 115.95 103.1 115.95 103.2 115.95 103.3 115.95 103.4 115.95 103.55 115.95 103.75 115.95 103.85 115.95 103.95 115.95 104.05 115.95 104.15 116.1 104.35 116.2 104.55 116.25 104.65 116.25 104.75 116.25 104.85 116.25 104.95 116.25 105.05 116.2 105.1 116.05 105.4 116 105.75 115.95 106.05 115.95 106.3 115.95 106.4 115.9 106.5 115.75 106.7 115.55 106.9 112.05 111 106.05 109.8 104.75 109.15 103.25 109.55 101.05 110.1 98.05 108.85 94.6 107.35 92.75 104.25 93.05 102.45 94.5 101.2 98.45 97.75 103.65 97.3 108.7 96.85 112.9 99.55 112.9 99.65 113 99.75 113.05 99.85 113.15 99.95 113.35 100.05 113.55 100.1 113.65 100.15 113.75 100.25 113.85 100.45 114 100.65 114.2 101 114.5 101.25 114.65 101.3 114.7 101.4
M 192.3 122.75
Q 192.2 122.8 192.15 122.9 192.1 123 192 123.1 190.65 124.15 189.15 125.05 188.25 125.55 187.25 125.9 187.2 126 187.15 126.1 187.05 126.2 186.95 126.3 177.45 131.1 166.9 133.2 164 133.75 161.15 134.2 155.5212890625 135.0916015625 149.9 135.5 134.398046875 136.6583984375 118.95 134.2 108.25 132.5 99.2 126.7 98.75 126.65 98.3 126.55 98.2 126.5 98.15 126.45 98.1 126.35 98 126.25 97.9 126.05 97.75 125.85 97.65 125.75 97.55 125.65 97.25 125.6 96.9 125.5 96.75 125.45 96.55 125.4 96.45 125.3 96.35 125.2 95.45 124.45 94.2 124.35 94.05 124.35 93.9 124.3 92.5 123.3 91 122.6 90.25 122.25 89.7 121.65 88.5 121.65 87.25 121.6 87.2 121.65 87.15 121.75 87.15 121.8 87.15 121.9 87.15 122 87.15 122.1 87.15 122.3 87.15 122.5 87.15 122.6 87.15 122.7 87.25 122.8 87.3 122.9 87.35 123 87.4 123.1 87.4 123.2 87.4 123.3 87.45 123.5 87.55 123.7 87.6 123.8 87.65 123.9 87.65 124 87.65 124.1 87.65 124.2 87.65 124.3 87.65 124.5 87.7 124.65 87.7 124.75 87.7 124.85 89.15 127.05 90.55 129.25 93.66328125 134.3162109375 98.25 137.7 101.823828125 140.2943359375 106.25 141.9 126.45 149.15 147.8 147.45 148.854296875 147.3662109375 149.9 147.25 153.218359375 146.8603515625 156.45 146.1 166.75 143.7 176.05 138.6 176.86171875 138.1603515625 177.65 137.7 185.10234375 133.39765625 191.2 127.3 191.25 127.2 191.3 127.1 191.35 127 191.4 126.9 191.45 126.8 191.45 126.7 191.9 126.25 192.25 125.8 192.6 125.4 193.1 125.1 193.2 125.05 193.3 124.95 193.35 124.85 193.35 124.75 193.4 124.65 193.45 124.55 193.45 124.45 193.5 124.35 193.8 124.05 194.1 123.8 194.4 123.55 194.45 123.15 194.5 123.05 194.5 122.95 194.5 122.85 194.45 122.85 193.5 122.65 192.5 122.55
L 192.5 122.6
Q 192.4 122.65 192.3 122.75
M 176.35 136.5
Q 175.2869140625 137.1169921875 174.2 137.7 167.0751953125 141.5609375 159.3 143.95 154.6546875 145.382421875 149.9 146.15 143.0384765625 147.286328125 135.95 147.05 129 146.8 122.2 145.3 113.5 143.4 105.35 139.8 103.2404296875 138.8572265625 101.35 137.7 93.219140625 132.658984375 89.6 123.55 89.65 123.4 89.9 123.5 91.05 124.15 92.05 125 93.15 125.2 94.15 125.6 94.25 125.7 94.35 125.8 94.4 125.9 94.45 126 95.15 126.25 95.7 126.45 95.8 126.55 95.9 126.65 96.05 126.95 96.3 127.25 98.75 128.2 101.3 129.5 106.35 132.05 111.9 133.3 130.701171875 137.4916015625 149.9 136.35 154.289453125 136.13046875 158.7 135.6 174.35 133.75 188.4 127.35 182.95 132.7 176.35 136.5
M 170.85 96.45
Q 166.8 94.9 162.3 95.45 158 96.05 154.3 98.4 153 99.2 151.95 100.3 151.9 100.4 151.85 100.5 151.8 100.6 151.75 100.7 151.7 100.8 151.6 100.9 151.6 101.3 151.6 101.65 151.6 102.15 151.6 102.65 151.6 103.15 151.6 103.65 151.6 103.75 151.6 103.85 151.8 104.15 152.05 104.4 152.1 104.5 152.2 104.6 152.3 104.7 152.4 104.8 153.6 107.7 156.7 108.4 165.6 110.35 174.6 107.3 175.55 106.6 176.25 105.7 176.85 104.95 177.1 104.15 177.15 104.05 177.2 103.95 177.2 103.85 177.2 103.75 177.2 103.5 177.2 103.2 177.2 103 177.2 102.8 177.2 102.7 177.2 102.6 177.1 102.5 177.05 102.4 177 102.3 176.9 102.2 176.9 102 176.9 101.8 176.9 101.7 176.85 101.65 176.8 101.5 176.65 101.4 176.65 101.2 176.65 101 176.6 100.9 176.6 100.8 176.55 100.7 176.5 100.6 176.1 100.3 175.75 99.9 175.1 99.25 174.45 98.65 174.35 98.55 174.3 98.45 174.1 98.4 173.9 98.35 173.75 98.3 173.6 98.25 173.5 98.25 173.45 98.2 172.4 97.05 170.85 96.45
M 164.05 96.15
Q 164.46328125 96.189453125 164.85 96.2 165.51328125 96.308984375 166.15 96.4 169.3 96.85 171.6 98.9 171.85 99 172.05 99.05 172.25 99.1 172.45 99.2 172.55 99.55 172.85 99.75 173.9 100.5 174.6 101.5 174.65 101.55 174.65 101.65 174.7 101.75 174.7 101.85 174.7 101.95 174.7 102.05 175 102.3 175.05 102.65 175.1 103.05 175.15 103.45 175.05 103.65 175 103.85 174.9 104.05 174.9 104.25 174.65 104.5 174.5 104.75 173.75 105.85 172.7 106.6 165.2 108.95 157.5 107.65 157.4 107.55 157.25 107.5 156.5 106.95 155.85 106.4 154.75 105.45 154.35 104.15 154.2 103.95 154 103.75 153.8 103.45 153.6 103.2 153.6 102.7 153.55 102.2 153.55 101.7 153.7 101.2 154.8 100 156.15 99.15 159.488671875 96.970703125 163.4 96.25 163.737890625 96.197265625 164.05 96.15
M 180 66.25
Q 179.9 66.1 179.7 65.95 170.1 67 161 69.75 160.95 69.45 160.8 69.25 160.75 69.05 160.55 68.9 160.55 68.75 160.55 68.6 160.35 68.15 160.2 67.65 160.15 67.55 160.15 67.4 159.95 67.05 159.8 66.75 159.75 66.6 159.75 66.45 159.75 66.3 159.75 66.15 159.95 64.4 159.6 62.7 159.4 61.8 158.95 60.9 158.95 60.6 158.95 60.3 158.95 60.15 158.95 60 158.9 59.85 158.8 59.75 158.45 59.3 158.5 58.75 158.55 58.6 158.55 58.45 158.5 58.3 158.4 58.2 158.25 58 158.1 57.85 158.05 57.55 157.95 57.25 157.85 57.1 157.7 56.95 156.4 56.9 155.05 56.9 154.9 56.95 154.75 57.05 154.2 57.45 153.7 57.95 153.5 58.1 153.3 58.25 151.591015625 58.9580078125 149.9 59.7 144.6642578125 62.0412109375 139.6 64.8 139.05 64.85 138.55 64.8 138.5 64.8 138.45 64.7 138.15 63.7 137.25 63.15 137.05 63 136.9 62.85 136.85 62.7 136.8 62.55 136.75 62.4 136.7 62.25 136.3 61.95 135.9 61.6 135.75 61.5 135.6 61.35 134.9 60.15 134.35 58.9 134.1 58.2 133.55 57.65 133.55 57.5 133.5 57.35 132.95 56.05 132 54.9 131.55 54.35 131.4 53.65 131.1 53.55 130.8 53.4 130.75 53.4 130.65 53.35 130.55 53.25 130.5 53.15 130.35 53 130.25 52.85 129.15 52.8 128 52.75 125.5 54.4 123.3 56.8 118.5 62.05 114.6 67.7 114.1 67.3 113.5 66.95 107.35 63.25 101.7 58.65 101.15 58.5 100.6 58.3 100.4 58.25 100.25 58.15 99.2 58.1 98.1 58.15 98 58.15 97.9 58.25 97.95 58.8 97.65 59.2 97.55 59.35 97.5 59.5 97.5 59.8 97.5 60.1 97.25 64.25 97.2 68.4 97.1 73.6 97.1 78.85 91.85 78.5 86.8 76.85 83.539453125 75.8080078125 80.55 75.8 79.0927734375 75.804296875 77.7 76.05 77.15 76 76.65 76 76.65 76.15 76.65 76.3 76.4 76.35 76.2 76.4 76.4 76.8 76.55 77.25 76.35 80 76.35 82.8 76.35 89.35 76.35 95.9 74.4 96.3 72.45 96.6 67.4 97.35 64.3 99.65 64.75 100.6 65.35 101.4 65.05 102.25 64.8 103.15 64.35 104.55 64.85 105.85 64.95 108.25 65.25 110.6 65.6 112.75 65.65 114.95 65.25 115 64.85 115.05 62.6 115.7 60.25 116.45 60.15 116.5 60 116.55 59.95 116.6 59.95 116.7 59.25 116.75 58.6 116.85 59.2 116.85 59.85 116.9 59.8 116.9 59.75 116.95 59.65 117.05 59.6 117.15 59.6 117.25 59.6 117.35 59.6 117.45 59.6 117.55 59.6 117.65 59.6 117.75 59.6 117.8 59.6 117.85 59.55 117.85 59.45 117.9 59.4 117.9 59.4 118.05 59.4 118.2 59.4 118.35 59.4 118.85 59.4 119.3 59.4 119.45 59.4 119.6 59.9 119.95 59.85 120.5 59.8 120.65 59.8 120.85 60.05 121.15 60.3 121.45 60.45 121.6 60.55 121.75 60.6 121.9 60.6 122.05 60.6 122.6 60.9 123 60.85 124.55 60.75 126.05 60.65 128.25 61.3 130.25 61.5 131.85 61.45 133.45 61.4 134.6 61.95 135.65 61.97578125 136.681640625 62.1 137.7 62.2580078125 138.655859375 62.5 139.6 63.15 141.85 62.95 144.25 63 144.35 63.1 144.5 63.15 144.6 63.15 144.75 63.15 145 63.15 145.25 63 146.3 63.5 147.2 63.55 147.3 63.6 147.45 63.6 147.55 63.6 147.7 63.6 148.55 63.7 149.4 63.7 149.55 63.85 149.65 63.85 149.8 63.85 149.9 63.85 150.25 63.85 150.65 63.85 150.75 63.85 150.9 64 151.15 64.15 151.4 64.2 151.5 64.25 151.6 64.25 151.75 64.25 151.85 64.25 152.35 64.25 152.85 64.25 152.95 64.25 153.1 64.4 153.35 64.6 153.55 64.7 153.7 64.8 153.85 64.85 153.95 64.9 154.1 64.931640625 154.182421875 64.95 154.25 66.093359375 154.2703125 67.2 154.25 67.0228515625 153.8494140625 66.85 153.4 66.8 153.3 66.8 153.2 66.5 152.95 66.25 152.65 66.2 152.55 66.2 152.45 66.2 152.3 66.2 152.2 66.2 151.6 66.15 150.95 66.15 150.85 66.1 150.7 66.05 150.6 65.95 150.45 65.9 150.35 65.8 150.25 65.8 150.1 65.8 150 65.8 149.5 65.7 149 65.65 148.9 65.55 148.75 65.55 148.65 65.55 148.5 65.55 147.75 65.55 147.05 65.55 146.9 65.55 146.8 65.45 146.55 65.35 146.3 65.05 145.35 65.15 144.35 65.15 144.2 65.15 144.1 65.1 143.95 65.05 143.85 65 143.7 64.9 143.6 64.95 141.6 64.5 139.75 64.2611328125 138.7296875 64.1 137.7 63.9283203125 136.3580078125 63.9 135 63.3 133.5 63.3 131.8 63.3 131.7 63.3 131.55 63.7 132.5 64.3 133.4 64.3 133.75 64.35 134.05 64.35 134.2 64.4 134.35 65.85 135.4 66.75 136.95 66.95625 137.325 67.1 137.7 67.4125 138.325 67.6 138.95 72.4619140625 146.71953125 80.55 151.4 80.9462890625 151.6283203125 81.35 151.85 83.58125 153.069140625 85.85 154.2 87.0982421875 154.184765625 88.35 154.15 84.172265625 152.071484375 80.55 149.4 74.2626953125 144.7390625 69.65 138.35 69.65 138.2 69.6 138.05 69.6 137.9 69.55 137.7 68.45 136.7 67.8 135.3 67.35 134.3 66.45 133.75 66.4 133.4 66.4 133.1 66.35 132.95 66.35 132.8 65.25 130.9 64.65 128.8 64.05 126.85 63.1 125.15 63.1 124.8 63.1 124.5 63.1 123.75 63.1 123 63.1 122.8 63.1 122.65 63.05 122.5 63 122.35 62.95 122.15 62.85 122 62.85 121.85 62.85 121.7 62.75 121.6 62.7 121.45 62.65 121.35 62.6 121.25 62.6 121 62.6 120.75 62.6 119.9 62.6 119 62.6 118.9 62.6 118.75
L 62.6 118.65
Q 62.2 118.6 61.85 118.6 61.85 118.5 61.85 118.4 61.85 118.2 61.8 118 61.8 117.8 61.85 117.6 61.85 117.5 61.9 117.4 62.5 117.1 63.1 116.9 67.55 116.85 72.4 116.5 76.55 116.15 79.05 114.5 78 112.25 76.45 110.2 72.5 105.2 67.75 101.1 67.9 100.6 67.85 100.1
L 67.85 100
Q 67.35 99.9 66.85 99.9 66.8 99.8 66.7 99.7 66.55 99.6 66.45 99.45 73.9017578125 98.1900390625 80.55 96.05 83.1357421875 95.2521484375 85.6 94.3 85.6 94.15 85.6 94 85.6 93.55 85.6 93.1 85.55 92.9 85.5 92.75 83.65 89.9 82.4 86.7 81.446484375 84.147265625 80.55 81.55 79.9888671875 79.9666015625 79.45 78.35 79.2 78.05 78.95 77.7 78.85 77.55 78.75 77.4 78.7 77.1 78.6 76.8
L 78.6 76.75
Q 78.6 76.65 78.6 76.55 79.5765625 76.80703125 80.55 77.05 89.99375 79.3234375 99.15 79.55 99.15 79.25 99.15 78.95 99.15 74.8 99.1 70.65 99.05 64.95 99.85 59.6 100.6 60.1 101.35 60.6 103.5 62.1 105.7 63.5 106.2 64.15 106.85 64.65 110.05 66.8 113.25 68.8 115.05 68.65 116.85 68.5 118.1 66.25 119.65 64.2 123.65 58.9 128.5 54.35 128.95 54.3 129.35 54.35 129.4 54.35 129.45 54.45 129.5 54.65 129.55 54.75 130.1 55.95 130.95 56.95 131.2 57.25 131.4 57.55 131.45 57.7 131.45 57.85 131.5 58 131.5 58.15 132.45 59.25 132.9 60.6 133.15 61.25 133.45 61.85 134.15 62.4 134.7 63.15 134.75 63.25 134.75 63.4 135.75 64.15 136.35 65.25 136.4 65.4 136.4 65.55 136.75 65.65 137.1 65.75 137.2 65.8 137.25 65.85 137.3 65.95 137.35 66.05 137.5 66.2 137.65 66.35 138.85 66.4 140.1 66.4
L 140.1 66.35
Q 144.9904296875 63.5203125 149.9 61.2 152.9712890625 59.7814453125 156.05 58.55 156.55 58.9 156.5 59.5 156.5 59.65 156.5 59.8 156.6 59.95 156.7 60.1 156.8 60.25 156.9 60.4 156.9 60.85 156.9 61.35 156.9 61.5 156.9 61.65 157.05 61.95 157.1 62.25 157.25 63.2 157.55 64.1 157.6 64.25 157.7 64.4 157.7 64.85 157.7 65.35 157.7 66.1 157.7 66.85 157.7 67 157.7 67.15 157.9 67.65 158.05 68.1 158.1 68.25 158.1 68.4 158.2 68.55 158.3 68.7 158.6 69.65 159.05 70.55 159.15 70.7 159.25 70.85 168.85 69.05 178.2 67.15 178.8 67.45 178.65 68.1 178.6 68.25 178.6 68.4 179.3 71.2 179.15 74.25 179 77.15 179 80.05 186.05 80.35 193.15 80.6 194.15 81.15 195.3 81.35
L 195.3 81.4
Q 195.35 81.45 195.45 81.55 195.15 81.5 194.85 81.5 195.05 83.1 195.7 84.65 195.55 84.75 195.4 84.9 195.35 85.35 195.25 85.8 195.25 85.95 195.2 86.1 193.95 87.85 192.75 89.55 190.9 92.15 189.25 94.4 196.95 97.6 204.6 102.6 203.85 102.95 203.3 103.25 201.2 104.4 198.75 104.85 197.8 105.55 196.65 105.9 195.3 106.35 194.35 107.4 193.95 107.5 193.55 107.6 192.85 108.15 192.25 108.8 192.15 108.9 192.1 109.05 191.6 109.15 191.1 109.3 191.05 109.3 191 109.35 190.9 109.45 190.8 109.55 190.15 110.1 189.7 110.85 189.65 110.95 189.65 111.1 199.9 112.45 210.15 114.05 210.15 114.2 210.15 114.4 210.15 116.05 210.15 117.75 210.15 118.7 210.15 119.6 208.95 122.6 208.25 125.7 207.25 129.9 205.45 133.75 205.3 135.55 204.35 137.1 204.183203125 137.3951171875 204.05 137.7 203.6486328125 138.58359375 203.5 139.55 202.55 140.75 201.85 142.05 201.6 142.5 201.35 142.95 200 144 199 145.4 198 146.9 196.8 148.15 195.85 148.55 195.3 149.4 195.2 149.55 195.1 149.7 193.496484375 151.000390625 191.85 152.2 193.266015625 152.1474609375 194.65 152.1 195.978515625 151.1724609375 197.25 150.2 197.65 149.4 198.45 149 198.75 148.85 199.1 148.7 200.3 146.95 201.7 145.35 203.95 142.95 205.55 140.1 205.6 139.95 205.6 139.75 205.844140625 138.691796875 206.3 137.7 206.4291015625 137.4732421875 206.55 137.25 206.9 136.65 207.25 136.1 207.25 135.95 207.25 135.8 207.2 135.3 207.35 134.85 207.35 134.7 207.35 134.55 209.05 131.7 209.85 128.45 210.3 126.55 210.85 124.65 211.25 127.25 211.1 129.9 210.775 133.8 210.65 137.7 210.65 139.2 210.65 140.7 210.55 140.85 210.5 141 210.4 141.1 210.4 141.2 210.4 141.35 210.4 141.45 210.4 142.1 210.35 142.7 210.35 142.8 210.3 142.95 210.2 143.05 210.15 143.2 210.05 143.3 209.95 143.45 209.95 144.8 209.7 146.15 209.55 147.05 209 147.85 209 148.1 209 148.35 209 148.45 209 148.6 208.75 148.85 208.5 149.1 208.4 149.2 208.35 149.35 208.35 149.7 208.35 150.05 208.35 150.2 208.35 150.3 207.9408203125 150.9548828125 207.5 151.55 208.7369140625 151.4849609375 209.95 151.4 210.1578125 151.0111328125 210.25 150.55 210.3 150.3 210.3 150.05 210.6 149.7 210.85 149.3 210.9 149.2 210.95 149.1 210.95 148.85 210.95 148.6 210.95 148.45 210.95 148.35 211.4 147.9 211.6 147.35 211.65 147.25 211.7 147.1 211.7 147 211.7 146.85 211.7 146.5 211.7 146.15 211.7 146 211.7 145.9 211.8 145.75 211.85 145.65 211.9 145.5 211.95 145.4 211.95 145.25 211.95 145.15 211.95 144.8 211.95 144.4 211.95 144.3 211.95 144.15 212.1 143.9 212.25 143.65 212.3 143.55 212.35 143.45 212.35 143.3 212.35 143.2 212.35 142.55 212.35 141.95 212.35 141.85 212.35 141.7 212.45 141.6 212.5 141.45 212.55 141.35 212.6 141.2 212.6 139.6 212.6 138 212.6 137.85 212.6 137.7 212.6 136.5 212.6 135.3 213.3 132.1 213.1 128.7 212.75 122.4 212.35 116.15 212.35 116.05 212.35 116 212.25 116 212.2 116 212.2 114.7 212.2 113.35 209.35 112.95 206.55 112.55 206.55 110.65 206.55 108.75 206.55 106.1 206.55 103.5 206.9 103.15 207.25 102.8 204.7 99.7 200.75 98 199.85 97.6 198.95 97.25 198.95 95.8 199 94.35 199.05 93.2 198.65 92.2 198.65 90.5 198.75 88.85 198.8 87.7 198.4 86.65 198.5 85.6 198.2 84.65 198.4 84.3 198.55 83.95 198.6 83.8 198.65 83.65 198.65 83.35 198.65 83.05 198.65 82.45 198.65 81.8 198.6 81.65 198.55 81.5 198.2 81.4 197.85 81.3 197.85 81.25 197.8 81.25 197.7 81.1 197.55 80.95 197.45 80.85 197.35 80.7 196.4 80.4 195.5 80.05 195.25 79.95 195 79.85 188 79.6 181.05 79.35 181.05 76.6 181.05 73.85 181.05 71.2 181.05 68.6 181 68.45 180.9 68.35 180.6 67.9 180.65 67.35 180.65 67.2 180.65 67.05 180.65 66.9 180.55 66.85 180.25 66.6 180 66.25
M 191.7 94.1
Q 191.75 93.95 191.85 93.85 192.1 93.65 192.4 93.5 193.65 92.05 194.65 90.45 195.6 88.95 196.65 87.55 196.7 87.65 196.7 87.8 196.7 89.35 196.7 90.95 196.7 91.8 196.7 92.7 197.15 94.3 197 96.05 197 96.2 197 96.4 194.05 95.15 191.7 94.1
M 204.55 104.65
Q 204.55 105.9 204.55 107.1 204.55 109.7 204.55 112.25 198.45 111.35 192.65 110.4 193.4 110.15 194.1 109.8 194.15 109.75 194.15 109.65 194.35 109 195.05 108.7 195.25 108.6 195.4 108.45 195.8 108.35 196.2 108.2 196.3 108.2 196.4 108.15 196.85 107.65 197.3 107.25 197.45 107.15 197.55 107 198.65 106.5 199.8 106.15 199.9 106.15 200 106.1 200.15 106 200.3 105.85 200.45 105.7 200.6 105.55 201.4 105.4 202.15 105.3 203.45 105.1 204.55 104.65
M 78.35 81.7
Q 78.7 82.55 79 83.45 79.7375 85.44140625 80.55 87.35 81.9404296875 90.7123046875 83.55 93.9 82.05859375 94.3970703125 80.55 94.85 79.479296875 95.159375 78.4 95.45 78.25 92.55 78.25 89.6 78.2 85.65 78.35 81.7
M 66.55 104.25
Q 66.7 103.65 66.95 103.1 69.9 105.8 72.5 108.85 73.3 110.35 74.55 111.5 76.3 113.05 76.4 114.6 73.8 114.95 71.25 115.25 71.1 115.2 71 115.2 69.35 114.85 67.7 114.85 67.55 113.2 67.4 111.5 67.05 108.35 66.8 105.2 66.6 104.85 66.6 104.4 66.6 104.35 66.55 104.25 Z" stroke="none" fill="#000000"></path>
</g>
</g>
</g>
</g>
</svg>
