<svg version="1.1" xmlns="http://www.w3.org/2000/svg" xmlns:xlink="http://www.w3.org/1999/xlink" width="230.76615" height="45.93963" viewBox="0,0,230.76615,45.93963"><g transform="translate(-199.30729,-160.26613)"><g data-paper-data="{&quot;isPaintingLayer&quot;:true}" fill="#4d8df4" fill-rule="nonzero" stroke="none" stroke-width="1" stroke-linecap="butt" stroke-linejoin="miter" stroke-miterlimit="10" stroke-dasharray="" stroke-dashoffset="0" style="mix-blend-mode: normal"><path d="M333.56677,193.38552c-20.05982,-2.31457 -35.09053,-4.06487 -45.09214,-5.25091c-36.4069,-4.3037 -66.12935,-8.32764 -89.16734,-12.07184l0.48718,-0.77561c23.13242,3.65917 52.93731,7.56818 89.41467,11.72705c10.02513,1.14857 25.08166,2.84144 45.16959,5.07862c17.7881,2.01315 32.80235,3.78969 45.04272,5.3296l-0.92493,1.47253c-12.24537,-1.59726 -27.22195,-3.43374 -44.92975,-5.50945z"/><path d="M380.68757,199.17786l0.92493,-1.47253l7.00002,0.90381l-0.93905,1.49501z"/><path d="M430.0461,204.54214l-1.04496,1.66362c-11.88664,-1.93982 -24.93688,-3.8719 -39.15072,-5.79623l0.94612,-1.50625c13.92901,1.82275 27.01219,3.70237 39.24957,5.63886z"/><path d="M221.31769,162.71778l-4.44533,4.4814l9.27624,1.14909l-1.88301,1.87138l-9.24072,-1.15666l-6.43425,6.52138l-4.58132,-0.59152l14.60302,-14.72672c6.0846,0.76131 11.57156,1.42925 16.46089,2.00382l-1.86868,1.89753c-3.18686,-0.37906 -7.14915,-0.8623 -11.88686,-1.44971z"/><path d="M240.76595,166.62636l-11.60146,11.76024l-4.6025,-0.55779l11.5944,-11.74899l4.60956,0.54655M238.41169,163.17494c0.32949,-0.52456 0.96286,-0.92888 1.90011,-1.21294c0.94196,-0.29156 1.88242,-0.38482 2.82137,-0.27979c0.72558,0.08558 1.22885,0.28019 1.50984,0.58382c0.28569,0.29614 0.30615,0.63904 0.06138,1.02872c-0.32949,0.52456 -0.95573,0.93385 -1.87872,1.22786c-0.96564,0.2966 -1.89425,0.38734 -2.78586,0.27223c-0.73029,-0.07809 -1.24305,-0.27392 -1.5383,-0.58749c-0.29995,-0.30608 -0.3299,-0.65021 -0.08984,-1.03239z"/><path d="M272.06757,165.96492l-15.67151,15.88906l-4.64507,-0.53899l1.76255,-1.77756c-1.35816,0.49707 -2.87102,0.84859 -4.53855,1.05457c-1.6865,0.20353 -3.39048,0.20631 -5.11192,0.00835c-1.66454,-0.19061 -3.04315,-0.5752 -4.13586,-1.15377c-1.05477,-0.57367 -1.70488,-1.28548 -1.95033,-2.13542c-0.26913,-0.8449 -0.09068,-1.76569 0.53536,-2.76236c0.25889,-0.41216 0.61955,-0.85573 1.08197,-1.33073c1.15621,-1.15506 2.65203,-2.1488 4.48745,-2.98123c1.83557,-0.8 3.79779,-1.36085 5.88667,-1.68255c2.08417,-0.31421 4.12447,-0.36269 6.12091,-0.14543c1.46542,0.1811 2.73242,0.51483 3.80103,1.00116c1.09243,0.51372 1.78461,1.09323 2.07657,1.73854l5.62016,-5.71507l4.68059,0.53142M258.20839,171.96512c-0.72827,-0.70165 -1.87725,-1.14165 -3.44694,-1.32002c-1.22822,-0.13428 -2.48653,-0.10636 -3.77494,0.08376c-1.29797,0.17268 -2.57384,0.52239 -3.82759,1.04914c-1.22538,0.51421 -2.23915,1.18132 -3.04135,2.00132c-0.29269,0.27007 -0.54023,0.56622 -0.74264,0.88845c-0.63074,1.00417 -0.59617,1.86334 0.10373,2.57753c0.69989,0.71419 1.84181,1.16543 3.42576,1.35374c1.18086,0.14436 2.43918,0.11645 3.77494,-0.08376c1.35473,-0.19775 2.64002,-0.56245 3.85583,-1.0941c1.21111,-0.52416 2.2296,-1.19876 3.05547,-2.0238c0.24077,-0.22006 0.48118,-0.52118 0.72124,-0.90337c0.62604,-0.99667 0.59153,-1.83964 -0.10351,-2.52889z"/><path d="M299.47545,169.10266l-15.68542,15.96018l-4.66647,-0.5539l1.79101,-1.77388c-1.35346,0.48957 -2.87815,0.84362 -4.57407,1.06213c-1.64857,0.20843 -3.34306,0.21243 -5.08347,0.01203c-1.70247,-0.19551 -3.08109,-0.5801 -4.13586,-1.15377c-1.07374,-0.57612 -1.73334,-1.28915 -1.97879,-2.1391c-0.26913,-0.8449 -0.08833,-1.76944 0.54242,-2.77361c0.27772,-0.44213 0.64786,-0.88449 1.11042,-1.32705c1.18445,-1.20003 2.68498,-2.20126 4.50157,-3.00371c1.84498,-0.81499 3.81191,-1.38333 5.90079,-1.70504c2.13152,-0.3243 4.17183,-0.37278 6.12091,-0.14543c1.47483,0.16612 2.74184,0.49984 3.80103,1.00116c1.04963,0.48389 1.74182,1.0634 2.07657,1.73854l5.63428,-5.73755l4.64507,0.53899M278.41578,173.88151c-1.32636,0.18522 -2.60692,0.54242 -3.84171,1.07162c-1.22538,0.51421 -2.23915,1.18132 -3.04135,2.00132c-0.2974,0.27756 -0.5473,0.57746 -0.7497,0.89969c-0.63545,1.01166 -0.60323,1.87458 0.09667,2.58877c0.69989,0.71419 1.84417,1.16168 3.43282,1.3425c1.14292,0.13946 2.40124,0.11155 3.77494,-0.08376c1.38783,-0.21779 2.67546,-0.58624 3.86289,-1.10534c1.21111,-0.52416 2.23196,-1.2025 3.06253,-2.03504c0.29254,-0.30249 0.53061,-0.59987 0.71418,-0.89213c0.63545,-1.01166 0.60565,-1.86212 -0.08939,-2.55137c-0.72827,-0.70165 -1.87725,-1.14165 -3.44694,-1.32002c-1.22822,-0.13428 -2.48653,-0.10636 -3.77494,0.08376z"/><path d="M294.43897,186.32841l-4.60956,-0.54655l15.728,-15.97899l4.5811,0.54288z"/><path d="M325.9182,184.01289c-6.54474,-0.84502 -12.18118,-1.55252 -16.90934,-2.12249l-0.35345,0.46476c-0.55072,0.87677 -0.4976,1.64113 0.15936,2.29306c0.63799,0.64948 1.74896,1.06838 3.3329,1.25669c2.50878,0.31582 4.78957,-0.01757 6.84237,-1.00016l4.92984,0.62436c-1.69722,1.0042 -3.77476,1.74864 -6.23264,2.23335c-2.45317,0.47721 -4.97208,0.553 -7.55674,0.22739c-1.85908,-0.24004 -3.35866,-0.64429 -4.49872,-1.21277c-1.13065,-0.58346 -1.85187,-1.29635 -2.16364,-2.13866c-0.29766,-0.86479 -0.13112,-1.79927 0.49963,-2.80343c0.25418,-0.40466 0.6219,-0.85948 1.10315,-1.36445c1.19386,-1.21501 2.71799,-2.2375 4.57239,-3.06748c1.88763,-0.81758 3.89963,-1.37605 6.036,-1.67543c2.17431,-0.29447 4.34748,-0.30959 6.5195,-0.04535c2.73642,0.34521 4.66631,1.06023 5.78968,2.14505c1.09484,1.06494 1.17626,2.33929 0.24426,3.82306c-0.24006,0.38218 -0.56769,0.78952 -0.98291,1.222c-0.26417,0.28995 -0.70804,0.67012 -1.33165,1.14051M323.29376,178.93464c-0.66623,-0.60452 -1.77948,-1.00345 -3.33974,-1.19681c-1.65983,-0.19811 -3.3183,-0.08818 -4.97543,0.32978c-1.70448,0.42805 -3.10687,1.10979 -4.20716,2.04523l12.32096,1.54221l0.45252,-0.57349c0.51777,-0.82432 0.43406,-1.53996 -0.25114,-2.14693z"/><path d="M352.32846,185.01669c3.28469,1.07223 4.42574,2.40643 3.42314,4.0026c-0.56485,0.89925 -1.60936,1.58265 -3.13356,2.05017c-1.51464,0.48497 -3.17019,0.72085 -4.96666,0.70763c-1.73956,-0.00586 -4.10799,-0.20229 -7.10529,-0.58929l-12.40654,-1.60187l8.57153,-13.64618l12.40654,1.60187c2.86451,0.36985 4.98012,0.74023 6.34683,1.11112c1.40936,0.36831 2.42847,0.91711 3.05732,1.64643c0.64783,0.73177 0.69639,1.53604 0.14566,2.41281c-0.90375,1.4388 -3.01675,2.20703 -6.33897,2.30469M349.75,180.69782c-0.4045,-0.36819 -1.63115,-0.68454 -3.67994,-0.94907l-2.81708,-0.36373l-1.89223,3.0125l2.24797,0.29025c2.42819,0.31352 4.02334,0.35339 4.78543,0.11963c0.82371,-0.23391 1.36736,-0.56069 1.63096,-0.98034c0.23535,-0.37469 0.14364,-0.7511 -0.27512,-1.12923M339.85685,184.79179l-2.07581,3.30476l3.52846,0.45558c3.41464,0.44088 5.46558,0.11428 6.15281,-0.97982c0.38598,-0.61449 0.23693,-1.09552 -0.44713,-1.44309c-0.69362,-0.36501 -1.90358,-0.65896 -3.62988,-0.88185z"/><path d="M381.38392,190.96775c-2.21231,3.52208 -6.96075,4.81284 -14.24532,3.8723c-7.30355,-0.943 -9.84916,-3.17553 -7.63685,-6.69761c2.2076,-3.51458 6.96318,-4.80038 14.26672,-3.85738c7.28457,0.94055 9.82306,3.16811 7.61545,6.6827M369.92564,186.72975c-0.70946,0.34588 -1.47371,1.17078 -2.29274,2.4747c-0.75783,1.2065 -1.07878,2.06028 -0.96282,2.56134c0.1111,0.47613 0.71679,0.78523 1.81707,0.92729c1.04336,0.13471 1.89603,0.01796 2.558,-0.35025c0.69977,-0.39574 1.43092,-1.20061 2.19346,-2.4146c0.78608,-1.25146 1.09746,-2.12268 0.93416,-2.61366c-0.16787,-0.45106 -0.75452,-0.74149 -1.75994,-0.87131c-0.96748,-0.12492 -1.79655,-0.02942 -2.48718,0.28648z"/><path d="M406.90047,194.08003c-1.11557,1.77603 -2.75252,3.01079 -4.91087,3.7043c-2.16776,0.7085 -4.72183,0.87292 -7.66222,0.49327c-1.85908,-0.24004 -3.28534,-0.67938 -4.27878,-1.31805l-2.4712,3.93424l-7.76831,-1.00301l8.4868,-13.51129l7.34149,0.9479l-0.74136,1.18027c1.99246,-0.69062 4.16485,-0.88407 6.51716,-0.58036c2.46614,0.31841 4.27029,1.00505 5.41248,2.05989c1.10425,1.04995 1.12919,2.41423 0.07481,4.09283M395.51301,189.77826c-0.74812,0.17886 -1.42107,0.74414 -2.01886,1.69586l-1.17911,1.87719c-0.58367,0.92923 -0.76105,1.55445 -0.53213,1.87566c0.18613,0.29138 0.8483,0.51055 1.98652,0.65751c0.96748,0.12492 1.81559,0.04808 2.54431,-0.2305c0.75225,-0.31605 1.5732,-1.18224 2.46283,-2.59857c0.75313,-1.19901 1.03385,-2.03773 0.84215,-2.51616c-0.17258,-0.44356 -0.7521,-0.72903 -1.73855,-0.85639c-0.81572,-0.10532 -1.60477,-0.07352 -2.36715,0.09539z"/><path d="M421.07813,192.61731c-1.32792,-0.17145 -2.14956,-0.00614 -2.46494,0.49595c-0.18357,0.29226 -0.07582,0.54517 0.32326,0.75873c0.47982,0.24829 1.51462,0.59253 3.1044,1.03275c1.78918,0.51457 3.12772,0.94664 4.01562,1.29622c0.84995,0.34469 1.46562,0.76849 1.84701,1.27142c0.41463,0.51532 0.44778,1.05025 0.09946,1.60479c-0.6025,0.9592 -2.01437,1.63972 -4.23561,2.04156c-2.1833,0.40673 -4.88742,0.40191 -8.11237,-0.01448l-0.02846,-0.00367c-6.07048,-0.78379 -8.79753,-2.2377 -8.18118,-4.36174l0.03509,-0.10484l6.62113,0.42956l-0.01369,0.11975c-0.12839,0.98801 0.86027,1.61796 2.96597,1.88983c1.76424,0.22779 2.8158,0.07191 3.15471,-0.46765c0.18357,-0.29226 0.06633,-0.54639 -0.35172,-0.7624c-0.44659,-0.2359 -1.40779,-0.55039 -2.88361,-0.94348c-2.82357,-0.76154 -4.66345,-1.48924 -5.51968,-2.1831c-0.82298,-0.68147 -1.00854,-1.3819 -0.55667,-2.10131c0.62604,-0.99667 2.04504,-1.67222 4.25701,-2.02664c2.17403,-0.35932 4.64587,-0.36018 7.41553,-0.00258c4.79948,0.61968 7.29354,1.90579 7.48222,3.85831l0.02182,0.11219l-6.18595,-0.09386l-0.02182,-0.11219c-0.11309,-0.93007 -1.04227,-1.50778 -2.78753,-1.73312z"/></g></g></svg>