
<svg viewBox="0 0 272 172" height="172px" width="272px" y="0px" x="0px" preserveAspectRatio="none" xmlns:xlink="http://www.w3.org/1999/xlink" version="1.1" xmlns="http://www.w3.org/2000/svg">
<defs></defs>

<g id="Layer_2">
<g>
<g>
<g>
<path d="M 64.4 132.5
Q 64.35 132.35 64.35 132.2 64.3 131.9 64.3 131.55 63.7 130.65 63.3 129.7 63.3 129.85 63.3 129.95 63.3 131.65 63.9 133.15 63.9478515625 135.448046875 64.45 137.7 64.4765625 137.8001953125 64.5 137.9 64.95 139.75 64.9 141.75 65 141.85 65.05 142 65.1 142.1 65.15 142.25 65.15 142.35 65.15 142.5 65.05 143.5 65.35 144.45 65.45 144.7 65.55 144.95 65.55 145.05 65.55 145.2 65.55 145.9 65.55 146.65 65.55 146.8 65.55 146.9 65.65 147.05 65.7 147.15 65.8 147.65 65.8 148.15 65.8 148.25 65.8 148.4 65.9 148.5 65.95 148.6 66.05 148.75 66.1 148.85 66.15 149 66.15 149.1 66.2 149.75 66.2 150.35 66.2 150.45 66.2 150.6 66.2 150.7 66.25 150.8 66.5 151.1 66.8 151.35 66.8 151.45 66.85 151.55 67.1 152.2 67.4 152.8 67.45 152.9 67.5 153.05 68.0951171875 153.6451171875 68.6 154.25 74.5513671875 154.293359375 80.55 154.25 85.0421875 154.2171875 89.55 154.15 85.4146484375 152.2208984375 81.35 150 80.9462890625 149.7783203125 80.55 149.55 72.776953125 145.0517578125 67.95 137.7 67.7892578125 137.4025390625 67.6 137.1 67.3 136.1 66.75 135.1 65.85 133.55 64.4 132.5
M 207.35 132.7
Q 207.35 132.85 207.35 133 207.2 133.45 207.25 133.95 207.25 134.1 207.25 134.25 206.9 134.8 206.55 135.4 205.9501953125 136.507421875 205.65 137.7 205.6232421875 137.799609375 205.6 137.9 205.6 138.1 205.55 138.25 203.95 141.1 201.7 143.5 200.3 145.1 199.1 146.85 198.75 147 198.45 147.15 197.65 147.55 197.25 148.35 194.5818359375 150.3908203125 191.8 152.2 199.0703125 151.9326171875 206.3 151.6 206.6392578125 151.1009765625 207 150.65 207 150.55 207.05 150.45 207.05 150.3 207.1 150.2 207.2 150.05 207.3 149.95 207.85 149.25 208.35 148.45 208.35 148.35 208.35 148.2 208.35 147.85 208.35 147.5 208.4 147.35 208.5 147.25 208.75 147 209 146.75 209 146.6 209 146.5 209 146.25 209 146 209.55 145.2 209.7 144.3 209.95 142.95 209.95 141.6 210.05 141.45 210.15 141.35 210.2 141.2 210.3 141.1 210.35 140.95 210.35 140.85 210.4 140.25 210.4 139.6 210.4 139.5 210.4 139.35 210.4 139.25 210.5 139.15 210.55 139 210.65 138.85 210.65 138.275 210.65 137.7 210.6978515625 132.875 211.1 128.05 211.25 125.4 210.85 122.8 210.3 124.7 209.85 126.6 209.05 129.85 207.35 132.7
M 74.55 109.65
Q 73.3 108.5 72.5 107 69.9 103.95 66.95 101.25 66.7 101.8 66.55 102.4 66.6 102.5 66.6 102.55 66.6 103 66.8 103.35 67.05 106.5 67.4 109.65 67.55 111.35 67.7 113 69.35 113 71 113.35 71.1 113.35 71.25 113.4 73.8 113.1 76.4 112.75 76.3 111.2 74.55 109.65
M 80.55 85.5
Q 79.7375 83.59140625 79 81.6 78.7 80.7 78.35 79.85 78.2 83.8 78.25 87.75 78.25 90.7 78.4 93.6 79.479296875 93.309375 80.55 93 82.05859375 92.5470703125 83.55 92.05 81.9404296875 88.8623046875 80.55 85.5
M 204.55 110.4
Q 204.55 107.85 204.55 105.25 204.55 104.05 204.55 102.8 203.45 103.25 202.15 103.45 201.4 103.55 200.6 103.7 200.45 103.85 200.3 104 200.15 104.15 200 104.25 199.9 104.3 199.8 104.3 198.65 104.65 197.55 105.15 197.45 105.3 197.3 105.4 196.85 105.8 196.4 106.3 196.3 106.35 196.2 106.35 195.8 106.5 195.4 106.6 195.25 106.75 195.05 106.85 194.35 107.15 194.15 107.8 194.15 107.9 194.1 107.95 193.4 108.3 192.65 108.55 198.45 109.5 204.55 110.4
M 196.7 85.95
Q 196.7 85.8 196.65 85.7 195.6 87.1 194.65 88.6 193.65 90.2 192.4 91.65 192.1 91.8 191.85 92 191.75 92.1 191.7 92.25 194.05 93.3 197 94.55 197 94.35 197 94.2 197.15 92.45 196.7 90.85 196.7 89.95 196.7 89.1 196.7 87.5 196.7 85.95
M 113.75 98.4
Q 113.65 98.3 113.55 98.25 113.35 98.2 113.15 98.1 113.05 98 113 97.9 112.9 97.8 112.9 97.7 108.7 95 103.65 95.45 98.45 95.9 94.5 99.35 93.05 100.6 92.75 102.4 94.6 105.5 98.05 107 101.05 108.25 103.25 107.7 104.75 107.3 106.05 107.95 112.05 109.15 115.55 105.05 115.75 104.85 115.9 104.65 115.95 104.55 115.95 104.45 115.95 104.2 116 103.9 116.05 103.55 116.2 103.25 116.25 103.2 116.25 103.1 116.25 103 116.25 102.9 116.25 102.8 116.2 102.7 116.1 102.5 115.95 102.3 115.95 102.2 115.95 102.1 115.95 102 115.95 101.9 115.95 101.7 115.95 101.55 115.95 101.45 115.95 101.35 115.95 101.25 115.9 101.15 115.85 101.05 115.8 100.95 115.75 100.85 115.7 100.75 115.6 100.65 115.45 100.55 115.15 100.3 114.95 99.95 114.8 99.75 114.7 99.55 114.65 99.45 114.5 99.4 114.2 99.15 114 98.8 113.85 98.6 113.75 98.4
M 170.55 137.7
Q 173.516015625 136.29453125 176.35 134.65 182.95 130.85 188.4 125.5 174.35 131.9 158.7 133.75 154.289453125 134.28046875 149.9 134.5 130.701171875 135.6416015625 111.9 131.45 106.35 130.2 101.3 127.65 98.75 126.35 96.3 125.4 96.05 125.1 95.9 124.8 95.8 124.7 95.7 124.6 95.15 124.4 94.45 124.15 94.4 124.05 94.35 123.95 94.25 123.85 94.15 123.75 93.15 123.35 92.05 123.15 91.05 122.3 89.9 121.65 89.65 121.55 89.6 121.7 93.9416015625 132.6271484375 104.8 137.7 105.074609375 137.826953125 105.35 137.95 113.5 141.55 122.2 143.45 129 144.95 135.95 145.2 143.0384765625 145.436328125 149.9 144.3 154.6546875 143.532421875 159.3 142.1 165.1185546875 140.312109375 170.55 137.7
M 164.85 94.35
Q 164.46328125 94.339453125 164.05 94.3 163.737890625 94.347265625 163.4 94.4 159.488671875 95.120703125 156.15 97.3 154.8 98.15 153.7 99.35 153.55 99.85 153.55 100.35 153.6 100.85 153.6 101.35 153.8 101.6 154 101.9 154.2 102.1 154.35 102.3 154.75 103.6 155.85 104.55 156.5 105.1 157.25 105.65 157.4 105.7 157.5 105.8 165.2 107.1 172.7 104.75 173.75 104 174.5 102.9 174.65 102.65 174.9 102.4 174.9 102.2 175 102 175.05 101.8 175.15 101.6 175.1 101.2 175.05 100.8 175 100.45 174.7 100.2 174.7 100.1 174.7 100 174.7 99.9 174.65 99.8 174.65 99.7 174.6 99.65 173.9 98.65 172.85 97.9 172.55 97.7 172.45 97.35 172.25 97.25 172.05 97.2 171.85 97.15 171.6 97.05 169.3 95 166.15 94.55 165.51328125 94.458984375 164.85 94.35 Z" stroke="none" fill="#EE9D33"></path>

<path d="M 178.65 66.25
Q 178.6 66.4 178.6 66.55 179.3 69.35 179.15 72.4 179 75.3 179 78.2 186.05 78.5 193.15 78.75 194.15 79.3 195.3 79.5
L 195.3 79.55
Q 195.35 79.6 195.45 79.7 195.15 79.65 194.85 79.65 195.05 81.25 195.7 82.8 195.55 82.9 195.4 83.05 195.35 83.5 195.25 83.95 195.25 84.1 195.2 84.25 193.95 86 192.75 87.7 190.9 90.3 189.25 92.55 196.95 95.75 204.6 100.75 203.85 101.1 203.3 101.4 201.2 102.55 198.75 103 197.8 103.7 196.65 104.05 195.3 104.5 194.35 105.55 193.95 105.65 193.55 105.75 192.85 106.3 192.25 106.95 192.15 107.05 192.1 107.2 191.6 107.3 191.1 107.45 191.05 107.45 191 107.5 190.9 107.6 190.8 107.7 190.15 108.25 189.7 109 189.65 109.1 189.65 109.25 199.9 110.6 210.15 112.2 210.15 112.35 210.15 112.55 210.15 114.2 210.15 115.9 210.15 116.85 210.15 117.75 208.95 120.75 208.25 123.85 207.25 128.05 205.45 131.9 205.3 133.7 204.35 135.25 203.7 136.4 203.5 137.7 202.55 138.9 201.85 140.2 201.6 140.65 201.35 141.1 200 142.15 199 143.55 198 145.05 196.8 146.3 195.85 146.7 195.3 147.55 195.2 147.7 195.1 147.85 192.1564453125 150.237109375 189.05 152.3 190.425390625 152.2515625 191.8 152.2 194.5818359375 150.3908203125 197.25 148.35 197.65 147.55 198.45 147.15 198.75 147 199.1 146.85 200.3 145.1 201.7 143.5 203.95 141.1 205.55 138.25 205.6 138.1 205.6 137.9 205.6232421875 137.799609375 205.65 137.7 205.9501953125 136.507421875 206.55 135.4 206.9 134.8 207.25 134.25 207.25 134.1 207.25 133.95 207.2 133.45 207.35 133 207.35 132.85 207.35 132.7 209.05 129.85 209.85 126.6 210.3 124.7 210.85 122.8 211.25 125.4 211.1 128.05 210.6978515625 132.875 210.65 137.7 210.65 138.275 210.65 138.85 210.55 139 210.5 139.15 210.4 139.25 210.4 139.35 210.4 139.5 210.4 139.6 210.4 140.25 210.35 140.85 210.35 140.95 210.3 141.1 210.2 141.2 210.15 141.35 210.05 141.45 209.95 141.6 209.95 142.95 209.7 144.3 209.55 145.2 209 146 209 146.25 209 146.5 209 146.6 209 146.75 208.75 147 208.5 147.25 208.4 147.35 208.35 147.5 208.35 147.85 208.35 148.2 208.35 148.35 208.35 148.45 207.85 149.25 207.3 149.95 207.2 150.05 207.1 150.2 207.05 150.3 207.05 150.45 207 150.55 207 150.65 206.6392578125 151.1009765625 206.3 151.6 207.590625 151.534765625 208.85 151.45 208.8720703125 151.4431640625 208.9 151.4 208.95 151.3 208.95 151.15 209 151.05 209 150.9 210 149.95 210.25 148.7 210.3 148.45 210.3 148.2 210.6 147.85 210.85 147.45 210.9 147.35 210.95 147.25 210.95 147 210.95 146.75 210.95 146.6 210.95 146.5 211.4 146.05 211.6 145.5 211.65 145.4 211.7 145.25 211.7 145.15 211.7 145 211.7 144.65 211.7 144.3 211.7 144.15 211.7 144.05 211.8 143.9 211.85 143.8 211.9 143.65 211.95 143.55 211.95 143.4 211.95 143.3 211.95 142.95 211.95 142.55 211.95 142.45 211.95 142.3 212.1 142.05 212.25 141.8 212.3 141.7 212.35 141.6 212.35 141.45 212.35 141.35 212.35 140.7 212.35 140.1 212.35 140 212.35 139.85 212.45 139.75 212.5 139.6 212.55 139.5 212.6 139.35 212.6 138.525 212.6 137.7 212.6 136.925 212.6 136.15 212.6 134.8 212.6 133.45 213.3 130.25 213.1 126.85 212.75 120.55 212.35 114.3 212.35 114.2 212.35 114.15 212.25 114.15 212.2 114.15 212.2 112.85 212.2 111.5 209.35 111.1 206.55 110.7 206.55 108.8 206.55 106.9 206.55 104.25 206.55 101.65 206.9 101.3 207.25 100.95 204.7 97.85 200.75 96.15 199.85 95.75 198.95 95.4 198.95 93.95 199 92.5 199.05 91.35 198.65 90.35 198.65 88.65 198.75 87 198.8 85.85 198.4 84.8 198.5 83.75 198.2 82.8 198.4 82.45 198.55 82.1 198.6 81.95 198.65 81.8 198.65 81.5 198.65 81.2 198.65 80.6 198.65 79.95 198.6 79.8 198.55 79.65 198.2 79.55 197.85 79.45 197.85 79.4 197.8 79.4 197.7 79.25 197.55 79.1 197.45 79 197.35 78.85 196.4 78.55 195.5 78.2 195.25 78.1 195 78 188 77.75 181.05 77.5 181.05 74.75 181.05 72 181.05 69.35 181.05 66.75 181 66.6 180.9 66.5 180.6 66.05 180.65 65.5 180.65 65.35 180.65 65.2 180.65 65.05 180.55 65 180.25 64.75 180 64.4 179.9 64.25 179.7 64.1 170.1 65.15 161 67.9 160.95 67.6 160.8 67.4 160.75 67.2 160.55 67.05 160.55 66.9 160.55 66.75 160.35 66.3 160.2 65.8 160.15 65.7 160.15 65.55 159.95 65.2 159.8 64.9 159.75 64.75 159.75 64.6 159.75 64.45 159.75 64.3 159.95 62.55 159.6 60.85 159.4 59.95 158.95 59.05 158.95 58.75 158.95 58.45 158.95 58.3 158.95 58.15 158.9 58 158.8 57.9 158.45 57.45 158.5 56.9 158.55 56.75 158.55 56.6 158.5 56.45 158.4 56.35 158.25 56.15 158.1 56 158.05 55.7 157.95 55.4 157.85 55.25 157.7 55.1 156.4 55.05 155.05 55.05 154.9 55.1 154.75 55.2 154.2 55.6 153.7 56.1 153.5 56.25 153.3 56.4 151.591015625 57.1080078125 149.9 57.85 144.6642578125 60.1912109375 139.6 62.95 139.05 63 138.55 62.95 138.5 62.95 138.45 62.85 138.15 61.85 137.25 61.3 137.05 61.15 136.9 61 136.85 60.85 136.8 60.7 136.75 60.55 136.7 60.4 136.3 60.1 135.9 59.75 135.75 59.65 135.6 59.5 134.9 58.3 134.35 57.05 134.1 56.35 133.55 55.8 133.55 55.65 133.5 55.5 132.95 54.2 132 53.05 131.55 52.5 131.4 51.8 131.1 51.7 130.8 51.55 130.75 51.55 130.65 51.5 130.55 51.4 130.5 51.3 130.35 51.15 130.25 51 129.15 50.95 128 50.9 125.5 52.55 123.3 54.95 118.5 60.2 114.6 65.85 114.1 65.45 113.5 65.1 107.35 61.4 101.7 56.8 101.15 56.65 100.6 56.45 100.4 56.4 100.25 56.3 99.2 56.25 98.1 56.3 98 56.3 97.9 56.4 97.95 56.95 97.65 57.35 97.55 57.5 97.5 57.65 97.5 57.95 97.5 58.25 97.25 62.4 97.2 66.55 97.1 71.75 97.1 77 91.85 76.65 86.8 75 83.539453125 73.9580078125 80.55 73.95 79.0927734375 73.954296875 77.7 74.2 77.15 74.15 76.65 74.15 76.65 74.3 76.65 74.45 76.4 74.5 76.2 74.55 76.4 74.95 76.55 75.4 76.35 78.15 76.35 80.95 76.35 87.5 76.35 94.05 74.4 94.45 72.45 94.75 67.4 95.5 64.3 97.8 64.75 98.75 65.35 99.55 65.05 100.4 64.8 101.3 64.35 102.7 64.85 104 64.95 106.4 65.25 108.75 65.6 110.9 65.65 113.1 65.25 113.15 64.85 113.2 62.6 113.85 60.25 114.6 60.15 114.65 60 114.7 59.95 114.75 59.95 114.85 59.25 114.9 58.6 115 59.2 115 59.85 115.05 59.8 115.05 59.75 115.1 59.65 115.2 59.6 115.3 59.6 115.4 59.6 115.5 59.6 115.6 59.6 115.7 59.6 115.8 59.6 115.9 59.6 115.95 59.6 116 59.55 116 59.45 116.05 59.4 116.05 59.4 116.2 59.4 116.35 59.4 116.5 59.4 117 59.4 117.45 59.4 117.6 59.4 117.75 59.9 118.1 59.85 118.65 59.8 118.8 59.8 119 60.05 119.3 60.3 119.6 60.45 119.75 60.55 119.9 60.6 120.05 60.6 120.2 60.6 120.75 60.9 121.15 60.85 122.7 60.75 124.2 60.65 126.4 61.3 128.4 61.5 130 61.45 131.6 61.4 132.75 61.95 133.8 61.9994140625 135.7744140625 62.45 137.7 62.4935546875 137.725 62.5 137.75 63.15 140 62.95 142.4 63 142.5 63.1 142.65 63.15 142.75 63.15 142.9 63.15 143.15 63.15 143.4 63 144.45 63.5 145.35 63.55 145.45 63.6 145.6 63.6 145.7 63.6 145.85 63.6 146.7 63.7 147.55 63.7 147.7 63.85 147.8 63.85 147.95 63.85 148.05 63.85 148.4 63.85 148.8 63.85 148.9 63.85 149.05 64 149.3 64.15 149.55 64.2 149.65 64.25 149.75 64.25 149.9 64.25 150 64.25 150.5 64.25 151 64.25 151.1 64.25 151.25 64.4 151.5 64.6 151.7 64.7 151.85 64.8 152 64.85 152.1 64.9 152.25 65.15 152.9 65.45 153.45 65.5 153.6 65.55 153.7 65.838671875 153.975 66.1 154.25 67.36328125 154.2716796875 68.6 154.25 68.0951171875 153.6451171875 67.5 153.05 67.45 152.9 67.4 152.8 67.1 152.2 66.85 151.55 66.8 151.45 66.8 151.35 66.5 151.1 66.25 150.8 66.2 150.7 66.2 150.6 66.2 150.45 66.2 150.35 66.2 149.75 66.15 149.1 66.15 149 66.1 148.85 66.05 148.75 65.95 148.6 65.9 148.5 65.8 148.4 65.8 148.25 65.8 148.15 65.8 147.65 65.7 147.15 65.65 147.05 65.55 146.9 65.55 146.8 65.55 146.65 65.55 145.9 65.55 145.2 65.55 145.05 65.55 144.95 65.45 144.7 65.35 144.45 65.05 143.5 65.15 142.5 65.15 142.35 65.15 142.25 65.1 142.1 65.05 142 65 141.85 64.9 141.75 64.95 139.75 64.5 137.9 64.4765625 137.8001953125 64.45 137.7 63.9478515625 135.448046875 63.9 133.15 63.3 131.65 63.3 129.95 63.3 129.85 63.3 129.7 63.7 130.65 64.3 131.55 64.3 131.9 64.35 132.2 64.35 132.35 64.4 132.5 65.85 133.55 66.75 135.1 67.3 136.1 67.6 137.1 67.7892578125 137.4025390625 67.95 137.7 72.776953125 145.0517578125 80.55 149.55 80.9462890625 149.7783203125 81.35 150 85.4146484375 152.2208984375 89.55 154.15 90.89765625 154.1234375 92.2 154.1 91.53515625 153.805859375 90.85 153.5 85.23515625 151.0021484375 80.55 147.55 74.8609375 143.3326171875 70.55 137.7 70.0888671875 137.1080078125 69.65 136.5 69.65 136.35 69.6 136.2 69.6 136.05 69.55 135.85 68.45 134.85 67.8 133.45 67.35 132.45 66.45 131.9 66.4 131.55 66.4 131.25 66.35 131.1 66.35 130.95 65.25 129.05 64.65 126.95 64.05 125 63.1 123.3 63.1 122.95 63.1 122.65 63.1 121.9 63.1 121.15 63.1 120.95 63.1 120.8 63.05 120.65 63 120.5 62.95 120.3 62.85 120.15 62.85 120 62.85 119.85 62.75 119.75 62.7 119.6 62.65 119.5 62.6 119.4 62.6 119.15 62.6 118.9 62.6 118.05 62.6 117.15 62.6 117.05 62.6 116.9
L 62.6 116.8
Q 62.2 116.75 61.85 116.75 61.85 116.65 61.85 116.55 61.85 116.35 61.8 116.15 61.8 115.95 61.85 115.75 61.85 115.65 61.9 115.55 62.5 115.25 63.1 115.05 67.55 115 72.4 114.65 76.55 114.3 79.05 112.65 78 110.4 76.45 108.35 72.5 103.35 67.75 99.25 67.9 98.75 67.85 98.25
L 67.85 98.15
Q 67.35 98.05 66.85 98.05 66.8 97.95 66.7 97.85 66.55 97.75 66.45 97.6 73.9017578125 96.3400390625 80.55 94.2 83.1357421875 93.4021484375 85.6 92.45 85.6 92.3 85.6 92.15 85.6 91.7 85.6 91.25 85.55 91.05 85.5 90.9 83.65 88.05 82.4 84.85 81.446484375 82.297265625 80.55 79.7 79.9888671875 78.1166015625 79.45 76.5 79.2 76.2 78.95 75.85 78.85 75.7 78.75 75.55 78.7 75.25 78.6 74.95
L 78.6 74.9
Q 78.6 74.8 78.6 74.7 79.5765625 74.95703125 80.55 75.2 89.99375 77.4734375 99.15 77.7 99.15 77.4 99.15 77.1 99.15 72.95 99.1 68.8 99.05 63.1 99.85 57.75 100.6 58.25 101.35 58.75 103.5 60.25 105.7 61.65 106.2 62.3 106.85 62.8 110.05 64.95 113.25 66.95 115.05 66.8 116.85 66.65 118.1 64.4 119.65 62.35 123.65 57.05 128.5 52.5 128.95 52.45 129.35 52.5 129.4 52.5 129.45 52.6 129.5 52.8 129.55 52.9 130.1 54.1 130.95 55.1 131.2 55.4 131.4 55.7 131.45 55.85 131.45 56 131.5 56.15 131.5 56.3 132.45 57.4 132.9 58.75 133.15 59.4 133.45 60 134.15 60.55 134.7 61.3 134.75 61.4 134.75 61.55 135.75 62.3 136.35 63.4 136.4 63.55 136.4 63.7 136.75 63.8 137.1 63.9 137.2 63.95 137.25 64 137.3 64.1 137.35 64.2 137.5 64.35 137.65 64.5 138.85 64.55 140.1 64.55
L 140.1 64.5
Q 144.9904296875 61.6703125 149.9 59.35 152.9712890625 57.9314453125 156.05 56.7 156.55 57.05 156.5 57.65 156.5 57.8 156.5 57.95 156.6 58.1 156.7 58.25 156.8 58.4 156.9 58.55 156.9 59 156.9 59.5 156.9 59.65 156.9 59.8 157.05 60.1 157.1 60.4 157.25 61.35 157.55 62.25 157.6 62.4 157.7 62.55 157.7 63 157.7 63.5 157.7 64.25 157.7 65 157.7 65.15 157.7 65.3 157.9 65.8 158.05 66.25 158.1 66.4 158.1 66.55 158.2 66.7 158.3 66.85 158.6 67.8 159.05 68.7 159.15 68.85 159.25 69 168.85 67.2 178.2 65.3 178.8 65.6 178.65 66.25
M 196.65 85.7
Q 196.7 85.8 196.7 85.95 196.7 87.5 196.7 89.1 196.7 89.95 196.7 90.85 197.15 92.45 197 94.2 197 94.35 197 94.55 194.05 93.3 191.7 92.25 191.75 92.1 191.85 92 192.1 91.8 192.4 91.65 193.65 90.2 194.65 88.6 195.6 87.1 196.65 85.7
M 204.55 105.25
Q 204.55 107.85 204.55 110.4 198.45 109.5 192.65 108.55 193.4 108.3 194.1 107.95 194.15 107.9 194.15 107.8 194.35 107.15 195.05 106.85 195.25 106.75 195.4 106.6 195.8 106.5 196.2 106.35 196.3 106.35 196.4 106.3 196.85 105.8 197.3 105.4 197.45 105.3 197.55 105.15 198.65 104.65 199.8 104.3 199.9 104.3 200 104.25 200.15 104.15 200.3 104 200.45 103.85 200.6 103.7 201.4 103.55 202.15 103.45 203.45 103.25 204.55 102.8 204.55 104.05 204.55 105.25
M 79 81.6
Q 79.7375 83.59140625 80.55 85.5 81.9404296875 88.8623046875 83.55 92.05 82.05859375 92.5470703125 80.55 93 79.479296875 93.309375 78.4 93.6 78.25 90.7 78.25 87.75 78.2 83.8 78.35 79.85 78.7 80.7 79 81.6
M 72.5 107
Q 73.3 108.5 74.55 109.65 76.3 111.2 76.4 112.75 73.8 113.1 71.25 113.4 71.1 113.35 71 113.35 69.35 113 67.7 113 67.55 111.35 67.4 109.65 67.05 106.5 66.8 103.35 66.6 103 66.6 102.55 66.6 102.5 66.55 102.4 66.7 101.8 66.95 101.25 69.9 103.95 72.5 107
M 115.65 97.65
Q 115.5 97.6 115.3 97.55 115.2 97.5 115.15 97.45 115.05 97.4 115 97.35 114.9 97.25 114.85 97.15 114.75 97.05 114.65 96.95 113.45 96.2 112.15 95.7 108.05 94.25 103.65 94.45 97.55 94.7 92.75 98.55 91.4 99.65 90.8 101.35 90.8 101.45 90.8 101.55 90.8 101.8 90.8 102.1 90.8 102.2 90.8 102.3 90.8 102.4 90.8 102.5 90.8 102.7 90.8 102.9 90.8 103 90.8 103.1 90.85 103.2 90.85 103.3 90.95 103.4 91 103.5 91.1 103.6 91.2 103.7 91.35 103.8 91.45 103.9 94.1 107.65 98.75 108.6 107.5 110.3 115.85 107.6 116.2 107.25 116.6 106.9 117 106.55 117.25 106.15 117.5 105.8 117.75 105.5 117.8 105.4 117.85 105.3 117.9 105.25 117.95 105.15 117.95 105.05 117.95 104.95 117.95 104.85 117.95 104.75 117.95 104.65 117.95 104.55 117.95 104.45 118 104.35 118.05 104.25 118.1 104.15 118.15 104.05 118.2 103.95 118.2 103.85 118.2 103.75 118.2 103.45 118.2 103.15 118.2 103.05 118.2 102.95 118.2 102.85 118.2 102.75 118.2 102.55 118.2 102.4 118.2 102.3 118.2 102.2 118.2 102.1 118.2 102 118.15 101.9 118.1 101.8 118.05 101.7 118 101.55 117.95 101.5 117.95 101.4 117.95 101.3 117.95 101.2 117.95 101.1 117.95 101 117.9 100.8 117.85 100.6 117.85 100.5 117.8 100.4 117.75 100.3 117.75 100.2 117.65 100.1 117.6 100 117.5 99.9 117.35 99.8 117.25 99.7 117.15 99.65 117.05 99.55 116.95 99.45 116.9 99.35 116.9 99.25 116.85 99.15 116.8 99.05 116.75 98.95 116.7 98.85 116.55 98.75 116.45 98.65 116.35 98.55 116.25 98.45 116.05 98.25 115.9 98.05 115.85 97.95 115.75 97.85 115.7 97.75 115.65 97.65
M 113.55 98.25
Q 113.65 98.3 113.75 98.4 113.85 98.6 114 98.8 114.2 99.15 114.5 99.4 114.65 99.45 114.7 99.55 114.8 99.75 114.95 99.95 115.15 100.3 115.45 100.55 115.6 100.65 115.7 100.75 115.75 100.85 115.8 100.95 115.85 101.05 115.9 101.15 115.95 101.25 115.95 101.35 115.95 101.45 115.95 101.55 115.95 101.7 115.95 101.9 115.95 102 115.95 102.1 115.95 102.2 115.95 102.3 116.1 102.5 116.2 102.7 116.25 102.8 116.25 102.9 116.25 103 116.25 103.1 116.25 103.2 116.2 103.25 116.05 103.55 116 103.9 115.95 104.2 115.95 104.45 115.95 104.55 115.9 104.65 115.75 104.85 115.55 105.05 112.05 109.15 106.05 107.95 104.75 107.3 103.25 107.7 101.05 108.25 98.05 107 94.6 105.5 92.75 102.4 93.05 100.6 94.5 99.35 98.45 95.9 103.65 95.45 108.7 95 112.9 97.7 112.9 97.8 113 97.9 113.05 98 113.15 98.1 113.35 98.2 113.55 98.25
M 192 121.25
Q 190.65 122.3 189.15 123.2 188.25 123.7 187.25 124.05 187.2 124.15 187.15 124.25 187.05 124.35 186.95 124.45 177.45 129.25 166.9 131.35 164 131.9 161.15 132.35 155.5212890625 133.2416015625 149.9 133.65 134.398046875 134.8083984375 118.95 132.35 108.25 130.65 99.2 124.85 98.75 124.8 98.3 124.7 98.2 124.65 98.15 124.6 98.1 124.5 98 124.4 97.9 124.2 97.75 124 97.65 123.9 97.55 123.8 97.25 123.75 96.9 123.65 96.75 123.6 96.55 123.55 96.45 123.45 96.35 123.35 95.45 122.6 94.2 122.5 94.05 122.5 93.9 122.45 92.5 121.45 91 120.75 90.25 120.4 89.7 119.8 88.5 119.8 87.25 119.75 87.2 119.8 87.15 119.9 87.15 119.95 87.15 120.05 87.15 120.15 87.15 120.25 87.15 120.45 87.15 120.65 87.15 120.75 87.15 120.85 87.25 120.95 87.3 121.05 87.35 121.15 87.4 121.25 87.4 121.35 87.4 121.45 87.45 121.65 87.55 121.85 87.6 121.95 87.65 122.05 87.65 122.15 87.65 122.25 87.65 122.35 87.65 122.45 87.65 122.65 87.7 122.8 87.7 122.9 87.7 123 89.15 125.2 90.55 127.4 94.581640625 133.960546875 101.15 137.7 103.5267578125 139.062109375 106.25 140.05 126.45 147.3 147.8 145.6 148.854296875 145.5162109375 149.9 145.4 153.218359375 145.0103515625 156.45 144.25 165.765625 142.079296875 174.25 137.7 175.161328125 137.2373046875 176.05 136.75 184.45 132.2 191.2 125.45 191.25 125.35 191.3 125.25 191.35 125.15 191.4 125.05 191.45 124.95 191.45 124.85 191.9 124.4 192.25 123.95 192.6 123.55 193.1 123.25 193.2 123.2 193.3 123.1 193.35 123 193.35 122.9 193.4 122.8 193.45 122.7 193.45 122.6 193.5 122.5 193.8 122.2 194.1 121.95 194.4 121.7 194.45 121.3 194.5 121.2 194.5 121.1 194.5 121 194.45 121 193.5 120.8 192.5 120.7
L 192.5 120.75
Q 192.4 120.8 192.3 120.9 192.2 120.95 192.15 121.05 192.1 121.15 192 121.25
M 176.35 134.65
Q 173.516015625 136.29453125 170.55 137.7 165.1185546875 140.312109375 159.3 142.1 154.6546875 143.532421875 149.9 144.3 143.0384765625 145.436328125 135.95 145.2 129 144.95 122.2 143.45 113.5 141.55 105.35 137.95 105.074609375 137.826953125 104.8 137.7 93.9416015625 132.6271484375 89.6 121.7 89.65 121.55 89.9 121.65 91.05 122.3 92.05 123.15 93.15 123.35 94.15 123.75 94.25 123.85 94.35 123.95 94.4 124.05 94.45 124.15 95.15 124.4 95.7 124.6 95.8 124.7 95.9 124.8 96.05 125.1 96.3 125.4 98.75 126.35 101.3 127.65 106.35 130.2 111.9 131.45 130.701171875 135.6416015625 149.9 134.5 154.289453125 134.28046875 158.7 133.75 174.35 131.9 188.4 125.5 182.95 130.85 176.35 134.65
M 170.85 94.6
Q 166.8 93.05 162.3 93.6 158 94.2 154.3 96.55 153 97.35 151.95 98.45 151.9 98.55 151.85 98.65 151.8 98.75 151.75 98.85 151.7 98.95 151.6 99.05 151.6 99.45 151.6 99.8 151.6 100.3 151.6 100.8 151.6 101.3 151.6 101.8 151.6 101.9 151.6 102 151.8 102.3 152.05 102.55 152.1 102.65 152.2 102.75 152.3 102.85 152.4 102.95 153.6 105.85 156.7 106.55 165.6 108.5 174.6 105.45 175.55 104.75 176.25 103.85 176.85 103.1 177.1 102.3 177.15 102.2 177.2 102.1 177.2 102 177.2 101.9 177.2 101.65 177.2 101.35 177.2 101.15 177.2 100.95 177.2 100.85 177.2 100.75 177.1 100.65 177.05 100.55 177 100.45 176.9 100.35 176.9 100.15 176.9 99.95 176.9 99.85 176.85 99.8 176.8 99.65 176.65 99.55 176.65 99.35 176.65 99.15 176.6 99.05 176.6 98.95 176.55 98.85 176.5 98.75 176.1 98.45 175.75 98.05 175.1 97.4 174.45 96.8 174.35 96.7 174.3 96.6 174.1 96.55 173.9 96.5 173.75 96.45 173.6 96.4 173.5 96.4 173.45 96.35 172.4 95.2 170.85 94.6
M 164.05 94.3
Q 164.46328125 94.339453125 164.85 94.35 165.51328125 94.458984375 166.15 94.55 169.3 95 171.6 97.05 171.85 97.15 172.05 97.2 172.25 97.25 172.45 97.35 172.55 97.7 172.85 97.9 173.9 98.65 174.6 99.65 174.65 99.7 174.65 99.8 174.7 99.9 174.7 100 174.7 100.1 174.7 100.2 175 100.45 175.05 100.8 175.1 101.2 175.15 101.6 175.05 101.8 175 102 174.9 102.2 174.9 102.4 174.65 102.65 174.5 102.9 173.75 104 172.7 104.75 165.2 107.1 157.5 105.8 157.4 105.7 157.25 105.65 156.5 105.1 155.85 104.55 154.75 103.6 154.35 102.3 154.2 102.1 154 101.9 153.8 101.6 153.6 101.35 153.6 100.85 153.55 100.35 153.55 99.85 153.7 99.35 154.8 98.15 156.15 97.3 159.488671875 95.120703125 163.4 94.4 163.737890625 94.347265625 164.05 94.3 Z" stroke="none" fill="#000000"></path>

<path d="M 178.6 66.55
Q 178.6 66.4 178.65 66.25 178.8 65.6 178.2 65.3 168.85 67.2 159.25 69 159.15 68.85 159.05 68.7 158.6 67.8 158.3 66.85 158.2 66.7 158.1 66.55 158.1 66.4 158.05 66.25 157.9 65.8 157.7 65.3 157.7 65.15 157.7 65 157.7 64.25 157.7 63.5 157.7 63 157.7 62.55 157.6 62.4 157.55 62.25 157.25 61.35 157.1 60.4 157.05 60.1 156.9 59.8 156.9 59.65 156.9 59.5 156.9 59 156.9 58.55 156.8 58.4 156.7 58.25 156.6 58.1 156.5 57.95 156.5 57.8 156.5 57.65 156.55 57.05 156.05 56.7 152.9712890625 57.9314453125 149.9 59.35 144.9904296875 61.6703125 140.1 64.5
L 140.1 64.55
Q 138.85 64.55 137.65 64.5 137.5 64.35 137.35 64.2 137.3 64.1 137.25 64 137.2 63.95 137.1 63.9 136.75 63.8 136.4 63.7 136.4 63.55 136.35 63.4 135.75 62.3 134.75 61.55 134.75 61.4 134.7 61.3 134.15 60.55 133.45 60 133.15 59.4 132.9 58.75 132.45 57.4 131.5 56.3 131.5 56.15 131.45 56 131.45 55.85 131.4 55.7 131.2 55.4 130.95 55.1 130.1 54.1 129.55 52.9 129.5 52.8 129.45 52.6 129.4 52.5 129.35 52.5 128.95 52.45 128.5 52.5 123.65 57.05 119.65 62.35 118.1 64.4 116.85 66.65 115.05 66.8 113.25 66.95 110.05 64.95 106.85 62.8 106.2 62.3 105.7 61.65 103.5 60.25 101.35 58.75 100.6 58.25 99.85 57.75 99.05 63.1 99.1 68.8 99.15 72.95 99.15 77.1 99.15 77.4 99.15 77.7 89.99375 77.4734375 80.55 75.2 79.5765625 74.95703125 78.6 74.7 78.6 74.8 78.6 74.9
L 78.6 74.95
Q 78.7 75.25 78.75 75.55 78.85 75.7 78.95 75.85 79.2 76.2 79.45 76.5 79.9888671875 78.1166015625 80.55 79.7 81.446484375 82.297265625 82.4 84.85 83.65 88.05 85.5 90.9 85.55 91.05 85.6 91.25 85.6 91.7 85.6 92.15 85.6 92.3 85.6 92.45 83.1357421875 93.4021484375 80.55 94.2 73.9017578125 96.3400390625 66.45 97.6 66.55 97.75 66.7 97.85 66.8 97.95 66.85 98.05 67.35 98.05 67.85 98.15
L 67.85 98.25
Q 67.9 98.75 67.75 99.25 72.5 103.35 76.45 108.35 78 110.4 79.05 112.65 76.55 114.3 72.4 114.65 67.55 115 63.1 115.05 62.5 115.25 61.9 115.55 61.85 115.65 61.85 115.75 61.8 115.95 61.8 116.15 61.85 116.35 61.85 116.55 61.85 116.65 61.85 116.75 62.2 116.75 62.6 116.8
L 62.6 116.9
Q 62.6 117.05 62.6 117.15 62.6 118.05 62.6 118.9 62.6 119.15 62.6 119.4 62.65 119.5 62.7 119.6 62.75 119.75 62.85 119.85 62.85 120 62.85 120.15 62.95 120.3 63 120.5 63.05 120.65 63.1 120.8 63.1 120.95 63.1 121.15 63.1 121.9 63.1 122.65 63.1 122.95 63.1 123.3 64.05 125 64.65 126.95 65.25 129.05 66.35 130.95 66.35 131.1 66.4 131.25 66.4 131.55 66.45 131.9 67.35 132.45 67.8 133.45 68.45 134.85 69.55 135.85 69.6 136.05 69.6 136.2 69.65 136.35 69.65 136.5 70.0888671875 137.1080078125 70.55 137.7 74.8609375 143.3326171875 80.55 147.55 85.23515625 151.0021484375 90.85 153.5 91.53515625 153.805859375 92.2 154.1 98.8189453125 153.9888671875 105.5 153.8 117.8 153.45 130.15 153.45 140.04375 153.419921875 149.9 153.25 169.549609375 153.0056640625 189.05 152.3 192.1564453125 150.237109375 195.1 147.85 195.2 147.7 195.3 147.55 195.85 146.7 196.8 146.3 198 145.05 199 143.55 200 142.15 201.35 141.1 201.6 140.65 201.85 140.2 202.55 138.9 203.5 137.7 203.7 136.4 204.35 135.25 205.3 133.7 205.45 131.9 207.25 128.05 208.25 123.85 208.95 120.75 210.15 117.75 210.15 116.85 210.15 115.9 210.15 114.2 210.15 112.55 210.15 112.35 210.15 112.2 199.9 110.6 189.65 109.25 189.65 109.1 189.7 109 190.15 108.25 190.8 107.7 190.9 107.6 191 107.5 191.05 107.45 191.1 107.45 191.6 107.3 192.1 107.2 192.15 107.05 192.25 106.95 192.85 106.3 193.55 105.75 193.95 105.65 194.35 105.55 195.3 104.5 196.65 104.05 197.8 103.7 198.75 103 201.2 102.55 203.3 101.4 203.85 101.1 204.6 100.75 196.95 95.75 189.25 92.55 190.9 90.3 192.75 87.7 193.95 86 195.2 84.25 195.25 84.1 195.25 83.95 195.35 83.5 195.4 83.05 195.55 82.9 195.7 82.8 195.05 81.25 194.85 79.65 195.15 79.65 195.45 79.7 195.35 79.6 195.3 79.55
L 195.3 79.5
Q 194.15 79.3 193.15 78.75 186.05 78.5 179 78.2 179 75.3 179.15 72.4 179.3 69.35 178.6 66.55
M 162.3 93.6
Q 166.8 93.05 170.85 94.6 172.4 95.2 173.45 96.35 173.5 96.4 173.6 96.4 173.75 96.45 173.9 96.5 174.1 96.55 174.3 96.6 174.35 96.7 174.45 96.8 175.1 97.4 175.75 98.05 176.1 98.45 176.5 98.75 176.55 98.85 176.6 98.95 176.6 99.05 176.65 99.15 176.65 99.35 176.65 99.55 176.8 99.65 176.85 99.8 176.9 99.85 176.9 99.95 176.9 100.15 176.9 100.35 177 100.45 177.05 100.55 177.1 100.65 177.2 100.75 177.2 100.85 177.2 100.95 177.2 101.15 177.2 101.35 177.2 101.65 177.2 101.9 177.2 102 177.2 102.1 177.15 102.2 177.1 102.3 176.85 103.1 176.25 103.85 175.55 104.75 174.6 105.45 165.6 108.5 156.7 106.55 153.6 105.85 152.4 102.95 152.3 102.85 152.2 102.75 152.1 102.65 152.05 102.55 151.8 102.3 151.6 102 151.6 101.9 151.6 101.8 151.6 101.3 151.6 100.8 151.6 100.3 151.6 99.8 151.6 99.45 151.6 99.05 151.7 98.95 151.75 98.85 151.8 98.75 151.85 98.65 151.9 98.55 151.95 98.45 153 97.35 154.3 96.55 158 94.2 162.3 93.6
M 189.15 123.2
Q 190.65 122.3 192 121.25 192.1 121.15 192.15 121.05 192.2 120.95 192.3 120.9 192.4 120.8 192.5 120.75
L 192.5 120.7
Q 193.5 120.8 194.45 121 194.5 121 194.5 121.1 194.5 121.2 194.45 121.3 194.4 121.7 194.1 121.95 193.8 122.2 193.5 122.5 193.45 122.6 193.45 122.7 193.4 122.8 193.35 122.9 193.35 123 193.3 123.1 193.2 123.2 193.1 123.25 192.6 123.55 192.25 123.95 191.9 124.4 191.45 124.85 191.45 124.95 191.4 125.05 191.35 125.15 191.3 125.25 191.25 125.35 191.2 125.45 184.45 132.2 176.05 136.75 175.161328125 137.2373046875 174.25 137.7 165.765625 142.079296875 156.45 144.25 153.218359375 145.0103515625 149.9 145.4 148.854296875 145.5162109375 147.8 145.6 126.45 147.3 106.25 140.05 103.5267578125 139.062109375 101.15 137.7 94.581640625 133.960546875 90.55 127.4 89.15 125.2 87.7 123 87.7 122.9 87.7 122.8 87.65 122.65 87.65 122.45 87.65 122.35 87.65 122.25 87.65 122.15 87.65 122.05 87.6 121.95 87.55 121.85 87.45 121.65 87.4 121.45 87.4 121.35 87.4 121.25 87.35 121.15 87.3 121.05 87.25 120.95 87.15 120.85 87.15 120.75 87.15 120.65 87.15 120.45 87.15 120.25 87.15 120.15 87.15 120.05 87.15 119.95 87.15 119.9 87.2 119.8 87.25 119.75 88.5 119.8 89.7 119.8 90.25 120.4 91 120.75 92.5 121.45 93.9 122.45 94.05 122.5 94.2 122.5 95.45 122.6 96.35 123.35 96.45 123.45 96.55 123.55 96.75 123.6 96.9 123.65 97.25 123.75 97.55 123.8 97.65 123.9 97.75 124 97.9 124.2 98 124.4 98.1 124.5 98.15 124.6 98.2 124.65 98.3 124.7 98.75 124.8 99.2 124.85 108.25 130.65 118.95 132.35 134.398046875 134.8083984375 149.9 133.65 155.5212890625 133.2416015625 161.15 132.35 164 131.9 166.9 131.35 177.45 129.25 186.95 124.45 187.05 124.35 187.15 124.25 187.2 124.15 187.25 124.05 188.25 123.7 189.15 123.2
M 115.3 97.55
Q 115.5 97.6 115.65 97.65 115.7 97.75 115.75 97.85 115.85 97.95 115.9 98.05 116.05 98.25 116.25 98.45 116.35 98.55 116.45 98.65 116.55 98.75 116.7 98.85 116.75 98.95 116.8 99.05 116.85 99.15 116.9 99.25 116.9 99.35 116.95 99.45 117.05 99.55 117.15 99.65 117.25 99.7 117.35 99.8 117.5 99.9 117.6 100 117.65 100.1 117.75 100.2 117.75 100.3 117.8 100.4 117.85 100.5 117.85 100.6 117.9 100.8 117.95 101 117.95 101.1 117.95 101.2 117.95 101.3 117.95 101.4 117.95 101.5 118 101.55 118.05 101.7 118.1 101.8 118.15 101.9 118.2 102 118.2 102.1 118.2 102.2 118.2 102.3 118.2 102.4 118.2 102.55 118.2 102.75 118.2 102.85 118.2 102.95 118.2 103.05 118.2 103.15 118.2 103.45 118.2 103.75 118.2 103.85 118.2 103.95 118.15 104.05 118.1 104.15 118.05 104.25 118 104.35 117.95 104.45 117.95 104.55 117.95 104.65 117.95 104.75 117.95 104.85 117.95 104.95 117.95 105.05 117.95 105.15 117.9 105.25 117.85 105.3 117.8 105.4 117.75 105.5 117.5 105.8 117.25 106.15 117 106.55 116.6 106.9 116.2 107.25 115.85 107.6 107.5 110.3 98.75 108.6 94.1 107.65 91.45 103.9 91.35 103.8 91.2 103.7 91.1 103.6 91 103.5 90.95 103.4 90.85 103.3 90.85 103.2 90.8 103.1 90.8 103 90.8 102.9 90.8 102.7 90.8 102.5 90.8 102.4 90.8 102.3 90.8 102.2 90.8 102.1 90.8 101.8 90.8 101.55 90.8 101.45 90.8 101.35 91.4 99.65 92.75 98.55 97.55 94.7 103.65 94.45 108.05 94.25 112.15 95.7 113.45 96.2 114.65 96.95 114.75 97.05 114.85 97.15 114.9 97.25 115 97.35 115.05 97.4 115.15 97.45 115.2 97.5 115.3 97.55 Z" stroke="none" fill="#FDDF5E"></path>
</g>
</g>
</g>
</g>
</svg>
