
<svg viewBox="0 0 154 124" height="124px" width="154px" y="0px" x="0px" preserveAspectRatio="none" xmlns:xlink="http://www.w3.org/1999/xlink" version="1.1" xmlns="http://www.w3.org/2000/svg">
<defs></defs>

<g id="Layer_1"></g>

<g id="Layer_2">
<g transform="matrix( 1, 0, 0, 1, -8.8,115.5)" id="Layer_1">
<g>
<g>
<g>
<path d="M 147.25 -105
Q 139.05 -110.4 129.25 -110.35 121 -110 114.95 -104.25 108.4220703125 -97.950390625 106.5 -89.4 102.040234375 -91.7076171875 96.6 -91.95 88.4283203125 -91.021484375 84.15 -84.1 83.853515625 -83.567578125 83.55 -83 80.95 -78.15 80.7 -72.65 79.3 -73 77.85 -73.15 76.9732421875 -73.253125 76.2 -73 75.706640625 -73.516015625 75.15 -74 70.3 -77.95 64.85 -81.4 62.507421875 -82.87421875 60.05 -84.1 51.8689453125 -88.2384765625 42.65 -89.55 41.7 -89.5 40.65 -89.45 37.6 -89.2 34.75 -88.15 22.35 -83.55 15.65 -72.1 13 -67.55 11.25 -62.55 8.95 -55.85 8.95 -48.85 8.9 -40.05 15.5 -34.25 20.994921875 -29.4583984375 28.25 -30 28.5171875 -28.5744140625 28.9 -27.15 30.4 -21.75 33.55 -17.1 36.019140625 -13.4365234375 39.05 -10.85 47.3125 -3.8392578125 59.75 -4.9 59.35 -2.7 59.35 -0.45 59.3 5.3 65.25 6.6 76.3939453125 9.020703125 83.3 0.8 94.41171875 2.0970703125 105.3 -0.6 120 -4.25 132.05 -13.3 135.9 -13.15 139.7 -13.7 143.4 -14.2 146.4 -16 147.1 -16.05 147.65 -16.4 153.45 -20.15 150.85 -25.95 149.45 -29.15 146.55 -31 148.55 -32.7 150.15 -34.8 159.25 -46.95 156.4 -62.2 156 -64.4 155.05 -66.4 154.92421875 -66.67578125 154.8 -66.95 159.56484375 -70.0052734375 162.25 -75.05 163.15 -76.7 163.2 -78.55 163.2654296875 -81.38203125 162.7 -84.1 161.955859375 -87.6205078125 160.15 -90.95 155.5 -99.55 147.25 -105
M 124.75 -105.3
Q 134.45 -107.7 143.15 -102.8 151.65 -98 156.15 -89.4 157.1 -87.6 158.1 -85.8 158.559375 -84.9482421875 158.85 -84.1 160.1267578125 -80.5173828125 158.55 -77 156.6240234375 -72.826953125 152.95 -70.25 152.3333984375 -71.1755859375 151.65 -72.05 155.556640625 -75.4701171875 156.05 -80.65 156.25 -82.35 155.6 -83.9 155.558203125 -84 155.5 -84.1 154.138671875 -87.342578125 152.15 -90.35 147.45 -97.45 138.9 -97.9 132.75 -97.6 128.25 -93.35 123.86796875 -89.2875 120.95 -84.1 120.711328125 -83.605078125 120.45 -83.1 118.9486328125 -80.225 117.7 -77.25 116.3416015625 -80.797265625 113.5 -83.95 113.4322265625 -84.025390625 113.35 -84.1 111.7505859375 -85.865234375 109.95 -87.25 109.977734375 -87.3400390625 110 -87.45 112.05 -97.1 120.15 -103.1 122.2 -104.65 124.75 -105.3
M 50.45 -84.1
Q 51.5953125 -83.7103515625 52.75 -83.2 62.45 -78.9 70.75 -72.4 71.2 -71.75 71.9 -71.35 72.25 -71.15 72.6 -70.85 72.7 -70.65 72.8 -70.45 72.95 -70.25 73.15 -70.05 73.190234375 -70.0177734375 73.2 -70 71.793359375 -67.166796875 73.1 -63.6 74.1 -61 75.25 -58.5 75.3880859375 -58.20234375 75.5 -57.95 75.281640625 -58.125390625 75 -58.3 66.433984375 -63.77265625 56.2 -64.3 56.15625 -64.5666015625 56.05 -64.85 56 -64.95 55.9 -65.1 53.1 -67.05 50.2 -68.95 44.9001953125 -72.4298828125 39.05 -74.05 35.73828125 -74.9427734375 32.25 -75.25 29.35 -74.8 26.9 -72.9 21.75 -69 19 -63.1 15.75 -56.1 14.9 -48.35 14.15 -41 20.4 -38.2 22.85 -36.85 25.55 -35.9 26.6728515625 -35.495703125 27.8 -35.3 27.7958984375 -34.6390625 27.8 -34 25.9224609375 -34.252734375 23.95 -34.45 22.2 -34.6 20.8 -35.5 11.05 -41.85 13.05 -53.45 13.85 -58.4 15.75 -63.1 18.65 -70.45 23.85 -76.4 28.25 -81.45 34.5 -83.8 42.526171875 -86.7662109375 50.45 -84.1
M 40.55 -54.55
Q 43.15 -56.45 46.05 -57.6 62.7 -64.3 75.45 -51.95 75.85 -51.85 76.2 -51.8 76.45 -51.8 76.7 -51.85 76.85 -51.9 76.95 -51.95 77.1 -52 77.2 -52.1 77.35 -52.2 77.5 -52.35 77.65 -52.45 77.8 -52.6 78.24921875 -54.69609375 77.15 -56.35 78.304296875 -55.838671875 79.8 -56.65 80.25 -57.3 79.95 -57.95 78.6 -61.1 77.2 -64.25 76.2525390625 -66.3173828125 76.8 -68.35 77.1681640625 -68.5244140625 77.55 -68.85 77.6056640625 -68.961328125 77.65 -69.1 78.853515625 -69.1427734375 80.15 -68.75 80.8 -68.6 81.15 -68.05 81.7 -65 84.3 -63.4 86.8 -61.85 87.2 -64.65 87.8 -68.3 84.85 -70.75 84.380859375 -78.34921875 89.35 -84.1 89.69765625 -84.4791015625 90.05 -84.85 93.6 -88.55 98.75 -87.55 103.660546875 -86.6251953125 107.2 -84.1 111.727734375 -80.891796875 114.05 -75.1 114.4083984375 -74.2212890625 114.65 -73.35 115.766015625 -69.0796875 113.9 -64.85 113.7 -64.55 113.5 -64.25 113.4 -64.1 113.35 -63.9 113.3 -63.85 113.25 -63.75 113.25 -63.7 113.2 -63.6 112 -62.25 110.5 -61.2 108.859765625 -60.0232421875 109.25 -58.7 103.412890625 -55.0875 100.7 -48.6 97.7 -41.55 102.15 -35.4 105.3533203125 -30.9955078125 109.95 -29.1 112.2888671875 -28.09921875 114.95 -27.75 121.65 -26.85 128 -29.35 130.5107421875 -30.354296875 132.6 -32 133.47265625 -32.6150390625 134.25 -33.35 141.95 -40.65 138.8 -50.55 138.15 -52.75 136.75 -54.55 135.75390625 -55.838671875 134.65 -56.95 135.3083984375 -57.5431640625 135.95 -58.2 138.6 -61.05 135.05 -62.65 134.85 -62.6 134.7 -62.5 132.80234375 -61.288671875 131.15 -59.65 126.3197265625 -62.543359375 119.9 -62.3 118.201171875 -62.1138671875 116.5 -61.7 116.7201171875 -61.987890625 116.9 -62.3 117.25 -62.25 117.65 -62.2 117.9 -62.2 118.15 -62.25 118.25 -62.25 118.4 -62.3 118.5 -62.4 118.65 -62.5 118.8 -62.6 118.95 -62.75 119.1 -62.85 119.2 -62.95 119.75 -64.15 120 -65.4 120.2 -66.45 120.6 -67.4 120.8 -67.9 121.05 -68.45 121.25 -68.9 121.35 -69.4 122 -69.9 122.4 -70.6 126.15 -76.9 133.45 -76.6 144.42890625 -76.221484375 150 -68.25 149.2427734375 -67.2376953125 150.6 -65.95 151.090234375 -65.4884765625 151.65 -65.45 151.77578125 -65.2078125 151.9 -64.95 153.65 -55.8 151.75 -46.7 149.7 -36.95 140.8 -32.1 139.3587890625 -32.182421875 138.1 -31.65 137.855859375 -31.5 137.6 -31.35 136.35 -30.6 136.15 -29.3 136 -28.65 136.25 -28.05 136.45 -27.8 136.7 -27.55 136.8 -27.45 136.95 -27.3 137.1 -27.2 137.35 -27.05 137.7 -26.95 138.05 -26.9 139 -26.75 139.75 -27.15 141.55 -28.05 143.6 -27.9 143.75 -27.8 143.95 -27.75 144.3 -27.6 144.65 -27.45 145.2 -26.85 145.9 -26.35 146.65 -25.8 147.2 -25.05 147.5 -24.7 147.65 -24.25 147.8 -23.75 148.05 -23.25 148.05 -23.15 148.05 -23 148.05 -22.9 148.05 -22.75 148.05 -22.65 148 -22.55 147.95 -22.4 147.85 -22.3 147.75 -22.15 147.65 -22.05 147.25 -21.65 146.9 -21.25 146.8 -21.15 146.7 -21.05 146.45 -20.8 146.25 -20.55 146 -20.3 145.8 -20.05 145.5 -19.95 145.25 -19.8 144.75 -19.55 144.3 -19.25 143.95 -19.05 143.65 -18.8 140.95 -18.25 138.2 -17.9 134.8 -17.5 131.65 -16.4 127.45 -14.95 123.4 -12.45 104.9 -1.1 83.3 -3.1
L 83.25 -3.1
Q 82.9970703125 -3.1650390625 82.7 -3.25 82.45 -3.2 82.25 -3.15 82 -3.1 81.8 -3 81.1 -2.5 80.5 -1.85 79.9 -1.2 79.25 -0.55 78.5 0.2 77.8 0.95 77.35 1.05 76.95 1.2 76.25 1.4 75.8 1.9 75.65 2.05 75.45 2.2 73.35 2.65 71.3 3.25 66.95 4.45 63.55 1.6 63.35 1.1 63.2 0.6 63 -0.25 63.05 -1.1 63.15 -1.85 63.3 -2.6 63.5 -3.65 63.8 -4.55 64.3 -5 64.75 -5.5 65.5 -6.3 66.45 -6.9 67.1 -7.3 67.3 -8.05 67.3 -8.15 67.35 -8.3 67.35 -8.3755859375 67.35 -8.45 67.3197265625 -8.8681640625 67.15 -9.25 67 -9.5 66.8 -9.75 66.7 -9.9 66.6 -10 66.35 -10.15 66.1 -10.25 65.25 -10.55 64.45 -10.35 64.3 -10.3 64.2 -10.25 58.9 -8.2 53.05 -8.8 44.3166015625 -9.677734375 39.05 -16.1 38.31640625 -16.9974609375 37.65 -18 30.3 -28.95 32.6 -41.9 33.831640625 -48.850390625 39.05 -53.35 39.7626953125 -53.9791015625 40.55 -54.55
M 41.35 -69
Q 45.89140625 -66.3935546875 50.35 -63.65 46.213671875 -62.713671875 42.3 -60.55 40.5728515625 -59.588671875 39.05 -58.5 31.2275390625 -52.784375 28.8 -43.2 28.3345703125 -41.372265625 28.05 -39.55 26.723828125 -40.0162109375 25.35 -40.45 22.75 -41.25 20.35 -42.4 20.2 -42.5 20.1 -42.65 20 -42.75 19.95 -42.9 19.85 -43 19.75 -43.15 19.7 -43.25 19.6 -43.4 19.1 -45.55 19.2 -47.85 19.55 -54.95 22.45 -61.35 25.45 -67.9 31.75 -71.1 35.5681640625 -71.4369140625 39.05 -70.1 40.2189453125 -69.641015625 41.35 -69
M 147 -90.35
Q 148.2 -89.2 149.15 -87.8 150.41953125 -86.028515625 151.25 -84.1 151.8314453125 -82.7626953125 152.2 -81.35 152 -80.35 151.75 -79.35 151.55 -78.4 151.05 -77.55 150.65 -76.9 150.3 -76.15 149.7 -75.65 149.2 -75 149.1357421875 -74.9203125 149.05 -74.85 142.608984375 -80.7755859375 132 -81 125.9845703125 -80.1134765625 121.9 -76.3 122.011328125 -76.5462890625 122.1 -76.8 123.5021484375 -80.6701171875 125.65 -84.1 127.3484375 -86.7849609375 129.5 -89.2 131.3 -91.15 133.7 -92.35 141.1 -95.95 147 -90.35
M 116.7 -31.35
Q 114 -31.7 111.45 -32.75 108.15 -34.2 105.85 -37 101.75 -41.85 104.75 -47.6 105.555078125 -49.140234375 106.5 -50.5 105.812890625 -43.53671875 111.4 -39.25 119.7 -32.85 129.65 -36.75 133.032421875 -38.0634765625 135 -40.7 134.5791015625 -39.7142578125 133.9 -38.85 132.8 -37.45 131.6 -36.1 131 -35.75 130.45 -35.4 124.15 -31.5 116.7 -31.35
M 92.3 -12.4
Q 94.75 -14.5 92.9 -16.7 92.5 -17.15 91.95 -16.95 89.4 -16.15 88.25 -13.55 86.6 -9.7 89.95 -7.45 90.7 -6.95 91.55 -6.8 98.45 -5.8 104.95 -8.5 106.85 -9.3 108.85 -9.75 112.05 -10.5 115.4 -10.65 118.3 -10.85 120.75 -12.35 123.35 -13.95 124.4 -16.65 125.95 -20.55 122.1 -22.15 120.85 -22.1 120.4 -20.9 119.75 -19.35 120.95 -18.2 118.4 -14.65 113.9 -14.4 111.5 -14.3 109.2 -13.75 104.55 -12.65 100 -11 95.65 -9.45 91.65 -11.1 91.7 -11.9 92.3 -12.4
M 99.25 -19.15
Q 99.35 -18.4 100.1 -18.2 102.040234375 -17.691796875 104.05 -18.2 107.65625 -16.9333984375 111.15 -19 111.7 -19.35 112 -19.9 112.3076171875 -20.40625 112.4 -20.85 112.9640625 -20.93046875 113.5 -21 114.75 -21.15 115.05 -22.3 115.85 -25.35 112.3 -25.05 111.25 -24.95 110.2 -24.5 106.1 -22.75 101.7 -22.1 98.9 -21.7 99.25 -19.15
M 80.85 -49
Q 75.2 -48.1 70.05 -45.3 65.1 -42.6 62.15 -37.95 60.744140625 -35.726953125 60.2 -33.4 59.06015625 -33.9255859375 57.5 -33.85 54.9 -33.25 56 -30.85 56.45 -29.85 57.5 -29.55 58.8994140625 -29.0912109375 60 -29.35 60.184375 -27.46328125 60.9 -25.55 64.1 -16.75 73.5 -15.3 75.6759765625 -14.9482421875 77.75 -14.95 85.268359375 -14.83203125 91.9 -18.85 95.1599609375 -20.83125 97.1 -23.45 97.72109375 -24.259765625 98.2 -25.15 100.479296875 -29.2453125 99.95 -34.75 99.6 -38.45 97.4 -41.4 94.6279296875 -45.04375 91 -46.95 86.5724609375 -49.3041015625 80.85 -49
M 64.7 -35.05
Q 65.4947265625 -36.448828125 66.55 -37.6 66.494140625 -37.271484375 66.45 -36.95 65.9 -33.15 67.5 -29.7 69.9 -24.55 75.5 -23.35 84.6 -21.45 92.1 -26.6 93.326171875 -27.44375 94.3 -28.45 95.120703125 -29.225390625 95.75 -30.1 95.591796875 -29.0708984375 95.3 -28.05 95.25 -27.95 95.2 -27.85 95.05 -27.7 94.95 -27.55 94.888671875 -27.4580078125 94.85 -27.4 94.8193359375 -27.3080078125 94.8 -27.25 94.7 -27 94.6 -26.75 94.4 -26.5 94.2 -26.25 93.6 -25.5 92.9 -24.9 92.3 -24.4 91.95 -23.75 89.4 -21.95 86.6 -20.75 82.9 -19.1 79 -18.7 69 -17.7 64.55 -26.35 64.15 -27.5 64.05 -28.75 63.9 -30.35 64.1 -32 64.3 -33.5 64.7 -35.05 Z" stroke="none" fill="#000000"></path>

<path d="M 111.45 -32.75
Q 114 -31.7 116.7 -31.35 124.15 -31.5 130.45 -35.4 131 -35.75 131.6 -36.1 132.8 -37.45 133.9 -38.85 134.5791015625 -39.7142578125 135 -40.7 133.032421875 -38.0634765625 129.65 -36.75 119.7 -32.85 111.4 -39.25 105.812890625 -43.53671875 106.5 -50.5 105.555078125 -49.140234375 104.75 -47.6 101.75 -41.85 105.85 -37 108.15 -34.2 111.45 -32.75
M 66.55 -37.6
Q 65.4947265625 -36.448828125 64.7 -35.05 64.3 -33.5 64.1 -32 63.9 -30.35 64.05 -28.75 64.15 -27.5 64.55 -26.35 69 -17.7 79 -18.7 82.9 -19.1 86.6 -20.75 89.4 -21.95 91.95 -23.75 92.3 -24.4 92.9 -24.9 93.6 -25.5 94.2 -26.25 94.4 -26.5 94.6 -26.75 94.7 -27 94.8 -27.25 94.8193359375 -27.3080078125 94.85 -27.4 94.888671875 -27.4580078125 94.95 -27.55 95.05 -27.7 95.2 -27.85 95.25 -27.95 95.3 -28.05 95.591796875 -29.0708984375 95.75 -30.1 95.120703125 -29.225390625 94.3 -28.45 93.326171875 -27.44375 92.1 -26.6 84.6 -21.45 75.5 -23.35 69.9 -24.55 67.5 -29.7 65.9 -33.15 66.45 -36.95 66.494140625 -37.271484375 66.55 -37.6 Z" stroke="none" fill="#FFFFFF"></path>

<path d="M 149.15 -87.8
Q 148.2 -89.2 147 -90.35 141.1 -95.95 133.7 -92.35 131.3 -91.15 129.5 -89.2 127.3484375 -86.7849609375 125.65 -84.1 123.5021484375 -80.6701171875 122.1 -76.8 122.011328125 -76.5462890625 121.9 -76.3 125.9845703125 -80.1134765625 132 -81 142.608984375 -80.7755859375 149.05 -74.85 149.1357421875 -74.9203125 149.2 -75 149.7 -75.65 150.3 -76.15 150.65 -76.9 151.05 -77.55 151.55 -78.4 151.75 -79.35 152 -80.35 152.2 -81.35 151.8314453125 -82.7626953125 151.25 -84.1 150.41953125 -86.028515625 149.15 -87.8
M 50.35 -63.65
Q 45.89140625 -66.3935546875 41.35 -69 40.2189453125 -69.641015625 39.05 -70.1 35.5681640625 -71.4369140625 31.75 -71.1 25.45 -67.9 22.45 -61.35 19.55 -54.95 19.2 -47.85 19.1 -45.55 19.6 -43.4 19.7 -43.25 19.75 -43.15 19.85 -43 19.95 -42.9 20 -42.75 20.1 -42.65 20.2 -42.5 20.35 -42.4 22.75 -41.25 25.35 -40.45 26.723828125 -40.0162109375 28.05 -39.55 28.3345703125 -41.372265625 28.8 -43.2 31.2275390625 -52.784375 39.05 -58.5 40.5728515625 -59.588671875 42.3 -60.55 46.213671875 -62.713671875 50.35 -63.65 Z" stroke="none" fill="#3399FF"></path>

<path d="M 136.75 -54.55
Q 138.15 -52.75 138.8 -50.55 141.95 -40.65 134.25 -33.35 133.47265625 -32.6150390625 132.6 -32 135.4076171875 -31.910546875 138.1 -31.65 139.3587890625 -32.182421875 140.8 -32.1 149.7 -36.95 151.75 -46.7 153.65 -55.8 151.9 -64.95 151.77578125 -65.2078125 151.65 -65.45 151.090234375 -65.4884765625 150.6 -65.95 149.2427734375 -67.2376953125 150 -68.25 144.42890625 -76.221484375 133.45 -76.6 126.15 -76.9 122.4 -70.6 122 -69.9 121.35 -69.4 121.25 -68.9 121.05 -68.45 120.8 -67.9 120.6 -67.4 120.2 -66.45 120 -65.4 119.75 -64.15 119.2 -62.95 119.1 -62.85 118.95 -62.75 118.8 -62.6 118.65 -62.5 118.5 -62.4 118.4 -62.3 118.25 -62.25 118.15 -62.25 117.9 -62.2 117.65 -62.2 117.25 -62.25 116.9 -62.3 116.7201171875 -61.987890625 116.5 -61.7 118.201171875 -62.1138671875 119.9 -62.3 126.3197265625 -62.543359375 131.15 -59.65 132.80234375 -61.288671875 134.7 -62.5 134.85 -62.6 135.05 -62.65 138.6 -61.05 135.95 -58.2 135.3083984375 -57.5431640625 134.65 -56.95 135.75390625 -55.838671875 136.75 -54.55
M 46.05 -57.6
Q 43.15 -56.45 40.55 -54.55 39.7626953125 -53.9791015625 39.05 -53.35 33.831640625 -48.850390625 32.6 -41.9 30.3 -28.95 37.65 -18 38.31640625 -16.9974609375 39.05 -16.1 44.3166015625 -9.677734375 53.05 -8.8 58.9 -8.2 64.2 -10.25 64.3 -10.3 64.45 -10.35 65.25 -10.55 66.1 -10.25 66.35 -10.15 66.6 -10 66.7 -9.9 66.8 -9.75 67 -9.5 67.15 -9.25 67.3197265625 -8.8681640625 67.35 -8.45 73.0626953125 -12.129296875 77.75 -14.95 75.6759765625 -14.9482421875 73.5 -15.3 64.1 -16.75 60.9 -25.55 60.184375 -27.46328125 60 -29.35 58.8994140625 -29.0912109375 57.5 -29.55 56.45 -29.85 56 -30.85 54.9 -33.25 57.5 -33.85 59.06015625 -33.9255859375 60.2 -33.4 60.744140625 -35.726953125 62.15 -37.95 65.1 -42.6 70.05 -45.3 75.2 -48.1 80.85 -49 86.5724609375 -49.3041015625 91 -46.95 91.1693359375 -48.780859375 91.5 -50.6 92.9 -57.85 97 -64.15 101.15 -70.45 107.25 -74.5 109.7 -76.15 111.5 -75.85 113.35 -75.6 114.5 -73.6 114.572265625 -73.4734375 114.65 -73.35 114.4083984375 -74.2212890625 114.05 -75.1 111.727734375 -80.891796875 107.2 -84.1 103.660546875 -86.6251953125 98.75 -87.55 93.6 -88.55 90.05 -84.85 89.69765625 -84.4791015625 89.35 -84.1 84.380859375 -78.34921875 84.85 -70.75 87.8 -68.3 87.2 -64.65 86.8 -61.85 84.3 -63.4 81.7 -65 81.15 -68.05 80.8 -68.6 80.15 -68.75 78.853515625 -69.1427734375 77.65 -69.1 77.6056640625 -68.961328125 77.55 -68.85 77.1681640625 -68.5244140625 76.8 -68.35 76.2525390625 -66.3173828125 77.2 -64.25 78.6 -61.1 79.95 -57.95 80.25 -57.3 79.8 -56.65 78.304296875 -55.838671875 77.15 -56.35 78.24921875 -54.69609375 77.8 -52.6 77.65 -52.45 77.5 -52.35 77.35 -52.2 77.2 -52.1 77.1 -52 76.95 -51.95 76.85 -51.9 76.7 -51.85 76.45 -51.8 76.2 -51.8 75.85 -51.85 75.45 -51.95 62.7 -64.3 46.05 -57.6
M 52.75 -83.2
Q 51.5953125 -83.7103515625 50.45 -84.1 42.526171875 -86.7662109375 34.5 -83.8 28.25 -81.45 23.85 -76.4 18.65 -70.45 15.75 -63.1 13.85 -58.4 13.05 -53.45 11.05 -41.85 20.8 -35.5 22.2 -34.6 23.95 -34.45 25.9224609375 -34.252734375 27.8 -34 27.7958984375 -34.6390625 27.8 -35.3 26.6728515625 -35.495703125 25.55 -35.9 22.85 -36.85 20.4 -38.2 14.15 -41 14.9 -48.35 15.75 -56.1 19 -63.1 21.75 -69 26.9 -72.9 29.35 -74.8 32.25 -75.25 35.73828125 -74.9427734375 39.05 -74.05 44.9001953125 -72.4298828125 50.2 -68.95 53.1 -67.05 55.9 -65.1 56 -64.95 56.05 -64.85 56.15625 -64.5666015625 56.2 -64.3 66.433984375 -63.77265625 75 -58.3 75.281640625 -58.125390625 75.5 -57.95 75.3880859375 -58.20234375 75.25 -58.5 74.1 -61 73.1 -63.6 71.793359375 -67.166796875 73.2 -70 73.190234375 -70.0177734375 73.15 -70.05 72.95 -70.25 72.8 -70.45 72.7 -70.65 72.6 -70.85 72.25 -71.15 71.9 -71.35 71.2 -71.75 70.75 -72.4 62.45 -78.9 52.75 -83.2
M 143.15 -102.8
Q 134.45 -107.7 124.75 -105.3 122.2 -104.65 120.15 -103.1 112.05 -97.1 110 -87.45 109.977734375 -87.3400390625 109.95 -87.25 111.7505859375 -85.865234375 113.35 -84.1 113.4322265625 -84.025390625 113.5 -83.95 116.3416015625 -80.797265625 117.7 -77.25 118.9486328125 -80.225 120.45 -83.1 120.711328125 -83.605078125 120.95 -84.1 123.86796875 -89.2875 128.25 -93.35 132.75 -97.6 138.9 -97.9 147.45 -97.45 152.15 -90.35 154.138671875 -87.342578125 155.5 -84.1 155.558203125 -84 155.6 -83.9 156.25 -82.35 156.05 -80.65 155.556640625 -75.4701171875 151.65 -72.05 152.3333984375 -71.1755859375 152.95 -70.25 156.6240234375 -72.826953125 158.55 -77 160.1267578125 -80.5173828125 158.85 -84.1 158.559375 -84.9482421875 158.1 -85.8 157.1 -87.6 156.15 -89.4 151.65 -98 143.15 -102.8 Z" stroke="none" fill="#66FFCC"></path>

<path d="M 67.35 -8.3
Q 67.3 -8.15 67.3 -8.05 67.1 -7.3 66.45 -6.9 65.5 -6.3 64.75 -5.5 64.3 -5 63.8 -4.55 63.5 -3.65 63.3 -2.6 63.15 -1.85 63.05 -1.1 63 -0.25 63.2 0.6 63.35 1.1 63.55 1.6 66.95 4.45 71.3 3.25 73.35 2.65 75.45 2.2 75.65 2.05 75.8 1.9 76.25 1.4 76.95 1.2 77.35 1.05 77.8 0.95 78.5 0.2 79.25 -0.55 79.9 -1.2 80.5 -1.85 81.1 -2.5 81.8 -3 82 -3.1 82.25 -3.15 82.45 -3.2 82.7 -3.25 82.9970703125 -3.1650390625 83.25 -3.1
L 83.3 -3.1
Q 104.9 -1.1 123.4 -12.45 127.45 -14.95 131.65 -16.4 134.8 -17.5 138.2 -17.9 140.95 -18.25 143.65 -18.8 143.95 -19.05 144.3 -19.25 144.75 -19.55 145.25 -19.8 145.5 -19.95 145.8 -20.05 146 -20.3 146.25 -20.55 146.45 -20.8 146.7 -21.05 146.8 -21.15 146.9 -21.25 147.25 -21.65 147.65 -22.05 147.75 -22.15 147.85 -22.3 147.95 -22.4 148 -22.55 148.05 -22.65 148.05 -22.75 148.05 -22.9 148.05 -23 148.05 -23.15 148.05 -23.25 147.8 -23.75 147.65 -24.25 147.5 -24.7 147.2 -25.05 146.65 -25.8 145.9 -26.35 145.2 -26.85 144.65 -27.45 144.3 -27.6 143.95 -27.75 143.75 -27.8 143.6 -27.9 141.55 -28.05 139.75 -27.15 139 -26.75 138.05 -26.9 137.7 -26.95 137.35 -27.05 137.1 -27.2 136.95 -27.3 136.8 -27.45 136.7 -27.55 136.45 -27.8 136.25 -28.05 136 -28.65 136.15 -29.3 136.35 -30.6 137.6 -31.35 137.855859375 -31.5 138.1 -31.65 135.4076171875 -31.910546875 132.6 -32 130.5107421875 -30.354296875 128 -29.35 121.65 -26.85 114.95 -27.75 112.2888671875 -28.09921875 109.95 -29.1 105.3533203125 -30.9955078125 102.15 -35.4 97.7 -41.55 100.7 -48.6 103.412890625 -55.0875 109.25 -58.7 108.859765625 -60.0232421875 110.5 -61.2 112 -62.25 113.2 -63.6 113.25 -63.7 113.25 -63.75 113.3 -63.85 113.35 -63.9 113.4 -64.1 113.5 -64.25 113.7 -64.55 113.9 -64.85 115.766015625 -69.0796875 114.65 -73.35 114.572265625 -73.4734375 114.5 -73.6 113.35 -75.6 111.5 -75.85 109.7 -76.15 107.25 -74.5 101.15 -70.45 97 -64.15 92.9 -57.85 91.5 -50.6 91.1693359375 -48.780859375 91 -46.95 94.6279296875 -45.04375 97.4 -41.4 99.6 -38.45 99.95 -34.75 100.479296875 -29.2453125 98.2 -25.15 97.72109375 -24.259765625 97.1 -23.45 95.1599609375 -20.83125 91.9 -18.85 85.268359375 -14.83203125 77.75 -14.95 73.0626953125 -12.129296875 67.35 -8.45 67.35 -8.3755859375 67.35 -8.3
M 100.1 -18.2
Q 99.35 -18.4 99.25 -19.15 98.9 -21.7 101.7 -22.1 106.1 -22.75 110.2 -24.5 111.25 -24.95 112.3 -25.05 115.85 -25.35 115.05 -22.3 114.75 -21.15 113.5 -21 112.9640625 -20.93046875 112.4 -20.85 112.3076171875 -20.40625 112 -19.9 111.7 -19.35 111.15 -19 107.65625 -16.9333984375 104.05 -18.2 102.040234375 -17.691796875 100.1 -18.2
M 92.9 -16.7
Q 94.75 -14.5 92.3 -12.4 91.7 -11.9 91.65 -11.1 95.65 -9.45 100 -11 104.55 -12.65 109.2 -13.75 111.5 -14.3 113.9 -14.4 118.4 -14.65 120.95 -18.2 119.75 -19.35 120.4 -20.9 120.85 -22.1 122.1 -22.15 125.95 -20.55 124.4 -16.65 123.35 -13.95 120.75 -12.35 118.3 -10.85 115.4 -10.65 112.05 -10.5 108.85 -9.75 106.85 -9.3 104.95 -8.5 98.45 -5.8 91.55 -6.8 90.7 -6.95 89.95 -7.45 86.6 -9.7 88.25 -13.55 89.4 -16.15 91.95 -16.95 92.5 -17.15 92.9 -16.7 Z" stroke="none" fill="#B7FFF3"></path>
</g>
</g>
</g>
</g>
</g>
</svg>
