
<svg viewBox="0 0 136 113" height="113px" width="136px" y="0px" x="0px" preserveAspectRatio="none" xmlns:xlink="http://www.w3.org/1999/xlink" version="1.1" xmlns="http://www.w3.org/2000/svg">
<defs></defs>

<g id="Layer_1"></g>

<g id="Layer_2">
<g transform="matrix( 1, 0, 0, 1, 311.7,142.5)" id="Layer_1">
<g>
<g>
<g>
<path d="M -224.35 -104.5
Q -227.814453125 -103.929296875 -229.95 -103.85 -230.4341796875 -103.8408203125 -230.85 -103.85 -234.2876953125 -103.9455078125 -237 -105.5 -237.123828125 -105.5734375 -237.25 -105.65 -240.35 -107.5 -241 -110.5 -241.3 -111.8 -241.55 -114.75 -241.95 -117.25 -243.5 -117.85 -245.3 -118.5 -247.6 -116.85 -254.5849609375 -112.5017578125 -259.15 -105.5 -259.4982421875 -104.93359375 -259.85 -104.35 -260.4546875 -103.335546875 -260.95 -102.5 -262.8716796875 -99.3078125 -263.15 -98.95 -265.25 -96.1 -267.85 -95.35 -268.95 -95 -270.75 -94.95 -273.15 -94.9 -273.75 -94.85 -275.35 -94.75 -276.6 -93.9 -277.9 -92.95 -278.1 -91.5 -276.35 -89.3 -275.95 -86.2 -275.55 -83.25 -276.6 -80.5 -277.7 -77.85 -280.15 -76.05 -282.55 -74.2 -285.5 -73.75 -284 -72.25 -281.2 -71.35 -277.9 -70.5 -276.35 -70 -273.7 -69.15 -271.9 -67.45 -269.85 -65.5 -270 -63.25 -270.268359375 -61.81875 -270.45 -60.85 -270.539453125 -60.1939453125 -270.6 -59.75 -270.9 -57.7 -269.85 -56.85 -269.1 -56.35 -268 -56.6 -267.35 -56.7 -266 -57.25 -262.8798828125 -58.780078125 -260.4 -59.95 -259.376171875 -60.4302734375 -258.45 -60.85 -254.161328125 -62.8154296875 -252.2 -63.45 -244.9939453125 -65.88203125 -239.25 -64.7 -238.804296875 -65.546484375 -238.3 -66.4
L -238.3 -66.9 -237.8 -67.6 -237.8 -68.1 -237.3 -68.95 -237.2 -69.6 -236.95 -69.8 -236.7 -70.9 -236.95 -71.6
Q -233.1369140625 -70.5349609375 -230.65 -67.8 -230.3095703125 -67.97109375 -229.95 -68.15 -228.223046875 -68.83671875 -226.05 -69.05 -221.3 -69.5 -216 -67.5 -214.4 -66.9 -213.85 -66.8 -212.65 -66.55 -211.75 -67 -210.2 -67.55 -209.9 -69.45 -209.6 -71.25 -210.5 -72.75 -211.15 -73.95 -212.65 -75.3 -213.5 -76.1 -215.25 -77.6 -218.5 -81.1 -218.8 -86.25 -219.15 -91.4 -216.25 -95.25 -213.6 -98.7 -213.3 -99.3 -211.95 -101.7 -213.1 -103.5 -214.25 -105.45 -217.85 -105.25 -220 -105.25 -224.35 -104.5
M -259.45 -100.85
Q -259.05 -101.05 -258.6 -101.05 -256.2833984375 -100.084765625 -255.45 -97.5 -254.0466796875 -98.0052734375 -252.55 -98.4 -251.1384765625 -98.7787109375 -249.75 -99.1 -250.226171875 -101.457421875 -249.4 -103.7 -249.25 -104.15 -248.75 -104.3 -248.4 -104.45 -248.1 -104.45 -245.5 -103.6 -245.75 -100.6 -245.802734375 -100.23046875 -245.8 -99.85 -245.0505859375 -99.9505859375 -244.3 -100.05 -242.65 -100.35 -240.95 -100.3 -235.1599609375 -100.342578125 -229.95 -97.05 -229.0412109375 -96.47578125 -228.15 -95.8 -225.65 -93.9 -225.15 -90.95 -224.9216796875 -90.904296875 -224.7 -90.85 -224.7404296875 -90.2490234375 -224.85 -89.6 -225.6853515625 -84.0029296875 -229.25 -79.85 -229.347265625 -79.9177734375 -229.45 -80 -229.6982421875 -79.761328125 -229.95 -79.55 -234.974609375 -74.8615234375 -241.45 -72.1 -248.9 -68.9 -257 -67.7 -257.95 -67.6 -258.9 -67.6 -259.65 -67.6 -260.35 -67.65 -260.652734375 -67.6826171875 -260.95 -67.75 -267.033984375 -68.6177734375 -270.8 -74.1 -271.6 -75.35 -271.9 -76.7 -272 -77.1 -272 -77.45 -272.1 -78.4 -271.9 -79.3 -271.65 -83.95 -268.85 -87.6 -265.459375 -92.021484375 -260.95 -94.85 -260.2326171875 -95.270703125 -259.5 -95.7
L -259.5 -95.7
Q -260.35 -97.5 -260.4 -99.35 -260.4 -100.4 -259.45 -100.85
M -280.1 -87.6
Q -280.5 -88.6 -280.75 -88.85 -281.25 -89.35 -282.75 -89.85 -285.55 -90.35 -287 -89.5 -288.9 -88.1 -288.75 -85.6 -288.55 -84.4 -287.7 -83.35 -287.1337890625 -82.6423828125 -286.4 -82.2 -286.0861328125 -81.99609375 -285.75 -81.85 -285.5359375 -81.7728515625 -285.35 -81.75 -284.27734375 -81.4427734375 -283.2 -81.65 -283.0619140625 -81.6775390625 -282.95 -81.75 -282.4533203125 -81.9453125 -282 -82.35 -280.9 -83.2 -280.35 -84.65 -279.85 -86.1 -280.1 -87.6
M -205.6 -112.75
Q -205.6 -113.75 -205.75 -114.25 -206.05 -115.2 -207.25 -116.1 -209.8 -118 -212.25 -117.5 -213.75 -117 -214.35 -116.5 -216.1 -115.35 -216.85 -114.1 -217.85 -112.45 -217.25 -110.75 -216.9 -109.65 -215.8 -108.8 -215.6611328125 -108.686328125 -215.45 -108.55 -215.2751953125 -108.66875 -215.1 -108.8 -214.312890625 -108.1318359375 -213.6 -107.75 -211.65 -106.6 -209.6 -107.1 -207.9 -107.55 -206.8 -109.25 -205.8 -110.75 -205.6 -112.75 Z" stroke="none" fill="#61DBFF"></path>

<path d="M -258.6 -101.05
Q -259.05 -101.05 -259.45 -100.85 -260.4 -100.4 -260.4 -99.35 -260.35 -97.5 -259.5 -95.7
L -259.5 -95.7
Q -260.2326171875 -95.270703125 -260.95 -94.85 -265.459375 -92.021484375 -268.85 -87.6 -271.65 -83.95 -271.9 -79.3 -272.1 -78.4 -272 -77.45 -272 -77.1 -271.9 -76.7 -271.6 -75.35 -270.8 -74.1 -267.033984375 -68.6177734375 -260.95 -67.75 -260.652734375 -67.6826171875 -260.35 -67.65 -259.65 -67.6 -258.9 -67.6 -257.95 -67.6 -257 -67.7 -248.9 -68.9 -241.45 -72.1 -234.974609375 -74.8615234375 -229.95 -79.55 -229.6982421875 -79.761328125 -229.45 -80 -229.347265625 -79.9177734375 -229.25 -79.85 -225.6853515625 -84.0029296875 -224.85 -89.6 -224.7404296875 -90.2490234375 -224.7 -90.85 -224.9216796875 -90.904296875 -225.15 -90.95 -225.65 -93.9 -228.15 -95.8 -229.0412109375 -96.47578125 -229.95 -97.05 -235.1599609375 -100.342578125 -240.95 -100.3 -242.65 -100.35 -244.3 -100.05 -245.0505859375 -99.9505859375 -245.8 -99.85 -245.802734375 -100.23046875 -245.75 -100.6 -245.5 -103.6 -248.1 -104.45 -248.4 -104.45 -248.75 -104.3 -249.25 -104.15 -249.4 -103.7 -250.226171875 -101.457421875 -249.75 -99.1 -251.1384765625 -98.7787109375 -252.55 -98.4 -254.0466796875 -98.0052734375 -255.45 -97.5 -256.2833984375 -100.084765625 -258.6 -101.05
M -260.95 -89.85
Q -260.3744140625 -90.2107421875 -259.75 -90.55 -252.45 -94.6 -244.1 -95.85 -238.3 -96.8 -232.8 -94.4 -231.0494140625 -93.6123046875 -229.95 -92.05 -229.793359375 -91.8369140625 -229.65 -91.6 -228.15 -89.2 -229.55 -86.85 -229.746484375 -86.5396484375 -229.95 -86.25 -234.655859375 -79.217578125 -242.9 -76.15 -244.9 -75.45 -246.8 -74.5 -253.509765625 -71.34765625 -260.95 -71.95 -261.7705078125 -71.990625 -262.6 -72.1 -264.35 -72.95 -265.8 -74.2 -266.6 -74.95 -267.45 -75.65 -267.7 -76.3 -267.7 -76.85 -267.8384765625 -85.4330078125 -260.95 -89.85
M -243.5 -89.75
Q -245 -91.15 -247.2 -91.45 -249.4 -91.8 -251.25 -90.85 -253.1 -90.05 -254.25 -88.2 -255.4 -86.45 -255.5 -84.35 -255.6 -82.15 -254.45 -80.4 -253.9109375 -79.52421875 -253.2 -79 -252.3517578125 -78.3041015625 -251.25 -78.15 -250.7052734375 -77.9365234375 -250.1 -77.85 -247.5 -77.5 -245.1 -78.85 -243.05 -80 -241.85 -82.25 -241.05 -84.1 -241.5 -86.2 -242 -88.3 -243.5 -89.75
M -218.55 -138
Q -219.35 -137.9 -220.3 -137.8 -227.8873046875 -136.7072265625 -234.65 -133.45 -238.6947265625 -131.49140625 -242.45 -128.75 -244.75 -127.1 -247.1 -125.5 -247.3005859375 -125.230078125 -247.5 -124.95 -250.7546875 -122.97265625 -254.2 -121.25 -257.15 -119.75 -260.35 -118.85 -260.65546875 -118.759375 -260.95 -118.65 -263.259375 -117.8236328125 -264.9 -116.05 -271 -113.15 -276.9 -109.55 -280.102734375 -107.657421875 -283.1 -105.5 -284.2115234375 -104.6935546875 -285.3 -103.85 -297.45 -94.65 -305.45 -80.85 -311.0111328125 -71.1408203125 -307.75 -60.85 -307.401953125 -59.8525390625 -307 -58.85 -306.8 -58.35 -306.6 -57.85 -306.2 -56.95 -305.75 -56.1 -302.7 -50.5 -297.1 -47.9 -285.3 -42.35 -272.6 -43.4 -271.2 -43.5 -269.8 -43.65 -270.05 -40.5 -270.05 -37.3 -270.1 -34.65 -269.7 -32.1
L -269.7 -32.1
Q -269.190625 -28.655859375 -266.15 -30.55 -266.1 -30.65 -266.05 -30.75 -265.75 -31.25 -265.8 -31.85 -265.81796875 -31.93984375 -265.85 -32.05 -265.85 -32.18984375 -265.85 -32.35 -265.9 -32.45 -265.95 -32.55 -266 -32.65 -266.05 -32.7 -266 -34.85 -266 -37.05 -266 -40.65 -265.85 -44.1 -261.2 -44.75 -256.55 -45.65 -254.6 -46.35 -252.65 -47 -250 -47.6 -247.4 -48.3 -242.6 -49.6 -237.85 -51.35 -231.5 -53.65 -225.35 -56.55 -224.7 -56.9 -224.3 -57.5 -223.3056640625 -59.05 -224 -59.95 -224.442578125 -60.588671875 -225.75 -60.9 -225.95 -60.95 -226.1 -61 -226.35 -60.95 -226.6 -60.8 -227 -60.55 -227.35 -60.25 -227.3 -62.25 -228.35 -64.4 -229.050390625 -65.8119140625 -229.95 -67 -230.2859375 -67.402734375 -230.65 -67.8 -233.1369140625 -70.5349609375 -236.95 -71.6
L -236.7 -70.9 -236.95 -69.8 -237.2 -69.6 -237.3 -68.95 -237.8 -68.1 -237.8 -67.6 -238.3 -66.9 -238.3 -66.4
Q -238.804296875 -65.546484375 -239.25 -64.7 -239.3767578125 -64.4076171875 -239.5 -64.15 -240.3083984375 -62.462890625 -241.45 -60.85 -241.75703125 -60.396875 -242.1 -59.95 -242.270703125 -59.72421875 -242.45 -59.5 -245.7 -55.5 -250.05 -52.8 -250.5 -52.65 -250.85 -52.35 -252.8671875 -50.8830078125 -255.15 -50.75 -255.223046875 -50.625 -255.3 -50.5 -256.6 -50.25 -257.9 -50.05 -258.4 -50 -258.75 -49.85 -262.55 -49.15 -266.4 -48.6 -280.1 -46.6 -293.3 -51.15 -298.55 -53 -301.8 -57.6 -302.5 -58.65 -303.1 -59.75 -303.2 -59.9 -303.25 -60.05 -303.4658203125 -60.4458984375 -303.65 -60.85 -304.764453125 -63.2533203125 -304.85 -65.95 -305 -72.8 -301.85 -78.8 -298 -85.95 -292.45 -91.55 -284.726953125 -99.5158203125 -275.7 -105.5 -275.4169921875 -105.67578125 -275.15 -105.85 -274.7 -106.15 -274.25 -106.4 -273.65 -106.45 -272.9 -106.9 -267.95 -109.95 -262.6 -112.3
L -261.8 -113.2
Q -261.3470703125 -113.4587890625 -260.95 -113.7 -260.4263671875 -113.9724609375 -260 -114.2 -259.35 -114.5 -258.75 -114.85 -255.65 -116.1 -252.6 -117.45 -251.5595703125 -117.9193359375 -250.55 -118.45
L -250.55 -118.4
Q -250.40078125 -118.487109375 -250.25 -118.6 -248.939453125 -119.24375 -247.7 -120 -247.6595703125 -120.0958984375 -247.65 -120.25 -245.3697265625 -121.7294921875 -243.25 -123.45 -233.5861328125 -131.2083984375 -221.65 -133.45 -220.3953125 -133.6787109375 -219.15 -133.85 -218.75 -133.9 -218.3 -133.95 -216.6140625 -133.881640625 -215.05 -133.45 -213.141796875 -132.9341796875 -211.4 -131.9 -209.5 -130.8 -208.2 -129.2 -208.15 -129.1 -208.1 -129 -208.05 -128.95 -208.05 -128.9 -207.77421875 -128.0419921875 -207.65 -127.15 -211.9587890625 -126.4109375 -216.2 -125.15 -219.2 -124.25 -221.8 -122.55 -223.65 -121.8 -225.45 -120.8 -226.4955078125 -120.2169921875 -226.8 -119.55 -224.03359375 -118.308203125 -220.95 -119.75 -217.5 -121.35 -213.7 -121.8 -213.2931640625 -121.875 -212.9 -121.95 -206.2607421875 -123.87265625 -199.35 -123.15 -197.75 -123 -196.3 -122.3 -194.1 -121.25 -192.4 -119.45 -189.7 -116.65 -188.65 -113.05 -187.6392578125 -109.6806640625 -187.5 -106.25 -187.528515625 -106.0216796875 -187.55 -105.8 -188.05 -100.45 -190.05 -95.45 -190.55 -94.3 -191.05 -93.15 -191.6 -92 -191.95 -90.8 -192.95 -87.5 -191.8 -84.1 -191.673046875 -83.7267578125 -191.5 -83.45 -190.8853515625 -80.799609375 -191 -78.3 -189.734375 -69.6921875 -187.9 -61.1 -187.7763671875 -60.525 -187.65 -59.95 -185.7056640625 -50.8646484375 -183.85 -41.8 -183.765625 -40.28984375 -183.6 -38.8 -183.2587890625 -35.582421875 -182.95 -32.4 -182.9087890625 -32.3310546875 -182.9 -32.25 -182.7 -30.35 -180.75 -30.25 -179.4 -30.15 -179.1 -31.45 -178.9767578125 -31.9796875 -178.9 -32.5 -178.6861328125 -34.1419921875 -178.95 -35.8 -179.45 -38.9 -179.6 -42 -179.6919921875 -43.3115234375 -180.25 -44.2 -180.2744140625 -44.3248046875 -180.3 -44.45 -181.89453125 -52.2 -183.6 -59.95 -184.1556640625 -62.65 -184.75 -65.35 -186.9 -75 -187.75 -84.8 -187.69609375 -84.920703125 -187.65 -85.05 -187.919921875 -85.7068359375 -188.2 -86.4 -188.280859375 -87.653515625 -188.55 -88.95 -187.1 -92 -185.9 -95.15 -184.9509765625 -97.7494140625 -184.35 -100.4 -183.77734375 -101.6072265625 -183.35 -102.9 -183.2755859375 -103.991015625 -183.3 -105.1 -183.249609375 -105.329296875 -183.2 -105.55 -182.803125 -107.194140625 -183.5 -108.2 -183.5232421875 -108.381640625 -183.55 -108.6 -183.9 -111.55 -184.75 -114.3 -186.55 -120.2 -191.4 -124.05 -192.65 -125.05 -194.1 -125.7 -196.209375 -126.6525390625 -198.4 -127.15 -199.035546875 -127.03984375 -199.8 -127.1 -201.651953125 -127.19375 -203.5 -127.4 -203.4880859375 -127.4986328125 -203.5 -127.6 -204 -131 -206.4 -133.4 -206.425 -133.4251953125 -206.45 -133.45 -211.386328125 -138.398046875 -218.55 -138 Z" stroke="none" fill="#000000"></path>

<path d="M -259.75 -90.55
Q -260.3744140625 -90.2107421875 -260.95 -89.85 -267.8384765625 -85.4330078125 -267.7 -76.85 -267.7 -76.3 -267.45 -75.65 -266.6 -74.95 -265.8 -74.2 -264.35 -72.95 -262.6 -72.1 -261.7705078125 -71.990625 -260.95 -71.95 -253.509765625 -71.34765625 -246.8 -74.5 -244.9 -75.45 -242.9 -76.15 -234.655859375 -79.217578125 -229.95 -86.25 -229.746484375 -86.5396484375 -229.55 -86.85 -228.15 -89.2 -229.65 -91.6 -229.793359375 -91.8369140625 -229.95 -92.05 -231.0494140625 -93.6123046875 -232.8 -94.4 -238.3 -96.8 -244.1 -95.85 -252.45 -94.6 -259.75 -90.55
M -247.2 -91.45
Q -245 -91.15 -243.5 -89.75 -242 -88.3 -241.5 -86.2 -241.05 -84.1 -241.85 -82.25 -243.05 -80 -245.1 -78.85 -247.5 -77.5 -250.1 -77.85 -250.7052734375 -77.9365234375 -251.25 -78.15 -252.3517578125 -78.3041015625 -253.2 -79 -253.9109375 -79.52421875 -254.45 -80.4 -255.6 -82.15 -255.5 -84.35 -255.4 -86.45 -254.25 -88.2 -253.1 -90.05 -251.25 -90.85 -249.4 -91.8 -247.2 -91.45 Z" stroke="none" fill="#FFFFFF"></path>

<path d="M -219.15 -133.85
Q -220.3953125 -133.6787109375 -221.65 -133.45 -233.5861328125 -131.2083984375 -243.25 -123.45 -245.3697265625 -121.7294921875 -247.65 -120.25 -247.6595703125 -120.0958984375 -247.7 -120 -248.939453125 -119.24375 -250.25 -118.6 -250.40078125 -118.487109375 -250.55 -118.4
L -250.55 -118.45
Q -251.5595703125 -117.9193359375 -252.6 -117.45 -255.65 -116.1 -258.75 -114.85 -259.35 -114.5 -260 -114.2 -260.4263671875 -113.9724609375 -260.95 -113.7 -261.3470703125 -113.4587890625 -261.8 -113.2
L -262.6 -112.3
Q -267.95 -109.95 -272.9 -106.9 -273.65 -106.45 -274.25 -106.4 -274.7 -106.15 -275.15 -105.85 -275.4169921875 -105.67578125 -275.7 -105.5 -284.726953125 -99.5158203125 -292.45 -91.55 -298 -85.95 -301.85 -78.8 -305 -72.8 -304.85 -65.95 -304.764453125 -63.2533203125 -303.65 -60.85 -303.4658203125 -60.4458984375 -303.25 -60.05 -303.2 -59.9 -303.1 -59.75 -302.5 -58.65 -301.8 -57.6 -298.55 -53 -293.3 -51.15 -280.1 -46.6 -266.4 -48.6 -262.55 -49.15 -258.75 -49.85 -258.4 -50 -257.9 -50.05 -256.6 -50.25 -255.3 -50.5 -255.223046875 -50.625 -255.15 -50.75 -252.8671875 -50.8830078125 -250.85 -52.35 -250.5 -52.65 -250.05 -52.8 -245.7 -55.5 -242.45 -59.5 -242.270703125 -59.72421875 -242.1 -59.95 -241.75703125 -60.396875 -241.45 -60.85 -240.3083984375 -62.462890625 -239.5 -64.15 -239.3767578125 -64.4076171875 -239.25 -64.7 -244.9939453125 -65.88203125 -252.2 -63.45 -254.161328125 -62.8154296875 -258.45 -60.85 -259.376171875 -60.4302734375 -260.4 -59.95 -262.8798828125 -58.780078125 -266 -57.25 -267.35 -56.7 -268 -56.6 -269.1 -56.35 -269.85 -56.85 -270.9 -57.7 -270.6 -59.75 -270.539453125 -60.1939453125 -270.45 -60.85 -270.268359375 -61.81875 -270 -63.25 -269.85 -65.5 -271.9 -67.45 -273.7 -69.15 -276.35 -70 -277.9 -70.5 -281.2 -71.35 -284 -72.25 -285.5 -73.75 -282.55 -74.2 -280.15 -76.05 -277.7 -77.85 -276.6 -80.5 -275.55 -83.25 -275.95 -86.2 -276.35 -89.3 -278.1 -91.5 -277.9 -92.95 -276.6 -93.9 -275.35 -94.75 -273.75 -94.85 -273.15 -94.9 -270.75 -94.95 -268.95 -95 -267.85 -95.35 -265.25 -96.1 -263.15 -98.95 -262.8716796875 -99.3078125 -260.95 -102.5 -260.4546875 -103.335546875 -259.85 -104.35 -259.4982421875 -104.93359375 -259.15 -105.5 -254.5849609375 -112.5017578125 -247.6 -116.85 -245.3 -118.5 -243.5 -117.85 -241.95 -117.25 -241.55 -114.75 -241.3 -111.8 -241 -110.5 -240.35 -107.5 -237.25 -105.65 -237.123828125 -105.5734375 -237 -105.5 -234.2876953125 -103.9455078125 -230.85 -103.85 -230.4341796875 -103.8408203125 -229.95 -103.85 -227.814453125 -103.929296875 -224.35 -104.5 -220 -105.25 -217.85 -105.25 -214.25 -105.45 -213.1 -103.5 -211.95 -101.7 -213.3 -99.3 -213.6 -98.7 -216.25 -95.25 -219.15 -91.4 -218.8 -86.25 -218.5 -81.1 -215.25 -77.6 -213.5 -76.1 -212.65 -75.3 -211.15 -73.95 -210.5 -72.75 -209.6 -71.25 -209.9 -69.45 -210.2 -67.55 -211.75 -67 -212.65 -66.55 -213.85 -66.8 -214.4 -66.9 -216 -67.5 -221.3 -69.5 -226.05 -69.05 -228.223046875 -68.83671875 -229.95 -68.15 -230.3095703125 -67.97109375 -230.65 -67.8 -230.2859375 -67.402734375 -229.95 -67 -229.050390625 -65.8119140625 -228.35 -64.4 -227.3 -62.25 -227.35 -60.25 -227 -60.55 -226.6 -60.8 -226.35 -60.95 -226.1 -61 -225.95 -60.95 -225.75 -60.9 -224.442578125 -60.588671875 -224 -59.95 -223.3056640625 -59.05 -224.3 -57.5 -224.7 -56.9 -225.35 -56.55 -231.5 -53.65 -237.85 -51.35 -242.6 -49.6 -247.4 -48.3 -250 -47.6 -252.65 -47 -254.6 -46.35 -256.55 -45.65 -261.2 -44.75 -265.85 -44.1 -266 -40.65 -266 -37.05 -266 -34.85 -266.05 -32.7 -266 -32.65 -265.95 -32.55 -265.9 -32.45 -265.85 -32.35 -265.85 -32.18984375 -265.85 -32.05 -223.42734375 -31.55859375 -182.95 -32.4 -183.2587890625 -35.582421875 -183.6 -38.8 -183.765625 -40.28984375 -183.85 -41.8 -185.7056640625 -50.8646484375 -187.65 -59.95 -187.7763671875 -60.525 -187.9 -61.1 -189.734375 -69.6921875 -191 -78.3 -190.8853515625 -80.799609375 -191.5 -83.45 -191.673046875 -83.7267578125 -191.8 -84.1 -192.95 -87.5 -191.95 -90.8 -191.6 -92 -191.05 -93.15 -190.55 -94.3 -190.05 -95.45 -188.05 -100.45 -187.55 -105.8 -187.528515625 -106.0216796875 -187.5 -106.25 -187.6392578125 -109.6806640625 -188.65 -113.05 -189.7 -116.65 -192.4 -119.45 -194.1 -121.25 -196.3 -122.3 -197.75 -123 -199.35 -123.15 -206.2607421875 -123.87265625 -212.9 -121.95 -213.2931640625 -121.875 -213.7 -121.8 -217.5 -121.35 -220.95 -119.75 -224.03359375 -118.308203125 -226.8 -119.55 -226.4955078125 -120.2169921875 -225.45 -120.8 -223.65 -121.8 -221.8 -122.55 -219.2 -124.25 -216.2 -125.15 -211.9587890625 -126.4109375 -207.65 -127.15 -207.77421875 -128.0419921875 -208.05 -128.9 -208.05 -128.95 -208.1 -129 -208.15 -129.1 -208.2 -129.2 -209.5 -130.8 -211.4 -131.9 -213.141796875 -132.9341796875 -215.05 -133.45 -216.6140625 -133.881640625 -218.3 -133.95 -218.75 -133.9 -219.15 -133.85
M -205.75 -114.25
Q -205.6 -113.75 -205.6 -112.75 -205.8 -110.75 -206.8 -109.25 -207.9 -107.55 -209.6 -107.1 -211.65 -106.6 -213.6 -107.75 -214.312890625 -108.1318359375 -215.1 -108.8 -215.2751953125 -108.66875 -215.45 -108.55 -215.6611328125 -108.686328125 -215.8 -108.8 -216.9 -109.65 -217.25 -110.75 -217.85 -112.45 -216.85 -114.1 -216.1 -115.35 -214.35 -116.5 -213.75 -117 -212.25 -117.5 -209.8 -118 -207.25 -116.1 -206.05 -115.2 -205.75 -114.25
M -280.75 -88.85
Q -280.5 -88.6 -280.1 -87.6 -279.85 -86.1 -280.35 -84.65 -280.9 -83.2 -282 -82.35 -282.4533203125 -81.9453125 -282.95 -81.75 -283.9181640625 -81.2294921875 -285 -81.5 -285.207421875 -81.5123046875 -285.4 -81.55 -285.9609375 -81.7083984375 -286.4 -82.2 -287.1337890625 -82.6423828125 -287.7 -83.35 -288.55 -84.4 -288.75 -85.6 -288.9 -88.1 -287 -89.5 -285.55 -90.35 -282.75 -89.85 -281.25 -89.35 -280.75 -88.85 Z" stroke="none" fill="#D433FF"></path>
</g>
</g>
</g>
</g>
</g>
</svg>
