
<svg viewBox="0 0 272 172" height="172px" width="272px" y="0px" x="0px" preserveAspectRatio="none" xmlns:xlink="http://www.w3.org/1999/xlink" version="1.1" xmlns="http://www.w3.org/2000/svg">
<defs></defs>

<g id="Layer_2">
<g>
<g>
<g>
<path d="M 87.15 153.25
Q 87.15 153.3 87.15 153.4 87.15 153.5 87.15 153.6 87.15 153.8 87.15 154 87.15 154.0908203125 87.15 154.15 89.0921875 154.15078125 91.05 154.1
L 91 154.1
Q 90.25 153.75 89.7 153.15 88.5 153.15 87.25 153.1 87.2 153.15 87.15 153.25
M 90.8 135.45
Q 90.8 135.55 90.8 135.65 90.8 135.75 90.8 135.85 90.8 136.05 90.8 136.25 90.8 136.35 90.8 136.45 90.85 136.55 90.85 136.65 90.95 136.75 91 136.85 91.1 136.95 91.2 137.05 91.35 137.15 91.45 137.25 91.6126953125 137.4802734375 91.75 137.7 94.385546875 141.0583984375 98.75 141.95 107.5 143.65 115.85 140.95 116.2 140.6 116.6 140.25 117 139.9 117.25 139.5 117.5 139.15 117.75 138.85 117.8 138.75 117.85 138.65 117.9 138.6 117.95 138.5 117.95 138.4 117.95 138.3 117.95 138.2 117.95 138.1 117.95 138 117.95 137.9 117.95 137.8 118 137.7 118.05 137.6 118.1 137.5 118.15 137.4 118.2 137.3 118.2 137.2 118.2 137.1 118.2 136.8 118.2 136.5 118.2 136.4 118.2 136.3 118.2 136.2 118.2 136.1 118.2 135.9 118.2 135.75 118.2 135.65 118.2 135.55 118.2 135.45 118.2 135.35 118.15 135.25 118.1 135.15 118.05 135.05 118 134.9 117.95 134.85 117.95 134.75 117.95 134.65 117.95 134.55 117.95 134.45 117.95 134.35 117.9 134.15 117.85 133.95 117.85 133.85 117.8 133.75 117.75 133.65 117.75 133.55 117.65 133.45 117.6 133.35 117.5 133.25 117.35 133.15 117.25 133.05 117.15 133 117.05 132.9 116.95 132.8 116.9 132.7 116.9 132.6 116.85 132.5 116.8 132.4 116.75 132.3 116.7 132.2 116.55 132.1 116.45 132 116.35 131.9 116.25 131.8 116.05 131.6 115.9 131.4 115.85 131.3 115.75 131.2 115.7 131.1 115.65 131 115.5 130.95 115.3 130.9 115.2 130.85 115.15 130.8 115.05 130.75 115 130.7 114.9 130.6 114.85 130.5 114.75 130.4 114.65 130.3 113.45 129.55 112.15 129.05 108.05 127.6 103.65 127.8 97.55 128.05 92.75 131.9 91.4 133 90.8 134.7 90.8 134.8 90.8 134.9 90.8 135.15 90.8 135.45
M 92.75 135.75
Q 93.05 133.95 94.5 132.7 98.45 129.25 103.65 128.8 108.7 128.35 112.9 131.05 112.9 131.15 113 131.25 113.05 131.35 113.15 131.45 113.35 131.55 113.55 131.6 113.65 131.65 113.75 131.75 113.85 131.95 114 132.15 114.2 132.5 114.5 132.75 114.65 132.8 114.7 132.9 114.8 133.1 114.95 133.3 115.15 133.65 115.45 133.9 115.6 134 115.7 134.1 115.75 134.2 115.8 134.3 115.85 134.4 115.9 134.5 115.95 134.6 115.95 134.7 115.95 134.8 115.95 134.9 115.95 135.05 115.95 135.25 115.95 135.35 115.95 135.45 115.95 135.55 115.95 135.65 116.1 135.85 116.2 136.05 116.25 136.15 116.25 136.25 116.25 136.35 116.25 136.45 116.25 136.55 116.2 136.6 116.05 136.9 116 137.25 115.959765625 137.4912109375 115.95 137.7 115.95 137.7509765625 115.95 137.8 115.95 137.9 115.9 138 115.75 138.2 115.55 138.4 112.05 142.5 106.05 141.3 104.75 140.65 103.25 141.05 101.05 141.6 98.05 140.35 95.7912109375 139.36796875 94.2 137.7 93.3888671875 136.8203125 92.75 135.75
M 173.9 129.85
Q 173.75 129.8 173.6 129.75 173.5 129.75 173.45 129.7 172.4 128.55 170.85 127.95 166.8 126.4 162.3 126.95 158 127.55 154.3 129.9 153 130.7 151.95 131.8 151.9 131.9 151.85 132 151.8 132.1 151.75 132.2 151.7 132.3 151.6 132.4 151.6 132.8 151.6 133.15 151.6 133.65 151.6 134.15 151.6 134.65 151.6 135.15 151.6 135.25 151.6 135.35 151.8 135.65 152.05 135.9 152.1 136 152.2 136.1 152.3 136.2 152.4 136.3 152.72265625 137.0794921875 153.15 137.7 154.4333984375 139.3880859375 156.7 139.9 165.6 141.85 174.6 138.8 175.27734375 138.3009765625 175.8 137.7 176.0490234375 137.4583984375 176.25 137.2 176.85 136.45 177.1 135.65 177.15 135.55 177.2 135.45 177.2 135.35 177.2 135.25 177.2 135 177.2 134.7 177.2 134.5 177.2 134.3 177.2 134.2 177.2 134.1 177.1 134 177.05 133.9 177 133.8 176.9 133.7 176.9 133.5 176.9 133.3 176.9 133.2 176.85 133.15 176.8 133 176.65 132.9 176.65 132.7 176.65 132.5 176.6 132.4 176.6 132.3 176.55 132.2 176.5 132.1 176.1 131.8 175.75 131.4 175.1 130.75 174.45 130.15 174.35 130.05 174.3 129.95 174.1 129.9 173.9 129.85
M 172.45 130.7
Q 172.55 131.05 172.85 131.25 173.9 132 174.6 133 174.65 133.05 174.65 133.15 174.7 133.25 174.7 133.35 174.7 133.45 174.7 133.55 175 133.8 175.05 134.15 175.1 134.55 175.15 134.95 175.05 135.15 175 135.35 174.9 135.55 174.9 135.75 174.65 136 174.5 136.25 173.9388671875 137.073046875 173.2 137.7 172.964453125 137.9111328125 172.7 138.1 165.2 140.45 157.5 139.15 157.4 139.05 157.25 139 156.5 138.45 155.85 137.9 155.7365234375 137.801953125 155.6 137.7 154.7087890625 136.8158203125 154.35 135.65 154.2 135.45 154 135.25 153.8 134.95 153.6 134.7 153.6 134.2 153.55 133.7 153.55 133.2 153.7 132.7 154.8 131.5 156.15 130.65 159.488671875 128.470703125 163.4 127.75 163.737890625 127.697265625 164.05 127.65 164.46328125 127.689453125 164.85 127.7 165.51328125 127.808984375 166.15 127.9 169.3 128.35 171.6 130.4 171.85 130.5 172.05 130.55 172.25 130.6 172.45 130.7
M 180.65 98.85
Q 180.65 98.7 180.65 98.55 180.65 98.4 180.55 98.35 180.25 98.1 180 97.75 179.9 97.6 179.7 97.45 170.1 98.5 161 101.25 160.95 100.95 160.8 100.75 160.75 100.55 160.55 100.4 160.55 100.25 160.55 100.1 160.35 99.65 160.2 99.15 160.15 99.05 160.15 98.9 159.95 98.55 159.8 98.25 159.75 98.1 159.75 97.95 159.75 97.8 159.75 97.65 159.95 95.9 159.6 94.2 159.4 93.3 158.95 92.4 158.95 92.1 158.95 91.8 158.95 91.65 158.95 91.5 158.9 91.35 158.8 91.25 158.45 90.8 158.5 90.25 158.55 90.1 158.55 89.95 158.5 89.8 158.4 89.7 158.25 89.5 158.1 89.35 158.05 89.05 157.95 88.75 157.85 88.6 157.7 88.45 156.4 88.4 155.05 88.4 154.9 88.45 154.75 88.55 154.2 88.95 153.7 89.45 153.5 89.6 153.3 89.75 151.591015625 90.4580078125 149.9 91.2 144.6642578125 93.5412109375 139.6 96.3 139.05 96.35 138.55 96.3 138.5 96.3 138.45 96.2 138.15 95.2 137.25 94.65 137.05 94.5 136.9 94.35 136.85 94.2 136.8 94.05 136.75 93.9 136.7 93.75 136.3 93.45 135.9 93.1 135.75 93 135.6 92.85 134.9 91.65 134.35 90.4 134.1 89.7 133.55 89.15 133.55 89 133.5 88.85 132.95 87.55 132 86.4 131.55 85.85 131.4 85.15 131.1 85.05 130.8 84.9 130.75 84.9 130.65 84.85 130.55 84.75 130.5 84.65 130.35 84.5 130.25 84.35 129.15 84.3 128 84.25 125.5 85.9 123.3 88.3 118.5 93.55 114.6 99.2 114.1 98.8 113.5 98.45 107.35 94.75 101.7 90.15 101.15 90 100.6 89.8 100.4 89.75 100.25 89.65 99.2 89.6 98.1 89.65 98 89.65 97.9 89.75 97.95 90.3 97.65 90.7 97.55 90.85 97.5 91 97.5 91.3 97.5 91.6 97.25 95.75 97.2 99.9 97.1 105.1 97.1 110.35 91.85 110 86.8 108.35 83.539453125 107.3080078125 80.55 107.3 79.0927734375 107.304296875 77.7 107.55 77.15 107.5 76.65 107.5 76.65 107.65 76.65 107.8 76.4 107.85 76.2 107.9 76.4 108.3 76.55 108.75 76.35 111.5 76.35 114.3 76.35 120.85 76.35 127.4 74.4 127.8 72.45 128.1 67.4 128.85 64.3 131.15 64.75 132.1 65.35 132.9 65.05 133.75 64.8 134.65 64.35 136.05 64.85 137.35 64.8572265625 137.5251953125 64.85 137.7 64.971875 139.921484375 65.25 142.1 65.6 144.25 65.65 146.45 65.25 146.5 64.85 146.55 62.6 147.2 60.25 147.95 60.15 148 60 148.05 59.95 148.1 59.95 148.2 59.25 148.25 58.6 148.35 59.2 148.35 59.85 148.4 59.8 148.4 59.75 148.45 59.65 148.55 59.6 148.65 59.6 148.75 59.6 148.85 59.6 148.95 59.6 149.05 59.6 149.15 59.6 149.25 59.6 149.3 59.6 149.35 59.55 149.35 59.45 149.4 59.4 149.4 59.4 149.55 59.4 149.7 59.4 149.85 59.4 150.35 59.4 150.8 59.4 150.95 59.4 151.1 59.9 151.45 59.85 152 59.8 152.15 59.8 152.35 60.05 152.65 60.3 152.95 60.45 153.1 60.55 153.25 60.6 153.4 60.6 153.55 60.6 153.9240234375 60.75 154.2 61.918359375 154.2408203125 63.1 154.25 63.1 154.1974609375 63.1 154.15 63.05 154 63 153.85 62.95 153.65 62.85 153.5 62.85 153.35 62.85 153.2 62.75 153.1 62.7 152.95 62.65 152.85 62.6 152.75 62.6 152.5 62.6 152.25 62.6 151.4 62.6 150.5 62.6 150.4 62.6 150.25
L 62.6 150.15
Q 62.2 150.1 61.85 150.1 61.85 150 61.85 149.9 61.85 149.7 61.8 149.5 61.8 149.3 61.85 149.1 61.85 149 61.9 148.9 62.5 148.6 63.1 148.4 67.55 148.35 72.4 148 76.55 147.65 79.05 146 78 143.75 76.45 141.7 74.80859375 139.622265625 73 137.7 70.526171875 134.9962890625 67.75 132.6 67.9 132.1 67.85 131.6
L 67.85 131.5
Q 67.35 131.4 66.85 131.4 66.8 131.3 66.7 131.2 66.55 131.1 66.45 130.95 73.9017578125 129.6900390625 80.55 127.55 83.1357421875 126.7521484375 85.6 125.8 85.6 125.65 85.6 125.5 85.6 125.05 85.6 124.6 85.55 124.4 85.5 124.25 83.65 121.4 82.4 118.2 81.446484375 115.647265625 80.55 113.05 79.9888671875 111.4666015625 79.45 109.85 79.2 109.55 78.95 109.2 78.85 109.05 78.75 108.9 78.7 108.6 78.6 108.3
L 78.6 108.25
Q 78.6 108.15 78.6 108.05 79.5765625 108.30703125 80.55 108.55 89.99375 110.8234375 99.15 111.05 99.15 110.75 99.15 110.45 99.15 106.3 99.1 102.15 99.05 96.45 99.85 91.1 100.6 91.6 101.35 92.1 103.5 93.6 105.7 95 106.2 95.65 106.85 96.15 110.05 98.3 113.25 100.3 115.05 100.15 116.85 100 118.1 97.75 119.65 95.7 123.65 90.4 128.5 85.85 128.95 85.8 129.35 85.85 129.4 85.85 129.45 85.95 129.5 86.15 129.55 86.25 130.1 87.45 130.95 88.45 131.2 88.75 131.4 89.05 131.45 89.2 131.45 89.35 131.5 89.5 131.5 89.65 132.45 90.75 132.9 92.1 133.15 92.75 133.45 93.35 134.15 93.9 134.7 94.65 134.75 94.75 134.75 94.9 135.75 95.65 136.35 96.75 136.4 96.9 136.4 97.05 136.75 97.15 137.1 97.25 137.2 97.3 137.25 97.35 137.3 97.45 137.35 97.55 137.5 97.7 137.65 97.85 138.85 97.9 140.1 97.9
L 140.1 97.85
Q 144.9904296875 95.0203125 149.9 92.7 152.9712890625 91.2814453125 156.05 90.05 156.55 90.4 156.5 91 156.5 91.15 156.5 91.3 156.6 91.45 156.7 91.6 156.8 91.75 156.9 91.9 156.9 92.35 156.9 92.85 156.9 93 156.9 93.15 157.05 93.45 157.1 93.75 157.25 94.7 157.55 95.6 157.6 95.75 157.7 95.9 157.7 96.35 157.7 96.85 157.7 97.6 157.7 98.35 157.7 98.5 157.7 98.65 157.9 99.15 158.05 99.6 158.1 99.75 158.1 99.9 158.2 100.05 158.3 100.2 158.6 101.15 159.05 102.05 159.15 102.2 159.25 102.35 168.85 100.55 178.2 98.65 178.8 98.95 178.65 99.6 178.6 99.75 178.6 99.9 179.3 102.7 179.15 105.75 179 108.65 179 111.55 186.05 111.85 193.15 112.1 194.15 112.65 195.3 112.85
L 195.3 112.9
Q 195.35 112.95 195.45 113.05 195.15 113 194.85 113 195.05 114.6 195.7 116.15 195.55 116.25 195.4 116.4 195.35 116.85 195.25 117.3 195.25 117.45 195.2 117.6 193.95 119.35 192.75 121.05 190.9 123.65 189.25 125.9 196.95 129.1 204.6 134.1 203.85 134.45 203.3 134.75 201.2 135.9 198.75 136.35 197.8 137.05 196.65 137.4 196.2708984375 137.5263671875 195.9 137.7 195.033203125 138.1447265625 194.35 138.9 193.95 139 193.55 139.1 192.85 139.65 192.25 140.3 192.15 140.4 192.1 140.55 191.6 140.65 191.1 140.8 191.05 140.8 191 140.85 190.9 140.95 190.8 141.05 190.15 141.6 189.7 142.35 189.65 142.45 189.65 142.6 199.9 143.95 210.15 145.55 210.15 145.7 210.15 145.9 210.15 147.55 210.15 149.25 210.15 150.2 210.15 151.1 210.083984375 151.2650390625 210 151.4 211.3025390625 151.3646484375 212.55 151.3 212.466796875 149.473828125 212.35 147.65 212.35 147.55 212.35 147.5 212.25 147.5 212.2 147.5 212.2 146.2 212.2 144.85 209.35 144.45 206.55 144.05 206.55 142.15 206.55 140.25 206.55 138.969140625 206.55 137.7 206.55 136.343359375 206.55 135 206.9 134.65 207.25 134.3 204.7 131.2 200.75 129.5 199.85 129.1 198.95 128.75 198.95 127.3 199 125.85 199.05 124.7 198.65 123.7 198.65 122 198.75 120.35 198.8 119.2 198.4 118.15 198.5 117.1 198.2 116.15 198.4 115.8 198.55 115.45 198.6 115.3 198.65 115.15 198.65 114.85 198.65 114.55 198.65 113.95 198.65 113.3 198.6 113.15 198.55 113 198.2 112.9 197.85 112.8 197.85 112.75 197.8 112.75 197.7 112.6 197.55 112.45 197.45 112.35 197.35 112.2 196.4 111.9 195.5 111.55 195.25 111.45 195 111.35 188 111.1 181.05 110.85 181.05 108.1 181.05 105.35 181.05 102.7 181.05 100.1 181 99.95 180.9 99.85 180.6 99.4 180.65 98.85
M 204.55 137.7
Q 204.55 138.153515625 204.55 138.6 204.55 141.2 204.55 143.75 198.45 142.85 192.65 141.9 193.4 141.65 194.1 141.3 194.15 141.25 194.15 141.15 194.35 140.5 195.05 140.2 195.25 140.1 195.4 139.95 195.8 139.85 196.2 139.7 196.3 139.7 196.4 139.65 196.85 139.15 197.3 138.75 197.45 138.65 197.55 138.5 198.57265625 138.03515625 199.65 137.7 199.719140625 137.674609375 199.8 137.65 199.9 137.65 200 137.6 200.15 137.5 200.3 137.35 200.45 137.2 200.6 137.05 201.4 136.9 202.15 136.8 203.45 136.6 204.55 136.15 204.55 136.9349609375 204.55 137.7
M 194.65 121.95
Q 195.6 120.45 196.65 119.05 196.7 119.15 196.7 119.3 196.7 120.85 196.7 122.45 196.7 123.3 196.7 124.2 197.15 125.8 197 127.55 197 127.7 197 127.9 194.05 126.65 191.7 125.6 191.75 125.45 191.85 125.35 192.1 125.15 192.4 125 193.65 123.55 194.65 121.95
M 79 114.95
Q 79.7375 116.94140625 80.55 118.85 81.9404296875 122.2123046875 83.55 125.4 82.05859375 125.8970703125 80.55 126.35 79.479296875 126.659375 78.4 126.95 78.25 124.05 78.25 121.1 78.2 117.15 78.35 113.2 78.7 114.05 79 114.95
M 66.6 135.9
Q 66.6 135.85 66.55 135.75 66.7 135.15 66.95 134.6 68.584765625 136.0962890625 70.1 137.7 71.3408203125 138.990234375 72.5 140.35 73.3 141.85 74.55 143 76.3 144.55 76.4 146.1 73.8 146.45 71.25 146.75 71.1 146.7 71 146.7 69.35 146.35 67.7 146.35 67.55 144.7 67.4 143 67.10546875 140.35 66.85 137.7 66.8396484375 137.2 66.8 136.7 66.6 136.35 66.6 135.9 Z" stroke="none" fill="#000000"></path>

<path d="M 203.3 134.75
Q 203.85 134.45 204.6 134.1 196.95 129.1 189.25 125.9 190.9 123.65 192.75 121.05 193.95 119.35 195.2 117.6 195.25 117.45 195.25 117.3 195.35 116.85 195.4 116.4 195.55 116.25 195.7 116.15 195.05 114.6 194.85 113 195.15 113 195.45 113.05 195.35 112.95 195.3 112.9
L 195.3 112.85
Q 194.15 112.65 193.15 112.1 186.05 111.85 179 111.55 179 108.65 179.15 105.75 179.3 102.7 178.6 99.9 178.6 99.75 178.65 99.6 178.8 98.95 178.2 98.65 168.85 100.55 159.25 102.35 159.15 102.2 159.05 102.05 158.6 101.15 158.3 100.2 158.2 100.05 158.1 99.9 158.1 99.75 158.05 99.6 157.9 99.15 157.7 98.65 157.7 98.5 157.7 98.35 157.7 97.6 157.7 96.85 157.7 96.35 157.7 95.9 157.6 95.75 157.55 95.6 157.25 94.7 157.1 93.75 157.05 93.45 156.9 93.15 156.9 93 156.9 92.85 156.9 92.35 156.9 91.9 156.8 91.75 156.7 91.6 156.6 91.45 156.5 91.3 156.5 91.15 156.5 91 156.55 90.4 156.05 90.05 152.9712890625 91.2814453125 149.9 92.7 144.9904296875 95.0203125 140.1 97.85
L 140.1 97.9
Q 138.85 97.9 137.65 97.85 137.5 97.7 137.35 97.55 137.3 97.45 137.25 97.35 137.2 97.3 137.1 97.25 136.75 97.15 136.4 97.05 136.4 96.9 136.35 96.75 135.75 95.65 134.75 94.9 134.75 94.75 134.7 94.65 134.15 93.9 133.45 93.35 133.15 92.75 132.9 92.1 132.45 90.75 131.5 89.65 131.5 89.5 131.45 89.35 131.45 89.2 131.4 89.05 131.2 88.75 130.95 88.45 130.1 87.45 129.55 86.25 129.5 86.15 129.45 85.95 129.4 85.85 129.35 85.85 128.95 85.8 128.5 85.85 123.65 90.4 119.65 95.7 118.1 97.75 116.85 100 115.05 100.15 113.25 100.3 110.05 98.3 106.85 96.15 106.2 95.65 105.7 95 103.5 93.6 101.35 92.1 100.6 91.6 99.85 91.1 99.05 96.45 99.1 102.15 99.15 106.3 99.15 110.45 99.15 110.75 99.15 111.05 89.99375 110.8234375 80.55 108.55 79.5765625 108.30703125 78.6 108.05 78.6 108.15 78.6 108.25
L 78.6 108.3
Q 78.7 108.6 78.75 108.9 78.85 109.05 78.95 109.2 79.2 109.55 79.45 109.85 79.9888671875 111.4666015625 80.55 113.05 81.446484375 115.647265625 82.4 118.2 83.65 121.4 85.5 124.25 85.55 124.4 85.6 124.6 85.6 125.05 85.6 125.5 85.6 125.65 85.6 125.8 83.1357421875 126.7521484375 80.55 127.55 73.9017578125 129.6900390625 66.45 130.95 66.55 131.1 66.7 131.2 66.8 131.3 66.85 131.4 67.35 131.4 67.85 131.5
L 67.85 131.6
Q 67.9 132.1 67.75 132.6 70.526171875 134.9962890625 73 137.7 74.80859375 139.622265625 76.45 141.7 78 143.75 79.05 146 76.55 147.65 72.4 148 67.55 148.35 63.1 148.4 62.5 148.6 61.9 148.9 61.85 149 61.85 149.1 61.8 149.3 61.8 149.5 61.85 149.7 61.85 149.9 61.85 150 61.85 150.1 62.2 150.1 62.6 150.15
L 62.6 150.25
Q 62.6 150.4 62.6 150.5 62.6 151.4 62.6 152.25 62.6 152.5 62.6 152.75 62.65 152.85 62.7 152.95 62.75 153.1 62.85 153.2 62.85 153.35 62.85 153.5 62.95 153.65 63 153.85 63.05 154 63.1 154.15 63.1 154.1974609375 63.1 154.25 71.7486328125 154.3173828125 80.55 154.25 83.8392578125 154.2205078125 87.15 154.15 87.15 154.0908203125 87.15 154 87.15 153.8 87.15 153.6 87.15 153.5 87.15 153.4 87.15 153.3 87.15 153.25 87.2 153.15 87.25 153.1 88.5 153.15 89.7 153.15 90.25 153.75 91 154.1
L 91.05 154.1
Q 98.22109375 154.005859375 105.5 153.8 117.8 153.45 130.15 153.45 140.0443359375 153.419921875 149.9 153.25 180.1419921875 152.859765625 210 151.4 210.083984375 151.2650390625 210.15 151.1 210.15 150.2 210.15 149.25 210.15 147.55 210.15 145.9 210.15 145.7 210.15 145.55 199.9 143.95 189.65 142.6 189.65 142.45 189.7 142.35 190.15 141.6 190.8 141.05 190.9 140.95 191 140.85 191.05 140.8 191.1 140.8 191.6 140.65 192.1 140.55 192.15 140.4 192.25 140.3 192.85 139.65 193.55 139.1 193.95 139 194.35 138.9 195.033203125 138.1447265625 195.9 137.7 196.2708984375 137.5263671875 196.65 137.4 197.8 137.05 198.75 136.35 201.2 135.9 203.3 134.75
M 173.6 129.75
Q 173.75 129.8 173.9 129.85 174.1 129.9 174.3 129.95 174.35 130.05 174.45 130.15 175.1 130.75 175.75 131.4 176.1 131.8 176.5 132.1 176.55 132.2 176.6 132.3 176.6 132.4 176.65 132.5 176.65 132.7 176.65 132.9 176.8 133 176.85 133.15 176.9 133.2 176.9 133.3 176.9 133.5 176.9 133.7 177 133.8 177.05 133.9 177.1 134 177.2 134.1 177.2 134.2 177.2 134.3 177.2 134.5 177.2 134.7 177.2 135 177.2 135.25 177.2 135.35 177.2 135.45 177.15 135.55 177.1 135.65 176.85 136.45 176.25 137.2 176.0490234375 137.4583984375 175.8 137.7 175.27734375 138.3009765625 174.6 138.8 165.6 141.85 156.7 139.9 154.4333984375 139.3880859375 153.15 137.7 152.72265625 137.0794921875 152.4 136.3 152.3 136.2 152.2 136.1 152.1 136 152.05 135.9 151.8 135.65 151.6 135.35 151.6 135.25 151.6 135.15 151.6 134.65 151.6 134.15 151.6 133.65 151.6 133.15 151.6 132.8 151.6 132.4 151.7 132.3 151.75 132.2 151.8 132.1 151.85 132 151.9 131.9 151.95 131.8 153 130.7 154.3 129.9 158 127.55 162.3 126.95 166.8 126.4 170.85 127.95 172.4 128.55 173.45 129.7 173.5 129.75 173.6 129.75
M 90.8 135.65
Q 90.8 135.55 90.8 135.45 90.8 135.15 90.8 134.9 90.8 134.8 90.8 134.7 91.4 133 92.75 131.9 97.55 128.05 103.65 127.8 108.05 127.6 112.15 129.05 113.45 129.55 114.65 130.3 114.75 130.4 114.85 130.5 114.9 130.6 115 130.7 115.05 130.75 115.15 130.8 115.2 130.85 115.3 130.9 115.5 130.95 115.65 131 115.7 131.1 115.75 131.2 115.85 131.3 115.9 131.4 116.05 131.6 116.25 131.8 116.35 131.9 116.45 132 116.55 132.1 116.7 132.2 116.75 132.3 116.8 132.4 116.85 132.5 116.9 132.6 116.9 132.7 116.95 132.8 117.05 132.9 117.15 133 117.25 133.05 117.35 133.15 117.5 133.25 117.6 133.35 117.65 133.45 117.75 133.55 117.75 133.65 117.8 133.75 117.85 133.85 117.85 133.95 117.9 134.15 117.95 134.35 117.95 134.45 117.95 134.55 117.95 134.65 117.95 134.75 117.95 134.85 118 134.9 118.05 135.05 118.1 135.15 118.15 135.25 118.2 135.35 118.2 135.45 118.2 135.55 118.2 135.65 118.2 135.75 118.2 135.9 118.2 136.1 118.2 136.2 118.2 136.3 118.2 136.4 118.2 136.5 118.2 136.8 118.2 137.1 118.2 137.2 118.2 137.3 118.15 137.4 118.1 137.5 118.05 137.6 118 137.7 117.95 137.8 117.95 137.9 117.95 138 117.95 138.1 117.95 138.2 117.95 138.3 117.95 138.4 117.95 138.5 117.9 138.6 117.85 138.65 117.8 138.75 117.75 138.85 117.5 139.15 117.25 139.5 117 139.9 116.6 140.25 116.2 140.6 115.85 140.95 107.5 143.65 98.75 141.95 94.385546875 141.0583984375 91.75 137.7 91.6126953125 137.4802734375 91.45 137.25 91.35 137.15 91.2 137.05 91.1 136.95 91 136.85 90.95 136.75 90.85 136.65 90.85 136.55 90.8 136.45 90.8 136.35 90.8 136.25 90.8 136.05 90.8 135.85 90.8 135.75 90.8 135.65 Z" stroke="none" fill="#FDDF5E"></path>

<path d="M 94.5 132.7
Q 93.05 133.95 92.75 135.75 93.3888671875 136.8203125 94.2 137.7 95.7912109375 139.36796875 98.05 140.35 101.05 141.6 103.25 141.05 104.75 140.65 106.05 141.3 112.05 142.5 115.55 138.4 115.75 138.2 115.9 138 115.95 137.9 115.95 137.8 115.95 137.7509765625 115.95 137.7 115.959765625 137.4912109375 116 137.25 116.05 136.9 116.2 136.6 116.25 136.55 116.25 136.45 116.25 136.35 116.25 136.25 116.25 136.15 116.2 136.05 116.1 135.85 115.95 135.65 115.95 135.55 115.95 135.45 115.95 135.35 115.95 135.25 115.95 135.05 115.95 134.9 115.95 134.8 115.95 134.7 115.95 134.6 115.9 134.5 115.85 134.4 115.8 134.3 115.75 134.2 115.7 134.1 115.6 134 115.45 133.9 115.15 133.65 114.95 133.3 114.8 133.1 114.7 132.9 114.65 132.8 114.5 132.75 114.2 132.5 114 132.15 113.85 131.95 113.75 131.75 113.65 131.65 113.55 131.6 113.35 131.55 113.15 131.45 113.05 131.35 113 131.25 112.9 131.15 112.9 131.05 108.7 128.35 103.65 128.8 98.45 129.25 94.5 132.7
M 172.85 131.25
Q 172.55 131.05 172.45 130.7 172.25 130.6 172.05 130.55 171.85 130.5 171.6 130.4 169.3 128.35 166.15 127.9 165.51328125 127.808984375 164.85 127.7 164.46328125 127.689453125 164.05 127.65 163.737890625 127.697265625 163.4 127.75 159.488671875 128.470703125 156.15 130.65 154.8 131.5 153.7 132.7 153.55 133.2 153.55 133.7 153.6 134.2 153.6 134.7 153.8 134.95 154 135.25 154.2 135.45 154.35 135.65 154.7087890625 136.8158203125 155.6 137.7 155.7365234375 137.801953125 155.85 137.9 156.5 138.45 157.25 139 157.4 139.05 157.5 139.15 165.2 140.45 172.7 138.1 172.964453125 137.9111328125 173.2 137.7 173.9388671875 137.073046875 174.5 136.25 174.65 136 174.9 135.75 174.9 135.55 175 135.35 175.05 135.15 175.15 134.95 175.1 134.55 175.05 134.15 175 133.8 174.7 133.55 174.7 133.45 174.7 133.35 174.7 133.25 174.65 133.15 174.65 133.05 174.6 133 173.9 132 172.85 131.25
M 66.55 135.75
Q 66.6 135.85 66.6 135.9 66.6 136.35 66.8 136.7 66.8396484375 137.2 66.85 137.7 67.10546875 140.35 67.4 143 67.55 144.7 67.7 146.35 69.35 146.35 71 146.7 71.1 146.7 71.25 146.75 73.8 146.45 76.4 146.1 76.3 144.55 74.55 143 73.3 141.85 72.5 140.35 71.3408203125 138.990234375 70.1 137.7 68.584765625 136.0962890625 66.95 134.6 66.7 135.15 66.55 135.75
M 80.55 118.85
Q 79.7375 116.94140625 79 114.95 78.7 114.05 78.35 113.2 78.2 117.15 78.25 121.1 78.25 124.05 78.4 126.95 79.479296875 126.659375 80.55 126.35 82.05859375 125.8970703125 83.55 125.4 81.9404296875 122.2123046875 80.55 118.85
M 196.65 119.05
Q 195.6 120.45 194.65 121.95 193.65 123.55 192.4 125 192.1 125.15 191.85 125.35 191.75 125.45 191.7 125.6 194.05 126.65 197 127.9 197 127.7 197 127.55 197.15 125.8 196.7 124.2 196.7 123.3 196.7 122.45 196.7 120.85 196.7 119.3 196.7 119.15 196.65 119.05
M 204.55 138.6
Q 204.55 138.153515625 204.55 137.7 204.55 136.9349609375 204.55 136.15 203.45 136.6 202.15 136.8 201.4 136.9 200.6 137.05 200.45 137.2 200.3 137.35 200.15 137.5 200 137.6 199.9 137.65 199.8 137.65 199.719140625 137.674609375 199.65 137.7 198.57265625 138.03515625 197.55 138.5 197.45 138.65 197.3 138.75 196.85 139.15 196.4 139.65 196.3 139.7 196.2 139.7 195.8 139.85 195.4 139.95 195.25 140.1 195.05 140.2 194.35 140.5 194.15 141.15 194.15 141.25 194.1 141.3 193.4 141.65 192.65 141.9 198.45 142.85 204.55 143.75 204.55 141.2 204.55 138.6 Z" stroke="none" fill="#EE9D33"></path>
</g>
</g>
</g>
</g>
</svg>
