
<svg viewBox="0 0 112 184" height="184px" width="112px" y="0px" x="0px" preserveAspectRatio="none" xmlns:xlink="http://www.w3.org/1999/xlink" version="1.1" xmlns="http://www.w3.org/2000/svg">
<defs></defs>

<g id="fun_scrollers">
<g transform="matrix( 0.3621063232421875, 0, 0, 0.3621063232421875, -594.2,0.1)" id="svg"></g>

<g transform="matrix( 0.3621063232421875, 0, 0, 0.3621063232421875, -594.2,0.1)" id="Layer_2"></g>

<g transform="matrix( 0.3621063232421875, 0, 0, 0.3621063232421875, -594.2,0.1)" id="Layer_3"></g>

<g transform="matrix( 0.3621063232421875, 0, 0, 0.3621063232421875, -594.2,0.1)" id="Layer_2">
<g>
<g>
<g>
<path d="M 1644.6 413.8
L 1643.95 413.8
Q 1644.05 417 1642.6 422.45
L 1639.9 432.95
Q 1639 436.45 1638.4 438.2 1637.75 439.9 1636.25 443.2 1634.35 447.7 1633.35 452.55
L 1630.2 452.65 1630.2 467.25
Q 1631.4224609375 467.5296875 1633 467.4 1634 467.35 1635.95 467.15 1637.65 467 1638.85 467.2 1638.65 463.65 1639.25 461.8 1639.4 461.2 1639.85 460.15 1640.3 459.1 1640.45 458.55
L 1640.9 456.15
Q 1641.2 454.6 1642 452.65 1643 450.45 1643.45 449.3 1645.2 445.3 1646.7 440 1647.4529296875 437.4068359375 1648.65 432.4 1646.5994140625 429.3982421875 1645.45 425.95 1644.5044921875 421.4029296875 1644.6 413.8
M 1708.3 444.1
L 1701.45 443.8 1701.45 460.1
Q 1701.45 462.35 1701.2 463.4 1701 464.3 1700.35 466 1700.15 466.8 1699.9 470.1 1699.45 476.95 1695.95 482.8 1694.95 483.05 1692 482.75 1689.55 482.5 1688.35 483.3 1687.6 483.85 1686.8 485.25 1685.55 487.6 1685 489.25 1684.15 492.15 1684.35 497.1 1684.6 503.25 1684.4 505.1
L 1692.05 505.15
Q 1695.05 502.95 1697.65 499.1 1699.3 496.7 1701.8 491.85 1704.15 487.2 1705.2 484.45 1706.75 480.2 1706.85 476.6 1706.85 475.35 1706.9 474.7 1706.95 473.55 1707.15 472.8 1707.8 471.2 1708 470.4 1708.3 469.35 1708.3 467.15
L 1708.3 444.1
M 1802.1 432.5
Q 1800.1806640625 434.6416015625 1798.4 436.35
L 1798.4 446.85
Q 1798.3 449.3 1798.55 450.9 1798.85 453.35 1800.65 458.05
L 1803.55 465.65
Q 1804.65 468.4 1804.8 469.45 1804.85 470 1804.9 471.3 1804.95 472.45 1805.05 473.1 1806.2 473 1809.8 473.2 1812.8 473.4 1814.55 473 1815.95 472.75 1816.55 471.9 1817.05 471.25 1817.05 469.6
L 1816.95 460.1 1810.5 459.8
Q 1809.05 454.8 1807.25 450.65 1805.75 446.8 1805.5 445.65 1805.2 444.2 1805.2 441.2
L 1805.2 427.55 1804.8 427.55
Q 1803.7365234375 429.90546875 1802.1 432.5 Z" stroke="none" fill="#000000"></path>

<path d="M 1790.55 106.8
Q 1789.9728515625 106.511328125 1789.4 106.25
L 1788.7 106.25
Q 1788.05 105.9 1787.45 105.65 1785 105.3 1784.1 105.2 1783.3 105.1 1780.65 105.1
L 1743.75 103.8
Q 1734.6 103.4 1725.5 103.2 1715.6 102.85 1710.65 102.6
L 1700.35 102.05
Q 1696.85 102.35 1693.25 103.45 1693.025 103.525 1692.8 103.6 1681 109 1677.65 111.5 1674.3 114 1665.75 123.4
L 1664.15 126.1
Q 1662.8 129.85 1662.35 134.45 1662.1 136.95 1661.9 143.05
L 1660.65 179.6
Q 1660.2 192.2 1659.25 209.7 1658.1 231.5 1655.9 288.45
L 1652.95 361.5
Q 1652.9 365.55 1652.5 373.7
L 1651.2 412
Q 1651.1 416.55 1652.05 420.35 1652.95 423.75 1655.1 428.2 1657.1 430.9 1658.65 432.05 1660.25 433.3 1663.3 434.3 1672.05 436.4 1684.55 436.9 1691.75 437.2 1706.05 437.3
L 1771.55 438.95
Q 1780.426171875 438.9025390625 1785.25 438.25 1785.555078125 438.139453125 1785.85 438
L 1787.75 434.45 1792.7 429.75
Q 1795.8 426.8 1796.65 425.6 1797.5 424.5 1799.3 420.65 1799.85 416.45 1800.1 407.9
L 1800.95 378.1
Q 1802 343.75 1803 320.95 1804.45 289.75 1806.5 263.8
L 1808.85 235.75
Q 1809.25 232.9 1809.75 230 1810.5 226.2 1810.85 221.6
L 1813.1 191.65
Q 1814.8 169.8 1815.15 157.5
L 1815.2 154.95
Q 1815.35 145.05 1813.55 137.05 1811.5 128.05 1806.65 120.5 1801.65 113.55 1793.15 108.35
L 1790.55 106.8
M 1761.75 229.05
Q 1768.7 228.7 1777.85 228.9
L 1786.9 228.95 1789.1 229.55
Q 1791.1 233.55 1791.75 240.15
L 1792.35 243.2
Q 1792.7 245.5 1792.8 246.25 1792.8 247.05 1792.75 249.35
L 1791.45 251.65
Q 1783.25 253 1772.2 251.15
L 1771.25 249.2
Q 1767.2 249.1 1763.25 249.15
L 1755.3 249.25
Q 1752.35 249.35 1737.7 249.3 1727.3 249.35 1722.15 249.45 1715.55 249.6 1707.25 249.55 1703.4 249.55 1701.45 249.65 1693.4 249.95 1691.4 249.6 1689.45 249.25 1685.7 247.05 1682.55 239.4 1685.1 227.9 1685.3 227.55 1702.5 228.25 1724.55 229.05 1725.9 229.15
L 1734.45 229.3
Q 1750.2 229.65 1761.75 229.05
M 1689.7 386
L 1694.75 386.2
Q 1699.25 386.35 1708.3 387 1714.95 387.4 1721.55 387.65 1729.4 388 1737.4 388.45 1752.25 389.45 1761.75 389.4
L 1777.75 389.4
Q 1785 389.3 1786.75 389.5 1788.5 389.7 1791.75 391.25 1792.8 395 1792.6 399 1792.4 402.15 1791.4 406.65
L 1790.4 407.6
Q 1784.3 407.8 1779.5 407.7
L 1776 407.75
Q 1765.45 407.7 1744.4 407.4 1734.9 407.25 1723.1 407.3 1712.85 407.35 1702.55 407.05
L 1694.7 407.05
Q 1682.15 407.15 1679.45 406.9 1676.7 406.55 1673.05 404.6 1671.55 401.65 1671.2 400.55 1670.95 399.45 1670.65 395.9 1671.25 392.4 1671.65 391.3 1671.95 390.3 1673.5 387.3 1676.95 385.6 1681.4 385.55 1683.25 385.5 1689.7 386
M 1786.75 173.65
Q 1788.85 175.5 1790.2 177.65 1791.35 179.5 1792.25 182.45 1792.9 187.05 1792.55 193.4
L 1792.45 196.2
Q 1792.25 200.3 1791.7 202.2 1791 204.55 1788.75 207.35
L 1787.7 211.2
Q 1783.1 213.3 1776.3 213.8 1773.15 214.1 1764.55 214
L 1761.95 214.05
Q 1758.5 213.95 1756.55 213.4 1754.15 212.8 1751.65 211.1 1748.65 207.65 1748 206.75 1747.4 205.75 1746.5 203.45 1746.25 200.4 1746.2 199.35 1746.2 198.3 1746.25 194.9
L 1746.35 190.3
Q 1746.75 187 1747.75 184.95 1748.65 183.1 1750.95 180.45
L 1752.8 178.3
Q 1757.3 174.4 1763 173.15 1766.8 172.35 1774.5 172.35
L 1777.85 172.3
Q 1783.05 172.45 1786.75 173.65
M 1792.85 126.4
Q 1793.65 126.55 1794.5 126.8 1795.3 127 1796.1 127.3 1796.8 127.55 1797.4 127.9 1798.4 128.8 1799.35 129.75
L 1798.65 155.7 1798.9 155.7 1798.55 161.5 1796.65 161.45 1796.5 166.25
Q 1794.8 166.55 1794.15 166.65 1793.45 166.7 1791.05 166.65 1782.6 166.75 1773 168.6
L 1759.25 171.3
Q 1740.75 174.95 1736.3 175 1731.75 175.05 1723.2 171.7 1715.1 168.7 1707.5 168.1 1702.3 167.55 1696.45 165.3 1692.55 163.85 1686 160.55
L 1681.1 159.15 1677.4 157.45
Q 1676.85 155.25 1676.9 154.55 1676.9 153.8 1677.55 151.7 1681.5 151.05 1685.8 151.25
L 1733.2 152.75
Q 1747 153.1 1760.75 153.6
L 1763.45 153.7
Q 1770.2 153.95 1777.9 154.65
L 1786.55 155.45
Q 1788.55 155.65 1789.35 155.7 1790.15 155.7 1792.95 155.55
L 1793 151.8
Q 1792.5 151.7 1792.05 151.7 1791 151.55 1789.95 151.55 1788.75 151.5 1787.6 151.5 1786.35 151.45 1785.15 151.45 1783.85 151.45 1782.55 151.45 1777.25 151.5 1771.95 151.6 1771.1 151.6 1770.3 151.7 1769.35 151.65 1768.4 151.7 1767.3 151.7 1766.25 151.75 1765.1 151.7 1763.95 151.7 1762.7 151.7 1761.45 151.7 1760.05 151.7 1758.7 151.7 1757.25 151.7 1755.85 151.75 1754.25 151.7 1752.65 151.65 1751.55 151.6 1750.45 151.6 1749.75 151.55 1749.15 151.55 1748.4 151.55 1747.65 151.5 1745.95 151.45 1744.3 151.4 1741.3 151 1738.45 150.95 1735.85 150.85 1733.3 150.75 1730.65 150.65 1728 150.6 1722.55 150.6 1717.15 150.6
L 1682.45 149.7
Q 1681.65 149.45 1680.9 149 1680.6 148.95 1680.4 148.8 1680.15 148.65 1679.9 148.55 1679.75 148.45 1679.6 148.35 1679.45 148.25 1679.4 148.15 1679.35 148.1 1679.3 148.05 1679.2 147.85 1679.1 147.7 1678.95 147.3 1678.85 147.1 1678.7 146.7 1678.6 146.25 1678.3 144.85 1678.2 143.45 1678.1 141.95 1678.05 140.5 1677.95 139.05 1678 137.65 1678 136.2 1678.15 134.75 1678.2 133.4 1678.45 132.05 1678.85 129.3 1679.5 126.55 1679.85 125.2 1680.15 123.85 1680.1744140625 123.8369140625 1680.2 123.8
L 1680.2 123.8 1681.2 122.9 1682.15 122.9
Q 1682.647265625 122.701171875 1683.15 122.5 1683.95 122.3 1684.8 122.15 1685.6 122.05 1686.45 121.9 1686.6 121.9 1686.8 121.9 1687 121.9 1687.25 121.9 1687.55 121.9 1687.85 121.95 1688.2 121.95 1688.6 121.95 1689.05 121.95 1689.55 122 1690.1 122 1690.6 122 1691.25 122 1691.85 122.05 1692.55 122.05 1693.25 122.05
L 1783.15 125.15
Q 1784.25 125.25 1785.35 125.3 1786.35 125.4 1787.35 125.5 1788.3 125.65 1789.35 125.8 1790.2 125.9 1791.1 126.05 1791.9 126.25 1792.85 126.4 Z" stroke="none" fill="#F5F7F9"></path>

<path d="M 1794.5 126.8
Q 1793.65 126.55 1792.85 126.4 1791.9 126.25 1791.1 126.05 1790.2 125.9 1789.35 125.8 1788.3 125.65 1787.35 125.5 1786.35 125.4 1785.35 125.3 1784.25 125.25 1783.15 125.15
L 1693.25 122.05
Q 1692.55 122.05 1691.85 122.05 1691.25 122 1690.6 122 1690.1 122 1689.55 122 1689.05 121.95 1688.6 121.95 1688.2 121.95 1687.85 121.95 1687.55 121.9 1687.25 121.9 1687 121.9 1686.8 121.9 1686.6 121.9 1686.45 121.9 1685.6 122.05 1684.8 122.15 1683.95 122.3 1683.15 122.5 1682.647265625 122.701171875 1682.15 122.9
L 1681.2 122.9 1680.2 123.8 1680.2 123.8
Q 1680.1744140625 123.8369140625 1680.15 123.85 1679.85 125.2 1679.5 126.55 1678.85 129.3 1678.45 132.05 1678.2 133.4 1678.15 134.75 1678 136.2 1678 137.65 1677.95 139.05 1678.05 140.5 1678.1 141.95 1678.2 143.45 1678.3 144.85 1678.6 146.25 1678.7 146.7 1678.85 147.1 1678.95 147.3 1679.1 147.7 1679.2 147.85 1679.3 148.05 1679.35 148.1 1679.4 148.15 1679.45 148.25 1679.6 148.35 1679.75 148.45 1679.9 148.55 1680.15 148.65 1680.4 148.8 1680.6 148.95 1680.9 149 1681.65 149.45 1682.45 149.7
L 1717.15 150.6
Q 1722.55 150.6 1728 150.6 1730.65 150.65 1733.3 150.75 1735.85 150.85 1738.45 150.95 1741.3 151 1744.3 151.4 1745.95 151.45 1747.65 151.5 1748.4 151.55 1749.15 151.55 1749.75 151.55 1750.45 151.6 1751.55 151.6 1752.65 151.65 1754.25 151.7 1755.85 151.75 1757.25 151.7 1758.7 151.7 1760.05 151.7 1761.45 151.7 1762.7 151.7 1763.95 151.7 1765.1 151.7 1766.25 151.75 1767.3 151.7 1768.4 151.7 1769.35 151.65 1770.3 151.7 1771.1 151.6 1771.95 151.6 1777.25 151.5 1782.55 151.45 1783.85 151.45 1785.15 151.45 1786.35 151.45 1787.6 151.5 1788.75 151.5 1789.95 151.55 1791 151.55 1792.05 151.7 1792.5 151.7 1793 151.8
L 1792.95 155.55 1798.65 155.7 1799.35 129.75
Q 1798.4 128.8 1797.4 127.9 1796.8 127.55 1796.1 127.3 1795.3 127 1794.5 126.8 Z" stroke="none" fill="#110F1A"></path>

<path d="M 1798.9 155.7
L 1798.65 155.7 1792.95 155.55
Q 1790.15 155.7 1789.35 155.7 1788.55 155.65 1786.55 155.45
L 1777.9 154.65
Q 1770.2 153.95 1763.45 153.7
L 1760.75 153.6
Q 1747 153.1 1733.2 152.75
L 1685.8 151.25
Q 1681.5 151.05 1677.55 151.7 1676.9 153.8 1676.9 154.55 1676.85 155.25 1677.4 157.45
L 1681.1 159.15 1686 160.55
Q 1692.55 163.85 1696.45 165.3 1702.3 167.55 1707.5 168.1 1715.1 168.7 1723.2 171.7 1731.75 175.05 1736.3 175 1740.75 174.95 1759.25 171.3
L 1773 168.6
Q 1782.6 166.75 1791.05 166.65 1793.45 166.7 1794.15 166.65 1794.8 166.55 1796.5 166.25
L 1796.65 161.45 1798.55 161.5 1798.9 155.7 Z" stroke="none" fill="#992A3F"></path>

<path d="M 1790.2 177.65
Q 1788.85 175.5 1786.75 173.65 1783.05 172.45 1777.85 172.3
L 1774.5 172.35
Q 1766.8 172.35 1763 173.15 1757.3 174.4 1752.8 178.3
L 1750.95 180.45
Q 1748.65 183.1 1747.75 184.95 1746.75 187 1746.35 190.3
L 1746.25 194.9
Q 1746.2 198.3 1746.2 199.35 1746.25 200.4 1746.5 203.45 1747.4 205.75 1748 206.75 1748.65 207.65 1751.65 211.1 1754.15 212.8 1756.55 213.4 1758.5 213.95 1761.95 214.05
L 1764.55 214
Q 1773.15 214.1 1776.3 213.8 1783.1 213.3 1787.7 211.2
L 1788.75 207.35
Q 1791 204.55 1791.7 202.2 1792.25 200.3 1792.45 196.2
L 1792.55 193.4
Q 1792.9 187.05 1792.25 182.45 1791.35 179.5 1790.2 177.65
M 1787.25 190.8
Q 1787.6 193.45 1787.1 197.7
L 1786.1 198.65
Q 1784.95 201.15 1784.45 202.05 1783.95 202.85 1782.1 205.3 1777.05 207.7 1771.15 208.2 1766.15 208.55 1759.85 207.65 1756.75 206.45 1755.9 205.8 1755.05 205.2 1753.3 202.65 1751.45 198.05 1751.6 192.95 1753.95 188.3 1755.1 186.9 1756.2 185.6 1760.35 182.2 1763 180.35 1765.3 179.65 1767.65 178.95 1770.9 178.85
L 1774.8 179
Q 1778.25 179.1 1781.75 179.35 1782.75 180.35 1783.15 180.95 1783.6 181.55 1785.05 184.2 1786.85 187.6 1787.25 190.8 Z" stroke="none" fill="#5D5A76"></path>

<path d="M 1787.1 197.7
Q 1787.6 193.45 1787.25 190.8 1786.85 187.6 1785.05 184.2 1783.6 181.55 1783.15 180.95 1782.75 180.35 1781.75 179.35 1778.25 179.1 1774.8 179
L 1770.9 178.85
Q 1767.65 178.95 1765.3 179.65 1763 180.35 1760.35 182.2 1756.2 185.6 1755.1 186.9 1753.95 188.3 1751.6 192.95 1751.45 198.05 1753.3 202.65 1755.05 205.2 1755.9 205.8 1756.75 206.45 1759.85 207.65 1766.15 208.55 1771.15 208.2 1777.05 207.7 1782.1 205.3 1783.95 202.85 1784.45 202.05 1784.95 201.15 1786.1 198.65
L 1787.1 197.7 Z" stroke="none" fill="#F1F3F7"></path>

<path d="M 1694.75 386.2
L 1689.7 386
Q 1683.25 385.5 1681.4 385.55 1676.95 385.6 1673.5 387.3 1671.95 390.3 1671.65 391.3 1671.25 392.4 1670.65 395.9 1670.95 399.45 1671.2 400.55 1671.55 401.65 1673.05 404.6 1676.7 406.55 1679.45 406.9 1682.15 407.15 1694.7 407.05
L 1702.55 407.05
Q 1712.85 407.35 1723.1 407.3 1734.9 407.25 1744.4 407.4 1765.45 407.7 1776 407.75
L 1779.5 407.7
Q 1784.3 407.8 1790.4 407.6
L 1791.4 406.65
Q 1792.4 402.15 1792.6 399 1792.8 395 1791.75 391.25 1788.5 389.7 1786.75 389.5 1785 389.3 1777.75 389.4
L 1761.75 389.4
Q 1752.25 389.45 1737.4 388.45 1729.4 388 1721.55 387.65 1714.95 387.4 1708.3 387 1699.25 386.35 1694.75 386.2
M 1777.85 228.9
Q 1768.7 228.7 1761.75 229.05 1750.2 229.65 1734.45 229.3
L 1725.9 229.15
Q 1724.55 229.05 1702.5 228.25 1685.3 227.55 1685.1 227.9 1682.55 239.4 1685.7 247.05 1689.45 249.25 1691.4 249.6 1693.4 249.95 1701.45 249.65 1703.4 249.55 1707.25 249.55 1715.55 249.6 1722.15 249.45 1727.3 249.35 1737.7 249.3 1752.35 249.35 1755.3 249.25
L 1763.25 249.15
Q 1767.2 249.1 1771.25 249.2
L 1772.2 251.15
Q 1783.25 253 1791.45 251.65
L 1792.75 249.35
Q 1792.8 247.05 1792.8 246.25 1792.7 245.5 1792.35 243.2
L 1791.75 240.15
Q 1791.1 233.55 1789.1 229.55
L 1786.9 228.95 1777.85 228.9 Z" stroke="none" fill="#9DAEEA"></path>

<path d="M 1793.55 97.2
Q 1793.65703125 97.6634765625 1794 98.7
L 1793.75 96.6
Q 1793.666796875 94.39296875 1793.45 92.3
L 1793.4 94.55
Q 1793.45 96.6 1793.55 97.2
M 1791 42.6
Q 1791.3 36.35 1790.35 32.3 1789.15 29.2 1787.4 26.95 1785.75 24.85 1782.95 22.7
L 1779.85 20.7
Q 1773.3 16.35 1766.8 14.2 1760.35 12.05 1752.4 11.6
L 1748.65 11.5
Q 1723.55 10.35 1700.7 12
L 1697.25 12.3
Q 1689.65 12.9 1685.15 13.55 1678.5 14.45 1673.3 16.15 1672.45 17.75 1672.3 18.85 1672.1 19.95 1672 24.9
L 1671.9 27.6
Q 1671.85 29.6 1671.65 33.55 1671.65 36.95 1672.7 39.2 1675.5 40.75 1676.4 41.05 1677.25 41.3 1679.3 41.65
L 1702.4 42.85
Q 1701.1 46.35 1700.45 50.35 1699.85 53.35 1699.45 58.05 1698.75 66.45 1698.35 69.4 1697.35 75.75 1695.65 80.5 1693.6451171875 85.603515625 1693 91.35
L 1693.55 91.4
Q 1693 98.75 1693 98.85
L 1693.25 101
Q 1694.95 101.6 1696.2 102.05
L 1692.8 103.6
Q 1693.025 103.525 1693.25 103.45 1696.85 102.35 1700.35 102.05
L 1710.65 102.6
Q 1715.6 102.85 1725.5 103.2 1734.6 103.4 1743.75 103.8
L 1780.65 105.1
Q 1783.3 105.1 1784.1 105.2 1785 105.3 1787.45 105.65 1788.05 105.9 1788.7 106.25
L 1789.4 106.25
Q 1787.6603515625 105.549609375 1785.9 105.25
L 1785.95 104.75
Q 1787.85 104.55 1792.3 103.5 1793.35 100.45 1793.3 96.85 1793.25 94.65 1792.6 90.05
L 1793.2 90.05
Q 1792.99765625 88.37578125 1792.7 86.8 1789.85 71.45 1790.55 51.25
L 1791 42.6
M 1783.1 38.6
Q 1783.2 39.35 1783.35 40.2
L 1712.15 39.35 1711.25 36.4 1678.55 34.65
Q 1676.05 28.45 1677.95 22.1 1723.7 9.65 1769.35 22.55 1769.35 22.85 1775.75 27.75 1782.35 33.6 1783.1 38.6
M 1784.1 51.15
Q 1784.15 52 1784.15 54.6
L 1784.15 60.8
Q 1784.2 75 1786.35 88.5 1787.1 94.15 1786.7 98
L 1784.75 99.85
Q 1781.35 100 1776.65 99.9
L 1699.15 97.7
Q 1700 90.75 1700.35 89.05 1700.7 87.3 1701.85 84 1703.8 77.75 1704.75 67.45 1705.95 54.6 1708.15 46.9
L 1711.05 44.1
Q 1713.2 43.9 1714 43.85 1714.8 43.85 1717.45 43.9
L 1775.25 45.5
Q 1779.6 45.95 1783.15 47.85 1783.85 49.5 1784.1 51.15 Z" stroke="none" fill="#7E1A34"></path>

<path d="M 1793.2 90.05
L 1792.6 90.05
Q 1793.25 94.65 1793.3 96.85 1793.35 100.45 1792.3 103.5 1787.85 104.55 1785.95 104.75
L 1785.9 105.25
Q 1787.6603515625 105.549609375 1789.4 106.25 1789.9728515625 106.511328125 1790.55 106.8
L 1793.15 108.35
Q 1801.65 113.55 1806.65 120.5 1811.5 128.05 1813.55 137.05 1815.35 145.05 1815.2 154.95
L 1815.15 157.5
Q 1814.8 169.8 1813.1 191.65
L 1810.85 221.6
Q 1810.5 226.2 1809.75 230 1809.25 232.9 1808.85 235.75
L 1806.5 263.8
Q 1804.45 289.75 1803 320.95 1802 343.75 1800.95 378.1
L 1800.1 407.9
Q 1799.85 416.45 1799.3 420.65 1797.5 424.5 1796.65 425.6 1795.8 426.8 1792.7 429.75
L 1787.75 434.45 1785.85 438 1785.75 438.2
Q 1785.504296875 438.235546875 1785.25 438.25 1780.426171875 438.9025390625 1771.55 438.95
L 1706.05 437.3
Q 1691.75 437.2 1684.55 436.9 1672.05 436.4 1663.3 434.3 1660.25 433.3 1658.65 432.05 1657.1 430.9 1655.1 428.2 1652.95 423.75 1652.05 420.35 1651.1 416.55 1651.2 412
L 1652.5 373.7
Q 1652.9 365.55 1652.95 361.5
L 1655.9 288.45
Q 1658.1 231.5 1659.25 209.7 1660.2 192.2 1660.65 179.6
L 1661.9 143.05
Q 1662.1 136.95 1662.35 134.45 1662.8 129.85 1664.15 126.1
L 1665.75 123.4
Q 1674.3 114 1677.65 111.5 1681 109 1692.8 103.6
L 1696.2 102.05
Q 1694.95 101.6 1693.25 101
L 1693 98.85
Q 1693 98.75 1693.55 91.4
L 1693 91.35 1692.6 91.35 1692.4 96.15 1690.45 96.1
Q 1681.3 99.95 1675.9 103.05 1668.2 107.45 1663.25 112.9 1659.1 118.5 1657.1 125.8 1655.45 131.85 1655.1 140
L 1653.35 188.95
Q 1653.05 200.25 1652.2 222.7
L 1651.55 241
Q 1650.95 257.6 1650.8 260.45 1650.35 271.45 1649.7 279.8 1648.85 289.6 1648.65 302.4 1648.15 326.35 1647.25 344.65 1645.8 374.35 1645.25 392.7
L 1644.65 412.1
Q 1644.6251953125 412.9763671875 1644.6 413.8 1644.5044921875 421.4029296875 1645.45 425.95 1646.5994140625 429.3982421875 1648.65 432.4 1650.7236328125 435.4736328125 1653.7 438.1 1657.2 440.05 1661.5 441.05 1664.9 441.9 1669.75 442.35
L 1701.45 443.8 1708.3 444.1 1735.95 445.4
Q 1752.65 446.15 1759.3 446.25 1772.45 446.3 1782.7 444.9 1788.95 443.45 1793.45 440.4 1795.7740234375 438.8505859375 1798.4 436.35 1800.1806640625 434.6416015625 1802.1 432.5 1803.7365234375 429.90546875 1804.8 427.55 1806.4794921875 423.9841796875 1806.9 420.95 1807.65 415.75 1808.1 391.7
L 1808.45 372.95
Q 1809.15 338.35 1810.25 313.8 1811.7 281.8 1814.25 254.75 1816.25 234.4 1818.3 206.95
L 1820.4 181.65
Q 1822 161.7 1821.65 151.65 1821 135.1 1815.9 122.4 1812.85 116.05 1809.9 112.15 1806.1 107.1 1801.25 104.3 1796.65 101.85 1794.3 99.65 1794.127734375 99.1333984375 1794 98.7 1793.65703125 97.6634765625 1793.55 97.2 1793.45 96.6 1793.4 94.55
L 1793.45 92.3 1793.55 90.05 1793.2 90.05 Z" stroke="none" fill="#706C84"></path>

<path d="M 1784.15 54.6
Q 1784.15 52 1784.1 51.15 1783.85 49.5 1783.15 47.85 1779.6 45.95 1775.25 45.5
L 1717.45 43.9
Q 1714.8 43.85 1714 43.85 1713.2 43.9 1711.05 44.1
L 1708.15 46.9
Q 1705.95 54.6 1704.75 67.45 1703.8 77.75 1701.85 84 1700.7 87.3 1700.35 89.05 1700 90.75 1699.15 97.7
L 1776.65 99.9
Q 1781.35 100 1784.75 99.85
L 1786.7 98
Q 1787.1 94.15 1786.35 88.5 1784.2 75 1784.15 60.8
L 1784.15 54.6 Z" stroke="none" fill="#E21F2D"></path>

<path d="M 1783.35 40.2
Q 1783.2 39.35 1783.1 38.6 1782.35 33.6 1775.75 27.75 1769.35 22.85 1769.35 22.55 1723.7 9.65 1677.95 22.1 1676.05 28.45 1678.55 34.65
L 1711.25 36.4 1712.15 39.35 1783.35 40.2 Z" stroke="none" fill="#DF202E"></path>
</g>
</g>
</g>
</g>

<g transform="matrix( 0.3621063232421875, 0, 0, 0.3621063232421875, -594.2,0.1)" id="Layer_3">
<g>
<g>
<g>
<path d="M 1766.95 439.75
L 1760.15 439.65 1755.9 451.25
Q 1753.7 457.45 1752.1 460.75 1751.15 462.75 1748.95 466.65 1746.8 470.5 1745.85 472.55 1745.1 474.1 1744.75 475.35 1744.4 476.85 1744.5 479.25 1744.65 482.55 1744.65 483.15 1744.6 483.9 1744.5 485.4 1744.45 486.7 1744.85 487.6 1745.4 488.95 1747.55 490.4 1752.6 494.05 1758.15 497.45 1760.55 498.85 1761.85 499.2 1763.35 499.6 1766.05 499.4 1769.05 499.25 1770.25 499.4
L 1770.3 494.4
Q 1770.3 492.7 1770.1 491.85 1769.55 489.9 1766.65 487.5
L 1760.7 482.45
Q 1758.55 480.6 1757 479.8 1754.8 478.65 1752.85 479 1756.4 472.7 1758.05 469.5 1760.75 464.15 1762.3 459.6 1763.85 454.5 1764.85 452.05 1766.4 448.35 1766.6 447.6 1767.35 444.9 1766.95 439.75
M 1666.4 286
L 1659.2 285.9
Q 1659.65 295.4 1661.2 304.25 1661.5 305.95 1662.1 306.8 1663 307.95 1665.9 308.35 1714.75 314.95 1757.9 321.5 1767.3 322.9 1771.5 323.4 1779.15 324.3 1785.2 324.35
L 1785.05 317.45 1671.6 301.15
Q 1669.65 300.8 1669.05 300.15 1668.55 299.55 1668.25 298
L 1666.4 286
M 1769.7 257.2
Q 1764.9 259.25 1762.45 260.6 1758.55 262.75 1756.05 265.25 1752.7 268.65 1751.15 273.3 1749.55 278 1750.2 282.7
L 1754 282.75
Q 1754.05 282.95 1754.15 283.05 1754.3 283.2 1754.7 283.2
L 1762.6 283.3
Q 1763.3 283.3 1763.65 283.2 1764.35 283 1765.35 281.95 1766.6 281.3 1767.05 280.8 1767.35 280.55 1767.65 280.05 1768.1 279.4 1768.2 279.25 1768.95 278.25 1770.25 277.9 1770.3 277.4 1770.9 276.85 1771.7 276.15 1771.85 275.95 1772.2 275.45 1772.2 274.3
L 1772.2 268.5
Q 1772.2 266.7 1772.05 266.15
L 1772 266.15
Q 1773.9 265.25 1776.35 264.2 1781.15 262.25 1783.05 261.7 1786 260.95 1791.3 260.45 1793.95 260.15 1795.4 260.55 1796.75 261 1798.15 262.15 1803.7 266.6 1805.1 273.5
L 1811.85 273.6
Q 1812.55 268.8 1811.15 264.25 1809.7 259.45 1806.35 256.35 1804.15 254.35 1802.1 253.75 1800.4 253.25 1797.95 253.25 1791.55 253.05 1784.7 253.5 1778.95 254 1775.8 254.9 1773.7 255.5 1769.7 257.2
M 1701.2 283.45
Q 1701.95 283.9 1703.75 284.15 1704.5 284.35 1705.95 284.9 1706.75 285.1 1708.35 285.1
L 1716.1 285.2 1716.1 283.65
Q 1718.15 284.6 1720.25 285.55 1723.45 287 1724.7 287.35 1728.45 288.55 1732.2 288 1731.85 287.05 1732.2 284.4 1732.5 282.1 1731.7 281.1 1731.25 280.6 1730.05 280
L 1725.3 277.85
Q 1710.8 271.3 1702.15 267.95 1695.85 265.5 1691.6 264.55 1685.8 263.35 1676.25 263.55 1663.95 263.8 1660.75 263.6
L 1660.75 270.4
Q 1661.5 270.45 1673.3 270.5 1679.9 270.55 1684.4 271.35
L 1684.4 275.15
Q 1688.75 278.45 1693.2 280.55
L 1696.75 282.15
Q 1698.25 282.85 1699.1 282.85 1700.15 282.85 1700.35 282.9
L 1701.2 283.45 Z" stroke="none" fill="#000000"></path>
</g>
</g>
</g>
</g>

<g transform="matrix( 0.3621063232421875, 0, 0, 0.3621063232421875, -594.2,0.1)" id="Layer_6"></g>

<g transform="matrix( 0.3621063232421875, 0, 0, 0.3621063232421875, -594.2,0.1)" id="MergedLayer_1"></g>
</g>
</svg>
