
<svg viewBox="0 0 135 115" height="115px" width="135px" y="0px" x="0px" preserveAspectRatio="none" xmlns:xlink="http://www.w3.org/1999/xlink" version="1.1" xmlns="http://www.w3.org/2000/svg">
<defs></defs>

<g id="Layer_1"></g>

<g id="Layer_2">
<g transform="matrix( 1.05511474609375, 0, 0, 1.0621795654296875, -21.7,43.1)" id="Layer_1">
<g>
<g>
<g>
<path d="M 39.85 46.1
Q 35.8 46.3 31.8 47.65 30.3 48.15 29.15 49.25 27.4 50.95 29.45 52.25 29.8 52.5 30.15 52.35 34.7 50.65 39.55 50.4 40.95 50.3 41.6 49.1 42.9 46.55 39.85 46.1
M 36.05 35.4
Q 36.15 34.8 35.65 34.45 31.55 32.1 26.65 32.55 25.1 32.65 24.75 34.2 24.45 35.4 25.6 35.95 27.75 37.05 30.3 37 31.3 36.95 32.2 37.3 35.55 38.4 36.05 35.4
M 73.85 -20.9
Q 64.0154296875 -12.81484375 61.9 -1.15 53.0634765625 5.5498046875 52.6 17.6 52.441015625 21.830078125 53.9 25.4 50.0748046875 25.32578125 46.25 25.25 43.3248046875 25.25 40.4 25.25
L 40.4 25.3
Q 40 25.4 39.65 25.5 39.4 25.55 39.2 25.7 38.95 26 38.7 26.25 38.55 26.4 38.45 26.55 38.35 26.7 38.25 26.85 38 32.15 39.7 37.25 44 50.2 55.35 58.1 63.4 63.75 73.1 65.8 90.65 69.6 108.2 65.1 114.2775390625 63.5451171875 119.7 61.05 120.3033203125 61.00546875 121.05 60.7 131.15 56.45 136.45 46.85 139.05 42.15 141.45 37.45 142.5 34.8 143.3 32.1 143.3666015625 31.875 143.4 31.65 144.05 29.175 143.5 26.7 143.2 25.4 141.75 25.3 139.358203125 25.1130859375 136.95 25.05 141.056640625 16.762890625 141.2 7.3 141.5 -8.4 133.75 -22.15 133.4 -24.2 132.35 -26.05 130 -30.1 126.65 -33.35 126.4 -33.5 126.15 -33.55 125.6 -33.7 125.05 -33.8 114.75 -30.25 105.9 -23.5 104.7015625 -22.601171875 103.55 -21.7 103.398046875 -22.1966796875 103.25 -22.7 102.8 -24.05 102.15 -25.3 102.2 -25.75 102.15 -26.15 102.05 -26.95 101.5 -27.55 101.3 -27.85 101.1 -28.1 100.85 -29.8 100.2 -31.35 99.6 -32.9 98.6 -34.25 98.25 -34.55 97.9 -34.8 96.8 -35.5 95.5 -35.3 90.6 -33.95 86.35 -30.75 80 -25.95 73.85 -20.9
M 74.15 -7.2
Q 70.95 -6 67.85 -4.65 67.246484375 -4.3759765625 66.65 -4.1 76.8525390625 -22.1466796875 95.8 -31.2 96.05 -30.9 96.35 -30.65 96.5 -30.5 96.6 -30.35 96.7 -30.2 96.75 -30.05 97.05 -28.2 97.8 -26.5 98.35 -25.25 98.4 -23.9 99.4 -22.5 99.65 -20.8 99.77890625 -19.811328125 100.2 -18.9 95.84453125 -14.9033203125 92.9 -10.1 92.8126953125 -10.090234375 92.7 -10.1 89.35 -10.25 86 -10.25 80 -9.3 74.15 -7.2
M 82.9 -5.7
Q 86.8736328125 -6.372265625 90.95 -6.45 90.9138671875 -6.28984375 90.85 -6.15 91.05 -5.85 91.25 -5.65 91.6 -5.3 91.95 -5.05 92.35 -4.95 92.7 -4.85 93.1 -4.95 93.45 -5.05 93.7 -5.15 93.95 -5.3 94.38203125 -5.9095703125 94.8 -6.5 95.0240234375 -6.7037109375 95.2 -6.95 95.262109375 -7.053515625 95.3 -7.15 106.8240234375 -22.3734375 124.65 -29.4 131.35 -21.2 134.85 -10.85 139.8 3.85 135.6 18.7 134.8 20.05 134.3 21.5 133.75 23.15 132.7 24.6 132.5 24.75 132.35 24.9 132.2 25 132.05 25.15 131.9 25.3 131.75 25.45 131.7 25.55 131.65 25.7 131.25 26.35 131.15 27.1 131.05 27.65 131.2 28.25 131.4 28.5 131.6 28.75 131.95 29.05 132.35 29.35 132.4 29.3642578125 132.45 29.35 132.5005859375 29.43828125 132.55 29.5 132.65 29.7 132.8 29.8 133.05 29.95 133.25 30.1 136.471875 29.802734375 139.55 29.9 139.6751953125 29.7044921875 139.75 29.5 139.81484375 30.614453125 139.35 31.65 139.3609375 31.675 139.35 31.7 138.7 33.2 138.3 34.8 138.25 34.85 138.25 34.95 138.15 35.1 138.05 35.25 137.55 36.2 137.05 37.15 134.3 42.85 130.7 48.05 126.35 54.35 119.15 56.95 118.1150390625 57.294921875 117.85 58.2 111.6681640625 60.90234375 105 62.3 87.15 66 69.75 60.8 49.85 54.8 43.6 35.5 42.6 32.5 42 29.35 44.125 29.3162109375 46.25 29.25 50.425 29.1994140625 54.6 29.1 54.95 29.05 55.35 28.95 55.5 28.9 55.6 28.8 55.6408203125 28.777734375 55.65 28.75 55.8828125 29.0546875 56.1 29.35 56.75 29.4 57.4 29.35 57.6 29.35 57.75 29.25 58.4 28.85 58.2 28.25 55.9 21.15 57.05 13.85 57.4560546875 11.2337890625 58.45 9 59.4578125 6.732421875 61.05 4.85 63.16953125 2.3728515625 66.3 0.55 72.625390625 -3.1779296875 79.4 -4.95 81.1587890625 -5.3607421875 82.9 -5.7
M 55.6 35.6
Q 56.1 35.55 56.6 35.6 60.7 36.05 62.85 33.2 62.8935546875 32.2638671875 62.5 31.65 62.0138671875 30.8541015625 60.8 30.6 56.2 29.75 51.5 30.35 48.9943359375 30.021484375 48.05 31.65 47.875 32.0037109375 47.75 32.45 47.6 33 48 33.3 51.25 35.7 55.6 35.6
M 114.65 46.3
Q 114.65 46.35 114.6 46.35 114.35 46.4 114.1 46.45 113.9 46.45 113.75 46.55 113.05 46.95 112.8 47.7 112.55 48.5 112.1 49.25 111.95 49.9 111.55 50.5 105.3 59.05 94.6 56.2 91.25 53.8 87.55 53.35 87.3 53.55 87.05 53.8 86.85 54 86.65 54.25 86.6 54.7 86.6 55.15 86.6 55.45 86.65 55.8 88.3 57.55 90.5 58.6 102.7 64.3 112.8 55.3 116.65 51.85 116.25 47.15 116 46.9 115.75 46.7 115.25 46.3 114.65 46.3
M 87.85 27.35
L 87.85 27.4
Q 87.6 27.45 87.45 27.45 87.35 27.45 87.25 27.5 86.4 27.85 86.2 28.75 86.05 29.35 86.5 29.75 89.05 32 89.5 28.75 89.4 28.4 89.2 28.1 88.7 27.45 87.85 27.35
M 100 31.65
Q 100.3251953125 32.511328125 101.2 32.9 103.65703125 34.058984375 103.7 31.65 103.7109375 31.4611328125 103.7 31.25 103.5 28.35 101.3 27.15 101.1 27.2 100.9 27.2 100.85 27.2 100.75 27.25 100.3 27.45 100.05 27.9 99.3 29.6 100 31.6 100.0083984375 31.6251953125 100 31.65
M 118.35 6.6
Q 111.65 -0.8 101.3 0.1 97.1 0.4 93.25 2.45 90.05 4.2 87.3 6.7 79.5 13.85 81.7 23.9 81.95 25 83 25.15 88.1 26 93.25 26 99.95 25.95 106.55 26.3 110.9 26.45 115.3 26.65 115.05 26.75 114.9 26.95 114.75 27.15 114.6 27.45 114.5 27.65 114.5 27.9 114.5 28.1 114.5 28.35 114.55 28.55 114.6 28.7 114.8 29 115.05 29.3 115.45 29.85 115.8 30.4 115.75 30.85 116.1 31.2 116.3 31.35 116.4 31.5 116.4501953125 31.5767578125 116.5 31.65 118.0767578125 33.9138671875 120.45 32.8 120.846875 32.2330078125 120.8 31.65 120.7814453125 31.2046875 120.5 30.75 119.45 29.15 118.2 27.7 118 27.3 117.8 27.05 117.65 26.85 117.5 26.75 120 26.85 120.6 24.45 122.7 16.45 119.75 8.9 119.25 7.6 118.35 6.6
M 104.65 3.75
Q 104.15 4.5 103.7 5.2 99.6 11.9 101.95 19.45 102.45 21.1 103.25 22.6 94.05 22.3 84.85 21.9 84.2 19.45 84.95 17.05 85.45 15.65 86.2 14.35 91.3 5.6 101.2 3.65 102.9 3.7 104.65 3.75 Z" stroke="none" fill="#000000"></path>

<path d="M 66.3 0.55
Q 63.16953125 2.3728515625 61.05 4.85 61.12734375 12.3654296875 64.85 18.6 64.6 14.55 65.9 10.5 67.1 6.6 69.6 3.25 73.39453125 -1.82265625 79.4 -4.95 72.625390625 -3.1779296875 66.3 0.55 Z" stroke="none" fill="#2A2D69"></path>

<path d="M 76.4 -0.3
Q 78.6064453125 -2.3923828125 82.9 -5.7 81.1587890625 -5.3607421875 79.4 -4.95 73.39453125 -1.82265625 69.6 3.25 67.1 6.6 65.9 10.5 64.6 14.55 64.85 18.6 61.12734375 12.3654296875 61.05 4.85 59.4578125 6.732421875 58.45 9 58.7857421875 12.03828125 59.95 15.05 62.25 21.05 67.1 24.85 66.9 15.3 69.35 9.35 71.5 4.35 76.4 -0.3 Z" stroke="none" fill="#8CB6E5"></path>

<path d="M 90.95 -6.45
Q 86.8736328125 -6.372265625 82.9 -5.7 78.6064453125 -2.3923828125 76.4 -0.3 71.5 4.35 69.35 9.35 66.9 15.3 67.1 24.85 62.25 21.05 59.95 15.05 58.7857421875 12.03828125 58.45 9 57.4560546875 11.2337890625 57.05 13.85 55.9 21.15 58.2 28.25 58.4 28.85 57.75 29.25 57.6 29.35 57.4 29.35 56.75 29.4 56.1 29.35 55.8828125 29.0546875 55.65 28.75 55.6408203125 28.777734375 55.6 28.8 55.5 28.9 55.35 28.95 54.95 29.05 54.6 29.1 50.425 29.1994140625 46.25 29.25 44.125 29.3162109375 42 29.35 42.6 32.5 43.6 35.5 49.85 54.8 69.75 60.8 87.15 66 105 62.3 111.6681640625 60.90234375 117.85 58.2 118.1150390625 57.294921875 119.15 56.95 126.35 54.35 130.7 48.05 134.3 42.85 137.05 37.15 137.55 36.2 138.05 35.25 138.15 35.1 138.25 34.95 138.25 34.85 138.3 34.8 138.7 33.2 139.35 31.7 139.3609375 31.675 139.35 31.65 139.81484375 30.614453125 139.75 29.5 139.6751953125 29.7044921875 139.55 29.9 136.471875 29.802734375 133.25 30.1 133.05 29.95 132.8 29.8 132.65 29.7 132.55 29.5 132.5005859375 29.43828125 132.45 29.35 132.4 29.3642578125 132.35 29.35 131.95 29.05 131.6 28.75 131.4 28.5 131.2 28.25 131.05 27.65 131.15 27.1 131.25 26.35 131.65 25.7 131.7 25.55 131.75 25.45 131.9 25.3 132.05 25.15 132.2 25 132.35 24.9 132.5 24.75 132.7 24.6 133.75 23.15 134.3 21.5 134.8 20.05 135.6 18.7 139.8 3.85 134.85 -10.85 131.35 -21.2 124.65 -29.4 106.8240234375 -22.3734375 95.3 -7.15 95.262109375 -7.053515625 95.2 -6.95 95.0240234375 -6.7037109375 94.8 -6.5 94.38203125 -5.9095703125 93.95 -5.3 93.7 -5.15 93.45 -5.05 93.1 -4.95 92.7 -4.85 92.35 -4.95 91.95 -5.05 91.6 -5.3 91.25 -5.65 91.05 -5.85 90.85 -6.15 90.9138671875 -6.28984375 90.95 -6.45
M 125.25 -22.6
Q 129.1 -16.25 129.85 -7.45 130.45 -0.65 129.25 8.75 121.8751953125 -1.3302734375 110.4 -6.85 115.7091796875 -16.9935546875 125.25 -22.6
M 101.3 0.1
Q 111.65 -0.8 118.35 6.6 119.25 7.6 119.75 8.9 122.7 16.45 120.6 24.45 120 26.85 117.5 26.75 117.65 26.85 117.8 27.05 118 27.3 118.2 27.7 119.45 29.15 120.5 30.75 120.7814453125 31.2046875 120.8 31.65 120.846875 32.2330078125 120.45 32.8 118.0767578125 33.9138671875 116.5 31.65 116.4501953125 31.5767578125 116.4 31.5 116.3 31.35 116.1 31.2 115.75 30.85 115.8 30.4 115.45 29.85 115.05 29.3 114.8 29 114.6 28.7 114.55 28.55 114.5 28.35 114.5 28.1 114.5 27.9 114.5 27.65 114.6 27.45 114.75 27.15 114.9 26.95 115.05 26.75 115.3 26.65 110.9 26.45 106.55 26.3 99.95 25.95 93.25 26 88.1 26 83 25.15 81.95 25 81.7 23.9 79.5 13.85 87.3 6.7 90.05 4.2 93.25 2.45 97.1 0.4 101.3 0.1
M 101.2 32.9
Q 100.3251953125 32.511328125 100 31.65 100.0083984375 31.6251953125 100 31.6 99.3 29.6 100.05 27.9 100.3 27.45 100.75 27.25 100.85 27.2 100.9 27.2 101.1 27.2 101.3 27.15 103.5 28.35 103.7 31.25 103.7109375 31.4611328125 103.7 31.65 103.65703125 34.058984375 101.2 32.9
M 87.85 27.4
L 87.85 27.35
Q 88.7 27.45 89.2 28.1 89.4 28.4 89.5 28.75 89.05 32 86.5 29.75 86.05 29.35 86.2 28.75 86.4 27.85 87.25 27.5 87.35 27.45 87.45 27.45 87.6 27.45 87.85 27.4
M 114.6 46.35
Q 114.65 46.35 114.65 46.3 115.25 46.3 115.75 46.7 116 46.9 116.25 47.15 116.65 51.85 112.8 55.3 102.7 64.3 90.5 58.6 88.3 57.55 86.65 55.8 86.6 55.45 86.6 55.15 86.6 54.7 86.65 54.25 86.85 54 87.05 53.8 87.3 53.55 87.55 53.35 91.25 53.8 94.6 56.2 105.3 59.05 111.55 50.5 111.95 49.9 112.1 49.25 112.55 48.5 112.8 47.7 113.05 46.95 113.75 46.55 113.9 46.45 114.1 46.45 114.35 46.4 114.6 46.35
M 56.6 35.6
Q 56.1 35.55 55.6 35.6 51.25 35.7 48 33.3 47.6 33 47.75 32.45 47.875 32.0037109375 48.05 31.65 48.9943359375 30.021484375 51.5 30.35 56.2 29.75 60.8 30.6 62.0138671875 30.8541015625 62.5 31.65 62.8935546875 32.2638671875 62.85 33.2 60.7 36.05 56.6 35.6
M 67.85 -4.65
Q 70.95 -6 74.15 -7.2 80 -9.3 86 -10.25 89.35 -10.25 92.7 -10.1 92.8126953125 -10.090234375 92.9 -10.1 95.84453125 -14.9033203125 100.2 -18.9 99.77890625 -19.811328125 99.65 -20.8 99.4 -22.5 98.4 -23.9 98.35 -25.25 97.8 -26.5 97.05 -28.2 96.75 -30.05 96.7 -30.2 96.6 -30.35 96.5 -30.5 96.35 -30.65 96.05 -30.9 95.8 -31.2 76.8525390625 -22.1466796875 66.65 -4.1 67.246484375 -4.3759765625 67.85 -4.65 Z" stroke="none" fill="#655F97"></path>

<path d="M 103.7 5.2
Q 104.15 4.5 104.65 3.75 102.9 3.7 101.2 3.65 91.3 5.6 86.2 14.35 85.45 15.65 84.95 17.05 84.2 19.45 84.85 21.9 94.05 22.3 103.25 22.6 102.45 21.1 101.95 19.45 99.6 11.9 103.7 5.2 Z" stroke="none" fill="#FFFFFF"></path>

<path d="M 129.85 -7.45
Q 129.1 -16.25 125.25 -22.6 115.7091796875 -16.9935546875 110.4 -6.85 121.8751953125 -1.3302734375 129.25 8.75 130.45 -0.65 129.85 -7.45 Z" stroke="none" fill="#504884"></path>
</g>
</g>
</g>
</g>
</g>
</svg>
